<svg width="452" height="372" viewBox="0 0 452 372" fill="none" xmlns="http://www.w3.org/2000/svg">
<path d="M444.705 230.948L441.039 230.93C439.509 230.92 439.248 229.043 440.327 228.258C440.383 228.22 440.439 228.183 440.495 228.145C439.401 228.392 438.284 228.633 437.176 228.828C436.759 230.328 436.481 231.855 436.223 233.41L435.747 357.158L347.002 356.861C347.016 357.034 347.007 357.203 346.97 357.39C346.785 358.084 345.916 358.666 345.219 358.383C343.866 357.848 342.537 357.318 341.171 356.853L223.666 356.474C223.629 356.661 223.522 356.835 223.368 356.999C222.804 357.642 222.178 358.224 221.534 358.779C221.493 359.233 221.358 359.669 221.149 359.992C219.592 362.337 218.269 364.85 216.263 366.888C215.689 367.456 214.932 367.72 214.146 367.759C213.632 367.78 213.131 367.608 212.696 367.351C211.927 368.416 211.312 369.56 210.809 370.751L399.089 371.357C399.089 371.357 399.238 371.216 399.322 371.16C401.857 369.398 404.92 369.272 407.811 369.892C409.123 368.91 410.552 368.073 412.062 367.568C413.492 367.096 415.1 367.073 416.318 368.043C417.18 368.725 417.594 369.707 417.825 370.75C419.649 370.867 421.445 371.124 423.279 371.438L450.046 371.516L450.558 236.752C448.203 235.265 446.131 233.322 444.756 230.934L444.705 230.948Z" fill="#E83C38"/>
<path d="M243.847 14.8026C244.114 14.9283 244.385 15.0305 244.68 15.1374L262.239 15.1982C264.273 14.748 266.268 14.2417 268.245 13.8291C271.975 13.0326 275.832 12.4558 279.639 12.9887C281.955 13.3243 284.056 14.1286 285.995 15.2658L437.014 15.766L436.75 88.111C437.534 87.3411 439.218 87.6737 439.207 89.083C439.2 92.3182 439.371 95.6372 438.601 98.7948C438.221 100.35 437.56 101.728 436.707 102.971L436.235 226.087C437.717 225.844 439.184 225.55 440.661 225.209C441.439 223.732 442.413 222.124 444.063 221.647C445.147 221.325 446.214 221.585 447.243 222.031C448.082 220.859 448.734 219.527 449.19 218.449C449.772 216.982 450.315 215.337 450.601 213.642L450.614 208.656C450.571 208.38 450.501 208.122 450.43 207.865C450.284 207.374 450.386 206.98 450.614 206.685L451.091 77.2669C450.942 77.2861 450.797 77.2818 450.657 77.2541C448.921 76.9356 447.315 76.0831 446.685 74.3525C446.144 72.9073 446.524 71.2301 446.974 69.8103C447.532 68.0953 448.337 66.4779 449.007 64.8094C449.626 63.2767 450.272 61.6036 450.292 60.1475C450.3 59.492 450.673 59.079 451.173 58.8857L451.376 1.49473L233.637 0.78889C229.178 1.95254 224.686 2.91497 220.157 1.60678C219.652 1.45831 219.375 1.136 219.257 0.74772L111.203 0.385598C110.98 0.901201 110.443 1.28187 109.859 1.28811L104.177 1.26115C103.968 2.07168 103.596 2.84986 102.994 3.4367C102.887 3.73195 102.649 4.07436 102.378 4.21554C101.949 4.42269 101.556 4.68593 101.164 4.94916C100.417 5.40998 99.7073 5.92688 98.9414 6.35966C98.6658 6.52426 98.3761 6.6374 98.0394 6.61957C97.5297 6.61625 97.0755 6.33186 96.794 5.91125C96.5922 5.57937 96.5773 5.16273 96.6467 4.8114C96.6744 4.67087 96.7443 4.56301 96.8189 4.43171C95.9814 4.24199 95.1578 3.982 94.3577 3.72664C93.6042 3.48051 93.1911 2.74188 93.3672 1.97358C93.534 1.25213 94.412 0.744145 95.1186 0.981032C95.9843 1.27368 96.8547 1.5429 97.7435 1.71844C97.9541 1.76001 98.188 1.8062 98.3985 1.84778C98.3985 1.84778 98.4453 1.85702 98.4687 1.86164C98.4687 1.86164 98.4687 1.86164 98.4453 1.85702C98.5388 1.8755 98.6558 1.8986 98.754 1.89365C98.8008 1.90289 98.8242 1.90751 98.8709 1.91675C98.1831 1.7079 97.705 1.17545 97.2829 0.605385C97.2453 0.549303 97.2124 0.469797 97.1795 0.390293L34.6162 0.178189C34.8969 0.233622 35.1683 0.335898 35.3698 0.546044C35.9228 1.06894 35.9015 2.03815 35.3602 2.56397C34.7582 3.15081 34.0671 3.57402 33.3947 4.02527C33.3386 4.06288 33.25 4.14271 33.1985 4.15689C33.1985 4.15689 33.1985 4.15689 33.2219 4.16151C33.3386 4.06288 33.3854 4.07212 33.2219 4.16151C33.1052 4.26014 32.9839 4.3822 32.886 4.50887C32.8441 4.59794 32.7834 4.65897 32.7416 4.74804C32.7277 4.8183 32.667 4.87933 32.6298 4.94497C32.6205 4.99182 32.6113 5.03865 32.602 5.08549C32.2535 6.11175 31.0151 6.47557 30.2185 5.70987C30.2185 5.70987 30.1763 5.67721 30.1576 5.64917C30.1576 5.64917 30.1342 5.64455 30.1108 5.63993C30.0031 5.56999 29.872 5.49544 29.7643 5.4255C29.6098 5.34632 29.4787 5.27176 29.3242 5.19258C29.1947 5.84838 28.9295 6.45305 28.463 6.9693C28.099 7.33546 27.5942 7.43045 27.131 7.31464C26.6147 8.57544 25.9626 9.78511 25.0764 10.8268C24.1295 11.9296 22.9528 12.7193 21.6682 13.3173C21.6869 13.3454 21.7291 13.3781 21.7479 13.4061C21.9216 13.7568 22.044 14.1216 22.115 14.5007L115.135 14.814C115.135 14.814 115.223 14.7342 115.256 14.6919C115.793 14.1896 116.362 13.6449 117.035 13.3154C117.969 12.8915 118.914 12.9077 119.85 13.336C120.538 13.6666 121.133 14.2221 121.672 14.8153L242.113 15.2145C242.538 14.7873 243.14 14.5657 243.833 14.8728L243.847 14.8026Z" fill="#E83C38"/>
<path d="M14.4326 355.769L14.8664 243.061C14.4089 243.409 13.7918 243.457 13.2628 243.182C12.5793 242.828 12.3808 241.864 12.7488 241.231C13.2847 240.364 13.9887 239.383 14.8757 238.707L15.4245 90.5896C15.3587 90.4306 15.2929 90.2716 15.2551 90.0938C14.897 88.8307 14.7913 87.52 14.7837 86.2044C14.2925 86.1074 13.8013 86.0104 13.3242 85.9649C12.3375 85.916 11.7745 85.0748 11.9549 84.1613C12.4588 81.4866 13.7159 78.9363 15.4883 76.8529L15.7045 16.9337C15.5775 16.5922 15.4785 16.232 15.3795 15.8717C15.2852 15.4881 15.1674 15.0998 15.0497 14.7115C14.6099 14.6003 14.2305 14.3064 14.0937 13.7683C13.8957 13.0478 14.3381 12.1618 15.0953 12.0193C15.8291 11.8722 16.2216 11.7307 16.838 11.3171C17.1182 11.129 17.6687 10.5564 17.8738 10.2562C18.4704 9.32758 18.805 8.37158 19.0458 7.27538C18.8154 6.71885 18.6131 6.14352 18.6118 5.53488C18.6053 4.70621 18.9217 3.96563 19.2848 3.23429C19.3733 3.03273 19.5226 2.89188 19.6907 2.77907C19.7729 1.87056 19.8785 0.966671 20.0075 0.0674063L1.42877 0L0.399533 273.86C0.941625 273.699 1.54054 273.866 1.84594 274.535C2.67268 276.255 3.46269 278.285 2.81685 280.202C2.69143 280.591 2.50047 280.942 2.26735 281.261C2.63778 281.724 2.79357 282.412 2.42989 282.9C1.47402 284.171 0.985981 285.535 0.938002 287.131C0.917776 288.587 1.14534 290.019 1.3215 291.466C1.62623 293.984 1.46776 296.386 0.279833 298.463L0 370.026L3.93274 370.049C6.21885 369.794 8.49571 369.587 10.7731 369.623C10.7911 369.286 10.8792 368.963 11.1686 368.728C11.8035 368.22 12.5132 367.704 13.3071 367.252C13.3066 367.008 13.3341 366.746 13.4552 366.502C14.2095 365.021 15.3381 363.613 16.861 362.916C18.2017 362.281 19.7072 362.164 21.1577 362.573C23.9698 363.347 26.0558 365.706 27.1651 368.334C31.1908 368.131 35.6135 367.642 38.8783 370.185L189.851 370.676C189.995 370.315 190.115 369.949 190.306 369.598C191.242 367.811 192.764 366.384 194.478 365.335C195.029 365.006 195.684 365.135 196.138 365.542C196.199 365.481 196.264 365.396 196.348 365.34C196.96 364.949 197.957 365.195 198.309 365.873C198.45 366.144 198.59 366.415 198.755 366.691C198.806 366.799 198.886 366.887 198.961 366.999C199.078 367.144 199.2 367.266 199.345 367.392C199.345 367.392 199.388 367.424 199.43 367.457C199.453 367.462 199.495 367.494 199.491 367.518C199.641 367.62 199.786 367.746 199.936 367.849C199.806 366.412 199.953 364.932 200.693 363.643C201.537 362.203 203.012 361.253 204.62 360.865C204.3 360.023 204.705 358.838 205.892 358.853C207.496 358.854 207.679 361.007 206.52 361.581C206.553 361.661 206.614 361.721 206.647 361.801C206.873 362.502 206.379 363.403 205.645 363.55C205.444 363.583 205.239 363.64 205.056 363.701C204.954 363.73 204.846 363.781 204.743 363.81C204.818 363.8 204.814 363.823 204.613 363.857C204.557 363.894 204.482 363.904 204.426 363.942C204.29 364.012 204.127 364.102 204.01 364.2C204.01 364.2 203.954 364.238 203.949 364.261C203.954 364.238 203.982 364.219 204.038 364.181C203.982 364.219 203.921 364.28 203.865 364.318C203.749 364.416 203.655 364.52 203.562 364.623C203.529 364.665 203.473 364.703 203.441 364.745C203.371 364.853 203.273 364.979 203.226 365.092C203.838 364.58 204.468 364.096 205.164 363.771C205.617 363.569 206.108 363.422 206.589 363.323C208.235 361.019 209.815 358.679 211.391 356.362L14.4185 355.718L14.4326 355.769Z" fill="#E83C38"/>
<path d="M75.7746 117.398L75.8267 102.613L105.455 102.721L105.491 91.2176L75.8626 91.1094L75.9027 77.2463L109.445 77.3486L109.48 65.48L61.2684 65.3279L61.193 86.6306C61.8207 87.1439 62.3598 87.7371 62.7495 88.4711C63.4443 89.7521 63.6392 91.2264 63.5021 92.6594C63.2233 95.6706 61.9062 98.5253 61.8565 101.484C61.8578 102.093 61.5406 102.468 61.1109 102.676L61 129.203L110.4 129.371L110.435 117.502L75.7044 117.385L75.7746 117.398Z" fill="#E83C38"/>
<path d="M164.506 109.029C172.546 105.604 177.32 98.9052 177.637 89.7935C177.357 89.9815 177.039 90.1134 176.661 90.0629C176.165 89.9894 175.565 89.579 175.48 89.0267C175.343 88.2452 175.215 87.4169 175.302 86.6067C175.325 86.4896 175.343 86.3959 175.366 86.2788C175.056 85.6335 174.826 84.9552 174.824 84.2249C174.813 83.4196 175.49 82.8232 176.247 82.8025C176.565 82.7922 176.832 82.9179 177.057 83.1327C174.569 72.2259 164.683 65.6743 150.084 65.6384L122.471 65.5389L122.405 84.8237C122.639 84.9917 122.836 85.2252 122.912 85.5808C124.148 90.6433 124.814 95.8852 124.152 101.084C124.051 101.843 123.58 102.504 122.729 102.506C122.607 102.507 122.472 102.455 122.331 102.428L122.221 129.442L136.989 129.487L137.053 111.687L150.628 111.739L162.853 129.582L178.715 129.624L164.478 109.048L164.506 109.029ZM149.144 99.9356L137.121 99.8975L137.218 77.6256L149.24 77.6637C158.275 77.6957 162.81 81.8037 162.784 88.8312C162.752 95.7605 158.183 99.9443 149.172 99.9168L149.144 99.9356Z" fill="#E83C38"/>
<path d="M231.493 109.239C239.8 105.696 244.657 98.6973 244.702 89.118C244.76 74.796 234.121 65.9055 217.095 65.8526L189.481 65.7532L189.236 129.633L204.004 129.678L204.068 111.877L217.643 111.93L229.868 129.773L245.73 129.815L231.493 109.239ZM216.131 100.145L204.108 100.107L204.205 77.8352L216.228 77.8733C216.98 77.876 217.701 77.9209 218.369 77.98C218.533 77.8906 218.701 77.7778 218.864 77.6884C218.981 77.3463 219.12 77.0088 219.302 76.704C219.824 75.9067 220.646 75.558 221.558 75.7382C222.401 75.9045 223.108 76.5066 223.759 77.0245C223.904 76.9071 224.072 76.7943 224.273 76.761C224.361 76.316 224.491 75.9036 224.7 75.4583C225.035 74.7457 226.04 74.5792 226.649 74.9427C227.347 75.3482 227.494 76.2046 227.163 76.8937C226.67 77.9157 226.995 78.9776 226.684 80.0599C226.605 80.3364 226.441 80.5475 226.302 80.7632C228.597 82.6767 229.744 85.4827 229.728 89.0082C229.697 95.9375 225.128 100.121 216.117 100.094L216.131 100.145Z" fill="#E83C38"/>
<path d="M308.84 71.6331C308.597 71.6338 308.326 71.6532 308.078 71.6773C307.9 71.7152 307.723 71.7531 307.541 71.8145C307.461 71.8475 307.382 71.8805 307.321 71.9415C307.069 72.1107 306.775 72.2473 306.433 72.2529C306.041 72.2726 305.689 72.0816 305.422 71.8342C305.155 71.5868 304.995 71.1658 305.013 70.8287C305.013 70.4635 305.161 70.0792 305.432 69.8163C305.493 69.7553 305.6 69.7035 305.661 69.6424C300.408 66.7069 294.18 65.0147 287.329 65.0002C267.193 64.9416 252.377 78.9285 252.296 97.9184C252.221 116.885 266.93 131.008 287.089 131.071C307.15 131.14 322.051 117.218 322.122 98.1532C322.168 86.9681 317.074 77.5665 308.836 71.6565L308.84 71.6331ZM287.151 118.454C275.759 118.419 267.221 110.089 267.26 97.9533C267.299 85.8178 275.909 77.5407 287.3 77.5758C290.167 77.5822 292.852 78.1368 295.258 79.1229C295.416 78.8135 295.57 78.5275 295.747 78.2461C296.157 77.6458 296.863 77.3957 297.537 77.6748C298.098 77.9074 298.343 78.3937 298.381 78.9367C298.676 78.9219 298.947 78.9024 299.242 78.8876C299.544 78.339 299.843 77.8138 300.122 77.2606C300.28 76.9512 300.439 76.6418 300.578 76.3043C300.657 76.1496 300.713 75.9902 300.792 75.8355C300.801 75.7887 300.811 75.7418 300.848 75.6762C300.95 75.4044 301.053 75.1326 301.155 74.8607C301.173 74.767 301.196 74.6499 301.215 74.5563C301.26 73.5917 302.464 72.6614 303.373 73.3519C304.221 73.9817 305.045 74.6069 305.888 75.2601C306.436 75.6847 306.896 76.5543 306.402 77.2111C306.169 77.53 305.959 77.8537 305.768 78.2053C305.698 78.3132 305.647 78.4491 305.577 78.557C305.568 78.6038 305.563 78.6272 305.559 78.6507C305.545 78.7209 305.536 78.7678 305.498 78.8334C305.294 79.377 305.159 79.9346 305.048 80.4967C304.785 81.8317 304.521 83.1668 304.028 84.4322C304.089 84.7363 304.072 85.0735 303.885 85.4017C303.806 85.5564 303.685 85.6785 303.545 85.7725C305.876 89.1044 307.236 93.2911 307.209 98.1041C307.17 110.24 298.561 118.517 287.169 118.482L287.151 118.454Z" fill="#E83C38"/>
<path d="M388.495 91.3792C388.495 91.3792 388.341 91.3 388.275 91.2627C387.826 90.9549 387.222 90.5679 386.931 90.0724C386.627 90.3776 386.347 90.6873 386.002 90.9598C385.395 91.4483 384.572 91.5535 383.987 90.9511C383.48 90.4374 383.389 89.4217 383.996 88.9332C385.877 87.4065 386.93 85.2782 387.79 83.0145C385.013 72.5861 375.264 66.329 361.006 66.2875L333.393 66.1881L333.147 130.068L347.915 130.113L347.979 112.312L361.554 112.365L373.779 130.208L389.641 130.25L375.404 109.673C383.178 106.366 387.864 99.9908 388.477 91.3511L388.495 91.3792ZM360.061 100.608L348.038 100.57L348.135 78.2981L360.157 78.3362C369.192 78.3683 373.727 82.4762 373.7 89.5038C373.669 96.4331 369.1 100.617 360.089 100.589L360.061 100.608Z" fill="#E83C38"/>
<path d="M105.22 299.65C96.75 299.65 89.16 297.78 82.45 294.04C75.85 290.19 70.735 284.965 67.105 278.365L77.995 267.97C81.075 272.7 85.035 276.495 89.875 279.355C94.715 282.105 99.885 283.48 105.385 283.48C109.895 283.48 113.91 282.545 117.43 280.675C120.95 278.695 123.7 276 125.68 272.59C127.77 269.18 128.815 265.22 128.815 260.71C128.815 256.31 127.825 252.46 125.845 249.16C123.975 245.75 121.335 243.11 117.925 241.24C114.625 239.37 110.885 238.435 106.705 238.435C102.525 238.435 98.565 239.37 94.825 241.24C91.195 243.11 88.28 245.75 86.08 249.16H69.91L83.275 180.85H140.53V197.515H96.475L90.535 229.36C92.515 227.38 95.045 225.785 98.125 224.575C101.315 223.365 104.945 222.76 109.015 222.76C116.385 222.76 122.93 224.355 128.65 227.545C134.48 230.735 139.045 235.135 142.345 240.745C145.755 246.355 147.46 252.845 147.46 260.215C147.46 268.025 145.59 274.9 141.85 280.84C138.11 286.67 133.05 291.29 126.67 294.7C120.4 298 113.25 299.65 105.22 299.65ZM214.694 299.65C206.444 299.43 199.184 297.505 192.914 293.875C186.644 290.245 181.419 285.515 177.239 279.685C173.059 273.745 169.869 267.365 167.669 260.545C165.579 253.615 164.534 246.85 164.534 240.25C164.534 233.21 165.689 226.17 167.999 219.13C170.309 212.09 173.664 205.71 178.064 199.99C182.464 194.16 187.744 189.54 193.904 186.13C200.064 182.61 206.994 180.85 214.694 180.85C222.944 180.85 230.149 182.72 236.309 186.46C242.579 190.2 247.804 195.04 251.984 200.98C256.164 206.92 259.299 213.355 261.389 220.285C263.589 227.215 264.689 233.87 264.689 240.25C264.689 247.4 263.534 254.495 261.224 261.535C258.914 268.465 255.559 274.79 251.159 280.51C246.869 286.23 241.644 290.85 235.484 294.37C229.324 297.78 222.394 299.54 214.694 299.65ZM183.344 240.25C183.564 245.31 184.279 250.37 185.489 255.43C186.809 260.38 188.789 264.945 191.429 269.125C194.069 273.305 197.314 276.66 201.164 279.19C205.014 281.72 209.524 282.985 214.694 282.985C220.084 282.985 224.704 281.665 228.554 279.025C232.514 276.275 235.759 272.755 238.289 268.465C240.819 264.065 242.689 259.39 243.899 254.44C245.219 249.49 245.879 244.76 245.879 240.25C245.879 235.19 245.164 230.185 243.734 225.235C242.414 220.175 240.434 215.555 237.794 211.375C235.154 207.195 231.909 203.84 228.059 201.31C224.209 198.78 219.754 197.515 214.694 197.515C209.304 197.515 204.629 198.89 200.669 201.64C196.709 204.28 193.464 207.8 190.934 212.2C188.404 216.49 186.479 221.11 185.159 226.06C183.949 231.01 183.344 235.74 183.344 240.25ZM332.72 299.65C324.47 299.43 317.21 297.505 310.94 293.875C304.67 290.245 299.445 285.515 295.265 279.685C291.085 273.745 287.895 267.365 285.695 260.545C283.605 253.615 282.56 246.85 282.56 240.25C282.56 233.21 283.715 226.17 286.025 219.13C288.335 212.09 291.69 205.71 296.09 199.99C300.49 194.16 305.77 189.54 311.93 186.13C318.09 182.61 325.02 180.85 332.72 180.85C340.97 180.85 348.175 182.72 354.335 186.46C360.605 190.2 365.83 195.04 370.01 200.98C374.19 206.92 377.325 213.355 379.415 220.285C381.615 227.215 382.715 233.87 382.715 240.25C382.715 247.4 381.56 254.495 379.25 261.535C376.94 268.465 373.585 274.79 369.185 280.51C364.895 286.23 359.67 290.85 353.51 294.37C347.35 297.78 340.42 299.54 332.72 299.65ZM301.37 240.25C301.59 245.31 302.305 250.37 303.515 255.43C304.835 260.38 306.815 264.945 309.455 269.125C312.095 273.305 315.34 276.66 319.19 279.19C323.04 281.72 327.55 282.985 332.72 282.985C338.11 282.985 342.73 281.665 346.58 279.025C350.54 276.275 353.785 272.755 356.315 268.465C358.845 264.065 360.715 259.39 361.925 254.44C363.245 249.49 363.905 244.76 363.905 240.25C363.905 235.19 363.19 230.185 361.76 225.235C360.44 220.175 358.46 215.555 355.82 211.375C353.18 207.195 349.935 203.84 346.085 201.31C342.235 198.78 337.78 197.515 332.72 197.515C327.33 197.515 322.655 198.89 318.695 201.64C314.735 204.28 311.49 207.8 308.96 212.2C306.43 216.49 304.505 221.11 303.185 226.06C301.975 231.01 301.37 235.74 301.37 240.25Z" fill="#E83C38"/>
</svg>
