<svg width="24" height="24" viewBox="0 0 24 24" fill="none" xmlns="http://www.w3.org/2000/svg">
<path d="M9.03344 18.5C15.0697 18.5 18.3722 13.4978 18.3722 9.16124C18.3722 9.02062 18.3691 8.87687 18.3628 8.73624C19.0053 8.27164 19.5597 7.69617 20 7.03687C19.4017 7.30307 18.7664 7.47692 18.1159 7.55249C18.8009 7.14194 19.3137 6.49698 19.5594 5.73718C18.915 6.11904 18.2104 6.38841 17.4756 6.53374C16.9806 6.00771 16.326 5.65941 15.6131 5.5427C14.9003 5.42599 14.1688 5.54737 13.5318 5.88806C12.8949 6.22876 12.3879 6.7698 12.0892 7.42754C11.7906 8.08528 11.717 8.82308 11.8797 9.52687C10.575 9.46139 9.29862 9.12247 8.13332 8.53207C6.96802 7.94166 5.9398 7.11296 5.11531 6.09968C4.69627 6.82216 4.56804 7.6771 4.75669 8.49073C4.94534 9.30436 5.43671 10.0156 6.13094 10.48C5.60975 10.4634 5.09998 10.3231 4.64375 10.0706V10.1112C4.64328 10.8694 4.9054 11.6044 5.38554 12.1912C5.86568 12.778 6.53422 13.1804 7.2775 13.33C6.7947 13.4621 6.28799 13.4813 5.79656 13.3862C6.0063 14.0383 6.41438 14.6086 6.96385 15.0176C7.51331 15.4265 8.17675 15.6537 8.86156 15.6675C7.69895 16.5807 6.26278 17.0761 4.78438 17.0737C4.52219 17.0733 4.26027 17.0573 4 17.0256C5.5019 17.9892 7.24902 18.5009 9.03344 18.5Z" fill="#252525"/>
</svg>
