<svg width="24" height="24" viewBox="0 0 24 24" fill="none" xmlns="http://www.w3.org/2000/svg">
<rect width="24" height="24" rx="12" fill="white"/>
<path fill-rule="evenodd" clip-rule="evenodd" d="M12 19.5C16.1421 19.5 19.5 16.1421 19.5 12C19.5 7.85786 16.1421 4.5 12 4.5C7.85786 4.5 4.5 7.85786 4.5 12C4.5 16.1421 7.85786 19.5 12 19.5ZM12 21C16.9706 21 21 16.9706 21 12C21 7.02944 16.9706 3 12 3C7.02944 3 3 7.02944 3 12C3 16.9706 7.02944 21 12 21Z" fill="#252525"/>
<path fill-rule="evenodd" clip-rule="evenodd" d="M13.929 17.6794C14.635 16.3032 15.1158 14.2975 15.1158 12C15.1158 9.7025 14.635 7.69684 13.929 6.32065C13.1825 4.86529 12.42 4.5 11.9993 4.5C11.5786 4.5 10.8161 4.86529 10.0696 6.32065C9.3637 7.69684 8.88281 9.7025 8.88281 12C8.88281 14.2975 9.3637 16.3032 10.0696 17.6794C10.8161 19.1347 11.5786 19.5 11.9993 19.5C12.42 19.5 13.1825 19.1347 13.929 17.6794ZM11.9993 21C14.549 21 16.6158 16.9706 16.6158 12C16.6158 7.02944 14.549 3 11.9993 3C9.4497 3 7.38281 7.02944 7.38281 12C7.38281 16.9706 9.4497 21 11.9993 21Z" fill="#252525"/>
<path fill-rule="evenodd" clip-rule="evenodd" d="M19.7465 10.1094H4.25195V8.60938H19.7465V10.1094Z" fill="#252525"/>
<path fill-rule="evenodd" clip-rule="evenodd" d="M19.7465 15.3906H4.25195V13.8906H19.7465V15.3906Z" fill="#252525"/>
</svg>
