<svg width="29" height="29" viewBox="0 0 29 29" fill="none" xmlns="http://www.w3.org/2000/svg">
<path d="M14.5 0C6.4931 0 0 6.4931 0 14.5C0 22.5069 6.4931 29 14.5 29C22.5069 29 29 22.5069 29 14.5C29 6.4931 22.5069 0 14.5 0ZM10.2865 21.9199H6.75506V11.2956H10.2865V21.9199ZM8.52087 9.84485H8.49786C7.31284 9.84485 6.54642 9.02909 6.54642 8.00956C6.54642 6.96702 7.33629 6.17383 8.54433 6.17383C9.75237 6.17383 10.4958 6.96702 10.5188 8.00956C10.5188 9.02909 9.75237 9.84485 8.52087 9.84485ZM23.02 21.9199H19.489V16.2362C19.489 14.8078 18.9777 13.8336 17.7 13.8336C16.7245 13.8336 16.1435 14.4907 15.8881 15.125C15.7948 15.352 15.772 15.6693 15.772 15.9868V21.9199H12.2408C12.2408 21.9199 12.287 12.2923 12.2408 11.2956H15.772V12.7999C16.2413 12.076 17.0809 11.0462 18.9545 11.0462C21.2778 11.0462 23.02 12.5647 23.02 15.828V21.9199Z" fill="white"/>
</svg>
