<svg width="42" height="42" viewBox="0 0 42 42" fill="none" xmlns="http://www.w3.org/2000/svg">
<path d="M40.0312 11.8125H36.0938C35.9197 11.8125 35.7528 11.8816 35.6297 12.0047C35.5066 12.1278 35.4375 12.2947 35.4375 12.4688V37.4062C35.4375 37.5803 35.5066 37.7472 35.6297 37.8703C35.7528 37.9934 35.9197 38.0625 36.0938 38.0625H40.0312C40.2053 38.0625 40.3722 37.9934 40.4953 37.8703C40.6184 37.7472 40.6875 37.5803 40.6875 37.4062V12.4688C40.6875 12.2947 40.6184 12.1278 40.4953 12.0047C40.3722 11.8816 40.2053 11.8125 40.0312 11.8125ZM39.375 36.75H36.75V13.125H39.375V36.75Z" fill="#151F59"/>
<path d="M33.4688 38.0625C33.6428 38.0625 33.8097 37.9934 33.9328 37.8703C34.0559 37.7472 34.125 37.5803 34.125 37.4062V17.7188C34.125 17.5447 34.0559 17.3778 33.9328 17.2547C33.8097 17.1316 33.6428 17.0625 33.4688 17.0625H29.5312C29.3572 17.0625 29.1903 17.1316 29.0672 17.2547C28.9441 17.3778 28.875 17.5447 28.875 17.7188V37.4062C28.875 37.5803 28.9441 37.7472 29.0672 37.8703C29.1903 37.9934 29.3572 38.0625 29.5312 38.0625H33.4688ZM30.1875 18.375H32.8125V36.75H30.1875V18.375Z" fill="#151F59"/>
<path d="M26.9062 38.0625C27.0803 38.0625 27.2472 37.9934 27.3703 37.8703C27.4934 37.7472 27.5625 37.5803 27.5625 37.4062V22.3125C27.5625 22.1385 27.4934 21.9715 27.3703 21.8485C27.2472 21.7254 27.0803 21.6562 26.9062 21.6562H22.9688C22.7947 21.6562 22.6278 21.7254 22.5047 21.8485C22.3816 21.9715 22.3125 22.1385 22.3125 22.3125V37.4062C22.3125 37.5803 22.3816 37.7472 22.5047 37.8703C22.6278 37.9934 22.7947 38.0625 22.9688 38.0625H26.9062ZM23.625 22.9688H26.25V36.75H23.625V22.9688Z" fill="#151F59"/>
<path d="M20.3438 38.0625C20.5178 38.0625 20.6847 37.9934 20.8078 37.8703C20.9309 37.7472 21 37.5803 21 37.4062V27.5625C21 27.3885 20.9309 27.2215 20.8078 27.0985C20.6847 26.9754 20.5178 26.9062 20.3438 26.9062H16.4062C16.2322 26.9062 16.0653 26.9754 15.9422 27.0985C15.8191 27.2215 15.75 27.3885 15.75 27.5625V37.4062C15.75 37.5803 15.8191 37.7472 15.9422 37.8703C16.0653 37.9934 16.2322 38.0625 16.4062 38.0625H20.3438ZM17.0625 28.2188H19.6875V36.75H17.0625V28.2188Z" fill="#151F59"/>
<path d="M13.7812 38.0625C13.9553 38.0625 14.1222 37.9934 14.2453 37.8703C14.3684 37.7472 14.4375 37.5803 14.4375 37.4062V30.1875C14.4375 30.0135 14.3684 29.8465 14.2453 29.7235C14.1222 29.6004 13.9553 29.5312 13.7812 29.5312H9.84375C9.6697 29.5312 9.50278 29.6004 9.37971 29.7235C9.25664 29.8465 9.1875 30.0135 9.1875 30.1875V37.4062C9.1875 37.5803 9.25664 37.7472 9.37971 37.8703C9.50278 37.9934 9.6697 38.0625 9.84375 38.0625H13.7812ZM10.5 30.8438H13.125V36.75H10.5V30.8438Z" fill="#151F59"/>
<path d="M7.21875 38.0625C7.3928 38.0625 7.55972 37.9934 7.68279 37.8703C7.80586 37.7472 7.875 37.5803 7.875 37.4062V33.4688C7.875 33.2947 7.80586 33.1278 7.68279 33.0047C7.55972 32.8816 7.3928 32.8125 7.21875 32.8125H3.28125C3.1072 32.8125 2.94028 32.8816 2.81721 33.0047C2.69414 33.1278 2.625 33.2947 2.625 33.4688V37.4062C2.625 37.5803 2.69414 37.7472 2.81721 37.8703C2.94028 37.9934 3.1072 38.0625 3.28125 38.0625H7.21875ZM3.9375 34.125H6.5625V36.75H3.9375V34.125Z" fill="#151F59"/>
<path d="M17.7188 11.8125H19.0312C19.2053 11.8125 19.3722 11.7434 19.4953 11.6203C19.6184 11.4972 19.6875 11.3303 19.6875 11.1562C19.6875 10.9822 19.6184 10.8153 19.4953 10.6922C19.3722 10.5691 19.2053 10.5 19.0312 10.5H18.375V9.84375C18.375 9.6697 18.3059 9.50278 18.1828 9.37971C18.0597 9.25664 17.8928 9.1875 17.7188 9.1875C17.5447 9.1875 17.3778 9.25664 17.2547 9.37971C17.1316 9.50278 17.0625 9.6697 17.0625 9.84375V10.6129C16.6248 10.7678 16.256 11.0725 16.0212 11.473C15.7864 11.8735 15.7006 12.3441 15.7791 12.8017C15.8577 13.2593 16.0954 13.6744 16.4503 13.9737C16.8052 14.2731 17.2545 14.4373 17.7188 14.4375C17.8928 14.4375 18.0597 14.5066 18.1828 14.6297C18.3059 14.7528 18.375 14.9197 18.375 15.0938C18.375 15.2678 18.3059 15.4347 18.1828 15.5578C18.0597 15.6809 17.8928 15.75 17.7188 15.75H16.4062C16.2322 15.75 16.0653 15.8191 15.9422 15.9422C15.8191 16.0653 15.75 16.2322 15.75 16.4062C15.75 16.5803 15.8191 16.7472 15.9422 16.8703C16.0653 16.9934 16.2322 17.0625 16.4062 17.0625H17.0625V17.7188C17.0625 17.8928 17.1316 18.0597 17.2547 18.1828C17.3778 18.3059 17.5447 18.375 17.7188 18.375C17.8928 18.375 18.0597 18.3059 18.1828 18.1828C18.3059 18.0597 18.375 17.8928 18.375 17.7188V16.9496C18.8127 16.7947 19.1815 16.49 19.4163 16.0895C19.6511 15.689 19.7369 15.2184 19.6584 14.7608C19.5798 14.3032 19.3421 13.8881 18.9872 13.5888C18.6323 13.2894 18.183 13.1252 17.7188 13.125C17.5447 13.125 17.3778 13.0559 17.2547 12.9328C17.1316 12.8097 17.0625 12.6428 17.0625 12.4688C17.0625 12.2947 17.1316 12.1278 17.2547 12.0047C17.3778 11.8816 17.5447 11.8125 17.7188 11.8125Z" fill="#151F59"/>
<path d="M40.0313 3.9375H36.0938C35.9197 3.9375 35.7528 4.00664 35.6297 4.12971C35.5067 4.25278 35.4375 4.4197 35.4375 4.59375C35.4375 4.7678 35.5067 4.93472 35.6297 5.05779C35.7528 5.18086 35.9197 5.25 36.0938 5.25H38.4469L29.2594 14.4375H25.5662C25.5842 14.221 25.5938 14.0022 25.5938 13.7813C25.5937 12.2858 25.1678 10.8213 24.366 9.55894C23.5641 8.29664 22.4194 7.28875 21.0657 6.65317C19.712 6.01758 18.2053 5.78058 16.7219 5.96989C15.2385 6.15919 13.8396 6.76697 12.6889 7.72214C11.5382 8.67731 10.6833 9.94037 10.2242 11.3636C9.76499 12.7868 9.72056 14.3114 10.0961 15.7589C10.4716 17.2065 11.2515 18.5172 12.3446 19.5378C13.4377 20.5583 14.7988 21.2465 16.2687 21.5219L13.5095 24.2813H8.53127C8.44509 24.2812 8.35975 24.2982 8.28013 24.3312C8.2005 24.3642 8.12816 24.4125 8.06722 24.4734L1.50472 31.0359C1.38164 31.159 1.3125 31.326 1.3125 31.5C1.3125 31.6741 1.38164 31.841 1.50472 31.9641C1.62779 32.0871 1.79471 32.1563 1.96877 32.1563C2.14282 32.1563 2.30974 32.0871 2.43282 31.9641L8.80304 25.5938H13.7813C13.8674 25.5938 13.9528 25.5768 14.0324 25.5438C14.112 25.5108 14.1844 25.4625 14.2453 25.4016L17.996 21.6508C19.6928 21.5888 21.3242 20.9811 22.6481 19.9181C23.972 18.855 24.9176 17.3933 25.3446 15.75H29.5313C29.6174 15.75 29.7028 15.733 29.7824 15.7001C29.862 15.6671 29.9344 15.6187 29.9953 15.5578L39.375 6.1781V8.53125C39.375 8.7053 39.4442 8.87222 39.5672 8.99529C39.6903 9.11836 39.8572 9.1875 40.0313 9.1875C40.2053 9.1875 40.3722 9.11836 40.4953 8.99529C40.6184 8.87222 40.6875 8.7053 40.6875 8.53125V4.59375C40.6875 4.4197 40.6184 4.25278 40.4953 4.12971C40.3722 4.00664 40.2053 3.9375 40.0313 3.9375ZM17.7188 20.3438C16.4208 20.3438 15.152 19.9589 14.0728 19.2378C12.9936 18.5167 12.1525 17.4918 11.6558 16.2926C11.1591 15.0935 11.0291 13.774 11.2824 12.501C11.5356 11.228 12.1606 10.0586 13.0784 9.14086C13.9962 8.22308 15.1655 7.59806 16.4385 7.34485C17.7115 7.09163 19.031 7.22159 20.2301 7.71829C21.4293 8.21499 22.4542 9.05612 23.1753 10.1353C23.8964 11.2145 24.2813 12.4833 24.2813 13.7813C24.2793 15.5211 23.5873 17.1892 22.357 18.4195C21.1267 19.6497 19.4586 20.3418 17.7188 20.3438Z" fill="#151F59"/>
</svg>
