<svg width="42" height="42" viewBox="0 0 42 42" fill="none" xmlns="http://www.w3.org/2000/svg">
<path d="M20.3438 36.75H21.6562V38.0625H20.3438V36.75Z" fill="#151F59"/>
<path d="M31.6665 32.6011L32.5946 31.673L33.5227 32.6011L32.5946 33.5291L31.6665 32.6011Z" fill="#151F59"/>
<path d="M36.75 20.3438H38.0625V21.6562H36.75V20.3438Z" fill="#151F59"/>
<path d="M40.0314 16.4062H35.3786C35.1247 15.6055 34.803 14.8278 34.4172 14.0817L37.7056 10.7926C37.8287 10.6695 37.8978 10.5026 37.8978 10.3286C37.8978 10.1546 37.8287 9.98772 37.7056 9.86465L34.9212 7.08084C33.0995 5.22416 30.928 3.74687 28.532 2.73432C26.1361 1.72177 23.5633 1.19404 20.9622 1.18162C18.3611 1.1692 15.7834 1.67233 13.3779 2.66195C10.9724 3.65156 8.78682 5.10805 6.94749 6.94724C5.10817 8.78643 3.65153 10.9719 2.66174 13.3773C1.67196 15.7827 1.16864 18.3605 1.18088 20.9615C1.19312 23.5626 1.72067 26.1355 2.73305 28.5315C3.74543 30.9275 5.22256 33.0991 7.07911 34.9209L9.86293 37.7054C9.98599 37.8284 10.1529 37.8975 10.3269 37.8975C10.5009 37.8975 10.6678 37.8284 10.7909 37.7054L14.08 34.4169C14.8268 34.8026 15.6051 35.1241 16.4064 35.3777V40.0312C16.4064 40.2052 16.4755 40.3721 16.5986 40.4952C16.7217 40.6183 16.8886 40.6874 17.0626 40.6874H24.9376C25.1117 40.6874 25.2786 40.6183 25.4017 40.4952C25.5248 40.3721 25.5939 40.2052 25.5939 40.0312V35.3783C26.3946 35.1246 27.1722 34.8032 27.9183 34.4176L31.2075 37.7061C31.3305 37.8291 31.4974 37.8982 31.6714 37.8982C31.8454 37.8982 32.0123 37.8291 32.1354 37.7061L37.7037 32.1378C37.8267 32.0147 37.8958 31.8478 37.8958 31.6738C37.8958 31.4998 37.8267 31.3329 37.7037 31.2098L34.4152 27.9207C34.8016 27.1738 35.1237 26.3953 35.3779 25.5937H40.0314C40.2054 25.5937 40.3724 25.5245 40.4954 25.4014C40.6185 25.2784 40.6876 25.1115 40.6876 24.9374V17.0624C40.6876 16.8884 40.6185 16.7214 40.4954 16.5984C40.3724 16.4753 40.2054 16.4062 40.0314 16.4062ZM8.00639 8.00615C11.3714 4.64008 15.9116 2.71165 20.6705 2.62718C25.4293 2.54272 30.0351 4.30881 33.5175 7.55334L32.5908 8.47996C29.3523 5.49127 25.0831 3.87149 20.6771 3.95983C16.2711 4.04817 12.0702 5.83779 8.95413 8.95389C5.83803 12.07 4.04842 16.2709 3.96007 20.6769C3.87173 25.0828 5.49151 29.3521 8.48021 32.5906L7.55358 33.5172C4.30905 30.0349 2.54296 25.4291 2.62743 20.6702C2.71189 15.9114 4.64033 11.3712 8.00639 8.00615ZM26.5684 15.4316C28.0254 16.9125 28.8382 18.9092 28.8297 20.9866C28.8213 23.0641 27.9923 25.054 26.5233 26.523C25.0543 27.992 23.0643 28.821 20.9869 28.8295C18.9094 28.8379 16.9128 28.0252 15.4319 26.5682C15.3088 26.4452 15.1419 26.376 14.9679 26.376C14.7939 26.376 14.627 26.4452 14.5039 26.5682L9.4088 31.6633C6.65646 28.6729 5.16665 24.7343 5.25083 20.671C5.33502 16.6076 6.98668 12.7341 9.86052 9.86028C12.7344 6.98644 16.6079 5.33477 20.6712 5.25059C24.7346 5.1664 28.6732 6.65622 31.6636 9.40856L26.5684 14.503C26.5074 14.564 26.459 14.6364 26.426 14.716C26.393 14.7957 26.376 14.8811 26.376 14.9673C26.376 15.0536 26.393 15.139 26.426 15.2186C26.459 15.2983 26.5074 15.3707 26.5684 15.4316ZM39.3751 24.2812H34.889C34.7456 24.2811 34.606 24.328 34.4918 24.4148C34.3775 24.5015 34.2948 24.6233 34.2564 24.7615C33.9681 25.7909 33.5582 26.7823 33.0351 27.7147C32.9646 27.8398 32.9371 27.9845 32.9568 28.1268C32.9764 28.269 33.0422 28.4009 33.1441 28.5022L36.3131 31.6718L31.6734 36.3115L28.5037 33.1425C28.4024 33.0407 28.2706 32.9749 28.1283 32.9552C27.9861 32.9355 27.8413 32.9631 27.7162 33.0336C26.7839 33.5566 25.7925 33.9666 24.7631 34.2548C24.6249 34.2933 24.5031 34.376 24.4163 34.4902C24.3296 34.6045 24.2826 34.744 24.2827 34.8875V39.3749H17.7189V34.8888C17.719 34.7453 17.6721 34.6058 17.5853 34.4915C17.4985 34.3773 17.3767 34.2946 17.2385 34.2562C16.2091 33.9679 15.2177 33.5579 14.2854 33.0349C14.1603 32.9644 14.0155 32.9368 13.8733 32.9565C13.731 32.9762 13.5992 33.042 13.4979 33.1438L10.3282 36.3128L8.47233 34.457L14.9856 27.9443C16.7416 29.4646 19.0082 30.2633 21.3293 30.1798C23.6504 30.0964 25.8538 29.1369 27.496 27.4945C29.1382 25.8521 30.0975 23.6486 30.1807 21.3275C30.264 19.0064 29.465 16.7399 27.9446 14.9841L34.4572 8.47078L36.3131 10.3267L33.1441 13.4963C33.0422 13.5976 32.9764 13.7295 32.9568 13.8717C32.9371 14.014 32.9646 14.1587 33.0351 14.2838C33.5582 15.2161 33.9682 16.2075 34.2564 17.237C34.2948 17.3752 34.3775 17.497 34.4918 17.5837C34.606 17.6705 34.7456 17.7174 34.889 17.7173H39.3751V24.2812Z" fill="#151F59"/>
<path d="M21.6562 18.4682V11.1562C21.6562 10.9822 21.5871 10.8153 21.464 10.6922C21.341 10.5691 21.174 10.5 21 10.5C20.826 10.5 20.659 10.5691 20.536 10.6922C20.4129 10.8153 20.3438 10.9822 20.3438 11.1562V18.4682C19.8927 18.5861 19.4813 18.822 19.1516 19.1516C18.822 19.4813 18.5861 19.8927 18.4682 20.3438H13.7812C13.6072 20.3438 13.4403 20.4129 13.3172 20.536C13.1941 20.659 13.125 20.826 13.125 21C13.125 21.174 13.1941 21.341 13.3172 21.464C13.4403 21.5871 13.6072 21.6562 13.7812 21.6562H18.4682C18.5829 22.1041 18.8142 22.5136 19.1384 22.8431C19.4626 23.1727 19.8682 23.4106 20.3141 23.5327C20.7599 23.6548 21.2302 23.6567 21.6771 23.5383C22.1239 23.4198 22.5315 23.1853 22.8584 22.8584C23.1853 22.5315 23.4198 22.1239 23.5383 21.6771C23.6567 21.2302 23.6548 20.7599 23.5327 20.3141C23.4106 19.8682 23.1727 19.4626 22.8431 19.1384C22.5136 18.8142 22.1041 18.5829 21.6562 18.4682ZM21 22.3125C20.7404 22.3125 20.4867 22.2355 20.2708 22.0913C20.055 21.9471 19.8867 21.7421 19.7874 21.5023C19.6881 21.2624 19.6621 20.9985 19.7127 20.7439C19.7634 20.4893 19.8884 20.2555 20.0719 20.0719C20.2555 19.8884 20.4893 19.7634 20.7439 19.7127C20.9985 19.6621 21.2624 19.6881 21.5023 19.7874C21.7421 19.8867 21.9471 20.055 22.0913 20.2708C22.2355 20.4867 22.3125 20.7404 22.3125 21C22.3125 21.3481 22.1742 21.6819 21.9281 21.9281C21.6819 22.1742 21.3481 22.3125 21 22.3125Z" fill="#151F59"/>
<path d="M21 8.53125C20.826 8.53125 20.659 8.46211 20.536 8.33904C20.4129 8.21597 20.3438 8.04905 20.3438 7.875V6.5625C20.3438 6.38845 20.4129 6.22153 20.536 6.09846C20.659 5.97539 20.826 5.90625 21 5.90625C21.174 5.90625 21.341 5.97539 21.464 6.09846C21.5871 6.22153 21.6562 6.38845 21.6562 6.5625V7.875C21.6562 8.04905 21.5871 8.21597 21.464 8.33904C21.341 8.46211 21.174 8.53125 21 8.53125Z" fill="#151F59"/>
<path d="M27.5623 10.2901C27.4472 10.29 27.3341 10.2596 27.2344 10.202C27.1348 10.1443 27.052 10.0615 26.9945 9.96172C26.937 9.86197 26.9067 9.74885 26.9067 9.63371C26.9068 9.51857 26.9371 9.40547 26.9947 9.30576L27.6509 8.16847C27.7386 8.01898 27.8818 7.91021 28.0493 7.86592C28.2169 7.82162 28.3951 7.84539 28.5452 7.93204C28.6953 8.01869 28.805 8.16119 28.8504 8.32843C28.8958 8.49567 28.8732 8.67408 28.7875 8.82472L28.1313 9.96201C28.0736 10.0619 27.9907 10.1448 27.8908 10.2024C27.7909 10.26 27.6776 10.2902 27.5623 10.2901Z" fill="#151F59"/>
<path d="M14.4374 10.2901C14.3221 10.2902 14.2088 10.26 14.109 10.2024C14.0091 10.1448 13.9261 10.0619 13.8685 9.96201L13.2122 8.82472C13.1266 8.67408 13.104 8.49567 13.1494 8.32843C13.1948 8.16119 13.3045 8.01869 13.4546 7.93204C13.6047 7.84539 13.7829 7.82162 13.9505 7.86592C14.118 7.91021 14.2612 8.01898 14.3489 8.16847L15.0051 9.30576C15.0627 9.40547 15.093 9.51857 15.093 9.63371C15.0931 9.74885 15.0628 9.86197 15.0053 9.96172C14.9478 10.0615 14.865 10.1443 14.7653 10.202C14.6657 10.2596 14.5526 10.29 14.4374 10.2901Z" fill="#151F59"/>
<path d="M9.63302 15.0937C9.51779 15.0939 9.40456 15.0635 9.3049 15.0057L8.16762 14.3495C8.01812 14.2618 7.90936 14.1186 7.86506 13.9511C7.82077 13.7835 7.84454 13.6053 7.93119 13.4552C8.01784 13.3051 8.16033 13.1954 8.32757 13.15C8.49481 13.1046 8.67322 13.1272 8.82387 13.2128L9.96115 13.8691C10.0862 13.9413 10.184 14.0528 10.2393 14.1863C10.2946 14.3197 10.3043 14.4677 10.2669 14.6073C10.2295 14.7468 10.1471 14.8701 10.0325 14.958C9.9179 15.046 9.77748 15.0936 9.63302 15.0937Z" fill="#151F59"/>
<path d="M7.875 21.6562H6.5625C6.38845 21.6562 6.22153 21.5871 6.09846 21.464C5.97539 21.341 5.90625 21.174 5.90625 21C5.90625 20.826 5.97539 20.659 6.09846 20.536C6.22153 20.4129 6.38845 20.3438 6.5625 20.3438H7.875C8.04905 20.3438 8.21597 20.4129 8.33904 20.536C8.46211 20.659 8.53125 20.826 8.53125 21C8.53125 21.174 8.46211 21.341 8.33904 21.464C8.21597 21.5871 8.04905 21.6562 7.875 21.6562Z" fill="#151F59"/>
<path d="M8.49704 28.8751C8.35258 28.8751 8.21217 28.8274 8.09756 28.7395C7.98296 28.6515 7.90057 28.5282 7.86318 28.3887C7.82579 28.2492 7.83549 28.1012 7.89077 27.9677C7.94605 27.8343 8.04382 27.7228 8.16892 27.6505L9.3062 26.9943C9.38086 26.9505 9.46345 26.9219 9.54919 26.9102C9.63494 26.8985 9.72216 26.9039 9.80584 26.926C9.88951 26.9481 9.96798 26.9865 10.0367 27.0391C10.1055 27.0917 10.1631 27.1573 10.2064 27.2323C10.2497 27.3072 10.2777 27.39 10.2889 27.4758C10.3 27.5617 10.2941 27.6488 10.2714 27.7324C10.2487 27.8159 10.2098 27.8941 10.1567 27.9625C10.1037 28.0309 10.0377 28.0881 9.96245 28.1309L8.82517 28.7872C8.7255 28.845 8.61227 28.8754 8.49704 28.8751Z" fill="#151F59"/>
<path d="M21.0001 27.5624C20.138 27.5648 19.2839 27.3958 18.4877 27.0653C17.6914 26.7347 16.9688 26.2492 16.3618 25.637C16.2992 25.5763 16.2493 25.5038 16.215 25.4237C16.1807 25.3436 16.1628 25.2575 16.1621 25.1703C16.1615 25.0832 16.1782 24.9968 16.2113 24.9162C16.2444 24.8356 16.2933 24.7624 16.355 24.7009C16.4167 24.6394 16.49 24.5907 16.5707 24.5579C16.6514 24.525 16.7378 24.5085 16.825 24.5094C16.9121 24.5103 16.9982 24.5285 17.0782 24.563C17.1582 24.5975 17.2306 24.6476 17.291 24.7103C17.7763 25.206 18.3551 25.6006 18.9938 25.8711C19.6326 26.1417 20.3186 26.2829 21.0123 26.2866C21.706 26.2903 22.3935 26.1564 23.0351 25.8926C23.6767 25.6288 24.2596 25.2404 24.7502 24.7499C25.2407 24.2594 25.6291 23.6765 25.8928 23.0349C26.1566 22.3933 26.2905 21.7058 26.2868 21.0121C26.2831 20.3184 26.1419 19.6323 25.8714 18.9936C25.6008 18.3548 25.2063 17.776 24.7106 17.2908C24.6478 17.2303 24.5977 17.158 24.5632 17.078C24.5287 16.9979 24.5105 16.9119 24.5096 16.8247C24.5087 16.7376 24.5252 16.6512 24.5581 16.5705C24.591 16.4898 24.6396 16.4164 24.7011 16.3547C24.7627 16.293 24.8359 16.2442 24.9165 16.2111C24.9971 16.178 25.0834 16.1613 25.1706 16.1619C25.2577 16.1625 25.3439 16.1805 25.424 16.2148C25.5041 16.249 25.5766 16.2989 25.6372 16.3615C26.5541 17.2792 27.1784 18.448 27.4313 19.7204C27.6843 20.9927 27.5544 22.3115 27.0582 23.5101C26.562 24.7087 25.7217 25.7333 24.6435 26.4546C23.5652 27.1758 22.2974 27.5613 21.0001 27.5624Z" fill="#151F59"/>
</svg>
