<svg width="45" height="45" viewBox="0 0 45 45" fill="none" xmlns="http://www.w3.org/2000/svg">
<g clip-path="url(#clip0)">
<path d="M42.1779 23.5222H40.2537V15.5893C40.2537 14.9786 39.7569 14.4817 39.1461 14.4817H35.5763C34.9656 14.4817 34.4687 14.9786 34.4687 15.5893V23.5222H30.3822V12.5758C30.3822 11.9651 29.8853 11.4682 29.2746 11.4682H25.7048C25.0941 11.4682 24.5971 11.9651 24.5971 12.5758V23.5222H22.2504V15.1596C22.2504 14.3506 21.5922 13.6925 20.7833 13.6925H20.5104V9.5626C20.5104 8.95149 20.0136 8.4543 19.403 8.4543H15.8329C15.2222 8.4543 14.7254 8.95149 14.7254 9.5626V13.6925H10.6394V6.54883C10.6394 5.93825 10.1422 5.44141 9.53109 5.44141H5.96186C5.35075 5.44141 4.85355 5.93816 4.85355 6.54883V13.6924H3.63064C2.8217 13.6924 2.16357 14.3505 2.16357 15.1595V20.3965C2.16357 20.7606 2.45871 21.0557 2.82275 21.0557C3.1868 21.0557 3.48193 20.7606 3.48193 20.3965V15.1595C3.48193 15.0775 3.54864 15.0108 3.63064 15.0108H20.7832C20.8652 15.0108 20.9319 15.0775 20.9319 15.1595V40.3103C20.9319 40.3923 20.8652 40.459 20.7832 40.459H3.63064C3.54864 40.459 3.48193 40.3923 3.48193 40.3103V18.4727C3.48193 18.1087 3.1868 17.8135 2.82275 17.8135C2.45871 17.8135 2.16357 18.1087 2.16357 18.4727V40.3103C2.16357 41.1193 2.8217 41.7774 3.63064 41.7774H20.7832C21.5921 41.7774 22.2503 41.1193 22.2503 40.3103V24.8405H42.1778C42.5418 24.8405 42.837 24.5454 42.837 24.1814C42.8371 23.8173 42.5419 23.5222 42.1779 23.5222ZM16.0437 9.77266H19.1919V13.6924H16.0437V9.77266ZM6.17191 6.75977H9.32103V13.6924H6.17191V6.75977ZM35.787 15.8H38.9353V23.5222H35.787V15.8ZM25.9154 12.7865H29.0637V23.5222H25.9154V12.7865Z" fill="#151F59"/>
<path d="M7.07625 22.5939H17.3369C17.9795 22.5939 18.5025 22.071 18.5025 21.4283V19.0208C18.5025 18.3782 17.9796 17.8552 17.3369 17.8552H7.07625C6.43359 17.8552 5.91064 18.3781 5.91064 19.0208V21.4283C5.91064 22.071 6.43359 22.5939 7.07625 22.5939ZM7.229 19.1736H17.1841V21.2755H7.229V19.1736Z" fill="#151F59"/>
<path d="M5.91064 36.449C5.91064 37.0918 6.43351 37.6147 7.07625 37.6147H17.3369C17.9795 37.6147 18.5025 37.0918 18.5025 36.449V26.1884C18.5025 25.5458 17.9796 25.0228 17.3369 25.0228H7.07625C6.43351 25.0228 5.91064 25.5457 5.91064 26.1884V36.449ZM7.229 31.978H11.5474V36.2964H7.229V31.978ZM12.8657 36.2964V31.978H17.1841V36.2964H12.8657ZM17.1841 30.6596H12.8657V26.3412H17.1841V30.6596ZM11.5473 26.3413V30.6597H7.229V26.3413H11.5473Z" fill="#151F59"/>
<path d="M32.0676 30.0581C27.9482 30.0581 24.5967 33.4096 24.5967 37.529C24.5967 41.6484 27.9482 45 32.0676 45C33.7897 45 35.4703 44.3998 36.8 43.3103C37.0816 43.0795 37.1228 42.6642 36.892 42.3826C36.6613 42.101 36.2461 42.0598 35.9644 42.2905C34.8698 43.1876 33.4858 43.6816 32.0676 43.6816C28.6752 43.6816 25.915 40.9216 25.915 37.529C25.915 34.1364 28.6751 31.3765 32.0676 31.3765C35.4602 31.3765 38.2203 34.1365 38.2203 37.529C38.2203 38.4292 38.0304 39.2965 37.6561 40.1066C37.5033 40.437 37.6475 40.8288 37.9779 40.9815C38.3087 41.1343 38.7001 40.9901 38.8529 40.6596C39.308 39.6749 39.5387 38.6216 39.5387 37.5291C39.5386 33.4096 36.1872 30.0581 32.0676 30.0581Z" fill="#151F59"/>
<path d="M32.0683 42.2342C32.4323 42.2342 32.7275 41.9391 32.7275 41.575V41.0416C33.6798 40.8572 34.427 40.1783 34.5855 39.2906C34.7254 38.5071 34.3666 37.4819 32.9392 36.956C32.2835 36.7145 31.7118 36.5149 31.3359 36.3101C31.1516 36.2097 31.1417 36.0243 31.1522 35.9227C31.1737 35.7143 31.3239 35.4533 31.6809 35.3458C32.5357 35.0885 33.3213 35.7112 33.3418 35.7278C33.6204 35.9593 34.034 35.9225 34.2675 35.6449C34.5017 35.3663 34.4657 34.9504 34.1871 34.7161C34.1513 34.686 33.5705 34.2077 32.7275 34.0301V33.483C32.7275 33.119 32.4323 32.8239 32.0683 32.8239C31.7042 32.8239 31.4091 33.119 31.4091 33.483V34.0539C31.3731 34.0632 31.3369 34.0725 31.3006 34.0835C30.4957 34.3259 29.9228 34.9947 29.8409 35.7872C29.7677 36.4937 30.0991 37.1378 30.7054 37.468C31.9143 38.1263 33.4322 38.2493 33.2877 39.0588C33.2248 39.4108 32.8032 39.7749 32.2065 39.7749C31.6104 39.7749 31.036 39.5338 30.6701 39.1301C30.4257 38.8604 30.0088 38.8398 29.739 39.0843C29.4693 39.3287 29.4487 39.7456 29.6932 40.0154C30.1333 40.501 30.7433 40.8447 31.4092 41V41.5751C31.4091 41.9391 31.7042 42.2342 32.0683 42.2342Z" fill="#151F59"/>
<path d="M7.24559 1.29751L38.6988 9.43882L36.6587 10.5476C36.3388 10.7214 36.2205 11.1217 36.3943 11.4415C36.5685 11.7622 36.9691 11.8794 37.2882 11.706L40.3395 10.0477C40.6174 9.89664 40.8223 9.63438 40.9015 9.32817C40.9808 9.02196 40.929 8.69316 40.7592 8.42624L38.8956 5.49579C38.7002 5.18843 38.2928 5.0979 37.9857 5.29329C37.6784 5.48867 37.5878 5.89604 37.7832 6.20322L39.0292 8.16256L7.57597 0.0212534C7.22344 -0.0701528 6.8638 0.141751 6.77265 0.494193C6.68142 0.846634 6.89324 1.20628 7.24559 1.29751Z" fill="#151F59"/>
</g>
<defs>
<clipPath id="clip0">
<rect width="45" height="45" fill="white"/>
</clipPath>
</defs>
</svg>
