<svg width="43" height="43" viewBox="0 0 43 43" fill="none" xmlns="http://www.w3.org/2000/svg">
<g clip-path="url(#clip0)">
<path d="M39.5606 15.6983H36.9979V15.4105C36.9979 14.6941 36.415 14.1113 35.6986 14.1113H30.6443C30.2959 14.1113 30.0135 14.3937 30.0135 14.7421C30.0135 15.0905 30.2959 15.3729 30.6443 15.3729H35.6986C35.7194 15.3729 35.7363 15.3897 35.7363 15.4105V27.1014C35.7363 27.4499 36.0187 27.7322 36.3671 27.7322C36.7154 27.7322 36.9979 27.4499 36.9979 27.1014V16.9598H39.5606C39.6459 16.9598 39.7152 17.0292 39.7152 17.1145V39.1207C39.7152 40.5642 38.5409 41.7385 37.0974 41.7385H5.90376C4.46029 41.7385 3.28596 40.5642 3.28596 39.1207V17.1145C3.28596 17.0292 3.35535 16.9598 3.44063 16.9598H6.08744V38.5334C6.08744 39.4228 6.81106 40.1465 7.70062 40.1465H35.3846C36.2742 40.1465 36.9978 39.4229 36.9978 38.5334V25.7918C36.9978 25.4434 36.7154 25.161 36.367 25.161C36.0187 25.161 35.7362 25.4434 35.7362 25.7918V34.8692H25.5308C24.2091 34.8692 23.0161 35.4281 22.1734 36.3209V28.1617C22.1734 27.8132 21.891 27.5309 21.5427 27.5309C21.1943 27.5309 20.9119 27.8132 20.9119 28.1617V36.321C20.0692 35.4282 18.8762 34.8692 17.5545 34.8692H10.6882C10.3399 34.8692 10.0575 35.1516 10.0575 35.5C10.0575 35.8485 10.3399 36.1308 10.6882 36.1308H17.5545C19.1998 36.1308 20.5715 37.3208 20.8566 38.885H7.70062C7.50668 38.885 7.34898 38.7273 7.34898 38.5334V36.1308H11.9978C12.3461 36.1308 12.6286 35.8485 12.6286 35.5C12.6286 35.1516 12.3461 34.8692 11.9978 34.8692H7.34898V15.4105C7.34898 15.3897 7.36589 15.3729 7.38666 15.3729H12.441C12.7894 15.3729 13.0718 15.0905 13.0718 14.7421C13.0718 14.3937 12.7894 14.1113 12.441 14.1113H7.38666C6.67027 14.1113 6.08744 14.6942 6.08744 15.4105V15.6983H3.44063C2.65973 15.6983 2.02441 16.3336 2.02441 17.1145V39.1207C2.02441 41.2598 3.76468 43.0001 5.90376 43.0001H37.0973C39.2364 43.0001 40.9766 41.2598 40.9766 39.1207V17.1145C40.9767 16.3336 40.3415 15.6983 39.5606 15.6983ZM25.5308 36.1307H35.7362V38.5334C35.7362 38.7273 35.5785 38.885 35.3846 38.885H22.2288C22.5138 37.3207 23.8855 36.1307 25.5308 36.1307Z" fill="#151F59"/>
<path d="M13.1331 8.85026C13.4793 8.88238 13.7876 8.62831 13.8203 8.28147C14.0007 6.36863 14.8839 4.59758 16.3076 3.29466C17.7402 1.98366 19.5994 1.26155 21.5431 1.26155C25.8208 1.26155 29.301 4.74173 29.301 9.01939C29.301 10.629 28.8124 12.1727 27.8882 13.4837C27.883 13.4911 27.878 13.4986 27.873 13.5062L23.8365 19.7902C23.7712 19.892 23.7365 20.0102 23.7365 20.1312V20.9483C23.7365 21.1142 23.6016 21.2491 23.4357 21.2491H23.3945L23.7963 14.4304H24.5149C25.5432 14.4304 26.3797 13.5939 26.3797 12.5658V12.4892C26.3797 11.4611 25.5432 10.6246 24.5149 10.6246C23.5291 10.6246 22.7115 11.3955 22.6535 12.3796L22.607 13.1689H20.395L20.3484 12.3796C20.2905 11.3955 19.4728 10.6246 18.487 10.6246C17.4587 10.6246 16.6223 11.4611 16.6223 12.4892V12.5658C16.6223 13.5939 17.4587 14.4304 18.487 14.4304H19.2056L19.6072 21.2447C19.4619 21.2235 19.3496 21.0994 19.3496 20.9483V20.1312C19.3496 20.0102 19.3149 19.892 19.2496 19.7902L15.2131 13.5062C15.2082 13.4986 15.2032 13.4911 15.198 13.4837C14.6176 12.6603 14.2088 11.7453 13.9834 10.7641C13.9052 10.4246 13.5663 10.2127 13.2273 10.2907C12.8877 10.3688 12.6758 10.7073 12.7539 11.0468C13.0152 12.1838 13.488 13.2443 14.159 14.1991L18.0883 20.3161V20.9482C18.0883 21.5851 18.4719 22.1333 19.0198 22.3763V23.443C19.0198 24.5654 19.9329 25.4785 21.0553 25.4785H22.0313C23.1536 25.4785 24.0668 24.5654 24.0668 23.443V22.3763C24.6147 22.1333 24.9983 21.5852 24.9983 20.9482V20.3161L28.9276 14.1991C29.9973 12.6768 30.5628 10.8859 30.5628 9.0193C30.5624 4.04603 26.5163 0 21.5431 0C19.2834 0 17.1216 0.839602 15.4559 2.36405C13.801 3.87875 12.7741 5.9381 12.5644 8.16305C12.5316 8.50998 12.7862 8.81763 13.1331 8.85026ZM23.9128 12.4537C23.9316 12.1354 24.1961 11.886 24.5149 11.886C24.8475 11.886 25.1181 12.1566 25.1181 12.4891V12.5657C25.1181 12.8982 24.8475 13.1688 24.5149 13.1688H23.8707L23.9128 12.4537ZM18.487 13.1688C18.1544 13.1688 17.8838 12.8982 17.8838 12.5657V12.4891C17.8838 12.1566 18.1544 11.886 18.487 11.886C18.8059 11.886 19.0703 12.1354 19.0891 12.4537L19.1312 13.1688H18.487ZM22.5326 14.4303L22.1308 21.249H20.8712L20.4694 14.4303H22.5326ZM22.8049 23.4431C22.8049 23.8698 22.4578 24.2171 22.0309 24.2171H21.055C20.6283 24.2171 20.281 23.8698 20.281 23.4431V22.5105H22.8048V23.4431H22.8049Z" fill="#151F59"/>
<path d="M32.5919 4.78984C32.7397 4.78984 32.8881 4.7382 33.0078 4.63307L34.3841 3.42467C34.6459 3.19491 34.6717 2.79626 34.4419 2.53453C34.2122 2.2728 33.8136 2.24689 33.5518 2.47666L32.1755 3.68506C31.9137 3.91483 31.8879 4.31348 32.1177 4.57521C32.2424 4.71726 32.4168 4.78984 32.5919 4.78984Z" fill="#151F59"/>
<path d="M32.1745 8.59408L33.5508 9.80256C33.6706 9.90778 33.8189 9.95933 33.9668 9.95933C34.142 9.95933 34.3163 9.88675 34.441 9.7447C34.6709 9.48297 34.645 9.0844 34.3833 8.85455L33.007 7.64607C32.7452 7.41613 32.3467 7.44212 32.1168 7.70393C31.8869 7.96566 31.9127 8.36414 32.1745 8.59408Z" fill="#151F59"/>
<path d="M8.70195 3.42453L10.0782 4.63292C10.198 4.73813 10.3463 4.78969 10.4941 4.78969C10.6693 4.78969 10.8436 4.71711 10.9684 4.57506C11.1982 4.31333 11.1723 3.91468 10.9105 3.68491L9.53423 2.47652C9.2725 2.24658 8.87385 2.27257 8.64408 2.53438C8.41423 2.79611 8.44013 3.19467 8.70195 3.42453Z" fill="#151F59"/>
<path d="M9.11827 9.95923C9.26604 9.95923 9.41439 9.90759 9.53424 9.80246L10.9105 8.59398C11.1722 8.36413 11.1981 7.96557 10.9683 7.70384C10.7385 7.44211 10.3399 7.41621 10.0781 7.64598L8.70187 8.85445C8.44014 9.0843 8.41424 9.48287 8.64409 9.7446C8.76873 9.88665 8.943 9.95923 9.11827 9.95923Z" fill="#151F59"/>
<path d="M15.9623 21.8798C15.9623 21.5314 15.6799 21.249 15.3315 21.249H9.11808C8.76972 21.249 8.4873 21.5314 8.4873 21.8798C8.4873 22.2282 8.76972 22.5106 9.11808 22.5106H15.3315C15.6799 22.5106 15.9623 22.2282 15.9623 21.8798Z" fill="#151F59"/>
<path d="M17.2524 24.4575H10.2568C9.90839 24.4575 9.62598 24.7399 9.62598 25.0883C9.62598 25.4367 9.90839 25.7191 10.2568 25.7191H17.2524C17.6007 25.7191 17.8831 25.4367 17.8831 25.0883C17.8831 24.7399 17.6007 24.4575 17.2524 24.4575Z" fill="#151F59"/>
<path d="M17.2524 27.5309H10.2568C9.90839 27.5309 9.62598 27.8132 9.62598 28.1617C9.62598 28.5101 9.90839 28.7924 10.2568 28.7924H17.2524C17.6007 28.7924 17.8831 28.5101 17.8831 28.1617C17.8831 27.8132 17.6007 27.5309 17.2524 27.5309Z" fill="#151F59"/>
<path d="M17.2524 30.604H10.2568C9.90839 30.604 9.62598 30.8863 9.62598 31.2348C9.62598 31.5832 9.90839 31.8656 10.2568 31.8656H17.2524C17.6007 31.8656 17.8831 31.5832 17.8831 31.2348C17.8831 30.8863 17.6007 30.604 17.2524 30.604Z" fill="#151F59"/>
<path d="M34.599 21.8798C34.599 21.5314 34.3166 21.249 33.9683 21.249H27.7548C27.4064 21.249 27.124 21.5314 27.124 21.8798C27.124 22.2282 27.4064 22.5106 27.7548 22.5106H33.9683C34.3166 22.5106 34.599 22.2282 34.599 21.8798Z" fill="#151F59"/>
<path d="M32.8285 24.4575H25.8329C25.4846 24.4575 25.2021 24.7399 25.2021 25.0883C25.2021 25.4367 25.4846 25.7191 25.8329 25.7191H32.8285C33.1769 25.7191 33.4593 25.4367 33.4593 25.0883C33.4593 24.7399 33.1769 24.4575 32.8285 24.4575Z" fill="#151F59"/>
<path d="M32.8285 27.5309H25.8329C25.4846 27.5309 25.2021 27.8132 25.2021 28.1617C25.2021 28.5101 25.4846 28.7924 25.8329 28.7924H32.8285C33.1769 28.7924 33.4593 28.5101 33.4593 28.1617C33.4593 27.8132 33.1769 27.5309 32.8285 27.5309Z" fill="#151F59"/>
<path d="M32.8285 30.604H25.8329C25.4846 30.604 25.2021 30.8863 25.2021 31.2348C25.2021 31.5832 25.4846 31.8656 25.8329 31.8656H32.8285C33.1769 31.8656 33.4593 31.5832 33.4593 31.2348C33.4593 30.8863 33.1769 30.604 32.8285 30.604Z" fill="#151F59"/>
</g>
<defs>
<clipPath id="clip0">
<rect width="43" height="43" fill="white"/>
</clipPath>
</defs>
</svg>
