<svg width="44" height="44" viewBox="0 0 44 44" fill="none" xmlns="http://www.w3.org/2000/svg">
<g clip-path="url(#clip0)">
<path d="M0.645924 27.468H2.86411C3.22084 27.468 3.51004 27.1789 3.51004 26.8221C3.51004 26.4653 3.22084 26.1761 2.86411 26.1761H0.645924C0.289202 26.1761 0 26.4653 0 26.8221C0 27.1789 0.289202 27.468 0.645924 27.468Z" fill="#151F59"/>
<path d="M43.3541 14.0114C42.9973 14.0114 42.7081 14.3005 42.7081 14.6573V17.217C42.7081 19.2369 41.0648 20.8803 39.0449 20.8803H18.0163V20.3623C18.0163 18.952 16.8689 17.8045 15.4585 17.8045C14.0482 17.8045 12.9007 18.952 12.9007 20.3623V20.8803H9.54391C9.33636 20.8803 9.14155 20.9799 9.02011 21.1482L7.86021 22.7559L6.7003 21.1482C6.57887 20.9799 6.38405 20.8803 6.1765 20.8803H4.95518C2.93525 20.8803 1.29185 19.2369 1.29185 17.2169V6.55703C1.29185 4.53709 2.93525 2.89378 4.95518 2.89378H32.7133C33.0701 2.89378 33.3592 2.60466 33.3592 2.24785C33.3592 1.89104 33.0701 1.60193 32.7133 1.60193H4.95518C2.22293 1.60193 0 3.82477 0 6.55703V17.2169C0 19.9492 2.22293 22.172 4.95518 22.172H5.84604L6.8499 23.5633C7.08337 23.887 7.46111 24.0802 7.86021 24.0802C8.25939 24.0802 8.63704 23.887 8.87052 23.5633L9.87437 22.172H12.9007V23.9975C12.9007 24.4006 12.7226 24.7791 12.412 25.0361L9.56209 27.3937C9.05275 26.6587 8.20384 26.1761 7.24391 26.1761H2.61678C2.26006 26.1761 1.97086 26.4652 1.97086 26.822C1.97086 27.1788 2.26006 27.4679 2.61678 27.4679H7.24399C8.08611 27.4679 8.77122 28.153 8.77122 28.9951V39.579C8.77122 40.4211 8.08611 41.1062 7.24399 41.1062H0.645924C0.289202 41.1062 0 41.3953 0 41.7521C0 42.1089 0.289202 42.3981 0.645924 42.3981H7.24399C8.39021 42.3981 9.37813 41.7101 9.8183 40.7257C10.8181 41.4813 12.0485 41.8965 13.3037 41.8965H23.6366C24.9427 41.8965 26.0054 40.8339 26.0054 39.5277C26.0054 39.0115 25.8389 38.5337 25.5575 38.1441C26.2763 37.7369 26.7627 36.9654 26.7627 36.082C26.7627 35.5429 26.5813 35.0455 26.2768 34.6469C26.9477 34.2282 27.3953 33.4837 27.3953 32.6363C27.3953 32.1013 27.2167 31.6072 26.9163 31.2101C27.595 30.793 28.0485 30.0439 28.0485 29.1906C28.0485 27.8845 26.9859 26.8218 25.6798 26.8218H19.8053C19.5357 26.8218 19.2822 26.7168 19.0916 26.5262L18.1294 25.5639C18.0566 25.491 18.0165 25.3941 18.0165 25.291V22.1719H39.045C41.7772 22.1719 44.0001 19.9489 44.0001 17.2168V14.6573C44 14.3005 43.7109 14.0114 43.3541 14.0114ZM18.1781 27.4399C18.6127 27.8745 19.1906 28.1138 19.8053 28.1138H25.6798C26.2736 28.1138 26.7567 28.5969 26.7567 29.1908C26.7567 29.7846 26.2736 30.2677 25.6798 30.2677H23.778C23.4212 30.2677 23.1321 30.5568 23.1321 30.9136C23.1321 31.2704 23.4212 31.5595 23.778 31.5595H25.0265C25.6204 31.5595 26.1034 32.0426 26.1034 32.6365C26.1034 33.2303 25.6204 33.7134 25.0265 33.7134H23.778C23.4212 33.7134 23.1321 34.0025 23.1321 34.3593C23.1321 34.7161 23.4212 35.0052 23.778 35.0052H24.394C24.9878 35.0052 25.4708 35.4883 25.4708 36.0822C25.4708 36.676 24.9878 37.1591 24.394 37.1591H23.4283C23.0715 37.1591 22.7823 37.4482 22.7823 37.805C22.7823 38.1618 23.0715 38.4509 23.4283 38.4509H23.6366C24.2305 38.4509 24.7136 38.934 24.7136 39.5279C24.7136 40.1217 24.2305 40.6048 23.6366 40.6048H13.3037C12.2844 40.6048 11.2854 40.2529 10.4911 39.614L10.0631 39.2697V28.9952C10.0631 28.8858 10.0562 28.778 10.0439 28.6718L13.2355 26.0315C13.8437 25.5283 14.1926 24.787 14.1926 23.9976V20.3623C14.1926 19.6643 14.7605 19.0964 15.4585 19.0964C16.1565 19.0964 16.7244 19.6643 16.7244 20.3623V25.2911C16.7244 25.7393 16.8989 26.1607 17.2159 26.4775L18.1781 27.4399Z" fill="#151F59"/>
<path d="M39.0453 1.60193H32.4662C32.1094 1.60193 31.8203 1.89104 31.8203 2.24785C31.8203 2.60466 32.1094 2.89378 32.4662 2.89378H39.0453C41.0652 2.89378 42.7085 4.53709 42.7085 6.55703V14.9047C42.7085 15.2615 42.9976 15.5506 43.3544 15.5506C43.7113 15.5506 44.0004 15.2615 44.0004 14.9047V6.55703C44.0004 3.82477 41.7774 1.60193 39.0453 1.60193Z" fill="#151F59"/>
<path d="M25.0396 9.93254C24.9037 9.51432 24.5489 9.21522 24.1137 9.152L23.3847 9.04616L23.0588 8.38568C22.8641 7.99124 22.4701 7.74622 22.0303 7.74622C21.5905 7.74622 21.1963 7.99124 21.0017 8.38559L20.6757 9.04616L19.9468 9.152C19.5116 9.21522 19.1568 9.51432 19.0209 9.93254C18.885 10.3508 18.9961 10.8013 19.3111 11.1084L19.8386 11.6225L19.7141 12.3485C19.6397 12.7819 19.8146 13.2118 20.1704 13.4703C20.3714 13.6163 20.6066 13.6906 20.8434 13.6906C21.0257 13.6906 21.209 13.6466 21.3782 13.5576L22.0302 13.2149L22.682 13.5575C23.0714 13.7623 23.5342 13.7288 23.8898 13.4704C24.2457 13.2118 24.4206 12.7821 24.3463 12.3485L24.2218 11.6225L24.7493 11.1083C25.0642 10.8013 25.1755 10.3508 25.0396 9.93254ZM23.2657 10.7504C22.9953 11.014 22.8719 11.3935 22.9358 11.7658L23.0235 12.2775L22.5639 12.0358C22.3969 11.948 22.2136 11.9042 22.0304 11.9042C21.8471 11.9042 21.6637 11.9481 21.4965 12.0358L21.037 12.2775L21.1248 11.7658C21.1886 11.3938 21.0653 11.0142 20.7948 10.7505L20.423 10.3882L20.9368 10.3135C21.3104 10.2593 21.6332 10.0247 21.8004 9.68614L22.0302 9.22056L22.26 9.68623C22.4271 10.0248 22.75 10.2593 23.1236 10.3135L23.6373 10.3881L23.2657 10.7504Z" fill="#151F59"/>
<path d="M17.8421 9.93254C17.7062 9.51433 17.3515 9.21522 16.9162 9.15201L16.1874 9.04616L15.8614 8.38568C15.6668 7.99124 15.2727 7.74622 14.8329 7.74622C14.3932 7.74622 13.999 7.99124 13.8043 8.38559L13.4784 9.04616L12.7494 9.15201C12.3142 9.21522 11.9595 9.51433 11.8236 9.93254C11.6877 10.3508 11.7989 10.8014 12.1138 11.1083L12.6413 11.6225L12.5168 12.3486C12.4425 12.782 12.6173 13.2119 12.9732 13.4703C13.1742 13.6164 13.4094 13.6906 13.6462 13.6906C13.8285 13.6906 14.0117 13.6466 14.181 13.5576L14.833 13.2149L15.485 13.5576C15.8742 13.7622 16.3371 13.7289 16.6928 13.4703C17.0486 13.2119 17.2235 12.782 17.1492 12.3486L17.0247 11.6225L17.5522 11.1083C17.8669 10.8014 17.978 10.3508 17.8421 9.93254ZM16.0683 10.7505C15.7978 11.0142 15.6745 11.3937 15.7383 11.7658L15.8261 12.2775L15.3664 12.0358C15.1994 11.948 15.0162 11.9042 14.8328 11.9042C14.6496 11.9042 14.4662 11.9481 14.299 12.0358L13.8395 12.2775L13.9272 11.7658C13.9911 11.3937 13.8678 11.0141 13.5974 10.7506L13.2256 10.3882L13.7394 10.3136C14.113 10.2593 14.4358 10.0247 14.6031 9.68614L14.8328 9.22056L15.0626 9.68606C15.2297 10.0247 15.5525 10.2593 15.9262 10.3136L16.44 10.3882L16.0683 10.7505Z" fill="#151F59"/>
<path d="M10.645 9.93254C10.5091 9.51433 10.1544 9.21522 9.71911 9.15201L8.99016 9.04616L8.66419 8.38559C8.46955 7.99124 8.07536 7.74622 7.63562 7.74622C7.19587 7.74622 6.80168 7.99124 6.60713 8.38559L6.28116 9.04616L5.55221 9.15201C5.11703 9.21522 4.76229 9.51433 4.62638 9.93254C4.4904 10.3508 4.60158 10.8014 4.91662 11.1084L5.44412 11.6225L5.31959 12.3485C5.24527 12.7819 5.4201 13.2118 5.77587 13.4703C5.97688 13.6164 6.21217 13.6906 6.44901 13.6906C6.63133 13.6906 6.81452 13.6466 6.98384 13.5576L7.63579 13.2149L8.28774 13.5576C8.67702 13.7622 9.13984 13.7289 9.49562 13.4703C9.85139 13.2119 10.0263 12.782 9.95198 12.3485L9.82745 11.6225L10.355 11.1083C10.6697 10.8014 10.781 10.3508 10.645 9.93254ZM8.87105 10.7506C8.6008 11.0143 8.47747 11.3936 8.5412 11.7658L8.62905 12.2775L8.16941 12.0358C7.83534 11.8603 7.43633 11.8602 7.102 12.0358L6.64244 12.2775L6.7302 11.7658C6.79402 11.3938 6.67078 11.0142 6.40026 10.7505L6.02847 10.3882L6.54228 10.3136C6.91597 10.2593 7.23876 10.0247 7.40584 9.68614L7.63562 9.22056L7.86539 9.68623C8.03256 10.0248 8.35535 10.2592 8.72895 10.3136L9.24276 10.3882L8.87105 10.7506Z" fill="#151F59"/>
<path d="M32.3217 9.93254C32.1858 9.51433 31.831 9.21522 31.3957 9.15201L30.6669 9.04616L30.3409 8.38568C30.1463 7.99132 29.7522 7.74622 29.3125 7.74622C29.3124 7.74622 29.3124 7.74622 29.3124 7.74622C28.8727 7.74622 28.4785 7.99124 28.2838 8.38551V8.38568L27.958 9.04616L27.229 9.15201C26.7937 9.21522 26.439 9.51433 26.3031 9.93263C26.1672 10.3508 26.2784 10.8014 26.5932 11.1084L27.1207 11.6225L26.9963 12.3485C26.9219 12.7819 27.0967 13.2118 27.4525 13.4703C27.8084 13.7287 28.2712 13.7623 28.6605 13.5576L29.3123 13.2149L29.9643 13.5576C30.1336 13.6466 30.3169 13.6906 30.4991 13.6906C30.7359 13.6906 30.9711 13.6164 31.1722 13.4703C31.528 13.2118 31.7028 12.7819 31.6285 12.3486L31.504 11.6225L32.0315 11.1083C32.3464 10.8014 32.4576 10.3508 32.3217 9.93254ZM30.5477 10.7506C30.2773 11.0143 30.1541 11.3939 30.2179 11.7658L30.3058 12.2775L29.846 12.0358C29.679 11.948 29.4958 11.9042 29.3125 11.9042C29.1292 11.9042 28.9459 11.9481 28.7787 12.0358L28.3192 12.2775L28.4071 11.7657C28.4708 11.3937 28.3475 11.0142 28.0771 10.7505L27.7054 10.3882L28.2192 10.3136C28.5929 10.2592 28.9156 10.0247 29.0828 9.68606L29.3126 9.22056L29.5424 9.68623C29.7095 10.0248 30.0323 10.2593 30.4059 10.3136L30.9197 10.3882L30.5477 10.7506Z" fill="#151F59"/>
<path d="M34.3181 11.6225L34.1936 12.3485C34.1192 12.7819 34.2941 13.2118 34.6498 13.4703C35.0057 13.7287 35.4685 13.7623 35.8578 13.5576L36.5097 13.2149L37.1616 13.5576C37.3309 13.6466 37.5142 13.6906 37.6964 13.6906C37.9333 13.6906 38.1685 13.6164 38.3696 13.4703C38.7253 13.2118 38.9002 12.7819 38.8259 12.3486L38.7013 11.6225L39.2288 11.1083C39.5437 10.8014 39.655 10.3508 39.5191 9.93254C39.3832 9.51433 39.0283 9.21522 38.5931 9.15201L37.8641 9.04616L37.5382 8.38551C37.3435 7.99115 36.9493 7.74622 36.5096 7.74622C36.0698 7.74622 35.6757 7.99132 35.4812 8.38568L35.1552 9.04616L34.4263 9.15201C33.9911 9.21522 33.6362 9.51433 33.5003 9.93254C33.3644 10.3508 33.4757 10.8014 33.7906 11.1084L34.3181 11.6225ZM35.4164 10.3136C35.7902 10.2592 36.113 10.0247 36.2799 9.68614L36.5097 9.22056L36.7395 9.68623C36.9066 10.0248 37.2294 10.2592 37.6031 10.3136L38.1169 10.3882L37.745 10.7506C37.4746 11.0143 37.3514 11.3939 37.4152 11.7658L37.5031 12.2775L37.0434 12.0358C36.7093 11.8603 36.3104 11.8602 35.976 12.0358L35.5164 12.2775L35.6042 11.766C35.6681 11.3939 35.5449 11.0142 35.2744 10.7505L34.9026 10.3882L35.4164 10.3136Z" fill="#151F59"/>
</g>
<defs>
<clipPath id="clip0">
<rect width="44" height="44" fill="white"/>
</clipPath>
</defs>
</svg>
