<svg width="577" height="452" fill="none" xmlns="http://www.w3.org/2000/svg"><path d="M421 70.197l-5.889-5.888-5.612 5.612-5.612-5.612L398 70.197l5.614 5.61L398 81.421l5.887 5.888 5.612-5.614 5.612 5.614L421 81.421l-5.612-5.614 5.612-5.61zm-360 212l-5.886-5.888-5.612 5.612-5.614-5.612L38 282.197l5.612 5.612L38 293.422l5.888 5.887 5.614-5.614 5.612 5.614L61 293.422l-5.612-5.613L61 282.197zm107-251l-5.888-5.888-5.614 5.612-5.612-5.612L145 31.197l5.613 5.612L145 42.42l5.886 5.888 5.612-5.612 5.614 5.612L168 42.421l-5.612-5.612L168 31.197zM61.5 81.826a4.988 4.988 0 00-4.983 4.984 4.988 4.988 0 004.982 4.982 4.988 4.988 0 004.984-4.982 4.989 4.989 0 00-4.984-4.984zm0 13.483c-4.687 0-8.5-3.812-8.5-8.499 0-4.686 3.813-8.5 8.5-8.5 4.686 0 8.5 3.814 8.5 8.5 0 4.687-3.814 8.5-8.5 8.5zM310.999 3.827c-2.909 0-5.275 2.235-5.275 4.982 0 2.749 2.366 4.982 5.275 4.982 2.91 0 5.277-2.233 5.277-4.982 0-2.747-2.367-4.982-5.277-4.982zm0 13.482c-4.962 0-8.999-3.813-8.999-8.5 0-4.687 4.037-8.5 8.999-8.5 4.964 0 9.001 3.813 9.001 8.5 0 4.687-4.037 8.5-9.001 8.5zm240.992 107.517c-2.904 0-5.268 2.235-5.268 4.984 0 2.747 2.364 4.982 5.268 4.982 2.922 0 5.286-2.235 5.286-4.982 0-2.749-2.364-4.984-5.286-4.984zm0 13.483c-4.952 0-8.991-3.813-8.991-8.499 0-4.687 4.039-8.501 8.991-8.501 4.969 0 9.009 3.814 9.009 8.501 0 4.686-4.04 8.499-9.009 8.499zM442.499 266.826a4.989 4.989 0 00-4.982 4.984 4.986 4.986 0 004.982 4.982 4.989 4.989 0 004.984-4.982 4.991 4.991 0 00-4.984-4.984zm0 13.483c-4.687 0-8.499-3.812-8.499-8.499 0-4.687 3.812-8.501 8.499-8.501 4.687 0 8.501 3.814 8.501 8.501 0 4.687-3.814 8.499-8.501 8.499zM177 92.308c0 8.837-7.163 16.001-16 16.001-8.838 0-16-7.164-16-16s7.162-16 16-16c8.837 0 16 7.164 16 16zm400 158.001c0 4.419-3.575 8-8 8s-8-3.581-8-8c0-4.418 3.575-8 8-8s8 3.582 8 8zm-561-103c0 4.418-3.58 8-7.998 8a8.002 8.002 0 01-8.002-8c0-4.418 3.583-8 8.002-8a7.998 7.998 0 017.998 8zm402 0a8.001 8.001 0 01-16 0 8.001 8.001 0 0116 0z" fill="#4DADD7"/><path d="M49.631 204.481h43.41v-56.984l-43.41 56.984zm39.651 67.828v-37.567H16v-30.004l84.067-108.429h22.843v108.172H145v30.261h-22.09v37.567H89.282zm353.342-67.828h43.407v-56.984l-43.407 56.984zm39.646 67.828v-37.567H409v-30.004l84.057-108.429h22.853v108.172H538v30.261h-22.09v37.567h-33.64z" fill="#FEFEFE"/><path d="M527 412.309h-1.175l-140.9-140.772.677-.677a2.57 2.57 0 000-3.636l-14.923-14.909c13.846-19.086 22.01-42.555 22.01-67.93 0-36.375-16.778-68.836-43.025-90.076 23.43 8.853 42.92 25.439 55.515 46.522a8.037 8.037 0 00-3.769 6.814c0 4.443 3.605 8.044 8.051 8.044a8.036 8.036 0 002.908-.541 108.977 108.977 0 018.035 34.416l-11.856 15.209v29.945h5.455a109.44 109.44 0 01-17.152 30.554l13.506 14.743a2.43 2.43 0 01-.155 3.444l-.666.612L527 412.309zM310.814 306.836c-1.635 0-3.277-.038-4.924-.109-11.54-.511-22.588-2.783-32.89-6.542 1.238.039 2.479.058 3.725.058 25.398 0 48.889-8.157 67.992-21.99l14.923 14.91a2.579 2.579 0 003.642 0l.675-.677.405.406c-15.897 8.896-34.182 13.944-53.548 13.944z" fill="#195D7A"/><path d="M409.346 155.309c-4.057 0-7.346-3.636-7.346-8.121 0-2.898 1.373-5.442 3.438-6.879A115.587 115.587 0 01412 154.763a6.723 6.723 0 01-2.654.546z" fill="#0F95AA"/><path d="M414.408 234.309H409v-29.843l11.756-15.157c.269 4.04.318 8.135.136 12.274-.503 11.483-2.754 22.474-6.484 32.726z" fill="#E7E5E5"/><path d="M538.664 425.929l-162.738-163.62L355 283.344l162.749 163.611c6.113 6.147 16.153 5.731 21.751-.904 4.975-5.904 4.602-14.652-.836-20.122z" fill="#504C4B"/><path d="M340 273.605l19.516 19.941a2.517 2.517 0 003.61 0l22.127-22.61a2.648 2.648 0 000-3.687l-19.516-19.94L340 273.605z" fill="#E7E7E6"/><path d="M369.439 250.309l2.561 2.559-21.532 31.441-9.468-9.461 28.439-24.539z" fill="#C8C4C4"/><path d="M369.901 298.309L364 292.295l20.592-20.986 1.408 1.435-16.099 25.565z" fill="#3D3A38"/><path d="M364 292.309l21-21-21 21z" fill="#6E6C6B"/><path d="M277 276.337c-50.825 0-92.028-41.202-92.028-92.028 0-50.826 41.203-92.028 92.028-92.028 50.826 0 92.028 41.202 92.028 92.028 0 50.826-41.202 92.028-92.028 92.028zm0-208.028c-64.066 0-116 51.935-116 116 0 64.067 51.934 116 116 116 64.067 0 116-51.933 116-116 0-64.065-51.933-116-116-116z" fill="#F8F8F9"/><path d="M217.07 254.309C197.439 237.427 185 212.352 185 184.358c0-50.837 41.028-92.049 91.636-92.049.121 0 .243 0 .364.002-42.32 13.675-73.762 52.618-75.841 99.844-1.001 22.71 4.933 44.117 15.911 62.154z" fill="#5AAACC"/><path d="M276.938 276.309c-22.848 0-43.75-8.317-59.844-22.085-11.029-18.028-16.99-39.424-15.984-62.123 2.088-47.201 33.676-86.124 76.193-99.792 50.679.194 91.697 41.309 91.697 91.999 0 50.811-41.218 92.001-92.062 92.001z" fill="#3082A5"/><path d="M277 276.309c-50.81 0-92-41.19-92-92 0 27.98 12.489 53.041 32.197 69.915 16.083 13.769 36.971 22.085 59.803 22.085 50.81 0 92-41.19 92-92 0 50.81-41.19 92-92 92z" fill="#6BC6D9"/><path d="M215.741 123.05c-13.365 13.365-21.395 27-17.938 30.457 3.455 3.455 17.09-4.575 30.456-17.94 13.365-13.363 21.397-27 17.938-30.455-3.455-3.457-17.091 4.574-30.456 17.938z" fill="#FEFEFE"/></svg>