<svg width="137" height="51" viewBox="0 0 137 51" fill="none" xmlns="http://www.w3.org/2000/svg">
<g filter="url(#filter0_d_217_5633)">
<mask id="path-1-outside-1_217_5633" maskUnits="userSpaceOnUse" x="6" y="5.72388" width="69" height="16" fill="black">
<rect fill="white" x="6" y="5.72388" width="69" height="16"/>
<path d="M16.7606 15.3241H13.4662L12.8229 18.5406H9.8208L10.4641 15.3241H7.16963L7.73495 12.478H11.0294L11.6727 9.26148H14.6748L14.0315 12.478H17.3259L16.7606 15.3241ZM29.5651 9.4954L26.0756 12.6339C26.9594 12.8808 27.6417 13.3032 28.1225 13.901C28.6163 14.4858 28.8633 15.2006 28.8633 16.0453C28.8633 16.994 28.5774 17.8453 28.0055 18.599C27.4337 19.3398 26.6475 19.9246 25.6468 20.3535C24.6461 20.7824 23.5155 20.9968 22.2548 20.9968C21.2542 20.9968 20.312 20.8733 19.4282 20.6264C18.5445 20.3665 17.7778 19.9896 17.128 19.4958L18.9214 16.7471C19.4022 17.111 19.9546 17.3904 20.5784 17.5854C21.2152 17.7803 21.8585 17.8778 22.5083 17.8778C23.301 17.8778 23.9053 17.7413 24.3212 17.4684C24.7501 17.1825 24.9645 16.7861 24.9645 16.2793C24.9645 15.5125 24.3602 15.1291 23.1516 15.1291H21.4946L21.9819 12.6924L24.906 10.0607H19.5647L20.169 7.07816H30.0329L29.5651 9.4954ZM37.8799 12.0296C38.6337 12.0296 39.342 12.1856 40.0048 12.4975C40.6676 12.8094 41.2004 13.2642 41.6033 13.862C42.0062 14.4468 42.2076 15.1486 42.2076 15.9674C42.2076 16.9811 41.9607 17.8713 41.4668 18.638C40.973 19.3918 40.2907 19.9766 39.42 20.3925C38.5622 20.7954 37.581 20.9968 36.4764 20.9968C35.3587 20.9968 34.3711 20.7889 33.5133 20.373C32.6686 19.9441 32.0058 19.3138 31.5249 18.4821C31.0441 17.6503 30.8037 16.6367 30.8037 15.441C30.8037 14.0375 31.1091 12.6794 31.7199 11.3668C32.3307 10.0412 33.2729 8.94958 34.5465 8.09185C35.8331 7.23411 37.4121 6.80525 39.2835 6.80525C40.1023 6.80525 40.869 6.89622 41.5838 7.07816C42.2986 7.24711 42.8834 7.48753 43.3382 7.79944L41.5838 10.5286C40.934 10.0867 40.0958 9.86579 39.0691 9.86579C38.0034 9.86579 37.1392 10.1452 36.4764 10.704C35.8136 11.2499 35.3522 11.9906 35.0923 12.9263C35.8071 12.3285 36.7363 12.0296 37.8799 12.0296ZM36.4374 18.2482C36.9962 18.2482 37.4641 18.0792 37.841 17.7413C38.2178 17.3904 38.4063 16.9226 38.4063 16.3378C38.4063 15.8569 38.2503 15.48 37.9384 15.2071C37.6265 14.9342 37.2042 14.7977 36.6713 14.7977C36.0865 14.7977 35.6057 14.9667 35.2288 15.3046C34.8519 15.6425 34.6635 16.0843 34.6635 16.6302C34.6635 17.098 34.8194 17.4879 35.1313 17.7998C35.4432 18.0987 35.8786 18.2482 36.4374 18.2482ZM48.98 20.9968C47.4075 20.9968 46.1599 20.5354 45.2372 19.6127C44.3275 18.677 43.8726 17.3839 43.8726 15.7334C43.8726 14.07 44.178 12.5624 44.7889 11.2109C45.4127 9.84629 46.2769 8.77413 47.3815 7.99438C48.4862 7.20162 49.7338 6.80525 51.1244 6.80525C52.6969 6.80525 53.938 7.2731 54.8477 8.20881C55.7704 9.13152 56.2318 10.4181 56.2318 12.0686C56.2318 13.7321 55.9199 15.2461 55.2961 16.6107C54.6852 17.9622 53.8275 19.0344 52.7229 19.8272C51.6182 20.6069 50.3706 20.9968 48.98 20.9968ZM49.3504 17.8388C49.9742 17.8388 50.5136 17.5334 50.9684 16.9226C51.4233 16.3118 51.7677 15.5645 52.0016 14.6808C52.2355 13.7971 52.3525 12.9588 52.3525 12.1661C52.3525 11.4123 52.2095 10.86 51.9236 10.5091C51.6507 10.1452 51.2608 9.96326 50.754 9.96326C50.1302 9.96326 49.5908 10.2687 49.136 10.8795C48.6811 11.4903 48.3367 12.2375 48.1028 13.1213C47.8689 14.005 47.7519 14.8432 47.7519 15.636C47.7519 17.1045 48.2848 17.8388 49.3504 17.8388ZM61.2333 14.4663C60.2976 14.4663 59.5438 14.1869 58.972 13.6281C58.4132 13.0693 58.1338 12.3025 58.1338 11.3278C58.1338 10.4961 58.2962 9.74233 58.6211 9.06654C58.946 8.39075 59.4074 7.86442 60.0052 7.48754C60.616 7.09766 61.3243 6.90272 62.13 6.90272C63.0657 6.90272 63.813 7.18213 64.3718 7.74096C64.9436 8.29978 65.2296 9.06654 65.2296 10.0412C65.2296 10.873 65.0671 11.6267 64.7422 12.3025C64.4303 12.9783 63.9689 13.5111 63.3581 13.901C62.7603 14.2779 62.052 14.4663 61.2333 14.4663ZM70.3175 7.07816H73.261L61.3893 20.7239H58.4262L70.3175 7.07816ZM61.4477 12.6144C61.9286 12.6144 62.286 12.3675 62.5199 11.8737C62.7538 11.3668 62.8708 10.795 62.8708 10.1582C62.8708 9.67735 62.7798 9.32646 62.5979 9.10553C62.4289 8.8716 62.2015 8.75464 61.9156 8.75464C61.4347 8.75464 61.0774 9.00806 60.8434 9.5149C60.6095 10.0087 60.4925 10.5741 60.4925 11.2109C60.4925 11.6917 60.577 12.0491 60.746 12.283C60.9279 12.504 61.1618 12.6144 61.4477 12.6144ZM69.5767 20.8993C68.641 20.8993 67.8872 20.6264 67.3154 20.0806C66.7566 19.5218 66.4772 18.7485 66.4772 17.7608C66.4772 16.9291 66.6331 16.1818 66.945 15.519C67.2699 14.8432 67.7313 14.3169 68.3291 13.94C68.9399 13.5501 69.6547 13.3552 70.4734 13.3552C71.4091 13.3552 72.1564 13.6346 72.7152 14.1934C73.287 14.7393 73.5729 15.4995 73.5729 16.4742C73.5729 17.306 73.4105 18.0597 73.0856 18.7355C72.7737 19.4113 72.3123 19.9441 71.7015 20.334C71.1037 20.7109 70.3954 20.8993 69.5767 20.8993ZM69.7911 19.0669C70.272 19.0669 70.6229 18.8135 70.8438 18.3066C71.0777 17.7998 71.1947 17.228 71.1947 16.5912C71.1947 16.1103 71.1102 15.7594 70.9413 15.5385C70.7723 15.3046 70.5449 15.1876 70.259 15.1876C69.7781 15.1876 69.4207 15.441 69.1868 15.9479C68.9529 16.4547 68.8359 17.02 68.8359 17.6438C68.8359 18.1247 68.9204 18.4821 69.0893 18.716C69.2713 18.9499 69.5052 19.0669 69.7911 19.0669Z"/>
</mask>
<path d="M16.7606 15.3241V15.8611H17.2015L17.2873 15.4287L16.7606 15.3241ZM13.4662 15.3241V14.7871H13.0259L12.9396 15.2188L13.4662 15.3241ZM12.8229 18.5406V19.0776H13.2631L13.3494 18.6459L12.8229 18.5406ZM9.8208 18.5406L9.29422 18.4352L9.16576 19.0776H9.8208V18.5406ZM10.4641 15.3241L10.9907 15.4294L11.1191 14.7871H10.4641V15.3241ZM7.16963 15.3241L6.64292 15.2195L6.51547 15.8611H7.16963V15.3241ZM7.73495 12.478V11.941H7.29412L7.20824 12.3733L7.73495 12.478ZM11.0294 12.478V13.015H11.4697L11.556 12.5833L11.0294 12.478ZM11.6727 9.26148V8.72447H11.2325L11.1461 9.15616L11.6727 9.26148ZM14.6748 9.26148L15.2014 9.36679L15.3298 8.72447H14.6748V9.26148ZM14.0315 12.478L13.5049 12.3727L13.3764 13.015H14.0315V12.478ZM17.3259 12.478L17.8527 12.5826L17.9801 11.941H17.3259V12.478ZM16.7606 14.7871H13.4662V15.8611H16.7606V14.7871ZM12.9396 15.2188L12.2963 18.4352L13.3494 18.6459L13.9927 15.4294L12.9396 15.2188ZM12.8229 18.0036H9.8208V19.0776H12.8229V18.0036ZM10.3474 18.6459L10.9907 15.4294L9.93752 15.2188L9.29422 18.4352L10.3474 18.6459ZM10.4641 14.7871H7.16963V15.8611H10.4641V14.7871ZM7.69635 15.4287L8.26167 12.5826L7.20824 12.3733L6.64292 15.2195L7.69635 15.4287ZM7.73495 13.015H11.0294V11.941H7.73495V13.015ZM11.556 12.5833L12.1993 9.36679L11.1461 9.15616L10.5028 12.3727L11.556 12.5833ZM11.6727 9.79849H14.6748V8.72447H11.6727V9.79849ZM14.1482 9.15616L13.5049 12.3727L14.5581 12.5833L15.2014 9.36679L14.1482 9.15616ZM14.0315 13.015H17.3259V11.941H14.0315V13.015ZM16.7992 12.3733L16.2339 15.2195L17.2873 15.4287L17.8527 12.5826L16.7992 12.3733ZM29.5651 9.4954L29.9242 9.89467L30.0581 9.77424L30.0923 9.59745L29.5651 9.4954ZM26.0756 12.6339L25.7165 12.2347L24.99 12.8881L25.9311 13.1511L26.0756 12.6339ZM28.1225 13.901L27.7039 14.2377L27.7122 14.2475L28.1225 13.901ZM28.0055 18.599L28.4306 18.9272L28.4334 18.9236L28.0055 18.599ZM25.6468 20.3535L25.8583 20.8471L25.6468 20.3535ZM19.4282 20.6264L19.2767 21.1416L19.2837 21.1436L19.4282 20.6264ZM17.128 19.4958L16.6782 19.2023L16.4051 19.6209L16.803 19.9233L17.128 19.4958ZM18.9214 16.7471L19.2454 16.3189L18.7863 15.9715L18.4717 16.4537L18.9214 16.7471ZM20.5784 17.5854L20.4182 18.0979L20.4212 18.0988L20.5784 17.5854ZM24.3212 17.4684L24.6158 17.9174L24.6191 17.9152L24.3212 17.4684ZM21.4946 15.1291L20.968 15.0238L20.8395 15.6661H21.4946V15.1291ZM21.9819 12.6924L21.6227 12.2932L21.4903 12.4124L21.4554 12.5871L21.9819 12.6924ZM24.906 10.0607L25.2653 10.4599L26.3054 9.52372H24.906V10.0607ZM19.5647 10.0607L19.0384 9.95409L18.908 10.5977H19.5647V10.0607ZM20.169 7.07816V6.54116H19.7299L19.6427 6.97152L20.169 7.07816ZM30.0329 7.07816L30.5601 7.18021L30.6838 6.54116H30.0329V7.07816ZM29.2059 9.09614L25.7165 12.2347L26.4348 13.0332L29.9242 9.89467L29.2059 9.09614ZM25.9311 13.1511C26.7286 13.3739 27.3063 13.7431 27.7041 14.2376L28.5409 13.5644C27.977 12.8633 27.1901 12.3877 26.2202 12.1167L25.9311 13.1511ZM27.7122 14.2475C28.1156 14.7252 28.3263 15.3134 28.3263 16.0453H29.4003C29.4003 15.0879 29.1171 14.2465 28.5328 13.5546L27.7122 14.2475ZM28.3263 16.0453C28.3263 16.8772 28.0785 17.6144 27.5777 18.2745L28.4334 18.9236C29.0762 18.0762 29.4003 17.1109 29.4003 16.0453H28.3263ZM27.5805 18.2709C27.0731 18.9282 26.3657 19.4612 25.4352 19.8599L25.8583 20.8471C26.9293 20.3881 27.7943 19.7515 28.4306 18.9272L27.5805 18.2709ZM25.4352 19.8599C24.5111 20.256 23.4541 20.4598 22.2548 20.4598V21.5338C23.5768 21.5338 24.7811 21.3088 25.8583 20.8471L25.4352 19.8599ZM22.2548 20.4598C21.2986 20.4598 20.4054 20.3419 19.5727 20.1092L19.2837 21.1436C20.2185 21.4048 21.2097 21.5338 22.2548 21.5338V20.4598ZM19.5798 20.1112C18.7507 19.8674 18.0444 19.5178 17.4529 19.0682L16.803 19.9233C17.5111 20.4614 18.3383 20.8656 19.2767 21.1416L19.5798 20.1112ZM17.5777 19.7892L19.3711 17.0406L18.4717 16.4537L16.6782 19.2023L17.5777 19.7892ZM18.5973 17.1753C19.1315 17.5796 19.7403 17.8861 20.4182 18.0979L20.7385 17.0728C20.1689 16.8948 19.673 16.6424 19.2454 16.3189L18.5973 17.1753ZM20.4212 18.0988C21.1076 18.309 21.8039 18.4148 22.5083 18.4148V17.3408C21.9131 17.3408 21.3227 17.2516 20.7356 17.0719L20.4212 18.0988ZM22.5083 18.4148C23.3489 18.4148 24.0747 18.2725 24.6158 17.9174L24.0266 17.0194C23.736 17.2101 23.2532 17.3408 22.5083 17.3408V18.4148ZM24.6191 17.9152C25.1943 17.5317 25.5015 16.9693 25.5015 16.2793H24.4275C24.4275 16.6029 24.3058 16.8332 24.0233 17.0216L24.6191 17.9152ZM25.5015 16.2793C25.5015 15.7278 25.2692 15.2616 24.7989 14.9632C24.37 14.6911 23.7953 14.5921 23.1516 14.5921V15.6661C23.7164 15.6661 24.0482 15.7589 24.2236 15.8701C24.3576 15.9552 24.4275 16.064 24.4275 16.2793H25.5015ZM23.1516 14.5921H21.4946V15.6661H23.1516V14.5921ZM22.0212 15.2345L22.5085 12.7977L21.4554 12.5871L20.968 15.0238L22.0212 15.2345ZM22.3412 13.0916L25.2653 10.4599L24.5468 9.66157L21.6227 12.2932L22.3412 13.0916ZM24.906 9.52372H19.5647V10.5977H24.906V9.52372ZM20.091 10.1674L20.6953 7.1848L19.6427 6.97152L19.0384 9.95409L20.091 10.1674ZM20.169 7.61517H30.0329V6.54116H20.169V7.61517ZM29.5057 6.97612L29.0378 9.39336L30.0923 9.59745L30.5601 7.18021L29.5057 6.97612ZM41.6033 13.862L41.1579 14.1622L41.161 14.1667L41.6033 13.862ZM41.4668 18.638L41.916 18.9323L41.9183 18.9288L41.4668 18.638ZM39.42 20.3925L39.6483 20.8786L39.6514 20.8771L39.42 20.3925ZM33.5133 20.373L33.2702 20.8519L33.279 20.8562L33.5133 20.373ZM31.5249 18.4821L31.9899 18.2133L31.5249 18.4821ZM31.7199 11.3668L32.2068 11.5934L32.2076 11.5916L31.7199 11.3668ZM34.5465 8.09185L34.2486 7.64502L34.2465 7.64643L34.5465 8.09185ZM41.5838 7.07816L41.4513 7.59865L41.4603 7.60077L41.5838 7.07816ZM43.3382 7.79944L43.79 8.08983L44.0718 7.65134L43.6419 7.35655L43.3382 7.79944ZM41.5838 10.5286L41.2818 10.9726L41.7375 11.2825L42.0355 10.819L41.5838 10.5286ZM36.4764 10.704L36.8178 11.1186L36.8225 11.1146L36.4764 10.704ZM35.0923 12.9263L34.5749 12.7826L34.113 14.4455L35.4368 13.3383L35.0923 12.9263ZM37.841 17.7413L38.1995 18.1412L38.2069 18.1343L37.841 17.7413ZM37.9384 15.2071L38.2921 14.803L37.9384 15.2071ZM35.2288 15.3046L34.8703 14.9047L35.2288 15.3046ZM35.1313 17.7998L34.7515 18.1796L34.7598 18.1875L35.1313 17.7998ZM37.8799 12.5666C38.557 12.5666 39.187 12.7061 39.7761 12.9834L40.2334 12.0116C39.497 11.665 38.7104 11.4926 37.8799 11.4926V12.5666ZM39.7761 12.9834C40.3527 13.2547 40.8101 13.646 41.158 14.1621L42.0486 13.5619C41.5907 12.8824 40.9824 12.364 40.2334 12.0116L39.7761 12.9834ZM41.161 14.1667C41.4931 14.6487 41.6706 15.2403 41.6706 15.9674H42.7446C42.7446 15.057 42.5192 14.245 42.0455 13.5574L41.161 14.1667ZM41.6706 15.9674C41.6706 16.8898 41.4472 17.6767 41.0154 18.3473L41.9183 18.9288C42.4741 18.0659 42.7446 17.0723 42.7446 15.9674H41.6706ZM41.0176 18.3437C40.5814 19.0095 39.9772 19.5312 39.1885 19.9079L39.6514 20.8771C40.6042 20.422 41.3645 19.7741 41.916 18.9323L41.0176 18.3437ZM39.1917 19.9064C38.4163 20.2706 37.5151 20.4598 36.4764 20.4598V21.5338C37.647 21.5338 38.7082 21.3201 39.6483 20.8785L39.1917 19.9064ZM36.4764 20.4598C35.426 20.4598 34.5207 20.2646 33.7476 19.8898L33.279 20.8562C34.2214 21.3131 35.2915 21.5338 36.4764 21.5338V20.4598ZM33.7564 19.8942C33.0058 19.5131 32.4194 18.9564 31.9899 18.2133L31.06 18.7509C31.5921 19.6713 32.3314 20.3752 33.2702 20.8518L33.7564 19.8942ZM31.9899 18.2133C31.5665 17.481 31.3407 16.5651 31.3407 15.441H30.2667C30.2667 16.7082 30.5217 17.8197 31.06 18.7509L31.9899 18.2133ZM31.3407 15.441C31.3407 14.1182 31.6279 12.8373 32.2068 11.5934L31.233 11.1403C30.5902 12.5215 30.2667 13.9567 30.2667 15.441H31.3407ZM32.2076 11.5916C32.775 10.3601 33.6501 9.34301 34.8465 8.53726L34.2465 7.64643C32.8957 8.55614 31.8863 9.72239 31.2322 11.1421L32.2076 11.5916ZM34.8444 8.53866C36.0257 7.75112 37.4956 7.34226 39.2835 7.34226V6.26824C37.3286 6.26824 35.6405 6.71711 34.2486 7.64503L34.8444 8.53866ZM39.2835 7.34226C40.0624 7.34226 40.7843 7.42879 41.4513 7.59858L41.7163 6.55775C40.9537 6.36366 40.1421 6.26824 39.2835 6.26824V7.34226ZM41.4603 7.60077C42.1307 7.75924 42.6491 7.97803 43.0345 8.24232L43.6419 7.35655C43.1176 6.99704 42.4664 6.73498 41.7073 6.55556L41.4603 7.60077ZM42.8865 7.50905L41.1321 10.2382L42.0355 10.819L43.79 8.08983L42.8865 7.50905ZM41.8857 10.0845C41.1233 9.56602 40.1708 9.32878 39.0691 9.32878V10.4028C40.0207 10.4028 40.7447 10.6074 41.2818 10.9726L41.8857 10.0845ZM39.0691 9.32878C37.9068 9.32878 36.9106 9.63549 36.1302 10.2935L36.8225 11.1146C37.3677 10.6549 38.1 10.4028 39.0691 10.4028V9.32878ZM36.135 10.2895C35.3762 10.9144 34.8603 11.7552 34.5749 12.7826L35.6097 13.0701C35.8442 12.2261 36.2509 11.5854 36.8178 11.1186L36.135 10.2895ZM35.4368 13.3383C36.0345 12.8384 36.8326 12.5666 37.8799 12.5666V11.4926C36.64 11.4926 35.5797 11.8186 34.7478 12.5144L35.4368 13.3383ZM36.4374 18.7852C37.1137 18.7852 37.7135 18.5768 38.1994 18.1412L37.4825 17.3415C37.2146 17.5816 36.8788 17.7111 36.4374 17.7111V18.7852ZM38.2069 18.1343C38.7082 17.6676 38.9433 17.0494 38.9433 16.3378H37.8693C37.8693 16.7958 37.7275 17.1132 37.475 17.3483L38.2069 18.1343ZM38.9433 16.3378C38.9433 15.7295 38.7397 15.1946 38.2921 14.803L37.5848 15.6112C37.761 15.7654 37.8693 15.9843 37.8693 16.3378H38.9433ZM38.2921 14.803C37.8569 14.4223 37.2961 14.2607 36.6713 14.2607V15.3347C37.1122 15.3347 37.3961 15.4461 37.5848 15.6112L38.2921 14.803ZM36.6713 14.2607C35.9761 14.2607 35.3609 14.4649 34.8703 14.9047L35.5873 15.7044C35.8505 15.4684 36.1969 15.3347 36.6713 15.3347V14.2607ZM34.8703 14.9047C34.3702 15.3531 34.1265 15.9452 34.1265 16.6302H35.2005C35.2005 16.2235 35.3336 15.9318 35.5873 15.7044L34.8703 14.9047ZM34.1265 16.6302C34.1265 17.2309 34.3324 17.7603 34.7516 18.1795L35.511 17.4201C35.3064 17.2155 35.2005 16.9652 35.2005 16.6302H34.1265ZM34.7598 18.1875C35.1984 18.6079 35.7823 18.7852 36.4374 18.7852V17.7111C35.9749 17.7111 35.688 17.5895 35.5029 17.4121L34.7598 18.1875ZM45.2372 19.6127L44.8521 19.9871L44.8575 19.9924L45.2372 19.6127ZM44.7889 11.2109L44.3005 10.9876L44.2995 10.9897L44.7889 11.2109ZM47.3815 7.99438L47.6912 8.43311L47.6946 8.43066L47.3815 7.99438ZM54.8477 8.20881L54.4626 8.58318L54.468 8.58853L54.8477 8.20881ZM55.2961 16.6107L54.8077 16.3874L54.8067 16.3895L55.2961 16.6107ZM52.7229 19.8272L53.0326 20.2659L53.036 20.2634L52.7229 19.8272ZM50.9684 16.9226L51.3991 17.2433L50.9684 16.9226ZM52.0016 14.6808L52.5207 14.8182L52.0016 14.6808ZM51.9236 10.5091L51.494 10.8313L51.5005 10.8399L51.5073 10.8483L51.9236 10.5091ZM49.136 10.8795L49.5667 11.2002V11.2002L49.136 10.8795ZM48.1028 13.1213L48.6219 13.2587L48.1028 13.1213ZM48.98 20.4598C47.5187 20.4598 46.4188 20.0349 45.6169 19.233L44.8575 19.9924C45.901 21.036 47.2963 21.5338 48.98 21.5338V20.4598ZM45.6222 19.2384C44.834 18.4277 44.4096 17.2829 44.4096 15.7334H43.3356C43.3356 17.485 43.821 18.9264 44.8522 19.9871L45.6222 19.2384ZM44.4096 15.7334C44.4096 14.1369 44.7024 12.7061 45.2782 11.432L44.2995 10.9897C43.6537 12.4188 43.3356 14.003 43.3356 15.7334H44.4096ZM45.2772 11.4341C45.866 10.1462 46.6724 9.15225 47.6912 8.43309L47.0719 7.55566C45.8814 8.39601 44.9593 9.54638 44.3005 10.9876L45.2772 11.4341ZM47.6946 8.43066C48.7058 7.70498 49.8434 7.34226 51.1244 7.34226V6.26824C49.6242 6.26824 48.2666 6.69827 47.0684 7.55809L47.6946 8.43066ZM51.1244 7.34226C52.5837 7.34226 53.6743 7.77229 54.4627 8.58314L55.2327 7.83447C54.2016 6.77392 52.81 6.26824 51.1244 6.26824V7.34226ZM54.468 8.58853C55.265 9.38557 55.6948 10.5209 55.6948 12.0686H56.7688C56.7688 10.3154 56.2758 8.87747 55.2274 7.82909L54.468 8.58853ZM55.6948 12.0686C55.6948 13.6635 55.3961 15.1002 54.8077 16.3874L55.7844 16.8339C56.4436 15.392 56.7688 13.8007 56.7688 12.0686H55.6948ZM54.8067 16.3895C54.2311 17.6632 53.4309 18.658 52.4098 19.3909L53.036 20.2634C54.2241 19.4108 55.1394 18.2613 55.7854 16.8318L54.8067 16.3895ZM52.4132 19.3884C51.4018 20.1023 50.2631 20.4598 48.98 20.4598V21.5338C50.4781 21.5338 51.8346 21.1115 53.0325 20.2659L52.4132 19.3884ZM49.3504 18.3758C50.1819 18.3758 50.868 17.9566 51.3991 17.2433L50.5377 16.6018C50.1591 17.1102 49.7666 17.3018 49.3504 17.3018V18.3758ZM51.3991 17.2433C51.9022 16.5678 52.2727 15.7551 52.5207 14.8182L51.4825 14.5434C51.2626 15.3738 50.9444 16.0557 50.5377 16.6018L51.3991 17.2433ZM52.5207 14.8182C52.7647 13.8963 52.8895 13.0116 52.8895 12.1661H51.8155C51.8155 12.906 51.7063 13.6978 51.4825 14.5434L52.5207 14.8182ZM52.8895 12.1661C52.8895 11.3643 52.7411 10.6622 52.3399 10.1699L51.5073 10.8483C51.678 11.0577 51.8155 11.4603 51.8155 12.1661H52.8895ZM52.3532 10.1869C51.9663 9.67094 51.4076 9.42625 50.754 9.42625V10.5003C51.114 10.5003 51.3351 10.6195 51.494 10.8313L52.3532 10.1869ZM50.754 9.42625C49.9225 9.42625 49.2364 9.84548 48.7053 10.5587L49.5667 11.2002C49.9453 10.6918 50.3378 10.5003 50.754 10.5003V9.42625ZM48.7053 10.5587C48.2022 11.2343 47.8317 12.0469 47.5837 12.9838L48.6219 13.2587C48.8418 12.4282 49.16 11.7463 49.5667 11.2002L48.7053 10.5587ZM47.5837 12.9838C47.3397 13.9057 47.2149 14.7904 47.2149 15.636H48.2889C48.2889 14.8961 48.3981 14.1043 48.6219 13.2587L47.5837 12.9838ZM47.2149 15.636C47.2149 16.4192 47.3541 17.1035 47.7169 17.6035C48.1029 18.1354 48.6798 18.3758 49.3504 18.3758V17.3018C48.9554 17.3018 48.733 17.1751 48.5862 16.9727C48.4161 16.7383 48.2889 16.3213 48.2889 15.636H47.2149ZM58.972 13.6281L58.5923 14.0079L58.5967 14.0122L58.972 13.6281ZM58.6211 9.06654L58.1371 8.83386V8.83386L58.6211 9.06654ZM60.0052 7.48753L60.2916 7.94181L60.2941 7.94019L60.0052 7.48753ZM64.3718 7.74096L63.9921 8.1207L63.9965 8.12502L64.3718 7.74096ZM64.7422 12.3025L64.2582 12.0698L64.2546 12.0775L64.7422 12.3025ZM63.3581 13.901L63.6445 14.3553L63.6471 14.3537L63.3581 13.901ZM70.3175 7.07816V6.54116H70.0731L69.9126 6.72536L70.3175 7.07816ZM73.261 7.07816L73.6662 7.43064L74.44 6.54116H73.261V7.07816ZM61.3893 20.7239V21.2609H61.6339L61.7944 21.0763L61.3893 20.7239ZM58.4262 20.7239L58.0213 20.3711L57.2459 21.2609H58.4262V20.7239ZM62.5199 11.8737L63.0052 12.1036L63.0075 12.0987L62.5199 11.8737ZM62.5979 9.10553L62.1625 9.41994L62.1725 9.43375L62.1833 9.44691L62.5979 9.10553ZM60.8434 9.5149L61.3288 9.74479L61.331 9.73993L60.8434 9.5149ZM60.746 12.283L60.3106 12.5974L60.3206 12.6113L60.3314 12.6244L60.746 12.283ZM67.3154 20.0806L66.9356 20.4604L66.9446 20.469L67.3154 20.0806ZM66.945 15.519L66.461 15.2863L66.4591 15.2904L66.945 15.519ZM68.3291 13.94L68.6155 14.3943L68.618 14.3927L68.3291 13.94ZM72.7152 14.1934L72.3354 14.5733L72.3444 14.5819L72.7152 14.1934ZM73.0856 18.7355L72.6015 18.5028L72.598 18.5105L73.0856 18.7355ZM71.7015 20.334L71.9879 20.7883L71.9904 20.7867L71.7015 20.334ZM70.8438 18.3066L70.3561 18.0815L70.3515 18.0921L70.8438 18.3066ZM70.9413 15.5385L70.5059 15.8529L70.5102 15.8589L70.5147 15.8647L70.9413 15.5385ZM69.1868 15.9479L69.6744 16.1729L69.1868 15.9479ZM69.0893 18.716L68.654 19.0304L68.6596 19.0382L68.6655 19.0457L69.0893 18.716ZM61.2333 13.9293C60.4122 13.9293 59.8019 13.6882 59.3474 13.244L58.5967 14.0122C59.2858 14.6856 60.183 15.0034 61.2333 15.0034V13.9293ZM59.3517 13.2484C58.9161 12.8127 58.6708 12.1954 58.6708 11.3278H57.5968C57.5968 12.4097 57.9103 13.3258 58.5923 14.0078L59.3517 13.2484ZM58.6708 11.3278C58.6708 10.5678 58.8188 9.8948 59.1051 9.29922L58.1371 8.83386C57.7737 9.58985 57.5968 10.4244 57.5968 11.3278H58.6708ZM59.1051 9.29922C59.3891 8.70859 59.7844 8.26152 60.2916 7.9418L59.7188 7.03327C59.0303 7.46731 58.503 8.07291 58.1371 8.83386L59.1051 9.29922ZM60.2941 7.94019C60.8092 7.61144 61.4148 7.43973 62.13 7.43973V6.36571C61.2337 6.36571 60.4228 6.58387 59.7163 7.03488L60.2941 7.94019ZM62.13 7.43973C62.9515 7.43973 63.5523 7.68087 63.9921 8.12068L64.7515 7.36123C64.0737 6.68339 63.18 6.36571 62.13 6.36571V7.43973ZM63.9965 8.12502C64.443 8.56137 64.6925 9.17725 64.6925 10.0412H65.7666C65.7666 8.95582 65.4443 8.03819 64.7472 7.35689L63.9965 8.12502ZM64.6925 10.0412C64.6925 10.8013 64.5446 11.4743 64.2582 12.0698L65.2262 12.5352C65.5896 11.7792 65.7666 10.9446 65.7666 10.0412H64.6925ZM64.2546 12.0775C63.9846 12.6626 63.5909 13.1154 63.0692 13.4484L63.6471 14.3537C64.347 13.9069 64.876 13.294 65.2298 12.5276L64.2546 12.0775ZM63.0718 13.4468C62.5726 13.7615 61.9671 13.9293 61.2333 13.9293V15.0034C62.137 15.0034 62.9481 14.7943 63.6445 14.3553L63.0718 13.4468ZM70.3175 7.61517H73.261V6.54116H70.3175V7.61517ZM72.8559 6.72569L60.9841 20.3714L61.7944 21.0763L73.6662 7.43064L72.8559 6.72569ZM61.3893 20.1869H58.4262V21.2609H61.3893V20.1869ZM58.831 21.0767L70.7223 7.43097L69.9126 6.72536L58.0213 20.3711L58.831 21.0767ZM61.4477 13.1514C61.785 13.1514 62.1037 13.0631 62.3817 12.871C62.6556 12.6818 62.8582 12.414 63.0052 12.1035L62.0346 11.6438C61.9477 11.8271 61.8547 11.9297 61.7712 11.9874C61.6917 12.0423 61.5913 12.0774 61.4477 12.0774V13.1514ZM63.0075 12.0987C63.2783 11.512 63.4078 10.8618 63.4078 10.1582H62.3338C62.3338 10.7282 62.2294 11.2216 62.0323 11.6486L63.0075 12.0987ZM63.4078 10.1582C63.4078 9.63049 63.3118 9.12772 63.0124 8.76415L62.1833 9.44691C62.2478 9.52519 62.3338 9.7242 62.3338 10.1582H63.4078ZM63.0332 8.79111C62.7644 8.41894 62.3758 8.21763 61.9156 8.21763V9.29164C62.0272 9.29164 62.0934 9.32426 62.1625 9.41994L63.0332 8.79111ZM61.9156 8.21763C61.5753 8.21763 61.2546 8.30927 60.9763 8.50665C60.7027 8.70062 60.5016 8.97412 60.3559 9.28986L61.331 9.73993C61.4192 9.54883 61.5137 9.4422 61.5975 9.38276C61.6766 9.32671 61.7751 9.29164 61.9156 9.29164V8.21763ZM60.3581 9.28501C60.085 9.86167 59.9555 10.5076 59.9555 11.2109H61.0295C61.0295 10.6405 61.134 10.1558 61.3287 9.74478L60.3581 9.28501ZM59.9555 11.2109C59.9555 11.7364 60.0445 12.229 60.3106 12.5974L61.1813 11.9686C61.1095 11.8692 61.0295 11.647 61.0295 11.2109H59.9555ZM60.3314 12.6244C60.6153 12.9691 61.0012 13.1514 61.4477 13.1514V12.0774C61.3225 12.0774 61.2405 12.0389 61.1605 11.9416L60.3314 12.6244ZM69.5767 20.3623C68.752 20.3623 68.1401 20.1254 67.6862 19.6921L66.9446 20.469C67.6343 21.1274 68.5299 21.4363 69.5767 21.4363V20.3623ZM67.6951 19.7009C67.2608 19.2665 67.0142 18.6437 67.0142 17.7608H65.9402C65.9402 18.8533 66.2524 19.777 66.9357 20.4603L67.6951 19.7009ZM67.0142 17.7608C67.0142 16.9974 67.157 16.3298 67.4309 15.7477L66.4591 15.2904C66.1093 16.0338 65.9402 16.8607 65.9402 17.7608H67.0142ZM67.429 15.7517C67.7129 15.1611 68.1083 14.714 68.6155 14.3943L68.0427 13.4857C67.3542 13.9198 66.8269 14.5254 66.461 15.2863L67.429 15.7517ZM68.618 14.3927C69.1317 14.0648 69.7434 13.8922 70.4734 13.8922V12.8182C69.566 12.8182 68.7481 13.0355 68.0401 13.4874L68.618 14.3927ZM70.4734 13.8922C71.2949 13.8922 71.8957 14.1333 72.3355 14.5731L73.0949 13.8137C72.4171 13.1359 71.5234 12.8182 70.4734 12.8182V13.8922ZM72.3444 14.5819C72.7863 15.0036 73.0359 15.6097 73.0359 16.4742H74.1099C74.1099 15.3893 73.7878 14.4749 73.086 13.805L72.3444 14.5819ZM73.0359 16.4742C73.0359 17.2343 72.8879 17.9072 72.6016 18.5028L73.5696 18.9682C73.933 18.2122 74.1099 17.3776 74.1099 16.4742H73.0359ZM72.598 18.5105C72.3279 19.0956 71.9343 19.5483 71.4126 19.8813L71.9904 20.7867C72.6903 20.3399 73.2194 19.727 73.5732 18.9605L72.598 18.5105ZM71.4151 19.8797C70.9159 20.1944 70.3105 20.3623 69.5767 20.3623V21.4363C70.4804 21.4363 71.2915 21.2273 71.9879 20.7883L71.4151 19.8797ZM69.7911 19.6039C70.1313 19.6039 70.4523 19.5123 70.7293 19.3122C71.0016 19.1155 71.1976 18.8388 71.3361 18.5212L70.3515 18.0921C70.269 18.2813 70.1791 18.3847 70.1005 18.4415C70.0267 18.4948 69.9318 18.5299 69.7911 18.5299V19.6039ZM71.3314 18.5317C71.6021 17.945 71.7317 17.2947 71.7317 16.5912H70.6577C70.6577 17.1612 70.5533 17.6546 70.3562 18.0816L71.3314 18.5317ZM71.7317 16.5912C71.7317 16.0696 71.6442 15.5738 71.3678 15.2123L70.5147 15.8647C70.5762 15.9451 70.6577 16.1511 70.6577 16.5912H71.7317ZM71.3766 15.2241C71.1078 14.8519 70.7192 14.6506 70.259 14.6506V15.7246C70.3706 15.7246 70.4368 15.7572 70.5059 15.8529L71.3766 15.2241ZM70.259 14.6506C69.9186 14.6506 69.598 14.7423 69.3197 14.9396C69.0461 15.1336 68.845 15.4071 68.6992 15.7228L69.6744 16.1729C69.7626 15.9818 69.8571 15.8752 69.9409 15.8157C70.02 15.7597 70.1185 15.7246 70.259 15.7246V14.6506ZM68.6992 15.7228C68.4291 16.3081 68.2989 16.9515 68.2989 17.6438H69.3729C69.3729 17.0886 69.4767 16.6013 69.6744 16.1729L68.6992 15.7228ZM68.2989 17.6438C68.2989 18.1694 68.3879 18.662 68.654 19.0304L69.5247 18.4016C69.4529 18.3022 69.3729 18.08 69.3729 17.6438H68.2989ZM68.6655 19.0457C68.9448 19.4049 69.3326 19.6039 69.7911 19.6039V18.5299C69.6779 18.5299 69.5978 18.495 69.5132 18.3863L68.6655 19.0457Z" fill="#52D62F" mask="url(#path-1-outside-1_217_5633)"/>
</g>
<g filter="url(#filter1_d_217_5633)">
<path d="M16.7606 14.6002H13.4662L12.8229 17.8167H9.8208L10.4641 14.6002H7.16963L7.73495 11.7541H11.0294L11.6727 8.5376H14.6748L14.0315 11.7541H17.3259L16.7606 14.6002ZM29.5651 8.77153L26.0756 11.91C26.9594 12.157 27.6417 12.5793 28.1225 13.1771C28.6163 13.762 28.8633 14.4767 28.8633 15.3215C28.8633 16.2702 28.5774 17.1214 28.0055 17.8752C27.4337 18.6159 26.6475 19.2008 25.6468 19.6296C24.6461 20.0585 23.5155 20.2729 22.2548 20.2729C21.2542 20.2729 20.312 20.1495 19.4282 19.9025C18.5445 19.6426 17.7778 19.2657 17.128 18.7719L18.9214 16.0232C19.4022 16.3871 19.9546 16.6665 20.5784 16.8615C21.2152 17.0564 21.8585 17.1539 22.5083 17.1539C23.301 17.1539 23.9053 17.0174 24.3212 16.7445C24.7501 16.4586 24.9645 16.0622 24.9645 15.5554C24.9645 14.7886 24.3602 14.4053 23.1516 14.4053H21.4946L21.9819 11.9685L24.906 9.33685H19.5647L20.169 6.35429H30.0329L29.5651 8.77153ZM37.8799 11.3057C38.6337 11.3057 39.342 11.4617 40.0048 11.7736C40.6676 12.0855 41.2004 12.5403 41.6033 13.1382C42.0062 13.723 42.2076 14.4248 42.2076 15.2435C42.2076 16.2572 41.9607 17.1474 41.4668 17.9142C40.973 18.6679 40.2907 19.2527 39.42 19.6686C38.5622 20.0715 37.581 20.2729 36.4764 20.2729C35.3587 20.2729 34.3711 20.065 33.5133 19.6491C32.6686 19.2202 32.0058 18.5899 31.5249 17.7582C31.0441 16.9265 30.8037 15.9128 30.8037 14.7172C30.8037 13.3136 31.1091 11.9555 31.7199 10.6429C32.3307 9.31736 33.2729 8.2257 34.5465 7.36797C35.8331 6.51024 37.4121 6.08137 39.2835 6.08137C40.1023 6.08137 40.869 6.17234 41.5838 6.35429C42.2986 6.52323 42.8834 6.76366 43.3382 7.07556L41.5838 9.8047C40.934 9.36284 40.0958 9.14191 39.0691 9.14191C38.0034 9.14191 37.1392 9.42132 36.4764 9.98015C35.8136 10.526 35.3522 11.2667 35.0923 12.2024C35.8071 11.6046 36.7363 11.3057 37.8799 11.3057ZM36.4374 17.5243C36.9962 17.5243 37.4641 17.3553 37.841 17.0174C38.2178 16.6665 38.4063 16.1987 38.4063 15.6139C38.4063 15.133 38.2503 14.7561 37.9384 14.4832C37.6265 14.2103 37.2042 14.0739 36.6713 14.0739C36.0865 14.0739 35.6057 14.2428 35.2288 14.5807C34.8519 14.9186 34.6635 15.3605 34.6635 15.9063C34.6635 16.3741 34.8194 16.764 35.1313 17.0759C35.4432 17.3748 35.8786 17.5243 36.4374 17.5243ZM48.98 20.2729C47.4075 20.2729 46.1599 19.8116 45.2372 18.8888C44.3275 17.9531 43.8726 16.66 43.8726 15.0096C43.8726 13.3461 44.178 11.8386 44.7889 10.487C45.4127 9.12242 46.2769 8.05025 47.3815 7.2705C48.4862 6.47775 49.7338 6.08137 51.1244 6.08137C52.6969 6.08137 53.938 6.54923 54.8477 7.48493C55.7704 8.40764 56.2318 9.69424 56.2318 11.3447C56.2318 13.0082 55.9199 14.5222 55.2961 15.8868C54.6852 17.2384 53.8275 18.3105 52.7229 19.1033C51.6182 19.883 50.3706 20.2729 48.98 20.2729ZM49.3504 17.1149C49.9742 17.1149 50.5136 16.8095 50.9684 16.1987C51.4233 15.5879 51.7677 14.8406 52.0016 13.9569C52.2355 13.0732 52.3525 12.2349 52.3525 11.4422C52.3525 10.6884 52.2095 10.1361 51.9236 9.78521C51.6507 9.42132 51.2608 9.23938 50.754 9.23938C50.1302 9.23938 49.5908 9.54478 49.136 10.1556C48.6811 10.7664 48.3367 11.5137 48.1028 12.3974C47.8689 13.2811 47.7519 14.1193 47.7519 14.9121C47.7519 16.3806 48.2848 17.1149 49.3504 17.1149ZM61.2333 13.7425C60.2976 13.7425 59.5438 13.4631 58.972 12.9042C58.4132 12.3454 58.1338 11.5786 58.1338 10.604C58.1338 9.77221 58.2962 9.01845 58.6211 8.34266C58.946 7.66687 59.4074 7.14054 60.0052 6.76366C60.616 6.37378 61.3243 6.17884 62.13 6.17884C63.0657 6.17884 63.813 6.45825 64.3718 7.01708C64.9436 7.5759 65.2296 8.34266 65.2296 9.31736C65.2296 10.1491 65.0671 10.9029 64.7422 11.5786C64.4303 12.2544 63.9689 12.7873 63.3581 13.1771C62.7603 13.554 62.052 13.7425 61.2333 13.7425ZM70.3175 6.35429H73.261L61.3893 20H58.4262L70.3175 6.35429ZM61.4477 11.8905C61.9286 11.8905 62.286 11.6436 62.5199 11.1498C62.7538 10.6429 62.8708 10.0711 62.8708 9.43432C62.8708 8.95347 62.7798 8.60258 62.5979 8.38165C62.4289 8.14772 62.2015 8.03076 61.9156 8.03076C61.4347 8.03076 61.0774 8.28418 60.8434 8.79102C60.6095 9.28487 60.4925 9.85019 60.4925 10.487C60.4925 10.9678 60.577 11.3252 60.746 11.5592C60.9279 11.7801 61.1618 11.8905 61.4477 11.8905ZM69.5767 20.1754C68.641 20.1754 67.8872 19.9025 67.3154 19.3567C66.7566 18.7979 66.4772 18.0246 66.4772 17.0369C66.4772 16.2052 66.6331 15.4579 66.945 14.7951C67.2699 14.1193 67.7313 13.593 68.3291 13.2161C68.9399 12.8263 69.6547 12.6313 70.4734 12.6313C71.4091 12.6313 72.1564 12.9107 72.7152 13.4696C73.287 14.0154 73.5729 14.7756 73.5729 15.7503C73.5729 16.5821 73.4105 17.3358 73.0856 18.0116C72.7737 18.6874 72.3123 19.2202 71.7015 19.6101C71.1037 19.987 70.3954 20.1754 69.5767 20.1754ZM69.7911 18.343C70.272 18.343 70.6229 18.0896 70.8438 17.5828C71.0777 17.0759 71.1947 16.5041 71.1947 15.8673C71.1947 15.3864 71.1102 15.0356 70.9413 14.8146C70.7723 14.5807 70.5449 14.4637 70.259 14.4637C69.7781 14.4637 69.4207 14.7172 69.1868 15.224C68.9529 15.7308 68.8359 16.2962 68.8359 16.92C68.8359 17.4008 68.9204 17.7582 69.0893 17.9921C69.2713 18.2261 69.5052 18.343 69.7911 18.343Z" fill="white"/>
</g>
<path d="M13.4076 44.8184H15.4821L14.7827 48.3155C14.356 48.6395 13.8581 48.8884 13.2891 49.0623C12.728 49.2282 12.1353 49.3112 11.5109 49.3112C10.6732 49.3112 9.93824 49.1611 9.30601 48.8608C8.68168 48.5525 8.19565 48.1218 7.84792 47.5686C7.50809 47.0154 7.33818 46.3792 7.33818 45.6601C7.33818 44.7038 7.55946 43.8503 8.00202 43.0995C8.44459 42.3408 9.06497 41.7481 9.86316 41.3214C10.6614 40.8946 11.5781 40.6812 12.6134 40.6812C14.2572 40.6812 15.4624 41.191 16.229 42.2104L14.5456 43.5381C14.2769 43.2062 13.9806 42.9731 13.6566 42.8387C13.3325 42.6965 12.9493 42.6254 12.5067 42.6254C11.9456 42.6254 11.4517 42.7518 11.0249 43.0047C10.606 43.2497 10.282 43.5895 10.0528 44.0242C9.82365 44.4588 9.70906 44.9528 9.70906 45.506C9.70906 46.075 9.89478 46.5294 10.2662 46.8692C10.6376 47.2011 11.1592 47.3671 11.831 47.3671C12.234 47.3671 12.6015 47.2999 12.9334 47.1656L13.4076 44.8184ZM19.7086 42.6609L19.436 44.0597H23.1227L22.7789 45.8142H19.0803L18.784 47.3315H23.1345L22.7552 49.1453H16.1049L17.7645 40.8472H24.2607L23.8932 42.6609H19.7086ZM27.1161 42.7083H24.5674L24.9468 40.8472H32.3795L32.0001 42.7083H29.4633L28.1712 49.1453H25.824L27.1161 42.7083ZM38.5649 42.6609L38.2211 43.8701H38.5767C39.5883 43.8701 40.3588 44.0676 40.8883 44.4628C41.4178 44.8579 41.6826 45.4309 41.6826 46.1817C41.6826 46.8139 41.5087 47.3671 41.161 47.8413C40.8211 48.3155 40.347 48.679 39.7384 48.9319C39.1299 49.1848 38.4384 49.3112 37.6639 49.3112C37.0554 49.3112 36.4824 49.2361 35.945 49.086C35.4076 48.9279 34.9414 48.6987 34.5462 48.3984L35.6368 46.727C35.9292 46.9483 36.2651 47.1182 36.6444 47.2367C37.0317 47.3553 37.4229 47.4145 37.818 47.4145C38.2922 47.4145 38.6597 47.3315 38.9205 47.1656C39.1813 46.9917 39.3117 46.7546 39.3117 46.4543C39.3117 46.2093 39.205 46.0236 38.9916 45.8972C38.7861 45.7628 38.4503 45.6956 37.984 45.6956H35.6013L36.9882 40.8472H42.2634L41.8959 42.6609H38.5649ZM52.9494 44.8658C53.305 45.0239 53.5777 45.2452 53.7674 45.5297C53.9649 45.8063 54.0637 46.1342 54.0637 46.5136C54.0637 47.375 53.712 48.031 53.0087 48.4814C52.3053 48.924 51.3886 49.1453 50.2585 49.1453H45.6945L47.3541 40.8472H51.5506C52.4831 40.8472 53.1944 41.0171 53.6844 41.3569C54.1823 41.6889 54.4312 42.167 54.4312 42.7913C54.4312 43.2734 54.3008 43.6922 54.04 44.0479C53.7792 44.3956 53.4157 44.6683 52.9494 44.8658ZM49.3338 42.5424L49.0138 44.1427H50.6971C51.1159 44.1427 51.4321 44.0637 51.6454 43.9056C51.8667 43.7397 51.9774 43.5026 51.9774 43.1944C51.9774 42.7597 51.6494 42.5424 50.9934 42.5424H49.3338ZM50.3889 47.4501C50.8077 47.4501 51.1357 47.3671 51.3728 47.2011C51.6099 47.0352 51.7284 46.7902 51.7284 46.4662C51.7284 46.2291 51.6415 46.0552 51.4676 45.9446C51.2938 45.826 51.0567 45.7668 50.7564 45.7668H48.6818L48.3499 47.4501H50.3889ZM57.7361 42.7083H55.1874L55.5667 40.8472H62.9994L62.6201 42.7083H60.0833L58.7911 49.1453H56.444L57.7361 42.7083ZM66.6269 49.3112C65.7892 49.3112 65.0542 49.1611 64.422 48.8608C63.7897 48.5525 63.3037 48.1218 62.9639 47.5686C62.624 47.0154 62.4541 46.3792 62.4541 45.6601C62.4541 44.7117 62.6715 43.8582 63.1061 43.0995C63.5487 42.3408 64.1651 41.7481 64.9554 41.3214C65.7457 40.8946 66.6466 40.6812 67.6582 40.6812C68.4248 40.6812 69.1044 40.8195 69.6972 41.0961C70.2899 41.3648 70.7324 41.7481 71.0249 42.246L69.3297 43.5974C68.9266 42.9494 68.3181 42.6254 67.5041 42.6254C66.9746 42.6254 66.5083 42.7518 66.1053 43.0047C65.7022 43.2497 65.3861 43.5935 65.1569 44.036C64.9356 44.4707 64.825 44.9607 64.825 45.506C64.825 46.0671 65.0068 46.5175 65.3703 46.8574C65.7338 47.1972 66.2278 47.3671 66.8521 47.3671C67.6424 47.3671 68.3181 47.047 68.8792 46.4069L70.2662 47.7702C69.8157 48.3155 69.2902 48.7106 68.6895 48.9556C68.0889 49.1927 67.4014 49.3112 66.6269 49.3112Z" fill="#45D91E"/>
<path d="M77.9395 42.6609L77.572 44.4865H81.235L80.8675 46.3002H77.2164L76.6474 49.1453H74.3002L75.9598 40.8472H82.456L82.0885 42.6609H77.9395ZM86.3175 49.3112C85.4798 49.3112 84.7487 49.1571 84.1244 48.8489C83.508 48.5407 83.0299 48.11 82.69 47.5568C82.3581 47.0036 82.1921 46.3713 82.1921 45.6601C82.1921 44.7117 82.4095 43.8582 82.8441 43.0995C83.2867 42.3408 83.8992 41.7481 84.6816 41.3214C85.4719 40.8946 86.3688 40.6812 87.3725 40.6812C88.2102 40.6812 88.9373 40.8353 89.5537 41.1436C90.1781 41.4518 90.6562 41.8825 90.9881 42.4357C91.3279 42.9889 91.4978 43.6211 91.4978 44.3324C91.4978 45.2807 91.2766 46.1342 90.834 46.8929C90.3993 47.6516 89.7869 48.2443 88.9966 48.6711C88.2142 49.0978 87.3211 49.3112 86.3175 49.3112ZM86.519 47.3671C87.0406 47.3671 87.499 47.2367 87.8941 46.9759C88.2893 46.7151 88.5935 46.3674 88.8069 45.9327C89.0203 45.4902 89.127 45.0041 89.127 44.4746C89.127 43.9135 88.9531 43.467 88.6054 43.1351C88.2655 42.7953 87.7874 42.6254 87.171 42.6254C86.6494 42.6254 86.191 42.7557 85.7959 43.0165C85.4007 43.2773 85.0965 43.629 84.8831 44.0716C84.6697 44.5062 84.563 44.9883 84.563 45.5178C84.563 46.0789 84.7329 46.5294 85.0728 46.8692C85.4205 47.2011 85.9026 47.3671 86.519 47.3671ZM100.409 43.4907C100.409 44.2494 100.207 44.9053 99.8042 45.4585C99.4012 46.0039 98.8361 46.4029 98.1091 46.6558L99.5197 49.1453H97.0659L95.833 46.9403H94.6476L94.209 49.1453H91.8618L93.5214 40.8472H97.0659C98.1249 40.8472 98.9468 41.0803 99.5316 41.5466C100.116 42.0129 100.409 42.6609 100.409 43.4907ZM98.0379 43.716C98.0379 43.3761 97.9233 43.1232 97.6942 42.9573C97.465 42.7834 97.1449 42.6965 96.734 42.6965H95.5011L95.0032 45.1266H96.402C96.9236 45.1266 97.3267 45.0041 97.6112 44.7591C97.8957 44.5141 98.0379 44.1664 98.0379 43.716ZM107.726 42.6609L107.358 44.4865H111.021L110.654 46.3002H107.003L106.434 49.1453H104.087L105.746 40.8472H112.242L111.875 42.6609H107.726ZM120.239 43.4907C120.239 44.2494 120.038 44.9053 119.635 45.4585C119.232 46.0039 118.667 46.4029 117.94 46.6558L119.35 49.1453H116.897L115.664 46.9403H114.478L114.04 49.1453H111.692L113.352 40.8472H116.897C117.955 40.8472 118.777 41.0803 119.362 41.5466C119.947 42.0129 120.239 42.6609 120.239 43.4907ZM117.869 43.716C117.869 43.3761 117.754 43.1232 117.525 42.9573C117.296 42.7834 116.976 42.6965 116.565 42.6965H115.332L114.834 45.1266H116.233C116.754 45.1266 117.157 45.0041 117.442 44.7591C117.726 44.5141 117.869 44.1664 117.869 43.716ZM124.071 42.6609L123.799 44.0597H127.485L127.141 45.8142H123.443L123.147 47.3315H127.497L127.118 49.1453H120.467L122.127 40.8472H128.623L128.256 42.6609H124.071ZM132.036 42.6609L131.763 44.0597H135.45L135.106 45.8142H131.408L131.111 47.3315H135.462L135.082 49.1453H128.432L130.092 40.8472H136.588L136.22 42.6609H132.036Z" fill="white"/>
<path d="M8.98036 27.4615H12.5841C13.4376 27.4615 14.1765 27.6037 14.8009 27.8882C15.4252 28.1648 15.9033 28.5679 16.2352 29.0974C16.5751 29.6189 16.745 30.2354 16.745 30.9466C16.745 31.9108 16.5237 32.7564 16.0811 33.4835C15.6465 34.2105 15.038 34.7717 14.2556 35.1668C13.4732 35.5619 12.5762 35.7595 11.5646 35.7595H7.32075L8.98036 27.4615ZM11.6357 33.8865C12.2048 33.8865 12.6947 33.768 13.1057 33.5309C13.5245 33.2859 13.8407 32.954 14.054 32.5351C14.2674 32.1084 14.3741 31.6263 14.3741 31.0889C14.3741 30.5278 14.2002 30.0971 13.8525 29.7968C13.5048 29.4886 12.995 29.3344 12.3233 29.3344H10.9482L10.0473 33.8865H11.6357ZM20.7182 29.2752L20.4456 30.674H24.1323L23.7885 32.4284H20.09L19.7936 33.9458H24.1442L23.7648 35.7595H17.1145L18.7741 27.4615H25.2703L24.9028 29.2752H20.7182ZM30.2477 27.4615C31.3225 27.4615 32.1523 27.6946 32.7371 28.1609C33.3219 28.6271 33.6143 29.2831 33.6143 30.1287C33.6143 30.8241 33.4444 31.4327 33.1046 31.9543C32.7727 32.4759 32.2945 32.8789 31.6702 33.1634C31.0538 33.4479 30.3346 33.5902 29.5127 33.5902H27.8531L27.4263 35.7595H25.0792L26.7388 27.4615H30.2477ZM29.6194 31.7409C30.141 31.7409 30.5401 31.6184 30.8167 31.3734C31.1012 31.1284 31.2435 30.7807 31.2435 30.3302C31.2435 29.9904 31.1289 29.7375 30.8997 29.5715C30.6784 29.3977 30.3583 29.3107 29.9395 29.3107H28.7066L28.2206 31.7409H29.6194ZM38.3004 35.9255C37.4627 35.9255 36.7317 35.7714 36.1074 35.4632C35.4909 35.1549 35.0128 34.7242 34.673 34.171C34.3411 33.6178 34.1751 32.9856 34.1751 32.2743C34.1751 31.326 34.3924 30.4725 34.8271 29.7138C35.2697 28.9551 35.8821 28.3624 36.6645 27.9356C37.4548 27.5089 38.3518 27.2955 39.3555 27.2955C40.1932 27.2955 40.9202 27.4496 41.5367 27.7578C42.161 28.066 42.6391 28.4967 42.9711 29.0499C43.3109 29.6031 43.4808 30.2354 43.4808 30.9466C43.4808 31.895 43.2595 32.7485 42.8169 33.5072C42.3823 34.2659 41.7698 34.8586 40.9795 35.2853C40.1971 35.7121 39.3041 35.9255 38.3004 35.9255ZM38.5019 33.9814C39.0235 33.9814 39.4819 33.851 39.8771 33.5902C40.2722 33.3294 40.5765 32.9816 40.7898 32.547C41.0032 32.1044 41.1099 31.6184 41.1099 31.0889C41.1099 30.5278 40.9361 30.0813 40.5883 29.7493C40.2485 29.4095 39.7704 29.2396 39.1539 29.2396C38.6323 29.2396 38.174 29.37 37.7788 29.6308C37.3837 29.8916 37.0794 30.2433 36.866 30.6858C36.6527 31.1205 36.546 31.6026 36.546 32.1321C36.546 32.6932 36.7159 33.1437 37.0557 33.4835C37.4034 33.8154 37.8855 33.9814 38.5019 33.9814ZM46.9388 35.9255C46.2512 35.9255 45.5992 35.8425 44.9828 35.6765C44.3664 35.5106 43.8645 35.2972 43.4773 35.0364L44.4019 33.282C44.8208 33.5507 45.2673 33.7561 45.7415 33.8984C46.2156 34.0327 46.6898 34.0999 47.164 34.0999C47.6145 34.0999 47.9622 34.0367 48.2072 33.9102C48.4601 33.7759 48.5865 33.5941 48.5865 33.3649C48.5865 33.1674 48.4719 33.0133 48.2427 32.9026C48.0215 32.792 47.6737 32.6734 47.1996 32.547C46.6622 32.4047 46.2156 32.2625 45.86 32.1202C45.5044 31.9701 45.1962 31.7448 44.9354 31.4445C44.6825 31.1442 44.556 30.7491 44.556 30.2591C44.556 29.6664 44.718 29.1487 45.0421 28.7062C45.3661 28.2557 45.8284 27.908 46.429 27.663C47.0296 27.418 47.733 27.2955 48.5391 27.2955C49.1318 27.2955 49.685 27.3587 50.1987 27.4852C50.7124 27.6037 51.155 27.7776 51.5264 28.0068L50.6729 29.7493C50.3489 29.5439 49.9893 29.3898 49.5941 29.287C49.2069 29.1764 48.8078 29.1211 48.3968 29.1211C47.9306 29.1211 47.5631 29.1961 47.2944 29.3463C47.0336 29.4965 46.9032 29.6901 46.9032 29.9272C46.9032 30.1326 47.0178 30.2907 47.247 30.4013C47.4762 30.512 47.8318 30.6305 48.3139 30.757C48.8513 30.8913 49.2938 31.0296 49.6416 31.1719C49.9972 31.3141 50.3014 31.5315 50.5543 31.8239C50.8072 32.1163 50.9337 32.4996 50.9337 32.9737C50.9337 33.5586 50.7677 34.0762 50.4358 34.5267C50.1118 34.9692 49.6455 35.313 49.037 35.558C48.4364 35.803 47.737 35.9255 46.9388 35.9255ZM53.1796 27.4615H55.5268L53.8672 35.7595H51.52L53.1796 27.4615ZM58.5837 29.3226H56.035L56.4143 27.4615H63.847L63.4677 29.3226H60.9308L59.6387 35.7595H57.2915L58.5837 29.3226ZM73.7665 31.4801C74.1222 31.6381 74.3948 31.8594 74.5845 32.1439C74.7821 32.4205 74.8808 32.7485 74.8808 33.1278C74.8808 33.9893 74.5292 34.6452 73.8258 35.0957C73.1224 35.5382 72.2057 35.7595 71.0756 35.7595H66.5116L68.1713 27.4615H72.3677C73.3003 27.4615 74.0115 27.6314 74.5015 27.9712C74.9994 28.3031 75.2483 28.7812 75.2483 29.4056C75.2483 29.8876 75.1179 30.3065 74.8571 30.6621C74.5963 31.0099 74.2328 31.2825 73.7665 31.4801ZM70.1509 29.1566L69.8309 30.757H71.5142C71.933 30.757 72.2492 30.6779 72.4625 30.5199C72.6838 30.3539 72.7945 30.1168 72.7945 29.8086C72.7945 29.374 72.4665 29.1566 71.8106 29.1566H70.1509ZM71.206 34.0643C71.6248 34.0643 71.9528 33.9814 72.1899 33.8154C72.427 33.6494 72.5455 33.4045 72.5455 33.0804C72.5455 32.8433 72.4586 32.6695 72.2847 32.5588C72.1109 32.4403 71.8738 32.381 71.5735 32.381H69.4989L69.167 34.0643H71.206ZM80.1034 35.9255C79.2656 35.9255 78.5346 35.7714 77.9103 35.4632C77.2939 35.1549 76.8157 34.7242 76.4759 34.171C76.144 33.6178 75.978 32.9856 75.978 32.2743C75.978 31.326 76.1954 30.4725 76.63 29.7138C77.0726 28.9551 77.6851 28.3624 78.4674 27.9356C79.2577 27.5089 80.1547 27.2955 81.1584 27.2955C81.9961 27.2955 82.7232 27.4496 83.3396 27.7578C83.9639 28.066 84.4421 28.4967 84.774 29.0499C85.1138 29.6031 85.2837 30.2354 85.2837 30.9466C85.2837 31.895 85.0624 32.7485 84.6199 33.5072C84.1852 34.2659 83.5727 34.8586 82.7824 35.2853C82.0001 35.7121 81.107 35.9255 80.1034 35.9255ZM80.3049 33.9814C80.8265 33.9814 81.2848 33.851 81.68 33.5902C82.0751 33.3294 82.3794 32.9816 82.5928 32.547C82.8062 32.1044 82.9128 31.6184 82.9128 31.0889C82.9128 30.5278 82.739 30.0813 82.3912 29.7493C82.0514 29.4095 81.5733 29.2396 80.9569 29.2396C80.4353 29.2396 79.9769 29.37 79.5818 29.6308C79.1866 29.8916 78.8824 30.2433 78.669 30.6858C78.4556 31.1205 78.3489 31.6026 78.3489 32.1321C78.3489 32.6932 78.5188 33.1437 78.8586 33.4835C79.2064 33.8154 79.6884 33.9814 80.3049 33.9814ZM95.1905 27.4615L93.5308 35.7595H91.5986L88.8602 31.2074L87.9474 35.7595H85.6477L87.3073 27.4615H89.2396L91.9898 32.0017L92.8907 27.4615H95.1905ZM99.2407 35.9255C98.5215 35.9255 97.9011 35.8069 97.3795 35.5699C96.858 35.3249 96.4589 34.9771 96.1823 34.5267C95.9056 34.0762 95.7673 33.5467 95.7673 32.9382C95.7673 32.6853 95.799 32.3929 95.8622 32.061L96.7868 27.4615H99.134L98.2212 32.0254C98.1738 32.2625 98.1501 32.4798 98.1501 32.6774C98.1501 33.5467 98.6084 33.9814 99.5252 33.9814C100.023 33.9814 100.414 33.8312 100.699 33.5309C100.991 33.2227 101.209 32.7208 101.351 32.0254L102.264 27.4615H104.575L103.639 32.1676C103.133 34.6729 101.667 35.9255 99.2407 35.9255ZM107.611 35.9255C106.924 35.9255 106.272 35.8425 105.655 35.6765C105.039 35.5106 104.537 35.2972 104.15 35.0364L105.075 33.282C105.493 33.5507 105.94 33.7561 106.414 33.8984C106.888 34.0327 107.363 34.0999 107.837 34.0999C108.287 34.0999 108.635 34.0367 108.88 33.9102C109.133 33.7759 109.259 33.5941 109.259 33.3649C109.259 33.1674 109.145 33.0133 108.915 32.9026C108.694 32.792 108.346 32.6734 107.872 32.547C107.335 32.4047 106.888 32.2625 106.533 32.1202C106.177 31.9701 105.869 31.7448 105.608 31.4445C105.355 31.1442 105.229 30.7491 105.229 30.2591C105.229 29.6664 105.391 29.1487 105.715 28.7062C106.039 28.2557 106.501 27.908 107.102 27.663C107.702 27.418 108.406 27.2955 109.212 27.2955C109.805 27.2955 110.358 27.3587 110.871 27.4852C111.385 27.6037 111.828 27.7776 112.199 28.0068L111.346 29.7493C111.022 29.5439 110.662 29.3898 110.267 29.287C109.88 29.1764 109.48 29.1211 109.07 29.1211C108.603 29.1211 108.236 29.1961 107.967 29.3463C107.706 29.4965 107.576 29.6901 107.576 29.9272C107.576 30.1326 107.69 30.2907 107.92 30.4013C108.149 30.512 108.504 30.6305 108.987 30.757C109.524 30.8913 109.967 31.0296 110.314 31.1719C110.67 31.3141 110.974 31.5315 111.227 31.8239C111.48 32.1163 111.606 32.4996 111.606 32.9737C111.606 33.5586 111.44 34.0762 111.108 34.5267C110.784 34.9692 110.318 35.313 109.71 35.558C109.109 35.803 108.41 35.9255 107.611 35.9255Z" fill="#45D91E"/>
<defs>
<filter id="filter0_d_217_5633" x="0.725346" y="0.361088" width="79.2915" height="27.0798" filterUnits="userSpaceOnUse" color-interpolation-filters="sRGB">
<feFlood flood-opacity="0" result="BackgroundImageFix"/>
<feColorMatrix in="SourceAlpha" type="matrix" values="0 0 0 0 0 0 0 0 0 0 0 0 0 0 0 0 0 0 127 0" result="hardAlpha"/>
<feOffset/>
<feGaussianBlur stdDeviation="3.22204"/>
<feComposite in2="hardAlpha" operator="out"/>
<feColorMatrix type="matrix" values="0 0 0 0 0.321569 0 0 0 0 0.843137 0 0 0 0 0.184314 0 0 0 1 0"/>
<feBlend mode="normal" in2="BackgroundImageFix" result="effect1_dropShadow_217_5633"/>
<feBlend mode="normal" in="SourceGraphic" in2="effect1_dropShadow_217_5633" result="shape"/>
</filter>
<filter id="filter1_d_217_5633" x="3.41038" y="2.32225" width="73.9214" height="21.7097" filterUnits="userSpaceOnUse" color-interpolation-filters="sRGB">
<feFlood flood-opacity="0" result="BackgroundImageFix"/>
<feColorMatrix in="SourceAlpha" type="matrix" values="0 0 0 0 0 0 0 0 0 0 0 0 0 0 0 0 0 0 127 0" result="hardAlpha"/>
<feOffset/>
<feGaussianBlur stdDeviation="1.87952"/>
<feComposite in2="hardAlpha" operator="out"/>
<feColorMatrix type="matrix" values="0 0 0 0 0.321569 0 0 0 0 0.839216 0 0 0 0 0.184314 0 0 0 1 0"/>
<feBlend mode="normal" in2="BackgroundImageFix" result="effect1_dropShadow_217_5633"/>
<feBlend mode="normal" in="SourceGraphic" in2="effect1_dropShadow_217_5633" result="shape"/>
</filter>
</defs>
</svg>
