<svg width="131" height="43" viewBox="0 0 131 43" fill="none" xmlns="http://www.w3.org/2000/svg">
<path d="M3.34928 2.45835H6.33106L4.22273 13H1.24095L3.34928 2.45835ZM18.467 2.45835L16.3587 13H13.904L10.4252 7.21715L9.26567 13H6.34412L8.45245 2.45835H10.9072L14.401 8.22614L15.5455 2.45835H18.467ZM31.2331 2.45835L24.622 13H21.6854L19.2909 2.45835H22.348L23.854 9.31042L28.161 2.45835H31.2331ZM31.8653 2.45835H34.8471L32.7387 13H29.7569L31.8653 2.45835ZM38.7304 4.82269H35.4926L35.9745 2.45835H45.4168L44.9349 4.82269H41.7122L40.0707 13H37.0889L38.7304 4.82269ZM48.9975 4.76245L48.6511 6.53947H53.3346L52.8979 8.76828H48.1993L47.8228 10.6959H53.3497L52.8678 13H44.4194L46.5277 2.45835H54.7803L54.3135 4.76245H48.9975ZM63.5433 4.76245L63.0765 7.08161H67.7298L67.263 9.38572H62.6247L61.9018 13H58.92L61.0284 2.45835H69.281L68.8141 4.76245H63.5433ZM79.4401 5.81662C79.4401 6.78042 79.1841 7.61372 78.6721 8.31649C78.1601 9.00923 77.4422 9.51623 76.5186 9.8375L78.3107 13H75.1934L73.6272 10.1989H72.1212L71.564 13H68.5822L70.6906 2.45835H75.1934C76.5387 2.45835 77.5828 2.75452 78.3257 3.34686C79.0687 3.9392 79.4401 4.76245 79.4401 5.81662ZM76.4282 6.10275C76.4282 5.67104 76.2827 5.34977 75.9915 5.13894C75.7004 4.91807 75.2937 4.80763 74.7717 4.80763H73.2055L72.573 7.89483H74.35C75.0126 7.89483 75.5247 7.73921 75.8861 7.42798C76.2475 7.11675 76.4282 6.67501 76.4282 6.10275ZM81.8381 2.45835H84.8199L82.7116 13H79.7298L81.8381 2.45835ZM89.4111 4.76245L89.0647 6.53947H93.7482L93.3115 8.76828H88.6129L88.2364 10.6959H93.7633L93.2814 13H84.833L86.9413 2.45835H95.1939L94.7271 4.76245H89.4111ZM107.074 2.45835L104.966 13H102.511L99.0322 7.21715L97.8726 13H94.9511L97.0594 2.45835H99.5141L103.008 8.22614L104.152 2.45835H107.074ZM109.192 2.45835H113.77C114.855 2.45835 115.793 2.63906 116.587 3.00049C117.38 3.35188 117.987 3.8639 118.409 4.53656C118.84 5.19918 119.056 5.98227 119.056 6.88584C119.056 8.11068 118.775 9.18493 118.213 10.1086C117.661 11.0322 116.888 11.745 115.894 12.247C114.9 12.749 113.76 13 112.475 13H107.084L109.192 2.45835ZM112.566 10.6206C113.288 10.6206 113.911 10.47 114.433 10.1688C114.965 9.85758 115.367 9.43592 115.638 8.90381C115.909 8.36167 116.044 7.74925 116.044 7.06655C116.044 6.35374 115.824 5.80658 115.382 5.42507C114.94 5.03352 114.292 4.83775 113.439 4.83775H111.692L110.548 10.6206H112.566ZM123.456 13.2108C122.583 13.2108 121.755 13.1054 120.971 12.8946C120.188 12.6838 119.551 12.4127 119.059 12.0814L120.234 9.85256C120.766 10.1939 121.333 10.4549 121.935 10.6357C122.538 10.8063 123.14 10.8917 123.742 10.8917C124.315 10.8917 124.756 10.8114 125.068 10.6507C125.389 10.48 125.55 10.2491 125.55 9.95798C125.55 9.70699 125.404 9.51121 125.113 9.37066C124.832 9.2301 124.39 9.07951 123.788 8.91887C123.105 8.73816 122.538 8.55745 122.086 8.37673C121.634 8.18598 121.242 7.89985 120.911 7.51834C120.59 7.13683 120.429 6.63485 120.429 6.01239C120.429 5.25941 120.635 4.60182 121.047 4.03959C121.458 3.46733 122.046 3.02559 122.809 2.71436C123.572 2.40313 124.465 2.24751 125.489 2.24751C126.242 2.24751 126.945 2.32783 127.598 2.48847C128.25 2.63906 128.812 2.85993 129.284 3.15108L128.2 5.36483C127.788 5.1038 127.332 4.90803 126.83 4.77751C126.338 4.63696 125.831 4.56668 125.309 4.56668C124.716 4.56668 124.249 4.66205 123.908 4.85281C123.577 5.04356 123.411 5.28953 123.411 5.59072C123.411 5.85175 123.557 6.05255 123.848 6.1931C124.139 6.33366 124.591 6.48425 125.203 6.64489C125.886 6.81556 126.448 6.99126 126.89 7.17197C127.342 7.35269 127.728 7.62878 128.049 8.00024C128.371 8.37171 128.531 8.85864 128.531 9.46102C128.531 10.204 128.32 10.8616 127.899 11.4338C127.487 11.996 126.895 12.4328 126.122 12.744C125.359 13.0552 124.47 13.2108 123.456 13.2108ZM11.9784 23.0304C11.5969 23.954 11.12 24.7722 10.5477 25.4851L11.4212 26.4338L9.52368 28.1807L8.62011 27.2018C7.53583 27.8745 6.3662 28.2108 5.11124 28.2108C4.35827 28.2108 3.68561 28.1004 3.09327 27.8795C2.51097 27.6587 2.04915 27.3424 1.7078 26.9308C1.37649 26.5091 1.21083 26.0222 1.21083 25.47C1.21083 24.7371 1.45179 24.1046 1.93369 23.5725C2.41559 23.0304 3.10331 22.5434 3.99684 22.1117C3.60529 21.5796 3.40952 21.0174 3.40952 20.4251C3.40952 19.7926 3.5802 19.2404 3.92154 18.7685C4.26289 18.2967 4.7197 17.9352 5.29196 17.6842C5.87426 17.4332 6.50676 17.3078 7.18946 17.3078C8.10307 17.3078 8.84098 17.5085 9.4032 17.9101C9.97546 18.3017 10.2616 18.8539 10.2616 19.5667C10.2616 20.1992 10.0457 20.7514 9.61404 21.2232C9.19237 21.685 8.57995 22.1117 7.77678 22.5033L9.02672 23.8586C9.35803 23.3567 9.61906 22.8496 9.80981 22.3376L11.9784 23.0304ZM7.08404 19.1902C6.77281 19.1902 6.5168 19.2805 6.31601 19.4613C6.12525 19.6319 6.02987 19.8578 6.02987 20.1389C6.02987 20.2795 6.06501 20.4251 6.13529 20.5757C6.20557 20.7162 6.32605 20.8919 6.49672 21.1027C7.01878 20.8718 7.37519 20.656 7.56594 20.4552C7.7567 20.2544 7.85207 20.0385 7.85207 19.8076C7.85207 19.6269 7.7818 19.4813 7.64124 19.3709C7.50069 19.2504 7.31495 19.1902 7.08404 19.1902ZM5.56303 26.0272C6.08509 26.0272 6.6172 25.8866 7.15934 25.6055L5.2769 23.5574C4.88535 23.7683 4.58416 23.9892 4.37333 24.2201C4.17254 24.4409 4.07214 24.6969 4.07214 24.9881C4.07214 25.2993 4.19763 25.5503 4.44863 25.7411C4.70966 25.9318 5.08113 26.0272 5.56303 26.0272ZM25.1098 22.5033H27.7452L26.8567 26.9458C26.3146 27.3575 25.6821 27.6737 24.9592 27.8946C24.2464 28.1054 23.4934 28.2108 22.7003 28.2108C21.6361 28.2108 20.7024 28.0201 19.8992 27.6386C19.1061 27.247 18.4886 26.6999 18.0469 25.9971C17.6152 25.2943 17.3993 24.4861 17.3993 23.5725C17.3993 22.3577 17.6804 21.2734 18.2427 20.3197C18.8049 19.3558 19.593 18.6029 20.607 18.0607C21.621 17.5186 22.7856 17.2475 24.1008 17.2475C26.1891 17.2475 27.7201 17.8951 28.694 19.1902L26.5555 20.8769C26.2142 20.4552 25.8377 20.159 25.426 19.9883C25.0144 19.8076 24.5275 19.7173 23.9653 19.7173C23.2525 19.7173 22.625 19.8779 22.0828 20.1992C21.5507 20.5104 21.1391 20.9421 20.848 21.4943C20.5568 22.0465 20.4112 22.674 20.4112 23.3767C20.4112 24.0996 20.6472 24.6769 21.119 25.1086C21.5909 25.5302 22.2535 25.7411 23.1069 25.7411C23.6189 25.7411 24.0857 25.6557 24.5074 25.4851L25.1098 22.5033ZM33.1144 19.7625L32.768 21.5395H37.4515L37.0148 23.7683H32.3162L31.9398 25.6959H37.4666L36.9847 28H28.5363L30.6446 17.4583H38.8972L38.4304 19.7625H33.1144ZM42.5247 19.8227H39.2869L39.7688 17.4583H49.2111L48.7292 19.8227H45.5065L43.865 28H40.8832L42.5247 19.8227ZM66.9329 17.4583L64.8547 28H62.0988L63.183 22.443L59.6742 26.9609H58.364L56.4514 22.443L55.337 28H52.5962L54.7045 17.4583H57.1291L59.5989 23.5574L64.3878 17.4583H66.9329ZM72.657 28.2108C71.5928 28.2108 70.6641 28.0151 69.871 27.6235C69.0879 27.232 68.4805 26.6848 68.0488 25.982C67.6271 25.2792 67.4163 24.4761 67.4163 23.5725C67.4163 22.3677 67.6924 21.2835 68.2446 20.3197C68.8068 19.3558 69.5849 18.6029 70.5788 18.0607C71.5828 17.5186 72.7223 17.2475 73.9973 17.2475C75.0615 17.2475 75.9852 17.4433 76.7682 17.8348C77.5614 18.2264 78.1688 18.7735 78.5904 19.4763C79.0222 20.1791 79.238 20.9823 79.238 21.8858C79.238 23.0906 78.9569 24.1749 78.3947 25.1387C77.8425 26.1025 77.0644 26.8555 76.0604 27.3976C75.0665 27.9398 73.932 28.2108 72.657 28.2108ZM72.913 25.7411C73.5756 25.7411 74.1579 25.5754 74.6599 25.2441C75.1619 24.9128 75.5484 24.4711 75.8195 23.9189C76.0906 23.3567 76.2261 22.7392 76.2261 22.0666C76.2261 21.3537 76.0052 20.7865 75.5635 20.3648C75.1318 19.9331 74.5244 19.7173 73.7413 19.7173C73.0787 19.7173 72.4964 19.8829 71.9944 20.2142C71.4924 20.5455 71.1059 20.9923 70.8348 21.5545C70.5637 22.1067 70.4282 22.7191 70.4282 23.3918C70.4282 24.1046 70.644 24.6769 71.0758 25.1086C71.5175 25.5302 72.1299 25.7411 72.913 25.7411ZM91.8233 17.4583L89.715 28H87.2603L83.7815 22.2172L82.6219 28H79.7004L81.8087 17.4583H84.2634L87.7572 23.2261L88.9017 17.4583H91.8233ZM96.4114 19.7625L96.065 21.5395H100.749L100.312 23.7683H95.6132L95.2367 25.6959H100.764L100.282 28H91.8333L93.9416 17.4583H102.194L101.727 19.7625H96.4114ZM108.248 24.2652L107.51 28H104.529L105.282 24.1899L102.601 17.4583H105.598L107.254 21.6599L110.628 17.4583H113.655L108.248 24.2652Z" fill="white"/>
<path d="M3.58478 35.2926C3.58478 35.4561 3.67597 35.5818 3.85835 35.6699C4.04073 35.7579 4.32688 35.8523 4.7168 35.9529C5.14445 36.0598 5.49664 36.1699 5.77335 36.2831C6.05636 36.3963 6.29848 36.5692 6.49973 36.8019C6.70098 37.0346 6.8016 37.3396 6.8016 37.717C6.8016 38.3459 6.56891 38.8679 6.10353 39.2829C5.63814 39.698 5.00295 39.9496 4.19796 40.0376L3.99042 41.0659H2.8584L3.06594 40.0376C2.61942 39.9999 2.2012 39.9213 1.81128 39.8018C1.42765 39.676 1.11006 39.5251 0.858497 39.349L1.60374 37.9622C1.93706 38.1761 2.28925 38.3396 2.6603 38.4528C3.03764 38.5597 3.41812 38.6131 3.80175 38.6131C4.16022 38.6131 4.43694 38.5628 4.6319 38.4622C4.83315 38.3553 4.93377 38.2107 4.93377 38.0283C4.93377 37.871 4.84258 37.7484 4.6602 37.6604C4.48411 37.5723 4.20425 37.478 3.82062 37.3774C3.39297 37.2642 3.03764 37.1478 2.75463 37.0283C2.47163 36.9088 2.22636 36.7327 2.01882 36.5C1.81757 36.2611 1.71695 35.9466 1.71695 35.5567C1.71695 34.9026 1.95907 34.3681 2.44333 33.953C2.92758 33.5316 3.59107 33.2864 4.4338 33.2172L4.6319 32.1984H5.76392L5.55638 33.2361C6.25446 33.3115 6.82676 33.4908 7.27328 33.7738L6.58463 35.1511C6.33307 34.9875 6.05007 34.8649 5.73562 34.7831C5.42746 34.6951 5.10986 34.6511 4.78283 34.6511C4.41178 34.6511 4.11935 34.7108 3.90552 34.8303C3.69798 34.9498 3.59107 35.1039 3.58478 35.2926ZM10.987 33.3304L9.66629 39.9338H7.79846L8.82671 34.7737H7.60036L7.8928 33.3304H10.987ZM13.7064 40.0659C12.9454 40.0659 12.3417 39.8426 11.8952 39.3961C11.455 38.9433 11.2348 38.3176 11.2348 37.5189C11.2348 36.7139 11.3826 35.9843 11.6782 35.3303C11.9801 34.6699 12.3983 34.1511 12.9329 33.7738C13.4674 33.3901 14.0712 33.1983 14.7441 33.1983C15.5051 33.1983 16.1057 33.4247 16.5459 33.8775C16.9924 34.324 17.2157 34.9467 17.2157 35.7454C17.2157 36.5504 17.0647 37.283 16.7629 37.9434C16.4673 38.5974 16.0522 39.1163 15.5176 39.4999C14.9831 39.8772 14.3793 40.0659 13.7064 40.0659ZM13.8856 38.5377C14.1875 38.5377 14.4485 38.3899 14.6686 38.0943C14.8887 37.7987 15.0554 37.4371 15.1686 37.0095C15.2818 36.5818 15.3384 36.1762 15.3384 35.7925C15.3384 35.4278 15.2692 35.1605 15.1309 34.9907C14.9988 34.8146 14.8101 34.7265 14.5649 34.7265C14.263 34.7265 14.002 34.8743 13.7819 35.1699C13.5618 35.4655 13.3951 35.8271 13.2819 36.2548C13.1687 36.6824 13.1121 37.0881 13.1121 37.4717C13.1121 38.1824 13.37 38.5377 13.8856 38.5377ZM20.1643 40.0659C19.4033 40.0659 18.7996 39.8426 18.3531 39.3961C17.9128 38.9433 17.6927 38.3176 17.6927 37.5189C17.6927 36.7139 17.8405 35.9843 18.1361 35.3303C18.438 34.6699 18.8562 34.1511 19.3908 33.7738C19.9253 33.3901 20.5291 33.1983 21.202 33.1983C21.963 33.1983 22.5636 33.4247 23.0038 33.8775C23.4503 34.324 23.6736 34.9467 23.6736 35.7454C23.6736 36.5504 23.5226 37.283 23.2208 37.9434C22.9252 38.5974 22.5101 39.1163 21.9755 39.4999C21.441 39.8772 20.8372 40.0659 20.1643 40.0659ZM20.3435 38.5377C20.6454 38.5377 20.9064 38.3899 21.1265 38.0943C21.3466 37.7987 21.5133 37.4371 21.6265 37.0095C21.7397 36.5818 21.7963 36.1762 21.7963 35.7925C21.7963 35.4278 21.7271 35.1605 21.5888 34.9907C21.4567 34.8146 21.268 34.7265 21.0228 34.7265C20.7209 34.7265 20.4599 34.8743 20.2398 35.1699C20.0197 35.4655 19.853 35.8271 19.7398 36.2548C19.6266 36.6824 19.57 37.0881 19.57 37.4717C19.57 38.1824 19.8278 38.5377 20.3435 38.5377ZM26.6222 40.0659C25.8612 40.0659 25.2575 39.8426 24.811 39.3961C24.3707 38.9433 24.1506 38.3176 24.1506 37.5189C24.1506 36.7139 24.2984 35.9843 24.594 35.3303C24.8959 34.6699 25.3141 34.1511 25.8487 33.7738C26.3832 33.3901 26.987 33.1983 27.6599 33.1983C28.4209 33.1983 29.0215 33.4247 29.4617 33.8775C29.9082 34.324 30.1315 34.9467 30.1315 35.7454C30.1315 36.5504 29.9805 37.283 29.6787 37.9434C29.3831 38.5974 28.968 39.1163 28.4334 39.4999C27.8989 39.8772 27.2951 40.0659 26.6222 40.0659ZM26.8014 38.5377C27.1033 38.5377 27.3643 38.3899 27.5844 38.0943C27.8045 37.7987 27.9712 37.4371 28.0844 37.0095C28.1976 36.5818 28.2542 36.1762 28.2542 35.7925C28.2542 35.4278 28.185 35.1605 28.0467 34.9907C27.9146 34.8146 27.7259 34.7265 27.4807 34.7265C27.1788 34.7265 26.9178 34.8743 26.6977 35.1699C26.4776 35.4655 26.3109 35.8271 26.1977 36.2548C26.0845 36.6824 26.0279 37.0881 26.0279 37.4717C26.0279 38.1824 26.2857 38.5377 26.8014 38.5377ZM38.1743 37.3208H36.5801L36.2688 38.8773H34.816L35.1273 37.3208H33.5331L33.8066 35.9435H35.4009L35.7122 34.3869H37.165L36.8537 35.9435H38.4479L38.1743 37.3208ZM45.423 33.3304L44.1023 39.9338H42.2344L43.2627 34.7737H42.0363L42.3288 33.3304H45.423ZM48.2367 34.7737L47.9631 35.7359H48.2462C49.0511 35.7359 49.6643 35.8932 50.0857 36.2076C50.5071 36.5221 50.7177 36.978 50.7177 37.5755C50.7177 38.0786 50.5794 38.5188 50.3027 38.8962C50.0322 39.2735 49.6549 39.5628 49.1706 39.764C48.6864 39.9653 48.1361 40.0659 47.5198 40.0659C47.0355 40.0659 46.5796 40.0062 46.1519 39.8867C45.7243 39.7609 45.3532 39.5785 45.0388 39.3395L45.9066 38.0094C46.1393 38.1855 46.4066 38.3207 46.7085 38.415C47.0167 38.5094 47.328 38.5565 47.6424 38.5565C48.0198 38.5565 48.3122 38.4905 48.5197 38.3584C48.7273 38.2201 48.831 38.0314 48.831 37.7924C48.831 37.5975 48.7461 37.4497 48.5763 37.3491C48.4128 37.2421 48.1455 37.1887 47.7745 37.1887H45.8783L46.9821 33.3304H51.18L50.8875 34.7737H48.2367ZM53.0634 36.9057C52.6106 36.9057 52.2459 36.7705 51.9691 36.5C51.6987 36.2296 51.5635 35.8586 51.5635 35.3869C51.5635 34.9844 51.6421 34.6196 51.7993 34.2926C51.9566 33.9656 52.1798 33.7109 52.4691 33.5285C52.7647 33.3398 53.1075 33.2455 53.4974 33.2455C53.9502 33.2455 54.3118 33.3807 54.5822 33.6511C54.8589 33.9216 54.9973 34.2926 54.9973 34.7643C54.9973 35.1668 54.9187 35.5315 54.7615 35.8586C54.6105 36.1856 54.3873 36.4434 54.0917 36.6321C53.8024 36.8145 53.4596 36.9057 53.0634 36.9057ZM57.4594 33.3304H58.8839L53.1389 39.9338H51.705L57.4594 33.3304ZM53.1672 36.0095C53.3999 36.0095 53.5728 35.89 53.686 35.651C53.7992 35.4058 53.8558 35.129 53.8558 34.8209C53.8558 34.5882 53.8118 34.4184 53.7238 34.3115C53.642 34.1983 53.532 34.1417 53.3936 34.1417C53.1609 34.1417 52.988 34.2643 52.8748 34.5096C52.7616 34.7486 52.705 35.0221 52.705 35.3303C52.705 35.563 52.7458 35.7359 52.8276 35.8491C52.9156 35.956 53.0288 36.0095 53.1672 36.0095ZM57.101 40.0187C56.6482 40.0187 56.2834 39.8867 56.0067 39.6225C55.7363 39.3521 55.601 38.9779 55.601 38.4999C55.601 38.0974 55.6765 37.7358 55.8274 37.4151C55.9847 37.0881 56.2079 36.8334 56.4972 36.651C56.7928 36.4623 57.1387 36.368 57.5349 36.368C57.9877 36.368 58.3493 36.5032 58.6198 36.7736C58.8965 37.0378 59.0348 37.4057 59.0348 37.8773C59.0348 38.2798 58.9562 38.6446 58.799 38.9716C58.6481 39.2986 58.4248 39.5565 58.1292 39.7452C57.8399 39.9275 57.4972 40.0187 57.101 40.0187ZM57.2047 39.132C57.4374 39.132 57.6072 39.0094 57.7141 38.7641C57.8273 38.5188 57.8839 38.2421 57.8839 37.9339C57.8839 37.7012 57.8431 37.5314 57.7613 37.4245C57.6796 37.3113 57.5695 37.2547 57.4311 37.2547C57.1984 37.2547 57.0255 37.3774 56.9123 37.6226C56.7991 37.8679 56.7425 38.1415 56.7425 38.4433C56.7425 38.676 56.7834 38.849 56.8651 38.9622C56.9532 39.0754 57.0664 39.132 57.2047 39.132ZM65.8881 40.0659C65.2214 40.0659 64.6365 39.9464 64.1334 39.7074C63.6303 39.4622 63.2435 39.1194 62.9731 38.6792C62.7027 38.239 62.5675 37.7327 62.5675 37.1604C62.5675 36.4057 62.7404 35.7265 63.0863 35.1228C63.4385 34.519 63.929 34.0473 64.5579 33.7077C65.1868 33.3681 65.9038 33.1983 66.7088 33.1983C67.3188 33.1983 67.8597 33.3084 68.3313 33.5285C68.803 33.7423 69.1552 34.0473 69.3879 34.4435L68.0389 35.519C67.7182 35.0033 67.2339 34.7454 66.5861 34.7454C66.1648 34.7454 65.7937 34.846 65.473 35.0473C65.1522 35.2422 64.9007 35.5158 64.7183 35.868C64.5422 36.2139 64.4542 36.6038 64.4542 37.0378C64.4542 37.4843 64.5988 37.8427 64.8881 38.1132C65.1774 38.3836 65.5705 38.5188 66.0673 38.5188C66.6962 38.5188 67.2339 38.2641 67.6804 37.7547L68.7841 38.8396C68.4257 39.2735 68.0075 39.5879 67.5295 39.7829C67.0515 39.9716 66.5044 40.0659 65.8881 40.0659ZM72.6767 40.0659C72.0101 40.0659 71.4283 39.9433 70.9315 39.698C70.441 39.4527 70.0605 39.11 69.7901 38.6697C69.5259 38.2295 69.3939 37.7264 69.3939 37.1604C69.3939 36.4057 69.5668 35.7265 69.9127 35.1228C70.2649 34.519 70.7523 34.0473 71.3749 33.7077C72.0038 33.3681 72.7176 33.1983 73.5163 33.1983C74.1829 33.1983 74.7615 33.321 75.2521 33.5662C75.7489 33.8115 76.1294 34.1542 76.3935 34.5945C76.6639 35.0347 76.7992 35.5378 76.7992 36.1038C76.7992 36.8585 76.6231 37.5377 76.2709 38.1415C75.925 38.7452 75.4376 39.2169 74.8087 39.5565C74.1861 39.8961 73.4754 40.0659 72.6767 40.0659ZM72.8371 38.5188C73.2522 38.5188 73.6169 38.415 73.9314 38.2075C74.2458 38 74.4879 37.7233 74.6578 37.3774C74.8276 37.0252 74.9125 36.6384 74.9125 36.217C74.9125 35.7705 74.7741 35.4152 74.4974 35.1511C74.227 34.8806 73.8465 34.7454 73.3559 34.7454C72.9409 34.7454 72.5761 34.8492 72.2616 35.0567C71.9472 35.2643 71.7051 35.5441 71.5353 35.8963C71.3655 36.2422 71.2806 36.6258 71.2806 37.0472C71.2806 37.4937 71.4158 37.8522 71.6862 38.1226C71.9629 38.3867 72.3465 38.5188 72.8371 38.5188ZM86.0695 33.3304L84.7677 39.9338H83.0413L83.7205 36.4529L81.5225 39.2829H80.7018L79.5038 36.4529L78.8057 39.9338H77.0888L78.4095 33.3304H79.9283L81.4754 37.151L84.4752 33.3304H86.0695ZM95.07 33.3304L93.7682 39.9338H92.0419L92.7211 36.4529L90.5231 39.2829H89.7023L88.5043 36.4529L87.8062 39.9338H86.0893L87.41 33.3304H88.9288L90.4759 37.151L93.4757 33.3304H95.07ZM96.4105 33.3304H98.2784L96.9577 39.9338H95.0898L96.4105 33.3304ZM100.749 40.0659C100.202 40.0659 99.6827 39.9999 99.1922 39.8678C98.7016 39.7357 98.3023 39.5659 97.9941 39.3584L98.7299 37.9622C99.0632 38.1761 99.4186 38.3396 99.7959 38.4528C100.173 38.5597 100.551 38.6131 100.928 38.6131C101.286 38.6131 101.563 38.5628 101.758 38.4622C101.959 38.3553 102.06 38.2107 102.06 38.0283C102.06 37.871 101.969 37.7484 101.786 37.6604C101.61 37.5723 101.334 37.478 100.956 37.3774C100.529 37.2642 100.173 37.151 99.8902 37.0378C99.6072 36.9183 99.362 36.739 99.1544 36.5C98.9532 36.2611 98.8526 35.9466 98.8526 35.5567C98.8526 35.085 98.9815 34.6731 99.2393 34.3209C99.4972 33.9624 99.8651 33.6857 100.343 33.4908C100.821 33.2958 101.381 33.1983 102.022 33.1983C102.494 33.1983 102.934 33.2486 103.343 33.3493C103.752 33.4436 104.104 33.5819 104.399 33.7643L103.72 35.1511C103.462 34.9875 103.176 34.8649 102.862 34.7831C102.554 34.6951 102.236 34.6511 101.909 34.6511C101.538 34.6511 101.246 34.7108 101.032 34.8303C100.824 34.9498 100.72 35.1039 100.72 35.2926C100.72 35.4561 100.812 35.5818 100.994 35.6699C101.176 35.7579 101.459 35.8523 101.843 35.9529C102.271 36.0598 102.623 36.1699 102.9 36.2831C103.183 36.3963 103.425 36.5692 103.626 36.8019C103.827 37.0346 103.928 37.3396 103.928 37.717C103.928 38.1824 103.796 38.5943 103.532 38.9528C103.274 39.3049 102.903 39.5785 102.418 39.7735C101.94 39.9684 101.384 40.0659 100.749 40.0659ZM106.857 40.0659C106.309 40.0659 105.791 39.9999 105.3 39.8678C104.809 39.7357 104.41 39.5659 104.102 39.3584L104.838 37.9622C105.171 38.1761 105.526 38.3396 105.904 38.4528C106.281 38.5597 106.658 38.6131 107.036 38.6131C107.394 38.6131 107.671 38.5628 107.866 38.4622C108.067 38.3553 108.168 38.2107 108.168 38.0283C108.168 37.871 108.077 37.7484 107.894 37.6604C107.718 37.5723 107.441 37.478 107.064 37.3774C106.636 37.2642 106.281 37.151 105.998 37.0378C105.715 36.9183 105.47 36.739 105.262 36.5C105.061 36.2611 104.96 35.9466 104.96 35.5567C104.96 35.085 105.089 34.6731 105.347 34.3209C105.605 33.9624 105.973 33.6857 106.451 33.4908C106.929 33.2958 107.489 33.1983 108.13 33.1983C108.602 33.1983 109.042 33.2486 109.451 33.3493C109.86 33.4436 110.212 33.5819 110.507 33.7643L109.828 35.1511C109.57 34.9875 109.284 34.8649 108.97 34.7831C108.661 34.6951 108.344 34.6511 108.017 34.6511C107.646 34.6511 107.353 34.7108 107.14 34.8303C106.932 34.9498 106.828 35.1039 106.828 35.2926C106.828 35.4561 106.919 35.5818 107.102 35.6699C107.284 35.7579 107.567 35.8523 107.951 35.9529C108.378 36.0598 108.731 36.1699 109.007 36.2831C109.29 36.3963 109.532 36.5692 109.734 36.8019C109.935 37.0346 110.036 37.3396 110.036 37.717C110.036 38.1824 109.904 38.5943 109.639 38.9528C109.382 39.3049 109.01 39.5785 108.526 39.7735C108.048 39.9684 107.492 40.0659 106.857 40.0659ZM111.823 33.3304H113.691L112.37 39.9338H110.502L111.823 33.3304ZM117.265 40.0659C116.598 40.0659 116.016 39.9433 115.52 39.698C115.029 39.4527 114.649 39.11 114.378 38.6697C114.114 38.2295 113.982 37.7264 113.982 37.1604C113.982 36.4057 114.155 35.7265 114.501 35.1228C114.853 34.519 115.34 34.0473 115.963 33.7077C116.592 33.3681 117.306 33.1983 118.104 33.1983C118.771 33.1983 119.35 33.321 119.84 33.5662C120.337 33.8115 120.717 34.1542 120.982 34.5945C121.252 35.0347 121.387 35.5378 121.387 36.1038C121.387 36.8585 121.211 37.5377 120.859 38.1415C120.513 38.7452 120.026 39.2169 119.397 39.5565C118.774 39.8961 118.063 40.0659 117.265 40.0659ZM117.425 38.5188C117.84 38.5188 118.205 38.415 118.519 38.2075C118.834 38 119.076 37.7233 119.246 37.3774C119.416 37.0252 119.5 36.6384 119.5 36.217C119.5 35.7705 119.362 35.4152 119.085 35.1511C118.815 34.8806 118.435 34.7454 117.944 34.7454C117.529 34.7454 117.164 34.8492 116.85 35.0567C116.535 35.2643 116.293 35.5441 116.123 35.8963C115.954 36.2422 115.869 36.6258 115.869 37.0472C115.869 37.4937 116.004 37.8522 116.274 38.1226C116.551 38.3867 116.935 38.5188 117.425 38.5188ZM129.271 33.3304L127.95 39.9338H126.412L124.233 36.3114L123.507 39.9338H121.677L122.998 33.3304H124.535L126.724 36.9434L127.441 33.3304H129.271Z" fill="#45D91E"/>
</svg>
