<svg width="100" height="27" viewBox="0 0 100 27" fill="none" xmlns="http://www.w3.org/2000/svg">
<path d="M1.20985e-07 9.0484C5.41669e-08 4.0511 4.05111 -5.4167e-08 9.0484 -1.20985e-07L98.6276 -1.31874e-06C99.1273 -1.32542e-06 99.5324 0.405109 99.5324 0.904839L99.5324 17.5313C99.5324 22.5286 95.4813 26.5797 90.484 26.5797L0.90484 26.5797C0.40511 26.5797 3.49978e-07 26.1746 3.43296e-07 25.6748L1.20985e-07 9.0484Z" fill="url(#paint0_linear_213_1652)"/>
<path d="M10.2016 17.268C9.54291 17.268 8.924 17.1992 8.3449 17.0617C7.7658 16.9169 7.28805 16.7287 6.91163 16.497L7.89972 14.6077C8.71769 15.0783 9.57186 15.3135 10.4622 15.3135C10.788 15.3135 11.0377 15.2737 11.2114 15.1941C11.3852 15.1144 11.472 15.0059 11.472 14.8683C11.472 14.738 11.3815 14.6331 11.2006 14.5534C11.0268 14.4738 10.7482 14.387 10.3645 14.2929C9.85779 14.1626 9.43795 14.0323 9.10497 13.902C8.77198 13.7644 8.47882 13.5581 8.22546 13.2831C7.97934 13.0007 7.85629 12.6316 7.85629 12.1755C7.85629 11.6037 8.0083 11.1042 8.31233 10.6771C8.62359 10.2428 9.06877 9.90981 9.64787 9.67817C10.227 9.43929 10.911 9.31985 11.7 9.31985C12.2647 9.31985 12.7895 9.37776 13.2745 9.49358C13.7667 9.60216 14.1902 9.76141 14.5449 9.97134L13.6219 11.8389C13.3251 11.6507 12.9958 11.5096 12.6338 11.4155C12.2791 11.3214 11.9136 11.2743 11.5372 11.2743C11.1825 11.2743 10.9074 11.325 10.712 11.4263C10.5165 11.5277 10.4188 11.6471 10.4188 11.7846C10.4188 11.9222 10.5057 12.0308 10.6794 12.1104C10.8604 12.19 11.1535 12.2769 11.5589 12.371C12.0511 12.4868 12.4637 12.6099 12.7967 12.7401C13.1369 12.8704 13.4301 13.0731 13.6762 13.3482C13.9223 13.6233 14.0454 13.9852 14.0454 14.434C14.0454 14.9986 13.8898 15.4945 13.5785 15.9216C13.2672 16.3487 12.822 16.6816 12.243 16.9205C11.6639 17.1521 10.9834 17.268 10.2016 17.268ZM15.8394 9.49358L18.4019 9.49358L16.8818 17.0942L14.3193 17.0942L15.8394 9.49358ZM23.9462 13.0876L26.1721 13.0876L25.5206 16.3667C25.1152 16.6563 24.6483 16.8807 24.1199 17.0399C23.5987 17.192 23.0377 17.268 22.4369 17.268C21.6624 17.268 20.9783 17.1268 20.3847 16.8445C19.7984 16.555 19.3424 16.1532 19.0166 15.6393C18.6981 15.1253 18.5389 14.5354 18.5389 13.8694C18.5389 12.9863 18.7452 12.2009 19.1578 11.5132C19.5704 10.8255 20.1459 10.2898 20.8842 9.90619C21.6225 9.5153 22.4695 9.31985 23.425 9.31985C25.003 9.31985 26.154 9.81571 26.8779 10.8074L25.0428 12.2298C24.804 11.9258 24.547 11.7123 24.2719 11.5892C23.9968 11.4589 23.6747 11.3937 23.3056 11.3937C22.864 11.3937 22.4767 11.4915 22.1437 11.6869C21.818 11.8824 21.5646 12.1574 21.3837 12.5121C21.2099 12.8596 21.1231 13.2577 21.1231 13.7065C21.1231 14.1553 21.2715 14.5173 21.5683 14.7923C21.865 15.0602 22.274 15.1941 22.7952 15.1941C23.0558 15.1941 23.3056 15.1579 23.5444 15.0855L23.9462 13.0876ZM35.4726 9.49358L33.9525 17.0942L31.846 17.0942L29.6636 13.5545L28.9578 17.0942L26.4604 17.0942L27.9805 9.49358L30.087 9.49358L32.2695 13.0333L32.9753 9.49358L35.4726 9.49358ZM42.2754 17.268C41.5949 17.268 41.005 17.1558 40.5055 16.9314C40.0133 16.6997 39.6332 16.374 39.3654 15.9541C39.1048 15.5343 38.9745 15.0421 38.9745 14.4774C38.9745 14.2458 39.0035 13.978 39.0614 13.6739L39.8975 9.49358L42.46 9.49358L41.6348 13.6305C41.5913 13.8332 41.5696 14.0178 41.5696 14.1843C41.5696 14.5245 41.6565 14.7778 41.8302 14.9443C42.0039 15.1108 42.2573 15.1941 42.5903 15.1941C42.9667 15.1941 43.2598 15.0746 43.4698 14.8358C43.6797 14.5969 43.8426 14.1951 43.9584 13.6305L44.7836 9.49358L47.3027 9.49358L46.4449 13.7825C46.2132 14.9335 45.75 15.8021 45.055 16.3885C44.3601 16.9748 43.4336 17.268 42.2754 17.268ZM51.8542 9.49358C52.8676 9.49358 53.653 9.71436 54.2104 10.1559C54.7677 10.5975 55.0464 11.2164 55.0464 12.0127C55.0464 12.6497 54.8872 13.2107 54.5687 13.6957C54.2574 14.1807 53.8086 14.5571 53.2223 14.8249C52.6432 15.0927 51.97 15.2266 51.2027 15.2266L49.8888 15.2266L49.5197 17.0942L46.9572 17.0942L48.4773 9.49358L51.8542 9.49358ZM51.333 13.2505C51.6877 13.2505 51.9627 13.1636 52.1582 12.9899C52.3536 12.8089 52.4514 12.5592 52.4514 12.2407C52.4514 11.7267 52.1328 11.4698 51.4958 11.4698L50.6381 11.4698L50.2797 13.2505L51.333 13.2505ZM67.294 9.49358L65.7739 17.0942L63.6674 17.0942L61.4849 13.5545L60.7792 17.0942L58.2818 17.0942L59.8019 9.49358L61.9084 9.49358L64.0909 13.0333L64.7966 9.49358L67.294 9.49358ZM71.2866 17.268C70.5121 17.268 69.8317 17.1268 69.2453 16.8445C68.6662 16.555 68.2174 16.1532 67.8989 15.6393C67.5877 15.1253 67.432 14.5353 67.432 13.8694C67.432 12.9863 67.6347 12.2009 68.0401 11.5132C68.4527 10.8183 69.0209 10.279 69.7448 9.89533C70.4759 9.51168 71.3011 9.31985 72.2204 9.31985C72.995 9.31985 73.6718 9.46463 74.2509 9.75418C74.8372 10.0365 75.286 10.4346 75.5973 10.9486C75.9158 11.4625 76.0751 12.0525 76.0751 12.7184C76.0751 13.6016 75.8687 14.3906 75.4561 15.0855C75.0508 15.7732 74.4825 16.3088 73.7514 16.6925C73.0276 17.0761 72.206 17.268 71.2866 17.268ZM71.5038 15.1941C71.9092 15.1941 72.2602 15.0891 72.557 14.8792C72.8611 14.6693 73.0927 14.387 73.252 14.0323C73.4112 13.6776 73.4908 13.2903 73.4908 12.8704C73.4908 12.4216 73.3569 12.0633 73.0891 11.7955C72.8285 11.5277 72.4666 11.3937 72.0033 11.3937C71.5979 11.3937 71.2432 11.4987 70.9392 11.7086C70.6424 11.9186 70.4144 12.2009 70.2551 12.5556C70.0959 12.9103 70.0162 13.2975 70.0162 13.7174C70.0162 14.1662 70.1465 14.5245 70.4071 14.7923C70.675 15.0602 71.0405 15.1941 71.5038 15.1941ZM89.8243 9.49358L85.8719 17.0942L83.1248 17.0942L82.6905 13.0876L80.6058 17.0942L77.8587 17.0942L76.9466 9.49358L79.4765 9.49358L79.9651 13.826L82.2236 9.49358L84.5798 9.49358L85.0141 13.8911L87.3052 9.49358L89.8243 9.49358ZM90.2784 9.49358L93.21 9.49358L91.7876 14.1843L89.8332 14.1843L90.2784 9.49358ZM90.3869 17.2028C89.9888 17.2028 89.6631 17.087 89.4097 16.8554C89.1564 16.6237 89.0297 16.3414 89.0297 16.0084C89.0297 15.6031 89.1708 15.2701 89.4531 15.0095C89.7427 14.7489 90.1046 14.6186 90.5389 14.6186C90.9371 14.6186 91.2628 14.7308 91.5162 14.9552C91.7695 15.1796 91.8962 15.4583 91.8962 15.7913C91.8962 16.1894 91.7514 16.526 91.4619 16.8011C91.1723 17.0689 90.814 17.2028 90.3869 17.2028Z" fill="#181818"/>
<defs>
<linearGradient id="paint0_linear_213_1652" x1="44.9864" y1="26.7918" x2="44.9864" y2="5.54003e-07" gradientUnits="userSpaceOnUse">
<stop stop-color="#14FF00"/>
<stop offset="1" stop-color="#19D82C"/>
</linearGradient>
</defs>
</svg>
