<svg width="86" height="22" viewBox="0 0 86 22" fill="none" xmlns="http://www.w3.org/2000/svg">
<path d="M7.37153 10.8357C7.37153 11.3195 6.98392 11.7117 6.50583 11.7117C6.02772 11.7117 5.64014 11.3195 5.64014 10.8357C5.64014 10.3519 6.02772 9.95972 6.50583 9.95972C6.98392 9.95972 7.37153 10.3519 7.37153 10.8357Z" fill="#45D91E"/>
<path fill-rule="evenodd" clip-rule="evenodd" d="M4.34866e-09 0.589881C3.15913e-09 0.500917 0.134347 0.332926 0.200387 0.324006C0.495694 0.284318 0.775805 0.26459 1.04066 0.264649C3.05252 0.264707 4.17142 1.4018 4.17142 3.54321L4.17142 5.0956L6.82308 3.51843C7.16371 3.31601 7.54386 3.21472 7.924 3.21472C8.30418 3.21472 8.68432 3.31601 9.02495 3.51843L14.7471 6.91968C15.4284 7.32464 15.848 8.07296 15.848 8.88282L15.848 15.6853C15.848 16.4954 15.4284 17.2435 14.7471 17.6485L9.02495 21.0496C8.68432 21.2521 8.30418 21.3535 7.924 21.3535C7.54386 21.3535 7.16371 21.2521 6.82308 21.0496L1.10092 17.6485C0.419659 17.2435 2.17019e-07 16.4954 2.06189e-07 15.6853L4.34866e-09 0.589881ZM8.29941 7.03273C5.46463 7.03273 3.16653 9.39864 3.16653 12.3171C3.16653 15.2356 5.46463 17.6014 8.29941 17.6014C9.65098 17.6014 10.8805 17.0637 11.7972 16.1848C11.8423 16.1415 11.8892 16.0099 11.8157 15.9343C11.2192 15.3207 8.49608 12.5195 8.42359 12.4449C8.34218 12.3611 8.34418 12.2693 8.42356 12.1844C9.03129 11.5349 11.6665 8.7184 11.7463 8.6362C11.8366 8.54326 11.7854 8.43797 11.7463 8.40147C10.8353 7.55094 9.62611 7.03273 8.29941 7.03273Z" fill="#45D91E"/>
<path fill-rule="evenodd" clip-rule="evenodd" d="M30.4995 10.9917C30.7976 10.8012 31.0414 10.5366 31.207 10.2237C31.4406 9.79841 31.558 9.31896 31.5475 8.83373C31.5789 8.39184 31.4996 7.94903 31.3165 7.54567C31.1338 7.14231 30.8528 6.79122 30.4995 6.52436C29.6146 5.99502 28.5907 5.7444 27.5616 5.80503L23.7808 5.80503L23.7808 16.5731L28.1017 16.5731C29.3656 16.5731 30.2944 16.3244 30.9316 15.789C31.2619 15.4665 31.5179 15.076 31.682 14.6445C31.8462 14.2131 31.9145 13.7508 31.8822 13.2902C31.893 12.7543 31.7445 12.2272 31.4557 11.7759C31.2247 11.4226 30.8909 11.1488 30.4995 10.9917ZM26.287 7.89266L27.4698 7.89266C27.8643 7.84126 28.2635 7.94603 28.5823 8.18474C28.6947 8.30822 28.7807 8.45358 28.8344 8.61178C28.8885 8.76995 28.9091 8.93757 28.8955 9.10416C28.9068 9.25777 28.8853 9.41205 28.8321 9.55662C28.7789 9.70117 28.6956 9.83273 28.5878 9.94246C28.4387 10.0658 28.2659 10.1569 28.0799 10.2099C27.894 10.263 27.699 10.2769 27.5075 10.2507L26.287 10.2507L26.287 7.89266ZM28.955 14.1933C28.8193 14.309 28.6622 14.3967 28.4925 14.4516C28.3228 14.5062 28.1441 14.5272 27.9666 14.5126L26.287 14.5126L26.287 11.949L28.0421 11.949C28.2118 11.9373 28.3821 11.9611 28.5419 12.0188C28.702 12.0766 28.8481 12.167 28.9713 12.2843C29.1744 12.5685 29.2737 12.9143 29.252 13.2632C29.2691 13.5991 29.1636 13.9298 28.955 14.1933Z" fill="white"/>
<path fill-rule="evenodd" clip-rule="evenodd" d="M55.166 11.2673L52.876 11.2673L52.876 14.3718C51.9468 14.5339 51.0397 14.5447 50.4293 14.1176C50.1283 13.8828 49.8848 13.5827 49.7175 13.2397C49.5498 12.8967 49.4627 12.5199 49.4624 12.138C49.4139 11.5116 49.4139 10.8823 49.4624 10.2559C49.4824 9.84582 49.5958 9.44569 49.793 9.08585C49.9906 8.72602 50.2672 8.41592 50.6022 8.1791C51.477 7.67071 52.6598 7.84916 53.4861 8.01143C54.0262 8.1196 55.1065 8.44951 55.1065 8.44951L55.1065 6.34564C54.3717 6.00393 53.5849 5.7882 52.7786 5.70746C51.3852 5.53438 49.5705 5.70746 48.3607 6.78912C47.8978 7.23077 47.5265 7.75953 47.2679 8.34515C47.0094 8.93076 46.8684 9.5617 46.8539 10.2018C46.7961 10.9218 46.7961 11.6452 46.8539 12.3652C46.869 13.0562 47.0401 13.7347 47.3545 14.35C47.6689 14.9654 48.1181 15.5017 48.6686 15.9184C50.0243 16.8757 52.0441 16.7784 53.1189 16.6052C53.8275 16.4666 54.5155 16.2377 55.166 15.9239L55.166 13.6307L55.166 11.2673Z" fill="white"/>
<path fill-rule="evenodd" clip-rule="evenodd" d="M74.7373 5.88062L72.1556 10.6833L69.5741 5.88062L66.8735 5.88062L66.8735 16.4648L69.3094 16.4648L69.3094 9.97475L72.1448 14.8424L75.1209 9.74761L75.1209 16.4648L77.5675 16.4648L77.4217 5.88062L74.7373 5.88062Z" fill="white"/>
<path fill-rule="evenodd" clip-rule="evenodd" d="M59.7446 5.89111L55.7749 16.4646L58.4755 16.4646L59.2855 14.1766L62.5262 14.1766L63.3903 16.4646L66.1446 16.4646L62.2993 5.89111L59.7446 5.89111ZM60.0093 12.0242L60.9762 9.00093L61.9698 12.0134L60.0093 12.0242Z" fill="white"/>
<path fill-rule="evenodd" clip-rule="evenodd" d="M81.4472 14.1551L81.4635 12.0675L85.6656 12.0675L85.6656 10.0448L81.4635 10.0448L81.4472 8.19511L85.8814 8.19511L85.8814 5.88574L78.8765 5.88574L78.8765 9.96907L78.8765 16.4646L86.0003 16.4646L86.0003 14.1551L81.4472 14.1551Z" fill="white"/>
<path fill-rule="evenodd" clip-rule="evenodd" d="M39.5344 14.3346C38.7136 14.4971 37.5308 14.6699 36.6557 14.1725C36.323 13.9436 36.0473 13.6411 35.8497 13.2885C35.6519 12.9359 35.538 12.5426 35.5162 12.1389C35.4892 11.8252 35.4784 11.4953 35.4729 11.1816C35.4677 10.8679 35.4729 10.538 35.5162 10.2243C35.5348 9.81686 35.6472 9.41923 35.8448 9.06264C36.0426 8.70606 36.3201 8.40021 36.6557 8.16911C37.5308 7.66616 38.7136 7.84463 39.5344 8.00687C40.0745 8.10964 41.1547 8.43955 41.1547 8.43955L41.1547 6.35732C40.4205 6.01216 39.6337 5.7928 38.8269 5.70831C37.4335 5.54064 35.6187 5.68667 34.4089 6.73049C33.9458 7.16273 33.5736 7.68365 33.3147 8.26238C33.0559 8.84111 32.9155 9.46595 32.9022 10.0999C32.8696 10.4569 32.8589 10.803 32.8589 11.1383C32.8589 11.4736 32.8589 11.8198 32.9022 12.1767C32.9155 12.8107 33.0559 13.4356 33.3147 14.0142C33.5736 14.5929 33.9458 15.1139 34.4089 15.5462C35.6187 16.6279 37.4335 16.7578 38.8269 16.5901C39.6332 16.5123 40.4202 16.2984 41.1547 15.9573L41.1547 13.8805C41.1547 13.8805 40.0745 14.2318 39.5344 14.3346Z" fill="white"/>
<path d="M44.4825 16.665C45.1835 16.665 45.7518 16.0961 45.7518 15.3942C45.7518 14.6922 45.1835 14.123 44.4825 14.123C43.7817 14.123 43.2134 14.6922 43.2134 15.3942C43.2134 16.0961 43.7817 16.665 44.4825 16.665Z" fill="white"/>
</svg>
