<svg width="130" height="42" viewBox="0 0 130 42" fill="none" xmlns="http://www.w3.org/2000/svg">
<path d="M4.78325 10.1912C3.99109 10.1912 3.2399 10.0956 2.52969 9.90439C1.81948 9.71318 1.24129 9.46734 0.795131 9.16687L1.86045 7.14549C2.34303 7.45507 2.85748 7.69181 3.4038 7.8557C3.95011 8.01049 4.49643 8.08789 5.04275 8.08789C5.56175 8.08789 5.96238 8.01505 6.24465 7.86936C6.53602 7.71457 6.6817 7.50515 6.6817 7.2411C6.6817 7.01346 6.54967 6.83591 6.28562 6.70844C6.03067 6.58096 5.63004 6.44438 5.08372 6.2987C4.46456 6.1348 3.95011 5.97091 3.54038 5.80701C3.13064 5.63401 2.77553 5.37451 2.47506 5.02851C2.18369 4.68251 2.038 4.22725 2.038 3.66272C2.038 2.97982 2.22466 2.38342 2.59798 1.87353C2.9713 1.35453 3.50395 0.953895 4.19596 0.671631C4.88796 0.389366 5.69833 0.248234 6.62707 0.248234C7.30997 0.248234 7.94734 0.321077 8.53918 0.466762C9.13102 0.603341 9.64092 0.803657 10.0689 1.06771L9.0855 3.07543C8.71218 2.83869 8.29789 2.66114 7.84263 2.54277C7.39647 2.41529 6.93665 2.35156 6.46317 2.35156C5.92596 2.35156 5.50257 2.43806 5.19299 2.61106C4.89251 2.78406 4.74227 3.00714 4.74227 3.2803C4.74227 3.51703 4.8743 3.69914 5.13835 3.82661C5.40241 3.95409 5.81215 4.09067 6.36757 4.23635C6.98673 4.39114 7.49662 4.55048 7.89726 4.71438C8.30699 4.87827 8.65755 5.12867 8.94892 5.46557C9.24029 5.80246 9.38597 6.24407 9.38597 6.79039C9.38597 7.46418 9.19476 8.06057 8.81234 8.57957C8.43902 9.08947 7.90181 9.48555 7.2007 9.76782C6.5087 10.0501 5.70288 10.1912 4.78325 10.1912ZM11.9736 0.439445H14.6779L12.7658 10H10.0615L11.9736 0.439445ZM22.0923 5.01485H24.4825L23.6767 9.04394C23.185 9.41726 22.6113 9.70408 21.9558 9.90439C21.3093 10.0956 20.6264 10.1912 19.9071 10.1912C18.9419 10.1912 18.0951 10.0182 17.3667 9.67221C16.6474 9.3171 16.0874 8.82086 15.6868 8.18349C15.2952 7.54612 15.0995 6.81315 15.0995 5.98457C15.0995 4.88283 15.3544 3.89946 15.8643 3.03445C16.3742 2.16035 17.089 1.47745 18.0086 0.985763C18.9282 0.494077 19.9845 0.248234 21.1773 0.248234C23.0712 0.248234 24.4597 0.835526 25.3429 2.01011L23.4035 3.5398C23.0939 3.15737 22.7525 2.88877 22.3791 2.73398C22.0058 2.57008 21.5642 2.48814 21.0543 2.48814C20.4079 2.48814 19.8388 2.63382 19.3471 2.92519C18.8645 3.20745 18.4912 3.59898 18.2271 4.09977C17.9631 4.60056 17.8311 5.16964 17.8311 5.80701C17.8311 6.46259 18.045 6.98615 18.473 7.37768C18.9009 7.7601 19.5019 7.95131 20.2758 7.95131C20.7402 7.95131 21.1636 7.87391 21.546 7.71912L22.0923 5.01485ZM36.1946 0.439445L34.2825 10H32.0562L28.9012 4.75535L27.8496 10H25.1999L27.112 0.439445H29.3383L32.5069 5.67043L33.5449 0.439445H36.1946ZM44.8357 10.1912C44.0071 10.1912 43.2923 10.0546 42.6914 9.78147C42.0904 9.49921 41.6306 9.09858 41.3119 8.57957C40.9932 8.06057 40.8339 7.45052 40.8339 6.74941C40.8339 6.45804 40.8703 6.12115 40.9432 5.73872L42.0085 0.439445H44.7128L43.6611 5.69775C43.6065 5.97091 43.5791 6.2213 43.5791 6.44894C43.5791 7.45052 44.1072 7.95131 45.1635 7.95131C45.7371 7.95131 46.1878 7.77831 46.5156 7.43231C46.8525 7.0772 47.1029 6.49902 47.2668 5.69775L48.3184 0.439445H50.9817L49.9028 5.86165C49.32 8.74802 47.631 10.1912 44.8357 10.1912ZM56.8701 0.439445C58.1084 0.439445 59.0645 0.708052 59.7383 1.24526C60.4121 1.78248 60.749 2.53822 60.749 3.51248C60.749 4.31375 60.5532 5.01485 60.1617 5.6158C59.7793 6.21675 59.2284 6.68112 58.5091 7.00891C57.7989 7.3367 56.9703 7.5006 56.0233 7.5006H54.1112L53.6195 10H50.9153L52.8274 0.439445H56.8701ZM56.1463 5.36996C56.7472 5.36996 57.207 5.22883 57.5257 4.94656C57.8535 4.6643 58.0174 4.26367 58.0174 3.74467C58.0174 3.35314 57.8854 3.06177 57.6213 2.87056C57.3664 2.67024 56.9976 2.57008 56.515 2.57008H55.0946L54.5346 5.36996H56.1463ZM10.9566 19.4929C10.6106 20.3306 10.1781 21.0726 9.65913 21.7191L10.4513 22.5796L8.73039 24.1639L7.91092 23.2761C6.92754 23.8862 5.86678 24.1912 4.72862 24.1912C4.04572 24.1912 3.43567 24.0911 2.89845 23.8907C2.37035 23.6904 1.9515 23.4036 1.64192 23.0303C1.34145 22.6479 1.19121 22.2063 1.19121 21.7055C1.19121 21.0408 1.40974 20.4671 1.84679 19.9846C2.28385 19.4929 2.90756 19.0513 3.71793 18.6597C3.36282 18.1772 3.18527 17.6673 3.18527 17.1301C3.18527 16.5564 3.34006 16.0556 3.64964 15.6277C3.95922 15.1997 4.37351 14.8719 4.89251 14.6443C5.42062 14.4167 5.99425 14.3029 6.61341 14.3029C7.44199 14.3029 8.11123 14.485 8.62113 14.8492C9.14013 15.2043 9.39963 15.7051 9.39963 16.3516C9.39963 16.9252 9.20387 17.426 8.81234 17.8539C8.42992 18.2728 7.87449 18.6597 7.14607 19.0149L8.27968 20.2441C8.58015 19.7888 8.81689 19.329 8.98989 18.8646L10.9566 19.4929ZM6.51781 16.0101C6.23554 16.0101 6.00336 16.0921 5.82125 16.256C5.64825 16.4107 5.56175 16.6156 5.56175 16.8706C5.56175 16.998 5.59362 17.1301 5.65736 17.2666C5.72109 17.3941 5.83036 17.5535 5.98515 17.7447C6.45862 17.5352 6.78186 17.3395 6.95486 17.1574C7.12786 16.9753 7.21436 16.7795 7.21436 16.5701C7.21436 16.4062 7.15062 16.2742 7.02315 16.174C6.89568 16.0647 6.72723 16.0101 6.51781 16.0101ZM5.13835 22.2108C5.61183 22.2108 6.09441 22.0833 6.5861 21.8284L4.87885 19.9709C4.52375 20.1621 4.25059 20.3624 4.05938 20.5719C3.87727 20.7722 3.78622 21.0044 3.78622 21.2684C3.78622 21.5507 3.90003 21.7783 4.12767 21.9513C4.3644 22.1243 4.7013 22.2108 5.13835 22.2108ZM22.8659 19.0149H25.2561L24.4502 23.0439C23.9586 23.4173 23.3849 23.7041 22.7293 23.9044C22.0829 24.0956 21.4 24.1912 20.6807 24.1912C19.7155 24.1912 18.8687 24.0182 18.1403 23.6722C17.421 23.3171 16.861 22.8209 16.4604 22.1835C16.0688 21.5461 15.8731 20.8131 15.8731 19.9846C15.8731 18.8828 16.128 17.8995 16.6379 17.0345C17.1478 16.1603 17.8626 15.4774 18.7822 14.9858C19.7018 14.4941 20.7581 14.2482 21.9508 14.2482C23.8447 14.2482 25.2333 14.8355 26.1165 16.0101L24.1771 17.5398C23.8675 17.1574 23.5261 16.8888 23.1527 16.734C22.7794 16.5701 22.3378 16.4881 21.8279 16.4881C21.1814 16.4881 20.6124 16.6338 20.1207 16.9252C19.6381 17.2075 19.2648 17.599 19.0007 18.0998C18.7367 18.6006 18.6047 19.1696 18.6047 19.807C18.6047 20.4626 18.8186 20.9861 19.2466 21.3777C19.6745 21.7601 20.2755 21.9513 21.0494 21.9513C21.5138 21.9513 21.9372 21.8739 22.3196 21.7191L22.8659 19.0149ZM30.1255 16.5291L29.8114 18.1407H34.059L33.6629 20.1621H29.4017L29.0602 21.9103H34.0727L33.6356 24H25.9735L27.8856 14.4394H35.3702L34.9468 16.5291H30.1255ZM38.66 16.5837H35.7236L36.1606 14.4394H44.7242L44.2871 16.5837H41.3643L39.8756 24H37.1713L38.66 16.5837ZM57.6416 17.4852C57.6416 18.3593 57.4094 19.115 56.945 19.7524C56.4807 20.3806 55.8296 20.8405 54.992 21.1318L56.6172 24H53.7901L52.3696 21.4596H51.0038L50.4985 24H47.7942L49.7063 14.4394H53.7901C55.0102 14.4394 55.9571 14.7081 56.6309 15.2453C57.3047 15.7825 57.6416 16.5291 57.6416 17.4852ZM54.91 17.7447C54.91 17.3531 54.778 17.0618 54.5139 16.8706C54.2499 16.6702 53.8811 16.5701 53.4076 16.5701H51.9872L51.4136 19.37H53.0252C53.6262 19.37 54.0905 19.2288 54.4183 18.9466C54.7461 18.6643 54.91 18.2637 54.91 17.7447ZM62.0563 16.5291L61.7422 18.1407H65.9898L65.5937 20.1621H61.3324L60.991 21.9103H66.0034L65.5664 24H57.9043L59.8164 14.4394H67.3009L66.8776 16.5291H62.0563ZM83.8559 14.4394L78.8434 24H75.9479L75.2514 18.2364L72.2056 24H69.2965L68.1219 14.4394H70.7852L71.5227 20.5445L74.746 14.4394H77.2454L77.9283 20.6265L81.1789 14.4394H83.8559ZM89.4629 22.1425H85.3928L84.2865 24H81.432L87.5644 14.4394H90.2277L92.5359 24H89.8453L89.4629 22.1425ZM89.0531 20.1485L88.4112 17.0481L86.581 20.1485H89.0531ZM103.164 17.4852C103.164 18.3593 102.931 19.115 102.467 19.7524C102.003 20.3806 101.352 20.8405 100.514 21.1318L102.139 24H99.312L97.8916 21.4596H96.5258L96.0205 24H93.3162L95.2283 14.4394H99.312C100.532 14.4394 101.479 14.7081 102.153 15.2453C102.827 15.7825 103.164 16.5291 103.164 17.4852ZM100.432 17.7447C100.432 17.3531 100.3 17.0618 100.036 16.8706C99.7719 16.6702 99.4031 16.5701 98.9296 16.5701H97.5092L96.9356 19.37H98.5472C99.1482 19.37 99.6125 19.2288 99.9403 18.9466C100.268 18.6643 100.432 18.2637 100.432 17.7447ZM105.338 14.4394H109.49C110.474 14.4394 111.325 14.6033 112.044 14.9311C112.764 15.2498 113.315 15.7142 113.697 16.3242C114.089 16.9252 114.284 17.6354 114.284 18.4549C114.284 19.5657 114.029 20.54 113.52 21.3777C113.019 22.2154 112.318 22.8618 111.416 23.3171C110.515 23.7724 109.481 24 108.316 24H103.426L105.338 14.4394ZM108.398 21.842C109.053 21.842 109.618 21.7055 110.091 21.4323C110.574 21.15 110.938 20.7676 111.184 20.285C111.43 19.7934 111.553 19.2379 111.553 18.6188C111.553 17.9723 111.352 17.4761 110.952 17.1301C110.551 16.775 109.964 16.5974 109.19 16.5974H107.606L106.568 21.842H108.398Z" fill="white"/>
<path d="M5.87588 39.1912C5.0473 39.1912 4.33254 39.0546 3.73159 38.7815C3.13064 38.4992 2.67082 38.0986 2.35214 37.5796C2.03345 37.0606 1.87411 36.4505 1.87411 35.7494C1.87411 35.458 1.91053 35.1211 1.98337 34.7387L3.04869 29.4394H5.75296L4.7013 34.6978C4.64667 34.9709 4.61935 35.2213 4.61935 35.4489C4.61935 36.4505 5.14746 36.9513 6.20367 36.9513C6.77731 36.9513 7.22802 36.7783 7.55581 36.4323C7.8927 36.0772 8.1431 35.499 8.307 34.6978L9.35866 29.4394H12.022L10.943 34.8616C10.3602 37.748 8.67121 39.1912 5.87588 39.1912ZM17.9103 29.4394C19.1487 29.4394 20.1047 29.7081 20.7785 30.2453C21.4523 30.7825 21.7892 31.5382 21.7892 32.5125C21.7892 33.3137 21.5934 34.0149 21.2019 34.6158C20.8195 35.2168 20.2686 35.6811 19.5493 36.0089C18.8391 36.3367 18.0105 36.5006 17.0635 36.5006H15.1514L14.6597 39H11.9555L13.8676 29.4394H17.9103ZM17.1865 34.37C17.7874 34.37 18.2472 34.2288 18.5659 33.9466C18.8937 33.6643 19.0576 33.2637 19.0576 32.7447C19.0576 32.3531 18.9256 32.0618 18.6615 31.8706C18.4066 31.6702 18.0378 31.5701 17.5552 31.5701H16.1348L15.5748 34.37H17.1865ZM29.5103 31.5837H26.5738L27.0109 29.4394H35.5744L35.1374 31.5837H32.2146L30.7259 39H28.0216L29.5103 31.5837ZM39.6991 39.1912C38.734 39.1912 37.8917 39.0137 37.1724 38.6586C36.4622 38.3034 35.9113 37.8072 35.5198 37.1698C35.1374 36.5325 34.9462 35.804 34.9462 34.9846C34.9462 33.8919 35.1966 32.9086 35.6973 32.0345C36.2072 31.1603 36.9129 30.4774 37.8143 29.9858C38.7249 29.4941 39.7583 29.2482 40.9147 29.2482C41.8798 29.2482 42.7175 29.4258 43.4277 29.7809C44.1471 30.136 44.6979 30.6322 45.0803 31.2696C45.4719 31.907 45.6676 32.6354 45.6676 33.4549C45.6676 34.5475 45.4127 35.5309 44.9028 36.405C44.402 37.2791 43.6963 37.962 42.7858 38.4537C41.8844 38.9454 40.8555 39.1912 39.6991 39.1912ZM39.9313 36.9513C40.5323 36.9513 41.0604 36.8011 41.5156 36.5006C41.9709 36.2001 42.3214 35.7995 42.5673 35.2987C42.8131 34.7888 42.936 34.2288 42.936 33.6188C42.936 32.9723 42.7357 32.4578 42.3351 32.0754C41.9436 31.6839 41.3927 31.4881 40.6825 31.4881C40.0815 31.4881 39.5534 31.6384 39.0982 31.9388C38.6429 32.2393 38.2923 32.6445 38.0465 33.1544C37.8007 33.6552 37.6777 34.2106 37.6777 34.8207C37.6777 35.4671 37.8735 35.9861 38.265 36.3777C38.6657 36.7601 39.2211 36.9513 39.9313 36.9513ZM53.5854 32.2803C53.5854 32.517 53.7174 32.6991 53.9815 32.8266C54.2455 32.9541 54.6598 33.0907 55.2243 33.2364C55.8435 33.3911 56.3534 33.5505 56.754 33.7144C57.1638 33.8783 57.5143 34.1287 57.8057 34.4656C58.0971 34.8025 58.2428 35.2441 58.2428 35.7904C58.2428 36.7009 57.9059 37.4567 57.2321 38.0576C56.5583 38.6586 55.6386 39.0228 54.4732 39.1502L54.1727 40.639H52.5337L52.8342 39.1502C52.1877 39.0956 51.5822 38.9818 51.0177 38.8088C50.4623 38.6267 50.0025 38.4082 49.6383 38.1532L50.7172 36.1455C51.1998 36.4551 51.7097 36.6918 52.2469 36.8557C52.7932 37.0105 53.3441 37.0879 53.8995 37.0879C54.4185 37.0879 54.8192 37.015 55.1014 36.8694C55.3928 36.7146 55.5385 36.5052 55.5385 36.2411C55.5385 36.0135 55.4065 35.8359 55.1424 35.7084C54.8875 35.581 54.4823 35.4444 53.9268 35.2987C53.3077 35.1348 52.7932 34.9664 52.3835 34.7934C51.9738 34.6204 51.6187 34.3654 51.3182 34.0285C51.0268 33.6825 50.8811 33.2272 50.8811 32.6627C50.8811 31.7158 51.2317 30.9418 51.9328 30.3409C52.6339 29.7308 53.5945 29.3757 54.8146 29.2756L55.1014 27.8005H56.7404L56.4399 29.3029C57.4506 29.4121 58.2792 29.6716 58.9256 30.0814L57.9286 32.0754C57.5644 31.8387 57.1547 31.6611 56.6994 31.5428C56.2532 31.4153 55.7934 31.3516 55.32 31.3516C54.7827 31.3516 54.3593 31.4381 54.0498 31.6111C53.7493 31.7841 53.5945 32.0071 53.5854 32.2803ZM62.6876 36.8557H66.2523L65.8152 39H58.3716L58.7131 37.3064L62.8924 34.0558C63.375 33.6825 63.7073 33.3684 63.8895 33.1134C64.0716 32.8494 64.1626 32.5808 64.1626 32.3076C64.1626 32.0345 64.0625 31.8205 63.8621 31.6657C63.6618 31.5018 63.375 31.4198 63.0017 31.4198C62.6648 31.4198 62.3416 31.5018 62.032 31.6657C61.7315 31.8296 61.4629 32.0663 61.2262 32.3759L59.4233 31.1877C59.8057 30.5958 60.3475 30.1269 61.0486 29.7809C61.7588 29.4258 62.5464 29.2482 63.4114 29.2482C64.0943 29.2482 64.6998 29.3621 65.2279 29.5897C65.7651 29.8173 66.184 30.136 66.4845 30.5457C66.7849 30.9464 66.9352 31.3971 66.9352 31.8979C66.9352 32.4988 66.7667 33.0588 66.4298 33.5778C66.102 34.0968 65.5239 34.6704 64.6953 35.2987L62.6876 36.8557ZM71.0005 39.1912C69.8988 39.1912 69.0247 38.868 68.3782 38.2215C67.7408 37.5659 67.4222 36.6599 67.4222 35.5036C67.4222 34.3381 67.6361 33.2819 68.0641 32.3349C68.5011 31.3789 69.1066 30.6277 69.8806 30.0814C70.6545 29.5259 71.5286 29.2482 72.5029 29.2482C73.6046 29.2482 74.4742 29.576 75.1116 30.2316C75.7581 30.8781 76.0813 31.7795 76.0813 32.9359C76.0813 34.1014 75.8628 35.1621 75.4257 36.1182C74.9978 37.0651 74.3968 37.8163 73.6229 38.3717C72.8489 38.9181 71.9748 39.1912 71.0005 39.1912ZM71.26 36.9786C71.6971 36.9786 72.075 36.7647 72.3936 36.3367C72.7123 35.9088 72.9536 35.3852 73.1175 34.766C73.2814 34.1469 73.3634 33.5596 73.3634 33.0042C73.3634 32.4761 73.2632 32.0891 73.0629 31.8432C72.8717 31.5883 72.5985 31.4608 72.2434 31.4608C71.8064 31.4608 71.4285 31.6748 71.1098 32.1027C70.7911 32.5307 70.5498 33.0542 70.3859 33.6734C70.222 34.2926 70.1401 34.8799 70.1401 35.4353C70.1401 36.4642 70.5134 36.9786 71.26 36.9786ZM77.5959 36.0499C78.033 36.0499 78.3835 36.1819 78.6476 36.446C78.9208 36.7009 79.0573 37.0424 79.0573 37.4703C79.0573 37.6888 79.0164 37.8983 78.9344 38.0986C78.8525 38.2898 78.7068 38.5447 78.4974 38.8634L77.0223 41.1443H75.397L76.517 38.8634C76.3349 38.7359 76.1892 38.5721 76.0799 38.3717C75.9797 38.1714 75.9297 37.9483 75.9297 37.7025C75.9297 37.2108 76.089 36.8147 76.4077 36.5143C76.7355 36.2047 77.1316 36.0499 77.5959 36.0499ZM83.8449 39.1912C82.7431 39.1912 81.869 38.868 81.2225 38.2215C80.5852 37.5659 80.2665 36.6599 80.2665 35.5036C80.2665 34.3381 80.4805 33.2819 80.9084 32.3349C81.3455 31.3789 81.951 30.6277 82.7249 30.0814C83.4989 29.5259 84.373 29.2482 85.3472 29.2482C86.449 29.2482 87.3185 29.576 87.9559 30.2316C88.6024 30.8781 88.9256 31.7795 88.9256 32.9359C88.9256 34.1014 88.7071 35.1621 88.27 36.1182C87.8421 37.0651 87.2411 37.8163 86.4672 38.3717C85.6932 38.9181 84.8191 39.1912 83.8449 39.1912ZM84.1044 36.9786C84.5414 36.9786 84.9193 36.7647 85.238 36.3367C85.5567 35.9088 85.798 35.3852 85.9618 34.766C86.1257 34.1469 86.2077 33.5596 86.2077 33.0042C86.2077 32.4761 86.1075 32.0891 85.9072 31.8432C85.716 31.5883 85.4428 31.4608 85.0877 31.4608C84.6507 31.4608 84.2728 31.6748 83.9541 32.1027C83.6354 32.5307 83.3942 33.0542 83.2303 33.6734C83.0664 34.2926 82.9844 34.8799 82.9844 35.4353C82.9844 36.4642 83.3577 36.9786 84.1044 36.9786ZM93.1947 39.1912C92.0929 39.1912 91.2188 38.868 90.5724 38.2215C89.935 37.5659 89.6163 36.6599 89.6163 35.5036C89.6163 34.3381 89.8303 33.2819 90.2582 32.3349C90.6953 31.3789 91.3008 30.6277 92.0747 30.0814C92.8487 29.5259 93.7228 29.2482 94.6971 29.2482C95.7988 29.2482 96.6684 29.576 97.3057 30.2316C97.9522 30.8781 98.2754 31.7795 98.2754 32.9359C98.2754 34.1014 98.0569 35.1621 97.6199 36.1182C97.1919 37.0651 96.591 37.8163 95.817 38.3717C95.0431 38.9181 94.1689 39.1912 93.1947 39.1912ZM93.4542 36.9786C93.8912 36.9786 94.2691 36.7647 94.5878 36.3367C94.9065 35.9088 95.1478 35.3852 95.3117 34.766C95.4756 34.1469 95.5575 33.5596 95.5575 33.0042C95.5575 32.4761 95.4573 32.0891 95.257 31.8432C95.0658 31.5883 94.7927 31.4608 94.4376 31.4608C94.0005 31.4608 93.6226 31.6748 93.3039 32.1027C92.9853 32.5307 92.744 33.0542 92.5801 33.6734C92.4162 34.2926 92.3342 34.8799 92.3342 35.4353C92.3342 36.4642 92.7075 36.9786 93.4542 36.9786ZM102.544 39.1912C101.443 39.1912 100.569 38.868 99.9222 38.2215C99.2848 37.5659 98.9661 36.6599 98.9661 35.5036C98.9661 34.3381 99.1801 33.2819 99.608 32.3349C100.045 31.3789 100.651 30.6277 101.425 30.0814C102.198 29.5259 103.073 29.2482 104.047 29.2482C105.149 29.2482 106.018 29.576 106.656 30.2316C107.302 30.8781 107.625 31.7795 107.625 32.9359C107.625 34.1014 107.407 35.1621 106.97 36.1182C106.542 37.0651 105.941 37.8163 105.167 38.3717C104.393 38.9181 103.519 39.1912 102.544 39.1912ZM102.804 36.9786C103.241 36.9786 103.619 36.7647 103.938 36.3367C104.256 35.9088 104.498 35.3852 104.661 34.766C104.825 34.1469 104.907 33.5596 104.907 33.0042C104.907 32.4761 104.807 32.0891 104.607 31.8432C104.416 31.5883 104.142 31.4608 103.787 31.4608C103.35 31.4608 102.972 31.6748 102.654 32.1027C102.335 32.5307 102.094 33.0542 101.93 33.6734C101.766 34.2926 101.684 34.8799 101.684 35.4353C101.684 36.4642 102.057 36.9786 102.804 36.9786ZM108.949 39.1229C108.521 39.1229 108.166 38.9909 107.883 38.7268C107.61 38.4537 107.474 38.1122 107.474 37.7025C107.474 37.2108 107.633 36.8147 107.952 36.5143C108.279 36.2047 108.676 36.0499 109.14 36.0499C109.577 36.0499 109.927 36.1819 110.192 36.446C110.465 36.7009 110.601 37.0424 110.601 37.4703C110.601 37.9529 110.437 38.349 110.11 38.6586C109.791 38.9681 109.404 39.1229 108.949 39.1229ZM115.389 39.1912C114.287 39.1912 113.413 38.868 112.767 38.2215C112.129 37.5659 111.81 36.6599 111.81 35.5036C111.81 34.3381 112.024 33.2819 112.452 32.3349C112.889 31.3789 113.495 30.6277 114.269 30.0814C115.043 29.5259 115.917 29.2482 116.891 29.2482C117.993 29.2482 118.862 29.576 119.5 30.2316C120.146 30.8781 120.47 31.7795 120.47 32.9359C120.47 34.1014 120.251 35.1621 119.814 36.1182C119.386 37.0651 118.785 37.8163 118.011 38.3717C117.237 38.9181 116.363 39.1912 115.389 39.1912ZM115.648 36.9786C116.085 36.9786 116.463 36.7647 116.782 36.3367C117.101 35.9088 117.342 35.3852 117.506 34.766C117.67 34.1469 117.752 33.5596 117.752 33.0042C117.752 32.4761 117.651 32.0891 117.451 31.8432C117.26 31.5883 116.987 31.4608 116.632 31.4608C116.195 31.4608 115.817 31.6748 115.498 32.1027C115.179 32.5307 114.938 33.0542 114.774 33.6734C114.61 34.2926 114.528 34.8799 114.528 35.4353C114.528 36.4642 114.902 36.9786 115.648 36.9786ZM124.739 39.1912C123.637 39.1912 122.763 38.868 122.116 38.2215C121.479 37.5659 121.16 36.6599 121.16 35.5036C121.16 34.3381 121.374 33.2819 121.802 32.3349C122.239 31.3789 122.845 30.6277 123.619 30.0814C124.393 29.5259 125.267 29.2482 126.241 29.2482C127.343 29.2482 128.212 29.576 128.85 30.2316C129.496 30.8781 129.819 31.7795 129.819 32.9359C129.819 34.1014 129.601 35.1621 129.164 36.1182C128.736 37.0651 128.135 37.8163 127.361 38.3717C126.587 38.9181 125.713 39.1912 124.739 39.1912ZM124.998 36.9786C125.435 36.9786 125.813 36.7647 126.132 36.3367C126.45 35.9088 126.692 35.3852 126.856 34.766C127.02 34.1469 127.101 33.5596 127.101 33.0042C127.101 32.4761 127.001 32.0891 126.801 31.8432C126.61 31.5883 126.337 31.4608 125.982 31.4608C125.544 31.4608 125.167 31.6748 124.848 32.1027C124.529 32.5307 124.288 33.0542 124.124 33.6734C123.96 34.2926 123.878 34.8799 123.878 35.4353C123.878 36.4642 124.252 36.9786 124.998 36.9786Z" fill="#45D91E"/>
</svg>
