<svg width="26" height="25" viewBox="0 0 26 25" fill="none" xmlns="http://www.w3.org/2000/svg">
<path fill-rule="evenodd" clip-rule="evenodd" d="M23.4009 14.2067L22.583 16.83C22.4042 17.4035 21.9518 17.8618 21.2876 18.1993L21.2876 18.1993C20.4198 18.64 19.1904 18.8745 17.7366 18.8901L19.7656 12.3823C20.2827 12.7472 20.7413 13.1221 21.1325 13.4998L22.6094 13.9597L22.6093 13.9602L23.4009 14.2067ZM10.8523 8.87302L10.8522 8.87332C9.69377 8.67579 8.59637 8.58447 7.60354 8.59512L5.57454 15.1029C6.38563 15.6753 7.34082 16.2231 8.40657 16.7182L8.40665 16.7179C9.32468 17.1444 10.3246 17.5318 11.3851 17.862L11.385 17.8622C12.4457 18.1924 13.489 18.4413 14.487 18.6115L14.4871 18.6115C15.6453 18.8089 16.7425 18.9003 17.7352 18.8896L19.7642 12.3818C18.9532 11.8095 17.9983 11.2618 16.9328 10.7668L16.9329 10.7666C16.0148 10.3402 15.0148 9.95282 13.9543 9.62256L13.9543 9.6224C12.8937 9.29212 11.8504 9.0432 10.8523 8.87302ZM4.36557 8.27871L5.84189 8.73843C6.37847 8.64968 6.96902 8.60151 7.60202 8.5947L5.57302 15.1025C4.3854 14.2644 3.50688 13.3735 3.04312 12.5182L3.04336 12.5174C2.68853 11.8626 2.57668 11.2286 2.75548 10.6551L3.57336 8.03183L4.36562 8.27853L4.36557 8.27871Z" fill="#2596AA"/>
<mask id="mask0_213_3485" style="mask-type:luminance" maskUnits="userSpaceOnUse" x="3" y="6" width="21" height="11">
<path fill-rule="evenodd" clip-rule="evenodd" d="M22.754 11.8043C21.5438 9.99856 18.5203 8.11148 14.6947 6.97538C9.24011 5.35552 4.22031 5.87539 3.48265 8.13653C2.74498 10.3977 6.56878 13.5438 12.0234 15.1637C17.4779 16.7835 22.4977 16.2637 23.2354 14.0026C23.4555 13.3278 23.2698 12.5748 22.7554 11.8065L22.754 11.8043Z" fill="white"/>
</mask>
<g mask="url(#mask0_213_3485)">
<path fill-rule="evenodd" clip-rule="evenodd" d="M22.754 11.8043C21.5438 9.99856 18.5203 8.11148 14.6947 6.97538C9.24011 5.35552 4.22031 5.87539 3.48265 8.13653C2.74498 10.3977 6.56878 13.5438 12.0234 15.1637C17.4779 16.7835 22.4977 16.2637 23.2354 14.0026C23.4555 13.3278 23.2698 12.5748 22.7554 11.8065L22.754 11.8043Z" fill="url(#paint0_linear_213_3485)"/>
</g>
<mask id="mask1_213_3485" style="mask-type:luminance" maskUnits="userSpaceOnUse" x="4" y="6" width="19" height="10">
<path fill-rule="evenodd" clip-rule="evenodd" d="M14.3666 7.25535C9.39186 5.67806 4.8588 6.03342 4.24178 8.04904C3.62475 10.0647 7.1574 12.9773 12.1322 14.5546C17.107 16.1319 21.64 15.7765 22.257 13.7609C22.437 13.173 22.2641 12.509 21.8051 11.8238C20.6907 10.16 17.8903 8.37257 14.3666 7.25535Z" fill="white"/>
</mask>
<g mask="url(#mask1_213_3485)">
<path fill-rule="evenodd" clip-rule="evenodd" d="M4.24178 8.04904C3.62475 10.0647 7.1574 12.9773 12.1322 14.5546C17.107 16.1319 21.64 15.7765 22.257 13.7609C22.437 13.173 22.2641 12.509 21.8051 11.8238C20.6907 10.16 17.8903 8.37257 14.3666 7.25535C9.39186 5.67806 4.8588 6.03342 4.24178 8.04904Z" fill="url(#paint1_linear_213_3485)"/>
</g>
<mask id="mask2_213_3485" style="mask-type:luminance" maskUnits="userSpaceOnUse" x="4" y="7" width="19" height="9">
<path fill-rule="evenodd" clip-rule="evenodd" d="M14.3895 7.95192C9.5884 6.49505 5.21036 6.83388 4.61091 8.70874C4.01144 10.5836 7.41754 13.2845 12.2187 14.7414C17.0198 16.1983 21.3978 15.8594 21.9973 13.9846C22.1669 13.4542 22.0161 12.8579 21.6036 12.2422C20.5581 10.6813 17.8324 8.99665 14.3895 7.95192Z" fill="white"/>
</mask>
<g mask="url(#mask2_213_3485)">
<path fill-rule="evenodd" clip-rule="evenodd" d="M14.3895 7.95192C9.5884 6.49505 5.21036 6.83388 4.61091 8.70874C4.01144 10.5836 7.41754 13.2845 12.2187 14.7414C17.0198 16.1983 21.3978 15.8594 21.9973 13.9846C22.1669 13.4542 22.0161 12.8579 21.6036 12.2422C20.5581 10.6813 17.8324 8.99665 14.3895 7.95192Z" fill="url(#paint2_linear_213_3485)"/>
</g>
<path fill-rule="evenodd" clip-rule="evenodd" d="M13.1435 11.5542C13.1937 11.3797 13.2504 11.2021 13.3133 11.024C13.3754 10.8483 13.4403 10.6809 13.5069 10.5235C13.9099 9.57082 14.3835 8.96025 14.6666 9.03982C14.9497 9.11939 14.9802 9.87163 14.7479 10.8723L13.7469 10.5909C13.6838 10.7494 13.6215 10.9174 13.5612 11.0936C13.5 11.2723 13.444 11.45 13.3935 11.6245L14.4362 11.9175C14.0212 13.0579 13.4541 13.9134 13.1129 13.8175C12.7716 13.7216 12.8094 12.7174 13.1435 11.5542ZM14.5413 11.9465L15.415 12.1921L14.9902 13.838L16.4787 14.2564L17.3101 10.1419L16.0366 9.78396L15.6876 11.1359L14.8488 10.9002C15.1005 9.7813 15.0268 8.93152 14.6658 8.83007C14.3048 8.72862 13.7328 9.39689 13.2695 10.4563L10.4467 9.66293L9.95588 10.6578L12.8962 11.4842C12.5107 12.793 12.4999 13.954 12.9431 14.0786C13.3862 14.2031 14.075 13.2327 14.5413 11.9465Z" fill="white"/>
<defs>
<linearGradient id="paint0_linear_213_3485" x1="24.4586" y1="2.4875" x2="4.45187" y2="0.194406" gradientUnits="userSpaceOnUse">
<stop stop-color="#57E4B0"/>
<stop offset="1" stop-color="#57E4B0"/>
</linearGradient>
<linearGradient id="paint1_linear_213_3485" x1="2.37288" y1="15.8346" x2="18.338" y2="18.1551" gradientUnits="userSpaceOnUse">
<stop stop-color="#67F4AF"/>
<stop offset="1" stop-color="#0060A7"/>
</linearGradient>
<linearGradient id="paint2_linear_213_3485" x1="23.3959" y1="4.68862" x2="5.55225" y2="2.13576" gradientUnits="userSpaceOnUse">
<stop stop-color="#63FCB0"/>
<stop offset="1" stop-color="#36B1AC"/>
</linearGradient>
</defs>
</svg>
