<svg width="34" height="20" viewBox="0 0 34 20"  xmlns="http://www.w3.org/2000/svg">
<path d="M32.1248 14.6943C31.4075 13.8395 30.5972 13.0763 29.8135 12.3383C29.5381 12.0788 29.2532 11.8106 28.9788 11.5442C28.9787 11.5442 28.9787 11.5441 28.9786 11.544C28.6096 11.1861 28.4289 10.9321 28.4101 10.7444C28.3915 10.56 28.5183 10.2863 28.8098 9.88184C29.2458 9.27345 29.7104 8.66403 30.16 8.07473C30.5595 7.55087 30.9726 7.00915 31.3685 6.46435L31.4574 6.34203C32.2299 5.27882 33.0287 4.17942 33.4567 2.83968C33.5789 2.45556 33.7059 1.88713 33.3997 1.38813C33.0934 0.888989 32.5255 0.741054 32.1253 0.673299C31.9299 0.639997 31.7444 0.637243 31.5718 0.637243L26.5609 0.632825C25.6945 0.618479 25.0935 1.02681 24.766 1.84679C24.5038 2.50167 24.1942 3.26062 23.8356 3.98058C23.1494 5.37046 22.2774 6.9713 21.0136 8.30508L20.9574 8.36451C20.8714 8.45584 20.7308 8.60518 20.6586 8.63944C20.5217 8.55388 20.3637 8.06454 20.3709 7.80819C20.3711 7.80185 20.3712 7.79557 20.3712 7.7893L20.3667 2.0318C20.3667 2.00254 20.3647 1.97327 20.3607 1.94426C20.2483 1.12287 20.0292 0.299426 18.7219 0.0428776C18.6799 0.0346163 18.6373 0.0305176 18.5947 0.0305176H13.3822C12.4015 0.0305176 11.8828 0.477076 11.467 0.961227C11.3466 1.10237 11.0268 1.47714 11.1897 1.93529C11.3546 2.39889 11.8459 2.49143 12.0071 2.52178C12.5752 2.62899 12.8689 2.94823 12.9599 3.55854C13.1396 4.74439 13.1616 6.01299 13.0293 7.54888C12.9924 7.96125 12.9237 8.27466 12.813 8.53531C12.7823 8.60749 12.7554 8.65219 12.7366 8.67851C12.7066 8.66647 12.6599 8.64341 12.5952 8.59942C12.196 8.32782 11.8952 7.90559 11.6043 7.4974C10.4423 5.86608 9.46497 4.06434 8.61594 1.98845C8.2663 1.13779 7.609 0.662668 6.76635 0.650372C5.16092 0.623795 3.67611 0.624435 2.22858 0.652421C1.54585 0.664205 1.06708 0.87791 0.805343 1.28771C0.543288 1.69828 0.552884 2.22175 0.833938 2.84384C2.84305 7.28638 4.66733 10.5182 6.74884 13.3228C8.21445 15.2973 9.6898 16.6679 11.3918 17.6362C13.18 18.6535 15.1967 19.1521 17.5363 19.152C17.8024 19.152 18.0731 19.1455 18.3474 19.1325C19.7908 19.0671 20.3781 18.4962 20.4422 17.0983C20.4781 16.3594 20.5608 15.7609 20.8477 15.2409C20.928 15.0953 21.0185 14.9977 21.0899 14.9798C21.1658 14.961 21.3003 15.0072 21.4499 15.1038C21.7234 15.2804 21.9589 15.52 22.1526 15.7302C22.3489 15.9439 22.5473 16.1647 22.7393 16.3781C23.1478 16.8326 23.5702 17.3026 24.0128 17.7509C25.0138 18.7656 26.1677 19.2309 27.444 19.1334L32.0298 19.1355C32.03 19.1355 32.03 19.1355 32.0301 19.1355C32.0446 19.1355 32.0592 19.1351 32.0738 19.1341C32.6027 19.0991 33.06 18.8079 33.3286 18.335C33.652 17.7656 33.6471 17.0443 33.3153 16.4048C32.969 15.74 32.5198 15.1678 32.1248 14.6943ZM32.1847 17.6927C32.1215 17.8041 32.0435 17.8244 32.0032 17.8293L27.4184 17.8272C27.4183 17.8272 27.4181 17.8272 27.4179 17.8272C27.3998 17.8272 27.3817 17.8279 27.3638 17.8294C26.4605 17.9042 25.6928 17.5885 24.9503 16.836C24.5292 16.4094 24.1172 15.951 23.7187 15.5077C23.5245 15.2917 23.3238 15.0683 23.1221 14.8487C22.8719 14.5771 22.5627 14.2649 22.1654 14.0083C21.5706 13.6244 21.0777 13.636 20.769 13.7134C20.4635 13.7899 20.0293 14.0083 19.696 14.6131C19.2643 15.3956 19.169 16.2398 19.1302 17.0373C19.1078 17.525 19.0249 17.6539 18.9902 17.6866C18.9448 17.7295 18.7931 17.8049 18.2868 17.8279C15.8539 17.9417 13.8122 17.5084 12.0442 16.5025C10.5061 15.6275 9.15931 14.3705 7.80588 12.5472C5.78202 9.82042 4.00128 6.66268 2.03216 2.30853C1.9608 2.15079 1.93877 2.05236 1.9324 1.99966C1.98263 1.98326 2.08078 1.96168 2.25286 1.95854C3.6857 1.93094 5.15499 1.93017 6.74594 1.95656C6.96375 1.95976 7.21176 2.02476 7.39956 2.48169C8.28665 4.6507 9.31137 6.53832 10.5324 8.25257C10.8567 8.70758 11.2602 9.27396 11.8533 9.67748C12.3965 10.0474 12.8374 10.0297 13.1116 9.94979C13.3859 9.8698 13.7667 9.64758 14.0232 9.0438C14.1886 8.65462 14.2886 8.21639 14.3381 7.66269C14.4796 6.01984 14.4545 4.65397 14.2593 3.36565C14.1216 2.44263 13.6423 1.77583 12.8873 1.43532C13.0214 1.3659 13.1725 1.33696 13.3823 1.33696H18.5267C18.8161 1.40151 18.8734 1.47733 18.893 1.50327C18.9764 1.61349 19.024 1.8742 19.0532 2.07791L19.0575 7.78232C19.0459 8.32916 19.3132 9.54197 20.2232 9.87454C20.2307 9.87729 20.2382 9.87985 20.2458 9.88229C21.0742 10.1515 21.6223 9.56996 21.9164 9.2575L21.9689 9.20204C23.3533 7.74094 24.2855 6.03374 25.0138 4.55855C25.3934 3.79678 25.7149 3.00882 25.9868 2.32959C26.1228 1.98896 26.2466 1.93286 26.5419 1.93907C26.546 1.9392 26.55 1.9392 26.5541 1.9392L31.5714 1.94362C31.6881 1.94362 31.8099 1.94496 31.9044 1.96104C32.1434 2.00151 32.2419 2.05082 32.2744 2.07125C32.2777 2.1091 32.2769 2.21797 32.2047 2.44519C31.8407 3.58442 31.1374 4.55234 30.3928 5.57712L30.3039 5.69963C29.917 6.23194 29.5085 6.76752 29.1135 7.28555C28.6582 7.88248 28.1876 8.49964 27.7413 9.1225C26.7872 10.4462 26.8711 11.3246 28.0617 12.4793C28.3431 12.7525 28.6315 13.0241 28.9105 13.2868C29.7014 14.0318 30.4485 14.7355 31.1153 15.53C31.4644 15.9484 31.8601 16.4509 32.1485 17.0048C32.2989 17.2947 32.262 17.5566 32.1847 17.6927Z" fill="#CCA75D"/>
</svg>
