<svg xmlns="http://www.w3.org/2000/svg" width="38.97" height="39"><path d="M37.76 14.922a4.151 4.151 0 00-3.27-1.655h-2.87C31.35 5.897 26.01-.001 19.49-.001S7.63 5.899 7.36 13.267H4.49a4.151 4.151 0 00-3.27 1.655 5.882 5.882 0 00-1.06 4.991L3.6 35.099a4.671 4.671 0 004.33 3.9h23.11a4.663 4.663 0 004.33-3.9l3.45-15.186a5.949 5.949 0 00-1.06-4.991zM19.49 3.246c4.74 0 8.62 4.442 8.88 10.021H10.61c.26-5.567 4.14-10.021 8.88-10.021zm16.16 15.943l-3.44 15.194a1.569 1.569 0 01-1.16 1.369H7.93a1.557 1.557 0 01-1.16-1.369L3.32 19.189c-.18-.8-.29-2.675 1.17-2.675h30c1.57 0 1.35 1.871 1.16 2.675z" fill="#434242" fill-rule="evenodd"/></svg>