<svg xmlns="http://www.w3.org/2000/svg" width="24.03" height="24" viewBox="0 0 30.03 30"><path d="M29.1 11.479a3.21 3.21 0 00-2.52-1.273h-2.21C24.16 4.537 20.05 0 15.02 0S5.88 4.537 5.67 10.206H3.46a3.2 3.2 0 00-2.52 1.273 4.547 4.547 0 00-.82 3.839L2.78 27a3.585 3.585 0 003.33 3h17.81a3.6 3.6 0 003.34-3l2.66-11.682a4.547 4.547 0 00-.82-3.839zM15.02 2.5c3.65 0 6.64 3.417 6.84 7.708H8.18C8.37 5.92 11.36 2.5 15.02 2.5zm12.46 12.264l-2.66 11.688a1.193 1.193 0 01-.89 1.053H6.11a1.193 1.193 0 01-.89-1.053L2.56 14.764c-.14-.618-.23-2.057.9-2.057h23.12c1.21-.007 1.04 1.435.9 2.054z" fill="#fff" fill-rule="evenodd"/></svg>