<svg xmlns="http://www.w3.org/2000/svg" width="24" height="24" viewBox="0 0 29 30"><path d="M28.45 16.879a13.5 13.5 0 00-.96-1.183 3.053 3.053 0 00-2.26-1.03 3.1 3.1 0 00-1.46.374 5.888 5.888 0 00-2.41 2.354 3.51 3.51 0 00-.42 1.181c-.58-1.646-1.27-2.94-2.08-3.174l-3.52-1.086c5.96 0 2.62-14.314-3.12-14.314h-1.6c-6.7 0-8.78 14.314-3.12 14.314l-3.53 1.086C1.49 16.126.01 27.025.01 27.025a.427.427 0 00-.01.113.945.945 0 00.94.95h13.63a3.855 3.855 0 00.35.379 12.583 12.583 0 001.16.971 2.907 2.907 0 001.8.563c.14 0 .27-.006.39-.013h.03a6.188 6.188 0 002.27-.7 14.205 14.205 0 003.71-2.729c.23-.227 1.1-1.111 1.33-1.352a14.418 14.418 0 002.69-3.766 6.626 6.626 0 00.69-2.307V19.1a3.244 3.244 0 00-.54-2.221zm-14.64-1.736l-.23 1.9a.172.172 0 01-.03.1l-1.84 4.049a.334.334 0 01-.29.187.322.322 0 01-.29-.187l-1.85-4.049a.312.312 0 01-.02-.1l-.23-1.9a.315.315 0 01.45-.328 2.363 2.363 0 001.06.274h1.76a2.326 2.326 0 001.05-.274.322.322 0 01.33.026.345.345 0 01.13.302zm1.48-6.114a6.764 6.764 0 01-1.14 2.67c-.78 1.142-1.5 1.653-1.88 1.653h-1.7c-.38 0-1.11-.511-1.88-1.654a6.616 6.616 0 01-1.14-2.669l-.02-.133-.31-.2a.319.319 0 01-.14-.27v-.533a.319.319 0 01.32-.322h.13V6.463a.309.309 0 01.15-.274.316.316 0 01.31-.014 3.645 3.645 0 001.58.275c.3 0 .61-.015.87-.029l.24-.012c.11 0 .22-.007.32-.007a10.346 10.346 0 013.21.6 5.521 5.521 0 00.83.225.323.323 0 01.27.319v.024h.13a.319.319 0 01.32.322v.531a.328.328 0 01-.15.27l-.3.2zm12.07 9.98v.008a4.739 4.739 0 01-.53 1.717 12.67 12.67 0 01-2.39 3.343c-.22.226-1.09 1.107-1.31 1.328a12.592 12.592 0 01-3.29 2.432 4.772 4.772 0 01-1.69.542h-.01c-.1.005-.2.01-.3.01a1.345 1.345 0 01-.85-.242 11.37 11.37 0 01-1.03-.854 1.524 1.524 0 01-.33-1.866 4.344 4.344 0 011.71-1.79 1.635 1.635 0 01.83-.251 1.3 1.3 0 01.31.038 2.778 2.778 0 011.01.5.64.64 0 00.38.12.9.9 0 00.52-.166 12.353 12.353 0 002.54-2.581.849.849 0 00.05-.913 2.959 2.959 0 01-.5-1.025 1.593 1.593 0 01.21-1.159 4.371 4.371 0 011.77-1.731 1.535 1.535 0 01.73-.192 1.472 1.472 0 011.1.522 12.516 12.516 0 01.85 1.046 1.692 1.692 0 01.22 1.164z" fill="#ef7d1b" fill-rule="evenodd"/></svg>