<?xml version="1.0" encoding="utf-8"?><svg viewBox="0 0 512 512" xmlns="http://www.w3.org/2000/svg" xmlns:xlink="http://www.w3.org/1999/xlink"><style>:root>svg{display:none}:root>svg:target{display:block}</style><svg fill="none" viewBox="0 0 55 55" id="icon-delivery" xmlns="http://www.w3.org/2000/svg"><path d="M34 53.389H1.61V4.95h10.885v1.587h-8.56a.806.806 0 00-.805.805v43.653c0 .445.36.806.806.806h3.432a.806.806 0 000-1.611H4.742V8.149h7.754V8.9c0 .445.36.806.806.806h17.186c.445 0 .805-.361.805-.806v-.751h7.754v21.128a.806.806 0 101.61 0V7.343a.806.806 0 00-.805-.805h-8.559V4.95h10.885v14.325a.806.806 0 101.61 0V4.146a.806.806 0 00-.805-.806H26.657L25.763.559A.805.805 0 0024.996 0h-6.202c-.35 0-.66.226-.767.559l-.895 2.78H.806A.806.806 0 000 4.146v50.05c0 .444.36.805.806.805H34a.806.806 0 000-1.611zM17.72 4.95c.35 0 .66-.226.766-.559l.895-2.78h5.028l.894 2.78a.806.806 0 00.767.56h3.612v3.142H14.107V4.951h3.612z" fill="#00FFB7"/><path d="M42.984 22.227a.806.806 0 00-.806.806v5.756a.806.806 0 101.611 0v-5.756a.806.806 0 00-.805-.806zM11.057 51.802H31.24a.806.806 0 000-1.611H11.057a.806.806 0 000 1.611zM43.093 31.183c-6.566 0-11.908 5.342-11.908 11.909 0 1.982.497 3.945 1.438 5.677a.806.806 0 101.415-.77 10.31 10.31 0 01-1.242-4.907c0-5.678 4.62-10.297 10.296-10.297 5.678 0 10.297 4.619 10.297 10.297 0 5.678-4.619 10.297-10.297 10.297a10.25 10.25 0 01-7.108-2.848.806.806 0 00-1.113 1.165A11.853 11.853 0 0043.092 55C49.659 55 55 49.658 55 43.092c0-6.567-5.342-11.909-11.907-11.909z" fill="#00FFB7"/><path d="M48.695 37.561a.806.806 0 00-.108-1.134 8.65 8.65 0 00-5.494-1.973c-4.763 0-8.637 3.875-8.637 8.638 0 4.762 3.874 8.637 8.637 8.637 4.762 0 8.636-3.875 8.636-8.637 0-1.197-.24-2.355-.713-3.443a.805.805 0 10-1.478.642 7.034 7.034 0 01-6.446 9.826c-3.873 0-7.025-3.151-7.025-7.025 0-3.875 3.152-7.026 7.026-7.026 1.628 0 3.215.57 4.468 1.604a.805.805 0 001.134-.109z" fill="#00FFB7"/><path d="M45.995 40.576l-3.885 3.886-1.92-1.92a.806.806 0 00-1.14 1.139l2.49 2.49a.806.806 0 001.14 0l4.455-4.456a.806.806 0 00-1.14-1.139zM10.647 17.13a2.42 2.42 0 002.417-2.418 2.42 2.42 0 00-2.417-2.417 2.42 2.42 0 00-2.417 2.417 2.42 2.42 0 002.417 2.417zm0-3.223a.807.807 0 010 1.61.806.806 0 010-1.61zM34.754 13.79H15.919a.806.806 0 100 1.61h18.835a.806.806 0 000-1.61zM10.647 24.515a2.42 2.42 0 002.417-2.418 2.42 2.42 0 00-2.417-2.417 2.42 2.42 0 00-2.417 2.418 2.42 2.42 0 002.417 2.417zm0-3.223a.806.806 0 11-.002 1.613.806.806 0 01.002-1.613zM34.754 21.175H15.919a.806.806 0 100 1.61h18.835a.806.806 0 000-1.61zM10.647 31.9a2.42 2.42 0 002.417-2.417 2.42 2.42 0 00-2.417-2.417 2.42 2.42 0 00-2.417 2.417 2.42 2.42 0 002.417 2.417zm0-3.223a.807.807 0 010 1.611.806.806 0 010-1.61zM35.559 29.366a.806.806 0 00-.805-.806H15.919a.806.806 0 100 1.611h18.835c.444 0 .805-.36.805-.805zM10.647 39.285a2.42 2.42 0 002.417-2.417 2.42 2.42 0 00-2.417-2.417 2.42 2.42 0 00-2.417 2.417 2.42 2.42 0 002.417 2.417zm0-3.223a.806.806 0 11-.002 1.613.806.806 0 01.002-1.613zM29.383 35.945H15.919a.806.806 0 000 1.611h13.464a.806.806 0 000-1.61zM10.647 46.67a2.42 2.42 0 002.417-2.417 2.42 2.42 0 00-2.417-2.417 2.42 2.42 0 00-2.417 2.417 2.42 2.42 0 002.417 2.417zm0-3.222a.807.807 0 010 1.611.806.806 0 010-1.611zM28.309 44.942a.806.806 0 000-1.612h-12.39a.806.806 0 100 1.612h12.39z" fill="#00FFB7"/></svg><svg fill="none" viewBox="0 0 18 18" id="icon-location" xmlns="http://www.w3.org/2000/svg"><path d="M9 0a6.757 6.757 0 00-6.75 6.75c0 4.679 6.093 10.826 6.352 11.086a.565.565 0 00.796 0c.259-.26 6.352-6.407 6.352-11.086A6.757 6.757 0 009 0zm0 16.624c-1.343-1.438-5.625-6.3-5.625-9.874A5.631 5.631 0 019 1.125a5.631 5.631 0 015.625 5.625c0 3.57-4.282 8.436-5.625 9.874z" fill="#00FFB7"/><path d="M9 3.375A3.38 3.38 0 005.625 6.75 3.38 3.38 0 009 10.125a3.38 3.38 0 003.375-3.375A3.38 3.38 0 009 3.375zM9 9C7.76 9 6.75 7.99 6.75 6.75S7.76 4.5 9 4.5s2.25 1.01 2.25 2.25S10.24 9 9 9z" fill="#00FFB7"/></svg><svg fill="none" viewBox="0 0 18 18" id="icon-mail" xmlns="http://www.w3.org/2000/svg"><path d="M17.988 3.877a.552.552 0 00-.023-.113c-.088-.535-.53-.951-1.09-.951H1.125c-.56 0-1.002.416-1.09.951a.554.554 0 00-.023.113c0 .021-.012.04-.012.06v10.126c0 .02.011.04.012.061.005.039.01.075.023.112.086.534.53.951 1.09.951h15.75c.56 0 1.003-.417 1.09-.952a.541.541 0 00.023-.112c0-.02.012-.04.012-.06V3.937c0-.02-.011-.039-.012-.06zm-1.502.06l-6.244 4.58L9 9.426l-1.24-.91h-.002l-6.244-4.58h14.972zM1.125 5.048l5.391 3.954-5.391 3.952V5.048zm.39 9.015L7.467 9.7l1.199.88a.56.56 0 00.666 0l1.2-.88 5.953 4.364H1.514zm15.36-1.109l-5.391-3.952 5.391-3.953v7.905z" fill="#00FFB7"/></svg><svg fill="none" viewBox="0 0 55 55" id="icon-palette" xmlns="http://www.w3.org/2000/svg"><g clip-path="url(#dclip0)" fill="#00FFB7"><path d="M17.93 26.663a4.319 4.319 0 004.314-4.314 4.319 4.319 0 00-4.314-4.314 4.319 4.319 0 00-4.314 4.314 4.319 4.319 0 004.314 4.314zm0-7.017a2.706 2.706 0 012.702 2.703 2.706 2.706 0 01-2.702 2.703 2.706 2.706 0 01-2.703-2.703 2.706 2.706 0 012.703-2.703zM27.427 22.148a4.214 4.214 0 004.21-4.21 4.214 4.214 0 00-4.21-4.208 4.214 4.214 0 00-4.209 4.209 4.214 4.214 0 004.21 4.209zm0-6.807a2.6 2.6 0 012.598 2.598 2.6 2.6 0 01-2.598 2.597 2.6 2.6 0 01-2.597-2.597 2.6 2.6 0 012.598-2.598zM19.662 47.102a4.214 4.214 0 004.209-4.21 4.214 4.214 0 00-4.21-4.208 4.214 4.214 0 00-4.209 4.209 4.214 4.214 0 004.21 4.209zm0-6.807a2.6 2.6 0 012.597 2.598 2.6 2.6 0 01-2.598 2.598 2.6 2.6 0 01-2.597-2.598 2.6 2.6 0 012.598-2.598zM29.573 50.282a4.214 4.214 0 004.21-4.209 4.214 4.214 0 00-4.21-4.209 4.214 4.214 0 00-4.21 4.21 4.214 4.214 0 004.21 4.208zm0-6.806a2.6 2.6 0 012.598 2.597 2.6 2.6 0 01-2.598 2.598 2.6 2.6 0 01-2.598-2.598 2.6 2.6 0 012.598-2.597zM9.126 32.97a4.917 4.917 0 004.912 4.912 4.917 4.917 0 004.911-4.912 4.917 4.917 0 00-4.912-4.912 4.917 4.917 0 00-4.911 4.912zm4.912-3.3c1.82 0 3.3 1.48 3.3 3.3 0 1.82-1.48 3.3-3.3 3.3-1.82 0-3.301-1.48-3.301-3.3 0-1.82 1.48-3.3 3.3-3.3z"/><path d="M4.957 32.125c0 12.154 10.47 21.392 22.687 22.136a.806.806 0 10.098-1.608c-11.873-.724-21.174-9.74-21.174-20.528 0-12.222 11.637-21.653 24.936-20.448a7.294 7.294 0 002.128 1.506c-.064.294-.053.608.025.892l1.594 5.865a1.722 1.722 0 00-.352 1.568l.38 1.397c.23.85 1.08 1.394 1.949 1.243l.753 3.26c-2.722 1.24-4.21 2.9-4.21 4.717 0 1.825 1.52 3.513 4.282 4.753a7.736 7.736 0 012.53 1.797c.886 3.89 1.158 5.125 1.808 7.08-.602 2.623-2.4 4.634-4.962 5.536a24.768 24.768 0 01-6.047 1.311.806.806 0 00.142 1.605 26.379 26.379 0 006.44-1.396c2.37-.834 4.242-2.525 5.297-4.705 1.078 2.643 2.06 4.276 2.972 5.869a2.04 2.04 0 003.81-1.036c-.027-2.7.044-6.756-1.852-12.8a.806.806 0 10-1.538.482c1.78 5.673 1.75 9.437 1.78 12.334a.429.429 0 01-.802.218c-3.39-5.911-3.816-7.665-5.525-15.064l-3.32-14.376 2.367-.644 1.2 3.825 3.175 10.118a.806.806 0 101.537-.482l-2.938-9.366c4.439-1.798 5.68-7.76 1.88-11.078a24.361 24.361 0 00-5.19-3.458l-.131-.484a1.87 1.87 0 00-.432-.781c.813-1.201 1.625-3.059 1.034-5.232-.567-2.086-1.962-2.891-3.438-3.743-.896-.517-1.822-1.052-2.715-1.94a1.55 1.55 0 00-2.614.71c-.32 1.219-.848 2.149-1.358 3.048-.852 1.499-1.888 3.243-.79 5.763-13.676-.59-25.416 9.33-25.416 22.136zm35.03 3.972a9.78 9.78 0 00-1.273-.69c-2.117-.95-3.332-2.146-3.332-3.282 0-1.08 1.07-2.19 2.97-3.112l1.635 7.084zm4.96-18.778c2.852 2.491 1.932 6.933-1.304 8.324l-.936-2.984a1.726 1.726 0 001.05-2.06l-.379-1.396a1.724 1.724 0 00-1.098-1.174l-.882-3.245a22.566 22.566 0 013.55 2.535zm-3.256 2.23a.109.109 0 01.132.076l.38 1.397a.108.108 0 01-.076.132l-5.16 1.404a.108.108 0 01-.134-.076l-.38-1.397a.11.11 0 01.077-.132l5.16-1.403zm-1.044-1.385l-3.92 1.065-1.515-5.577a.273.273 0 01.189-.33l3.4-.925a.27.27 0 01.33.19l1.516 5.577zM32.564 5.022c.524-.924 1.117-1.968 1.494-3.353 1.023 1.002 2.065 1.603 2.986 2.134 1.333.77 2.296 1.325 2.689 2.77.48 1.767-.346 3.307-1.031 4.211a2 2 0 00-.325.058l-3.399.925a2.02 2.02 0 00-.309.113c-1.425-.585-2.614-1.609-3.021-3.108-.393-1.445.156-2.412.916-3.75z"/></g><defs><clipPath id="dclip0"><path fill="#fff" d="M0 0h55v55H0z"/></clipPath></defs></svg><svg fill="none" viewBox="0 0 24 24" id="icon-phone_header" xmlns="http://www.w3.org/2000/svg"><path d="M2.6 1.076a3.655 3.655 0 00-.206.262C1.26 2.842-.096 5.155.005 7.387c.173 3.738 5.217 8.705 6.759 10.139 1.543 1.433 6.865 6.1 10.602 6a6.3 6.3 0 001.961-.39c1.566-.562 2.98-1.63 3.877-2.415 0 0 .194-.165.268-.244.188-.203.337-.499.455-.904.06-.208.073-.426.073-.573 0-.163-.017-.479-.124-.766-.146-.393-.315-.675-.516-.864-.149-.138-3.518-2.778-3.54-2.793l-.025-.016a2.258 2.258 0 00-2.151-.349c-.327.117-.62.31-.848.555l-1.157 1.24c-.109.116-.31.236-.382.254a1.019 1.019 0 01-.16.018L7.325 9.06a.139.139 0 01-.033-.048l.01-.028c.029-.058.163-.242.33-.423L8.78 7.32a2.242 2.242 0 00.371-2.457c-.137-.282-.325-.492-.412-.592l-.046-.055C8.67 4.19 5.834 1.077 5.706.96 5.391.667 4.894.51 4.188.475c-.392-.018-.884.097-1.17.275a2.073 2.073 0 00-.417.326zm2.14.896c.16.161 2.741 2.989 2.876 3.137l.095.115c.039.044.13.146.183.254a.817.817 0 01-.14.893L6.607 7.613c-.134.144-.46.515-.59.824a1.48 1.48 0 00-.127.594c.014.398.183.769.48 1.048l7.849 7.294c.299.278.733.366 1.291.263.431-.08.899-.406 1.15-.675l1.16-1.242a.752.752 0 01.295-.191.871.871 0 01.603.009c.111.043.203.115.234.14a.915.915 0 00.073.05c.323.251 3.22 2.528 3.377 2.66 0 .001.069.078.165.336a.958.958 0 01.035.277c0 .096-.01.16-.018.182-.072.25-.132.337-.132.34-.046.044-.14.122-.155.136-.82.717-2.082 1.674-3.442 2.162a4.905 4.905 0 01-1.525.308c-2.553.069-6.775-2.988-9.614-5.627-2.84-2.638-6.197-6.626-6.314-9.178-.086-1.84 1.111-3.821 2.096-5.129l.038-.05c.022-.03.062-.086.082-.11.035-.033.087-.065.129-.091.062-.032.254-.077.374-.07.413.02.604.094.62.1z" fill="#00FFB7"/></svg><svg fill="none" viewBox="0 0 55 55" id="icon-price" xmlns="http://www.w3.org/2000/svg"><g clip-path="url(#fclip0)" fill="#00FFB7"><path d="M52.476 8.419L42.905 4.43a4.324 4.324 0 00-3.304 0l-4.596 1.914a.806.806 0 00.62 1.488l4.595-1.914a2.703 2.703 0 012.065 0l9.571 3.987c.931.388 1.533 1.262 1.533 2.224v34.456c0 1.34-1.151 2.43-2.566 2.43h-1.306a.806.806 0 100 1.611h1.306c2.303 0 4.177-1.813 4.177-4.041V12.13c0-1.615-.99-3.072-2.524-3.711zM46.006 49.016H32.468a3.445 3.445 0 00.863-2.288 3.45 3.45 0 00-.816-2.23 3.48 3.48 0 00.88-.64 3.443 3.443 0 001.014-2.45c0-.883-.332-1.69-.877-2.302a3.472 3.472 0 001.761-3.018c0-.88-.33-1.684-.872-2.296.275-.154.53-.346.76-.575a3.447 3.447 0 001.014-2.45 3.47 3.47 0 00-3.466-3.466h-3.613V12.13c0-.963.602-1.837 1.533-2.225l1.465-.61a.806.806 0 10-.62-1.488l-1.465.61c-1.533.64-2.524 2.097-2.524 3.712V27.3H24.14c1.12-3.542 1.025-7.239-.283-11.53a3.111 3.111 0 00-1.143-1.609 3.144 3.144 0 00-1.872-.612c-.875 0-1.688.349-2.29.982a3.127 3.127 0 00-.862 2.337c.252 4.844-1.983 6.512-5.076 8.82-1.018.76-2.13 1.59-3.225 2.61V27.24a.806.806 0 00-.805-.805H.806A.806.806 0 000 27.24v22.85c0 .445.36.806.806.806h7.777c.445 0 .806-.36.806-.806v-2.027c1.53.146 2.648.45 3.733 1.283a4.094 4.094 0 002.475.847h14.208a4.29 4.29 0 001.877.433h14.323a.806.806 0 100-1.611zm-31.903-.948c-1.52-1.164-3.143-1.487-4.714-1.623v-9.408a.806.806 0 10-1.612 0v12.249H1.611V28.047h6.166v5.48a.806.806 0 101.612 0v-2.94c1.347-1.488 2.79-2.565 4.188-3.608 3.095-2.31 6.018-4.49 5.721-10.195a1.53 1.53 0 01.423-1.143 1.53 1.53 0 011.12-.481 1.542 1.542 0 011.474 1.081c1.333 4.37 1.312 8.048-.065 11.572a.806.806 0 00.75 1.1h9.73a1.857 1.857 0 011.311 3.165c-.351.35-.817.544-1.312.544h-3.31a.805.805 0 100 1.61h2.409a1.857 1.857 0 011.311 3.168c-.35.35-.815.542-1.311.542H29.42a.805.805 0 100 1.612h1.524a1.856 1.856 0 011.311 3.165c-.35.35-.816.544-1.311.544h-2.409a.805.805 0 100 1.611h1.33a1.856 1.856 0 011.312 3.166c-.327.326-.844.535-1.23.541l-14.35.002c-.53 0-1.061-.183-1.494-.515z"/><path d="M44.16 12.488a3.074 3.074 0 00-3.07-3.07 3.074 3.074 0 00-3.07 3.07 3.074 3.074 0 003.07 3.07 3.074 3.074 0 003.07-3.07zm-4.529 0a1.46 1.46 0 011.459-1.459 1.46 1.46 0 011.459 1.46 1.46 1.46 0 01-1.459 1.458 1.46 1.46 0 01-1.459-1.459zM41.593 39.979h-1.445c-.76 0-1.38-.62-1.38-1.38a.806.806 0 10-1.611 0 2.994 2.994 0 002.908 2.989v1.783a.806.806 0 101.611 0v-1.783a2.994 2.994 0 002.909-2.99v-1.115a2.375 2.375 0 00-1.645-2.265l-3.64-1.182a.768.768 0 01-.532-.732v-1.597c0-.618.503-1.121 1.121-1.121h1.964c.618 0 1.12.503 1.12 1.121a.805.805 0 101.612 0 2.735 2.735 0 00-2.732-2.732h-.177v-1.781a.806.806 0 10-1.61 0v1.78h-.177a2.735 2.735 0 00-2.732 2.733v1.597c0 1.035.66 1.945 1.645 2.265l3.64 1.182a.768.768 0 01.532.732v1.115c0 .761-.62 1.38-1.38 1.38z"/></g><defs><clipPath id="fclip0"><path fill="#fff" d="M0 0h55v55H0z"/></clipPath></defs></svg><svg fill="none" viewBox="0 0 64 64" id="icon-quote" xmlns="http://www.w3.org/2000/svg"><path d="M0 32V59.43h27.429V32H9.143c0-10.082 8.203-18.285 18.286-18.285V4.572C12.304 4.572 0 16.875 0 32zM64 13.714V4.572C48.875 4.572 36.571 16.875 36.571 32V59.43H64V32H45.714c0-10.082 8.203-18.285 18.286-18.285z" fill="#1E6D57" fill-opacity=".5"/></svg><svg data-name="Layer 1" fill="#fff" viewBox="0 0 128 128" id="icon-search" xmlns="http://www.w3.org/2000/svg"><path d="M85.466 88.137A42.371 42.371 0 0020.059 34.3a42.369 42.369 0 0058.974 60.443 1.25 1.25 0 00-1.594-1.927 39.869 39.869 0 01-55.5-56.873 39.564 39.564 0 0128.747-13.727 39.868 39.868 0 0132.139 65.215 1.249 1.249 0 00.079 1.68l21.76 21.76a2.681 2.681 0 010 3.785 2.74 2.74 0 01-3.784 0L83.736 97.513a1.25 1.25 0 00-1.767 1.768l17.143 17.143a5.176 5.176 0 007.319-7.32z" fill="#00FFB7"/><path d="M27.524 39.572a1.249 1.249 0 00-1.762.139 34.5 34.5 0 108.773-7.391 1.25 1.25 0 001.271 2.152 32.036 32.036 0 11-8.144 6.862 1.25 1.25 0 00-.138-1.762z" fill="#00FFB7"/><path d="M30.552 35.07q-.3.238-.593.485a1.25 1.25 0 101.6 1.917q.271-.226.546-.446a1.25 1.25 0 00-1.557-1.956zM36.753 56.522h-3.147a3.293 3.293 0 00-3.289 3.289v4.5a3.293 3.293 0 003.289 3.289h3.146a1.25 1.25 0 000-2.5h-3.146a.79.79 0 01-.789-.789v-4.5a.789.789 0 01.789-.789h3.146a3.313 3.313 0 002.336-5.64l-2.225-2.225a.79.79 0 010-1.116l3.185-3.185a.807.807 0 011.115 0l2.226 2.224a3.313 3.313 0 005.639-2.336V43.6a.79.79 0 01.789-.789h4.5a.79.79 0 01.789.789v3.146a3.314 3.314 0 005.64 2.336l2.225-2.225a.808.808 0 011.115 0l3.185 3.186a.787.787 0 010 1.115l-2.225 2.225a1.25 1.25 0 001.768 1.768l2.225-2.224a3.288 3.288 0 000-4.651l-3.185-3.185a3.367 3.367 0 00-4.65 0l-2.225 2.225a.794.794 0 01-.886.153.781.781 0 01-.486-.721V43.6a3.293 3.293 0 00-3.289-3.289h-4.5a3.293 3.293 0 00-3.289 3.289v3.146a.793.793 0 01-.513.733.783.783 0 01-.858-.165l-2.226-2.224a3.367 3.367 0 00-4.65 0L35.1 48.274a3.293 3.293 0 000 4.651l2.225 2.225a.793.793 0 01.153.886.784.784 0 01-.725.486zM67.389 67.6h3.146a3.293 3.293 0 003.289-3.289v-4.5a3.293 3.293 0 00-3.289-3.289h-3.146a1.25 1.25 0 000 2.5h3.146a.789.789 0 01.789.789v4.5a.79.79 0 01-.789.789h-3.146a3.314 3.314 0 00-2.336 5.639l2.225 2.226a.787.787 0 010 1.115l-3.186 3.19a.789.789 0 01-1.115 0l-2.225-2.225a3.314 3.314 0 00-5.64 2.336v3.147a.789.789 0 01-.789.788h-4.5a.789.789 0 01-.789-.788V77.38a3.313 3.313 0 00-5.639-2.336l-2.23 2.226a.789.789 0 01-1.115 0l-3.185-3.185a.79.79 0 010-1.116l2.225-2.225a1.25 1.25 0 10-1.768-1.768L35.1 71.2a3.293 3.293 0 000 4.651l3.185 3.185a3.292 3.292 0 004.65 0l2.226-2.225a.792.792 0 01.886-.152.781.781 0 01.485.721v3.147a3.293 3.293 0 003.289 3.288h4.5a3.293 3.293 0 003.289-3.288V77.38a.794.794 0 01.513-.732.782.782 0 01.859.164l2.225 2.225a3.292 3.292 0 004.65 0l3.185-3.185a3.288 3.288 0 000-4.651l-2.222-2.225a.8.8 0 01-.153-.885.784.784 0 01.722-.491z" fill="#00FFB7"/><path d="M52.071 70.783a8.72 8.72 0 10-8.721-8.72 8.73 8.73 0 008.721 8.72zm0-14.94a6.22 6.22 0 11-6.221 6.22 6.227 6.227 0 016.221-6.221zM114.582 29.424h-3.758a1.188 1.188 0 01-1.1-.762 1.175 1.175 0 01.247-1.291l2.658-2.658a3.686 3.686 0 000-5.211l-3.8-3.805a3.689 3.689 0 00-5.212 0l-2.657 2.657a1.188 1.188 0 01-1.324.235A1.175 1.175 0 0198.9 17.5v-3.754a3.69 3.69 0 00-3.685-3.685h-5.378a3.69 3.69 0 00-3.685 3.685V17.5a1.215 1.215 0 01-2.053.851L81.441 15.7a3.689 3.689 0 00-5.212 0l-3.8 3.805a1.25 1.25 0 001.768 1.768L78 17.464a1.188 1.188 0 011.677 0l2.657 2.658a3.715 3.715 0 006.32-2.618v-3.758a1.187 1.187 0 011.185-1.185h5.381a1.187 1.187 0 011.18 1.185V17.5a3.715 3.715 0 006.321 2.618l2.657-2.658a1.188 1.188 0 011.677 0l3.8 3.806a1.185 1.185 0 010 1.675l-2.65 2.659a3.715 3.715 0 002.619 6.321h3.758a1.187 1.187 0 011.186 1.185v5.384a1.187 1.187 0 01-1.186 1.186h-3.758a3.632 3.632 0 00-3.357 2.19 2.02 2.02 0 00-.048.106 3.668 3.668 0 00.786 4.028l2.658 2.658a1.186 1.186 0 010 1.676l-3.8 3.8a1.188 1.188 0 01-1.677 0l-2.657-2.658A3.715 3.715 0 0096.4 54.1v3.758a1.25 1.25 0 102.5 0V54.1a1.188 1.188 0 01.763-1.1 1.175 1.175 0 011.291.248l2.657 2.657a3.689 3.689 0 005.212 0l3.8-3.8a3.686 3.686 0 000-5.211l-2.658-2.658a1.189 1.189 0 01-.233-1.324 1.175 1.175 0 011.085-.729h3.758a3.69 3.69 0 003.686-3.686v-5.388a3.69 3.69 0 00-3.679-3.685z" fill="#00FFB7"/><path d="M93.881 43.354a1.25 1.25 0 10.437 2.461 10.173 10.173 0 10-10.38-15.467 1.25 1.25 0 002.109 1.342 7.673 7.673 0 117.833 11.665z" fill="#00FFB7"/></svg><svg fill="none" viewBox="0 0 18 18" id="icon-tel" xmlns="http://www.w3.org/2000/svg"><path d="M1.95.807a2.74 2.74 0 00-.154.196C.945 2.131-.072 3.866.004 5.54c.13 2.803 3.912 6.529 5.069 7.604 1.157 1.075 5.149 4.576 7.951 4.5.468-.012.963-.11 1.471-.292 1.175-.421 2.235-1.222 2.908-1.812 0 0 .145-.123.201-.182.141-.152.253-.374.341-.679.045-.155.055-.32.055-.429 0-.122-.012-.36-.093-.575-.11-.295-.236-.506-.387-.648a286.796 286.796 0 00-2.654-2.094l-.02-.013a1.695 1.695 0 00-1.613-.262 1.61 1.61 0 00-.636.417l-.868.93a.84.84 0 01-.286.19.77.77 0 01-.12.014L5.493 6.794a.104.104 0 01-.024-.036l.008-.021c.02-.043.122-.181.247-.317l.86-.93c.454-.49.567-1.25.278-1.843-.103-.211-.245-.37-.31-.444l-.034-.041C6.502 3.142 4.375.808 4.28.72 4.044.5 3.672.381 3.142.356c-.294-.014-.663.073-.877.206-.138.086-.24.167-.314.245zm1.605.672c.12.12 2.056 2.242 2.157 2.353l.071.086a.918.918 0 01.137.19.613.613 0 01-.105.67l-.86.931c-.1.109-.345.387-.442.619a1.11 1.11 0 00-.095.445c.01.298.137.577.36.787l5.886 5.47c.224.208.55.274.969.197.323-.06.674-.304.862-.506l.87-.932a.564.564 0 01.221-.143.654.654 0 01.453.006.722.722 0 01.175.105c.021.017.039.029.055.039A456.66 456.66 0 0116.8 13.79s.052.059.124.252a.72.72 0 01.027.208c0 .072-.009.12-.014.136-.054.188-.1.253-.1.255-.033.034-.104.092-.116.102-.614.538-1.56 1.256-2.58 1.621a3.676 3.676 0 01-1.145.232c-1.914.052-5.08-2.241-7.21-4.22-2.13-1.979-4.648-4.97-4.736-6.884-.064-1.38.834-2.866 1.573-3.846l.028-.038c.016-.022.046-.064.062-.083.026-.024.065-.048.096-.068a.759.759 0 01.281-.053c.31.015.453.07.464.075z" fill="#00FFB7"/></svg></svg>