<svg xmlns="http://www.w3.org/2000/svg" width="24" height="13"><path fill="#434242" d="M20.66 8.277a30.146 30.146 0 012.35 2.264 6.432 6.432 0 01.85 1.16.826.826 0 01-.54 1.3h-3.49a2.753 2.753 0 01-2.23-.868c-.49-.471-.94-.973-1.4-1.46a3.184 3.184 0 00-.63-.537.752.752 0 00-1.17.271 3.4 3.4 0 00-.36 1.562A.914.914 0 0112.92 13a9.262 9.262 0 01-5-1.03 10.733 10.733 0 01-3.37-3.016A40.409 40.409 0 01.11 1.392C-.17.792.04.478.73.465c1.14-.021 2.28-.018 3.42 0a1.006 1.006 0 01.95.681 20.1 20.1 0 002.32 4.115 3.506 3.506 0 00.88.923.537.537 0 00.9-.255 2.61 2.61 0 00.21-.864 12.248 12.248 0 00-.06-3.024A1.29 1.29 0 008.23.886C7.89.825 7.94.707 8.1.525A1.3 1.3 0 019.18.014h3.95a.92.92 0 01.85.984v4.2a1.2 1.2 0 00.56 1.073.788.788 0 00.79-.37 13.112 13.112 0 002.23-3.273c.26-.518.49-1.054.72-1.592a.84.84 0 01.89-.586h3.81a1.925 1.925 0 01.33.02c.64.105.82.369.62.967a9 9 0 01-1.51 2.509c-.64.841-1.32 1.652-1.95 2.5a1.116 1.116 0 00.19 1.831z"/></svg>