<svg width="899" height="599" fill="none" xmlns="http://www.w3.org/2000/svg"><path d="M559.764 531.744c5.741-3.222 13.113-3.342 18.963-.311 5.849 3.031 9.996 9.117 10.668 15.67-12.107.012-24.034-2.816-29.631-15.359zm14.107-12.399c8.103 2.648 17.489.97 24.153-4.349 6.665-5.307 10.405-14.076 9.625-22.558-15.378 3.019-29.81 9.584-33.778 26.907z" fill="#EBEBEB"/><path d="M521.166 539.819c-.012-.024.252-.12.756-.3.563-.191 1.294-.443 2.205-.742 1.93-.623 4.711-1.534 8.127-2.72 6.832-2.36 16.218-5.786 26.335-10.195a283.44 283.44 0 0014.06-6.625c4.243-2.192 8.007-4.289 11.088-6.169 3.056-1.929 5.49-3.547 7.036-4.84 1.582-1.246 2.361-2.061 2.409-2.001.012.012-.168.216-.551.599-.384.371-.911.958-1.714 1.593-1.522 1.354-3.932 3.043-6.964 5.02-3.069 1.941-6.809 4.085-11.052 6.301a249.61 249.61 0 01-14.072 6.685 307.382 307.382 0 01-26.443 10.039 200.17 200.17 0 01-8.187 2.528c-.923.264-1.666.468-2.241.635-.504.156-.78.216-.792.192z" fill="#E0E0E0"/><path d="M575.31 538.789c-.06.084-1.462-.887-3.884-2.193a47.73 47.73 0 00-9.913-3.977 47.352 47.352 0 00-10.56-1.617c-2.745-.108-4.447.024-4.459-.096 0-.048.42-.108 1.187-.192.767-.096 1.894-.156 3.272-.156 2.769-.012 6.617.348 10.716 1.462 4.088 1.126 7.588 2.779 9.961 4.193 1.187.707 2.122 1.33 2.745 1.797.635.467.959.743.935.779z" fill="#E0E0E0"/><path d="M289.753 484.927c-2.912 7.775-1.666 16.975 3.237 23.684 4.902 6.709 13.281 10.71 21.576 10.291-2.29-15.083-8.103-29.411-24.813-33.975z" fill="#EBEBEB"/><path d="M287.391 477.523c.096-.024.516 1.653 1.379 4.277a64.074 64.074 0 004.255 9.919 64.328 64.328 0 005.909 9.033c1.714 2.18 2.877 3.45 2.793 3.522-.036.024-.347-.263-.911-.803-.563-.539-1.33-1.377-2.229-2.432-1.81-2.12-4.1-5.259-6.114-9.02-2.013-3.762-3.356-7.404-4.123-10.088-.384-1.341-.647-2.444-.791-3.21-.156-.767-.216-1.186-.168-1.198z" fill="#E0E0E0"/><path d="M50.211 182.623c-4.519 12.04-2.577 26.296 5.01 36.683 7.588 10.386 20.582 16.58 33.432 15.945-3.56-23.361-12.55-45.536-38.442-52.628z" fill="#EBEBEB"/><path d="M46.543 171.17c.036-.012.24.623.564 1.785.311 1.162.803 2.828 1.462 4.876a95.464 95.464 0 006.557 15.406c3.104 5.775 6.533 10.639 9.218 13.993a104.139 104.139 0 003.248 3.918c.791.91 1.21 1.425 1.175 1.461-.036.024-.516-.431-1.355-1.294-.85-.85-2.026-2.144-3.416-3.797-2.78-3.307-6.293-8.159-9.422-13.969-3.116-5.822-5.214-11.441-6.424-15.574-.612-2.073-1.043-3.762-1.283-4.948-.24-1.198-.36-1.857-.324-1.857z" fill="#E0E0E0"/><path d="M90.715 421.073c-6.473 5.211-10.07 13.765-9.266 22.031.803 8.266 5.981 15.97 13.341 19.839 5.682-14.148 7.983-29.423-4.075-41.87z" fill="#EBEBEB"/><path d="M92.441 413.502c.096.036-.395 1.677-.983 4.384a64.284 64.284 0 00-1.39 10.699c-.168 4.217.12 8.038.491 10.782.36 2.743.72 4.432.612 4.456-.036.012-.168-.395-.372-1.15-.204-.755-.444-1.857-.683-3.235-.48-2.743-.851-6.613-.671-10.877.18-4.265.875-8.087 1.582-10.782a35.93 35.93 0 01.947-3.163c.263-.719.431-1.126.467-1.114z" fill="#E0E0E0"/><path d="M313.162 118.147c7.432 3.702 16.722 3.39 23.902-.791s12.022-12.112 12.454-20.402c-15.247.743-30.087 5.044-36.356 21.193z" fill="#EBEBEB"/><path d="M305.551 119.74c-.012-.108 1.69-.335 4.399-.934a63.78 63.78 0 0010.308-3.211 64.583 64.583 0 009.602-4.948c2.349-1.473 3.728-2.504 3.788-2.42.024.036-.288.324-.899.827-.6.503-1.499 1.174-2.649 1.965-2.302 1.581-5.658 3.534-9.602 5.163-3.955 1.617-7.707 2.588-10.464 3.067-1.379.239-2.493.395-3.273.455-.767.06-1.198.084-1.21.036z" fill="#E0E0E0"/><path d="M282.095 115.978c10.704-2.3 20.029-10.243 23.985-20.45 3.956-10.206 2.421-22.354-3.944-31.267-15.103 13.286-26.874 29.914-20.041 51.717z" fill="#EBEBEB"/><path d="M275.561 123.861c-.036-.036.336-.467 1.007-1.234a87.058 87.058 0 002.805-3.294 82.985 82.985 0 008.019-11.777 82.304 82.304 0 005.801-13.022 89.336 89.336 0 001.331-4.121c.3-.982.479-1.522.515-1.51.036.012-.06.564-.287 1.57-.216 1.006-.6 2.444-1.139 4.193-1.079 3.51-2.949 8.266-5.67 13.178-2.745 4.912-5.801 8.997-8.223 11.764-1.21 1.39-2.229 2.468-2.972 3.187-.732.719-1.163 1.102-1.187 1.066z" fill="#E0E0E0"/><path d="M380.42 526.365c2.265 4.457 6.856 7.644 11.831 8.207 4.974.563 10.164-1.534 13.353-5.379-7.624-5.116-16.35-8.374-25.184-2.828z" fill="#EBEBEB"/><path d="M376.177 524.401c.096-.18 3.704 1.917 8.63 3.162 4.915 1.282 9.086 1.175 9.086 1.366 0 .072-1.031.204-2.721.156-1.69-.036-4.015-.288-6.521-.923-2.493-.646-4.662-1.545-6.161-2.312-1.498-.778-2.349-1.377-2.313-1.449z" fill="#E0E0E0"/><path d="M491.535 96.235c3.081 3.942 8.211 6.182 13.197 5.763 4.987-.408 9.674-3.463 12.059-7.86-8.474-3.533-17.656-5.055-25.256 2.097z" fill="#EBEBEB"/><path d="M486.993 95.133c.06-.192 4.003 1.174 9.074 1.438 5.07.311 9.145-.611 9.181-.408.012.072-.971.396-2.637.683-1.666.288-4.003.491-6.58.348-2.578-.144-4.879-.611-6.497-1.079-1.618-.479-2.565-.91-2.541-.982z" fill="#E0E0E0"/><path d="M779.504 133.086c8.007 2.204 17.057.132 23.302-5.343 6.233-5.475 9.469-14.185 8.319-22.391-14.828 3.63-28.564 10.698-31.621 27.734z" fill="#EBEBEB"/><path d="M772.337 136.105c-.036-.096 1.594-.659 4.135-1.761a64.514 64.514 0 009.493-5.128 64.29 64.29 0 008.475-6.697c2.014-1.892 3.176-3.162 3.248-3.102.036.024-.227.371-.719.982-.491.611-1.246 1.45-2.229 2.444-1.954 1.989-4.867 4.552-8.439 6.9-3.572 2.336-7.072 4.014-9.673 5.008a40.457 40.457 0 01-3.117 1.078c-.743.216-1.162.312-1.174.276z" fill="#E0E0E0"/><path d="M807.864 498.224c14.073-3.246 26.215-13.92 31.226-27.47 5.01-13.537 2.744-29.543-5.838-41.163-19.658 17.838-34.833 40.025-25.388 68.633z" fill="#EBEBEB"/><path d="M799.402 508.767c-.036-.024.444-.611 1.331-1.63.899-1.006 2.157-2.504 3.656-4.384 1.51-1.881 3.212-4.193 5.01-6.829a114.373 114.373 0 005.358-8.877 114.843 114.843 0 004.435-9.369c1.211-2.947 2.194-5.642 2.925-7.942.743-2.3 1.295-4.169 1.642-5.475.36-1.306.576-2.025.611-2.013.036.012-.095.743-.383 2.073-.276 1.329-.767 3.222-1.45 5.546-.684 2.325-1.631 5.056-2.817 8.039a101.858 101.858 0 01-4.423 9.44 103.627 103.627 0 01-5.43 8.901c-1.834 2.636-3.584 4.936-5.143 6.781-1.558 1.857-2.864 3.319-3.823 4.277-.923.97-1.463 1.485-1.499 1.462z" fill="#E0E0E0"/><path d="M645.146 347.18c-7.576-42.229-43.847-79.103-86.628-82.59-23.314-1.893-46.748 5.451-69.966 2.648-19.478-2.348-37.973-12.1-50.919-26.835-19.155-21.804-25.675-52.82-45.969-73.581-27.977-28.609-76.81-29.064-110.841-8.015-34.042 21.049-54.623 59.037-64.044 97.912l-.372 11.825c-2.05 40.324 8.559 87.202 31.98 123.142 23.722 36.419 39.317 51.454 82.541 77.642 36.703 22.235 108.575 32.011 151.487 33.041 42.912 1.031 86.987-11.752 119.267-40.037 32.257-28.273 51.04-72.922 43.464-115.152z" fill="#F94244"/><path opacity=".8" d="M645.146 347.18c-7.576-42.229-43.847-79.103-86.628-82.59-23.314-1.893-46.748 5.451-69.966 2.648-19.478-2.348-37.973-12.1-50.919-26.835-19.155-21.804-25.675-52.82-45.969-73.581-27.977-28.609-76.81-29.064-110.841-8.015-34.042 21.049-54.623 59.037-64.044 97.912l-.372 11.825c-2.05 40.324 8.559 87.202 31.98 123.142 23.722 36.419 39.317 51.454 82.541 77.642 36.703 22.235 108.575 32.011 151.487 33.041 42.912 1.031 86.987-11.752 119.267-40.037 32.257-28.273 51.04-72.922 43.464-115.152z" fill="#fff"/><path d="M687.161 497.941c1.64-11.295-6.192-21.779-17.493-23.418-11.301-1.639-21.791 6.188-23.431 17.483-1.64 11.294 6.192 21.779 17.493 23.418 11.3 1.639 21.791-6.189 23.431-17.483z" fill="#F94244"/><path opacity=".8" d="M687.161 497.941c1.64-11.295-6.192-21.779-17.493-23.418-11.301-1.639-21.791 6.188-23.431 17.483-1.64 11.294 6.192 21.779 17.493 23.418 11.3 1.639 21.791-6.189 23.431-17.483z" fill="#fff"/><path d="M521.611 335.979c.395 41.247-8.607 72.779-26.994 94.606-18.4 21.828-43.584 32.885-75.552 33.185-32.124.311-57.656-10.267-76.607-31.735-18.951-21.456-28.624-52.808-29.032-94.067l-.695-72.551c-.395-41.103 8.607-72.635 26.994-94.606 18.388-21.959 43.644-33.101 75.768-33.412 31.968-.312 57.44 10.338 76.391 31.95 18.951 21.612 28.636 52.964 29.032 94.067l.695 72.563zm-53.736-80.17c-.252-25.973-4.795-45.165-13.629-57.552-8.834-12.399-21.612-18.509-38.322-18.353-16.709.155-29.331 6.517-37.853 19.084-8.523 12.567-12.67 31.831-12.419 57.803l.851 88.149c.252 26.129 4.831 45.416 13.749 57.888 8.906 12.471 21.72 18.616 38.441 18.461 16.71-.156 29.296-6.517 37.746-19.084 8.451-12.567 12.55-31.975 12.299-58.247l-.863-88.149z" fill="#F94244"/><path opacity=".4" d="M521.611 335.979c.395 41.247-8.607 72.779-26.994 94.606-18.4 21.828-43.584 32.885-75.552 33.185-32.124.311-57.656-10.267-76.607-31.735-18.951-21.456-28.624-52.808-29.032-94.067l-.695-72.551c-.395-41.103 8.607-72.635 26.994-94.606 18.388-21.959 43.644-33.101 75.768-33.412 31.968-.312 57.44 10.338 76.391 31.95 18.951 21.612 28.636 52.964 29.032 94.067l.695 72.563zm-53.736-80.17c-.252-25.973-4.795-45.165-13.629-57.552-8.834-12.399-21.612-18.509-38.322-18.353-16.709.155-29.331 6.517-37.853 19.084-8.523 12.567-12.67 31.831-12.419 57.803l.851 88.149c.252 26.129 4.831 45.416 13.749 57.888 8.906 12.471 21.72 18.616 38.441 18.461 16.71-.156 29.296-6.517 37.746-19.084 8.451-12.567 12.55-31.975 12.299-58.247l-.863-88.149z" fill="#000"/><path d="M552.129 335.692c.395 41.247-8.607 72.778-26.994 94.606-18.4 21.827-43.584 32.885-75.552 33.184-32.125.312-57.656-10.267-76.607-31.735-18.951-21.456-28.624-52.808-29.032-94.067l-.695-72.551c-.396-41.103 8.606-72.634 26.994-94.606 18.387-21.959 43.643-33.1 75.768-33.412 31.968-.311 57.44 10.339 76.391 31.951 18.951 21.612 28.636 52.963 29.031 94.067l.696 72.563zm-53.737-80.171c-.251-25.972-4.794-45.164-13.629-57.551-8.834-12.4-21.612-18.51-38.321-18.354-16.709.156-29.331 6.517-37.854 19.084-8.522 12.567-12.67 31.831-12.418 57.804l.851 88.149c.252 26.128 4.831 45.416 13.749 57.887 8.906 12.471 21.72 18.617 38.441 18.461 16.709-.156 29.295-6.517 37.746-19.084s12.55-31.975 12.298-58.247l-.863-88.149z" fill="#F94244"/><path d="M343.476 269.454c.06.156-7.024 2.971-15.822 6.278-8.81 3.306-15.99 5.858-16.05 5.69-.06-.156 7.024-2.971 15.834-6.277 8.799-3.307 15.979-5.859 16.038-5.691zm1.762 28.668c.06.156-7.024 2.971-15.822 6.278-8.81 3.306-15.99 5.858-16.05 5.69-.06-.155 7.024-2.971 15.834-6.277 8.786-3.307 15.978-5.858 16.038-5.691zM347 326.791c.06.155-7.024 2.971-15.823 6.277-8.81 3.307-15.99 5.858-16.05 5.691-.06-.156 7.024-2.971 15.835-6.278 8.786-3.306 15.978-5.858 16.038-5.69zm1.764 28.668c.059.155-7.025 2.971-15.823 6.277-8.81 3.307-15.99 5.858-16.05 5.691-.06-.156 7.024-2.972 15.834-6.278 8.787-3.306 15.979-5.858 16.039-5.69zm1.76 28.668c.012.036-.372.227-1.103.539-.719.311-1.774.742-3.068 1.258-2.602 1.042-6.222 2.432-10.225 3.941a464.18 464.18 0 01-10.297 3.762 128.7 128.7 0 01-3.14 1.078c-.743.24-1.163.359-1.187.311-.012-.035.372-.227 1.103-.539.719-.311 1.774-.742 3.069-1.258 2.601-1.042 6.221-2.432 10.224-3.941a489.962 489.962 0 0110.285-3.762 128.7 128.7 0 013.14-1.078c.755-.24 1.175-.359 1.199-.311zm8.187 26.224c.036.084-1.354.683-3.632 1.593a450.621 450.621 0 01-8.918 3.45 410.096 410.096 0 01-8.978 3.271c-2.313.803-3.752 1.27-3.788 1.186-.036-.084 1.355-.683 3.632-1.593a458.655 458.655 0 018.918-3.451 372.66 372.66 0 018.978-3.27c2.314-.815 3.764-1.27 3.788-1.186zm17.536 24.056c.036.084-1.199.623-3.224 1.449a398.908 398.908 0 01-7.936 3.079 349.995 349.995 0 01-8.007 2.911c-2.061.719-3.344 1.115-3.38 1.031-.036-.084 1.199-.623 3.224-1.45a398.908 398.908 0 017.936-3.079 354.87 354.87 0 018.007-2.911c2.061-.707 3.344-1.114 3.38-1.03zm29.141 15.777c.036.084-1.199.623-3.225 1.45s-4.831 1.905-7.935 3.079a356.67 356.67 0 01-8.007 2.911c-2.062.719-3.344 1.114-3.38 1.03-.036-.084 1.198-.623 3.224-1.449a400.92 400.92 0 0115.942-5.99c2.062-.719 3.345-1.114 3.381-1.031zm87.886-61.182c.072.156-9.026 4.397-20.317 9.477-11.292 5.079-20.51 9.057-20.582 8.901-.071-.156 9.026-4.397 20.318-9.476 11.303-5.068 20.509-9.057 20.581-8.902zm5.968-24.558c.072.155-7.443 3.689-16.769 7.882-9.338 4.193-16.961 7.464-17.033 7.308-.072-.155 7.444-3.69 16.781-7.883 9.326-4.193 16.949-7.463 17.021-7.307zm2.746-27.59c.072.156-7.443 3.69-16.769 7.883-9.338 4.193-16.961 7.463-17.033 7.307-.072-.155 7.444-3.689 16.781-7.882 9.326-4.193 16.95-7.476 17.021-7.308zm2.745-27.602c.072.155-7.444 3.69-16.77 7.883-9.337 4.193-16.961 7.463-17.033 7.307-.072-.155 7.444-3.69 16.782-7.883 9.325-4.193 16.949-7.463 17.021-7.307zm2.757-27.59c.072.156-7.443 3.69-16.769 7.883-9.338 4.193-16.961 7.463-17.033 7.308-.072-.156 7.444-3.69 16.781-7.883 9.314-4.193 16.95-7.464 17.021-7.308zm-5.502-24.571c.072.156-7.443 3.69-16.769 7.883-9.338 4.193-16.961 7.463-17.033 7.307-.072-.155 7.444-3.689 16.781-7.882 9.326-4.193 16.95-7.464 17.021-7.308zm0-26.452c.072.156-7.443 3.69-16.769 7.883-9.338 4.193-16.961 7.463-17.033 7.308-.072-.156 7.444-3.69 16.781-7.883 9.326-4.193 16.95-7.464 17.021-7.308zm-2.746-24.906c.072.155-7.443 3.689-16.769 7.882-9.338 4.193-16.961 7.464-17.033 7.308-.072-.155 7.444-3.69 16.781-7.883 9.326-4.193 16.949-7.463 17.021-7.307zm-23.672-17.359c.072.155-4.471 2.348-10.153 4.899-5.682 2.552-10.345 4.493-10.404 4.337-.072-.156 4.471-2.348 10.152-4.9 5.67-2.551 10.333-4.492 10.405-4.336zm-12.659-10.627c.072.156-4.471 2.348-10.152 4.9-5.682 2.552-10.345 4.493-10.405 4.337-.072-.156 4.471-2.348 10.153-4.9 5.67-2.552 10.333-4.492 10.404-4.337zM344.832 234.7c.06.156-7.024 2.971-15.822 6.278-8.811 3.306-15.991 5.858-16.051 5.69-.06-.168 7.025-2.971 15.835-6.277 8.798-3.307 15.978-5.847 16.038-5.691zm8.821-35.748c.06.156-7.623 3.199-17.165 6.781-9.541 3.582-17.32 6.361-17.38 6.193-.06-.155 7.623-3.198 17.165-6.78 9.541-3.582 17.32-6.362 17.38-6.194zm23.05-35.389c.06.156-9.685 3.965-21.768 8.506-12.083 4.54-21.924 8.086-21.984 7.919-.059-.156 9.686-3.966 21.768-8.506 12.071-4.529 21.924-8.075 21.984-7.919z" fill="#F94244"/><path d="M546.963 389.398c0 .012-.18-.048-.504-.168-.347-.131-.827-.323-1.438-.563-.635-.239-1.462-.407-2.421-.683-.983-.131-2.11-.407-3.393-.407-5.118-.335-12.789 1.534-20.209 7.08-3.764 2.684-7.276 6.362-10.704 10.579-3.44 4.205-6.809 8.961-10.632 13.765-3.824 4.78-8.223 9.632-13.809 13.381-5.55 3.762-12.106 6.481-19.107 7.739-7.012 1.294-14.096.923-20.605-.683-6.533-1.569-12.49-4.133-18.052-6.696-5.562-2.576-10.764-5.212-15.75-7.368-4.975-2.204-9.793-3.798-14.288-4.864-4.507-1.03-8.679-1.473-12.347-1.426a37.662 37.662 0 00-9.289 1.258c-2.469.755-4.327 1.546-5.526 2.169-.587.311-1.031.551-1.367.719-.311.155-.467.239-.479.227 0-.012.144-.108.443-.287.324-.192.78-.444 1.343-.779 1.187-.671 3.045-1.498 5.514-2.288a37.035 37.035 0 019.349-1.378c3.692-.084 7.912.336 12.455 1.342 4.531 1.042 9.397 2.623 14.396 4.816 5.022 2.144 10.224 4.768 15.786 7.32 5.562 2.539 11.483 5.079 17.956 6.624 6.437 1.582 13.425 1.941 20.353.671 6.917-1.246 13.39-3.929 18.879-7.631 5.526-3.69 9.889-8.482 13.713-13.238 3.824-4.768 7.204-9.512 10.68-13.729 3.464-4.217 7.036-7.919 10.848-10.602 7.516-5.559 15.307-7.38 20.473-6.973 1.307.024 2.434.312 3.429.468.959.287 1.786.491 2.421.742.611.264 1.079.468 1.426.623.3.156.468.24.456.24zm7.562-79.955c.012.06-.851.18-2.326.671-1.474.503-3.524 1.474-5.789 3.091-2.29 1.593-4.771 3.822-7.684 6.122a55.828 55.828 0 01-10.296 6.337c-7.767 3.738-15.571 5.188-21.169 5.463-1.402.12-2.673.072-3.787.096-1.115-.048-2.074-.06-2.865-.12a978.23 978.23 0 00-1.798-.179c-.408-.048-.623-.084-.623-.108 0-.024.215-.024.635-.024.479.012 1.079.036 1.798.06.815 0 1.762.012 2.853.024 1.102-.06 2.373-.048 3.763-.192 5.55-.383 13.246-1.893 20.941-5.595a57.415 57.415 0 0010.213-6.229c2.913-2.265 5.442-4.469 7.791-6.038 2.326-1.594 4.447-2.528 5.969-2.971.768-.204 1.355-.336 1.774-.384.372-.036.588-.048.6-.024zm-156.582 27.758c0 .024-.228-.012-.66-.096-.419-.096-1.066-.191-1.857-.419-1.595-.467-3.86-1.306-6.425-2.815-2.565-1.498-5.394-3.63-8.391-6.122-3.009-2.48-6.221-5.331-9.901-7.871-3.692-2.528-7.6-4.337-11.375-5.211a34.428 34.428 0 00-10.201-.971 34.044 34.044 0 00-6.856 1.043c-1.595.407-2.458.718-2.482.658-.012-.024.204-.107.612-.275.407-.156 1.007-.395 1.798-.623a31.775 31.775 0 016.892-1.258 33.96 33.96 0 0110.369.851c3.847.862 7.851 2.695 11.591 5.259 3.727 2.576 6.94 5.451 9.925 7.943 2.972 2.515 5.741 4.672 8.246 6.193a31.142 31.142 0 006.269 2.959c1.571.479 2.458.695 2.446.755zm.217-113.247c.012.036-.695.3-2.002.731-.647.228-1.45.479-2.397.707-.947.239-2.014.551-3.212.766-1.199.252-2.518.516-3.956.695-1.427.24-2.961.348-4.579.491-3.236.204-6.82.204-10.548-.131a70.619 70.619 0 01-10.393-1.845c-1.558-.443-3.056-.839-4.411-1.342-1.378-.443-2.625-.946-3.752-1.414-1.15-.431-2.133-.946-3.02-1.353a28.734 28.734 0 01-2.218-1.138c-1.198-.671-1.846-1.055-1.822-1.091.024-.036.707.276 1.942.875.611.311 1.355.671 2.254 1.042.887.384 1.881.863 3.032 1.27 1.139.443 2.386.923 3.752 1.33 1.355.479 2.841.85 4.387 1.27a73.604 73.604 0 0010.309 1.773c3.704.335 7.24.335 10.452.179 1.606-.131 3.129-.215 4.543-.431 1.426-.156 2.733-.395 3.932-.611 1.21-.191 2.265-.467 3.212-.683.947-.191 1.75-.419 2.409-.599 1.331-.347 2.074-.527 2.086-.491zm149.558-.299c-.012.012-.192-.072-.515-.24-.384-.216-.84-.479-1.391-.803a22.35 22.35 0 00-2.229-1.21c-.887-.431-1.87-.994-3.033-1.425-.575-.24-1.175-.491-1.798-.743s-1.307-.443-2.002-.683c-1.366-.503-2.901-.85-4.483-1.27-3.212-.695-6.796-1.186-10.584-1.246-3.788-.012-7.384.42-10.608 1.055-1.595.383-3.129.706-4.507 1.186-.696.227-1.379.407-2.014.646-.623.252-1.235.492-1.81.719-1.175.42-2.158.959-3.057 1.378a21.92 21.92 0 00-2.241 1.174c-.552.311-1.019.563-1.403.779-.323.167-.503.251-.515.239-.012-.012.144-.131.443-.347.372-.24.816-.527 1.355-.887a21.823 21.823 0 012.206-1.281c.887-.444 1.869-1.019 3.044-1.474.587-.24 1.187-.491 1.822-.755.635-.263 1.319-.455 2.026-.695 1.39-.515 2.937-.85 4.543-1.257 3.248-.671 6.892-1.127 10.728-1.115 3.836.06 7.468.575 10.704 1.306 1.606.431 3.14.803 4.519 1.33.695.252 1.378.455 2.002.731.623.275 1.222.539 1.798.79 1.162.468 2.145 1.067 3.02 1.522.887.455 1.607.91 2.182 1.318.527.359.971.659 1.33.91.336.204.48.324.468.348zm-73.287-81.381c.012.024-.288.192-.863.516-.635.347-1.474.802-2.541 1.377a352.463 352.463 0 01-9.458 4.876c-8.031 3.966-19.322 9.392-32.675 12.771-6.677 1.641-13.21 2.528-19.167 2.659-5.957.132-11.327-.407-15.739-1.353-4.411-.935-7.875-2.121-10.188-3.115-1.175-.455-2.026-.935-2.637-1.198-.6-.288-.899-.455-.887-.467.012-.024.335.107.947.359.623.24 1.486.683 2.673 1.09 2.325.923 5.789 2.037 10.176 2.899 4.388.887 9.722 1.378 15.643 1.21 5.909-.167 12.394-1.054 19.023-2.695 13.269-3.355 24.549-8.698 32.628-12.567 3.979-1.965 7.228-3.558 9.541-4.696 1.091-.527 1.954-.959 2.601-1.27.599-.276.923-.408.923-.396z" fill="#fff"/><path d="M233.813 351.014l40.071 1.749-1.858 42.445-40.071-1.749-3.081 70.527-52.705-2.301 3.08-70.526-136.12-5.942.108-32.322 145.038-208.212 54.444 2.372-8.906 203.959zM95.954 345l85.153 3.714 5.622-128.641-1.282-.491-4.759 9.164L95.954 345z" fill="#F94244"/><path opacity=".4" d="M233.813 351.014l40.071 1.749-1.858 42.445-40.071-1.749-3.081 70.527-52.705-2.301 3.08-70.526-136.12-5.942.108-32.322 145.038-208.212 54.444 2.372-8.906 203.959zM95.954 345l85.153 3.714 5.622-128.641-1.282-.491-4.759 9.164L95.954 345z" fill="#000"/><path d="M267.326 352.476l40.072 1.749-1.858 42.445-40.071-1.749-3.081 70.526-52.705-2.3 3.08-70.526-136.12-5.943.108-32.322 145.038-208.212 54.444 2.372-8.907 203.96zm-137.87-6.014l85.153 3.713 5.622-128.641-1.283-.491-4.758 9.165-84.734 116.254z" fill="#F94244"/><path d="M77.421 360.502c.012.036-.443.3-1.294.731s-2.098 1.03-3.644 1.761a355.758 355.758 0 01-12.19 5.403 362.095 362.095 0 01-12.383 4.972 148.979 148.979 0 01-3.8 1.389c-.899.312-1.414.468-1.426.42-.012-.036.455-.276 1.342-.647.995-.419 2.242-.947 3.728-1.57 3.273-1.365 7.552-3.15 12.299-5.139 4.722-2.013 8.99-3.846 12.25-5.235l3.716-1.57c.887-.371 1.39-.551 1.402-.515zm19.515-35.868c.023.036-.624.372-1.81.959a311.154 311.154 0 01-5.035 2.36c-4.267 1.952-10.212 4.552-16.817 7.343-6.605 2.792-12.61 5.236-16.985 6.937-2.182.85-3.968 1.521-5.203 1.965-1.234.443-1.93.67-1.941.622-.012-.035.647-.347 1.858-.85 1.306-.551 3.032-1.27 5.118-2.156 4.423-1.857 10.344-4.349 16.901-7.105 6.545-2.779 12.466-5.295 16.877-7.164a2174.36 2174.36 0 015.119-2.168c1.222-.527 1.894-.791 1.918-.743zm23.817-31.998c.012.036-.659.383-1.894.958-1.234.575-3.032 1.39-5.262 2.36-4.459 1.953-10.668 4.552-17.548 7.344-6.893 2.791-13.162 5.235-17.717 6.936a244.842 244.842 0 01-5.417 1.965c-1.283.443-2.002.671-2.026.623-.012-.036.671-.348 1.942-.851 1.354-.551 3.164-1.27 5.346-2.156 4.603-1.857 10.8-4.349 17.644-7.104 6.832-2.78 13.018-5.295 17.609-7.164l5.334-2.169c1.258-.515 1.965-.778 1.989-.742zm95.402 36.946c.012.036-.444.287-1.307.707-.851.419-2.097.994-3.656 1.689-3.092 1.402-7.407 3.258-12.214 5.211a366.916 366.916 0 01-12.394 4.756 119.204 119.204 0 01-3.8 1.318c-.899.3-1.414.443-1.426.395-.012-.036.467-.263 1.342-.623.995-.407 2.254-.91 3.728-1.509 3.284-1.306 7.576-3.031 12.322-4.924 4.735-1.941 9.014-3.69 12.275-5.031a785.238 785.238 0 003.727-1.51c.887-.347 1.379-.515 1.403-.479zm-3.883 65.818c.012.036-.432.288-1.259.707s-2.037.994-3.536 1.689c-2.996 1.402-7.18 3.259-11.842 5.199-4.663 1.941-8.919 3.606-12.023 4.756a156.116 156.116 0 01-3.692 1.33c-.875.3-1.366.443-1.39.408-.012-.036.443-.264 1.294-.623.971-.408 2.182-.911 3.62-1.51 3.189-1.318 7.348-3.031 11.951-4.924 4.579-1.94 8.726-3.69 11.903-5.031 1.426-.599 2.637-1.102 3.619-1.51.864-.359 1.343-.527 1.355-.491zm-.552 23.073c.012.036-.432.288-1.259.707-.827.42-2.037.995-3.536 1.689-2.996 1.402-7.18 3.259-11.843 5.2a339.623 339.623 0 01-12.022 4.756 160.81 160.81 0 01-3.692 1.33c-.875.299-1.367.443-1.391.407-.024-.036.444-.264 1.295-.623.971-.407 2.182-.911 3.62-1.51 3.188-1.317 7.348-3.03 11.951-4.923 4.579-1.941 8.726-3.69 11.902-5.032a796.052 796.052 0 013.62-1.509c.851-.36 1.343-.539 1.355-.492zm-.552 23.062c.012.036-.431.288-1.258.707s-2.038.994-3.536 1.689c-2.997 1.402-7.18 3.259-11.843 5.199-4.663 1.941-8.918 3.606-12.023 4.756a156.116 156.116 0 01-3.692 1.33c-.875.3-1.366.443-1.39.408-.012-.036.444-.264 1.295-.623.97-.408 2.181-.911 3.62-1.51 3.188-1.318 7.347-3.031 11.95-4.924 4.579-1.94 8.727-3.69 11.903-5.031a886.756 886.756 0 013.62-1.51c.851-.359 1.33-.527 1.354-.491zm5.61-136.32c.012.036-.444.287-1.307.707-.851.419-2.097.994-3.656 1.689-3.092 1.401-7.407 3.258-12.214 5.211a366.916 366.916 0 01-12.394 4.756 121.8 121.8 0 01-3.8 1.318c-.899.299-1.414.443-1.426.395-.012-.048.467-.263 1.342-.623.995-.407 2.254-.91 3.728-1.509 3.284-1.306 7.576-3.031 12.322-4.924 4.735-1.941 9.014-3.69 12.275-5.032a854.11 854.11 0 003.728-1.509c.887-.347 1.378-.515 1.402-.479zm.623-24.368c.012.036-.443.288-1.307.707-.851.419-2.097.994-3.655 1.689-3.093 1.402-7.408 3.259-12.215 5.212a369.092 369.092 0 01-12.394 4.756c-1.594.575-2.901 1.03-3.8 1.317-.899.3-1.414.444-1.426.396-.012-.036.467-.264 1.342-.623.995-.407 2.254-.911 3.728-1.51 3.284-1.305 7.576-3.031 12.322-4.923 4.735-1.941 9.014-3.69 12.275-5.032a854.11 854.11 0 003.728-1.509c.887-.348 1.378-.516 1.402-.48zm.625-24.367c.012.036-.42.276-1.235.671-.815.395-2.001.946-3.476 1.617a337.49 337.49 0 01-11.627 4.972 312.638 312.638 0 01-11.819 4.516c-1.522.551-2.757.971-3.62 1.258-.863.276-1.342.42-1.354.372-.012-.036.443-.252 1.27-.599.959-.384 2.146-.875 3.548-1.438 3.141-1.246 7.216-2.887 11.735-4.684 4.495-1.845 8.571-3.522 11.687-4.804 1.403-.563 2.589-1.054 3.548-1.438.851-.323 1.319-.491 1.343-.443zm2.756-22.774c.06.156-2.625 1.306-6.005 2.564-3.381 1.246-6.161 2.132-6.221 1.976-.06-.155 2.625-1.305 6.005-2.563 3.368-1.258 6.161-2.145 6.221-1.977zm-76.259 25.769c.012.036-.659.383-1.894.958a238.38 238.38 0 01-5.262 2.361c-4.459 1.952-10.668 4.552-17.549 7.343-6.892 2.792-13.161 5.236-17.716 6.937a248.92 248.92 0 01-5.418 1.964c-1.282.444-2.002.671-2.026.623-.012-.036.672-.347 1.942-.85 1.355-.551 3.165-1.27 5.346-2.157 4.603-1.857 10.8-4.348 17.645-7.104 6.832-2.779 13.017-5.295 17.608-7.164l5.334-2.168c1.271-.527 1.978-.779 1.99-.743zm23.781-33.173c.012.036-.659.384-1.894.959a234.985 234.985 0 01-5.262 2.36c-4.459 1.953-10.668 4.552-17.548 7.344-6.893 2.791-13.162 5.235-17.717 6.936a248.372 248.372 0 01-5.418 1.965c-1.282.443-2.001.671-2.025.623-.012-.036.671-.348 1.941-.851 1.355-.551 3.165-1.27 5.347-2.156 4.602-1.857 10.799-4.349 17.644-7.104l17.608-7.165 5.334-2.168c1.259-.515 1.966-.779 1.99-.743zm21.971-33.16c.012.036-.659.383-1.894.958-1.235.575-3.033 1.39-5.262 2.36-4.459 1.953-10.668 4.553-17.549 7.344-6.892 2.791-13.161 5.235-17.716 6.936a243.14 243.14 0 01-5.418 1.965c-1.283.443-2.002.671-2.026.623-.012-.036.672-.347 1.942-.851 1.355-.551 3.165-1.269 5.346-2.156 4.603-1.857 10.8-4.349 17.645-7.104 6.832-2.779 13.017-5.295 17.608-7.164l5.334-2.168c1.271-.528 1.978-.791 1.99-.743zm22.871-31.891c.012.036-.659.383-1.894.958-1.235.575-3.033 1.39-5.262 2.36-4.459 1.953-10.668 4.553-17.549 7.344-6.892 2.792-13.161 5.235-17.716 6.937-2.277.85-4.135 1.521-5.418 1.964-1.282.444-2.002.671-2.026.623-.012-.036.672-.347 1.942-.85 1.355-.551 3.165-1.27 5.346-2.157 4.603-1.857 10.8-4.348 17.645-7.104 6.832-2.779 13.017-5.295 17.608-7.164l5.334-2.168c1.259-.515 1.966-.779 1.99-.743z" fill="#F94244"/><path d="M273.823 209.974c.012.012-.228.287-.695.79a23.845 23.845 0 01-2.17 2.097c-1.954 1.737-5.034 4.037-9.313 6.014-4.268 1.965-9.77 3.51-16.015 3.654-3.116.06-6.4-.276-9.697-1.09-3.308-.779-6.568-2.121-9.805-3.654-6.449-3.139-12.178-6.841-17.776-9.417-5.562-2.635-11.052-3.941-15.691-4.097-4.662-.168-8.366.887-10.704 2.001-1.162.575-2.049 1.078-2.601 1.485-.563.384-.875.575-.887.563-.012-.012.264-.239.815-.659.528-.443 1.403-.982 2.565-1.605 2.338-1.198 6.102-2.336 10.824-2.228 4.711.108 10.285 1.378 15.931 4.013 5.657 2.576 11.411 6.266 17.8 9.381 3.2 1.521 6.425 2.851 9.673 3.629a37.302 37.302 0 009.541 1.103c6.15-.108 11.604-1.582 15.835-3.475 4.255-1.892 7.348-4.121 9.337-5.786 1.019-.815 1.739-1.533 2.242-2.001.503-.491.779-.73.791-.718zm-16.687-59.23c.024.036-.527.348-1.522.887s-2.481 1.246-4.351 2.037c-1.87.802-4.148 1.617-6.713 2.396a74.696 74.696 0 01-8.51 1.952 73.458 73.458 0 01-8.691.851c-2.685.072-5.106.024-7.12-.144-2.026-.156-3.656-.347-4.77-.551-1.115-.192-1.727-.311-1.727-.359.012-.048.636 0 1.75.12 1.127.131 2.757.251 4.759.347 2.014.108 4.411.12 7.072.012 2.661-.144 5.574-.407 8.607-.899a80.108 80.108 0 008.45-1.892c2.554-.743 4.831-1.51 6.701-2.253 1.882-.73 3.38-1.365 4.411-1.845 1.055-.455 1.63-.694 1.654-.659zm-85.104 133.05c-.036.024-.408-.407-1.079-1.209a693.263 693.263 0 00-2.841-3.367c-2.421-2.815-5.885-6.625-10.033-10.482-2.073-1.929-4.183-3.606-6.293-4.84-2.097-1.234-4.183-1.977-5.993-2.324-3.644-.719-5.933.107-5.945-.036 0-.024.132-.072.395-.156.264-.084.659-.18 1.175-.276 1.031-.179 2.577-.275 4.447.036 1.858.3 4.027 1.019 6.197 2.265 2.17 1.222 4.339 2.935 6.425 4.875a107.523 107.523 0 019.949 10.663 77.315 77.315 0 012.697 3.51c.623.826.935 1.318.899 1.341zm95.618 36.192c.012.024-.144.144-.468.359-.324.216-.779.551-1.426.911-1.259.766-3.153 1.749-5.622 2.671-4.879 1.869-12.334 3.223-20.294 1.606-7.947-1.63-14.276-5.811-18.027-9.441-1.906-1.821-3.261-3.462-4.124-4.66-.443-.587-.731-1.078-.947-1.402-.204-.323-.312-.503-.288-.515.048-.036.516.623 1.427 1.761a40.424 40.424 0 004.219 4.493c3.788 3.51 10.045 7.559 17.848 9.153 7.804 1.593 15.151.335 20.018-1.402 2.457-.863 4.363-1.773 5.646-2.468 1.306-.695 2.002-1.102 2.038-1.066zm34.917 75.857s-.132-.179-.348-.551c-.228-.395-.539-.946-.947-1.653-.767-1.498-2.17-3.546-4.099-6.074-.516-.611-1.055-1.246-1.631-1.929-.287-.335-.575-.683-.875-1.03-.335-.323-.671-.659-1.018-.994l-2.158-2.121c-.803-.671-1.654-1.366-2.517-2.096a56.632 56.632 0 00-13.162-7.823c-5.238-2.193-11.351-3.834-18.04-4.181-6.676-.384-13.88.647-20.892 3.354-7.013 2.756-13.785 6.925-20.953 10.95-3.584 2.012-7.3 3.977-11.255 5.571-3.944 1.605-8.151 2.839-12.527 3.282-4.375.503-8.75.096-12.933-.779-4.184-.886-8.151-2.36-11.903-4.061-7.528-3.426-14.12-7.943-20.269-12.315-6.162-4.373-11.963-8.59-17.753-11.968-5.777-3.367-11.519-5.954-17.057-7.284-5.537-1.318-10.752-1.534-15.235-1.006-4.495.491-8.235 1.773-11.075 3.198-2.877 1.402-4.735 3.067-6.03 4.133a121.65 121.65 0 00-1.342 1.354c-.312.3-.48.443-.48.443s.132-.167.432-.491c.311-.335.743-.803 1.306-1.402 1.271-1.102 3.117-2.815 6.006-4.252 2.84-1.474 6.604-2.804 11.135-3.331 4.519-.575 9.781-.383 15.379.923 5.598 1.317 11.4 3.893 17.213 7.259 5.838 3.379 11.663 7.596 17.824 11.945 6.161 4.348 12.73 8.841 20.198 12.231 3.728 1.677 7.647 3.151 11.783 4.013 4.123.863 8.426 1.258 12.73.767 4.303-.443 8.45-1.653 12.358-3.246 3.919-1.582 7.611-3.535 11.195-5.535 7.156-4.002 13.953-8.171 21.037-10.95 1.786-.659 3.536-1.306 5.346-1.725.899-.228 1.774-.503 2.673-.683.899-.144 1.798-.299 2.685-.443 3.548-.587 7.06-.623 10.428-.479 6.749.383 12.91 2.06 18.172 4.3 5.274 2.253 9.661 5.116 13.209 7.955.876.731 1.715 1.438 2.518 2.121.743.742 1.462 1.473 2.157 2.156l1.007 1.006c.3.36.588.707.875 1.055.564.682 1.103 1.329 1.618 1.952 1.906 2.564 3.273 4.649 4.016 6.17.384.731.683 1.282.899 1.689.216.372.3.575.3.575zm-36.224 50.041c0 .024-.204.072-.612.155-.479.096-1.055.204-1.774.336-.767.156-1.714.311-2.817.407-1.102.108-2.361.3-3.763.324-.708.036-1.439.06-2.194.096-.767.024-1.558-.012-2.385-.024-1.655.012-3.405-.156-5.251-.3a72.487 72.487 0 01-11.83-2.3c-4.112-1.222-7.888-2.779-11.22-4.409-1.642-.874-3.212-1.665-4.591-2.563-.695-.444-1.39-.827-2.026-1.258-.623-.432-1.222-.863-1.798-1.258-1.162-.779-2.133-1.606-2.996-2.3a26.418 26.418 0 01-2.158-1.857c-.527-.492-.959-.899-1.306-1.234-.3-.288-.444-.444-.432-.456.012-.011.192.108.516.372.371.311.827.683 1.39 1.15a29.108 29.108 0 002.218 1.773c.887.659 1.857 1.462 3.032 2.204.576.396 1.187.791 1.81 1.222.635.42 1.331.803 2.026 1.222 1.39.875 2.949 1.642 4.579 2.492 3.308 1.593 7.06 3.127 11.135 4.325a75.098 75.098 0 0011.711 2.324c1.834.156 3.572.347 5.203.359.815.012 1.606.072 2.361.06.755-.024 1.486-.036 2.182-.06 1.39 0 2.649-.155 3.751-.227a37.205 37.205 0 002.817-.3c.719-.084 1.307-.167 1.786-.227.408-.06.624-.072.636-.048z" fill="#fff"/><path d="M754.344 351.505l39.916-3.905 4.135 42.277-39.915 3.906 6.88 70.25-52.502 5.128-6.88-70.251-135.605 13.25-4.447-32.011L680.219 153.62l54.239-5.308 19.886 203.193zm-137.343 13.43l84.83-8.29-12.538-128.15-1.343-.3-3.428 9.752-67.521 126.988z" fill="#F94244"/><path opacity=".4" d="M754.344 351.505l39.916-3.905 4.135 42.277-39.915 3.906 6.88 70.25-52.502 5.128-6.88-70.251-135.605 13.25-4.447-32.011L680.219 153.62l54.239-5.308 19.886 203.193zm-137.343 13.43l84.83-8.29-12.538-128.15-1.343-.3-3.428 9.752-67.521 126.988z" fill="#000"/><path d="M787.727 348.247l39.916-3.906 4.135 42.278-39.916 3.905 6.881 70.251-52.502 5.127-6.88-70.25-135.605 13.249-4.447-32.01 114.292-226.53 54.24-5.295 19.886 203.181zm-137.331 13.417l84.829-8.29-12.538-128.15-1.342-.311-3.428 9.751-67.521 127z" fill="#F94244"/><path d="M600.842 382.893c.024.036-.395.359-1.186.898-.779.551-1.93 1.318-3.357 2.252-2.852 1.869-6.844 4.385-11.303 7.069-4.471 2.683-8.558 5.019-11.555 6.661a123.351 123.351 0 01-3.56 1.904c-.851.432-1.331.659-1.355.623-.024-.036.42-.335 1.235-.826.923-.551 2.086-1.246 3.464-2.073a5408.27 5408.27 0 0011.447-6.816c4.387-2.66 8.367-5.068 11.4-6.901 1.378-.827 2.529-1.521 3.464-2.084.827-.504 1.294-.743 1.306-.707zm14.263-38.264c.024.036-.563.467-1.654 1.198-1.09.73-2.673 1.773-4.651 3.043-3.955 2.527-9.469 5.942-15.606 9.632-6.149 3.689-11.747 6.948-15.835 9.26a263.783 263.783 0 01-4.866 2.684c-1.163.611-1.81.934-1.834.898-.024-.036.587-.431 1.714-1.102 1.223-.731 2.829-1.689 4.771-2.851 4.111-2.456 9.637-5.763 15.738-9.405 6.089-3.666 11.591-6.996 15.703-9.464 1.942-1.174 3.548-2.132 4.758-2.875 1.103-.695 1.738-1.054 1.762-1.018zm19.084-35.018c.024.036-.599.467-1.738 1.21a251.94 251.94 0 01-4.879 3.079c-4.147 2.552-9.924 6.002-16.337 9.74-6.425 3.725-12.287 7.032-16.566 9.356a257.803 257.803 0 01-5.094 2.708c-1.211.622-1.894.946-1.918.91-.024-.036.623-.431 1.798-1.114 1.27-.731 2.949-1.701 4.986-2.887 4.304-2.48 10.081-5.823 16.47-9.512 6.377-3.714 12.143-7.069 16.434-9.572 2.037-1.186 3.716-2.169 4.974-2.9 1.187-.694 1.846-1.054 1.87-1.018zm99.656 23.169c.024.036-.407.348-1.186.875-.791.527-1.942 1.282-3.38 2.192a376.212 376.212 0 01-11.364 6.877 371.86 371.86 0 01-11.603 6.457 157.271 157.271 0 01-3.572 1.845c-.851.419-1.33.635-1.354.599-.024-.036.419-.324 1.234-.815.935-.539 2.098-1.222 3.476-2.012 3.057-1.761 7.073-4.062 11.508-6.613 4.411-2.588 8.402-4.924 11.447-6.709 1.378-.803 2.541-1.474 3.476-2.025.827-.467 1.295-.707 1.318-.671zm5.419 65.699c.024.036-.384.347-1.151.874-.755.527-1.87 1.27-3.26 2.169-2.769 1.809-6.653 4.228-10.992 6.816a340.673 340.673 0 01-11.232 6.409c-1.45.791-2.637 1.414-3.464 1.833-.827.42-1.294.635-1.318.587-.024-.036.407-.323 1.198-.802.911-.539 2.038-1.21 3.369-2.001 2.972-1.749 6.844-4.025 11.135-6.553 4.267-2.564 8.115-4.876 11.076-6.649 1.33-.791 2.457-1.461 3.368-2.001.791-.479 1.247-.718 1.271-.682zm2.697 22.918c.024.036-.384.347-1.151.874-.755.527-1.87 1.27-3.26 2.169-2.769 1.808-6.653 4.228-10.992 6.816a341.81 341.81 0 01-11.231 6.409 133.95 133.95 0 01-3.465 1.833c-.827.42-1.294.635-1.318.587-.024-.048.407-.323 1.199-.802.911-.539 2.037-1.21 3.368-2.001 2.973-1.749 6.844-4.025 11.135-6.553 4.268-2.564 8.115-4.876 11.076-6.649 1.331-.791 2.457-1.461 3.368-2.001.792-.479 1.247-.718 1.271-.682zm2.697 22.917c.024.036-.383.347-1.15.875a117.6 117.6 0 01-3.261 2.168c-2.769 1.809-6.652 4.229-10.992 6.817a342.608 342.608 0 01-11.231 6.409 135.889 135.889 0 01-3.464 1.833c-.827.419-1.295.635-1.319.587-.024-.036.408-.324 1.199-.803.911-.539 2.038-1.21 3.368-2 2.973-1.749 6.844-4.026 11.136-6.553 4.267-2.564 8.115-4.876 11.075-6.649 1.331-.791 2.458-1.462 3.369-2.001.791-.479 1.246-.719 1.27-.683zm-13.629-135.757c.024.036-.407.347-1.186.874-.792.528-1.942 1.282-3.381 2.193a374.177 374.177 0 01-11.363 6.876 369.794 369.794 0 01-11.603 6.457 157.271 157.271 0 01-3.572 1.845c-.851.42-1.331.635-1.355.599-.024-.036.42-.323 1.235-.814.935-.539 2.098-1.222 3.476-2.013 3.057-1.761 7.072-4.061 11.507-6.613 4.411-2.588 8.403-4.924 11.448-6.709 1.378-.802 2.541-1.473 3.476-2.024.827-.456 1.294-.707 1.318-.671zm-2.816-24.212c.024.036-.408.348-1.187.875-.791.527-1.942 1.282-3.38 2.192a376.212 376.212 0 01-11.364 6.877 371.86 371.86 0 01-11.603 6.457 157.271 157.271 0 01-3.572 1.845c-.851.419-1.33.635-1.354.599-.024-.036.419-.324 1.234-.815.935-.539 2.098-1.21 3.477-2.012 3.056-1.761 7.072-4.062 11.507-6.613 4.411-2.588 8.403-4.924 11.447-6.709 1.379-.803 2.541-1.474 3.476-2.025.839-.467 1.307-.707 1.319-.671zm-2.806-24.211c.024.036-.384.335-1.127.838-.755.504-1.846 1.222-3.212 2.097a330.29 330.29 0 01-10.812 6.553 324.498 324.498 0 01-11.064 6.134 138.566 138.566 0 01-3.416 1.749c-.815.395-1.271.599-1.295.563-.024-.036.396-.312 1.175-.779.899-.515 2.002-1.162 3.32-1.929l10.968-6.289c4.196-2.456 7.983-4.684 10.896-6.397a622.275 622.275 0 003.32-1.929c.78-.42 1.223-.647 1.247-.611zm-.479-22.942c.084.156-2.421 1.665-5.585 3.378-3.165 1.713-5.802 2.983-5.886 2.828-.084-.156 2.421-1.666 5.586-3.379 3.164-1.701 5.801-2.971 5.885-2.827zm-71.872 36.24c.024.036-.599.467-1.738 1.21a252.158 252.158 0 01-4.878 3.078c-4.148 2.552-9.925 6.002-16.338 9.74-6.425 3.726-12.286 7.032-16.566 9.357a251.217 251.217 0 01-5.094 2.707c-1.211.623-1.894.946-1.918.911-.024-.036.623-.432 1.798-1.115 1.271-.73 2.949-1.701 4.987-2.887 4.303-2.48 10.08-5.822 16.469-9.512 6.377-3.714 12.143-7.068 16.434-9.572 2.038-1.186 3.716-2.168 4.974-2.899 1.187-.695 1.858-1.054 1.87-1.018zm18.879-36.18c.024.036-.599.467-1.738 1.21a254.43 254.43 0 01-4.878 3.079c-4.148 2.552-9.925 6.002-16.338 9.74-6.425 3.725-12.287 7.032-16.566 9.356a253.96 253.96 0 01-5.094 2.707c-1.211.623-1.894.947-1.918.911-.024-.036.623-.431 1.798-1.114 1.271-.731 2.949-1.701 4.986-2.887 4.304-2.48 10.081-5.823 16.47-9.513 6.377-3.713 12.143-7.068 16.434-9.572 2.038-1.186 3.716-2.168 4.974-2.899 1.187-.695 1.846-1.054 1.87-1.018zm17.094-35.928c.024.036-.599.467-1.738 1.21a256.969 256.969 0 01-4.879 3.079c-4.147 2.551-9.925 6.002-16.338 9.739-6.424 3.726-12.286 7.033-16.565 9.357a256.765 256.765 0 01-5.094 2.707c-1.211.623-1.894.947-1.918.911-.024-.036.623-.432 1.798-1.114 1.27-.731 2.948-1.702 4.986-2.888 4.303-2.48 10.081-5.822 16.47-9.512 6.377-3.714 12.142-7.068 16.434-9.572 2.037-1.186 3.715-2.168 4.986-2.899 1.163-.695 1.834-1.054 1.858-1.018zm18.146-34.79c.024.036-.599.467-1.738 1.21a248.215 248.215 0 01-4.878 3.079c-4.148 2.552-9.925 6.002-16.338 9.74-6.425 3.725-12.286 7.032-16.566 9.356a251.217 251.217 0 01-5.094 2.707c-1.211.623-1.894.947-1.918.911-.024-.036.624-.431 1.798-1.114a1149.11 1149.11 0 004.987-2.887c4.303-2.48 10.08-5.823 16.469-9.513 6.377-3.713 12.143-7.068 16.434-9.572 2.038-1.186 3.716-2.168 4.975-2.899 1.186-.695 1.845-1.054 1.869-1.018z" fill="#F94244"/><path d="M774.11 206.248c.012.012-.18.311-.587.874-.396.563-.983 1.402-1.858 2.384-1.69 1.989-4.423 4.708-8.379 7.26-3.943 2.54-9.182 4.852-15.343 5.87-3.08.503-6.377.623-9.745.288-3.38-.312-6.808-1.174-10.212-2.24-6.821-2.205-13.018-5.068-18.927-6.829-5.874-1.833-11.496-2.348-16.122-1.845-4.639.491-8.163 2.049-10.321 3.486-1.067.731-1.87 1.354-2.361 1.833-.504.455-.791.695-.803.683-.012-.012.227-.275.719-.767.467-.515 1.246-1.174 2.313-1.952 2.146-1.51 5.706-3.175 10.405-3.726 4.674-.563 10.38-.084 16.337 1.737 5.97 1.749 12.179 4.6 18.951 6.781 3.393 1.066 6.761 1.916 10.093 2.228a37.59 37.59 0 009.601-.24c6.078-.97 11.256-3.198 15.188-5.666 3.943-2.48 6.688-5.116 8.438-7.045.899-.946 1.51-1.761 1.93-2.3.432-.551.671-.826.683-.814zm-24.859-56.294c.024.036-.468.419-1.379 1.09-.911.683-2.277 1.581-4.015 2.623-1.739 1.055-3.872 2.181-6.305 3.319a74.684 74.684 0 01-8.151 3.127 73.617 73.617 0 01-8.487 2.06c-2.649.455-5.046.743-7.072.863-2.026.132-3.668.168-4.795.12-1.138-.024-1.762-.06-1.762-.108s.623-.084 1.75-.132a78.892 78.892 0 004.771-.323c2.014-.18 4.387-.504 7-.983 2.613-.515 5.466-1.186 8.403-2.096a82.42 82.42 0 008.103-3.055c2.421-1.09 4.567-2.181 6.317-3.175a80.455 80.455 0 004.099-2.444c.959-.599 1.499-.922 1.523-.886zm-65.533 143.688c-.036.036-.467-.348-1.234-1.042a736.402 736.402 0 00-3.285-2.936c-2.793-2.443-6.76-5.726-11.411-8.973-2.326-1.617-4.651-2.983-6.904-3.905-2.254-.923-4.424-1.366-6.258-1.462-3.715-.203-5.861.935-5.885.791-.012-.024.12-.096.372-.216a8.528 8.528 0 011.126-.431c.995-.323 2.518-.635 4.411-.587 1.882.036 4.136.443 6.461 1.366 2.326.91 4.711 2.288 7.048 3.917a105.342 105.342 0 0111.352 9.153 74.685 74.685 0 013.152 3.091c.708.767 1.091 1.198 1.055 1.234zm99.753 22.402c.012.012-.132.156-.407.42-.288.251-.696.659-1.283 1.102-1.139.934-2.877 2.168-5.19 3.438-4.567 2.54-11.759 4.924-19.862 4.445-8.103-.491-14.947-3.75-19.179-6.817-2.145-1.533-3.716-2.971-4.734-4.037-.528-.515-.875-.971-1.139-1.246-.252-.3-.372-.455-.36-.467.036-.036.6.551 1.666 1.545 1.055 1.006 2.661 2.384 4.819 3.846 4.243 2.947 11.004 6.074 18.963 6.553 7.959.479 15.043-1.797 19.622-4.205a39.793 39.793 0 005.25-3.235c1.175-.874 1.81-1.39 1.834-1.342zm45.262 70.179s-.156-.168-.419-.503c-.276-.359-.672-.863-1.175-1.51-.971-1.365-2.649-3.198-4.915-5.438-.599-.528-1.222-1.091-1.882-1.678-.335-.287-.671-.599-1.018-.898-.372-.276-.756-.551-1.139-.851-.779-.575-1.594-1.174-2.433-1.797-.899-.551-1.822-1.126-2.793-1.713-3.896-2.276-8.619-4.444-14.133-5.894-5.501-1.438-11.783-2.204-18.447-1.605-6.665.551-13.653 2.587-20.21 6.253-6.556 3.714-12.67 8.794-19.202 13.777-3.273 2.492-6.677 4.96-10.357 7.104-3.68 2.145-7.671 3.954-11.938 5.02-4.256 1.114-8.655 1.33-12.91 1.042-4.267-.287-8.403-1.198-12.358-2.348-7.936-2.336-15.092-5.882-21.804-9.344-6.713-3.462-13.054-6.829-19.263-9.357-6.197-2.527-12.25-4.276-17.908-4.816-5.669-.527-10.86-.012-15.223 1.151-4.387 1.114-7.911 2.911-10.512 4.72-2.649 1.785-4.255 3.701-5.382 4.935-.492.659-.875 1.162-1.139 1.534-.264.347-.407.515-.407.515s.107-.192.359-.551c.264-.371.624-.899 1.103-1.569 1.103-1.258 2.697-3.223 5.346-5.056 2.601-1.869 6.149-3.714 10.56-4.864 4.399-1.198 9.638-1.749 15.355-1.246 5.73.515 11.831 2.252 18.064 4.768 6.245 2.516 12.622 5.87 19.335 9.321 6.712 3.438 13.844 6.96 21.707 9.272 3.92 1.138 8.02 2.037 12.227 2.324 4.195.276 8.522.06 12.718-1.03 4.195-1.042 8.127-2.827 11.783-4.948 3.656-2.12 7.036-4.564 10.308-7.056 6.521-4.972 12.67-10.051 19.287-13.801 1.666-.898 3.32-1.785 5.046-2.456.851-.347 1.69-.743 2.541-1.054.875-.276 1.738-.539 2.589-.815 3.441-1.078 6.905-1.605 10.261-1.94 6.736-.575 13.065.227 18.603 1.701 5.55 1.497 10.285 3.702 14.192 6.014.959.599 1.894 1.186 2.793 1.749.839.635 1.655 1.246 2.434 1.833.383.287.767.575 1.138.862.348.312.684.623 1.019.911.659.599 1.283 1.162 1.882 1.701 2.254 2.276 3.896 4.145 4.843 5.535.479.659.863 1.174 1.127 1.545.227.371.347.551.347.551zm-28.841 54.641c.012.024-.192.108-.575.24-.456.155-1.019.347-1.702.587a25.39 25.39 0 01-2.733.802c-1.079.264-2.302.623-3.68.851-.695.132-1.415.264-2.158.407-.755.132-1.546.204-2.361.312-1.63.239-3.392.323-5.25.443a71.35 71.35 0 01-12.035-.611 72.547 72.547 0 01-11.723-2.791c-1.738-.635-3.416-1.198-4.914-1.893-.756-.336-1.499-.623-2.182-.971-.683-.347-1.331-.682-1.966-.994-1.27-.599-2.337-1.294-3.296-1.845a26.931 26.931 0 01-2.398-1.533c-.587-.419-1.078-.755-1.474-1.042-.335-.24-.503-.384-.491-.396.012-.012.203.084.563.288.408.251.911.563 1.534.934.66.419 1.463.923 2.446 1.438.971.527 2.049 1.186 3.32 1.761.623.299 1.282.623 1.966.946.683.324 1.426.599 2.181.923 1.499.671 3.153 1.21 4.891 1.821a74.55 74.55 0 0011.639 2.719 75.65 75.65 0 0011.927.659c1.834-.096 3.584-.156 5.202-.383.815-.096 1.606-.156 2.349-.276.743-.12 1.463-.251 2.158-.359 1.378-.192 2.601-.527 3.68-.755 1.091-.216 2.002-.479 2.757-.695.695-.192 1.27-.347 1.738-.467.371-.096.587-.144.587-.12z" fill="#fff"/><path d="M550.281 265.405l-8.39-1.306-51.987-16.76-30.41-8.781c-7.108-2.456-16.314-3.307-26.31 1.785-14.36 7.32-54 44.182-54 44.182l28.54 29.411-13.449 59.517c15.043 42.744 44.494 47.644 44.494 47.644s19.347 1.737 42.193-6.972c27.354-10.423 56.062-34.85 59.658-45.357 2.158-6.301 3.932-19.551 5.358-34.514l43.296-17.634 11.735-59.865-50.728 8.65z" fill="#455A64"/><path d="M487.04 371.344c.012.012-.132.144-.42.371-.299.216-.707.575-1.294.947-1.151.791-2.901 1.821-5.202 2.791-4.555 1.965-11.663 3.438-19.203 1.809-7.54-1.653-13.389-5.954-16.709-9.644-1.691-1.845-2.853-3.51-3.56-4.708-.384-.587-.6-1.078-.78-1.402-.167-.323-.251-.503-.227-.515.048-.024.443.635 1.21 1.785.767 1.15 1.978 2.756 3.68 4.541 3.356 3.558 9.134 7.715 16.518 9.332 7.384 1.606 14.372.228 18.903-1.605 2.289-.911 4.063-1.869 5.238-2.588 1.187-.719 1.81-1.15 1.846-1.114zm-16.445-121.549c.012 0 .048.096.096.288.06.227.132.503.215.85.18.743.432 1.857.732 3.283.575 2.863 1.438 7.02 1.714 12.255.108 2.612.06 5.511-.492 8.554-.551 3.043-1.63 6.23-3.416 9.225-1.798 2.995-4.291 5.726-7.108 8.23-2.817 2.516-5.933 4.852-9.11 7.26-6.748 5.079-13.329 9.656-19.215 13.825-5.885 4.157-11.063 7.906-15.211 11.045l-.131.096-.132-.108c-3.704-2.995-6.509-5.582-8.331-7.487-.899-.959-1.546-1.737-1.954-2.3-.204-.276-.324-.504-.419-.659-.084-.156-.132-.228-.12-.24.024-.012.228.288.635.815a30.21 30.21 0 002.014 2.204c1.846 1.845 4.699 4.373 8.426 7.32h-.263c4.111-3.187 9.265-6.984 15.139-11.166 5.861-4.193 12.43-8.793 19.167-13.86 3.164-2.408 6.281-4.732 9.073-7.212 2.793-2.48 5.251-5.152 7.025-8.075 1.762-2.923 2.841-6.038 3.392-9.021.563-2.995.635-5.858.563-8.446-.215-5.199-1.007-9.356-1.51-12.231-.264-1.39-.468-2.492-.623-3.307-.06-.347-.108-.635-.156-.862 0-.168-.012-.264 0-.276zm225.745 26.979c12.178-10.423 16.29-29.195 9.601-43.763a8304.26 8304.26 0 01-17.153-1.773c8.703-4.564 13.953-14.951 12.466-24.667-9.241 9.968-25.244 12.915-37.434 6.889-8.007-3.954-14.504-11.321-23.302-12.867-7.983-1.401-15.834 2.336-23.482 5.056-7.635 2.719-16.901 4.217-23.23-.851-5.023-4.013-6.569-11.057-6.245-17.467.323-6.421 2.181-12.675 2.577-19.084.779-12.579-4.675-25.254-13.893-33.807-2.888-9.129-9.805-17-18.663-20.738-10.716-4.528-23.817-2.815-33.011 4.301-3.752 2.899-6.916 6.649-11.172 8.745-4.806 2.372-10.392 2.372-15.594 3.654-5.203 1.282-10.656 4.72-11.22 10.052l-2.098 10.913a24.194 24.194 0 01-1.15 2.301c-4.423 7.751-13.461 12.842-15.427 21.54-1.103 4.875.264 10.159-1.379 14.879-2.169 6.217-8.882 9.715-12.01 15.502-4.291 7.955-1.379 21.875 5.49 27.757 6.868 5.883 21.024 12.1 29.87 13.981 2.398-9.189 4.519-19.012 6.569-29.063 3.608 3.462 7.384 6.756 11.148 10.027 9.853 8.554 19.91 17.239 26.742 28.345 12.982 21.108 13.197 49.094 29.547 67.723 3.201 3.653 7.096 6.912 11.747 8.314 4.651 1.413 10.165.659 13.605-2.768 4.063-4.049 4.591-10.878 9.074-14.436 5.969-4.732 14.696-.958 21.12 3.151 4.651 2.971 9.29 6.11 14.564 7.739 5.274 1.629 11.399 1.522 15.87-1.689 4.483-3.211 6.449-10.063 3.213-14.532-1.295-1.785-3.224-3.031-4.507-4.828-1.283-1.797-1.654-4.636.096-5.966 1.942-1.473 4.651-.048 6.76 1.186 10.249 6.026 23.23 7.176 34.378 3.031s20.222-13.489 24.045-24.738a33.28 33.28 0 01-17.512-2.049z" fill="#263238"/><path d="M685.659 182.755s.576.395 1.546 1.33c.947.934 2.35 2.384 3.537 4.66a13.566 13.566 0 011.318 4.037c.216 1.534.132 3.307-.587 5.008-.695 1.689-1.906 3.342-3.68 4.468-.887.551-1.918.971-3.021 1.091-1.115.131-2.277-.048-3.356-.492-4.447-1.809-6.677-6.948-11.495-9.236-4.687-2.48-10.68-2.648-16.446-1.33-5.826 1.33-11.363 4.445-17.045 7.631-5.658 3.163-11.699 6.601-18.639 7.787-3.428.635-6.965.671-10.309-.072a20.192 20.192 0 01-4.771-1.773c-1.486-.802-2.828-1.833-4.027-2.983-2.373-2.336-4.04-5.211-5.166-8.17-1.139-2.959-1.762-6.014-2.11-9.009-.635-6.014-.132-11.728-.072-17.048.108-5.307-.204-10.302-1.45-14.639a33.234 33.234 0 00-2.29-6.002 35.983 35.983 0 00-2.9-4.948c-2.05-2.947-4.22-5.187-6.138-6.828-1.906-1.666-3.572-2.72-4.686-3.451-.552-.323-.983-.587-1.307-.766-.288-.18-.444-.276-.432-.288 0-.012.168.072.468.228.324.179.767.419 1.342.719 1.139.706 2.829 1.725 4.783 3.378 1.954 1.629 4.16 3.857 6.257 6.816a34.524 34.524 0 012.973 4.972 34.345 34.345 0 012.361 6.05c1.295 4.397 1.63 9.428 1.547 14.759-.036 5.332-.516 11.046.131 16.976.348 2.959.983 5.966 2.098 8.865 1.115 2.887 2.733 5.691 5.034 7.943 1.163 1.102 2.446 2.109 3.884 2.875a19.728 19.728 0 004.615 1.713c3.248.719 6.689.683 10.057.06 6.808-1.162 12.778-4.54 18.447-7.703 5.682-3.175 11.268-6.313 17.213-7.655 2.949-.647 5.922-.97 8.786-.743 1.439.072 2.829.36 4.184.683 1.33.407 2.649.839 3.835 1.498 4.975 2.431 7.204 7.595 11.424 9.284 2.049.887 4.327.551 6.005-.527 1.702-1.054 2.889-2.636 3.572-4.265.707-1.629.803-3.33.611-4.84a12.942 12.942 0 00-1.246-3.965c-1.139-2.253-2.493-3.726-3.404-4.684a24.11 24.11 0 00-1.091-1.055 7.527 7.527 0 01-.36-.359zm-195.946 69.149s-.048-.18-.096-.539c-.06-.36-.108-.899-.324-1.57-.359-1.354-1.186-3.318-2.948-5.343-1.786-1.989-4.447-4.013-7.947-5.523-3.477-1.581-7.78-2.36-12.515-3.258-4.686-.923-10.068-1.893-14.887-5.104-4.735-3.198-8.523-8.637-9.493-15.047-.983-6.373 1.078-13.537 5.969-18.629 4.962-5.091 11.975-7.607 17.704-12.087 1.415-1.15 2.697-2.42 3.776-3.834 1.007-1.462 1.834-3.043 2.301-4.744.947-3.402.876-6.96 1.199-10.423.156-1.737.42-3.462.959-5.115a12.788 12.788 0 012.529-4.481c2.326-2.551 5.526-3.893 8.571-4.768 3.08-.898 6.137-1.449 9.038-2.252 2.888-.803 5.609-1.881 7.887-3.522 2.313-1.581 4.231-3.546 5.921-5.535 1.69-2 3.129-4.061 4.459-6.062 2.649-4.013 4.915-7.751 7.324-10.746 2.374-3.019 4.783-5.331 6.988-6.9 2.206-1.582 4.16-2.42 5.514-2.839 1.355-.432 2.098-.528 2.098-.528.012.048-.731.18-2.062.647-1.33.456-3.26 1.318-5.418 2.911-2.169 1.582-4.531 3.894-6.856 6.913-2.373 2.995-4.603 6.733-7.228 10.77-1.331 2.013-2.769 4.097-4.459 6.134-1.69 2.024-3.632 4.013-5.993 5.654-2.326 1.689-5.131 2.816-8.043 3.63-2.925.815-5.982 1.378-9.026 2.276-3.021.875-6.09 2.193-8.295 4.613-1.055 1.234-1.894 2.671-2.398 4.265-.515 1.581-.767 3.27-.922 4.983-.324 3.415-.228 7.009-1.211 10.543-.48 1.761-1.343 3.414-2.397 4.935-1.115 1.486-2.446 2.78-3.884 3.954-2.925 2.288-6.137 4.037-9.218 5.858-3.068 1.809-6.041 3.726-8.439 6.17-4.758 4.936-6.784 11.92-5.849 18.114.923 6.241 4.615 11.572 9.218 14.711 4.687 3.151 10.009 4.157 14.683 5.103 4.711.911 9.062 1.726 12.574 3.367 3.524 1.557 6.21 3.642 7.996 5.678 1.762 2.073 2.565 4.098 2.888 5.475.192.683.228 1.234.264 1.594.048.371.048.551.048.551z" fill="#263238"/><path d="M585.414 144.359c-.012.036-.336-.048-.923-.24-.587-.179-1.402-.515-2.397-.97-1.99-.91-4.615-2.456-7.156-4.636-2.53-2.181-4.459-4.553-5.658-6.374-.599-.91-1.043-1.677-1.319-2.228-.275-.551-.407-.85-.371-.874.096-.048.767 1.114 2.05 2.851a38.023 38.023 0 005.693 6.158 38.108 38.108 0 006.94 4.708c1.93 1.018 3.189 1.509 3.141 1.605zm39.856 81.716c-.024.06-.755-.18-2.109-.48-1.355-.299-3.344-.599-5.814-.718-2.481-.108-5.43 0-8.714.251-3.284.228-6.904.563-10.728.479-3.824-.095-7.492-.67-10.584-1.988-3.081-1.306-5.49-3.235-7.096-5.176-1.607-1.952-2.41-3.893-2.733-5.259-.156-.683-.24-1.222-.252-1.593-.024-.372-.036-.563-.012-.563.072-.012.108.766.491 2.096.384 1.318 1.223 3.175 2.829 5.032 1.594 1.857 3.98 3.69 6.976 4.936 3.009 1.246 6.605 1.797 10.369 1.892 3.776.084 7.384-.227 10.668-.431 3.284-.215 6.269-.275 8.774-.12 2.505.168 4.507.539 5.85.923.671.191 1.186.347 1.534.491.372.12.551.204.551.228zm70.637 54.473c0 .012-.108.06-.347.156-.24.095-.588.251-1.067.347-.959.228-2.469.347-4.291-.192-1.798-.551-3.884-1.701-5.754-3.63-1.918-1.904-3.332-4.672-4.627-7.751-1.306-3.067-2.409-6.601-4.543-9.847-1.007-1.665-2.361-3.163-3.799-4.637-1.535-1.389-3.189-2.743-5.083-3.845-7.527-4.529-17.416-6.397-27.509-5.798-10.153.527-19.694 2.515-28.529 3.138-8.822.791-16.925-.179-23.266-2.408-6.377-2.18-10.836-5.582-13.329-8.35-.659-.659-1.151-1.341-1.594-1.905a11.986 11.986 0 01-1.043-1.497c-.24-.395-.431-.707-.587-.958-.132-.216-.192-.336-.18-.336.012 0 .084.096.24.3.155.239.371.539.635.922.264.407.611.911 1.079 1.45.455.551.959 1.21 1.63 1.857 2.529 2.695 6.976 5.99 13.293 8.098 6.293 2.144 14.3 3.067 23.075 2.24 8.786-.647 18.327-2.647 28.552-3.186 10.176-.599 20.197 1.293 27.845 5.93 1.918 1.126 3.608 2.516 5.166 3.941 1.474 1.51 2.853 3.055 3.86 4.756 2.169 3.343 3.236 6.901 4.519 9.968 1.246 3.066 2.613 5.798 4.459 7.679 1.81 1.905 3.824 3.079 5.574 3.642 1.762.563 3.248.491 4.195.299.947-.18 1.414-.431 1.426-.383z" fill="#455A64"/><path d="M507.382 144.347a8.959 8.959 0 00-9.133 7.955l-9.698 100.883c-1.678 14.185 16.89 44.602 32.101 46.279 15.367 1.689 16.865-5.75 18.855-19.192 3.332-22.462 4.447-30.908 4.435-30.777 0 0 19.778-.658 27.114-25.373 3.644-12.292 5.729-32.957 6.892-49.921 1.043-15.274-6.545-35.173-21.852-35.556l-48.714 5.702z" fill="#FFBE9D"/><path d="M571.259 187.595c-.167 1.713-1.75 2.995-3.56 2.851-1.798-.144-3.116-1.641-2.948-3.355.168-1.713 1.75-2.995 3.548-2.851 1.81.132 3.128 1.642 2.96 3.355zm1.379-6.529c-.371.455-2.972-1.198-6.473-.947-3.512.204-5.957 2.18-6.364 1.785-.204-.18.155-.97 1.222-1.869 1.043-.886 2.877-1.809 5.059-1.952 2.181-.144 4.075.539 5.19 1.281 1.126.755 1.546 1.498 1.366 1.702zm-32.219 8.35c-.42.419-2.841-1.486-6.353-1.582-3.512-.143-6.138 1.594-6.509 1.15-.18-.191.252-.958 1.402-1.737 1.127-.778 3.033-1.521 5.227-1.449 2.193.072 4.003.934 5.046 1.785 1.043.874 1.39 1.653 1.187 1.833zm6.544 18.557c.012-.204 2.229-.288 5.801-.276.899.024 1.775-.036 2.002-.623.3-.611.048-1.617-.251-2.719-.552-2.264-1.127-4.636-1.739-7.116-2.385-10.123-3.979-18.402-3.572-18.497.408-.096 2.673 8.038 5.059 18.161.563 2.492 1.115 4.876 1.618 7.14.204 1.055.635 2.277 0 3.546-.324.635-1.043 1.031-1.63 1.103-.588.095-1.091.048-1.534.012-3.573-.264-5.766-.54-5.754-.731z" fill="#263238"/><path d="M543.942 249.508s-17.141-1.139-32.639-13.466c0 0 6.245 18.485 31.836 19.444l.803-5.978z" fill="#EB996E"/><path d="M540.909 183.414c-.551.85-3.872-.384-7.995-.851-4.123-.539-7.635-.12-7.971-1.078-.144-.455.623-1.198 2.146-1.797 1.51-.599 3.775-.971 6.257-.671 2.469.299 4.59 1.198 5.909 2.132 1.331.947 1.906 1.857 1.654 2.265zm31.201-7.056c-.575.826-3.032.119-5.945.239-2.913.012-5.346.815-5.957 0-.264-.395.084-1.21 1.114-2.024 1.019-.803 2.769-1.51 4.771-1.558 2.002-.036 3.776.599 4.819 1.366 1.079.779 1.45 1.581 1.198 1.977z" fill="#263238"/><path d="M538.476 214.334a7.488 7.488 0 015.49-1.15c.959.18 1.93.575 2.553 1.33.828.982.923 2.372.887 3.666-.023.766-.071 1.557-.335 2.276-.264.719-.767 1.39-1.463 1.713-.719.336-1.558.252-2.349.12-1.306-.216-2.613-.587-3.704-1.342-1.091-.743-1.942-1.917-2.073-3.235-.12-1.317.611-2.731 1.857-3.186" fill="#EB996E"/><path d="M547.934 222.025c-.264.096-.719-.67-1.559-1.725-.839-1.054-2.121-2.384-3.847-3.366-1.726-.982-3.524-1.414-4.855-1.593-1.33-.192-2.229-.192-2.277-.468-.06-.239.779-.706 2.301-.862 1.498-.156 3.692.108 5.766 1.294 2.061 1.174 3.416 2.923 4.051 4.3.635 1.39.659 2.349.42 2.42zm-60.738 24.236c8.318-1.653 14.743-8.805 17.608-16.796 2.865-7.979 2.721-16.712 1.954-25.158-.096-1.09-.276-2.3-1.139-2.971-1.258-.97-3.068-.18-4.423.647a141.623 141.623 0 00-15.079 10.59c-4.459 3.594-8.87 7.727-10.584 13.178-2.625 8.374 2.924 18.378 11.423 20.594" fill="#263238"/><path d="M678.696 244.308l-39.293-63.111-10.848-22.21s-3.464-4.589-7.06-8.506c-5.909-6.434-11.735-1.438-11.735-1.438s-.851-2.456-3.943-2.432c-3.692.036-5.43 2.768-5.43 2.768s-1.606-1.785-6.065-2.061c-.959-.06-1.918.311-2.829.91-1.463-1.281-4.136-3.138-6.725-2.192-2.014.731-14.228 10.015-17.237 14.688-1.486 2.312 1.271 5.307 4.987 3.905 1.63-.623 3.272-1.114 4.459-1.809 1.99-1.162 3.02-2.432 3.02-2.432s-3.08 5.391-.012 6.338c1.283.395 4.004.107 5.778-1.402 1.175-.994 2.529-2.276 3.812-3.522-.048.072-.108.144-.156.215-1.702 2.516 2.733 6.242 4.891 4.733a31.984 31.984 0 002.864-2.265c4.987 3.618-1.941 8.255-4.866 8.015-4.531-.371-9.829-.347-13.521-.048-2.541.216-4.819.815-6.185 2.228-1.654 1.701.084 5.272 2.421 5.631 4.303.659 9.793 1.617 15.499 3.091 6.724 1.725 24.297 7.439 24.297 7.439l1.714 1.39 23.901 58.235-40.91 8.661-9.134 51.802 73.838-20.019c16.649-8.661 24.536-30.788 14.468-46.602z" fill="#FFBE9D"/><path d="M614.831 190.829c-.012.024-.324-.06-.935-.227-.66-.192-1.547-.444-2.649-.755-2.362-.695-5.658-1.677-9.71-2.887-2.049-.623-4.291-1.294-6.7-2.025-2.409-.743-4.975-1.509-7.72-2.204-2.733-.695-5.621-1.39-8.654-1.785-1.474-.228-3.14-.084-4.699-.851-.383-.191-.755-.431-1.055-.79a1.881 1.881 0 01-.359-.647l-.096-.635c-.096-.827-.108-1.689.156-2.54.275-.863.947-1.569 1.702-1.965.743-.419 1.534-.659 2.289-.91 1.571-.503 3.189-.587 4.735-.587 3.117.036 6.053.467 8.858.359 1.403-.048 2.769-.168 4.064-.395 1.306-.24 2.553-.575 3.776-.887 2.421-.647 4.806-1.114 6.988-.886 2.169.179 4.051.79 5.633 1.437 1.583.647 2.877 1.342 3.932 1.929 1.043.587 1.834 1.078 2.373 1.402.528.335.804.527.792.539-.012.012-.312-.132-.863-.431a201.57 201.57 0 01-2.422-1.306c-1.067-.551-2.361-1.21-3.943-1.821-1.571-.611-3.429-1.174-5.538-1.318-2.11-.192-4.399.288-6.821.946-1.21.324-2.469.683-3.811.935a27.564 27.564 0 01-4.148.431c-2.865.132-5.837-.287-8.882-.323-1.522 0-3.081.096-4.543.563-1.462.479-3.14.994-3.584 2.48-.228.706-.216 1.497-.132 2.276l.072.551c.036.12.132.275.228.395.228.264.527.467.851.623 1.342.671 2.949.563 4.495.791 3.081.407 5.981 1.126 8.714 1.833a150.02 150.02 0 017.72 2.264c2.397.755 4.627 1.45 6.676 2.097 4.028 1.281 7.312 2.336 9.662 3.078 1.09.36 1.965.647 2.613.863.635.24.935.359.935.383zm-30.291-44.697c.06.096-1.846 1.21-4.674 3.342a46.026 46.026 0 00-4.699 4.074c-1.678 1.629-3.44 3.546-5.526 5.331-1.019.862-1.978 1.797-2.218 2.959-.119.563-.072 1.15.204 1.605.264.467.731.779 1.235.959 1.043.347 2.157.251 3.164.059a15.124 15.124 0 002.745-.79c3.273-1.33 4.783-3.067 4.867-2.947.024.024-.324.455-1.079 1.114-.755.659-1.954 1.521-3.62 2.24-.827.359-1.774.671-2.817.887-1.031.215-2.229.359-3.452-.024-.599-.192-1.211-.587-1.57-1.198-.372-.599-.432-1.354-.3-2.037.276-1.414 1.391-2.444 2.409-3.306 2.05-1.761 3.812-3.642 5.526-5.272a43.739 43.739 0 018.403-6.301c.899-.479 1.39-.731 1.402-.695z" fill="#EB996E"/><path d="M599.534 151.092c.036.024-.467.611-1.39 1.653-.995 1.102-2.325 2.564-3.944 4.337-1.702 1.845-3.703 3.989-5.909 6.373-1.139 1.222-2.493 2.36-4.147 3.163-.827.395-1.75.695-2.745.683-.983-.024-2.014-.312-2.757-1.102-.396-.408-.588-.959-.66-1.498-.047-.539.036-1.054.156-1.545.276-.971.731-1.821 1.271-2.624l.012-.012.024-.024a598.807 598.807 0 005.849-6.289c1.798-1.905 3.524-3.463 4.927-4.792.695-.659 1.342-1.282 2.05-1.654.731-.371 1.414-.359 1.941-.419 1.055-.072 1.678.024 1.631.132.024-.048-.564-.06-1.607.072-.503.096-1.198.12-1.81.479-.635.359-1.234.982-1.929 1.665-1.367 1.366-3.057 2.947-4.819 4.864a425.535 425.535 0 01-5.802 6.361l.024-.036c-.491.719-.923 1.558-1.162 2.42-.12.432-.168.887-.144 1.318.06.42.204.827.491 1.138.552.599 1.475.887 2.302.899.863.012 1.702-.252 2.481-.623 1.546-.743 2.889-1.845 3.991-3.007 2.242-2.348 4.28-4.469 6.006-6.29a824.2 824.2 0 004.087-4.205c.444-.443.827-.814 1.139-1.126.276-.203.419-.323.443-.311zm18.365 5.774c.06.048-.059.36-.479.695a2.591 2.591 0 01-1.99.491c-.839-.144-1.438-.683-1.702-1.138-.276-.455-.288-.791-.204-.815.084-.035.24.228.552.54.311.311.827.682 1.462.79.635.108 1.247-.06 1.642-.251.408-.168.647-.372.719-.312z" fill="#EB996E"/><path d="M619.339 162.365c-.132.108-1.031-.791-1.822-2.133-.791-1.341-1.151-2.563-.995-2.623.168-.072.767 1.006 1.534 2.312.755 1.294 1.415 2.336 1.283 2.444zm2.648 21.42c-.06.036-.6-.887-1.139-2.492s-1.019-3.941-.983-6.553c.036-2.612.576-4.924 1.163-6.517.575-1.593 1.139-2.492 1.199-2.468.203.06-1.703 3.882-1.738 8.997-.108 5.104 1.69 8.973 1.498 9.033zm32.268 83.01c-.12.012-.239-1.27-.863-3.223-.299-.982-.779-2.097-1.414-3.295a21.676 21.676 0 00-2.505-3.582 21.48 21.48 0 00-3.237-2.947c-1.103-.778-2.145-1.401-3.08-1.833-1.858-.874-3.117-1.15-3.081-1.269.012-.048.324 0 .899.119.575.108 1.39.36 2.361.743.983.383 2.086.982 3.237 1.761a19.874 19.874 0 013.368 3.007 19.757 19.757 0 012.541 3.726c.624 1.246 1.079 2.42 1.331 3.438.264 1.018.407 1.857.431 2.432.048.599.048.923.012.923z" fill="#EB996E"/><path d="M517.151 382.174c-5.238-1.09-9.973 1.27-9.973 1.27-5.334-2.36-11.915 1.713-11.915 1.713-1.929-.922-13.557 6.673-13.557 6.673l-14.479 6.828-77.35-57.444 21.923-22.798-30.722-31.95-36.007 37.03c-4.484 4.624-6.749 10.866-7.18 17.431-.911 14.076 7.12 27.218 19.706 33.592l91.146 46.722s9.661-.336 20.725-3.223c7.863-2.048 21.3-8.014 21.3-8.014s-.036.407 2.362 5.055c4.327 8.374 10.668-.659 10.668-.659s1.294 2.971 2.457 4.097c5.478 5.308 9.278-1.821 9.278-1.821s1.642 2.864 6.545.731c4.878-2.12-.708-16.844-.708-16.844s1.643 3.199 4.819-.85c3.165-4.05-3.8-16.449-9.038-17.539z" fill="#FFBE9D"/><path d="M506.207 384.187c-.012-.024.324-.216 1.007-.384.671-.179 1.726-.227 2.937.084 1.211.312 2.565.983 3.872 1.977.659.503 1.306 1.042 1.93 1.725.611.683 1.078 1.498 1.51 2.336a58.711 58.711 0 013.536 8.877 44.41 44.41 0 01.755 2.792c.144.671.204 1.042.168 1.054-.096.024-.528-1.426-1.331-3.714a81.692 81.692 0 00-3.68-8.733c-.407-.815-.863-1.582-1.414-2.217a13.859 13.859 0 00-1.822-1.665c-1.247-.982-2.517-1.653-3.644-2.012-2.313-.719-3.812.036-3.824-.12zm9.314 32.489c-.036.012-.276-.455-.671-1.329-.456-.983-1.019-2.217-1.69-3.666-1.427-3.103-3.512-7.332-5.502-12.172-.971-2.42-1.858-4.732-3.153-6.541-1.258-1.833-2.925-3.019-4.447-3.714-1.522-.707-2.925-.802-3.836-.683-.923.12-1.402.372-1.438.312-.012-.024.108-.084.336-.204.227-.12.587-.251 1.066-.347.947-.204 2.434-.156 4.052.515a11.014 11.014 0 014.747 3.774c1.366 1.868 2.289 4.24 3.26 6.648 1.978 4.804 4.004 9.069 5.334 12.232.671 1.569 1.187 2.863 1.51 3.762.312.886.468 1.401.432 1.413zm-35.505-18.485c-.012-.036.419-.287 1.234-.683.935-.455 2.086-1.006 3.453-1.665.743-.347 1.522-.731 2.421-1.114a6.787 6.787 0 013.105-.455 6.422 6.422 0 013.248 1.246c.983.754 1.714 1.773 2.385 2.839.66 1.066 1.175 2.18 1.678 3.223a74.736 74.736 0 001.559 2.959c1.042 1.857 2.025 3.534 2.757 4.983.731 1.45 1.234 2.672 1.534 3.534.3.863.419 1.342.383 1.366-.107.036-.755-1.869-2.313-4.684-.767-1.414-1.786-3.055-2.865-4.912a56.211 56.211 0 01-1.606-2.971c-.527-1.054-1.031-2.132-1.666-3.163-.635-1.03-1.355-2-2.218-2.671-.875-.671-1.93-1.042-2.936-1.162a6.275 6.275 0 00-2.865.359c-.863.348-1.678.719-2.422 1.03-1.402.588-2.577 1.079-3.536 1.486-.839.323-1.318.503-1.33.455zm1.678-6.361c.024.036-.36.275-1.055.671-.695.395-1.714.946-2.985 1.617a539.982 539.982 0 01-9.961 5.115 677.768 677.768 0 01-10.044 4.96c-1.295.623-2.35 1.114-3.081 1.438-.731.323-1.151.491-1.163.443-.024-.036.36-.275 1.055-.671a118.88 118.88 0 012.985-1.617 545.502 545.502 0 019.961-5.116 680.897 680.897 0 0110.045-4.959 99.881 99.881 0 013.08-1.438c.731-.323 1.151-.491 1.163-.443zm-90.798-50.484c-.036.204-4.087-.922-9.134-.299-5.046.563-8.738 2.611-8.81 2.42-.036-.06.827-.659 2.374-1.342 1.546-.683 3.787-1.402 6.365-1.701 2.565-.3 4.926-.132 6.58.167 1.666.312 2.637.683 2.625.755z" fill="#EB996E"/><path d="M561.717 133.828a241.8 241.8 0 00-56.972 6.014c-4.327.983-8.906 2.253-11.831 5.595-3.093 3.522-3.644 8.554-4.052 13.226-.491 5.69-.982 11.381-1.486 17.071a38.281 38.281 0 01-2.733 4.074c-4.507 5.882-10.248 10.782-14.348 16.963-4.099 6.17-6.365 14.376-3.021 20.989 2.014 4.002 5.766 6.829 8.499 10.375 4.639 6.026 6.149 13.789 8.858 20.893 2.709 7.104 7.6 14.34 15.067 15.766 3.56.683 7.264-.072 10.848.455 5.358.779 9.865 4.289 14.133 7.631 4.267 3.343 8.882 6.757 14.264 7.284 5.394.539 11.567-3.115 11.675-8.53-3.956 2.301-9.206 2.145-13.03-.371-3.14-2.061-5.166-5.415-7.863-8.039-6.617-6.421-17.297-8.457-21.9-16.448-3.644-6.326-2.193-14.232-.539-21.337 1.438-6.157 2.889-12.842 1.115-18.76.132-.947.215-1.917.215-2.875.048-6.302-2.457-13.059.48-18.629 3.884-7.38 15.079-8.302 18.999-15.658 2.277-4.277 1.474-9.74 3.967-13.885 2.35-3.905 7.025-5.702 11.484-6.673 4.447-.97 9.145-1.413 13.089-3.714 3.944-2.3 6.868-7.236 5.082-11.417z" fill="#263238"/><path d="M576.245 262.362c.012.012-.048.108-.18.299a48.66 48.66 0 00-.587.839c-.54.719-1.439 1.701-2.757 2.791-1.343 1.055-3.165 2.145-5.466 2.935a18.979 18.979 0 01-8.163.947c-3.057-.252-6.365-1.498-9.182-3.762-2.853-2.192-5.394-5.103-8.618-7.415-1.619-1.139-3.465-2.049-5.49-2.301-2.038-.287-4.112.3-6.114 1.103-2.013.79-4.039 1.808-6.353 2.192-2.313.407-4.734-.156-6.82-1.21-2.122-1.042-3.979-2.444-5.766-3.822-1.786-1.389-3.536-2.791-5.058-4.396-1.534-1.582-2.853-3.391-3.596-5.427-.791-2.025-.827-4.229-.407-6.23.395-2.013 1.126-3.846 1.81-5.619a75.618 75.618 0 001.822-5.199 71.588 71.588 0 002.217-9.632 70.834 70.834 0 00.779-14.292 61.425 61.425 0 00-.276-3.893c-.035-.42-.071-.755-.083-1.007-.012-.227-.024-.347-.012-.347s.036.108.072.335c.035.264.083.587.155 1.007.132.886.276 2.192.396 3.893.228 3.39.3 8.338-.575 14.376a70.542 70.542 0 01-2.158 9.716 73.755 73.755 0 01-1.81 5.247c-.671 1.773-1.379 3.594-1.762 5.535-.384 1.929-.348 3.989.407 5.906.708 1.929 1.978 3.654 3.477 5.199 1.498 1.558 3.224 2.947 4.998 4.325 1.774 1.378 3.608 2.743 5.658 3.75 2.025 1.018 4.291 1.533 6.461 1.162 2.169-.348 4.183-1.342 6.221-2.145 2.025-.814 4.231-1.437 6.401-1.126 2.157.276 4.099 1.258 5.753 2.42 3.296 2.396 5.814 5.307 8.607 7.488 2.745 2.24 5.921 3.45 8.906 3.726 2.984.347 5.741-.096 8.007-.839a18.783 18.783 0 005.43-2.791c2.649-2.097 3.572-3.822 3.656-3.738z" fill="#263238"/><path d="M456.486 224.266s-.371-.42-.959-1.318c-.563-.911-1.27-2.36-1.69-4.361-.431-2.001-.491-4.552.12-7.404.635-2.827 1.894-5.978 4.148-8.889 2.205-2.923 5.202-5.642 8.654-8.182 3.44-2.564 7.348-4.936 11.243-7.715 3.86-2.792 7.816-6.026 10.669-10.363 1.438-2.144 2.457-4.588 3.236-7.152.779-2.564 1.307-5.247 1.918-7.955.611-2.707 1.318-5.391 2.421-7.883 1.079-2.503 2.685-4.78 4.711-6.505 2.026-1.725 4.387-2.947 6.796-3.737 2.41-.815 4.879-1.234 7.288-1.438 4.831-.419 9.41.12 13.665.431 4.255.348 8.223.539 11.819.156a25.17 25.17 0 009.266-2.755c2.517-1.366 4.423-2.995 5.681-4.577 1.259-1.569 1.942-3.007 2.29-4.013.335-1.006.467-1.557.503-1.546 0 0-.072.564-.383 1.594-.324 1.018-.971 2.504-2.23 4.121-1.235 1.629-3.164 3.318-5.706 4.732a25.355 25.355 0 01-9.385 2.887c-3.632.42-7.648.252-11.903-.072-4.255-.299-8.81-.802-13.569-.371-2.373.216-4.794.635-7.144 1.438-2.361.778-4.639 1.964-6.593 3.641-1.953 1.666-3.488 3.858-4.542 6.302-1.079 2.432-1.774 5.079-2.386 7.775-.623 2.695-1.151 5.391-1.93 7.991-.779 2.599-1.846 5.115-3.32 7.307-2.925 4.433-6.952 7.692-10.848 10.495-3.932 2.779-7.839 5.139-11.267 7.667-3.441 2.492-6.413 5.163-8.607 8.027-2.229 2.839-3.5 5.918-4.159 8.697-.623 2.792-.612 5.307-.216 7.284.791 3.953 2.553 5.631 2.409 5.691z" fill="#455A64"/><path d="M459.998 230.555s-1.486-1.078-3.68-3.534c-1.078-1.234-2.349-2.851-3.2-5.08-.408-1.102-.683-2.384-.552-3.749.12-1.354.684-2.744 1.619-3.93 1.942-2.372 5.154-3.654 8.522-4.36 1.702-.36 3.464-.635 5.226-1.067 1.762-.431 3.56-1.042 5.107-2.12 1.534-1.102 2.793-2.636 3.716-4.397.947-1.761 1.606-3.726 2.301-5.714.695-1.989 1.39-4.049 2.445-6.002 1.019-1.965 2.541-3.762 4.495-4.972 1.954-1.21 4.124-1.881 6.245-2.432 2.122-.551 4.22-.994 6.197-1.665 4.004-1.258 7.145-4.001 9.518-7.008 2.409-3.007 4.171-6.254 5.909-9.237 1.726-2.983 3.441-5.738 5.382-7.979 1.906-2.264 4.064-3.941 6.15-5.019 2.097-1.09 4.099-1.582 5.741-1.737 1.654-.132 2.949.072 3.776.311.839.228 1.247.431 1.247.431-.012.036-.444-.131-1.271-.311-.827-.192-2.11-.347-3.728-.192-1.618.18-3.56.707-5.598 1.797-2.037 1.09-4.123 2.756-5.981 4.996-1.882 2.216-3.572 4.96-5.274 7.955-1.714 2.983-3.464 6.265-5.91 9.332-1.21 1.534-2.601 3.007-4.231 4.277-1.618 1.282-3.512 2.288-5.55 2.959-2.025.695-4.135 1.138-6.233 1.689-2.097.551-4.207 1.21-6.065 2.36-1.858 1.15-3.296 2.84-4.291 4.744-1.019 1.893-1.714 3.918-2.41 5.906-.695 1.989-1.366 3.978-2.349 5.799-.959 1.821-2.277 3.438-3.92 4.6-1.642 1.138-3.512 1.749-5.31 2.18-1.798.432-3.572.695-5.25 1.043-3.32.671-6.437 1.905-8.283 4.133-.899 1.102-1.438 2.408-1.57 3.69-.144 1.282.096 2.515.48 3.582.791 2.156 2.025 3.785 3.056 5.031 1.055 1.246 1.954 2.145 2.565 2.756.288.275.516.503.707.683.18.155.264.239.252.251z" fill="#455A64"/><path d="M607.554 153.164c.036.024-.192.36-.623.923a69.099 69.099 0 01-1.894 2.36c-1.63 1.965-3.98 4.6-6.736 7.368-1.367 1.329-2.65 2.851-4.412 3.402-.851.263-1.762.275-2.529-.024-.779-.3-1.306-.899-1.63-1.486-.647-1.21-.539-2.348-.455-3.043.107-.718.251-1.09.287-1.078.048.012-.012.408-.048 1.102-.012.683-.036 1.761.588 2.804.311.515.779.994 1.426 1.222.635.227 1.426.215 2.17-.036 1.522-.491 2.769-1.941 4.147-3.295a223.047 223.047 0 006.844-7.212c1.738-1.893 2.793-3.067 2.865-3.007z" fill="#EB996E"/><path d="M616.712 153.164c.036.024-.228.36-.72.935-.491.575-1.222 1.389-2.133 2.384-.959 1.03-2.038 2.204-3.225 3.486-.611.659-1.258 1.342-1.918 2.049-.671.706-1.378 1.449-2.253 2.072-.863.623-1.87 1.09-2.925 1.162-1.043.096-2.157-.347-2.721-1.186a2.335 2.335 0 01-.443-1.39c.012-.491.203-.922.407-1.281.444-.719.899-1.27 1.295-1.821a198.82 198.82 0 011.918-2.564c.467-.599.743-.911.779-.887.036.024-.168.396-.576 1.031-.407.635-1.006 1.557-1.762 2.671-.359.563-.827 1.174-1.198 1.821-.384.647-.444 1.438.048 2.085.467.647 1.318.994 2.217.91.899-.06 1.798-.479 2.601-1.054.803-.575 1.499-1.294 2.17-1.989l1.942-2.012c1.222-1.246 2.337-2.384 3.32-3.391.947-.958 1.726-1.725 2.278-2.252.551-.527.863-.803.899-.779z" fill="#EB996E"/><path d="M741.865 519.932c2.05-4.457 6.377-7.787 11.208-8.626 4.83-.838 10.033.851 13.461 4.361-2.338 4.157-6.533 6.924-11.04 8.47-5.298 1.821-11.064-.324-13.629-4.205z" fill="#F94244"/><path d="M733.356 521.897c-.024-.072 1.282-.551 3.44-1.079 2.17-.527 5.178-1.126 8.534-1.677 3.345-.551 6.401-.97 8.607-1.222 2.205-.263 3.584-.359 3.596-.275.012.084-1.343.347-3.536.719-2.385.395-5.322.874-8.571 1.401a425.445 425.445 0 00-8.546 1.486c-2.17.419-3.5.731-3.524.647z" fill="#263238"/><path d="M313.428 444.086c5.083 4.181 7.876 10.998 7.168 17.551-.707 6.541-4.878 12.615-10.74 15.622-4.399-11.273-6.089-23.409 3.572-33.173zm16.674 8.65c.467 8.506 5.441 16.64 12.813 20.917 7.372 4.277 16.901 4.589 24.525.779-8.379-13.226-19.742-24.284-37.338-21.696z" fill="#F94244"/><path d="M291.899 411.07c.012-.012.204.191.551.599.384.455.875 1.054 1.499 1.785 1.282 1.569 3.128 3.833 5.478 6.577 4.674 5.51 11.279 13.01 19.059 20.833a277.09 277.09 0 0011.279 10.698c3.584 3.163 6.904 5.906 9.769 8.086 2.901 2.145 5.298 3.822 7.06 4.804 1.738 1.031 2.769 1.45 2.745 1.522-.012.024-.264-.084-.755-.288-.491-.215-1.223-.503-2.098-1.018-1.81-.922-4.255-2.552-7.204-4.66-2.924-2.145-6.269-4.864-9.889-8.015a260.344 260.344 0 01-11.339-10.686c-7.791-7.835-14.36-15.394-18.951-20.989-2.301-2.791-4.111-5.091-5.334-6.709-.575-.766-1.043-1.377-1.402-1.857-.324-.431-.48-.67-.468-.682z" fill="#263238"/><path d="M312.503 461.122c-.108-.024.3-1.689.636-4.409.347-2.719.539-6.517.12-10.674-.444-4.157-1.415-7.835-2.314-10.422-.899-2.588-1.63-4.133-1.534-4.181.036-.024.252.347.611 1.042.372.683.827 1.701 1.331 2.995 1.019 2.576 2.073 6.289 2.529 10.506.431 4.217.156 8.075-.3 10.806-.228 1.366-.467 2.468-.683 3.211-.228.743-.36 1.138-.396 1.126z" fill="#263238"/><path d="M841.489 218.683c-2.961-3.918-3.836-9.309-2.278-13.957 1.559-4.648 5.502-8.434 10.225-9.776 2.553 4.026 2.997 9.021 2.23 13.73-.911 5.534-5.538 9.584-10.177 10.003z" fill="#F94244"/><path d="M839.188 227.105c-.084-.012.12-1.39.695-3.546.564-2.157 1.475-5.092 2.577-8.303a196.579 196.579 0 012.997-8.146c.815-2.061 1.378-3.318 1.462-3.294.084.035-.335 1.341-1.042 3.45-.792 2.288-1.75 5.091-2.829 8.206a386.38 386.38 0 00-2.745 8.218c-.683 2.109-1.031 3.439-1.115 3.415z" fill="#263238"/><path d="M788.662 307.814c-2.469-9.153-.156-19.467 6.006-26.679 6.161-7.212 15.978-11.142 25.411-10.147 1.666 9.056-1.15 18.353-5.933 26.236-5.646 9.272-16.865 13.202-25.484 10.59z" fill="#F94244"/><path d="M753.255 343.275c-.012-.012.155-.24.503-.647.396-.455.911-1.03 1.546-1.761 1.379-1.51 3.38-3.666 5.898-6.302 5.022-5.271 12.046-12.471 19.862-20.377a2729.238 2729.238 0 0120.113-20.139c2.565-2.516 4.651-4.564 6.161-6.038.696-.671 1.259-1.21 1.703-1.617.395-.36.611-.551.623-.539.012.012-.168.227-.528.623-.407.431-.947.994-1.618 1.701-1.474 1.509-3.512 3.606-6.017 6.182-5.154 5.235-12.203 12.375-19.982 20.27a25226.066 25226.066 0 01-19.994 20.246 2282.79 2282.79 0 01-6.041 6.158c-.671.695-1.223 1.246-1.63 1.677-.372.383-.576.575-.599.563z" fill="#263238"/><path opacity=".3" d="M788.662 307.814c-2.469-9.153-.156-19.467 6.006-26.679 6.161-7.212 15.978-11.142 25.411-10.147 1.666 9.056-1.15 18.353-5.933 26.236-5.646 9.272-16.865 13.202-25.484 10.59z" fill="#000"/><path d="M772.288 311.372c-5.178-2.659-8.906-7.979-9.637-13.753-.731-5.774 1.534-11.848 5.886-15.718 4.806 2.983 7.863 8.111 9.469 13.526 1.882 6.397-.971 13.118-5.718 15.945z" fill="#F94244"/><path opacity=".3" d="M772.288 311.372c-5.178-2.659-8.906-7.979-9.637-13.753-.731-5.774 1.534-11.848 5.886-15.718 4.806 2.983 7.863 8.111 9.469 13.526 1.882 6.397-.971 13.118-5.718 15.945z" fill="#000"/><path d="M774.158 321.579c-.036.012-.168-.383-.372-1.09-.204-.719-.431-1.761-.683-3.055-.504-2.6-1.031-6.206-1.51-10.207-.48-4.001-.816-7.631-1.007-10.255-.204-2.635-.264-4.265-.18-4.265.084-.012.3 1.606.611 4.229.324 2.792.731 6.326 1.187 10.231.479 3.99.935 7.596 1.33 10.207.396 2.588.72 4.181.624 4.205z" fill="#263238"/><path d="M547.838 450.22c3.656-8.613 11.831-15.154 21.036-16.832 9.206-1.677 19.167 1.57 25.616 8.338-13.593 10.543-29.451 17.731-46.652 8.494z" fill="#F94244"/><path opacity=".3" d="M547.838 450.22c3.656-8.613 11.831-15.154 21.036-16.832 9.206-1.677 19.167 1.57 25.616 8.338-13.593 10.543-29.451 17.731-46.652 8.494z" fill="#000"/><path d="M540.155 454.437c-.024-.036.36-.335 1.079-.838.719-.515 1.786-1.198 3.141-1.989 2.709-1.593 6.64-3.51 11.207-5.02 4.567-1.497 8.87-2.288 11.999-2.623 1.558-.168 2.829-.252 3.716-.264.875-.024 1.366-.012 1.366.036 0 .108-1.93.228-5.022.671a71.409 71.409 0 00-11.855 2.779 71.07 71.07 0 00-11.184 4.816c-2.757 1.462-4.387 2.516-4.447 2.432z" fill="#263238"/><path d="M231.857 294.121c6.545-3.055 14.624-2.588 20.773 1.21 6.149 3.797 10.189 10.794 10.393 18.018-13.246-.983-26.059-5.044-31.166-19.228z" fill="#F94244"/><path opacity=".3" d="M231.857 294.121c6.545-3.055 14.624-2.588 20.773 1.21 6.149 3.797 10.189 10.794 10.393 18.018-13.246-.983-26.059-5.044-31.166-19.228z" fill="#000"/><path d="M225.277 292.575c.012-.047.384-.023 1.055.048.672.06 1.654.216 2.841.456 2.385.479 5.634 1.389 9.038 2.887 3.404 1.497 6.281 3.27 8.235 4.708.983.719 1.75 1.33 2.253 1.785.516.455.779.707.756.743-.06.084-1.247-.839-3.261-2.169a57.375 57.375 0 00-8.235-4.504 57.013 57.013 0 00-8.882-3.031c-2.337-.575-3.812-.827-3.8-.923z" fill="#263238"/><path d="M661.377 435.545c-.779-6.409 1.87-13.142 6.808-17.311 4.939-4.169 12.023-5.655 18.22-3.822-4.519 10.986-11.543 20.75-25.028 21.133z" fill="#F94244"/><path d="M658.224 440.708c-.06-.036.431-1.282 1.498-3.186 1.067-1.893 2.745-4.409 4.974-6.889 2.23-2.48 4.543-4.421 6.305-5.69 1.774-1.27 2.961-1.893 2.997-1.833.048.084-1.055.838-2.733 2.18a50.825 50.825 0 00-6.113 5.75 50.872 50.872 0 00-5.058 6.697c-1.139 1.833-1.774 3.007-1.87 2.971z" fill="#263238"/><path d="M755.699 373.309c-1.965-6.158-.635-13.262 3.429-18.282 4.063-5.019 10.74-7.811 17.177-7.176-2.374 11.645-7.432 22.547-20.606 25.458z" fill="#F94244"/><path opacity=".3" d="M755.699 373.309c-1.965-6.158-.635-13.262 3.429-18.282 4.063-5.019 10.74-7.811 17.177-7.176-2.374 11.645-7.432 22.547-20.606 25.458z" fill="#000"/><path d="M753.578 378.975c-.072-.024.18-1.342.875-3.402.683-2.061 1.87-4.852 3.584-7.703s3.632-5.2 5.131-6.769c1.498-1.581 2.553-2.42 2.601-2.36.072.072-.875 1.018-2.278 2.66a51.529 51.529 0 00-4.926 6.804 51.5 51.5 0 00-3.704 7.536c-.779 1.976-1.187 3.258-1.283 3.234z" fill="#263238"/><path d="M44.688 287.64c1.402-6.314 6.137-11.777 12.178-14.065 6.041-2.288 13.221-1.341 18.447 2.456-7.899 8.853-17.776 15.73-30.626 11.609z" fill="#F94244"/><path d="M40 291.461c-.048-.048.827-1.066 2.47-2.503 1.63-1.438 4.063-3.247 6.975-4.84 2.925-1.594 5.754-2.66 7.84-3.271 2.085-.611 3.428-.802 3.44-.731.024.096-1.27.444-3.308 1.15a52.277 52.277 0 00-7.684 3.391 52.24 52.24 0 00-7 4.636c-1.666 1.342-2.661 2.24-2.733 2.168z" fill="#263238"/><path d="M592.584 131.301l9.637-17.359a45.974 45.974 0 01-7.072-24.115c-.24-25.494 20.234-46.363 45.753-46.614 25.508-.24 46.389 20.222 46.64 45.727.24 25.494-20.233 46.363-45.753 46.614-10.656.108-20.485-3.414-28.36-9.392l.012.024-20.857 5.115z" fill="#fff"/><path d="M592.584 131.301c1.079-.276 7.6-1.929 20.809-5.271l-.084.251-.012-.024-.731-.934.947.707a46.948 46.948 0 009.517 5.534c3.716 1.582 7.947 2.852 12.61 3.415 2.325.263 4.759.419 7.252.275 1.247-.084 2.517-.132 3.788-.251 1.27-.204 2.553-.42 3.859-.635a46.547 46.547 0 0015.331-6.23 46.352 46.352 0 0013.018-12.423c3.596-5.116 6.293-11.166 7.528-17.707 1.21-6.54 1.03-13.537-.756-20.282-1.798-6.72-5.082-13.286-9.961-18.653l-1.881-2.036c-.624-.683-1.355-1.246-2.026-1.87-.695-.586-1.331-1.257-2.086-1.784l-2.205-1.617c-.72-.563-1.499-1.019-2.278-1.474l-2.325-1.378c-.815-.383-1.631-.766-2.434-1.15-.815-.371-1.606-.802-2.457-1.066a46.662 46.662 0 00-20.485-2.959c-6.761.54-13.209 2.54-18.735 5.703a46.422 46.422 0 00-21.504 26.847c-1.547 5.115-1.942 10.195-1.894 14.89.323 9.465 3.524 17.228 6.952 22.703l.048.072-.048.072c-6.209 10.997-9.23 16.352-9.757 17.275.503-.935 3.452-6.326 9.505-17.431v.156c-3.488-5.487-6.76-13.298-7.12-22.846-.06-4.744.312-9.872 1.858-15.047a47.15 47.15 0 017.732-15.059 46.719 46.719 0 0113.952-12.136c5.586-3.222 12.131-5.247 18.963-5.798a47.222 47.222 0 0120.761 2.983c.863.264 1.666.707 2.493 1.078.815.384 1.642.779 2.469 1.174l2.362 1.402c.791.467 1.594.922 2.313 1.497l2.23 1.642c.767.527 1.402 1.21 2.109 1.809.684.635 1.427 1.198 2.05 1.892l1.906 2.061c4.95 5.451 8.283 12.088 10.093 18.916a47.233 47.233 0 01.743 20.558c-1.247 6.637-3.992 12.759-7.648 17.922a46.567 46.567 0 01-13.197 12.543 47.072 47.072 0 01-15.523 6.266c-1.318.215-2.613.419-3.895.623-1.295.12-2.577.168-3.836.251-2.517.144-4.975-.024-7.324-.299-4.711-.575-8.978-1.881-12.706-3.498a46.758 46.758 0 01-9.553-5.643l.216-.215.012.023.143.192-.239.06c-13.234 3.115-19.79 4.672-20.869 4.924z" fill="#263238"/><path d="M628.531 81.476l6.006-.06s-.048-5.043 5.19-5.187c2.721-.072 4.147 1.701 4.735 3.055.683 1.581.491 3.39-.384 4.864-1.007 1.689-3.224 3.234-7.276 2.563l.132 13.55 5.945-.06-.072-7.93s8.319-2.23 8.223-11.418c-.084-8.781-7.983-10.746-11.363-10.71-2.565.036-11.352.743-11.136 11.333zm14.483 21.528l-6.03.058.054 5.631 6.03-.058-.054-5.631z" fill="#F94244"/></svg>