<svg width="192" height="16" fill="none" xmlns="http://www.w3.org/2000/svg"><path d="M191.333 8.802a1 1 0 000-1.414l-6.364-6.364a1 1 0 10-1.414 1.414l5.657 5.657-5.657 5.657a1 1 0 101.414 1.414l6.364-6.364zM.626 9.095H2.11v-2H.626v2zm4.453 0h2.969v-2H5.079v2zm5.938 0h2.968v-2h-2.968v2zm5.937 0h2.969v-2h-2.969v2zm5.938 0h2.968v-2h-2.968v2zm5.937 0h2.969v-2h-2.969v2zm5.938 0h2.968v-2h-2.968v2zm5.937 0h2.969v-2h-2.969v2zm5.938 0h2.968v-2h-2.968v2zm5.937 0h2.969v-2h-2.969v2zm5.938 0h2.968v-2h-2.968v2zm5.937 0h2.969v-2h-2.969v2zm5.938 0h2.968v-2h-2.968v2zm5.937 0h2.969v-2h-2.969v2zm5.938 0h2.968v-2h-2.968v2zm5.937 0h2.969v-2h-2.969v2zm5.938 0h2.968v-2h-2.968v2zm5.937 0h2.969v-2h-2.969v2zm5.938 0h2.968v-2h-2.968v2zm5.937 0h2.969v-2h-2.969v2zm5.938 0h2.968v-2h-2.968v2zm5.937 0h2.969v-2h-2.969v2zm5.938 0h2.968v-2h-2.968v2zm5.937 0h2.969v-2h-2.969v2zm5.938 0h2.968v-2h-2.968v2zm5.937 0h2.969v-2h-2.969v2zm5.938 0h2.968v-2h-2.968v2zm5.937 0h2.969v-2h-2.969v2zm5.938 0h2.968v-2h-2.968v2zm5.937 0h2.969v-2h-2.969v2zm5.938 0h2.968v-2h-2.968v2zm5.937 0h2.969v-2h-2.969v2zm5.938 0h1.484v-2h-1.484v2z" fill="#7F9681"/></svg>