<svg width="1600" height="900" viewBox="0 0 1600 900" fill="none" xmlns="http://www.w3.org/2000/svg">
<g filter="url(#filter0_f)">
<path d="M1580.4 784.434C1492.3 951.634 1251.26 1080.63 1111.38 1006.92C971.491 933.209 1114.22 807.065 1202.32 639.865C1290.42 472.666 1235.5 56.2306 1375.38 129.94C1515.27 203.649 1668.5 617.235 1580.4 784.434Z" fill="#5F285C"/>
</g>
<g filter="url(#filter1_f)">
<path d="M-76.1649 323.502C-152.965 224.761 -165.006 44.2129 -82.3947 -20.0415C0.216793 -84.2959 37.3551 36.1917 114.155 134.933C190.955 233.675 457.079 314.148 374.468 378.402C291.856 442.657 0.635245 422.244 -76.1649 323.502Z" fill="#2239AB" fill-opacity="0.6"/>
</g>
<g filter="url(#filter2_f)">
<path d="M659.804 318.394C605.01 422.383 373.941 459.846 203.125 369.839C32.3078 279.832 156.843 220.222 211.637 116.232C266.431 12.243 103.607 -314.553 274.424 -224.546C445.24 -134.539 714.598 214.404 659.804 318.394Z" fill="#5F285C" fill-opacity="0.5"/>
</g>
<path d="M1426.7 234.989C1426.7 234.989 1444.21 224.172 1458.47 243.917C1458.29 244.604 1444.56 238.079 1432.88 246.493C1432.02 245.634 1426.7 234.989 1426.7 234.989Z" fill="#272B30"/>
<path d="M1411.42 245.978C1411.42 245.978 1395.62 259.027 1409.87 278.944C1410.56 279.116 1408.67 263.835 1420.52 255.421C1419.83 254.391 1411.42 245.978 1411.42 245.978Z" fill="#272B30"/>
<path d="M1313.89 316.032C1313.89 316.032 1298.1 329.081 1312.35 348.999C1313.04 349.17 1311.15 333.889 1322.99 325.476C1322.31 324.445 1313.89 316.032 1313.89 316.032Z" fill="#272B30"/>
<path d="M1329 305.215C1329 305.215 1346.52 294.398 1360.77 314.143C1360.59 314.83 1346.86 308.305 1335.18 316.719C1334.32 315.689 1329 305.215 1329 305.215Z" fill="#272B30"/>
<path d="M1328.83 310.022L1323.34 313.113C1323.34 313.113 1324.03 313.972 1325.06 315.517L1324.71 315.345C1323.85 314.143 1323.17 313.285 1323.17 313.285L1318.36 317.406C1318.36 317.406 1320.93 330.798 1344.11 342.474C1340.68 316.891 1328.83 310.022 1328.83 310.022ZM1343.94 341.959L1344.11 342.131C1343.94 342.131 1343.94 341.959 1343.94 341.959Z" fill="#ECB534"/>
<path d="M1426.36 239.968L1420.86 243.059C1420.86 243.059 1421.55 243.917 1422.58 245.463L1422.24 245.291C1421.38 244.089 1420.69 243.231 1420.69 243.231L1415.88 247.351C1415.88 247.351 1418.46 260.744 1441.64 272.42C1438.38 246.836 1426.36 239.968 1426.36 239.968ZM1441.47 271.905L1441.64 272.076C1441.64 272.076 1441.64 271.905 1441.47 271.905Z" fill="#ECB534"/>
<path d="M1386.87 254.048L1403.69 213.354L1408.84 220.566L1391.16 260.229L1386.87 254.048Z" fill="#272B30"/>
<path d="M1406.94 207.245L1391.32 218.461L1418.76 256.676L1434.38 245.461L1406.94 207.245Z" fill="#FBFBFB"/>
<path d="M1406.78 206.83C1403.69 202.538 1397.68 201.508 1393.39 204.598C1389.1 207.689 1388.07 213.698 1391.16 217.991L1406.78 206.83Z" fill="#A24644"/>
<path d="M1344.63 284.267L1300.67 287.358L1305.82 294.569L1349.09 290.448L1344.63 284.267Z" fill="#272B30"/>
<path d="M1309.36 277.2L1293.74 288.417L1321.18 326.633L1336.8 315.416L1309.36 277.2Z" fill="#FBFBFB"/>
<path d="M1293.46 288.216C1290.37 283.924 1291.4 277.914 1295.69 274.824C1299.99 271.733 1305.99 272.763 1309.09 277.056L1293.46 288.216Z" fill="#A24644"/>
<path d="M1256.38 117.03C1257.75 118.919 1281.27 151.714 1281.27 151.714L1256.38 117.03Z" fill="#A24644"/>
<path d="M1282.64 150.684L1280.07 152.572L1255 117.889L1257.58 116L1282.64 150.684Z" fill="#272B30"/>
<path d="M1389.62 280.833L1378.63 287.186C1378.63 287.186 1379.83 288.903 1381.89 291.822L1381.2 291.479C1379.31 288.903 1378.28 287.358 1378.28 287.358L1368.84 295.771C1368.84 295.771 1374.16 322.728 1420.35 345.736C1413.31 294.569 1389.62 280.833 1389.62 280.833ZM1419.84 344.706L1420.18 345.05C1420.01 345.05 1420.01 344.878 1419.84 344.706Z" fill="#ECB534"/>
<path d="M1356.65 290.105C1357.16 290.792 1363.51 299.72 1363.51 299.72L1395.11 277.056C1395.11 277.056 1386.52 265.895 1387.21 266.067C1387.9 265.895 1356.65 290.105 1356.65 290.105Z" fill="#ECB534"/>
<path d="M1337.42 179.53C1321.79 158.239 1298.79 145.361 1274.4 141.927C1269.77 166.137 1274.75 192.064 1289.86 213.698L1337.42 179.53Z" fill="#C0443A"/>
<path d="M1314.92 198.589L1291.06 215.587L1350.47 298.347L1374.33 281.177L1398.03 264.178L1338.79 181.418L1314.92 198.589Z" fill="#FBFBFB"/>
<path d="M1361.97 283.924C1370.04 295.084 1380.86 302.983 1393.05 307.447C1392.7 294.569 1388.76 281.692 1380.69 270.531C1372.62 259.371 1361.8 251.472 1349.61 247.008C1349.95 259.886 1354.07 272.763 1361.97 283.924Z" fill="#272B30"/>
<path d="M1340.68 214.041C1344.46 219.364 1343.25 226.747 1337.93 230.525C1332.61 234.302 1325.23 233.1 1321.45 227.777C1317.67 222.455 1318.87 215.071 1324.2 211.294C1329.52 207.517 1336.9 208.718 1340.68 214.041Z" fill="#8AC2CB"/>
<path d="M1342.74 237.221C1333.81 243.746 1321.1 241.685 1314.75 232.585C1308.23 223.657 1310.29 210.951 1319.39 204.598C1328.32 198.073 1341.02 200.134 1347.38 209.234C1353.73 218.334 1351.67 230.868 1342.74 237.221ZM1322.14 208.547C1315.27 213.526 1313.72 223.142 1318.7 230.01C1323.68 236.878 1333.3 238.423 1340.16 233.444C1347.03 228.464 1348.58 218.849 1343.6 211.981C1338.62 205.113 1329 203.568 1322.14 208.547Z" fill="#A24644"/>
<g opacity="0.4">
<path opacity="0.4" d="M1289.68 213.698L1313.55 196.528L1274.23 141.927C1269.77 166.137 1274.57 192.064 1289.68 213.698Z" fill="#272B30"/>
</g>
<g opacity="0.4">
<path opacity="0.4" d="M1314.95 198.573L1291.1 215.696L1350.48 298.403L1374.33 281.28L1314.95 198.573Z" fill="#272B30"/>
</g>
<g opacity="0.4">
<path opacity="0.4" d="M1301.47 282.777L1293.66 288.386L1321.11 326.602L1328.92 320.993L1301.47 282.777Z" fill="#272B30"/>
</g>
<g opacity="0.4">
<path opacity="0.4" d="M1295.69 274.652C1291.4 277.742 1290.37 283.752 1293.46 288.045L1301.36 282.378L1295.69 274.652Z" fill="#272B30"/>
</g>
<g opacity="0.4">
<path opacity="0.4" d="M1406.94 207.099L1399.13 212.708L1426.57 250.923L1434.38 245.315L1406.94 207.099Z" fill="#272B30"/>
</g>
<g opacity="0.4">
<path opacity="0.4" d="M1393.39 204.598C1397.68 201.508 1403.69 202.538 1406.78 206.83L1398.89 212.496L1393.39 204.598Z" fill="#272B30"/>
</g>
<path d="M266.78 735.22C309.428 716.563 328.876 666.867 310.22 624.22C291.563 581.572 241.867 562.124 199.22 580.78C156.572 599.437 137.124 649.133 155.78 691.78C174.437 734.428 224.133 753.876 266.78 735.22Z" fill="#9C9C9F"/>
<path d="M253.315 592.625C253.315 594.452 243.95 595.137 232.758 594.68C221.566 593.995 212.43 592.168 212.658 590.341C212.658 588.513 222.023 587.828 233.215 588.285C244.407 588.97 253.543 590.797 253.315 592.625Z" fill="#545454"/>
<path d="M181.366 651.782C181.366 660.462 176.341 667.542 170.174 667.542C164.007 667.542 158.982 660.462 158.982 651.782C158.982 643.103 164.007 636.022 170.174 636.022C176.341 636.022 181.366 643.103 181.366 651.782Z" fill="#545454"/>
<path d="M298.996 627.342C298.996 635.337 279.582 641.732 255.827 641.732C232.073 641.732 212.658 635.337 212.658 627.342C212.658 619.348 232.073 612.953 255.827 612.953C279.582 612.953 298.996 619.348 298.996 627.342Z" fill="#545454"/>
<path d="M261.311 671.425C261.311 675.308 254.915 678.506 247.15 678.506C239.384 678.506 232.988 675.308 232.988 671.425C232.988 667.542 239.384 664.344 247.15 664.344C254.915 664.344 261.311 667.542 261.311 671.425Z" fill="#545454"/>
<path d="M304.48 661.832C304.48 668.227 303.338 673.481 301.739 673.481C300.14 673.481 298.998 668.227 298.998 661.832C298.998 655.436 300.14 650.183 301.739 650.183C303.109 650.183 304.48 655.436 304.48 661.832Z" fill="#545454"/>
<path d="M196.671 607.471C196.671 612.496 195.301 616.607 193.702 616.607C192.103 616.607 190.732 612.496 190.732 607.471C190.732 602.446 192.103 598.335 193.702 598.335C195.529 598.335 196.671 602.446 196.671 607.471Z" fill="#545454"/>
<path d="M274.329 604.274C269.304 604.73 265.193 603.817 264.964 602.218C264.736 600.619 268.847 599.02 273.872 598.563C278.897 598.107 283.008 599.02 283.237 600.619C283.237 602.218 279.354 603.817 274.329 604.274Z" fill="#545454"/>
<path d="M241.898 702.946C241.898 705.458 232.533 707.514 220.656 707.514C208.779 707.514 199.414 705.458 199.414 702.946C199.414 700.433 208.779 698.377 220.656 698.377C232.533 698.377 241.898 700.433 241.898 702.946Z" fill="#545454"/>
<path d="M262.45 722.132C270.902 722.132 277.753 721.314 277.753 720.305C277.753 719.296 270.902 718.478 262.45 718.478C253.998 718.478 247.146 719.296 247.146 720.305C247.146 721.314 253.998 722.132 262.45 722.132Z" fill="#545454"/>
<path d="M472 169C489.673 169 504 154.673 504 137C504 119.327 489.673 105 472 105C454.327 105 440 119.327 440 137C440 154.673 454.327 169 472 169Z" fill="#D94D7E"/>
<path d="M446.201 118.2C445.101 119.7 444.101 121.3 443.301 123C460.701 120.2 478.201 117.5 495.801 115.6C493.801 113.3 491.401 111.4 488.801 109.8C486.901 110.4 485.001 111 483.101 111.5C473.701 114.2 464.101 116 454.401 117.3C451.701 117.7 448.901 118 446.201 118.2Z" fill="#993965"/>
<path d="M443.8 152.2C453.2 149.8 462.4 146.4 471 142C475.7 139.6 480.3 136.8 485.3 134.8C491.1 132.5 497.1 131.4 503.3 130.7C502.8 128.3 502.1 126.1 501.1 123.9C480.8 129.3 460.9 137.7 440.6 143.4C441.3 146.5 442.4 149.5 443.8 152.2Z" fill="#993965"/>
<path d="M499.601 153.3C501.401 150.2 502.701 146.8 503.401 143.2C497.001 144.9 490.801 147.6 485.001 150.8C476.501 155.5 469.401 161.6 461.801 167.4C464.801 168.4 468.001 169 471.301 169.1C475.201 165.3 479.301 161.7 484.001 159C488.901 156.1 494.101 154.5 499.601 153.3Z" fill="#993965"/>
<g opacity="0.4">
<path opacity="0.4" d="M1377.38 705.949C1386.66 689.178 1380.58 668.065 1363.81 658.791C1347.04 649.518 1325.93 655.595 1316.65 672.366C1307.38 689.137 1313.46 710.25 1330.23 719.523C1347 728.797 1368.11 722.719 1377.38 705.949Z" fill="#E37067"/>
<path opacity="0.4" d="M1421.52 713.817C1422.18 711.825 1390.63 699.576 1351.06 686.458C1311.48 673.34 1278.86 664.32 1278.2 666.312C1277.54 668.305 1309.09 680.554 1348.66 693.672C1388.24 706.79 1420.86 715.809 1421.52 713.817Z" fill="white"/>
<path opacity="0.4" d="M1368.6 666.5C1368.4 667.2 1363.8 666.3 1358.4 664.5C1353 662.7 1348.8 660.7 1349.1 660C1349.3 659.3 1353.9 660.2 1359.3 662C1364.6 663.9 1368.8 665.9 1368.6 666.5Z" fill="white"/>
<path opacity="0.4" d="M1355.59 678.2C1355.09 679.7 1350.29 679.4 1344.99 677.6C1339.59 675.8 1335.69 673.2 1336.09 671.7C1336.59 670.2 1341.39 670.5 1346.69 672.3C1352.09 674 1356.09 676.7 1355.59 678.2Z" fill="white"/>
<path opacity="0.4" d="M1366.3 706C1366.1 706.7 1361.5 705.9 1356.1 704.1C1350.7 702.3 1346.6 700.3 1346.8 699.5C1347 698.8 1351.6 699.6 1357 701.4C1362.4 703.2 1366.6 705.3 1366.3 706Z" fill="white"/>
<path opacity="0.4" d="M1344.39 712.1C1343.79 713.9 1338.89 713.9 1333.59 712.2C1328.19 710.4 1324.29 707.5 1324.89 705.7C1325.49 703.9 1330.39 703.9 1335.69 705.6C1341.09 707.4 1344.99 710.3 1344.39 712.1Z" fill="white"/>
</g>
<g opacity="0.3">
<path d="M347.144 152.88L348.181 134.269L352.328 152.88L377.902 154.02L353.365 156.109L351.637 173.961L346.453 156.299L322.607 155.349L347.144 152.88Z" fill="#ECB534"/>
<path d="M672.003 173.201L672.349 162.756L674.768 173.201L688.937 173.771L675.459 174.91L674.423 184.975L671.658 175.1L658.525 174.53L672.003 173.201Z" fill="#ECB534"/>
<path d="M217.205 367.292L217.896 353.619L221.352 367.482L240.014 368.242L221.698 369.761L220.661 382.865L216.86 369.951L199.234 369.192L217.205 367.292Z" fill="#ECB534"/>
<path d="M1389.79 53.3657L1390.48 39.6919L1393.94 53.5556L1412.6 54.3152L1394.29 55.8345L1393.25 68.9386L1389.45 56.0245L1371.82 55.2648L1389.79 53.3657Z" fill="#ECB534"/>
<path d="M1115.04 259.991L1115.74 246.318L1119.19 260.181L1137.85 260.941L1119.54 262.46L1118.5 275.564L1114.7 262.65L1097.07 261.891L1115.04 259.991Z" fill="#ECB534"/>
<path d="M769.109 13.6738L770.146 0L773.257 13.8637L791.919 14.6233L773.948 16.1426L772.565 29.2467L768.764 16.3326L751.484 15.5729L769.109 13.6738Z" fill="#ECB534"/>
<path d="M536.182 743.891L536.873 730.217L540.329 743.891L558.991 744.651L540.674 746.17L539.638 759.274L535.836 746.36L518.211 745.6L536.182 743.891Z" fill="#ECB534"/>
<path d="M1469.98 182.317L1470.32 171.112L1473.09 182.507L1488.64 183.077L1473.78 184.406L1472.74 195.231L1469.63 184.596L1455.12 183.837L1469.98 182.317Z" fill="#ECB534"/>
<path d="M1366.98 416.48L1367.67 407.934L1369.75 416.48L1381.15 417.05L1370.09 418L1369.06 426.166L1366.98 418L1355.92 417.62L1366.98 416.48Z" fill="#ECB534"/>
<path d="M27.4729 576.578L27.8185 568.031L29.892 576.768L41.2965 577.147L30.2376 578.097L29.5464 586.263L27.1273 578.287L16.0684 577.717L27.4729 576.578Z" fill="#ECB534"/>
<path d="M1217.69 546.761L1218.04 538.215L1220.11 546.761L1231.86 547.33L1220.46 548.28L1219.77 556.446L1217.35 548.28L1206.29 547.9L1217.69 546.761Z" fill="#ECB534"/>
<path d="M1013.8 733.256L1014.14 724.71L1016.21 733.256L1027.96 733.826L1016.56 734.775L1015.87 742.942L1013.45 734.775L1002.39 734.396L1013.8 733.256Z" fill="#ECB534"/>
<path d="M178.496 709.517L179.188 696.792L181.952 709.707L199.232 710.466L182.644 711.796L181.261 723.95L177.805 711.986L161.562 711.226L178.496 709.517Z" fill="#ECB534"/>
<path d="M107.652 38.7421C106.961 39.1219 105.924 39.6916 105.233 40.0715C103.159 41.2109 103.159 42.9202 105.233 44.0596C107.306 45.1991 110.417 45.1991 112.49 44.0596C113.181 43.6798 114.218 43.1101 114.909 42.7302C116.983 41.5908 116.983 39.8815 114.909 38.7421C113.181 37.6026 109.726 37.6026 107.652 38.7421Z" fill="white"/>
<path d="M393.8 4.74758C395.528 4.74758 395.528 3.22827 393.8 3.22827C392.418 3.22827 392.418 4.74758 393.8 4.74758Z" fill="white"/>
<path d="M1303.4 63.2412C1305.13 63.2412 1305.13 61.7219 1303.4 61.7219C1301.67 61.7219 1301.67 63.2412 1303.4 63.2412Z" fill="white"/>
<path d="M1346.6 175.48C1346.6 175.86 1346.6 176.429 1346.6 176.809C1346.6 177.759 1349.36 177.759 1349.36 176.809C1349.36 176.429 1349.36 175.86 1349.36 175.48C1349.36 174.53 1346.6 174.53 1346.6 175.48Z" fill="white"/>
<path d="M1300.98 300.063C1302.7 300.063 1302.7 298.544 1300.98 298.544C1299.25 298.734 1299.25 300.063 1300.98 300.063Z" fill="white"/>
<path d="M1210.08 433.572C1208.36 433.193 1206.63 432.623 1205.25 432.243C1203.86 431.863 1202.48 433.003 1203.86 433.382C1205.59 433.762 1207.32 434.332 1208.7 434.712C1210.08 435.092 1211.47 433.952 1210.08 433.572Z" fill="white"/>
<path d="M1117.47 390.083C1119.19 390.083 1119.19 388.563 1117.47 388.563C1115.74 388.563 1115.74 390.083 1117.47 390.083Z" fill="white"/>
<path d="M435.968 358.747C437.696 358.747 437.696 357.227 435.968 357.227C434.24 357.227 434.24 358.747 435.968 358.747Z" fill="white"/>
<path d="M284.938 548.66C288.394 548.66 288.394 545.811 284.938 545.811C281.482 545.811 281.482 548.66 284.938 548.66Z" fill="white"/>
<path d="M1053.19 578.666C1056.64 578.666 1056.64 575.818 1053.19 575.818C1049.73 575.818 1049.73 578.666 1053.19 578.666Z" fill="white"/>
<path d="M525.13 788.331C528.586 788.331 528.586 785.482 525.13 785.482C522.019 785.482 522.019 788.331 525.13 788.331Z" fill="white"/>
<path d="M914.266 707.997C917.722 707.997 917.722 705.149 914.266 705.149C910.81 705.149 910.81 707.997 914.266 707.997Z" fill="white"/>
<path d="M1471.7 781.494C1475.15 781.494 1475.15 778.646 1471.7 778.646C1468.59 778.646 1468.59 781.494 1471.7 781.494Z" fill="white"/>
<path d="M1452 618.168C1455.46 618.168 1455.46 615.32 1452 615.32C1448.54 615.32 1448.54 618.168 1452 618.168Z" fill="white"/>
<path d="M1271.25 713.505C1274.71 713.505 1274.71 710.656 1271.25 710.656C1267.8 710.656 1267.8 713.505 1271.25 713.505Z" fill="white"/>
<path d="M1209.05 777.505C1212.51 777.505 1212.51 774.657 1209.05 774.657C1205.94 774.657 1205.94 777.505 1209.05 777.505Z" fill="white"/>
<path d="M166.059 807.322C169.515 807.322 169.515 804.474 166.059 804.474C162.603 804.474 162.603 807.322 166.059 807.322Z" fill="white"/>
<path d="M185.754 566.322C185.754 566.702 185.754 567.272 185.754 567.651C185.754 569.551 190.938 569.551 190.938 567.651C190.938 567.272 190.938 566.702 190.938 566.322C190.938 564.423 185.754 564.423 185.754 566.322Z" fill="white"/>
<path d="M81.7304 403.946C81.0392 402.616 80.0024 401.287 79.3112 399.768C78.2744 398.058 73.0906 398.818 74.473 400.527C75.1641 401.857 76.2009 403.186 76.8921 404.705C77.9289 406.415 82.7671 405.655 81.7304 403.946Z" fill="white"/>
<path d="M54.4318 193.332C57.8877 193.332 57.8877 190.483 54.4318 190.483C50.9759 190.483 50.9759 193.332 54.4318 193.332Z" fill="white"/>
<path d="M210.635 268.158C214.091 268.158 214.091 265.309 210.635 265.309C207.179 265.309 207.179 268.158 210.635 268.158Z" fill="white"/>
<path d="M334.357 279.743C336.084 279.743 336.084 278.223 334.357 278.223C332.629 278.223 332.629 279.743 334.357 279.743Z" fill="white"/>
<path d="M378.939 470.415C380.667 470.415 380.667 468.896 378.939 468.896C377.557 468.896 377.557 470.415 378.939 470.415Z" fill="white"/>
<path d="M1246.38 229.416C1248.1 229.416 1248.1 227.896 1246.38 227.896C1244.65 227.896 1244.65 229.416 1246.38 229.416Z" fill="white"/>
<path d="M1563.63 313.737C1565.35 313.737 1565.35 312.218 1563.63 312.218C1561.9 312.408 1561.9 313.737 1563.63 313.737Z" fill="white"/>
<path d="M1504.18 436.231C1505.91 436.231 1505.91 434.712 1504.18 434.712C1502.46 434.902 1502.46 436.231 1504.18 436.231Z" fill="white"/>
<path d="M1045.59 28.6769C1052.15 28.6769 1052.15 22.9795 1045.59 22.9795C1039.02 22.9795 1039.02 28.6769 1045.59 28.6769Z" fill="white"/>
<path d="M1583.32 134.839C1589.89 134.839 1589.89 129.141 1583.32 129.141C1576.76 129.141 1576.76 134.839 1583.32 134.839Z" fill="white"/>
<path d="M1432.3 307.66C1438.87 307.66 1438.87 301.962 1432.3 301.962C1425.39 301.962 1425.39 307.66 1432.3 307.66Z" fill="white"/>
<path d="M1253.63 384.005C1260.19 384.005 1260.19 378.308 1253.63 378.308C1247.06 378.308 1247.06 384.005 1253.63 384.005Z" fill="white"/>
<path d="M1499 57.1644C1505.57 57.1644 1505.57 51.467 1499 51.467C1492.43 51.467 1492.43 57.1644 1499 57.1644Z" fill="white"/>
<path d="M1411.22 512.576C1410.53 512.956 1409.49 513.526 1408.8 513.906C1406.72 515.045 1406.72 516.754 1408.8 517.894C1410.87 519.033 1413.98 519.033 1416.05 517.894C1416.75 517.514 1417.78 516.944 1418.47 516.564C1420.55 515.425 1420.55 513.716 1418.47 512.576C1416.4 511.437 1413.29 511.437 1411.22 512.576Z" fill="white"/>
<path d="M702.412 731.737C703.103 731.357 704.14 730.787 704.831 730.407C706.905 729.268 706.905 727.559 704.831 726.419C702.758 725.28 699.647 725.28 697.574 726.419C696.883 726.799 695.846 727.369 695.155 727.748C693.081 728.888 693.081 730.597 695.155 731.737C696.883 732.876 700.339 732.876 702.412 731.737Z" fill="white"/>
<path d="M408.661 667.166C415.227 667.166 415.227 661.469 408.661 661.469C402.095 661.469 402.095 667.166 408.661 667.166Z" fill="white"/>
<path d="M2.59193 675.333C6.04784 675.333 6.04784 672.484 2.59193 672.484C-0.863978 672.484 -0.863978 675.333 2.59193 675.333Z" fill="white"/>
<path d="M292.198 746.17C295.654 746.17 295.654 743.321 292.198 743.321C289.088 743.321 289.088 746.17 292.198 746.17Z" fill="white"/>
<path d="M1164.82 470.985C1164.82 470.606 1164.82 470.036 1164.82 469.656C1164.82 467.757 1159.63 467.757 1159.63 469.656C1159.63 470.036 1159.63 470.606 1159.63 470.985C1159.63 472.885 1164.82 472.885 1164.82 470.985Z" fill="white"/>
<path d="M1219.07 149.652C1222.53 149.652 1222.53 146.803 1219.07 146.803C1215.62 146.803 1215.62 149.652 1219.07 149.652Z" fill="white"/>
<path d="M661.633 27.1575C665.089 27.1575 665.089 24.3088 661.633 24.3088C658.177 24.3088 658.177 27.1575 661.633 27.1575Z" fill="white"/>
<path d="M886.96 44.8201C890.416 44.8201 890.416 41.9714 886.96 41.9714C883.849 41.9714 883.849 44.8201 886.96 44.8201Z" fill="white"/>
<path d="M315.352 71.0278C314.661 71.4076 313.624 71.9774 312.933 72.3572C310.514 73.6866 314.315 75.5857 316.734 74.4462C317.426 74.0664 318.462 73.4967 319.154 73.1169C321.227 71.7875 317.771 69.6984 315.352 71.0278Z" fill="white"/>
<path d="M223.08 185.166C226.536 185.166 226.536 182.317 223.08 182.317C219.624 182.317 219.624 185.166 223.08 185.166Z" fill="white"/>
<path d="M62.0294 266.828C65.4853 266.828 65.4853 263.98 62.0294 263.98C58.5735 263.98 58.5735 266.828 62.0294 266.828Z" fill="white"/>
<path d="M160.873 112.239C162.601 112.239 162.601 110.72 160.873 110.72C159.49 110.91 159.49 112.239 160.873 112.239Z" fill="white"/>
<path d="M520.29 34.5642C522.018 34.5642 522.018 33.0449 520.29 33.0449C518.562 33.2348 518.562 34.5642 520.29 34.5642Z" fill="white"/>
<path d="M538.603 108.061C540.331 108.061 540.331 106.542 538.603 106.542C536.875 106.542 536.875 108.061 538.603 108.061Z" fill="white"/>
<path d="M1166.89 21.0799C1168.61 21.0799 1168.61 19.5605 1166.89 19.5605C1165.5 19.5605 1165.5 21.0799 1166.89 21.0799Z" fill="white"/>
<path d="M1117.47 161.806C1119.19 161.806 1119.19 160.287 1117.47 160.287C1115.74 160.287 1115.74 161.806 1117.47 161.806Z" fill="white"/>
<path d="M1166.89 651.403C1168.61 651.403 1168.61 649.884 1166.89 649.884C1165.5 650.073 1165.5 651.403 1166.89 651.403Z" fill="white"/>
<path d="M1310.65 561.574C1312.38 561.574 1312.38 560.055 1310.65 560.055C1308.93 560.245 1308.93 561.574 1310.65 561.574Z" fill="white"/>
<path d="M1568.46 527.58C1570.19 527.58 1570.19 526.06 1568.46 526.06C1566.73 526.06 1566.73 527.58 1568.46 527.58Z" fill="white"/>
<path d="M1462.03 459.401C1463.75 459.401 1463.75 457.882 1462.03 457.882C1460.3 458.072 1460.3 459.401 1462.03 459.401Z" fill="white"/>
<path d="M1266.07 646.656C1269.53 646.656 1269.53 643.807 1266.07 643.807C1262.96 643.807 1262.96 646.656 1266.07 646.656Z" fill="white"/>
<path d="M1412.25 707.997C1415.71 707.997 1415.71 705.149 1412.25 705.149C1409.14 705.149 1409.14 707.997 1412.25 707.997Z" fill="white"/>
<path d="M1058.03 803.334C1061.49 803.334 1061.49 800.485 1058.03 800.485C1054.57 800.485 1054.57 803.334 1058.03 803.334Z" fill="white"/>
<path d="M797.795 781.494C801.251 781.494 801.251 778.646 797.795 778.646C794.339 778.646 794.339 781.494 797.795 781.494Z" fill="white"/>
<path d="M1355.58 793.648C1355.58 793.458 1355.58 793.078 1355.58 792.888C1355.58 789.28 1345.21 789.28 1345.21 792.888C1345.21 793.078 1345.21 793.458 1345.21 793.648C1345.21 797.446 1355.58 797.446 1355.58 793.648C1355.58 793.458 1355.58 793.078 1355.58 792.888C1355.58 789.28 1345.21 789.28 1345.21 792.888C1345.21 793.078 1345.21 793.458 1345.21 793.648C1345.21 797.446 1355.58 797.446 1355.58 793.648Z" fill="white"/>
<path d="M1556.02 778.835C1562.59 778.835 1562.59 773.138 1556.02 773.138C1549.46 773.138 1549.46 778.835 1556.02 778.835Z" fill="white"/>
<path d="M1375.28 243.469C1374.59 243.469 1373.55 243.469 1372.86 243.469C1370.1 243.469 1367.68 244.799 1367.68 246.318C1367.68 247.837 1370.1 249.167 1372.86 249.167C1373.55 249.167 1374.59 249.167 1375.28 249.167C1378.05 249.167 1380.46 247.837 1380.46 246.318C1380.12 244.799 1378.05 243.469 1375.28 243.469Z" fill="white"/>
<path d="M1516.28 186.495C1522.84 186.495 1522.84 180.798 1516.28 180.798C1509.71 180.798 1509.71 186.495 1516.28 186.495Z" fill="white"/>
<path d="M1390.14 21.8402C1396.71 21.8402 1396.71 16.1428 1390.14 16.1428C1383.23 16.1428 1383.23 21.8402 1390.14 21.8402Z" fill="white"/>
<path d="M1045.59 165.225C1052.15 165.225 1052.15 159.527 1045.59 159.527C1039.02 159.527 1039.02 165.225 1045.59 165.225Z" fill="white"/>
<path d="M468.104 224.668C474.671 224.668 474.671 218.97 468.104 218.97C461.538 218.97 461.538 224.668 468.104 224.668Z" fill="white"/>
<path d="M563.141 180.798C569.708 180.798 569.708 175.1 563.141 175.1C556.575 175.1 556.575 180.798 563.141 180.798Z" fill="white"/>
<path d="M1147.19 103.503C1153.75 103.503 1153.75 97.8052 1147.19 97.8052C1140.62 97.8052 1140.62 103.503 1147.19 103.503Z" fill="white"/>
<path d="M473.286 551.319C473.286 550.939 473.286 550.369 473.286 549.99C473.286 548.47 470.867 547.141 468.102 547.141C465.337 547.141 462.918 548.47 462.918 549.99C462.918 550.369 462.918 550.939 462.918 551.319C462.918 552.838 465.337 554.168 468.102 554.168C471.212 554.168 473.286 553.028 473.286 551.319Z" fill="white"/>
<path d="M109.036 529.669C115.602 529.669 115.602 523.971 109.036 523.971C102.469 523.971 102.124 529.669 109.036 529.669Z" fill="white"/>
<path d="M156.032 228.846C162.598 228.846 162.598 223.148 156.032 223.148C149.466 223.148 149.466 228.846 156.032 228.846Z" fill="white"/>
<path d="M348.526 414.581C348.526 414.201 348.526 413.822 348.526 413.252C348.526 411.732 346.107 410.403 343.342 410.403C340.577 410.403 338.158 411.732 338.158 413.252C338.158 413.632 338.158 414.011 338.158 414.581C338.158 416.1 340.577 417.43 343.342 417.43C346.107 417.24 348.526 416.1 348.526 414.581Z" fill="white"/>
<path d="M1408.8 858.029L1409.49 845.305L1412.6 858.029L1429.88 858.789L1412.95 860.118L1411.91 872.273L1408.46 860.308L1392.21 859.738L1408.8 858.029Z" fill="#ECB534"/>
<path d="M317.08 875.501C320.536 875.501 320.536 872.652 317.08 872.652C313.624 872.652 313.624 875.501 317.08 875.501Z" fill="white"/>
<path d="M1221.49 897.341C1224.95 897.341 1224.95 894.492 1221.49 894.492C1218.38 894.492 1218.03 897.341 1221.49 897.341Z" fill="white"/>
<path d="M49.5923 897.151C49.5923 896.771 49.5923 896.202 49.5923 895.822C49.5923 894.303 47.1732 892.973 44.4085 892.973C41.6437 892.973 39.2246 894.303 39.2246 895.822C39.2246 896.202 39.2246 896.771 39.2246 897.151C39.2246 898.671 41.6437 900 44.4085 900C47.5188 900 49.5923 898.86 49.5923 897.151Z" fill="white"/>
<path d="M1300.97 826.503C1304.43 826.503 1304.43 823.655 1300.97 823.655C1297.52 823.655 1297.52 826.503 1300.97 826.503Z" fill="white"/>
<path d="M952.963 85.6511C954.691 85.6511 954.691 84.1318 952.963 84.1318C951.58 84.3217 951.58 85.6511 952.963 85.6511Z" fill="white"/>
<path d="M638.138 267.398C639.866 267.398 639.866 265.879 638.138 265.879C636.41 266.069 636.41 267.398 638.138 267.398Z" fill="white"/>
<path d="M651.612 139.586C653.34 139.586 653.34 138.067 651.612 138.067C649.884 138.067 649.884 139.586 651.612 139.586Z" fill="white"/>
<path d="M577.31 241.38C579.038 241.38 579.038 239.861 577.31 239.861C575.582 239.861 575.582 241.38 577.31 241.38Z" fill="white"/>
<path d="M1549.45 518.654C1556.02 518.654 1556.02 512.956 1549.45 512.956C1542.54 512.956 1542.54 518.654 1549.45 518.654Z" fill="white"/>
<path d="M1595.08 669.255C1601.64 669.255 1601.64 663.558 1595.08 663.558C1588.51 663.558 1588.51 669.255 1595.08 669.255Z" fill="white"/>
<path d="M439.767 823.275C436.311 822.325 432.856 821.376 429.745 820.426C427.326 819.667 424.216 820.046 422.488 821.376C421.105 822.705 421.797 824.604 424.216 825.364C427.672 826.314 431.128 827.263 434.238 828.213C436.657 828.972 439.767 828.593 441.495 827.263C442.878 825.934 442.186 824.035 439.767 823.275Z" fill="white"/>
<path d="M315.696 630.133C322.262 630.133 322.262 624.435 315.696 624.435C309.129 624.435 308.784 630.133 315.696 630.133Z" fill="white"/>
</g>
<defs>
<filter id="filter0_f" x="609" y="-195" width="1496.77" height="1647" filterUnits="userSpaceOnUse" color-interpolation-filters="sRGB">
<feFlood flood-opacity="0" result="BackgroundImageFix"/>
<feBlend mode="normal" in="SourceGraphic" in2="BackgroundImageFix" result="shape"/>
<feGaussianBlur stdDeviation="150" result="effect1_foregroundBlur"/>
</filter>
<filter id="filter1_f" x="-545" y="-413" width="1247.42" height="1289.09" filterUnits="userSpaceOnUse" color-interpolation-filters="sRGB">
<feFlood flood-opacity="0" result="BackgroundImageFix"/>
<feBlend mode="normal" in="SourceGraphic" in2="BackgroundImageFix" result="shape"/>
<feGaussianBlur stdDeviation="150" result="effect1_foregroundBlur"/>
</filter>
<filter id="filter2_f" x="-344" y="-555" width="1443.97" height="1402" filterUnits="userSpaceOnUse" color-interpolation-filters="sRGB">
<feFlood flood-opacity="0" result="BackgroundImageFix"/>
<feBlend mode="normal" in="SourceGraphic" in2="BackgroundImageFix" result="shape"/>
<feGaussianBlur stdDeviation="150" result="effect1_foregroundBlur"/>
</filter>
</defs>
</svg>
