<svg width="25" height="25" viewBox="0 0 25 25" fill="none" xmlns="http://www.w3.org/2000/svg">
<path d="M16.7584 12.6219C16.7584 14.906 14.9065 16.7579 12.6224 16.7579C10.3382 16.7579 8.48633 14.906 8.48633 12.6219C8.48633 10.3377 10.3382 8.48584 12.6224 8.48584C14.9065 8.48584 16.7584 10.3377 16.7584 12.6219Z" fill="black"/>
<path d="M19.4853 0H5.51471C2.47372 0 0 2.47372 0 5.51471V19.4853C0 22.5263 2.47372 25 5.51471 25H19.4853C22.5263 25 25 22.5263 25 19.4853V5.51471C25 2.47372 22.5263 0 19.4853 0ZM12.5 19.3934C8.69895 19.3934 5.60662 16.3011 5.60662 12.5C5.60662 8.69895 8.69895 5.60662 12.5 5.60662C16.3011 5.60662 19.3934 8.69895 19.3934 12.5C19.3934 16.3011 16.3011 19.3934 12.5 19.3934ZM20.4044 5.97426C19.6429 5.97426 19.0257 5.35709 19.0257 4.59559C19.0257 3.83408 19.6429 3.21691 20.4044 3.21691C21.1659 3.21691 21.7831 3.83408 21.7831 4.59559C21.7831 5.35709 21.1659 5.97426 20.4044 5.97426Z" fill="black"/>
</svg>
