<svg width="25" height="25" viewBox="0 0 25 25" fill="none" xmlns="http://www.w3.org/2000/svg">
<path d="M25 12.5C25 11.7147 24.9263 10.9286 24.7804 10.1654C24.7146 9.81997 24.4121 9.57031 24.0609 9.57031H12.5488C12.144 9.57031 11.8164 9.8979 11.8164 10.3027V14.6973C11.8164 15.1021 12.144 15.4297 12.5488 15.4297H18.4554C18.0874 16.1747 17.5802 16.8211 16.9847 17.365L21.1243 21.5046C23.5062 19.2354 25 16.042 25 12.5Z" fill="black"/>
<path d="M12.5008 5.85938C13.9378 5.85938 15.3046 6.31572 16.4533 7.17974C16.7437 7.3979 17.1536 7.37144 17.411 7.11177L20.5367 3.98608C20.6819 3.84087 20.7599 3.64131 20.7506 3.43604C20.7413 3.23076 20.6469 3.03906 20.4895 2.90674C18.2529 1.03213 15.4155 0 12.5008 0C8.21133 0 4.42183 2.18037 2.18164 5.49082L6.48086 9.79004C7.50654 7.47969 9.81426 5.85938 12.5008 5.85938Z" fill="black"/>
<path d="M12.5008 25C15.2969 25 17.8716 24.0625 19.9521 22.5006L15.7348 18.2833C14.7708 18.8261 13.669 19.1406 12.5008 19.1406C9.81426 19.1406 7.50654 17.5203 6.48086 15.21L2.18164 19.5092C4.42183 22.8196 8.21133 25 12.5008 25Z" fill="black"/>
<path d="M5.96602 13.5549C5.90991 13.2092 5.85938 12.8611 5.85938 12.5C5.85938 12.1388 5.90991 11.7907 5.96602 11.445L1.37012 6.84912C0.500586 8.54736 0 10.4646 0 12.5C0 14.5353 0.500586 16.4525 1.37017 18.1507L5.96602 13.5549Z" fill="black"/>
</svg>
