<svg width="98" height="109" fill="none" xmlns="http://www.w3.org/2000/svg"><path d="M20.664 64.287v-4.894L5.983 42.267 1.53 34.754c-1.566-3.89.465-10.741 4.453-12.063l7.34 12.234 9.787 9.788a10.962 10.962 0 007.047 2.447h5.481a10.913 10.913 0 007.047-2.447l9.787-9.788 7.34-12.234c3.989 1.322 6.02 8.173 4.478 12.063l-4.477 7.512-14.681 17.128v24.468" stroke="#0D369C" stroke-width="2" stroke-miterlimit="10"/><path d="M32.896 22.69a7.095 7.095 0 017.34 7.341v2.447a7.34 7.34 0 01-14.68 0v-2.447a7.12 7.12 0 017.34-7.34v0zm31.808 56.424a7.119 7.119 0 01-7.34-7.34v-2.448a7.34 7.34 0 0114.68 0v2.447a7.096 7.096 0 01-7.34 7.34v0z" stroke="#0D369C" stroke-width="2" stroke-miterlimit="10"/><path d="M50.123 108.33V96.096c0-8.1 8.637-9.788 14.68-9.788h2.74a21.627 21.627 0 007.048-2.446l9.787-4.894 7.34-17.128c3.989 1.322 6.02 10.62 4.478 14.51l-4.478 9.958-14.68 12.234v9.788M25.555 86.454a7.095 7.095 0 007.34-7.34v-2.447a7.34 7.34 0 00-14.68 0v2.446a7.12 7.12 0 007.34 7.34v0zm-14.679 21.875v-4.893c0-8.1 8.735-9.788 14.68-9.788 5.946 0 14.681 1.689 14.681 9.788v4.893m-7.34-95.425V.67m9.885 14.68l7.34-7.34m-26.914 7.34l-7.34-7.34" stroke="#0D369C" stroke-width="2" stroke-miterlimit="10"/></svg>