<svg width="108" height="108" fill="none" xmlns="http://www.w3.org/2000/svg"><path d="M40.149 80.191c21.621 0 39.149-17.527 39.149-39.149 0-21.62-17.528-39.148-39.15-39.148C18.529 1.894 1 19.42 1 41.042c0 21.622 17.528 39.15 39.149 39.15zm29.361.001l25.007 24.884a6.925 6.925 0 009.787-9.788L79.298 70.404" stroke="#0D369C" stroke-width="2" stroke-miterlimit="10"/><path d="M49.936 44.858a16.908 16.908 0 00-9.787-3.768v0a16.957 16.957 0 00-9.787 3.768m9.787-3.816a7.682 7.682 0 007.34-8.393V29.86a7.34 7.34 0 00-14.68 0v2.765a7.707 7.707 0 007.34 8.417v0zM8.34 50.83a15.978 15.978 0 019.788-2.446c5.505 0 12.234 4.55 12.234 7.34v7.34" stroke="#0D369C" stroke-width="2" stroke-miterlimit="10"/><path d="M18.128 48.382a7.684 7.684 0 007.34-8.392V37.2a7.34 7.34 0 00-14.68 0v2.765a7.705 7.705 0 007.34 8.417zm53.829 2.448a15.928 15.928 0 00-9.787-2.447c-5.505 0-12.234 4.55-12.234 7.34v7.34" stroke="#0D369C" stroke-width="2" stroke-miterlimit="10"/><path d="M62.17 48.382a7.707 7.707 0 01-7.34-8.392V37.2a7.34 7.34 0 0114.68 0v2.765a7.683 7.683 0 01-7.34 8.417v0zm12.234 12.235l7.34 7.34-14.68 14.681-7.34-7.34" stroke="#0D369C" stroke-width="2" stroke-miterlimit="10"/></svg>