<svg width="114" height="111" fill="none" xmlns="http://www.w3.org/2000/svg"><path d="M36.82 68.958a8.564 8.564 0 100-17.128 8.564 8.564 0 000 17.128zm-24.468 9.787a8.564 8.564 0 100-17.127 8.564 8.564 0 000 17.127zm8.59 31.808l5.701-26.694c.955-4.404 4.087-6.656 8.98-7.56l14.681-2.448 14.534-13.14s4.894 8.247-.514 13.287L53.828 84.397l-16.052 4.894m5.161 21.263l4.894-24.469m44.141-9.786a8.564 8.564 0 008.563-8.564 8.564 8.564 0 10-17.127 0 8.564 8.564 0 008.564 8.564zm20.602 34.255l-5.481-19.085c-.954-4.405-3.695-7.83-11.451-7.83H66.28s1.64 9.787 9.787 9.787h19.575m-1.126 17.127l-6.215-17.127M1 110.554l3.621-16.908c.955-4.404 4.086-6.655 8.98-7.56l12.234-2.447M38.412 9.575l-33.84 14.46 11.133 8.614-1.492 13.873 33.815-14.46m13.554 31.586L34.472.448m35.356 83.167L65.374 72.8m15.588 37.753L73.89 93.45" stroke="#0D369C" stroke-width="2" stroke-miterlimit="10"/></svg>