<svg width="108" height="116" fill="none" xmlns="http://www.w3.org/2000/svg"><path d="M74.404 101.319v-7.34c0-6.754-13.898-9.788-20.798-9.788-6.9 0-20.797 3.034-20.797 9.788v7.34m20.799-24.541a8.735 8.735 0 008.563-9.396v-3.157a8.613 8.613 0 10-17.127 0v3.157a8.76 8.76 0 008.564 9.395v0zm-36.703 4.868a8.784 8.784 0 01-8.563-9.444v-3.157a8.612 8.612 0 1117.127 0v3.157a8.76 8.76 0 01-8.564 9.444zm73.405 0a8.759 8.759 0 008.564-9.444v-3.157a8.614 8.614 0 10-17.128 0v3.157a8.785 8.785 0 008.564 9.444z" stroke="#0D369C" stroke-width="2" stroke-miterlimit="10"/><path d="M106.212 116V96.425a7.339 7.339 0 00-7.34-7.34h-7.34l-12.235 12.234h-14.68s-1.102 9.787 7.34 9.787h14.68l9.788-9.787M1 116V96.425a7.34 7.34 0 017.34-7.34h7.34l12.235 12.234h14.68s1.102 9.787-7.34 9.787h-14.68l-9.788-9.787m78.298 7.341V116m-70.957-7.34V116m17.127-4.894h36.702M23.021 1h63.617a4.893 4.893 0 014.894 4.894v34.255a4.894 4.894 0 01-4.894 4.893h-9.787V55.54a2.447 2.447 0 01-4.306 1.615L62.17 44.92H23.021a4.894 4.894 0 01-4.893-4.893V5.77A4.893 4.893 0 0123.02 1v0z" stroke="#0D369C" stroke-width="2" stroke-miterlimit="10"/></svg>