<svg width="111" height="103" fill="none" xmlns="http://www.w3.org/2000/svg"><path d="M36.265 88.425a5.798 5.798 0 014.893-2.447h35.993c2.716 0 17.666-15 19.575-17.128a129.705 129.705 0 0012.234-19.574 9.788 9.788 0 00-9.788-2.447c-4.33 1.003-6.875 4.11-9.787 9.787L78.18 62.44" stroke="#0D369C" stroke-width="2" stroke-miterlimit="10"/><path d="M50.235 71.298h22.022c9.787 0 9.787-12.235 0-12.235H57.576c-2.031 0-5.848-4.893-9.078-4.893H36.264a16.957 16.957 0 00-9.787 4.893c-3.67 3.67-10.155 9.788-10.155 9.788" stroke="#0D369C" stroke-width="2" stroke-miterlimit="10"/><path d="M11.793 63.952L2 73.745l26.921 26.921 9.793-9.793-26.921-26.921zm55.571-44.038a7.682 7.682 0 007.34-8.393V8.732a7.34 7.34 0 00-14.68 0v2.765a7.707 7.707 0 007.34 8.417v0zm24.468 4.894a7.683 7.683 0 007.34-8.393v-2.79a7.34 7.34 0 00-14.68 0v2.765a7.705 7.705 0 007.34 8.418v0zm-48.936 0a7.683 7.683 0 007.34-8.393v-2.79a7.34 7.34 0 00-14.68 0v2.765a7.705 7.705 0 007.34 8.418v0zm39.149 26.916V34.596c0-6.068-9.567-7.34-14.681-7.34-5.114 0-14.681 1.272-14.681 7.34v14.68m51.383-7.34V39.49c0-6.069-9.567-7.34-14.681-7.34-2.47-.01-4.934.27-7.34.831M30.662 49.277v-9.788c0-6.067 9.591-7.34 14.68-7.34 2.471-.009 4.935.27 7.34.832" stroke="#0D369C" stroke-width="2" stroke-miterlimit="10"/></svg>