<svg width="146" height="47" viewBox="0 0 146 47" fill="none" xmlns="http://www.w3.org/2000/svg">
<path d="M57.522 17L55.092 13.49H54.948H52.41V17H49.494V4.4H54.948C56.064 4.4 57.03 4.586 57.846 4.958C58.674 5.33 59.31 5.858 59.754 6.542C60.198 7.226 60.42 8.036 60.42 8.972C60.42 9.908 60.192 10.718 59.736 11.402C59.292 12.074 58.656 12.59 57.828 12.95L60.654 17H57.522ZM57.468 8.972C57.468 8.264 57.24 7.724 56.784 7.352C56.328 6.968 55.662 6.776 54.786 6.776H52.41V11.168H54.786C55.662 11.168 56.328 10.976 56.784 10.592C57.24 10.208 57.468 9.668 57.468 8.972ZM72.4863 14.66V17H62.7303V4.4H72.2523V6.74H65.6283V9.476H71.4783V11.744H65.6283V14.66H72.4863ZM86.2725 17L86.2545 9.44L82.5465 15.668H81.2325L77.5425 9.602V17H74.8065V4.4H77.2185L81.9345 12.23L86.5785 4.4H88.9725L89.0085 17H86.2725ZM98.0999 17.216C96.7919 17.216 95.6099 16.934 94.5539 16.37C93.5099 15.806 92.6879 15.032 92.0879 14.048C91.4999 13.052 91.2059 11.936 91.2059 10.7C91.2059 9.464 91.4999 8.354 92.0879 7.37C92.6879 6.374 93.5099 5.594 94.5539 5.03C95.6099 4.466 96.7919 4.184 98.0999 4.184C99.4079 4.184 100.584 4.466 101.628 5.03C102.672 5.594 103.494 6.374 104.094 7.37C104.694 8.354 104.994 9.464 104.994 10.7C104.994 11.936 104.694 13.052 104.094 14.048C103.494 15.032 102.672 15.806 101.628 16.37C100.584 16.934 99.4079 17.216 98.0999 17.216ZM98.0999 14.732C98.8439 14.732 99.5159 14.564 100.116 14.228C100.716 13.88 101.184 13.4 101.52 12.788C101.868 12.176 102.042 11.48 102.042 10.7C102.042 9.92 101.868 9.224 101.52 8.612C101.184 8 100.716 7.526 100.116 7.19C99.5159 6.842 98.8439 6.668 98.0999 6.668C97.3559 6.668 96.6839 6.842 96.0839 7.19C95.4839 7.526 95.0099 8 94.6619 8.612C94.3259 9.224 94.1579 9.92 94.1579 10.7C94.1579 11.48 94.3259 12.176 94.6619 12.788C95.0099 13.4 95.4839 13.88 96.0839 14.228C96.6839 14.564 97.3559 14.732 98.0999 14.732ZM118.741 4.4V17H116.347L110.065 9.35V17H107.185V4.4H109.597L115.861 12.05V4.4H118.741ZM124.333 6.776H120.301V4.4H131.281V6.776H127.249V17H124.333V6.776Z" fill="black"/>
<path d="M52.56 23.6C53.632 23.6 54.472 23.856 55.08 24.368C55.688 24.88 55.992 25.584 55.992 26.48C55.992 27.376 55.688 28.08 55.08 28.592C54.472 29.096 53.632 29.348 52.56 29.348H50.304V32H49.416V23.6H52.56ZM52.536 28.568C53.368 28.568 54.004 28.388 54.444 28.028C54.884 27.66 55.104 27.144 55.104 26.48C55.104 25.8 54.884 25.28 54.444 24.92C54.004 24.552 53.368 24.368 52.536 24.368H50.304V28.568H52.536ZM63.0992 29.108H57.8192C57.8672 29.764 58.1192 30.296 58.5752 30.704C59.0312 31.104 59.6072 31.304 60.3032 31.304C60.6952 31.304 61.0552 31.236 61.3832 31.1C61.7112 30.956 61.9952 30.748 62.2352 30.476L62.7152 31.028C62.4352 31.364 62.0832 31.62 61.6592 31.796C61.2432 31.972 60.7832 32.06 60.2792 32.06C59.6312 32.06 59.0552 31.924 58.5512 31.652C58.0552 31.372 57.6672 30.988 57.3872 30.5C57.1072 30.012 56.9672 29.46 56.9672 28.844C56.9672 28.228 57.0992 27.676 57.3632 27.188C57.6352 26.7 58.0032 26.32 58.4672 26.048C58.9392 25.776 59.4672 25.64 60.0512 25.64C60.6352 25.64 61.1592 25.776 61.6232 26.048C62.0872 26.32 62.4512 26.7 62.7152 27.188C62.9792 27.668 63.1112 28.22 63.1112 28.844L63.0992 29.108ZM60.0512 26.372C59.4432 26.372 58.9312 26.568 58.5152 26.96C58.1072 27.344 57.8752 27.848 57.8192 28.472H62.2952C62.2392 27.848 62.0032 27.344 61.5872 26.96C61.1792 26.568 60.6672 26.372 60.0512 26.372ZM72.0532 25.688V32H71.2732V27.008L68.7172 31.232H68.3332L65.7772 26.996V32H64.9972V25.688H65.8612L68.5372 30.236L71.2612 25.688H72.0532ZM77.0816 32.06C76.4736 32.06 75.9256 31.924 75.4376 31.652C74.9496 31.372 74.5656 30.988 74.2856 30.5C74.0056 30.012 73.8656 29.46 73.8656 28.844C73.8656 28.228 74.0056 27.676 74.2856 27.188C74.5656 26.7 74.9496 26.32 75.4376 26.048C75.9256 25.776 76.4736 25.64 77.0816 25.64C77.6896 25.64 78.2376 25.776 78.7256 26.048C79.2136 26.32 79.5936 26.7 79.8656 27.188C80.1456 27.676 80.2856 28.228 80.2856 28.844C80.2856 29.46 80.1456 30.012 79.8656 30.5C79.5936 30.988 79.2136 31.372 78.7256 31.652C78.2376 31.924 77.6896 32.06 77.0816 32.06ZM77.0816 31.304C77.5296 31.304 77.9296 31.204 78.2816 31.004C78.6416 30.796 78.9216 30.504 79.1216 30.128C79.3216 29.752 79.4216 29.324 79.4216 28.844C79.4216 28.364 79.3216 27.936 79.1216 27.56C78.9216 27.184 78.6416 26.896 78.2816 26.696C77.9296 26.488 77.5296 26.384 77.0816 26.384C76.6336 26.384 76.2296 26.488 75.8696 26.696C75.5176 26.896 75.2376 27.184 75.0296 27.56C74.8296 27.936 74.7296 28.364 74.7296 28.844C74.7296 29.324 74.8296 29.752 75.0296 30.128C75.2376 30.504 75.5176 30.796 75.8696 31.004C76.2296 31.204 76.6336 31.304 77.0816 31.304ZM82.1065 25.688H82.9585V28.484H86.9305V25.688H87.7825V32H86.9305V29.216H82.9585V32H82.1065V25.688ZM94.6442 26.444H92.2562V32H91.4042V26.444H89.0162V25.688H94.6442V26.444ZM103.037 28.736C103.893 28.936 104.321 29.452 104.321 30.284C104.321 30.836 104.117 31.26 103.709 31.556C103.301 31.852 102.693 32 101.885 32H99.0167V25.688H101.801C102.521 25.688 103.085 25.828 103.493 26.108C103.901 26.388 104.105 26.788 104.105 27.308C104.105 27.652 104.009 27.948 103.817 28.196C103.633 28.436 103.373 28.616 103.037 28.736ZM99.8447 28.496H101.741C102.229 28.496 102.601 28.404 102.857 28.22C103.121 28.036 103.253 27.768 103.253 27.416C103.253 27.064 103.121 26.8 102.857 26.624C102.601 26.448 102.229 26.36 101.741 26.36H99.8447V28.496ZM101.849 31.328C102.393 31.328 102.801 31.24 103.073 31.064C103.345 30.888 103.481 30.612 103.481 30.236C103.481 29.86 103.357 29.584 103.109 29.408C102.861 29.224 102.469 29.132 101.933 29.132H99.8447V31.328H101.849ZM108.489 25.64C109.313 25.64 109.945 25.848 110.385 26.264C110.825 26.672 111.045 27.28 111.045 28.088V32H110.229V31.016C110.037 31.344 109.753 31.6 109.377 31.784C109.009 31.968 108.569 32.06 108.057 32.06C107.353 32.06 106.793 31.892 106.377 31.556C105.961 31.22 105.753 30.776 105.753 30.224C105.753 29.688 105.945 29.256 106.329 28.928C106.721 28.6 107.341 28.436 108.189 28.436H110.193V28.052C110.193 27.508 110.041 27.096 109.737 26.816C109.433 26.528 108.989 26.384 108.405 26.384C108.005 26.384 107.621 26.452 107.253 26.588C106.885 26.716 106.569 26.896 106.305 27.128L105.921 26.492C106.241 26.22 106.625 26.012 107.073 25.868C107.521 25.716 107.993 25.64 108.489 25.64ZM108.189 31.388C108.669 31.388 109.081 31.28 109.425 31.064C109.769 30.84 110.025 30.52 110.193 30.104V29.072H108.213C107.133 29.072 106.593 29.448 106.593 30.2C106.593 30.568 106.733 30.86 107.013 31.076C107.293 31.284 107.685 31.388 108.189 31.388ZM113.314 25.688H114.166V28.484H118.138V25.688H118.99V32H118.138V29.216H114.166V32H113.314V25.688ZM121.411 25.688H122.263V28.484H126.235V25.688H127.087V32H126.235V29.216H122.263V32H121.411V25.688ZM132.113 32.06C131.505 32.06 130.957 31.924 130.469 31.652C129.981 31.372 129.597 30.988 129.317 30.5C129.037 30.012 128.897 29.46 128.897 28.844C128.897 28.228 129.037 27.676 129.317 27.188C129.597 26.7 129.981 26.32 130.469 26.048C130.957 25.776 131.505 25.64 132.113 25.64C132.721 25.64 133.269 25.776 133.757 26.048C134.245 26.32 134.625 26.7 134.897 27.188C135.177 27.676 135.317 28.228 135.317 28.844C135.317 29.46 135.177 30.012 134.897 30.5C134.625 30.988 134.245 31.372 133.757 31.652C133.269 31.924 132.721 32.06 132.113 32.06ZM132.113 31.304C132.561 31.304 132.961 31.204 133.313 31.004C133.673 30.796 133.953 30.504 134.153 30.128C134.353 29.752 134.453 29.324 134.453 28.844C134.453 28.364 134.353 27.936 134.153 27.56C133.953 27.184 133.673 26.896 133.313 26.696C132.961 26.488 132.561 26.384 132.113 26.384C131.665 26.384 131.261 26.488 130.901 26.696C130.549 26.896 130.269 27.184 130.061 27.56C129.861 27.936 129.761 28.364 129.761 28.844C129.761 29.324 129.861 29.752 130.061 30.128C130.269 30.504 130.549 30.796 130.901 31.004C131.261 31.204 131.665 31.304 132.113 31.304ZM137.138 25.688H137.99V30.704L142.202 25.688H142.958V32H142.106V26.984L137.906 32H137.138V25.688ZM140.006 24.776C139.462 24.776 139.03 24.64 138.71 24.368C138.39 24.096 138.226 23.712 138.218 23.216H138.83C138.838 23.528 138.95 23.78 139.166 23.972C139.382 24.156 139.662 24.248 140.006 24.248C140.35 24.248 140.63 24.156 140.846 23.972C141.07 23.78 141.186 23.528 141.194 23.216H141.806C141.798 23.712 141.63 24.096 141.302 24.368C140.982 24.64 140.55 24.776 140.006 24.776ZM49.212 36.688H50.064V41.704L54.276 36.688H55.032V43H54.18V37.984L49.98 43H49.212V36.688ZM63.2543 43.06C62.6303 43.06 62.0703 42.924 61.5743 42.652C61.0863 42.38 60.7023 42 60.4223 41.512C60.1423 41.016 60.0023 40.46 60.0023 39.844C60.0023 39.228 60.1423 38.676 60.4223 38.188C60.7023 37.7 61.0863 37.32 61.5743 37.048C62.0703 36.776 62.6303 36.64 63.2543 36.64C63.7983 36.64 64.2823 36.748 64.7063 36.964C65.1383 37.172 65.4783 37.48 65.7263 37.888L65.0903 38.32C64.8823 38.008 64.6183 37.776 64.2983 37.624C63.9783 37.464 63.6303 37.384 63.2543 37.384C62.7983 37.384 62.3863 37.488 62.0183 37.696C61.6583 37.896 61.3743 38.184 61.1663 38.56C60.9663 38.936 60.8663 39.364 60.8663 39.844C60.8663 40.332 60.9663 40.764 61.1663 41.14C61.3743 41.508 61.6583 41.796 62.0183 42.004C62.3863 42.204 62.7983 42.304 63.2543 42.304C63.6303 42.304 63.9783 42.228 64.2983 42.076C64.6183 41.924 64.8823 41.692 65.0903 41.38L65.7263 41.812C65.4783 42.22 65.1383 42.532 64.7063 42.748C64.2743 42.956 63.7903 43.06 63.2543 43.06ZM69.5481 36.64C70.3721 36.64 71.0041 36.848 71.4441 37.264C71.8841 37.672 72.1041 38.28 72.1041 39.088V43H71.2881V42.016C71.0961 42.344 70.8121 42.6 70.4361 42.784C70.0681 42.968 69.6281 43.06 69.1161 43.06C68.4121 43.06 67.8521 42.892 67.4361 42.556C67.0201 42.22 66.8121 41.776 66.8121 41.224C66.8121 40.688 67.0041 40.256 67.3881 39.928C67.7801 39.6 68.4001 39.436 69.2481 39.436H71.2521V39.052C71.2521 38.508 71.1001 38.096 70.7961 37.816C70.4921 37.528 70.0481 37.384 69.4641 37.384C69.0641 37.384 68.6801 37.452 68.3121 37.588C67.9441 37.716 67.6281 37.896 67.3641 38.128L66.9801 37.492C67.3001 37.22 67.6841 37.012 68.1321 36.868C68.5801 36.716 69.0521 36.64 69.5481 36.64ZM69.2481 42.388C69.7281 42.388 70.1401 42.28 70.4841 42.064C70.8281 41.84 71.0841 41.52 71.2521 41.104V40.072H69.2721C68.1921 40.072 67.6521 40.448 67.6521 41.2C67.6521 41.568 67.7921 41.86 68.0721 42.076C68.3521 42.284 68.7441 42.388 69.2481 42.388ZM74.3722 36.688H75.2242V39.484H79.1962V36.688H80.0482V43H79.1962V40.216H75.2242V43H74.3722V36.688ZM87.8338 36.688L84.6778 43.756C84.4218 44.348 84.1258 44.768 83.7898 45.016C83.4538 45.264 83.0498 45.388 82.5778 45.388C82.2738 45.388 81.9898 45.34 81.7258 45.244C81.4618 45.148 81.2338 45.004 81.0418 44.812L81.4378 44.176C81.7578 44.496 82.1418 44.656 82.5898 44.656C82.8778 44.656 83.1218 44.576 83.3218 44.416C83.5298 44.256 83.7218 43.984 83.8978 43.6L84.1738 42.988L81.3538 36.688H82.2418L84.6178 42.052L86.9938 36.688H87.8338ZM92.0692 39.712C92.5172 39.816 92.8612 39.996 93.1012 40.252C93.3492 40.508 93.4732 40.82 93.4732 41.188C93.4732 41.556 93.3452 41.884 93.0892 42.172C92.8412 42.46 92.5012 42.684 92.0692 42.844C91.6372 42.996 91.1612 43.072 90.6412 43.072C90.1852 43.072 89.7372 43.008 89.2972 42.88C88.8572 42.744 88.4732 42.548 88.1452 42.292L88.4332 41.656C88.7212 41.872 89.0572 42.04 89.4412 42.16C89.8252 42.28 90.2132 42.34 90.6052 42.34C91.1892 42.34 91.6652 42.232 92.0332 42.016C92.4092 41.792 92.5972 41.492 92.5972 41.116C92.5972 40.78 92.4452 40.52 92.1412 40.336C91.8372 40.144 91.4212 40.048 90.8932 40.048H89.8132V39.424H90.8452C91.3172 39.424 91.6972 39.336 91.9852 39.16C92.2732 38.976 92.4172 38.732 92.4172 38.428C92.4172 38.092 92.2532 37.828 91.9252 37.636C91.6052 37.444 91.1852 37.348 90.6652 37.348C89.9852 37.348 89.3132 37.52 88.6492 37.864L88.4092 37.204C89.1612 36.812 89.9412 36.616 90.7492 36.616C91.2292 36.616 91.6612 36.688 92.0452 36.832C92.4372 36.968 92.7412 37.164 92.9572 37.42C93.1812 37.676 93.2932 37.972 93.2932 38.308C93.2932 38.628 93.1812 38.912 92.9572 39.16C92.7412 39.408 92.4452 39.592 92.0692 39.712ZM100.567 36.688V43H99.7153V37.444H96.6913L96.6073 39.004C96.5433 40.316 96.3913 41.324 96.1513 42.028C95.9113 42.732 95.4833 43.084 94.8673 43.084C94.6993 43.084 94.4953 43.052 94.2553 42.988L94.3153 42.256C94.4593 42.288 94.5593 42.304 94.6153 42.304C94.9433 42.304 95.1913 42.152 95.3593 41.848C95.5273 41.544 95.6393 41.168 95.6953 40.72C95.7513 40.272 95.7993 39.68 95.8393 38.944L95.9473 36.688H100.567ZM105.161 36.64C105.985 36.64 106.617 36.848 107.057 37.264C107.497 37.672 107.717 38.28 107.717 39.088V43H106.901V42.016C106.709 42.344 106.425 42.6 106.049 42.784C105.681 42.968 105.241 43.06 104.729 43.06C104.025 43.06 103.465 42.892 103.049 42.556C102.633 42.22 102.425 41.776 102.425 41.224C102.425 40.688 102.617 40.256 103.001 39.928C103.393 39.6 104.013 39.436 104.861 39.436H106.865V39.052C106.865 38.508 106.713 38.096 106.409 37.816C106.105 37.528 105.661 37.384 105.077 37.384C104.677 37.384 104.293 37.452 103.925 37.588C103.557 37.716 103.241 37.896 102.977 38.128L102.593 37.492C102.913 37.22 103.297 37.012 103.745 36.868C104.193 36.716 104.665 36.64 105.161 36.64ZM104.861 42.388C105.341 42.388 105.753 42.28 106.097 42.064C106.441 41.84 106.697 41.52 106.865 41.104V40.072H104.885C103.805 40.072 103.265 40.448 103.265 41.2C103.265 41.568 103.405 41.86 103.685 42.076C103.965 42.284 104.357 42.388 104.861 42.388Z" fill="#B0A9A9"/>
<path d="M12.2113 10.9303C11.8469 10.911 11.5017 11.0644 11.2523 11.3138C11.003 11.5631 10.8496 11.9083 10.8688 12.2728L10.8687 29.1116L15.0967 32.8775L18.9623 29.1117L18.9814 12.292C19.0006 11.544 18.3868 10.9303 17.6389 10.9494L12.2113 10.9303ZM25.7738 2.80396L20.346 2.78516C19.6249 2.78336 18.9844 3.42396 18.9862 4.14496L19.005 9.57276C19.0078 10.321 19.6127 10.926 20.361 10.9251H25.77C26.1446 10.9251 26.4836 10.7734 26.7289 10.5281C26.9742 10.2828 27.126 9.94366 27.1259 9.56906V4.16006C27.127 3.41176 26.522 2.80676 25.7738 2.80396Z" fill="url(#paint0_linear)"/>
<path d="M10.8232 42.9021C10.8232 43.976 11.2259 44.9925 11.9931 45.7597C12.7985 46.5652 13.8343 46.9871 14.8699 46.9488C16.0015 46.9679 16.9987 46.5077 17.7467 45.7597C18.4755 45.0309 18.9358 44.0336 18.9166 42.9021L18.9619 29.1122L10.8684 29.1121L10.8232 42.9021ZM31.1926 0.0615225L25.7649 0.0803223C25.0186 0.0831223 24.8153 -0.268477 24.8125 0.477922V11.3333C24.8125 11.6929 24.5577 12.9987 24.8125 13.2535C25.0672 13.5083 25.4146 13.6497 25.7742 13.6496L31.202 13.6309C31.5747 13.6289 31.9128 13.4764 32.1562 13.2329C32.4016 12.9876 32.5533 12.6485 32.5532 12.274V1.41862C32.5532 1.05892 32.4091 0.712523 32.1543 0.457723C31.8996 0.202923 31.5523 0.0615225 31.1926 0.0615225ZM20.3419 0.062522H12.2059C5.4699 0.080322 -0.000899889 5.56232 1.11028e-07 12.2721C1.11028e-07 13.0212 0.6069 13.6281 1.356 13.6281C2.1052 13.6281 2.712 13.0212 2.712 12.2721C2.7139 11.551 3.3432 10.9254 4.0586 10.9255L8.1397 10.9274L8.1313 12.2637C8.1266 12.6262 8.2681 12.9735 8.5237 13.2292C8.7794 13.4849 9.124 13.6309 9.4864 13.63L20.3503 13.6309C20.7221 13.6281 21.0573 13.4764 21.3008 13.2329C21.5443 12.9894 21.696 12.6542 21.6989 12.2824L21.6979 1.41852C21.698 0.669323 21.0911 0.062422 20.3419 0.062522Z" fill="url(#paint1_linear)"/>
<defs>
<linearGradient id="paint0_linear" x1="18.9966" y1="32.8776" x2="18.9966" y2="2.78516" gradientUnits="userSpaceOnUse">
<stop stop-color="#DEDEDE"/>
<stop offset="1" stop-color="white"/>
</linearGradient>
<linearGradient id="paint1_linear" x1="-8.37571" y1="-0.0209782" x2="33.7792" y2="49.3149" gradientUnits="userSpaceOnUse">
<stop stop-color="#FED976"/>
<stop offset="1" stop-color="#FEB54A"/>
</linearGradient>
</defs>
</svg>
