<svg width="553" height="211" fill="none" xmlns="http://www.w3.org/2000/svg"><path d="M92.27 211h35.136v-34.272h19.44v-32.4h-19.44v-54H92.27v54H39.998L106.382 3.64h-39.6L.398 144.328v32.4H92.27V211zm405.844 0h35.136v-34.272h19.44v-32.4h-19.44v-54h-35.136v54h-52.272L512.226 3.64h-39.6l-66.384 140.688v32.4h91.872V211z" fill="#202223"/><path d="M352.1 30.9C332.174 10.974 305.68 0 277.5 0c-28.179 0-54.673 10.974-74.599 30.9C182.975 50.826 172 77.32 172 105.5c0 28.181 10.974 54.674 30.9 74.6 19.926 19.926 46.42 30.9 74.6 30.9 28.18 0 54.673-10.974 74.6-30.9 19.926-19.926 30.9-46.42 30.9-74.6 0-28.18-10.974-54.673-30.9-74.6zm-8.727 8.728a93.725 93.725 0 0114.406 18.544h-41.01c-1.808-9.117-4.149-17.572-6.985-25.087-2.639-6.993-5.648-12.949-8.946-17.806 15.953 4.097 30.583 12.397 42.535 24.349zM308.819 105.5c0 11.973-.81 23.592-2.359 34.416h-57.919c-1.549-10.824-2.359-22.443-2.359-34.416 0-12.183.838-24 2.441-34.986h57.755c1.602 10.986 2.441 22.803 2.441 34.986zM277.5 12.342c7.052 0 14.804 9.384 20.736 25.101 2.357 6.244 4.347 13.216 5.945 20.73H250.82c1.597-7.514 3.587-14.486 5.944-20.73 5.933-15.717 13.684-25.1 20.736-25.1zm-65.872 27.286c11.952-11.953 26.582-20.252 42.535-24.35-3.298 4.858-6.306 10.814-8.946 17.807-2.836 7.514-5.177 15.97-6.985 25.087h-41.01a93.699 93.699 0 0114.406-18.544zM184.343 105.5c0-12.188 2.33-24.018 6.771-34.985h45.052c-1.529 11.082-2.327 22.88-2.327 34.985 0 11.897.77 23.5 2.247 34.416h-45.2c-4.292-10.807-6.543-22.438-6.543-34.416zm27.285 65.872a93.688 93.688 0 01-14.739-19.114h41.23c1.823 9.335 4.203 17.986 7.098 25.657 2.64 6.993 5.648 12.949 8.946 17.806-15.953-4.097-30.583-12.397-42.535-24.349zm65.872 27.286c-7.052 0-14.803-9.384-20.735-25.101-2.416-6.401-4.446-13.569-6.063-21.299h53.597c-1.617 7.73-3.647 14.897-6.063 21.299-5.932 15.717-13.684 25.101-20.736 25.101zm65.873-27.286c-11.953 11.953-26.582 20.252-42.535 24.349 3.298-4.857 6.306-10.813 8.945-17.806 2.895-7.671 5.275-16.322 7.098-25.657h41.23a93.718 93.718 0 01-14.738 19.114zm-24.459-31.456c1.478-10.916 2.248-22.52 2.248-34.416-.001-12.105-.799-23.904-2.327-34.986h45.052c4.441 10.968 6.771 22.797 6.771 34.986 0 11.978-2.252 23.609-6.543 34.416h-45.201z" fill="#F87A0B"/></svg>