<svg width="45" height="46" viewBox="0 0 45 46" fill="none" xmlns="http://www.w3.org/2000/svg">
<path d="M14.2192 28.185C12.8298 28.185 11.4716 27.7638 10.3164 26.9747C9.16117 26.1857 8.26077 25.0642 7.72908 23.752C7.19738 22.4399 7.05826 20.996 7.32932 19.603C7.60038 18.2101 8.26943 16.9305 9.25188 15.9263C10.2343 14.922 11.486 14.2381 12.8487 13.961C14.2114 13.6839 15.6239 13.8261 16.9075 14.3696C18.1911 14.9131 19.2883 15.8335 20.0602 17.0144C20.8321 18.1953 21.2441 19.5837 21.2441 21.004C21.242 22.9078 20.5012 24.7331 19.1842 26.0793C17.8673 27.4256 16.0817 28.1828 14.2192 28.185ZM14.2192 15.0687C13.0704 15.0687 11.9473 15.417 10.9921 16.0694C10.0369 16.7219 9.29236 17.6492 8.85271 18.7342C8.41307 19.8192 8.29804 21.013 8.52217 22.1649C8.7463 23.3167 9.29952 24.3747 10.1119 25.2051C10.9242 26.0355 11.9592 26.601 13.086 26.8301C14.2128 27.0592 15.3807 26.9416 16.4421 26.4922C17.5035 26.0428 18.4107 25.2817 19.0489 24.3053C19.6872 23.3288 20.0279 22.1808 20.0279 21.0065C20.0267 19.4318 19.4145 17.9219 18.3254 16.8082C17.2364 15.6946 15.7596 15.0681 14.2192 15.0662V15.0687Z" fill="black"/>
<path d="M26.6112 44.7567H1.83076C1.66948 44.7567 1.51481 44.6912 1.40077 44.5746C1.28672 44.458 1.22266 44.2999 1.22266 44.1351V37.9188C1.22555 35.9238 2.00255 34.0114 3.38315 32.6013C4.76375 31.1912 6.63519 30.3985 8.58685 30.3972H19.545C19.7062 30.3972 19.8609 30.4627 19.975 30.5793C20.089 30.6959 20.1531 30.854 20.1531 31.0188C20.1531 31.1837 20.089 31.3418 19.975 31.4584C19.8609 31.575 19.7062 31.6405 19.545 31.6405H8.58685C6.95765 31.6414 5.39537 32.303 4.24279 33.4801C3.0902 34.6571 2.44145 36.2534 2.43887 37.9188V43.5134H26.0031V38.6648C26.0031 38.4999 26.0671 38.3418 26.1812 38.2252C26.2952 38.1087 26.4499 38.0432 26.6112 38.0432C26.7724 38.0432 26.9271 38.1087 27.0412 38.2252C27.1552 38.3418 27.2193 38.4999 27.2193 38.6648V44.1351C27.2193 44.2999 27.1552 44.458 27.0412 44.5746C26.9271 44.6912 26.7724 44.7567 26.6112 44.7567Z" fill="black"/>
<path d="M25.3037 34.469C25.2073 34.469 25.1122 34.4457 25.0264 34.4008C24.9405 34.356 24.8663 34.2909 24.8099 34.211C24.4911 33.7654 24.1167 33.3642 23.6965 33.0175C23.5715 32.9133 23.4921 32.7626 23.4758 32.5986C23.4595 32.4345 23.5076 32.2706 23.6095 32.1428C23.7114 32.0151 23.8588 31.9339 24.0193 31.9173C24.1797 31.9006 24.3401 31.9497 24.4651 32.0539C24.968 32.4691 25.4155 32.9497 25.7963 33.4837C25.8617 33.5765 25.9009 33.6859 25.9094 33.8C25.9179 33.9141 25.8955 34.0283 25.8446 34.1302C25.7936 34.2321 25.7162 34.3176 25.6207 34.3774C25.5253 34.4371 25.4156 34.4688 25.3037 34.469Z" fill="black"/>
<path d="M21.0521 44.7567H7.38545C7.22417 44.7567 7.0695 44.6912 6.95545 44.5746C6.84141 44.4581 6.77734 44.2999 6.77734 44.1351V39.992C6.77734 39.8271 6.84141 39.669 6.95545 39.5524C7.0695 39.4359 7.22417 39.3704 7.38545 39.3704C7.54673 39.3704 7.70141 39.4359 7.81545 39.5524C7.92949 39.669 7.99356 39.8271 7.99356 39.992V43.5135H20.444V39.992C20.444 39.8271 20.508 39.669 20.6221 39.5524C20.7361 39.4359 20.8908 39.3704 21.0521 39.3704C21.2134 39.3704 21.368 39.4359 21.4821 39.5524C21.5961 39.669 21.6602 39.8271 21.6602 39.992V44.1351C21.6602 44.2999 21.5961 44.4581 21.4821 44.5746C21.368 44.6912 21.2134 44.7567 21.0521 44.7567Z" fill="black"/>
<path d="M41.9184 16.7781H32.4788C32.3175 16.7781 32.1628 16.7126 32.0488 16.596C31.9347 16.4795 31.8707 16.3214 31.8707 16.1565C31.8707 15.9916 31.9347 15.8335 32.0488 15.7169C32.1628 15.6004 32.3175 15.5349 32.4788 15.5349H41.9184C42.0893 15.5345 42.2531 15.465 42.3739 15.3415C42.4947 15.218 42.5627 15.0506 42.563 14.8759V3.14533C42.5627 2.97067 42.4947 2.80326 42.3739 2.67976C42.2531 2.55626 42.0893 2.48674 41.9184 2.48641H22.895C22.7241 2.48657 22.5602 2.55605 22.4394 2.67958C22.3185 2.80312 22.2506 2.97062 22.2504 3.14533V14.8759C22.2506 15.0507 22.3185 15.2182 22.4394 15.3417C22.5602 15.4652 22.7241 15.5347 22.895 15.5349H26.4153C26.5766 15.5349 26.7313 15.6004 26.8453 15.7169C26.9594 15.8335 27.0234 15.9916 27.0234 16.1565C27.0234 16.3214 26.9594 16.4795 26.8453 16.596C26.7313 16.7126 26.5766 16.7781 26.4153 16.7781H22.895C22.4016 16.7776 21.9286 16.5771 21.5797 16.2204C21.2309 15.8638 21.0347 15.3803 21.0342 14.8759V3.14533C21.0347 2.64099 21.2309 2.15746 21.5797 1.80084C21.9286 1.44422 22.4016 1.24366 22.895 1.24316H41.9184C42.4118 1.24382 42.8847 1.44444 43.2335 1.80102C43.5823 2.1576 43.7786 2.64104 43.7792 3.14533V14.8759C43.7786 15.3802 43.5823 15.8637 43.2335 16.2203C42.8847 16.5768 42.4118 16.7775 41.9184 16.7781Z" fill="black"/>
<path d="M35.3306 11.3491C35.2104 11.3491 35.0928 11.3126 34.9929 11.2443C34.8929 11.176 34.815 11.0789 34.7689 10.9653C34.7229 10.8518 34.7109 10.7268 34.7343 10.6062C34.7578 10.4857 34.8157 10.3749 34.9007 10.288L36.1473 9.01364L34.8977 7.7331C34.7913 7.61516 34.7337 7.45975 34.7368 7.29937C34.74 7.139 34.8036 6.98607 34.9145 6.87257C35.0254 6.75906 35.1749 6.69376 35.3318 6.69033C35.4887 6.68689 35.6408 6.74558 35.7563 6.85413L37.4359 8.57105C37.5499 8.68762 37.6139 8.8457 37.6139 9.01054C37.6139 9.17537 37.5499 9.33345 37.4359 9.45002L35.7563 11.1669C35.6433 11.2825 35.4904 11.3479 35.3306 11.3491Z" fill="black"/>
<path d="M29.4842 11.3489C29.323 11.3489 29.1683 11.2834 29.0543 11.1668L27.3753 9.44861C27.2613 9.33204 27.1973 9.17396 27.1973 9.00913C27.1973 8.84429 27.2613 8.68621 27.3753 8.56964L29.0543 6.85272C29.169 6.73949 29.3226 6.67683 29.482 6.67825C29.6415 6.67966 29.794 6.74504 29.9068 6.86029C30.0195 6.97555 30.0835 7.13146 30.0848 7.29444C30.0862 7.45743 30.0249 7.61445 29.9142 7.73169L28.6651 9.01348L29.9142 10.2909C29.9992 10.3778 30.0571 10.4886 30.0805 10.6092C30.104 10.7297 30.0919 10.8547 30.0459 10.9683C29.9999 11.0818 29.922 11.1789 29.822 11.2472C29.722 11.3155 29.6045 11.352 29.4842 11.352V11.3489Z" fill="black"/>
<path d="M31.5232 13.2691C31.4307 13.2693 31.3395 13.2479 31.2563 13.2066C31.1731 13.1652 31.1003 13.1051 31.0433 13.0306C30.9863 12.9562 30.9467 12.8694 30.9274 12.777C30.9081 12.6845 30.9098 12.5888 30.9321 12.4971L32.6993 5.22161C32.7382 5.06153 32.8376 4.92378 32.9759 4.83868C33.1141 4.75358 33.2797 4.72809 33.4363 4.76783C33.5929 4.80756 33.7277 4.90926 33.8109 5.05055C33.8942 5.19184 33.9191 5.36115 33.8802 5.52123L32.1131 12.7942C32.081 12.9294 32.0054 13.0497 31.8984 13.1358C31.7915 13.2219 31.6594 13.2689 31.5232 13.2691Z" fill="black"/>
<path d="M26.4147 22.336C26.2535 22.336 26.0988 22.2705 25.9848 22.1539C25.8707 22.0373 25.8066 21.8792 25.8066 21.7143V16.1564C25.8066 15.9916 25.8707 15.8334 25.9848 15.7169C26.0988 15.6003 26.2535 15.5348 26.4147 15.5348C26.576 15.5348 26.7307 15.6003 26.8447 15.7169C26.9588 15.8334 27.0229 15.9916 27.0229 16.1564V20.3213L32.0702 15.6927C32.1294 15.637 32.1989 15.5938 32.2746 15.5658C32.3503 15.5377 32.4307 15.5253 32.5111 15.5293C32.5915 15.5332 32.6704 15.5535 32.7431 15.5888C32.8158 15.6242 32.8809 15.6739 32.9346 15.7352C32.9884 15.7965 33.0297 15.8681 33.0562 15.9458C33.0826 16.0235 33.0937 16.1059 33.0888 16.188C33.0839 16.2702 33.0631 16.3505 33.0276 16.4244C32.9921 16.4982 32.9426 16.5641 32.882 16.6183L26.8185 22.1762C26.7077 22.2783 26.564 22.3352 26.4147 22.336Z" fill="black"/>
</svg>
