<svg width="46" height="49" viewBox="0 0 46 49" fill="none" xmlns="http://www.w3.org/2000/svg">
<path d="M34.9231 9.91403C34.8222 9.91409 34.7227 9.88849 34.6334 9.83944C34.544 9.79039 34.4674 9.71937 34.4103 9.63251C34.0722 9.11923 33.6982 8.63272 33.2914 8.17694C33.1833 8.05043 33.127 7.8848 33.1344 7.71549C33.1419 7.54619 33.2126 7.38666 33.3314 7.27104C33.4501 7.15543 33.6075 7.0929 33.7699 7.09686C33.9323 7.10081 34.0867 7.17092 34.2002 7.29219C34.6484 7.79496 35.0602 8.33179 35.4322 8.89824C35.4963 8.99559 35.5337 9.10933 35.5403 9.2272C35.547 9.34508 35.5227 9.46261 35.47 9.56714C35.4174 9.67166 35.3384 9.75921 35.2416 9.82034C35.1448 9.88147 35.0338 9.91386 34.9206 9.91403H34.9231Z" fill="black"/>
<path d="M30.4475 36.4113H15.5535C15.3886 36.4113 15.2305 36.3429 15.1139 36.2213C14.9973 36.0996 14.9318 35.9347 14.9318 35.7626V35.4772C14.9318 32.3553 13.9739 31.1884 12.0668 28.861C11.8573 28.6061 11.6385 28.3421 11.4103 28.0573C9.11552 25.206 7.85565 21.6028 7.85156 17.8794C7.8516 15.731 8.27139 13.6052 9.08528 11.6318C9.89918 9.6584 11.0901 7.87887 12.5853 6.40192C14.0804 4.92497 15.8485 3.78161 17.7814 3.04168C19.7143 2.30175 21.7715 1.98079 23.8272 2.09841C26.1008 2.2229 28.3163 2.89208 30.302 4.05409C30.443 4.13945 30.5462 4.27914 30.5894 4.44309C30.6326 4.60705 30.6123 4.78214 30.5331 4.93069C30.4538 5.07924 30.3217 5.18937 30.1654 5.23736C30.0091 5.28535 29.841 5.26736 29.6972 5.18728C27.8773 4.12231 25.8469 3.50863 23.7632 3.39376C21.8758 3.2852 19.9871 3.57938 18.2124 4.2583C16.4376 4.93723 14.8142 5.98665 13.4414 7.34242C12.0685 8.6982 10.9749 10.3319 10.2276 12.1436C9.48026 13.9553 9.09481 15.907 9.09481 17.8794C9.0981 21.2982 10.2548 24.6066 12.362 27.2245C12.5871 27.5034 12.804 27.7674 13.011 28.0197C14.851 30.2621 16.088 31.7695 16.1707 35.114H29.8383C29.9745 31.656 31.2301 30.1375 33.4095 27.5034L33.5388 27.3477C35.2198 25.3127 36.3239 22.8291 36.7271 20.1756C36.7399 20.0914 36.7684 20.0107 36.811 19.9381C36.8536 19.8654 36.9095 19.8022 36.9756 19.7521C37.0416 19.702 37.1165 19.6659 37.1959 19.646C37.2752 19.6261 37.3576 19.6226 37.4383 19.6359C37.5189 19.6492 37.5963 19.6789 37.6659 19.7234C37.7356 19.7679 37.7961 19.8263 37.8441 19.8952C37.8922 19.9641 37.9267 20.0422 37.9458 20.125C37.9649 20.2079 37.9682 20.2938 37.9555 20.378C37.5153 23.2688 36.3121 25.9745 34.4806 28.1916L34.3507 28.3486C32.0973 31.0729 31.0691 32.3151 31.0691 35.76C31.0695 35.8454 31.0536 35.9301 31.0225 36.0091C30.9914 36.0881 30.9457 36.1599 30.8879 36.2204C30.8302 36.2809 30.7616 36.3289 30.686 36.3617C30.6104 36.3944 30.5294 36.4113 30.4475 36.4113Z" fill="black"/>
<path d="M37.3031 15.862C37.1577 15.8619 37.0168 15.8085 36.9052 15.7112C36.7935 15.6139 36.7181 15.4788 36.6921 15.3295C36.5863 14.7227 36.4433 14.1236 36.2638 13.536C36.2137 13.372 36.228 13.194 36.3037 13.0411C36.3793 12.8882 36.5101 12.7729 36.6672 12.7206C36.8243 12.6683 36.9949 12.6833 37.1415 12.7623C37.288 12.8412 37.3985 12.9777 37.4486 13.1416C37.644 13.7824 37.7999 14.4357 37.9154 15.0973C37.9317 15.1908 37.9282 15.287 37.9049 15.3789C37.8817 15.4708 37.8393 15.5563 37.7809 15.6293C37.7225 15.7022 37.6494 15.7609 37.5668 15.8011C37.4843 15.8414 37.3943 15.8621 37.3031 15.862Z" fill="black"/>
<path d="M31.7092 41.1769H14.2901C13.9407 41.1766 13.6056 41.0316 13.3584 40.7738C13.1113 40.516 12.9722 40.1665 12.9717 39.8018V36.4898C12.972 36.125 13.111 35.7753 13.3582 35.5174C13.6054 35.2594 13.9406 35.1144 14.2901 35.114H31.7092C32.0588 35.1144 32.394 35.2594 32.6412 35.5174C32.8883 35.7753 33.0274 36.125 33.0277 36.4898V39.8018C33.0272 40.1665 32.8881 40.516 32.6409 40.7738C32.3938 41.0316 32.0587 41.1766 31.7092 41.1769ZM14.2901 36.4113C14.2702 36.4113 14.2511 36.4196 14.237 36.4343C14.2228 36.449 14.2149 36.469 14.2149 36.4898V39.8018C14.2151 39.8225 14.2231 39.8423 14.2372 39.8569C14.2513 39.8714 14.2703 39.8796 14.2901 39.8796H31.7092C31.7291 39.8796 31.7481 39.8714 31.7622 39.8569C31.7763 39.8423 31.7843 39.8225 31.7844 39.8018V36.4898C31.7844 36.469 31.7765 36.449 31.7624 36.4343C31.7483 36.4196 31.7292 36.4113 31.7092 36.4113H14.2901Z" fill="black"/>
<path d="M26.8895 47.4838H19.1093C18.5322 47.4838 17.9789 47.2446 17.5708 46.8188C17.1628 46.3931 16.9336 45.8156 16.9336 45.2135V40.5283C16.9336 40.3563 16.9991 40.1913 17.1157 40.0696C17.2322 39.948 17.3904 39.8796 17.5552 39.8796H28.4429C28.6078 39.8796 28.7659 39.948 28.8825 40.0696C28.9991 40.1913 29.0645 40.3563 29.0645 40.5283V45.2135C29.0645 45.8155 28.8354 46.3928 28.4275 46.8186C28.0196 47.2443 27.4664 47.4836 26.8895 47.4838ZM18.1775 41.1769V45.2135C18.1775 45.4715 18.2757 45.719 18.4506 45.9015C18.6254 46.0839 18.8626 46.1865 19.1099 46.1865H26.8895C27.1368 46.1865 27.374 46.0839 27.5488 45.9015C27.7237 45.719 27.8219 45.4715 27.8219 45.2135V41.1769H18.1775Z" fill="black"/>
<path d="M17.5584 44.0854H14.2906C14.1257 44.0854 13.9676 44.017 13.851 43.8954C13.7344 43.7738 13.6689 43.6088 13.6689 43.4367C13.6689 43.2647 13.7344 43.0997 13.851 42.9781C13.9676 42.8564 14.1257 42.7881 14.2906 42.7881H17.5584C17.7233 42.7881 17.8814 42.8564 17.998 42.9781C18.1146 43.0997 18.1801 43.2647 18.1801 43.4367C18.1801 43.6088 18.1146 43.7738 17.998 43.8954C17.8814 44.017 17.7233 44.0854 17.5584 44.0854Z" fill="black"/>
<path d="M31.7098 44.0854H28.4419C28.2771 44.0854 28.119 44.017 28.0024 43.8954C27.8858 43.7738 27.8203 43.6088 27.8203 43.4367C27.8203 43.2647 27.8858 43.0997 28.0024 42.9781C28.119 42.8564 28.2771 42.7881 28.4419 42.7881H31.7098C31.8747 42.7881 32.0328 42.8564 32.1493 42.9781C32.2659 43.0997 32.3314 43.2647 32.3314 43.4367C32.3314 43.6088 32.2659 43.7738 32.1493 43.8954C32.0328 44.017 31.8747 44.0854 31.7098 44.0854Z" fill="black"/>
<path d="M27.0258 21.8771C26.9029 21.8771 26.7827 21.8391 26.6805 21.7678C26.5783 21.6965 26.4986 21.5952 26.4516 21.4767C26.4046 21.3582 26.3923 21.2278 26.4162 21.102C26.4402 20.9762 26.4994 20.8606 26.5863 20.7699L29.58 17.646L26.5863 14.5221C26.4731 14.3998 26.4104 14.2359 26.4118 14.0659C26.4132 13.8958 26.4786 13.7331 26.5939 13.6128C26.7091 13.4926 26.865 13.4244 27.028 13.4229C27.191 13.4214 27.348 13.4868 27.4653 13.6049L30.8985 17.1874C31.015 17.3091 31.0805 17.474 31.0805 17.646C31.0805 17.818 31.015 17.983 30.8985 18.1046L27.4653 21.6871C27.3487 21.8087 27.1906 21.8771 27.0258 21.8771Z" fill="black"/>
<path d="M18.9736 21.8771C18.8088 21.8771 18.6507 21.8087 18.5342 21.6871L15.1009 18.1046C14.9844 17.983 14.9189 17.818 14.9189 17.646C14.9189 17.474 14.9844 17.3091 15.1009 17.1874L18.5342 13.6049C18.6514 13.4868 18.8084 13.4214 18.9714 13.4229C19.1344 13.4244 19.2903 13.4926 19.4056 13.6128C19.5208 13.7331 19.5862 13.8958 19.5876 14.0659C19.589 14.2359 19.5264 14.3998 19.4131 14.5221L16.4194 17.646L19.4131 20.7699C19.5 20.8606 19.5592 20.9762 19.5832 21.102C19.6072 21.2278 19.5949 21.3582 19.5478 21.4767C19.5008 21.5952 19.4211 21.6965 19.3189 21.7678C19.2167 21.8391 19.0966 21.8771 18.9736 21.8771Z" fill="black"/>
<path d="M21.6703 24.7811C21.6264 24.7811 21.5827 24.7763 21.5397 24.7668C21.4598 24.7491 21.3841 24.715 21.3168 24.6666C21.2495 24.6183 21.192 24.5565 21.1476 24.485C21.1032 24.4134 21.0728 24.3334 21.0581 24.2495C21.0433 24.1657 21.0446 24.0796 21.0617 23.9963L23.7235 11.0187C23.7406 10.9354 23.7733 10.8565 23.8196 10.7863C23.866 10.7162 23.9251 10.6563 23.9936 10.61C24.0622 10.5637 24.1388 10.5319 24.2191 10.5165C24.2994 10.5011 24.3818 10.5024 24.4617 10.5203C24.5415 10.5381 24.6172 10.5722 24.6844 10.6205C24.7516 10.6689 24.8091 10.7306 24.8534 10.8021C24.8978 10.8737 24.9282 10.9536 24.943 11.0374C24.9577 11.1212 24.9565 11.2072 24.9394 11.2905L22.2776 24.2706C22.2474 24.4153 22.1707 24.5448 22.0602 24.6376C21.9497 24.7305 21.8121 24.7811 21.6703 24.7811Z" fill="black"/>
</svg>
