<svg width="46" height="46" viewBox="0 0 46 46" fill="none" xmlns="http://www.w3.org/2000/svg">
<path d="M3.60791 27.0588L10.8236 28.4118V45.0981H3.60791V27.0588Z" fill="#11B687"/>
<path d="M42.3921 27.0588L35.1764 28.4118V45.0981H42.3921V27.0588Z" fill="#11B687"/>
<path d="M23 29.918C21.3899 29.918 20.0801 31.2279 20.0801 32.8379C20.0801 34.4479 21.3899 35.7578 23 35.7578C24.6101 35.7578 25.9199 34.4479 25.9199 32.8379C25.9199 31.2279 24.6101 29.918 23 29.918ZM23 34.4102C22.1331 34.4102 21.4277 33.7048 21.4277 32.8379C21.4277 31.971 22.1331 31.2656 23 31.2656C23.8669 31.2656 24.5723 31.971 24.5723 32.8379C24.5723 33.7048 23.8669 34.4102 23 34.4102ZM43.9336 0H34.0068C31.9296 0 30.0839 1.32079 29.4141 3.28648L27.564 8.71215H18.4361L16.5861 3.28657C15.9161 1.32079 14.0704 0 11.9932 0H4.46686C4.09464 0 3.79304 0.301695 3.79304 0.673828C3.79304 1.04596 4.09464 1.34766 4.46686 1.34766H11.9932C13.4935 1.34766 14.8265 2.30153 15.3104 3.72133L18.5122 13.1111H16.9927L13.9491 4.18582C13.6636 3.34857 12.8777 2.78605 11.9932 2.78605H2.06641C1.67011 2.78605 1.34766 2.46325 1.34766 2.06641C1.34766 1.67011 1.67011 1.34766 2.06641 1.34766H4.93018C5.3024 1.34766 5.604 1.04596 5.604 0.673828C5.604 0.301695 5.3024 0 4.93018 0H2.06641C0.926918 0 0 0.927008 0 2.06641C0 3.20634 0.926918 4.13371 2.06641 4.13371H11.9932C12.3009 4.13371 12.5742 4.32939 12.6734 4.62075L15.5688 13.1112H11.8932C10.5309 13.1112 9.42254 14.2195 9.42254 15.5819V17.4297H8.49958C7.13719 17.4297 6.02887 18.538 6.02887 19.9004C6.02887 19.9626 6.02852 26.3564 6.03049 26.4141H4.7168C3.6022 26.4141 2.69531 27.3209 2.69531 28.4355V43.9785C2.69531 45.0932 3.6022 46 4.7168 46H9.83789C10.9525 46 11.8594 45.0932 11.8594 43.9785V38.3475L18.3638 36.3144L18.4517 36.5869C18.782 37.6111 19.727 38.2993 20.8031 38.2993H25.1969C26.273 38.2993 27.218 37.6111 27.5483 36.5868L27.6362 36.3144L34.1406 38.3475V43.9785C34.1406 45.0932 35.0475 46 36.1621 46H41.2832C42.3978 46 43.3047 45.0932 43.3047 43.9785V28.4355C43.3047 27.3209 42.3978 26.4141 41.2832 26.4141H39.9696C39.9735 26.3571 39.9712 19.9646 39.9712 19.9004C39.9712 18.538 38.8629 17.4297 37.5005 17.4297H36.5775V15.5819C36.5775 14.2195 35.4691 13.1112 34.1068 13.1112H30.4312L33.3265 4.62066C33.4258 4.32939 33.6991 4.13371 34.0068 4.13371H43.9336C45.0731 4.13371 46 3.20634 46 2.06641C46 0.927008 45.0731 0 43.9336 0ZM27.1044 10.0598L26.0639 13.1111H19.9361L18.8957 10.0598H27.1044ZM7.37653 21.9088H14.3295C14.4534 21.9088 14.5541 22.0096 14.5541 22.1334V24.3222C14.5541 24.446 14.4534 24.5468 14.3295 24.5468H7.37653V21.9088ZM4.7168 27.7617H6.47809C6.86388 28.3112 7.46817 28.7013 8.17273 28.7953L10.1503 29.0592L8.84655 30.8164H5.70813L4.04297 28.5722C3.97711 28.1528 4.29498 27.7609 4.7168 27.7617ZM10.5117 43.9785C10.5117 44.3501 10.2095 44.6523 9.83789 44.6523H4.7168C4.3452 44.6523 4.04297 44.3501 4.04297 43.9785V41.6151L4.63944 42.4189C4.88391 42.7486 5.27509 42.9453 5.68549 42.9453H8.8692C9.2796 42.9453 9.67078 42.7486 9.91543 42.4189L10.5118 41.6152L10.5117 43.9785ZM10.5117 37.849V37.8563V39.3534L8.84655 41.5977H5.70813L4.04297 39.3534V36.2245L4.63944 37.0283C4.88391 37.3579 5.27509 37.5547 5.68549 37.5547H8.8692C9.2796 37.5547 9.67078 37.3579 9.91543 37.0283L10.5118 36.2246L10.5117 37.849ZM10.5117 33.9628L8.84655 36.207H5.70813L4.04297 33.9628V30.8338L4.63944 31.6377C4.88391 31.9673 5.27509 32.1641 5.68549 32.1641H8.8692C9.2796 32.1641 9.67078 31.9673 9.91543 31.6377L10.5118 30.8339L10.5117 33.9628ZM11.8594 36.9355V35.5237L17.5367 33.7494L17.9502 35.0316L11.8594 36.9355ZM11.8594 34.1117V29.2874L15.5858 29.7847C16.0128 29.8417 16.3739 30.1434 16.5061 30.5533L17.1231 32.4667L11.8594 34.1117ZM34.1406 36.9355L28.0498 35.0317L28.4633 33.7495L34.1406 35.5237V36.9355ZM34.1406 34.1117L28.8769 32.4667L29.494 30.5532C29.6261 30.1433 29.9872 29.8417 30.4142 29.7847L34.1406 29.2874V34.1117ZM41.957 43.9785C41.957 44.3501 41.6548 44.6523 41.2832 44.6523H36.1621C35.7905 44.6523 35.4883 44.3501 35.4883 43.9785V41.6151L36.0848 42.4189C36.3293 42.7486 36.7204 42.9453 37.1309 42.9453H40.3146C40.725 42.9453 41.1162 42.7486 41.3608 42.4189L41.9572 41.6152L41.957 43.9785ZM41.957 39.3534L40.2919 41.5977H37.1534L35.4883 39.3534V37.8564C35.4883 37.854 35.4883 37.8515 35.4883 37.8491V36.2246L36.0848 37.0284C36.3293 37.358 36.7204 37.5548 37.1309 37.5548H40.3146C40.725 37.5548 41.1162 37.358 41.3608 37.0284L41.9572 36.2246L41.957 39.3534ZM41.957 33.9628L40.2919 36.207H37.1534L35.4883 33.9628V30.8338L36.0848 31.6377C36.3293 31.9673 36.7204 32.1641 37.1309 32.1641H40.3146C40.725 32.1641 41.1162 31.9673 41.3608 31.6377L41.9572 30.8339L41.957 33.9628ZM39.5219 27.7617H41.2832C41.7118 27.7599 42.0118 28.157 41.957 28.5722L40.2919 30.8164H37.1534L35.8497 29.0592L37.8273 28.7953C38.5318 28.7013 39.1361 28.3112 39.5219 27.7617ZM38.6235 24.5468H31.6705C31.5466 24.5468 31.4459 24.446 31.4459 24.3222V22.1334C31.4459 22.0096 31.5466 21.9088 31.6705 21.9088H38.6235V24.5468ZM34.1067 14.4588C34.726 14.4588 35.2297 14.9626 35.2297 15.5819V17.4297H32.0483C31.6761 17.4297 31.3745 17.7314 31.3745 18.1035C31.3745 18.4756 31.6761 18.7773 32.0483 18.7773H37.5005C38.1198 18.7773 38.6236 19.2811 38.6236 19.9004V20.5611H31.6705C30.8036 20.5611 30.0983 21.2665 30.0983 22.1334V24.3222C30.0983 25.1891 30.8036 25.8945 31.6705 25.8945H38.6236V26.3463C38.6236 26.9068 38.2046 27.3854 37.649 27.4595L34.7465 27.8469L34.7415 27.8476L30.236 28.449C29.2968 28.5744 28.5021 29.238 28.2115 30.1397L27.385 32.7029L27.3838 32.7061L27.3832 32.7084L26.2659 36.1732C26.1157 36.6388 25.6861 36.9517 25.197 36.9517H20.8033C20.3142 36.9517 19.8846 36.6388 19.7344 36.1733L18.6171 32.7079L18.6166 32.7061L18.6157 32.7036L17.789 30.1397C17.4982 29.2379 16.7036 28.5744 15.7643 28.4489L11.2589 27.8475L11.2538 27.8468L8.35134 27.4594C7.79574 27.3853 7.3768 26.9067 7.3768 26.3462V25.8944H14.3298C15.1967 25.8944 15.9021 25.189 15.9021 24.3221V22.1333C15.9021 21.2664 15.1967 20.561 14.3298 20.561H7.3768V19.9004C7.3768 19.2811 7.88055 18.7773 8.49985 18.7773H32.5119C32.8841 18.7773 33.1858 18.4756 33.1858 18.1035C33.1858 17.7314 32.8841 17.4297 32.5119 17.4297H10.7703V15.5819C10.7703 14.9626 11.274 14.4588 11.8933 14.4588H34.1067ZM43.9336 2.78605H34.0068C33.1223 2.78605 32.3364 3.34857 32.0509 4.18573L29.0072 13.1112H27.4877L30.6897 3.72124C31.1735 2.30153 32.5065 1.34766 34.0068 1.34766H43.9336C44.3299 1.34766 44.6523 1.67011 44.6523 2.06641C44.6523 2.46325 44.3299 2.78605 43.9336 2.78605Z" fill="white"/>
</svg>
