<svg width="50" height="50" viewBox="0 0 50 50" fill="none" xmlns="http://www.w3.org/2000/svg">
<path d="M47.6562 21.875C47.0812 21.1086 46.2383 20.5891 45.3125 20.3977V16.4062C45.3125 14.2523 43.5602 12.5 41.4062 12.5L39.0234 12.5008C38.832 11.1797 37.7039 10.1578 36.3297 10.1578L25.6945 10.1562C26.7109 9.16328 27.3438 7.77969 27.3438 6.25C27.3438 3.23438 24.8906 0.78125 21.875 0.78125C18.8594 0.78125 16.4062 3.23438 16.4062 6.25C16.4062 7.99453 17.2305 9.54688 18.5063 10.5492C16.1789 11.3586 14.3758 13.3586 13.9016 15.8922L12.6328 22.6562H10.9375C7.75781 22.6562 4.72031 24.175 2.8125 26.7188C1.50234 28.4656 0.78125 30.6297 0.78125 32.8125V42.9688H5.46875V42.1875C5.46875 37.4492 9.32422 33.5938 14.0625 33.5938C18.5375 33.5938 22.2203 37.0328 22.6164 41.4062H20.3125V42.9688H35.9375V41.4062H33.6336C34.0297 37.0328 37.7125 33.5938 42.1875 33.5938H49.2188V23.9586L47.6562 21.875ZM38.7898 14.0625H41.4062C42.6984 14.0625 43.75 15.1141 43.75 16.4062V20.3125H42.1875V17.1875C42.1875 16.3258 41.4867 15.625 40.625 15.625H38.2812C38.0125 15.625 37.7875 15.4805 37.6469 15.2734C38.143 14.9977 38.5438 14.5781 38.7898 14.0625ZM29.5875 32.3344L27.9172 27.875L33.2313 22.5609C33.6672 22.125 34.2711 21.875 34.8883 21.875H36.7188V24.5789C36.7188 26.207 35.5 27.5875 33.8844 27.7898C31.9328 28.0336 30.3016 29.4797 29.8242 31.3867L29.5875 32.3344ZM34.8883 20.3125C33.8453 20.3125 32.8641 20.7188 32.1266 21.4563L27.3289 26.2539C26.4477 24.4016 24.6977 23.0586 22.6555 22.7344L23.9516 16.2531C24.025 15.8891 24.3469 15.625 24.7172 15.625L36.0812 15.6242C36.4047 16.532 37.2641 17.1875 38.2812 17.1875H40.625V20.3125H34.8883ZM17.9688 6.25C17.9688 4.09609 19.7211 2.34375 21.875 2.34375C24.0289 2.34375 25.7812 4.09609 25.7812 6.25C25.7812 8.40391 24.0289 10.1562 21.875 10.1562C19.7211 10.1562 17.9688 8.40391 17.9688 6.25ZM14.1227 23.1898L15.4367 16.1797C15.9211 13.5945 18.182 11.7188 20.8117 11.7188L36.3289 11.7195C36.9742 11.7195 37.5 12.2445 37.5 12.8961C37.5 13.5383 36.9781 14.0609 36.3359 14.0609L24.7172 14.0625C23.6047 14.0625 22.6383 14.8547 22.4203 15.9469L20.7664 24.2164L21.7148 24.2211C23.9 24.2313 25.818 25.7891 26.2766 27.925L28.8812 34.8797C28.9523 35.2719 28.8734 35.6695 28.6555 36.0047C28.4281 36.3555 28.0781 36.5969 27.6695 36.6844C26.8547 36.8609 25.9922 36.307 25.8148 35.4828L23.2047 28.5125C23.0266 27.8312 22.4008 27.3438 21.693 27.3438H17.7336C16.5047 27.3438 15.3852 26.807 14.7375 25.9078C14.1617 25.1094 13.9437 24.1438 14.1227 23.1898ZM14.0625 32.0312C8.725 32.0312 4.33594 36.1695 3.93594 41.4062H2.34375V32.8125C2.34375 30.9656 2.95391 29.1344 4.0625 27.6563C5.67656 25.5039 8.24687 24.2188 10.9375 24.2188H12.5188C12.5875 25.1445 12.9062 26.0398 13.4688 26.8211C14.4094 28.1266 16.0039 28.9062 17.7336 28.9062L21.6938 28.9086L24.3016 35.8719C24.3734 36.1766 24.4969 36.4578 24.6492 36.7188H22.607C20.7992 33.9047 17.6484 32.0312 14.0625 32.0312ZM24.1789 41.4062C24.0945 40.307 23.8422 39.2555 23.4352 38.2812H32.8148C32.4078 39.2555 32.1555 40.307 32.0711 41.4062H24.1789ZM47.6562 32.0312H42.1875C38.6016 32.0312 35.4508 33.9047 33.643 36.7188H30.0422C30.2914 36.2852 30.4281 35.8078 30.4523 35.3172L31.3398 31.7664C31.6617 30.4797 32.7617 29.5047 34.0773 29.3406C36.4734 29.0414 38.2805 26.9945 38.2805 24.5797V21.875H44.5305C45.2641 21.875 45.9656 22.2258 46.4055 22.8125L46.875 23.4375H39.8438V24.2188C39.8438 27.2344 42.2969 29.6875 45.3125 29.6875H47.6562V32.0312ZM47.6562 28.125H45.3125C43.4258 28.125 41.8477 26.7805 41.4852 25H47.6562V28.125Z" fill="white"/>
<path d="M42.1875 49.2188C38.3109 49.2188 35.1562 46.0641 35.1562 42.1875C35.1562 38.3109 38.3109 35.1562 42.1875 35.1562C46.0641 35.1562 49.2188 38.3109 49.2188 42.1875C49.2188 46.0641 46.0641 49.2188 42.1875 49.2188ZM42.1875 39.0625C40.4641 39.0625 39.0625 40.4641 39.0625 42.1875C39.0625 43.9109 40.4641 45.3125 42.1875 45.3125C43.9109 45.3125 45.3125 43.9109 45.3125 42.1875C45.3125 40.4641 43.9109 39.0625 42.1875 39.0625Z" fill="#11B687"/>
<path d="M42.1875 46.0938C40.0336 46.0938 38.2812 44.3414 38.2812 42.1875C38.2812 40.0336 40.0336 38.2812 42.1875 38.2812C44.3414 38.2812 46.0938 40.0336 46.0938 42.1875C46.0938 44.3414 44.3414 46.0938 42.1875 46.0938ZM42.1875 39.8438C40.8953 39.8438 39.8438 40.8953 39.8438 42.1875C39.8438 43.4797 40.8953 44.5312 42.1875 44.5312C43.4797 44.5312 44.5312 43.4797 44.5312 42.1875C44.5312 40.8953 43.4797 39.8438 42.1875 39.8438Z" fill="white"/>
<path d="M14.0625 49.2188C10.1859 49.2188 7.03125 46.0641 7.03125 42.1875C7.03125 38.3109 10.1859 35.1562 14.0625 35.1562C17.9391 35.1562 21.0938 38.3109 21.0938 42.1875C21.0938 46.0641 17.9391 49.2188 14.0625 49.2188ZM14.0625 39.0625C12.3391 39.0625 10.9375 40.4641 10.9375 42.1875C10.9375 43.9109 12.3391 45.3125 14.0625 45.3125C15.7859 45.3125 17.1875 43.9109 17.1875 42.1875C17.1875 40.4641 15.7859 39.0625 14.0625 39.0625Z" fill="#11B687"/>
<path d="M14.0625 46.0938C11.9086 46.0938 10.1562 44.3414 10.1562 42.1875C10.1562 40.0336 11.9086 38.2812 14.0625 38.2812C16.2164 38.2812 17.9688 40.0336 17.9688 42.1875C17.9688 44.3414 16.2164 46.0938 14.0625 46.0938ZM14.0625 39.8438C12.7703 39.8438 11.7188 40.8953 11.7188 42.1875C11.7188 43.4797 12.7703 44.5312 14.0625 44.5312C15.3547 44.5312 16.4062 43.4797 16.4062 42.1875C16.4062 40.8953 15.3547 39.8438 14.0625 39.8438Z" fill="white"/>
</svg>
