<svg width="36" height="50" viewBox="0 0 36 50" fill="none" xmlns="http://www.w3.org/2000/svg">
<path d="M31.1617 44.5312C31.7156 43.4961 32.0312 42.3141 32.0312 41.0578C32.0312 40.7695 32.0141 40.482 31.9805 40.1953L30.1008 24.2188H2.71172L0.832031 40.1953C0.798437 40.4813 0.78125 40.7695 0.78125 41.0578C0.78125 42.3141 1.09687 43.4961 1.65078 44.5312H31.1617Z" fill="#11B687"/>
<path d="M16.4062 26.7164L11.7734 33.6657C11.2266 34.486 10.9375 35.4406 10.9375 36.4274C10.9375 39.1727 13.1711 41.4063 15.9164 41.4063H16.8961C19.6414 41.4063 21.875 39.1727 21.875 36.4274C21.875 35.4406 21.5859 34.486 21.0391 33.6657L16.4062 26.7164ZM16.8961 39.8438H15.9164C14.0328 39.8438 12.5 38.311 12.5 36.4274C12.5 35.75 12.6984 35.0953 13.0734 34.5321L16.4062 29.5336L19.7391 34.5321C20.1141 35.0953 20.3125 35.75 20.3125 36.4274C20.3125 38.311 18.7797 39.8438 16.8961 39.8438Z" fill="white"/>
<path d="M30.6984 22.6086C33.9414 20.6219 35.9375 17.0984 35.9375 13.2812C35.9375 7.25 31.0312 2.34375 25 2.34375H23.2938C22.9703 1.43672 22.1109 0.78125 21.0938 0.78125H11.7188C10.4266 0.78125 9.375 1.83281 9.375 3.125V6.25C9.375 7.25391 10.0125 8.10469 10.9008 8.43828C10.8141 10.1305 10.3969 11.8063 9.64766 13.3242C5.87891 13.7031 2.81484 16.6547 2.36406 20.4883L0.0562496 40.1039C0.0187496 40.4172 0 40.7391 0 41.0578C0 45.5578 3.66094 49.2188 8.16094 49.2188H24.6508C29.1516 49.2188 32.8125 45.5578 32.8125 41.0578C32.8125 40.7391 32.7938 40.418 32.7563 40.1047L30.6984 22.6086ZM20.3352 8.59375C20.4266 10.2031 20.7977 11.7977 21.4258 13.2812H11.3867C12.0141 11.7969 12.3859 10.2031 12.4766 8.59375H20.3352ZM23.1648 13.325C22.4148 11.807 21.9977 10.1313 21.9117 8.43906C22.557 8.19688 23.0617 7.68203 23.2938 7.03203H25C28.4461 7.03203 31.25 9.83594 31.25 13.282C31.25 14.9055 30.6273 16.4203 29.5273 17.5742C28.2648 15.232 25.9016 13.5992 23.1648 13.325ZM34.375 13.2812C34.375 16.3055 32.9109 19.1141 30.4938 20.868L30.4492 20.4891C30.3937 20.0187 30.2945 19.5641 30.1648 19.1242C31.8484 17.6383 32.8125 15.5445 32.8125 13.2812C32.8125 8.97344 29.3078 5.46875 25 5.46875H23.4375V3.90625H25C30.1695 3.90625 34.375 8.11172 34.375 13.2812ZM10.9375 3.125C10.9375 2.69453 11.2883 2.34375 11.7188 2.34375H12.5V5.46875H14.0625V2.34375H15.625V5.46875H17.1875V2.34375H18.75V5.46875H20.3125V2.34375H21.0938C21.5242 2.34375 21.875 2.69453 21.875 3.125V6.25C21.875 6.68047 21.5242 7.03125 21.0938 7.03125H11.7188C11.2883 7.03125 10.9375 6.68047 10.9375 6.25V3.125ZM24.6516 47.6562H8.16094C4.52266 47.6562 1.5625 44.6961 1.5625 41.0578C1.5625 40.8008 1.57734 40.543 1.60781 40.2867L3.91563 20.6711C4.30625 17.3492 7.12344 14.8438 10.4688 14.8438H22.3437C25.6891 14.8438 28.5062 17.3492 28.8969 20.6711L31.2047 40.2875C31.2352 40.543 31.25 40.8008 31.25 41.0578C31.25 44.6961 28.2898 47.6562 24.6516 47.6562Z" fill="white"/>
<path d="M11.7188 16.4062H10.4688C7.91563 16.4062 5.76484 18.318 5.46719 20.8539L5.26562 22.5648L6.81719 22.7469L7.01875 21.0359C7.225 19.2875 8.70781 17.9687 10.4688 17.9687H11.7188V16.4062Z" fill="white"/>
<path d="M4.16113 31.9507L4.34525 30.3881L5.89701 30.571L5.7129 32.1336L4.16113 31.9507Z" fill="white"/>
<path d="M3.15937 40.4719C3.13672 40.6664 3.125 40.8625 3.125 41.0578C3.125 41.1961 3.13047 41.3336 3.14141 41.4687L4.69922 41.3445C4.69141 41.25 4.6875 41.1539 4.6875 41.0578C4.6875 40.9234 4.69531 40.789 4.71094 40.6547L5.53047 33.6851L3.97891 33.5031L3.15937 40.4719Z" fill="white"/>
<path d="M27.2739 33.6357L28.8257 33.4528L29.0085 35.0046L27.4568 35.1874L27.2739 33.6357Z" fill="white"/>
<path d="M26.5488 27.42L28.1006 27.2371L28.2834 28.7889L26.7317 28.9717L26.5488 27.42Z" fill="white"/>
<path d="M26.9082 30.533L28.46 30.3501L28.6428 31.9019L27.091 32.0847L26.9082 30.533Z" fill="white"/>
<path d="M13.2812 16.4062H14.8438V17.9688H13.2812V16.4062Z" fill="white"/>
</svg>
