<svg width="26" height="49" viewBox="0 0 26 49" fill="none" xmlns="http://www.w3.org/2000/svg">
<path d="M16.625 9.375H21.6875L25.4375 4.6875L21.6875 0H0.218751V9.375H8.8125V15.625H3.75L0 20.3125L3.75 25H8.8125V41.868H10.375V25H15.0625V40.3172H16.625V25H25.2187V15.625H16.625V9.375ZM1.78125 1.5625H20.9375L23.4375 4.6875L20.9375 7.8125H1.78125V1.5625ZM10.375 9.375H15.0625V15.625H10.375V9.375ZM23.6562 23.4375H4.5L2 20.3125L4.5 17.1875H23.6562V23.4375Z" fill="white"/>
<path d="M11.9375 26.5625H13.5V28.125H11.9375V26.5625Z" fill="white"/>
<path d="M11.9375 29.6875H13.5V31.25H11.9375V29.6875Z" fill="white"/>
<path d="M11.9375 32.8125H13.5V34.375H11.9375V32.8125Z" fill="white"/>
<path d="M20.5312 20.3125H22.0938V21.875H20.5312V20.3125Z" fill="white"/>
<path d="M17.4062 20.3125H18.9688V21.875H17.4062V20.3125Z" fill="white"/>
<path d="M14.2812 20.3125H15.8438V21.875H14.2812V20.3125Z" fill="white"/>
<path d="M6.46875 3.125H8.03125V4.6875H6.46875V3.125Z" fill="white"/>
<path d="M9.59375 3.125H11.1562V4.6875H9.59375V3.125Z" fill="white"/>
<path d="M24.9772 45.207C24.6272 41.7047 21.7085 39.0625 18.1874 39.0625C15.6561 39.0625 13.3452 40.4914 12.1733 42.6633C10.9038 41.3984 9.15537 40.625 7.2499 40.625C3.73896 40.625 0.763183 43.2523 0.328026 46.7359L0.114746 48.4375H25.3007L24.9772 45.207Z" fill="#11B687"/>
<path d="M4.125 44.5312H5.6875V46.0938H4.125V44.5312Z" fill="white"/>
<path d="M7.25 42.9688H8.8125V44.5312H7.25V42.9688Z" fill="white"/>
<path d="M15.0625 44.5312H16.625V46.0938H15.0625V44.5312Z" fill="white"/>
<path d="M17.4062 42.1875H18.9688V43.75H17.4062V42.1875Z" fill="white"/>
<path d="M20.5312 43.75H22.0938V45.3125H20.5312V43.75Z" fill="white"/>
<path d="M3.34375 3.125H4.90625V4.6875H3.34375V3.125Z" fill="white"/>
</svg>
