<svg width="53" height="53" fill="none" xmlns="http://www.w3.org/2000/svg"><g clip-path="url(#clip0)"><path d="M52.998 36.61l.001-.037v-.008a.888.888 0 00-.003-.058l-.003-.029c-.001-.016-.004-.033-.007-.05l-.007-.036c-.002-.013-.006-.026-.01-.039l-.013-.046-.01-.029a.857.857 0 00-.02-.052l-.004-.008-9.08-19.977v-2.619h.057c.978 0 1.774-.796 1.774-1.774v-.136c0-.876-.627-1.612-1.492-1.752L29.19 7.54V6.005a3.59 3.59 0 00.916-2.398A3.61 3.61 0 0026.499 0a3.61 3.61 0 00-3.606 3.606c0 .92.347 1.76.916 2.398v1.453l-15.001 2.5a1.769 1.769 0 00-1.483 1.75v.14c0 .98.796 1.775 1.775 1.775h.057v2.619L.077 36.218l-.004.008a.902.902 0 00-.02.052l-.011.03a.333.333 0 00-.013.045l-.01.04-.007.035a.461.461 0 00-.007.05l-.003.029a.91.91 0 00-.003.058v.008L0 36.61c0 .01 0 .02.002.03.053 3.53 4.431 6.288 10.013 6.288s9.96-2.757 10.014-6.288l.001-.03.002-.035v-.008a.824.824 0 00-.004-.059l-.002-.028-.008-.05c-.002-.013-.003-.025-.006-.037l-.01-.039-.013-.045-.01-.03a.83.83 0 00-.021-.052c-.002-.002-.002-.005-.003-.008l-9.081-19.977v-2.619h12.935v18.653a1.775 1.775 0 00-.916 1.551v12.648l-5.438 1.7a2.679 2.679 0 00-1.888 2.567v1.4c0 .475.384.859.859.859h20.147a.858.858 0 00.858-.858V50.74a2.679 2.679 0 00-1.887-2.568l-5.439-1.7V33.827c0-.667-.37-1.248-.916-1.551V13.622h12.935v2.619l-9.08 19.977-.004.008a.891.891 0 00-.02.052.176.176 0 00-.01.03c-.006.015-.01.03-.014.045l-.01.04-.006.035-.008.05-.002.03a.949.949 0 00-.003.057v.008l.001.036.001.03c.054 3.53 4.432 6.288 10.014 6.288 5.582 0 9.96-2.757 10.014-6.288v-.03zM10.015 18.5l7.825 17.214H2.19L10.015 18.5zm0 22.708c-3.975 0-7.405-1.657-8.15-3.777h16.3c-.744 2.12-4.174 3.777-8.15 3.777zm18.373-7.383v12.42H24.61v-12.42c0-.032.026-.057.058-.057h3.663c.031 0 .057.026.057.057zm-2.862-1.774V7.077a3.593 3.593 0 001.946 0v24.975h-1.946zM26.5 1.717a1.89 1.89 0 011.889 1.889A1.89 1.89 0 0126.5 5.495a1.89 1.89 0 01-1.889-1.89 1.89 1.89 0 011.89-1.888zM9.1 11.905a.057.057 0 01-.057-.057v-.14c0-.028.02-.052.048-.057l14.72-2.453v2.707H9.1zm26.615 38.836v.542h-18.43v-.542a.97.97 0 01.683-.929l5.916-1.849h5.233l5.915 1.849c.409.128.683.5.683.929zM29.189 9.28l14.719 2.374a.057.057 0 01.048.057v.136a.057.057 0 01-.057.057h-14.71V9.28zm13.794 9.22l7.824 17.214H35.16L42.983 18.5zm0 22.708c-3.975 0-7.405-1.657-8.15-3.777h16.3c-.745 2.12-4.175 3.777-8.15 3.777z" fill="#151F59"/></g><defs><clipPath id="clip0"><path fill="#fff" d="M0 0h53v53H0z"/></clipPath></defs></svg>