<svg width="55" height="55" fill="none" xmlns="http://www.w3.org/2000/svg"><g clip-path="url(#clip0)"><path d="M54.195 26.694h-4.2V15.908a.806.806 0 10-1.611 0v10.786h-1.726V1.611h1.726v16.083a.806.806 0 101.611 0V.806A.806.806 0 0049.19 0h-3.337a.806.806 0 00-.806.806v2.531H34.175a.806.806 0 00-.806.806v2.531h-9.204c-.724.15-.948.567-.67 1.253l3.038 4.558-3.039 4.558c-.277.685-.053 1.102.67 1.252h13.31c.445 0 .806-.36.806-.806v-2.53h6.767v11.735h-4.199a.806.806 0 00-.806.806v5.867h-7.236c-.445 0 .194.361.194.806 0 .445-.64.806-.194.806h7.236v18.41H28.307v-18.41h4.112a.806.806 0 100-1.612H27.5a.806.806 0 00-.806.806v5.868h-12.54a.806.806 0 00-.806.806v5.868H4.306a.806.806 0 100 1.61h9.042v5.064H1.612v-5.063h3.613a.806.806 0 100-1.611H.807A.806.806 0 000 47.52v6.674c0 .445.36.806.806.806h53.388c.445 0 .806-.36.806-.806V27.5a.806.806 0 00-.806-.806zm-17.527-10.01H25.67l2.501-3.753a.805.805 0 000-.893L25.67 8.285h7.699v5.868c0 .445.36.806.806.806h2.493v1.725zm-1.688-3.337V4.948h10.067v8.4H34.98zM14.96 41.653h11.735v11.736H14.96V41.653zm38.43 11.736H41.653V28.306h11.735v25.082z" fill="#151F59"/></g><defs><clipPath id="clip0"><path fill="#fff" d="M0 0h55v55H0z"/></clipPath></defs></svg>