<svg width="50" height="50" fill="none" xmlns="http://www.w3.org/2000/svg"><path d="M49.29 32.63a5.237 5.237 0 00-3.602-2.51 5.228 5.228 0 00-1.323-1.838 5.238 5.238 0 00-5.09-1.067 5.178 5.178 0 00-1.991 1.195l-7.448 7.135c.048-.28.073-.565.073-.853a4.996 4.996 0 00-1.473-3.556 4.993 4.993 0 00-3.557-1.474h-5.263a6.657 6.657 0 00-5.802-3.346c-2.98-.066-4.824 2.217-5.66 3.346a.732.732 0 00.836 1.204c.877-.61 1.843-2.95 4.824-3.085a5.207 5.207 0 014.705 2.936c.123.251.378.41.658.41h5.702c.953 0 1.848.37 2.52 1.044a3.541 3.541 0 011.045 2.52 3.554 3.554 0 01-1.341 2.79c-.526.5-1.215.775-1.94.775h-9.358a.732.732 0 000 1.465h9.358c.993 0 1.94-.34 2.703-.964.239-.018.955.055 1.165-.072l14.123-6.806a3.719 3.719 0 011.627-.374c1.33 0 2.574.713 3.244 1.863.531.91.656 1.968.351 2.977a3.713 3.713 0 01-1.94 2.284l-13.626 6.68a14.37 14.37 0 01-6.292 1.46H8.578V33.018c0-.836.19-1.634.567-2.373a.732.732 0 10-1.305-.665 6.71 6.71 0 00-.686 2.306H.733A.732.732 0 000 33.02v14.483c0 .404.328.732.732.732h25.786c2.391 0 4.79-.556 6.937-1.609l13.626-6.68a5.232 5.232 0 002.697-3.176 5.233 5.233 0 00-.488-4.139zm-6.772-2.07l-10.785 5.196 6.564-6.288a3.725 3.725 0 011.431-.86 3.768 3.768 0 014.29 1.49 5.201 5.201 0 00-1.5.461zM7.112 46.77H1.465V33.75h5.647v13.02zm8.678-27.74a2.477 2.477 0 00-3.224-.983l-2.524 1.235c-.613.3-1.078.846-1.277 1.498a2.479 2.479 0 00.223 1.956l.322.558a2.48 2.48 0 002.137 1.234c.488 0 .971-.144 1.381-.42l2.332-1.568a2.478 2.478 0 00.76-3.285l-.13-.224zm-1.448 2.294l-2.332 1.569a.995.995 0 01-.787.145.995.995 0 01-.644-.477l-.322-.557a.995.995 0 01-.09-.796.995.995 0 01.519-.61l2.524-1.235a1.008 1.008 0 011.312.4l.13.225a1.008 1.008 0 01-.31 1.336zm-7.576-6.05a2.48 2.48 0 001.855.66l2.803-.193a2.478 2.478 0 002.301-2.464v-.26a2.478 2.478 0 00-2.3-2.464l-2.804-.192a2.481 2.481 0 00-1.855.659 2.479 2.479 0 00-.785 1.805v.644c0 .682.286 1.34.785 1.805zm.68-2.449c0-.281.114-.542.32-.734a.994.994 0 01.754-.269l2.804.193c.525.036.936.476.936 1.002v.26c0 .526-.411.966-.936 1.002l-2.804.193a.995.995 0 01-.754-.268.995.995 0 01-.32-.735v-.644zm2.596-5.813l2.524 1.235a2.477 2.477 0 003.225-.984l.13-.224a2.477 2.477 0 00-.761-3.285l-2.332-1.568a2.477 2.477 0 00-1.936-.357A2.478 2.478 0 009.31 3.001l-.322.557a2.479 2.479 0 00-.223 1.956 2.478 2.478 0 001.277 1.498zm.215-2.722l.322-.557a.995.995 0 01.873-.503.99.99 0 01.558.172l2.332 1.568c.437.294.573.88.31 1.337l-.13.224c-.263.456-.84.632-1.312.4l-2.524-1.235a.995.995 0 01-.52-.61.996.996 0 01.091-.796zm35.425 14.992l-2.523-1.235a2.478 2.478 0 00-3.225.984l-.13.224a2.477 2.477 0 00.76 3.285l2.333 1.568a2.479 2.479 0 001.935.357 2.478 2.478 0 001.582-1.171l.322-.558a2.48 2.48 0 00.224-1.955 2.479 2.479 0 00-1.278-1.499zm-.215 2.722l-.322.557a.995.995 0 01-.643.477.995.995 0 01-.788-.145l-2.332-1.569a1.008 1.008 0 01-.31-1.336l.13-.225c.264-.456.84-.632 1.313-.4l2.524 1.235c.253.124.437.34.52.61.081.27.05.552-.092.796zm-3.469-8.986v.259A2.477 2.477 0 0044.3 15.74l2.803.192a2.468 2.468 0 002.64-2.464v-.643c0-.682-.287-1.34-.785-1.806a2.479 2.479 0 00-1.855-.659l-2.803.192a2.477 2.477 0 00-2.301 2.465zm5.205-1.196a.995.995 0 01.755.269c.206.192.32.453.32.734v.644a.995.995 0 01-.32.735.994.994 0 01-.755.268L44.4 14.28a1.008 1.008 0 01-.937-1.003v-.26c0-.526.412-.966.937-1.002l2.803-.193zm-7.27-4.559a2.477 2.477 0 003.225.984l2.524-1.235a2.48 2.48 0 001.277-1.498 2.478 2.478 0 00-.224-1.956l-.321-.557a2.479 2.479 0 00-1.582-1.172 2.478 2.478 0 00-1.936.357l-2.332 1.568a2.477 2.477 0 00-.76 3.285l.13.224zm1.449-2.293l2.332-1.57a.995.995 0 01.787-.145.995.995 0 01.644.477l.322.557c.14.244.173.527.09.796a.995.995 0 01-.519.61L42.514 6.93a1.008 1.008 0 01-1.312-.4l-.13-.225a1.008 1.008 0 01.31-1.336zM22.35 13.147l-3.475 3.475a2.462 2.462 0 000 3.475l2.234 2.232c.463.464 1.08.72 1.737.72s1.274-.256 1.737-.72l3.475-3.474 3.474 3.474a2.44 2.44 0 001.738.72c.656 0 1.273-.256 1.737-.72l2.234-2.233a2.462 2.462 0 000-3.475l-3.475-3.474 3.475-3.474a2.462 2.462 0 000-3.475l-2.234-2.232a2.44 2.44 0 00-1.737-.72c-.657 0-1.274.255-1.738.72l-2.611 2.566a.732.732 0 101.036 1.036l.334-.335c.187-.187 2.714-2.523 2.979-2.523.264 0 .513.103.701.291l2.233 2.232a.995.995 0 010 1.404l-3.992 3.992a.732.732 0 000 1.036l3.992 3.992a.995.995 0 010 1.404l-2.233 2.233a.984.984 0 01-.701.29.984.984 0 01-.702-.29L28.576 17.3a.732.732 0 00-1.036 0l-3.993 3.993a.984.984 0 01-.7.29.984.984 0 01-.702-.291l-2.233-2.232a.995.995 0 010-1.404l3.992-3.992a.732.732 0 000-1.036l-3.992-3.991a.995.995 0 010-1.404L22.145 5a.984.984 0 01.701-.29c.265 0 .514.102.702.29l3.992 3.992a.732.732 0 001.036 0l1.587-1.587a.732.732 0 10-1.036-1.036l-1.069 1.069-3.474-3.473a2.44 2.44 0 00-1.737-.72c-.657 0-1.274.255-1.738.72l-2.234 2.232a2.462 2.462 0 000 3.475l3.475 3.474z" fill="#151F59"/></svg>