<svg width="54" height="54" fill="none" xmlns="http://www.w3.org/2000/svg"><g clip-path="url(#clip0)" fill="#151F59"><path d="M1.324 33.651c.296.206.609.387.935.54.389.2 1.04.532 1.086.765.057.308.02.626-.106.912a10.02 10.02 0 01-.396.749c-.33.582-.88 1.558-.05 2.237.195.18.53.44.837.675a2.267 2.267 0 00-.293 1.3c.048.355.241.676.534.884.2.141.413.264.624.383.532.304.74.445.81.727.05.362.019.73-.09 1.08-.053.24-.105.481-.135.72-.09.82.012 1.65.296 2.424A3.372 3.372 0 008.559 49.5c.248-.001.495-.027.738-.079a68.31 68.31 0 007.588-2.27c2.028 1.19 3.308 4.807 3.642 6.165a.9.9 0 00.874.684l22.59-.063a.9.9 0 00.857-1.17 6.946 6.946 0 00-.912-1.71 8.426 8.426 0 01-.582-.974 17.022 17.022 0 01-1.016-2.56 30.384 30.384 0 01-1.057-5.265.9.9 0 10-1.785.22c.208 1.89.583 3.757 1.122 5.58.296.967.67 1.91 1.117 2.817a10 10 0 00.697 1.176l.06.09-20.41.059a14.336 14.336 0 00-3.168-5.748l.81-.283c.603-.21 1.057-.37 1.29-.444 3.856-1.22 5.784-2.975 5.731-5.22a.876.876 0 00-.916-.878.9.9 0 00-.878.92c.021.926-.737 2.277-4.479 3.46-.244.08-.713.243-1.337.46-.669.235-1.52.532-2.457.85h-.006a70.032 70.032 0 01-7.74 2.34 1.593 1.593 0 01-1.852-1.2 3.579 3.579 0 01-.212-1.605c.023-.189.067-.376.108-.564.183-.623.21-1.281.078-1.916a2.99 2.99 0 00-1.666-1.84l-.187-.107a3.37 3.37 0 01.347-.556.9.9 0 00-.172-1.282c-.216-.158-.726-.54-1.098-.84.043-.079.09-.165.135-.243.141-.248.302-.536.46-.869.285-.63.368-1.334.24-2.014-.216-1.098-1.267-1.636-2.035-2.029a5.115 5.115 0 01-.74-.43 3.825 3.825 0 01-.54-.438c0-.136.146-.466.832-1.302a36.206 36.206 0 004.12-6.69c.212-.372.331-.79.348-1.218a3.15 3.15 0 00-1.315-2.25c-.365-.334-.708-.649-.747-.94.006-.213.053-.423.14-.618.147-.386.316-.764.486-1.143.37-.76.664-1.556.88-2.373l.09-.384c.191-.9.437-1.787.736-2.656a15.435 15.435 0 013.23-5.275c1.721-1.822 4.431-3.11 8.067-3.833a58.502 58.502 0 018.444-1.217 19.195 19.195 0 014.236.24.9.9 0 00.308-1.773 20.902 20.902 0 00-4.638-.265 60.07 60.07 0 00-8.705 1.25c-4.058.81-7.008 2.233-9.021 4.36a17.244 17.244 0 00-3.61 5.889c-.324.94-.59 1.9-.797 2.874l-.09.38c-.192.705-.45 1.392-.77 2.05-.18.41-.367.82-.528 1.245-.207.473-.29.992-.239 1.506.182.806.648 1.52 1.313 2.01.44.404.729.688.732.936a1.494 1.494 0 01-.154.391 34.724 34.724 0 01-3.942 6.405c-.65.793-1.332 1.718-1.187 2.642.19.715.662 1.323 1.307 1.686z"/><path d="M10.05 16.014l.09-.4a20.06 20.06 0 01.6-2.213 11.86 11.86 0 012.47-4.05 9.423 9.423 0 014.147-2.278.9.9 0 10-.524-1.722 11.146 11.146 0 00-4.932 2.764 13.663 13.663 0 00-2.847 4.665 21.43 21.43 0 00-.667 2.438l-.09.39a.9.9 0 101.752.406zm14.25 2.175a12.335 12.335 0 003.04 8.361c.636.66 1.329 1.262 2.07 1.8 1.317 1.018 2.565 1.99 2.896 3.344a2.7 2.7 0 00-1.707 2.506V36a2.7 2.7 0 001.8 2.535v.165a3.6 3.6 0 107.2 0v-.166A2.7 2.7 0 0041.4 36v-1.8a2.7 2.7 0 00-1.71-2.506c.33-1.35 1.579-2.326 2.896-3.344a15.522 15.522 0 002.07-1.8 12.342 12.342 0 003.044-8.361C47.674 11.707 42.481 6.429 36 6.3c-6.48.129-11.675 5.407-11.7 11.889zm9 1.611h-.9a.9.9 0 11.9-.9v.9zm3.6 11.7h-1.8v-9.9h1.8v9.9zm-.9 9a1.8 1.8 0 01-1.8-1.8h3.6a1.8 1.8 0 01-1.8 1.8zm3.6-4.5a.9.9 0 01-.9.9h-5.4a.9.9 0 01-.9-.9v-1.8a.9.9 0 01.9-.9h5.4a.9.9 0 01.9.9V36zm6.3-17.783a10.524 10.524 0 01-2.577 7.127 14.063 14.063 0 01-1.834 1.581 12.6 12.6 0 00-2.79 2.663V21.6h.9a2.7 2.7 0 10-2.7-2.7v.9h-1.8v-.9a2.7 2.7 0 10-2.7 2.7h.9v7.988a12.589 12.589 0 00-2.785-2.662 14.079 14.079 0 01-1.834-1.582 10.518 10.518 0 01-2.58-7.127C26.19 12.732 30.717 8.1 36 8.1c5.28 0 9.814 4.632 9.9 10.117zM38.7 19.8v-.9a.9.9 0 11.9.9h-.9zm11.699-.9h2.7a.9.9 0 100-1.8h-2.7a.9.9 0 000 1.8zM46.181 8.718a.9.9 0 00.637-.264l1.91-1.91a.9.9 0 10-1.273-1.272l-1.91 1.909a.9.9 0 00.636 1.537zM36 4.5a.9.9 0 00.9-.9V.9a.9.9 0 10-1.8 0v2.7a.9.9 0 00.9.9zm-9.546 3.954a.9.9 0 000-1.273l-1.91-1.909a.9.9 0 10-1.272 1.273l1.909 1.91a.9.9 0 001.273 0zM18.9 17.1a.9.9 0 000 1.8h2.7a.9.9 0 100-1.8h-2.7z"/></g><defs><clipPath id="clip0"><path fill="#fff" d="M0 0h54v54H0z"/></clipPath></defs></svg>