<svg width="56" height="56" fill="none" xmlns="http://www.w3.org/2000/svg"><g clip-path="url(#clip0)" fill="#151F59"><path d="M25.713 49.708h-8.379c-.196-2.24-.902-2.778-3.008-4.094a53.325 53.325 0 01-2.43-1.592 6.033 6.033 0 01-1.802-2.36L5.636 31.25c-.28-.655 0-1.134.401-1.318.382-.175.922-.09 1.295.675l.01.021 2.884 5.485c.45.856 1.041 1.415 1.613 1.956a20.55 20.55 0 01.598.58l4.238 3.78a.819.819 0 00.056.046c1.181.88 2.391.514 3.016-.198.648-.74.823-1.982-.092-2.93-.445-.48-.737-.819-1.075-1.211-.222-.257-.474-.55-.802-.92-.643-.73-.742-1.489-.258-1.979.425-.43 1.245-.581 2.06.084l3.8 4.579c1.229 1.48 1.229 3.944 1.229 6.119 0 .247 0 .49.002.726a.82.82 0 00.82.814h.007a.82.82 0 00.814-.827c-.002-.232-.002-.47-.002-.713 0-2.331 0-5.231-1.608-7.167l-3.847-4.636a.804.804 0 00-.097-.098c-1.556-1.336-3.364-1.028-4.345-.034-.926.938-1.225 2.605.195 4.218.323.364.57.652.789.905a41.013 41.013 0 001.135 1.277c.34.35.073.676.041.712-.187.213-.461.207-.776-.017l-4.188-3.736c-.2-.204-.395-.388-.583-.565-.539-.51-.964-.913-1.288-1.528L8.8 29.875c-.832-1.69-2.368-1.929-3.446-1.434-1.097.502-1.9 1.884-1.226 3.455L8.586 42.31a7.609 7.609 0 002.355 3.048 54.535 54.535 0 002.516 1.648c1.787 1.117 2.135 1.335 2.247 2.836a1.765 1.765 0 00-1.092 1.63v2.764c0 .973.79 1.765 1.763 1.765h9.338c.972 0 1.763-.792 1.763-1.765V51.47c0-.972-.79-1.763-1.763-1.763zm.122 4.527a.127.127 0 01-.122.124h-9.338a.127.127 0 01-.122-.124V51.47c0-.065.057-.122.122-.122h9.338c.065 0 .122.057.122.122v2.764zM51.342 28.44c-1.079-.494-2.615-.254-3.445 1.435l-2.878 5.475c-.323.615-.749 1.017-1.288 1.527-.187.178-.382.362-.583.566l-4.188 3.736c-.314.223-.589.23-.776.016a.503.503 0 01.04-.712l.012-.013a41.62 41.62 0 001.157-1.302c.213-.247.448-.52.754-.867 1.421-1.611 1.123-3.279.198-4.217-.982-.994-2.79-1.302-4.345.033a.812.812 0 00-.097.099l-3.848 4.636c-1.608 1.936-1.608 4.836-1.608 7.166v.513a.82.82 0 00.816.823h.004a.82.82 0 00.82-.817v-.519c0-2.174 0-4.638 1.23-6.118l3.801-4.58c.814-.665 1.634-.514 2.06-.083.483.49.383 1.248-.261 1.978-.311.353-.55.63-.767.882-.363.421-.65.755-1.111 1.25-.913.949-.737 2.191-.088 2.93.624.712 1.835 1.078 3.016.198a.838.838 0 00.056-.045l4.238-3.78a.828.828 0 00.04-.038c.186-.19.375-.37.558-.543.572-.54 1.163-1.1 1.612-1.956l2.884-5.485.011-.022c.372-.763.912-.849 1.293-.674.403.184.684.663.403 1.318L46.6 41.663a5.973 5.973 0 01-1.8 2.358 53.16 53.16 0 01-2.43 1.593c-2.105 1.316-2.81 1.853-3.006 4.094h-8.379c-.972 0-1.763.79-1.763 1.762v2.764c0 .974.79 1.766 1.763 1.766h9.338c.972 0 1.763-.792 1.763-1.766V51.47c0-.734-.452-1.364-1.093-1.629.112-1.501.46-1.72 2.246-2.836.662-.414 1.486-.93 2.515-1.649a7.55 7.55 0 002.355-3.048l4.461-10.412c.673-1.572-.13-2.954-1.228-3.456zM40.445 54.235a.127.127 0 01-.122.124h-9.339a.127.127 0 01-.122-.124V51.47c0-.065.057-.122.122-.122h9.339c.065 0 .122.057.122.122v2.764zM55.18 10.554h-3.922a.82.82 0 000 1.641h3.922a.82.82 0 000-1.64zm-5.547-4.68a.817.817 0 00.502-.172l3.255-2.52a.82.82 0 00-1.004-1.297l-3.255 2.52a.82.82 0 00.502 1.469zm3.757 13.69l-3.255-2.52a.82.82 0 10-1.004 1.298l3.255 2.52a.82.82 0 101.004-1.297zM5.56 11.375a.82.82 0 00-.82-.82H.82a.82.82 0 000 1.64h3.92a.82.82 0 00.82-.82zM2.606 3.183l3.256 2.519a.819.819 0 101.004-1.297L3.61 1.885a.82.82 0 10-1.004 1.298zm4.407 14.008a.82.82 0 00-1.151-.146l-3.256 2.519a.82.82 0 101.005 1.297l3.255-2.519a.82.82 0 00.147-1.15zm22.986 12.753a.82.82 0 100 1.64h6.824c.75 0 1.36-.61 1.36-1.36v-1.772c0-.879-.151-1.608-.41-2.22h8.54c.751 0 1.363-.61 1.363-1.359v-1.772c0-3.65-2.586-4.73-4.826-5.37a51.8 51.8 0 00-.788-.216l-.437-.117c-.216-.06-.376-.338-.497-.62 2.227-1.502 3.888-4.091 3.888-6.348V8.378c0-2.528-.808-4.675-2.337-6.206C41.312.802 39.472.031 37.5 0h-.027c-2.937.049-6.162 1.85-7.188 5.737a7.642 7.642 0 00-2.305-.385 7.638 7.638 0 00-2.279.386C24.672 1.85 21.448.048 18.513 0h-.027c-1.973.031-3.813.802-5.18 2.172-1.528 1.531-2.336 3.678-2.336 6.206v2.052c0 2.257 1.66 4.847 3.887 6.35-.12.28-.28.559-.495.618l-.439.118c-.212.056-.43.114-.653.177a.832.832 0 00-.143.04c-2.238.64-4.817 1.723-4.817 5.368v1.772c0 .75.61 1.36 1.36 1.36h8.543c-.26.61-.41 1.34-.41 2.22v1.772c0 .75.61 1.36 1.36 1.36h7.143a.82.82 0 100-1.641h-6.862v-1.492c0-2.288 1.25-3.068 3.367-3.71l3.84 2.253c.483.309.912.463 1.341.463.43 0 .859-.155 1.34-.463l3.842-2.254c2.117.643 3.368 1.423 3.368 3.712v1.491h-6.543zM43.375 10.43c0 2.139-2.1 4.794-4.494 5.682-1.031.383-1.762.383-2.792 0a5.993 5.993 0 01-.569-.247l.002-.084V13.73c0-2.288-.663-4.26-1.921-5.75.069-.067.133-.133.194-.195.423-.432.5-.51.959-.391.329.085.61.16.855.225.873.233 1.353.362 1.877.362.521 0 1-.128 1.87-.36.246-.066.529-.142.859-.227.46-.119.536-.041.96.39.422.43 1.026 1.043 2.2 1.303v1.343zm-2.78 8.277l-2.615 1.529a.978.978 0 00-.032.02c-.433.28-.494.28-.927 0a.678.678 0 00-.032-.02l-2.353-1.379c.24-.434.438-.88.585-1.325.098.041.196.081.296.118.699.26 1.333.39 1.967.39.635 0 1.27-.13 1.968-.39.076-.028.152-.059.228-.09.187.4.466.845.916 1.147zM37.486 1.64c2.62.047 5.42 1.862 5.836 5.725-.43-.174-.691-.44-.977-.73-.49-.501-1.163-1.186-2.54-.83-.336.086-.622.163-.872.23-.76.202-1.141.304-1.447.304-.308 0-.691-.102-1.453-.306l-.869-.229c-1.377-.355-2.05.33-2.54.832a9.633 9.633 0 01-.215.213 7.352 7.352 0 00-.607-.412c.735-3.249 3.328-4.753 5.684-4.797zm-9.493 5.351c2.62.05 5.418 1.867 5.835 5.725-.43-.173-.69-.438-.975-.729-.396-.404-.91-.928-1.822-.928-.216 0-.455.03-.72.097-.331.086-.615.162-.862.228-.764.204-1.147.307-1.456.307-.31 0-.693-.103-1.456-.307-.248-.066-.531-.142-.865-.229-1.378-.352-2.05.332-2.54.832-.285.29-.545.556-.975.73.417-3.86 3.216-5.676 5.836-5.726zm5.889 7.447v1.342c0 2.14-2.1 4.795-4.495 5.683-1.03.384-1.76.384-2.79 0-2.394-.888-4.493-3.543-4.493-5.683v-1.34c1.173-.26 1.777-.872 2.2-1.302.423-.432.5-.51.96-.392.325.085.605.16.849.225.873.234 1.355.362 1.88.362.524 0 1.006-.129 1.88-.362.243-.065.523-.14.847-.224.462-.119.538-.04.962.391.422.43 1.026 1.042 2.2 1.302zM18.499 1.64c2.354.044 4.946 1.548 5.683 4.797-.208.126-.41.264-.606.412a10.31 10.31 0 01-.214-.213c-.491-.5-1.164-1.188-2.545-.832-.331.086-.615.162-.862.228-.764.205-1.147.307-1.456.307-.306 0-.687-.102-1.447-.305-.25-.067-.536-.143-.873-.23-1.376-.353-2.048.331-2.539.83-.285.292-.546.557-.977.73.417-3.861 3.216-5.677 5.836-5.724zm-5.889 8.79V9.089c1.176-.26 1.779-.873 2.201-1.304.424-.431.5-.509.96-.391.33.085.612.16.857.226.87.233 1.35.36 1.871.36.525 0 1.006-.128 1.88-.362.244-.065.523-.14.849-.224.462-.12.538-.041.963.392l.193.195c-1.258 1.489-1.921 3.461-1.921 5.749v2.051l.002.084a5.949 5.949 0 01-.572.248c-1.03.383-1.759.383-2.79 0-2.393-.889-4.493-3.544-4.493-5.683zm8.738 8.426l-2.352 1.38a.743.743 0 00-.032.02c-.433.28-.493.28-.927 0a.688.688 0 00-.031-.02l-2.614-1.532c.446-.303.726-.75.911-1.144.076.032.153.062.23.09 1.396.52 2.536.52 3.931 0 .1-.037.2-.077.3-.118.146.446.344.89.584 1.324zm2.504 3.893l-.437.118c-1.29.344-2.84.759-3.983 1.725H9.95v-1.491c0-2.288 1.25-3.068 3.369-3.711l3.841 2.252c.963.62 1.718.62 2.68 0l2.43-1.425a9.699 9.699 0 002.08 1.913c-.12.281-.28.56-.498.62zm4.634 2.839a.685.685 0 00-.031.02c-.437.283-.49.283-.929-.001a.575.575 0 00-.03-.019l-2.613-1.533c.447-.303.728-.75.913-1.144.076.031.153.062.23.09.698.261 1.333.391 1.967.391.634 0 1.267-.13 1.965-.39.078-.028.154-.06.231-.09.185.393.466.84.913 1.143l-2.616 1.533zm4.085-2.721l-.437-.117c-.218-.06-.378-.34-.5-.62a9.702 9.702 0 002.08-1.912l2.43 1.425c.482.31.911.464 1.34.464.43 0 .86-.155 1.34-.464l3.85-2.25c2.113.642 3.361 1.422 3.361 3.708v1.491h-9.481c-1.144-.966-2.693-1.38-3.983-1.725z"/></g><defs><clipPath id="clip0"><path fill="#fff" d="M0 0h56v56H0z"/></clipPath></defs></svg>