<svg width="57" height="57" fill="none" xmlns="http://www.w3.org/2000/svg"><g clip-path="url(#clip0)"><path d="M55.825 32.322l-7.668-5.628a.76.76 0 00-.038-.026c-.724-.472-1.587-.525-2.31-.143-.737.391-1.188 1.18-1.205 2.108v1.661h-9.898c-.605 0-1.172.163-1.661.446v-5.837a.835.835 0 00-1.67 0v26.033h-5.752V15.293a.835.835 0 00-.835-.835h-1.521c-.28-.007-.484-.104-.573-.272-.079-.148-.061-.334.048-.51l5.284-7.198a.759.759 0 00.043-.064c.132-.22.293-.35.431-.35.137 0 .297.13.428.348a.83.83 0 00.043.066l5.286 7.198c.11.176.127.36.05.508-.09.167-.299.267-.576.274H32.21a.835.835 0 00-.835.835v11.942a.835.835 0 001.67 0V16.128h.712c.893-.018 1.65-.453 2.025-1.163.368-.694.316-1.523-.137-2.217a.702.702 0 00-.026-.038l-5.28-7.191c-.442-.715-1.11-1.125-1.837-1.125H28.5c-.728 0-1.397.409-1.84 1.124l-5.281 7.192a.813.813 0 00-.028.04c-.451.695-.5 1.524-.133 2.218.376.709 1.132 1.142 2.023 1.16h.712v6.997a3.309 3.309 0 00-1.661-.446h-9.898v-1.656c-.015-.93-.465-1.718-1.203-2.11-.724-.385-1.588-.332-2.313.14a.68.68 0 00-.038.026l-7.668 5.628C.427 25.17 0 25.863 0 26.62c0 .758.425 1.454 1.171 1.918l7.67 5.629c.012.01.024.018.037.026.725.473 1.59.525 2.313.14.738-.392 1.188-1.18 1.203-2.11v-1.656h4.136v14.79a.835.835 0 001.67 0V29.732a.835.835 0 00-.835-.835H11.56a.835.835 0 00-.835.835v2.47c-.007.319-.12.552-.317.657-.177.094-.395.074-.6-.054L2.13 27.17a.888.888 0 00-.062-.041c-.25-.152-.4-.342-.4-.509 0-.166.15-.354.399-.504a.837.837 0 00.063-.042l7.675-5.633c.206-.128.424-.149.6-.055.199.106.311.339.318.658v2.47c0 .46.374.834.835.834H22.29c.916 0 1.662.745 1.662 1.662v24.925H18.2v-6.912a.835.835 0 00-1.67 0v7.747c0 .462.374.835.835.835h22.267a.835.835 0 00.835-.835V38.178h4.137v1.661c.017.93.468 1.719 1.207 2.11.722.383 1.585.33 2.308-.142a.871.871 0 00.038-.026l7.668-5.631c.747-.462 1.175-1.157 1.175-1.914 0-.757-.427-1.452-1.175-1.914zm-.894 2.418a.87.87 0 00-.065.043l-7.675 5.636c-.205.128-.422.148-.598.055-.199-.106-.312-.34-.32-.66v-2.471a.835.835 0 00-.834-.835h-5.807a.835.835 0 00-.835.835v13.593h-5.752v-17.31c0-.917.745-1.662 1.661-1.662H45.44a.835.835 0 00.835-.835v-2.472c.007-.318.12-.551.318-.656.175-.093.393-.073.6.056l7.674 5.633c.021.015.043.03.065.042.25.15.4.339.4.504 0 .166-.15.354-.4.504z" fill="#151F59"/></g><defs><clipPath id="clip0"><path fill="#fff" d="M0 0h57v57H0z"/></clipPath></defs></svg>