<?xml version="1.0" encoding="utf-8"?><svg viewBox="0 0 65 65" xmlns="http://www.w3.org/2000/svg" xmlns:xlink="http://www.w3.org/1999/xlink"><style>:root>svg{display:none}:root>svg:target{display:block}</style><svg fill="none" viewBox="0 0 65 65" id="icon-advantages-2" xmlns="http://www.w3.org/2000/svg"><path d="M22.456 46.4c1.675 1 2.675 2.725 2.675 4.616v5.294a1.069 1.069 0 00.619.965v5.388a1.072 1.072 0 001.073 1.068h11.201a1.072 1.072 0 001.073-1.069v-5.47a1.067 1.067 0 00.47-.882v-5.205a5.324 5.324 0 012.635-4.591 19.235 19.235 0 006.871-6.8A18.765 18.765 0 0046.106 16.8a19.429 19.429 0 00-27.28-.047c-3.62 3.561-5.634 8.275-5.668 13.274a18.75 18.75 0 002.53 9.538 19.23 19.23 0 006.768 6.835zm9.27.544c.004-.561-.063-2.956-.45-4.324l-.914-3.004h3.806c-.527 1.216-.76 3.33-.761 4.28l-.375 11.958h-1.01l-.296-8.91zm5.848 10.434v1.653H27.273v-1.653h10.3zm-10.301 4.83v-1.654h10.3v1.653h-10.3zm-7.38-44.37a17.905 17.905 0 0125.139.042 17.242 17.242 0 012.73 21.057 17.707 17.707 0 01-6.326 6.258 6.851 6.851 0 00-3.393 5.909v4.75h-3.487l.373-11.92v-.025c0-1.087.31-3.2.74-3.891l.226-.365a1.022 1.022 0 00-.874-1.56h-5.328a1.068 1.068 0 00-.934.516 1.054 1.054 0 00.023 1.052l1.03 3.381c.289 1.029.398 3.082.39 3.904v.017l.296 8.891h-3.843v-4.838a6.959 6.959 0 00-3.419-5.924 17.703 17.703 0 01-6.232-6.292 17.223 17.223 0 01-2.323-8.763c.032-4.591 1.883-8.924 5.213-12.198z" fill="url(#apaint0_linear)"/><path d="M52.78 30.012a.762.762 0 00.761.761h6.254a.761.761 0 100-1.523H53.54a.762.762 0 00-.762.762z" fill="url(#apaint1_linear)"/><path d="M5.205 30.773h5.034a.762.762 0 100-1.523H5.205a.762.762 0 000 1.523z" fill="url(#apaint2_linear)"/><path d="M6.467 18.796l5.206 2.395a.762.762 0 00.637-1.383l-5.205-2.396a.762.762 0 00-.637 1.384z" fill="url(#apaint3_linear)"/><path d="M53.053 21.522a.76.76 0 00.318-.07l5.206-2.395a.76.76 0 00.381-1.014.76.76 0 00-1.018-.37l-5.205 2.396a.762.762 0 00.319 1.453z" fill="url(#apaint4_linear)"/><path d="M32.5 9.48a.762.762 0 00.762-.763V2.031a.762.762 0 10-1.524 0v6.686a.762.762 0 00.762.762z" fill="url(#apaint5_linear)"/><path d="M18.329 12.783a.762.762 0 101.069-1.086l-4.612-4.54a.76.76 0 10-1.07 1.086l4.613 4.54z" fill="url(#apaint6_linear)"/><path d="M46.133 13.553a.76.76 0 00.535-.219l4.682-4.608a.761.761 0 00-1.07-1.086l-4.682 4.609a.761.761 0 00.534 1.304z" fill="url(#apaint7_linear)"/><path d="M18.18 31.537a.762.762 0 00.762-.762c0-1.08.127-2.156.38-3.206a.761.761 0 00-1.48-.359 15.148 15.148 0 00-.424 3.565.762.762 0 00.762.762z" fill="url(#apaint8_linear)"/><path d="M19.557 24.594a.763.763 0 001.033-.304 13.562 13.562 0 0111.91-7.073.762.762 0 100-1.524 15.086 15.086 0 00-13.247 7.867.76.76 0 00.304 1.034z" fill="url(#apaint9_linear)"/><defs><linearGradient id="apaint0_linear" x1="17.527" y1="8.879" x2="71.852" y2="33.177" gradientUnits="userSpaceOnUse"><stop offset=".06" stop-color="#05237D"/><stop offset=".973" stop-color="#5882FF"/></linearGradient><linearGradient id="apaint1_linear" x1="53.661" y1="29.183" x2="54.892" y2="33.014" gradientUnits="userSpaceOnUse"><stop offset=".06" stop-color="#05237D"/><stop offset=".973" stop-color="#5882FF"/></linearGradient><linearGradient id="apaint2_linear" x1="5.187" y1="29.183" x2="6.593" y2="32.874" gradientUnits="userSpaceOnUse"><stop offset=".06" stop-color="#05237D"/><stop offset=".973" stop-color="#5882FF"/></linearGradient><linearGradient id="apaint3_linear" x1="6.794" y1="17.174" x2="12.214" y2="22.847" gradientUnits="userSpaceOnUse"><stop offset=".06" stop-color="#05237D"/><stop offset=".973" stop-color="#5882FF"/></linearGradient><linearGradient id="apaint4_linear" x1="53.055" y1="17.428" x2="58.49" y2="23.12" gradientUnits="userSpaceOnUse"><stop offset=".06" stop-color="#05237D"/><stop offset=".973" stop-color="#5882FF"/></linearGradient><linearGradient id="apaint5_linear" x1="31.911" y1=".909" x2="34.456" y2="1.198" gradientUnits="userSpaceOnUse"><stop offset=".06" stop-color="#05237D"/><stop offset=".973" stop-color="#5882FF"/></linearGradient><linearGradient id="apaint6_linear" x1="14.184" y1="6.672" x2="21.704" y2="11.313" gradientUnits="userSpaceOnUse"><stop offset=".06" stop-color="#05237D"/><stop offset=".973" stop-color="#5882FF"/></linearGradient><linearGradient id="apaint7_linear" x1="46.075" y1="7.153" x2="53.676" y2="11.845" gradientUnits="userSpaceOnUse"><stop offset=".06" stop-color="#05237D"/><stop offset=".973" stop-color="#5882FF"/></linearGradient><linearGradient id="apaint8_linear" x1="17.637" y1="26.418" x2="20.717" y2="27.155" gradientUnits="userSpaceOnUse"><stop offset=".06" stop-color="#05237D"/><stop offset=".973" stop-color="#5882FF"/></linearGradient><linearGradient id="apaint9_linear" x1="20.759" y1="15.299" x2="33.22" y2="27.216" gradientUnits="userSpaceOnUse"><stop offset=".06" stop-color="#05237D"/><stop offset=".973" stop-color="#5882FF"/></linearGradient></defs></svg><svg fill="none" viewBox="0 0 65 65" id="icon-advantages-3" xmlns="http://www.w3.org/2000/svg"><path d="M56.784 35.636l-.352.193c-1.28-1.607-3.525-2.234-5.23-1.355l-.018.009-.784.428a5.646 5.646 0 00-6.571-.62l-4.096 2.263h-5.447a7.786 7.786 0 01-3.417-.796l-.748-.368a12.62 12.62 0 00-13.357 1.36l-1.805 1.634a6.287 6.287 0 01-2.424 1.366l-1.043-3.477a.761.761 0 00-.73-.543h-8.73a.763.763 0 00-.756.853l2.91 24.255a.761.761 0 00.757.67H18.04a.762.762 0 00.73-.98l-1.738-5.79 5.402-3.47a3.221 3.221 0 012.432-.305l10.9 2.04c2.956.537 6.006.1 8.692-1.247a.755.755 0 00.093-.056l18.855-13.155a.762.762 0 00.219-1.013 5.083 5.083 0 00-6.84-1.896zm-4.878.188c.981-.5 2.31-.145 3.16.754l-7.235 3.966-.467.25a6.264 6.264 0 00-1.04-1.914l5.582-3.056zm-7.332-.204l.018-.01a4.12 4.12 0 014.347.102L45.18 37.77a6.08 6.08 0 00-2.497-1.105l1.89-1.045zM5.617 59.985L2.89 37.254h7.306l6.82 22.731h-11.4zm38.107-9.566a12.331 12.331 0 01-7.68 1.086L25.167 49.47a4.739 4.739 0 00-3.54.504l-5.052 3.245-3.603-12.01a7.808 7.808 0 003.008-1.695l1.782-1.612a11.103 11.103 0 0111.686-1.144l.748.367a9.32 9.32 0 004.089.952h7.251c2.285 0 4.19 1.696 4.563 3.917l-5.322-.245a30.954 30.954 0 00-5.713.269.762.762 0 00.213 1.508 29.408 29.408 0 015.43-.255l6.186.285h.035a.762.762 0 00.762-.761c0-.148-.007-.294-.017-.439l.883-.473 8.96-4.912a3.555 3.555 0 014.38.767L43.725 50.42z" fill="url(#bpaint0_linear)"/><path d="M8.297 56.503a2.508 2.508 0 102.508-2.536 2.525 2.525 0 00-2.508 2.536zm2.508-1.013a1.013 1.013 0 11-.985 1.013 1 1 0 01.985-1.013z" fill="url(#bpaint1_linear)"/><path d="M36.163 3.491c-7.635 0-13.847 6.205-13.847 13.83 0 7.627 6.212 13.831 13.847 13.831 7.636 0 13.847-6.204 13.847-13.83S43.8 3.492 36.163 3.492zm0 26.138a12.306 12.306 0 1112.324-12.307 12.33 12.33 0 01-12.324 12.307z" fill="url(#bpaint2_linear)"/><path d="M36.51 11.685a2.57 2.57 0 012.484 1.891.761.761 0 101.482-.352 4.115 4.115 0 00-3.352-3.006v-.963a.762.762 0 00-1.523 0v.966a3.387 3.387 0 00-1.823.899c-1.075 1.046-1.139 2.526-1.132 2.955.023 1.65 1.255 3.044 2.993 3.388l.153.03.388.078c.056.01.202.055.264.074a.536.536 0 01.095.037l.24.093a.635.635 0 01.061.028c.113.058.14.075.222.123l.125.074.026.017.026.016c.247.153 1.479.97 1.528 2.16.03.723-.154 1.272-.561 1.678-.625.624-1.631.755-2.13.733a3.014 3.014 0 01-1.434-.534c-.368-.254-.822-.695-.894-1.347a.764.764 0 00-1.127-.594.76.76 0 00-.387.76c.201 1.831 1.965 2.955 3.366 3.192v.815a.762.762 0 001.524 0v-.858a4.172 4.172 0 002.158-1.089c.705-.704 1.054-1.679 1.007-2.818-.079-1.906-1.734-3.075-2.253-3.395a4.113 4.113 0 00-.07-.044l-.127-.076a5.24 5.24 0 00-.3-.166 2.174 2.174 0 00-.21-.095l-.224-.087a2.064 2.064 0 00-.216-.08 4.384 4.384 0 00-.419-.112L36.09 16l-.155-.03c-1.205-.24-1.755-1.135-1.767-1.916-.008-.567.165-1.348.672-1.843.39-.379.951-.557 1.67-.526z" fill="url(#bpaint3_linear)"/><defs><linearGradient id="bpaint0_linear" x1="8.353" y1="32.288" x2="45.404" y2="82.713" gradientUnits="userSpaceOnUse"><stop offset=".06" stop-color="#05237D"/><stop offset=".973" stop-color="#5882FF"/></linearGradient><linearGradient id="bpaint1_linear" x1="8.865" y1="53.747" x2="15.051" y2="57.52" gradientUnits="userSpaceOnUse"><stop offset=".06" stop-color="#05237D"/><stop offset=".973" stop-color="#5882FF"/></linearGradient><linearGradient id="bpaint2_linear" x1="25.456" y1="2.278" x2="59.585" y2="23.12" gradientUnits="userSpaceOnUse"><stop offset=".06" stop-color="#05237D"/><stop offset=".973" stop-color="#5882FF"/></linearGradient><linearGradient id="bpaint3_linear" x1="33.166" y1="7.74" x2="46.044" y2="11.524" gradientUnits="userSpaceOnUse"><stop offset=".06" stop-color="#05237D"/><stop offset=".973" stop-color="#5882FF"/></linearGradient></defs></svg><svg fill="none" viewBox="0 0 14 13" id="icon-mail" xmlns="http://www.w3.org/2000/svg"><g clip-path="url(#cclip0)" fill="#86A184"><path d="M13.526 2.278H1.455l6.035 4.59 6.104-4.577a.453.453 0 00-.068-.013z"/><path d="M7.783 7.753a.494.494 0 01-.588 0L.99 3.035v7.386c0 .237.208.429.465.429h12.07c.257 0 .465-.192.465-.43V3.099L7.783 7.753z"/></g><defs><clipPath id="cclip0"><path fill="#fff" transform="translate(.99 .564)" d="M0 0h13v12H0z"/></clipPath></defs></svg><svg fill="none" viewBox="0 0 34 22" id="icon-mbPhone" xmlns="http://www.w3.org/2000/svg"><g clip-path="url(#dclip0)"><path d="M21.786 16.23l-3.07-2.93c-1.097-1.048-2.96-.629-3.4.732-.328.942-1.425 1.465-2.412 1.256-2.193-.524-5.153-3.245-5.701-5.443-.33-.942.328-1.988 1.315-2.302a1.913 1.913 0 00.768-3.245l-3.07-2.93c-.877-.733-2.193-.733-2.96 0L1.171 3.355c-2.083 2.093.22 7.64 5.373 12.56 5.153 4.919 10.964 7.222 13.158 5.128l2.083-1.988c.767-.838.767-2.094 0-2.826z" fill="#86A184"/></g><path d="M25.385 7.525l3.792 3.793 3.793-3.793" stroke="#000" stroke-width="2"/><defs><clipPath id="dclip0"><path fill="#fff" transform="translate(.385 .818)" d="M0 0h22v21H0z"/></clipPath></defs></svg><svg fill="none" viewBox="0 0 14 14" id="icon-phone" xmlns="http://www.w3.org/2000/svg"><path d="M13.623 10.055L11.809 8.24c-.648-.648-1.75-.388-2.009.454-.194.583-.842.907-1.425.777-1.296-.323-3.046-2.008-3.37-3.369-.194-.583.195-1.23.778-1.425.842-.26 1.101-1.36.453-2.009L4.422.854c-.518-.453-1.296-.453-1.75 0l-1.23 1.231c-1.231 1.296.13 4.73 3.175 7.775 3.045 3.046 6.479 4.47 7.775 3.175l1.23-1.231c.454-.518.454-1.296 0-1.75z" fill="#86A184"/></svg><svg fill="none" viewBox="0 0 17 17" id="icon-viber" xmlns="http://www.w3.org/2000/svg"><g clip-path="url(#fclip0)" fill="#86A184"><path d="M15.913 9.825c.478-4.018-.23-6.554-1.504-7.702-2.056-1.96-9.004-2.25-11.466.088C1.838 3.354 1.45 5.032 1.406 7.109c-.043 2.078-.093 5.971 3.534 7.027h.003L4.94 15.75s-.025.653.393.784c.477.155.693-.148 2.178-1.922 2.482.216 4.389-.277 4.606-.35.5-.167 3.338-.543 3.796-4.436zm-8.158 3.652s-1.571 1.96-2.06 2.468c-.16.165-.335.15-.332-.178l.012-2.678c-3.076-.88-2.894-4.196-2.861-5.93.033-1.734.35-3.155 1.287-4.112 2.159-2.024 8.25-1.572 9.802-.113 1.898 1.682 1.222 6.434 1.226 6.596-.39 3.25-2.688 3.456-3.111 3.596-.18.06-1.857.492-3.963.35z"/><path d="M8.625 3.428c-.257 0-.257.4 0 .404 1.991.015 3.631 1.403 3.649 3.949 0 .269.393.265.39-.003-.022-2.744-1.813-4.334-4.04-4.35z"/><path d="M11.244 7.36c-.006.264.387.277.39.008.033-1.512-.9-2.758-2.653-2.89-.256-.018-.283.385-.027.404 1.52.115 2.32 1.152 2.29 2.477zM10.824 9.08c-.33-.191-.665-.072-.803.115l-.29.375c-.148.191-.423.166-.423.166-2.01-.532-2.547-2.634-2.547-2.634s-.024-.285.16-.438l.362-.3c.182-.144.296-.49.112-.831C6.9 4.642 6.57 4.334 6.4 4.098c-.177-.222-.444-.272-.721-.122h-.006c-.577.338-1.208.969-1.006 1.619.345.685.978 2.87 2.997 4.52.948.781 2.45 1.581 3.087 1.766l.006.01c.628.209 1.239-.447 1.565-1.041v-.005c.144-.287.096-.56-.115-.737-.375-.366-.94-.769-1.384-1.028z"/><path d="M9.256 5.966c.64.038.951.372.985 1.06.012.268.402.25.39-.02-.043-.896-.511-1.396-1.354-1.443-.256-.015-.28.388-.021.403z"/></g><defs><clipPath id="fclip0"><path fill="#fff" transform="translate(.477 .564)" d="M0 0h16v16H0z"/></clipPath></defs></svg></svg>