<svg width="110" height="110" viewBox="0 0 110 110" fill="none" xmlns="http://www.w3.org/2000/svg">
<path d="M107.967 105.571L87.6561 76.7988V44.6874H92.8124C93.1259 44.6873 93.4335 44.6014 93.7018 44.439C93.97 44.2767 94.1888 44.044 94.3343 43.7663C94.4798 43.4885 94.5465 43.1762 94.5273 42.8632C94.5081 42.5503 94.4036 42.2485 94.2252 41.9907L78.7564 19.6469C78.5898 19.4308 78.3757 19.2557 78.1308 19.1353C77.8859 19.0149 77.6166 18.9523 77.3436 18.9523C77.0707 18.9523 76.8014 19.0149 76.5565 19.1353C76.3115 19.2557 76.0975 19.4308 75.9308 19.6469L72.0843 25.2019C72.0348 25.0605 71.9666 24.9264 71.8814 24.8032L56.4127 2.45941C56.246 2.24327 56.032 2.06825 55.7871 1.94782C55.5421 1.82739 55.2728 1.76477 54.9999 1.76477C54.7269 1.76477 54.4576 1.82739 54.2127 1.94782C53.9678 2.06825 53.7537 2.24327 53.5871 2.45941L38.1183 24.8032C38.0332 24.9264 37.965 25.0605 37.9155 25.2019L34.069 19.6469C33.9023 19.4308 33.6882 19.2557 33.4433 19.1353C33.1984 19.0149 32.9291 18.9523 32.6561 18.9523C32.3832 18.9523 32.1139 19.0149 31.869 19.1353C31.624 19.2557 31.41 19.4308 31.2433 19.6469L15.7746 41.9907C15.5962 42.2485 15.4917 42.5503 15.4725 42.8632C15.4532 43.1762 15.52 43.4885 15.6655 43.7663C15.811 44.044 16.0297 44.2767 16.298 44.439C16.5663 44.6014 16.8738 44.6873 17.1874 44.6874H22.3436V76.7988L2.03317 105.571C1.85137 105.828 1.74381 106.13 1.72224 106.445C1.70066 106.759 1.76591 107.073 1.91084 107.353C2.05578 107.633 2.27483 107.867 2.54405 108.031C2.81328 108.195 3.12231 108.281 3.43739 108.281H106.562C106.877 108.281 107.187 108.195 107.456 108.031C107.725 107.867 107.944 107.633 108.089 107.353C108.234 107.073 108.299 106.759 108.278 106.445C108.256 106.13 108.148 105.828 107.967 105.571ZM39.5311 27.4999H44.6874V30.9374H48.1249V25.7811C48.1249 25.3253 47.9438 24.8881 47.6215 24.5658C47.2991 24.2435 46.862 24.0624 46.4061 24.0624H42.8122L54.9999 6.45722L67.1875 24.0624H63.5936C63.1378 24.0624 62.7006 24.2435 62.3783 24.5658C62.056 24.8881 61.8749 25.3253 61.8749 25.7811V30.9374H65.3124V27.4999H70.4686H70.4961L64.6524 35.9389C63.922 33.9675 62.6055 32.2669 60.8799 31.066C59.1543 29.865 57.1023 29.2213 54.9999 29.2213C52.8975 29.2213 50.8455 29.865 49.1199 31.066C47.3943 32.2669 46.0777 33.9675 45.3474 35.9389L39.5036 27.4999H39.5311ZM67.0311 49.8883C65.5523 48.7508 63.7405 48.1312 61.8749 48.1249H60.6889C62.0143 47.2418 63.1187 46.0656 63.9168 44.6874H67.0311V49.8883ZM61.8749 58.4374V94.5311H56.7186V73.9061H53.2811V94.5311H48.1249C48.1249 89.3388 48.1249 74.145 48.1249 73.9164V58.4374H44.6874V72.1874H42.9686V56.7186C42.9686 55.3511 43.5119 54.0396 44.4789 53.0726C45.4459 52.1056 46.7574 51.5624 48.1249 51.5624H61.8749C63.2424 51.5624 64.5539 52.1056 65.5209 53.0726C66.4879 54.0396 67.0311 55.3511 67.0311 56.7186V72.1874H65.3124V58.4374H61.8749ZM49.3108 48.1249H48.1249C46.2592 48.1312 44.4474 48.7508 42.9686 49.8883V44.6874H46.083C46.8811 46.0656 47.9855 47.2418 49.3108 48.1249ZM54.9999 46.4061C53.6401 46.4061 52.3109 46.0029 51.1803 45.2475C50.0498 44.492 49.1686 43.4183 48.6482 42.1621C48.1279 40.9058 47.9917 39.5235 48.257 38.1899C48.5223 36.8563 49.177 35.6313 50.1385 34.6698C51.1 33.7083 52.325 33.0535 53.6586 32.7882C54.9923 32.523 56.3746 32.6591 57.6308 33.1795C58.8871 33.6998 59.9608 34.581 60.7162 35.7116C61.4717 36.8422 61.8749 38.1714 61.8749 39.5311C61.8749 41.3545 61.1506 43.1032 59.8612 44.3925C58.5719 45.6818 56.8232 46.4061 54.9999 46.4061ZM78.6327 104.844L70.3982 76.8589L67.1016 77.8283L75.0491 104.844H34.9507L42.8982 77.8283L39.6016 76.8589L31.3671 104.844H6.75458L25.4666 78.3354C25.6714 78.0452 25.7813 77.6988 25.7811 77.3436V42.9686C25.7811 42.5128 25.6001 42.0756 25.2777 41.7533C24.9554 41.431 24.5182 41.2499 24.0624 41.2499H20.4685L32.6561 23.6447L44.8421 41.2499H41.2499C40.794 41.2499 40.3569 41.431 40.0345 41.7533C39.7122 42.0756 39.5311 42.5128 39.5311 42.9686V73.9061C39.5311 74.362 39.7122 74.7991 40.0345 75.1215C40.3569 75.4438 40.794 75.6249 41.2499 75.6249H44.6874C44.6874 76.1405 44.6874 76.7232 44.6874 77.3969V96.2499C44.6874 96.7057 44.8685 97.1429 45.1908 97.4652C45.5131 97.7876 45.9503 97.9686 46.4061 97.9686H63.5936C64.0495 97.9686 64.4866 97.7876 64.809 97.4652C65.1313 97.1429 65.3124 96.7057 65.3124 96.2499V75.6249H68.7499C69.2057 75.6249 69.6429 75.4438 69.9652 75.1215C70.2876 74.7991 70.4686 74.362 70.4686 73.9061V56.7186C70.4686 56.5811 70.4343 56.4539 70.4274 56.3182H70.4686V42.9686C70.4686 42.5128 70.2876 42.0756 69.9652 41.7533C69.6429 41.431 69.2057 41.2499 68.7499 41.2499H65.1577L77.3436 23.6447L89.5313 41.2499H85.9374C85.4815 41.2499 85.0444 41.431 84.722 41.7533C84.3997 42.0756 84.2186 42.5128 84.2186 42.9686V77.3436C84.2185 77.6988 84.3284 78.0452 84.5332 78.3354L103.245 104.844H78.6327Z" fill="#151F59"/>
</svg>
