<svg width="111" height="111" viewBox="0 0 111 111" fill="none" xmlns="http://www.w3.org/2000/svg">
<g clip-path="url(#clip0)">
<path d="M62.9 88.8001C58.8131 88.8001 55.5 85.4869 55.5 81.4001V72.3591C57.908 68.3067 59.1857 63.6828 59.2 58.9688V42.5501C59.2 27.2487 45.9207 14.8 29.6 14.8C13.2793 14.8 0 27.2487 0 42.5501V58.9688C0.143375 69.1568 5.89757 78.4338 14.9609 83.0891L16.7018 79.8239C8.84647 75.8096 3.84638 67.7891 3.7 58.9688V42.5501C3.7 29.2893 15.318 18.5 29.6 18.5C43.882 18.5 55.5 29.2893 55.5 42.5501V58.9688C55.3536 67.7891 50.3535 75.8096 42.4982 79.8239L31.08 84.9761C28.5464 86.3083 19.2351 81.1561 16.7018 79.8239L14.9591 83.0891C18.5832 84.9934 28.1958 89.9644 31.82 88.0601L37 86.9501V96.2001C37 97.1503 37.7196 97.9458 38.665 98.0408L52.17 99.3913C54.0632 99.5763 55.5051 101.171 55.5 103.073V111H59.2V103.073C59.2113 99.2681 56.3267 96.0791 52.54 95.7098L40.7 94.5351V84.9761L44.239 83.0891C47.0575 81.5906 49.6117 79.6409 51.8 77.3171V81.4001C51.806 87.5279 56.7721 92.494 62.9 92.5001H72.15V88.8001H62.9Z" fill="#151F59"/>
<path d="M18.4999 83.5145V94.535L6.65994 95.719C2.87669 96.0878 -0.00653278 99.2716 -5.77803e-05 103.073V111H3.69994V103.073C3.69462 101.17 5.1367 99.5762 7.02994 99.3912L20.5349 98.05C21.4838 97.9547 22.2048 97.1536 22.1999 96.2V83.5145H18.4999Z" fill="#151F59"/>
<path d="M50.3311 42.8978L44.9827 41.7749L48.0815 37.2794C48.5886 36.5445 48.4982 35.5519 47.8669 34.9206L42.7794 29.8331C42.1483 29.2027 41.1572 29.1126 40.4225 29.6185L35.927 32.7173L34.8022 27.3689C34.6218 26.5126 33.8663 25.8996 32.991 25.9H26.2089C25.3339 25.8996 24.5782 26.5126 24.3978 27.3689L23.273 32.7173L18.7775 29.6185C18.0428 29.1126 17.0517 29.2027 16.4206 29.8331L11.3331 34.9206C10.7018 35.5519 10.6114 36.5445 11.1185 37.2794L14.2172 41.7749L8.86888 42.8978C8.01256 43.0782 7.39952 43.8339 7.39998 44.709V51.4911C7.39952 52.3661 8.01256 53.1219 8.86888 53.3022L14.2172 54.4252L11.1185 58.9207C10.6114 59.6556 10.7018 60.6481 11.3331 61.2794L16.4206 66.3669C17.0517 66.9973 18.0428 67.0875 18.7775 66.5815L23.273 63.4828L24.3978 68.8311C24.5782 69.6874 25.3336 70.3005 26.2089 70.3H32.991C33.8661 70.3005 34.6218 69.6874 34.8022 68.8311L35.927 63.4828L40.4225 66.5815C41.1572 67.0875 42.1483 66.9973 42.7794 66.3669L47.8669 61.2794C48.4982 60.6481 48.5886 59.6556 48.0815 58.9207L44.9827 54.4252L50.3311 53.3022C51.1874 53.1219 51.8004 52.3664 51.8 51.4911V44.709C51.8004 43.8339 51.1874 43.0782 50.3311 42.8978ZM48.1 49.9907L43.9948 50.8528C42.0787 51.2591 40.8547 53.1415 41.261 55.0576C41.3579 55.5153 41.5445 55.9491 41.81 56.3344L44.1613 59.755L41.255 62.6614L37.8343 60.31C36.223 59.1984 34.0155 59.6036 32.9038 61.2149C32.6368 61.602 32.4494 62.0384 32.3528 62.4986L31.4888 66.6H27.7111L26.8472 62.4949C26.4427 60.5794 24.562 59.3547 22.6468 59.7592C22.1875 59.8561 21.752 60.0434 21.3656 60.31L17.945 62.6614L15.0386 59.755L17.39 56.3362C18.5011 54.7221 18.0932 52.5127 16.4791 51.4016C16.0936 51.1361 15.6593 50.9497 15.2014 50.8528L11.1 49.9907V46.2093L15.2051 45.3472C17.1213 44.9409 18.3453 43.0585 17.939 41.1424C17.8421 40.6848 17.6555 40.2509 17.39 39.8657L15.0386 36.445L17.945 33.5387L21.3656 35.89C22.977 37.0016 25.1845 36.5965 26.2961 34.9851C26.5632 34.598 26.7505 34.1617 26.8472 33.7015L27.7111 29.6H31.4888L32.3528 33.7052C32.7572 35.6206 34.638 36.8453 36.5532 36.4409C37.0125 36.344 37.4479 36.1567 37.8343 35.89L41.255 33.5387L44.1613 36.445L41.81 39.8638C40.6988 41.478 41.1067 43.6873 42.7209 44.7985C43.1064 45.0639 43.5406 45.2503 43.9985 45.3472L48.1 46.2093V49.9907Z" fill="#151F59"/>
<path d="M29.6 38.85C24.4915 38.85 20.35 42.9914 20.35 48.1C20.356 53.206 24.494 57.344 29.6 57.35C34.7086 57.35 38.85 53.2085 38.85 48.1C38.85 42.9914 34.7086 38.85 29.6 38.85ZM29.6 53.65C26.5348 53.65 24.05 51.1652 24.05 48.1C24.05 45.0348 26.5348 42.55 29.6 42.55C32.6652 42.55 35.15 45.0348 35.15 48.1C35.15 51.1652 32.6652 53.65 29.6 53.65Z" fill="#151F59"/>
<path d="M103.547 9.15501C100.458 9.19941 97.9908 11.739 98.0352 14.8273C98.0595 16.5243 98.8531 18.1183 100.193 19.1605L96.1352 31.45C94.8097 31.4681 93.5353 31.9641 92.5462 32.8468L85.0075 28.675C85.5678 25.7113 83.6195 22.8547 80.6558 22.2944C80.2914 22.2255 79.9209 22.1938 79.55 22.2001C76.4848 22.2001 74 24.6848 74 27.75C74.003 28.9454 74.3968 30.1069 75.1211 31.0578L69.8023 39.035C69.3611 38.9169 68.9067 38.8547 68.45 38.85C65.3848 38.85 62.9 41.3348 62.9 44.4C62.9 47.4653 65.3848 49.95 68.45 49.95C71.5152 49.95 74 47.4653 74 44.4C73.9967 43.2043 73.6029 42.042 72.8789 41.0904L78.1976 33.115C78.6389 33.2332 79.0933 33.2954 79.55 33.3C80.8986 33.2947 82.1985 32.795 83.2037 31.8959L90.7425 36.0843C90.2108 39.103 92.2273 41.9812 95.2461 42.5126C98.2648 43.044 101.143 41.028 101.674 38.0092C102.03 35.9874 101.241 33.9341 99.6225 32.671L103.707 20.339C106.796 20.2946 109.263 17.755 109.219 14.6666C109.175 11.5783 106.635 9.11061 103.547 9.15501ZM68.45 46.25C67.4283 46.25 66.6 45.4217 66.6 44.4C66.6 43.3784 67.4283 42.55 68.45 42.55C69.4716 42.55 70.3 43.3784 70.3 44.4C70.3 45.4217 69.4716 46.25 68.45 46.25ZM79.55 29.6C78.5283 29.6 77.7 28.7717 77.7 27.75C77.7 26.7284 78.5283 25.9 79.55 25.9C80.5716 25.9 81.4 26.7284 81.4 27.75C81.4 28.7717 80.5716 29.6 79.55 29.6ZM96.2 38.85C95.1783 38.85 94.35 38.0217 94.35 37C94.35 35.9784 95.1783 35.15 96.2 35.15C97.2216 35.15 98.05 35.9784 98.05 37C98.05 38.0217 97.2216 38.85 96.2 38.85ZM103.6 16.6501C102.578 16.6501 101.75 15.8217 101.75 14.8001C101.75 13.7784 102.578 12.9501 103.6 12.9501C104.622 12.9501 105.45 13.7784 105.45 14.8001C105.45 15.8217 104.622 16.6501 103.6 16.6501Z" fill="#151F59"/>
<path d="M105.45 38.85V79.55H101.75V68.45H98.05V79.55H94.35V66.6H90.65V79.55H86.95V61.05H83.25V79.55H79.55V49.95H75.85V79.55H72.15V72.15H68.45V79.55H64.75V83.25H109.15V81.4V79.55V38.85H105.45Z" fill="#151F59"/>
<path d="M62.9 0C56.7721 0.0060125 51.806 4.97211 51.8 11.1V20.35H55.5V11.1C55.5 7.01312 58.8131 3.7 62.9 3.7H72.15V0H62.9Z" fill="#151F59"/>
<path d="M79.55 88.8H75.85V92.5H79.55V88.8Z" fill="#151F59"/>
<path d="M111 88.8H69.56V92.5H111V88.8Z" fill="#151F59"/>
<path d="M111 0H70.3V3.7H111V0Z" fill="#151F59"/>
</g>
<defs>
<clipPath id="clip0">
<rect width="111" height="111" fill="white"/>
</clipPath>
</defs>
</svg>
