<svg width="109" height="109" viewBox="0 0 109 109" fill="none" xmlns="http://www.w3.org/2000/svg">
<g clip-path="url(#clip0)">
<path d="M23.4577 29.7155C23.4513 29.7155 23.4445 29.7155 23.4379 29.7155C22.5167 29.707 21.5672 29.1509 20.6925 28.1071C19.9369 27.2061 18.5944 27.088 17.6933 27.8433C16.7923 28.5987 16.674 29.9414 17.4293 30.8425C18.5548 32.1852 19.8814 33.1254 21.2898 33.6054V36.1914C21.2898 37.3672 22.2432 38.3203 23.4188 38.3203C24.5943 38.3203 25.5477 37.3672 25.5477 36.1914V33.6237C28.0061 32.7737 29.8417 30.4253 29.8417 27.5864C29.8417 24.0647 26.9766 21.1996 23.4549 21.1996C22.2811 21.1996 21.326 20.2446 21.326 19.0707C21.326 17.9064 22.2726 16.9512 23.4337 16.9418C24.1988 16.9267 24.9999 17.3212 25.7574 18.0544C26.6027 18.8721 27.9499 18.8502 28.7678 18.0052C29.5856 17.1605 29.5634 15.8127 28.7189 14.995C27.6259 13.9371 26.5327 13.3433 25.5477 13.0227V10.6445C25.5477 9.46874 24.5943 8.51562 23.4188 8.51562C22.2432 8.51562 21.2898 9.46874 21.2898 10.6445V13.0649C18.8329 13.9567 17.068 16.3181 17.068 19.0707C17.068 22.5924 19.9331 25.4575 23.4547 25.4575C24.6286 25.4575 25.5836 26.4125 25.5836 27.5864C25.5836 28.7564 24.6367 29.7155 23.4577 29.7155Z" fill="#151F59"/>
<path d="M23.418 46.8359C36.3306 46.8359 46.8359 36.3306 46.8359 23.418C46.8359 20.4963 46.2848 17.5933 45.2299 14.8879C48.1124 14.3665 51.5112 14.0508 54.5 14.0508C75.0514 14.0508 92.9042 29.5814 95.8127 48.9465L91.3452 44.479C90.5136 43.6477 89.1661 43.6477 88.3343 44.479C87.503 45.3104 87.503 46.6584 88.3343 47.4899L96.8499 56.0056C97.6815 56.8369 99.0291 56.8369 99.8608 56.0056L108.376 47.4899C109.208 46.6586 109.208 45.3106 108.376 44.479C107.545 43.6477 106.197 43.6477 105.366 44.479L100.207 49.638C97.6719 27.4269 77.7794 9.79297 54.5 9.79297C50.7897 9.79297 46.6286 10.2234 43.2379 10.9387C38.9632 4.15222 31.5123 0 23.418 0C10.5053 0 0 10.5053 0 23.418C0 36.3306 10.5053 46.8359 23.418 46.8359ZM23.418 4.25781C33.9863 4.25781 42.5781 12.8167 42.5781 23.418C42.5781 33.9829 33.9829 42.5781 23.418 42.5781C12.8531 42.5781 4.25781 33.9829 4.25781 23.418C4.25781 12.8531 12.8531 4.25781 23.418 4.25781Z" fill="#151F59"/>
<path d="M89.8398 91.9688H98.3555C99.5311 91.9688 100.484 91.0156 100.484 89.8398C100.484 88.664 99.5311 87.7109 98.3555 87.7109H89.8398C88.6643 87.7109 87.7109 88.664 87.7109 89.8398C87.7109 91.0156 88.6643 91.9688 89.8398 91.9688Z" fill="#151F59"/>
<path d="M89.8398 100.484H98.3555C99.5311 100.484 100.484 99.5313 100.484 98.3555C100.484 97.1797 99.5311 96.2266 98.3555 96.2266H89.8398C88.6643 96.2266 87.7109 97.1797 87.7109 98.3555C87.7109 99.5313 88.6643 100.484 89.8398 100.484Z" fill="#151F59"/>
<path d="M3.63478 64.5212L8.79504 59.361C11.338 81.6217 31.2701 99.2071 54.5003 99.2071C56.6471 99.2071 59.5599 99.0542 62.1644 98.7228V106.871C62.1644 108.047 63.1177 109 64.2933 109H76.0023C77.1778 109 78.1312 108.047 78.1312 106.871C78.1312 105.695 77.1778 104.742 76.0023 104.742H66.4222C66.4222 99.6806 66.4222 69.4262 66.4222 65.1446H79.1956V75.7891C79.1956 76.9649 80.149 77.918 81.3245 77.918H89.8402C91.0157 77.918 91.9691 76.9649 91.9691 75.7891V65.1446H104.743V104.742H74.4581C73.2825 104.742 72.3292 105.695 72.3292 106.871C72.3292 108.047 73.2825 109 74.4581 109H106.871C108.047 109 109 108.047 109 106.871V63.0157C109 61.8399 108.047 60.8868 106.871 60.8868H64.2933C63.1177 60.8868 62.1644 61.8399 62.1644 63.0157V94.4273C59.6295 94.7837 56.5935 94.9493 54.5003 94.9493C33.649 94.9493 16.0156 79.662 13.175 60.041L17.6551 64.521C18.4867 65.3524 19.8343 65.3524 20.666 64.521C21.4974 63.6897 21.4974 62.3417 20.666 61.5101L12.1504 52.9945C11.3189 52.1631 9.97126 52.1631 9.13949 52.9945L0.62387 61.5101C-0.207468 62.3414 -0.207468 63.6895 0.62387 64.521C1.45542 65.3526 2.80302 65.3526 3.63478 64.5212ZM83.4534 65.1446H87.7113V73.6602H83.4534V65.1446Z" fill="#151F59"/>
<path d="M85.582 109C86.7578 109 87.7109 108.047 87.7109 106.871C87.7109 105.695 86.7578 104.742 85.582 104.742C84.4063 104.742 83.4531 105.695 83.4531 106.871C83.4531 108.047 84.4063 109 85.582 109Z" fill="#151F59"/>
</g>
<defs>
<clipPath id="clip0">
<rect width="109" height="109" fill="white"/>
</clipPath>
</defs>
</svg>
