<svg width="70" height="70" fill="none" xmlns="http://www.w3.org/2000/svg"><g clip-path="url(#clip0)" fill="#F45959"><path d="M28.76 62.055l-.206 1.004.198-1.005a1.025 1.025 0 10-.396 2.011l.019.004a1.025 1.025 0 10.385-2.014zm7.84.329l.102 1.02-.105-1.02a1.025 1.025 0 10.21 2.041l.028-.003c.561-.066.959-.572.896-1.132a1.03 1.03 0 00-1.13-.906zm-3.926.13l-.014-.001a1.02 1.02 0 00-1.063.979 1.031 1.031 0 001.032 1.071 1.025 1.025 0 00.045-2.05zm-7.702-1.501l-.013-.005a1.02 1.02 0 00-1.305.62 1.031 1.031 0 00.971 1.375 1.025 1.025 0 00.347-1.99zm15.498.654l.253.993-.256-.992a1.026 1.026 0 10.511 1.985c.005 0 .023-.006.028-.007.544-.148.862-.707.717-1.253a1.028 1.028 0 00-1.253-.726zm3.707-1.294l.406.942-.41-.94a1.026 1.026 0 00.82 1.88l.024-.011c.514-.233.741-.835.512-1.35a1.028 1.028 0 00-1.352-.52zM21.056 13.63a1.025 1.025 0 10-.479-1.931l-.012.007a1.02 1.02 0 00-.417 1.384c.184.345.541.54.908.54zM9.195 25.084a1.024 1.024 0 001.385-.432l.018-.036a1.025 1.025 0 00-1.836-.915c-.262.5-.068 1.12.433 1.383zm-1.444 3.857a1.025 1.025 0 001.3-.642l.014-.04a1.025 1.025 0 00-1.957-.616c-.18.536.108 1.117.643 1.298zm3.467-7.444a1.021 1.021 0 001.432-.226l.013-.019c.33-.46.222-1.099-.237-1.428a1.027 1.027 0 00-1.431.236l.826.608-.83-.604c-.333.458-.231 1.1.227 1.433zm6.357-5.651c.215 0 .432-.068.617-.21a1.025 1.025 0 10-1.211-1.654l-.026.019a1.028 1.028 0 00.62 1.845zM6.836 44.492a1.024 1.024 0 001.28.677c.539-.165.843-.735.681-1.275a1.025 1.025 0 00-1.974.553l.013.045zm7.641-25.944c.267 0 .533-.103.734-.308a1.026 1.026 0 00-1.45-1.45l-.017.017a1.024 1.024 0 00.733 1.74zM7.97 40.021a1.026 1.026 0 00-2.036.254l.006.041a1.024 1.024 0 001.163.864c.558-.082.945-.6.866-1.159zm-1.289-2.937h.031c.553 0 1.009-.439 1.025-.995v-.043a1.025 1.025 0 00-2.05-.014c-.015.565.43 1.036.994 1.052zm.225-4.112a1.026 1.026 0 001.197-.874 1.025 1.025 0 00-2.026-.313 1.026 1.026 0 00.829 1.187zm48.37-11.152a1.021 1.021 0 001.424.262c.466-.32.584-.96.264-1.426l-.853.57.85-.575a1.026 1.026 0 00-1.698 1.15l.013.02zm5.236 10.319c-.563.063-.968.57-.904 1.133l.005.045a1.026 1.026 0 002.032-.278 1.026 1.026 0 00-1.133-.9zm-1.73-2.894l.004.013a1.025 1.025 0 101.967-.579l-.004-.013a1.025 1.025 0 10-1.967.579zm-1.449-3.834a1.03 1.03 0 001.375.47c.508-.25.719-.86.468-1.369l-.929.433.928-.435a1.025 1.025 0 00-1.857.87l.015.031zm-4.64-6.793a1.021 1.021 0 001.45.014c.402-.393.41-1.035.024-1.44a1.025 1.025 0 00-1.505 1.393l.031.033zm8.152 17.802a1.029 1.029 0 00-1.054.99 1.026 1.026 0 002.048.104l.001-.042a1.024 1.024 0 00-.995-1.052zM46.136 13.583l.024.013a1.025 1.025 0 00.965-1.81l-.496.898.492-.9a1.025 1.025 0 10-.985 1.799zm3.468 2.249l.016.012a1.024 1.024 0 101.24-1.634l-.008-.005a1.025 1.025 0 10-1.248 1.627z"/><path d="M69.367 51.944l-4.813-4.823a2.152 2.152 0 00-1.534-.636 2.15 2.15 0 00-1.532.636l-.112.112-.316-.316a4.14 4.14 0 01-.898-1.343.998.998 0 00-.073-.19 4.144 4.144 0 01-.239-1.393v-1.364a1.026 1.026 0 001.487-.722 1.026 1.026 0 00-1.493-1.1 5.781 5.781 0 00-1.695-3.857l-4.67-4.678a5.508 5.508 0 00-3.923-1.627c-1.147 0-2.24.348-3.161.991l-.496-.498V19.408a5.823 5.823 0 00-1.445-3.84 4.138 4.138 0 01-1.027-2.73v-.86h.07a2.17 2.17 0 002.168-2.168V2.989A2.17 2.17 0 0043.497.82H24.343a2.17 2.17 0 00-2.167 2.169v6.82a2.17 2.17 0 002.167 2.169h.159v.45c0 1.105-.43 2.144-1.21 2.926l-2.068 2.07a5.785 5.785 0 00-1.701 4.114v6.616c0 .899.216 1.747.596 2.5a5.507 5.507 0 00-3.599 1.616l-4.67 4.678a5.786 5.786 0 00-1.7 4.114v2.929c0 1.105-.43 2.145-1.21 2.926l-.312.313-.004.003-.111-.111a2.153 2.153 0 00-1.533-.637 2.15 2.15 0 00-1.533.636L.633 51.944a2.174 2.174 0 000 3.067l1.648 1.65a1.025 1.025 0 101.452-1.448l-1.649-1.651a.119.119 0 010-.169l4.814-4.822a.115.115 0 01.163 0l.837.839 11.428 11.447 1.28 1.283a.119.119 0 010 .168l-4.813 4.822a.115.115 0 01-.164 0l-8.993-9.01a1.025 1.025 0 10-1.452 1.45l8.994 9.009c.41.41.954.636 1.533.636a2.15 2.15 0 001.533-.636l4.814-4.822a2.173 2.173 0 000-3.066l-.053-.053.608-.608a4.12 4.12 0 012.652-1.203A5.803 5.803 0 0029 57.134l4.422-4.431a3.511 3.511 0 002.538-2.675c.454.217.962.338 1.498.338a3.504 3.504 0 003.498-3.501V44.43c.44.201.93.314 1.447.314a3.503 3.503 0 003.496-3.502v-7.197l3.155 3.17c.2.2.463.3.727.3a1.026 1.026 0 00.727-1.748l-2.63-2.642a3.469 3.469 0 011.68-.43c.933 0 1.81.364 2.47 1.026l4.67 4.677a3.749 3.749 0 011.102 2.665v2.929c0 1.653.643 3.206 1.81 4.375l.318.319-1.488 1.49-8.995 9.01-.502-.502-.015-.015-.088-.088a6.174 6.174 0 00-3.971-1.8 3.76 3.76 0 01-2.418-1.098l-3.37-3.35a1.026 1.026 0 00-1.446 1.453l3.367 3.349a5.803 5.803 0 003.734 1.693 4.119 4.119 0 012.653 1.202l.05.05c.026.03.054.058.084.085l.473.473-.053.053a2.173 2.173 0 000 3.066l4.814 4.822c.41.41.954.636 1.533.636s1.124-.226 1.533-.636L69.368 55.01a2.173 2.173 0 000-3.066zm-8.83-10.197l-.019-.003-.187-.038.207.041zm-32.99 13.938a3.752 3.752 0 01-2.414 1.095c-1.5.097-2.91.736-3.971 1.8l-.606.606-.544-.546-.021-.02-9.918-9.935.319-.32a6.152 6.152 0 001.809-4.374v-2.929c0-1.007.39-1.953 1.101-2.665l4.67-4.677a3.468 3.468 0 012.472-1.026c.598 0 1.174.15 1.685.433l-2.634 2.638a1.025 1.025 0 001.451 1.45l3.146-3.153v12.802a3.504 3.504 0 003.498 3.501 3.48 3.48 0 001.518-.347 3.514 3.514 0 001.738 2.361l-3.299 3.306zm16.301-14.443c0 .8-.65 1.451-1.447 1.451a1.45 1.45 0 01-1.446-1.45v-11.44a1.025 1.025 0 10-2.051 0v17.06c0 .8-.649 1.45-1.447 1.45-.716 0-1.31-.524-1.425-1.21V29.792a1.025 1.025 0 00-1.528-.894 1.025 1.025 0 00-.544.906v17.06c0 .13.007.258.021.384v2.066c0 .8-.649 1.451-1.447 1.451a1.45 1.45 0 01-1.446-1.45V29.78a1.026 1.026 0 00-2.051 0v17.084c0 .8-.65 1.45-1.447 1.45a1.45 1.45 0 01-1.446-1.45V27.79a1.026 1.026 0 10-2.051 0v3.528a.95.95 0 00-.247.118 3.509 3.509 0 01-2.272-3.282v-6.616c0-1.006.391-1.953 1.102-2.664l2.067-2.072a6.15 6.15 0 001.81-4.374v-.45h2.06a1.025 1.025 0 100-2.05h-4.27a.117.117 0 01-.116-.118V2.989c0-.065.052-.118.116-.118h19.154c.065 0 .117.053.117.118v6.82a.117.117 0 01-.117.118h-10.07a1.025 1.025 0 100 2.05h7.95v.86c0 1.504.544 2.954 1.535 4.084a3.77 3.77 0 01.936 2.487v21.834zm24.068 12.319L54.37 67.129a.11.11 0 01-.082.034.111.111 0 01-.082-.034l-4.813-4.822a.119.119 0 010-.168l.775-.777 7.863-7.877 4.907-4.915a.114.114 0 01.163 0l4.814 4.822a.119.119 0 010 .169z"/><path d="M27.59 5.305a1.094 1.094 0 000 2.188 1.094 1.094 0 000-2.188zm35.766 46.742a1.094 1.094 0 000 2.188 1.094 1.094 0 000-2.188zM17.088 62.508c0-.603-.49-1.094-1.092-1.094a1.094 1.094 0 000 2.188c.602 0 1.092-.49 1.092-1.094z"/></g><defs><clipPath id="clip0"><path fill="#fff" d="M0 0h70v70H0z"/></clipPath></defs></svg>