<svg width="67" height="67" fill="none" xmlns="http://www.w3.org/2000/svg"><g clip-path="url(#clip0)" fill="#F45959"><path d="M48.302 28.951l-.3 1.746a1.81 1.81 0 00.725 1.782 1.815 1.815 0 001.918.138l1.568-.824 1.568.824a1.81 1.81 0 001.918-.138 1.81 1.81 0 00.724-1.782l-.299-1.746 1.269-1.236a1.81 1.81 0 00.46-1.867 1.81 1.81 0 00-1.47-1.24l-1.753-.255-.784-1.588a1.81 1.81 0 00-1.633-1.016 1.81 1.81 0 00-1.633 1.016l-.784 1.588-1.754.255a1.81 1.81 0 00-1.47 1.24 1.81 1.81 0 00.461 1.867l1.269 1.236zm1.85-2.666a1.82 1.82 0 001.371-.996l.69-1.398.69 1.398c.265.538.778.91 1.371.996l1.543.224-1.116 1.089a1.822 1.822 0 00-.524 1.612l.264 1.537-1.38-.726a1.82 1.82 0 00-1.696 0l-1.38.726.264-1.538a1.822 1.822 0 00-.524-1.611l-1.117-1.089 1.544-.224zm-39.277 2.666l-.299 1.746a1.81 1.81 0 00.725 1.782 1.815 1.815 0 001.918.139l1.568-.825 1.568.824a1.81 1.81 0 001.918-.138 1.81 1.81 0 00.724-1.782l-.3-1.746 1.27-1.236a1.81 1.81 0 00.46-1.867 1.81 1.81 0 00-1.47-1.24l-1.753-.255-.784-1.588a1.81 1.81 0 00-1.633-1.016 1.81 1.81 0 00-1.634 1.016l-.784 1.588-1.753.255a1.81 1.81 0 00-1.47 1.24 1.81 1.81 0 00.46 1.867l1.27 1.236zm1.85-2.666a1.82 1.82 0 001.372-.996l.69-1.398.69 1.398c.265.538.778.91 1.371.996l1.543.224-1.116 1.089a1.822 1.822 0 00-.524 1.612l.264 1.537-1.38-.726a1.82 1.82 0 00-1.696 0l-1.38.726.264-1.537a1.821 1.821 0 00-.524-1.612l-1.117-1.089 1.543-.224zm13.771 24.309a.981.981 0 00-.982-.982h-1.086a.981.981 0 100 1.963h1.086c.542 0 .982-.44.982-.981zm-.498 1.918l-.768.768a.981.981 0 101.388 1.388l.768-.768a.981.981 0 10-1.388-1.388zm3.583.208a.981.981 0 00-.981.98v1.088a.981.981 0 101.962 0V53.7a.981.981 0 00-.98-.982zm27.445-16.57a.982.982 0 00-1.388 0 37.499 37.499 0 00-8.169 12.226 37.5 37.5 0 00-2.868 14.422v.603a.981.981 0 101.962 0v-.603c0-4.715.915-9.315 2.72-13.67a35.545 35.545 0 017.743-11.59.982.982 0 000-1.388zm3.354 8.396a.981.981 0 00-1.388 0 25.952 25.952 0 00-5.654 8.462 25.955 25.955 0 00-1.985 9.98v.413a.981.981 0 101.963 0v-.413c0-3.183.618-6.288 1.836-9.23a23.999 23.999 0 015.228-7.824.981.981 0 000-1.388zm.494 11.889c-.679-.535-.936-.786-.936-1.295 0-.508.257-.759.936-1.295.71-.56 1.682-1.327 1.682-2.835a.981.981 0 10-1.963 0c0 .509-.257.759-.935 1.294-.71.56-1.682 1.328-1.682 2.836 0 1.509.972 2.276 1.682 2.836.678.536.935.786.935 1.295 0 .509-.257.76-.935 1.295-.71.56-1.682 1.327-1.682 2.835a.981.981 0 101.962 0c0-.508.257-.759.935-1.294.71-.56 1.683-1.328 1.683-2.836 0-1.508-.972-2.275-1.682-2.836zM11.361 36.15a.982.982 0 00-1.388 1.388 35.546 35.546 0 017.744 11.59 35.546 35.546 0 012.719 13.67v.603a.981.981 0 101.963 0v-.603a37.5 37.5 0 00-2.869-14.422 37.495 37.495 0 00-8.169-12.226zm-3.353 8.396a.981.981 0 10-1.388 1.388 23.998 23.998 0 015.228 7.825 24 24 0 011.836 9.23v.412a.981.981 0 101.963 0v-.413c0-3.442-.668-6.8-1.986-9.98a25.95 25.95 0 00-5.653-8.462zm-.666 13.43c.71-.56 1.682-1.327 1.682-2.836 0-1.508-.972-2.275-1.682-2.836-.679-.535-.935-.785-.935-1.294a.981.981 0 10-1.963 0c0 1.508.972 2.275 1.682 2.835.679.536.935.786.935 1.295 0 .51-.256.76-.935 1.295-.71.56-1.682 1.328-1.682 2.836 0 1.508.972 2.276 1.682 2.836.679.535.935.785.935 1.294a.981.981 0 101.963 0c0-1.508-.972-2.275-1.682-2.835-.679-.536-.935-.786-.935-1.295 0-.509.256-.76.935-1.295z"/><path d="M41.134 37.825c.542 0 .981-.44.981-.981V16.266h2.546c.648 0 1.219-.366 1.49-.956.27-.589.175-1.26-.247-1.752L34.743.57a1.638 1.638 0 00-2.487 0l-3.221 3.75a.982.982 0 001.488 1.279L33.5 2.136l10.456 12.167H23.044l4.69-5.458a.982.982 0 00-1.489-1.28l-5.15 5.993a1.623 1.623 0 00-.246 1.752c.27.59.841.956 1.49.956h2.545v26.017c0 .904.736 1.64 1.64 1.64h2.69v2.343c0 .01-.008.017-.017.017-1.092 0-1.98.889-1.98 1.98v2.33a.981.981 0 101.962 0v-2.33c0-.009.008-.017.018-.017 1.091 0 1.98-.888 1.98-1.98v-2.344h1.341v9.376a.981.981 0 101.963 0v-9.376h1.733v21.115h-1.733v-7.462a.981.981 0 10-1.963 0v7.786c0 .904.736 1.639 1.64 1.639h2.38c.903 0 1.639-.735 1.639-1.64V43.923h2.299c.904 0 1.64-.735 1.64-1.639V41.09a.981.981 0 10-1.964 0v.87H26.847v-2.718l13.305-3.44v1.042c0 .542.44.981.982.981zm-.982-14.562l-13.305 3.44V23.71l13.305-3.44v2.992zM26.847 28.73l13.305-3.44v3.465l-13.305 3.44V28.73zm13.305-12.464v1.978l-13.305 3.44v-5.419h13.305zM26.847 37.214v-2.992l13.305-3.44v2.993l-13.305 3.44z"/></g><defs><clipPath id="clip0"><path fill="#fff" d="M0 0h67v67H0z"/></clipPath></defs></svg>