<svg width="58" height="58" fill="none" xmlns="http://www.w3.org/2000/svg"><g clip-path="url(#clip0)" fill="#F45959"><path d="M43.839 15.659H22.29a.85.85 0 100 1.7h21.548a.85.85 0 100-1.7zm.849 6.667a.85.85 0 00-.85-.85H16.19a.85.85 0 100 1.7h27.648c.47 0 .85-.38.85-.85zM16.19 27.294a.85.85 0 100 1.7h27.263a.85.85 0 100-1.7H16.19z"/><path d="M6.423 14.735h3.972v5.566a.85.85 0 101.7 0l-.001-13.473c0-.83-.258-1.6-.698-2.236h33.507a2.896 2.896 0 012.893 2.892v26.807a.85.85 0 101.7 0l-.001-26.807a4.597 4.597 0 00-4.592-4.592H8.16a3.94 3.94 0 00-3.935 3.936v5.708c0 1.213.986 2.2 2.2 2.2zm-.5-7.907a2.238 2.238 0 012.236-2.236 2.238 2.238 0 012.236 2.236v6.208H6.423a.501.501 0 01-.5-.5V6.828zm47.751 34.756h-.602V39.77a2.36 2.36 0 00-2.357-2.357H20.263a2.36 2.36 0 00-2.356 2.357v1.814h-5.812v-17.31a.85.85 0 10-1.7 0l.001 17.31H8.57c-2.41 0-3.529 1.116-7.72 2.974-.524.252-.85.77-.85 1.352 0 .582.326 1.1.85 1.352 4.191 1.858 5.31 2.974 7.72 2.974h1.827v.28a4.597 4.597 0 004.591 4.592h33.478c2.71-.048 4.606-2.19 4.606-4.606v-.266h.602A4.33 4.33 0 0058 45.91a4.33 4.33 0 00-4.326-4.326zM9.42 48.537V46.76h8.487v1.777H9.42zm8.487-3.477H9.42v-1.777h8.487v1.777zm-15.946.85c4.306-2.01 4.616-2.356 5.76-2.554v5.108c-1.144-.198-1.459-.547-5.76-2.554zm13.027 7.498a2.896 2.896 0 01-2.892-2.892v-.28h5.81v.266a2.91 2.91 0 01-2.905 2.906h-.013zm36.385-2.906a2.91 2.91 0 01-2.907 2.906H18.571a4.583 4.583 0 001.035-2.906V39.77c0-.363.295-.658.658-.658h30.451c.363 0 .658.295.658.658v10.732zm2.301-1.965h-.602v-5.254h.602a2.63 2.63 0 012.627 2.627 2.63 2.63 0 01-2.627 2.627z"/></g><defs><clipPath id="clip0"><path fill="#fff" d="M0 0h58v58H0z"/></clipPath></defs></svg>