<svg width="68" height="68" fill="none" xmlns="http://www.w3.org/2000/svg"><g clip-path="url(#clip0)" fill="#F45959"><path d="M32.852 25.928c.443.42 1.18.336 1.517-.172l6.63-10.006a.997.997 0 00-1.661-1.1l-5.975 9.016-3.32-3.152a.996.996 0 00-1.371 1.445l4.18 3.969z"/><path d="M33.532 41.121c.19.087.4.133.61.133h.009c.213 0 .427-.05.618-.14 15.147-7.204 17.714-22.746 18.139-27.338a2.381 2.381 0 00-1.469-2.43 8.705 8.705 0 01-5.35-7.306 1.967 1.967 0 00-1.951-1.782h-.012l-20.407.12a1.952 1.952 0 00-1.943 1.818 8.707 8.707 0 01-5.271 7.359 2.373 2.373 0 00-1.432 2.442c.48 4.587 3.228 20.099 18.459 27.124zM17.288 13.386A10.69 10.69 0 0023.76 4.37l20.348-.119a10.691 10.691 0 006.568 8.936.4.4 0 01.249.406c-.4 4.303-2.79 18.814-16.786 25.614C20.062 32.57 17.504 18.089 17.054 13.79a.392.392 0 01.234-.404z"/><path d="M19.775 18.908c.12.443.683.849 1.223.7a.997.997 0 00.7-1.222 32.856 32.856 0 01-.634-2.822 14.01 14.01 0 005.699-7.47l14.385-.084a14.008 14.008 0 005.787 7.402 32.47 32.47 0 01-.602 2.831.997.997 0 001.929.5c.285-1.102.518-2.22.69-3.325a1.523 1.523 0 00-.718-1.545 12.021 12.021 0 01-5.287-6.776 1.54 1.54 0 00-1.464-1.081h-.009l-15.06.088a1.54 1.54 0 00-1.461 1.098 12.022 12.022 0 01-5.207 6.839 1.523 1.523 0 00-.7 1.553 34.67 34.67 0 00.73 3.314zm26.474 2.954a.995.995 0 00-1.3.54c-2.302 5.58-5.947 9.821-10.835 12.613-4.926-2.738-8.623-6.944-10.99-12.505a.997.997 0 00-1.833.78c2.583 6.069 6.653 10.644 12.095 13.598a1.525 1.525 0 001.478-.009c5.402-3.013 9.414-7.629 11.926-13.717a.995.995 0 00-.541-1.3zM6.39 53.228a3.528 3.528 0 00-3.523 3.524 3.528 3.528 0 003.524 3.524 3.528 3.528 0 003.525-3.524 3.528 3.528 0 00-3.525-3.524zm0 5.056a1.534 1.534 0 01-1.531-1.532c0-.845.687-1.532 1.532-1.532s1.532.687 1.532 1.532-.687 1.532-1.532 1.532z"/><path d="M67.286 43.476a4.15 4.15 0 00-5.73-1.108l-13.022 8.715-2.78-.156-.071-.712a6.045 6.045 0 00-5.234-5.407l-14.031-1.23c-.475-.074-1.994-.51-6.17-2.905a15.495 15.495 0 00-7.099-2.042v-2.606a2.374 2.374 0 00-2.371-2.372H2.37A2.374 2.374 0 000 36.025V61.69a2.374 2.374 0 002.371 2.372h8.406a2.374 2.374 0 002.372-2.372v-.707l12.265 4.645c.027.01 1.023.383 2.855.21l20.38-2.938.015-.002a10.02 10.02 0 004.749-2.128l.036-.031L66.612 48.9a4.15 4.15 0 00.674-5.424zm-2.002 3.94L52.136 59.24a8.026 8.026 0 01-3.78 1.688l-20.364 2.936a.294.294 0 00-.018.003l-.01.001a4.474 4.474 0 01-1.886-.12l-12.929-4.896V47.477a.996.996 0 10-1.992 0V61.69c0 .21-.17.38-.38.38H2.371a.38.38 0 01-.379-.38V36.025c0-.21.17-.38.38-.38h8.405c.21 0 .38.17.38.38v6.953a.996.996 0 101.992 0v-2.353a13.49 13.49 0 016.108 1.777c5.036 2.888 6.442 3.087 6.904 3.153l.053.006 14.033 1.23a4.059 4.059 0 013.453 3.621l.053.53-18.787 1.161-.037-.003a2.27 2.27 0 01-1.55-.811.995.995 0 10-1.53 1.276c.731.877 1.763 1.401 2.902 1.52.616.064 20.098-1.214 20.098-1.214l3.906.22a.993.993 0 00.61-.167l13.3-8.902a2.153 2.153 0 012.973.575c.606.89.455 2.1-.354 2.818z"/></g><defs><clipPath id="clip0"><path fill="#fff" d="M0 0h68v68H0z"/></clipPath></defs></svg>