<svg width="67" height="67" fill="none" xmlns="http://www.w3.org/2000/svg"><g clip-path="url(#clip0)" fill="#F45959"><path d="M66.87 36.595a26.484 26.484 0 00-7.611-16.063 26.278 26.278 0 00-12.927-7.097V10.11a4.457 4.457 0 003.376-4.318 4.454 4.454 0 00-4.45-4.45h-9.422a4.454 4.454 0 00-4.449 4.45 4.457 4.457 0 003.375 4.318v3.334a26.276 26.276 0 00-12.887 7.088 26.562 26.562 0 00-2.221 2.522c-.033-.002-.066-.005-.1-.005H10.23a1.309 1.309 0 000 2.617h7.644a26.23 26.23 0 00-2.322 5.03H1.309a1.309 1.309 0 000 2.617H14.81a26.604 26.604 0 00-.649 5.03H8.375a1.309 1.309 0 000 2.617h5.829c.11 1.694.382 3.38.817 5.03H6.543a1.309 1.309 0 000 2.618h9.313a26.28 26.28 0 006.02 9.308 26.483 26.483 0 0016.078 7.614 26.498 26.498 0 0017.02-4.136 1.309 1.309 0 00-1.429-2.194c-9.364 6.098-21.905 4.78-29.819-3.135-9.286-9.286-9.286-24.395 0-33.682 9.286-9.286 24.396-9.286 33.682 0 7.904 7.904 9.23 20.435 3.152 29.794a1.309 1.309 0 002.195 1.425c3.247-5 4.709-11.04 4.116-17.007zM34.005 5.792c0-1.01.822-1.832 1.832-1.832h9.422c1.01 0 1.832.822 1.832 1.832 0 1.01-.822 1.832-1.832 1.832h-9.423a1.834 1.834 0 01-1.832-1.832zm3.376 7.202v-2.752h6.335v2.747a26.667 26.667 0 00-6.336.005z"/><path d="M58.334 55.681a1.313 1.313 0 00-1.309 1.309 1.313 1.313 0 001.309 1.309 1.315 1.315 0 001.309-1.309c0-.344-.14-.682-.384-.925a1.321 1.321 0 00-.925-.383zM40.567 18.924c-11.194 0-20.3 9.106-20.3 20.3s9.106 20.3 20.3 20.3 20.3-9.106 20.3-20.3-9.106-20.3-20.3-20.3zm0 37.983c-9.75 0-17.683-7.932-17.683-17.683 0-9.75 7.932-17.683 17.683-17.683 9.75 0 17.683 7.933 17.683 17.683s-7.932 17.683-17.683 17.683z"/><path d="M48.845 29.096l-6.481 6.481a4.042 4.042 0 00-1.797-.42 4.04 4.04 0 00-1.796.42l-2.9-2.9a1.309 1.309 0 00-1.852 1.85l2.901 2.9a4.04 4.04 0 00-.42 1.797 4.07 4.07 0 004.067 4.066 4.07 4.07 0 004.067-4.066c0-.644-.152-1.254-.42-1.796l6.291-6.292.19-.19a1.309 1.309 0 00-1.85-1.85zm-8.278 11.577a1.45 1.45 0 01.001-2.899 1.45 1.45 0 010 2.898zm13.992-2.742h-1.213a1.309 1.309 0 000 2.618h1.213a1.309 1.309 0 000-2.617zM27.788 37.9h-1.212a1.309 1.309 0 000 2.617h1.212a1.309 1.309 0 000-2.617zm12.795-10.147c.723 0 1.309-.585 1.309-1.308v-1.212a1.309 1.309 0 00-2.618 0v1.212c0 .723.586 1.308 1.309 1.308zm-.032 22.942c-.722 0-1.308.586-1.308 1.308v1.213a1.309 1.309 0 002.617 0v-1.213c0-.722-.586-1.308-1.309-1.308zM1.309 45.99c-.345 0-.682.14-.926.383A1.318 1.318 0 000 47.3c0 .345.14.681.383.925.244.243.581.383.926.383.344 0 .681-.14.925-.383a1.32 1.32 0 00.383-.925c0-.345-.14-.682-.383-.926a1.318 1.318 0 00-.925-.383z"/></g><defs><clipPath id="clip0"><path fill="#fff" d="M0 0h67v67H0z"/></clipPath></defs></svg>