<svg width="72" height="72" fill="none" xmlns="http://www.w3.org/2000/svg"><g clip-path="url(#clip0)" fill="#F45959"><path d="M41.862 60.363a1.054 1.054 0 00-1.334.668c-.252.761-.494 1.53-.719 2.287a1.055 1.055 0 102.022.6c.218-.734.454-1.482.7-2.222a1.055 1.055 0 00-.67-1.333zm20.155-33.595a1.055 1.055 0 00-1.49.065c-.114.125-11.551 12.718-18.324 29.63a1.055 1.055 0 001.958.783c6.625-16.541 17.81-28.866 17.922-28.988a1.055 1.055 0 00-.066-1.49zM48.604 16.503a1.055 1.055 0 00-1.451.343c-.253.41-6.236 10.273-9.938 31.33a1.055 1.055 0 002.078.365c1.893-10.77 4.418-18.513 6.203-23.113 1.93-4.975 3.433-7.443 3.452-7.475a1.055 1.055 0 00-.344-1.45zm-22.681 43.01C19.085 52.256 11.439 47.425 6.229 44.65a1.055 1.055 0 00-.992 1.861c5.07 2.701 12.509 7.4 19.15 14.448a1.051 1.051 0 001.491.045c.424-.4.444-1.067.045-1.491zM2.615 42.857c-.735-.334-1.15-.501-1.167-.508a1.054 1.054 0 10-.787 1.957c.004.001.394.159 1.08.471a1.055 1.055 0 00.874-1.92zM32.19 63.318C26.75 44.99 14.415 30.203 11.997 27.424a1.055 1.055 0 00-1.591 1.385c2.367 2.72 14.446 17.2 19.764 35.11a1.055 1.055 0 002.022-.601zm4.862 3.607c-1.252-17.665-4.487-30.307-6.98-37.802-2.719-8.175-5.124-12.113-5.225-12.277a1.055 1.055 0 00-1.795 1.108c.096.154 9.532 15.78 11.896 49.12a1.055 1.055 0 102.104-.149zM6.691 19.727a3.313 3.313 0 00-3.31 3.31 3.313 3.313 0 003.31 3.309 3.313 3.313 0 003.31-3.31 3.313 3.313 0 00-3.31-3.309zm0 4.51a1.201 1.201 0 111.2-1.2c0 .661-.539 1.2-1.2 1.2zM51.218 9.582a2.749 2.749 0 00-2.746 2.746 2.749 2.749 0 002.746 2.745 2.749 2.749 0 002.745-2.745 2.749 2.749 0 00-2.745-2.746zm0 3.382a.637.637 0 11.001-1.274.637.637 0 01-.001 1.274zm-16.345 0a3.313 3.313 0 00-3.31 3.309 3.313 3.313 0 003.31 3.309 3.313 3.313 0 003.309-3.31 3.313 3.313 0 00-3.31-3.308zm0 4.509a1.201 1.201 0 010-2.4c.661 0 1.2.538 1.2 1.2 0 .661-.539 1.2-1.2 1.2zM8.945 35.509h-.072v-.073a1.055 1.055 0 00-2.11 0v.073h-.072a1.055 1.055 0 000 2.11h.072v.072a1.055 1.055 0 102.11 0v-.073h.072a1.055 1.055 0 000-2.11zM41.636 5.073h-.072V5a1.055 1.055 0 00-2.11 0v.073h-.072a1.055 1.055 0 000 2.11h.072v.072a1.055 1.055 0 002.11 0v-.073h.072a1.055 1.055 0 000-2.11zM22.273 11.2l.945-.945a1.055 1.055 0 10-1.491-1.491l-.945.945-.945-.945a1.054 1.054 0 10-1.492 1.491l.945.945-.945.945a1.055 1.055 0 101.492 1.492l.945-.945.945.945a1.052 1.052 0 001.491 0 1.055 1.055 0 000-1.492l-.945-.945zm31.564 15.782l.945-.945a1.055 1.055 0 10-1.491-1.492l-.945.945-.945-.945a1.055 1.055 0 00-1.492 1.492l.945.945-.945.945a1.055 1.055 0 101.492 1.492l.945-.946.945.946a1.052 1.052 0 001.491 0 1.055 1.055 0 000-1.492l-.945-.945zm9.217 10.782h-.072v-.073a1.055 1.055 0 10-2.11 0v.072H60.8a1.055 1.055 0 100 2.11h.072v.072a1.055 1.055 0 102.11 0v-.072h.072a1.055 1.055 0 000-2.11zm4.144 7.321a1.055 1.055 0 00-1.426-.435c-5.21 2.775-12.856 7.606-19.694 14.863a1.055 1.055 0 001.535 1.447c6.642-7.049 14.08-11.748 19.15-14.449.515-.273.71-.912.435-1.426zm4.726-2.151a1.055 1.055 0 00-1.372-.585c-.018.007-.432.174-1.167.508a1.055 1.055 0 00.874 1.92 29.812 29.812 0 011.08-.471c.54-.217.802-.832.585-1.372zM22.473 29.872h-.011a1.05 1.05 0 00-1.05 1.055 1.06 1.06 0 001.06 1.055 1.055 1.055 0 100-2.11zM7.818 51.29h-.011a1.05 1.05 0 00-1.05 1.055A1.06 1.06 0 007.819 53.4a1.055 1.055 0 000-2.11zm56.375-28.181h-.012a1.05 1.05 0 00-1.049 1.055 1.06 1.06 0 001.06 1.054 1.055 1.055 0 100-2.109zm-25.927 1.127h-.011a1.05 1.05 0 00-1.05 1.055 1.06 1.06 0 001.06 1.055 1.055 1.055 0 000-2.11zm9.007 11.273h-.012a1.05 1.05 0 00-1.049 1.055 1.06 1.06 0 001.06 1.054 1.055 1.055 0 100-2.11z"/></g><defs><clipPath id="clip0"><path fill="#fff" d="M0 0h72v72H0z"/></clipPath></defs></svg>