<svg width="68" height="69" viewBox="0 0 68 69" fill="none" xmlns="http://www.w3.org/2000/svg">
<path d="M44.3144 4.3732H27.6793C27.2142 2.02467 25.1382 0.248291 22.6551 0.248291C20.172 0.248291 18.0962 2.02467 17.6309 4.3732H0.996098C0.445986 4.3732 0 4.81905 0 5.3693V67.2522C0 67.8024 0.445986 68.2483 0.996098 68.2483H44.3144C44.8646 68.2483 45.3105 67.8024 45.3105 67.2522V19.7915C45.3105 19.2412 44.8646 18.7954 44.3144 18.7954C43.7641 18.7954 43.3183 19.2412 43.3183 19.7915V66.2561H1.9922V6.36539H10.314C10.2777 7.08165 10.3238 7.793 10.4521 8.4997H5.12127C4.57116 8.4997 4.12517 8.94555 4.12517 9.4958V48.5149C4.12517 49.0652 4.57116 49.511 5.12127 49.511C5.67138 49.511 6.11737 49.0652 6.11737 48.5149V10.4919H11.3946C12.3541 11.7443 13.864 12.5541 15.5601 12.5541H29.7501C31.4463 12.5541 32.9561 11.7443 33.9157 10.4919H39.1918V62.1311H6.11737V52.8567C6.11737 52.3065 5.67138 51.8606 5.12127 51.8606C4.57116 51.8606 4.12517 52.3065 4.12517 52.8567V63.1272C4.12517 63.6774 4.57116 64.1233 5.12127 64.1233H40.1879C40.7381 64.1233 41.184 63.6774 41.184 63.1272V9.4958C41.184 8.94555 40.7381 8.4997 40.1879 8.4997H34.8581C34.9864 7.793 35.0325 7.08152 34.9962 6.36539H43.3183V15.4511C43.3183 16.0014 43.7641 16.4472 44.3144 16.4472C44.8646 16.4472 45.3105 16.0014 45.3105 15.4511V5.3693C45.3105 4.81905 44.8646 4.3732 44.3144 4.3732ZM29.7501 10.5619H15.5601C13.2518 10.5619 12.2282 8.28335 12.3062 6.36592H18.5297C19.0677 6.36592 19.528 5.87359 19.5259 5.36345C19.5294 3.64087 20.9317 2.24049 22.6551 2.24049C24.38 2.24049 25.7833 3.64326 25.7845 5.3677C25.7845 5.85207 26.1606 6.36592 26.7806 6.36592H33.004C33.082 8.28335 32.0584 10.5619 29.7501 10.5619Z" fill="#003A66"/>
<path d="M31.9373 18.7423C32.4874 18.7423 32.9334 18.2965 32.9334 17.7462C32.9334 17.196 32.4874 16.7501 31.9373 16.7501H13.3728C12.8227 16.7501 12.3767 17.196 12.3767 17.7462C12.3767 18.2965 12.8227 18.7423 13.3728 18.7423H31.9373Z" fill="#003A66"/>
<path d="M8.2511 25.9972C8.2511 26.5474 8.69708 26.9933 9.24719 26.9933H36.0627C36.6129 26.9933 37.0588 26.5474 37.0588 25.9972C37.0588 25.447 36.6129 25.0011 36.0627 25.0011H9.24719C8.69708 25.0011 8.2511 25.447 8.2511 25.9972Z" fill="#003A66"/>
<path d="M9.24719 31.1187H36.0627C36.6129 31.1187 37.0588 30.6728 37.0588 30.1226C37.0588 29.5723 36.6129 29.1265 36.0627 29.1265H9.24719C8.69708 29.1265 8.2511 29.5723 8.2511 30.1226C8.2511 30.6728 8.69708 31.1187 9.24719 31.1187Z" fill="#003A66"/>
<path d="M9.24719 35.2441H36.0627C36.6129 35.2441 37.0588 34.7983 37.0588 34.248C37.0588 33.6978 36.6129 33.252 36.0627 33.252H9.24719C8.69708 33.252 8.2511 33.6978 8.2511 34.248C8.2511 34.7983 8.69708 35.2441 9.24719 35.2441Z" fill="#003A66"/>
<path d="M9.24719 39.3698H36.0627C36.6129 39.3698 37.0588 38.9239 37.0588 38.3737C37.0588 37.8234 36.6129 37.3776 36.0627 37.3776H9.24719C8.69708 37.3776 8.2511 37.8234 8.2511 38.3737C8.2511 38.9239 8.69708 39.3698 9.24719 39.3698Z" fill="#003A66"/>
<path d="M9.24719 43.4951H36.0627C36.6129 43.4951 37.0588 43.0493 37.0588 42.499C37.0588 41.9488 36.6129 41.5029 36.0627 41.5029H9.24719C8.69708 41.5029 8.2511 41.9488 8.2511 42.499C8.2511 43.0493 8.69708 43.4951 9.24719 43.4951Z" fill="#003A66"/>
<path d="M36.0628 49.7539H25.7491C25.199 49.7539 24.7531 50.1998 24.7531 50.75C24.7531 51.3002 25.199 51.7461 25.7491 51.7461H36.0628C36.6131 51.7461 37.0589 51.3002 37.0589 50.75C37.0589 50.1998 36.6131 49.7539 36.0628 49.7539Z" fill="#003A66"/>
<path d="M12.441 50.6858C12.441 53.4743 14.7097 55.743 17.4983 55.743C20.2868 55.743 22.5555 53.4743 22.5555 50.6858C22.5555 47.8972 20.2868 45.6285 17.4983 45.6285C14.7097 45.6285 12.441 47.8972 12.441 50.6858ZM20.5633 50.6858C20.5633 52.3759 19.1883 53.7508 17.4983 53.7508C15.8082 53.7508 14.4332 52.3758 14.4332 50.6858C14.4332 48.9957 15.8082 47.6207 17.4983 47.6207C19.1883 47.6207 20.5633 48.9956 20.5633 50.6858Z" fill="#003A66"/>
<path d="M67.8919 62.7399L65.8292 58.6787C65.6594 58.3443 65.3163 58.1337 64.9411 58.1337H61.8885L62.6797 50.4571C66.1293 47.5927 65.1769 41.9204 61.3436 40.1395C60.8449 39.9075 60.2524 40.1245 60.0205 40.6232C59.7887 41.1222 60.0052 41.7146 60.5042 41.9463C63.1028 43.1536 63.7422 46.9994 61.3939 48.9337H56.112C53.7626 47.0001 54.4045 43.1531 57.0019 41.9463C57.5009 41.7146 57.7174 41.1222 57.4856 40.6232C57.2537 40.1244 56.6615 39.9079 56.1626 40.1395C52.3303 41.9199 51.3753 47.5936 54.8265 50.4574L55.6176 58.1337H52.5647C52.1897 58.1337 51.8464 58.3443 51.6765 58.6787L49.6138 62.7399C49.5428 62.8797 49.5059 63.0342 49.5059 63.1909V67.252C49.5059 67.8023 49.9517 68.2481 50.502 68.2481H67.0038C67.554 68.2481 67.9999 67.8023 67.9999 67.252V63.191C67.9999 63.0342 67.9629 62.8797 67.8919 62.7399ZM56.8776 50.926H60.6285L59.8857 58.1334H57.6203L56.8776 50.926ZM53.176 60.126H64.3297L65.4132 62.2593H52.0924L53.176 60.126ZM51.498 66.2561V64.2514H66.0077V66.2561H51.498Z" fill="#003A66"/>
</svg>
