<svg width="70" height="71" viewBox="0 0 70 71" fill="none" xmlns="http://www.w3.org/2000/svg">
<path d="M67.334 64.1244V30.6805C67.334 30.1142 66.875 29.6551 66.3086 29.6551C65.7422 29.6551 65.2832 30.1142 65.2832 30.6805V64.0959H63.2324V23.4905H65.2832V26.3788C65.2832 26.9451 65.7422 27.4042 66.3086 27.4042C66.875 27.4042 67.334 26.9451 67.334 26.3788V18.3635C67.334 17.7972 66.875 17.3381 66.3086 17.3381H59.5424V14.8381C60.6621 14.639 61.5158 13.6607 61.5158 12.4846V11.1174C61.5158 10.1419 60.9282 9.30222 60.0888 8.93021V3.73462C60.0888 1.81222 58.5249 0.248291 56.6025 0.248291H50.04C48.1176 0.248291 46.5537 1.81222 46.5537 3.73462V8.86964C45.6333 9.2031 44.9728 10.0834 44.9728 11.1174V12.4846C44.9728 13.7144 45.9058 14.7297 47.101 14.8617V17.3381H41.2973V14.8382C42.4174 14.6396 43.2715 13.6609 43.2715 12.4846V11.1174C43.2715 10.1419 42.6839 9.30235 41.8447 8.93034V3.73462C41.8447 1.81222 40.2808 0.248291 38.3584 0.248291H31.7959C29.8735 0.248291 28.3095 1.81222 28.3095 3.73462V8.86964C27.3891 9.2031 26.7285 10.0834 26.7285 11.1174V12.4846C26.7285 13.7141 27.6611 14.7291 28.8559 14.8616V17.3381H23.0535V14.8381C24.1734 14.6392 25.0273 13.6608 25.0273 12.4846V11.1174C25.0273 10.1419 24.4397 9.30235 23.6005 8.93034V3.73462C23.6005 1.81222 22.0366 0.248291 20.1142 0.248291H13.5517C11.6293 0.248291 10.0654 1.81222 10.0654 3.73462V8.8695C9.14498 9.20296 8.48435 10.0833 8.48435 11.1174V12.4846C8.48435 13.7143 9.41719 14.7294 10.6121 14.8617V17.3381H3.69141C3.12512 17.3381 2.66602 17.7972 2.66602 18.3635V57.0547C2.66602 57.6209 3.12512 58.08 3.69141 58.08C4.2577 58.08 4.7168 57.6209 4.7168 57.0547V23.4905H6.76758V64.0959H4.7168V61.5059C4.7168 60.9397 4.2577 60.4806 3.69141 60.4806C3.12512 60.4806 2.66602 60.9397 2.66602 61.5059V64.1245C1.16293 64.3269 0 65.6171 0 67.1747V68.8127C0 69.6043 0.643945 70.2483 1.43555 70.2483H52.5327C53.0991 70.2483 53.5581 69.7892 53.5581 69.2229C53.5581 68.6566 53.0991 68.1975 52.5327 68.1975H2.05078V67.1747C2.05078 66.6079 2.51193 66.1467 3.07877 66.1467H66.9211C67.4879 66.1467 67.9492 66.6079 67.9492 67.1747V68.1975H56.9077C56.3413 68.1975 55.8823 68.6566 55.8823 69.2229C55.8823 69.7892 56.3413 70.2483 56.9077 70.2483H68.5645C69.3561 70.2483 70 69.6043 70 68.8127V67.1747C70 65.6171 68.8371 64.3269 67.334 64.1244ZM48.6045 3.73462C48.6045 2.94302 49.2484 2.29907 50.04 2.29907H56.6025C57.3941 2.29907 58.0381 2.94302 58.0381 3.73462V8.72485H48.6045V3.73462ZM47.0235 11.1174C47.0235 10.929 47.1767 10.7756 47.3653 10.7756H59.1231C59.3116 10.7756 59.4649 10.929 59.4649 11.1174V12.4846C59.4649 12.673 59.3116 12.8264 59.1231 12.8264H47.3653C47.1767 12.8264 47.0235 12.673 47.0235 12.4846V11.1174ZM49.1518 14.8772H57.4916V17.3381H49.1518V14.8772ZM30.3603 3.73462C30.3603 2.94302 31.0043 2.29907 31.7959 2.29907H38.3584C39.15 2.29907 39.7939 2.94302 39.7939 3.73462V8.72485H30.3603V3.73462ZM28.7793 11.1174C28.7793 10.929 28.9327 10.7756 29.1211 10.7756H40.8789C41.0674 10.7756 41.2207 10.929 41.2207 11.1174V12.4846C41.2207 12.673 41.0674 12.8264 40.8789 12.8264H29.1211C28.9327 12.8264 28.7793 12.673 28.7793 12.4846V11.1174ZM30.9066 14.8772H39.2465V17.3381H30.9066V14.8772ZM12.1162 3.73462C12.1162 2.94302 12.7601 2.29907 13.5517 2.29907H20.1142C20.9058 2.29907 21.5497 2.94302 21.5497 3.73462V8.72485H12.1162V3.73462ZM10.5351 11.1174C10.5351 10.929 10.6885 10.7756 10.8769 10.7756H22.6347C22.8231 10.7756 22.9765 10.929 22.9765 11.1174V12.4846C22.9765 12.673 22.8231 12.8264 22.6347 12.8264H10.8769C10.6885 12.8264 10.5351 12.673 10.5351 12.4846V11.1174ZM12.6629 14.8772H21.0027V17.3381H12.6629V14.8772ZM4.7168 21.4397V19.3889H65.2832V21.4397H4.7168ZM49.1518 31.7059H57.4916V49.9456C57.4916 52.2449 55.6209 54.1155 53.3217 54.1155C51.0225 54.1155 49.1518 52.2449 49.1518 49.9456V31.7059ZM57.4916 29.6551H49.1518V23.4905H57.4916V29.6551ZM30.9066 31.7059H39.2465V49.9456C39.2465 52.2449 37.3759 54.1155 35.0766 54.1155C32.7772 54.1155 30.9066 52.2449 30.9066 49.9456V31.7059ZM39.2465 29.6551H30.9066V23.4905H39.2465V29.6551ZM12.6629 31.7059H21.0027V49.9456C21.0027 52.2449 19.1321 54.1155 16.8328 54.1155C14.5335 54.1155 12.6629 52.2449 12.6629 49.9456V31.7059ZM21.0027 29.6551H12.6629V23.4905H21.0027V29.6551ZM8.81836 23.4905H10.6121V49.9456C10.6121 53.3757 13.4027 56.1663 16.8328 56.1663C20.2629 56.1663 23.0535 53.3757 23.0535 49.9456V23.4905H28.8559V49.9456C28.8559 53.3757 31.6464 56.1663 35.0766 56.1663C38.5066 56.1663 41.2973 53.3757 41.2973 49.9456V23.4905H47.101V49.9456C47.101 53.3757 49.8915 56.1663 53.3217 56.1663C56.7518 56.1663 59.5424 53.3757 59.5424 49.9456V23.4905H61.1816V64.0959H8.81836V23.4905Z" fill="#003A66"/>
</svg>
