<svg width="74" height="75" viewBox="0 0 74 75" fill="none" xmlns="http://www.w3.org/2000/svg">
<path d="M17.3496 14.573C17.3496 13.3598 16.3626 12.3728 15.1495 12.3728H10.4839C9.2707 12.3728 8.28369 13.3598 8.28369 14.573V19.2388C8.28369 20.452 9.27084 21.439 10.4839 21.439H15.1496C16.3628 21.439 17.3497 20.452 17.3497 19.2388V14.573H17.3496ZM15.1819 19.2386C15.1819 19.2565 15.1673 19.271 15.1495 19.271H10.4839C10.466 19.271 10.4514 19.2564 10.4514 19.2386V14.573C10.4514 14.5551 10.466 14.5406 10.4839 14.5406H15.1496C15.1674 14.5406 15.182 14.5552 15.182 14.573V19.2386H15.1819Z" fill="#003A66"/>
<path d="M28.9496 14.573C28.9496 13.3598 27.9626 12.3728 26.7495 12.3728H22.0837C20.8705 12.3728 19.8835 13.3598 19.8835 14.573V19.2388C19.8835 20.452 20.8707 21.439 22.0837 21.439H26.7495C27.9627 21.439 28.9496 20.452 28.9496 19.2388V14.573ZM26.7819 19.2386C26.7819 19.2565 26.7673 19.271 26.7495 19.271H22.0837C22.0658 19.271 22.0512 19.2564 22.0512 19.2386V14.573C22.0512 14.5551 22.0658 14.5406 22.0837 14.5406H26.7495C26.7673 14.5406 26.7819 14.5552 26.7819 14.573V19.2386Z" fill="#003A66"/>
<path d="M17.3496 26.5616C17.3496 25.3485 16.3626 24.3615 15.1495 24.3615H10.4839C9.2707 24.3615 8.28369 25.3485 8.28369 26.5616V31.2274C8.28369 32.4406 9.27084 33.4276 10.4839 33.4276H15.1496C16.3628 33.4276 17.3497 32.4406 17.3497 31.2274V26.5616H17.3496ZM15.1819 31.2273C15.1819 31.2452 15.1673 31.2596 15.1495 31.2596H10.4839C10.466 31.2596 10.4514 31.245 10.4514 31.2273V26.5616C10.4514 26.5437 10.466 26.5293 10.4839 26.5293H15.1496C15.1674 26.5293 15.182 26.5439 15.182 26.5616V31.2273H15.1819Z" fill="#003A66"/>
<path d="M28.9496 26.5616C28.9496 25.3485 27.9626 24.3615 26.7495 24.3615H22.0837C20.8705 24.3615 19.8835 25.3485 19.8835 26.5616V31.2274C19.8835 32.4406 20.8707 33.4276 22.0837 33.4276H26.7495C27.9627 33.4276 28.9496 32.4406 28.9496 31.2274V26.5616ZM26.7819 31.2273C26.7819 31.2452 26.7673 31.2596 26.7495 31.2596H22.0837C22.0658 31.2596 22.0512 31.245 22.0512 31.2273V26.5616C22.0512 26.5437 22.0658 26.5293 22.0837 26.5293H26.7495C26.7673 26.5293 26.7819 26.5439 26.7819 26.5616V31.2273Z" fill="#003A66"/>
<path d="M15.1495 36.35H10.4839C9.2707 36.35 8.28369 37.337 8.28369 38.5502V43.2159C8.28369 44.4291 9.27084 45.4161 10.4839 45.4161H15.1496C16.3628 45.4161 17.3497 44.4291 17.3497 43.2159V38.5502C17.3496 37.337 16.3627 36.35 15.1495 36.35ZM15.1819 43.2159C15.1819 43.2339 15.1673 43.2483 15.1495 43.2483H10.4839C10.466 43.2483 10.4514 43.2337 10.4514 43.2159V38.5502C10.4514 38.5323 10.466 38.5178 10.4839 38.5178H15.1496C15.1674 38.5178 15.182 38.5324 15.182 38.5502V43.2159H15.1819Z" fill="#003A66"/>
<path d="M26.7495 36.35H22.0837C20.8705 36.35 19.8835 37.337 19.8835 38.5502V43.2159C19.8835 44.4291 20.8707 45.4161 22.0837 45.4161H26.7495C27.9627 45.4161 28.9496 44.4291 28.9496 43.2159V38.5502C28.9496 37.337 27.9627 36.35 26.7495 36.35ZM26.7819 43.2159C26.7819 43.2339 26.7673 43.2483 26.7495 43.2483H22.0837C22.0658 43.2483 22.0512 43.2337 22.0512 43.2159V38.5502C22.0512 38.5323 22.0658 38.5178 22.0837 38.5178H26.7495C26.7673 38.5178 26.7819 38.5324 26.7819 38.5502V43.2159Z" fill="#003A66"/>
<path d="M70.5508 67.3557H68.9421V58.1967C68.9421 54.548 66.4969 51.2818 62.996 50.2539L56.4314 48.3268C56.2464 48.1532 56.033 48.0104 55.7999 47.9066L54.437 47.2993C54.0514 47.1276 53.6403 47.0511 53.2339 47.0638V44.0077C55.391 42.4355 56.8937 40.0072 57.2193 37.2085C58.2879 36.9445 59.0825 35.9776 59.0825 34.8287V31.8736V26.2025C59.0825 24.2108 57.4925 22.5837 55.5152 22.5233C55.4084 20.5888 53.8007 19.0475 51.8399 19.0475H42.8905C42.066 19.0475 41.2747 19.1908 40.5384 19.4517C40.5452 19.3815 40.5492 19.3105 40.5492 19.2385V14.5731C40.5492 13.3599 39.5622 12.3729 38.3492 12.3729H33.6834C32.4702 12.3729 31.4832 13.3599 31.4832 14.5731V19.2388C31.4832 20.452 32.4704 21.439 33.6834 21.439H37.6005C36.8705 22.265 36.3297 23.2616 36.0485 24.3616H33.6834C32.4702 24.3616 31.4832 25.3486 31.4832 26.5618V31.2276C31.4832 32.4408 32.4704 33.4277 33.6834 33.4277H35.8294V34.8288C35.8294 35.4032 36.028 35.932 36.36 36.3503H33.6833C32.4701 36.3503 31.4831 37.3373 31.4831 38.5505V43.2163C31.4831 44.4295 32.4702 45.4163 33.6833 45.4163H38.3491C39.5622 45.4163 40.5491 44.4293 40.5491 43.2163V43.0493C40.9006 43.3965 41.2781 43.7168 41.6779 44.0082V47.0583C41.2749 47.0487 40.8681 47.1261 40.4877 47.297L39.1509 47.8972C38.9192 48.0011 38.7075 48.1436 38.5238 48.3165L31.9199 50.2548C28.4186 51.2824 25.9733 54.5485 25.9733 58.1975V58.9335C25.9733 59.5321 26.4585 60.0173 27.0571 60.0173C27.6558 60.0173 28.141 59.532 28.141 58.9335V58.1975C28.141 55.5042 29.9459 53.0933 32.5304 52.3348L37.9379 50.7477C38.0487 51.0542 38.2268 51.3415 38.4716 51.5868L42.1744 55.2945C42.178 55.2981 42.1816 55.3017 42.1852 55.3052C42.6437 55.7515 43.2374 55.9772 43.8331 55.9771C43.9722 55.9771 44.1112 55.9642 44.2488 55.9395L45.0176 57.2599L43.2281 67.3557H34.9242V65.0009C34.9242 64.4022 34.439 63.9171 33.8404 63.9171C33.2417 63.9171 32.7566 64.4024 32.7566 65.0009V67.3557H28.1414V64.0002C28.1414 63.4015 27.6562 62.9163 27.0575 62.9163C26.4589 62.9163 25.9737 63.4017 25.9737 64.0002V67.3557H21.4626V54.7074H21.5987C22.1974 54.7074 22.6826 54.222 22.6826 53.6235C22.6826 53.0249 22.1974 52.5397 21.5987 52.5397H8.54902C7.95037 52.5397 7.46518 53.025 7.46518 53.6235C7.46518 54.2222 7.95037 54.7074 8.54902 54.7074H8.68517V67.3557H4.75984V10.5972C4.75984 9.69442 5.49435 8.96006 6.39695 8.96006H42.4362C43.339 8.96006 44.0732 9.69442 44.0732 10.5972V14.9924C44.0732 15.591 44.5584 16.0762 45.1571 16.0762C45.7557 16.0762 46.2409 15.5909 46.2409 14.9924V10.5972C46.2409 8.66391 44.7912 7.06395 42.9222 6.82446V2.91475C42.9223 1.44443 41.726 0.248291 40.2557 0.248291H8.57735C7.10703 0.248291 5.91103 1.44443 5.91103 2.91475V6.82446C4.04181 7.06395 2.59216 8.66391 2.59216 10.5972V67.4637C1.10522 67.8458 0.00317383 69.1975 0.00317383 70.8019C0.00317383 72.7022 1.54908 74.2483 3.44952 74.2483H70.5509C72.4512 74.2483 73.9973 72.7022 73.9973 70.8019C73.9973 68.9016 72.4512 67.3557 70.5508 67.3557ZM8.57735 2.41612H40.2557C40.5307 2.41612 40.7545 2.63985 40.7545 2.91475V6.79223H8.07871V2.91475C8.07871 2.6397 8.30245 2.41612 8.57735 2.41612ZM66.7744 58.1967V67.3557H62.1558V65.0009C62.1558 64.4022 61.6706 63.9171 61.072 63.9171C60.4733 63.9171 59.9881 64.4024 59.9881 65.0009V67.3557H51.6887L49.8964 57.2488L50.6757 55.8522C50.8208 55.8798 50.9676 55.8948 51.1146 55.8948C51.7061 55.8948 52.297 55.6718 52.7582 55.2287L56.4626 51.6215C56.7172 51.3736 56.9018 51.0765 57.015 50.7575L62.3856 52.3342C64.9695 53.0927 66.7744 55.5035 66.7744 58.1967ZM46.7774 55.9741L46.0949 54.8018L47.5483 53.5877L48.8403 54.6925L48.1251 55.9739H46.7774V55.9741ZM53.5547 49.2794L54.918 49.8868C54.9869 49.9175 55.0071 50.0124 54.9501 50.0682L51.2511 53.6704C51.1782 53.7399 51.0659 53.7432 50.9895 53.678L49.273 52.2103L52.9667 49.3503C53.135 49.2198 53.3605 49.1928 53.5547 49.2794ZM51.84 21.2153C52.6744 21.2153 53.3531 21.894 53.3531 22.7284C53.3531 23.8096 54.2327 24.6894 55.3141 24.6894H55.4016C56.2359 24.6894 56.9147 25.3681 56.9147 26.2025V30.7896H56.204C55.8052 30.7896 55.4808 30.4653 55.4808 30.0665V29.0775C55.4808 27.3483 54.0613 26.0828 52.4987 26.0828C52.1824 26.0828 51.863 26.1338 51.5504 26.237C48.9112 27.1094 46.0039 27.1097 43.3611 26.2365C41.4234 25.5962 39.4312 27.0361 39.4312 29.0771V30.0665C39.4312 30.4653 39.1067 30.7896 38.7079 30.7896H37.9973V26.1084C37.9973 23.4104 40.1923 21.2153 42.8905 21.2153H51.84ZM33.6512 19.2387V14.5731C33.6512 14.5552 33.6658 14.5407 33.6837 14.5407H38.3495C38.3673 14.5407 38.3819 14.5553 38.3819 14.5731V19.2388C38.3819 19.2568 38.3673 19.2712 38.3495 19.2712H33.6837C33.6658 19.2711 33.6512 19.2566 33.6512 19.2387ZM33.6512 31.2273V26.5616C33.6512 26.5437 33.6658 26.5293 33.6837 26.5293H35.8297V31.2598H33.6837C33.6658 31.2596 33.6512 31.2452 33.6512 31.2273ZM38.3817 43.216C38.3817 43.2339 38.3671 43.2484 38.3493 43.2484H33.6836C33.6657 43.2484 33.6511 43.2339 33.6511 43.216V38.5502C33.6511 38.5323 33.6657 38.5179 33.6836 38.5179H37.9371C38.0545 38.9734 38.2031 39.4161 38.3816 39.8431V43.216H38.3817ZM39.8098 36.5517C39.7585 35.7444 39.0869 35.112 38.281 35.112C38.1247 35.112 37.9976 34.9848 37.9976 34.8285V32.9574H38.7082C40.3022 32.9574 41.5991 31.6606 41.5991 30.0665V29.0771C41.5991 28.5212 42.1408 28.1164 42.6847 28.296C45.7629 29.3129 49.1532 29.3127 52.2308 28.2953C52.7636 28.1194 53.3132 28.5146 53.3132 29.0775V30.0665C53.3132 31.6606 54.6101 32.9574 56.2042 32.9574H56.9148V34.8285C56.9148 34.9848 56.7876 35.112 56.6314 35.112C55.8253 35.112 55.1538 35.7443 55.1025 36.5521C54.8489 40.5747 51.4903 43.7257 47.4561 43.7257C43.4221 43.7257 40.0635 40.5747 39.8098 36.5517ZM47.4563 45.8934C48.7274 45.8934 49.9458 45.6484 51.0662 45.2039V48.0799L47.5447 50.8068L43.846 48.043V45.204C44.9666 45.6484 46.185 45.8934 47.4563 45.8934ZM40.0061 50.0546C39.9474 49.9959 39.9742 49.9035 40.0392 49.8744L41.3758 49.2743C41.567 49.1887 41.7898 49.213 41.958 49.3385L45.8089 52.2161L43.958 53.762C43.8823 53.8252 43.7723 53.8221 43.7005 53.7552L40.0061 50.0546ZM47.063 58.1417H47.853L49.4871 67.3557H45.4299L47.063 58.1417ZM10.853 54.7074H19.2946V67.3557H10.853V54.7074ZM70.5508 72.0805H3.44952C2.7445 72.0805 2.171 71.507 2.171 70.8019C2.171 70.0969 2.7445 69.5236 3.44952 69.5236H70.5509C71.2559 69.5236 71.8294 70.0971 71.8294 70.8019C71.8294 71.5068 71.2558 72.0805 70.5508 72.0805Z" fill="#003A66"/>
</svg>
