<svg width="71" height="71" viewBox="0 0 71 71" fill="none" xmlns="http://www.w3.org/2000/svg">
<path d="M42.0215 9.34542C41.2757 9.16837 40.5278 9.62022 40.3484 10.3541C40.1689 11.0882 40.627 11.8267 41.3715 12.0036C52.6111 14.675 60.4609 24.5124 60.4609 35.9265C60.4609 49.496 49.2636 60.5357 35.5 60.5357C21.7365 60.5357 10.5392 49.496 10.5392 35.9265C10.5392 24.5128 18.3885 14.6754 29.6276 12.0038C30.3721 11.8267 30.8301 11.0882 30.6507 10.3543C30.4711 9.62022 29.7217 9.16891 28.9776 9.34555C23.0314 10.7591 17.6441 14.1479 13.8084 18.8878C9.85525 23.7726 7.76575 29.6645 7.76575 35.9265C7.76575 51.0037 20.2073 63.2701 35.5 63.2701C50.7927 63.2701 63.2343 51.0039 63.2343 35.9265C63.2343 29.6643 61.1448 23.7723 57.1914 18.8874C53.3555 14.1476 47.968 10.7588 42.0215 9.34542Z" fill="#003A66"/>
<path d="M70.1639 32.638L68.5416 29.6539L68.8122 25.9647C69.0723 23.6 68.1156 21.2922 66.2497 19.7872L63.5567 17.6131L62.4974 14.4669C61.9041 12.0614 60.0511 10.1279 57.6468 9.41193L54.3227 8.42182L51.777 5.52066C50.2707 3.77381 47.9908 2.86518 45.6779 3.08926L42.2278 3.42818L38.8363 1.75079C36.7462 0.652257 34.2543 0.6513 32.164 1.75065L29.1373 3.34998L25.3956 3.08311C22.9961 2.82662 20.6562 3.76998 19.1298 5.60952L16.9246 8.26459L13.7336 9.30898C11.2935 9.89386 9.33244 11.7208 8.60622 14.0911L7.6021 17.3684L4.65949 19.8784C2.88783 21.3634 1.96566 23.6108 2.19322 25.8915L2.53699 29.2931L0.835631 32.6368C-0.278732 34.6976 -0.279564 37.1542 0.835353 39.2153L2.45767 42.1993L2.18698 45.8885C1.92697 48.2532 2.88367 50.5608 4.74949 52.066L7.44249 54.2401L8.5018 57.3862C9.09489 59.7918 10.948 61.7252 13.3524 62.4412L16.6763 63.4312L19.2222 66.3325C20.7286 68.0792 23.0075 68.9884 25.3212 68.7639L28.7712 68.425L32.1625 70.1021C33.2079 70.6517 34.3539 70.9267 35.4999 70.9267C36.645 70.9267 37.7901 70.6521 38.835 70.1027L41.8618 68.5033L45.6036 68.7702C48.0019 69.0261 50.3427 68.0833 51.8694 66.2438L54.0746 63.5887L57.2658 62.5445C59.7056 61.9596 61.6666 60.1326 62.3928 57.7622L63.3971 54.4851L66.3398 51.975C68.1115 50.49 69.0336 48.2426 68.8061 45.9618L68.4622 42.5605L70.1634 39.2168C71.2777 37.1559 71.2789 34.6991 70.1639 32.638ZM67.7102 37.9408C67.704 37.952 67.6981 37.9632 67.6924 37.9744L65.8029 41.6884C65.6851 41.9197 65.6365 42.1793 65.6624 42.437L66.0461 46.231C66.1845 47.6182 65.6227 48.9868 64.5343 49.8993L61.2786 52.6763C61.08 52.8457 60.9344 53.067 60.8585 53.3147L59.7379 56.9713C59.2913 58.4292 58.0778 59.5502 56.5711 59.8965C56.5299 59.9059 56.4891 59.9173 56.4491 59.9304L52.8195 61.1181C52.5703 61.1997 52.3497 61.3493 52.1834 61.5496L49.7234 64.5117C48.789 65.6377 47.3536 66.2127 45.8848 66.0498C45.8665 66.0477 45.8481 66.0461 45.8299 66.0447L41.6612 65.7475C41.3987 65.7289 41.1374 65.7839 40.9061 65.9061L37.5275 67.6913C36.2534 68.3613 34.7316 68.3585 33.4565 67.6836C33.4452 67.6777 33.4338 67.6718 33.4224 67.6662L29.6556 65.8033C29.462 65.7076 29.249 65.6581 29.0338 65.6581C28.988 65.6581 28.9421 65.6603 28.8962 65.6648L25.0481 66.0428C23.6411 66.1798 22.2529 65.6254 21.3274 64.5524L18.5107 61.3426C18.339 61.1468 18.1144 61.0031 17.8629 60.9283L14.1542 59.8238C12.6753 59.3834 11.5384 58.187 11.1872 56.7014C11.1776 56.6608 11.1661 56.6207 11.1528 56.5811L9.94814 53.0025C9.86549 52.7568 9.71379 52.5394 9.51063 52.3755L6.50632 49.95C5.36422 49.0288 4.78097 47.614 4.94626 46.1656C4.94834 46.1476 4.95001 46.1295 4.9514 46.1113L5.25287 42.0012C5.27186 41.7431 5.21598 41.4849 5.09201 41.2567L3.2811 37.926C2.60161 36.6698 2.60452 35.1695 3.28886 33.9124C3.29497 33.9013 3.30079 33.8901 3.30648 33.8789L5.19601 30.1649C5.31374 29.9336 5.36242 29.674 5.33635 29.4164L4.95292 25.6222C4.81453 24.2349 5.37628 22.8664 6.46472 21.9539L9.72044 19.1769C9.91902 19.0075 10.0646 18.7861 10.1406 18.5384L11.2611 14.8818C11.7077 13.4238 12.9213 12.303 14.4281 11.9565C14.4692 11.9471 14.5099 11.9357 14.5501 11.9226L18.1795 10.7348C18.4287 10.6533 18.6492 10.5038 18.8155 10.3035L21.2758 7.34133C22.2102 6.21546 23.6455 5.64069 25.1142 5.80339C25.1325 5.80544 25.1508 5.80708 25.1691 5.80845L29.3379 6.10567C29.599 6.12399 29.8615 6.06931 30.0929 5.94708L33.4714 4.16181C34.7453 3.49189 36.2673 3.49463 37.5422 4.16947C37.5534 4.17535 37.5648 4.18123 37.5763 4.18683L41.3433 6.04976C41.578 6.16583 41.8413 6.21395 42.1026 6.18811L45.9508 5.81009C47.3578 5.67337 48.746 6.22749 49.6715 7.30059L52.4882 10.5105C52.6599 10.7062 52.8845 10.8498 53.1359 10.9247L56.8447 12.0294C58.3235 12.4698 59.4603 13.6663 59.8117 15.1518C59.8213 15.1924 59.8328 15.2324 59.8461 15.2721L61.0509 18.8504C61.1337 19.0961 61.2852 19.3135 61.4884 19.4774L64.4928 21.9029C65.6349 22.8241 66.218 24.2387 66.0528 25.6873C66.0507 25.7053 66.049 25.7234 66.0478 25.7416L65.7463 29.8517C65.7273 30.1098 65.7832 30.368 65.907 30.5961L67.7179 33.927C68.3975 35.1834 68.3946 36.6838 67.7102 37.9408Z" fill="#003A66"/>
<path d="M29.4819 28.4776C29.2594 28.0154 28.7831 27.6951 28.2298 27.6951H20.9028C20.1369 27.6951 19.5161 28.3072 19.5161 29.0623V49.7568C19.5161 50.5119 20.1369 51.124 20.9028 51.124H28.2298C28.8046 51.124 29.2976 50.7793 29.5078 50.2881C30.5649 50.4344 31.6539 50.7308 32.7876 51.0403C34.4922 51.5055 36.2546 51.9867 38.0857 51.9867H46.0911C48.5658 51.9867 50.5711 50.6932 51.4554 48.5263C51.8862 47.4706 51.9616 46.3749 51.7099 45.4577C52.1703 45.0496 52.5594 44.5415 52.8537 43.9483C53.4501 42.7463 53.5692 41.3946 53.2311 40.2561C53.8612 39.6559 54.3313 38.8633 54.5771 37.9289C54.8068 37.0553 54.8028 36.1932 54.5984 35.4464C55.8492 34.7209 56.6917 33.403 56.6917 31.9179C56.6917 30.7532 56.2317 29.68 55.3963 28.896C54.5943 28.1433 53.5259 27.7286 52.3883 27.7286L41.1045 27.7289C40.2472 26.6686 39.9804 25.2298 40.4685 24.0717C41.4703 21.6947 41.4082 19.6826 40.2676 17.5479C39.4209 15.9635 37.1441 14.386 35.2306 14.6553C34.074 14.8183 33.2371 15.6243 32.9916 16.8115C32.9194 17.1608 32.8996 17.5382 32.8767 17.9751C32.8201 19.053 32.7424 20.5293 31.7986 22.312C31.159 23.5204 30.9455 24.7633 30.7572 25.8599C30.4875 27.4308 30.3567 28.1876 29.4819 28.4776ZM22.2895 30.4295H26.8431V48.3896H22.2895V30.4295ZM33.4918 26.3163C33.6534 25.3755 33.8203 24.4027 34.2574 23.5773C35.4809 21.2662 35.5845 19.2946 35.6465 18.1166C35.663 17.8029 35.6785 17.5065 35.7093 17.3574C35.7095 17.3565 35.7097 17.3554 35.71 17.3544C36.1911 17.361 37.3749 18.0012 37.8138 18.8226C38.5734 20.244 38.5987 21.3824 37.9075 23.0228C37.2842 24.5018 37.3311 26.218 37.9476 27.7439C37.273 27.8365 36.7532 28.4059 36.7532 29.0965C36.7532 29.8514 37.3742 30.4637 38.1399 30.4637L52.3883 30.4632C52.8108 30.4632 53.2001 30.6101 53.4841 30.8767C53.6822 31.0625 53.9182 31.3942 53.9182 31.9181C53.9182 32.6514 53.2364 33.2855 52.4292 33.3029L48.8599 33.3794C48.0943 33.3959 47.4871 34.0211 47.5037 34.776C47.5202 35.5209 48.1376 36.1135 48.8896 36.1135C48.8997 36.1135 48.91 36.1135 48.9204 36.1133L51.8929 36.0496C51.9899 36.3204 52.0404 36.8371 51.8362 37.4289C51.6625 37.9323 51.1961 38.7767 50.023 38.7767C49.2572 38.7767 48.6363 39.3888 48.6363 40.1439C48.6363 40.8989 49.2572 41.511 50.023 41.511C50.2332 41.511 50.4395 41.4982 50.6414 41.4729C50.6586 41.8598 50.5779 42.313 50.3626 42.747C50.108 43.2599 49.6047 43.8716 48.6532 43.8716C47.8874 43.8716 47.2665 44.4837 47.2665 45.2388C47.2665 45.9939 47.8874 46.606 48.6532 46.606C48.7967 46.606 48.9387 46.5997 49.0789 46.5872C49.0753 46.8496 49.0212 47.1776 48.8699 47.5363C48.6525 48.0523 47.9462 49.2523 46.0914 49.2523H38.086C36.6318 49.2523 35.1241 48.8408 33.528 48.4051C32.2579 48.0583 30.9557 47.7031 29.6168 47.5445V31.2446C32.7388 30.6868 33.1693 28.195 33.4918 26.3163Z" fill="#003A66"/>
<path d="M35.5003 11.3173C36.2662 11.3173 36.887 10.7052 36.887 9.95007C36.887 9.19498 36.2662 8.58289 35.5003 8.58289H35.4993C34.7334 8.58289 34.1132 9.19498 34.1132 9.95007C34.1132 10.7052 34.7344 11.3173 35.5003 11.3173Z" fill="#003A66"/>
</svg>
