<svg width="70" height="70" viewBox="0 0 70 70" fill="none" xmlns="http://www.w3.org/2000/svg">
<path d="M69.4239 8.76126C69.3823 8.72216 61.1599 0.880654 61.1599 0.880654C60.8456 0.579053 60.5205 0.267334 59.9135 0.267334H26.8111C25.8443 0.267334 25.0576 1.05388 25.0576 2.02075V7.40515L13.3907 9.40507C12.4555 9.56913 11.8266 10.4641 11.9886 11.3983L12.5808 14.8507C8.78859 16.1268 4.89525 17.4424 1.13671 18.7925C0.248586 19.1172 -0.217488 20.1047 0.0994259 20.9981L7.57589 41.7816C7.72628 42.1998 8.12044 42.4602 8.54085 42.4602C8.65597 42.4602 8.77327 42.4407 8.88785 42.3994C9.42078 42.2077 9.69736 41.6204 9.50568 41.0874L2.13982 20.6114C5.68083 19.3436 9.3479 18.1027 12.9317 16.8964L16.4551 37.4377L20.5093 61.0945C20.6558 61.9295 21.3898 62.5237 22.2183 62.5237C22.3121 62.5237 22.4073 62.5161 22.5027 62.5003L33.4834 60.6159L42.0639 59.1451L29.1589 63.7836L18.9822 67.4426L11.0788 45.4597C10.8872 44.9268 10.3 44.6502 9.76695 44.8417C9.23402 45.0333 8.95743 45.6206 9.14898 46.1536L17.1645 68.4488C17.4209 69.1499 18.0851 69.5858 18.7871 69.5858C18.9811 69.5858 19.1781 69.5524 19.3701 69.4823L29.8524 65.7135L53.6544 57.1585L58.2015 56.379H68.2464C69.2132 56.379 69.9999 55.5907 69.9999 54.6217V9.91667C70 9.30294 69.667 8.98985 69.4239 8.76126ZM66.7072 9.00407H61.5761L61.449 9.00462C61.2033 9.00626 60.6281 9.0105 60.4822 8.86558C60.4486 8.83208 60.4092 8.72024 60.4092 8.51257L60.3973 2.98708L66.7072 9.00407ZM67.9493 54.328H27.1084V34.3442C27.1084 33.7779 26.6493 33.3188 26.083 33.3188C25.5167 33.3188 25.0576 33.7779 25.0576 34.3442V54.6214C25.0576 55.5903 25.8443 56.3788 26.8111 56.3788H46.0628L33.1367 58.5944L22.4751 60.4241L18.4763 37.091L14.0646 11.3701L25.0574 9.48573V29.5864C25.0574 30.1527 25.5165 30.6118 26.0828 30.6118C26.6491 30.6118 27.1082 30.1527 27.1082 29.5864V2.31798H58.345L58.3584 8.51489C58.3584 9.26603 58.5869 9.8736 59.0374 10.3209C59.7296 11.0082 60.7081 11.0561 61.3155 11.0561C61.3678 11.0561 61.4172 11.0557 61.4636 11.0554L67.9493 11.055V54.328Z" fill="#003A66"/>
<path d="M32.051 16.1891C32.051 16.7554 32.5101 17.2145 33.0764 17.2145H62.3938C62.9601 17.2145 63.4192 16.7554 63.4192 16.1891C63.4192 15.6228 62.9601 15.1637 62.3938 15.1637H33.0764C32.5101 15.1637 32.051 15.6228 32.051 16.1891Z" fill="#003A66"/>
<path d="M62.3938 22.4482H33.0764C32.5101 22.4482 32.051 22.9073 32.051 23.4736C32.051 24.0399 32.5101 24.499 33.0764 24.499H62.3938C62.9601 24.499 63.4192 24.0399 63.4192 23.4736C63.4192 22.9073 62.9601 22.4482 62.3938 22.4482Z" fill="#003A66"/>
<path d="M62.3938 29.7329H33.0764C32.5101 29.7329 32.051 30.192 32.051 30.7583C32.051 31.3246 32.5101 31.7837 33.0764 31.7837H62.3938C62.9601 31.7837 63.4192 31.3246 63.4192 30.7583C63.4192 30.192 62.9601 29.7329 62.3938 29.7329Z" fill="#003A66"/>
<path d="M62.3938 37.0177H33.0764C32.5101 37.0177 32.051 37.4768 32.051 38.0431C32.051 38.6094 32.5101 39.0685 33.0764 39.0685H62.3938C62.9601 39.0685 63.4192 38.6094 63.4192 38.0431C63.4192 37.4768 62.9601 37.0177 62.3938 37.0177Z" fill="#003A66"/>
<path d="M62.3938 44.3024H33.0764C32.5101 44.3024 32.051 44.7615 32.051 45.3278C32.051 45.894 32.5101 46.3531 33.0764 46.3531H62.3938C62.9601 46.3531 63.4192 45.894 63.4192 45.3278C63.4192 44.7615 62.9601 44.3024 62.3938 44.3024Z" fill="#003A66"/>
</svg>
