<svg width="65" height="83" viewBox="0 0 65 83" fill="none" xmlns="http://www.w3.org/2000/svg">
<path d="M63.5743 34.5955C65.1794 32.1062 64.883 28.8673 62.8534 26.719C61.9589 25.7722 61.5851 24.4419 61.8531 23.1603C62.4617 20.2521 61.0294 17.3403 58.3702 16.0793C57.1982 15.5236 56.375 14.4198 56.1675 13.1267C55.6972 10.1923 53.3226 8.0009 50.3931 7.7975C49.102 7.70781 47.9404 6.97974 47.2856 5.84968C45.7997 3.28574 42.8043 2.11067 39.9994 2.99217C38.7635 3.38071 37.4206 3.12638 36.4067 2.31231C34.1063 0.464745 30.8933 0.464745 28.5931 2.31231C27.5793 3.1267 26.2362 3.38071 25.0004 2.99217C22.1961 2.11051 19.1999 3.28558 17.7142 5.84968C17.0594 6.97974 15.8979 7.70781 14.6068 7.7975C11.6772 8.0009 9.30272 10.1925 8.83222 13.1267C8.62498 14.4198 7.80153 15.5236 6.62972 16.0793C3.97064 17.3404 2.53843 20.2522 3.14672 23.1603C3.41487 24.4419 3.04088 25.7723 2.14656 26.7192C0.117131 28.8675 -0.179501 32.1065 1.42563 34.5958C2.13295 35.6927 2.25904 37.0701 1.76276 38.28C0.636827 41.0254 1.51628 44.1541 3.90103 45.8883C4.95213 46.6527 5.56106 47.8909 5.53005 49.2005C5.45997 52.1722 7.39637 54.768 10.239 55.513C11.0781 55.7329 11.8071 56.2244 12.3295 56.8948L5.79188 72.8725C4.87572 75.1117 6.94929 77.4174 9.2358 76.7068L16.3932 74.4832C16.6024 74.4187 16.828 74.5133 16.9303 74.7085L20.4382 81.4044C21.5603 83.5463 24.6366 83.3951 25.5516 81.1585L32.3656 64.5053C32.455 64.5023 32.5443 64.5023 32.6337 64.5053L39.4477 81.1585C40.3645 83.3986 43.4406 83.5432 44.5613 81.4045L48.0691 74.7085C48.1713 74.5132 48.3971 74.4185 48.6062 74.4834L55.7635 76.707C58.0513 77.4179 60.1233 75.1105 59.2076 72.8727L52.6698 56.895C53.1922 56.2246 53.9212 55.7331 54.7603 55.5132C57.6029 54.7683 59.5392 52.1725 59.4692 49.2006C59.4382 47.891 60.0473 46.6529 61.0984 45.8886C63.4833 44.1543 64.3625 41.0256 63.2365 38.2802C62.741 37.0697 62.8671 35.6924 63.5743 34.5955ZM23.3597 80.2389C23.2108 80.6028 22.7163 80.625 22.5348 80.2786L19.027 73.5828C18.3924 72.3715 16.9922 71.7847 15.6976 72.1867L8.54018 74.4103C8.16888 74.5253 7.83586 74.155 7.98457 73.7916L13.7846 59.6157C15.0933 61.4305 17.2809 62.4419 19.5839 62.1696C20.8691 62.0179 22.1431 62.5173 22.9919 63.5061C24.2232 64.9411 25.9582 65.7028 27.7283 65.7026C28.2882 65.7026 28.8514 65.6234 29.4035 65.4682L23.3597 80.2389ZM56.4601 74.4102L49.3028 72.1866C48.0082 71.7846 46.6077 72.3715 45.9733 73.5826L42.4654 80.2785C42.2843 80.6246 41.7891 80.6021 41.6404 80.2387L35.5978 65.4709C37.8948 66.1163 40.3879 65.394 42.0084 63.5058C42.857 62.5168 44.1305 62.0171 45.4164 62.1693C47.7216 62.442 49.9078 61.4303 51.2156 59.6156L57.016 73.791C57.165 74.1558 56.8301 74.5247 56.4601 74.4102ZM61.5874 33.2825C60.4512 35.0447 60.2487 37.2571 61.0457 39.2008C61.7466 40.9098 61.1994 42.8573 59.7146 43.9371C58.0263 45.1648 57.0479 47.1538 57.0976 49.2575C57.1413 51.1076 55.9358 52.7236 54.1661 53.1872C52.5108 53.6211 51.1209 54.7118 50.2873 56.1866C50.2851 56.191 50.2827 56.1951 50.2805 56.1993C50.1038 56.5137 49.9506 56.8446 49.8274 57.1913C49.208 58.9324 47.5085 59.9993 45.6918 59.7837C43.6274 59.5393 41.5804 60.3422 40.2172 61.9308C39.0185 63.3277 37.0522 63.6997 35.4357 62.8357C34.8859 62.5416 34.3037 62.3376 33.7092 62.2196C33.7043 62.2184 33.6994 62.2173 33.6945 62.2164C32.9047 62.0615 32.0931 62.0616 31.3034 62.217C31.3005 62.2176 31.2979 62.2183 31.295 62.2188C30.6991 62.3368 30.1158 62.5411 29.5647 62.8357C27.9482 63.6999 25.9821 63.3277 24.7834 61.9308C23.5813 60.5302 21.8485 59.7407 20.0401 59.7407C19.7974 59.7407 19.553 59.7549 19.3086 59.7839C17.4937 59.999 15.7922 58.9327 15.1728 57.1915C15.0496 56.845 14.8968 56.5146 14.7202 56.2004C14.7175 56.1953 14.7149 56.1905 14.7122 56.1854C13.8784 54.7111 12.4889 53.6209 10.8341 53.1872C9.06447 52.7234 7.85912 51.1076 7.90278 49.2576C7.95246 47.1538 6.97413 45.165 5.28578 43.9371C3.80121 42.8575 3.25367 40.9098 3.95466 39.2006C4.75169 37.257 4.54919 35.0446 3.41298 33.2824C2.41392 31.7329 2.59839 29.7165 3.86196 28.3792C5.2986 26.8583 5.8993 24.7212 5.46867 22.6626C5.08993 20.8522 5.98156 19.0395 7.63684 18.2544C9.5193 17.3617 10.8419 15.5886 11.1751 13.5114C11.4679 11.6847 12.9461 10.3204 14.7697 10.1939C16.8436 10.0499 18.7098 8.88032 19.7615 7.06494C20.6865 5.46883 22.5521 4.73755 24.2972 5.28625C26.2825 5.91038 28.4399 5.50214 30.0685 4.19414C31.5002 3.0439 33.5005 3.0439 34.9327 4.19414C36.5611 5.50198 38.7182 5.91054 40.7038 5.28625C42.4496 4.73739 44.3148 5.46899 45.2395 7.06494C46.2912 8.88016 48.1574 10.0498 50.2313 10.1939C52.0549 10.3206 53.5331 11.6848 53.826 13.5114C54.1592 15.5886 55.4819 17.3617 57.3642 18.2546C59.0196 19.0395 59.9111 20.8522 59.5324 22.6626C59.1017 24.7212 59.7023 26.8583 61.1391 28.3792C62.402 29.7165 62.5865 31.7329 61.5874 33.2825Z" fill="#003A66"/>
<path d="M10.0276 31.6971C10.6773 31.778 11.2701 31.31 11.35 30.6518C12.6602 19.8709 21.7529 11.7412 32.5002 11.7412C43.2526 11.7412 52.3456 19.8752 53.6516 30.6619C53.7253 31.2706 54.2369 31.717 54.8277 31.717C54.8759 31.717 54.9245 31.7139 54.9735 31.7079C55.6239 31.6271 56.0865 31.028 56.0069 30.3696C54.5553 18.3801 44.4496 9.33899 32.5002 9.33899C20.5563 9.33899 10.4512 18.3753 8.99482 30.3584C8.91492 31.0168 9.37719 31.6161 10.0276 31.6971Z" fill="#003A66"/>
<path d="M54.9736 34.9213C54.3251 34.8412 53.7313 35.309 53.6516 35.9674C52.3461 46.7546 43.2529 54.8891 32.5 54.8891C21.752 54.8891 12.6593 46.7586 11.3495 35.9769C11.2696 35.3186 10.678 34.8508 10.0271 34.9314C9.37689 35.0122 8.91431 35.6117 8.99436 36.2701C10.4501 48.2541 20.5552 57.2911 32.4999 57.2911C44.4499 57.2911 54.5556 48.2495 56.0066 36.2594C56.0865 35.6011 55.6239 35.002 54.9736 34.9213Z" fill="#003A66"/>
<path d="M49.2537 28.3582C48.9521 27.4187 48.1273 26.7887 47.152 26.7533L37.8494 26.4155L34.6574 17.5633C34.3228 16.6354 33.4761 16.0358 32.5003 16.0358C31.5245 16.0358 30.6778 16.6354 30.3432 17.5633L27.1511 26.4155L17.8486 26.7533C16.8735 26.7887 16.0484 27.4187 15.7469 28.3582C15.4454 29.2977 15.7469 30.2983 16.5153 30.9072L23.845 36.7159L21.2878 45.7769C21.0196 46.7268 21.3566 47.7158 22.1462 48.2965C22.9348 48.8766 23.9681 48.8965 24.7782 48.3442L32.5001 43.082L40.2222 48.3439C41.0314 48.8955 42.0646 48.8769 42.8542 48.2962C43.6438 47.7156 43.9806 46.7267 43.7125 45.7766L41.1553 36.7158L48.485 30.9071C49.2535 30.2982 49.5552 29.2977 49.2537 28.3582ZM39.6523 34.8564C38.9127 35.4425 38.6015 36.412 38.8597 37.3258L41.3736 46.2329L33.7827 41.0603C33.393 40.7948 32.9466 40.662 32.5001 40.662C32.0537 40.662 31.6072 40.7948 31.2177 41.0602L23.6267 46.2327L26.1405 37.3258C26.3985 36.4116 26.0875 35.4425 25.3481 34.8564L18.1426 29.1462L27.2875 28.814C28.226 28.7799 29.0404 28.1807 29.3623 27.2879L32.5003 18.5859L35.6382 27.2879C35.9603 28.1807 36.7746 28.7799 37.7131 28.8138L46.8577 29.146L39.6523 34.8564Z" fill="#003A66"/>
</svg>
