<svg width="103" height="103" viewBox="0 0 103 103" fill="none" xmlns="http://www.w3.org/2000/svg">
<circle cx="51.5" cy="51.5" r="51" stroke="url(#paint0_linear)"/>
<g clip-path="url(#clip0)">
<path d="M51.6162 35.5249C44.7608 35.5249 39.1836 41.1015 39.1836 47.9571C39.1836 50.1026 39.7474 52.2266 40.8096 54.0962C42.5271 57.7 43.3194 61.6324 43.6902 64.5491H41.2027C40.7847 64.5491 40.4451 64.8886 40.4451 65.3067V72.0306C40.4451 73.5451 41.677 74.777 43.1915 74.777H45.1831C45.519 76.0547 46.6839 77.0001 48.0658 77.0001H54.7005C56.0828 77.0001 57.2471 76.0547 57.583 74.7763H59.5749C61.0893 74.7763 62.3212 73.5445 62.3212 72.03V65.306C62.3212 64.8879 61.9824 64.5483 61.5634 64.5483H59.5422C59.9121 61.6361 60.7006 57.7136 62.3876 54.1628C63.4735 52.2815 64.048 50.1355 64.048 47.9564C64.0488 41.1017 58.471 35.5249 51.6162 35.5249ZM60.8061 72.0304C60.8061 72.7088 60.2542 73.2614 59.5751 73.2614L56.9234 73.2623C56.5053 73.2623 56.1656 73.6017 56.1656 74.0199C56.1656 74.8278 55.5086 75.4848 54.7007 75.4848H48.066C47.2586 75.4848 46.6007 74.8278 46.6007 74.0192C46.6007 73.6011 46.2615 73.2614 45.8431 73.2614H43.1917C42.5128 73.2614 41.9604 72.7086 41.9604 72.0304V66.064H44.5448H58.6874H60.8063V72.0304H60.8061ZM49.7952 55.9155C49.0147 54.9671 47.7964 54.7466 47.7268 54.7362C47.3107 54.6668 46.9237 54.9465 46.8545 55.3584C46.7857 55.7713 47.0646 56.1613 47.4773 56.2307C47.4903 56.2323 48.7471 56.4541 48.906 57.5277C48.9289 57.6793 48.9486 57.8821 48.9665 58.1086H48.1547C47.2294 58.1086 46.6054 57.8518 46.247 57.3221C45.6059 56.3749 45.8198 54.6815 46.1423 53.4061C46.8752 54.0305 47.6842 54.1652 48.2857 54.2659C48.4827 54.2984 48.6684 54.3265 48.832 54.3784C49.2571 54.5131 49.5219 54.7379 49.6659 55.0827C49.7671 55.3251 49.8004 55.6129 49.7952 55.9155ZM52.6144 48.5981C52.8883 47.9389 53.4031 47.4972 54.189 47.2471C54.4419 47.1667 54.7645 47.1131 55.1048 47.0562C56.1888 46.8761 57.5863 46.6433 58.7568 45.3145C59.3725 47.4283 59.9443 50.7149 58.7287 52.5126C58.0814 53.4708 56.9857 53.9369 55.3802 53.9369H53.6437C53.6815 53.3635 53.7259 52.8786 53.7775 52.5325C54.0677 50.5688 56.2709 50.1554 56.3745 50.1372C56.7859 50.0676 57.0639 49.678 56.9945 49.266C56.9267 48.8539 56.5373 48.5735 56.1231 48.6433C56.0003 48.6636 53.4234 49.125 52.5309 51.3782C52.3333 50.4012 52.2877 49.3821 52.6144 48.5981ZM61.048 53.4597C59.2153 57.3106 58.3866 61.5044 58.0124 64.5496H53.4059C53.4059 64.4787 53.4083 59.1576 53.5629 55.4531H55.3791C57.4959 55.4531 59.0452 54.7494 59.9833 53.3622C62.294 49.9431 59.7895 43.6009 59.6814 43.3326C59.5703 43.0563 59.307 42.8706 59.0089 42.8585C58.7092 42.8425 58.4333 43.0094 58.2995 43.2769C57.3658 45.145 56.0887 45.3571 54.8546 45.5634C54.4594 45.6284 54.0856 45.6907 53.7291 45.8042C52.5091 46.1918 51.6623 46.9379 51.213 48.02C50.2086 50.4406 51.6255 53.8119 52.0776 54.7775C51.893 58.4961 51.8897 64.2417 51.8897 64.5496H50.6526C50.6474 63.394 50.6258 60.8273 50.5367 58.9771C50.8766 58.2446 51.7343 56.1153 51.0647 54.5031C50.7501 53.7456 50.1366 53.2031 49.2897 52.9331C49.0433 52.854 48.7845 52.8125 48.5328 52.7703C47.7472 52.6395 47.0689 52.5269 46.5356 51.4597C46.4024 51.1929 46.1317 51.0267 45.8265 51.0414C45.5288 51.0535 45.2661 51.2392 45.1547 51.5159C44.9764 51.9587 43.4604 55.908 44.9885 58.1689C45.6407 59.1338 46.7053 59.6229 48.1525 59.6229H49.0478C49.1129 61.3462 49.1315 63.5138 49.1358 64.5489H45.2183C44.8432 61.4986 44.0126 57.299 42.1749 53.4414C42.1641 53.4178 42.1422 53.3711 42.1286 53.348C41.1923 51.7034 40.6965 49.8389 40.6965 47.9562C40.6965 41.9364 45.5936 37.0389 51.6141 37.0389C57.6336 37.0389 62.5314 41.9364 62.5314 47.9562C62.5335 49.8709 62.0298 51.7552 61.048 53.4597Z" fill="url(#paint1_linear)"/>
<path d="M50.8584 26.7576V32.3449C50.8584 32.7629 51.1976 33.1025 51.616 33.1025C52.0341 33.1025 52.3737 32.7629 52.3737 32.3449V26.7576C52.3737 26.3394 52.0341 26 51.616 26C51.1976 26 50.8584 26.3396 50.8584 26.7576Z" fill="url(#paint2_linear)"/>
<path d="M66.5484 32.2824C66.2517 31.986 65.7737 31.986 65.4771 32.2824L61.5263 36.2331C61.2295 36.5296 61.2295 37.008 61.5263 37.3044C61.6736 37.4525 61.8673 37.5264 62.0621 37.5264C62.2558 37.5264 62.4497 37.4525 62.5978 37.3044L66.5486 33.3536C66.845 33.0572 66.845 32.5779 66.5484 32.2824Z" fill="url(#paint3_linear)"/>
<path d="M36.6159 32.1178C36.3195 32.4138 36.3195 32.8927 36.6159 33.1893L40.5666 37.1401C40.7143 37.2877 40.9085 37.3621 41.1024 37.3621C41.2963 37.3621 41.49 37.2877 41.6381 37.1401C41.9343 36.8437 41.9343 36.3652 41.6381 36.0688L37.6869 32.1178C37.3909 31.8214 36.9112 31.8214 36.6159 32.1178Z" fill="url(#paint4_linear)"/>
<path d="M30.334 47.0505C30.334 47.4686 30.6732 47.8081 31.0915 47.8081H36.6789C37.0971 47.8081 37.4365 47.4684 37.4365 47.0505C37.4365 46.6322 37.0968 46.293 36.6789 46.293H31.0915C30.6725 46.293 30.334 46.6315 30.334 47.0505Z" fill="url(#paint5_linear)"/>
<path d="M71.9077 46.5254H66.3203C65.9021 46.5254 65.5625 46.865 65.5625 47.2829C65.5625 47.7015 65.9021 48.0405 66.3203 48.0405H71.9077C72.3258 48.0405 72.6652 47.7013 72.6652 47.2829C72.6652 46.8648 72.3256 46.5254 71.9077 46.5254Z" fill="url(#paint6_linear)"/>
</g>
<defs>
<linearGradient id="paint0_linear" x1="13.1705" y1="8.58332" x2="133.411" y2="16.083" gradientUnits="userSpaceOnUse">
<stop offset="0.0119048" stop-color="#FAC336"/>
<stop offset="1" stop-color="#F6A103"/>
</linearGradient>
<linearGradient id="paint1_linear" x1="42.363" y1="38.9812" x2="71.4616" y2="40.0692" gradientUnits="userSpaceOnUse">
<stop offset="0.0119048" stop-color="#FAC336"/>
<stop offset="1" stop-color="#F6A103"/>
</linearGradient>
<linearGradient id="paint2_linear" x1="51.0522" y1="26.5919" x2="52.8277" y2="26.6155" gradientUnits="userSpaceOnUse">
<stop offset="0.0119048" stop-color="#FAC336"/>
<stop offset="1" stop-color="#F6A103"/>
</linearGradient>
<linearGradient id="paint3_linear" x1="62.0028" y1="32.5156" x2="68.3851" y2="32.9137" gradientUnits="userSpaceOnUse">
<stop offset="0.0119048" stop-color="#FAC336"/>
<stop offset="1" stop-color="#F6A103"/>
</linearGradient>
<linearGradient id="paint4_linear" x1="37.0926" y1="32.3511" x2="43.4743" y2="32.7491" gradientUnits="userSpaceOnUse">
<stop offset="0.0119048" stop-color="#FAC336"/>
<stop offset="1" stop-color="#F6A103"/>
</linearGradient>
<linearGradient id="paint5_linear" x1="31.2422" y1="46.4192" x2="38.9103" y2="48.6613" gradientUnits="userSpaceOnUse">
<stop offset="0.0119048" stop-color="#FAC336"/>
<stop offset="1" stop-color="#F6A103"/>
</linearGradient>
<linearGradient id="paint6_linear" x1="66.4707" y1="46.6516" x2="74.139" y2="48.8938" gradientUnits="userSpaceOnUse">
<stop offset="0.0119048" stop-color="#FAC336"/>
<stop offset="1" stop-color="#F6A103"/>
</linearGradient>
<clipPath id="clip0">
<rect width="51" height="51" fill="white" transform="translate(26 26)"/>
</clipPath>
</defs>
</svg>
