<svg xmlns="http://www.w3.org/2000/svg" width="23" height="24"><path d="M21.363 24H-.007V2.84l3.29.043v.846a2.466 2.466 0 104.931 0v-.846h6.579v.846a2.465 2.465 0 104.929 0v-.846h3.26l.024 21.113zm0-15.2H1.637v13.518h19.726V8.8zm-14.67 8.065H4.1v-2.348h2.589v2.348zm0 3.98H4.1v-2.348h2.589v2.348zm4.117-7.881H8.219v-2.35h2.591v2.35zm0 3.9H8.219v-2.348h2.591v2.348zm0 3.98H8.219v-2.348h2.591v2.348zM15 12.959h-2.593v-2.35H15v2.35zm0 3.9h-2.593v-2.348H15v2.348zm0 3.98h-2.593v-2.348H15v2.348zm3.884-7.881h-2.591v-2.35h2.591v2.35zm0 3.9h-2.591V14.51h2.591v2.348zm0 3.98h-2.591V18.49h2.591v2.348zM17.23 5.064a1.637 1.637 0 01-1.619-1.661V1.664a1.62 1.62 0 113.238 0v1.739a1.638 1.638 0 01-1.62 1.663zm-11.507 0a1.637 1.637 0 01-1.618-1.661V1.664a1.62 1.62 0 113.239 0v1.739a1.639 1.639 0 01-1.622 1.663z" fill-rule="evenodd"/></svg>