<svg xmlns="http://www.w3.org/2000/svg" width="31" height="30"><path d="M28.905 26.2H2.092A2.082 2.082 0 010 24.131v-7.29a2.082 2.082 0 012.09-2.073H6.1V3.315A3.33 3.33 0 019.445 0h8.664a.835.835 0 01.59.24l7.4 7.293a.827.827 0 01.246.587v6.643h2.559A2.083 2.083 0 0131 16.841v7.29a2.083 2.083 0 01-2.095 2.069zm-7.891-4.417a1.3 1.3 0 10-1.313-1.3 1.307 1.307 0 001.313 1.303zm-2.28-19.172v3.108a1.665 1.665 0 001.673 1.655h3.161zm5.936 6.422h-4.264a3.334 3.334 0 01-3.346-3.314V1.658H9.445a1.67 1.67 0 00-1.677 1.657v11.454h16.9V9.036zm.573 10.151a1.3 1.3 0 101.314 1.3 1.3 1.3 0 00-1.314-1.298zm-1.4 9.425c0 .766-1.114 1.386-2.488 1.386H9.641c-1.374 0-2.488-.62-2.488-1.386v-1.384h16.693v1.386z" fill="#fff" fill-rule="evenodd"/></svg>