<svg xmlns="http://www.w3.org/2000/svg" width="21" height="23"><path d="M20.87 5.614a.479.479 0 01-.35.135h-1.43v14.2a3.4 3.4 0 01-.7 2.149 2.081 2.081 0 01-1.68.9H4.29a2.1 2.1 0 01-1.68-.876 3.269 3.269 0 01-.7-2.119V5.749H.47a.472.472 0 01-.34-.135A.46.46 0 010 5.27v-.959a.463.463 0 01.13-.344.472.472 0 01.34-.135h4.61l1.05-2.5A2.287 2.287 0 018.11 0h4.78a2.287 2.287 0 011.98 1.332l1.05 2.5h4.6a.479.479 0 01.35.135.463.463 0 01.13.344v.959a.46.46 0 01-.13.344zM13.13 2.08a.434.434 0 00-.26-.165H8.14a.413.413 0 00-.25.165l-.73 1.752h6.68zm4.05 3.669H3.82v14.2a1.7 1.7 0 00.1.607 1.234 1.234 0 00.22.4.308.308 0 00.15.128h12.42a.308.308 0 00.15-.128 1.234 1.234 0 00.22-.4 1.7 1.7 0 00.1-.607v-14.2zm-2.38 12.46h-.96a.459.459 0 01-.34-.134.473.473 0 01-.14-.345V9.1a.471.471 0 01.14-.345.455.455 0 01.34-.134h.96a.455.455 0 01.34.134.464.464 0 01.13.345v8.626a.465.465 0 01-.13.345.459.459 0 01-.34.138zm-3.82 0h-.96a.459.459 0 01-.34-.134.465.465 0 01-.13-.345V9.1a.464.464 0 01.13-.345.455.455 0 01.34-.134h.96a.455.455 0 01.34.134.464.464 0 01.13.345v8.626a.465.465 0 01-.13.345.459.459 0 01-.34.138zm-3.82 0H6.2a.459.459 0 01-.34-.134.465.465 0 01-.13-.345V9.1a.464.464 0 01.13-.345.455.455 0 01.34-.134h.96a.455.455 0 01.34.134.471.471 0 01.14.345v8.626a.473.473 0 01-.14.345.459.459 0 01-.34.138z" fill="#ef7d1b" fill-rule="evenodd"/></svg>