<svg xmlns="http://www.w3.org/2000/svg" width="21" height="21"><path fill="#434242" d="M15.2 0H5.79A5.8 5.8 0 000 5.795V15.2A5.8 5.8 0 005.79 21h9.41a5.8 5.8 0 005.8-5.8V5.79A5.8 5.8 0 0015.2 0zm3.94 15.205a3.942 3.942 0 01-3.94 3.932H5.79a3.94 3.94 0 01-3.93-3.932v-9.41a3.94 3.94 0 013.93-3.932h9.41a3.942 3.942 0 013.94 3.932V15.2zM10.5 5.089a5.411 5.411 0 105.41 5.411 5.419 5.419 0 00-5.41-5.413zm0 8.959a3.548 3.548 0 113.55-3.548 3.551 3.551 0 01-3.55 3.546zm5.64-10.539a1.367 1.367 0 100 2.733 1.367 1.367 0 000-2.735z"/></svg>