<svg width="44" height="44" viewBox="0 0 44 44" fill="none" xmlns="http://www.w3.org/2000/svg">
<g clip-path="url(#clip0)">
<path d="M39.2287 38.1752L34.72 32.3787C36.1809 31.9422 37.443 31.0079 38.2869 29.738C39.3487 27.9026 38.8686 25.6627 38.404 23.4991C38.1231 22.3877 37.955 21.2507 37.9024 20.1056C37.9548 18.9594 38.1228 17.8214 38.404 16.7091C38.8656 14.544 39.3487 12.3056 38.2869 10.4732C37.1873 8.5734 34.9734 7.87023 32.832 7.19152C31.7661 6.89783 30.7337 6.49354 29.7519 5.98525C28.8609 5.40731 28.0336 4.73675 27.2838 3.98468C25.6952 2.51019 23.8939 0.84082 21.6014 0.84082C19.3089 0.84082 17.5076 2.51019 15.9183 3.98394C15.1687 4.73619 14.3416 5.40703 13.4509 5.98525C12.4692 6.49253 11.4371 6.89579 10.3715 7.18856C8.23018 7.86727 6.01622 8.57043 4.91664 10.4702C3.85486 12.3056 4.335 14.5455 4.79957 16.7091C5.08049 17.8215 5.24831 18.9594 5.30046 20.1056C5.24803 21.2517 5.08002 22.3897 4.79883 23.5021C4.33722 25.6672 3.85412 27.9056 4.9159 29.738C5.76096 31.0083 7.02437 31.9424 8.48655 32.378L3.97415 38.1744C3.72297 38.4975 3.78123 38.963 4.10437 39.2142C4.2596 39.3349 4.45633 39.3889 4.65138 39.3644L9.94919 38.7027L11.257 43.2789C11.3336 43.5471 11.5544 43.7495 11.8282 43.8027C11.8746 43.8115 11.9218 43.816 11.969 43.816C12.1978 43.8162 12.4139 43.7106 12.5544 43.53L17.2861 37.4439C18.4505 38.5774 19.98 39.2603 21.6014 39.3703C23.2228 39.2603 24.7523 38.5774 25.9167 37.4439L30.6484 43.5278C30.7885 43.7093 31.0046 43.8157 31.2338 43.816C31.281 43.816 31.3282 43.8115 31.3746 43.8027C31.6484 43.7495 31.8692 43.5471 31.9458 43.2789L33.2536 38.7035L38.5514 39.3651C38.9575 39.4161 39.3279 39.1282 39.3789 38.7222C39.4033 38.5271 39.3493 38.3304 39.2287 38.1752ZM12.2802 41.468L11.1992 37.6847C11.0987 37.3337 10.7575 37.1083 10.3952 37.1534L6.24591 37.6721L9.96475 32.8914L10.3745 33.0226C11.4391 33.3156 12.4701 33.7188 13.4509 34.2259C14.3419 34.8038 15.1692 35.4744 15.919 36.2265L16.1739 36.4621L12.2802 41.468ZM21.6014 37.8884C19.8898 37.8884 18.4501 36.5547 16.9253 35.141C16.0957 34.3121 15.1793 33.5752 14.1919 32.9426C13.1176 32.3802 11.9867 31.9331 10.8183 31.6089C8.85999 30.9872 7.00983 30.4004 6.19775 28.997C5.42271 27.6566 5.82283 25.7887 6.24739 23.8103C6.55294 22.5971 6.73225 21.3557 6.78236 20.1056C6.73253 18.8555 6.5535 17.614 6.24813 16.4008C5.82357 14.4232 5.42345 12.5553 6.19849 11.2142C7.01354 9.81079 8.86073 9.22395 10.8191 8.60229C11.9873 8.27794 13.1178 7.83087 14.1919 7.26858C15.179 6.63599 16.0952 5.89893 16.9245 5.07018C18.4501 3.65644 19.8898 2.32272 21.6014 2.32272C23.313 2.32272 24.7527 3.65644 26.2776 5.07018C27.1071 5.89902 28.0235 6.63599 29.0109 7.26858C30.0852 7.83096 31.2161 8.27804 32.3845 8.60229C34.3428 9.22395 36.193 9.81079 37.0051 11.2142C37.7801 12.5545 37.38 14.4225 36.9554 16.4008C36.6499 17.614 36.4706 18.8555 36.4204 20.1056C36.4703 21.3557 36.6493 22.5971 36.9547 23.8103C37.3792 25.7879 37.7794 27.6559 37.0043 28.997C36.1893 30.4004 34.3421 30.9872 32.3837 31.6089C31.2155 31.9332 30.085 32.3803 29.0109 32.9426C28.0238 33.5752 27.1076 34.3122 26.2783 35.141C24.7527 36.5547 23.313 37.8884 21.6014 37.8884ZM32.8113 37.1534C32.449 37.1083 32.1078 37.3337 32.0073 37.6847L30.9226 41.468L27.0296 36.4628L27.2845 36.2272C28.0341 35.475 28.8612 34.8041 29.7519 34.2259C30.7336 33.7186 31.7657 33.3154 32.8313 33.0226L33.241 32.8914L36.9606 37.6721L32.8113 37.1534Z" fill="#F87A0B"/>
<path d="M21.6018 6.76831C14.2359 6.76831 8.26465 12.7396 8.26465 20.1054C8.26465 27.4713 14.2359 33.4426 21.6018 33.4426C28.9677 33.4426 34.9389 27.4713 34.9389 20.1054C34.9304 12.7431 28.9642 6.77692 21.6018 6.76831ZM21.6018 31.9607C15.0544 31.9607 9.74655 26.6529 9.74655 20.1054C9.74655 13.558 15.0544 8.25021 21.6018 8.25021C28.1492 8.25021 33.457 13.558 33.457 20.1054C33.4492 26.6497 28.1461 31.9529 21.6018 31.9607Z" fill="#F87A0B"/>
<path d="M30.1496 17.0106C29.8708 16.6276 29.4259 16.401 28.9522 16.4008H24.4161L23.0083 12.0833C22.7528 11.3058 21.9153 10.8827 21.1378 11.1382C20.6905 11.2852 20.3397 11.636 20.1927 12.0833L18.7886 16.4008H14.2488C13.4303 16.4005 12.7665 17.0635 12.7661 17.882C12.7658 18.3562 12.9926 18.8018 13.3759 19.0808L17.0481 21.7483L15.6455 26.0658C15.3924 26.8442 15.8184 27.6802 16.5967 27.9332C17.048 28.0799 17.5422 28.0015 17.9261 27.7226L21.6005 25.0559L25.2734 27.7233C25.7908 28.1077 26.4987 28.1077 27.0161 27.7233C27.5412 27.3501 27.7597 26.677 27.554 26.0665L26.1514 21.7483L29.8236 19.0808C30.4853 18.5992 30.6313 17.6723 30.1496 17.0106ZM24.8444 20.8665C24.5845 21.0554 24.4758 21.3902 24.5754 21.6957L26.1447 26.5252L22.0362 23.5406C21.7766 23.3522 21.4252 23.3522 21.1655 23.5406L17.057 26.5252L18.6256 21.6957C18.7248 21.3904 18.6162 21.056 18.3566 20.8673L14.2488 17.8827H19.3265C19.6475 17.8827 19.932 17.676 20.0311 17.3707L21.6005 12.5412L23.1698 17.37C23.269 17.6753 23.5534 17.882 23.8745 17.882L28.9522 17.8827L24.8444 20.8665Z" fill="#F87A0B"/>
</g>
<defs>
<clipPath id="clip0">
<rect width="42.9752" height="42.9752" fill="white" transform="translate(0.113525 0.84082)"/>
</clipPath>
</defs>
</svg>
