<svg width="36" height="32" viewBox="0 0 36 32" fill="none" xmlns="http://www.w3.org/2000/svg">
<path fill-rule="evenodd" clip-rule="evenodd" d="M3.96238 18.2164L6.72429 28.8904C6.858 29.4064 6.54466 29.938 6.0286 30.0717L3.97401 30.6032C3.45796 30.7367 2.92642 30.4236 2.79268 29.9076L0.0307806 19.2335C-0.102674 18.7175 0.210408 18.1859 0.726469 18.0522L2.78106 17.5207C3.29762 17.3872 3.82917 17.7003 3.96238 18.2164ZM22.9637 10.5197L25.3121 8.14795C25.5902 7.86709 26.0438 7.86633 26.3237 8.14491C26.6038 8.42349 26.6045 8.87534 26.3267 9.15567C25.3745 10.117 24.4284 11.0841 23.4719 12.0409C23.1923 12.3205 22.7384 12.3205 22.4588 12.0409L20.8715 10.4536C20.5919 10.1741 20.5919 9.72016 20.8715 9.44054C21.1511 9.16095 21.605 9.16095 21.8846 9.44054L22.9637 10.5197ZM25.608 1.67274L24.9638 0H22.2318L21.5881 1.67274C20.6971 1.88485 19.8456 2.23802 19.0655 2.71858L17.4265 1.99068L15.4945 3.9227L16.2224 5.56167C15.7418 6.34186 15.3889 7.19304 15.1765 8.08436L13.504 8.72804V11.46L15.1765 12.1037C15.3886 12.9953 15.7418 13.8464 16.2226 14.6266L15.4946 16.2653L17.4267 18.1974L19.0656 17.4695C19.8458 17.95 20.6968 18.3029 21.5883 18.5153L22.232 20.188H24.964L25.6076 18.5156C26.4992 18.3035 27.3504 17.9503 28.1306 17.4695L29.7693 18.1974L31.7013 16.2654L30.9734 14.6264C31.454 13.8462 31.8069 12.9953 32.0193 12.1037L33.692 11.4601V8.7281L32.0195 8.08443C31.8074 7.19285 31.4543 6.34167 30.9735 5.56148L31.7014 3.92277L29.7694 1.99074L28.1304 2.71865C27.35 2.23811 26.499 1.88442 25.608 1.67281L25.608 1.67274ZM23.5978 5.26355C20.9305 5.26355 18.7681 7.4257 18.7681 10.0932C18.7681 12.7605 20.9303 14.9229 23.5978 14.9229C26.2651 14.9229 28.4275 12.7608 28.4275 10.0932C28.4275 7.42622 26.2651 5.26355 23.5978 5.26355ZM20.7442 22.5541C18.781 21.6243 16.9695 20.362 15.5459 19.3698C13.4629 17.918 12.8999 17.5598 10.2707 18.2684L5.49198 19.5565L7.31391 26.5978C7.59502 26.5225 7.91826 26.3776 8.1938 26.5362L16.5666 31.3697C17.7631 31.9667 18.6663 32.2001 19.9948 31.8035L34.017 27.6172C35.4599 27.1864 36.0655 23.3262 30.719 24.7802L23.286 26.7886C21.6034 27.2463 20.3884 26.8287 18.8991 26.096C17.579 25.5446 15.8855 24.3925 14.6006 23.6507C14.3279 23.4939 14.2335 23.1456 14.3903 22.8726C14.5471 22.5998 14.8954 22.5055 15.1684 22.6623C16.5544 23.4625 17.9042 24.3281 19.3392 25.0406C20.1049 25.3491 20.8252 25.2778 21.2651 24.5159C21.6632 23.826 21.3798 22.987 20.7445 22.5539L20.7442 22.5541ZM2.33264 19.0698C1.97084 19.0275 1.64357 19.2862 1.6009 19.648C1.55853 20.0098 1.81732 20.3371 2.17911 20.3798C2.54091 20.4221 2.86818 20.1634 2.91085 19.8016C2.95322 19.44 2.69418 19.1122 2.33264 19.0698Z" fill="#E83C38"/>
</svg>
