<svg width="25" height="25" viewBox="0 0 25 25" fill="none" xmlns="http://www.w3.org/2000/svg">
<path d="M12.9102 0.582886C6.29309 0.582886 0.910156 5.96582 0.910156 12.5829C0.910156 19.2 6.29309 24.5829 12.9102 24.5829C19.5272 24.5829 24.9102 19.2 24.9102 12.5829C24.9102 5.96582 19.5272 0.582886 12.9102 0.582886ZM18.6172 18.7898C18.4222 18.9848 18.1662 19.0829 17.9102 19.0829C17.6542 19.0829 17.3981 18.9848 17.2032 18.7898L12.2032 13.7899C12.0151 13.603 11.9102 13.3488 11.9102 13.0829V6.58289C11.9102 6.02991 12.3581 5.58295 12.9102 5.58295C13.4622 5.58295 13.9101 6.02991 13.9101 6.58289V12.6689L18.6172 17.3759C19.0081 17.767 19.0081 18.3989 18.6172 18.7898Z" fill="#003A66"/>
</svg>
