<svg width="26" height="28" viewBox="0 0 26 28" fill="none" xmlns="http://www.w3.org/2000/svg">
<path d="M13.5015 15.2363C13.4497 15.2255 13.3965 15.2236 13.3441 15.2312C12.8182 15.1721 12.4215 14.7431 12.4206 14.2327C12.4206 13.9882 12.2149 13.7899 11.9613 13.7899C11.7076 13.7899 11.502 13.9882 11.502 14.2327C11.5033 15.085 12.0945 15.8315 12.9467 16.057V16.4999C12.9467 16.7445 13.1523 16.9428 13.406 16.9428C13.6596 16.9428 13.8652 16.7445 13.8652 16.4999V16.0838C14.8488 15.8853 15.5173 15.0019 15.414 14.0381C15.3104 13.0743 14.4683 12.3418 13.4634 12.3416C12.8875 12.3416 12.4206 11.8914 12.4206 11.3361C12.4206 10.7807 12.8875 10.3305 13.4634 10.3305C14.0393 10.3305 14.5062 10.7807 14.5062 11.3361C14.5062 11.5806 14.7118 11.7789 14.9654 11.7789C15.2191 11.7789 15.4247 11.5806 15.4247 11.3361C15.4234 10.4412 14.7733 9.66944 13.8652 9.48476V9.08167C13.8652 8.83709 13.6596 8.63879 13.406 8.63879C13.1523 8.63879 12.9467 8.83709 12.9467 9.08167V9.51179C11.999 9.76134 11.389 10.6486 11.5195 11.5876C11.65 12.5265 12.4809 13.2274 13.4634 13.2272C14.0316 13.2272 14.4952 13.6659 14.5055 14.2137C14.516 14.7615 14.0693 15.2164 13.5015 15.2363Z" fill="#003A66"/>
<path d="M6.80322 12.8183C6.80322 16.3652 9.78496 19.2405 13.4632 19.2405C17.1415 19.2405 20.1233 16.3652 20.1233 12.8183C20.1233 9.27137 17.1415 6.39612 13.4632 6.39612C9.78675 6.40001 6.80748 9.2731 6.80322 12.8183ZM13.4632 7.28187C16.6342 7.28187 19.2047 9.76052 19.2047 12.8183C19.2047 15.876 16.6342 18.3547 13.4632 18.3547C10.2922 18.3547 7.72178 15.876 7.72178 12.8183C7.72537 9.76204 10.2938 7.28533 13.4632 7.28187Z" fill="#003A66"/>
<path d="M22.3871 20.3325L18.7894 21.9717C18.2926 21.0808 17.3398 20.5138 16.2911 20.4852L12.9699 20.3972C12.444 20.3827 11.928 20.2543 11.4604 20.0214L11.1224 19.8525C9.39204 18.9827 7.32954 18.9849 5.60096 19.8581L5.62204 19.1198C5.62899 18.8752 5.42917 18.6715 5.17554 18.6648L1.53359 18.5682C1.27995 18.5615 1.06892 18.7541 1.06197 18.9987L0.841973 26.7054C0.835021 26.95 1.03483 27.1537 1.28847 27.1604L4.93042 27.2571H4.94298C5.19191 27.2571 5.39554 27.0661 5.40226 26.8263L5.4128 26.4576L6.35895 25.9691C6.73032 25.7764 7.16448 25.7305 7.57017 25.8413L13.2201 27.3704C13.23 27.3732 13.2399 27.3753 13.25 27.3775C13.6583 27.4599 14.0746 27.5012 14.4917 27.501C15.3753 27.5014 16.2485 27.3178 17.0516 26.9623C17.0713 26.9537 17.0904 26.9435 17.1085 26.932L25.3005 21.8225C25.5045 21.6951 25.5705 21.4367 25.4509 21.2326C24.8428 20.192 23.4938 19.7956 22.3871 20.3325ZM1.77287 26.2872L1.96753 19.4658L4.69114 19.538L4.49648 26.3596L1.77287 26.2872ZM16.6378 26.1713C15.6401 26.6055 14.5258 26.7253 13.4534 26.514L7.81865 24.9888C7.18444 24.816 6.50561 24.8876 5.92546 25.1884L5.44196 25.4382L5.57135 20.9028C7.10349 19.9202 9.06844 19.8192 10.7001 20.639L11.0381 20.8079C11.6288 21.102 12.2803 21.2641 12.9447 21.2827L16.2662 21.3708C17.1991 21.3967 17.9914 22.0372 18.1807 22.9187L13.2334 22.787C12.9797 22.7803 12.7687 22.9732 12.7615 23.2175C12.7546 23.4621 12.9546 23.6658 13.208 23.6725L18.6678 23.8174H18.6806C18.9293 23.8172 19.1327 23.6262 19.1394 23.3866C19.145 23.1942 19.1302 23.0015 19.095 22.8121L22.7852 21.1307C22.7888 21.1292 22.7924 21.1275 22.796 21.1257C23.3194 20.8704 23.9522 20.9558 24.3828 21.34L16.6378 26.1713Z" fill="#003A66"/>
<path d="M13.9225 5.15132V0.943977C13.9225 0.699399 13.7168 0.501099 13.4632 0.501099C13.2096 0.501099 13.0039 0.699399 13.0039 0.943977V5.15132C13.0039 5.39589 13.2096 5.59419 13.4632 5.59419C13.7168 5.59419 13.9225 5.39589 13.9225 5.15132Z" fill="#003A66"/>
<path d="M17.3668 5.15128V3.15833C17.3668 2.91375 17.1612 2.71545 16.9075 2.71545C16.6539 2.71545 16.4482 2.91375 16.4482 3.15833V5.15128C16.4482 5.39586 16.6539 5.59416 16.9075 5.59416C17.1612 5.59416 17.3668 5.39586 17.3668 5.15128Z" fill="#003a66"/>
<path d="M10.4776 5.15128V3.15833C10.4776 2.91375 10.272 2.71545 10.0184 2.71545C9.76473 2.71545 9.55908 2.91375 9.55908 3.15833V5.15128C9.55908 5.39586 9.76473 5.59416 10.0184 5.59416C10.272 5.59416 10.4776 5.39586 10.4776 5.15128Z" fill="#003A66"/>
</svg>
