<svg width="30" height="23" viewBox="0 0 30 23" fill="none" xmlns="http://www.w3.org/2000/svg">
<path d="M15.0003 0.721924C6.71605 0.721924 0 7.27572 0 15.3603C0 19.744 1.95704 22.603 1.95704 22.603L28.0373 22.6042C28.0373 22.6042 30 19.4797 30 15.36C30 7.27572 23.2839 0.721924 15.0003 0.721924ZM26.9371 20.8209L3.11096 20.8108C3.11096 20.8108 1.84137 18.4867 1.84137 15.3141C1.84137 8.2283 7.75524 2.48366 15.0506 2.48366C22.3457 2.48366 28.2598 8.228 28.2598 15.3141C28.2602 18.5225 26.9371 20.8209 26.9371 20.8209Z" fill="#003A66"/>
<path d="M19.2395 4.60897L19.0512 4.60867L15.05 12.1877L10.9049 4.54395L5.22962 18.3525H3.76294V19.4616H11.7979V18.3525H10.2036L11.7979 14.0369L15.05 19.4616L18.1748 14.0369L19.7688 18.3525H18.1748V19.4616H26.1457V18.3525H24.7648L19.2395 4.60897Z" fill="#003A66"/>
</svg>
