<svg width="19" height="18" viewBox="0 0 19 18" fill="none" xmlns="http://www.w3.org/2000/svg">
<g clip-path="url(#clip0)">
<path d="M12.4691 8.94414L8.73141 6.37811C8.59424 6.2842 8.41215 6.27006 8.26181 6.34303C8.11026 6.41544 8.01562 6.56253 8.01562 6.72149V11.8519C8.01562 12.0125 8.11026 12.159 8.26181 12.2315C8.3259 12.262 8.39598 12.2773 8.46666 12.2773C8.5589 12.2773 8.65234 12.2496 8.73141 12.1947L12.4691 9.63091C12.5871 9.54888 12.6559 9.42216 12.6559 9.28753C12.6565 9.15063 12.5859 9.02447 12.4691 8.94414Z" fill="#FF814F"/>
<path d="M9.5003 0.778503C4.52875 0.778503 0.5 4.58344 0.5 9.27879C0.5 13.9724 4.52875 17.7762 9.5003 17.7762C14.4707 17.7762 18.5 13.9719 18.5 9.27879C18.5006 4.58344 14.4707 0.778503 9.5003 0.778503ZM9.5003 16.358C5.36014 16.358 2.00344 13.1895 2.00344 9.27879C2.00344 5.36977 5.36014 2.19729 9.5003 2.19729C13.6399 2.19729 16.996 5.3692 16.996 9.27879C16.9966 13.1895 13.6399 16.358 9.5003 16.358Z" fill="#FF814F"/>
</g>
<defs>
<clipPath id="clip0">
<rect width="18" height="17" fill="white" transform="translate(0.5 0.776489)"/>
</clipPath>
</defs>
</svg>
