<svg width="23" height="23" viewBox="0 0 23 23" fill="none" xmlns="http://www.w3.org/2000/svg">
<path d="M9.755 14.0093L11.4972 12.3428L15.9343 16.587L14.1921 18.2535L9.755 14.0093Z" fill="#003A66"/>
<path d="M13.2425 19.1655L8.80473 14.9207L7.06226 16.5874L11.5 20.8752L13.2425 19.1655Z" fill="#003A66"/>
<path d="M15.1454 14.0095L19.5825 9.76531L21.3247 11.4318L16.8876 15.676L15.1454 14.0095Z" fill="#003A66"/>
<path d="M23 12.9871L22.3262 12.3425L20.5388 14.0092L23 16.3205V12.9871Z" fill="#003A66"/>
<path d="M4.36523 14.0085L8.80236 9.76434L10.5446 11.4308L6.10745 15.675L4.36523 14.0085Z" fill="#003A66"/>
<path d="M20.5388 3.69674L23 6.00799V1.34253L20.5388 3.69674Z" fill="#003A66"/>
<path d="M1.67053 11.4304L6.10766 7.18621L7.84987 8.85268L3.41275 13.0969L1.67053 11.4304Z" fill="#003A66"/>
<path d="M12.4506 11.4314L16.8877 7.18718L18.6299 8.85365L14.1928 13.0979L12.4506 11.4314Z" fill="#003A66"/>
<path d="M15.1482 3.69678L16.8907 5.36349L22.0472 0.431152H18.5173L15.1482 3.69678Z" fill="#003A66"/>
<path d="M23 7.83081L19.586 4.60815L17.8435 6.27487L23 11.1642V7.83081Z" fill="#003A66"/>
<path d="M9.75757 3.69674L14.1954 7.94158L15.9378 6.27487L11.5 1.98706L9.75757 3.69674Z" fill="#003A66"/>
<path d="M7.06079 6.27539L8.803 4.60893L13.2401 8.85313L11.4979 10.5196L7.06079 6.27539Z" fill="#003A66"/>
<path d="M18.6331 19.1655L16.8907 17.4988L11.7791 22.4311H15.264L18.6331 19.1655Z" fill="#003A66"/>
<path d="M10.5472 21.7866L8.80473 20.0769L6.38843 22.4311H9.87338L10.5472 21.7866Z" fill="#003A66"/>
<path d="M7.85177 19.1655L6.1093 17.4988L0.952759 22.4311H4.48263L7.85177 19.1655Z" fill="#003A66"/>
<path d="M19.586 14.9207L17.8435 16.5874L23 21.5197V18.1433L19.586 14.9207Z" fill="#003A66"/>
<path d="M0 16.8542V21.5197L2.46122 19.1655L0 16.8542Z" fill="#003A66"/>
<path d="M19.586 20.0769L17.1697 22.4311H22.0472L19.586 20.0769Z" fill="#003A66"/>
<path d="M12.4529 1.07568L14.1954 2.78537L16.6117 0.431152H13.1267L12.4529 1.07568Z" fill="#003A66"/>
<path d="M3.41398 2.78537L5.83029 0.431152H0.952759L3.41398 2.78537Z" fill="#003A66"/>
<path d="M3.41406 18.2541L5.15654 16.5874L0 11.698V15.0314L3.41406 18.2541Z" fill="#003A66"/>
<path d="M4.36694 3.69678L6.10942 5.36349L11.221 0.431152H7.73608L4.36694 3.69678Z" fill="#003A66"/>
<path d="M3.41406 7.94158L5.15654 6.27487L0 1.34253V4.71893L3.41406 7.94158Z" fill="#003A66"/>
<path d="M0.673828 10.5197L2.46122 8.85299L0 6.54175V9.87518L0.673828 10.5197Z" fill="#003A66"/>
</svg>
