<svg width="25" height="33" viewBox="0 0 25 33" fill="none" xmlns="http://www.w3.org/2000/svg">
<path d="M12.0864 0.155273C5.43036 0.155273 0.015625 5.57001 0.015625 12.2252C0.015625 21.8075 10.7912 31.4336 11.2502 31.8395C11.4902 32.05 11.7883 32.1553 12.0864 32.1553C12.3963 32.1553 12.7062 32.0416 12.9478 31.8151C13.4051 31.3873 24.1571 21.2315 24.1571 12.226C24.1571 5.57085 18.7407 0.155273 12.0864 0.155273ZM12.0864 17.981C8.90741 17.981 6.33141 15.4033 6.33141 12.2269C6.33141 9.05043 8.90741 6.47275 12.0864 6.47275C15.2636 6.47275 17.8396 9.04959 17.8396 12.2269C17.8396 15.4041 15.2636 17.981 12.0864 17.981Z" fill="#003A66"/>
</svg>
