<svg width="514" height="636" fill="none" xmlns="http://www.w3.org/2000/svg"><path d="M8.06 635.299V574.48l-.942-9.107 5.234-.628.942 5.653c5.095-3.699 9.945-5.548 14.55-5.548 6.212 0 11.027 2.268 14.446 6.804 3.42 4.536 5.13 10.782 5.13 18.737 0 7.956-1.885 14.237-5.653 18.842-3.769 4.606-9.003 6.909-15.702 6.909-3.908 0-8.06-.942-12.457-2.826v21.983H8.06zm33.393-44.698c0-6.211-1.187-11.131-3.56-14.76-2.372-3.699-5.791-5.548-10.258-5.548-4.396 0-9.072 1.989-14.027 5.967v31.403c1.466.698 3.455 1.396 5.967 2.094 2.582.628 4.676.942 6.28.942 4.956 0 8.794-1.814 11.515-5.443 2.722-3.629 4.083-8.514 4.083-14.655zm60.19 24.599v-5.234h11.934v-39.254h-11.934v-5.234h17.482l.209 6.071c2.233-1.396 5.374-2.791 9.421-4.187 4.048-1.396 7.607-2.233 10.677-2.512h1.152v6.176h-1.152c-2.861.209-6.42.907-10.677 2.093-4.187 1.187-7.327 2.408-9.421 3.664v33.183h16.749v5.234h-34.44zm90.862-24.704c0-17.098 6.664-25.646 19.993-25.646 13.329 0 19.994 8.548 19.994 25.646s-6.665 25.646-19.994 25.646-19.993-8.548-19.993-25.646zm19.993-20.203c-9.351 0-14.027 6.734-14.027 20.203s4.676 20.203 14.027 20.203c9.352 0 14.027-6.734 14.027-20.203s-4.675-20.203-14.027-20.203zm77.149 44.907v-69.611h5.548v42.395l8.897-1.047c4.327-5.304 8.549-11.375 12.667-18.214l1.988-3.245h6.281c-5.443 9.56-10.747 17.446-15.911 23.657 4.885 6.211 9.7 13.539 14.446 21.983l2.303 4.082h-6.49c-4.746-8.932-9.631-16.644-14.656-23.134l-9.525.942V615.2h-5.548zm105.83-4.501c2.582 0 5.374-.803 8.374-2.408 3.071-1.674 5.304-3.21 6.7-4.605v-12.457a174.859 174.859 0 00-13.19-.524c-4.187 0-7.327.908-9.421 2.722-2.093 1.745-3.14 4.117-3.14 7.118 0 6.769 3.559 10.154 10.677 10.154zm-.105 5.443c-5.094 0-9.107-1.291-12.038-3.873-2.931-2.652-4.396-6.385-4.396-11.2 0-4.816 1.605-8.549 4.815-11.201 3.21-2.722 7.467-4.083 12.771-4.083 5.304 0 9.979.21 14.027.628 0-6.21-.768-10.433-2.303-12.666-1.535-2.303-4.641-3.454-9.316-3.454-4.676 0-10.189 1.116-16.54 3.35l-1.57-5.234c6.49-2.373 12.352-3.559 17.586-3.559 6.909 0 11.585 1.535 14.027 4.605 2.443 3.071 3.664 8.445 3.664 16.121v21.983l.837 7.955-5.338.524-1.047-6.281c-1.605 1.396-3.873 2.826-6.804 4.292-2.931 1.395-5.723 2.093-8.375 2.093zm76.311-44.07v-5.233h10.154v-12.667l5.548-1.046v13.713h23.972v5.233h-23.972v23.867c0 5.304.768 9.142 2.303 11.515 1.605 2.303 4.432 3.454 8.479 3.454 1.535 0 3.908-.244 7.118-.732 3.211-.559 5.409-1.047 6.595-1.466l1.256 5.129c-1.326.489-3.768 1.012-7.327 1.571-3.49.558-6.037.837-7.642.837-6.281 0-10.572-1.64-12.875-4.92-2.303-3.35-3.455-8.409-3.455-15.178v-24.077h-10.154zM512 0H0v512h512V0z" fill="#fff"/><path d="M512 0H0v512h512V0z" fill="#2E8B57"/><path fill-rule="evenodd" clip-rule="evenodd" d="M-1.258 309.273c14.838-15.089 29.002-26.259 59.862-33.573 22.24-5.271 45.847-3.496 60.59 0 17.909 4.247 56.807 23.902 56.807 61.701v123.402c0 35.766-17.624 44.962-26.953 49.829-2.172 1.134-3.895 2.033-4.84 2.978-4.003 4.002-103.287 3.346-149.053 2.79l-9.925-88.393c3.706-9.82 14.564-30.906 28.35-36.687 17.232-7.226 58.921-16.676 74.486-20.011 15.564-3.335 30.564-7.141 27.507-28.377-3.136-21.79-52.739-16.016-62.378-9.241-5.628 3.956-9.165 9.089-10.916 11.631-.247.358-.458.666-.635.91H-3.653l2.395-36.959zM64.81 488.078c17.544 0 33.502-4.78 44.98-21.085 12.354-17.548 7.59-59.318 7.59-59.318s-14.843 3.681-27.832 7.591c-5.306 1.597-9.72 2.382-14.338 3.204-5.604.997-11.51 2.047-19.678 4.667-16.707 5.359-22.49 15.629-22.49 33.173 0 17.545 14.223 31.768 31.768 31.768zM189.964 208.18h31.984c16.569 0 30 13.431 30 30v45.989h37.315v14.585c0 16.568-13.431 30-30 30h-7.315V465.59c1.18 6.158 3.88 11.918 9.373 13.773 7.971 2.693 9.893 2.645 13.157 2.562.611-.015 1.27-.032 2.023-.032h14.619v30.643h-39.172v4.691h-31.984c-16.569 0-30-13.431-30-30V208.18z" fill="#fff"/><path d="M359.116 283.671h-64.007l73.75 228.816h77.034l66.21-210.497v-18.347c-2.525-.163-12.265-.391-31.028 0-23.455.489-31.762 12.239-35.182 22.011-2.736 7.819-28.704 103.745-41.346 150.731l-45.431-172.714z" fill="#fff"/></svg>