<svg width="514" height="636" viewBox="0 0 514 636" fill="none" xmlns="http://www.w3.org/2000/svg">
<path d="M8.06027 635.299V574.48L7.11816 565.373L12.3521 564.745L13.2942 570.398C18.3886 566.699 23.2387 564.85 27.8446 564.85C34.0556 564.85 38.8708 567.118 42.2903 571.654C45.7098 576.19 47.4196 582.436 47.4196 590.391C47.4196 598.347 45.5354 604.628 41.7669 609.233C37.9985 613.839 32.7645 616.142 26.0651 616.142C22.157 616.142 18.0048 615.2 13.6083 613.316V635.299H8.06027ZM41.4529 590.601C41.4529 584.39 40.2665 579.47 37.8938 575.841C35.5211 572.142 32.1015 570.293 27.6352 570.293C23.2387 570.293 18.5631 572.282 13.6083 576.26V607.663C15.0738 608.361 17.0627 609.059 19.575 609.757C22.157 610.385 24.2506 610.699 25.8557 610.699C30.8105 610.699 34.6487 608.885 37.3704 605.256C40.092 601.627 41.4529 596.742 41.4529 590.601ZM101.643 615.2V609.966H113.577V570.712H101.643V565.478H119.125L119.334 571.549C121.567 570.153 124.708 568.758 128.755 567.362C132.803 565.966 136.362 565.129 139.432 564.85H140.584V571.026H139.432C136.571 571.235 133.012 571.933 128.755 573.119C124.568 574.306 121.428 575.527 119.334 576.783V609.966H136.083V615.2H101.643ZM192.505 590.496C192.505 573.398 199.169 564.85 212.498 564.85C225.827 564.85 232.492 573.398 232.492 590.496C232.492 607.594 225.827 616.142 212.498 616.142C199.169 616.142 192.505 607.594 192.505 590.496ZM212.498 570.293C203.147 570.293 198.471 577.027 198.471 590.496C198.471 603.965 203.147 610.699 212.498 610.699C221.85 610.699 226.525 603.965 226.525 590.496C226.525 577.027 221.85 570.293 212.498 570.293ZM289.647 615.2V545.589H295.195V587.984L304.092 586.937C308.419 581.633 312.641 575.562 316.759 568.723L318.747 565.478H325.028C319.585 575.038 314.281 582.924 309.117 589.135C314.002 595.346 318.817 602.674 323.563 611.118L325.866 615.2H319.376C314.63 606.268 309.745 598.556 304.72 592.066L295.195 593.008V615.2H289.647ZM395.477 610.699C398.059 610.699 400.851 609.896 403.851 608.291C406.922 606.617 409.155 605.081 410.551 603.686V591.229C405.945 590.88 401.548 590.705 397.361 590.705C393.174 590.705 390.034 591.613 387.94 593.427C385.847 595.172 384.8 597.544 384.8 600.545C384.8 607.314 388.359 610.699 395.477 610.699ZM395.372 616.142C390.278 616.142 386.265 614.851 383.334 612.269C380.403 609.617 378.938 605.884 378.938 601.069C378.938 596.253 380.543 592.52 383.753 589.868C386.963 587.146 391.22 585.785 396.524 585.785C401.828 585.785 406.503 585.995 410.551 586.413C410.551 580.203 409.783 575.98 408.248 573.747C406.713 571.444 403.607 570.293 398.932 570.293C394.256 570.293 388.743 571.409 382.392 573.643L380.822 568.409C387.312 566.036 393.174 564.85 398.408 564.85C405.317 564.85 409.993 566.385 412.435 569.455C414.878 572.526 416.099 577.9 416.099 585.576V607.559L416.936 615.514L411.598 616.038L410.551 609.757C408.946 611.153 406.678 612.583 403.747 614.049C400.816 615.444 398.024 616.142 395.372 616.142ZM471.683 572.072V566.839H481.837V554.172L487.385 553.126V566.839H511.357V572.072H487.385V595.939C487.385 601.243 488.153 605.081 489.688 607.454C491.293 609.757 494.12 610.908 498.167 610.908C499.702 610.908 502.075 610.664 505.285 610.176C508.496 609.617 510.694 609.129 511.88 608.71L513.136 613.839C511.81 614.328 509.368 614.851 505.809 615.41C502.319 615.968 499.772 616.247 498.167 616.247C491.886 616.247 487.595 614.607 485.292 611.327C482.989 607.977 481.837 602.918 481.837 596.149V572.072H471.683Z" fill="white"/>
<path d="M512 0H0V512H512V0Z" fill="white"/>
<path d="M512 0H0V512H512V0Z" fill="#2E8B57"/>
<path fill-rule="evenodd" clip-rule="evenodd" d="M-1.25824 309.273C13.5799 294.184 27.744 283.014 58.6042 275.7C80.8447 270.429 104.451 272.204 119.194 275.7C137.103 279.947 176.001 299.602 176.001 337.401V460.803C176.001 496.569 158.377 505.765 149.048 510.632C146.876 511.766 145.153 512.665 144.208 513.61C140.205 517.612 40.9212 516.956 -4.84499 516.4L-14.7695 428.007C-11.0637 418.187 -0.205607 397.101 13.5799 391.32C30.8117 384.094 72.5015 374.644 88.0657 371.309C103.63 367.974 118.63 364.168 115.573 342.932C112.437 321.142 62.8342 326.916 53.1954 333.691C47.5669 337.647 44.0304 342.78 42.2793 345.322C42.0322 345.68 41.8207 345.988 41.6439 346.232H-3.65268L-1.25824 309.273ZM64.8105 488.078C82.3552 488.078 98.3128 483.298 109.791 466.993C122.145 449.445 117.381 407.675 117.381 407.675C117.381 407.675 102.538 411.356 89.5494 415.266C84.2435 416.863 79.8296 417.648 75.2106 418.47C69.6066 419.467 63.7005 420.517 55.5327 423.137C38.8263 428.496 33.043 438.766 33.043 456.31C33.043 473.855 47.2658 488.078 64.8105 488.078Z" fill="white"/>
<path fill-rule="evenodd" clip-rule="evenodd" d="M189.964 208.18H221.948C238.517 208.18 251.948 221.611 251.948 238.18V284.169H289.263V298.754C289.263 315.322 275.832 328.754 259.263 328.754H251.948V465.59C253.128 471.748 255.828 477.508 261.321 479.363C269.292 482.056 271.214 482.008 274.478 481.925C275.089 481.91 275.748 481.893 276.501 481.893H291.12V512.536H251.948V517.227H219.964C203.395 517.227 189.964 503.796 189.964 487.227V208.18Z" fill="white"/>
<path d="M359.116 283.671H295.109L368.859 512.487H445.893L512.103 301.99V283.643C509.578 283.48 499.838 283.252 481.075 283.643C457.62 284.132 449.313 295.882 445.893 305.654C443.157 313.473 417.189 409.399 404.547 456.385L359.116 283.671Z" fill="white"/>
</svg>
