<svg width="72" height="72" fill="none" xmlns="http://www.w3.org/2000/svg"><path d="M70.458 8.651a1.41 1.41 0 00-1.319.38l-5.84 5.875h-2.801l-3.083-3.187V8.885l5.758-5.832a1.403 1.403 0 00-.554-2.32 14.079 14.079 0 00-4.5-.733c-4.589 0-8.758 2.136-11.438 5.86-2.509 3.486-3.282 7.758-2.174 11.846L34.128 28.065 16.837 10.768V7.373c0-.494-.26-.952-.684-1.206L6.19.201a1.41 1.41 0 00-1.72.211L.484 4.388a1.405 1.405 0 00-.212 1.719L6.25 16.05a1.41 1.41 0 001.207.683h3.4L28.15 34.032 17.811 44.35c-4.097-1.106-8.38-.333-11.874 2.173C2.21 49.196.07 53.356.07 57.936c0 1.536.247 3.047.735 4.49a1.41 1.41 0 002.335.542l5.841-5.875h2.816l3.208 3.202v2.81l-5.887 5.83a1.404 1.404 0 00.543 2.33c1.446.487 2.96.733 4.499.733 4.589 0 8.756-2.134 11.436-5.856 2.51-3.487 3.285-7.761 2.177-11.85l8.304-8.287 1.902 2.062-.873.87c-.55.55-.55 1.44 0 1.99.55.548 1.442.548 1.993 0l.79-.79 17.847 19.349.041.042a8.464 8.464 0 0011.957-.001c3.295-3.29 3.295-8.643 0-11.933l-.044-.041-19.416-17.779.781-.78c.55-.548.55-1.439 0-1.988a1.411 1.411 0 00-1.993 0l-.867.866-2.07-1.897 8.344-8.327c1.187.316 2.41.477 3.65.477 7.77 0 14.09-6.309 14.09-14.063 0-1.536-.247-3.046-.735-4.49a1.407 1.407 0 00-1.016-.92zM12.44 14.334a1.396 1.396 0 00-.996-.398l-3.187-.002-5.001-8.333 2.429-2.424 8.335 4.992v3.181c0 .372.148.73.412.993l17.705 17.71-1.993 1.99L12.44 14.334zm35.84 27.431l19.482 17.838a5.627 5.627 0 01-.02 7.936 5.644 5.644 0 01-7.952.02L41.884 48.146l6.395-6.382zm-2.078-1.903l-6.228 6.214-1.902-2.062 6.06-6.049 2.07 1.897zm11.919-14.55a11.28 11.28 0 01-3.602-.586 1.413 1.413 0 00-1.446.338c-7.063 7.05-22.284 22.24-27.888 27.835-.38.378-.51.937-.34 1.443 1.172 3.471.611 7.174-1.537 10.16-2.143 2.976-5.477 4.684-9.147 4.684-.412 0-.822-.023-1.229-.066l4.476-4.432c.266-.264.416-.623.416-.998v-3.978c0-.373-.148-.73-.413-.994l-4.033-4.026a1.41 1.41 0 00-.997-.412H8.394c-.375 0-.735.15-1 .416l-4.44 4.466a11.356 11.356 0 01-.066-1.226c0-3.663 1.71-6.99 4.694-9.13 2.99-2.144 6.7-2.703 10.179-1.534a1.41 1.41 0 001.446-.338l27.889-27.835c.378-.378.51-.936.339-1.443-1.172-3.471-.613-7.172 1.534-10.156 2.145-2.98 5.48-4.687 9.15-4.687.425 0 .847.023 1.265.07L55.002 7.32c-.26.263-.405.618-.405.987v3.978c0 .365.142.715.395.977l3.893 4.026c.265.274.631.43 1.014.43h3.986c.375 0 .735-.15 1-.417l4.44-4.466c.044.406.066.815.066 1.226 0 6.203-5.056 11.25-11.271 11.25z" fill="url(#paint0_linear)"/><defs><linearGradient id="paint0_linear" x1="28.073" y1="-20" x2="17.428" y2="96.813" gradientUnits="userSpaceOnUse"><stop stop-color="#FED976"/><stop offset="1" stop-color="#FEB54A"/></linearGradient></defs></svg>