<svg width="97" height="97" viewBox="0 0 97 97" fill="none" xmlns="http://www.w3.org/2000/svg">
<g clip-path="url(#clip0)">
<path d="M43.6502 46.8833C48.1145 46.8833 51.7336 43.2643 51.7336 38.8C51.7336 34.3357 48.1145 30.7167 43.6502 30.7167C39.1859 30.7167 35.5669 34.3357 35.5669 38.8C35.5722 43.2621 39.1881 46.878 43.6502 46.8833ZM43.6502 33.95C46.3288 33.95 48.5002 36.1214 48.5002 38.8C48.5002 41.4786 46.3288 43.65 43.6502 43.65C40.9716 43.65 38.8002 41.4786 38.8002 38.8C38.8002 36.1214 40.9716 33.95 43.6502 33.95Z" fill="#086293"/>
<path d="M61.4335 48.4999C64.1121 48.4999 66.2835 46.3285 66.2835 43.6499C66.2835 40.9713 64.1121 38.7999 61.4335 38.7999C58.7549 38.7999 56.5835 40.9713 56.5835 43.6499C56.5835 46.3285 58.7549 48.4999 61.4335 48.4999ZM61.4335 42.0333C62.3264 42.0333 63.0502 42.7571 63.0502 43.6499C63.0502 44.5428 62.3264 45.2666 61.4335 45.2666C60.5406 45.2666 59.8168 44.5428 59.8168 43.6499C59.8168 42.7571 60.5406 42.0333 61.4335 42.0333Z" fill="#086293"/>
<path d="M30.7167 56.5833C33.3953 56.5833 35.5667 54.4119 35.5667 51.7333C35.5667 49.0547 33.3953 46.8833 30.7167 46.8833C28.0381 46.8833 25.8667 49.0547 25.8667 51.7333C25.8667 54.4119 28.0381 56.5833 30.7167 56.5833ZM30.7167 50.1166C31.6096 50.1166 32.3334 50.8404 32.3334 51.7333C32.3334 52.6262 31.6096 53.35 30.7167 53.35C29.8238 53.35 29.1 52.6262 29.1 51.7333C29.1 50.8404 29.8238 50.1166 30.7167 50.1166Z" fill="#086293"/>
<path d="M40.4167 59.8167C40.4167 65.1739 44.7596 69.5167 50.1167 69.5167C55.4739 69.5167 59.8167 65.1739 59.8167 59.8167C59.8167 54.4595 55.4739 50.1167 50.1167 50.1167C44.7618 50.122 40.4221 54.4618 40.4167 59.8167ZM56.5834 59.8167C56.5834 63.3881 53.6882 66.2834 50.1167 66.2834C46.5453 66.2834 43.6501 63.3881 43.6501 59.8167C43.6501 56.2453 46.5453 53.35 50.1167 53.35C53.6882 53.35 56.5834 56.2453 56.5834 59.8167Z" fill="#086293"/>
<path d="M6.46741 54.9671C7.66782 54.9697 8.84458 54.6335 9.86242 53.9971C10.341 53.6515 10.9147 53.4623 11.5049 53.4555C13.5775 53.5639 16.654 53.7934 19.9957 54.2639C20.2288 55.4465 20.5376 56.6129 20.9204 57.7559C18.1284 59.9432 15.5434 61.6892 13.8734 62.7675C13.4448 63.0044 12.9536 63.1032 12.4669 63.0505C10.7846 62.9651 9.13407 63.5307 7.85775 64.63C5.80695 66.3878 5.0727 69.2395 6.0196 71.7691C6.68181 73.554 8.09687 74.9564 9.88763 75.6026C11.6784 76.2487 13.6629 76.0729 15.3122 75.1221C16.369 74.5251 17.2329 73.6383 17.8019 72.5662C18.0421 72.038 18.4366 71.595 18.9335 71.2955C20.5163 70.4871 24.4949 68.7411 26.7323 67.7921C27.5234 68.6746 28.3684 69.5071 29.2624 70.285C27.8802 73.7221 26.4284 76.6579 25.6346 78.1873C25.3903 78.6039 25.0185 78.931 24.5741 79.1201C22.6307 80.1086 21.3139 82.0071 21.0688 84.1736C20.8238 86.34 21.6833 88.4847 23.3567 89.8823C24.522 90.8424 25.9839 91.3691 27.4938 91.3728C29.24 91.3679 30.9103 90.6581 32.1259 89.4044C33.3416 88.1507 33.9996 86.4594 33.9508 84.7138C33.894 84.1269 34.0169 83.5366 34.3032 83.0211C35.4349 81.2751 37.1776 78.7192 39.2583 76.0582C40.3846 76.4435 41.5342 76.7572 42.7002 76.9974C42.9249 78.9779 43.4568 83.7874 43.5424 85.6418C43.5389 86.1186 43.3856 86.5823 43.1043 86.9674C41.9049 88.7941 41.706 91.102 42.5751 93.107C43.4442 95.112 45.2645 96.5445 47.4176 96.918C47.7758 96.9746 48.1381 97.0022 48.5008 97.0005C50.217 97.0043 51.8641 96.3243 53.0777 95.1107C54.2912 93.8971 54.9713 92.2501 54.9674 90.5338C54.9719 89.315 54.6269 88.1205 53.9732 87.0919C53.6431 86.6293 53.4641 86.0759 53.4607 85.5076C53.569 83.4334 53.7937 80.3601 54.269 77.0168C55.4503 76.7727 56.615 76.4541 57.7562 76.063C60.0454 78.9843 61.856 81.7036 62.7824 83.1521C63.0197 83.5721 63.1165 84.057 63.0588 84.536C62.9637 86.3171 63.6061 88.0589 64.835 89.3517C66.0639 90.6445 67.7709 91.3744 69.5546 91.3696C70.3108 91.3709 71.061 91.2362 71.7694 90.9719C73.5564 90.3098 74.9603 88.8932 75.6063 87.1003C76.2523 85.3075 76.0747 83.321 75.1208 81.6712C74.5266 80.6273 73.6488 79.7731 72.5891 79.2074C72.0507 78.963 71.5996 78.5604 71.2957 78.0531C70.3516 76.202 69.0098 73.4198 67.7391 70.2786C68.6345 69.4953 69.48 68.6567 70.2708 67.7679C74.1508 69.4508 77.0204 70.7571 78.1747 71.3601C78.596 71.606 78.9265 71.9814 79.1172 72.4304C80.0969 74.3578 81.9718 75.671 84.118 75.9331C86.2641 76.1951 88.3999 75.3717 89.8147 73.7366C91.0734 72.2745 91.6136 70.3267 91.2877 68.4252C90.9618 66.5236 89.8039 64.8668 88.1301 63.9073C87.0683 63.291 85.8515 62.9936 84.6252 63.0505C84.0711 63.1044 83.514 62.9828 83.0328 62.7029C80.556 61.1008 78.2135 59.4388 76.094 57.7446C76.4709 56.6053 76.7749 55.4433 77.0042 54.2655C80.674 53.7449 83.93 53.5364 85.6453 53.4572C86.1276 53.4597 86.5962 53.6186 86.9807 53.9098C89.291 55.4233 92.3075 55.3023 94.4893 53.6088C96.6711 51.9153 97.5365 49.023 96.6434 46.4095C95.7504 43.7959 93.296 42.038 90.5341 42.0338C89.3336 42.0309 88.1568 42.3672 87.1391 43.0038C86.6574 43.3432 86.0856 43.5317 85.4966 43.5454C83.424 43.4371 80.3475 43.2091 77.0074 42.737C76.7746 41.5538 76.4657 40.3869 76.0827 39.2434C78.8715 37.0593 81.4565 35.3117 83.1281 34.2318C83.5546 33.9942 84.0447 33.8959 84.5298 33.9505C86.2123 34.039 87.8637 33.4723 89.1373 32.3694C91.1881 30.6115 91.9223 27.7598 90.9754 25.2302C90.311 23.4467 88.8956 22.0459 87.1053 21.4C85.315 20.7542 83.3312 20.9287 81.6812 21.8772C80.6256 22.4751 79.7625 23.3618 79.1932 24.4331C78.9529 24.9613 78.5584 25.4043 78.0615 25.7038C76.4788 26.5122 72.5002 28.2582 70.2627 29.2072C69.4737 28.3255 68.6309 27.4935 67.7391 26.7159C69.1213 23.2788 70.5731 20.343 71.3669 18.8136C71.6118 18.3975 71.9835 18.0706 72.4274 17.8808C74.8924 16.6355 76.2945 13.9623 75.9177 11.2265C75.541 8.49069 73.4684 6.29606 70.7585 5.76353C68.0487 5.231 65.2998 6.47809 63.9157 8.86788C63.3115 9.9036 63.0117 11.0887 63.0508 12.2871C63.1075 12.874 62.9846 13.4643 62.6983 13.9798C61.5667 15.7258 59.8255 18.2801 57.7432 20.9411C56.6166 20.5566 55.4671 20.2429 54.3013 20.0019C54.0766 18.0134 53.5431 13.1908 53.4591 11.3478C53.4625 10.8782 53.6141 10.4216 53.8923 10.0432C55.4198 7.73669 55.3109 4.71402 53.6214 2.52341C51.9319 0.332811 49.0361 -0.540474 46.4172 0.35086C43.7983 1.24219 42.0365 3.7007 42.0341 6.46712C42.0302 7.68382 42.3741 8.87629 43.0251 9.90416C43.3573 10.3696 43.5374 10.9264 43.5408 11.4982C43.4487 13.2668 42.9734 17.5866 42.6759 19.997C41.5153 20.2381 40.3711 20.5523 39.2502 20.9379C36.9626 18.0279 35.1519 15.299 34.224 13.8488C33.9885 13.4293 33.8928 12.9457 33.9508 12.4682C34.1044 9.71107 32.4904 7.16057 29.9329 6.11914C27.3755 5.0777 24.4389 5.77515 22.6228 7.85532C20.8066 9.93549 20.5118 12.9393 21.8888 15.3329C22.4844 16.3765 23.3632 17.2302 24.4237 17.7951C24.9623 18.0385 25.4135 18.4407 25.7171 18.9478C26.6612 20.7989 28.0047 23.5828 29.2737 26.724C28.3789 27.5067 27.5339 28.3447 26.7437 29.233C24.9168 28.4409 20.4904 26.5041 18.8382 25.6408C18.4169 25.3949 18.0863 25.0195 17.8956 24.5706C16.6488 22.1022 13.972 20.6981 11.2325 21.0756C8.49295 21.4531 6.29557 23.5288 5.76283 26.2424C5.23008 28.956 6.47957 31.7084 8.87302 33.0936C9.93566 33.7078 11.1518 34.0051 12.3779 33.9505C12.9309 33.8984 13.4864 34.0199 13.9671 34.298C16.3617 35.8333 18.677 37.4887 20.9043 39.258C20.5283 40.3973 20.2248 41.5593 19.9957 42.737C16.3323 43.256 13.0731 43.4645 11.3562 43.5454C10.8742 43.5405 10.4064 43.3819 10.0208 43.0927C7.71063 41.5779 4.69323 41.6979 2.51061 43.3914C0.328001 45.085 -0.537742 47.978 0.355805 50.5921C1.24935 53.2062 3.70483 54.9639 6.46741 54.9671ZM31.5904 81.2541C30.9376 82.3205 30.6326 83.5634 30.7174 84.8108C30.737 85.4088 30.5868 86.0002 30.2842 86.5164C29.589 87.7071 28.2152 88.326 26.8628 88.0577C25.5104 87.7895 24.4768 86.6931 24.2887 85.3272C24.1007 83.9613 24.7995 82.6264 26.0291 82.0026C27.0868 81.5102 27.956 80.6875 28.5058 79.6585C29.4063 77.9238 30.656 75.363 31.9008 72.3835C33.2384 73.3131 34.6514 74.1292 36.1252 74.823C34.232 77.2933 32.6574 79.6197 31.5904 81.2541ZM68.41 79.5227C69.0083 80.6214 69.9331 81.5071 71.0565 82.0576C71.5834 82.3386 72.0197 82.7636 72.3142 83.2831C73.0035 84.48 72.8563 85.9826 71.9479 87.023C71.0395 88.0635 69.5705 88.412 68.2915 87.8905C67.0126 87.3691 66.206 86.0928 66.2841 84.7138C66.3856 83.552 66.1076 82.3885 65.4919 81.398C64.6238 80.04 62.978 77.5633 60.8876 74.8327C62.3596 74.1348 63.7701 73.3139 65.1039 72.3786C66.3035 75.2595 67.5273 77.7896 68.41 79.5227ZM85.322 46.769C86.5721 46.8028 87.8015 46.445 88.8382 45.7457C90.2062 44.9433 91.9506 45.2203 93.0027 46.4069C94.0664 47.6332 94.0559 49.458 92.9782 50.672C91.9005 51.886 90.0898 52.1127 88.7461 51.2019C87.7889 50.5371 86.6436 50.197 85.4788 50.2319C83.8702 50.3047 80.9052 50.4922 77.4957 50.9368C77.562 50.1284 77.5991 49.3201 77.5991 48.5005C77.5991 47.6808 77.5636 46.8692 77.4957 46.0625C80.5803 46.4635 83.3803 46.6672 85.322 46.769ZM65.4111 15.7468C66.0639 14.6804 66.3689 13.4375 66.2841 12.1901C66.2645 11.5921 66.4147 11.0007 66.7174 10.4845C67.4125 9.29383 68.7863 8.67495 70.1387 8.9432C71.4911 9.21146 72.5247 10.3078 72.7127 11.6737C72.9008 13.0396 72.202 14.3745 70.9724 14.9983C69.9158 15.4917 69.0474 16.3141 68.4973 17.3424C67.5968 19.0771 66.3471 21.6379 65.1104 24.6174C63.7728 23.6878 62.3598 22.8717 60.886 22.1779C62.7694 19.7076 64.3441 17.3812 65.4111 15.7468ZM28.5915 17.4782C27.9937 16.3802 27.0694 15.4949 25.9466 14.9449C25.4194 14.663 24.9828 14.2376 24.6873 13.7179C23.9979 12.5199 24.1463 11.0162 25.0565 9.97606C25.9667 8.93591 27.4374 8.58934 28.7162 9.11362C29.9951 9.6379 30.7993 10.9171 30.7174 12.2968C30.6161 13.4581 30.8941 14.621 31.5096 15.611C32.5604 17.2535 34.1512 19.6155 36.1171 22.1795C34.6441 22.8754 33.2321 23.6936 31.896 24.6255C30.6996 21.743 29.4758 19.2113 28.5915 17.4782ZM15.7228 31.5804C14.6799 30.9281 13.456 30.6257 12.2292 30.7171C11.6186 30.7482 11.0122 30.5998 10.4848 30.2903C9.29696 29.5941 8.68027 28.2221 8.94822 26.8715C9.21617 25.521 10.31 24.4883 11.6737 24.2984C13.0374 24.1084 14.3717 24.8029 14.9986 26.0288C15.4907 27.091 16.3145 27.9647 17.346 28.5185C19.0144 29.3882 23.1369 31.2005 25.4455 32.2028C26.7354 32.7549 28.2341 32.4121 29.1557 31.3541C32.8634 27.1639 37.8327 24.2923 43.3145 23.1721C44.6993 22.9051 45.7513 21.7714 45.9141 20.3705C46.1938 17.9164 46.6772 13.5223 46.7725 11.6663C46.8084 10.423 46.4515 9.19994 45.7524 8.17109C45.4316 7.66095 45.2633 7.06974 45.2674 6.46712C45.2726 5.08453 46.1563 3.85821 47.4662 3.41584C48.7761 2.97347 50.2224 3.41295 51.0647 4.50934C51.9071 5.60572 51.9591 7.11637 51.1941 8.26809C50.5319 9.2137 50.1918 10.3474 50.2241 11.5014C50.3098 13.3719 50.7997 17.863 51.0842 20.3737C51.2487 21.7722 52.2995 22.9035 53.6822 23.1705C59.1624 24.2892 64.1302 27.1598 67.8361 31.3492C68.7611 32.4074 70.2627 32.7489 71.5544 32.1948C73.8177 31.2086 77.8594 29.427 79.5311 28.5799C80.6149 27.9845 81.4888 27.0694 82.0337 25.9593C82.3191 25.4246 82.7509 24.9821 83.2785 24.6837C84.7175 23.8462 86.5574 24.2384 87.5297 25.59C88.502 26.9417 88.2889 28.8107 87.0372 29.9088C86.3938 30.4672 85.5602 30.7566 84.7092 30.7171C83.5433 30.6144 82.3754 30.8905 81.3789 31.5044C79.6426 32.6216 76.967 34.4274 74.0813 36.6891C73.006 37.5456 72.5864 38.9863 73.0337 40.2862C74.812 45.6158 74.812 51.3787 73.0337 56.7083C72.5892 58.0068 73.0085 59.4445 74.0813 60.3005C76.2977 62.04 78.7211 63.7602 81.2819 65.4156C82.3248 66.0656 83.5464 66.3694 84.7723 66.2838C85.3832 66.2503 85.9903 66.3988 86.5167 66.7106C87.7045 67.4068 88.3212 68.7789 88.0533 70.1294C87.7853 71.4799 86.6915 72.5126 85.3278 72.7026C83.9641 72.8925 82.6298 72.198 82.0029 70.9721C81.5112 69.91 80.6872 69.0368 79.6555 68.4841C78.0049 67.6224 73.8743 65.8053 71.5577 64.7997C70.2655 64.2437 68.7622 64.5868 67.8393 65.6484C63.8826 70.1325 58.4853 73.0953 52.578 74.026C51.8713 74.1417 51.3229 74.7051 51.2265 75.4147C50.6234 79.3109 50.3502 82.9581 50.2274 85.3346C50.189 86.5755 50.5443 87.7968 51.2426 88.8234C51.567 89.3346 51.7376 89.9283 51.7341 90.5338C51.7384 91.484 51.3245 92.388 50.6024 93.0057C49.3693 94.0391 47.5647 94.0116 46.3637 92.9411C45.1626 91.8706 44.9285 90.0811 45.8139 88.7377C46.4757 87.787 46.8157 86.6494 46.7839 85.4914C46.6966 83.608 46.2083 79.1298 45.9238 76.6288C45.7581 75.232 44.7084 74.1026 43.3274 73.8353C37.8464 72.7163 32.878 69.8452 29.1719 65.6549C28.5532 64.9515 27.6626 64.5471 26.7259 64.5443C26.287 64.5447 25.853 64.6349 25.4503 64.8094C23.187 65.7956 19.1453 67.5771 17.4737 68.4243C16.3898 69.0197 15.5159 69.9348 14.9711 71.0449C14.6861 71.5799 14.2542 72.0225 13.7262 72.3204C12.2856 73.1738 10.4319 72.7861 9.45392 71.4269C8.47598 70.0678 8.69742 68.187 9.96427 67.0921C10.6057 66.5336 11.4378 66.2441 12.2874 66.2838C13.4528 66.3832 14.6193 66.1067 15.6161 65.4949C17.3508 64.3794 20.0248 62.5735 22.9154 60.3086C23.9899 59.4523 24.4095 58.0126 23.963 56.7131C22.1858 51.385 22.1858 45.624 23.963 40.2959C24.4108 38.9958 23.9919 37.5546 22.917 36.6972C20.7135 34.9609 18.2901 33.2407 15.7228 31.5804ZM3.2745 47.9395C3.47037 46.8689 4.18872 45.9672 5.18848 45.537C6.18824 45.1068 7.3369 45.2051 8.24898 45.799C9.205 46.4662 10.3511 46.8064 11.5163 46.769C13.4563 46.6817 16.3 46.4845 19.4978 46.0658C19.4315 46.8741 19.3959 47.6824 19.3959 48.5005C19.3959 49.3185 19.4331 50.1317 19.4994 50.9384C16.4148 50.5375 13.6147 50.3338 11.6731 50.2319C10.4236 50.2027 9.19554 50.5601 8.15683 51.2553C6.79246 52.0573 5.05155 51.7838 3.99876 50.6021C3.37278 49.8669 3.10936 48.8897 3.28096 47.9395H3.2745Z" fill="#086293"/>
</g>
<defs>
<clipPath id="clip0">
<rect width="97" height="97" fill="#086293"/>
</clipPath>
</defs>
</svg>
