<svg width="91" height="64" viewBox="0 0 91 64" fill="none" xmlns="http://www.w3.org/2000/svg">
<path d="M0.996826 30.1697C2.45815 29.805 3.81461 28.7388 5.4378 26.6741C2.82899 22.2263 -0.303398 15.6446 2.34189 7.94969C2.41565 7.73504 2.54312 7.54284 2.71217 7.39138C2.88123 7.23992 3.08623 7.13426 3.30767 7.08444C3.52911 7.03462 3.75962 7.04231 3.97725 7.10677C4.19488 7.17123 4.39239 7.29032 4.55097 7.45271C4.58517 7.48766 6.06321 8.99762 8.077 10.9301C7.91353 8.50531 8.23729 6.07235 9.02917 3.7747C9.10282 3.56007 9.23016 3.36786 9.39908 3.21635C9.568 3.06484 9.77287 2.95907 9.99421 2.9091C10.2155 2.85914 10.446 2.86664 10.6636 2.93089C10.8812 2.99515 11.0788 3.11401 11.2375 3.27619C11.2747 3.31418 14.7073 6.81817 18.269 10.0114C23.8165 5.60382 31.9415 2.46003 41.8585 0.972112C52.7854 -0.669315 64.6036 -0.0340227 71.9672 2.58846C74.5139 3.47249 76.9162 4.72718 79.0968 6.31207C82.6935 1.60512 86.0121 -0.489215 88.9682 0.0959231C89.1395 0.129753 89.3025 0.197002 89.4479 0.293828C89.5932 0.390655 89.7181 0.515163 89.8153 0.660245C89.9126 0.805327 89.9803 0.968141 90.0146 1.13939C90.0489 1.31064 90.0492 1.48697 90.0153 1.65832C89.9815 1.82967 89.9143 1.99267 89.8174 2.13803C89.7206 2.28338 89.5961 2.40825 89.451 2.50549C89.3059 2.60272 89.1431 2.67043 88.9719 2.70475C88.8006 2.73907 88.6243 2.73932 88.4529 2.70549C86.5949 2.34073 84.0241 4.21773 81.1486 8.00745C86.3974 12.9477 88.7865 20.138 88.2675 29.5124C87.1276 50.0181 81.0323 62.0195 80.7732 62.5203C80.6612 62.7371 80.4917 62.9188 80.2832 63.0458C80.0748 63.1727 79.8355 63.2399 79.5915 63.2399H72.1823C71.9826 63.2392 71.7856 63.1935 71.6059 63.1063C71.4263 63.0191 71.2686 62.8925 71.1445 62.736C71.0204 62.5795 70.9331 62.3971 70.8891 62.2023C70.8452 62.0075 70.8456 61.8053 70.8904 61.6107C71.5439 58.064 71.6511 54.4383 71.2081 50.8593C69.6176 57.2046 68.1608 62.2216 68.1433 62.2817C68.0628 62.558 67.8948 62.8007 67.6647 62.9735C67.4345 63.1463 67.1545 63.2398 66.8667 63.2399H59.4536C59.254 63.2392 59.0571 63.1935 58.8775 63.1063C58.6979 63.0191 58.5403 62.8927 58.4162 62.7363C58.2921 62.5799 58.2048 62.3976 58.1608 62.2028C58.1168 62.0081 58.1171 61.806 58.1618 61.6114C58.8699 57.7449 58.9346 53.7879 58.3533 49.9003C55.4332 50.1435 52.3231 50.2661 49.023 50.2681C46.3785 50.2757 43.8153 50.2362 41.4466 50.1655C39.79 56.8262 38.2268 62.2239 38.2109 62.2809C38.1304 62.5575 37.9624 62.8005 37.7321 62.9734C37.5017 63.1464 37.2215 63.2399 36.9334 63.2399H29.5242C29.3244 63.2393 29.1274 63.1938 28.9477 63.1066C28.7679 63.0194 28.6101 62.8928 28.486 62.7363C28.3619 62.5798 28.2747 62.3973 28.2307 62.2024C28.1868 62.0076 28.1874 61.8053 28.2323 61.6107C28.8878 58.067 28.9932 54.4434 28.5447 50.8677C26.9602 57.2077 25.505 62.2254 25.4852 62.2824C25.4046 62.5586 25.2365 62.8012 25.0064 62.9738C24.7762 63.1464 24.4963 63.2398 24.2086 63.2399H16.7994C16.5995 63.2394 16.4024 63.1938 16.2226 63.1066C16.0428 63.0193 15.8849 62.8927 15.7608 62.7361C15.6367 62.5795 15.5494 62.3969 15.5056 62.2019C15.4617 62.0069 15.4624 61.8046 15.5075 61.6099C16.3851 56.7361 16.2558 51.7342 15.1275 46.9123C10.9086 45.7854 6.78432 44.3301 2.79252 42.5595C2.59863 42.4755 2.42758 42.3465 2.29356 42.1831C2.15955 42.0197 2.06644 41.8268 2.02196 41.6202C2.00904 41.5632 0.777206 35.8517 0.0218506 31.6979C-0.0388412 31.3672 0.0279694 31.0257 0.208855 30.7421C0.38974 30.4586 0.671272 30.2541 0.996826 30.1697ZM10.9708 6.77258C10.5199 9.12952 10.6091 11.558 11.2314 13.8755C11.8477 14.4333 12.4716 14.9858 13.0864 15.5132C13.2878 15.2434 13.4899 14.9752 13.6898 14.7191C14.4633 13.6704 15.3249 12.6896 16.2651 11.7873C14.2384 9.96348 12.2831 8.07052 10.9708 6.77258ZM61.0366 60.5802H65.8605C66.4221 58.5968 67.7657 53.7637 69.1099 48.2475C66.4372 48.8765 63.7286 49.3424 60.9993 49.6427C61.5141 53.2695 61.5267 56.95 61.0366 60.5802ZM18.3747 60.5802H23.1986C23.7306 58.6926 24.9769 54.2204 26.2482 49.0446C23.2237 48.6525 20.507 48.1692 17.9909 47.6091C18.827 51.8828 18.9567 56.2646 18.3747 60.5802ZM4.46814 40.3891C11.4845 43.3863 18.5411 45.6144 29.5964 46.7565C29.8814 46.7861 30.1492 46.9068 30.3601 47.1006C30.5711 47.2945 30.7139 47.5511 30.7674 47.8326C31.5618 52.0363 31.6752 56.3404 31.1033 60.5802H35.9258C36.4798 58.6219 37.7929 53.8929 39.1174 48.4846C39.1925 48.189 39.3659 47.9278 39.6091 47.7439C39.8523 47.5599 40.1508 47.4642 40.4557 47.4724C43.0348 47.5628 45.8473 47.6084 48.8148 47.6084C57.8799 47.6274 65.4266 46.7117 71.3274 44.9008C71.5006 44.8477 71.6828 44.8305 71.8628 44.8504C72.0428 44.8702 72.2169 44.9266 72.3744 45.0161C72.5319 45.1056 72.6694 45.2264 72.7785 45.3709C72.8877 45.5155 72.9661 45.6808 73.0091 45.8568C74.1773 50.6744 74.435 55.6679 73.769 60.5802H78.7541C80.0528 57.7282 84.6579 46.5384 85.6146 29.365C86.316 16.7686 81.5612 8.83044 71.0774 5.09696C57.9338 0.41889 26.3173 1.88402 15.8115 16.3195C15.5835 16.6113 15.3722 16.9122 15.1511 17.2093C15.7279 17.6584 16.2765 18.0597 16.775 18.3887C16.9235 18.4836 17.0517 18.6071 17.152 18.7519C17.2524 18.8968 17.323 19.0601 17.3596 19.2325C17.3963 19.4048 17.3984 19.5828 17.3657 19.7559C17.333 19.9291 17.2662 20.094 17.1693 20.2412C17.0723 20.3883 16.947 20.5147 16.8008 20.613C16.6545 20.7113 16.4902 20.7795 16.3173 20.8138C16.1445 20.848 15.9665 20.8476 15.7938 20.8125C15.6212 20.7773 15.4572 20.7082 15.3114 20.6092C11.9792 18.4115 6.88088 13.5229 4.28272 10.9537C3.08736 17.0816 5.90819 22.3152 8.18567 26.0928C8.37337 26.4051 8.55878 26.7106 8.73737 27.0047C9.04893 27.5153 9.33923 27.9926 9.59304 28.4273C9.68389 28.5784 9.74378 28.746 9.76923 28.9205C9.79469 29.095 9.78519 29.2728 9.74129 29.4435C9.6974 29.6143 9.62 29.7746 9.51357 29.9152C9.40714 30.0558 9.27381 30.1738 9.12135 30.2624C8.96889 30.3509 8.80035 30.4083 8.62551 30.4311C8.45068 30.454 8.27304 30.4418 8.10295 30.3954C7.93286 30.3489 7.7737 30.2691 7.63474 30.1606C7.49579 30.052 7.37979 29.917 7.29352 29.7632C7.17041 29.5514 7.0387 29.33 6.89836 29.099C5.80863 30.4735 4.42076 31.5822 2.83963 32.3416C3.41565 35.4102 4.15961 38.943 4.46738 40.3891H4.46814Z" fill="#086293"/>
<path d="M54.0173 4.63647C60.4287 4.63647 66.4123 5.45795 70.4315 6.8904C70.5962 6.94903 70.7477 7.03951 70.8774 7.15669C71.0071 7.27387 71.1124 7.41545 71.1874 7.57334C71.2623 7.73122 71.3055 7.90234 71.3143 8.0769C71.3232 8.25146 71.2976 8.42606 71.2389 8.59072C71.1803 8.75538 71.0898 8.90688 70.9726 9.03657C70.8555 9.16626 70.7139 9.2716 70.556 9.34657C70.3981 9.42155 70.227 9.46469 70.0524 9.47354C69.8779 9.48238 69.7033 9.45676 69.5386 9.39813C65.793 8.06371 60.1346 7.29847 54.015 7.29847C53.6623 7.29847 53.324 7.15836 53.0746 6.90897C52.8252 6.65957 52.6851 6.32131 52.6851 5.96861C52.6851 5.61591 52.8252 5.27766 53.0746 5.02826C53.324 4.77886 53.6623 4.63875 54.015 4.63875L54.0173 4.63647Z" fill="#086293"/>
</svg>
