<svg width="95" height="95" viewBox="0 0 95 95" fill="none" xmlns="http://www.w3.org/2000/svg">
<g clip-path="url(#clip0)">
<path d="M87.1905 24.619C86.2802 25.5293 85.3336 26.2686 84.3363 26.8557L68.1429 10.6616C68.73 9.66503 69.4686 8.71845 70.3796 7.80738C72.1206 6.06643 72.1206 3.23321 70.3789 1.49153C68.638 -0.24942 65.8047 -0.250144 64.0631 1.49153C56.8151 8.73947 56.7093 17.5008 57.9777 25.4112C48.7692 23.5129 38.5895 22.7055 30.4631 30.8312C26.7898 34.5051 24.6778 38.8198 24.0066 44.0231C23.9081 44.7863 24.4473 45.485 25.2105 45.5836C25.9715 45.6822 26.6724 45.1429 26.7703 44.3797C27.3603 39.8106 29.2121 36.0236 32.4338 32.8019C39.9209 25.3148 49.3795 26.3925 58.514 28.3734C58.7866 29.7382 59.0279 30.8087 59.2939 31.985C50.2181 29.9208 41.4278 28.4618 34.7988 35.1864C19.9811 50.0251 45.1597 75.34 28.596 91.9037C27.9415 92.5582 26.8761 92.5582 26.2216 91.9037C25.5664 91.2492 25.5664 90.1837 26.2216 89.5293C36.7246 79.0256 27.34 63.9368 26.6043 49.491C26.5644 48.7227 25.9157 48.1298 25.1417 48.1704C24.3727 48.2095 23.7812 48.8647 23.8204 49.633C23.9733 52.6293 24.4821 55.6321 25.0424 58.3458C17.132 57.0781 8.37139 57.1839 1.12346 64.4311C-0.621845 66.1757 -0.62257 69.0017 1.12346 70.747C2.86876 72.493 5.694 72.493 7.44003 70.747C8.35037 69.8366 9.29695 69.0981 10.2935 68.511L26.4876 84.7043C25.8998 85.7016 25.1612 86.6482 24.2509 87.5585C22.5092 89.2995 22.5092 92.1334 24.2509 93.8744C25.9918 95.6161 28.8251 95.6161 30.5667 93.8744C37.8147 86.6265 37.9205 77.8652 36.6521 69.9548C47.1631 72.1212 56.5557 72.1458 64.1667 64.5348C72.2931 56.4084 71.4842 46.2272 69.586 37.0187C72.23 37.4391 74.8857 37.6935 77.5594 37.6094C78.3284 37.5848 78.9322 36.9412 78.9083 36.1722C78.8836 35.4032 78.2415 34.7965 77.4717 34.8233C74.9741 34.9016 72.2467 34.6675 68.946 34.0855C68.6778 32.9091 68.4169 31.8009 68.1234 30.5267C75.8533 32.0829 83.2107 32.5402 89.1612 26.5897C89.8157 25.9352 90.8804 25.9352 91.5356 26.5897C92.1923 27.2456 92.1923 28.3082 91.5356 28.9641C88.9286 31.5719 85.9837 33.265 82.5337 34.1398C81.7879 34.329 81.3363 35.0864 81.5255 35.833C81.7147 36.5788 82.4728 37.0303 83.2186 36.8411C87.1687 35.8395 90.534 33.9079 93.5063 30.9348C94.35 30.0911 94.8146 28.9699 94.8146 27.7769C94.8146 23.8101 89.9875 21.822 87.1905 24.619ZM5.46932 68.7763C4.81266 69.4329 3.75083 69.4329 3.09417 68.7763C2.43823 68.1203 2.43751 67.0585 3.09417 66.4018C7.60746 61.8885 12.8985 60.531 18.1604 60.531C20.7052 60.531 23.2442 60.8485 25.6845 61.2804C25.9505 62.4503 26.2216 63.6005 26.5072 64.8399C18.7772 63.2831 11.4199 62.8257 5.46932 68.7763ZM13.0311 67.3064C16.8123 66.1445 21.335 66.5888 27.1725 67.8253C28.4098 73.6628 28.8541 78.1855 27.6915 81.9668L13.0311 67.3064ZM34.6379 60.3607C33.5754 55.772 32.6353 51.4928 32.6766 47.621L47.3769 62.3213C43.505 62.3626 39.2258 61.4232 34.6379 60.3607ZM50.9515 61.9552L33.0426 44.0463C33.4855 41.9328 34.3603 39.9701 35.8403 38.1784L56.8188 59.1575C55.0278 60.6383 53.0658 61.5124 50.9515 61.9552ZM58.7902 57.1875L37.811 36.2084C39.602 34.7284 41.5648 33.8535 43.6782 33.4107L61.5872 51.3196C61.1443 53.4331 60.2702 55.3959 58.7902 57.1875ZM59.9926 35.0052C61.0552 39.5939 61.9945 43.8731 61.9539 47.7449L47.2537 33.0447C51.1248 33.0034 55.4047 33.9427 59.9926 35.0052ZM62.196 62.5641C54.7089 70.0512 45.2511 68.9734 36.1158 66.9925C35.9193 66.0126 35.7055 65.003 35.3359 63.3809C44.5284 65.4719 53.1375 66.873 59.8216 60.1889C74.5407 45.4705 49.565 19.931 66.0345 3.46225C66.689 2.80776 67.7537 2.80703 68.4089 3.46225C69.0634 4.11673 69.0634 5.18218 68.4089 5.83667C53.6057 20.6398 78.7546 46.0062 62.196 62.5641ZM67.458 27.5406C66.2208 21.7031 65.7765 17.1804 66.939 13.3992L81.5994 28.0596C77.8182 29.2221 73.2955 28.7778 67.458 27.5406Z" fill="#086293"/>
</g>
<defs>
<clipPath id="clip0">
<rect width="95" height="95" fill="#086293"/>
</clipPath>
</defs>
</svg>
