<svg width="107" height="107" viewBox="0 0 107 107" fill="none" xmlns="http://www.w3.org/2000/svg">
<path d="M53.5001 42.0059C51.2268 42.0059 49.0045 42.68 47.1143 43.943C45.2241 45.206 43.7509 47.0011 42.8809 49.1014C42.011 51.2017 41.7833 53.5128 42.2268 55.7424C42.6703 57.9721 43.7651 60.0201 45.3725 61.6276C46.98 63.2351 49.0281 64.3298 51.2577 64.7733C53.4874 65.2168 55.7985 64.9892 57.8987 64.1192C59.999 63.2493 61.7942 61.776 63.0572 59.8858C64.3202 57.9956 64.9943 55.7733 64.9943 53.5C64.991 50.4526 63.7789 47.5309 61.624 45.3761C59.4692 43.2212 56.5475 42.0092 53.5001 42.0059ZM53.5001 62.0684C51.8055 62.0684 50.1489 61.5658 48.7398 60.6243C47.3307 59.6828 46.2325 58.3446 45.584 56.779C44.9355 55.2133 44.7658 53.4905 45.0964 51.8284C45.427 50.1663 46.2431 48.6396 47.4414 47.4413C48.6397 46.243 50.1664 45.4269 51.8285 45.0963C53.4906 44.7657 55.2134 44.9354 56.7791 45.5839C58.3448 46.2324 59.683 47.3306 60.6245 48.7397C61.566 50.1487 62.0685 51.8053 62.0685 53.5C62.0661 55.7717 61.1625 57.9497 59.5562 59.5561C57.9498 61.1624 55.7719 62.0659 53.5001 62.0684Z" fill="#086293"/>
<path d="M58.5157 52.0371C58.1277 52.0371 57.7556 52.1912 57.4813 52.4656C57.207 52.7399 57.0528 53.112 57.0528 53.5C57.0507 54.1221 56.8861 54.7328 56.5754 55.2718C56.2647 55.8108 55.8187 56.2593 55.2815 56.5729C55.1155 56.6697 54.9702 56.7982 54.8539 56.9511C54.7376 57.104 54.6525 57.2784 54.6036 57.4642C54.5546 57.65 54.5428 57.8436 54.5686 58.0339C54.5945 58.2243 54.6576 58.4078 54.7544 58.5737C54.8512 58.7397 54.9797 58.885 55.1326 59.0013C55.2855 59.1176 55.4599 59.2027 55.6457 59.2516C55.8315 59.3006 56.0251 59.3125 56.2155 59.2866C56.4058 59.2607 56.5892 59.1976 56.7552 59.1008C57.7337 58.5288 58.5459 57.7111 59.1112 56.7288C59.6766 55.7464 59.9756 54.6334 59.9786 53.5C59.9786 53.112 59.8245 52.7399 59.5501 52.4656C59.2758 52.1912 58.9037 52.0371 58.5157 52.0371Z" fill="#086293"/>
<path d="M91.3095 50.081C91.8427 50.2211 92.3916 50.293 92.9429 50.295C94.2237 50.2943 95.4755 49.9139 96.5403 49.2021C97.605 48.4902 98.4349 47.4788 98.9251 46.2955C99.4153 45.1122 99.5438 43.8102 99.2944 42.554C99.045 41.2977 98.4289 40.1435 97.5239 39.2372C97.4177 39.1319 97.3048 39.0366 97.1895 38.9388C98.2762 34.9982 98.0254 31.5658 96.3928 28.7354C92.8819 22.6497 83.6623 20.656 71.0121 23.1747C66.855 10.96 60.5152 3.9707 53.5 3.9707C46.4849 3.9707 40.1459 10.9591 35.9846 23.1755C23.3319 20.6552 14.1149 22.6497 10.6047 28.7345C9.02232 31.468 8.74479 34.9029 9.75377 38.7156C8.56282 39.648 7.73564 40.9677 7.41561 42.446C7.09558 43.9243 7.30287 45.4679 8.00155 46.8094C8.70023 48.1509 9.84625 49.2056 11.241 49.7908C12.6357 50.3759 14.1912 50.4547 15.6379 50.0133C16.5056 51.1677 17.4561 52.3355 18.4801 53.505C9.97947 63.2052 7.09632 72.1857 10.6039 78.2646C13.1243 82.6341 18.5796 84.9003 26.1381 84.9003C29.447 84.8598 32.744 84.4981 35.983 83.8203C40.1434 96.0384 46.484 103.029 53.5 103.029C56.6699 103.029 59.7963 101.543 62.6059 98.746C63.9883 99.3516 65.5388 99.4554 66.9895 99.0394C68.4403 98.6234 69.7001 97.7136 70.5514 96.4674C71.4027 95.2212 71.7919 93.7168 71.6518 92.2141C71.5117 90.7113 70.8511 89.3048 69.7841 88.2374C69.6788 88.1312 69.5659 88.0351 69.4548 87.9381C70.0023 86.6432 70.5264 85.2631 71.0213 83.8203C74.2587 84.4985 77.5545 84.8602 80.862 84.9003C88.4197 84.9003 93.8758 82.6333 96.3962 78.2646C99.9071 72.1857 97.0206 63.2052 88.5216 53.5059C89.5081 52.3798 90.4393 51.2346 91.3095 50.081ZM95.4541 46.331C94.7873 46.9959 93.8841 47.3693 92.9425 47.3693C92.0009 47.3693 91.0977 46.9959 90.4309 46.331C89.9346 45.8343 89.5967 45.2015 89.4599 44.5128C89.3231 43.824 89.3936 43.1101 89.6624 42.4614C89.9313 41.8127 90.3865 41.2583 90.9704 40.8682C91.5543 40.4782 92.2407 40.27 92.9429 40.27C93.6451 40.27 94.3316 40.4782 94.9155 40.8682C95.4994 41.2583 95.9546 41.8127 96.2234 42.4614C96.4923 43.1101 96.5628 43.824 96.426 44.5128C96.2892 45.2015 95.9513 45.8343 95.4549 46.331H95.4541ZM93.8616 30.1974C95.006 32.1844 95.2267 34.6546 94.5379 37.5537C93.1641 37.2043 91.7137 37.3154 90.4092 37.87C89.1047 38.4246 88.0183 39.3919 87.3167 40.6236C86.615 41.8552 86.337 43.2831 86.5252 44.688C86.7135 46.0929 87.3576 47.3973 88.3586 48.4008C88.464 48.5069 88.5768 48.6022 88.688 48.7C88.0092 49.5839 87.2925 50.4611 86.538 51.3316C82.9522 47.6082 79.0468 44.2066 74.8666 41.1657C74.3206 36.0271 73.3305 30.9454 71.9074 25.9776C82.9317 23.846 91.0846 25.3832 93.8616 30.1966V30.1974ZM69.0393 80.4021C64.9694 79.4091 60.9797 78.1123 57.1038 76.5226C59.599 75.3163 62.0843 74.0055 64.5227 72.5978C66.9804 71.1767 69.3586 69.6787 71.6282 68.1281C71.0732 72.2784 70.2078 76.3812 69.0393 80.4021ZM37.9608 80.4021C36.7913 76.3813 35.9251 72.2785 35.3694 68.1281C37.6448 69.6787 40.0222 71.1784 42.479 72.5978C44.915 74.0055 47.3977 75.318 49.8972 76.5226C46.0209 78.1123 42.031 79.4091 37.9608 80.4021ZM37.9608 26.5979C42.0307 27.5908 46.0204 28.8876 49.8963 30.4774C47.4002 31.6837 44.9158 32.9945 42.4774 34.4064C40.0197 35.8274 37.6415 37.3254 35.3677 38.8761C35.9237 34.7243 36.7905 30.62 37.9608 26.5979ZM31.7657 61.8878C28.4472 59.3325 25.328 56.5285 22.4349 53.5C25.3282 50.4718 28.4475 47.6678 31.7657 45.1122C31.5592 47.8708 31.4497 50.6821 31.4497 53.5C31.4497 56.3179 31.5575 59.1259 31.7657 61.8878ZM43.9428 70.0633C40.7762 68.2351 37.746 66.2723 34.9088 64.2309C34.5594 60.7275 34.3755 57.1255 34.3755 53.5C34.3755 49.8745 34.5594 46.2733 34.9088 42.7691C37.7435 40.7294 40.7746 38.7658 43.9428 36.9367C47.0775 35.1253 50.2909 33.4785 53.5009 32.0231C56.7134 33.4793 59.9259 35.1261 63.0607 36.9367C66.2272 38.7649 69.2575 40.7277 72.0946 42.7691C72.4441 46.2725 72.628 49.8745 72.628 53.5C72.628 57.1255 72.4441 60.7267 72.0946 64.2309C69.26 66.2706 66.2289 68.2342 63.0607 70.0633C59.9259 71.8747 56.7126 73.5215 53.5026 74.9769C50.2884 73.5207 47.0759 71.8739 43.9411 70.0633H43.9428ZM69.041 26.5945C70.2104 30.6153 71.0767 34.7182 71.6324 38.8686C69.3569 37.3179 66.9795 35.8183 64.5269 34.3988C62.0851 32.9945 59.6024 31.682 57.1029 30.4774C60.9792 28.8877 64.9691 27.5909 69.0393 26.5979L69.041 26.5945ZM75.2344 45.1122C78.5529 47.6675 81.6721 50.4715 84.5652 53.5C81.6719 56.5282 78.5526 59.3322 75.2344 61.8878C75.4409 59.1292 75.5504 56.3179 75.5504 53.5C75.5504 50.6821 75.4426 47.8741 75.2344 45.1122ZM53.5 6.89648C59.049 6.89648 64.4617 13.1903 68.1415 23.8033C63.1254 25.0503 58.2264 26.7284 53.4992 28.8189C48.7727 26.7282 43.8743 25.0501 38.8586 23.8033C42.5392 13.1894 47.9511 6.89648 53.5 6.89648ZM11.2259 46.331C10.6428 45.7497 10.2794 44.9842 10.1976 44.165C10.1158 43.3458 10.3206 42.5236 10.7772 41.8385C11.2338 41.1534 11.9138 40.6478 12.7014 40.408C13.489 40.1682 14.3354 40.209 15.0963 40.5233C15.8572 40.8377 16.4855 41.4063 16.8742 42.1321C17.2628 42.8579 17.3877 43.696 17.2275 44.5036C17.0674 45.3111 16.6321 46.0382 15.9959 46.5607C15.3597 47.0833 14.562 47.369 13.7387 47.3692C13.2718 47.3712 12.8092 47.2804 12.3777 47.1022C11.9462 46.9239 11.5544 46.6618 11.225 46.331H11.2259ZM18.3188 39.2372C17.5618 38.4816 16.6295 37.9251 15.6051 37.6175C14.5807 37.3098 13.496 37.2606 12.448 37.4742C11.7726 34.6103 11.9983 32.166 13.1376 30.2016C15.9155 25.3858 24.0684 23.8485 35.0927 25.9809C33.6695 30.949 32.6791 36.031 32.1326 41.1699C27.9523 44.2075 24.0466 47.6061 20.4605 51.3266C19.6462 50.387 18.8855 49.4529 18.1783 48.5245C18.2243 48.481 18.2736 48.4409 18.3188 48.3966C19.5323 47.1809 20.2138 45.5334 20.2138 43.8157C20.2138 42.098 19.5323 40.4504 18.3188 39.2347V39.2372ZM13.136 76.8018C10.3657 71.9934 13.1092 64.1615 20.4646 55.6734C24.0497 59.395 27.9543 62.795 32.1335 65.8343C32.6795 70.9729 33.6696 76.0546 35.0927 81.0224C24.0675 83.1524 15.9146 81.6159 13.1376 76.8018H13.136ZM67.7152 95.3303C67.1338 95.9136 66.3681 96.2771 65.5487 96.359C64.7292 96.4409 63.9068 96.2361 63.2215 95.7794C62.5362 95.3227 62.0305 94.6425 61.7906 93.8547C61.5507 93.0669 61.5914 92.2203 61.9059 91.4592C62.2204 90.6981 62.7891 90.0696 63.5151 89.6809C64.2411 89.2922 65.0794 89.1673 65.8872 89.3275C66.695 89.4877 67.4222 89.9232 67.9449 90.5596C68.4675 91.196 68.7533 91.994 68.7534 92.8175C68.7536 93.7595 68.3803 94.6632 67.7152 95.3303ZM65.2074 86.3415C63.9744 86.3414 62.7671 86.6932 61.7273 87.3557C60.6875 88.0181 59.8584 88.9636 59.3374 90.081C58.8165 91.1985 58.6253 92.4414 58.7864 93.6637C58.9475 94.8861 59.4542 96.037 60.2469 96.9813C58.0735 99.0519 55.8097 100.104 53.5042 100.104C47.9553 100.104 42.5426 93.8097 38.8628 83.1967C43.8789 81.9497 48.7779 80.2716 53.5051 78.1811C58.2327 80.2719 63.1322 81.9501 68.149 83.1967C67.7394 84.3712 67.3131 85.4955 66.8667 86.5613C66.324 86.4165 65.7649 86.3426 65.2032 86.3415H65.2074ZM93.8666 76.8018C91.0888 81.6168 82.9359 83.1549 71.9116 81.0224C73.3348 76.0543 74.3251 70.9724 74.8716 65.8334C79.0492 62.7944 82.9521 59.3947 86.5355 55.6734C93.8909 64.1615 96.6344 71.9934 93.8624 76.8018H93.8666Z" fill="#086293"/>
</svg>
