<svg width="95" height="95" viewBox="0 0 95 95" fill="none" xmlns="http://www.w3.org/2000/svg">
<g clip-path="url(#clip0)">
<path d="M11.0878 95L8.72905 94.997C7.29427 94.995 6.14298 93.8187 6.17155 92.3844L6.1953 91.1933C6.37695 82.0904 10.0223 73.532 16.4604 67.0939L17.1354 66.4189C15.6206 64.1757 14.5929 61.6395 14.1175 58.9353C13.9845 58.1783 14.4903 57.4569 15.2471 57.3238C16.0037 57.1906 16.7255 57.6964 16.8585 58.4534C17.3675 61.3492 18.6178 64.026 20.5052 66.2688C22.0362 64.4531 23.1209 62.3947 23.7568 60.235C23.7729 60.0815 23.8145 59.9303 23.8814 59.7882C24.5635 57.207 24.6123 54.4962 24.0234 51.8932C23.8959 51.4756 23.7826 51.0531 23.6835 50.6264C23.04 48.5596 21.9813 46.5881 20.5048 44.8362C18.6878 46.9979 17.4515 49.5812 16.9123 52.3586C16.7659 53.113 16.0358 53.6052 15.2811 53.4596C14.5266 53.313 14.0337 52.5827 14.1801 51.8283C14.8753 48.2472 16.5624 44.9431 19.0589 42.2731C19.8385 41.4393 21.1668 41.4365 21.9492 42.2731C22.4352 42.7928 22.8895 43.335 23.3115 43.8968C23.7926 39.7995 25.558 35.9723 28.4142 32.9178C29.1952 32.0825 30.5236 32.0827 31.3044 32.9176C31.5187 33.1319 32.1467 33.8488 32.6666 34.5414C33.1477 30.4441 34.9132 26.617 37.7694 23.5624C38.5503 22.7271 39.8788 22.7273 40.6596 23.5622C40.8716 23.7743 41.4899 24.4773 42.0216 25.1857C42.5287 20.8598 44.46 16.8564 47.5866 13.73C52.4065 8.91006 57.61 4.38508 63.0527 0.280724C63.6665 -0.182016 64.5391 -0.0595586 65.0016 0.554026C65.4644 1.16761 65.3419 2.04021 64.7283 2.50295C59.7452 6.26053 54.9668 10.3777 50.5077 14.7539C51.6152 16.0315 52.5284 17.4201 53.2474 18.881C57.7217 14.4199 62.371 10.1176 67.1294 6.03472C67.9881 5.29775 68.0213 5.26621 68.1384 5.19311C68.7158 4.8326 69.4824 4.94281 69.9337 5.47309C70.4317 6.05866 70.3606 6.93682 69.7752 7.43463C64.0622 12.293 59.2755 16.7885 54.3681 21.6957C54.6763 22.69 54.903 23.7042 55.0485 24.728C58.4721 19.918 64.0264 16.7252 70.3224 16.5384L74.6798 12.181C75.2233 11.6375 76.1044 11.6375 76.6477 12.181C77.1911 12.7244 77.1911 13.6055 76.6477 14.1488L72.2902 18.5062C72.1036 24.7965 68.9162 30.3464 64.1136 33.7709C65.1454 33.9171 66.1575 34.1449 67.1424 34.4511C72.1182 29.4752 76.5994 24.6918 81.3938 19.0538C81.8916 18.4682 82.77 18.3971 83.3554 18.8951C83.9409 19.3929 84.012 20.2713 83.514 20.8567C79.2237 25.9019 74.6629 30.8521 69.9541 35.5751C71.4269 36.3033 72.811 37.2229 74.0755 38.3207C78.4519 33.8612 82.5687 29.0828 86.326 24.1003C86.7888 23.4869 87.6612 23.3644 88.275 23.827C88.8886 24.2897 89.0108 25.1623 88.5483 25.7759C84.1719 31.5795 79.0994 37.3119 75.0893 41.2517C71.9642 44.3725 67.9647 46.3005 63.6437 46.8064C64.342 47.331 65.0614 47.9631 65.2669 48.1687C66.1019 48.9495 66.1021 50.2777 65.2669 51.0589C62.2122 53.9153 58.3854 55.6807 54.2881 56.1618C54.8501 56.5837 55.3921 57.0383 55.9116 57.5242C56.7465 58.305 56.7467 59.6333 55.9116 60.4144C54.5586 61.6796 53.0394 62.7416 51.3963 63.5708C50.7103 63.9171 49.8733 63.6415 49.5269 62.9554C49.1805 62.2693 49.4562 61.4325 50.1424 61.0861C51.2874 60.5083 52.3626 59.798 53.3485 58.9689C51.5968 57.4925 49.6256 56.4338 47.5589 55.7904C47.1316 55.6911 46.7084 55.5775 46.29 55.4501C43.6874 54.8615 40.9774 54.9101 38.3965 55.5922C38.254 55.6594 38.1024 55.7011 37.9486 55.7172C35.7893 56.3533 33.7311 57.4378 31.9157 58.9687C33.7038 60.4721 35.7641 61.5672 37.9661 62.2077C38.2028 62.2661 38.4383 62.329 38.6722 62.3964C40.4978 62.8411 42.409 62.978 44.3344 62.7817C45.0988 62.7044 45.782 63.2604 45.8601 64.0249C45.9282 64.6919 45.5133 65.2967 44.8988 65.4921C45.6124 66.0255 46.3449 66.6686 46.5562 66.88C47.3912 67.6607 47.3914 68.989 46.5562 69.7701C39.7192 76.1633 29.6408 76.5788 22.4101 71.6942L21.7357 72.3686C16.3949 77.7094 13.524 84.8183 13.6518 92.3856C13.6759 93.8231 12.5276 95 11.0878 95ZM37.0777 53.0896L38.9166 51.2507C38.4609 50.8366 38.0123 50.39 37.5779 49.912L35.7392 51.7508C35.5279 52.4636 35.2757 53.1625 34.984 53.8446C35.6661 53.5533 36.365 53.3011 37.0777 53.0896ZM46.433 43.7343L48.2719 41.8954C47.8046 41.4705 47.3585 41.0244 46.9333 40.5567L45.0946 42.3954C44.8832 43.1082 44.6311 43.8072 44.3394 44.4892C45.0215 44.1979 45.7204 43.9458 46.433 43.7343ZM27.7223 62.445L29.5614 60.6059C29.0939 60.1812 28.6478 59.7353 28.2226 59.2674L26.3838 61.1061C26.1725 61.819 25.9204 62.5179 25.6287 63.1999C26.3107 62.9085 27.0097 62.6565 27.7223 62.445ZM29.86 35.4801C26.3922 39.5939 25.2276 44.9189 26.3384 49.8443C26.4683 50.2692 26.5837 50.6991 26.6842 51.1333C27.3435 53.2462 28.4198 55.2065 29.86 56.914C31.3909 55.0988 32.4757 53.0412 33.1119 50.882C33.1281 50.7269 33.17 50.5741 33.2381 50.4303C33.9192 47.852 33.9682 45.1447 33.381 42.5446C33.2522 42.1227 33.1375 41.6959 33.0375 41.2647C32.3939 39.2 31.3354 37.2305 29.86 35.4801ZM39.2153 26.1247C35.7475 30.2386 34.5829 35.5636 35.6937 40.489C35.8236 40.9138 35.939 41.3438 36.0396 41.7779C36.6986 43.8903 37.7746 45.8505 39.2153 47.5586C40.7462 45.7435 41.8311 43.6858 42.4673 41.5267C42.4834 41.3716 42.5254 41.2187 42.5935 41.0749C43.2718 38.507 43.3232 35.8113 42.7436 33.2209C42.6085 32.7807 42.4888 32.335 42.3853 31.8845C41.7407 29.8289 40.6848 27.8681 39.2153 26.1247ZM48.5701 16.7701C45.0005 21.0105 43.941 26.5135 45.1461 31.4616C45.2118 31.6906 45.2732 31.921 45.3304 32.1526C45.9614 34.3292 47.0455 36.3907 48.5701 38.2018C53.7454 32.0426 53.7708 22.9596 48.5701 16.7701ZM69.4531 19.3755C61.4181 20.073 54.9969 26.4942 54.2994 34.5292C54.9815 34.47 55.652 34.3694 56.3083 34.2303C56.6007 34.1525 56.8953 34.0815 57.192 34.0173C63.832 32.2227 68.8418 26.4192 69.4531 19.3755ZM72.0591 40.2581C69.0624 37.7352 65.3089 36.3594 61.3426 36.3594C60.1477 36.3594 58.9721 36.4842 57.8307 36.7279C57.5492 36.8024 57.2653 36.8711 56.979 36.9333C54.6559 37.5591 52.4943 38.6855 50.6263 40.2583C52.4559 41.7987 54.5084 42.8624 56.6233 43.4832C56.8905 43.5483 57.1562 43.6192 57.4199 43.6957C62.41 44.8933 67.8753 43.7806 72.0591 40.2581ZM62.7041 49.6135C60.9609 48.144 59.0001 47.0881 56.9443 46.4437C56.4938 46.3402 56.048 46.2205 55.6077 46.0853C53.0172 45.5056 50.3212 45.5572 47.7532 46.2355C47.6097 46.3034 47.4572 46.3454 47.3025 46.3613C45.1433 46.9976 43.0855 48.0824 41.2702 49.6133C41.7767 50.0406 41.7682 50.0074 41.8825 50.1057C43.4629 51.3179 45.2061 52.2101 47.026 52.7812C47.4763 52.885 47.922 53.0046 48.3625 53.1399C53.2816 54.2422 58.5966 53.0759 62.7041 49.6135ZM43.9934 68.3242C42.2458 66.851 40.2798 65.7936 38.2184 65.1496C37.7846 65.049 37.3551 64.9334 36.93 64.8034C34.3293 64.216 31.6213 64.2649 29.0425 64.9463C28.899 65.0142 28.7465 65.0561 28.5918 65.072C26.4326 65.7083 24.3748 66.7931 22.5595 68.324C23.0617 68.7476 23.0591 68.7196 23.1716 68.8165C29.3326 73.5418 37.9642 73.4066 43.9934 68.3242ZM19.7674 70.3999L20.2059 69.9614C19.7437 69.5414 19.2956 69.0942 18.8672 68.6227L18.4282 69.0617C12.5013 74.9888 9.14503 82.8682 8.97786 91.2486L8.95856 92.2141L10.8659 92.2167C10.7828 83.9687 13.939 76.2284 19.7674 70.3999Z" fill="#086293"/>
</g>
<defs>
<clipPath id="clip0">
<rect width="95" height="95" fill="#086293" transform="matrix(-1 0 0 1 95 0)"/>
</clipPath>
</defs>
</svg>
