<svg width="91" height="91" viewBox="0 0 91 91" fill="none" xmlns="http://www.w3.org/2000/svg">
<path d="M90.3144 10.0908C89.8811 9.75402 89.3168 9.63619 88.7854 9.77144L80.3295 11.9215C78.9716 12.2665 77.573 12.4415 76.1725 12.4415H63.7633C59.7378 12.4415 56.3753 15.3299 55.7681 19.3097C55.428 21.5403 53.5431 23.1591 51.2869 23.1591H50.8328V19.4464C53.8982 17.6214 55.9572 14.2756 55.9572 10.4564C55.9574 4.69075 51.2667 0 45.5008 0C39.735 0 35.0444 4.69075 35.0444 10.4564C35.0444 14.2756 37.1034 17.6214 40.1688 19.4464V23.1591H39.7147C37.4585 23.1591 35.5737 21.5403 35.2335 19.3097C34.6264 15.3299 31.2638 12.4415 27.2383 12.4415H14.8291C13.4286 12.4415 12.03 12.2666 10.6723 11.9215L2.21625 9.77162C1.68518 9.63654 1.12052 9.7542 0.687207 10.091C0.254247 10.4276 0.000976562 10.9455 0.000976562 11.494C0.000976562 15.2458 1.44844 18.6649 3.81194 21.2264C3.86384 25.5398 5.9076 29.3803 9.06469 31.8732L10.7366 34.1076C14.5488 39.2029 20.6243 42.245 26.9882 42.245C31.8699 42.245 36.4961 40.529 40.1688 37.3843V43.7228H38.5747C32.2373 43.7228 27.0812 48.8789 27.0812 55.2163C27.0812 57.1529 27.5726 59.0682 28.502 60.7552C28.8258 61.3432 29.4335 61.6754 30.0604 61.6754C30.3504 61.6754 30.6446 61.6043 30.9163 61.4544C31.7762 60.9808 32.0892 59.8998 31.6155 59.0401C30.9748 57.8768 30.6359 56.5547 30.6359 55.2163C30.6359 50.8388 34.1971 47.2775 38.5747 47.2775H40.1688V63.155H35.9921C31.3043 63.155 27.4905 66.9688 27.4905 71.6567C27.4905 76.3444 31.3043 80.1582 35.9921 80.1582H40.9338C41.55 83.4957 42.5355 86.76 43.8897 89.9224C44.1696 90.5763 44.8123 91 45.5234 91H45.5266C46.2389 90.9988 46.8818 90.5724 47.1598 89.9164L47.1948 89.8337C48.5203 86.6985 49.4847 83.4637 50.0871 80.1582H52.1066C54.1157 80.1582 55.7502 81.7927 55.7502 83.8018C55.7502 85.8109 54.1157 87.4453 52.1066 87.4453H51.986C51.0045 87.4453 50.2086 88.2412 50.2086 89.2227C50.2086 90.2041 51.0045 91 51.986 91H52.1066C56.0758 91 59.3049 87.7709 59.3049 83.8018C59.3049 79.8326 56.0758 76.6036 52.1066 76.6036H50.5925C50.7518 75.044 50.8328 73.4712 50.8328 71.8878V66.7097H52.0178C58.3552 66.7097 63.5111 61.5538 63.5111 55.2163C63.5111 48.8789 58.3552 43.7228 52.0178 43.7228H50.8328V37.3843C54.5057 40.5291 59.1317 42.245 64.0134 42.245C70.3771 42.245 76.4522 39.2031 80.265 34.1076L81.9369 31.8732C85.0942 29.3803 87.1378 25.5396 87.1897 21.2262C89.5534 18.6649 91.0006 15.2458 91.0006 11.494C91.0006 10.9455 90.7474 10.4276 90.3144 10.0908ZM38.7617 33.8512C35.6067 36.9718 31.4255 38.6903 26.9882 38.6903C23.0349 38.6903 19.217 37.2667 16.2295 34.7686C16.6756 34.8123 17.1276 34.836 17.5851 34.836H20.5614C21.5428 34.836 22.3387 34.0401 22.3387 33.0586C22.3387 32.0772 21.5428 31.2813 20.5614 31.2813H17.5851C13.0868 31.2813 9.26037 28.359 7.89733 24.3141C9.84263 25.2999 12.0391 25.8594 14.3649 25.8597L18.041 25.8603H18.0411C19.0224 25.8603 19.8183 25.0645 19.8185 24.0831C19.8186 23.1016 19.0229 22.3058 18.0413 22.3056L14.3652 22.305C9.2122 22.3043 4.88972 18.6791 3.81337 13.8453L9.79677 15.3665C11.4405 15.7845 13.1335 15.9962 14.8291 15.9962H27.2383C29.4946 15.9962 31.3793 17.615 31.7195 19.8456C32.3267 23.8254 35.6892 26.7137 39.7147 26.7137H40.1688V32.4595L38.7617 33.8512ZM35.9921 76.6034C33.2644 76.6034 31.0452 74.3842 31.0452 71.6565C31.0452 68.9287 33.2644 66.7095 35.9921 66.7095H40.1688V71.7818C40.1688 73.4013 40.2539 75.0093 40.4203 76.6034H35.9921ZM47.2781 71.8876C47.2781 76.0259 46.6868 80.0873 45.5166 84.0113C44.3253 80.0548 43.7235 75.9587 43.7235 71.7818V66.7095H47.2781V71.8876ZM47.2781 63.1548H43.7235V20.7588C44.3015 20.8583 44.8947 20.913 45.5008 20.913C46.1069 20.913 46.7002 20.8583 47.2781 20.7588V63.1548ZM52.0178 47.2773C56.3952 47.2773 59.9564 50.8386 59.9564 55.2162C59.9564 59.5936 56.3952 63.1548 52.0178 63.1548H50.8328V47.2773H52.0178ZM45.5008 17.3582C41.695 17.3582 38.5991 14.2621 38.5991 10.4564C38.5991 6.65079 41.6952 3.55467 45.5008 3.55467C49.3064 3.55467 52.4026 6.65079 52.4026 10.4564C52.4026 14.2621 49.3066 17.3582 45.5008 17.3582ZM76.6364 22.305L72.9607 22.3056C71.979 22.3058 71.1833 23.1016 71.1835 24.0831C71.1837 25.0647 71.9796 25.8604 72.961 25.8603L76.6371 25.8597C78.9629 25.8594 81.1594 25.3 83.1047 24.3141C81.7416 28.359 77.915 31.2813 73.4169 31.2813H70.4404C69.459 31.2813 68.6631 32.0772 68.6631 33.0586C68.6631 34.0401 69.459 34.836 70.4404 34.836H73.4167C73.8742 34.836 74.326 34.8123 74.7721 34.7686C71.7844 37.2667 67.9667 38.6903 64.0136 38.6903C59.5763 38.6903 55.3951 36.9718 52.2401 33.8513L50.8328 32.4595V26.7137H51.2869C55.3124 26.7137 58.675 23.8254 59.2821 19.8456C59.6223 17.615 61.507 15.9962 63.7633 15.9962H76.1725C77.8681 15.9962 79.5612 15.7845 81.205 15.3665L87.1883 13.8453C86.1119 18.6789 81.7894 22.3043 76.6364 22.305Z" fill="#086293"/>
</svg>
