<svg width="45" height="45" viewBox="0 0 45 45" fill="none" xmlns="http://www.w3.org/2000/svg">
<g clip-path="url(#clip0)">
<path d="M38.2229 26.4284H38.9558C39.3606 26.4284 39.6887 26.1002 39.6887 25.6954C39.6887 25.2907 39.3606 24.9625 38.9558 24.9625H36.0242V23.4967C36.0242 23.0919 35.696 22.7638 35.2913 22.7638C34.8865 22.7638 34.5583 23.0919 34.5583 23.4967V24.9625H31.6267C31.2219 24.9625 30.8938 25.2907 30.8938 25.6954C30.8938 26.1002 31.2219 26.4284 31.6267 26.4284H36.7571V27.8942C36.7571 29.0476 36.214 30.1338 35.2913 30.8258C34.7195 30.3953 34.2864 29.8067 34.0453 29.1328C33.8999 28.7637 33.4872 28.5773 33.1141 28.7123C32.7411 28.8472 32.5431 29.2545 32.6674 29.6312C32.9128 30.3267 33.3081 30.9598 33.8254 31.4854C33.0968 31.5833 32.3602 31.6079 31.6267 31.5587C31.2219 31.5587 30.8938 31.8869 30.8938 32.2916C30.8938 32.6964 31.2219 33.0246 31.6267 33.0246C33.1585 33.0246 34.038 33.1198 35.2913 32.5188C36.5592 33.1198 37.4094 33.0246 38.9558 33.0246C39.3606 33.0246 39.6887 32.6964 39.6887 32.2916C39.6887 31.8869 39.3606 31.5587 38.9558 31.5587C38.2222 31.6157 37.4845 31.5887 36.7571 31.4781C38.4135 29.7851 38.2229 28.0188 38.2229 26.4284Z" fill="#F87A0B"/>
<path d="M0.843751 44.0182H25.7627C26.1675 44.0182 26.4956 43.6901 26.4956 43.2853V42.699C26.4989 40.8559 25.4992 39.157 23.8865 38.2649L18.8953 35.1427C18.1661 34.7392 17.7099 33.9751 17.7007 33.1418V30.8258C19.0385 29.519 20.0048 27.8799 20.5004 26.0766C21.034 25.7256 21.3582 25.1322 21.3653 24.4935V21.9649C21.3277 21.4163 21.0618 20.9085 20.6323 20.5651V16.8492C20.6323 16.6074 20.1193 11.0372 13.3032 11.0372C6.48716 11.0372 5.97413 16.6587 5.97413 16.9445V20.5651C5.54282 20.9102 5.27678 21.421 5.24122 21.9723V24.5008C5.245 25.1461 5.57266 25.7464 6.11338 26.0986C6.60258 27.8966 7.56718 29.5296 8.90577 30.8258V33.1418C8.90204 34.0192 8.41045 34.8215 7.6305 35.2233L2.79329 38.2576C1.16122 39.1435 0.135275 40.8422 0.11084 42.699V43.2853C0.11084 43.6901 0.438975 44.0182 0.843751 44.0182ZM3.53353 39.4888L8.37074 36.4473C9.59383 35.7962 10.3619 34.5274 10.3716 33.1418V30.8258C10.3723 30.417 10.2023 30.0265 9.90253 29.7485C8.77951 28.6497 7.96557 27.2746 7.54256 25.7614C7.34467 24.8893 6.70704 24.9625 6.70704 24.4935V21.9796C6.76222 21.8511 6.84772 21.738 6.95623 21.6498C7.26329 21.3727 7.43897 20.9787 7.43995 20.5651V16.9958C7.43995 16.5341 7.88702 12.5031 13.3032 12.5031C18.7194 12.5031 19.1665 16.4974 19.1665 16.9005V20.5651C19.1665 21.4666 19.8188 21.6718 19.8994 21.9649V24.4935C19.8989 24.6429 19.8213 24.7814 19.6942 24.8599C19.3751 25.0672 19.149 25.3905 19.0639 25.7614C18.6409 27.2746 17.827 28.6497 16.7039 29.7485C16.4042 30.0265 16.2341 30.417 16.2349 30.8258V33.1418C16.2319 34.4979 16.9678 35.748 18.1551 36.4033L23.1462 39.5328C24.2596 40.14 24.9741 41.2855 25.0298 42.5524H1.57666C1.64078 41.2569 2.38501 40.0917 3.53353 39.4888Z" fill="#F87A0B"/>
<path d="M40.4211 19.8322H30.1603C28.1365 19.8322 26.4958 21.4728 26.4958 23.4967V24.5668L22.4281 27.2859C22.2255 27.422 22.104 27.6501 22.104 27.8942C22.104 28.1383 22.2255 28.3663 22.4281 28.5025L26.4958 31.2216V32.2916C26.4958 34.3155 28.1365 35.9562 30.1603 35.9562H40.4211C42.445 35.9562 44.0856 34.3155 44.0856 32.2916V23.4967C44.0856 21.4728 42.445 19.8322 40.4211 19.8322ZM42.6198 32.2916C42.6198 33.506 41.6354 34.4904 40.4211 34.4904H30.1603C28.946 34.4904 27.9616 33.506 27.9616 32.2916V30.8258C27.9603 30.5806 27.8366 30.3523 27.6318 30.2175L24.1505 27.8942L27.6318 25.5708C27.8366 25.436 27.9603 25.2077 27.9616 24.9625V23.4967C27.9616 22.2824 28.946 21.298 30.1603 21.298H40.4211C41.6354 21.298 42.6198 22.2824 42.6198 23.4967V32.2916Z" fill="#F87A0B"/>
<path d="M40.4211 0.0435791H30.1603C28.1365 0.0435791 26.4958 1.68426 26.4958 3.70813V4.77818L22.4281 7.49728C22.2255 7.63343 22.104 7.8615 22.104 8.1056C22.104 8.34969 22.2255 8.57777 22.4281 8.71391L26.4958 11.433V12.5031C26.4958 14.5269 28.1365 16.1676 30.1603 16.1676H40.4211C42.445 16.1676 44.0856 14.5269 44.0856 12.5031V3.70813C44.0856 1.68426 42.445 0.0435791 40.4211 0.0435791ZM42.6198 12.5031C42.6198 13.7174 41.6354 14.7018 40.4211 14.7018H30.1603C28.946 14.7018 27.9616 13.7174 27.9616 12.5031V11.0372C27.9603 10.7921 27.8366 10.5638 27.6318 10.4289L24.1505 8.1056L27.6318 5.78227C27.8366 5.64743 27.9603 5.41913 27.9616 5.17395V3.70813C27.9616 2.49381 28.946 1.5094 30.1603 1.5094H40.4211C41.6354 1.5094 42.6198 2.49381 42.6198 3.70813V12.5031Z" fill="#F87A0B"/>
<path d="M35.2913 2.97534C32.8626 2.97534 30.8938 4.94415 30.8938 7.37281V12.5032C30.8938 12.908 31.2219 13.2361 31.6267 13.2361C32.0315 13.2361 32.3596 12.908 32.3596 12.5032V9.57154H38.2229V12.5032C38.2229 12.908 38.551 13.2361 38.9558 13.2361C39.3606 13.2361 39.6887 12.908 39.6887 12.5032V7.37281C39.6887 4.94415 37.7199 2.97534 35.2913 2.97534ZM32.3596 8.10572V7.37281C32.3596 5.75371 33.6722 4.44116 35.2913 4.44116C36.9104 4.44116 38.2229 5.75371 38.2229 7.37281V8.10572H32.3596Z" fill="#F87A0B"/>
</g>
<defs>
<clipPath id="clip0">
<rect width="43.9747" height="43.9747" fill="white" transform="translate(0.113525 0.0435791)"/>
</clipPath>
</defs>
</svg>
