<svg width="45" height="45" viewBox="0 0 45 45" fill="none" xmlns="http://www.w3.org/2000/svg">
<g clip-path="url(#clip0)">
<path d="M44.2944 24.8594C43.8996 20.888 42.1254 17.144 39.2984 14.317C36.8825 11.9012 33.9255 10.3487 30.8141 9.65843V7.47615C32.0849 7.15999 33.0295 6.00968 33.0295 4.64241C33.0295 3.03215 31.7195 1.72217 30.1093 1.72217H23.9253C22.315 1.72217 21.005 3.03215 21.005 4.64241C21.005 6.00959 21.9496 7.15991 23.2204 7.47615V9.66453C20.1185 10.3577 17.1713 11.908 14.7622 14.3171C14.235 14.8443 13.7489 15.3973 13.3039 15.9721C13.2824 15.9704 13.2608 15.9688 13.2388 15.9688H7.11825C6.64397 15.9688 6.25936 16.3533 6.25936 16.8277C6.25936 17.3021 6.64397 17.6866 7.11825 17.6866H12.1352C11.5055 18.7409 10.9977 19.8481 10.6112 20.9878H1.26343C0.789153 20.9878 0.404541 21.3724 0.404541 21.8467C0.404541 22.3211 0.789153 22.7056 1.26343 22.7056H10.1258C9.87831 23.7922 9.73625 24.898 9.69957 26.0069H5.90146C5.42718 26.0069 5.04257 26.3915 5.04257 26.8658C5.04257 27.3402 5.42718 27.7247 5.90146 27.7247H9.72697C9.79946 28.8365 9.9782 29.9424 10.2633 31.0261H4.69901C4.22473 31.0261 3.84011 31.4106 3.84011 31.885C3.84011 32.3593 4.22473 32.7438 4.69901 32.7438H10.8114C11.654 34.9728 12.9708 37.0618 14.7622 38.8533C17.5919 41.683 21.3398 43.4577 25.3153 43.8505C25.8827 43.9065 26.4505 43.9342 27.0175 43.9342C30.3691 43.9342 33.6781 42.9642 36.4858 41.1358C36.8833 40.877 36.9957 40.3449 36.7368 39.9474C36.478 39.5499 35.9459 39.4375 35.5484 39.6963C29.4024 43.6985 21.1714 42.8332 15.9769 37.6387C9.882 31.5438 9.882 21.6268 15.9769 15.5318C22.0717 9.43701 31.9887 9.43701 38.0837 15.5318C43.2713 20.7195 44.1414 28.9435 40.1524 35.0865C39.8941 35.4843 40.0072 36.0163 40.4049 36.2746C40.8029 36.5329 41.3348 36.4198 41.593 36.022C43.7243 32.7397 44.6837 28.7755 44.2944 24.8594ZM22.7228 4.64249C22.7228 3.97943 23.2622 3.44004 23.9253 3.44004H30.1093C30.7723 3.44004 31.3117 3.97943 31.3117 4.64249C31.3117 5.30556 30.7723 5.84494 30.1093 5.84494H29.9552H24.0793H23.9253C23.2622 5.84494 22.7228 5.30547 22.7228 4.64249ZM24.9381 9.36924V7.56273H29.0963V9.36615C27.7155 9.20193 26.3186 9.20296 24.9381 9.36924Z" fill="#F87A0B"/>
<path d="M38.6909 37.3867C38.464 37.3867 38.2432 37.4787 38.0834 37.6385C37.9227 37.7984 37.8315 38.0201 37.8315 38.2461C37.8315 38.4721 37.9227 38.6938 38.0834 38.8537C38.2432 39.0144 38.4641 39.1055 38.6909 39.1055C38.9169 39.1055 39.1378 39.0144 39.2985 38.8537C39.4583 38.6938 39.5503 38.4721 39.5503 38.2461C39.5503 38.0201 39.4584 37.7984 39.2985 37.6385C39.1378 37.4787 38.9168 37.3867 38.6909 37.3867Z" fill="#F87A0B"/>
<path d="M27.0288 13.2612C19.682 13.2612 13.7048 19.2383 13.7048 26.5852C13.7048 33.932 19.682 39.9091 27.0288 39.9091C34.3756 39.9091 40.3527 33.932 40.3527 26.5852C40.3527 19.2383 34.3756 13.2612 27.0288 13.2612ZM27.0288 38.1913C20.6291 38.1913 15.4226 32.9848 15.4226 26.5852C15.4226 20.1855 20.6291 14.979 27.0288 14.979C33.4285 14.979 38.6349 20.1855 38.6349 26.5852C38.6349 32.9848 33.4285 38.1913 27.0288 38.1913Z" fill="#F87A0B"/>
<path d="M32.4631 19.9373L28.209 24.1914C27.8532 24.0155 27.4531 23.9161 27.0301 23.9161C26.607 23.9161 26.2069 24.0155 25.8511 24.1914L23.9472 22.2874C23.6118 21.952 23.0681 21.952 22.7325 22.2874C22.3971 22.6228 22.3971 23.1667 22.7325 23.5021L24.6364 25.406C24.4604 25.7618 24.3611 26.1619 24.3611 26.5849C24.3611 28.0566 25.5583 29.2539 27.0301 29.2539C28.5018 29.2539 29.699 28.0566 29.699 26.5849C29.699 26.1619 29.5996 25.7618 29.4237 25.406L33.5529 21.2768L33.6777 21.152C34.0131 20.8166 34.0131 20.2727 33.6777 19.9373C33.3423 19.6019 32.7986 19.6019 32.4631 19.9373ZM27.0301 27.5362C26.5056 27.5362 26.0789 27.1095 26.0789 26.585C26.0789 26.0606 26.5056 25.6339 27.0301 25.6339C27.5545 25.6339 27.9812 26.0606 27.9812 26.585C27.9812 27.1095 27.5545 27.5362 27.0301 27.5362Z" fill="#F87A0B"/>
<path d="M36.2125 25.7368H35.4167C34.9425 25.7368 34.5579 26.1213 34.5579 26.5957C34.5579 27.0701 34.9425 27.4546 35.4167 27.4546H36.2125C36.6868 27.4546 37.0714 27.0701 37.0714 26.5957C37.0714 26.1213 36.6868 25.7368 36.2125 25.7368Z" fill="#F87A0B"/>
<path d="M18.6426 25.7158H17.8469C17.3726 25.7158 16.988 26.1003 16.988 26.5747C16.988 27.0491 17.3726 27.4336 17.8469 27.4336H18.6426C19.1169 27.4336 19.5015 27.0491 19.5015 26.5747C19.5015 26.1003 19.1169 25.7158 18.6426 25.7158Z" fill="#F87A0B"/>
<path d="M27.0388 19.0564C27.5131 19.0564 27.8977 18.6719 27.8977 18.1975V17.4018C27.8977 16.9275 27.5131 16.543 27.0388 16.543C26.5645 16.543 26.1799 16.9275 26.1799 17.4018V18.1975C26.1799 18.6719 26.5645 19.0564 27.0388 19.0564Z" fill="#F87A0B"/>
<path d="M27.0193 34.1135C26.545 34.1135 26.1604 34.498 26.1604 34.9724V35.7681C26.1604 36.2424 26.545 36.627 27.0193 36.627C27.4936 36.627 27.8782 36.2424 27.8782 35.7681V34.9724C27.8782 34.498 27.4936 34.1135 27.0193 34.1135Z" fill="#F87A0B"/>
<path d="M1.26318 31.0256C1.03717 31.0256 0.815449 31.1176 0.655606 31.2774C0.495762 31.4373 0.403809 31.659 0.403809 31.885C0.403809 32.1119 0.495676 32.3327 0.655606 32.4926C0.815535 32.6524 1.03717 32.7444 1.26318 32.7444C1.4892 32.7444 1.71092 32.6524 1.87068 32.4926C2.03052 32.3327 2.12256 32.111 2.12256 31.885C2.12256 31.659 2.03061 31.4373 1.87068 31.2774C1.71092 31.1176 1.4892 31.0256 1.26318 31.0256Z" fill="#F87A0B"/>
</g>
<defs>
<clipPath id="clip0">
<rect width="43.9747" height="43.9747" fill="white" transform="translate(0.405029 0.84082)"/>
</clipPath>
</defs>
</svg>
