<svg width="41" height="41" fill="none" xmlns="http://www.w3.org/2000/svg"><g clip-path="url(#clip0)" fill="#CCA75D"><path d="M28.48 20.193c.331-3.04-6.44-16.236-7.98-18.89-1.467 2.776-1.784 3.172-4.476 8.8-2.942 6.709-4.64 9.709-2.57 13.826H.01v16.569h40.981V23.929H27.55a7.924 7.924 0 00.93-3.736zM18.194 11.13A150.192 150.192 0 0120.5 6.434a149.947 149.947 0 012.306 4.696c2.846 6.083 3.271 8.289 3.271 9.063a5.558 5.558 0 01-1.44 3.736c-2.12 2.437-6.155 2.437-8.275 0-2.535-3.15-1.549-5.233 1.832-12.8zm20.395 15.2v11.766H2.411V26.33H15.41c2.798 2.435 7.387 2.434 10.184 0H38.59z"/><path d="M5.315 18.246a5.31 5.31 0 005.305-5.305C10.857 10.98 6.548 2.659 5.315.502 4.077 2.668-.228 10.982.01 12.941a5.31 5.31 0 005.305 5.305zm0-12.595c1.431 2.864 2.904 6.21 2.904 7.29a2.907 2.907 0 01-2.904 2.904 2.907 2.907 0 01-2.904-2.904c0-1.08 1.473-4.427 2.904-7.29zm30.371 12.595a5.31 5.31 0 005.305-5.305c.237-1.964-4.07-10.28-5.305-12.439-1.237 2.164-5.543 10.483-5.305 12.439a5.31 5.31 0 005.305 5.305zm0-12.595c1.431 2.863 2.904 6.21 2.904 7.29a2.907 2.907 0 01-2.904 2.904 2.907 2.907 0 01-2.904-2.904c0-1.08 1.474-4.427 2.904-7.29zm-3.58 22.52h2.402v2.401h-2.402v-2.4zm-5.923 5.283h2.401v2.401h-2.4v-2.401zm-20.65-.721h2.401v2.402H5.533v-2.402zm5.603-3.762h2.401v2.402h-2.401V28.97z"/></g><defs><clipPath id="clip0"><path fill="#fff" d="M0 0h41v41H0z"/></clipPath></defs></svg>