<svg width="31" height="33" fill="none" xmlns="http://www.w3.org/2000/svg"><g clip-path="url(#clip0)" fill="#CCA75D"><path d="M30.232 17.467c-4.618 0-8.375-3.97-8.375-8.85v-.818h-1.816v.818c0 4.88-3.73 8.85-8.314 8.85h-.768V19.4h.768c4.585 0 8.314 3.97 8.314 8.85v.818h1.816v-.818c0-4.88 3.757-8.85 8.375-8.85H31v-1.933h-.768zm-9.28 6.329c-1.014-2.37-2.81-4.282-5.034-5.362 2.225-1.08 4.02-2.993 5.034-5.362 1.02 2.369 2.826 4.281 5.064 5.362-2.238 1.08-4.044 2.993-5.064 5.361zM11.867 5.865c-2.504 0-4.54-2.197-4.54-4.898V0H5.51v.967c0 2.655-2.108 4.898-4.602 4.898H0V7.8h.908c2.538 0 4.602 2.168 4.602 4.834v.967h1.816v-.967c0-2.666 2.037-4.834 4.541-4.834h.908V5.865h-.908zM6.414 9.158a6.653 6.653 0 00-2.22-2.336 6.644 6.644 0 001.24-1.038 6.95 6.95 0 00.974-1.32 6.667 6.667 0 002.195 2.363 6.628 6.628 0 00-2.19 2.331zm3.896 17.977c-1.645 0-2.984-1.425-2.984-3.177v-.69H5.51v.69c0 1.752-1.339 3.177-2.984 3.177h-.649v1.933h.649c1.645 0 2.984 1.425 2.984 3.177V33h1.816v-.755c0-1.752 1.339-3.177 2.984-3.177h.649v-1.933h-.649zm-3.892 2.124a5.006 5.006 0 00-1.088-1.157 5.009 5.009 0 001.088-1.158c.302.445.67.836 1.088 1.158a5.006 5.006 0 00-1.088 1.157z"/></g><defs><clipPath id="clip0"><path fill="#fff" d="M0 0h31v33H0z"/></clipPath></defs></svg>