<svg width="44" height="40" fill="none" xmlns="http://www.w3.org/2000/svg"><g clip-path="url(#clip0)" fill="#CCA75D"><path d="M39.17 17.707c-4.983 0-9.037-4.024-9.037-8.971v-.83h-1.96v.83c0 4.947-4.024 8.971-8.972 8.971h-.829v1.96h.83c4.946 0 8.971 4.025 8.971 8.972v.83h1.96v-.83c0-4.947 4.054-8.971 9.038-8.971H40v-1.96h-.83zm-10.014 6.416a11 11 0 00-5.432-5.436 11 11 0 005.432-5.435c1.1 2.401 3.05 4.34 5.465 5.435a11.033 11.033 0 00-5.465 5.436zM19.352 5.946c-2.702 0-4.9-2.228-4.9-4.966V0h-1.96v.98c0 2.692-2.275 4.966-4.966 4.966h-.98v1.96h.98c2.738 0 4.965 2.199 4.965 4.9v.98h1.96v-.98c0-2.701 2.2-4.9 4.901-4.9h.98v-1.96h-.98zm-5.885 3.338a6.946 6.946 0 00-2.396-2.368 7.06 7.06 0 001.338-1.052c.41-.409.761-.858 1.052-1.338a6.947 6.947 0 002.369 2.396 6.914 6.914 0 00-2.363 2.362zm4.205 18.225a3.224 3.224 0 01-3.22-3.22v-.7h-1.96v.7a3.224 3.224 0 01-3.221 3.22h-.7v1.96h.7a3.224 3.224 0 013.22 3.22v.766h1.96v-.766a3.224 3.224 0 013.22-3.22h.7v-1.96h-.7zm-4.2 2.153a5.222 5.222 0 00-1.174-1.173 5.22 5.22 0 001.173-1.174 5.23 5.23 0 001.174 1.174 5.222 5.222 0 00-1.174 1.173z"/></g><path fill="#CCA75D" d="M0 38.545h43.636V40H0z"/><defs><clipPath id="clip0"><path fill="#fff" transform="translate(6.545)" d="M0 0h33.455v33.455H0z"/></clipPath></defs></svg>