<svg width="31" height="31" fill="none" xmlns="http://www.w3.org/2000/svg"><path d="M23.654 1.816h1.836V0H5.51v1.816h1.683c.284 6.658 3.575 10.33 6.947 13.726-3.358 3.382-6.636 7.037-6.944 13.642H5.51V31h19.98v-1.816h-1.84c-.308-6.605-3.585-10.26-6.944-13.642 3.373-3.396 6.664-7.068 6.948-13.726zm-8.23 12.44c-1.114-1.12-2.188-2.243-3.131-3.475 1.366-.182 2.41-.442 3.427-.697 1.155-.289 2.263-.565 3.825-.73-1.14 1.825-2.595 3.365-4.122 4.902zm6.411-12.44c-.103 2.2-.567 4.033-1.276 5.634-2.364.144-3.844.513-5.28.872-1.234.309-2.407.602-4.143.76-1.178-1.97-1.985-4.28-2.125-7.266h12.824zm-9.827 27.368l2.798-3.31a.907.907 0 011.388 0l2.798 3.31h-6.984zm9.363 0L17.58 24.7a2.72 2.72 0 00-2.081-.967 2.72 2.72 0 00-2.082.967L9.63 29.184h-.614c.301-5.879 3.198-9.124 6.408-12.356 3.21 3.232 6.107 6.477 6.409 12.356h-.461z" fill="#CCA75D"/><path d="M14.592 20.102h1.816v1.816h-1.816v-1.816z" fill="#CCA75D"/></svg>