<svg width="41" height="41" fill="none" xmlns="http://www.w3.org/2000/svg"><path d="M31.433 0H9.567c-1.13 0-2.05.92-2.05 2.05s.92 2.05 2.05 2.05h21.866c1.13 0 2.05-.92 2.05-2.05S32.563 0 31.433 0zm0 2.733H9.567a.684.684 0 010-1.366h21.866a.684.684 0 010 1.366zm0 34.167H9.567c-1.13 0-2.05.92-2.05 2.05S8.437 41 9.567 41h21.866c1.13 0 2.05-.92 2.05-2.05s-.92-2.05-2.05-2.05zm0 2.733H9.567a.684.684 0 010-1.366h21.866a.684.684 0 010 1.366z" fill="#CCA75D"/><path d="M25.37 17.963a18.25 18.25 0 005.38-12.989V3.417a.683.683 0 00-.683-.684H10.933a.683.683 0 00-.683.684v1.557c0 4.907 1.91 9.52 5.38 12.99l.687.686c.487.487.766 1.161.766 1.85 0 .689-.28 1.363-.766 1.85l-.687.687a18.248 18.248 0 00-5.38 12.989v1.557c0 .378.306.684.683.684h19.134a.683.683 0 00.683-.684v-1.557c0-4.906-1.91-9.52-5.38-12.99l-.687-.686a2.599 2.599 0 01-.766-1.85c0-.7.272-1.356.766-1.85l.686-.686zm-1.654-.279A3.954 3.954 0 0022.55 20.5c0 1.065.414 2.064 1.166 2.816l.687.687a16.892 16.892 0 014.98 12.023v.874H11.617v-.874c0-4.542 1.768-8.812 4.98-12.023l.686-.687A3.953 3.953 0 0018.45 20.5a3.955 3.955 0 00-1.166-2.816l-.687-.687a16.892 16.892 0 01-4.98-12.023V4.1h17.766v.874a16.89 16.89 0 01-4.98 12.023l-.687.687z" fill="#CCA75D"/><path d="M26.275 11.512c-.07-.173-.304-.579-.992-.579-3.55 0-5.133-.76-5.76-1.214a2.92 2.92 0 00-2.687-.396 2.693 2.693 0 00-1.8 2.23.732.732 0 00.085.4c.64 1.134 1.38 2.331 2.442 3.395l.686.686a5.31 5.31 0 011.567 3.783.683.683 0 101.367 0c0-1.43.556-2.773 1.566-3.783l.688-.687c.168-.168.388-.376.63-.603 1.767-1.66 2.51-2.47 2.208-3.232zM23.13 13.75c-.253.238-.484.455-.66.632l-.688.687a6.712 6.712 0 00-1.283 1.79 6.708 6.708 0 00-1.283-1.79l-.686-.686c-.84-.84-1.454-1.765-2.093-2.88.169-.57.606-.802.854-.89a1.555 1.555 0 011.43.214c.871.63 2.588 1.373 5.876 1.464-.422.476-1.085 1.1-1.467 1.459zm4.84 21.047c-.172-2.215-1.06-3.135-2.088-4.201-.139-.145-.284-.294-.432-.453a4.572 4.572 0 00-3.327-1.443h-3.247a4.574 4.574 0 00-3.327 1.443c-.148.159-.292.308-.431.452-1.028 1.066-1.917 1.986-2.088 4.203a.684.684 0 00.682.736h13.576a.684.684 0 00.681-.737zm-13.48-.63c.232-1.193.784-1.764 1.612-2.623.143-.149.292-.304.446-.467a3.194 3.194 0 012.328-1.01h3.247c.88 0 1.729.368 2.33 1.01.153.165.302.318.446.468.828.858 1.38 1.43 1.612 2.622H14.49zm5.99-12.3a.683.683 0 00-.684.683v.684a.683.683 0 101.367 0v-.684a.683.683 0 00-.684-.683zm0 3.416a.683.683 0 00-.684.684v.683a.683.683 0 101.367 0v-.683a.683.683 0 00-.684-.684z" fill="#CCA75D"/></svg>