<svg width="31" height="31" fill="none" xmlns="http://www.w3.org/2000/svg"><path d="M26.46 4.54A15.399 15.399 0 0015.5 0C11.36 0 7.467 1.612 4.54 4.54A15.399 15.399 0 000 15.5c0 4.14 1.612 8.033 4.54 10.96A15.399 15.399 0 0015.5 31c4.14 0 8.033-1.612 10.96-4.54A15.399 15.399 0 0031 15.5c0-4.14-1.612-8.033-4.54-10.96zM1.816 15.5c0-3.655 1.424-7.091 4.008-9.676A13.594 13.594 0 0115.5 1.816a13.58 13.58 0 019.012 3.388l-6.574 6.573-1.53-.883v-2.59l3.353-1.936-.908-1.573L15.5 6.73l-3.353-1.935-.908 1.573 3.353 1.935v2.59l-4.64 2.68v6.19l-4.748 4.75A13.582 13.582 0 011.816 15.5zm9.953-.879l3.731-2.154 3.731 2.154v4.309L15.5 21.084l-3.731-2.154v-4.31zm13.407 10.555a13.594 13.594 0 01-9.676 4.008c-3.35 0-6.517-1.197-9.012-3.387l4.957-4.957 3.147 1.817v3.923h1.816v-3.923l4.64-2.679v-6.406l-1.481-.855 6.23-6.23a13.582 13.582 0 013.387 9.013c0 3.655-1.424 7.091-4.008 9.676z" fill="#CCA75D"/></svg>