<svg width="42" height="42" fill="none" xmlns="http://www.w3.org/2000/svg"><path d="M35.85 6.15A20.863 20.863 0 0021 0 20.863 20.863 0 006.15 6.15 20.863 20.863 0 000 21c0 5.61 2.184 10.883 6.15 14.85A20.863 20.863 0 0021 42c5.61 0 10.883-2.184 14.85-6.15A20.863 20.863 0 0042 21c0-5.61-2.184-10.883-6.15-14.85zM2.46 21c0-4.952 1.93-9.607 5.43-13.11A18.418 18.418 0 0121 2.46c4.54 0 8.83 1.623 12.21 4.59l-8.906 8.906-2.073-1.197v-3.51l4.542-2.622-1.23-2.131L21 9.118l-4.542-2.622-1.23 2.131 4.542 2.623v3.51l-6.286 3.629v8.387L7.05 33.21A18.401 18.401 0 012.46 21zm13.485-1.19L21 16.89l5.055 2.92v5.837L21 28.565l-5.055-2.919V19.81zm18.164 14.3A18.418 18.418 0 0121 39.54c-4.54 0-8.83-1.623-12.21-4.59l6.716-6.715 4.264 2.461v5.316h2.46v-5.316l6.286-3.629v-8.679L26.51 17.23l8.44-8.44A18.402 18.402 0 0139.54 21c0 4.952-1.93 9.608-5.43 13.11z" fill="#CCA75D"/></svg>