<svg width="41" height="41" fill="none" xmlns="http://www.w3.org/2000/svg"><path d="M20.5 0C9.178 0 0 9.178 0 20.5S9.178 41 20.5 41 41 31.822 41 20.5 31.822 0 20.5 0zM2.402 20.5c0-4.565 1.691-8.735 4.48-11.919l7.115 7.114-1.554 1.554a3.581 3.581 0 00-1.552-.352 3.61 3.61 0 00-3.397 2.402H6.086a1.201 1.201 0 000 2.402h1.408a3.61 3.61 0 003.397 2.402c.555 0 1.082-.126 1.552-.352l4.806 4.806c-.226.47-.352.997-.352 1.552a3.61 3.61 0 002.402 3.397v1.408a1.201 1.201 0 002.402 0v-1.408a3.61 3.61 0 002.402-3.397c0-.555-.126-1.082-.352-1.552l1.554-1.554 7.114 7.115a18.027 18.027 0 01-11.919 4.48c-9.995 0-18.098-8.103-18.098-18.098zm9.69 0c0 .662-.539 1.201-1.201 1.201A1.203 1.203 0 019.689 20.5a1.203 1.203 0 012.402 0zm2.05-1.553l1.553-1.553 7.911 7.91-1.553 1.554a3.582 3.582 0 00-1.553-.352c-.556 0-1.082.127-1.553.352l-4.805-4.805a3.592 3.592 0 000-3.106zm6.358-4.453c.556 0 1.082-.127 1.553-.352l4.805 4.805a3.592 3.592 0 000 3.106l-1.553 1.553-7.911-7.91 1.553-1.554c.47.226.997.352 1.553.352zm-1.201-3.603c0-.663.539-1.202 1.201-1.202s1.201.54 1.201 1.202c0 .662-.539 1.2-1.201 1.2a1.203 1.203 0 01-1.201-1.2zM21.7 30.109c0 .663-.539 1.201-1.201 1.201a1.203 1.203 0 01-1.201-1.2c0-.663.539-1.202 1.201-1.202s1.201.539 1.201 1.201zm12.417 2.31l-7.115-7.114 1.554-1.554c.47.226.997.352 1.552.352a3.61 3.61 0 003.397-2.402h1.408a1.201 1.201 0 000-2.402h-1.408a3.61 3.61 0 00-3.397-2.402c-.555 0-1.082.126-1.552.352l-4.806-4.806c.226-.47.352-.997.352-1.552A3.61 3.61 0 0021.7 7.494V6.086a1.201 1.201 0 00-2.402 0v1.408a3.61 3.61 0 00-2.402 3.397c0 .555.126 1.082.352 1.552l-1.554 1.554L8.58 6.882a18.027 18.027 0 0111.92-4.48c9.995 0 18.098 8.103 18.098 18.098 0 4.565-1.691 8.735-4.48 11.919zM28.908 20.5a1.202 1.202 0 111.202 1.201 1.203 1.203 0 01-1.202-1.201z" fill="#CCA75D"/></svg>