<svg width="44" height="44" fill="none" xmlns="http://www.w3.org/2000/svg"><g clip-path="url(#clip0)" fill="#CCA75D"><path d="M40.121 6.206a13.156 13.156 0 00-9.364-3.879 13.145 13.145 0 00-8.756 3.308 13.12 13.12 0 00-6.78-3.16A13.182 13.182 0 007.223 3.77a.86.86 0 10.781 1.531 11.472 11.472 0 016.96-1.128 11.431 11.431 0 016.429 3.247.86.86 0 001.215 0 11.448 11.448 0 018.148-3.375c3.079 0 5.973 1.199 8.149 3.375a11.448 11.448 0 013.375 8.149c0 3.078-1.198 5.972-3.375 8.149L23.139 39.485a1.599 1.599 0 01-1.138.472 1.6 1.6 0 01-1.138-.472L5.096 23.718A11.43 11.43 0 011.85 17.29c-.36-2.401.03-4.808 1.128-6.96a.86.86 0 10-1.53-.78A13.182 13.182 0 00.15 17.544a13.137 13.137 0 003.731 7.389L19.648 40.7a3.306 3.306 0 002.353.974c.89 0 1.725-.346 2.354-.974L40.12 24.934A13.156 13.156 0 0044 15.57c0-3.537-1.378-6.863-3.88-9.364z"/><path d="M31.973 12.248c.096-.98.066-2.72-1.204-3.359-1.984-.997-4.69 1.8-6.337 5.076-.44.875-.8 1.771-1.06 2.634a6.458 6.458 0 00-2.742 0 16.63 16.63 0 00-1.06-2.634c-1.648-3.277-4.353-6.073-6.337-5.076-1.27.64-1.3 2.379-1.205 3.36.138 1.417.67 3.105 1.5 4.754.703 1.399 1.56 2.647 2.448 3.576a6.427 6.427 0 00-.436 2.448 5.315 5.315 0 00-1.709 3.92c0 2.95 2.4 5.351 5.352 5.351a5.37 5.37 0 002.818-.803 5.37 5.37 0 002.818.803c2.95 0 5.352-2.4 5.352-5.352a5.315 5.315 0 00-1.71-3.919c.002-.038.002-.076.002-.114 0-.822-.156-1.61-.438-2.334.889-.93 1.746-2.177 2.449-3.576.829-1.649 1.361-3.337 1.5-4.755zm-16.91 3.983c-.725-1.443-1.208-2.955-1.324-4.15-.103-1.057.109-1.577.266-1.656.431-.218 2.377 1.026 4.03 4.312.412.82.743 1.655.976 2.45a6.505 6.505 0 00-2.148 1.812c-.645-.756-1.267-1.708-1.8-2.768zM24.82 30.58a3.586 3.586 0 01-1.959-.574v-.507l1.17-1.169a.86.86 0 00-1.216-1.215l-.813.813-.813-.813a.86.86 0 10-1.216 1.215l1.17 1.17v.506a3.586 3.586 0 01-1.96.574 3.637 3.637 0 01-3.632-3.634c0-1.126.51-2.17 1.4-2.865a.86.86 0 00.328-.754 4.709 4.709 0 01-.021-.414 4.75 4.75 0 014.744-4.743 4.75 4.75 0 014.743 4.743c0 .123-.006.258-.02.414a.859.859 0 00.327.754 3.614 3.614 0 011.401 2.865 3.637 3.637 0 01-3.633 3.634zm5.444-18.498c-.116 1.194-.599 2.706-1.324 4.15-.533 1.059-1.155 2.011-1.8 2.767a6.506 6.506 0 00-2.148-1.812c.233-.795.564-1.63.976-2.45 1.652-3.286 3.598-4.529 4.03-4.312.157.08.369.599.266 1.657zM4.491 7.676a.86.86 0 100-1.718.86.86 0 000 1.718z"/><path d="M20.14 25.055a.86.86 0 100-1.719.86.86 0 000 1.719zm3.608 0a.86.86 0 100-1.719.86.86 0 000 1.719z"/></g><defs><clipPath id="clip0"><path fill="#fff" d="M0 0h44v44H0z"/></clipPath></defs></svg>