<svg width="94" height="94" viewBox="0 0 94 94" fill="none" xmlns="http://www.w3.org/2000/svg">
<g clip-path="url(#clip0)">
<path d="M92.1605 21.9025C93.1768 21.9025 94.0006 21.0786 94.0006 20.0623C94.0006 19.046 93.1768 18.2222 92.1605 18.2222C91.1442 18.2222 90.3203 19.046 90.3203 20.0623C90.3203 21.0786 91.1442 21.9025 92.1605 21.9025Z" fill="#01B259"/>
<path d="M56.0966 75.3979H48.9739C47.9577 75.3979 47.1337 76.2218 47.1337 77.238C47.1337 78.2542 47.9575 79.0782 48.9739 79.0782H56.0966C57.1932 79.0782 58.0855 79.9706 58.0855 81.0672C58.0855 82.1638 57.1932 83.0561 56.0966 83.0561H36.9234C34.0426 83.0561 31.3337 81.7858 29.4912 79.5713L24.9063 74.06C22.4459 71.1027 18.8659 69.3705 15.035 69.2594V58.4252H21.789C25.1207 58.4252 28.2756 59.6995 30.6726 62.0133L40.5686 71.5657C41.2665 72.2391 41.299 73.3669 40.6412 74.0798C39.9709 74.8061 38.8326 74.8535 38.1041 74.1858L30.3346 67.0636C29.5853 66.377 28.4215 66.4275 27.7347 67.1765C27.0481 67.9254 27.0986 69.0894 27.8476 69.7762L35.6173 76.8986C36.666 77.8598 37.993 78.3344 39.3167 78.3344C40.7945 78.3344 42.2682 77.7427 43.3453 76.5758C45.3492 74.4048 45.2501 70.9694 43.1244 68.9176L33.2286 59.3654C30.142 56.3858 26.0793 54.7449 21.7892 54.7449H14.7034C14.0276 53.0751 12.39 51.8933 10.4806 51.8933H1.84016C0.823784 51.8935 0 52.7175 0 53.7335V67.156C0 68.172 0.823784 68.9961 1.84016 68.9961C2.85635 68.9961 3.68031 68.1722 3.68031 67.156V55.5736H10.4808C10.9629 55.5736 11.3551 55.9658 11.3551 56.4479V71.1602C11.3551 71.6423 10.9629 72.0344 10.4808 72.0344H8.57436C7.55817 72.0344 6.73421 72.8584 6.73421 73.8746C6.73421 74.8908 7.55799 75.7147 8.57436 75.7147H10.4806C12.3646 75.7147 13.9852 74.5647 14.677 72.9298C17.5457 72.9394 20.2414 74.2076 22.0769 76.4139L26.6618 81.9252C29.2057 84.9827 32.9458 86.7364 36.9232 86.7364H56.0966C59.2225 86.7364 61.7656 84.1933 61.7656 81.0672C61.7656 77.9408 59.2225 75.3979 56.0966 75.3979Z" fill="#01B259"/>
<path d="M67.6329 62.6514C66.8775 61.9714 65.7139 62.0327 65.0341 62.7882C65.0306 62.7921 65.015 62.8095 65.0115 62.8136C64.3395 63.5733 64.4115 64.7305 65.1692 65.4046C65.519 65.7158 65.9552 65.8687 66.3899 65.8687C66.8968 65.8686 67.4019 65.6607 67.7661 65.2537L66.4019 64.019L67.7696 65.2498C68.4495 64.4945 68.3883 63.3311 67.6329 62.6514Z" fill="#01B259"/>
<path d="M63.7871 66.6542C63.1893 65.8324 62.0314 65.6556 61.2091 66.2538C60.3873 66.8514 60.2055 68.0021 60.8031 68.8241C61.1632 69.319 61.724 69.5819 62.2928 69.5819C62.6681 69.5819 63.0468 69.4676 63.3736 69.2298L63.3885 69.219C64.2104 68.6214 64.3848 67.476 63.7871 66.6542Z" fill="#01B259"/>
<path d="M59.1955 69.7314C58.7797 68.8099 57.6976 68.3983 56.7741 68.8053C55.853 69.2023 55.4177 70.2665 55.8018 71.1968C56.0946 71.9068 56.7803 72.3356 57.5033 72.3356C57.7372 72.3356 57.975 72.2906 58.2046 72.1959C58.2232 72.1882 58.2584 72.173 58.2768 72.1645C59.2027 71.7465 59.6132 70.6578 59.1955 69.7314Z" fill="#01B259"/>
<path d="M54.0506 71.7821C53.8441 70.7915 52.8754 70.1561 51.8853 70.354C50.8979 70.5436 50.244 71.4928 50.4217 72.4853C50.5812 73.3761 51.3566 74.0014 52.2308 74.0014C52.3384 74.0014 52.4478 73.9919 52.5574 73.9724C52.5806 73.9682 52.6041 73.9636 52.6274 73.9588C53.6217 73.7508 54.2579 72.7767 54.0506 71.7821Z" fill="#01B259"/>
<path d="M74.6864 43.1521L72.8795 43.4992L74.6858 43.1488C74.4923 42.1511 73.5266 41.4988 72.529 41.6929C71.5313 41.8864 70.8796 42.8521 71.0731 43.8497L71.0819 43.8938C71.2633 44.7625 72.0305 45.3631 72.8844 45.3631C73.0085 45.3631 73.1343 45.3504 73.2604 45.324C74.2549 45.1161 74.894 44.1468 74.6864 43.1521Z" fill="#01B259"/>
<path d="M73.0052 47.1856C71.9923 47.0968 71.1001 47.8447 71.0107 48.8569C71.0099 48.8659 71.0075 48.8929 71.007 48.9021C70.9325 49.9155 71.6931 50.8034 72.7067 50.8779C72.753 50.8814 72.7989 50.8829 72.8446 50.8829C73.7991 50.8829 74.6053 50.1507 74.6763 49.1835L72.8437 49.0186L74.6765 49.1804C74.7659 48.1682 74.0176 47.275 73.0052 47.1856Z" fill="#01B259"/>
<path d="M70.5211 57.9312C69.6378 57.4296 68.5107 57.7467 68.0086 58.6294C67.5061 59.5129 67.8147 60.6361 68.6978 61.1388C68.9851 61.3024 69.2976 61.38 69.6061 61.38C70.2461 61.38 70.8679 61.0457 71.2072 60.4496C71.2077 60.4486 71.2173 60.4318 71.2178 60.4307C71.7187 59.547 71.4042 58.4328 70.5211 57.9312Z" fill="#01B259"/>
<path d="M72.3342 52.6857C71.3617 52.3903 70.3338 52.9416 70.0393 53.9143C69.7362 54.8842 70.2769 55.9164 71.2468 56.2193C71.4295 56.2766 71.6146 56.3036 71.7963 56.3036C72.5799 56.3036 73.306 55.7992 73.552 55.0116L73.5621 54.9789C73.8566 54.0064 73.3069 52.9803 72.3342 52.6857Z" fill="#01B259"/>
<path d="M23.8023 52.4129C23.5774 51.4282 22.6001 50.8094 21.612 51.0258C20.6197 51.2448 19.9926 52.2267 20.2116 53.2192L20.2244 53.2744C20.4282 54.1159 21.1806 54.6793 22.0097 54.6793C22.1531 54.6793 22.299 54.6624 22.4446 54.6273C23.4296 54.389 24.0357 53.3976 23.8023 52.4129Z" fill="#01B259"/>
<path d="M24.2106 34.8802C23.2849 34.4622 22.1943 34.8736 21.7763 35.7999L21.7546 35.8494C21.3544 36.783 21.7873 37.8622 22.7209 38.263C22.9572 38.3643 23.2026 38.4124 23.4446 38.4124C24.1566 38.4124 24.8348 37.9962 25.1359 37.3024C25.5449 36.3787 25.1328 35.2968 24.2106 34.8802Z" fill="#01B259"/>
<path d="M22.1814 40.032C21.1872 39.8248 20.2116 40.4618 20.0038 41.4567L19.995 41.5008C19.8015 42.4984 20.4525 43.468 21.4501 43.6615C21.5689 43.6844 21.6875 43.6956 21.8041 43.6956C22.6668 43.6956 23.4357 43.0883 23.6061 42.2095C23.8139 41.2147 23.1761 40.2397 22.1814 40.032Z" fill="#01B259"/>
<path d="M27.2642 30.2649C26.4406 29.6732 25.2911 29.8625 24.697 30.6844L26.1819 31.7709L24.6939 30.6887C24.0961 31.5106 24.2779 32.6614 25.0996 33.2592C25.4264 33.4969 25.8052 33.6111 26.1805 33.6111C26.7492 33.6111 27.3101 33.3484 27.6701 32.8532L27.69 32.8257C28.2795 32.0004 28.0878 30.8568 27.2642 30.2649Z" fill="#01B259"/>
<path d="M31.257 26.4163C30.5772 25.661 29.4135 25.5997 28.6582 26.2793C28.6577 26.2797 28.6436 26.2925 28.643 26.2929C27.8886 26.9733 27.8352 28.13 28.5152 28.8849C28.8769 29.2866 29.3776 29.49 29.8806 29.49C30.3227 29.49 30.7668 29.3329 31.12 29.0149C31.8753 28.335 31.9367 27.1716 31.257 26.4163Z" fill="#01B259"/>
<path d="M35.9776 23.5167C35.4815 22.6297 34.3603 22.3128 33.4734 22.8089C33.4664 22.8128 33.4438 22.8256 33.437 22.8297C32.5565 23.3369 32.2518 24.4635 32.7592 25.344C33.1 25.9353 33.7185 26.2663 34.3548 26.2663C34.6658 26.2663 34.981 26.1872 35.27 26.0207C36.1568 25.5248 36.4737 24.4036 35.9776 23.5167Z" fill="#01B259"/>
<path d="M41.196 21.645C40.8836 20.678 39.8512 20.1454 38.8844 20.4583L39.4225 22.218L38.8813 20.4592C37.9103 20.7581 37.365 21.7877 37.6639 22.7591C37.9073 23.5502 38.6353 24.0585 39.422 24.0585C39.6012 24.0585 39.7835 24.0323 39.9638 23.9767C39.9718 23.9741 39.9975 23.9662 40.0058 23.9634C40.9728 23.651 41.5085 22.6122 41.196 21.645Z" fill="#01B259"/>
<path d="M46.696 20.985C46.6067 19.9729 45.7141 19.2253 44.7014 19.3138L44.683 19.3154C43.6709 19.4046 42.9317 20.2969 43.021 21.3092C43.1054 22.2665 43.9167 22.9869 44.8608 22.9869C44.9151 22.9869 44.9696 22.9845 45.0249 22.9797C46.0369 22.8905 46.7852 21.9973 46.696 20.985Z" fill="#01B259"/>
<path d="M23.1601 47.2841C23.1304 46.2684 22.287 45.4639 21.2665 45.4929C20.2507 45.5229 19.4514 46.3646 19.4813 47.3803L21.3213 47.3564L19.4813 47.3834C19.4962 48.3902 20.317 49.1964 21.3205 49.1964C21.3297 49.1964 21.3389 49.1964 21.3481 49.1962C22.3641 49.1813 23.1757 48.3454 23.1609 47.3292C23.1609 47.3204 23.1603 47.2933 23.1601 47.2841Z" fill="#01B259"/>
<path d="M48.8938 45.0228H47.464H46.5365H45.1064C43.5641 45.0228 42.3092 43.7679 42.3092 42.2254V40.0226C42.3092 38.4801 43.5641 37.2252 45.1064 37.2252H49.3025C50.6196 37.2252 51.691 38.2967 51.691 39.6138C51.691 40.6299 52.5148 41.4539 53.5312 41.4539C54.5475 41.4539 55.3713 40.6301 55.3713 39.6138C55.3713 36.2674 52.649 33.5451 49.3027 33.5451H48.8402V30.8055C48.8402 29.7893 48.0164 28.9653 47 28.9653C45.9838 28.9653 45.1599 29.7891 45.1599 30.8055V33.5451H45.1063C41.5348 33.5453 38.6291 36.4512 38.6291 40.0228V42.2256C38.6291 45.7974 41.535 48.7031 45.1064 48.7031H47.464C47.4653 48.7031 47.4664 48.7029 47.4675 48.7029H48.8936C50.4362 48.7029 51.691 49.9578 51.691 51.5003V53.7031C51.691 55.2456 50.4362 56.5005 48.8936 56.5005H44.6976C43.3805 56.5005 42.3092 55.429 42.3092 54.1119C42.3092 53.0959 41.4854 52.2718 40.4691 52.2718C39.4529 52.2718 38.6289 53.0958 38.6289 54.1119C38.6289 57.4585 41.3512 60.1806 44.6974 60.1806H45.1599V62.92C45.1599 63.936 45.9837 64.7602 47 64.7602C48.0162 64.7602 48.8402 63.9362 48.8402 62.92V60.1806H48.8938C52.4656 60.1806 55.3713 57.2747 55.3713 53.7031V51.5003C55.3713 47.9285 52.4654 45.0228 48.8938 45.0228Z" fill="#01B259"/>
<path d="M92.16 24.224C91.1438 24.224 90.3198 25.0478 90.3198 26.0641V38.3638H83.5194C83.0372 38.3638 82.6451 37.9716 82.6451 37.4895V22.7773C82.6451 22.2951 83.0372 21.903 83.5194 21.903H85.2912C86.3074 21.903 87.1314 21.0792 87.1314 20.0628C87.1314 19.0466 86.3076 18.2227 85.2912 18.2227H83.5194C81.6118 18.2227 79.9754 19.4019 79.2984 21.0695C76.4389 21.0528 73.7533 19.7861 71.923 17.5862L67.338 12.0747C64.7943 9.01711 61.0543 7.26343 57.0766 7.26343H37.9034C34.7775 7.26343 32.2344 9.80656 32.2344 12.9324C32.2344 16.0583 34.7775 18.6014 37.9034 18.6014H45.7435C46.7597 18.6014 47.5837 17.7776 47.5837 16.7613C47.5837 15.7451 46.7599 14.9211 45.7435 14.9211H37.9034C36.8068 14.9211 35.9145 14.0288 35.9145 12.9322C35.9145 11.8356 36.8068 10.9434 37.9034 10.9434H57.0768C59.9575 10.9434 62.6665 12.2137 64.509 14.4282L69.0941 19.9395C71.5542 22.8968 75.1345 24.629 78.9651 24.74V35.5743H72.2111C68.8794 35.5743 65.7246 34.2999 63.3276 31.9861L53.4315 22.4338C52.7337 21.7601 52.7012 20.6323 53.359 19.9194C54.0293 19.1931 55.1676 19.1458 55.8961 19.8135L63.6656 26.9356C64.4146 27.6223 65.5786 27.572 66.2654 26.8227C66.9521 26.0737 66.9016 24.9097 66.1525 24.2229L58.383 17.1011C56.1636 15.0667 52.6968 15.2114 50.6549 17.4237C48.6509 19.5945 48.7501 23.0301 50.8757 25.0819L60.7716 34.6343C63.8582 37.6136 67.9209 39.2548 72.2109 39.2548H79.3211C80.012 40.8919 81.6335 42.0437 83.5192 42.0437H92.1598C93.176 42.0437 94 41.2199 94 40.2036V26.0639C94.0001 25.0478 93.1764 24.224 92.16 24.224Z" fill="#01B259"/>
<path d="M1.84016 75.7152C2.85645 75.7152 3.68031 74.8914 3.68031 73.8751C3.68031 72.8588 2.85645 72.0349 1.84016 72.0349C0.823866 72.0349 0 72.8588 0 73.8751C0 74.8914 0.823866 75.7152 1.84016 75.7152Z" fill="#01B259"/>
</g>
<defs>
<clipPath id="clip0">
<rect width="94" height="94" fill="white"/>
</clipPath>
</defs>
</svg>
