<svg width="14" height="14" viewBox="0 0 14 14" fill="none" xmlns="http://www.w3.org/2000/svg">
<path d="M13.6179 10.2746L11.6642 8.32085C10.9664 7.62308 9.78022 7.90222 9.50112 8.80928C9.29179 9.4373 8.59402 9.78618 7.96603 9.6466C6.5705 9.29772 4.68654 7.48353 4.33766 6.01822C4.12833 5.39021 4.54699 4.69244 5.17497 4.48314C6.08207 4.20403 6.36118 3.01783 5.66341 2.32007L3.70967 0.366327C3.15146 -0.122109 2.31414 -0.122109 1.8257 0.366327L0.499949 1.69208C-0.825804 3.08761 0.639502 6.78576 3.919 10.0653C7.19849 13.3448 10.8966 14.8799 12.2922 13.4843L13.6179 12.1586C14.1064 11.6003 14.1064 10.763 13.6179 10.2746Z" fill="#01B259"/>
</svg>
