<svg width="88" height="88" viewBox="0 0 88 88" fill="none" xmlns="http://www.w3.org/2000/svg">
<path d="M54.8952 16.5618C53.946 16.5618 53.1765 17.3313 53.1765 18.2805V28.9108C53.1765 32.1388 50.5504 34.765 47.3223 34.765C46.373 34.765 45.6035 35.5345 45.6035 36.4838C45.6035 37.4331 46.373 38.2025 47.3223 38.2025C52.4457 38.2025 56.614 34.0344 56.614 28.9108V18.2805C56.614 17.3313 55.8443 16.5618 54.8952 16.5618Z" fill="#01B259"/>
<path d="M74.3985 7.59894H65.5438V3.43441C66.4639 3.40123 67.2 2.64687 67.2 1.71875C67.2 0.769484 66.4305 0 65.4813 0H63.8251H24.2715H22.2257C21.2764 0 20.5069 0.769484 20.5069 1.71875C20.5069 2.66802 21.2764 3.4375 22.2257 3.4375H22.5527V7.59894H13.6008C9.61967 7.59894 6.38086 10.5583 6.38086 14.196V19.4104C6.38086 27.7932 13.6118 34.6882 22.7685 35.3337C23.9252 42.1632 29.6271 47.4665 36.6436 48.0105C37.2046 50.5264 37.4798 53.0991 37.4586 55.6765C37.4392 58.051 37.1664 60.4206 36.6529 62.7399H33.8824C31.9866 62.7399 30.4442 64.2823 30.4442 66.1781V78.1325H28.9508C25.4769 78.1325 22.6505 80.9588 22.6505 84.4327V86.2812C22.6505 87.2305 23.42 88 24.3693 88H63.728C64.6772 88 65.4467 87.2305 65.4467 86.2812V84.4329C65.4467 80.959 62.6204 78.1327 59.1465 78.1327H57.6531V66.1782C57.6531 64.2824 56.1107 62.74 54.2147 62.74H51.3894C50.7861 60.4323 50.4665 58.0616 50.4438 55.6744C50.4192 53.0863 50.7404 50.5154 51.3982 48.0147C58.4427 47.494 64.1733 42.1771 65.33 35.3258C74.4398 34.6378 81.619 27.763 81.619 19.4104V14.196C81.6183 10.5583 78.3795 7.59894 74.3985 7.59894ZM54.2152 66.1782V78.1327H44.0485C43.0992 78.1327 42.3297 78.9021 42.3297 79.8514C42.3297 80.8007 43.0992 81.5702 44.0485 81.5702H59.1463C60.7248 81.5702 62.0091 82.8544 62.0091 84.4329V84.5625H26.0879V84.4329C26.0879 82.8544 27.3721 81.5702 28.9506 81.5702H34.3063C35.2555 81.5702 36.025 80.8007 36.025 79.8514C36.025 78.9021 35.2555 78.1327 34.3063 78.1327H33.8817L33.8824 66.1774L54.2152 66.1782ZM40.1689 48.0568H47.8455C47.2634 50.5634 46.9815 53.1274 47.0059 55.7069C47.0284 58.0776 47.3103 60.4345 47.8455 62.7397H40.1689C40.6326 60.4237 40.8767 58.0662 40.8959 55.7047C40.9169 53.137 40.6727 50.5734 40.1689 48.0568ZM62.106 32.7736C62.1062 39.3054 56.7921 44.6194 50.2604 44.6194H50.0883H38.0079H37.8359C31.3041 44.6194 25.9901 39.3054 25.9901 32.7736C25.9901 31.8244 25.2206 31.0549 24.2713 31.0549C23.6467 31.0549 23.1017 31.389 22.8008 31.8873C15.5268 31.2816 9.81802 25.9179 9.81802 19.4104V14.196C9.81802 12.4539 11.5148 11.0364 13.6005 11.0364H22.5526V19.8394C22.5526 20.7886 23.3221 21.5581 24.2713 21.5581C25.2206 21.5581 25.9901 20.7886 25.9901 19.8394V3.4375H62.106V32.7736ZM78.1808 19.4104C78.1808 25.8144 72.6516 31.1087 65.5437 31.8529V11.0364H74.3983C76.484 11.0364 78.1808 12.4539 78.1808 14.196V19.4104Z" fill="#01B259"/>
<path d="M24.1738 28.3782C25.1231 28.3782 25.8926 27.6087 25.8926 26.6594C25.8926 25.7102 25.1231 24.9407 24.1738 24.9407C23.2246 24.9407 22.4551 25.7102 22.4551 26.6594C22.4551 27.6087 23.2246 28.3782 24.1738 28.3782Z" fill="#01B259"/>
<path d="M54.8945 13.5693C55.8438 13.5693 56.6133 12.7998 56.6133 11.8506C56.6133 10.9013 55.8438 10.1318 54.8945 10.1318C53.9453 10.1318 53.1758 10.9013 53.1758 11.8506C53.1758 12.7998 53.9453 13.5693 54.8945 13.5693Z" fill="#01B259"/>
</svg>
