<svg width="38" height="38" viewBox="0 0 38 38" fill="none" xmlns="http://www.w3.org/2000/svg">
<g clip-path="url(#clip0)">
<path d="M37.2596 11.6251C37.7039 11.4671 38.0005 11.0464 38 10.5748C37.9994 10.1032 37.7018 9.68323 37.2571 9.52633L19.3704 3.21543C19.1308 3.13083 18.8693 3.13083 18.6297 3.21543L0.742931 9.52633C0.298212 9.68315 0.00059464 10.1032 8.89662e-07 10.5748C-0.00059286 11.0464 0.296059 11.4671 0.740407 11.6251L7.826 14.1441V21.4062C7.826 22.6047 9.07636 23.6183 11.5424 24.4187C13.6918 25.1164 16.3404 25.5006 19.0001 25.5006C21.6598 25.5006 24.3083 25.1164 26.4578 24.4187C28.9238 23.6183 30.1742 22.6048 30.1742 21.4062V14.1441L33.0996 13.104V23.1669C31.7987 23.6269 30.8638 24.8685 30.8638 26.3251C30.8638 27.7815 31.7987 29.0232 33.0996 29.4832V33.7349C33.0996 34.3497 33.5981 34.8481 34.2129 34.8481C34.8277 34.8481 35.3262 34.3497 35.3262 33.7349V29.4832C36.6272 29.0232 37.562 27.7816 37.562 26.3251C37.562 24.8686 36.6272 23.6269 35.3262 23.1669V12.3124L37.2596 11.6251ZM34.2128 27.4476C33.5939 27.4476 33.0903 26.944 33.0903 26.325C33.0903 25.706 33.5939 25.2024 34.2128 25.2024C34.8318 25.2024 35.3354 25.706 35.3354 26.325C35.3354 26.944 34.8318 27.4476 34.2128 27.4476ZM19 5.44578L33.552 10.5802L19 15.7534L4.448 10.5801L19 5.44578ZM27.9475 21.2383C27.7341 21.4534 26.9703 21.9686 25.2463 22.4604C23.407 22.9851 21.1887 23.274 19 23.274C16.8113 23.274 14.593 22.9851 12.7538 22.4604C11.0297 21.9686 10.2659 21.4535 10.0525 21.2383V14.9356L18.6271 17.9839C18.7477 18.0268 18.8738 18.0483 18.9999 18.0483C19.1261 18.0483 19.2522 18.0268 19.3728 17.9839L27.9474 14.9356V21.2383H27.9475Z" fill="white"/>
</g>
<defs>
<clipPath id="clip0">
<rect width="38" height="38" fill="white"/>
</clipPath>
</defs>
</svg>
