<svg width="14" height="17" viewBox="0 0 14 17" fill="none" xmlns="http://www.w3.org/2000/svg">
<path d="M7.14891 0C3.61291 0 0.736328 2.87658 0.736328 6.41213C0.736328 11.5027 6.46085 16.6166 6.70467 16.8322C6.83217 16.9441 6.99054 17 7.14891 17C7.31354 17 7.47817 16.9396 7.60656 16.8193C7.84949 16.592 13.5615 11.1967 13.5615 6.41258C13.5615 2.87703 10.684 0 7.14891 0ZM7.14891 9.46989C5.46009 9.46989 4.09159 8.1005 4.09159 6.41303C4.09159 4.72555 5.46009 3.35616 7.14891 3.35616C8.83683 3.35616 10.2053 4.72511 10.2053 6.41303C10.2053 8.10095 8.83683 9.46989 7.14891 9.46989Z" fill="#01B259"/>
</svg>
