<svg width="19" height="19" viewBox="0 0 19 19" fill="none" xmlns="http://www.w3.org/2000/svg">
<path d="M18.7678 17.6504L13.3648 12.2473C14.4114 10.9546 15.0415 9.31186 15.0415 7.52273C15.0415 3.37602 11.6674 0.00195312 7.52074 0.00195312C3.37403 0.00195312 0 3.37598 0 7.52269C0 11.6694 3.37406 15.0435 7.52077 15.0435C9.30991 15.0435 10.9526 14.4133 12.2454 13.3667L17.6485 18.7698C17.8028 18.9242 18.0055 19.0018 18.2082 19.0018C18.4109 19.0018 18.6135 18.9242 18.7679 18.7698C19.0774 18.4603 19.0774 17.9599 18.7678 17.6504ZM7.52077 13.4601C4.24646 13.4601 1.58333 10.797 1.58333 7.52269C1.58333 4.24838 4.24646 1.58525 7.52077 1.58525C10.7951 1.58525 13.4582 4.24838 13.4582 7.52269C13.4582 10.797 10.795 13.4601 7.52077 13.4601Z" fill="#01B259"/>
</svg>
