<svg width="38" height="38" viewBox="0 0 38 38" fill="none" xmlns="http://www.w3.org/2000/svg">
<path d="M19 25.1602C18.5903 25.1602 18.2578 25.4927 18.2578 25.9023C18.2578 26.312 18.5903 26.6445 19 26.6445C19.4097 26.6445 19.7422 26.312 19.7422 25.9023C19.7422 25.4927 19.4097 25.1602 19 25.1602Z" fill="white"/>
<path d="M28.6484 33.621V29.6133C28.6484 25.4502 25.9871 21.6155 22.1763 20.2881C21.5993 20.0873 21.2266 19.5817 21.2266 19C21.2266 18.4137 21.6107 17.9089 22.1766 17.7119C26.0476 16.3634 28.6484 12.7054 28.6484 8.60938V4.37898C30.326 4.03988 31.6172 2.55342 31.6172 0.742188C31.6172 0.332352 31.2848 0 30.875 0H7.125C6.71516 0 6.38281 0.332352 6.38281 0.742188C6.38281 2.53427 7.65975 4.03364 9.35156 4.37846V8.60938C9.35156 12.7054 11.9524 16.3634 15.8237 17.7119C16.4007 17.9127 16.7734 18.4183 16.7734 19C16.7734 19.5863 16.3893 20.0911 15.8234 20.2881C12.0129 21.6155 9.35156 25.4502 9.35156 29.6133V33.6215C7.65975 33.9664 6.38281 35.4657 6.38281 37.2578C6.38281 37.6676 6.71516 38 7.125 38H30.875C31.2848 38 31.6172 37.6676 31.6172 37.2578C31.6172 36.2671 31.2311 35.3353 30.53 34.634C30.0073 34.1114 29.3563 33.7641 28.6484 33.621ZM7.9944 1.47695H30.0066C29.6952 2.3586 28.8713 2.96875 27.9062 2.96875H10.0938C9.12616 2.96875 8.3007 2.34093 7.9944 1.47695ZM10.8359 29.6133C10.8359 26.0712 13.0877 22.8131 16.3117 21.6899C17.4702 21.2864 18.2578 20.2229 18.2578 19C18.2578 17.7961 17.4757 16.7152 16.3118 16.3101C13.0364 15.1691 10.8359 12.0745 10.8359 8.60938V4.45312H27.1641V8.60938C27.1641 12.0745 24.9636 15.1691 21.6883 16.3101C20.5298 16.7136 19.7422 17.7771 19.7422 19C19.7422 20.2039 20.5243 21.2848 21.6882 21.6899C24.9123 22.8131 27.1641 26.0712 27.1641 29.6133V33.5469H25.6334C25.3019 30.9094 23.1908 29.9452 21.1998 29.2513C20.5731 29.0338 19.994 28.6706 19.5252 28.2012C19.386 28.0618 19.1971 27.9834 19.0001 27.9834C18.8031 27.9834 18.6141 28.0618 18.4749 28.2012C18.0001 28.6767 17.4367 29.0301 16.8003 29.2516C14.8097 29.9451 12.6982 30.9092 12.3668 33.5469H10.8359V29.6133ZM24.1316 33.5469H13.8684C14.1453 32.0402 15.3262 31.3369 17.2883 30.6535C17.9048 30.4389 18.4864 30.1195 18.9999 29.716C19.5142 30.12 20.0961 30.4395 20.7122 30.6534C22.674 31.337 23.8547 32.0403 24.1316 33.5469ZM7.9944 36.5156C8.3007 35.6516 9.12616 35.0312 10.0938 35.0312H27.9062C28.5006 35.0312 29.0596 35.263 29.4804 35.6836C29.7193 35.9227 29.8973 36.2063 30.0065 36.5156H7.9944Z" fill="white"/>
<path d="M25.3277 7.97799C25.1089 7.84284 24.8356 7.8306 24.6056 7.94549C22.8747 8.81102 20.9364 9.26843 19 9.26843C17.0636 9.26843 15.1253 8.81102 13.3944 7.94556C13.1644 7.83052 12.8912 7.84277 12.6723 7.97807C12.4535 8.11337 12.3203 8.35213 12.3203 8.60937C12.3203 11.4435 14.1203 13.9749 16.8002 14.9088C17.4269 15.1264 18.006 15.4895 18.4748 15.959C18.614 16.0983 18.8029 16.1767 18.9999 16.1767C19.1969 16.1767 19.3859 16.0983 19.5251 15.959C19.9999 15.4834 20.5633 15.13 21.1997 14.9085C22.5148 14.4505 23.6369 13.6081 24.4446 12.4721C25.2526 11.3358 25.6797 10.0002 25.6797 8.60937C25.6797 8.35213 25.5465 8.11322 25.3277 7.97799ZM23.235 11.6119C22.6067 12.4954 21.7341 13.1506 20.7117 13.5067C20.0952 13.7213 19.5136 14.0408 19.0001 14.4441C18.4858 14.0401 17.9039 13.7207 17.2878 13.5068C15.5924 12.916 14.3498 11.5027 13.9458 9.80949C15.5534 10.4291 17.2775 10.7528 19.0001 10.7528C20.723 10.7528 22.4475 10.4289 24.0553 9.80904C23.9024 10.4519 23.6261 11.0619 23.235 11.6119Z" fill="white"/>
<path d="M19 20.4844C18.5902 20.4844 18.2578 20.8167 18.2578 21.2266V22.9336C18.2578 23.3434 18.5902 23.6758 19 23.6758C19.4098 23.6758 19.7422 23.3434 19.7422 22.9336V21.2266C19.7422 20.8167 19.4098 20.4844 19 20.4844Z" fill="white"/>
</svg>
