<svg width="22" height="22" viewBox="0 0 22 22" fill="none" xmlns="http://www.w3.org/2000/svg">
<g clip-path="url(#clip0)">
<path d="M11.0006 12.3918C4.39044 12.3918 0.75 15.5189 0.75 21.1972C0.75 21.6407 1.10943 22.0001 1.55291 22.0001H20.4483C20.8918 22.0001 21.2512 21.6407 21.2512 21.1972C21.2512 15.5192 17.6108 12.3918 11.0006 12.3918ZM2.38505 20.3943C2.70087 16.1487 5.59537 13.9977 11.0006 13.9977C16.4059 13.9977 19.3004 16.1487 19.6165 20.3943H2.38505Z" fill="#01B259"/>
<path d="M10.9999 0C7.96346 0 5.67383 2.3357 5.67383 5.43284C5.67383 8.62069 8.06306 11.2139 10.9999 11.2139C13.9366 11.2139 16.3259 8.62069 16.3259 5.4331C16.3259 2.3357 14.0362 0 10.9999 0ZM10.9999 9.60828C8.94839 9.60828 7.27966 7.73532 7.27966 5.4331C7.27966 3.21544 8.84428 1.60583 10.9999 1.60583C13.1209 1.60583 14.72 3.25102 14.72 5.4331C14.72 7.73532 13.0513 9.60828 10.9999 9.60828Z" fill="#01B259"/>
</g>
<defs>
<clipPath id="clip0">
<rect width="22" height="22" fill="white"/>
</clipPath>
</defs>
</svg>
