<svg width="27" height="27" viewBox="0 0 27 27" fill="none" xmlns="http://www.w3.org/2000/svg">
<path d="M18.0332 17.3156C17.3935 17.3156 16.873 16.8652 16.873 16.3115C16.873 15.7578 17.3935 15.3074 18.0332 15.3074C18.6729 15.3074 19.1934 15.7578 19.1934 16.3115C19.1934 16.6027 19.4295 16.8389 19.7207 16.8389C20.0119 16.8389 20.248 16.6027 20.248 16.3115C20.248 15.3452 19.528 14.5326 18.5605 14.3121V14.0378C18.5605 13.7466 18.3244 13.5105 18.0332 13.5105C17.742 13.5105 17.5059 13.7466 17.5059 14.0378V14.3121C16.5384 14.5326 15.8184 15.3452 15.8184 16.3115C15.8184 17.4467 16.8119 18.3703 18.0332 18.3703C18.6729 18.3703 19.1934 18.8208 19.1934 19.3745C19.1934 19.9282 18.6729 20.3787 18.0332 20.3787C17.3935 20.3787 16.873 19.9282 16.873 19.3745C16.873 19.0833 16.6369 18.8472 16.3457 18.8472C16.0545 18.8472 15.8184 19.0833 15.8184 19.3745C15.8184 20.3409 16.5384 21.1534 17.5059 21.3739V21.6017C17.5059 21.8929 17.742 22.1291 18.0332 22.1291C18.3244 22.1291 18.5605 21.8929 18.5605 21.6017V21.3739C19.528 21.1534 20.248 20.3409 20.248 19.3745C20.248 18.2392 19.2545 17.3156 18.0332 17.3156Z" fill="#01B259"/>
<path d="M23.8087 14.1791C23.1198 13.1057 22.1493 12.2468 21.0021 11.6953C20.7395 11.569 20.4244 11.6796 20.2983 11.9421C20.1721 12.2046 20.2826 12.5196 20.5451 12.6458C22.5443 13.6069 23.836 15.6603 23.836 17.8771C23.836 18.8257 23.6022 19.7664 23.1599 20.5977C23.0231 20.8548 23.1206 21.1742 23.3778 21.311C23.4567 21.3529 23.5414 21.3729 23.625 21.3729C23.8137 21.3729 23.9962 21.2713 24.091 21.0931C24.6142 20.1099 24.8907 18.9978 24.8907 17.8771C24.8907 16.5609 24.5166 15.2821 23.8087 14.1791Z" fill="#01B259"/>
<path d="M18.8617 11.0215L18.8262 11.0215C18.535 11.0215 18.2988 11.2576 18.2988 11.5488C18.2988 11.8401 18.535 12.0762 18.8262 12.0762L18.8567 12.0762C18.8576 12.0762 18.8583 12.0762 18.8592 12.0762C19.1493 12.0762 19.3852 11.8418 19.3865 11.5514C19.3879 11.2601 19.1529 11.0229 18.8617 11.0215Z" fill="#01B259"/>
<path d="M15.5253 23.1081C13.5261 22.1471 12.2344 20.0936 12.2344 17.8768C12.2344 16.9283 12.4682 15.9875 12.9105 15.1562C13.0473 14.8992 12.9498 14.5798 12.6926 14.443C12.4356 14.3062 12.1161 14.4037 11.9794 14.6608C11.4562 15.6441 11.1797 16.7561 11.1797 17.8768C11.1797 19.1931 11.5538 20.4718 12.2617 21.5748C12.9506 22.6482 13.9211 23.5072 15.0683 24.0587C15.142 24.0942 15.2198 24.1109 15.2964 24.1109C15.4928 24.1109 15.6813 24.0007 15.7721 23.8119C15.8982 23.5494 15.7878 23.2343 15.5253 23.1081Z" fill="#01B259"/>
<path d="M17.2438 23.6778L17.2133 23.6777C16.9207 23.6772 16.6849 23.9113 16.6836 24.2026C16.6822 24.4939 16.9173 24.7311 17.2085 24.7324L17.2438 24.7325C17.535 24.7325 17.7712 24.4964 17.7712 24.2052C17.7712 23.914 17.535 23.6778 17.2438 23.6778Z" fill="#01B259"/>
<path d="M20.4297 9.23736C20.3656 9.08443 20.2869 8.94031 20.1954 8.80662H21.5683C22.9059 8.80662 23.9941 7.7184 23.9941 6.38085C23.9941 5.0433 22.9059 3.95507 21.5683 3.95507H17.3454C17.6138 3.56473 17.7715 3.0925 17.7715 2.58398C17.7715 1.24643 16.6832 0.158203 15.3457 0.158203H2.42578C1.08822 0.158203 0 1.24643 0 2.58398C0 3.92153 1.08822 5.00976 2.42578 5.00976H6.64874C6.38027 5.4001 6.22264 5.87233 6.22264 6.38085C6.22264 6.88936 6.38021 7.3616 6.64874 7.75194H5.27343C3.93588 7.75194 2.84765 8.84016 2.84765 10.1777C2.84765 10.9459 3.20698 11.6314 3.76602 12.0761C3.20698 12.5209 2.84765 13.2064 2.84765 13.9746C2.84765 14.7428 3.20698 15.4283 3.76602 15.873C3.20698 16.3178 2.84765 17.0033 2.84765 17.7715C2.84765 18.5396 3.20698 19.2251 3.76602 19.6699C3.20698 20.1146 2.84765 20.8001 2.84765 21.5683C2.84765 22.9059 3.93588 23.9941 5.27343 23.9941H11.4882C13.1253 25.7452 15.4544 26.8418 18.0352 26.8418C22.9784 26.8418 27 22.8202 27 17.877C27 13.7628 24.2141 10.2876 20.4297 9.23736ZM21.5683 5.00976C22.3244 5.00976 22.9394 5.62485 22.9394 6.38085C22.9394 7.13685 22.3244 7.75194 21.5683 7.75194H18.1933H8.64842C7.89237 7.75194 7.27733 7.13685 7.27733 6.38085C7.27733 5.62485 7.89237 5.00976 8.64842 5.00976H21.5683ZM2.42578 3.95507C1.66973 3.95507 1.05469 3.33998 1.05469 2.58398C1.05469 1.82798 1.66973 1.21289 2.42578 1.21289H15.3457C16.1017 1.21289 16.7168 1.82798 16.7168 2.58398C16.7168 3.33998 16.1017 3.95507 15.3457 3.95507H2.42578ZM5.27343 8.80662H18.1933C18.4057 8.80662 18.6091 8.85598 18.7916 8.94437C18.5422 8.92343 18.29 8.91215 18.0352 8.91215C15.5596 8.91215 13.3152 9.9209 11.6913 11.5488H5.27343C4.51743 11.5488 3.90234 10.9337 3.90234 10.1777C3.90234 9.42172 4.51743 8.80662 5.27343 8.80662ZM5.27343 12.6035H10.7902C10.1916 13.4237 9.72874 14.3487 9.43479 15.3457H5.27343C4.51738 15.3457 3.90234 14.7306 3.90234 13.9746C3.90234 13.2186 4.51738 12.6035 5.27343 12.6035ZM5.27343 16.4004H9.19264C9.11264 16.8809 9.07035 17.374 9.07035 17.877C9.07035 18.3065 9.10141 18.7289 9.1601 19.1425H5.27343C4.51738 19.1425 3.90234 18.5275 3.90234 17.7715C3.90234 17.0154 4.51738 16.4004 5.27343 16.4004ZM5.27343 22.9394C4.51738 22.9394 3.90234 22.3244 3.90234 21.5683C3.90234 20.8123 4.51738 20.1972 5.27343 20.1972H9.37542C9.64151 21.1893 10.0738 22.1139 10.6407 22.9394H5.27343ZM18.0352 25.7871C13.6735 25.7871 10.125 22.2386 10.125 17.877C10.125 13.5153 13.6735 9.96683 18.0352 9.96683C22.3968 9.96683 25.9453 13.5153 25.9453 17.877C25.9453 22.2386 22.3968 25.7871 18.0352 25.7871Z" fill="#01B259"/>
</svg>
