<svg width="90" height="90" viewBox="0 0 90 90" fill="none" xmlns="http://www.w3.org/2000/svg">
<path d="M14.2656 71.8711C15.2364 71.8711 16.0234 71.0841 16.0234 70.1133C16.0234 69.1425 15.2364 68.3555 14.2656 68.3555C13.2948 68.3555 12.5078 69.1425 12.5078 70.1133C12.5078 71.0841 13.2948 71.8711 14.2656 71.8711Z" fill="#01B259"/>
<path d="M81.0699 16.3388H70.7272C68.3925 16.3388 66.2485 17.1709 64.5759 18.554V18.0966V13.2693C64.5759 6.36617 58.9603 0.750488 52.0573 0.750488H40.3301C39.3592 0.750488 38.5723 1.53764 38.5723 2.5083V7.33578C38.5723 14.2387 44.188 19.8544 51.0909 19.8544H61.0603V26.0057V30.7483V37.6735C60.5966 37.6438 60.1303 37.6275 59.6616 37.6275C55.0419 37.6275 50.6252 39.0516 46.8899 41.7458C46.1026 42.3136 45.9245 43.4123 46.4924 44.1997C47.0604 44.9871 48.159 45.1655 48.9463 44.5972C52.0793 42.3377 55.7848 41.1433 59.6616 41.1433C60.5987 41.1433 61.5251 41.2174 62.4351 41.3568C62.5105 41.3735 62.5877 41.3855 62.6664 41.3923C68.1366 42.3018 72.9737 45.6603 75.7154 50.6087C76.0364 51.1879 76.6361 51.5149 77.2545 51.5149C77.5426 51.5149 77.8349 51.4439 78.1048 51.2943C78.954 50.8237 79.2609 49.7539 78.7903 48.9047C75.7486 43.4147 70.5411 39.5684 64.5758 38.19V32.5061H73.1607C78.491 32.5061 82.8277 28.1696 82.8277 22.8392V18.0966C82.8277 17.1259 82.0407 16.3388 81.0699 16.3388ZM61.0603 16.3388H51.0909C46.1266 16.3388 42.0879 12.3 42.0879 7.33578V4.26611H52.0573C57.0216 4.26611 61.0603 8.30486 61.0603 13.2693V16.3388ZM79.312 22.8393C79.312 26.231 76.5526 28.9906 73.1607 28.9906H64.5759V26.0059C64.5759 22.6142 67.3354 19.8546 70.7272 19.8546H79.312V22.8393Z" fill="#01B259"/>
<path d="M89.4132 57.7988C87.879 54.3241 83.8039 52.7461 80.3292 54.2795C80.3204 54.2833 80.3118 54.2874 80.303 54.2912L68.818 59.5877C67.9363 59.9943 67.5513 61.0386 67.9577 61.9202C68.3643 62.8019 69.4086 63.1867 70.2902 62.7804L81.7611 57.4905C83.4597 56.7483 85.4474 57.5214 86.197 59.2189C86.9481 60.9203 86.175 62.9154 84.4738 63.6667L60.9708 74.044C57.2467 75.6884 53.0195 75.593 49.3733 73.7812L40.7698 69.5071C36.1854 67.2295 30.8704 67.1092 26.1881 69.1766L26.019 69.2515L19.5891 54.6887L28.5159 50.7473C32.7684 48.8696 37.5138 48.7183 41.8774 50.3205L59.1783 56.6741C60.7567 57.2539 61.598 59.0196 61.0537 60.6104C60.4992 62.2318 58.7275 63.1037 57.1045 62.5551L43.7258 58.0299C42.8061 57.7188 41.8085 58.2122 41.4974 59.1319C41.1863 60.0516 41.6797 61.0492 42.5994 61.3603L55.9781 65.8854C56.6786 66.1224 57.3921 66.2349 58.0943 66.2349C60.8537 66.2349 63.4396 64.4978 64.3802 61.7488C65.5381 58.3643 63.7483 54.6073 60.3905 53.3742L43.0898 47.0206C37.8666 45.1026 32.1868 45.2839 27.0965 47.5311L18.1121 51.4979C17.6068 50.7213 16.8771 50.1207 15.9963 49.7791C14.8871 49.3495 13.6768 49.3775 12.5931 49.8559L1.05223 54.9126C0.413086 55.1928 0 55.8248 0 56.5228V87.4916C0 88.1021 0.316758 88.6688 0.836719 88.9889C1.11832 89.162 1.43754 89.2494 1.75781 89.2494C2.02887 89.2494 2.30045 89.1868 2.55023 89.0606L24.9553 77.7422C26.0207 77.2576 26.839 76.3912 27.2624 75.298C27.6152 74.3874 27.6595 73.4089 27.3983 72.4855L27.6079 72.393C31.3323 70.7486 35.5593 70.8446 39.2055 72.656L47.809 76.9301C52.3932 79.2077 57.7081 79.3281 62.3907 77.2604L85.8939 66.8832C89.3686 65.3488 90.9473 61.2735 89.4132 57.7988ZM23.9843 74.0278C23.8938 74.2614 23.7178 74.4458 23.4886 74.5469C23.4606 74.5592 23.4332 74.5724 23.406 74.5861L3.51562 84.6341V76.9394L8.71488 74.3862C9.58641 73.9582 9.94588 72.9049 9.51785 72.0334C9.08982 71.1619 8.03619 70.8024 7.1652 71.2304L3.51562 73.0225V57.6715L14.0077 53.074C14.2369 52.9729 14.4918 52.9669 14.7252 53.0573C14.9588 53.1478 15.1432 53.3239 15.2445 53.553L23.5128 72.2793C23.5136 72.2811 23.5143 72.2826 23.515 72.2842L23.9679 73.3101C24.069 73.5393 24.0748 73.7942 23.9843 74.0278Z" fill="#01B259"/>
</svg>
