<svg width="48" height="48" viewBox="0 0 48 48" fill="none" xmlns="http://www.w3.org/2000/svg">
<path d="M42.2439 1.78125H11.3701C11.1961 1.78125 11.0292 1.85039 10.9061 1.97346C10.783 2.09653 10.7139 2.26345 10.7139 2.4375V8.41575H5.75488C5.58086 8.41585 5.414 8.48502 5.29095 8.60807C5.1679 8.73112 5.09873 8.89798 5.09863 9.072V45.5625C5.09863 45.7365 5.16777 45.9035 5.29084 46.0265C5.41391 46.1496 5.58083 46.2188 5.75488 46.2188H36.6316C36.8057 46.2188 36.9726 46.1496 37.0957 46.0265C37.2187 45.9035 37.2879 45.7365 37.2879 45.5625V39.585H42.2439C42.4179 39.585 42.5849 39.5159 42.7079 39.3928C42.831 39.2697 42.9001 39.1028 42.9001 38.9287V2.4375C42.9002 2.35131 42.8832 2.26595 42.8503 2.18631C42.8173 2.10666 42.769 2.0343 42.708 1.97335C42.6471 1.9124 42.5747 1.86407 42.4951 1.8311C42.4154 1.79814 42.3301 1.7812 42.2439 1.78125ZM6.41263 44.9062V9.72825H35.9754V38.9141V38.9287C35.9754 38.9287 35.9754 38.9381 35.9754 38.943V44.9055L6.41263 44.9062ZM41.5876 38.2725H37.2879V9.072C37.2878 8.89798 37.2186 8.73112 37.0956 8.60807C36.9725 8.48502 36.8057 8.41585 36.6316 8.41575H12.0264V3.09375H41.5876V38.2725Z" fill="white"/>
<path d="M31.9744 13.1621H24C23.826 13.1621 23.659 13.2313 23.536 13.3543C23.4129 13.4774 23.3438 13.6443 23.3438 13.8184C23.3438 13.9924 23.4129 14.1593 23.536 14.2824C23.659 14.4055 23.826 14.4746 24 14.4746H31.9744C32.1484 14.4746 32.3153 14.4055 32.4384 14.2824C32.5615 14.1593 32.6306 13.9924 32.6306 13.8184C32.6306 13.6443 32.5615 13.4774 32.4384 13.3543C32.3153 13.2313 32.1484 13.1621 31.9744 13.1621Z" fill="white"/>
<path d="M31.9746 19.9121H10.4121C10.2381 19.9121 10.0711 19.9813 9.94807 20.1043C9.825 20.2274 9.75586 20.3943 9.75586 20.5684C9.75586 20.7424 9.825 20.9093 9.94807 21.0324C10.0711 21.1555 10.2381 21.2246 10.4121 21.2246H31.9746C32.1487 21.2246 32.3156 21.1555 32.4386 21.0324C32.5617 20.9093 32.6309 20.7424 32.6309 20.5684C32.6309 20.3943 32.5617 20.2274 32.4386 20.1043C32.3156 19.9813 32.1487 19.9121 31.9746 19.9121Z" fill="white"/>
<path d="M31.9746 23.2871H10.4121C10.3259 23.2871 10.2406 23.3041 10.161 23.3371C10.0814 23.37 10.009 23.4184 9.94807 23.4793C9.88713 23.5403 9.83879 23.6126 9.80581 23.6922C9.77283 23.7718 9.75586 23.8572 9.75586 23.9434C9.75586 24.0295 9.77283 24.1149 9.80581 24.1945C9.83879 24.2741 9.88713 24.3465 9.94807 24.4074C10.009 24.4683 10.0814 24.5167 10.161 24.5497C10.2406 24.5826 10.3259 24.5996 10.4121 24.5996H31.9746C32.1487 24.5996 32.3156 24.5305 32.4386 24.4074C32.5617 24.2843 32.6309 24.1174 32.6309 23.9434C32.6309 23.7693 32.5617 23.6024 32.4386 23.4793C32.3156 23.3563 32.1487 23.2871 31.9746 23.2871Z" fill="white"/>
<path d="M31.9746 26.6621H10.4121C10.2381 26.6621 10.0711 26.7313 9.94807 26.8543C9.825 26.9774 9.75586 27.1443 9.75586 27.3184C9.75586 27.4924 9.825 27.6593 9.94807 27.7824C10.0711 27.9055 10.2381 27.9746 10.4121 27.9746H31.9746C32.1487 27.9746 32.3156 27.9055 32.4386 27.7824C32.5617 27.6593 32.6309 27.4924 32.6309 27.3184C32.6309 27.1443 32.5617 26.9774 32.4386 26.8543C32.3156 26.7313 32.1487 26.6621 31.9746 26.6621Z" fill="white"/>
<path d="M31.9746 30.0371H10.4121C10.2381 30.0371 10.0711 30.1063 9.94807 30.2293C9.825 30.3524 9.75586 30.5193 9.75586 30.6934C9.75586 30.8674 9.825 31.0343 9.94807 31.1574C10.0711 31.2805 10.2381 31.3496 10.4121 31.3496H31.9746C32.1487 31.3496 32.3156 31.2805 32.4386 31.1574C32.5617 31.0343 32.6309 30.8674 32.6309 30.6934C32.6309 30.5193 32.5617 30.3524 32.4386 30.2293C32.3156 30.1063 32.1487 30.0371 31.9746 30.0371Z" fill="white"/>
<path d="M31.9746 33.4121H10.4121C10.2381 33.4121 10.0711 33.4813 9.94807 33.6043C9.825 33.7274 9.75586 33.8943 9.75586 34.0684C9.75586 34.2424 9.825 34.4093 9.94807 34.5324C10.0711 34.6555 10.2381 34.7246 10.4121 34.7246H31.9746C32.1487 34.7246 32.3156 34.6555 32.4386 34.5324C32.5617 34.4093 32.6309 34.2424 32.6309 34.0684C32.6309 33.8943 32.5617 33.7274 32.4386 33.6043C32.3156 33.4813 32.1487 33.4121 31.9746 33.4121Z" fill="white"/>
<path d="M31.9746 36.7871H10.4121C10.2381 36.7871 10.0711 36.8563 9.94807 36.9793C9.825 37.1024 9.75586 37.2693 9.75586 37.4434C9.75586 37.6174 9.825 37.7843 9.94807 37.9074C10.0711 38.0305 10.2381 38.0996 10.4121 38.0996H31.9746C32.1487 38.0996 32.3156 38.0305 32.4386 37.9074C32.5617 37.7843 32.6309 37.6174 32.6309 37.4434C32.6309 37.2693 32.5617 37.1024 32.4386 36.9793C32.3156 36.8563 32.1487 36.7871 31.9746 36.7871Z" fill="white"/>
<path d="M27.938 40.1621H14.4492C14.2752 40.1621 14.1083 40.2313 13.9852 40.3543C13.8621 40.4774 13.793 40.6443 13.793 40.8184C13.793 40.9924 13.8621 41.1593 13.9852 41.2824C14.1083 41.4055 14.2752 41.4746 14.4492 41.4746H27.938C28.112 41.4746 28.2789 41.4055 28.402 41.2824C28.5251 41.1593 28.5942 40.9924 28.5942 40.8184C28.5942 40.6443 28.5251 40.4774 28.402 40.3543C28.2789 40.2313 28.112 40.1621 27.938 40.1621Z" fill="white"/>
</svg>
