<svg width="32" height="32" viewBox="0 0 32 32" fill="none" xmlns="http://www.w3.org/2000/svg">
<g clip-path="url(#clip0)">
<path d="M16.9375 8.5C16.9375 3.81306 13.1524 0 8.5 0C3.83494 0 0 3.83619 0 8.5C0 12.8379 3.31512 16.4212 7.5625 16.8859V22.5625H4.75C4.23225 22.5625 3.8125 22.9823 3.8125 23.5C3.8125 24.0177 4.23225 24.4375 4.75 24.4375H7.5625V27.25C7.5625 27.7677 7.98225 28.1875 8.5 28.1875C9.01775 28.1875 9.4375 27.7677 9.4375 27.25V24.4375H12.25C12.7677 24.4375 13.1875 24.0177 13.1875 23.5C13.1875 22.9823 12.7677 22.5625 12.25 22.5625H9.4375V16.8851C13.6504 16.4172 16.9375 12.8356 16.9375 8.5ZM1.875 8.5C1.875 4.84694 4.847 1.875 8.5 1.875C12.1186 1.875 15.0625 4.84694 15.0625 8.5C15.0625 12.1186 12.1186 15.0625 8.5 15.0625C4.847 15.0625 1.875 12.1186 1.875 8.5Z" fill="white"/>
<path d="M24.4375 15.1141V7.01334L26.5871 9.16291C26.9532 9.52903 27.5468 9.52909 27.9129 9.16291C28.2791 8.79678 28.2791 8.20322 27.9129 7.83709L24.1629 4.08709C23.7969 3.72097 23.2033 3.72097 22.8371 4.08709L19.0871 7.83709C18.721 8.20322 18.721 8.79678 19.0871 9.16291C19.4532 9.52903 20.0468 9.52903 20.4129 9.16291L22.5625 7.01334V15.1149C18.3496 15.5828 15.0625 19.1645 15.0625 23.5C15.0625 28.187 18.8476 32 23.5 32C28.1651 32 32 28.1638 32 23.5C32 19.1621 28.6849 15.5788 24.4375 15.1141ZM23.5 30.125C19.8814 30.125 16.9375 27.1531 16.9375 23.5C16.9375 19.8815 19.8814 16.9375 23.5 16.9375C27.153 16.9375 30.125 19.8815 30.125 23.5C30.125 27.1531 27.153 30.125 23.5 30.125Z" fill="white"/>
</g>
<defs>
<clipPath id="clip0">
<rect width="32" height="32" fill="white"/>
</clipPath>
</defs>
</svg>
