<svg width="104" height="104" viewBox="0 0 104 104" fill="none" xmlns="http://www.w3.org/2000/svg">
<g clip-path="url(#clip0)">
<path d="M103.405 39.4187L84.1548 20.1683C83.3614 19.375 82.0748 19.3748 81.2809 20.1683C80.4875 20.9617 80.4875 22.2483 81.2809 23.0421L99.0944 40.8554L88.6794 51.2702C88.3603 51.5891 87.8413 51.5891 87.5226 51.2702L66.9561 30.704C66.637 30.3851 66.637 29.8661 66.9561 29.547L73.9459 22.5568C74.7393 21.7634 74.7393 20.4768 73.9459 19.6832C73.1523 18.8898 71.8661 18.8898 71.0721 19.6832L64.0823 26.6729C62.6344 28.121 62.2912 30.2591 63.0464 32.0379L60.6824 34.4019H51.5667H50.8483H44.1543L41.172 31.4196C41.2866 31.0015 41.3471 30.5662 41.3471 30.1212C41.3471 28.8171 40.8391 27.5911 39.9171 26.6691L33.1162 19.8682C32.3226 19.0748 31.0364 19.0748 30.2424 19.8682C29.449 20.6616 29.449 21.9482 30.2424 22.7421L37.0435 29.5429C37.2519 29.7513 37.2832 29.9949 37.2832 30.1212C37.2832 30.2475 37.2521 30.4911 37.0433 30.6997L36.4774 31.2656L16.4705 51.2676C16.464 51.2741 16.4585 51.2812 16.4522 51.2877C16.2495 51.4752 16.02 51.5056 15.8983 51.5056C15.7718 51.5056 15.5282 51.4745 15.3198 51.2661L4.90538 40.8513L22.9584 22.7985C23.7518 22.0051 23.7518 20.7185 22.9584 19.9249C22.1649 19.1313 20.8788 19.1315 20.0845 19.9249L0.595056 39.4146C-0.198352 40.208 -0.198352 41.4946 0.595056 42.2882L12.4466 54.14C13.3987 55.0918 14.6487 55.5675 15.8987 55.5675C16.4728 55.5675 17.0456 55.4623 17.5906 55.2614L24.2618 61.9327C23.7438 62.9044 23.4493 64.0121 23.4493 65.1878C23.4493 69.0173 26.5648 72.1328 30.3944 72.1328C30.4029 72.1328 30.4114 72.1322 30.42 72.1322C30.42 72.1326 30.42 72.133 30.42 72.1334C30.42 75.9544 33.5215 79.0639 37.3392 79.0779C37.3392 79.0809 37.339 79.0838 37.339 79.0868C37.339 82.9163 40.4546 86.0319 44.2841 86.0319C45.4622 86.0319 46.5723 85.7361 47.5453 85.2163L50.0289 87.6999C51.1932 88.8643 52.7414 89.5055 54.388 89.5055C56.0347 89.5055 57.5829 88.8643 58.747 87.6999C59.8494 86.5976 60.4829 85.1511 60.5471 83.6027C62.0488 83.5279 63.5286 82.9186 64.6728 81.7742C65.8818 80.5652 66.5346 78.9576 66.5113 77.2481C66.5113 77.2445 66.5111 77.241 66.5111 77.2374C68.2789 77.1277 69.9053 76.3529 71.1078 75.0426C72.3166 73.7259 72.9148 72.0656 72.9095 70.4093C74.6097 70.3603 76.2004 69.6754 77.408 68.4676C78.6677 67.208 79.3586 65.5331 79.3525 63.7514C79.349 62.7025 79.1028 61.6934 78.6436 60.7842L85.3081 54.6904C86.144 55.2746 87.1214 55.571 88.1009 55.571C89.3509 55.571 90.6011 55.0951 91.553 54.1436L103.405 42.2919C104.198 41.4987 104.198 40.2121 103.405 39.4187ZM30.3946 68.0693C28.8057 68.0693 27.5132 66.7768 27.5132 65.188C27.5132 63.5993 28.8057 62.3068 30.3946 62.3068C31.9834 62.3068 33.2759 63.5993 33.2759 65.188C33.2757 66.7768 31.9832 68.0693 30.3946 68.0693ZM39.511 74.0495C39.4284 74.1279 39.3477 74.2081 39.2689 74.2904C38.7605 74.7397 38.0951 75.015 37.365 75.015C35.7764 75.015 34.4839 73.7225 34.4839 72.1336C34.4839 70.5448 35.7762 69.2523 37.365 69.2523C38.9539 69.2523 40.2464 70.5448 40.2464 72.1336C40.2462 72.8697 39.9664 73.5399 39.511 74.0495ZM46.3491 81.0927C46.3397 81.1016 46.3298 81.1093 46.3206 81.1185C46.3105 81.1286 46.3021 81.1396 46.2924 81.1497C45.773 81.6557 45.0649 81.9688 44.2845 81.9688C42.6954 81.9683 41.403 80.6759 41.403 79.0872C41.403 78.3513 41.6825 77.6812 42.1381 77.1715C42.2207 77.0931 42.3014 77.0129 42.3802 76.9306C42.8884 76.4813 43.5541 76.2063 44.2841 76.2063C45.8727 76.2063 47.1654 77.4988 47.1654 79.0876C47.1654 79.8668 46.8534 80.5735 46.3491 81.0927ZM74.5347 65.5946C74.0483 66.0809 73.4019 66.3486 72.7141 66.3486C72.0263 66.3486 71.38 66.0809 70.8935 65.5948L66.6722 61.3733C65.8788 60.5798 64.5926 60.5798 63.7983 61.3733C63.0049 62.1667 63.0049 63.4533 63.7983 64.2469L68.0195 68.4682C68.0197 68.4682 68.0199 68.4684 68.0199 68.4684L68.0327 68.4812C69.0802 69.5285 69.116 71.2035 68.1142 72.2947C67.6108 72.8431 66.924 73.1594 66.18 73.1854C65.4376 73.2128 64.7287 72.9441 64.1883 72.4324L60.1236 68.5848C59.3085 67.8134 58.0225 67.8485 57.251 68.6636C56.4795 69.4786 56.5147 70.7646 57.3296 71.5362L61.7551 75.7257C62.1932 76.1405 62.439 76.7011 62.4474 77.3044C62.4557 77.9077 62.2253 78.4748 61.7988 78.9014C60.9353 79.7652 59.5293 79.765 58.6658 78.9014L56.614 76.8496C55.8204 76.0562 54.5342 76.0562 53.7402 76.8496C53.3435 77.2465 53.145 77.7663 53.145 78.2863C53.145 78.8063 53.3435 79.3265 53.7402 79.723L55.873 81.8558C56.2699 82.2527 56.4885 82.7802 56.4885 83.3413C56.4885 83.9023 56.2699 84.43 55.873 84.8267C55.4761 85.2236 54.9486 85.442 54.3875 85.442C53.8263 85.442 53.299 85.2234 52.9021 84.8265L50.4168 82.3413C50.9344 81.3699 51.2287 80.2627 51.2287 79.0874C51.2287 75.2664 48.127 72.157 44.3093 72.143C44.3093 72.1399 44.3095 72.1371 44.3095 72.134C44.3095 68.3045 41.1939 65.189 37.3644 65.189C37.3559 65.189 37.3476 65.1896 37.339 65.1896C37.339 65.1892 37.339 65.1888 37.339 65.1884C37.339 61.3588 34.2235 58.2435 30.394 58.2435C29.2162 58.2435 28.1066 58.539 27.134 59.0584L20.7833 52.7079L38.7477 34.7433L41.8756 37.8714C42.2569 38.2525 42.7736 38.4666 43.3123 38.4666H45.9424L37.9218 46.4872C36.6955 47.7135 36.0203 49.3442 36.0203 51.0785C36.0203 52.8127 36.6955 54.4432 37.9218 55.6695C39.1481 56.896 40.7787 57.5712 42.513 57.5712C44.2473 57.5712 45.878 56.8958 47.1043 55.6695L53.9072 48.8664L61.3547 48.9481L74.5224 61.9414C75.0143 62.4269 75.2865 63.0748 75.2885 63.7659C75.2914 64.4561 75.0235 65.1057 74.5347 65.5946ZM76.0031 57.6924L63.6251 45.4783C63.6249 45.4781 63.6247 45.4779 63.6245 45.4777L63.6066 45.46C63.1496 45.0089 62.5327 44.82 61.9408 44.8896L53.0969 44.7927C52.5484 44.7887 52.0244 45.0014 51.6378 45.3877L44.2305 52.7953C43.7716 53.2541 43.1616 53.5066 42.513 53.5066C41.8645 53.5066 41.2545 53.2541 40.7956 52.7953C40.3367 52.3366 40.0843 51.7266 40.0843 51.0778C40.0843 50.4291 40.3367 49.8191 40.7956 49.3602L51.6898 38.466H61.5244C62.0632 38.466 62.58 38.2519 62.9611 37.8708L65.6683 35.1636L82.3727 51.868L76.0031 57.6924Z" fill="white"/>
<path d="M89.0376 43.8188C90.1575 43.8188 91.0654 42.9109 91.0654 41.791C91.0654 40.6711 90.1575 39.7632 89.0376 39.7632C87.9176 39.7632 87.0098 40.6711 87.0098 41.791C87.0098 42.9109 87.9176 43.8188 89.0376 43.8188Z" fill="white"/>
<path d="M14.7563 44.0219C15.8762 44.0219 16.7841 43.114 16.7841 41.9941C16.7841 40.8742 15.8762 39.9663 14.7563 39.9663C13.6364 39.9663 12.7285 40.8742 12.7285 41.9941C12.7285 43.114 13.6364 44.0219 14.7563 44.0219Z" fill="white"/>
<path d="M26.6215 18.7123C27.7415 18.7123 28.6493 17.8045 28.6493 16.6845C28.6493 15.5646 27.7415 14.6567 26.6215 14.6567C25.5016 14.6567 24.5938 15.5646 24.5938 16.6845C24.5938 17.8045 25.5016 18.7123 26.6215 18.7123Z" fill="white"/>
<path d="M77.3423 18.5497C78.4622 18.5497 79.3701 17.6419 79.3701 16.5219C79.3701 15.402 78.4622 14.4941 77.3423 14.4941C76.2223 14.4941 75.3145 15.402 75.3145 16.5219C75.3145 17.6419 76.2223 18.5497 77.3423 18.5497Z" fill="white"/>
</g>
<defs>
<clipPath id="clip0">
<rect width="104" height="104" fill="white"/>
</clipPath>
</defs>
</svg>
