<svg width="40" height="40" viewBox="0 0 40 40" fill="none" xmlns="http://www.w3.org/2000/svg">
<path d="M20.0556 39.9998C12.4623 39.9998 6.28516 33.8226 6.28516 26.2294C6.28516 19.9456 10.5296 14.4619 16.607 12.8942C16.9578 12.8038 17.3154 13.015 17.4058 13.3655C17.4962 13.7163 17.2854 14.0739 16.9345 14.1643C11.4365 15.5823 7.59654 20.5434 7.59654 26.2294C7.59654 33.0992 13.1858 38.6884 20.0556 38.6884C26.9254 38.6884 32.5146 33.0992 32.5146 26.2294C32.5146 20.5925 28.716 15.6423 23.2768 14.1906C22.9267 14.0971 22.7192 13.7381 22.8123 13.388C22.9054 13.0383 23.2637 12.8308 23.6149 12.9235C29.627 14.5279 33.826 19.9997 33.826 26.2294C33.826 33.8226 27.6485 39.9998 20.0556 39.9998ZM20.0556 36.1257C14.5984 36.1257 10.1593 31.6862 10.1593 26.2294C10.1593 20.7726 14.5984 16.3331 20.0556 16.3331C25.5124 16.3331 29.9519 20.7726 29.9519 26.2294C29.9519 31.6862 25.5124 36.1257 20.0556 36.1257ZM20.0556 17.6448C15.3219 17.6448 11.4706 21.4957 11.4706 26.2294C11.4706 30.9631 15.3219 34.8143 20.0556 34.8143C24.7889 34.8143 28.6402 30.9631 28.6402 26.2294C28.6402 21.4957 24.7889 17.6448 20.0556 17.6448Z" fill="white"/>
<path d="M20.0575 17.3771C19.8747 17.3771 19.6995 17.3006 19.5757 17.1666L12.002 8.96965C11.8256 8.77829 11.7787 8.50025 11.883 8.26199C11.9873 8.02335 12.223 7.86914 12.4837 7.86914H27.6308C27.8916 7.86914 28.1272 8.02335 28.2316 8.26162C28.3362 8.50025 28.2893 8.77829 28.1126 8.96965L20.5389 17.1662C20.4151 17.3006 20.2402 17.3771 20.0575 17.3771ZM13.9824 9.18052L20.0575 15.7551L26.1322 9.18052H13.9824Z" fill="white"/>
<path d="M27.6269 9.18046H12.4798C12.2393 9.18046 12.0183 9.04876 11.9034 8.83714C11.789 8.6259 11.7991 8.36887 11.9301 8.16701L14.4894 4.23249C14.6106 4.04638 14.8174 3.93457 15.0395 3.93457H25.0675C25.2896 3.93457 25.4964 4.04676 25.6172 4.23249L28.1769 8.16701C28.3079 8.3685 28.318 8.6259 28.2036 8.83714C28.0887 9.04876 27.8674 9.18046 27.6269 9.18046ZM13.6887 7.86908H26.4179L24.7118 5.24595H15.3952L13.6887 7.86908Z" fill="white"/>
<path d="M20.056 17.3772C19.7791 17.3772 19.5318 17.2034 19.4384 16.9423L16.5695 8.90927C16.4978 8.70928 16.5282 8.48678 16.6498 8.31268L19.5187 4.21457C19.6436 4.03597 19.8466 3.92753 20.0665 3.93466C20.2841 3.93803 20.486 4.04947 20.6046 4.23145L23.2825 8.32994C23.392 8.49729 23.4191 8.70591 23.3556 8.89614L20.6777 16.9288C20.5896 17.194 20.3423 17.3741 20.0627 17.3772C20.0605 17.3772 20.0582 17.3772 20.056 17.3772ZM17.9188 8.78733L20.0346 14.712L22.0112 8.78207L20.0372 5.76046L17.9188 8.78733Z" fill="white"/>
<path d="M20.0543 2.68842C19.6922 2.68842 19.3984 2.39501 19.3984 2.03292V0.655878C19.3984 0.293419 19.6922 0 20.0543 0C20.4164 0 20.7098 0.293419 20.7098 0.655878V2.03292C20.7098 2.39501 20.4164 2.68842 20.0543 2.68842Z" fill="white"/>
<path d="M25.9874 2.72135C25.8722 2.72135 25.7563 2.69095 25.6505 2.62792C25.3398 2.44143 25.2392 2.03845 25.4257 1.72815L26.1142 0.580737C26.3003 0.269683 26.7033 0.1695 27.014 0.355983C27.3247 0.54209 27.4252 0.945072 27.2388 1.25538L26.5502 2.40316C26.4272 2.60766 26.2103 2.72135 25.9874 2.72135Z" fill="white"/>
<path d="M28.9759 6.36069C28.8318 6.36069 28.6873 6.31378 28.5665 6.21698C28.2836 5.9911 28.2378 5.57836 28.4641 5.29545L29.3822 4.14803C29.6081 3.86437 30.0216 3.81934 30.3037 4.0456C30.5867 4.27148 30.6324 4.68422 30.4062 4.96713L29.488 6.11454C29.3586 6.27664 29.168 6.36069 28.9759 6.36069Z" fill="white"/>
<path d="M14.1227 2.72149C13.8998 2.72149 13.6825 2.60818 13.5598 2.40331L12.8709 1.25553C12.6845 0.944847 12.7854 0.54224 13.0957 0.356132C13.4064 0.170025 13.8094 0.270583 13.9955 0.580887L14.684 1.7283C14.8705 2.03898 14.7699 2.44158 14.4592 2.62807C14.3538 2.6911 14.2375 2.72149 14.1227 2.72149Z" fill="white"/>
<path d="M11.1367 6.36069C10.9442 6.36069 10.7536 6.27664 10.6245 6.11455L9.70637 4.96714C9.48011 4.68423 9.52552 4.27149 9.8088 4.04561C10.0913 3.81935 10.5041 3.86513 10.7303 4.14804L11.6485 5.29545C11.8747 5.57837 11.829 5.9911 11.5457 6.21698C11.4249 6.31379 11.2804 6.36069 11.1367 6.36069Z" fill="white"/>
</svg>
