<svg width="37" height="37" viewBox="0 0 37 37" fill="none" xmlns="http://www.w3.org/2000/svg">
<path d="M37 35.7666H0V36.9999H37V35.7666Z" fill="white"/>
<path d="M2.46823 34.5333H8.6349C8.97545 34.5333 9.25156 34.2572 9.25156 33.9166V22.8166C9.25156 22.4761 8.97545 22.2 8.6349 22.2H2.46823C2.12768 22.2 1.85156 22.4761 1.85156 22.8166V33.9166C1.85156 34.2572 2.12768 34.5333 2.46823 34.5333ZM3.0849 23.4333H8.01823V33.2999H3.0849V23.4333Z" fill="white"/>
<path d="M19.7339 34.5334H25.9005C26.2411 34.5334 26.5172 34.2573 26.5172 33.9167V15.4167C26.5172 15.0762 26.2411 14.8 25.9005 14.8H19.7339C19.3933 14.8 19.1172 15.0762 19.1172 15.4167V33.9167C19.1172 34.2573 19.3933 34.5334 19.7339 34.5334ZM20.3505 16.0334H25.2839V33.3H20.3505V16.0334Z" fill="white"/>
<path d="M11.101 34.5332H17.2677C17.6083 34.5332 17.8844 34.2571 17.8844 33.9166V8.01657C17.8844 7.67601 17.6083 7.3999 17.2677 7.3999H11.101C10.7605 7.3999 10.4844 7.67601 10.4844 8.01657V33.9166C10.4844 34.2571 10.7605 34.5332 11.101 34.5332ZM11.7177 8.63324H16.651V33.2999H11.7177V8.63324Z" fill="white"/>
<path d="M28.3667 34.5333H34.5333C34.8739 34.5333 35.15 34.2572 35.15 33.9167V0.616667C35.15 0.276112 34.8739 0 34.5333 0H28.3667C28.0261 0 27.75 0.276112 27.75 0.616667V33.9167C27.75 34.2572 28.0261 34.5333 28.3667 34.5333ZM28.9833 1.23333H33.9167V33.3H28.9833V1.23333Z" fill="white"/>
</svg>
