<svg width="29" height="23" viewBox="0 0 29 23" fill="none" xmlns="http://www.w3.org/2000/svg">
<g opacity="0.3" clip-path="url(#clip0)">
<path d="M18.0006 12.3918C11.3904 12.3918 7.75 15.5189 7.75 21.1972C7.75 21.6407 8.10943 22.0001 8.55291 22.0001H27.4483C27.8918 22.0001 28.2512 21.6407 28.2512 21.1972C28.2512 15.5192 24.6108 12.3918 18.0006 12.3918ZM9.38505 20.3943C9.70087 16.1487 12.5954 13.9977 18.0006 13.9977C23.4059 13.9977 26.3004 16.1487 26.6165 20.3943H9.38505Z" fill="#01B259"/>
<path d="M17.9999 0C14.9635 0 12.6738 2.3357 12.6738 5.43284C12.6738 8.62069 15.0631 11.2139 17.9999 11.2139C20.9366 11.2139 23.3259 8.62069 23.3259 5.4331C23.3259 2.3357 21.0362 0 17.9999 0ZM17.9999 9.60828C15.9484 9.60828 14.2797 7.73532 14.2797 5.4331C14.2797 3.21544 15.8443 1.60583 17.9999 1.60583C20.1209 1.60583 21.72 3.25102 21.72 5.4331C21.72 7.73532 20.0513 9.60828 17.9999 9.60828Z" fill="#01B259"/>
</g>
<g clip-path="url(#clip1)">
<path d="M11.0006 13.3918C4.39044 13.3918 0.75 16.5189 0.75 22.1972C0.75 22.6407 1.10943 23.0001 1.55291 23.0001H20.4483C20.8918 23.0001 21.2512 22.6407 21.2512 22.1972C21.2512 16.5192 17.6108 13.3918 11.0006 13.3918ZM2.38505 21.3943C2.70087 17.1487 5.59537 14.9977 11.0006 14.9977C16.4059 14.9977 19.3004 17.1487 19.6165 21.3943H2.38505Z" fill="#01B259"/>
<path d="M10.9999 1C7.96346 1 5.67383 3.3357 5.67383 6.43284C5.67383 9.62069 8.06306 12.2139 10.9999 12.2139C13.9366 12.2139 16.3259 9.62069 16.3259 6.4331C16.3259 3.3357 14.0362 1 10.9999 1ZM10.9999 10.6083C8.94839 10.6083 7.27966 8.73532 7.27966 6.4331C7.27966 4.21544 8.84428 2.60583 10.9999 2.60583C13.1209 2.60583 14.72 4.25102 14.72 6.4331C14.72 8.73532 13.0513 10.6083 10.9999 10.6083Z" fill="#01B259"/>
</g>
<defs>
<clipPath id="clip0">
<rect width="22" height="22" fill="white" transform="translate(7)"/>
</clipPath>
<clipPath id="clip1">
<rect width="22" height="22" fill="white" transform="translate(0 1)"/>
</clipPath>
</defs>
</svg>
