<?xml version="1.0" encoding="utf-8"?><svg viewBox="0 0 423 145" xmlns="http://www.w3.org/2000/svg" xmlns:xlink="http://www.w3.org/1999/xlink"><style>:root>svg{display:none}:root>svg:target{display:block}</style><svg fill="none" viewBox="0 0 61 71" id="icon-cactus" xmlns="http://www.w3.org/2000/svg"><path d="M19.162 12.451l-6.346 9.555 1.678 8.534-7.002-4.74L1 28.716v8.825l6.492 7.878 5.762.437 3.72-1.532 1.02 7.003 23.998.437 2.406-10.43 6.2-.948 4.158-7.002 1.02-6.93-8.387-1.604-2.261 1.97-.365-3.867 14.588-8.898v-6.71l-.584-1.897-2.48-3.647-8.315 1.167-5.98 8.972-2.407-2.845-7.367-1.75-12.108 4.011-.948 1.094z" fill="#fff"/><path d="M44.398 40.678v.657l3.72-.584-3.72-.073zM37.396 50.525c.117-.058 1.021-6.589 1.46-9.847-.176 5.369-.706 8.802-.95 9.847-.218.024-.626.058-.51 0zM30.321 50.525c.35-.7.876-4.133 1.094-5.762.35 3.034.34 5.105.292 5.762h-1.386zM24.122 50.525c-.175-.233-.17-4.717-.146-6.93.233 3.969.729 6.273.948 6.93-.195.097-.627.233-.802 0zM16.828 43.742c1.575 2.976 3.963 5.86 4.96 6.929h-3.793l-1.021-6.346-3.72 1.532-4.012-.292 3.574-.146 4.012-1.677zM1.875 36.229l6.856 9.19H7.564L1 37.615V28.57c0 1.46.632 5.884.875 7.659zM12.743 22.152l1.896-2.845-.291 11.014-1.605-8.17z" fill="#6A6A6A"/><path d="M43.45 50.306H17.85v5.325h1.386L22.37 70h17.87l2.407-14.37h.802v-5.324zM20.475 24.924l2.188-3.647 4.595-.146 2.334 1.97 1.75-1.97 3.72.146 3.72 3.939L36.96 29.3l-4.304 1.094-1.604-1.458-3.428 2.917-4.158-.656-2.99-3.137v-3.136z" fill="#fff"/><path d="M24.778 53.662c-.233-.292-.097-2.067 0-2.918h15.828c-.56.462-2.116 1.62-3.866 2.553-2.188 1.167-3.866 1.021-5.47 1.313-1.605.292-1.24-.583-3.72-.292-2.48.292-2.48-.291-2.772-.656zM36.521 59.643c1.342.7 4.109 1.021 5.325 1.094l.802-4.887H36.74l-16.338.875 2.552 13.202h17.214l.438-3.647h-8.753c-.875-.146-2.743-.496-3.21-.73-.583-.29-1.093-1.677-1.677-1.968-.583-.292-1.021-.73-2.334-.73-1.313 0-1.386.73-1.678.73-.233 0-.243-.487-.218-.73-.098-.316-.132-.875.51-.583.642.291 1.483.267 1.824.218.817.175 2.188-1.823 2.771-2.844 1.75.525 3.599.219 4.304 0 .9-.292 3.034-.7 4.376 0z" fill="#E8E8EA"/><path d="M20.037 55.413l-1.313-4.669h-1.021v4.669h2.334zM35.646 55.852H19.162l3.136 14.075h1.167l-2.334-12.89 14.515-1.185z" fill="#C5C5C5"/><path d="M30.759 60.299h11.087l-1.094 6.273h-9.993c-.705-.122-2.115-.92-2.115-3.137-.059-2.217 1.386-3.015 2.115-3.136z" fill="#6A6A6A"/><path d="M44.617 19.526l14.515-3.865.438-8.388L56.944 1h-8.899l-7.148 13.42m3.72 5.106l.584 7.44 2.334-2.115 5.397 2.115v7.367l-3.428 5.98-5.47-1.75-3.136 11.816h2.771v5.398h-1.021m1.97-36.25l-3.72-5.106m1.75 41.356L40.168 70H22.225L19.09 55.777m23.559 0h-23.56m0 0h-1.385v-5.398h2.188l-3.063-8.387-3.72 3.428H6.106l-4.668-6.857 2.334-9.846 4.814-2.407 5.908 4.157L12.16 19.09l7.731-7.44 14.004-2.626 7.002 5.398m-18.234 6.71l-2.115 3.72v3.282l2.99 3.282 4.303.584 3.21-2.699 1.604 1.459 4.523-1.459 1.75-4.45-3.793-3.719h-4.084l-1.605 1.823-2.115-1.823h-4.668zM19.818 50.38h21.298" stroke="#000"/><path d="M26.31 27.185c0-.525.73-1.046 1.094-1.24.642-.234.875-.146 1.24-.073s.875.51 1.094 1.021c.073.438.146 1.488-.146 2.188-.365.875-.948.73-1.386.73-.35 0-.826-.34-1.021-.511-.219-.195-.686-.671-.802-1.021-.146-.438-.073-.438-.073-1.094zM30.978 26.528c.175-.525.478-.878 1.02-1.094.89-.354 2.043.292 2.262.948.219.656.292 1.021.073 1.605-.219.583-1.386.73-1.386.73-.75.058-1.459-.487-1.75-.803-.146-.243-.394-.86-.22-1.386z" fill="#000"/><path d="M7.127 32.947c.316 1.459 1.648 5.12 4.45 8.096-.876-1.094-2.991-4.245-4.45-8.096zM50.671 29.81c-.194.608-.948 1.955-2.407 2.48.438-.243 1.532-1.08 2.407-2.48zM53.662 7.418c-.973 1.435-3.633 4.741-6.492 6.492 1.216-1.046 4.216-3.808 6.492-6.492zM22.59 12.961c-.268.56-.759 2.203-.584 4.304.025-.802.175-2.786.584-4.304zM33.458 13.18c.632.34 1.838 1.897 1.604 5.398.316-1.58.438-4.872-1.604-5.398z" fill="#454545"/><path d="M24.34 36.594c.535.535 2.261 2.553 5.252 2.115-3.282-.676-4.318-1.357-5.252-2.115z" fill="#000"/><path d="M35.48 61.105h1.215v1.024h-1.007c-.347 0-.389.306-.366.46-.023.454.494.492.755.454v.993l-.8 1.588h-1.382l.983-1.743c-.506-.184-.667-.575-.718-.696v-.001c-.05-.12-.105-.538-.095-.677.01-.138-.025-.674.343-1.065.295-.312.837-.355 1.071-.337z" fill="#fff"/><path fill-rule="evenodd" clip-rule="evenodd" d="M36.7 61.105h2.349c.421-.028 1.27.163 1.299 1.152.035 1.237-.143 1.437-.567 1.646-.117.048-.48.14-1.001.133-.521-.009-1.604-.004-2.08 0v-2.93zm0 3.441h1.075v1.078H36.7v-1.078zm1.067-2.42v.91h.841c.333 0 .524-.017.534-.414.012-.467-.316-.485-.505-.495l-.014-.001h-.856z" fill="#2A2A2A"/><path d="M38.165 64.912h-.147v.376h-.075v-.376H37.8v-.06h.366v.06zM38.385 65.179l.102-.328h.08l-.176.505c-.027.072-.07.109-.13.109l-.014-.002-.028-.005v-.06l.02.001a.098.098 0 00.06-.015.11.11 0 00.035-.056l.016-.045-.156-.432h.082l.11.328zM38.608 65.227l.026-.032a.302.302 0 00.05-.17l.006-.174h.282v.376h.056v.19h-.075v-.129h-.305v.129h-.075v-.19h.035zm.088 0h.2v-.307h-.134l-.004.104a.36.36 0 01-.062.203zM39.393 64.851h.075v.437h-.075v-.319l-.201.32h-.075v-.438h.075v.32l.201-.32zM39.922 64.851v.437h-.075v-.17h-.113l-.103.17h-.08l.11-.181a.132.132 0 01-.065-.047.129.129 0 01-.023-.076c0-.04.015-.072.045-.096a.185.185 0 01.12-.037h.184zm-.273.134c0 .021.007.039.021.052.015.013.034.02.058.02h.119v-.145h-.108a.1.1 0 00-.066.02.065.065 0 00-.024.053z" fill="#2A2A2A"/><path d="M37.515 65.235c.026 0 .05-.008.07-.024a.085.085 0 00.033-.06h.07a.136.136 0 01-.026.071.182.182 0 01-.148.074.181.181 0 01-.142-.059.239.239 0 01-.052-.163v-.013c0-.042.008-.08.023-.113a.178.178 0 01.171-.105c.05 0 .09.015.122.044.033.03.05.068.052.114h-.07a.102.102 0 00-.104-.097.105.105 0 00-.088.042.193.193 0 00-.031.118v.014c0 .05.01.09.03.117.021.027.051.04.09.04z" fill="#fff"/></svg><svg fill="none" viewBox="0 0 423 145" id="icon-logoBg" xmlns="http://www.w3.org/2000/svg"><path opacity=".7" d="M0 145V0h422.5L0 145z" fill="#000"/></svg><svg fill="none" viewBox="0 0 46 36" id="icon-mail" xmlns="http://www.w3.org/2000/svg"><path d="M45.129 11.887c.35-.29.871-.018.871.441V31.5c0 2.484-1.932 4.5-4.313 4.5H4.313C1.932 36 0 33.984 0 31.5V12.337c0-.468.512-.73.871-.44 2.013 1.631 4.681 3.703 13.845 10.65 1.896 1.444 5.095 4.481 8.284 4.462 3.207.029 6.469-3.075 8.293-4.462 9.164-6.947 11.823-9.028 13.836-10.66zM23 24c2.084.038 5.085-2.738 6.595-3.881 11.922-9.028 12.83-9.816 15.578-12.066A2.28 2.28 0 0046 6.281V4.5C46 2.016 44.068 0 41.687 0H4.313C1.932 0 0 2.016 0 4.5v1.781c0 .694.305 1.34.827 1.772 2.749 2.24 3.656 3.038 15.579 12.066C17.915 21.262 20.916 24.038 23 24z" fill="#fff"/></svg><svg fill="none" viewBox="0 0 46 36" id="icon-main" xmlns="http://www.w3.org/2000/svg"><path d="M45.129 11.887c.35-.29.871-.018.871.441V31.5c0 2.484-1.932 4.5-4.313 4.5H4.313C1.932 36 0 33.984 0 31.5V12.337c0-.468.512-.73.871-.44 2.013 1.631 4.681 3.703 13.845 10.65 1.896 1.444 5.095 4.481 8.284 4.462 3.207.029 6.469-3.075 8.293-4.462 9.164-6.947 11.823-9.028 13.836-10.66zM23 24c2.084.038 5.085-2.738 6.595-3.881 11.922-9.028 12.83-9.816 15.578-12.066A2.28 2.28 0 0046 6.281V4.5C46 2.016 44.068 0 41.687 0H4.313C1.932 0 0 2.016 0 4.5v1.781c0 .694.305 1.34.827 1.772 2.749 2.24 3.656 3.038 15.579 12.066C17.915 21.262 20.916 24.038 23 24z" fill="#fff"/></svg><svg fill="none" viewBox="0 0 53 15" id="icon-menu" xmlns="http://www.w3.org/2000/svg"><path d="M34.194 7.5c0 4.146-3.441 7.5-7.694 7.5s-7.694-3.354-7.694-7.5S22.247 0 26.5 0s7.694 3.354 7.694 7.5zM45.306 0c-4.252 0-7.693 3.354-7.693 7.5s3.44 7.5 7.694 7.5C49.559 15 53 11.646 53 7.5S49.56 0 45.306 0zM7.694 0C3.44 0 0 3.354 0 7.5S3.44 15 7.694 15c4.252 0 7.693-3.354 7.693-7.5S11.947 0 7.694 0z" fill="#fff"/></svg><svg fill="none" viewBox="0 0 49 49" id="icon-skype" xmlns="http://www.w3.org/2000/svg"><path d="M24.255 37.93c-8.106 0-11.727-3.978-11.727-6.962 0-1.538 1.13-2.605 2.686-2.605 3.472 0 2.565 4.978 9.041 4.978 3.307 0 5.139-1.798 5.139-3.64 0-1.107-.542-2.33-2.729-2.87l-7.206-1.8c-5.803-1.454-6.857-4.593-6.857-7.537 0-6.124 5.765-8.423 11.182-8.423 4.979 0 10.867 2.76 10.867 6.429 0 1.576-1.387 2.492-2.928 2.492-2.96 0-2.414-4.094-8.39-4.094-2.96 0-4.62 1.335-4.62 3.25s2.324 2.528 4.347 2.988l5.314 1.18c5.825 1.304 7.302 4.714 7.302 7.926 0 4.975-3.832 8.69-11.53 8.69l.11-.003zm22.226-9.81l-.058.271-.089-.482c.03.09.089.149.119.241.242-1.356.365-2.739.365-4.123 0-3.073-.607-6.053-1.81-8.883a22.745 22.745 0 00-4.89-7.226c-2.114-2.076-4.528-3.73-7.245-4.875-2.655-1.269-5.644-1.87-8.72-1.87-1.451 0-2.91.141-4.319.41l.24.121-.482-.066.24-.05A13.463 13.463 0 0013.5 0a13.407 13.407 0 00-9.543 3.953A13.404 13.404 0 000 13.496c0 2.297.588 4.552 1.7 6.548l.041-.25.083.48-.121-.23a22.51 22.51 0 00-.347 3.928c0 3.075.605 6.063 1.781 8.875a21.959 21.959 0 004.891 7.252c2.083 2.11 4.528 3.732 7.244 4.908a22.368 22.368 0 008.874 1.805c1.328 0 2.688-.121 3.984-.36l-.24-.125.484.093-.272.06a13.412 13.412 0 006.637 1.75 13.4 13.4 0 009.538-3.945 13.412 13.412 0 003.953-9.543 13.58 13.58 0 00-1.719-6.563" fill="#fff"/></svg><svg fill="none" viewBox="0 0 38 38" id="icon-tel" xmlns="http://www.w3.org/2000/svg"><path d="M36.62 1.827L28.9.045a1.793 1.793 0 00-2.041 1.032l-3.562 8.312a1.777 1.777 0 00.512 2.078l4.497 3.681c-2.672 5.693-7.34 10.428-13.151 13.152l-3.681-4.498a1.78 1.78 0 00-2.078-.512l-8.313 3.563A1.802 1.802 0 00.045 28.9l1.782 7.719A1.78 1.78 0 003.563 38C22.57 38 38 22.6 38 3.563a1.78 1.78 0 00-1.38-1.736z" fill="#fff"/></svg><svg fill="none" viewBox="0 0 58 49" id="icon-telegram" xmlns="http://www.w3.org/2000/svg"><path d="M57.823 4.547l-8.727 41.498c-.604 2.945-2.369 3.65-4.835 2.288l-13.296-9.906-6.43 6.255c-.726.73-1.33 1.363-2.66 1.363-1.74 0-1.45-.657-2.03-2.313L15.25 28.668 2.075 24.529c-2.852-.852-2.876-2.823.629-4.26L54.1.313c2.345-1.046 4.594.584 3.7 4.21l.023.025z" fill="#fff"/></svg><svg fill="none" viewBox="0 0 43 45" id="icon-viber" xmlns="http://www.w3.org/2000/svg"><path d="M20.365.004C16.731.052 8.912.644 4.538 4.626 1.29 7.832.156 12.559.024 18.413c-.113 5.83-.246 16.78 10.383 19.764v4.537s-.072 1.82 1.136 2.194c1.492.469 2.341-.935 3.757-2.435l2.643-2.963c7.268.6 12.838-.786 13.48-.992 1.472-.469 9.78-1.52 11.14-12.472 1.397-11.308-.68-18.434-4.418-21.659l-.019-.003C36.993 3.352 32.463.07 22.325.034c0 0-.748-.047-1.96-.03zm.127 3.182c1.029-.006 1.661.037 1.661.037 8.57.019 12.67 2.588 13.632 3.45 3.153 2.68 4.773 9.105 3.587 18.548-1.133 9.15-7.872 9.73-9.118 10.125-.529.168-5.437 1.368-11.614.975 0 0-4.605 5.514-6.04 6.94-.226.243-.49.318-.66.28-.245-.056-.321-.356-.302-.768l.038-7.536C2.669 32.762 3.197 23.42 3.292 18.546 3.405 13.67 4.33 9.673 7.067 6.973c3.695-3.319 10.336-3.769 13.423-3.787h.002zm.68 4.875a.569.569 0 00-.524.345.557.557 0 00.123.613c.106.105.25.165.4.165a10.695 10.695 0 014.105.735 10.636 10.636 0 013.503 2.246c2.058 1.988 3.06 4.65 3.098 8.137a.558.558 0 00.35.52.571.571 0 00.217.043v-.017a.569.569 0 00.566-.562c.07-1.64-.197-3.278-.784-4.812a12.085 12.085 0 00-2.633-4.113c-2.246-2.175-5.082-3.3-8.423-3.3h.001zm-7.465 1.293a1.813 1.813 0 00-1.161.225h-.023a8.944 8.944 0 00-2.167 1.763c-.51.6-.795 1.198-.87 1.78a2.31 2.31 0 00.094 1.014l.038.018a25.642 25.642 0 002.265 4.875 28.85 28.85 0 004.38 5.946l.057.075.075.056.057.056.056.057a29.447 29.447 0 006.004 4.368c2.492 1.35 4.006 1.988 4.912 2.25v.02c.264.074.506.112.751.112a3.486 3.486 0 002.08-.885 8.48 8.48 0 001.756-2.153v-.018c.435-.807.284-1.577-.34-2.102a25.735 25.735 0 00-4.058-2.888c-.963-.525-1.945-.206-2.341.319l-.85 1.067c-.434.525-1.227.45-1.227.45l-.022.018c-5.89-1.5-7.457-7.423-7.457-7.423s-.076-.806.472-1.218l1.057-.844c.51-.413.868-1.388.32-2.344a25.36 25.36 0 00-2.907-4.031 1.594 1.594 0 00-.951-.563zm8.444 1.67a.568.568 0 00-.564.564.56.56 0 00.568.56 7.159 7.159 0 015.003 2.156 6.52 6.52 0 011.699 4.819c0 .149.06.292.166.397.107.105.25.164.4.164l.02.022a.57.57 0 00.523-.348.56.56 0 00.042-.216c.057-2.231-.641-4.106-2.02-5.606-1.378-1.5-3.303-2.344-5.758-2.513a.552.552 0 00-.079 0zm.925 3.035a.58.58 0 00-.593.556.57.57 0 00.34.54.58.58 0 00.22.05c1.868.093 2.774 1.03 2.888 2.962a.56.56 0 00.566.544h.019a.569.569 0 00.517-.378.56.56 0 00.03-.222c-.132-2.513-1.51-3.921-3.964-4.052h-.023z" fill="#fff"/></svg></svg>