<svg width="25" height="25" viewBox="0 0 25 25" fill="none" xmlns="http://www.w3.org/2000/svg">
<g clip-path="url(#clip0)">
<path d="M12.6333 0.581299C6.01624 0.581299 0.633301 5.96423 0.633301 12.5813C0.633301 19.1984 6.01624 24.5813 12.6333 24.5813C19.2504 24.5813 24.6333 19.1984 24.6333 12.5813C24.6333 5.96423 19.2504 0.581299 12.6333 0.581299ZM18.3403 18.7882C18.1453 18.9832 17.8893 19.0814 17.6334 19.0814C17.3774 19.0814 17.1212 18.9832 16.9264 18.7882L11.9263 13.7883C11.7383 13.6014 11.6334 13.3472 11.6334 13.0814V6.5813C11.6334 6.02832 12.0812 5.58136 12.6333 5.58136C13.1854 5.58136 13.6332 6.02832 13.6332 6.5813V12.6674L18.3403 17.3743C18.7313 17.7654 18.7313 18.3973 18.3403 18.7882Z" fill="white"/>
</g>
<defs>
<clipPath id="clip0">
<rect width="24" height="24" fill="white" transform="translate(0.633301 0.581299)"/>
</clipPath>
</defs>
</svg>
