<svg width="94" height="65" viewBox="0 0 94 65" fill="none" xmlns="http://www.w3.org/2000/svg">
<path d="M0.361816 62.575V61.3225C0.757341 61.7235 1.24076 61.924 1.81207 61.924C2.24056 61.924 2.6196 61.7977 2.94921 61.545C3.2843 61.2923 3.4903 60.9352 3.56721 60.4738H1.10342V59.5509H3.55073C3.47382 59.1004 3.27332 58.7516 2.94921 58.5044C2.6251 58.2517 2.25978 58.1254 1.85327 58.1254C1.26548 58.1254 0.768328 58.3314 0.361816 58.7434V57.4909C0.801288 57.2656 1.27921 57.153 1.79559 57.153C2.65806 57.153 3.34198 57.3947 3.84738 57.8782C4.10556 58.1308 4.30607 58.4495 4.4489 58.834C4.59722 59.213 4.67138 59.6113 4.67138 60.0288C4.67138 60.9023 4.39946 61.6027 3.85562 62.13C3.34473 62.6409 2.6608 62.8964 1.80383 62.8964C1.28745 62.8964 0.806781 62.7892 0.361816 62.575Z" fill="white"/>
<path d="M8.46453 57.2766V59.6003L10.4834 57.2766H11.8347L9.51102 59.8146L11.9583 62.7728H10.541L8.58813 60.309L8.46453 60.4326V62.7728H7.39332V57.2766H8.46453Z" fill="white"/>
<path d="M14.5684 57.9606C15.1177 57.4222 15.8236 57.153 16.6861 57.153C17.5485 57.153 18.2517 57.4222 18.7955 57.9606C19.3449 58.4989 19.6196 59.1883 19.6196 60.0288C19.6196 60.8693 19.3449 61.5587 18.7955 62.0971C18.2517 62.6299 17.5485 62.8964 16.6861 62.8964C15.8236 62.8964 15.1177 62.6299 14.5684 62.0971C14.0245 61.5587 13.7526 60.8693 13.7526 60.0288C13.7526 59.1883 14.0245 58.4989 14.5684 57.9606ZM15.3677 61.3967C15.7083 61.7482 16.1477 61.924 16.6861 61.924C17.2244 61.924 17.6639 61.7482 18.0045 61.3967C18.3451 61.0396 18.5154 60.5836 18.5154 60.0288C18.5154 59.474 18.3423 59.018 17.9963 58.661C17.6557 58.3039 17.2189 58.1254 16.6861 58.1254C16.1532 58.1254 15.7138 58.3039 15.3677 58.661C15.0271 59.018 14.8568 59.474 14.8568 60.0288C14.8568 60.5836 15.0271 61.0396 15.3677 61.3967Z" fill="white"/>
<path d="M22.3372 62.7728V57.2766H25.5178V58.1995H23.4084V59.4602H24.15C24.7323 59.4602 25.191 59.6086 25.5261 59.9052C25.8722 60.2128 26.0452 60.6194 26.0452 61.1247C26.0452 61.4873 25.9436 61.8142 25.7403 62.1053C25.4272 62.5503 24.8998 62.7728 24.1582 62.7728H22.3372ZM23.4084 60.3831V61.8499H23.9193C24.6005 61.8499 24.941 61.6109 24.941 61.133C24.941 60.9242 24.8641 60.7484 24.7103 60.6056C24.562 60.4573 24.3038 60.3831 23.9358 60.3831H23.4084Z" fill="white"/>
<path d="M28.767 57.2766H29.8382V60.9352L32.8541 57.2766H33.6122V62.7728H32.541V59.0977L29.5251 62.7728H28.767V57.2766Z" fill="white"/>
<path d="M37.2727 58.5291L36.7124 57.7957C37.1903 57.3673 37.7534 57.153 38.4016 57.153C38.9565 57.153 39.3959 57.2849 39.72 57.5485C40.0441 57.8067 40.2062 58.1528 40.2062 58.5868C40.2062 59.1087 39.981 59.496 39.5305 59.7487C39.8601 59.8311 40.1128 60.0013 40.2886 60.2595C40.4644 60.5177 40.5523 60.8199 40.5523 61.1659C40.5523 61.6823 40.349 62.0998 39.9425 62.4184C39.536 62.7371 39.0114 62.8964 38.3687 62.8964C37.4183 62.8964 36.7289 62.5503 36.3004 61.8581L37.0008 61.1907C37.1217 61.4653 37.3112 61.6713 37.5694 61.8087C37.8331 61.9405 38.1077 62.0064 38.3934 62.0064C38.7395 62.0064 39.0004 61.9268 39.1762 61.7675C39.3575 61.6082 39.4481 61.4159 39.4481 61.1907C39.4481 60.6303 39.0471 60.3502 38.2451 60.3502H37.7507V59.4273H38.2451C38.5252 59.4273 38.7477 59.3669 38.9125 59.246C39.0773 59.1197 39.1597 58.9466 39.1597 58.7269C39.1597 58.5236 39.0938 58.3671 38.9619 58.2572C38.8301 58.1473 38.6351 58.0924 38.3769 58.0924C37.9045 58.0924 37.5364 58.238 37.2727 58.5291Z" fill="white"/>
<path d="M44.3395 57.2766V59.4026H46.6632V57.2766H47.7344V62.7728H46.6632V60.3255H44.3395V62.7728H43.2683V57.2766H44.3395Z" fill="white"/>
<path d="M53.7689 57.2766V58.1995H51.7913V59.4273H53.6865V60.3502H51.7913V61.8499H53.7689V62.7728H50.7201V57.2766H53.7689Z" fill="white"/>
<path d="M60.5266 61.3225V62.575C60.1201 62.7892 59.6669 62.8964 59.167 62.8964C58.3649 62.8964 57.6947 62.6409 57.1564 62.13C56.5686 61.5642 56.2747 60.8638 56.2747 60.0288C56.2747 59.1389 56.5686 58.422 57.1564 57.8782C57.6728 57.3947 58.3457 57.153 59.1752 57.153C59.6586 57.153 60.1091 57.2656 60.5266 57.4909V58.7434C60.1695 58.3314 59.7273 58.1254 59.1999 58.1254C58.6616 58.1254 58.2221 58.3149 57.8815 58.6939C57.5464 59.0675 57.3789 59.5179 57.3789 60.0453C57.3789 60.6221 57.5656 61.0808 57.9392 61.4214C58.3128 61.7565 58.7467 61.924 59.2411 61.924C59.7575 61.924 60.186 61.7235 60.5266 61.3225Z" fill="white"/>
<path d="M66.4738 58.1995H65.2378V62.7728H64.1666V58.1995H62.9306V57.2766H66.4738V58.1995Z" fill="white"/>
<path d="M68.8831 57.2766H70.4817C70.8222 57.2766 71.0997 57.3068 71.3139 57.3673C71.5336 57.4222 71.7396 57.5321 71.9319 57.6969C72.3055 58.0265 72.4922 58.4687 72.4922 59.0235C72.4922 59.5399 72.3412 59.9492 72.039 60.2513C71.7149 60.5754 71.2507 60.7375 70.6465 60.7375H69.9543V62.7728H68.8831V57.2766ZM69.9543 58.1995V59.8146H70.391C70.7041 59.8146 70.9376 59.7569 71.0914 59.6415C71.2892 59.4877 71.3881 59.2735 71.3881 58.9988C71.3881 58.7296 71.2864 58.5209 71.0832 58.3726C70.9184 58.2572 70.6657 58.1995 70.3251 58.1995H69.9543Z" fill="white"/>
<path d="M78.064 57.2766V58.1995H76.0864V59.4273H77.9816V60.3502H76.0864V61.8499H78.064V62.7728H75.0152V57.2766H78.064Z" fill="white"/>
<path d="M80.8335 57.2766H81.9047V60.9352L84.9205 57.2766H85.6786V62.7728H84.6074V59.0977L81.5915 62.7728H80.8335V57.2766ZM81.7728 55.8181L82.5144 55.5215C82.6353 55.8401 82.8825 55.9994 83.256 55.9994C83.6296 55.9994 83.8768 55.8401 83.9977 55.5215L84.7393 55.8181C84.6294 56.1038 84.4454 56.329 84.1872 56.4938C83.9345 56.6586 83.6241 56.741 83.256 56.741C82.888 56.741 82.5749 56.6586 82.3167 56.4938C82.064 56.329 81.8827 56.1038 81.7728 55.8181Z" fill="white"/>
<path d="M89.1908 57.2766H92.8989V61.8499H93.4757V64.0088H92.4869V62.7728H89.1084V64.0088H88.1196V61.8499C88.3064 61.8554 88.4767 61.7894 88.6305 61.6521C88.7843 61.5093 88.9052 61.328 88.9931 61.1083C89.1249 60.7732 89.1908 60.2925 89.1908 59.6663V57.2766ZM90.2291 58.1995V59.6663C90.2291 60.3529 90.1659 60.8638 90.0396 61.1989C89.9407 61.4516 89.7979 61.6686 89.6111 61.8499H91.8277V58.1995H90.2291Z" fill="white"/>
<path d="M61.6081 47.6687H45.4882V45.35H59.2826V40.1419H46.3227C40.6417 40.1419 36.0205 35.5339 36.0205 29.8703C36.0205 24.2062 40.6422 19.5988 46.3227 19.5988H59.2826V14.6021H43.3681C43.6649 14.2206 43.9213 13.864 44.1455 13.4356C44.336 13.0723 44.4539 12.6743 44.5768 12.2834H61.6087V21.9174H46.3232C41.9246 21.9174 38.3466 25.4853 38.3466 29.8703C38.3466 34.2559 41.9252 37.8233 46.3232 37.8233H61.6087V47.6687H61.6081Z" fill="white"/>
<path d="M45.7286 47.6686C43.5924 47.6686 41.4911 47.2567 39.4834 46.4452C37.5488 45.6629 35.7963 44.5494 34.2747 43.1367C32.7432 41.7141 31.5356 40.0706 30.6845 38.251C29.792 36.3425 29.3396 34.3364 29.3396 32.2877V31.6296H31.6651V32.2877C31.6651 39.2464 38.2365 45.3505 45.728 45.3505V47.6686H45.7286Z" fill="white"/>
<path d="M45.4357 33.9538H29.457V31.6352H45.4357C46.5093 31.6352 47.3831 30.764 47.3831 29.6936C47.3831 28.6231 46.5093 27.752 45.4357 27.752H39.8146C39.9369 27.3065 40.0255 26.9587 40.2293 26.548C40.4092 26.1858 40.6816 25.7558 40.9646 25.4333C42.4552 25.4333 43.9452 25.4333 45.4357 25.4333C47.7917 25.4333 49.7086 27.3446 49.7086 29.6936C49.7086 32.0426 47.7917 33.9538 45.4357 33.9538Z" fill="white"/>
<path d="M35.2532 27.7526H29.0014V16.298C29.0058 16.0319 29.0058 15.7603 29.0014 15.4909C28.9665 13.3715 28.9299 11.1804 27.9687 9.161C27.209 7.56555 26.1149 6.5851 25.5274 6.05844C24.0269 4.71418 22.4372 4.0219 21.3675 3.67797C20.7562 3.48143 19.1106 3.03592 17.0331 3.14026C16.7358 3.15517 16.4357 3.18111 16.1417 3.21755L15.856 0.916574C16.2053 0.873513 16.5619 0.842598 16.9157 0.824932C19.2883 0.705136 21.1704 1.1788 22.0812 1.47139C23.9239 2.06375 25.6531 3.05359 27.0822 4.33436C27.7406 4.92396 29.1099 6.15174 30.0694 8.16675C31.2472 10.64 31.2893 13.1965 31.3269 15.4528C31.3319 15.7448 31.3319 16.0385 31.3269 16.3273V25.434H36.1087C35.885 25.7939 35.6579 26.1677 35.5173 26.5486C35.3728 26.9411 35.3285 27.3447 35.2532 27.7526Z" fill="white"/>
<path d="M32.1257 21.0045C31.7276 21.0045 31.3273 20.9824 30.9253 20.9377L31.1828 18.6334C32.1689 18.7427 33.1445 18.6808 34.0819 18.449C35.9817 17.9792 37.2048 16.927 38.0985 16.159C38.722 15.623 40.0193 14.5078 41.0021 12.5795C42.0724 10.4789 42.2396 8.44018 42.1914 7.09923L44.5153 7.01587C44.5989 9.33009 44.1006 11.6173 43.0752 13.6295C41.8847 15.9653 40.2956 17.3316 39.6167 17.9151C38.6062 18.7835 37.0797 20.0963 34.6417 20.6997C33.8211 20.9023 32.9784 21.0045 32.1257 21.0045Z" fill="white"/>
<path d="M31.2355 16.5624L29.0977 15.6493C29.694 14.2609 30.4753 12.9619 31.4193 11.7871C32.0766 10.9695 33.4442 9.26753 35.798 7.9851C37.7437 6.92515 39.5465 6.57294 40.4485 6.457C41.9557 6.26378 44.0786 6.27758 44.1683 6.27869L44.222 6.27924L44.6993 6.32672L44.4678 8.63377L44.0991 8.59678C43.7729 8.59567 41.9767 8.59899 40.7453 8.75687C40.1501 8.83306 38.5848 9.10909 36.9137 10.02C34.968 11.0799 33.8401 12.4833 33.2344 13.2374C32.4215 14.2482 31.7493 15.3667 31.2355 16.5624Z" fill="white"/>
<path d="M29.5649 15.6161C28.2731 15.6161 26.988 15.4461 25.746 15.1105C22.6481 14.2741 20.6365 12.6328 19.9156 11.9659C18.4084 10.572 17.5718 9.14713 17.2069 8.42172C16.4871 6.98969 16.2318 5.73762 15.9616 4.41213C15.7257 3.25447 15.5757 2.07251 15.5159 0.89939L17.8386 0.78125C17.8929 1.83899 18.028 2.90501 18.2412 3.95006C18.5003 5.222 18.7052 6.22619 19.2866 7.38275C19.5236 7.85366 20.2129 9.07812 21.4975 10.2656C22.0922 10.8154 23.756 12.1702 26.3546 12.8719C27.3983 13.154 28.4785 13.2969 29.5655 13.2969C29.5671 13.2969 29.5688 13.2969 29.5704 13.2969L29.5715 15.6156C29.5688 15.6161 29.5666 15.6161 29.5649 15.6161Z" fill="white"/>
</svg>
