<svg width="94" height="64" viewBox="0 0 94 64" fill="none" xmlns="http://www.w3.org/2000/svg">
<path d="M0 62.0613V60.8088C0.395524 61.2099 0.878943 61.4104 1.45026 61.4104C1.87874 61.4104 2.25779 61.284 2.58739 61.0313C2.92249 60.7786 3.12849 60.4216 3.2054 59.9601H0.741608V59.0372H3.18892C3.11201 58.5868 2.9115 58.2379 2.58739 57.9907C2.26328 57.738 1.89797 57.6117 1.49146 57.6117C0.903664 57.6117 0.406511 57.8177 0 58.2297V56.9772C0.439472 56.752 0.917397 56.6394 1.43378 56.6394C2.29624 56.6394 2.98017 56.8811 3.48556 57.3645C3.74375 57.6172 3.94426 57.9358 4.08709 58.3203C4.23541 58.6994 4.30957 59.0976 4.30957 59.5151C4.30957 60.3886 4.03764 61.089 3.4938 61.6164C2.98291 62.1273 2.29899 62.3827 1.44202 62.3827C0.925637 62.3827 0.444965 62.2756 0 62.0613Z" fill="black"/>
<path d="M8.10271 56.763V59.0867L10.1215 56.763H11.4729L9.14921 59.3009L11.5965 62.2591H10.1792L8.22631 59.7953L8.10271 59.9189V62.2591H7.0315V56.763H8.10271Z" fill="black"/>
<path d="M14.2066 57.4469C14.7559 56.9085 15.4618 56.6394 16.3243 56.6394C17.1867 56.6394 17.8899 56.9085 18.4337 57.4469C18.9831 57.9852 19.2577 58.6747 19.2577 59.5151C19.2577 60.3556 18.9831 61.0451 18.4337 61.5834C17.8899 62.1163 17.1867 62.3827 16.3243 62.3827C15.4618 62.3827 14.7559 62.1163 14.2066 61.5834C13.6627 61.0451 13.3908 60.3556 13.3908 59.5151C13.3908 58.6747 13.6627 57.9852 14.2066 57.4469ZM15.0059 60.883C15.3464 61.2346 15.7859 61.4104 16.3243 61.4104C16.8626 61.4104 17.3021 61.2346 17.6427 60.883C17.9833 60.5259 18.1536 60.07 18.1536 59.5151C18.1536 58.9603 17.9805 58.5044 17.6344 58.1473C17.2938 57.7902 16.8571 57.6117 16.3243 57.6117C15.7914 57.6117 15.3519 57.7902 15.0059 58.1473C14.6653 58.5044 14.495 58.9603 14.495 59.5151C14.495 60.07 14.6653 60.5259 15.0059 60.883Z" fill="black"/>
<path d="M21.9754 62.2591V56.763H25.156V57.6858H23.0466V58.9466H23.7882C24.3705 58.9466 24.8292 59.0949 25.1643 59.3915C25.5104 59.6992 25.6834 60.1057 25.6834 60.6111C25.6834 60.9736 25.5818 61.3005 25.3785 61.5916C25.0654 62.0366 24.538 62.2591 23.7964 62.2591H21.9754ZM23.0466 59.8695V61.3362H23.5575C24.2386 61.3362 24.5792 61.0972 24.5792 60.6193C24.5792 60.4106 24.5023 60.2348 24.3485 60.0919C24.2002 59.9436 23.942 59.8695 23.5739 59.8695H23.0466Z" fill="black"/>
<path d="M28.4052 56.763H29.4764V60.4216L32.4923 56.763H33.2504V62.2591H32.1792V58.584L29.1633 62.2591H28.4052V56.763Z" fill="black"/>
<path d="M36.9109 58.0154L36.3506 57.2821C36.8285 56.8536 37.3916 56.6394 38.0398 56.6394C38.5946 56.6394 39.0341 56.7712 39.3582 57.0349C39.6823 57.2931 39.8444 57.6391 39.8444 58.0731C39.8444 58.595 39.6192 58.9823 39.1687 59.235C39.4983 59.3174 39.751 59.4877 39.9268 59.7459C40.1026 60.0041 40.1905 60.3062 40.1905 60.6523C40.1905 61.1687 39.9872 61.5862 39.5807 61.9048C39.1742 62.2234 38.6496 62.3827 38.0068 62.3827C37.0565 62.3827 36.3671 62.0366 35.9386 61.3444L36.639 60.677C36.7598 60.9517 36.9494 61.1577 37.2076 61.295C37.4712 61.4268 37.7459 61.4928 38.0316 61.4928C38.3777 61.4928 38.6386 61.4131 38.8144 61.2538C38.9957 61.0945 39.0863 60.9022 39.0863 60.677C39.0863 60.1167 38.6853 59.8365 37.8832 59.8365H37.3888V58.9136H37.8832C38.1634 58.9136 38.3859 58.8532 38.5507 58.7323C38.7155 58.606 38.7979 58.4329 38.7979 58.2132C38.7979 58.01 38.732 57.8534 38.6001 57.7435C38.4683 57.6337 38.2733 57.5787 38.0151 57.5787C37.5427 57.5787 37.1746 57.7243 36.9109 58.0154Z" fill="black"/>
<path d="M43.9777 56.763V58.8889H46.3014V56.763H47.3726V62.2591H46.3014V59.8118H43.9777V62.2591H42.9065V56.763H43.9777Z" fill="black"/>
<path d="M53.4071 56.763V57.6858H51.4295V58.9136H53.3247V59.8365H51.4295V61.3362H53.4071V62.2591H50.3583V56.763H53.4071Z" fill="black"/>
<path d="M60.1648 60.8088V62.0613C59.7583 62.2756 59.305 62.3827 58.8052 62.3827C58.0031 62.3827 57.3329 62.1273 56.7946 61.6164C56.2068 61.0505 55.9129 60.3501 55.9129 59.5151C55.9129 58.6252 56.2068 57.9083 56.7946 57.3645C57.3109 56.8811 57.9839 56.6394 58.8134 56.6394C59.2968 56.6394 59.7473 56.752 60.1648 56.9772V58.2297C59.8077 57.8177 59.3655 57.6117 58.8381 57.6117C58.2998 57.6117 57.8603 57.8012 57.5197 58.1802C57.1846 58.5538 57.0171 59.0043 57.0171 59.5316C57.0171 60.1084 57.2038 60.5671 57.5774 60.9077C57.9509 61.2428 58.3849 61.4104 58.8793 61.4104C59.3957 61.4104 59.8242 61.2099 60.1648 60.8088Z" fill="black"/>
<path d="M66.112 57.6858H64.876V62.2591H63.8048V57.6858H62.5688V56.763H66.112V57.6858Z" fill="black"/>
<path d="M68.5213 56.763H70.1198C70.4604 56.763 70.7378 56.7932 70.9521 56.8536C71.1718 56.9085 71.3778 57.0184 71.5701 57.1832C71.9436 57.5128 72.1304 57.955 72.1304 58.5099C72.1304 59.0262 71.9794 59.4355 71.6772 59.7376C71.3531 60.0617 70.8889 60.2238 70.2846 60.2238H69.5925V62.2591H68.5213V56.763ZM69.5925 57.6858V59.3009H70.0292C70.3423 59.3009 70.5758 59.2432 70.7296 59.1279C70.9274 58.974 71.0263 58.7598 71.0263 58.4851C71.0263 58.216 70.9246 58.0072 70.7214 57.8589C70.5566 57.7435 70.3039 57.6858 69.9633 57.6858H69.5925Z" fill="black"/>
<path d="M77.7022 56.763V57.6858H75.7246V58.9136H77.6198V59.8365H75.7246V61.3362H77.7022V62.2591H74.6534V56.763H77.7022Z" fill="black"/>
<path d="M80.4716 56.763H81.5428V60.4216L84.5587 56.763H85.3168V62.2591H84.2456V58.584L81.2297 62.2591H80.4716V56.763ZM81.411 55.3045L82.1526 55.0078C82.2735 55.3264 82.5207 55.4857 82.8942 55.4857C83.2678 55.4857 83.515 55.3264 83.6358 55.0078L84.3774 55.3045C84.2676 55.5901 84.0835 55.8153 83.8254 55.9801C83.5727 56.1449 83.2623 56.2273 82.8942 56.2273C82.5262 56.2273 82.213 56.1449 81.9548 55.9801C81.7022 55.8153 81.5209 55.5901 81.411 55.3045Z" fill="black"/>
<path d="M88.829 56.763H92.5371V61.3362H93.1139V63.4951H92.1251V62.2591H88.7466V63.4951H87.7578V61.3362C87.9446 61.3417 88.1149 61.2758 88.2687 61.1384C88.4225 60.9956 88.5434 60.8143 88.6313 60.5946C88.7631 60.2595 88.829 59.7788 88.829 59.1526V56.763ZM89.8673 57.6858V59.1526C89.8673 59.8393 89.8041 60.3501 89.6777 60.6852C89.5789 60.9379 89.436 61.1549 89.2493 61.3362H91.4659V57.6858H89.8673Z" fill="black"/>
<path d="M61.2463 47.155H45.1264V44.8364H58.9208V39.6282H45.9608C40.2799 39.6282 35.6587 35.0202 35.6587 29.3567C35.6587 23.6926 40.2804 19.0851 45.9608 19.0851H58.9208V14.0884H43.0063C43.3031 13.7069 43.5594 13.3503 43.7837 12.9219C43.9742 12.5587 44.0921 12.1606 44.215 11.7698H61.2469V21.4037H45.9614C41.5628 21.4037 37.9848 24.9717 37.9848 29.3567C37.9848 33.7422 41.5634 37.3096 45.9614 37.3096H61.2469V47.155H61.2463Z" fill="#7F9681"/>
<path d="M45.3668 47.1549C43.2306 47.1549 41.1293 46.7431 39.1216 45.9315C37.1869 45.1493 35.4345 44.0358 33.9129 42.623C32.3814 41.2004 31.1738 39.5569 30.3227 37.7373C29.4302 35.8289 28.9778 33.8227 28.9778 31.774V31.116H31.3033V31.774C31.3033 38.7327 37.8746 44.8368 45.3662 44.8368V47.1549H45.3668Z" fill="#7F9681"/>
<path d="M45.0739 33.4401H29.0952V31.1215H45.0739C46.1475 31.1215 47.0213 30.2503 47.0213 29.1799C47.0213 28.1095 46.1475 27.2383 45.0739 27.2383H39.4527C39.5751 26.7928 39.6637 26.445 39.8675 26.0343C40.0474 25.6721 40.3198 25.2421 40.6028 24.9197C42.0933 24.9197 43.5833 24.9197 45.0739 24.9197C47.4299 24.9197 49.3468 26.8309 49.3468 29.1799C49.3468 31.5289 47.4299 33.4401 45.0739 33.4401Z" fill="#7F9681"/>
<path d="M34.8914 27.239H28.6395V15.7843C28.644 15.5182 28.644 15.2466 28.6395 14.9772C28.6047 12.8579 28.5681 10.6668 27.6069 8.64733C26.8472 7.05188 25.7531 6.07143 25.1656 5.54477C23.6651 4.20051 22.0754 3.50823 21.0057 3.16429C20.3944 2.96776 18.7488 2.52225 16.6713 2.62659C16.374 2.6415 16.0739 2.66744 15.7799 2.70388L15.4941 0.402902C15.8435 0.359842 16.2001 0.328926 16.5539 0.31126C18.9265 0.191464 20.8086 0.665129 21.7194 0.95772C23.5621 1.55008 25.2913 2.53992 26.7204 3.82069C27.3788 4.41029 28.7481 5.63806 29.7076 7.65307C30.8854 10.1263 30.9274 12.6829 30.9651 14.9391C30.9701 15.2312 30.9701 15.5249 30.9651 15.8136V24.9203H35.7468C35.5231 25.2803 35.2961 25.654 35.1555 26.0349C35.011 26.4274 34.9667 26.831 34.8914 27.239Z" fill="#7F9681"/>
<path d="M31.7639 20.4908C31.3658 20.4908 30.9655 20.4687 30.5635 20.424L30.8209 18.1197C31.8071 18.229 32.7827 18.1672 33.7201 17.9353C35.6199 17.4655 36.843 16.4133 37.7367 15.6454C38.3601 15.1093 39.6575 13.9942 40.6403 12.0658C41.7106 9.96525 41.8778 7.92651 41.8296 6.58556L44.1535 6.5022C44.2371 8.81642 43.7388 11.1036 42.7133 13.1158C41.5229 15.4516 39.9338 16.8179 39.2549 17.4015C38.2444 18.2699 36.7179 19.5826 34.2799 20.186C33.4593 20.3887 32.6166 20.4908 31.7639 20.4908Z" fill="#7F9681"/>
<path d="M30.8737 16.0487L28.7358 15.1356C29.3322 13.7472 30.1134 12.4482 31.0575 11.2734C31.7147 10.4558 33.0824 8.75386 35.4362 7.47143C37.3819 6.41148 39.1847 6.05926 40.0867 5.94333C41.5939 5.75011 43.7168 5.76391 43.8065 5.76502L43.8602 5.76557L44.3375 5.81305L44.106 8.12009L43.7372 8.08311C43.4111 8.082 41.6149 8.08531 40.3835 8.2432C39.7883 8.31939 38.2229 8.59541 36.5519 9.50631C34.6062 10.5663 33.4783 11.9696 32.8725 12.7237C32.0597 13.7345 31.3875 14.853 30.8737 16.0487Z" fill="#7F9681"/>
<path d="M29.2031 15.1025C27.9113 15.1025 26.6262 14.9324 25.3842 14.5968C22.2863 13.7604 20.2747 12.1191 19.5538 11.4523C18.0466 10.0583 17.2099 8.63346 16.8451 7.90805C16.1252 6.47602 15.87 5.22395 15.5998 3.89846C15.3639 2.7408 15.2139 1.55884 15.1541 0.385718L17.4768 0.267578C17.5311 1.32532 17.6662 2.39134 17.8794 3.43639C18.1385 4.70833 18.3434 5.71252 18.9248 6.86908C19.1617 7.33999 19.8511 8.56445 21.1357 9.75193C21.7303 10.3018 23.3942 11.6565 25.9927 12.3582C27.0365 12.6403 28.1167 12.7833 29.2036 12.7833C29.2053 12.7833 29.207 12.7833 29.2086 12.7833L29.2097 15.1019C29.207 15.1025 29.2047 15.1025 29.2031 15.1025Z" fill="#7F9681"/>
</svg>
