<svg width="75" height="75" fill="none" xmlns="http://www.w3.org/2000/svg"><path d="M57.01 14.537a1 1 0 01-.826-.434 19.494 19.494 0 00-1.8-2.243 1 1 0 011.462-1.364 21.386 21.386 0 011.982 2.476 1 1 0 01-.823 1.566h.004zm-7.201 40.851h-23.96a1 1 0 01-1-1v-.44c0-4.813-1.541-6.612-4.609-10.2-.337-.393-.689-.8-1.056-1.24a24.442 24.442 0 01-5.725-15.69 24.366 24.366 0 0125.7-24.33 23.85 23.85 0 0110.416 3.015 1 1 0 01-.973 1.747 21.876 21.876 0 00-9.546-2.765 22.366 22.366 0 00-23.597 22.332 22.435 22.435 0 005.256 14.407c.362.43.711.838 1.044 1.227 2.96 3.456 4.95 5.78 5.083 10.937h21.987c.219-5.332 2.239-7.672 5.745-11.734l.208-.24a22.282 22.282 0 005.129-11.056 1 1 0 111.976.311 24.286 24.286 0 01-5.59 12.046l-.209.242c-3.625 4.2-5.279 6.115-5.279 11.426a1.001 1.001 0 01-1 1.005zm11.028-31.681a1 1 0 01-.984-.82c-.17-.936-.4-1.86-.689-2.765a1 1 0 011.907-.608c.314.987.565 1.995.75 3.015a1 1 0 01-.984 1.178z" fill="#000"/><path d="M51.84 62.735H23.818a2.123 2.123 0 01-2.12-2.12v-5.106a2.123 2.123 0 012.12-2.121H51.84a2.123 2.123 0 012.121 2.12v5.107a2.123 2.123 0 01-2.12 2.12zm-28.022-7.347a.121.121 0 00-.12.12v5.107a.12.12 0 00.12.12H51.84a.121.121 0 00.121-.12v-5.106a.121.121 0 00-.12-.121H23.817z" fill="#000"/><path d="M44.086 72.457H31.57a3.5 3.5 0 01-3.5-3.5v-7.223a1 1 0 011-1h17.515a1 1 0 011 1v7.223a3.5 3.5 0 01-3.499 3.5zm-14.015-9.723v6.223a1.5 1.5 0 001.5 1.5h12.515a1.5 1.5 0 001.5-1.5v-6.223H30.071z" fill="#000"/><path d="M29.075 67.219h-5.257a1 1 0 110-2h5.257a1 1 0 010 2zm22.764 0h-5.257a1 1 0 110-2h5.257a1 1 0 010 2zM44.304 32.98a1 1 0 01-.707-1.706l4.816-4.817-4.816-4.816a1 1 0 011.414-1.413l5.523 5.522a1 1 0 010 1.415l-5.523 5.523a1 1 0 01-.707.292zm-12.954 0a1 1 0 01-.706-.292l-5.523-5.524a1 1 0 010-1.414l5.523-5.523a1 1 0 011.414 1.415l-4.816 4.816 4.816 4.816a1 1 0 01-.707 1.706zm4.339 4.478a1.008 1.008 0 01-.569-.177.998.998 0 01-.41-1.033l4.282-20.007a1.001 1.001 0 011.956.419l-4.282 20.01a1 1 0 01-.977.788z" fill="#000"/></svg>