<svg width="38" height="37" fill="none" xmlns="http://www.w3.org/2000/svg"><path d="M7.65 35.115h2.313c.153 0 .3-.059.409-.165a.555.555 0 00.169-.397V18.069a20.85 20.85 0 018.672-1.116v1.055c0 .113.035.224.101.318.067.094.16.166.27.207a22.032 22.032 0 0015.446 0 .575.575 0 00.269-.207.552.552 0 00.101-.319V5.632a.55.55 0 00-.25-.463.588.588 0 00-.535-.062 20.983 20.983 0 01-9.043 1.248V5.303a.552.552 0 00-.101-.319.575.575 0 00-.27-.206 22.034 22.034 0 00-14.837-.217 1.713 1.713 0 00-.813-.781 1.778 1.778 0 00-1.136-.12 1.74 1.74 0 00-.966.593 1.659 1.659 0 00-.377 1.05v29.25c0 .149.061.292.17.398a.586.586 0 00.408.164zm10.407-19.352v-5.062c2.17.061 4.318.46 6.359 1.18v4.994a22.028 22.028 0 00-6.36-1.112zM16.9 9.576a22.048 22.048 0 00-6.359 1.113V5.693a20.843 20.843 0 016.36-1.179v5.062zm-6.359 2.305a20.848 20.848 0 016.36-1.18v5.063a21.98 21.98 0 00-6.36 1.112V11.88zm9.828 5.201c1.511.212 2.993.588 4.418 1.12a.592.592 0 00.535-.06.568.568 0 00.25-.464V13.34c.385.03.77.05 1.157.06v5.395a20.848 20.848 0 01-6.36-1.179v-.535zm7.516 1.714V13.4a22.198 22.198 0 006.36-1.11v5.327a20.848 20.848 0 01-6.36 1.18zm6.36-7.697a20.974 20.974 0 01-6.36 1.177V7.542a22.191 22.191 0 006.36-1.108V11.1zm-7.516-3.556v4.734c-.386-.01-.772-.032-1.157-.064v-4.73c.385.03.77.05 1.157.06zm-2.313 3.146a22.032 22.032 0 00-6.36-1.113V4.514a20.83 20.83 0 016.36 1.179v4.996zM8.229 5.303c0-.15.06-.293.169-.398a.586.586 0 01.817 0c.109.105.17.249.17.398V33.99H8.229V5.303z" fill="#fff"/></svg>