<svg width="38" height="38" fill="none" xmlns="http://www.w3.org/2000/svg"><g clip-path="url(#clip0)" fill="#fff"><path d="M36.572 7.1a.578.578 0 00.578-.579V1.896a.578.578 0 00-.578-.578h-4.625a.578.578 0 00-.578.578v1.735H7.088V1.896a.578.578 0 00-.578-.578H1.885a.578.578 0 00-.578.578v4.625a.578.578 0 00.578.579h1.734v24.28H1.885a.578.578 0 00-.578.579v4.625a.578.578 0 00.578.578H6.51a.578.578 0 00.578-.578V34.85h24.281v1.734a.578.578 0 00.578.578h4.625a.578.578 0 00.578-.578v-4.625a.578.578 0 00-.578-.578h-1.734V7.1h1.734zM2.462 5.943V2.475h3.47v3.468h-3.47zm3.47 30.063h-3.47v-3.469h3.47v3.469zm25.437-4.047v1.734H7.088V31.96a.578.578 0 00-.578-.578H4.775V7.1H6.51a.578.578 0 00.578-.579V4.787h24.281v1.734a.578.578 0 00.578.579h1.735v24.28h-1.735a.578.578 0 00-.578.579zm4.625.578v3.469h-3.469v-3.469h3.47zM32.525 5.943V2.475h3.47v3.468h-3.47z"/><path d="M26.166 10.568H12.291a.578.578 0 00-.578.579v4.624a.578.578 0 00.578.579h1.084a.578.578 0 00.556-.422l.532-1.89h3.031v11.11l-1.874.469a.578.578 0 00-.438.56v1.157a.578.578 0 00.578.578h6.937a.578.578 0 00.578-.578v-1.156a.578.578 0 00-.438-.561l-1.874-.47v-11.11h3.03l.533 1.891a.578.578 0 00.556.422h1.084a.578.578 0 00.578-.579v-4.625a.578.578 0 00-.578-.578zm-.578 4.625h-.068l-.532-1.89a.578.578 0 00-.556-.422h-4.047a.578.578 0 00-.578.578v12.14a.579.579 0 00.438.561l1.874.47v.126h-5.781v-.127l1.874-.469a.578.578 0 00.438-.56V13.459a.578.578 0 00-.578-.578h-4.047a.578.578 0 00-.556.421l-.532 1.891h-.068v-3.468h12.719v3.468zm1.156 13.875H11.713a.578.578 0 100 1.157h15.031a.578.578 0 100-1.157zm-5.203 1.735h-4.625a.578.578 0 100 1.156h4.625a.578.578 0 100-1.156z"/></g><defs><clipPath id="clip0"><path fill="#fff" transform="translate(.729 .74)" d="M0 0h37v37H0z"/></clipPath></defs></svg>