<svg width="191" height="45" fill="none" xmlns="http://www.w3.org/2000/svg"><path d="M1.19 22.384h2.186v-8.137h6.843l3.941 8.137h2.514l-4.224-8.672c1.2-.486 2.122-1.275 2.767-2.365.644-1.091.966-2.336.966-3.734 0-1.676-.45-3.119-1.353-4.329-.903-1.21-2.192-1.943-3.868-2.201a5.528 5.528 0 00-.803-.09c-.258-.02-.49-.03-.7-.03H1.19v21.42zm2.186-10.22V3.062H9.4c.179 0 .387.01.625.03.248.01.481.04.7.09 1.1.237 1.908.788 2.424 1.65a5.2 5.2 0 01.788 2.782 5.25 5.25 0 01-.788 2.782c-.516.862-1.324 1.408-2.425 1.636-.218.05-.45.084-.699.104-.238.02-.446.03-.625.03H3.376zm22.376 10.22h2.202v-8.97L35.109.964h-2.53l-5.726 9.951L21.096.964h-2.528l7.184 12.45v8.97zm12.47 0h2.098V5.843l7.616 16.54h1.413l7.63-16.54v16.526h2.083V.964h-2.038L48.65 18.977 40.23.964h-2.008v21.42zm34.728.446c2.49 0 4.522-.635 6.099-1.904 1.576-1.28 2.657-2.99 3.242-5.132l-2.23-.58c-.457 1.686-1.275 3.03-2.455 4.031-1.18.992-2.732 1.488-4.656 1.488-1.676 0-3.08-.382-4.21-1.146-1.12-.773-1.963-1.84-2.528-3.198-.556-1.358-.828-2.93-.818-4.715.02-1.785.307-3.357.862-4.716.556-1.368 1.389-2.434 2.5-3.198 1.12-.763 2.518-1.145 4.194-1.145 1.924 0 3.476.5 4.656 1.502 1.18.992 1.998 2.33 2.454 4.017l2.231-.58c-.584-2.143-1.665-3.848-3.242-5.118C77.472 1.157 75.439.518 72.95.518c-2.132 0-3.932.47-5.4 1.413-1.467.942-2.578 2.25-3.332 3.927-.753 1.676-1.13 3.614-1.13 5.816 0 2.191.377 4.13 1.13 5.816.754 1.676 1.865 2.985 3.332 3.927 1.468.942 3.268 1.413 5.4 1.413zm13.665-.446H88.8v-9.669h11.841v9.669h2.172V.964h-2.172v9.654h-11.84V.964h-2.187v21.42zm21.407 0h13.387v-2.098h-11.2v-7.72h9.415V10.47h-9.415V3.06h11.2V.964h-13.387v21.42zm18.008 0h2.202V4.816l11.795 17.568h2.202V.964h-2.202v17.552L128.232.964h-2.202v21.42zm49.395 0h2.187v-10.71l10.532 10.71h2.855L180.2 11.302 190.181.964h-2.796l-9.773 10.115V.964h-2.187v21.42zM4.07 35.745H.75v-.583h7.311v.583h-3.32v8.29H4.07v-8.29zm14.168 8.29l-2.2-2.966a6.995 6.995 0 01-.896.063h-2.635v2.903h-.672v-8.873h3.307c1.159 0 2.068.266 2.727.799.658.523.988 1.255.988 2.193 0 .701-.19 1.292-.567 1.774-.369.473-.9.807-1.594 1.002l2.306 3.105h-.764zm-3.096-3.473c.983 0 1.734-.207 2.252-.621.519-.423.778-1.018.778-1.787 0-.77-.26-1.361-.778-1.775-.518-.423-1.269-.634-2.252-.634h-2.635v4.817h2.635zm13.986.976H23.78l-1.172 2.497h-.725l4.242-8.873h.672l4.241 8.873h-.724l-1.186-2.497zm-.25-.545l-2.424-5.121-2.41 5.121h4.834zm13.452-5.831v8.873h-.554l-6.284-7.707v7.707h-.672v-8.873h.567l6.27 7.707v-7.707h.672zm7.751 8.937a5.71 5.71 0 01-1.936-.33c-.606-.228-1.08-.52-1.423-.875l.303-.481c.325.33.76.6 1.304.811a5.013 5.013 0 001.739.304c.878 0 1.541-.16 1.99-.481.447-.322.671-.74.671-1.255 0-.398-.118-.715-.356-.951a2.366 2.366 0 00-.882-.545 12.507 12.507 0 00-1.423-.393 14.72 14.72 0 01-1.633-.47 2.693 2.693 0 01-1.041-.696c-.281-.322-.422-.748-.422-1.28 0-.432.119-.825.356-1.18.237-.363.597-.65 1.08-.861.492-.212 1.102-.317 1.831-.317.51 0 1.01.072 1.502.215.492.144.918.338 1.278.583l-.25.52a4.33 4.33 0 00-1.226-.558 4.683 4.683 0 00-1.304-.19c-.852 0-1.497.165-1.936.494-.44.33-.659.757-.659 1.28 0 .398.119.715.356.951.237.237.531.419.882.546.352.126.83.261 1.436.405.677.16 1.217.317 1.62.47a2.57 2.57 0 011.028.696c.29.304.435.719.435 1.243 0 .43-.123.824-.369 1.178-.237.355-.606.639-1.106.85-.501.211-1.116.317-1.845.317zm7.712-8.937h.672v8.29h5.308v.583h-5.98v-8.873zm15.53 6.376h-5.348l-1.172 2.497h-.725l4.242-8.873h.672l4.242 8.873h-.725l-1.186-2.497zm-.25-.545l-2.424-5.121-2.41 5.121h4.834zm7.244-5.248h-3.32v-.583h7.312v.583h-3.32v8.29h-.672v-8.29zm7.766-.583h.672v8.873h-.672v-8.873zm9.905 8.937c-.904 0-1.721-.195-2.45-.583a4.532 4.532 0 01-1.726-1.623 4.357 4.357 0 01-.619-2.294c0-.845.207-1.61.62-2.295a4.439 4.439 0 011.725-1.61c.729-.397 1.546-.595 2.45-.595.905 0 1.722.194 2.451.583a4.343 4.343 0 011.712 1.61c.422.684.632 1.453.632 2.307 0 .853-.21 1.622-.632 2.307a4.342 4.342 0 01-1.712 1.61c-.73.388-1.546.583-2.45.583zm0-.596c.773 0 1.471-.17 2.095-.507a3.831 3.831 0 001.475-1.395c.36-.6.54-1.267.54-2.002 0-.736-.18-1.399-.54-1.99a3.803 3.803 0 00-1.475-1.408c-.624-.338-1.322-.507-2.095-.507a4.4 4.4 0 00-2.107.507 3.8 3.8 0 00-1.476 1.407 3.752 3.752 0 00-.54 1.99c0 .736.18 1.403.54 2.003a3.83 3.83 0 001.476 1.395 4.4 4.4 0 002.107.507zm16.742-8.341v8.873h-.553l-6.284-7.707v7.707h-.672v-8.873h.567l6.271 7.707v-7.707h.671zm16.524 6.376h-5.349l-1.172 2.497h-.725l4.242-8.873h.672l4.242 8.873h-.725l-1.185-2.497zm-.251-.545l-2.423-5.121-2.411 5.121h4.834zm12.401-1.356h.645v3.32a4.048 4.048 0 01-1.475.85 5.605 5.605 0 01-1.818.292c-.913 0-1.739-.195-2.477-.583a4.432 4.432 0 01-1.725-1.61c-.413-.685-.62-1.454-.62-2.307 0-.854.207-1.623.62-2.307a4.433 4.433 0 011.725-1.61c.738-.389 1.568-.583 2.49-.583a5.25 5.25 0 011.858.317c.57.202 1.058.502 1.462.9l-.422.43a3.42 3.42 0 00-1.304-.798 4.682 4.682 0 00-1.581-.254c-.79 0-1.506.17-2.147.507a3.78 3.78 0 00-1.489 1.407 3.752 3.752 0 00-.54 1.99c0 .727.18 1.39.54 1.99.369.592.87 1.061 1.502 1.408.632.338 1.344.507 2.134.507 1.054 0 1.928-.27 2.622-.811v-3.055zm12.072 3.815v.583h-6.362v-8.873h6.165v.583h-5.493v3.499h4.913v.57h-4.913v3.638h5.69zm12.067-8.29v8.873h-.554l-6.283-7.707v7.707h-.672v-8.873h.566l6.271 7.707v-7.707h.672zm9.227 8.937c-.905 0-1.721-.195-2.45-.583a4.468 4.468 0 01-1.713-1.61c-.413-.685-.619-1.454-.619-2.307 0-.854.206-1.623.619-2.307a4.469 4.469 0 011.713-1.61c.729-.389 1.545-.583 2.45-.583a5.2 5.2 0 011.844.317 3.75 3.75 0 011.436.912l-.421.418c-.738-.7-1.682-1.052-2.833-1.052a4.41 4.41 0 00-2.107.507 3.773 3.773 0 00-1.489 1.407 3.752 3.752 0 00-.54 1.99c0 .736.18 1.403.54 2.003a3.8 3.8 0 001.489 1.395 4.398 4.398 0 002.107.507c1.142 0 2.086-.355 2.833-1.065l.421.418a3.858 3.858 0 01-1.449.926 5.16 5.16 0 01-1.831.317zm10.265-3.119v3.055h-.672V40.98l-3.715-5.818h.738l3.333 5.223 3.333-5.223h.698l-3.715 5.818z" fill="#fff"/><g clip-path="url(#clip0_760:1181)"><path d="M166.695 3.338a11.084 11.084 0 00-7.889-3.267c-2.979 0-5.781 1.16-7.888 3.267a11.084 11.084 0 00-3.268 7.89c0 2.98 1.161 5.78 3.268 7.888a11.082 11.082 0 007.888 3.267c2.98 0 5.782-1.16 7.889-3.267a11.084 11.084 0 003.268-7.889c0-2.98-1.161-5.781-3.268-7.889zm-.923.923a9.935 9.935 0 011.524 1.961h-4.337a16.807 16.807 0 00-.739-2.653c-.279-.74-.597-1.369-.946-1.883a9.791 9.791 0 014.498 2.575zm-3.654 6.966c0 1.266-.085 2.495-.249 3.64h-6.125a25.822 25.822 0 01-.249-3.64c0-1.288.088-2.538.258-3.7h6.107a25.73 25.73 0 01.258 3.7zm-3.312-9.851c.746 0 1.566.992 2.193 2.654.249.66.46 1.398.629 2.192h-5.643c.169-.794.379-1.531.629-2.192.627-1.662 1.447-2.654 2.192-2.654zm-6.965 2.885a9.791 9.791 0 014.498-2.575c-.349.514-.667 1.144-.946 1.883-.3.795-.548 1.69-.739 2.653h-4.337a9.899 9.899 0 011.524-1.96zm-2.886 6.966c0-1.289.247-2.54.716-3.7h4.764a27.327 27.327 0 00-.246 3.7c0 1.258.082 2.485.238 3.64h-4.78a9.838 9.838 0 01-.692-3.64zm2.886 6.966a9.904 9.904 0 01-1.559-2.021h4.36c.193.987.444 1.901.751 2.713.279.74.597 1.369.946 1.883a9.791 9.791 0 01-4.498-2.575zm6.965 2.885c-.745 0-1.565-.992-2.192-2.654a15.205 15.205 0 01-.641-2.252h5.667a15.212 15.212 0 01-.641 2.252c-.627 1.662-1.447 2.654-2.193 2.654zm6.966-2.885a9.79 9.79 0 01-4.498 2.575c.349-.514.667-1.144.946-1.883.306-.812.558-1.726.751-2.713h4.36a9.91 9.91 0 01-1.559 2.02zm-2.586-3.327c.156-1.154.237-2.381.237-3.639 0-1.28-.084-2.528-.246-3.7h4.765a9.85 9.85 0 01.716 3.7 9.86 9.86 0 01-.692 3.64h-4.78z" fill="#F87A0B"/></g><defs><clipPath id="clip0_760:1181"><path fill="#fff" transform="translate(147.65 .07)" d="M0 0h22.313v22.313H0z"/></clipPath></defs></svg>