<svg width="62" height="12" viewBox="0 0 62 12" fill="none" xmlns="http://www.w3.org/2000/svg">
<g clip-path="url(#clip0)">
<path d="M61.9828 5.12171C61.9414 5.00503 61.8314 4.92001 61.699 4.90237L57.979 4.40684L56.3153 1.31681C56.256 1.20681 56.1338 1.13718 56 1.13718C55.8662 1.13718 55.744 1.20683 55.6848 1.31681L54.021 4.40686L50.301 4.90237C50.1686 4.92001 50.0586 5.00505 50.0172 5.12171C49.9759 5.23837 50.0104 5.36644 50.1062 5.45205L52.7979 7.85733L52.1626 11.2536C52.14 11.3745 52.1942 11.4967 52.3024 11.5688C52.4107 11.6409 52.5542 11.6504 52.6727 11.5934L56 9.98985L59.3272 11.5934C59.3786 11.6182 59.4348 11.6304 59.4908 11.6304C59.5637 11.6304 59.6362 11.6096 59.6974 11.5688C59.8057 11.4967 59.8599 11.3746 59.8373 11.2536L59.2018 7.85733L61.8938 5.45207C61.9896 5.36644 62.0241 5.23837 61.9828 5.12171ZM58.5786 7.51403C58.4958 7.58807 58.4579 7.69476 58.4775 7.7993L59.0239 10.719L56.1636 9.34051C56.0612 9.29116 55.9388 9.29116 55.8364 9.34051L52.976 10.719L53.5222 7.79928C53.5417 7.69474 53.5039 7.58809 53.4211 7.51406L51.1071 5.44632L54.305 5.0203C54.4195 5.00505 54.5185 4.93913 54.5697 4.84402L56 2.18757L57.4302 4.844C57.4814 4.93911 57.5804 5.00505 57.6949 5.0203L60.8929 5.44629L58.5786 7.51403Z" fill="#CCA75D"/>
</g>
<path d="M10.056 5.23655C10.0215 5.13048 9.92984 5.05317 9.81949 5.03716L6.71945 4.58667L5.33302 1.77756C5.28369 1.67756 5.18183 1.61426 5.07033 1.61426C4.95881 1.61426 4.85697 1.67756 4.80762 1.77756L3.42114 4.58667L0.321149 5.03716C0.210817 5.05317 0.119118 5.13048 0.0846653 5.23653C0.0501928 5.34261 0.0789427 5.45903 0.158806 5.53686L2.40192 7.72346L1.87247 10.811C1.8536 10.9209 1.8988 11.032 1.98901 11.0975C2.04005 11.1346 2.1005 11.1535 2.16124 11.1535C2.20788 11.1535 2.25468 11.1424 2.29753 11.1198L5.07031 9.66206L7.84298 11.1198C7.94171 11.1717 8.0613 11.1631 8.15151 11.0975C8.24172 11.032 8.28694 10.9209 8.26809 10.811L7.73846 7.72346L9.98183 5.53684C10.0617 5.45903 10.0904 5.3426 10.056 5.23655Z" fill="#CCA75D"/>
<path d="M22.5384 5.23655C22.5039 5.13048 22.4123 5.05317 22.3019 5.03716L19.2019 4.58667L17.8154 1.77756C17.7661 1.67756 17.6643 1.61426 17.5528 1.61426C17.4412 1.61426 17.3394 1.67756 17.29 1.77756L15.9036 4.58667L12.8036 5.03716C12.6932 5.05317 12.6015 5.13048 12.5671 5.23653C12.5326 5.34261 12.5614 5.45903 12.6412 5.53686L14.8843 7.72346L14.3549 10.811C14.336 10.9209 14.3812 11.032 14.4714 11.0975C14.5225 11.1346 14.5829 11.1535 14.6437 11.1535C14.6903 11.1535 14.7371 11.1424 14.7799 11.1198L17.5527 9.66206L20.3254 11.1198C20.4241 11.1717 20.5437 11.1631 20.6339 11.0975C20.7241 11.032 20.7694 10.9209 20.7505 10.811L20.2209 7.72346L22.4643 5.53684C22.5441 5.45903 22.5729 5.3426 22.5384 5.23655Z" fill="#CCA75D"/>
<path d="M35.0208 5.23655C34.9863 5.13048 34.8947 5.05317 34.7843 5.03716L31.6843 4.58667L30.2979 1.77756C30.2485 1.67756 30.1467 1.61426 30.0352 1.61426C29.9237 1.61426 29.8218 1.67756 29.7725 1.77756L28.386 4.58667L25.286 5.03716C25.1757 5.05317 25.084 5.13048 25.0495 5.23653C25.015 5.34261 25.0438 5.45903 25.1236 5.53686L27.3668 7.72346L26.8373 10.811C26.8184 10.9209 26.8636 11.032 26.9539 11.0975C27.0049 11.1346 27.0653 11.1535 27.1261 11.1535C27.1727 11.1535 27.2195 11.1424 27.2624 11.1198L30.0352 9.66206L32.8078 11.1198C32.9065 11.1717 33.0261 11.1631 33.1164 11.0975C33.2066 11.032 33.2518 10.9209 33.2329 10.811L32.7033 7.72346L34.9467 5.53684C35.0265 5.45903 35.0553 5.3426 35.0208 5.23655Z" fill="#CCA75D"/>
<path d="M47.5032 5.23655C47.4688 5.13048 47.3771 5.05317 47.2668 5.03716L44.1667 4.58667L42.7803 1.77756C42.731 1.67756 42.6291 1.61426 42.5176 1.61426C42.4061 1.61426 42.3042 1.67756 42.2549 1.77756L40.8684 4.58667L37.7684 5.03716C37.6581 5.05317 37.5664 5.13048 37.5319 5.23653C37.4975 5.34261 37.5262 5.45903 37.6061 5.53686L39.8492 7.72346L39.3197 10.811C39.3009 10.9209 39.3461 11.032 39.4363 11.0975C39.4873 11.1346 39.5478 11.1535 39.6085 11.1535C39.6551 11.1535 39.7019 11.1424 39.7448 11.1198L42.5176 9.66206L45.2902 11.1198C45.389 11.1717 45.5086 11.1631 45.5988 11.0975C45.689 11.032 45.7342 10.9209 45.7154 10.811L45.1857 7.72346L47.4291 5.53684C47.5089 5.45903 47.5377 5.3426 47.5032 5.23655Z" fill="#CCA75D"/>
<defs>
<clipPath id="clip0">
<rect width="12" height="11" fill="white" transform="translate(50 0.883789)"/>
</clipPath>
</defs>
</svg>
