<svg width="40" height="26" viewBox="0 0 40 26"  xmlns="http://www.w3.org/2000/svg">
<path d="M39.7458 11.9692C39.3884 11.4804 30.8741 0 19.9998 0C9.12549 0 0.610782 11.4804 0.253829 11.9688C-0.0846095 12.4325 -0.0846095 13.0615 0.253829 13.5253C0.610782 14.0141 9.12549 25.4945 19.9998 25.4945C30.8741 25.4945 39.3884 14.014 39.7458 13.5257C40.0847 13.062 40.0847 12.4325 39.7458 11.9692ZM19.9998 22.8572C11.9897 22.8572 5.05212 15.2374 2.99844 12.7464C5.04946 10.2531 11.9725 2.63735 19.9998 2.63735C28.0095 2.63735 34.9466 10.2558 37.0012 12.7481C34.9501 15.2413 28.0271 22.8572 19.9998 22.8572Z" fill="#F7B802"/>
<path d="M20 4.83521C15.6373 4.83521 12.0879 8.38466 12.0879 12.7473C12.0879 17.11 15.6373 20.6595 20 20.6595C24.3627 20.6595 27.9121 17.11 27.9121 12.7473C27.9121 8.38466 24.3627 4.83521 20 4.83521ZM20 18.022C17.0914 18.022 14.7253 15.6559 14.7253 12.7473C14.7253 9.83881 17.0915 7.47263 20 7.47263C22.9085 7.47263 25.2747 9.83881 25.2747 12.7473C25.2747 15.6559 22.9086 18.022 20 18.022Z" fill="#F7B802"/>
</svg>
