<svg width="26" height="26" viewBox="0 0 26 26"  xmlns="http://www.w3.org/2000/svg">
<g clip-path="url(#clip0)">
<path d="M25.2139 23.8704L18.1606 16.8171C21.3742 12.9072 21.1555 7.10304 17.5038 3.45138C13.6191 -0.433337 7.29826 -0.433337 3.41354 3.45138C-0.471179 7.3361 -0.471179 13.6569 3.41354 17.5417C7.06422 21.1923 12.8676 21.4134 16.7793 18.1985L23.8326 25.2518C24.214 25.6332 24.8324 25.6332 25.2139 25.2518C25.5954 24.8703 25.5954 24.2519 25.2139 23.8704ZM16.1225 16.1603C12.9995 19.2834 7.91793 19.2833 4.79489 16.1603C1.67184 13.0373 1.67184 7.95573 4.79489 4.83268C7.91784 1.70978 12.9994 1.70953 16.1225 4.83268C19.2456 7.95573 19.2456 13.0373 16.1225 16.1603Z" />
</g>
<defs>
<clipPath id="clip0">
<rect width="25" height="25"  transform="translate(0.5 0.538086)"/>
</clipPath>
</defs>
</svg>
