<svg width="40" height="26" viewBox="0 0 40 26"  xmlns="http://www.w3.org/2000/svg">
<path fill-rule="evenodd" clip-rule="evenodd" d="M0.387395 12.4554C0.278008 12.5893 0.188513 12.7011 0.119876 12.7879C-0.101842 12.9577 -0.101704 12.9579 -0.101555 12.9581L-0.100922 12.9589L-0.0990272 12.9614L-0.0927354 12.9695L-0.07022 12.9986C-0.0508268 13.0235 -0.022704 13.0594 0.0139005 13.1055C0.0871032 13.1978 0.194268 13.3311 0.33341 13.4996C0.611622 13.8365 1.01811 14.3147 1.53699 14.8869C2.57356 16.0302 4.06485 17.5561 5.88377 19.0846C9.48343 22.1095 14.5348 25.2881 19.9726 25.2881C25.4126 25.2881 30.42 22.1074 33.9766 19.0805C35.7736 17.5512 37.2427 16.0246 38.2626 14.8808C38.7732 14.3082 39.1727 13.8298 39.4461 13.4926C39.5828 13.324 39.688 13.1906 39.7599 13.0982C39.7777 13.0754 39.7934 13.0551 39.8071 13.0373C39.8211 13.0192 39.8329 13.0037 39.8426 12.9911L39.8647 12.962L39.8709 12.9538L39.8728 12.9513L39.8734 12.9505C39.8736 12.9503 39.8737 12.9501 39.6386 12.7736C39.5736 12.6901 39.4914 12.5856 39.3926 12.4624C39.1209 12.1235 38.7237 11.6427 38.216 11.0672C37.2018 9.91756 35.7401 8.38311 33.9506 6.84594C30.4089 3.80374 25.4155 0.605591 19.973 0.605591C14.5328 0.605591 9.49533 3.80161 5.91051 6.84185C4.09896 8.37819 2.61511 9.91188 1.58417 11.0609C1.06809 11.6362 0.663954 12.1167 0.387395 12.4554ZM36.7163 12.3903C36.911 12.6111 37.0884 12.8168 37.2474 13.0046C37.1023 13.1733 36.9429 13.3557 36.7699 13.5497C35.7938 14.6443 34.3903 16.1022 32.6804 17.5575C29.2232 20.4997 24.68 23.2881 19.9726 23.2881C15.2628 23.2881 10.6741 20.4976 7.17045 17.5534C5.43773 16.0974 4.0116 14.6387 3.01865 13.5436C2.84478 13.3518 2.68438 13.1714 2.53814 13.0043C2.69852 12.8183 2.87708 12.6148 3.07282 12.3966C4.06022 11.296 5.47891 9.83028 7.20411 8.36717C10.6928 5.40849 15.2657 2.60559 19.973 2.60559C24.6779 2.60559 29.2052 5.40636 32.6474 8.36308C34.3497 9.82537 35.7458 11.2904 36.7163 12.3903ZM25.6821 13C25.6821 16.138 23.1383 18.6819 20.0003 18.6819C16.8622 18.6819 14.3184 16.138 14.3184 13C14.3184 9.86199 16.8622 7.31812 20.0003 7.31812C23.1383 7.31812 25.6821 9.86199 25.6821 13ZM27.6821 13C27.6821 17.2426 24.2428 20.6819 20.0003 20.6819C15.7577 20.6819 12.3184 17.2426 12.3184 13C12.3184 8.75742 15.7577 5.31812 20.0003 5.31812C24.2428 5.31812 27.6821 8.75742 27.6821 13Z" fill="#F7B802"/>
</svg>
