<?xml version="1.0" encoding="utf-8"?><svg viewBox="0 0 64 64" xmlns="http://www.w3.org/2000/svg" xmlns:xlink="http://www.w3.org/1999/xlink"><style>:root>svg{display:none}:root>svg:target{display:block}</style><svg fill="none" viewBox="0 0 18 18" id="icon-location" xmlns="http://www.w3.org/2000/svg"><path d="M9 0a6.757 6.757 0 00-6.75 6.75c0 4.679 6.093 10.826 6.352 11.086a.565.565 0 00.796 0c.259-.26 6.352-6.407 6.352-11.086A6.757 6.757 0 009 0zm0 16.624c-1.343-1.438-5.625-6.3-5.625-9.874A5.631 5.631 0 019 1.125a5.631 5.631 0 015.625 5.625c0 3.57-4.282 8.436-5.625 9.874z" fill="#00FFB7"/><path d="M9 3.375A3.38 3.38 0 005.625 6.75 3.38 3.38 0 009 10.125a3.38 3.38 0 003.375-3.375A3.38 3.38 0 009 3.375zM9 9C7.76 9 6.75 7.99 6.75 6.75S7.76 4.5 9 4.5s2.25 1.01 2.25 2.25S10.24 9 9 9z" fill="#00FFB7"/></svg><svg fill="none" viewBox="0 0 18 18" id="icon-mail" xmlns="http://www.w3.org/2000/svg"><path d="M17.988 3.877a.552.552 0 00-.023-.113c-.088-.535-.53-.951-1.09-.951H1.125c-.56 0-1.002.416-1.09.951a.554.554 0 00-.023.113c0 .021-.012.04-.012.06v10.126c0 .02.011.04.012.061.005.039.01.075.023.112.086.534.53.951 1.09.951h15.75c.56 0 1.003-.417 1.09-.952a.541.541 0 00.023-.112c0-.02.012-.04.012-.06V3.937c0-.02-.011-.039-.012-.06zm-1.502.06l-6.244 4.58L9 9.426l-1.24-.91h-.002l-6.244-4.58h14.972zM1.125 5.048l5.391 3.954-5.391 3.952V5.048zm.39 9.015L7.467 9.7l1.199.88a.56.56 0 00.666 0l1.2-.88 5.953 4.364H1.514zm15.36-1.109l-5.391-3.952 5.391-3.953v7.905z" fill="#00FFB7"/></svg><svg fill="none" viewBox="0 0 24 24" id="icon-phone_header" xmlns="http://www.w3.org/2000/svg"><path d="M2.6 1.076a3.655 3.655 0 00-.206.262C1.26 2.842-.096 5.155.005 7.387c.173 3.738 5.217 8.705 6.759 10.139 1.543 1.433 6.865 6.1 10.602 6a6.3 6.3 0 001.961-.39c1.566-.562 2.98-1.63 3.877-2.415 0 0 .194-.165.268-.244.188-.203.337-.499.455-.904.06-.208.073-.426.073-.573 0-.163-.017-.479-.124-.766-.146-.393-.315-.675-.516-.864-.149-.138-3.518-2.778-3.54-2.793l-.025-.016a2.258 2.258 0 00-2.151-.349c-.327.117-.62.31-.848.555l-1.157 1.24c-.109.116-.31.236-.382.254a1.019 1.019 0 01-.16.018L7.325 9.06a.139.139 0 01-.033-.048l.01-.028c.029-.058.163-.242.33-.423L8.78 7.32a2.242 2.242 0 00.371-2.457c-.137-.282-.325-.492-.412-.592l-.046-.055C8.67 4.19 5.834 1.077 5.706.96 5.391.667 4.894.51 4.188.475c-.392-.018-.884.097-1.17.275a2.073 2.073 0 00-.417.326zm2.14.896c.16.161 2.741 2.989 2.876 3.137l.095.115c.039.044.13.146.183.254a.817.817 0 01-.14.893L6.607 7.613c-.134.144-.46.515-.59.824a1.48 1.48 0 00-.127.594c.014.398.183.769.48 1.048l7.849 7.294c.299.278.733.366 1.291.263.431-.08.899-.406 1.15-.675l1.16-1.242a.752.752 0 01.295-.191.871.871 0 01.603.009c.111.043.203.115.234.14a.915.915 0 00.073.05c.323.251 3.22 2.528 3.377 2.66 0 .001.069.078.165.336a.958.958 0 01.035.277c0 .096-.01.16-.018.182-.072.25-.132.337-.132.34-.046.044-.14.122-.155.136-.82.717-2.082 1.674-3.442 2.162a4.905 4.905 0 01-1.525.308c-2.553.069-6.775-2.988-9.614-5.627-2.84-2.638-6.197-6.626-6.314-9.178-.086-1.84 1.111-3.821 2.096-5.129l.038-.05c.022-.03.062-.086.082-.11.035-.033.087-.065.129-.091.062-.032.254-.077.374-.07.413.02.604.094.62.1z" fill="#00FFB7"/></svg><svg fill="none" viewBox="0 0 64 64" id="icon-quote" xmlns="http://www.w3.org/2000/svg"><path d="M0 32V59.43h27.429V32H9.143c0-10.082 8.203-18.285 18.286-18.285V4.572C12.304 4.572 0 16.875 0 32zM64 13.714V4.572C48.875 4.572 36.571 16.875 36.571 32V59.43H64V32H45.714c0-10.082 8.203-18.285 18.286-18.285z" fill="#1E6D57" fill-opacity=".5"/></svg><svg fill="none" viewBox="0 0 18 18" id="icon-tel" xmlns="http://www.w3.org/2000/svg"><path d="M1.95.807a2.74 2.74 0 00-.154.196C.945 2.131-.072 3.866.004 5.54c.13 2.803 3.912 6.529 5.069 7.604 1.157 1.075 5.149 4.576 7.951 4.5.468-.012.963-.11 1.471-.292 1.175-.421 2.235-1.222 2.908-1.812 0 0 .145-.123.201-.182.141-.152.253-.374.341-.679.045-.155.055-.32.055-.429 0-.122-.012-.36-.093-.575-.11-.295-.236-.506-.387-.648a286.796 286.796 0 00-2.654-2.094l-.02-.013a1.695 1.695 0 00-1.613-.262 1.61 1.61 0 00-.636.417l-.868.93a.84.84 0 01-.286.19.77.77 0 01-.12.014L5.493 6.794a.104.104 0 01-.024-.036l.008-.021c.02-.043.122-.181.247-.317l.86-.93c.454-.49.567-1.25.278-1.843-.103-.211-.245-.37-.31-.444l-.034-.041C6.502 3.142 4.375.808 4.28.72 4.044.5 3.672.381 3.142.356c-.294-.014-.663.073-.877.206-.138.086-.24.167-.314.245zm1.605.672c.12.12 2.056 2.242 2.157 2.353l.071.086a.918.918 0 01.137.19.613.613 0 01-.105.67l-.86.931c-.1.109-.345.387-.442.619a1.11 1.11 0 00-.095.445c.01.298.137.577.36.787l5.886 5.47c.224.208.55.274.969.197.323-.06.674-.304.862-.506l.87-.932a.564.564 0 01.221-.143.654.654 0 01.453.006.722.722 0 01.175.105c.021.017.039.029.055.039A456.66 456.66 0 0116.8 13.79s.052.059.124.252a.72.72 0 01.027.208c0 .072-.009.12-.014.136-.054.188-.1.253-.1.255-.033.034-.104.092-.116.102-.614.538-1.56 1.256-2.58 1.621a3.676 3.676 0 01-1.145.232c-1.914.052-5.08-2.241-7.21-4.22-2.13-1.979-4.648-4.97-4.736-6.884-.064-1.38.834-2.866 1.573-3.846l.028-.038c.016-.022.046-.064.062-.083.026-.024.065-.048.096-.068a.759.759 0 01.281-.053c.31.015.453.07.464.075z" fill="#00FFB7"/></svg></svg>