<svg width="58" height="58" fill="none" xmlns="http://www.w3.org/2000/svg"><path d="M56.3 0h-6.91c-.939 0-1.699.76-1.699 1.7v1.698H33.785C33.08 1.425 31.212 0 29 0s-4.08 1.425-4.785 3.398H10.31V1.7A1.7 1.7 0 008.609 0H1.7C.76 0 0 .76 0 1.7v6.796c0 .94.76 1.7 1.7 1.7h6.91c.939 0 1.699-.76 1.699-1.7V6.774h6.978C11.39 10.458 7.502 16.93 7.037 24.176 4.998 24.843 3.512 26.74 3.512 29a5.103 5.103 0 005.097 5.098A5.103 5.103 0 0013.707 29c0-2.168-1.366-4.012-3.278-4.747.58-8.08 6.217-14.89 14.06-16.833.848 1.64 2.54 2.775 4.511 2.775 1.97 0 3.663-1.135 4.512-2.775 7.842 1.943 13.48 8.753 14.06 16.833-1.913.735-3.279 2.579-3.279 4.747a5.103 5.103 0 005.098 5.098A5.103 5.103 0 0054.488 29c0-2.259-1.486-4.157-3.525-4.824-.465-7.247-4.353-13.695-10.25-17.38h6.978v1.7c0 .94.76 1.7 1.7 1.7h6.91c.939 0 1.699-.76 1.699-1.7V1.7c0-.94-.76-1.7-1.7-1.7zM40.56 55.892c-.889-2.72-3.45-4.802-6.462-4.802H23.902c-3.013 0-5.574 2.083-6.462 4.802-.343 1.049.549 2.108 1.652 2.108h19.816c1.103 0 1.995-1.059 1.652-2.108z" fill="#FC907E"/><path d="M44.008 34.854L30.699 14.892v16.12c1.974.704 3.399 2.572 3.399 4.785A5.103 5.103 0 0129 40.895a5.103 5.103 0 01-5.098-5.098c0-2.212 1.425-4.081 3.399-4.785v-16.12L13.993 34.854c-.45.674-.36 1.572.212 2.144 3.12 3.12 5.113 7.138 5.883 11.45a10.12 10.12 0 013.814-.757h10.196c1.35 0 2.634.277 3.814.756.77-4.311 2.764-8.33 5.883-11.449.573-.572.662-1.47.212-2.144z" fill="#FC907E"/><path d="M29 34.098a1.7 1.7 0 000 3.398 1.7 1.7 0 000-3.398z" fill="#FC907E"/></svg>