<svg width="58" height="58" fill="none" xmlns="http://www.w3.org/2000/svg"><g clip-path="url(#clip0)" fill="#44A59C"><path d="M22.27 16.766h6.127c1.077-2.236-.553-4.871-3.064-4.871-2.506 0-4.144 2.631-3.063 4.87z"/><path d="M25.334 8.496c4.329 0 7.576 4.016 6.636 8.27h8.657v-3.739c0-.625-.507-1.132-1.133-1.132h-2.286a12.23 12.23 0 00-1.076-2.594l1.618-1.618a1.133 1.133 0 000-1.602l-3.204-3.204a1.133 1.133 0 00-1.602 0l-1.618 1.618a12.271 12.271 0 00-2.594-1.076V1.133C28.732.507 28.225 0 27.6 0h-4.532c-.625 0-1.133.507-1.133 1.133v2.286c-.912.26-1.78.624-2.593 1.076l-1.618-1.618a1.133 1.133 0 00-1.602 0l-3.204 3.204a1.133 1.133 0 000 1.602l1.618 1.618a12.27 12.27 0 00-1.076 2.594h-2.286c-.626 0-1.133.507-1.133 1.132v3.739h8.66c-.944-4.265 2.313-8.27 6.633-8.27zm28.364 27.489l-6.669-9.972a20.153 20.153 0 00-1.208-5.849H5.259c-3.827 10.389 1.405 22.37 12.35 26.253v9.884a1.7 1.7 0 001.7 1.699H38.68a1.7 1.7 0 001.7-1.7v-8.722h4.984a1.7 1.7 0 001.699-1.7v-7.25h5.222c1.355 0 2.168-1.515 1.413-2.643z"/></g><defs><clipPath id="clip0"><path fill="#fff" d="M0 0h58v58H0z"/></clipPath></defs></svg>