<svg width="61" height="61" fill="none" xmlns="http://www.w3.org/2000/svg"><path d="M10.604 38.602a7.119 7.119 0 100-14.238 7.119 7.119 0 000 14.238zm39.555 0a7.119 7.119 0 100-14.238 7.119 7.119 0 000 14.238z" fill="#293F5B"/><path d="M45.559 39.71a17.766 17.766 0 012.812 9.614v7.149h10.842c.986 0 1.787-.8 1.787-1.788v-5.36c0-7.983-8.432-13.112-15.441-9.615zM0 49.46v5.225c0 .987.8 1.788 1.787 1.788H12.63v-7.149c0-3.54 1.035-6.844 2.818-9.624C8.321 36.187 0 41.454 0 49.46zm30.5-14.433c-7.896 0-14.297 6.401-14.297 14.297v7.149c0 .987.8 1.787 1.787 1.787h25.02c.987 0 1.787-.8 1.787-1.787v-7.149c0-7.896-6.401-14.297-14.297-14.297zM27.509 12.94c.698.697 1.83.698 2.527 0l7.149-7.149a1.787 1.787 0 00-2.528-2.527l-5.884 5.884-2.43-2.43a1.787 1.787 0 00-2.528 2.528l3.694 3.694z" fill="#293F5B"/><path d="M30.5 35.027a8.936 8.936 0 100-17.871 8.936 8.936 0 000 17.871z" fill="#293F5B"/></svg>