<svg width="475" height="174" viewBox="0 0 475 174" fill="none" xmlns="http://www.w3.org/2000/svg">
<path d="M1.26096 130.272C14.6949 113.503 30.5531 99.7762 46.8977 86.6469C73.0411 65.6464 100.587 47.0405 128.384 28.6875C141.01 20.3515 155.451 8.00496 169.674 2.00095C170.587 1.61554 172.132 0.740249 172.695 1.79279C174.95 6.00838 170.327 10.3495 168.306 14.0564C160.722 27.969 151.215 40.4929 141.93 52.8339C132.178 65.7966 122.049 78.3253 111.718 90.678C109.801 92.9701 107.82 95.1939 105.955 97.5413C103.78 100.279 100.785 102.933 106.566 101.214C114.219 98.9377 135.337 89.5094 139.117 87.8676C169.719 74.5757 200.191 60.983 230.71 47.5017C245.641 40.9061 260.522 33.4948 275.842 27.753C278.675 26.6914 282.117 25.9078 279.661 30.7594C270.924 48.0126 255.394 59.3627 246.237 76.3107C242.842 82.5949 264.514 77.1696 265.856 77.0306C274.569 76.1286 280.747 78.4844 283.891 88.9632C285.347 93.8157 282.979 101.466 286.241 105.383C293.732 114.378 305.759 114.331 313.428 123.411C317.518 128.254 319.388 139.754 324.11 143.19C331.675 148.694 346.274 144.436 354.255 145.362C364.355 146.533 372.239 150.906 375.048 162.834C376.984 171.058 376.103 173.159 385.661 172.413C415.778 170.062 444.904 160.659 473.626 153.079" stroke="black" stroke-linecap="round"/>
</svg>
