<svg width="1088" height="546" fill="none" xmlns="http://www.w3.org/2000/svg"><path d="M1087.06 513.316c0 17.697-243.344 32.044-543.529 32.044C243.349 545.36 0 531.013 0 513.316c0-17.697 243.349-32.046 543.531-32.046 300.185 0 543.529 14.349 543.529 32.046z" fill="#BECBD4"/><path d="M363.354 97.769v13.426h-54.682V97.769l.033-.583c.29-7.96 6.825-14.302 14.849-14.302h24.947c4.563 0 8.673 2.103 11.422 5.373a14.806 14.806 0 013.431 9.512z" fill="#6E7778"/><path d="M319.27 476.748h33.457V109.319H319.27v367.429z" fill="#6E7778"/><path d="M284.598 504.249h102.824v-27.666H284.598v27.666z" fill="#6E7778"/><path d="M387.422 476.583v27.666H335.72c-1.522-9.449-9.709-16.633-19.577-16.633h-31.545v-11.033h102.824z" fill="#696665"/><path d="M363.348 97.769v13.426h-10.613v365.553h-16.761a29.975 29.975 0 00-5.176-16.113 30.946 30.946 0 00-10.775-9.772c-.258-.131-.485-.257-.745-.389v-31.03h16.729V315.878c0-6.44-1.94-12.426-5.305-17.41-2.88-4.27-6.795-7.797-11.424-10.16v-30.703h16.729V126.983c0-5.791-1.65-11.194-4.531-15.788a13.293 13.293 0 00-1.26-1.876 24.239 24.239 0 00-3.042-3.559c-2.687-2.687-5.921-4.856-9.48-6.374a29.508 29.508 0 00-8.995-2.2c.29-7.96 6.826-14.302 14.85-14.302h24.947c4.563 0 8.672 2.103 11.421 5.373a14.8 14.8 0 013.431 9.512z" fill="#696665"/><path d="M378.746 42.37c0 23.4-18.97 42.37-42.37 42.37s-42.368-18.97-42.368-42.37S312.976 0 336.376 0c23.4 0 42.37 18.97 42.37 42.37z" fill="#E74235"/><path d="M366.722 59.38a34.926 34.926 0 01-10.921 11.846 1.171 1.171 0 001.31 1.94 37.278 37.278 0 0011.651-12.639 1.17 1.17 0 10-2.04-1.146zm-21.391 16.61c-2.447.648-5 1.038-7.63 1.136a1.169 1.169 0 10.086 2.338 37.086 37.086 0 008.145-1.214 1.17 1.17 0 10-.601-2.26zm-37.385-53.63a35.358 35.358 0 013.222-3.932 1.169 1.169 0 10-1.697-1.61 37.242 37.242 0 00-3.437 4.193 1.17 1.17 0 101.912 1.348zm9.755-9.331a34.628 34.628 0 0118.68-5.439 34.646 34.646 0 0117.19 4.537 1.17 1.17 0 101.158-2.033 36.973 36.973 0 00-18.348-4.844 36.966 36.966 0 00-19.939 5.806 1.168 1.168 0 00-.355 1.615 1.169 1.169 0 001.614.358z" fill="#FCDB00"/><path d="M336.389 71.128c-15.881 0-28.756-12.875-28.756-28.757 0-15.881 12.875-28.755 28.756-28.755 15.882 0 28.757 12.874 28.757 28.755 0 15.882-12.875 28.757-28.757 28.757z" fill="#F0822C"/><path d="M355.279 42.37c0 10.432-8.457 18.89-18.889 18.89-10.429 0-18.886-8.458-18.886-18.89 0-10.43 8.457-18.885 18.886-18.885 10.432 0 18.889 8.454 18.889 18.885z" fill="#F7B802"/><path d="M324.398 313.77v26.009a1.169 1.169 0 102.34 0V313.77a1.17 1.17 0 00-2.34 0zm0 148.511v10.032a1.17 1.17 0 002.34 0v-10.032a1.17 1.17 0 00-2.34 0z" fill="#98A1A1"/><path d="M778.382 97.769v13.426h-54.679V97.769l.031-.583c.29-7.96 6.828-14.302 14.852-14.302h24.944c4.566 0 8.672 2.103 11.424 5.373a14.814 14.814 0 013.428 9.512z" fill="#6E7778"/><path d="M734.328 476.748h33.455V109.319h-33.455v367.429z" fill="#6E7778"/><path d="M699.633 504.249h102.826v-27.666H699.633v27.666z" fill="#6E7778"/><path d="M802.459 476.583v27.666h-51.704c-1.521-9.449-9.707-16.633-19.575-16.633h-31.547v-11.033h102.826z" fill="#696665"/><path d="M778.379 97.769v13.426h-10.612v365.553h-16.759a29.977 29.977 0 00-5.178-16.113 30.925 30.925 0 00-10.774-9.772c-.26-.131-.486-.257-.744-.389v-31.03h16.726V315.878c0-6.44-1.939-12.426-5.304-17.41-2.881-4.27-6.793-7.797-11.422-10.16v-30.703h16.726V126.983a29.604 29.604 0 00-4.528-15.788 13.654 13.654 0 00-1.261-1.876 24.539 24.539 0 00-3.041-3.559c-2.687-2.687-5.921-4.856-9.482-6.374a29.5 29.5 0 00-8.996-2.2c.291-7.96 6.829-14.302 14.853-14.302h24.944c4.565 0 8.672 2.103 11.424 5.373a14.814 14.814 0 013.428 9.512z" fill="#696665"/><path d="M793.803 42.37c0 23.4-18.972 42.37-42.37 42.37-23.4 0-42.371-18.97-42.371-42.37S728.033 0 751.433 0c23.398 0 42.37 18.97 42.37 42.37z" fill="#E74235"/><path d="M781.776 59.38a34.936 34.936 0 01-10.921 11.846 1.17 1.17 0 101.308 1.94 37.296 37.296 0 0011.654-12.639 1.172 1.172 0 00-2.041-1.146zm-21.41 16.61c-2.445.648-5 1.038-7.63 1.136a1.17 1.17 0 00.086 2.338 37.077 37.077 0 008.146-1.214 1.17 1.17 0 10-.602-2.26zm-37.387-53.631a34.925 34.925 0 013.222-3.932 1.17 1.17 0 00-1.699-1.61 37.125 37.125 0 00-3.437 4.194 1.171 1.171 0 001.914 1.348zm9.776-9.33a34.638 34.638 0 0118.682-5.439 34.637 34.637 0 0117.187 4.537 1.17 1.17 0 101.159-2.033 36.974 36.974 0 00-18.346-4.844 36.959 36.959 0 00-19.939 5.806 1.17 1.17 0 001.257 1.973z" fill="#FCDB00"/><path d="M751.427 71.128c-15.884 0-28.759-12.875-28.759-28.757 0-15.881 12.875-28.755 28.759-28.755 15.882 0 28.758 12.874 28.758 28.755 0 15.882-12.876 28.757-28.758 28.757z" fill="#F0822C"/><path d="M770.316 42.37c0 10.432-8.457 18.89-18.889 18.89-10.429 0-18.888-8.458-18.888-18.89 0-10.43 8.459-18.885 18.888-18.885 10.432 0 18.889 8.454 18.889 18.885z" fill="#F7B802"/><path d="M739.43 313.77v26.009a1.169 1.169 0 102.34 0V313.77a1.17 1.17 0 00-2.34 0zm0 148.511v10.032a1.169 1.169 0 102.34 0v-10.032a1.17 1.17 0 00-2.34 0z" fill="#98A1A1"/><path d="M264 433.972h559.071v-81.179H264v81.179z" fill="#FFFEF8"/><path d="M325.671 352.793L264 414.59v-33.193l28.539-28.604h33.132zm64.899 0l-81.019 81.179h-33.164l81.017-81.179h33.166zm64.873 0l-81.018 81.179h-33.132l81.02-81.179h33.13zm64.912 0l-81.018 81.179h-33.165l81.018-81.179h33.165zm64.902 0l-81.018 81.179h-33.165l81.019-81.179h33.164zm64.859 0l-81.018 81.179h-33.164l81.02-81.179h33.162zm64.907 0l-81.018 81.179H600.84l81.018-81.179h33.165zm64.869 0l-81.018 81.179h-33.132l81.02-81.179h33.13zm43.168 0v21.806l-59.274 59.373h-33.165l81.018-81.179h11.421zm.002 53.579v27.601h-27.535l27.535-27.601z" fill="#E74235"/><path d="M823.065 433.972h-55.288 55.288v-81.179 81.179z" fill="#BDC0C5"/><path d="M795.536 433.972h-31.74l59.275-59.373v31.773l-27.535 27.6zm-64.905 0H698.89l81.017-81.179h31.742l-81.018 81.179zm-64.874 0h-5.595a183.354 183.354 0 00-13.298-12.87l68.174-68.309h31.74l-81.021 81.179zm-37.697-27.259a180.9 180.9 0 00-20.136-11.63l42.206-42.29h31.743l-53.813 53.92zm-43.677-21.273a179.681 179.681 0 00-25.367-6.35l26.243-26.297h31.709l-32.585 32.647zm-55.831-9.058c-.317-.002-.635-.002-.951-.002h-30.787l23.54-23.587h31.74l-23.542 23.589zm-64.903-.002h-31.742l23.54-23.587h31.743l-23.541 23.587zm-64.872 0h-31.742l23.541-23.587h31.742l-23.541 23.587zm-64.907 0h-31.737l23.538-23.587h31.739l-23.54 23.587zm-64.865 0H264v-23.587h28.539l-23.534 23.587z" fill="#D8D5CC"/><path d="M302.128 376.38H269l23.533-23.587h33.133l-23.538 23.587zm64.892 0h-33.165l23.541-23.587h33.165L367.02 376.38zm64.871 0h-33.129l23.54-23.587h33.129l-23.54 23.587zm64.914 0h-33.164l23.54-23.587h33.165l-23.541 23.587zm62.206 2.71a182.635 182.635 0 00-30.464-2.708l23.543-23.589h33.164l-26.243 26.297zm48.913 15.993a180.247 180.247 0 00-23.541-9.643l32.585-32.647h33.162l-42.206 42.29zm38.924 26.019a182.473 182.473 0 00-18.805-14.389l53.813-53.92h33.165l-68.173 68.309zm52.026 12.87h-33.132l81.02-81.179h33.13l-81.018 81.179zm64.912 0h-33.165l81.018-81.179h11.421v21.806l-59.274 59.373zm59.276.001h-27.535l27.535-27.601v27.601z" fill="#C53A2B"/><path d="M264 271.633h559.073V109.31H264v162.323z" fill="#FFFEF8"/><path d="M361.842 109.319L264 207.356v-52.222l45.752-45.815h52.09zm104.219 0L304.058 271.645H264v-12.1l149.935-150.226h52.126zm104.175 0L408.232 271.645h-52.091l162.003-162.326h52.092zm104.211 0L512.444 271.645h-52.092l162.002-162.326h52.093zm104.217 0L616.661 271.645h-52.126l162.006-162.326h52.123zm44.39 7.699v52.189L720.843 271.643H668.75l154.304-154.625zm.003 109.847v44.778h-44.682l44.682-44.778z" fill="#E74235"/><path d="M539.056 245.344h-.355l4.837-4.846v.365l-4.482 4.481zm-52.446 0h-52.126l32.467-32.535h52.126l-32.467 32.535zm-104.219 0H330.3l32.47-32.535h52.091l-32.47 32.535zm-95.793-8.447a16.196 16.196 0 01-2-7.821c0-8.983 7.282-16.267 16.265-16.267h9.777l-24.042 24.088z" fill="#FFFEF9"/><path d="M330.296 245.344h-29.437c-6.148 0-11.501-3.414-14.265-8.447l24.041-24.088h52.131l-32.47 32.535zm104.184 0h-52.093l32.47-32.535h52.09l-32.467 32.535zm104.208 0h-52.09l32.467-32.535h24.46v27.689l-4.837 4.846z" fill="#EF7E74"/><path d="M482.379 422.642h-31.74l32.468-32.535h14.16a16.2 16.2 0 019.771 3.262 16.34 16.34 0 012.375 2.185l-27.034 27.088zm-64.904 0h-31.742l32.469-32.535h31.74l-32.467 32.535zm-64.874 0h-31.74l32.47-32.535h31.739l-32.469 32.535zm-61.589-3.322a16.246 16.246 0 01-6.414-12.948c0-8.98 7.282-16.265 16.265-16.265h19.303l-29.154 29.213z" fill="#FFFEF9"/><path d="M320.849 422.642h-19.998A16.194 16.194 0 01291 419.32l29.154-29.213h33.165l-32.47 32.535zm64.873 0H352.59l32.469-32.535h33.133l-32.47 32.535zm64.911 0h-33.164l32.467-32.535h33.165l-32.468 32.535zm46.629.001h-14.887l27.034-27.088a16.206 16.206 0 014.121 10.818c0 8.985-7.285 16.27-16.268 16.27z" fill="#EF7E74"/><path d="M823.061 271.644h-55.287v-.009h10.614l-.01.009h44.683v-.009h.009l-.009.009zm-88.742 0h-20.878 7.409l.009-.009h13.46v.009z" fill="#BDC0C5"/><path d="M734.328 271.645h33.455v-.01h-33.455v.01z" fill="#595554"/><path d="M823.065 271.636l-.01-44.769-44.673 44.769h-57.528l102.201-102.427V117.02L698.174 242.161a183.33 183.33 0 00-4.897-7.263l-36.738 36.738h-21.238l65.967-65.986c2.152-2.129 3.533-4.82 4.048-7.582.805-4.212-.211-8.69-3.077-12.172l76.424-76.577h44.392v162.317h.01zM676.204 159.753l-26.068-26.077 24.311-24.357h52.093l-50.336 50.434z" fill="#D8D5CC"/><path d="M650.139 133.676l-24.35-24.357h48.66l-24.31 24.357zm52.107 52.22c-.302-.37-.627-.728-.971-1.072l-25.064-25.071 50.336-50.434h52.124l-76.425 76.577zm18.607 85.747h-7.408a180.367 180.367 0 00-15.261-29.484l124.881-125.141v52.189L720.863 271.634l-.01.009zm102.204 0h-44.682l.009-.009 44.673-44.769v44.778z" fill="#C53A2B"/><path d="M543.539 271.633h-30.773l26.292-26.29h4.481v26.29z" fill="#D8D5CC"/><path d="M543.544 245.344h-4.482l4.482-4.481v4.481z" fill="#D8D5D0"/><path d="M543.532 158.998a182.75 182.75 0 00-15.942-.693h-6.246l22.188-22.23v22.923zm-74.281-.693H417.16l48.89-48.986h52.091l-48.89 48.986z" fill="#D8D5CC"/><path d="M264 155.134v-45.815l.007 45.808-.007.007z" fill="#BDC0C5"/><path d="M365.036 158.305h-52.091l48.89-48.986h52.093l-48.892 48.986zM264 155.127v-45.808h45.744L264 155.127z" fill="#D8D5CC"/><path d="M312.953 158.305H264v-3.171l.007-.007 45.745-45.808h52.09l-48.889 48.986zm104.202 0h-52.128l48.892-48.986h52.126l-48.89 48.986zm104.2 0h-52.093l48.889-48.986h25.392v26.756l-22.188 22.23z" fill="#C53A2B"/><path d="M569.678 214.73c-.089-.049-.181-.096-.272-.143l37.829-37.905.33.161-37.887 37.887zm-26.131-26.428v-29.306c8.602.749 17.03 2.099 25.246 4.008l-25.246 25.298z" fill="#D8D5CC"/><path d="M569.406 214.588a16.192 16.192 0 00-7.403-1.778h-18.456v-24.507l25.246-25.298a180.424 180.424 0 0138.442 13.678l-37.829 37.905z" fill="#C53A2B"/><path d="M543.547 240.863v-.365l25.859-25.911c.092.047.183.093.272.143l-26.131 26.133z" fill="#D8D5D0"/><path d="M543.547 240.498v-27.689h18.456c2.667 0 5.183.641 7.403 1.778l-25.859 25.911z" fill="#CF665C"/><path d="M625.805 109.316h-82.258v-.006h82.251l.007.006z" fill="#D8D5CC"/><path d="M635.299 271.634h-18.631l85.569-85.74c2.866 3.482 3.882 7.961 3.077 12.173-.515 2.761-1.895 5.452-4.048 7.581l-65.967 65.986zm-70.737.002h-21.015v-26.291h18.456c8.985 0 16.269-7.284 16.269-16.267 0-4.493-1.822-8.559-4.766-11.503a16.294 16.294 0 00-3.828-2.844l37.887-37.887-.33-.161 42.92-43.007 26.067 26.077-111.66 111.883zm4.231-108.63a180.503 180.503 0 00-25.246-4.008v-22.923l26.701-26.756h52.124l-53.579 53.687z" fill="#B2AFA7"/><path d="M543.547 136.075v-26.756h26.701l-26.701 26.756zm63.68 40.608a180.367 180.367 0 00-38.442-13.677l53.579-53.687h3.433l24.35 24.357-42.92 43.007zm9.458 94.95h-52.126l111.659-111.882 25.065 25.071c.343.344.668.702.971 1.072l-85.569 85.739z" fill="#A23226"/><path d="M562.003 245.344h-18.456v-4.481l26.131-26.134a16.322 16.322 0 013.828 2.844 16.218 16.218 0 014.766 11.503c0 8.983-7.284 16.268-16.269 16.268z" fill="#B2AFAA"/><path d="M689.155 190.621c0 2.817-1.074 5.637-3.223 7.786L542.053 342.286c-4.294 4.296-11.248 4.296-15.545 0l-143.88-143.879a10.986 10.986 0 010-15.545l110.346-110.32 33.534-33.56c4.297-4.296 11.251-4.296 15.545 0l143.879 143.88a10.955 10.955 0 013.223 7.759z" fill="#FCDB00"/><path d="M689.154 190.621c0 2.817-1.074 5.637-3.223 7.786L542.052 342.286c-4.294 4.296-11.248 4.296-15.545 0l-27.439-27.439 59.818-59.845c32.191-32.19 32.191-84.355 0-116.547l-65.913-65.912 33.534-33.561c4.297-4.296 11.251-4.296 15.545 0l143.879 143.88a10.955 10.955 0 013.223 7.759z" fill="#F1C900"/><path d="M465.812 153.758l-19.324 37.434v9.532h28.335v13.778h12.565v-13.778h8.319v-11.005h-8.232l-.087-13.431h-12.565v13.431H460.7l18.11-35.961h-12.998zm66.981-.433c-15.164 0-23.483 11.005-23.483 30.761 0 19.844 8.319 30.762 23.483 30.762 15.078 0 23.396-10.918 23.396-30.762 0-19.756-8.318-30.761-23.396-30.761zm0 10.051c6.932 0 10.138 6.24 10.138 20.71 0 14.385-3.206 20.711-10.138 20.711-7.019 0-10.225-6.326-10.225-20.711 0-14.47 3.206-20.71 10.225-20.71zm57.276-9.618l-19.323 37.434v9.532h28.335v13.778h12.565v-13.778h8.318v-11.005h-8.232l-.086-13.431h-12.565v13.431h-14.124l18.11-35.961h-12.998z" fill="#323663"/><path d="M411.25 195.278a4.17 4.17 0 01-4.172-4.172 4.173 4.173 0 114.172 4.172z" fill="#54514D"/><path d="M412.104 195.278a4.17 4.17 0 01-4.17-4.172 4.17 4.17 0 118.342 0 4.17 4.17 0 01-4.172 4.172z" fill="#696665"/><path d="M657.373 186.934a4.172 4.172 0 11.003 8.343 4.172 4.172 0 01-.003-8.343z" fill="#54514D"/><path d="M656.546 186.934a4.173 4.173 0 11-.002 8.346 4.173 4.173 0 01.002-8.346z" fill="#696665"/><path d="M534.284 53.61a7.94 7.94 0 00-5.651 2.34L399.601 184.982c-3.115 3.114-3.115 8.183 0 11.3l129.032 129.032c3.016 3.019 8.284 3.019 11.3 0l129.034-129.032a7.942 7.942 0 002.34-5.654 7.93 7.93 0 00-2.34-5.646L539.933 55.95a7.93 7.93 0 00-5.649-2.34zm0 277.758a11.636 11.636 0 01-8.277-3.43L396.975 198.905c-4.561-4.561-4.561-11.985 0-16.548L526.007 53.324c4.423-4.423 12.135-4.423 16.551 0l129.035 129.033a11.63 11.63 0 013.425 8.271 11.63 11.63 0 01-3.425 8.277L542.558 327.938a11.62 11.62 0 01-8.274 3.43z" fill="#FEFEFE"/><path d="M993.833 476.737H860.641l9.992-38.589 8.421-32.737 7.046-27.165 8.424-32.715 20.498-79.324h24.429l20.476 79.324 8.445 32.715 7.02 27.165 8.449 32.737 9.992 38.589z" fill="#E74235"/><path d="M968.381 378.253h-82.272l8.434-32.725h65.41l8.428 32.725zm15.457 59.892H870.641l8.428-32.725h96.338l8.431 32.725z" fill="#FFFEF8"/><path d="M831.906 504.249h190.654v-27.666H831.906v27.666z" fill="#DF3B33"/><path d="M1022.56 504.249h-86.564c-1.519-9.446-9.704-16.633-19.574-16.633h-84.516v-11.033h99.249c-.012.047-.023.108-.035.155h62.714l-.04-.155h28.766v27.666z" fill="#B8362B"/><path d="M993.799 476.582H931.16a412.171 412.171 0 006.606-38.436h46.072l-4.608-17.887 4.617 17.889 9.952 38.434zM975.4 405.421h-35.009c.349-9.475.323-18.542-.002-27.17h27.984l-2.583-10.034 2.587 10.029 7.021 27.165.002.01zm-15.47-59.895h-22.336c-6.793-50.504-22.567-79.319-22.567-79.319h24.43l20.473 79.319z" fill="#C53A2B"/><path d="M968.372 378.253h-27.984a343.611 343.611 0 00-2.794-32.725h22.335l.003.005 5.857 22.686 2.583 10.034zm15.473 59.892h-46.072a383.26 383.26 0 002.626-32.725h35.008l3.831 14.839 4.607 17.886z" fill="#D8D5CC"/><path d="M993.832 476.738h-62.715c.012-.047.023-.108.035-.155h62.64l.04.155z" fill="#9A3127"/><path d="M895.105 450.692c-.145 0-.288-.014-.431-.042-2.464-.478-3.94-5.068-4.444-12.503h14.422c-3.482 7.888-6.854 12.545-9.547 12.545zm19.972-45.27h-23.03a322.817 322.817 0 013.112-18.963c.54-2.789 1.109-5.529 1.696-8.206h23.573a338.199 338.199 0 01-5.351 27.169zm8.262-59.894h-17.161c4.357-11.642 8.747-18.83 12.095-18.83.145 0 .288.012.431.04 3.095.601 4.635 7.708 4.635 18.79z" fill="#EF7E74"/><path d="M920.437 378.253h-23.574c2.78-12.657 6.042-23.955 9.323-32.725h17.162c0 8.817-.974 20.152-2.911 32.725zm-15.774 59.892h-14.422c-.547-8.089.063-19.548 1.816-32.725h23.03c-3.194 13.264-6.868 24.676-10.424 32.725z" fill="#FFFEF9"/><path d="M226.419 476.737H93.227l9.991-38.589 8.424-32.737 7.044-27.165 8.423-32.715 20.499-79.324h24.43l20.475 79.324 8.446 32.715 7.02 27.165 8.448 32.737 9.992 38.589z" fill="#E74235"/><path d="M200.967 378.253h-82.272l8.432-32.725h65.41l8.43 32.725zm15.46 59.892h-113.2l8.431-32.725h96.338l8.431 32.725z" fill="#FFFEF8"/><path d="M64.492 504.249h190.659v-27.666H64.492v27.666z" fill="#DF3B33"/><path d="M255.151 504.249h-86.565c-1.521-9.446-9.707-16.633-19.575-16.633H64.492v-11.033h99.252c-.012.047-.024.108-.034.155h62.711l-.04-.155h28.77v27.666z" fill="#B8362B"/><path d="M226.38 476.582h-62.637a411.856 411.856 0 006.607-38.436h46.071l-4.867-18.887 4.874 18.889 9.952 38.434zm-18.397-71.161h-35.009a363.87 363.87 0 00-.004-27.17h27.986l-2.583-10.034 2.588 10.029 7.02 27.165.002.01zm-15.47-59.895h-22.336c-6.792-50.504-22.568-79.319-22.568-79.319h24.431l20.473 79.319z" fill="#C53A2B"/><path d="M200.958 378.253h-27.985a342.647 342.647 0 00-2.793-32.725h22.335l.002.005 5.859 22.686 2.582 10.034zm15.473 59.892h-46.072a383.638 383.638 0 002.624-32.725h35.01l3.571 13.839 4.867 18.886z" fill="#D8D5CC"/><path d="M226.414 476.738h-62.711l.034-.155h62.637l.04.155z" fill="#9A3127"/><path d="M127.69 450.692c-.146 0-.288-.014-.43-.042-2.464-.478-3.941-5.068-4.444-12.503h14.422c-3.484 7.888-6.854 12.545-9.548 12.545zm19.97-45.27h-23.028a324.53 324.53 0 013.113-18.963 335.9 335.9 0 011.696-8.206h23.572a338.248 338.248 0 01-5.353 27.169zm8.265-59.894h-17.161c4.355-11.642 8.746-18.83 12.093-18.83.147 0 .289.012.431.04 3.097.601 4.637 7.708 4.637 18.79z" fill="#EF7E74"/><path d="M153.021 378.253h-23.572c2.779-12.657 6.042-23.955 9.324-32.725h17.16c.001 8.817-.973 20.152-2.912 32.725zm-15.773 59.892h-14.421c-.547-8.089.062-19.548 1.815-32.725h23.028c-3.193 13.264-6.867 24.676-10.422 32.725z" fill="#FFFEF9"/></svg>