<svg width="78" height="82" fill="none" xmlns="http://www.w3.org/2000/svg"><path d="M21.103 38.088c8.245 0 14.929-6.693 14.929-14.95 0-8.256-6.684-14.95-14.93-14.95-8.244 0-14.928 6.694-14.928 14.95 0 8.257 6.684 14.95 14.929 14.95zm0 37.015c8.245 0 14.929-6.693 14.929-14.95 0-8.256-6.684-14.95-14.93-14.95-8.244 0-14.928 6.694-14.928 14.95 0 8.257 6.684 14.95 14.929 14.95zm36.346-.602c8.245 0 14.929-6.693 14.929-14.95 0-8.256-6.684-14.949-14.93-14.949-8.244 0-14.928 6.693-14.928 14.95 0 8.256 6.684 14.95 14.929 14.95z" stroke="#0D369C" stroke-miterlimit="10"/><path d="M31.03 26.148a10.346 10.346 0 01-3.603 5.103 10.323 10.323 0 01-15.843-4.422m45.891 38.963a6.253 6.253 0 006.249-6.258 6.253 6.253 0 00-6.25-6.258 6.253 6.253 0 00-6.248 6.258 6.253 6.253 0 006.249 6.258z" stroke="#0D369C" stroke-miterlimit="10"/><path d="M68.94 59.02c-1.927 4.107-6.444 6.79-11.438 6.79a12.634 12.634 0 01-6.38-1.576 12.656 12.656 0 01-4.73-4.567" stroke="#0D369C" stroke-miterlimit="10"/><path d="M46.348 59.879c1.918-4.098 6.443-6.789 11.437-6.789a12.636 12.636 0 0111.155 6.196M17.197 20.412c.957 0 1.732-.777 1.732-1.735a1.734 1.734 0 10-1.732 1.735zm8.096 0c.956 0 1.732-.777 1.732-1.735a1.734 1.734 0 10-1.732 1.735zM51.544 9.207a14.944 14.944 0 00-7.67 6.66 14.976 14.976 0 003.491 18.802 14.925 14.925 0 0019.097 0 14.976 14.976 0 003.491-18.8 14.944 14.944 0 00-7.67-6.662M56.919.4v24.747m11.26 44.963l8.82 8.454m-75.73-6.453l11.013-11.028M5.44 76.28l11.013-11.028M9.877 80.724l11.014-11.029" stroke="#0D369C" stroke-miterlimit="10"/></svg>