<svg width="67" height="70" fill="none" xmlns="http://www.w3.org/2000/svg"><path d="M62.493 39.63h-.906V4.77a3.764 3.764 0 00-3.764-3.764H8.977A3.764 3.764 0 005.233 4.77v34.86H4.227V4.77A4.79 4.79 0 018.997 0h48.746a4.79 4.79 0 014.77 4.77l-.02 34.86z" fill="#0D369C"/><path d="M45.486 19.12a6.36 6.36 0 01-5.676-6.843 5.777 5.777 0 1111.351 0 6.36 6.36 0 01-5.675 6.843zm0-12.66a5.334 5.334 0 00-4.67 5.817 4.79 4.79 0 109.34 0 5.334 5.334 0 00-4.67-5.816zm11.13 20.831l-6.118-5.595.684-.744 2.415 2.153 3.703 3.442-.684.744zM52.027 39.67h-1.006L51 26.264l5.977 5.293-.664.745-4.287-3.784v11.15zm-12.438-.04h-1.007V27.552a4.026 4.026 0 00-1.53-3.18l-6.218-4.87a2.596 2.596 0 01-.322-3.744 2.657 2.657 0 013.622-.201l6.723 5.374-.624.785-6.722-5.374a1.63 1.63 0 00-2.235 0 1.49 1.49 0 00-.402 1.167 1.591 1.591 0 00.584 1.107l6.219 4.991a5.074 5.074 0 011.912 4.026v11.995zM22.904 70h-1.006v-2.737a5.596 5.596 0 00-2.013-4.267l-4.73-4.025.644-.765 4.75 4.025a6.62 6.62 0 012.315 5.032l.04 2.737zM1.006 70H0v-2.697a6.622 6.622 0 012.375-5.092l4.81-4.025.644.765-4.81 4.025a5.554 5.554 0 00-2.013 4.307V70z" fill="#0D369C"/><path d="M11.512 60.702c-3.844 0-6.963-3.684-6.963-8.212 0-4.529 3.12-8.212 6.963-8.212 3.845 0 6.964 3.684 6.964 8.212s-3.18 8.212-6.964 8.212zm0-15.417c-3.28 0-6.038 3.24-6.038 7.205s2.677 7.205 6.038 7.205 6.038-3.22 6.038-7.205-2.737-7.205-6.038-7.205zM44.802 70h-1.007v-2.737a5.596 5.596 0 00-2.012-4.267l-4.73-4.025.644-.765 4.73 4.025a6.563 6.563 0 012.334 5.032l.04 2.737zm-21.898-2.697h-1.006a6.622 6.622 0 012.375-5.092l4.81-4.025.644.765-4.81 4.025a5.556 5.556 0 00-2.013 4.327z" fill="#0D369C"/><path d="M33.41 60.702c-3.844 0-6.964-3.684-6.964-8.212 0-4.529 3.12-8.212 6.964-8.212 3.844 0 6.964 3.684 6.964 8.212s-3.12 8.212-6.964 8.212zm0-15.417c-3.28 0-6.038 3.24-6.038 7.205s2.758 7.266 6.038 7.266c3.28 0 6.038-3.22 6.038-7.206 0-3.985-2.737-7.265-6.038-7.265zM66.7 70h-1.088v-2.737a5.596 5.596 0 00-2.012-4.267l-4.73-4.025.644-.765 4.73 4.025a6.56 6.56 0 012.335 5.032l.12 2.737zm-21.898-2.697h-1.007a6.683 6.683 0 012.355-5.092l4.83-4.025.645.765-4.81 4.025a5.555 5.555 0 00-2.013 4.327z" fill="#0D369C"/><path d="M55.308 60.702c-3.844 0-6.964-3.684-6.964-8.212 0-4.529 3.12-8.212 6.964-8.212 3.844 0 6.964 3.684 6.964 8.212s-3.12 8.212-6.964 8.212zm0-15.417c-3.28 0-6.038 3.24-6.038 7.205s2.677 7.205 6.038 7.205c3.36 0 6.038-3.22 6.038-7.205s-2.758-7.205-6.038-7.205zM24.816 39.67H23.81V15.94h-5.233v23.73H17.57V14.933h7.246v24.735z" fill="#0D369C"/><path d="M31.277 39.67H30.27v-9.963h-5.957V28.7h6.964v10.97zm-19.845 0h-1.007V23.124h7.649v1.007h-6.642v15.537z" fill="#0D369C"/></svg>