<svg width="68" height="70" fill="none" xmlns="http://www.w3.org/2000/svg"><path d="M48.864 38.154h-4.503V37.14h3.814l3.306-8.114a.183.183 0 000-.162.162.162 0 00-.163 0H16.005a.162.162 0 00-.162 0 .183.183 0 000 .162l3.306 8.114h3.814v1.014h-4.524l-3.55-8.702a1.217 1.217 0 01.55-1.508c.175-.092.37-.139.566-.135h35.213a1.157 1.157 0 01.994.528 1.217 1.217 0 01.122 1.115l-3.469 8.702z" fill="#0D369C"/><path d="M44.807 46.532h-1.014v-12.17H23.509v12.17h-1.014v-12.17a.974.974 0 01.973-.974h20.406a.974.974 0 01.974.973l-.04 12.17zm1.38-18.215h-1.015v-3.023a6.086 6.086 0 00-2.19-4.746l-5.213-4.483.649-.77 5.233 4.441a7.28 7.28 0 012.536 5.518v3.063zm-24.138 0h-1.015v-2.982a7.303 7.303 0 012.597-5.599l5.314-4.462.65.77-5.315 4.483a6.185 6.185 0 00-2.231 4.787v3.003z" fill="#0D369C"/><path d="M33.692 18.012c-4.22 0-7.647-4.057-7.647-9.006 0-4.95 3.428-9.006 7.647-9.006s7.627 4.057 7.627 9.006c0 4.95-3.428 9.006-7.627 9.006zm0-16.998c-3.651 0-6.633 3.59-6.633 7.992s2.982 7.992 6.633 7.992c3.65 0 6.612-3.57 6.612-7.992 0-4.422-2.961-7.992-6.612-7.992zM23.083 70H22.07v-2.76a5.7 5.7 0 00-2.028-4.32l-4.767-4.057.649-.77 4.787 4.056a6.713 6.713 0 012.333 5.091l.04 2.759zM1.014 70H0v-2.738a6.674 6.674 0 012.393-5.112l4.848-4.057.67.771-4.868 4.057a5.64 5.64 0 00-2.029 4.34V70z" fill="#0D369C"/><path d="M11.602 60.629c-3.874 0-7.018-3.712-7.018-8.276s3.144-8.276 7.018-8.276c3.875 0 7.039 3.712 7.039 8.276s-3.164 8.276-7.038 8.276zm0-15.538c-3.306 0-6.085 3.266-6.085 7.262 0 3.996 2.698 7.262 6.085 7.262 3.388 0 6.086-3.266 6.086-7.262 0-3.996-2.759-7.262-6.085-7.262zM45.152 70h-1.014v-2.76a5.7 5.7 0 00-2.029-4.32l-4.766-4.057.649-.77 4.787 4.056a6.713 6.713 0 012.332 5.091l.041 2.76zm-22.069-2.738h-1.014a6.674 6.674 0 012.454-5.112l4.848-4.057.67.771-4.869 4.057a5.599 5.599 0 00-2.089 4.34z" fill="#0D369C"/><path d="M33.671 60.629c-3.874 0-7.018-3.712-7.018-8.276s3.144-8.276 7.018-8.276c3.875 0 7.08 3.712 7.08 8.276s-3.205 8.276-7.08 8.276zm0-15.538c-3.306 0-6.085 3.266-6.085 7.262 0 3.996 2.698 7.262 6.085 7.262 3.388 0 6.086-3.266 6.086-7.262 0-3.996-2.76-7.262-6.086-7.262zM67.221 70h-1.014v-2.76a5.7 5.7 0 00-2.028-4.32l-4.767-4.057.649-.77 4.787 4.056a6.714 6.714 0 012.333 5.091L67.22 70zm-22.069-2.738h-1.014a6.673 6.673 0 012.393-5.112l4.848-4.057.65.771-4.849 4.057a5.6 5.6 0 00-2.028 4.34z" fill="#0D369C"/><path d="M55.74 60.629c-3.874 0-7.018-3.712-7.018-8.276s3.144-8.276 7.018-8.276c3.875 0 7.019 3.712 7.019 8.276s-3.144 8.276-7.019 8.276zm0-15.538c-3.306 0-6.085 3.266-6.085 7.262 0 3.996 2.698 7.262 6.085 7.262 3.388 0 6.086-3.266 6.086-7.262 0-3.996-2.82-7.262-6.086-7.262z" fill="#0D369C"/></svg>