<svg width="60" height="70" fill="none" xmlns="http://www.w3.org/2000/svg"><path d="M56.115 55.207h-3.913v-.894h3.324l2.858-7.003a.18.18 0 000-.143.162.162 0 00-.125 0H1.087a.162.162 0 00-.125 0 .125.125 0 000 .143l2.859 7.003h3.27v.894H3.158L.086 47.649a1.018 1.018 0 01.09-.982 1.054 1.054 0 01.875-.465h57.172a1.055 1.055 0 011.032.943c.018.17-.005.344-.067.504l-3.073 7.558z" fill="#0D369C"/><path d="M52.649 70h-.893V51.848H7.536v18.063h-.893V51.848a.84.84 0 01.84-.84h44.273a.84.84 0 01.857.84L52.65 70zm-22.44-29.64h-.893v6.307h.893V40.36z" fill="#0D369C"/><path d="M31.853 40.806h-4.378a1.483 1.483 0 01-1.465-1.482v-5.217a1.483 1.483 0 011.465-1.483h4.378a1.483 1.483 0 011.483 1.483v5.217a1.483 1.483 0 01-1.483 1.483zm-4.378-7.289a.572.572 0 00-.571.59v5.217a.57.57 0 00.572.59h4.377a.59.59 0 00.59-.59v-5.217a.59.59 0 00-.59-.59h-4.378zm22.709 13.132h-.894v-5.02a10.72 10.72 0 00-3.788-8.201l-8.665-7.415.626-.679 8.683 7.415a11.72 11.72 0 014.091 8.933l-.053 4.967zm-40.128 0h-.893v-4.95a11.684 11.684 0 014.162-8.932l8.844-7.433.572.68-8.844 7.414a10.721 10.721 0 00-3.841 8.272v4.949z" fill="#0D369C"/><path d="M29.798 29.14c-6.79 0-12.31-6.521-12.31-14.561S23.008 0 29.798 0c6.79 0 12.292 6.539 12.292 14.579 0 8.04-5.52 14.56-12.292 14.56zm0-28.247C23.51.893 18.382 7.04 18.382 14.58s5.127 13.668 11.416 13.668c6.289 0 11.399-6.129 11.399-13.668 0-7.54-5.128-13.686-11.399-13.686z" fill="#0D369C"/></svg>