<svg width="31" height="31" viewBox="0 0 31 31" fill="none" xmlns="http://www.w3.org/2000/svg">
<g clip-path="url(#clip0)">
<path d="M21.5328 15.2676C21.7836 12.9688 16.6636 2.99162 15.5002 0.985107C14.39 3.08433 14.1505 3.3836 12.1154 7.63858C9.89094 12.7112 8.60648 14.9795 10.1715 18.0926H0.00732422V30.6201H30.9931V18.0926H20.8289C21.278 17.2496 21.5328 16.288 21.5328 15.2676V15.2676ZM13.7567 8.41504C14.3873 7.06788 15.0221 5.79819 15.5002 4.86499C15.9783 5.79819 16.6132 7.06788 17.2438 8.41504C19.3958 13.0145 19.7172 14.6824 19.7172 15.2676C19.7172 16.3533 19.3044 17.344 18.6284 18.0926C17.0257 19.9348 13.9748 19.9353 12.372 18.0926C10.4547 15.7112 11.2004 14.1362 13.7567 8.41504V8.41504ZM29.1775 19.9082V28.8045H1.8229V19.9082H11.65C13.7656 21.7487 17.2353 21.7483 19.3504 19.9082H29.1775Z" fill="#CCA75D"/>
<path d="M4.01833 13.7958C6.2303 13.7958 8.02953 11.9965 8.02953 9.78455C8.20867 8.30238 4.95087 2.01063 4.01833 0.379883C3.08216 2.01723 -0.17286 8.30298 0.00718472 9.78455C0.00706368 11.9965 1.80636 13.7958 4.01833 13.7958ZM4.01833 4.27247C5.10041 6.43784 6.21396 8.96815 6.21396 9.78455C6.21396 10.9955 5.22871 11.9802 4.01833 11.9802C2.80734 11.9802 1.8227 10.9955 1.8227 9.78455C1.82264 8.96809 2.93625 6.43778 4.01833 4.27247V4.27247Z" fill="#CCA75D"/>
<path d="M26.9822 13.7958C29.1942 13.7958 30.9934 11.9965 30.9934 9.78455C31.1726 8.29971 27.9153 2.01214 26.9822 0.379883C26.0467 2.01565 22.7911 8.30577 22.971 9.78455C22.9709 11.9965 24.7702 13.7958 26.9822 13.7958V13.7958ZM26.9822 4.27247C28.0643 6.43724 29.1778 8.96754 29.1778 9.78455C29.1778 10.9955 28.1932 11.9802 26.9822 11.9802C25.7718 11.9802 24.7866 10.9955 24.7866 9.78455C24.7865 8.96809 25.9007 6.43778 26.9822 4.27247V4.27247Z" fill="#CCA75D"/>
<path d="M24.2754 21.3H26.091V23.1156H24.2754V21.3Z" fill="#CCA75D"/>
<path d="M19.7969 25.2944H21.6124V27.11H19.7969V25.2944Z" fill="#CCA75D"/>
<path d="M4.18311 24.7498H5.99868V26.5653H4.18311V24.7498Z" fill="#CCA75D"/>
<path d="M8.41943 21.9053H10.235V23.7208H8.41943V21.9053Z" fill="#CCA75D"/>
</g>
<defs>
<clipPath id="clip0">
<rect width="31" height="31" fill="white"/>
</clipPath>
</defs>
</svg>
