<svg width="31" height="33" viewBox="0 0 31 33" fill="none" xmlns="http://www.w3.org/2000/svg">
<g clip-path="url(#clip0)">
<path d="M30.2315 17.4668C25.614 17.4668 21.8574 13.4967 21.8574 8.61687V7.79883H20.041V8.61687C20.041 13.4967 16.3116 17.4668 11.7274 17.4668H10.959V19.4004H11.7274C16.3116 19.4004 20.041 23.3704 20.041 28.2503V29.0684H21.8574V28.2503C21.8574 23.3704 25.614 19.4004 30.2315 19.4004H31V17.4668H30.2315ZM20.9519 23.7955C19.9384 21.4266 18.1426 19.514 15.9181 18.4336C18.1426 17.3532 19.9384 15.4406 20.9519 13.0717C21.9716 15.4406 23.778 17.3532 26.0159 18.4336C23.778 19.514 21.9716 21.4266 20.9519 23.7955Z" fill="#CCA75D"/>
<path d="M11.8672 5.86523C9.36327 5.86523 7.32617 3.66783 7.32617 0.966797V0H5.50977V0.966797C5.50977 3.62201 3.40249 5.86523 0.908203 5.86523H0V7.79883H0.908203C3.44554 7.79883 5.50977 9.96735 5.50977 12.6328V13.5996H7.32617V12.6328C7.32617 9.96735 9.36327 7.79883 11.8672 7.79883H12.7754V5.86523H11.8672ZM6.41361 9.15827C5.86778 8.20018 5.1035 7.39567 4.1939 6.82165C4.63856 6.53477 5.05488 6.18782 5.43378 5.78441C5.81268 5.381 6.13867 4.93788 6.40816 4.46454C6.94745 5.43282 7.7032 6.24641 8.60317 6.82746C7.70622 7.40109 6.95248 8.2034 6.41361 9.15827Z" fill="#CCA75D"/>
<path d="M10.3103 27.1348C8.6648 27.1348 7.32617 25.7098 7.32617 23.9581V23.2676H5.50977V23.9581C5.50977 25.7098 4.17113 27.1348 2.52565 27.1348H1.87695V29.0684H2.52565C4.17113 29.0684 5.50977 30.4934 5.50977 32.245V33H7.32617V32.245C7.32617 30.4934 8.6648 29.0684 10.3103 29.0684H10.959V27.1348H10.3103ZM6.41797 29.2593C6.1159 28.8143 5.74844 28.4231 5.33043 28.1016C5.7485 27.78 6.1159 27.3888 6.41797 26.9439C6.72004 27.3888 7.0875 27.78 7.50551 28.1016C7.0875 28.4231 6.72004 28.8143 6.41797 29.2593Z" fill="#CCA75D"/>
</g>
<defs>
<clipPath id="clip0">
<rect width="31" height="33" fill="white"/>
</clipPath>
</defs>
</svg>
