<svg width="45" height="45" fill="none" xmlns="http://www.w3.org/2000/svg"><g clip-path="url(#clip0)" fill="#151F59"><path d="M11.571 14.161a.886.886 0 01-.816-.556.888.888 0 01.237-.984.887.887 0 011.019-.1.886.886 0 01.423.933.888.888 0 01-.863.707zm16.063 18.048a.887.887 0 01-.827-.582.885.885 0 01.247-.958.889.889 0 011.031-.093c.304.18.473.542.417.891a.889.889 0 01-.868.742z"/><path d="M44.861 6.534a.879.879 0 00-.758-.571l-4.792-.358-.358-4.792a.879.879 0 00-1.498-.556l-3.83 3.83A3.529 3.529 0 0032.59 6.51l.052 2.934A19.907 19.907 0 0020.085 5C9.056 5 .084 13.972.084 25s8.972 20 20.001 20c11.029 0 20.001-8.972 20.001-20a19.91 19.91 0 00-4.578-12.721l2.9.047h.047a3.53 3.53 0 002.373-1.035l3.83-3.83a.879.879 0 00.203-.927zM34.868 5.33l2.475-2.475.242 3.233-3.188 3.193-.05-2.777c.022-.443.206-.86.52-1.174zM20.085 43.242C10.025 43.242 1.842 35.06 1.842 25S10.026 6.757 20.085 6.757a18.17 18.17 0 0112.172 4.666l-2.035 2.036a15.304 15.304 0 00-10.137-3.827c-1.787 0-3.54.306-5.208.909a.879.879 0 00.597 1.653 13.532 13.532 0 014.611-.804c3.396 0 6.505 1.25 8.891 3.314l-2.039 2.039a10.686 10.686 0 00-6.852-2.478C14.165 14.265 9.35 19.081 9.35 25s4.816 10.734 10.735 10.734a10.75 10.75 0 004.878-1.173.879.879 0 10-.801-1.565c-1.27.65-2.642.98-4.077.98-4.95 0-8.977-4.026-8.977-8.976 0-4.95 4.027-8.977 8.977-8.977 2.118 0 4.066.738 5.603 1.969l-2.05 2.05a6.069 6.069 0 00-3.553-1.144A6.109 6.109 0 0013.983 25a6.109 6.109 0 006.102 6.101A6.109 6.109 0 0026.187 25a6.07 6.07 0 00-1.283-3.738l2.043-2.043a8.936 8.936 0 012.115 5.78c0 .966-.153 1.916-.454 2.824a.879.879 0 001.668.554c.361-1.087.544-2.223.544-3.377 0-2.685-.99-5.143-2.626-7.028l2.036-2.036A13.554 13.554 0 0133.696 25c0 7.504-6.106 13.61-13.61 13.61-7.505 0-13.611-6.106-13.611-13.61 0-2.9.903-5.669 2.612-8.009a.879.879 0 10-1.42-1.037A15.238 15.238 0 004.718 25c0 8.473 6.894 15.367 15.368 15.367S35.453 33.473 35.453 25c0-3.963-1.508-7.58-3.98-10.308l2.035-2.034A18.172 18.172 0 0138.328 25c0 10.059-8.184 18.242-18.243 18.242zM24.43 25a4.349 4.349 0 01-4.344 4.344A4.349 4.349 0 0115.741 25a4.349 4.349 0 014.344-4.344c.838 0 1.622.239 2.287.652l-2.804 2.803a.879.879 0 101.243 1.243l2.837-2.836A4.32 4.32 0 0124.429 25zm15.157-14.952a1.784 1.784 0 01-1.175.52l-2.767-.045 1.688-1.688a.896.896 0 00.053-.059l1.443-1.445 3.233.242-2.475 2.475z"/></g><defs><clipPath id="clip0"><path fill="#fff" d="M0 0h45v45H0z"/></clipPath></defs></svg>