<svg width="41" height="41" fill="none" xmlns="http://www.w3.org/2000/svg"><path d="M40.4 37.21h-2.474v-9.37a.6.6 0 00-1.201 0v9.37h-5.27V16.57h5.27v8.467a.6.6 0 001.2 0V15.97a.6.6 0 00-.6-.6h-6.47a.6.6 0 00-.602.6v21.24h-1.387V19.206a.6.6 0 00-.6-.6h-6.472a.6.6 0 00-.6.6V37.21h-1.388V24.06a.6.6 0 00-.6-.601h-6.472a.6.6 0 00-.6.6v13.15h-1.388v-9.267a.6.6 0 00-.6-.6H3.674a.6.6 0 00-.6.6v9.268H.6a.6.6 0 00-.601.6v2.59a.6.6 0 00.6.6h6.487a.6.6 0 000-1.201H1.2V38.41h38.6v1.39H9.889a.6.6 0 000 1.201H40.4a.6.6 0 00.601-.6v-2.59a.6.6 0 00-.6-.6zM22.394 19.806h5.27V37.21h-5.27V19.806zm-9.06 4.854h5.27v12.55h-5.27V24.66zm-9.06 3.883h5.27v8.667h-5.27v-8.667zm-.68-6.633h9.14a1.9 1.9 0 001.397-.615l7.445-8.122h5.071a1.88 1.88 0 001.34-.555l6.15-6.149v1.897a.6.6 0 00.6.601h2.588a.6.6 0 00.6-.6V1.894A1.895 1.895 0 0036.032 0H29.56a.6.6 0 00-.6.6v2.59a.6.6 0 00.6.6h1.896l-5.593 5.594h-5.12a1.9 1.9 0 00-1.397.614L11.9 18.12h-1.656a.6.6 0 000 1.201h1.92a.6.6 0 00.443-.195l7.625-8.317a.694.694 0 01.51-.224h5.37a.6.6 0 00.424-.176l6.795-6.795a.6.6 0 00-.425-1.025H30.16V1.201h5.87c.383 0 .694.311.694.694v5.871h-1.387V5.019a.6.6 0 00-1.025-.424l-7.174 7.174a.69.69 0 01-.49.203h-5.336a.6.6 0 00-.443.194l-7.623 8.317a.695.695 0 01-.512.225h-8.54v-1.387h3.247a.6.6 0 100-1.2H3.594a.6.6 0 00-.6.6v2.588a.6.6 0 00.6.6z" fill="#151F59"/></svg>