<svg width="48" height="48" fill="none" xmlns="http://www.w3.org/2000/svg"><g clip-path="url(#clip0)"><path d="M8.525 18.29c0-.892.364-1.706.954-2.293a3.236 3.236 0 014.59 0c.587.587.954 1.4.954 2.294 0 .866.045 1.676.122 2.444h1.659a1.834 1.834 0 001.834-1.831v-2.641c0-.388.313-.704.703-.704h2.642a1.82 1.82 0 001.294-.54c.332-.332.54-.79.54-1.291a1.83 1.83 0 00-.54-1.295 1.83 1.83 0 00-1.294-.539h-2.642a.702.702 0 01-.704-.701V8.548c0-.502-.207-.96-.54-1.291a1.826 1.826 0 00-1.294-.54h-2.641a.703.703 0 01-.702-.704V3.37c0-.505-.207-.962-.54-1.294a1.83 1.83 0 00-1.293-.54A1.835 1.835 0 009.796 3.37v2.642a.705.705 0 01-.705.704H6.45a1.83 1.83 0 00-1.294.54 1.82 1.82 0 00-.54 1.291v10.356c0 .503.207.962.54 1.295.332.332.792.536 1.294.536h2.075V18.29zm30.95 7.643a.703.703 0 01-1.406 0v-7.642a1.83 1.83 0 00-.542-1.3 1.83 1.83 0 00-2.6 0 1.83 1.83 0 00-.541 1.3c0 2.208-.298 4.142-.68 6.306-.277 1.568-.535 3.037-.535 4.581 0 1.906.537 5.363 2.339 6.575.197.13.31.348.31.582l.003 1.86h7.144c.388-1.526.932-2.764 1.488-4.029 1.05-2.386 2.14-4.866 2.14-9.601 0-2.75-.38-5.31-1.037-7.465-.41-1.348-.925-2.533-1.518-3.503v5.307c0 .89-.364 1.701-.951 2.288a3.226 3.226 0 01-2.288.952h-1.326v3.79zm0-7.642v2.444H40.8c.505 0 .962-.204 1.294-.536a1.83 1.83 0 00.54-1.295V8.548c0-.502-.208-.96-.54-1.291a1.826 1.826 0 00-1.294-.54h-2.642a.705.705 0 01-.704-.704V3.37c0-.505-.205-.962-.537-1.294a1.831 1.831 0 00-1.294-.54c-.502 0-.962.208-1.294.54-.332.332-.54.79-.54 1.294v2.642a.703.703 0 01-.701.704h-2.642c-.505 0-.962.207-1.294.54-.332.332-.54.789-.54 1.291v1.94h1.94c.893 0 1.701.364 2.289.952a3.226 3.226 0 010 4.576 3.235 3.235 0 01-2.289.948h-1.94v1.94a1.834 1.834 0 001.834 1.831h2.41c.075-.768.123-1.578.123-2.444 0-.893.364-1.707.954-2.294a3.236 3.236 0 014.59 0c.587.587.95 1.4.95 2.294zm-30.95 3.853H6.45a3.223 3.223 0 01-2.288-.952 3.23 3.23 0 01-.952-2.288v-3.951c-.382.831-.715 1.77-.986 2.793-.526 1.995-.818 4.313-.818 6.819 0 4.735 1.09 7.215 2.14 9.601.554 1.265 1.1 2.504 1.487 4.029h7.144v-1.86a.7.7 0 01.313-.582c1.805-1.212 2.341-4.67 2.341-6.575 0-1.544-.26-3.013-.536-4.581-.38-2.163-.678-4.098-.678-6.306a1.83 1.83 0 00-.542-1.3 1.834 1.834 0 00-2.602 0 1.83 1.83 0 00-.542 1.3v7.642a.7.7 0 01-.702.702.702.702 0 01-.704-.702v-3.79zM37.73 46.46a.705.705 0 010 1.408h-5.07a.705.705 0 01-.704-.704v-5.807c0-.869.356-1.66.93-2.234.414-.415.94-.715 1.53-.848v-1.592c-2-1.656-2.652-5.097-2.652-7.505 0-1.66.269-3.192.556-4.82a67.79 67.79 0 00.366-2.214h-2.24c-.893 0-1.7-.364-2.288-.951a3.23 3.23 0 01-.951-2.289v-2.641c0-.388.313-.704.704-.704h2.642a1.82 1.82 0 001.294-.54c.332-.332.54-.79.54-1.291a1.83 1.83 0 00-.54-1.295 1.83 1.83 0 00-1.294-.539h-2.642a.701.701 0 01-.704-.701V8.548c0-.89.364-1.7.951-2.285a3.226 3.226 0 012.288-.952h1.938v-1.94c0-.893.364-1.7.95-2.288a3.23 3.23 0 014.577 0c.587.588.951 1.395.951 2.288v1.94H40.8c.892 0 1.7.364 2.288.952a3.22 3.22 0 01.951 2.285v2.721c1.178 1.268 2.166 3.15 2.86 5.424.696 2.294 1.1 4.994 1.1 7.872 0 5.025-1.15 7.645-2.259 10.167-.502 1.143-.996 2.262-1.353 3.583.524.151.994.433 1.369.808.574.573.93 1.365.93 2.234v5.807a.706.706 0 01-.704.704h-5.068a.705.705 0 010-1.409h4.366v-5.102c0-.48-.2-.922-.518-1.24a1.759 1.759 0 00-1.238-.516h-8.403a1.75 1.75 0 00-1.241.515c-.32.32-.516.76-.516 1.241v5.103h4.364zm-27.46 1.408a.703.703 0 010-1.408h4.367v-5.103c0-.48-.2-.922-.519-1.24a1.748 1.748 0 00-1.238-.516H4.478a1.756 1.756 0 00-1.757 1.756v5.103h4.367a.703.703 0 010 1.408h-5.07a.703.703 0 01-.702-.704v-5.807c0-.869.356-1.66.927-2.234a3.21 3.21 0 011.369-.808c-.356-1.321-.848-2.44-1.35-3.583C1.15 32.21 0 29.59 0 24.565c0-2.623.308-5.06.869-7.178.55-2.084 1.35-3.864 2.341-5.203V8.548c0-.89.364-1.7.952-2.285A3.226 3.226 0 016.45 5.31h1.94V3.37c0-.893.364-1.7.949-2.288a3.23 3.23 0 014.576 0c.587.588.951 1.395.951 2.288v1.94h1.938a3.22 3.22 0 012.288.952 3.22 3.22 0 01.951 2.285v1.94h1.94c.89 0 1.7.364 2.288.951a3.225 3.225 0 010 4.576 3.24 3.24 0 01-2.288.95h-1.94v1.94c0 .89-.364 1.7-.951 2.287a3.222 3.222 0 01-2.288.952h-1.489c.11.768.24 1.501.364 2.213.287 1.63.558 3.16.558 4.821 0 2.408-.653 5.85-2.654 7.505v1.592a3.165 3.165 0 012.46 3.083v5.806a.703.703 0 01-.701.704h-5.07z" fill="#151F59"/></g><defs><clipPath id="clip0"><path fill="#fff" d="M0 0h48v48H0z"/></clipPath></defs></svg>