<svg width="42" height="42" fill="none" xmlns="http://www.w3.org/2000/svg"><g clip-path="url(#clip0)" fill="#151F59"><path d="M9.65 4.279c-.206-.489-.917-.509-1.142-.023a.63.63 0 00.142.72.63.63 0 00.74.08.63.63 0 00.26-.777zm4.246.001c-.211-.5-.942-.506-1.153 0a.63.63 0 00.19.728.63.63 0 00.706.046.63.63 0 00.257-.775zm-2.122 0a.63.63 0 00-.57-.386.63.63 0 00-.604.443.632.632 0 00.21.671.63.63 0 00.728.033.629.629 0 00.236-.762z"/><path d="M39.175 1.313H8.36a2.828 2.828 0 00-2.824 2.824V15.09a.624.624 0 101.248 0v-7.7h18.572v8.124a.624.624 0 001.006.493l7.887-6.111a.623.623 0 00.11-.878 10.723 10.723 0 00-1.576-1.628h7.968v24.232c0 .869-.707 1.576-1.576 1.576H21.11v-2.752c.863.223 1.753.336 2.658.336 5.852 0 10.614-4.761 10.614-10.614 0-.673-.063-1.347-.189-2.003a.625.625 0 00-1.226.235c.11.578.166 1.173.166 1.768a9.349 9.349 0 01-3.388 7.204l-5.118-7.081 6.901-5.366c.361.532.666 1.1.91 1.694a.624.624 0 101.155-.474 10.618 10.618 0 00-1.446-2.493.624.624 0 00-.876-.109l-6.88 5.349v-8.713a.624.624 0 00-.623-.625c-5.853 0-10.614 4.762-10.614 10.614 0 3.18 1.391 6.136 3.828 8.162v4.868h-1.574v-3.914a.625.625 0 00-.625-.625h-2.878a.625.625 0 00-.625.625v3.914H9.663V17.171a.624.624 0 00-.624-.624H6.16a.624.624 0 00-.624.624v22.903c0 .345.28.624.624.624h2.88c.345 0 .624-.28.624-.624v-5.627h1.617v5.627c0 .345.28.624.625.624h2.878c.345 0 .625-.28.625-.624v-5.627h1.574v5.627c0 .345.28.624.625.624h2.878c.345 0 .625-.28.625-.624v-5.627h18.065A2.828 2.828 0 0042 31.622V4.137a2.828 2.828 0 00-2.825-2.824zM6.785 39.449V17.796h1.63v21.653h-1.63zm5.744 0v-9.54h1.63v9.54h-1.63zm1.874-19.28c0-4.955 3.866-9.023 8.74-9.345v9.344c0 .134.044.26.12.365v.001l5.47 7.57a9.308 9.308 0 01-4.965 1.43c-.909 0-1.8-.13-2.658-.384v-4.86a.624.624 0 00-.625-.625h-2.878a.624.624 0 00-.625.624v2.336a9.305 9.305 0 01-2.58-6.457zm3.828 19.28V24.914h1.63v14.535h-1.63zm8.373-25.21V6.204a9.308 9.308 0 016.368 3.102l-6.368 4.935zm4.314-8.098a10.613 10.613 0 00-4.938-1.207.624.624 0 00-.625.625v.582H6.785V4.137c0-.869.706-1.576 1.575-1.576h30.815c.87 0 1.576.707 1.576 1.576v2.004h-9.833zM3.503 20.792H.625a.624.624 0 00-.625.625v18.657c0 .345.28.624.625.624h2.878c.345 0 .625-.28.625-.624v-5.046a.625.625 0 00-1.25 0v4.421h-1.63V22.041h1.63v10.905a.625.625 0 001.25 0v-11.53a.625.625 0 00-.625-.624z"/><path d="M39.216 30.178h-6.618a.625.625 0 000 1.25h6.618a.624.624 0 000-1.25zm0-2.642h-4.62a.624.624 0 000 1.248h4.62a.624.624 0 100-1.248z"/></g><defs><clipPath id="clip0"><path fill="#fff" d="M0 0h42v42H0z"/></clipPath></defs></svg>