<svg width="45" height="45" fill="none" xmlns="http://www.w3.org/2000/svg"><path d="M22.422 5.718a.885.885 0 00.885-.885V.885a.885.885 0 10-1.77 0v3.948c0 .489.396.885.885.885zm21.636 24.691l-1.564-1.56a2.934 2.934 0 00-2.087-.861c-.505 0-.99.126-1.42.361l-2.947-2.943.144-.143a3.072 3.072 0 000-4.338 3.037 3.037 0 00-1.541-.833c.08-.276.122-.566.122-.862a3.04 3.04 0 00-.898-2.169 3.04 3.04 0 00-1.54-.833 3.09 3.09 0 00.122-.86 3.04 3.04 0 00-.899-2.17 3.052 3.052 0 00-1.54-.832 3.077 3.077 0 00-.775-3.033 3.073 3.073 0 00-2.498-.876l-5.84-1.105c-.89-.17-2.002-.281-2.704.36-.044.04-.09.086-.134.138a3.078 3.078 0 00-3.23.71 3.045 3.045 0 00-.896 2.17c0 .296.042.585.122.861a3.03 3.03 0 00-1.538.832 3.041 3.041 0 00-.9 2.167c0 .297.042.587.122.864a3.04 3.04 0 00-1.54.83 3.048 3.048 0 00-.898 2.172c0 .629.188 1.228.536 1.734-.44.15-.842.397-1.18.734a3.073 3.073 0 00.002 4.34l.143.143-2.947 2.942a2.96 2.96 0 00-3.349.58l-1.564 1.56a2.93 2.93 0 00-.863 2.088c0 .79.306 1.532.863 2.087l7.534 7.523a.885.885 0 101.25-1.253l-7.533-7.522a1.172 1.172 0 01-.344-.835c0-.318.122-.614.343-.835l1.565-1.56c.39-.39.99-.45 1.444-.177a.889.889 0 00.365.313l8.973 8.96a.882.882 0 00.427.43c.19.215.295.49.295.782 0 .317-.122.614-.344.835l-1.563 1.561a1.19 1.19 0 01-1.674.002l-1.953-1.953a.885.885 0 00-1.251 1.252l1.954 1.954c.575.573 1.33.859 2.086.859a2.95 2.95 0 002.088-.86l1.564-1.562a2.93 2.93 0 00.863-2.088c0-.565-.157-1.103-.449-1.568L19.9 35.61l.01-.01c.38-.393 1.438-.32 2.46-.248.727.05 1.538.106 2.33.015l3.631 3.628a2.94 2.94 0 00-.36 1.417c0 .79.306 1.531.862 2.087l1.564 1.562a2.933 2.933 0 002.088.862 2.93 2.93 0 002.087-.862l9.488-9.475a2.93 2.93 0 00.863-2.088 2.93 2.93 0 00-.864-2.088zM20.568 9.09l3.84.727-2.298 2.297c-.356-.17-.843-.49-1.378-1-.731-.7-1.255-1.509-1.302-2.013a.8.8 0 01-.005-.088c.116-.028.424-.06 1.143.077zm-4.487.722a1.306 1.306 0 011.651-.157c.288 1.204 1.315 2.295 1.777 2.737.342.328 1.44 1.31 2.55 1.58.15.215.231.472.231.742a1.288 1.288 0 01-1.297 1.297 1.29 1.29 0 01-.92-.38l-3.992-3.985a1.286 1.286 0 01-.378-.917c0-.348.134-.674.378-.917zm-2.313 3.862c.243-.244.57-.378.918-.378.349 0 .676.134.921.38l3.214 3.207c.506.507.506 1.332.002 1.837a1.297 1.297 0 01-.922.378c-.35 0-.677-.134-.92-.377l-2.44-2.438-.011-.01-.763-.763a1.289 1.289 0 01-.38-.92c0-.347.135-.671.38-.916zm-2.318 3.862c.244-.243.57-.378.92-.378.347 0 .671.133.914.372l2.446 2.445c.244.242.378.568.378.916a1.29 1.29 0 01-1.298 1.295c-.35 0-.677-.135-.921-.378l-.887-.885v-.001l-1.552-1.55a1.29 1.29 0 01-.379-.918c0-.348.135-.674.38-.918zm-1.541 4.64c.245-.245.572-.38.92-.38.35 0 .677.135.922.379l.888.887c.244.243.378.568.378.916 0 .348-.134.674-.38.919a1.29 1.29 0 01-.92.378 1.29 1.29 0 01-.92-.38l-.111-.11-.004-.005-.005-.005-.767-.764a1.3 1.3 0 01-.001-1.836zm24.282 3.825a.885.885 0 00-1.252 0l-7.031 7.02c-.749.748-2.105.654-3.416.563-1.424-.1-2.896-.201-3.849.777l-3.26 3.256-8.153-8.14 2.885-2.88a3.057 3.057 0 001.603.448c.823 0 1.594-.319 2.17-.896.58-.577.9-1.348.9-2.17l-.001-.023h.023a3.05 3.05 0 002.169-.894c.58-.578.9-1.349.9-2.17l-.001-.024h.023a3.058 3.058 0 003.069-3.087h.024c.822 0 1.593-.319 2.17-.897a3.045 3.045 0 00.897-2.17c0-.575-.156-1.124-.448-1.6l2.53-2.528a1.299 1.299 0 01.742-.366c.39-.054.8.067 1.1.364.506.507.506 1.332.002 1.838l-.77.767-.008.007-.887.886a.885.885 0 101.25 1.252l.774-.772.117-.117a1.304 1.304 0 011.837.005c.244.242.378.568.378.916 0 .348-.134.673-.38.918l-.774.776-.888.884a.885.885 0 101.25 1.254l.89-.887a1.29 1.29 0 01.92-.378c.349 0 .675.134.92.38.244.243.379.568.379.916 0 .348-.135.674-.38.918l-1.544 1.545a.885.885 0 001.252 1.251l.757-.757.013-.012c.243-.244.57-.378.919-.378a1.3 1.3 0 01.92 2.214l-.77.768v.001l-.001.001L32.939 26a.885.885 0 101.251 1.252l.598-.596 2.863 2.86-8.152 8.142-2.921-2.917c6.448-6.365 6.642-6.52 6.825-6.702l.787-.787a.885.885 0 00.001-1.251zm8.616 7.33l-9.487 9.476a1.175 1.175 0 01-.836.343c-.318 0-.615-.122-.837-.343l-1.564-1.563a1.17 1.17 0 01-.344-.834c0-.316.122-.612.344-.834l9.487-9.475c.222-.222.52-.344.837-.344.317 0 .614.122.837.344l1.563 1.56c.222.221.344.518.344.835 0 .317-.122.614-.344.835zM10.668 4.972a.882.882 0 001.252-.001.885.885 0 00-.002-1.252L8.693.499a.885.885 0 10-1.25 1.254l3.225 3.219zm22.882.258a.883.883 0 00.625-.258l3.223-3.22A.885.885 0 1036.148.5l-3.224 3.22a.885.885 0 00.626 1.51z" fill="#151F59"/><path d="M5.521 38.075a.885.885 0 00.01 1.251l.003.003a.88.88 0 001.25-.012.887.887 0 00-1.263-1.242zm24.591-7.114a.886.886 0 10-.398-1.676l-.005.003a.885.885 0 00.403 1.673z" fill="#151F59"/></svg>