<svg width="52" height="52" fill="none" xmlns="http://www.w3.org/2000/svg"><path d="M26.679 28.38a.81.81 0 00-.293-.01 1.94 1.94 0 01-1.715-1.924.853.853 0 10-1.706 0 3.65 3.65 0 002.683 3.514v.853a.853.853 0 101.706 0v-.801a3.642 3.642 0 00-.746-7.208 1.937 1.937 0 111.937-1.936.853.853 0 101.705 0 3.65 3.65 0 00-2.896-3.566v-.776a.853.853 0 00-1.706 0v.828a3.642 3.642 0 00.96 7.156 1.935 1.935 0 01.07 3.87z" fill="#151F59"/><path d="M14.24 23.723c0 6.83 5.537 12.368 12.368 12.368s12.369-5.537 12.369-12.368-5.538-12.369-12.37-12.369c-6.827.008-12.36 5.54-12.368 12.369zM26.607 13.06c5.889 0 10.663 4.774 10.663 10.663s-4.774 10.662-10.663 10.662c-5.89 0-10.663-4.773-10.663-10.662.007-5.886 4.777-10.656 10.663-10.663z" fill="#151F59"/><path d="M43.182 38.194L36.5 41.351a5.442 5.442 0 00-4.64-2.863l-6.168-.17a6.513 6.513 0 01-2.803-.723l-.627-.325a11.07 11.07 0 00-10.255.01l.04-1.422a.853.853 0 00-.83-.876l-6.763-.186a.853.853 0 00-.876.83l-.409 14.842a.853.853 0 00.83.876l6.763.186h.023c.463 0 .84-.368.853-.83l.02-.71 1.757-.94a3.014 3.014 0 012.25-.247l10.492 2.945a11.232 11.232 0 002.361.252c1.642 0 3.263-.353 4.755-1.038a.8.8 0 00.106-.058l15.213-9.84a.853.853 0 00.28-1.137 4.309 4.309 0 00-5.69-1.733zM4.898 49.662l.362-13.137 5.058.139-.362 13.138-5.058-.14zm27.606-.223a9.67 9.67 0 01-5.914.66l-10.464-2.937a4.716 4.716 0 00-3.516.384l-.898.481.24-8.735a9.376 9.376 0 019.525-.508l.628.325a8.24 8.24 0 003.54.915l6.17.17a3.74 3.74 0 013.555 2.98l-9.188-.253a.853.853 0 00-.047 1.706l10.14.279h.023c.462 0 .84-.369.852-.83.01-.37-.017-.742-.082-1.107l6.853-3.238a2.606 2.606 0 012.967.403L32.504 49.44zM27.461 8.956V.853a.853.853 0 00-1.706 0v8.103a.853.853 0 001.706 0zm6.397 0V5.118a.853.853 0 00-1.706 0v3.838a.853.853 0 001.706 0zm-12.794 0V5.118a.853.853 0 00-1.706 0v3.838a.853.853 0 001.706 0z" fill="#151F59"/></svg>