<svg width="337" height="156" viewBox="0 0 337 156" fill="none" xmlns="http://www.w3.org/2000/svg">
<path d="M2.09375 78.2321C3.93638 75.9413 6.6662 72.7777 10.2832 70.0506C13.4908 67.5415 17.995 63.6144 23.5911 63.9417C29.392 64.2689 30.7569 68.4143 36.4895 68.1961C41.6079 67.978 41.8809 64.5962 50.5481 60.8872C57.3727 57.9419 60.785 56.5237 63.856 58.4873C67.8143 60.9963 68.6332 66.0143 76.0037 72.4505C77.7099 73.8686 78.5288 74.6323 79.416 74.8504C83.579 75.9413 86.0358 70.4869 92.3144 66.9961C94.9078 65.4689 94.2936 66.5598 99.139 64.5962C106.987 61.3236 113.539 56.6328 120.022 56.0874C120.841 55.9783 121.865 55.9783 123.093 56.7419C125.209 57.9419 126.028 60.2327 128.416 64.5962C131.078 69.396 132.375 71.796 133.74 72.4505C135.787 73.4323 136.947 71.796 140.974 70.0506C144.113 68.6324 143.499 69.6143 150.118 67.6507C157.557 65.4689 158.854 64.1599 161.857 65.2507C163.358 65.7962 163.29 66.2325 166.77 68.3052C170.183 70.3778 173.39 71.9051 175.096 72.5596C180.215 74.6323 185.47 73.9778 195.979 72.5596C200.347 72.0142 201.985 71.5778 203.555 69.5051C205.602 66.887 205.943 63.9417 207.718 55.5419C210.789 41.4696 211.13 44.3059 212.631 35.4698C214.201 26.5246 214.269 21.0703 217.204 18.4522C217.613 18.1249 217.818 18.0158 220.275 17.2522C229.147 14.3069 229.829 13.8705 231.262 14.1977C233.651 14.7432 233.378 16.1613 238.497 20.8521C242.045 24.1247 241.499 22.8157 255.217 31.2154C256.923 32.1972 257.81 32.8517 259.038 32.4154C261.495 31.6518 262.314 27.8337 266.272 19.6521C269.821 12.2342 271.186 11.2524 272.346 11.1433C273.506 11.0342 274.189 12.016 276.168 14.1977C282.515 21.1794 285.654 24.6702 289.066 24.5611C290.841 24.452 291.865 23.5793 293.639 24.5611C295.345 25.5429 295.755 27.2883 297.461 28.161C299.235 29.0337 300.873 28.161 302.033 27.5064C306.401 25.1065 307.083 20.3067 311.178 15.3977C312.679 13.5432 316.911 11.1433 325.237 6.34347C325.987 5.90711 328.376 4.59804 331.72 2.74356C333.29 1.87085 334.518 1.10725 335.337 0.670898" stroke="#2D2D2D" stroke-miterlimit="10" stroke-linecap="round" stroke-linejoin="round"/>
<g filter="url(#filter0_f)">
<path d="M2.09375 88.5739C3.93638 86.2831 6.6662 83.1195 10.2832 80.3924C13.4908 77.8833 17.995 73.9562 23.5911 74.2835C29.392 74.6107 30.7569 78.7561 36.4895 78.5379C41.6079 78.3198 41.8809 74.938 50.5481 71.229C57.3727 68.2837 60.785 66.8655 63.856 68.8291C67.8143 71.3381 68.6332 76.3561 76.0037 82.7923C77.7099 84.2104 78.5288 84.9741 79.416 85.1922C83.579 86.2831 86.0358 80.8287 92.3144 77.3379C94.9078 75.8107 94.2936 76.9016 99.139 74.938C106.987 71.6654 113.539 66.9746 120.022 66.4292C120.841 66.3201 121.865 66.3201 123.093 67.0837C125.209 68.2837 126.028 70.5745 128.416 74.938C131.078 79.7378 132.375 82.1378 133.74 82.7923C135.787 83.7741 136.947 82.1378 140.974 80.3924C144.113 78.9742 143.499 79.9561 150.118 77.9925C157.557 75.8107 158.854 74.5017 161.857 75.5925C163.358 76.138 163.29 76.5743 166.77 78.647C170.183 80.7196 173.39 82.2469 175.096 82.9014C180.215 84.9741 185.47 84.3196 195.979 82.9014C200.347 82.356 201.985 81.9196 203.555 79.8469C205.602 77.2288 205.943 74.2835 207.718 65.8837C210.789 51.8114 211.13 54.6477 212.631 45.8116C214.201 36.8664 214.269 31.4121 217.204 28.794C217.613 28.4667 217.818 28.3576 220.275 27.594C229.147 24.6487 229.829 24.2123 231.262 24.5395C233.651 25.085 233.378 26.5031 238.497 31.1939C242.045 34.4665 241.499 33.1575 255.217 41.5572C256.923 42.539 257.81 43.1935 259.038 42.7572C261.495 41.9936 262.314 38.1755 266.272 29.9939C269.821 22.576 271.186 21.5942 272.346 21.4851C273.506 21.376 274.189 22.3578 276.168 24.5395C282.515 31.5211 285.654 35.012 289.066 34.9029C290.841 34.7938 291.865 33.9211 293.639 34.9029C295.345 35.8847 295.755 37.6301 297.461 38.5028C299.235 39.3755 300.873 38.5028 302.033 37.8482C306.401 35.4483 307.083 30.6485 311.178 25.7395C312.679 23.885 316.911 21.4851 325.237 16.6853C325.987 16.2489 328.376 14.9398 331.72 13.0854C333.29 12.2127 334.518 11.449 335.337 11.0127" stroke="#2D2D2D" stroke-opacity="0.1" stroke-miterlimit="10" stroke-linecap="round" stroke-linejoin="round"/>
</g>
<path d="M335.337 0.670898C333.767 1.56305 327.963 5.02015 325.301 6.58141C316.971 11.4882 312.738 13.9416 311.236 15.8374C307.208 20.8558 306.457 25.7626 302.088 28.216C300.995 28.8851 299.289 29.7773 297.513 28.8851C295.807 27.993 295.465 26.2087 293.69 25.205C291.915 24.2013 290.959 25.0935 289.116 25.205C285.702 25.3165 282.493 21.7479 276.212 14.6107C274.232 12.3804 273.618 11.4882 272.389 11.4882C271.228 11.5997 269.863 12.6034 266.312 20.1867C262.353 28.5506 261.533 32.4537 259.075 33.2344C257.846 33.5689 256.959 33.0113 255.252 32.0076C241.529 23.4207 242.075 24.7589 238.525 21.4134C233.405 16.6181 233.678 15.0568 231.288 14.6107C229.854 14.2762 229.172 14.7223 220.296 17.7333C217.838 18.5139 217.702 18.6254 217.224 18.96C214.356 21.5249 214.22 27.1008 212.649 36.3569C211.079 45.2784 210.738 42.3789 207.734 56.8763C205.959 65.4632 205.617 68.4742 203.569 71.1507C201.999 73.158 200.36 73.7157 195.991 74.2732C185.477 75.723 180.219 76.3921 175.099 74.2732C173.392 73.6041 170.183 72.0428 166.77 69.924C163.288 67.8051 163.288 67.3591 161.854 66.8015C158.782 65.6863 157.484 67.0245 150.111 69.2549C143.488 71.2622 144.171 70.2585 140.962 71.7083C136.934 73.6041 135.773 75.1654 133.725 74.1617C132.36 73.4926 131.063 71.0391 128.4 66.1323C126.01 61.6716 125.191 59.3297 123.074 58.103C121.846 57.4339 120.821 57.4339 120.002 57.4339C113.516 57.88 106.962 62.7868 99.1105 66.1323C94.2631 68.1397 94.8775 67.136 92.2831 68.5858C86.0019 72.2659 83.5441 77.8418 79.3794 76.6151C78.4919 76.3921 77.6043 75.6114 75.9658 74.1617C68.5922 67.5821 67.7729 62.4522 63.813 59.8873C60.7407 57.88 57.327 59.4412 50.4997 62.3407C41.829 66.1324 41.5559 69.5895 36.4354 69.8125C30.7004 70.0355 29.3349 65.7978 23.5316 65.4632C17.9332 65.1287 3.93714 75.7229 2.09375 80.6298V155.793H335.269V0.670898H335.337Z" fill="url(#paint0_linear)"/>
<defs>
<filter id="filter0_f" x="0.59375" y="9.5127" width="336.243" height="80.5613" filterUnits="userSpaceOnUse" color-interpolation-filters="sRGB">
<feFlood flood-opacity="0" result="BackgroundImageFix"/>
<feBlend mode="normal" in="SourceGraphic" in2="BackgroundImageFix" result="shape"/>
<feGaussianBlur stdDeviation="0.5" result="effect1_foregroundBlur"/>
</filter>
<linearGradient id="paint0_linear" x1="168.749" y1="155.793" x2="168.749" y2="0.659081" gradientUnits="userSpaceOnUse">
<stop stop-color="white" stop-opacity="0"/>
<stop offset="0.880208" stop-color="#3B3B3B" stop-opacity="0.2506"/>
<stop offset="1" stop-color="#333333" stop-opacity="0.3"/>
</linearGradient>
</defs>
</svg>
