<svg width="1120" height="242" viewBox="0 0 1120 242" fill="none" xmlns="http://www.w3.org/2000/svg">
<path d="M4.375 188.091C18.7332 189.166 39.6576 189.233 63.0334 183.392C64.5217 182.989 66.1852 182.586 80.5434 178.021C116.176 166.675 128.958 162.11 147.081 156.538C166.167 150.63 180.788 146.804 192.607 143.783C253.367 128.073 261.421 131.161 292.414 120.957C297.229 119.345 304.934 116.66 316.052 115.586C328.747 114.31 335.489 116.19 351.072 116.929C362.979 117.466 371.384 116.996 383.466 116.257C407.279 114.847 425.752 110.819 443.875 106.858C474.168 100.212 486.424 94.9084 500.783 100.145C505.948 102.025 508.925 104.374 512.164 106.858C524.246 116.123 550.599 135.659 564.694 143.783C592.885 160.096 599.276 146.401 638.236 164.594C652.507 171.241 666.164 179.901 685.513 178.693C690.416 178.424 689.365 177.887 703.898 175.336C730.338 170.771 736.204 172.113 747.673 168.622C757.041 165.803 758.004 163.386 774.814 153.181C819.289 126.193 831.809 131.228 850.982 114.243C854.046 111.558 860.437 105.449 871.119 103.502C876.547 102.495 880.574 103.032 890.38 104.173C908.853 106.321 918.133 107.395 921.897 107.53C936.256 108.134 947.024 105.247 961.295 101.488C981.869 96.0497 980.906 92.7601 997.19 90.0747C1013.39 87.3893 1027.83 87.3893 1027.83 87.3893C1037.2 87.3893 1042.37 88.1278 1049.72 86.0466C1057.25 83.8983 1062.15 80.2059 1065.48 77.3191C1082.11 63.1537 1090.96 44.8259 1102.25 26.2967C1105.84 20.3888 1111.36 11.7955 1118.88 1.45679" stroke="#323232" stroke-miterlimit="10" stroke-linecap="round"/>
<g filter="url(#filter0_f)">
<path d="M1.79492 200.991C16.1531 202.065 37.0775 202.132 60.4533 196.291C61.9417 195.889 63.6051 195.486 77.9633 190.921C113.596 179.575 126.378 175.01 144.501 169.438C163.587 163.53 178.208 159.703 190.027 156.682C250.787 140.972 258.841 144.061 289.834 133.856C294.649 132.245 302.354 129.559 313.472 128.485C326.167 127.21 332.908 129.09 348.492 129.828C360.399 130.365 368.804 129.895 380.886 129.157C404.699 127.747 423.172 123.719 441.295 119.758C471.587 113.111 483.844 107.808 498.203 113.044C503.368 114.924 506.345 117.274 509.584 119.758C521.666 129.022 548.018 148.559 562.114 156.682C590.305 172.996 596.696 159.3 635.656 177.494C649.926 184.14 663.584 192.8 682.933 191.592C687.836 191.323 686.785 190.786 701.318 188.235C727.758 183.67 733.624 185.013 745.093 181.522C754.461 178.702 755.424 176.285 772.234 166.081C816.709 139.093 829.229 144.128 848.402 127.143C851.466 124.457 857.857 118.348 868.538 116.401C873.967 115.394 877.994 115.931 887.799 117.072C906.272 119.221 915.553 120.295 919.317 120.429C933.676 121.033 944.444 118.147 958.715 114.387C979.289 108.949 978.326 105.66 994.61 102.974C1010.81 100.289 1025.25 100.289 1025.25 100.289C1034.62 100.289 1039.79 101.027 1047.14 98.946C1054.67 96.7977 1059.57 93.1053 1062.9 90.2185C1079.53 76.0531 1088.38 57.7253 1099.67 39.1961C1103.26 33.2882 1108.78 24.695 1116.3 14.3562" stroke="black" stroke-opacity="0.13" stroke-miterlimit="10" stroke-linecap="round"/>
</g>
<path d="M1118.45 1.45679C1110.92 11.7634 1105.41 20.3299 1101.82 26.2194C1090.53 44.6909 1081.69 62.9616 1065.06 77.083C1061.74 79.9608 1056.84 83.6417 1049.31 85.7834C1041.96 87.8581 1036.8 87.1219 1027.43 87.1219C1027.43 87.1219 1012.99 87.1219 996.801 89.7989C980.523 92.4759 981.485 95.7553 960.919 101.176C946.654 104.924 935.89 107.802 921.537 107.2C917.774 107.066 908.497 105.995 890.032 103.853C880.23 102.716 876.204 102.18 870.778 103.184C860.101 105.125 853.713 111.215 850.65 113.892C831.484 130.824 818.969 125.805 774.511 152.709C757.708 162.882 756.746 165.291 747.381 168.102C735.917 171.582 730.053 170.244 703.624 174.795C689.096 177.338 690.146 177.873 685.245 178.141C665.904 179.346 652.252 170.712 637.987 164.087C599.043 145.95 592.654 159.603 564.474 143.34C550.384 135.242 524.042 115.766 511.965 106.53C508.727 104.054 505.751 101.712 500.588 99.8378C486.235 94.6176 473.983 99.9047 443.703 106.53C425.587 110.479 407.121 114.495 383.317 115.9C371.24 116.636 362.838 117.105 350.936 116.569C335.359 115.833 328.62 113.959 315.93 115.231C304.816 116.302 297.114 118.979 292.301 120.585C261.32 130.758 253.269 127.679 192.533 143.34C180.719 146.351 166.104 150.166 147.025 156.055C128.91 161.61 116.132 166.161 80.5135 177.472C66.1609 182.023 64.4981 182.424 63.0104 182.826C39.6437 188.648 18.7275 188.581 4.375 187.511V241.386H1118.88L1118.45 1.45679Z" fill="url(#paint0_linear)" fill-opacity="0.5"/>
<defs>
<filter id="filter0_f" x="0.294922" y="12.8562" width="1117.51" height="190.198" filterUnits="userSpaceOnUse" color-interpolation-filters="sRGB">
<feFlood flood-opacity="0" result="BackgroundImageFix"/>
<feBlend mode="normal" in="SourceGraphic" in2="BackgroundImageFix" result="shape"/>
<feGaussianBlur stdDeviation="0.5" result="effect1_foregroundBlur"/>
</filter>
<linearGradient id="paint0_linear" x1="561.63" y1="241.386" x2="561.63" y2="1.45679" gradientUnits="userSpaceOnUse">
<stop stop-color="white" stop-opacity="0"/>
<stop offset="0.5279" stop-opacity="0.3"/>
<stop offset="0.6006" stop-opacity="0.3"/>
</linearGradient>
</defs>
</svg>
