<svg  viewBox="0 0 372 218" fill="none" xmlns="http://www.w3.org/2000/svg">
<path opacity="0.29" d="M38.0938 8.06152H371.337" stroke="#8C8989" stroke-opacity="0.54" stroke-width="0.5" stroke-miterlimit="10"/>
<path opacity="0.29" d="M38.0938 26.1592H371.337" stroke="#8C8989" stroke-opacity="0.54" stroke-width="0.5" stroke-miterlimit="10"/>
<path opacity="0.29" d="M38.0938 44.2568H371.337" stroke="#8C8989" stroke-opacity="0.54" stroke-width="0.5" stroke-miterlimit="10"/>
<path opacity="0.29" d="M38.0938 62.3545H371.337" stroke="#8C8989" stroke-opacity="0.54" stroke-width="0.5" stroke-miterlimit="10"/>
<path opacity="0.29" d="M38.0938 80.4521H371.337" stroke="#8C8989" stroke-opacity="0.54" stroke-width="0.5" stroke-miterlimit="10"/>
<path opacity="0.29" d="M38.0938 98.5488H371.337" stroke="#8C8989" stroke-opacity="0.54" stroke-width="0.5" stroke-miterlimit="10"/>
<path opacity="0.29" d="M38.0938 116.647H371.337" stroke="#8C8989" stroke-opacity="0.54" stroke-width="0.5" stroke-miterlimit="10"/>
<path opacity="0.29" d="M38.0938 134.745H371.337" stroke="#8C8989" stroke-opacity="0.54" stroke-width="0.5" stroke-miterlimit="10"/>
<path opacity="0.29" d="M38.0938 152.842H371.337" stroke="#8C8989" stroke-opacity="0.54" stroke-width="0.5" stroke-miterlimit="10"/>
<path opacity="0.29" d="M38.0938 170.94H371.337" stroke="#8C8989" stroke-opacity="0.54" stroke-width="0.5" stroke-miterlimit="10"/>
<path opacity="0.29" d="M38.0938 189.037H371.337" stroke="#8C8989" stroke-opacity="0.54" stroke-width="0.5" stroke-miterlimit="10"/>
<path d="M0.572762 1.36243H2.45376V10.6473H1.5035V2.27135H0L0.572762 1.36243Z" fill="#333333"/>
<path d="M5.92288 6.00802C5.92288 4.7835 6.05739 3.83671 6.32641 3.16764C6.59978 2.49858 6.98379 1.99152 7.47845 1.64646C7.9731 1.30141 8.52634 1.12888 9.13815 1.12888C9.75865 1.12888 10.3206 1.30351 10.8239 1.65277C11.3272 1.99783 11.7243 2.51751 12.015 3.21183C12.31 3.90614 12.4576 4.8382 12.4576 6.00802C12.4576 7.17363 12.3122 8.10148 12.0215 8.79159C11.7351 9.4817 11.3381 10.0035 10.8304 10.357C10.3227 10.7062 9.75865 10.8808 9.13815 10.8808C8.52634 10.8808 7.97527 10.7104 7.48495 10.3696C6.99464 10.0287 6.61063 9.52167 6.33292 8.8484C6.05956 8.17091 5.92288 7.22412 5.92288 6.00802ZM6.82758 6.02696C6.82758 7.07474 6.92304 7.86794 7.11396 8.40656C7.30922 8.94097 7.5956 9.34704 7.9731 9.62477C8.35061 9.90249 8.7498 10.0414 9.1707 10.0414C9.59593 10.0414 9.99296 9.9067 10.3618 9.63739C10.7306 9.36387 11.0105 8.9557 11.2014 8.41287C11.44 7.75222 11.5594 6.95692 11.5594 6.02696C11.5594 5.09279 11.4531 4.32904 11.2404 3.73572C11.0278 3.13819 10.7328 2.70266 10.3553 2.42914C9.98211 2.15142 9.58725 2.01256 9.1707 2.01256C8.74546 2.01256 8.34627 2.15142 7.9731 2.42914C7.59994 2.70266 7.31573 3.10873 7.12047 3.64735C6.92521 4.18176 6.82758 4.97496 6.82758 6.02696Z" fill="#333333"/>
<path d="M13.3167 6.00802C13.3167 4.7835 13.4512 3.83671 13.7202 3.16764C13.9936 2.49858 14.3776 1.99152 14.8723 1.64646C15.3669 1.30141 15.9202 1.12888 16.532 1.12888C17.1525 1.12888 17.7144 1.30351 18.2177 1.65277C18.7211 1.99783 19.1181 2.51751 19.4088 3.21183C19.7039 3.90614 19.8514 4.8382 19.8514 6.00802C19.8514 7.17363 19.706 8.10148 19.4153 8.79159C19.1289 9.4817 18.7319 10.0035 18.2242 10.357C17.7166 10.7062 17.1525 10.8808 16.532 10.8808C15.9202 10.8808 15.3691 10.7104 14.8788 10.3696C14.3885 10.0287 14.0045 9.52167 13.7268 8.8484C13.4534 8.17091 13.3167 7.22412 13.3167 6.00802ZM14.2214 6.02696C14.2214 7.07474 14.3169 7.86794 14.5078 8.40656C14.7031 8.94097 14.9894 9.34704 15.3669 9.62477C15.7444 9.90249 16.1436 10.0414 16.5645 10.0414C16.9898 10.0414 17.3868 9.9067 17.7556 9.63739C18.1244 9.36387 18.4043 8.9557 18.5952 8.41287C18.8339 7.75222 18.9532 6.95692 18.9532 6.02696C18.9532 5.09279 18.8469 4.32904 18.6343 3.73572C18.4217 3.13819 18.1266 2.70266 17.7491 2.42914C17.3759 2.15142 16.9811 2.01256 16.5645 2.01256C16.1393 2.01256 15.7401 2.15142 15.3669 2.42914C14.9938 2.70266 14.7096 3.10873 14.5143 3.64735C14.319 4.18176 14.2214 4.97496 14.2214 6.02696Z" fill="#333333"/>
<path d="M29.2759 0.952148L22.2987 11.2911H21.4395L27.7855 1.87369C27.0348 2.05043 26.1192 2.13879 25.0388 2.13879L24.6873 2.13248C24.9564 2.49437 25.0909 2.87729 25.0909 3.28126C25.0909 3.85775 24.8826 4.37322 24.466 4.82769C24.0538 5.28215 23.5049 5.50938 22.8193 5.50938C22.1902 5.50938 21.6608 5.29898 21.2312 4.87818C20.8017 4.45318 20.5869 3.9377 20.5869 3.33175C20.5869 2.92779 20.6845 2.5617 20.8798 2.23347C21.075 1.90104 21.3527 1.63384 21.7129 1.43186C22.073 1.22987 22.4418 1.12888 22.8193 1.12888C22.9799 1.12888 23.2446 1.16675 23.6134 1.2425C24.1775 1.36032 24.7893 1.41923 25.4488 1.41923C25.9348 1.41923 26.3926 1.38978 26.8222 1.33087C27.2561 1.26775 27.818 1.14151 28.5079 0.952148H29.2759ZM22.8389 1.9305C22.444 1.9305 22.1077 2.06726 21.83 2.34078C21.5523 2.61009 21.4135 2.9362 21.4135 3.31913C21.4135 3.70205 21.5523 4.02817 21.83 4.29748C22.1077 4.56679 22.444 4.70145 22.8389 4.70145C23.2337 4.70145 23.57 4.56679 23.8477 4.29748C24.1298 4.02817 24.2708 3.70205 24.2708 3.31913C24.2708 2.9362 24.1298 2.61009 23.8477 2.34078C23.57 2.06726 23.2337 1.9305 22.8389 1.9305ZM28.0653 6.55085C28.6858 6.55085 29.2152 6.76545 29.6534 7.19467C30.096 7.61967 30.3173 8.13304 30.3173 8.73478C30.3173 9.33652 30.096 9.852 29.6534 10.2812C29.2152 10.7062 28.6858 10.9187 28.0653 10.9187C27.4448 10.9187 26.9133 10.7062 26.4707 10.2812C26.0325 9.852 25.8133 9.33652 25.8133 8.73478C25.8133 8.13304 26.0325 7.61967 26.4707 7.19467C26.9133 6.76545 27.4448 6.55085 28.0653 6.55085ZM28.0653 7.35246C27.6705 7.35246 27.3342 7.48712 27.0565 7.75643C26.7788 8.02574 26.6399 8.35186 26.6399 8.73478C26.6399 9.11771 26.7788 9.44382 27.0565 9.71313C27.3342 9.98244 27.6705 10.1171 28.0653 10.1171C28.4602 10.1171 28.7965 9.98244 29.0742 9.71313C29.3562 9.44382 29.4972 9.11771 29.4972 8.73478C29.4972 8.35186 29.3562 8.02574 29.0742 7.75643C28.7965 7.48712 28.4602 7.35246 28.0653 7.35246Z" fill="#333333"/>
<path d="M3.32983 28.9785L2.54228 28.4861L5.12622 24.6863C4.77909 24.7957 4.45366 24.8505 4.14992 24.8505C3.39058 24.8505 2.74622 24.5853 2.21685 24.0551C1.68748 23.5207 1.42279 22.8643 1.42279 22.0858C1.42279 21.5514 1.5508 21.0696 1.8068 20.6404C2.06281 20.2112 2.42513 19.8682 2.89375 19.6115C3.36671 19.3548 3.87222 19.2265 4.41027 19.2265C4.93964 19.2265 5.42779 19.3506 5.87471 19.5989C6.32598 19.8472 6.67962 20.1943 6.93562 20.6404C7.19163 21.0864 7.31963 21.5619 7.31963 22.0669C7.31963 22.4498 7.23936 22.8517 7.07881 23.2725C6.92261 23.6891 6.64056 24.1919 6.23269 24.781L3.32983 28.9785ZM4.37121 24.0362C4.93096 24.0362 5.40609 23.8469 5.79661 23.4681C6.19147 23.0852 6.3889 22.6244 6.3889 22.0858C6.3889 21.5472 6.19147 21.0885 5.79661 20.7098C5.40609 20.3269 4.93096 20.1354 4.37121 20.1354C3.81581 20.1354 3.34068 20.3269 2.94582 20.7098C2.5553 21.0885 2.36004 21.5472 2.36004 22.0858C2.36004 22.6244 2.5553 23.0852 2.94582 23.4681C3.34068 23.8469 3.81581 24.0362 4.37121 24.0362Z" fill="#333333"/>
<path d="M8.58882 24.1056C8.58882 22.8811 8.72333 21.9343 8.99236 21.2653C9.26572 20.5962 9.64973 20.0891 10.1444 19.7441C10.639 19.399 11.1923 19.2265 11.8041 19.2265C12.4246 19.2265 12.9865 19.4011 13.4898 19.7504C13.9932 20.0954 14.3902 20.6151 14.6809 21.3094C14.976 22.0038 15.1235 22.9358 15.1235 24.1056C15.1235 25.2712 14.9782 26.1991 14.6874 26.8892C14.4011 27.5793 14.004 28.1011 13.4963 28.4546C12.9887 28.8038 12.4246 28.9785 11.8041 28.9785C11.1923 28.9785 10.6412 28.808 10.1509 28.4672C9.66058 28.1264 9.27657 27.6193 8.99887 26.946C8.7255 26.2685 8.58882 25.3217 8.58882 24.1056ZM9.49353 24.1246C9.49353 25.1724 9.58899 25.9656 9.77991 26.5042C9.97517 27.0386 10.2615 27.4447 10.639 27.7224C11.0166 28.0001 11.4157 28.139 11.8366 28.139C12.2619 28.139 12.6589 28.0043 13.0277 27.735C13.3966 27.4615 13.6764 27.0533 13.8673 26.5105C14.106 25.8498 14.2253 25.0545 14.2253 24.1246C14.2253 23.1904 14.119 22.4267 13.9064 21.8333C13.6938 21.2358 13.3987 20.8003 13.0212 20.5268C12.6481 20.249 12.2532 20.1102 11.8366 20.1102C11.4114 20.1102 11.0122 20.249 10.639 20.5268C10.2659 20.8003 9.98168 21.2064 9.78642 21.745C9.59116 22.2794 9.49353 23.0726 9.49353 24.1246Z" fill="#333333"/>
<path d="M24.548 19.0498L17.5708 29.3887H16.7116L23.0576 19.9713C22.3069 20.148 21.3913 20.2364 20.3109 20.2364L19.9594 20.2301C20.2285 20.592 20.363 20.9749 20.363 21.3789C20.363 21.9554 20.1547 22.4708 19.7381 22.9253C19.3259 23.3798 18.777 23.607 18.0915 23.607C17.4623 23.607 16.9329 23.3966 16.5033 22.9758C16.0738 22.5508 15.859 22.0353 15.859 21.4294C15.859 21.0254 15.9566 20.6593 16.1519 20.3311C16.3471 19.9987 16.6248 19.7315 16.985 19.5295C17.3451 19.3275 17.714 19.2265 18.0915 19.2265C18.252 19.2265 18.5167 19.2644 18.8855 19.3401C19.4496 19.4579 20.0614 19.5169 20.721 19.5169C21.2069 19.5169 21.6647 19.4874 22.0943 19.4285C22.5282 19.3654 23.0901 19.2391 23.78 19.0498H24.548ZM18.111 20.0281C17.7161 20.0281 17.3798 20.1649 17.1021 20.4384C16.8244 20.7077 16.6856 21.0338 16.6856 21.4167C16.6856 21.7997 16.8244 22.1258 17.1021 22.3951C17.3798 22.6644 17.7161 22.7991 18.111 22.7991C18.5058 22.7991 18.8421 22.6644 19.1198 22.3951C19.4019 22.1258 19.5429 21.7997 19.5429 21.4167C19.5429 21.0338 19.4019 20.7077 19.1198 20.4384C18.8421 20.1649 18.5058 20.0281 18.111 20.0281ZM23.3374 24.6485C23.9579 24.6485 24.4873 24.8631 24.9255 25.2923C25.3681 25.7173 25.5894 26.2307 25.5894 26.8324C25.5894 27.4341 25.3681 27.9496 24.9255 28.3788C24.4873 28.8038 23.9579 29.0163 23.3374 29.0163C22.7169 29.0163 22.1854 28.8038 21.7428 28.3788C21.3046 27.9496 21.0854 27.4341 21.0854 26.8324C21.0854 26.2307 21.3046 25.7173 21.7428 25.2923C22.1854 24.8631 22.7169 24.6485 23.3374 24.6485ZM23.3374 25.4501C22.9426 25.4501 22.6063 25.5847 22.3286 25.854C22.0509 26.1234 21.912 26.4495 21.912 26.8324C21.912 27.2153 22.0509 27.5414 22.3286 27.8108C22.6063 28.0801 22.9426 28.2147 23.3374 28.2147C23.7323 28.2147 24.0686 28.0801 24.3463 27.8108C24.6283 27.5414 24.7693 27.2153 24.7693 26.8324C24.7693 26.4495 24.6283 26.1234 24.3463 25.854C24.0686 25.5847 23.7323 25.4501 23.3374 25.4501Z" fill="#333333"/>
<path d="M5.89424 41.7488C6.54077 42.0602 7.00288 42.4158 7.28058 42.8155C7.56262 43.2153 7.70365 43.6697 7.70365 44.1789C7.70365 44.8943 7.46282 45.5255 6.98118 46.0725C6.39107 46.7416 5.54711 47.0761 4.44932 47.0761C3.39058 47.0761 2.58784 46.7836 2.04111 46.1987C1.49439 45.6096 1.22102 44.9616 1.22102 44.2546C1.22102 43.7371 1.36421 43.2721 1.6506 42.8597C1.93698 42.4431 2.41428 42.0728 3.0825 41.7488C2.61388 41.5132 2.26241 41.2207 2.0281 40.8714C1.79379 40.5222 1.67663 40.1477 1.67663 39.7479C1.67663 39.3439 1.80029 38.9505 2.04762 38.5676C2.29929 38.1804 2.64425 37.8775 3.0825 37.6587C3.52509 37.4356 4.00239 37.3241 4.5144 37.3241C5.0134 37.3241 5.47552 37.4356 5.90075 37.6587C6.32598 37.8817 6.65792 38.1847 6.89657 38.5676C7.13956 38.9505 7.26106 39.3524 7.26106 39.7732C7.26106 40.194 7.14607 40.5685 6.9161 40.8967C6.69046 41.2249 6.34984 41.5089 5.89424 41.7488ZM4.46884 38.2267C3.94381 38.2267 3.50773 38.3782 3.1606 38.6812C2.81781 38.98 2.64642 39.3376 2.64642 39.7542C2.64642 40.1666 2.83083 40.5411 3.19966 40.8778C3.57282 41.2102 4.00673 41.3764 4.50139 41.3764C4.81814 41.3764 5.11754 41.3007 5.39958 41.1492C5.68162 40.9977 5.90075 40.7915 6.05696 40.5306C6.2175 40.2655 6.29778 40.0004 6.29778 39.7353C6.29778 39.3608 6.14157 39.0157 5.82915 38.7001C5.51674 38.3845 5.0633 38.2267 4.46884 38.2267ZM4.5144 42.2159C3.85486 42.2159 3.30162 42.4242 2.8547 42.8408C2.40777 43.2531 2.1843 43.735 2.1843 44.2862C2.1843 44.6271 2.27977 44.949 2.47069 45.2519C2.66161 45.5549 2.92846 45.7884 3.27125 45.9526C3.61404 46.1167 4.01107 46.1987 4.46233 46.1987C5.16093 46.1987 5.71634 45.9988 6.12855 45.5991C6.54077 45.1993 6.74687 44.7323 6.74687 44.1978C6.74687 43.6803 6.52775 43.2216 6.0895 42.8218C5.65559 42.4179 5.13056 42.2159 4.5144 42.2159Z" fill="#333333"/>
<path d="M8.58882 42.2033C8.58882 40.9787 8.72333 40.032 8.99236 39.3629C9.26572 38.6938 9.64973 38.1868 10.1444 37.8417C10.639 37.4967 11.1923 37.3241 11.8041 37.3241C12.4246 37.3241 12.9865 37.4988 13.4898 37.848C13.9932 38.1931 14.3902 38.7128 14.6809 39.4071C14.976 40.1014 15.1235 41.0334 15.1235 42.2033C15.1235 43.3689 14.9782 44.2967 14.6874 44.9868C14.4011 45.6769 14.004 46.1987 13.4963 46.5522C12.9887 46.9015 12.4246 47.0761 11.8041 47.0761C11.1923 47.0761 10.6412 46.9057 10.1509 46.5648C9.66058 46.224 9.27657 45.7169 8.99887 45.0436C8.7255 44.3662 8.58882 43.4194 8.58882 42.2033ZM9.49353 42.2222C9.49353 43.27 9.58899 44.0632 9.77991 44.6018C9.97517 45.1362 10.2615 45.5423 10.639 45.82C11.0166 46.0977 11.4157 46.2366 11.8366 46.2366C12.2619 46.2366 12.6589 46.1019 13.0277 45.8326C13.3966 45.5591 13.6764 45.1509 13.8673 44.6081C14.106 43.9475 14.2253 43.1522 14.2253 42.2222C14.2253 41.288 14.119 40.5243 13.9064 39.931C13.6938 39.3334 13.3987 38.8979 13.0212 38.6244C12.6481 38.3467 12.2532 38.2078 11.8366 38.2078C11.4114 38.2078 11.0122 38.3467 10.639 38.6244C10.2659 38.8979 9.98168 39.304 9.78642 39.8426C9.59116 40.377 9.49353 41.1702 9.49353 42.2222Z" fill="#333333"/>
<path d="M24.548 37.1474L17.5708 47.4864H16.7116L23.0576 38.0689C22.3069 38.2457 21.3913 38.334 20.3109 38.334L19.9594 38.3277C20.2285 38.6896 20.363 39.0725 20.363 39.4765C20.363 40.053 20.1547 40.5685 19.7381 41.0229C19.3259 41.4774 18.777 41.7046 18.0915 41.7046C17.4623 41.7046 16.9329 41.4942 16.5033 41.0734C16.0738 40.6484 15.859 40.1329 15.859 39.527C15.859 39.123 15.9566 38.7569 16.1519 38.4287C16.3471 38.0963 16.6248 37.8291 16.985 37.6271C17.3451 37.4251 17.714 37.3241 18.0915 37.3241C18.252 37.3241 18.5167 37.362 18.8855 37.4377C19.4496 37.5556 20.0614 37.6145 20.721 37.6145C21.2069 37.6145 21.6647 37.585 22.0943 37.5261C22.5282 37.463 23.0901 37.3367 23.78 37.1474H24.548ZM18.111 38.1257C17.7161 38.1257 17.3798 38.2625 17.1021 38.536C16.8244 38.8053 16.6856 39.1314 16.6856 39.5144C16.6856 39.8973 16.8244 40.2234 17.1021 40.4927C17.3798 40.762 17.7161 40.8967 18.111 40.8967C18.5058 40.8967 18.8421 40.762 19.1198 40.4927C19.4019 40.2234 19.5429 39.8973 19.5429 39.5144C19.5429 39.1314 19.4019 38.8053 19.1198 38.536C18.8421 38.2625 18.5058 38.1257 18.111 38.1257ZM23.3374 42.7461C23.9579 42.7461 24.4873 42.9607 24.9255 43.3899C25.3681 43.8149 25.5894 44.3283 25.5894 44.93C25.5894 45.5318 25.3681 46.0472 24.9255 46.4765C24.4873 46.9015 23.9579 47.114 23.3374 47.114C22.7169 47.114 22.1854 46.9015 21.7428 46.4765C21.3046 46.0472 21.0854 45.5318 21.0854 44.93C21.0854 44.3283 21.3046 43.8149 21.7428 43.3899C22.1854 42.9607 22.7169 42.7461 23.3374 42.7461ZM23.3374 43.5477C22.9426 43.5477 22.6063 43.6824 22.3286 43.9517C22.0509 44.221 21.912 44.5471 21.912 44.93C21.912 45.3129 22.0509 45.6391 22.3286 45.9084C22.6063 46.1777 22.9426 46.3123 23.3374 46.3123C23.7323 46.3123 24.0686 46.1777 24.3463 45.9084C24.6283 45.6391 24.7693 45.3129 24.7693 44.93C24.7693 44.5471 24.6283 44.221 24.3463 43.9517C24.0686 43.6824 23.7323 43.5477 23.3374 43.5477Z" fill="#333333"/>
<path d="M1.7287 55.6553H7.80128L2.67896 65.1737L1.89142 64.7824L6.3173 56.5326H1.7287V55.6553Z" fill="#333333"/>
<path d="M8.58882 60.3009C8.58882 59.0764 8.72333 58.1296 8.99236 57.4605C9.26572 56.7914 9.64973 56.2844 10.1444 55.9393C10.639 55.5943 11.1923 55.4217 11.8041 55.4217C12.4246 55.4217 12.9865 55.5964 13.4898 55.9456C13.9932 56.2907 14.3902 56.8104 14.6809 57.5047C14.976 58.199 15.1235 59.1311 15.1235 60.3009C15.1235 61.4665 14.9782 62.3943 14.6874 63.0844C14.4011 63.7746 14.004 64.2963 13.4963 64.6498C12.9887 64.9991 12.4246 65.1737 11.8041 65.1737C11.1923 65.1737 10.6412 65.0033 10.1509 64.6624C9.66058 64.3216 9.27657 63.8145 8.99887 63.1413C8.7255 62.4638 8.58882 61.517 8.58882 60.3009ZM9.49353 60.3198C9.49353 61.3676 9.58899 62.1608 9.77991 62.6994C9.97517 63.2338 10.2615 63.6399 10.639 63.9176C11.0166 64.1954 11.4157 64.3342 11.8366 64.3342C12.2619 64.3342 12.6589 64.1996 13.0277 63.9303C13.3966 63.6567 13.6764 63.2486 13.8673 62.7057C14.106 62.0451 14.2253 61.2498 14.2253 60.3198C14.2253 59.3856 14.119 58.6219 13.9064 58.0286C13.6938 57.431 13.3987 56.9955 13.0212 56.722C12.6481 56.4443 12.2532 56.3054 11.8366 56.3054C11.4114 56.3054 11.0122 56.4443 10.639 56.722C10.2659 56.9955 9.98168 57.4016 9.78642 57.9402C9.59116 58.4746 9.49353 59.2678 9.49353 60.3198Z" fill="#333333"/>
<path d="M24.548 55.245L17.5708 65.584H16.7116L23.0576 56.1666C22.3069 56.3433 21.3913 56.4317 20.3109 56.4317L19.9594 56.4253C20.2285 56.7872 20.363 57.1702 20.363 57.5741C20.363 58.1506 20.1547 58.6661 19.7381 59.1205C19.3259 59.575 18.777 59.8022 18.0915 59.8022C17.4623 59.8022 16.9329 59.5918 16.5033 59.171C16.0738 58.746 15.859 58.2306 15.859 57.6246C15.859 57.2206 15.9566 56.8546 16.1519 56.5263C16.3471 56.1939 16.6248 55.9267 16.985 55.7247C17.3451 55.5227 17.714 55.4217 18.0915 55.4217C18.252 55.4217 18.5167 55.4596 18.8855 55.5354C19.4496 55.6532 20.0614 55.7121 20.721 55.7121C21.2069 55.7121 21.6647 55.6826 22.0943 55.6237C22.5282 55.5606 23.0901 55.4344 23.78 55.245H24.548ZM18.111 56.2234C17.7161 56.2234 17.3798 56.3601 17.1021 56.6336C16.8244 56.903 16.6856 57.2291 16.6856 57.612C16.6856 57.9949 16.8244 58.321 17.1021 58.5903C17.3798 58.8597 17.7161 58.9943 18.111 58.9943C18.5058 58.9943 18.8421 58.8597 19.1198 58.5903C19.4019 58.321 19.5429 57.9949 19.5429 57.612C19.5429 57.2291 19.4019 56.903 19.1198 56.6336C18.8421 56.3601 18.5058 56.2234 18.111 56.2234ZM23.3374 60.8437C23.9579 60.8437 24.4873 61.0583 24.9255 61.4875C25.3681 61.9125 25.5894 62.4259 25.5894 63.0276C25.5894 63.6294 25.3681 64.1449 24.9255 64.5741C24.4873 64.9991 23.9579 65.2116 23.3374 65.2116C22.7169 65.2116 22.1854 64.9991 21.7428 64.5741C21.3046 64.1449 21.0854 63.6294 21.0854 63.0276C21.0854 62.4259 21.3046 61.9125 21.7428 61.4875C22.1854 61.0583 22.7169 60.8437 23.3374 60.8437ZM23.3374 61.6453C22.9426 61.6453 22.6063 61.78 22.3286 62.0493C22.0509 62.3186 21.912 62.6447 21.912 63.0276C21.912 63.4106 22.0509 63.7367 22.3286 64.006C22.6063 64.2753 22.9426 64.41 23.3374 64.41C23.7323 64.41 24.0686 64.2753 24.3463 64.006C24.6283 63.7367 24.7693 63.4106 24.7693 63.0276C24.7693 62.6447 24.6283 62.3186 24.3463 62.0493C24.0686 61.78 23.7323 61.6453 23.3374 61.6453Z" fill="#333333"/>
<path d="M5.65993 73.5194L6.44747 74.018L3.86354 77.8178C4.21067 77.7042 4.5361 77.6474 4.83984 77.6474C5.59918 77.6474 6.24354 77.9146 6.77291 78.449C7.30228 78.9792 7.56696 79.6335 7.56696 80.412C7.56696 80.9464 7.43896 81.4303 7.18295 81.8638C6.92695 82.293 6.56246 82.6359 6.0895 82.8926C5.62088 83.1451 5.11537 83.2713 4.57298 83.2713C4.04795 83.2713 3.5598 83.1493 3.10853 82.9052C2.66161 82.657 2.31014 82.3098 2.05413 81.8638C1.79812 81.4177 1.67012 80.9401 1.67012 80.4309C1.67012 80.0522 1.74822 79.6546 1.90443 79.238C2.06498 78.8172 2.34919 78.3122 2.75707 77.7231L5.65993 73.5194ZM4.61203 78.4616C4.05663 78.4616 3.5815 78.6531 3.18664 79.036C2.79612 79.4147 2.60086 79.8755 2.60086 80.4183C2.60086 80.9569 2.79612 81.4177 3.18664 81.8006C3.5815 82.1794 4.05663 82.3687 4.61203 82.3687C5.16744 82.3687 5.6404 82.1794 6.03092 81.8006C6.42578 81.4177 6.62321 80.9569 6.62321 80.4183C6.62321 79.8755 6.42578 79.4147 6.03092 79.036C5.6404 78.6531 5.16744 78.4616 4.61203 78.4616Z" fill="#333333"/>
<path d="M8.58882 78.3985C8.58882 77.174 8.72333 76.2272 8.99236 75.5581C9.26572 74.8891 9.64973 74.382 10.1444 74.0369C10.639 73.6919 11.1923 73.5194 11.8041 73.5194C12.4246 73.5194 12.9865 73.694 13.4898 74.0433C13.9932 74.3883 14.3902 74.908 14.6809 75.6023C14.976 76.2966 15.1235 77.2287 15.1235 78.3985C15.1235 79.5641 14.9782 80.492 14.6874 81.1821C14.4011 81.8722 14.004 82.394 13.4963 82.7474C12.9887 83.0967 12.4246 83.2713 11.8041 83.2713C11.1923 83.2713 10.6412 83.1009 10.1509 82.7601C9.66058 82.4192 9.27657 81.9121 8.99887 81.2389C8.7255 80.5614 8.58882 79.6146 8.58882 78.3985ZM9.49353 78.4174C9.49353 79.4652 9.58899 80.2584 9.77991 80.797C9.97517 81.3315 10.2615 81.7375 10.639 82.0153C11.0166 82.293 11.4157 82.4318 11.8366 82.4318C12.2619 82.4318 12.6589 82.2972 13.0277 82.0279C13.3966 81.7543 13.6764 81.3462 13.8673 80.8034C14.106 80.1427 14.2253 79.3474 14.2253 78.4174C14.2253 77.4833 14.119 76.7195 13.9064 76.1262C13.6938 75.5287 13.3987 75.0931 13.0212 74.8196C12.6481 74.5419 12.2532 74.403 11.8366 74.403C11.4114 74.403 11.0122 74.5419 10.639 74.8196C10.2659 75.0931 9.98168 75.4992 9.78642 76.0378C9.59116 76.5722 9.49353 77.3654 9.49353 78.4174Z" fill="#333333"/>
<path d="M24.548 73.3426L17.5708 83.6816H16.7116L23.0576 74.2642C22.3069 74.4409 21.3913 74.5293 20.3109 74.5293L19.9594 74.523C20.2285 74.8848 20.363 75.2678 20.363 75.6717C20.363 76.2482 20.1547 76.7637 19.7381 77.2182C19.3259 77.6726 18.777 77.8999 18.0915 77.8999C17.4623 77.8999 16.9329 77.6895 16.5033 77.2687C16.0738 76.8437 15.859 76.3282 15.859 75.7222C15.859 75.3183 15.9566 74.9522 16.1519 74.624C16.3471 74.2915 16.6248 74.0243 16.985 73.8223C17.3451 73.6204 17.714 73.5194 18.0915 73.5194C18.252 73.5194 18.5167 73.5572 18.8855 73.633C19.4496 73.7508 20.0614 73.8097 20.721 73.8097C21.2069 73.8097 21.6647 73.7803 22.0943 73.7213C22.5282 73.6582 23.0901 73.532 23.78 73.3426H24.548ZM18.111 74.321C17.7161 74.321 17.3798 74.4577 17.1021 74.7313C16.8244 75.0006 16.6856 75.3267 16.6856 75.7096C16.6856 76.0925 16.8244 76.4187 17.1021 76.688C17.3798 76.9573 17.7161 77.0919 18.111 77.0919C18.5058 77.0919 18.8421 76.9573 19.1198 76.688C19.4019 76.4187 19.5429 76.0925 19.5429 75.7096C19.5429 75.3267 19.4019 75.0006 19.1198 74.7313C18.8421 74.4577 18.5058 74.321 18.111 74.321ZM23.3374 78.9413C23.9579 78.9413 24.4873 79.1559 24.9255 79.5852C25.3681 80.0102 25.5894 80.5235 25.5894 81.1253C25.5894 81.727 25.3681 82.2425 24.9255 82.6717C24.4873 83.0967 23.9579 83.3092 23.3374 83.3092C22.7169 83.3092 22.1854 83.0967 21.7428 82.6717C21.3046 82.2425 21.0854 81.727 21.0854 81.1253C21.0854 80.5235 21.3046 80.0102 21.7428 79.5852C22.1854 79.1559 22.7169 78.9413 23.3374 78.9413ZM23.3374 79.743C22.9426 79.743 22.6063 79.8776 22.3286 80.1469C22.0509 80.4162 21.912 80.7423 21.912 81.1253C21.912 81.5082 22.0509 81.8343 22.3286 82.1036C22.6063 82.3729 22.9426 82.5076 23.3374 82.5076C23.7323 82.5076 24.0686 82.3729 24.3463 82.1036C24.6283 81.8343 24.7693 81.5082 24.7693 81.1253C24.7693 80.7423 24.6283 80.4162 24.3463 80.1469C24.0686 79.8776 23.7323 79.743 23.3374 79.743Z" fill="#333333"/>
<path d="M7.32614 91.8505V92.7342H3.91561L3.44048 95.2653C3.85703 95.1475 4.23236 95.0886 4.56647 95.0886C5.43863 95.0886 6.15675 95.3726 6.72084 95.9407C7.28926 96.5045 7.57347 97.2283 7.57347 98.112C7.57347 98.7221 7.42811 99.2818 7.13739 99.791C6.84667 100.3 6.45181 100.691 5.95282 100.965C5.45816 101.234 4.8854 101.369 4.23453 101.369C3.45783 101.369 2.80263 101.14 2.26892 100.681C1.73521 100.218 1.41628 99.6205 1.31215 98.8884H2.29495C2.36872 99.246 2.49238 99.5364 2.66595 99.7594C2.84385 99.9824 3.07816 100.163 3.36888 100.302C3.66394 100.437 3.97202 100.504 4.29311 100.504C4.92228 100.504 5.4625 100.273 5.91376 99.8099C6.36503 99.347 6.59067 98.7684 6.59067 98.0741C6.59067 97.4471 6.38673 96.938 5.97885 96.5466C5.57098 96.1553 5.02642 95.9596 4.34518 95.9596C3.7811 95.9596 3.09769 96.1258 2.29495 96.4583L3.18013 91.8505H7.32614Z" fill="#333333"/>
<path d="M8.58882 96.4961C8.58882 95.2716 8.72333 94.3248 8.99236 93.6557C9.26572 92.9867 9.64973 92.4796 10.1444 92.1346C10.639 91.7895 11.1923 91.617 11.8041 91.617C12.4246 91.617 12.9865 91.7916 13.4898 92.1409C13.9932 92.4859 14.3902 93.0056 14.6809 93.6999C14.976 94.3942 15.1235 95.3263 15.1235 96.4961C15.1235 97.6617 14.9782 98.5896 14.6874 99.2797C14.4011 99.9698 14.004 100.492 13.4963 100.845C12.9887 101.194 12.4246 101.369 11.8041 101.369C11.1923 101.369 10.6412 101.199 10.1509 100.858C9.66058 100.517 9.27657 100.01 8.99887 99.3365C8.7255 98.659 8.58882 97.7122 8.58882 96.4961ZM9.49353 96.5151C9.49353 97.5628 9.58899 98.356 9.77991 98.8947C9.97517 99.4291 10.2615 99.8351 10.639 100.113C11.0166 100.391 11.4157 100.529 11.8366 100.529C12.2619 100.529 12.6589 100.395 13.0277 100.125C13.3966 99.852 13.6764 99.4438 13.8673 98.901C14.106 98.2403 14.2253 97.445 14.2253 96.5151C14.2253 95.5809 14.119 94.8171 13.9064 94.2238C13.6938 93.6263 13.3987 93.1908 13.0212 92.9172C12.6481 92.6395 12.2532 92.5007 11.8366 92.5007C11.4114 92.5007 11.0122 92.6395 10.639 92.9172C10.2659 93.1908 9.98168 93.5968 9.78642 94.1355C9.59116 94.6699 9.49353 95.4631 9.49353 96.5151Z" fill="#333333"/>
<path d="M24.548 91.4403L17.5708 101.779H16.7116L23.0576 92.3618C22.3069 92.5385 21.3913 92.6269 20.3109 92.6269L19.9594 92.6206C20.2285 92.9825 20.363 93.3654 20.363 93.7694C20.363 94.3459 20.1547 94.8613 19.7381 95.3158C19.3259 95.7702 18.777 95.9975 18.0915 95.9975C17.4623 95.9975 16.9329 95.7871 16.5033 95.3663C16.0738 94.9413 15.859 94.4258 15.859 93.8199C15.859 93.4159 15.9566 93.0498 16.1519 92.7216C16.3471 92.3891 16.6248 92.1219 16.985 91.92C17.3451 91.718 17.714 91.617 18.0915 91.617C18.252 91.617 18.5167 91.6549 18.8855 91.7306C19.4496 91.8484 20.0614 91.9073 20.721 91.9073C21.2069 91.9073 21.6647 91.8779 22.0943 91.819C22.5282 91.7559 23.0901 91.6296 23.78 91.4403H24.548ZM18.111 92.4186C17.7161 92.4186 17.3798 92.5554 17.1021 92.8289C16.8244 93.0982 16.6856 93.4243 16.6856 93.8072C16.6856 94.1902 16.8244 94.5163 17.1021 94.7856C17.3798 95.0549 17.7161 95.1896 18.111 95.1896C18.5058 95.1896 18.8421 95.0549 19.1198 94.7856C19.4019 94.5163 19.5429 94.1902 19.5429 93.8072C19.5429 93.4243 19.4019 93.0982 19.1198 92.8289C18.8421 92.5554 18.5058 92.4186 18.111 92.4186ZM23.3374 97.0389C23.9579 97.0389 24.4873 97.2536 24.9255 97.6828C25.3681 98.1078 25.5894 98.6211 25.5894 99.2229C25.5894 99.8246 25.3681 100.34 24.9255 100.769C24.4873 101.194 23.9579 101.407 23.3374 101.407C22.7169 101.407 22.1854 101.194 21.7428 100.769C21.3046 100.34 21.0854 99.8246 21.0854 99.2229C21.0854 98.6211 21.3046 98.1078 21.7428 97.6828C22.1854 97.2536 22.7169 97.0389 23.3374 97.0389ZM23.3374 97.8406C22.9426 97.8406 22.6063 97.9752 22.3286 98.2445C22.0509 98.5138 21.912 98.84 21.912 99.2229C21.912 99.6058 22.0509 99.9319 22.3286 100.201C22.6063 100.471 22.9426 100.605 23.3374 100.605C23.7323 100.605 24.0686 100.471 24.3463 100.201C24.6283 99.9319 24.7693 99.6058 24.7693 99.2229C24.7693 98.84 24.6283 98.5138 24.3463 98.2445C24.0686 97.9752 23.7323 97.8406 23.3374 97.8406Z" fill="#333333"/>
<path d="M6.44747 109.715H6.64273V116.184H7.80128V117.074H6.64273V119.233H5.68596V117.074H1.11038L6.44747 109.715ZM5.68596 116.184V112.315L2.86771 116.184H5.68596Z" fill="#333333"/>
<path d="M8.58882 114.594C8.58882 113.369 8.72333 112.422 8.99236 111.753C9.26572 111.084 9.64973 110.577 10.1444 110.232C10.639 109.887 11.1923 109.715 11.8041 109.715C12.4246 109.715 12.9865 109.889 13.4898 110.238C13.9932 110.584 14.3902 111.103 14.6809 111.798C14.976 112.492 15.1235 113.424 15.1235 114.594C15.1235 115.759 14.9782 116.687 14.6874 117.377C14.4011 118.067 14.004 118.589 13.4963 118.943C12.9887 119.292 12.4246 119.467 11.8041 119.467C11.1923 119.467 10.6412 119.296 10.1509 118.955C9.66058 118.614 9.27657 118.107 8.99887 117.434C8.7255 116.757 8.58882 115.81 8.58882 114.594ZM9.49353 114.613C9.49353 115.66 9.58899 116.454 9.77991 116.992C9.97517 117.527 10.2615 117.933 10.639 118.21C11.0166 118.488 11.4157 118.627 11.8366 118.627C12.2619 118.627 12.6589 118.492 13.0277 118.223C13.3966 117.95 13.6764 117.541 13.8673 116.999C14.106 116.338 14.2253 115.543 14.2253 114.613C14.2253 113.679 14.119 112.915 13.9064 112.321C13.6938 111.724 13.3987 111.288 13.0212 111.015C12.6481 110.737 12.2532 110.598 11.8366 110.598C11.4114 110.598 11.0122 110.737 10.639 111.015C10.2659 111.288 9.98168 111.694 9.78642 112.233C9.59116 112.767 9.49353 113.561 9.49353 114.613Z" fill="#333333"/>
<path d="M24.548 109.538L17.5708 119.877H16.7116L23.0576 110.459C22.3069 110.636 21.3913 110.725 20.3109 110.725L19.9594 110.718C20.2285 111.08 20.363 111.463 20.363 111.867C20.363 112.443 20.1547 112.959 19.7381 113.413C19.3259 113.868 18.777 114.095 18.0915 114.095C17.4623 114.095 16.9329 113.885 16.5033 113.464C16.0738 113.039 15.859 112.523 15.859 111.917C15.859 111.514 15.9566 111.147 16.1519 110.819C16.3471 110.487 16.6248 110.22 16.985 110.018C17.3451 109.816 17.714 109.715 18.0915 109.715C18.252 109.715 18.5167 109.752 18.8855 109.828C19.4496 109.946 20.0614 110.005 20.721 110.005C21.2069 110.005 21.6647 109.976 22.0943 109.917C22.5282 109.853 23.0901 109.727 23.78 109.538H24.548ZM18.111 110.516C17.7161 110.516 17.3798 110.653 17.1021 110.926C16.8244 111.196 16.6856 111.522 16.6856 111.905C16.6856 112.288 16.8244 112.614 17.1021 112.883C17.3798 113.153 17.7161 113.287 18.111 113.287C18.5058 113.287 18.8421 113.153 19.1198 112.883C19.4019 112.614 19.5429 112.288 19.5429 111.905C19.5429 111.522 19.4019 111.196 19.1198 110.926C18.8421 110.653 18.5058 110.516 18.111 110.516ZM23.3374 115.137C23.9579 115.137 24.4873 115.351 24.9255 115.78C25.3681 116.205 25.5894 116.719 25.5894 117.321C25.5894 117.922 25.3681 118.438 24.9255 118.867C24.4873 119.292 23.9579 119.504 23.3374 119.504C22.7169 119.504 22.1854 119.292 21.7428 118.867C21.3046 118.438 21.0854 117.922 21.0854 117.321C21.0854 116.719 21.3046 116.205 21.7428 115.78C22.1854 115.351 22.7169 115.137 23.3374 115.137ZM23.3374 115.938C22.9426 115.938 22.6063 116.073 22.3286 116.342C22.0509 116.611 21.912 116.938 21.912 117.321C21.912 117.703 22.0509 118.03 22.3286 118.299C22.6063 118.568 22.9426 118.703 23.3374 118.703C23.7323 118.703 24.0686 118.568 24.3463 118.299C24.6283 118.03 24.7693 117.703 24.7693 117.321C24.7693 116.938 24.6283 116.611 24.3463 116.342C24.0686 116.073 23.7323 115.938 23.3374 115.938Z" fill="#333333"/>
<path d="M2.53577 130.198H1.55947C1.73738 129.432 2.078 128.843 2.58133 128.431C3.08467 128.018 3.67913 127.812 4.3647 127.812C4.8637 127.812 5.32799 127.924 5.75756 128.147C6.19147 128.366 6.52558 128.662 6.75989 129.037C6.99854 129.411 7.11787 129.803 7.11787 130.211C7.11787 131.01 6.70782 131.644 5.88773 132.111C6.34768 132.292 6.72518 132.557 7.02024 132.906C7.43679 133.398 7.64507 133.95 7.64507 134.56C7.64507 135.086 7.50188 135.589 7.2155 136.068C6.92912 136.544 6.5386 136.912 6.04394 137.173C5.54928 137.434 4.99604 137.564 4.38423 137.564C3.5598 137.564 2.87205 137.335 2.32099 136.876C1.76992 136.413 1.40977 135.736 1.24055 134.844H2.1778C2.34268 135.445 2.57916 135.881 2.88724 136.15C3.2821 136.491 3.78543 136.662 4.39725 136.662C5.09151 136.662 5.64908 136.46 6.06997 136.056C6.49087 135.652 6.70131 135.178 6.70131 134.635C6.70131 134.274 6.595 133.935 6.38239 133.619C6.17411 133.304 5.89207 133.066 5.53626 132.906C5.1848 132.746 4.63807 132.647 3.89608 132.609V131.757C4.33433 131.757 4.73353 131.684 5.09367 131.536C5.45382 131.385 5.71417 131.193 5.87471 130.962C6.0396 130.73 6.12204 130.478 6.12204 130.204C6.12204 129.8 5.95499 129.451 5.62088 129.157C5.2911 128.862 4.87238 128.715 4.3647 128.715C3.95249 128.715 3.59668 128.828 3.29729 129.056C2.99789 129.279 2.74405 129.66 2.53577 130.198Z" fill="#333333"/>
<path d="M8.58882 132.691C8.58882 131.467 8.72333 130.52 8.99236 129.851C9.26572 129.182 9.64973 128.675 10.1444 128.33C10.639 127.985 11.1923 127.812 11.8041 127.812C12.4246 127.812 12.9865 127.987 13.4898 128.336C13.9932 128.681 14.3902 129.201 14.6809 129.895C14.976 130.589 15.1235 131.522 15.1235 132.691C15.1235 133.857 14.9782 134.785 14.6874 135.475C14.4011 136.165 14.004 136.687 13.4963 137.04C12.9887 137.39 12.4246 137.564 11.8041 137.564C11.1923 137.564 10.6412 137.394 10.1509 137.053C9.66058 136.712 9.27657 136.205 8.99887 135.532C8.7255 134.854 8.58882 133.907 8.58882 132.691ZM9.49353 132.71C9.49353 133.758 9.58899 134.551 9.77991 135.09C9.97517 135.624 10.2615 136.03 10.639 136.308C11.0166 136.586 11.4157 136.725 11.8366 136.725C12.2619 136.725 12.6589 136.59 13.0277 136.321C13.3966 136.047 13.6764 135.639 13.8673 135.096C14.106 134.436 14.2253 133.64 14.2253 132.71C14.2253 131.776 14.119 131.012 13.9064 130.419C13.6938 129.822 13.3987 129.386 13.0212 129.112C12.6481 128.835 12.2532 128.696 11.8366 128.696C11.4114 128.696 11.0122 128.835 10.639 129.112C10.2659 129.386 9.98168 129.792 9.78642 130.331C9.59116 130.865 9.49353 131.658 9.49353 132.71Z" fill="#333333"/>
<path d="M24.548 127.635L17.5708 137.974H16.7116L23.0576 128.557C22.3069 128.734 21.3913 128.822 20.3109 128.822L19.9594 128.816C20.2285 129.178 20.363 129.561 20.363 129.965C20.363 130.541 20.1547 131.057 19.7381 131.511C19.3259 131.965 18.777 132.193 18.0915 132.193C17.4623 132.193 16.9329 131.982 16.5033 131.562C16.0738 131.137 15.859 130.621 15.859 130.015C15.859 129.611 15.9566 129.245 16.1519 128.917C16.3471 128.584 16.6248 128.317 16.985 128.115C17.3451 127.913 17.714 127.812 18.0915 127.812C18.252 127.812 18.5167 127.85 18.8855 127.926C19.4496 128.044 20.0614 128.103 20.721 128.103C21.2069 128.103 21.6647 128.073 22.0943 128.014C22.5282 127.951 23.0901 127.825 23.78 127.635H24.548ZM18.111 128.614C17.7161 128.614 17.3798 128.751 17.1021 129.024C16.8244 129.293 16.6856 129.62 16.6856 130.002C16.6856 130.385 16.8244 130.712 17.1021 130.981C17.3798 131.25 17.7161 131.385 18.111 131.385C18.5058 131.385 18.8421 131.25 19.1198 130.981C19.4019 130.712 19.5429 130.385 19.5429 130.002C19.5429 129.62 19.4019 129.293 19.1198 129.024C18.8421 128.751 18.5058 128.614 18.111 128.614ZM23.3374 133.234C23.9579 133.234 24.4873 133.449 24.9255 133.878C25.3681 134.303 25.5894 134.816 25.5894 135.418C25.5894 136.02 25.3681 136.535 24.9255 136.965C24.4873 137.39 23.9579 137.602 23.3374 137.602C22.7169 137.602 22.1854 137.39 21.7428 136.965C21.3046 136.535 21.0854 136.02 21.0854 135.418C21.0854 134.816 21.3046 134.303 21.7428 133.878C22.1854 133.449 22.7169 133.234 23.3374 133.234ZM23.3374 134.036C22.9426 134.036 22.6063 134.17 22.3286 134.44C22.0509 134.709 21.912 135.035 21.912 135.418C21.912 135.801 22.0509 136.127 22.3286 136.396C22.6063 136.666 22.9426 136.8 23.3374 136.8C23.7323 136.8 24.0686 136.666 24.3463 136.396C24.6283 136.127 24.7693 135.801 24.7693 135.418C24.7693 135.035 24.6283 134.709 24.3463 134.44C24.0686 134.17 23.7323 134.036 23.3374 134.036Z" fill="#333333"/>
<path d="M2.31448 149.053H1.39676C1.42279 148.136 1.73738 147.383 2.34051 146.794C2.94799 146.204 3.69648 145.91 4.586 145.91C5.46684 145.91 6.17845 146.185 6.72084 146.737C7.26757 147.288 7.54093 147.938 7.54093 148.687C7.54093 149.213 7.41076 149.708 7.15041 150.17C6.89006 150.629 6.38456 151.252 5.63389 152.039L3.25172 154.532H7.6711V155.428H1.16895L4.82682 151.597C5.56881 150.827 6.05045 150.257 6.27174 149.886C6.49737 149.512 6.61019 149.118 6.61019 148.706C6.61019 148.184 6.40842 147.736 6.00489 147.362C5.60569 146.983 5.11537 146.794 4.53393 146.794C3.92212 146.794 3.41227 146.991 3.0044 147.387C2.60086 147.782 2.37089 148.338 2.31448 149.053Z" fill="#333333"/>
<path d="M8.58882 150.789C8.58882 149.564 8.72333 148.618 8.99236 147.949C9.26572 147.28 9.64973 146.772 10.1444 146.427C10.639 146.082 11.1923 145.91 11.8041 145.91C12.4246 145.91 12.9865 146.084 13.4898 146.434C13.9932 146.779 14.3902 147.298 14.6809 147.993C14.976 148.687 15.1235 149.619 15.1235 150.789C15.1235 151.955 14.9782 152.882 14.6874 153.573C14.4011 154.263 14.004 154.784 13.4963 155.138C12.9887 155.487 12.4246 155.662 11.8041 155.662C11.1923 155.662 10.6412 155.491 10.1509 155.151C9.66058 154.81 9.27657 154.303 8.99887 153.629C8.7255 152.952 8.58882 152.005 8.58882 150.789ZM9.49353 150.808C9.49353 151.856 9.58899 152.649 9.77991 153.188C9.97517 153.722 10.2615 154.128 10.639 154.406C11.0166 154.683 11.4157 154.822 11.8366 154.822C12.2619 154.822 12.6589 154.688 13.0277 154.418C13.3966 154.145 13.6764 153.737 13.8673 153.194C14.106 152.533 14.2253 151.738 14.2253 150.808C14.2253 149.874 14.119 149.11 13.9064 148.517C13.6938 147.919 13.3987 147.484 13.0212 147.21C12.6481 146.932 12.2532 146.794 11.8366 146.794C11.4114 146.794 11.0122 146.932 10.639 147.21C10.2659 147.484 9.98168 147.89 9.78642 148.428C9.59116 148.963 9.49353 149.756 9.49353 150.808Z" fill="#333333"/>
<path d="M24.548 145.733L17.5708 156.072H16.7116L23.0576 146.655C22.3069 146.831 21.3913 146.92 20.3109 146.92L19.9594 146.913C20.2285 147.275 20.363 147.658 20.363 148.062C20.363 148.639 20.1547 149.154 19.7381 149.609C19.3259 150.063 18.777 150.29 18.0915 150.29C17.4623 150.29 16.9329 150.08 16.5033 149.659C16.0738 149.234 15.859 148.719 15.859 148.113C15.859 147.709 15.9566 147.343 16.1519 147.014C16.3471 146.682 16.6248 146.415 16.985 146.213C17.3451 146.011 17.714 145.91 18.0915 145.91C18.252 145.91 18.5167 145.948 18.8855 146.023C19.4496 146.141 20.0614 146.2 20.721 146.2C21.2069 146.2 21.6647 146.171 22.0943 146.112C22.5282 146.049 23.0901 145.922 23.78 145.733H24.548ZM18.111 146.711C17.7161 146.711 17.3798 146.848 17.1021 147.122C16.8244 147.391 16.6856 147.717 16.6856 148.1C16.6856 148.483 16.8244 148.809 17.1021 149.078C17.3798 149.348 17.7161 149.482 18.111 149.482C18.5058 149.482 18.8421 149.348 19.1198 149.078C19.4019 148.809 19.5429 148.483 19.5429 148.1C19.5429 147.717 19.4019 147.391 19.1198 147.122C18.8421 146.848 18.5058 146.711 18.111 146.711ZM23.3374 151.332C23.9579 151.332 24.4873 151.546 24.9255 151.976C25.3681 152.401 25.5894 152.914 25.5894 153.516C25.5894 154.117 25.3681 154.633 24.9255 155.062C24.4873 155.487 23.9579 155.7 23.3374 155.7C22.7169 155.7 22.1854 155.487 21.7428 155.062C21.3046 154.633 21.0854 154.117 21.0854 153.516C21.0854 152.914 21.3046 152.401 21.7428 151.976C22.1854 151.546 22.7169 151.332 23.3374 151.332ZM23.3374 152.133C22.9426 152.133 22.6063 152.268 22.3286 152.537C22.0509 152.807 21.912 153.133 21.912 153.516C21.912 153.899 22.0509 154.225 22.3286 154.494C22.6063 154.763 22.9426 154.898 23.3374 154.898C23.7323 154.898 24.0686 154.763 24.3463 154.494C24.6283 154.225 24.7693 153.899 24.7693 153.516C24.7693 153.133 24.6283 152.807 24.3463 152.537C24.0686 152.268 23.7323 152.133 23.3374 152.133Z" fill="#333333"/>
<path d="M3.23871 164.241H5.11971V173.526H4.16945V165.15H2.66595L3.23871 164.241Z" fill="#333333"/>
<path d="M8.58882 168.887C8.58882 167.662 8.72333 166.715 8.99236 166.046C9.26572 165.377 9.64973 164.87 10.1444 164.525C10.639 164.18 11.1923 164.007 11.8041 164.007C12.4246 164.007 12.9865 164.182 13.4898 164.531C13.9932 164.876 14.3902 165.396 14.6809 166.09C14.976 166.785 15.1235 167.717 15.1235 168.887C15.1235 170.052 14.9782 170.98 14.6874 171.67C14.4011 172.36 14.004 172.882 13.4963 173.236C12.9887 173.585 12.4246 173.759 11.8041 173.759C11.1923 173.759 10.6412 173.589 10.1509 173.248C9.66058 172.907 9.27657 172.4 8.99887 171.727C8.7255 171.049 8.58882 170.103 8.58882 168.887ZM9.49353 168.906C9.49353 169.953 9.58899 170.747 9.77991 171.285C9.97517 171.82 10.2615 172.226 10.639 172.503C11.0166 172.781 11.4157 172.92 11.8366 172.92C12.2619 172.92 12.6589 172.785 13.0277 172.516C13.3966 172.242 13.6764 171.834 13.8673 171.291C14.106 170.631 14.2253 169.835 14.2253 168.906C14.2253 167.971 14.119 167.208 13.9064 166.614C13.6938 166.017 13.3987 165.581 13.0212 165.308C12.6481 165.03 12.2532 164.891 11.8366 164.891C11.4114 164.891 11.0122 165.03 10.639 165.308C10.2659 165.581 9.98168 165.987 9.78642 166.526C9.59116 167.06 9.49353 167.854 9.49353 168.906Z" fill="#333333"/>
<path d="M24.548 163.831L17.5708 174.17H16.7116L23.0576 164.752C22.3069 164.929 21.3913 165.017 20.3109 165.017L19.9594 165.011C20.2285 165.373 20.363 165.756 20.363 166.16C20.363 166.736 20.1547 167.252 19.7381 167.706C19.3259 168.161 18.777 168.388 18.0915 168.388C17.4623 168.388 16.9329 168.178 16.5033 167.757C16.0738 167.332 15.859 166.816 15.859 166.21C15.859 165.806 15.9566 165.44 16.1519 165.112C16.3471 164.78 16.6248 164.512 16.985 164.31C17.3451 164.108 17.714 164.007 18.0915 164.007C18.252 164.007 18.5167 164.045 18.8855 164.121C19.4496 164.239 20.0614 164.298 20.721 164.298C21.2069 164.298 21.6647 164.268 22.0943 164.209C22.5282 164.146 23.0901 164.02 23.78 163.831H24.548ZM18.111 164.809C17.7161 164.809 17.3798 164.946 17.1021 165.219C16.8244 165.489 16.6856 165.815 16.6856 166.198C16.6856 166.581 16.8244 166.907 17.1021 167.176C17.3798 167.445 17.7161 167.58 18.111 167.58C18.5058 167.58 18.8421 167.445 19.1198 167.176C19.4019 166.907 19.5429 166.581 19.5429 166.198C19.5429 165.815 19.4019 165.489 19.1198 165.219C18.8421 164.946 18.5058 164.809 18.111 164.809ZM23.3374 169.429C23.9579 169.429 24.4873 169.644 24.9255 170.073C25.3681 170.498 25.5894 171.012 25.5894 171.613C25.5894 172.215 25.3681 172.731 24.9255 173.16C24.4873 173.585 23.9579 173.797 23.3374 173.797C22.7169 173.797 22.1854 173.585 21.7428 173.16C21.3046 172.731 21.0854 172.215 21.0854 171.613C21.0854 171.012 21.3046 170.498 21.7428 170.073C22.1854 169.644 22.7169 169.429 23.3374 169.429ZM23.3374 170.231C22.9426 170.231 22.6063 170.366 22.3286 170.635C22.0509 170.904 21.912 171.23 21.912 171.613C21.912 171.996 22.0509 172.322 22.3286 172.592C22.6063 172.861 22.9426 172.996 23.3374 172.996C23.7323 172.996 24.0686 172.861 24.3463 172.592C24.6283 172.322 24.7693 171.996 24.7693 171.613C24.7693 171.23 24.6283 170.904 24.3463 170.635C24.0686 170.366 23.7323 170.231 23.3374 170.231Z" fill="#333333"/>
<path d="M6.52688 186.984C6.52688 185.76 6.66139 184.813 6.93042 184.144C7.20378 183.475 7.58779 182.968 8.08245 182.623C8.57711 182.278 9.13034 182.105 9.74216 182.105C10.3626 182.105 10.9246 182.28 11.4279 182.629C11.9312 182.974 12.3283 183.494 12.619 184.188C12.914 184.882 13.0616 185.814 13.0616 186.984C13.0616 188.15 12.9162 189.078 12.6255 189.768C12.3391 190.458 11.9421 190.98 11.4344 191.333C10.9267 191.682 10.3626 191.857 9.74216 191.857C9.13034 191.857 8.57928 191.687 8.08896 191.346C7.59864 191.005 7.21463 190.498 6.93693 189.825C6.66356 189.147 6.52688 188.2 6.52688 186.984ZM7.43158 187.003C7.43158 188.051 7.52704 188.844 7.71796 189.383C7.91322 189.917 8.1996 190.323 8.57711 190.601C8.95461 190.879 9.35381 191.018 9.7747 191.018C10.1999 191.018 10.597 190.883 10.9658 190.614C11.3346 190.34 11.6145 189.932 11.8054 189.389C12.0441 188.728 12.1634 187.933 12.1634 187.003C12.1634 186.069 12.0571 185.305 11.8445 184.712C11.6318 184.114 11.3368 183.679 10.9593 183.405C10.5861 183.128 10.1913 182.989 9.7747 182.989C9.34947 182.989 8.95027 183.128 8.57711 183.405C8.20394 183.679 7.91973 184.085 7.72447 184.624C7.52921 185.158 7.43158 185.951 7.43158 187.003Z" fill="#333333"/>
<path d="M22.4861 181.928L15.5088 192.267H14.6497L20.9956 182.85C20.245 183.027 19.3294 183.115 18.249 183.115L17.8975 183.109C18.1665 183.471 18.301 183.854 18.301 184.257C18.301 184.834 18.0928 185.349 17.6762 185.804C17.264 186.258 16.7151 186.486 16.0295 186.486C15.4003 186.486 14.871 186.275 14.4414 185.854C14.0118 185.429 13.797 184.914 13.797 184.308C13.797 183.904 13.8947 183.538 14.0899 183.21C14.2852 182.877 14.5629 182.61 14.923 182.408C15.2832 182.206 15.652 182.105 16.0295 182.105C16.1901 182.105 16.4548 182.143 16.8236 182.219C17.3877 182.337 17.9995 182.395 18.659 182.395C19.145 182.395 19.6028 182.366 20.0323 182.307C20.4663 182.244 21.0282 182.118 21.7181 181.928H22.4861ZM16.049 182.907C15.6542 182.907 15.3179 183.043 15.0402 183.317C14.7625 183.586 14.6236 183.912 14.6236 184.295C14.6236 184.678 14.7625 185.004 15.0402 185.274C15.3179 185.543 15.6542 185.678 16.049 185.678C16.4439 185.678 16.7802 185.543 17.0579 185.274C17.3399 185.004 17.4809 184.678 17.4809 184.295C17.4809 183.912 17.3399 183.586 17.0579 183.317C16.7802 183.043 16.4439 182.907 16.049 182.907ZM21.2755 187.527C21.896 187.527 22.4254 187.742 22.8636 188.171C23.3062 188.596 23.5275 189.109 23.5275 189.711C23.5275 190.313 23.3062 190.828 22.8636 191.257C22.4254 191.682 21.896 191.895 21.2755 191.895C20.655 191.895 20.1235 191.682 19.6809 191.257C19.2426 190.828 19.0235 190.313 19.0235 189.711C19.0235 189.109 19.2426 188.596 19.6809 188.171C20.1235 187.742 20.655 187.527 21.2755 187.527ZM21.2755 188.329C20.8806 188.329 20.5444 188.463 20.2667 188.733C19.989 189.002 19.8501 189.328 19.8501 189.711C19.8501 190.094 19.989 190.42 20.2667 190.689C20.5444 190.959 20.8806 191.093 21.2755 191.093C21.6704 191.093 22.0066 190.959 22.2843 190.689C22.5664 190.42 22.7074 190.094 22.7074 189.711C22.7074 189.328 22.5664 189.002 22.2843 188.733C22.0066 188.463 21.6704 188.329 21.2755 188.329Z" fill="#333333"/>
<path d="M39.9462 209.827H38.845C38.8762 208.726 39.2537 207.822 39.9775 207.116C40.7064 206.409 41.6046 206.055 42.6721 206.055C43.7291 206.055 44.583 206.386 45.2339 207.047C45.8899 207.709 46.218 208.489 46.218 209.388C46.218 210.019 46.0618 210.612 45.7493 211.168C45.4369 211.718 44.8303 212.466 43.9295 213.41L41.0709 216.402H46.3742V217.477H38.5716L42.961 212.88C43.8514 211.956 44.4294 211.271 44.6949 210.827C44.9657 210.378 45.1011 209.905 45.1011 209.411C45.1011 208.784 44.859 208.247 44.3747 207.797C43.8957 207.343 43.3073 207.116 42.6096 207.116C41.8754 207.116 41.2636 207.353 40.7741 207.828C40.2899 208.302 40.0139 208.969 39.9462 209.827Z" fill="#333333"/>
<path d="M49.0844 208.918H47.9128C48.1263 207.999 48.535 207.292 49.1391 206.797C49.7431 206.303 50.4564 206.055 51.2791 206.055C51.8779 206.055 52.435 206.189 52.9505 206.457C53.4712 206.719 53.8721 207.075 54.1533 207.525C54.4397 207.974 54.5829 208.444 54.5829 208.933C54.5829 209.893 54.0908 210.653 53.1067 211.213C53.6587 211.43 54.1117 211.749 54.4657 212.168C54.9656 212.758 55.2155 213.42 55.2155 214.152C55.2155 214.783 55.0437 215.387 54.7 215.962C54.3564 216.533 53.8878 216.975 53.2942 217.288C52.7006 217.601 52.0367 217.758 51.3025 217.758C50.3132 217.758 49.4879 217.482 48.8266 216.932C48.1654 216.376 47.7332 215.563 47.5301 214.493H48.6548C48.8527 215.215 49.1365 215.738 49.5061 216.061C49.98 216.47 50.584 216.674 51.3181 216.674C52.1513 216.674 52.8203 216.432 53.3254 215.947C53.8305 215.462 54.083 214.894 54.083 214.243C54.083 213.809 53.9555 213.402 53.7003 213.024C53.4504 212.645 53.1119 212.36 52.685 212.168C52.2632 211.976 51.6071 211.857 50.7168 211.812V210.789C51.2426 210.789 51.7217 210.701 52.1539 210.524C52.586 210.342 52.8984 210.112 53.0911 209.835C53.289 209.557 53.3879 209.254 53.3879 208.926C53.3879 208.441 53.1874 208.022 52.7865 207.668C52.3908 207.315 51.8883 207.138 51.2791 207.138C50.7844 207.138 50.3575 207.275 49.9982 207.547C49.6389 207.815 49.3343 208.272 49.0844 208.918Z" fill="#333333"/>
<path d="M58.2616 215.811C58.5271 215.811 58.7536 215.902 58.9411 216.084C59.1285 216.265 59.2223 216.488 59.2223 216.75C59.2223 217.008 59.1285 217.23 58.9411 217.417C58.7536 217.598 58.5271 217.689 58.2616 217.689C57.996 217.689 57.7695 217.598 57.5821 217.417C57.3946 217.23 57.3009 217.008 57.3009 216.75C57.3009 216.488 57.3946 216.265 57.5821 216.084C57.7695 215.902 57.996 215.811 58.2616 215.811Z" fill="#333333"/>
<path d="M60.7843 211.91C60.7843 210.441 60.9458 209.305 61.2686 208.502C61.5966 207.699 62.0574 207.09 62.651 206.676C63.2446 206.262 63.9085 206.055 64.6427 206.055C65.3873 206.055 66.0616 206.265 66.6656 206.684C67.2696 207.098 67.746 207.721 68.0949 208.555C68.4489 209.388 68.626 210.506 68.626 211.91C68.626 213.309 68.4515 214.422 68.1027 215.25C67.759 216.079 67.2826 216.705 66.6734 217.129C66.0642 217.548 65.3873 217.758 64.6427 217.758C63.9085 217.758 63.2472 217.553 62.6588 217.144C62.0704 216.735 61.6096 216.126 61.2764 215.319C60.9484 214.506 60.7843 213.369 60.7843 211.91ZM61.87 211.933C61.87 213.19 61.9845 214.142 62.2136 214.788C62.4479 215.43 62.7916 215.917 63.2446 216.25C63.6976 216.583 64.1767 216.75 64.6817 216.75C65.192 216.75 65.6684 216.589 66.111 216.265C66.5536 215.937 66.8895 215.447 67.1186 214.796C67.4049 214.003 67.5481 213.049 67.5481 211.933C67.5481 210.812 67.4206 209.895 67.1654 209.183C66.9103 208.466 66.5562 207.944 66.1032 207.615C65.6554 207.282 65.1816 207.116 64.6817 207.116C64.1714 207.116 63.6924 207.282 63.2446 207.615C62.7968 207.944 62.4558 208.431 62.2215 209.077C61.9871 209.719 61.87 210.67 61.87 211.933Z" fill="#333333"/>
<path d="M72.2187 217.758L71.2737 217.167L74.3744 212.607C73.9579 212.738 73.5673 212.804 73.2029 212.804C72.2916 212.804 71.5184 212.486 70.8832 211.85C70.2479 211.208 69.9303 210.421 69.9303 209.486C69.9303 208.845 70.0839 208.267 70.3911 207.752C70.6983 207.237 71.1331 206.825 71.6954 206.517C72.263 206.209 72.8696 206.055 73.5153 206.055C74.1505 206.055 74.7363 206.204 75.2726 206.502C75.8141 206.8 76.2385 207.217 76.5457 207.752C76.8529 208.287 77.0065 208.858 77.0065 209.464C77.0065 209.923 76.9102 210.405 76.7175 210.91C76.5301 211.41 76.1916 212.014 75.7022 212.721L72.2187 217.758ZM73.4684 211.827C74.1401 211.827 74.7103 211.6 75.1789 211.145C75.6527 210.686 75.8896 210.133 75.8896 209.486C75.8896 208.84 75.6527 208.29 75.1789 207.835C74.7103 207.376 74.1401 207.146 73.4684 207.146C72.8019 207.146 72.2318 207.376 71.7579 207.835C71.2893 208.29 71.055 208.84 71.055 209.486C71.055 210.133 71.2893 210.686 71.7579 211.145C72.2318 211.6 72.8019 211.827 73.4684 211.827Z" fill="#333333"/>
<path d="M80.4431 215.811C80.7086 215.811 80.9351 215.902 81.1226 216.084C81.31 216.265 81.4038 216.488 81.4038 216.75C81.4038 217.008 81.31 217.23 81.1226 217.417C80.9351 217.598 80.7086 217.689 80.4431 217.689C80.1775 217.689 79.951 217.598 79.7636 217.417C79.5761 217.23 79.4824 217.008 79.4824 216.75C79.4824 216.488 79.5761 216.265 79.7636 216.084C79.951 215.902 80.1775 215.811 80.4431 215.811Z" fill="#333333"/>
<path d="M85.4183 206.335H87.6755V217.477H86.5352V207.426H84.731L85.4183 206.335Z" fill="#333333"/>
<path d="M94.4002 217.758L93.4552 217.167L96.5559 212.607C96.1394 212.738 95.7488 212.804 95.3844 212.804C94.4731 212.804 93.6999 212.486 93.0647 211.85C92.4294 211.208 92.1118 210.421 92.1118 209.486C92.1118 208.845 92.2654 208.267 92.5726 207.752C92.8798 207.237 93.3146 206.825 93.877 206.517C94.4445 206.209 95.0511 206.055 95.6968 206.055C96.332 206.055 96.9178 206.204 97.4541 206.502C97.9956 206.8 98.42 207.217 98.7272 207.752C99.0344 208.287 99.188 208.858 99.188 209.464C99.188 209.923 99.0917 210.405 98.899 210.91C98.7116 211.41 98.3731 212.014 97.8837 212.721L94.4002 217.758ZM95.6499 211.827C96.3216 211.827 96.8918 211.6 97.3604 211.145C97.8342 210.686 98.0711 210.133 98.0711 209.486C98.0711 208.84 97.8342 208.29 97.3604 207.835C96.8918 207.376 96.3216 207.146 95.6499 207.146C94.9834 207.146 94.4133 207.376 93.9394 207.835C93.4708 208.29 93.2365 208.84 93.2365 209.486C93.2365 210.133 93.4708 210.686 93.9394 211.145C94.4133 211.6 94.9834 211.827 95.6499 211.827Z" fill="#333333"/>
<path d="M309.207 209.827H308.105C308.137 208.726 308.514 207.822 309.238 207.116C309.967 206.409 310.865 206.055 311.933 206.055C312.99 206.055 313.843 206.386 314.494 207.047C315.15 207.709 315.478 208.489 315.478 209.388C315.478 210.019 315.322 210.612 315.01 211.168C314.697 211.718 314.091 212.466 313.19 213.41L310.331 216.402H315.635V217.477H307.832L312.222 212.88C313.112 211.956 313.69 211.271 313.955 210.827C314.226 210.378 314.362 209.905 314.362 209.411C314.362 208.784 314.119 208.247 313.635 207.797C313.156 207.343 312.568 207.116 311.87 207.116C311.136 207.116 310.524 207.353 310.035 207.828C309.55 208.302 309.274 208.969 309.207 209.827Z" fill="#333333"/>
<path d="M317.376 206.335H324.663L318.517 217.758L317.572 217.288L322.883 207.388H317.376V206.335Z" fill="#333333"/>
<path d="M327.522 215.811C327.788 215.811 328.014 215.902 328.202 216.084C328.389 216.265 328.483 216.488 328.483 216.75C328.483 217.008 328.389 217.23 328.202 217.417C328.014 217.598 327.788 217.689 327.522 217.689C327.257 217.689 327.03 217.598 326.843 217.417C326.655 217.23 326.561 217.008 326.561 216.75C326.561 216.488 326.655 216.265 326.843 216.084C327.03 215.902 327.257 215.811 327.522 215.811Z" fill="#333333"/>
<path d="M330.045 211.91C330.045 210.441 330.206 209.305 330.529 208.502C330.857 207.699 331.318 207.09 331.912 206.676C332.505 206.262 333.169 206.055 333.903 206.055C334.648 206.055 335.322 206.265 335.926 206.684C336.53 207.098 337.006 207.721 337.355 208.555C337.709 209.388 337.886 210.506 337.886 211.91C337.886 213.309 337.712 214.422 337.363 215.25C337.02 216.079 336.543 216.705 335.934 217.129C335.325 217.548 334.648 217.758 333.903 217.758C333.169 217.758 332.508 217.553 331.919 217.144C331.331 216.735 330.87 216.126 330.537 215.319C330.209 214.506 330.045 213.369 330.045 211.91ZM331.13 211.933C331.13 213.19 331.245 214.142 331.474 214.788C331.708 215.43 332.052 215.917 332.505 216.25C332.958 216.583 333.437 216.75 333.942 216.75C334.453 216.75 334.929 216.589 335.372 216.265C335.814 215.937 336.15 215.447 336.379 214.796C336.665 214.003 336.809 213.049 336.809 211.933C336.809 210.812 336.681 209.895 336.426 209.183C336.171 208.466 335.817 207.944 335.364 207.615C334.916 207.282 334.442 207.116 333.942 207.116C333.432 207.116 332.953 207.282 332.505 207.615C332.057 207.944 331.716 208.431 331.482 209.077C331.248 209.719 331.13 210.67 331.13 211.933Z" fill="#333333"/>
<path d="M340.261 209.827H339.16C339.191 208.726 339.568 207.822 340.292 207.116C341.021 206.409 341.919 206.055 342.987 206.055C344.044 206.055 344.898 206.386 345.548 207.047C346.205 207.709 346.533 208.489 346.533 209.388C346.533 210.019 346.376 210.612 346.064 211.168C345.752 211.718 345.145 212.466 344.244 213.41L341.386 216.402H346.689V217.477H338.886L343.276 212.88C344.166 211.956 344.744 211.271 345.01 210.827C345.28 210.378 345.416 209.905 345.416 209.411C345.416 208.784 345.174 208.247 344.689 207.797C344.21 207.343 343.622 207.116 342.924 207.116C342.19 207.116 341.578 207.353 341.089 207.828C340.604 208.302 340.329 208.969 340.261 209.827Z" fill="#333333"/>
<path d="M349.704 215.811C349.969 215.811 350.196 215.902 350.383 216.084C350.571 216.265 350.664 216.488 350.664 216.75C350.664 217.008 350.571 217.23 350.383 217.417C350.196 217.598 349.969 217.689 349.704 217.689C349.438 217.689 349.212 217.598 349.024 217.417C348.837 217.23 348.743 217.008 348.743 216.75C348.743 216.488 348.837 216.265 349.024 216.084C349.212 215.902 349.438 215.811 349.704 215.811Z" fill="#333333"/>
<path d="M353.57 209.827H352.468C352.5 208.726 352.877 207.822 353.601 207.116C354.33 206.409 355.228 206.055 356.296 206.055C357.353 206.055 358.206 206.386 358.857 207.047C359.513 207.709 359.841 208.489 359.841 209.388C359.841 210.019 359.685 210.612 359.373 211.168C359.06 211.718 358.454 212.466 357.553 213.41L354.694 216.402H359.998V217.477H352.195L356.585 212.88C357.475 211.956 358.053 211.271 358.318 210.827C358.589 210.378 358.725 209.905 358.725 209.411C358.725 208.784 358.482 208.247 357.998 207.797C357.519 207.343 356.931 207.116 356.233 207.116C355.499 207.116 354.887 207.353 354.398 207.828C353.913 208.302 353.637 208.969 353.57 209.827Z" fill="#333333"/>
<path d="M361.099 211.91C361.099 210.441 361.26 209.305 361.583 208.502C361.911 207.699 362.372 207.09 362.966 206.676C363.559 206.262 364.223 206.055 364.957 206.055C365.702 206.055 366.376 206.265 366.98 206.684C367.584 207.098 368.061 207.721 368.409 208.555C368.764 209.388 368.941 210.506 368.941 211.91C368.941 213.309 368.766 214.422 368.417 215.25C368.074 216.079 367.597 216.705 366.988 217.129C366.379 217.548 365.702 217.758 364.957 217.758C364.223 217.758 363.562 217.553 362.973 217.144C362.385 216.735 361.924 216.126 361.591 215.319C361.263 214.506 361.099 213.369 361.099 211.91ZM362.185 211.933C362.185 213.19 362.299 214.142 362.528 214.788C362.763 215.43 363.106 215.917 363.559 216.25C364.012 216.583 364.491 216.75 364.996 216.75C365.507 216.75 365.983 216.589 366.426 216.265C366.868 215.937 367.204 215.447 367.433 214.796C367.72 214.003 367.863 213.049 367.863 211.933C367.863 210.812 367.735 209.895 367.48 209.183C367.225 208.466 366.871 207.944 366.418 207.615C365.97 207.282 365.496 207.116 364.996 207.116C364.486 207.116 364.007 207.282 363.559 207.615C363.111 207.944 362.77 208.431 362.536 209.077C362.302 209.719 362.185 210.67 362.185 211.933Z" fill="#333333"/>
</svg>
