<svg width="30" height="30" viewBox="0 0 30 30" fill="none" xmlns="http://www.w3.org/2000/svg">
<path fill-rule="evenodd" clip-rule="evenodd" d="M22.2742 7.4246C22.86 8.01039 23.3349 8.48527 23.3349 8.48527L16.9709 14.8492L23.3349 21.2132C23.3349 21.2132 22.86 21.688 22.2742 22.2738C21.6884 22.8596 21.2135 23.3345 21.2135 23.3345L14.8496 16.9705L8.48565 23.3345C8.48565 23.3345 8.01081 22.8596 7.42502 22.2738C6.83924 21.688 6.36434 21.2132 6.36434 21.2132L12.7283 14.8492L6.36434 8.48527C6.36434 8.48527 6.83923 8.0104 7.42502 7.42461C8.0108 6.83883 8.48565 6.36395 8.48565 6.36395L14.8496 12.7279L21.2135 6.36395C21.2135 6.36395 21.6884 6.83882 22.2742 7.4246Z" fill="#18191F"/>
</svg>
