<svg width="41" height="41" viewBox="0 0 41 41" fill="none" xmlns="http://www.w3.org/2000/svg">
<g clip-path="url(#clip0)">
<path d="M28.4794 20.1927C28.8111 17.1524 22.0396 3.95675 20.5008 1.30298C19.0326 4.07937 18.7158 4.47518 16.0241 10.1027C13.0821 16.8117 11.3833 19.8118 13.4532 23.9291H0.0102539V40.4976H40.9914V23.9291H27.5485C28.1425 22.8141 28.4794 21.5422 28.4794 20.1927ZM18.1949 11.1297C19.0289 9.34794 19.8685 7.66867 20.5008 6.43443C21.1332 7.66867 21.9728 9.34794 22.8068 11.1297C25.6531 17.2128 26.0781 19.4187 26.0781 20.1927C26.0781 21.6287 25.5323 22.939 24.6382 23.9291C22.5184 26.3655 18.4833 26.3662 16.3635 23.929C13.8278 20.7794 14.814 18.6963 18.1949 11.1297ZM38.5902 26.3303V38.0964H2.4115V26.3303H15.4086C18.2066 28.7645 22.7956 28.764 25.5931 26.3303H38.5902Z" fill="#CCA75D"/>
<path d="M5.31505 18.246C8.24057 18.246 10.6202 15.8664 10.6202 12.9409C10.8571 10.9806 6.54841 2.65924 5.31505 0.502441C4.07689 2.66796 -0.228132 10.9814 0.00999065 12.9409C0.00983057 15.8664 2.38954 18.246 5.31505 18.246ZM5.31505 5.6507C6.74619 8.51458 8.21895 11.8611 8.21895 12.9409C8.21895 14.5425 6.91588 15.8448 5.31505 15.8448C3.71343 15.8448 2.41115 14.5425 2.41115 12.9409C2.41107 11.861 3.88391 8.5145 5.31505 5.6507Z" fill="#CCA75D"/>
<path d="M35.6861 18.246C38.6117 18.246 40.9913 15.8664 40.9913 12.9409C41.2283 10.9771 36.9202 2.66124 35.6861 0.502441C34.4489 2.66588 30.143 10.9851 30.3811 12.9409C30.3809 15.8664 32.7606 18.246 35.6861 18.246ZM35.6861 5.6507C37.1173 8.51378 38.59 11.8603 38.59 12.9409C38.59 14.5425 37.2878 15.8448 35.6861 15.8448C34.0853 15.8448 32.7822 14.5425 32.7822 12.9409C32.7822 11.861 34.2558 8.5145 35.6861 5.6507Z" fill="#CCA75D"/>
<path d="M32.1064 28.1711H34.5077V30.5724H32.1064V28.1711Z" fill="#CCA75D"/>
<path d="M26.1831 33.4539H28.5843V35.8551H26.1831V33.4539Z" fill="#CCA75D"/>
<path d="M5.53271 32.7334H7.93396V35.1346H5.53271V32.7334Z" fill="#CCA75D"/>
<path d="M11.1357 28.9714H13.537V31.3727H11.1357V28.9714Z" fill="#CCA75D"/>
</g>
<defs>
<clipPath id="clip0">
<rect width="41" height="41" fill="white"/>
</clipPath>
</defs>
</svg>
