<svg width="44" height="40" viewBox="0 0 44 40" fill="none" xmlns="http://www.w3.org/2000/svg">
<g clip-path="url(#clip0)">
<path d="M39.1706 17.7074C34.1874 17.7074 30.1334 13.6826 30.1334 8.73556V7.90625H28.1732V8.73556C28.1732 13.6826 24.1485 17.7074 19.2014 17.7074H18.3721V19.6676H19.2014C24.1485 19.6676 28.1732 23.6924 28.1732 28.6394V29.4688H30.1334V28.6394C30.1334 23.6924 34.1874 19.6676 39.1706 19.6676H39.9999V17.7074H39.1706ZM29.1563 24.1233C28.0625 21.7217 26.1245 19.7828 23.7238 18.6875C26.1245 17.5923 28.0625 15.6533 29.1563 13.2517C30.2566 15.6533 32.2061 17.5922 34.6212 18.6875C32.2061 19.7828 30.2566 21.7217 29.1563 24.1233Z" fill="#CCA75D"/>
<path d="M19.3522 5.94602C16.6501 5.94602 14.4517 3.71835 14.4517 0.980114V0H12.4914V0.980114C12.4914 3.6719 10.2173 5.94602 7.52552 5.94602H6.54541V7.90625H7.52552C10.2638 7.90625 12.4914 10.1046 12.4914 12.8068V13.7869H14.4517V12.8068C14.4517 10.1046 16.6501 7.90625 19.3522 7.90625H20.3323V5.94602H19.3522ZM13.4668 9.28442C12.8778 8.31313 12.053 7.49754 11.0714 6.91562C11.5512 6.62478 12.0005 6.27305 12.4094 5.86409C12.8183 5.45512 13.1701 5.0059 13.461 4.52603C14.043 5.50765 14.8585 6.33245 15.8298 6.9215C14.8618 7.50303 14.0484 8.31639 13.4668 9.28442Z" fill="#CCA75D"/>
<path d="M17.6719 27.5086C15.8961 27.5086 14.4515 26.064 14.4515 24.2882V23.5881H12.4913V24.2882C12.4913 26.064 11.0466 27.5086 9.27086 27.5086H8.5708V29.4688H9.27086C11.0466 29.4688 12.4913 30.9134 12.4913 32.6892V33.4546H14.4515V32.6892C14.4515 30.9134 15.8961 29.4688 17.6719 29.4688H18.3719V27.5086H17.6719ZM13.4714 29.6624C13.1454 29.2112 12.7488 28.8147 12.2977 28.4887C12.7489 28.1627 13.1454 27.7662 13.4714 27.315C13.7974 27.7662 14.1939 28.1627 14.645 28.4887C14.1939 28.8147 13.7974 29.2112 13.4714 29.6624Z" fill="#CCA75D"/>
</g>
<rect y="38.5454" width="43.6364" height="1.45455" fill="#CCA75D"/>
<defs>
<clipPath id="clip0">
<rect width="33.4545" height="33.4545" fill="white" transform="translate(6.54541)"/>
</clipPath>
</defs>
</svg>
