<svg width="31" height="31" viewBox="0 0 31 31" fill="none" xmlns="http://www.w3.org/2000/svg">
<path d="M23.6537 1.81641H25.4902V0H5.50977V1.81641H7.19273C7.47669 8.4739 10.7677 12.1459 14.1405 15.5418C10.7818 18.9235 7.50436 22.579 7.19648 29.1836H5.50977V31H25.4902V29.1836H23.65C23.3421 22.579 20.0646 18.9235 16.706 15.5418C20.0788 12.1459 23.3698 8.4739 23.6537 1.81641V1.81641ZM15.4233 14.2559C14.3105 13.1355 13.2355 12.0133 12.293 10.7806C13.6589 10.5993 14.7025 10.3386 15.7203 10.0842C16.8754 9.79539 17.9826 9.51876 19.5448 9.35467C18.4053 11.1791 16.9496 12.719 15.4233 14.2559V14.2559ZM21.8354 1.81641C21.7323 4.01613 21.2678 5.84907 20.5589 7.44963C18.1952 7.59355 16.7146 7.96331 15.2797 8.32205C14.0452 8.63071 12.8719 8.92388 11.1359 9.0827C9.9576 7.11153 9.15093 4.80228 9.01101 1.81641H21.8354ZM12.0077 29.1836L14.8058 25.8734C14.9791 25.6684 15.2321 25.5508 15.5 25.5508C15.7679 25.5508 16.0209 25.6684 16.1942 25.8734L18.9923 29.1836H12.0077ZM21.3707 29.1836L17.5815 24.7008C17.0624 24.0866 16.3036 23.7344 15.5 23.7344C14.6964 23.7344 13.9376 24.0866 13.4185 24.7008L9.62925 29.1836H9.01476C9.31605 23.305 12.2133 20.0599 15.4233 16.8278C18.6332 20.0598 21.5305 23.305 21.8317 29.1836H21.3707Z" fill="#CCA75D"/>
<path d="M14.5918 20.1016H16.4082V21.918H14.5918V20.1016Z" fill="#CCA75D"/>
</svg>
