<svg width="41" height="41" viewBox="0 0 41 41" fill="none" xmlns="http://www.w3.org/2000/svg">
<path d="M31.4332 0H9.5666C8.43638 0 7.5166 0.919777 7.5166 2.05C7.5166 3.18022 8.43638 4.1 9.5666 4.1H31.4333C32.5635 4.1 33.4833 3.18022 33.4833 2.05C33.4833 0.919777 32.5634 0 31.4332 0ZM31.4332 2.73331H9.5666C9.19007 2.73331 8.8833 2.42717 8.8833 2.05C8.8833 1.67283 9.19007 1.36669 9.5666 1.36669H31.4333C31.8098 1.36669 32.1166 1.67283 32.1166 2.05C32.1166 2.42717 31.8097 2.73331 31.4332 2.73331Z" fill="#CCA75D"/>
<path d="M31.4332 36.8999H9.5666C8.43638 36.8999 7.5166 37.8197 7.5166 38.9499C7.5166 40.0801 8.43638 40.9999 9.5666 40.9999H31.4333C32.5635 40.9999 33.4833 40.0801 33.4833 38.9499C33.4833 37.8197 32.5634 36.8999 31.4332 36.8999ZM31.4332 39.6332H9.5666C9.19007 39.6332 8.8833 39.3271 8.8833 38.9499C8.8833 38.5727 9.19007 38.2666 9.5666 38.2666H31.4333C31.8098 38.2666 32.1166 38.5727 32.1166 38.9499C32.1166 39.3271 31.8097 39.6332 31.4332 39.6332Z" fill="#CCA75D"/>
<path d="M25.3695 17.9635C28.8394 14.4935 30.75 9.88029 30.75 4.97398V3.41671C30.75 3.03882 30.4439 2.7334 30.0667 2.7334H10.9333C10.5561 2.7334 10.25 3.03882 10.25 3.41671V4.97398C10.25 9.88101 12.1606 14.4935 15.6299 17.9635L16.3166 18.6502C16.8038 19.1374 17.0833 19.8112 17.0833 20.5C17.0833 21.1888 16.8038 21.8626 16.3173 22.3498L15.6305 23.0366C12.1606 26.5065 10.25 31.119 10.25 36.026V37.5833C10.25 37.9612 10.5561 38.2666 10.9333 38.2666H30.0666C30.4438 38.2666 30.7499 37.9612 30.7499 37.5833V36.026C30.7499 31.1197 28.8393 26.5065 25.3694 23.0366L24.6826 22.3498C24.1886 21.8557 23.9166 21.1991 23.9166 20.5C23.9166 19.8009 24.1886 19.1443 24.6826 18.6502L25.3695 17.9635ZM23.7164 17.684C22.9641 18.4357 22.55 19.4354 22.55 20.5C22.55 21.5647 22.9641 22.5643 23.7164 23.316L24.4032 24.0028C27.6149 27.2145 29.3833 31.4846 29.3833 36.026V36.9H11.6167V36.026C11.6167 31.4839 13.3851 27.2145 16.5961 24.0028L17.2829 23.316C18.0359 22.5643 18.45 21.5639 18.45 20.5C18.45 19.4361 18.0359 18.4357 17.2836 17.684L16.5968 16.9972C13.3851 13.7855 11.6167 9.51538 11.6167 4.97398V4.10001H29.3834V4.97398C29.3834 9.51546 27.6149 13.7855 24.4032 16.9972L23.7164 17.684Z" fill="#CCA75D"/>
<path d="M26.2746 11.5121C26.2055 11.3386 25.9705 10.9333 25.283 10.9333C21.7325 10.9333 20.1505 10.1728 19.5232 9.71904C18.7407 9.15256 17.737 9.00426 16.8356 9.32337C15.9753 9.62743 15.3453 10.3039 15.1082 11.1786C15.0467 11.4062 15.0357 11.5538 15.0357 11.5538C15.0254 11.6884 15.0548 11.834 15.1211 11.9522C15.7614 13.0872 16.5001 14.2844 17.5633 15.3476L18.2494 16.0344C19.26 17.0437 19.8163 18.3871 19.8163 19.8166C19.8163 20.1945 20.1224 20.5 20.4996 20.5C20.8767 20.5 21.1829 20.1945 21.1829 19.8166C21.1829 18.3878 21.7391 17.0443 22.749 16.0344L23.4365 15.3469C23.6053 15.1788 23.8253 14.9711 24.0672 14.7443C25.8338 13.0831 26.5766 12.2747 26.2746 11.5121ZM23.1299 13.7487C22.8771 13.9872 22.6461 14.2045 22.4698 14.3808L21.7823 15.0683C21.2514 15.5985 20.8209 16.2026 20.499 16.8572C20.1772 16.2026 19.7467 15.5985 19.2157 15.0683L18.5296 14.3815C17.6904 13.5417 17.0762 12.6171 16.4372 11.5026C16.606 10.9321 17.0433 10.6997 17.2914 10.6115C17.7684 10.4427 18.3034 10.5227 18.7216 10.8261C19.5921 11.4562 21.3087 12.1989 24.5969 12.2905C24.1747 12.7661 23.5119 13.39 23.1299 13.7487Z" fill="#CCA75D"/>
<path d="M27.9695 34.7969C27.798 32.5815 26.9097 31.6617 25.8819 30.5957C25.7432 30.4515 25.5984 30.3019 25.4501 30.1434C24.5918 29.2263 23.3796 28.7002 22.1229 28.7002H18.8764C17.6204 28.7002 16.4075 29.2264 15.5492 30.1434C15.4009 30.3019 15.2568 30.4509 15.118 30.5951C14.0896 31.6611 13.2012 32.5815 13.0304 34.7976C13.0154 34.9875 13.081 35.1748 13.2101 35.3149C13.3399 35.4543 13.5211 35.5336 13.7117 35.5336H27.2881C27.4781 35.5336 27.6598 35.4543 27.7896 35.3142C27.9189 35.1741 27.9838 34.9862 27.9695 34.7969ZM14.49 34.1669C14.7217 32.9738 15.2738 32.4025 16.102 31.5442C16.2455 31.3953 16.3944 31.2402 16.5476 31.0768C17.1482 30.4345 17.9969 30.0669 18.8764 30.0669H22.1229C23.003 30.0669 23.8517 30.4352 24.4524 31.0762C24.6061 31.2416 24.7551 31.3953 24.8993 31.545C25.7268 32.4032 26.2782 32.9745 26.5106 34.1669H14.49Z" fill="#CCA75D"/>
<path d="M20.4792 21.8669C20.102 21.8669 19.7959 22.1724 19.7959 22.5503V23.2336C19.7959 23.6114 20.102 23.9169 20.4792 23.9169C20.8564 23.9169 21.1625 23.6114 21.1625 23.2336V22.5503C21.1625 22.1724 20.8564 21.8669 20.4792 21.8669Z" fill="#CCA75D"/>
<path d="M20.4792 25.2834C20.102 25.2834 19.7959 25.5889 19.7959 25.9668V26.6501C19.7959 27.028 20.102 27.3334 20.4792 27.3334C20.8564 27.3334 21.1625 27.028 21.1625 26.6501V25.9668C21.1625 25.5889 20.8564 25.2834 20.4792 25.2834Z" fill="#CCA75D"/>
</svg>
