<svg width="31" height="31" viewBox="0 0 31 31" fill="none" xmlns="http://www.w3.org/2000/svg">
<path d="M26.4602 4.5398C23.5326 1.6123 19.6402 0 15.5 0C11.3598 0 7.46743 1.6123 4.5398 4.5398C1.6123 7.46737 0 11.3598 0 15.5C0 19.6402 1.6123 23.5326 4.5398 26.4602C7.46743 29.3877 11.3598 31 15.5 31C19.6402 31 23.5326 29.3877 26.4602 26.4602C29.3877 23.5326 31 19.6402 31 15.5C31 11.3598 29.3877 7.46737 26.4602 4.5398V4.5398ZM1.81641 15.5C1.81641 11.845 3.23974 8.40875 5.82425 5.82425C8.40875 3.23974 11.845 1.81641 15.5 1.81641C18.8506 1.81641 22.0168 3.0133 24.5121 5.20358L17.9384 11.7773L16.4082 10.8938V8.30322L19.7609 6.36759L18.8527 4.79459L15.5 6.73021L12.1474 4.79459L11.2392 6.36759L14.5918 8.30328V10.8938L9.95239 13.5724V19.7633L5.20358 24.5121C3.0133 22.0168 1.81641 18.8506 1.81641 15.5ZM11.7688 14.621L15.5 12.4668L19.2313 14.6211V18.9296L15.5 21.0838L11.7688 18.9296V14.621ZM25.1758 25.1758C22.5912 27.7603 19.155 29.1836 15.5 29.1836C12.1494 29.1836 8.98322 27.9867 6.48796 25.7965L11.4446 20.8398L14.5918 22.6568V26.5801H16.4082V22.6568L21.0477 19.9782V13.5724L19.5669 12.7174L25.7965 6.4879C27.9867 8.98322 29.1836 12.1494 29.1836 15.5C29.1836 19.155 27.7603 22.5912 25.1758 25.1758V25.1758Z" fill="#CCA75D"/>
</svg>
