<svg width="42" height="42" viewBox="0 0 42 42" fill="none" xmlns="http://www.w3.org/2000/svg">
<path d="M35.8493 6.1507C31.8828 2.18441 26.6093 0 21 0C15.3907 0 10.1172 2.18441 6.1507 6.1507C2.18441 10.1171 0 15.3907 0 21C0 26.6093 2.18441 31.8829 6.1507 35.8493C10.1172 39.8156 15.3907 42 21 42C26.6093 42 31.8828 39.8156 35.8493 35.8493C39.8156 31.8829 42 26.6093 42 21C42 15.3907 39.8156 10.1171 35.8493 6.1507ZM2.46094 21C2.46094 16.048 4.38933 11.3925 7.89091 7.89091C11.3925 4.38933 16.048 2.46094 21 2.46094C25.5395 2.46094 29.8293 4.08253 33.2099 7.05001L24.3036 15.9563L22.2305 14.7593V11.2495L26.7728 8.62706L25.5423 6.49589L21 9.11835L16.4578 6.49589L15.2273 8.62706L19.7695 11.2496V14.7594L13.4839 18.3885V26.7761L7.05001 33.2099C4.08253 29.8293 2.46094 25.5395 2.46094 21ZM15.9448 19.8092L21 16.8906L26.0553 19.8092V25.6466L21 28.5652L15.9448 25.6465V19.8092ZM34.1091 34.1091C30.6075 37.6107 25.952 39.5391 21 39.5391C16.4605 39.5391 12.1708 37.9175 8.79014 34.9501L15.5056 28.2346L19.7695 30.6963V36.0117H22.2305V30.6963L28.5162 27.0673V18.3884L26.51 17.2301L34.9501 8.79006C37.9175 12.1708 39.5391 16.4605 39.5391 21C39.5391 25.952 37.6107 30.6075 34.1091 34.1091Z" fill="#CCA75D"/>
</svg>
