<svg width="31" height="31" viewBox="0 0 31 31" fill="none" xmlns="http://www.w3.org/2000/svg">
<path d="M15.5 0C6.93958 0 0 6.93958 0 15.5C0 24.0604 6.93958 31 15.5 31C24.0604 31 31 24.0604 31 15.5C31 6.93958 24.0604 0 15.5 0ZM1.81641 15.5C1.81641 12.0482 3.09497 8.89543 5.20376 6.48814L10.5828 11.8672L9.40832 13.0417C9.05261 12.8711 8.65451 12.7754 8.23438 12.7754C7.05038 12.7754 6.04088 13.5347 5.66598 14.5918H4.60156C4.09999 14.5918 3.69336 14.9984 3.69336 15.5C3.69336 16.0016 4.09999 16.4082 4.60156 16.4082H5.66598C6.04088 17.4653 7.05038 18.2246 8.23438 18.2246C8.65451 18.2246 9.05261 18.1289 9.40832 17.9583L13.0416 21.5916C12.8711 21.9474 12.7754 22.3455 12.7754 22.7656C12.7754 23.9496 13.5347 24.9591 14.5918 25.334V26.3984C14.5918 26.9 14.9984 27.3066 15.5 27.3066C16.0016 27.3066 16.4082 26.9 16.4082 26.3984V25.334C17.4653 24.9591 18.2246 23.9496 18.2246 22.7656C18.2246 22.3455 18.1289 21.9474 17.9583 21.5917L19.1328 20.4172L24.5119 25.7962C22.1046 27.905 18.9518 29.1836 15.5 29.1836C7.94278 29.1836 1.81641 23.0572 1.81641 15.5V15.5ZM9.14258 15.5C9.14258 16.0008 8.73516 16.4082 8.23438 16.4082C7.73359 16.4082 7.32617 16.0008 7.32617 15.5C7.32617 14.9992 7.73359 14.5918 8.23438 14.5918C8.73516 14.5918 9.14258 14.9992 9.14258 15.5ZM10.6927 14.3261L11.8672 13.1516L17.8484 19.1328L16.6739 20.3073C16.3182 20.1367 15.9201 20.041 15.5 20.041C15.0799 20.041 14.6818 20.1367 14.3261 20.3073L10.6928 16.674C10.8633 16.3182 10.959 15.9201 10.959 15.5C10.959 15.0799 10.8633 14.6818 10.6927 14.3261V14.3261ZM15.5 10.959C15.9201 10.959 16.3182 10.8633 16.6739 10.6927L20.3072 14.326C20.1367 14.6818 20.041 15.0799 20.041 15.5C20.041 15.9201 20.1367 16.3182 20.3073 16.6739L19.1328 17.8484L13.1516 11.8672L14.3261 10.6927C14.6818 10.8633 15.0799 10.959 15.5 10.959V10.959ZM14.5918 8.23438C14.5918 7.73359 14.9992 7.32617 15.5 7.32617C16.0008 7.32617 16.4082 7.73359 16.4082 8.23438C16.4082 8.73516 16.0008 9.14258 15.5 9.14258C14.9992 9.14258 14.5918 8.73516 14.5918 8.23438ZM16.4082 22.7656C16.4082 23.2664 16.0008 23.6738 15.5 23.6738C14.9992 23.6738 14.5918 23.2664 14.5918 22.7656C14.5918 22.2648 14.9992 21.8574 15.5 21.8574C16.0008 21.8574 16.4082 22.2648 16.4082 22.7656ZM25.7962 24.5119L20.4172 19.1328L21.5917 17.9583C21.9474 18.1289 22.3455 18.2246 22.7656 18.2246C23.9496 18.2246 24.9591 17.4653 25.334 16.4082H26.3984C26.9 16.4082 27.3066 16.0016 27.3066 15.5C27.3066 14.9984 26.9 14.5918 26.3984 14.5918H25.334C24.9591 13.5347 23.9496 12.7754 22.7656 12.7754C22.3455 12.7754 21.9474 12.8711 21.5917 13.0417L17.9584 9.40838C18.1289 9.05261 18.2246 8.65451 18.2246 8.23438C18.2246 7.05038 17.4653 6.04088 16.4082 5.66598V4.60156C16.4082 4.09999 16.0016 3.69336 15.5 3.69336C14.9984 3.69336 14.5918 4.09999 14.5918 4.60156V5.66598C13.5347 6.04088 12.7754 7.05038 12.7754 8.23438C12.7754 8.65451 12.8711 9.05261 13.0417 9.40832L11.8672 10.5828L6.48814 5.20376C8.89543 3.09497 12.0482 1.81641 15.5 1.81641C23.0572 1.81641 29.1836 7.94278 29.1836 15.5C29.1836 18.9518 27.905 22.1046 25.7962 24.5119ZM21.8574 15.5C21.8574 14.9992 22.2648 14.5918 22.7656 14.5918C23.2664 14.5918 23.6738 14.9992 23.6738 15.5C23.6738 16.0008 23.2664 16.4082 22.7656 16.4082C22.2648 16.4082 21.8574 16.0008 21.8574 15.5Z" fill="#CCA75D"/>
</svg>
