<svg width="41" height="41" viewBox="0 0 41 41" fill="none" xmlns="http://www.w3.org/2000/svg">
<path d="M20.5 0C9.17815 0 0 9.17815 0 20.5C0 31.8218 9.17815 41 20.5 41C31.8218 41 41 31.8218 41 20.5C41 9.17815 31.8218 0 20.5 0ZM2.40234 20.5C2.40234 15.9347 4.09335 11.7649 6.88239 8.58109L13.9966 15.6953L12.4433 17.2487C11.9728 17.0231 11.4463 16.8965 10.8906 16.8965C9.3247 16.8965 7.98955 17.9007 7.49371 19.2988H6.08594C5.42257 19.2988 4.88477 19.8366 4.88477 20.5C4.88477 21.1634 5.42257 21.7012 6.08594 21.7012H7.49371C7.98955 23.0993 9.3247 24.1035 10.8906 24.1035C11.4463 24.1035 11.9728 23.9769 12.4433 23.7513L17.2486 28.5567C17.0231 29.0272 16.8965 29.5537 16.8965 30.1094C16.8965 31.6753 17.9007 33.0104 19.2988 33.5063V34.9141C19.2988 35.5774 19.8366 36.1152 20.5 36.1152C21.1634 36.1152 21.7012 35.5774 21.7012 34.9141V33.5063C23.0993 33.0104 24.1035 31.6753 24.1035 30.1094C24.1035 29.5537 23.9769 29.0272 23.7513 28.5567L25.3047 27.0034L32.4189 34.1176C29.2351 36.9066 25.0653 38.5977 20.5 38.5977C10.505 38.5977 2.40234 30.495 2.40234 20.5ZM12.0918 20.5C12.0918 21.1623 11.553 21.7012 10.8906 21.7012C10.2283 21.7012 9.68945 21.1623 9.68945 20.5C9.68945 19.8377 10.2283 19.2988 10.8906 19.2988C11.553 19.2988 12.0918 19.8377 12.0918 20.5ZM14.142 18.9474L15.6953 17.394L23.606 25.3047L22.0526 26.858C21.5822 26.6325 21.0557 26.5059 20.5 26.5059C19.9443 26.5059 19.4178 26.6325 18.9474 26.858L14.142 22.0527C14.3675 21.5822 14.4941 21.0557 14.4941 20.5C14.4941 19.9443 14.3675 19.4178 14.142 18.9474ZM20.5 14.4941C21.0557 14.4941 21.5822 14.3675 22.0526 14.142L26.858 18.9473C26.6325 19.4178 26.5059 19.9443 26.5059 20.5C26.5059 21.0557 26.6325 21.5822 26.858 22.0526L25.3047 23.606L17.394 15.6953L18.9474 14.142C19.4178 14.3675 19.9443 14.4941 20.5 14.4941ZM19.2988 10.8906C19.2988 10.2283 19.8377 9.68945 20.5 9.68945C21.1623 9.68945 21.7012 10.2283 21.7012 10.8906C21.7012 11.553 21.1623 12.0918 20.5 12.0918C19.8377 12.0918 19.2988 11.553 19.2988 10.8906ZM21.7012 30.1094C21.7012 30.7717 21.1623 31.3105 20.5 31.3105C19.8377 31.3105 19.2988 30.7717 19.2988 30.1094C19.2988 29.447 19.8377 28.9082 20.5 28.9082C21.1623 28.9082 21.7012 29.447 21.7012 30.1094ZM34.1176 32.4189L27.0034 25.3047L28.5567 23.7513C29.0272 23.9769 29.5537 24.1035 30.1094 24.1035C31.6753 24.1035 33.0104 23.0993 33.5063 21.7012H34.9141C35.5774 21.7012 36.1152 21.1634 36.1152 20.5C36.1152 19.8366 35.5774 19.2988 34.9141 19.2988H33.5063C33.0104 17.9007 31.6753 16.8965 30.1094 16.8965C29.5537 16.8965 29.0272 17.0231 28.5567 17.2487L23.7514 12.4433C23.9769 11.9728 24.1035 11.4463 24.1035 10.8906C24.1035 9.3247 23.0993 7.98955 21.7012 7.49371V6.08594C21.7012 5.42257 21.1634 4.88477 20.5 4.88477C19.8366 4.88477 19.2988 5.42257 19.2988 6.08594V7.49371C17.9007 7.98955 16.8965 9.3247 16.8965 10.8906C16.8965 11.4463 17.0231 11.9728 17.2487 12.4433L15.6953 13.9966L8.58109 6.88239C11.7649 4.09335 15.9347 2.40234 20.5 2.40234C30.495 2.40234 38.5977 10.505 38.5977 20.5C38.5977 25.0653 36.9066 29.2351 34.1176 32.4189ZM28.9082 20.5C28.9082 19.8377 29.447 19.2988 30.1094 19.2988C30.7717 19.2988 31.3105 19.8377 31.3105 20.5C31.3105 21.1623 30.7717 21.7012 30.1094 21.7012C29.447 21.7012 28.9082 21.1623 28.9082 20.5Z" fill="#CCA75D"/>
</svg>
