<svg width="31" height="31" viewBox="0 0 31 31" fill="none" xmlns="http://www.w3.org/2000/svg">
<path d="M15.5 0C6.93958 0 0 6.93958 0 15.5C0 24.0604 6.93958 31 15.5 31C24.0604 31 31 24.0604 31 15.5C31 6.93958 24.0604 0 15.5 0ZM15.5 29.1836C7.94278 29.1836 1.81641 23.0572 1.81641 15.5C1.81641 12.0482 3.09497 8.89543 5.20376 6.48814L8.02724 9.31163C7.812 11.7569 7.96325 14.7273 8.44441 17.4931C8.44756 17.6575 8.45943 17.8248 8.48147 17.9975C7.73347 18.9448 7.32617 20.1087 7.32617 21.3218C7.32617 24.288 9.73933 26.7012 12.7055 26.7012C13.691 26.7012 14.6614 26.4256 15.5 25.9157C16.3386 26.4256 17.309 26.7012 18.2945 26.7012C20.2231 26.7012 21.9176 25.6808 22.8673 24.1517L24.5119 25.7962C22.1046 27.905 18.9518 29.1836 15.5 29.1836V29.1836ZM11.33 12.6144C11.0667 12.7768 10.8151 12.9553 10.5773 13.1498C10.3034 13.3738 10.0545 13.6134 9.83069 13.8658C9.76167 12.8992 9.73545 11.9445 9.75404 11.0385L11.33 12.6144ZM9.92781 8.64343C10.155 6.97718 10.5321 6.30184 10.6977 6.15489C10.9879 6.23233 12.1297 7.37128 13.2614 11.7747C13.2089 11.7893 13.1567 11.8045 13.1046 11.8203L9.92781 8.64343ZM10.1101 18.8875C10.313 18.6713 10.3975 18.3696 10.3366 18.0794C10.2847 17.8324 10.2595 17.6133 10.2595 17.4096C10.2595 15.9589 11.2174 14.6809 12.6618 13.9461L21.5291 22.8134C20.9634 24.0349 19.7267 24.8848 18.2945 24.8848C17.6173 24.8848 16.973 24.698 16.4082 24.3423V23.0684H16.7109C17.2125 23.0684 17.6191 22.6617 17.6191 22.1602C17.6191 21.6586 17.2125 21.252 16.7109 21.252H14.2891C13.7875 21.252 13.3809 21.6586 13.3809 22.1602C13.3809 22.6617 13.7875 23.0684 14.2891 23.0684H14.5918V24.3423C14.027 24.698 13.3827 24.8848 12.7055 24.8848C10.7409 24.8848 9.14258 23.2864 9.14258 21.3218C9.14258 20.4169 9.48612 19.5524 10.1101 18.8875ZM20.7397 17.4096C20.7397 17.6163 20.7147 17.8354 20.6635 18.0794C20.6025 18.3696 20.6871 18.6713 20.89 18.8875C21.3137 19.339 21.6077 19.8827 21.753 20.4685L14.6293 13.3449C14.9126 13.3075 15.2034 13.2877 15.5 13.2877C18.3892 13.2877 20.7397 15.1368 20.7397 17.4096V17.4096ZM17.7386 11.7747C18.8726 7.36274 20.0164 6.22785 20.3017 6.15429C20.5001 6.32933 21.0052 7.26593 21.1883 9.77148C21.2802 11.0301 21.2714 12.4357 21.1692 13.8664C20.9453 13.6138 20.6963 13.374 20.4223 13.1498C19.651 12.5188 18.7351 12.0534 17.7386 11.7747ZM25.7962 24.5119L23.5844 22.3C23.6429 21.9827 23.6738 21.6558 23.6738 21.3218C23.6738 20.1085 23.2665 18.9444 22.5182 17.9971C22.5397 17.8273 22.5514 17.6621 22.5546 17.4989C23.0425 14.6974 23.1926 11.6843 22.9654 9.22056C22.6847 6.17748 21.924 4.58812 20.6398 4.36168C19.5324 4.16605 18.5138 4.95746 17.612 6.71265C17.0086 7.88696 16.4349 9.52511 15.9389 11.4829C15.7933 11.4754 15.6471 11.4713 15.5001 11.4713C15.3531 11.4713 15.2068 11.4754 15.0612 11.4829C14.5652 9.52511 13.9915 7.88696 13.3881 6.71265C12.4862 4.95746 11.4678 4.16653 10.3602 4.36168C9.42109 4.52727 8.76228 5.42276 8.36612 7.08162L6.4882 5.2037C8.89543 3.09497 12.0482 1.81641 15.5 1.81641C23.0572 1.81641 29.1836 7.94278 29.1836 15.5C29.1836 18.9518 27.905 22.1046 25.7962 24.5119Z" fill="#CCA75D"/>
</svg>
