<svg width="44" height="44" viewBox="0 0 44 44" fill="none" xmlns="http://www.w3.org/2000/svg">
<g clip-path="url(#clip0)">
<path d="M40.1213 6.20604C37.6202 3.70479 34.2946 2.32729 30.7574 2.32729C27.4995 2.32729 24.4212 3.49589 22.0012 5.63458C20.0878 3.94325 17.76 2.85586 15.2202 2.47466C12.4619 2.06072 9.69664 2.50904 7.22401 3.77147C6.8013 3.98725 6.63356 4.50491 6.84943 4.92761C7.06529 5.3504 7.58303 5.51814 8.00548 5.3022C10.1566 4.20389 12.5632 3.81384 14.9651 4.17433C17.414 4.54186 19.6368 5.66466 21.3936 7.42138C21.5548 7.58251 21.7733 7.67308 22.0012 7.67308C22.2291 7.67308 22.4476 7.58251 22.6088 7.42138C24.7853 5.24479 27.6793 4.04612 30.7574 4.04612C33.8355 4.04612 36.7295 5.24488 38.906 7.42147C41.0826 9.59806 42.2812 12.4919 42.2812 15.57C42.2812 18.6482 41.0826 21.542 38.906 23.7186L23.1392 39.4853C22.8352 39.7893 22.431 39.9567 22.0011 39.9567C21.5713 39.9567 21.167 39.7893 20.8631 39.4853L5.09631 23.7185C3.33976 21.9619 2.21688 19.7391 1.84934 17.2903C1.48885 14.8886 1.87882 12.4821 2.97695 10.3309C3.19281 9.90819 3.02507 9.39062 2.60237 9.17476C2.17992 8.95915 1.66218 9.12672 1.44632 9.54942C0.184049 12.0221 -0.264262 14.7869 0.149762 17.5455C0.572294 20.3605 1.86257 22.9153 3.88105 24.9337L19.6478 40.7006C20.2764 41.3292 21.1122 41.6753 22.0012 41.6753C22.8902 41.6753 23.7259 41.3292 24.3546 40.7006L40.1215 24.9337C42.6227 22.4326 44.0002 19.107 44.0002 15.5699C44.0002 12.0327 42.6226 8.7072 40.1213 6.20604Z" fill="#CCA75D"/>
<path d="M31.9733 12.2482C32.0685 11.2679 32.0388 9.52805 30.7687 8.88949C28.7851 7.89232 26.0796 10.6882 24.4319 13.9653C23.992 14.8402 23.6319 15.7364 23.3715 16.5986C22.9295 16.5027 22.4711 16.4509 22.0008 16.4509C21.5305 16.4509 21.0722 16.5027 20.6302 16.5986C20.3698 15.7364 20.0097 14.8402 19.5698 13.9653C17.922 10.6882 15.2169 7.89215 13.2329 8.88949C11.9629 9.52805 11.9331 11.2679 12.0283 12.2482C12.1662 13.6656 12.6986 15.3543 13.5275 17.0032C14.2308 18.4017 15.0874 19.6496 15.9762 20.5794C15.6946 21.3039 15.5383 22.0904 15.5383 22.9133C15.5383 22.9507 15.5388 22.9885 15.5396 23.0271C14.4484 24.0385 13.831 25.4427 13.831 26.9463C13.831 29.8974 16.2318 32.2983 19.1829 32.2983C20.1792 32.2983 21.1586 32.0165 22.0007 31.4954C22.8429 32.0164 23.8223 32.2983 24.8186 32.2983C27.7697 32.2983 30.1705 29.8974 30.1705 26.9463C30.1705 25.4427 29.5531 24.0384 28.4619 23.0271C28.4627 22.9886 28.4631 22.9507 28.4631 22.9134C28.4631 22.0906 28.3069 21.3039 28.0252 20.5795C28.914 19.6497 29.7707 18.402 30.474 17.0034C31.303 15.3543 31.8355 13.6656 31.9733 12.2482ZM15.0631 16.2312C14.3377 14.7883 13.855 13.276 13.739 12.0819C13.6362 11.0239 13.8476 10.5042 14.005 10.425C14.4362 10.2073 16.3821 11.4511 18.0343 14.7373C18.4467 15.5574 18.7782 16.3922 19.0111 17.1868C18.1693 17.6281 17.4363 18.2489 16.8635 18.999C16.2176 18.2432 15.5957 17.2905 15.0631 16.2312ZM24.8186 30.5796C24.113 30.5796 23.4435 30.3819 22.8602 30.0058V29.4992L24.0292 28.3301C24.3647 27.9945 24.3647 27.4504 24.0292 27.1148C23.6935 26.7792 23.1496 26.7792 22.8138 27.1148L22.0007 27.9279L21.1876 27.1148C20.8521 26.7792 20.3081 26.7792 19.9723 27.1148C19.6367 27.4504 19.6367 27.9945 19.9723 28.3301L21.1413 29.4992V30.0058C20.558 30.3819 19.8885 30.5796 19.1828 30.5796C17.1795 30.5796 15.5496 28.9497 15.5496 26.9463C15.5496 25.8203 16.0601 24.7761 16.9505 24.0811C17.1803 23.9017 17.3035 23.6179 17.2776 23.3274C17.2638 23.1714 17.257 23.036 17.257 22.9134C17.257 20.2977 19.385 18.1696 22.0007 18.1696C24.6164 18.1696 26.7445 20.2977 26.7445 22.9134C26.7445 23.036 26.7377 23.1714 26.7239 23.3274C26.6979 23.6179 26.8211 23.9017 27.051 24.0811C27.9413 24.7761 28.452 25.8204 28.452 26.9463C28.452 28.9497 26.8221 30.5796 24.8186 30.5796ZM30.2627 12.0819C30.1467 13.276 29.6641 14.7883 28.9386 16.2312C28.4059 17.2905 27.784 18.2433 27.1383 18.9991C26.5654 18.2489 25.8324 17.6282 24.9906 17.1868C25.2236 16.3922 25.5551 15.5572 25.9674 14.7373C27.6195 11.4513 29.5645 10.2083 29.9967 10.425C30.1541 10.5042 30.3655 11.024 30.2627 12.0819Z" fill="#CCA75D"/>
<path d="M4.49116 7.67642C4.96576 7.67642 5.35049 7.29168 5.35049 6.81709C5.35049 6.3425 4.96576 5.95776 4.49116 5.95776C4.01657 5.95776 3.63184 6.3425 3.63184 6.81709C3.63184 7.29168 4.01657 7.67642 4.49116 7.67642Z" fill="#CCA75D"/>
<path d="M20.1396 25.0546C20.6142 25.0546 20.9989 24.6699 20.9989 24.1953C20.9989 23.7207 20.6142 23.3359 20.1396 23.3359C19.665 23.3359 19.2803 23.7207 19.2803 24.1953C19.2803 24.6699 19.665 25.0546 20.1396 25.0546Z" fill="#CCA75D"/>
<path d="M23.748 25.0546C24.2226 25.0546 24.6073 24.6699 24.6073 24.1953C24.6073 23.7207 24.2226 23.3359 23.748 23.3359C23.2734 23.3359 22.8887 23.7207 22.8887 24.1953C22.8887 24.6699 23.2734 25.0546 23.748 25.0546Z" fill="#CCA75D"/>
</g>
<defs>
<clipPath id="clip0">
<rect width="44" height="44" fill="white"/>
</clipPath>
</defs>
</svg>
