<svg width="61" height="60" fill="none" xmlns="http://www.w3.org/2000/svg"><path d="M56.914 58.182H5.022a2.453 2.453 0 01-1.72-.7 2.372 2.372 0 01-.712-1.692V4.763c0-.634.256-1.242.712-1.691a2.453 2.453 0 011.72-.7h51.892c.645 0 1.264.251 1.72.7.456.449.713 1.057.713 1.691V55.79c0 .635-.257 1.243-.713 1.692-.456.448-1.075.7-1.72.7zM5.022 3.966a.818.818 0 00-.573.234.79.79 0 00-.238.563V55.79a.79.79 0 00.238.564c.152.15.358.234.573.234h51.892a.818.818 0 00.573-.234.79.79 0 00.238-.564V4.763a.79.79 0 00-.238-.563.818.818 0 00-.573-.234H5.022z" fill="#000"/><path d="M58.536 17.514H3.4a.818.818 0 01-.574-.234.79.79 0 010-1.127.818.818 0 01.574-.234h55.135c.215 0 .421.084.573.234a.79.79 0 010 1.127.818.818 0 01-.573.234zm-47.728-4.42a3.134 3.134 0 01-1.72-.513 3.057 3.057 0 01-1.141-1.367 2.998 2.998 0 01-.177-1.76 3.03 3.03 0 01.848-1.559 3.114 3.114 0 011.586-.834 3.146 3.146 0 011.79.174c.566.23 1.05.62 1.39 1.122.34.5.521 1.09.521 1.692 0 .807-.327 1.581-.908 2.152a3.128 3.128 0 01-2.189.893zm0-4.496c-.292 0-.577.085-.82.244-.242.16-.431.386-.543.651a1.429 1.429 0 00.32 1.582 1.499 1.499 0 001.608.315c.27-.11.5-.297.662-.535a1.434 1.434 0 00-.184-1.832 1.49 1.49 0 00-1.043-.425zm8.227 4.496a3.135 3.135 0 01-1.721-.513 3.057 3.057 0 01-1.14-1.367 2.998 2.998 0 01-.177-1.76 3.03 3.03 0 01.848-1.559 3.113 3.113 0 011.585-.834 3.146 3.146 0 011.79.174c.566.23 1.05.62 1.39 1.122.34.5.522 1.09.522 1.692 0 .807-.327 1.581-.908 2.152a3.128 3.128 0 01-2.19.893zm0-4.496c-.292 0-.577.085-.82.244-.243.16-.432.386-.543.651a1.428 1.428 0 00.32 1.582 1.498 1.498 0 001.608.315c.27-.11.5-.297.662-.535a1.434 1.434 0 00-.184-1.832 1.49 1.49 0 00-1.043-.425zm8.229 4.496a3.136 3.136 0 01-1.72-.513 3.058 3.058 0 01-1.142-1.366 3 3 0 01-.177-1.76 3.04 3.04 0 01.848-1.56 3.114 3.114 0 011.586-.833 3.146 3.146 0 011.79.173c.565.23 1.05.62 1.39 1.121.34.501.522 1.09.522 1.693a3.024 3.024 0 01-.909 2.152c-.58.57-1.367.892-2.188.893zm0-4.496a1.49 1.49 0 00-.82.244 1.458 1.458 0 00-.544.65 1.428 1.428 0 00.32 1.582 1.498 1.498 0 001.608.315c.27-.11.5-.295.662-.534a1.434 1.434 0 00-.183-1.832 1.49 1.49 0 00-1.043-.425zm26.153 2.248h-19.46a.818.818 0 01-.573-.234.79.79 0 010-1.127.818.818 0 01.573-.234h19.46c.215 0 .421.084.573.234a.79.79 0 010 1.127.818.818 0 01-.573.234zM32.759 52.95h-3.58a1.281 1.281 0 01-.793-.278 1.244 1.244 0 01-.441-.705l-.36-1.657a13.94 13.94 0 01-3.758-1.53l-1.448.921a1.282 1.282 0 01-1.579-.165l-2.529-2.486a1.232 1.232 0 01-.168-1.552l.938-1.425a13.418 13.418 0 01-1.556-3.695l-1.686-.353a1.273 1.273 0 01-.716-.435 1.235 1.235 0 01-.282-.78v-3.517c0-.284.1-.559.282-.78.182-.22.434-.373.717-.434l1.685-.353c.33-1.301.854-2.547 1.556-3.696l-.937-1.426a1.231 1.231 0 01.166-1.552l2.53-2.488a1.283 1.283 0 011.579-.164l1.448.922a13.908 13.908 0 013.758-1.531l.36-1.658c.062-.277.217-.526.442-.704a1.28 1.28 0 01.793-.278h3.579c.29.001.57.1.794.28.225.18.38.429.44.707l.36 1.657c1.323.324 2.59.84 3.759 1.53l1.447-.921a1.283 1.283 0 011.58.165l2.528 2.486a1.233 1.233 0 01.168 1.553l-.938 1.423a13.421 13.421 0 011.557 3.697l1.685.353c.282.06.535.213.716.434.182.22.281.495.283.779v3.519a1.24 1.24 0 01-.283.78 1.27 1.27 0 01-.716.434l-1.685.353a13.42 13.42 0 01-1.557 3.696l.937 1.423a1.23 1.23 0 01-.162 1.551l-2.53 2.489a1.285 1.285 0 01-1.579.164l-1.447-.922a13.936 13.936 0 01-3.758 1.531l-.361 1.657a1.242 1.242 0 01-.443.705 1.28 1.28 0 01-.795.276zm-3.289-1.595h3l.405-1.874a.793.793 0 01.221-.399.816.816 0 01.406-.215 12.29 12.29 0 004.173-1.701.827.827 0 01.884 0l1.637 1.044 2.12-2.084-1.06-1.61a.788.788 0 010-.867 11.9 11.9 0 001.73-4.106.794.794 0 01.218-.4.816.816 0 01.406-.217l1.906-.399v-2.95l-1.906-.398a.816.816 0 01-.406-.218.794.794 0 01-.219-.4 11.897 11.897 0 00-1.728-4.105.788.788 0 010-.867l1.059-1.61-2.12-2.086-1.636 1.042a.82.82 0 01-.884 0 12.288 12.288 0 00-4.173-1.7.816.816 0 01-.406-.215.794.794 0 01-.22-.398l-.406-1.876h-3l-.406 1.876a.793.793 0 01-.22.398.816.816 0 01-.406.216 12.288 12.288 0 00-4.174 1.7.82.82 0 01-.883 0l-1.64-1.043-2.12 2.084 1.06 1.61a.788.788 0 010 .867 11.899 11.899 0 00-1.73 4.105.794.794 0 01-.218.4.816.816 0 01-.405.217l-1.907.399v2.95l1.907.398a.816.816 0 01.405.218.8.8 0 01.219.4 11.901 11.901 0 001.729 4.106.788.788 0 010 .867l-1.06 1.61 2.12 2.086 1.636-1.043a.826.826 0 01.884 0 12.29 12.29 0 004.173 1.7.815.815 0 01.406.216.793.793 0 01.221.398l.408 1.874z" fill="#000"/><path d="M30.97 45.89a9.098 9.098 0 01-4.994-1.49 8.873 8.873 0 01-3.31-3.966 8.703 8.703 0 01-.513-5.107 8.794 8.794 0 012.46-4.526 9.037 9.037 0 014.601-2.42 9.132 9.132 0 015.194.502 8.96 8.96 0 014.035 3.254 8.736 8.736 0 011.516 4.91 8.776 8.776 0 01-2.635 6.25 9.077 9.077 0 01-6.354 2.593zm0-16.084a7.457 7.457 0 00-4.094 1.22 7.273 7.273 0 00-2.713 3.253 7.133 7.133 0 00-.42 4.186 7.209 7.209 0 002.018 3.71 7.407 7.407 0 003.774 1.982c1.429.28 2.91.135 4.257-.414a7.341 7.341 0 003.306-2.67 7.16 7.16 0 001.24-4.026 7.195 7.195 0 00-2.163-5.117 7.442 7.442 0 00-5.205-2.124z" fill="#000"/></svg>