<svg width="53" height="53" fill="none" xmlns="http://www.w3.org/2000/svg"><g clip-path="url(#clip0)" fill="#000"><path d="M40.337 5.39h-1.924V3.317A2.39 2.39 0 0036.027.931h-25.3a.762.762 0 100 1.523h25.3c.476 0 .863.387.863.863V5.39H6.9a2.39 2.39 0 00-2.387 2.386v39.172H2.59a.864.864 0 01-.863-.863V3.317c0-.476.387-.863.863-.863h8.574a.762.762 0 100-1.523H2.59A2.39 2.39 0 00.203 3.317v42.768a2.39 2.39 0 002.387 2.387h1.923v2.072A2.39 2.39 0 006.9 52.93h33.437a2.39 2.39 0 002.387-2.387V7.776a2.39 2.39 0 00-2.387-2.386zm.863 45.154a.864.864 0 01-.863.863H6.9a.864.864 0 01-.863-.863V7.776c0-.476.387-.863.863-.863h33.437c.476 0 .863.387.863.863v42.768z"/><path d="M13.502 11.619a3.04 3.04 0 00-3.037 3.037 3.04 3.04 0 003.037 3.036 3.04 3.04 0 003.036-3.037 3.04 3.04 0 00-3.036-3.036zm0 4.55a1.515 1.515 0 01-1.514-1.513c0-.835.68-1.514 1.514-1.514s1.513.68 1.513 1.514-.679 1.513-1.513 1.513zm22.508-3.865H19.018a.762.762 0 100 1.524H36.01a.762.762 0 100-1.524zm-16.992 4.702H32.33a.762.762 0 100-1.523H19.018a.762.762 0 100 1.523zm-5.516 4.401a3.04 3.04 0 00-3.037 3.037 3.04 3.04 0 003.037 3.037 3.04 3.04 0 003.036-3.037 3.04 3.04 0 00-3.036-3.037zm0 4.55a1.515 1.515 0 01-1.514-1.513c0-.834.68-1.513 1.514-1.513s1.513.679 1.513 1.513c0 .834-.679 1.513-1.513 1.513zm22.508-3.864H19.018a.762.762 0 100 1.523H36.01a.762.762 0 100-1.523zm-16.992 4.702H32.33a.762.762 0 100-1.524H19.018a.762.762 0 100 1.524zm-5.516 4.401a3.04 3.04 0 00-3.037 3.036 3.04 3.04 0 003.037 3.037 3.04 3.04 0 003.036-3.037 3.04 3.04 0 00-3.036-3.036zm0 4.55a1.515 1.515 0 01-1.514-1.514c0-.834.68-1.513 1.514-1.513s1.513.679 1.513 1.513c0 .835-.679 1.514-1.513 1.514zm22.508-3.865H19.018a.762.762 0 100 1.524H36.01a.762.762 0 100-1.524zm-16.992 4.702H32.33a.762.762 0 100-1.523H19.018a.762.762 0 100 1.523zm-5.516 4.401a3.04 3.04 0 00-3.037 3.037 3.04 3.04 0 003.037 3.036 3.04 3.04 0 003.036-3.036 3.04 3.04 0 00-3.036-3.037zm0 4.55a1.515 1.515 0 01-1.514-1.513c0-.835.68-1.514 1.514-1.514s1.513.68 1.513 1.514-.679 1.513-1.513 1.513zM36.01 41.67H19.018a.762.762 0 100 1.523H36.01a.762.762 0 100-1.523zm-3.68 3.178H19.018a.762.762 0 100 1.524H32.33a.762.762 0 100-1.524zm17.302-30.645h-2.935c-1.186 0-2.197 1.116-2.197 2.598v9.873c0 9.42.34 9.761.762 8.761.42 0 .761.66.761.239v-15.32h4.282v18.48h-4.282v-8.606a.762.762 0 10-1.523 0v9.368c0 .093.02.204.063.302l2.449 5.645c.47 1.083 1.836 1.082 2.305 0l2.449-5.644v-.002a.788.788 0 00.063-.301V16.8c0-1.433-.985-2.598-2.197-2.598zm-3.608 4.628V16.8c0-.608.342-1.075.673-1.075h2.935c.319 0 .674.441.674 1.075v2.03h-4.282zm2.14 25.541l-1.741-4.015h3.483l-1.742 4.015z"/></g><defs><clipPath id="clip0"><path fill="#fff" transform="translate(.016 .93)" d="M0 0h52v52H0z"/></clipPath></defs></svg>