<svg width="53" height="53" fill="none" xmlns="http://www.w3.org/2000/svg"><g clip-path="url(#clip0)" fill="#000"><path d="M6.273 4.008H4.22a.762.762 0 000 1.524h2.052a.762.762 0 000-1.524z"/><path d="M51.414 31.33H44.69a.762.762 0 00-.762.761v1.884l-3.953-4.021a5.114 5.114 0 01-1.54-3.647v-4.291c0-2.011-1.608-3.691-3.584-3.745a3.654 3.654 0 00-2.672 1.042 3.657 3.657 0 00-1.116 2.642v6.06H28.58V3.724A2.796 2.796 0 0025.786.93H2.969A2.796 2.796 0 00.176 3.724v13.242a.762.762 0 001.523 0V8.61h25.356v19.406h-1.76v-16.68a.762.762 0 00-.76-.761h-5.72a.762.762 0 000 1.523h3.663l-8.1 6.955-8.1-6.955h13.98a.762.762 0 000-1.524H4.22a.762.762 0 00-.762.762v17.441c0 .421.34.762.762.762h11.97a3.605 3.605 0 00-.722 2.06 3.655 3.655 0 00.8 2.399c-1.541.425-2.704 1.81-2.75 3.448a3.658 3.658 0 001.043 2.673 3.659 3.659 0 001.697.995 3.656 3.656 0 00-.79 2.386c.045 1.638 1.208 3.023 2.75 3.448a3.656 3.656 0 00-.8 2.4c.02.766.286 1.476.72 2.06H2.97c-.7 0-1.27-.57-1.27-1.27V16.52a.762.762 0 10-1.523 0v33.618a2.796 2.796 0 002.793 2.793h29.476a.762.762 0 100-1.524H21.163c-1.193 0-2.19-.942-2.222-2.1a2.147 2.147 0 01.612-1.57c.41-.422.96-.654 1.55-.654a.762.762 0 000-1.524h-1.889c-1.194 0-2.19-.942-2.222-2.1a2.148 2.148 0 01.611-1.57 2.146 2.146 0 011.55-.654h2.34a.762.762 0 100-1.524h-4.289c-.589 0-1.14-.232-1.55-.654a2.147 2.147 0 01-.611-1.57c.031-1.157 1.028-2.1 2.222-2.1h4.227a.762.762 0 000-1.523h-2.339a2.148 2.148 0 01-1.55-.655 2.147 2.147 0 01-.611-1.569c.032-1.158 1.028-2.1 2.222-2.1h12.61c.42 0 .761-.342.761-.763v-6.822c0-.589.233-1.14.655-1.55.422-.41.979-.626 1.569-.612 1.158.032 2.1 1.029 2.1 2.223v4.29c0 1.775.73 3.502 2.003 4.74l5.015 4.876v11.891l-4.756 2.537a9.015 9.015 0 01-4.228 1.057h-3.937a.762.762 0 100 1.524h3.937a10.54 10.54 0 004.944-1.237l4.04-2.154v2.629c0 .42.341.762.762.762h6.725c.42 0 .762-.341.762-.762V32.09a.762.762 0 00-.762-.762zM4.982 12.993l8.226 7.063-8.226 7.062V12.994zm1.295 15.022l8.1-6.955 8.1 6.955h-16.2zm17.495-.897l-8.225-7.062 8.226-7.063V27.12zm3.283-20.033H1.7V3.724c0-.7.57-1.27 1.27-1.27h22.817c.7 0 1.27.57 1.27 1.27v3.362zm23.597 44.321h-5.201V32.853h5.201v18.554z"/></g><defs><clipPath id="clip0"><path fill="#fff" transform="translate(.176 .93)" d="M0 0h52v52H0z"/></clipPath></defs></svg>