<svg width="56" height="55" fill="none" xmlns="http://www.w3.org/2000/svg"><path d="M40.86 51.607H14.17a.744.744 0 01-.393-.113 26.014 26.014 0 1127.477 0 .744.744 0 01-.394.113zm-26.475-1.486h26.261a24.527 24.527 0 10-26.261 0z" fill="#000"/><path d="M48.778 43.755a.743.743 0 01-.625-1.145 24.62 24.62 0 002.716-5.733.742.742 0 111.412.458 26.08 26.08 0 01-2.878 6.079.743.743 0 01-.625.341zm-3.979-6.362a.743.743 0 01-.685-1.035 17.695 17.695 0 001.43-6.951 18.03 18.03 0 00-36.058 0c.003 2.39.49 4.754 1.43 6.951a.743.743 0 11-1.369.582A19.176 19.176 0 018 29.407a19.516 19.516 0 0139.03 0 19.176 19.176 0 01-1.547 7.532.743.743 0 01-.684.454z" fill="#000"/><path d="M27.7 41.508a4.967 4.967 0 110-9.934 4.967 4.967 0 010 9.934zm0-8.448a3.481 3.481 0 10-.002 6.962 3.481 3.481 0 00.002-6.962z" fill="#000"/><path d="M23.932 35.378a.743.743 0 01-.736-.64l-2.17-15.517a.743.743 0 011.381-.472l7.78 13.621a.744.744 0 01-.973 1.037 3.48 3.48 0 00-4.62 1.566.743.743 0 01-.662.405zm-.899-12.536l1.394 9.965a4.996 4.996 0 013.6-1.22l-4.994-8.745zm4.482-16.18a.743.743 0 01-.744-.744V4.135a.743.743 0 111.487 0v1.783a.743.743 0 01-.743.744zM15.796 9.901a.743.743 0 01-.644-.371l-.892-1.544a.741.741 0 01.546-1.113.744.744 0 01.742.37l.891 1.544a.744.744 0 01-.643 1.114zm-8.529 8.665a.737.737 0 01-.372-.1l-1.543-.891a.743.743 0 11.743-1.287l1.543.892a.743.743 0 01-.371 1.387zM4.213 30.335H2.429a.744.744 0 010-1.487h1.784a.743.743 0 110 1.487zm1.697 12.61a.743.743 0 01-.372-1.387l1.543-.892a.742.742 0 011.128.54.743.743 0 01-.385.747l-1.543.892a.732.732 0 01-.372.1zM39.233 9.901a.743.743 0 01-.643-1.114l.892-1.544a.744.744 0 111.287.743l-.892 1.544a.743.743 0 01-.644.371zm8.532 8.665a.743.743 0 01-.372-1.387l1.543-.892a.745.745 0 011.129.54.744.744 0 01-.386.747l-1.543.892a.736.736 0 01-.371.1zm4.836 11.769h-1.783a.744.744 0 010-1.487H52.6a.743.743 0 110 1.487zm-3.479 12.61a.732.732 0 01-.372-.1l-1.543-.892a.743.743 0 11.744-1.287l1.543.892a.743.743 0 01-.372 1.387z" fill="#000"/></svg>