<?xml version="1.0" encoding="utf-8"?><svg viewBox="0 0 104 104" xmlns="http://www.w3.org/2000/svg" xmlns:xlink="http://www.w3.org/1999/xlink"><style>:root>svg{display:none}:root>svg:target{display:block}</style><svg fill="none" viewBox="0 0 10 6" id="icon-arrow" xmlns="http://www.w3.org/2000/svg"><path d="M1.5 1L5 4.5 8.5 1" stroke="#01B259" stroke-width="2"/></svg><svg fill="none" viewBox="0 0 40 31" id="icon-batchArrow" xmlns="http://www.w3.org/2000/svg"><path d="M0 15.5h38m0 0L23.5 1M38 15.5L23.5 30" stroke="#01B259" stroke-width="2"/></svg><svg fill="none" viewBox="0 0 24 24" id="icon-calendar" xmlns="http://www.w3.org/2000/svg"><g clip-path="url(#cclip0)"><path d="M.703 19.734H4.22v2.11c0 .388.315.703.703.703h18.375a.703.703 0 00.703-.703V3.562a.703.703 0 00-.703-.703H19.78v-.703a.703.703 0 00-1.406 0v.703h-3.563v-.703a.703.703 0 00-1.406 0v.703H9.891v-.703a.703.703 0 00-1.407 0v.703H4.922a.703.703 0 00-.703.704V7.78c0 5.182-2.154 9.169-3.966 10.71a.703.703 0 00.45 1.243zm21.89 1.407H5.626v-1.407h13.453a.703.703 0 00.45-.163c.846-.704 2.155-2.38 3.066-4.527v6.097zM5.626 4.266h2.86v.703a.703.703 0 001.406 0v-.703h3.515v.703a.703.703 0 001.406 0v-.703h3.563v.703a.703.703 0 001.406 0v-.703h2.813v2.812H5.625V4.266zm-.012 4.218h16.968c-.158 4.46-1.87 7.97-3.779 9.844h-16.5c2.163-2.755 3.195-6.343 3.311-9.844z" fill="#01B259"/></g><defs><clipPath id="cclip0"><path fill="#fff" d="M0 0h24v24H0z"/></clipPath></defs></svg><svg fill="none" viewBox="0 0 16 16" id="icon-clock" xmlns="http://www.w3.org/2000/svg"><path d="M8 0C3.589 0 0 3.589 0 8s3.589 8 8 8 8-3.589 8-8-3.589-8-8-8zm3.805 12.138a.665.665 0 01-.943 0L7.53 8.805a.664.664 0 01-.196-.472V4a.666.666 0 111.334 0v4.057l3.138 3.138c.26.261.26.682 0 .943z" fill="#01B259"/></svg><svg fill="none" viewBox="0 0 38 21" id="icon-faq_arrow" xmlns="http://www.w3.org/2000/svg"><path d="M2 2l17 16L36 2" stroke="#01B259" stroke-width="3"/></svg><svg fill="none" viewBox="0 0 15 15" id="icon-mail" xmlns="http://www.w3.org/2000/svg"><path d="M14.464 2.143H.535L7.5 7.88l7.044-5.72a.484.484 0 00-.08-.017z" fill="#01B259"/><path d="M7.838 8.987a.536.536 0 01-.679 0L0 3.09v9.232c0 .296.24.536.536.536h13.928c.296 0 .536-.24.536-.536V3.168l-7.162 5.82z" fill="#01B259"/></svg><svg fill="none" viewBox="0 0 14 17" id="icon-map" xmlns="http://www.w3.org/2000/svg"><path d="M7.149 0A6.42 6.42 0 00.736 6.412c0 5.09 5.725 10.205 5.969 10.42a.672.672 0 00.902-.013c.242-.227 5.955-5.622 5.955-10.406A6.42 6.42 0 007.149 0zm0 9.47a3.057 3.057 0 110-6.115 3.057 3.057 0 010 6.115z" fill="#01B259"/></svg><svg fill="none" viewBox="0 0 27 27" id="icon-money" xmlns="http://www.w3.org/2000/svg"><path d="M18.033 17.316c-.64 0-1.16-.45-1.16-1.005 0-.553.52-1.004 1.16-1.004.64 0 1.16.45 1.16 1.004a.527.527 0 001.055 0c0-.966-.72-1.778-1.688-1.999v-.274a.527.527 0 00-1.054 0v.274c-.968.22-1.688 1.033-1.688 2 0 1.135.994 2.058 2.215 2.058.64 0 1.16.45 1.16 1.005 0 .553-.52 1.004-1.16 1.004-.64 0-1.16-.45-1.16-1.005a.527.527 0 00-1.055 0c0 .967.72 1.78 1.688 2v.228a.527.527 0 001.055 0v-.228c.967-.22 1.687-1.033 1.687-2 0-1.135-.994-2.058-2.215-2.058zM23.809 14.18a6.871 6.871 0 00-2.807-2.485.527.527 0 10-.457.95c2 .962 3.291 3.015 3.291 5.232 0 .949-.234 1.89-.676 2.72a.527.527 0 10.931.496 6.869 6.869 0 00-.282-6.914zM18.862 11.021h-.036a.527.527 0 000 1.055h.033a.527.527 0 00.003-1.055zM15.525 23.108a5.836 5.836 0 01-3.29-5.231c0-.949.233-1.89.676-2.72a.527.527 0 10-.932-.496 6.87 6.87 0 00.283 6.914 6.872 6.872 0 002.806 2.484.524.524 0 00.704-.247.527.527 0 00-.247-.704zM17.244 23.678h-.03a.527.527 0 10-.005 1.054h.035a.527.527 0 000-1.054z" fill="#01B259"/><path d="M20.43 9.237a2.416 2.416 0 00-.235-.43h1.373a2.429 2.429 0 002.426-2.426 2.429 2.429 0 00-2.426-2.426h-4.223c.269-.39.427-.863.427-1.371A2.429 2.429 0 0015.345.158H2.426A2.429 2.429 0 000 2.584 2.429 2.429 0 002.426 5.01h4.223a2.411 2.411 0 000 2.742H5.273a2.429 2.429 0 00-2.425 2.426c0 .768.359 1.453.918 1.898a2.422 2.422 0 000 3.797 2.422 2.422 0 000 3.797 2.422 2.422 0 00-.918 1.898 2.429 2.429 0 002.425 2.426h6.215a8.941 8.941 0 006.547 2.848c4.943 0 8.965-4.022 8.965-8.965 0-4.114-2.786-7.59-6.57-8.64zm1.138-4.227c.756 0 1.371.615 1.371 1.37 0 .757-.615 1.372-1.37 1.372H8.647a1.373 1.373 0 01-1.37-1.371c0-.756.614-1.371 1.37-1.371h12.92zM2.426 3.955a1.373 1.373 0 01-1.371-1.371c0-.756.615-1.371 1.37-1.371h12.92c.757 0 1.372.615 1.372 1.371s-.615 1.371-1.371 1.371H2.426zm2.847 4.852h12.92c.213 0 .416.049.599.137a8.937 8.937 0 00-7.1 2.604H5.272a1.373 1.373 0 01-1.37-1.37c0-.756.614-1.371 1.37-1.371zm0 3.796h5.517a8.94 8.94 0 00-1.355 2.743H5.273a1.373 1.373 0 01-1.37-1.371c0-.756.614-1.371 1.37-1.371zm0 3.797h3.92a8.984 8.984 0 00-.033 2.742H5.273a1.373 1.373 0 01-1.37-1.37c0-.757.614-1.372 1.37-1.372zm0 6.54a1.373 1.373 0 01-1.37-1.372c0-.756.614-1.37 1.37-1.37h4.102a8.93 8.93 0 001.266 2.741H5.273zm12.762 2.847c-4.361 0-7.91-3.548-7.91-7.91s3.549-7.91 7.91-7.91c4.362 0 7.91 3.548 7.91 7.91s-3.548 7.91-7.91 7.91z" fill="#01B259"/></svg><svg fill="none" viewBox="0 0 90 90" id="icon-paket_01" xmlns="http://www.w3.org/2000/svg"><path d="M14.266 71.871a1.758 1.758 0 100-3.516 1.758 1.758 0 000 3.516zM81.07 16.339H70.727a9.623 9.623 0 00-6.151 2.215v-5.285C64.576 6.366 58.96.75 52.057.75H40.33c-.97 0-1.758.788-1.758 1.758v4.828c0 6.903 5.616 12.518 12.519 12.518h9.97v17.819c-.464-.03-.93-.046-1.4-.046a21.7 21.7 0 00-12.771 4.119 1.758 1.758 0 002.056 2.851 18.207 18.207 0 0110.716-3.454c.937 0 1.863.074 2.773.214.075.017.153.029.231.035a18.371 18.371 0 0113.05 9.217 1.757 1.757 0 103.074-1.704A21.888 21.888 0 0064.576 38.19v-5.684h8.585c5.33 0 9.667-4.336 9.667-9.667v-4.742c0-.971-.787-1.758-1.758-1.758zm-20.01 0h-9.97c-4.963 0-9.002-4.039-9.002-9.003v-3.07h9.97c4.964 0 9.002 4.039 9.002 9.003v3.07zm18.252 6.5a6.158 6.158 0 01-6.151 6.152h-8.585v-2.985a6.158 6.158 0 016.151-6.151h8.585v2.984z" fill="#01B259"/><path d="M89.413 57.799c-1.534-3.475-5.61-5.053-9.084-3.52l-.026.012-11.485 5.297a1.758 1.758 0 001.472 3.192l11.471-5.29a3.377 3.377 0 014.436 1.729 3.377 3.377 0 01-1.723 4.448L60.97 74.044a13.624 13.624 0 01-11.598-.263l-8.603-4.274a17.131 17.131 0 00-14.582-.33l-.169.074-6.43-14.562 8.927-3.942a17.763 17.763 0 0113.361-.426l17.301 6.353a3.136 3.136 0 011.876 3.936 3.124 3.124 0 01-3.95 1.945L43.727 58.03a1.758 1.758 0 10-1.127 3.33l13.38 4.525c.7.237 1.413.35 2.115.35 2.76 0 5.346-1.737 6.286-4.486 1.158-3.385-.632-7.142-3.99-8.375l-17.3-6.353a21.262 21.262 0 00-15.994.51l-8.984 3.967a4.42 4.42 0 00-2.116-1.719 4.423 4.423 0 00-3.403.077l-11.54 5.057c-.64.28-1.053.912-1.053 1.61v30.969a1.758 1.758 0 002.55 1.569l22.405-11.319a4.423 4.423 0 002.307-2.444 4.42 4.42 0 00.136-2.813l.21-.092a13.625 13.625 0 0111.598.263l8.603 4.274a17.13 17.13 0 0014.582.33l23.503-10.377a6.897 6.897 0 003.52-9.084zM23.984 74.028a.931.931 0 01-.495.519 1.733 1.733 0 00-.083.04L3.516 84.633V76.94l5.199-2.553a1.758 1.758 0 10-1.55-3.156l-3.65 1.792v-15.35l10.493-4.598a.932.932 0 01.717-.017c.234.09.418.267.52.496l8.268 18.726.002.005.453 1.026c.101.23.107.484.016.718z" fill="#01B259"/></svg><svg fill="none" viewBox="0 0 104 104" id="icon-paket_02" xmlns="http://www.w3.org/2000/svg"><g clip-path="url(#jclip0)" fill="#fff"><path d="M103.405 39.419l-19.25-19.25a2.033 2.033 0 00-2.874 2.873l17.813 17.813L88.68 51.27a.819.819 0 01-1.156 0L66.956 30.704a.819.819 0 010-1.157l6.99-6.99a2.032 2.032 0 00-2.874-2.874l-6.99 6.99a4.888 4.888 0 00-1.036 5.365l-2.364 2.364H44.154l-2.982-2.982c.115-.419.175-.854.175-1.299a4.85 4.85 0 00-1.43-3.452l-6.8-6.8a2.032 2.032 0 00-2.875 2.873l6.802 6.8a.815.815 0 010 1.158l-.567.566-20.006 20.002-.019.02a.817.817 0 01-1.132-.022L4.905 40.851 22.958 22.8a2.032 2.032 0 00-2.873-2.874L.595 39.415a2.032 2.032 0 000 2.873L12.447 54.14a4.867 4.867 0 005.144 1.121l6.67 6.672a6.899 6.899 0 00-.812 3.255 6.953 6.953 0 006.945 6.945h.026a6.952 6.952 0 006.92 6.945l-.001.009a6.953 6.953 0 006.945 6.945 6.901 6.901 0 003.261-.816L50.03 87.7a6.124 6.124 0 004.359 1.805 6.123 6.123 0 004.359-1.805 6.12 6.12 0 001.8-4.097 6.255 6.255 0 004.126-1.829 6.23 6.23 0 001.838-4.526v-.01a6.766 6.766 0 004.597-2.195 6.8 6.8 0 001.801-4.634 6.591 6.591 0 004.499-1.941 6.592 6.592 0 001.945-4.717 6.61 6.61 0 00-.71-2.967l6.665-6.094c.836.585 1.813.881 2.793.881 1.25 0 2.5-.476 3.452-1.427l11.852-11.852a2.032 2.032 0 000-2.873zm-73.01 28.65a2.885 2.885 0 01-2.882-2.881 2.885 2.885 0 012.882-2.881 2.884 2.884 0 012.88 2.881 2.885 2.885 0 01-2.88 2.881zm9.116 5.98a7.142 7.142 0 00-.242.241 2.866 2.866 0 01-1.904.725 2.884 2.884 0 01-2.881-2.881 2.884 2.884 0 012.881-2.882 2.885 2.885 0 012.881 2.882c0 .736-.28 1.406-.735 1.915zm6.838 7.044c-.01.009-.02.016-.028.025l-.029.032a2.87 2.87 0 01-2.008.819 2.885 2.885 0 01-2.881-2.882c0-.736.28-1.406.735-1.916.083-.078.163-.158.242-.24a2.866 2.866 0 011.904-.725 2.885 2.885 0 012.881 2.882 2.87 2.87 0 01-.816 2.005zm28.186-15.498a2.558 2.558 0 01-1.82.754 2.559 2.559 0 01-1.822-.754l-4.22-4.222a2.032 2.032 0 00-2.875 2.874l4.221 4.221.014.013a2.75 2.75 0 01.081 3.814 2.736 2.736 0 01-1.934.89 2.733 2.733 0 01-1.992-.753l-4.064-3.847a2.032 2.032 0 00-2.794 2.951l4.425 4.19c.438.415.684.975.692 1.578a2.198 2.198 0 01-.648 1.597 2.218 2.218 0 01-3.133 0l-2.052-2.051a2.032 2.032 0 00-2.874 2.873l2.133 2.133c.397.397.616.924.616 1.485s-.22 1.089-.616 1.486a2.087 2.087 0 01-1.485.615 2.087 2.087 0 01-1.486-.615l-2.485-2.486a6.899 6.899 0 00.812-3.254 6.953 6.953 0 00-6.92-6.944v-.009a6.953 6.953 0 00-6.945-6.945h-.025a6.953 6.953 0 00-6.945-6.945 6.9 6.9 0 00-3.26.814l-6.35-6.35 17.964-17.965 3.128 3.128c.38.381.898.596 1.436.596h2.63l-8.02 8.02a6.45 6.45 0 00-1.902 4.591 6.45 6.45 0 001.902 4.591 6.45 6.45 0 004.591 1.902 6.45 6.45 0 004.591-1.901l6.803-6.804 7.448.082 13.167 12.993c.492.486.764 1.134.766 1.825.003.69-.264 1.34-.753 1.829zm1.468-7.903L63.625 45.478l-.018-.018a2.027 2.027 0 00-1.666-.57l-8.844-.097a2.038 2.038 0 00-1.46.595l-7.407 7.407a2.413 2.413 0 01-1.717.712 2.413 2.413 0 01-1.717-.712 2.412 2.412 0 01-.712-1.717c0-.649.253-1.259.712-1.718L51.69 38.466h9.834c.54 0 1.056-.214 1.437-.595l2.707-2.707 16.705 16.704-6.37 5.824z"/><path d="M89.038 43.819a2.028 2.028 0 100-4.056 2.028 2.028 0 000 4.056zM14.756 44.022a2.028 2.028 0 100-4.056 2.028 2.028 0 000 4.056zM26.622 18.712a2.028 2.028 0 100-4.055 2.028 2.028 0 000 4.055zM77.342 18.55a2.028 2.028 0 100-4.056 2.028 2.028 0 000 4.056z"/></g><defs><clipPath id="jclip0"><path fill="#fff" d="M0 0h104v104H0z"/></clipPath></defs></svg><svg fill="none" viewBox="0 0 94 94" id="icon-paket_03" xmlns="http://www.w3.org/2000/svg"><g clip-path="url(#kclip0)" fill="#01B259"><path d="M92.16 21.902a1.84 1.84 0 100-3.68 1.84 1.84 0 000 3.68zM56.097 75.398h-7.123a1.84 1.84 0 000 3.68h7.123c1.096 0 1.989.893 1.989 1.99a1.991 1.991 0 01-1.99 1.988H36.924c-2.88 0-5.59-1.27-7.432-3.485l-4.585-5.511a13.306 13.306 0 00-9.871-4.8V58.424h6.754a12.73 12.73 0 018.884 3.588l9.896 9.553c.697.673.73 1.8.072 2.514a1.802 1.802 0 01-2.537.106l-7.77-7.122a1.84 1.84 0 00-2.486 2.712l7.77 7.123a5.458 5.458 0 003.699 1.435 5.467 5.467 0 004.028-1.758c2.004-2.171 1.905-5.607-.22-7.658l-9.896-9.553a16.391 16.391 0 00-11.44-4.62h-7.086a4.56 4.56 0 00-4.222-2.852H1.84A1.84 1.84 0 000 53.733v13.423a1.84 1.84 0 003.68 0V55.574h6.8c.483 0 .875.392.875.874V71.16a.875.875 0 01-.874.874H8.574a1.84 1.84 0 000 3.68h1.907a4.561 4.561 0 004.196-2.784 9.641 9.641 0 017.4 3.484l4.585 5.511a13.312 13.312 0 0010.261 4.811h19.174a5.675 5.675 0 005.669-5.669 5.675 5.675 0 00-5.67-5.67zM67.633 62.651a1.84 1.84 0 00-2.621.163 1.837 1.837 0 001.378 3.055c.507 0 1.012-.208 1.376-.615l-1.364-1.235 1.368 1.23a1.84 1.84 0 00-.137-2.598zM63.787 66.654a1.848 1.848 0 00-2.578-.4 1.84 1.84 0 102.165 2.976l.014-.011a1.832 1.832 0 00.4-2.565zM59.196 69.731a1.842 1.842 0 00-2.422-.926 1.84 1.84 0 101.503 3.36 1.839 1.839 0 00.919-2.434z"/><path d="M54.05 71.782a1.842 1.842 0 00-2.165-1.428 1.84 1.84 0 10.742 3.605 1.84 1.84 0 001.424-2.177zM74.686 43.152l-1.807.347 1.807-.35a1.84 1.84 0 10-3.613.7l.009.045a1.847 1.847 0 002.178 1.43 1.836 1.836 0 001.426-2.172zM73.005 47.186a1.84 1.84 0 00-1.994 1.67l-.004.046a1.845 1.845 0 001.838 1.98c.954 0 1.76-.731 1.831-1.698l-1.832-.165 1.833.161a1.84 1.84 0 00-1.672-1.994zM70.521 57.931a1.848 1.848 0 00-2.512.698 1.84 1.84 0 003.198 1.82l.01-.018c.502-.884.187-1.998-.696-2.5zM72.334 52.686a1.84 1.84 0 00-2.295 1.228 1.84 1.84 0 103.513 1.098l.01-.033a1.839 1.839 0 00-1.228-2.293zM23.802 52.413a1.841 1.841 0 00-3.59.806l.012.055a1.838 1.838 0 002.22 1.353 1.842 1.842 0 001.358-2.214zM24.21 34.88a1.84 1.84 0 00-2.434.92l-.021.05a1.838 1.838 0 001.69 2.562c.712 0 1.39-.416 1.69-1.11a1.84 1.84 0 00-.924-2.422zM22.181 40.032a1.84 1.84 0 00-2.177 1.425l-.009.044a1.843 1.843 0 001.81 2.195c.862 0 1.63-.608 1.801-1.486a1.84 1.84 0 00-1.425-2.178zM27.264 30.265a1.843 1.843 0 00-2.567.42l1.485 1.086-1.488-1.082a1.84 1.84 0 002.976 2.164l.02-.027a1.837 1.837 0 00-.426-2.561zM31.257 26.416a1.84 1.84 0 00-2.599-.137l-.015.014a1.832 1.832 0 00-.128 2.592 1.848 1.848 0 002.605.13 1.84 1.84 0 00.137-2.599zM35.978 23.517a1.84 1.84 0 00-2.541-.687 1.842 1.842 0 00.918 3.436c.31 0 .626-.079.915-.245a1.84 1.84 0 00.708-2.504zM41.196 21.645a1.835 1.835 0 00-2.312-1.187l.538 1.76-.54-1.759a1.84 1.84 0 001.082 3.518c.008-.003.034-.01.042-.014a1.845 1.845 0 001.19-2.318zM46.696 20.985a1.84 1.84 0 00-1.995-1.671l-.018.001a1.832 1.832 0 00-1.662 1.994 1.847 1.847 0 002.004 1.67 1.84 1.84 0 001.671-1.994zM23.16 47.284a1.843 1.843 0 00-1.893-1.791 1.835 1.835 0 00-1.786 1.887l1.84-.024-1.84.027a1.84 1.84 0 001.84 1.813h.027a1.84 1.84 0 001.813-1.867v-.045zM48.894 45.023H45.106a2.8 2.8 0 01-2.797-2.798v-2.202a2.8 2.8 0 012.797-2.798h4.197a2.391 2.391 0 012.388 2.389 1.84 1.84 0 003.68 0 6.075 6.075 0 00-6.068-6.069h-.463v-2.74a1.84 1.84 0 00-3.68 0v2.74h-.054a6.485 6.485 0 00-6.477 6.478v2.203a6.485 6.485 0 006.477 6.477H48.894A2.8 2.8 0 0151.69 51.5v2.203a2.8 2.8 0 01-2.797 2.797h-4.196a2.391 2.391 0 01-2.389-2.388 1.84 1.84 0 00-3.68 0 6.075 6.075 0 006.068 6.069h.463v2.739a1.84 1.84 0 003.68 0v-2.74h.054a6.485 6.485 0 006.477-6.477V51.5a6.485 6.485 0 00-6.477-6.477z"/><path d="M92.16 24.224a1.84 1.84 0 00-1.84 1.84v12.3h-6.8a.875.875 0 01-.875-.874V22.776c0-.482.392-.874.874-.874h1.772a1.84 1.84 0 000-3.68H83.52a4.56 4.56 0 00-4.22 2.847 9.64 9.64 0 01-7.376-3.484l-4.585-5.511a13.311 13.311 0 00-10.261-4.812H37.903a5.675 5.675 0 00-5.669 5.67 5.675 5.675 0 005.67 5.668h7.84a1.84 1.84 0 100-3.68h-7.84a1.991 1.991 0 01-1.99-1.989c0-1.096.893-1.989 1.99-1.989h19.173c2.88 0 5.59 1.27 7.432 3.485l4.585 5.511a13.305 13.305 0 009.871 4.801v10.834h-6.754a12.73 12.73 0 01-8.883-3.588l-9.897-9.552a1.81 1.81 0 01-.072-2.515 1.802 1.802 0 012.537-.105l7.77 7.122a1.84 1.84 0 102.487-2.713l-7.77-7.122a5.489 5.489 0 00-7.728.323c-2.004 2.17-1.905 5.606.22 7.658l9.897 9.552a16.392 16.392 0 0011.439 4.62h7.11a4.56 4.56 0 004.198 2.79h8.64A1.84 1.84 0 0094 40.204v-14.14a1.84 1.84 0 00-1.84-1.84zM1.84 75.715a1.84 1.84 0 100-3.68 1.84 1.84 0 000 3.68z"/></g><defs><clipPath id="kclip0"><path fill="#fff" d="M0 0h94v94H0z"/></clipPath></defs></svg><svg fill="none" viewBox="0 0 88 88" id="icon-paket_04" xmlns="http://www.w3.org/2000/svg"><path d="M54.895 16.562c-.949 0-1.719.77-1.719 1.718v10.63a5.86 5.86 0 01-5.854 5.855 1.719 1.719 0 100 3.438c5.124 0 9.292-4.169 9.292-9.292V18.28c0-.95-.77-1.72-1.719-1.72z" fill="#01B259"/><path d="M74.398 7.599h-8.854V3.434A1.717 1.717 0 0065.48 0H22.226a1.719 1.719 0 100 3.438h.327v4.16H13.6c-3.981 0-7.22 2.96-7.22 6.598v5.214c0 8.383 7.23 15.278 16.387 15.924 1.157 6.83 6.86 12.133 13.876 12.676.56 2.516.836 5.09.815 7.666a33.979 33.979 0 01-.806 7.064h-2.77a3.442 3.442 0 00-3.439 3.438v11.954h-1.493a6.307 6.307 0 00-6.3 6.3v1.85c0 .949.769 1.718 1.718 1.718h39.359c.95 0 1.719-.77 1.719-1.719v-1.848c0-3.474-2.827-6.3-6.3-6.3h-1.494V66.178a3.442 3.442 0 00-3.438-3.438h-2.826a28.997 28.997 0 01.009-14.725c7.045-.521 12.775-5.838 13.932-12.69 9.11-.687 16.289-7.562 16.289-15.915v-5.214c0-3.638-3.24-6.597-7.22-6.597zm-20.183 58.58v11.954H44.048a1.719 1.719 0 100 3.437h15.098a2.866 2.866 0 012.863 2.863v.13H26.088v-.13a2.866 2.866 0 012.863-2.863h5.355a1.719 1.719 0 000-3.437h-.424V66.177l20.333.001zM40.17 48.056h7.677a32.436 32.436 0 000 14.683h-7.677a37.399 37.399 0 000-14.683zm21.937-15.283c0 6.531-5.314 11.845-11.846 11.845H37.836c-6.532 0-11.846-5.314-11.846-11.845a1.719 1.719 0 00-3.19-.887c-7.273-.605-12.982-5.97-12.982-12.477v-5.214c0-1.742 1.697-3.16 3.783-3.16h8.952v8.803a1.719 1.719 0 003.437 0V3.438h36.116v29.336zM78.181 19.41c0 6.404-5.53 11.699-12.637 12.443V11.036h8.854c2.086 0 3.783 1.418 3.783 3.16v5.214z" fill="#01B259"/><path d="M24.174 28.378a1.719 1.719 0 100-3.437 1.719 1.719 0 000 3.437zM54.895 13.57a1.719 1.719 0 100-3.438 1.719 1.719 0 000 3.437z" fill="#01B259"/></svg><svg fill="none" viewBox="0 0 19 19" id="icon-search" xmlns="http://www.w3.org/2000/svg"><path d="M18.768 17.65l-5.403-5.403a7.484 7.484 0 001.676-4.724c0-4.147-3.374-7.521-7.52-7.521C3.374.002 0 3.376 0 7.522c0 4.147 3.374 7.521 7.52 7.521 1.79 0 3.433-.63 4.725-1.676l5.403 5.403a.79.79 0 001.12 0 .79.79 0 000-1.12zM7.52 13.46a5.944 5.944 0 01-5.938-5.937 5.944 5.944 0 015.938-5.938 5.944 5.944 0 015.937 5.938 5.944 5.944 0 01-5.937 5.937z" fill="#01B259"/></svg><svg fill="none" viewBox="0 0 14 14" id="icon-tel" xmlns="http://www.w3.org/2000/svg"><path d="M13.618 10.275L11.664 8.32c-.698-.698-1.884-.419-2.163.488-.21.628-.907.977-1.535.838-1.396-.35-3.28-2.163-3.628-3.629-.21-.628.209-1.326.837-1.535.907-.279 1.186-1.465.488-2.163L3.71.366c-.559-.488-1.396-.488-1.884 0L.5 1.692c-1.326 1.396.14 5.094 3.419 8.373 3.28 3.28 6.978 4.815 8.373 3.42l1.326-1.326c.488-.559.488-1.396 0-1.884z" fill="#01B259"/></svg><svg fill="none" viewBox="0 0 22 22" id="icon-user_01" xmlns="http://www.w3.org/2000/svg"><g clip-path="url(#oclip0)" fill="#01B259"><path d="M11 12.392c-6.61 0-10.25 3.127-10.25 8.805 0 .444.36.803.803.803h18.895c.444 0 .803-.36.803-.803 0-5.678-3.64-8.805-10.25-8.805zm-8.615 8.002c.316-4.245 3.21-6.396 8.616-6.396 5.405 0 8.3 2.15 8.615 6.396H2.386zM11 0C7.963 0 5.674 2.336 5.674 5.433c0 3.188 2.39 5.78 5.326 5.78 2.937 0 5.326-2.592 5.326-5.78C16.326 2.336 14.036 0 11 0zm0 9.608c-2.052 0-3.72-1.873-3.72-4.175 0-2.218 1.564-3.827 3.72-3.827 2.12 0 3.72 1.645 3.72 3.827 0 2.302-1.669 4.175-3.72 4.175z"/></g><defs><clipPath id="oclip0"><path fill="#fff" d="M0 0h22v22H0z"/></clipPath></defs></svg><svg fill="none" viewBox="0 0 29 23" id="icon-user_02" xmlns="http://www.w3.org/2000/svg"><g opacity=".3" clip-path="url(#pclip0)" fill="#01B259"><path d="M18 12.392c-6.61 0-10.25 3.127-10.25 8.805 0 .444.36.803.803.803h18.895c.444 0 .803-.36.803-.803 0-5.678-3.64-8.805-10.25-8.805zm-8.615 8.002c.316-4.245 3.21-6.396 8.616-6.396 5.405 0 8.3 2.15 8.615 6.396H9.386zM18 0c-3.037 0-5.326 2.336-5.326 5.433 0 3.188 2.39 5.78 5.326 5.78 2.937 0 5.326-2.592 5.326-5.78C23.326 2.336 21.036 0 18 0zm0 9.608c-2.052 0-3.72-1.873-3.72-4.175 0-2.218 1.564-3.827 3.72-3.827 2.12 0 3.72 1.645 3.72 3.827 0 2.302-1.669 4.175-3.72 4.175z"/></g><g clip-path="url(#pclip1)" fill="#01B259"><path d="M11 13.392c-6.61 0-10.25 3.127-10.25 8.805 0 .444.36.803.803.803h18.895c.444 0 .803-.36.803-.803 0-5.678-3.64-8.805-10.25-8.805zm-8.615 8.002c.316-4.245 3.21-6.396 8.616-6.396 5.405 0 8.3 2.15 8.615 6.396H2.386zM11 1C7.963 1 5.674 3.336 5.674 6.433c0 3.188 2.39 5.78 5.326 5.78 2.937 0 5.326-2.592 5.326-5.78C16.326 3.336 14.036 1 11 1zm0 9.608c-2.052 0-3.72-1.873-3.72-4.175 0-2.218 1.564-3.827 3.72-3.827 2.12 0 3.72 1.645 3.72 3.827 0 2.302-1.669 4.175-3.72 4.175z"/></g><defs><clipPath id="pclip0"><path fill="#fff" transform="translate(7)" d="M0 0h22v22H0z"/></clipPath><clipPath id="pclip1"><path fill="#fff" transform="translate(0 1)" d="M0 0h22v22H0z"/></clipPath></defs></svg></svg>