<svg width="135" height="36" viewBox="0 0 135 36" fill="none" xmlns="http://www.w3.org/2000/svg">
<g filter="url(#filter0_d_1_39)">
<path d="M35.4463 5.72262H38.2822V19.0917H45.0567V21.6575H35.4463V5.72262Z" fill="#262C39"/>
<path d="M45.7894 10.8542H48.4903V21.6575H45.7894V10.8542ZM45.4068 7.18557C45.4068 6.75043 45.5644 6.37532 45.8795 6.06022C46.2096 5.73012 46.6222 5.56507 47.1174 5.56507C47.6125 5.56507 48.0251 5.72262 48.3552 6.03772C48.7003 6.33781 48.8729 6.72043 48.8729 7.18557C48.8729 7.65071 48.7003 8.04083 48.3552 8.35593C48.0251 8.65602 47.6125 8.80607 47.1174 8.80607C46.6222 8.80607 46.2096 8.64852 45.8795 8.33342C45.5644 8.00332 45.4068 7.6207 45.4068 7.18557Z" fill="#262C39"/>
<path d="M50.4656 10.8542H53.0314V12.5872H53.0764C53.3315 12.0471 53.7216 11.5819 54.2468 11.1918C54.7719 10.7867 55.4847 10.5841 56.3849 10.5841C57.1052 10.5841 57.7129 10.7042 58.208 10.9442C58.7182 11.1843 59.1308 11.4994 59.4459 11.8895C59.761 12.2796 59.9861 12.7298 60.1211 13.2399C60.2561 13.7501 60.3237 14.2828 60.3237 14.8379V21.6575H57.6228V16.1883C57.6228 15.8882 57.6078 15.5581 57.5778 15.198C57.5478 14.8229 57.4653 14.4778 57.3302 14.1627C57.2102 13.8326 57.0151 13.5625 56.7451 13.3525C56.475 13.1274 56.1074 13.0149 55.6422 13.0149C55.1921 13.0149 54.8095 13.0899 54.4944 13.2399C54.1943 13.39 53.9392 13.5925 53.7291 13.8476C53.5341 14.1027 53.3915 14.3953 53.3015 14.7254C53.2115 15.0555 53.1665 15.4006 53.1665 15.7607V21.6575H50.4656V10.8542Z" fill="#262C39"/>
<path d="M73.3826 10.8542V20.6897C73.3826 21.665 73.2626 22.5428 73.0225 23.323C72.7824 24.1183 72.4073 24.786 71.8971 25.3262C71.402 25.8813 70.7718 26.309 70.0066 26.6091C69.2413 26.9091 68.3335 27.0592 67.2832 27.0592C66.2779 27.0592 65.3251 26.9317 64.4248 26.6766C63.5246 26.4215 62.6918 25.9564 61.9266 25.2811L63.5471 23.0755C64.0872 23.5706 64.6499 23.9532 65.2351 24.2233C65.8203 24.4934 66.4955 24.6284 67.2607 24.6284C67.9059 24.6284 68.4461 24.5384 68.8812 24.3584C69.3314 24.1783 69.684 23.9307 69.939 23.6156C70.2091 23.3005 70.3967 22.9179 70.5017 22.4678C70.6218 22.0326 70.6818 21.545 70.6818 21.0048V20.2171H70.6368C70.2466 20.7422 69.729 21.1399 69.0838 21.41C68.4386 21.665 67.7784 21.7926 67.1032 21.7926C66.2929 21.7926 65.5577 21.65 64.8975 21.3649C64.2373 21.0648 63.6671 20.6672 63.187 20.1721C62.7218 19.6769 62.3617 19.0917 62.1066 18.4165C61.8515 17.7413 61.724 17.0211 61.724 16.2559C61.724 15.4606 61.844 14.7179 62.0841 14.0277C62.3242 13.3375 62.6768 12.7373 63.1419 12.2271C63.6071 11.717 64.1623 11.3193 64.8075 11.0343C65.4677 10.7342 66.2179 10.5841 67.0582 10.5841C67.8234 10.5841 68.5361 10.7342 69.1963 11.0343C69.8565 11.3343 70.3817 11.8145 70.7718 12.4747H70.8168V10.8542H73.3826ZM67.6208 13.0149C67.1407 13.0149 66.7055 13.0974 66.3154 13.2624C65.9253 13.4125 65.5877 13.6301 65.3026 13.9151C65.0325 14.1852 64.815 14.5228 64.6499 14.928C64.4999 15.3181 64.4248 15.7532 64.4248 16.2334C64.4248 16.6685 64.4999 17.0736 64.6499 17.4487C64.815 17.8238 65.04 18.1539 65.3251 18.439C65.6102 18.7241 65.9478 18.9492 66.3379 19.1142C66.7281 19.2793 67.1482 19.3618 67.5983 19.3618C68.0935 19.3618 68.5361 19.2793 68.9262 19.1142C69.3314 18.9492 69.669 18.7316 69.939 18.4615C70.2241 18.1765 70.4417 17.8389 70.5917 17.4487C70.7418 17.0586 70.8168 16.6385 70.8168 16.1883C70.8168 15.2431 70.5317 14.4778 69.9615 13.8926C69.3914 13.3075 68.6111 13.0149 67.6208 13.0149Z" fill="#262C39"/>
<path d="M73.8526 10.8542H76.801L79.6819 18.4165H79.7269L82.6303 10.8542H85.3987L81.1449 21.6575H78.264L73.8526 10.8542Z" fill="#262C39"/>
<path d="M92.6134 20.1721H92.5459C92.1557 20.7873 91.6606 21.2374 91.0604 21.5225C90.4602 21.7926 89.8 21.9276 89.0798 21.9276C88.5846 21.9276 88.097 21.8601 87.6168 21.725C87.1517 21.59 86.7316 21.3874 86.3564 21.1174C85.9963 20.8473 85.7037 20.5097 85.4787 20.1045C85.2536 19.6994 85.1411 19.2268 85.1411 18.6866C85.1411 18.1014 85.2461 17.6063 85.4562 17.2012C85.6662 16.781 85.9438 16.4359 86.2889 16.1658C86.649 15.8807 87.0617 15.6557 87.5268 15.4906C87.992 15.3256 88.4721 15.2055 88.9672 15.1305C89.4774 15.0405 89.9876 14.988 90.4977 14.973C91.0079 14.943 91.488 14.928 91.9382 14.928H92.6134V14.6354C92.6134 13.9602 92.3808 13.4575 91.9157 13.1274C91.4505 12.7823 90.8578 12.6097 90.1376 12.6097C89.5674 12.6097 89.0348 12.7148 88.5396 12.9248C88.0445 13.1199 87.6168 13.39 87.2567 13.7351L85.8388 12.3172C86.439 11.702 87.1367 11.2593 87.9319 10.9892C88.7422 10.7192 89.5749 10.5841 90.4302 10.5841C91.1954 10.5841 91.8406 10.6741 92.3658 10.8542C92.891 11.0192 93.3261 11.2368 93.6712 11.5069C94.0163 11.777 94.2789 12.0921 94.4589 12.4522C94.654 12.7973 94.789 13.1499 94.8641 13.51C94.9541 13.8701 95.0066 14.2227 95.0216 14.5678C95.0366 14.8979 95.0441 15.1905 95.0441 15.4456V21.6575H92.6134V20.1721ZM92.4558 16.8185H91.8932C91.518 16.8185 91.0979 16.8335 90.6328 16.8636C90.1676 16.8936 89.725 16.9686 89.3049 17.0886C88.8997 17.1937 88.5546 17.3587 88.2695 17.5838C87.9844 17.7938 87.8419 18.0939 87.8419 18.4841C87.8419 18.7391 87.8944 18.9567 87.9995 19.1367C88.1195 19.3018 88.2695 19.4443 88.4496 19.5644C88.6296 19.6844 88.8322 19.7744 89.0573 19.8345C89.2824 19.8795 89.5074 19.902 89.7325 19.902C90.6628 19.902 91.3455 19.6844 91.7806 19.2493C92.2308 18.7991 92.4558 18.1915 92.4558 17.4262V16.8185Z" fill="#262C39"/>
<path d="M96.8246 10.8542H99.3904V12.5872H99.4354C99.6905 12.0471 100.081 11.5819 100.606 11.1918C101.131 10.7867 101.844 10.5841 102.744 10.5841C103.464 10.5841 104.072 10.7042 104.567 10.9442C105.077 11.1843 105.49 11.4994 105.805 11.8895C106.12 12.2796 106.345 12.7298 106.48 13.2399C106.615 13.7501 106.683 14.2828 106.683 14.8379V21.6575H103.982V16.1883C103.982 15.8882 103.967 15.5581 103.937 15.198C103.907 14.8229 103.824 14.4778 103.689 14.1627C103.569 13.8326 103.374 13.5625 103.104 13.3525C102.834 13.1274 102.466 13.0149 102.001 13.0149C101.551 13.0149 101.168 13.0899 100.853 13.2399C100.553 13.39 100.298 13.5925 100.088 13.8476C99.8931 14.1027 99.7505 14.3953 99.6605 14.7254C99.5705 15.0555 99.5255 15.4006 99.5255 15.7607V21.6575H96.8246V10.8542Z" fill="#262C39"/>
<path d="M110.784 17.2012C110.874 18.0114 111.189 18.6416 111.729 19.0917C112.269 19.5419 112.922 19.7669 113.687 19.7669C114.362 19.7669 114.925 19.6319 115.375 19.3618C115.84 19.0767 116.246 18.7241 116.591 18.304L118.526 19.7669C117.896 20.5472 117.191 21.1024 116.411 21.4325C115.63 21.7626 114.813 21.9276 113.957 21.9276C113.147 21.9276 112.382 21.7926 111.662 21.5225C110.941 21.2524 110.319 20.8698 109.794 20.3746C109.268 19.8795 108.848 19.2868 108.533 18.5966C108.233 17.8914 108.083 17.1111 108.083 16.2559C108.083 15.4006 108.233 14.6279 108.533 13.9376C108.848 13.2324 109.268 12.6322 109.794 12.1371C110.319 11.6419 110.941 11.2593 111.662 10.9892C112.382 10.7192 113.147 10.5841 113.957 10.5841C114.708 10.5841 115.39 10.7192 116.005 10.9892C116.636 11.2443 117.168 11.6194 117.603 12.1146C118.054 12.6097 118.399 13.2249 118.639 13.9602C118.894 14.6804 119.021 15.5131 119.021 16.4584V17.2012H110.784ZM116.321 15.1755C116.306 14.3803 116.058 13.7576 115.578 13.3075C115.098 12.8423 114.43 12.6097 113.575 12.6097C112.764 12.6097 112.119 12.8423 111.639 13.3075C111.174 13.7726 110.889 14.3953 110.784 15.1755H116.321Z" fill="#262C39"/>
<path d="M123.213 15.8507L119.476 10.8542H122.762L124.923 14.0952L127.264 10.8542H130.347L126.656 15.8507L131 21.6575H127.714L124.901 17.7863L122.065 21.6575H118.869L123.213 15.8507Z" fill="#262C39"/>
<path d="M4 12.7059C4 6.20828 9.26737 0.940918 15.765 0.940918C22.2626 0.940918 27.53 6.20828 27.53 12.7059V24.4709H15.765C9.26737 24.4709 4 19.2035 4 12.7059Z" fill="url(#paint0_linear_1_39)"/>
</g>
<defs>
<filter id="filter0_d_1_39" x="0" y="0.940918" width="135" height="34.1182" filterUnits="userSpaceOnUse" color-interpolation-filters="sRGB">
<feFlood flood-opacity="0" result="BackgroundImageFix"/>
<feColorMatrix in="SourceAlpha" type="matrix" values="0 0 0 0 0 0 0 0 0 0 0 0 0 0 0 0 0 0 127 0" result="hardAlpha"/>
<feOffset dy="4"/>
<feGaussianBlur stdDeviation="2"/>
<feComposite in2="hardAlpha" operator="out"/>
<feColorMatrix type="matrix" values="0 0 0 0 0 0 0 0 0 0 0 0 0 0 0 0 0 0 0.25 0"/>
<feBlend mode="normal" in2="BackgroundImageFix" result="effect1_dropShadow_1_39"/>
<feBlend mode="normal" in="SourceGraphic" in2="effect1_dropShadow_1_39" result="shape"/>
</filter>
<linearGradient id="paint0_linear_1_39" x1="-2.06075" y1="33.2055" x2="32.5212" y2="-4.40681" gradientUnits="userSpaceOnUse">
<stop stop-color="#3A5FF7"/>
</linearGradient>
</defs>
</svg>
