<svg width="70" height="70" viewBox="0 0 70 70" fill="none" xmlns="http://www.w3.org/2000/svg">
<g clip-path="url(#clip0)">
<path d="M28.7596 62.0548L28.554 63.0594L28.7522 62.0537C28.1967 61.9442 27.6573 62.3058 27.5479 62.8612C27.4384 63.4172 27.7999 63.956 28.3559 64.0655C28.3575 64.0661 28.373 64.0687 28.3746 64.0693C28.4397 64.0815 28.5044 64.0879 28.5684 64.0879C29.0507 64.0879 29.4806 63.7462 29.5741 63.2548C29.6809 62.6983 29.3161 62.1611 28.7596 62.0548Z" fill="#F45959"/>
<path d="M36.6003 62.3843L36.7023 63.4044L36.5971 62.3849C36.0337 62.4426 35.6241 62.9462 35.6823 63.5096C35.7362 64.0372 36.1816 64.4303 36.7007 64.4303C36.736 64.4303 36.7718 64.4282 36.807 64.425L36.8353 64.4218C37.3961 64.3561 37.7939 63.8503 37.7315 63.2896C37.6684 62.7293 37.1611 62.3256 36.6003 62.3843Z" fill="#F45959"/>
<path d="M32.6744 62.5136C32.6744 62.5136 32.66 62.513 32.6595 62.513C32.0945 62.4874 31.6224 62.9264 31.5967 63.492C31.5716 64.0575 32.016 64.5366 32.5815 64.5622C32.5975 64.5633 32.613 64.5633 32.6291 64.5633C33.1738 64.5633 33.6277 64.1344 33.6523 63.5843C33.6779 63.0188 33.2406 62.5392 32.6744 62.5136Z" fill="#F45959"/>
<path d="M24.9724 61.0129L24.9595 61.008C24.4266 60.8169 23.8455 61.0956 23.6543 61.6286C23.4626 62.1616 23.7456 62.7512 24.2786 62.9429C24.3934 62.9841 24.5104 63.0033 24.6252 63.0033C25.0455 63.0033 25.4402 62.7432 25.5903 62.3245C25.782 61.7915 25.5054 61.204 24.9724 61.0129Z" fill="#F45959"/>
<path d="M40.4701 61.6666L40.7227 62.6604L40.4669 61.6676C39.9184 61.8086 39.5883 62.3678 39.7293 62.9163C39.8484 63.3787 40.265 63.6864 40.7216 63.6864C40.8065 63.6864 40.8925 63.6757 40.9785 63.6532C40.9828 63.6522 41.0009 63.6474 41.0057 63.6463C41.5499 63.4978 41.8682 62.9387 41.723 62.3934C41.5777 61.8487 41.0164 61.5245 40.4701 61.6666Z" fill="#F45959"/>
<path d="M44.1766 60.3735L44.583 61.3146L44.1734 60.3746C43.6543 60.601 43.4166 61.2051 43.6425 61.7242C43.8108 62.1103 44.1878 62.3405 44.5835 62.3405C44.7197 62.3405 44.8591 62.3127 44.9921 62.255C44.9964 62.2529 45.0129 62.2459 45.0172 62.2438C45.5315 62.0115 45.7585 61.4091 45.5288 60.8937C45.2992 60.3778 44.6936 60.1466 44.1766 60.3735Z" fill="#F45959"/>
<path d="M21.0559 13.6308C21.2204 13.6308 21.3876 13.5913 21.5419 13.5091C22.0418 13.2426 22.2303 12.6215 21.9638 12.1216C21.6973 11.6223 21.0767 11.4327 20.5769 11.6997L20.5646 11.7061C20.0652 11.9726 19.882 12.5905 20.1485 13.0904C20.3323 13.4354 20.689 13.6308 21.0559 13.6308Z" fill="#F45959"/>
<path d="M9.19475 25.0836C9.34695 25.1632 9.50984 25.2011 9.67059 25.2011C10.0396 25.2011 10.3964 25.0014 10.5796 24.6516L10.5977 24.6158C10.8477 24.1074 10.6383 23.4927 10.1299 23.2433C9.6252 22.9944 9.0153 23.1995 8.76216 23.701C8.50047 24.2019 8.6938 24.8209 9.19475 25.0836Z" fill="#F45959"/>
<path d="M7.75135 28.9412C7.8603 28.978 7.97085 28.9956 8.08033 28.9956C8.50758 28.9956 8.90652 28.7259 9.05125 28.2987L9.0646 28.2581C9.23122 27.7171 8.92735 27.143 8.38581 26.9769C7.84908 26.8113 7.27924 27.1093 7.10781 27.6434C6.92783 28.1791 7.21569 28.7601 7.75135 28.9412Z" fill="#F45959"/>
<path d="M11.2176 21.4965C11.3997 21.6289 11.6106 21.693 11.82 21.693C12.1367 21.693 12.4497 21.5462 12.6499 21.2706L12.6633 21.2524C12.9923 20.7921 12.8849 20.1533 12.4256 19.8243C11.9658 19.4948 11.3249 19.6006 10.9949 20.0599L11.8211 20.6676L10.9917 20.0641C10.6584 20.5224 10.7599 21.1638 11.2176 21.4965Z" fill="#F45959"/>
<path d="M17.5746 15.8456C17.7898 15.8456 18.0066 15.7778 18.1919 15.6368C18.6491 15.3024 18.7479 14.661 18.4136 14.2039C18.0787 13.7467 17.4373 13.6479 16.9807 13.9823L16.955 14.0009C16.5043 14.3433 16.4146 14.9879 16.7569 15.4392C16.9588 15.7051 17.2648 15.8456 17.5746 15.8456Z" fill="#F45959"/>
<path d="M6.83588 44.4917C6.97153 44.9323 7.37634 45.2148 7.81427 45.2148C7.91414 45.2148 8.01614 45.1999 8.11655 45.1689C8.65488 45.0039 8.95875 44.4335 8.79747 43.8941C8.64313 43.3558 8.08504 43.0396 7.5419 43.1875C6.99556 43.3365 6.67352 43.9005 6.82253 44.4468C6.82573 44.4575 6.83267 44.481 6.83588 44.4917Z" fill="#F45959"/>
<path d="M14.4772 18.5479C14.7437 18.5479 15.0102 18.4448 15.2115 18.2398C15.6115 17.8392 15.6115 17.1898 15.2115 16.7898C14.811 16.3892 14.1616 16.3892 13.761 16.7898L13.7439 16.8069C13.3477 17.2112 13.3557 17.8595 13.7599 18.2558C13.9591 18.4512 14.2182 18.5479 14.4772 18.5479Z" fill="#F45959"/>
<path d="M7.9693 40.0212C7.8972 39.4642 7.38825 39.0689 6.83069 39.1352C6.26886 39.2025 5.86725 39.7125 5.93401 40.2749L5.93988 40.316C6.01465 40.8255 6.45205 41.1908 6.95246 41.1908C7.00159 41.1908 7.05179 41.187 7.10253 41.1796C7.66062 41.0984 8.04781 40.5793 7.9693 40.0212Z" fill="#F45959"/>
<path d="M6.68131 37.0844C6.69199 37.0844 6.70213 37.0849 6.71228 37.0849C7.2645 37.0849 7.72058 36.6454 7.7366 36.0894L7.73767 36.0457C7.73767 35.479 7.27838 35.0203 6.71228 35.0203C6.14992 35.0203 5.69383 35.4721 5.68689 36.0323C5.67194 36.5973 6.11681 37.0678 6.68131 37.0844Z" fill="#F45959"/>
<path d="M6.90591 32.9721C6.96732 32.9827 7.02767 32.9881 7.08802 32.9881C7.57508 32.9881 8.00713 32.6393 8.09632 32.1432C8.09899 32.1283 8.10113 32.1133 8.10326 32.0983C8.18604 31.5381 7.79885 31.0169 7.23809 30.9346C6.68427 30.8524 6.1657 31.2332 6.07651 31.7854C5.97931 32.3419 6.34995 32.8722 6.90591 32.9721Z" fill="#F45959"/>
<path d="M55.2755 21.8201C55.4742 22.1085 55.7936 22.2628 56.1193 22.2628C56.3196 22.2628 56.5226 22.204 56.6999 22.0817C57.1661 21.7613 57.2841 21.1226 56.9637 20.6558L56.1113 21.2262L56.9605 20.651C56.6422 20.1821 56.0045 20.0598 55.5361 20.3776C55.0672 20.6953 54.9449 21.333 55.2627 21.8019L55.2755 21.8201Z" fill="#F45959"/>
<path d="M60.5118 32.1385C59.9489 32.2015 59.5441 32.7094 59.6076 33.2723L59.613 33.3166C59.6861 33.8277 60.1251 34.1967 60.6272 34.1967C60.6752 34.1967 60.7244 34.1935 60.7735 34.1866C61.3294 34.107 61.7172 33.5948 61.6451 33.0394C61.5805 32.4781 61.071 32.0754 60.5118 32.1385Z" fill="#F45959"/>
<path d="M58.7816 29.245L58.7859 29.2584C58.9173 29.7054 59.3258 29.9948 59.7691 29.9948C59.8647 29.9948 59.9619 29.9815 60.0586 29.9526C60.6022 29.793 60.9131 29.2231 60.7534 28.6794L60.7491 28.6661C60.5894 28.1224 60.0196 27.8116 59.4759 27.9718C58.9328 28.1315 58.622 28.7013 58.7816 29.245Z" fill="#F45959"/>
<path d="M57.3333 25.411C57.5122 25.7747 57.878 25.9867 58.2582 25.9867C58.4094 25.9867 58.5632 25.9531 58.7079 25.8815C59.2158 25.6316 59.4268 25.0206 59.1763 24.5122L58.247 24.9453L59.1752 24.5101C58.9349 23.9974 58.3245 23.7768 57.8118 24.0171C57.2991 24.2575 57.078 24.8679 57.3183 25.3806L57.3333 25.411Z" fill="#F45959"/>
<path d="M52.6931 18.6179C52.8939 18.8229 53.1593 18.9255 53.4253 18.9255C53.6843 18.9255 53.9433 18.8283 54.1431 18.6323C54.5447 18.2392 54.5537 17.5967 54.1666 17.1919C53.7826 16.778 53.1353 16.7529 52.7198 17.1364C52.3038 17.5204 52.2781 18.1692 52.6621 18.5853L52.6931 18.6179Z" fill="#F45959"/>
<path d="M60.8454 36.42C60.282 36.4056 59.8104 36.8473 59.7906 37.4107C59.765 37.972 60.196 38.45 60.7578 38.4815C60.7776 38.4826 60.7963 38.4831 60.816 38.4831C61.356 38.4831 61.8083 38.0607 61.8387 37.5143L61.8403 37.4721C61.8564 36.9066 61.411 36.4366 60.8454 36.42Z" fill="#F45959"/>
<path d="M46.1357 13.5827L46.1602 13.5961C46.313 13.6773 46.4769 13.7157 46.6382 13.7157C47.003 13.7157 47.356 13.5192 47.5413 13.1747C47.8083 12.6775 47.6204 12.0559 47.1248 11.7867L46.6286 12.6839L47.1215 11.7846C46.6249 11.5122 46.0016 11.6943 45.7293 12.191C45.4574 12.6871 45.639 13.3109 46.1357 13.5827Z" fill="#F45959"/>
<path d="M49.6038 15.8316L49.6198 15.8439C49.8051 15.9843 50.0225 16.0522 50.2388 16.0522C50.5485 16.0522 50.8545 15.9122 51.0564 15.6463C51.3987 15.195 51.3101 14.552 50.8593 14.2097L50.8524 14.2048C50.4033 13.8598 49.7597 13.9442 49.4147 14.3934C49.0697 14.8425 49.1546 15.4866 49.6038 15.8316Z" fill="#F45959"/>
<path d="M69.3671 51.9435L64.5537 47.1215C64.1441 46.7114 63.5999 46.4854 63.0204 46.4854C62.4415 46.4854 61.8967 46.7114 61.4877 47.1215L61.376 47.2331L61.0599 46.917C60.6695 46.5255 60.3672 46.07 60.1621 45.5738C60.144 45.5081 60.1199 45.444 60.089 45.3837C59.9319 44.9426 59.8502 44.4731 59.8502 43.9909V42.6269C59.9437 42.676 60.0457 42.7118 60.1552 42.7305C60.2139 42.7406 60.2721 42.7454 60.3298 42.7454C60.8163 42.7454 61.2468 42.3983 61.3371 41.9048C61.4465 41.3505 61.0871 40.8116 60.5322 40.7005C60.2882 40.6519 60.0468 40.6941 59.8438 40.8041C59.7808 39.3472 59.1853 37.9865 58.1493 36.9482L53.4795 32.2704C52.4316 31.221 51.0383 30.6432 49.5563 30.6432C48.4091 30.6432 47.3164 30.9908 46.3947 31.6344L45.899 31.1361V19.4082C45.899 17.9945 45.3858 16.6306 44.4544 15.5683C43.7917 14.8132 43.4269 13.8433 43.4269 12.8371V11.9778H43.4974C44.6926 11.9778 45.6651 11.0053 45.6651 9.80957V2.98859C45.6651 1.79283 44.6926 0.820312 43.4974 0.820312H24.3434C23.1482 0.820312 22.1757 1.79283 22.1757 2.98859V9.80957C22.1757 11.0053 23.1482 11.9778 24.3434 11.9778H24.5015V12.4275C24.5015 13.533 24.0716 14.5723 23.2913 15.3536L21.224 17.4247C20.127 18.5238 19.523 19.9844 19.523 21.5385V28.1539C19.523 29.0527 19.7388 29.9014 20.1185 30.6533C18.7588 30.7318 17.4915 31.2985 16.5205 32.2704L11.8507 36.9482C10.7538 38.0473 10.1498 39.5085 10.1498 41.0621V43.9909C10.1498 45.0964 9.72038 46.1356 8.94012 46.917L8.6277 47.2299C8.6261 47.231 8.62503 47.2321 8.62396 47.2331L8.51288 47.1215C8.10326 46.7114 7.55905 46.4854 6.9796 46.4854C6.40068 46.4854 5.85594 46.7114 5.44685 47.1215L0.632858 51.9435C-0.210953 52.7889 -0.210953 54.1647 0.632858 55.0101L2.28149 56.6609C2.6815 57.0619 3.33092 57.0625 3.73146 56.6625C4.132 56.2619 4.13307 55.613 3.73253 55.212L2.08443 53.5606C2.03796 53.5142 2.03796 53.4389 2.08443 53.3924L6.89842 48.5704C6.94328 48.5255 7.01645 48.525 7.06131 48.5704L7.89818 49.4089H7.89871L19.3259 60.8559L20.6061 62.1387C20.6525 62.1851 20.6525 62.2604 20.6061 62.3069L15.7926 67.1289C15.7472 67.1743 15.6741 67.1743 15.6292 67.1289L6.63567 58.1199C6.23566 57.7188 5.58624 57.7183 5.1857 58.1183C4.78462 58.5188 4.78409 59.1677 5.1841 59.5688L14.1782 68.5778C14.5872 68.988 15.132 69.2139 15.7114 69.2139C16.2904 69.2139 16.8346 68.988 17.2442 68.5778L22.0576 63.7558C22.9015 62.9109 22.9015 61.5352 22.0576 60.6898L22.0053 60.6374L22.6125 60.0292C23.3218 59.3183 24.2638 58.8911 25.2652 58.8265C26.6746 58.7351 28.0006 58.1338 28.9988 57.1335L33.4208 52.7019C34.6961 52.367 35.6889 51.3283 35.9586 50.0273C36.4131 50.2436 36.921 50.3654 37.4572 50.3654C39.3857 50.3654 40.9547 48.7947 40.9547 46.8636V44.4288C41.3959 44.6301 41.8856 44.7434 42.4015 44.7434C44.33 44.7434 45.8985 43.1727 45.8985 41.2415V34.0435L49.0527 37.2131C49.2529 37.4145 49.5162 37.5149 49.7795 37.5149C50.0412 37.5149 50.3029 37.4155 50.5032 37.2163C50.9042 36.8169 50.9058 36.168 50.5064 35.7664L47.8767 33.1239C48.3856 32.8435 48.9592 32.6939 49.5563 32.6939C50.4898 32.6939 51.3678 33.0582 52.0279 33.7199L56.6977 38.3971C57.408 39.109 57.7995 40.0554 57.7995 41.0621V43.9909C57.7995 45.6438 58.4419 47.1973 59.6083 48.3659L59.9266 48.6847L58.4393 50.1747L49.4436 59.1859L48.9421 58.6833C48.9368 58.6785 48.932 58.6732 48.9266 58.6684L48.8385 58.5797C47.7768 57.5164 46.3663 56.8771 44.8678 56.7799C43.9561 56.7207 43.0984 56.3319 42.4496 55.6825L39.0802 52.3312C38.6786 51.9318 38.0292 51.9334 37.6297 52.335C37.2308 52.7366 37.2324 53.386 37.634 53.785L41.0012 57.1335C41.9994 58.1338 43.3254 58.7351 44.7353 58.8265C45.7362 58.8911 46.6782 59.3183 47.3875 60.0286L47.4371 60.0783C47.4638 60.1087 47.4921 60.137 47.522 60.1637L47.9947 60.6369L47.9424 60.6898C47.0985 61.5352 47.0985 62.9104 47.9424 63.7558L52.7558 68.5778C53.1654 68.988 53.7096 69.2139 54.2891 69.2139C54.868 69.2139 55.4128 68.988 55.8224 68.5778L69.3671 55.0095C70.211 54.1641 70.211 52.7889 69.3671 51.9435ZM60.5376 41.7473L60.5183 41.7441L60.3314 41.7062L60.5376 41.7473ZM27.5472 55.6846C26.9016 56.3319 26.0439 56.7207 25.1328 56.7799C23.6337 56.8771 22.2232 57.5164 21.1615 58.5797L20.5564 59.1859L20.0117 58.6401C20.0047 58.6331 19.9978 58.6256 19.9908 58.6192L10.0734 48.6847L10.3917 48.3659C11.5581 47.1973 12.2005 45.6438 12.2005 43.9909V41.0621C12.2005 40.0554 12.5915 39.109 13.3023 38.3971L17.9721 33.7199C18.6322 33.0582 19.5102 32.6939 20.4437 32.6939C21.0424 32.6939 21.6181 32.8445 22.1287 33.1271L19.4947 35.7653C19.0947 36.1659 19.0952 36.8153 19.4958 37.2153C19.696 37.415 19.9583 37.5149 20.2205 37.5149C20.4832 37.5149 20.746 37.4145 20.9463 37.2142L24.0924 34.0622V46.8636C24.0924 48.7947 25.6615 50.3654 27.59 50.3654C28.1336 50.3654 28.6485 50.2404 29.1077 50.0182C29.316 51.0345 29.9654 51.8912 30.8456 52.3793L27.5472 55.6846ZM43.8483 41.2421C43.8483 42.0421 43.1989 42.6931 42.4015 42.6931C41.6036 42.6931 40.9547 42.0421 40.9547 41.2421V29.8042C40.9547 29.2381 40.496 28.7788 39.9294 28.7788C39.3627 28.7788 38.904 29.2381 38.904 29.8042V46.8641C38.904 47.6641 38.2551 48.3146 37.4572 48.3146C36.741 48.3146 36.1466 47.7901 36.0318 47.1039V29.7924C36.0318 29.2258 35.573 28.767 35.0064 28.767C34.8243 28.767 34.6529 28.8151 34.5044 28.8984C34.1802 29.0709 33.9597 29.4116 33.9597 29.8042V46.8636C33.9597 46.9939 33.9671 47.1215 33.981 47.2481V49.3144C33.981 50.1144 33.3321 50.7654 32.5343 50.7654C31.7369 50.7654 31.088 50.1144 31.088 49.3144V29.7801C31.088 29.214 30.6287 28.7547 30.0626 28.7547C29.496 28.7547 29.0367 29.214 29.0367 29.7801V46.8636C29.0367 47.6636 28.3878 48.3146 27.5905 48.3146C26.7926 48.3146 26.1437 47.6636 26.1437 46.8636V27.7897C26.1437 27.2231 25.6844 26.7638 25.1183 26.7638C24.5517 26.7638 24.0929 27.2231 24.0929 27.7897V31.3177C24.007 31.3454 23.9236 31.3844 23.8462 31.4357C22.5201 30.9374 21.5738 29.6546 21.5738 28.1539V21.5385C21.5738 20.5318 21.9653 19.5855 22.6756 18.8736L24.7429 16.8025C25.9098 15.634 26.5523 14.0804 26.5523 12.4275V11.9778H28.6137C29.1804 11.9778 29.6391 11.5186 29.6391 10.9525C29.6391 10.3858 29.1804 9.92706 28.6137 9.92706H24.3434C24.2788 9.92706 24.2265 9.87419 24.2265 9.80957V2.98859C24.2265 2.92397 24.2788 2.87109 24.3434 2.87109H43.4969C43.562 2.87109 43.6143 2.92397 43.6143 2.98859V9.80957C43.6143 9.87473 43.562 9.92706 43.4969 9.92706H33.4277C32.8616 9.92706 32.4023 10.3858 32.4023 10.9525C32.4023 11.5186 32.8616 11.9778 33.4277 11.9778H41.3761V12.8371C41.3761 14.3411 41.9214 15.791 42.9121 16.9211C43.5155 17.6089 43.8483 18.4923 43.8483 19.4082V41.2421ZM67.9156 53.5606L54.3708 67.1289C54.3484 67.1519 54.3211 67.1631 54.2891 67.1631C54.2576 67.1631 54.2303 67.1519 54.2074 67.1289L49.3939 62.3069C49.3475 62.2604 49.3475 62.1851 49.3939 62.1387L50.1688 61.3622L50.1694 61.3616L58.0323 53.4853L62.9387 48.5704C62.9836 48.525 63.0567 48.525 63.1016 48.5704L67.9156 53.3924C67.962 53.4389 67.962 53.5142 67.9156 53.5606Z" fill="#F45959"/>
<path d="M27.5901 5.3053C26.9883 5.3053 26.4985 5.7961 26.4985 6.39905C26.4985 7.00253 26.9883 7.4928 27.5901 7.4928C28.1926 7.4928 28.6823 7.00253 28.6823 6.39905C28.6823 5.7961 28.1926 5.3053 27.5901 5.3053Z" fill="#F45959"/>
<path d="M63.3558 52.0471C62.7534 52.0471 62.2637 52.5379 62.2637 53.1409C62.2637 53.7438 62.7534 54.2346 63.3558 54.2346C63.9577 54.2346 64.4474 53.7438 64.4474 53.1409C64.4474 52.5379 63.9577 52.0471 63.3558 52.0471Z" fill="#F45959"/>
<path d="M17.0876 62.5082C17.0876 61.9052 16.5978 61.4144 15.996 61.4144C15.3935 61.4144 14.9038 61.9052 14.9038 62.5082C14.9038 63.1111 15.3935 63.6019 15.996 63.6019C16.5978 63.6019 17.0876 63.1111 17.0876 62.5082Z" fill="#F45959"/>
</g>
<defs>
<clipPath id="clip0">
<rect width="70" height="70" fill="white"/>
</clipPath>
</defs>
</svg>
