<svg width="67" height="67" viewBox="0 0 67 67" fill="none" xmlns="http://www.w3.org/2000/svg">
<g clip-path="url(#clip0)">
<path d="M48.3017 28.9515L48.0023 30.6974C47.8843 31.3859 48.1619 32.0684 48.7269 32.4789C49.0462 32.7108 49.4197 32.8286 49.7956 32.8286C50.0851 32.8286 50.3761 32.7587 50.6449 32.6174L52.213 31.793L53.7808 32.6173C54.3987 32.9424 55.1339 32.8893 55.699 32.4788C56.2639 32.0683 56.5417 31.3856 56.4235 30.6973L56.1241 28.9514L57.3927 27.7147C57.8927 27.2272 58.0693 26.5118 57.8534 25.8475C57.6378 25.1834 57.0743 24.7085 56.3832 24.608L54.6301 24.3532L53.8461 22.7647C53.5373 22.1384 52.9114 21.7494 52.2131 21.7494C52.213 21.7494 52.213 21.7494 52.2129 21.7494C51.5146 21.7494 50.8887 22.1384 50.5796 22.7647L49.7958 24.3532L48.0425 24.608C47.3516 24.7085 46.7881 25.1834 46.5724 25.8475C46.3567 26.5118 46.5332 27.2272 47.0332 27.7147L48.3017 28.9515ZM50.1516 26.2851C50.7448 26.199 51.2575 25.8266 51.523 25.2887L52.2129 23.8906L52.903 25.289C53.1684 25.8266 53.6811 26.199 54.2743 26.2851L55.8173 26.5093L54.7008 27.5976C54.2715 28.0161 54.0758 28.6186 54.1769 29.2098L54.4405 30.7465L53.0604 30.021C52.7952 29.8815 52.504 29.8116 52.2129 29.8116C51.9217 29.8116 51.6307 29.8814 51.3652 30.0209L49.9851 30.7465L50.2488 29.2094C50.3498 28.6186 50.1541 28.016 49.7248 27.5976L48.6083 26.5093L50.1516 26.2851Z" fill="#F45959"/>
<path d="M10.8753 28.9514L10.5761 30.6974C10.458 31.3859 10.7356 32.0684 11.3006 32.4789C11.6198 32.7108 11.9933 32.8287 12.3694 32.8287C12.6588 32.8287 12.9499 32.7589 13.2186 32.6175L14.7866 31.7931L16.3546 32.6174C16.9726 32.9423 17.7076 32.8894 18.2727 32.4788C18.8377 32.0683 19.1153 31.3856 18.9973 30.6973L18.6979 28.9514L19.9664 27.7147C20.4664 27.2272 20.6431 26.5118 20.4272 25.8475C20.2115 25.1834 19.648 24.7085 18.957 24.608L17.2038 24.3532L16.4199 22.7646C16.1108 22.1383 15.4849 21.7494 14.7866 21.7494C14.0883 21.7494 13.4624 22.1384 13.1533 22.7647L12.3695 24.3532L10.6162 24.608C9.9253 24.7085 9.36182 25.1834 9.14617 25.8475C8.93038 26.5118 9.10691 27.2272 9.60692 27.7147L10.8753 28.9514ZM12.7253 26.2851C13.3185 26.199 13.8312 25.8266 14.0967 25.2887L14.7867 23.8906L15.4769 25.289C15.7423 25.8266 16.255 26.199 16.8483 26.2851L18.3913 26.5093L17.2748 27.5976C16.8455 28.0161 16.6498 28.6186 16.7509 29.2098L17.0145 30.7466L15.6344 30.0211C15.3692 29.8816 15.078 29.8118 14.7867 29.8118C14.4957 29.8118 14.2047 29.8815 13.9392 30.021L12.5591 30.7466L12.8225 29.2101C12.9239 28.6191 12.7282 28.0164 12.2988 27.5978L11.1823 26.5094L12.7253 26.2851Z" fill="#F45959"/>
<path d="M26.4958 50.5936C26.4958 50.0516 26.0565 49.6122 25.5144 49.6122H24.4277C23.8856 49.6122 23.4463 50.0516 23.4463 50.5936C23.4463 51.1357 23.8856 51.5751 24.4277 51.5751H25.5144C26.0564 51.5751 26.4958 51.1357 26.4958 50.5936Z" fill="#F45959"/>
<path d="M25.9981 52.5117L25.2298 53.2801C24.8465 53.6634 24.8465 54.2849 25.23 54.6682C25.4215 54.8597 25.6728 54.9555 25.9239 54.9555C26.175 54.9555 26.4263 54.8597 26.618 54.668L27.3863 53.8996C27.7696 53.5163 27.7696 52.8949 27.3861 52.5116C27.003 52.1284 26.3814 52.1284 25.9981 52.5117Z" fill="#F45959"/>
<path d="M29.5811 52.7195C29.0389 52.7195 28.5996 53.1589 28.5996 53.7009V54.7876C28.5996 55.3296 29.0389 55.769 29.5811 55.769C30.1232 55.769 30.5625 55.3296 30.5625 54.7876V53.7009C30.5625 53.1589 30.1231 52.7195 29.5811 52.7195Z" fill="#F45959"/>
<path d="M57.0265 36.1498C56.643 35.7665 56.0217 35.7665 55.6384 36.1498C52.1213 39.667 49.3728 43.7804 47.4693 48.376C45.5658 52.9715 44.6006 57.8236 44.6006 62.7977V63.4015C44.6006 63.9435 45.0399 64.3829 45.582 64.3829C46.1242 64.3829 46.5635 63.9435 46.5635 63.4015V62.7977C46.5635 58.0827 47.4783 53.4833 49.2827 49.1272C51.087 44.7711 53.6924 40.872 57.0265 37.5379C57.4097 37.1544 57.4097 36.5329 57.0265 36.1498Z" fill="#F45959"/>
<path d="M60.3801 44.5461C59.9968 44.1628 59.3755 44.1626 58.9921 44.5461C56.5578 46.9803 54.6557 49.8272 53.3383 53.0076C52.0211 56.188 51.353 59.5461 51.353 62.9885V63.4013C51.353 63.9433 51.7923 64.3828 52.3345 64.3828C52.8766 64.3828 53.3159 63.9433 53.3159 63.4013V62.9885C53.3159 59.805 53.9337 56.6996 55.1517 53.7587C56.37 50.8176 58.1291 48.185 60.3801 45.9341C60.7634 45.5507 60.7634 44.9292 60.3801 44.5461Z" fill="#F45959"/>
<path d="M60.8736 56.4353C60.195 55.8997 59.9385 55.6493 59.9385 55.1404C59.9385 54.6315 60.195 54.381 60.8736 53.8454C61.5834 53.2852 62.5557 52.5179 62.5557 51.0095C62.5557 50.4675 62.1164 50.0281 61.5742 50.0281C61.0321 50.0281 60.5928 50.4675 60.5928 51.0095C60.5928 51.5186 60.3363 51.7689 59.6577 52.3045C58.9477 52.8647 57.9756 53.6319 57.9756 55.1404C57.9756 56.6488 58.9479 57.416 59.6577 57.9762C60.3364 58.5118 60.5928 58.7622 60.5928 59.2712C60.5928 59.78 60.3363 60.0303 59.6577 60.5659C58.9477 61.126 57.9756 61.8932 57.9756 63.4015C57.9756 63.9435 58.4149 64.383 58.957 64.383C59.4992 64.383 59.9385 63.9435 59.9385 63.4015C59.9385 62.8927 60.195 62.6424 60.8735 62.1068C61.5834 61.5467 62.5557 60.7795 62.5557 59.2712C62.5557 57.7628 61.5835 56.9956 60.8736 56.4353Z" fill="#F45959"/>
<path d="M11.3612 36.1498C10.9779 35.7665 10.3566 35.7665 9.97301 36.1498C9.58973 36.5331 9.58973 37.1545 9.97301 37.5378C13.307 40.8718 15.9125 44.7711 17.7168 49.1271C19.5212 53.4833 20.436 58.0827 20.436 62.7976V63.4014C20.436 63.9434 20.8753 64.3828 21.4175 64.3828C21.9596 64.3828 22.3989 63.9434 22.3989 63.4014V62.7976C22.3989 57.8235 21.4337 52.9714 19.5302 48.3758C17.6269 43.7803 14.8783 39.6669 11.3612 36.1498Z" fill="#F45959"/>
<path d="M8.00752 44.5461C7.6241 44.1628 7.00278 44.1628 6.6195 44.5461C6.23621 44.9294 6.23621 45.5509 6.6195 45.9342C8.87054 48.1852 10.6297 50.8177 11.8479 53.7588C13.066 56.6998 13.6837 59.8051 13.6837 62.9885V63.4014C13.6837 63.9434 14.123 64.3828 14.6651 64.3828C15.2073 64.3828 15.6466 63.9434 15.6466 63.4014V62.9885C15.6466 59.546 14.9787 56.1879 13.6613 53.0076C12.3439 49.8271 10.4418 46.9802 8.00752 44.5461Z" fill="#F45959"/>
<path d="M7.34186 57.9762C8.05164 57.416 9.02393 56.6488 9.02393 55.1404C9.02393 53.6319 8.05177 52.8647 7.34186 52.3045C6.66309 51.7689 6.40674 51.5186 6.40674 51.0095C6.40674 50.4675 5.96744 50.0281 5.42529 50.0281C4.88314 50.0281 4.44385 50.4675 4.44385 51.0095C4.44385 52.5179 5.41613 53.2852 6.12591 53.8454C6.80468 54.381 7.06104 54.6313 7.06104 55.1404C7.06104 55.6494 6.80455 55.8997 6.12591 56.4353C5.416 56.9956 4.44385 57.7628 4.44385 59.2711C4.44385 60.7794 5.41613 61.5466 6.12591 62.1067C6.80455 62.6421 7.06104 62.8925 7.06104 63.4014C7.06104 63.9434 7.50033 64.3828 8.04248 64.3828C8.58463 64.3828 9.02393 63.9434 9.02393 63.4014C9.02393 61.8931 8.05164 61.1259 7.34186 60.5658C6.66322 60.0303 6.40674 59.78 6.40674 59.2711C6.40674 58.7622 6.66322 58.5118 7.34186 57.9762Z" fill="#F45959"/>
<path d="M41.1337 37.8252C41.6759 37.8252 42.1152 37.3857 42.1152 36.8437V16.2656H44.6607C45.3089 16.2656 45.8798 15.8995 46.1504 15.3104C46.4209 14.7212 46.3265 14.0497 45.904 13.5579L34.743 0.570939C34.4311 0.208066 33.978 0 33.4997 0C33.0214 0 32.5682 0.208066 32.2564 0.570809L29.0347 4.31967C28.6816 4.73083 28.7284 5.35032 29.1394 5.70364C29.5507 6.05683 30.1702 6.00998 30.5235 5.59895L33.4997 2.13576L43.9557 14.3027H23.0436L27.7343 8.84452C28.0875 8.43349 28.0406 7.81388 27.6296 7.46055C27.2184 7.1075 26.5989 7.15395 26.2455 7.56524L21.0955 13.5579C20.673 14.0497 20.5786 14.7212 20.8491 15.3104C21.1196 15.8997 21.6905 16.2656 22.3388 16.2656H24.8843V42.2831C24.8843 43.187 25.6197 43.9224 26.5236 43.9224H29.2139V46.2661C29.2139 46.2757 29.2062 46.2834 29.1966 46.2834C28.1047 46.2834 27.2165 47.1717 27.2165 48.2634V50.5936C27.2165 51.1357 27.6558 51.5751 28.1979 51.5751C28.7401 51.5751 29.1793 51.1357 29.1793 50.5936V48.2634C29.1793 48.254 29.1872 48.2463 29.1966 48.2463C30.2885 48.2463 31.1768 47.358 31.1768 46.2661V43.9224H32.5182V53.2976C32.5182 53.8396 32.9575 54.279 33.4997 54.279C34.0418 54.279 34.4811 53.8396 34.4811 53.2976V43.9224H36.214V65.0371H34.4811V57.5749C34.4811 57.0328 34.0418 56.5934 33.4997 56.5934C32.9575 56.5934 32.5182 57.0328 32.5182 57.5749V65.3607C32.5182 66.2646 33.2537 67 34.1575 67H36.5376C37.4414 67 38.1768 66.2646 38.1768 65.3607V43.9224H40.4758C41.3796 43.9224 42.1151 43.187 42.1151 42.2831V41.09C42.1151 40.548 41.6758 40.1085 41.1336 40.1085C40.5915 40.1085 40.1522 40.548 40.1522 41.09V41.9595H26.847V39.2417L40.1523 35.8022V36.8437C40.1523 37.3857 40.5916 37.8252 41.1337 37.8252ZM40.1523 23.2634L26.847 26.7029V23.7105L40.1523 20.271V23.2634ZM26.847 28.7303L40.1523 25.2907V28.755L26.847 32.1945V28.7303ZM40.1523 16.2656V18.2436L26.847 21.6831V16.2654H40.1523V16.2656ZM26.847 37.2143V34.2221L40.1523 30.7824V33.7748L26.847 37.2143Z" fill="#F45959"/>
</g>
<defs>
<clipPath id="clip0">
<rect width="67" height="67" fill="white"/>
</clipPath>
</defs>
</svg>
