<svg width="58" height="58" viewBox="0 0 58 58" fill="none" xmlns="http://www.w3.org/2000/svg">
<g clip-path="url(#clip0)">
<path d="M43.8386 15.6589H22.2905C21.8213 15.6589 21.4409 16.0392 21.4409 16.5085C21.4409 16.9779 21.8213 17.3582 22.2905 17.3582H43.8386C44.3078 17.3582 44.6882 16.9779 44.6882 16.5085C44.6882 16.0392 44.3078 15.6589 43.8386 15.6589Z" fill="#F45959"/>
<path d="M44.688 22.3262C44.688 21.8568 44.3076 21.4766 43.8384 21.4766H16.1899C15.7207 21.4766 15.3403 21.8568 15.3403 22.3262C15.3403 22.7955 15.7207 23.1758 16.1899 23.1758H43.8384C44.3076 23.1758 44.688 22.7955 44.688 22.3262Z" fill="#F45959"/>
<path d="M16.1899 27.2939C15.7207 27.2939 15.3403 27.6742 15.3403 28.1436C15.3403 28.6129 15.7207 28.9932 16.1899 28.9932H43.4527C43.9219 28.9932 44.3023 28.6129 44.3023 28.1436C44.3023 27.6742 43.9219 27.2939 43.4527 27.2939H16.1899Z" fill="#F45959"/>
<path d="M6.42333 14.7353H10.3951L10.3953 20.3011C10.3953 20.7704 10.7757 21.1507 11.2449 21.1507C11.7141 21.1507 12.0945 20.7703 12.0945 20.3011L12.094 6.82762C12.094 5.99783 11.8358 5.22707 11.3955 4.59167H44.9032C46.498 4.59167 47.7956 5.8892 47.7956 7.48397L47.7967 34.2905C47.7967 34.7598 48.1771 35.1401 48.6463 35.1401C49.1155 35.1401 49.4959 34.7597 49.4959 34.2905L49.4948 7.48397C49.4948 4.95214 47.435 2.89246 44.9032 2.89246H8.1588C5.98889 2.89246 4.22363 4.65783 4.22363 6.82762V12.5357C4.22363 13.7485 5.21043 14.7353 6.42333 14.7353ZM5.92285 6.82762C5.92285 5.59467 6.92584 4.59167 8.1588 4.59167C9.39164 4.59167 10.3947 5.59467 10.3947 6.82762L10.395 13.0362H6.42333C6.14737 13.0362 5.92285 12.8118 5.92285 12.5357V6.82762Z" fill="#F45959"/>
<path d="M53.6741 41.5842H53.0717V39.7699C53.0717 38.4703 52.0144 37.413 50.715 37.413H20.2635C18.964 37.413 17.9067 38.4703 17.9067 39.7699V41.5842H12.0954L12.0946 24.2734C12.0946 23.8041 11.7142 23.4238 11.245 23.4238C10.7758 23.4238 10.3954 23.8042 10.3954 24.2734L10.3962 41.5842H8.56995C6.16091 41.5842 5.04147 42.7004 0.850742 44.5581C0.32591 44.81 0 45.328 0 45.9099C0 46.4921 0.32591 47.01 0.850742 47.2619C5.04124 49.1195 6.1608 50.2359 8.56995 50.2359H10.3966V50.5161C10.3966 53.0479 12.4564 55.1077 14.9882 55.1077H15.0004H48.4661C51.1751 55.0598 53.0717 52.918 53.0717 50.5021V50.2359H53.6741C56.0594 50.2359 58 48.2953 58 45.9099C58 43.5248 56.0594 41.5842 53.6741 41.5842ZM9.41956 48.5367V46.7595H17.9067V48.5367H9.41956ZM17.9067 45.0603H9.41956V43.2833H17.9067V45.0603ZM1.96101 45.9099C6.26672 43.9009 6.57666 43.5542 7.72034 43.3563V48.4637C6.57677 48.2658 6.26219 47.9169 1.96101 45.9099ZM14.9882 53.4085C13.3934 53.4085 12.0958 52.1109 12.0958 50.5161V50.2359H17.9068V50.5021C17.9068 52.1046 16.6031 53.4085 15.0005 53.4085H14.9882ZM51.3725 50.5021C51.3725 52.1046 50.0687 53.4085 48.4661 53.4085H18.5706C19.2177 52.6152 19.606 51.6032 19.606 50.5021V39.77C19.606 39.4074 19.901 39.1124 20.2636 39.1124H50.7151C51.0776 39.1124 51.3726 39.4074 51.3726 39.77V50.5021H51.3725ZM53.6741 48.5367H53.0717V43.2834H53.6741C55.1224 43.2834 56.3008 44.4616 56.3008 45.91C56.3008 47.3585 55.1224 48.5367 53.6741 48.5367Z" fill="#F45959"/>
</g>
<defs>
<clipPath id="clip0">
<rect width="58" height="58" fill="white"/>
</clipPath>
</defs>
</svg>
