<svg width="68" height="68" viewBox="0 0 68 68" fill="none" xmlns="http://www.w3.org/2000/svg">
<g clip-path="url(#clip0)">
<path d="M32.8522 25.928C33.2952 26.3488 34.0319 26.2637 34.3686 25.7558L40.9984 15.7502C41.3024 15.2916 41.1768 14.6732 40.7182 14.3692C40.2601 14.0657 39.6417 14.1912 39.3377 14.6493L33.3632 23.6661L30.0434 20.5138C29.6445 20.1351 29.0141 20.1517 28.6349 20.5507C28.2562 20.9496 28.2728 21.58 28.6717 21.9587C28.6712 21.9587 32.8486 25.9249 32.8522 25.928Z" fill="#F45959"/>
<path d="M33.5318 41.121C33.7222 41.2082 33.9329 41.2544 34.1424 41.2544H34.1507C34.364 41.2533 34.5777 41.2046 34.7686 41.1133C49.9155 33.9097 52.4825 18.3676 52.9079 13.7757C53.0055 12.7272 52.4151 11.7508 51.4392 11.3461C48.4239 10.0943 46.3742 7.29483 46.0899 4.04041C46.0022 3.0386 45.1462 2.25781 44.1376 2.25781H44.1257L23.7193 2.37766C22.6905 2.38336 21.8547 3.16519 21.7758 4.19605C21.5247 7.45151 19.5051 10.2712 16.5048 11.5547C15.5388 11.9677 14.963 12.9492 15.073 13.9972C15.5523 18.5839 18.3014 34.0955 33.5318 41.121ZM17.2882 13.3861C20.967 11.8131 23.4453 8.35941 23.7602 4.36932L44.1081 4.25C44.4697 8.23126 46.9832 11.6533 50.6755 13.1858C50.8405 13.2548 50.9406 13.4177 50.9246 13.592C50.5251 17.8955 48.135 32.4057 34.1388 39.2056C20.0622 32.5712 17.504 18.089 17.0537 13.7902C17.0356 13.6164 17.13 13.454 17.2882 13.3861Z" fill="#F45959"/>
<path d="M19.7753 18.9081C19.8957 19.3512 20.4575 19.7569 20.9981 19.608C21.5283 19.4617 21.8422 18.9165 21.698 18.3857C21.4443 17.4508 21.2311 16.503 21.0635 15.564C23.7695 13.8006 25.7778 11.1687 26.763 8.09482L41.1483 8.01025C42.1693 11.0717 44.2081 13.6807 46.9349 15.412C46.7788 16.3536 46.5765 17.3045 46.3331 18.243C46.1951 18.7759 46.5152 19.3196 47.0475 19.4576C47.5809 19.5956 48.124 19.2755 48.262 18.7427C48.5474 17.6407 48.7798 16.5222 48.952 15.4182C49.0485 14.8013 48.7663 14.1949 48.234 13.8732C45.694 12.3391 43.8164 9.93241 42.9475 7.09665C42.7519 6.45905 42.1506 6.01599 41.4834 6.01599H41.4741L26.4133 6.10419C25.742 6.10834 25.1412 6.56021 24.9529 7.20248C24.1177 10.0481 22.2681 12.4766 19.7463 14.0408C19.2176 14.3681 18.9432 14.9777 19.0464 15.5941C19.2321 16.6955 19.477 17.8104 19.7753 18.9081Z" fill="#F45959"/>
<path d="M46.249 21.8617C45.7406 21.6511 45.1585 21.8939 44.9484 22.4023C42.6465 27.9814 39.0025 32.2231 34.1143 35.0148C29.1883 32.2771 25.4914 28.0712 23.1246 22.5097C22.9088 22.0038 22.3236 21.7683 21.8178 21.9836C21.3114 22.1989 21.0759 22.7841 21.2912 23.2899C23.8743 29.3589 27.9437 33.9341 33.3865 36.8877C33.6158 37.0127 33.8669 37.0744 34.1174 37.0744C34.3743 37.0744 34.6305 37.0096 34.864 36.8794C40.2657 33.8657 44.2781 29.2504 46.7901 23.1618C47.0003 22.6534 46.758 22.0713 46.249 21.8617Z" fill="#F45959"/>
<path d="M6.3909 53.2277C4.448 53.2277 2.8667 54.8084 2.8667 56.7519C2.8667 58.6953 4.448 60.2761 6.3909 60.2761C8.33432 60.2761 9.91562 58.6953 9.91562 56.7519C9.91562 54.8084 8.33484 53.2277 6.3909 53.2277ZM6.3909 58.2839C5.5463 58.2839 4.85889 57.597 4.85889 56.7519C4.85889 55.9073 5.5463 55.2198 6.3909 55.2198C7.23602 55.2198 7.92343 55.9073 7.92343 56.7519C7.92343 57.597 7.23602 58.2839 6.3909 58.2839Z" fill="#F45959"/>
<path d="M67.2856 43.4759C66.0088 41.5999 63.4382 41.1029 61.5555 42.3677L48.5336 51.083L45.7539 50.9269L45.6828 50.2151C45.4058 47.4276 43.2751 45.2066 40.5016 44.8144C40.4839 44.8118 40.4668 44.8097 40.4492 44.8081L26.4177 43.5786C25.943 43.5044 24.4235 43.0681 20.2482 40.6733C18.0781 39.4287 15.633 38.7263 13.149 38.6308V36.0249C13.149 34.717 12.0854 33.6534 10.7775 33.6534H2.37143C1.06406 33.6534 0 34.7175 0 36.0249V61.6904C0 62.9978 1.06406 64.0618 2.37143 64.0618H10.7775C12.0849 64.0618 13.149 62.9978 13.149 61.6904V60.9833L25.4144 65.6281C25.4414 65.6384 26.4375 66.0109 28.2688 65.8382C28.274 65.8377 48.6488 62.9002 48.6488 62.9002C48.654 62.8997 48.6586 62.8987 48.6638 62.8976C50.4049 62.6201 52.0469 61.8839 53.4129 60.77C53.4254 60.7597 53.4373 60.7493 53.4492 60.7389L66.6117 48.9004C68.1629 47.523 68.4529 45.191 67.2856 43.4759ZM65.2841 47.4151L52.1356 59.2411C51.0472 60.1236 49.7409 60.7073 48.3567 60.9293L27.9918 63.8652C27.9871 63.8657 27.9804 63.8667 27.9741 63.8678C27.971 63.8683 27.9674 63.8688 27.9643 63.8693C27.3552 63.9653 26.7207 63.9248 26.0779 63.749L13.149 58.8531V47.4774C13.149 46.9269 12.7028 46.4813 12.1529 46.4813C11.6024 46.4813 11.1568 46.9269 11.1568 47.4774V61.6904C11.1568 61.8995 10.9866 62.0696 10.7775 62.0696H2.37143C2.16235 62.0696 1.99219 61.8995 1.99219 61.6904V36.0249C1.99219 35.8158 2.16235 35.6456 2.37143 35.6456H10.7775C10.9866 35.6456 11.1568 35.8158 11.1568 36.0249V42.9778C11.1568 43.5283 11.6029 43.9739 12.1529 43.9739C12.7033 43.9739 13.149 43.5277 13.149 42.9778V40.6251C15.2859 40.7195 17.3881 41.3296 19.2568 42.4019C24.2927 45.2901 25.6992 45.4893 26.1615 45.5547C26.1791 45.5573 26.1962 45.5588 26.2139 45.5609L40.2468 46.7905C42.0969 47.0639 43.5153 48.5497 43.7005 50.4122L43.7534 50.9429L24.9662 52.103C24.9532 52.1019 24.9402 52.1009 24.9288 52.0999C24.3197 52.0449 23.7698 51.7569 23.3791 51.289C23.0269 50.8662 22.3986 50.8091 21.9763 51.1619C21.5535 51.5141 21.4964 52.1424 21.8492 52.5647C22.5802 53.4415 23.6116 53.966 24.7514 54.0843C25.3667 54.1486 44.8491 52.8713 44.8491 52.8713L48.7546 53.0908C48.9704 53.1032 49.1847 53.0441 49.3642 52.9237L62.6652 44.0222C63.6421 43.3659 64.9759 43.6232 65.6384 44.5965C66.2439 45.4867 66.0934 46.6966 65.2841 47.4151Z" fill="#F45959"/>
</g>
<defs>
<clipPath id="clip0">
<rect width="68" height="68" fill="white"/>
</clipPath>
</defs>
</svg>
