<svg width="67" height="67" viewBox="0 0 67 67" fill="none" xmlns="http://www.w3.org/2000/svg">
<g clip-path="url(#clip0)">
<path d="M66.8708 36.5949C66.2693 30.5441 63.5661 24.8397 59.2589 20.5324C55.578 16.8517 51.0727 14.4864 46.3321 13.4346V10.1097C48.2684 9.62799 49.7076 7.87537 49.7076 5.79218C49.7076 3.33879 47.7117 1.3429 45.2583 1.3429H35.8363C33.3829 1.3429 31.387 3.33879 31.387 5.79218C31.387 7.87524 32.8262 9.62786 34.7623 10.1097V13.4439C30.0362 14.5001 25.5458 16.8621 21.8754 20.5325C21.0722 21.3358 20.3315 22.1784 19.6536 23.0541C19.6207 23.0516 19.5879 23.0491 19.5544 23.0491H10.229C9.50643 23.0491 8.92043 23.635 8.92043 24.3578C8.92043 25.0805 9.50643 25.6664 10.229 25.6664H17.8729C16.9134 27.2727 16.1398 28.9596 15.5509 30.6962H1.30861C0.585997 30.6962 0 31.282 0 32.0048C0 32.7275 0.585997 33.3134 1.30861 33.3134H14.8114C14.4343 34.9689 14.2178 36.6538 14.162 38.3433H8.37513C7.65251 38.3433 7.06652 38.9292 7.06652 39.6519C7.06652 40.3747 7.65251 40.9605 8.37513 40.9605H14.2037C14.3141 42.6544 14.5865 44.3394 15.0208 45.9905H6.54307C5.82045 45.9905 5.23446 46.5763 5.23446 47.2991C5.23446 48.0218 5.82045 48.6077 6.54307 48.6077H15.856C17.1397 52.0037 19.1459 55.1866 21.8754 57.9161C26.1868 62.2275 31.8971 64.9313 37.9541 65.5298C38.8186 65.6151 39.6837 65.6574 40.5477 65.6574C45.6541 65.6574 50.6957 64.1795 54.9736 61.3938C55.5792 60.9994 55.7505 60.1887 55.3561 59.583C54.9617 58.9774 54.151 58.8061 53.5453 59.2005C44.1813 65.2983 31.6405 63.9799 23.7261 56.0655C14.4399 46.7793 14.4399 31.6696 23.7261 22.3833C33.0121 13.0973 48.1218 13.0973 57.4081 22.3833C65.312 30.2874 66.6376 42.8175 60.56 52.1769C60.1664 52.7831 60.3388 53.5936 60.9448 53.9871C61.5512 54.3808 62.3615 54.2084 62.755 53.6023C66.0022 48.6014 67.4639 42.5615 66.8708 36.5949ZM34.0042 5.79232C34.0042 4.78206 34.826 3.96025 35.8363 3.96025H45.2583C46.2685 3.96025 47.0904 4.78206 47.0904 5.79232C47.0904 6.80257 46.2685 7.62437 45.2583 7.62437H45.0235H36.0709H35.8363C34.826 7.62437 34.0042 6.80243 34.0042 5.79232ZM37.3795 12.994V10.2416H43.7149V12.9893C41.6112 12.7391 39.4829 12.7407 37.3795 12.994Z" fill="#F45959"/>
<path d="M58.334 55.6815C57.9885 55.6815 57.6522 55.8215 57.4089 56.0649C57.1642 56.3083 57.0254 56.646 57.0254 56.9901C57.0254 57.3343 57.1642 57.6719 57.4089 57.9153C57.6522 58.16 57.9886 58.2987 58.334 58.2987C58.6781 58.2987 59.0145 58.16 59.2592 57.9153C59.5026 57.6719 59.6426 57.3343 59.6426 56.9901C59.6426 56.646 59.5027 56.3083 59.2592 56.0649C59.0145 55.8215 58.678 55.6815 58.334 55.6815Z" fill="#F45959"/>
<path d="M40.567 18.9237C29.3734 18.9237 20.2666 28.0304 20.2666 39.2241C20.2666 50.4179 29.3734 59.5245 40.567 59.5245C51.7606 59.5245 60.8674 50.4179 60.8674 39.2241C60.8674 28.0304 51.7606 18.9237 40.567 18.9237ZM40.567 56.9073C30.8164 56.9073 22.8838 48.9746 22.8838 39.2241C22.8838 29.4736 30.8164 21.5409 40.567 21.5409C50.3176 21.5409 58.2502 29.4736 58.2502 39.2241C58.2502 48.9746 50.3176 56.9073 40.567 56.9073Z" fill="#F45959"/>
<path d="M48.845 29.0957L42.3635 35.5771C41.8214 35.3091 41.2118 35.1577 40.5673 35.1577C39.9226 35.1577 39.3131 35.3091 38.7711 35.5771L35.8703 32.6763C35.3591 32.1653 34.5308 32.1653 34.0195 32.6763C33.5085 33.1873 33.5085 34.0159 34.0195 34.5269L36.9203 37.4277C36.6522 37.9698 36.5009 38.5795 36.5009 39.224C36.5009 41.4661 38.325 43.2903 40.5673 43.2903C42.8096 43.2903 44.6336 41.4661 44.6336 39.224C44.6336 38.5795 44.4822 37.9698 44.2142 37.4277L50.5055 31.1364L50.6957 30.9463C51.2067 30.4353 51.2067 29.6067 50.6957 29.0957C50.1847 28.5846 49.3563 28.5846 48.845 29.0957ZM40.5673 40.6732C39.7682 40.6732 39.1181 40.0231 39.1181 39.2241C39.1181 38.425 39.7682 37.7749 40.5673 37.7749C41.3663 37.7749 42.0164 38.425 42.0164 39.2241C42.0164 40.0231 41.3663 40.6732 40.5673 40.6732Z" fill="#F45959"/>
<path d="M54.5586 37.9315H53.3462C52.6236 37.9315 52.0376 38.5174 52.0376 39.2401C52.0376 39.9628 52.6236 40.5487 53.3462 40.5487H54.5586C55.2812 40.5487 55.8672 39.9628 55.8672 39.2401C55.8672 38.5174 55.2812 37.9315 54.5586 37.9315Z" fill="#F45959"/>
<path d="M27.788 37.8995H26.5757C25.8531 37.8995 25.2671 38.4854 25.2671 39.2081C25.2671 39.9309 25.8531 40.5167 26.5757 40.5167H27.788C28.5106 40.5167 29.0966 39.9309 29.0966 39.2081C29.0966 38.4854 28.5106 37.8995 27.788 37.8995Z" fill="#F45959"/>
<path d="M40.583 27.7534C41.3056 27.7534 41.8916 27.1676 41.8916 26.4448V25.2325C41.8916 24.5098 41.3056 23.924 40.583 23.924C39.8604 23.924 39.2744 24.5098 39.2744 25.2325V26.4448C39.2744 27.1676 39.8604 27.7534 40.583 27.7534Z" fill="#F45959"/>
<path d="M40.5513 50.6948C39.8287 50.6948 39.2427 51.2807 39.2427 52.0034V53.2157C39.2427 53.9384 39.8287 54.5243 40.5513 54.5243C41.2739 54.5243 41.8599 53.9384 41.8599 53.2157V52.0034C41.8599 51.2807 41.2739 50.6948 40.5513 50.6948Z" fill="#F45959"/>
<path d="M1.30859 45.99C0.964434 45.99 0.626816 46.13 0.383418 46.3734C0.14002 46.6168 0 46.9544 0 47.2986C0 47.6441 0.139889 47.9804 0.383418 48.2238C0.626947 48.4672 0.964434 48.6072 1.30859 48.6072C1.65275 48.6072 1.99037 48.4672 2.23364 48.2238C2.47704 47.9804 2.61719 47.6427 2.61719 47.2986C2.61719 46.9544 2.47717 46.6168 2.23364 46.3734C1.99037 46.13 1.65275 45.99 1.30859 45.99Z" fill="#F45959"/>
</g>
<defs>
<clipPath id="clip0">
<rect width="67" height="67" fill="white"/>
</clipPath>
</defs>
</svg>
