<svg width="72" height="72" viewBox="0 0 72 72" fill="none" xmlns="http://www.w3.org/2000/svg">
<g clip-path="url(#clip0)">
<path d="M41.8619 60.3627C41.309 60.1787 40.7122 60.4783 40.5285 61.0311C40.2758 61.792 40.0336 62.5613 39.8091 63.3176C39.6433 63.8761 39.9613 64.4632 40.5198 64.629C40.6199 64.6588 40.721 64.673 40.8204 64.673C41.2752 64.673 41.695 64.3765 41.8311 63.9182C42.0494 63.1835 42.2846 62.4358 42.5303 61.6961C42.714 61.1433 42.4147 60.5463 41.8619 60.3627Z" fill="#F45959"/>
<path d="M62.0174 26.7679C61.5878 26.3745 60.9208 26.4038 60.5275 26.833C60.4128 26.9583 48.9757 39.5509 42.2033 56.4622C41.9868 57.0029 42.2496 57.6168 42.7903 57.8333C42.9188 57.8848 43.0514 57.9093 43.1821 57.9093C43.6006 57.9093 43.9964 57.6585 44.1615 57.2464C50.786 40.705 61.9708 28.3805 62.083 28.2579C62.4763 27.8282 62.4471 27.1613 62.0174 26.7679Z" fill="#F45959"/>
<path d="M48.6041 16.5026C48.1084 16.1966 47.4586 16.3504 47.1526 16.846C46.8998 17.2556 40.9173 27.119 37.2153 48.1756C37.1145 48.7494 37.4977 49.2961 38.0714 49.3971C38.1332 49.4079 38.1946 49.4133 38.2554 49.4133C38.7578 49.4133 39.2029 49.0528 39.2929 48.541C41.1863 37.7715 43.7109 30.0279 45.4955 25.4282C47.4258 20.4528 48.929 17.9846 48.948 17.9534C49.2533 17.4579 49.0996 16.8085 48.6041 16.5026Z" fill="#F45959"/>
<path d="M25.9227 59.5127C19.0845 52.2562 11.4385 47.4248 6.22852 44.6496C5.71467 44.3759 5.07567 44.5704 4.80173 45.0847C4.52794 45.5988 4.7227 46.2375 5.23683 46.5115C10.3074 49.2123 17.7456 53.9115 24.3875 60.9595C24.595 61.1797 24.8747 61.2908 25.1553 61.2908C25.4147 61.2908 25.6746 61.1956 25.8784 61.0036C26.3024 60.6041 26.322 59.9367 25.9227 59.5127Z" fill="#F45959"/>
<path d="M2.61501 42.8574C1.88024 42.5229 1.46539 42.3556 1.4481 42.3486C0.907393 42.1313 0.293845 42.3933 0.0764379 42.9336C-0.140828 43.4739 0.120876 44.0882 0.661158 44.3057C0.665095 44.3073 1.05491 44.4646 1.74088 44.7771C1.88263 44.8417 2.03113 44.8722 2.17738 44.8722C2.57802 44.8722 2.96094 44.6427 3.13785 44.2543C3.37916 43.7242 3.14502 43.0989 2.61501 42.8574Z" fill="#F45959"/>
<path d="M32.1909 63.3178C26.7488 44.9912 14.4139 30.2028 11.9964 27.4244C11.6139 26.985 10.9476 26.9387 10.5084 27.3211C10.069 27.7034 10.0227 28.3697 10.405 28.809C12.7723 31.5298 24.8508 46.0092 30.1687 63.9181C30.3048 64.3764 30.7246 64.6728 31.1793 64.6728C31.2788 64.6728 31.3799 64.6586 31.48 64.629C32.0384 64.4633 32.3567 63.8762 32.1909 63.3178Z" fill="#F45959"/>
<path d="M37.0522 66.925C35.7995 49.2602 32.5649 36.6177 30.072 29.1228C27.3533 20.9484 24.9483 17.0099 24.8473 16.8462C24.5413 16.3507 23.8914 16.1968 23.3958 16.5028C22.9002 16.8088 22.7464 17.4587 23.0524 17.9544C23.1475 18.1084 32.5836 33.7339 34.9477 67.0745C34.9871 67.6302 35.4502 68.0546 35.9988 68.0546C36.0238 68.0546 36.0491 68.0538 36.0746 68.0518C36.6556 68.0105 37.0934 67.5061 37.0522 66.925Z" fill="#F45959"/>
<path d="M6.69103 19.7274C4.86642 19.7274 3.38184 21.212 3.38184 23.0366C3.38184 24.8612 4.86642 26.3458 6.69103 26.3458C8.51564 26.3458 10.0002 24.8612 10.0002 23.0366C10.0002 21.2119 8.51564 19.7274 6.69103 19.7274ZM6.69089 24.2364C6.02939 24.2364 5.49107 23.6981 5.49107 23.0366C5.49107 22.375 6.02939 21.8368 6.69089 21.8368C7.35239 21.8368 7.8907 22.3751 7.8907 23.0366C7.8907 23.6981 7.35239 24.2364 6.69089 24.2364Z" fill="#F45959"/>
<path d="M51.2177 9.58203C49.7038 9.58203 48.4722 10.8136 48.4722 12.3276C48.4722 13.8416 49.7039 15.0732 51.2177 15.0732C52.7317 15.0732 53.9633 13.8414 53.9633 12.3276C53.9633 10.8138 52.7317 9.58203 51.2177 9.58203ZM51.2177 12.9636C50.8669 12.9636 50.5815 12.6782 50.5815 12.3275C50.5815 11.9767 50.867 11.6913 51.2177 11.6913C51.5686 11.6913 51.8539 11.9766 51.8539 12.3275C51.8539 12.6783 51.5686 12.9636 51.2177 12.9636Z" fill="#F45959"/>
<path d="M34.8727 12.9636C33.0479 12.9636 31.5635 14.4482 31.5635 16.2728C31.5635 18.0974 33.0479 19.582 34.8727 19.582C36.6974 19.582 38.1819 18.0974 38.1819 16.2728C38.1819 14.4482 36.6973 12.9636 34.8727 12.9636ZM34.8727 17.4726C34.2112 17.4726 33.6729 16.9343 33.6729 16.2728C33.6729 15.6113 34.211 15.073 34.8727 15.073C35.5343 15.073 36.0725 15.6113 36.0725 16.2728C36.0725 16.9343 35.5342 17.4726 34.8727 17.4726Z" fill="#F45959"/>
<path d="M8.94542 35.5087H8.87286V35.4362C8.87286 34.8537 8.40064 34.3815 7.81817 34.3815C7.2357 34.3815 6.76348 34.8537 6.76348 35.4362V35.5087H6.69092C6.10845 35.5087 5.63623 35.9809 5.63623 36.5634C5.63623 37.1459 6.10845 37.6181 6.69092 37.6181H6.76348V37.6908C6.76348 38.2734 7.2357 38.7455 7.81817 38.7455C8.40064 38.7455 8.87286 38.2733 8.87286 37.6908V37.6181H8.94542C9.52789 37.6181 10.0001 37.1459 10.0001 36.5634C10.0001 35.9809 9.52789 35.5087 8.94542 35.5087Z" fill="#F45959"/>
<path d="M41.6363 5.07281H41.5638V5.00025C41.5638 4.41778 41.0916 3.94556 40.5091 3.94556C39.9266 3.94556 39.4544 4.41778 39.4544 5.00025V5.07281H39.3818C38.7994 5.07281 38.3271 5.54503 38.3271 6.1275C38.3271 6.70997 38.7994 7.18219 39.3818 7.18219H39.4544V7.25475C39.4544 7.83722 39.9266 8.30944 40.5091 8.30944C41.0916 8.30944 41.5638 7.83722 41.5638 7.25475V7.18219H41.6363C42.2188 7.18219 42.691 6.70997 42.691 6.1275C42.691 5.54503 42.2188 5.07281 41.6363 5.07281Z" fill="#F45959"/>
<path d="M22.2731 11.2002L23.2183 10.2551C23.6302 9.84321 23.6302 9.17538 23.2183 8.76363C22.8064 8.35174 22.1386 8.35174 21.7268 8.76363L20.7817 9.70877L19.8365 8.76363C19.4246 8.35174 18.7568 8.35174 18.3451 8.76363C17.9332 9.17552 17.9332 9.84335 18.3451 10.2551L19.2902 11.2002L18.3451 12.1454C17.9332 12.5571 17.9332 13.225 18.3451 13.6369C18.5509 13.8427 18.8209 13.9458 19.0908 13.9458C19.3606 13.9458 19.6306 13.8429 19.8365 13.6369L20.7817 12.6917L21.7268 13.6369C21.9327 13.8427 22.2027 13.9458 22.4725 13.9458C22.7424 13.9458 23.0124 13.8429 23.2183 13.6369C23.6302 13.225 23.6302 12.5571 23.2183 12.1454L22.2731 11.2002Z" fill="#F45959"/>
<path d="M53.8371 26.9819L54.7822 26.0367C55.1941 25.6248 55.1941 24.957 54.7822 24.5452C54.3705 24.1334 53.7027 24.1334 53.2908 24.5452L52.3456 25.4904L51.4005 24.5452C50.9886 24.1334 50.3208 24.1334 49.909 24.5452C49.4971 24.9571 49.4971 25.625 49.909 26.0367L50.8542 26.9819L49.909 27.927C49.4971 28.3389 49.4971 29.0067 49.909 29.4185C50.1149 29.6245 50.3849 29.7274 50.6548 29.7274C50.9246 29.7274 51.1946 29.6245 51.4005 29.4185L52.3456 28.4733L53.2908 29.4185C53.4967 29.6243 53.7667 29.7274 54.0365 29.7274C54.3064 29.7274 54.5764 29.6245 54.7822 29.4185C55.1941 29.0066 55.1941 28.3387 54.7822 27.927L53.8371 26.9819Z" fill="#F45959"/>
<path d="M63.0543 37.7635H62.9817V37.6909C62.9817 37.1084 62.5095 36.6362 61.9271 36.6362C61.3446 36.6362 60.8724 37.1084 60.8724 37.6909V37.7635H60.7998C60.2173 37.7635 59.7451 38.2357 59.7451 38.8182C59.7451 39.4006 60.2173 39.8729 60.7998 39.8729H60.8724V39.9454C60.8724 40.5279 61.3446 41.0001 61.9271 41.0001C62.5095 41.0001 62.9817 40.5279 62.9817 39.9454V39.8729H63.0543C63.6368 39.8729 64.109 39.4006 64.109 38.8182C64.109 38.2357 63.6368 37.7635 63.0543 37.7635Z" fill="#F45959"/>
<path d="M67.1985 45.0847C66.9247 44.5706 66.2859 44.3758 65.7718 44.6496C60.5617 47.4249 52.9159 52.2563 46.0776 59.5127C45.6782 59.9367 45.6979 60.6041 46.1219 61.0037C46.3257 61.1956 46.5855 61.2908 46.845 61.2908C47.1254 61.2908 47.4052 61.1796 47.6128 60.9595C54.2545 53.9112 61.6929 49.2122 66.7634 46.5115C67.2776 46.2376 67.4723 45.5989 67.1985 45.0847Z" fill="#F45959"/>
<path d="M71.9238 42.9339C71.7066 42.3935 71.0923 42.1313 70.5518 42.3486C70.5345 42.3555 70.1196 42.5227 69.3849 42.8574C68.8548 43.0988 68.6208 43.7243 68.8622 44.2544C69.0391 44.6428 69.422 44.8723 69.8227 44.8723C69.9689 44.8723 70.1174 44.8418 70.2592 44.7772C70.9363 44.4688 71.3248 44.3115 71.3385 44.306C71.8789 44.0887 72.1409 43.4744 71.9238 42.9339Z" fill="#F45959"/>
<path d="M22.4729 29.8724H22.4615C21.8792 29.8724 21.4126 30.3447 21.4126 30.9271C21.4126 31.5096 21.8904 31.9818 22.4729 31.9818C23.0554 31.9818 23.5276 31.5096 23.5276 30.9271C23.5276 30.3447 23.0554 29.8724 22.4729 29.8724Z" fill="#F45959"/>
<path d="M7.81813 51.2905H7.80688C7.22441 51.2905 6.75781 51.7627 6.75781 52.3452C6.75781 52.9277 7.23566 53.3999 7.81813 53.3999C8.4006 53.3999 8.87282 52.9277 8.87282 52.3452C8.87282 51.7627 8.4006 51.2905 7.81813 51.2905Z" fill="#F45959"/>
<path d="M64.1926 23.109H64.1814C63.5989 23.109 63.1323 23.5812 63.1323 24.1637C63.1323 24.7462 63.6102 25.2184 64.1926 25.2184C64.7751 25.2184 65.2473 24.7462 65.2473 24.1637C65.2473 23.5812 64.7751 23.109 64.1926 23.109Z" fill="#F45959"/>
<path d="M38.2659 24.2363H38.2546C37.6722 24.2363 37.2056 24.7085 37.2056 25.291C37.2056 25.8735 37.6834 26.3457 38.2659 26.3457C38.8483 26.3457 39.3206 25.8735 39.3206 25.291C39.3206 24.7085 38.8483 24.2363 38.2659 24.2363Z" fill="#F45959"/>
<path d="M47.2727 35.5089H47.2615C46.679 35.5089 46.2124 35.9811 46.2124 36.5636C46.2124 37.1461 46.6902 37.6183 47.2727 37.6183C47.8552 37.6183 48.3274 37.1461 48.3274 36.5636C48.3274 35.9811 47.8552 35.5089 47.2727 35.5089Z" fill="#F45959"/>
</g>
<defs>
<clipPath id="clip0">
<rect width="72" height="72" fill="white"/>
</clipPath>
</defs>
</svg>
