<svg width="76" height="76" viewBox="0 0 76 76" fill="none" xmlns="http://www.w3.org/2000/svg">
<g clip-path="url(#clip0)">
<path d="M44.9808 9.14046C44.1825 8.94823 43.382 9.43882 43.1899 10.2356C42.9978 11.0326 43.4881 11.8344 44.2851 12.0265C56.3162 14.9268 64.7188 25.6075 64.7188 37.9999C64.7188 52.7325 52.7329 64.7185 38.0001 64.7185C23.2673 64.7185 11.2815 52.7325 11.2815 37.9999C11.2815 25.6079 19.6836 14.9273 31.7141 12.0267C32.5111 11.8344 33.0014 11.0326 32.8093 10.2358C32.6171 9.43882 31.8149 8.94883 31.0184 9.14061C24.6534 10.6753 18.8868 14.3546 14.7809 19.5008C10.5494 24.8043 8.31274 31.2012 8.31274 37.9999C8.31274 54.3695 21.6305 67.6872 38.0001 67.6872C54.3697 67.6872 67.6875 54.3696 67.6875 37.9999C67.6875 31.201 65.4509 24.804 61.2191 19.5003C57.113 14.3543 51.3461 10.675 44.9808 9.14046Z" fill="#086293"/>
<path d="M75.1051 34.4296L73.3685 31.1897L73.6581 27.1843C73.9366 24.6169 72.9125 22.1113 70.9152 20.4773L68.0325 18.1169L66.8986 14.701C66.2636 12.0893 64.28 9.9901 61.7064 9.21274L58.1483 8.13776L55.4232 4.98793C53.8109 3.09135 51.3705 2.10484 48.8947 2.34812L45.2016 2.7161L41.5713 0.894926C39.334 -0.297764 36.6666 -0.298804 34.4291 0.894778L31.1893 2.63119L27.184 2.34144C24.6156 2.06298 22.1109 3.08719 20.477 5.08441L18.1165 7.96705L14.7008 9.10096C12.0889 9.73598 9.98969 11.7195 9.21232 14.293L8.13749 17.8512L4.98766 20.5763C3.09123 22.1886 2.10412 24.6287 2.34771 27.1049L2.71568 30.798L0.894512 34.4283C-0.298327 36.6657 -0.299217 39.333 0.894215 41.5706L2.63078 44.8104L2.34103 48.8159C2.06271 51.3832 3.08678 53.8887 5.08399 55.5228L7.96664 57.8833L9.10055 61.2991C9.73541 63.9109 11.719 66.01 14.2927 66.7874L17.8508 67.8622L20.5759 71.0122C22.1884 72.9087 24.6278 73.8958 27.1045 73.652L30.7974 73.284L34.4274 75.1049C35.5465 75.7016 36.7732 76.0001 37.9999 76.0001C39.2257 76.0001 40.4515 75.7021 41.5699 75.1055L44.8099 73.3691L48.8151 73.6589C51.3824 73.9367 53.888 72.9131 55.5223 70.9159L57.8827 68.0332L61.2987 66.8995C63.9103 66.2645 66.0093 64.2809 66.7867 61.7073L67.8617 58.1493L71.0116 55.4241C72.9081 53.8118 73.8952 51.3718 73.6516 48.8954L73.2835 45.2026L75.1045 41.5723C76.2973 39.3347 76.2985 36.6673 75.1051 34.4296ZM72.4785 40.1869C72.472 40.1991 72.4656 40.2113 72.4595 40.2234L70.4369 44.2557C70.3109 44.5069 70.2588 44.7888 70.2865 45.0686L70.6973 49.1877C70.8454 50.6939 70.2441 52.1797 69.079 53.1704L65.594 56.1855C65.3814 56.3694 65.2256 56.6097 65.1444 56.8787L63.9449 60.8486C63.4667 62.4315 62.1678 63.6486 60.555 64.0246C60.5109 64.0348 60.4673 64.0471 60.4244 64.0614L56.5392 65.3508C56.2725 65.4395 56.0363 65.6018 55.8583 65.8193L53.225 69.0353C52.2249 70.2579 50.6884 70.8822 49.1162 70.7053C49.0966 70.703 49.0768 70.7012 49.0574 70.6998L44.5951 70.3771C44.3141 70.3569 44.0344 70.4165 43.7868 70.5492L40.1703 72.4875C38.8065 73.2149 37.1775 73.2119 35.8127 72.4791C35.8005 72.4727 35.7883 72.4663 35.7761 72.4602L31.744 70.4376C31.5368 70.3337 31.3088 70.28 31.0784 70.28C31.0294 70.28 30.9803 70.2824 30.9312 70.2873L26.812 70.6977C25.306 70.8464 23.82 70.2445 22.8293 69.0796L19.8143 65.5946C19.6305 65.382 19.39 65.226 19.1209 65.1448L15.151 63.9456C13.5679 63.4675 12.351 62.1685 11.975 60.5556C11.9648 60.5115 11.9525 60.468 11.9382 60.425L10.6487 56.5396C10.5603 56.2729 10.3979 56.0369 10.1804 55.8589L6.96454 53.2255C5.74202 52.2253 5.11769 50.6893 5.29463 49.1167C5.29685 49.0971 5.29863 49.0775 5.30012 49.0578L5.62282 44.5954C5.64316 44.3151 5.58334 44.0349 5.45063 43.7871L3.5122 40.1709C2.78486 38.8071 2.78797 37.1781 3.52051 35.8132C3.52704 35.8012 3.53327 35.789 3.53936 35.7769L5.56196 31.7446C5.68798 31.4934 5.74009 31.2115 5.71218 30.9319L5.30175 26.8125C5.15361 25.3063 5.75493 23.8204 6.92001 22.8297L10.405 19.8147C10.6176 19.6308 10.7734 19.3905 10.8548 19.1215L12.0541 15.1514C12.5323 13.5685 13.8312 12.3516 15.4441 11.9754C15.4882 11.9652 15.5317 11.9529 15.5748 11.9386L19.4598 10.649C19.7266 10.5605 19.9626 10.3982 20.1405 10.1807L22.7741 6.96466C23.7743 5.74228 25.3107 5.11825 26.8828 5.29489C26.9024 5.29712 26.922 5.2989 26.9416 5.30039L31.4039 5.62309C31.6834 5.64298 31.9644 5.5836 32.2122 5.4509L35.8285 3.51261C37.1922 2.78527 38.8213 2.78824 40.1861 3.52092C40.1981 3.52731 40.2102 3.53369 40.2226 3.53978L44.2549 5.56238C44.506 5.6884 44.7879 5.74065 45.0675 5.71259L49.1868 5.30217C50.6929 5.15373 52.1789 5.75534 53.1695 6.92043L56.1846 10.4054C56.3683 10.618 56.6088 10.7738 56.8779 10.8552L60.8479 12.0546C62.4308 12.5327 63.6477 13.8318 64.0238 15.4446C64.0341 15.4886 64.0464 15.5321 64.0606 15.5752L65.3503 19.4602C65.4389 19.727 65.6011 19.963 65.8186 20.141L69.0346 22.7744C70.2571 23.7745 70.8813 25.3104 70.7044 26.8831C70.7022 26.9027 70.7004 26.9223 70.699 26.942L70.3763 31.4045C70.356 31.6847 70.4158 31.965 70.5484 32.2127L72.4868 35.8291C73.2143 37.1932 73.2112 38.8222 72.4785 40.1869Z" fill="#086293"/>
<path d="M31.5582 29.9125C31.3201 29.4107 30.8102 29.063 30.218 29.063H22.375C21.5552 29.063 20.8906 29.7275 20.8906 30.5473V53.0156C20.8906 53.8354 21.5552 54.5 22.375 54.5H30.218C30.8332 54.5 31.3609 54.1258 31.586 53.5925C32.7175 53.7513 33.8832 54.0731 35.0968 54.4091C36.9214 54.9143 38.8079 55.4366 40.768 55.4366H49.3371C51.9861 55.4366 54.1326 54.0323 55.0792 51.6797C55.5403 50.5335 55.621 49.3439 55.3516 48.348C55.8444 47.9049 56.2609 47.3534 56.5759 46.7093C57.2143 45.4042 57.3418 43.9366 56.9799 42.7006C57.6544 42.049 58.1576 41.1885 58.4207 40.1739C58.6666 39.2254 58.6623 38.2895 58.4435 37.4786C59.7824 36.691 60.6842 35.26 60.6842 33.6477C60.6842 32.3832 60.1918 31.218 59.2976 30.3668C58.4391 29.5495 57.2955 29.0993 56.0777 29.0993L43.9993 29.0996C43.0816 27.9485 42.7961 26.3863 43.3186 25.1289C44.3909 22.5482 44.3244 20.3637 43.1035 18.046C42.1971 16.3257 39.7601 14.6131 37.7118 14.9055C36.4737 15.0824 35.5779 15.9575 35.3151 17.2465C35.2378 17.6257 35.2166 18.0354 35.1921 18.5098C35.1315 19.6801 35.0484 21.2829 34.0381 23.2184C33.3534 24.5304 33.1249 25.8799 32.9234 27.0705C32.6347 28.776 32.4947 29.5976 31.5582 29.9125ZM23.8594 32.0317H28.7336V51.5313H23.8594V32.0317ZM35.8505 27.566C36.0235 26.5446 36.2022 25.4883 36.6701 24.5922C37.9797 22.083 38.0906 19.9424 38.157 18.6635C38.1746 18.3228 38.1912 18.001 38.2242 17.8392C38.2243 17.8382 38.2246 17.837 38.2249 17.8359C38.7399 17.8431 40.0071 18.5382 40.4769 19.43C41.29 20.9731 41.317 22.2092 40.5772 23.9901C39.91 25.5959 39.9602 27.4592 40.6201 29.1159C39.898 29.2164 39.3416 29.8347 39.3416 30.5844C39.3416 31.4041 40.0063 32.0688 40.826 32.0688L56.0777 32.0684C56.53 32.0684 56.9467 32.2278 57.2507 32.5172C57.4628 32.719 57.7154 33.0791 57.7154 33.6479C57.7154 34.4441 56.9856 35.1325 56.1215 35.1514L52.3009 35.2345C51.4814 35.2523 50.8314 35.9311 50.8492 36.7508C50.8669 37.5595 51.5277 38.203 52.3327 38.203C52.3435 38.203 52.3545 38.203 52.3656 38.2027L55.5475 38.1335C55.6513 38.4275 55.7053 38.9885 55.4868 39.6311C55.3008 40.1776 54.8016 41.0944 53.5459 41.0944C52.7262 41.0944 52.0615 41.7589 52.0615 42.5787C52.0615 43.3985 52.7262 44.0631 53.5459 44.0631C53.7709 44.0631 53.9918 44.0491 54.2079 44.0217C54.2263 44.4418 54.1399 44.9338 53.9094 45.405C53.6368 45.9619 53.0982 46.626 52.0796 46.626C51.2599 46.626 50.5952 47.2906 50.5952 48.1104C50.5952 48.9302 51.2599 49.5947 52.0796 49.5947C52.2332 49.5947 52.3852 49.5879 52.5353 49.5744C52.5314 49.8593 52.4735 50.2154 52.3116 50.6049C52.0789 51.1651 51.3229 52.4679 49.3374 52.4679H40.7683C39.2116 52.4679 37.5978 52.0211 35.8893 51.548C34.5298 51.1716 33.1358 50.786 31.7026 50.6138V32.9167C35.0445 32.3111 35.5053 29.6056 35.8505 27.566Z" fill="#086293"/>
<path d="M38.0002 11.2814C38.82 11.2814 39.4846 10.6168 39.4846 9.79703C39.4846 8.97721 38.82 8.31265 38.0002 8.31265H37.9992C37.1793 8.31265 36.5154 8.97721 36.5154 9.79703C36.5154 10.6168 37.1804 11.2814 38.0002 11.2814Z" fill="#086293"/>
</g>
<defs>
<clipPath id="clip0">
<rect width="76" height="76" fill="white"/>
</clipPath>
</defs>
</svg>
