<svg width="76" height="76" viewBox="0 0 76 76" fill="none" xmlns="http://www.w3.org/2000/svg">
<g clip-path="url(#clip0)">
<path d="M16.3034 73.6559L14.0687 70.5081C13.5943 69.8396 12.6676 69.6824 11.999 70.1569C11.3306 70.6315 11.1733 71.558 11.648 72.2266L13.8827 75.3745C14.1721 75.7822 14.6296 75.9997 15.0944 75.9997C15.3915 75.9997 15.6915 75.9106 15.9523 75.7255C16.6207 75.251 16.7781 74.3244 16.3034 73.6559Z" fill="#086293"/>
<path d="M33.429 74.2104L30.997 62.6193C29.8144 56.9829 26.531 52.1091 21.7519 48.8956L16.5594 45.404C14.4773 44.0043 11.6787 44.3053 9.93839 46.0799V28.1938C9.93839 25.8461 8.3378 23.8514 6.04593 23.3427C4.56676 23.0141 3.04112 23.3701 1.85942 24.3181C0.677859 25.2662 0.000244141 26.6789 0.000244141 28.1938V51.2093C0.000244141 54.2245 0.922928 57.1179 2.6684 59.5768L5.31547 63.3057C5.60492 63.7134 6.06241 63.9309 6.52716 63.9309C6.82433 63.9309 7.12432 63.8418 7.38513 63.6567C8.05354 63.1822 8.21088 62.2556 7.73618 61.5871L5.08911 57.8582C3.70211 55.9043 2.96898 53.6052 2.96898 51.2091V28.1938C2.96898 27.584 3.24181 27.0154 3.7174 26.6336C4.19284 26.252 4.80693 26.1087 5.40275 26.241C6.32529 26.4457 6.96965 27.2487 6.96965 28.1938V46.4539C6.96965 49.0388 7.91935 51.5015 9.64464 53.4176C9.71856 53.5062 9.79456 53.5939 9.87486 53.6789C10.8606 54.7235 12.0196 55.9543 13.1112 57.1145L14.6394 58.7409C14.6443 58.7461 14.6496 58.7506 14.6547 58.7556C15.962 60.146 16.9261 61.1728 16.9462 61.1942C17.5072 61.7916 18.4468 61.8213 19.0444 61.2601C19.642 60.6988 19.6715 59.7595 19.1102 59.1619C19.0831 59.1331 17.3455 57.2828 15.3612 55.1737L11.9577 51.5514C11.9491 51.5422 11.9413 51.5325 11.9326 51.5233C11.1346 50.5689 11.1446 49.185 11.981 48.2407C12.721 47.4056 13.9774 47.2452 14.9032 47.8676L20.0953 51.3592C24.229 54.1387 27.0688 58.354 28.0915 63.2289L30.5236 74.8202C30.6704 75.5198 31.2875 76 31.9749 76C32.0758 76 32.1784 75.9896 32.2811 75.9681C33.0834 75.7998 33.5973 75.0127 33.429 74.2104Z" fill="#086293"/>
<path d="M10.9975 66.1818L10.988 66.1684C10.5115 65.5011 9.58463 65.3461 8.91741 65.8223C8.25018 66.2985 8.09521 67.2254 8.57125 67.8927L8.58075 67.906C8.8705 68.312 9.32694 68.5284 9.79036 68.5284C10.0887 68.5284 10.3899 68.4388 10.6513 68.2522C11.3184 67.776 11.4735 66.849 10.9975 66.1818Z" fill="#086293"/>
<path d="M74.1406 24.3183C72.959 23.3702 71.4326 23.0149 69.9542 23.3429C67.6623 23.8514 66.0616 25.8463 66.0616 28.194V46.08C64.3215 44.3055 61.5225 44.0044 59.4405 45.4042L54.2481 48.8956C49.4689 52.1089 46.1856 56.9829 45.003 62.6193L42.571 74.2106C42.4027 75.0129 42.9166 75.7998 43.7189 75.9681C43.8216 75.9896 43.9243 76 44.0251 76C44.7126 76 45.3295 75.5197 45.4763 74.8201L47.9083 63.2288C48.9312 58.354 51.7708 54.1385 55.9045 51.3592L61.097 47.8678C62.0225 47.2453 63.2788 47.4056 64.0191 48.2407C64.8545 49.1838 64.8656 50.5655 64.0706 51.5199C64.0611 51.5303 64.052 51.541 64.0425 51.5514C64.0425 51.5514 56.9168 59.1334 56.89 59.1619C56.3287 59.7595 56.3583 60.6988 56.9557 61.2601C57.5533 61.8213 58.4926 61.7918 59.0539 61.1942C59.0741 61.1728 65.1395 54.7236 66.1253 53.6791C66.2056 53.594 66.2816 53.5063 66.3555 53.4177C68.0806 51.5017 69.0305 49.039 69.0305 46.4541V28.1938C69.0305 27.2487 69.6748 26.4457 70.5975 26.241C71.1932 26.1089 71.8071 26.2521 72.2829 26.6336C72.7585 27.0152 73.0313 27.5839 73.0313 28.1938V51.2093C73.0313 53.6053 72.2982 55.9045 70.9112 57.8583L59.6966 73.656C59.222 74.3244 59.3792 75.2511 60.0477 75.7257C60.3086 75.9108 60.6084 75.9999 60.9056 75.9999C61.3702 75.9999 61.8279 75.7822 62.1173 75.3746L73.3319 59.5769C75.0773 57.1181 76 54.2246 76 51.2094V28.1938C75.9996 26.6789 75.3221 25.2663 74.1406 24.3183Z" fill="#086293"/>
<path d="M56.8006 28.4494L54.1598 27.8186V27.3451C55.8761 26.1427 57.0016 24.1517 57.0016 21.9017V18.4685C57.0016 14.8052 54.0214 11.8251 50.3581 11.8251C48.7142 11.8251 47.209 12.4265 46.0478 13.4193C44.7549 10.2531 41.644 8.01559 38.0186 8.01559C34.3887 8.01559 31.2745 10.2589 29.9846 13.4312C28.8216 12.4313 27.3109 11.8248 25.6603 11.8248C21.997 11.8248 19.0169 14.805 19.0169 18.4682V18.6964V21.9014C19.0169 24.1514 20.1423 26.1424 21.8587 27.3448V27.8183L19.2179 28.4491C16.0648 29.2024 13.8625 31.9926 13.8625 35.2345V38.0067C13.8625 38.8265 14.5272 39.4911 15.3469 39.4911H22.1679C22.1574 39.6711 22.1501 39.8521 22.1501 40.0345V45.372C22.1501 46.1918 22.8148 46.8563 23.6344 46.8563H32.557C33.3767 46.8563 34.0414 46.1918 34.0414 45.372C34.0414 44.5522 33.3767 43.8876 32.557 43.8876H31.0233V40.8202C31.0233 40.0003 30.3586 39.3358 29.539 39.3358C28.7193 39.3358 28.0546 40.0003 28.0546 40.8202V43.8879H25.119V40.0348C25.119 37.1719 27.0635 34.7065 29.8473 34.0394L33.9207 33.0633L36.6467 39.2653C36.8836 39.8043 37.4168 40.1523 38.0054 40.1523H38.0055C38.5942 40.1523 39.1274 39.8044 39.3643 39.2654L42.0875 33.0726L46.148 34.0427C48.9345 34.7084 50.8806 37.1741 50.8806 40.0391V43.8879H47.945V40.8202C47.945 40.0003 47.2803 39.3358 46.4606 39.3358C45.641 39.3358 44.9763 40.0003 44.9763 40.8202V43.8879H43.294C42.4744 43.8879 41.8097 44.5525 41.8097 45.3723C41.8097 46.1921 42.4744 46.8566 43.294 46.8566H52.3652C53.1848 46.8566 53.8495 46.1921 53.8495 45.3723V40.0391C53.8495 39.8552 53.8421 39.6729 53.8314 39.4914H60.6717C61.4913 39.4914 62.156 38.8268 62.156 38.007V35.2348C62.156 31.9929 59.9538 29.2026 56.8006 28.4494ZM50.3581 14.7935C52.303 14.7935 53.8995 16.3122 54.0248 18.2258H51.9611C50.2262 18.2258 48.5189 17.8081 46.9842 17.0128C47.5487 15.7083 48.8487 14.7935 50.3581 14.7935ZM46.6834 21.6847C46.6852 21.6124 46.6889 21.5404 46.6889 21.4677V20.1457C48.3545 20.8351 50.1457 21.1946 51.9611 21.1946H54.0328V21.9016C54.0328 23.9277 52.3844 25.5763 50.3581 25.5763C48.3318 25.5763 46.6834 23.9277 46.6834 21.9014V21.6847ZM32.3171 16.6858C32.3171 13.5421 34.8747 10.9843 38.0186 10.9843C40.8542 10.9843 43.2127 13.0651 43.6482 15.7797L41.1493 14.3115C40.5242 13.9443 39.7253 14.0822 39.2597 14.6381C38.0385 16.0955 36.2476 16.9313 34.3461 16.9313H32.3171V16.6858ZM25.6605 14.7935C27.1699 14.7935 28.4698 15.7085 29.0344 17.0127C27.4996 17.808 25.7924 18.2257 24.0575 18.2257H21.9938C22.1191 16.3122 23.7158 14.7935 25.6605 14.7935ZM21.9858 21.1944H24.0575C25.8748 21.1944 27.6679 20.8342 29.3352 20.1433V21.9013C29.3352 23.9274 27.6868 25.576 25.6605 25.576C23.6342 25.576 21.9858 23.9277 21.9858 21.9014V21.1944ZM29.1556 31.1523C26.2352 31.852 23.9401 33.8882 22.8477 36.5225H16.8313V35.2346C16.8313 33.3723 18.0963 31.7694 19.9076 31.3367L23.688 30.4336C24.3561 30.274 24.8276 29.6768 24.8276 28.9899V28.4908C25.1007 28.5251 25.3783 28.5449 25.6605 28.5449C25.9406 28.5449 26.2162 28.5254 26.4873 28.4916V28.9151C26.4862 28.9372 26.4858 28.9593 26.4856 28.9814C26.4853 29.4684 26.7248 29.9455 27.1644 30.2299C27.3301 30.3372 27.5091 30.407 27.6918 30.4419L29.9061 30.9724L29.1556 31.1523ZM33.2961 28.848C32.9147 28.6798 32.5172 28.5453 32.1075 28.4472L29.4558 27.8117V27.3492C29.9344 27.0148 30.3671 26.6195 30.7423 26.1739C31.4053 27.1951 32.2763 28.0684 33.2961 28.7335V28.848ZM39.743 31.029L38.006 34.9796L36.2649 31.0189V29.9596C36.8315 30.0764 37.418 30.138 38.0186 30.138C38.6089 30.138 39.1854 30.0782 39.743 29.9653V31.029ZM38.0186 27.1692C34.8747 27.1693 32.3171 24.6116 32.3171 21.4677V19.8999H34.3461C36.7 19.8999 38.9381 19.0246 40.6535 17.4633L43.7145 19.2618V21.6849C43.6 24.7283 41.0897 27.1692 38.0186 27.1692ZM42.7117 28.8527V28.7522C43.7398 28.0875 44.6185 27.2121 45.2866 26.1864C45.6594 26.6269 46.0883 27.0179 46.5623 27.3492V27.8117L43.9105 28.4472C43.4972 28.5464 43.0963 28.6825 42.7117 28.8527ZM59.1872 36.5225H53.1502C52.0569 33.8882 49.7601 31.8532 46.838 31.1551L46.0927 30.9772L48.3188 30.4437C48.504 30.4092 48.686 30.3386 48.8539 30.2299C49.2928 29.946 49.5315 29.4689 49.5315 28.9819C49.5315 28.9703 49.5313 28.9586 49.531 28.947V28.4916C49.8022 28.5254 50.0777 28.5449 50.3578 28.5449C50.64 28.5449 50.9176 28.5251 51.1907 28.4908V28.9899C51.1907 29.6768 51.6622 30.274 52.3303 30.4336L56.1107 31.3367C57.922 31.7695 59.1872 33.3723 59.1872 35.2346V36.5225Z" fill="#086293"/>
<path d="M39.0492 44.3218C38.7717 44.0457 38.3903 43.8883 37.9999 43.8883C37.6079 43.8883 37.2265 44.0457 36.9504 44.3218C36.6728 44.5993 36.5155 44.9808 36.5155 45.3727C36.5155 45.7631 36.6728 46.1446 36.9504 46.4222C37.2265 46.6982 37.608 46.8571 37.9999 46.8571C38.3903 46.8571 38.7717 46.6982 39.0492 46.4222C39.3253 46.1446 39.4842 45.7631 39.4842 45.3727C39.4842 44.9808 39.3254 44.5993 39.0492 44.3218Z" fill="#086293"/>
<path d="M37.9988 0C37.1791 0 36.5144 0.664552 36.5144 1.48437V3.70543C36.5144 4.52525 37.1791 5.1898 37.9988 5.1898C38.8184 5.1898 39.4832 4.52525 39.4832 3.70543V1.48437C39.4832 0.664552 38.8186 0 37.9988 0Z" fill="#086293"/>
<path d="M32.531 4.84186L30.9739 3.28624C30.394 2.70675 29.4542 2.70719 28.8747 3.28713C28.2952 3.86708 28.2958 4.80698 28.8757 5.38633L30.433 6.94195C30.7227 7.23155 31.1024 7.37628 31.482 7.37628C31.8621 7.37628 32.2421 7.2311 32.532 6.94106C33.1112 6.36112 33.1109 5.42121 32.531 4.84186Z" fill="#086293"/>
<path d="M47.0874 3.32426C46.5075 2.74491 45.5674 2.7452 44.9882 3.32529L43.4431 4.87186C42.8638 5.4518 42.8642 6.3917 43.4442 6.97105C43.7341 7.26065 44.1136 7.40538 44.4933 7.40538C44.8735 7.40538 45.2536 7.26021 45.5434 6.97002L47.0884 5.42345C47.6678 4.84351 47.6673 3.9036 47.0874 3.32426Z" fill="#086293"/>
</g>
<defs>
<clipPath id="clip0">
<rect width="76" height="76" fill="white"/>
</clipPath>
</defs>
</svg>
