<svg width="83" height="83" viewBox="0 0 83 83" fill="none" xmlns="http://www.w3.org/2000/svg">
<path d="M76.5156 46.6875C77.2851 46.6875 78.0373 46.4593 78.6771 46.0318C79.3169 45.6043 79.8156 44.9967 80.1101 44.2858C80.4046 43.5748 80.4816 42.7926 80.3315 42.0379C80.1814 41.2831 79.8108 40.5899 79.2667 40.0458C78.7226 39.5017 78.0294 39.1311 77.2746 38.981C76.5199 38.8309 75.7377 38.9079 75.0267 39.2024C74.3158 39.4969 73.7082 39.9956 73.2807 40.6354C72.8532 41.2752 72.625 42.0274 72.625 42.7969C72.6262 43.8284 73.0364 44.8173 73.7658 45.5467C74.4952 46.2761 75.4841 46.6863 76.5156 46.6875ZM76.5156 41.5C76.7721 41.5 77.0229 41.5761 77.2361 41.7186C77.4494 41.8611 77.6156 42.0636 77.7138 42.3006C77.8119 42.5376 77.8376 42.7983 77.7876 43.0499C77.7375 43.3015 77.614 43.5325 77.4327 43.7139C77.2513 43.8953 77.0202 44.0188 76.7686 44.0688C76.5171 44.1189 76.2563 44.0932 76.0193 43.995C75.7824 43.8969 75.5798 43.7307 75.4373 43.5174C75.2948 43.3041 75.2187 43.0534 75.2187 42.7969C75.2191 42.453 75.3559 42.1234 75.599 41.8803C75.8421 41.6371 76.1718 41.5004 76.5156 41.5Z" fill="#086293"/>
<path d="M66.1406 38.9062C66.9101 38.9062 67.6623 38.6781 68.3021 38.2506C68.9419 37.8231 69.4406 37.2154 69.7351 36.5045C70.0296 35.7936 70.1066 35.0113 69.9565 34.2566C69.8064 33.5019 69.4358 32.8087 68.8917 32.2645C68.3476 31.7204 67.6544 31.3499 66.8996 31.1998C66.1449 31.0496 65.3627 31.1267 64.6517 31.4212C63.9408 31.7156 63.3332 32.2143 62.9057 32.8541C62.4782 33.4939 62.25 34.2461 62.25 35.0156C62.2512 36.0471 62.6614 37.0361 63.3908 37.7654C64.1202 38.4948 65.1091 38.9051 66.1406 38.9062ZM66.1406 33.7188C66.3971 33.7188 66.6479 33.7948 66.8611 33.9373C67.0744 34.0798 67.2406 34.2824 67.3388 34.5193C67.4369 34.7563 67.4626 35.0171 67.4126 35.2686C67.3625 35.5202 67.239 35.7513 67.0577 35.9327C66.8763 36.114 66.6452 36.2375 66.3936 36.2876C66.1421 36.3376 65.8813 36.3119 65.6443 36.2138C65.4074 36.1156 65.2048 35.9494 65.0623 35.7361C64.9198 35.5229 64.8437 35.2721 64.8437 35.0156C64.8441 34.6718 64.9809 34.3422 65.224 34.099C65.4671 33.8559 65.7968 33.7191 66.1406 33.7188Z" fill="#086293"/>
<path d="M66.1406 46.6875C66.8569 46.6875 67.4375 46.1069 67.4375 45.3906C67.4375 44.6744 66.8569 44.0938 66.1406 44.0938C65.4244 44.0938 64.8438 44.6744 64.8438 45.3906C64.8438 46.1069 65.4244 46.6875 66.1406 46.6875Z" fill="#086293"/>
<path d="M76.5156 33.7188C77.2319 33.7188 77.8125 33.1381 77.8125 32.4219C77.8125 31.7056 77.2319 31.125 76.5156 31.125C75.7994 31.125 75.2188 31.7056 75.2188 32.4219C75.2188 33.1381 75.7994 33.7188 76.5156 33.7188Z" fill="#086293"/>
<path d="M77.6727 64.8438H77.8124C78.1564 64.8438 78.4863 64.7071 78.7295 64.4639C78.9727 64.2207 79.1093 63.8908 79.1093 63.5469V55.7656C79.1093 55.4217 78.9727 55.0918 78.7295 54.8486C78.4863 54.6054 78.1564 54.4688 77.8124 54.4688H75.2187V51.875H76.5156C76.8595 51.875 77.1894 51.7384 77.4326 51.4952C77.6758 51.2519 77.8124 50.9221 77.8124 50.5781C77.8124 50.2342 77.6758 49.9043 77.4326 49.6611C77.1894 49.4179 76.8595 49.2812 76.5156 49.2812H66.1406C65.7966 49.2812 65.4668 49.4179 65.2235 49.6611C64.9803 49.9043 64.8437 50.2342 64.8437 50.5781C64.8437 50.9221 64.9803 51.2519 65.2235 51.4952C65.4668 51.7384 65.7966 51.875 66.1406 51.875H67.4374V55.4626C66.9514 55.8978 66.5822 56.4479 66.3636 57.0625H59.0935L51.8749 45.0314V37.6094C51.8731 36.1151 51.3561 34.6672 50.4112 33.5096C49.4662 32.352 48.1511 31.5557 46.6874 31.2547V19.4531C46.6874 14.9817 44.9112 10.6935 41.7494 7.53175C38.5877 4.37 34.2995 2.59375 29.8281 2.59375C25.3567 2.59375 21.0684 4.37 17.9067 7.53175C14.7449 10.6935 12.9687 14.9817 12.9687 19.4531V31.2547C11.505 31.5557 10.1899 32.352 9.24496 33.5096C8.30002 34.6672 7.78305 36.1151 7.78119 37.6094V45.2911L2.60877 78.9126C2.5804 79.0974 2.59232 79.2861 2.6437 79.4658C2.69508 79.6456 2.78471 79.8121 2.90645 79.9539C3.0282 80.0958 3.17917 80.2097 3.34903 80.2878C3.51889 80.3658 3.70363 80.4062 3.89057 80.4062H45.3906C45.7345 80.4062 46.0644 80.2696 46.3076 80.0264C46.5508 79.7832 46.6874 79.4533 46.6874 79.1094V63.8531L49.4182 69.3144C49.5259 69.5298 49.6914 69.711 49.8963 69.8376C50.1012 69.9642 50.3372 70.0312 50.5781 70.0312H62.3441C62.1209 71.5679 62.2955 73.1361 62.8513 74.586C63.4071 76.0359 64.3255 77.319 65.5188 78.3126C66.712 79.3063 68.1402 79.9772 69.6667 80.2614C71.1933 80.5455 72.7672 80.4333 74.238 79.9356C75.7089 79.4378 77.0274 78.5711 78.0677 77.4183C79.1079 76.2655 79.8351 74.8651 80.1797 73.3511C80.5243 71.837 80.4747 70.2599 80.0358 68.7704C79.5969 67.281 78.7833 65.929 77.6727 64.8438ZM76.5156 62.25H70.0312C69.6874 62.2496 69.3577 62.1129 69.1146 61.8697C68.8715 61.6266 68.7347 61.297 68.7343 60.9531V58.3594C68.7347 58.0155 68.8715 57.6859 69.1146 57.4428C69.3577 57.1996 69.6874 57.0629 70.0312 57.0625H76.5156V62.25ZM70.0312 51.875H72.6249V54.4688H70.0312V51.875ZM49.2812 37.6094V44.0938H35.0156V40.2796C36.7819 39.4011 38.2972 38.09 39.4206 36.4684C40.544 34.8468 41.2389 32.9674 41.4408 31.005C42.4032 30.8181 43.3105 30.4144 44.0937 29.8246V32.4219C44.0937 32.7658 44.2303 33.0957 44.4735 33.3389C44.7168 33.5821 45.0466 33.7188 45.3906 33.7188C46.4221 33.72 47.411 34.1302 48.1403 34.8596C48.8697 35.589 49.28 36.5779 49.2812 37.6094ZM22.8249 48.2438L20.7499 46.6875H25.136L28.5312 53.4781V59.6562L23.3437 52.7395V49.2812C23.3437 49.0799 23.2968 48.8814 23.2068 48.7013C23.1167 48.5212 22.986 48.3646 22.8249 48.2438ZM20.7499 20.75H38.9062V27.4326L33.1534 28.3915L32.2848 26.6543C32.1771 26.4389 32.0116 26.2578 31.8067 26.1312C31.6018 26.0046 31.3658 25.9375 31.1249 25.9375H28.5312C28.2903 25.9375 28.0542 26.0045 27.8493 26.1311C27.6444 26.2578 27.4789 26.4389 27.3711 26.6543L26.5026 28.3915L20.7499 27.4326V20.75ZM41.4999 20.9731C42.2581 21.2415 42.9145 21.7383 43.3787 22.3951C43.8429 23.0518 44.0921 23.8363 44.0921 24.6406C44.0921 25.4449 43.8429 26.2294 43.3787 26.8862C42.9145 27.543 42.2581 28.0398 41.4999 28.3082V20.9731ZM24.9466 18.1562L34.5716 13.3437L37.7799 18.1562H24.9466ZM18.1562 28.3082C17.398 28.0398 16.7417 27.543 16.2775 26.8862C15.8133 26.2294 15.564 25.4449 15.564 24.6406C15.564 23.8363 15.8133 23.0518 16.2775 22.3951C16.7417 21.7383 17.398 21.2415 18.1562 20.9731V28.3082ZM27.021 31.1075C27.2946 31.1531 27.5756 31.1098 27.8227 30.9839C28.0699 30.858 28.2702 30.6562 28.3942 30.4082L29.3327 28.5312H30.3233L31.2618 30.4082C31.3859 30.6561 31.5862 30.8578 31.8333 30.9836C32.0804 31.1095 32.3613 31.1529 32.6348 31.1075L38.9002 30.0632C38.8402 32.4294 37.858 34.6786 36.1632 36.3309C34.4684 37.9833 32.1951 38.9081 29.8281 38.9081C27.4611 38.9081 25.1877 37.9833 23.4929 36.3309C21.7981 34.6786 20.816 32.4294 20.7559 30.0632L27.021 31.1075ZM29.8281 41.5C30.7009 41.4993 31.571 41.4007 32.4218 41.2059V45.0844L29.8281 50.2719L27.2343 45.0844V41.2059C28.0852 41.4007 28.9552 41.4993 29.8281 41.5ZM31.1249 53.4781L34.5202 46.6875H38.9062L36.8312 48.2438C36.6701 48.3646 36.5394 48.5212 36.4494 48.7013C36.3593 48.8814 36.3124 49.0799 36.3124 49.2812V52.7395L31.1249 59.6562V53.4781ZM29.8281 5.1875C33.6102 5.19179 37.2363 6.69615 39.9106 9.37054C42.585 12.0449 44.0894 15.671 44.0937 19.4531V19.4567C43.1694 18.7601 42.0747 18.3252 40.9245 18.1974L36.0946 10.9524C35.9192 10.6895 35.6539 10.4996 35.3484 10.4185C35.0429 10.3374 34.7182 10.3706 34.4355 10.512L19.1306 18.1645C17.8385 18.2276 16.5953 18.6778 15.5624 19.4567V19.4531C15.5667 15.671 17.0711 12.0449 19.7455 9.37054C22.4199 6.69615 26.0459 5.19179 29.8281 5.1875ZM14.2656 33.7188C14.6095 33.7188 14.9394 33.5821 15.1826 33.3389C15.4258 33.0957 15.5624 32.7658 15.5624 32.4219V29.8246C16.3456 30.4144 17.2529 30.8181 18.2154 31.005C18.4172 32.9674 19.1121 34.8468 20.2355 36.4684C21.3589 38.09 22.8743 39.4011 24.6406 40.2796V44.0938H10.3749V37.6094C10.3761 36.5779 10.7864 35.589 11.5158 34.8596C12.2452 34.1302 13.2341 33.72 14.2656 33.7188ZM10.1906 46.6875H16.427L20.7499 49.9297V53.1719C20.7499 53.4525 20.841 53.7255 21.0093 53.95L28.5312 63.9791V77.8125H15.5624V58.3594C15.5624 58.0154 15.4258 57.6856 15.1826 57.4423C14.9394 57.1991 14.6095 57.0625 14.2656 57.0625C13.9216 57.0625 13.5918 57.1991 13.3485 57.4423C13.1053 57.6856 12.9687 58.0154 12.9687 58.3594V77.8125H5.40224L10.1906 46.6875ZM51.3795 67.4375L46.5505 57.7793C46.4198 57.5181 46.2047 57.3086 45.9401 57.1848C45.6755 57.061 45.3769 57.0302 45.0926 57.0973C44.8083 57.1644 44.555 57.3256 44.3737 57.5546C44.1924 57.7837 44.0937 58.0672 44.0937 58.3594V77.8125H31.1249V63.9791L38.6468 53.95C38.8152 53.7255 38.9062 53.4525 38.9062 53.1719V49.9297L43.2292 46.6875H49.8432L57.2466 59.0266C57.3619 59.2187 57.525 59.3777 57.72 59.4881C57.915 59.5984 58.1353 59.6564 58.3593 59.6562H66.1406V60.9531C66.1399 61.8277 66.4356 62.6767 66.9793 63.3617C65.3 64.2831 63.9527 65.7088 63.1276 67.4375H51.3795ZM71.3281 77.8125C70.0456 77.8125 68.7919 77.4322 67.7255 76.7197C66.6592 76.0072 65.8281 74.9945 65.3373 73.8096C64.8465 72.6247 64.7181 71.3209 64.9683 70.0631C65.2185 68.8052 65.8361 67.6498 66.7429 66.743C67.6498 65.8361 68.8052 65.2185 70.063 64.9683C71.3209 64.7181 72.6247 64.8466 73.8095 65.3373C74.9944 65.8281 76.0071 66.6592 76.7196 67.7256C77.4321 68.7919 77.8124 70.0456 77.8124 71.3281C77.8105 73.0473 77.1267 74.6955 75.9111 75.9111C74.6954 77.1268 73.0472 77.8106 71.3281 77.8125Z" fill="#086293"/>
</svg>
