<svg width="73" height="73" viewBox="0 0 73 73" fill="none" xmlns="http://www.w3.org/2000/svg">
<path d="M71.9307 66.2518H67.5264V49.5687C67.5264 48.9782 67.0476 48.4994 66.4571 48.4994C65.8665 48.4994 65.3877 48.9782 65.3877 49.5687V66.2518H56.0047V29.5037H65.3877V44.5785C65.3877 45.169 65.8665 45.6478 66.4571 45.6478C67.0476 45.6478 67.5264 45.169 67.5264 44.5785V28.4344C67.5264 27.8438 67.0476 27.365 66.4571 27.365H54.9353C54.3448 27.365 53.866 27.8438 53.866 28.4344V66.2518H51.396V34.1955C51.396 33.605 50.9172 33.1262 50.3267 33.1262H38.8045C38.2139 33.1262 37.7352 33.605 37.7352 34.1955V66.2518H35.265V42.8372C35.265 42.2466 34.7862 41.7678 34.1957 41.7678H22.6735C22.0829 41.7678 21.6041 42.2466 21.6041 42.8372V66.2518H19.134V49.7505C19.134 49.1599 18.6552 48.6812 18.0646 48.6812H6.54234C5.95178 48.6812 5.473 49.1599 5.473 49.7505V66.2518H1.06934C0.478777 66.2518 0 66.7306 0 67.3211V71.9307C0 72.5212 0.478777 73 1.06934 73H12.6182C13.2087 73 13.6875 72.5212 13.6875 71.9307C13.6875 71.3401 13.2087 70.8613 12.6182 70.8613H2.13867V68.3905H70.8613V70.8613H17.6084C17.0178 70.8613 16.5391 71.3401 16.5391 71.9307C16.5391 72.5212 17.0178 73 17.6084 73H71.9307C72.5212 73 73 72.5212 73 71.9307V67.3211C73 66.7306 72.5212 66.2518 71.9307 66.2518ZM39.8738 35.2648H49.2573V66.2518H39.8738V35.2648ZM23.7427 43.9065H33.1262V66.2518H23.7427V43.9065ZM7.61168 50.8198H16.9952V66.2518H7.61168V50.8198Z" fill="#086293"/>
<path d="M6.39893 39.0094H22.6728C23.6169 39.0094 24.5237 38.6106 25.1606 37.9155L38.4161 23.4541H47.4457C48.3473 23.4541 49.1946 23.1034 49.8315 22.4665L60.7796 11.5183V14.8964C60.7796 15.487 61.2584 15.9658 61.849 15.9658H66.4571C67.0477 15.9658 67.5264 15.487 67.5264 14.8964V3.3734C67.5264 1.51332 66.0131 0 64.153 0H52.6313C52.0408 0 51.562 0.478777 51.562 1.06934V5.67889C51.562 6.26945 52.0408 6.74822 52.6313 6.74822H56.0081L46.049 16.7073H36.932C35.9889 16.7073 35.0825 17.1061 34.4458 17.801L21.1887 32.2626H18.24C17.6495 32.2626 17.1707 32.7414 17.1707 33.3319C17.1707 33.9225 17.6495 34.4012 18.24 34.4012H21.6591C21.9588 34.4012 22.2448 34.2755 22.4472 34.0545L36.0222 19.2462C36.2552 18.992 36.5867 18.8461 36.9319 18.8461H46.4918C46.7753 18.8461 47.0474 18.7335 47.2478 18.5329L59.3456 6.43512C59.6514 6.12929 59.743 5.66933 59.5774 5.26983C59.4119 4.87018 59.0219 4.60969 58.5895 4.60969H53.7005V2.13867H64.1529C64.8337 2.13867 65.3876 2.69259 65.3876 3.3734V13.8272H62.9182V8.9368C62.9182 8.50436 62.6577 8.11441 62.258 7.94887C61.8587 7.78363 61.3984 7.87488 61.0927 8.18071L48.3193 20.9541C48.0863 21.1871 47.776 21.3154 47.4457 21.3154H37.9458C37.6459 21.3154 37.3601 21.4412 37.1574 21.6622L23.5839 36.4705C23.3509 36.7248 23.0188 36.8707 22.6728 36.8707H7.46826V34.4012H13.2498C13.8404 34.4012 14.3191 33.9225 14.3191 33.3319C14.3191 32.7414 13.8404 32.2626 13.2498 32.2626H6.39893C5.80837 32.2626 5.32959 32.7414 5.32959 33.3319V37.94C5.32959 38.5306 5.80837 39.0094 6.39893 39.0094Z" fill="#086293"/>
</svg>
