<svg width="76" height="76" viewBox="0 0 76 76" fill="none" xmlns="http://www.w3.org/2000/svg">
<g clip-path="url(#clip0)">
<path d="M58.867 39.3863C57.1147 39.3863 55.4596 38.615 54.3142 37.2614C53.2633 36.0191 52.7552 34.4354 52.8768 32.8353H43.4246C42.6049 32.8353 41.9402 32.1707 41.9402 31.3509V21.3406C41.9402 20.9 42.1358 20.4821 42.4744 20.2001C42.8128 19.9181 43.2598 19.8013 43.6925 19.8805L43.7814 19.8969C44.6743 20.0604 45.5861 19.8203 46.2833 19.239C46.9807 18.6576 47.3807 17.8034 47.3807 16.8955C47.3807 15.9876 46.9808 15.1336 46.2835 14.5524C45.5863 13.9712 44.6741 13.7317 43.7811 13.8949L43.6923 13.9113C43.2588 13.9907 42.8127 13.8736 42.4744 13.5915C42.1361 13.3095 41.9403 12.8918 41.9403 12.4512V1.48438C41.9403 0.664555 42.605 0 43.4247 0H68.0494C71.7582 0 74.7756 3.01729 74.7756 6.72615V31.3509C74.7756 32.1707 74.111 32.8353 73.2912 32.8353H64.8604C65.0001 34.4002 64.5236 35.9602 63.5162 37.187C62.3898 38.5584 60.7272 39.3597 58.9542 39.3857C58.9251 39.3861 58.8961 39.3863 58.867 39.3863ZM44.9091 29.8665H54.6227C55.0631 29.8665 55.4808 30.0622 55.763 30.4004C56.0449 30.7387 56.1623 31.1848 56.0829 31.6181L55.8805 32.7238C55.7092 33.6603 55.9644 34.6152 56.5807 35.3437C57.1776 36.0491 58.0065 36.4285 58.9109 36.4171C59.8086 36.404 60.651 35.9977 61.2219 35.3027C61.7925 34.6079 62.0269 33.7021 61.8649 32.8176L61.6456 31.6179C61.5663 31.1846 61.6836 30.7386 61.9656 30.4003C62.2476 30.062 62.6653 29.8664 63.1057 29.8664H71.8067V6.72615C71.8067 4.65426 70.1212 2.96875 68.0494 2.96875H44.9091V10.903C46.1007 11.0172 47.2419 11.4865 48.1842 12.2721C49.5602 13.419 50.3493 15.1043 50.3493 16.8955C50.3493 18.6868 49.5602 20.3722 48.1842 21.5191C47.2418 22.3048 46.1007 22.7743 44.9091 22.8886V29.8665Z" fill="#086293"/>
<path d="M62.4419 51.5078C63.2617 51.5078 63.9262 50.8433 63.9262 50.0234V44.6491C63.9262 43.8293 63.2617 43.1647 62.4419 43.1647H52.2565C51.8161 43.1647 51.3984 43.3604 51.1164 43.6987C50.8344 44.0369 50.7171 44.483 50.7964 44.9163L51.0159 46.116C51.1778 47.0005 50.9435 47.9063 50.3727 48.6011C49.8018 49.2962 48.9594 49.7024 48.0618 49.7154C47.1564 49.7255 46.3284 49.3475 45.7317 48.6421C45.1154 47.9135 44.8602 46.9586 45.0315 46.0223L45.2338 44.9164C45.3131 44.4832 45.1958 44.0371 44.9139 43.6987C44.6319 43.3604 44.214 43.1647 43.7736 43.1647H34.0599V36.1868C35.2517 36.0725 36.3927 35.6032 37.3351 34.8175C38.7112 33.6704 39.5001 31.9852 39.5001 30.1938C39.5001 28.4025 38.711 26.7173 37.335 25.5703C36.3926 24.7848 35.2515 24.3154 34.0599 24.2012V14.7826C34.0599 13.9628 33.3953 13.2982 32.5755 13.2982H7.95076C4.2419 13.2982 1.22461 16.3155 1.22461 20.0244V69.2738C1.22461 72.9827 4.2419 76 7.95076 76H57.2002C60.909 76 63.9264 72.9827 63.9264 69.2738V64.966C63.9264 64.1462 63.2618 63.4817 62.442 63.4817C61.6223 63.4817 60.9576 64.1462 60.9576 64.966V69.2738C60.9576 71.3456 59.2721 73.0312 57.2002 73.0312H34.0599V63.4567C34.0599 63.0165 33.8644 62.5988 33.5262 62.3167C33.1881 62.0347 32.7419 61.9173 32.3089 61.9964L32.2191 62.0127C31.3261 62.1762 30.414 61.9367 29.7169 61.3556C29.0195 60.7745 28.6195 59.9205 28.6195 59.0118C28.6195 58.1039 29.0194 57.2498 29.7169 56.6685C30.4142 56.0871 31.3261 55.8474 32.22 56.0111L32.3089 56.0273C32.7416 56.1061 33.188 55.989 33.5262 55.707C33.8644 55.4249 34.0599 55.0074 34.0599 54.567V46.1332H42.0277C41.906 47.7333 42.4141 49.3169 43.4652 50.5591C44.6295 51.9353 46.3259 52.7113 48.105 52.6836C49.8778 52.6578 51.5406 51.8563 52.667 50.4849C53.6744 49.2582 54.1509 47.6982 54.0112 46.1332H60.9576V50.0234C60.9575 50.8433 61.6222 51.5078 62.4419 51.5078ZM4.19336 20.0244C4.19336 17.9526 5.87902 16.267 7.95076 16.267H31.0911V25.7493C31.0911 26.1897 31.2866 26.6073 31.6249 26.8893C31.9632 27.1712 32.4093 27.2883 32.8424 27.2095L32.9313 27.1933C32.9313 27.1933 32.9316 27.1932 32.9318 27.1932C33.8246 27.0299 34.7369 27.2693 35.4343 27.8506C36.1316 28.432 36.5315 29.286 36.5315 30.1938C36.5315 31.1017 36.1316 31.9559 35.4343 32.5372C34.7369 33.1185 33.8249 33.3582 32.9319 33.1949L32.8427 33.1786C32.4094 33.0993 31.9633 33.2166 31.6251 33.4986C31.2868 33.7807 31.0911 34.1984 31.0911 34.6388V43.1647H24.722C23.994 40.649 21.6786 38.8351 18.939 38.8351C16.1994 38.8351 13.8841 40.649 13.1562 43.1647H4.19336V20.0244ZM27.816 54.3882C26.44 55.5352 25.6507 57.2206 25.6507 59.0128C25.6507 60.8041 26.44 62.4894 27.816 63.6363C28.7584 64.4219 29.8996 64.8911 31.0911 65.0051V73.0312H7.95076C5.87902 73.0312 4.19336 71.3457 4.19336 69.2738V46.1335H14.4072C15.2019 46.1335 15.8556 45.5075 15.8902 44.7137C15.9612 43.0821 17.3004 41.804 18.9391 41.804C20.5777 41.804 21.9171 43.0821 21.988 44.7137C22.0226 45.5077 22.6764 46.1335 23.4711 46.1335H31.0913V53.0192C29.8993 53.1333 28.7583 53.6027 27.816 54.3882Z" fill="#086293"/>
<path d="M62.4417 58.9015C61.82 58.9015 61.2555 58.5011 61.0454 57.917C60.8389 57.3433 61.0155 56.6798 61.4815 56.2857C61.9685 55.8736 62.6829 55.8221 63.225 56.1574C63.7448 56.4791 64.0178 57.1083 63.8979 57.708C63.7609 58.3935 63.1402 58.9015 62.4417 58.9015Z" fill="#086293"/>
</g>
<defs>
<clipPath id="clip0">
<rect width="76" height="76" fill="white"/>
</clipPath>
</defs>
</svg>
