<svg xmlns="http://www.w3.org/2000/svg" width="47" height="47"><path d="M46.3 8.336a1.922 1.922 0 01-2.714-.265l-4.02-4.894a1.96 1.96 0 01.263-2.736 1.921 1.921 0 012.714.265L46.554 5.6a1.958 1.958 0 01-.254 2.736zm-5.9 6.627l-4.311 3.588a15.874 15.874 0 016 9.884 15.5 15.5 0 01-2.865 11.957 16.332 16.332 0 01-2.545 2.736h4.827a1.936 1.936 0 010 3.872h-39.6a1.932 1.932 0 010-3.863h26a13.052 13.052 0 008.247-5.046 11.669 11.669 0 002.169-8.984 12.083 12.083 0 00-5.278-8.009l-7.533 6.267a3.422 3.422 0 01-4.846-.464l-.657-.795-2.527 2.1a1.923 1.923 0 01-2.714-.266 1.958 1.958 0 01.263-2.735l2.517-2.1-.658-.8a3.488 3.488 0 01.461-4.885l14.9-12.4a3.423 3.423 0 014.846.464l3.757 4.591a3.488 3.488 0 01-.448 4.888zm-6-6.693L20.124 20.151l3.24 3.957 14.277-11.881zm-20.578 29.1a1.918 1.918 0 01-2.724 0l-6.236-6.286a1.955 1.955 0 010-2.746 1.918 1.918 0 012.724 0l6.236 6.286a1.955 1.955 0 01.003 2.748z" fill="#ef7d1b" fill-rule="evenodd"/></svg>