<svg xmlns="http://www.w3.org/2000/svg" width="34" height="41"><path d="M19.925 20.5c4.381 2.795 14.084 9.991 14.067 18.794a1.743 1.743 0 01-3.485 0c0-7.824-10.428-14.7-13.511-16.559C13.921 24.6 3.484 31.487 3.484 39.294a1.742 1.742 0 01-3.484 0c0-8.8 9.7-16 14.083-18.794C9.711 17.706.008 10.51.008 1.707a1.743 1.743 0 013.485 0c0 7.824 10.428 14.7 13.511 16.559 3.075-1.865 13.512-8.752 13.512-16.559a1.742 1.742 0 013.484 0c0 8.802-9.7 15.998-14.075 18.793zm.863-11.94a1.707 1.707 0 110 3.414h-7.567a1.707 1.707 0 110-3.414h7.567zm2.963-5.146H10.257a1.707 1.707 0 110-3.414h13.494a1.707 1.707 0 110 3.413zm-10.53 29.027a1.707 1.707 0 110-3.414h7.567a1.707 1.707 0 110 3.414h-7.567zm-2.964 5.146h13.494a1.707 1.707 0 110 3.413H10.257a1.707 1.707 0 110-3.414z" fill="#434242" fill-rule="evenodd"/></svg>