<svg width="70" height="70" viewBox="0 0 70 70" fill="none" xmlns="http://www.w3.org/2000/svg">
<g clip-path="url(#clip0)">
<path d="M17.5569 51.9296C14.1126 54.9754 12.1372 59.3591 12.1372 63.9567V68.9674C12.1372 69.5378 12.5995 70 13.1698 70C13.7401 70 14.2024 69.5378 14.2024 68.9674V63.9567C14.2024 59.9504 15.9236 56.1305 18.9249 53.4765C19.3521 53.0987 19.3922 52.4463 19.0144 52.0189C18.6366 51.5918 17.984 51.5516 17.5569 51.9296Z" fill="#151F59"/>
<path d="M49.6783 50.0405L39.9685 44.4529V42.8167C41.1753 42.2744 42.2963 41.5323 43.2855 40.6079C43.7021 40.2186 43.7244 39.5652 43.335 39.1484C42.9455 38.7318 42.292 38.7095 41.8754 39.0991C40.0026 40.8491 37.5611 41.813 35.0007 41.813C29.4461 41.813 24.9271 37.294 24.9271 31.7394V21.5625L27.6098 20.8182C28.6702 20.5243 29.7951 20.5087 30.8628 20.7736L33.4304 21.4105C35.1837 21.8454 36.9945 21.7148 38.6671 21.0324C39.6647 20.6255 40.7576 20.477 41.8279 20.6015L45.0742 20.9807V31.7394C45.0742 33.1667 44.7791 34.5495 44.1971 35.8496C43.964 36.3701 44.1971 36.9809 44.7175 37.2139C44.8546 37.2753 44.9978 37.3043 45.139 37.3043C45.5335 37.3043 45.9104 37.0769 46.0821 36.6933C46.7838 35.1263 47.1396 33.4595 47.1396 31.7394V30.8672H47.7376C49.7592 30.8672 51.4037 29.2226 51.4037 27.2011C51.4037 26.0471 50.8672 25.0164 50.0311 24.344L51.0594 20.4905C52.1936 19.8123 53.0932 18.7457 53.5351 17.4299C54.3825 14.9063 53.3895 12.1719 51.12 10.78L49.009 9.4855L48.9693 9.35306C47.7301 5.215 43.8526 2.47107 39.5366 2.682C39.2835 2.69535 39.0266 2.64303 38.7967 2.53358L35.6624 1.04074C32.6511 -0.393595 29.2217 -0.343343 26.2536 1.1791C23.2874 2.70045 21.246 5.45401 20.6526 8.73419L18.1422 11.0264C15.8512 13.118 15.4111 16.5271 17.0956 19.1321C17.6251 19.951 18.3157 20.6131 19.1041 21.097L19.9706 24.3439C19.1344 25.0164 18.5979 26.047 18.5979 27.201C18.5979 29.2225 20.2425 30.8671 22.264 30.8671H22.8621V31.7393C22.8621 36.6099 25.746 40.819 29.8955 42.7506V44.4527L21.6037 49.2242C21.1094 49.5087 20.9393 50.1399 21.2237 50.6343C21.4148 50.9663 21.7623 51.152 22.1196 51.152C22.2943 51.152 22.4713 51.1077 22.6337 51.0143L29.9543 46.8018C30.3259 49.2149 32.4165 51.0686 34.9319 51.0686C37.4473 51.0686 39.5379 49.2149 39.9095 46.8018L48.6481 51.8305C52.9737 54.3196 55.6607 58.9661 55.6607 63.9568V68.9674C55.6607 69.5378 56.1231 70 56.6933 70C57.2636 70 57.7259 69.5378 57.7259 68.9674V63.9568C57.7262 58.2295 54.6425 52.8971 49.6783 50.0405ZM47.7378 28.802H47.1397V25.6002H47.7378C48.6206 25.6002 49.3387 26.3183 49.3387 27.2011C49.3387 28.0839 48.6206 28.802 47.7378 28.802ZM48.1047 23.5535C47.9839 23.5413 47.8617 23.535 47.7378 23.535H47.1397V21.2219L47.4922 21.263C47.9039 21.3112 48.313 21.3129 48.7135 21.272L48.1047 23.5535ZM19.5347 12.5516L22.3031 10.024C22.4704 9.87114 22.5829 9.66765 22.6231 9.44461L22.6841 9.10634C23.161 6.46236 24.8057 4.24286 27.1962 3.01683C28.4296 2.3842 29.7617 2.06726 31.0958 2.06726C32.3471 2.06726 33.6004 2.34634 34.7744 2.90559L37.9088 4.39843C38.4457 4.6541 39.0441 4.77429 39.6371 4.74511C43.0012 4.58127 46.0248 6.7201 46.991 9.9459L47.1437 10.456C47.2165 10.6994 47.3765 10.9072 47.5932 11.04L50.0406 12.5407C51.4848 13.4265 52.1169 15.1667 51.5776 16.7727C51.0368 18.3834 49.4202 19.4095 47.7318 19.2121L42.068 18.5504C40.6524 18.3847 39.207 18.5819 37.8874 19.1204C36.623 19.6361 35.2539 19.7352 33.9281 19.4062L31.3605 18.7693C29.9482 18.419 28.4605 18.4394 27.0581 18.8285L23.5465 19.8028C21.7423 20.3027 19.8468 19.5831 18.8302 18.0108C17.6953 16.2562 17.9917 13.9603 19.5347 12.5516ZM21.4707 21.9557C21.774 22.0006 22.0812 22.0261 22.3914 22.0261C22.5478 22.0261 22.7048 22.0189 22.8621 22.0072V23.535H22.264C22.1402 23.535 22.0178 23.5413 21.8971 23.5535L21.4707 21.9557ZM22.264 28.802C21.3812 28.802 20.6631 28.0839 20.6631 27.2011C20.6631 26.3183 21.3812 25.6002 22.264 25.6002H22.8621V28.802H22.264ZM34.932 49.0034C33.2937 49.0034 31.9607 47.6704 31.9607 46.0322V43.4926C32.9325 43.7441 33.9514 43.8781 35.0009 43.8781C35.9891 43.8781 36.9624 43.7576 37.9034 43.5263V46.032C37.9034 47.6705 36.5704 49.0034 34.932 49.0034Z" fill="#151F59"/>
<path d="M67.1298 37.3769L62.7422 33.014C62.2195 32.4944 61.369 32.4943 60.8461 33.014L56.4585 37.3772C56.071 37.7625 55.9554 38.338 56.1638 38.8432C56.3723 39.3483 56.8602 39.6748 57.4067 39.6748H58.7423C58.6171 41.8165 57.8859 43.8509 56.6087 45.5951L56.1472 46.2252C55.7632 46.7496 55.7854 47.4647 56.2009 47.9644C56.4768 48.2962 56.8777 48.4747 57.2874 48.4746C57.4948 48.4746 57.7043 48.4289 57.9011 48.3342L59.5901 47.521C62.6244 46.06 64.6346 43.0165 64.8142 39.6748H66.182C66.7284 39.6748 67.2162 39.3483 67.4247 38.8432C67.6333 38.338 67.5176 37.7625 67.13 37.3772C67.1299 37.377 67.1298 37.377 67.1298 37.3769ZM63.7945 37.6096C63.2242 37.6096 62.7619 38.0718 62.7619 38.6422V39.1867C62.7619 41.7454 61.3723 44.1286 59.1794 45.4029C60.2613 43.4536 60.8267 41.2733 60.8267 39.0116V38.642C60.8267 38.0716 60.3644 37.6094 59.7941 37.6094H59.1535L61.7942 34.9835L64.435 37.6094H63.7945V37.6096Z" fill="#151F59"/>
<path d="M61.6991 31.247C66.1627 31.247 69.7941 27.6156 69.7941 23.152C69.7941 18.6883 66.1627 15.0569 61.6991 15.0569C57.2354 15.0569 53.604 18.6883 53.604 23.152C53.604 27.6156 57.2354 31.247 61.6991 31.247ZM61.6991 17.1221C65.024 17.1221 67.729 19.827 67.729 23.152C67.729 26.4769 65.024 29.1818 61.6991 29.1818C58.3741 29.1818 55.6692 26.4769 55.6692 23.152C55.6692 19.827 58.3741 17.1221 61.6991 17.1221Z" fill="#151F59"/>
<path d="M13.8013 47.9644C14.2168 47.4647 14.2388 46.7496 13.8548 46.2251L13.3933 45.595C12.1161 43.8509 11.3849 41.8165 11.2597 39.6748H12.5953C13.1418 39.6748 13.6297 39.3483 13.8382 38.8432C14.0467 38.338 13.9311 37.7624 13.5434 37.3769L9.15586 33.014C8.63309 32.4944 7.78265 32.4943 7.25975 33.014L2.87223 37.3769C2.87223 37.377 2.87223 37.377 2.87209 37.3772C2.48466 37.7627 2.36901 38.338 2.57746 38.8432C2.7859 39.3483 3.27369 39.6748 3.82014 39.6748H5.18797C5.3675 43.0165 7.37774 46.06 10.412 47.521L12.1009 48.3342C12.2977 48.4289 12.5072 48.4746 12.7146 48.4746C13.1243 48.4746 13.5253 48.2963 13.8013 47.9644ZM10.8226 45.403C8.62965 44.1286 7.24007 41.7456 7.24007 39.1868V38.6423C7.24007 38.0719 6.77774 37.6097 6.20748 37.6097H5.56714L8.20794 34.9838L10.8486 37.6097H10.208C9.63773 37.6097 9.17541 38.0719 9.17541 38.6423V39.0118C9.17527 41.2735 9.74058 43.4536 10.8226 45.403Z" fill="#151F59"/>
<path d="M8.30258 31.247C12.7661 31.247 16.3975 27.6156 16.3975 23.152C16.3975 18.6883 12.7661 15.0569 8.30258 15.0569C7.16385 15.0569 6.05994 15.2907 5.02144 15.7519C4.50019 15.9833 4.26531 16.5934 4.49675 17.1146C4.72818 17.6357 5.33865 17.8709 5.85948 17.6393C6.63255 17.2961 7.45449 17.1221 8.30258 17.1221C11.6274 17.1221 14.3323 19.827 14.3323 23.152C14.3323 26.4769 11.6274 29.1818 8.30258 29.1818C4.97766 29.1818 2.27269 26.4769 2.27269 23.152C2.27269 22.1247 2.53662 21.1095 3.03612 20.216C3.31437 19.7181 3.13635 19.0889 2.6385 18.8108C2.14052 18.5324 1.51161 18.7105 1.23336 19.2084C0.562179 20.4093 0.20752 21.773 0.20752 23.1521C0.20752 27.6156 3.83892 31.247 8.30258 31.247Z" fill="#151F59"/>
<path d="M7.29036 26.776C7.55456 26.776 7.8189 26.6752 8.02046 26.4736L12.0488 22.4453C12.452 22.0419 12.452 21.3882 12.0488 20.985C11.6455 20.5818 10.9917 20.5818 10.5886 20.985L7.29036 24.2832L6.84469 23.8375C6.44143 23.4344 5.7876 23.4344 5.38448 23.8375C4.98122 24.2409 4.98122 24.8946 5.38448 25.2979L6.56025 26.4736C6.76181 26.6752 7.02615 26.776 7.29036 26.776Z" fill="#151F59"/>
<path d="M58.8412 26.1685C59.0406 26.3556 59.2944 26.4483 59.5478 26.4483C59.823 26.4483 60.0975 26.339 60.3007 26.1225L61.6253 24.7118L62.9499 26.1225C63.1533 26.339 63.4278 26.4483 63.7029 26.4483C63.9562 26.4483 64.2102 26.3556 64.4095 26.1685C64.8253 25.7781 64.8458 25.1247 64.4554 24.7089L63.0416 23.2031L64.4554 21.6973C64.8458 21.2815 64.8253 20.6281 64.4095 20.2376C63.9938 19.8473 63.3404 19.8677 62.9498 20.2836L61.6252 21.6944L60.3006 20.2836C59.9101 19.8678 59.2569 19.8472 58.8409 20.2376C58.4251 20.6281 58.4046 21.2815 58.7949 21.6973L60.2088 23.2031L58.7949 24.7089C58.4049 25.1247 58.4256 25.7781 58.8412 26.1685Z" fill="#151F59"/>
</g>
<defs>
<clipPath id="clip0">
<rect width="70" height="70" fill="white"/>
</clipPath>
</defs>
</svg>
