<svg width="71" height="71" viewBox="0 0 71 71" fill="none" xmlns="http://www.w3.org/2000/svg">
<g clip-path="url(#clip0)">
<path d="M70.6751 34.7156L67.347 31.3875L65.7783 32.9561L67.2127 34.3905H64.3217C64.0333 26.8346 60.8039 19.7989 55.4689 14.6814V6.65615H60.5565L59.1221 8.09058L60.6907 9.65923L64.0189 6.33111C64.4526 5.89734 64.4526 5.19622 64.0189 4.76245L60.6907 1.43433L59.1221 3.00298L60.5565 4.4374H54.3595C53.7471 4.4374 53.2501 4.9344 53.2501 5.54678V12.7599C51.9921 11.7781 50.6442 10.8929 49.2109 10.1174L48.1548 12.0688C56.7724 16.7326 62.1251 25.7108 62.1251 35.4999C62.1251 45.2879 56.7724 54.2661 48.1559 58.931L49.212 60.8824C50.6442 60.107 51.9921 59.2217 53.2501 58.2399V65.453C53.2501 66.0654 53.7471 66.5624 54.3595 66.5624H60.5565L59.1221 67.9968L60.6907 69.5655L64.0189 66.2374C64.4526 65.8036 64.4526 65.1025 64.0189 64.6687L60.6907 61.3406L59.1221 62.9092L60.5565 64.3437H55.4689V56.3184C60.8039 51.2009 64.0333 44.1652 64.3217 36.6093H67.2127L65.7783 38.0437L67.347 39.6124L70.6751 36.2842C71.1089 35.8505 71.1089 35.1493 70.6751 34.7156Z" fill="#151F59"/>
<path d="M8.8743 35.4999C8.8743 25.7108 14.227 16.7326 22.8447 12.0688L21.7885 10.1174C20.3563 10.8929 19.0073 11.7781 17.7493 12.7599V5.54678C17.7493 4.9344 17.2523 4.4374 16.6399 4.4374H10.443L11.8774 3.00298L10.3087 1.43433L6.9806 4.76245C6.54683 5.19622 6.54683 5.89734 6.9806 6.33111L10.3087 9.65923L11.8774 8.09058L10.443 6.65615H15.5306V14.6814C10.1956 19.7989 6.96618 26.8346 6.67774 34.3905H3.78671L5.22113 32.9561L3.65247 31.3875L0.324348 34.7156C-0.109418 35.1493 -0.109418 35.8505 0.324348 36.2842L3.65247 39.6124L5.22113 38.0437L3.78671 36.6093H6.67774C6.96618 44.1652 10.1956 51.2009 15.5306 56.3184V64.3437H10.443L11.8774 62.9092L10.3087 61.3406L6.9806 64.6687C6.54683 65.1025 6.54683 65.8036 6.9806 66.2374L10.3087 69.5655L11.8774 67.9968L10.443 66.5624H16.6399C17.2523 66.5624 17.7493 66.0654 17.7493 65.453V58.2399C19.0062 59.2217 20.3552 60.107 21.7874 60.8824L22.8435 58.931C14.227 54.2661 8.8743 45.2879 8.8743 35.4999Z" fill="#151F59"/>
<path d="M43.5984 32.9695L49.0377 35.3525C50.2491 35.8827 51.0312 37.0786 51.0312 38.401V53.25H53.25V38.401C53.25 36.1989 51.9465 34.2043 49.9285 33.3201L42.9395 30.2582L40.4889 26.9911C42.1474 26.0315 43.2656 24.2376 43.2656 22.1875V18.8594H41.0469V22.1875C41.0469 24.0224 39.5537 25.5156 37.7188 25.5156H33.2812C31.4463 25.5156 29.9531 24.0224 29.9531 22.1875V12.2031C29.9531 10.3682 31.4463 8.875 33.2812 8.875H37.7188C39.5537 8.875 41.0469 10.3682 41.0469 12.2031V14.4219H36.6094C35.3857 14.4219 34.3906 13.4268 34.3906 12.2031H32.1719C32.1719 14.6504 34.1621 16.6406 36.6094 16.6406H42.1562C42.7686 16.6406 43.2656 16.1436 43.2656 15.5312V12.2031C43.2656 9.14458 40.7773 6.65625 37.7188 6.65625H33.2812C30.2227 6.65625 27.7344 9.14458 27.7344 12.2031V22.1875C27.7344 24.2376 28.8526 26.0315 30.5111 26.9911L28.075 30.2393L21.2334 32.9817C19.1167 33.8293 17.75 35.8506 17.75 38.1303V53.25H19.9688V38.1303C19.9688 36.7625 20.7886 35.5499 22.0588 35.0407L27.4138 32.8941L26.6405 37.5357C26.5773 37.9107 26.7115 38.2923 26.9955 38.5463C27.2019 38.7305 27.4648 38.8281 27.7344 38.8281C27.8364 38.8281 27.9385 38.8137 28.0395 38.7849L33.0805 37.3449L31.068 56.4616C31.0325 56.8 31.1546 57.135 31.3975 57.3724L34.8177 60.7006C35.0263 60.9025 35.3036 61.0156 35.5921 61.0156H35.6076C35.9027 61.0112 36.1834 60.8903 36.3875 60.6795L39.6235 57.3514C39.8532 57.1151 39.9663 56.7889 39.932 56.4616L37.9195 37.3449L42.9605 38.7849C43.0615 38.8137 43.1636 38.8281 43.2656 38.8281C43.5352 38.8281 43.7981 38.7305 44.0045 38.5463C44.2885 38.2923 44.4227 37.9118 44.3595 37.5357L43.5984 32.9695ZM38.2734 27.7344L40.5654 30.7896L35.5 34.1665L30.4346 30.7896L32.7266 27.7344H38.2734ZM29.6458 32.995L32.8209 35.1117L29.1167 36.1701L29.6458 32.995ZM37.671 56.1776L35.571 58.3376L33.3312 56.1599L35.3813 36.6881L35.4401 36.6715C35.48 36.6737 35.52 36.6737 35.5599 36.6715L35.6187 36.6881L37.671 56.1776ZM38.1791 35.1117L41.3542 32.995L41.8833 36.1701L38.1791 35.1117Z" fill="#151F59"/>
<path d="M24.4062 42.1562H26.625V57.6875H24.4062V42.1562Z" fill="#151F59"/>
<path d="M44.375 53.25H46.5938V57.6875H44.375V53.25Z" fill="#151F59"/>
<path d="M44.375 42.1562H46.5938V51.0312H44.375V42.1562Z" fill="#151F59"/>
</g>
<defs>
<clipPath id="clip0">
<rect width="71" height="71" fill="white"/>
</clipPath>
</defs>
</svg>
