<svg width="70" height="70" viewBox="0 0 70 70" fill="none" xmlns="http://www.w3.org/2000/svg">
<path d="M65.529 56.2491H65.0961V23.4472C65.0961 22.136 64.0295 21.0693 62.7183 21.0693H61.2005C63.0038 19.0939 64.7035 17.0236 66.2853 14.8658L66.9621 15.3673C67.4942 15.7614 68.1945 15.8267 68.7901 15.5373C69.3857 15.2482 69.7675 14.6573 69.7867 13.9956L69.9992 6.66601C70.0159 6.08739 69.7481 5.53613 69.2829 5.19161C68.8177 4.84709 68.2125 4.75186 67.664 4.93644L60.7145 7.27501C60.0872 7.48599 59.6332 8.02329 59.5299 8.67717C59.4266 9.33104 59.6929 9.98218 60.225 10.3765L61.3373 11.2005C60.3331 12.5717 59.2687 13.918 58.165 15.2129C57.7972 15.6442 57.8489 16.2919 58.2802 16.6595C58.7113 17.027 59.359 16.9756 59.7268 16.5442C61.0878 14.9476 62.3906 13.275 63.599 11.5729C63.9223 11.1173 63.8219 10.4868 63.3731 10.1543L61.8798 9.0481L67.9359 7.01026L67.7506 13.3973L66.6722 12.5984C66.4508 12.4343 66.1727 12.3656 65.9005 12.4094C65.6284 12.4525 65.385 12.6034 65.2252 12.828C58.4935 22.2884 49.4801 30.1037 39.1593 35.4294C28.8307 40.7591 17.2284 43.5761 5.60672 43.5761H3.07851C2.51261 43.5761 2.05234 43.1158 2.05234 42.5499C2.05234 41.9841 2.51261 41.5238 3.07851 41.5238H5.60699C15.2415 41.5238 24.6195 39.6094 33.4804 35.8335C42.2741 32.0863 50.099 26.7044 56.7376 19.8375C57.1315 19.4299 57.1206 18.7804 56.7131 18.3865C56.3056 17.9926 55.6559 18.0037 55.2621 18.4111C52.6899 21.0719 49.9334 23.5023 47.0078 25.6948C47.0028 25.6948 46.9982 25.6941 46.9933 25.6941H38.8063C37.4952 25.6941 36.4285 26.7608 36.4285 28.0718V32.2133C35.5129 32.669 34.5854 33.1055 33.6461 33.5225V32.0659C33.6461 30.7547 32.5794 29.6881 31.2684 29.6881H23.0814C21.7703 29.6881 20.7037 30.7547 20.7037 32.0659V37.8078C19.7802 38.0148 18.8527 38.2031 17.9212 38.3717V35.3212C17.9212 34.01 16.8545 32.9434 15.5435 32.9434H7.35627C6.0451 32.9434 4.97857 34.01 4.97857 35.3212V39.4714H3.07851C1.38095 39.4714 0 40.8525 0 42.5499C0 44.2474 1.38095 45.6285 3.07851 45.6285H4.97843V56.2491H4.42621C2.03688 56.2491 0.0930394 58.1929 0.0930394 60.5821V63.3941C0.0930394 64.3658 0.883601 65.1563 1.85532 65.1563H68.0999C69.0717 65.1563 69.8622 64.3658 69.8622 63.3941V60.5821C69.8622 58.1929 67.9182 56.2491 65.529 56.2491ZM38.4808 28.0717C38.4808 27.8921 38.6268 27.7463 38.8063 27.7463H44.1174C42.2974 28.9681 40.4172 30.1022 38.4808 31.1481V28.0717ZM22.7558 32.0659C22.7558 31.8864 22.9018 31.7404 23.0812 31.7404H31.2681C31.4476 31.7404 31.5935 31.8864 31.5935 32.0659V34.3946C28.6994 35.5713 25.7504 36.5463 22.7557 37.3155V32.0659H22.7558ZM7.35627 34.9957H15.5432C15.7227 34.9957 15.8686 35.1417 15.8686 35.3212V38.711C12.9548 39.147 10.006 39.3955 7.03077 39.4557V35.3211C7.03077 35.1417 7.17676 34.9957 7.35627 34.9957ZM59.2579 23.1217H62.7183C62.8978 23.1217 63.0438 23.2677 63.0438 23.4472V56.2491H54.2059V27.8073C55.9594 26.3225 57.6466 24.7594 59.2579 23.1217ZM40.1007 37.2533C42.585 35.9714 44.9946 34.5479 47.3186 32.9963V43.9243C47.3186 44.4912 47.7781 44.9505 48.3448 44.9505C48.9115 44.9505 49.371 44.4912 49.371 43.9243V31.5786C50.3146 30.9025 51.2419 30.2038 52.1534 29.485V56.2491H49.3711V48.3002C49.3711 47.7333 48.9117 47.274 48.3449 47.274C47.7782 47.274 47.3188 47.7333 47.3188 48.3002V56.2491H38.4808V38.062C39.0238 37.7984 39.5643 37.5301 40.1007 37.2533ZM22.7558 43.6356C25.7518 42.9337 28.705 42.05 31.5936 40.9891V56.2491H22.7558V43.6356ZM33.6461 40.201C34.5814 39.8261 35.509 39.4324 36.4285 39.0201V56.2491H33.6461V40.201ZM7.03077 45.6131C9.98765 45.5562 12.94 45.3231 15.8686 44.9175V48.3188C15.8686 48.8857 16.328 49.345 16.8947 49.345C17.4614 49.345 17.9209 48.8857 17.9209 48.3188V44.6054C18.8517 44.4504 19.7791 44.2764 20.7035 44.0866V56.2491H17.9209V52.6948C17.9209 52.128 17.4614 51.6686 16.8947 51.6686C16.328 51.6686 15.8686 52.128 15.8686 52.6948V56.2491H7.03077V45.6131ZM67.8099 63.104H2.14538V60.5821C2.14538 59.3246 3.16854 58.3014 4.42621 58.3014H65.529C66.7867 58.3014 67.8099 59.3246 67.8099 60.5821V63.104Z" fill="#151F59"/>
</svg>
