<svg width="69" height="69" viewBox="0 0 69 69" fill="none" xmlns="http://www.w3.org/2000/svg">
<path d="M66.8438 39.8906V35.5781C66.8438 35.2922 66.7302 35.018 66.528 34.8158C66.3258 34.6136 66.0516 34.5 65.7656 34.5H51.75V33.4219C51.7474 32.5649 51.4059 31.7437 50.7998 31.1377C50.1938 30.5316 49.3726 30.1901 48.5156 30.1875H47.4375V28.0312H52.8281C53.6851 28.0287 54.5063 27.6871 55.1123 27.0811C55.7184 26.4751 56.0599 25.6539 56.0625 24.7969V5.39062C56.0599 4.5336 55.7184 3.71241 55.1123 3.1064C54.5063 2.5004 53.6851 2.15881 52.8281 2.15625H16.1719C15.3149 2.15881 14.4937 2.5004 13.8877 3.1064C13.2816 3.71241 12.9401 4.5336 12.9375 5.39062V24.7969C12.9401 25.6539 13.2816 26.4751 13.8877 27.0811C14.4937 27.6871 15.3149 28.0287 16.1719 28.0312H21.5625V30.1875H20.4844C19.6274 30.1901 18.8062 30.5316 18.2002 31.1377C17.5941 31.7437 17.2526 32.5649 17.25 33.4219V34.5H3.23438C2.94844 34.5 2.67421 34.6136 2.47203 34.8158C2.26984 35.018 2.15625 35.2922 2.15625 35.5781V39.8906C2.15625 40.1766 2.26984 40.4508 2.47203 40.653C2.67421 40.8552 2.94844 40.9688 3.23438 40.9688H5.25047L2.16703 65.6362C2.14633 65.7868 2.15876 65.9401 2.20345 66.0853C2.24815 66.2306 2.32402 66.3643 2.42578 66.4772C2.52594 66.5932 2.65013 66.6861 2.78975 66.7494C2.92937 66.8127 3.08108 66.8449 3.23438 66.8438H5.39062C5.6239 66.8438 5.85088 66.7681 6.0375 66.6281C6.22412 66.4882 6.36031 66.2914 6.42562 66.0675L13.7461 40.9688H17.25V44.2031C17.25 44.4891 17.3636 44.7633 17.5658 44.9655C17.768 45.1677 18.0422 45.2812 18.3281 45.2812H21.5625V47.4375C21.5625 47.7234 21.6761 47.9977 21.8783 48.1999C22.0805 48.402 22.3547 48.5156 22.6406 48.5156H31.2656V54.9844H23.7188C23.4328 54.9844 23.1586 55.098 22.9564 55.3001C22.7542 55.5023 22.6406 55.7766 22.6406 56.0625V60.5691C21.9213 60.8234 21.315 61.3238 20.929 61.9819C20.5429 62.64 20.4019 63.4134 20.531 64.1654C20.66 64.9174 21.0507 65.5996 21.634 66.0913C22.2174 66.5831 22.9558 66.8528 23.7188 66.8528C24.4817 66.8528 25.2201 66.5831 25.8035 66.0913C26.3868 65.5996 26.7775 64.9174 26.9065 64.1654C27.0356 63.4134 26.8946 62.64 26.5085 61.9819C26.1225 61.3238 25.5162 60.8234 24.7969 60.5691V57.1406H33.4219V60.5691C32.7025 60.8234 32.0963 61.3238 31.7102 61.9819C31.3242 62.64 31.1832 63.4134 31.3122 64.1654C31.4412 64.9174 31.8319 65.5996 32.4153 66.0913C32.9986 66.5831 33.737 66.8528 34.5 66.8528C35.263 66.8528 36.0014 66.5831 36.5847 66.0913C37.1681 65.5996 37.5588 64.9174 37.6878 64.1654C37.8168 63.4134 37.6758 62.64 37.2898 61.9819C36.9037 61.3238 36.2975 60.8234 35.5781 60.5691V57.1406H44.2031V60.5691C43.4838 60.8234 42.8775 61.3238 42.4915 61.9819C42.1054 62.64 41.9644 63.4134 42.0935 64.1654C42.2225 64.9174 42.6132 65.5996 43.1965 66.0913C43.7799 66.5831 44.5183 66.8528 45.2812 66.8528C46.0442 66.8528 46.7826 66.5831 47.366 66.0913C47.9493 65.5996 48.34 64.9174 48.469 64.1654C48.5981 63.4134 48.4571 62.64 48.071 61.9819C47.685 61.3238 47.0787 60.8234 46.3594 60.5691V56.0625C46.3594 55.7766 46.2458 55.5023 46.0436 55.3001C45.8414 55.098 45.5672 54.9844 45.2812 54.9844H37.7344V48.5156H46.3594C46.6453 48.5156 46.9195 48.402 47.1217 48.1999C47.3239 47.9977 47.4375 47.7234 47.4375 47.4375V45.2812H50.6719C50.9578 45.2812 51.232 45.1677 51.4342 44.9655C51.6364 44.7633 51.75 44.4891 51.75 44.2031V40.9688H55.2539L62.5744 66.0675C62.6397 66.2914 62.7759 66.4882 62.9625 66.6281C63.1491 66.7681 63.3761 66.8438 63.6094 66.8438H65.7656C65.9189 66.8449 66.0706 66.8127 66.2103 66.7494C66.3499 66.6861 66.4741 66.5932 66.5742 66.4772C66.676 66.3643 66.7519 66.2306 66.7965 66.0853C66.8412 65.9401 66.8537 65.7868 66.833 65.6362L63.7495 40.9688H65.7656C66.0516 40.9688 66.3258 40.8552 66.528 40.653C66.7302 40.4508 66.8438 40.1766 66.8438 39.8906ZM4.58203 64.6875H4.45266L7.4175 40.9688H11.5036L4.58203 64.6875ZM17.25 38.8125H4.3125V36.6562H17.25V38.8125ZM21.5625 43.125H19.4062V33.4219C19.4062 33.1359 19.5198 32.8617 19.722 32.6595C19.9242 32.4573 20.1984 32.3438 20.4844 32.3438H21.5625V43.125ZM23.7188 64.6875C23.5055 64.6875 23.2971 64.6243 23.1198 64.5058C22.9425 64.3873 22.8043 64.219 22.7227 64.022C22.6411 63.825 22.6197 63.6082 22.6613 63.399C22.7029 63.1899 22.8056 62.9978 22.9564 62.847C23.1072 62.6962 23.2993 62.5936 23.5084 62.552C23.7176 62.5104 23.9343 62.5317 24.1313 62.6133C24.3283 62.6949 24.4967 62.8331 24.6152 63.0104C24.7336 63.1877 24.7969 63.3961 24.7969 63.6094C24.7969 63.8953 24.6833 64.1695 24.4811 64.3717C24.2789 64.5739 24.0047 64.6875 23.7188 64.6875ZM45.2812 62.5312C45.4945 62.5312 45.7029 62.5945 45.8802 62.7129C46.0575 62.8314 46.1957 62.9998 46.2773 63.1968C46.3589 63.3938 46.3803 63.6106 46.3387 63.8197C46.2971 64.0288 46.1944 64.2209 46.0436 64.3717C45.8928 64.5225 45.7007 64.6252 45.4916 64.6668C45.2824 64.7084 45.0657 64.687 44.8687 64.6054C44.6717 64.5238 44.5033 64.3856 44.3848 64.2083C44.2664 64.0311 44.2031 63.8226 44.2031 63.6094C44.2031 63.3234 44.3167 63.0492 44.5189 62.847C44.7211 62.6448 44.9953 62.5312 45.2812 62.5312ZM34.5 64.6875C34.2868 64.6875 34.0783 64.6243 33.901 64.5058C33.7237 64.3873 33.5855 64.219 33.5039 64.022C33.4223 63.825 33.401 63.6082 33.4426 63.399C33.4842 63.1899 33.5869 62.9978 33.7376 62.847C33.8884 62.6962 34.0805 62.5936 34.2897 62.552C34.4988 62.5104 34.7156 62.5317 34.9126 62.6133C35.1096 62.6949 35.278 62.8331 35.3964 63.0104C35.5149 63.1877 35.5781 63.3961 35.5781 63.6094C35.5781 63.8953 35.4645 64.1695 35.2624 64.3717C35.0602 64.5739 34.7859 64.6875 34.5 64.6875ZM35.5781 54.9844H33.4219V48.5156H35.5781V54.9844ZM45.2812 46.3594H23.7188V24.7969C23.7188 24.5109 23.8323 24.2367 24.0345 24.0345C24.2367 23.8323 24.5109 23.7188 24.7969 23.7188H44.2031C44.4891 23.7188 44.7633 23.8323 44.9655 24.0345C45.1677 24.2367 45.2812 24.5109 45.2812 24.7969V46.3594ZM28.0312 21.5625V19.4062C28.0312 17.6906 28.7128 16.0453 29.9259 14.8322C31.139 13.619 32.7844 12.9375 34.5 12.9375C36.2156 12.9375 37.861 13.619 39.0741 14.8322C40.2872 16.0453 40.9688 17.6906 40.9688 19.4062V21.5625H28.0312ZM44.2031 21.5625H43.125V19.4062C43.125 17.1188 42.2163 14.925 40.5988 13.3075C38.9813 11.69 36.7875 10.7812 34.5 10.7812C32.2125 10.7812 30.0187 11.69 28.4012 13.3075C26.7837 14.925 25.875 17.1188 25.875 19.4062V21.5625H24.7969C23.9399 21.5651 23.1187 21.9066 22.5127 22.5127C21.9066 23.1187 21.5651 23.9399 21.5625 24.7969V25.875H16.1719C15.8859 25.875 15.6117 25.7614 15.4095 25.5592C15.2073 25.357 15.0938 25.0828 15.0938 24.7969V5.39062C15.0938 5.10469 15.2073 4.83046 15.4095 4.62828C15.6117 4.42609 15.8859 4.3125 16.1719 4.3125H52.8281C53.1141 4.3125 53.3883 4.42609 53.5905 4.62828C53.7927 4.83046 53.9062 5.10469 53.9062 5.39062V24.7969C53.9062 25.0828 53.7927 25.357 53.5905 25.5592C53.3883 25.7614 53.1141 25.875 52.8281 25.875H47.4375V24.7969C47.4349 23.9399 47.0934 23.1187 46.4873 22.5127C45.8813 21.9066 45.0601 21.5651 44.2031 21.5625ZM49.5938 43.125H47.4375V32.3438H48.5156C48.8016 32.3438 49.0758 32.4573 49.278 32.6595C49.4802 32.8617 49.5938 33.1359 49.5938 33.4219V43.125ZM64.5473 64.6875H64.418L57.4964 40.9688H61.5825L64.5473 64.6875ZM64.6875 38.8125H51.75V36.6562H64.6875V38.8125Z" fill="#151F59"/>
<path d="M49.5938 11.8594H51.75V7.54688C51.75 7.26094 51.6364 6.98671 51.4342 6.78453C51.232 6.58234 50.9578 6.46875 50.6719 6.46875H46.3594V8.625H49.5938V11.8594Z" fill="#151F59"/>
<path d="M51.75 14.0156H49.5938V16.1719H51.75V14.0156Z" fill="#151F59"/>
</svg>
