<svg width="58" height="69" viewBox="0 0 58 69" fill="none" xmlns="http://www.w3.org/2000/svg">
<path d="M56.6598 5.12507C55.8882 4.31725 54.8048 3.85404 53.6877 3.85404H48.3744L48.4348 3.12401C48.5009 2.3222 48.2264 1.52297 47.6814 0.931199C47.1364 0.339424 46.3625 0 45.558 0H13.73C13.1647 0 12.7064 0.458298 12.7064 1.0236C12.7064 1.58889 13.1647 2.04719 13.73 2.04719H45.558C45.7954 2.04719 46.0147 2.14341 46.1755 2.31797C46.3363 2.49252 46.414 2.71894 46.3945 2.9556L44.6651 23.9067C44.3375 27.8747 42.544 31.5454 39.6152 34.2424C36.6863 36.9394 32.8806 38.4248 28.899 38.4248C24.9173 38.4248 21.1117 36.9395 18.1827 34.2424C15.2537 31.5453 13.4604 27.8747 13.1329 23.9067L11.4035 2.9556C11.384 2.71908 11.4618 2.49252 11.6226 2.31797C11.7834 2.14341 12.0027 2.04719 12.24 2.04719H13.6043C14.1696 2.04719 14.6279 1.58889 14.6279 1.0236C14.6279 0.458298 14.1696 0 13.6043 0H12.24C11.4355 0 10.6616 0.339424 10.1167 0.931199C9.5717 1.52297 9.29711 2.3222 9.3633 3.12401L9.42362 3.85404H4.11021C2.99312 3.85404 1.90975 4.31739 1.1381 5.12507C0.366442 5.9329 -0.0468169 7.03619 0.00422635 8.15232L0.58399 20.818C0.924234 28.251 7.01927 34.0734 14.46 34.0734H15.1983C15.6916 34.6618 16.2241 35.2219 16.796 35.7485C19.2863 38.0417 22.3381 39.559 25.6131 40.169V46.127L24.2441 48.2567H21.3319C19.7656 48.2567 18.4913 49.5308 18.4913 51.0972V53.476H13.1099C11.0384 53.476 9.3532 55.1613 9.3532 57.2328V66.1386H8.79923C8.23393 66.1386 7.77564 66.5969 7.77564 67.1622C7.77564 67.7275 8.23393 68.1858 8.79923 68.1858H48.9986C49.5639 68.1858 50.0222 67.7275 50.0222 67.1622C50.0222 66.5969 49.5639 66.1386 48.9986 66.1386H48.4446V63.5014C48.4446 62.9361 47.9863 62.4778 47.421 62.4778C46.8557 62.4778 46.3974 62.9361 46.3974 63.5014V66.1386H11.4005V57.2328C11.4005 56.2901 12.1674 55.5232 13.1101 55.5232H44.6879C45.6305 55.5232 46.3974 56.2901 46.3974 57.2328V59.1392C46.3974 59.7045 46.8557 60.1628 47.421 60.1628C47.9863 60.1628 48.4446 59.7045 48.4446 59.1392V57.2328C48.4446 55.1613 46.7593 53.476 44.6879 53.476H39.4429V51.0972C39.4429 49.5308 38.1686 48.2567 36.6024 48.2567H33.6902L32.3212 46.127V40.1425C35.5444 39.5161 38.5461 38.0098 41.0018 35.7485C41.5737 35.2219 42.1061 34.6618 42.5994 34.0734H43.3378C50.7785 34.0734 56.8737 28.251 57.2138 20.818L57.3982 16.789C57.424 16.2243 56.9871 15.7455 56.4225 15.7197C55.8572 15.6938 55.379 16.1308 55.3532 16.6954L55.1688 20.7244C54.8904 26.8061 50.0926 31.6204 44.0991 31.9992C44.5383 31.2893 44.9267 30.5501 45.2616 29.7866C49.6481 28.917 52.9165 25.1575 53.1236 20.6306L53.6552 9.01856C53.6681 8.73932 53.566 8.46691 53.3729 8.26478C53.1797 8.06266 52.9122 7.94829 52.6327 7.94829H48.0364L48.2053 5.9011H53.6876C54.2482 5.9011 54.792 6.13366 55.1793 6.53914C55.5666 6.94462 55.7741 7.49845 55.7484 8.0587L55.5527 12.3334C55.5269 12.8981 55.9636 13.3769 56.5284 13.4027C56.5444 13.4034 56.5602 13.4038 56.576 13.4038C57.1198 13.4038 57.5726 12.9758 57.5977 12.427L57.7934 8.15246C57.8447 7.03633 57.4315 5.9329 56.6598 5.12507ZM11.0926 24.0752C11.1869 25.2174 11.3893 26.3377 11.6926 27.4235C8.86543 26.3478 6.86286 23.6754 6.71915 20.5371L6.23669 9.99561H9.93051L11.0926 24.0752ZM2.62913 20.7245L2.04937 8.0587C2.02371 7.49859 2.23116 6.94462 2.61849 6.53927C3.00582 6.13379 3.54955 5.90123 4.11021 5.90123H9.59245L9.76141 7.94842H5.16519C4.88555 7.94842 4.61819 8.06279 4.42507 8.26492C4.23195 8.46704 4.12986 8.73946 4.14269 9.01869L4.67428 20.6308C4.88145 25.1577 8.14986 28.917 12.5363 29.7868C12.8712 30.5504 13.2597 31.2895 13.6988 31.9994C7.70535 31.6205 2.90742 26.8062 2.62913 20.7245ZM37.3958 51.0971V53.4759H20.5386V51.0971C20.5386 50.6596 20.8946 50.3037 21.332 50.3037H36.6025C37.0398 50.3037 37.3958 50.6596 37.3958 51.0971ZM30.4365 46.9811L31.2565 48.2565H26.678L27.498 46.9811C27.604 46.816 27.6605 46.6238 27.6605 46.4276V40.4293C28.0714 40.4575 28.4843 40.472 28.8991 40.472C29.3599 40.472 29.8184 40.4534 30.2741 40.4185V46.4274C30.274 46.6238 30.3305 46.816 30.4365 46.9811ZM51.5612 9.99561L51.0786 20.5373C50.9351 23.6755 48.9325 26.3479 46.1052 27.4236C46.4084 26.3377 46.6108 25.2176 46.7052 24.0754L47.8674 9.99575L51.5612 9.99561Z" fill="#151F59"/>
<path d="M37.1914 16.0179C37.0078 15.4529 36.5285 15.0488 35.9405 14.9633L32.0826 14.4027L30.3572 10.9067C30.0942 10.3739 29.5618 10.043 28.9677 10.043C28.3735 10.043 27.8412 10.3739 27.5782 10.9067L25.8528 14.4027L21.995 14.9632C21.4069 15.0486 20.9275 15.4527 20.744 16.0178C20.5604 16.5829 20.7105 17.1915 21.1361 17.6061L23.9278 20.3274L23.2687 24.1697C23.1683 24.7553 23.4045 25.3359 23.8851 25.6851C24.3656 26.0343 24.9908 26.0796 25.5169 25.8032L28.9677 23.9891L32.4184 25.8032C32.6472 25.9234 32.8946 25.9828 33.1408 25.9828C33.4607 25.9828 33.7786 25.8825 34.0502 25.6851C34.5307 25.3359 34.767 24.7552 34.6665 24.1697L34.0075 20.3274L36.7991 17.6062C37.2247 17.1916 37.3749 16.5829 37.1914 16.0179ZM32.3913 19.0442C32.0259 19.4003 31.8594 19.913 31.9455 20.4158L32.4783 23.5221L29.6887 22.0555C29.2371 21.818 28.698 21.818 28.2465 22.0555L25.4569 23.5222L25.9897 20.4158C26.076 19.913 25.9093 19.4004 25.544 19.0443L23.2871 16.8444L26.4062 16.3912C26.9111 16.3177 27.3473 16.0008 27.5727 15.5436L28.9675 12.7173L30.3624 15.5435C30.588 16.0008 31.0242 16.3177 31.5291 16.3912L34.6481 16.8444L32.3913 19.0442Z" fill="#151F59"/>
</svg>
