<svg width="71" height="71" viewBox="0 0 71 71" fill="none" xmlns="http://www.w3.org/2000/svg">
<g clip-path="url(#clip0)">
<path d="M60.2135 11.0949C60.2129 11.4903 60.3917 11.8559 60.7042 12.097C61.4664 12.6847 61.8125 12.084 63.3915 12.1371C65.5735 12.2118 67.5024 13.5834 68.3057 15.631C68.5154 16.1656 69.1188 16.4294 69.654 16.2198C70.1886 16.0096 70.4519 15.4061 70.2423 14.8715C68.9736 11.6371 65.6948 9.67834 62.2448 10.1133C61.507 2.70682 53.028 -1.23234 46.8923 3.03345C45.5971 1.12129 43.407 -0.138672 40.9288 -0.138672C37.9533 -0.138672 35.2601 1.7399 34.2054 4.48789C32.7455 4.34596 31.309 4.88548 30.3004 5.96236C28.1071 5.67147 25.9945 6.68064 24.812 8.47092C20.1941 9.5673 16.0074 12.1874 12.9826 15.8845C9.81426 19.757 8.06949 24.6511 8.06949 29.6655V32.7483C8.06949 35.8202 6.8729 38.7079 4.70127 40.8801L1.84549 43.7359C-0.0195411 45.6009 1.29784 48.7893 3.93857 48.7893H8.04565C8.05865 48.7893 8.06949 48.7996 8.06949 48.8126V52.3363C8.06949 58.1887 12.8309 62.9501 18.6828 62.9501C20.1621 62.9501 21.3658 64.1532 21.3658 65.6326V68.6909C21.3658 69.8875 22.3397 70.8615 23.5363 70.8615H29.6763C30.2511 70.8615 30.7164 70.3956 30.7164 69.8214C30.7164 69.2467 30.2511 68.7814 29.6763 68.7814H23.5363C23.4865 68.7814 23.4458 68.7408 23.4458 68.6909V65.6326C23.4458 63.0064 21.3094 60.8695 18.6828 60.8695C13.9777 60.8695 10.1496 57.0414 10.1496 52.3363V48.8126C10.1496 47.6528 9.20595 46.7087 8.04565 46.7087H3.93857C3.15475 46.7087 2.76149 45.7607 3.31617 45.2066L6.17195 42.3508C8.73685 39.7859 10.1496 36.376 10.1496 32.7483V29.6655C10.1496 21.0576 15.8411 13.429 23.9204 10.8738C23.5336 13.9517 25.6771 16.7165 28.6439 17.1867C28.4483 21.5142 31.8832 25.1766 36.2741 25.1766H49.0401C49.3716 26.5996 49.5444 28.0594 49.5547 29.529L45.2835 37.2687C44.8414 38.0709 45.4238 39.0611 46.3419 39.0611H48.396V45.3225C48.396 45.3398 48.3965 45.3566 48.3971 45.3734C47.5548 47.7173 46.2883 49.8559 44.6307 51.7345C42.49 54.1607 41.3107 57.3908 41.3107 60.8305V68.6747C41.3107 68.7332 41.263 68.7814 41.204 68.7814H34.5304C33.9557 68.7814 33.4898 69.2467 33.4898 69.8214C33.4898 70.3956 33.9557 70.8615 34.5304 70.8615H41.204C42.4098 70.8615 43.3908 69.8805 43.3908 68.6747V60.8305C43.3908 57.8983 44.3853 55.1568 46.1902 53.1109C47.9616 51.1039 49.3282 48.8267 50.2589 46.336C50.4225 46.2304 50.5638 46.0863 50.6624 45.9064L55.9065 36.4041C56.3501 35.5997 55.7646 34.6117 54.848 34.6117H52.794V28.3498C52.794 27.6429 52.1889 27.0877 51.4869 27.1451C51.4105 26.4842 51.3054 25.8271 51.1689 25.1766H63.1987C66.2695 25.1766 69.0126 23.3419 70.187 20.5024C70.4064 19.9715 70.154 19.3632 69.6231 19.1438C69.0928 18.9244 68.484 19.1763 68.2646 19.7072C67.413 21.7661 65.4245 23.0965 63.1992 23.0965H36.2741C33.1616 23.0965 30.5755 20.5256 30.724 17.2576H48.4534C51.3363 17.2576 53.6872 15.0952 54.0274 12.3424C54.4662 8.79268 51.5362 5.78848 48.0547 6.03386C48.0022 5.66443 47.9063 5.25221 47.8088 4.93749C52.8687 1.08554 60.2135 4.70673 60.2135 11.0949ZM50.7139 31.7337V35.4838C50.7139 36.1501 51.2556 36.6923 51.9224 36.6923H53.3714L50.4755 41.9397V38.1895C50.4755 37.5227 49.9338 36.9805 49.267 36.9805H47.818L50.7139 31.7337ZM48.5775 8.10203C50.507 8.16811 52.0925 9.81972 51.9863 11.8316C51.8888 13.6738 50.3677 15.177 48.4529 15.177H29.8107C29.8101 15.177 29.8096 15.177 29.8091 15.177C25.9235 15.177 24.7226 10.8246 27.3319 8.76505C28.1482 8.12045 29.172 7.85664 30.224 8.05599C30.7792 8.16161 31.3426 7.95794 31.6947 7.52513C32.3274 6.74998 33.3284 6.39734 34.3034 6.6048C35.0504 6.76352 35.8077 6.31337 36.0287 5.58047C36.6744 3.43809 38.6889 1.94141 40.9288 1.94141C43.7516 1.94141 46.0467 4.23817 46.0467 7.06199C46.0467 7.62426 46.3744 7.87127 46.5131 8.00994C47.1707 8.51588 47.5878 8.06899 48.5775 8.10203Z" fill="#151F59"/>
<path d="M38.1063 27.7664L32.8623 37.2687C32.4186 38.0736 33.0042 39.0611 33.9207 39.0611H35.9748V45.323C35.9748 46.5603 37.6367 47.0039 38.2418 45.907L43.4858 36.4042C43.9295 35.5997 43.3439 34.6122 42.4274 34.6122H40.3733V28.3503C40.3733 27.105 38.7065 26.6781 38.1063 27.7664ZM40.9507 36.6923L38.0549 41.9397V38.1896C38.0549 37.5227 37.5132 36.9805 36.8464 36.9805H35.3974L38.2932 31.7337V35.4838C38.2932 36.1501 38.8349 36.6923 39.5017 36.6923H40.9507Z" fill="#151F59"/>
<path d="M63.0821 45.907L68.3262 36.4041C68.7699 35.5997 68.1843 34.6122 67.2678 34.6122H65.2137V28.3503C65.2137 27.105 63.5469 26.6781 62.9467 27.7664L57.7032 37.2687C57.2595 38.0731 57.8445 39.0611 58.7611 39.0611H60.8157V45.323C60.8157 46.5749 62.4819 46.9941 63.0821 45.907ZM60.2377 36.981L63.1336 31.7343V35.4838C63.1336 36.1501 63.6758 36.6923 64.3421 36.6923H65.7911L62.8958 41.9396V38.1895C62.8958 37.5227 62.3535 36.981 61.6873 36.981H60.2377Z" fill="#151F59"/>
</g>
<defs>
<clipPath id="clip0">
<rect width="71" height="71" fill="white"/>
</clipPath>
</defs>
</svg>
