<svg width="71" height="71" viewBox="0 0 71 71" fill="none" xmlns="http://www.w3.org/2000/svg">
<g clip-path="url(#clip0)">
<path d="M61.1158 54.6014L58.2354 57.4818C59.037 59.1262 59.4627 60.9432 59.4627 62.8263V69.8164C59.4627 70.4699 58.9328 70.9997 58.2793 70.9997C57.6258 70.9997 57.096 70.4699 57.096 69.8164V62.8263C57.096 57.647 53.1141 53.4242 48.0598 53.0147L43.146 70.1427C42.9971 70.6619 42.5236 71 42.0092 71C41.2224 71 40.6544 70.2456 40.8711 69.4901L45.658 52.8047C43.7325 52.3827 42.0541 51.2035 40.9982 49.4698C40.6581 48.9117 40.835 48.1837 41.3931 47.8436C41.951 47.5034 42.6792 47.6804 43.0193 48.2385C43.88 49.6516 45.3515 50.5218 46.9914 50.6044C47.1383 50.5799 47.2915 50.583 47.4446 50.6175C51.1393 50.6753 54.6202 52.3692 56.9555 55.4148L59.4423 52.9281C60.4078 51.9625 60.4979 50.4259 59.6517 49.3541C57.7752 46.9789 58.2523 44.1053 60.0514 42.409C61.0618 41.4564 61.1761 39.8589 60.3116 38.7722L58.6082 36.6308C57.5827 35.3416 57.2487 33.6286 57.7149 32.0484L58.8161 28.3165C59.2085 26.9865 58.5369 25.5871 57.2538 25.0614L55.8004 24.4659C53.8918 23.6837 52.6585 21.8462 52.6585 19.7842V15.9755C52.6585 8.4713 46.5539 2.36666 39.0503 2.36666H31.9503C24.4466 2.36666 18.342 8.4716 18.342 15.9755V19.7842C18.342 21.8462 17.1088 23.6837 15.2003 24.4659L13.7467 25.0614C12.4637 25.5871 11.7921 26.9865 12.1844 28.3165L13.2856 32.0484C13.7519 33.6286 13.418 35.3416 12.3924 36.6308L10.689 38.7722C9.82455 39.8589 9.93889 41.4563 10.9492 42.409C12.7514 44.1081 13.2231 46.9811 11.3485 49.3544C10.5025 50.4261 10.5925 51.9625 11.5581 52.9281L14.0449 55.4148C16.3343 52.4291 19.8442 50.6127 23.7513 50.6127C26.4823 50.6127 28.696 48.4122 28.696 45.6811V45.3701C23.8048 43.0412 19.425 33.6682 18.7131 28.5C18.6239 27.8526 19.0765 27.2554 19.7238 27.1662C20.3709 27.0769 20.9683 27.5297 21.0575 28.177C21.9688 34.7929 28.8099 44.5412 35.5001 44.5412C42.9222 44.5412 48.9605 38.503 48.9605 31.0809V23.7861C46.194 22.7834 43.7809 20.8547 42.2046 18.1588C36.4981 24.7884 28.35 28.6451 19.7204 28.9905C19.0689 29.0168 18.517 28.5095 18.4908 27.8554C18.4646 27.2024 18.9729 26.6518 19.6259 26.6258C28.1475 26.285 36.1767 22.2498 41.5114 15.2571C42.0688 14.5262 43.2132 14.6844 43.5521 15.5383C44.7943 18.6677 47.4029 20.9178 50.4673 21.7886C50.9181 21.9149 51.2838 22.3216 51.3227 22.8371C51.3301 22.9341 51.3283 31.1544 51.3267 31.2048C51.2459 41.6329 41.1765 49.2408 31.0378 46.263C30.884 48.2236 29.9506 50.0694 28.325 51.3752L35.5001 56.9302L43.146 51C43.6632 50.5999 44.4061 50.6947 44.8061 51.2112C45.2062 51.728 45.1116 52.4713 44.5949 52.8713L36.6834 59.0071V67.4497C36.6834 68.1032 36.1536 68.633 35.5001 68.633C34.8466 68.633 34.3168 68.1032 34.3168 67.4497V59.0073L26.0536 52.61C24.7701 53.0334 23.6389 52.9795 23.7516 52.9795C18.3092 52.9794 13.9044 57.3834 13.9044 62.8265V69.8164C13.9044 70.4699 13.3745 70.9997 12.721 70.9997C12.0676 70.9997 11.5377 70.4699 11.5377 69.8164V62.8263C11.5377 60.9432 11.9634 59.1262 12.765 57.4818L9.88461 54.6014C8.1991 52.9159 7.75403 50.0867 9.59188 47.7597C10.4633 46.656 10.3488 45.0958 9.32534 44.1309C7.42728 42.3413 7.21265 39.3403 8.83662 37.2988L10.54 35.1573C11.086 34.4711 11.2636 33.5592 11.0154 32.718L9.91419 28.9861C9.17698 26.4876 10.4387 23.8589 12.849 22.8712L14.3026 22.2757C15.3185 21.8595 15.9749 20.8813 15.9749 19.7841V15.9754C15.9755 7.16668 23.1419 0 31.9504 0H39.0504C47.8589 0 55.0253 7.16639 55.0253 15.9749V19.7842C55.0253 20.8815 55.6818 21.8596 56.6978 22.276L58.1512 22.8714C60.5617 23.859 61.8234 26.4878 61.0862 28.9862L59.985 32.7181C59.7368 33.5593 59.9144 34.4712 60.4604 35.1574L62.1638 37.2988C63.7877 39.3403 63.573 42.3414 61.675 44.1309C60.6516 45.0958 60.5371 46.656 61.4086 47.76C63.216 50.0478 62.8331 52.8843 61.1158 54.6014ZM26.5809 56.9219C26.4033 56.293 25.7495 55.9268 25.1206 56.1047C24.4916 56.2824 24.1257 56.9361 24.3033 57.5651L27.8533 70.1379C28.0309 70.767 28.6849 71.1327 29.3137 70.9552C29.9426 70.7775 30.3086 70.1237 30.1309 69.4948L26.5809 56.9219Z" fill="#151F59"/>
</g>
<defs>
<clipPath id="clip0">
<rect width="71" height="71" fill="white"/>
</clipPath>
</defs>
</svg>
