<svg width="70" height="70" viewBox="0 0 70 70" fill="none" xmlns="http://www.w3.org/2000/svg">
<path d="M69.7346 14.4931C69.3548 14.0742 68.7072 14.0424 68.2882 14.4223L65.2616 17.1664C65.1348 17.2814 64.9378 17.272 64.8227 17.145L62.6099 14.7043C62.23 14.2855 61.5825 14.2536 61.1635 14.6335C60.7445 15.0133 60.7128 15.6608 61.0927 16.0798L62.8986 18.0717L59.8449 20.8405C59.6916 20.9794 59.584 21.1616 59.5364 21.3629L58.6959 24.9096C58.2423 26.8244 57.232 28.535 55.7742 29.8569L49.7713 35.2996C49.1648 35.8496 48.224 35.8034 47.674 35.197C47.4076 34.9032 47.2715 34.5231 47.2909 34.127C47.3102 33.7309 47.4827 33.366 47.7766 33.0997L50.395 30.7256C50.814 30.3458 50.8457 29.6982 50.4659 29.2793C50.0861 28.8604 49.4385 28.8286 49.0195 29.2084L46.4011 31.5824C45.9873 31.9576 45.6756 32.4152 45.4798 32.9213C45.0431 32.7161 44.5631 32.6073 44.0661 32.6068H44.0624C43.5475 32.6068 43.0594 32.7242 42.6233 32.9336C42.5159 32.593 42.3548 32.2763 42.1505 31.9923L44.7066 29.6748C45.1256 29.295 45.1572 28.6474 44.7774 28.2284C44.3976 27.8096 43.7501 27.7777 43.3311 28.1576L41.8809 29.4723C41.7117 29.0121 41.4387 28.5827 41.0635 28.2202L40.2549 27.439L41.5665 26.2499C41.9855 25.8701 42.0171 25.2225 41.6373 24.8035C41.2575 24.3845 40.61 24.3529 40.191 24.7327L38.7789 26.013L35.8951 23.2269C36.3506 23.0477 36.7762 22.7715 37.138 22.397C38.4114 21.0788 38.452 19.0174 37.2856 17.6511L41.636 13.7067C43.7065 11.8295 46.2475 10.5382 48.9846 9.97247C49.1637 9.93547 49.3296 9.8511 49.4652 9.72822L52.6864 6.80753L58.1582 12.8426C58.3602 13.0656 58.6381 13.1788 58.9171 13.1788C59.1623 13.1788 59.4086 13.0911 59.6045 12.9134C60.0235 12.5336 60.0552 11.886 59.6754 11.467L53.7966 4.98314C53.6815 4.85617 53.6912 4.6593 53.8182 4.54421L56.8448 1.7999C57.2638 1.42009 57.2955 0.772547 56.9156 0.35355C56.5358 -0.0654475 55.8884 -0.0971215 55.4693 0.282693L52.4427 3.027C51.8817 3.53555 51.6249 4.25463 51.6787 4.95692L48.2934 8.02629C45.304 8.69431 42.5318 10.13 40.2606 12.1894L35.8222 16.2136L31.2241 11.7724C29.5099 10.1164 27.3615 9.03222 25.0111 8.63725L21.7298 8.08582L18.6367 5.09755C18.7128 4.3973 18.4788 3.67044 17.9342 3.14427L14.996 0.305629C14.5893 -0.0872917 13.941 -0.0762331 13.5481 0.330614C13.1552 0.737324 13.1664 1.38555 13.5731 1.77847L16.5113 4.61711C16.6346 4.7363 16.638 4.93344 16.5189 5.05672L5.11316 16.8628C5.03916 16.9394 4.95383 16.9566 4.89499 16.9575C4.83711 16.9564 4.75014 16.9442 4.67368 16.8703L1.73538 14.0317C1.32867 13.6387 0.680444 13.6499 0.287523 14.0566C-0.105398 14.4633 -0.0942029 15.1116 0.312507 15.5045L3.25068 18.3431C3.69384 18.7713 4.27394 19.0056 4.88844 19.0056C4.90236 19.0056 4.91629 19.0054 4.93022 19.0051C5.03097 19.0034 5.13009 18.9931 5.22825 18.9791L8.51333 22.1529C9.37754 25.0915 10.9933 27.7627 13.1982 29.8929L15.3351 31.9575C15.5339 32.1494 15.7903 32.245 16.0464 32.245C16.3144 32.245 16.582 32.1404 16.783 31.9325C17.1759 31.5258 17.1647 30.8776 16.758 30.4846L14.6211 28.4201C12.611 26.4782 11.1546 24.0281 10.4093 21.3344C10.3605 21.1582 10.2654 20.9981 10.1338 20.871L7.00663 17.85L17.5704 6.91538L20.5351 9.77956C20.6839 9.92332 20.8727 10.0186 21.0768 10.0529L24.6713 10.657C26.6119 10.9832 28.3857 11.8781 29.801 13.2454L35.6286 18.8754C36.2174 19.4443 36.2336 20.3861 35.6649 20.9748C35.1578 21.4996 34.3549 21.5683 33.7694 21.1743L31.0234 18.5552C30.6167 18.1622 29.9685 18.1733 29.5756 18.5801C29.1826 18.9869 29.1938 19.6351 29.6005 20.028L39.6402 29.6936C39.9096 29.9538 40.0423 30.3033 40.0321 30.6532C39.8415 30.619 39.6456 30.6 39.4451 30.5999H39.4415C38.9831 30.5999 38.5461 30.6928 38.1481 30.8609C38.0933 30.059 37.756 29.3123 37.1828 28.7378C36.5535 28.1072 35.7164 27.7593 34.8255 27.7584H34.8216C34.5411 27.7584 34.266 27.7929 34.0009 27.8597L30.3532 24.3357C29.9465 23.9427 29.2981 23.9538 28.9054 24.3606C28.5124 24.7674 28.5236 25.4156 28.9303 25.8085L32.2291 28.9954C31.9542 29.3337 31.751 29.7179 31.6274 30.1295C31.1871 29.9202 30.7023 29.8095 30.2003 29.809H30.1965C29.9428 29.809 29.6937 29.8381 29.4521 29.8929L27.1412 27.6603C26.7345 27.2674 26.0862 27.2785 25.6933 27.6853C25.3004 28.092 25.3116 28.7402 25.7183 29.1332L27.6462 30.9957C27.1394 31.5953 26.8621 32.3463 26.8613 33.1406L26.8606 33.817L23.9293 30.985C23.5226 30.5921 22.8743 30.6031 22.4814 31.01C22.0885 31.4167 22.0997 32.0649 22.5064 32.4578L26.8575 36.6613L26.8538 39.9266C26.6048 39.8843 26.3694 39.7703 26.1788 39.5861L19.897 33.5173C19.4903 33.1244 18.8419 33.1354 18.4491 33.5423C18.0562 33.949 18.0674 34.5972 18.4741 34.9901L23.9482 40.2787C23.5512 40.4525 23.1857 40.6998 22.8698 41.015C22.2018 41.6814 21.8335 42.5681 21.8324 43.5118L21.8234 51.6147C21.8206 53.9982 22.5312 56.2974 23.8781 58.2638L25.7582 61.0088L25.7534 65.3078C25.675 65.3686 25.5987 65.4326 25.5274 65.5039C25.0814 65.9488 24.8354 66.5409 24.8347 67.1694L24.8301 68.934C24.8286 69.4995 25.2858 69.9591 25.8513 69.9606H25.854C26.4183 69.9606 26.8764 69.504 26.8779 68.9394L26.8826 67.1733C26.8827 67.067 26.9323 66.9952 26.9738 66.9537C27.0153 66.9121 27.0815 66.8601 27.1936 66.8629L43.6092 66.881C43.7805 66.8812 43.9198 67.0208 43.9196 67.1908L43.9151 68.9553C43.9136 69.5207 44.3708 69.9803 44.9365 69.9818H44.9392C45.5035 69.9818 45.9616 69.5251 45.9631 68.9604L45.9677 67.1945C45.9686 66.4372 45.6091 65.7636 45.0531 65.331L45.0581 60.7614C46.5741 58.1 47.3759 55.0827 47.3792 52.0169L47.3803 51.0836C47.381 50.518 46.9231 50.0591 46.3576 50.0585H46.3563C45.7914 50.0585 45.3331 50.5162 45.3324 51.0812L45.3313 52.0145C45.3282 54.8093 44.575 57.5582 43.1529 59.9642C43.0598 60.1216 43.0106 60.3012 43.0105 60.4841L43.0056 64.8323L27.8017 64.8154L27.8063 60.6933C27.8065 60.4863 27.7441 60.2842 27.6272 60.1134L25.5676 57.1063C24.4556 55.4829 23.8691 53.5846 23.8712 51.6168L23.8803 43.5138C23.8807 43.1172 24.0356 42.7445 24.3163 42.4644C24.5966 42.1847 24.969 42.0308 25.365 42.0308H25.3667C26.1855 42.0317 26.8508 42.6985 26.8498 43.5171L26.8459 47.0516C26.8453 47.6171 27.3032 48.0761 27.8687 48.0767H27.8698C28.4348 48.0767 28.8932 47.6189 28.8938 47.0538L28.8977 43.5193L28.9092 33.1427C28.9096 32.7987 29.0438 32.4756 29.2874 32.2327C29.5304 31.9902 29.8534 31.8567 30.1966 31.8567H30.1981C30.542 31.8571 30.8652 31.9913 31.1081 32.2349C31.3509 32.4785 31.4845 32.8018 31.4841 33.1457L31.4726 43.5223C31.472 44.0878 31.9299 44.5468 32.4954 44.5473H32.4965C33.0262 44.5473 33.4622 44.145 33.5151 43.6292C33.5187 43.5948 33.5205 43.5598 33.5205 43.5246L33.5344 31.0922C33.5348 30.7483 33.669 30.4251 33.9126 30.1822C34.1556 29.9398 34.4785 29.8062 34.8218 29.8062H34.8233C35.1672 29.8067 35.4904 29.9409 35.7333 30.1844C35.9762 30.4278 36.1097 30.7513 36.1093 31.0952L36.0955 43.5276C36.0949 44.0931 36.5528 44.5521 37.1183 44.5527H37.1194C37.6491 44.5527 38.0851 44.1503 38.138 43.6345C38.1416 43.6001 38.1434 43.5652 38.1434 43.5299L38.154 33.934C38.1544 33.59 38.2886 33.2669 38.5322 33.024C38.7752 32.7814 39.0982 32.6479 39.4416 32.6479H39.443C40.1529 32.6487 40.7298 33.2269 40.729 33.9368L40.7184 43.5328C40.7178 44.0983 41.1757 44.5573 41.7412 44.5578H41.7423C42.272 44.5578 42.708 44.1555 42.7609 43.6397C42.7645 43.6053 42.7663 43.5704 42.7663 43.5351L42.7747 35.9403C42.776 35.2314 43.3532 34.6551 44.0622 34.6551H44.0635C44.4074 34.6555 44.7306 34.7897 44.9735 35.0333C45.2164 35.2767 45.3499 35.6001 45.3495 35.944L45.3376 46.7074C45.337 47.2729 45.7949 47.7319 46.3604 47.7325H46.3615C46.9265 47.7325 47.3849 47.2747 47.3855 46.7096L47.3957 37.4541C47.7731 37.6137 48.1795 37.7077 48.601 37.7283C48.6601 37.7311 48.7189 37.7326 48.7778 37.7326C49.656 37.7326 50.4913 37.4111 51.1465 36.817L57.1494 31.3742C58.9152 29.7732 60.1389 27.7011 60.6884 25.382L61.4555 22.1444L64.6404 19.2568C64.7382 19.274 64.8369 19.2873 64.9375 19.2923C64.9769 19.2942 65.0163 19.2951 65.0554 19.2951C65.6418 19.2951 66.1995 19.0804 66.637 18.6836L69.6636 15.9395C70.0829 15.5596 70.1144 14.9121 69.7346 14.4931Z" fill="#151F59"/>
</svg>
