<svg width="191" height="45" fill="none" xmlns="http://www.w3.org/2000/svg"><path d="M.44 23.285h2.186V15.15H9.47l3.941 8.136h2.514L11.7 14.613c1.2-.486 2.122-1.274 2.767-2.365.644-1.09.966-2.335.966-3.734 0-1.675-.45-3.118-1.353-4.328-.903-1.21-2.192-1.944-3.868-2.202a5.528 5.528 0 00-.803-.089 9.19 9.19 0 00-.7-.03H.44v21.42zm2.186-10.219V3.963H8.65c.179 0 .387.01.625.03.248.01.481.04.7.089 1.1.238 1.908.788 2.424 1.65.526.854.788 1.78.788 2.782 0 .992-.262 1.92-.788 2.782-.516.863-1.324 1.408-2.425 1.636-.218.05-.45.085-.699.104-.238.02-.446.03-.625.03H2.626zm22.376 10.219h2.202v-8.97l7.155-12.45h-2.53l-5.726 9.952-5.757-9.952h-2.528l7.184 12.45v8.97zm12.47 0h2.098V6.745l7.616 16.54h1.413l7.63-16.54V23.27h2.083V1.865h-2.038L47.9 19.88 39.48 1.865h-2.008v21.42zm34.728.447c2.49 0 4.522-.635 6.099-1.904 1.576-1.28 2.657-2.99 3.242-5.132l-2.23-.58c-.457 1.685-1.275 3.03-2.455 4.03-1.18.992-2.732 1.488-4.656 1.488-1.676 0-3.08-.382-4.21-1.145-1.12-.774-1.963-1.84-2.528-3.198-.556-1.359-.828-2.93-.818-4.716.02-1.785.307-3.356.862-4.715.556-1.369 1.389-2.435 2.5-3.198 1.12-.764 2.518-1.146 4.194-1.146 1.924 0 3.476.501 4.656 1.503 1.18.991 1.998 2.33 2.454 4.016l2.231-.58c-.584-2.142-1.665-3.848-3.242-5.117-1.577-1.28-3.61-1.919-6.099-1.919-2.132 0-3.932.471-5.4 1.413-1.467.942-2.578 2.251-3.332 3.927-.753 1.676-1.13 3.615-1.13 5.816 0 2.192.377 4.13 1.13 5.816.754 1.676 1.865 2.985 3.332 3.927 1.468.942 3.268 1.413 5.4 1.413zm13.665-.447h2.186v-9.668h11.84v9.668h2.173V1.865h-2.172v9.654h-11.84V1.865h-2.187v21.42zm21.407 0h13.387v-2.097h-11.2v-7.72h9.415V11.37h-9.415V3.963h11.2V1.865h-13.387v21.42zm18.008 0h2.202V5.718l11.795 17.567h2.202V1.865h-2.202v17.553L127.482 1.865h-2.202v21.42zm49.395 0h2.187v-10.71l10.532 10.71h2.855L179.45 12.203l9.981-10.338h-2.796l-9.773 10.115V1.865h-2.187v21.42zM3.32 36.647H0v-.584h7.311v.584h-3.32v8.29H3.32v-8.29zm14.168 8.29l-2.2-2.967a6.978 6.978 0 01-.896.064h-2.635v2.903h-.672v-8.874h3.307c1.159 0 2.068.267 2.727.799.658.524.988 1.255.988 2.193 0 .701-.19 1.293-.567 1.775-.369.473-.9.807-1.594 1.001l2.306 3.106h-.764zm-3.096-3.474c.983 0 1.734-.207 2.252-.62.519-.423.778-1.02.778-1.788 0-.77-.26-1.36-.778-1.775-.518-.422-1.269-.633-2.252-.633h-2.635v4.816h2.635zm13.986.977H23.03l-1.172 2.497h-.725l4.242-8.874h.672l4.241 8.874h-.724l-1.186-2.498zm-.25-.546l-2.424-5.12-2.41 5.12h4.834zm13.452-5.831v8.874h-.554l-6.284-7.707v7.707h-.672v-8.874h.567l6.27 7.707v-7.707h.672zM49.331 45a5.71 5.71 0 01-1.936-.33c-.606-.228-1.08-.52-1.423-.874l.303-.482c.325.33.76.6 1.304.811a5.013 5.013 0 001.739.305c.878 0 1.541-.161 1.99-.482.447-.321.671-.74.671-1.255 0-.397-.118-.714-.356-.95a2.363 2.363 0 00-.882-.546 12.483 12.483 0 00-1.423-.393c-.676-.16-1.22-.317-1.633-.469a2.692 2.692 0 01-1.041-.697c-.281-.321-.422-.748-.422-1.28 0-.431.119-.824.356-1.18.237-.362.597-.65 1.08-.861.492-.211 1.102-.317 1.831-.317.51 0 1.01.072 1.502.215.492.144.918.338 1.278.584l-.25.52a4.325 4.325 0 00-1.226-.558 4.684 4.684 0 00-1.304-.19c-.852 0-1.497.164-1.936.494-.44.33-.659.756-.659 1.28 0 .397.119.714.356.95.237.237.531.42.882.546.352.127.83.262 1.436.405.677.161 1.217.317 1.62.47.405.152.747.384 1.028.697.29.304.435.718.435 1.242 0 .43-.123.824-.369 1.179-.237.355-.606.638-1.106.85-.501.21-1.116.316-1.845.316zm7.712-8.937h.672v8.29h5.308v.584h-5.98v-8.874zm15.53 6.377h-5.348l-1.172 2.497h-.725l4.242-8.874h.672l4.242 8.874h-.725l-1.186-2.498zm-.25-.546l-2.424-5.12-2.41 5.12h4.834zm7.244-5.247h-3.32v-.584h7.312v.584h-3.32v8.29h-.672v-8.29zm7.766-.584h.672v8.874h-.672v-8.874zM97.238 45c-.904 0-1.721-.194-2.45-.583a4.533 4.533 0 01-1.726-1.623 4.357 4.357 0 01-.619-2.294c0-.845.207-1.61.62-2.294a4.438 4.438 0 011.725-1.61c.729-.397 1.546-.596 2.45-.596.905 0 1.722.194 2.45.583.73.389 1.3.925 1.713 1.61.422.684.632 1.454.632 2.307s-.21 1.623-.632 2.307a4.34 4.34 0 01-1.712 1.61c-.73.389-1.546.583-2.45.583zm0-.596c.773 0 1.471-.169 2.095-.507a3.828 3.828 0 001.475-1.394c.36-.6.54-1.268.54-2.003 0-.735-.18-1.399-.54-1.99-.36-.6-.852-1.07-1.475-1.407-.624-.338-1.322-.507-2.095-.507a4.4 4.4 0 00-2.107.507 3.8 3.8 0 00-1.476 1.407 3.752 3.752 0 00-.54 1.99c0 .735.18 1.403.54 2.003a3.83 3.83 0 001.476 1.394 4.4 4.4 0 002.107.507zm16.742-8.341v8.874h-.553l-6.284-7.707v7.707h-.672v-8.874h.567l6.271 7.707v-7.707h.671zm16.524 6.377h-5.349l-1.172 2.497h-.725l4.242-8.874h.672l4.242 8.874h-.725l-1.185-2.498zm-.251-.546l-2.423-5.12-2.411 5.12h4.834zm12.401-1.356h.645v3.321a4.048 4.048 0 01-1.475.85 5.605 5.605 0 01-1.818.291c-.913 0-1.739-.194-2.477-.583a4.432 4.432 0 01-1.725-1.61c-.413-.684-.62-1.454-.62-2.307s.207-1.623.62-2.307a4.432 4.432 0 011.725-1.61c.738-.389 1.568-.583 2.49-.583.676 0 1.295.106 1.858.317.57.203 1.058.503 1.462.9l-.422.43a3.42 3.42 0 00-1.304-.798 4.682 4.682 0 00-1.581-.253c-.79 0-1.506.169-2.147.507a3.78 3.78 0 00-1.489 1.407 3.752 3.752 0 00-.54 1.99c0 .727.18 1.39.54 1.99.369.592.87 1.06 1.502 1.407.632.338 1.344.507 2.134.507 1.054 0 1.928-.27 2.622-.811v-3.055zm12.072 3.815v.584h-6.362v-8.874h6.165v.584h-5.493v3.498h4.913v.57h-4.913v3.638h5.69zm12.067-8.29v8.874h-.554l-6.283-7.707v7.707h-.672v-8.874h.566l6.271 7.707v-7.707h.672zM176.02 45c-.905 0-1.721-.194-2.45-.583a4.468 4.468 0 01-1.713-1.61c-.413-.684-.619-1.454-.619-2.307s.206-1.623.619-2.307a4.468 4.468 0 011.713-1.61c.729-.389 1.545-.583 2.45-.583.668 0 1.282.106 1.844.317a3.748 3.748 0 011.436.913l-.421.418c-.738-.702-1.682-1.052-2.833-1.052-.772 0-1.475.169-2.107.507a3.772 3.772 0 00-1.489 1.407 3.752 3.752 0 00-.54 1.99c0 .735.18 1.403.54 2.003.36.591.856 1.056 1.489 1.394a4.398 4.398 0 002.107.507c1.142 0 2.086-.355 2.833-1.065l.421.419a3.858 3.858 0 01-1.449.925 5.16 5.16 0 01-1.831.317zm10.265-3.118v3.055h-.672v-3.055l-3.715-5.819h.738l3.333 5.223 3.333-5.223H190l-3.715 5.819z" fill="#202223"/><g clip-path="url(#clip0)"><path d="M165.945 4.24a11.084 11.084 0 00-7.889-3.268 11.08 11.08 0 00-7.888 3.268 11.084 11.084 0 00-3.268 7.889c0 2.98 1.161 5.781 3.268 7.888a11.082 11.082 0 007.888 3.268c2.98 0 5.782-1.16 7.889-3.268a11.084 11.084 0 003.268-7.888c0-2.98-1.161-5.782-3.268-7.889zm-.923.923a9.935 9.935 0 011.524 1.96h-4.337a16.807 16.807 0 00-.739-2.652c-.279-.74-.597-1.37-.946-1.883a9.791 9.791 0 014.498 2.575zm-3.654 6.966c0 1.266-.085 2.494-.249 3.639h-6.125a25.822 25.822 0 01-.249-3.64c0-1.288.088-2.537.258-3.699h6.107a25.72 25.72 0 01.258 3.7zm-3.312-9.851c.746 0 1.566.992 2.193 2.654.249.66.46 1.397.629 2.192h-5.643c.169-.795.379-1.532.629-2.192.627-1.662 1.447-2.654 2.192-2.654zm-6.965 2.885a9.791 9.791 0 014.498-2.575c-.349.514-.667 1.144-.946 1.883-.3.795-.548 1.689-.739 2.653h-4.337a9.899 9.899 0 011.524-1.961zm-2.886 6.966c0-1.29.247-2.54.716-3.7h4.764a27.327 27.327 0 00-.246 3.7c0 1.258.082 2.485.238 3.639h-4.78a9.838 9.838 0 01-.692-3.64zm2.886 6.965a9.908 9.908 0 01-1.559-2.02h4.36c.193.986.444 1.901.751 2.712.279.74.597 1.37.946 1.883a9.792 9.792 0 01-4.498-2.575zm6.965 2.886c-.745 0-1.565-.993-2.192-2.655a15.205 15.205 0 01-.641-2.252h5.667a15.209 15.209 0 01-.641 2.252c-.627 1.663-1.447 2.655-2.193 2.655zm6.966-2.886a9.79 9.79 0 01-4.498 2.575c.349-.513.667-1.143.946-1.883.306-.81.558-1.726.751-2.713h4.36a9.907 9.907 0 01-1.559 2.021zm-2.586-3.326a27.32 27.32 0 00.237-3.64c0-1.28-.084-2.527-.246-3.699h4.765a9.85 9.85 0 01.716 3.7 9.859 9.859 0 01-.692 3.639h-4.78z" fill="#F87A0B"/></g><defs><clipPath id="clip0"><path fill="#fff" transform="translate(146.9 .972)" d="M0 0h22.313v22.313H0z"/></clipPath></defs></svg>