<svg width="18" height="18" viewBox="0 0 18 18"  xmlns="http://www.w3.org/2000/svg">
<path d="M8.99998 0C4.02943 0 0 4.02943 0 8.99998C0 13.9705 4.02943 18 8.99998 18C13.9705 18 18 13.9705 18 8.99998C17.9947 4.03165 13.9683 0.0053111 8.99998 0ZM12.7902 9.28674C12.7279 9.41172 12.6266 9.51305 12.5016 9.57535V9.57855L7.35878 12.15C7.04116 12.3087 6.65507 12.1799 6.49634 11.8623C6.45122 11.772 6.42798 11.6723 6.42854 11.5714V6.42858C6.42839 6.07353 6.71606 5.7856 7.07111 5.78541C7.17097 5.78537 7.26947 5.80857 7.35878 5.85321L12.5016 8.42465C12.8194 8.583 12.9486 8.96898 12.7902 9.28674Z" fill="#F45959"/>
</svg>
