<svg width="12" height="10" viewBox="0 0 12 10"  xmlns="http://www.w3.org/2000/svg">
<path d="M10.5568 1.74979H8.82193V1.57156C8.82193 0.775278 8.17567 0.129021 7.37939 0.129021H4.62029C3.82369 0.129021 3.17775 0.775278 3.17775 1.57156V1.74979H1.44254C0.645937 1.74979 0 2.39573 0 3.19233V8.42843C0 9.22471 0.645937 9.87097 1.44254 9.87097H10.5575C11.3541 9.87097 12 9.22471 12 8.42843V3.19233C11.9994 2.39541 11.3534 1.74979 10.5568 1.74979ZM5.99936 8.37457C4.49655 8.37457 3.27456 7.15258 3.27456 5.64978C3.27456 4.14729 4.49655 2.92498 5.99936 2.92498C7.50216 2.92498 8.72416 4.14697 8.72416 5.64978C8.72416 7.15258 7.50184 8.37457 5.99936 8.37457ZM7.4419 5.64978C7.4419 6.44446 6.79436 7.09232 5.99936 7.09232C5.20436 7.09232 4.55682 6.44446 4.55682 5.64978C4.55682 4.85478 5.20436 4.20724 5.99936 4.20724C6.79436 4.20724 7.4419 4.85478 7.4419 5.64978Z" fill="white"/>
</svg>
