<svg width="17" height="17" viewBox="0 0 17 17" xmlns="http://www.w3.org/2000/svg">
<path d="M8.27191 0.40332H8.26778C3.70799 0.40332 0 4.11235 0 8.67317C0 10.4822 0.583024 12.1589 1.57437 13.5203L0.543742 16.5926L3.72246 15.5764C5.03013 16.4427 6.59003 16.943 8.27191 16.943C12.8317 16.943 16.5397 13.233 16.5397 8.67317C16.5397 4.11338 12.8317 0.40332 8.27191 0.40332ZM13.0839 12.0814C12.8844 12.6448 12.0926 13.112 11.461 13.2485C11.0289 13.3405 10.4645 13.4139 8.56446 12.6262C6.13416 11.6193 4.56909 9.14971 4.44711 8.98949C4.3303 8.82926 3.46507 7.68182 3.46507 6.4951C3.46507 5.30837 4.06773 4.73052 4.31066 4.48242C4.51017 4.27878 4.83993 4.18574 5.15625 4.18574C5.25859 4.18574 5.35059 4.19091 5.43329 4.19504C5.67621 4.20538 5.79819 4.21985 5.95842 4.60337C6.15793 5.08405 6.64379 6.27078 6.70168 6.39276C6.7606 6.51474 6.81952 6.68013 6.73682 6.84036C6.65929 7.00576 6.59107 7.07915 6.46909 7.21974C6.34711 7.36033 6.23133 7.46784 6.10935 7.61876C5.9977 7.75004 5.87159 7.89063 6.01218 8.13356C6.15276 8.37132 6.63862 9.16419 7.35396 9.80097C8.27708 10.6228 9.0255 10.8853 9.29324 10.997C9.49275 11.0797 9.73051 11.0601 9.87626 10.905C10.0613 10.7055 10.2898 10.3747 10.5223 10.0491C10.6877 9.81544 10.8966 9.78649 11.1157 9.86919C11.339 9.94672 12.5205 10.5308 12.7635 10.6517C13.0064 10.7737 13.1666 10.8316 13.2255 10.9339C13.2834 11.0363 13.2834 11.517 13.0839 12.0814Z" fill="#F45959"/>
</svg>
