<svg width="21" height="19" viewBox="0 0 21 19"  xmlns="http://www.w3.org/2000/svg">
<path d="M18.4744 3.81218H15.4384V3.50027C15.4384 2.10678 14.3074 0.97583 12.9139 0.97583H8.08551C6.69146 0.97583 5.56107 2.10678 5.56107 3.50027V3.81218H2.52444C1.13039 3.81218 0 4.94257 0 6.33663V15.4998C0 16.8933 1.13039 18.0242 2.52444 18.0242H18.4756C19.8696 18.0242 21 16.8933 21 15.4998V6.33663C20.9989 4.94201 19.8685 3.81218 18.4744 3.81218ZM10.4989 15.4055C7.86897 15.4055 5.73049 13.2671 5.73049 10.6372C5.73049 8.00781 7.86897 5.86876 10.4989 5.86876C13.1288 5.86876 15.2673 8.00725 15.2673 10.6372C15.2673 13.2671 13.1282 15.4055 10.4989 15.4055ZM13.0233 10.6372C13.0233 12.0278 11.8901 13.1616 10.4989 13.1616C9.10763 13.1616 7.97444 12.0278 7.97444 10.6372C7.97444 9.24591 9.10763 8.11271 10.4989 8.11271C11.8901 8.11271 13.0233 9.24591 13.0233 10.6372Z" fill="#F45959"/>
</svg>
