<svg width="16" height="17" viewBox="0 0 16 17"  xmlns="http://www.w3.org/2000/svg">
<path d="M11.9318 0.402607C9.12034 -0.134202 6.26917 -0.134202 3.45713 0.402607C2.22721 0.677558 0.679872 2.16578 0.377361 3.36285C-0.125787 5.67905 -0.125787 8.02704 0.377361 10.3432C0.679872 11.5403 2.22721 13.0285 3.45713 13.3035C3.45744 13.3035 3.45775 13.3036 3.45806 13.3037C3.51285 13.3145 3.55279 13.3621 3.55279 13.4181V16.8112C3.55279 16.9808 3.75902 17.0643 3.87642 16.9415L5.48214 15.2874C5.48214 15.2874 6.76169 13.969 6.99177 13.732C7.01426 13.7088 7.04532 13.6963 7.0775 13.6971C8.69869 13.7422 10.3216 13.6108 11.9318 13.3035C13.1617 13.0286 14.7096 11.5404 15.0115 10.3433C15.5153 8.0271 15.5153 5.67911 15.0115 3.36291C14.7096 2.16578 13.1623 0.677558 11.9318 0.402607ZM11.9746 10.516C11.7286 11.0402 11.3707 11.4763 10.8544 11.7547C10.7087 11.8333 10.5346 11.8586 10.3702 11.9095C10.1811 11.8519 10.0009 11.8131 9.83357 11.7434C8.09951 11.0213 6.5036 10.0897 5.23945 8.66167C4.52057 7.8496 3.95785 6.93279 3.48228 5.96254C3.25674 5.50242 3.06666 5.02428 2.87292 4.54925C2.69619 4.11607 2.95646 3.66854 3.23046 3.34215C3.48756 3.03584 3.8184 2.80141 4.17669 2.62865C4.45634 2.49379 4.7322 2.57154 4.93644 2.80946C5.37797 3.32382 5.78354 3.8645 6.11195 4.46072C6.31389 4.82745 6.25848 5.27572 5.89249 5.5253C5.80354 5.58596 5.72247 5.65716 5.63961 5.72568C5.56693 5.78572 5.49854 5.84639 5.44872 5.92769C5.35766 6.07638 5.35331 6.25189 5.41195 6.41362C5.86329 7.65857 6.62404 8.62663 7.87247 9.14804C8.0723 9.23146 8.27288 9.3286 8.50302 9.30167C8.88846 9.25646 9.01325 8.83213 9.28334 8.61042C9.54733 8.39377 9.88469 8.3909 10.1691 8.57152C10.4535 8.7522 10.7292 8.94616 11.0033 9.14218C11.2723 9.33459 11.5402 9.52281 11.7883 9.74215C12.0268 9.95301 12.109 10.2297 11.9746 10.516ZM9.73567 6.45913C9.62802 6.46107 9.67033 6.45895 9.71126 6.45776C9.53777 6.45165 9.44341 6.34915 9.42478 6.1825C9.41117 6.06074 9.40043 5.93735 9.37148 5.81889C9.31446 5.58559 9.19091 5.36937 8.99542 5.22641C8.90312 5.15888 8.79851 5.10963 8.68894 5.07796C8.54973 5.03762 8.40519 5.04872 8.26629 5.01455C8.11547 4.97752 8.03205 4.85488 8.05572 4.71285C8.07727 4.58361 8.20256 4.48273 8.34326 4.49295C9.22265 4.55667 9.85115 5.01299 9.94085 6.05213C9.94718 6.12545 9.95464 6.20289 9.93842 6.27303C9.91209 6.38706 9.8309 6.44642 9.74884 6.4572C9.75555 6.45733 9.75425 6.45789 9.73567 6.45913ZM9.18886 4.08252C8.91902 3.94991 8.62719 3.86749 8.33139 3.81836C8.20213 3.79691 8.07149 3.78388 7.94161 3.76574C7.7842 3.74379 7.70022 3.6431 7.70761 3.48742C7.71457 3.34153 7.82079 3.2366 7.97919 3.24557C8.49973 3.27525 9.00251 3.38816 9.46528 3.63412C10.4064 4.13433 10.9439 4.9239 11.1008 5.97819C11.108 6.02595 11.1193 6.07327 11.1229 6.12121C11.1319 6.23955 11.1374 6.35807 11.1465 6.51412C11.1427 6.54255 11.1408 6.60939 11.1242 6.67236C11.064 6.90093 10.7188 6.92954 10.6393 6.69886C10.6157 6.6304 10.6122 6.55253 10.6121 6.47884C10.6113 5.99664 10.5069 5.51495 10.2646 5.09541C10.0156 4.66435 9.63504 4.30186 9.18886 4.08252ZM12.0967 7.34085C11.9149 7.34303 11.8331 7.19034 11.8213 7.02668C11.7979 6.70272 11.7817 6.37733 11.7372 6.05606C11.5024 4.36015 10.1551 2.95709 8.47333 2.65602C8.22026 2.61069 7.96117 2.59879 7.70488 2.57179C7.54282 2.55471 7.33056 2.54486 7.29466 2.34266C7.26453 2.17314 7.40709 2.03816 7.56791 2.02949C7.61164 2.02712 7.65562 2.02912 7.69954 2.02931C9.87767 2.09059 7.83247 2.03405 7.70538 2.02962C9.97091 2.09589 11.831 3.60594 12.2299 5.85468C12.2979 6.23818 12.3222 6.63028 12.3524 7.01951C12.3651 7.18317 12.2727 7.33873 12.0967 7.34085Z" fill="#F45959"/>
</svg>
