<svg width="192" height="26" fill="none" xmlns="http://www.w3.org/2000/svg"><path d="M0 7.448h2.287v3.125c.801-1.153 1.624-1.995 2.469-2.527 1.163-.71 2.386-1.064 3.67-1.064.867 0 1.69.172 2.468.515.78.344 1.416.804 1.91 1.38.493.565.92 1.38 1.283 2.444.768-1.419 1.728-2.494 2.88-3.225 1.152-.743 2.392-1.114 3.719-1.114 1.24 0 2.331.316 3.275.948.954.631 1.662 1.512 2.123 2.643.46 1.13.691 2.826.691 5.087v9.875h-2.353V15.66c0-1.94-.137-3.27-.412-3.99a3.578 3.578 0 00-1.415-1.762c-.658-.443-1.448-.665-2.37-.665a5.181 5.181 0 00-3.077.997c-.922.665-1.596 1.552-2.024 2.66-.428 1.108-.642 2.96-.642 5.553v7.082h-2.288v-9.26c0-2.183-.137-3.663-.411-4.439a3.63 3.63 0 00-1.399-1.878c-.67-.477-1.464-.715-2.386-.715-1.064 0-2.063.327-2.995.98-.922.644-1.607 1.514-2.057 2.61-.44 1.098-.659 2.777-.659 5.038v7.664H0V7.448zm46.72 12.085l1.942 1.03c-.636 1.264-1.371 2.284-2.205 3.06a8.862 8.862 0 01-2.814 1.778c-1.042.4-2.222.599-3.538.599-2.918 0-5.2-.964-6.846-2.893-1.646-1.94-2.469-4.128-2.469-6.566 0-2.294.697-4.339 2.09-6.134 1.767-2.283 4.131-3.425 7.093-3.425 3.05 0 5.486 1.17 7.307 3.508 1.295 1.651 1.953 3.713 1.975 6.184H33.16c.044 2.106.708 3.835 1.992 5.187 1.283 1.34 2.868 2.011 4.755 2.011.911 0 1.794-.16 2.65-.482.867-.321 1.602-.748 2.205-1.28.604-.532 1.256-1.39 1.959-2.577zm0-4.87c-.307-1.242-.756-2.234-1.349-2.976-.581-.743-1.355-1.341-2.32-1.796a7.065 7.065 0 00-3.045-.681c-1.755 0-3.264.57-4.525 1.712-.922.831-1.619 2.078-2.09 3.74h13.33zM71.438.465v25.07h-2.27v-3.11c-.966 1.187-2.052 2.079-3.259 2.677-1.196.599-2.507.898-3.933.898-2.535 0-4.701-.925-6.5-2.776-1.789-1.862-2.683-4.123-2.683-6.783 0-2.604.905-4.832 2.715-6.683 1.81-1.85 3.988-2.776 6.534-2.776 1.47 0 2.797.316 3.982.948 1.196.631 2.244 1.579 3.143 2.842V.465h2.271zm-9.215 8.761a6.855 6.855 0 00-3.555.964c-1.086.632-1.953 1.524-2.6 2.677a7.456 7.456 0 00-.955 3.657c0 1.275.324 2.494.971 3.658.648 1.163 1.514 2.072 2.6 2.726a6.852 6.852 0 003.522.964 7.146 7.146 0 003.588-.964c1.13-.643 1.996-1.513 2.6-2.61.614-1.097.921-2.333.921-3.707 0-2.095-.685-3.846-2.057-5.253-1.36-1.408-3.039-2.112-5.035-2.112zM77.478 0c.527 0 .976.188 1.35.565.373.377.559.831.559 1.363 0 .521-.186.97-.56 1.347a1.83 1.83 0 01-1.349.565 1.81 1.81 0 01-1.333-.565 1.848 1.848 0 01-.56-1.347c0-.532.187-.986.56-1.363A1.811 1.811 0 0177.478 0zm-1.152 7.448h2.32v18.087h-2.32V7.448zm24.932 0v18.087h-2.271v-3.11c-.966 1.187-2.052 2.079-3.258 2.677-1.196.599-2.507.898-3.934.898-2.534 0-4.7-.925-6.5-2.776-1.788-1.862-2.683-4.123-2.683-6.783 0-2.604.906-4.832 2.716-6.683 1.81-1.85 3.988-2.776 6.533-2.776 1.47 0 2.798.316 3.983.948 1.196.631 2.243 1.579 3.143 2.842V7.448h2.271zm-9.216 1.778a6.854 6.854 0 00-3.555.964c-1.086.632-1.952 1.524-2.6 2.677a7.455 7.455 0 00-.954 3.657c0 1.275.323 2.494.97 3.658.648 1.163 1.515 2.072 2.601 2.726a6.852 6.852 0 003.522.964 7.146 7.146 0 003.587-.964c1.13-.643 1.997-1.513 2.6-2.61.615-1.097.922-2.333.922-3.707 0-2.095-.686-3.846-2.057-5.253-1.36-1.408-3.04-2.112-5.036-2.112zm25.08.748l-2.781 2.81c-1.13-1.13-2.156-1.696-3.077-1.696-.505 0-.9.111-1.185.333-.286.21-.428.476-.428.798 0 .244.088.47.263.681.187.2.636.477 1.35.832l1.645.83c1.734.865 2.924 1.746 3.571 2.644.648.898.971 1.95.971 3.159 0 1.606-.587 2.947-1.761 4.023C114.527 25.462 112.964 26 111 26c-2.611 0-4.695-1.03-6.253-3.092l2.764-3.042a6.557 6.557 0 001.844 1.512c.713.377 1.344.566 1.892.566.593 0 1.07-.144 1.432-.432.362-.289.543-.621.543-.998 0-.698-.653-1.38-1.958-2.045l-1.514-.764c-2.897-1.474-4.345-3.32-4.345-5.536 0-1.43.543-2.649 1.629-3.657 1.097-1.02 2.496-1.53 4.197-1.53 1.163 0 2.254.26 3.275.781a7.183 7.183 0 012.616 2.211zm3.9-9.509h4.46v8.811c.878-.764 1.761-1.335 2.65-1.712a6.687 6.687 0 012.699-.582c1.777 0 3.274.62 4.492 1.862 1.042 1.075 1.564 2.654 1.564 4.738v11.953h-4.427v-7.93c0-2.095-.099-3.513-.296-4.256-.198-.742-.538-1.297-1.021-1.662-.472-.366-1.058-.549-1.761-.549-.91 0-1.695.305-2.353.914-.647.61-1.097 1.441-1.349 2.494-.132.543-.198 1.784-.198 3.724v7.265h-4.46V.465zm33.457 6.983h4.476v18.087h-4.476v-1.912c-.878.842-1.761 1.452-2.65 1.828-.877.366-1.832.549-2.863.549-2.315 0-4.317-.903-6.007-2.71-1.689-1.817-2.534-4.073-2.534-6.766 0-2.793.817-5.081 2.452-6.865 1.635-1.785 3.62-2.677 5.957-2.677 1.075 0 2.085.205 3.028.615.944.41 1.816 1.025 2.617 1.845V7.448zm-4.723 3.723c-1.394 0-2.551.5-3.473 1.497-.921.986-1.382 2.255-1.382 3.806 0 1.563.466 2.849 1.399 3.857.943 1.009 2.101 1.513 3.472 1.513 1.415 0 2.589-.493 3.522-1.48.932-.997 1.399-2.3 1.399-3.906 0-1.574-.467-2.848-1.399-3.824-.933-.975-2.112-1.463-3.538-1.463zm12.688-3.723h3.851v2.277c.417-.898.971-1.58 1.662-2.045a3.98 3.98 0 012.271-.698c.581 0 1.19.155 1.827.466l-1.399 3.906c-.527-.266-.96-.399-1.3-.399-.692 0-1.279.432-1.761 1.297-.472.864-.708 2.56-.708 5.087l.017.88v7.316h-4.46V7.448zM174.326.465h4.492v14.447l6.616-7.464h5.628l-7.702 8.677 8.64 9.41h-5.579l-7.603-8.33v8.33h-4.492V.465z" fill="#000"/></svg>