<svg width="34" height="22" viewBox="0 0 34 22" fill="none" xmlns="http://www.w3.org/2000/svg">
<g clip-path="url(#clip0)">
<path d="M21.7858 16.2298L18.7157 13.2991C17.6192 12.2525 15.7552 12.6712 15.3166 14.0318C14.9876 14.9738 13.8911 15.4971 12.9043 15.2878C10.7113 14.7644 7.75079 12.0432 7.20255 9.84521C6.8736 8.90318 7.53149 7.85653 8.51833 7.54258C9.94377 7.12392 10.3824 5.34462 9.28587 4.29797L6.21571 1.36736C5.33852 0.634708 4.02273 0.634708 3.25519 1.36736L1.17186 3.35599C-0.911462 5.44929 1.39116 10.9965 6.54466 15.9158C11.6981 20.835 17.5095 23.1377 19.7025 21.0443L21.7858 19.0557C22.5534 18.2184 22.5534 16.9624 21.7858 16.2298Z" fill="#86A184"/>
</g>
<path d="M25.3848 7.52539L29.1773 11.3178L32.9697 7.52539" stroke="black" stroke-width="2"/>
<defs>
<clipPath id="clip0">
<rect width="22" height="21" fill="white" transform="translate(0.384766 0.817871)"/>
</clipPath>
</defs>
</svg>
