<svg width="17" height="17" viewBox="0 0 17 17" fill="none" xmlns="http://www.w3.org/2000/svg">
<g clip-path="url(#clip0)">
<path d="M15.9133 9.82548C16.3906 5.80749 15.6839 3.27082 14.4093 2.12349L14.4099 2.12282C12.3526 0.163493 5.40461 -0.126506 2.94328 2.21082C1.83795 3.35416 1.44862 5.03216 1.40595 7.10949C1.36328 9.18748 1.31262 13.0801 4.93995 14.1361H4.94328L4.93995 15.7488C4.93995 15.7488 4.91528 16.4021 5.33261 16.5335C5.80995 16.6881 6.02595 16.3848 7.51061 14.6115C9.99328 14.8268 11.8999 14.3335 12.1166 14.2615C12.6179 14.0935 15.4546 13.7181 15.9133 9.82548ZM7.75528 13.4768C7.75528 13.4768 6.18395 15.4361 5.69528 15.9448C5.53528 16.1101 5.35995 16.0948 5.36262 15.7668C5.36262 15.5515 5.37462 13.0895 5.37462 13.0895C2.29928 12.2081 2.48062 8.89349 2.51395 7.15949C2.54728 5.42482 2.86462 4.00416 3.80062 3.04749C5.95995 1.02283 12.0513 1.47549 13.6033 2.93416C15.5006 4.61616 14.8253 9.36815 14.8293 9.53015C14.4393 12.7795 12.1406 12.9855 11.7179 13.1261C11.5373 13.1861 9.86061 13.6175 7.75528 13.4768Z" fill="#86A184"/>
<path d="M8.62463 3.42822C8.36796 3.42822 8.36796 3.82822 8.62463 3.83156C10.616 3.84689 12.256 5.23489 12.274 7.78089C12.274 8.04956 12.6673 8.04622 12.664 7.77756H12.6633C12.642 5.03422 10.8513 3.44356 8.62463 3.42822Z" fill="#86A184"/>
<path d="M11.244 7.35907C11.238 7.62441 11.6307 7.63707 11.634 7.36841C11.6667 5.85574 10.734 4.60974 8.98135 4.47841C8.72468 4.45974 8.69802 4.86308 8.95402 4.88174C10.474 4.99708 11.2747 6.03441 11.244 7.35907Z" fill="#86A184"/>
<path d="M10.8239 9.07963C10.4945 8.88896 10.1592 9.00763 10.0205 9.19496L9.73054 9.57029C9.58321 9.76096 9.30788 9.73563 9.30788 9.73563C7.29854 9.20429 6.76121 7.10163 6.76121 7.10163C6.76121 7.10163 6.73654 6.81696 6.92054 6.66429L7.28321 6.36429C7.46454 6.22029 7.57921 5.87363 7.39454 5.53296C6.90121 4.64163 6.56988 4.33429 6.40121 4.09829C6.22388 3.87629 5.95721 3.82629 5.67988 3.97629H5.67388C5.09721 4.31363 4.46588 4.94496 4.66788 5.59496C5.01254 6.28029 5.64588 8.46496 7.66454 10.1156C8.61321 10.8963 10.1145 11.6963 10.7519 11.881L10.7579 11.8903C11.3859 12.0996 11.9965 11.4436 12.3225 10.8496V10.845C12.4672 10.5576 12.4192 10.2856 12.2079 10.1076C11.8332 9.74229 11.2679 9.33896 10.8239 9.07963Z" fill="#86A184"/>
<path d="M9.25596 5.96626C9.89662 6.00359 10.2073 6.33826 10.2406 7.02559C10.2526 7.29426 10.6426 7.27559 10.6306 7.00693C10.588 6.10959 10.12 5.60959 9.27729 5.56293C9.02063 5.54759 8.99663 5.95093 9.25596 5.96626Z" fill="#86A184"/>
</g>
<defs>
<clipPath id="clip0">
<rect width="16" height="16" fill="white" transform="translate(0.476562 0.563721)"/>
</clipPath>
</defs>
</svg>
