<svg width="14" height="14" viewBox="0 0 14 14" fill="none" xmlns="http://www.w3.org/2000/svg">
<path d="M13.6228 10.0546L11.8086 8.24042C11.1606 7.59249 10.0592 7.85169 9.8 8.69396C9.60563 9.27712 8.9577 9.60108 8.37457 9.47147C7.07872 9.14751 5.32933 7.46291 5.00536 6.10227C4.81099 5.51911 5.19974 4.87118 5.78287 4.67683C6.62517 4.41766 6.88434 3.31619 6.23642 2.66827L4.42223 0.854076C3.90389 0.400529 3.12638 0.400529 2.67283 0.854076L1.44178 2.08513C0.210721 3.38098 1.57136 6.81498 4.61661 9.86023C7.66185 12.9055 11.0959 14.3309 12.3917 13.0351L13.6228 11.804C14.0763 11.2857 14.0763 10.5082 13.6228 10.0546Z" fill="#86A184"/>
</svg>
