<svg width="68" height="77" fill="none" xmlns="http://www.w3.org/2000/svg"><path d="M4.55 68.384c1.184 0 2.094.303 2.792.94.273.243.485.516.607.759.121.243.182.576.182.97 0 .304-.091.547-.304.76a1.007 1.007 0 01-.758.302c-.303 0-.546-.09-.759-.303a1.006 1.006 0 01-.303-.758c0-.152.03-.304.091-.425.06-.122.152-.243.243-.364-.152-.304-.364-.516-.637-.637-.273-.122-.607-.182-1.032-.182-.273 0-.516.06-.758.151-.243.091-.425.273-.607.455s-.303.425-.425.698a3.736 3.736 0 00-.273.88c-.06.334-.09.668-.09 1.001 0 .364.03.698.12 1.001.061.334.183.607.304.88s.303.486.485.698c.182.182.395.364.637.455.243.091.486.152.759.152.364 0 .728-.091 1.062-.304.333-.212.607-.485.819-.85.212-.363.334-.788.394-1.243l1.062.273c-.06.273-.121.516-.182.728-.06.213-.152.455-.273.668-.121.212-.243.424-.364.606-.121.183-.303.334-.485.486a4.162 4.162 0 01-.607.394 4.455 4.455 0 01-.759.243c-.273.06-.606.091-.94.091-.395 0-.789-.03-1.153-.121a6.024 6.024 0 01-.97-.334 3.854 3.854 0 01-.82-.546 3.49 3.49 0 01-.637-.698 4.096 4.096 0 01-.728-1.669 4.63 4.63 0 010-1.82c.06-.303.151-.576.273-.88a4.09 4.09 0 01.455-.789c.182-.242.394-.485.637-.697.243-.213.516-.395.82-.547a3.34 3.34 0 01.97-.333c.364-.06.758-.091 1.153-.091zm7.252.121a4.638 4.638 0 011.153-.121c.394 0 .788.03 1.152.12.365.092.698.213.971.335.304.151.577.333.82.546.242.212.455.424.637.697.182.274.333.516.455.79a4.63 4.63 0 01.273 2.7c-.06.303-.152.576-.273.88a3.349 3.349 0 01-.455.788 4.572 4.572 0 01-.637.698 3.853 3.853 0 01-.82.546 3.34 3.34 0 01-.97.334 4.638 4.638 0 01-1.153.121c-.395 0-.79-.03-1.153-.121a6.026 6.026 0 01-.971-.334 3.855 3.855 0 01-.82-.546 3.49 3.49 0 01-.636-.698 4.096 4.096 0 01-.728-1.668 4.631 4.631 0 010-1.82c.06-.304.151-.577.273-.88.121-.274.273-.547.455-.79.182-.242.394-.485.637-.697a3.86 3.86 0 01.819-.546c.303-.152.607-.243.97-.334zm1.88 1.092c-.212-.121-.454-.152-.727-.152a1.84 1.84 0 00-.729.152c-.212.091-.394.273-.576.455-.152.182-.273.425-.394.698-.122.273-.182.576-.243.88-.06.303-.06.637-.06 1.001 0 .455.03.85.12 1.244.092.394.213.728.365 1.031.151.304.364.516.637.698.273.182.546.243.88.243.333 0 .606-.091.88-.243a2.37 2.37 0 00.637-.698c.151-.303.273-.637.364-1.031.09-.394.121-.789.121-1.244 0-.364-.03-.698-.06-1.001-.061-.304-.122-.607-.243-.88-.122-.273-.243-.516-.395-.698a1.744 1.744 0 00-.576-.455zm4.218-1.092h4.55v1.062h-1.334v6.128h2.123c.091 0 .182-.03.243-.121.06-.06.122-.152.182-.273.03-.122.06-.243.091-.334.03-.121.03-.243.03-.334v-1.061H25v3.215h-7.1v-1.062h1.063v-6.128H17.9v-1.092zm12.287 8.282H25.91v-1.061h1.062v-6.129H25.91v-1.062h4.278c.485 0 .94.061 1.365.152a3.36 3.36 0 011.123.455c.334.213.637.425.88.668.242.242.485.546.637.85.182.303.303.636.394.97.091.334.122.698.122 1.062 0 .364-.03.698-.122 1.062a3.842 3.842 0 01-.394.97 5.65 5.65 0 01-.637.85 3.744 3.744 0 01-.88.667 5.41 5.41 0 01-1.123.456c-.455.03-.88.09-1.365.09zm0-1.061c.334 0 .668-.091.94-.243.274-.152.486-.364.668-.637.182-.273.303-.607.394-.971.091-.364.122-.789.122-1.213 0-.365-.03-.698-.091-1.002a6.933 6.933 0 00-.243-.85 1.683 1.683 0 00-.425-.667 1.465 1.465 0 00-.607-.424 2.149 2.149 0 00-.788-.152h-1.032v6.128h1.062v.03zm12.743-7.343c1.182 0 2.093.304 2.79.941.273.243.486.516.607.758.122.243.182.577.182.971 0 .304-.09.547-.303.759a1.006 1.006 0 01-.759.303c-.303 0-.546-.09-.758-.303a1.006 1.006 0 01-.303-.759.97.97 0 01.09-.424c.061-.122.152-.243.243-.365a1.301 1.301 0 00-.637-.637c-.273-.12-.607-.182-1.031-.182-.273 0-.516.061-.759.152s-.425.273-.607.455-.303.425-.424.698a3.739 3.739 0 00-.273.88 5.555 5.555 0 00-.091 1.001c0 .364.03.698.12 1.001.062.334.183.607.304.88.122.273.304.485.486.698.182.182.394.364.637.455.243.09.485.151.758.151.364 0 .728-.09 1.062-.303a2.44 2.44 0 00.82-.85 2.86 2.86 0 00.394-1.243l1.062.273c-.061.273-.122.516-.182.728a3.127 3.127 0 01-.273.667c-.122.213-.243.425-.365.607-.12.182-.303.334-.485.486a4.16 4.16 0 01-.607.394 4.462 4.462 0 01-.758.243c-.273.06-.607.09-.94.09-.395 0-.79-.03-1.154-.12a6.01 6.01 0 01-.97-.334 3.853 3.853 0 01-.82-.546 3.49 3.49 0 01-.637-.698 4.1 4.1 0 01-.728-1.669 4.628 4.628 0 010-1.82c.06-.304.152-.577.273-.88.122-.273.273-.546.455-.789s.395-.485.637-.698c.243-.212.516-.394.82-.546a3.33 3.33 0 01.97-.333 7.069 7.069 0 011.153-.091zm8.009.122h1.456l3.186 7.22h.819v1.062h-4.278v-1.062h1.062l-.485-1.061h-3.004l-.455 1.061h2.063v1.062h-4.278v-1.062h.88l3.034-7.22zm-.759 5.067h2.094l-.82-1.882c-.12-.242-.181-.485-.242-.728-.091.304-.182.546-.243.728l-.789 1.882zm6.917 3.215v-1.061h1.062v-6.129h-1.062v-1.062h3.459c.82 0 1.456.03 1.911.091.455.061.82.122 1.062.243.243.121.486.273.698.486.182.182.334.424.425.728.09.303.151.606.151.94 0 1.032-.515 1.76-1.517 2.185.365.303.607.819.698 1.486 0 .06.03.152.03.273.031.122.031.213.031.273 0 .06.03.122.03.213.03.09.03.151.03.182 0 .03.031.09.061.121.03.03.03.091.061.091.03.03.06.03.091.03.06 0 .121-.03.182-.09.06-.061.091-.152.121-.274.03-.121.061-.242.061-.333.03-.091.03-.243.06-.395v-.09l.941.09c-.03.213-.03.395-.06.516s-.03.273-.091.455-.091.303-.122.425c-.06.09-.121.212-.212.334a.86.86 0 01-.303.272c-.122.061-.243.122-.425.152a3.05 3.05 0 01-.577.06c-.151 0-.303 0-.425-.03-.12-.03-.242-.03-.364-.06a3.855 3.855 0 01-.303-.091.661.661 0 01-.243-.152c-.06-.06-.151-.121-.212-.182a1.672 1.672 0 01-.182-.243 1.412 1.412 0 01-.152-.303 2.968 2.968 0 00-.151-.334c-.061-.151-.091-.273-.122-.394-.03-.121-.09-.273-.121-.455a3.25 3.25 0 00-.182-.516 1.25 1.25 0 00-.212-.334.717.717 0 00-.274-.182c-.12-.03-.242-.06-.424-.06h-.395v2.123h1.062v1.062h-4.096v-.06zm3.186-4.277h.546c1.062 0 1.608-.486 1.608-1.457 0-.181 0-.333-.03-.455-.03-.12-.061-.273-.122-.394a1.349 1.349 0 00-.242-.334c-.091-.09-.213-.151-.395-.212a1.471 1.471 0 00-.546-.091h-.789v2.943h-.03zm-1.972-7.585H0V7.827C0 3.52 3.52 0 7.827 0h50.514c4.308 0 7.828 3.52 7.828 7.827v49.3c-.03 4.279-3.55 7.798-7.858 7.798zM4.854 60.07h53.457a2.978 2.978 0 002.973-2.974V7.827a2.978 2.978 0 00-2.973-2.973H7.827a2.978 2.978 0 00-2.973 2.973v52.244z" fill="#A3B0C1"/><path d="M38.898 1.186L2.148 38.448l2.161 2.13 36.75-37.262-2.16-2.13zm22.452.304L24.6 38.752l2.16 2.13L63.51 3.62l-2.16-2.13zm0 21.845L24.6 60.597l2.16 2.13 36.75-37.262-2.16-2.13z" fill="#A3B0C1"/><path d="M28.276 61.648h-3.034v-21.45H2.427v-3.033h25.849v24.483z" fill="#A3B0C1"/><path d="M61.254 21.267l6.401-6.401V1.82l-6.37 6.371-5.826 5.825" fill="#DE001F"/><path d="M55.46 14.017l-6.311 6.31v13.046l6.432-6.432" fill="#009647"/><path d="M55.58 26.91l5.674-5.673.03-13.076-5.825 5.825.122 12.924z" fill="#fff"/></svg>