<svg width="108" height="122" fill="none" xmlns="http://www.w3.org/2000/svg"><path d="M7.21 108.348c1.875 0 3.317.481 4.423 1.491.432.384.769.817.961 1.201.192.385.289.914.289 1.538 0 .481-.145.866-.481 1.202-.337.337-.721.481-1.202.481-.48 0-.865-.144-1.202-.481-.336-.336-.48-.721-.48-1.202 0-.24.048-.48.144-.672.096-.193.24-.385.384-.577-.24-.481-.576-.817-1.009-1.01-.433-.192-.961-.288-1.634-.288-.433 0-.818.096-1.202.24-.385.144-.673.433-.961.721-.289.289-.481.673-.673 1.106a5.906 5.906 0 00-.433 1.394 8.847 8.847 0 00-.144 1.586c0 .577.048 1.106.192 1.586.096.529.288.962.48 1.394.193.433.481.769.77 1.106.288.288.625.577 1.01.721.384.144.768.24 1.201.24.577 0 1.154-.144 1.682-.48a3.877 3.877 0 001.298-1.346c.337-.577.529-1.25.625-1.971l1.683.432c-.096.433-.193.818-.289 1.154-.096.337-.24.721-.432 1.058-.193.336-.385.673-.577.961-.192.288-.48.529-.77.769-.288.241-.624.433-.96.625a7.2 7.2 0 01-1.202.385 7.135 7.135 0 01-1.49.144c-.626 0-1.25-.048-1.827-.192a9.643 9.643 0 01-1.538-.529 6.15 6.15 0 01-1.298-.865c-.385-.337-.721-.673-1.01-1.106a6.491 6.491 0 01-.72-1.25 6.697 6.697 0 01-.433-1.394 7.336 7.336 0 010-2.884 7.75 7.75 0 01.432-1.394c.192-.433.433-.865.721-1.25a7.242 7.242 0 011.01-1.105 6.115 6.115 0 011.298-.866c.48-.24.96-.432 1.538-.528a11.152 11.152 0 011.826-.145zm11.489.192c.577-.144 1.153-.192 1.826-.192.625 0 1.25.048 1.827.192a9.643 9.643 0 011.538.529c.481.241.914.529 1.298.865.385.337.721.673 1.01 1.106.288.433.528.817.72 1.25a6.7 6.7 0 01.433 1.394 7.339 7.339 0 010 2.884c-.096.481-.24.913-.432 1.394a5.31 5.31 0 01-.721 1.25 7.24 7.24 0 01-1.01 1.105 6.113 6.113 0 01-1.298.866c-.48.24-.961.432-1.538.528-.577.145-1.154.193-1.827.193-.624 0-1.25-.048-1.826-.193a9.548 9.548 0 01-1.538-.528 6.117 6.117 0 01-1.298-.866c-.385-.336-.721-.673-1.01-1.105a6.494 6.494 0 01-1.153-2.644 7.339 7.339 0 010-2.884 7.76 7.76 0 01.432-1.394c.193-.433.433-.865.721-1.25a7.25 7.25 0 011.01-1.106 6.151 6.151 0 011.298-.865c.48-.24.961-.384 1.538-.529zm2.98 1.731c-.336-.192-.72-.24-1.154-.24-.432 0-.817.096-1.153.24-.337.144-.625.433-.913.721-.24.288-.433.673-.625 1.106-.193.432-.289.913-.385 1.394-.096.48-.096 1.009-.096 1.586 0 .721.048 1.346.192 1.971a7.23 7.23 0 00.577 1.634c.24.481.577.817 1.01 1.106.432.288.865.384 1.393.384.53 0 .962-.144 1.394-.384a3.76 3.76 0 001.01-1.106 7.24 7.24 0 00.577-1.634c.144-.625.192-1.25.192-1.971 0-.577-.048-1.106-.096-1.586-.096-.481-.192-.962-.385-1.394-.192-.433-.384-.818-.625-1.106a2.767 2.767 0 00-.913-.721zm6.681-1.73h7.211v1.682h-2.115v9.71h3.365a.437.437 0 00.384-.192c.097-.096.193-.241.289-.433.048-.192.096-.385.144-.529.048-.192.048-.384.048-.529v-1.682h1.923v5.095H28.36v-1.682h1.682v-9.71H28.36v-1.73zm19.469 13.122H41.05v-1.682h1.682v-9.71H41.05v-1.682h6.778c.769 0 1.49.096 2.163.24a5.32 5.32 0 011.778.721c.53.336 1.01.673 1.394 1.058.385.384.77.865 1.01 1.345.288.481.48 1.01.625 1.539.144.528.192 1.105.192 1.682s-.048 1.106-.192 1.683c-.144.528-.337 1.057-.625 1.538-.288.48-.625.913-1.01 1.346a5.936 5.936 0 01-1.394 1.057 8.534 8.534 0 01-1.778.721c-.721.048-1.394.144-2.163.144zm0-1.682c.529 0 1.057-.144 1.49-.385.432-.24.769-.576 1.057-1.009.289-.433.481-.961.625-1.538.145-.577.193-1.25.193-1.923 0-.577-.048-1.106-.145-1.586-.096-.481-.24-.914-.384-1.346a2.67 2.67 0 00-.673-1.058 2.333 2.333 0 00-.961-.673 3.408 3.408 0 00-1.25-.24h-1.635v9.71h1.683v.048zm20.189-11.633c1.874 0 3.317.481 4.422 1.49.433.385.77.817.962 1.202.192.385.288.913.288 1.538 0 .481-.144.865-.48 1.202-.337.336-.722.481-1.203.481-.48 0-.865-.145-1.201-.481-.337-.337-.48-.721-.48-1.202 0-.24.047-.48.143-.673.096-.192.24-.384.385-.577-.24-.48-.577-.817-1.01-1.009-.432-.192-.961-.288-1.634-.288-.433 0-.817.096-1.202.24-.384.144-.673.433-.961.721-.288.288-.48.673-.673 1.106a5.908 5.908 0 00-.433 1.394 8.843 8.843 0 00-.144 1.586c0 .577.048 1.105.192 1.586.096.529.289.961.481 1.394.192.433.48.769.77 1.106.288.288.624.577 1.009.721.384.144.769.24 1.201.24a3.09 3.09 0 001.683-.481 3.869 3.869 0 001.298-1.346 4.527 4.527 0 00.625-1.97l1.682.432a20.22 20.22 0 01-.288 1.154 4.91 4.91 0 01-.433 1.057c-.192.337-.385.673-.577.962-.192.288-.48.529-.769.769-.288.24-.625.433-.961.625-.337.144-.77.288-1.202.384a7.065 7.065 0 01-1.49.145c-.625 0-1.25-.048-1.827-.193a9.548 9.548 0 01-1.538-.528 6.117 6.117 0 01-1.298-.866c-.384-.336-.721-.673-1.01-1.105a6.488 6.488 0 01-.72-1.25 6.718 6.718 0 01-.433-1.394 7.339 7.339 0 010-2.884c.096-.481.24-.914.433-1.394.192-.433.432-.866.72-1.25a7.25 7.25 0 011.01-1.106 6.113 6.113 0 011.298-.865c.48-.24.961-.433 1.538-.529a11.267 11.267 0 011.827-.144zm12.69.193h2.308l5.047 11.44h1.298v1.682h-6.778v-1.682h1.682l-.769-1.682h-4.759l-.72 1.682h3.268v1.682h-6.778v-1.682h1.394l4.807-11.44zm-1.201 8.027h3.316l-1.298-2.98c-.192-.385-.288-.769-.384-1.154-.144.481-.289.865-.385 1.154l-1.25 2.98zm10.959 5.095v-1.682h1.683v-9.71h-1.683v-1.682h5.48c1.298 0 2.307.048 3.028.144.721.096 1.298.192 1.683.384.384.193.769.433 1.105.769.289.289.529.673.673 1.154.144.481.241.962.241 1.49 0 1.635-.818 2.788-2.404 3.461.577.481.962 1.298 1.106 2.356 0 .096.048.24.048.432.048.193.048.337.048.433 0 .096.048.192.048.336a.852.852 0 01.048.289c0 .048.048.144.096.192.048.048.048.144.096.144.048.048.096.048.145.048.096 0 .192-.048.288-.144.096-.096.144-.24.192-.432.048-.193.096-.385.096-.529.048-.144.048-.385.096-.625v-.144l1.491.144c-.048.336-.048.625-.097.817-.048.192-.048.433-.144.721-.096.289-.144.481-.192.673-.096.144-.192.337-.336.529-.145.192-.289.336-.481.432a2.172 2.172 0 01-.673.241c-.24.048-.577.096-.913.096-.241 0-.481 0-.673-.048-.193-.048-.385-.048-.577-.096a6.064 6.064 0 01-.48-.144 1.061 1.061 0 01-.386-.241c-.096-.096-.24-.192-.336-.288-.096-.096-.192-.241-.288-.385a2.223 2.223 0 01-.24-.481 4.89 4.89 0 00-.241-.528c-.096-.241-.144-.433-.192-.625-.048-.192-.145-.433-.193-.721a5.12 5.12 0 00-.288-.817c-.096-.193-.192-.385-.337-.529a1.152 1.152 0 00-.432-.289 2.508 2.508 0 00-.673-.096h-.625v3.365h1.682v1.683h-6.489v-.097zm5.047-6.777h.866c1.682 0 2.547-.769 2.547-2.308 0-.288 0-.528-.048-.721-.048-.192-.096-.432-.192-.625a2.133 2.133 0 00-.385-.528c-.144-.145-.336-.241-.625-.337a2.331 2.331 0 00-.865-.144h-1.25v4.663h-.048zm-3.124-12.018H0V12.402C0 5.576 5.576 0 12.402 0h80.035c6.826 0 12.402 5.576 12.402 12.402v78.112c-.048 6.778-5.624 12.354-12.45 12.354zM7.69 95.177h84.7a4.718 4.718 0 004.71-4.71V12.401a4.718 4.718 0 00-4.71-4.71H12.402a4.718 4.718 0 00-4.71 4.71v82.775z" fill="#A3B0C1"/><path d="M61.63 1.879L3.406 60.917l3.422 3.376L65.053 5.254 61.631 1.88zm35.573.481L38.977 61.4l3.423 3.375 58.226-59.039-3.423-3.375zm0 34.612L38.977 96.011l3.422 3.375 58.226-59.038-3.422-3.376z" fill="#A3B0C1"/><path d="M44.8 97.676h-4.806V63.691H3.846v-4.806H44.8v38.791z" fill="#A3B0C1"/><path d="M97.052 33.696l10.142-10.143V2.883L97.1 12.979l-9.23 9.23" fill="#DE001F"/><path d="M87.87 22.208l-9.998 9.998v20.67l10.19-10.19" fill="#009647"/><path d="M88.063 42.637l8.989-8.989.048-20.718-9.23 9.23.193 20.477z" fill="#fff"/></svg>