<?xml version="1.0" encoding="utf-8"?><svg viewBox="0 0 61 58" xmlns="http://www.w3.org/2000/svg" xmlns:xlink="http://www.w3.org/1999/xlink"><style>:root>svg{display:none}:root>svg:target{display:block}</style><svg fill="none" viewBox="0 0 51 51" id="icon-ad_01" xmlns="http://www.w3.org/2000/svg"><g clip-path="url(#aclip0)" fill="#FAC234"><path d="M25.616 9.525c-6.855 0-12.432 5.576-12.432 12.432 0 2.146.563 4.27 1.626 6.14 1.717 3.603 2.51 7.535 2.88 10.452h-2.487a.758.758 0 00-.758.758v6.724a2.75 2.75 0 002.747 2.746h1.991A2.986 2.986 0 0022.066 51H28.7a2.985 2.985 0 002.882-2.224h1.992a2.75 2.75 0 002.746-2.746v-6.724a.758.758 0 00-.758-.758h-2.02c.37-2.912 1.158-6.834 2.845-10.385a12.43 12.43 0 001.66-6.207c0-6.854-5.577-12.431-12.432-12.431zm9.19 36.505c0 .679-.552 1.231-1.23 1.231l-2.653.001a.758.758 0 00-.757.758c0 .808-.657 1.465-1.465 1.465h-6.635a1.467 1.467 0 01-1.465-1.466.758.758 0 00-.758-.758h-2.651a1.233 1.233 0 01-1.232-1.23v-5.967h18.847v5.966zm-11.01-16.114c-.781-.949-2-1.17-2.07-1.18a.758.758 0 00-.25 1.494c.014.002 1.271.224 1.43 1.298.023.151.043.354.06.58h-.811c-.926 0-1.55-.256-1.908-.786-.641-.947-.427-2.64-.105-3.916.733.625 1.542.76 2.144.86.197.032.382.06.546.112.425.135.69.36.834.705.101.242.134.53.13.833zm2.818-7.318c.274-.66.79-1.1 1.575-1.35.253-.081.576-.135.916-.192 1.084-.18 2.481-.413 3.652-1.742.616 2.114 1.187 5.4-.028 7.199-.648.958-1.743 1.424-3.349 1.424h-1.736c.038-.574.082-1.058.134-1.405.29-1.963 2.493-2.377 2.597-2.395a.756.756 0 00-.252-1.494c-.123.02-2.7.482-3.592 2.735-.198-.977-.243-1.996.083-2.78zm8.434 4.862c-1.833 3.85-2.661 8.044-3.036 11.09h-4.606c0-.071.002-5.392.157-9.097h1.816c2.117 0 3.666-.704 4.604-2.09 2.311-3.42-.194-9.762-.302-10.03a.758.758 0 00-1.381-.056c-.934 1.868-2.211 2.08-3.445 2.286-.396.065-.77.128-1.126.241-1.22.388-2.067 1.134-2.516 2.216-1.004 2.42.412 5.792.865 6.758-.185 3.718-.188 9.464-.188 9.772h-1.237c-.006-1.156-.027-3.723-.116-5.573.34-.732 1.197-2.862.528-4.474-.315-.757-.928-1.3-1.775-1.57-.247-.079-.505-.12-.757-.163-.786-.13-1.464-.243-1.997-1.31a.757.757 0 00-1.38.056c-.18.443-1.696 4.392-.168 6.653.653.965 1.717 1.454 3.165 1.454h.895c.065 1.723.084 3.89.088 4.926h-3.918c-.375-3.05-1.205-7.25-3.043-11.108a1.327 1.327 0 00-.046-.093 10.92 10.92 0 01-1.433-5.392c0-6.02 4.898-10.917 10.918-10.917s10.917 4.897 10.917 10.917a10.967 10.967 0 01-1.483 5.504zM24.86.758v5.587a.758.758 0 001.515 0V.758a.758.758 0 00-1.516 0zM40.547 6.282a.756.756 0 00-1.07 0l-3.952 3.951a.756.756 0 00.536 1.293.755.755 0 00.536-.222l3.95-3.95a.756.756 0 000-1.072zM10.615 6.118a.757.757 0 000 1.071l3.95 3.951a.756.756 0 001.072 0 .757.757 0 000-1.071l-3.951-3.951a.756.756 0 00-1.071 0zM4.334 21.05c0 .419.34.758.758.758h5.587a.758.758 0 000-1.515H5.092a.757.757 0 00-.758.758zM45.908 20.525H40.32a.758.758 0 000 1.516h5.588a.758.758 0 000-1.516z"/></g><defs><clipPath id="aclip0"><path fill="#fff" d="M0 0h51v51H0z"/></clipPath></defs></svg><svg fill="none" viewBox="0 0 47 47" id="icon-ad_02" xmlns="http://www.w3.org/2000/svg"><g clip-path="url(#bclip0)"><path d="M35.984 39.063l.001-13.207c0-.353-.137-.684-.387-.934a1.314 1.314 0 00-.936-.387h-2.506a1.313 1.313 0 00-1.3 1.092v-3.426c0-.051-.002-.102-.008-.151.04-.428-.13-.852-.46-1.132l-4.795-4.049a9.654 9.654 0 004.634-8.217A9.558 9.558 0 0024.931.07a.64.64 0 00-.926.57v7.374h-6.767V.64a.64.64 0 00-.927-.571 9.562 9.562 0 00-5.295 8.583 9.649 9.649 0 005.16 8.516v7.367h-2.648a1.325 1.325 0 00-1.323 1.322v2.277c0 .25.074.483.196.684a1.31 1.31 0 00-.196.682v2.278c0 .25.074.482.195.681a1.307 1.307 0 00-.194.684v2.277c0 .251.073.483.195.684-.122.2-.196.432-.196.683v2.277c0 .728.593 1.322 1.322 1.323h2.65v2.168A4.45 4.45 0 0020.62 47h.002a4.45 4.45 0 004.444-4.445V39.86c.035.047.07.095.113.138.25.25.582.387.936.387h3.42a1.32 1.32 0 001.311-1.215 1.32 1.32 0 001.311 1.215h2.508c.352 0 .684-.138.934-.389.249-.248.385-.58.385-.933zM17.088 16.19a8.362 8.362 0 01-4.793-7.54 8.28 8.28 0 013.664-6.898v6.9c0 .353.286.639.64.639h8.045a.64.64 0 00.64-.64v-6.9a8.276 8.276 0 013.664 6.9 8.366 8.366 0 01-4.794 7.54.637.637 0 00-.288.27c-.01.002-.018.007-.027.01-.049.013-.095.034-.142.052-.044.016-.09.029-.132.052-.088.044-.171.098-.247.162l-4.95 4.18a1.325 1.325 0 00-.157 1.864l1.468 1.74.01.013h-2.234V16.77a.638.638 0 00-.367-.58zm-3.561 19.273l-.039.003-.003-.047.043-2.32h3.31l3.212.043-.042 2.32h-6.481zm-.042-3.686l.043-2.322h3.288l3.236.043-.044 2.32-6.479.002c-.014 0-.027.003-.04.003l-.005-.047zm.043-5.965h3.288l3.236.043-.044 2.32h-3.192l-3.33-.043.042-2.32zm0 13.934l-.043-.683.043-2.32h3.312l3.212.042-.044 2.321h-6.48v.64zm7.092 5.973a3.169 3.169 0 01-3.165-3.166v-2.168h2.553c.73 0 1.322-.593 1.322-1.322v-2.278c0-.112-.018-.22-.044-.323-.008-.03-.019-.059-.028-.088a1.34 1.34 0 00-.095-.218c-.01-.017-.013-.036-.023-.053.008-.014.011-.03.019-.044a1.287 1.287 0 00.126-.315c.027-.106.045-.213.045-.324v-2.277c0-.112-.02-.22-.045-.324-.008-.03-.018-.057-.027-.087a1.293 1.293 0 00-.097-.22c-.008-.016-.012-.035-.021-.051.01-.015.013-.033.02-.05a1.28 1.28 0 00.127-.314c.025-.104.043-.21.042-.319v-2.278c0-.112-.018-.22-.044-.323-.008-.03-.018-.06-.027-.088a1.32 1.32 0 00-.097-.222c-.008-.015-.012-.034-.022-.05.01-.016.014-.035.022-.05.039-.071.071-.144.096-.222.01-.03.02-.057.027-.088.027-.104.045-.211.045-.323v-2.277c0-.089-.01-.176-.026-.26-.005-.027-.016-.054-.024-.082-.015-.054-.028-.109-.05-.16-.013-.032-.03-.06-.046-.091-.022-.044-.043-.089-.07-.13-.02-.03-.043-.057-.066-.085-.023-.03-.044-.062-.069-.09.036-.009.068-.026.103-.037l.03-.01a1.195 1.195 0 00.432-.233l2.243-1.894v19.768a3.17 3.17 0 01-3.166 3.166zm8.957-6.658a.043.043 0 01-.043.044l-3.463-.044V22.337a.64.64 0 00-.226-.488L24.839 21l-.051-.043a.646.646 0 00-.195-.112c-.031-.01-.066-.01-.098-.016-.038-.007-.077-.02-.117-.02a.64.64 0 00-.162.028c-.018.005-.037.003-.055.01a.64.64 0 00-.195.113l-3.308 2.736-1.464-1.8 4.992-4.187a.5.5 0 00.315.017c.016-.003.095-.007.111-.012l4.962 4.221a.63.63 0 00.004.266v16.86zm5.128.001c0 .02-.021.043-.04.043l-2.55-.043.042-13.25 2.549.043v13.207z" fill="#FAC234"/></g><defs><clipPath id="bclip0"><path fill="#fff" d="M0 0h47v47H0z"/></clipPath></defs></svg><svg fill="none" viewBox="0 0 48 48" id="icon-ad_03" xmlns="http://www.w3.org/2000/svg"><g clip-path="url(#cclip0)" fill="#FABF31"><path d="M18.492 16.5a.728.728 0 01-.422-.134c-.01-.008-1.16-.802-2.924-.962-1.368-.127-1.784.593-1.822.67a.75.75 0 01-.515.403.726.726 0 01-.628-.158L7.626 12.31a.73.73 0 01-.035-1.062c.018-.018 1.757-1.783 3.136-4.715C11.894 4.056 17.643.38 23.197.38c2.785 0 5.168.889 7.083 2.641a.728.728 0 01-.487 1.267l-.911.007c-.063-.002-.152-.007-.305-.007-1.158 0-4.987.258-6.894 3.485l1.833 3.665a.73.73 0 01-.16.864l-4.371 4.007a.735.735 0 01-.493.191zm-3.661-2.569c.14 0 .29.007.447.021a8.333 8.333 0 013.119.917l3.569-3.271-1.759-3.517a.726.726 0 01.005-.661c1.834-3.526 5.402-4.36 7.372-4.542-1.287-.691-2.755-1.04-4.388-1.04-5.082 0-10.273 3.449-11.151 5.317a20.793 20.793 0 01-2.904 4.549l3.427 3.015c.47-.418 1.208-.788 2.263-.788zM9.018 21.233a.732.732 0 01-.472-.174l-4.92-4.19a.733.733 0 01-.254-.503.723.723 0 01.18-.533l2.733-3.098a.734.734 0 01.501-.245.733.733 0 01.528.181l4.737 4.19c.294.26.33.707.079 1.01l-2.55 3.097a.723.723 0 01-.562.265zm-3.882-4.994l3.79 3.23 1.633-1.983-3.664-3.24-1.76 1.993zM41.972 41.263c-.404 0-.764-.088-1.069-.265a.739.739 0 01-.167-.133L19.19 17.832a.73.73 0 01.053-1.047l5.01-4.373a.73.73 0 01.988.028l9.975 9.732L47.669 34.12c.07.068.125.148.164.238.532 1.232-.23 3.18-1.898 4.848-1.27 1.268-2.788 2.057-3.963 2.057zm-.265-1.495c.514.174 1.89-.286 3.197-1.594 1.27-1.27 1.735-2.567 1.624-3.13L34.202 23.22l-9.498-9.267-3.935 3.434 20.938 22.381zM4.828 33.045a.733.733 0 01-.416-.13l-2.095-1.457a.73.73 0 01.415-1.328h4.19a.73.73 0 01.417 1.328l-2.095 1.457a.734.734 0 01-.416.13z"/><path d="M4.828 43.52a.728.728 0 01-.728-.729V32.316a.728.728 0 111.457 0v10.475a.727.727 0 01-.729.73z"/><path d="M44.088 47.62H.728A.728.728 0 010 46.89v-4.098c0-.403.326-.729.729-.729h43.359c.403 0 .729.326.729.729v4.099a.728.728 0 01-.729.729zm-42.63-1.458h41.901V43.52H1.458v2.642z"/></g><defs><clipPath id="cclip0"><path fill="#fff" d="M0 0h48v48H0z"/></clipPath></defs></svg><svg fill="none" viewBox="0 0 10 6" id="icon-arrow" xmlns="http://www.w3.org/2000/svg"><path d="M1 .572l4 3.81 4-3.81" stroke="#fff"/></svg><svg fill="none" viewBox="0 0 55 46" id="icon-articles" xmlns="http://www.w3.org/2000/svg"><path d="M31 2l21 21m0 0L31 44m21-21H0" stroke="url(#epaint0_linear)" stroke-width="3"/><defs><linearGradient id="epaint0_linear" x1="6.649" y1="5.5" x2="67.228" y2="10.178" gradientUnits="userSpaceOnUse"><stop offset=".012" stop-color="#FAC336"/><stop offset="1" stop-color="#F6A103"/></linearGradient></defs></svg><svg fill="none" viewBox="0 0 15 15" id="icon-dw_01" xmlns="http://www.w3.org/2000/svg"><path d="M12.005 8.16L7.5 12.664 2.995 8.159l.828-.828 3.091 3.09V0h1.172v10.421l3.09-3.09.83.828zM15 13.827H0V15h15v-1.172z" fill="url(#fpaint0_linear)"/><defs><linearGradient id="fpaint0_linear" x1="1.918" y1="1.25" x2="19.429" y2="2.342" gradientUnits="userSpaceOnUse"><stop offset=".012" stop-color="#FAC336"/><stop offset="1" stop-color="#F6A103"/></linearGradient></defs></svg><svg fill="none" viewBox="0 0 36 36" id="icon-modal_loop" xmlns="http://www.w3.org/2000/svg"><path d="M13.04 24.704c6.443 0 11.667-5.223 11.667-11.667 0-6.443-5.224-11.666-11.667-11.666-6.444 0-11.667 5.223-11.667 11.666 0 6.444 5.223 11.667 11.667 11.667z" fill="#EEEFEE"/><path d="M21.904 24.72l.15.151 2.827-2.825-.15-.151-2.827 2.826z" fill="#475F6C"/><path d="M3.864 3.866A12.977 12.977 0 0020.7 23.517l1.203 1.204 2.826-2.827-1.203-1.204A12.978 12.978 0 003.864 3.866zm16.965 16.965a11.016 11.016 0 110-15.579 11.043 11.043 0 010 15.58z" fill="#575B6D"/><path d="M34.642 29.386L25.57 21.55l-4.017 4.019 7.827 9.076a3.73 3.73 0 105.262-5.26z" fill="#8E8E8E"/><path d="M26.555 21.315a.852.852 0 01.097 1.107.517.517 0 01-.097.118l-4.018 4.018a.875.875 0 01-1.236-1.236l4.018-4.018a.868.868 0 011.236.01z" fill="#FFE8C8"/><path d="M8.762 10.13a4.043 4.043 0 011.324-2.8 4.318 4.318 0 012.969-1.033 4.544 4.544 0 013.083 1.017 3.275 3.275 0 011.177 2.592 3.46 3.46 0 01-.403 1.646 6.067 6.067 0 01-1.514 1.68 5.185 5.185 0 00-1.365 1.468 4.7 4.7 0 00-.254 1.822h-1.59c-.05-.84.083-1.68.389-2.463a5.612 5.612 0 011.433-1.669c.503-.38.941-.84 1.298-1.36.166-.31.253-.655.253-1.006a2.298 2.298 0 00-.688-1.714 2.46 2.46 0 00-1.799-.673c-1.446 0-2.296.83-2.55 2.493H8.763zm5.206 9.647h-1.852v-1.853h1.853l-.001 1.853z" fill="#575B6D"/></svg><svg fill="none" viewBox="0 0 32 39" id="icon-modal_page" xmlns="http://www.w3.org/2000/svg"><path d="M24.2 3.394L6.079.259.311 33.602l25.66 4.438 4.464-25.805L24.2 3.394z" fill="#00C8C8"/><path d="M30.435 12.235L24.2 3.393l-5.334-.922L13.1 35.813 25.97 38.04l4.464-25.805z" fill="#1CADB5"/><path d="M22.9 10.931l7.537 1.304-6.234-8.841L22.9 10.93z" fill="#02818E"/><path d="M7.336 15.428l-2.63 15.2 18.123 3.136 2.63-15.201-18.123-3.135zm5.885 15.14l-6.605-1.142.325-1.877 6.605 1.143-.325 1.877zm.587-3.392l-6.605-1.142.324-1.877 6.605 1.143-.324 1.877zm.622-3.595L7.825 22.44l.324-1.877 6.605 1.143-.324 1.876zm.586-3.392l-6.605-1.142.325-1.877 6.605 1.143-.325 1.876zm6.612 11.834l-6.605-1.143.324-1.876 6.605 1.142-.325 1.877zm.586-3.393l-6.605-1.142.325-1.876 6.605 1.142-.325 1.877zm.622-3.595l-6.605-1.142.325-1.877 6.605 1.143-.325 1.876zm.587-3.392l-6.605-1.142.324-1.877 6.605 1.143-.324 1.876z" fill="#0092AA"/><path d="M25.462 18.563l-9.103-1.575-2.629 15.2 9.103 1.575 2.629-15.2zm-3.831 13.46l-6.605-1.143.324-1.877 6.605 1.143-.324 1.876zm.587-3.393l-6.606-1.142.325-1.877 6.605 1.143-.325 1.876zm.621-3.595l-6.605-1.142.325-1.877 6.605 1.143-.325 1.876zm.587-3.392l-6.605-1.142.325-1.877 6.605 1.143-.325 1.876z" fill="#02818E"/></svg><svg fill="none" viewBox="0 0 33 30" id="icon-modal_tel" xmlns="http://www.w3.org/2000/svg"><path d="M12.31 17.498c2.713 2.714 5.74 4.104 6.747 3.097l1.27-1.27a2.481 2.481 0 013.507 0l2.805 2.805a3.47 3.47 0 010 4.908l-1.973 1.973c-2.445 2.444-9.77-.917-16.36-7.509-3.295-3.297-5.783-6.776-7.142-9.736C-.195 8.805-.426 6.363.798 5.14l1.973-1.973a3.47 3.47 0 014.909 0l2.805 2.804a2.48 2.48 0 010 3.507l-1.271 1.27c-1.008 1.008.38 4.035 3.095 6.75z" fill="#575B6D"/><path d="M32.497 1.298v9.033a1.297 1.297 0 01-1.298 1.298h-9.573l-3.932 3.437v-3.438H16.34a1.298 1.298 0 01-1.298-1.298V1.298A1.298 1.298 0 0116.34 0h14.858a1.298 1.298 0 011.3 1.298z" fill="#EEEFEE"/><path d="M19.885 5.814a1.176 1.176 0 11-2.352 0 1.176 1.176 0 012.352 0zM24.947 5.814a1.176 1.176 0 11-2.353 0 1.176 1.176 0 012.353 0zM30.007 5.814a1.177 1.177 0 11-2.354 0 1.177 1.177 0 012.354 0z" fill="#575B6D"/></svg><svg fill="none" viewBox="0 0 56 56" id="icon-money" xmlns="http://www.w3.org/2000/svg"><path d="M28.73 30.562a.875.875 0 00-.315-.01 2.088 2.088 0 01-1.847-2.071.919.919 0 00-1.837 0 3.93 3.93 0 002.889 3.783v.919a.919.919 0 001.837 0v-.863a3.922 3.922 0 00-.804-7.762 2.086 2.086 0 112.086-2.085.919.919 0 001.837 0 3.93 3.93 0 00-3.119-3.84v-.836a.919.919 0 00-1.837 0v.892a3.923 3.923 0 001.033 7.706 2.084 2.084 0 01.077 4.167z" fill="url(#jpaint0_linear)"/><path d="M15.336 25.548c0 7.356 5.963 13.32 13.32 13.32s13.32-5.964 13.32-13.32c0-7.357-5.963-13.32-13.32-13.32-7.353.008-13.311 5.967-13.32 13.32zm13.32-11.483c6.342 0 11.483 5.14 11.483 11.483 0 6.342-5.141 11.483-11.483 11.483-6.342 0-11.483-5.141-11.483-11.483.007-6.34 5.144-11.476 11.483-11.483z" fill="url(#jpaint1_linear)"/><path d="M46.505 41.132l-7.196 3.4a5.86 5.86 0 00-4.996-3.083l-6.643-.183a7.017 7.017 0 01-3.019-.78l-.676-.35a11.922 11.922 0 00-11.043.012l.043-1.531a.919.919 0 00-.893-.944l-7.284-.2a.918.918 0 00-.944.892l-.44 15.985a.919.919 0 00.893.943l7.284.2h.025a.919.919 0 00.919-.893l.021-.764 1.892-1.014a3.246 3.246 0 012.423-.265l11.3 3.172.06.015a12.256 12.256 0 007.603-.861.86.86 0 00.114-.063L52.33 44.222c.409-.264.54-.8.301-1.223a4.64 4.64 0 00-6.127-1.867zM5.276 53.482l.39-14.148 5.447.15-.39 14.149-5.447-.15zm29.73-.24c-1.995.9-4.224 1.149-6.369.71l-11.27-3.163a5.08 5.08 0 00-3.786.414l-.967.518.26-9.406a10.097 10.097 0 0110.257-.547l.676.35a8.87 8.87 0 003.813.985l6.643.182a4.029 4.029 0 013.829 3.21l-9.895-.272a.92.92 0 00-.05 1.836l10.92.3h.025a.918.918 0 00.917-.893c.011-.399-.018-.798-.089-1.191l7.38-3.488a2.807 2.807 0 013.195.434l-15.489 10.02z" fill="url(#jpaint2_linear)"/><path d="M29.572 9.645V.919a.919.919 0 00-1.838 0v8.726a.919.919 0 001.837 0z" fill="url(#jpaint3_linear)"/><path d="M36.462 9.645V5.51a.919.919 0 00-1.837 0v4.134a.919.919 0 001.837 0z" fill="url(#jpaint4_linear)"/><path d="M22.685 9.645V5.51a.919.919 0 00-1.837 0v4.134a.919.919 0 101.837 0z" fill="url(#jpaint5_linear)"/><defs><linearGradient id="jpaint0_linear" x1="25.734" y1="18.314" x2="34.921" y2="18.575" gradientUnits="userSpaceOnUse"><stop offset=".012" stop-color="#FAC336"/><stop offset="1" stop-color="#F6A103"/></linearGradient><linearGradient id="jpaint1_linear" x1="18.742" y1="14.447" x2="49.842" y2="16.387" gradientUnits="userSpaceOnUse"><stop offset=".012" stop-color="#FAC336"/><stop offset="1" stop-color="#F6A103"/></linearGradient><linearGradient id="jpaint2_linear" x1="9.723" y1="39.016" x2="65.99" y2="48.362" gradientUnits="userSpaceOnUse"><stop offset=".012" stop-color="#FAC336"/><stop offset="1" stop-color="#F6A103"/></linearGradient><linearGradient id="jpaint3_linear" x1="27.969" y1=".88" x2="30.122" y2=".904" gradientUnits="userSpaceOnUse"><stop offset=".012" stop-color="#FAC336"/><stop offset="1" stop-color="#F6A103"/></linearGradient><linearGradient id="jpaint4_linear" x1="34.86" y1="5.09" x2="37.012" y2="5.132" gradientUnits="userSpaceOnUse"><stop offset=".012" stop-color="#FAC336"/><stop offset="1" stop-color="#F6A103"/></linearGradient><linearGradient id="jpaint5_linear" x1="21.083" y1="5.09" x2="23.235" y2="5.132" gradientUnits="userSpaceOnUse"><stop offset=".012" stop-color="#FAC336"/><stop offset="1" stop-color="#F6A103"/></linearGradient></defs></svg><svg fill="none" viewBox="0 0 43 43" id="icon-pageServices" xmlns="http://www.w3.org/2000/svg"><path d="M26.455 7.643H16.377a1.26 1.26 0 100 2.52h10.078a1.26 1.26 0 000-2.52z" fill="url(#kpaint0_linear)"/><path d="M26.455 12.682H16.377a1.26 1.26 0 000 2.52h10.078a1.26 1.26 0 000-2.52z" fill="url(#kpaint1_linear)"/><path d="M26.455 17.72H6.3a1.26 1.26 0 000 2.52h20.156a1.26 1.26 0 000-2.52z" fill="url(#kpaint2_linear)"/><path d="M21.888 22.76H6.298a1.26 1.26 0 100 2.52h15.59a1.26 1.26 0 000-2.52z" fill="url(#kpaint3_linear)"/><path d="M32.838 22.76V3.78c0-2.09-1.772-3.78-3.863-3.78H11.338c-.32 0-.648.126-.894.373L.364 10.535a1.272 1.272 0 00-.365.887V39.22A3.784 3.784 0 003.78 43h29.058C38.4 43 43 38.42 43 32.838c0-5.557-4.559-10.078-10.162-10.078zM10.078 4.32v5.842H4.283l5.795-5.843zM3.78 40.48c-.694 0-1.26-.565-1.26-1.26V12.683h8.819a1.26 1.26 0 001.26-1.26V2.52h16.377c.715 0 1.343.588 1.343 1.26v19.293A10.194 10.194 0 0024.04 27.8H6.299a1.26 1.26 0 000 2.52h16.698a9.984 9.984 0 00-.321 2.519H6.299a1.26 1.26 0 000 2.52h16.696c.51 1.97 1.61 3.745 3.182 5.123H3.779zm29.059 0c-4.143 0-7.643-3.5-7.643-7.642 0-4.168 3.429-7.559 7.643-7.559s7.642 3.391 7.642 7.559c0 4.143-3.5 7.642-7.642 7.642z" fill="url(#kpaint4_linear)"/><path d="M37.6 30.695a1.26 1.26 0 00-1.782-.015l-4.247 4.177-1.72-1.665a1.26 1.26 0 10-1.752 1.81l2.603 2.52a1.26 1.26 0 001.76-.007l5.123-5.039a1.26 1.26 0 00.014-1.781z" fill="url(#kpaint5_linear)"/><defs><linearGradient id="kpaint0_linear" x1="16.728" y1="7.853" x2="30.183" y2="12.049" gradientUnits="userSpaceOnUse"><stop offset=".012" stop-color="#FAC336"/><stop offset="1" stop-color="#F6A103"/></linearGradient><linearGradient id="kpaint1_linear" x1="16.728" y1="12.892" x2="30.183" y2="17.088" gradientUnits="userSpaceOnUse"><stop offset=".012" stop-color="#FAC336"/><stop offset="1" stop-color="#F6A103"/></linearGradient><linearGradient id="kpaint2_linear" x1="7.939" y1="17.931" x2="28.145" y2="29.274" gradientUnits="userSpaceOnUse"><stop offset=".012" stop-color="#FAC336"/><stop offset="1" stop-color="#F6A103"/></linearGradient><linearGradient id="kpaint3_linear" x1="7.355" y1="22.97" x2="25.026" y2="30.892" gradientUnits="userSpaceOnUse"><stop offset=".012" stop-color="#FAC336"/><stop offset="1" stop-color="#F6A103"/></linearGradient><linearGradient id="kpaint4_linear" x1="5.498" y1="3.583" x2="55.696" y2="6.714" gradientUnits="userSpaceOnUse"><stop offset=".012" stop-color="#FAC336"/><stop offset="1" stop-color="#F6A103"/></linearGradient><linearGradient id="kpaint5_linear" x1="29.025" y1="30.948" x2="40.948" y2="31.956" gradientUnits="userSpaceOnUse"><stop offset=".012" stop-color="#FAC336"/><stop offset="1" stop-color="#F6A103"/></linearGradient></defs></svg><svg fill="none" viewBox="0 0 31 31" id="icon-phone" xmlns="http://www.w3.org/2000/svg"><path d="M23.936 19.052c-.615-.628-1.357-.964-2.143-.964-.78 0-1.528.33-2.169.958l-2.003 1.96c-.165-.087-.33-.168-.489-.249a8.072 8.072 0 01-.627-.33c-1.877-1.17-3.583-2.694-5.219-4.666-.792-.983-1.325-1.811-1.712-2.65.52-.468 1.002-.953 1.471-1.42.178-.174.355-.354.533-.529 1.332-1.306 1.332-2.999 0-4.305L9.847 5.158c-.197-.193-.4-.392-.59-.59-.38-.387-.78-.785-1.192-1.158-.615-.598-1.35-.915-2.124-.915-.773 0-1.522.317-2.156.915l-.012.012-2.156 2.134A4.517 4.517 0 00.24 8.45c-.152 1.817.393 3.509.812 4.617 1.027 2.719 2.561 5.238 4.85 7.939 2.777 3.254 6.119 5.824 9.936 7.634 1.458.679 3.405 1.481 5.58 1.618.133.007.272.013.4.013 1.464 0 2.694-.517 3.658-1.543.006-.013.019-.02.025-.032.33-.392.71-.746 1.11-1.126.272-.255.551-.522.824-.802.628-.641.957-1.388.957-2.153 0-.772-.336-1.512-.976-2.134l-3.481-3.429zm2.27 6.552c-.006 0-.006.006 0 0-.247.261-.501.498-.774.76-.412.385-.83.79-1.223 1.244-.64.672-1.395.989-2.384.989-.096 0-.197 0-.292-.006-1.883-.119-3.633-.84-4.946-1.456a28.094 28.094 0 01-9.359-7.193c-2.162-2.557-3.607-4.922-4.565-7.46-.59-1.55-.805-2.757-.71-3.895a2.834 2.834 0 01.875-1.848L4.99 4.617c.31-.286.64-.442.964-.442.4 0 .723.237.926.436l.019.018c.386.355.754.722 1.14 1.114.197.2.4.398.603.604l1.731 1.698c.672.66.672 1.27 0 1.93-.184.18-.361.36-.545.534a32.804 32.804 0 01-1.592 1.518c-.012.013-.025.02-.031.032-.546.535-.444 1.057-.33 1.412l.02.056c.45 1.07 1.083 2.078 2.047 3.279l.006.006c1.75 2.116 3.596 3.765 5.63 5.028.26.162.527.292.78.417.23.112.445.217.629.33.025.012.05.03.076.043.215.106.418.155.627.155.527 0 .856-.323.964-.429l2.169-2.128c.215-.211.558-.466.957-.466.393 0 .717.242.913.454l.013.012 3.494 3.429c.653.634.653 1.288.006 1.947zM16.431 7.802a8.093 8.093 0 014.375 2.228 7.882 7.882 0 012.27 4.293c.07.41.431.697.843.697.051 0 .096-.006.146-.013.47-.074.78-.51.704-.97a9.537 9.537 0 00-2.745-5.196 9.844 9.844 0 00-5.295-2.694.86.86 0 00-.989.684.832.832 0 00.691.971zM30.198 13.795c-.564-3.248-2.124-6.204-4.52-8.556A16.195 16.195 0 0016.959.803a.851.851 0 00-.983.684c-.076.46.235.89.704.97a14.501 14.501 0 017.793 3.964c2.143 2.103 3.538 4.748 4.039 7.647.07.411.43.697.843.697.05 0 .095-.006.146-.012a.826.826 0 00.697-.958z" fill="#fff"/></svg><svg fill="none" viewBox="0 0 58 58" id="icon-services_01" xmlns="http://www.w3.org/2000/svg"><path d="M56.297 5.104H58v1.702h-1.703V5.104z" fill="#303030"/><path d="M52.835.052v17.886H46.09v-1.7h-8.514v-1.46l-3.318-1.154h-.088v-1.465l-3.324-1.109H0v5.118h1.703v-3.415h1.816v11.92H1.703v-6.802H0v8.505h3.52V41.72h-.036L1.76 48.423v5.216h20.453v-8.064l-6.774-3.84v-3.25l1.43-5.222h5.344v-6.887h8.628l3.33-1.062v-1.473h.07l3.335-1.015v-1.483h8.514V19.64h6.745V57.95H58V8.509h-1.703v47.737h-1.76V1.755h1.76V3.4H58V.05h-5.165zM20.51 48.493h-3.425v1.703h3.425v1.74H3.462v-1.74h8.515v-1.703H3.5l1.304-5.07h10.16l5.546 3.144v1.926zm-6.774-10.236v3.462H5.222V26.376h11.769l-3.255 11.88zm6.774-6.697h-3.174l1.42-5.184h1.754v5.184zm15.363-9.996l-1.703.518v-1.59h-1.702v3.578l-1.892.603H5.222v-11.92H30.57l1.898.633v5.327h1.703v-3.317l1.703.593v5.575zm1.703-1.924v-1.7h1.703v1.7h-1.703zm6.812 0h-3.406v-1.7h3.406v1.7z" fill="#303030"/><path d="M13.68 48.493h1.703v1.703H13.68v-1.703zM6.868 14.456h3.406v1.702H6.868v-1.702zM6.868 17.939h3.406v1.702H6.868V17.94zM6.868 21.306h3.406v1.703H6.868v-1.703zM6.888 28.098H8.59V29.8H6.888v-1.703zM6.888 31.56H8.59v1.703H6.888V31.56zM43.479 27.236h-1.703v1.703h-1.703v1.703h1.703v1.702h1.703v-1.703h1.703V28.94h-1.703v-1.703zM41.776 10.207h1.703V8.504h1.703V6.801h-1.703V5.1h-1.703V6.8h-1.703v1.703h1.703v1.703z" fill="#303030"/></svg><svg fill="none" viewBox="0 0 57 57" id="icon-services_02" xmlns="http://www.w3.org/2000/svg"><g clip-path="url(#nclip0)" fill="#303030"><path d="M1.673 33.981h18.459v-1.673H1.673v-3.38h29.274v-1.673h-8.394v-1.633h4.201V18.94h-8.22v1.673h6.547v3.336H13.403v-3.336h3.347V18.94h-5.02v6.682h4.127v1.633H0v20.054h46.9v-1.673H1.674V33.981zm15.857-8.359h3.35v1.633h-3.35v-1.633zM48.573 45.636h1.673v1.673h-1.673v-1.673z"/><path d="M44.52 27.255v1.673h10.807v11.745H31.843v1.673h23.484v3.29h-3.408v1.673H57V27.255H44.522z"/><path d="M34.349 18.308H32.66v1.673h1.688v2.736H32.66v1.673h1.688v2.865H32.66v1.673h1.688v3.918l4.286 3.634h2.41v-3.252h1.766v-1.673h-1.766v-2.627h1.766v-1.673h-1.766V24.5h1.766v-1.673h-1.766v-6.454h4.201V9.69h-5.038v1.673h3.365V14.7H31.895v-3.336h6.64V9.691h-8.313v6.682h4.127v1.935zm1.673 4.87v-2.17l3.35 2.982v2.183l-3.35-2.994zm3.35 5.24v2.123l-3.35-2.837v-2.281l3.35 2.994zm-.124 6.389l-3.226-2.736v-2.175l3.35 2.838v2.073h-.124zm.124-18.434v5.378l-3.35-2.982v-2.396h3.35zM21.805 32.308h1.673v1.673h-1.673v-1.673zM28.497 40.673h1.673v1.673h-1.673v-1.673z"/></g><defs><clipPath id="nclip0"><path fill="#fff" d="M0 0h57v57H0z"/></clipPath></defs></svg><svg fill="none" viewBox="0 0 55 55" id="icon-services_03" xmlns="http://www.w3.org/2000/svg"><path d="M6.226 53.384H3.399l-1.745-1.805v-2.766l28.099-28.099c2.438-2.438 3.81-5.732 3.867-9.277a9.7 9.7 0 012.854-6.74c2.587-2.586 6.477-3.679 9.79-2.78l-1.637 1.638 1.142 1.142 2.84-2.839-1.32-1.32S40.707-1.886 35.33 3.555a11.308 11.308 0 00-3.327 7.856c-.05 3.123-1.255 6.021-3.394 8.16L.038 48.143v4.09L2.713 55h4.182l2.523-2.522-1.143-1.143-2.049 2.049z" fill="#303030"/><path d="M54.394 7.705L53.149 6.46l-6.068 6.068-2.76-.061-1.819-1.82V7.965l2.125-2.125-1.143-1.143-2.598 2.599v4.021l2.752 2.752 3.428.076 3.747 3.747a9.817 9.817 0 01-7.227 3.45c-3.506.077-6.768 1.45-9.183 3.866L11.704 47.906l1.143 1.143L35.545 26.35c2.12-2.12 4.989-3.325 8.077-3.393 8.363 0 13.032-8.178 10.772-15.252zm-2.622 8.86l-3.22-3.22 4.495-4.496c.648 2.534.15 5.382-1.275 7.717zM9.414 50.184l1.143-1.143 1.142 1.143-1.142 1.142-1.143-1.142z" fill="#303030"/><path d="M39.991 19.516l3.429-3.428-4.546-4.546-3.429 3.428 4.546 4.546zm1.143-3.428l-1.143 1.143-2.26-2.26 1.143-1.143 2.26 2.26zM31.44 22.375l1.143-1.143 1.143 1.143-1.143 1.142-1.143-1.142zM29.154 24.66l1.143-1.143 1.143 1.143-1.143 1.142-1.143-1.142z" fill="#303030"/></svg><svg fill="none" viewBox="0 0 61 41" id="icon-services_04" xmlns="http://www.w3.org/2000/svg"><path d="M59.146 34.871c0-5.757-.403-11.144-3.377-16.26-3.505-6.026-9.48-10.402-16.298-11.879V3.93L36.186.746H24.683l-3.154 3.195V6.72C14.7 8.181 8.69 12.551 5.182 18.59 2.204 23.713 1.794 29.102 1.794 34.87H0v5.383h50.176V38.46H1.794v-1.795h57.412v1.795h-3.648v1.794H61V34.87h-1.854zm-9.3-20.803l-2.068 11.83H44.08l2.503-14.337a23.17 23.17 0 013.263 2.507zM9.647 15.517l.577 3.3 1.768-.31-.794-4.538a23.15 23.15 0 013.268-2.48L16.98 25.9h-3.698l-.978-5.597-1.767.309 1.238 7.081h7.002v-1.93l-2.656-15.218a23.073 23.073 0 015.496-2.007l2.65 20.83h1.627v-1.003L23.323 7.72V4.678l2.11-2.138h10.026l2.218 2.15v3.029l-.485 3.649 1.778.236.406-3.055a23.047 23.047 0 015.553 2.055l-2.633 15.08-.013.077v1.932h7.003l2.108-12.06c4.822 5.226 5.958 10.788 5.958 19.238H3.588c0-10.663 2.272-15.198 6.06-19.354z" fill="#303030"/><path d="M51.97 38.46h1.794v1.794H51.97V38.46zM34.986 28.36v1.007h1.623l2.123-15.969-1.779-.236-1.967 15.197zM25.058 6.043h1.794v1.795h-1.794V6.043zM28.646 6.043h1.795v1.795h-1.794V6.043z" fill="#303030"/></svg><svg fill="none" viewBox="0 0 49 49" id="icon-services_05" xmlns="http://www.w3.org/2000/svg"><path d="M36.625 44.676l-1.234-3.198 2.96-1.142-5.871-17.034 4.273-4.273-1.017-1.017-3.777 3.777-3.764-10.918a4.272 4.272 0 00.604-2.194 4.3 4.3 0 00-2.093-3.688V.033H22.39v4.9a4.301 4.301 0 00-2.19 3.744c0 .822.233 1.59.634 2.244l-3.76 10.852-3.762-3.762-1.017 1.017 4.255 4.256-2.329 6.721 1.36.471 2.1-6.062 1.846 1.846-5.352 13.876-1.713-.661 2.627-7.58-1.36-.472-3.081 8.894 3.009 1.16-1.234 3.2H0v4.29h40.322v-1.439H1.438v-1.413h46.124v1.413h-2.925v1.439H49v-4.29H36.625zm-.086-5.183l-1.666.643-5.352-13.875 1.828-1.828 5.19 15.06zm-7.584-14.7l-3.66-9.49 1.06-2.748c.263-.127.512-.28.742-.455l3.73 10.82-1.872 1.872zm-2.738 2.737a2.131 2.131 0 00-3.386 0l-1.626-1.625 3.319-8.603 3.319 8.603-1.626 1.625zm-.998 1.296a.696.696 0 11-1.392-.001.696.696 0 011.392.001zM23.83 4.378V1.471h1.438v2.907H23.83zm.671 1.438a2.864 2.864 0 012.86 2.861c0 1.55-1.517 2.86-2.86 2.86a2.864 2.864 0 01-2.86-2.86 2.864 2.864 0 012.86-2.86zm-6.296 17.088l3.735-10.777c.78.58 1.742.88 2.713.845l-4.56 11.82-1.888-1.888zm2.435 4.469l1.776 1.776a2.137 2.137 0 002.109 1.81 2.137 2.137 0 002.11-1.81l1.775-1.776 6.674 17.303H13.965l6.674-17.303z" fill="#303030"/><path d="M41.76 47.528h1.438v1.439H41.76v-1.439zM23.781 7.974h1.439v1.407H23.78V7.974z" fill="#303030"/></svg><svg fill="none" viewBox="0 0 55 55" id="icon-services_06" xmlns="http://www.w3.org/2000/svg"><g clip-path="url(#rclip0)" fill="#303030"><path d="M43.515 26.292L55 14.807l-8.14-8.14c.06-.09.052-5.433.052-5.433H33.92v2.574l-.002-.002-2.998 2.999 1.148 1.148 2.158-2.157a2.429 2.429 0 002.121 1.25h1.41L35.264 9.54l1.148 1.148 2.363-2.362v2.753c0 3.13 4.854 3.13 4.854 0V9.401c0-.517.391-.72.83-.803.583-.11 1.024-.128 1.52-.516l3.247 3.247-5.742 5.742 1.148 1.148 5.742-5.742 2.33 2.33-10.337 10.337-5.75-5.75 3.486-3.485-1.149-1.148-3.485 3.485-6.847-6.847L30.92 9.1 29.77 7.953l-2.297 2.297-1.166-1.166-13.635 13.634 4.02 9.762-9.05 9.05-2.833.536L0 46.876l6.89 6.89 4.81-4.81.535-2.833 9.046-9.046 9.766 4.016 13.635-13.634-1.167-1.167zm.97-19.318c-1.338-.002-2.481 1.066-2.481 2.427v1.678c0 1.033-1.606 1.035-1.606 0v-3.23a2.43 2.43 0 00-2.427-2.427h-1.624a.804.804 0 01-.803-.803v-1.76h9.744V6.17c0 .442-.36.803-.803.803zM26.307 11.38l16.078 16.078-1.149 1.148L25.158 12.53l1.148-1.148zm4.357 27.798l-9.766-4.016L10.732 45.33l-.536 2.833-3.306 3.306-4.593-4.593 3.306-3.306 2.833-.536 10.17-10.17-4.02-9.762 1.187-1.187L26.07 32.212l1.149-1.149L16.92 20.766l7.088-7.088 16.079 16.078-7.089 7.088-2.335-2.335-1.148 1.148 2.335 2.335-1.187 1.187z"/><path d="M27.213 33.36l1.148-1.147 1.148 1.148-1.148 1.148-1.148-1.148zM22.806 17.1l1.148-1.15 1.148 1.15-1.148 1.147-1.148-1.148zM25.102 19.396l1.149-1.148 1.148 1.148-1.148 1.149-1.149-1.149zM41.18 19.37l1.148-1.148 1.148 1.148-1.148 1.148-1.148-1.148zM5.775 46.83l1.149-1.148 1.148 1.149-1.148 1.148-1.149-1.148z"/></g><defs><clipPath id="rclip0"><path fill="#fff" d="M0 0h55v55H0z"/></clipPath></defs></svg><svg fill="none" viewBox="0 0 31 30" id="icon-tel" xmlns="http://www.w3.org/2000/svg"><path d="M24.486 18.534c-.634-.63-1.4-.966-2.212-.966-.805 0-1.577.33-2.238.96l-2.069 1.963c-.17-.087-.34-.168-.504-.25-.235-.111-.458-.217-.648-.33-1.937-1.172-3.698-2.699-5.386-4.675-.818-.985-1.368-1.814-1.768-2.655.537-.468 1.035-.954 1.519-1.421.183-.175.367-.356.55-.53 1.374-1.31 1.374-3.005 0-4.314L9.943 4.614a26.637 26.637 0 01-.609-.592 30.232 30.232 0 00-1.23-1.16c-.635-.598-1.394-.916-2.193-.916-.798 0-1.57.318-2.225.917l-.013.012-2.226 2.138C.61 5.811.132 6.783.027 7.912c-.157 1.82.406 3.516.838 4.625 1.06 2.724 2.644 5.249 5.007 7.954a30.634 30.634 0 0010.256 7.649c1.506.68 3.515 1.483 5.76 1.62.137.007.281.013.412.013 1.512 0 2.782-.517 3.777-1.546.006-.012.02-.019.026-.031.34-.393.733-.748 1.145-1.129.282-.255.57-.523.851-.804.648-.642.989-1.39.989-2.157 0-.772-.347-1.514-1.008-2.138l-3.594-3.434zm2.344 6.564c-.007 0-.007.006 0 0-.256.262-.517.498-.799.76-.425.387-.857.792-1.263 1.247-.661.673-1.44.991-2.461.991-.098 0-.203 0-.301-.006-1.944-.119-3.75-.842-5.105-1.459a28.917 28.917 0 01-9.661-7.206c-2.232-2.562-3.724-4.93-4.713-7.474-.609-1.552-.831-2.761-.733-3.902.066-.73.36-1.334.903-1.851L4.93 4.072c.321-.287.661-.443.995-.443.413 0 .746.237.956.437l.02.018c.399.356.778.723 1.178 1.116.202.2.412.4.621.605l1.787 1.702c.694.66.694 1.271 0 1.932-.19.18-.373.362-.563.536a33.451 33.451 0 01-1.643 1.521c-.013.012-.026.019-.032.031-.563.536-.458 1.06-.34 1.415l.019.056c.465 1.072 1.12 2.082 2.114 3.285l.007.007c1.806 2.12 3.71 3.771 5.812 5.036.268.162.543.293.805.418.236.112.458.218.648.33.026.013.052.032.078.044.223.106.432.156.648.156.544 0 .884-.324.995-.43l2.239-2.132c.222-.212.576-.468.988-.468.406 0 .74.244.943.455l.013.013 3.606 3.435c.674.635.674 1.29.007 1.95zM16.737 7.263a8.447 8.447 0 014.516 2.232c1.244 1.184 2.049 2.668 2.343 4.3.073.412.446.7.871.7.052 0 .098-.007.15-.013.485-.075.806-.512.727-.973-.353-1.976-1.335-3.777-2.834-5.205a10.274 10.274 0 00-5.465-2.699c-.485-.075-.936.23-1.021.686a.837.837 0 00.713.972zM30.953 13.266c-.583-3.254-2.193-6.215-4.667-8.57-2.474-2.357-5.583-3.89-9-4.445a.877.877 0 00-1.014.685c-.079.462.242.892.726.973 3.05.492 5.832 1.87 8.044 3.97 2.212 2.107 3.652 4.757 4.17 7.662.072.411.445.698.87.698.052 0 .098-.007.15-.013.478-.068.806-.505.72-.96z" fill="#fff"/></svg><svg fill="none" viewBox="0 0 37 36" id="icon-years" xmlns="http://www.w3.org/2000/svg"><g clip-path="url(#tclip0)"><path d="M35.916 16.945c-.599 0-1.084.473-1.084 1.055 0 8.762-7.327 15.89-16.332 15.89-9.006 0-16.332-7.128-16.332-15.89S9.494 2.11 18.5 2.11c2.746 0 5.417.663 7.802 1.927l-1.355 1.318c-.31.302-.403.756-.236 1.15.168.394.564.65 1.002.65H30.9c.598 0 1.084-.471 1.084-1.054V1.055c0-.427-.265-.811-.67-.975a1.106 1.106 0 00-1.18.229l-2.242 2.18A18.82 18.82 0 0018.5 0C13.558 0 8.913 1.872 5.418 5.272 1.924 8.672 0 13.192 0 18s1.924 9.328 5.418 12.728C8.913 34.128 13.558 36 18.5 36c4.941 0 9.587-1.872 13.081-5.272C35.075 27.328 37 22.808 37 18c0-.582-.486-1.055-1.084-1.055z" fill="url(#tpaint0_linear)"/><path d="M25.464 16.945h-5.882v-5.723c0-.583-.485-1.055-1.084-1.055-.599 0-1.084.472-1.084 1.055V18c0 .582.485 1.054 1.084 1.054h6.966c.599 0 1.084-.472 1.084-1.054 0-.583-.485-1.055-1.084-1.055z" fill="url(#tpaint1_linear)"/></g><defs><linearGradient id="tpaint0_linear" x1="4.731" y1="3" x2="47.915" y2="5.768" gradientUnits="userSpaceOnUse"><stop offset=".012" stop-color="#FAC336"/><stop offset="1" stop-color="#F6A103"/></linearGradient><linearGradient id="tpaint1_linear" x1="18.582" y1="10.908" x2="29.243" y2="11.591" gradientUnits="userSpaceOnUse"><stop offset=".012" stop-color="#FAC336"/><stop offset="1" stop-color="#F6A103"/></linearGradient><clipPath id="tclip0"><path fill="#fff" d="M0 0h37v36H0z"/></clipPath></defs></svg></svg>