<svg width="65" height="65" fill="none" xmlns="http://www.w3.org/2000/svg"><path d="M22.456 46.4c1.675 1 2.675 2.725 2.675 4.616v5.294a1.069 1.069 0 00.619.965v5.388a1.072 1.072 0 001.073 1.068h11.201a1.072 1.072 0 001.073-1.069v-5.47a1.067 1.067 0 00.47-.882v-5.205a5.324 5.324 0 012.635-4.591 19.235 19.235 0 006.871-6.8A18.765 18.765 0 0046.106 16.8a19.429 19.429 0 00-27.28-.047c-3.62 3.561-5.634 8.275-5.668 13.274a18.75 18.75 0 002.53 9.538 19.23 19.23 0 006.768 6.835zm9.27.544c.004-.561-.063-2.956-.45-4.324l-.914-3.004h3.806c-.527 1.216-.76 3.33-.761 4.28l-.375 11.958h-1.01l-.296-8.91zm5.848 10.434v1.653H27.273v-1.653h10.3zm-10.301 4.83v-1.654h10.3v1.653h-10.3zm-7.38-44.37a17.905 17.905 0 0125.139.042 17.242 17.242 0 012.73 21.057 17.707 17.707 0 01-6.326 6.258 6.851 6.851 0 00-3.393 5.909v4.75h-3.487l.373-11.92v-.025c0-1.087.31-3.2.74-3.891l.226-.365a1.022 1.022 0 00-.874-1.56h-5.328a1.068 1.068 0 00-.934.516 1.054 1.054 0 00.023 1.052l1.03 3.381c.289 1.029.398 3.082.39 3.904v.017l.296 8.891h-3.843v-4.838a6.959 6.959 0 00-3.419-5.924 17.703 17.703 0 01-6.232-6.292 17.223 17.223 0 01-2.323-8.763c.032-4.591 1.883-8.924 5.213-12.198z" fill="url(#paint0_linear)"/><path d="M52.78 30.012a.762.762 0 00.761.761h6.254a.761.761 0 100-1.523H53.54a.762.762 0 00-.762.762z" fill="url(#paint1_linear)"/><path d="M5.205 30.773h5.034a.762.762 0 100-1.523H5.205a.762.762 0 000 1.523z" fill="url(#paint2_linear)"/><path d="M6.467 18.796l5.206 2.395a.762.762 0 00.637-1.383l-5.205-2.396a.762.762 0 00-.637 1.384z" fill="url(#paint3_linear)"/><path d="M53.053 21.522a.76.76 0 00.318-.07l5.206-2.395a.76.76 0 00.381-1.014.76.76 0 00-1.018-.37l-5.205 2.396a.762.762 0 00.319 1.453z" fill="url(#paint4_linear)"/><path d="M32.5 9.48a.762.762 0 00.762-.763V2.031a.762.762 0 10-1.524 0v6.686a.762.762 0 00.762.762z" fill="url(#paint5_linear)"/><path d="M18.329 12.783a.762.762 0 101.069-1.086l-4.612-4.54a.76.76 0 10-1.07 1.086l4.613 4.54z" fill="url(#paint6_linear)"/><path d="M46.133 13.553a.76.76 0 00.535-.219l4.682-4.608a.761.761 0 00-1.07-1.086l-4.682 4.609a.761.761 0 00.534 1.304z" fill="url(#paint7_linear)"/><path d="M18.18 31.537a.762.762 0 00.762-.762c0-1.08.127-2.156.38-3.206a.761.761 0 00-1.48-.359 15.148 15.148 0 00-.424 3.565.762.762 0 00.762.762z" fill="url(#paint8_linear)"/><path d="M19.557 24.594a.763.763 0 001.033-.304 13.562 13.562 0 0111.91-7.073.762.762 0 100-1.524 15.086 15.086 0 00-13.247 7.867.76.76 0 00.304 1.034z" fill="url(#paint9_linear)"/><defs><linearGradient id="paint0_linear" x1="17.527" y1="8.879" x2="71.852" y2="33.177" gradientUnits="userSpaceOnUse"><stop offset=".06" stop-color="#05237D"/><stop offset=".973" stop-color="#5882FF"/></linearGradient><linearGradient id="paint1_linear" x1="53.661" y1="29.183" x2="54.892" y2="33.014" gradientUnits="userSpaceOnUse"><stop offset=".06" stop-color="#05237D"/><stop offset=".973" stop-color="#5882FF"/></linearGradient><linearGradient id="paint2_linear" x1="5.187" y1="29.183" x2="6.593" y2="32.874" gradientUnits="userSpaceOnUse"><stop offset=".06" stop-color="#05237D"/><stop offset=".973" stop-color="#5882FF"/></linearGradient><linearGradient id="paint3_linear" x1="6.794" y1="17.174" x2="12.214" y2="22.847" gradientUnits="userSpaceOnUse"><stop offset=".06" stop-color="#05237D"/><stop offset=".973" stop-color="#5882FF"/></linearGradient><linearGradient id="paint4_linear" x1="53.055" y1="17.428" x2="58.49" y2="23.12" gradientUnits="userSpaceOnUse"><stop offset=".06" stop-color="#05237D"/><stop offset=".973" stop-color="#5882FF"/></linearGradient><linearGradient id="paint5_linear" x1="31.911" y1=".909" x2="34.456" y2="1.198" gradientUnits="userSpaceOnUse"><stop offset=".06" stop-color="#05237D"/><stop offset=".973" stop-color="#5882FF"/></linearGradient><linearGradient id="paint6_linear" x1="14.184" y1="6.672" x2="21.704" y2="11.313" gradientUnits="userSpaceOnUse"><stop offset=".06" stop-color="#05237D"/><stop offset=".973" stop-color="#5882FF"/></linearGradient><linearGradient id="paint7_linear" x1="46.075" y1="7.153" x2="53.676" y2="11.845" gradientUnits="userSpaceOnUse"><stop offset=".06" stop-color="#05237D"/><stop offset=".973" stop-color="#5882FF"/></linearGradient><linearGradient id="paint8_linear" x1="17.637" y1="26.418" x2="20.717" y2="27.155" gradientUnits="userSpaceOnUse"><stop offset=".06" stop-color="#05237D"/><stop offset=".973" stop-color="#5882FF"/></linearGradient><linearGradient id="paint9_linear" x1="20.759" y1="15.299" x2="33.22" y2="27.216" gradientUnits="userSpaceOnUse"><stop offset=".06" stop-color="#05237D"/><stop offset=".973" stop-color="#5882FF"/></linearGradient></defs></svg>