<svg width="110" height="110" fill="none" xmlns="http://www.w3.org/2000/svg"><path d="M107.967 105.571l-20.31-28.772V44.687h5.155a1.719 1.719 0 001.413-2.696L78.756 19.647a1.784 1.784 0 00-2.825 0l-3.847 5.555a1.672 1.672 0 00-.203-.399L56.413 2.46a1.785 1.785 0 00-2.826 0L38.118 24.803a1.676 1.676 0 00-.203.399l-3.846-5.555a1.785 1.785 0 00-2.826 0L15.775 41.99a1.718 1.718 0 001.412 2.696h5.157V76.8l-20.31 28.77a1.715 1.715 0 00.51 2.46c.27.164.578.25.893.25h103.125a1.718 1.718 0 001.405-2.71zM39.531 27.5h5.156v3.437h3.438v-5.156a1.719 1.719 0 00-1.719-1.719h-3.594L55 6.457l12.188 17.605h-3.594a1.719 1.719 0 00-1.72 1.72v5.155h3.438V27.5h5.184l-5.844 8.439a10.294 10.294 0 00-19.305 0l-5.843-8.44h.027zm27.5 22.388a8.504 8.504 0 00-5.156-1.763h-1.186a10.383 10.383 0 003.228-3.438h3.114v5.201zm-5.156 8.55V94.53h-5.156V73.906H53.28v20.625h-5.156V58.437h-3.438v13.75H42.97V56.72a5.156 5.156 0 015.156-5.157h13.75a5.156 5.156 0 015.156 5.157v15.468h-1.719v-13.75h-3.437zM49.31 48.124h-1.186a8.504 8.504 0 00-5.156 1.763v-5.2h3.114a10.384 10.384 0 003.228 3.437zM55 46.406a6.875 6.875 0 110-13.75 6.875 6.875 0 010 13.75zm23.633 58.438l-8.235-27.985-3.296.97 7.947 27.015H34.951l7.947-27.016-3.296-.97-8.235 27.986H6.755l18.712-26.509c.204-.29.314-.636.314-.991V42.969a1.718 1.718 0 00-1.719-1.72h-3.594l12.188-17.604L44.842 41.25H41.25a1.719 1.719 0 00-1.719 1.719v30.937a1.719 1.719 0 001.719 1.719h3.437V96.25a1.719 1.719 0 001.72 1.719h17.187a1.719 1.719 0 001.718-1.72V75.626h3.438a1.719 1.719 0 001.719-1.719V56.72c0-.138-.035-.265-.042-.4h.042V42.97a1.718 1.718 0 00-1.72-1.72h-3.591l12.186-17.604L89.53 41.25h-3.594a1.719 1.719 0 00-1.718 1.719v34.375c0 .355.11.701.314.991l18.712 26.509H78.633z" fill="#151F59"/></svg>