<svg width="111" height="111" fill="none" xmlns="http://www.w3.org/2000/svg"><g clip-path="url(#clip0)" fill="#151F59"><path d="M62.9 88.8a7.4 7.4 0 01-7.4-7.4v-9.04a26.37 26.37 0 003.7-13.391V42.55c0-15.301-13.28-27.75-29.6-27.75S0 27.249 0 42.55v16.42a27.552 27.552 0 0014.96 24.12l1.742-3.265A23.865 23.865 0 013.7 58.969V42.55c0-13.26 11.618-24.05 25.9-24.05 14.282 0 25.9 10.79 25.9 24.05v16.42a23.865 23.865 0 01-13.002 20.855L31.08 84.976c-2.534 1.332-11.845-3.82-14.378-5.152l-1.743 3.265c3.624 1.904 13.237 6.875 16.861 4.971L37 86.95v9.25c0 .95.72 1.746 1.665 1.84l13.505 1.351a3.69 3.69 0 013.33 3.682V111h3.7v-7.927a7.376 7.376 0 00-6.66-7.363L40.7 94.535v-9.559l3.539-1.887a29.24 29.24 0 007.561-5.772V81.4c.006 6.128 4.972 11.094 11.1 11.1h9.25v-3.7H62.9z"/><path d="M18.5 83.514v11.021L6.66 95.719A7.376 7.376 0 000 103.073V111h3.7v-7.927a3.688 3.688 0 013.33-3.682l13.505-1.341A1.85 1.85 0 0022.2 96.2V83.514h-3.7zm31.831-40.616l-5.348-1.123 3.099-4.496a1.85 1.85 0 00-.215-2.358l-5.088-5.088a1.85 1.85 0 00-2.357-.214l-4.495 3.098-1.125-5.348a1.85 1.85 0 00-1.811-1.469h-6.782a1.85 1.85 0 00-1.811 1.469l-1.125 5.348-4.495-3.098a1.85 1.85 0 00-2.357.214l-5.088 5.088a1.85 1.85 0 00-.215 2.358l3.1 4.496-5.35 1.123A1.85 1.85 0 007.4 44.709v6.782c0 .875.613 1.63 1.469 1.811l5.348 1.123-3.099 4.496a1.85 1.85 0 00.215 2.358l5.088 5.088a1.85 1.85 0 002.357.215l4.495-3.1 1.125 5.35a1.85 1.85 0 001.81 1.468h6.783a1.85 1.85 0 001.811-1.469l1.125-5.348 4.495 3.099a1.85 1.85 0 002.357-.215l5.088-5.088a1.85 1.85 0 00.215-2.358l-3.1-4.496 5.35-1.123a1.85 1.85 0 001.468-1.81v-6.783a1.85 1.85 0 00-1.469-1.811zM48.1 49.99l-4.105.862a3.546 3.546 0 00-2.185 5.481l2.351 3.421-2.906 2.906-3.42-2.351a3.545 3.545 0 00-5.482 2.189l-.864 4.101H27.71l-.864-4.105a3.544 3.544 0 00-5.481-2.185l-3.421 2.351-2.906-2.906 2.351-3.419a3.548 3.548 0 00-2.189-5.483l-4.1-.862v-3.782l4.105-.862a3.546 3.546 0 002.185-5.481l-2.351-3.421 2.906-2.906 3.42 2.351a3.545 3.545 0 005.482-2.188l.864-4.102h3.778l.864 4.105a3.545 3.545 0 005.481 2.185l3.421-2.351 2.906 2.906-2.351 3.419a3.548 3.548 0 002.188 5.483l4.102.862v3.782z"/><path d="M29.6 38.85a9.25 9.25 0 00-9.25 9.25 9.261 9.261 0 009.25 9.25 9.25 9.25 0 000-18.5zm0 14.8a5.55 5.55 0 110-11.1 5.55 5.55 0 010 11.1zm73.947-44.495a5.592 5.592 0 00-3.354 10.005l-4.058 12.29a5.503 5.503 0 00-3.589 1.397l-7.539-4.172A5.461 5.461 0 0079.55 22.2 5.55 5.55 0 0074 27.75a5.482 5.482 0 001.121 3.308l-5.319 7.977a5.447 5.447 0 00-1.352-.185A5.55 5.55 0 1074 44.4a5.492 5.492 0 00-1.121-3.31l5.319-7.975c.44.118.895.18 1.352.185a5.513 5.513 0 003.654-1.404l7.539 4.188a5.55 5.55 0 108.88-3.413l4.084-12.332a5.593 5.593 0 00-.16-11.184zM68.45 46.25a1.85 1.85 0 110-3.7 1.85 1.85 0 010 3.7zm11.1-16.65a1.85 1.85 0 110-3.7 1.85 1.85 0 010 3.7zm16.65 9.25a1.85 1.85 0 110-3.7 1.85 1.85 0 010 3.7zm7.4-22.2a1.85 1.85 0 110-3.7 1.85 1.85 0 010 3.7z"/><path d="M105.45 38.85v40.7h-3.7v-11.1h-3.7v11.1h-3.7V66.6h-3.7v12.95h-3.7v-18.5h-3.7v18.5h-3.7v-29.6h-3.7v29.6h-3.7v-7.4h-3.7v7.4h-3.7v3.7h44.4v-44.4h-3.7zM62.9 0c-6.128.006-11.094 4.972-11.1 11.1v9.25h3.7V11.1a7.4 7.4 0 017.4-7.4h9.25V0H62.9zm16.65 88.8h-3.7v3.7h3.7v-3.7z"/><path d="M111 88.8H69.56v3.7H111v-3.7zM111 0H70.3v3.7H111V0z"/></g><defs><clipPath id="clip0"><path fill="#fff" d="M0 0h111v111H0z"/></clipPath></defs></svg>