<svg width="109" height="109" fill="none" xmlns="http://www.w3.org/2000/svg"><g clip-path="url(#clip0)" fill="#151F59"><path d="M23.458 29.715h-.02c-.921-.008-1.87-.564-2.745-1.608a2.13 2.13 0 00-3.264 2.736c1.126 1.342 2.452 2.282 3.86 2.762v2.586a2.13 2.13 0 004.259 0v-2.567a6.387 6.387 0 004.294-6.038 6.394 6.394 0 00-6.387-6.386 2.131 2.131 0 01-2.129-2.13c0-1.164.947-2.119 2.108-2.128.765-.015 1.566.38 2.323 1.112a2.129 2.129 0 002.962-3.059c-1.093-1.058-2.186-1.652-3.171-1.972v-2.378a2.129 2.129 0 00-4.258 0v2.42c-2.457.892-4.222 3.253-4.222 6.006a6.394 6.394 0 006.387 6.386c1.174 0 2.129.956 2.129 2.13 0 1.17-.947 2.128-2.126 2.128z"/><path d="M23.418 46.836c12.913 0 23.418-10.505 23.418-23.418 0-2.922-.551-5.825-1.606-8.53a54.704 54.704 0 019.27-.837c20.551 0 38.404 15.53 41.313 34.895l-4.468-4.467a2.13 2.13 0 00-3.01 3.01l8.515 8.517a2.13 2.13 0 003.01 0l8.516-8.516a2.128 2.128 0 10-3.01-3.011l-5.159 5.159C97.672 27.427 77.779 9.793 54.5 9.793c-3.71 0-7.871.43-11.262 1.146A23.397 23.397 0 0023.418 0C10.505 0 0 10.505 0 23.418c0 12.913 10.505 23.418 23.418 23.418zm0-42.578c10.568 0 19.16 8.559 19.16 19.16 0 10.565-8.595 19.16-19.16 19.16s-19.16-8.595-19.16-19.16 8.595-19.16 19.16-19.16zM89.84 91.969h8.516a2.129 2.129 0 000-4.258H89.84a2.129 2.129 0 000 4.258zm0 8.515h8.516a2.128 2.128 0 100-4.257H89.84a2.129 2.129 0 000 4.257z"/><path d="M3.635 64.521l5.16-5.16C11.338 81.621 31.27 99.207 54.5 99.207c2.147 0 5.06-.153 7.664-.484v8.148a2.13 2.13 0 002.13 2.129h11.708a2.129 2.129 0 000-4.258h-9.58V65.145h12.774v10.644c0 1.176.953 2.129 2.129 2.129h8.515a2.129 2.129 0 002.13-2.129V65.145h12.773v39.597H74.458a2.129 2.129 0 000 4.258h32.413a2.129 2.129 0 002.129-2.129V63.016a2.129 2.129 0 00-2.129-2.13H64.293a2.129 2.129 0 00-2.129 2.13v31.411c-2.535.357-5.57.522-7.664.522-20.851 0-38.484-15.287-41.325-34.908l4.48 4.48a2.13 2.13 0 003.011-3.01l-8.516-8.517a2.13 2.13 0 00-3.01 0L.623 61.51a2.13 2.13 0 003.01 3.011zm79.818.624h4.258v8.515h-4.258v-8.515z"/><path d="M85.582 109a2.129 2.129 0 100-4.258 2.129 2.129 0 000 4.258z"/></g><defs><clipPath id="clip0"><path fill="#fff" d="M0 0h109v109H0z"/></clipPath></defs></svg>