<svg width="353" height="256" fill="none" xmlns="http://www.w3.org/2000/svg"><mask id="a" maskUnits="userSpaceOnUse" x="0" y="0" width="353" height="256"><path transform="rotate(-180 352.217 255.53)" fill="#C4C4C4" d="M352.217 255.53h352.216v255.53H352.217z"/></mask><g mask="url(#a)" stroke="#DCDCDC"><path d="M352.71 256.023c-21.705-12.826-88.566-34.214-120.365-30.091-53.277 6.906-98.66 33.544-121.352 44.397"/><path d="M353.203 238.264c-21.705-12.826-88.461-33.305-120.365-30.091-68.569 6.906-121.845 47.85-144.537 58.702"/><path d="M353.203 219.025c-21.705-12.826-88.461-33.305-120.365-30.091-68.569 6.906-158.35 69.062-181.041 79.914"/><path d="M353.203 198.8c-21.705-12.826-87.848-28.763-119.872-27.132-77.448 3.947-152.923 73.502-226.918 97.18"/><path d="M348.27 181.534c-21.705-12.826-73.995-30.204-114.939-28.118-79.914 4.072-136.15 69.062-233.33 96.687"/><path d="M348.27 164.269c-21.705-12.826-73.995-30.204-114.939-28.118-79.914 4.072-136.15 69.062-233.33 96.687"/><path d="M348.27 144.537c-21.705-12.826-73.995-30.204-114.939-28.118-79.914 4.072-136.15 69.062-233.33 96.687"/><path d="M348.27 125.792c-21.705-12.826-73.995-30.205-114.939-28.118-79.914 4.072-136.15 69.062-233.33 96.686"/><path d="M348.27 107.046c-21.705-12.826-73.995-30.204-114.939-28.118C153.417 83 97.181 147.99.001 175.615"/><path d="M348.27 88.301c-21.705-12.826-73.995-30.204-114.939-28.118-79.914 4.072-136.15 69.062-233.33 96.687"/><path d="M348.27 71.529c-21.705-12.826-73.995-30.205-114.939-28.118-79.914 4.072-136.15 69.062-233.33 96.686"/><path d="M348.27 53.77c-21.705-12.826-73.995-30.205-114.939-28.119-79.914 4.073-136.15 69.063-233.33 96.687"/><path d="M348.27 36.01C326.565 23.186 274.275 5.807 233.331 7.894 153.417 11.965 97.181 76.955.001 104.58"/><path d="M348.27 16.279c-21.705-12.826-73.995-30.204-114.939-28.118C153.417-7.767 97.181 57.223.001 84.848"/><path d="M348.27-2.467c-21.705-12.826-73.995-30.204-114.939-28.118C153.417-26.513 97.181 38.477.001 66.102"/><path d="M348.27-21.212c-21.705-12.826-73.995-30.204-114.939-28.118C153.417-45.258 97.181 19.732.001 47.357"/><path d="M348.27-42.917c-21.705-12.826-73.995-30.204-114.939-28.118C153.417-66.963 97.181-1.973.001 25.652m352.216 249.116c-21.706-12.826-88.566-34.213-120.366-30.091-53.276 6.906-98.66 33.544-121.351 44.397"/></g></svg>