<svg width="45" height="45" viewBox="0 0 45 45" fill="none" xmlns="http://www.w3.org/2000/svg">
<g clip-path="url(#clip0)">
<path d="M11.5714 14.161C11.2141 14.161 10.8863 13.9372 10.7547 13.6054C10.6199 13.2652 10.716 12.8629 10.9918 12.6215C11.2715 12.3767 11.6888 12.3352 12.0106 12.5216C12.3326 12.708 12.5071 13.0884 12.4335 13.4543C12.352 13.8602 11.9853 14.161 11.5714 14.161Z" fill="#151F59"/>
<path d="M27.6341 32.2085C27.2669 32.2085 26.9315 31.9723 26.8069 31.6271C26.6859 31.2919 26.7847 30.9033 27.0543 30.669C27.3403 30.4204 27.7595 30.3836 28.0852 30.5764C28.3894 30.7566 28.5583 31.1184 28.502 31.4673C28.434 31.888 28.0611 32.2085 27.6341 32.2085Z" fill="#151F59"/>
<path d="M44.861 6.53364C44.7416 6.21152 44.4453 5.98855 44.1026 5.96297L39.3111 5.60455L38.9527 0.813381C38.9271 0.470784 38.7042 0.174505 38.3821 0.0549742C38.0598 -0.0646447 37.6977 0.0145446 37.4547 0.257474L33.6248 4.0873C32.9903 4.72161 32.6231 5.56465 32.5903 6.46122C32.5897 6.47713 32.5895 6.49304 32.5898 6.50895L32.642 9.44343C29.2068 6.66548 24.8369 4.99978 20.0851 4.99978C9.05646 4.99978 0.0839844 13.9718 0.0839844 25C0.0839844 36.0281 9.05646 45.0001 20.0851 45.0001C31.1138 45.0001 40.0862 36.0281 40.0862 25C40.0862 20.1721 38.3666 15.7384 35.5079 12.279L38.4083 12.3258C38.413 12.3259 38.4177 12.3259 38.4224 12.3259C38.4331 12.3259 38.4439 12.3257 38.4546 12.3253C39.351 12.2925 40.1941 11.9251 40.8285 11.2907L44.6585 7.46089C44.9014 7.21796 44.9805 6.85567 44.861 6.53364ZM34.8678 5.33025L37.3428 2.85534L37.5846 6.08848L34.3971 9.28101L34.3478 6.50385C34.3693 6.06053 34.5534 5.64454 34.8678 5.33025ZM20.0851 43.2421C10.0257 43.2421 1.84179 35.0587 1.84179 24.9998C1.84179 14.9409 10.0256 6.75741 20.0851 6.75741C24.7581 6.75741 29.0261 8.52357 32.2572 11.4232L30.2216 13.4587C27.5142 11.078 23.9653 9.63248 20.0851 9.63248C18.2979 9.63248 16.5455 9.93817 14.8766 10.541C14.4201 10.7059 14.1836 11.2097 14.3485 11.6663C14.5135 12.1228 15.0169 12.3595 15.4738 12.1943C16.9506 11.6608 18.502 11.3903 20.0851 11.3903C23.4806 11.3903 26.5896 12.6402 28.9764 14.7039L26.9373 16.7428C25.077 15.1964 22.6877 14.2653 20.0851 14.2653C14.1658 14.2653 9.3501 19.0808 9.3501 24.9998C9.3501 30.9188 14.1658 35.7343 20.0851 35.7343C21.7768 35.7343 23.4635 35.3286 24.9628 34.561C25.3949 34.3398 25.5657 33.8103 25.3446 33.3782C25.1234 32.946 24.5936 32.7754 24.1617 32.9964C22.8914 33.6468 21.5198 33.9766 20.0851 33.9766C15.1351 33.9766 11.1079 29.9497 11.1079 24.9999C11.1079 20.0501 15.135 16.0232 20.0851 16.0232C22.2029 16.0232 24.1515 16.7607 25.6883 17.9919L23.638 20.0421C22.6367 19.3226 21.4096 18.8982 20.0852 18.8982C16.7206 18.8982 13.9832 21.6353 13.9832 24.9998C13.9832 28.3642 16.7206 31.1014 20.0852 31.1014C23.4497 31.1014 26.1871 28.3642 26.1871 24.9998C26.1871 23.5925 25.7079 22.295 24.9044 21.2616L26.9472 19.219C28.2661 20.7819 29.0623 22.7994 29.0623 24.9997C29.0623 25.965 28.9094 26.915 28.6076 27.8232C28.4546 28.2838 28.704 28.7814 29.1646 28.9344C29.6249 29.0873 30.1227 28.8381 30.2758 28.3774C30.637 27.2901 30.8202 26.1537 30.8202 24.9997C30.8202 22.3146 29.8292 19.8568 28.1938 17.9724L30.2299 15.9364C32.3841 18.3448 33.6955 21.5219 33.6955 24.9997C33.6955 32.5039 27.5899 38.6092 20.0853 38.6092C12.5807 38.6092 6.47485 32.504 6.47485 24.9998C6.47485 22.1004 7.37819 19.331 9.08722 16.9911C9.37356 16.5991 9.28787 16.0493 8.89588 15.763C8.50389 15.4768 7.95405 15.5623 7.6677 15.9544C5.73745 18.5973 4.71704 21.7252 4.71704 24.9998C4.71704 33.4734 11.6112 40.3671 20.085 40.3671C28.559 40.3671 35.453 33.4733 35.453 24.9998C35.453 21.0373 33.9454 17.4205 31.4738 14.6924L33.5078 12.6585C36.4991 15.909 38.3282 20.2447 38.3282 24.9999C38.3284 35.0587 30.1445 43.2421 20.0851 43.2421ZM24.4291 24.9998C24.4291 27.395 22.4804 29.3436 20.085 29.3436C17.6897 29.3436 15.7409 27.395 15.7409 24.9998C15.7409 22.6046 17.6897 20.656 20.085 20.656C20.9235 20.656 21.7071 20.895 22.3718 21.3081L19.5683 24.1114C19.2251 24.4546 19.2251 25.0111 19.5683 25.3543C19.74 25.526 19.9649 25.6118 20.1898 25.6118C20.4147 25.6118 20.6396 25.5259 20.8113 25.3543L23.648 22.5177C24.14 23.2218 24.4291 24.0776 24.4291 24.9998ZM39.5856 10.0477C39.2712 10.3622 38.8547 10.5463 38.4112 10.5676L35.6436 10.5229L37.332 8.83453C37.3509 8.81572 37.3684 8.79612 37.3852 8.77617L38.828 7.33107L42.0606 7.57295L39.5856 10.0477Z" fill="#151F59"/>
</g>
<defs>
<clipPath id="clip0">
<rect width="45" height="45" fill="white"/>
</clipPath>
</defs>
</svg>
