<svg width="41" height="41" viewBox="0 0 41 41" fill="none" xmlns="http://www.w3.org/2000/svg">
<path d="M40.3994 37.2099H37.9258V27.8399C37.9258 27.5083 37.6569 27.2394 37.3252 27.2394C36.9935 27.2394 36.7246 27.5083 36.7246 27.8399V37.2099H31.4547V16.5706H36.7246V25.0372C36.7246 25.3689 36.9935 25.6378 37.3252 25.6378C37.6569 25.6378 37.9258 25.3689 37.9258 25.0372V15.97C37.9258 15.6383 37.6569 15.3694 37.3252 15.3694H30.8541C30.5224 15.3694 30.2535 15.6383 30.2535 15.97V37.2099H28.8662V19.2057C28.8662 18.874 28.5973 18.6051 28.2657 18.6051H21.7943C21.4626 18.6051 21.1937 18.874 21.1937 19.2057V37.2099H19.8064V24.0592C19.8064 23.7275 19.5375 23.4586 19.2058 23.4586H12.7344C12.4027 23.4586 12.1338 23.7275 12.1338 24.0592V37.2099H10.7465V27.942C10.7465 27.6104 10.4776 27.3415 10.1459 27.3415H3.67446C3.34278 27.3415 3.07388 27.6104 3.07388 27.942V37.2099H0.600586C0.268902 37.2099 0 37.4788 0 37.8105V40.3994C0 40.7311 0.268902 41 0.600586 41H7.08691C7.4186 41 7.6875 40.7311 7.6875 40.3994C7.6875 40.0677 7.4186 39.7988 7.08691 39.7988H1.20117V38.4111H39.7988V39.7988H9.88965C9.55797 39.7988 9.28906 40.0677 9.28906 40.3994C9.28906 40.7311 9.55797 41 9.88965 41H40.3994C40.7311 41 41 40.7311 41 40.3994V37.8105C41 37.4788 40.7311 37.2099 40.3994 37.2099ZM22.3949 19.8063H27.6651V37.2099H22.3949V19.8063ZM13.3349 24.6598H18.6051V37.2099H13.3349V24.6598ZM4.27505 28.5426H9.54523V37.2099H4.27505V28.5426Z" fill="#151F59"/>
<path d="M3.59375 21.9094H12.7339C13.2641 21.9094 13.7734 21.6854 14.1311 21.295L21.576 13.1729H26.6474C27.1538 13.1729 27.6297 12.9759 27.9874 12.6182L34.1363 6.46919V8.36648C34.1363 8.69817 34.4053 8.96707 34.7369 8.96707H37.3251C37.6567 8.96707 37.9256 8.69817 37.9256 8.36648V1.89465C37.9256 0.849949 37.0757 0 36.031 0H29.5599C29.2282 0 28.9593 0.268902 28.9593 0.600586V3.18951C28.9593 3.5212 29.2282 3.7901 29.5599 3.7901H31.4565L25.863 9.38355H20.7425C20.2128 9.38355 19.7037 9.60753 19.3461 9.99783L11.9003 18.1201H10.2442C9.91255 18.1201 9.64365 18.389 9.64365 18.7207C9.64365 19.0523 9.91255 19.3212 10.2442 19.3212H12.1645C12.3328 19.3212 12.4935 19.2506 12.6072 19.1265L20.2315 10.8095C20.3623 10.6667 20.5485 10.5848 20.7424 10.5848H26.1116C26.2709 10.5848 26.4237 10.5215 26.5363 10.4089L33.3309 3.61425C33.5027 3.44248 33.5541 3.18415 33.4611 2.95977C33.3682 2.73531 33.1491 2.58901 32.9063 2.58901H30.1604V1.20117H36.0309C36.4133 1.20117 36.7244 1.51228 36.7244 1.89465V7.76598H35.3374V5.0193C35.3374 4.77642 35.1911 4.55741 34.9667 4.46444C34.7424 4.37162 34.4839 4.42287 34.3122 4.59464L27.1381 11.7688C27.0072 11.8996 26.8329 11.9717 26.6474 11.9717H21.3118C21.1434 11.9717 20.9829 12.0423 20.8691 12.1664L13.2456 20.4834C13.1147 20.6263 12.9282 20.7082 12.7339 20.7082H4.19434V19.3212H7.4415C7.77319 19.3212 8.04209 19.0523 8.04209 18.7207C8.04209 18.389 7.77319 18.1201 7.4415 18.1201H3.59375C3.26207 18.1201 2.99316 18.389 2.99316 18.7207V21.3088C2.99316 21.6405 3.26207 21.9094 3.59375 21.9094Z" fill="#151F59"/>
</svg>
