<svg width="48" height="48" viewBox="0 0 48 48" fill="none" xmlns="http://www.w3.org/2000/svg">
<g clip-path="url(#clip0)">
<path d="M8.52534 18.2905C8.52534 17.3976 8.88947 16.5844 9.47944 15.9971C10.0668 15.4071 10.88 15.0431 11.7728 15.0431C12.6684 15.0431 13.4789 15.4071 14.069 15.9971C14.6563 16.5844 15.023 17.3975 15.023 18.2905C15.023 19.1568 15.0682 19.9674 15.1452 20.7354H16.8035C17.3084 20.7354 17.7654 20.5307 18.0977 20.1986C18.4298 19.8664 18.6371 19.4066 18.6371 18.9043V16.2628C18.6371 15.8748 18.9507 15.5586 19.3414 15.5586H21.983C22.4852 15.5586 22.9449 15.3539 23.2772 15.0191C23.6093 14.687 23.8166 14.2299 23.8166 13.7276C23.8166 13.2227 23.6093 12.7657 23.2772 12.4334C22.945 12.1012 22.4853 11.894 21.983 11.894H19.3414C18.9507 11.894 18.6371 11.5804 18.6371 11.1925V8.54815C18.6371 8.04584 18.4298 7.5888 18.0977 7.25655C17.7654 6.9244 17.3084 6.71712 16.8035 6.71712H14.162C13.7739 6.71712 13.4603 6.4009 13.4603 6.01287V3.37127C13.4603 2.86634 13.2531 2.4093 12.9209 2.07705C12.5887 1.7449 12.129 1.53762 11.6267 1.53762C11.1244 1.53762 10.6673 1.7449 10.3325 2.07705C10.0002 2.40921 9.79556 2.86634 9.79556 3.37127V6.01287C9.79556 6.4009 9.47934 6.71712 9.09131 6.71712H6.44981C5.9475 6.71712 5.48775 6.9244 5.15559 7.25655C4.82344 7.5888 4.61616 8.04584 4.61616 8.54815V18.9043C4.61616 19.4066 4.82344 19.8664 5.15559 20.1986C5.48775 20.5307 5.9475 20.7354 6.44981 20.7354H8.52534V18.2905ZM39.4748 25.9333C39.4748 26.3214 39.1612 26.6349 38.7732 26.6349C38.3853 26.6349 38.069 26.3213 38.069 25.9333V21.4395V18.2905C38.069 17.7855 37.8617 17.3231 37.5268 16.991C37.1947 16.6561 36.7322 16.4488 36.2273 16.4488C35.7223 16.4488 35.2599 16.6561 34.9278 16.991C34.593 17.3232 34.3857 17.7856 34.3857 18.2905C34.3857 20.4988 34.0881 22.4335 33.7054 24.5966C33.429 26.1646 33.1712 27.6341 33.1712 29.1781C33.1712 31.0836 33.7081 34.5409 35.5098 35.7527C35.7065 35.8829 35.8207 36.1008 35.8207 36.3346L35.8233 38.1949H42.9667C43.3547 36.6695 43.8994 35.4311 44.4549 34.1662C45.5047 31.7798 46.5942 29.3004 46.5942 24.5647C46.5942 21.8142 46.2142 19.2551 45.5577 17.0998C45.1485 15.7525 44.633 14.5673 44.0404 13.5972V18.9042C44.0404 19.7945 43.6762 20.6051 43.0889 21.1924C42.5016 21.7796 41.6937 22.1438 40.8008 22.1438H39.4748V25.9333ZM39.4748 18.2905V20.7354H40.8008C41.3058 20.7354 41.7629 20.5307 42.0951 20.1986C42.4273 19.8664 42.6346 19.4066 42.6346 18.9043V8.54815C42.6346 8.04584 42.4273 7.5888 42.0951 7.25655C41.7629 6.9244 41.3058 6.71712 40.8008 6.71712H38.1593C37.7713 6.71712 37.455 6.4009 37.455 6.01287V3.37127C37.455 2.86634 37.2504 2.4093 36.9182 2.07705C36.586 1.7449 36.1262 1.53762 35.6239 1.53762C35.1217 1.53762 34.6619 1.7449 34.3297 2.07705C33.9975 2.40921 33.7902 2.86634 33.7902 3.37127V6.01287C33.7902 6.4009 33.4766 6.71712 33.0887 6.71712H30.4472C29.9422 6.71712 29.4851 6.9244 29.153 7.25655C28.8207 7.5888 28.6134 8.04584 28.6134 8.54815V10.4881H30.5534C31.4463 10.4881 32.2542 10.8521 32.8415 11.4395C33.4288 12.0268 33.7928 12.8347 33.7928 13.7276C33.7928 14.6178 33.4287 15.4284 32.8415 16.0156C32.2541 16.6002 31.4463 16.9644 30.5534 16.9644H28.6134V18.9043C28.6134 19.4066 28.8207 19.8664 29.153 20.1986C29.4851 20.5307 29.9422 20.7354 30.4472 20.7354H32.8575C32.9319 19.9674 32.9798 19.1568 32.9798 18.2905C32.9798 17.3976 33.3439 16.5844 33.9338 15.9971C34.5212 15.4071 35.3343 15.0431 36.2273 15.0431C37.1229 15.0431 37.9334 15.4071 38.5234 15.9971C39.1106 16.5843 39.4748 17.3975 39.4748 18.2905ZM8.52534 22.1438H6.44981C5.55684 22.1438 4.749 21.7796 4.16166 21.1924C3.57431 20.6051 3.21028 19.7945 3.21028 18.9042V14.9526C2.82759 15.7843 2.49544 16.7224 2.22431 17.7456C1.69809 19.7413 1.40578 22.0586 1.40578 24.5647C1.40578 29.3004 2.49544 31.7798 3.54506 34.1662C4.10044 35.4311 4.64522 36.6695 5.03325 38.1949H12.1766V36.3347C12.1766 36.1089 12.2882 35.8883 12.4902 35.7528C14.2946 34.541 14.8315 31.0836 14.8315 29.1782C14.8315 27.6342 14.5711 26.1646 14.2947 24.5967C13.9147 22.4336 13.617 20.4989 13.617 18.2906C13.617 17.7856 13.4097 17.3232 13.0748 16.9911C12.74 16.6562 12.2802 16.4489 11.7727 16.4489C11.2677 16.4489 10.808 16.6562 10.4732 16.9911C10.1383 17.3233 9.93094 17.7857 9.93094 18.2906V21.4396V25.9334C9.93094 26.3215 9.61734 26.635 9.22941 26.635C8.83875 26.635 8.52516 26.3214 8.52516 25.9334V22.1438H8.52534ZM37.7288 46.4597C38.1168 46.4597 38.433 46.776 38.433 47.164C38.433 47.5519 38.1168 47.8682 37.7288 47.8682H32.6608C32.2728 47.8682 31.9566 47.5519 31.9566 47.164V41.3574C31.9566 40.4883 32.3127 39.6964 32.8867 39.1225C33.3013 38.7079 33.8274 38.4076 34.4174 38.2747V36.6829C32.4163 35.0273 31.7652 31.5858 31.7652 29.1781C31.7652 27.5172 32.0336 25.9865 32.3207 24.3575C32.4482 23.6453 32.5758 22.9119 32.6873 22.1439H30.4472C29.5542 22.1439 28.7464 21.7797 28.1591 21.1925C27.5717 20.6051 27.2078 19.7946 27.2078 18.9043V16.2628C27.2078 15.8748 27.5213 15.5586 27.912 15.5586H30.5536C31.0558 15.5586 31.5157 15.3539 31.8478 15.0191C32.18 14.687 32.3872 14.2299 32.3872 13.7276C32.3872 13.2227 32.18 12.7657 31.8478 12.4334C31.5157 12.1012 31.0559 11.894 30.5536 11.894H27.912C27.5213 11.894 27.2078 11.5804 27.2078 11.1925V8.54815C27.2078 7.6579 27.5718 6.84734 28.1591 6.26271C28.7464 5.67546 29.5542 5.31134 30.4472 5.31134H32.3845V3.37127C32.3845 2.4784 32.7486 1.67046 33.3358 1.08321C33.9232 0.495867 34.7336 0.131836 35.6239 0.131836C36.5142 0.131836 37.3248 0.495867 37.912 1.08321C38.4994 1.67055 38.8634 2.4784 38.8634 3.37127V5.31124H40.8007C41.6935 5.31124 42.5015 5.67527 43.0887 6.26262C43.6761 6.84724 44.0402 7.6578 44.0402 8.54805V11.2693C45.2175 12.5369 46.2061 14.4184 46.8997 16.6932C47.596 18.9866 48 21.6866 48 24.5647C48 29.5901 46.8493 32.2103 45.7411 34.7322C45.2389 35.875 44.7445 36.9938 44.3884 38.3145C44.912 38.466 45.3823 38.7477 45.757 39.1225C46.3311 39.6964 46.6872 40.4884 46.6872 41.3574V47.164C46.6872 47.5519 46.3709 47.8682 45.983 47.8682H40.9149C40.527 47.8682 40.2107 47.5519 40.2107 47.164C40.2107 46.7759 40.527 46.4597 40.9149 46.4597H45.2812V41.3574C45.2812 40.8763 45.0819 40.4352 44.7631 40.1163C44.4442 39.8 44.0057 39.6007 43.5247 39.6007H35.1216C34.6379 39.6007 34.1994 39.7974 33.8806 40.1163C33.5617 40.4351 33.365 40.8763 33.365 41.3574V46.4597H37.7288ZM10.2713 47.8682C9.88331 47.8682 9.56972 47.5519 9.56972 47.164C9.56972 46.7759 9.88331 46.4597 10.2713 46.4597H14.6377V41.3574C14.6377 40.8763 14.4383 40.4352 14.1194 40.1163C13.8005 39.7974 13.362 39.6007 12.881 39.6007H4.47797C4.01025 39.6007 3.56644 39.7867 3.23691 40.1163C2.91797 40.4351 2.72128 40.8763 2.72128 41.3574V46.4597H7.08759C7.47563 46.4597 7.78922 46.776 7.78922 47.164C7.78922 47.5519 7.47563 47.8682 7.08759 47.8682H2.01713C1.62909 47.8682 1.3155 47.5519 1.3155 47.164V41.3574C1.3155 40.4883 1.67156 39.6964 2.24306 39.1225C2.62041 38.7477 3.08812 38.4661 3.61162 38.3145C3.25556 36.9938 2.76394 35.875 2.26163 34.7322C1.15069 32.2104 0 29.5901 0 24.5647C0 21.9417 0.308344 19.5049 0.868969 17.3869C1.41909 15.3034 2.21897 13.5229 3.21028 12.1836V8.54815C3.21028 7.6579 3.57431 6.84734 4.16166 6.26271C4.749 5.67546 5.55684 5.31134 6.44981 5.31134H8.38978V3.37127C8.38978 2.4784 8.75381 1.67046 9.33853 1.08321C9.92578 0.495867 10.7364 0.131836 11.6267 0.131836C12.5196 0.131836 13.3275 0.495867 13.9147 1.08321C14.5021 1.67055 14.8661 2.4784 14.8661 3.37127V5.31124H16.8035C17.6963 5.31124 18.507 5.67527 19.0916 6.26262C19.679 6.84724 20.043 7.6578 20.043 8.54805V10.488H21.9831C22.8733 10.488 23.6839 10.8521 24.2711 11.4394C24.8585 12.0267 25.2224 12.8346 25.2224 13.7275C25.2224 14.6177 24.8584 15.4283 24.2711 16.0155C23.6838 16.6001 22.8732 16.9643 21.9831 16.9643H20.043V18.9042C20.043 19.7945 19.679 20.6051 19.0916 21.1924C18.507 21.7796 17.6964 22.1438 16.8035 22.1438H15.3153C15.4242 22.9118 15.5544 23.6453 15.6793 24.3574C15.9664 25.9864 16.2374 27.5171 16.2374 29.178C16.2374 31.5857 15.5836 35.0272 13.5825 36.6828V38.2746C14.1725 38.4074 14.7013 38.7077 15.1159 39.1224C15.6872 39.6963 16.0433 40.4883 16.0433 41.3573V47.1639C16.0433 47.5518 15.7297 47.8681 15.3418 47.8681H10.2713V47.8682Z" fill="#151F59"/>
</g>
<defs>
<clipPath id="clip0">
<rect width="48" height="48" fill="white"/>
</clipPath>
</defs>
</svg>
