<svg width="42" height="42" viewBox="0 0 42 42" fill="none" xmlns="http://www.w3.org/2000/svg">
<g clip-path="url(#clip0)">
<path d="M9.65069 4.27902C9.44401 3.79004 8.73297 3.77049 8.50802 4.25563C8.39555 4.49852 8.45355 4.79396 8.65029 4.97629C8.84993 5.16086 9.15498 5.19322 9.38986 5.05672C9.65454 4.90259 9.76989 4.56229 9.65069 4.27902Z" fill="#151F59"/>
<path d="M13.8961 4.27906C13.6846 3.77918 12.9543 3.77405 12.7431 4.27906C12.6364 4.53412 12.7172 4.83725 12.9331 5.00837C13.1337 5.1673 13.4202 5.1846 13.6394 5.05419C13.9012 4.89846 14.0146 4.56072 13.8961 4.27906Z" fill="#151F59"/>
<path d="M11.7735 4.27912C11.677 4.05065 11.4521 3.89652 11.2031 3.89395C10.9281 3.89107 10.6804 4.075 10.5997 4.33679C10.525 4.57936 10.6125 4.85141 10.8105 5.00842C11.0185 5.17313 11.3168 5.18466 11.5383 5.04079C11.7863 4.87897 11.8888 4.55277 11.7735 4.27912Z" fill="#151F59"/>
<path d="M39.1752 1.3125H8.36028C6.80264 1.3125 5.53564 2.57982 5.53564 4.13713V15.0899C5.53564 15.4347 5.81506 15.7141 6.15985 15.7141C6.50464 15.7141 6.78438 15.4347 6.78438 15.0899V7.38986H25.3555V15.5135C25.3555 15.7516 25.491 15.9692 25.7051 16.074C25.7922 16.1169 25.8861 16.1377 25.9797 16.1377C26.1156 16.1377 26.2508 16.0935 26.3623 16.007L34.2485 9.89566C34.3799 9.79408 34.4651 9.64412 34.4856 9.47942C34.5065 9.31471 34.4603 9.14873 34.3581 9.01767C33.8858 8.41301 33.3571 7.86955 32.7832 7.38986H40.7511V31.6221C40.7511 32.4908 40.0442 33.198 39.1752 33.198H21.1097V30.4458C21.973 30.6688 22.8635 30.7819 23.7677 30.7819C29.6205 30.7819 34.3821 26.0206 34.3821 20.1682C34.3821 19.4949 34.3187 18.8207 34.1934 18.1651C34.1287 17.8264 33.8012 17.6047 33.4628 17.6691C33.1241 17.7338 32.902 18.061 32.9668 18.3997C33.0773 18.9784 33.1334 19.5734 33.1334 20.1682C33.1334 23.0617 31.8142 25.653 29.7454 27.3722L24.6271 20.2909L31.5283 14.9246C31.8891 15.4571 32.1939 16.0249 32.4374 16.619C32.5681 16.9382 32.9328 17.0907 33.252 16.96C33.5711 16.8289 33.7236 16.4642 33.5929 16.1451C33.2273 15.254 32.7409 14.4154 32.1468 13.6524C31.935 13.3804 31.5428 13.3314 31.271 13.5432L24.3919 18.8919V10.1789C24.3919 9.83414 24.1125 9.5544 23.7677 9.5544C17.915 9.5544 13.154 14.3157 13.154 20.1682C13.154 23.3472 14.5453 26.3042 16.9822 28.3303V33.198H15.4076V29.2839C15.4076 28.9391 15.1282 28.6593 14.7831 28.6593H11.9046C11.5595 28.6593 11.2801 28.9391 11.2801 29.2839V33.198H9.66316V17.1714C9.66316 16.8263 9.38374 16.5469 9.03896 16.5469H6.16017C5.81538 16.5469 5.53596 16.8263 5.53596 17.1714V40.0739C5.53596 40.4187 5.81538 40.6981 6.16017 40.6981H9.03896C9.38374 40.6981 9.66316 40.4187 9.66316 40.0739V34.4467H11.2801V40.0739C11.2801 40.4187 11.5595 40.6981 11.9046 40.6981H14.7831C15.1282 40.6981 15.4076 40.4187 15.4076 40.0739V34.4467H16.9822V40.0739C16.9822 40.4187 17.2616 40.6981 17.6067 40.6981H20.4852C20.8303 40.6981 21.1097 40.4187 21.1097 40.0739V34.4467H39.1752C40.7325 34.4467 41.9998 33.1797 41.9998 31.6221V4.13713C41.9998 2.57982 40.7325 1.3125 39.1752 1.3125V1.3125ZM6.7847 39.4493V17.7957H8.41443V39.4493H6.7847ZM12.5288 39.4493V29.9084H14.1589V39.4493H12.5288ZM14.4027 20.1682C14.4027 15.2142 18.2694 11.1463 23.1432 10.8236V20.1682C23.1432 20.3021 23.1874 20.4287 23.263 20.5331L23.2621 20.5341L28.7338 28.1047C27.2935 29.0093 25.5907 29.5332 23.7677 29.5332C22.8593 29.5332 21.9675 29.4037 21.1097 29.1496V24.2893C21.1097 23.9442 20.8303 23.6647 20.4852 23.6647H17.6067C17.2616 23.6647 16.9822 23.9442 16.9822 24.2893V26.6246C15.3291 24.8933 14.4027 22.6047 14.4027 20.1682ZM18.2309 39.4493V24.9135H19.861V39.4493H18.2309ZM26.6042 14.2398V6.20329C29.0645 6.36351 31.3316 7.46805 32.9719 9.30542L26.6042 14.2398ZM30.9182 6.14113C29.4196 5.35574 27.7341 4.93405 25.9797 4.93405C25.6349 4.93405 25.3555 5.21379 25.3555 5.55858V6.14113H6.78438V4.13713C6.78438 3.26811 7.49126 2.56123 8.36028 2.56123H39.1752C40.0442 2.56123 40.7511 3.26811 40.7511 4.13713V6.14113H30.9182Z" fill="#151F59"/>
<path d="M3.50299 20.7924H0.624527C0.279419 20.7924 0 21.0721 0 21.4169V40.0739C0 40.4187 0.279419 40.6981 0.624527 40.6981H3.50299C3.84778 40.6981 4.12752 40.4187 4.12752 40.0739V35.028C4.12752 34.6832 3.84778 34.4035 3.50299 34.4035C3.1582 34.4035 2.87846 34.6832 2.87846 35.028V39.4493H1.24873V22.0411H2.87846V32.9464C2.87846 33.2912 3.1582 33.571 3.50299 33.571C3.84778 33.571 4.12752 33.2912 4.12752 32.9464V21.4169C4.12752 21.0721 3.84778 20.7924 3.50299 20.7924Z" fill="#151F59"/>
<path d="M39.2164 30.1782H32.5982C32.2534 30.1782 31.9736 30.458 31.9736 30.8027C31.9736 31.1475 32.2534 31.4273 32.5982 31.4273H39.2164C39.5612 31.4273 39.8406 31.1475 39.8406 30.8027C39.8406 30.458 39.5612 30.1782 39.2164 30.1782Z" fill="#151F59"/>
<path d="M39.2162 27.5356H34.5959C34.2511 27.5356 33.9717 27.8154 33.9717 28.1602C33.9717 28.505 34.2511 28.7844 34.5959 28.7844H39.2162C39.561 28.7844 39.8404 28.505 39.8404 28.1602C39.8404 27.8154 39.561 27.5356 39.2162 27.5356Z" fill="#151F59"/>
</g>
<defs>
<clipPath id="clip0">
<rect width="42" height="42" fill="white"/>
</clipPath>
</defs>
</svg>
