<svg width="52" height="52" viewBox="0 0 52 52" fill="none" xmlns="http://www.w3.org/2000/svg">
<path d="M26.6788 28.3794C26.5825 28.3585 26.4838 28.3548 26.3864 28.3694C25.4097 28.2557 24.673 27.4294 24.6713 26.4465C24.6713 25.9754 24.2894 25.5935 23.8184 25.5935C23.3473 25.5935 22.9654 25.9754 22.9654 26.4465C22.9679 28.0878 24.0658 29.5255 25.6484 29.9599V30.8128C25.6484 31.2839 26.0303 31.6658 26.5013 31.6658C26.9724 31.6658 27.3543 31.2839 27.3543 30.8128V30.0115C29.181 29.6292 30.4225 27.9279 30.2305 26.0716C30.0381 24.2154 28.4742 22.8048 26.6079 22.8044C25.5384 22.8044 24.6713 21.9372 24.6713 20.8677C24.6713 19.7982 25.5384 18.9311 26.6079 18.9311C27.6775 18.9311 28.5446 19.7982 28.5446 20.8677C28.5446 21.3388 28.9265 21.7207 29.3975 21.7207C29.8686 21.7207 30.2505 21.3388 30.2505 20.8677C30.248 19.1443 29.0406 17.6579 27.3543 17.3022V16.5259C27.3543 16.0549 26.9724 15.673 26.5013 15.673C26.0303 15.673 25.6484 16.0549 25.6484 16.5259V17.3543C23.8883 17.8349 22.7555 19.5437 22.9979 21.3521C23.2403 23.1604 24.7834 24.5103 26.6079 24.5098C27.6633 24.5098 28.5242 25.3549 28.5433 26.4098C28.5629 27.4648 27.7333 28.341 26.6788 28.3794Z" fill="#151F59"/>
<path d="M14.2393 23.7226C14.2393 30.5537 19.7768 36.0912 26.6079 36.0912C33.439 36.0912 38.9765 30.5537 38.9765 23.7226C38.9765 16.8915 33.439 11.354 26.6079 11.354C19.7801 11.3615 14.2472 16.8948 14.2393 23.7226ZM26.6079 13.0599C32.4969 13.0599 37.2706 17.8336 37.2706 23.7226C37.2706 29.6116 32.4969 34.3853 26.6079 34.3853C20.7188 34.3853 15.9452 29.6116 15.9452 23.7226C15.9518 17.8365 20.7218 13.0666 26.6079 13.0599Z" fill="#151F59"/>
<path d="M43.1817 38.194L36.5001 41.351C35.5776 39.6351 33.808 38.543 31.8605 38.4881L25.6925 38.3186C24.7158 38.2907 23.7575 38.0433 22.8892 37.5947L22.2615 37.2695C19.048 35.5944 15.2176 35.5985 12.0074 37.2803L12.0465 35.8584C12.0594 35.3874 11.6884 34.9951 11.2173 34.9821L4.4537 34.796C3.98266 34.7831 3.59075 35.1542 3.57784 35.6252L3.16927 50.4677C3.15636 50.9387 3.52744 51.3311 3.99848 51.344L10.7621 51.5301H10.7854C11.2477 51.5301 11.6259 51.1624 11.6384 50.7005L11.658 49.9904L13.4151 49.0496C14.1048 48.6785 14.9111 48.5902 15.6645 48.8034L26.1573 51.7484C26.1756 51.7538 26.1939 51.7579 26.2127 51.7621C26.9711 51.9208 27.7441 52.0003 28.5187 51.9999C30.1596 52.0008 31.7814 51.6472 33.2728 50.9625C33.3095 50.9458 33.3449 50.9262 33.3786 50.9042L48.5922 41.0636C48.9712 40.8183 49.0936 40.3206 48.8717 39.9274C47.7422 37.9233 45.237 37.1599 43.1817 38.194ZM4.89808 49.6622L5.25958 36.5248L10.3177 36.6639L9.95622 49.8017L4.89808 49.6622ZM32.5044 49.439C30.6515 50.2753 28.582 50.506 26.5904 50.0991L16.126 47.1617C14.9481 46.8289 13.6875 46.9668 12.61 47.5461L11.7121 48.0271L11.9524 39.2923C14.7978 37.3998 18.447 37.2053 21.4773 38.7842L22.1049 39.1095C23.2019 39.6759 24.4118 39.9882 25.6458 40.0241L31.8143 40.1936C33.5469 40.2435 35.0183 41.4771 35.3698 43.1747L26.1819 42.9211C25.7108 42.9082 25.3189 43.2797 25.3056 43.7503C25.2927 44.2213 25.6642 44.6137 26.1348 44.6266L36.2744 44.9056H36.2981C36.76 44.9052 37.1378 44.5374 37.1503 44.076C37.1607 43.7053 37.1332 43.3342 37.0678 42.9694L43.921 39.7313C43.9276 39.7283 43.9343 39.725 43.941 39.7217C44.913 39.2298 46.0883 39.3943 46.888 40.1344L32.5044 49.439Z" fill="#151F59"/>
<path d="M27.4613 8.95598V0.85295C27.4613 0.381912 27.0794 0 26.6083 0C26.1373 0 25.7554 0.381912 25.7554 0.85295V8.95598C25.7554 9.42701 26.1373 9.80893 26.6083 9.80893C27.0794 9.80893 27.4613 9.42701 27.4613 8.95598Z" fill="#151F59"/>
<path d="M33.8582 8.956V5.11772C33.8582 4.64668 33.4763 4.26477 33.0053 4.26477C32.5343 4.26477 32.1523 4.64668 32.1523 5.11772V8.956C32.1523 9.42703 32.5343 9.80895 33.0053 9.80895C33.4763 9.80895 33.8582 9.42703 33.8582 8.956Z" fill="#151F59"/>
<path d="M21.0638 8.956V5.11772C21.0638 4.64668 20.6819 4.26477 20.2109 4.26477C19.7398 4.26477 19.3579 4.64668 19.3579 5.11772V8.956C19.3579 9.42703 19.7398 9.80895 20.2109 9.80895C20.6819 9.80895 21.0638 9.42703 21.0638 8.956Z" fill="#151F59"/>
</svg>
