<svg width="153" height="111" fill="none" xmlns="http://www.w3.org/2000/svg"><mask id="a" maskUnits="userSpaceOnUse" x="0" y="0" width="153" height="111"><path transform="rotate(-180 151.852 110.03)" fill="#C4C4C4" stroke="url(#paint0_linear)" d="M151.852 110.03h151.352v109.53H151.852z"/></mask><g mask="url(#a)"><path d="M152.565 110.743c-9.389-5.548-38.309-14.8-52.064-13.016-23.045 2.987-42.676 14.51-52.491 19.204" stroke="url(#paint1_linear)"/><path d="M152.778 103.061c-9.388-5.548-38.264-14.406-52.064-13.016-29.66 2.988-52.704 20.698-62.52 25.392" stroke="url(#paint2_linear)"/><path d="M152.778 94.74c-9.388-5.548-38.264-14.406-52.064-13.016-29.66 2.987-68.494 29.872-78.31 34.567" stroke="url(#paint3_linear)"/><path d="M152.778 85.991c-9.388-5.548-37.998-12.442-51.85-11.736-33.5 1.707-66.147 31.794-98.154 42.036" stroke="url(#paint4_linear)"/><path d="M150.645 78.523c-9.389-5.548-32.007-13.065-49.717-12.163C66.36 68.122 42.035 96.233 0 108.182" stroke="url(#paint5_linear)"/><path d="M150.645 71.055c-9.389-5.548-32.007-13.065-49.717-12.163C66.36 60.654 42.035 88.765 0 100.714" stroke="url(#paint6_linear)"/><path d="M150.645 62.52c-9.389-5.548-32.007-13.065-49.717-12.163C66.36 52.118 42.035 80.23 0 92.179" stroke="url(#paint7_linear)"/><path d="M150.645 54.411c-9.389-5.547-32.007-13.065-49.717-12.162C66.36 44.01 42.035 72.122 0 84.07" stroke="url(#paint8_linear)"/><path d="M150.645 46.303c-9.389-5.548-32.007-13.065-49.717-12.163C66.36 35.902 42.035 64.013 0 75.962" stroke="url(#paint9_linear)"/><path d="M150.645 38.195c-9.389-5.548-32.007-13.065-49.717-12.163C66.36 27.794 42.035 55.905 0 67.854" stroke="url(#paint10_linear)"/><path d="M150.645 30.94c-9.389-5.548-32.007-13.065-49.717-12.163C66.36 20.54 42.035 48.65 0 60.6" stroke="url(#paint11_linear)"/><path d="M150.645 23.258c-9.389-5.548-32.007-13.065-49.717-12.162C66.36 12.855 42.035 40.968 0 52.916" stroke="url(#paint12_linear)"/><path d="M150.645 15.576c-9.389-5.547-32.007-13.064-49.717-12.162C66.36 5.175 42.035 33.287 0 45.236" stroke="url(#paint13_linear)"/><path d="M150.645 7.041c-9.389-5.547-32.007-13.064-49.717-12.162C66.36-3.36 42.035 24.752 0 36.701" stroke="url(#paint14_linear)"/><path d="M150.645-1.067c-9.389-5.548-32.007-13.065-49.717-12.163C66.36-11.468 42.035 16.643 0 28.592" stroke="url(#paint15_linear)"/><path d="M150.645-9.175c-9.389-5.548-32.007-13.065-49.717-12.163C66.36-19.576 42.035 8.535 0 20.484" stroke="url(#paint16_linear)"/><path d="M150.645-18.564c-9.389-5.548-32.007-13.065-49.717-12.162C66.36-28.965 42.035-.853 0 11.096" stroke="url(#paint17_linear)"/><path d="M152.352 118.851c-9.389-5.548-38.31-14.799-52.065-13.016-23.044 2.988-42.675 14.51-52.49 19.204" stroke="url(#paint18_linear)"/></g><defs><linearGradient id="paint1_linear" x1="135.189" y1="125.934" x2="99.54" y2="72.278" gradientUnits="userSpaceOnUse"><stop stop-color="#2450A4"/><stop offset="1" stop-color="#41B3CD"/></linearGradient><linearGradient id="paint9_linear" x1="125.61" y1="95.378" x2="42.221" y2="11.518" gradientUnits="userSpaceOnUse"><stop stop-color="#2450A4"/><stop offset="1" stop-color="#41B3CD"/></linearGradient><linearGradient id="paint2_linear" x1="133.736" y1="127.272" x2="84.188" y2="65.095" gradientUnits="userSpaceOnUse"><stop stop-color="#2450A4"/><stop offset="1" stop-color="#41B3CD"/></linearGradient><linearGradient id="paint3_linear" x1="131.112" y1="132.377" x2="62.103" y2="59.888" gradientUnits="userSpaceOnUse"><stop stop-color="#2450A4"/><stop offset="1" stop-color="#41B3CD"/></linearGradient><linearGradient id="paint4_linear" x1="127.85" y1="135.794" x2="44.083" y2="52.289" gradientUnits="userSpaceOnUse"><stop stop-color="#2450A4"/><stop offset="1" stop-color="#41B3CD"/></linearGradient><linearGradient id="paint5_linear" x1="125.61" y1="127.598" x2="42.221" y2="43.738" gradientUnits="userSpaceOnUse"><stop stop-color="#2450A4"/><stop offset="1" stop-color="#41B3CD"/></linearGradient><linearGradient id="paint6_linear" x1="125.61" y1="120.13" x2="42.221" y2="36.27" gradientUnits="userSpaceOnUse"><stop stop-color="#2450A4"/><stop offset="1" stop-color="#41B3CD"/></linearGradient><linearGradient id="paint7_linear" x1="125.61" y1="111.594" x2="42.221" y2="27.735" gradientUnits="userSpaceOnUse"><stop stop-color="#2450A4"/><stop offset="1" stop-color="#41B3CD"/></linearGradient><linearGradient id="paint8_linear" x1="125.61" y1="103.486" x2="42.221" y2="19.626" gradientUnits="userSpaceOnUse"><stop stop-color="#2450A4"/><stop offset="1" stop-color="#41B3CD"/></linearGradient><linearGradient id="paint0_linear" x1="177.67" y1="59.309" x2="325.346" y2="116.239" gradientUnits="userSpaceOnUse"><stop stop-color="#2450A4"/><stop offset="1" stop-color="#41B3CD"/></linearGradient><linearGradient id="paint10_linear" x1="125.61" y1="87.269" x2="42.221" y2="3.41" gradientUnits="userSpaceOnUse"><stop stop-color="#2450A4"/><stop offset="1" stop-color="#41B3CD"/></linearGradient><linearGradient id="paint11_linear" x1="125.61" y1="80.014" x2="42.221" y2="-3.845" gradientUnits="userSpaceOnUse"><stop stop-color="#2450A4"/><stop offset="1" stop-color="#41B3CD"/></linearGradient><linearGradient id="paint12_linear" x1="125.61" y1="72.333" x2="42.221" y2="-11.527" gradientUnits="userSpaceOnUse"><stop stop-color="#2450A4"/><stop offset="1" stop-color="#41B3CD"/></linearGradient><linearGradient id="paint13_linear" x1="125.61" y1="64.651" x2="42.221" y2="-19.208" gradientUnits="userSpaceOnUse"><stop stop-color="#2450A4"/><stop offset="1" stop-color="#41B3CD"/></linearGradient><linearGradient id="paint14_linear" x1="125.61" y1="56.116" x2="42.221" y2="-27.743" gradientUnits="userSpaceOnUse"><stop stop-color="#2450A4"/><stop offset="1" stop-color="#41B3CD"/></linearGradient><linearGradient id="paint15_linear" x1="125.61" y1="48.008" x2="42.221" y2="-35.852" gradientUnits="userSpaceOnUse"><stop stop-color="#2450A4"/><stop offset="1" stop-color="#41B3CD"/></linearGradient><linearGradient id="paint16_linear" x1="125.61" y1="39.9" x2="42.221" y2="-43.96" gradientUnits="userSpaceOnUse"><stop stop-color="#2450A4"/><stop offset="1" stop-color="#41B3CD"/></linearGradient><linearGradient id="paint17_linear" x1="125.61" y1="30.511" x2="42.221" y2="-53.349" gradientUnits="userSpaceOnUse"><stop stop-color="#2450A4"/><stop offset="1" stop-color="#41B3CD"/></linearGradient><linearGradient id="paint18_linear" x1="134.976" y1="134.043" x2="99.327" y2="80.387" gradientUnits="userSpaceOnUse"><stop stop-color="#2450A4"/><stop offset="1" stop-color="#41B3CD"/></linearGradient></defs></svg>