<svg width="337" height="156" fill="none" xmlns="http://www.w3.org/2000/svg"><path d="M2.094 78.232c1.842-2.29 4.572-5.454 8.19-8.181 3.207-2.51 7.711-6.437 13.307-6.11 5.801.328 7.166 4.473 12.898 4.255 5.119-.218 5.392-3.6 14.06-7.309 6.824-2.945 10.236-4.363 13.307-2.4 3.958 2.51 4.777 7.527 12.148 13.964 1.706 1.418 2.525 2.181 3.412 2.4 4.163 1.09 6.62-4.364 12.898-7.855 2.594-1.527 1.98-.436 6.825-2.4 7.848-3.272 14.4-7.963 20.883-8.509.819-.109 1.843-.109 3.071.655 2.116 1.2 2.935 3.49 5.323 7.854 2.662 4.8 3.959 7.2 5.324 7.855 2.047.981 3.207-.655 7.234-2.4 3.139-1.419 2.525-.437 9.144-2.4 7.439-2.182 8.736-3.491 11.739-2.4 1.501.545 1.433.981 4.913 3.054 3.413 2.073 6.62 3.6 8.326 4.255 5.119 2.072 10.374 1.418 20.883 0 4.368-.546 6.006-.982 7.576-3.055 2.047-2.618 2.388-5.563 4.163-13.963 3.071-14.072 3.412-11.236 4.913-20.072 1.57-8.945 1.638-14.4 4.573-17.018.409-.327.614-.436 3.071-1.2 8.872-2.945 9.554-3.381 10.987-3.054 2.389.545 2.116 1.963 7.235 6.654 3.548 3.273 3.002 1.964 16.72 10.363 1.706.982 2.593 1.637 3.821 1.2 2.457-.763 3.276-4.581 7.234-12.763 3.549-7.418 4.914-8.4 6.074-8.509 1.16-.109 1.843.873 3.822 3.055 6.347 6.981 9.486 10.472 12.898 10.363 1.775-.109 2.799-.982 4.573 0 1.706.982 2.116 2.727 3.822 3.6 1.774.873 3.412 0 4.572-.655 4.368-2.4 5.05-7.2 9.145-12.108 1.501-1.855 5.733-4.255 14.059-9.055.75-.436 3.139-1.745 6.483-3.6 1.57-.872 2.798-1.636 3.617-2.072" stroke="#2D2D2D" stroke-miterlimit="10" stroke-linecap="round" stroke-linejoin="round"/><g filter="url(#filter0_f)"><path d="M2.094 88.574c1.842-2.29 4.572-5.454 8.19-8.182 3.207-2.509 7.711-6.436 13.307-6.108 5.801.327 7.166 4.472 12.898 4.254 5.119-.218 5.392-3.6 14.06-7.309 6.824-2.945 10.236-4.364 13.307-2.4 3.958 2.51 4.777 7.527 12.148 13.963 1.706 1.418 2.525 2.182 3.412 2.4 4.163 1.091 6.62-4.363 12.898-7.854 2.594-1.527 1.98-.436 6.825-2.4 7.848-3.273 14.4-7.963 20.883-8.509.819-.109 1.843-.109 3.071.655 2.116 1.2 2.935 3.49 5.323 7.854 2.662 4.8 3.959 7.2 5.324 7.854 2.047.982 3.207-.654 7.234-2.4 3.139-1.418 2.525-.436 9.144-2.4 7.439-2.181 8.736-3.49 11.739-2.4 1.501.546 1.433.982 4.913 3.055 3.413 2.073 6.62 3.6 8.326 4.254 5.119 2.073 10.374 1.419 20.883 0 4.368-.545 6.006-.981 7.576-3.054 2.047-2.618 2.388-5.563 4.163-13.963 3.071-14.073 3.412-11.236 4.913-20.072 1.57-8.946 1.638-14.4 4.573-17.018.409-.327.614-.436 3.071-1.2 8.872-2.945 9.554-3.382 10.987-3.055 2.389.546 2.116 1.964 7.235 6.655 3.548 3.273 3.002 1.963 16.72 10.363 1.706.982 2.593 1.636 3.821 1.2 2.457-.763 3.276-4.581 7.234-12.763 3.549-7.418 4.914-8.4 6.074-8.509 1.16-.109 1.843.873 3.822 3.055 6.347 6.981 9.486 10.472 12.898 10.363 1.775-.11 2.799-.982 4.573 0 1.706.982 2.116 2.727 3.822 3.6 1.774.873 3.412 0 4.572-.655 4.368-2.4 5.05-7.2 9.145-12.108 1.501-1.855 5.733-4.255 14.059-9.055.75-.436 3.139-1.745 6.483-3.6 1.57-.872 2.798-1.636 3.617-2.072" stroke="#2D2D2D" stroke-opacity=".1" stroke-miterlimit="10" stroke-linecap="round" stroke-linejoin="round"/></g><path d="M335.337.67c-1.57.893-7.374 4.35-10.036 5.911-8.33 4.907-12.563 7.36-14.065 9.256-4.028 5.019-4.779 9.926-9.148 12.379-1.093.67-2.799 1.561-4.575.67-1.706-.893-2.048-2.677-3.823-3.681s-2.731-.111-4.574 0c-3.414.112-6.623-3.457-12.904-10.594-1.98-2.23-2.594-3.123-3.823-3.123-1.161.112-2.526 1.115-6.077 8.699-3.959 8.364-4.779 12.267-7.237 13.047-1.229.335-2.116-.223-3.823-1.226-13.723-8.587-13.177-7.25-16.727-10.595-5.12-4.795-4.847-6.356-7.237-6.802-1.434-.335-2.116.111-10.992 3.122-2.458.78-2.594.892-3.072 1.227-2.868 2.565-3.004 8.14-4.575 17.397-1.57 8.921-1.911 6.022-4.915 20.52-1.775 8.586-2.117 11.597-4.165 14.274-1.57 2.007-3.209 2.565-7.578 3.122-10.514 1.45-15.772 2.12-20.892 0-1.707-.669-4.916-2.23-8.329-4.349-3.482-2.119-3.482-2.565-4.916-3.123-3.072-1.115-4.37.224-11.743 2.454-6.623 2.007-5.94 1.004-9.149 2.453-4.028 1.896-5.189 3.457-7.237 2.454-1.365-.67-2.662-3.123-5.325-8.03-2.39-4.46-3.209-6.802-5.326-8.029-1.228-.67-2.253-.67-3.072-.67-6.486.447-13.04 5.354-20.891 8.7-4.848 2.007-4.234 1.003-6.828 2.453-6.281 3.68-8.739 9.256-12.904 8.03-.887-.224-1.775-1.005-3.413-2.454-7.374-6.58-8.193-11.71-12.153-14.275-3.072-2.007-6.486-.446-13.313 2.454-8.671 3.791-8.944 7.248-14.065 7.471-5.735.224-7.1-4.014-12.903-4.349-5.599-.334-19.595 10.26-21.438 15.167v75.163h333.175V.671h.068z" fill="url(#paint0_linear)"/><defs><linearGradient id="paint0_linear" x1="168.749" y1="155.793" x2="168.749" y2=".659" gradientUnits="userSpaceOnUse"><stop stop-color="#fff" stop-opacity="0"/><stop offset=".88" stop-color="#3B3B3B" stop-opacity=".251"/><stop offset="1" stop-color="#333" stop-opacity=".3"/></linearGradient><filter id="filter0_f" x=".594" y="9.513" width="336.243" height="80.561" filterUnits="userSpaceOnUse" color-interpolation-filters="sRGB"><feFlood flood-opacity="0" result="BackgroundImageFix"/><feBlend in="SourceGraphic" in2="BackgroundImageFix" result="shape"/><feGaussianBlur stdDeviation=".5" result="effect1_foregroundBlur"/></filter></defs></svg>