<svg width="334" height="118" fill="none" xmlns="http://www.w3.org/2000/svg"><path d="M2.072 60.206c3.435 2.328 8.493 5.272 14.72 6.847 4.04 1.028 13.702 3.356 25.29-1.369 7.246-2.944 12.417-7.532 21.514-6.847 2.265.137 4.227.616 4.53.684 8.982 2.055 11.813 7.053 17.74 8.217 3.358.685 6-.48 11.323-2.739 11.474-4.93 15.286-13.01 22.269-10.27.679.273 2.34 1.095 5.661 2.738 7.512 3.698 7.21 3.972 8.304 4.109 5.586.821 6.455-6.026 12.456-6.163 3.246-.068 2.982 1.917 9.059 4.109 4.68 1.711 4.944.547 12.455 2.054 7.134 1.438 10.682 2.122 12.833 3.423 2.416 1.438 4.681 3.355 7.549 2.054 1.661-.753 2.001-1.917 4.152-3.423 3.435-2.328 5.02-1.096 7.172-2.054 3.51-1.575 5.322-7.806 8.681-19.172 3.925-13.352 3.925-19.583 7.549-22.596.566-.48.075.068 5.284-2.054 4.19-1.712 5.7-2.534 7.926-2.054.34.068 1.171.274 3.775 2.054 6.152 4.176 6.454 6.368 10.191 8.216 3.246 1.575 6.077 1.438 7.926 1.37 2.152-.137 3.888-.206 6.039-1.37 3.397-1.848 5.926-5.34 9.059-9.586 2.038-2.807 2.869-4.313 4.529-4.793 2.265-.616 4.115 1.301 4.907 2.055 5.624 5.34 15.476 8.49 22.647 4.793 2.189-1.096 1.246-1.37 7.549-6.163 2.189-1.643 6.303-4.725 10.191-6.847 3.774-2.054 9.474-4.245 16.985-4.108" stroke="#2D2D2D" stroke-miterlimit="10" stroke-linecap="round"/><g filter="url(#filter0_f)"><path d="M2.072 69.929c3.435 2.328 8.493 5.272 14.72 6.847 4.04 1.027 13.702 3.355 25.29-1.37 7.246-2.944 12.417-7.531 21.514-6.847 2.265.137 4.227.617 4.53.685 8.982 2.054 11.813 7.053 17.74 8.217 3.358.684 6-.48 11.323-2.74 11.474-4.93 15.286-13.009 22.269-10.27.679.274 2.34 1.096 5.661 2.739 7.512 3.698 7.21 3.971 8.304 4.108 5.586.822 6.455-6.025 12.456-6.162 3.246-.069 2.982 1.917 9.059 4.108 4.68 1.712 4.944.548 12.455 2.054 7.134 1.438 10.682 2.123 12.833 3.424 2.416 1.438 4.681 3.355 7.549 2.054 1.661-.753 2.001-1.917 4.152-3.423 3.435-2.329 5.02-1.096 7.172-2.055 3.51-1.575 5.322-7.806 8.681-19.172 3.925-13.352 3.925-19.583 7.549-22.595.566-.48.075.068 5.284-2.055 4.19-1.711 5.7-2.533 7.926-2.054.34.069 1.171.274 3.775 2.054 6.152 4.177 6.454 6.368 10.191 8.217 3.246 1.575 6.077 1.438 7.926 1.37 2.152-.138 3.888-.206 6.039-1.37 3.397-1.849 5.926-5.34 9.059-9.586 2.038-2.807 2.869-4.314 4.529-4.793 2.265-.616 4.115 1.3 4.907 2.054 5.624 5.34 15.476 8.49 22.647 4.793 2.189-1.095 1.246-1.37 7.549-6.162 2.189-1.644 6.303-4.725 10.191-6.847 3.774-2.055 9.474-4.246 16.985-4.109" stroke="#2D2D2D" stroke-opacity=".09" stroke-miterlimit="10" stroke-linecap="round"/></g><path d="M332.337 1.32c-7.511-.136-13.211 2.055-16.985 4.109-3.888 2.122-8.002 5.204-10.191 6.847-6.303 4.793-5.36 5.067-7.549 6.163-7.171 3.697-17.023.547-22.647-4.793-.792-.754-2.642-2.67-4.907-2.055-1.66.48-2.491 1.986-4.529 4.793-3.133 4.246-5.662 7.738-9.059 9.586-2.151 1.164-3.887 1.233-6.039 1.37-1.849.068-4.68.205-7.926-1.37-3.737-1.848-4.039-4.04-10.191-8.216-2.604-1.78-3.435-1.986-3.775-2.054-2.226-.48-3.736.342-7.926 2.054-5.209 2.122-4.718 1.575-5.284 2.054-3.624 3.013-3.624 9.244-7.549 22.596-3.359 11.366-5.171 17.597-8.681 19.172-2.152.958-3.737-.274-7.172 2.054-2.151 1.506-2.491 2.67-4.152 3.423-2.868 1.301-5.133-.616-7.549-2.054-2.151-1.3-5.699-1.985-12.833-3.423-7.511-1.507-7.775-.343-12.455-2.054-6.077-2.192-5.813-4.177-9.059-4.109-6.001.137-6.87 6.984-12.456 6.163-1.094-.137-.792-.411-8.304-4.109-3.321-1.643-4.982-2.465-5.661-2.739-6.983-2.738-10.795 5.341-22.27 10.271-5.322 2.26-7.964 3.424-11.323 2.74-5.926-1.165-8.757-6.163-17.74-8.218-.302-.068-2.264-.547-4.53-.684-9.096-.685-14.267 3.903-21.514 6.847-11.587 4.725-21.25 2.397-25.288 1.37-6.228-1.576-11.286-4.52-14.72-6.848v56.832h330.264V1.321z" fill="url(#paint0_linear)"/><defs><linearGradient id="paint0_linear" x1="167.205" y1="117.038" x2="167.205" y2="1.314" gradientUnits="userSpaceOnUse"><stop stop-color="#fff" stop-opacity="0"/><stop offset=".779" stop-color="#3B3B3B" stop-opacity=".251"/><stop offset=".869" stop-color="#333" stop-opacity=".3"/></linearGradient><filter id="filter0_f" x=".572" y="9.537" width="333.265" height="70.225" filterUnits="userSpaceOnUse" color-interpolation-filters="sRGB"><feFlood flood-opacity="0" result="BackgroundImageFix"/><feBlend in="SourceGraphic" in2="BackgroundImageFix" result="shape"/><feGaussianBlur stdDeviation=".5" result="effect1_foregroundBlur"/></filter></defs></svg>