<svg width="336" height="79" fill="none" xmlns="http://www.w3.org/2000/svg"><path d="M2.295 29.95c3.559 2.267 8.897 5.238 15.523 7.037 9.238 2.502 17.227 1.642 25.367.782 9.314-1.017 12.948-2.58 20.445-.782 4.62 1.094 4.657 2.033 10.223 3.91 14.084 4.847 24.306 8.366 34.453.781 3.976-2.971 7.572-7.35 12.494-5.473 2.159.782 3.559 2.424 7.573 3.91 3.294 1.25 5.83 1.485 7.193 1.563 7.686.626 11.094-2.736 18.552-3.91 5.755-.86 10.071.157 15.902 1.565 5.944 1.485 12.683 4.066 16.28 5.473 3.938 1.564 8.898 3.597 14.766.782 1.515-.704 2.348-1.173 3.408-2.346 2.726-3.127 3.559-7.584 7.95-21.894 1.856-6.02 2.386-7.428 3.408-8.6 2.044-2.425 2.953-.313 6.436-2.346 3.105-1.799 3.749-4.223 6.058-3.91 1.136.156 1.931.86 3.408 2.346 7.799 7.662 8.518 8.757 10.222 9.383.985.313 1.098.078 6.815-1.564 10.601-3.128 9.806-2.19 10.98-3.128 5.982-4.613 7.345-13.527 11.737-12.51.492.078 1.477.86 3.407 2.345 4.203 3.206 6.967 6.1 7.951 7.038 3.938 3.753 5.149.703 18.552 1.563 6.134.391 7.61 1.173 11.359 0 1.211-.39 4.099-1.876 9.627-5.473 4.904-.782 5.313-.845 11.953-3.128" stroke="#2D2D2D" stroke-miterlimit="10" stroke-linecap="round"/><g filter="url(#filter0_f)"><path d="M2.295 39.83c3.559 2.267 8.897 5.238 15.523 7.037 9.238 2.502 17.227 1.642 25.367.782 9.314-1.017 12.948-2.58 20.445-.782 4.62 1.094 4.657 2.033 10.223 3.91 14.084 4.847 24.306 8.366 34.453.781 3.976-2.971 7.572-7.35 12.494-5.473 2.159.782 3.559 2.424 7.573 3.91 3.294 1.25 5.83 1.485 7.193 1.563 7.686.626 11.094-2.736 18.552-3.91 5.755-.86 10.071.157 15.902 1.564 5.944 1.486 12.683 4.066 16.28 5.474 3.938 1.564 8.898 3.597 14.766.782 1.515-.704 2.348-1.173 3.408-2.346 2.726-3.128 3.559-7.585 7.95-21.894 1.856-6.02 2.386-7.428 3.408-8.6 2.044-2.425 2.953-.314 6.436-2.347 3.105-1.798 3.749-4.222 6.058-3.91 1.136.157 1.931.861 3.408 2.347 7.799 7.662 8.518 8.757 10.222 9.383.985.312 1.098.078 6.815-1.564 10.601-3.128 9.806-2.19 10.98-3.128 5.982-4.613 7.345-13.527 11.737-12.51.492.078 1.477.86 3.407 2.345 4.203 3.206 6.967 6.1 7.951 7.037 3.938 3.754 5.149.704 18.552 1.564 6.134.391 7.61 1.173 11.359 0 1.211-.39 4.099-1.876 9.627-5.473 4.904-.782 5.313-.845 11.953-3.128" stroke="#000" stroke-opacity=".09" stroke-miterlimit="10" stroke-linecap="round"/></g><path d="M334.148 3.364c-5.187 4.223-9.389 1.799-12.683 3.91-5.528 3.597-7.497 4.3-8.708 4.691-3.749 1.173-5.225.391-11.359 0-13.403-.86-14.614 2.19-18.552-1.563-.984-.939-3.748-3.832-7.951-7.038-1.931-1.485-2.915-2.267-3.407-2.345-4.392-1.017-5.755 7.897-11.737 12.51-1.174.938-.379 0-10.98 3.128-5.717 1.642-5.83 1.877-6.815 1.564-1.704-.626-2.423-1.72-10.222-9.383-1.477-1.486-2.272-2.19-3.408-2.346-2.309-.313-2.953 2.111-6.058 3.91-3.483 2.033-4.392-.079-6.436 2.345-1.022 1.173-1.552 2.58-3.408 8.601-4.391 14.31-5.224 18.766-7.95 21.894-1.061 1.173-1.893 1.642-3.408 2.346-5.868 2.815-10.828.782-14.766-.782-3.597-1.407-10.336-3.988-16.28-5.473-5.831-1.408-10.147-2.424-15.902-1.564-7.458 1.173-10.866 4.535-18.552 3.91-1.363-.079-3.899-.314-7.193-1.565-4.014-1.485-5.415-3.127-7.573-3.91-4.922-1.876-8.518 2.503-12.494 5.474-10.147 7.585-20.37 4.066-34.453-.782-5.566-1.876-5.604-2.815-10.223-3.91-7.497-1.798-11.131-.234-20.445.783-8.14.86-16.129 1.72-25.367-.782-6.626-1.799-11.964-4.77-15.523-7.038v48.088h331.853V3.364z" fill="url(#paint0_linear)"/><defs><linearGradient id="paint0_linear" x1="168.316" y1="78.037" x2="168.316" y2="-2.109" gradientUnits="userSpaceOnUse"><stop stop-color="#fff" stop-opacity="0"/><stop offset=".779" stop-color="#3B3B3B" stop-opacity=".251"/><stop offset=".869" stop-color="#333" stop-opacity=".3"/></linearGradient><filter id="filter0_f" x=".795" y="9.318" width="335.043" height="49.053" filterUnits="userSpaceOnUse" color-interpolation-filters="sRGB"><feFlood flood-opacity="0" result="BackgroundImageFix"/><feBlend in="SourceGraphic" in2="BackgroundImageFix" result="shape"/><feGaussianBlur stdDeviation=".5" result="effect1_foregroundBlur"/></filter></defs></svg>