<svg width="1171" height="310" fill="none" xmlns="http://www.w3.org/2000/svg"><path opacity=".29" d="M56 12h1115M56 56h1115M56 102h1115M56 146h1115M56 193h1115M56 237h1115M56 280h1115" stroke="#8C8989" stroke-opacity=".54" stroke-width=".5" stroke-miterlimit="10"/><path d="M1.332 2.384H.38C.554 1.62.886 1.03 1.376.618A2.615 2.615 0 013.113 0C3.6 0 4.052.111 4.47.334c.423.219.748.515.977.89.232.374.348.765.348 1.173 0 .799-.4 1.431-1.198 1.898.448.18.816.446 1.103.795a2.53 2.53 0 01.609 1.652c0 .526-.14 1.028-.419 1.508a2.899 2.899 0 01-1.14 1.103 3.347 3.347 0 01-1.618.391c-.803 0-1.473-.229-2.01-.687C.585 8.594.235 7.917.07 7.027h.913c.16.6.39 1.036.69 1.305.386.34.876.51 1.472.51.676 0 1.22-.201 1.63-.605.41-.404.614-.877.614-1.419 0-.362-.103-.7-.31-1.015a1.91 1.91 0 00-.824-.713c-.343-.16-.875-.259-1.598-.297v-.851c.427 0 .816-.074 1.166-.22.351-.152.605-.344.761-.575a1.3 1.3 0 00.241-.757c0-.403-.163-.752-.488-1.047-.321-.294-.73-.441-1.224-.441-.401 0-.748.113-1.04.34-.291.223-.539.604-.741 1.142zm5.896 2.491c0-1.223.131-2.17.393-2.838.267-.668.64-1.175 1.123-1.52A2.713 2.713 0 0110.36 0c.604 0 1.151.174 1.642.523.49.345.877.865 1.16 1.558.287.694.431 1.625.431 2.794 0 1.165-.141 2.092-.425 2.782-.279.69-.665 1.21-1.16 1.564a2.794 2.794 0 01-1.649.523 2.71 2.71 0 01-1.61-.51c-.478-.341-.852-.848-1.122-1.52-.267-.677-.4-1.623-.4-2.839zm.882.02c0 1.046.093 1.839.279 2.377.19.534.469.94.837 1.217.367.278.756.417 1.166.417.415 0 .801-.135 1.16-.404.36-.273.633-.681.819-1.224.232-.66.348-1.454.348-2.384 0-.933-.103-1.696-.31-2.29-.208-.596-.495-1.031-.863-1.305-.363-.277-.748-.416-1.154-.416-.414 0-.803.139-1.166.416-.364.274-.64.68-.831 1.218-.19.534-.285 1.326-.285 2.377zm6.321-.02c0-1.223.131-2.17.393-2.838.267-.668.64-1.175 1.123-1.52A2.713 2.713 0 0117.563 0c.605 0 1.152.174 1.643.523.49.345.877.865 1.16 1.558.287.694.431 1.625.431 2.794 0 1.165-.142 2.092-.425 2.782-.279.69-.666 1.21-1.16 1.564a2.794 2.794 0 01-1.649.523 2.71 2.71 0 01-1.61-.51c-.478-.341-.852-.848-1.122-1.52-.267-.677-.4-1.623-.4-2.839zm.882.02c0 1.046.092 1.839.278 2.377.19.534.47.94.837 1.217.368.278.757.417 1.167.417.414 0 .801-.135 1.16-.404.36-.273.632-.681.818-1.224.233-.66.35-1.454.35-2.384 0-.933-.104-1.696-.312-2.29-.207-.596-.494-1.031-.862-1.305-.363-.277-.748-.416-1.154-.416-.414 0-.803.139-1.167.416-.363.274-.64.68-.83 1.218-.19.534-.286 1.326-.286 2.377zm6.321-.02c0-1.223.131-2.17.393-2.838.267-.668.64-1.175 1.122-1.52A2.713 2.713 0 0124.767 0c.605 0 1.152.174 1.643.523.49.345.877.865 1.16 1.558.287.694.431 1.625.431 2.794 0 1.165-.142 2.092-.425 2.782-.279.69-.666 1.21-1.16 1.564a2.794 2.794 0 01-1.649.523 2.71 2.71 0 01-1.61-.51c-.478-.341-.852-.848-1.122-1.52-.267-.677-.4-1.623-.4-2.839zm.881.02c0 1.046.093 1.839.28 2.377.19.534.469.94.836 1.217.368.278.757.417 1.167.417.414 0 .801-.135 1.16-.404.36-.273.632-.681.818-1.224.233-.66.349-1.454.349-2.384 0-.933-.104-1.696-.31-2.29-.208-.596-.495-1.031-.863-1.305-.364-.277-.748-.416-1.154-.416-.414 0-.803.139-1.167.416-.363.274-.64.68-.83 1.218-.19.534-.286 1.326-.286 2.377zM8.595 224.988v.883H5.273L4.81 228.4a3.97 3.97 0 011.097-.177c.85 0 1.55.284 2.099.852.553.563.83 1.287.83 2.17a3.38 3.38 0 01-.425 1.677 2.96 2.96 0 01-1.154 1.173c-.481.27-1.04.404-1.673.404-.757 0-1.395-.229-1.915-.687-.52-.463-.831-1.06-.932-1.792h.957c.072.358.192.648.361.871.174.223.402.403.685.542.288.135.588.202.9.202.614 0 1.14-.231 1.58-.694.439-.462.659-1.04.659-1.734 0-.627-.199-1.136-.596-1.527-.398-.391-.928-.586-1.592-.586-.55 0-1.215.166-1.997.498l.862-4.604h4.04zm1.23 4.642c0-1.224.131-2.17.394-2.838.266-.669.64-1.175 1.122-1.52a2.711 2.711 0 011.617-.517c.604 0 1.152.174 1.642.523.49.345.877.864 1.16 1.558.288.694.431 1.625.431 2.794 0 1.165-.141 2.092-.424 2.781-.28.69-.666 1.211-1.16 1.565a2.794 2.794 0 01-1.65.523c-.595 0-1.132-.17-1.61-.511-.478-.34-.852-.847-1.122-1.52-.266-.677-.4-1.623-.4-2.838zm.882.019c0 1.047.093 1.839.279 2.378.19.534.469.939.837 1.217.367.277.756.416 1.166.416.415 0 .801-.134 1.16-.403.36-.274.633-.682.819-1.224.232-.66.348-1.455.348-2.384 0-.934-.103-1.697-.31-2.29-.207-.597-.495-1.032-.863-1.305-.363-.278-.748-.416-1.154-.416-.414 0-.803.138-1.166.416-.364.273-.64.679-.831 1.217-.19.534-.285 1.327-.285 2.378zm6.321-.019c0-1.224.131-2.17.393-2.838.267-.669.64-1.175 1.123-1.52a2.711 2.711 0 011.616-.517c.605 0 1.152.174 1.643.523.49.345.877.864 1.16 1.558.287.694.431 1.625.431 2.794 0 1.165-.141 2.092-.425 2.781-.279.69-.665 1.211-1.16 1.565a2.794 2.794 0 01-1.649.523c-.596 0-1.132-.17-1.61-.511-.478-.34-.852-.847-1.122-1.52-.267-.677-.4-1.623-.4-2.838zm.882.019c0 1.047.093 1.839.279 2.378.19.534.469.939.837 1.217.367.277.756.416 1.166.416.415 0 .801-.134 1.16-.403.36-.274.633-.682.819-1.224.232-.66.348-1.455.348-2.384 0-.934-.103-1.697-.31-2.29-.208-.597-.495-1.032-.863-1.305-.363-.278-.748-.416-1.154-.416-.414 0-.803.138-1.166.416-.364.273-.64.679-.831 1.217-.19.534-.285 1.327-.285 2.378zM2.016 181.07H3.85v9.278h-.926v-8.369H1.458l.558-.909zm5.212 4.642c0-1.223.131-2.169.393-2.838.267-.668.64-1.175 1.123-1.52a2.711 2.711 0 011.617-.517c.604 0 1.151.175 1.642.524.49.344.877.864 1.16 1.557.287.694.431 1.626.431 2.794 0 1.165-.141 2.092-.425 2.782-.279.689-.665 1.211-1.16 1.564a2.794 2.794 0 01-1.649.523 2.71 2.71 0 01-1.61-.51c-.478-.341-.852-.848-1.122-1.52-.267-.677-.4-1.623-.4-2.839zm.882.019c0 1.047.093 1.84.279 2.378.19.534.469.94.837 1.217.367.278.756.417 1.166.417a1.9 1.9 0 001.16-.404c.36-.273.633-.681.819-1.224.232-.66.348-1.454.348-2.384 0-.933-.103-1.696-.31-2.289-.208-.597-.495-1.032-.863-1.306-.363-.277-.748-.416-1.154-.416-.414 0-.803.139-1.166.416-.364.274-.64.679-.831 1.218-.19.534-.285 1.326-.285 2.377zm6.321-.019c0-1.223.131-2.169.393-2.838.267-.668.64-1.175 1.123-1.52a2.711 2.711 0 011.616-.517c.605 0 1.152.175 1.643.524.49.344.877.864 1.16 1.557.287.694.431 1.626.431 2.794 0 1.165-.142 2.092-.425 2.782-.279.689-.666 1.211-1.16 1.564a2.794 2.794 0 01-1.649.523 2.71 2.71 0 01-1.61-.51c-.478-.341-.852-.848-1.122-1.52-.267-.677-.4-1.623-.4-2.839zm.882.019c0 1.047.092 1.84.278 2.378.19.534.47.94.837 1.217.368.278.757.417 1.167.417a1.9 1.9 0 001.16-.404c.36-.273.632-.681.818-1.224.233-.66.35-1.454.35-2.384 0-.933-.104-1.696-.312-2.289-.207-.597-.494-1.032-.862-1.306-.363-.277-.748-.416-1.154-.416-.414 0-.803.139-1.167.416-.363.274-.64.679-.83 1.218-.19.534-.286 1.326-.286 2.377zm6.321-.019c0-1.223.131-2.169.393-2.838.267-.668.64-1.175 1.122-1.52a2.711 2.711 0 011.617-.517c.605 0 1.152.175 1.643.524.49.344.877.864 1.16 1.557.287.694.431 1.626.431 2.794 0 1.165-.142 2.092-.425 2.782-.279.689-.666 1.211-1.16 1.564a2.794 2.794 0 01-1.649.523 2.71 2.71 0 01-1.61-.51c-.478-.341-.852-.848-1.122-1.52-.267-.677-.4-1.623-.4-2.839zm.881.019c0 1.047.093 1.84.28 2.378.19.534.469.94.836 1.217.368.278.757.417 1.167.417a1.9 1.9 0 001.16-.404c.36-.273.632-.681.818-1.224.233-.66.349-1.454.349-2.384 0-.933-.104-1.696-.31-2.289-.208-.597-.495-1.032-.863-1.306-.364-.277-.748-.416-1.154-.416-.414 0-.803.139-1.167.416-.363.274-.64.679-.83 1.218-.19.534-.286 1.326-.286 2.377zM2.016 134.569H3.85v9.278h-.926v-8.369H1.458l.558-.909zm11.185 0v.883H9.88l-.463 2.53a3.97 3.97 0 011.097-.177c.85 0 1.549.284 2.098.851.554.564.831 1.287.831 2.17 0 .61-.142 1.169-.425 1.678-.283.509-.668.9-1.154 1.173-.482.269-1.04.404-1.674.404-.756 0-1.395-.23-1.915-.688-.52-.462-.83-1.06-.932-1.791H8.3c.072.357.192.647.361.87.174.223.402.404.685.543.287.134.588.201.9.201.613 0 1.14-.231 1.58-.693.439-.463.659-1.041.659-1.735 0-.626-.2-1.135-.596-1.526-.398-.391-.928-.587-1.592-.587-.55 0-1.215.166-1.997.499l.862-4.605h4.04zm1.23 4.642c0-1.223.131-2.169.393-2.838.267-.668.64-1.175 1.123-1.52a2.711 2.711 0 011.616-.517c.605 0 1.152.175 1.643.524.49.344.877.864 1.16 1.557.287.694.431 1.626.431 2.794 0 1.165-.142 2.092-.425 2.782-.279.689-.666 1.211-1.16 1.564a2.795 2.795 0 01-1.649.524 2.712 2.712 0 01-1.61-.511c-.478-.341-.852-.848-1.122-1.52-.267-.677-.4-1.623-.4-2.839zm.882.019c0 1.047.092 1.84.278 2.378.19.534.47.94.837 1.217.368.278.757.417 1.167.417a1.9 1.9 0 001.16-.404c.36-.273.632-.681.818-1.224.233-.66.35-1.454.35-2.384 0-.933-.104-1.696-.312-2.289-.207-.597-.494-1.032-.862-1.306-.363-.277-.748-.416-1.154-.416-.414 0-.803.139-1.167.416-.363.274-.64.679-.83 1.218-.19.534-.286 1.326-.286 2.377zm6.321-.019c0-1.223.131-2.169.393-2.838.267-.668.64-1.175 1.122-1.52a2.711 2.711 0 011.617-.517c.605 0 1.152.175 1.643.524.49.344.877.864 1.16 1.557.287.694.431 1.626.431 2.794 0 1.165-.142 2.092-.425 2.782-.279.689-.666 1.211-1.16 1.564a2.795 2.795 0 01-1.649.524 2.712 2.712 0 01-1.61-.511c-.478-.341-.852-.848-1.122-1.52-.267-.677-.4-1.623-.4-2.839zm.881.019c0 1.047.093 1.84.28 2.378.19.534.469.94.836 1.217.368.278.757.417 1.167.417a1.9 1.9 0 001.16-.404c.36-.273.632-.681.818-1.224.233-.66.349-1.454.349-2.384 0-.933-.104-1.696-.31-2.289-.208-.597-.495-1.032-.863-1.306-.364-.277-.748-.416-1.154-.416-.414 0-.803.139-1.167.416-.363.274-.64.679-.83 1.218-.19.534-.286 1.326-.286 2.377zM1.116 93.56H.222c.025-.917.332-1.67.92-2.258.591-.59 1.32-.884 2.187-.884.858 0 1.551.276 2.08.827.532.55.798 1.2.798 1.949a3.03 3.03 0 01-.38 1.482c-.254.458-.746 1.08-1.477 1.867l-2.321 2.491h4.305v.896H0l3.563-3.83c.723-.77 1.192-1.339 1.408-1.709.22-.374.33-.767.33-1.18 0-.52-.197-.969-.59-1.343-.389-.378-.867-.567-1.433-.567-.596 0-1.093.197-1.49.592-.393.396-.617.95-.672 1.665zm6.112 1.734c0-1.224.131-2.17.393-2.838.267-.669.64-1.175 1.123-1.52a2.713 2.713 0 011.617-.518c.604 0 1.151.175 1.642.524.49.345.877.864 1.16 1.558.287.694.431 1.625.431 2.794 0 1.165-.141 2.092-.425 2.781-.279.69-.665 1.211-1.16 1.564a2.794 2.794 0 01-1.649.524 2.71 2.71 0 01-1.61-.51c-.478-.342-.852-.848-1.122-1.52-.267-.678-.4-1.624-.4-2.84zm.882.019c0 1.047.093 1.84.279 2.378.19.534.469.94.837 1.217.367.277.756.416 1.166.416.415 0 .801-.134 1.16-.403.36-.274.633-.682.819-1.224.232-.66.348-1.455.348-2.384 0-.934-.103-1.697-.31-2.29-.208-.597-.495-1.032-.863-1.305-.363-.278-.748-.416-1.154-.416-.414 0-.803.138-1.166.416-.364.273-.64.679-.831 1.217-.19.534-.285 1.327-.285 2.378zm6.321-.019c0-1.224.131-2.17.393-2.838.267-.669.64-1.175 1.123-1.52a2.713 2.713 0 011.616-.518c.605 0 1.152.175 1.643.524.49.345.877.864 1.16 1.558.287.694.431 1.625.431 2.794 0 1.165-.142 2.092-.425 2.781-.279.69-.666 1.211-1.16 1.564a2.794 2.794 0 01-1.649.524 2.71 2.71 0 01-1.61-.51c-.478-.342-.852-.848-1.122-1.52-.267-.678-.4-1.624-.4-2.84zm.882.019c0 1.047.092 1.84.278 2.378.19.534.47.94.837 1.217.368.277.757.416 1.167.416.414 0 .801-.134 1.16-.403.36-.274.632-.682.818-1.224.233-.66.35-1.455.35-2.384 0-.934-.104-1.697-.312-2.29-.207-.597-.494-1.032-.862-1.305-.363-.278-.748-.416-1.154-.416-.414 0-.803.138-1.167.416-.363.273-.64.679-.83 1.217-.19.534-.286 1.327-.286 2.378zm6.321-.019c0-1.224.131-2.17.393-2.838.267-.669.64-1.175 1.122-1.52a2.713 2.713 0 011.617-.518c.605 0 1.152.175 1.643.524.49.345.877.864 1.16 1.558.287.694.431 1.625.431 2.794 0 1.165-.142 2.092-.425 2.781-.279.69-.666 1.211-1.16 1.564a2.794 2.794 0 01-1.649.524 2.71 2.71 0 01-1.61-.51c-.478-.342-.852-.848-1.122-1.52-.267-.678-.4-1.624-.4-2.84zm.881.019c0 1.047.093 1.84.28 2.378.19.534.469.94.836 1.217.368.277.757.416 1.167.416.414 0 .801-.134 1.16-.403.36-.274.632-.682.818-1.224.233-.66.349-1.455.349-2.384 0-.934-.104-1.697-.31-2.29-.208-.597-.495-1.032-.863-1.305-.364-.278-.748-.416-1.154-.416-.414 0-.803.138-1.167.416-.363.273-.64.679-.83 1.217-.19.534-.286 1.327-.286 2.378zM1.116 47.059H.222c.025-.917.332-1.67.92-2.258.591-.59 1.32-.883 2.187-.883.858 0 1.551.275 2.08.826.532.55.798 1.2.798 1.949a3.03 3.03 0 01-.38 1.482c-.254.458-.746 1.08-1.477 1.867l-2.321 2.491h4.305v.896H0L3.563 49.6c.723-.77 1.192-1.339 1.408-1.709.22-.374.33-.767.33-1.18 0-.52-.197-.969-.59-1.343-.389-.378-.867-.567-1.433-.567-.596 0-1.093.197-1.49.592-.393.396-.617.95-.672 1.666zm12.085-2.909v.884H9.88l-.463 2.53a3.976 3.976 0 011.097-.178c.85 0 1.549.284 2.098.852.554.563.831 1.287.831 2.17 0 .61-.142 1.169-.425 1.677-.283.509-.668.9-1.154 1.173-.482.27-1.04.404-1.674.404-.756 0-1.395-.23-1.915-.687-.52-.463-.83-1.06-.932-1.792H8.3c.072.358.192.648.361.87.174.224.402.404.685.543.287.135.588.202.9.202.613 0 1.14-.231 1.58-.694.439-.462.659-1.04.659-1.734 0-.627-.2-1.136-.596-1.527-.398-.39-.928-.586-1.592-.586-.55 0-1.215.166-1.997.498l.862-4.604h4.04zm1.23 4.643c0-1.224.131-2.17.393-2.838.267-.669.64-1.175 1.123-1.52a2.713 2.713 0 011.616-.517c.605 0 1.152.174 1.643.523.49.345.877.864 1.16 1.558.287.694.431 1.625.431 2.794 0 1.165-.142 2.092-.425 2.781-.279.69-.666 1.211-1.16 1.565a2.794 2.794 0 01-1.649.523 2.71 2.71 0 01-1.61-.51c-.478-.341-.852-.848-1.122-1.52-.267-.678-.4-1.624-.4-2.84zm.882.019c0 1.047.092 1.84.278 2.378.19.534.47.94.837 1.217.368.277.757.416 1.167.416.414 0 .801-.134 1.16-.404.36-.273.632-.68.818-1.223.233-.66.35-1.455.35-2.384 0-.934-.104-1.697-.312-2.29-.207-.597-.494-1.032-.862-1.305-.363-.278-.748-.416-1.154-.416-.414 0-.803.138-1.167.416-.363.273-.64.679-.83 1.217-.19.534-.286 1.327-.286 2.378zm6.321-.019c0-1.224.131-2.17.393-2.838.267-.669.64-1.175 1.122-1.52a2.713 2.713 0 011.617-.517c.605 0 1.152.174 1.643.523.49.345.877.864 1.16 1.558.287.694.431 1.625.431 2.794 0 1.165-.142 2.092-.425 2.781-.279.69-.666 1.211-1.16 1.565a2.794 2.794 0 01-1.649.523 2.71 2.71 0 01-1.61-.51c-.478-.341-.852-.848-1.122-1.52-.267-.678-.4-1.624-.4-2.84zm.881.019c0 1.047.093 1.84.28 2.378.19.534.469.94.836 1.217.368.277.757.416 1.167.416.414 0 .801-.134 1.16-.404.36-.273.632-.68.818-1.223.233-.66.349-1.455.349-2.384 0-.934-.104-1.697-.31-2.29-.208-.597-.495-1.032-.863-1.305-.364-.278-.748-.416-1.154-.416-.414 0-.803.138-1.167.416-.363.273-.64.679-.83 1.217-.19.534-.286 1.327-.286 2.378zm-6.907 227.319c0-1.224.131-2.17.393-2.838.266-.669.64-1.175 1.122-1.52a2.711 2.711 0 011.617-.517c.605 0 1.152.174 1.642.523.49.345.877.864 1.16 1.558.288.694.432 1.625.432 2.794 0 1.165-.142 2.092-.425 2.781-.279.69-.666 1.211-1.16 1.565a2.794 2.794 0 01-1.649.523c-.596 0-1.133-.17-1.61-.511-.478-.34-.852-.847-1.123-1.52-.266-.677-.399-1.623-.399-2.838zm.881.019c0 1.047.093 1.839.28 2.378.19.534.469.939.836 1.217.368.277.757.416 1.167.416a1.9 1.9 0 001.16-.403c.36-.274.632-.682.818-1.224.233-.66.349-1.455.349-2.384 0-.934-.104-1.697-.31-2.29-.208-.597-.495-1.032-.863-1.305-.364-.278-.748-.416-1.154-.416-.414 0-.803.138-1.167.416-.363.273-.64.679-.83 1.217-.19.534-.286 1.327-.286 2.378zm47.623 21.136h-2.215c-1.234 0-2.07.052-2.509.155a2.85 2.85 0 00-1.61.998c-.413.506-.62 1.13-.62 1.873 0 .619.142 1.163.424 1.633.287.469.695.825 1.224 1.068.53.237 1.26.358 2.192.363L57 308.669h1.376l3.99-5.293h.635v5.293h1.11v-11.383zM63 298.401v3.869l-1.912.015c-.74 0-1.29-.072-1.648-.217a1.75 1.75 0 01-.831-.688 2 2 0 01-.295-1.068c0-.382.1-.727.302-1.037.202-.315.466-.539.794-.673.327-.134.872-.201 1.632-.201H63zm9.516 6.213H67.74v4.055h-1.066v-8.419h1.066v3.343h4.776v-3.343h1.058v8.419h-1.058v-4.055zm5.812 4.055H75.94v-8.419h2.35c.897 0 1.542.212 1.935.635.398.423.597.918.597 1.485 0 .857-.368 1.437-1.104 1.741 1.069.387 1.603 1.133 1.603 2.237 0 1.547-.998 2.321-2.993 2.321zm-1.323-7.483v2.631h.688c.625 0 1.033-.026 1.224-.077.192-.052.37-.178.537-.379.171-.207.257-.477.257-.813 0-.351-.088-.645-.265-.882-.176-.237-.362-.377-.559-.418-.191-.041-.59-.062-1.194-.062h-.688zm0 3.622v2.948h1.134c.534 0 .914-.034 1.141-.101a1.12 1.12 0 00.59-.456c.166-.232.249-.526.249-.882 0-.459-.141-.826-.423-1.099-.282-.274-.655-.41-1.119-.41h-1.572zm7.225 1.772l1.02.495L83.717 310l-.748-.325 1.262-3.095zm8.148-5.726h-1.066c.03-1.125.395-2.048 1.096-2.771.705-.722 1.574-1.083 2.607-1.083 1.023 0 1.85.338 2.48 1.014.634.675.951 1.473.951 2.391 0 .645-.15 1.251-.453 1.818-.302.563-.89 1.326-1.761 2.291l-2.766 3.056h5.132v1.099h-7.55l4.247-4.697c.861-.944 1.42-1.643 1.678-2.097.262-.459.393-.941.393-1.447 0-.64-.235-1.189-.703-1.648-.464-.465-1.033-.697-1.708-.697-.71 0-1.303.243-1.776.728-.469.485-.736 1.166-.801 2.043zm7.285 2.128c0-1.502.156-2.662.469-3.483.317-.82.763-1.441 1.338-1.864a3.17 3.17 0 011.927-.635c.72 0 1.373.214 1.957.642.585.423 1.046 1.06 1.383 1.912.343.851.514 1.993.514 3.428 0 1.429-.169 2.566-.506 3.412-.333.846-.794 1.486-1.383 1.919a3.269 3.269 0 01-1.965.642 3.169 3.169 0 01-1.92-.626c-.569-.418-1.015-1.04-1.338-1.865-.317-.831-.476-1.992-.476-3.482zm1.051.023c0 1.284.111 2.257.332 2.917.227.655.56 1.153.998 1.493.438.341.902.511 1.391.511.493 0 .954-.165 1.383-.495.428-.335.753-.836.975-1.501.277-.81.415-1.785.415-2.925 0-1.145-.123-2.082-.37-2.809-.247-.733-.59-1.267-1.028-1.602-.433-.34-.892-.511-1.375-.511-.494 0-.958.171-1.391.511-.433.335-.763.833-.99 1.494-.227.655-.34 1.627-.34 2.917zm9.908-5.719h2.184v11.383h-1.103v-10.268h-1.746l.665-1.115zm11.669 5.138c.751.382 1.287.818 1.61 1.308.327.49.491 1.047.491 1.672 0 .877-.28 1.65-.839 2.321-.685.82-1.665 1.23-2.94 1.23-1.229 0-2.161-.358-2.796-1.075-.635-.722-.952-1.517-.952-2.384 0-.634.166-1.204.498-1.71.333-.51.887-.964 1.663-1.362-.544-.288-.952-.647-1.224-1.075a2.522 2.522 0 01-.408-1.378c0-.495.143-.977.43-1.447a3.06 3.06 0 011.202-1.114 3.491 3.491 0 011.663-.41c.579 0 1.116.137 1.61.41.493.274.879.645 1.156 1.114.282.47.423.963.423 1.478 0 .516-.133.975-.4 1.378-.262.402-.658.75-1.187 1.044zm-1.655-4.317c-.61 0-1.116.185-1.519.557-.398.366-.597.804-.597 1.315 0 .506.214.965.642 1.378a2.14 2.14 0 002.555.332c.327-.185.582-.438.763-.758.186-.325.28-.65.28-.975 0-.459-.182-.882-.545-1.269-.362-.387-.889-.58-1.579-.58zm.053 4.89c-.766 0-1.409.255-1.927.766-.519.506-.779 1.096-.779 1.772 0 .418.111.813.333 1.184.221.371.531.658.929.859.398.201.859.302 1.383.302.811 0 1.456-.245 1.935-.735.479-.49.718-1.063.718-1.718 0-.635-.254-1.197-.763-1.687a2.515 2.515 0 00-1.829-.743zm985.471 5.672h-1.15v-8.721l-7.33 8.721h-.25v-11.383h1.11v8.876l7.37-8.876h.25v11.383zm3.62 0h-1.06v-8.419h1.06v3.536h1.38c.18-1.124.67-2.03 1.46-2.716a4.113 4.113 0 012.78-1.037c1.22 0 2.24.439 3.05 1.316.82.877 1.23 1.921 1.23 3.134 0 1.202-.4 2.236-1.22 3.103-.82.866-1.84 1.3-3.05 1.3-1.09 0-2.05-.364-2.86-1.091-.81-.733-1.28-1.713-1.39-2.941h-1.38v3.815zm8.83-4.163c0-.934-.32-1.736-.95-2.407-.64-.67-1.39-1.006-2.25-1.006-.88 0-1.63.336-2.26 1.006a3.365 3.365 0 00-.96 2.407c0 .929.31 1.72.91 2.376.61.65 1.38.975 2.31.975.91 0 1.67-.325 2.28-.975.61-.656.92-1.447.92-2.376zm10 4.163h-1.13l-2.75-6.129-2.73 6.129h-1.13l3.76-8.419h.19l3.79 8.419zm2.67-2.089l1.02.495-1.53 2.925-.75-.325 1.26-3.095zm8.15-5.726h-1.06c.03-1.125.39-2.048 1.09-2.771.71-.722 1.58-1.083 2.61-1.083 1.02 0 1.85.338 2.48 1.014.63.675.95 1.473.95 2.391a3.83 3.83 0 01-.45 1.818c-.31.563-.89 1.326-1.76 2.291l-2.77 3.056h5.13v1.099h-7.55l4.25-4.697c.86-.944 1.42-1.643 1.68-2.097.26-.459.39-.941.39-1.447 0-.64-.23-1.189-.7-1.648a2.34 2.34 0 00-1.71-.697c-.71 0-1.3.243-1.78.728-.47.485-.73 1.166-.8 2.043zm7.29 2.128c0-1.502.15-2.662.47-3.483.31-.82.76-1.441 1.33-1.864a3.193 3.193 0 011.93-.635c.72 0 1.37.214 1.96.642.58.423 1.04 1.06 1.38 1.912.34.851.52 1.993.52 3.428 0 1.429-.17 2.566-.51 3.412-.33.846-.79 1.486-1.38 1.919-.59.428-1.25.642-1.97.642-.71 0-1.35-.209-1.92-.626-.57-.418-1.01-1.04-1.34-1.865-.31-.831-.47-1.992-.47-3.482zm1.05.023c0 1.284.11 2.257.33 2.917.23.655.56 1.153 1 1.493.44.341.9.511 1.39.511.49 0 .95-.165 1.38-.495.43-.335.75-.836.98-1.501.27-.81.41-1.785.41-2.925 0-1.145-.12-2.082-.37-2.809-.25-.733-.59-1.267-1.03-1.602-.43-.34-.89-.511-1.37-.511-.5 0-.96.171-1.39.511-.44.335-.77.833-.99 1.494-.23.655-.34 1.627-.34 2.917zm9.91-5.719h2.18v11.383h-1.1v-10.268h-1.75l.67-1.115zm8.69 11.669l-.92-.603 3-4.659c-.4.135-.78.202-1.13.202-.88 0-1.63-.325-2.25-.975-.61-.656-.92-1.46-.92-2.415 0-.655.15-1.245.45-1.772.3-.526.72-.946 1.26-1.261a3.494 3.494 0 011.76-.472c.62 0 1.18.152 1.7.457.53.304.94.73 1.23 1.276.3.547.45 1.13.45 1.749 0 .47-.09.962-.28 1.478-.18.511-.51 1.127-.98 1.85l-3.37 5.145zm1.21-6.059c.65 0 1.2-.232 1.65-.696.46-.469.69-1.034.69-1.695 0-.66-.23-1.222-.69-1.687a2.2 2.2 0 00-1.65-.704c-.65 0-1.2.235-1.66.704a2.341 2.341 0 00-.68 1.687c0 .661.23 1.226.68 1.695.46.464 1.01.696 1.66.696z" fill="#333"/></svg>