<svg viewBox="0 0 372 218" fill="none" xmlns="http://www.w3.org/2000/svg"><path opacity=".29" d="M38.094 8.062h333.243M38.094 26.16h333.243M38.094 44.257h333.243M38.094 62.355h333.243M38.094 80.452h333.243M38.094 98.549h333.243M38.094 116.647h333.243M38.094 134.745h333.243M38.094 152.842h333.243M38.094 170.94h333.243M38.094 189.037h333.243" stroke="#8C8989" stroke-opacity=".54" stroke-width=".5" stroke-miterlimit="10"/><path d="M.573 1.362h1.88v9.285h-.95V2.271H0l.573-.909zm5.35 4.646c0-1.224.134-2.171.403-2.84.274-.67.658-1.176 1.152-1.522a2.834 2.834 0 011.66-.517c.62 0 1.183.175 1.686.524.503.345.9.865 1.191 1.559.295.694.443 1.626.443 2.796 0 1.166-.146 2.093-.437 2.784-.286.69-.683 1.212-1.19 1.565a2.92 2.92 0 01-1.693.524c-.612 0-1.163-.17-1.653-.511-.49-.341-.874-.848-1.152-1.522-.273-.677-.41-1.624-.41-2.84zm.905.019c0 1.048.095 1.84.286 2.38.195.534.482.94.86 1.218.377.277.776.416 1.197.416.425 0 .822-.134 1.19-.404.37-.273.65-.681.84-1.224.239-.66.358-1.456.358-2.386 0-.934-.106-1.698-.319-2.291-.212-.598-.507-1.033-.885-1.307-.373-.278-.768-.416-1.184-.416a1.97 1.97 0 00-1.198.416c-.373.274-.657.68-.853 1.218-.195.535-.292 1.328-.292 2.38zm6.489-.019c0-1.224.134-2.171.403-2.84.274-.67.658-1.176 1.152-1.522a2.834 2.834 0 011.66-.517c.62 0 1.182.175 1.686.524.503.345.9.865 1.19 1.559.296.694.443 1.626.443 2.796 0 1.166-.145 2.093-.436 2.784-.286.69-.683 1.212-1.19 1.565a2.92 2.92 0 01-1.693.524c-.612 0-1.163-.17-1.653-.511-.49-.341-.874-.848-1.152-1.522-.274-.677-.41-1.624-.41-2.84zm.904.019c0 1.048.096 1.84.287 2.38.195.534.481.94.859 1.218.377.277.777.416 1.197.416a1.98 1.98 0 001.192-.404c.368-.273.648-.681.84-1.224.238-.66.357-1.456.357-2.386 0-.934-.106-1.698-.319-2.291-.212-.598-.507-1.033-.885-1.307-.373-.278-.768-.416-1.184-.416a1.97 1.97 0 00-1.198.416c-.373.274-.657.68-.853 1.218-.195.535-.293 1.328-.293 2.38zM29.276.952l-6.977 10.34h-.86l6.346-9.418c-.75.176-1.666.265-2.746.265l-.352-.007c.27.362.404.745.404 1.15 0 .576-.208 1.091-.625 1.546-.412.454-.961.681-1.647.681-.629 0-1.158-.21-1.588-.63a2.095 2.095 0 01-.644-1.547c0-.404.098-.77.293-1.099.195-.332.473-.6.833-.801.36-.202.729-.303 1.106-.303.16 0 .426.038.794.113a8.978 8.978 0 001.836.177c.486 0 .944-.03 1.373-.088.434-.063.996-.19 1.686-.379h.768zm-6.437.979c-.395 0-.731.136-1.009.41-.278.27-.416.595-.416.978s.138.71.416.978c.278.27.614.404 1.009.404.395 0 .731-.134 1.009-.404.282-.269.423-.595.423-.978s-.141-.709-.423-.978a1.385 1.385 0 00-1.01-.41zm5.226 4.62c.62 0 1.15.214 1.588.644.443.425.664.938.664 1.54 0 .602-.221 1.117-.664 1.546a2.198 2.198 0 01-1.588.638 2.22 2.22 0 01-1.594-.638 2.087 2.087 0 01-.658-1.546c0-.602.22-1.115.658-1.54.442-.43.974-.644 1.594-.644zm0 .801a1.4 1.4 0 00-1.009.404c-.277.27-.416.596-.416.979s.139.709.416.978c.278.27.614.404 1.01.404.394 0 .73-.135 1.008-.404.282-.27.423-.595.423-.978s-.14-.71-.423-.979a1.396 1.396 0 00-1.009-.404zM3.33 28.979l-.788-.493 2.584-3.8c-.347.11-.672.165-.976.165-.76 0-1.404-.266-1.933-.796-.53-.534-.794-1.19-.794-1.97 0-.534.128-1.015.384-1.445a2.802 2.802 0 011.087-1.029 3.131 3.131 0 011.516-.384c.53 0 1.018.124 1.465.372.451.248.805.595 1.06 1.041.257.446.385.922.385 1.427 0 .383-.08.785-.241 1.206-.156.416-.438.919-.846 1.508L3.33 28.979zm1.041-4.943c.56 0 1.035-.19 1.426-.568a1.86 1.86 0 00.592-1.382c0-.539-.198-.997-.592-1.376a1.96 1.96 0 00-1.426-.575c-.555 0-1.03.192-1.425.575-.39.378-.586.837-.586 1.376 0 .538.195 1 .586 1.382.395.379.87.568 1.425.568zm4.218.07c0-1.225.134-2.172.403-2.84.274-.67.658-1.177 1.152-1.522a2.834 2.834 0 011.66-.517c.62 0 1.182.174 1.686.523.503.345.9.865 1.19 1.56.296.694.444 1.626.444 2.796 0 1.165-.146 2.093-.437 2.783-.286.69-.683 1.212-1.19 1.566a2.92 2.92 0 01-1.693.524 2.826 2.826 0 01-1.653-.512c-.49-.34-.874-.848-1.152-1.521-.274-.678-.41-1.624-.41-2.84zm.905.019c0 1.047.095 1.84.286 2.38.195.534.482.94.859 1.217.378.278.777.417 1.198.417a1.98 1.98 0 001.19-.404c.37-.273.65-.682.84-1.224.239-.661.358-1.456.358-2.386 0-.935-.106-1.698-.319-2.292-.212-.597-.507-1.033-.885-1.306-.373-.278-.768-.417-1.184-.417-.426 0-.825.139-1.198.417-.373.273-.657.68-.853 1.218-.195.534-.292 1.328-.292 2.38zm15.054-5.075l-6.977 10.339h-.86l6.347-9.418c-.751.177-1.667.265-2.747.265l-.352-.006c.27.362.404.745.404 1.149 0 .576-.208 1.092-.625 1.546-.412.455-.961.682-1.646.682-.63 0-1.16-.21-1.589-.631a2.095 2.095 0 01-.644-1.547c0-.404.098-.77.293-1.098.195-.332.473-.6.833-.802.36-.201.729-.302 1.107-.302.16 0 .425.037.794.113a8.98 8.98 0 001.835.177c.486 0 .944-.03 1.373-.088.434-.064.996-.19 1.686-.38h.768zm-6.437.978c-.395 0-.731.137-1.009.41-.278.27-.416.596-.416.979s.138.709.416.978c.278.27.614.404 1.009.404.395 0 .731-.135 1.009-.404.282-.27.423-.595.423-.978s-.141-.71-.423-.979a1.385 1.385 0 00-1.009-.41zm5.226 4.62c.62 0 1.15.215 1.588.644.443.425.664.939.664 1.54 0 .602-.22 1.118-.663 1.547a2.198 2.198 0 01-1.589.637 2.22 2.22 0 01-1.594-.637 2.087 2.087 0 01-.658-1.547c0-.601.22-1.115.658-1.54a2.208 2.208 0 011.594-.644zm0 .802c-.394 0-.73.135-1.008.404-.278.27-.417.596-.417.978 0 .383.139.71.417.979.277.27.614.404 1.008.404a1.4 1.4 0 001.01-.404c.281-.27.422-.596.422-.979s-.14-.709-.423-.978a1.396 1.396 0 00-1.009-.404zM5.894 41.749c.647.311 1.109.667 1.387 1.066.282.4.423.855.423 1.364a2.78 2.78 0 01-.723 1.893c-.59.67-1.434 1.004-2.532 1.004-1.058 0-1.861-.292-2.408-.877-.547-.59-.82-1.237-.82-1.944 0-.518.143-.983.43-1.395.286-.417.763-.787 1.431-1.111-.468-.236-.82-.528-1.054-.878a1.98 1.98 0 01-.351-1.123c0-.404.123-.797.37-1.18a2.58 2.58 0 011.035-.91c.443-.222.92-.334 1.432-.334.5 0 .962.112 1.387.335.425.223.757.526.996.909.243.383.364.784.364 1.205 0 .421-.115.795-.345 1.124-.226.328-.566.612-1.022.852zM4.47 38.227c-.525 0-.961.151-1.308.454-.343.299-.515.657-.515 1.073 0 .413.185.787.554 1.124.373.332.807.498 1.301.498.317 0 .617-.075.899-.227.282-.151.5-.358.657-.618.16-.265.24-.53.24-.796 0-.374-.155-.72-.468-1.035-.312-.316-.766-.473-1.36-.473zm.045 3.989c-.66 0-1.212.208-1.66.625-.446.412-.67.894-.67 1.445 0 .341.096.663.287.966.19.303.457.536.8.7.343.165.74.247 1.191.247.699 0 1.254-.2 1.667-.6.412-.4.618-.867.618-1.401 0-.518-.22-.976-.657-1.376a2.229 2.229 0 00-1.576-.606zm4.074-.013c0-1.224.134-2.171.403-2.84.274-.67.658-1.176 1.152-1.521a2.834 2.834 0 011.66-.518c.62 0 1.182.175 1.686.524.503.345.9.865 1.19 1.56.296.693.444 1.625.444 2.795 0 1.166-.146 2.094-.437 2.784-.286.69-.683 1.212-1.19 1.565a2.918 2.918 0 01-1.693.524c-.612 0-1.163-.17-1.653-.511-.49-.341-.874-.848-1.152-1.521-.274-.678-.41-1.625-.41-2.84zm.905.02c0 1.047.095 1.84.286 2.379.195.534.482.94.859 1.218.378.278.777.417 1.198.417a1.98 1.98 0 001.19-.404c.37-.274.65-.682.84-1.225.239-.66.358-1.456.358-2.386 0-.934-.106-1.698-.319-2.291-.212-.598-.507-1.033-.885-1.307-.373-.277-.768-.416-1.184-.416a1.97 1.97 0 00-1.198.416c-.373.274-.657.68-.853 1.219-.195.534-.292 1.327-.292 2.38zm15.054-5.076l-6.977 10.34h-.86l6.347-9.418c-.751.177-1.667.265-2.747.265l-.352-.006c.27.362.404.744.404 1.148 0 .577-.208 1.093-.625 1.547-.412.454-.961.682-1.646.682-.63 0-1.16-.21-1.589-.632a2.095 2.095 0 01-.644-1.546c0-.404.098-.77.293-1.098.195-.333.473-.6.833-.802.36-.202.729-.303 1.107-.303.16 0 .425.038.794.114a8.972 8.972 0 001.835.176c.486 0 .944-.029 1.373-.088.434-.063.996-.19 1.686-.379h.768zm-6.437.979c-.395 0-.731.137-1.009.41-.278.27-.416.595-.416.978s.138.71.416.979c.278.269.614.404 1.009.404.395 0 .731-.135 1.009-.404.282-.27.423-.596.423-.979s-.141-.709-.423-.978a1.385 1.385 0 00-1.009-.41zm5.226 4.62c.62 0 1.15.215 1.588.644.443.425.664.938.664 1.54 0 .602-.22 1.117-.663 1.547a2.198 2.198 0 01-1.589.637 2.22 2.22 0 01-1.594-.637 2.088 2.088 0 01-.658-1.547c0-.602.22-1.115.658-1.54.442-.43.974-.644 1.594-.644zm0 .802c-.394 0-.73.134-1.008.404-.278.269-.417.595-.417.978s.139.71.417.978c.277.27.614.404 1.008.404.395 0 .732-.134 1.01-.404.281-.269.422-.595.422-.978s-.14-.709-.423-.978a1.396 1.396 0 00-1.009-.404zM1.729 55.655H7.8l-5.12 9.519-.788-.392 4.426-8.25H1.73v-.877zm6.86 4.645c0-1.224.134-2.17.403-2.84.274-.669.658-1.176 1.152-1.52a2.834 2.834 0 011.66-.518c.62 0 1.182.174 1.686.524.503.345.9.864 1.19 1.559.296.694.444 1.626.444 2.796 0 1.166-.146 2.093-.437 2.783-.286.69-.683 1.212-1.19 1.566a2.918 2.918 0 01-1.693.524 2.82 2.82 0 01-1.653-.512c-.49-.34-.874-.848-1.152-1.52-.274-.678-.41-1.625-.41-2.841zm.905.02c0 1.048.095 1.84.286 2.38.195.534.482.94.859 1.218.378.277.777.416 1.198.416a1.98 1.98 0 001.19-.404c.37-.273.65-.681.84-1.224.239-.66.358-1.456.358-2.386 0-.934-.106-1.698-.319-2.291-.212-.598-.507-1.034-.885-1.307-.373-.278-.768-.417-1.184-.417a1.97 1.97 0 00-1.198.417c-.373.273-.657.68-.853 1.218-.195.535-.292 1.328-.292 2.38zm15.054-5.075l-6.977 10.339h-.86l6.347-9.417c-.751.176-1.667.265-2.747.265l-.352-.007c.27.362.404.745.404 1.15 0 .576-.208 1.091-.625 1.545-.412.455-.961.682-1.646.682-.63 0-1.16-.21-1.589-.631a2.095 2.095 0 01-.644-1.546c0-.404.098-.77.293-1.099.195-.332.473-.6.833-.801.36-.202.729-.303 1.107-.303.16 0 .425.038.794.113a8.98 8.98 0 001.835.177c.486 0 .944-.03 1.373-.088.434-.063.996-.19 1.686-.379h.768zm-6.437.978c-.395 0-.731.137-1.009.41-.278.27-.416.596-.416.979s.138.709.416.978c.278.27.614.404 1.009.404.395 0 .731-.134 1.009-.404.282-.269.423-.595.423-.978s-.141-.709-.423-.978a1.385 1.385 0 00-1.009-.41zm5.226 4.62c.62 0 1.15.215 1.588.644.443.425.664.939.664 1.54 0 .602-.22 1.118-.663 1.547a2.198 2.198 0 01-1.589.638 2.22 2.22 0 01-1.594-.638 2.088 2.088 0 01-.658-1.546c0-.602.22-1.115.658-1.54.442-.43.974-.644 1.594-.644zm0 .802c-.394 0-.73.135-1.008.404-.278.27-.417.596-.417.979s.139.709.417.978c.277.27.614.404 1.008.404a1.4 1.4 0 001.01-.404c.281-.27.422-.595.422-.978s-.14-.71-.423-.979a1.396 1.396 0 00-1.009-.404zM5.66 73.52l.787.498-2.583 3.8a3.13 3.13 0 01.976-.17c.76 0 1.404.267 1.933.801.53.53.794 1.184.794 1.963 0 .534-.128 1.018-.384 1.452a2.79 2.79 0 01-1.093 1.029 3.148 3.148 0 01-1.517.378 3.03 3.03 0 01-1.464-.366 2.715 2.715 0 01-1.055-1.041 2.832 2.832 0 01-.384-1.433c0-.379.078-.776.234-1.193.161-.42.445-.926.853-1.515L5.66 73.52zm-1.048 4.942c-.555 0-1.03.191-1.425.574-.39.379-.586.84-.586 1.382 0 .539.195 1 .586 1.383.395.378.87.568 1.425.568s1.028-.19 1.419-.568c.395-.383.592-.844.592-1.383 0-.543-.197-1.003-.592-1.382a1.952 1.952 0 00-1.419-.574zm3.977-.064c0-1.224.134-2.17.403-2.84.274-.669.658-1.176 1.152-1.521a2.834 2.834 0 011.66-.518c.62 0 1.182.175 1.686.524.503.345.9.865 1.19 1.56.296.694.444 1.626.444 2.796 0 1.165-.146 2.093-.437 2.783-.286.69-.683 1.212-1.19 1.565a2.918 2.918 0 01-1.693.524c-.612 0-1.163-.17-1.653-.51-.49-.342-.874-.849-1.152-1.522-.274-.678-.41-1.624-.41-2.84zm.905.02c0 1.047.095 1.84.286 2.379.195.535.482.94.859 1.218.378.278.777.417 1.198.417a1.98 1.98 0 001.19-.404c.37-.274.65-.682.84-1.225.239-.66.358-1.456.358-2.386 0-.934-.106-1.698-.319-2.29-.212-.598-.507-1.034-.885-1.307-.373-.278-.768-.417-1.184-.417a1.97 1.97 0 00-1.198.417c-.373.273-.657.68-.853 1.218-.195.534-.292 1.327-.292 2.38zm15.054-5.075l-6.977 10.339h-.86l6.347-9.418c-.751.177-1.667.265-2.747.265l-.352-.006c.27.362.404.745.404 1.149 0 .576-.208 1.092-.625 1.546-.412.455-.961.682-1.646.682-.63 0-1.16-.21-1.589-.631a2.095 2.095 0 01-.644-1.547c0-.404.098-.77.293-1.098.195-.332.473-.6.833-.802.36-.202.729-.303 1.107-.303.16 0 .425.038.794.114a8.98 8.98 0 001.835.177c.486 0 .944-.03 1.373-.089.434-.063.996-.189 1.686-.378h.768zm-6.437.978c-.395 0-.731.137-1.009.41-.278.27-.416.596-.416.979s.138.709.416.978c.278.27.614.404 1.009.404.395 0 .731-.135 1.009-.404.282-.27.423-.596.423-.978 0-.383-.141-.71-.423-.979a1.384 1.384 0 00-1.009-.41zm5.226 4.62c.62 0 1.15.215 1.588.644.443.425.664.939.664 1.54 0 .602-.22 1.118-.663 1.547a2.198 2.198 0 01-1.589.637 2.22 2.22 0 01-1.594-.637 2.087 2.087 0 01-.658-1.547c0-.602.22-1.115.658-1.54.442-.43.974-.644 1.594-.644zm0 .802c-.394 0-.73.135-1.008.404-.278.27-.417.595-.417.978s.139.71.417.979c.277.269.614.404 1.008.404a1.4 1.4 0 001.01-.404c.281-.27.422-.596.422-.979s-.14-.709-.423-.978a1.396 1.396 0 00-1.009-.404zM7.326 91.85v.884h-3.41l-.476 2.531a4.182 4.182 0 011.126-.176c.873 0 1.59.284 2.155.852.568.563.852 1.287.852 2.171 0 .61-.145 1.17-.436 1.679-.29.509-.685.9-1.184 1.174-.495.269-1.068.404-1.718.404-.777 0-1.432-.229-1.966-.688-.534-.463-.853-1.06-.957-1.793h.983c.074.358.197.648.371.871.178.223.412.404.703.543.295.135.603.202.924.202.63 0 1.17-.231 1.62-.694.452-.463.678-1.042.678-1.736 0-.627-.204-1.136-.612-1.527-.408-.392-.953-.587-1.634-.587-.564 0-1.247.166-2.05.498l.885-4.608h4.146zm1.263 4.646c0-1.224.134-2.171.403-2.84.274-.67.658-1.176 1.152-1.521a2.834 2.834 0 011.66-.518c.62 0 1.182.175 1.686.524.503.345.9.865 1.19 1.559.296.694.444 1.626.444 2.796 0 1.166-.146 2.094-.437 2.784-.286.69-.683 1.212-1.19 1.565a2.92 2.92 0 01-1.693.524c-.612 0-1.163-.17-1.653-.511-.49-.341-.874-.848-1.152-1.522-.274-.677-.41-1.624-.41-2.84zm.905.02c0 1.047.095 1.84.286 2.379.195.534.482.94.859 1.218.378.278.777.416 1.198.416.425 0 .822-.134 1.19-.404.37-.273.65-.681.84-1.224.239-.66.358-1.456.358-2.386 0-.934-.106-1.698-.319-2.291-.212-.598-.507-1.033-.885-1.307-.373-.278-.768-.416-1.184-.416a1.97 1.97 0 00-1.198.416c-.373.274-.657.68-.853 1.218-.195.535-.292 1.328-.292 2.38zm15.054-5.076l-6.977 10.339h-.86l6.347-9.417c-.751.177-1.667.265-2.747.265l-.352-.006c.27.362.404.744.404 1.148 0 .577-.208 1.092-.625 1.547-.412.454-.961.681-1.646.681-.63 0-1.16-.21-1.589-.63a2.095 2.095 0 01-.644-1.547c0-.404.098-.77.293-1.098.195-.333.473-.6.833-.802.36-.202.729-.303 1.107-.303.16 0 .425.038.794.114a8.98 8.98 0 001.835.176c.486 0 .944-.03 1.373-.088.434-.063.996-.19 1.686-.379h.768zm-6.437.979c-.395 0-.731.136-1.009.41-.278.27-.416.595-.416.978s.138.71.416.979c.278.269.614.404 1.009.404.395 0 .731-.135 1.009-.404.282-.27.423-.596.423-.979s-.141-.709-.423-.978a1.385 1.385 0 00-1.009-.41zm5.226 4.62c.62 0 1.15.215 1.588.644.443.425.664.938.664 1.54 0 .602-.22 1.117-.663 1.546a2.199 2.199 0 01-1.589.638 2.22 2.22 0 01-1.594-.638 2.087 2.087 0 01-.658-1.546c0-.602.22-1.115.658-1.54.442-.43.974-.644 1.594-.644zm0 .802c-.394 0-.73.134-1.008.404-.278.269-.417.595-.417.978s.139.709.417.978c.277.27.614.404 1.008.404.395 0 .732-.134 1.01-.404.281-.27.422-.595.422-.978s-.14-.71-.423-.978a1.396 1.396 0 00-1.009-.404zm-16.89 11.874h.196v6.469H7.8v.89H6.643v2.159h-.957v-2.159H1.11l5.337-7.359zm-.761 6.469v-3.869l-2.818 3.869h2.818zm2.903-1.59c0-1.225.134-2.172.403-2.841.274-.669.658-1.176 1.152-1.521a2.834 2.834 0 011.66-.517c.62 0 1.182.174 1.686.523.503.346.9.865 1.19 1.56.296.694.444 1.626.444 2.796 0 1.165-.146 2.093-.437 2.783-.286.69-.683 1.212-1.19 1.566a2.92 2.92 0 01-1.693.524 2.828 2.828 0 01-1.653-.512c-.49-.341-.874-.848-1.152-1.521-.274-.677-.41-1.624-.41-2.84zm.905.019c0 1.047.095 1.841.286 2.379.195.535.482.941.859 1.218.378.278.777.417 1.198.417.425 0 .822-.135 1.19-.404.37-.273.65-.682.84-1.224.239-.661.358-1.456.358-2.386 0-.934-.106-1.698-.319-2.292-.212-.597-.507-1.033-.885-1.306-.373-.278-.768-.417-1.184-.417-.426 0-.825.139-1.198.417-.373.273-.657.679-.853 1.218-.195.534-.292 1.328-.292 2.38zm15.054-5.075l-6.977 10.339h-.86l6.347-9.418c-.751.177-1.667.266-2.747.266l-.352-.007c.27.362.404.745.404 1.149 0 .576-.208 1.092-.625 1.546-.412.455-.961.682-1.646.682-.63 0-1.16-.21-1.589-.631a2.096 2.096 0 01-.644-1.547c0-.403.098-.77.293-1.098.195-.332.473-.599.833-.801.36-.202.729-.303 1.107-.303.16 0 .425.037.794.113a8.965 8.965 0 001.835.177c.486 0 .944-.029 1.373-.088.434-.064.996-.19 1.686-.379h.768zm-6.437.978c-.395 0-.731.137-1.009.41-.278.27-.416.596-.416.979s.138.709.416.978c.278.27.614.404 1.009.404.395 0 .731-.134 1.009-.404.282-.269.423-.595.423-.978s-.141-.709-.423-.979a1.387 1.387 0 00-1.009-.41zm5.226 4.621c.62 0 1.15.214 1.588.643.443.425.664.939.664 1.541 0 .601-.22 1.117-.663 1.546a2.198 2.198 0 01-1.589.637 2.22 2.22 0 01-1.594-.637 2.087 2.087 0 01-.658-1.546c0-.602.22-1.116.658-1.541a2.209 2.209 0 011.594-.643zm0 .801c-.394 0-.73.135-1.008.404a1.313 1.313 0 00-.417.979c0 .382.139.709.417.978.277.269.614.404 1.008.404a1.4 1.4 0 001.01-.404c.281-.269.422-.596.422-.978a1.3 1.3 0 00-.423-.979 1.397 1.397 0 00-1.009-.404zm-20.801 14.26h-.977c.178-.766.519-1.355 1.022-1.767.504-.413 1.098-.619 1.784-.619.499 0 .963.112 1.393.335.433.219.768.515 1.002.89.239.374.358.766.358 1.174 0 .799-.41 1.433-1.23 1.9.46.181.837.446 1.132.795.417.492.625 1.044.625 1.654a2.89 2.89 0 01-.43 1.508 2.944 2.944 0 01-1.171 1.105 3.5 3.5 0 01-1.66.391c-.824 0-1.512-.229-2.063-.688-.551-.463-.911-1.14-1.08-2.032h.937c.165.601.401 1.037.71 1.306.394.341.897.512 1.51.512.694 0 1.251-.202 1.672-.606.42-.404.631-.878.631-1.421 0-.361-.106-.7-.319-1.016a1.95 1.95 0 00-.846-.713c-.351-.16-.898-.259-1.64-.297v-.852c.438 0 .838-.073 1.198-.221.36-.151.62-.343.78-.574a1.28 1.28 0 00.248-.758c0-.404-.167-.753-.501-1.047-.33-.295-.749-.442-1.256-.442a1.71 1.71 0 00-1.068.341c-.3.223-.553.604-.761 1.142zm6.053 2.493c0-1.224.134-2.171.403-2.84.274-.669.658-1.176 1.152-1.521a2.835 2.835 0 011.66-.518c.62 0 1.182.175 1.686.524.503.345.9.865 1.19 1.559.296.694.444 1.627.444 2.796 0 1.166-.146 2.094-.437 2.784-.286.69-.683 1.212-1.19 1.565a2.913 2.913 0 01-1.693.524c-.612 0-1.163-.17-1.653-.511-.49-.341-.874-.848-1.152-1.521-.274-.678-.41-1.625-.41-2.841zm.905.019c0 1.048.095 1.841.286 2.38.195.534.482.94.859 1.218.378.278.777.417 1.198.417.425 0 .822-.135 1.19-.404.37-.274.65-.682.84-1.225.239-.66.358-1.456.358-2.386 0-.934-.106-1.698-.319-2.291-.212-.597-.507-1.033-.885-1.307-.373-.277-.768-.416-1.184-.416-.426 0-.825.139-1.198.416-.373.274-.657.68-.853 1.219-.195.534-.292 1.327-.292 2.379zm15.054-5.075l-6.977 10.339h-.86l6.347-9.417c-.751.177-1.667.265-2.747.265l-.352-.006c.27.362.404.745.404 1.149 0 .576-.208 1.092-.625 1.546-.412.454-.961.682-1.646.682-.63 0-1.16-.211-1.589-.631a2.096 2.096 0 01-.644-1.547c0-.404.098-.77.293-1.098.195-.333.473-.6.833-.802.36-.202.729-.303 1.107-.303.16 0 .425.038.794.114a8.965 8.965 0 001.835.177c.486 0 .944-.03 1.373-.089a14.49 14.49 0 001.686-.379h.768zm-6.437.979c-.395 0-.731.137-1.009.41a1.313 1.313 0 00-.416.978c0 .383.138.71.416.979.278.269.614.404 1.009.404.395 0 .731-.135 1.009-.404.282-.269.423-.596.423-.979 0-.382-.141-.709-.423-.978a1.387 1.387 0 00-1.009-.41zm5.226 4.62c.62 0 1.15.215 1.588.644.443.425.664.938.664 1.54a2.08 2.08 0 01-.663 1.547 2.198 2.198 0 01-1.589.637 2.22 2.22 0 01-1.594-.637 2.09 2.09 0 01-.658-1.547c0-.602.22-1.115.658-1.54a2.21 2.21 0 011.594-.644zm0 .802c-.394 0-.73.134-1.008.404a1.311 1.311 0 00-.417.978c0 .383.139.709.417.978.277.27.614.404 1.008.404.395 0 .732-.134 1.01-.404.281-.269.422-.595.422-.978s-.14-.709-.423-.978a1.393 1.393 0 00-1.009-.404zM2.314 149.053h-.917c.026-.917.34-1.67.944-2.259.607-.59 1.355-.884 2.245-.884.88 0 1.592.275 2.135.827.547.551.82 1.201.82 1.95 0 .526-.13 1.021-.39 1.483-.26.459-.766 1.082-1.517 1.869l-2.382 2.493h4.42v.896H1.168l3.658-3.831c.742-.77 1.223-1.34 1.445-1.711.225-.374.338-.768.338-1.18 0-.522-.202-.97-.605-1.344-.4-.379-.89-.568-1.471-.568-.612 0-1.122.197-1.53.593-.403.395-.633.951-.69 1.666zm6.275 1.736c0-1.225.134-2.171.403-2.84.274-.669.658-1.177 1.152-1.522a2.834 2.834 0 011.66-.517c.62 0 1.182.174 1.686.524.503.345.9.864 1.19 1.559.296.694.444 1.626.444 2.796 0 1.166-.146 2.093-.437 2.784-.286.69-.683 1.211-1.19 1.565a2.92 2.92 0 01-1.693.524 2.834 2.834 0 01-1.653-.511c-.49-.341-.874-.848-1.152-1.522-.274-.677-.41-1.624-.41-2.84zm.905.019c0 1.048.095 1.841.286 2.38.195.534.482.94.859 1.218.378.277.777.416 1.198.416.425 0 .822-.134 1.19-.404.37-.273.65-.681.84-1.224.239-.661.358-1.456.358-2.386 0-.934-.106-1.698-.319-2.291-.212-.598-.507-1.033-.885-1.307-.373-.278-.768-.416-1.184-.416-.426 0-.825.138-1.198.416-.373.274-.657.68-.853 1.218-.195.535-.292 1.328-.292 2.38zm15.054-5.075l-6.977 10.339h-.86l6.347-9.417c-.751.176-1.667.265-2.747.265l-.352-.007c.27.362.404.745.404 1.149 0 .577-.208 1.092-.625 1.547-.412.454-.961.681-1.646.681-.63 0-1.16-.21-1.589-.631a2.094 2.094 0 01-.644-1.546c0-.404.098-.77.293-1.099.195-.332.473-.599.833-.801.36-.202.729-.303 1.107-.303.16 0 .425.038.794.113a8.965 8.965 0 001.835.177c.486 0 .944-.029 1.373-.088.434-.063.996-.19 1.686-.379h.768zm-6.437.978c-.395 0-.731.137-1.009.411a1.311 1.311 0 00-.416.978c0 .383.138.709.416.978.278.27.614.404 1.009.404.395 0 .731-.134 1.009-.404.282-.269.423-.595.423-.978s-.141-.709-.423-.978a1.383 1.383 0 00-1.009-.411zm5.226 4.621c.62 0 1.15.214 1.588.644.443.425.664.938.664 1.54 0 .601-.22 1.117-.663 1.546a2.199 2.199 0 01-1.589.638 2.22 2.22 0 01-1.594-.638 2.087 2.087 0 01-.658-1.546c0-.602.22-1.115.658-1.54.442-.43.974-.644 1.594-.644zm0 .801c-.394 0-.73.135-1.008.404-.278.27-.417.596-.417.979s.139.709.417.978c.277.269.614.404 1.008.404a1.4 1.4 0 001.01-.404c.281-.269.422-.595.422-.978s-.14-.709-.423-.979a1.397 1.397 0 00-1.009-.404zM3.239 164.241h1.88v9.285h-.95v-8.376H2.666l.573-.909zm5.35 4.646c0-1.225.134-2.172.403-2.841.274-.669.658-1.176 1.152-1.521a2.835 2.835 0 011.66-.518c.62 0 1.182.175 1.686.524.503.345.9.865 1.19 1.559.296.695.444 1.627.444 2.797 0 1.165-.146 2.093-.437 2.783-.286.69-.683 1.212-1.19 1.566a2.92 2.92 0 01-1.693.523c-.612 0-1.163-.17-1.653-.511-.49-.341-.874-.848-1.152-1.521-.274-.678-.41-1.624-.41-2.84zm.905.019c0 1.047.095 1.841.286 2.379.195.535.482.941.859 1.218.378.278.777.417 1.198.417.425 0 .822-.135 1.19-.404.37-.274.65-.682.84-1.225.239-.66.358-1.456.358-2.385 0-.935-.106-1.698-.319-2.292-.212-.597-.507-1.033-.885-1.306-.373-.278-.768-.417-1.184-.417-.426 0-.825.139-1.198.417-.373.273-.657.679-.853 1.218-.195.534-.292 1.328-.292 2.38zm15.054-5.075l-6.977 10.339h-.86l6.347-9.418c-.751.177-1.667.265-2.747.265l-.352-.006c.27.362.404.745.404 1.149 0 .576-.208 1.092-.625 1.546-.412.455-.961.682-1.646.682-.63 0-1.16-.21-1.589-.631a2.096 2.096 0 01-.644-1.547c0-.404.098-.77.293-1.098.195-.332.473-.6.833-.802.36-.202.729-.303 1.107-.303.16 0 .425.038.794.114a8.965 8.965 0 001.835.177c.486 0 .944-.03 1.373-.089a14.66 14.66 0 001.686-.378h.768zm-6.437.978c-.395 0-.731.137-1.009.41-.278.27-.416.596-.416.979s.138.709.416.978c.278.269.614.404 1.009.404.395 0 .731-.135 1.009-.404.282-.269.423-.595.423-.978s-.141-.709-.423-.979a1.387 1.387 0 00-1.009-.41zm5.226 4.62c.62 0 1.15.215 1.588.644.443.425.664.939.664 1.54 0 .602-.22 1.118-.663 1.547a2.198 2.198 0 01-1.589.637 2.22 2.22 0 01-1.594-.637 2.088 2.088 0 01-.658-1.547c0-.601.22-1.115.658-1.54a2.21 2.21 0 011.594-.644zm0 .802c-.394 0-.73.135-1.008.404a1.311 1.311 0 00-.417.978c0 .383.139.709.417.979.277.269.614.404 1.008.404a1.4 1.4 0 001.01-.404c.281-.27.422-.596.422-.979s-.14-.709-.423-.978a1.397 1.397 0 00-1.009-.404zm-16.81 16.753c0-1.224.134-2.171.403-2.84.274-.669.658-1.176 1.152-1.521a2.835 2.835 0 011.66-.518c.62 0 1.183.175 1.686.524.503.345.9.865 1.191 1.559.295.694.443 1.626.443 2.796 0 1.166-.146 2.094-.436 2.784-.287.69-.684 1.212-1.192 1.565a2.921 2.921 0 01-1.692.524c-.612 0-1.163-.17-1.653-.511-.49-.341-.874-.848-1.152-1.521-.273-.678-.41-1.625-.41-2.841zm.905.019c0 1.048.095 1.841.286 2.38.195.534.482.94.86 1.218.377.278.776.417 1.197.417.425 0 .822-.135 1.19-.404.37-.274.65-.682.84-1.225.24-.661.358-1.456.358-2.386 0-.934-.106-1.698-.319-2.291-.212-.598-.507-1.033-.885-1.307-.373-.277-.768-.416-1.184-.416-.426 0-.825.139-1.198.416-.373.274-.657.68-.853 1.219-.195.534-.292 1.327-.292 2.379zm15.054-5.075l-6.977 10.339h-.86l6.347-9.417c-.751.177-1.667.265-2.747.265l-.351-.006c.268.362.403.745.403 1.148 0 .577-.208 1.092-.625 1.547-.412.454-.96.682-1.646.682-.63 0-1.159-.211-1.589-.632a2.093 2.093 0 01-.644-1.546c0-.404.098-.77.293-1.098.195-.333.473-.6.833-.802.36-.202.729-.303 1.106-.303.161 0 .426.038.795.114a8.967 8.967 0 001.835.176c.486 0 .944-.029 1.373-.088a14.49 14.49 0 001.686-.379h.768zm-6.437.979c-.395 0-.731.136-1.009.41a1.311 1.311 0 00-.416.978c0 .383.138.709.416.979.278.269.614.404 1.009.404.395 0 .731-.135 1.009-.404.282-.27.423-.596.423-.979s-.141-.709-.423-.978a1.383 1.383 0 00-1.009-.41zm5.227 4.62c.62 0 1.15.215 1.588.644.442.425.663.938.663 1.54 0 .602-.22 1.117-.663 1.546a2.199 2.199 0 01-1.588.638 2.22 2.22 0 01-1.595-.638 2.085 2.085 0 01-.658-1.546c0-.602.22-1.115.658-1.54a2.21 2.21 0 011.595-.644zm0 .802c-.395 0-.732.134-1.01.404a1.311 1.311 0 00-.416.978c0 .383.139.709.417.978.277.27.614.404 1.009.404.394 0 .73-.134 1.008-.404.282-.269.423-.595.423-.978s-.14-.709-.423-.978a1.393 1.393 0 00-1.008-.404zm18.67 21.498h-1.101c.031-1.101.409-2.005 1.133-2.711.728-.707 1.627-1.061 2.694-1.061 1.057 0 1.911.331 2.562.992.656.662.984 1.442.984 2.341a3.57 3.57 0 01-.469 1.78c-.312.55-.919 1.298-1.82 2.242l-2.858 2.992h5.303v1.075h-7.802l4.389-4.597c.89-.924 1.468-1.609 1.734-2.053a2.71 2.71 0 00.406-1.416c0-.627-.242-1.164-.726-1.614-.48-.454-1.068-.681-1.765-.681-.735 0-1.346.237-1.836.712-.484.474-.76 1.141-.828 1.999zm9.138-.909h-1.171c.213-.919.622-1.626 1.226-2.121.604-.494 1.317-.742 2.14-.742a3.57 3.57 0 011.671.402c.521.262.922.618 1.203 1.068.287.449.43.919.43 1.408 0 .96-.492 1.72-1.476 2.28a3.346 3.346 0 011.359.955c.5.59.75 1.252.75 1.984 0 .631-.172 1.235-.516 1.81a3.533 3.533 0 01-1.406 1.326c-.593.313-1.257.47-1.991.47-.99 0-1.815-.276-2.476-.826-.662-.556-1.094-1.369-1.297-2.439h1.125c.198.722.481 1.245.851 1.568.474.409 1.078.613 1.812.613.833 0 1.502-.242 2.007-.727.505-.485.758-1.053.758-1.704a2.14 2.14 0 00-.383-1.219 2.335 2.335 0 00-1.015-.856c-.422-.192-1.078-.311-1.968-.356v-1.023c.526 0 1.005-.088 1.437-.265.432-.182.744-.412.937-.689.198-.278.297-.581.297-.909 0-.485-.2-.904-.602-1.258-.395-.353-.898-.53-1.507-.53-.495 0-.922.137-1.28.409-.36.268-.665.725-.915 1.371zm9.178 6.893a.94.94 0 01.68.273.892.892 0 01.28.666.91.91 0 01-.28.667.943.943 0 01-.68.272.943.943 0 01-.68-.272.91.91 0 01-.281-.667c0-.262.094-.485.281-.666a.94.94 0 01.68-.273zm2.522-3.901c0-1.469.162-2.605.485-3.408.328-.803.788-1.412 1.382-1.826a3.401 3.401 0 011.992-.621c.744 0 1.419.21 2.023.629.604.414 1.08 1.037 1.429 1.871.354.833.531 1.951.531 3.355 0 1.399-.175 2.512-.523 3.34-.344.829-.82 1.455-1.43 1.879a3.504 3.504 0 01-2.03.629 3.395 3.395 0 01-1.984-.614c-.589-.409-1.05-1.018-1.383-1.825-.328-.813-.492-1.95-.492-3.409zm1.086.023c0 1.257.114 2.209.344 2.855.234.642.578 1.129 1.03 1.462.454.333.933.5 1.438.5.51 0 .986-.161 1.429-.485.443-.328.778-.818 1.008-1.469.286-.793.43-1.747.43-2.863 0-1.121-.128-2.038-.384-2.75-.255-.717-.609-1.239-1.062-1.568-.448-.333-.921-.499-1.421-.499-.51 0-.99.166-1.437.499-.448.329-.79.816-1.023 1.462-.235.642-.352 1.593-.352 2.856zm10.349 5.825l-.945-.591 3.1-4.56a3.917 3.917 0 01-1.171.197c-.911 0-1.685-.318-2.32-.954-.635-.642-.953-1.429-.953-2.364 0-.641.154-1.219.461-1.734a3.362 3.362 0 011.304-1.235 3.758 3.758 0 011.82-.462c.635 0 1.221.149 1.758.447.541.298.966.715 1.273 1.25.307.535.46 1.106.46 1.712 0 .459-.096.941-.288 1.446-.188.5-.526 1.104-1.016 1.811l-3.483 5.037zm1.25-5.931c.671 0 1.241-.227 1.71-.682.474-.459.71-1.012.71-1.659 0-.646-.236-1.196-.71-1.651a2.354 2.354 0 00-1.71-.689 2.37 2.37 0 00-1.711.689 2.216 2.216 0 00-.703 1.651c0 .647.234 1.2.703 1.659a2.38 2.38 0 001.71.682zm6.974 3.984a.94.94 0 01.68.273.892.892 0 01.28.666.91.91 0 01-.28.667.943.943 0 01-.68.272.943.943 0 01-.68-.272.91.91 0 01-.28-.667c0-.262.093-.485.28-.666a.94.94 0 01.68-.273zm4.975-9.476h2.257v11.142h-1.14v-10.051h-1.804l.687-1.091zm8.982 11.423l-.945-.591 3.1-4.56a3.917 3.917 0 01-1.17.197c-.912 0-1.685-.318-2.32-.954-.636-.642-.953-1.429-.953-2.364 0-.641.153-1.219.46-1.734a3.362 3.362 0 011.305-1.235 3.757 3.757 0 011.82-.462c.635 0 1.22.149 1.757.447.542.298.966.715 1.273 1.25.307.535.461 1.106.461 1.712 0 .459-.096.941-.289 1.446-.187.5-.526 1.104-1.015 1.811l-3.484 5.037zm1.25-5.931c.672 0 1.242-.227 1.71-.682a2.226 2.226 0 00.711-1.659c0-.646-.237-1.196-.71-1.651a2.354 2.354 0 00-1.711-.689 2.37 2.37 0 00-1.71.689 2.216 2.216 0 00-.703 1.651c0 .647.234 1.2.702 1.659a2.38 2.38 0 001.71.682zm213.557-2h-1.102c.032-1.101.409-2.005 1.133-2.711.729-.707 1.627-1.061 2.695-1.061 1.057 0 1.91.331 2.561.992.656.662.984 1.442.984 2.341a3.58 3.58 0 01-.468 1.78c-.313.55-.919 1.298-1.82 2.242l-2.859 2.992h5.304v1.075h-7.803l4.39-4.597c.89-.924 1.468-1.609 1.733-2.053.271-.449.407-.922.407-1.416 0-.627-.243-1.164-.727-1.614-.479-.454-1.067-.681-1.765-.681-.734 0-1.346.237-1.835.712-.485.474-.761 1.141-.828 1.999zm8.169-3.492h7.287l-6.146 11.423-.945-.47 5.311-9.9h-5.507v-1.053zm10.146 9.476c.266 0 .492.091.68.273a.893.893 0 01.281.666c0 .258-.094.48-.281.667a.944.944 0 01-.68.272.942.942 0 01-.679-.272.908.908 0 01-.282-.667.89.89 0 01.282-.666.939.939 0 01.679-.273zm2.523-3.901c0-1.469.161-2.605.484-3.408.328-.803.789-1.412 1.383-1.826a3.398 3.398 0 011.991-.621c.745 0 1.419.21 2.023.629.604.414 1.08 1.037 1.429 1.871.354.833.531 1.951.531 3.355 0 1.399-.174 2.512-.523 3.34-.343.829-.82 1.455-1.429 1.879a3.504 3.504 0 01-2.031.629 3.397 3.397 0 01-1.984-.614c-.588-.409-1.049-1.018-1.382-1.825-.328-.813-.492-1.95-.492-3.409zm1.085.023c0 1.257.115 2.209.344 2.855.234.642.578 1.129 1.031 1.462.453.333.932.5 1.437.5.511 0 .987-.161 1.43-.485.442-.328.778-.818 1.007-1.469.286-.793.43-1.747.43-2.863 0-1.121-.128-2.038-.383-2.75-.255-.717-.609-1.239-1.062-1.568-.448-.333-.922-.499-1.422-.499-.51 0-.989.166-1.437.499-.448.329-.789.816-1.023 1.462-.234.642-.352 1.593-.352 2.856zm9.131-2.106h-1.101c.031-1.101.408-2.005 1.132-2.711.729-.707 1.627-1.061 2.695-1.061 1.057 0 1.911.331 2.561.992.657.662.985 1.442.985 2.341a3.58 3.58 0 01-.469 1.78c-.312.55-.919 1.298-1.82 2.242l-2.858 2.992h5.303v1.075h-7.803l4.39-4.597c.89-.924 1.468-1.609 1.734-2.053a2.71 2.71 0 00.406-1.416c0-.627-.242-1.164-.727-1.614-.479-.454-1.067-.681-1.765-.681-.734 0-1.346.237-1.835.712-.485.474-.76 1.141-.828 1.999zm9.443 5.984c.265 0 .492.091.679.273a.89.89 0 01.281.666c0 .258-.093.48-.281.667a.942.942 0 01-.679.272.944.944 0 01-.68-.272.911.911 0 01-.281-.667c0-.262.094-.485.281-.666a.941.941 0 01.68-.273zm3.866-5.984h-1.102c.032-1.101.409-2.005 1.133-2.711.729-.707 1.627-1.061 2.695-1.061 1.057 0 1.91.331 2.561.992.656.662.984 1.442.984 2.341a3.58 3.58 0 01-.468 1.78c-.313.55-.919 1.298-1.82 2.242l-2.859 2.992h5.304v1.075h-7.803l4.39-4.597c.89-.924 1.468-1.609 1.733-2.053.271-.449.407-.922.407-1.416 0-.627-.243-1.164-.727-1.614-.479-.454-1.067-.681-1.765-.681-.734 0-1.346.237-1.835.712-.485.474-.761 1.141-.828 1.999zm7.529 2.083c0-1.469.161-2.605.484-3.408.328-.803.789-1.412 1.383-1.826a3.398 3.398 0 011.991-.621c.745 0 1.419.21 2.023.629.604.414 1.081 1.037 1.429 1.871.355.833.532 1.951.532 3.355 0 1.399-.175 2.512-.524 3.34-.343.829-.82 1.455-1.429 1.879a3.504 3.504 0 01-2.031.629 3.397 3.397 0 01-1.984-.614c-.588-.409-1.049-1.018-1.382-1.825-.328-.813-.492-1.95-.492-3.409zm1.086.023c0 1.257.114 2.209.343 2.855.235.642.578 1.129 1.031 1.462.453.333.932.5 1.437.5.511 0 .987-.161 1.43-.485.442-.328.778-.818 1.007-1.469.287-.793.43-1.747.43-2.863 0-1.121-.128-2.038-.383-2.75-.255-.717-.609-1.239-1.062-1.568-.448-.333-.922-.499-1.422-.499-.51 0-.989.166-1.437.499-.448.329-.789.816-1.023 1.462-.234.642-.351 1.593-.351 2.856z" fill="#333"/></svg>