<svg width="103" height="103" fill="none" xmlns="http://www.w3.org/2000/svg"><circle cx="51.5" cy="51.5" r="51" stroke="url(#paint0_linear)"/><g clip-path="url(#clip0)"><path d="M51.616 35.525c-6.855 0-12.432 5.577-12.432 12.432 0 2.146.563 4.27 1.626 6.14 1.717 3.603 2.51 7.535 2.88 10.452h-2.487a.758.758 0 00-.758.758v6.724a2.75 2.75 0 002.746 2.746h1.992A2.986 2.986 0 0048.066 77H54.7a2.985 2.985 0 002.883-2.224h1.992a2.75 2.75 0 002.746-2.746v-6.724a.758.758 0 00-.758-.758h-2.02c.37-2.912 1.158-6.834 2.845-10.385a12.43 12.43 0 001.66-6.207c0-6.854-5.577-12.431-12.432-12.431zm9.19 36.505c0 .679-.552 1.231-1.23 1.231l-2.653.001a.758.758 0 00-.757.758c0 .808-.657 1.465-1.465 1.465h-6.635a1.467 1.467 0 01-1.465-1.466.758.758 0 00-.758-.758h-2.651a1.233 1.233 0 01-1.232-1.23v-5.967h18.847v5.966zm-11.01-16.114c-.781-.949-2-1.17-2.07-1.18a.758.758 0 00-.25 1.495c.014.001 1.271.223 1.43 1.297.023.151.043.354.06.58h-.811c-.926 0-1.55-.256-1.908-.786-.641-.947-.427-2.64-.105-3.916.733.625 1.542.76 2.144.86.197.032.382.06.546.112.425.135.69.36.834.705.101.242.134.53.13.833zm2.818-7.318c.274-.66.79-1.1 1.575-1.35.253-.081.575-.135.916-.192 1.084-.18 2.481-.413 3.652-1.741.616 2.113 1.187 5.4-.028 7.198-.648.958-1.743 1.424-3.349 1.424h-1.736c.038-.573.082-1.058.134-1.404.29-1.964 2.493-2.378 2.596-2.396a.756.756 0 00-.25-1.494c-.124.02-2.7.482-3.593 2.735-.198-.977-.243-1.996.083-2.78zm8.434 4.862c-1.833 3.85-2.661 8.044-3.036 11.09h-4.606c0-.071.002-5.392.157-9.097h1.816c2.117 0 3.666-.704 4.604-2.09 2.311-3.42-.194-9.762-.302-10.03a.758.758 0 00-1.381-.056c-.934 1.868-2.211 2.08-3.445 2.286-.396.065-.77.128-1.126.241-1.22.388-2.067 1.134-2.516 2.216-1.004 2.42.413 5.792.865 6.758-.185 3.718-.188 9.464-.188 9.772h-1.237c-.006-1.156-.027-3.723-.116-5.573.34-.732 1.197-2.862.528-4.474-.315-.757-.928-1.3-1.775-1.57-.247-.079-.505-.12-.757-.163-.786-.13-1.464-.243-1.997-1.31a.757.757 0 00-1.38.056c-.18.443-1.696 4.392-.167 6.653.652.965 1.716 1.454 3.164 1.454h.895c.065 1.723.084 3.89.088 4.926h-3.918c-.375-3.05-1.205-7.25-3.043-11.108a1.327 1.327 0 00-.046-.093 10.92 10.92 0 01-1.432-5.392c0-6.02 4.897-10.917 10.917-10.917s10.917 4.897 10.917 10.917a10.967 10.967 0 01-1.483 5.504z" fill="url(#paint1_linear)"/><path d="M50.858 26.758v5.587a.758.758 0 001.516 0v-5.587a.758.758 0 00-1.516 0z" fill="url(#paint2_linear)"/><path d="M66.548 32.282a.756.756 0 00-1.07 0l-3.952 3.951a.756.756 0 00.536 1.293.755.755 0 00.536-.222l3.95-3.95a.756.756 0 000-1.072z" fill="url(#paint3_linear)"/><path d="M36.616 32.118a.757.757 0 000 1.071l3.95 3.951a.757.757 0 101.072-1.071l-3.951-3.951a.756.756 0 00-1.071 0z" fill="url(#paint4_linear)"/><path d="M30.334 47.05c0 .419.34.758.758.758h5.587a.758.758 0 000-1.515H31.09a.757.757 0 00-.757.758z" fill="url(#paint5_linear)"/><path d="M71.908 46.525H66.32a.758.758 0 000 1.516h5.588a.758.758 0 000-1.516z" fill="url(#paint6_linear)"/></g><defs><linearGradient id="paint0_linear" x1="13.171" y1="8.583" x2="133.411" y2="16.083" gradientUnits="userSpaceOnUse"><stop offset=".012" stop-color="#FAC336"/><stop offset="1" stop-color="#F6A103"/></linearGradient><linearGradient id="paint1_linear" x1="42.363" y1="38.981" x2="71.462" y2="40.069" gradientUnits="userSpaceOnUse"><stop offset=".012" stop-color="#FAC336"/><stop offset="1" stop-color="#F6A103"/></linearGradient><linearGradient id="paint2_linear" x1="51.052" y1="26.592" x2="52.828" y2="26.616" gradientUnits="userSpaceOnUse"><stop offset=".012" stop-color="#FAC336"/><stop offset="1" stop-color="#F6A103"/></linearGradient><linearGradient id="paint3_linear" x1="62.003" y1="32.516" x2="68.385" y2="32.914" gradientUnits="userSpaceOnUse"><stop offset=".012" stop-color="#FAC336"/><stop offset="1" stop-color="#F6A103"/></linearGradient><linearGradient id="paint4_linear" x1="37.093" y1="32.351" x2="43.474" y2="32.749" gradientUnits="userSpaceOnUse"><stop offset=".012" stop-color="#FAC336"/><stop offset="1" stop-color="#F6A103"/></linearGradient><linearGradient id="paint5_linear" x1="31.242" y1="46.419" x2="38.91" y2="48.661" gradientUnits="userSpaceOnUse"><stop offset=".012" stop-color="#FAC336"/><stop offset="1" stop-color="#F6A103"/></linearGradient><linearGradient id="paint6_linear" x1="66.471" y1="46.652" x2="74.139" y2="48.894" gradientUnits="userSpaceOnUse"><stop offset=".012" stop-color="#FAC336"/><stop offset="1" stop-color="#F6A103"/></linearGradient><clipPath id="clip0"><path fill="#fff" transform="translate(26 26)" d="M0 0h51v51H0z"/></clipPath></defs></svg>