<svg width="18" height="18" viewBox="0 0 18 18" fill="none" xmlns="http://www.w3.org/2000/svg">
<path d="M1.95041 0.807062C1.90988 0.850391 1.84139 0.940895 1.79561 1.00309C0.944741 2.13141 -0.0721092 3.866 0.00406719 5.54013C0.133357 8.34328 3.91632 12.0689 5.07294 13.1441C6.22992 14.219 10.2218 17.72 13.0243 17.6438C13.4915 17.6323 13.9866 17.5341 14.4954 17.3517C15.6699 16.9306 16.73 16.1297 17.4034 15.5402C17.4034 15.5402 17.5484 15.4169 17.6043 15.3575C17.7451 15.2055 17.8566 14.9836 17.945 14.6792C17.9901 14.5237 17.9999 14.3598 17.9999 14.2501C17.9999 14.1278 17.9876 13.8909 17.9073 13.6753C17.7972 13.3804 17.6711 13.1693 17.5201 13.0274C17.4083 12.9237 14.8815 10.9441 14.8655 10.9329L14.8462 10.9204C14.7093 10.8152 14.5663 10.7331 14.421 10.6761C14.0401 10.5269 13.6183 10.521 13.2329 10.6586C12.988 10.7463 12.7675 10.8914 12.5973 11.0752L11.7289 12.0046C11.6475 12.092 11.4962 12.1825 11.4428 12.1954C11.3865 12.2059 11.3474 12.2087 11.3222 12.2094L5.49436 6.79355C5.48038 6.78027 5.47339 6.76734 5.46955 6.75826C5.47235 6.74987 5.47584 6.74253 5.47759 6.73694C5.4989 6.69361 5.59954 6.55593 5.72534 6.41966L6.58459 5.48947C7.0392 5.00061 7.15207 4.24024 6.86274 3.64725C6.75966 3.43585 6.61849 3.2779 6.55314 3.20347L6.51925 3.16154C6.50247 3.14232 4.37513 0.80776 4.27973 0.720053C4.04316 0.500259 3.67067 0.381453 3.14128 0.356293C2.84705 0.342316 2.47805 0.428974 2.26385 0.562109C2.12617 0.648418 2.02309 0.728788 1.95041 0.807062ZM3.55536 1.47902C3.67451 1.59993 5.61072 3.72063 5.71206 3.83175L5.78334 3.91806C5.81234 3.95056 5.88048 4.02709 5.92032 4.10816C6.02375 4.32061 5.98322 4.59736 5.81549 4.77802L4.95518 5.70926C4.85455 5.81793 4.60995 6.09608 4.5128 6.32775C4.44851 6.4822 4.41811 6.61673 4.41776 6.77293C4.42824 7.07135 4.55473 7.3495 4.77767 7.55951L10.6642 13.0299C10.8882 13.2378 11.2139 13.3042 11.6325 13.227C11.9561 13.1672 12.3066 12.9226 12.4953 12.7206L13.365 11.7894C13.423 11.7268 13.4999 11.6772 13.5865 11.6458C13.7312 11.5941 13.8961 11.5965 14.0387 11.6524C14.1219 11.6849 14.1911 11.7391 14.2138 11.7569C14.2354 11.7737 14.2529 11.7859 14.2686 11.7957C14.5108 11.9833 16.6836 13.691 16.8013 13.7902C16.8017 13.7909 16.853 13.8486 16.9254 14.0418C16.9355 14.0691 16.9516 14.1495 16.9516 14.2498C16.9516 14.3221 16.9435 14.3693 16.9383 14.3864C16.8838 14.5737 16.8387 14.6394 16.8387 14.6408C16.8048 14.6747 16.7342 14.733 16.7223 14.7432C16.1077 15.2809 15.1614 15.999 14.1414 16.3645C13.7382 16.5092 13.3538 16.5868 12.9974 16.5955C11.0828 16.6476 7.91628 14.3546 5.78684 12.3757C3.65704 10.3973 1.13938 7.40646 1.05132 5.49191C0.987023 4.11165 1.88472 2.62621 2.62377 1.6457L2.65207 1.60796C2.66849 1.5856 2.6982 1.54367 2.71357 1.5255C2.73978 1.50069 2.77892 1.47658 2.81001 1.45701C2.85649 1.43325 3.00081 1.3997 3.09096 1.40424C3.40056 1.41927 3.54382 1.47483 3.55536 1.47902Z" fill="#00FFB7"/>
</svg>
