<svg width="55" height="55" viewBox="0 0 55 55" fill="none" xmlns="http://www.w3.org/2000/svg">
<path d="M33.9997 53.3887H1.61122V4.95107H12.496V6.5377H3.93669C3.49175 6.5377 3.13113 6.89842 3.13113 7.34336V50.9964C3.13113 51.4413 3.49186 51.8021 3.93669 51.8021H7.36946C7.8144 51.8021 8.17502 51.4413 8.17502 50.9964C8.17502 50.5514 7.8143 50.1907 7.36946 50.1907H4.74225V8.14902H12.496V8.90001C12.496 9.34495 12.8567 9.70567 13.3015 9.70567H30.4876C30.9326 9.70567 31.2932 9.34495 31.2932 8.90001V8.14902H39.0468V29.2774C39.0468 29.7223 39.4074 30.0831 39.8523 30.0831C40.2973 30.0831 40.6579 29.7223 40.6579 29.2774V7.34336C40.6579 6.89842 40.2973 6.5377 39.8523 6.5377H31.2932V4.95107H42.1778V19.2761C42.1778 19.721 42.5384 20.0818 42.9834 20.0818C43.4283 20.0818 43.7889 19.721 43.7889 19.2761V4.14541C43.7889 3.70047 43.4283 3.33975 42.9834 3.33975H26.657L25.7626 0.559023C25.6555 0.225908 25.3457 0 24.9957 0H18.7935C18.4435 0 18.1337 0.225908 18.0266 0.559023L17.1322 3.33975H0.805664C0.360723 3.33975 0 3.70047 0 4.14541V54.1943C0 54.6393 0.360723 55 0.805557 55H33.9996C34.4445 55 34.8051 54.6393 34.8051 54.1943C34.8051 53.7494 34.4446 53.3887 33.9997 53.3887ZM17.7193 4.95107C18.0693 4.95107 18.3791 4.72517 18.4862 4.39205L19.3806 1.61133H24.4086L25.303 4.39205C25.4101 4.72517 25.72 4.95107 26.0699 4.95107H29.6822V8.09435H14.1072V4.95107H17.7193Z" fill="#00FFB7"/>
<path d="M42.9836 22.2274C42.5386 22.2274 42.178 22.5881 42.178 23.0331V28.7892C42.178 29.2341 42.5386 29.5949 42.9836 29.5949C43.4285 29.5949 43.7891 29.2341 43.7891 28.7892V23.0331C43.7891 22.5881 43.4285 22.2274 42.9836 22.2274Z" fill="#00FFB7"/>
<path d="M11.0567 51.8021H31.2397C31.6846 51.8021 32.0452 51.4413 32.0452 50.9964C32.0452 50.5515 31.6846 50.1907 31.2397 50.1907H11.0567C10.6118 50.1907 10.2511 50.5515 10.2511 50.9964C10.2511 51.4413 10.6118 51.8021 11.0567 51.8021Z" fill="#00FFB7"/>
<path d="M43.0925 31.1833C36.5268 31.1833 31.1851 36.5254 31.1851 43.0917C31.1851 45.074 31.6823 47.037 32.6226 48.7685C32.8349 49.1595 33.324 49.3042 33.7151 49.0918C34.106 48.8794 34.2508 48.3903 34.0384 47.9993C33.2258 46.5033 32.7962 44.8062 32.7962 43.0917C32.7962 37.4139 37.4151 32.7946 43.0924 32.7946C48.7697 32.7946 53.3887 37.4139 53.3887 43.0917C53.3888 48.7695 48.77 53.3887 43.0925 53.3887C40.432 53.3887 37.9075 52.3772 35.984 50.5407C35.6622 50.2335 35.1522 50.2453 34.845 50.5671C34.5377 50.889 34.5496 51.3989 34.8714 51.7062C37.0961 53.8303 40.0157 55 43.0925 55C49.6583 55 55 49.658 55 43.0917C55 36.5254 49.6583 31.1833 43.0925 31.1833Z" fill="#00FFB7"/>
<path d="M48.6952 37.5612C48.9785 37.218 48.9298 36.7102 48.5866 36.4269C47.0453 35.1548 45.0942 34.4542 43.0926 34.4542C38.3304 34.4542 34.456 38.3289 34.456 43.0916C34.456 47.8542 38.3304 51.729 43.0926 51.729C47.8548 51.729 51.7293 47.8542 51.7293 43.0916C51.7293 41.8954 51.4892 40.7371 51.0156 39.6487C50.838 39.2406 50.3635 39.0537 49.9556 39.2314C49.5475 39.4088 49.3607 39.8835 49.5383 40.2915C49.9231 41.1759 50.1182 42.118 50.1182 43.0916C50.1182 46.9658 46.9666 50.1176 43.0927 50.1176C39.2189 50.1176 36.0673 46.9658 36.0673 43.0916C36.0673 39.2174 39.219 36.0656 43.0927 36.0656C44.721 36.0656 46.3079 36.6352 47.5612 37.6697C47.9042 37.953 48.4121 37.9044 48.6952 37.5612Z" fill="#00FFB7"/>
<path d="M45.9955 40.576L42.1099 44.4619L40.1897 42.5415C39.8752 42.2269 39.3652 42.2269 39.0503 42.5415C38.7358 42.8562 38.7358 43.3663 39.0503 43.6808L41.5401 46.1709C41.6913 46.322 41.8961 46.4069 42.1098 46.4069C42.3235 46.4069 42.5283 46.322 42.6795 46.1709L47.1347 41.7152C47.4492 41.4006 47.4492 40.8904 47.1347 40.5759C46.8201 40.2614 46.3101 40.2614 45.9955 40.576Z" fill="#00FFB7"/>
<path d="M10.647 17.1293C11.9797 17.1293 13.0638 16.0451 13.0638 14.7123C13.0638 13.3795 11.9797 12.2953 10.647 12.2953C9.31434 12.2953 8.23024 13.3795 8.23024 14.7123C8.23024 16.0451 9.31434 17.1293 10.647 17.1293ZM10.647 13.9066C11.0912 13.9066 11.4526 14.268 11.4526 14.7123C11.4526 15.1566 11.0912 15.5179 10.647 15.5179C10.2028 15.5179 9.84146 15.1566 9.84146 14.7123C9.84146 14.268 10.2027 13.9066 10.647 13.9066Z" fill="#00FFB7"/>
<path d="M34.7535 13.7893H15.9191C15.4741 13.7893 15.1135 14.15 15.1135 14.595C15.1135 15.0399 15.4741 15.4006 15.9191 15.4006H34.7535C35.1984 15.4006 35.559 15.0399 35.559 14.595C35.559 14.15 35.1984 13.7893 34.7535 13.7893Z" fill="#00FFB7"/>
<path d="M10.647 24.5145C11.9797 24.5145 13.0638 23.4303 13.0638 22.0975C13.0638 20.7648 11.9797 19.6805 10.647 19.6805C9.31434 19.6805 8.23024 20.7648 8.23024 22.0975C8.23024 23.4303 9.31434 24.5145 10.647 24.5145ZM10.647 21.2919C11.0912 21.2919 11.4526 21.6532 11.4526 22.0975C11.4526 22.5418 11.0912 22.9032 10.647 22.9032C10.2028 22.9032 9.84146 22.5418 9.84146 22.0975C9.84146 21.6532 10.2027 21.2919 10.647 21.2919Z" fill="#00FFB7"/>
<path d="M34.7535 21.1746H15.9191C15.4741 21.1746 15.1135 21.5353 15.1135 21.9802C15.1135 22.4252 15.4741 22.7859 15.9191 22.7859H34.7535C35.1984 22.7859 35.559 22.4252 35.559 21.9802C35.559 21.5353 35.1984 21.1746 34.7535 21.1746Z" fill="#00FFB7"/>
<path d="M10.647 31.8998C11.9797 31.8998 13.0638 30.8156 13.0638 29.4828C13.0638 28.15 11.9797 27.0658 10.647 27.0658C9.31434 27.0658 8.23024 28.15 8.23024 29.4828C8.23024 30.8156 9.31434 31.8998 10.647 31.8998ZM10.647 28.6771C11.0912 28.6771 11.4526 29.0385 11.4526 29.4828C11.4526 29.9271 11.0912 30.2885 10.647 30.2885C10.2028 30.2885 9.84146 29.9271 9.84146 29.4828C9.84146 29.0385 10.2027 28.6771 10.647 28.6771Z" fill="#00FFB7"/>
<path d="M35.559 29.3655C35.559 28.9206 35.1984 28.5599 34.7535 28.5599H15.9191C15.4741 28.5599 15.1135 28.9206 15.1135 29.3655C15.1135 29.8105 15.4741 30.1712 15.9191 30.1712H34.7535C35.1984 30.1712 35.559 29.8105 35.559 29.3655Z" fill="#00FFB7"/>
<path d="M10.647 39.285C11.9797 39.285 13.0638 38.2008 13.0638 36.868C13.0638 35.5353 11.9797 34.451 10.647 34.451C9.31434 34.451 8.23024 35.5353 8.23024 36.868C8.23024 38.2008 9.31434 39.285 10.647 39.285ZM10.647 36.0624C11.0912 36.0624 11.4526 36.4237 11.4526 36.868C11.4526 37.3123 11.0912 37.6737 10.647 37.6737C10.2028 37.6737 9.84146 37.3123 9.84146 36.868C9.84146 36.4237 10.2027 36.0624 10.647 36.0624Z" fill="#00FFB7"/>
<path d="M29.3828 35.9451H15.9191C15.4741 35.9451 15.1135 36.3059 15.1135 36.7508C15.1135 37.1957 15.4741 37.5565 15.9191 37.5565H29.3828C29.8277 37.5565 30.1883 37.1957 30.1883 36.7508C30.1883 36.3059 29.8277 35.9451 29.3828 35.9451Z" fill="#00FFB7"/>
<path d="M10.647 46.6703C11.9797 46.6703 13.0638 45.5861 13.0638 44.2533C13.0638 42.9205 11.9797 41.8363 10.647 41.8363C9.31434 41.8363 8.23024 42.9205 8.23024 44.2533C8.23024 45.5861 9.31434 46.6703 10.647 46.6703ZM10.647 43.4476C11.0912 43.4476 11.4526 43.809 11.4526 44.2533C11.4526 44.6976 11.0912 45.059 10.647 45.059C10.2028 45.059 9.84146 44.6976 9.84146 44.2533C9.84146 43.809 10.2027 43.4476 10.647 43.4476Z" fill="#00FFB7"/>
<path d="M28.3086 44.9417C28.7535 44.9417 29.1141 44.581 29.1141 44.136C29.1141 43.6911 28.7535 43.3304 28.3086 43.3304H15.9191C15.4741 43.3304 15.1135 43.6911 15.1135 44.136C15.1135 44.581 15.4741 44.9417 15.9191 44.9417H28.3086Z" fill="#00FFB7"/>
</svg>
