<svg width="51" height="51" fill="none" xmlns="http://www.w3.org/2000/svg"><g clip-path="url(#clip0)" fill="#fff"><path d="M36.505 39.183a.977.977 0 100 1.954.977.977 0 000-1.954z"/><path d="M38.91 36.025l-4.642-1.547-1.666-3.332a10.696 10.696 0 002.894-5.659l.208-1.245h1.777a2.933 2.933 0 002.93-2.93V15.16C40.411 7.083 33.84.51 25.763.51c-8.098 0-14.649 6.553-14.649 14.649v6.152c0 1.273.817 2.359 1.953 2.762v1.144a2.933 2.933 0 002.93 2.93h.858a10.593 10.593 0 002.068 3l-1.665 3.33-4.642 1.547c-5.397 1.8-9.314 7.481-9.314 13.51 0 .539.437.976.976.976h42.97a.977.977 0 00.976-.976c0-6.029-3.917-11.71-9.315-13.51zm-.452-14.713a.978.978 0 01-.977.977h-1.49a63.73 63.73 0 00.48-5.985l.006-.168h1.981v5.176zm-24.414.977a.978.978 0 01-.977-.977v-5.176h1.983l.01.308v.01a63.44 63.44 0 00.475 5.834h-1.491zm1.953 3.906a.978.978 0 01-.976-.977v-.976h.8l.208 1.246c.04.236.088.472.145.707h-.177zm-.975-12.012h-1.918c.496-6.545 5.957-11.719 12.66-11.719 6.671 0 12.157 5.173 12.658 11.72h-1.918c-.07-5.394-4.462-9.767-9.866-9.767H24.89c-5.404 0-9.797 4.373-9.867 9.766zm9.867-7.812h1.748c4.376 0 7.917 3.579 7.915 7.95 0 .307-.003.575-.008.818v.01l-1.221-.175a15.692 15.692 0 01-8.823-4.411.977.977 0 00-.69-.286 8.835 8.835 0 00-6.793 3.214c.409-3.977 3.77-7.12 7.872-7.12zm-6.69 19.824c-.49-1.626-1.049-6.412-1.173-9.478l1.315-1.752a6.874 6.874 0 015.083-2.724 17.663 17.663 0 009.622 4.667l1.438.205a60.122 60.122 0 01-.574 5.97c-.09.606-.16.995-.34 2.083-.517 3.102-2.832 5.907-5.887 6.671a7.942 7.942 0 01-3.84 0c-1.908-.477-3.657-1.797-4.786-3.69h1.99a2.934 2.934 0 002.763 1.954h1.953a2.929 2.929 0 100-5.86H23.81a2.932 2.932 0 00-2.764 1.954h-2.848zm5.528 7.619a9.866 9.866 0 003.632.082l-1.725 1.824-1.907-1.906zm.564 3.326l-3.097 3.276a37.212 37.212 0 01-2.186-5.07l1.163-2.327 4.12 4.121zm6.898-4.452l1.329 2.657a37.212 37.212 0 01-2.187 5.072l-3.315-3.315 4.173-4.414zm-8.356-5.517c0-.539.437-.976.977-.976h1.953a.978.978 0 010 1.953H23.81a.978.978 0 01-.977-.977zM5.293 48.558c.388-4.838 3.608-9.235 7.94-10.68l4.111-1.37a39.163 39.163 0 002.78 6.03l.005.01a39.16 39.16 0 002.673 4.081l1.202 1.93H5.294zm20.47-.87l-1.325-2.127a1.024 1.024 0 00-.047-.07 37.247 37.247 0 01-2.2-3.286l3.482-3.683 3.67 3.67a37.206 37.206 0 01-2.208 3.3c-.048.064.02-.037-1.372 2.196zm1.758.87l1.202-1.928a39.153 39.153 0 002.692-4.115l.014-.026.002-.003a39.118 39.118 0 002.75-5.978l4.11 1.37c4.334 1.445 7.553 5.842 7.94 10.68h-18.71z"/><path d="M43.297 44.606a9.764 9.764 0 00-2.765-3.356.976.976 0 10-1.19 1.548 7.8 7.8 0 012.207 2.68.977.977 0 001.748-.872z"/></g><defs><clipPath id="clip0"><path fill="#fff" transform="translate(.763 .511)" d="M0 0h50v50H0z"/></clipPath></defs></svg>