<svg width="49" height="50" fill="none" xmlns="http://www.w3.org/2000/svg"><g clip-path="url(#clip0)" fill="#fff"><path d="M39.763 34.076a.948.948 0 00-.938.957c0 .528.42.957.938.957a.948.948 0 00.937-.957.948.948 0 00-.937-.957zm-15 0a.948.948 0 00-.938.957c0 .528.42.957.938.957a.948.948 0 00.937-.957.948.948 0 00-.937-.957zM7.888 10.533a.948.948 0 00-.938.957c0 .528.42.957.938.957a.948.948 0 00.937-.957.948.948 0 00-.937-.957z"/><path d="M43.395 29.23c-1.535-2.637-3.434-4.715-5.492-6.044a2.883 2.883 0 00.923-2.126c0-.374-.072-.73-.2-1.058 1.194-.332 2.074-1.448 2.074-2.77 0-.714-.254-1.388-.718-1.915a2.893 2.893 0 00.718-1.913 2.88 2.88 0 00-.717-1.914 2.88 2.88 0 00.717-1.914c0-1.583-1.262-2.871-2.812-2.871H35.78l1.146-5.148a.972.972 0 00-.182-.809.93.93 0 00-.732-.36h-7.5a.93.93 0 00-.733.36.973.973 0 00-.181.81l.334 1.501-2.2 1.123A10.501 10.501 0 0023 6.192a7.989 7.989 0 01-4.8 2.37v-.9a.947.947 0 00-.938-.957H4.138a.947.947 0 00-.938.957v15.312c0 .529.42.957.938.957h13.125a.947.947 0 00.937-.957v-.957h.345c1.536 0 3.054.252 4.512.747.99.337 1.999.602 3.022.794-1.848 1.33-3.55 3.269-4.948 5.672-1.835 3.151-2.93 6.752-2.93 9.63 0 3.22 1.354 5.909 3.918 7.778 2.467 1.8 5.975 2.75 10.144 2.75 4.169 0 7.676-.95 10.143-2.75 2.564-1.87 3.92-4.559 3.92-7.777 0-2.88-1.096-6.48-2.931-9.631zm-27.07-18.697h-4.687a.947.947 0 00-.938.957c0 .528.42.957.938.957h4.687v9.57H5.075V8.62h11.25v1.914zm18.513-8.23l-.98 4.402h-3.19l-.98-4.403h5.15zM23.65 20.947a15.825 15.825 0 00-5.105-.845H18.2v-9.615c2.315-.218 4.463-1.243 6.127-2.942a8.631 8.631 0 012.244-1.652l1.79-.913.383 1.724h-.231a.947.947 0 00-.938.957c0 .528.42.957.938.957h9.375c.517 0 .937.429.937.957a.96.96 0 01-.275.676.921.921 0 01-.662.28h-3.75a.947.947 0 00-.938.958c0 .528.42.957.938.957h3.75c.517 0 .937.428.937.957 0 .527-.42.957-.937.957h-3.75a.947.947 0 00-.938.957c0 .528.42.957.938.957h3.75c.517 0 .937.429.937.957s-.42.957-.937.957h-3.75a.947.947 0 00-.938.957c0 .529.42.957.938.957h1.875c.517 0 .937.43.937.957 0 .529-.42.957-.937.957h-5.914a19.967 19.967 0 01-6.449-1.069zM41.316 45.08c-2.147 1.566-5.278 2.393-9.053 2.393-3.776 0-6.907-.827-9.054-2.393-2.05-1.495-3.134-3.646-3.134-6.22 0-2.55.997-5.785 2.667-8.654 1.823-3.13 4.167-5.358 6.613-6.29.252.008.502.014.744.014h5.11c2.431.94 4.76 3.162 6.574 6.276 1.67 2.87 2.667 6.104 2.667 8.654 0 2.574-1.084 4.725-3.134 6.22z"/><path d="M32.748 34.255c-1.397-.754-2.313-1.302-2.313-2.025 0-1.056.84-1.914 1.875-1.914 1.033 0 1.875.858 1.875 1.914 0 .528.42.957.937.957a.947.947 0 00.938-.957c0-1.78-1.197-3.281-2.813-3.707v-1.078a.947.947 0 00-.937-.958.947.947 0 00-.938.958v1.078c-1.616.426-2.812 1.926-2.812 3.707 0 1.93 1.76 2.88 3.312 3.717 1.397.754 2.313 1.302 2.313 2.025 0 1.055-.842 1.914-1.875 1.914-1.034 0-1.875-.859-1.875-1.914a.947.947 0 00-.938-.957.947.947 0 00-.937.957c0 1.78 1.197 3.28 2.812 3.707v1.078c0 .529.42.957.938.957a.947.947 0 00.937-.957v-1.078c1.616-.426 2.813-1.927 2.813-3.707 0-1.93-1.76-2.88-3.312-3.717z"/></g><defs><clipPath id="clip0"><path fill="#fff" transform="translate(.763 .388)" d="M0 0h48v49H0z"/></clipPath></defs></svg>