<svg width="50" height="50" fill="none" xmlns="http://www.w3.org/2000/svg"><g clip-path="url(#clip0)" fill="#fff"><path d="M15.61 35.646a.957.957 0 10.001 1.915.957.957 0 000-1.915z"/><path d="M43.76 18.42l5.64-5.64a.957.957 0 00-.394-1.591L35.273 6.95A9.55 9.55 0 0026.138.236 9.573 9.573 0 0017.26 6.23L1.353 11.19a.957.957 0 00-.392 1.59l5.788 5.788-3.65 6.085a.957.957 0 00.517 1.4l5.295 1.765v14.719c0 .399.248.756.621.896l15.33 5.748c.19.067.404.076.613.009l.008-.003 17.227-5.742a.957.957 0 00.654-.908V27.424l5.647-1.775a.957.957 0 00.39-1.59l-5.64-5.64zm-8.052-8.613c0-.244-.01-.486-.029-.728l11.245 3.47-4.775 4.776-7.803-2.6a9.598 9.598 0 001.362-4.918zM18.895 7.316a7.659 7.659 0 017.243-5.166 7.64 7.64 0 017.656 7.657c0 1.777-.59 3.443-1.706 4.819a7.63 7.63 0 01-5.95 2.837 7.663 7.663 0 01-6.291-3.293 7.6 7.6 0 01-1.366-4.363c0-.855.14-1.693.414-2.491zm-15.461 5.23l13.235-4.127a9.512 9.512 0 00.959 5.768l-9.415 3.138-4.78-4.78zm1.92 12.068l3.026-5.043 15.366 5.122-3.026 5.043-15.366-5.122zm18.87 22.284l-13.399-5.024V28.456c10.542 3.495 10.027 3.388 10.32 3.388.33 0 .645-.17.821-.464l2.258-3.763v19.281zm.957-23.745l-14.2-4.733 7.732-2.577a9.576 9.576 0 007.425 3.534c2.674 0 5.187-1.1 6.995-3.04l6.248 2.083-14.2 4.733zm16.27 18.694l-15.313 5.104v-20.06l3.392 4.24a.957.957 0 001.035.315l10.885-3.42v13.821zM30.615 29.424l-3.83-4.788 15.363-5.121 4.781 4.782-16.314 5.127z"/><path d="M21.688 37.77l-2.128-.798a.957.957 0 00-.672 1.792l2.128.798a.957.957 0 00.672-1.792zm0 4.088l-5.742-2.153a.957.957 0 00-.672 1.792l5.742 2.154a.953.953 0 001.233-.56.957.957 0 00-.56-1.233zm9.912-35.6a.957.957 0 00-1.354 0l-5.066 5.066-1.237-1.238a.957.957 0 00-1.354 1.354l1.915 1.914a.957.957 0 001.353 0L31.6 7.612a.957.957 0 000-1.354z"/></g><defs><clipPath id="clip0"><path fill="#fff" transform="translate(.68 .235)" d="M0 0h49v49H0z"/></clipPath></defs></svg>