<svg width="112" height="110" viewBox="0 0 112 110" fill="none" xmlns="http://www.w3.org/2000/svg">
<path d="M82.0095 100.819L90.384 72.6694C90.5808 71.9557 90.6109 71.2064 90.4719 70.4792C90.333 69.7521 90.0287 69.0666 89.5826 68.4758C89.1366 67.885 88.5606 67.4046 87.8994 67.0719C87.2381 66.7391 86.5091 66.5628 85.7689 66.5566H8.04536C7.30508 66.5628 6.57614 66.7391 5.91484 67.0719C5.25355 67.4046 4.67761 67.885 4.23154 68.4758C3.78548 69.0666 3.48122 69.7521 3.34228 70.4792C3.20334 71.2064 3.23344 71.9557 3.43026 72.6694L11.8047 100.849H47.0446" stroke="#FF6F3B" stroke-width="2" stroke-miterlimit="10"/>
<path d="M5.90684 94.9236L1.44454 103.359C1.14031 103.917 0.987331 104.544 1.00082 105.179C1.01431 105.814 1.19379 106.434 1.52142 106.978C1.84906 107.522 2.31344 107.971 2.86833 108.28C3.42323 108.589 4.0493 108.747 4.68429 108.738H89.1318C89.7668 108.747 90.3928 108.589 90.9477 108.28C91.5026 107.971 91.967 107.522 92.2947 106.978C92.6223 106.434 92.8018 105.814 92.8153 105.179C92.8287 104.544 92.6757 103.917 92.3715 103.359L87.9092 94.9236" stroke="#FF6F3B" stroke-width="2" stroke-miterlimit="10"/>
<path d="M77.9449 30.8607L70.9458 37.6764V8.24358C70.9458 6.32246 71.709 4.48003 73.0674 3.12159C74.4258 1.76315 76.2683 1 78.1894 1H102.946C104.867 1 106.71 1.76315 108.068 3.12159C109.426 4.48003 110.19 6.32246 110.19 8.24358V23.5254C110.19 25.4465 109.426 27.289 108.068 28.6474C106.71 30.0059 104.867 30.769 102.946 30.769L77.9449 30.8607Z" stroke="#FF6F3B" stroke-width="2" stroke-miterlimit="10"/>
<path d="M56.3057 39.6643L67.278 49.0474C68.8339 50.3812 70.0821 52.0364 70.9369 53.8989C71.7917 55.7614 72.2326 57.7871 72.2293 59.8364V66.1631" stroke="#FF6F3B" stroke-width="2" stroke-miterlimit="10"/>
<path d="M37.7846 39.6643L26.6288 49.0474C25.0428 50.3811 23.7691 52.0469 22.8977 53.9271C22.0263 55.8072 21.5784 57.8558 21.5858 59.9281V66.0408" stroke="#FF6F3B" stroke-width="2" stroke-miterlimit="10"/>
<path d="M47.0458 43.5155C55.3169 43.5155 62.022 35.5242 62.022 25.6663C62.022 15.8085 55.3169 7.81714 47.0458 7.81714C38.7747 7.81714 32.0696 15.8085 32.0696 25.6663C32.0696 35.5242 38.7747 43.5155 47.0458 43.5155Z" stroke="#FF6F3B" stroke-width="2" stroke-miterlimit="10"/>
</svg>
