<svg width="111" height="120" viewBox="0 0 111 120" fill="none" xmlns="http://www.w3.org/2000/svg">
<path d="M33.6724 33.9477L25.9704 41.4358V9.00767C25.9663 7.95753 26.1697 6.91697 26.5688 5.94561C26.9679 4.97425 27.5548 4.0912 28.296 3.34721C29.0371 2.60323 29.9179 2.01299 30.8877 1.61019C31.8575 1.20739 32.8973 0.999992 33.9475 1H61.2714C62.3216 0.999992 63.3614 1.20739 64.3312 1.61019C65.301 2.01299 66.1818 2.60323 66.9229 3.34721C67.6641 4.0912 68.251 4.97425 68.6501 5.94561C69.0492 6.91697 69.2526 7.95753 69.2486 9.00767V25.94C69.2526 26.9901 69.0492 28.0307 68.6501 29.002C68.251 29.9734 67.6641 30.8565 66.9229 31.6004C66.1818 32.3444 65.301 32.9348 64.3312 33.3376C63.3614 33.7404 62.3216 33.9477 61.2714 33.9477H33.6724Z" stroke="#FF6F3B" stroke-width="2" stroke-miterlimit="10"/>
<path d="M30.5549 55.7102L36.3008 60.4476C37.1719 61.1572 37.8736 62.0522 38.3547 63.0674C38.8359 64.0826 39.0844 65.1924 39.0822 66.3158V78.5719C39.0822 80.3876 38.3608 82.129 37.0769 83.4129C35.793 84.6969 34.0516 85.4181 32.2359 85.4181" stroke="#FF6F3B" stroke-width="2" stroke-miterlimit="10"/>
<path d="M9.55784 55.7102L3.78131 60.4476C2.91517 61.1615 2.21691 62.0574 1.7362 63.0716C1.2555 64.0858 1.00415 65.1934 1 66.3158V78.5719C1 80.3876 1.72131 82.129 3.00523 83.4129C4.28915 84.6969 6.03054 85.4181 7.84628 85.4181" stroke="#FF6F3B" stroke-width="2" stroke-miterlimit="10"/>
<path d="M31.9297 68.1746V112.645C31.9297 114.266 31.2857 115.821 30.1394 116.967C28.993 118.113 27.4382 118.757 25.817 118.757H23.9526" stroke="#FF6F3B" stroke-width="2" stroke-miterlimit="10"/>
<path d="M8.21246 68.1746V112.645C8.18789 113.439 8.32313 114.229 8.61008 114.97C8.89704 115.711 9.32988 116.386 9.88293 116.956C10.436 117.527 11.098 117.98 11.8296 118.289C12.5612 118.599 13.3475 118.758 14.1418 118.757V118.757C15.763 118.757 17.3178 118.113 18.4642 116.967C19.6105 115.821 20.2546 114.266 20.2546 112.645V89.0495" stroke="#FF6F3B" stroke-width="2" stroke-miterlimit="10"/>
<path d="M31.3182 45.7763C30.5791 47.843 29.2866 49.6668 27.5816 51.049C25.8766 52.4311 23.8248 53.3184 21.6499 53.6139C19.4751 53.9094 17.2609 53.6018 15.249 52.7247C13.2371 51.8476 11.5048 50.4347 10.2411 48.6402C8.97738 46.8457 8.23089 44.7385 8.0831 42.5487C7.93532 40.3589 8.3919 38.1705 9.40301 36.2225C10.4141 34.2744 11.9409 32.6417 13.8167 31.5022C15.6926 30.3627 17.8453 29.7604 20.0401 29.761" stroke="#FF6F3B" stroke-width="2" stroke-miterlimit="10"/>
<path d="M101.126 55.7102L106.872 60.4476C107.743 61.1572 108.445 62.0522 108.926 63.0674C109.407 64.0826 109.656 65.1924 109.653 66.3158V78.5719C109.653 80.3876 108.932 82.129 107.648 83.4129C106.364 84.6969 104.623 85.4181 102.807 85.4181V85.4181" stroke="#FF6F3B" stroke-width="2" stroke-miterlimit="10"/>
<path d="M80.129 55.7102L74.3524 60.4476C73.4863 61.1615 72.788 62.0574 72.3073 63.0716C71.8266 64.0858 71.5753 65.1934 71.5711 66.3158V78.5719C71.5711 80.3876 72.2924 82.129 73.5763 83.4129C74.8603 84.6969 76.6016 85.4181 78.4174 85.4181" stroke="#FF6F3B" stroke-width="2" stroke-miterlimit="10"/>
<path d="M102.501 68.1746V112.645C102.501 114.266 101.857 115.821 100.71 116.967C99.5641 118.113 98.0093 118.757 96.3881 118.757H94.5237" stroke="#FF6F3B" stroke-width="2" stroke-miterlimit="10"/>
<path d="M78.7539 68.1746V112.645C78.7539 114.266 79.3979 115.821 80.5442 116.967C81.6906 118.113 83.2454 118.757 84.8666 118.757C85.6609 118.758 86.4472 118.599 87.1788 118.289C87.9104 117.98 88.5724 117.527 89.1255 116.956C89.6785 116.386 90.1114 115.711 90.3983 114.97C90.6853 114.229 90.8205 113.439 90.796 112.645V89.0495" stroke="#FF6F3B" stroke-width="2" stroke-miterlimit="10"/>
<path d="M90.6117 53.6916C97.2118 53.6916 102.562 48.3412 102.562 41.7412C102.562 35.1411 97.2118 29.7908 90.6117 29.7908C84.0117 29.7908 78.6613 35.1411 78.6613 41.7412C78.6613 48.3412 84.0117 53.6916 90.6117 53.6916Z" stroke="#FF6F3B" stroke-width="2" stroke-miterlimit="10"/>
</svg>
