<svg width="102" height="107" viewBox="0 0 102 107" fill="none" xmlns="http://www.w3.org/2000/svg">
<path d="M7.38733 60.5075V7.47949C7.38733 5.76102 8.06997 4.11297 9.28511 2.89783C10.5003 1.68268 12.1483 1 13.8668 1H87.8921C89.6106 1 91.2587 1.68268 92.4738 2.89783C93.6889 4.11297 94.3716 5.76102 94.3716 7.47949V60.5075" stroke="#FF6F3B" stroke-width="2" stroke-miterlimit="10"/>
<path d="M76.9505 18.9133C76.6442 20.3958 75.924 21.7611 74.8734 22.851C73.8227 23.9409 72.4846 24.7106 71.0143 25.0709C69.544 25.4312 68.0016 25.3674 66.5661 24.8868C65.1306 24.4062 63.8607 23.5285 62.9037 22.3555C61.9467 21.1826 61.3418 19.7624 61.1592 18.2596C60.9765 16.7569 61.2235 15.233 61.8717 13.865C62.5198 12.4969 63.5425 11.3406 64.8211 10.5301C66.0996 9.71959 67.5817 9.28805 69.0956 9.28564C71.4056 9.5402 73.5233 10.6919 74.9925 12.4926C76.4617 14.2934 77.1648 16.5992 76.9505 18.9133V18.9133Z" stroke="#FF6F3B" stroke-width="2" stroke-miterlimit="10"/>
<path d="M86.7305 41.1349L81.1067 35.9085L77.4391 32.6382" stroke="#FF6F3B" stroke-width="2" stroke-miterlimit="10"/>
<path d="M78.5098 60.5108V44.8622L78.4793 41.8669L86.2425 48.7438" stroke="#FF6F3B" stroke-width="2" stroke-miterlimit="10"/>
<path d="M61.669 32.6083L51.4912 24.4479C50.8552 23.9149 50.0404 23.6436 49.2118 23.689C48.3833 23.7344 47.6029 24.093 47.029 24.6923C46.7304 25.004 46.5013 25.3755 46.3567 25.7821C46.212 26.1888 46.1551 26.6214 46.1898 27.0517C46.2244 27.4819 46.3498 27.8999 46.5577 28.2782C46.7655 28.6565 47.0512 28.9865 47.3957 29.2464L56.8704 36.8261C57.6825 37.4744 58.3378 38.2975 58.7876 39.2341C59.2374 40.1708 59.4701 41.1969 59.4684 42.2359V60.5742" stroke="#FF6F3B" stroke-width="2" stroke-miterlimit="10"/>
<path d="M23.8004 89.1812L31.0134 95.2939C32.0286 96.1758 32.843 97.265 33.4018 98.4881C33.9607 99.7112 34.2509 101.04 34.2532 102.385V106.541" stroke="#FF6F3B" stroke-width="2" stroke-miterlimit="10"/>
<path d="M11.6669 89.1812L4.33162 95.2939C3.28302 96.1596 2.44009 97.2477 1.86389 98.4794C1.2877 99.711 0.99264 101.055 1.00014 102.415V106.541" stroke="#FF6F3B" stroke-width="2" stroke-miterlimit="10"/>
<path d="M17.7176 91.6877C23.1361 91.6877 27.5286 86.4468 27.5286 79.9818C27.5286 73.5168 23.1361 68.2759 17.7176 68.2759C12.2992 68.2759 7.90668 73.5168 7.90668 79.9818C7.90668 86.4468 12.2992 91.6877 17.7176 91.6877Z" stroke="#FF6F3B" stroke-width="2" stroke-miterlimit="10"/>
<path d="M57.0533 89.1812L64.2664 95.2939C65.2815 96.1758 66.0959 97.265 66.6547 98.4881C67.2136 99.7112 67.5039 101.04 67.5061 102.385V106.541" stroke="#FF6F3B" stroke-width="2" stroke-miterlimit="10"/>
<path d="M44.9198 89.1812L37.5845 95.2939C36.5359 96.1596 35.693 97.2477 35.1168 98.4794C34.5406 99.711 34.2456 101.055 34.2531 102.415" stroke="#FF6F3B" stroke-width="2" stroke-miterlimit="10"/>
<path d="M50.972 91.6877C56.3905 91.6877 60.783 86.4468 60.783 79.9818C60.783 73.5168 56.3905 68.2759 50.972 68.2759C45.5536 68.2759 41.1611 73.5168 41.1611 79.9818C41.1611 86.4468 45.5536 91.6877 50.972 91.6877Z" stroke="#FF6F3B" stroke-width="2" stroke-miterlimit="10"/>
<path d="M90.3078 89.1812L97.4903 95.2939C98.5157 96.169 99.3391 97.2562 99.9036 98.4804C100.468 99.7045 100.761 101.037 100.761 102.385V106.541" stroke="#FF6F3B" stroke-width="2" stroke-miterlimit="10"/>
<path d="M78.1422 89.1812L70.8375 95.2939C69.7889 96.1596 68.9459 97.2477 68.3697 98.4794C67.7935 99.711 67.4985 101.055 67.506 102.415" stroke="#FF6F3B" stroke-width="2" stroke-miterlimit="10"/>
<path d="M84.225 91.6877C89.6435 91.6877 94.036 86.4468 94.036 79.9818C94.036 73.5168 89.6435 68.2759 84.225 68.2759C78.8066 68.2759 74.4141 73.5168 74.4141 79.9818C74.4141 86.4468 78.8066 91.6877 84.225 91.6877Z" stroke="#FF6F3B" stroke-width="2" stroke-miterlimit="10"/>
<path d="M37.1576 60.5133V23.6841H27.7134V60.5133" stroke="#FF6F3B" stroke-width="2" stroke-miterlimit="10"/>
<path d="M37.1571 44.5891H46.968V60.5128" stroke="#FF6F3B" stroke-width="2" stroke-miterlimit="10"/>
<path d="M27.7125 36.1184H16.8624V60.5082" stroke="#FF6F3B" stroke-width="2" stroke-miterlimit="10"/>
</svg>
