<svg width="49" height="49" fill="none" xmlns="http://www.w3.org/2000/svg"><g clip-path="url(#clip0)" fill="#D7A781"><path d="M18.815 14.164h5.176c.91-1.888-.467-4.115-2.588-4.115-2.118 0-3.501 2.223-2.588 4.115z"/><path d="M21.403 7.178c3.657 0 6.4 3.392 5.606 6.986h7.313v-3.158a.957.957 0 00-.957-.957h-1.931a10.35 10.35 0 00-.909-2.191l1.367-1.367a.957.957 0 000-1.353L29.185 2.43a.957.957 0 00-1.354 0l-1.366 1.366a10.368 10.368 0 00-2.191-.908V.957A.957.957 0 0023.317 0h-3.829a.957.957 0 00-.956.957v1.932c-.771.22-1.505.527-2.192.909L14.974 2.43a.957.957 0 00-1.354 0l-2.707 2.707a.957.957 0 000 1.353l1.367 1.367c-.381.686-.688 1.42-.909 2.19H9.44a.957.957 0 00-.957.958v3.158h7.316c-.798-3.603 1.954-6.986 5.604-6.986zm23.963 23.223l-5.634-8.425a17.023 17.023 0 00-1.021-4.94H4.443C1.21 25.811 5.63 35.932 14.878 39.213v8.35c0 .793.642 1.436 1.435 1.436h16.365c.793 0 1.436-.643 1.436-1.435v-7.37h4.21c.793 0 1.436-.643 1.436-1.435v-6.125h4.412c1.145 0 1.831-1.28 1.194-2.234z"/></g><defs><clipPath id="clip0"><path fill="#fff" d="M0 0h49v49H0z"/></clipPath></defs></svg>