<svg width="51" height="51" fill="none" xmlns="http://www.w3.org/2000/svg"><path d="M8.865 32.273a5.952 5.952 0 100-11.903 5.952 5.952 0 000 11.903zm33.07 0a5.952 5.952 0 100-11.903 5.952 5.952 0 000 11.903z" fill="#D7A781"/><path d="M38.09 33.2a14.853 14.853 0 012.351 8.038v5.977h9.065c.825 0 1.494-.67 1.494-1.494v-4.483c0-6.674-7.05-10.961-12.91-8.038zM0 41.353v4.368c0 .825.669 1.494 1.494 1.494h9.065v-5.977c0-2.96.865-5.722 2.356-8.046C6.957 30.255 0 34.658 0 41.352zm25.5-12.068c-6.602 0-11.953 5.352-11.953 11.953v5.977c0 .825.669 1.494 1.494 1.494h20.918c.825 0 1.494-.669 1.494-1.494v-5.977c0-6.601-5.352-11.953-11.953-11.953zM23 10.818a1.492 1.492 0 002.112 0l5.977-5.976a1.494 1.494 0 10-2.113-2.113l-4.92 4.92-2.032-2.032a1.494 1.494 0 10-2.113 2.113L23 10.818zm2.5 18.467a7.47 7.47 0 100-14.941 7.47 7.47 0 000 14.941z" fill="#D7A781"/></svg>