<svg width="49" height="49" fill="none" xmlns="http://www.w3.org/2000/svg"><path d="M47.565 0h-5.838c-.794 0-1.436.642-1.436 1.436V2.87H28.542C27.948 1.204 26.37 0 24.5 0c-1.87 0-3.448 1.204-4.042 2.871H8.709V1.436C8.709.642 8.067 0 7.273 0H1.436C.642 0 0 .642 0 1.436v5.742c0 .793.642 1.435 1.436 1.435h5.837c.794 0 1.436-.642 1.436-1.435V5.723h5.896c-4.982 3.112-8.267 8.579-8.66 14.701-1.722.564-2.978 2.168-2.978 4.076a4.311 4.311 0 004.306 4.307A4.311 4.311 0 0011.58 24.5a4.304 4.304 0 00-2.77-4.01c.49-6.827 5.253-12.58 11.878-14.221.717 1.385 2.147 2.344 3.812 2.344s3.095-.959 3.812-2.344C34.937 7.91 39.7 13.663 40.19 20.489c-1.616.622-2.77 2.18-2.77 4.011a4.311 4.311 0 004.307 4.307 4.311 4.311 0 004.306-4.307c0-1.908-1.255-3.512-2.978-4.076-.393-6.122-3.678-11.57-8.66-14.682h5.896v1.436c0 .793.642 1.435 1.436 1.435h5.838c.793 0 1.435-.642 1.435-1.435V1.436C49 .642 48.358 0 47.565 0zM34.267 47.22c-.751-2.298-2.915-4.058-5.46-4.058h-8.614c-2.545 0-4.709 1.76-5.46 4.057-.289.886.465 1.781 1.397 1.781h16.74c.932 0 1.686-.895 1.397-1.78z" fill="#D7A781"/><path d="M37.179 29.446L25.936 12.581V26.2c1.667.595 2.87 2.173 2.87 4.042A4.311 4.311 0 0124.5 34.55a4.311 4.311 0 01-4.307-4.307c0-1.869 1.204-3.447 2.871-4.042v-13.62L11.821 29.446c-.38.57-.304 1.328.18 1.811 2.635 2.636 4.32 6.03 4.97 9.672a8.547 8.547 0 013.222-.638h8.614a8.55 8.55 0 013.222.638c.65-3.642 2.335-7.036 4.97-9.672.484-.483.56-1.242.18-1.811z" fill="#D7A781"/><path d="M24.5 28.807a1.437 1.437 0 000 2.87 1.437 1.437 0 000-2.87z" fill="#D7A781"/></svg>