<svg width="102" height="102" fill="none" xmlns="http://www.w3.org/2000/svg"><path d="M32.863 65.942H87.06a2.989 2.989 0 002.873-2.168l11.953-41.836a2.99 2.99 0 00-2.873-3.81h-73.04l-2.137-9.612a2.989 2.989 0 00-2.917-2.34H2.988a2.988 2.988 0 100 5.976h15.533l10.79 48.552c-3.177 1.38-5.405 4.547-5.405 8.226 0 4.943 4.022 8.964 8.965 8.964H87.06a2.988 2.988 0 100-5.976H32.87a2.992 2.992 0 01-2.988-2.988 2.99 2.99 0 012.98-2.988zM95.05 24.106L84.804 59.965H35.268l-7.969-35.86h67.75zM29.883 86.86c0 4.942 4.021 8.964 8.965 8.964 4.943 0 8.965-4.022 8.965-8.965s-4.022-8.965-8.965-8.965c-4.944 0-8.965 4.022-8.965 8.965zm8.965-2.989a2.992 2.992 0 012.988 2.988 2.992 2.992 0 01-2.988 2.989 2.992 2.992 0 01-2.989-2.989 2.992 2.992 0 012.989-2.988zm33.269 2.989c0 4.942 4.022 8.964 8.965 8.964s8.965-4.022 8.965-8.965-4.022-8.965-8.965-8.965-8.965 4.022-8.965 8.965zm8.965-2.989a2.992 2.992 0 012.988 2.988 2.992 2.992 0 01-2.988 2.989 2.992 2.992 0 01-2.988-2.989 2.992 2.992 0 012.988-2.988z" opacity=".8" fill="#0A706A"/></svg>