<svg width="42" height="41" fill="none" xmlns="http://www.w3.org/2000/svg"><g clip-path="url(#clip0)" fill="#F87A0B"><path d="M39.105 33.344a2.966 2.966 0 00-1.558-1.713 2.965 2.965 0 00-2.314-.085l-.883.333v-10.42a.794.794 0 00-1.59 0v11.018l-3.803 1.435a6.43 6.43 0 01-3.182.352c.29-.322.516-.71.657-1.147.542-1.673-.397-3.513-2.12-3.966l-6.97-1.83a.795.795 0 00-.202-.027h-5.418v-1.497a.795.795 0 00-.794-.795h-1.65V6.644h4.253a.794.794 0 00.795-.795V1.631H32.76v21.708a.795.795 0 001.589 0V.836a.794.794 0 00-.795-.794H13.531a.803.803 0 00-.56.23L7.925 5.286a.803.803 0 00-.235.564v19.153H3.836a.795.795 0 00-.794.795v13.596c0 .439.355.794.794.794h7.092a.795.795 0 00.794-.794V37.96h2.892l10.416 2.53a8.012 8.012 0 004.917-.36l7.461-3.019a2.983 2.983 0 001.697-3.768zM12.737 5.054H10.41l2.326-2.309v2.31zm-2.604 33.544H4.63V26.591h5.503v12.007zm26.68-2.959l-7.462 3.019a6.42 6.42 0 01-3.946.288l-10.508-2.552a.795.795 0 00-.188-.022h-2.987v-7.49h5.315l6.872 1.806c.239.063.454.182.63.347.526.49.6 1.29.243 1.9a1.556 1.556 0 01-1.607.744l-4.632-1.092a.795.795 0 00-.364 1.546l.004.001h.002c.148.035 2.637.622 4.548 1.075 1.058.25 2.13.574 3.216.674 1.276.118 2.533-.093 3.728-.544l6.117-2.307a1.412 1.412 0 011.813.843 1.397 1.397 0 01-.794 1.764z"/><path d="M16.925 13.722h-2.294a.795.795 0 000 1.588h1.096v.476a.795.795 0 001.589 0v-.51a2.285 2.285 0 001.891-2.247v-.096a2.284 2.284 0 00-2.282-2.282h-.807a.694.694 0 010-1.386h2.295a.795.795 0 000-1.588h-1.097V7.2a.794.794 0 00-1.589 0v.51a2.285 2.285 0 00-1.89 2.247 2.284 2.284 0 002.28 2.282h.808c.382 0 .693.31.693.693v.096c0 .382-.31.693-.693.693zm11.083-7.338h-5.482a.795.795 0 000 1.59h5.483a.795.795 0 000-1.59zm0 4.195h-5.482a.795.795 0 000 1.589h5.483a.795.795 0 100-1.59zm0 4.194h-5.482a.795.795 0 000 1.59h5.483a.795.795 0 100-1.59zm.002 4.195H14.63a.795.795 0 000 1.589h13.38a.795.795 0 000-1.59zm0 4.194H14.63a.795.795 0 000 1.59h13.38a.794.794 0 000-1.59zm6.207-5.704a.803.803 0 00-1.102-.22.803.803 0 00-.22 1.102.802.802 0 001.102.22c.36-.24.46-.742.22-1.102z"/></g><defs><clipPath id="clip0"><path fill="#fff" transform="translate(.82 .042)" d="M0 0h40.678v40.678H0z"/></clipPath></defs></svg>