<svg width="45" height="45" fill="none" xmlns="http://www.w3.org/2000/svg"><g clip-path="url(#clip0)" fill="#F87A0B"><path d="M22.065 17.608a.65.65 0 00.981-.111l4.287-6.47a.645.645 0 00-1.074-.713l-3.863 5.831-2.147-2.038a.644.644 0 00-.887.934l2.703 2.567z"/><path d="M22.505 27.433a.958.958 0 00.395.086h.005a.944.944 0 00.4-.09c9.795-4.66 11.455-14.71 11.73-17.68a1.54 1.54 0 00-.95-1.57 5.63 5.63 0 01-3.46-4.725A1.272 1.272 0 0029.364 2.3h-.008l-13.196.077a1.262 1.262 0 00-1.257 1.176 5.63 5.63 0 01-3.409 4.759 1.535 1.535 0 00-.925 1.58c.31 2.966 2.087 12.997 11.937 17.54zM12 9.497a6.913 6.913 0 004.185-5.83l13.16-.078a6.914 6.914 0 004.246 5.779c.107.044.172.15.161.262-.258 2.783-1.804 12.167-10.855 16.564C13.794 21.904 12.14 12.54 11.848 9.76A.254.254 0 0112 9.497z"/><path d="M13.61 13.068c.077.287.44.55.79.453a.645.645 0 00.452-.79 21.266 21.266 0 01-.41-1.825 9.059 9.059 0 003.686-4.83l9.303-.055a9.059 9.059 0 003.742 4.786 21.022 21.022 0 01-.39 1.831.645.645 0 001.248.323 22.07 22.07 0 00.446-2.15.985.985 0 00-.464-.999 7.774 7.774 0 01-3.419-4.382.996.996 0 00-.947-.699h-.006l-9.74.057a.996.996 0 00-.944.71 7.774 7.774 0 01-3.367 4.423.985.985 0 00-.452 1.004c.12.712.278 1.433.471 2.143zm17.118 1.911a.644.644 0 00-.84.35c-1.49 3.607-3.846 6.35-7.007 8.155-3.186-1.77-5.576-4.49-7.107-8.086a.645.645 0 00-1.186.504c1.67 3.925 4.303 6.884 7.822 8.794a.986.986 0 00.956-.006c3.493-1.949 6.088-4.933 7.712-8.87a.643.643 0 00-.35-.841zM4.954 35.263a2.282 2.282 0 00-2.28 2.279 2.282 2.282 0 002.28 2.279 2.282 2.282 0 002.279-2.28 2.282 2.282 0 00-2.28-2.278zm0 3.27a.992.992 0 010-1.982.991.991 0 010 1.981z"/><path d="M44.333 28.956a2.683 2.683 0 00-3.706-.717l-8.42 5.637-1.798-.101-.046-.46a3.91 3.91 0 00-3.385-3.497l-9.074-.796c-.307-.047-1.29-.33-3.99-1.878a10.02 10.02 0 00-4.59-1.321v-1.685c0-.846-.688-1.534-1.534-1.534H2.354c-.846 0-1.534.688-1.534 1.534v16.597c0 .846.688 1.534 1.534 1.534H7.79c.845 0 1.534-.688 1.534-1.534v-.457l7.931 3.004c.018.006.662.247 1.846.135l13.18-1.9a6.48 6.48 0 003.08-1.378.116.116 0 00.024-.02l8.512-7.655a2.683 2.683 0 00.436-3.508zm-1.294 2.547l-8.503 7.648a5.19 5.19 0 01-2.444 1.092l-13.17 1.898a.178.178 0 00-.011.002l-.007.001a2.893 2.893 0 01-1.22-.078L9.325 38.9v-7.356a.644.644 0 00-1.289 0v9.191c0 .135-.11.245-.245.245H2.354a.246.246 0 01-.245-.245V24.138c0-.136.11-.246.245-.246H7.79c.135 0 .245.11.245.246v4.496a.644.644 0 101.289 0v-1.521a8.725 8.725 0 013.95 1.149c3.256 1.867 4.166 1.996 4.465 2.038l.034.004 9.074.796a2.625 2.625 0 012.234 2.342l.034.343-12.15.75-.024-.002a1.468 1.468 0 01-1.002-.524.644.644 0 10-.99.825 2.79 2.79 0 001.878.982c.398.042 12.997-.784 12.997-.784l2.525.142c.14.008.278-.03.395-.108l8.601-5.757a1.392 1.392 0 011.923.372 1.394 1.394 0 01-.23 1.822z"/></g><defs><clipPath id="clip0"><path fill="#fff" transform="translate(.82 .84)" d="M0 0h43.975v43.975H0z"/></clipPath></defs></svg>