<svg width="92" height="66" fill="none" xmlns="http://www.w3.org/2000/svg"><path d="M51.095 8.208c0-.53-3.668-.958-8.193-.958-4.525 0-8.193.429-8.193.958 0 .529 3.668.957 8.193.957 4.525 0 8.193-.428 8.193-.957z" fill="#F07F1B"/><path fill-rule="evenodd" clip-rule="evenodd" d="M18.508 40.124l23.605 5.506.006-25.889-23.608-5.489-.003 25.872z" fill="#F07F1B"/><path fill-rule="evenodd" clip-rule="evenodd" d="M43.687 19.741l-.019 25.865 23.583-5.462.03-25.877-23.595 5.474z" fill="#F6A103"/><path fill-rule="evenodd" clip-rule="evenodd" d="M49.17 10.702H36.616c-.392 3.72 2.688 6.156 6.277 6.154 2.015 0 3.602-.76 4.626-1.726 1.196-1.126 1.847-2.191 1.651-4.428zm-7.476-5.047h2.409c-.01-1.093-.01-2.185-.01-3.278 0-1.134.21-2.233-1.2-2.234-1.416 0-1.2 1.02-1.2 2.155v3.357zm-5.014 0l3.424-.006V1.465c-.87.195-1.806 1.07-2.218 1.547-.61.705-1.001 1.569-1.206 2.643zm9-.041l3.428.044c-.186-1.076-.618-1.953-1.212-2.641-.438-.507-1.309-1.33-2.209-1.553l-.007 4.15z" fill="#F07F1B"/><path d="M3.07 62.667H1.018v-9.953h2.05v9.953zm10 0h-2.05l-3.993-6.549v6.549h-2.05v-9.953h2.05l4 6.562v-6.562h2.043v9.953zm1.791 0v-9.953h3.063c.875 0 1.656.198 2.345.595a4.09 4.09 0 011.62 1.681c.387.725.58 1.55.58 2.475v.458c0 .925-.19 1.748-.574 2.468a4.065 4.065 0 01-1.606 1.674c-.693.397-1.474.597-2.345.602h-3.083zm2.051-8.292v6.645h.991c.802 0 1.415-.263 1.84-.787.423-.524.64-1.273.649-2.249v-.526c0-1.012-.21-1.777-.63-2.297-.419-.524-1.032-.786-1.838-.786h-1.012zm12.216 5.68c0-.387-.137-.683-.41-.888-.274-.21-.766-.428-1.477-.656-.71-.233-1.274-.46-1.688-.684-1.13-.61-1.696-1.433-1.696-2.468a2.4 2.4 0 01.452-1.435c.305-.424.74-.754 1.305-.991.57-.237 1.208-.356 1.914-.356.711 0 1.345.13 1.9.39.557.255.987.617 1.293 1.087.31.47.465 1.002.465 1.6h-2.051c0-.456-.144-.81-.43-1.06-.288-.255-.691-.383-1.21-.383-.502 0-.892.107-1.17.321a.994.994 0 00-.417.834c0 .324.162.595.486.814.328.218.809.423 1.442.615 1.167.35 2.017.786 2.55 1.306.533.52.8 1.166.8 1.941 0 .861-.326 1.538-.978 2.03-.652.488-1.529.732-2.632.732-.765 0-1.463-.14-2.092-.417-.629-.283-1.11-.668-1.442-1.156-.328-.487-.492-1.052-.492-1.695h2.057c0 1.098.657 1.648 1.97 1.648.487 0 .867-.098 1.14-.294.274-.2.41-.479.41-.834zm10.944-5.68h-3.049v8.292h-2.05v-8.292h-3.008v-1.661h8.107v1.661zm4.86 4.648H43.3v3.644h-2.051v-9.953h3.698c1.176 0 2.083.262 2.721.786.638.524.957 1.265.957 2.222 0 .679-.148 1.246-.444 1.702-.292.451-.736.811-1.333 1.08L49 62.57v.096h-2.201l-1.866-3.644zm-1.633-1.66h1.654c.515 0 .914-.13 1.196-.39.283-.265.424-.627.424-1.087 0-.47-.134-.839-.403-1.108-.264-.269-.672-.403-1.224-.403H43.3v2.987zm15.066.553c0 .98-.173 1.839-.52 2.577-.346.738-.842 1.308-1.49 1.71-.642.4-1.38.6-2.214.6-.825 0-1.561-.197-2.208-.594-.648-.397-1.149-.962-1.504-1.695-.356-.739-.536-1.586-.54-2.543v-.492c0-.98.175-1.842.526-2.584.355-.748.855-1.32 1.497-1.716.647-.401 1.386-.602 2.215-.602.83 0 1.565.2 2.208.602.647.396 1.146.968 1.497 1.715.355.743.533 1.602.533 2.578v.444zm-2.078-.451c0-1.044-.187-1.837-.56-2.38-.374-.541-.907-.813-1.6-.813-.688 0-1.22.27-1.593.807-.373.533-.563 1.317-.567 2.352v.485c0 1.016.187 1.805.56 2.365.374.56.912.841 1.614.841.688 0 1.216-.269 1.586-.807.369-.542.556-1.33.56-2.365v-.485zm6.7-.267l2.07-4.484H67.3l-3.268 6.344v3.609h-2.085v-3.61l-3.267-6.343h2.249l2.057 4.484zm3.609 4.498c0-.314.105-.57.314-.765a1.14 1.14 0 01.8-.294c.324 0 .59.098.8.294a.99.99 0 01.321.765c0 .31-.105.563-.314.76-.21.19-.479.286-.807.286-.324 0-.59-.095-.8-.287a.992.992 0 01-.314-.759zm4.101.971v-9.953h3.487c1.207 0 2.123.232 2.748.697.624.46.936 1.137.936 2.03 0 .488-.125.919-.376 1.292-.25.37-.6.64-1.046.814.51.128.912.385 1.203.772.297.388.445.862.445 1.422 0 .957-.306 1.682-.916 2.174-.61.492-1.481.743-2.612.752h-3.869zm2.051-4.334v2.687h1.757c.483 0 .859-.114 1.128-.342.273-.233.41-.552.41-.957 0-.912-.472-1.374-1.415-1.388h-1.88zm0-1.45h1.518c1.034-.017 1.551-.43 1.551-1.236 0-.452-.132-.775-.396-.971-.26-.2-.672-.301-1.237-.301h-1.436v2.509zm9.94.315l2.07-4.484h2.243l-3.268 6.344v3.609h-2.085v-3.61l-3.267-6.343h2.249l2.058 4.484z" fill="#fff"/></svg>