<svg width="49" height="49" viewBox="0 0 49 49" fill="none" xmlns="http://www.w3.org/2000/svg">
<g clip-path="url(#clip0)">
<path d="M18.8153 14.1641H23.9911C24.9011 12.2756 23.5237 10.0488 21.4026 10.0488C19.2854 10.0488 17.9016 12.272 18.8153 14.1641Z" fill="#D7A781"/>
<path d="M21.4026 7.17773C25.0598 7.17773 27.8027 10.5703 27.0091 14.1641H34.3225V11.0059C34.3225 10.4773 33.894 10.0488 33.3655 10.0488H31.4339C31.2138 9.27823 30.9068 8.54438 30.525 7.8578L31.8917 6.49106C32.2655 6.11734 32.2655 5.51135 31.8917 5.13763L29.1849 2.43076C28.8111 2.05704 28.2052 2.05704 27.8314 2.43076L26.4647 3.7975C25.7781 3.41564 25.0443 3.10872 24.2737 2.88851V0.957031C24.2737 0.428463 23.8452 0 23.3166 0H19.4885C18.96 0 18.5315 0.428463 18.5315 0.957031V2.88861C17.7609 3.10872 17.027 3.41574 16.3405 3.7976L14.9737 2.43076C14.6 2.05704 13.994 2.05704 13.6203 2.43076L10.9134 5.13763C10.5397 5.51135 10.5397 6.11734 10.9134 6.49106L12.2803 7.8578C11.8985 8.54438 11.5915 9.27823 11.3714 10.0488H9.4397C8.91113 10.0488 8.48267 10.4773 8.48267 11.0059V14.1641H15.7994C15.0012 10.5609 17.7531 7.17773 21.4026 7.17773Z" fill="#D7A781"/>
<path d="M45.3658 30.4011L39.7318 21.9763C39.6358 20.2718 39.2934 18.6181 38.7107 17.0352H4.44277C1.20992 25.8119 5.63045 35.9334 14.8776 39.2144V47.5645C14.8776 48.3569 15.5197 49 16.3131 49H32.6783C33.4708 49 34.1139 48.3569 34.1139 47.5645V40.1953H38.3248C39.1172 40.1953 39.7604 39.5522 39.7604 38.7598V32.6348H44.1723C45.317 32.6348 46.0032 31.3543 45.3658 30.4011Z" fill="#D7A781"/>
</g>
<defs>
<clipPath id="clip0">
<rect width="49" height="49" fill="white"/>
</clipPath>
</defs>
</svg>
