<svg width="51" height="51" viewBox="0 0 51 51" fill="none" xmlns="http://www.w3.org/2000/svg">
<path d="M8.86523 32.2734C12.1522 32.2734 14.8169 29.6088 14.8169 26.3218C14.8169 23.0348 12.1522 20.3701 8.86523 20.3701C5.57822 20.3701 2.91357 23.0348 2.91357 26.3218C2.91357 29.6088 5.57822 32.2734 8.86523 32.2734Z" fill="#D7A781"/>
<path d="M41.9355 32.2734C45.2226 32.2734 47.8872 29.6088 47.8872 26.3218C47.8872 23.0348 45.2226 20.3701 41.9355 20.3701C38.6485 20.3701 35.9839 23.0348 35.9839 26.3218C35.9839 29.6088 38.6485 32.2734 41.9355 32.2734Z" fill="#D7A781"/>
<path d="M38.0902 33.2005C39.578 35.5227 40.4414 38.2815 40.4414 41.2383V47.2149H49.5058C50.331 47.2149 51 46.5459 51 45.7208V41.2383C51 34.5644 43.9508 30.2767 38.0902 33.2005Z" fill="#D7A781"/>
<path d="M0 41.3527V45.7207C0 46.5459 0.668977 47.2149 1.49414 47.2149H10.5586V41.2383C10.5586 38.278 11.4239 35.5161 12.915 33.1922C6.95672 30.2552 0 34.6584 0 41.3527Z" fill="#D7A781"/>
<path d="M25.5 29.2852C18.8985 29.2852 13.5469 34.6368 13.5469 41.2383V47.2148C13.5469 48.04 14.2159 48.709 15.041 48.709H35.959C36.7841 48.709 37.4531 48.04 37.4531 47.2148V41.2383C37.4531 34.6368 32.1015 29.2852 25.5 29.2852Z" fill="#D7A781"/>
<path d="M22.9993 10.8183C23.5827 11.4019 24.5288 11.402 25.1123 10.8183L31.0888 4.84179C31.6723 4.25827 31.6723 3.31228 31.0888 2.72877C30.5054 2.14526 29.5593 2.14526 28.9758 2.72877L24.0557 7.64878L22.0243 5.61744C21.4409 5.03393 20.4948 5.03393 19.9113 5.61744C19.3278 6.20096 19.3278 7.14695 19.9113 7.73046L22.9993 10.8183Z" fill="#D7A781"/>
<path d="M25.5 29.2852C29.626 29.2852 32.9707 25.9404 32.9707 21.8145C32.9707 17.6885 29.626 14.3438 25.5 14.3438C21.374 14.3438 18.0293 17.6885 18.0293 21.8145C18.0293 25.9404 21.374 29.2852 25.5 29.2852Z" fill="#D7A781"/>
</svg>
