<svg width="49" height="49" viewBox="0 0 49 49" fill="none" xmlns="http://www.w3.org/2000/svg">
<path d="M47.5645 0H41.7266C40.9331 0 40.291 0.642072 40.291 1.43555V2.87109H28.5422C27.9476 1.20375 26.3691 0 24.5 0C22.6309 0 21.0524 1.20375 20.4578 2.87109H8.70898V1.43555C8.70898 0.642072 8.06691 0 7.27344 0H1.43555C0.642072 0 0 0.642072 0 1.43555V7.17773C0 7.97121 0.642072 8.61328 1.43555 8.61328H7.27344C8.06691 8.61328 8.70898 7.97121 8.70898 7.17773V5.72305H14.6047C9.62266 8.83541 6.33765 14.3019 5.94498 20.4245C4.22252 20.9883 2.9668 22.5917 2.9668 24.5C2.9668 26.8748 4.89866 28.8066 7.27344 28.8066C9.64821 28.8066 11.5801 26.8748 11.5801 24.5C11.5801 22.6682 10.4258 21.1109 8.81043 20.4894C9.30024 13.6633 14.0632 7.91005 20.6884 6.26855C21.405 7.65405 22.8354 8.61328 24.5 8.61328C26.1646 8.61328 27.595 7.65405 28.3116 6.26855C34.9368 7.90996 39.6998 13.6632 40.1896 20.4893C38.5742 21.1109 37.4199 22.6682 37.4199 24.5C37.4199 26.8748 39.3518 28.8066 41.7266 28.8066C44.1013 28.8066 46.0332 26.8748 46.0332 24.5C46.0332 22.5917 44.7775 20.9883 43.055 20.4245C42.6623 14.3019 39.3773 8.85455 34.3953 5.74219H40.291V7.17773C40.291 7.97121 40.9331 8.61328 41.7266 8.61328H47.5645C48.3579 8.61328 49 7.97121 49 7.17773V1.43555C49 0.642072 48.3579 0 47.5645 0Z" fill="#D7A781"/>
<path d="M34.2665 47.2194C33.5156 44.9217 31.3524 43.1621 28.8067 43.1621H20.1934C17.6477 43.1621 15.4844 44.9217 14.7335 47.2194C14.444 48.1054 15.1977 49 16.1298 49H32.8702C33.8023 49 34.556 48.1054 34.2665 47.2194Z" fill="#D7A781"/>
<path d="M37.1788 29.446L25.9356 12.5811V26.2C27.6029 26.7946 28.8067 28.3731 28.8067 30.2422C28.8067 32.617 26.8748 34.5488 24.5 34.5488C22.1252 34.5488 20.1934 32.617 20.1934 30.2422C20.1934 28.3731 21.3971 26.7946 23.0645 26.2V12.5811L11.8213 29.446C11.4413 30.0151 11.517 30.7736 12.0007 31.2572C14.6361 33.8926 16.3207 37.2877 16.9708 40.9295C17.968 40.5249 19.0526 40.291 20.1934 40.291H28.8067C29.9474 40.291 31.032 40.5248 32.0293 40.9293C32.6794 37.2873 34.3639 33.8926 36.9993 31.2572C37.483 30.7736 37.5587 30.0151 37.1788 29.446Z" fill="#D7A781"/>
<path d="M24.5 28.8066C23.708 28.8066 23.0645 29.4501 23.0645 30.2422C23.0645 31.0342 23.708 31.6777 24.5 31.6777C25.292 31.6777 25.9355 31.0342 25.9355 30.2422C25.9355 29.4501 25.292 28.8066 24.5 28.8066Z" fill="#D7A781"/>
</svg>
