<?xml version="1.0" encoding="utf-8"?><svg viewBox="0 0 30 33" xmlns="http://www.w3.org/2000/svg" xmlns:xlink="http://www.w3.org/1999/xlink"><style>:root>svg{display:none}:root>svg:target{display:block}</style><svg fill="none" viewBox="0 0 11 7" id="icon-arrow" xmlns="http://www.w3.org/2000/svg"><path d="M1 1l4.5 4.5L10 1" stroke="#7F9681" stroke-width="2"/></svg><svg fill="none" viewBox="0 0 21 16" id="icon-arrowBtn" xmlns="http://www.w3.org/2000/svg"><path d="M17.697 8.117H0M11.576 1.693L18 8.117l-6.424 6.424" stroke="#003a66" stroke-width="2"/></svg><svg fill="none" viewBox="0 0 23 23" id="icon-block" xmlns="http://www.w3.org/2000/svg"><path d="M9.755 14.01l1.742-1.667 4.437 4.244-1.742 1.666-4.437-4.244zM13.242 19.166L8.805 14.92l-1.743 1.666 4.438 4.288 1.742-1.71zM15.145 14.01l4.438-4.245 1.742 1.667-4.437 4.244-1.743-1.667zM23 12.987l-.674-.645-1.787 1.667L23 16.32v-3.333zM4.365 14.008l4.437-4.244 1.743 1.667-4.438 4.244-1.742-1.667zM20.539 3.697L23 6.008V1.343l-2.461 2.354zM1.67 11.43l4.438-4.244L7.85 8.853l-4.437 4.244L1.67 11.43zM12.45 11.431l4.438-4.244 1.742 1.667-4.437 4.244-1.742-1.667zM15.148 3.697l1.743 1.666L22.047.431h-3.53l-3.369 3.266zM23 7.83l-3.414-3.222-1.742 1.667L23 11.165V7.83zM9.758 3.697l4.437 4.245 1.743-1.667L11.5 1.987l-1.742 1.71zM7.06 6.275L8.804 4.61l4.437 4.244-1.742 1.667L7.06 6.275zM18.633 19.166l-1.742-1.667-5.112 4.932h3.485l3.37-3.265zM10.547 21.787l-1.742-1.71-2.417 2.354h3.485l.674-.644zM7.852 19.166l-1.743-1.667L.953 22.43h3.53l3.369-3.265zM19.586 14.92l-1.742 1.667L23 21.52v-3.377l-3.414-3.222zM0 16.854v4.666l2.461-2.354L0 16.854zM19.586 20.077L17.17 22.43h4.877l-2.461-2.354zM12.453 1.076l1.742 1.71L16.612.43h-3.485l-.674.645zM3.414 2.785L5.83.431H.953l2.461 2.354zM3.414 18.254l1.743-1.667L0 11.698v3.333l3.414 3.223zM4.367 3.697l1.742 1.666L11.221.431H7.736l-3.37 3.266zM3.414 7.942l1.743-1.667L0 1.343v3.376l3.414 3.223zM.674 10.52L2.46 8.853 0 6.542v3.333l.674.645z" fill="#003A66"/></svg><svg fill="none" viewBox="0 0 25 25" id="icon-clock" xmlns="http://www.w3.org/2000/svg"><path d="M12.91.583c-6.617 0-12 5.383-12 12s5.383 12 12 12 12-5.383 12-12-5.383-12-12-12zm5.707 18.207a.997.997 0 01-1.414 0l-5-5a.995.995 0 01-.293-.707v-6.5a1 1 0 112 0v6.086l4.707 4.707a.999.999 0 010 1.414z" fill="#003A66"/></svg><svg viewBox="0 0 26 26" id="icon-loupe" xmlns="http://www.w3.org/2000/svg"><g clip-path="url(#eclip0)"><path d="M25.214 23.87l-7.053-7.053c3.213-3.91 2.994-9.714-.657-13.366-3.885-3.884-10.206-3.884-14.09 0-3.885 3.885-3.885 10.206 0 14.09 3.65 3.651 9.454 3.872 13.365.657l7.054 7.054a.977.977 0 001.38-1.382zm-9.091-7.71c-3.124 3.123-8.205 3.123-11.328 0-3.123-3.123-3.123-8.204 0-11.327 3.123-3.123 8.204-3.123 11.328 0 3.123 3.123 3.123 8.204 0 11.327z"/></g><defs><clipPath id="eclip0"><path transform="translate(.5 .538)" d="M0 0h25v25H0z"/></clipPath></defs></svg><svg viewBox="0 0 26 26" id="icon-loupeProduct" xmlns="http://www.w3.org/2000/svg"><g clip-path="url(#fclip0)"><path d="M25.214 23.87l-7.053-7.053c3.213-3.91 2.994-9.714-.657-13.366-3.885-3.884-10.206-3.884-14.09 0-3.885 3.885-3.885 10.206 0 14.09 3.65 3.651 9.454 3.872 13.365.657l7.054 7.054a.977.977 0 001.38-1.382zm-9.091-7.71c-3.124 3.123-8.205 3.123-11.328 0-3.123-3.123-3.123-8.204 0-11.327 3.123-3.123 8.204-3.123 11.328 0 3.123 3.123 3.123 8.204 0 11.327z"/><path d="M15.24 9.52h-3.805V5.714a.977.977 0 10-1.953 0V9.52H5.676a.977.977 0 100 1.954h3.806v3.805a.977.977 0 101.953 0v-3.806h3.806a.977.977 0 100-1.953z"/></g><defs><clipPath id="fclip0"><path transform="translate(.5 .538)" d="M0 0h25v25H0z"/></clipPath></defs></svg><svg fill="none" viewBox="0 0 24 23" id="icon-mail" xmlns="http://www.w3.org/2000/svg"><g clip-path="url(#gclip0)" fill="#003A66"><path d="M22.5 3.806H1.143l10.678 8.413 10.8-8.39a.77.77 0 00-.121-.023z"/><path d="M12.34 13.844a.85.85 0 01-1.041 0L.321 5.194v13.54c0 .435.368.786.822.786H22.5c.454 0 .821-.351.821-.785V5.31L12.34 13.844z"/></g><defs><clipPath id="gclip0"><path fill="#fff" transform="translate(.321 .663)" d="M0 0h23v22H0z"/></clipPath></defs></svg><svg fill="none" viewBox="0 0 25 33" id="icon-map" xmlns="http://www.w3.org/2000/svg"><path d="M12.086.155C5.43.155.016 5.57.016 12.225c0 9.583 10.775 19.209 11.234 19.614a1.265 1.265 0 001.698-.024c.457-.428 11.21-10.584 11.21-19.589 0-6.655-5.417-12.07-12.072-12.07zm0 17.826a5.755 5.755 0 110-11.51 5.755 5.755 0 010 11.51z" fill="#003A66"/></svg><svg fill="none" viewBox="0 0 30 23" id="icon-metro" xmlns="http://www.w3.org/2000/svg"><path d="M15 .722C6.716.722 0 7.276 0 15.36c0 4.384 1.957 7.243 1.957 7.243l26.08.001S30 19.48 30 15.36C30 7.276 23.284.722 15 .722zM26.937 20.82l-23.826-.01s-1.27-2.324-1.27-5.497c0-7.086 5.914-12.83 13.21-12.83 7.295 0 13.209 5.744 13.209 12.83 0 3.209-1.323 5.507-1.323 5.507z" fill="#003A66"/><path d="M19.24 4.609h-.189l-4.001 7.579-4.145-7.644L5.23 18.353H3.763v1.109h8.035v-1.11h-1.594l1.594-4.315 3.252 5.425 3.125-5.425 1.594 4.315h-1.594v1.11h7.97v-1.11h-1.38L19.239 4.61z" fill="#003A66"/></svg><svg viewBox="0 0 18 18" id="icon-phone" xmlns="http://www.w3.org/2000/svg"><path d="M17.51 13.21l-2.512-2.512c-.897-.897-2.422-.538-2.781.628-.27.808-1.166 1.256-1.974 1.077-1.794-.449-4.216-2.781-4.665-4.665-.269-.808.27-1.705 1.077-1.974 1.166-.359 1.525-1.884.628-2.781L4.77.471c-.718-.628-1.794-.628-2.422 0L.644 2.176C-1.061 3.97.824 8.725 5.04 12.94s8.971 6.19 10.765 4.396l1.705-1.705c.628-.717.628-1.794 0-2.422z" fill="#003A66"/></svg><svg fill="none" viewBox="0 0 19 18" id="icon-play" xmlns="http://www.w3.org/2000/svg"><g clip-path="url(#kclip0)" fill="#FF814F"><path d="M12.47 8.944L8.73 6.378a.473.473 0 00-.47-.035.423.423 0 00-.245.378v5.13c0 .161.094.308.246.38a.477.477 0 00.47-.036l3.737-2.564a.42.42 0 00.187-.343.416.416 0 00-.187-.344z"/><path d="M9.5.779c-4.971 0-9 3.804-9 8.5 0 4.693 4.029 8.497 9 8.497 4.97 0 9-3.804 9-8.497 0-4.696-4.03-8.5-9-8.5zm0 15.579c-4.14 0-7.497-3.168-7.497-7.08 0-3.908 3.357-7.08 7.497-7.08s7.496 3.171 7.496 7.08c0 3.912-3.356 7.08-7.496 7.08z"/></g><defs><clipPath id="kclip0"><path fill="#fff" transform="translate(.5 .776)" d="M0 0h18v17H0z"/></clipPath></defs></svg><svg fill="none" viewBox="0 0 26 28" id="icon-price" xmlns="http://www.w3.org/2000/svg"><path d="M13.502 15.236a.453.453 0 00-.158-.005c-.526-.059-.922-.488-.923-.998a.451.451 0 00-.46-.443.451.451 0 00-.459.443c.001.852.592 1.598 1.445 1.824v.443c0 .244.205.443.459.443s.46-.199.46-.443v-.416c.983-.199 1.651-1.082 1.548-2.046-.104-.964-.946-1.696-1.95-1.696-.577 0-1.043-.45-1.043-1.006 0-.555.466-1.005 1.042-1.005.576 0 1.043.45 1.043 1.005 0 .245.206.443.46.443.253 0 .459-.198.459-.443-.002-.895-.652-1.667-1.56-1.851v-.403a.451.451 0 00-.459-.443.451.451 0 00-.46.443v.43c-.947.25-1.557 1.137-1.426 2.076.13.939.96 1.64 1.943 1.64.569 0 1.032.438 1.043.986.01.547-.437 1.002-1.005 1.022z" fill="#003A66"/><path d="M6.803 12.818c0 3.547 2.982 6.423 6.66 6.423 3.679 0 6.66-2.876 6.66-6.423s-2.982-6.422-6.66-6.422c-3.676.004-6.656 2.877-6.66 6.422zm6.66-5.536c3.171 0 5.742 2.479 5.742 5.536 0 3.058-2.57 5.537-5.742 5.537-3.17 0-5.741-2.479-5.741-5.537.003-3.056 2.572-5.533 5.741-5.536z" fill="#003A66"/><path d="M22.387 20.332l-3.598 1.64c-.496-.891-1.45-1.458-2.498-1.487l-3.321-.088a3.611 3.611 0 01-1.51-.376l-.338-.169a6.157 6.157 0 00-5.521.006l.021-.738a.45.45 0 00-.446-.455l-3.642-.097a.452.452 0 00-.472.43l-.22 7.707a.45.45 0 00.446.455l3.642.097h.013a.452.452 0 00.46-.43l.01-.37.946-.488a1.676 1.676 0 011.211-.128l5.65 1.53.03.007a6.32 6.32 0 003.802-.415.419.419 0 00.056-.031l8.192-5.11a.434.434 0 00.15-.59c-.607-1.04-1.956-1.436-3.063-.9zM1.773 26.288l.195-6.821 2.723.072-.195 6.822-2.723-.073zm14.865-.116a5.384 5.384 0 01-3.185.343L7.82 24.989a2.624 2.624 0 00-1.894.2l-.483.25.13-4.536a5.209 5.209 0 015.128-.264l.338.169c.59.294 1.242.456 1.907.475l3.321.088c.933.026 1.725.666 1.915 1.548l-4.948-.132a.453.453 0 00-.472.43.45.45 0 00.447.456l5.46.144h.013a.452.452 0 00.458-.43 2.713 2.713 0 00-.044-.575l3.69-1.681a1.444 1.444 0 011.598.21l-7.745 4.83zM13.922 5.151V.944a.451.451 0 00-.459-.443.451.451 0 00-.46.443v4.207c0 .245.207.443.46.443.254 0 .46-.198.46-.443z" fill="#003A66"/><path d="M17.367 5.151V3.158a.451.451 0 00-.46-.443.451.451 0 00-.459.443v1.993c0 .245.206.443.46.443.253 0 .459-.198.459-.443z" fill="#003a66"/><path d="M10.478 5.151V3.158a.451.451 0 00-.46-.443.451.451 0 00-.459.443v1.993c0 .245.206.443.46.443.253 0 .459-.198.459-.443z" fill="#003A66"/></svg><svg fill="none" viewBox="0 0 16 16" id="icon-star_no" xmlns="http://www.w3.org/2000/svg"><g clip-path="url(#mclip0)"><path d="M8.422.549l2.317 4.696 5.183.753-3.75 3.655.885 5.162-4.635-2.437-4.635 2.437.885-5.162-3.75-3.655 5.182-.753L8.422.549z" fill="#E4E4E4"/></g><defs><clipPath id="mclip0"><path fill="#fff" transform="translate(.922 .182)" d="M0 0h15v15H0z"/></clipPath></defs></svg><svg fill="none" viewBox="0 0 16 16" id="icon-star_yes" xmlns="http://www.w3.org/2000/svg"><g clip-path="url(#nclip0)"><path d="M8.422.549l2.317 4.696 5.183.753-3.75 3.655.885 5.162-4.635-2.437-4.635 2.437.885-5.162-3.75-3.655 5.182-.753L8.422.549z" fill="url(#npaint0_linear)"/></g><defs><linearGradient id="npaint0_linear" x1="8.422" y1=".549" x2="8.422" y2="14.815" gradientUnits="userSpaceOnUse"><stop stop-color="#F5A484"/><stop offset="1" stop-color="#D06330"/></linearGradient><clipPath id="nclip0"><path fill="#fff" transform="translate(.922 .182)" d="M0 0h15v15H0z"/></clipPath></defs></svg></svg>