<svg width="75" height="75" fill="none" xmlns="http://www.w3.org/2000/svg"><path d="M23.961 45.876a11.553 11.553 0 1111.552-11.552 11.565 11.565 0 01-11.552 11.552zm0-21.1a9.552 9.552 0 106.753 2.799 9.563 9.563 0 00-6.753-2.803v.004zm20.378 47.759H3.589a1 1 0 01-1-1v-10a12.118 12.118 0 0112.11-12.1h18.02a1 1 0 110 2h-18.02a10.115 10.115 0 00-10.11 10.1v9h38.75v-7.8a1 1 0 112 0v8.8a1 1 0 01-1 1zm-2.149-16.55a1 1 0 01-.812-.415 10.219 10.219 0 00-1.831-1.92 1 1 0 011.264-1.55A12.17 12.17 0 0143 54.4a1 1 0 01-.81 1.585z" fill="#000"/><path d="M35.198 72.535H12.724a1 1 0 01-1-1V64.87a1 1 0 012 0v5.665h20.474V64.87a1 1 0 012 0v6.665a1 1 0 01-1 1zm34.313-45.009H53.99a1 1 0 110-2h15.523a1.062 1.062 0 001.06-1.06V5.596a1.062 1.062 0 00-1.06-1.06H38.227a1.06 1.06 0 00-1.06 1.06v18.87a1.06 1.06 0 001.06 1.06h5.79a1 1 0 110 2h-5.79a3.063 3.063 0 01-3.06-3.06V5.596a3.063 3.063 0 013.06-3.06H69.51a3.064 3.064 0 013.06 3.06v18.87a3.064 3.064 0 01-3.06 3.06z" fill="#000"/><path d="M58.679 18.792a1 1 0 01-.707-1.707l2.05-2.05-2.055-2.06a1 1 0 011.412-1.414l2.762 2.762a1 1 0 010 1.414L59.379 18.5a1 1 0 01-.7.293zm-9.615 0a1 1 0 01-.707-.293l-2.761-2.764a1 1 0 010-1.414l2.761-2.762a1 1 0 011.414 1.414l-2.054 2.062 2.054 2.055a1 1 0 01-.707 1.707v-.005zm3.353 3.089a1 1 0 01-.972-1.242l2.906-11.704a1 1 0 011.942.482l-2.906 11.7a1 1 0 01-.97.764zm-8.4 14.586a1 1 0 01-1-1v-8.94a1 1 0 112 0v6.7l8.3-7.447a1 1 0 111.335 1.49l-9.97 8.94a1 1 0 01-.665.257z" fill="#000"/></svg>