<svg width="72" height="71" fill="none" xmlns="http://www.w3.org/2000/svg"><g clip-path="url(#clip0)" fill="#000"><path d="M71.58 18.925c0-7.39-6.098-13.4-13.593-13.4h-34.2c-.574 0-1.04.458-1.04 1.024 0 .566.466 1.024 1.04 1.024h34.2c6.349 0 11.514 5.093 11.514 11.352 0 6.26-5.165 11.352-11.514 11.352H46.81c-2.29-6.861-8.85-11.829-16.565-11.829-7.711 0-14.268 4.962-16.561 11.817-6.124-.253-11.027-5.242-11.027-11.34 0-6.26 5.165-11.352 11.514-11.352h4.388c.574 0 1.039-.458 1.039-1.024 0-.566-.465-1.025-1.04-1.025h-4.387C6.677 5.524.58 11.536.58 18.925c0 7.049 5.548 12.844 12.565 13.363a16.968 16.968 0 00-.333 3.349c0 2.44.508 4.797 1.51 7.007.234.517.85.749 1.373.518.524-.231.759-.837.524-1.354a14.845 14.845 0 01-1.33-6.172c0-1.136.13-2.244.372-3.31h25.318c.574 0 1.039-.459 1.039-1.024 0-.566-.465-1.025-1.04-1.025H15.885c2.2-5.71 7.807-9.78 14.36-9.78 8.468 0 15.357 6.791 15.357 15.14 0 8.347-6.889 15.139-15.356 15.139-4.43 0-8.643-1.887-11.562-5.176a1.05 1.05 0 00-1.467-.097 1.014 1.014 0 00-.098 1.446c3.314 3.734 8.098 5.876 13.127 5.876 3.588 0 6.927-1.075 9.702-2.914l2.948 2.907a1.963 1.963 0 00.133 2.656l8.12 8.006a5.192 5.192 0 003.669 1.498c1.386 0 2.69-.532 3.67-1.498a5.047 5.047 0 001.519-3.617c0-1.367-.54-2.652-1.52-3.618l-8.12-8.006a2.01 2.01 0 00-1.42-.58c-.47 0-.916.158-1.275.45l-2.948-2.907a16.965 16.965 0 002.63-12.876h10.634c7.495 0 13.592-6.011 13.592-13.4zM57.016 57.694c.587.58.91 1.35.91 2.169s-.323 1.589-.91 2.168a3.113 3.113 0 01-2.2.898c-.83 0-1.612-.319-2.2-.898l-8.07-7.957 4.399-4.338 8.07 7.958zm-10.822-8.143l-1.837 1.81-2.744-2.704a17.471 17.471 0 001.837-1.811l2.744 2.705z"/><path d="M8.03 20.07c.642 0 1.161-.513 1.161-1.145s-.52-1.144-1.16-1.144c-.642 0-1.161.512-1.161 1.144 0 .632.52 1.145 1.16 1.145zm4.339 0c.64 0 1.16-.513 1.16-1.145s-.52-1.144-1.16-1.144c-.641 0-1.161.512-1.161 1.144 0 .632.52 1.145 1.16 1.145zm4.338 0c.641 0 1.161-.513 1.161-1.145s-.52-1.144-1.16-1.144c-.642 0-1.162.512-1.162 1.144 0 .632.52 1.145 1.161 1.145zm49.417-1.145c0-4.802-3.963-8.708-8.833-8.708s-8.833 3.906-8.833 8.708 3.962 8.709 8.833 8.709c4.87 0 8.833-3.907 8.833-8.709zm-15.588 0c0-3.672 3.03-6.66 6.755-6.66 3.724 0 6.754 2.988 6.754 6.66s-3.03 6.66-6.754 6.66c-3.725 0-6.755-2.988-6.755-6.66z"/><path d="M60.491 16.55a1.05 1.05 0 00-1.47 0l-2.772 2.734-1.098-1.083a1.05 1.05 0 00-1.47 0 1.014 1.014 0 000 1.448l1.834 1.808c.203.2.469.3.734.3.266 0 .532-.1.735-.3L60.491 18c.406-.4.406-1.048 0-1.448z"/></g><defs><clipPath id="clip0"><path fill="#fff" transform="translate(.58 .251)" d="M0 0h71v70H0z"/></clipPath></defs></svg>