<svg width="82" height="82" fill="none" xmlns="http://www.w3.org/2000/svg"><g clip-path="url(#clip0)"><path d="M9.591 67.513a.95.95 0 00.19.229l.042.032a28.85 28.85 0 0020.764 9.732.831.831 0 00.266.007c.198.003.396.007.595.007.2 0 .397-.004.595-.007.089.012.178.01.266-.007a28.852 28.852 0 0020.77-9.738c.01-.009.022-.014.032-.023a.949.949 0 00.193-.23 28.788 28.788 0 007.009-17.287.94.94 0 00.44-.246 6.553 6.553 0 000-9.257l-2.206-2.206a28.86 28.86 0 00-.73-1.776 34.337 34.337 0 015.995-2.87l14.403-5.237a.949.949 0 00.347-1.563l-6.32-6.321a6.545 6.545 0 00-9.128-9.127l-6.319-6.32a.95.95 0 00-1.563.347l-5.236 14.403a34.444 34.444 0 01-2.144 4.745 28.63 28.63 0 00-15.549-5.088.948.948 0 00-.236-.007 30.285 30.285 0 00-1.227.001.939.939 0 00-.245.006 28.85 28.85 0 00-20.772 9.732c-.014.011-.028.021-.041.033a.95.95 0 00-.19.228 28.858 28.858 0 000 37.808zm.855-35.871a28.86 28.86 0 005.938 4.808 38.897 38.897 0 00-1.83 11.21h-10.1a26.879 26.879 0 015.992-16.018zm34.814.233l6.733 6.733a36.232 36.232 0 00-2.08 1.92 1.85 1.85 0 01-2.615 0L43.34 36.57a1.851 1.851 0 010-2.615 35.76 35.76 0 001.921-2.08zm7.193 33.697a28.56 28.56 0 00-5.933-4.832 38.896 38.896 0 001.822-11.182h10.1a26.877 26.877 0 01-5.989 16.014zM30.5 56.561a28.85 28.85 0 00-12.426 3.252 37.14 37.14 0 01-1.62-10.255H30.5v7.003zm0 1.9v16.925c-5.404-2.8-9.465-7.619-11.8-13.755a26.964 26.964 0 0111.8-3.17zm1.898-.006a26.64 26.64 0 0111.81 3.148c-2.331 6.15-6.397 10.978-11.81 13.783v-16.93zm0-1.9v-6.997h14.047a37.15 37.15 0 01-1.61 10.225 28.524 28.524 0 00-12.437-3.228zm0-15.893a28.351 28.351 0 0010.176-2.175l3.303 3.302a39.23 39.23 0 01.57 5.87h-14.05l.001-6.997zm15.947 6.997a41.782 41.782 0 00-.373-4.746 3.74 3.74 0 001.067.029 3.76 3.76 0 002.216-1.073l.022-.021 5.811 5.811h-8.743zm-6.346-15.046a3.752 3.752 0 00-.693 4.339 26.45 26.45 0 01-8.907 1.811v-16.93c4.242 2.198 7.737 5.704 10.166 10.199a38.9 38.9 0 01-.566.581zm-11.5 6.145a26.953 26.953 0 01-11.798-3.17c2.334-6.136 6.395-10.954 11.799-13.754v16.924zm0 1.9v7.003H16.453c.057-3.478.603-6.93 1.62-10.255A28.838 28.838 0 0030.5 40.658zm-15.944 8.9a38.893 38.893 0 001.83 11.211 28.852 28.852 0 00-5.938 4.808 26.878 26.878 0 01-5.992-16.019h10.1zm-2.857 17.458a26.954 26.954 0 015.34-4.419c2.04 5.22 5.278 9.541 9.498 12.576a26.997 26.997 0 01-14.838-8.157zm24.664 8.157c4.227-3.04 7.469-7.37 9.51-12.603a26.66 26.66 0 015.33 4.443 26.996 26.996 0 01-14.84 8.16zm23.661-27.288a.957.957 0 00-.095-.071l-7.269-7.269a34.5 34.5 0 012.908-2.323l3.845 3.846a4.655 4.655 0 01.611 5.817zm6.887-35.574a4.647 4.647 0 013.964 7.072l-6.39-6.39a4.618 4.618 0 012.426-.682zm-15.13 8.393l4.728-13.002L76.165 27.36l-13.002 4.728a36.504 36.504 0 00-9.684 5.319l-7.016-7.015a36.071 36.071 0 005.316-9.69zm-7.874 9.834a26.665 26.665 0 00-7.56-8.502 26.706 26.706 0 0110.546 4.409 34.237 34.237 0 01-2.986 4.093zm-17.367-8.493c-4.221 3.034-7.46 7.355-9.5 12.577a26.962 26.962 0 01-5.34-4.42 27 27 0 0114.84-8.157z" fill="#000"/><path d="M75.494 16.861a.95.95 0 001.235-.525 6.873 6.873 0 00-8.944-8.945.949.949 0 10.71 1.76 4.975 4.975 0 016.473 6.475.95.95 0 00.526 1.235z" fill="#000"/><path d="M67.378 6.23A8.079 8.079 0 0177.89 16.742a.95.95 0 101.761.71A9.978 9.978 0 0066.668 4.468a.95.95 0 00.71 1.761v.001z" fill="#000"/><path d="M7.052 39.14L2.9 37.558l-.956 7.014L6.49 45.8l.56-6.659z" fill="#fff"/><path d="M5.423 39.349a.94.94 0 00.946-.933.94.94 0 00-.946-.933.94.94 0 00-.946.933.94.94 0 00.946.933zM3.744 45.9a.943.943 0 00.951-.935.943.943 0 00-.951-.934.943.943 0 00-.951.934c0 .516.426.934.951.934z" fill="#000"/></g><defs><clipPath id="clip0"><path fill="#fff" transform="translate(.955 .134)" d="M0 0h81v81H0z"/></clipPath></defs></svg>