<svg width="75" height="75" fill="none" xmlns="http://www.w3.org/2000/svg"><path d="M56.835 14.615a.999.999 0 01-.825-.434 19.514 19.514 0 00-1.8-2.244 1 1 0 011.462-1.364 21.403 21.403 0 011.982 2.476 1 1 0 01-.823 1.566h.004zm-7.2 40.85h-23.96a1 1 0 01-1-1v-.44c0-4.813-1.541-6.612-4.61-10.2-.336-.393-.688-.8-1.055-1.239a24.442 24.442 0 01-5.725-15.69 24.363 24.363 0 0125.7-24.33A23.85 23.85 0 0149.4 5.581a1 1 0 01-.973 1.747 21.876 21.876 0 00-9.546-2.765 22.365 22.365 0 00-23.597 22.332 22.435 22.435 0 005.256 14.407c.362.43.71.837 1.044 1.226 2.96 3.457 4.95 5.781 5.083 10.937h21.987c.219-5.33 2.239-7.672 5.745-11.733l.208-.24a22.282 22.282 0 005.129-11.057 1 1 0 111.976.312 24.286 24.286 0 01-5.59 12.046l-.21.242c-3.624 4.2-5.278 6.115-5.278 11.426a1.001 1.001 0 01-1 1.004zm11.028-31.68a1 1 0 01-.983-.82c-.17-.936-.4-1.86-.689-2.766a1 1 0 111.906-.608c.315.988.565 1.995.751 3.015a1 1 0 01-.985 1.18z" fill="#000"/><path d="M51.666 62.812H23.644a2.123 2.123 0 01-2.121-2.12v-5.106a2.123 2.123 0 012.12-2.12h28.023a2.124 2.124 0 012.12 2.12v5.106a2.123 2.123 0 01-2.12 2.12zm-28.022-7.347a.121.121 0 00-.121.121v5.106a.12.12 0 00.12.12h28.023a.121.121 0 00.12-.12v-5.106a.12.12 0 00-.12-.12H23.644z" fill="#000"/><path d="M43.912 72.535H31.396a3.5 3.5 0 01-3.5-3.5v-7.223a1 1 0 011-1h17.515a1 1 0 011 1v7.223a3.5 3.5 0 01-3.499 3.5zm-14.015-9.723v6.223a1.5 1.5 0 001.5 1.5h12.515a1.5 1.5 0 001.5-1.5v-6.223H29.897z" fill="#000"/><path d="M28.9 67.296h-5.256a1 1 0 010-2H28.9a1 1 0 010 2zm22.765 0h-5.257a1 1 0 010-2h5.257a1 1 0 010 2zm-7.534-34.238a1 1 0 01-.707-1.707l4.816-4.816-4.816-4.816a1 1 0 011.414-1.414l5.523 5.523a1 1 0 010 1.414l-5.523 5.523a1 1 0 01-.707.293zm-12.954 0a1 1 0 01-.707-.293l-5.523-5.523a1 1 0 010-1.414l5.523-5.523a1 1 0 011.414 1.414l-4.816 4.816 4.816 4.816a1 1 0 01-.707 1.707zm4.337 4.477a1.015 1.015 0 01-.568-.176 1.001 1.001 0 01-.41-1.034l4.282-20.007a.999.999 0 011.545-.614 1.001 1.001 0 01.41 1.033l-4.282 20.011a1 1 0 01-.977.787z" fill="#000"/></svg>