<svg width="75" height="75" fill="none" xmlns="http://www.w3.org/2000/svg"><g clip-path="url(#clip0)" fill="#000"><path d="M73.047 65.859h-4.71V26.393a4.565 4.565 0 00-4.559-4.56H49.876a1.084 1.084 0 100 2.168h13.902a2.394 2.394 0 012.392 2.392v39.466h-3.71c.056-.41.085-.821.085-1.233 0-5.07-4.125-9.194-9.194-9.194-.682 0-1.362.078-2.033.232a6.856 6.856 0 00-6.077-3.708c-.84 0-1.658.153-2.427.451a5.727 5.727 0 00-5.683-5.085 5.727 5.727 0 00-5.684 5.085 6.692 6.692 0 00-2.426-.45 6.855 6.855 0 00-6.077 3.707 9.064 9.064 0 00-2.033-.232c-5.07 0-9.194 4.124-9.194 9.194 0 .412.03.824.085 1.233h-3.71V26.393A2.394 2.394 0 0110.483 24h13.903a1.084 1.084 0 000-2.168H10.484a4.565 4.565 0 00-4.56 4.56v39.466h-4.71c-.598 0-1.083.485-1.083 1.084v2.317a3.405 3.405 0 003.401 3.401H70.73a3.405 3.405 0 003.4-3.4v-2.318c0-.599-.484-1.084-1.083-1.084zm-1.084 3.401c0 .68-.553 1.233-1.233 1.233H3.532c-.68 0-1.233-.553-1.233-1.233v-1.233h13.977a1.084 1.084 0 000-2.168h-2.28a6.955 6.955 0 01-.111-1.233A7.034 7.034 0 0120.91 57.6a7.01 7.01 0 012.296.392 1.084 1.084 0 001.38-.673c.654-1.91 2.436-3.195 4.434-3.195 1.096 0 2.136.388 3.01 1.122a1.084 1.084 0 001.731-1.154 3.483 3.483 0 01-.181-1.052 3.554 3.554 0 013.55-3.55 3.554 3.554 0 013.55 3.55c0 .321-.058.656-.182 1.052a1.084 1.084 0 001.732 1.154c.873-.734 1.914-1.122 3.01-1.122a4.698 4.698 0 014.433 3.195 1.085 1.085 0 001.38.673 7.009 7.009 0 012.297-.392 7.034 7.034 0 017.026 7.026 7.1 7.1 0 01-.11 1.233H20.91a1.084 1.084 0 000 2.168h51.052v1.233z"/><path d="M23.201 35.16a4.569 4.569 0 00-1.056 2.918v3.376a1.084 1.084 0 001.616.944l7.72-4.355c.294.537.606 1.065.935 1.584l-.97 3.881a1.084 1.084 0 001.051 1.347h9.269a1.084 1.084 0 001.052-1.346l-.97-3.882c.329-.519.64-1.047.935-1.584l7.719 4.355a1.084 1.084 0 001.617-.944v-3.376a4.568 4.568 0 00-1.057-2.919l-5.146-6.173c.271-1.61.41-3.252.41-4.91a29.09 29.09 0 00-2.275-11.357 27.92 27.92 0 00-6.159-9.112 1.084 1.084 0 00-1.52 0 27.92 27.92 0 00-6.16 9.112 29.093 29.093 0 00-2.274 11.357 29.6 29.6 0 00.408 4.903l-5.145 6.18zm1.111 4.438v-1.52c0-.558.197-1.102.555-1.53l4.063-4.877c.406 1.52.933 3 1.58 4.43l-6.198 3.497zm9.573 3.09l.617-2.467h5.259l.616 2.466h-6.492zm15.511-6.14c.358.428.554.972.554 1.53v1.52L43.752 36.1a28.748 28.748 0 001.581-4.43l4.063 4.876zM37.131 5.933a25.883 25.883 0 014.463 6.63H32.67a25.883 25.883 0 014.462-6.63zm-5.366 8.798h10.732a27.163 27.163 0 011.66 9.343c0 4.985-1.34 9.804-3.883 13.978h-6.285c-2.543-4.174-3.884-8.993-3.884-13.978 0-3.22.577-6.388 1.66-9.343z"/><path d="M41.692 22.917a4.565 4.565 0 00-4.56-4.56 4.565 4.565 0 00-4.56 4.56 4.565 4.565 0 004.56 4.56 4.565 4.565 0 004.56-4.56zm-6.952 0a2.394 2.394 0 012.392-2.392 2.394 2.394 0 012.392 2.392 2.394 2.394 0 01-2.392 2.391 2.394 2.394 0 01-2.392-2.391z"/></g><defs><clipPath id="clip0"><path fill="#fff" transform="translate(.13 .979)" d="M0 0h74v74H0z"/></clipPath></defs></svg>