<svg width="68" height="68" fill="none" xmlns="http://www.w3.org/2000/svg"><g clip-path="url(#clip0)" fill="#000"><path d="M62.682 50.56V2.287c0-.723-.586-1.308-1.309-1.308h-8.375c-.723 0-1.308.585-1.308 1.308v37.63a9.27 9.27 0 00-1.656.357 18.599 18.599 0 00-3.056-4.603V14.457c0-.723-.585-1.309-1.308-1.309h-8.375c-.723 0-1.309.586-1.309 1.309v15.27a18.859 18.859 0 00-4.71-.13V7.521a1.31 1.31 0 00-1.31-1.308h-8.374c-.723 0-1.309.586-1.309 1.308v27.085a18.79 18.79 0 00-4.71 7.139V22.047a1.31 1.31 0 00-1.31-1.309H5.89c-.723 0-1.309.586-1.309 1.309v23.696a12.6 12.6 0 00-4.45 9.612c0 6.96 5.664 12.623 12.625 12.623H27.22a1.308 1.308 0 100-2.617H12.755c-5.518 0-10.007-4.489-10.007-10.006 0-5.518 4.489-10.007 10.007-10.007 1.014 0 2.015.151 2.974.45a1.307 1.307 0 001.669-.977c1.568-7.358 8.175-12.698 15.71-12.698 6.603 0 12.63 4.141 15 10.304a1.308 1.308 0 001.79.709 6.807 6.807 0 019.585 7.624 1.31 1.31 0 00.784 1.5 6.775 6.775 0 014.247 6.302c0 3.749-3.05 6.8-6.8 6.8H38.996a1.309 1.309 0 000 2.617h18.718c5.192 0 9.417-4.225 9.417-9.417a9.373 9.373 0 00-4.45-8.002zM7.197 44.022V23.356h5.758v19.38c-.067-.002-.133-.005-.2-.005-1.993 0-3.88.465-5.558 1.291zM28.658 8.83v21.216A18.731 18.731 0 0022.9 32.54V8.83h5.758zm9.945 21.498V15.766h5.758v17.51a18.571 18.571 0 00-5.758-2.948zm15.704 9.631V3.596h5.758v39.623a9.416 9.416 0 00-5.758-3.26z"/><path d="M33.107 65.361c-.344 0-.681.14-.925.384a1.319 1.319 0 00-.383.925c0 .344.14.682.383.925.244.243.581.383.925.383.345 0 .682-.14.926-.383.243-.243.383-.58.383-.925 0-.344-.14-.682-.383-.925a1.318 1.318 0 00-.926-.384zm1.035-15.394a1.309 1.309 0 100-2.617h-4.37a1.31 1.31 0 00-1.31 1.309v10.373a1.31 1.31 0 001.31 1.309h4.37a1.308 1.308 0 100-2.618H31.08v-2.57h2.74a1.309 1.309 0 100-2.616h-2.74v-2.57h3.062zm-12.756 7.804c-1.04 0-2.041-.42-2.678-1.122a1.309 1.309 0 10-1.94 1.758c1.125 1.24 2.851 1.981 4.618 1.981 2.207 0 4.06-1.407 4.406-3.347.26-1.46-.402-3.367-3.044-4.341a55.478 55.478 0 01-2.85-1.152.726.726 0 01-.256-.681c.026-.185.16-.636.832-.839 1.474-.444 2.84.633 2.881.666a1.309 1.309 0 001.678-2.009c-.099-.083-2.453-2.024-5.313-1.163-1.445.436-2.468 1.575-2.669 2.973a3.328 3.328 0 001.484 3.294c.058.038.119.07.182.099.06.027 1.502.669 3.126 1.267.459.17 1.511.647 1.372 1.425-.104.586-.817 1.191-1.829 1.191zm22.904 2.617a6.55 6.55 0 006.542-6.543 6.55 6.55 0 00-6.543-6.543 6.55 6.55 0 00-6.543 6.543 6.55 6.55 0 006.543 6.543zm0-10.469a3.93 3.93 0 013.925 3.926 3.93 3.93 0 01-3.926 3.926 3.93 3.93 0 01-3.926-3.926 3.93 3.93 0 013.926-3.926z"/></g><defs><clipPath id="clip0"><path fill="#fff" transform="translate(.13 .979)" d="M0 0h67v67H0z"/></clipPath></defs></svg>