<svg width="67" height="67" fill="none" xmlns="http://www.w3.org/2000/svg"><g clip-path="url(#clip0)" fill="#000"><path d="M65.535 65.041h-6.264V26.746a.969.969 0 00-.969-.969H47.97a.969.969 0 00-.97.969V65.04h-7.36V38.11a.969.969 0 00-.969-.968H28.338a.969.969 0 00-.97.969v26.93h-7.361V43.277a.969.969 0 00-.969-.969H8.706a.969.969 0 00-.97.97V65.04H1.474a.969.969 0 100 1.938h64.062a.969.969 0 100-1.938zm-47.466 0H9.674V44.247h8.395V65.04zm19.633 0h-8.396v-25.96h8.396v25.96zm19.632 0h-8.396V27.715h8.396V65.04zM63.41 1.738a3.034 3.034 0 00-2.385-.736L52.76 2.035c-1.64.206-2.84 1.746-2.635 3.389a3.038 3.038 0 003.388 2.635l.675-.084C44.04 19.738 31.98 25.818 23.457 28.873c-10.628 3.81-18.899 4.136-18.98 4.138a3.04 3.04 0 00-2.938 3.126 3.02 3.02 0 003.125 2.942c.368-.011 9.136-.32 20.688-4.437 6.494-2.314 12.605-5.386 18.162-9.13a.969.969 0 10-1.082-1.607c-5.423 3.654-11.388 6.652-17.73 8.912-11.268 4.015-19.741 4.315-20.096 4.325h-.035a1.092 1.092 0 01-1.096-1.064 1.1 1.1 0 011.063-1.13c.085-.003 8.592-.315 19.572-4.251 9.2-3.298 22.416-10.031 33.146-23.381.534-.665-.03-1.674-.875-1.568l-3.108.388a1.11 1.11 0 01-1.2-.812A1.108 1.108 0 0153 3.958l8.266-1.034a1.109 1.109 0 011.234 1.09v8.266a1.099 1.099 0 01-2.196 0V9.774a.983.983 0 00-.626-.906.984.984 0 00-1.093.293A74.898 74.898 0 0146.34 21.084a.969.969 0 001.184 1.534A76.77 76.77 0 0058.37 12.417a3.04 3.04 0 003.032 2.898 3.039 3.039 0 003.035-3.035V4.014c0-.87-.374-1.7-1.026-2.276z"/></g><defs><clipPath id="clip0"><path fill="#fff" transform="translate(.504 .979)" d="M0 0h66v66H0z"/></clipPath></defs></svg>