<svg width="69" height="70" fill="none" xmlns="http://www.w3.org/2000/svg"><g clip-path="url(#clip0)" fill="#000"><path d="M5.781 10.255c1.327 0 1.33-2.022 0-2.022-1.327 0-1.329 2.022 0 2.022zm3.563 0c1.327 0 1.329-2.022 0-2.022-1.327 0-1.33 2.022 0 2.022zm3.564 0c1.327 0 1.33-2.022 0-2.022-1.327 0-1.33 2.022 0 2.022z"/><path d="M67.217 4.381H1.209c-.55 0-.996.453-.996 1.011v58.623c0 .558.446 1.01.996 1.01h66.008c.55 0 .996-.452.996-1.01V5.392c0-.558-.446-1.01-.996-1.01zm-.996 2.022V12.1a228.32 228.32 0 01-6.8-.014c-1.28-.016-1.318 2-.032 2.02 1.346.023 6.832.016 6.832.016v15.483H2.205V14.109l51.184-.002c1.295-.003 1.264-1.96-.005-2.022-17.034.044-34.246.045-51.179.003V6.403h64.016zM2.205 31.626h20.032v5.962c0 1.265 1.992 1.323 1.992 0v-5.962h19.984v31.378H24.229V43.41c0-1.265-1.992-1.323-1.992 0v19.595H2.204V31.627zm44 31.378V31.627h20.016v31.377H46.205z"/><path d="M49.154 19.138H19.27c-1.247 0-1.304 2.022 0 2.022h29.883c1.246 0 1.303-2.022 0-2.022zm-5.512 4.365h-18.86c-1.246 0-1.303 2.021 0 2.021h18.86c1.246 0 1.303-2.021 0-2.021zM10.43 43.045c.47.395.94.395 1.41 0l4.673-4.742c.882-.894-.487-2.364-1.409-1.43l-3.969 4.028L9.4 39.14c-.882-.894-2.33.494-1.41 1.43l2.44 2.475zm-3.876 5.832H17.95c1.246 0 1.303-2.022 0-2.022H6.554c-1.247 0-1.303 2.022 0 2.022zm11.396 2.38H6.555c-1.247 0-1.303 2.022 0 2.022H17.95c1.246 0 1.303-2.022 0-2.022zm-2.39 4.403H8.945c-1.247 0-1.304 2.021 0 2.021h6.615c1.246 0 1.303-2.021 0-2.021zm16.832-12.615c.47.395.939.395 1.408 0l4.674-4.742c.881-.894-.487-2.364-1.409-1.43l-3.969 4.028-1.736-1.76c-.88-.895-2.33.493-1.408 1.428l2.44 2.476zm-3.877 5.832H39.91c1.247 0 1.304-2.022 0-2.022H28.515c-1.247 0-1.303 2.022 0 2.022zm0 4.402H39.91c1.247 0 1.304-2.022 0-2.022H28.515c-1.247 0-1.303 2.022 0 2.022zm9.005 2.381h-6.615c-1.246 0-1.303 2.021 0 2.021h6.616c1.246 0 1.303-2.021 0-2.021zm16.848-12.615c.47.395.94.395 1.409 0l4.673-4.742c.882-.894-.487-2.364-1.408-1.43l-3.97 4.028-1.735-1.76c-.881-.895-2.33.493-1.409 1.428l2.44 2.476zm7.52 3.81H50.491c-1.246 0-1.303 2.022 0 2.022h11.397c1.247 0 1.303-2.022 0-2.022zm0 4.402H50.491c-1.246 0-1.303 2.022 0 2.022h11.397c1.247 0 1.303-2.022 0-2.022zm-2.391 4.403h-6.615c-1.246 0-1.303 2.021 0 2.021h6.615c1.247 0 1.304-2.021 0-2.021z"/></g><defs><clipPath id="clip0"><path fill="#fff" transform="translate(.213 .204)" d="M0 0h68v69H0z"/></clipPath></defs></svg>