<svg width="73" height="73" fill="none" xmlns="http://www.w3.org/2000/svg"><g clip-path="url(#clip0)" fill="#000"><path d="M6.15 11.192c1.406 0 1.408-2.11 0-2.11-1.405 0-1.407 2.11 0 2.11zm3.774 0c1.405 0 1.407-2.11 0-2.11-1.405 0-1.408 2.11 0 2.11zm3.773 0c1.405 0 1.408-2.11 0-2.11-1.405 0-1.407 2.11 0 2.11z"/><path d="M71.201 5.063H1.311c-.583 0-1.055.472-1.055 1.055V67.29c0 .582.472 1.054 1.055 1.054h57.058c1.32 0 1.38-2.11 0-2.11H2.365V47.03h67.782v19.205h-6.154c-1.32 0-1.38 2.11 0 2.11H71.2c.583 0 1.055-.473 1.055-1.055V6.118c0-.583-.472-1.055-1.055-1.055zm-1.054 2.11v5.93H2.365v-5.93h67.782zM2.365 40.627c4.273-.68 5.717-4.574 5.72-8.377.002-3.186.004-6.48 2.567-8.173 1.102-.727-.01-2.52-1.162-1.76-3.51 2.318-3.512 6.54-3.515 9.932-.002 2.675-.615 5.483-3.61 6.222v-23.26h15.29c-.437 1.371-1.335 2.564-2.681 3.557-1.063.783.147 2.512 1.251 1.698 1.895-1.397 3.131-3.2 3.616-5.256h50.306v13.366c-3.088.563-5.213 3.038-6.074 5.953-.845 2.857-1.84 3.128-3.219 3.503-3.334.907-4.975 3.502-4.889 6.888h-53.6v-4.293zm55.713 4.293c-.077-2.443.928-4.2 3.33-4.853 1.645-.447 3.51-.954 4.688-4.94.913-3.092 2.852-4.08 4.05-4.395V44.92H58.079z"/><path d="M59.6 52.453H12.913c-1.32 0-1.38 2.11 0 2.11H59.6c1.32 0 1.38-2.11 0-2.11zM21.35 58.86c-1.32 0-1.38 2.11 0 2.11h29.813c1.32 0 1.38-2.11 0-2.11H21.35zm28.278-31.91c1.226-.488.502-2.469-.78-1.959l-4.297 1.712c-4.45-8.961-17.942-5.987-18.083 4.153 0 1.001.156 1.967.444 2.875l-4.279 1.705c-1.232.49-.485 2.464.78 1.96l4.358-1.737c5.648 9.252 19.726 3.754 17.486-6.967l4.371-1.741zm-21.05 3.906c.102-7.814 10.448-10.198 14.007-3.37l-13.707 5.461a7.388 7.388 0 01-.3-2.091zm14.818 0c-.066 7.414-9.653 10.139-13.636 4.01l13.509-5.381c.083.444.127.902.127 1.37zm-20.76-5.315c-1.357 0-1.36 2.11 0 2.11 1.357 0 1.36-2.11 0-2.11zm27.006 6.182c-1.357 0-1.36 2.109 0 2.109 1.357 0 1.36-2.11 0-2.11zm-24.283-8.755c1.357 0 1.36-2.109 0-2.109-1.358 0-1.36 2.11 0 2.11z"/></g><defs><clipPath id="clip0"><path fill="#fff" transform="translate(.256 .704)" d="M0 0h72v72H0z"/></clipPath></defs></svg>