<svg width="71" height="70" fill="none" xmlns="http://www.w3.org/2000/svg"><g clip-path="url(#clip0)" fill="#000"><path d="M69.762 4.381H1.812c-.566 0-1.025.453-1.025 1.011v58.623c0 .558.46 1.01 1.026 1.01h50.6c1.283 0 1.342-2.02 0-2.02H47.62V48.04h21.117v14.963H57.881c-1.284 0-1.342 2.022 0 2.022h11.88c.567 0 1.026-.453 1.026-1.01V5.391c0-.558-.459-1.01-1.025-1.01zm-22.143 9.726h21.117v14.945H47.62V14.107zm21.117-7.704v5.683H2.838V6.402h65.898zM2.838 63.004V39.566h9.58c1.283 0 1.341-2.021 0-2.021h-9.58V14.107h42.73v23.492l-26.532-.054c-1.306.063-1.337 2.019-.004 2.021l26.536.054v23.384H2.838zM47.619 46.02V31.074h21.117V46.02H47.62z"/><path d="M6.485 10.255c1.32 0 1.321-2.022 0-2.022-1.32 0-1.322 2.022 0 2.022zm3.668 0c1.32 0 1.321-2.022 0-2.022-1.32 0-1.322 2.022 0 2.022zm3.669 0c1.32 0 1.322-2.022 0-2.022-1.319 0-1.321 2.022 0 2.022zM8.928 21.294h29.77c1.284 0 1.342-2.021 0-2.021H8.929c-1.283 0-1.342 2.021 0 2.021zm0 5.436h29.77c1.284 0 1.342-2.02 0-2.02H8.929c-1.283 0-1.342 2.02 0 2.02zm20.132 4.426c0-.558-.46-1.01-1.026-1.01H8.928c-1.283 0-1.342 2.021 0 2.021h19.106c.566 0 1.025-.453 1.025-1.01zm9.639 13.71H25.06c-1.284 0-1.342 2.022 0 2.022h13.638c1.283 0 1.341-2.022 0-2.022zm0 5.436H25.06c-1.284 0-1.342 2.022 0 2.022h13.638c1.283 0 1.341-2.022 0-2.022zm-5.197 5.437h-8.441c-1.284 0-1.342 2.021 0 2.021h8.441c1.284 0 1.342-2.021 0-2.021zM19.328 44.866h-10.4c-.567 0-1.026.453-1.026 1.01V56.75c0 .558.46 1.01 1.026 1.01h10.4c.567 0 1.026-.452 1.026-1.01V45.877c0-.559-.46-1.011-1.026-1.011zm-1.025 10.873h-8.35v-8.851h8.35v8.85zM63.45 18.33H52.784c-1.283 0-1.341 2.021 0 2.021H63.45c1.284 0 1.342-2.021 0-2.021zm-2.735 4.761h-7.93c-1.283 0-1.341 2.022 0 2.022h7.93c1.283 0 1.341-2.022 0-2.022zM63.45 34.98H52.784c-1.283 0-1.341 2.02 0 2.02H63.45c1.284 0 1.342-2.02 0-2.02zm-2.735 4.761h-7.93c-1.283 0-1.341 2.022 0 2.022h7.93c1.283 0 1.341-2.022 0-2.022zM52.787 53.65h10.664c1.283 0 1.342-2.021 0-2.021H52.787c-1.283 0-1.341 2.021 0 2.021zm0 4.762h7.93c1.283 0 1.341-2.022 0-2.022h-7.93c-1.283 0-1.341 2.022 0 2.022z"/></g><defs><clipPath id="clip0"><path fill="#fff" transform="translate(.787 .204)" d="M0 0h70v69H0z"/></clipPath></defs></svg>