<svg width="75" height="75" fill="none" xmlns="http://www.w3.org/2000/svg"><path d="M57.091 15.03a1 1 0 01-.825-.435 19.492 19.492 0 00-1.8-2.244 1 1 0 011.462-1.364 21.381 21.381 0 011.982 2.476 1.002 1.002 0 01-.823 1.566h.004zm-7.2 40.85h-23.96a1 1 0 01-1-1v-.44c0-4.814-1.541-6.613-4.609-10.2-.337-.394-.689-.8-1.056-1.24a24.442 24.442 0 01-5.725-15.69 24.367 24.367 0 0125.7-24.33 23.85 23.85 0 0110.416 3.015 1 1 0 01-.973 1.747 21.876 21.876 0 00-9.546-2.765A22.366 22.366 0 0015.541 27.31a22.435 22.435 0 005.256 14.407c.362.43.711.837 1.044 1.226 2.96 3.457 4.95 5.781 5.083 10.937h21.987c.219-5.33 2.239-7.672 5.745-11.733l.208-.24a22.28 22.28 0 005.129-11.057 1 1 0 111.976.312 24.286 24.286 0 01-5.59 12.046l-.209.242c-3.625 4.2-5.279 6.115-5.279 11.426a1 1 0 01-1 1.004zM60.919 24.2a1 1 0 01-.983-.822c-.17-.935-.4-1.859-.69-2.765a1 1 0 011.907-.608c.314.988.565 1.995.75 3.015a.999.999 0 01-.984 1.18z" fill="#000"/><path d="M51.922 63.227H23.9a2.123 2.123 0 01-2.12-2.12V56a2.123 2.123 0 012.12-2.121h28.022A2.123 2.123 0 0154.043 56v5.107a2.123 2.123 0 01-2.12 2.12zM23.9 55.88a.121.121 0 00-.12.12v5.107a.12.12 0 00.12.12h28.022a.12.12 0 00.121-.12V56a.12.12 0 00-.12-.121H23.9z" fill="#000"/><path d="M44.168 72.95H31.652a3.5 3.5 0 01-3.5-3.5v-7.224a1 1 0 011-1h17.515a1 1 0 011 1v7.223a3.5 3.5 0 01-3.499 3.5zm-14.015-9.724v6.223a1.5 1.5 0 001.5 1.5h12.515a1.5 1.5 0 001.5-1.5v-6.223H30.153z" fill="#000"/><path d="M29.157 67.71H23.9a1 1 0 010-2h5.257a1 1 0 010 2zm22.764 0h-5.257a1 1 0 110-2h5.257a1 1 0 010 2zm-7.535-34.238a1 1 0 01-.707-1.707l4.816-4.816-4.816-4.816a1 1 0 011.414-1.414l5.523 5.523a1 1 0 010 1.414l-5.523 5.523a1 1 0 01-.707.293zm-12.953 0a1 1 0 01-.707-.293l-5.523-5.523a1 1 0 010-1.414l5.523-5.523a1 1 0 011.414 1.414l-4.816 4.816 4.816 4.816a1 1 0 01-.707 1.707zm4.337 4.478a1.016 1.016 0 01-.568-.177 1 1 0 01-.41-1.033l4.282-20.007a.999.999 0 011.818-.334 1 1 0 01.138.753l-4.282 20.01a1 1 0 01-.977.788z" fill="#000"/></svg>