<svg width="69" height="70" fill="none" xmlns="http://www.w3.org/2000/svg"><path d="M2.156 63.289H9.79a.809.809 0 00.808-.809v-1.668h.953a11.06 11.06 0 015.838 1.663c2.049 1.271 4.334 1.377 6.691 1.377h6.213a2.93 2.93 0 002.398-4.616 2.937 2.937 0 00.577-4.723 2.999 2.999 0 00.592-3.58h5.552a2.804 2.804 0 000-5.606H23.698a.836.836 0 01-.832-.747 7.37 7.37 0 01.425-3.374 10.68 10.68 0 00.683-3.76v-.73a4.407 4.407 0 00-4.403-4.402.809.809 0 00-.8.686l-.403 2.64a17.309 17.309 0 01-3.047 7.455 4.49 4.49 0 01-3.622 1.846h-1.102v-1.99a.809.809 0 00-.808-.81H2.156a.808.808 0 00-.808.81v19.53a.809.809 0 00.808.808zm9.543-16.73a6.114 6.114 0 004.932-2.516 18.936 18.936 0 003.334-8.159l.287-1.868a2.79 2.79 0 012.104 2.7v.731a9.05 9.05 0 01-.58 3.19 8.993 8.993 0 00-.518 4.12 2.45 2.45 0 002.44 2.187h15.713a1.186 1.186 0 010 2.373h-9.845c-.04 0-.08.004-.119.01h-1.185a.808.808 0 100 1.617h2.936a1.39 1.39 0 110 2.78h-2.936a.809.809 0 100 1.617h3.004a1.323 1.323 0 110 2.647h-4.33a.808.808 0 000 1.618h3.356a1.314 1.314 0 110 2.629H24.08c-2.113 0-4.15-.087-5.838-1.133a12.682 12.682 0 00-6.69-1.907h-.953V46.559h1.1zm-8.734-2.8H8.98v17.913H2.965V43.759zM66.843 5.894H59.21a.809.809 0 00-.808.809V8.37h-.952a11.064 11.064 0 01-5.839-1.663c-2.048-1.271-4.334-1.377-6.69-1.377h-6.213a2.93 2.93 0 00-2.398 4.616 2.938 2.938 0 00-.577 4.723 3 3 0 00-.592 3.58h-5.552a2.803 2.803 0 100 5.606H45.3a.836.836 0 01.832.747 7.37 7.37 0 01-.425 3.374 10.654 10.654 0 00-.682 3.76v.73a4.407 4.407 0 004.402 4.402.809.809 0 00.8-.686l.404-2.64a17.309 17.309 0 013.046-7.455A4.49 4.49 0 0157.3 24.24h1.1v1.991a.809.809 0 00.81.809h7.632a.809.809 0 00.808-.809V6.702a.808.808 0 00-.808-.808zM57.3 22.624a6.112 6.112 0 00-4.933 2.516 18.936 18.936 0 00-3.334 8.158l-.287 1.87a2.79 2.79 0 01-2.104-2.702v-.73c0-1.09.196-2.17.58-3.19a8.993 8.993 0 00.518-4.12 2.451 2.451 0 00-2.44-2.187H29.588a1.186 1.186 0 010-2.373h9.845c.04 0 .08-.003.12-.01h1.184a.808.808 0 100-1.617h-2.936a1.391 1.391 0 110-2.78h2.937a.808.808 0 000-1.617h-3.004a1.324 1.324 0 010-2.648h4.33a.808.808 0 100-1.617h-3.357a1.314 1.314 0 110-2.629h6.213c2.114 0 4.15.087 5.838 1.133A12.681 12.681 0 0057.45 9.99h.953v12.635H57.3zm8.733 2.8H60.02V7.511h6.015v17.913zM30.424 37.386c.344 0 .462-.16.5-.296l.277-1.017h1.697l.277 1.018c.039.135.157.297.5.297.376 0 .92-.24.92-.614a.497.497 0 00-.02-.113l-1.595-5.205c-.094-.298-.46-.491-.934-.491-.474 0-.841.193-.935.491l-1.588 5.207a.484.484 0 00-.02.11c0 .375.546.613.921.613zm1.087-2.472l.535-1.963.534 1.963h-1.07zm4.089 2.473h1.51c1.398 0 2.167-.74 2.167-2.081v-2.21c0-1.342-.77-2.081-2.166-2.081H35.6c-.37 0-.648.201-.648.468v5.435c0 .267.278.469.648.469zm2.21-2.081c0 .521-.235.786-.7.786h-.692V32.31h.692c.465 0 .7.264.7.786v2.21z" fill="#000"/><path d="M33.651 43.905A9.323 9.323 0 1035.5 25.352a9.323 9.323 0 00-1.849 18.553zm-6.744-10.022a7.697 7.697 0 0112.54-5.192 7.695 7.695 0 11-12.54 5.192z" fill="#000"/></svg>