<svg width="64" height="63" fill="none" xmlns="http://www.w3.org/2000/svg"><path d="M3.482 38.84a.723.723 0 00-.18.57l2.644 21.332a.723.723 0 00.243.456c.135.118.31.183.49.183h11.895a.749.749 0 00.593-.295.72.72 0 00.112-.644l-1.562-5.046 4.867-3.028a2.975 2.975 0 012.183-.263l9.9 1.795c2.69.473 5.464.088 7.916-1.1a.743.743 0 00.09-.052l17.124-11.571a.717.717 0 00.215-.974 4.692 4.692 0 00-2.79-2.08 4.767 4.767 0 00-3.477.393l-.292.155c-1.179-1.408-3.222-1.953-4.778-1.177l-.017.008-.688.365a5.303 5.303 0 00-5.992-.533l-3.71 1.986h-4.94a7.226 7.226 0 01-3.086-.696l-.68-.323a11.816 11.816 0 00-12.126 1.165.628.628 0 00-.047.038l-1.64 1.436a5.711 5.711 0 01-2.146 1.178l-.931-3.008a.726.726 0 00-.267-.372.746.746 0 00-.44-.142h-7.93a.749.749 0 00-.553.245zm45.868-.054c.9-.444 2.033-.08 2.757.6l-6.493 3.447-.382.198a5.516 5.516 0 00-.89-1.59l5.008-2.655zm-6.659-.18l.018-.01a3.8 3.8 0 013.819.036l-3.301 1.751a5.657 5.657 0 00-2.109-.934l1.573-.843zm-25.96 3.42l1.617-1.417a10.323 10.323 0 0110.572-1l.68.322a8.728 8.728 0 003.728.842h6.587a4.207 4.207 0 012.65.942 4.088 4.088 0 011.436 2.387l-4.774-.213a29.03 29.03 0 00-5.195.236.741.741 0 00-.487.282.718.718 0 00.143 1.017.747.747 0 00.546.14 27.498 27.498 0 014.926-.223l5.618.25h.033a.744.744 0 00.522-.212.72.72 0 00.217-.514 5.07 5.07 0 00-.013-.35l.77-.4 8.14-4.32a3.27 3.27 0 012.045-.343 3.248 3.248 0 011.835.955L41.882 51.52a11.49 11.49 0 01-6.95.95l-9.876-1.79a4.464 4.464 0 00-3.244.449l-4.542 2.826-3.236-10.445a7.2 7.2 0 002.697-1.484zm-5.313-1.977l6.159 19.879H7.332L4.87 40.048h6.55z" fill="#000"/><path d="M12.004 59.209c.46 0 .91-.134 1.291-.386a2.268 2.268 0 00.989-2.348 2.277 2.277 0 00-.636-1.171 2.358 2.358 0 00-2.533-.496 2.316 2.316 0 00-1.044.843 2.261 2.261 0 00.29 2.887c.436.43 1.027.67 1.643.671zm0-3.122a.843.843 0 01.783.515.821.821 0 01-.184.91.852.852 0 01-.923.18.844.844 0 01-.38-.307.825.825 0 01.105-1.053.856.856 0 01.599-.245zM15.63 5.172a3.803 3.803 0 00-2.654 1.094 3.682 3.682 0 00-1.097 2.618c0 .98.394 1.921 1.097 2.617a3.802 3.802 0 002.653 1.095l.058-.002 1.804 13.35v3.888a.72.72 0 00.216.514.744.744 0 00.522.213h26.955a.744.744 0 00.522-.213.72.72 0 00.216-.514v-3.888l1.804-13.35.058.002a3.817 3.817 0 002.338-.793 3.712 3.712 0 001.339-2.046c.2-.81.118-1.663-.234-2.422a3.744 3.744 0 00-1.705-1.761 3.831 3.831 0 00-2.448-.346 3.792 3.792 0 00-2.14 1.217 3.676 3.676 0 00-.217 4.593l-5.458 4.116-5.178-6.758a3.709 3.709 0 001.254-1.867 3.656 3.656 0 00-.065-2.237 3.718 3.718 0 00-1.36-1.794 3.816 3.816 0 00-4.336-.05 3.722 3.722 0 00-1.4 1.764 3.656 3.656 0 00-.117 2.235 3.71 3.71 0 001.21 1.895l-5.558 6.809-5.057-4.05A3.66 3.66 0 0019 7.218a3.733 3.733 0 00-1.39-1.494 3.815 3.815 0 00-1.98-.553zm-2.296 3.712c0-.371.092-.737.27-1.064.177-.328.433-.607.746-.814a2.318 2.318 0 012.15-.214c.35.14.658.364.898.65a2.224 2.224 0 01.43 2.085c-.107.355-.302.68-.567.943a.735.735 0 00-.348.285 2.308 2.308 0 01-.702.31.749.749 0 00-.135.034 2.33 2.33 0 01-1.904-.469 2.263 2.263 0 01-.619-.78 2.226 2.226 0 01-.22-.966h.001zm5.634 20.222v-2.484h25.478v2.484H18.968zM47.784 6.625a2.327 2.327 0 011.703.74 2.226 2.226 0 01.297 2.632 2.27 2.27 0 01-.63.702 2.313 2.313 0 01-1.817.4.749.749 0 00-.135-.033 2.292 2.292 0 01-1.321-.922 2.23 2.23 0 01.388-2.958 2.311 2.311 0 011.515-.561zm-16.077-3.37c.513 0 1.01.17 1.415.48.404.311.69.747.813 1.237.123.49.076 1.006-.134 1.466-.21.46-.571.839-1.025 1.074a.737.737 0 00-.172.081 2.317 2.317 0 01-1.764.012l-.014-.012a.739.739 0 00-.292-.14 2.267 2.267 0 01-.957-1.096 2.224 2.224 0 01-.085-1.443c.134-.477.423-.898.823-1.198.4-.3.889-.461 1.392-.46zM23.82 16.904a.747.747 0 00.576-.272l6.182-7.575a3.822 3.822 0 002.177.023l5.773 7.534a.737.737 0 00.59.29c.162 0 .32-.053.449-.15l6.243-4.708c.15.09.307.171.469.24L44.538 25.17H18.876l-1.74-12.883c.138-.06.273-.128.403-.203l5.815 4.657a.746.746 0 00.466.163z" fill="#000"/><path d="M27.252 22.84c.363 0 .487-.167.527-.307l.3-1.084h1.842l.3 1.085c.04.14.164.306.526.306.4 0 .98-.249.98-.639a.512.512 0 00-.022-.117l-1.715-5.507c-.1-.311-.49-.512-.995-.512-.504 0-.895.2-.994.512l-1.707 5.51a.501.501 0 00-.02.114c0 .39.58.639.978.639zm1.154-2.595l.59-2.129.588 2.129h-1.178zm4.416 2.595h1.624c1.495 0 2.319-.778 2.319-2.191V18.31c0-1.414-.824-2.192-2.319-2.192h-1.624c-.39 0-.685.209-.685.485v5.75c0 .277.294.486.685.486zm2.387-2.191c0 .55-.264.842-.764.842h-.755v-4.023h.755c.5 0 .764.291.764.843v2.338z" fill="#000"/></svg>