<svg width="66" height="68" fill="none" xmlns="http://www.w3.org/2000/svg"><path d="M10.574 65.093a.79.79 0 00.255.493.767.767 0 00.513.197h10.293a.764.764 0 00.621-.318.791.791 0 00.119-.696l-1.323-4.405 4.121-2.645a2.37 2.37 0 011.796-.217l8.567 1.601c2.356.428 4.786.08 6.933-.993a.778.778 0 00.095-.057l14.817-10.327a.795.795 0 00.225-1.052 4.21 4.21 0 00-2.494-1.92 4.146 4.146 0 00-3.108.364l-.157.086c-1.07-1.24-2.857-1.705-4.227-1a.946.946 0 00-.018.009l-.516.282a4.606 4.606 0 00-5.266-.432l-3.18 1.755h-4.238a5.964 5.964 0 01-2.612-.607l-.588-.289a10.084 10.084 0 00-10.682 1.095L19.102 47.3a4.774 4.774 0 01-1.678.983l-.768-2.555a.785.785 0 00-.28-.402.766.766 0 00-.46-.154H9.055a.764.764 0 00-.58.265.788.788 0 00-.188.615l2.287 19.04zM48.327 45.6c.67-.34 1.504-.103 2.09.386l-5.448 2.984-.194.104a5.105 5.105 0 00-.64-1.181l4.192-2.293zm-5.76-.162l.019-.01a3.078 3.078 0 012.955-.089l-2.565 1.403a4.955 4.955 0 00-1.47-.72l1.062-.584zM20.13 48.473l1.395-1.26a8.562 8.562 0 019.004-.877l.588.29a7.499 7.499 0 003.286.764h5.699c.777 0 1.53.266 2.14.754a3.528 3.528 0 011.226 1.936l-3.956-.182a24.503 24.503 0 00-4.52.212.768.768 0 00-.517.301.793.793 0 00.151 1.107.77.77 0 00.579.147 22.967 22.967 0 014.237-.198l4.861.223.035.001a.768.768 0 00.547-.23.791.791 0 00.227-.555c0-.079-.003-.156-.006-.233l.59-.316 7.042-3.856a2.623 2.623 0 013.085.406l-14.088 9.82a9.538 9.538 0 01-5.921.832l-8.542-1.597a3.892 3.892 0 00-2.907.418l-3.781 2.427-2.71-9.022a6.315 6.315 0 002.256-1.312zm-4.786-1.73l5.246 17.47h-8.563l-2.099-17.47h5.416z" fill="#000"/><path d="M15.95 63.845c.425 0 .84-.128 1.193-.367.352-.24.627-.58.79-.978a2.209 2.209 0 00-.465-2.374 2.115 2.115 0 00-2.338-.472 2.153 2.153 0 00-.964.802 2.202 2.202 0 00.268 2.75c.402.408.948.638 1.517.639zm0-2.787a.593.593 0 01.554.376.617.617 0 01-.13.662.595.595 0 01-.921-.092.615.615 0 01.074-.767.595.595 0 01.424-.178zm10.881-37.695c.361 0 .485-.171.525-.316l.296-1.103h1.816l.296 1.104c.04.144.164.314.524.314.397 0 .972-.255.972-.654a.542.542 0 00-.02-.12l-1.698-5.62c-.098-.319-.486-.525-.987-.525-.5 0-.888.206-.987.526L25.88 22.59a.522.522 0 00-.02.117c0 .4.576.655.972.655zm1.146-2.655l.578-2.154.578 2.154h-1.156zm4.365 2.655h1.606c1.48 0 2.296-.796 2.296-2.24v-2.385c0-1.444-.816-2.24-2.296-2.24h-1.606c-.389 0-.682.215-.682.499v5.867c0 .285.293.499.682.499zm2.358-2.24c0 .568-.253.856-.752.856h-.743v-4.097h.743c.499 0 .752.288.752.856v2.386z" fill="#000"/><path d="M31.235 30.143a9.493 9.493 0 005.331-1.641A9.71 9.71 0 0040.1 24.13a9.877 9.877 0 00.546-5.627 9.787 9.787 0 00-2.626-4.988 9.552 9.552 0 00-4.912-2.665 9.463 9.463 0 00-5.544.554 9.627 9.627 0 00-4.306 3.587 9.846 9.846 0 001.196 12.296 9.534 9.534 0 006.781 2.856zm0-17.91c1.592 0 3.148.479 4.472 1.377a8.145 8.145 0 012.964 3.666 8.284 8.284 0 01.458 4.72 8.21 8.21 0 01-2.202 4.184 8.012 8.012 0 01-4.121 2.236 7.936 7.936 0 01-4.65-.465 8.075 8.075 0 01-3.612-3.01 8.258 8.258 0 011.003-10.313 7.997 7.997 0 015.688-2.395zm.444 20.948a.768.768 0 00-.547.23.792.792 0 00-.227.555v4.945a2.15 2.15 0 00-1.096.97 2.201 2.201 0 00-.233 1.455c.091.498.352.948.736 1.272a2.12 2.12 0 002.734 0 2.2 2.2 0 00.503-2.728 2.15 2.15 0 00-1.097-.968v-4.946a.791.791 0 00-.226-.555.768.768 0 00-.547-.23zm0 8.356a.586.586 0 01-.548-.372.611.611 0 01.129-.656.59.59 0 01.646-.13.608.608 0 01.192.981.59.59 0 01-.42.177zm-.774-35.941v2.17c0 .209.082.408.227.556a.768.768 0 001.094 0 .791.791 0 00.226-.556v-2.17a2.15 2.15 0 001.096-.97 2.2 2.2 0 00.234-1.455 2.179 2.179 0 00-.736-1.272 2.12 2.12 0 00-2.734 0 2.179 2.179 0 00-.736 1.272 2.201 2.201 0 00.233 1.456c.243.443.631.785 1.096.969zm.774-2.626a.586.586 0 01.548.372.61.61 0 01-.129.656.59.59 0 01-.646.13.608.608 0 01-.192-.982.59.59 0 01.419-.176zm11.993 17.111a.767.767 0 00-.547.23.79.79 0 000 1.11c.145.148.342.23.547.23h4.871c.18.473.518.867.955 1.113a2.115 2.115 0 002.687-.51 2.192 2.192 0 000-2.775 2.134 2.134 0 00-1.253-.748 2.112 2.112 0 00-1.434.237c-.437.247-.774.64-.955 1.113h-4.871zm6.864.183a.586.586 0 01.548.372.611.611 0 01-.128.656.59.59 0 01-1.013-.426c0-.16.063-.312.174-.425a.59.59 0 01.42-.177zm-35.072 2.775a2.12 2.12 0 001.208-.381c.355-.248.63-.598.785-1.006h2.139a.768.768 0 00.546-.23.791.791 0 000-1.11.768.768 0 00-.546-.23h-2.139a2.168 2.168 0 00-.686-.933 2.121 2.121 0 00-2.196-.257 2.147 2.147 0 00-.877.75 2.194 2.194 0 00.661 3.085 2.12 2.12 0 001.105.312zm0-2.774a.586.586 0 01.548.371.611.611 0 01-.129.656.59.59 0 01-1.012-.426c0-.16.063-.312.174-.425a.59.59 0 01.42-.177zm.581-13.514c.297 0 .591-.063.863-.185l5.266 5.345a.767.767 0 001.09-.005.791.791 0 00.004-1.105L18 5.454a2.2 2.2 0 00.126-1.36 2.176 2.176 0 00-.7-1.168 2.113 2.113 0 00-2.551-.162 2.17 2.17 0 00-.84 1.07 2.2 2.2 0 00-.04 1.367c.13.448.401.84.77 1.12.37.28.818.43 1.279.43zm-.42-2.598a.59.59 0 01.647-.13.596.596 0 01.366.556.609.609 0 01-.366.556.585.585 0 01-.647-.13.607.607 0 010-.852zm28.17 29.913c.276.28.621.478 1 .574a2.11 2.11 0 001.146-.033c.373-.117.707-.334.966-.63a2.204 2.204 0 00.408-2.206 2.17 2.17 0 00-.675-.942 2.111 2.111 0 00-2.193-.285l-1.513-1.535a.773.773 0 00-.548-.234.763.763 0 00-.55.23.788.788 0 00-.166.86c.04.095.098.182.17.255l1.511 1.533a2.2 2.2 0 00.444 2.413zm1.933-1.962a.607.607 0 01-.247 1.004.586.586 0 01-.696-.292.61.61 0 01.147-.75.589.589 0 01.796.038zm-23.37-2.282a.767.767 0 00-1.093 0l-3.444 3.495a2.11 2.11 0 00-2.19.286 2.17 2.17 0 00-.675.941 2.203 2.203 0 00.406 2.205c.259.295.592.512.964.63a2.109 2.109 0 002.145-.538 2.204 2.204 0 00.443-2.412l3.444-3.497a.791.791 0 000-1.11zm-4.98 5.908a.591.591 0 01-.647.13.596.596 0 01-.366-.556.608.608 0 01.366-.556.585.585 0 01.646.13.608.608 0 010 .852zm24.188-22.776a.763.763 0 00.547-.23l1.511-1.534a2.11 2.11 0 002.193-.285 2.17 2.17 0 00.675-.942 2.202 2.202 0 00-.406-2.206 2.136 2.136 0 00-.965-.63 2.11 2.11 0 00-2.146.54c-.305.31-.51.706-.589 1.136a2.21 2.21 0 00.145 1.275l-1.511 1.535a.79.79 0 00-.168.856.783.783 0 00.285.352.766.766 0 00.43.133zm2.502-4.177a.59.59 0 01.647-.13.595.595 0 01.366.556.608.608 0 01-.366.556.585.585 0 01-.647-.131.608.608 0 010-.85z" fill="#000"/></svg>