<svg width="72" height="72" fill="none" xmlns="http://www.w3.org/2000/svg"><path d="M59.904 56.375H22.139a.96.96 0 01-.96-.96V3.644a.96.96 0 01.96-.96h37.764a.96.96 0 01.96.96v51.773a.96.96 0 01-.96.959zm-36.805-1.919h35.845V4.603H23.099v49.853z" fill="#000"/><path d="M12.202 63.11a.96.96 0 01-.96-.96V10.36a7.684 7.684 0 017.676-7.676h3.224a.96.96 0 110 1.919h-3.224a5.763 5.763 0 00-5.757 5.756v51.792a.96.96 0 01-.96.96z" fill="#000"/><path d="M59.908 69.846H18.929a7.695 7.695 0 010-15.39h40.979a.96.96 0 01.96.96v13.47a.96.96 0 01-.96.96zM18.929 56.375a5.776 5.776 0 000 11.552h40.02V56.375h-40.02zm26.886-36.452c-.089-1.907-1.045-2.851-1.813-3.61-.831-.82-1.333-1.316-.86-2.939.215-.735-.08-1.12-.276-1.286-.243-.204-.676-.377-1.363-.035-.89.442-2.24 1.744-3.285 3.165-.959 1.304-2.083 3.258-1.994 5.156.066 1.42.665 2.721 1.643 3.637a3.934 3.934 0 00-.77 2.342c0 .556.113 1.086.318 1.567v15.794c0 1.922 1.556 3.486 3.47 3.486 1.912 0 3.468-1.564 3.468-3.486V28.442a3.965 3.965 0 00-.163-4.407c1.09-1.017 1.7-2.518 1.625-4.112zm-3.07 23.79c0 1.032-.835 1.87-1.86 1.87a1.867 1.867 0 01-1.861-1.87V29.752a3.93 3.93 0 001.394.497.8.8 0 00.122.01h.96a.798.798 0 00.122-.01c.053-.008.106-.018.158-.028l.1-.022.043-.01a3.91 3.91 0 00.822-.291v13.817zm-.638-15.309a2.89 2.89 0 01-.08.041l-.034.016a2.208 2.208 0 01-.106.047l-.042.017-.065.024-.034.012a2.87 2.87 0 01-.074.023l-.028.008a2.217 2.217 0 01-.082.021c-.008.002-.015.005-.023.006-.035.009-.07.016-.106.022h-.828a2.34 2.34 0 01-.23-.055l-.056-.017-.043-.014a2.327 2.327 0 01-.488-4.169l.051-.032c.053-.032.108-.062.164-.09l.017-.008a2.3 2.3 0 01.098-.045l.017-.006a2.315 2.315 0 01.669-.167l.042-.003a2.35 2.35 0 01.351 0l.042.003a2.327 2.327 0 01.662.165l.025.01a2.291 2.291 0 01.52.31 2.326 2.326 0 01-.339 3.881zm.884-5.46l-.053-.028a3.723 3.723 0 00-.128-.069l-.066-.034a3.88 3.88 0 00-.444-.185l-.025-.01a3.907 3.907 0 00-.231-.07h-.002a3.88 3.88 0 00-.486-.1l-.046-.005a3.73 3.73 0 00-.193-.02l-.058-.004a4.024 4.024 0 00-.476 0c-.018 0-.037.003-.056.004a3.76 3.76 0 00-.191.019l-.045.006c-.245.033-.483.09-.713.166l-.019.007a3.927 3.927 0 00-.215.08l-.018.007a4.23 4.23 0 00-.217.098l-.046.024a3.77 3.77 0 00-.145.077c-.014.008-.029.014-.042.022-.74-.632-1.197-1.583-1.245-2.63-.055-1.16.621-2.745 1.854-4.351a12.872 12.872 0 011.684-1.826c-.133 1.726.761 2.61 1.505 3.344.684.675 1.275 1.258 1.334 2.532.054 1.165-.404 2.251-1.217 2.947z" fill="#000"/></svg>