<svg width="79" height="79" fill="none" xmlns="http://www.w3.org/2000/svg"><path d="M34.863 38.572a5.615 5.615 0 00-3.924 1.604 5.473 5.473 0 00-1.643 3.868l-.018 4.12H27.67a7.803 7.803 0 00-5.474 2.241 7.606 7.606 0 00-2.27 5.404v13.287a7.606 7.606 0 002.27 5.403 7.803 7.803 0 005.474 2.242h5.017A7.804 7.804 0 0038.16 74.5a7.606 7.606 0 002.27-5.404V55.81a7.606 7.606 0 00-2.27-5.404 7.803 7.803 0 00-5.473-2.242h-1.558l.019-4.11a3.645 3.645 0 011.094-2.592 3.74 3.74 0 012.63-1.07 3.74 3.74 0 012.624 1.081 3.645 3.645 0 011.083 2.597v.21a5.468 5.468 0 001.632 3.885 5.61 5.61 0 003.935 1.612h.034a5.61 5.61 0 003.935-1.611 5.468 5.468 0 001.632-3.885v-6.73h4.507a.932.932 0 00.654-.267.908.908 0 00.272-.646V31.43a.908.908 0 00-.252-.626.931.931 0 00-.619-.286v-2.609l4.686-10.024a.904.904 0 00-.05-.859L49.8 2.226a.921.921 0 00-.79-.438.935.935 0 00-.791.438l-9.144 14.8a.906.906 0 00-.05.858l4.685 10.024v2.61a.93.93 0 00-.618.285.908.908 0 00-.252.626v5.207c0 .242.097.475.27.646.174.172.41.268.655.268h4.13v6.73a3.65 3.65 0 01-1.09 2.592 3.744 3.744 0 01-2.626 1.076h-.034a3.744 3.744 0 01-2.626-1.075 3.649 3.649 0 01-1.09-2.593v-.21a5.468 5.468 0 00-1.632-3.886 5.61 5.61 0 00-3.935-1.612zm-7.193 11.42h1.604v7.09h-7.497v-1.273a5.788 5.788 0 011.728-4.112 5.938 5.938 0 014.165-1.706zm5.017 24.921H27.67a5.937 5.937 0 01-4.165-1.706 5.787 5.787 0 01-1.728-4.112V58.91H38.58v10.186a5.787 5.787 0 01-1.728 4.112 5.937 5.937 0 01-4.164 1.706zm5.892-19.104v1.272h-7.454v-7.09h1.561a5.937 5.937 0 014.165 1.706 5.787 5.787 0 011.728 4.112zm13.879-25.294h-6.895v-1.893h6.895v1.893zM49.01 16.099a1.869 1.869 0 011.716 1.132 1.812 1.812 0 01-.402 1.999 1.88 1.88 0 01-2.024.398 1.852 1.852 0 01-.834-.676 1.818 1.818 0 01.232-2.315c.348-.344.82-.537 1.312-.538zm-.925-10.144v8.432a3.709 3.709 0 00-2.144 1.49 3.626 3.626 0 00.617 4.803c.678.59 1.55.915 2.452.915.903 0 1.775-.325 2.452-.915a3.626 3.626 0 00.617-4.803 3.709 3.709 0 00-2.143-1.49V5.955l7.171 11.606-4.316 9.232H45.23l-4.316-9.232 7.172-11.606zm-3.393 26.388h8.636v3.379h-8.636v-3.38z" fill="#000"/></svg>