<svg width="79" height="79" fill="none" xmlns="http://www.w3.org/2000/svg"><path d="M62.406 43.822a21.727 21.727 0 001.267-17.621.914.914 0 00-.337-.44.934.934 0 00-.532-.17l-5.789-.026 1.349-3.501a3.899 3.899 0 00-.354-3.204 3.963 3.963 0 00-1.104-1.201 4.021 4.021 0 00-1.5-.661.926.926 0 00-.113-.017l-.021-.002a4.12 4.12 0 00-3.106.62 4.18 4.18 0 00-1.191 1.206 4.122 4.122 0 00-.61 1.573l-.814 5.152-1.521-.007V4.226a.908.908 0 00-.271-.647.932.932 0 00-.655-.267H36.682a.932.932 0 00-.655.267.908.908 0 00-.27.647v21.24l-1.514-.007V14.804c0-.136-.03-.27-.09-.393l-4.215-8.73a.918.918 0 00-.342-.38.935.935 0 00-1.33.38l-4.215 8.73a.904.904 0 00-.09.393v10.607l-2.629-.012h-.004a.934.934 0 00-.511.151.917.917 0 00-.341.405 23.386 23.386 0 00-1.875 7.993c-.025.397-.035 3.761-.038 4.64l-4.387 11.348a1.91 1.91 0 00.216 1.784 1.97 1.97 0 001.611.836h5.909v6.6c0 .802.163 1.597.48 2.337a6 6 0 001.364 1.968c.584.56 1.275.997 2.033 1.288.758.29 1.567.429 2.38.405.407-.012 5.466-.034 8.63-.046l2.4 9.42c.05.197.166.372.329.497a.934.934 0 00.569.193h21.595a.936.936 0 00.734-.357.91.91 0 00.161-.793c-.036-.134-3.617-13.525-2.824-21.937.216-2.29 2.43-7.786 2.643-8.309zm-10.214-23.15a2.318 2.318 0 011.01-1.558 2.248 2.248 0 011.737-.337.926.926 0 00.114.017l.012.001a2.156 2.156 0 011.351.995 2.097 2.097 0 01.206 1.651l-1.584 4.114-3.615-.017.77-4.865zm-14.584.075h5.339a.932.932 0 00.654-.267.908.908 0 000-1.293.932.932 0 00-.654-.268h-5.34v-6.843h3.583a.932.932 0 00.655-.267.908.908 0 000-1.293.932.932 0 00-.655-.268h-3.582V5.14h8.57v20.374l-8.57-.04v-4.727zM29.102 8.2l3 6.211h-6l3-6.21zm-3.29 8.04h6.58v9.211l-6.58-.03v-9.182zm34.69 57.15H40.819l-2.4-9.421a.913.913 0 00-.328-.498.933.933 0 00-.57-.193h-.003c-.36.001-8.83.032-9.405.05a4.276 4.276 0 01-1.655-.283 4.232 4.232 0 01-1.412-.896 4.171 4.171 0 01-.948-1.368 4.129 4.129 0 01-.334-1.625v-7.513a.908.908 0 00-.27-.646.932.932 0 00-.655-.268h-6.835a.106.106 0 01-.086-.045.103.103 0 01-.011-.095l4.448-11.505a.907.907 0 00.061-.323c.004-1.667.017-4.416.035-4.707.125-2.34.631-4.643 1.498-6.823l2.679.012c.166.049.343.05.51.002l36.996.172a19.923 19.923 0 01-1.39 15.6.957.957 0 00-.037.08c-.103.252-2.535 6.205-2.785 8.865-.695 7.355 1.713 17.936 2.582 21.429z" fill="#000"/><path d="M53.302 9.22c-.281.365-.538.748-.77 1.146-.764 1.348-.794 2.974-.077 4.244 1.18 2.09 3.796 2.503 5.25 2.564a5.298 5.298 0 002.62-.536 5.226 5.226 0 001.872-1.547c1.12-1.476 1.395-3.397.755-5.274-.529-1.712-1.66-3.093-3.361-4.107a11.48 11.48 0 00-3.937-1.402c-1.414-.227-1.83-.063-2.105.32a.931.931 0 00-.058.98c.061.103.13.203.205.297.244.323.698.923.606 1.514-.085.552-.55 1.186-1 1.8zm1.5 1.071c.552-.753 1.178-1.607 1.33-2.596a3.026 3.026 0 00-.14-1.45c1.726.408 4.39 1.502 5.192 4.116l.01.029c.447 1.301.272 2.615-.479 3.605a3.422 3.422 0 01-1.294 1.04 3.467 3.467 0 01-1.639.313c-1.842-.078-3.16-.655-3.71-1.629-.406-.719-.377-1.662.083-2.473.195-.33.411-.65.646-.955z" fill="#000"/></svg>