<svg width="186" height="103" viewBox="0 0 186 103" fill="none" xmlns="http://www.w3.org/2000/svg">
<g clip-path="url(#clip0_124_5585)">
<path d="M139.887 61.6587C137.956 84.4679 117.611 102.502 92.9476 102.502C70.748 102.502 52.0536 87.8969 47.126 68.3897L52.5616 67.9833C58.937 84.4171 74.6596 96.0761 92.9476 96.0761C113.395 96.0761 130.615 81.4965 135.188 62.0143L139.887 61.6587Z" fill="white"/>
<path d="M13.9281 24.422L17.3318 24.4982V31.1276H2.24414V24.9554H3.23474C4.14924 25.0062 4.50474 24.422 4.50474 23.787V7.6326C4.53014 6.8198 3.99684 6.5912 3.10774 6.515L2.24414 6.4642V0.291992H17.3318V6.7436C17.3065 6.7436 17.2809 6.7436 17.2809 6.7436H13.9281V24.422ZM44.5353 27.6478H43.6717V31.1276H44.5353V27.6478ZM44.5353 17.1576V22.1614L42.3255 22.1868C42.3001 19.9008 41.7413 19.723 40.9793 19.723C40.2173 19.7484 39.6331 20.2818 39.6331 22.1614V27.8002H40.9031V31.1276H33.4862V27.8002H34.3752V20.3834H33.4862V17.0306H39.4045V18.7578C39.6839 18.072 41.1825 16.7258 43.1129 16.6496C43.2653 16.6496 43.9511 16.7766 44.5353 17.1576ZM17.3318 24.4982H17.535C21.5483 24.5998 20.6339 21.5264 20.6339 15.5828C20.6339 9.7154 21.4466 6.769 17.3318 6.7436V0.291992H21.1927C26.4504 0.291992 30.0826 3.8734 30.0826 5.6768L29.9809 25.8444C29.9809 28.8162 26.8059 31.1276 21.7769 31.1276H17.3318V24.4982ZM44.5353 22.1614V17.1576C44.9925 17.4624 45.3989 17.945 45.3989 18.707V22.1614H44.5353ZM44.5353 31.1276V27.6478H47.2785V31.1276H44.5353Z" fill="white"/>
<path d="M129.397 62.522C126.425 78.2445 111.947 90.2588 94.6498 90.2588C81.8736 90.2588 70.6468 83.7314 64.4492 74.0028C70.0626 78.397 80.121 90.4366 101.508 86.8299C93.2525 84.7216 83.1182 83.6802 72.9582 73.5202C96.8851 73.7995 114.208 68.2624 129.397 62.522Z" fill="white"/>
<path d="M56.8545 32.2199C57.0069 31.8135 57.1847 31.4325 57.3371 31.0261C57.9467 31.1277 58.5309 31.2547 59.1405 31.3817C59.9787 29.3243 60.8423 27.2923 61.6805 25.2349C62.3155 23.4569 62.9759 21.7043 63.7887 20.0025V25.0825C63.4331 25.7429 63.1029 26.3779 62.7473 27.0383C63.1029 27.1145 63.4331 27.1653 63.7887 27.2161V30.2641C63.0775 30.2387 62.3663 30.2133 61.6805 30.1879C61.1471 31.7881 60.6391 33.3883 60.1057 34.9885C59.0135 34.0741 57.9467 33.1597 56.8545 32.2199ZM79.9939 20.6629C81.2893 20.6883 82.5593 20.7391 83.8547 20.7645C84.8453 21.2471 85.8613 21.7297 86.8519 22.2123C86.7503 22.8981 86.6233 23.5839 86.4963 24.2697C86.0645 24.2189 85.6073 24.1935 85.1755 24.1427C84.8453 23.7871 84.5405 23.4315 84.2103 23.0759C83.8039 23.1775 83.3975 23.3045 83.0165 23.4315C82.7625 24.6253 82.5339 25.8445 82.2799 27.0383C82.6863 27.6479 83.0927 28.2575 83.4991 28.8417C82.8895 29.4005 82.2799 29.9847 81.6703 30.5435C80.8321 29.8831 79.9939 29.2481 79.1557 28.6131C79.5621 26.6065 79.9431 24.5999 80.3495 22.5933C80.2225 21.9329 80.1209 21.2979 79.9939 20.6629ZM73.9741 14.8717C74.5583 14.7193 75.1425 14.5923 75.7267 14.4399C75.9299 14.4145 76.1331 14.5161 76.1839 14.7193C76.2855 15.1765 76.3871 15.6591 76.5141 16.1163C76.5649 16.3195 76.4379 16.5227 76.2347 16.5481C75.6505 16.7005 75.0663 16.8275 74.4821 16.9799C74.3043 17.0307 74.1011 16.9037 74.0503 16.7259C73.9487 16.2433 73.8217 15.7861 73.7201 15.3035C73.6693 15.1257 73.7963 14.9225 73.9741 14.8717ZM72.0437 20.6629C73.3137 21.0947 74.6091 21.5265 75.9045 21.9837C75.8029 22.5425 75.7267 23.1013 75.6505 23.6601C75.3711 25.0825 75.0917 26.4795 74.8123 27.8765C75.5235 28.0035 76.2601 28.1305 76.9713 28.2575C75.9807 29.0957 74.9647 29.9339 73.9741 30.7721C73.2375 30.7467 72.5263 30.6959 71.7897 30.6451C72.1199 28.2067 72.4501 25.7683 72.7549 23.3045C72.3231 22.8727 71.8659 22.4155 71.4341 21.9837C71.6373 21.5265 71.8405 21.0947 72.0437 20.6629ZM104.073 24.3713C103.133 25.0317 102.219 25.6667 101.304 26.3271C101.457 27.0129 101.609 27.6733 101.787 28.3591C102.498 28.9687 103.235 29.5783 103.946 30.1879C103.997 30.1625 104.022 30.1371 104.073 30.1371V27.8003C103.92 27.8003 103.743 27.7749 103.591 27.7749C103.667 27.4447 103.743 27.1145 103.819 26.8097C103.92 26.7335 103.997 26.6827 104.073 26.6319V24.3713ZM104.073 12.6111V15.9131C103.819 16.0909 103.591 16.2687 103.337 16.4465C102.092 19.6977 100.847 22.9489 99.6027 26.2001C98.5613 27.1907 97.5449 28.2067 96.5039 29.2227C96.1737 27.8765 95.8685 26.5557 95.5387 25.2349C94.8275 25.7683 94.0909 26.2763 93.3797 26.8097C93.3797 27.3177 93.3797 27.8511 93.3797 28.3591C92.9733 28.5623 92.5669 28.7655 92.1601 28.9687C91.3223 27.8765 90.4841 26.8097 89.6205 25.7175C89.5185 23.0251 89.3919 20.3327 89.2649 17.6403C88.8331 16.7259 88.3759 15.7861 87.9441 14.8717C89.0617 13.8557 90.2047 12.8651 91.3223 11.8491C91.4747 14.8717 91.6525 17.8943 91.8049 20.8915C92.0843 20.8915 92.3637 20.8915 92.6431 20.8915C93.1257 20.2565 93.6083 19.6215 94.0909 18.9611C93.8877 18.2753 93.6845 17.6149 93.4813 16.9291C94.7767 16.1163 96.0717 15.3035 97.3421 14.5161C97.4945 16.8783 97.6469 19.2405 97.7993 21.6281C98.0025 21.7805 98.2057 21.9329 98.4085 22.1107C100.085 18.9357 101.787 15.7607 103.464 12.5857C103.667 12.5857 103.87 12.5857 104.073 12.6111ZM63.7887 20.0025C64.3983 18.7579 65.0841 17.5641 65.8969 16.4465C66.3795 16.3957 66.8621 16.3449 67.3447 16.3195C67.3447 20.9423 67.3447 25.5651 67.3447 30.1879C68.1067 30.8229 68.8687 31.4579 69.6307 32.0929C68.3861 32.9565 67.1415 33.7947 65.8969 34.6329C65.3635 33.1851 64.8555 31.7373 64.3221 30.2895C64.1443 30.2895 63.9665 30.2895 63.7887 30.2641V27.2161C64.1189 27.2923 64.4745 27.3431 64.8047 27.3939C64.6015 26.3525 64.3983 25.3111 64.1951 24.2697C64.0681 24.5491 63.9157 24.8031 63.7887 25.0825V20.0025ZM121.192 18.6055C122.463 18.6563 123.758 18.6817 125.028 18.7325C126.044 19.2151 127.035 19.6977 128.051 20.1803C127.923 20.8661 127.797 21.5265 127.695 22.2123C127.238 22.1869 126.806 22.1361 126.374 22.1107C126.044 21.7297 125.714 21.3741 125.409 21.0185C125.003 21.1455 124.596 21.2471 124.19 21.3741C123.961 22.5933 123.707 23.7871 123.479 25.0063C123.885 25.5905 124.266 26.2001 124.673 26.8097C124.063 27.3685 123.479 27.9273 122.869 28.4861C122.031 27.8511 121.192 27.1907 120.329 26.5557C120.735 24.5491 121.142 22.5425 121.548 20.5359C121.421 19.9009 121.294 19.2405 121.192 18.6055ZM115.656 12.8143C116.239 12.6873 116.824 12.5349 117.408 12.4079C117.611 12.3571 117.789 12.4841 117.84 12.6619C117.967 13.1445 118.069 13.6017 118.17 14.0843C118.221 14.2621 118.119 14.4653 117.916 14.5161C117.332 14.6431 116.748 14.7955 116.164 14.9225C115.96 14.9733 115.757 14.8463 115.732 14.6685C115.605 14.1859 115.503 13.7287 115.376 13.2715C115.325 13.0683 115.452 12.8651 115.656 12.8143ZM113.7 18.6055C114.995 19.0373 116.291 19.4945 117.56 19.9263C117.484 20.4851 117.408 21.0693 117.332 21.6281C117.053 23.0251 116.773 24.4221 116.494 25.8445C117.205 25.9461 117.916 26.0731 118.653 26.2001C117.636 27.0383 116.646 27.8765 115.63 28.7401C114.919 28.6893 114.182 28.6385 113.471 28.6131C113.801 26.1493 114.106 23.7109 114.436 21.2471C113.979 20.8153 113.547 20.3835 113.116 19.9263C113.319 19.4945 113.497 19.0373 113.7 18.6055ZM104.073 15.9131V12.6111C104.988 12.6365 105.927 12.6619 106.842 12.7127C106.842 13.1445 106.842 13.5763 106.842 14.0335C106.283 14.3891 105.724 14.7447 105.165 15.1003C104.784 15.3797 104.429 15.6337 104.073 15.9131ZM104.073 30.1371V27.8003C104.479 27.8257 104.86 27.8511 105.267 27.8765C105.673 27.1907 106.08 26.5303 106.486 25.8445C106.283 25.6667 106.08 25.5143 105.876 25.3619C105.267 25.7683 104.683 26.2001 104.073 26.6319V24.3713C105.038 23.6855 106.004 23.0251 106.969 22.3393C106.994 21.9075 107.045 21.4503 107.07 21.0185C106.766 20.8915 106.435 20.7645 106.105 20.6629C106.156 20.2057 106.207 19.7739 106.232 19.3421C107.654 19.3421 109.051 19.3421 110.448 19.3421C110.042 21.5265 109.661 23.7363 109.255 25.9461C109.534 26.4795 109.814 27.0129 110.093 27.5209C109.56 28.6385 109.051 29.7815 108.518 30.8991C107.934 30.2895 107.324 29.7053 106.714 29.0957C105.826 29.4259 104.962 29.7815 104.073 30.1371Z" fill="white"/>
<path d="M171.587 39.9161V41.3131L169.555 42.7609L168.895 41.7957L171.587 39.9161ZM171.587 37.0713V38.4937L168.234 40.8559L167.574 39.8907L171.587 37.0713ZM171.587 34.9123L166.558 38.4429L166.913 38.9509L171.587 35.6743V34.9123ZM171.587 15.7861V23.8379C170.875 23.6093 170.165 22.8981 169.478 23.1267L167.523 24.4729C167.117 25.0571 167.015 25.2095 167.472 25.9715L168.514 27.4701C169.149 28.0035 170.088 27.8511 170.875 27.2415L171.587 26.7335V31.9405L167.828 34.5821C166.151 35.4965 164.78 35.8267 162.747 33.8201L158.989 28.5115C158.608 27.9273 158.404 27.3431 158.379 26.7843V26.5049C158.43 25.7175 158.811 24.9555 159.572 24.2189L171.587 15.7861ZM170.215 43.7007L170.875 44.6659L171.587 44.1579V42.7355L170.215 43.7007ZM171.587 23.8379C171.612 23.8633 171.612 23.8633 171.612 23.8633L177.048 19.9771L173.289 14.5669L171.587 15.7861V23.8379ZM171.587 35.6743L172.984 34.6837C172.806 34.5313 172.679 34.3789 172.552 34.2519L171.587 34.9123V35.6743ZM177.962 35.4457V36.8681L171.587 41.3131V39.9161L177.962 35.4457ZM177.962 32.6263V34.0487L171.587 38.4937V37.0713L173.975 35.4203C174.305 35.5981 174.686 35.6997 175.041 35.6489L176.692 34.4805C177.073 34.1503 177.2 33.6423 177.15 33.1851L177.962 32.6263ZM177.962 23.0505V31.2039L176.667 32.1183L175.702 30.6705C175.168 30.0355 174.178 30.0863 173.263 30.7467L171.587 31.9405V26.7335L175.346 24.1681C176.337 23.4823 177.175 23.1267 177.962 23.0505ZM171.587 44.1579L177.962 39.6875V38.2905L171.587 42.7355V44.1579ZM177.962 31.2039L183.22 27.5209L180.807 24.1427C179.944 23.3553 179.029 22.9489 177.962 23.0505V31.2039ZM177.962 34.0487V32.6263L183.906 28.4607L184.566 29.4005L177.962 34.0487ZM177.962 36.8681V35.4457L185.201 30.3657C185.43 30.7467 185.582 31.1023 185.684 31.4325L177.962 36.8681ZM177.962 39.6875L184.439 35.1663C185.227 34.3281 185.709 33.5661 185.811 32.7787L177.962 38.2905V39.6875Z" fill="white"/>
<path d="M52.2066 63.1569V64.3257H42.8594C42.7324 64.1225 42.6054 63.9447 42.4784 63.7411C42.3514 63.5637 42.2244 63.3601 42.1228 63.1569H52.2066ZM52.2066 60.8451V61.9885H41.5386C41.3862 61.6329 41.2338 61.2265 41.0814 60.8451H52.2066ZM52.2066 43.4465V49.7457H52.1812C51.1144 49.8219 50.3016 50.2791 49.7682 51.1173C49.2348 51.9809 48.93 52.9207 48.8538 53.9621C48.8538 54.0383 48.8538 54.1145 48.8538 54.1653C48.8538 54.2415 48.8538 54.3177 48.8538 54.3939C48.8538 55.5877 49.1332 56.6291 49.6666 57.5689C50.2 58.5087 51.0382 59.0167 52.1812 59.0675H52.2066V59.6771H40.7258C40.3702 58.2801 40.1924 56.7815 40.1924 55.1813C40.1924 54.8257 40.1924 54.4193 40.2178 54.0129C40.2432 53.6065 40.294 53.2001 40.3448 52.7937C40.6242 50.3299 41.4624 48.0693 42.834 46.0119C44.231 43.9799 46.2884 42.9639 49.057 42.9639H49.438C50.4032 42.9639 51.343 43.1163 52.2066 43.4465ZM52.2066 66.9161C51.3684 67.2717 50.454 67.4241 49.438 67.4241L49.057 67.4749C46.9488 67.4494 45.2216 66.7891 43.85 65.4683H52.2066V66.9161ZM64.0176 65.4683V66.6363H55.28V65.4683H64.0176ZM52.2066 59.6771V59.0675C53.1718 59.0167 53.9846 58.5849 54.5942 57.7467C55.2292 56.9339 55.534 55.8163 55.534 54.3939C55.534 52.9969 55.2292 51.8793 54.5942 51.0411C53.9846 50.2283 53.1718 49.7965 52.2066 49.7457V43.4465C52.3082 43.4973 52.4098 43.5227 52.486 43.5735C53.4512 43.9799 54.391 44.7927 55.28 46.0119V43.8021H62.2904V57.2641C62.2142 59.0675 63.1794 59.0675 64.0176 59.0675V59.6771H52.2066ZM52.2066 61.9885V60.8451H64.0176V61.9885H52.2066ZM52.2066 64.3257V63.1569H64.0176V64.3257H52.2066ZM54.391 65.4683C53.9084 65.9255 53.375 66.3065 52.7908 66.6363C52.613 66.7387 52.4098 66.8399 52.2066 66.9161V65.4683H54.391Z" fill="white"/>
<path d="M120.431 63.2585V64.4523C119.567 64.3761 118.729 64.1983 117.941 63.9189L120.431 63.2585ZM120.431 60.8451V62.0647L116.341 63.1569C115.935 62.9025 115.554 62.5981 115.198 62.2683L120.431 60.8451ZM120.431 58.4579L113.776 60.2359C113.954 60.6169 114.157 60.9475 114.385 61.2773L120.431 59.6521V58.4579ZM118.017 48.0692L120.431 47.4342V52.2094L119.236 52.5396L120.252 56.3243C120.304 56.5529 120.38 56.7561 120.431 56.9593V57.2641L113.344 59.1691C113.268 58.9659 113.192 58.7373 113.141 58.5345L110.474 48.5264C110.27 47.8406 110.169 47.1548 110.144 46.5198V45.9356C110.22 44.3354 110.804 42.8876 111.922 41.5922C113.319 39.9412 115.351 38.7728 117.967 38.0616C118.805 37.833 119.643 37.6806 120.431 37.6044V42.8876C120.126 42.8622 119.745 42.913 119.338 43.0146C117.687 43.4718 117.179 44.8688 117.789 47.2056L118.017 48.0692ZM120.431 57.2641V56.9593C120.481 57.0609 120.507 57.1371 120.532 57.2387L120.431 57.2641ZM120.431 59.6521V58.4579L121.142 58.2801C121.218 58.3817 121.32 58.4833 121.421 58.5849C121.828 58.9155 122.31 59.0421 122.945 58.9913L120.431 59.6521ZM124.469 62.1663V64.0967C123.047 64.4269 121.701 64.5539 120.431 64.4523V63.2585L124.469 62.1663ZM124.469 59.7787V60.9729L120.431 62.0647V60.8451L124.469 59.7787ZM124.469 58.4833V58.5849L124.088 58.6865C124.215 58.6103 124.342 58.5595 124.469 58.4833ZM120.431 47.4342L122.92 46.7738L122.666 45.8848C122.336 44.5894 121.929 43.7258 121.472 43.294C121.218 43.04 120.862 42.8876 120.431 42.8876V37.6044C121.878 37.452 123.225 37.579 124.469 37.9346V51.1426L120.431 52.2094V47.4342ZM128.635 61.0487V62.4461C127.568 63.0807 126.323 63.6141 124.901 63.9951C124.748 64.0201 124.596 64.0713 124.469 64.0967V62.1663L128.635 61.0487ZM128.635 58.6611V59.8553L124.469 60.9729V59.7787L128.635 58.6611ZM128.635 56.2735V57.4673L124.469 58.5849V58.4833C124.799 58.2289 125.053 57.9245 125.18 57.5435C125.231 57.4165 125.257 57.2895 125.282 57.1625L128.635 56.2735ZM128.635 52.5142V55.0543L125.307 55.9433C125.282 55.6639 125.205 55.3591 125.13 55.0289L124.723 53.5557L128.635 52.5142ZM128.635 40.9318V50.025L124.469 51.1426V37.9346C124.622 37.9854 124.799 38.0362 124.952 38.087C126.552 38.6458 127.771 39.5856 128.635 40.9318ZM128.635 50.025V40.9318C129.092 41.6684 129.448 42.5066 129.702 43.4718L131.276 49.3138L128.635 50.025ZM128.635 55.0543V52.5142L131.911 51.6506L132.369 53.4286C132.445 53.6318 132.47 53.835 132.521 54.0128L128.635 55.0543ZM128.635 57.4673V56.2735L132.673 55.1812C132.724 55.5876 132.724 55.9941 132.673 56.3751L128.635 57.4673ZM128.635 59.8553V58.6611L132.47 57.6197C132.343 58.1023 132.165 58.5345 131.962 58.9659L128.635 59.8553ZM128.635 62.4461V61.0487L130.972 60.4391C130.972 60.4391 130.972 60.4391 130.946 60.4645C130.311 61.2265 129.524 61.8873 128.635 62.4461Z" fill="white"/>
<path d="M99.7558 64.8848V66.0274L93.5836 66.5862L93.482 65.4178L99.7558 64.8848ZM99.7558 62.5476V63.716L93.3804 64.2748L93.2784 63.1318L99.7558 62.5476ZM99.7558 60.2362V61.3792L93.1772 61.9634L93.0752 60.8204L99.7558 60.2362ZM92.974 59.6524L92.8974 58.89C94.6504 58.7376 95.3358 57.5438 95.4378 56.3754L94.9806 51.016L94.244 49.3904L92.6184 48.9586L92.1104 42.9896C93.1772 42.7356 93.5836 42.1514 93.6852 41.2116L93.1518 34.9124L99.7558 34.3536V59.0678L92.974 59.6524ZM99.7558 61.3792V60.2362L106.537 59.6266L106.639 60.795L99.7558 61.3792ZM99.7558 63.716V62.5476L106.741 61.938L106.842 63.081L99.7558 63.716ZM99.7558 66.0274V64.8848L106.944 64.2494L107.046 65.3924L99.7558 66.0274ZM99.7558 34.3536L101.965 34.1504L102.524 40.4496C102.803 41.364 103.286 41.8466 104.404 41.9228L104.937 47.8918L103.413 48.603L102.956 50.3302L103.439 55.6896C103.744 56.8072 104.607 57.874 106.385 57.6962L106.436 58.4836L99.7558 59.0678V34.3536Z" fill="white"/>
<path d="M145.932 52.3874L139.811 54.6226L140.192 55.7148L145.932 53.632V52.3874ZM145.932 49.9236L139.023 52.4382L139.404 53.5304L145.932 51.1682V49.9236ZM145.932 29.6798V37.757C145.754 38.3412 145.78 39.0778 145.932 39.789V48.7044L138.617 51.346L138.363 50.6348C139.989 50.0506 139.785 48.9076 139.582 47.7646L137.728 42.71L136.61 41.313H134.96L132.902 35.6742L142.605 32.169L143.393 34.3534C143.443 33.7184 144.307 31.28 145.932 29.6798ZM145.932 56.0958L141.005 57.8738L140.599 56.807L145.932 54.8512V56.0958ZM145.932 48.7044L149.666 47.3328L149.412 46.5962C149.006 46.9264 148.346 46.4692 147.838 45.3262L146.288 41.059C146.135 40.6526 146.009 40.2208 145.932 39.789V48.7044ZM145.932 51.1682V49.9236L150.073 48.425L150.454 49.5172L145.932 51.1682ZM145.932 53.632L151.266 51.6762L150.86 50.6094L145.932 52.3874V53.632ZM158.734 50.203L154.213 51.854L154.619 52.9208L158.734 51.4222V50.203ZM158.734 47.7392V48.9584L153.807 50.7618L153.426 49.6696L158.734 47.7392ZM158.734 45.2754L152.638 47.4852L153.019 48.5774L158.734 46.4946V45.2754ZM158.734 41.3638V44.0308L152.232 46.393L151.952 45.6818L149.107 37.8332C148.371 36.8934 147.685 36.4362 146.847 36.7156C146.364 36.8934 146.085 37.2744 145.932 37.757V29.6798C146.288 29.3241 146.72 28.9939 147.151 28.7399C150.835 26.7841 154.924 29.4257 155.61 31.9912L157.642 37.9348L157.49 37.9856L158.734 41.3638ZM151.648 52.7684L152.054 53.8606L145.932 56.0958V54.8512L151.648 52.7684ZM158.734 44.0308V41.3638C159.242 42.5068 160.512 42.7354 161.376 42.2528L161.655 42.964L158.734 44.0308ZM158.734 46.4946V45.2754L162.036 44.0562L162.443 45.1484L158.734 46.4946ZM158.734 48.9584L163.23 47.3328L162.849 46.2406L158.734 47.7392V48.9584ZM158.734 51.4222V50.203L163.636 48.425L164.017 49.4918L158.734 51.4222Z" fill="white"/>
<path d="M77.9872 42.9895V45.3517C78.3174 44.6405 80.6796 41.3131 83.4482 41.3639C86.7248 41.4147 88.9596 45.0469 89.2394 47.2821L89.1124 53.5559H82.8386C82.3306 50.6857 81.8988 48.7807 80.4256 48.7553C78.9524 48.7299 78.419 50.8635 78.419 52.6415V57.1627C78.4952 58.4327 79.6128 59.0677 80.6034 58.9157V59.6773H67.6748V58.9157C69.4274 58.9157 69.6306 57.7723 69.8084 56.6293V51.2445L69.2496 49.5681L67.6748 48.9839V42.9895H77.9872ZM80.6034 60.8453V61.9887H67.6748V60.8453H80.6034ZM80.6034 63.1571V64.3259H67.6748V63.1571H80.6034ZM80.6034 65.4685V66.6365H67.6748V65.4685H80.6034Z" fill="white"/>
<path d="M13.1919 57.0609C13.3951 58.4325 13.7253 58.1785 14.6906 59.0167H16.1129V59.6771H0.974609V59.0167H2.90501C4.65751 58.5345 5.11481 57.3911 5.06391 56.0195L5.08931 43.8275C4.98791 42.4558 4.14961 41.7446 2.90501 41.6684H0.974609V35.0898H11.9981L18.0686 45.2245L22.8694 35.0898H37.322V41.6684H35.3915C33.9945 41.8716 32.9532 42.7099 33.0801 44.2085V56.6291C33.2071 57.9499 33.9945 58.9913 35.3915 59.0167H37.322V59.6771H22.0312V59.0167C23.5805 58.7627 23.8598 58.3817 23.987 57.4673L24.0122 53.6065L18.6783 58.1535L13.1665 53.2763L13.1919 57.0609ZM16.1129 60.8451V61.9885H0.974609V60.8451H16.1129ZM16.1129 63.1569V64.3257H0.974609V63.1569H16.1129ZM16.1129 65.4683V66.7387H0.974609V65.4683H16.1129ZM37.322 60.8451V61.9885H22.0312V60.8451H37.322ZM37.322 63.1569V64.3257H22.0312V63.1569H37.322ZM37.322 65.4683V66.7387H22.0312V65.4683H37.322Z" fill="white"/>
<path d="M122.125 89.1629C122.368 89.3691 122.869 89.6115 123.477 88.9374C123.632 88.7638 124.101 88.14 123.529 87.6364C123.199 87.3432 122.869 87.4822 122.594 87.6719L122.056 88.0346C121.969 88.0878 121.83 88.1927 121.691 88.0534C121.519 87.8978 121.623 87.6719 121.762 87.533C122.073 87.1869 122.298 87.3262 122.385 87.3954L122.733 87.0141C122.488 86.8246 121.986 86.6326 121.468 87.2042C120.913 87.811 121.189 88.2597 121.398 88.4516C121.796 88.8143 122.125 88.591 122.471 88.3469L122.697 88.1927C122.922 88.0346 123.096 87.932 123.234 88.0534C123.443 88.2438 123.304 88.4865 123.131 88.659C122.819 89.0044 122.574 88.8849 122.471 88.7981L122.125 89.1629Z" fill="#FEFEFE"/>
<path d="M120.341 88.52L118.903 89.6983L120.481 91.657L121.969 90.4448L121.691 90.0963L120.601 90.9803L120.203 90.4779L121.156 89.6983L120.879 89.3519L119.924 90.1323L119.579 89.7149L120.618 88.8673L120.341 88.52Z" fill="#FEFEFE"/>
<path d="M117.361 90.9106L116.947 91.2228L118.453 93.2315L119.874 92.1587L119.598 91.7939L118.609 92.5573L117.361 90.9106Z" fill="#FEFEFE"/>
<path d="M114.694 94.0979C115.335 95.1031 116.151 94.7559 116.428 94.5823C116.704 94.4098 117.381 93.8214 116.757 92.8157C116.132 91.8123 115.302 92.1584 115.024 92.3313C114.748 92.5229 114.073 93.0943 114.694 94.0979Z" fill="#FEFEFE"/>
<path d="M112.286 95.8643C112.426 96.1427 112.807 96.5406 113.621 96.1232C113.828 96.0206 114.488 95.6223 114.14 94.9475C113.933 94.5305 113.587 94.5658 113.239 94.6356L112.633 94.7919C112.529 94.8082 112.356 94.8424 112.269 94.6687C112.166 94.462 112.34 94.2892 112.529 94.2031C112.928 93.9946 113.084 94.2176 113.153 94.3064L113.604 94.0803C113.465 93.8051 113.049 93.4397 112.356 93.8051C111.629 94.1671 111.715 94.6687 111.854 94.9288C112.097 95.4134 112.495 95.327 112.894 95.2237L113.17 95.1538C113.43 95.0864 113.621 95.0509 113.707 95.2237C113.828 95.4661 113.621 95.6386 113.395 95.7614C112.981 95.9695 112.807 95.7614 112.738 95.6386L112.286 95.8643Z" fill="#FEFEFE"/>
<path d="M73.7819 95.1902L73.2622 96.1935L73.73 96.4188L74.8737 94.1841L74.4056 93.9421L73.9727 94.7919L73.1074 94.3569L73.5226 93.5095L73.0545 93.2671L71.9287 95.4996L72.3969 95.7444L72.8982 94.739L73.7819 95.1902Z" fill="#FEFEFE"/>
<path d="M71.1846 92.7291L71.8429 93.1275L72.0679 92.7468L70.3355 91.6733L70.0924 92.0532L70.7507 92.4512L69.6426 94.2031L70.0924 94.4794L71.1846 92.7291Z" fill="#FEFEFE"/>
<path d="M69.1929 90.8595L68.7776 90.5303L67.2529 92.5398L67.6685 92.869L69.1929 90.8595Z" fill="#FEFEFE"/>
<path d="M64.3428 90.1135L64.7072 90.4447C65.7627 89.6641 65.919 89.561 66.3004 89.2487L66.3177 89.2657C66.0584 89.6809 65.919 89.8884 65.2953 90.9802L65.6597 91.3086L67.8766 89.9237L67.4783 89.561C66.3004 90.3749 66.1265 90.5117 65.9363 90.6507C66.1099 90.3749 66.1783 90.2525 66.8892 89.0234L66.4739 88.6589C65.3994 89.4556 65.1916 89.6284 64.9842 89.7867C65.139 89.5416 65.2265 89.3882 65.919 88.1566L65.4858 87.7749L64.3428 90.1135Z" fill="#FEFEFE"/>
<path d="M106.312 96.9209C106.312 96.9209 105.498 96.5582 105.463 95.9698C105.429 95.38 105.878 94.6529 107.196 94.5661C107.196 94.5661 107.472 94.1844 107.645 93.9949C107.817 93.8054 107.976 93.7335 108.165 93.9081C108.355 94.0643 108.425 94.2034 108.235 94.2895C108.062 94.3766 107.956 94.6017 107.956 94.6017C107.956 94.6017 108.633 94.9291 108.633 95.5355C108.633 96.143 107.94 96.6785 106.97 96.9904C106.97 96.9904 106.797 97.233 107.179 97.1656C107.578 97.1127 108.564 96.7144 109.377 97.389C110.191 98.0638 109.222 99.2422 108.564 99.5204C107.904 99.7798 106.814 100.056 106.087 99.4675C105.376 98.8791 105.636 97.7364 106.312 96.9209Z" fill="#FEFEFE"/>
<path d="M99.2088 97.1297C99.5045 97.1127 99.7299 96.9399 99.7299 96.7671C99.7133 96.5754 99.4685 96.4365 99.1753 96.4553C98.8804 96.4721 98.6553 96.6443 98.6553 96.8347C98.6719 97.0077 98.9164 97.1466 99.2088 97.1297Z" fill="#FEFEFE"/>
<path d="M98.7239 98.152C98.7239 98.152 98.604 97.5971 99.1924 97.6314C99.7999 97.6504 99.7466 97.8232 99.7466 98.2721C99.7466 98.7397 99.9198 99.9523 100.126 100.317C100.352 100.68 100.318 100.958 99.9026 101.098C99.5043 101.235 99.0196 101.165 98.9331 100.612C98.8471 100.039 98.7074 98.6364 98.7239 98.152Z" fill="#FEFEFE"/>
<path d="M97.5996 100.213C97.5996 100.213 97.8945 99.9015 98.0332 100.109C98.1704 100.317 97.9468 100.785 97.7894 100.959C97.6166 101.148 96.3871 101.703 95.6071 101.062C94.8275 100.421 94.6896 99.2249 95.3306 98.4468C95.9719 97.684 97.1146 97.4925 97.703 97.8911C97.703 97.8911 98.2064 98.1349 97.9115 98.4468C97.6166 98.7398 97.4264 98.6539 97.3234 98.5148C97.2013 98.3755 96.421 98.2032 96.1444 98.9135C95.8495 99.6066 96.058 99.9189 96.3526 100.248C96.6464 100.577 97.2366 100.507 97.5996 100.213Z" fill="#FEFEFE"/>
<path d="M104.769 99.4508C104.769 99.6761 104.855 100.213 104.147 100.092C103.488 99.97 103.696 99.7799 103.731 99.4169C103.749 99.1216 103.818 97.3891 102.779 97.5112C102.171 97.5619 102.242 98.7071 102.536 99.3459C102.829 99.9884 103.089 100.474 102.363 100.524C102.363 100.524 101.929 100.713 101.653 100.005C101.393 99.2948 101.062 98.0132 101.062 97.5449C101.062 97.5449 101.063 97.0766 101.567 97.0268C102.068 96.9566 102.102 97.0268 102.118 97.1657C102.118 97.1657 102.761 96.6616 103.333 96.6786C103.938 96.6958 104.805 96.94 104.769 99.4508Z" fill="#FEFEFE"/>
<path d="M94.0307 100.889C93.9619 101.097 93.9097 101.633 93.2521 101.321C92.6623 101.044 92.9047 100.906 93.0267 100.56C93.1308 100.3 93.6839 98.6535 92.6623 98.4809C92.0566 98.3582 91.7969 99.4672 91.9176 100.178C92.022 100.871 92.1257 101.407 91.4159 101.251C91.4159 101.251 90.9654 101.321 90.9139 100.56C90.8444 99.7964 90.8783 98.4809 91.0169 98.0481C91.0169 98.0481 91.1034 97.5968 91.6227 97.6653C92.1257 97.753 92.1257 97.8229 92.1084 97.9599C92.1084 97.9599 92.8535 97.6501 93.4077 97.8229C93.9962 98.0128 94.7592 98.4809 94.0307 100.889Z" fill="#FEFEFE"/>
<path d="M86.9985 97.684C86.9985 97.684 87.1887 96.9742 87.7778 97.3383C88.35 97.684 88.0896 97.7873 87.8988 98.1162C87.7605 98.3755 87.2581 100.075 87.9852 100.248C88.731 100.421 89.0429 99.3981 89.0245 98.6876C89.0076 97.9768 88.9215 97.4061 89.5964 97.6657C89.5964 97.6657 90.0818 97.6657 90.0299 98.4287C89.9784 99.1724 89.7696 100.49 89.5791 100.906C89.5791 100.906 89.4062 101.338 88.9215 101.183C88.4191 101.027 88.4191 100.958 88.4706 100.819C88.4706 100.819 87.6226 101.131 87.1548 100.802C86.7039 100.454 86.0111 99.8836 86.9985 97.684Z" fill="#FEFEFE"/>
<path d="M82.3912 98.3423C82.3912 98.3423 82.5472 96.4888 84.3999 96.6091C86.2369 96.748 86.0809 98.4118 86.0809 98.6012C86.0809 98.8102 85.9063 100.248 84.1399 100.248C82.3732 100.248 82.3563 98.8269 82.3912 98.3423Z" fill="#FEFEFE"/>
<path d="M80.9537 96.5919C80.9537 96.5919 81.7161 97.4583 81.6127 98.1346C81.5263 98.8099 80.7117 99.6927 79.568 99.6927C78.4253 99.6927 78.0267 99.1378 77.9914 98.2545C77.9396 97.3723 78.0789 95.3624 78.2525 94.9117C78.4253 94.4795 78.6674 94.3232 79.3778 94.3232C80.0883 94.3232 82.0276 94.4099 82.0276 95.5716C82.0276 95.8472 81.4903 96.3492 80.9537 96.5919Z" fill="#FEFEFE"/>
<path d="M79.6543 96.7817C79.6543 96.7817 80.4689 96.6956 80.417 97.4418C80.3645 98.1854 79.8102 98.6011 79.5333 98.6538C79.2388 98.6875 78.875 98.2214 78.875 97.511C78.875 96.8174 79.014 96.7478 79.6543 96.7817Z" fill="white"/>
<path d="M78.9619 95.4851C78.9619 95.4851 78.9439 94.9478 79.411 94.9478C79.8968 94.9478 80.7621 94.9816 80.7621 95.4664C80.7621 95.9698 80.3124 96.0376 79.7754 96.0376C79.2209 96.0376 78.909 96.2106 78.9619 95.4851Z" fill="white"/>
<path d="M83.3955 98.3582C83.4128 98.0635 83.5687 97.1985 84.3307 97.2854C85.0063 97.3541 85.1453 97.9263 85.1107 98.2544C85.0592 98.5332 84.9544 99.3109 84.2619 99.2772C83.5518 99.2419 83.3609 98.8602 83.3955 98.3582Z" fill="white"/>
<path d="M106.485 95.917C106.485 95.917 106.123 95.5715 106.675 95.2589C107.229 94.9288 107.472 95.1538 107.525 95.2935C107.577 95.4487 107.766 95.8118 107.368 96.0206C106.986 96.246 106.641 96.1769 106.485 95.917Z" fill="white"/>
<path d="M106.554 98.7568C106.554 98.7568 106.485 98.0293 107.299 97.7179C108.112 97.4061 108.686 97.5619 108.84 97.8911C108.995 98.2385 108.701 98.8269 108.112 98.9995C107.507 99.1914 106.744 99.3113 106.554 98.7568Z" fill="white"/>
<path d="M115.145 93.8217C114.783 93.2315 115.023 92.8689 115.267 92.7129C115.508 92.5743 115.925 92.5048 116.305 93.0946C116.686 93.7 116.427 94.0643 116.184 94.2034C115.958 94.3572 115.527 94.427 115.145 93.8217Z" fill="white"/>
</g>
<defs>
<clipPath id="clip0_124_5585">
<rect width="184.503" height="101.953" fill="white" transform="translate(0.974609 0.548828)"/>
</clipPath>
</defs>
</svg>
