<svg width="172" height="92" viewBox="0 0 172 92" fill="none" xmlns="http://www.w3.org/2000/svg">
<g clip-path="url(#clip0_124_5622)">
<path d="M43.869 76.478C47.3084 73.617 47.9023 70.0663 47.9023 66.8938V53.5231H29.2056V71.6632C29.2056 74.2551 27.0966 76.36 24.5027 76.36C21.9027 76.36 19.9725 74.2581 19.9725 71.6632V20.2733C19.9725 17.6814 21.9027 15.5795 24.5027 15.5795C27.0935 15.5795 29.2056 17.6784 29.2056 20.2733V38.5253H47.8811V19.5928C47.878 9.13153 41.0297 0.524195 24.3421 0.5C7.20904 0.5 0.733398 9.14967 0.733398 19.6109V73.2601C0.733398 83.6306 8.98174 91.4788 19.527 91.4758H25.3209L43.869 76.478ZM117.589 78.583V19.6261H104.689V2.25715H151.394V19.6261H138.422V91.376H132.892L117.589 78.583Z" fill="white"/>
<path d="M125.961 91.5001L80.4743 53.4688L33.3418 91.5001H125.961Z" fill="#F6D33C"/>
<path d="M93.4595 2.354H67.3993L52.2178 70.3326L80.487 47.5652L109.962 72.2137L93.4595 2.354ZM75.4446 43.2071L80.487 17.5151L85.4899 43.2071H75.4446ZM165.579 5.08803C167.034 5.08803 168.276 5.60217 169.304 6.63347C170.325 7.65873 170.837 8.8957 170.837 10.3474C170.837 11.8082 170.325 13.0542 169.304 14.0825C168.279 15.1138 167.04 15.6279 165.579 15.6279C164.119 15.6279 162.873 15.1138 161.855 14.0825C161.361 13.5956 160.97 13.0134 160.708 12.3714C160.445 11.7293 160.316 11.0407 160.328 10.3474C160.328 8.89872 160.84 7.65873 161.861 6.63347C162.342 6.13557 162.92 5.7415 163.56 5.47566C164.199 5.20982 164.887 5.07789 165.579 5.08803ZM171.716 10.3353C171.716 8.65375 171.119 7.2202 169.925 6.03767C168.731 4.85515 167.288 4.26238 165.595 4.26238C164.794 4.24983 163.998 4.40083 163.258 4.70612C162.517 5.01141 161.847 5.46453 161.289 6.03767C160.711 6.59366 160.255 7.26193 159.947 8.00114C159.639 8.74035 159.486 9.53478 159.498 10.3353C159.498 12.0289 160.089 13.4716 161.27 14.6601C162.461 15.8578 163.901 16.4536 165.595 16.4536C167.288 16.4536 168.731 15.8578 169.925 14.6601C171.119 13.4655 171.716 12.0229 171.716 10.3353ZM167.216 9.02574C167.216 9.53686 166.982 9.88466 166.519 10.0661C166.151 10.1806 165.767 10.2308 165.382 10.2143H164.307V7.8039H165.325C166.649 7.8039 167.216 8.05795 167.216 9.02574ZM163.122 6.97825V13.6651H164.307V11.04H165.243C165.873 11.04 166.313 11.1095 166.564 11.2547C166.989 11.5027 167.198 12.0108 167.198 12.779V13.3082L167.225 13.523C167.228 13.5485 167.233 13.5738 167.24 13.5986L167.258 13.6621H168.358L168.316 13.5804C168.246 13.0572 168.24 12.2497 168.24 12.2497C168.235 11.8367 168.081 11.4393 167.807 11.1301C167.533 10.8208 167.156 10.6203 166.746 10.5651C167.934 10.3686 168.358 9.83325 168.358 8.91687C168.358 8.07307 168.013 7.50751 167.316 7.21718C166.925 7.05386 166.313 6.97523 165.479 6.97523H163.122V6.97825Z" fill="white"/>
</g>
<defs>
<clipPath id="clip0_124_5622">
<rect width="171" height="91" fill="white" transform="translate(0.724609 0.5)"/>
</clipPath>
</defs>
</svg>
