<svg width="181" height="62" viewBox="0 0 181 62" fill="none" xmlns="http://www.w3.org/2000/svg">
<path d="M58.7924 52.0516L58.6221 9.93887C58.6221 5.70481 61.9557 2.27991 66.2314 2.27991H67.0665C71.3454 2.27991 74.816 5.70481 74.816 9.93887L74.9864 52.0516C74.9864 56.2791 71.5225 59.7139 67.2335 59.7139H66.355C62.066 59.7139 58.7924 56.2791 58.7924 52.0516Z" fill="white"/>
<path d="M156.621 7.2536L173.837 34.9666C177.558 40.9511 178.424 42.5099 178.424 46.9223C178.424 53.8811 172.044 59.2051 166.382 59.2051H143.136C138.887 59.2051 135.463 56.3053 135.463 52.1142V51.6353C135.463 47.4475 138.887 44.0556 143.136 44.0556H157.386C158.278 44.0556 158.846 43.9367 159.08 43.3785C159.34 42.7675 159.27 42.4241 158.846 41.7404L148.695 25.6331C148.524 25.3656 148.337 24.9957 148.016 24.9957C147.723 24.9957 147.469 25.3656 147.332 25.6529L131.809 51.9755C129.404 56.1534 126.558 59.2051 122.316 59.2051H92.49C86.8448 59.2051 81.1562 53.6995 81.1562 47.9957V9.91558C81.1562 5.73106 84.5834 2.33258 88.809 2.33258H89.7877C94.0232 2.33258 97.4604 5.73106 97.4604 9.91558L97.4471 41.0237C97.4471 42.1731 98.2889 43.0813 99.5415 43.0813H114.373C116.961 43.0813 118.528 42.1598 119.891 39.9206L139.823 7.2536C141.727 4.14576 144.773 2.4845 148.367 2.4845C151.845 2.4845 154.6 4.04007 156.621 7.2536Z" fill="white"/>
<path d="M20.4096 39.4912C19.2539 39.4912 18.3286 40.4126 18.3286 41.5521V52.1504C18.3286 56.3382 14.8981 59.7202 10.6692 59.7202H9.68381C5.45494 59.7202 2.02441 56.3382 2.02441 52.1504L2.0311 32.8759C2.0311 27.9846 5.82906 23.8529 11.1536 23.8529H42.2989C46.5244 23.8529 49.9583 27.2481 49.9583 31.4359V31.9115C49.9583 36.1059 46.5244 39.4912 42.2989 39.4912H20.4096Z" fill="white"/>
<path d="M9.77693 3.36971H46.0564C50.332 3.36971 53.8093 6.6691 53.8093 10.8933V11.3688C53.8093 15.6128 50.332 19.041 46.0564 19.041H9.77693C5.49796 19.041 2.02734 15.6128 2.02734 11.3688V10.8437C2.02734 6.60966 5.49796 3.36971 9.77693 3.36971Z" fill="#E51937"/>
</svg>
