<svg width="148" height="100" viewBox="0 0 148 100" fill="none" xmlns="http://www.w3.org/2000/svg">
<g clip-path="url(#clip0_124_5640)">
<path d="M55.8757 55.9577L55.8153 40.8568L70.0894 35.4932L55.7144 30.7246L55.4133 15.8462L46.6931 27.8506L32.4287 23.3964L40.7089 35.9978L32.6267 48.6223L46.7053 43.8962L55.8757 55.9577Z" fill="white"/>
<path d="M57.6582 71.8309H83.2255L115.269 35.9373L83.071 0H57.7502L87.8642 35.8846L57.6582 71.8309Z" fill="white"/>
<path d="M0.724609 91.1511C0.724609 86.4866 4.6179 81.8994 9.93882 81.8994C13.5632 81.8994 17.6307 86.0383 17.6307 86.0383L13.2239 88.6353C13.2239 88.6353 12.4959 86.6876 9.77857 86.6876C7.01623 86.6876 5.39084 88.985 5.37178 91.07C5.35047 93.4008 7.23695 95.4524 9.61832 95.4524C11.4868 95.4524 13.4643 93.4235 13.4643 93.4235L17.2301 96.1828C17.2301 96.1828 14.4121 99.6725 9.69845 99.6725C4.97549 99.6725 0.724609 96.7877 0.724609 91.1511Z" fill="white"/>
<path fill-rule="evenodd" clip-rule="evenodd" d="M28.1991 82.1357C23.243 82.1357 19.2324 86.1455 19.2324 91.0758C19.2324 96.0061 23.243 100 28.1991 100C33.1552 100 37.1814 96.0061 37.1814 91.0758C37.1814 86.1455 33.1552 82.1357 28.1991 82.1357ZM28.1991 86.6058C30.6772 86.6058 32.6902 88.6106 32.6902 91.0758C32.6902 93.541 30.6772 95.53 28.1991 95.53C25.721 95.53 23.7236 93.541 23.7236 91.0758C23.7236 88.6106 25.721 86.6058 28.1991 86.6058Z" fill="white"/>
<path fill-rule="evenodd" clip-rule="evenodd" d="M40.5488 82.3887V99.0999H44.8684V90.0682L51.995 99.0999H56.2522V82.3887H51.917V92.1548L44.8684 82.3887H40.5488Z" fill="white"/>
<path fill-rule="evenodd" clip-rule="evenodd" d="M59.7793 82.3887L65.6115 99.0999H72.0363L77.8686 82.3887H73.1435L68.8239 95.6566L64.5043 82.3887H59.7793Z" fill="white"/>
<path fill-rule="evenodd" clip-rule="evenodd" d="M80.9697 82.3887V99.0999H94.2404V95.2459H85.2893V92.4502H93.3359V89.0384H85.2893V86.369H94.2404V82.3887H80.9697Z" fill="white"/>
<path fill-rule="evenodd" clip-rule="evenodd" d="M134.455 82.3887V99.0999H147.726V95.2459H138.775V92.4502H146.821V89.0384H138.775V86.369H147.726V82.3887H134.455Z" fill="white"/>
<path fill-rule="evenodd" clip-rule="evenodd" d="M99.1221 82.7046V99.1789H102.958V92.6871H105.157L108.525 99.1789H113.469L110.132 92.1343C114.47 89.4992 113.612 83.9841 108.775 82.7046H99.1221ZM102.88 86.685H107.309C108.848 86.685 108.748 89.1016 107.309 89.1016H102.88V86.685Z" fill="white"/>
<path d="M115.774 96.8714C115.944 97.9043 119.965 99.8554 123.933 99.8554C127.576 99.8554 130.505 98.0834 130.505 94.5661C130.505 90.2403 125.519 89.239 125.519 89.239C125.519 89.239 121.377 89.1798 121.27 87.2305C121.22 86.3134 122.481 85.7959 123.593 85.7959C125.413 85.7959 127.446 87.6322 127.446 87.6322L130.335 84.476C130.335 84.476 126.679 81.5493 123.593 81.5493C120.646 81.5493 116.454 83.5042 116.454 87.5748C116.454 91.0383 121.306 92.6313 121.306 92.6313C121.306 92.6313 126.426 93.1836 126.426 94.8055C126.426 95.9091 124.569 96.2401 123.48 96.2401C120.834 96.2401 118.607 93.8873 118.607 93.8873L115.774 96.8714Z" fill="white"/>
</g>
<defs>
<clipPath id="clip0_124_5640">
<rect width="147" height="100" fill="white" transform="translate(0.724609)"/>
</clipPath>
</defs>
</svg>
