<svg width="179" height="94" viewBox="0 0 179 94" fill="none" xmlns="http://www.w3.org/2000/svg">
<path d="M42.4955 0.851073C42.3349 1.01177 42.114 1.43362 41.9734 1.81528C41.8328 2.17686 41.5919 2.81966 41.4312 3.22142C40.7083 5.16992 40.5275 5.65202 40.2263 6.43544C40.0456 6.91754 39.7845 7.62061 39.644 8.00228C39.5034 8.38394 39.2223 9.1071 39.0415 9.60929C38.8608 10.1115 38.5796 10.8547 38.419 11.2565C38.2583 11.6783 38.0174 12.3613 37.8567 12.763C37.6961 13.1849 37.435 13.908 37.2543 14.3701C36.8526 15.4749 36.4108 16.64 36.0494 17.5841C35.8887 18.0059 35.6076 18.7492 35.4268 19.2514C35.2461 19.7535 34.965 20.4968 34.8043 20.8985C34.6437 21.3204 34.4027 22.0034 34.242 22.4051C34.0814 22.827 33.8203 23.5501 33.6396 24.0121C33.4589 24.4942 33.1978 25.2174 33.0371 25.6191C32.8765 26.041 32.5954 26.7842 32.4146 27.2864C32.2339 27.7886 31.9527 28.5118 31.8122 28.8934C31.6716 29.2751 31.3905 29.9982 31.2097 30.5004C31.029 31.0026 30.7479 31.7459 30.5872 32.1476C30.2257 33.1118 29.7839 34.2769 29.3823 35.3616C29.2016 35.8438 28.9405 36.5468 28.7999 36.9285C28.6594 37.3102 28.4184 37.9931 28.2377 38.4351C28.077 38.877 27.7758 39.6403 27.5951 40.1425C27.1533 41.2875 26.7115 42.4526 26.3902 43.3565C26.2496 43.7382 25.9885 44.4413 25.8078 44.9033C25.6271 45.3854 25.3459 46.1487 25.1652 46.6107C24.9845 47.0928 24.7636 47.6352 24.6632 47.816C24.5627 48.0169 24.4824 48.3584 24.4824 48.5793C24.4824 48.9811 24.6029 48.9811 30.0651 48.9811H35.6678L35.9088 48.4186C36.0494 48.1173 36.5313 46.9321 36.9731 45.767C37.4149 44.602 37.9571 43.1958 38.178 42.6535C38.3989 42.091 38.66 41.3679 38.7403 41.0465C38.9411 40.3434 39.1821 39.7006 40.5476 36.2254C41.1099 34.7791 41.6521 33.3328 41.7525 33.0114C42.0337 32.0673 42.5759 30.621 42.7365 30.4C42.8369 30.2996 42.9574 29.938 43.0377 29.6166C43.1381 29.1947 43.2386 29.0943 43.3992 29.255C43.6201 29.476 43.5197 31.0026 42.6361 42.8543C42.4554 45.1644 42.355 47.4745 42.3951 47.9767L42.4554 48.8806L48.1786 48.9409C51.3314 48.961 54.1027 48.9409 54.3436 48.8806C54.5846 48.8204 54.8457 48.5793 54.9059 48.3182C55.0666 47.7758 56.151 44.8832 56.5124 44.0596C56.653 43.7181 56.8137 43.2762 56.8739 43.0552C56.9341 42.8343 57.155 42.1914 57.3759 41.6491C57.5768 41.0866 58.2394 39.3792 58.8017 37.8324C59.3841 36.2857 59.9865 34.759 60.1472 34.4577C60.3078 34.1363 60.4283 33.7546 60.4283 33.614C60.4283 33.4533 60.5689 32.9913 60.7496 32.5695C61.2517 31.4446 62.0148 29.5161 62.5369 28.0899C62.6775 27.7083 62.9586 26.9851 63.1393 26.4829C63.3201 25.9807 63.6012 25.2576 63.7418 24.8759C63.8824 24.4942 64.1434 23.7912 64.3241 23.3091C64.5049 22.847 64.786 22.1038 64.9467 21.6619C65.1073 21.2199 65.3885 20.4968 65.5491 20.0549C65.7098 19.6129 65.9909 18.8898 66.1516 18.4479C66.3122 18.0059 66.5934 17.2828 66.754 16.8408C66.9147 16.3989 67.1958 15.6758 67.3565 15.2338C67.5171 14.7919 67.7982 14.0687 67.9589 13.6268C68.1195 13.1849 68.4007 12.4416 68.5814 11.9595C68.7622 11.4975 69.0232 10.7945 69.1638 10.4128C69.4449 9.64946 69.8466 8.56473 70.3486 7.23895C70.5293 6.77693 70.8105 6.03369 70.9711 5.59176C71.5937 3.9044 71.935 3.06071 72.2162 2.35765C72.3768 1.95589 72.4772 1.41353 72.4371 1.15239L72.3768 0.670285L67.4569 0.610022C64.7459 0.569846 62.2557 0.610022 61.9144 0.670285C61.2517 0.79081 61.2718 0.71046 59.5247 5.39088C59.364 5.83281 59.0829 6.55596 58.9222 6.99789C58.7616 7.43982 58.5005 8.14289 58.3399 8.54464C58.1792 8.96648 57.9181 9.68964 57.7374 10.1517C57.5567 10.6338 57.2755 11.3971 57.0948 11.8591C56.4723 13.5063 56.2313 14.129 55.6088 15.8365C54.4641 18.8898 54.3637 19.1509 54.1027 19.7535C53.9621 20.0749 53.7813 20.537 53.7211 20.7378C53.6408 20.9789 53.5203 21.0592 53.3998 20.9387C53.2793 20.8182 53.3195 19.6933 53.5002 17.8452C53.6609 16.2382 53.8014 14.2094 53.8014 13.3255C53.8014 12.4416 53.942 10.3124 54.0826 8.60491C54.424 4.8686 54.5444 1.17248 54.3436 0.810898C54.1027 0.429233 42.8972 0.469408 42.4955 0.851073ZM74.2042 0.951512C74.0235 1.15239 73.7825 1.57423 73.6821 1.89563C73.6018 2.21703 73.3207 2.98036 73.0797 3.58299C72.8387 4.18562 72.5776 4.90878 72.4772 5.19C72.3768 5.47123 72.1158 6.19439 71.8748 6.79702C71.6338 7.39965 71.3728 8.1228 71.2723 8.40403C71.1719 8.68526 70.9109 9.40841 70.6699 10.011C70.4289 10.6137 70.1679 11.3368 70.0675 11.6181C69.967 11.8993 69.706 12.6224 69.465 13.2251C69.224 13.8277 68.963 14.5508 68.8626 14.8321C68.7622 15.1133 68.5011 15.8365 68.2601 16.4391C68.0191 17.0417 67.7581 17.7649 67.6577 18.0461C67.5573 18.3273 67.2962 19.0505 67.0552 19.6531C66.8143 20.2557 66.5532 20.9789 66.4528 21.2601C66.3524 21.5413 66.0913 22.2645 65.8503 22.8671C65.6094 23.4698 65.3483 24.1929 65.2479 24.4741C65.1475 24.7554 64.8864 25.4785 64.6454 26.0812C64.4045 26.6838 64.1434 27.4069 64.043 27.6882C63.9426 27.9694 63.6815 28.6926 63.4406 29.2952C62.8381 30.862 62.4365 31.9267 62.2357 32.5092C62.1353 32.7904 61.8742 33.5136 61.6332 34.1162C61.3922 34.7188 61.1312 35.442 61.0308 35.7232C60.9304 36.0045 60.6693 36.7276 60.4283 37.3302C60.1874 37.9329 59.9263 38.656 59.8259 38.9372C59.7255 39.2185 59.4644 39.9416 59.2234 40.5443C58.9825 41.1469 58.7214 41.87 58.621 42.1513C58.5206 42.4325 58.2595 43.1557 58.0185 43.7583C57.7776 44.3609 57.5165 45.0841 57.4161 45.3653C57.3157 45.6465 57.0546 46.3697 56.8137 46.9723C55.9903 49.0614 55.5084 48.8806 61.8742 48.9409L67.4368 48.9811L67.7782 48.3383C67.9589 47.9968 68.1798 47.4745 68.2601 47.1933C68.3605 46.912 68.6216 46.1688 68.8626 45.5662C69.1035 44.9635 69.3646 44.2404 69.465 43.9592C69.5654 43.6779 69.8265 42.9548 70.0675 42.3521C70.3084 41.7495 70.5695 41.0264 70.6699 40.7451C70.7703 40.4639 71.0314 39.7408 71.2723 39.1381C71.5133 38.5355 71.7744 37.8123 71.8748 37.5311C71.9752 37.2499 72.2363 36.5267 72.4772 35.9241C72.7182 35.3215 72.9793 34.5983 73.0797 34.3171C73.1801 34.0359 73.4412 33.3127 73.6821 32.7101C73.9231 32.1075 74.1842 31.3843 74.2846 31.1031C74.385 30.8218 74.646 30.0987 74.887 29.4961C75.128 28.8934 75.3891 28.1703 75.4895 27.889C75.5899 27.6078 75.8509 26.8847 76.0919 26.282C76.3329 25.6794 76.5939 24.9562 76.6944 24.675C76.7948 24.3938 77.0558 23.6706 77.2968 23.068C77.5378 22.4654 77.7988 21.7422 77.8992 21.461C77.9997 21.1798 78.2607 20.4566 78.5017 19.854C78.7427 19.2514 79.0037 18.5282 79.1041 18.247C79.2045 17.9657 79.4656 17.2426 79.7066 16.64C79.9476 16.0373 80.2086 15.3142 80.309 15.033C80.4094 14.7517 80.6705 14.0286 80.9115 13.4259C81.1525 12.8233 81.4135 12.1002 81.5139 11.8189C81.6143 11.5377 81.8754 10.8145 82.1164 10.2119C82.3573 9.60929 82.6184 8.88613 82.7188 8.60491C82.8192 8.32368 83.0803 7.60052 83.3213 6.99789C83.5622 6.39526 83.8233 5.67211 83.9237 5.39088C84.0241 5.10965 84.2852 4.3865 84.5261 3.78387C85.5101 1.25283 85.5905 0.931424 85.2892 0.750635C85.1487 0.650197 82.6786 0.569846 79.7869 0.569846C74.9272 0.569846 74.5256 0.589934 74.2042 0.951512Z" fill="white"/>
<path d="M87.4372 1.09308C87.2565 1.39439 87.0155 1.85641 86.9352 2.15772C86.8348 2.43895 86.5737 3.1822 86.3327 3.78482C86.0918 4.38745 85.8307 5.11061 85.7303 5.39184C85.6299 5.67306 85.3688 6.39622 85.1279 6.99885C84.8869 7.60148 84.6057 8.36481 84.5053 8.7063C84.4049 9.0277 84.2443 9.48972 84.1439 9.71068C84.0435 9.93165 83.5414 11.2775 83.0193 12.7238C82.4972 14.1501 81.9951 15.516 81.8947 15.737C81.7943 15.9579 81.6337 16.3999 81.5333 16.7414C81.4329 17.0628 81.1517 17.8462 80.9107 18.4488C80.6698 19.0514 80.4087 19.7746 80.3083 20.0558C80.2079 20.337 79.9468 21.0602 79.7058 21.6628C79.4649 22.2655 79.2038 22.9886 79.1034 23.2698C79.003 23.5511 78.7419 24.2742 78.501 24.8769C78.26 25.4795 77.9989 26.2026 77.8985 26.4839C77.7981 26.7651 77.537 27.4883 77.2961 28.0909C77.0551 28.6935 76.794 29.4167 76.6936 29.6979C76.5932 29.9791 76.3322 30.7023 76.0912 31.3049C75.4887 32.8717 75.0871 33.9364 74.8863 34.5189C74.7859 34.8002 74.5248 35.5233 74.2838 36.1259C74.0429 36.7286 73.7818 37.4517 73.6814 37.733C73.581 38.0142 73.3199 38.7373 73.0789 39.34C72.8581 39.9426 72.4765 40.9872 72.2556 41.65C72.0347 42.3129 71.7737 43.0361 71.6732 43.2571C71.5728 43.478 71.2515 44.2815 70.9704 45.0649C70.6893 45.8283 70.388 46.6519 70.2876 46.8728C69.2835 49.1829 68.8217 48.982 75.2678 48.982C80.8505 48.982 80.8907 48.982 81.1919 48.5401C81.3726 48.2991 81.5132 47.9375 81.5132 47.7567C81.5132 47.5558 81.6337 47.1541 81.7943 46.8327C81.955 46.5313 82.2361 45.8885 82.3968 45.4064C82.5775 44.9444 82.8587 44.2012 83.0193 43.7592C83.18 43.3173 83.441 42.6143 83.6017 42.1924C83.7623 41.7907 84.0234 41.0675 84.2041 40.5854C84.3848 40.1234 84.6459 39.4002 84.8066 38.9784C84.9672 38.5766 85.5094 37.1504 86.0315 35.8246C86.5336 34.4988 87.0758 33.0927 87.2364 32.711C88.2405 30.1197 88.4212 29.718 88.5618 29.9389C88.622 30.0796 88.7626 33.4945 88.8429 37.5321C88.9233 41.5697 89.0438 45.768 89.1241 46.8728L89.2446 48.8816L96.6747 48.982L104.105 49.0825L103.121 49.5244C102.579 49.7855 101.996 49.9864 101.816 49.9864C101.615 49.9864 101.073 50.1069 100.571 50.2676C100.089 50.4083 99.1046 50.7096 98.3817 50.8904C96.8755 51.2921 95.2489 51.734 93.9637 52.0956C93.4617 52.2362 92.4777 52.4974 91.7548 52.6782C91.0318 52.879 89.9474 53.1603 89.345 53.321C87.3569 53.8633 86.0516 54.2249 84.9672 54.5061C83.7623 54.8476 82.196 55.2695 80.6497 55.6913C80.0874 55.852 79.0231 56.1332 78.3001 56.314C77.5772 56.5149 76.5932 56.776 76.0912 56.9167C75.5891 57.0573 74.6051 57.3184 73.8822 57.5193C73.1593 57.7202 72.1753 57.9813 71.6732 58.1219C71.1712 58.2625 70.1872 58.5237 69.4643 58.7245C68.7413 58.9053 67.6569 59.1866 67.0545 59.3674C66.452 59.5281 65.4681 59.7892 64.8857 59.9499C63.3394 60.3717 61.7731 60.7936 60.5682 61.115C60.0059 61.2757 58.9416 61.5569 58.2186 61.7377C57.4957 61.9386 56.5117 62.1997 56.0097 62.3403C55.5076 62.4809 54.5236 62.7421 53.8007 62.943C52.2143 63.3648 50.5877 63.8067 49.3828 64.1482C48.8807 64.2888 47.8967 64.55 47.1738 64.7508C46.4509 64.9316 45.4267 65.2129 44.8644 65.3535C41.5711 66.2373 40.8682 66.3378 37.133 66.3177C33.3176 66.3177 32.8155 66.2574 29.6025 65.253C28.9398 65.0522 27.8353 64.57 27.1324 64.2085C26.4296 63.8469 25.6263 63.4251 25.3251 63.2644C25.0239 63.1037 23.9194 62.1194 22.8752 61.0547C21.4092 59.5682 20.8068 58.7848 20.2244 57.6197C18.8789 54.8275 18.4371 53.0598 18.3167 49.886C18.2163 47.3148 18.6179 44.3418 19.4613 41.4492C19.7023 40.6657 19.9633 39.7618 20.0638 39.4404C20.3449 38.4762 20.7867 37.3513 21.6502 35.3425C22.9354 32.3896 22.7346 32.5102 19.5416 36.4674C15.5856 41.3889 12.8947 45.1051 9.5812 50.2877C9.09924 51.0511 8.61729 51.8345 8.55704 51.9952C8.47672 52.1559 8.23574 52.5576 8.01484 52.8991C7.61321 53.5419 7.4124 53.8834 6.4284 55.7114C4.15919 59.8695 2.57275 63.5054 1.68917 66.5587C0.905986 69.2304 0.805578 69.6321 0.504356 71.1789C0.0424808 73.5492 0.0826438 78.0087 0.584682 79.8166C1.40802 82.8096 2.23137 84.3363 4.07887 86.3049C6.00669 88.3337 9.96275 91.0857 11.75 91.6281C11.9709 91.6884 12.6336 91.9294 13.236 92.1504C16.0274 93.215 17.6741 93.4561 22.2727 93.4561C26.6304 93.4561 27.6345 93.3356 31.209 92.4517C33.2171 91.9495 36.2294 91.0657 37.133 90.7242C37.3941 90.6237 38.1572 90.3626 38.84 90.1416C39.5027 89.9207 40.7276 89.4586 41.551 89.1172C42.3743 88.7958 43.4186 88.3739 43.8603 88.2132C44.3021 88.0324 44.9447 87.7914 45.2661 87.6307C45.6074 87.4901 47.5353 86.6866 49.5836 85.8429C54.0618 83.9747 54.2827 83.8743 55.3068 83.4324C55.7486 83.2516 56.4113 82.9703 56.7728 82.8096C57.1141 82.6489 57.7367 82.3878 58.1182 82.2271C59.0018 81.8253 60.026 81.3834 60.9296 81.0218C61.3112 80.8611 61.9538 80.5799 62.3353 80.4192C63.3997 79.9773 64.3636 79.5755 65.207 79.1939C65.6086 79.0131 66.2312 78.7519 66.5525 78.6113C68.0184 78.0087 69.4844 77.386 70.7696 76.8235C71.2114 76.6226 71.854 76.3414 72.1753 76.2008C72.5167 76.0602 73.1191 75.799 73.5207 75.6183C74.3642 75.2366 75.3281 74.8348 76.3924 74.3929C78.0391 73.6898 78.8223 73.3484 81.1718 72.3038C81.9148 71.9623 82.5976 71.6811 82.698 71.6811C82.7984 71.6811 83.18 71.5204 83.5615 71.3396C84.5254 70.8575 84.1037 71.0383 93.8633 66.86C98.8235 64.7308 103.02 62.9229 103.201 62.8425C103.804 62.5613 104.928 62.0792 106.013 61.6373C106.615 61.3962 107.619 60.9744 108.222 60.6931C110.029 59.8695 110.591 59.6285 111.334 59.3272C112.8 58.7045 114.688 57.8809 115.25 57.6197C115.431 57.5394 118.985 55.9926 123.182 54.2048C127.379 52.417 130.934 50.8703 131.115 50.7899C131.456 50.6091 132.601 50.127 133.585 49.7253C134.328 49.4039 135.693 48.8012 136.135 48.5803C136.316 48.4999 140.191 46.8327 144.77 44.8641C149.349 42.8955 153.224 41.2282 153.405 41.1479C153.686 41.0072 154.168 40.7863 155.815 40.1033C156.678 39.7417 158.024 39.1391 158.445 38.9382C158.606 38.8579 160.915 37.8535 163.566 36.7286C166.197 35.6037 168.446 34.5993 168.567 34.4988C168.667 34.3984 168.868 34.3181 169.008 34.3181C169.149 34.3181 169.852 34.0368 170.535 33.7154C171.237 33.3739 171.88 33.1128 171.96 33.1128C172.021 33.1128 172.703 32.8316 173.446 32.4901C174.189 32.1285 175.073 31.7267 175.394 31.5861C177.965 30.4612 178.467 30.1398 178.206 29.6979C178.025 29.4167 177.463 29.4368 176.238 29.7983C174.932 30.2001 173.567 30.5617 171.88 31.0036C171.157 31.2045 170.173 31.4656 169.671 31.6062C169.169 31.7468 168.185 32.008 167.462 32.2088C166.739 32.4097 165.755 32.6709 165.253 32.8115C164.751 32.9521 163.767 33.2132 163.044 33.4141C162.321 33.5949 161.257 33.8761 160.695 34.0368C160.112 34.1975 159.148 34.4386 158.586 34.5993C158.004 34.76 156.939 35.0412 156.216 35.222C155.493 35.4229 154.469 35.7041 153.907 35.8447C150.915 36.6884 148.947 37.2308 147.381 37.6325C146.658 37.8334 145.674 38.0945 145.172 38.2351C144.67 38.3758 143.686 38.6369 142.963 38.8378C142.24 39.0386 141.256 39.2998 140.754 39.4404C140.252 39.581 139.268 39.8422 138.545 40.043C137.822 40.2238 136.757 40.505 136.195 40.6657C135.613 40.8265 134.649 41.0675 134.087 41.2282C133.504 41.3889 132.44 41.6701 131.717 41.871C129.066 42.554 128.183 42.795 127.741 42.9758C127.48 43.0763 127.098 43.1566 126.877 43.1566C126.516 43.1566 126.476 43.0763 126.596 42.4937C126.677 42.1522 126.857 41.63 126.998 41.3487C127.138 41.0675 127.299 40.6256 127.319 40.3443L127.399 39.8422L121.194 39.7819C117.278 39.7618 114.889 39.6614 114.728 39.5208C114.567 39.3801 114.527 39.1592 114.648 38.7775C115.23 36.9495 117.298 31.4455 117.961 29.9389C118.122 29.5774 118.262 29.1154 118.262 28.8944C118.262 28.6935 118.463 28.3721 118.704 28.2114C119.086 27.9302 119.969 27.89 124.307 27.89C130.05 27.89 129.729 27.9704 130.211 26.4437C130.372 25.9616 130.673 25.0777 130.914 24.4751C132.56 20.1763 132.781 19.5135 132.661 19.172C132.54 18.8907 131.958 18.8506 127.5 18.8506C123.463 18.8506 122.439 18.7903 122.359 18.5693C122.259 18.3082 124.086 13.0854 125.211 10.4539C125.371 10.0923 125.492 9.67051 125.492 9.48972C125.492 8.92726 126.536 8.80674 131.938 8.80674H137.34L137.661 8.04341C137.842 7.64165 138.063 7.0792 138.143 6.79797C138.243 6.51675 138.505 5.79359 138.746 5.19096C138.986 4.58833 139.248 3.86518 139.348 3.58395C139.448 3.30272 139.709 2.59965 139.93 1.99702C140.151 1.39439 140.292 0.852028 140.232 0.791765C140.171 0.731502 132.42 0.651151 122.982 0.610976C106.856 0.570801 105.832 0.590888 105.45 0.912291C105.049 1.27387 98.5423 9.04779 97.1768 10.8155C96.7952 11.3177 96.2731 11.9404 96.0321 12.2216C95.7911 12.5029 95.3092 13.0251 94.9879 13.3867C94.3051 14.1701 93.9637 13.9291 94.4256 12.9649C94.5863 12.6033 94.8674 11.9404 95.0481 11.4583C96.2129 8.34472 96.3133 8.06349 97.478 5.09052C97.98 3.76474 98.5423 2.37869 98.703 2.01711C99.0644 1.17343 99.0644 0.852028 98.6628 0.691327C98.4821 0.631064 95.9719 0.570801 93.0601 0.570801H87.7786L87.4372 1.09308ZM116.395 3.22237C116.335 3.48351 116.094 4.18658 115.853 4.78921C115.612 5.39184 115.351 6.11499 115.25 6.39622C115.15 6.67745 114.889 7.4006 114.648 8.00323C114.407 8.60586 114.146 9.32902 114.045 9.61024C113.945 9.89147 113.684 10.6146 113.443 11.2173C113.202 11.8199 112.941 12.543 112.84 12.8243C112.74 13.1055 112.479 13.8286 112.238 14.4313C111.997 15.0339 111.736 15.7571 111.635 16.0383C111.535 16.3195 111.274 17.0427 111.033 17.6453C110.792 18.2479 110.531 18.9711 110.431 19.2523C110.33 19.5335 110.069 20.2567 109.828 20.8593C109.587 21.462 109.326 22.1851 109.226 22.4663C109.125 22.7476 108.864 23.4707 108.623 24.0734C108.382 24.676 108.121 25.3991 108.021 25.6804C107.92 25.9616 107.659 26.6847 107.418 27.2874C107.177 27.89 106.916 28.6132 106.816 28.8944C106.715 29.1756 106.454 29.8988 106.213 30.5014C105.972 31.104 105.711 31.8272 105.611 32.1084C105.41 32.691 105.009 33.7556 104.406 35.3224C104.165 35.9251 103.904 36.6482 103.804 36.9294C103.703 37.2107 103.442 37.9338 103.201 38.5365C102.96 39.1391 102.699 39.8622 102.599 40.1435C102.498 40.4247 102.237 41.1479 101.996 41.7505C101.755 42.3531 101.474 43.1365 101.374 43.4981C101.213 44.0204 100.671 44.5226 100.47 44.3217C100.45 44.2815 100.33 39.7015 100.209 34.1172C100.089 28.5328 99.9279 23.2899 99.8677 22.4463C99.7271 20.6986 99.7271 20.6785 101.334 18.9912C101.876 18.4086 102.759 17.4444 103.302 16.8418C103.824 16.2392 105.229 14.6924 106.394 13.4269C107.559 12.1614 109.065 10.5343 109.728 9.81112C110.39 9.08796 111.716 7.62157 112.68 6.57701C113.644 5.51236 114.808 4.22675 115.27 3.72456C116.174 2.70009 116.555 2.53939 116.395 3.22237Z" fill="white"/>
<path d="M143.565 0.911314C142.641 1.55412 142.38 2.03622 142.36 3.02052C142.36 3.80394 142.481 4.10525 142.983 4.68779C143.565 5.35068 143.686 5.39086 144.79 5.39086C145.814 5.39086 146.055 5.31051 146.618 4.80832C147.22 4.26595 147.28 4.10525 147.28 3.08078C147.28 2.01613 147.22 1.89561 146.537 1.2528C145.915 0.69035 145.613 0.569824 144.911 0.569824C144.429 0.569824 143.846 0.710438 143.565 0.911314ZM146.537 2.89999C146.597 3.64323 146.336 4.04499 145.915 3.8642C145.553 3.72358 145.433 2.98034 145.774 2.98034C145.895 2.98034 145.975 2.79955 145.975 2.5585C145.975 1.9157 146.477 2.21701 146.537 2.89999ZM143.625 2.81964C143.766 3.28166 143.645 3.58297 143.344 3.58297C143.244 3.58297 143.163 3.30174 143.163 2.98034C143.163 2.27727 143.465 2.17684 143.625 2.81964ZM145.332 4.42665C145.272 4.56727 145.071 4.68779 144.87 4.68779C144.67 4.68779 144.469 4.56727 144.429 4.42665C144.368 4.28604 144.529 4.1856 144.87 4.1856C145.212 4.1856 145.372 4.28604 145.332 4.42665ZM29.3012 57.6589C27.1525 58.1812 26.8513 61.1743 28.8394 62.1184C30.1848 62.7612 31.6709 62.2992 32.3135 61.0336C32.8557 59.9891 32.8155 59.6275 32.1327 58.6834C31.45 57.7594 30.4459 57.3777 29.3012 57.6589ZM29.0603 60.1498C29.0201 60.5917 28.9197 60.9131 28.7992 60.8729C28.498 60.7926 28.3373 59.969 28.5381 59.4467C28.7992 58.7236 29.1406 59.2057 29.0603 60.1498ZM30.2652 59.2458C30.225 59.3664 30.1045 59.4467 30.0041 59.4467C29.9037 59.4467 29.7832 59.3664 29.743 59.2458C29.7029 59.1253 29.8234 59.0249 30.0041 59.0249C30.1848 59.0249 30.3053 59.1253 30.2652 59.2458ZM31.711 60.0293C31.711 60.21 31.5905 60.5114 31.45 60.7122C31.2291 61.0136 31.1487 61.0336 30.9479 60.7926C30.7873 60.5716 30.7672 60.3105 30.9279 59.7279C31.1287 58.9847 31.1688 58.9646 31.4299 59.3262C31.5905 59.5271 31.711 59.8485 31.711 60.0293ZM30.225 61.355C30.1246 61.6162 30.0242 61.6363 29.8635 61.4756C29.743 61.355 29.7029 61.114 29.7832 60.9131C29.8836 60.652 29.984 60.6319 30.1447 60.7926C30.2652 60.9131 30.3053 61.1542 30.225 61.355Z" fill="white"/>
</svg>
