<svg width="112" height="110" fill="none" xmlns="http://www.w3.org/2000/svg"><path d="M82.01 100.819l8.374-28.15a4.829 4.829 0 00-4.615-6.112H8.045a4.83 4.83 0 00-4.615 6.112l8.375 28.18h35.24" stroke="#FF6F3B" stroke-width="2" stroke-miterlimit="10"/><path d="M5.907 94.924l-4.462 8.435a3.64 3.64 0 001.423 4.921 3.627 3.627 0 001.816.458h84.448a3.627 3.627 0 003.163-1.76 3.636 3.636 0 00.076-3.619l-4.462-8.435M77.945 30.86l-7 6.816V8.244A7.244 7.244 0 0178.19 1h24.757a7.243 7.243 0 017.244 7.244v15.281a7.246 7.246 0 01-7.244 7.244l-25.001.092zm-21.639 8.804l10.972 9.383a14.181 14.181 0 014.951 10.79v6.326M37.785 39.664l-11.156 9.383a14.15 14.15 0 00-5.043 10.881v6.113" stroke="#FF6F3B" stroke-width="2" stroke-miterlimit="10"/><path d="M47.046 43.516c8.27 0 14.976-7.992 14.976-17.85 0-9.857-6.705-17.849-14.976-17.849S32.07 15.81 32.07 25.667c0 9.857 6.705 17.849 14.976 17.849z" stroke="#FF6F3B" stroke-width="2" stroke-miterlimit="10"/></svg>