<svg width="111" height="120" fill="none" xmlns="http://www.w3.org/2000/svg"><path d="M33.672 33.948l-7.702 7.488V9.008A7.975 7.975 0 0133.947 1h27.324a7.977 7.977 0 017.978 8.008V25.94a7.977 7.977 0 01-7.978 8.008H33.672zM30.555 55.71l5.746 4.738a7.548 7.548 0 012.781 5.868v12.256a6.846 6.846 0 01-6.846 6.846M9.558 55.71L3.78 60.448A7.642 7.642 0 001 66.316v12.256a6.846 6.846 0 006.846 6.846" stroke="#FF6F3B" stroke-width="2" stroke-miterlimit="10"/><path d="M31.93 68.175v44.47a6.112 6.112 0 01-6.113 6.112h-1.864M8.212 68.175v44.47a5.928 5.928 0 005.93 6.112v0a6.114 6.114 0 006.113-6.112V89.049m11.063-43.273A11.981 11.981 0 1120.04 29.761m81.086 25.949l5.746 4.738a7.549 7.549 0 012.781 5.868v12.256a6.846 6.846 0 01-6.846 6.846v0M80.129 55.71l-5.777 4.738a7.643 7.643 0 00-2.78 5.868v12.256a6.846 6.846 0 006.845 6.846" stroke="#FF6F3B" stroke-width="2" stroke-miterlimit="10"/><path d="M102.501 68.175v44.47a6.11 6.11 0 01-6.113 6.112h-1.864m-15.77-50.582v44.47a6.112 6.112 0 006.113 6.112 5.912 5.912 0 004.259-1.801 5.923 5.923 0 001.67-4.311V89.049m-.184-35.357c6.6 0 11.95-5.35 11.95-11.95s-5.35-11.951-11.95-11.951-11.95 5.35-11.95 11.95 5.35 11.95 11.95 11.95z" stroke="#FF6F3B" stroke-width="2" stroke-miterlimit="10"/></svg>