<svg width="102" height="107" fill="none" xmlns="http://www.w3.org/2000/svg"><path d="M7.387 60.508V7.478A6.48 6.48 0 0113.867 1h74.025a6.48 6.48 0 016.48 6.48v53.028" stroke="#FF6F3B" stroke-width="2" stroke-miterlimit="10"/><path d="M76.95 18.913a8.009 8.009 0 11-7.854-9.627 8.864 8.864 0 017.855 9.627v0zm9.78 22.222l-5.623-5.227-3.668-3.27M78.51 60.51V44.863l-.03-2.995 7.763 6.877M61.669 32.608l-10.178-8.16a3.27 3.27 0 00-4.462.244 3.055 3.055 0 00.367 4.554l9.474 7.58a6.907 6.907 0 012.598 5.41v18.338M23.8 89.181l7.213 6.113a9.412 9.412 0 013.24 7.091v4.156m-22.586-17.36l-7.335 6.113A9.169 9.169 0 001 102.415v4.126" stroke="#FF6F3B" stroke-width="2" stroke-miterlimit="10"/><path d="M17.718 91.688c5.418 0 9.81-5.241 9.81-11.706s-4.392-11.706-9.81-11.706c-5.419 0-9.811 5.24-9.811 11.706 0 6.465 4.392 11.706 9.81 11.706zm39.335-2.507l7.213 6.113a9.413 9.413 0 013.24 7.091v4.156M44.92 89.181l-7.336 6.113a9.169 9.169 0 00-3.33 7.121" stroke="#FF6F3B" stroke-width="2" stroke-miterlimit="10"/><path d="M50.972 91.688c5.419 0 9.811-5.241 9.811-11.706s-4.392-11.706-9.811-11.706c-5.418 0-9.81 5.24-9.81 11.706 0 6.465 4.392 11.706 9.81 11.706zm39.336-2.507l7.182 6.113a9.32 9.32 0 013.271 7.091v4.156m-22.619-17.36l-7.304 6.113a9.17 9.17 0 00-3.332 7.121" stroke="#FF6F3B" stroke-width="2" stroke-miterlimit="10"/><path d="M84.225 91.688c5.419 0 9.811-5.241 9.811-11.706s-4.392-11.706-9.811-11.706c-5.418 0-9.81 5.24-9.81 11.706 0 6.465 4.392 11.706 9.81 11.706zM37.158 60.513V23.684h-9.445v36.83" stroke="#FF6F3B" stroke-width="2" stroke-miterlimit="10"/><path d="M37.157 44.59h9.811v15.923M27.712 36.118h-10.85v24.39" stroke="#FF6F3B" stroke-width="2" stroke-miterlimit="10"/></svg>