<svg width="74" height="74" fill="none" xmlns="http://www.w3.org/2000/svg"><path d="M72.632 71.02L58.969 51.665V30.063h3.468a1.156 1.156 0 00.95-1.815l-10.406-15.03a1.2 1.2 0 00-1.9 0l-2.588 3.736a1.13 1.13 0 00-.137-.268L37.95 1.655a1.2 1.2 0 00-1.9 0l-10.407 15.03a1.13 1.13 0 00-.136.27l-2.588-3.738a1.2 1.2 0 00-1.9 0L10.611 28.248a1.156 1.156 0 00.95 1.814h3.47v21.603L1.367 71.02a1.156 1.156 0 00.944 1.824h69.375a1.155 1.155 0 00.945-1.824zM26.594 18.5h3.468v2.313h2.313v-3.47a1.156 1.156 0 00-1.156-1.155H28.8L37 4.344l8.199 11.843H42.78a1.156 1.156 0 00-1.156 1.157v3.468h2.312V18.5h3.488l-3.932 5.677a6.924 6.924 0 00-12.987 0l-3.93-5.677h.018zm18.5 15.061a5.721 5.721 0 00-3.47-1.186h-.797a6.985 6.985 0 002.171-2.313h2.096v3.5zm-3.47 5.752v24.28h-3.468V49.72h-2.312v13.875h-3.47V39.313h-2.312v9.25h-1.156V38.156a3.469 3.469 0 013.469-3.468h9.25a3.469 3.469 0 013.469 3.468v10.407h-1.157v-9.25h-2.312zm-8.451-6.938h-.798a5.72 5.72 0 00-3.469 1.186v-3.498h2.095a6.986 6.986 0 002.172 2.312zM37 31.219a4.625 4.625 0 110-9.25 4.625 4.625 0 010 9.25zM52.898 70.53l-5.54-18.826-2.217.652 5.346 18.174H23.512l5.347-18.174-2.218-.652-5.54 18.826H4.544l12.588-17.833c.138-.195.212-.428.212-.667V28.906a1.157 1.157 0 00-1.157-1.156H13.77l8.199-11.844 8.197 11.844H27.75a1.157 1.157 0 00-1.156 1.156V49.72a1.156 1.156 0 001.156 1.156h2.312V64.75a1.156 1.156 0 001.157 1.156H42.78a1.157 1.157 0 001.156-1.156V50.875h2.313a1.156 1.156 0 001.156-1.156V38.156c0-.092-.023-.178-.028-.27h.028v-8.98a1.157 1.157 0 00-1.156-1.156h-2.417l8.198-11.844 8.2 11.844h-2.418a1.156 1.156 0 00-1.156 1.156v23.125c0 .24.074.472.212.667l12.588 17.833H52.898z" fill="#151F59"/></svg>