<svg width="75" height="75" fill="none" xmlns="http://www.w3.org/2000/svg"><g clip-path="url(#clip0)" fill="#151F59"><path d="M42.5 60a5 5 0 01-5-5v-6.109a17.818 17.818 0 002.5-9.047V28.75C40 18.411 31.027 10 20 10S0 18.411 0 28.75v11.094A18.616 18.616 0 0010.109 56.14l1.176-2.206A16.125 16.125 0 012.5 39.844V28.75c0-8.96 7.85-16.25 17.5-16.25s17.5 7.29 17.5 16.25v11.094a16.125 16.125 0 01-8.785 14.091L21 57.416c-1.712.9-8.003-2.58-9.715-3.481l-1.178 2.206c2.45 1.287 8.944 4.646 11.393 3.359l3.5-.75V65c0 .642.486 1.18 1.125 1.244l9.125.912a2.492 2.492 0 012.25 2.488V75H40v-5.356a4.984 4.984 0 00-4.5-4.975l-8-.794v-6.459l2.391-1.275a19.762 19.762 0 005.109-3.9V55a7.507 7.507 0 007.5 7.5h6.25V60H42.5z"/><path d="M12.5 56.429v7.446l-8 .8A4.984 4.984 0 000 69.644V75h2.5v-5.356a2.492 2.492 0 012.25-2.488l9.125-.906A1.25 1.25 0 0015 65v-8.571h-2.5zm21.508-27.444l-3.614-.759 2.093-3.037a1.25 1.25 0 00-.145-1.594l-3.437-3.438a1.25 1.25 0 00-1.593-.145l-3.037 2.094-.76-3.614a1.25 1.25 0 00-1.224-.992H17.71a1.25 1.25 0 00-1.224.992l-.76 3.614-3.037-2.094a1.25 1.25 0 00-1.593.145l-3.438 3.438a1.25 1.25 0 00-.144 1.594l2.093 3.037-3.614.759A1.25 1.25 0 005 30.209v4.582c0 .592.414 1.102.992 1.224l3.614.759-2.093 3.037a1.25 1.25 0 00.144 1.594l3.438 3.438a1.25 1.25 0 001.592.144l3.038-2.093.76 3.614a1.25 1.25 0 001.224.992h4.582a1.25 1.25 0 001.224-.992l.76-3.614 3.038 2.093a1.25 1.25 0 001.592-.145l3.438-3.437a1.25 1.25 0 00.144-1.594l-2.093-3.037 3.614-.759A1.25 1.25 0 0035 34.791V30.21a1.25 1.25 0 00-.992-1.224zM32.5 33.778l-2.774.582a2.396 2.396 0 00-1.476 3.704l1.589 2.311-1.964 1.964-2.311-1.589a2.395 2.395 0 00-3.704 1.479L21.276 45h-2.552l-.584-2.774a2.395 2.395 0 00-3.704-1.476l-2.311 1.589-1.964-1.964 1.589-2.31a2.397 2.397 0 00-1.479-3.705L7.5 33.778v-2.555l2.774-.583a2.396 2.396 0 001.476-3.704l-1.589-2.311 1.964-1.964 2.311 1.589a2.395 2.395 0 003.704-1.479L18.724 20h2.552l.584 2.774a2.395 2.395 0 003.704 1.476l2.311-1.589 1.964 1.964-1.589 2.31a2.397 2.397 0 001.479 3.705l2.771.582v2.556z"/><path d="M20 26.25a6.25 6.25 0 00-6.25 6.25A6.258 6.258 0 0020 38.75a6.25 6.25 0 000-12.5zm0 10a3.75 3.75 0 110-7.5 3.75 3.75 0 010 7.5zM69.964 6.186a3.779 3.779 0 00-2.266 6.76l-2.742 8.304a3.718 3.718 0 00-2.425.944l-5.093-2.82A3.69 3.69 0 0053.75 15 3.75 3.75 0 0050 18.75a3.7 3.7 0 00.758 2.235l-3.594 5.39a3.676 3.676 0 00-.914-.125A3.75 3.75 0 1050 30a3.71 3.71 0 00-.758-2.236l3.594-5.39c.298.08.605.123.914.126a3.725 3.725 0 002.469-.949l5.093 2.83a3.75 3.75 0 106-2.306l2.76-8.333a3.779 3.779 0 00-.108-7.556zM46.25 31.25a1.25 1.25 0 110-2.5 1.25 1.25 0 010 2.5zM53.75 20a1.25 1.25 0 110-2.5 1.25 1.25 0 010 2.5zM65 26.25a1.25 1.25 0 110-2.5 1.25 1.25 0 010 2.5zm5-15a1.25 1.25 0 110-2.5 1.25 1.25 0 010 2.5z"/><path d="M71.25 26.25v27.5h-2.5v-7.5h-2.5v7.5h-2.5V45h-2.5v8.75h-2.5v-12.5h-2.5v12.5h-2.5v-20h-2.5v20h-2.5v-5h-2.5v5h-2.5v2.5h30v-30h-2.5zM42.5 0A7.507 7.507 0 0035 7.5v6.25h2.5V7.5a5 5 0 015-5h6.25V0H42.5zm11.25 60h-2.5v2.5h2.5V60z"/><path d="M75 60H47v2.5h28V60zm0-60H47.5v2.5H75V0z"/></g><defs><clipPath id="clip0"><path fill="#fff" d="M0 0h75v75H0z"/></clipPath></defs></svg>