<svg width="71" height="71" fill="none" xmlns="http://www.w3.org/2000/svg"><g clip-path="url(#clip0)" fill="#151F59"><path d="M15.28 19.356h-.013c-.6-.006-1.219-.368-1.789-1.048a1.387 1.387 0 00-2.125 1.782c.733.875 1.597 1.487 2.514 1.8v1.684a1.387 1.387 0 002.774 0v-1.672a4.16 4.16 0 00-1.363-8.093 1.388 1.388 0 01-1.387-1.387c0-.758.617-1.38 1.373-1.386.498-.01 1.02.247 1.514.724a1.387 1.387 0 001.929-1.993c-.712-.689-1.425-1.075-2.066-1.284v-1.55a1.387 1.387 0 00-2.773 0V8.51a4.175 4.175 0 00-2.75 3.912 4.165 4.165 0 004.16 4.16 1.386 1.386 0 01.002 2.774z"/><path d="M15.254 30.508c8.41 0 15.254-6.843 15.254-15.254 0-1.903-.36-3.794-1.046-5.556a35.635 35.635 0 016.038-.546c13.387 0 25.016 10.117 26.91 22.73l-2.91-2.91a1.387 1.387 0 00-1.961 1.962l5.547 5.547c.541.541 1.42.541 1.961 0l5.547-5.547a1.387 1.387 0 00-1.961-1.961l-3.36 3.36C63.62 17.865 50.662 6.379 35.5 6.379c-2.417 0-5.127.28-7.336.746A15.24 15.24 0 0015.254 0C6.843 0 0 6.843 0 15.254c0 8.41 6.843 15.254 15.254 15.254zm0-27.735c6.884 0 12.48 5.575 12.48 12.48 0 6.883-5.598 12.481-12.48 12.481-6.882 0-12.48-5.598-12.48-12.48 0-6.882 5.598-12.48 12.48-12.48zM58.52 59.906h5.546a1.387 1.387 0 000-2.773H58.52a1.387 1.387 0 000 2.773zm0 5.547h5.546a1.387 1.387 0 000-2.773H58.52a1.387 1.387 0 000 2.773z"/><path d="M2.368 42.028l3.361-3.362c1.657 14.5 14.64 25.955 29.772 25.955 1.398 0 3.295-.1 4.992-.315v5.307c0 .766.62 1.387 1.386 1.387h7.627a1.387 1.387 0 000-2.773h-6.24V42.434h8.32v6.933c0 .766.621 1.387 1.387 1.387h5.547c.766 0 1.387-.62 1.387-1.387v-6.933h8.32v25.793H48.5a1.387 1.387 0 000 2.773h21.114c.765 0 1.386-.62 1.386-1.387V41.047c0-.766-.62-1.387-1.386-1.387H41.879c-.765 0-1.386.621-1.386 1.387v20.46a39.17 39.17 0 01-4.992.34c-13.583 0-25.069-9.957-26.919-22.738l2.918 2.919a1.387 1.387 0 001.962-1.962L7.915 34.52a1.387 1.387 0 00-1.962 0L.407 40.066a1.387 1.387 0 001.96 1.962zm51.992.406h2.773v5.547H54.36v-5.547z"/><path d="M55.746 71a1.387 1.387 0 100-2.773 1.387 1.387 0 000 2.773z"/></g><defs><clipPath id="clip0"><path fill="#fff" d="M0 0h71v71H0z"/></clipPath></defs></svg>