<svg width="68" height="68" fill="none" xmlns="http://www.w3.org/2000/svg"><path d="M61.36 3.586H6.64A6.648 6.648 0 000 10.226v47.547a6.648 6.648 0 006.64 6.641h54.72a6.648 6.648 0 006.64-6.64V10.226a6.648 6.648 0 00-6.64-6.641zm3.984 54.187a3.989 3.989 0 01-3.985 3.985H6.641a3.989 3.989 0 01-3.985-3.985V10.227a3.989 3.989 0 013.985-3.985h54.718a3.989 3.989 0 013.985 3.985v47.546z" fill="#151F59"/><path d="M45.688 50.336a4.255 4.255 0 00-4.25 4.25 4.255 4.255 0 004.25 4.25 4.255 4.255 0 004.25-4.25 4.255 4.255 0 00-4.25-4.25zm0 5.844a1.595 1.595 0 01-1.594-1.594c0-.879.715-1.594 1.593-1.594a1.595 1.595 0 01.001 3.188zm11.687-5.844a4.255 4.255 0 00-4.25 4.25 4.255 4.255 0 004.25 4.25 4.255 4.255 0 004.25-4.25 4.255 4.255 0 00-4.25-4.25zm0 5.844a1.596 1.596 0 01-1.594-1.594c0-.879.715-1.594 1.594-1.594.879 0 1.594.715 1.594 1.594 0 .879-.715 1.594-1.594 1.594zM15.27 53.258H7.704a1.328 1.328 0 100 2.656h7.568a1.328 1.328 0 100-2.656zm16.65 0h-7.568a1.328 1.328 0 100 2.656h7.568a1.328 1.328 0 000-2.656zM60.297 9.96h-20.32a1.328 1.328 0 000 2.657h18.992v17.776H55.62c-.528 0-1.006.313-1.217.797l-1.186 2.72-2.4-7.416a1.328 1.328 0 00-2.401-.277l-2.735 4.535H42.5c-.534 0-1.016.32-1.223.812l-1.657 3.93-4.191-18.212a1.328 1.328 0 00-2.57-.072L28.86 31.031h-4.579c-.6 0-1.125.402-1.282.982l-.717 2.654-3.807-11.284a1.328 1.328 0 00-2.469-.122l-3.55 7.863H9.03V12.617h31.196a1.328 1.328 0 100-2.656H7.703c-.733 0-1.328.595-1.328 1.328v34.797c0 .733.595 1.328 1.328 1.328h52.594c.733 0 1.328-.595 1.328-1.328V11.289c0-.733-.595-1.328-1.328-1.328zM9.03 44.759V33.78h4.283c.522 0 .995-.305 1.21-.781l2.515-5.568 4.126 12.232a1.328 1.328 0 002.54-.078l1.595-5.898h4.56c.591 0 1.111-.39 1.276-.959l2.853-9.863 3.965 17.228a1.328 1.328 0 002.518.219l2.91-6.904h3.049c.465 0 .897-.243 1.137-.642l1.618-2.683 2.583 7.98a1.328 1.328 0 002.481.122l2.24-5.136h2.479v11.709H9.03z" fill="#151F59"/><path d="M34 12.617c.35 0 .692-.142.939-.389.247-.247.39-.59.39-.939 0-.35-.143-.692-.39-.939A1.337 1.337 0 0034 9.96c-.35 0-.692.143-.939.39a1.34 1.34 0 00-.39.94c0 .348.143.691.39.938.247.247.59.39.939.39z" fill="#151F59"/></svg>