<svg width="72" height="72" fill="none" xmlns="http://www.w3.org/2000/svg"><g clip-path="url(#clip0)" fill="#151F59"><path d="M67.547 46.892c6.02-6.136 5.925-15.991-.212-22.011a15.564 15.564 0 00-3.734-2.706V1.2a1.2 1.2 0 00-1.2-1.2h-52.8a1.2 1.2 0 00-1.2 1.2V42a1.2 1.2 0 001.2 1.2h32.975a15.504 15.504 0 0017.946 7.83l-6.02 7.604A3.581 3.581 0 0151.677 60h-2.191A5.4 5.4 0 0045 51.6H30.224l-9.758-3.752A24.666 24.666 0 007.2 47.512V46.8A1.2 1.2 0 006 45.6H1.2A1.2 1.2 0 000 46.8v24A1.2 1.2 0 001.2 72H6a1.2 1.2 0 001.2-1.2v-2.16l17.778 3.334c.073.015.147.024.222.026h30.08a3.592 3.592 0 002.76-1.286l12.28-14.648a5.357 5.357 0 00-2.774-9.174zM4.8 69.6H2.4V48h2.4v21.6zM31.2 2.4h9.6v12h-9.6v-12zm10.363 28.767a15.583 15.583 0 000 9.633H10.801V2.4h18v13.2a1.2 1.2 0 001.2 1.2h12a1.2 1.2 0 001.2-1.2V2.4h18v18.763c-8.185-2.66-16.977 1.819-19.637 10.003zM56.401 49.2c-7.287-.009-13.192-5.914-13.2-13.2 0-7.29 5.91-13.2 13.2-13.2 7.29 0 13.2 5.91 13.2 13.2 0 7.29-5.91 13.2-13.2 13.2zm12.24 5.154a1.351 1.351 0 00-.11.114l-12.33 14.704a1.2 1.2 0 01-.92.428H25.313L7.2 66.204V50.017a22.2 22.2 0 0112.402.07l9.967 3.84A1.2 1.2 0 0030 54h15a3 3 0 110 6h-7.8v2.4h14.477a5.97 5.97 0 004.705-2.28l8.105-10.238a2.96 2.96 0 011.897-.682h.248a2.97 2.97 0 012.008 5.154z"/><path d="M65.943 32.033a1.2 1.2 0 00-1.001-.825l-5.24-.621-2.222-4.7a1.2 1.2 0 00-1.08-.687 1.123 1.123 0 00-1.086.672l-2.313 4.715-5.154.621a1.2 1.2 0 00-.695 2.05l3.797 3.702-1.702 5.911a1.2 1.2 0 001.807 1.337L56.4 40.73l5.346 3.48a1.2 1.2 0 001.792-1.384l-1.952-5.867 4.023-3.675a1.2 1.2 0 00.334-1.252zm-6.551 3.681a1.2 1.2 0 00-.329 1.265l1.114 3.345-3.12-2.03a1.2 1.2 0 00-1.308 0L52.44 40.44l1.01-3.51a1.2 1.2 0 00-.314-1.19l-2.509-2.45 3.315-.4a1.2 1.2 0 00.932-.663l1.502-3.06 1.44 3.043a1.2 1.2 0 00.944.68l3.296.39-2.664 2.434zM36 28.8H14.4a1.2 1.2 0 00-1.2 1.2v7.2a1.2 1.2 0 001.2 1.2H36a1.2 1.2 0 001.2-1.2V30a1.2 1.2 0 00-1.2-1.2zM34.8 36H15.6v-4.8h19.2V36zm-9.951-24.848l-4.8-4.8a1.2 1.2 0 00-1.697 0l-4.8 4.8A1.2 1.2 0 0014.4 13.2h1.2v2.4a1.2 1.2 0 001.2 1.2h4.8a1.2 1.2 0 001.2-1.2v-2.4H24a1.2 1.2 0 00.849-2.048zM20.4 12v2.4H18V12c0-.5-.31-.949-.778-1.124l1.978-1.98 1.98 1.98A1.2 1.2 0 0020.4 12z"/></g><defs><clipPath id="clip0"><path fill="#fff" d="M0 0h72v72H0z"/></clipPath></defs></svg>