<svg width="23" height="17" fill="none" xmlns="http://www.w3.org/2000/svg"><path d="M7.025 6.456h1.447v-1.04a4.977 4.977 0 00-3.631-1.381H2.42A2.02 2.02 0 00.442 5.649h5.61a.4.4 0 01.284.118l.69.689zm-2.586 0v1.322L6.201 6.77l-.315-.315H4.439zm-.404 6.86a.807.807 0 100-1.614.807.807 0 000 1.614z" fill="#11B687"/><path d="M7.641 12.106a3.61 3.61 0 00-.6-1.63l-.705.704-.57-.57.747-.747A3.615 3.615 0 004.437 8.9v.784H3.63V8.9a3.614 3.614 0 00-1.86.773l.531.532-.57.57-.532-.531a3.614 3.614 0 00-.773 1.86h.783v.808H.426c.087.777.425 1.506.961 2.075l.747-.747.57.57-.704.705c.487.33 1.046.536 1.63.6v-.782h.807v.783a3.614 3.614 0 001.86-.773l-.531-.532.57-.57.532.531c.429-.534.697-1.18.773-1.86h-.783v-.807h.783zm-3.607 2.017a1.614 1.614 0 110-3.227 1.614 1.614 0 010 3.227zm15.501-7.667h1.85v-2.42h-4.271l2.42 2.42zM5.251 8.243c.979.281 1.831.89 2.416 1.723V7.263h-.7l-1.716.98zM16.14.404a.403.403 0 10-.806 0v2.824h.806V.404zm.807 2.016h.807v.808h-.807V2.42zM13.314.807h1.21V.404A1.21 1.21 0 0114.599 0h-1.285a.404.404 0 000 .807zm.825 11.298h.812a4.442 4.442 0 014.418-4.035H23v-.807h-3.63a5.252 5.252 0 00-5.23 4.842z" fill="#11B687"/><path d="M22.975 12.106a3.609 3.609 0 00-.6-1.63l-.705.704-.57-.57.746-.747A3.615 3.615 0 0019.77 8.9v.784h-.806V8.9a3.614 3.614 0 00-1.861.773l.532.532-.57.57-.533-.531a3.614 3.614 0 00-.773 1.86h.784v.808h-.784c.088.777.425 1.506.962 2.075l.747-.747.57.57-.704.705a3.6 3.6 0 001.63.6v-.782h.806v.783a3.615 3.615 0 001.861-.773l-.532-.532.57-.57.533.531a3.62 3.62 0 00.773-1.86h-.783v-.807h.783zm-3.608 2.017a1.614 1.614 0 110-3.227 1.614 1.614 0 010 3.227zM22.191 4.11v.732h.733a1.211 1.211 0 00-.733-.733zM8.475 7.263h.807v4.842h-.807V7.263zM22.191 5.65h.807v.806h-.807V5.65zM11.3 10.491h-1.21v1.614h3.187a2.02 2.02 0 00-1.977-1.614zm-.405-4.438v-.404H9.28v.807h1.21a.404.404 0 00.404-.403zm7.575.477l-2.495-2.495H14.93a4.216 4.216 0 00-3.228 1.384v.634a1.21 1.21 0 01-1.21 1.21h-.404v2.422h1.21a2.82 2.82 0 012.26 1.139A6.062 6.062 0 0118.47 6.53z" fill="#11B687"/><path d="M19.368 13.316a.807.807 0 100-1.614.807.807 0 000 1.614zM1.21 3.632h.808v-1.21H3.06l1.496 1.495.57-.57-1.614-1.615a.404.404 0 00-.285-.118H0v.807h1.21v1.21z" fill="#11B687"/></svg>