<svg width="35" height="35" fill="none" xmlns="http://www.w3.org/2000/svg"><g clip-path="url(#clip0_53_806)" fill="#fff"><path d="M11.348 22.627h18.525c.46 0 .861-.303.986-.744L34.96 7.528a1.024 1.024 0 00-.986-1.307H8.98l-.733-3.299a1.025 1.025 0 00-1-.803H1.024a1.025 1.025 0 100 2.05h5.398l3.703 16.663a3.078 3.078 0 00-1.855 2.82 3.08 3.08 0 003.077 3.077h18.525a1.025 1.025 0 100-2.051H11.348c-.565 0-1.026-.46-1.026-1.025 0-.566.46-1.026 1.026-1.026z"/><path d="M10.322 29.805A3.08 3.08 0 0013.4 32.88a3.08 3.08 0 003.076-3.076 3.08 3.08 0 00-3.076-3.076 3.08 3.08 0 00-3.077 3.076zm14.424 0a3.08 3.08 0 003.076 3.076 3.08 3.08 0 003.076-3.076 3.08 3.08 0 00-3.076-3.076 3.08 3.08 0 00-3.076 3.076z"/></g><defs><clipPath id="clip0_53_806"><path fill="#fff" d="M0 0h35v35H0z"/></clipPath></defs></svg>