<svg width="27" height="27" viewBox="0 0 27 27" fill="none" xmlns="http://www.w3.org/2000/svg">
<g clip-path="url(#clip0)">
<path d="M2.95712 23.5458H15.9953V24.5725C15.9963 25.491 16.7405 26.235 17.6588 26.236H25.3365C26.2547 26.235 26.999 25.491 27 24.5725V19.0609C26.999 18.1427 26.2547 17.3984 25.3365 17.3974H24.9229V15.1581C24.9226 14.2661 24.508 13.4248 23.8009 12.8812V9.78665C23.7989 8.15388 22.4758 6.83103 20.8431 6.82928H20.6449V6.68932C20.6431 5.0568 19.3203 3.73344 17.6875 3.73144H12.8577C12.7847 3.73144 12.7152 3.70095 12.6662 3.64722L10.9138 1.73029C10.3532 1.11772 9.56117 0.768572 8.73091 0.767822H2.95712C1.32486 0.769572 0.00174948 2.09268 0 3.72495V20.5884C0.00174948 22.221 1.32486 23.5438 2.95712 23.5458ZM24.539 18.1877C24.5827 18.1877 24.6262 18.1799 24.6674 18.1652H25.3365C25.8311 18.1657 26.2317 18.5665 26.2322 19.0609V24.5725C26.2317 25.0671 25.8311 25.4678 25.3365 25.4683H17.6588C17.1644 25.4678 16.7635 25.0671 16.763 24.5725V19.0609C16.7635 18.5665 17.1644 18.1657 17.6588 18.1652H18.3281C18.4108 18.1952 18.5015 18.1952 18.5845 18.1652H24.4108C24.452 18.1799 24.4952 18.1877 24.539 18.1877ZM24.1551 15.1583V17.3976H18.8402V15.1583C18.8414 13.9944 19.7846 13.0509 20.9488 13.0497H22.0465C23.2106 13.0509 24.1538 13.9944 24.1551 15.1583ZM20.8431 7.59705C22.052 7.5983 23.0317 8.57776 23.0332 9.78665V12.4564C22.717 12.3406 22.3831 12.2817 22.0465 12.2819H20.9488C19.3608 12.2837 18.0741 13.5705 18.0724 15.1583V17.3976H17.6588C16.7405 17.3986 15.9963 18.1429 15.9953 19.0612V22.7785H5.21395C5.83302 22.219 6.18592 21.4235 6.18567 20.5889V9.78665C6.18717 8.57801 7.16638 7.59855 8.37502 7.59705H20.8431ZM0.767772 3.72495C0.769272 2.5163 1.74848 1.53709 2.95712 1.53559H8.73091C9.34573 1.53634 9.93206 1.79477 10.3472 2.24838L12.0989 4.16432C12.2934 4.37775 12.5688 4.49922 12.8577 4.49922H17.6875C18.8964 4.50072 19.8759 5.48043 19.8771 6.68932V6.82928H8.37502C6.74275 6.83128 5.41964 8.15413 5.41789 9.78665V20.5884C5.4164 21.7973 4.43669 22.7768 3.22779 22.778H2.95712C1.74848 22.7766 0.769272 21.7971 0.767772 20.5884V3.72495Z" fill="#05237D"/>
<path d="M20.4884 22.4081C20.8148 22.4081 21.0795 22.1434 21.0795 21.817C21.0795 21.4906 20.8148 21.226 20.4884 21.226C20.162 21.226 19.8973 21.4906 19.8973 21.817C19.8978 22.1432 20.1623 22.4076 20.4884 22.4081ZM20.4884 21.6403C20.5861 21.6403 20.6651 21.7193 20.6651 21.817C20.6651 21.9145 20.5861 21.9937 20.4884 21.9937C20.3909 21.9937 20.3117 21.9145 20.3117 21.817C20.312 21.7196 20.3909 21.6403 20.4884 21.6403Z" fill="#05237D"/>
<path d="M22.5068 22.4081C22.8332 22.4081 23.0979 22.1434 23.0979 21.817C23.0979 21.4906 22.8332 21.226 22.5068 21.226C22.1804 21.226 21.9158 21.4906 21.9158 21.817C21.916 22.1432 22.1804 22.4076 22.5068 22.4081ZM22.5068 21.6403C22.6043 21.6403 22.6835 21.7193 22.6835 21.817C22.6835 21.9145 22.6043 21.9937 22.5068 21.9937C22.4091 21.9937 22.3301 21.9145 22.3301 21.817C22.3301 21.7196 22.4091 21.6403 22.5068 21.6403Z" fill="#05237D"/>
<path d="M17.7755 21.8168C17.7755 22.1432 18.0402 22.4079 18.3666 22.4079C18.693 22.4079 18.9577 22.1432 18.9577 21.8168C18.9577 21.4904 18.693 21.2257 18.3666 21.2257C18.0404 21.226 17.776 21.4904 17.7755 21.8168ZM18.5433 21.8168C18.5433 21.9143 18.4643 21.9935 18.3666 21.9935C18.2691 21.9935 18.1899 21.9143 18.1899 21.8168C18.1899 21.7191 18.2691 21.6401 18.3666 21.6401C18.4643 21.6401 18.5433 21.7191 18.5433 21.8168Z" fill="#05237D"/>
<path d="M24.6287 22.4081C24.9551 22.4081 25.2197 22.1434 25.2197 21.817C25.2197 21.4906 24.9551 21.226 24.6287 21.226C24.3023 21.226 24.0376 21.4906 24.0376 21.817C24.0378 22.1432 24.3023 22.4076 24.6287 22.4081ZM24.6287 21.6403C24.7261 21.6403 24.8054 21.7193 24.8054 21.817C24.8054 21.9145 24.7261 21.9937 24.6287 21.9937C24.531 21.9937 24.452 21.9145 24.452 21.817C24.452 21.7196 24.531 21.6403 24.6287 21.6403Z" fill="#05237D"/>
</g>
<defs>
<clipPath id="clip0">
<rect width="27" height="27" fill="white"/>
</clipPath>
</defs>
</svg>
