<svg width="21" height="18" viewBox="0 0 21 18" fill="none" xmlns="http://www.w3.org/2000/svg">
<path d="M18.588 5.0196C18.6009 5.20089 18.6009 5.38222 18.6009 5.5635C18.6009 11.093 14.4307 17.4643 6.80883 17.4643C4.46068 17.4643 2.27936 16.7779 0.444458 15.5866C0.778086 15.6254 1.09884 15.6384 1.4453 15.6384C3.38281 15.6384 5.1664 14.9779 6.59069 13.8513C4.76863 13.8125 3.24169 12.6081 2.7156 10.9506C2.97225 10.9894 3.22886 11.0153 3.49834 11.0153C3.87044 11.0153 4.24258 10.9635 4.589 10.8729C2.68996 10.4844 1.26563 8.80092 1.26563 6.76782V6.71604C1.81736 7.02683 2.45899 7.22108 3.139 7.24695C2.02267 6.49585 1.29131 5.21385 1.29131 3.76347C1.29131 2.98651 1.49657 2.27427 1.85587 1.65268C3.89607 4.19082 6.96279 5.84835 10.4016 6.02968C10.3374 5.71888 10.2989 5.39517 10.2989 5.07142C10.2989 2.76635 12.1467 0.888672 14.4435 0.888672C15.6368 0.888672 16.7146 1.39371 17.4717 2.20954C18.4083 2.02825 19.3065 1.67859 20.1021 1.19947C19.7941 2.17071 19.1397 2.98655 18.2801 3.5045C19.1141 3.41389 19.9225 3.18075 20.6667 2.85704C20.1022 3.68578 19.3964 4.42389 18.588 5.0196Z" fill="white"/>
</svg>
