<svg width="27" height="27" viewBox="0 0 27 27" fill="none" xmlns="http://www.w3.org/2000/svg">
<path d="M1.97754 23.6514H26.0771C26.1611 23.6514 26.2415 23.618 26.3009 23.5587C26.3602 23.4994 26.3936 23.4189 26.3936 23.335C26.3936 23.251 26.3602 23.1706 26.3009 23.1112C26.2415 23.0519 26.1611 23.0186 26.0771 23.0186H24.746V5.6286C24.7461 5.50118 24.6957 5.37889 24.6058 5.28858C24.5159 5.19827 24.3939 5.14731 24.2665 5.14687H21.169C21.0416 5.14731 20.9195 5.19827 20.8296 5.28858C20.7397 5.37889 20.6893 5.50117 20.6894 5.6286V23.0186H18.8283V7.82826C18.8285 7.70083 18.7781 7.57855 18.6882 7.48824C18.5983 7.39793 18.4762 7.34696 18.3488 7.34653H15.2513C15.1239 7.34696 15.0018 7.39793 14.9119 7.48824C14.822 7.57855 14.7716 7.70083 14.7718 7.82826V23.0186H12.9106V10.0279C12.9108 9.90044 12.8604 9.77815 12.7705 9.68784C12.6806 9.59753 12.5586 9.54657 12.4311 9.54613H9.33367C9.20624 9.54657 9.08419 9.59753 8.9943 9.68784C8.9044 9.77815 8.854 9.90044 8.85415 10.0279V23.0186H6.993V12.9392C6.99315 12.8118 6.94275 12.6895 6.85286 12.5992C6.76296 12.5089 6.64091 12.4579 6.51349 12.4575H3.41597C3.28856 12.4579 3.16652 12.5089 3.07664 12.5992C2.98675 12.6895 2.93636 12.8118 2.93651 12.9392V23.0186H1.97754C1.78192 23.0185 1.59433 22.9408 1.45592 22.8026C1.31751 22.6643 1.23959 22.4768 1.23926 22.2812V3.66504C1.23926 3.58112 1.20592 3.50064 1.14658 3.44131C1.08725 3.38197 1.00677 3.34863 0.922852 3.34863C0.838935 3.34863 0.758456 3.38197 0.699119 3.44131C0.639781 3.50064 0.606445 3.58112 0.606445 3.66504V22.2812C0.606976 22.6446 0.751631 22.9929 1.00867 23.2498C1.26572 23.5067 1.61415 23.6511 1.97754 23.6514ZM21.3222 5.77969H24.1132V23.0186H21.3222V5.77969ZM15.4046 7.97934H18.1955V23.0186H15.4046V7.97934ZM9.48691 10.1789H12.2778V23.0186H9.48691V10.1789ZM3.56933 13.0903H6.36019V23.0186H3.56933V13.0903Z" fill="#05237D"/>
</svg>
