<svg width="24" height="24" viewBox="0 0 24 24" fill="none" xmlns="http://www.w3.org/2000/svg">
<path d="M18.4303 17.6444C21.988 13.6723 21.8596 7.54458 18.0436 3.72885C14.1407 -0.170412 7.83405 -0.226979 3.86183 3.60197C-0.11056 7.43074 -0.285901 13.7353 3.46745 17.7788C7.2208 21.8226 13.5209 22.1167 17.6345 18.4402L22.2982 23.1039C22.5183 23.3221 22.8732 23.3212 23.0922 23.1021C23.3113 22.8831 23.3122 22.5282 23.094 22.3081L18.4303 17.6444ZM4.51474 17.2577C0.982368 13.758 0.955759 8.05738 4.45535 4.52467C7.95512 0.992299 13.6559 0.96569 17.1884 4.46528L17.2478 4.52467C20.7583 8.03518 20.7583 13.7471 17.2478 17.2577C13.7371 20.7684 8.02508 20.7683 4.51474 17.2577Z" fill="white"/>
<path d="M14.2573 10.3273H11.4429V7.51529C11.4429 7.20461 11.191 6.95261 10.8802 6.95261C10.5697 6.95261 10.3175 7.20461 10.3175 7.51529V10.3273H7.50536C7.19486 10.3273 6.94269 10.5794 6.94269 10.8899C6.94269 11.2008 7.19486 11.4526 7.50536 11.4526H10.3175V14.2672C10.3175 14.5779 10.5697 14.8299 10.8802 14.8299C11.191 14.8299 11.4429 14.5779 11.4429 14.2672V11.4526H14.2573C14.5682 11.4526 14.82 11.2008 14.82 10.8899C14.82 10.5794 14.5682 10.3273 14.2573 10.3273Z" fill="white"/>
</svg>
