<svg width="18" height="18" viewBox="0 0 18 18" fill="none" xmlns="http://www.w3.org/2000/svg">
<path d="M17.9876 3.87675C17.9831 3.8385 17.9775 3.80137 17.9651 3.76425C17.8774 3.22875 17.4341 2.8125 16.875 2.8125H1.125C0.565875 2.8125 0.122625 3.22875 0.034875 3.76425C0.0225 3.80137 0.016875 3.8385 0.012375 3.87675C0.01125 3.89813 0 3.91613 0 3.9375V14.0625C0 14.0839 0.01125 14.103 0.012375 14.1244C0.016875 14.1626 0.0225 14.1986 0.034875 14.2358C0.1215 14.7701 0.565875 15.1875 1.125 15.1875H16.875C17.4341 15.1875 17.8785 14.7701 17.9651 14.2346C17.9775 14.1975 17.9831 14.1615 17.9876 14.1233C17.9888 14.103 18 14.0839 18 14.0625V3.9375C18 3.91613 17.9888 3.89813 17.9876 3.87675ZM16.4858 3.9375L10.242 8.51625L9 9.4275L7.75912 8.51737C7.75912 8.51737 7.758 8.51737 7.758 8.51625L1.51425 3.9375H16.4858ZM1.125 5.04787L6.516 9.00113L1.125 12.9532V5.04787ZM1.51425 14.0625L7.46775 9.69863L8.667 10.5784C8.766 10.6515 8.883 10.6875 9 10.6875C9.117 10.6875 9.234 10.6515 9.333 10.5784L10.5323 9.69863L16.4858 14.0625H1.51425ZM16.875 12.9532L11.484 9.00113L16.875 5.04787V12.9532Z" fill="#FF003F"/>
</svg>
