<svg width="14" height="14" viewBox="0 0 14 14" fill="none" xmlns="http://www.w3.org/2000/svg">
<g clip-path="url(#clip0)">
<path d="M2.0378 13.1637H1.0458L1.74727 12.4622C2.12549 12.084 2.36167 11.5921 2.42517 11.0584C1.43821 10.4107 0.716508 9.55862 0.330179 8.58139C-0.0558761 7.60489 -0.10439 6.52995 0.189898 5.47273C0.542998 4.20417 1.37118 3.04792 2.52184 2.21694C3.77224 1.31397 5.32885 0.83667 7.0234 0.83667C9.15809 0.83667 10.9574 1.44998 12.2267 2.61026C13.3702 3.65556 14 5.06553 14 6.58046C14 7.31647 13.8501 8.03261 13.5546 8.70901C13.2487 9.40894 12.8009 10.0322 12.2235 10.5613C10.9524 11.7262 9.15425 12.3419 7.02337 12.3419C6.23233 12.3419 5.40689 12.2363 4.66992 12.0425C3.97235 12.7581 3.02709 13.1637 2.0378 13.1637ZM7.0234 1.65847C3.62555 1.65847 1.54061 3.68484 0.981594 5.69311C0.45334 7.59092 1.23205 9.38418 3.06467 10.4901L3.26944 10.6137L3.26314 10.8527C3.25064 11.3259 3.13784 11.7817 2.93592 12.1937C3.42761 12.0273 3.87376 11.7257 4.22314 11.313L4.39687 11.1077L4.6545 11.1848C5.37749 11.401 6.21877 11.5201 7.0234 11.5201C11.2522 11.5201 13.1782 8.95955 13.1782 6.58046C13.1782 5.29911 12.6434 4.10454 11.6722 3.21683C10.557 2.19735 8.9494 1.65847 7.0234 1.65847Z" fill="#A3A3A3"/>
</g>
<defs>
<clipPath id="clip0">
<rect width="14" height="14" fill="white"/>
</clipPath>
</defs>
</svg>
