<svg width="18" height="18" viewBox="0 0 18 18" fill="none" xmlns="http://www.w3.org/2000/svg">
<g clip-path="url(#clip0)">
<path d="M17.9973 3.46335C17.9827 3.3126 17.9084 3.17311 17.7903 3.07861C16.4213 1.97616 14.8508 1.14932 13.1791 0.629588C13.16 0.621713 13.1398 0.613838 13.1195 0.607089C13.0948 0.599214 13.07 0.593589 13.0441 0.589089C10.4387 -0.190504 7.56337 -0.190504 4.95797 0.589089C4.93097 0.593589 4.90623 0.600339 4.88148 0.607089C4.8601 0.613838 4.84098 0.621713 4.82185 0.629588C3.14905 1.14932 1.57974 1.97616 0.210667 3.07861C0.0925467 3.17423 0.0171747 3.3126 0.00255035 3.46447C-0.0120741 3.61522 0.035174 3.76596 0.133045 3.88183L1.9566 6.02937C2.15234 6.26111 2.49657 6.29598 2.73506 6.10699C3.73515 5.3139 4.8556 4.73004 6.06605 4.37231C6.21117 4.32956 6.33267 4.23057 6.40354 4.0967C6.47441 3.96283 6.48791 3.80646 6.44291 3.66246L5.76569 1.5318C7.86598 0.991823 10.135 0.991823 12.2353 1.5318L11.5581 3.66246C11.512 3.80646 11.5266 3.96283 11.5975 4.0967C11.6683 4.23057 11.7898 4.32956 11.9349 4.37231C13.1454 4.73004 14.2658 5.3139 15.2648 6.10699C15.3683 6.18911 15.492 6.22848 15.6147 6.22848C15.7744 6.22848 15.933 6.16099 16.0444 6.02937L17.8668 3.8807C17.9647 3.76483 18.0119 3.61522 17.9973 3.46335ZM2.4707 4.89766L1.37387 3.60397C2.38745 2.8615 3.50678 2.2754 4.68798 1.85916L5.20096 3.4701C4.229 3.81321 3.31441 4.29131 2.4707 4.89766ZM15.5303 4.89766C14.6866 4.29244 13.772 3.81433 12.8 3.4701L13.3119 1.85916C14.4942 2.2754 15.6124 2.86262 16.6271 3.60397L15.5303 4.89766Z" fill="#FF003F"/>
<path d="M11.8124 6.746H11.2499V5.05857C11.2499 4.74808 10.9979 4.49609 10.6874 4.49609C10.3769 4.49609 10.125 4.74808 10.125 5.05857V6.746H7.87504V5.05857C7.87504 4.74808 7.62305 4.49609 7.31257 4.49609C7.00208 4.49609 6.75009 4.74808 6.75009 5.05857V6.746H6.18761C2.77563 6.746 0.000366211 9.52126 0.000366211 12.9332V16.8706C0.000366211 17.4904 0.50547 17.9955 1.12532 17.9955H16.8747C17.4945 17.9955 17.9996 17.4904 17.9996 16.8706V12.9332C17.9996 9.52126 15.2244 6.746 11.8124 6.746ZM16.8747 16.8706H1.12532V12.9332C1.12532 10.1422 3.3966 7.87096 6.18761 7.87096H11.8124C14.6034 7.87096 16.8747 10.1422 16.8747 12.9332V16.8706Z" fill="#FF003F"/>
<path d="M8.99998 8.99585C7.13931 8.99585 5.62512 10.51 5.62512 12.3707C5.62512 14.2314 7.13931 15.7456 8.99998 15.7456C10.8606 15.7456 12.3748 14.2314 12.3748 12.3707C12.3748 10.51 10.8606 8.99585 8.99998 8.99585ZM8.99998 14.6206C7.75916 14.6206 6.75007 13.6115 6.75007 12.3707C6.75007 11.1299 7.75916 10.1208 8.99998 10.1208C10.2408 10.1208 11.2499 11.1299 11.2499 12.3707C11.2499 13.6115 10.2408 14.6206 8.99998 14.6206Z" fill="#FF003F"/>
</g>
<defs>
<clipPath id="clip0">
<rect width="18" height="18" fill="white"/>
</clipPath>
</defs>
</svg>
