<svg width="14" height="14" viewBox="0 0 14 14" fill="none" xmlns="http://www.w3.org/2000/svg">
<path d="M11.22 4.375C10.0143 4.375 9.03253 3.39383 9.03253 2.1875C9.03253 0.981171 10.0143 0 11.22 0C12.4258 0 13.4075 0.981171 13.4075 2.1875C13.4075 3.39383 12.4258 4.375 11.22 4.375ZM11.22 0.875C10.4967 0.875 9.90753 1.46353 9.90753 2.1875C9.90753 2.91147 10.4967 3.5 11.22 3.5C11.9434 3.5 12.5325 2.91147 12.5325 2.1875C12.5325 1.46353 11.9434 0.875 11.22 0.875Z" fill="#A3A3A3"/>
<path d="M11.22 14C10.0143 14 9.03253 13.0188 9.03253 11.8125C9.03253 10.6062 10.0143 9.625 11.22 9.625C12.4258 9.625 13.4075 10.6062 13.4075 11.8125C13.4075 13.0188 12.4258 14 11.22 14ZM11.22 10.5C10.4967 10.5 9.90753 11.0885 9.90753 11.8125C9.90753 12.5365 10.4967 13.125 11.22 13.125C11.9434 13.125 12.5325 12.5365 12.5325 11.8125C12.5325 11.0885 11.9434 10.5 11.22 10.5Z" fill="#A3A3A3"/>
<path d="M2.76172 9.1875C1.55592 9.1875 0.574219 8.20633 0.574219 7C0.574219 5.79367 1.55592 4.8125 2.76172 4.8125C3.96751 4.8125 4.94922 5.79367 4.94922 7C4.94922 8.20633 3.96751 9.1875 2.76172 9.1875ZM2.76172 5.6875C2.03839 5.6875 1.44922 6.27603 1.44922 7C1.44922 7.72397 2.03839 8.3125 2.76172 8.3125C3.48505 8.3125 4.07422 7.72397 4.07422 7C4.07422 6.27603 3.48505 5.6875 2.76172 5.6875Z" fill="#A3A3A3"/>
<path d="M4.28486 6.57401C4.13255 6.57401 3.9844 6.49465 3.90451 6.35355C3.78488 6.14356 3.85783 5.87631 4.06782 5.75679L9.48059 2.6709C9.68994 2.5502 9.95771 2.62369 10.0767 2.83432C10.1963 3.04431 10.1234 3.31145 9.91339 3.43108L4.50062 6.51686C4.43237 6.55531 4.35835 6.57401 4.28486 6.57401Z" fill="#A3A3A3"/>
<path d="M9.69703 11.3868C9.62354 11.3868 9.54942 11.3681 9.48116 11.3291L4.06838 8.24323C3.85839 8.12371 3.78555 7.85647 3.90507 7.64648C4.02406 7.43596 4.2913 7.363 4.50129 7.48317L9.91397 10.5689C10.124 10.6886 10.1969 10.9557 10.0774 11.1657C9.99685 11.3074 9.8487 11.3868 9.69703 11.3868Z" fill="#A3A3A3"/>
</svg>
