<svg width="33" height="33" viewBox="0 0 33 33" fill="none" xmlns="http://www.w3.org/2000/svg">
<path d="M27.2275 14.7604V11.3994C27.2289 10.9272 27.0429 10.4737 26.7104 10.1384C26.3779 9.80314 25.926 9.61343 25.4538 9.61093H19.9402V6.47805C19.9402 5.57152 19.2281 4.83398 18.3527 4.83398H9.51923C8.64389 4.83398 7.93175 5.57152 7.93175 6.47805V9.61093H2.4181C1.94589 9.61343 1.49396 9.80314 1.16145 10.1384C0.828935 10.4737 0.642994 10.9272 0.644417 11.3994V26.1C0.642994 26.5722 0.828935 27.0257 1.16145 27.361C1.49396 27.6963 1.94589 27.886 2.4181 27.8885H23.3835C24.0257 28.073 24.6906 28.1664 25.3588 28.166C29.2165 28.166 32.3554 25.1036 32.3554 21.3394C32.3554 18.2065 30.181 15.5601 27.2275 14.7604ZM26.454 11.3994V14.5963C25.3276 14.4226 24.176 14.5197 23.0945 14.8795V10.3844H25.4535C25.7207 10.3866 25.9761 10.4947 26.1637 10.685C26.3513 10.8753 26.4557 11.1322 26.454 11.3994ZM8.70518 6.47805C8.70518 5.99801 9.07031 5.60742 9.51923 5.60742H18.3527C18.8016 5.60742 19.1668 5.99801 19.1668 6.47805V9.61093H18.402V6.8631C18.4021 6.72932 18.3491 6.60097 18.2546 6.50623C18.1602 6.41149 18.032 6.35808 17.8982 6.35772H9.97375C9.83996 6.35806 9.71176 6.41146 9.6173 6.50621C9.52283 6.60095 9.4698 6.7293 9.46985 6.8631V9.61093H8.70518V6.47805ZM10.2433 9.61093V7.13116H17.6286V9.61093H10.2433ZM1.41785 26.1V11.3994C1.41621 11.1323 1.52059 10.8754 1.7081 10.6851C1.89562 10.4948 2.15095 10.3866 2.4181 10.3844H4.77709V27.115H2.4181C2.15095 27.1128 1.89562 27.0046 1.7081 26.8143C1.52059 26.624 1.41621 26.3671 1.41785 26.1ZM5.55078 27.115V10.3844H22.3211V15.1904C19.9804 16.2957 18.3621 18.6366 18.3621 21.3392C18.3621 23.7682 19.6693 25.9045 21.633 27.1149L5.55078 27.115ZM25.3588 27.3926C21.9273 27.3926 19.1356 24.6772 19.1356 21.3394C19.1356 18.0016 21.9273 15.2862 25.3588 15.2862C28.7903 15.2862 31.5819 18.0018 31.5819 21.3394C31.5819 24.677 28.7903 27.3926 25.3588 27.3926Z" fill="#05237D"/>
<path d="M25.8468 17.8277V17.3643C25.8468 17.2617 25.806 17.1633 25.7335 17.0908C25.661 17.0183 25.5626 16.9775 25.46 16.9775C25.3575 16.9775 25.2591 17.0183 25.1866 17.0908C25.1141 17.1633 25.0733 17.2617 25.0733 17.3643V17.8294C24.7229 17.8821 24.3974 18.0418 24.1412 18.2865C23.6087 18.8055 23.5774 19.5305 23.5805 19.7399C23.5924 20.5593 24.2157 21.2505 25.0963 21.4207L25.1834 21.4376C25.247 21.4501 25.322 21.4647 25.369 21.4736C25.3978 21.4791 25.4714 21.5011 25.503 21.5105C25.5143 21.5139 25.5254 21.5179 25.5362 21.5225C25.5413 21.5247 25.5463 21.5267 25.5514 21.529L25.6719 21.5747C25.6827 21.5788 25.6933 21.5834 25.7036 21.5886C25.7607 21.6175 25.7784 21.6277 25.8161 21.6496L25.8916 21.6936C25.8957 21.6962 25.9004 21.6991 25.9056 21.7023C26.0294 21.7767 26.6482 22.1772 26.6726 22.7556C26.6872 23.1012 26.5988 23.3647 26.4023 23.5612C26.0878 23.876 25.5709 23.9415 25.3155 23.9311C24.94 23.9153 24.206 23.5864 24.1415 23.0134C24.13 22.9115 24.0785 22.8183 23.9984 22.7544C23.9182 22.6904 23.8159 22.6609 23.7139 22.6724C23.612 22.6839 23.5188 22.7354 23.4549 22.8156C23.3909 22.8958 23.3614 22.9981 23.3729 23.1C23.475 24.0067 24.365 24.5635 25.0734 24.6815V25.0722C25.0734 25.1748 25.1141 25.2731 25.1867 25.3457C25.2592 25.4182 25.3575 25.4589 25.4601 25.4589C25.5627 25.4589 25.661 25.4182 25.7336 25.3457C25.8061 25.2731 25.8468 25.1748 25.8468 25.0722V24.6597C26.261 24.5893 26.6448 24.3972 26.9494 24.1077C27.2974 23.7597 27.4689 23.2806 27.4457 22.7227C27.4056 21.7747 26.565 21.1961 26.303 21.0382L26.2683 21.0169L26.2039 20.9799C26.1536 20.9508 26.1261 20.9351 26.0523 20.8978C26.018 20.8806 25.9828 20.8651 25.9469 20.8514L25.8332 20.8082C25.7977 20.7934 25.7614 20.7805 25.7245 20.7696C25.649 20.747 25.5762 20.7258 25.5135 20.714C25.4676 20.7053 25.3942 20.6909 25.3319 20.6788L25.2433 20.6616C24.6368 20.5443 24.3598 20.1087 24.3539 19.7288C24.35 19.4575 24.4338 19.0817 24.6811 18.8406C24.8784 18.6483 25.1657 18.5586 25.5347 18.5731C26.5287 18.613 26.7636 19.4061 26.7876 19.4986C26.8128 19.5974 26.8759 19.6822 26.9633 19.7346C27.0506 19.7871 27.1551 19.803 27.2541 19.7788C27.3531 19.7546 27.4385 19.6924 27.4919 19.6056C27.5452 19.5188 27.5621 19.4144 27.539 19.3152C27.4315 18.9299 27.2143 18.5842 26.9138 18.3201C26.6134 18.056 26.2427 17.8849 25.8468 17.8277Z" fill="#05237D"/>
</svg>
