<svg width="27" height="27" viewBox="0 0 27 27" fill="none" xmlns="http://www.w3.org/2000/svg">
<path d="M25.1016 6.08059H23.2019V5.41434C23.2021 4.98983 23.0338 4.58258 22.7341 4.28195C22.4344 3.98131 22.0276 3.81184 21.6031 3.81069H19.3998V3.58119C19.3999 3.15667 19.2317 2.74943 18.9319 2.4488C18.6322 2.14816 18.2255 1.97868 17.801 1.97754H2.12614C1.70163 1.97868 1.2949 2.14816 0.995172 2.4488C0.695447 2.74943 0.527203 3.15667 0.527344 3.58119V19.3158C0.527203 19.7403 0.695447 20.1475 0.995172 20.4482C1.2949 20.7488 1.70163 20.9183 2.12614 20.9194H4.32949V21.1489C4.32934 21.5734 4.49757 21.9806 4.79728 22.2813C5.097 22.5819 5.50372 22.7514 5.92824 22.7526H7.60024V23.6514C7.60066 24.0149 7.74524 24.3634 8.00228 24.6204C8.25932 24.8775 8.60782 25.022 8.97133 25.0225H25.1016C25.4651 25.022 25.8136 24.8775 26.0706 24.6204C26.3276 24.3634 26.4722 24.0149 26.4727 23.6514V7.45168C26.4723 7.08817 26.3277 6.73966 26.0706 6.48262C25.8136 6.22558 25.4651 6.08099 25.1016 6.08059ZM2.12614 20.2866C1.86939 20.2857 1.62349 20.1829 1.44239 20.0009C1.26129 19.8189 1.15979 19.5725 1.16016 19.3158V3.58119C1.15981 3.32444 1.26131 3.07804 1.44241 2.89603C1.6235 2.71403 1.8694 2.61129 2.12614 2.61035H17.801C18.0577 2.61129 18.3036 2.71403 18.4847 2.89603C18.6658 3.07804 18.7673 3.32444 18.767 3.58119V3.81069H5.92824C5.50373 3.81185 5.09701 3.98133 4.7973 4.28197C4.49759 4.5826 4.32935 4.98983 4.32949 5.41434V20.2866H2.12614ZM7.60024 7.45168V22.1197H5.92824C5.67149 22.1188 5.4256 22.016 5.24452 21.834C5.06343 21.652 4.96194 21.4056 4.9623 21.1489V5.41434C4.96195 5.1576 5.06345 4.9112 5.24454 4.7292C5.42562 4.5472 5.6715 4.44445 5.92824 4.4435H21.6031C21.8599 4.44444 22.1058 4.54718 22.2868 4.72918C22.4679 4.91119 22.5695 5.15759 22.5691 5.41434V6.08059H8.97133C8.60782 6.08099 8.25931 6.22558 8.00227 6.48262C7.74523 6.73966 7.60064 7.08817 7.60024 7.45168ZM25.8398 23.6514C25.8396 23.8471 25.7618 24.0348 25.6234 24.1732C25.485 24.3116 25.2973 24.3894 25.1016 24.3896H8.97133C8.77559 24.3894 8.58793 24.3116 8.44952 24.1732C8.31111 24.0348 8.23326 23.8471 8.23305 23.6514V7.45168C8.23326 7.25594 8.31111 7.06828 8.44952 6.92987C8.58793 6.79146 8.77559 6.71361 8.97133 6.7134H25.1016C25.2973 6.71361 25.485 6.79146 25.6234 6.92987C25.7618 7.06828 25.8396 7.25594 25.8398 7.45168V23.6514Z" fill="#05237D"/>
</svg>
