<svg width="65" height="65" viewBox="0 0 65 65" fill="none" xmlns="http://www.w3.org/2000/svg">
<path d="M56.7841 35.6357L56.4317 35.8289C55.1519 34.2218 52.9075 33.5946 51.2013 34.4736L51.1841 34.4826L50.4002 34.9111C49.5084 34.1313 48.3939 33.6518 47.2146 33.5404C46.0352 33.429 44.8507 33.6915 43.8287 34.2905L39.7329 36.5538H34.2858C33.101 36.552 31.9323 36.2798 30.8686 35.758L30.1207 35.3898C28.0015 34.3409 25.6303 33.9085 23.2773 34.1419C20.9243 34.3753 18.6843 35.2652 16.8126 36.7101C16.7956 36.7228 16.7796 36.7362 16.7643 36.7502L14.9589 38.3843C14.2632 39.0147 13.435 39.4814 12.5353 39.7499L11.4923 36.2733C11.4453 36.1164 11.3489 35.9788 11.2174 35.881C11.086 35.7832 10.9266 35.7304 10.7627 35.7304H2.03104C1.92335 35.7304 1.81688 35.7533 1.71867 35.7974C1.62045 35.8416 1.53272 35.9061 1.46125 35.9867C1.38979 36.0672 1.33621 36.162 1.30407 36.2648C1.27193 36.3676 1.26194 36.476 1.27478 36.5829L4.1853 60.8378C4.2075 61.0228 4.29672 61.1932 4.43608 61.3168C4.57543 61.4405 4.75527 61.5087 4.94156 61.5088H18.0391C18.1578 61.5088 18.2749 61.481 18.381 61.4277C18.4871 61.3744 18.5793 61.297 18.6502 61.2017C18.7211 61.1065 18.7687 60.9959 18.7893 60.879C18.8098 60.762 18.8028 60.6419 18.7687 60.5282L17.0314 54.7372L22.433 51.2671C23.1572 50.8586 24.0112 50.746 24.8165 50.9527C24.8325 50.9568 24.8486 50.9604 24.8648 50.9634L35.7653 53.0029C38.721 53.5398 41.7711 53.1022 44.4567 51.7561C44.4892 51.7397 44.5204 51.7211 44.5502 51.7002L63.4045 38.5446C63.5621 38.4346 63.6724 38.2691 63.7131 38.0812C63.7538 37.8933 63.722 37.697 63.624 37.5316C62.9564 36.386 61.8676 35.5465 60.5897 35.1923C59.3119 34.8381 57.9463 34.9972 56.7841 35.6357ZM51.9061 35.8239C52.8873 35.3238 54.2166 35.6795 55.0661 36.5776L47.8306 40.5439L47.3642 40.7938C47.132 40.1 46.7801 39.4521 46.3243 38.8797L51.9061 35.8239ZM44.5742 35.6197C44.5803 35.6164 44.5869 35.6129 44.5922 35.6093C45.2542 35.2195 46.0121 35.0226 46.7801 35.0407C47.5482 35.0588 48.2959 35.2913 48.9388 35.7119L45.181 37.7699C44.4431 37.2169 43.5892 36.839 42.6837 36.6647L44.5742 35.6197ZM5.61733 59.9853L2.88962 37.2539H10.196L17.0153 59.9853H5.61733ZM43.724 50.4195C41.3472 51.5983 38.6537 51.9791 36.0433 51.5054L25.1681 49.4703C23.9813 49.1725 22.7252 49.3454 21.6629 49.9527C21.6509 49.9596 21.6392 49.9667 21.6276 49.9742L16.5761 53.2187L12.973 41.209C14.0896 40.8755 15.1173 40.2964 15.9809 39.514L17.7627 37.9017C19.409 36.6379 21.3765 35.8608 23.4421 35.6586C25.5077 35.4563 27.5886 35.8371 29.4487 36.7576L30.1966 37.1251C31.4695 37.7494 32.868 38.075 34.2858 38.0773H41.5373C43.8225 38.0773 45.7268 39.7729 46.1004 41.9943L40.7783 41.7495C38.8698 41.6624 36.9573 41.7521 35.0654 42.0176C34.8653 42.0458 34.6847 42.1523 34.5631 42.3136C34.4416 42.475 34.3891 42.678 34.4172 42.8781C34.4454 43.0781 34.5518 43.2588 34.7132 43.3804C34.8746 43.5019 35.0776 43.5544 35.2776 43.5262C37.0762 43.2737 38.8942 43.1884 40.7084 43.2713L46.8939 43.5558C46.9055 43.5563 46.9172 43.5566 46.9289 43.5566C47.1309 43.5566 47.3247 43.4763 47.4675 43.3335C47.6104 43.1906 47.6906 42.9969 47.6906 42.7949C47.6906 42.6473 47.6838 42.5015 47.6737 42.3564L48.5567 41.8832L57.5167 36.9708C58.2254 36.5814 59.0456 36.4453 59.8421 36.5848C60.6386 36.7243 61.3638 37.1311 61.8979 37.7382L43.724 50.4195Z" fill="url(#paint0_linear)"/>
<path d="M8.29655 56.5032C8.30211 56.998 8.45393 57.4802 8.7329 57.8889C9.01187 58.2977 9.40552 58.6148 9.86431 58.8003C10.3231 58.9858 10.8265 59.0315 11.3112 58.9315C11.7959 58.8316 12.2401 58.5905 12.5881 58.2386C12.9361 57.8867 13.1722 57.4397 13.2667 56.954C13.3612 56.4682 13.3099 55.9653 13.1192 55.5087C12.9285 55.052 12.607 54.6619 12.1952 54.3876C11.7833 54.1132 11.2995 53.9668 10.8046 53.9668C10.1359 53.9713 9.49634 54.2409 9.02615 54.7164C8.55596 55.1919 8.29358 55.8345 8.29655 56.5032ZM10.8046 55.4902C11.0062 55.4845 11.205 55.539 11.3754 55.6469C11.5458 55.7547 11.6802 55.911 11.7613 56.0956C11.8424 56.2802 11.8666 56.4849 11.8308 56.6833C11.795 56.8818 11.7007 57.0651 11.5602 57.2097C11.4196 57.3543 11.2391 57.4537 11.0417 57.4951C10.8443 57.5366 10.6391 57.5182 10.4522 57.4423C10.2654 57.3664 10.1054 57.2366 9.99275 57.0693C9.88012 56.902 9.81997 56.7049 9.81999 56.5032C9.81656 56.2384 9.9183 55.983 10.1029 55.7931C10.2875 55.6032 10.5398 55.4943 10.8046 55.4902Z" fill="url(#paint1_linear)"/>
<path d="M36.1631 3.49121C28.5277 3.49121 22.3159 9.69554 22.3159 17.3217C22.3159 24.9479 28.5277 31.1521 36.1631 31.1521C43.7986 31.1521 50.0104 24.9478 50.0104 17.3217C50.0104 9.69566 43.799 3.49121 36.1631 3.49121ZM36.1631 29.6287C33.7297 29.6254 31.3519 28.9008 29.3303 27.5464C27.3086 26.1921 25.7338 24.2688 24.8048 22.0197C23.8759 19.7706 23.6346 17.2966 24.1114 14.9103C24.5881 12.5241 25.7616 10.3327 27.4835 8.61323C29.2053 6.89374 31.3983 5.72327 33.7852 5.24977C36.172 4.77627 38.6457 5.02099 40.8936 5.95299C43.1414 6.885 45.0625 8.46245 46.4141 10.486C47.7657 12.5095 48.487 14.8883 48.487 17.3217C48.481 20.5868 47.1802 23.7163 44.8698 26.0235C42.5595 28.3307 39.4283 29.6272 36.1631 29.6287Z" fill="url(#paint2_linear)"/>
<path d="M36.5102 11.6849C38.4797 11.7659 38.9461 13.3868 38.9938 13.5765C39.0405 13.773 39.1634 13.943 39.3355 14.0489C39.5075 14.1548 39.7146 14.1881 39.9111 14.1413C40.1077 14.0946 40.2776 13.9716 40.3835 13.7996C40.4894 13.6276 40.5227 13.4205 40.4759 13.2239C40.2697 12.4515 39.8428 11.7559 39.2476 11.2221C38.6524 10.6884 37.9146 10.3396 37.1244 10.2183V9.25488C37.1244 9.05286 37.0441 8.85912 36.9013 8.71627C36.7584 8.57342 36.5647 8.49316 36.3627 8.49316C36.1606 8.49316 35.9669 8.57342 35.824 8.71627C35.6812 8.85912 35.6009 9.05286 35.6009 9.25488V10.2213C34.9157 10.3271 34.2795 10.6406 33.7781 11.1196C32.7031 12.166 32.6395 13.6459 32.6456 14.0754C32.6691 15.7258 33.9005 17.1189 35.6395 17.4634L35.7919 17.4938C35.922 17.5192 36.0818 17.5518 36.1796 17.5708C36.2357 17.5817 36.3817 17.6263 36.4444 17.6455C36.4663 17.6521 36.4878 17.6601 36.5088 17.6695C36.5189 17.6739 36.529 17.6781 36.5392 17.6822L36.7782 17.7752C36.7993 17.7834 36.8199 17.7927 36.84 17.8031C36.9527 17.8614 36.9803 17.8778 37.0622 17.9264C37.0958 17.9462 37.1357 17.97 37.1871 18.0001L37.2125 18.0167C37.2205 18.0218 37.2292 18.0275 37.2391 18.0334C37.4857 18.1858 38.7175 19.0035 38.7665 20.1934C38.7962 20.9159 38.6129 21.4647 38.206 21.871C37.5813 22.4947 36.575 22.6261 36.0764 22.6036C35.5603 22.5523 35.0662 22.3686 34.6418 22.0704C34.2736 21.8156 33.8198 21.3751 33.7481 20.7229C33.7384 20.6225 33.7089 20.5249 33.6613 20.436C33.6136 20.347 33.5488 20.2684 33.4705 20.2047C33.3922 20.141 33.302 20.0935 33.2052 20.065C33.1084 20.0364 33.0069 20.0274 32.9066 20.0385C32.8063 20.0495 32.7091 20.0803 32.6208 20.1292C32.5325 20.1781 32.4548 20.244 32.3923 20.3232C32.3297 20.4024 32.2834 20.4932 32.2563 20.5904C32.2291 20.6876 32.2215 20.7892 32.2339 20.8894C32.435 22.7204 34.1986 23.8443 35.6004 24.0811V24.8963C35.6004 25.0983 35.6807 25.292 35.8235 25.4349C35.9664 25.5777 36.1601 25.658 36.3621 25.658C36.5642 25.658 36.7579 25.5777 36.9008 25.4349C37.0436 25.292 37.1239 25.0983 37.1239 24.8963V24.0377C37.9349 23.8958 38.6858 23.5171 39.2821 22.9492C39.9874 22.245 40.3358 21.2704 40.2886 20.1308C40.21 18.2246 38.5546 17.0556 38.0365 16.7356C38.0298 16.7313 37.9731 16.6952 37.9668 16.6918L37.8386 16.6163C37.7391 16.5572 37.6847 16.5255 37.5391 16.4501C37.471 16.4149 37.4011 16.3833 37.3297 16.3555L37.1048 16.268C37.0344 16.2376 36.9624 16.2111 36.889 16.1887C36.7392 16.1429 36.5943 16.0998 36.4701 16.0757C36.3742 16.057 36.2175 16.0257 36.0903 16.0002L35.9355 15.9693C34.7304 15.7305 34.1797 14.8352 34.1684 14.054C34.1603 13.4872 34.3327 12.7057 34.8404 12.2115C35.2305 11.832 35.7915 11.6543 36.5102 11.6849Z" fill="url(#paint3_linear)"/>
<defs>
<linearGradient id="paint0_linear" x1="8.35256" y1="32.2876" x2="45.4038" y2="82.7127" gradientUnits="userSpaceOnUse">
<stop offset="0.0601997" stop-color="#05237D"/>
<stop offset="0.97253" stop-color="#5882FF"/>
</linearGradient>
<linearGradient id="paint1_linear" x1="8.86538" y1="53.7468" x2="15.0512" y2="57.5197" gradientUnits="userSpaceOnUse">
<stop offset="0.0601997" stop-color="#05237D"/>
<stop offset="0.97253" stop-color="#5882FF"/>
</linearGradient>
<linearGradient id="paint2_linear" x1="25.4565" y1="2.27801" x2="59.585" y2="23.1198" gradientUnits="userSpaceOnUse">
<stop offset="0.0601997" stop-color="#05237D"/>
<stop offset="0.97253" stop-color="#5882FF"/>
</linearGradient>
<linearGradient id="paint3_linear" x1="33.1658" y1="7.74032" x2="46.0435" y2="11.524" gradientUnits="userSpaceOnUse">
<stop offset="0.0601997" stop-color="#05237D"/>
<stop offset="0.97253" stop-color="#5882FF"/>
</linearGradient>
</defs>
</svg>
