<svg width="65" height="65" viewBox="0 0 65 65" fill="none" xmlns="http://www.w3.org/2000/svg">
<path d="M51.8221 44.2432H56.5916C56.7936 44.2432 56.9873 44.1629 57.1302 44.0201C57.273 43.8772 57.3533 43.6835 57.3533 43.4814C57.3533 43.2794 57.273 43.0857 57.1302 42.9428C56.9873 42.8 56.7936 42.7197 56.5916 42.7197H51.8221C51.6201 42.7197 51.4263 42.8 51.2835 42.9428C51.1406 43.0857 51.0604 43.2794 51.0604 43.4814C51.0604 43.6835 51.1406 43.8772 51.2835 44.0201C51.4263 44.1629 51.6201 44.2432 51.8221 44.2432Z" fill="url(#paint0_linear)"/>
<path d="M4.57031 51.0419H25.05V53.791C25.0545 54.6626 25.4045 55.4969 26.0233 56.1107C26.6421 56.7246 27.4792 57.068 28.3508 57.0655H60.4297C61.3013 57.0679 62.1383 56.7246 62.7571 56.1107C63.3759 55.4968 63.726 54.6626 63.7305 53.791V42.8213C63.7305 37.6701 59.4994 33.4794 54.2989 33.4794H39.3359C38.6464 31.7023 37.4349 30.1758 35.8609 29.1006C34.287 28.0254 32.4244 27.452 30.5183 27.4558H13.8781C6.92567 27.4558 1.26953 33.057 1.26953 39.9417V47.7674C1.27403 48.6391 1.62407 49.4733 2.24287 50.0872C2.86167 50.701 3.69868 51.0444 4.57031 51.0419ZM62.207 42.8213V53.7916C62.2028 54.2592 62.0134 54.7061 61.6802 55.0342C61.347 55.3624 60.8973 55.545 60.4297 55.542H28.3508C27.8831 55.545 27.4333 55.3623 27.1001 55.034C26.7669 54.7057 26.5775 54.2587 26.5734 53.791V42.8213C26.5734 38.5101 30.121 35.0028 34.4817 35.0028H41.3707L42.3297 37.7723C42.3852 37.966 42.4869 38.1434 42.6259 38.2892L40.4997 49.0502C40.4775 49.1623 40.4808 49.2779 40.5094 49.3885C40.538 49.4991 40.5911 49.6019 40.6647 49.6892L43.77 53.3666C43.841 53.4506 43.9294 53.5183 44.0291 53.565C44.1288 53.6116 44.2374 53.6361 44.3474 53.6367H44.352C44.4612 53.6367 44.5692 53.6132 44.6686 53.5678C44.768 53.5223 44.8564 53.4561 44.928 53.3734L48.1095 49.6962C48.1835 49.6107 48.2375 49.5098 48.2677 49.4008C48.2978 49.2918 48.3033 49.1774 48.2837 49.066L46.3446 38.0276C46.3893 37.9465 46.4249 37.8606 46.4508 37.7717L47.4098 35.0022H54.2989C58.6595 35.0022 62.207 38.5095 62.207 42.8213ZM44.9123 38.6794L46.7208 48.9726L44.3595 51.7021L42.0655 48.9853L44.102 38.6791L44.9123 38.6794ZM45.7976 35.0022L45.0517 37.1559H43.7287L42.983 35.0022H45.7976ZM20.321 32.6558H21.1319L22.9404 42.9489L20.5791 45.6784L18.2852 42.9616L20.321 32.6558ZM22.017 28.9786L21.2712 31.1324H19.9483L19.2024 28.9786H22.017ZM2.79297 39.941C2.79297 33.8964 7.76572 28.9786 13.8781 28.9786H17.5902L18.5492 31.7481C18.6048 31.9418 18.7064 32.1192 18.8454 32.2651L16.7197 43.026C16.6975 43.1381 16.7009 43.2537 16.7294 43.3643C16.758 43.475 16.8111 43.5777 16.8848 43.6651L19.9899 47.3423C20.0609 47.4264 20.1493 47.4941 20.249 47.5407C20.3486 47.5874 20.4572 47.6119 20.5673 47.6126H20.5719C20.6812 47.6125 20.7892 47.589 20.8886 47.5436C20.988 47.4981 21.0764 47.4319 21.148 47.3492L24.3292 43.6719C24.4032 43.5864 24.4572 43.4855 24.4873 43.3765C24.5174 43.2675 24.5229 43.1531 24.5033 43.0417L22.5641 32.0039C22.6089 31.9228 22.6445 31.8369 22.6703 31.7479L23.6293 28.9785H30.5183C32.0152 28.9755 33.4823 29.3966 34.7497 30.1931C36.0172 30.9895 37.033 32.1287 37.6797 33.4787H34.4817C29.2811 33.4787 25.05 37.6695 25.05 42.8207V49.5185H4.57031C4.10258 49.5214 3.65278 49.3387 3.31958 49.0105C2.98638 48.6822 2.79699 48.2352 2.79297 47.7674V39.941Z" fill="url(#paint1_linear)"/>
<path d="M21.0648 26.0849C26.1169 26.0849 30.227 22.0138 30.227 17.0097C30.227 12.0056 26.1169 7.93457 21.0648 7.93457C16.0127 7.93457 11.9026 12.0057 11.9026 17.0097C11.9026 22.0137 16.0128 26.0849 21.0648 26.0849ZM21.0648 9.45801C25.2768 9.45801 28.7036 12.8458 28.7036 17.0097C28.7036 21.1736 25.2768 24.5615 21.0648 24.5615C16.8527 24.5615 13.426 21.1739 13.426 17.0097C13.426 12.8455 16.8529 9.45801 21.0648 9.45801Z" fill="url(#paint2_linear)"/>
<path d="M44.3901 32.0257C49.4421 32.0257 53.5523 27.9546 53.5523 22.9506C53.5523 17.9466 49.4421 13.876 44.3901 13.876C39.3381 13.876 35.2279 17.9471 35.2279 22.9512C35.2279 27.9553 39.338 32.0257 44.3901 32.0257ZM44.3901 15.3988C48.602 15.3988 52.0289 18.7865 52.0289 22.9506C52.0289 27.1146 48.602 30.5023 44.3901 30.5023C40.1782 30.5023 36.7513 27.1146 36.7513 22.9506C36.7513 18.7865 40.1781 15.3994 44.3901 15.3994V15.3988Z" fill="url(#paint3_linear)"/>
<defs>
<linearGradient id="paint0_linear" x1="51.774" y1="42.6529" x2="53.223" y2="46.3036" gradientUnits="userSpaceOnUse">
<stop offset="0.0601997" stop-color="#05237D"/>
<stop offset="0.97253" stop-color="#5882FF"/>
</linearGradient>
<linearGradient id="paint1_linear" x1="8.35273" y1="26.1571" x2="48.1484" y2="77.3607" gradientUnits="userSpaceOnUse">
<stop offset="0.0601997" stop-color="#05237D"/>
<stop offset="0.97253" stop-color="#5882FF"/>
</linearGradient>
<linearGradient id="paint2_linear" x1="13.9806" y1="7.1385" x2="36.4596" y2="20.9809" gradientUnits="userSpaceOnUse">
<stop offset="0.0601997" stop-color="#05237D"/>
<stop offset="0.97253" stop-color="#5882FF"/>
</linearGradient>
<linearGradient id="paint3_linear" x1="37.3059" y1="13.0799" x2="59.7845" y2="26.9225" gradientUnits="userSpaceOnUse">
<stop offset="0.0601997" stop-color="#05237D"/>
<stop offset="0.97253" stop-color="#5882FF"/>
</linearGradient>
</defs>
</svg>
