<svg width="65" height="65" viewBox="0 0 65 65" fill="none" xmlns="http://www.w3.org/2000/svg">
<path d="M32.5 26.8748C31.3874 26.8748 30.2999 27.2047 29.3748 27.8228C28.4497 28.4409 27.7287 29.3195 27.3029 30.3473C26.8772 31.3752 26.7658 32.5063 26.9828 33.5975C27.1999 34.6887 27.7356 35.691 28.5223 36.4777C29.3091 37.2645 30.3114 37.8002 31.4026 38.0173C32.4938 38.2343 33.6248 38.1229 34.6527 37.6972C35.6806 37.2714 36.5592 36.5504 37.1773 35.6253C37.7954 34.7002 38.1253 33.6126 38.1253 32.5001C38.1236 31.0086 37.5304 29.5788 36.4759 28.5242C35.4213 27.4696 33.9914 26.8764 32.5 26.8748ZM32.5 36.6019C31.6888 36.6019 30.8957 36.3613 30.2212 35.9106C29.5466 35.4599 29.0209 34.8193 28.7104 34.0698C28.3999 33.3203 28.3187 32.4955 28.477 31.6998C28.6353 30.9041 29.0259 30.1733 29.5996 29.5996C30.1732 29.0259 30.9041 28.6353 31.6998 28.477C32.4955 28.3187 33.3202 28.4 34.0697 28.7104C34.8193 29.0209 35.4599 29.5466 35.9106 30.2212C36.3613 30.8957 36.6019 31.6888 36.6019 32.5001C36.6007 33.5876 36.1681 34.6302 35.3991 35.3992C34.6302 36.1682 33.5875 36.6007 32.5 36.6019Z" fill="url(#paint0_linear)"/>
<path d="M62.9687 31.5466H62.9638L55.0028 31.5967C54.539 19.8948 45.1052 10.461 33.4033 9.99707L33.4534 2.03609C33.4547 1.83407 33.3757 1.63981 33.2337 1.49606C33.0918 1.35231 32.8985 1.27083 32.6965 1.26955C32.4945 1.26827 32.3002 1.34729 32.1565 1.48924C32.0127 1.63118 31.9312 1.82442 31.93 2.02644L31.8798 9.9864C19.9526 10.3105 10.3105 19.9522 9.98624 31.88L2.02628 31.9301C1.82426 31.9307 1.63076 32.0116 1.48835 32.1549C1.34594 32.2982 1.26629 32.4922 1.26691 32.6942C1.26753 32.8962 1.34838 33.0897 1.49167 33.2321C1.63496 33.3745 1.82896 33.4542 2.03098 33.4536H2.03593L9.99691 33.4034C10.4609 45.1052 19.8948 54.5391 31.5967 55.003L31.5466 62.9641C31.5459 63.0641 31.565 63.1633 31.6027 63.2559C31.6405 63.3486 31.696 63.4329 31.7663 63.5041C31.8366 63.5752 31.9203 63.6319 32.0124 63.6707C32.1046 63.7096 32.2036 63.7299 32.3036 63.7305H32.3084C32.5096 63.7305 32.7026 63.6509 32.8453 63.5091C32.988 63.3673 33.0689 63.1748 33.0701 62.9736L33.1203 55.0136C45.0475 54.6895 54.6896 45.0478 55.0139 33.1201L62.9738 33.0699C63.1758 33.0693 63.3693 32.9884 63.5117 32.8451C63.6541 32.7019 63.7338 32.5079 63.7332 32.3058C63.7326 32.1038 63.6517 31.9103 63.5084 31.7679C63.3651 31.6255 63.1708 31.546 62.9687 31.5466ZM53.4787 31.6063L49.4373 31.6317C49.2172 27.4412 47.4535 23.4807 44.4864 20.5136C41.5192 17.5464 37.5586 15.7828 33.3682 15.5627L33.3936 11.5211C44.2631 11.9787 53.0212 20.7369 53.4787 31.6063ZM41.4593 33.2059H41.4643L47.9206 33.1652C47.7494 37.0237 46.1398 40.6782 43.4088 43.4092C40.6777 46.1402 37.0232 47.7497 33.1647 47.9208L33.2037 41.731C33.2043 41.631 33.1852 41.5318 33.1476 41.4392C33.1099 41.3465 33.0543 41.2622 32.984 41.191C32.9137 41.1198 32.8301 41.0632 32.7379 41.0243C32.6457 40.9854 32.5468 40.9651 32.4468 40.9645H32.4418C32.2407 40.9645 32.0476 41.0441 31.9049 41.1859C31.7622 41.3277 31.6814 41.5202 31.6801 41.7214L31.6411 47.9116C27.8517 47.6958 24.2742 46.0933 21.5903 43.4095C18.9064 40.7256 17.3038 37.1481 17.0879 33.3587L22.4589 33.325C22.6609 33.3237 22.8541 33.2422 22.9961 33.0984C23.138 32.9547 23.2171 32.7604 23.2158 32.5584C23.2145 32.3564 23.133 32.1632 22.9893 32.0212C22.8455 31.8793 22.6512 31.8002 22.4492 31.8015L17.0791 31.8353C17.2502 27.9767 18.8597 24.322 21.5909 21.5909C24.322 18.8598 27.9767 17.2503 31.8353 17.0793L31.7979 23.01C31.7973 23.11 31.8164 23.2092 31.8541 23.3019C31.8918 23.3945 31.9473 23.4789 32.0176 23.55C32.0879 23.6212 32.1715 23.6779 32.2637 23.7167C32.3559 23.7556 32.4548 23.7759 32.5548 23.7766H32.5598C32.761 23.7766 32.954 23.697 33.0967 23.5552C33.2394 23.4134 33.3202 23.2208 33.3215 23.0197L33.3588 17.0884C37.1482 17.3042 40.7258 18.9067 43.4097 21.5906C46.0936 24.2744 47.6962 27.8519 47.9121 31.6413L41.4553 31.6819C41.2532 31.6826 41.0597 31.7634 40.9173 31.9067C40.7749 32.05 40.6953 32.244 40.6959 32.446C40.6965 32.648 40.7774 32.8415 40.9207 32.9839C41.0639 33.1263 41.2573 33.2065 41.4593 33.2059ZM31.8703 11.5111L31.8449 15.5544C27.5788 15.7245 23.5334 17.4954 20.5144 20.5143C17.4954 23.5333 15.7245 27.5787 15.5544 31.8448L11.5111 31.8702C11.8391 20.7907 20.7908 11.8392 31.8703 11.5111ZM11.5211 33.3938L15.5625 33.3684C15.7827 37.5588 17.5464 41.5193 20.5136 44.4865C23.4807 47.4536 27.4413 49.2172 31.6317 49.4373L31.6064 53.4789C20.7369 53.0214 11.9786 44.2631 11.5211 33.3938ZM33.1297 53.4889L33.1551 49.4455C37.4211 49.2755 41.4666 47.5046 44.4856 44.4857C47.5046 41.4668 49.2755 37.4213 49.4456 33.1552L53.4889 33.1298C53.1608 44.2093 44.2092 53.1609 33.1297 53.4889Z" fill="url(#paint1_linear)"/>
<defs>
<linearGradient id="paint0_linear" x1="28.1506" y1="26.3813" x2="42.024" y2="34.8433" gradientUnits="userSpaceOnUse">
<stop offset="0.0601997" stop-color="#05237D"/>
<stop offset="0.97253" stop-color="#5882FF"/>
</linearGradient>
<linearGradient id="paint1_linear" x1="8.35071" y1="-1.46999" x2="85.3763" y2="45.5153" gradientUnits="userSpaceOnUse">
<stop offset="0.0601997" stop-color="#05237D"/>
<stop offset="0.97253" stop-color="#5882FF"/>
</linearGradient>
</defs>
</svg>
