<svg width="33" height="33" viewBox="0 0 33 33" fill="none" xmlns="http://www.w3.org/2000/svg">
<path d="M24.6971 18.4141C24.7302 18.4755 24.7794 18.5267 24.8393 18.5625C24.8992 18.5982 24.9676 18.6171 25.0373 18.6171H27.9936C27.586 21.5665 26.1112 24.2642 23.8484 26.1993C21.7096 28.0332 19.0229 29.085 16.4771 29.085C14.8168 29.085 13.0808 28.6374 11.4569 27.7907C9.77046 26.91 8.30778 25.6554 7.18067 24.1227C7.15066 24.0817 7.11288 24.0471 7.06947 24.0207C7.02606 23.9943 6.97789 23.9768 6.9277 23.969C6.8775 23.9613 6.82627 23.9635 6.77693 23.9755C6.72759 23.9876 6.68111 24.0092 6.64013 24.0392C6.59916 24.0692 6.5645 24.107 6.53813 24.1504C6.51175 24.1938 6.49419 24.242 6.48644 24.2922C6.47868 24.3424 6.48089 24.3936 6.49294 24.443C6.50498 24.4923 6.52663 24.5388 6.55664 24.5798C7.75393 26.208 9.30777 27.5409 11.0993 28.4765C12.8331 29.3805 14.6928 29.8584 16.4771 29.8584C19.2049 29.8584 22.075 28.7387 24.3518 26.7865C26.786 24.7045 28.3616 21.7936 28.7736 18.6171H31.9684C32.0382 18.6171 32.1066 18.5982 32.1665 18.5625C32.2265 18.5268 32.2756 18.4755 32.3087 18.4141C32.3419 18.3528 32.3578 18.2836 32.3548 18.2139C32.3519 18.1442 32.3301 18.0766 32.2919 18.0183L28.8263 12.7342C28.7911 12.6806 28.7431 12.6365 28.6867 12.606C28.6302 12.5755 28.5671 12.5596 28.5029 12.5596C28.4387 12.5596 28.3756 12.5755 28.3191 12.606C28.2627 12.6365 28.2147 12.6806 28.1795 12.7342L24.7139 18.0183C24.6757 18.0766 24.6539 18.1442 24.651 18.2139C24.648 18.2836 24.664 18.3527 24.6971 18.4141ZM28.5029 13.651L31.2524 17.8432H25.7534L28.5029 13.651Z" fill="#05237D"/>
<path d="M4.17346 20.2659C4.20865 20.3195 4.25663 20.3636 4.31308 20.3941C4.36954 20.4246 4.43269 20.4406 4.49686 20.4406C4.56102 20.4406 4.62417 20.4246 4.68063 20.3941C4.73708 20.3636 4.78507 20.3195 4.82025 20.2659L8.28583 14.9818C8.32407 14.9235 8.34583 14.8559 8.3488 14.7862C8.35177 14.7165 8.33583 14.6474 8.30269 14.586C8.26954 14.5246 8.22041 14.4734 8.16051 14.4376C8.1006 14.4019 8.03215 14.3831 7.9624 14.3831H5.00613C5.41373 11.4336 6.88854 8.73597 9.15137 6.80079C11.2901 4.96691 13.9768 3.91516 16.5226 3.91516C18.1829 3.91516 19.9189 4.36272 21.5429 5.20944C23.2293 6.09008 24.692 7.34472 25.8191 8.87741C25.8797 8.96016 25.9707 9.01545 26.0721 9.03111C26.1734 9.04677 26.2769 9.02151 26.3596 8.96091C26.4424 8.9003 26.4977 8.8093 26.5133 8.70793C26.529 8.60656 26.5037 8.50312 26.4431 8.42037C25.2458 6.79209 23.692 5.45921 21.9005 4.52366C20.1667 3.61958 18.3069 3.14172 16.5226 3.14172C13.7949 3.14172 10.9247 4.2614 8.64799 6.21362C6.21373 8.29563 4.63816 11.2065 4.22612 14.3831H1.03131C0.961561 14.3831 0.89311 14.4019 0.833206 14.4376C0.773301 14.4734 0.724174 14.5246 0.691026 14.586C0.657878 14.6474 0.641944 14.7165 0.644912 14.7862C0.64788 14.8559 0.669638 14.9235 0.707883 14.9818L4.17346 20.2659ZM7.24633 15.1565L4.49689 19.3489L1.74738 15.1565H7.24633Z" fill="#05237D"/>
<path d="M16.2822 25.4282C16.3464 25.472 16.4223 25.4955 16.5001 25.4955C16.5778 25.4955 16.6538 25.472 16.718 25.4282L21.2877 22.3117C22.6637 21.3736 23.7415 19.3352 23.7415 17.671V11.258C23.7416 11.1857 23.7213 11.1148 23.6831 11.0534C23.645 10.992 23.5903 10.9426 23.5255 10.9107L16.6706 7.54404C16.6176 7.51804 16.5593 7.50452 16.5003 7.50452C16.4412 7.50452 16.383 7.51804 16.33 7.54404L9.47545 10.9009C9.41045 10.9327 9.35568 10.9821 9.31737 11.0435C9.27907 11.1049 9.25876 11.1759 9.25876 11.2482V17.671C9.25876 19.3352 10.3366 21.3736 11.7125 22.3117L16.2822 25.4282ZM10.0322 17.671V11.4894L16.5001 8.32186L22.9679 11.4987V17.671C22.9679 19.0821 22.0187 20.8771 20.8519 21.6727L16.5001 24.6404L12.1482 21.6724C11.0012 20.8906 10.0322 19.0581 10.0322 17.671Z" fill="#05237D"/>
<path d="M15.4002 18.5976C15.4724 18.6681 15.5693 18.7076 15.6703 18.7076C15.7712 18.7076 15.8682 18.6681 15.9404 18.5976L19.6707 14.956C19.7078 14.9207 19.7375 14.8784 19.7581 14.8315C19.7787 14.7847 19.7898 14.7342 19.7907 14.683C19.7917 14.6318 19.7824 14.5809 19.7635 14.5333C19.7447 14.4858 19.7165 14.4424 19.6808 14.4058C19.645 14.3691 19.6023 14.34 19.5552 14.32C19.5081 14.2999 19.4575 14.2895 19.4063 14.2892C19.3551 14.2889 19.3043 14.2988 19.257 14.3182C19.2097 14.3377 19.1666 14.3664 19.1305 14.4026L15.6703 17.7807L13.8699 16.023C13.7962 15.9529 13.6979 15.9146 13.5962 15.9164C13.4945 15.9183 13.3976 15.9602 13.3266 16.033C13.2555 16.1057 13.216 16.2036 13.2166 16.3053C13.2171 16.407 13.2578 16.5044 13.3297 16.5764L15.4002 18.5976Z" fill="#05237D"/>
</svg>
