<svg width="65" height="65" viewBox="0 0 65 65" fill="none" xmlns="http://www.w3.org/2000/svg">
<path d="M22.4557 46.3998C24.1315 47.3993 25.1315 49.1249 25.1315 51.0156V56.3095C25.1321 56.5126 25.1905 56.7113 25.3 56.8824C25.4094 57.0535 25.5654 57.1898 25.7495 57.2754V62.6625C25.7505 62.9463 25.8641 63.2182 26.0653 63.4184C26.2665 63.6186 26.5388 63.7309 26.8227 63.7306H38.0241C38.308 63.7309 38.5804 63.6186 38.7816 63.4184C38.9828 63.2181 39.0963 62.9462 39.0973 62.6624V57.1925C39.2417 57.095 39.3601 56.9635 39.442 56.8096C39.5239 56.6558 39.5668 56.4842 39.567 56.3099V51.1048C39.5676 50.1762 39.811 49.264 40.2732 48.4585C40.7353 47.6531 41.4001 46.9826 42.2015 46.5136C45.0336 44.8689 47.3989 42.5284 49.0732 39.7138C51.2058 36.1108 52.0721 31.8981 51.5345 27.746C50.9968 23.5939 49.086 19.7408 46.1061 16.7998C42.4769 13.2096 37.5805 11.1921 32.4755 11.1834C27.3706 11.1747 22.4673 13.1755 18.8259 16.7533C15.2053 20.3142 13.1923 25.0283 13.1577 30.0273C13.1341 33.3755 14.0075 36.6689 15.6871 39.5654C17.3279 42.3801 19.657 44.7318 22.4557 46.3998ZM31.7264 46.9439C31.7299 46.3829 31.6629 43.9881 31.2759 42.6204L30.3619 39.6156H34.1683C33.6413 40.8323 33.4086 42.9466 33.4066 43.8968L33.0323 55.8541H32.0228L31.7264 46.9439ZM37.5738 57.3776V59.0306H27.273V57.3776H37.5738ZM27.273 62.2071V60.5541H37.5738V62.2071H27.273ZM19.8937 17.8387C23.2492 14.5421 27.7672 12.6983 32.4712 12.706C37.1751 12.7137 41.6871 14.5721 45.0318 17.8797C47.7713 20.5815 49.5283 24.1221 50.0232 27.9379C50.518 31.7537 49.7223 35.6253 47.7626 38.9366C46.2209 41.5275 44.0432 43.6818 41.4359 45.1954C40.4042 45.7988 39.5484 46.6616 38.9533 47.6981C38.3582 48.7346 38.0445 49.9086 38.0434 51.1038V55.854H34.556L34.9293 43.9331V43.9094C34.9293 42.822 35.2395 40.7089 35.6681 40.0176L35.8945 39.6525C35.9904 39.4973 36.043 39.3193 36.0469 39.137C36.0508 38.9546 36.0059 38.7745 35.9168 38.6154C35.8277 38.4562 35.6976 38.3238 35.5401 38.2318C35.3826 38.1399 35.2033 38.0917 35.0209 38.0924H29.6927C29.5053 38.089 29.3204 38.1349 29.1564 38.2256C28.9924 38.3164 28.8552 38.4487 28.7586 38.6092C28.67 38.7713 28.6255 38.9539 28.6297 39.1386C28.6339 39.3233 28.6866 39.5036 28.7824 39.6615L29.8118 43.0425C30.101 44.0709 30.2105 46.1239 30.2025 46.9465V46.9628L30.4985 55.8544H26.655V51.0156C26.6434 49.8173 26.3226 48.6424 25.7237 47.6046C25.1247 46.5667 24.2679 45.7011 23.2362 45.0916C20.6595 43.5561 18.5151 41.391 17.0045 38.7996C15.4615 36.1386 14.6593 33.1129 14.6813 30.037C14.7127 25.4457 16.5641 21.1135 19.8937 17.8387Z" fill="url(#paint0_linear)"/>
<path d="M52.7794 30.0117C52.7794 30.2137 52.8597 30.4075 53.0025 30.5503C53.1454 30.6932 53.3391 30.7734 53.5411 30.7734H59.7947C59.9967 30.7734 60.1905 30.6932 60.3333 30.5503C60.4762 30.4075 60.5564 30.2137 60.5564 30.0117C60.5564 29.8097 60.4762 29.616 60.3333 29.4731C60.1905 29.3303 59.9967 29.25 59.7947 29.25H53.5411C53.3391 29.25 53.1454 29.3303 53.0025 29.4731C52.8597 29.616 52.7794 29.8097 52.7794 30.0117Z" fill="url(#paint1_linear)"/>
<path d="M5.20508 30.7734H10.2392C10.4412 30.7734 10.6349 30.6932 10.7778 30.5503C10.9206 30.4075 11.0009 30.2137 11.0009 30.0117C11.0009 29.8097 10.9206 29.616 10.7778 29.4731C10.6349 29.3303 10.4412 29.25 10.2392 29.25H5.20508C5.00306 29.25 4.80931 29.3303 4.66646 29.4731C4.52361 29.616 4.44336 29.8097 4.44336 30.0117C4.44336 30.2137 4.52361 30.4075 4.66646 30.5503C4.80931 30.6932 5.00306 30.7734 5.20508 30.7734Z" fill="url(#paint2_linear)"/>
<path d="M6.46749 18.796L11.6732 21.1914C11.8563 21.2731 12.0642 21.2793 12.2518 21.2087C12.4394 21.1381 12.5917 20.9964 12.6755 20.8143C12.7593 20.6322 12.768 20.4244 12.6996 20.2359C12.6312 20.0475 12.4912 19.8936 12.3101 19.8077L7.10504 17.412C6.92196 17.3304 6.71406 17.3241 6.52643 17.3947C6.33879 17.4653 6.18656 17.6071 6.10274 17.7892C6.01891 17.9713 6.01027 18.1791 6.07867 18.3676C6.14707 18.556 6.287 18.7099 6.46812 18.7958L6.46749 18.796Z" fill="url(#paint3_linear)"/>
<path d="M53.0535 21.5224C53.1631 21.5222 53.2714 21.4984 53.3709 21.4525L58.5766 19.0569C58.6687 19.0159 58.7516 18.957 58.8207 18.8836C58.8898 18.8102 58.9437 18.7239 58.9792 18.6296C59.0147 18.5353 59.0311 18.4348 59.0275 18.3341C59.0239 18.2334 59.0003 18.1344 58.9582 18.0428C58.9161 17.9513 58.8562 17.869 58.782 17.8008C58.7078 17.7325 58.6209 17.6797 58.5262 17.6453C58.4314 17.6109 58.3308 17.5957 58.2301 17.6005C58.1295 17.6052 58.0307 17.63 57.9397 17.6732L52.7346 20.0686C52.5767 20.1412 52.4484 20.2657 52.371 20.4212C52.2936 20.5768 52.2717 20.7541 52.3089 20.9239C52.3461 21.0936 52.4403 21.2455 52.5757 21.3544C52.7112 21.4632 52.8797 21.5225 53.0535 21.5224Z" fill="url(#paint4_linear)"/>
<path d="M32.5 9.47921C32.702 9.47921 32.8958 9.39896 33.0386 9.25611C33.1815 9.11326 33.2617 8.91951 33.2617 8.71749V2.03125C33.2617 1.82923 33.1815 1.63548 33.0386 1.49263C32.8958 1.34978 32.702 1.26953 32.5 1.26953C32.298 1.26953 32.1042 1.34978 31.9614 1.49263C31.8185 1.63548 31.7383 1.82923 31.7383 2.03125V8.71749C31.7383 8.91951 31.8185 9.11326 31.9614 9.25611C32.1042 9.39896 32.298 9.47921 32.5 9.47921Z" fill="url(#paint5_linear)"/>
<path d="M18.3288 12.7831C18.4001 12.8535 18.4845 12.9092 18.5773 12.9469C18.67 12.9846 18.7693 13.0037 18.8695 13.003C18.9697 13.0023 19.0687 12.9819 19.1609 12.9429C19.2532 12.9039 19.3368 12.847 19.4071 12.7757C19.4774 12.7043 19.5328 12.6197 19.5704 12.5269C19.6079 12.434 19.6268 12.3347 19.6259 12.2345C19.625 12.1344 19.6044 12.0354 19.5652 11.9432C19.526 11.851 19.469 11.7675 19.3975 11.6974L14.7855 7.15768C14.7143 7.08727 14.6299 7.03161 14.5371 6.99387C14.4443 6.95614 14.345 6.93707 14.2449 6.93776C14.1447 6.93845 14.0457 6.95889 13.9534 6.9979C13.8612 7.03691 13.7775 7.09374 13.7073 7.16512C13.637 7.2365 13.5815 7.32103 13.544 7.41388C13.5064 7.50674 13.4875 7.60608 13.4884 7.70624C13.4893 7.80639 13.51 7.90539 13.5492 7.99756C13.5884 8.08973 13.6453 8.17326 13.7169 8.24338L18.3288 12.7831Z" fill="url(#paint6_linear)"/>
<path d="M46.1334 13.553C46.3334 13.5533 46.5254 13.4747 46.6678 13.3343L51.3497 8.72587C51.4932 8.58405 51.5746 8.39109 51.5759 8.18934C51.5773 7.98758 51.4986 7.79352 51.3571 7.64974C51.2156 7.50595 51.0228 7.42419 50.821 7.42239C50.6193 7.4206 50.425 7.49892 50.281 7.64017L45.5991 12.2486C45.4913 12.3546 45.4176 12.4903 45.3872 12.6384C45.3569 12.7865 45.3712 12.9402 45.4285 13.0801C45.4858 13.22 45.5835 13.3397 45.709 13.4239C45.8345 13.5082 45.9823 13.5531 46.1334 13.5531V13.553Z" fill="url(#paint7_linear)"/>
<path d="M18.1802 31.5366C18.3823 31.5366 18.576 31.4563 18.7189 31.3135C18.8617 31.1706 18.942 30.9769 18.942 30.7748C18.9415 29.6949 19.0693 28.6188 19.3228 27.569C19.369 27.3732 19.3358 27.1671 19.2305 26.9957C19.1252 26.8242 18.9564 26.7014 18.7609 26.654C18.5654 26.6066 18.359 26.6385 18.1869 26.7427C18.0148 26.8469 17.8909 27.0149 17.8423 27.2101C17.5602 28.3774 17.4179 29.574 17.4184 30.7748C17.4184 30.8749 17.4381 30.974 17.4764 31.0664C17.5147 31.1588 17.5708 31.2428 17.6415 31.3135C17.7123 31.3842 17.7963 31.4403 17.8887 31.4786C17.9811 31.5169 18.0802 31.5366 18.1802 31.5366Z" fill="url(#paint8_linear)"/>
<path d="M19.5569 24.5937C19.6447 24.6416 19.7411 24.6717 19.8406 24.6824C19.94 24.6931 20.0406 24.684 20.1366 24.6558C20.2326 24.6276 20.322 24.5808 20.3999 24.518C20.4778 24.4552 20.5425 24.3777 20.5904 24.2899C21.7568 22.1495 23.4784 20.363 25.5742 19.1184C27.67 17.8737 30.0625 17.2168 32.5 17.2168C32.7021 17.2168 32.8958 17.1365 33.0386 16.9937C33.1815 16.8508 33.2617 16.6571 33.2617 16.4551C33.2617 16.2531 33.1815 16.0593 33.0386 15.9165C32.8958 15.7736 32.7021 15.6934 32.5 15.6934C29.7888 15.6933 27.1277 16.4239 24.7966 17.8082C22.4655 19.1926 20.5505 21.1795 19.2531 23.5601C19.2052 23.6479 19.175 23.7443 19.1644 23.8438C19.1537 23.9433 19.1627 24.0438 19.191 24.1398C19.2192 24.2358 19.266 24.3253 19.3288 24.4031C19.3916 24.481 19.4691 24.5457 19.5569 24.5937Z" fill="url(#paint9_linear)"/>
<defs>
<linearGradient id="paint0_linear" x1="17.5269" y1="8.87865" x2="71.8524" y2="33.1768" gradientUnits="userSpaceOnUse">
<stop offset="0.0601997" stop-color="#05237D"/>
<stop offset="0.97253" stop-color="#5882FF"/>
</linearGradient>
<linearGradient id="paint1_linear" x1="53.6613" y1="29.1832" x2="54.8916" y2="33.0139" gradientUnits="userSpaceOnUse">
<stop offset="0.0601997" stop-color="#05237D"/>
<stop offset="0.97253" stop-color="#5882FF"/>
</linearGradient>
<linearGradient id="paint2_linear" x1="5.18699" y1="29.1832" x2="6.59262" y2="32.8736" gradientUnits="userSpaceOnUse">
<stop offset="0.0601997" stop-color="#05237D"/>
<stop offset="0.97253" stop-color="#5882FF"/>
</linearGradient>
<linearGradient id="paint3_linear" x1="6.79415" y1="17.1744" x2="12.2136" y2="22.8468" gradientUnits="userSpaceOnUse">
<stop offset="0.0601997" stop-color="#05237D"/>
<stop offset="0.97253" stop-color="#5882FF"/>
</linearGradient>
<linearGradient id="paint4_linear" x1="53.0552" y1="17.4276" x2="58.4899" y2="23.1204" gradientUnits="userSpaceOnUse">
<stop offset="0.0601997" stop-color="#05237D"/>
<stop offset="0.97253" stop-color="#5882FF"/>
</linearGradient>
<linearGradient id="paint5_linear" x1="31.911" y1="0.909458" x2="34.4559" y2="1.1975" gradientUnits="userSpaceOnUse">
<stop offset="0.0601997" stop-color="#05237D"/>
<stop offset="0.97253" stop-color="#5882FF"/>
</linearGradient>
<linearGradient id="paint6_linear" x1="14.1844" y1="6.67172" x2="21.704" y2="11.3129" gradientUnits="userSpaceOnUse">
<stop offset="0.0601997" stop-color="#05237D"/>
<stop offset="0.97253" stop-color="#5882FF"/>
</linearGradient>
<linearGradient id="paint7_linear" x1="46.0753" y1="7.15347" x2="53.6762" y2="11.8452" gradientUnits="userSpaceOnUse">
<stop offset="0.0601997" stop-color="#05237D"/>
<stop offset="0.97253" stop-color="#5882FF"/>
</linearGradient>
<linearGradient id="paint8_linear" x1="17.6367" y1="26.4175" x2="20.7166" y2="27.1548" gradientUnits="userSpaceOnUse">
<stop offset="0.0601997" stop-color="#05237D"/>
<stop offset="0.97253" stop-color="#5882FF"/>
</linearGradient>
<linearGradient id="paint9_linear" x1="20.7592" y1="15.2989" x2="33.22" y2="27.2164" gradientUnits="userSpaceOnUse">
<stop offset="0.0601997" stop-color="#05237D"/>
<stop offset="0.97253" stop-color="#5882FF"/>
</linearGradient>
</defs>
</svg>
