<svg width="33" height="33" viewBox="0 0 33 33" fill="none" xmlns="http://www.w3.org/2000/svg">
<path d="M7.83359 28.7856C8.02715 28.9787 8.28938 29.0871 8.56278 29.0871C8.83617 29.0871 9.0984 28.9787 9.29197 28.7856L17.2326 20.845L22.9573 26.5696C22.9737 26.5858 22.9916 26.6004 23.0107 26.6133C23.016 26.617 23.0213 26.6204 23.0267 26.6238C23.0431 26.6342 23.0604 26.6433 23.0782 26.6512C23.0811 26.6523 23.0837 26.6539 23.0865 26.6551C23.1033 26.6618 23.1206 26.6673 23.1381 26.6716L27.2696 27.6896C27.3342 27.7055 27.4018 27.7044 27.4659 27.6866C27.53 27.6687 27.5884 27.6346 27.6355 27.5875C27.6826 27.5405 27.7167 27.482 27.7346 27.4179C27.7524 27.3538 27.7535 27.2862 27.7375 27.2216L26.7196 23.0901C26.7153 23.0726 26.7097 23.0553 26.703 23.0386C26.7019 23.0357 26.7002 23.0331 26.699 23.0302C26.6912 23.0123 26.6821 22.9949 26.6717 22.9784C26.6683 22.9729 26.6652 22.9677 26.6612 22.9624C26.6483 22.9433 26.6336 22.9254 26.6175 22.9089L20.8933 17.1843L28.7858 9.2918C28.8816 9.19604 28.9575 9.08235 29.0094 8.95723C29.0612 8.83211 29.0879 8.69801 29.0879 8.56258C29.0879 8.42715 29.0612 8.29304 29.0094 8.16792C28.9575 8.0428 28.8816 7.92911 28.7858 7.83335L25.1668 4.21425C24.9732 4.02116 24.711 3.91272 24.4376 3.91272C24.1642 3.91272 23.9019 4.02116 23.7084 4.21425L21.6339 6.2888L17.7229 10.1999L17.7224 10.2003L17.722 10.2007L15.8159 12.1069L9.05588 5.34688C8.81581 5.1052 8.5304 4.91329 8.21602 4.78214C7.90163 4.65099 7.56445 4.58318 7.2238 4.58261C6.88316 4.58204 6.54575 4.64871 6.23092 4.77881C5.9161 4.9089 5.63005 5.09986 5.38917 5.34073C5.1483 5.5816 4.95733 5.86764 4.82723 6.18247C4.69714 6.49729 4.63046 6.8347 4.63102 7.17534C4.63159 7.51599 4.69939 7.85317 4.83053 8.16756C4.96168 8.48195 5.15359 8.76736 5.39526 9.00743L12.1553 15.7675L9.90021 18.0224L9.8997 18.0229L9.89925 18.0234L4.21448 23.7082C4.11871 23.8039 4.04275 23.9176 3.99092 24.0427C3.93909 24.1678 3.91241 24.302 3.91241 24.4374C3.91241 24.5728 3.93909 24.7069 3.99092 24.832C4.04275 24.9572 4.11871 25.0708 4.21448 25.1666L7.83359 28.7856ZM7.31513 9.83346L9.88191 7.26668L10.6241 8.00886L9.34089 9.29212L8.05763 10.5753L7.31513 9.83346ZM25.7976 23.1824L24.7876 24.1923L10.161 9.56572L11.171 8.55574L25.7976 23.1824ZM9.6141 10.1127L24.241 24.7392L23.2308 25.749L8.60419 11.1225L9.6141 10.1127ZM23.9891 26.0846L26.1331 23.9407L26.834 26.7855L23.9891 26.0846ZM17.9959 11.0206L19.7233 12.748C19.7591 12.7844 19.8017 12.8133 19.8488 12.8331C19.8958 12.8529 19.9463 12.8632 19.9974 12.8634C20.0484 12.8636 20.099 12.8537 20.1462 12.8343C20.1934 12.8148 20.2363 12.7862 20.2724 12.7501C20.3085 12.714 20.3371 12.6711 20.3565 12.6239C20.3759 12.5767 20.3858 12.5261 20.3856 12.4751C20.3854 12.4241 20.3751 12.3736 20.3552 12.3265C20.3354 12.2795 20.3065 12.2368 20.2701 12.201L18.5427 10.4737L21.9072 7.10922L22.9295 8.13151C22.9652 8.16822 23.0079 8.19747 23.055 8.21755C23.1021 8.23763 23.1528 8.24815 23.204 8.24849C23.2552 8.24884 23.306 8.239 23.3534 8.21955C23.4008 8.20011 23.4438 8.17144 23.4801 8.13522C23.5163 8.09899 23.5449 8.05593 23.5644 8.00854C23.5838 7.96114 23.5937 7.91036 23.5933 7.85914C23.593 7.80791 23.5824 7.75727 23.5623 7.71014C23.5423 7.66302 23.513 7.62035 23.4763 7.58463L22.454 6.56234L24.2552 4.76113C24.3036 4.71287 24.3692 4.68577 24.4375 4.68577C24.5059 4.68577 24.5715 4.71287 24.6199 4.76113L28.2389 8.38017C28.2872 8.42857 28.3143 8.49413 28.3143 8.56248C28.3143 8.63083 28.2872 8.69639 28.2389 8.74479L20.3465 16.6374L16.3628 12.6537L17.9959 11.0206ZM5.41054 7.17716C5.41054 6.81817 5.517 6.46725 5.71645 6.16877C5.9159 5.87029 6.19937 5.63766 6.53103 5.50029C6.86269 5.36292 7.22764 5.32698 7.57972 5.39702C7.93181 5.46705 8.25522 5.63992 8.50906 5.89377L9.33509 6.7198L6.76824 9.28658L5.94215 8.46055C5.77309 8.2924 5.63906 8.09239 5.54781 7.87209C5.45656 7.6518 5.4099 7.4156 5.41054 7.17716ZM4.76143 24.2551L10.1733 18.8432L11.9006 20.5706C11.9734 20.6421 12.0714 20.682 12.1734 20.6816C12.2755 20.6812 12.3732 20.6404 12.4453 20.5683C12.5174 20.4962 12.5581 20.3984 12.5585 20.2964C12.5589 20.1944 12.519 20.0963 12.4475 20.0236L10.7201 18.2963L12.7021 16.3143L16.6858 20.2979L8.74521 28.2386C8.6968 28.2868 8.63123 28.3139 8.56287 28.3139C8.49452 28.3139 8.42895 28.2868 8.38054 28.2386L4.76149 24.6195C4.71329 24.5711 4.68621 24.5056 4.6862 24.4373C4.68619 24.369 4.71324 24.3035 4.76143 24.2551Z" fill="#05237D"/>
<path d="M8.42962 25.5257C8.46553 25.5617 8.50817 25.5901 8.55509 25.6096C8.60201 25.629 8.6523 25.639 8.70309 25.639C8.75387 25.639 8.80416 25.629 8.85108 25.6096C8.898 25.5901 8.94063 25.5616 8.97654 25.5257C9.01245 25.4898 9.04093 25.4472 9.06036 25.4002C9.0798 25.3533 9.08979 25.303 9.08979 25.2523C9.08979 25.2015 9.07978 25.1512 9.06035 25.1043C9.04091 25.0573 9.01242 25.0147 8.97651 24.9788L8.02118 24.0236C7.98537 23.9872 7.94272 23.9582 7.89567 23.9384C7.84863 23.9186 7.79812 23.9083 7.74707 23.9081C7.69602 23.9079 7.64544 23.9178 7.59824 23.9372C7.55104 23.9567 7.50815 23.9853 7.47206 24.0214C7.43597 24.0575 7.40738 24.1004 7.38794 24.1476C7.36851 24.1948 7.35862 24.2454 7.35883 24.2964C7.35904 24.3475 7.36936 24.398 7.38919 24.445C7.40902 24.492 7.43797 24.5347 7.47436 24.5705L8.42962 25.5257Z" fill="#05237D"/>
</svg>
