<svg width="26" height="17" viewBox="0 0 26 17" fill="none" xmlns="http://www.w3.org/2000/svg">
<path d="M15.8069 7.69508C15.8802 8.0961 15.9326 8.49713 15.9326 9.01733C15.9326 13.5586 12.9908 16.7776 8.56253 16.7776C4.3227 16.7776 0.888916 13.2226 0.888916 8.83312C0.888916 4.4436 4.3227 0.888672 8.56253 0.888672C10.6354 0.888672 12.3627 1.66901 13.7027 2.96962L11.6194 5.03973C11.0541 4.47613 10.0596 3.815 8.56253 3.815C5.94535 3.815 3.80968 6.05852 3.80968 8.83312C3.80968 11.6077 5.94535 13.8512 8.56253 13.8512C11.5984 13.8512 12.7396 11.586 12.9175 10.4263H8.56253V7.69503H15.8069V7.69508ZM23.217 7.96142V5.65534H20.9788V7.96142H18.7514V10.2786H20.9788V12.5847H23.217V10.2786H25.4445V7.96142H23.217Z" fill="white"/>
</svg>
