<svg width="13" height="13" viewBox="0 0 13 13" fill="none" xmlns="http://www.w3.org/2000/svg">
<g clip-path="url(#clip0)">
<path d="M11.5104 12.9999H1.48962C0.667892 12.9999 0 12.332 0 11.5103V2.57277C0 1.75105 0.667892 1.08325 1.48962 1.08325H11.5104C12.3321 1.08325 13 1.75105 13 2.57277V11.5103C13 12.332 12.3321 12.9999 11.5104 12.9999ZM1.48962 1.89575C1.11639 1.89575 0.8125 2.19955 0.8125 2.57277V11.5103C0.8125 11.8835 1.11639 12.1874 1.48962 12.1874H11.5104C11.8836 12.1874 12.1875 11.8835 12.1875 11.5103V2.57277C12.1875 2.19955 11.8836 1.89575 11.5104 1.89575H1.48962Z" fill="#757883"/>
<path d="M12.5938 5.14575H0.40625C0.181999 5.14575 0 4.96375 0 4.7395C0 4.51525 0.181999 4.33325 0.40625 4.33325H12.5938C12.818 4.33325 13 4.51525 13 4.7395C13 4.96375 12.818 5.14575 12.5938 5.14575Z" fill="#757883"/>
<path d="M3.11461 3.25C2.89036 3.25 2.70836 3.068 2.70836 2.84375V0.40625C2.70836 0.181999 2.89036 0 3.11461 0C3.33886 0 3.52086 0.181999 3.52086 0.40625V2.84375C3.52086 3.068 3.33886 3.25 3.11461 3.25Z" fill="#757883"/>
<path d="M9.88539 3.25C9.66114 3.25 9.47914 3.068 9.47914 2.84375V0.40625C9.47914 0.181999 9.66114 0 9.88539 0C10.1096 0 10.2916 0.181999 10.2916 0.40625V2.84375C10.2916 3.068 10.1096 3.25 9.88539 3.25Z" fill="#757883"/>
</g>
<defs>
<clipPath id="clip0">
<rect width="13" height="13" fill="white"/>
</clipPath>
</defs>
</svg>
