<svg width="20" height="19" viewBox="0 0 20 19" fill="none" xmlns="http://www.w3.org/2000/svg">
<path d="M4.53648 18.7778H0.643473V6.2411H4.53648V18.7778ZM2.58788 4.53098C1.34329 4.53098 0.333374 3.49988 0.333374 2.25501C0.333374 1.01014 1.34329 0 2.58788 0C3.83247 0 4.84239 1.01014 4.84239 2.25501C4.84239 3.49988 3.83247 4.53098 2.58788 4.53098ZM19.107 18.7778H15.2223V12.675C15.2223 11.2206 15.193 9.35536 13.1983 9.35536C11.1743 9.35536 10.8642 10.9355 10.8642 12.5702V18.7778H6.97537V6.2411H10.7091V7.95121H10.7636C11.2832 6.96622 12.553 5.92674 14.4471 5.92674C18.3862 5.92674 19.1112 8.52125 19.1112 11.8912V18.7778H19.107Z" fill="white"/>
</svg>
