<svg width="25" height="32" viewBox="0 0 25 32" fill="none" xmlns="http://www.w3.org/2000/svg">
<path d="M12.0707 0C5.41474 0 0 5.41474 0 12.0699C0 21.6522 10.7756 31.2783 11.2345 31.6842C11.4745 31.8947 11.7726 32 12.0707 32C12.3806 32 12.6905 31.8863 12.9322 31.6598C13.3895 31.232 24.1415 21.0762 24.1415 12.0707C24.1415 5.41558 18.7251 0 12.0707 0ZM12.0707 17.8257C8.89179 17.8257 6.31579 15.248 6.31579 12.0716C6.31579 8.89516 8.89179 6.31747 12.0707 6.31747C15.248 6.31747 17.824 8.89432 17.824 12.0716C17.824 15.2488 15.248 17.8257 12.0707 17.8257Z" fill="#F94244"/>
</svg>
