<svg width="29" height="29" viewBox="0 0 29 29" fill="none" xmlns="http://www.w3.org/2000/svg">
<path d="M17.2754 14.5C17.2754 16.0328 16.0328 17.2754 14.5 17.2754C12.9672 17.2754 11.7246 16.0328 11.7246 14.5C11.7246 12.9672 12.9672 11.7246 14.5 11.7246C16.0328 11.7246 17.2754 12.9672 17.2754 14.5Z" fill="#F94244"/>
<path d="M20.9903 9.58921C20.8569 9.22768 20.6441 8.90045 20.3675 8.63185C20.0989 8.35529 19.7719 8.14244 19.4101 8.00903C19.1168 7.89508 18.676 7.75945 17.8643 7.7225C16.9861 7.68246 16.7228 7.67383 14.4997 7.67383C12.2763 7.67383 12.013 7.68224 11.1351 7.72228C10.3233 7.75945 9.88235 7.89508 9.58919 8.00903C9.22744 8.14244 8.90021 8.35529 8.63183 8.63185C8.35526 8.90045 8.14242 9.22746 8.00878 9.58921C7.89484 9.88259 7.75921 10.3235 7.72226 11.1353C7.68221 12.0132 7.67358 12.2765 7.67358 14.4999C7.67358 16.723 7.68221 16.9863 7.72226 17.8645C7.75921 18.6763 7.89484 19.117 8.00878 19.4104C8.14242 19.7721 8.35504 20.0991 8.63161 20.3677C8.90021 20.6443 9.22722 20.8571 9.58897 20.9906C9.88235 21.1047 10.3233 21.2404 11.1351 21.2773C12.013 21.3174 12.2761 21.3258 14.4994 21.3258C16.723 21.3258 16.9863 21.3174 17.864 21.2773C18.6758 21.2404 19.1168 21.1047 19.4101 20.9906C20.1363 20.7105 20.7102 20.1365 20.9903 19.4104C21.1043 19.117 21.2399 18.6763 21.2771 17.8645C21.3171 16.9863 21.3255 16.723 21.3255 14.4999C21.3255 12.2765 21.3171 12.0132 21.2771 11.1353C21.2401 10.3235 21.1045 9.88259 20.9903 9.58921ZM14.4997 18.7752C12.1382 18.7752 10.224 16.8611 10.224 14.4997C10.224 12.1383 12.1382 10.2242 14.4997 10.2242C16.8609 10.2242 18.7752 12.1383 18.7752 14.4997C18.7752 16.8611 16.8609 18.7752 14.4997 18.7752ZM18.9442 11.0543C18.3924 11.0543 17.945 10.607 17.945 10.0552C17.945 9.50336 18.3924 9.05599 18.9442 9.05599C19.496 9.05599 19.9434 9.50336 19.9434 10.0552C19.9431 10.607 19.496 11.0543 18.9442 11.0543Z" fill="#F94244"/>
<path d="M14.5 0C6.4931 0 0 6.4931 0 14.5C0 22.5069 6.4931 29 14.5 29C22.5069 29 29 22.5069 29 14.5C29 6.4931 22.5069 0 14.5 0ZM22.7759 17.9327C22.7357 18.8191 22.5947 19.4242 22.389 19.9539C21.9564 21.0723 21.0723 21.9564 19.9539 22.389C19.4244 22.5947 18.8191 22.7355 17.933 22.7759C17.0451 22.8164 16.7614 22.8262 14.5002 22.8262C12.2388 22.8262 11.9554 22.8164 11.0673 22.7759C10.1812 22.7355 9.57581 22.5947 9.04635 22.389C8.49056 22.1799 7.98743 21.8522 7.57148 21.4285C7.148 21.0128 6.82033 20.5094 6.61124 19.9539C6.40548 19.4244 6.26454 18.8191 6.22427 17.933C6.18334 17.0448 6.17383 16.7612 6.17383 14.5C6.17383 12.2388 6.18334 11.9552 6.22405 11.0673C6.26432 10.1809 6.40504 9.57581 6.6108 9.04613C6.81989 8.49056 7.14778 7.98721 7.57148 7.57148C7.98721 7.14778 8.49056 6.82011 9.04613 6.61102C9.57581 6.40526 10.1809 6.26454 11.0673 6.22405C11.9552 6.18356 12.2388 6.17383 14.5 6.17383C16.7612 6.17383 17.0448 6.18356 17.9327 6.22427C18.8191 6.26454 19.4242 6.40526 19.9539 6.6108C20.5094 6.81989 21.0128 7.14778 21.4287 7.57148C21.8522 7.98743 22.1801 8.49056 22.389 9.04613C22.595 9.57581 22.7357 10.1809 22.7762 11.0673C22.8167 11.9552 22.8262 12.2388 22.8262 14.5C22.8262 16.7612 22.8167 17.0448 22.7759 17.9327Z" fill="#F94244"/>
</svg>
