<svg width="27" height="26" viewBox="0 0 27 26" fill="none" xmlns="http://www.w3.org/2000/svg">
<g clip-path="url(#clip0)">
<path d="M26.2651 19.0814L22.4972 15.453C21.1515 14.1572 18.8638 14.6755 18.3255 16.3601C17.9218 17.5264 16.5761 18.1743 15.365 17.9151C12.6736 17.2672 9.04028 13.898 8.36743 11.1767C7.96373 10.0104 8.77114 8.71453 9.98226 8.32583C11.7317 7.80749 12.2699 5.60455 10.9242 4.3087L7.15631 0.680321C6.07976 -0.226774 4.46493 -0.226774 3.52295 0.680321L0.966141 3.14243C-1.59067 5.73413 1.23528 12.6021 7.56002 18.6926C13.8848 24.7831 21.0169 27.634 23.7083 25.0423L26.2651 22.5802C27.2071 21.5435 27.2071 19.9885 26.2651 19.0814Z" fill="#F94244"/>
</g>
<defs>
<clipPath id="clip0">
<rect width="27" height="26" fill="white"/>
</clipPath>
</defs>
</svg>
