<svg width="24" height="25" viewBox="0 0 24 25" fill="none" >
<path d="M14.2969 12.5C14.2969 13.8214 13.2686 14.8926 12 14.8926C10.7314 14.8926 9.70312 13.8214 9.70312 12.5C9.70312 11.1786 10.7314 10.1074 12 10.1074C13.2686 10.1074 14.2969 11.1786 14.2969 12.5Z" fill="#26242D"/>
<path d="M17.3713 8.26643C17.2609 7.95476 17.0848 7.67267 16.8559 7.44112C16.6336 7.2027 16.363 7.01921 16.0636 6.9042C15.8208 6.80597 15.4561 6.68905 14.7842 6.6572C14.0575 6.62267 13.8396 6.61523 11.9998 6.61523C10.1597 6.61523 9.94183 6.62248 9.21527 6.65701C8.54346 6.68905 8.17853 6.80597 7.93591 6.9042C7.63654 7.01921 7.36572 7.2027 7.14362 7.44112C6.91473 7.67267 6.73859 7.95457 6.62799 8.26643C6.53369 8.51934 6.42145 8.89947 6.39087 9.59928C6.35773 10.3561 6.35059 10.5831 6.35059 12.4998C6.35059 14.4163 6.35773 14.6433 6.39087 15.4003C6.42145 16.1001 6.53369 16.48 6.62799 16.733C6.73859 17.0448 6.91455 17.3267 7.14343 17.5583C7.36572 17.7967 7.63635 17.9802 7.93573 18.0952C8.17853 18.1936 8.54346 18.3105 9.21527 18.3424C9.94183 18.3769 10.1595 18.3841 11.9996 18.3841C13.8398 18.3841 14.0577 18.3769 14.7841 18.3424C15.4559 18.3105 15.8208 18.1936 16.0636 18.0952C16.6646 17.8537 17.1395 17.3589 17.3713 16.733C17.4656 16.48 17.5779 16.1001 17.6086 15.4003C17.6418 14.6433 17.6487 14.4163 17.6487 12.4998C17.6487 10.5831 17.6418 10.3561 17.6086 9.59928C17.5781 8.89947 17.4658 8.51934 17.3713 8.26643ZM11.9998 16.1854C10.0455 16.1854 8.46124 14.5353 8.46124 12.4996C8.46124 10.4639 10.0455 8.81383 11.9998 8.81383C13.9539 8.81383 15.5381 10.4639 15.5381 12.4996C15.5381 14.5353 13.9539 16.1854 11.9998 16.1854ZM15.678 9.52947C15.2213 9.52947 14.8511 9.14381 14.8511 8.66811C14.8511 8.19242 15.2213 7.80675 15.678 7.80675C16.1346 7.80675 16.5049 8.19242 16.5049 8.66811C16.5047 9.14381 16.1346 9.52947 15.678 9.52947Z" fill="#26242D"/>
<path d="M12 0C5.3736 0 0 5.5975 0 12.5C0 19.4025 5.3736 25 12 25C18.6264 25 24 19.4025 24 12.5C24 5.5975 18.6264 0 12 0ZM18.8491 15.4593C18.8157 16.2233 18.6991 16.745 18.5288 17.2016C18.1708 18.1658 17.4391 18.928 16.5135 19.3008C16.0754 19.4782 15.5744 19.5995 14.8411 19.6344C14.1063 19.6693 13.8715 19.6777 12.0002 19.6777C10.1287 19.6777 9.8941 19.6693 9.15912 19.6344C8.42578 19.5995 7.9248 19.4782 7.48663 19.3008C7.02667 19.1206 6.61029 18.8381 6.26605 18.4729C5.91559 18.1145 5.64441 17.6805 5.47137 17.2016C5.30109 16.7452 5.18445 16.2233 5.15112 15.4594C5.11725 14.6938 5.10938 14.4493 5.10938 12.5C5.10938 10.5507 5.11725 10.3062 5.15094 9.54075C5.18427 8.77666 5.30072 8.255 5.47101 7.79839C5.64404 7.31945 5.91541 6.88553 6.26605 6.52714C6.61011 6.16188 7.02667 5.8794 7.48645 5.69916C7.9248 5.52177 8.4256 5.40047 9.15912 5.36556C9.89392 5.33066 10.1287 5.32227 12 5.32227C13.8713 5.32227 14.1061 5.33066 14.8409 5.36575C15.5744 5.40047 16.0752 5.52177 16.5135 5.69897C16.9733 5.87921 17.3899 6.16188 17.7341 6.52714C18.0846 6.88572 18.356 7.31945 18.5288 7.79839C18.6993 8.255 18.8157 8.77666 18.8492 9.54075C18.8828 10.3062 18.8906 10.5507 18.8906 12.5C18.8906 14.4493 18.8828 14.6938 18.8491 15.4593Z" fill="#26242D"/>
</svg>
