<svg width="26" height="25" viewBox="0 0 26 25" >
<path d="M13 25C20.1814 25 26 19.4052 26 12.5C26 5.59479 20.1814 0 13 0C5.81858 0 0 5.59479 0 12.5C0 19.4052 5.81858 25 13 25ZM5.94858 12.2292L18.4828 7.58229C19.0645 7.38021 19.5726 7.71875 19.3841 8.56458L19.3852 8.56354L17.251 18.2313C17.0928 18.9167 16.6693 19.0833 16.0767 18.7604L12.8267 16.4573L11.2591 17.9094C11.0857 18.076 10.9395 18.2167 10.6037 18.2167L10.8344 15.0365L16.8577 9.80417C17.1199 9.58229 16.7992 9.45729 16.4537 9.67813L9.01008 14.1844L5.80125 13.2219C5.10467 13.0094 5.0895 12.5521 5.94858 12.2292Z"/>
</svg>
