<?xml version="1.0" encoding="utf-8"?><svg viewBox="0 0 40 26" xmlns="http://www.w3.org/2000/svg" xmlns:xlink="http://www.w3.org/1999/xlink"><style>:root>svg{display:none}:root>svg:target{display:block}</style><svg viewBox="0 0 40 26" id="icon-eye" xmlns="http://www.w3.org/2000/svg"><path d="M39.746 11.97C39.388 11.48 30.874 0 20 0 9.125 0 .61 11.48.254 11.969a1.32 1.32 0 000 1.556c.357.49 8.871 11.97 19.746 11.97 10.874 0 19.388-11.481 19.746-11.97a1.319 1.319 0 000-1.556zM20 22.856c-8.01 0-14.948-7.62-17.002-10.11C5.05 10.252 11.972 2.636 20 2.636c8.01 0 14.947 7.619 17.001 10.111-2.05 2.493-8.974 10.11-17.001 10.11z" fill="#F7B802"/><path d="M20 4.835c-4.363 0-7.912 3.55-7.912 7.912 0 4.363 3.55 7.913 7.912 7.913 4.363 0 7.912-3.55 7.912-7.913 0-4.362-3.55-7.912-7.912-7.912zm0 13.187a5.28 5.28 0 01-5.275-5.275A5.28 5.28 0 0120 7.473a5.28 5.28 0 015.275 5.274A5.28 5.28 0 0120 18.022z" fill="#F7B802"/></svg><svg viewBox="0 0 26 26" id="icon-loupe" xmlns="http://www.w3.org/2000/svg"><g clip-path="url(#bclip0)"><path d="M25.214 23.87l-7.053-7.053c3.213-3.91 2.994-9.714-.657-13.366-3.885-3.884-10.206-3.884-14.09 0-3.885 3.885-3.885 10.206 0 14.09 3.65 3.651 9.454 3.872 13.365.657l7.054 7.054a.977.977 0 001.38-1.382zm-9.091-7.71c-3.124 3.123-8.205 3.123-11.328 0-3.123-3.123-3.123-8.204 0-11.327 3.123-3.123 8.204-3.123 11.328 0 3.123 3.123 3.123 8.204 0 11.327z"/></g><defs><clipPath id="bclip0"><path transform="translate(.5 .538)" d="M0 0h25v25H0z"/></clipPath></defs></svg></svg>