<?xml version="1.0" encoding="utf-8"?><svg viewBox="0 0 40 26" xmlns="http://www.w3.org/2000/svg" xmlns:xlink="http://www.w3.org/1999/xlink"><style>:root>svg{display:none}:root>svg:target{display:block}</style><svg viewBox="0 0 40 26" id="icon-eye" xmlns="http://www.w3.org/2000/svg"><path fill-rule="evenodd" clip-rule="evenodd" d="M.387 12.455c-.109.134-.198.246-.267.333l-.222.17H-.1l.002.003.006.008.023.03.084.106a39.992 39.992 0 001.523 1.781 45.258 45.258 0 004.347 4.199c3.6 3.024 8.65 6.203 14.089 6.203 5.44 0 10.447-3.18 14.004-6.207a44.273 44.273 0 005.47-5.588 25.36 25.36 0 00.36-.456l.036-.046.022-.029.006-.008.002-.003-.234-.177a39.085 39.085 0 00-1.423-1.706 44.055 44.055 0 00-4.265-4.222C30.409 3.804 25.416.606 19.973.606c-5.44 0-10.478 3.196-14.062 6.236a45.039 45.039 0 00-5.524 5.613zm36.33-.065c.194.221.371.427.53.615a42.298 42.298 0 01-4.567 4.553c-3.457 2.942-8 5.73-12.707 5.73-4.71 0-9.299-2.79-12.803-5.735a43.263 43.263 0 01-4.632-4.549 43.027 43.027 0 014.666-4.637c3.489-2.959 8.062-5.761 12.769-5.761 4.705 0 9.232 2.8 12.674 5.757a42.083 42.083 0 014.07 4.027zM25.681 13a5.682 5.682 0 11-11.364 0 5.682 5.682 0 0111.364 0zm2 0a7.682 7.682 0 11-15.364 0 7.682 7.682 0 0115.364 0z" fill="#F7B802"/></svg><svg viewBox="0 0 26 26" id="icon-loupe" xmlns="http://www.w3.org/2000/svg"><g clip-path="url(#bclip0)"><path d="M25.214 23.87l-7.053-7.053c3.213-3.91 2.994-9.714-.657-13.366-3.885-3.884-10.206-3.884-14.09 0-3.885 3.885-3.885 10.206 0 14.09 3.65 3.651 9.454 3.872 13.365.657l7.054 7.054a.977.977 0 001.38-1.382zm-9.091-7.71c-3.124 3.123-8.205 3.123-11.328 0-3.123-3.123-3.123-8.204 0-11.327 3.123-3.123 8.204-3.123 11.328 0 3.123 3.123 3.123 8.204 0 11.327z"/></g><defs><clipPath id="bclip0"><path transform="translate(.5 .538)" d="M0 0h25v25H0z"/></clipPath></defs></svg></svg>