<svg width="1600" height="532" fill="none" xmlns="http://www.w3.org/2000/svg"><path d="M1499 487.288c-5.69-10.865-28.84-19.599-39.19-21.582-55.27-10.548-113.16-9.093-169.12-8.903-60.97.19-119.15 9.958-179.61 14.473-31.45 2.341-64.68-1.878-96.19-2.975a12772.924 12772.924 0 01-155.659-6.329c-44.732-2.089-91.151 2.595-130.614 27.278-4.49 2.806-9.023 6.203-11.046 11.224-12.817 31.624 146.909 27.637 167.716 28.185 104.981 2.743 210.023 4.156 315.003 1.308 78.06-2.109 159.41-1.983 236.84-13.016 17.12-2.448 40.41-3.313 55.21-13.397 8.16-5.57 9.34-11.139 6.66-16.266z" fill="#F5F5F5"/><path d="M1431.04 55.732c1.37 0 2.79.022 4.22.085" stroke="#D2E8F9" stroke-miterlimit="10"/><path d="M1443.71 56.406c27.22 2.764 60.46 14.283 56.58 37.848-6.19 37.574-173.02 23.713-212.87 24.093-80.12.78-161.11 1.076-239.68 18.628-19.1 4.262-46.46 13.671-44.4 38.059.72 8.523 5.76 16.224 12.13 22.004 22.93 20.738 54.91 22.721 84.59 26.371 44.88 5.507 258.41-1.835 328.2 21.076 13.75 4.515 30.93 10.316 31.5 29.979 1.45 49.957-122.54 47.51-159.73 48.459-99.27 2.532-198.64 1.54-297.91-.422-80.231-1.582-160.695-2.995-240.78-8.164-29.85-1.941-78.693-2.511-101.46-24.937-12.733-12.531-14.398-35.337 5.734-46.982 14.187-8.207 55.8-4.621 71.821-5.992 48.443-4.177 33.792-33.586-5.46-37.341" stroke="#DBDBDB" stroke-miterlimit="10" stroke-dasharray="4.01 4.01"/><path d="M727.74 198.728a90.471 90.471 0 00-4.217-.106" stroke="#D2E8F9" stroke-miterlimit="10"/><path d="M1433.89 92.272l-12.78-67.615c-.75-4.05-5.6-5.739-8.72-3.06l-52.13 44.895c-3.12 2.68-2.16 7.742 1.72 9.093l64.91 22.721c3.88 1.35 7.76-2.004 7-6.034z" fill="#FDAB88"/><path d="M1424.04 91.24c-.36 0-.74-.064-1.09-.19l-53.38-18.693c-1.12-.38-1.94-1.35-2.17-2.51-.21-1.16.19-2.363 1.09-3.122l42.88-36.92a3.254 3.254 0 013.25-.612c1.12.38 1.94 1.35 2.17 2.51l10.52 55.612a3.348 3.348 0 01-1.1 3.144 3.42 3.42 0 01-2.17.78zm-51.6-22.343l50.44 17.659-9.93-52.553-40.51 34.894z" fill="#C16C44"/><path d="M1400.86 68.538a2.02 2.02 0 01-1.27-2.468l5.29-18.586a3.151 3.151 0 014.05-2.068 3.138 3.138 0 011.88 4.135l-7.45 17.827a1.957 1.957 0 01-2.5 1.16zm.4 5.065c-.38 1.054-1.54 1.624-2.59 1.244-1.06-.38-1.63-1.54-1.25-2.595.38-1.054 1.54-1.624 2.6-1.244a2.023 2.023 0 011.24 2.595z" fill="#C16C44"/><path d="M719.472 175.879l-42.035-20.928c-2.508-1.245-5.439.696-5.27 3.481l2.888 46.898c.169 2.806 3.31 4.367 5.65 2.806l39.125-25.949c2.361-1.561 2.15-5.063-.358-6.308z" fill="#FDAB88"/><path d="M714.857 180.814c-.148.19-.337.379-.548.527l-32.19 21.35a2.272 2.272 0 01-2.256.148 2.247 2.247 0 01-1.243-1.878l-2.382-38.565a2.28 2.28 0 011.011-2.025 2.275 2.275 0 012.256-.148l34.572 17.215a2.251 2.251 0 011.244 1.899 2.37 2.37 0 01-.464 1.477zm-33.434 18.881l30.419-20.168-32.653-16.266 2.234 36.434z" fill="#C16C44"/><path d="M692.952 184.064a1.363 1.363 0 01-1.855-.337l-7.927-10.549a2.163 2.163 0 01.548-3.059c1.012-.675 2.404-.359 3.015.675l6.619 11.414c.38.632.211 1.455-.4 1.856zm2.908 1.878a1.404 1.404 0 01-.401 1.941 1.401 1.401 0 01-1.939-.401 1.404 1.404 0 01.4-1.941 1.414 1.414 0 011.94.401z" fill="#C16C44"/><path d="M748.585 270.436c1.933 0 3.5-1.568 3.5-3.502a3.501 3.501 0 00-3.5-3.502 3.5 3.5 0 00-3.499 3.502 3.5 3.5 0 003.499 3.502zm519.465-64.811a3.503 3.503 0 000-7.004 3.503 3.503 0 000 7.004zm-275.605-98.141a3.5 3.5 0 003.499-3.502 3.501 3.501 0 00-3.499-3.503 3.501 3.501 0 00-3.5 3.503 3.501 3.501 0 003.5 3.502zm-4.196 266.347c1.933 0 3.5-1.568 3.5-3.502a3.501 3.501 0 00-3.5-3.502 3.5 3.5 0 00-3.499 3.502 3.5 3.5 0 003.499 3.502z" stroke="#FFB288" stroke-miterlimit="10"/><path d="M1069.8 164.108v7.912m3.95-3.946h-7.91m146.07-105.212v7.933m3.94-3.967h-7.9m223.8 209.767v7.932m3.94-3.966h-7.9" stroke="#FFB288" stroke-miterlimit="10" stroke-linecap="round" stroke-linejoin="round"/><path d="M1140.87 503.109s-14.73 6.287-14.73 9.431c0 1.814 20.25-.781 21.48-2.005 1.96-1.962-.8-7.172-.8-7.172l-5.95-.254z" fill="#003A66"/><path d="M1139.92 494.313l.95 9.071s.49 1.456 2.55 1.625c2.07.169 3.42-1.625 3.42-1.625l-.74-11.35" fill="#FFB288"/><path d="M1165.66 286.36c5.36 21.625 3.38 32.595-4.49 48.903-4.76 54.831-8.07 109.43-14.48 162.889l-6.77.38c-15.38-52.046-29.53-129.852-27.72-200.969" fill="#003A66"/><path d="M1162.33 293.786c1.96 5.021 2.45 10.675 2.28 16.013-.25 8.206-3.58 15.633-5.75 23.396-2.87 10.38-3.1 20.696-3.88 31.329-1.23 16.645-2.49 33.27-3.76 49.915-2.06 27.131-4.15 54.261-6.26 81.392-.06.802-.12 1.603-.19 2.426" stroke="#0061A6" stroke-width=".5" stroke-miterlimit="10"/><path d="M1199.65 505.221s-14.74 6.287-14.74 9.43c0 1.814 20.26-.781 21.48-2.004 1.96-1.962-.8-7.173-.8-7.173l-5.94-.253z" fill="#003A66"/><path d="M1198.7 496.422l.94 9.072s.49 1.455 2.55 1.624c2.07.169 3.42-1.624 3.42-1.624l-.74-11.35" fill="#FFB288"/><path d="M1214.68 284.525c6.79 21.203 5.52 32.3-1.24 49.093-1.12 55.021-4.92 112.467-7.76 166.243h-6.96c-18.78-50.906-38.91-129.513-41.82-200.61" fill="#003A66"/><path d="M1211.33 293.301s7.86 18.396-5.42 44.24c-1.54 24.388-2.32 162.298-2.32 162.298" stroke="#0061A6" stroke-width=".5" stroke-miterlimit="10"/><path d="M1191.89 299.145c1.35 2.088 3.48 3.565 5.76 4.493 2.29.928 4.74 1.329 7.18 1.625 2.91.358 5.84.59 8.77.443m-20.76-3.122c2.51 2.278 5.71 3.671 9 4.43 3.29.76 6.68.907 10.06.95" stroke="#0061A6" stroke-width=".5" stroke-miterlimit="10"/><path d="M1134.23 181.993c-23.44 40.823-48.68 77.785-63.62 122.405l-4.45-2.363c1.14-41.435 14.57-101.687 32.19-139.219" fill="#FFB288"/><path d="M1122.78 139.378s-7.25 2.046-15.79 7.721c-8.03 5.338-14.1 13.291-18.21 22.004-4.14 8.713-6.39 18.207-7.85 27.743 0 0 9.81 4.915 21.06 6.308 11.24 1.413 23.21 0 23.21 0" fill="#F0F0F0"/><path d="M1105.3 163.514c-2.49 44.135-.59 89.556.52 132.488 0 0 15.39 4.093 52.75 4.093 37.23 0 61.59-11.35 61.59-11.35-7.21-44.135-12.94-98.269-30.6-134.598 0 0-19.95-21.519-39.59-22.405-3.97-.169-7.91 1.266-11.68 3.017-2.78 1.287-15.54 4.409-15.54 4.409l-17.45 24.346z" fill="#F0F0F0"/><path d="M1105.09 167.438c-.97 8.481-.97 34.684-.97 34.684" stroke="#94C1F2" stroke-width=".5" stroke-miterlimit="10"/><path d="M1142.26 309.884c62.44-6.919 88.62 72.257 102.83 102.974 33.6 72.616 160.38 64.515 218.16 64.515 75.68 0 107.43 12.745 139.39 24.935" stroke="url(#paint0_linear)" stroke-width="5" stroke-miterlimit="10" stroke-linecap="round" stroke-linejoin="round"/><path d="M1163.78 313.471c0 32.152-24.3 51.54-45.09 51.54h-34.07V261.932h34.07c20.79 0 45.09 19.388 45.09 51.539z" fill="#C16C44"/><path d="M1146.22 313.471c0 31.413-18.59 56.856-41.5 56.856h-37.61V256.594h37.61c22.91 0 41.5 25.464 41.5 56.877z" fill="url(#paint1_linear)"/><path opacity=".5" d="M1154.55 282.396a1069.585 1069.585 0 00-23.76 33.712 5.697 5.697 0 002.91-1.519c0 .865-1.37 2.342-.15 2.891 1.21.548 2.47-.865 3.74-.486 1.18-.274 2.27-1.751 3.14-2.616a6.835 6.835 0 00-.53 1.984c8.28-3.228 15.7-10.971 22.16-17.194-1.59-6.308-4.2-11.941-7.51-16.772z" fill="#FDAE2B"/><path d="M1069.81 370.326c22.92 0 41.51-25.456 41.51-56.857 0-31.4-18.59-56.856-41.51-56.856-22.93 0-41.51 25.456-41.51 56.856 0 31.401 18.58 56.857 41.51 56.857z" fill="#FDAB88"/><path d="M1073.27 333.619c0 4.662-3.18 8.46-7.13 8.46-3.94 0-7.12-3.777-7.12-8.46 0-4.662 3.18-8.46 7.12-8.46 3.95 0 7.13 3.798 7.13 8.46zm0-40.315c0 4.662-3.18 8.459-7.13 8.459-3.94 0-7.12-3.776-7.12-8.459 0-4.663 3.18-8.46 7.12-8.46 3.95 0 7.13 3.797 7.13 8.46z" fill="#C16C44"/><path d="M1200.93 196.088s2.63 26.856-9.36 49.198c-10.27 19.092-30.65 43.818-47.11 57.447l-3.97-.971c5.74-22.025 23.82-61.118 24.96-75.759 1.12-14.662.87-31.645 1.12-39.81" fill="#FFB288"/><path d="M1149.98 131.721s22.09 1.519 34.91 12.341c18.3 15.464 21 45.76 21 52.785-5.53 5.97-17.63 6.287-26.44 6.287-8.81 0-15.24-4.22-15.24-4.22l-1.79-33.396" fill="#F0F0F0"/><path d="M1142.1 298.492c-2.51.253-4.96 1.477-7.07 3.123-1.94 1.519-4.32 4.05-4.06 5.21.25 1.224 3.43-1.118 3.81-.654.38.465-5.44 9.262-4.34 9.916 1.09.654 6.05-7.3 6.05-7.3s-4.81 8.502-2.95 8.692c1.56.148 5.82-7.89 5.82-7.89s-3.61 7.194-2.37 7.468c1.25.275 4.58-6.898 4.58-6.898s-2.72 6.118-1.69 6.223c.53.043 3.21-2.995 4.35-6.687 1.09-3.629 2.4-6.794 1.39-9.621" fill="#FFB288"/><path d="M1165.14 169.041v30.422" stroke="#94C1F2" stroke-width=".5" stroke-miterlimit="10"/><path d="M1104.19 103.663a47.816 47.816 0 00-.17 3.966c.02 2.869.4 5.865 2.04 8.228a8.767 8.767 0 004.75 3.333c1.35.359 3.1.211 3.69-1.055.21-.443.21-.949.21-1.456a38.86 38.86 0 00-2.81-14.367" fill="#26387A"/><path d="M1137.54 106.426c-1.9-7.384-7.86-17.743-17.56-15.675-6.09 1.308-11.7 5.464-13.49 11.266-2.15 6.941 1.33 15.021 5.48 20.675 1.54 2.088 3.35 4.071 5.71 5.316 5.61 2.912 13.2.528 17.01-4.325 3.82-4.852 4.35-11.413 2.85-17.257z" fill="#FFB288"/><path d="M1123.92 125.751l3.16 11.582-4.32 2.047s3.29 4.388 9.8 3.439c13.24-1.92 17.4-11.097 17.4-11.097l-7.47-.781-8.26-14.114" fill="#FFB288"/><path d="M1143.99 98.347c-.93-5.085-4.56-9.389-8.96-12.068-7.84-4.768-18.99-5.148-25.95 1.413-3.96 3.735-11.11 16.984-2.57 19.6 2.67.822 5.41-.802 7.73-2.363 2.36-1.583 4.73-3.165 7.09-4.747.84-.57 1.75-1.16 2.76-1.203 1.66-.063 3.05 1.372 3.65 2.933.59 1.561.63 3.27 1.03 4.894.27 1.14.78 2.321 1.77 2.975.99.633 2.57.443 3.08-.612.35-.738.1-1.603.08-2.426-.02-.823.44-1.835 1.27-1.793.29.021.56.169.8.337 2.06 1.604 1.39 4.832 2.06 7.342.09.338-.59 5.443-.38 5.696 6.58-1.477 7.19-16.329 6.54-19.978z" fill="#003A66"/><path d="M1134.25 105.625c-.15-.928.74-1.793 1.69-1.899.95-.105 1.85.38 2.57.992 1.24 1.034 2.13 2.553 2.15 4.156.02 1.266-.49 2.489-1.18 3.544-.47.718-1.08 1.414-1.9 1.667-1.05.337-2.21-.148-2.97-.949" fill="#FFB288"/><path d="M899.518 502.796s14.208 2.363 14.608 5.506c.232 1.793-19.921 3.924-21.291 2.869-2.192-1.687.506-7.995.506-7.995l6.177-.38z" fill="#003A66"/><path d="M898.387 494.062l1.159 8.987s-.295 1.519-2.319 1.941c-2.024.422-3.605-1.181-3.605-1.181l-1.665-11.224" fill="#FFB288"/><path d="M845.236 289.126c-2.55 22.131-2.677 32.763 7.21 47.911 4.68 21.413 11.868 43.312 17.307 65.232-2.34 26.181 14.061 67.868 22.872 97.636l6.366-1.097c8.58-53.586 11.742-135.78 4.048-207.72" fill="#003A66"/><path d="M849.391 319.104s24.453 77.7 24.453 81.92c0 4.219.675 18.734 1.75 28.122 1.981 17.236 17.581 68.016 17.581 68.016" stroke="#0061A6" stroke-width=".5" stroke-miterlimit="10"/><path d="M892.413 501.129l-.991-3.882 8.221-.295.127 3.566-7.357.611z" fill="#0061A6"/><path d="M788.955 503.241s11.131 8.038 10.14 10.865c-.569 1.624-18.656-5.085-19.373-6.562-1.159-2.363 3.816-6.624 3.816-6.624l5.417 2.321z" fill="#003A66"/><path d="M791.679 495.328l-2.803 8.165s-.886 1.16-2.804.675c-1.897-.485-2.572-2.531-2.572-2.531l3.31-10.275" fill="#FFB288"/><path d="M797.477 284.528c-6.788 21.203-5.523 32.3 1.244 49.093.4 20.105.611 40.421.843 60.759-14.314 35.844-16.569 67.995-14.756 102.13l6.893 2.553s41.086-71.667 48.632-99.979c8.665-32.489 13.576-67.235 14.925-99.83" fill="#003A66"/><path d="M799.159 289.126s-7.483 21.899 2.319 42.995c0 5.886 3.373 54.852 2.045 62.405-.632 3.629-7.357 20.928-11.847 37.785-4.954 18.628-6.008 62.573-6.008 62.573" stroke="#0061A6" stroke-width=".5" stroke-miterlimit="10"/><path d="M783.5 496.51l1.096-4.62 8.833 4.113-1.75 3.946-8.179-3.439z" fill="#0061A6"/><path d="M912.358 120.689l-5.544-4.726v-9.789c0-1.519-2.066-10.633-3.921-10.633s-2.277-2.278-3.204-1.35c-.928.928.759 11.224 0 11.983-.759.76-1.75-4.894-2.446-4.198-.695.696-.759 4.852-.759 6.962 0 2.109 1.687 6.034 3.373 7.7 1.687 1.688 9.107 9.726 9.107 9.726l3.394-5.675z" fill="#EF9467"/><path d="M909.603 117.565l-4.616 5.275s18.276 24.219 24.074 32.32c-5.271-1.856-12.859-6.498-17.244-9.367-8.601-5.633-17.223-8.629-23.168-8.629-12.669 0-6.029 41.751 8.643 47.869 27.848 4.199 59.089 1.54 63.853-8.27 7.083-14.535-33.75-48.734-51.542-59.198z" fill="#E9E9E9"/><path d="M929.035 155.14s3.478 9.746 9.676 12.911" stroke="#94C1F2" stroke-width=".5" stroke-miterlimit="10"/><path d="M824.642 148.199c-33.202 37.32-32.696 101.497-32.696 145.125 0 0 24.369 16.646 61.597 16.646 37.376 0 52.743-9.177 52.743-9.177 1.117-44.198-6.767-63.249.527-136.35 0 0-11.889-27.278-18.213-27.278-6.346 0-31.115-2.447-31.115-2.447l-32.843 13.481z" fill="#EBEBEB"/><path d="M905 186.004s.759-12.764 3.858-15.865" stroke="#94C1F2" stroke-width=".5" stroke-miterlimit="10"/><path d="M868.467 106.723c1.243-7.532 6.598-18.291 16.442-17.068 6.177.76 10.962 5.043 14.419 10.043 2.973 4.282 1.855 8.396-2.382 19.261-1.349 2.215-4.258 6.181-6.493 7.616-5.333 3.397-13.091 1.688-17.328-2.806s-5.628-11.097-4.658-17.046z" fill="#FFB288"/><path d="M869.799 105.795c1.412-.211 0-1.139.633.148.4.823.527 1.076 1.328 1.329.78.253.801.992 1.454 1.477 1.033.759 1.897-.274 2.319-1.16.801-1.625.78-3.608.59-5.359-.147-1.392-.611-3.587.738-4.557 1.117-.78 3.563.359 4.701.696 1.771.507 3.52 1.076 5.27 1.625 4.237 1.287 8.727 2.426 13.175 1.835 3.9-.527 7.927-2.553 9.803-6.181 2.234-4.325-2.235-10-6.788-10-1.202 0-2.319.485-3.499.717-.422.085-.886.148-1.307.021-.991-.295-1.434-1.413-2.003-2.278-1.687-2.637-4.575-3.44-7.547-3.102-3.373.38-6.261 1.984-9.486 2.87-1.708.464-3.183.02-4.87.084-1.749.063-3.562 1.203-4.342 2.827-1.37-1.434-4.448 2.089-5.228 3.038-3.373 4.093-4.427 10-4.511 15.19-.085 4.536.674 11.118 5.628 12.953 2.108.781 3.415 1.182 3.521-.738-.928-2.004-1.139-5.949-1.329-7.616-.189-1.667.296-3.65 1.834-4.304" fill="#003A66"/><path d="M885.947 124.699l-1.075 11.371 3.731 1.055s-1.981 5.106-8.495 5.971c-13.26 1.772-22.62-8.418-22.62-8.418l4.427-.865 6.704-21.139" fill="#FFB288"/><path d="M872.011 105.711c.063-.95-.907-1.73-1.834-1.751-.949-.022-1.813.527-2.488 1.202-3.71 3.692.949 12.7 4.617 8.038" fill="#FFB288"/><path d="M896.989 118.748c-.59 1.392-2.951 1.962-4.237 2.088-6.24.696-11.404-3.354-17.37-4.093-1.181-.147-2.53-.253-3.415.549-.843.759-.907 2.025-.928 3.143-.021 1.393-.042 2.806.085 4.178.105 1.202.337 2.426.969 3.459 2.699 4.494 11.7 5.254 16.253 4.979 1.834-.105 3.753-.464 5.207-1.561 2.045-1.54 2.488-4.261 3.268-6.645.906-2.891.168-6.097.168-6.097z" fill="#003A66"/><path d="M892.567 123.643c-.189-.126-.421-.232-.653-.232-2.909 0-4.532-.696-6.788-.886-.379-.021-.78-.063-1.159.063-.802.253-1.265 1.076-1.434 1.899-.169.823.253 1.456.991 1.814 1.349.675 2.867.908 4.364.95 1.307.042 3.014.147 4.089-.739.59-.485 1.497-2.194.59-2.869z" fill="#FFB288"/><path d="M865.138 288.389c-72.538-3.798-127.052 74.129-163.445 104.057C516.308 544.899 22.046 496.587-2.449 496.101" stroke="url(#paint2_linear)" stroke-width="5" stroke-miterlimit="10" stroke-linecap="round" stroke-linejoin="round"/><path d="M837.314 294.296c2.678 32.025 28.501 49.346 49.202 47.616l33.961-2.827-8.559-102.721-33.96 2.827c-20.702 1.73-43.321 23.08-40.644 55.105z" fill="#C16C44"/><path d="M854.809 292.84c2.614 31.308 23.23 55.126 46.081 53.207l37.46-3.123-9.444-113.332-37.46 3.122c-22.83 1.92-39.251 28.84-36.637 60.126z" fill="url(#paint3_linear)"/><path d="M935.652 343.14c22.844-1.907 39.248-28.819 36.641-60.109-2.607-31.291-23.239-55.112-46.083-53.206-22.844 1.907-39.249 28.819-36.641 60.109 2.607 31.291 23.239 55.112 46.083 53.206z" fill="#FDAB88"/><path d="M929.178 306.848c.38 4.641 3.879 8.165 7.8 7.827 3.921-.337 6.767-4.367 6.388-9.008-.38-4.642-3.879-8.165-7.8-7.827-3.921.337-6.767 4.367-6.388 9.008zm-3.343-40.147c.379 4.641 3.878 8.164 7.799 7.827 3.921-.317 6.767-4.367 6.388-9.009-.38-4.641-3.879-8.164-7.8-7.827-3.9.317-6.767 4.346-6.387 9.009z" fill="#C16C44"/><path d="M934.113 271.954c4.258-.358 52.954-4.43 52.954-4.43 3.226-.274 5.629-3.144 5.355-6.392-.274-3.27-3.12-5.697-6.346-5.422l-52.954 4.43c-4.047.338-3.288 12.173.991 11.814zm3.329 40.168c4.258-.358 52.954-4.43 52.954-4.43 3.226-.274 5.629-3.144 5.355-6.392-.274-3.271-3.12-5.697-6.345-5.422l-52.955 4.43c-4.047.316-3.267 12.173.991 11.814z" fill="#E2E8ED"/><path d="M806.956 196.09s-2.635 26.856 9.36 49.198c10.266 19.092 30.651 43.818 47.115 57.447l3.963-.971c-5.734-22.025-23.821-61.118-24.959-75.759-1.117-14.662-.864-31.645-1.117-39.81" fill="#FFB288"/><path d="M857.508 134.697s-23.273 1.35-36.659 11.456c-23.146 17.489-18.593 64.493-11.868 87.446 6.746 22.975 39.146 57.447 49.623 64.873 1.708 0 6.746-.421 6.577-4.388-5.797-17.911-22.303-65.02-22.303-65.02l2.614-63.565" fill="#ECECEC"/><path d="M865.794 298.493c2.509.253 4.954 1.477 7.062 3.123 1.94 1.518 4.322 4.05 4.069 5.21-.253 1.224-3.436-1.118-3.816-.654-.379.465 5.439 9.262 4.343 9.916-1.096.654-6.05-7.3-6.05-7.3s4.806 8.502 2.951 8.692c-1.56.148-5.818-7.89-5.818-7.89s3.604 7.194 2.361 7.468c-1.244.275-4.575-6.898-4.575-6.898s2.72 6.118 1.687 6.223c-.527.043-3.204-2.995-4.343-6.687-1.096-3.629-2.403-6.794-1.391-9.621" fill="#FFB288"/><path d="M849.389 247.819c-3.71-10.696-6.514-18.713-6.514-18.713l4.891-53.354m-44.119 12.953c-.126 14.473 1.602 32.299 5.312 44.936 3.247 11.055 12.438 24.789 22.261 36.857" stroke="#94C1F2" stroke-width=".5" stroke-miterlimit="10"/><path d="M1301.48 110.119l3.74-2.553s1.72-8.143 2.69-9.62c1.02-1.54 2.93-4.747 5.13-6.223.9-.612 5.08-2.975 6.13-1.92.53.527-1.24 5.232-2.04 6.034-.8.801-3.19 4.43-2.81 5.548.38 1.139 2.34-1.35 2.81-1.814.46-.465 1.09-1.055 1.3-.443.36 1.012-1.75 6.687-3.39 8.333-1.65 1.645-4.32 3.207-6.18 3.207l-5.82 5.126" fill="#FFB288"/><path d="M1346.55 83.303c6.2 3.65 10.01 10.528 11.51 17.405.27 1.245.49 2.574 1.35 3.502.67.739 1.64 1.119 2.57 1.541 5.12 2.384 9.07 7.025 10.86 12.362.78 2.279.17 5.486 1.05 7.426 1.1 2.384 5.15 2.912 7.32 3.65 6.51 2.152 11.27 8.713 11.36 15.57.06 6.856-4.58 13.502-11.03 15.801 1.73 2.426 1.99 5.718 1.18 8.608-.8 2.89-2.55 5.422-4.53 7.658-8.2 9.262-20.83 14.219-33.18 13.692-3.56-.148-7.12-.739-10.43-2.089-3.73-1.519-7.02-3.987-10.16-6.498-3.8-3.038-7.59-6.371-9.64-10.801-2.04-4.409-1.92-10.19 1.56-13.608-4 .844-8.28-1.35-10.54-4.768-2.25-3.417-2.65-7.827-1.75-11.835.91-3.987 3.02-7.616 5.46-10.907 1.73-2.3 3.69-4.641 4.07-7.489.61-4.768-2.04-9.009-2.74-13.756-1.07-7.362-.74-13.713 5.57-17.615 2.02-5.254 4.46-9.304 10.26-10.844 6.87-1.836 13.73-.654 19.88 2.995z" fill="#003A66"/><path d="M1331.39 139.295c-21.04-5.506-45.09 3.186-50.47 3.165 7.34-7.342 20.83-23.713 25.49-29.367 0-3.882-2.36-4.979-2.36-4.979s-57.68 29.852-51.88 49.346c6.05 20.337 62.57 10.358 67.08 16.202" fill="#F0F0F0"/><path d="M1335.51 328.725c-.06 1.73-7.59 38.776-8.16 42.763-1.62 11.582 4.49 23.207 3.9 41.16-.72 21.835-9.99 80.485-11.17 83.101-1.18 2.595-6.83.211-6.83.211s-16.3-78.692-17.23-110.907c-.75-26.518 3.1-83.923 3.1-83.923" fill="#FFB288"/><path d="M1320.67 496.739s.95 1.983.9 2.891c-.12 2.447-.19 4.113-.19 4.113l-1.05.064-.36-2.005s-2.82.486-5.69 2.384c-1.39.908-8.39.823-9.47.254-1.2-.633-.86-1.794-.46-2.258.4-.464 7.97-3.776 7.97-3.776" fill="#26387A"/><path d="M1313.27 495.939c-.61 1.477-6.58 4.726-6.03 5.169.55.443 4.02.464 7.88-.823 3.52-1.161 5.5-2.468 5.61-3.397l-.67-2.468m67.79-164.155c-.02 1.73-6.41 38.987-6.85 42.995-1.27 11.625 5.21 23.059 5.16 41.012-.06 21.836-7.54 80.759-8.64 83.396-1.1 2.638-6.83.422-6.83.422s-18.7-78.164-20.6-110.315c-1.56-26.498.53-83.987.53-83.987" fill="#FFB288"/><path d="M1378.13 498.659s1.01 1.962.99 2.869c-.04 2.448-.08 4.114-.08 4.114l-1.06.106-.42-1.983s-2.8.569-5.6 2.552c-1.37.95-8.35 1.097-9.45.549-1.22-.591-.9-1.751-.53-2.236.38-.486 7.85-4.009 7.85-4.009" fill="#26387A"/><path d="M1370.69 498.09c-.57 1.498-6.43 4.936-5.88 5.358.57.422 4.03.338 7.84-1.054 3.48-1.266 5.42-2.638 5.5-3.566l-.73-2.447" fill="#FFB288"/><path d="M1368.83 234.949s16.71 10.949 23.08 37.236c8.58 35.443-4.07 104.83-4.07 104.83s-26.18 7.659-54.64 7.405c-28.46-.232-45.32-9.873-45.39-11.582-.06-1.73-4.23-54.261 1.54-89.894 6.5-39.999 23.04-50.78 23.04-50.78" fill="#003A66"/><path d="M1346.17 138.62c2.59-.971 9.32 1.392 21.9 6.223 5.53 5.992 7.95 19.093 9.15 30.718-3.27 28.248-6.91 43.691-5.14 53.227.42 2.257 2.49 3.966 2.15 7.131-.68 6.519-11.34 7.51-31.58 9.81-20.24 2.299-38.45-6.899-37.38-9.768 1.1-2.869 4.56-5.401 5.11-7.3.54-1.898 2.19-26.118.02-28.987-2.2-2.869-7.85-11.139-7.85-19.198 0-11.329 6.24-16.413 10.31-22.637 6.81-10.38 11.96-16.877 18.55-18.523 10.52-2.637 14.76-.696 14.76-.696z" fill="#F0F0F0"/><path d="M1312.1 152.945s.74 4.853-1.75 8.924c-.75 1.245-5.35 5.929-6.26 8.924" stroke="#6CB1EF" stroke-width=".5" stroke-miterlimit="10"/><path d="M1341.32 124.824c5.52-5.485 6.41-15.907 3.88-22.953-2.83-7.933-14.12-13.861-21.88-8.903-15.24 9.747.23 49.535 18 31.856z" fill="#FFB288"/><path d="M1330.8 123.853l.3 16.962s-.64 3.776 5.98 4.008c9.09.317 9.09-6.202 9.09-6.202l-5.25-17.469" fill="#FFB288"/><path d="M1337.67 85.477c-1.87-1.223-3.85-1.287-5.79-.147-1.18.696-2.01 1.856-3.27 2.426-.89.4-1.96.464-2.89.717-4.4 1.203-8.58 4.557-10.43 8.755-1.88 4.22-1.27 11.097 2.23 14.114-.15-3.27.82-7.953 2.57-10.738.91-1.456 2.36-2.89 4.05-2.68 1.92.211 2.95 2.258 4.32 3.608 2.09 2.025 5.08 2.447 7.84 2.869 3.12.464 5.53 1.013 7.07 4.093.67 1.329 1.03 2.806 1.39 4.24.42 1.73.84 3.46.95 5.211.06 1.097 0 2.237.33 3.27.7 2.089 2.81 3.355 4.89 4.051 1.61.549 4.3 1.034 5.32-.781.84-1.519 1.56-3.649 1.85-5.358.97-5.696-.84-11.603-3.92-16.498-3.37-5.359-8.16-8.966-12.5-13.439-1.27-1.329-2.57-2.763-4.01-3.713z" fill="#003A66"/><path d="M1341.93 111.575c.34-1.287 1.29-2.616 2.62-2.806 4.32-.654 3.67 5.802 2 8.059-.97 1.329-3.48 3.038-4.62-.612m45.77 127.404l-2.02 4.346s-7.65 1.814-8.48 3.164c-1.28 2.131-3.2 5.085-3.2 6.751 0 1.688.17 9.03 2.26 9.03 1.3 0 4.4-6.013 5.03-6.836 1.5-1.983 7.57-3.417 7.57-8.649l3.71-7.827" fill="#FFB288"/><path d="M1346.17 138.389s17.88-4.557 31.83 4.262c10.86 6.856 38.79 40.949 38.79 60.484 0 13.165-26.12 45.781-26.12 45.781l-4.34-3.102s2.53-25.632 10.12-39.767c-5.61-5.612-27.43-23.017-32.93-28.502" fill="#F0F0F0"/><path d="M1360.69 175.772c3.9 3.481 14.19 11.751 14.19 11.751" stroke="#6CB1EF" stroke-width=".5" stroke-miterlimit="10"/><path d="M846.448 104.399l-33.937-20.897s15.278-43.035-4.939-58.063c-10.738-7.994-24.359-13.46-38.379-17.532-31.253-9.058-68.571-11.107-96.411 3.01-20.548 10.398-33.01 28.234-38.611 46.551-4.905 16.141-4.507 34.484 8.717 47.614 5.932 5.895 14.052 10.348 22.702 13.788 26.879 10.753 97.903 14.801 128.759-.961 8.55-4.377 7.788-10.272 11.367-19.506l40.732 5.996z" fill="#F8F8F8"/><path d="M660.874 58.594h-1.568v3.948h-2.254v-9.8h2.254v3.962h1.624l2.576-3.962h2.394l-3.206 4.732 3.304 5.068h-2.576l-2.548-3.948zm9.013-3.696c1.166 0 2.062.28 2.688.84.625.55.938 1.386.938 2.506v4.298h-2.044v-.938c-.411.7-1.176 1.05-2.296 1.05-.579 0-1.083-.098-1.512-.294a2.251 2.251 0 01-.966-.812 2.113 2.113 0 01-.336-1.176c0-.7.261-1.25.784-1.652.532-.401 1.348-.602 2.45-.602h1.736c0-.476-.145-.84-.434-1.092-.29-.261-.724-.392-1.302-.392-.402 0-.798.065-1.19.196-.383.121-.71.29-.98.504l-.784-1.526c.41-.29.9-.513 1.47-.672a6.687 6.687 0 011.778-.238zm-.168 6.286c.373 0 .704-.084.994-.252.289-.177.494-.434.616-.77v-.77h-1.498c-.896 0-1.344.294-1.344.882 0 .28.107.504.322.672.224.159.527.238.91.238zm9.009-1.498h-1.134v2.856h-2.184V55.01h2.184v2.926h1.176l2.044-2.926h2.324l-2.632 3.612 2.814 3.92h-2.576l-2.016-2.856zm17.091 0h-1.05v2.856h-2.156v-2.856h-1.05l-1.596 2.856h-2.576l2.366-3.892-2.198-3.64h2.31l1.666 2.926h1.078V55.01h2.156v2.926h1.064l1.68-2.926h2.31l-2.198 3.64 2.38 3.892h-2.59l-1.596-2.856zm12.411-.882c0 .028-.014.224-.042.588h-5.698c.103.467.345.835.728 1.106.383.27.859.406 1.428.406.392 0 .737-.056 1.036-.168.308-.121.593-.308.854-.56l1.162 1.26c-.709.812-1.745 1.218-3.108 1.218-.849 0-1.601-.163-2.254-.49a3.694 3.694 0 01-1.512-1.386c-.355-.588-.532-1.255-.532-2.002 0-.737.173-1.4.518-1.988a3.676 3.676 0 011.442-1.386 4.227 4.227 0 012.058-.504c.737 0 1.405.159 2.002.476a3.419 3.419 0 011.4 1.372c.345.588.518 1.274.518 2.058zm-3.906-2.254c-.495 0-.91.14-1.246.42-.336.28-.541.663-.616 1.148h3.71c-.075-.476-.28-.854-.616-1.134-.336-.29-.747-.434-1.232-.434zm16.895 5.992v-4.508l-2.254 3.78h-.924l-2.198-3.794v4.522h-1.974V55.01h2.282l2.408 4.354 2.562-4.354h2.044l.028 7.532h-1.974zm4.066-7.532h2.17v2.94h3.276v-2.94h2.184v7.532h-2.184v-2.814h-3.276v2.814h-2.17V55.01zm17.043 3.794c0 .028-.014.224-.042.588h-5.698c.102.467.345.835.728 1.106.382.27.858.406 1.428.406.392 0 .737-.056 1.036-.168.308-.121.592-.308.854-.56l1.162 1.26c-.71.812-1.746 1.218-3.108 1.218-.85 0-1.601-.163-2.254-.49-.654-.336-1.158-.798-1.512-1.386-.355-.588-.532-1.255-.532-2.002 0-.737.172-1.4.518-1.988a3.67 3.67 0 011.442-1.386 4.227 4.227 0 012.058-.504c.737 0 1.404.159 2.002.476a3.419 3.419 0 011.4 1.372c.345.588.518 1.274.518 2.058zm-3.906-2.254c-.495 0-.91.14-1.246.42-.336.28-.542.663-.616 1.148h3.71c-.075-.476-.28-.854-.616-1.134-.336-.29-.747-.434-1.232-.434zm15.873.252h-2.548v5.74h-2.17v-5.74h-2.548V55.01h7.266v1.792zm8.171 2.002c0 .028-.014.224-.042.588h-5.698c.103.467.346.835.728 1.106.383.27.859.406 1.428.406.392 0 .738-.056 1.036-.168.308-.121.593-.308.854-.56l1.162 1.26c-.709.812-1.745 1.218-3.108 1.218-.849 0-1.6-.163-2.254-.49a3.694 3.694 0 01-1.512-1.386c-.354-.588-.532-1.255-.532-2.002 0-.737.173-1.4.518-1.988a3.683 3.683 0 011.442-1.386 4.227 4.227 0 012.058-.504c.738 0 1.405.159 2.002.476a3.413 3.413 0 011.4 1.372c.346.588.518 1.274.518 2.058zm-3.906-2.254c-.494 0-.91.14-1.246.42-.336.28-.541.663-.616 1.148h3.71c-.074-.476-.28-.854-.616-1.134-.336-.29-.746-.434-1.232-.434zm13.07-1.54v7.532h-2.184v-5.74h-3.136v5.74h-2.17V55.01h7.49zm9.416 3.794c0 .028-.014.224-.042.588h-5.698c.103.467.346.835.728 1.106.383.27.859.406 1.428.406.392 0 .738-.056 1.036-.168.308-.121.593-.308.854-.56l1.162 1.26c-.709.812-1.745 1.218-3.108 1.218-.849 0-1.6-.163-2.254-.49a3.694 3.694 0 01-1.512-1.386c-.354-.588-.532-1.255-.532-2.002 0-.737.173-1.4.518-1.988a3.683 3.683 0 011.442-1.386 4.227 4.227 0 012.058-.504c.738 0 1.405.159 2.002.476a3.413 3.413 0 011.4 1.372c.346.588.518 1.274.518 2.058zm-3.906-2.254c-.494 0-.91.14-1.246.42-.336.28-.541.663-.616 1.148h3.71c-.074-.476-.28-.854-.616-1.134-.336-.29-.746-.434-1.232-.434zm10.019-1.652c.7 0 1.334.163 1.904.49a3.4 3.4 0 011.358 1.358c.326.579.49 1.255.49 2.03 0 .775-.164 1.456-.49 2.044a3.523 3.523 0 01-1.358 1.358 3.846 3.846 0 01-1.904.476c-.962 0-1.718-.303-2.268-.91v3.514h-2.184V55.01h2.086v.868c.541-.653 1.33-.98 2.366-.98zm-.378 5.964c.56 0 1.017-.187 1.372-.56.364-.383.546-.891.546-1.526s-.182-1.139-.546-1.512c-.355-.383-.812-.574-1.372-.574s-1.022.191-1.386.574c-.355.373-.532.877-.532 1.512s.177 1.143.532 1.526c.364.373.826.56 1.386.56zm9.734-3.444c.98.01 1.732.233 2.254.672.523.43.784 1.04.784 1.834 0 .83-.294 1.48-.882 1.946-.578.457-1.395.686-2.45.686l-3.78-.014V55.01h2.17v2.408h1.904zm-.49 3.584c.42.01.742-.08.966-.266.224-.187.336-.467.336-.84 0-.364-.112-.63-.336-.798-.214-.168-.536-.257-.966-.266l-1.414-.014v2.184h1.414zm-124.65 14.62c.448.14.793.355 1.036.644.252.29.378.635.378 1.036 0 .476-.163.896-.49 1.26-.327.355-.775.63-1.344.826-.569.196-1.213.294-1.932.294-.588 0-1.167-.06-1.736-.182a6.592 6.592 0 01-1.582-.546l.588-1.526c.793.383 1.671.574 2.632.574.513 0 .915-.075 1.204-.224.299-.159.448-.378.448-.658a.595.595 0 00-.308-.546c-.205-.13-.504-.196-.896-.196h-1.54V75.02h1.344c.383 0 .677-.06.882-.182a.583.583 0 00.308-.532c0-.243-.131-.43-.392-.56-.252-.13-.616-.196-1.092-.196-.728 0-1.521.173-2.38.518l-.532-1.512c1.045-.457 2.063-.686 3.052-.686.681 0 1.288.084 1.82.252.541.168.966.415 1.274.742.308.317.462.69.462 1.12 0 .355-.107.677-.322.966-.215.28-.509.504-.882.672zm5.929-3.724c1.166 0 2.062.28 2.688.84.625.55.938 1.386.938 2.506v4.298h-2.044v-.938c-.411.7-1.176 1.05-2.296 1.05-.579 0-1.083-.098-1.512-.294a2.251 2.251 0 01-.966-.812 2.113 2.113 0 01-.336-1.176c0-.7.261-1.25.784-1.652.532-.401 1.348-.602 2.45-.602h1.736c0-.476-.145-.84-.434-1.092-.29-.261-.724-.392-1.302-.392-.402 0-.798.065-1.19.196-.383.121-.71.29-.98.504l-.784-1.526c.41-.29.9-.513 1.47-.672a6.687 6.687 0 011.778-.238zm-.168 6.286c.373 0 .704-.084.994-.252.289-.177.494-.434.616-.77v-.77h-1.498c-.896 0-1.344.294-1.344.882 0 .28.107.504.322.672.224.159.527.238.91.238zm9.009-1.498h-1.134v2.856h-2.184V72.01h2.184v2.926h1.176l2.044-2.926h2.324l-2.632 3.612 2.814 3.92h-2.576l-2.016-2.856zm8.454-4.788c1.166 0 2.062.28 2.688.84.625.55.938 1.386.938 2.506v4.298h-2.044v-.938c-.411.7-1.176 1.05-2.296 1.05-.579 0-1.083-.098-1.512-.294a2.251 2.251 0 01-.966-.812 2.113 2.113 0 01-.336-1.176c0-.7.261-1.25.784-1.652.532-.401 1.348-.602 2.45-.602h1.736c0-.476-.145-.84-.434-1.092-.29-.261-.724-.392-1.302-.392-.402 0-.798.065-1.19.196-.383.121-.71.29-.98.504l-.784-1.526c.41-.29.9-.513 1.47-.672a6.687 6.687 0 011.778-.238zm-.168 6.286c.373 0 .704-.084.994-.252.289-.177.494-.434.616-.77v-.77h-1.498c-.896 0-1.344.294-1.344.882 0 .28.107.504.322.672.224.159.527.238.91.238zm10.509-2.562c.448.14.793.355 1.036.644.252.29.378.635.378 1.036 0 .476-.164.896-.49 1.26-.327.355-.775.63-1.344.826-.57.196-1.214.294-1.932.294-.588 0-1.167-.06-1.736-.182a6.577 6.577 0 01-1.582-.546l.588-1.526c.793.383 1.67.574 2.632.574.513 0 .914-.075 1.204-.224.298-.159.448-.378.448-.658a.595.595 0 00-.308-.546c-.206-.13-.504-.196-.896-.196h-1.54V75.02h1.344c.382 0 .676-.06.882-.182a.583.583 0 00.308-.532c0-.243-.131-.43-.392-.56-.252-.13-.616-.196-1.092-.196-.728 0-1.522.173-2.38.518l-.532-1.512c1.045-.457 2.062-.686 3.052-.686.681 0 1.288.084 1.82.252.541.168.966.415 1.274.742.308.317.462.69.462 1.12 0 .355-.108.677-.322.966-.215.28-.509.504-.882.672zm5.928-3.724c1.167 0 2.063.28 2.688.84.626.55.938 1.386.938 2.506v4.298h-2.044v-.938c-.41.7-1.176 1.05-2.296 1.05-.578 0-1.082-.098-1.512-.294a2.251 2.251 0 01-.966-.812 2.113 2.113 0 01-.336-1.176c0-.7.262-1.25.784-1.652.532-.401 1.349-.602 2.45-.602h1.736c0-.476-.144-.84-.434-1.092-.289-.261-.723-.392-1.302-.392-.401 0-.798.065-1.19.196-.382.121-.709.29-.98.504l-.784-1.526c.411-.29.901-.513 1.47-.672a6.698 6.698 0 011.778-.238zm-.168 6.286c.374 0 .705-.084.994-.252.29-.177.495-.434.616-.77v-.77h-1.498c-.896 0-1.344.294-1.344.882 0 .28.108.504.322.672.224.159.528.238.91.238zm12.019-4.382h-2.548v5.74h-2.17v-5.74h-2.548V72.01h7.266v1.792zm5.239.616c.98.01 1.731.233 2.254.672.522.43.784 1.04.784 1.834 0 .83-.294 1.48-.882 1.946-.579.457-1.396.686-2.45.686l-3.78-.014V72.01h2.17v2.408h1.904zm-.49 3.584c.42.01.742-.08.966-.266.224-.187.336-.467.336-.84 0-.364-.112-.63-.336-.798-.215-.168-.537-.257-.966-.266l-1.414-.014v2.184h1.414zm12.175-1.316h-1.134v2.856h-2.184V72.01h2.184v2.926h1.176l2.044-2.926h2.324l-2.632 3.612 2.814 3.92h-2.576l-2.016-2.856zm12.787-4.676l-3.402 7.994c-.346.868-.775 1.48-1.288 1.834-.504.355-1.116.532-1.834.532a3.8 3.8 0 01-1.162-.182 2.562 2.562 0 01-.938-.504l.798-1.554a1.893 1.893 0 001.232.476c.298 0 .541-.075.728-.224.186-.14.354-.378.504-.714l.028-.07-3.262-7.588h2.254l2.114 5.11 2.128-5.11h2.1zm5.361 7.532l-1.652-2.31-1.708 2.31h-2.38l2.898-3.794-2.8-3.738h2.45l1.596 2.198 1.638-2.198h2.324l-2.8 3.682 2.912 3.85h-2.478zm3.554-7.532h2.17v2.94h3.276v-2.94h2.184v7.532h-2.184v-2.814h-3.276v2.814h-2.17V72.01zm16.846-.112c.766 0 1.452.168 2.058.504a3.603 3.603 0 011.428 1.372c.346.588.518 1.255.518 2.002 0 .747-.172 1.414-.518 2.002a3.701 3.701 0 01-1.428 1.386c-.606.327-1.292.49-2.058.49a4.467 4.467 0 01-1.82-.364 3.753 3.753 0 01-1.372-1.05 3.68 3.68 0 01-.728-1.568h-1.036v2.87h-2.17V72.01h2.17v2.772h1.05c.215-.877.672-1.577 1.372-2.1.7-.523 1.545-.784 2.534-.784zm0 5.964c.532 0 .971-.187 1.316-.56.355-.383.532-.891.532-1.526 0-.644-.177-1.153-.532-1.526-.345-.373-.784-.56-1.316-.56-.541 0-.989.187-1.344.56-.345.373-.518.882-.518 1.526 0 .635.173 1.143.518 1.526.355.373.803.56 1.344.56zm6.893-1.722c0-.485.108-.887.322-1.204.224-.317.546-.667.966-1.05.308-.28.532-.513.672-.7.15-.196.224-.415.224-.658a.937.937 0 00-.42-.812c-.27-.205-.634-.308-1.092-.308-.438 0-.83.093-1.176.28a2.45 2.45 0 00-.854.756l-1.694-.994c.392-.597.92-1.06 1.582-1.386.672-.327 1.466-.49 2.38-.49 1.074 0 1.932.229 2.576.686.654.457.98 1.092.98 1.904 0 .383-.065.719-.196 1.008-.121.29-.275.537-.462.742a9.78 9.78 0 01-.7.686c-.345.308-.597.57-.756.784a1.203 1.203 0 00-.238.756h-2.114zm1.064 3.514c-.382 0-.704-.121-.966-.364a1.24 1.24 0 01-.378-.91c0-.355.126-.649.378-.882.252-.243.574-.364.966-.364s.714.121.966.364c.252.233.378.527.378.882s-.13.658-.392.91c-.252.243-.569.364-.952.364z" fill="#E88D67"/><defs><linearGradient id="paint0_linear" x1="1372.45" y1="309.458" x2="1372.45" y2="502.308" gradientUnits="userSpaceOnUse"><stop stop-color="#F5A484"/><stop offset="1" stop-color="#D06330"/></linearGradient><linearGradient id="paint1_linear" x1="1106.67" y1="256.594" x2="1106.67" y2="370.327" gradientUnits="userSpaceOnUse"><stop stop-color="#F5A484"/><stop offset="1" stop-color="#D06330"/></linearGradient><linearGradient id="paint2_linear" x1="431.345" y1="288.255" x2="431.345" y2="503.746" gradientUnits="userSpaceOnUse"><stop stop-color="#F5A484"/><stop offset="1" stop-color="#D06330"/></linearGradient><linearGradient id="paint3_linear" x1="896.443" y1="229.592" x2="896.443" y2="346.155" gradientUnits="userSpaceOnUse"><stop stop-color="#F5A484"/><stop offset="1" stop-color="#D06330"/></linearGradient></defs></svg>