<svg width="768" height="440" fill="none" xmlns="http://www.w3.org/2000/svg"><path d="M705.745 404.884c-4.501-8.591-22.802-15.497-30.986-17.065-43.704-8.34-89.475-7.189-133.728-7.039-48.205.15-94.209 7.873-142.013 11.443-24.868 1.852-51.137-1.485-76.056-2.352a10110.786 10110.786 0 01-123.078-5.004c-35.369-1.652-72.072 2.052-103.275 21.568-3.55 2.219-7.134 4.905-8.734 8.875-10.134 25.005 116.16 21.852 132.611 22.286 83.007 2.168 166.065 3.286 249.072 1.034 61.722-1.668 126.044-1.568 187.266-10.292 13.534-1.935 31.953-2.619 43.654-10.593 6.45-4.404 7.384-8.807 5.267-12.861z" fill="#F5F5F5"/><path d="M651.996 63.657c1.084 0 2.2.017 3.334.067" stroke="#D2E8F9" stroke-miterlimit="10"/><path d="M662.016 64.19c21.519 2.185 47.804 11.293 44.737 29.925-4.9 29.709-136.812 18.75-168.314 19.05-63.356.617-127.395.851-189.517 14.73-15.101 3.369-36.736 10.809-35.103 30.092.567 6.739 4.551 12.828 9.584 17.399 18.135 16.397 43.421 17.965 66.89 20.851 35.486 4.354 204.317-1.451 259.505 16.664 10.868 3.57 24.452 8.158 24.902 23.704 1.15 39.501-96.891 37.566-126.294 38.317-78.49 2.002-157.063 1.217-235.553-.334-63.439-1.251-127.061-2.369-190.384-6.455-23.602-1.535-62.222-1.985-80.223-19.717-10.068-9.909-11.385-27.941 4.533-37.149 11.218-6.489 44.121-3.653 56.789-4.738 38.303-3.303 26.719-26.556-4.317-29.525" stroke="#DBDBDB" stroke-miterlimit="10" stroke-dasharray="4.01 4.01"/><path d="M95.9 176.721c-1.083-.05-2.2-.083-3.334-.083" stroke="#D2E8F9" stroke-miterlimit="10"/><path d="M654.252 92.55l-10.101-53.463c-.6-3.203-4.433-4.538-6.9-2.42l-41.22 35.498c-2.467 2.119-1.701 6.122 1.366 7.19l51.321 17.965c3.067 1.068 6.134-1.584 5.534-4.77z" fill="#FDAB88"/><path d="M646.464 91.733c-.284 0-.584-.05-.867-.15l-42.204-14.78a2.637 2.637 0 01-1.717-1.984c-.166-.918.15-1.869.867-2.47l33.903-29.191a2.57 2.57 0 012.567-.484 2.637 2.637 0 011.717 1.985l8.317 43.972a2.65 2.65 0 01-.867 2.485c-.483.4-1.1.617-1.716.617zM605.66 74.068l39.887 13.962-7.851-41.553-32.036 27.591z" fill="#C16C44"/><path d="M628.137 73.784a1.597 1.597 0 01-1-1.952l4.184-14.696a2.49 2.49 0 013.2-1.635 2.48 2.48 0 011.484 3.27l-5.884 14.095a1.558 1.558 0 01-1.984.918zm.318 4.003c-.3.834-1.217 1.284-2.05.984-.834-.3-1.284-1.218-.984-2.052.3-.834 1.217-1.284 2.05-.984a1.599 1.599 0 01.984 2.052z" fill="#C16C44"/><path d="M89.37 158.656l-33.237-16.547c-1.983-.985-4.3.55-4.167 2.752l2.284 37.082c.133 2.219 2.617 3.453 4.467 2.219l30.936-20.518c1.867-1.234 1.7-4.004-.283-4.988z" fill="#FDAB88"/><path d="M85.718 162.557c-.117.15-.267.3-.433.417l-25.452 16.881a1.794 1.794 0 01-1.784.117 1.777 1.777 0 01-.983-1.485l-1.884-30.493a1.803 1.803 0 01.8-1.601 1.8 1.8 0 011.784-.117l27.336 13.612c.566.284.95.851.983 1.501a1.87 1.87 0 01-.367 1.168zm-26.435 14.93l24.052-15.948-25.82-12.861 1.768 28.809z" fill="#C16C44"/><path d="M68.397 165.128c-.483.317-1.134.2-1.467-.267l-6.267-8.34a1.71 1.71 0 01.433-2.419c.8-.534 1.9-.283 2.384.534l5.234 9.024c.3.501.166 1.151-.317 1.468zm2.303 1.485c.334.5.2 1.184-.316 1.534-.5.334-1.183.2-1.533-.317a1.11 1.11 0 01.316-1.534 1.117 1.117 0 011.534.317z" fill="#C16C44"/><path d="M112.392 233.423a2.768 2.768 0 000-5.538 2.768 2.768 0 000 5.538zm410.738-51.245a2.768 2.768 0 000-5.538 2.768 2.768 0 000 5.538zm-217.922-77.6a2.768 2.768 0 000-5.538 2.768 2.768 0 000 5.538zm-3.316 210.599a2.768 2.768 0 000-5.538 2.768 2.768 0 000 5.538z" stroke="#FFB288" stroke-miterlimit="10"/><path d="M366.375 149.351v6.255m3.118-3.12h-6.251m115.496-83.188v6.272m3.118-3.136h-6.251m176.957 165.858v6.272m3.118-3.136h-6.25" stroke="#FFB288" stroke-miterlimit="10" stroke-linecap="round" stroke-linejoin="round"/><path d="M422.577 417.392s-11.651 4.971-11.651 7.456c0 1.435 16.018-.617 16.985-1.585 1.55-1.551-.634-5.671-.634-5.671l-4.7-.2z" fill="#003A66"/><path d="M421.824 410.437l.75 7.173s.384 1.151 2.017 1.285c1.634.133 2.7-1.285 2.7-1.285l-.583-8.974" fill="#FFB288"/><path d="M442.18 246.01c4.233 17.098 2.667 25.772-3.551 38.667-3.767 43.354-6.383 86.524-11.451 128.794l-5.35.301c-12.168-41.153-23.352-102.673-21.918-158.905" fill="#003A66"/><path d="M439.545 251.883c1.55 3.97 1.933 8.44 1.8 12.661-.2 6.489-2.834 12.36-4.551 18.499-2.266 8.207-2.45 16.364-3.066 24.772-.967 13.161-1.967 26.306-2.967 39.467a42207.255 42207.255 0 01-4.951 64.356l-.15 1.918" stroke="#0061A6" stroke-width=".5" stroke-miterlimit="10"/><path d="M469.046 419.063s-11.651 4.971-11.651 7.457c0 1.435 16.018-.617 16.984-1.585 1.55-1.551-.633-5.671-.633-5.671l-4.7-.201z" fill="#003A66"/><path d="M468.293 412.107l.75 7.173s.383 1.151 2.017 1.285c1.633.133 2.7-1.285 2.7-1.285l-.583-8.974" fill="#FFB288"/><path d="M480.933 244.562c5.367 16.764 4.367 25.538-.983 38.816-.883 43.505-3.884 88.927-6.134 131.447h-5.5c-14.852-40.251-30.77-102.405-33.07-158.62" fill="#003A66"/><path d="M478.281 251.499s6.217 14.546-4.283 34.98c-1.217 19.284-1.834 128.328-1.834 128.328" stroke="#0061A6" stroke-width=".5" stroke-miterlimit="10"/><path d="M462.91 256.119c1.067 1.652 2.75 2.819 4.551 3.553 1.816.734 3.75 1.051 5.683 1.285 2.301.283 4.617.467 6.934.35m-16.418-2.469c1.984 1.801 4.517 2.902 7.117 3.503 2.601.6 5.284.717 7.951.751" stroke="#0061A6" stroke-width=".5" stroke-miterlimit="10"/><path d="M417.321 163.493c-18.535 32.278-38.486 61.503-50.304 96.784l-3.517-1.868c.9-32.762 11.518-80.403 25.452-110.079" fill="#FFB288"/><path d="M408.27 129.797s-5.734 1.618-12.485 6.105c-6.35 4.22-11.151 10.509-14.401 17.399-3.267 6.889-5.05 14.395-6.2 21.935 0 0 7.75 3.887 16.651 4.988 8.884 1.117 18.352 0 18.352 0" fill="#F0F0F0"/><path d="M394.439 148.879c-1.966 34.897-.466 70.812.417 104.758 0 0 12.168 3.236 41.704 3.236 29.436 0 48.704-8.975 48.704-8.975-5.701-34.896-10.234-77.7-24.202-106.425 0 0-15.768-17.015-31.303-17.715-3.133-.134-6.25 1.001-9.234 2.385-2.2 1.018-12.284 3.486-12.284 3.486l-13.802 19.25z" fill="#F0F0F0"/><path d="M394.278 151.982c-.766 6.706-.766 27.424-.766 27.424" stroke="#94C1F2" stroke-width=".5" stroke-miterlimit="10"/><path d="M423.668 264.612c49.371-5.471 70.073 57.133 81.307 81.421 26.569 57.416 126.811 51.011 172.498 51.011 59.839 0 67.155 2.943 92.426 12.581" stroke="url(#paint0_linear)" stroke-width="5" stroke-miterlimit="10" stroke-linecap="round" stroke-linejoin="round"/><path d="M440.683 267.449c0 25.422-19.219 40.752-35.654 40.752h-26.935v-81.504h26.935c16.435 0 35.654 15.33 35.654 40.752z" fill="#C16C44"/><path d="M426.801 267.449c0 24.838-14.701 44.955-32.819 44.955h-29.736v-89.927h29.736c18.118 0 32.819 20.134 32.819 44.972z" fill="url(#paint1_linear)"/><path opacity=".5" d="M433.386 242.878a843.4 843.4 0 00-18.784 26.656 4.512 4.512 0 002.3-1.201c0 .684-1.084 1.852-.117 2.286.95.433 1.95-.684 2.95-.384.934-.217 1.8-1.385 2.484-2.068-.3.7-.367 1.201-.417 1.568 6.551-2.553 12.418-8.675 17.518-13.596-1.25-4.987-3.317-9.441-5.934-13.261z" fill="#FDAE2B"/><path d="M366.378 312.402c18.126 0 32.82-20.127 32.82-44.955s-14.694-44.956-32.82-44.956c-18.126 0-32.819 20.128-32.819 44.956 0 24.828 14.693 44.955 32.819 44.955z" fill="#FDAB88"/><path d="M369.115 283.379c0 3.686-2.517 6.689-5.634 6.689-3.116 0-5.633-2.986-5.633-6.689 0-3.687 2.517-6.69 5.633-6.69 3.117 0 5.634 3.003 5.634 6.69zm0-31.876c0 3.686-2.517 6.689-5.634 6.689-3.116 0-5.633-2.986-5.633-6.689 0-3.687 2.517-6.69 5.633-6.69 3.117 0 5.634 3.003 5.634 6.69z" fill="#C16C44"/><path d="M470.053 174.636s2.084 21.235-7.401 38.9c-8.117 15.097-24.235 34.647-37.253 45.423l-3.133-.768c4.533-17.415 18.835-48.325 19.735-59.901.883-11.594.683-25.022.883-31.478" fill="#FFB288"/><path d="M429.773 123.741s17.469 1.201 27.603 9.759c14.468 12.227 16.601 36.181 16.601 41.736-4.367 4.721-13.934 4.971-20.902 4.971-6.967 0-12.051-3.336-12.051-3.336l-1.416-26.407" fill="#F0F0F0"/><path d="M423.541 255.606c-1.983.201-3.917 1.168-5.584 2.469-1.533 1.201-3.417 3.203-3.217 4.12.2.968 2.717-.884 3.017-.517.3.367-4.3 7.323-3.433 7.84.866.518 4.784-5.771 4.784-5.771s-3.801 6.722-2.334 6.872c1.233.117 4.6-6.238 4.6-6.238s-2.85 5.688-1.866 5.905c.983.217 3.617-5.455 3.617-5.455s-2.151 4.838-1.334 4.921c.417.033 2.534-2.369 3.434-5.288.866-2.869 1.9-5.371 1.1-7.606" fill="#FFB288"/><path d="M441.758 153.25v24.054" stroke="#94C1F2" stroke-width=".5" stroke-miterlimit="10"/><path d="M393.563 101.555a39.618 39.618 0 00-.133 3.136c.016 2.269.316 4.637 1.616 6.506a6.93 6.93 0 003.751 2.635c1.067.284 2.45.167 2.917-.834.166-.35.166-.751.166-1.151a30.82 30.82 0 00-2.216-11.36" fill="#26387A"/><path d="M419.926 103.739c-1.5-5.838-6.217-14.028-13.884-12.394-4.817 1.035-9.251 4.32-10.668 8.908-1.7 5.488 1.05 11.877 4.334 16.348 1.217 1.651 2.65 3.219 4.517 4.203 4.434 2.302 10.434.417 13.451-3.419 3.017-3.837 3.434-9.025 2.25-13.646z" fill="#FFB288"/><path d="M409.163 119.021l2.5 9.158-3.417 1.618s2.6 3.47 7.751 2.719c10.467-1.518 13.751-8.774 13.751-8.774l-5.901-.617-6.533-11.16" fill="#FFB288"/><path d="M425.03 97.35c-.733-4.02-3.6-7.422-7.084-9.54-6.201-3.77-15.018-4.07-20.518 1.117-3.134 2.952-8.785 13.428-2.034 15.497 2.117.65 4.284-.634 6.117-1.869l5.601-3.753c.666-.45 1.383-.917 2.183-.95 1.317-.05 2.417 1.084 2.884 2.318.467 1.234.5 2.586.817 3.87.216.901.616 1.835 1.4 2.352.783.5 2.033.35 2.433-.484.284-.584.084-1.267.067-1.918s.35-1.451 1-1.418c.233.017.45.134.633.267 1.634 1.268 1.101 3.82 1.634 5.805.067.267-.467 4.304-.3 4.504 5.2-1.168 5.684-12.911 5.167-15.797z" fill="#003A66"/><path d="M417.333 103.106c-.117-.733.583-1.417 1.334-1.501.75-.083 1.466.3 2.033.784.984.818 1.684 2.019 1.7 3.286.017 1.001-.383 1.969-.933 2.803-.367.567-.85 1.117-1.5 1.318-.834.266-1.75-.117-2.351-.751" fill="#FFB288"/><path d="M231.732 417.147s11.234 1.869 11.551 4.354c.183 1.418-15.751 3.103-16.835 2.269-1.733-1.335.4-6.322.4-6.322l4.884-.301z" fill="#003A66"/><path d="M230.834 410.242l.917 7.106s-.234 1.201-1.834 1.535c-1.6.333-2.85-.934-2.85-.934l-1.317-8.875" fill="#FFB288"/><path d="M188.809 248.201c-2.017 17.499-2.117 25.906 5.7 37.883 3.701 16.931 9.385 34.246 13.685 51.578-1.85 20.701 11.118 53.663 18.085 77.2l5.034-.867c6.784-42.37 9.284-107.36 3.2-164.242" fill="#003A66"/><path d="M192.098 271.905s19.335 61.437 19.335 64.773c0 3.336.533 14.813 1.383 22.236 1.567 13.628 13.901 53.78 13.901 53.78" stroke="#0061A6" stroke-width=".5" stroke-miterlimit="10"/><path d="M226.108 415.829l-.784-3.069 6.501-.234.1 2.819-5.817.484z" fill="#0061A6"/><path d="M144.31 417.498s8.801 6.356 8.018 8.591c-.45 1.284-14.752-4.02-15.318-5.188-.917-1.868 3.017-5.238 3.017-5.238l4.283 1.835z" fill="#003A66"/><path d="M146.467 411.242l-2.217 6.456s-.7.918-2.216.534c-1.501-.384-2.034-2.002-2.034-2.002l2.617-8.124" fill="#FFB288"/><path d="M151.045 244.564c-5.368 16.765-4.368 25.539.983 38.817.317 15.897.483 31.961.667 48.042-11.318 28.341-13.101 53.763-11.668 80.753l5.45 2.019s32.487-56.666 38.454-79.052c6.85-25.689 10.734-53.163 11.801-78.935" fill="#003A66"/><path d="M152.379 248.2s-5.918 17.315 1.833 33.996c0 4.654 2.667 43.371 1.617 49.343-.5 2.869-5.817 16.548-9.368 29.876-3.917 14.729-4.75 49.476-4.75 49.476" stroke="#0061A6" stroke-width=".5" stroke-miterlimit="10"/><path d="M140 412.177l.867-3.654 6.984 3.253-1.384 3.12-6.467-2.719z" fill="#0061A6"/><path d="M241.887 115.02l-4.384-3.737v-7.74c0-1.201-1.633-8.407-3.1-8.407s-1.8-1.802-2.533-1.068c-.734.734.6 8.875 0 9.475-.601.601-1.384-3.87-1.934-3.319-.55.55-.6 3.836-.6 5.504 0 1.669 1.333 4.771 2.667 6.089 1.333 1.335 7.2 7.69 7.2 7.69l2.684-4.487z" fill="#EF9467"/><path d="M239.709 112.549l-3.651 4.17s14.452 19.15 19.035 25.556c-4.167-1.468-10.167-5.138-13.634-7.407-6.801-4.454-13.618-6.822-18.318-6.822-10.018 0-4.767 33.011 6.834 37.849 22.018 3.319 46.72 1.218 50.487-6.539 5.601-11.493-26.685-38.533-40.753-46.807z" fill="#E9E9E9"/><path d="M255.07 142.261s2.751 7.706 7.651 10.209" stroke="#94C1F2" stroke-width=".5" stroke-miterlimit="10"/><path d="M172.532 136.772c-26.252 29.508-25.852 80.252-25.852 114.749 0 0 19.268 13.161 48.704 13.161 29.553 0 41.704-7.256 41.704-7.256.883-34.947-5.351-50.01.417-107.81 0 0-9.401-21.569-14.402-21.569-5.017 0-24.602-1.935-24.602-1.935l-25.969 10.66z" fill="#EBEBEB"/><path d="M236.074 166.663s.6-10.092 3.05-12.544" stroke="#94C1F2" stroke-width=".5" stroke-miterlimit="10"/><path d="M207.182 103.977c.984-5.955 5.217-14.463 13.001-13.495 4.884.6 8.668 3.987 11.401 7.94 2.35 3.386 1.467 6.639-1.883 15.23-1.067 1.752-3.367 4.888-5.134 6.022-4.217 2.686-10.351 1.334-13.701-2.219-3.35-3.553-4.451-8.774-3.684-13.478z" fill="#FFB288"/><path d="M208.236 103.244c1.117-.167 0-.901.5.117.317.65.417.85 1.05 1.051.617.2.634.784 1.15 1.167.817.601 1.5-.217 1.834-.917.633-1.285.616-2.853.466-4.237-.116-1.101-.483-2.836.584-3.603.883-.618 2.817.283 3.717.55 1.4.4 2.783.85 4.167 1.284 3.35 1.018 6.9 1.919 10.417 1.452 3.084-.417 6.268-2.019 7.751-4.888 1.767-3.42-1.767-7.907-5.367-7.907-.95 0-1.834.384-2.767.568-.333.066-.7.116-1.033.016-.784-.233-1.134-1.117-1.584-1.801-1.333-2.085-3.617-2.72-5.967-2.452-2.667.3-4.95 1.568-7.501 2.268-1.35.367-2.517.017-3.85.067-1.383.05-2.817.95-3.434 2.235-1.083-1.134-3.517 1.652-4.133 2.402-2.667 3.236-3.501 7.907-3.567 12.011-.067 3.586.533 8.791 4.45 10.242 1.667.617 2.7.934 2.784-.584-.734-1.585-.9-4.704-1.05-6.022-.15-1.318.233-2.886 1.45-3.403" fill="#003A66"/><path d="M221.002 118.19l-.85 8.991 2.95.834s-1.567 4.037-6.717 4.721c-10.484 1.401-17.885-6.656-17.885-6.656l3.5-.684 5.301-16.714" fill="#FFB288"/><path d="M209.985 103.176c.05-.751-.716-1.368-1.45-1.385-.75-.016-1.433.417-1.967.951-2.933 2.919.751 10.042 3.651 6.356" fill="#FFB288"/><path d="M229.734 113.484c-.467 1.101-2.333 1.552-3.35 1.652-4.934.55-9.018-2.653-13.735-3.236-.933-.117-2-.201-2.7.433-.667.601-.717 1.602-.733 2.486-.017 1.101-.034 2.218.066 3.303.084.95.267 1.918.767 2.735 2.134 3.553 9.251 4.154 12.851 3.937 1.45-.083 2.967-.367 4.117-1.234 1.617-1.218 1.967-3.37 2.584-5.255.717-2.285.133-4.821.133-4.821z" fill="#003A66"/><path d="M226.237 117.355c-.15-.1-.334-.183-.517-.183-2.3 0-3.584-.551-5.367-.701-.3-.017-.617-.05-.917.05-.633.2-1 .851-1.133 1.501-.134.651.2 1.151.783 1.435 1.067.534 2.267.717 3.45.751 1.034.033 2.384.116 3.234-.584.467-.384 1.183-1.735.467-2.269z" fill="#FFB288"/><path d="M204.549 247.619c-57.355-3.002-99.19 45.024-120.684 83.742-15.308 27.576-45.614 47.446-84.592 61.57" stroke="url(#paint2_linear)" stroke-width="5" stroke-miterlimit="10" stroke-linecap="round" stroke-linejoin="round"/><path d="M182.55 252.291c2.117 25.322 22.536 39.017 38.904 37.649l26.852-2.235-6.767-81.221-26.853 2.236c-16.368 1.368-34.253 18.249-32.136 43.571z" fill="#C16C44"/><path d="M196.38 251.14c2.067 24.755 18.368 43.587 36.437 42.07l29.619-2.469-7.467-89.611-29.62 2.469c-18.051 1.518-31.036 22.803-28.969 47.541z" fill="url(#paint3_linear)"/><path d="M260.307 290.91c18.062-1.507 31.034-22.786 28.972-47.528-2.062-24.741-18.375-43.576-36.438-42.068-18.062 1.507-31.033 22.786-28.971 47.527 2.061 24.742 18.375 43.576 36.437 42.069z" fill="#FDAB88"/><path d="M255.187 262.217c.3 3.669 3.067 6.455 6.167 6.188 3.1-.267 5.351-3.453 5.051-7.122-.3-3.67-3.067-6.456-6.168-6.189-3.1.267-5.35 3.453-5.05 7.123zm-2.641-31.747c.3 3.669 3.067 6.455 6.167 6.188 3.101-.25 5.351-3.453 5.051-7.123-.3-3.669-3.067-6.455-6.167-6.188-3.084.25-5.351 3.436-5.051 7.123z" fill="#C16C44"/><path d="M259.083 234.624c3.367-.284 41.87-3.503 41.87-3.503 2.551-.217 4.451-2.486 4.234-5.055-.217-2.585-2.467-4.503-5.017-4.287 0 0-38.67 3.237-41.87 3.503-3.201.267-2.601 9.625.783 9.342zm2.635 31.76c3.367-.284 41.871-3.503 41.871-3.503 2.55-.217 4.45-2.486 4.233-5.055-.217-2.585-2.467-4.504-5.017-4.287l-41.87 3.503c-3.201.25-2.584 9.625.783 9.342z" fill="#E2E8ED"/><path d="M158.546 174.64s-2.084 21.235 7.4 38.9c8.118 15.097 24.236 34.647 37.254 45.423l3.133-.768c-4.534-17.415-18.835-48.325-19.735-59.901-.883-11.594-.683-25.022-.883-31.478" fill="#FFB288"/><path d="M198.516 126.097s-18.401 1.067-28.985 9.058c-18.302 13.828-14.702 50.994-9.384 69.143 5.333 18.165 30.952 45.422 39.236 51.294 1.35 0 5.334-.334 5.201-3.47-4.584-14.162-17.635-51.411-17.635-51.411l2.067-50.26" fill="#ECECEC"/><path d="M205.071 255.608c1.984.201 3.917 1.168 5.584 2.469 1.533 1.201 3.417 3.203 3.217 4.12-.2.968-2.717-.884-3.017-.517-.3.367 4.3 7.323 3.434 7.84-.867.518-4.784-5.771-4.784-5.771s3.8 6.722 2.333 6.872c-1.233.117-4.6-6.238-4.6-6.238s2.85 5.688 1.867 5.905c-.984.217-3.617-5.455-3.617-5.455s2.15 4.838 1.333 4.921c-.416.033-2.533-2.369-3.433-5.288-.867-2.869-1.901-5.371-1.1-7.607" fill="#FFB288"/><path d="M192.096 215.54c-2.934-8.457-5.151-14.796-5.151-14.796l3.867-42.186M155.927 168.8c-.1 11.443 1.267 25.539 4.2 35.531 2.567 8.74 9.835 19.6 17.602 29.141" stroke="#94C1F2" stroke-width=".5" stroke-miterlimit="10"/><path d="M549.562 106.659l2.951-2.018s1.367-6.439 2.133-7.607c.8-1.217 2.317-3.753 4.051-4.92.716-.484 4.017-2.353 4.85-1.519.417.417-.983 4.137-1.617 4.771-.633.634-2.517 3.503-2.217 4.387.3.901 1.851-1.067 2.217-1.434.367-.367.867-.834 1.034-.35.283.8-1.384 5.287-2.684 6.588-1.3 1.302-3.417 2.536-4.884 2.536l-4.6 4.054" fill="#FFB288"/><path d="M585.198 85.457c4.9 2.886 7.917 8.324 9.1 13.762.217.984.384 2.035 1.067 2.769.534.584 1.3.884 2.034 1.217 4.05 1.885 7.167 5.555 8.584 9.776.616 1.801.133 4.337.833 5.871.867 1.885 4.067 2.302 5.784 2.886 5.15 1.702 8.917 6.889 8.984 12.311.05 5.421-3.617 10.676-8.717 12.494 1.367 1.918 1.567 4.52.933 6.806-.633 2.285-2.017 4.287-3.584 6.055-6.483 7.323-16.468 11.243-26.235 10.826-2.817-.117-5.634-.584-8.251-1.651-2.95-1.201-5.55-3.153-8.034-5.138-3-2.402-6-5.038-7.617-8.541-1.617-3.486-1.517-8.057 1.233-10.759-3.167.667-6.55-1.068-8.334-3.77-1.783-2.702-2.1-6.189-1.383-9.358.716-3.153 2.383-6.022 4.317-8.624 1.367-1.819 2.917-3.67 3.217-5.922.483-3.77-1.617-7.123-2.167-10.876-.85-5.822-.583-10.843 4.4-13.929 1.6-4.154 3.534-7.356 8.118-8.574 5.433-1.451 10.851-.517 15.718 2.369z" fill="#003A66"/><path d="M573.213 129.729c-16.635-4.354-35.654 2.519-39.904 2.502 5.801-5.805 16.468-18.75 20.152-23.22 0-3.069-1.867-3.937-1.867-3.937s-45.604 23.604-41.02 39.017c4.784 16.081 49.471 8.191 53.038 12.811" fill="#F0F0F0"/><path d="M576.469 279.508c-.05 1.368-6 30.66-6.45 33.813-1.284 9.158 3.55 18.349 3.083 32.545-.566 17.265-7.9 63.638-8.834 65.707-.933 2.051-5.4.166-5.4.166s-12.885-62.22-13.618-87.692c-.6-20.968 2.45-66.358 2.45-66.358" fill="#FFB288"/><path d="M564.733 412.355s.75 1.568.716 2.286c-.1 1.935-.15 3.253-.15 3.253l-.833.05-.283-1.585s-2.234.384-4.501 1.885c-1.1.717-6.634.65-7.484.2-.95-.5-.683-1.418-.366-1.785.316-.367 6.3-2.986 6.3-2.986" fill="#26387A"/><path d="M558.885 411.723c-.483 1.167-5.2 3.736-4.767 4.086.433.351 3.184.367 6.234-.65 2.783-.918 4.35-1.952 4.433-2.686l-.533-1.952m53.605-129.794c-.017 1.368-5.067 30.826-5.417 33.996-1 9.191 4.117 18.232 4.084 32.428-.05 17.265-5.968 63.855-6.834 65.94-.867 2.085-5.401.334-5.401.334s-14.784-61.804-16.284-87.226c-1.234-20.951.416-66.407.416-66.407" fill="#FFB288"/><path d="M610.169 413.874s.8 1.551.784 2.269c-.034 1.935-.067 3.252-.067 3.252l-.833.084-.334-1.568s-2.217.45-4.433 2.018c-1.084.751-6.601.868-7.468.434-.966-.467-.716-1.385-.416-1.768.3-.384 6.2-3.17 6.2-3.17" fill="#26387A"/><path d="M604.288 413.423c-.45 1.185-5.083 3.904-4.65 4.237.45.334 3.184.267 6.2-.834 2.751-1 4.284-2.085 4.351-2.819l-.584-1.935" fill="#FFB288"/><path d="M602.814 205.361s13.217 8.658 18.251 29.442c6.784 28.024-3.217 82.889-3.217 82.889s-20.702 6.055-43.203 5.855c-22.502-.184-35.837-7.807-35.887-9.158-.05-1.368-3.35-42.904 1.217-71.078 5.134-31.628 18.218-40.152 18.218-40.152" fill="#003A66"/><path d="M584.904 129.196c2.05-.768 7.368 1.1 17.318 4.92 4.368 4.738 6.284 15.097 7.234 24.288-2.583 22.336-5.467 34.547-4.067 42.087.334 1.784 1.967 3.136 1.701 5.638-.534 5.154-8.968 5.938-24.969 7.756-16.002 1.819-30.403-5.454-29.553-7.723.867-2.268 3.6-4.27 4.034-5.772.433-1.501 1.733-20.651.017-22.919-1.734-2.269-6.201-8.808-6.201-15.18 0-8.958 4.934-12.978 8.151-17.899 5.383-8.207 9.45-13.345 14.668-14.646 8.317-2.085 11.667-.55 11.667-.55z" fill="#F0F0F0"/><path d="M557.97 140.521s.584 3.837-1.383 7.057c-.6.984-4.234 4.687-4.95 7.056" stroke="#6CB1EF" stroke-width=".5" stroke-miterlimit="10"/><path d="M581.059 118.287c4.367-4.337 5.067-12.578 3.067-18.149-2.234-6.272-11.168-10.96-17.302-7.04-12.051 7.707.183 39.168 14.235 25.189z" fill="#FFB288"/><path d="M572.746 117.519l.233 13.412s-.5 2.986 4.734 3.169c7.184.25 7.184-4.904 7.184-4.904l-4.15-13.812" fill="#FFB288"/><path d="M578.173 87.174c-1.484-.967-3.05-1.017-4.584-.116-.933.55-1.583 1.468-2.583 1.918-.7.317-1.551.367-2.284.567-3.484.951-6.784 3.603-8.251 6.923-1.483 3.336-1 8.774 1.767 11.159-.117-2.585.65-6.288 2.034-8.49.716-1.151 1.866-2.285 3.2-2.119 1.517.167 2.333 1.785 3.417 2.853 1.65 1.601 4.017 1.935 6.2 2.268 2.467.367 4.368.801 5.584 3.237.534 1.05.817 2.218 1.1 3.352.334 1.368.667 2.736.75 4.121.05.867 0 1.768.267 2.585.55 1.652 2.217 2.653 3.867 3.203 1.267.434 3.4.817 4.2-.617.667-1.201 1.234-2.886 1.467-4.237.767-4.504-.666-9.175-3.1-13.045-2.667-4.237-6.451-7.09-9.884-10.626-1-1.05-2.034-2.185-3.167-2.936z" fill="#003A66"/><path d="M581.543 107.81c.267-1.018 1.017-2.069 2.067-2.219 3.417-.517 2.9 4.588 1.583 6.372-.766 1.051-2.75 2.403-3.65-.483m36.194 100.736l-1.601 3.436s-6.05 1.435-6.7 2.502c-1.017 1.685-2.534 4.02-2.534 5.338 0 1.335.134 7.14 1.784 7.14 1.033 0 3.483-4.754 3.983-5.405 1.184-1.568 5.984-2.702 5.984-6.839l2.934-6.189" fill="#FFB288"/><path d="M584.902 129.012s14.135-3.603 25.169 3.369c8.584 5.422 30.67 32.378 30.67 47.825 0 10.409-20.652 36.198-20.652 36.198l-3.434-2.452s2-20.268 8.001-31.444c-4.434-4.437-21.685-18.199-26.036-22.536" fill="#F0F0F0"/><path d="M596.383 158.57c3.083 2.753 11.217 9.292 11.217 9.292" stroke="#6CB1EF" stroke-width=".5" stroke-miterlimit="10"/><path d="M194.256 97.222l-31.554-19.429s14.206-40.012-4.591-53.984c-9.984-7.433-22.649-12.514-35.683-16.3C93.37-.914 58.673-2.819 32.789 10.306 13.684 19.975 2.098 36.558-3.11 53.588-7.67 68.596-7.3 85.65 4.994 97.858c5.516 5.48 13.066 9.62 21.108 12.819 24.99 9.997 91.026 13.761 119.714-.894 7.95-4.069 7.241-9.55 10.569-18.135l37.871 5.575z" fill="#F8F8F8"/><path d="M43.584 36.4h-1.568v3.948h-2.254v-9.8h2.254v3.962h1.624l2.576-3.962h2.394l-3.206 4.732 3.304 5.068h-2.576L43.584 36.4zm9.013-3.696c1.167 0 2.063.28 2.688.84.625.55.938 1.386.938 2.506v4.298H54.18v-.938c-.41.7-1.176 1.05-2.296 1.05-.579 0-1.083-.098-1.512-.294a2.251 2.251 0 01-.966-.812 2.114 2.114 0 01-.336-1.176c0-.7.261-1.251.784-1.652.532-.402 1.349-.602 2.45-.602h1.736c0-.476-.145-.84-.434-1.092-.29-.262-.723-.392-1.302-.392a3.74 3.74 0 00-1.19.196c-.383.121-.71.289-.98.504l-.784-1.526c.41-.29.9-.514 1.47-.672a6.691 6.691 0 011.778-.238zm-.168 6.286c.373 0 .705-.084.994-.252.29-.178.495-.434.616-.77v-.77h-1.498c-.896 0-1.344.294-1.344.882 0 .28.107.504.322.672.224.158.527.238.91.238zm9.01-1.498h-1.135v2.856H58.12v-7.532h2.184v2.926h1.176l2.044-2.926h2.324l-2.632 3.612 2.814 3.92h-2.576l-2.016-2.856zm17.09 0h-1.05v2.856h-2.156v-2.856h-1.05l-1.596 2.856h-2.576l2.367-3.892-2.199-3.64h2.31l1.667 2.926h1.078v-2.926h2.156v2.926h1.063l1.68-2.926h2.31l-2.198 3.64 2.38 3.892h-2.59l-1.596-2.856zm12.411-.882c0 .028-.014.224-.042.588H85.2c.103.466.346.835.728 1.106.383.27.859.406 1.428.406.392 0 .738-.056 1.036-.168.308-.122.593-.308.854-.56l1.162 1.26c-.709.812-1.745 1.218-3.108 1.218-.849 0-1.6-.164-2.254-.49a3.69 3.69 0 01-1.512-1.386c-.354-.588-.532-1.256-.532-2.002 0-.738.173-1.4.518-1.988a3.675 3.675 0 011.442-1.386 4.227 4.227 0 012.058-.504c.738 0 1.405.158 2.002.476a3.416 3.416 0 011.4 1.372c.346.588.518 1.274.518 2.058zm-3.906-2.254c-.494 0-.91.14-1.246.42-.336.28-.541.662-.616 1.148h3.71c-.074-.476-.28-.854-.616-1.134-.336-.29-.746-.434-1.232-.434zm16.895 5.992V35.84l-2.254 3.78h-.924l-2.198-3.794v4.522H96.58v-7.532h2.282l2.408 4.354 2.562-4.354h2.044l.028 7.532h-1.974zm4.066-7.532h2.17v2.94h3.276v-2.94h2.184v7.532h-2.184v-2.814h-3.276v2.814h-2.17v-7.532zm17.043 3.794c0 .028-.014.224-.042.588h-5.698c.103.466.345.835.728 1.106.383.27.859.406 1.428.406.392 0 .737-.056 1.036-.168a2.6 2.6 0 00.854-.56l1.162 1.26c-.709.812-1.745 1.218-3.108 1.218-.849 0-1.601-.164-2.254-.49a3.694 3.694 0 01-1.512-1.386c-.355-.588-.532-1.256-.532-2.002 0-.738.173-1.4.518-1.988a3.675 3.675 0 011.442-1.386 4.227 4.227 0 012.058-.504c.737 0 1.405.158 2.002.476a3.418 3.418 0 011.4 1.372c.345.588.518 1.274.518 2.058zm-3.906-2.254c-.495 0-.91.14-1.246.42-.336.28-.541.662-.616 1.148h3.71c-.075-.476-.28-.854-.616-1.134-.336-.29-.747-.434-1.232-.434zM63.02 51.608h-2.548v5.74h-2.17v-5.74h-2.548v-1.792h7.266v1.792zm8.171 2.002c0 .028-.014.224-.042.588h-5.698c.103.466.346.835.728 1.106.383.27.859.406 1.428.406.392 0 .738-.056 1.036-.168.308-.122.593-.308.854-.56l1.162 1.26c-.709.812-1.745 1.218-3.108 1.218-.849 0-1.6-.164-2.254-.49a3.69 3.69 0 01-1.512-1.386c-.354-.588-.532-1.256-.532-2.002 0-.738.173-1.4.518-1.988a3.675 3.675 0 011.442-1.386 4.227 4.227 0 012.058-.504c.738 0 1.405.158 2.002.476a3.416 3.416 0 011.4 1.372c.346.588.518 1.274.518 2.058zm-3.906-2.254c-.494 0-.91.14-1.246.42-.336.28-.541.662-.616 1.148h3.71c-.074-.476-.28-.854-.616-1.134-.336-.29-.746-.434-1.232-.434zm13.07-1.54v7.532h-2.184v-5.74h-3.136v5.74h-2.17v-7.532h7.49zm9.416 3.794c0 .028-.014.224-.042.588h-5.698c.103.466.346.835.728 1.106.383.27.859.406 1.428.406.392 0 .738-.056 1.036-.168.308-.122.593-.308.854-.56l1.162 1.26c-.709.812-1.745 1.218-3.108 1.218-.849 0-1.6-.164-2.254-.49a3.694 3.694 0 01-1.512-1.386c-.354-.588-.532-1.256-.532-2.002 0-.738.173-1.4.518-1.988a3.674 3.674 0 011.442-1.386 4.227 4.227 0 012.058-.504c.738 0 1.405.158 2.002.476a3.416 3.416 0 011.4 1.372c.346.588.518 1.274.518 2.058zm-3.906-2.254c-.494 0-.91.14-1.246.42-.336.28-.541.662-.616 1.148h3.71c-.074-.476-.28-.854-.616-1.134-.336-.29-.746-.434-1.232-.434zm10.019-1.652c.7 0 1.334.163 1.903.49.58.317 1.032.77 1.358 1.358.327.578.49 1.255.49 2.03 0 .774-.163 1.456-.49 2.044a3.518 3.518 0 01-1.358 1.358 3.844 3.844 0 01-1.904.476c-.96 0-1.717-.304-2.267-.91v3.514h-2.184V49.816h2.085v.868c.542-.654 1.33-.98 2.367-.98zm-.379 5.964c.56 0 1.018-.187 1.373-.56.364-.383.546-.892.546-1.526 0-.635-.183-1.139-.547-1.512-.354-.383-.811-.574-1.371-.574-.56 0-1.022.191-1.386.574-.355.373-.532.877-.532 1.512 0 .634.177 1.143.532 1.526.364.373.825.56 1.385.56zm9.735-3.444c.98.009 1.731.233 2.254.672.523.429.784 1.04.784 1.834 0 .83-.294 1.479-.882 1.946-.579.457-1.395.686-2.45.686l-3.78-.014v-7.532h2.17v2.408h1.904zm-.49 3.584c.42.009.742-.08.966-.266.224-.187.336-.467.336-.84 0-.364-.112-.63-.336-.798-.215-.168-.537-.257-.966-.266l-1.414-.014v2.184h1.414zm-49.632 14.62c.448.14.793.354 1.036.644.252.289.378.634.378 1.036 0 .476-.164.896-.49 1.26-.327.354-.775.63-1.344.826-.57.196-1.214.294-1.932.294a8.326 8.326 0 01-1.736-.182 6.6 6.6 0 01-1.582-.546l.588-1.526c.793.382 1.67.574 2.632.574.513 0 .914-.075 1.204-.224.298-.159.448-.378.448-.658a.594.594 0 00-.308-.546c-.206-.131-.504-.196-.896-.196h-1.54v-1.358h1.344c.382 0 .676-.061.882-.182a.583.583 0 00.308-.532c0-.243-.131-.43-.392-.56-.252-.131-.616-.196-1.092-.196-.728 0-1.522.172-2.38.518l-.532-1.512c1.045-.458 2.062-.686 3.052-.686.68 0 1.288.084 1.82.252.54.168.966.415 1.274.742.308.317.462.69.462 1.12 0 .354-.108.676-.322.966-.215.28-.51.504-.882.672zm5.928-3.724c1.167 0 2.063.28 2.688.84.626.55.938 1.386.938 2.506v4.298h-2.044v-.938c-.41.7-1.176 1.05-2.296 1.05-.578 0-1.082-.098-1.512-.294a2.251 2.251 0 01-.966-.812 2.114 2.114 0 01-.336-1.176c0-.7.262-1.251.784-1.652.532-.402 1.349-.602 2.45-.602h1.736c0-.476-.144-.84-.434-1.092-.29-.262-.723-.392-1.302-.392a3.74 3.74 0 00-1.19.196c-.382.121-.71.289-.98.504l-.784-1.526c.41-.29.9-.514 1.47-.672a6.691 6.691 0 011.778-.238zm-.168 6.286c.374 0 .705-.084.994-.252.29-.178.495-.434.616-.77v-.77H60.99c-.896 0-1.344.294-1.344.882 0 .28.108.504.322.672.224.158.528.238.91.238zm9.01-1.498h-1.135v2.856H66.57v-7.532h2.184v2.926h1.175l2.044-2.926h2.325l-2.633 3.612 2.814 3.92h-2.576l-2.016-2.856zm8.453-4.788c1.167 0 2.063.28 2.688.84.626.55.938 1.386.938 2.506v4.298h-2.044v-.938c-.41.7-1.176 1.05-2.296 1.05-.578 0-1.082-.098-1.512-.294a2.251 2.251 0 01-.966-.812 2.114 2.114 0 01-.336-1.176c0-.7.261-1.251.784-1.652.532-.402 1.349-.602 2.45-.602h1.736c0-.476-.145-.84-.434-1.092-.29-.262-.723-.392-1.302-.392a3.74 3.74 0 00-1.19.196c-.382.121-.71.289-.98.504l-.784-1.526c.41-.29.9-.514 1.47-.672a6.692 6.692 0 011.778-.238zm-.168 6.286c.373 0 .705-.084.994-.252a1.45 1.45 0 00.616-.77v-.77h-1.498c-.896 0-1.344.294-1.344.882 0 .28.108.504.322.672.224.158.527.238.91.238zm10.51-2.562c.447.14.792.354 1.035.644.252.289.378.634.378 1.036 0 .476-.163.896-.49 1.26-.327.354-.775.63-1.344.826-.57.196-1.213.294-1.932.294a8.326 8.326 0 01-1.736-.182 6.599 6.599 0 01-1.582-.546l.588-1.526c.793.382 1.67.574 2.632.574.513 0 .915-.075 1.204-.224.299-.159.448-.378.448-.658a.594.594 0 00-.308-.546c-.205-.131-.504-.196-.896-.196h-1.54v-1.358h1.344c.383 0 .677-.061.882-.182a.583.583 0 00.308-.532c0-.243-.13-.43-.392-.56-.252-.131-.616-.196-1.092-.196-.728 0-1.521.172-2.38.518l-.532-1.512c1.045-.458 2.063-.686 3.052-.686.681 0 1.288.084 1.82.252.541.168.966.415 1.274.742.308.317.462.69.462 1.12 0 .354-.107.676-.322.966-.215.28-.509.504-.882.672zm5.928-3.724c1.166 0 2.062.28 2.688.84.625.55.938 1.386.938 2.506v4.298h-2.044v-.938c-.41.7-1.176 1.05-2.296 1.05-.579 0-1.083-.098-1.512-.294a2.251 2.251 0 01-.966-.812 2.114 2.114 0 01-.336-1.176c0-.7.261-1.251.784-1.652.532-.402 1.348-.602 2.45-.602h1.736c0-.476-.145-.84-.434-1.092-.29-.262-.724-.392-1.302-.392a3.74 3.74 0 00-1.19.196c-.383.121-.71.289-.98.504l-.784-1.526c.41-.29.9-.514 1.47-.672a6.693 6.693 0 011.778-.238zm-.168 6.286c.373 0 .704-.084.994-.252a1.45 1.45 0 00.616-.77v-.77h-1.498c-.896 0-1.344.294-1.344.882 0 .28.107.504.322.672.224.158.527.238.91.238zm12.019-4.382h-2.548v5.74h-2.17v-5.74h-2.548v-1.792h7.266v1.792zm5.238.616c.98.009 1.731.233 2.254.672.523.429.784 1.04.784 1.834 0 .83-.294 1.479-.882 1.946-.579.457-1.395.686-2.45.686l-3.78-.014v-7.532h2.17v2.408h1.904zm-.49 3.584c.42.009.742-.08.966-.266.224-.187.336-.467.336-.84 0-.364-.112-.63-.336-.798-.215-.168-.537-.257-.966-.266l-1.414-.014v2.184h1.414zM58.977 88.492h-1.134v2.856H55.66v-7.532h2.184v2.926h1.176l2.044-2.926h2.324l-2.632 3.612 2.814 3.92h-2.576l-2.016-2.856zm12.787-4.676l-3.402 7.994c-.345.868-.775 1.479-1.288 1.834-.504.354-1.115.532-1.834.532a3.83 3.83 0 01-1.162-.182 2.568 2.568 0 01-.938-.504l.798-1.554a1.898 1.898 0 001.232.476c.299 0 .541-.075.728-.224.187-.14.355-.378.504-.714l.028-.07-3.262-7.588h2.254l2.114 5.11 2.128-5.11h2.1zm5.362 7.532l-1.652-2.31-1.708 2.31h-2.38l2.898-3.794-2.8-3.738h2.45l1.596 2.198 1.638-2.198h2.324l-2.8 3.682 2.912 3.85h-2.478zm3.553-7.532h2.17v2.94h3.276v-2.94h2.184v7.532h-2.184v-2.814h-3.276v2.814h-2.17v-7.532zm16.847-.112c.765 0 1.45.168 2.058.504a3.614 3.614 0 011.428 1.372c.345.588.518 1.255.518 2.002 0 .746-.173 1.414-.518 2.002a3.714 3.714 0 01-1.428 1.386c-.607.326-1.293.49-2.058.49-.663 0-1.27-.122-1.82-.364a3.747 3.747 0 01-1.372-1.05 3.672 3.672 0 01-.728-1.568H92.57v2.87H90.4v-7.532h2.17v2.772h1.05c.214-.878.672-1.578 1.372-2.1.7-.523 1.544-.784 2.534-.784zm0 5.964c.532 0 .97-.187 1.316-.56.354-.383.532-.892.532-1.526 0-.644-.178-1.153-.532-1.526-.346-.374-.784-.56-1.316-.56-.542 0-.99.186-1.344.56-.346.373-.518.882-.518 1.526 0 .634.172 1.143.518 1.526.354.373.802.56 1.344.56zm6.893-1.722c0-.486.107-.887.322-1.204.224-.318.546-.668.966-1.05.308-.28.532-.514.672-.7.149-.196.224-.416.224-.658a.937.937 0 00-.42-.812c-.271-.206-.635-.308-1.092-.308-.439 0-.831.093-1.176.28a2.44 2.44 0 00-.854.756l-1.694-.994a3.929 3.929 0 011.582-1.386c.672-.327 1.465-.49 2.38-.49 1.073 0 1.932.228 2.576.686.653.457.98 1.092.98 1.904 0 .382-.066.718-.196 1.008a2.61 2.61 0 01-.462.742c-.178.196-.411.424-.7.686-.346.308-.598.569-.756.784a1.197 1.197 0 00-.238.756h-2.114zm1.064 3.514c-.383 0-.705-.122-.966-.364a1.24 1.24 0 01-.378-.91c0-.355.126-.649.378-.882.252-.243.574-.364.966-.364s.714.121.966.364c.252.233.378.527.378.882 0 .354-.131.658-.392.91-.252.242-.57.364-.952.364z" fill="#E88D67"/><defs><linearGradient id="paint0_linear" x1="596.783" y1="264.275" x2="596.783" y2="409.625" gradientUnits="userSpaceOnUse"><stop stop-color="#F5A484"/><stop offset="1" stop-color="#D06330"/></linearGradient><linearGradient id="paint1_linear" x1="395.524" y1="222.477" x2="395.524" y2="312.404" gradientUnits="userSpaceOnUse"><stop stop-color="#F5A484"/><stop offset="1" stop-color="#D06330"/></linearGradient><linearGradient id="paint2_linear" x1="101.911" y1="247.485" x2="101.911" y2="392.931" gradientUnits="userSpaceOnUse"><stop stop-color="#F5A484"/><stop offset="1" stop-color="#D06330"/></linearGradient><linearGradient id="paint3_linear" x1="229.3" y1="201.13" x2="229.3" y2="293.295" gradientUnits="userSpaceOnUse"><stop stop-color="#F5A484"/><stop offset="1" stop-color="#D06330"/></linearGradient></defs></svg>