<svg width="22" height="21" xmlns="http://www.w3.org/2000/svg"><path d="M.654 10.326l5.135 2.681a.632.632 0 00.623-.02l4.571-2.785-2.766 2.569a.703.703 0 00-.222.515v6.256c0 .66.804.938 1.181.414l2.22-3.092 5.49 3.275c.385.232.879-.001.968-.462l3.424-17.875c.102-.537-.408-.975-.882-.776L.708 9.07c-.528.217-.562.991-.054 1.256zm19.101-7.562l-3.009 15.71-5.202-3.104a.639.639 0 00-.85.184l-1.386 1.931v-3.89L16.79 6.65c.592-.549-.089-1.525-.765-1.109l-9.966 6.07-3.493-1.823 17.19-7.024z" fill="#CCA75D"/></svg>