<svg width="34" height="20" xmlns="http://www.w3.org/2000/svg"><path d="M32.125 14.694c-.718-.855-1.528-1.618-2.311-2.356-.276-.26-.56-.527-.835-.794-.37-.358-.55-.612-.569-.8-.018-.184.108-.458.4-.862.436-.609.9-1.218 1.35-1.807.4-.524.813-1.066 1.209-1.61l.088-.123c.773-1.063 1.572-2.163 2-3.502.122-.384.249-.953-.057-1.452-.307-.499-.874-.647-1.275-.715a3.232 3.232 0 00-.553-.036L26.56.633c-.866-.015-1.468.394-1.795 1.214a28.95 28.95 0 01-.93 2.134c-.687 1.39-1.559 2.99-2.822 4.324l-.057.06c-.086.09-.226.24-.298.274-.137-.085-.295-.574-.288-.83v-.02l-.004-5.757a.641.641 0 00-.006-.088C20.248 1.123 20.029.3 18.72.043a.659.659 0 00-.126-.012h-5.213c-.98 0-1.5.446-1.915.93-.12.141-.44.516-.277.974.165.464.656.556.817.587.568.107.862.426.953 1.037.18 1.185.202 2.454.07 3.99-.038.412-.106.726-.217.986a.758.758 0 01-.076.144.766.766 0 01-.142-.08c-.399-.271-.7-.693-.99-1.102-1.163-1.63-2.14-3.433-2.99-5.509C8.267 1.138 7.61.663 6.767.65A126.82 126.82 0 002.23.652c-.683.012-1.162.226-1.424.636-.262.41-.252.934.029 1.556 2.01 4.442 3.833 7.674 5.915 10.479 1.465 1.974 2.94 3.345 4.643 4.313 1.788 1.018 3.805 1.516 6.144 1.516.266 0 .537-.007.811-.02 1.444-.065 2.031-.636 2.095-2.034.036-.739.119-1.337.406-1.857.08-.146.17-.243.242-.261.076-.019.21.027.36.124.273.176.509.416.703.626.196.214.394.435.586.648.409.455.831.925 1.274 1.373 1 1.015 2.155 1.48 3.431 1.382l4.586.003c.015 0 .03 0 .044-.002a1.544 1.544 0 001.255-.799c.323-.57.318-1.29-.014-1.93-.346-.665-.795-1.237-1.19-1.71zm.06 2.999c-.064.111-.142.131-.182.136l-4.585-.002c-.018 0-.036 0-.054.002-.904.075-1.671-.24-2.414-.993-.42-.427-.833-.885-1.231-1.328-.195-.216-.395-.44-.597-.66-.25-.27-.56-.583-.957-.84-.594-.384-1.087-.372-1.396-.295-.305.077-.74.295-1.073.9-.432.783-.527 1.627-.566 2.424-.022.488-.105.617-.14.65-.045.043-.197.118-.703.14-2.433.115-4.475-.319-6.243-1.325-1.538-.874-2.885-2.131-4.238-3.955C5.782 9.82 4 6.663 2.032 2.31a1.103 1.103 0 01-.1-.31c.05-.016.149-.037.32-.04 1.434-.028 2.903-.029 4.494-.002.218.003.466.068.654.525.887 2.169 1.911 4.056 3.132 5.77.325.456.728 1.022 1.321 1.425.543.37.984.353 1.259.273.274-.08.655-.302.911-.906.166-.39.266-.828.315-1.381.142-1.643.117-3.009-.079-4.297-.137-.923-.617-1.59-1.372-1.93.134-.07.285-.099.495-.099h5.145c.29.065.346.14.366.166.083.11.131.371.16.575l.005 5.704c-.012.547.255 1.76 1.165 2.093a.584.584 0 00.023.007c.828.27 1.376-.312 1.67-.624l.053-.056c1.384-1.461 2.316-3.168 3.045-4.643.38-.762.7-1.55.973-2.23.136-.34.26-.396.555-.39h.012l5.017.005c.117 0 .239.001.333.017.24.04.338.09.37.11.004.038.003.147-.07.374-.363 1.14-1.067 2.107-1.811 3.132l-.09.123a79.906 79.906 0 01-1.19 1.586 77.106 77.106 0 00-1.372 1.837c-.954 1.323-.87 2.202.32 3.356.282.274.57.545.85.808.79.745 1.537 1.448 2.204 2.243.35.418.745.92 1.034 1.475.15.29.113.552.036.688z" fill="#CCA75D"/></svg>