<svg width="25" height="20" xmlns="http://www.w3.org/2000/svg"><path d="M15.934 8.99l-5.302-2.902a.965.965 0 00-.964.017.965.965 0 00-.477.838v5.752c0 .346.177.658.474.836a.971.971 0 00.961.022l5.302-2.852a.974.974 0 00.006-1.712zm-5.337 2.981V7.672L14.56 9.84l-3.963 2.131z" fill="#CCA75D"/><path d="M24.064 5.264l-.002-.01c-.02-.194-.222-1.912-1.058-2.786-.965-1.028-2.06-1.153-2.586-1.213a6.298 6.298 0 01-.12-.014l-.041-.004c-3.173-.231-7.965-.263-8.013-.263h-.008c-.048 0-4.84.032-8.041.263l-.042.004-.113.014c-.52.06-1.603.185-2.571 1.25C.673 3.369.443 5.05.419 5.24l-.002.024C.41 5.344.24 7.258.24 9.18v1.795c0 1.921.17 3.835.177 3.916l.001.012c.02.19.223 1.877 1.054 2.751.908.994 2.056 1.125 2.673 1.196.098.01.182.02.24.03l.055.008c1.832.174 7.575.26 7.819.264h.015c.048 0 4.839-.032 8.012-.263l.042-.004.134-.015c.518-.055 1.595-.17 2.55-1.22.795-.865 1.025-2.546 1.049-2.735l.003-.024c.007-.081.176-1.995.176-3.916V9.18c0-1.922-.17-3.835-.176-3.916zm-1.23 5.711c0 1.779-.156 3.61-.17 3.778-.06.463-.303 1.527-.69 1.948-.598.658-1.212.723-1.66.77a7 7 0 00-.15.017c-3.069.222-7.68.256-7.892.257-.238-.003-5.898-.09-7.674-.255a6.191 6.191 0 00-.293-.038c-.526-.06-1.245-.142-1.798-.75l-.013-.015c-.381-.397-.617-1.391-.677-1.929-.011-.127-.17-1.98-.17-3.783V9.18c0-1.777.155-3.606.17-3.777.07-.546.318-1.545.69-1.95.615-.677 1.265-.752 1.695-.801l.114-.014c3.114-.223 7.758-.256 7.924-.258.167.002 4.81.035 7.895.258l.124.015c.442.05 1.11.126 1.722.78l.006.006c.38.397.616 1.409.676 1.957.01.12.17 1.977.17 3.784v1.795z" fill="#CCA75D"/></svg>