<svg width="519" height="290" viewBox="0 0 519 290" fill="none" xmlns="http://www.w3.org/2000/svg">
<mask id="mask0" mask-type="alpha" maskUnits="userSpaceOnUse" x="0" y="0" width="519" height="291">
<rect x="519" y="290" width="519" height="290" transform="rotate(-180 519 290)" fill="#C4C4C4"/>
</mask>
<g mask="url(#mask0)">
<path d="M519.725 290.56C487.742 276.004 389.221 251.732 342.364 256.41C263.859 264.248 196.985 294.479 163.548 306.796" stroke="#DCDCDC"/>
<path d="M520.453 270.406C488.47 255.85 390.104 232.608 343.092 236.255C242.054 244.093 163.55 290.56 130.113 302.877" stroke="#DCDCDC"/>
<path d="M520.453 248.572C488.47 234.016 390.104 210.774 343.092 214.421C242.054 222.259 109.76 292.799 76.323 305.116" stroke="#DCDCDC"/>
<path d="M520.453 225.618C488.47 211.062 391.007 192.974 343.819 194.826C229.697 199.305 118.483 278.243 9.44905 305.116" stroke="#DCDCDC"/>
<path d="M513.184 206.023C481.201 191.467 404.15 171.744 343.818 174.112C226.062 178.733 143.196 252.491 -0.00114858 283.842" stroke="#DCDCDC"/>
<path d="M513.184 186.429C481.201 171.873 404.15 152.15 343.818 154.518C226.062 159.139 143.196 232.896 -0.00114858 264.248" stroke="#DCDCDC"/>
<path d="M513.184 164.035C481.201 149.479 404.15 129.756 343.818 132.124C226.062 136.745 143.196 210.502 -0.00114858 241.854" stroke="#DCDCDC"/>
<path d="M513.184 142.761C481.201 128.205 404.15 108.482 343.818 110.85C226.062 115.471 143.196 189.228 -0.00114858 220.58" stroke="#DCDCDC"/>
<path d="M513.184 121.487C481.201 106.931 404.15 87.2078 343.818 89.5756C226.062 94.197 143.196 167.954 -0.00114858 199.305" stroke="#DCDCDC"/>
<path d="M513.184 100.213C481.201 85.657 404.15 65.934 343.818 68.3018C226.062 72.9232 143.196 146.68 -0.00114858 178.032" stroke="#DCDCDC"/>
<path d="M513.184 81.178C481.201 66.622 404.15 46.899 343.818 49.2667C226.062 53.8881 143.196 127.645 -0.00114858 158.997" stroke="#DCDCDC"/>
<path d="M513.184 61.0232C481.201 46.4672 404.15 26.7442 343.818 29.112C226.062 33.7334 143.196 107.49 -0.00114858 138.842" stroke="#DCDCDC"/>
<path d="M513.184 40.8689C481.201 26.3129 404.15 6.58991 343.818 8.95766C226.062 13.5791 143.196 87.3361 -0.00114858 118.687" stroke="#DCDCDC"/>
<path d="M513.184 18.4752C481.201 3.91922 404.15 -15.8038 343.818 -13.436C226.062 -8.81462 143.196 64.9424 -0.00114858 96.2938" stroke="#DCDCDC"/>
<path d="M513.184 -2.79944C481.201 -17.3554 404.15 -37.0784 343.818 -34.7107C226.062 -30.0893 143.196 43.6678 -0.00114858 75.0191" stroke="#DCDCDC"/>
<path d="M513.184 -24.0731C481.201 -38.6291 404.15 -58.3521 343.818 -55.9844C226.062 -51.363 143.196 22.3941 -0.00114858 53.7454" stroke="#DCDCDC"/>
<path d="M513.184 -48.7062C481.201 -63.2622 404.15 -82.9852 343.818 -80.6174C226.062 -75.996 143.196 -2.23898 -0.00114858 29.1124" stroke="#DCDCDC"/>
<path d="M518.999 311.834C487.015 297.278 388.495 273.006 341.637 277.684C263.133 285.522 196.259 315.753 162.822 328.07" stroke="#DCDCDC"/>
</g>
</svg>
