<svg width="65" height="65" fill="none" xmlns="http://www.w3.org/2000/svg"><path d="M56.784 35.636l-.352.193c-1.28-1.607-3.525-2.234-5.23-1.355l-.018.009-.784.428a5.646 5.646 0 00-6.571-.62l-4.096 2.263h-5.447a7.786 7.786 0 01-3.417-.796l-.748-.368a12.62 12.62 0 00-13.357 1.36l-1.805 1.634a6.287 6.287 0 01-2.424 1.366l-1.043-3.477a.761.761 0 00-.73-.543h-8.73a.763.763 0 00-.756.853l2.91 24.255a.761.761 0 00.757.67H18.04a.762.762 0 00.73-.98l-1.738-5.79 5.402-3.47a3.221 3.221 0 012.432-.305l10.9 2.04c2.956.537 6.006.1 8.692-1.247a.755.755 0 00.093-.056l18.855-13.155a.762.762 0 00.219-1.013 5.083 5.083 0 00-6.84-1.896zm-4.878.188c.981-.5 2.31-.145 3.16.754l-7.235 3.966-.467.25a6.264 6.264 0 00-1.04-1.914l5.582-3.056zm-7.332-.204l.018-.01a4.12 4.12 0 014.347.102L45.18 37.77a6.08 6.08 0 00-2.497-1.105l1.89-1.045zM5.617 59.985L2.89 37.254h7.306l6.82 22.731h-11.4zm38.107-9.566a12.331 12.331 0 01-7.68 1.086L25.167 49.47a4.739 4.739 0 00-3.54.504l-5.052 3.245-3.603-12.01a7.808 7.808 0 003.008-1.695l1.782-1.612a11.103 11.103 0 0111.686-1.144l.748.367a9.32 9.32 0 004.089.952h7.251c2.285 0 4.19 1.696 4.563 3.917l-5.322-.245a30.954 30.954 0 00-5.713.269.762.762 0 00.213 1.508 29.408 29.408 0 015.43-.255l6.186.285h.035a.762.762 0 00.762-.761c0-.148-.007-.294-.017-.439l.883-.473 8.96-4.912a3.555 3.555 0 014.38.767L43.725 50.42z" fill="url(#paint0_linear)"/><path d="M8.297 56.503a2.508 2.508 0 102.508-2.536 2.525 2.525 0 00-2.508 2.536zm2.508-1.013a1.013 1.013 0 11-.985 1.013 1 1 0 01.985-1.013z" fill="url(#paint1_linear)"/><path d="M36.163 3.491c-7.635 0-13.847 6.205-13.847 13.83 0 7.627 6.212 13.831 13.847 13.831 7.636 0 13.847-6.204 13.847-13.83S43.8 3.492 36.163 3.492zm0 26.138a12.306 12.306 0 1112.324-12.307 12.33 12.33 0 01-12.324 12.307z" fill="url(#paint2_linear)"/><path d="M36.51 11.685a2.57 2.57 0 012.484 1.891.761.761 0 101.482-.352 4.115 4.115 0 00-3.352-3.006v-.963a.762.762 0 00-1.523 0v.966a3.387 3.387 0 00-1.823.899c-1.075 1.046-1.139 2.526-1.132 2.955.023 1.65 1.255 3.044 2.993 3.388l.153.03.388.078c.056.01.202.055.264.074a.536.536 0 01.095.037l.24.093a.635.635 0 01.061.028c.113.058.14.075.222.123l.125.074.026.017.026.016c.247.153 1.479.97 1.528 2.16.03.723-.154 1.272-.561 1.678-.625.624-1.631.755-2.13.733a3.014 3.014 0 01-1.434-.534c-.368-.254-.822-.695-.894-1.347a.764.764 0 00-1.127-.594.76.76 0 00-.387.76c.201 1.831 1.965 2.955 3.366 3.192v.815a.762.762 0 001.524 0v-.858a4.172 4.172 0 002.158-1.089c.705-.704 1.054-1.679 1.007-2.818-.079-1.906-1.734-3.075-2.253-3.395a4.113 4.113 0 00-.07-.044l-.127-.076a5.24 5.24 0 00-.3-.166 2.174 2.174 0 00-.21-.095l-.224-.087a2.064 2.064 0 00-.216-.08 4.384 4.384 0 00-.419-.112L36.09 16l-.155-.03c-1.205-.24-1.755-1.135-1.767-1.916-.008-.567.165-1.348.672-1.843.39-.379.951-.557 1.67-.526z" fill="url(#paint3_linear)"/><defs><linearGradient id="paint0_linear" x1="8.353" y1="32.288" x2="45.404" y2="82.713" gradientUnits="userSpaceOnUse"><stop offset=".06" stop-color="#05237D"/><stop offset=".973" stop-color="#5882FF"/></linearGradient><linearGradient id="paint1_linear" x1="8.865" y1="53.747" x2="15.051" y2="57.52" gradientUnits="userSpaceOnUse"><stop offset=".06" stop-color="#05237D"/><stop offset=".973" stop-color="#5882FF"/></linearGradient><linearGradient id="paint2_linear" x1="25.456" y1="2.278" x2="59.585" y2="23.12" gradientUnits="userSpaceOnUse"><stop offset=".06" stop-color="#05237D"/><stop offset=".973" stop-color="#5882FF"/></linearGradient><linearGradient id="paint3_linear" x1="33.166" y1="7.74" x2="46.044" y2="11.524" gradientUnits="userSpaceOnUse"><stop offset=".06" stop-color="#05237D"/><stop offset=".973" stop-color="#5882FF"/></linearGradient></defs></svg>