<svg width="74" height="67" viewBox="0 0 74 67" fill="none" xmlns="http://www.w3.org/2000/svg">
<path d="M73.9998 9.94914C73.9998 9.94115 73.9988 9.93317 73.9985 9.92504C73.9976 9.89325 73.9957 9.86188 73.992 9.8308C73.9905 9.81939 73.9883 9.80799 73.9866 9.79658C73.9823 9.76792 73.9769 9.73969 73.9703 9.71203C73.9677 9.70105 73.9648 9.69022 73.9618 9.67924C73.9534 9.64915 73.9438 9.61964 73.9329 9.59055C73.9308 9.58499 73.9295 9.57929 73.9274 9.57387L70.9869 2.14813C70.6905 1.39988 69.9726 0.91626 69.1581 0.91626H63.8041C63.2205 0.91626 62.7475 1.38292 62.7475 1.95865C62.7475 2.53438 63.2205 3.00103 63.8041 3.00103H69.0558L71.3959 8.91074H49.272L47.8858 3.00103H56.0565C56.6402 3.00103 57.1132 2.53438 57.1132 1.95865C57.1132 1.38292 56.6402 0.91626 56.0565 0.91626H46.5567H35.9095H13.3079C12.4933 0.91626 11.7756 1.39988 11.4791 2.14842L8.53866 9.57387C8.53649 9.57943 8.53534 9.58514 8.53317 9.59055C8.52218 9.6195 8.51265 9.64901 8.50426 9.67924C8.50123 9.69022 8.49834 9.70105 8.49574 9.71203C8.48909 9.73983 8.48374 9.76806 8.4794 9.79658C8.47767 9.80799 8.4755 9.81939 8.47406 9.8308C8.47044 9.86188 8.46842 9.89325 8.46755 9.92504C8.46741 9.93303 8.4664 9.94101 8.46625 9.94914C8.46625 9.95042 8.46611 9.9517 8.46611 9.95299V25.2673C8.46611 25.843 8.93916 26.3097 9.52277 26.3097C10.1064 26.3097 10.5794 25.843 10.5794 25.2673V10.9955H32.9777V26.8399C32.9777 27.4596 33.3477 28.0242 33.9205 28.2784C34.1302 28.3715 34.3535 28.417 34.5753 28.417C34.9592 28.417 35.3389 28.2809 35.6366 28.0206L41.233 23.1296L46.8294 28.0205C47.2993 28.4315 47.9731 28.5326 48.5458 28.2784C49.1185 28.024 49.4885 27.4596 49.4885 26.8399V10.9955H71.8866V57.7501C71.8866 58.498 71.2696 59.1067 70.5114 59.1067H51.1366C51.1366 59.0949 51.1351 59.083 51.135 59.0712C51.1338 58.9777 51.1303 58.8843 51.1223 58.7916C52.9415 59.2674 54.8853 58.345 55.6143 56.5814C55.9977 55.6536 55.9921 54.6342 55.5982 53.7108C55.5611 53.6239 55.5202 53.5395 55.4771 53.4563C55.4692 53.4411 55.4615 53.4257 55.4536 53.4106C55.4112 53.3313 55.3661 53.2539 55.3186 53.1785C55.3093 53.1638 55.2998 53.1495 55.2904 53.135C55.2401 53.0575 55.1879 52.9816 55.1323 52.9084C55.1313 52.907 55.1301 52.9057 55.1291 52.9044C55.0739 52.8321 55.0155 52.7626 54.9552 52.6945C54.9442 52.6821 54.9334 52.6696 54.9223 52.6572C54.8626 52.5916 54.8006 52.5282 54.7364 52.467C54.7238 52.455 54.7111 52.4435 54.6984 52.4318C54.6312 52.3695 54.5624 52.3089 54.4907 52.2517C54.4882 52.2498 54.4858 52.248 54.4833 52.2461C54.4128 52.1901 54.3395 52.1371 54.2648 52.086C54.2514 52.0768 54.2381 52.0673 54.2243 52.0582C54.1496 52.0086 54.073 51.9617 53.9944 51.9171C53.9879 51.9134 53.9819 51.9091 53.9753 51.9054C54.4219 51.5241 54.7744 51.0416 55.0039 50.4864C55.3874 49.5587 55.3817 48.5393 54.9879 47.6158C54.6433 46.8078 54.0376 46.1579 53.2617 45.7547C53.1509 45.6971 53.0366 45.6445 52.9191 45.5973L36.4733 38.9821L44.1285 36.6447C45.9498 36.0885 46.9755 34.1723 46.415 32.3734C46.2059 31.7018 45.7912 31.1355 45.2556 30.7216C44.4585 30.1055 43.3932 29.8273 42.3367 30.0462C42.3316 30.0473 42.3267 30.0482 42.3216 30.0495C42.2631 30.0625 36.3945 31.3642 30.2654 32.5432C29.9936 32.5955 29.7286 32.646 29.4675 32.6956C29.2585 32.7352 29.0524 32.7743 28.8502 32.8122C28.7921 32.8232 28.7338 32.834 28.6762 32.8449C28.3192 32.9117 27.9733 32.9757 27.6371 33.0373C27.5018 33.0621 27.3677 33.0867 27.2358 33.1106C19.5385 34.5095 17.3762 34.5345 16.7761 34.4544C16.7737 34.4541 16.7717 34.4539 16.7694 34.4534C16.7603 34.4521 16.7513 34.4509 16.743 34.4496C16.7369 34.4486 16.7313 34.4476 16.7256 34.4467C16.7216 34.446 16.7172 34.4453 16.7133 34.4447C16.6759 34.438 16.6467 34.431 16.6242 34.4243L16.451 34.3548L16.6668 33.8328C16.879 33.3195 16.8758 32.7555 16.658 32.2446C16.6035 32.1169 16.5371 31.9962 16.4603 31.8839C16.2296 31.547 15.9034 31.2846 15.5131 31.1277L9.83771 28.8448C9.31754 28.6354 8.74563 28.6387 8.22777 28.8535C7.70978 29.0684 7.30784 29.4695 7.09566 29.9826L0.15572 46.773C-0.282208 47.8325 0.235357 49.0458 1.30937 49.478L6.98495 51.7609C7.2441 51.8652 7.5122 51.9145 7.77626 51.9145C8.6063 51.9145 9.39457 51.4266 9.72685 50.6229L9.77903 50.4967L11.0876 51.023C11.0883 51.0233 11.0891 51.0237 11.0899 51.024C12.3416 51.5274 13.4948 52.2457 14.4929 53.1371C14.6744 53.2992 14.8508 53.467 15.0217 53.6403C15.1927 53.8135 15.3581 53.9923 15.5178 54.1762C15.5976 54.2682 15.676 54.3616 15.7528 54.4561C17.2072 56.2452 19.1138 57.6486 21.2663 58.5144L22.7385 59.1066H11.9548C11.1966 59.1066 10.5796 58.4979 10.5796 57.7499V55.1124C10.5796 54.5367 10.1065 54.07 9.52292 54.07C8.9393 54.07 8.46625 54.5367 8.46625 55.1124V57.7499C8.46625 59.6475 10.0311 61.1913 11.9548 61.1913H27.9216L41.5336 66.6666C42.0022 66.8551 42.487 66.9445 42.9643 66.9444C44.4644 66.9444 45.8892 66.0625 46.4897 64.6098C46.736 64.0139 46.8151 63.3912 46.7487 62.7925C47.4568 62.8927 48.1909 62.8008 48.8563 62.5173C49.5326 62.2292 50.093 61.7702 50.4911 61.1912H70.5115C72.4351 61.1912 74.0001 59.6475 74.0001 57.7498V9.95313C73.9999 9.9517 73.9998 9.95056 73.9998 9.94914ZM36.7495 3.00103H45.7165L47.1027 8.91074H35.3633L36.7495 3.00103ZM33.1942 8.91074H11.0701L13.4102 3.00103H34.5804L33.1942 8.91074ZM47.3754 25.7123H47.3753L42.2933 21.271C41.9911 21.0069 41.6121 20.8749 41.2333 20.8749C40.8543 20.8749 40.4752 21.0069 40.173 21.271L35.0912 25.7123V10.9955H47.3754V25.7123ZM7.77366 49.8267L2.11628 47.5512L9.04886 30.7791L14.7062 33.0547L7.77366 49.8267ZM49.989 56.1174L48.7762 55.6295C48.7757 55.6292 48.7751 55.6291 48.7745 55.6288C48.7741 55.6287 48.7736 55.6284 48.7732 55.6282C48.773 55.6282 48.7729 55.6281 48.7728 55.6281L36.1428 50.5479C35.6025 50.3306 34.9858 50.5864 34.7654 51.1196C34.545 51.6527 34.8044 52.2611 35.345 52.4785L47.9752 57.5589C48.028 57.5801 48.079 57.6036 48.1283 57.6295C48.1422 57.6367 48.155 57.6456 48.1686 57.6531C48.2033 57.6725 48.2381 57.6919 48.2709 57.7134C48.2867 57.7238 48.3012 57.7358 48.3165 57.7467C48.3455 57.7672 48.3752 57.7874 48.4026 57.8097C48.4192 57.8231 48.4343 57.838 48.4503 57.852C48.4749 57.8735 48.5 57.8944 48.5232 57.9172C48.5392 57.9329 48.5535 57.9501 48.5688 57.9664C48.5901 57.9889 48.6119 58.011 48.6318 58.0347C48.647 58.0528 48.6603 58.072 48.6748 58.0907C48.6928 58.1141 48.7116 58.137 48.7282 58.1613C48.7423 58.1815 48.7543 58.2029 48.7673 58.2236C48.7823 58.2475 48.7982 58.2711 48.8119 58.2957C48.8244 58.318 48.8348 58.3412 48.8462 58.3639C48.8583 58.3883 48.8715 58.4122 48.8825 58.4372C48.893 58.4611 48.9015 58.4859 48.9109 58.5103C48.9205 58.535 48.9309 58.5592 48.9393 58.5843C48.9476 58.6095 48.954 58.6353 48.9611 58.6609C48.9682 58.6861 48.9761 58.7109 48.982 58.7364C48.988 58.7622 48.9917 58.7885 48.9965 58.8144C49.0013 58.8404 49.0068 58.866 49.0102 58.8923C49.0137 58.9185 49.015 58.945 49.0172 58.9714C49.0193 58.9979 49.0225 59.0243 49.0234 59.0508C49.0242 59.0769 49.0229 59.1033 49.0227 59.1295C49.0224 59.1566 49.0228 59.1837 49.0211 59.2109C49.0195 59.2367 49.0156 59.2625 49.0127 59.2883C49.0096 59.3162 49.0073 59.3439 49.0027 59.3716C48.9985 59.397 48.992 59.4222 48.9867 59.4476C48.9806 59.4757 48.9755 59.5038 48.9679 59.5317C48.9612 59.5564 48.9523 59.5809 48.9443 59.6054C48.9354 59.6334 48.9271 59.6613 48.9166 59.6888C48.9076 59.7078 48.8988 59.7269 48.8905 59.7462C48.8887 59.7506 48.8877 59.7551 48.8859 59.7594C48.7209 60.1354 48.4162 60.4341 48.0183 60.6036C47.5804 60.79 47.079 60.7965 46.6425 60.6209L44.4047 59.7208C44.3943 59.7166 44.3838 59.7138 44.3734 59.7099C44.3628 59.7052 44.3529 59.6998 44.3422 59.6955L34.0695 55.5635C33.5288 55.3462 32.9124 55.602 32.6921 56.1352C32.4717 56.6683 32.7311 57.2767 33.2715 57.4941L43.5442 61.6262C43.5552 61.6306 43.5663 61.6338 43.5774 61.6377C43.5874 61.642 43.5967 61.6473 43.6069 61.6513C44.4691 61.9982 44.8846 62.9723 44.5331 63.8227C44.1814 64.6735 43.1944 65.0836 42.3319 64.7364L28.5299 59.1847C28.5293 59.1844 28.5287 59.1841 28.5282 59.1838L22.0647 56.5839C20.927 56.1263 19.8705 55.4911 18.9378 54.7096C18.3782 54.2407 17.8632 53.7193 17.4019 53.1518C16.9473 52.5927 16.4487 52.0713 15.9122 51.5921C14.7318 50.5381 13.3682 49.6887 11.8883 49.0933C11.8882 49.0933 11.888 49.0932 11.8879 49.0932L10.5776 48.5662L13.1874 42.2521L15.6536 36.2854L15.8356 36.3586C16.0069 36.4274 16.2511 36.5252 16.9084 36.5497C17.7297 36.5864 19.0883 36.5018 21.5222 36.1626C23.1778 35.932 25.2086 35.5983 27.5793 35.168C27.6377 35.1575 27.6957 35.1469 27.7546 35.1362C27.8655 35.116 27.9775 35.0955 28.0899 35.0749C28.1774 35.059 28.2653 35.0427 28.3539 35.0263C28.4547 35.0076 28.5561 34.9889 28.6581 34.97C28.7663 34.9499 28.8759 34.9295 28.986 34.9088C29.0742 34.8923 29.1622 34.8759 29.2512 34.8592C29.3855 34.834 29.5221 34.8082 29.6591 34.7822C29.7296 34.7688 29.7995 34.7557 29.8706 34.7423C30.0804 34.7024 30.293 34.6619 30.5095 34.6204C36.6176 33.4484 42.513 32.1439 42.7779 32.0852C42.8044 32.0798 42.8308 32.0767 42.8573 32.0728C43.536 31.9737 44.201 32.361 44.3956 32.9857C44.464 33.2053 44.472 33.4293 44.4289 33.64C44.3342 34.1038 43.9925 34.504 43.5042 34.653L33.0283 37.8516C32.6018 37.9819 32.3043 38.3622 32.2851 38.8022C32.2657 39.242 32.5285 39.6465 32.9418 39.8128L52.1217 47.5278C52.5394 47.6958 52.8657 48.0141 53.0406 48.4243C53.2155 48.8345 53.2181 49.2874 53.0477 49.6993C52.8773 50.1113 52.5547 50.4333 52.1389 50.6058C51.931 50.6919 51.7124 50.7355 51.4934 50.7368C51.4902 50.7368 51.4871 50.7364 51.4839 50.7364C51.4324 50.7364 51.3811 50.7344 51.3298 50.7297C51.3146 50.7283 51.2996 50.7251 51.2844 50.7234C51.2453 50.7187 51.2061 50.7143 51.1672 50.7069C51.1426 50.7022 51.1184 50.695 51.0939 50.6893C51.0647 50.6825 51.0354 50.6766 51.0065 50.6682C50.9766 50.6595 50.9472 50.648 50.9177 50.6376C50.8943 50.6293 50.8705 50.6225 50.8474 50.6132L38.2159 45.5323C37.6755 45.3149 37.059 45.5708 36.8385 46.104C36.6181 46.6371 36.8776 47.2455 37.4181 47.4629L52.7319 53.6227C52.8364 53.6646 52.9351 53.7161 53.0272 53.776C53.3034 53.9556 53.5197 54.2116 53.6508 54.5193C53.8039 54.8781 53.825 55.2696 53.7137 55.6379C53.6978 55.6905 53.6792 55.7427 53.6579 55.7942C53.6359 55.8474 53.6115 55.8988 53.5848 55.9485C53.5225 56.0639 53.4466 56.1683 53.3619 56.2634C53.3093 56.3224 53.2531 56.3775 53.1932 56.4279C53.1837 56.4359 53.175 56.4451 53.1653 56.4528C52.7797 56.7639 52.2642 56.8976 51.7605 56.7972C51.6583 56.7768 51.5567 56.7479 51.4567 56.7077L49.989 56.1174Z" fill="#CCA75D"/>
</svg>
