<svg width="51" height="55" viewBox="0 0 51 55" fill="none" xmlns="http://www.w3.org/2000/svg">
<path d="M13.1523 41.8479H5.97837C5.31807 41.8479 4.78271 42.3833 4.78271 43.0436V49.0218C4.78271 49.6821 5.31807 50.2175 5.97837 50.2175H13.1523C13.8126 50.2175 14.3479 49.6821 14.3479 49.0218V43.0436C14.3479 42.3833 13.8126 41.8479 13.1523 41.8479ZM11.9566 47.8262H7.17402V44.2392H11.9566V47.8262Z" fill="#CCA75D"/>
<path d="M38.2609 43.0435H35.8696V45.4348H38.2609V43.0435Z" fill="#CCA75D"/>
<path d="M45.435 43.0435H40.6523V45.4348H45.435V43.0435Z" fill="#CCA75D"/>
<path d="M45.4349 47.8262H35.8696V50.2175H45.4349V47.8262Z" fill="#CCA75D"/>
<path d="M50.209 10.7178C50.2039 10.592 50.179 10.4676 50.1349 10.3496C50.1241 10.3233 50.1182 10.2958 50.1062 10.2707C50.0942 10.2455 50.099 10.2408 50.0918 10.2264L45.3092 0.661196C45.1067 0.25587 44.6923 -0.000149391 44.2391 6.54008e-08H5.97826C5.52511 -0.000149391 5.11067 0.25587 4.90815 0.661196L0.125543 10.2264C0.118369 10.2408 0.117172 10.2563 0.109998 10.2707C0.102824 10.285 0.0932603 10.3233 0.0824994 10.3496C0.0384097 10.4676 0.0134515 10.592 0.00836998 10.7178C0.00836998 10.7322 0 10.7453 0 10.7609V16.7391V19.1304V21.5217V22.6322V23.913V53.8044C0 54.4646 0.535352 55 1.19565 55H49.0217C49.682 55 50.2174 54.4646 50.2174 53.8044V10.7609C50.2174 10.7453 50.209 10.7334 50.209 10.7178ZM43.5002 2.3913L47.0872 9.56522H30.9459L30.0491 2.3913H43.5002ZM22.5775 2.3913H27.6399L28.5366 9.56522H21.6808L22.5775 2.3913ZM21.5217 11.9565H28.6956V26.3043H21.5217V11.9565ZM6.71598 2.3913H20.1671L19.2703 9.56522H3.12902L6.71598 2.3913ZM47.8261 52.6087H2.3913V23.913H9.56522V21.5217H2.3913V19.1304H9.56522V16.7391H2.3913V11.9565H19.1304V27.5C19.1304 28.1603 19.6658 28.6957 20.3261 28.6957H29.8913C30.5516 28.6957 31.087 28.1603 31.087 27.5V11.9565H47.8261V52.6087Z" fill="#CCA75D"/>
</svg>
