<svg width="76" height="66" viewBox="0 0 76 66" fill="none" xmlns="http://www.w3.org/2000/svg">
<path d="M73.0098 14.6943H21.7598C21.0694 14.6943 20.5098 15.254 20.5098 15.9443C20.5098 16.6347 21.0694 17.1943 21.7598 17.1943H29.316C23.7686 20.7243 20.4384 26.8695 20.5098 33.4443C20.4384 40.0192 23.7686 46.1644 29.316 49.6943H3.00977V17.1943H15.5098C16.2001 17.1943 16.7598 16.6347 16.7598 15.9443C16.7598 15.254 16.2001 14.6943 15.5098 14.6943H3.00977C1.62905 14.6943 0.509766 15.8136 0.509766 17.1943V49.6943C0.509766 51.075 1.62905 52.1943 3.00977 52.1943H73.0098C74.3905 52.1943 75.5098 51.075 75.5098 49.6943V17.1943C75.5098 15.8136 74.3905 14.6943 73.0098 14.6943ZM23.0098 33.4443C23.0098 24.4843 29.7385 17.1943 38.0098 17.1943C46.281 17.1943 53.0098 24.4843 53.0098 33.4443C53.0098 42.4043 46.281 49.6943 38.0098 49.6943C29.7385 49.6943 23.0098 42.4043 23.0098 33.4443ZM73.0098 49.6943H46.7035C52.2509 46.1644 55.5811 40.0192 55.5098 33.4443C55.5811 26.8695 52.2509 20.7243 46.7035 17.1943H73.0098V49.6943Z" fill="#CCA75D"/>
<path d="M66.4297 1.20672C65.838 0.910564 65.1529 0.861118 64.5247 1.06922L37.5997 10.093C36.9439 10.3125 36.5902 11.0221 36.8097 11.678C37.0293 12.3338 37.7389 12.6875 38.3947 12.468L65.3122 3.44422L68.0747 11.6805C68.2165 12.1047 68.5739 12.4211 69.0122 12.5104C69.4505 12.5998 69.9032 12.4485 70.1997 12.1136C70.4962 11.7786 70.5915 11.311 70.4497 10.8867L67.686 2.65547C67.4801 2.02272 67.0269 1.50017 66.4297 1.20672Z" fill="#CCA75D"/>
<path d="M37.6248 54.4218L10.7073 63.4443L7.94479 55.2081C7.7256 54.5522 7.01625 54.1983 6.36041 54.4174C5.70457 54.6366 5.3506 55.346 5.56979 56.0018L8.32854 64.2306C8.533 64.8622 8.9837 65.3845 9.57854 65.6793C9.92461 65.8514 10.3058 65.9413 10.6923 65.9418C10.961 65.9422 11.228 65.9 11.4835 65.8168L38.4085 56.7931C39.0644 56.5735 39.4181 55.8639 39.1985 55.2081C38.979 54.5522 38.2694 54.1985 37.6135 54.4181L37.6248 54.4218Z" fill="#CCA75D"/>
<path d="M41.7598 29.0693C41.7598 29.7597 42.3194 30.3193 43.0098 30.3193C43.7001 30.3193 44.2598 29.7597 44.2598 29.0693C44.1391 26.2673 42.0368 23.9501 39.2598 23.5581V23.4443C39.2598 22.754 38.7001 22.1943 38.0098 22.1943C37.3194 22.1943 36.7598 22.754 36.7598 23.4443V23.5581C33.9827 23.9501 31.8804 26.2673 31.7598 29.0693C31.8804 31.8713 33.9827 34.1886 36.7598 34.5806V40.7518C35.3687 40.4363 34.3513 39.2428 34.2598 37.8193C34.2598 37.129 33.7001 36.5693 33.0098 36.5693C32.3194 36.5693 31.7598 37.129 31.7598 37.8193C31.8804 40.6213 33.9827 42.9386 36.7598 43.3306V43.4443C36.7598 44.1347 37.3194 44.6943 38.0098 44.6943C38.7001 44.6943 39.2598 44.1347 39.2598 43.4443V43.3306C42.0368 42.9386 44.1391 40.6213 44.2598 37.8193C44.1391 35.0173 42.0368 32.7001 39.2598 32.3081V26.1368C40.6508 26.4524 41.6683 27.6459 41.7598 29.0693ZM34.2598 29.0693C34.3513 27.6459 35.3687 26.4524 36.7598 26.1368V32.0018C35.3687 31.6863 34.3513 30.4928 34.2598 29.0693ZM41.7598 37.8193C41.6683 39.2428 40.6508 40.4363 39.2598 40.7518V34.8868C40.6508 35.2024 41.6683 36.3959 41.7598 37.8193Z" fill="#CCA75D"/>
<path d="M64.2598 47.1941H69.2598C69.9501 47.1941 70.5098 46.6344 70.5098 45.9441V40.9441C70.5098 40.2537 69.9501 39.6941 69.2598 39.6941C68.5694 39.6941 68.0098 40.2537 68.0098 40.9441V44.6941H64.2598C63.5694 44.6941 63.0098 45.2537 63.0098 45.9441C63.0098 46.6344 63.5694 47.1941 64.2598 47.1941Z" fill="#CCA75D"/>
<path d="M6.75977 39.6941C6.06941 39.6941 5.50977 40.2537 5.50977 40.9441V45.9441C5.50977 46.6344 6.06941 47.1941 6.75977 47.1941H11.7598C12.4501 47.1941 13.0098 46.6344 13.0098 45.9441C13.0098 45.2537 12.4501 44.6941 11.7598 44.6941H8.00977V40.9441C8.00977 40.2537 7.45012 39.6941 6.75977 39.6941Z" fill="#CCA75D"/>
<path d="M11.7598 19.6943H6.75977C6.06941 19.6943 5.50977 20.254 5.50977 20.9443V25.9443C5.50977 26.6347 6.06941 27.1943 6.75977 27.1943C7.45012 27.1943 8.00977 26.6347 8.00977 25.9443V22.1943H11.7598C12.4501 22.1943 13.0098 21.6347 13.0098 20.9443C13.0098 20.254 12.4501 19.6943 11.7598 19.6943Z" fill="#CCA75D"/>
<path d="M64.2598 22.1943H68.0098V25.9443C68.0098 26.6347 68.5694 27.1943 69.2598 27.1943C69.9501 27.1943 70.5098 26.6347 70.5098 25.9443V20.9443C70.5098 20.254 69.9501 19.6943 69.2598 19.6943H64.2598C63.5694 19.6943 63.0098 20.254 63.0098 20.9443C63.0098 21.6347 63.5694 22.1943 64.2598 22.1943Z" fill="#CCA75D"/>
</svg>
