<svg width="71" height="56" viewBox="0 0 71 56" fill="none" xmlns="http://www.w3.org/2000/svg">
<path d="M39.9133 21.3753L39.9133 18.2678L34.2171 16.6975L34.2069 10.3718L31.5156 9.29639L27.8686 14.8421L21.9751 12.2808L20.2201 14.6368L24.4828 19.8232L20.2201 25.0086L21.9751 27.3657L27.8686 24.8044L31.5167 30.3512L34.2103 29.2702L34.2114 22.9707L39.9133 21.3753ZM28.7193 21.9478L24.0027 23.9982L27.4341 19.8244L24.0039 15.6506L28.7193 17.6987L31.9307 12.8167L31.9386 18.4354L36.9826 19.8267L31.9307 21.2396L31.9295 26.8297L28.7193 21.9478Z" fill="#CCA75D"/>
<path d="M44.4749 19.9556C44.4749 11.7813 37.8242 5.13061 29.6499 5.13061C21.4757 5.13061 14.825 11.7813 14.825 19.9556C14.825 28.1298 21.4757 34.7805 29.6499 34.7805C37.8242 34.7805 44.4749 28.1298 44.4749 19.9556ZM17.1057 19.9556C17.1057 13.0392 22.7335 7.41138 29.6499 7.41138C36.5663 7.41138 42.1941 13.0392 42.1941 19.9556C42.1941 26.872 36.5663 32.4998 29.6499 32.4998C22.7335 32.4998 17.1057 26.872 17.1057 19.9556Z" fill="#CCA75D"/>
<path d="M54.7383 5.13062L54.7383 7.41138L52.4575 7.41138L52.4575 5.13062L54.7383 5.13062Z" fill="#CCA75D"/>
<path d="M45.6152 5.13062L45.6152 7.41138L43.3345 7.41138L43.3345 5.13062L45.6152 5.13062Z" fill="#CCA75D"/>
<path d="M50.1768 5.13062L50.1768 7.41138L47.896 7.41138L47.896 5.13062L50.1768 5.13062Z" fill="#CCA75D"/>
<path d="M11.4038 32.4998L11.4038 34.7805L9.12305 34.7805L9.12305 32.4998L11.4038 32.4998Z" fill="#CCA75D"/>
<path d="M15.9653 32.4998L15.9653 34.7805L13.6846 34.7805L13.6846 32.4998L15.9653 32.4998Z" fill="#CCA75D"/>
<path d="M20.5269 32.4998L20.5269 34.7805L18.2461 34.7805L18.2461 32.4998L20.5269 32.4998Z" fill="#CCA75D"/>
<path d="M58.1594 55.3074C63.2752 55.3074 67.2825 47.2928 67.2825 37.0613C67.2825 35.0348 67.116 33.0597 66.8035 31.1701L70.7036 27.27L70.7036 12.6412L58.6315 0.569091L0 0.569089L-1.69482e-06 39.342L49.1116 39.342C49.6579 48.456 53.4314 55.3074 58.1594 55.3074V55.3074ZM68.4229 13.5854L68.4229 26.3257L59.2998 35.4488L59.2998 25.5423C61.8987 25.012 63.8613 22.7084 63.8613 19.9556C63.8613 17.2027 61.8987 14.8991 59.2998 14.3688L59.2998 4.46235L68.4229 13.5854ZM58.1594 21.0959C59.1402 21.0959 59.9954 21.6536 60.65 22.2854C60.0251 22.9536 59.1436 23.3767 58.1594 23.3767C57.1855 23.3767 56.3109 22.9627 55.6871 22.3082C56.4922 21.5224 57.3372 21.0959 58.1594 21.0959ZM54.7531 20.1004C54.7508 20.0514 54.7383 20.0046 54.7383 19.9556C54.7383 18.0694 56.2732 16.5344 58.1594 16.5344C60.0456 16.5344 61.5806 18.0694 61.5806 19.9556C61.5806 19.9978 61.5692 20.0365 61.568 20.0787C60.5018 19.2531 59.3477 18.8152 58.1594 18.8152C56.9483 18.8152 55.8011 19.2782 54.7531 20.1004V20.1004ZM57.019 25.5423L57.019 37.0613L51.3171 37.0613C51.3171 31.4837 52.5887 26.9233 54.2947 24.1214C55.0462 24.8204 55.9767 25.3302 57.019 25.5423ZM6.84228 37.0613L6.84228 7.41137L4.56152 7.41137L4.56152 37.0613L2.28076 37.0613L2.28076 2.84985L4.56152 2.84985L4.56152 5.13061L6.84228 5.13061L6.84229 2.84985L57.019 2.84985L57.019 14.3688C54.4201 14.8991 52.4575 17.2015 52.4575 19.9556C52.4575 20.7151 52.6126 21.4369 52.884 22.1006C50.544 25.3712 49.0364 30.796 49.0364 37.0613L6.84228 37.0613ZM51.3981 39.342L58.6315 39.342L64.7816 33.192C64.9219 34.4521 65.0017 35.743 65.0017 37.0613C65.0017 46.4694 61.3958 53.0266 58.1594 53.0266C55.1922 53.0266 51.9238 47.5083 51.3981 39.342Z" fill="#CCA75D"/>
</svg>
