<svg width="75" height="59" viewBox="0 0 75 59" fill="none" xmlns="http://www.w3.org/2000/svg">
<path d="M42.2192 22.5201L42.2192 19.2416L36.2096 17.5849L36.1988 10.9112L33.3594 9.77661L29.5118 15.6274L23.2941 12.9252L21.4425 15.4108L25.9398 20.8827L21.4425 26.3533L23.2941 28.8401L29.5118 26.1379L33.3606 31.9899L36.2024 30.8493L36.2036 24.2033L42.2192 22.5201ZM30.4094 23.1241L25.4332 25.2873L29.0534 20.8839L25.4344 16.4804L30.4094 18.6412L33.7974 13.4907L33.8058 19.4185L39.1272 20.8863L33.7974 22.3769L33.7962 28.2747L30.4094 23.1241Z" fill="#CCA75D"/>
<path d="M47.0317 21.0222C47.0317 12.3982 40.0151 5.38159 31.3911 5.38159C22.7671 5.38159 15.7505 12.3982 15.7505 21.0222C15.7505 29.6462 22.7671 36.6628 31.3911 36.6628C40.0151 36.6628 47.0317 29.6462 47.0317 21.0222ZM18.1567 21.0222C18.1567 13.7253 24.0942 7.78784 31.3911 7.78784C38.6881 7.78784 44.6255 13.7253 44.6255 21.0222C44.6255 28.3192 38.6881 34.2566 31.3911 34.2566C24.0942 34.2566 18.1567 28.3192 18.1567 21.0222Z" fill="#CCA75D"/>
<path d="M57.8599 5.38159L57.8599 7.78784L55.4536 7.78784L55.4536 5.38159L57.8599 5.38159Z" fill="#CCA75D"/>
<path d="M48.2349 5.38159L48.2349 7.78784L45.8286 7.78784L45.8286 5.38159L48.2349 5.38159Z" fill="#CCA75D"/>
<path d="M53.0474 5.38159L53.0474 7.78784L50.6411 7.78784L50.6411 5.38159L53.0474 5.38159Z" fill="#CCA75D"/>
<path d="M12.1411 34.2566L12.1411 36.6628L9.73486 36.6628L9.73486 34.2566L12.1411 34.2566Z" fill="#CCA75D"/>
<path d="M16.9536 34.2566L16.9536 36.6628L14.5474 36.6628L14.5474 34.2566L16.9536 34.2566Z" fill="#CCA75D"/>
<path d="M21.7661 34.2566L21.7661 36.6628L19.3599 36.6628L19.3599 34.2566L21.7661 34.2566Z" fill="#CCA75D"/>
<path d="M61.4692 58.3191C66.8665 58.3191 71.0942 49.8635 71.0942 39.0691C71.0942 36.9311 70.9186 34.8473 70.5889 32.8537L74.7036 28.7391L74.7036 13.3054L61.9673 0.569091L0.109863 0.569089L0.109861 41.4753L51.9236 41.4753C52.4999 51.0907 56.4811 58.3191 61.4692 58.3191ZM72.2974 14.3016L72.2974 27.7429L62.6724 37.3679L62.6724 26.9163C65.4143 26.3569 67.4849 23.9266 67.4849 21.0222C67.4849 18.1179 65.4143 15.6876 62.6724 15.1281L62.6724 4.67656L72.2974 14.3016ZM61.4692 22.2253C62.5039 22.2253 63.4063 22.8137 64.0969 23.4802C63.4375 24.1852 62.5075 24.6316 61.4692 24.6316C60.4418 24.6316 59.519 24.1949 58.8609 23.5043C59.7103 22.6753 60.6018 22.2253 61.4692 22.2253ZM57.8755 21.175C57.8731 21.1233 57.8599 21.074 57.8599 21.0222C57.8599 19.0322 59.4793 17.4128 61.4692 17.4128C63.4592 17.4128 65.0786 19.0322 65.0786 21.0222C65.0786 21.0667 65.0666 21.1076 65.0654 21.1522C63.9405 20.2811 62.7229 19.8191 61.4692 19.8191C60.1915 19.8191 58.9812 20.3076 57.8755 21.175ZM60.2661 26.9163L60.2661 39.0691L54.2505 39.0691C54.2505 33.1846 55.592 28.3733 57.3918 25.4172C58.1847 26.1547 59.1665 26.6925 60.2661 26.9163ZM7.32861 39.0691L7.32861 7.78784L4.92236 7.78784L4.92236 39.0691L2.51611 39.0691L2.51611 2.97534L4.92236 2.97534L4.92236 5.38159L7.32861 5.38159L7.32861 2.97534L60.2661 2.97534L60.2661 15.1281C57.5242 15.6876 55.4536 18.1167 55.4536 21.0222C55.4536 21.8235 55.6172 22.5851 55.9036 23.2853C53.4348 26.7359 51.8442 32.4591 51.8442 39.0691L7.32861 39.0691ZM54.3359 41.4753L61.9673 41.4753L68.4558 34.9869C68.6038 36.3163 68.688 37.6783 68.688 39.0691C68.688 48.9949 64.8837 55.9128 61.4692 55.9128C58.3387 55.9128 54.8905 50.0909 54.3359 41.4753Z" fill="#CCA75D"/>
</svg>
