<svg width="577" height="452" viewBox="0 0 577 452" fill="none" xmlns="http://www.w3.org/2000/svg">
<path d="M421 70.1968L415.111 64.3091L409.499 69.9211L403.887 64.3091L398 70.1968L403.614 75.8073L398 81.4214L403.887 87.3091L409.499 81.695L415.111 87.3091L421 81.4214L415.388 75.8073L421 70.1968Z" fill="#4DADD7"/>
<path d="M61 282.197L55.1139 276.309L49.5018 281.921L43.8877 276.309L38 282.197L43.6121 287.809L38 293.422L43.8877 299.309L49.5018 293.695L55.1139 299.309L61 293.422L55.3875 287.809L61 282.197Z" fill="#4DADD7"/>
<path d="M168 31.1968L162.112 25.3091L156.498 30.9211L150.886 25.3091L145 31.1968L150.613 36.8088L145 42.4214L150.886 48.3091L156.498 42.6965L162.112 48.3091L168 42.4214L162.388 36.8088L168 31.1968Z" fill="#4DADD7"/>
<path d="M61.4993 81.8264C58.7526 81.8264 56.5174 84.0617 56.5174 86.8103C56.5174 89.557 58.7526 91.7922 61.4993 91.7922C64.2479 91.7922 66.4832 89.557 66.4832 86.8103C66.4832 84.0617 64.2479 81.8264 61.4993 81.8264ZM61.4993 95.3091C56.813 95.3091 53 91.4966 53 86.8103C53 82.1235 56.813 78.3091 61.4993 78.3091C66.1861 78.3091 70 82.1235 70 86.8103C70 91.4966 66.1861 95.3091 61.4993 95.3091Z" fill="#4DADD7"/>
<path d="M310.999 3.82674C308.09 3.82674 305.724 6.06216 305.724 8.80908C305.724 11.558 308.09 13.7914 310.999 13.7914C313.909 13.7914 316.276 11.558 316.276 8.80908C316.276 6.06216 313.909 3.82674 310.999 3.82674ZM310.999 17.3091C306.037 17.3091 302 13.4958 302 8.80908C302 4.12187 306.037 0.309082 310.999 0.309082C315.963 0.309082 320 4.12187 320 8.80908C320 13.4958 315.963 17.3091 310.999 17.3091Z" fill="#4DADD7"/>
<path d="M551.991 124.826C549.087 124.826 546.723 127.061 546.723 129.81C546.723 132.557 549.087 134.792 551.991 134.792C554.913 134.792 557.277 132.557 557.277 129.81C557.277 127.061 554.913 124.826 551.991 124.826ZM551.991 138.309C547.039 138.309 543 134.496 543 129.81C543 125.123 547.039 121.309 551.991 121.309C556.96 121.309 561 125.123 561 129.81C561 134.496 556.96 138.309 551.991 138.309Z" fill="#4DADD7"/>
<path d="M442.499 266.826C439.751 266.826 437.517 269.063 437.517 271.81C437.517 274.558 439.751 276.792 442.499 276.792C445.246 276.792 447.483 274.558 447.483 271.81C447.483 269.063 445.246 266.826 442.499 266.826ZM442.499 280.309C437.812 280.309 434 276.497 434 271.81C434 267.123 437.812 263.309 442.499 263.309C447.186 263.309 451 267.123 451 271.81C451 276.497 447.186 280.309 442.499 280.309Z" fill="#4DADD7"/>
<path d="M177 92.3081C177 101.145 169.837 108.309 161 108.309C152.162 108.309 145 101.145 145 92.3081C145 83.4728 152.162 76.3091 161 76.3091C169.837 76.3091 177 83.4728 177 92.3081Z" fill="#4DADD7"/>
<path d="M577 250.309C577 254.728 573.425 258.309 569 258.309C564.575 258.309 561 254.728 561 250.309C561 245.891 564.575 242.309 569 242.309C573.425 242.309 577 245.891 577 250.309Z" fill="#4DADD7"/>
<path d="M16 147.309C16 151.727 12.4206 155.309 8.00201 155.309C3.5834 155.309 0 151.727 0 147.309C0 142.891 3.5834 139.309 8.00201 139.309C12.4206 139.309 16 142.891 16 147.309Z" fill="#4DADD7"/>
<path d="M418 147.309C418 151.727 414.417 155.309 409.999 155.309C405.581 155.309 402 151.727 402 147.309C402 142.891 405.581 139.309 409.999 139.309C414.417 139.309 418 142.891 418 147.309Z" fill="#4DADD7"/>
<path d="M49.6311 204.481H93.0404V147.497L49.6311 204.481ZM89.2822 272.309V234.742H16V204.738L100.067 96.3091H122.91V204.481H145V234.742H122.91V272.309H89.2822Z" fill="#FEFEFE"/>
<path d="M442.624 204.481H486.031V147.497L442.624 204.481ZM482.27 272.309V234.742H409V204.738L493.057 96.3091H515.91V204.481H538V234.742H515.91V272.309H482.27Z" fill="#FEFEFE"/>
<path d="M527 412.309H525.825L384.925 271.537L385.602 270.86C386.607 269.855 386.607 268.227 385.602 267.224L370.679 252.315C384.525 233.229 392.689 209.76 392.689 184.385C392.689 148.01 375.911 115.549 349.664 94.3091C373.094 103.162 392.584 119.748 405.179 140.831C402.915 142.254 401.41 144.774 401.41 147.645C401.41 152.088 405.015 155.689 409.461 155.689C410.487 155.689 411.468 155.497 412.369 155.148C416.814 165.896 419.596 177.48 420.404 189.564L408.548 204.773V234.718H414.003C409.923 245.881 404.089 256.172 396.851 265.272L410.357 280.015C411.271 281.007 411.198 282.557 410.202 283.459L409.536 284.071L527 412.309ZM310.814 306.836C309.179 306.836 307.537 306.798 305.89 306.727C294.35 306.216 283.302 303.944 273 300.185C274.238 300.224 275.479 300.243 276.725 300.243C302.123 300.243 325.614 292.086 344.717 278.253L359.64 293.163C360.142 293.664 360.801 293.915 361.46 293.915C362.119 293.915 362.777 293.664 363.282 293.163L363.957 292.486L364.362 292.892C348.465 301.788 330.18 306.836 310.814 306.836Z" fill="#195D7A"/>
<path d="M409.346 155.309C405.289 155.309 402 151.673 402 147.188C402 144.29 403.373 141.746 405.438 140.309C407.931 144.925 410.128 149.755 412 154.763C411.178 155.115 410.282 155.309 409.346 155.309Z" fill="#0F95AA"/>
<path d="M414.408 234.309H409V204.466L420.756 189.309C421.025 193.349 421.074 197.444 420.892 201.583C420.389 213.066 418.138 224.057 414.408 234.309Z" fill="#E7E5E5"/>
<path d="M538.664 425.929L375.926 262.309L355 283.344L517.749 446.955C523.862 453.102 533.902 452.686 539.5 446.051C544.475 440.147 544.102 431.399 538.664 425.929Z" fill="#504C4B"/>
<path d="M340 273.605L359.516 293.546C360.512 294.563 362.127 294.563 363.126 293.546L385.253 270.936C386.249 269.917 386.249 268.267 385.253 267.249L365.737 247.309L340 273.605Z" fill="#E7E7E6"/>
<path d="M369.439 250.309L372 252.868L350.468 284.309L341 274.848L369.439 250.309Z" fill="#C8C4C4"/>
<path d="M369.901 298.309L364 292.295L384.592 271.309L386 272.744L369.901 298.309Z" fill="#3D3A38"/>
<path d="M364 292.309L385 271.309L364 292.309Z" fill="#6E6C6B"/>
<path d="M277 276.337C226.175 276.337 184.972 235.135 184.972 184.309C184.972 133.483 226.175 92.2806 277 92.2806C327.826 92.2806 369.028 133.483 369.028 184.309C369.028 235.135 327.826 276.337 277 276.337ZM277 68.3091C212.934 68.3091 161 120.244 161 184.309C161 248.376 212.934 300.309 277 300.309C341.067 300.309 393 248.376 393 184.309C393 120.244 341.067 68.3091 277 68.3091Z" fill="#F8F8F9"/>
<path d="M217.07 254.309C197.439 237.427 185 212.352 185 184.358C185 133.521 226.028 92.3091 276.636 92.3091C276.757 92.3091 276.879 92.3091 277 92.3111C234.68 105.986 203.238 144.929 201.159 192.155C200.158 214.865 206.092 236.272 217.07 254.309Z" fill="#5AAACC"/>
<path d="M276.938 276.309C254.09 276.309 233.188 267.992 217.094 254.224C206.065 236.196 200.104 214.8 201.11 192.101C203.198 144.9 234.786 105.977 277.303 92.3091C327.982 92.5029 369 133.618 369 184.308C369 235.119 327.782 276.309 276.938 276.309Z" fill="#3082A5"/>
<path d="M277 276.309C226.19 276.309 185 235.119 185 184.309C185 212.289 197.489 237.35 217.197 254.224C233.28 267.993 254.168 276.309 277 276.309C327.81 276.309 369 235.119 369 184.309C369 235.119 327.81 276.309 277 276.309Z" fill="#6BC6D9"/>
<path d="M215.741 123.05C202.376 136.415 194.346 150.05 197.803 153.507C201.258 156.962 214.893 148.932 228.259 135.567C241.624 122.204 249.656 108.567 246.197 105.112C242.742 101.655 229.106 109.686 215.741 123.05Z" fill="#FEFEFE"/>
</svg>
