<svg width="348" height="65" viewBox="0 0 348 65" fill="none" xmlns="http://www.w3.org/2000/svg">
<path d="M43.702 59.794L47.14 47.698H53.458V59.794H54.358V61H43V59.794H43.702ZM52.126 59.794V48.904H48.13L45.106 59.794H52.126ZM65.8641 56.014C65.8641 56.926 65.6361 57.784 65.1801 58.588C64.7241 59.392 64.1001 60.034 63.3081 60.514C62.5161 60.994 61.6641 61.234 60.7521 61.234C59.8521 61.234 59.0001 61.006 58.1961 60.55C57.4041 60.094 56.7681 59.476 56.2881 58.696C55.8201 57.904 55.5861 57.052 55.5861 56.14C55.5861 55.204 55.8141 54.334 56.2701 53.53C56.7261 52.726 57.3501 52.096 58.1421 51.64C58.9341 51.172 59.8041 50.938 60.7521 50.938C62.1201 50.938 63.3141 51.436 64.3341 52.432C65.3541 53.428 65.8641 54.622 65.8641 56.014ZM56.9181 56.14C56.9181 56.812 57.0921 57.448 57.4401 58.048C57.7881 58.648 58.2561 59.116 58.8441 59.452C59.4321 59.788 60.0681 59.956 60.7521 59.956C62.2641 59.956 63.3681 59.296 64.0641 57.976C64.3761 57.388 64.5321 56.734 64.5321 56.014C64.5321 54.934 64.1481 54.034 63.3801 53.314C62.6241 52.582 61.7481 52.216 60.7521 52.216C60.0681 52.216 59.4261 52.396 58.8261 52.756C58.2261 53.104 57.7581 53.578 57.4221 54.178C57.0861 54.778 56.9181 55.432 56.9181 56.14ZM77.551 58.12C77.287 58.66 77.023 59.092 76.759 59.416C75.751 60.628 74.419 61.234 72.763 61.234C71.803 61.234 70.915 61.018 70.099 60.586C69.283 60.142 68.623 59.524 68.119 58.732C67.627 57.928 67.381 57.04 67.381 56.068C67.381 55.144 67.621 54.286 68.101 53.494C68.593 52.69 69.247 52.066 70.063 51.622C70.879 51.166 71.761 50.938 72.709 50.938C74.209 50.938 75.463 51.442 76.471 52.45C76.951 52.93 77.317 53.494 77.569 54.142H76.075C75.823 53.71 75.541 53.368 75.229 53.116C74.497 52.516 73.663 52.216 72.727 52.216C72.031 52.216 71.371 52.384 70.747 52.72C70.123 53.056 69.625 53.518 69.253 54.106C68.893 54.694 68.713 55.342 68.713 56.05C68.713 56.734 68.887 57.388 69.235 58.012C69.583 58.624 70.051 59.104 70.639 59.452C71.239 59.788 71.899 59.956 72.619 59.956C74.059 59.956 75.211 59.344 76.075 58.12H77.551ZM78.3153 52.342V51.136H85.0653V52.342H82.3653V61H81.0513V52.342H78.3153ZM96.2596 61H94.9816V59.146C94.5256 60.022 93.7576 60.64 92.6776 61C92.2096 61.156 91.7056 61.234 91.1656 61.234C89.5336 61.234 88.0876 60.538 86.8276 59.146C86.5276 58.822 86.2876 58.33 86.1076 57.67C85.9396 57.082 85.8556 56.53 85.8556 56.014C85.8556 55.534 85.9456 55.006 86.1256 54.43C86.3296 53.806 86.5816 53.338 86.8816 53.026C88.2136 51.634 89.6296 50.938 91.1296 50.938C91.9456 50.938 92.6956 51.118 93.3796 51.478C94.0756 51.826 94.6096 52.342 94.9816 53.026V51.154H96.2596V61ZM87.1876 56.122C87.1876 56.83 87.3676 57.472 87.7276 58.048C88.0876 58.624 88.5856 59.086 89.2216 59.434C89.8576 59.782 90.5056 59.956 91.1656 59.956C91.8376 59.956 92.4676 59.782 93.0556 59.434C93.6556 59.086 94.1236 58.618 94.4596 58.03C94.8076 57.43 94.9816 56.8 94.9816 56.14C94.9816 55.432 94.8136 54.778 94.4776 54.178C94.1536 53.566 93.6916 53.086 93.0916 52.738C92.4916 52.39 91.8376 52.216 91.1296 52.216C90.0496 52.216 89.1196 52.6 88.3396 53.368C87.5716 54.136 87.1876 55.054 87.1876 56.122ZM98.5207 51.154H100.933C101.893 51.154 102.637 51.322 103.165 51.658C103.969 52.174 104.371 52.906 104.371 53.854C104.371 54.61 104.077 55.228 103.489 55.708C104.425 56.2 104.893 57.01 104.893 58.138C104.893 58.606 104.779 59.056 104.551 59.488C104.335 59.92 104.029 60.244 103.633 60.46C103.069 60.772 102.511 60.94 101.959 60.964L100.933 61H98.5207V51.154ZM102.751 59.524C102.979 59.404 103.171 59.212 103.327 58.948C103.483 58.684 103.561 58.42 103.561 58.156C103.561 57.34 103.201 56.818 102.481 56.59C102.145 56.482 101.539 56.428 100.663 56.428H99.8347V59.758H100.825C101.797 59.758 102.439 59.68 102.751 59.524ZM102.391 54.952C102.847 54.724 103.075 54.334 103.075 53.782C103.075 53.254 102.853 52.864 102.409 52.612C102.133 52.456 101.587 52.378 100.771 52.378H99.8347V55.204H100.681C101.485 55.204 102.055 55.12 102.391 54.952ZM106.73 51.154H108.062V57.04L112.58 51.154H114.29L110.474 56.086L114.542 61H112.832L109.628 57.112L108.062 59.128V61H106.73V51.154ZM125.791 61H124.513V59.146C124.057 60.022 123.289 60.64 122.209 61C121.741 61.156 121.237 61.234 120.697 61.234C119.065 61.234 117.619 60.538 116.359 59.146C116.059 58.822 115.819 58.33 115.639 57.67C115.471 57.082 115.387 56.53 115.387 56.014C115.387 55.534 115.477 55.006 115.657 54.43C115.861 53.806 116.113 53.338 116.413 53.026C117.745 51.634 119.161 50.938 120.661 50.938C121.477 50.938 122.227 51.118 122.911 51.478C123.607 51.826 124.141 52.342 124.513 53.026V51.154H125.791V61ZM116.719 56.122C116.719 56.83 116.899 57.472 117.259 58.048C117.619 58.624 118.117 59.086 118.753 59.434C119.389 59.782 120.037 59.956 120.697 59.956C121.369 59.956 121.999 59.782 122.587 59.434C123.187 59.086 123.655 58.618 123.991 58.03C124.339 57.43 124.513 56.8 124.513 56.14C124.513 55.432 124.345 54.778 124.009 54.178C123.685 53.566 123.223 53.086 122.623 52.738C122.023 52.39 121.369 52.216 120.661 52.216C119.581 52.216 118.651 52.6 117.871 53.368C117.103 54.136 116.719 55.054 116.719 56.122Z" fill="black"/>
<path d="M199.85 54.322C199.85 55.57 199.532 56.728 198.896 57.796C198.26 58.864 197.396 59.704 196.304 60.316C195.212 60.928 194.048 61.234 192.812 61.234C191.588 61.234 190.436 60.928 189.356 60.316C188.276 59.704 187.412 58.876 186.764 57.832C186.116 56.776 185.792 55.636 185.792 54.412C185.792 53.164 186.11 52.006 186.746 50.938C187.382 49.87 188.24 49.03 189.32 48.418C190.4 47.806 191.564 47.5 192.812 47.5C194.048 47.5 195.206 47.8 196.286 48.4C197.366 49 198.23 49.828 198.878 50.884C199.526 51.94 199.85 53.086 199.85 54.322ZM187.124 54.412C187.124 55.924 187.694 57.226 188.834 58.318C189.986 59.41 191.318 59.956 192.83 59.956C194.414 59.956 195.758 59.404 196.862 58.3C197.966 57.196 198.518 55.87 198.518 54.322C198.518 53.314 198.26 52.39 197.744 51.55C197.228 50.698 196.526 50.026 195.638 49.534C194.762 49.03 193.826 48.778 192.83 48.778C191.234 48.778 189.884 49.33 188.78 50.434C187.676 51.538 187.124 52.864 187.124 54.412ZM204.785 48.148C205.337 47.908 205.871 47.716 206.387 47.572L208.079 47.122C208.667 46.966 209.099 46.786 209.375 46.582C209.783 46.282 209.987 46.012 209.987 45.772L210.923 46.438C210.923 46.786 210.701 47.146 210.257 47.518C209.909 47.806 209.531 48.028 209.123 48.184C208.655 48.364 208.043 48.562 207.287 48.778C206.471 49.018 205.949 49.18 205.721 49.264C205.121 49.492 204.659 49.768 204.335 50.092C203.615 50.812 203.141 51.676 202.913 52.684C203.285 52.168 203.789 51.748 204.425 51.424C205.061 51.1 205.793 50.938 206.621 50.938C207.989 50.938 209.183 51.436 210.203 52.432C211.223 53.428 211.733 54.622 211.733 56.014C211.733 56.926 211.505 57.784 211.049 58.588C210.593 59.392 209.969 60.034 209.177 60.514C208.385 60.994 207.533 61.234 206.621 61.234C205.709 61.234 204.857 61.006 204.065 60.55C203.273 60.094 202.637 59.482 202.157 58.714C201.689 57.934 201.455 57.076 201.455 56.14C201.455 55.924 201.467 55.6 201.491 55.168C201.515 54.736 201.527 54.412 201.527 54.196C201.527 53.836 201.569 53.452 201.653 53.044C201.677 52.9 201.725 52.66 201.797 52.324C202.181 50.26 203.177 48.868 204.785 48.148ZM202.787 56.14C202.787 57.184 203.165 58.084 203.921 58.84C204.677 59.584 205.577 59.956 206.621 59.956C208.109 59.956 209.207 59.302 209.915 57.994C210.239 57.394 210.401 56.734 210.401 56.014C210.401 54.934 210.017 54.034 209.249 53.314C208.493 52.582 207.617 52.216 206.621 52.216C205.937 52.216 205.295 52.396 204.695 52.756C204.095 53.104 203.627 53.578 203.291 54.178C202.955 54.778 202.787 55.432 202.787 56.14ZM214.455 56.464V55.222H215.787C216.267 55.222 216.657 55.096 216.957 54.844C217.269 54.58 217.425 54.214 217.425 53.746C217.425 53.338 217.287 52.99 217.011 52.702C216.735 52.414 216.393 52.27 215.985 52.27C215.565 52.27 215.199 52.414 214.887 52.702C214.575 52.99 214.419 53.344 214.419 53.764L214.401 53.926H213.069V53.746C213.069 52.978 213.339 52.33 213.879 51.802C214.431 51.262 215.091 50.992 215.859 50.992C216.999 50.992 217.833 51.43 218.361 52.306C218.613 52.714 218.739 53.188 218.739 53.728C218.739 54.52 218.457 55.162 217.893 55.654L217.659 55.816C217.731 55.852 217.857 55.948 218.037 56.104C218.661 56.644 218.973 57.346 218.973 58.21C218.973 59.026 218.667 59.722 218.055 60.298C217.443 60.874 216.729 61.162 215.913 61.162C215.385 61.162 214.869 61.03 214.365 60.766C213.321 60.214 212.799 59.344 212.799 58.156V57.976H214.167V58.156C214.167 58.624 214.335 59.032 214.671 59.38C215.019 59.728 215.427 59.902 215.895 59.902C216.399 59.902 216.819 59.746 217.155 59.434C217.503 59.11 217.677 58.702 217.677 58.21C217.677 57.706 217.509 57.292 217.173 56.968C216.837 56.632 216.417 56.464 215.913 56.464H214.455ZM230.452 56.014C230.452 56.926 230.224 57.784 229.768 58.588C229.312 59.392 228.688 60.034 227.896 60.514C227.104 60.994 226.252 61.234 225.34 61.234C224.44 61.234 223.588 61.006 222.784 60.55C221.992 60.094 221.356 59.476 220.876 58.696C220.408 57.904 220.174 57.052 220.174 56.14C220.174 55.204 220.402 54.334 220.858 53.53C221.314 52.726 221.938 52.096 222.73 51.64C223.522 51.172 224.392 50.938 225.34 50.938C226.708 50.938 227.902 51.436 228.922 52.432C229.942 53.428 230.452 54.622 230.452 56.014ZM221.506 56.14C221.506 56.812 221.68 57.448 222.028 58.048C222.376 58.648 222.844 59.116 223.432 59.452C224.02 59.788 224.656 59.956 225.34 59.956C226.852 59.956 227.956 59.296 228.652 57.976C228.964 57.388 229.12 56.734 229.12 56.014C229.12 54.934 228.736 54.034 227.968 53.314C227.212 52.582 226.336 52.216 225.34 52.216C224.656 52.216 224.014 52.396 223.414 52.756C222.814 53.104 222.346 53.578 222.01 54.178C221.674 54.778 221.506 55.432 221.506 56.14ZM233.607 51.154V52.846C234.075 52.018 234.885 51.454 236.037 51.154C236.589 51.01 237.087 50.938 237.531 50.938C239.031 50.938 240.375 51.574 241.563 52.846C241.635 52.906 241.731 53.008 241.851 53.152C242.439 54.04 242.733 55.03 242.733 56.122C242.733 57.058 242.493 57.922 242.013 58.714C241.533 59.494 240.879 60.112 240.051 60.568C239.235 61.012 238.353 61.234 237.405 61.234C236.637 61.234 235.917 61.06 235.245 60.712C234.501 60.328 233.979 59.812 233.679 59.164V64.456H232.347V51.154H233.607ZM241.401 56.104C241.401 54.604 240.759 53.482 239.475 52.738C238.875 52.39 238.227 52.216 237.531 52.216C236.835 52.216 236.181 52.378 235.569 52.702C234.957 53.026 234.471 53.482 234.111 54.07C233.763 54.646 233.589 55.288 233.589 55.996C233.589 57.124 233.937 58.042 234.633 58.75C235.413 59.554 236.349 59.956 237.441 59.956C238.149 59.956 238.809 59.794 239.421 59.47C240.045 59.134 240.531 58.666 240.879 58.066C241.227 57.466 241.401 56.812 241.401 56.104ZM260.805 52.36L258.339 57.058L261.705 60.334L260.751 61.234L257.709 58.264C257.373 58.948 257.037 59.476 256.701 59.848C255.885 60.772 254.859 61.234 253.623 61.234C252.495 61.234 251.523 60.832 250.707 60.028C249.903 59.212 249.501 58.24 249.501 57.112C249.501 55.492 250.497 54.172 252.489 53.152C252.009 52.672 251.655 52.228 251.427 51.82C251.199 51.412 251.085 50.932 251.085 50.38C251.085 49.792 251.277 49.246 251.661 48.742C252.033 48.274 252.501 47.926 253.065 47.698C253.425 47.554 253.803 47.482 254.199 47.482C254.763 47.482 255.303 47.62 255.819 47.896C256.923 48.484 257.475 49.396 257.475 50.632C257.475 51.94 256.605 52.936 254.865 53.62L257.385 56.104L259.311 52.36H260.805ZM252.939 54.484C251.535 55.228 250.833 56.14 250.833 57.22C250.833 57.94 251.097 58.576 251.625 59.128C252.165 59.68 252.795 59.956 253.515 59.956C254.295 59.956 254.955 59.686 255.495 59.146C255.855 58.786 256.263 58.174 256.719 57.31L253.515 54.178L252.939 54.484ZM254.271 48.76C253.755 48.76 253.317 48.922 252.957 49.246C252.597 49.558 252.417 49.966 252.417 50.47C252.417 50.962 252.657 51.448 253.137 51.928C253.197 51.988 253.275 52.066 253.371 52.162C253.467 52.258 253.569 52.36 253.677 52.468C253.797 52.576 253.863 52.636 253.875 52.648C255.387 52.12 256.143 51.388 256.143 50.452C256.143 49.984 255.951 49.588 255.567 49.264C255.183 48.928 254.751 48.76 254.271 48.76ZM281.94 54.322C281.94 55.57 281.622 56.728 280.986 57.796C280.35 58.864 279.486 59.704 278.394 60.316C277.302 60.928 276.138 61.234 274.902 61.234C273.678 61.234 272.526 60.928 271.446 60.316C270.366 59.704 269.502 58.876 268.854 57.832C268.206 56.776 267.882 55.636 267.882 54.412C267.882 53.164 268.2 52.006 268.836 50.938C269.472 49.87 270.33 49.03 271.41 48.418C272.49 47.806 273.654 47.5 274.902 47.5C276.138 47.5 277.296 47.8 278.376 48.4C279.456 49 280.32 49.828 280.968 50.884C281.616 51.94 281.94 53.086 281.94 54.322ZM269.214 54.412C269.214 55.924 269.784 57.226 270.924 58.318C272.076 59.41 273.408 59.956 274.92 59.956C276.504 59.956 277.848 59.404 278.952 58.3C280.056 57.196 280.608 55.87 280.608 54.322C280.608 53.314 280.35 52.39 279.834 51.55C279.318 50.698 278.616 50.026 277.728 49.534C276.852 49.03 275.916 48.778 274.92 48.778C273.324 48.778 271.974 49.33 270.87 50.434C269.766 51.538 269.214 52.864 269.214 54.412ZM283.886 51.154H292.166V61H290.834V52.36H285.2V61H283.886V51.154ZM300.948 51.154V61H299.652V52.378H296.988L294.594 61H293.19L295.998 51.154H300.948ZM313.336 61H312.058V59.146C311.602 60.022 310.834 60.64 309.754 61C309.286 61.156 308.782 61.234 308.242 61.234C306.61 61.234 305.164 60.538 303.904 59.146C303.604 58.822 303.364 58.33 303.184 57.67C303.016 57.082 302.932 56.53 302.932 56.014C302.932 55.534 303.022 55.006 303.202 54.43C303.406 53.806 303.658 53.338 303.958 53.026C305.29 51.634 306.706 50.938 308.206 50.938C309.022 50.938 309.772 51.118 310.456 51.478C311.152 51.826 311.686 52.342 312.058 53.026V51.154H313.336V61ZM304.264 56.122C304.264 56.83 304.444 57.472 304.804 58.048C305.164 58.624 305.662 59.086 306.298 59.434C306.934 59.782 307.582 59.956 308.242 59.956C308.914 59.956 309.544 59.782 310.132 59.434C310.732 59.086 311.2 58.618 311.536 58.03C311.884 57.43 312.058 56.8 312.058 56.14C312.058 55.432 311.89 54.778 311.554 54.178C311.23 53.566 310.768 53.086 310.168 52.738C309.568 52.39 308.914 52.216 308.206 52.216C307.126 52.216 306.196 52.6 305.416 53.368C304.648 54.136 304.264 55.054 304.264 56.122ZM314.499 52.342V51.136H321.249V52.342H318.549V61H317.235V52.342H314.499ZM332.443 61H331.165V59.146C330.709 60.022 329.941 60.64 328.861 61C328.393 61.156 327.889 61.234 327.349 61.234C325.717 61.234 324.271 60.538 323.011 59.146C322.711 58.822 322.471 58.33 322.291 57.67C322.123 57.082 322.039 56.53 322.039 56.014C322.039 55.534 322.129 55.006 322.309 54.43C322.513 53.806 322.765 53.338 323.065 53.026C324.397 51.634 325.813 50.938 327.313 50.938C328.129 50.938 328.879 51.118 329.563 51.478C330.259 51.826 330.793 52.342 331.165 53.026V51.154H332.443V61ZM323.371 56.122C323.371 56.83 323.551 57.472 323.911 58.048C324.271 58.624 324.769 59.086 325.405 59.434C326.041 59.782 326.689 59.956 327.349 59.956C328.021 59.956 328.651 59.782 329.239 59.434C329.839 59.086 330.307 58.618 330.643 58.03C330.991 57.43 331.165 56.8 331.165 56.14C331.165 55.432 330.997 54.778 330.661 54.178C330.337 53.566 329.875 53.086 329.275 52.738C328.675 52.39 328.021 52.216 327.313 52.216C326.233 52.216 325.303 52.6 324.523 53.368C323.755 54.136 323.371 55.054 323.371 56.122Z" fill="#7C7C7C"/>
<path d="M3 16C1.61929 16 0.5 17.1193 0.5 18.5C0.5 19.8807 1.61929 21 3 21V16ZM3 21H174V16H3V21Z" fill="#CCA75D"/>
<circle cx="85" cy="19" r="16.5" fill="white" stroke="#CCA75D" stroke-width="5"/>
<g clip-path="url(#clip0)">
<path d="M93.2576 11.1716C92.4905 10.7342 91.6349 11.5777 91.1333 12.0776C89.9826 13.2647 89.009 14.6393 87.9172 15.8889C86.7075 17.2635 85.5864 18.6381 84.3472 19.9814C83.639 20.7312 82.8719 21.5435 82.3998 22.4807C81.3377 21.3872 80.423 20.2001 79.2428 19.2317C78.3872 18.5444 76.9709 18.0445 77.0005 19.7003C77.0595 21.8559 78.8593 24.1677 80.187 25.636C80.7476 26.2608 81.4852 26.9168 82.3408 26.9481C83.3735 27.0105 84.4357 25.6984 85.0553 24.9799C86.147 23.7303 87.0321 22.3244 88.0353 21.0436C89.3335 19.3566 90.6612 17.7008 91.9299 15.9826C92.7265 14.9204 95.2344 12.2962 93.2576 11.1716ZM78.2986 19.5753C78.2691 19.5753 78.2396 19.5753 78.1806 19.6065C78.0626 19.5753 77.9741 19.544 77.856 19.4815C77.9446 19.4191 78.0921 19.4503 78.2986 19.5753Z" fill="black"/>
</g>
<path d="M345 16C346.381 16 347.5 17.1193 347.5 18.5C347.5 19.8807 346.381 21 345 21V16ZM345 21H174V16H345V21Z" fill="#D3D3D3"/>
<circle cx="256" cy="19" r="16.5" fill="white" stroke="#D3D3D3" stroke-width="5"/>
<path d="M251.123 24.68L256.763 19.24C257.536 18.4933 258.056 17.94 258.323 17.58C258.843 16.8733 259.103 16.1733 259.103 15.48C259.103 14.28 258.563 13.3867 257.483 12.8C256.99 12.5333 256.45 12.4 255.863 12.4C254.663 12.4 253.756 12.9133 253.143 13.94C252.863 14.4067 252.723 15.0933 252.723 16H251.243C251.243 13.96 252.01 12.4933 253.543 11.6C254.25 11.1867 255.063 10.98 255.983 10.98C257.25 10.98 258.316 11.4133 259.183 12.28C260.116 13.2133 260.583 14.2733 260.583 15.46C260.583 16.6467 260.143 17.74 259.263 18.74C258.85 19.22 258.343 19.74 257.743 20.3L253.163 24.66H260.483L260.503 26H251.123V24.68Z" fill="#7C7C7C"/>
<defs>
<clipPath id="clip0">
<rect width="17" height="18" fill="white" transform="translate(77 10)"/>
</clipPath>
</defs>
</svg>
