<svg width="63" height="63" viewBox="0 0 63 63" fill="none" xmlns="http://www.w3.org/2000/svg">
<path d="M61.0312 6.89062H1.96875C1.70768 6.89062 1.4573 6.99434 1.27269 7.17894C1.08809 7.36355 0.984375 7.61393 0.984375 7.875V25.5938C0.984375 25.8548 1.08809 26.1052 1.27269 26.2898C1.4573 26.4744 1.70768 26.5781 1.96875 26.5781H61.0312C61.2923 26.5781 61.5427 26.4744 61.7273 26.2898C61.9119 26.1052 62.0156 25.8548 62.0156 25.5938V7.875C62.0156 7.61393 61.9119 7.36355 61.7273 7.17894C61.5427 6.99434 61.2923 6.89062 61.0312 6.89062ZM14.7656 24.6094H2.95312V8.85938H14.7656V24.6094ZM46.2656 24.6094H16.7344V17.7188H46.2656V24.6094ZM46.2656 15.75H16.7344V8.85938H46.2656V15.75ZM60.0469 24.6094H48.2344V8.85938H60.0469V24.6094Z" fill="white"/>
<path d="M61.0312 48.2344H58.0781V35.4375C58.0781 35.1764 57.9744 34.926 57.7898 34.7414C57.6052 34.5568 57.3548 34.4531 57.0938 34.4531H54.1406C53.8796 34.4531 53.6292 34.5568 53.4446 34.7414C53.26 34.926 53.1562 35.1764 53.1562 35.4375V36.4219H45.2812V35.4375C45.2812 35.1764 45.1775 34.926 44.9929 34.7414C44.8083 34.5568 44.5579 34.4531 44.2969 34.4531H41.3438C41.0827 34.4531 40.8323 34.5568 40.6477 34.7414C40.4631 34.926 40.3594 35.1764 40.3594 35.4375V48.2344H15.75V40.3594C15.75 39.8372 15.9574 39.3365 16.3266 38.9673C16.6958 38.598 17.1966 38.3906 17.7188 38.3906C18.2409 38.3906 18.7417 38.598 19.1109 38.9673C19.4801 39.3365 19.6875 39.8372 19.6875 40.3594V41.3438C19.6875 41.6048 19.7912 41.8552 19.9758 42.0398C20.1604 42.2244 20.4108 42.3281 20.6719 42.3281C20.9329 42.3281 21.1833 42.2244 21.3679 42.0398C21.5525 41.8552 21.6562 41.6048 21.6562 41.3438V40.3594C21.6562 39.3151 21.2414 38.3136 20.503 37.5751C19.7646 36.8367 18.763 36.4219 17.7188 36.4219C16.6745 36.4219 15.6729 36.8367 14.9345 37.5751C14.1961 38.3136 13.7812 39.3151 13.7812 40.3594V48.2344H12.7969V45.2812C12.7969 45.0202 12.6932 44.7698 12.5086 44.5852C12.324 44.4006 12.0736 44.2969 11.8125 44.2969H8.85938C8.5983 44.2969 8.34792 44.4006 8.16332 44.5852C7.97871 44.7698 7.875 45.0202 7.875 45.2812V48.2344H1.96875C1.70768 48.2344 1.4573 48.3381 1.27269 48.5227C1.08809 48.7073 0.984375 48.9577 0.984375 49.2188V55.125C0.984375 55.3861 1.08809 55.6365 1.27269 55.8211C1.4573 56.0057 1.70768 56.1094 1.96875 56.1094H61.0312C61.2923 56.1094 61.5427 56.0057 61.7273 55.8211C61.9119 55.6365 62.0156 55.3861 62.0156 55.125V49.2188C62.0156 48.9577 61.9119 48.7073 61.7273 48.5227C61.5427 48.3381 61.2923 48.2344 61.0312 48.2344ZM55.125 36.4219H56.1094V48.2344H55.125V36.4219ZM45.2812 38.3906H53.1562V44.2969H45.2812V38.3906ZM45.2812 46.2656H53.1562V48.2344H45.2812V46.2656ZM42.3281 36.4219H43.3125V48.2344H42.3281V36.4219ZM9.84375 46.2656H10.8281V48.2344H9.84375V46.2656ZM60.0469 54.1406H2.95312V50.2031H60.0469V54.1406Z" fill="white"/>
<path d="M11.8125 9.84375H5.90625C5.64518 9.84375 5.3948 9.94746 5.21019 10.1321C5.02559 10.3167 4.92188 10.5671 4.92188 10.8281C4.92188 11.0892 5.02559 11.3396 5.21019 11.5242C5.3948 11.7088 5.64518 11.8125 5.90625 11.8125H11.8125C12.0736 11.8125 12.324 11.7088 12.5086 11.5242C12.6932 11.3396 12.7969 11.0892 12.7969 10.8281C12.7969 10.5671 12.6932 10.3167 12.5086 10.1321C12.324 9.94746 12.0736 9.84375 11.8125 9.84375Z" fill="white"/>
<path d="M51.1875 11.8125H57.0938C57.3548 11.8125 57.6052 11.7088 57.7898 11.5242C57.9744 11.3396 58.0781 11.0892 58.0781 10.8281C58.0781 10.5671 57.9744 10.3167 57.7898 10.1321C57.6052 9.94746 57.3548 9.84375 57.0938 9.84375H51.1875C50.9264 9.84375 50.676 9.94746 50.4914 10.1321C50.3068 10.3167 50.2031 10.5671 50.2031 10.8281C50.2031 11.0892 50.3068 11.3396 50.4914 11.5242C50.676 11.7088 50.9264 11.8125 51.1875 11.8125Z" fill="white"/>
</svg>
