<svg width="52" height="52" viewBox="0 0 52 52" fill="none" xmlns="http://www.w3.org/2000/svg">
<path d="M12.1875 25.1875H0V50.375H3.25V52H4.875V50.375H25.0868V52H26.7118V50.375H48.0399V52H49.6649V50.375H52V25.1875H12.1875ZM12.1875 48.75H1.625V32.5H12.1875V48.75ZM12.1875 30.875H1.625V26.8125H12.1875V30.875ZM38.1875 48.75H13.8125V26.8125H38.1875V48.75ZM50.375 48.75H39.8125V32.5H50.375V48.75ZM50.375 30.875H39.8125V26.8125H50.375V30.875Z" fill="white"/>
<path d="M8.9375 35.75H10.5625V39.8125H8.9375V35.75Z" fill="white"/>
<path d="M41.4375 35.75H43.0625V39.8125H41.4375V35.75Z" fill="white"/>
<path d="M35.75 32.5H16.25V46.3125H35.75V32.5ZM34.125 44.6875H17.875V34.125H34.125V44.6875Z" fill="white"/>
<path d="M16.25 28.4375H35.75V30.0625H16.25V28.4375Z" fill="white"/>
<path d="M17.875 0H0V13.8125H17.875V0ZM8.125 12.1875H1.625V1.625H8.125V12.1875ZM16.25 12.1875H9.75V1.625H16.25V12.1875Z" fill="white"/>
<path d="M34.125 13.8125H52V0H34.125V13.8125ZM43.875 1.625H50.375V12.1875H43.875V1.625ZM35.75 1.625H42.25V12.1875H35.75V1.625Z" fill="white"/>
<path d="M20.3125 0V12.7294L18.2812 15.4375H14.625V17.0625H37.375V15.4375H33.7188L31.6875 12.7294V0H20.3125ZM21.9375 1.625H30.0625V12.1875H21.9375V1.625ZM20.3125 15.4375L21.5312 13.8125H30.4688L31.6875 15.4375H20.3125Z" fill="white"/>
<path d="M4.875 4.0625H6.5V8.125H4.875V4.0625Z" fill="white"/>
<path d="M13 4.0625H14.625V8.125H13V4.0625Z" fill="white"/>
<path d="M38.1875 4.0625H39.8125V8.125H38.1875V4.0625Z" fill="white"/>
<path d="M46.3125 4.0625H47.9375V8.125H46.3125V4.0625Z" fill="white"/>
<path d="M21.9375 35.75H30.875V37.375H21.9375V35.75Z" fill="white"/>
</svg>
