<svg xmlns="http://www.w3.org/2000/svg" width="187.087" height="58.32" overflow="visible"><path fill-rule="evenodd" clip-rule="evenodd" fill="#FFF" stroke="gold" stroke-width=".351" stroke-miterlimit="2.613" d="M92.972 57.264c18.982 0 34.371-12.779 34.371-28.544 0-15.764-15.389-28.544-34.371-28.544-18.981 0-34.37 12.78-34.37 28.544 0 15.764 15.389 28.544 34.37 28.544h0z"/><path fill-rule="evenodd" clip-rule="evenodd" fill="#FFF" stroke="gold" stroke-width=".351" stroke-miterlimit="2.613" d="M92.972 55.407c17.962 0 32.525-11.948 32.525-26.688 0-14.739-14.563-26.688-32.525-26.688S60.448 13.981 60.448 28.72 75.01 55.407 92.972 55.407h0z"/><path fill-rule="evenodd" clip-rule="evenodd" d="M71.442 36.433c-1.468.82-5.545 1.969-6.688-.657-1.631.821-5.056 1.478-6.688-.656-2.773.656-5.872 1.97-7.014-1.148-2.447.656-8.482 2.134-9.134-1.805-3.588.492-8.808.82-9.46-2.954-3.099 0-8.481-.492-8.481-4.102-3.099 0-8.482-2.133-7.829-4.595-2.773-.328-6.525-3.282-6.525-5.251-2.772-.821-5.872-2.954-5.219-5.744C2.773 8.536 0 7.387 0 5.747c0-1.641 1.305-2.954 2.773-2.954 1.468 0 7.014.821 8.971.821 1.958 0 25.608-.492 31.154-.165 5.546.329 12.56.165 15.985-.164s18.036-1.124 20.063 2.954c1.468 2.954.327 3.938-.979 5.087-1.305 1.149-5.709 3.282-5.709 10.174s.815 10.502-.816 14.933z"/><path fill-rule="evenodd" clip-rule="evenodd" fill="#FFF" d="M5.22 4.434c5.056 0 16.8.328 19.083.328 2.284 0 18.432 1.805 20.959 2.625 1.142.329 1.387 1.477 0 1.559-1.386.082-18.023.329-20.47.329s-19.2.233-21.448-2.708c-1.632-2.133.407-2.051 1.876-2.133zm3.017 6.399c2.936.082 17.615.164 19.328.082 1.712-.082 15.006-.82 16.556-.903 1.549-.082 3.018.328 3.018.821 0 .492-.326.902-2.121 1.313-1.794.41-18.35 2.297-30.909 2.051-2.365.083-5.545-1.148-6.361-2.297-.816-1.149.081-1.067.489-1.067zm5.709 5.416c2.039 0 26.097-1.805 31.154-2.872 1.713-.164 2.854-.246 3.018.492s.082 1.066-1.387 1.477c-1.468.41-19.328 3.774-28.381 3.938-3.018-.082-6.525-2.953-4.404-3.035zm6.117 5.086c2.854-.328 21.856-3.364 26.995-4.759 2.039-.492 3.018-.246 3.262.328.245.575.245 1.559-1.223 2.051-1.468.493-18.268 4.431-21.367 4.595s-6.769-.574-7.748-1.313c-.98-.737.081-.902.081-.902zm7.666 4.267c2.039-.41 18.595-4.184 23.325-5.989 1.386-.411 1.875 0 2.12.492.245.493.327 1.231-.571 1.641-.897.411-13.62 5.744-19.654 6.072-2.203 0-3.983-.814-4.975-1.313-.653-.329-.409-.329-.245-.903zm26.994-3.446c-1.876.902-13.293 5.743-17.697 6.728-1.224.328-1.876 1.231-.408 1.723 1.468.493 4.893.247 6.932-.328 2.039-.574 10.316-3.281 13.497-6.399-.652-.329-2.161-1.396-2.324-1.724zm3.425 2.79c-1.224.82-9.215 5.004-12.886 6.154-1.223.41-.652 1.559.571 1.723 1.223.164 4.322.164 7.992-2.052 2.202-1.313 5.464-3.692 6.443-4.594-.489-.247-1.549-.903-2.12-1.231zm3.752 2.215c-2.087 1.438-6.901 4.636-7.666 5.169-1.061.738-1.631 1.969.489 1.805s6.035-1.723 9.134-6.235c-.407-.124-1.468-.493-1.957-.739zm3.67 1.231c-1.305 1.313-3.262 3.445-4.648 4.595-.897.902-.245 2.543 1.305 1.805 1.55-.738 4.363-3.281 5.097-5.825-.572-.165-1.224-.329-1.754-.575zm3.262 2.05c-1.06 1.313-2.12 2.38-2.773 3.2-.652.82.163 1.641.816 1.887.652.246 1.876.903 3.344-2.051l-1.387-3.036z"/><path fill-rule="evenodd" clip-rule="evenodd" fill="#FFF" d="M37.189 4.105c2.12 0 9.297.492 11.907.492s8.645-.164 10.847-.328 7.992-.246 10.276 0c2.283.246 7.34.574 8.237 2.954s-1.06 3.692-2.283 4.595c-1.224.903-4.975 3.118-5.138 8.861-.979-.41-2.365-.656-1.387-2.708.571-1.149 3.344-4.923 2.692-6.646-.653-1.723-2.773-3.118-7.585-3.282s-11.581 0-13.946-.411c-2.365-.41-11.5-2.708-13.375-2.954-.816-.08-.816-.49-.245-.573z"/><path fill-rule="evenodd" clip-rule="evenodd" fill="#FFF" d="M56.436 8.7c1.712 0 7.992-.164 9.786.164 1.794.328 4.031.848 4.975 2.461.815 1.395-.571 3.61-1.223 4.513-.653.902-2.528 2.708-3.262 3.364-.653.492-1.876-.328-.815-1.559-1.387.82-3.099.656-2.284-1.231-1.224.985-3.263 1.067-2.039-1.477-.815.656-3.099.575-1.631-1.395-1.224.41-2.61-.328-1.713-1.559-1.549.246-2.447-.902-.815-1.805-1.55.411-1.958-1.394-.979-1.476zm-7.043-.549c-2.141 0-2.184 2.326.257 2.197 1.924-.102 4.239-.56 4.196-1.335-.043-.776-2.869-.819-4.453-.862zm.299 2.511c-1.199.216-1.242.775-1.071 1.206.171.431.814 1.163 2.912.862 2.098-.302 3.254-1.163 3.254-1.896s-3.81-.258-5.095-.172zm2.056 2.585c-.813.129-1.57.733-1.327 1.464.299.905 2.141 1.164 4.196.129 2.055-1.034 1.927-1.292 1.712-1.852-.214-.56-2.355-.129-4.581.259zm3.853 1.335a14.72 14.72 0 00-2.869 1.378c-.814.517-1.456 2.369 1.67 1.551 3.125-.818 3.297-1.896 2.868-2.627-.427-.733-1.412-.345-1.669-.302zm-.973 3.584c-1.071.646-.557 3.144 1.798 2.024 2.354-1.12 3.981-2.326 3.639-3.145-.342-.818-3.039-.172-5.437 1.121zm6.205.603c-1.114.517-4.753 1.723-3.554 3.273.6.775 1.756.129 2.227-.172.471-.302 3.04-2.068 2.398-3.016-.282-.415-.814-.215-1.071-.085zm-.249 2.894c-2.355 1.507.3 2.8 1.798 1.507.813-.701 2.475-1.966 1.712-2.886-.641-.775-2.782.991-3.51 1.379zm3.733.611c-.728.818-2.433 2.053-1.113 2.972 1.113.775 1.798-.043 2.312-.603s2.483-2.542 1.755-3.36-2.312.603-2.954.991zm4.981.316c-.771-.603-2.312 1.034-2.868 2.025-.557.99-.128 1.55.428 1.809.557.259 1.542-.301 1.755-.861.214-.561 1.455-2.198.685-2.973z"/><path fill="none" stroke="gold" stroke-miterlimit="2.613" d="M74.867 5.911c1.142.574 2.446 1.395 2.528 2.215.082.82-.163 1.641-1.55 2.625"/><path fill-rule="evenodd" clip-rule="evenodd" d="M115.645 36.433c1.468.82 5.546 1.969 6.688-.657 1.631.821 5.057 1.478 6.688-.656 2.772.656 5.872 1.97 7.014-1.148 2.446.656 8.481 2.134 9.134-1.805 3.589.492 8.809.82 9.461-2.954 3.099 0 8.481-.492 8.481-4.102 3.099 0 8.481-2.133 7.829-4.595 2.773-.328 6.524-3.282 6.524-5.251 2.772-.821 5.872-2.954 5.22-5.744 1.631-.984 4.404-2.133 4.404-3.774s-1.306-2.954-2.773-2.954-7.014.821-8.971.821c-1.958 0-25.608-.492-31.154-.165-5.546.329-12.56.165-15.984-.164-3.426-.328-18.036-1.124-20.063 2.954-1.468 2.954-.326 3.938.979 5.087s5.709 3.282 5.709 10.174-.817 10.502.814 14.933z"/><path fill-rule="evenodd" clip-rule="evenodd" fill="#FFF" d="M181.867 4.434c-5.057 0-16.801.328-19.084.328-2.284 0-18.432 1.805-20.96 2.625-1.142.329-1.386 1.477 0 1.559 1.387.082 18.023.329 20.471.329 2.446 0 19.2.233 21.449-2.708 1.631-2.133-.408-2.051-1.876-2.133zm-3.017 6.399c-2.937.082-17.616.164-19.329.082-1.713-.082-15.006-.82-16.556-.903-1.549-.082-3.018.328-3.018.821 0 .492.327.902 2.121 1.313s18.35 2.297 30.909 2.051c2.365.083 5.546-1.148 6.361-2.297.816-1.149-.081-1.067-.488-1.067zm-5.709 5.416c-2.039 0-26.098-1.805-31.154-2.872-1.712-.164-2.854-.246-3.018.492s-.081 1.066 1.387 1.477c1.468.41 19.328 3.774 28.381 3.938 3.017-.082 6.524-2.953 4.404-3.035zm-6.117 5.086c-2.854-.328-21.857-3.364-26.995-4.759-2.039-.492-3.018-.246-3.263.328-.244.575-.244 1.559 1.224 2.051 1.468.493 18.269 4.431 21.367 4.595 3.1.164 6.77-.574 7.748-1.313.979-.737-.081-.902-.081-.902zm-7.667 4.267c-2.038-.41-18.594-4.184-23.324-5.989-1.387-.411-1.876 0-2.12.492-.245.493-.326 1.231.57 1.641.897.411 13.62 5.744 19.655 6.072 2.201 0 3.982-.814 4.975-1.313.653-.329.408-.329.244-.903zm-26.994-3.446c1.876.902 13.293 5.743 17.697 6.728 1.224.328 1.876 1.231.407 1.723-1.468.493-4.893.247-6.932-.328-2.039-.574-10.316-3.281-13.497-6.399.653-.329 2.162-1.396 2.325-1.724zm-3.425 2.79c1.224.82 9.216 5.004 12.886 6.154 1.224.41.652 1.559-.57 1.723-1.224.164-4.322.164-7.992-2.052-2.203-1.313-5.465-3.692-6.443-4.594.488-.247 1.548-.903 2.119-1.231zm-3.751 2.215c2.087 1.438 6.901 4.636 7.666 5.169 1.061.738 1.631 1.969-.489 1.805s-6.035-1.723-9.135-6.235c.408-.124 1.468-.493 1.958-.739zm-3.67 1.231c1.305 1.313 3.262 3.445 4.648 4.595.896.902.245 2.543-1.305 1.805s-4.363-3.281-5.098-5.825c.572-.165 1.224-.329 1.755-.575zm-3.263 2.05c1.061 1.313 2.121 2.38 2.773 3.2s-.163 1.641-.815 1.887c-.653.246-1.876.903-3.344-2.051l1.386-3.036z"/><path fill-rule="evenodd" clip-rule="evenodd" fill="#FFF" d="M149.897 4.105c-2.12 0-9.297.492-11.907.492-2.609 0-8.645-.164-10.847-.328s-7.992-.246-10.275 0c-2.284.246-7.34.574-8.237 2.954s1.061 3.692 2.283 4.595c1.224.903 4.976 3.118 5.139 8.861.979-.41 2.364-.656 1.386-2.708-.57-1.149-3.344-4.923-2.691-6.646s2.772-3.118 7.585-3.282c4.812-.164 11.581 0 13.946-.411 2.364-.41 11.499-2.708 13.374-2.954.815-.08.815-.49.244-.573z"/><path fill-rule="evenodd" clip-rule="evenodd" fill="#FFF" d="M130.65 8.7c-1.713 0-7.992-.164-9.786.164-1.795.328-4.031.848-4.975 2.461-.816 1.395.57 3.61 1.223 4.513.652.902 2.528 2.708 3.263 3.364.652.492 1.875-.328.815-1.559 1.386.82 3.099.656 2.283-1.231 1.224.985 3.263 1.067 2.039-1.477.815.656 3.099.575 1.631-1.395 1.224.41 2.61-.328 1.713-1.559 1.549.246 2.446-.902.815-1.805 1.551.411 1.958-1.394.979-1.476zm7.043-.549c2.142 0 2.185 2.326-.257 2.197-1.924-.102-4.238-.56-4.195-1.335.043-.776 2.868-.819 4.452-.862zm-.298 2.511c1.198.216 1.241.775 1.07 1.206-.172.431-.814 1.163-2.911.862-2.099-.302-3.255-1.163-3.255-1.896s3.81-.258 5.096-.172zm-2.056 2.585c.813.129 1.569.733 1.327 1.464-.3.905-2.141 1.164-4.195.129-2.056-1.034-1.927-1.292-1.713-1.852.214-.56 2.354-.129 4.581.259zm-3.854 1.335c.985.344 2.056.861 2.869 1.378.813.517 1.456 2.369-1.67 1.551-3.125-.818-3.297-1.896-2.868-2.627.428-.733 1.413-.345 1.669-.302zm.973 3.584c1.07.646.557 3.144-1.798 2.024s-3.982-2.326-3.641-3.145c.343-.818 3.042-.172 5.439 1.121zm-6.204.603c1.112.517 4.752 1.723 3.554 3.273-.6.775-1.756.129-2.227-.172-.471-.302-3.04-2.068-2.397-3.016.281-.415.813-.215 1.07-.085zm.249 2.894c2.354 1.507-.301 2.8-1.799 1.507-.813-.701-2.475-1.966-1.713-2.886.643-.775 2.783.991 3.512 1.379zm-3.733.611c.728.818 2.432 2.053 1.113 2.972-1.113.775-1.799-.043-2.313-.603s-2.483-2.542-1.755-3.36c.728-.818 2.312.603 2.955.991zm-4.982.316c.771-.603 2.313 1.034 2.869 2.025.557.99.128 1.55-.429 1.809-.557.259-1.541-.301-1.755-.861-.214-.561-1.455-2.198-.685-2.973z"/><path fill="none" stroke="gold" stroke-miterlimit="2.613" d="M112.219 5.911c-1.142.574-2.446 1.395-2.527 2.215-.082.82.163 1.641 1.549 2.625"/><path fill-rule="evenodd" clip-rule="evenodd" fill="#FFF" stroke="gold" stroke-width=".351" stroke-miterlimit="2.613" d="M92.913 58.145c-1.245.03-2.233-.825-2.097-2.82l.623-8.01c.026-.708 1.086-1.2 1.534-1.2.449 0 1.509.492 1.535 1.2l.622 8.01c.136 1.994-.852 2.785-2.217 2.82h0z"/><path fill-rule="evenodd" clip-rule="evenodd" fill="#FFF" stroke="gold" stroke-width=".351" stroke-miterlimit="2.613" d="M93.032 58.145c1.244.03 2.233-.825 2.097-2.82l-.622-8.01c-.025-.708-1.086-1.2-1.535-1.2-.448 0-1.508.492-1.534 1.2l-.623 8.01c-.136 1.994.85 2.785 2.217 2.82h0z"/><path fill-rule="evenodd" clip-rule="evenodd" fill="#FFF" stroke="gold" stroke-width=".351" stroke-miterlimit="2.613" d="M97.742 57.961c1.234-.155 2.086-1.148 1.657-3.102l-1.795-7.828c-.13-.696-1.25-1.025-1.694-.959-.443.067-1.419.712-1.34 1.416l.563 8.014c.16 1.993 1.252 2.63 2.609 2.459h0z"/><path fill-rule="evenodd" clip-rule="evenodd" fill="#FFF" stroke="gold" stroke-width=".351" stroke-miterlimit="2.613" d="M102.485 57.072c1.193-.359 1.868-1.481 1.124-3.336l-3.063-7.42c-.242-.666-1.401-.803-1.828-.663-.426.141-1.283.938-1.089 1.621l1.879 7.808c.485 1.94 1.668 2.385 2.977 1.99h0z"/><path fill-rule="evenodd" clip-rule="evenodd" fill="#FFF" stroke="gold" stroke-width=".351" stroke-miterlimit="2.613" d="M106.985 55.728c1.132-.522 1.646-1.729.651-3.461l-4.058-6.919c-.333-.625-1.5-.599-1.903-.4-.402.199-1.14 1.109-.854 1.757l2.94 7.47c.75 1.851 1.981 2.127 3.224 1.553h0zm-18.782 2.233c-1.235-.155-2.087-1.148-1.658-3.102l1.795-7.828c.13-.696 1.251-1.025 1.694-.959.443.067 1.419.712 1.34 1.416l-.563 8.014c-.159 1.993-1.251 2.63-2.608 2.459h0z"/><path fill-rule="evenodd" clip-rule="evenodd" fill="#FFF" stroke="gold" stroke-width=".351" stroke-miterlimit="2.613" d="M83.459 57.072c-1.192-.359-1.868-1.481-1.123-3.336l3.061-7.42c.242-.666 1.402-.803 1.829-.663.427.141 1.282.938 1.088 1.621l-1.878 7.808c-.485 1.94-1.666 2.385-2.977 1.99h0z"/><path fill-rule="evenodd" clip-rule="evenodd" fill="#FFF" stroke="gold" stroke-width=".351" stroke-miterlimit="2.613" d="M78.959 55.728c-1.132-.522-1.646-1.729-.651-3.461l4.058-6.919c.333-.625 1.5-.599 1.903-.4.403.199 1.14 1.109.854 1.757l-2.94 7.47c-.749 1.851-1.981 2.127-3.224 1.553h0z"/><path fill-rule="evenodd" clip-rule="evenodd" d="M92.972 47.285c13.758 0 24.913-8.312 24.913-18.565 0-10.253-11.154-18.565-24.913-18.565S68.06 18.467 68.06 28.72c0 10.254 11.154 18.565 24.912 18.565z"/><path fill-rule="evenodd" clip-rule="evenodd" fill="#FFF" d="M103.9 21.91c0-2.708-2.854-6.81-11.173-6.81-4.893 0-8.971 1.23-11.417 3.528.571.492 1.223 1.231 1.223 2.051v15.015c-.082.902-.489 1.641-1.142 2.461 2.284 1.805 6.199 3.528 12.234 3.364s11.662-2.134 11.662-7.713c0-2.379-2.202-4.759-4.648-5.579-.652-.164-.55-.811-.041-1.067.489-.245 3.343-2.461 3.302-5.25z"/><path fill-rule="evenodd" clip-rule="evenodd" d="M93.054 26.58c2.102 0 3.807-1.871 3.807-4.177 0-2.307-1.705-4.177-3.807-4.177s-3.806 1.87-3.806 4.177c0 2.306 1.704 4.177 3.806 4.177z"/><path fill-rule="evenodd" clip-rule="evenodd" stroke="gold" stroke-width=".351" stroke-miterlimit="2.613" d="M93.543 38.134c2.356 0 4.268-1.974 4.268-4.409s-1.911-4.409-4.268-4.409-4.267 1.974-4.267 4.409 1.911 4.409 4.267 4.409h0z"/></svg>