<svg width="80" height="74" viewBox="0 0 80 74" fill="none" xmlns="http://www.w3.org/2000/svg">
<g clip-path="url(#clip0)">
<path d="M5.73583 55.6541C2.15536 50.2447 0.0700522 43.919 0.0019272 37.1532C-0.200729 17.0098 17.9244 0.311035 40.0004 0.311035C62.0916 0.311035 80.0002 16.6528 80.0002 36.811C80.0002 43.0654 78.2763 48.9523 75.2385 54.0976C74.6693 55.0617 73.5561 55.6541 72.3561 55.6541H5.73583Z" fill="white"/>
<path d="M54.6875 27.4009V38.8071C54.6875 39.5946 53.988 40.2329 53.125 40.2329H43.75C42.887 40.2329 42.1875 39.5946 42.1875 38.8071V27.4009C42.1875 26.6134 42.887 25.9751 43.75 25.9751H53.125C53.988 25.9751 54.6875 26.6134 54.6875 27.4009Z" fill="#2476ED"/>
<path d="M50.0227 7.43994V47.8563H6.27271V30.2524L14.0852 7.43994H50.0227Z" fill="#FECBAA"/>
<path d="M9.90387 30.2524V47.8563H4.15918V30.2524L11.9717 7.43994H17.7164L9.90387 30.2524Z" fill="#ECE9CB"/>
<path d="M75.2902 54.0098C68.5527 65.4967 55.2766 73.311 40.0002 73.311C24.7238 73.311 11.4477 65.4967 4.71021 54.0098H75.2902Z" fill="#C9885B"/>
<path d="M55.7032 60.479H43.9512C43.304 60.479 42.7793 60.0002 42.7793 59.4097C42.7793 58.8191 43.304 58.3403 43.9512 58.3403H55.7032C56.3504 58.3403 56.8751 58.8191 56.8751 59.4097C56.8751 60.0002 56.3504 60.479 55.7032 60.479ZM46.2335 63.6603C46.2335 63.0698 45.7089 62.591 45.0617 62.591H37.5359C36.8887 62.591 36.364 63.0698 36.364 63.6603C36.364 64.2509 36.8887 64.7297 37.5359 64.7297H45.0617C45.7089 64.7297 46.2335 64.251 46.2335 63.6603ZM55.2584 67.6428C55.2584 67.0523 54.7337 66.5735 54.0865 66.5735H50.4771C49.8299 66.5735 49.3053 67.0523 49.3053 67.6428C49.3053 68.2334 49.8299 68.7122 50.4771 68.7122H54.0865C54.7337 68.7122 55.2584 68.2334 55.2584 67.6428Z" fill="#B56D3C"/>
<path d="M80 25.9751V45.7176C80 46.8987 78.9506 47.8563 77.6562 47.8563H52.3438C51.0494 47.8563 50 46.8987 50 45.7176V15.2605C50 14.0794 51.0494 13.1218 52.3438 13.1218H60.9375C64.4172 13.1218 67.4541 14.8517 69.0717 17.4204H70.625C75.8027 17.4204 80 21.2505 80 25.9751Z" fill="#E9F3FE"/>
<path d="M56.875 47.8563H52.3438C51.0494 47.8563 50 46.8987 50 45.7176V15.2605C50 14.0794 51.0494 13.1218 52.3438 13.1218H56.875C55.5806 13.1218 54.5312 14.0794 54.5312 15.2605V45.7176C54.5312 46.8987 55.5806 47.8563 56.875 47.8563Z" fill="#C8E2FD"/>
<path d="M80 34.5298H64.8438C63.5494 34.5298 62.5 33.5722 62.5 32.3911V19.5591C62.5 18.378 63.5494 17.4204 64.8438 17.4204H70.625C75.8027 17.4204 80 21.2505 80 25.9751V34.5298Z" fill="#D3E1F4"/>
<path d="M67.7161 34.5298H64.8437C63.5494 34.5298 62.5 33.5722 62.5 32.3911V19.5591C62.5 18.378 63.5494 17.4204 64.8437 17.4204H67.7161C66.4217 17.4204 65.3723 18.378 65.3723 19.5591V32.3911C65.3723 33.5722 66.4217 34.5298 67.7161 34.5298Z" fill="#B2C6E2"/>
<path d="M70.3125 48.7876C70.3125 53.5122 66.1152 57.3423 60.9375 57.3423C55.7598 57.3423 51.5625 53.5122 51.5625 48.7876C51.5625 44.063 55.7598 40.2329 60.9375 40.2329C66.1152 40.2329 70.3125 44.063 70.3125 48.7876ZM28.125 40.2329C22.9473 40.2329 18.75 44.063 18.75 48.7876C18.75 53.5122 22.9473 57.3423 28.125 57.3423C33.3027 57.3423 37.5 53.5122 37.5 48.7876C37.5 44.063 33.3027 40.2329 28.125 40.2329Z" fill="#5B6B5C"/>
<path d="M65.625 48.7876C65.625 51.1498 63.5264 53.0649 60.9375 53.0649C58.3486 53.0649 56.25 51.1498 56.25 48.7876C56.25 46.4254 58.3486 44.5103 60.9375 44.5103C63.5264 44.5103 65.625 46.4254 65.625 48.7876ZM28.125 44.5103C25.5361 44.5103 23.4375 46.4254 23.4375 48.7876C23.4375 51.1498 25.5361 53.0649 28.125 53.0649C30.7139 53.0649 32.8125 51.1498 32.8125 48.7876C32.8125 46.4254 30.7139 44.5103 28.125 44.5103Z" fill="#4D545F"/>
<path d="M32.8128 48.7876C32.8128 49.3896 32.6765 49.9623 32.4306 50.4818C31.8612 50.7063 31.2334 50.8306 30.5737 50.8306C27.9848 50.8306 25.8862 48.9155 25.8862 46.5533C25.8862 45.9513 26.0225 45.3786 26.2684 44.859C26.8378 44.6347 27.4656 44.5103 28.1253 44.5103C30.7142 44.5103 32.8128 46.4254 32.8128 48.7876ZM60.9378 44.5103C60.2781 44.5103 59.6503 44.6347 59.0809 44.859C58.835 45.3786 58.6987 45.9514 58.6987 46.5533C58.6987 48.9155 60.7973 50.8306 63.3862 50.8306C64.0459 50.8306 64.6737 50.7061 65.2431 50.4818C65.489 49.9623 65.6253 49.3896 65.6253 48.7876C65.6253 46.4254 63.5267 44.5103 60.9378 44.5103Z" fill="#ACADB0"/>
<path d="M18.6718 59.4216C14.4004 63.3193 7.4752 63.3193 3.2038 59.4216C-1.06761 55.5241 -1.06761 49.2047 3.2038 45.3071L8.4302 40.538C6.50989 39.8689 4.99333 38.4536 4.30661 36.6807H17.569C16.8822 38.4536 15.3658 39.8689 13.4454 40.538L18.6718 45.3071C22.943 49.2046 22.943 55.5239 18.6718 59.4216Z" fill="#7F9681"/>
<path d="M12.8908 62.1851C9.48255 62.7467 5.83833 61.8255 3.2038 59.4213C-1.06761 55.5238 -1.06761 49.2045 3.2038 45.3068L8.4302 40.5377C6.50989 39.8686 4.99333 38.4534 4.30661 36.6804H8.21286C8.68567 37.901 9.55177 38.9521 10.6721 39.7069C11.4519 40.2323 11.5368 41.2674 10.8511 41.8929L7.10989 45.3068C2.83849 49.2043 2.83849 55.5237 7.10989 59.4213C8.74677 60.915 10.7733 61.8363 12.8908 62.1851Z" fill="#7F9681"/>
<path d="M30.1444 70.3879C25.873 74.2854 18.9479 74.2854 14.6765 70.3879C10.405 66.4902 10.405 60.171 14.6765 56.2734L19.9029 51.5043C17.9825 50.8352 16.466 49.4199 15.7793 47.647H29.0416C28.3549 49.4199 26.8385 50.8352 24.918 51.5043L30.1444 56.2734C34.4158 60.1709 34.4158 66.4902 30.1444 70.3879Z" fill="#98C59C"/>
<path d="M24.0699 73.1961C20.7471 73.6591 17.2355 72.723 14.6765 70.3879C10.405 66.4902 10.405 60.171 14.6765 56.2734L19.9029 51.5043C17.9825 50.8352 16.466 49.4199 15.7793 47.647H19.0983C19.5796 48.8894 20.4683 49.9563 21.6182 50.7138C22.3721 51.2104 22.4472 52.211 21.7897 52.811L17.9955 56.2732C13.7241 60.1709 13.7241 66.4901 17.9955 70.3878C19.7079 71.9504 21.8466 72.8863 24.0699 73.1961Z" fill="#A1B9A3"/>
<path d="M21.1101 65.5042C21.1101 66.0949 20.5854 66.5735 19.9382 66.5735H18.1159C17.3276 66.5735 16.6112 66.1774 16.2462 65.5398C15.8812 64.9022 15.9341 64.1394 16.3845 63.5492L17.5955 61.9614C17.9654 61.4766 18.6957 61.3573 19.2268 61.6946C19.7579 62.032 19.8888 62.6984 19.5191 63.183L18.5643 64.4347H19.938C20.5854 64.4349 21.1101 64.9136 21.1101 65.5042ZM28.4363 63.5492L27.7237 62.6147C27.3541 62.1299 26.6235 62.0109 26.0924 62.3478C25.5612 62.6851 25.4302 63.3517 25.7999 63.8363L26.2563 64.4347H23.6881C23.0409 64.4347 22.5162 64.9133 22.5162 65.504C22.5162 66.0947 23.0409 66.5734 23.6881 66.5734H26.7051C27.4934 66.5734 28.2098 66.1773 28.5748 65.5397C28.9398 64.9021 28.8866 64.1394 28.4363 63.5492ZM24.5585 61.4051C24.7896 61.4051 25.0231 61.3428 25.227 61.2132C25.758 60.8758 25.889 60.2094 25.5193 59.7248L24.1418 57.9187C23.7477 57.402 23.1004 57.0935 22.4104 57.0935C21.7204 57.0935 21.0732 57.402 20.6791 57.9187L19.882 58.9638C19.5123 59.4485 19.6432 60.1149 20.1743 60.4522C20.7057 60.7898 21.4359 60.6702 21.8055 60.1855L22.4104 59.3926L23.5955 60.9463C23.8234 61.2451 24.1879 61.4051 24.5585 61.4051Z" fill="#E9F3FE"/>
</g>
<defs>
<clipPath id="clip0">
<rect width="80" height="73" fill="white" transform="translate(0 0.311035)"/>
</clipPath>
</defs>
</svg>
