<svg width="70" height="67" viewBox="0 0 70 67" fill="none" xmlns="http://www.w3.org/2000/svg">
<g clip-path="url(#clip0)">
<path d="M14.2146 16.3017L21.7199 4.23887C22.5917 2.83702 24.1736 1.9815 25.8787 1.98956L38.6667 2.04847L25.6365 22.8502L14.2146 16.3017Z" fill="#7F9681"/>
<path d="M52.4431 23.0019L58.079 10.287L53.9207 12.6713L48.9081 4.30447C48.0458 2.86485 46.4407 1.98064 44.7061 1.9897L26.6565 1.9751H29.097C30.7705 1.99171 32.3145 2.96556 33.1753 4.33871L42.4988 19.2198L38.0652 21.7617L52.4431 23.0019Z" fill="#D3E7B5"/>
<path d="M53.9209 12.6712L48.9083 4.30434C48.046 2.86472 46.4409 1.98051 44.7063 1.98957H38.5977C40.3322 1.98051 41.9373 2.86472 42.7996 4.30434L49.6253 15.5408L46.5594 22.4942L52.4427 23.0018L58.0787 10.2869L53.9209 12.6712Z" fill="#8BBD8F"/>
<path d="M26.6565 1.9751L29.1407 1.97711C29.126 1.97661 29.1118 1.9751 29.097 1.9751H26.6565Z" fill="#8BBD8F"/>
<path d="M61.6293 26.1887L68.7955 38.4383C69.6284 39.8618 69.612 41.6006 68.7524 43.009L62.3047 53.5748L49.9905 32.3777L61.6293 26.1887Z" fill="#7F9681"/>
<path d="M68.7957 38.4388L61.6294 26.1887L56.97 28.6661L62.687 38.4388C63.5198 39.8618 63.5035 41.6006 62.6438 43.009L59.3257 48.4467L62.3048 53.5748L68.7525 43.009C69.6121 41.6006 69.6285 39.8618 68.7957 38.4388Z" fill="#7F9681"/>
<path d="M36.4492 54.5121L45.1406 65.5391L45.0616 60.902L55.1416 60.9328C56.8757 60.9378 58.4787 60.05 59.3378 58.6089L67.1563 45.683C66.2277 47.4077 64.6505 48.1378 62.9775 48.164H44.8452L44.7615 43.2197L36.4492 54.5121Z" fill="#D3E7B5"/>
<path d="M66.9094 46.0912C66.9952 45.9613 67.0789 45.8269 67.1563 45.6829L66.9094 46.0912Z" fill="#8BBD8F"/>
<path d="M62.9775 48.1644H59.5468L53.2291 58.6088C52.4384 59.9361 51.0155 60.7922 49.4409 60.915L55.1416 60.9326C56.8757 60.9377 58.4792 60.0499 59.3378 58.6088L66.9094 46.0913C65.9623 47.5219 64.511 48.1402 62.9775 48.1644Z" fill="#8BBD8F"/>
<path d="M29.6677 60.9588L14.9951 61.0378C13.29 61.0469 11.7071 60.1924 10.8342 58.7916L4.28442 48.2832L29.633 48.2192L29.6677 60.9588Z" fill="#7F9681"/>
<path d="M15.9286 26.1772L1.63713 28.1244L5.91805 30.3007L1.01647 38.727C0.173134 40.1767 0.209984 41.9486 1.11333 43.3646L10.4195 58.1616L9.15979 56.162C8.31066 54.7823 8.38489 53.0139 9.17032 51.6L17.6774 36.2778L22.2415 38.5981L15.9286 26.1772Z" fill="#D3E7B5"/>
</g>
<defs>
<clipPath id="clip0">
<rect width="69" height="66" fill="white" transform="translate(0.408936 0.814941)"/>
</clipPath>
</defs>
</svg>
