<svg width="81" height="81" viewBox="0 0 81 81" fill="none" xmlns="http://www.w3.org/2000/svg">
<g clip-path="url(#clip0)">
<path d="M39.9015 75.5991C39.2502 75.5991 38.7137 75.0809 38.6948 74.426C38.6759 73.7595 39.2008 73.204 39.8673 73.1851C40.535 73.1546 41.0959 73.6716 41.1252 74.3381C41.1551 75.004 40.6376 75.5679 39.971 75.5972L39.9363 75.5984C39.9247 75.5991 39.9131 75.5991 39.9015 75.5991ZM35.0467 75.4172C34.9991 75.4172 34.9521 75.4147 34.9039 75.4092L34.9009 75.4086C34.2374 75.3421 33.7571 74.7513 33.8236 74.0872C33.8901 73.4238 34.4858 72.941 35.1487 73.0069L35.1859 73.0106C35.8481 73.0887 36.3218 73.6887 36.2436 74.3509C36.1716 74.9655 35.6504 75.4172 35.0467 75.4172ZM44.7452 75.0449C44.18 75.0449 43.6753 74.6463 43.5624 74.0707C43.433 73.4164 43.859 72.7817 44.5133 72.6529L44.5359 72.6486C45.1908 72.5235 45.8231 72.9532 45.9482 73.6081C46.0733 74.2624 45.6443 74.8953 44.9894 75.0204L44.9802 75.0223C44.9009 75.0375 44.8227 75.0449 44.7452 75.0449ZM30.2567 74.4974C30.1517 74.4974 30.0449 74.4833 29.9381 74.4546L29.9314 74.4528C29.2875 74.2813 28.9029 73.6203 29.0738 72.9764C29.2447 72.3318 29.9051 71.9479 30.549 72.1182L30.5741 72.1249C31.2174 72.3007 31.5964 72.9642 31.4206 73.6075C31.2741 74.1446 30.7877 74.4974 30.2567 74.4974ZM49.4498 73.7552C48.956 73.7552 48.4934 73.4512 48.3146 72.9605C48.0869 72.3337 48.4104 71.6409 49.0366 71.4133L49.0567 71.4066C49.6836 71.1813 50.3751 71.5067 50.6009 72.1341C50.8268 72.7615 50.5002 73.4531 49.8728 73.6789L49.8624 73.6826C49.7257 73.732 49.5865 73.7552 49.4498 73.7552ZM25.6583 72.8506C25.4935 72.8506 25.3263 72.8165 25.1657 72.7438L25.1493 72.7365C24.542 72.4612 24.2728 71.7459 24.5481 71.1386C24.8233 70.5313 25.5381 70.2621 26.146 70.5374C26.7539 70.8121 27.0304 71.5298 26.7563 72.1378C26.5543 72.5851 26.1173 72.8506 25.6583 72.8506ZM53.8968 71.7599C53.4647 71.7599 53.0478 71.528 52.8305 71.1209C52.5162 70.5325 52.739 69.8007 53.3274 69.487C53.9115 69.166 54.6457 69.379 54.9674 69.9631C55.2884 70.5472 55.076 71.2814 54.4913 71.6025L54.4638 71.6177C54.2826 71.7142 54.0885 71.7599 53.8968 71.7599ZM64.8618 60.9677L64.8697 60.9732L64.7422 60.8823L64.8618 60.9677ZM9.13181 55.7053C8.65513 55.7053 8.20347 55.4208 8.01243 54.9521L8.00938 54.9435C7.75486 54.3271 8.04844 53.6209 8.66428 53.367C9.28074 53.1125 9.98692 53.4061 10.2408 54.0219L10.2494 54.0433C10.5008 54.6609 10.203 55.3653 9.5853 55.6161C9.43699 55.6766 9.28257 55.7053 9.13181 55.7053ZM69.0586 53.3884C68.9322 53.3884 68.8034 53.3682 68.6765 53.3261C68.0484 53.1168 67.7066 52.4405 67.9087 51.8112C68.1058 51.1771 68.7784 50.8188 69.4138 51.0117C70.0516 51.2057 70.4117 51.8777 70.2188 52.515L70.2036 52.5626C70.0351 53.0685 69.5639 53.3884 69.0586 53.3884ZM7.65537 51.0574C7.10911 51.0574 6.61411 50.6845 6.48167 50.1303L6.478 50.1144C6.32359 49.4656 6.72337 48.8144 7.37217 48.6594C8.02097 48.5043 8.67222 48.9047 8.82664 49.5535L8.8303 49.5694C8.98533 50.2176 8.58494 50.8688 7.93674 51.0239C7.84214 51.0464 7.74815 51.0574 7.65537 51.0574ZM70.1688 48.6398C70.0992 48.6398 70.029 48.6337 69.9576 48.6209C69.3058 48.5062 68.8688 47.8873 68.9762 47.236C69.0775 46.5799 69.6897 46.127 70.3464 46.2234C71.0056 46.3211 71.4615 46.9321 71.3645 47.5919L71.3565 47.6419C71.2534 48.2272 70.7438 48.6398 70.1688 48.6398ZM6.91013 46.2357C6.29063 46.2357 5.76389 45.7632 5.70896 45.1352L5.7053 45.0851C5.66624 44.4193 6.17405 43.8486 6.83994 43.8089C7.49973 43.7686 8.06919 44.2709 8.11497 44.9301C8.16807 45.5917 7.67735 46.1746 7.01511 46.2314C6.97971 46.2344 6.94492 46.2357 6.91013 46.2357ZM70.5387 43.7772C69.8716 43.7772 69.3314 43.237 69.3314 42.5699V42.554C69.3314 42.5455 69.3314 42.5369 69.3314 42.529C69.3314 42.5186 69.3314 42.5076 69.3314 42.4973V42.4814C69.3314 41.8143 69.8716 41.2735 70.5387 41.2735C71.2052 41.2735 71.7459 41.8143 71.7459 42.4814V42.4973C71.7459 42.5058 71.7459 42.5143 71.7453 42.5223C71.7459 42.5327 71.7459 42.543 71.7459 42.554V42.5699C71.7459 43.237 71.2058 43.7772 70.5387 43.7772ZM6.90708 41.3614C6.87229 41.3614 6.83689 41.3596 6.80149 41.3565C6.13804 41.2991 5.64671 40.7156 5.70286 40.0528C5.74924 39.3936 6.31321 38.8913 6.97788 38.9328C7.64378 38.9719 8.15159 39.5432 8.11253 40.2084L8.10825 40.2585C8.05393 40.8871 7.52659 41.3614 6.90708 41.3614ZM70.1596 38.8431C69.5847 38.8431 69.0757 38.4311 68.9725 37.8452L68.964 37.7951C68.8675 37.1353 69.3235 36.5219 69.9833 36.4249C70.6394 36.3278 71.254 36.7825 71.3523 37.4405C71.4591 38.0911 71.0227 38.7088 70.3708 38.8242C70.3 38.837 70.2292 38.8431 70.1596 38.8431ZM70.3623 37.5894L70.1584 37.6193L70.3623 37.5894ZM7.6395 36.5408C7.54673 36.5408 7.45213 36.5298 7.35813 36.5073C6.71055 36.3528 6.31016 35.7028 6.46336 35.0552C6.60618 34.4113 7.24155 33.9999 7.88914 34.1354C8.5416 34.2722 8.9603 34.9118 8.82359 35.5643L8.8126 35.6137C8.68076 36.1679 8.18577 36.5408 7.6395 36.5408ZM69.0519 34.1019C68.544 34.1019 68.0698 33.7772 67.9007 33.27L67.8873 33.2278C67.6908 32.5906 68.0484 31.915 68.6863 31.7191C69.3241 31.5225 69.9985 31.8802 70.195 32.518L70.1957 32.5198C70.4062 33.1528 70.0626 33.8297 69.4297 34.0402C69.3052 34.0823 69.1776 34.1019 69.0519 34.1019ZM9.10313 31.8857C8.95176 31.8857 8.79795 31.857 8.64902 31.7966C8.03135 31.5457 7.73411 30.8414 7.98496 30.2237L7.99107 30.209C8.24192 29.5914 8.94566 29.2935 9.56394 29.5444C10.1816 29.7952 10.4789 30.4996 10.228 31.1173L10.2219 31.1325C10.0315 31.6013 9.57981 31.8857 9.10313 31.8857ZM67.2208 29.5798C66.7813 29.5798 66.3565 29.3387 66.1417 28.9224L66.1234 28.887C65.8292 28.2883 66.0758 27.565 66.6745 27.2708C67.2727 26.9766 67.9959 27.2232 68.2907 27.8214L68.2914 27.8238C68.5978 28.4158 68.3628 29.1397 67.7701 29.4455C67.5943 29.5364 67.4063 29.5798 67.2208 29.5798ZM11.265 27.5119C11.0508 27.5119 10.8335 27.4551 10.6376 27.3349C10.0693 26.9888 9.88926 26.2485 10.2329 25.6802C10.5655 25.112 11.2949 24.9142 11.8699 25.2402C12.4497 25.5692 12.6535 26.3059 12.3252 26.8857C12.316 26.9016 12.3063 26.9174 12.2965 26.9333C12.0694 27.3062 11.6721 27.5119 11.265 27.5119ZM64.7141 25.3915C64.3277 25.3915 63.9475 25.206 63.7143 24.8624C63.3268 24.3198 63.4555 23.5709 63.9988 23.1833C64.5407 22.7957 65.2988 22.9269 65.6864 23.4695L65.712 23.5062C66.0862 24.0579 65.9427 24.8087 65.391 25.1834C65.1834 25.3244 64.9479 25.3915 64.7141 25.3915ZM14.0702 23.5208C13.798 23.5208 13.5251 23.4293 13.2993 23.2425C12.7866 22.8165 12.7158 22.0554 13.1418 21.5421L13.1522 21.5299C13.5782 21.0165 14.3387 20.9464 14.852 21.3718C15.3653 21.7978 15.4361 22.5589 15.0101 23.0722L14.9997 23.0844C14.7611 23.3725 14.4168 23.5208 14.0702 23.5208ZM61.6037 21.6354C61.2864 21.6354 60.9696 21.5115 60.7328 21.2643C60.2658 20.7883 60.2726 20.0223 60.7492 19.5554C61.2247 19.0891 61.9883 19.0958 62.4546 19.5718L62.4747 19.592C62.9367 20.0729 62.9209 20.8377 62.4399 21.2991C62.2055 21.5244 61.9046 21.6354 61.6037 21.6354ZM17.4491 20.0028C17.1146 20.0028 16.7826 19.8654 16.5439 19.5956C16.102 19.0964 16.149 18.3334 16.6483 17.8915L16.6532 17.8873C17.1494 17.4435 17.9129 17.4838 18.3579 17.98C18.8022 18.4757 18.7632 19.2368 18.2682 19.6823L18.2486 19.7C18.0185 19.9033 17.7329 20.0028 17.4491 20.0028ZM57.9581 18.3945C57.7103 18.3945 57.4613 18.3188 57.2458 18.1613L57.2049 18.1302C56.6788 17.7206 56.5836 16.9626 56.9931 16.4359C57.4021 15.9103 58.1583 15.8151 58.6844 16.2222C59.2118 16.6184 59.3241 17.3666 58.9334 17.9001C58.6966 18.2236 58.3298 18.3945 57.9581 18.3945ZM58.0667 17.0224L57.9459 17.1774L58.0667 17.0224ZM21.3211 17.0389C20.9226 17.0389 20.5326 16.8417 20.3025 16.481C19.9442 15.9195 20.1084 15.1749 20.6681 14.8154C21.2186 14.4516 21.9614 14.5975 22.3325 15.145C22.7073 15.6967 22.5632 16.4475 22.0115 16.8216L21.9693 16.8497C21.7685 16.9778 21.5439 17.0389 21.3211 17.0389ZM53.8596 15.7443C53.6692 15.7443 53.4757 15.6992 53.2956 15.6033L53.2669 15.5875C52.6828 15.2664 52.4698 14.5322 52.7909 13.9481C53.1119 13.364 53.8462 13.1509 54.4303 13.472L54.4339 13.4738C55.0168 13.7918 55.2372 14.5236 54.9222 15.1083C54.7037 15.5136 54.2887 15.7443 53.8596 15.7443ZM25.5991 14.7C25.1389 14.7 24.6988 14.4357 24.4974 13.9896C24.2228 13.3823 24.4925 12.6675 25.0998 12.3929L25.1279 12.3807C25.7383 12.1127 26.4499 12.3917 26.7179 13.0026C26.9846 13.6136 26.7063 14.3253 26.0953 14.5926C25.9342 14.6652 25.7651 14.7 25.5991 14.7Z" fill="#A7C7D3"/>
<path d="M48.0183 65.9908L29.8414 47.8139C28.7019 46.675 28.7007 44.8317 29.8384 43.6946C30.2876 43.2454 30.8491 42.9732 31.4326 42.881C32.3231 42.7376 33.2686 43.0092 33.9576 43.6983L29.2769 39.0175C28.708 38.4486 28.4224 37.7028 28.4224 36.9588C28.4224 36.8037 28.4346 36.6481 28.4596 36.4931C28.553 35.9084 28.824 35.3481 29.2738 34.8982C29.7188 34.4533 30.2705 34.1835 30.8467 34.0877C31.631 33.9571 32.4574 34.1481 33.116 34.6614L31.335 32.8804C30.7655 32.3109 30.4799 31.5633 30.4799 30.8186C30.4786 30.6606 30.4927 30.5013 30.5189 30.3456C30.6123 29.7646 30.8827 29.2073 31.3301 28.7599C31.7799 28.3101 32.3408 28.0379 32.9274 27.9457C33.8173 27.8023 34.7633 28.0745 35.4518 28.763L37.4916 30.8028C36.8043 30.1155 36.5309 29.1682 36.6743 28.2784C36.7665 27.6942 37.0375 27.1339 37.4885 26.6835C38.6244 25.5476 40.4695 25.5489 41.6078 26.6872L53.4205 38.4999L53.4535 38.4529C54.0522 37.8542 54.7578 37.4287 55.5104 37.1748C57.3677 36.5486 59.5057 36.9765 60.9877 38.459L66.4955 43.9668C67.5544 45.0252 68.1483 46.4595 68.1508 47.9549L68.1538 51.4009C68.155 53.011 68.7959 54.5558 69.9366 55.6966L71.1647 56.9246L57.1162 70.9731L55.5464 69.4032C54.5027 68.3595 53.1141 67.7309 51.6426 67.6344C50.2754 67.5447 48.9882 66.9606 48.0183 65.9908Z" fill="#FECBAA"/>
<path d="M56.2032 71.8853L72.1493 55.9393C72.6748 55.4138 73.5262 55.4138 74.0518 55.9393L79.7305 61.618C80.256 62.1435 80.256 62.9956 79.7305 63.5205L63.785 79.4665C63.2595 79.992 62.4075 79.992 61.8826 79.4665L56.2032 73.7878C55.6783 73.2623 55.6783 72.4102 56.2032 71.8853Z" fill="#A3C4A6"/>
<path d="M72.5735 63.097C73.0453 63.5688 73.8089 63.5694 74.2794 63.0988C74.75 62.6282 74.7494 61.8641 74.2782 61.3929C73.8064 60.9211 73.0429 60.9205 72.5723 61.3911C72.1017 61.8622 72.1023 62.6258 72.5735 63.097Z" fill="#FF8812"/>
<path d="M57.488 42.5667L53.4207 38.4999L53.4536 38.4529C54.0524 37.8541 54.7579 37.4287 55.5105 37.1748L59.1952 40.8595C59.6664 41.3307 59.6664 42.0955 59.1952 42.5667C58.7228 43.0391 57.9592 43.0378 57.488 42.5667Z" fill="#FFAE85"/>
<path d="M32.2311 65.9926L50.408 47.8157C51.5475 46.6762 51.5487 44.8335 50.4116 43.6964C49.9618 43.2466 49.4009 42.9744 48.8168 42.8822C47.9263 42.7388 46.9808 43.011 46.2917 43.6995L50.9725 39.0193C51.5414 38.4505 51.827 37.7046 51.827 36.96C51.827 36.8056 51.8148 36.6493 51.7898 36.4949C51.6964 35.9096 51.4254 35.3499 50.9756 34.9001C50.5306 34.4551 49.9789 34.1853 49.4027 34.0895C48.6184 33.9589 47.792 34.1499 47.1334 34.6632L48.9144 32.8816C49.4839 32.3128 49.7695 31.5651 49.7695 30.8205C49.7708 30.6618 49.7567 30.5025 49.7305 30.3468C49.6377 29.7664 49.3667 29.2085 48.9193 28.7611C48.4695 28.3119 47.9086 28.0397 47.322 27.9475C46.4321 27.8041 45.4861 28.0757 44.7976 28.7648L42.7578 30.8046C43.4451 30.1167 43.7185 29.1701 43.5751 28.2796C43.4829 27.6961 43.2119 27.1358 42.7609 26.6847C41.625 25.5489 39.7799 25.5501 38.6416 26.6884L26.8289 38.5011L26.7959 38.4547C26.1971 37.856 25.4916 37.4306 24.739 37.1767C22.8811 36.5504 20.7437 36.9783 19.2617 38.4602L13.7539 43.9687C12.6949 45.027 12.1011 46.4613 12.0986 47.9567L12.095 51.4021C12.0944 53.0128 11.4535 54.5576 10.3127 55.6984L9.08472 56.9264L23.1332 70.9749L24.703 69.4051C25.7467 68.3614 27.1353 67.7327 28.6068 67.6363C29.974 67.5465 31.2612 66.9624 32.2311 65.9926Z" fill="#FECBAA"/>
<path d="M24.0464 71.8867L8.10031 55.9413C7.5748 55.4157 6.72336 55.4157 6.19785 55.9413L0.519135 61.62C-0.0063782 62.1455 -0.0063782 62.9969 0.519135 63.5224L16.4646 79.4685C16.9901 79.994 17.8421 79.994 18.3676 79.4685L24.0464 73.7898C24.5719 73.2643 24.5719 72.4122 24.0464 71.8867Z" fill="#7F9681"/>
<path d="M18.6036 74.0255C19.0754 73.5537 19.076 72.7901 18.6054 72.3196C18.1348 71.8484 17.3707 71.849 16.8995 72.3208C16.4277 72.792 16.4271 73.5561 16.8976 74.0267C17.3688 74.4973 18.1324 74.4967 18.6036 74.0255Z" fill="#EF6085"/>
<path d="M22.7621 42.5686L26.8289 38.5012L26.7959 38.4548C26.1971 37.8561 25.4916 37.4307 24.739 37.1768L21.0543 40.8608C20.5831 41.332 20.5831 42.0974 21.0543 42.5686C21.5267 43.041 22.2903 43.0398 22.7621 42.5686Z" fill="#FFAE85"/>
<path d="M51.75 22.4299V48.1361C51.75 49.7474 50.4481 51.0511 48.8398 51.0511C48.2039 51.0511 47.6149 50.8467 47.1364 50.4988C46.4058 49.9708 45.9291 49.1096 45.9291 48.1361V54.7554C45.9291 55.5598 45.6038 56.2892 45.0776 56.8153C44.9684 56.9252 44.8488 57.0265 44.7218 57.118C44.2421 57.4659 43.6549 57.6704 43.0189 57.6704C42.3896 57.6704 41.808 57.4708 41.3331 57.1315C40.6862 56.6694 40.2369 55.9498 40.1344 55.1204V57.6399C40.1344 58.4449 39.8073 59.1755 39.2811 59.7017C39.17 59.8146 39.0474 59.9177 38.9192 60.0093C38.4425 60.3541 37.8566 60.5568 37.2236 60.5568C36.5883 60.5568 35.9987 60.3523 35.5189 60.0032C34.7883 59.4752 34.3116 58.614 34.3116 57.6399V54.7554C34.3116 55.7277 33.8356 56.5901 33.1044 57.118C32.6265 57.4659 32.0387 57.6704 31.4015 57.6704C29.7944 57.6704 28.4907 56.3649 28.4907 54.7554V38.0494L28.4346 38.0592C27.588 38.0592 26.7878 37.8608 26.0762 37.5087C24.3202 36.6377 23.1111 34.8237 23.1111 32.7278V24.9379C23.1111 23.4413 23.705 22.007 24.7609 20.9474L27.1949 18.509C28.3333 17.3689 28.9723 15.8241 28.9723 14.2109V12.4739H48.8392V14.6937C48.8392 16.1696 49.377 17.5959 50.3492 18.705C51.2526 19.7352 51.75 21.0585 51.75 22.4299Z" fill="#FEDFC5"/>
<path d="M50.4116 43.6964C49.9618 43.2466 49.4009 42.975 48.8168 42.8822C47.9263 42.7388 46.9808 43.011 46.2917 43.7001L50.9725 39.0193C51.5414 38.4505 51.8276 37.7046 51.8276 36.9606C51.8276 36.8056 51.8148 36.6493 51.7898 36.4949C51.6964 35.9096 51.426 35.3499 50.9762 34.9001C50.5312 34.4551 49.9789 34.1853 49.4033 34.0895C48.619 33.9589 47.7926 34.1499 47.1334 34.6632L48.915 32.8816C49.4839 32.3128 49.7695 31.5651 49.7695 30.8205C49.7708 30.6624 49.7573 30.5031 49.7311 30.3468C49.6377 29.7664 49.3667 29.2085 48.9193 28.7611C48.4701 28.3119 47.9086 28.0397 47.3226 27.9475C46.4327 27.8041 45.4861 28.0763 44.7976 28.7648L42.7578 30.8046C43.4451 30.1167 43.7185 29.1701 43.5751 28.2796C43.4829 27.6961 43.2119 27.1358 42.7615 26.6847C41.625 25.5489 39.7799 25.5501 38.6416 26.6884L26.8289 38.5011L26.7959 38.4547C26.1971 37.856 25.4916 37.4306 24.739 37.1767C23.8479 36.8764 22.8927 36.8208 21.9753 37.0058C22.7139 38.1221 23.7466 39.048 25.0051 39.6724C25.3542 39.8451 25.7119 39.9904 26.0769 40.1076V54.7554C26.0769 57.6942 28.4658 60.085 31.4016 60.085C31.755 60.085 32.1029 60.0508 32.4417 59.9837C32.8207 60.7582 33.3859 61.44 34.0981 61.9545C34.54 62.2768 35.0222 62.5233 35.5294 62.6942L50.408 47.8157C51.5475 46.6762 51.5487 44.8335 50.4116 43.6964Z" fill="#FFAE85"/>
<path d="M54.1636 48.1361V37.8554C53.914 38.0305 53.6759 38.2301 53.4525 38.4529L53.4196 38.4999L41.6068 26.6872C40.4685 25.5489 38.6234 25.5476 37.4876 26.6835C37.0365 27.1339 36.7655 27.6942 36.6734 28.2784C36.5299 29.1682 36.8034 30.1155 37.4906 30.8028L35.4508 28.763C34.7624 28.0745 33.8163 27.8023 32.9264 27.9457C32.3399 28.0379 31.779 28.3101 31.3291 28.7599C30.8817 29.2073 30.6107 29.7646 30.5174 30.3456C30.4917 30.5013 30.4777 30.6606 30.4789 30.8186C30.4789 31.5633 30.7645 32.3109 31.334 32.8804L33.115 34.6614C32.4558 34.1481 31.63 33.9571 30.8457 34.0877C30.2696 34.1835 29.7178 34.4533 29.2728 34.8982C28.823 35.3481 28.552 35.9084 28.4586 36.4931C28.4336 36.6481 28.4208 36.8037 28.4214 36.9588C28.4208 37.7034 28.7071 38.4486 29.2759 39.0175L33.9567 43.6983C33.2682 43.0098 32.3222 42.7376 31.4323 42.881C30.8482 42.9732 30.2866 43.2454 29.8374 43.6946C28.7003 44.8323 28.7016 46.675 29.8405 47.8145L42.0176 59.991C42.3448 60.0533 42.6792 60.085 43.018 60.085C44.1465 60.085 45.2256 59.7353 46.1338 59.0767C46.3651 58.9095 46.5843 58.7233 46.7845 58.5231C47.7897 57.5179 48.3433 56.18 48.3433 54.7554V53.4431C48.5069 53.4584 48.6729 53.4657 48.8389 53.4657C51.7747 53.4657 54.1636 51.075 54.1636 48.1361Z" fill="#FFAE85"/>
<path d="M51.75 22.4299V48.1361C51.75 49.7474 50.4481 51.0511 48.8398 51.0511C48.7965 51.0511 48.7495 51.0511 48.7031 51.0481C48.1215 51.0206 47.5825 50.8229 47.14 50.5006C47.1382 50.5006 47.1382 50.4988 47.1364 50.4988C46.4058 49.9708 45.9291 49.1096 45.9291 48.1361V54.7554C45.9291 55.5598 45.6038 56.2892 45.0776 56.8153C44.9684 56.9252 44.8488 57.0265 44.7218 57.118C44.2421 57.4659 43.6549 57.6704 43.0189 57.6704C42.3896 57.6704 41.808 57.4708 41.3331 57.1315C40.6862 56.6694 40.2369 55.9498 40.1344 55.1204V57.6399C40.1344 58.4449 39.8073 59.1755 39.2811 59.7017C39.17 59.8146 39.0474 59.9177 38.9192 60.0093C38.4425 60.3541 37.8566 60.5568 37.2236 60.5568C36.5883 60.5568 35.9987 60.3523 35.5189 60.0032C34.7883 59.4752 34.3116 58.614 34.3116 57.6399V54.7554C34.3116 55.7277 33.8356 56.5901 33.1044 57.118C32.6265 57.4659 32.0387 57.6704 31.4015 57.6704C29.7944 57.6704 28.4907 56.3649 28.4907 54.7554V38.0494L28.4346 38.0592C27.588 38.0592 26.7878 37.8608 26.0762 37.5087C24.3202 36.6377 23.1111 34.8237 23.1111 32.7278V24.9379C23.1111 23.4413 23.705 22.007 24.7609 20.9474L27.1949 18.509C27.8987 17.8041 28.412 16.9441 28.7001 16.0072C28.8807 15.428 28.9723 14.8176 28.9723 14.2109V12.4739H48.8392V14.6937C48.8392 15.1912 48.8929 15.7161 49.0309 16.1952C49.2628 17.118 49.7139 17.9792 50.3492 18.705C51.2446 19.7273 51.75 21.0682 51.75 22.4299Z" fill="#FEDFC5"/>
<path d="M51.7499 22.4299V48.1361C51.7499 49.7474 50.448 51.0511 48.8397 51.0511C48.7964 51.0511 48.7494 51.0511 48.703 51.0481C48.1213 51.0206 47.5824 50.8229 47.1399 50.5006L47.1893 25.7301C47.1893 25.5806 47.1558 25.3438 47.0929 25.0428C45.9821 19.6321 41.4154 16.0072 35.8923 16.0072H28.7C28.8806 15.4274 28.9722 14.8176 28.9722 14.2109V12.4739H48.8391V14.6937C48.8391 15.1912 48.8928 15.7161 49.0308 16.1952C49.2627 17.118 49.7137 17.9792 50.3491 18.705C51.2445 19.7273 51.7499 21.0682 51.7499 22.4299Z" fill="#FECBAA"/>
<path d="M50.1306 12.4745H27.5793C26.8365 12.4745 26.2341 11.8721 26.2341 11.1293V3.09766C26.2341 2.35486 26.8365 1.75244 27.5793 1.75244H50.1306C50.8734 1.75244 51.4758 2.35486 51.4758 3.09766V11.1293C51.4758 11.8721 50.8734 12.4745 50.1306 12.4745Z" fill="#ADE1B1"/>
<path d="M32.6074 7.11377C32.6074 6.44666 32.0679 5.90649 31.402 5.90649C30.7361 5.90649 30.1965 6.44666 30.1965 7.11377C30.1965 7.78027 30.7361 8.32104 31.402 8.32104C32.0679 8.32104 32.6074 7.78027 32.6074 7.11377Z" fill="#5186FF"/>
<path d="M47.1371 34.6833V50.4988C46.4059 49.9708 45.9292 49.1096 45.9292 48.1355V54.7548C45.9292 55.5598 45.6045 56.2892 45.0778 56.8153C44.9685 56.9252 44.8495 57.0265 44.7219 57.118V34.6833C44.7219 34.0168 45.2633 33.4761 45.9292 33.4761C46.5957 33.4761 47.1371 34.0168 47.1371 34.6833Z" fill="#FECBAA"/>
<path d="M41.334 34.6833V57.1309C40.6864 56.6688 40.2378 55.9492 40.1346 55.1204V57.6399C40.1346 58.4443 39.8081 59.1755 39.2814 59.7017C39.1703 59.8146 39.0482 59.9171 38.9194 60.0093V34.6833C38.9194 34.0168 39.4602 33.4761 40.1267 33.4761C40.7932 33.4761 41.334 34.0168 41.334 34.6833Z" fill="#FECBAA"/>
<path d="M35.519 34.6833V60.0026C34.7885 59.4746 34.3118 58.6134 34.3118 57.6399V54.7548C34.3118 55.7271 33.8357 56.5901 33.1045 57.118V34.6833C33.1045 34.0168 33.6459 33.4761 34.3118 33.4761C34.9801 33.4761 35.519 34.0168 35.519 34.6833Z" fill="#FECBAA"/>
<path d="M28.4915 32.2976V38.0496L28.4347 38.0587C27.5881 38.0587 26.788 37.861 26.0769 37.5088V32.2976C26.0769 31.6311 26.6177 31.0903 27.2842 31.0903C27.9519 31.0903 28.4915 31.6311 28.4915 32.2976Z" fill="#FECBAA"/>
</g>
<defs>
<clipPath id="clip0">
<rect width="80" height="80" fill="white" transform="translate(0.124756 0.814941)"/>
</clipPath>
</defs>
</svg>
