<svg width="78" height="75" viewBox="0 0 78 75" fill="none" xmlns="http://www.w3.org/2000/svg">
<g clip-path="url(#clip0)">
<path d="M58.7912 43.3874C58.7912 29.9375 47.476 19.0344 33.5179 19.0344C19.5598 19.0344 8.24463 29.9375 8.24463 43.3874C8.24463 56.8372 19.5598 67.7403 33.5179 67.7403C47.476 67.7403 58.7912 56.8372 58.7912 43.3874Z" fill="#89C8FD"/>
<path d="M33.5178 19.0344C32.2207 19.0344 30.9459 19.1287 29.7017 19.3105C41.8486 21.0833 51.1582 31.1875 51.1582 43.3874C51.1582 55.5873 41.8486 65.6915 29.7017 67.4642C30.9459 67.646 32.2207 67.7403 33.5178 67.7403C47.4759 67.7403 58.7911 56.8372 58.7911 43.3874C58.7911 29.9375 47.4759 19.0344 33.5178 19.0344Z" fill="#60B6FF"/>
<path d="M30.2328 28.4989C26.3397 30.8436 23.4194 34.5946 25.6095 38.8154C27.7995 43.0356 32.6661 41.3944 37.1678 40.8083C41.6696 40.2223 38.2629 53.5869 40.9393 56.8694C43.6158 60.1518 51.1589 53.5869 50.4292 49.3662C49.3483 43.1175 48.9694 40.9252 57.729 36.4707L57.7525 36.4622C54.8 26.8537 45.8623 19.7243 35.1005 19.0835L35.0994 19.1202C35.0994 19.1202 34.1259 26.1542 30.2328 28.4989Z" fill="#C0DFC3"/>
<path d="M49.3525 24.408C49.3543 24.4092 49.3561 24.411 49.3579 24.4123C49.3561 24.411 49.3543 24.4098 49.3525 24.408Z" fill="#C0DFC3"/>
<path d="M52.4429 27.249C52.4429 27.2495 52.4434 27.25 52.4439 27.25C52.4434 27.2495 52.4434 27.2495 52.4429 27.249Z" fill="#C0DFC3"/>
<path d="M16.7282 54.4074C15.5591 52.6939 18.7966 48.6634 19.5263 45.6152C20.2565 42.5671 15.8764 42.8014 14.5381 41.7462C13.1999 40.691 11.3746 36.1191 10.0364 35.0639L9.82256 34.9019C8.80272 37.5441 8.24463 40.4031 8.24463 43.3874C8.24463 51.4371 12.2981 58.5734 18.5452 63.007L18.5528 62.4966C18.5528 62.4966 19.5263 58.5107 16.7282 54.4074Z" fill="#C0DFC3"/>
<path d="M50.4294 49.3663C50.4241 49.3358 50.4189 49.3059 50.4136 49.2754C49.9301 51.1526 49.2204 52.944 48.314 54.6208C49.7515 52.9903 50.712 51.0024 50.4294 49.3663Z" fill="#C0DFC3"/>
<path d="M35.1005 19.0835L35.0993 19.1202C35.0993 19.1202 35.0182 19.7074 34.8091 20.5977C43.6716 23.8214 50.1601 31.7063 51.053 41.1505C52.1698 39.6826 54.2124 38.2587 57.729 36.4707L57.7525 36.4622C54.7999 26.8537 45.8622 19.7243 35.1005 19.0835Z" fill="#7F9681"/>
<path d="M33.4839 74.8149C31.6939 74.8149 29.891 74.6737 28.0892 74.3875C19.4764 73.0207 11.9328 68.5125 6.8483 61.6936C1.7638 54.8747 -0.25296 46.5607 1.16988 38.284C1.27268 37.6845 1.86367 37.2791 2.48579 37.3779C3.10968 37.4767 3.53207 38.043 3.42867 38.6426C2.10629 46.3394 3.98148 54.0707 8.70997 60.412C13.4385 66.7533 20.4528 70.9453 28.4628 72.2167C44.9982 74.842 60.6694 64.049 63.4005 48.1602C64.7229 40.4633 62.8477 32.732 58.1192 26.3907C53.3913 20.0494 46.3764 15.8574 38.3669 14.586C37.743 14.4872 37.3206 13.9209 37.4234 13.3214C37.5268 12.7218 38.1172 12.3164 38.7393 12.4152C47.3527 13.7821 54.8964 18.2902 59.9803 25.1091C65.0648 31.9281 67.0815 40.242 65.6593 48.5187C64.237 56.7953 59.5455 64.0445 52.4496 68.9303C46.8375 72.7943 40.2532 74.8149 33.4839 74.8149Z" fill="#7F9681"/>
<path d="M26.5329 27.3923C14.3113 25.3993 6.72949 10.6109 6.72949 10.6109C6.72949 10.6109 18.9634 -0.946558 31.185 1.04583C43.4066 3.03821 50.9884 17.8267 50.9884 17.8267C50.9884 17.8267 38.7545 29.3847 26.5329 27.3923Z" fill="#7F9681"/>
<path d="M31.1849 1.04575C28.8509 0.665222 26.5175 0.77983 24.2681 1.21286C35.9791 3.7399 43.2032 17.8266 43.2032 17.8266C43.2032 17.8266 35.1949 25.3914 25.6639 27.2251C25.9511 27.2872 26.2402 27.3442 26.5327 27.3922C38.7543 29.3846 50.9883 17.8266 50.9883 17.8266C50.9883 17.8266 43.4065 3.03813 31.1849 1.04575Z" fill="#7F9681"/>
<path d="M50.2975 16.5987L38.3456 14.6611L27.1814 0.845947C26.2908 0.896194 25.4085 1.00572 24.5379 1.16267L35.0088 14.1197L25.9965 12.6586L18.3066 3.09691C17.5852 3.40968 16.8838 3.74165 16.2076 4.08604L22.668 12.1188L7.76578 9.70244C7.09666 10.2642 6.72949 10.6108 6.72949 10.6108C6.72949 10.6108 6.97505 11.089 7.4462 11.8823L22.2673 14.2851L14.0475 20.3932C14.5768 20.9172 15.132 21.4349 15.7124 21.9373L25.3397 14.7836L34.8807 16.3305L21.9048 25.9786C22.7103 26.3399 23.5427 26.6527 24.401 26.9045L37.9532 16.8291L49.9127 18.7678C50.6059 18.1869 50.9884 17.8267 50.9884 17.8267C50.9884 17.8267 50.7516 17.366 50.2975 16.5987Z" fill="#7F9681"/>
<path d="M59.3013 13.0374C62.5799 5.58163 73.9397 3.07153 73.9397 3.07153C73.9397 3.07153 79.9841 12.6496 76.7055 20.1053C73.4274 27.5611 62.0671 30.0712 62.0671 30.0712C62.0671 30.0712 56.0227 20.4932 59.3013 13.0374Z" fill="#7F9681"/>
<path d="M73.9393 3.07153C73.9393 3.07153 71.3562 3.64288 68.2979 5.04868C69.867 8.24304 72.3543 14.7261 69.9886 20.1053C68.2738 24.0054 64.3472 26.5522 60.9922 28.0941C61.5979 29.3271 62.0672 30.0712 62.0672 30.0712C62.0672 30.0712 73.427 27.5611 76.7057 20.1053C79.9837 12.6496 73.9393 3.07153 73.9393 3.07153Z" fill="#7F9681"/>
<path d="M77.6341 13.956L68.8985 17.4778L74.6339 4.30005C74.2233 3.52093 73.9395 3.07153 73.9395 3.07153C73.9395 3.07153 73.399 3.19122 72.5196 3.45544L66.5921 17.0741L62.9163 8.38249C62.2936 8.91037 61.7062 9.48398 61.1733 10.1056L65.3385 19.9546L61.4259 28.9438C61.8078 29.6602 62.0669 30.0712 62.0669 30.0712C62.0669 30.0712 62.6543 29.9414 63.599 29.6534L67.639 20.3718L77.6305 16.3441C77.6969 15.5464 77.6934 14.7464 77.6341 13.956Z" fill="#7F9681"/>
</g>
<defs>
<clipPath id="clip0">
<rect width="77" height="74" fill="white" transform="translate(0.725098 0.814941)"/>
</clipPath>
</defs>
</svg>
