<svg width="77" height="74" viewBox="0 0 77 74" fill="none" xmlns="http://www.w3.org/2000/svg">
<g clip-path="url(#clip0)">
<path d="M56.8204 35.7391V37.2608C56.8204 39.4403 56.1002 41.5639 54.7605 43.3343L51.4107 47.7669V71.1364C51.4107 72.3394 50.382 73.3149 49.1128 73.3149H25.2271C23.9581 73.3149 22.9292 72.3396 22.9292 71.1364V55.3798V19.5869H56.8204V35.7391Z" fill="#FED2A4"/>
<path d="M56.8204 21.1234V19.5872H25.4377H22.9292V55.3799V71.1365C22.9292 72.3395 23.9579 73.3148 25.2271 73.3148H34.2027C34.1368 73.1119 34.1009 72.8963 34.1009 72.6727V57.8773C36.8851 56.2792 38.7502 53.3798 38.7502 50.0747V45.689C38.7502 42.0072 37.2386 38.5465 34.4924 35.943C34.3643 35.8217 34.2333 35.7036 34.1009 35.5871V21.1234H56.8204Z" fill="#FFBD86"/>
<path d="M73.0149 2.72671C73.9548 2.72671 74.717 3.44915 74.717 4.34038V33.9736C74.717 34.8647 73.9549 35.5872 73.0149 35.5872H3.98465C3.04474 35.5872 2.28271 34.8647 2.28271 33.9736V4.34023C2.28271 3.449 3.04474 2.72656 3.98465 2.72656H73.0149V2.72671Z" fill="#9DB59F"/>
<path d="M18.097 33.9735V4.34023C18.097 3.449 18.859 2.72656 19.799 2.72656H3.98465C3.04474 2.72656 2.28271 3.449 2.28271 4.34023V33.9735C2.28271 34.8646 3.04474 35.587 3.98465 35.587H19.799C18.859 35.5872 18.097 34.8647 18.097 33.9735Z" fill="#7F9681"/>
<path d="M25.643 19.7732C24.0615 18.271 21.9569 17.4436 19.7169 17.4436C19.66 17.4436 19.6024 17.4442 19.5448 17.4452C15.0203 17.5325 11.3394 21.133 11.3394 25.4713V35.5872H34.1005C32.4804 34.1637 30.5384 33.1101 28.4427 32.5044C28.2373 32.4451 28.0948 32.2683 28.0948 32.0648V25.3861C28.0948 23.2628 27.2223 21.2676 25.643 19.7732Z" fill="#7F9681"/>
<path d="M66.651 7.1416C66.651 8.92672 68.1773 10.3738 70.0603 10.3738V27.9399C68.1773 27.9399 66.651 29.387 66.651 31.1721H10.3492C10.3492 29.387 8.82287 27.9399 6.93994 27.9399V10.3738C8.82287 10.3738 10.3492 8.92672 10.3492 7.1416H66.651Z" fill="#DBF1D0"/>
<path d="M25.6435 19.7731C24.0621 18.2708 21.9575 17.4435 19.7175 17.4435C19.6605 17.4435 19.6029 17.4441 19.5453 17.4451C19.5404 17.4452 19.5354 17.4452 19.5306 17.4454C18.7479 17.4619 18.0974 16.8813 18.0974 16.139V7.1416H10.3492C10.3492 8.92672 8.82287 10.3738 6.93994 10.3738V27.9399C8.82287 27.9399 10.3492 29.387 10.3492 31.1721H28.0954V25.386C28.0954 23.2627 27.2228 21.2674 25.6435 19.7731Z" fill="#D5EFC8"/>
<path d="M38.5091 27.065C43.5213 27.065 47.5846 23.2128 47.5846 18.461C47.5846 13.7091 43.5213 9.85693 38.5091 9.85693C33.4968 9.85693 29.4336 13.7091 29.4336 18.461C29.4336 23.2128 33.4968 27.065 38.5091 27.065Z" fill="#9DB59F"/>
<path d="M52.4445 2.82117V7.14048C52.4445 9.18314 50.6966 10.8387 48.542 10.8387C46.3874 10.8387 44.6411 9.18314 44.6411 7.14048V2.82117C44.6411 1.43634 45.8255 0.314941 47.2862 0.314941H49.7994C51.2601 0.314941 52.4445 1.43634 52.4445 2.82117Z" fill="#FED2A4"/>
<path d="M44.6407 7.14048V8.671C44.6407 10.7137 42.8944 12.3693 40.7398 12.3693C38.5852 12.3693 36.8389 10.7137 36.8389 8.671V2.82117C36.8389 1.43634 38.0217 0.314941 39.4824 0.314941H41.9971C43.4578 0.314941 44.6407 1.43634 44.6407 2.82117V7.14048Z" fill="#FED2A4"/>
<path d="M36.839 8.671V9.91749C36.839 11.9602 35.0911 13.6158 32.9366 13.6158C30.782 13.6158 29.0356 11.9602 29.0356 9.91749V8.671V2.82117C29.0356 1.43634 30.22 0.314941 31.6808 0.314941H34.1939C35.6546 0.314941 36.839 1.43634 36.839 2.82117V8.671Z" fill="#FED2A4"/>
<path d="M29.0357 2.82117V8.671C29.0357 10.7137 27.2894 12.3693 25.1348 12.3693C22.9802 12.3693 21.2339 10.7137 21.2339 8.671V2.82117C21.2339 1.43634 22.4167 0.314941 23.8774 0.314941H26.3922C27.8529 0.314941 29.0357 1.43634 29.0357 2.82117Z" fill="#FED2A4"/>
<path d="M48.3961 7.14048V2.82117C48.3961 1.63943 49.266 0.650773 50.4267 0.385728C50.2272 0.340254 50.0136 0.314941 49.7994 0.314941H47.2862C45.8255 0.314941 44.6411 1.43634 44.6411 2.82117V7.14048C44.6411 9.18314 46.3874 10.8387 48.542 10.8387C49.2227 10.8387 49.8626 10.6732 50.4197 10.3827C49.2137 9.7537 48.3961 8.53782 48.3961 7.14048Z" fill="#FFBD86"/>
<path d="M40.5939 8.671V2.82117C40.5939 1.63928 41.4628 0.650332 42.6235 0.385581C42.4243 0.340254 42.2112 0.314941 41.9971 0.314941H39.4824C38.0217 0.314941 36.8389 1.43634 36.8389 2.82117V8.671C36.8389 10.7137 38.5852 12.3693 40.7398 12.3693C41.4205 12.3693 42.0602 12.2037 42.6173 11.9131C41.4113 11.2841 40.5939 10.0683 40.5939 8.671Z" fill="#FFBD86"/>
<path d="M32.7906 9.91749V8.671V2.82117C32.7906 1.63943 33.6626 0.651215 34.8232 0.386317C34.6237 0.340695 34.4081 0.314941 34.1939 0.314941H31.6808C30.22 0.314941 29.0356 1.43634 29.0356 2.82117V8.671V9.91749C29.0356 11.9602 30.782 13.6158 32.9366 13.6158C33.6172 13.6158 34.2571 13.4502 34.8142 13.1597C33.6082 12.5307 32.7906 11.3148 32.7906 9.91749Z" fill="#FFBD86"/>
<path d="M24.9889 8.671V2.82117C24.9889 1.63928 25.8583 0.650479 27.019 0.385728C26.8197 0.340254 26.6062 0.314941 26.3922 0.314941H23.8774C22.4167 0.314941 21.2339 1.43634 21.2339 2.82117V8.671C21.2339 10.7137 22.9802 12.3693 25.1348 12.3693C25.8155 12.3693 26.4553 12.2037 27.0123 11.9131C25.8063 11.2841 24.9889 10.0683 24.9889 8.671Z" fill="#FFBD86"/>
<path d="M34.8692 50.0748C34.8692 53.1235 32.2244 55.5759 29.0094 55.508L22.9289 55.3799L17.603 50.3306C16.0771 48.884 15.2202 46.9223 15.2202 44.8781V25.4714C15.2202 23.1371 17.162 21.1711 19.6238 21.1237C20.9025 21.0991 22.0626 21.5804 22.8963 22.3723C23.7113 23.1434 24.2142 24.2089 24.2142 25.3862V34.4757C24.2142 35.0779 24.6954 35.5801 25.3274 35.6422C27.8247 35.8879 30.0662 36.9515 31.749 38.5457C33.677 40.3735 34.8692 42.8989 34.8692 45.6892V50.0748Z" fill="#FED2A4"/>
<path d="M28.284 54.7582L28.2854 54.7569L23.6166 50.3306C22.0907 48.884 21.2338 46.9223 21.2338 44.8781V25.4714C21.2338 24.197 21.8134 23.0332 22.7397 22.2305C21.9202 21.5234 20.8245 21.1006 19.6238 21.1237C17.162 21.1711 15.2202 23.1371 15.2202 25.4714V44.8783C15.2202 46.9224 16.0771 48.8841 17.603 50.3308L22.9289 55.38L29.0094 55.5082C29.0313 55.5086 29.0529 55.5076 29.0746 55.5079L28.284 54.7582Z" fill="#FFBD86"/>
</g>
<defs>
<clipPath id="clip0">
<rect width="77" height="73" fill="white" transform="translate(0 0.314941)"/>
</clipPath>
</defs>
</svg>
