<svg width="86" height="86" fill="none" xmlns="http://www.w3.org/2000/svg"><g clip-path="url(#clip0)"><path d="M47.539 54.118l6.85-6.85 1.938 1.937-6.85 6.85-1.938-1.937z" fill="#003A66"/><path d="M83.68 74.62l-3.094-3.093h4.856V11.245H14.2V.285H7.35A6.858 6.858 0 00.5 7.135v57.542a6.858 6.858 0 006.85 6.85h55.66l11.881 11.88a6.174 6.174 0 004.394 1.82 6.221 6.221 0 006.215-6.213c0-1.66-.647-3.22-1.82-4.394zm-6.02-2.144l-4.912 4.913-23.02-23.023-2.007-6.875 6.922 1.966L77.66 72.476zM3.24 7.135a4.115 4.115 0 014.11-4.11h4.11v54.801H7.35A6.814 6.814 0 003.24 59.2V7.135zm4.11 61.652a4.115 4.115 0 01-4.11-4.11 4.115 4.115 0 014.11-4.11h6.85V13.984h68.502v54.802h-4.856l-21.77-21.772L43.702 43.5l3.589 12.306 12.98 12.98H7.35zm71.935 13.7c-.928 0-1.8-.362-2.456-1.017l-2.144-2.144 4.913-4.913 2.144 2.144a3.453 3.453 0 011.018 2.457 3.48 3.48 0 01-3.475 3.473z" fill="#003A66"/><path d="M56.672 19.465h7.58v2.74h-7.58v-2.74zm12.33 21.921h-21.92v-12.33h2.74v9.59h16.44v-4.583h2.74v7.323zM21.05 63.306h2.74v2.74h-2.74v-2.74zm5.48 0h19.181v2.74h-19.18v-2.74z" fill="#003A66"/><path d="M16.94 62.504V16.725h45.78L16.94 62.504zm6.85-38.929v21.92l21.921-21.92h-21.92z" fill="url(#paint0_linear)"/><path d="M22.42 49.273V22.205h27.068L22.421 49.273zm2.74-24.328V42.66l17.714-17.714H25.161z" fill="#003A66"/><path d="M70.372 35.906c-5.287 0-9.59-4.304-9.59-9.59 0-5.287 4.303-9.59 9.59-9.59s9.59 4.303 9.59 9.59c0 5.286-4.303 9.59-9.59 9.59zm0-13.7a4.115 4.115 0 00-4.11 4.11 4.115 4.115 0 004.11 4.11 4.115 4.115 0 004.11-4.11 4.115 4.115 0 00-4.11-4.11z" fill="url(#paint1_linear)"/><path d="M70.372 31.796a5.486 5.486 0 01-5.48-5.48 5.486 5.486 0 015.48-5.48 5.486 5.486 0 015.48 5.48 5.486 5.486 0 01-5.48 5.48zm0-8.22a2.743 2.743 0 00-2.74 2.74 2.743 2.743 0 002.74 2.74 2.743 2.743 0 002.74-2.74 2.743 2.743 0 00-2.74-2.74z" fill="#003A66"/></g><defs><linearGradient id="paint0_linear" x1="39.83" y1="16.725" x2="39.83" y2="62.504" gradientUnits="userSpaceOnUse"><stop stop-color="#F5A484"/><stop offset="1" stop-color="#D06330"/></linearGradient><linearGradient id="paint1_linear" x1="70.372" y1="16.725" x2="70.372" y2="35.906" gradientUnits="userSpaceOnUse"><stop stop-color="#F5A484"/><stop offset="1" stop-color="#D06330"/></linearGradient><clipPath id="clip0"><path fill="#fff" transform="translate(.5 .227)" d="M0 0h85v85H0z"/></clipPath></defs></svg>