<svg width="71" height="78" fill="none" xmlns="http://www.w3.org/2000/svg"><path d="M41.585 26.679H28.359V19.06a10.596 10.596 0 01-3.968-8.253c0-5.834 4.747-10.58 10.581-10.58s10.58 4.746 10.58 10.58c0 3.215-1.47 6.249-3.967 8.252v7.619z" fill="url(#paint0_linear)"/><path d="M42.907 20.066h-6.613v-5.534c1.536-.547 2.645-2.002 2.645-3.724a3.973 3.973 0 00-3.967-3.968 3.973 3.973 0 00-3.968 3.968c0 1.722 1.11 3.177 2.645 3.724v5.534h-6.613v2.645h15.871v-2.645zm-7.935-10.58a1.324 1.324 0 010 2.644c-.73 0-1.323-.594-1.323-1.322 0-.73.593-1.323 1.323-1.323zm10.195 45.558l1.434-2.225c5.141 3.316 8.21 8.933 8.21 15.027v9.892H15.132v-9.892c0-6.094 3.068-11.711 8.21-15.028l1.433 2.225c-4.382 2.825-6.998 7.611-6.998 12.803v7.247h34.387v-7.247c0-5.19-2.616-9.977-6.998-12.802z" fill="#003A66"/><path d="M20.3 45.248c0 8.051 6.55 14.6 14.602 14.6 8.051 0 14.6-6.549 14.6-14.6 0-8.051-6.549-14.601-14.6-14.601-8.052 0-14.602 6.55-14.602 14.6zm26.558 0c0 6.591-5.364 11.956-11.956 11.956S22.945 51.84 22.945 45.248c0-6.593 5.365-11.957 11.957-11.957 6.592 0 11.956 5.364 11.956 11.957z" fill="#003A66"/><path d="M22.326 52.713c-1.094.312-2.202.47-3.293.47-6.592 0-11.957-5.364-11.957-11.956 0-6.593 5.365-11.956 11.957-11.956 3.598 0 6.971 1.6 9.255 4.392l2.049-1.675a14.56 14.56 0 00-11.306-5.362c-8.051 0-14.6 6.55-14.6 14.601 0 8.052 6.549 14.601 14.6 14.601 1.337 0 2.69-.193 4.02-.573l-.725-2.542z" fill="#003A66"/><path d="M2.835 64.6c0-5.192 2.616-9.979 6.998-12.804l-1.434-2.224C3.26 52.889.19 58.505.19 64.6v9.892h17.195v-2.646H2.834V64.6zM63.93 41.227c0-8.05-6.549-14.601-14.6-14.601a14.56 14.56 0 00-11.304 5.362l2.048 1.675a11.917 11.917 0 019.256-4.392c6.591 0 11.956 5.363 11.956 11.956 0 6.592-5.364 11.957-11.956 11.957-1.091 0-2.2-.159-3.294-.471l-.728 2.542c1.33.38 2.683.575 4.022.575 8.051-.002 14.6-6.551 14.6-14.603z" fill="#003A66"/><path d="M62.727 47.39l-1.434 2.224c4.382 2.825 6.998 7.611 6.998 12.802v7.247H52.42v2.645h18.516v-9.892c0-6.094-3.069-11.711-8.21-15.027z" fill="#003A66"/><defs><linearGradient id="paint0_linear" x1="34.972" y1=".227" x2="34.972" y2="26.679" gradientUnits="userSpaceOnUse"><stop stop-color="#F5A484"/><stop offset="1" stop-color="#D06330"/></linearGradient></defs></svg>