<svg width="74" height="74" fill="none" xmlns="http://www.w3.org/2000/svg"><g clip-path="url(#clip0)"><path d="M45.893 1.362h-18.84l-.717 15.071-3.588 4.366 27.57-.478-3.767-4.605-.658-14.354z" fill="url(#paint0_linear)"/><path d="M52.32 44.027H20.687c-.672 0-1.217.544-1.217 1.217V72.01c0 .673.545 1.217 1.217 1.217H52.32c.673 0 1.217-.544 1.217-1.217V45.244c0-.673-.544-1.217-1.217-1.217zm-1.217 26.767h-29.2V46.46h29.2v24.333z" fill="#003A66"/><path d="M52.32 44.027H20.687c-.672 0-1.217.544-1.217 1.217V72.01c0 .673.545 1.217 1.217 1.217H52.32c.673 0 1.217-.544 1.217-1.217V45.244c0-.673-.544-1.217-1.217-1.217zm-1.217 26.767h-29.2V46.46h29.2v24.333z" fill="#003A66"/><path d="M20.687 44.027H1.22c-.672 0-1.217.544-1.217 1.217V72.01c0 .673.545 1.217 1.217 1.217h19.466c.672 0 1.217-.544 1.217-1.217V45.244c0-.673-.545-1.217-1.216-1.217zM19.47 70.794H2.437V46.46H19.47v24.333zm52.317-26.767H52.32c-.673 0-1.217.544-1.217 1.217V72.01c0 .673.544 1.217 1.217 1.217h19.467c.672 0 1.216-.544 1.216-1.217V45.244c0-.673-.543-1.217-1.216-1.217zM70.57 70.794H53.537V46.46H70.57v24.333zM47.453 53.76h-21.9c-.672 0-1.217.544-1.217 1.217v12.167c0 .673.546 1.216 1.217 1.216h21.9c.673 0 1.217-.543 1.217-1.216V54.977c0-.673-.544-1.216-1.217-1.216zm-1.217 12.167H26.77v-9.733h19.466v9.733zm-6.083-17.033H37.72v2.433h2.433v-2.433zm-4.866 0h-2.434v2.433h2.434v-2.433zm-4.867 0h-2.433v2.433h2.433v-2.433zm14.6 0h-2.434v2.433h2.434v-2.433z" fill="#003A66"/><path d="M20.686 53.76H1.22v2.434h19.466V53.76zm-7.3-4.866H8.52v2.433h4.866v-2.433zm0 9.733H8.52v2.433h4.866v-2.433zm58.4-4.867H52.32v2.434h19.466V53.76z" fill="#003A66"/><path d="M63.27 54.977h-2.434V72.01h2.434V54.977zm1.217-6.083H59.62v2.433h4.867v-2.433zM58.403 61.06H55.97v3.65h2.433v-3.65zm9.733 0h-2.433v3.65h2.433v-3.65zM51.963 20.05l-4.51-4.51V1.444c0-.672-.544-1.217-1.216-1.217H26.77c-.672 0-1.217.545-1.217 1.217V15.54l-4.51 4.51a1.217 1.217 0 00.86 2.077h29.2a1.217 1.217 0 00.86-2.077zm-27.123-.356l2.79-2.79c.229-.228.356-.538.356-.86V2.66H45.02v13.384c0 .322.127.632.356.86l2.79 2.79H24.84zm40.863 7.3a4.871 4.871 0 00-4.867 4.866v1.217h2.434V31.86a2.436 2.436 0 012.433-2.433 2.436 2.436 0 012.434 2.433v13.384h2.433V31.86a4.872 4.872 0 00-4.867-4.866z" fill="#003A66"/><path d="M69.353 39.16h-3.65v2.434h3.65V39.16zm-34.066-2.433H23.12c-.672 0-1.217.544-1.217 1.217v7.3c0 .672.545 1.216 1.217 1.216h12.167c.671 0 1.216-.544 1.216-1.216v-7.3c0-.673-.545-1.217-1.216-1.217zm-1.217 7.3h-9.734V39.16h9.734v4.867z" fill="#003A66"/><path d="M23.12 39.16h-3.65v2.434h3.65V39.16zm15.817 0h-3.65v2.434h3.65V39.16zM20.687.227H1.22C.548.227.003.772.003 1.444v14.6c0 .671.545 1.216 1.217 1.216h19.466c.672 0 1.217-.545 1.217-1.216v-14.6c0-.672-.545-1.217-1.216-1.217zm-1.217 14.6H2.437V2.66H19.47v12.167z" fill="#003A66"/><path d="M17.037 7.527h-2.434v4.867h2.434V7.527zm54.75-7.3H52.32c-.673 0-1.217.545-1.217 1.217v14.6c0 .671.544 1.216 1.217 1.216h19.467c.672 0 1.216-.545 1.216-1.216v-14.6c0-.672-.543-1.217-1.216-1.217zm-1.217 14.6H53.537V2.66H70.57v12.167z" fill="#003A66"/><path d="M58.403 7.527H55.97v4.867h2.433V7.527zm-36.5 17.033H.003v2.434h21.9V24.56z" fill="#003A66"/><path d="M4.87 22.127H2.437v10.95H4.87v-10.95z" fill="#003A66"/><path d="M3.653 31.86a3.654 3.654 0 00-3.65 3.65 3.654 3.654 0 003.65 3.65 3.654 3.654 0 003.65-3.65 3.654 3.654 0 00-3.65-3.65zm0 4.867c-.67 0-1.216-.546-1.216-1.217 0-.67.546-1.216 1.216-1.216.67 0 1.217.546 1.217 1.216a1.22 1.22 0 01-1.217 1.217zm6.084-14.6H7.303v10.95h2.434v-10.95z" fill="#003A66"/><path d="M8.52 31.86a3.654 3.654 0 00-3.65 3.65 3.654 3.654 0 003.65 3.65 3.654 3.654 0 003.65-3.65 3.654 3.654 0 00-3.65-3.65zm0 4.867a1.22 1.22 0 01-1.217-1.217c0-.67.546-1.216 1.217-1.216.67 0 1.216.546 1.216 1.216 0 .67-.546 1.217-1.216 1.217zm6.083-14.6H12.17v10.95h2.433v-10.95z" fill="#003A66"/><path d="M13.387 31.86a3.654 3.654 0 00-3.65 3.65 3.654 3.654 0 003.65 3.65 3.654 3.654 0 003.65-3.65 3.654 3.654 0 00-3.65-3.65zm0 4.867a1.22 1.22 0 01-1.217-1.217c0-.67.546-1.216 1.217-1.216.67 0 1.216.546 1.216 1.216 0 .67-.546 1.217-1.216 1.217z" fill="#003A66"/></g><defs><linearGradient id="paint0_linear" x1="36.533" y1="1.362" x2="36.533" y2="20.799" gradientUnits="userSpaceOnUse"><stop stop-color="#F5A484"/><stop offset="1" stop-color="#D06330"/></linearGradient><clipPath id="clip0"><path fill="#fff" transform="translate(.003 .227)" d="M0 0h73v73H0z"/></clipPath></defs></svg>