<svg width="23" height="17" viewBox="0 0 23 17" fill="none" xmlns="http://www.w3.org/2000/svg">
<path d="M7.02517 6.4558H8.47214V5.41557C7.99033 4.95367 7.42053 4.5934 6.79666 4.35619C6.17278 4.11898 5.50757 4.00967 4.84059 4.03477H2.41956C1.95462 4.03528 1.50408 4.19611 1.1439 4.49012C0.783732 4.78414 0.535965 5.19337 0.442383 5.64879H6.05111C6.15811 5.64881 6.26073 5.69134 6.33639 5.76702L7.02517 6.4558Z" fill="#11B687"/>
<path d="M4.43896 6.45605V7.77794L6.20107 6.77119L5.88594 6.45605H4.43896Z" fill="#11B687"/>
<path d="M4.03455 13.3162C4.48025 13.3162 4.84156 12.9549 4.84156 12.5092C4.84156 12.0635 4.48025 11.7021 4.03455 11.7021C3.58885 11.7021 3.22754 12.0635 3.22754 12.5092C3.22754 12.9549 3.58885 13.3162 4.03455 13.3162Z" fill="#11B687"/>
<path d="M7.64127 12.1056C7.57678 11.5216 7.37068 10.9621 7.04085 10.4758L6.33633 11.1804L5.76577 10.6098L6.51266 9.86292C5.94311 9.32618 5.21475 8.98876 4.43703 8.90137V9.68457H3.63002V8.90137C2.94908 8.97748 2.30381 9.24561 1.76945 9.67448L2.30127 10.2063L1.73072 10.7769L1.1989 10.245C0.770021 10.7794 0.501893 11.4247 0.425781 12.1056H1.20899V12.9126H0.425781C0.513172 13.6903 0.850589 14.4187 1.38733 14.9883L2.13422 14.2414L2.70478 14.8119L2.00026 15.5164C2.48654 15.8463 3.04599 16.0524 3.63002 16.1169V15.3337H4.43703V16.1169C5.11797 16.0407 5.76324 15.7726 6.29759 15.3437L5.76577 14.8119L6.33633 14.2414L6.86815 14.7732C7.29703 14.2388 7.56515 13.5936 7.64127 12.9126H6.85806V12.1056H7.64127ZM4.03352 14.1231C3.7143 14.1231 3.40225 14.0285 3.13682 13.8511C2.8714 13.6738 2.66452 13.4217 2.54236 13.1268C2.4202 12.8319 2.38824 12.5073 2.45051 12.1942C2.51279 11.8811 2.66651 11.5936 2.89224 11.3678C3.11796 11.1421 3.40555 10.9884 3.71864 10.9261C4.03173 10.8638 4.35626 10.8958 4.65118 11.018C4.94611 11.1401 5.19818 11.347 5.37553 11.6124C5.55288 11.8778 5.64755 12.1899 5.64755 12.5091C5.64755 12.9372 5.4775 13.3477 5.17481 13.6504C4.87212 13.9531 4.46159 14.1231 4.03352 14.1231Z" fill="#11B687"/>
<path d="M19.5348 6.45619H21.3853V4.03516H17.1138L19.5348 6.45619Z" fill="#11B687"/>
<path d="M5.25098 8.24321C6.2296 8.52432 7.08227 9.13245 7.66676 9.96618V7.2627H6.96668L5.25098 8.24321Z" fill="#11B687"/>
<path d="M16.1405 0.403506C16.1405 0.296489 16.098 0.193856 16.0223 0.118184C15.9467 0.0425121 15.844 0 15.737 0C15.63 0 15.5274 0.0425121 15.4517 0.118184C15.376 0.193856 15.3335 0.296489 15.3335 0.403506V3.22804H16.1405V0.403506Z" fill="#11B687"/>
<path d="M16.9473 2.4209H17.7543V3.22791H16.9473V2.4209Z" fill="#11B687"/>
<path d="M13.3141 0.807011H14.5247V0.403506C14.526 0.265733 14.5511 0.129225 14.5989 0H13.3141C13.2071 0 13.1045 0.0425121 13.0288 0.118184C12.9532 0.193856 12.9106 0.296489 12.9106 0.403506C12.9106 0.510522 12.9532 0.613155 13.0288 0.688827C13.1045 0.764499 13.2071 0.807011 13.3141 0.807011Z" fill="#11B687"/>
<path d="M14.1387 12.1048H14.9509C15.0524 11.0027 15.5616 9.97829 16.3788 9.23197C17.1959 8.48564 18.2622 8.07117 19.3689 8.06971H23.0005V7.2627H19.3689C18.048 7.26424 16.7761 7.76344 15.8068 8.66082C14.8375 9.5582 14.2419 10.7879 14.1387 12.1048Z" fill="#11B687"/>
<path d="M22.9748 12.1056C22.9103 11.5216 22.7042 10.9621 22.3743 10.4758L21.6698 11.1804L21.0993 10.6098L21.8462 9.86292C21.2766 9.32618 20.5482 8.98876 19.7705 8.90137V9.68457H18.9635V8.90137C18.2826 8.97748 17.6373 9.24561 17.103 9.67448L17.6348 10.2063L17.0642 10.7769L16.5324 10.245C16.1035 10.7794 15.8354 11.4247 15.7593 12.1056H16.5425V12.9126H15.7593C15.8467 13.6903 16.1841 14.4187 16.7208 14.9883L17.4677 14.2414L18.0383 14.8119L17.3338 15.5164C17.82 15.8463 18.3795 16.0524 18.9635 16.1169V15.3337H19.7705V16.1169C20.4515 16.0407 21.0967 15.7726 21.6311 15.3437L21.0993 14.8119L21.6698 14.2414L22.2016 14.7732C22.6305 14.2388 22.8987 13.5936 22.9748 12.9126H22.1916V12.1056H22.9748ZM19.367 14.1231C19.0478 14.1231 18.7357 14.0285 18.4703 13.8511C18.2049 13.6738 17.998 13.4217 17.8759 13.1268C17.7537 12.8319 17.7217 12.5073 17.784 12.1942C17.8463 11.8811 18 11.5936 18.2257 11.3678C18.4515 11.1421 18.7391 10.9884 19.0521 10.9261C19.3652 10.8638 19.6898 10.8958 19.9847 11.018C20.2796 11.1401 20.5317 11.347 20.709 11.6124C20.8864 11.8778 20.981 12.1899 20.981 12.5091C20.981 12.9372 20.811 13.3477 20.5083 13.6504C20.2056 13.9531 19.7951 14.1231 19.367 14.1231Z" fill="#11B687"/>
<path d="M22.1914 4.10938V4.84214H22.9242C22.8639 4.67338 22.7669 4.5201 22.6402 4.39338C22.5134 4.26666 22.3602 4.16966 22.1914 4.10938Z" fill="#11B687"/>
<path d="M8.4751 7.2627H9.28211V12.1048H8.4751V7.2627Z" fill="#11B687"/>
<path d="M22.1914 5.64941H22.9984V6.45643H22.1914V5.64941Z" fill="#11B687"/>
<path d="M11.2999 10.4912H10.0894V12.1052H13.277C13.1835 11.6498 12.9357 11.2406 12.5755 10.9466C12.2154 10.6525 11.7648 10.4917 11.2999 10.4912Z" fill="#11B687"/>
<path d="M10.8948 6.05292V5.64941H9.28076V6.45643H10.4913C10.5983 6.45643 10.7009 6.41391 10.7766 6.33824C10.8523 6.26257 10.8948 6.15994 10.8948 6.05292Z" fill="#11B687"/>
<path d="M18.4702 6.53075L15.9749 4.03547H14.9314C14.3256 4.02046 13.7236 4.13625 13.1665 4.37495C12.6094 4.61365 12.1104 4.96965 11.7034 5.41869V6.053C11.7034 6.37405 11.5758 6.68195 11.3488 6.90897C11.1218 7.13598 10.8139 7.26352 10.4929 7.26352H10.0894V9.68456H11.2999C11.7392 9.68529 12.1723 9.78866 12.5646 9.98643C12.9569 10.1842 13.2976 10.4709 13.5595 10.8237C13.8837 9.71445 14.5182 8.72102 15.3882 7.96044C16.2583 7.19985 17.3276 6.70381 18.4702 6.53075Z" fill="#11B687"/>
<path d="M19.368 13.3162C19.8137 13.3162 20.1751 12.9549 20.1751 12.5092C20.1751 12.0635 19.8137 11.7021 19.368 11.7021C18.9223 11.7021 18.561 12.0635 18.561 12.5092C18.561 12.9549 18.9223 13.3162 19.368 13.3162Z" fill="#11B687"/>
<path d="M1.21052 3.63179H2.01753V2.42127H3.06099L4.55679 3.91706L5.12734 3.34651L3.51332 1.73248C3.43767 1.65681 3.33505 1.61428 3.22804 1.61426H0V2.42127H1.21052V3.63179Z" fill="#11B687"/>
</svg>
