<svg width="35" height="35" viewBox="0 0 35 35" fill="none" xmlns="http://www.w3.org/2000/svg">
<g clip-path="url(#clip0_53_806)">
<path d="M11.3477 22.6272H29.8733C30.3321 22.6272 30.7345 22.3239 30.8587 21.8833L34.9605 7.52754C35.0486 7.21806 34.9883 6.8856 34.7941 6.62846C34.5997 6.37211 34.2974 6.2207 33.9749 6.2207H8.98045L8.24745 2.92236C8.14331 2.45266 7.72675 2.11914 7.24609 2.11914H1.02539C0.458756 2.11914 0 2.5779 0 3.14453C0 3.71143 0.458756 4.16992 1.02539 4.16992H6.42311L10.126 20.8325C9.03652 21.3062 8.27148 22.3906 8.27148 23.6526C8.27148 25.3488 9.65149 26.7288 11.3477 26.7288H29.8733C30.4402 26.7288 30.8987 26.2703 30.8987 25.7034C30.8987 25.1368 30.4402 24.678 29.8733 24.678H11.3477C10.7829 24.678 10.3223 24.2184 10.3223 23.6526C10.3223 23.0868 10.7829 22.6272 11.3477 22.6272Z" fill="white"/>
<path d="M10.3223 29.8047C10.3223 31.5011 11.7023 32.8809 13.3987 32.8809C15.0949 32.8809 16.4749 31.5011 16.4749 29.8047C16.4749 28.1085 15.0949 26.7285 13.3987 26.7285C11.7023 26.7285 10.3223 28.1085 10.3223 29.8047Z" fill="white"/>
<path d="M24.7456 29.8047C24.7456 31.5011 26.1256 32.8809 27.8218 32.8809C29.5182 32.8809 30.8979 31.5011 30.8979 29.8047C30.8979 28.1085 29.5182 26.7285 27.8218 26.7285C26.1256 26.7285 24.7456 28.1085 24.7456 29.8047Z" fill="white"/>
</g>
<defs>
<clipPath id="clip0_53_806">
<rect width="35" height="35" fill="white"/>
</clipPath>
</defs>
</svg>
