<svg width="1088" height="546" viewBox="0 0 1088 546" fill="none" xmlns="http://www.w3.org/2000/svg">
<path d="M1087.06 513.316C1087.06 531.013 843.716 545.36 543.531 545.36C243.349 545.36 0 531.013 0 513.316C0 495.619 243.349 481.27 543.531 481.27C843.716 481.27 1087.06 495.619 1087.06 513.316Z" fill="#BECBD4"/>
<path d="M363.354 97.7687V111.195H308.672V97.7687L308.705 97.1863C308.995 89.2253 315.53 82.884 323.554 82.884H348.501C353.064 82.884 357.174 84.9874 359.923 88.2568C362.059 90.8119 363.354 94.1437 363.354 97.7687Z" fill="#6E7778"/>
<path d="M319.27 476.748H352.727V109.319H319.27V476.748Z" fill="#6E7778"/>
<path d="M284.598 504.249H387.422V476.583H284.598V504.249Z" fill="#6E7778"/>
<path d="M387.422 476.583V504.249H335.72C334.198 494.8 326.011 487.616 316.143 487.616H284.598V476.583H387.422Z" fill="#696665"/>
<path d="M363.348 97.7687V111.195H352.735V476.748H335.974C335.813 470.762 333.936 465.261 330.798 460.635C328.046 456.589 324.359 453.225 320.023 450.863C319.765 450.732 319.538 450.606 319.278 450.474V419.444H336.007V315.878C336.007 309.438 334.067 303.452 330.702 298.468C327.822 294.198 323.907 290.671 319.278 288.308V257.605H336.007V126.983C336.007 121.192 334.357 115.789 331.476 111.195C331.121 110.547 330.702 109.932 330.216 109.319C329.343 108.058 328.306 106.859 327.174 105.76C324.487 103.073 321.253 100.904 317.694 99.3858C314.912 98.2204 311.87 97.4436 308.699 97.1863C308.989 89.2253 315.525 82.884 323.549 82.884H348.496C353.059 82.884 357.168 84.9874 359.917 88.2568C362.054 90.8119 363.348 94.1437 363.348 97.7687Z" fill="#696665"/>
<path d="M378.746 42.3701C378.746 65.7702 359.776 84.7408 336.376 84.7408C312.976 84.7408 294.008 65.7702 294.008 42.3701C294.008 18.9706 312.976 0 336.376 0C359.776 0 378.746 18.9706 378.746 42.3701Z" fill="#E74235"/>
<path d="M366.722 59.3809C364.054 64.1309 360.303 68.191 355.801 71.2256C355.265 71.5884 355.124 72.3161 355.485 72.8501C355.847 73.386 356.575 73.5286 357.111 73.1658C361.913 69.9275 365.915 65.5961 368.762 60.5271C369.078 59.9633 368.879 59.2496 368.315 58.9338C367.751 58.6181 367.039 58.8171 366.722 59.3809Z" fill="#FCDB00"/>
<path d="M345.331 75.9894C342.884 76.6375 340.331 77.0282 337.701 77.1264C337.055 77.1502 336.549 77.6928 336.575 78.3389C336.598 78.9849 337.141 79.4877 337.787 79.4645C340.59 79.3591 343.319 78.9452 345.932 78.25C346.557 78.0835 346.929 77.4447 346.764 76.8199C346.597 76.1951 345.956 75.8236 345.331 75.9894Z" fill="#FCDB00"/>
<path d="M307.946 22.3591C308.924 20.9714 310.003 19.6587 311.168 18.4276C311.613 17.96 311.594 17.2178 311.123 16.7734C310.655 16.329 309.916 16.3502 309.471 16.8178C308.226 18.1285 307.078 19.5301 306.034 21.0112C305.662 21.5379 305.788 22.2675 306.315 22.6423C306.843 23.0144 307.574 22.8877 307.946 22.3591Z" fill="#FCDB00"/>
<path d="M317.701 13.0289C323.097 9.58631 329.502 7.59308 336.381 7.59043C342.638 7.59308 348.5 9.24008 353.571 12.1275C354.133 12.4485 354.847 12.2515 355.167 11.6904C355.485 11.1312 355.291 10.4148 354.729 10.0944C349.319 7.01268 343.05 5.25024 336.381 5.25024C329.048 5.25024 322.201 7.38215 316.442 11.0562C315.899 11.4025 315.738 12.1255 316.087 12.6707C316.433 13.216 317.158 13.3752 317.701 13.0289Z" fill="#FCDB00"/>
<path d="M336.389 71.1278C320.508 71.1278 307.633 58.253 307.633 42.3714C307.633 26.4899 320.508 13.6157 336.389 13.6157C352.271 13.6157 365.146 26.4899 365.146 42.3714C365.146 58.253 352.271 71.1278 336.389 71.1278Z" fill="#F0822C"/>
<path d="M355.279 42.3703C355.279 52.8021 346.822 61.2593 336.39 61.2593C325.961 61.2593 317.504 52.8021 317.504 42.3703C317.504 31.9391 325.961 23.4846 336.39 23.4846C346.822 23.4846 355.279 31.9391 355.279 42.3703Z" fill="#F7B802"/>
<path d="M324.398 313.77C324.398 313.776 324.398 316.386 324.398 320.944C324.398 325.502 324.398 332.005 324.398 339.779C324.398 340.427 324.922 340.949 325.568 340.949C326.214 340.949 326.738 340.427 326.738 339.779C326.738 332.005 326.738 325.502 326.738 320.944C326.738 316.386 326.738 313.776 326.738 313.77C326.738 313.124 326.214 312.6 325.568 312.6C324.922 312.6 324.398 313.124 324.398 313.77Z" fill="#98A1A1"/>
<path d="M324.398 462.281C324.398 468.587 324.398 472.313 324.398 472.313C324.398 472.959 324.922 473.483 325.568 473.483C326.214 473.483 326.738 472.959 326.738 472.313C326.738 472.313 326.738 468.587 326.738 462.281C326.738 461.635 326.214 461.111 325.568 461.111C324.922 461.111 324.398 461.635 324.398 462.281Z" fill="#98A1A1"/>
<path d="M778.382 97.7687V111.195H723.703V97.7687L723.734 97.1863C724.024 89.2253 730.562 82.884 738.586 82.884H763.53C768.096 82.884 772.202 84.9874 774.954 88.2568C777.088 90.8119 778.382 94.1437 778.382 97.7687Z" fill="#6E7778"/>
<path d="M734.328 476.748H767.783V109.319H734.328V476.748Z" fill="#6E7778"/>
<path d="M699.633 504.249H802.459V476.583H699.633V504.249Z" fill="#6E7778"/>
<path d="M802.459 476.583V504.249H750.755C749.234 494.8 741.048 487.616 731.18 487.616H699.633V476.583H802.459Z" fill="#696665"/>
<path d="M778.379 97.7687V111.195H767.767V476.748H751.008C750.845 470.762 748.97 465.261 745.83 460.635C743.08 456.589 739.392 453.225 735.056 450.863C734.796 450.732 734.57 450.606 734.312 450.474V419.444H751.038V315.878C751.038 309.438 749.099 303.452 745.734 298.468C742.853 294.198 738.941 290.671 734.312 288.308V257.605H751.038V126.983C751.038 121.192 749.389 115.789 746.51 111.195C746.152 110.547 745.734 109.932 745.249 109.319C744.374 108.058 743.337 106.859 742.208 105.76C739.521 103.073 736.287 100.904 732.726 99.3858C729.943 98.2204 726.904 97.4436 723.73 97.1863C724.021 89.2253 730.559 82.884 738.583 82.884H763.527C768.092 82.884 772.199 84.9874 774.951 88.2568C777.085 90.8119 778.379 94.1437 778.379 97.7687Z" fill="#696665"/>
<path d="M793.803 42.3701C793.803 65.7702 774.831 84.7408 751.433 84.7408C728.033 84.7408 709.062 65.7702 709.062 42.3701C709.062 18.9706 728.033 0 751.433 0C774.831 0 793.803 18.9706 793.803 42.3701Z" fill="#E74235"/>
<path d="M781.776 59.3809C779.109 64.1309 775.355 68.191 770.855 71.2256C770.32 71.5884 770.179 72.3161 770.539 72.852C770.902 73.386 771.628 73.5286 772.163 73.1658C776.965 69.9275 780.969 65.5961 783.817 60.5271C784.133 59.9633 783.932 59.2496 783.37 58.9338C782.806 58.6181 782.092 58.8171 781.776 59.3809Z" fill="#FCDB00"/>
<path d="M760.366 75.9894C757.921 76.6375 755.366 77.0282 752.736 77.1264C752.09 77.1502 751.587 77.6928 751.61 78.3389C751.633 78.9849 752.177 79.4877 752.822 79.4645C755.628 79.3591 758.354 78.9452 760.968 78.25C761.593 78.0835 761.964 77.4428 761.798 76.8199C761.633 76.1951 760.991 75.8236 760.366 75.9894Z" fill="#FCDB00"/>
<path d="M722.979 22.3587C723.955 20.9711 725.034 19.6584 726.201 18.4273C726.646 17.9596 726.625 17.2201 726.157 16.7757C725.689 16.3286 724.949 16.3498 724.502 16.8174C723.257 18.1281 722.108 19.5297 721.065 21.0109C720.693 21.5395 720.82 22.2698 721.348 22.6419C721.877 23.014 722.607 22.8873 722.979 22.3587Z" fill="#FCDB00"/>
<path d="M732.755 13.0289C738.153 9.58631 744.557 7.59308 751.437 7.59043C757.692 7.59308 763.554 9.24008 768.624 12.1275C769.186 12.4485 769.9 12.2515 770.22 11.6904C770.539 11.1312 770.344 10.4148 769.783 10.0944C764.372 7.01268 758.104 5.25024 751.437 5.25024C744.101 5.25024 737.257 7.38215 731.498 11.0562C730.953 11.4025 730.794 12.1255 731.14 12.6707C731.489 13.216 732.212 13.3752 732.755 13.0289Z" fill="#FCDB00"/>
<path d="M751.427 71.1278C735.543 71.1278 722.668 58.253 722.668 42.3714C722.668 26.4899 735.543 13.6157 751.427 13.6157C767.309 13.6157 780.185 26.4899 780.185 42.3714C780.185 58.253 767.309 71.1278 751.427 71.1278Z" fill="#F0822C"/>
<path d="M770.316 42.3703C770.316 52.8021 761.859 61.2593 751.427 61.2593C740.998 61.2593 732.539 52.8021 732.539 42.3703C732.539 31.9391 740.998 23.4846 751.427 23.4846C761.859 23.4846 770.316 31.9391 770.316 42.3703Z" fill="#F7B802"/>
<path d="M739.43 313.77C739.43 313.776 739.43 316.386 739.43 320.944C739.43 325.502 739.43 332.005 739.43 339.779C739.43 340.427 739.952 340.949 740.6 340.949C741.246 340.949 741.77 340.427 741.77 339.779C741.77 332.005 741.77 325.502 741.77 320.944C741.77 316.386 741.77 313.776 741.77 313.77C741.77 313.124 741.246 312.6 740.6 312.6C739.952 312.6 739.43 313.124 739.43 313.77Z" fill="#98A1A1"/>
<path d="M739.43 462.281C739.43 468.587 739.43 472.313 739.43 472.313C739.43 472.959 739.952 473.483 740.6 473.483C741.246 473.483 741.77 472.959 741.77 472.313C741.77 472.313 741.77 468.587 741.77 462.281C741.77 461.635 741.246 461.111 740.6 461.111C739.952 461.111 739.43 461.635 739.43 462.281Z" fill="#98A1A1"/>
<path d="M264 433.972H823.071V352.793H264V433.972Z" fill="#FFFEF8"/>
<path d="M325.671 352.793L264 414.59V381.397L292.539 352.793H325.671Z" fill="#E74235"/>
<path d="M390.57 352.793L309.551 433.972H276.387L357.404 352.793H390.57Z" fill="#E74235"/>
<path d="M455.443 352.793L374.425 433.972H341.293L422.313 352.793H455.443Z" fill="#E74235"/>
<path d="M520.355 352.793L439.337 433.972H406.172L487.19 352.793H520.355Z" fill="#E74235"/>
<path d="M585.257 352.793L504.239 433.972H471.074L552.093 352.793H585.257Z" fill="#E74235"/>
<path d="M650.116 352.793L569.098 433.972H535.934L616.954 352.793H650.116Z" fill="#E74235"/>
<path d="M715.023 352.793L634.005 433.972H600.84L681.858 352.793H715.023Z" fill="#E74235"/>
<path d="M779.892 352.793L698.874 433.972H665.742L746.762 352.793H779.892Z" fill="#E74235"/>
<path d="M823.06 352.793V374.599L763.786 433.972H730.621L811.639 352.793H823.06Z" fill="#E74235"/>
<path d="M823.062 406.372V433.973H795.527L823.062 406.372Z" fill="#E74235"/>
<path d="M823.065 433.972H767.777H823.065V352.793V433.972Z" fill="#BDC0C5"/>
<path d="M795.536 433.972H763.796L823.071 374.599V406.372L795.536 433.972ZM730.631 433.972H698.89L779.907 352.793H811.649L730.631 433.972ZM665.757 433.972H660.162C655.948 429.461 651.513 425.167 646.864 421.102L715.038 352.793H746.778L665.757 433.972ZM628.06 406.713C621.627 402.424 614.902 398.535 607.924 395.083L650.13 352.793H681.873L628.06 406.713ZM584.383 385.44C576.17 382.735 567.702 380.604 559.016 379.09L585.259 352.793H616.968L584.383 385.44ZM528.552 376.382C528.235 376.38 527.917 376.38 527.601 376.38H496.814L520.354 352.793H552.094L528.552 376.382ZM463.649 376.38H431.907L455.447 352.793H487.19L463.649 376.38ZM398.777 376.38H367.035L390.576 352.793H422.318L398.777 376.38ZM333.87 376.38H302.133L325.671 352.793H357.41L333.87 376.38ZM269.005 376.38H264V352.793H292.539L269.005 376.38Z" fill="#D8D5CC"/>
<path d="M302.128 376.38H269L292.533 352.793H325.666L302.128 376.38Z" fill="#C53A2B"/>
<path d="M367.02 376.38H333.855L357.396 352.793H390.561L367.02 376.38Z" fill="#C53A2B"/>
<path d="M431.891 376.38H398.762L422.302 352.793H455.431L431.891 376.38Z" fill="#C53A2B"/>
<path d="M496.805 376.38H463.641L487.181 352.793H520.346L496.805 376.38Z" fill="#C53A2B"/>
<path d="M559.011 379.09C549.108 377.361 538.932 376.437 528.547 376.382L552.09 352.793H585.254L559.011 379.09Z" fill="#C53A2B"/>
<path d="M607.924 395.083C600.361 391.342 592.5 388.113 584.383 385.44L616.968 352.793H650.13L607.924 395.083Z" fill="#C53A2B"/>
<path d="M646.848 421.102C640.908 415.915 634.626 411.101 628.043 406.713L681.856 352.793H715.021L646.848 421.102Z" fill="#C53A2B"/>
<path d="M698.874 433.972H665.742L746.762 352.793H779.892L698.874 433.972Z" fill="#C53A2B"/>
<path d="M763.786 433.972H730.621L811.639 352.793H823.06V374.599L763.786 433.972Z" fill="#C53A2B"/>
<path d="M823.062 433.973H795.527L823.062 406.372V433.973Z" fill="#C53A2B"/>
<path d="M264 271.633H823.073V109.31H264V271.633Z" fill="#FFFEF8"/>
<path d="M361.842 109.319L264 207.356V155.134L309.752 109.319H361.842Z" fill="#E74235"/>
<path d="M466.061 109.319L304.058 271.645H264V259.545L413.935 109.319H466.061Z" fill="#E74235"/>
<path d="M570.236 109.319L408.232 271.645H356.141L518.144 109.319H570.236Z" fill="#E74235"/>
<path d="M674.447 109.319L512.444 271.645H460.352L622.354 109.319H674.447Z" fill="#E74235"/>
<path d="M778.664 109.319L616.661 271.645H564.535L726.541 109.319H778.664Z" fill="#E74235"/>
<path d="M823.054 117.018V169.207L720.843 271.643H668.75L823.054 117.018Z" fill="#E74235"/>
<path d="M823.057 226.865V271.643H778.375L823.057 226.865Z" fill="#E74235"/>
<path d="M539.056 245.344H538.701L543.538 240.498V240.863L539.056 245.344ZM486.61 245.344H434.484L466.951 212.809H519.077L486.61 245.344ZM382.391 245.344H330.3L362.77 212.809H414.861L382.391 245.344ZM286.598 236.897C285.323 234.576 284.598 231.91 284.598 229.076C284.598 220.093 291.88 212.809 300.863 212.809H310.64L286.598 236.897Z" fill="#FFFEF9"/>
<path d="M330.296 245.344H300.859C294.711 245.344 289.358 241.93 286.594 236.897L310.635 212.809H362.766L330.296 245.344Z" fill="#EF7E74"/>
<path d="M434.48 245.344H382.387L414.857 212.809H466.947L434.48 245.344Z" fill="#EF7E74"/>
<path d="M538.688 245.344H486.598L519.065 212.809H543.525V240.498L538.688 245.344Z" fill="#EF7E74"/>
<path d="M482.379 422.642H450.639L483.107 390.107H497.267C500.933 390.107 504.317 391.322 507.038 393.369C507.901 394.017 508.695 394.75 509.413 395.554L482.379 422.642ZM417.475 422.642H385.733L418.202 390.107H449.942L417.475 422.642ZM352.601 422.642H320.861L353.331 390.107H385.07L352.601 422.642ZM291.012 419.32C287.114 416.348 284.598 411.654 284.598 406.372C284.598 397.392 291.88 390.107 300.863 390.107H320.166L291.012 419.32Z" fill="#FFFEF9"/>
<path d="M320.849 422.642H300.851C297.15 422.642 293.735 421.405 291 419.32L320.154 390.107H353.319L320.849 422.642Z" fill="#EF7E74"/>
<path d="M385.722 422.642H352.59L385.059 390.107H418.192L385.722 422.642Z" fill="#EF7E74"/>
<path d="M450.633 422.642H417.469L449.936 390.107H483.101L450.633 422.642Z" fill="#EF7E74"/>
<path d="M497.262 422.643H482.375L509.409 395.555C511.971 398.429 513.53 402.22 513.53 406.373C513.53 415.358 506.245 422.643 497.262 422.643Z" fill="#EF7E74"/>
<path d="M823.061 271.644H767.774V271.635H778.388L778.378 271.644H823.061V271.635H823.07L823.061 271.644ZM734.319 271.644H713.441H720.85L720.859 271.635H734.319V271.644Z" fill="#BDC0C5"/>
<path d="M734.328 271.645H767.783V271.635H734.328V271.645Z" fill="#595554"/>
<path d="M823.065 271.636L823.055 226.867L778.382 271.636H720.854L823.055 169.209V117.02L698.174 242.161C696.6 239.699 694.964 237.278 693.277 234.898L656.539 271.636H635.301L701.268 205.65C703.42 203.521 704.801 200.83 705.316 198.068C706.121 193.856 705.105 189.378 702.239 185.896L778.663 109.319H823.055V271.636H823.065ZM676.204 159.753L650.136 133.676L674.447 109.319H726.54L676.204 159.753Z" fill="#D8D5CC"/>
<path d="M650.139 133.676L625.789 109.319H674.449L650.139 133.676Z" fill="#C53A2B"/>
<path d="M702.246 185.896C701.944 185.526 701.619 185.168 701.275 184.824L676.211 159.753L726.547 109.319H778.671L702.246 185.896Z" fill="#C53A2B"/>
<path d="M720.853 271.643H713.445C709.256 261.303 704.127 251.447 698.184 242.159L823.065 117.018V169.207L720.863 271.634L720.853 271.643Z" fill="#C53A2B"/>
<path d="M823.057 271.643H778.375L778.384 271.634L823.057 226.865V271.643Z" fill="#C53A2B"/>
<path d="M543.539 271.633H512.766L539.058 245.343H543.539V271.633Z" fill="#D8D5CC"/>
<path d="M543.544 245.344H539.062L543.544 240.863V245.344Z" fill="#D8D5D0"/>
<path d="M543.532 158.998C538.279 158.538 532.96 158.305 527.59 158.305H521.344L543.532 136.075V158.998ZM469.251 158.305H417.16L466.05 109.319H518.141L469.251 158.305Z" fill="#D8D5CC"/>
<path d="M264 155.134V109.319L264.007 155.127L264 155.134Z" fill="#BDC0C5"/>
<path d="M365.036 158.305H312.945L361.835 109.319H413.928L365.036 158.305ZM264 155.127V109.319H309.744L264 155.127Z" fill="#D8D5CC"/>
<path d="M312.953 158.305H264V155.134L264.007 155.127L309.752 109.319H361.842L312.953 158.305Z" fill="#C53A2B"/>
<path d="M417.155 158.305H365.027L413.919 109.319H466.045L417.155 158.305Z" fill="#C53A2B"/>
<path d="M521.355 158.305H469.262L518.151 109.319H543.543V136.075L521.355 158.305Z" fill="#C53A2B"/>
<path d="M569.678 214.73C569.589 214.681 569.497 214.634 569.406 214.587L607.235 176.682C607.344 176.736 607.455 176.789 607.565 176.843L569.678 214.73ZM543.547 188.302V158.996C552.149 159.745 560.577 161.095 568.793 163.004L543.547 188.302Z" fill="#D8D5CC"/>
<path d="M569.406 214.588C567.186 213.451 564.67 212.81 562.003 212.81H543.547V188.303L568.793 163.005C582.239 166.132 595.116 170.753 607.235 176.683L569.406 214.588Z" fill="#C53A2B"/>
<path d="M543.547 240.863V240.498L569.406 214.587C569.498 214.634 569.589 214.68 569.678 214.73L543.547 240.863Z" fill="#D8D5D0"/>
<path d="M543.547 240.498V212.809H562.003C564.67 212.809 567.186 213.45 569.406 214.587L543.547 240.498Z" fill="#CF665C"/>
<path d="M625.805 109.316H543.547V109.31H625.798L625.805 109.316Z" fill="#D8D5CC"/>
<path d="M635.299 271.634H616.668L702.237 185.894C705.103 189.376 706.119 193.855 705.314 198.067C704.799 200.828 703.419 203.519 701.266 205.648L635.299 271.634Z" fill="#B2AFA7"/>
<path d="M564.562 271.636H543.547V245.345H562.003C570.988 245.345 578.272 238.061 578.272 229.078C578.272 224.585 576.45 220.519 573.506 217.575C572.38 216.449 571.093 215.489 569.678 214.731L607.565 176.844C607.455 176.791 607.344 176.737 607.235 176.683L650.155 133.676L676.222 159.753L564.562 271.636ZM568.793 163.006C560.577 161.096 552.149 159.746 543.547 158.998V136.075L570.248 109.319H622.372L568.793 163.006Z" fill="#B2AFA7"/>
<path d="M543.547 136.075V109.319H570.248L543.547 136.075Z" fill="#A23226"/>
<path d="M607.227 176.683C595.108 170.753 582.231 166.132 568.785 163.006L622.364 109.319H625.797L650.147 133.676L607.227 176.683Z" fill="#A23226"/>
<path d="M616.685 271.633H564.559L676.218 159.751L701.283 184.822C701.626 185.166 701.951 185.524 702.254 185.894L616.685 271.633Z" fill="#A23226"/>
<path d="M562.003 245.344H543.547V240.863L569.678 214.729C571.093 215.488 572.38 216.447 573.506 217.573C576.45 220.517 578.272 224.584 578.272 229.076C578.272 238.059 570.988 245.344 562.003 245.344Z" fill="#B2AFAA"/>
<path d="M689.155 190.621C689.155 193.438 688.081 196.258 685.932 198.407L542.053 342.286C537.759 346.582 530.805 346.582 526.508 342.286L382.628 198.407C378.332 194.11 378.332 187.158 382.628 182.862L492.974 72.5426L526.508 38.9819C530.805 34.6857 537.759 34.6857 542.053 38.9819L685.932 182.862C688.081 185.01 689.155 187.827 689.155 190.621Z" fill="#FCDB00"/>
<path d="M689.154 190.621C689.154 193.438 688.08 196.258 685.931 198.407L542.052 342.286C537.758 346.582 530.804 346.582 526.507 342.286L499.068 314.847L558.886 255.002C591.077 222.812 591.077 170.647 558.886 138.455L492.973 72.5426L526.507 38.9819C530.804 34.6857 537.758 34.6857 542.052 38.9819L685.931 182.862C688.08 185.01 689.154 187.827 689.154 190.621Z" fill="#F1C900"/>
<path d="M465.812 153.758L446.488 191.192V200.724H474.823V214.502H487.388V200.724H495.707V189.719H487.475L487.388 176.288H474.823V189.719H460.7L478.81 153.758H465.812ZM532.793 153.325C517.629 153.325 509.31 164.33 509.31 184.086C509.31 203.93 517.629 214.848 532.793 214.848C547.871 214.848 556.189 203.93 556.189 184.086C556.189 164.33 547.871 153.325 532.793 153.325ZM532.793 163.376C539.725 163.376 542.931 169.616 542.931 184.086C542.931 198.471 539.725 204.797 532.793 204.797C525.774 204.797 522.568 198.471 522.568 184.086C522.568 169.616 525.774 163.376 532.793 163.376ZM590.069 153.758L570.746 191.192V200.724H599.081V214.502H611.646V200.724H619.964V189.719H611.732L611.646 176.288H599.081V189.719H584.957L603.067 153.758H590.069Z" fill="#323663"/>
<path d="M411.25 195.278C408.945 195.278 407.078 193.411 407.078 191.106C407.078 188.801 408.945 186.934 411.25 186.934C413.553 186.934 415.423 188.801 415.423 191.106C415.423 193.411 413.553 195.278 411.25 195.278Z" fill="#54514D"/>
<path d="M412.104 195.278C409.801 195.278 407.934 193.411 407.934 191.106C407.934 188.801 409.801 186.934 412.104 186.934C414.409 186.934 416.276 188.801 416.276 191.106C416.276 193.411 414.409 195.278 412.104 195.278Z" fill="#696665"/>
<path d="M657.373 186.934C659.678 186.934 661.546 188.801 661.546 191.106C661.546 193.411 659.678 195.278 657.373 195.278C655.071 195.278 653.203 193.411 653.203 191.106C653.203 188.801 655.071 186.934 657.373 186.934Z" fill="#54514D"/>
<path d="M656.546 186.934C658.848 186.934 660.718 188.801 660.718 191.106C660.718 193.411 658.848 195.278 656.546 195.278C654.241 195.278 652.371 193.411 652.371 191.106C652.371 188.801 654.241 186.934 656.546 186.934Z" fill="#696665"/>
<path d="M534.284 53.6095C532.15 53.6095 530.142 54.4406 528.633 55.9497L399.601 184.982C396.486 188.096 396.486 193.165 399.601 196.282L528.633 325.314C531.649 328.333 536.917 328.333 539.933 325.314L668.967 196.282C670.477 194.771 671.307 192.765 671.307 190.628C671.307 188.497 670.477 186.491 668.967 184.982L539.933 55.9497C538.426 54.4406 536.42 53.6095 534.284 53.6095ZM534.284 331.368C531.16 331.368 528.219 330.149 526.007 327.938L396.975 198.905C392.414 194.344 392.414 186.92 396.975 182.357L526.007 53.3243C530.43 48.9013 538.142 48.9013 542.558 53.3243L671.593 182.357C673.802 184.568 675.018 187.507 675.018 190.628C675.018 193.757 673.802 196.694 671.593 198.905L542.558 327.938C540.349 330.149 537.41 331.368 534.284 331.368Z" fill="#FEFEFE"/>
<path d="M993.833 476.737H860.641L870.633 438.148L879.054 405.411L886.1 378.246L894.524 345.531L915.022 266.207H939.451L959.927 345.531L968.372 378.246L975.392 405.411L983.841 438.148L993.833 476.737Z" fill="#E74235"/>
<path d="M968.381 378.253H886.109L894.543 345.528H959.953L968.381 378.253Z" fill="#FFFEF8"/>
<path d="M983.838 438.145H870.641L879.069 405.42H975.407L983.838 438.145Z" fill="#FFFEF8"/>
<path d="M831.906 504.249H1022.56V476.583H831.906V504.249Z" fill="#DF3B33"/>
<path d="M1022.56 504.249H935.996C934.477 494.803 926.292 487.616 916.422 487.616H831.906V476.583H931.155C931.143 476.63 931.132 476.691 931.12 476.738H993.834L993.794 476.583H1022.56V504.249Z" fill="#B8362B"/>
<path d="M993.799 476.582H931.16C934.099 463.249 936.256 450.426 937.766 438.146H983.838L979.23 420.259L983.847 438.148L993.799 476.582ZM975.4 405.421H940.391C940.74 395.946 940.714 386.879 940.389 378.251H968.373L965.79 368.217L968.377 378.246L975.398 405.411L975.4 405.421ZM959.93 345.526H937.594C930.801 295.022 915.027 266.207 915.027 266.207H939.457L959.93 345.526Z" fill="#C53A2B"/>
<path d="M968.372 378.253H940.388C939.943 366.52 938.946 355.592 937.594 345.528H959.929L959.932 345.533L965.789 368.219L968.372 378.253Z" fill="#D8D5CC"/>
<path d="M983.845 438.145H937.773C939.175 426.752 940.015 415.845 940.399 405.42H975.407L979.238 420.259L983.845 438.145Z" fill="#D8D5CC"/>
<path d="M993.832 476.738H931.117C931.129 476.691 931.14 476.63 931.152 476.583H993.792L993.832 476.738Z" fill="#9A3127"/>
<path d="M895.105 450.692C894.96 450.692 894.817 450.678 894.674 450.65C892.21 450.172 890.734 445.582 890.23 438.147H904.652C901.17 446.035 897.798 450.692 895.105 450.692ZM915.077 405.422H892.047C892.845 399.406 893.883 393.034 895.159 386.459C895.699 383.67 896.268 380.93 896.855 378.253H920.428C919.794 382.362 919.057 386.602 918.219 390.931C917.246 395.943 916.19 400.796 915.077 405.422ZM923.339 345.528H906.178C910.535 333.886 914.925 326.698 918.273 326.698C918.418 326.698 918.561 326.71 918.704 326.738C921.799 327.339 923.339 334.446 923.339 345.528Z" fill="#EF7E74"/>
<path d="M920.437 378.253H896.863C899.643 365.596 902.905 354.298 906.186 345.528H923.348C923.348 354.345 922.374 365.68 920.437 378.253Z" fill="#FFFEF9"/>
<path d="M904.663 438.145H890.241C889.694 430.056 890.304 418.597 892.057 405.42H915.087C911.893 418.684 908.219 430.096 904.663 438.145Z" fill="#FFFEF9"/>
<path d="M226.419 476.737H93.2266L103.218 438.148L111.642 405.411L118.686 378.246L127.109 345.531L147.608 266.207H172.038L192.513 345.531L200.959 378.246L207.979 405.411L216.427 438.148L226.419 476.737Z" fill="#E74235"/>
<path d="M200.967 378.253H118.695L127.127 345.528H192.537L200.967 378.253Z" fill="#FFFEF8"/>
<path d="M216.427 438.145H103.227L111.658 405.42H207.996L216.427 438.145Z" fill="#FFFEF8"/>
<path d="M64.4922 504.249H255.151V476.583H64.4922V504.249Z" fill="#DF3B33"/>
<path d="M255.151 504.249H168.586C167.065 494.803 158.879 487.616 149.011 487.616H64.4922V476.583H163.744C163.732 476.63 163.72 476.691 163.71 476.738H226.421L226.381 476.583H255.151V504.249Z" fill="#B8362B"/>
<path d="M226.38 476.582H163.743C166.682 463.249 168.841 450.426 170.35 438.146H216.421L211.554 419.259L216.428 438.148L226.38 476.582ZM207.983 405.421H172.974C173.323 395.946 173.297 386.879 172.97 378.251H200.956L198.373 368.217L200.961 378.246L207.981 405.411L207.983 405.421ZM192.513 345.526H170.177C163.385 295.022 147.609 266.207 147.609 266.207H172.04L192.513 345.526Z" fill="#C53A2B"/>
<path d="M200.958 378.253H172.973C172.53 366.52 171.533 355.592 170.18 345.528H192.515L192.517 345.533L198.376 368.219L200.958 378.253Z" fill="#D8D5CC"/>
<path d="M216.431 438.145H170.359C171.76 426.752 172.599 415.845 172.983 405.42H207.993L211.564 419.259L216.431 438.145Z" fill="#D8D5CC"/>
<path d="M226.414 476.738H163.703C163.713 476.691 163.726 476.63 163.737 476.583H226.374L226.414 476.738Z" fill="#9A3127"/>
<path d="M127.69 450.692C127.544 450.692 127.402 450.678 127.26 450.65C124.796 450.172 123.319 445.582 122.816 438.147H137.238C133.754 446.035 130.384 450.692 127.69 450.692ZM147.66 405.422H124.632C125.432 399.406 126.469 393.034 127.745 386.459C128.285 383.67 128.853 380.93 129.441 378.253H153.013C152.378 382.362 151.642 386.602 150.803 390.931C149.831 395.943 148.774 400.796 147.66 405.422ZM155.925 345.528H138.764C143.119 333.886 147.51 326.698 150.857 326.698C151.004 326.698 151.146 326.71 151.288 326.738C154.385 327.339 155.925 334.446 155.925 345.528Z" fill="#EF7E74"/>
<path d="M153.021 378.253H129.449C132.228 365.596 135.491 354.298 138.773 345.528H155.933C155.934 354.345 154.96 365.68 153.021 378.253Z" fill="#FFFEF9"/>
<path d="M137.248 438.145H122.827C122.28 430.056 122.889 418.597 124.642 405.42H147.67C144.477 418.684 140.803 430.096 137.248 438.145Z" fill="#FFFEF9"/>
</svg>
