<svg width="264" height="78" fill="none" xmlns="http://www.w3.org/2000/svg"><path d="M221.335 49.738v-5.274h-12.278v5.274h-3.777v-8.834h1.794c2.499-4.523 3.88-9.782 4.141-15.779h11.2v15.78h2.753v8.833h-3.833zm-3.292-8.834V28.752h-3.293c-.099 1.79-.44 3.804-1.024 6.043-.586 2.238-1.308 4.275-2.174 6.11h6.491zm18.702-12.357c-1.53 0-2.745.575-3.644 1.719-.9 1.147-1.349 2.665-1.349 4.553 0 1.916.449 3.43 1.349 4.546.899 1.114 2.078 1.671 3.536 1.671 1.502 0 2.693-.54 3.575-1.626.882-1.082 1.323-2.587 1.323-4.511 0-2.004-.429-3.565-1.282-4.679-.854-1.115-2.024-1.673-3.508-1.673zm16.947-.08v6.029h1.712c2.321 0 3.482-1.016 3.482-3.048 0-1.987-1.161-2.98-3.482-2.98h-1.712zm0 9.332v6.663h-4.358v-19.34h6.827c4.876 0 7.313 2.055 7.313 6.162 0 1.945-.7 3.515-2.098 4.714-1.399 1.202-3.268 1.8-5.607 1.8h-2.077zM85.774 36.087v5.192h2.549c2.042 0 3.064-.89 3.064-2.67 0-1.68-.977-2.522-2.93-2.522h-2.683zm-4.358 8.375v-19.34h12.453v3.575h-8.095v4.22h3.737c2.07 0 3.668.477 4.796 1.436 1.13.959 1.695 2.283 1.695 3.971 0 1.943-.601 3.451-1.803 4.525-1.2 1.076-2.903 1.613-5.107 1.613h-7.676zm29.346 0H99.158v-19.34h11.159v3.547h-6.8v4.302h6.326v3.535h-6.326v4.422h7.245v3.534zm19.591 0h-4.358V28.75h-3.872c-1.044 7.407-2.02 11.925-2.929 13.546-.908 1.624-2.289 2.435-4.141 2.435a7.647 7.647 0 01-2.35-.377v-3.48c.523.18.974.27 1.352.27.368 0 .695-.116.976-.35.284-.234.596-.855.939-1.86.341-1.008.754-2.747 1.235-5.215.481-2.468.942-5.334 1.383-8.598h11.765v19.34zm14.317-7.647l-2.079-6.5a8.493 8.493 0 01-.322-1.74h-.11a7.266 7.266 0 01-.337 1.685l-2.104 6.555h4.952zm7.124 7.647h-4.75l-1.376-4.303h-6.881l-1.363 4.303h-4.721l7.042-19.34h5.167l6.882 19.34zm6.774-8.308v5.096h2.361c1.007 0 1.796-.231 2.367-.699.57-.468.856-1.107.856-1.916 0-.773-.28-1.379-.842-1.82-.562-.44-1.347-.661-2.354-.661h-2.388zm0-7.822v4.584h1.916c.899 0 1.607-.217 2.124-.653.518-.437.777-1.035.777-1.8 0-1.42-1.062-2.13-3.186-2.13h-1.631zm-4.358 16.13v-19.34h7.042c2.159 0 3.819.395 4.98 1.186 1.16.792 1.739 1.907 1.739 3.346a3.958 3.958 0 01-1.058 2.736c-.706.783-1.609 1.328-2.706 1.632v.055c1.376.17 2.477.68 3.3 1.525.822.845 1.233 1.874 1.233 3.088 0 1.77-.634 3.175-1.902 4.214-1.267 1.038-3 1.558-5.194 1.558h-7.434zm30.304-15.794h-5.519v15.794h-4.373V28.668h-5.49v-3.546h15.382v3.547zm9.971-.12c-1.53 0-2.745.574-3.644 1.718-.9 1.147-1.349 2.665-1.349 4.553 0 1.916.449 3.43 1.349 4.546.899 1.114 2.078 1.671 3.535 1.671 1.502 0 2.694-.54 3.577-1.626.881-1.082 1.322-2.587 1.322-4.511 0-2.004-.429-3.565-1.282-4.679-.854-1.115-2.024-1.673-3.508-1.673zm-.19 16.251c-2.769 0-5.028-.902-6.772-2.704-1.747-1.803-2.619-4.152-2.619-7.047 0-3.057.886-5.53 2.659-7.418 1.771-1.888 4.119-2.833 7.042-2.833 2.763 0 4.995.905 6.7 2.712 1.704 1.808 2.557 4.19 2.557 7.148 0 3.04-.883 5.49-2.653 7.35-1.765 1.862-4.07 2.792-6.914 2.792zm42.26 0c-2.769 0-5.028-.902-6.772-2.704-1.746-1.803-2.619-4.152-2.619-7.047 0-3.057.887-5.53 2.66-7.418 1.771-1.888 4.118-2.833 7.042-2.833 2.762 0 4.994.905 6.699 2.712 1.704 1.808 2.557 4.19 2.557 7.148 0 3.04-.883 5.49-2.652 7.35-1.766 1.862-4.071 2.792-6.915 2.792z" fill="#312F2D"/><path fill-rule="evenodd" clip-rule="evenodd" d="M0 60.982V78L62.062 0 0 60.982zm8.482-50.161h16.983l-4.352 4.35h-8.28v8.276l-4.351 4.35V10.821zm34.232 47.955H25.73l4.352-4.35h8.28V46.15l4.352-4.35v16.976zM2.16 43.36l40.58-30.365L2.16 50.848V43.36z" fill="#F7B802"/></svg>