<?xml version="1.0" encoding="utf-8"?><svg viewBox="0 0 81 81" xmlns="http://www.w3.org/2000/svg" xmlns:xlink="http://www.w3.org/1999/xlink"><style>:root>svg{display:none}:root>svg:target{display:block}</style><svg fill="none" viewBox="0 0 41 81" id="icon-BtnArrow" xmlns="http://www.w3.org/2000/svg"><path d="M.503 79.448a.5.5 0 00.446.55l4.476.462a.5.5 0 10.103-.994l-3.98-.412.412-3.979a.5.5 0 00-.994-.103L.503 79.45zm36.05-78.224c.964 1.928 1.773 4.99 2.286 8.75.511 3.75.723 8.156.511 12.753-.423 9.21-2.538 19.101-7.262 25.99l.824.566c4.876-7.111 7.01-17.22 7.438-26.51.213-4.653 0-9.121-.52-12.934-.519-3.803-1.347-6.99-2.383-9.063l-.894.448zm-4.465 47.493C22.539 62.642 8.716 72.587.685 79.112l.63.776c7.97-6.475 21.946-16.53 31.597-30.605l-.824-.566z" fill="#FFD338"/></svg><svg fill="none" viewBox="0 0 75 75" id="icon-advantagesTop-01" xmlns="http://www.w3.org/2000/svg"><g clip-path="url(#bclip0)"><path d="M10.862 19.306c3.281-6.43 9.783-10.426 16.97-10.426.808 0 1.464-.657 1.464-1.468 0-.81-.655-1.468-1.465-1.468-8.462 0-15.907 4.832-19.578 12.026a1.47 1.47 0 00.638 1.976c.72.368 1.603.082 1.971-.64z" fill="url(#bpaint0_linear)"/><path d="M8.423 23.665a1.1 1.1 0 11-2.2.003 1.1 1.1 0 012.2-.003z" fill="url(#bpaint1_linear)"/><path d="M71.884 59.682a1.363 1.363 0 00-.158-.116l-7.216-4.61c-4.447-2.842-9.877-7.366-13.704-11.147 3.22-4.663 4.916-10.102 4.916-15.81C55.722 12.6 43.21.074 27.832.074 12.484.074 0 12.584 0 27.96c0 15.398 12.511 27.925 27.89 27.925 5.607 0 10.964-1.65 15.574-4.785 3.822 3.87 8.619 9.372 11.512 13.916l4.408 6.921c.035.055.074.108.117.159 3.589 4.25 10.182 4.172 13.659-.279 2.784-3.56 2.449-8.981-1.276-12.135zM42.748 48.01a24.645 24.645 0 01-14.858 4.94c-13.763 0-24.96-11.21-24.96-24.99C2.93 14.203 14.1 3.01 27.83 3.01c13.764 0 24.961 11.21 24.961 24.989 0 8.26-4 15.494-10.044 20.011zm3.069 1.301a28.094 28.094 0 003.184-3.164 98.46 98.46 0 004.797 4.375l-3.557 3.564a118.22 118.22 0 00-4.424-4.775zm25.036 20.697c-2.29 2.932-6.629 3.047-9.055.263l-4.352-6.834c-1.333-2.093-3.15-4.534-5.294-7.114l3.91-3.917c2.445 1.978 4.803 3.702 6.874 5.025l7.128 4.554c2.319 2.028 2.678 5.606.79 8.023z" fill="url(#bpaint2_linear)"/><path d="M42.48 38.38h-1.465V13.43c0-.811-.656-1.468-1.465-1.468h-8.789c-.809 0-1.465.657-1.465 1.468v7.338h-7.323c-.81 0-1.465.657-1.465 1.468v7.338h-7.324c-.81 0-1.465.657-1.465 1.468v7.338h-1.465c-.81 0-1.465.658-1.465 1.468 0 .81.656 1.468 1.465 1.468H42.48c.809 0 1.465-.658 1.465-1.468 0-.81-.656-1.468-1.465-1.468zm-21.972 0h-5.86v-5.87h5.86v5.87zm8.788 0h-5.858V23.704h5.858V38.38zm8.79 0h-5.86V14.897h5.86V38.38z" fill="url(#bpaint3_linear)"/></g><defs><linearGradient id="bpaint0_linear" x1="16.324" y1="2.01" x2="14.916" y2="25.092" gradientUnits="userSpaceOnUse"><stop stop-color="#FED976"/><stop offset="1" stop-color="#FEB54A"/></linearGradient><linearGradient id="bpaint1_linear" x1="7.079" y1="21.953" x2="6.752" y2="25.524" gradientUnits="userSpaceOnUse"><stop stop-color="#FED976"/><stop offset="1" stop-color="#FEB54A"/></linearGradient><linearGradient id="bpaint2_linear" x1="29.114" y1="-20.799" x2="17.961" y2="101.11" gradientUnits="userSpaceOnUse"><stop stop-color="#FED976"/><stop offset="1" stop-color="#FEB54A"/></linearGradient><linearGradient id="bpaint3_linear" x1="22.436" y1="3.808" x2="18.796" y2="51.55" gradientUnits="userSpaceOnUse"><stop stop-color="#FED976"/><stop offset="1" stop-color="#FEB54A"/></linearGradient><clipPath id="bclip0"><path fill="#fff" d="M0 0h75v75H0z"/></clipPath></defs></svg><svg fill="none" viewBox="0 0 77 80" id="icon-advantagesTop-02" xmlns="http://www.w3.org/2000/svg"><g clip-path="url(#cclip0)"><path d="M26.446 17.17c.832 0 1.507-.7 1.507-1.563 0-.865-.675-1.563-1.507-1.563-.832 0-1.507.698-1.507 1.563 0 .862.675 1.562 1.507 1.562z" fill="url(#cpaint0_linear)"/><path d="M66.522 28.35c1.103-2.005.676-4.543-1.017-6.036l-5.103-4.494c-.283-.249-.475-.599-.54-.985l-1.156-6.79c-.386-2.289-2.28-3.949-4.501-3.949h-6.662c-.361 0-.714-.135-.982-.37l-5.103-4.59c-.005-.004-.01-.007-.013-.012a4.416 4.416 0 00-5.888 0l-.013.012-5.092 4.579a1.504 1.504 0 01-.992.381h-6.663c-2.222 0-4.115 1.661-4.5 3.947l-1.159 6.795a1.676 1.676 0 01-.538.982l-5.104 4.494c-1.692 1.493-2.12 4.03-1.017 6.035l3.332 6.057c.187.339.254.738.189 1.123l-1.157 6.886c-.383 2.284.85 4.52 2.932 5.313l6.26 2.393c.125.047.243.112.35.19L10.782 71.414c-.662 1.203.408 2.641 1.699 2.283l6.777-1.883 1.816 7.028c.347 1.342 2.095 1.587 2.764.37l11.977-21.776 2.16-.825c.34-.13.714-.13 1.053 0l2.323.887L54.2 79.254c.69 1.167 2.398.915 2.741-.412l1.816-7.028 6.778 1.883c1.309.365 2.385-1.122 1.675-2.325L54.725 50.239c.077-.047.158-.087.242-.119l6.258-2.392c2.086-.794 3.32-3.03 2.934-5.314l-1.157-6.886a1.74 1.74 0 01.189-1.123l3.331-6.055zM23.036 74.362l-1.258-4.866c-.215-.834-1.041-1.328-1.845-1.105l-4.746 1.319 9.02-16.404 1.976 3.59c1.06 1.93 3.23 2.823 5.247 2.203l-8.394 15.263zm39.632-4.696l-4.586-1.275c-.805-.223-1.63.272-1.846 1.105l-1.298 5.024-9.06-15.337c.328.075.657.112.984.112 1.596 0 3.121-.878 3.956-2.399l2.076-3.773 9.774 16.543zm-2.095-36.809a4.971 4.971 0 00-.54 3.208l1.157 6.887c.135.795-.288 1.57-1.006 1.844l-6.258 2.392a4.615 4.615 0 00-2.274 1.908 1.524 1.524 0 00-.157.266L48.2 55.349c-.378.688-1.165.99-1.87.722l-6.263-2.393a4.397 4.397 0 00-3.135 0l-6.26 2.393c-.707.27-1.494-.035-1.872-.722l-3.1-5.634a1.578 1.578 0 00-.448-.779 4.605 4.605 0 00-2.176-1.748l-6.26-2.392c-.716-.273-1.139-1.05-1.005-1.846l1.157-6.885a4.968 4.968 0 00-.54-3.208l-3.331-6.056a1.717 1.717 0 01.35-2.105l5.104-4.494a4.838 4.838 0 001.555-2.823l1.158-6.795c.133-.79.778-1.363 1.532-1.363h6.663c1.075 0 2.12-.4 2.955-1.136l5.096-4.582c.575-.5 1.405-.5 1.98 0l5.107 4.593a4.456 4.456 0 002.945 1.125h6.662c.755 0 1.4.573 1.533 1.365l1.156 6.792a4.848 4.848 0 001.557 2.824l5.102 4.493c.59.52.737 1.405.352 2.106l-3.332 6.056z" fill="url(#cpaint1_linear)"/><path d="M38.5 9.335c-2.593 0-5.115.519-7.494 1.541-.769.33-1.134 1.245-.816 2.042.32.797 1.201 1.175 1.97.845a15.963 15.963 0 016.34-1.303c9.14 0 16.575 7.71 16.575 17.187S47.64 46.834 38.501 46.834c-9.14 0-16.575-7.71-16.575-17.187 0-2.94.728-5.841 2.105-8.39.407-.753.148-1.706-.578-2.128-.726-.422-1.644-.153-2.051.6a20.928 20.928 0 00-2.49 9.918c0 11.2 8.788 20.312 19.589 20.312 10.8 0 19.588-9.112 19.588-20.312 0-11.2-8.787-20.312-19.588-20.312z" fill="url(#cpaint2_linear)"/><path d="M32.583 31.663l-.882 5.326a1.59 1.59 0 00.6 1.528 1.461 1.461 0 001.586.119l4.613-2.515 4.614 2.515c.507.276 1.122.23 1.587-.119a1.59 1.59 0 00.6-1.528l-.883-5.326 3.732-3.772c.411-.415.559-1.036.382-1.602a1.525 1.525 0 00-1.217-1.064l-5.157-.777-2.306-4.845a1.504 1.504 0 00-1.352-.872c-.574 0-1.097.338-1.351.872l-2.306 4.845-5.157.777a1.524 1.524 0 00-1.217 1.064 1.602 1.602 0 00.382 1.602l3.732 3.772zm3.478-4.24c.49-.074.915-.394 1.135-.855l1.304-2.743 1.306 2.743c.219.46.643.78 1.134.855l2.92.44-2.113 2.135a1.6 1.6 0 00-.433 1.383l.5 3.016-2.613-1.424a1.462 1.462 0 00-1.402 0l-2.611 1.424.499-3.016a1.598 1.598 0 00-.433-1.383l-2.113-2.135 2.92-.44z" fill="url(#cpaint3_linear)"/></g><defs><linearGradient id="cpaint0_linear" x1="26.109" y1="13.176" x2="25.629" y2="18.243" gradientUnits="userSpaceOnUse"><stop stop-color="#FED976"/><stop offset="1" stop-color="#FEB54A"/></linearGradient><linearGradient id="cpaint1_linear" x1="32.216" y1="-22.222" x2="15.873" y2="106.575" gradientUnits="userSpaceOnUse"><stop stop-color="#FED976"/><stop offset="1" stop-color="#FEB54A"/></linearGradient><linearGradient id="cpaint2_linear" x1="34.12" y1="-1.949" x2="27.884" y2="63.916" gradientUnits="userSpaceOnUse"><stop stop-color="#FED976"/><stop offset="1" stop-color="#FEB54A"/></linearGradient><linearGradient id="cpaint3_linear" x1="36.241" y1="13.152" x2="33.284" y2="45.739" gradientUnits="userSpaceOnUse"><stop stop-color="#FED976"/><stop offset="1" stop-color="#FEB54A"/></linearGradient><clipPath id="cclip0"><path fill="#fff" d="M0 0h77v80H0z"/></clipPath></defs></svg><svg fill="none" viewBox="0 0 80 80" id="icon-advantagesTop-03" xmlns="http://www.w3.org/2000/svg"><g clip-path="url(#dclip0)"><path d="M30.625 41.563a1.563 1.563 0 10-.001-3.127 1.563 1.563 0 00.001 3.127z" fill="url(#dpaint0_linear)"/><path d="M40 69.688c9.654 0 17.188-7.831 17.188-17.188 0-9.477-7.711-17.188-17.188-17.188-1.357 0-2.718.156-4.098.492a1.562 1.562 0 10.74 3.036A14.623 14.623 0 0140 38.437c7.754 0 14.063 6.31 14.063 14.063 0 7.963-6.468 14.063-14.063 14.063-7.754 0-14.063-6.31-14.063-14.063 0-2.383.605-4.816 1.892-7.05a1.563 1.563 0 00-2.708-1.56 17.13 17.13 0 00-1.765 4.304c-.055.292-.544 1.918-.544 4.306 0 9.477 7.711 17.188 17.188 17.188zM23.082 49.448a.15.15 0 010 0z" fill="url(#dpaint1_linear)"/><path d="M37.012 59.95c.643.501 1.308 1.02 2.012 1.583a1.559 1.559 0 001.952 0c.703-.563 1.367-1.08 2.009-1.58 1.13-.88 2.106-1.641 2.963-2.387 1.78-1.55 3.427-3.33 3.427-5.84 0-3.07-2.402-5.476-5.469-5.476-1.73 0-3.013.75-3.906 1.69-.893-.94-2.175-1.69-3.906-1.69-3.067 0-5.469 2.405-5.469 5.477 0 3.247 2.679 5.335 6.387 8.224zm-.918-10.575c1.718 0 2.347 1.817 2.41 2.012a1.563 1.563 0 002.993 0c.006-.02.623-2.012 2.41-2.012 1.538 0 2.343 1.183 2.343 2.352 0 1.03-.66 2.007-2.354 3.482-.792.69-1.738 1.427-2.832 2.28l-1.064.83c-.364-.286-.72-.563-1.068-.834-3.405-2.653-5.182-4.114-5.182-5.758 0-1.17.805-2.352 2.344-2.352z" fill="url(#dpaint2_linear)"/><path d="M2.678 44.203C6.881 39.92 21.994 25.938 40 25.938c18.005 0 33.119 13.982 37.322 18.266a1.563 1.563 0 002.231-2.188C75.134 37.51 59.223 22.812 40 22.812S4.866 37.51.447 42.016a1.562 1.562 0 002.231 2.188z" fill="url(#dpaint3_linear)"/><path d="M12.054 64.67C20.12 70.953 29.86 75.937 40 75.937c10.14 0 19.88-4.984 27.945-11.267 7.08-5.515 11.52-10.957 11.706-11.186a1.562 1.562 0 000-1.968c-.185-.229-4.625-5.67-11.706-11.186C59.88 34.048 50.141 29.063 40 29.063c-10.141 0-19.881 4.985-27.946 11.267C4.974 45.845.534 51.287.348 51.516a1.564 1.564 0 000 1.968c.186.229 4.626 5.67 11.706 11.186zm1.976-21.917c6.2-4.82 15.737-10.566 25.97-10.566 10.233 0 19.77 5.746 25.97 10.566 5.082 3.95 8.82 7.948 10.41 9.747-1.59 1.799-5.328 5.797-10.41 9.747-6.2 4.82-15.737 10.566-25.97 10.566-10.233 0-19.77-5.746-25.97-10.566C8.947 58.296 5.21 54.3 3.62 52.5c1.59-1.799 5.328-5.797 10.41-9.747z" fill="url(#dpaint4_linear)"/><path d="M40 16.563c.863 0 1.563-.7 1.563-1.563V5.625a1.562 1.562 0 10-3.126 0V15c0 .863.7 1.563 1.563 1.563z" fill="url(#dpaint5_linear)"/><path d="M20.678 20.595a1.562 1.562 0 102.707-1.563l-4.688-8.118a1.562 1.562 0 10-2.706 1.563l4.687 8.118z" fill="url(#dpaint6_linear)"/><path d="M57.188 21.167c.744.43 1.701.178 2.134-.572l4.688-8.118a1.562 1.562 0 10-2.707-1.563l-4.687 8.118a1.562 1.562 0 00.572 2.135z" fill="url(#dpaint7_linear)"/></g><defs><linearGradient id="dpaint0_linear" x1="30.276" y1="37.569" x2="29.813" y2="42.639" gradientUnits="userSpaceOnUse"><stop stop-color="#FED976"/><stop offset="1" stop-color="#FEB54A"/></linearGradient><linearGradient id="dpaint1_linear" x1="36.156" y1="25.764" x2="31.064" y2="81.532" gradientUnits="userSpaceOnUse"><stop stop-color="#FED976"/><stop offset="1" stop-color="#FEB54A"/></linearGradient><linearGradient id="dpaint2_linear" x1="37.904" y1="41.91" x2="35.97" y2="67.323" gradientUnits="userSpaceOnUse"><stop stop-color="#FED976"/><stop offset="1" stop-color="#FEB54A"/></linearGradient><linearGradient id="dpaint3_linear" x1="31.055" y1="16.741" x2="30.163" y2="52.477" gradientUnits="userSpaceOnUse"><stop stop-color="#FED976"/><stop offset="1" stop-color="#FEB54A"/></linearGradient><linearGradient id="dpaint4_linear" x1="31.055" y1="16.042" x2="26.964" y2="92.505" gradientUnits="userSpaceOnUse"><stop stop-color="#FED976"/><stop offset="1" stop-color="#FEB54A"/></linearGradient><linearGradient id="dpaint5_linear" x1="39.651" y1=".59" x2="33.061" y2="18.632" gradientUnits="userSpaceOnUse"><stop stop-color="#FED976"/><stop offset="1" stop-color="#FEB54A"/></linearGradient><linearGradient id="dpaint6_linear" x1="18.814" y1="7.009" x2="16.438" y2="25.091" gradientUnits="userSpaceOnUse"><stop stop-color="#FED976"/><stop offset="1" stop-color="#FEB54A"/></linearGradient><linearGradient id="dpaint7_linear" x1="59.439" y1="7.009" x2="57.063" y2="25.091" gradientUnits="userSpaceOnUse"><stop stop-color="#FED976"/><stop offset="1" stop-color="#FEB54A"/></linearGradient><clipPath id="dclip0"><path fill="#fff" d="M0 0h80v80H0z"/></clipPath></defs></svg><svg fill="none" viewBox="0 0 26 26" id="icon-fb" xmlns="http://www.w3.org/2000/svg"><path d="M22.953 0H3.047A3.05 3.05 0 000 3.047v19.906A3.05 3.05 0 003.047 26h19.906A3.05 3.05 0 0026 22.953V3.047A3.05 3.05 0 0022.953 0zm1.016 22.953c0 .56-.456 1.016-1.016 1.016h-5.789V15.69h3.138l.518-3.148h-3.656v-2.184c0-.862.662-1.523 1.523-1.523h2.082V5.687h-2.081a4.671 4.671 0 00-4.671 4.681v2.175h-3.048v3.148h3.048v8.278H3.047c-.56 0-1.016-.456-1.016-1.016V3.047c0-.56.456-1.016 1.016-1.016h19.906c.56 0 1.016.456 1.016 1.016v19.906z" fill="url(#epaint0_linear)"/><defs><linearGradient id="epaint0_linear" x1="10.093" y1="-7.222" x2="6.241" y2="34.959" gradientUnits="userSpaceOnUse"><stop stop-color="#FED976"/><stop offset="1" stop-color="#FEB54A"/></linearGradient></defs></svg><svg fill="none" viewBox="0 0 26 26" id="icon-inst" xmlns="http://www.w3.org/2000/svg"><path d="M18.448 0H7.553C3.388 0 0 3.388 0 7.553v10.894C0 22.612 3.388 26 7.553 26h10.894C22.612 26 26 22.612 26 18.448V7.553C26 3.388 22.612 0 18.448 0zm5.52 18.447a5.528 5.528 0 01-5.52 5.522H7.553a5.528 5.528 0 01-5.522-5.521V7.553A5.528 5.528 0 017.553 2.03h10.894a5.528 5.528 0 015.522 5.522v10.894z" fill="url(#fpaint0_linear)"/><path d="M13 5.992A7.016 7.016 0 005.992 13 7.016 7.016 0 0013 20.008 7.016 7.016 0 0020.008 13 7.016 7.016 0 0013 5.992zm0 11.985A4.982 4.982 0 018.023 13 4.982 4.982 0 0113 8.023 4.982 4.982 0 0117.977 13 4.982 4.982 0 0113 17.977z" fill="url(#fpaint1_linear)"/><path d="M20.11 6.906a1.016 1.016 0 100-2.031 1.016 1.016 0 000 2.031z" fill="url(#fpaint2_linear)"/><defs><linearGradient id="fpaint0_linear" x1="10.093" y1="-7.222" x2="6.241" y2="34.959" gradientUnits="userSpaceOnUse"><stop stop-color="#FED976"/><stop offset="1" stop-color="#FEB54A"/></linearGradient><linearGradient id="fpaint1_linear" x1="11.433" y1="2.099" x2="9.357" y2="24.837" gradientUnits="userSpaceOnUse"><stop stop-color="#FED976"/><stop offset="1" stop-color="#FEB54A"/></linearGradient><linearGradient id="fpaint2_linear" x1="19.882" y1="4.311" x2="19.581" y2="7.606" gradientUnits="userSpaceOnUse"><stop stop-color="#FED976"/><stop offset="1" stop-color="#FEB54A"/></linearGradient></defs></svg><svg fill="none" viewBox="0 0 17 21" id="icon-map" xmlns="http://www.w3.org/2000/svg"><path d="M8.5 0C4.132 0 .578 3.553.578 7.92c0 6.29 7.072 12.606 7.373 12.873a.83.83 0 001.114-.016c.3-.281 7.356-6.946 7.356-12.856C16.421 3.554 12.866 0 8.5 0zm0 11.698a3.777 3.777 0 110-7.553 3.777 3.777 0 010 7.553z" fill="url(#gpaint0_linear)"/><defs><linearGradient id="gpaint0_linear" x1="6.728" y1="-5.833" x2="2.63" y2="28.024" gradientUnits="userSpaceOnUse"><stop stop-color="#FED976"/><stop offset="1" stop-color="#FEB54A"/></linearGradient></defs></svg><svg fill="none" viewBox="0 0 81 81" id="icon-price" xmlns="http://www.w3.org/2000/svg"><g clip-path="url(#hclip0)"><path d="M77.279 40.503l3.553-9.27a2.534 2.534 0 00-.77-2.874l-7.704-6.247-1.559-9.805a2.53 2.53 0 00-2.106-2.101l-9.805-1.56-6.242-7.71a2.535 2.535 0 00-2.87-.769l-9.274 3.56L31.233.172a2.525 2.525 0 00-2.87.769l-6.247 7.71-9.805 1.559a2.536 2.536 0 00-2.1 2.1l-1.56 9.806-7.71 6.247a2.532 2.532 0 00-.77 2.87l3.554 9.269-3.553 9.269a2.525 2.525 0 00.77 2.87l7.709 6.241 1.56 9.806a2.53 2.53 0 002.1 2.106l9.805 1.559 6.247 7.704a2.519 2.519 0 002.875.77l9.264-3.549 9.269 3.554a2.523 2.523 0 002.875-.774l6.242-7.705 9.805-1.56A2.536 2.536 0 0070.8 68.69l1.56-9.806 7.704-6.241a2.527 2.527 0 00.77-2.87l-3.554-9.27z" fill="url(#hpaint0_linear)"/><path d="M32.908 35.442c-4.187 0-7.594-3.407-7.594-7.593s3.407-7.593 7.594-7.593c4.186 0 7.593 3.407 7.593 7.593s-3.407 7.593-7.593 7.593zm0-10.124a2.532 2.532 0 000 5.062 2.532 2.532 0 000-5.062zM48.094 60.751c-4.186 0-7.593-3.406-7.593-7.593 0-4.186 3.407-7.593 7.593-7.593 4.187 0 7.593 3.407 7.593 7.593 0 4.187-3.406 7.593-7.593 7.593zm0-10.124a2.539 2.539 0 00-2.53 2.531 2.538 2.538 0 002.53 2.531 2.538 2.538 0 002.531-2.53 2.539 2.539 0 00-2.53-2.532zM27.847 60.751a2.53 2.53 0 01-2.055-4.004l25.31-35.435a2.53 2.53 0 013.534-.587 2.53 2.53 0 01.587 3.528l-25.31 35.435a2.542 2.542 0 01-2.066 1.063z" fill="#FAFAFA"/></g><defs><linearGradient id="hpaint0_linear" x1="31.445" y1="-22.5" x2="19.445" y2="108.911" gradientUnits="userSpaceOnUse"><stop stop-color="#FED976"/><stop offset="1" stop-color="#FEB54A"/></linearGradient><clipPath id="hclip0"><path fill="#fff" d="M0 0h81v81H0z"/></clipPath></defs></svg><svg fill="none" viewBox="0 0 44 44" id="icon-tel" xmlns="http://www.w3.org/2000/svg"><g clip-path="url(#iclip0)"><path d="M37.554 6.44c-8.593-8.59-22.523-8.587-31.113.006-8.59 8.592-8.588 22.522.005 31.112s22.523 8.588 31.113-.005a22 22 0 00-.005-31.112zm-4.236 24.205l-.003.003v-.007l-1.114 1.107a5.867 5.867 0 01-5.537 1.584 19.494 19.494 0 01-5.661-2.537 26.161 26.161 0 01-4.466-3.6 26.36 26.36 0 01-3.337-4.049 20.532 20.532 0 01-2.508-5.075 5.867 5.867 0 011.467-5.99l1.305-1.306a.931.931 0 011.32 0l4.121 4.121a.931.931 0 01.003 1.317l-.003.003-2.42 2.42a1.973 1.973 0 00-.205 2.567 28.307 28.307 0 002.897 3.38 28.133 28.133 0 003.813 3.205c.788.55 1.856.457 2.537-.22l2.34-2.376a.931.931 0 011.317-.003l.003.003 4.128 4.136a.931.931 0 01.003 1.317z" fill="url(#ipaint0_linear)"/></g><defs><linearGradient id="ipaint0_linear" x1="17.08" y1="-12.223" x2="10.562" y2="59.161" gradientUnits="userSpaceOnUse"><stop stop-color="#FED976"/><stop offset="1" stop-color="#FEB54A"/></linearGradient><clipPath id="iclip0"><path fill="#fff" d="M0 0h44v44H0z"/></clipPath></defs></svg></svg>