<svg width="23" height="23" xmlns="http://www.w3.org/2000/svg"><g clip-path="url(#clip0)" fill="#CCA75D"><path d="M4.137 22.063h15.555a3.226 3.226 0 003.223-3.223V3.286A3.226 3.226 0 0019.692.063H4.137A3.226 3.226 0 00.915 3.286V18.84a3.226 3.226 0 003.222 3.223zM2.204 3.286c0-1.067.867-1.934 1.933-1.934h15.555c1.066 0 1.934.867 1.934 1.934V18.84a1.936 1.936 0 01-1.934 1.934H4.137a1.936 1.936 0 01-1.933-1.934V3.286z"/><path d="M11.915 16.864c3.198 0 5.8-2.603 5.8-5.801 0-3.199-2.602-5.8-5.8-5.8a5.807 5.807 0 00-5.801 5.8c0 3.198 2.602 5.8 5.8 5.8zm0-10.313a4.517 4.517 0 014.512 4.512 4.517 4.517 0 01-4.512 4.512 4.517 4.517 0 01-4.512-4.512 4.517 4.517 0 014.512-4.512zm6.445 0a1.936 1.936 0 001.934-1.933 1.936 1.936 0 00-1.934-1.934 1.936 1.936 0 00-1.933 1.934c0 1.066.867 1.933 1.933 1.933zm0-2.578a.645.645 0 11-.002 1.29.645.645 0 01.002-1.29z"/></g><defs><clipPath id="clip0"><path fill="#fff" transform="translate(.915 .063)" d="M0 0h22v22H0z"/></clipPath></defs></svg>