<?xml version="1.0" encoding="UTF-8"?>
<svg width="224px" height="308px" viewBox="0 0 224 308" version="1.1" xmlns="http://www.w3.org/2000/svg" xmlns:xlink="http://www.w3.org/1999/xlink">
    <title>allicons_02 copy</title>
    <defs>
        <polygon id="path-1" points="0 0 0 24 14 24 14 0"></polygon>
        <radialGradient cx="16.807726%" cy="86.9032118%" fx="16.807726%" fy="86.9032118%" r="171.417106%" id="radialGradient-3">
            <stop stop-color="#F8C53A" offset="0%"></stop>
            <stop stop-color="#EE931B" offset="100%"></stop>
        </radialGradient>
        <linearGradient x1="117.274306%" y1="38.0208333%" x2="-12.5%" y2="50%" id="linearGradient-4">
            <stop stop-color="#DC2A81" offset="0%"></stop>
            <stop stop-color="#DC2A81" stop-opacity="0" offset="100%"></stop>
        </linearGradient>
        <linearGradient x1="23.2476128%" y1="0%" x2="37.0062934%" y2="72.0106337%" id="linearGradient-5">
            <stop stop-color="#4D5DD7" offset="0%"></stop>
            <stop stop-color="#4D5DD7" stop-opacity="0" offset="100%"></stop>
        </linearGradient>
    </defs>
    <g id="allicons_02-copy" stroke="none" stroke-width="1" fill="none" fill-rule="evenodd">
        <g id="комментарии-и-просмотры" transform="translate(0.000000, 237.000000)" fill-rule="nonzero">
            <path d="M0,23 L10,23 L10,25 L0,25 L0,23 L0,23 Z M0,27 L10,27 L10,29 L0,29 L0,27 L0,27 Z M0,31 L6,31 L6,33 L0,33 L0,31 L0,31 Z" id="Комментарии-(серая)" fill="#9DA5A9"></path>
            <g id="просмотры-(серая)" fill="#9DA5A9">
                <path d="M8.046,10.5 C4.118,10.5 2.22,7.274 1.625,6.003 C2.22,4.731 4.118,1.5 8.046,1.5 C11.982,1.5 13.822,4.753 14.383,6.003 C13.819,7.257 11.979,10.5 8.046,10.5 M16,6.004 C16,6.004 14,0 8.046,0 C2.092,0 0,6.004 0,6.004 C0,6.004 2.092,12 8.046,12 C14,12 16,6.004 16,6.004" id="Fill-1"></path>
                <path d="M8,4 C6.895,4 6,4.895 6,6 C6,7.105 6.895,8 8,8 C9.105,8 10,7.105 10,6 C10,4.895 9.105,4 8,4" id="Fill-3"></path>
            </g>
            <g id="Group" transform="translate(0.000000, 38.000000)" fill="#FFFFFF">
                <path d="M0,23 L10,23 L10,25 L0,25 L0,23 L0,23 Z M0,27 L10,27 L10,29 L0,29 L0,27 L0,27 Z M0,31 L6,31 L6,33 L0,33 L0,31 L0,31 Z" id="Комментарии-(белая)"></path>
                <g id="просмотры-(белая)">
                    <path d="M8.046,10.5 C4.118,10.5 2.22,7.274 1.625,6.003 C2.22,4.731 4.118,1.5 8.046,1.5 C11.982,1.5 13.822,4.753 14.383,6.003 C13.819,7.257 11.979,10.5 8.046,10.5 M16,6.004 C16,6.004 14,0 8.046,0 C2.092,0 0,6.004 0,6.004 C0,6.004 2.092,12 8.046,12 C14,12 16,6.004 16,6.004" id="Fill-1-Copy"></path>
                    <path d="M8,4 C6.895,4 6,4.895 6,6 C6,7.105 6.895,8 8,8 C9.105,8 10,7.105 10,6 C10,4.895 9.105,4 8,4" id="Fill-3-Copy"></path>
                </g>
            </g>
        </g>
        <g id="иконки-в-заголовках" transform="translate(75.000000, 93.000000)">
            <g id="блоги" transform="translate(90.000000, 0.000000)">
                <path d="M2,23 L0.433970213,30.047134 C0.194295082,31.1256721 0.879344657,31.8045901 1.95286596,31.5660298 L9,30 L32,7 L25,0 L2,23 L2,23 L2,23 Z" id="Fill-20" stroke="#23292C" stroke-width="2"></path>
                <polygon id="Path-23" fill="#23292C" fill-rule="nonzero" points="26 2 29 0 32 3 30 6"></polygon>
                <line x1="21" y1="5" x2="27" y2="11" id="Path-25" stroke="#23292C" stroke-width="2"></line>
                <line x1="24" y1="8" x2="16" y2="16" id="Path-26" stroke="#23292C" stroke-width="2"></line>
                <line x1="3" y1="23" x2="9" y2="29" id="Path-26" stroke="#23292C" stroke-width="2"></line>
            </g>
            <g id="комментарии" transform="translate(49.000000, 0.000000)" stroke="#23292C" stroke-width="2">
                <polygon id="Path-29" points="0 0 34 0 34 28 24 28 24 39 13 28 0 28"></polygon>
                <line x1="10" y1="19" x2="24" y2="19" id="Path-30"></line>
                <line x1="10" y1="14" x2="24" y2="14" id="Path-30-Copy"></line>
                <line x1="10" y1="9" x2="24" y2="9" id="Path-30-Copy-2"></line>
            </g>
            <g id="темы" stroke="#23292C" stroke-width="2">
                <polygon id="Path" points="6 21.9999998 13 29 26 16 19 9"></polygon>
                <path d="M11.7506061,34.580561 L0.589484198,23.419439 C-0.1944503,22.6355045 -0.195263519,21.3653088 0.579711177,20.5903341 L21.1700458,0 L31.1499544,0 C33.3638005,0 35.1584774,1.78732987 35.1584774,3.99310226 L35.1584774,14 L14.5789698,34.5903341 C13.8008421,35.3688711 12.5321149,35.3620698 11.7506061,34.580561 Z" id="Path"></path>
                <path d="M29.1212929,5.87863591 C27.9496834,4.70712136 26.0503166,4.70712136 24.8787071,5.87863591 C23.7070976,7.05015045 23.7070976,8.94984955 24.8787071,10.1213641 C26.0503166,11.2928786 27.9496834,11.2928786 29.1212929,10.1213641 C30.2929024,8.94984955 30.2929024,7.05015045 29.1212929,5.87863591 L29.1212929,5.87863591 L29.1212929,5.87863591 L29.1212929,5.87863591 Z" id="Path"></path>
                <path d="M42.166,4 C37.164,9.002 30.374,10.322 27,6.948" id="Path"></path>
            </g>
        </g>
        <g id="плейлист-и-текст" transform="translate(0.000000, 92.000000)">
            <g id="плейлист" transform="translate(39.000000, 1.000000)">
                <polygon id="Fill-4" fill="#27C942" fill-rule="nonzero" points="8 3 8 11 15 7"></polygon>
                <polygon id="Path-38" stroke="#27C942" stroke-width="2" points="0 0 20 0 20 4 24 4 24 7 28 7 28 22 7 22 7 18 4 18 4 14 0 14"></polygon>
                <polyline id="Path-39" stroke="#27C942" stroke-width="2" points="4 14 20 14 20 4"></polyline>
                <polyline id="Path-40" stroke="#27C942" stroke-width="2" points="24 7 24 18 7 18"></polyline>
            </g>
            <g id="текст">
                <g id="Path-28-Clipped" transform="translate(19.000000, 0.000000)">
                    <mask id="mask-2" fill="white">
                        <use xlink:href="#path-1"></use>
                    </mask>
                    <g id="path-1"></g>
                    <g id="Path-28" mask="url(#mask-2)" stroke="#27C942" stroke-width="4">
                        <polygon id="path-1" points="0 0 0 24 14 24 14 0"></polygon>
                    </g>
                </g>
                <line x1="0" y1="3" x2="15" y2="3" id="Path-29" stroke="#27C942" stroke-width="2"></line>
                <line x1="0" y1="7" x2="11" y2="7" id="Path-29-Copy" stroke="#27C942" stroke-width="2"></line>
                <line x1="0" y1="17" x2="15" y2="17" id="Path-29-Copy-2" stroke="#27C942" stroke-width="2"></line>
                <line x1="0" y1="21" x2="11" y2="21" id="Path-29-Copy-3" stroke="#27C942" stroke-width="2"></line>
            </g>
        </g>
        <g id="соцсети-+" fill-rule="nonzero">
            <path d="M78,0 C82.970563,0 87,4.029437 87,9 C87,13.970563 82.970563,18 78,18 C73.029437,18 69,13.970563 69,9 C69,4.029437 73.029437,0 78,0 Z M82.978066,3.133354 L70.544516,7.972071 C70.544516,7.972071 69.956161,8.171795 70.002613,8.540459 C70.049064,8.909077 70.529048,9.078018 70.529048,9.078018 L73.656771,10.122628 L81.166455,5.391422 C81.166455,5.391422 81.599987,5.130315 81.584519,5.391422 C81.584519,5.391422 81.661954,5.437505 81.429696,5.652574 C81.197438,5.867644 75.530348,10.921339 75.530348,10.921339 L75.122085,14.376137 C75.294932,14.450653 75.452913,14.331759 75.452913,14.331759 L77.474021,12.503646 L80.624505,14.899871 C81.476101,15.268535 81.785794,14.500515 81.785794,14.500515 C81.785794,14.500515 83.954736,3.856792 84.0000003,3.425244 C84.045264,2.993695 82.978066,3.133354 82.978066,3.133354 Z" id="Oval-13-Copy-5" fill="#4DBDFF"></path>
            <path d="M55,0 C59.970563,0 64,4.029437 64,9 C64,13.970563 59.970563,18 55,18 C50.029437,18 46,13.970563 46,9 C46,4.029437 50.029437,0 55,0 Z M57.714277,4 C56.320133,4 55.189744,5.130266 55.189744,6.52441 C55.189744,6.722272 55.212078,6.914967 55.255145,7.099725 C53.157038,6.994457 51.296846,5.989393 50.051776,4.462049 C49.834533,4.834887 49.709946,5.268573 49.709946,5.731237 C49.709946,6.607099 50.155568,7.379784 50.833013,7.832481 C50.4192,7.819377 50.029873,7.705802 49.689581,7.516738 L49.689335,7.548484 L49.689335,7.548484 C49.689335,8.77159 50.559537,9.791912 51.714413,10.023859 C51.502584,10.081569 51.279558,10.112516 51.049395,10.112516 C50.886663,10.112516 50.728483,10.096581 50.574365,10.067111 C50.895584,11.070021 51.827864,11.799947 52.932597,11.82025 C52.068609,12.49745 50.98018,12.900927 49.797311,12.900927 C49.593603,12.900927 49.392603,12.889053 49.195109,12.865735 C50.312332,13.581941 51.639291,14 53.064874,14 C57.708371,14 60.24767,10.153184 60.24767,6.817143 C60.24767,6.707691 60.245147,6.598854 60.240287,6.490571 C60.73359,6.134591 61.161554,5.690015 61.5,5.18373 C61.047303,5.384546 60.560706,5.520269 60.050115,5.58124 C60.571227,5.268819 60.971566,4.774101 61.160077,4.184573 C60.67225,4.473923 60.132004,4.683967 59.556935,4.797172 C59.096486,4.306515 58.440389,4 57.714277,4 Z" id="Oval-13-Copy-6" fill="#4AA2D6"></path>
            <path d="M32.98235,17.947005 C37.490795,17.457599 41,13.638609 41,9 C41,4.029437 36.970563,0 32,0 C27.029437,0 23,4.029437 23,9 C23,13.298169 26.013007,16.892612 30.042129,17.786436 L30.042129,12.492383 L28,12.492383 L28,9.789127 L30.042129,9.789127 L30.042129,7.480303 C30.042129,5.666123 31.248438,4 34.028098,4 C35.153527,4 35.985895,4.10488 35.985895,4.10488 L35.92017,6.629008 C35.92017,6.629008 35.071446,6.621131 34.145293,6.621131 C33.142911,6.621131 32.98235,7.070118 32.98235,7.815366 C32.98235,8.404533 32.98235,6.559574 32.98235,9.789127 L36,9.789127 L35.8687,12.492383 L32.98235,12.492383 L32.98235,17.947005 L32.98235,17.947005 Z" id="Oval-13-Copy-7" fill="#404F90"></path>
            <path d="M124,0 C128.632554,0 132.447627,3.50005 132.945071,8 L131,8 L131,6 L130,6 L130,8 L128,8 L128,9 C128.552651,9.005544 129.447151,8.994456 130,9 C130.005544,9.552849 129.994456,10.447349 130,11 L131,11 L131,10.3593304 C130.998768,9.89020933 130.996304,9.37041467 131,9 C131.555622,8.994456 132.447151,9.005544 133,9 C133,13.970563 128.970563,18 124,18 C119.029437,18 115,13.970563 115,9 C115,4.029437 119.029437,0 124,0 Z M122.303822,4.04015348 L122.055329,4.043763 C119.451114,3.958169 117.056963,6.205119 117.013437,8.770712 C116.846899,10.867831 118.246813,12.92461 120.223415,13.666475 C122.192791,14.413085 124.717351,13.904271 125.974813,12.16139 C126.805092,11.060373 126.983673,9.643254 126.887157,8.311729 C125.274942,8.299864 123.665135,8.302237 122.055329,8.306983 C122.05292,8.872915 122.055329,9.438847 122.057738,10.00478 C123.020662,10.035627 123.985996,10.02139 124.949092,10.035627 C124.524318,12.139864 121.61834,12.822407 120.080963,11.448 C118.500232,10.242576 118.574899,7.598508 120.218598,6.478678 C121.367329,5.575119 123.001394,5.798508 124.150125,6.580881 C124.601566,6.169525 125.023931,5.729695 125.431673,5.273085 C124.475974,4.521729 123.302985,3.986814 122.055329,4.043763 Z" id="Path-Copy-3" fill="#DC4E41"></path>
            <path d="M101,18 C105.970563,18 110,13.970563 110,9 C110,4.029437 105.970563,0 101,0 C96.029437,0 92,4.029437 92,9 C92,13.970563 96.029437,18 101,18 Z M99.7608485,11.4563812 C99.0622626,11.3011691 98.3886465,11.0318721 97.768202,10.6517994 C97.2986263,10.3631994 97.1570505,9.75787212 97.4529697,9.30011455 C97.7486465,8.84133273 98.3689293,8.70329636 98.8393131,8.99181758 C100.244889,9.85375697 102.054586,9.85328424 103.459354,8.99181758 C103.929818,8.70329636 104.550101,8.84133273 104.845212,9.30011455 C105.141131,9.75834485 104.999996,10.3631994 104.530384,10.6517994 C103.910101,11.0313994 103.236404,11.3011691 102.537818,11.4563812 L104.456283,13.3268055 C104.848444,13.7096358 104.848444,14.3301691 104.455879,14.7129206 C104.259354,14.9041388 104.002303,14.9999842 103.745253,14.9999842 C103.487798,14.9999842 103.230343,14.9041388 103.033818,14.7129206 L101.149535,12.8748782 L99.2635556,14.7129206 C98.8713939,15.0956721 98.2349495,15.0956721 97.842303,14.7129206 C97.4493333,14.3301691 97.4493333,13.7092418 97.842303,13.3268055 L99.7608485,11.4563812 Z M101.149139,8.72706667 C99.2562909,8.72706667 97.7176242,7.22694545 97.7176242,5.38244242 C97.7176242,3.53715152 99.2562909,2.03647879 101.149139,2.03647879 C103.041503,2.03647879 104.580574,3.53715152 104.580574,5.38244242 C104.580574,7.22694545 103.041503,8.72706667 101.149139,8.72706667 Z M101.149139,3.99711515 C100.365543,3.99711515 99.7283717,4.61851515 99.7283717,5.38244242 C99.7283717,6.14573939 100.365543,6.76721818 101.149139,6.76721818 C101.931846,6.76721818 102.569907,6.14573939 102.569907,5.38244242 C102.569907,4.61851515 101.931846,3.99711515 101.149139,3.99711515 Z" id="Path-Copy-4" fill="#EE931B"></path>
            <path d="M9,0 C13.970563,0 18,4.029437 18,9 C18,13.970563 13.970563,18 9,18 C4.029437,18 0,13.970563 0,9 C0,4.029437 4.029437,0 9,0 Z M3.95530116,5 L2.39349036,5 C2.16694596,5 2,5.15494593 2,5.38144013 C2,5.7987297 2.48883784,7.73023165 4.40838998,10.3174672 C5.69600773,12.0581236 7.38901546,13 8.91507723,13 C9.84505407,13 10.0715985,12.8450541 10.0715985,12.4515637 L10.0715985,11.1162471 C10.0715985,10.7824054 10.2027452,10.6393591 10.3934904,10.6393591 C10.608085,10.6393591 10.986864,10.7082965 11.8719035,11.5812355 C12.9210772,12.5827606 12.9926255,13 13.5649614,13 L15.3175174,13 C15.496363,13 15.6632587,12.9165521 15.6632587,12.6185097 C15.6632587,12.2250193 15.1505714,11.5216371 14.3636911,10.6870077 C14.0417993,10.2578185 13.5172124,9.79288032 13.3502664,9.57828573 C13.1118726,9.3278919 13.1833707,9.18474516 13.3502664,8.92250193 L13.3785103,8.88242478 C13.6080816,8.55563648 15.1638229,6.32119477 15.3294672,5.54843629 C15.3890657,5.25039383 15.2579189,5.08339766 14.9478765,5.08339766 L13.3860657,5.08339766 C13.0283745,5.08339766 12.8972278,5.2383938 12.7899305,5.46493821 C12.7899305,5.46493821 11.9455103,7.26418884 10.9180772,8.39796527 C10.5882523,8.76449323 10.4205532,8.87480309 10.2384942,8.87480309 C10.091632,8.87480309 10.0238996,8.75239279 10.0238996,8.42176448 L10.0238996,5.52458687 C10.0238996,5.11924711 9.97620079,5 9.64240929,5 L7.13867184,5 C6.94787646,5 6.82862935,5.11091237 6.82862935,5.26224323 C6.82862935,5.64398461 7.41286488,5.730194 7.41286488,6.76450578 L7.41286488,8.89865251 C7.41286488,9.3278919 7.38901546,9.49478765 7.18632047,9.49478765 C6.649834,9.49478765 5.37411585,7.64683399 4.6587838,5.54843629 C4.51568727,5.11924711 4.36069113,5 3.95530116,5 Z" id="Combined-Shape" fill="#566B99"></path>
        </g>
        <g id="соцсети--" transform="translate(0.000000, 23.000000)" fill="#82929E" fill-rule="nonzero">
            <path d="M78,0 C82.970563,0 87,4.029437 87,9 C87,13.970563 82.970563,18 78,18 C73.029437,18 69,13.970563 69,9 C69,4.029437 73.029437,0 78,0 Z M82.978066,3.133354 L70.544516,7.972071 C70.544516,7.972071 69.956161,8.171795 70.002613,8.540459 C70.049064,8.909077 70.529048,9.078018 70.529048,9.078018 L73.656771,10.122628 L81.166455,5.391422 C81.166455,5.391422 81.599987,5.130315 81.584519,5.391422 C81.584519,5.391422 81.661954,5.437505 81.429696,5.652574 C81.197438,5.867644 75.530348,10.921339 75.530348,10.921339 L75.122085,14.376137 C75.294932,14.450653 75.452913,14.331759 75.452913,14.331759 L77.474021,12.503646 L80.624505,14.899871 C81.476101,15.268535 81.785794,14.500515 81.785794,14.500515 C81.785794,14.500515 83.954736,3.856792 84.0000003,3.425244 C84.045264,2.993695 82.978066,3.133354 82.978066,3.133354 Z" id="Oval-13-Copy"></path>
            <path d="M55,0 C59.970563,0 64,4.029437 64,9 C64,13.970563 59.970563,18 55,18 C50.029437,18 46,13.970563 46,9 C46,4.029437 50.029437,0 55,0 Z M57.714277,4 C56.320133,4 55.189744,5.130266 55.189744,6.52441 C55.189744,6.722272 55.212078,6.914967 55.255145,7.099725 C53.157038,6.994457 51.296846,5.989393 50.051776,4.462049 C49.834533,4.834887 49.709946,5.268573 49.709946,5.731237 C49.709946,6.607099 50.155568,7.379784 50.833013,7.832481 C50.4192,7.819377 50.029873,7.705802 49.689581,7.516738 L49.689335,7.548484 L49.689335,7.548484 C49.689335,8.77159 50.559537,9.791912 51.714413,10.023859 C51.502584,10.081569 51.279558,10.112516 51.049395,10.112516 C50.886663,10.112516 50.728483,10.096581 50.574365,10.067111 C50.895584,11.070021 51.827864,11.799947 52.932597,11.82025 C52.068609,12.49745 50.98018,12.900927 49.797311,12.900927 C49.593603,12.900927 49.392603,12.889053 49.195109,12.865735 C50.312332,13.581941 51.639291,14 53.064874,14 C57.708371,14 60.24767,10.153184 60.24767,6.817143 C60.24767,6.707691 60.245147,6.598854 60.240287,6.490571 C60.73359,6.134591 61.161554,5.690015 61.5,5.18373 C61.047303,5.384546 60.560706,5.520269 60.050115,5.58124 C60.571227,5.268819 60.971566,4.774101 61.160077,4.184573 C60.67225,4.473923 60.132004,4.683967 59.556935,4.797172 C59.096486,4.306515 58.440389,4 57.714277,4 Z" id="Oval-13-Copy-2"></path>
            <path d="M32.98235,17.947005 C37.490795,17.457599 41,13.638609 41,9 C41,4.029437 36.970563,0 32,0 C27.029437,0 23,4.029437 23,9 C23,13.298169 26.013007,16.892612 30.042129,17.786436 L30.042129,12.492383 L28,12.492383 L28,9.789127 L30.042129,9.789127 L30.042129,7.480303 C30.042129,5.666123 31.248438,4 34.028098,4 C35.153527,4 35.985895,4.10488 35.985895,4.10488 L35.92017,6.629008 C35.92017,6.629008 35.071446,6.621131 34.145293,6.621131 C33.142911,6.621131 32.98235,7.070118 32.98235,7.815366 C32.98235,8.404533 32.98235,6.559574 32.98235,9.789127 L36,9.789127 L35.8687,12.492383 L32.98235,12.492383 L32.98235,17.947005 L32.98235,17.947005 Z" id="Oval-13-Copy-3"></path>
            <path d="M101,18 C105.970563,18 110,13.970563 110,9 C110,4.029437 105.970563,0 101,0 C96.029437,0 92,4.029437 92,9 C92,13.970563 96.029437,18 101,18 Z M99.7608485,11.4563812 C99.0622626,11.3011691 98.3886465,11.0318721 97.768202,10.6517994 C97.2986263,10.3631994 97.1570505,9.75787212 97.4529697,9.30011455 C97.7486465,8.84133273 98.3689293,8.70329636 98.8393131,8.99181758 C100.244889,9.85375697 102.054586,9.85328424 103.459354,8.99181758 C103.929818,8.70329636 104.550101,8.84133273 104.845212,9.30011455 C105.141131,9.75834485 104.999996,10.3631994 104.530384,10.6517994 C103.910101,11.0313994 103.236404,11.3011691 102.537818,11.4563812 L104.456283,13.3268055 C104.848444,13.7096358 104.848444,14.3301691 104.455879,14.7129206 C104.259354,14.9041388 104.002303,14.9999842 103.745253,14.9999842 C103.487798,14.9999842 103.230343,14.9041388 103.033818,14.7129206 L101.149535,12.8748782 L99.2635556,14.7129206 C98.8713939,15.0956721 98.2349495,15.0956721 97.842303,14.7129206 C97.4493333,14.3301691 97.4493333,13.7092418 97.842303,13.3268055 L99.7608485,11.4563812 Z M101.149139,8.72706667 C99.2562909,8.72706667 97.7176242,7.22694545 97.7176242,5.38244242 C97.7176242,3.53715152 99.2562909,2.03647879 101.149139,2.03647879 C103.041503,2.03647879 104.580574,3.53715152 104.580574,5.38244242 C104.580574,7.22694545 103.041503,8.72706667 101.149139,8.72706667 Z M101.149139,3.99711515 C100.365543,3.99711515 99.7283717,4.61851515 99.7283717,5.38244242 C99.7283717,6.14573939 100.365543,6.76721818 101.149139,6.76721818 C101.931846,6.76721818 102.569907,6.14573939 102.569907,5.38244242 C102.569907,4.61851515 101.931846,3.99711515 101.149139,3.99711515 Z" id="Path-Copy-4"></path>
            <path d="M124,0 C128.632554,0 132.447627,3.50005 132.945071,8 L131,8 L131,6 L130,6 L130,8 L128,8 L128,9 C128.552651,9.005544 129.447151,8.994456 130,9 C130.005544,9.552849 129.994456,10.447349 130,11 L131,11 L131,10.3593304 C130.998768,9.89020933 130.996304,9.37041467 131,9 C131.555622,8.994456 132.447151,9.005544 133,9 C133,13.970563 128.970563,18 124,18 C119.029437,18 115,13.970563 115,9 C115,4.029437 119.029437,0 124,0 Z M122.303822,4.04015348 L122.055329,4.043763 C119.451114,3.958169 117.056963,6.205119 117.013437,8.770712 C116.846899,10.867831 118.246813,12.92461 120.223415,13.666475 C122.192791,14.413085 124.717351,13.904271 125.974813,12.16139 C126.805092,11.060373 126.983673,9.643254 126.887157,8.311729 C125.274942,8.299864 123.665135,8.302237 122.055329,8.306983 C122.05292,8.872915 122.055329,9.438847 122.057738,10.00478 C123.020662,10.035627 123.985996,10.02139 124.949092,10.035627 C124.524318,12.139864 121.61834,12.822407 120.080963,11.448 C118.500232,10.242576 118.574899,7.598508 120.218598,6.478678 C121.367329,5.575119 123.001394,5.798508 124.150125,6.580881 C124.601566,6.169525 125.023931,5.729695 125.431673,5.273085 C124.475974,4.521729 123.302985,3.986814 122.055329,4.043763 Z" id="Path-Copy"></path>
            <path d="M9,0 C13.970563,0 18,4.029437 18,9 C18,13.970563 13.970563,18 9,18 C4.029437,18 0,13.970563 0,9 C0,4.029437 4.029437,0 9,0 Z M3.95530116,5 L2.39349036,5 C2.16694596,5 2,5.15494593 2,5.38144013 C2,5.7987297 2.48883784,7.73023165 4.40838998,10.3174672 C5.69600773,12.0581236 7.38901546,13 8.91507723,13 C9.84505407,13 10.0715985,12.8450541 10.0715985,12.4515637 L10.0715985,11.1162471 C10.0715985,10.7824054 10.2027452,10.6393591 10.3934904,10.6393591 C10.608085,10.6393591 10.986864,10.7082965 11.8719035,11.5812355 C12.9210772,12.5827606 12.9926255,13 13.5649614,13 L15.3175174,13 C15.496363,13 15.6632587,12.9165521 15.6632587,12.6185097 C15.6632587,12.2250193 15.1505714,11.5216371 14.3636911,10.6870077 C14.0417993,10.2578185 13.5172124,9.79288032 13.3502664,9.57828573 C13.1118726,9.3278919 13.1833707,9.18474516 13.3502664,8.92250193 L13.3785103,8.88242478 C13.6080816,8.55563648 15.1638229,6.32119477 15.3294672,5.54843629 C15.3890657,5.25039383 15.2579189,5.08339766 14.9478765,5.08339766 L13.3860657,5.08339766 C13.0283745,5.08339766 12.8972278,5.2383938 12.7899305,5.46493821 C12.7899305,5.46493821 11.9455103,7.26418884 10.9180772,8.39796527 C10.5882523,8.76449323 10.4205532,8.87480309 10.2384942,8.87480309 C10.091632,8.87480309 10.0238996,8.75239279 10.0238996,8.42176448 L10.0238996,5.52458687 C10.0238996,5.11924711 9.97620079,5 9.64240929,5 L7.13867184,5 C6.94787646,5 6.82862935,5.11091237 6.82862935,5.26224323 C6.82862935,5.64398461 7.41286488,5.730194 7.41286488,6.76450578 L7.41286488,8.89865251 C7.41286488,9.3278919 7.38901546,9.49478765 7.18632047,9.49478765 C6.649834,9.49478765 5.37411585,7.64683399 4.6587838,5.54843629 C4.51568727,5.11924711 4.36069113,5 3.95530116,5 Z" id="Combined-Shape"></path>
        </g>
        <g id="иконки-в-шапке--" transform="translate(0.000000, 69.000000)">
            <path d="M111,13.126 C110.668617,13.9030757 110.262721,14.6462145 109.788,15.345 C109.001,16.519 107.888,17.982 106.518,17.994 C105.296,18.006 104.983,17.215 103.326,17.224 C101.669,17.233 101.326,18.008 100.1,17.997116 C98.726,17.985 97.675,16.664 96.888,15.49 C94.688,12.205 94.457,8.35 95.814,6.301 C96.6605536,4.93406681 98.1250867,4.07075129 99.731,3.992 C101.188,3.992 102.104,4.776 103.308,4.776 C104.477,4.776 105.189,3.991 106.873,3.991 C108.282415,4.05082114 109.593579,4.72964013 110.456,5.846 C109.060174,6.58903493 108.235201,8.08659165 108.353034,9.66347001 C108.470866,11.2403484 109.509246,12.5986655 111,13.126 L111,13.126 L111,13.126 Z M106.026,2.707 C106.733363,1.99355415 107.080331,0.998596597 106.97,0 C105.851558,0.0994605524 104.802082,0.5832089 104,1.369 C103.271882,2.04412295 102.911229,3.02718018 103.03,4.013 C104.165067,4.00898093 105.24809,3.53640223 106.023,2.707 L106.023,2.707 L106.026,2.707 Z" id="Shape" fill="#82929E" fill-rule="nonzero"></path>
            <path d="M131,12 C130.447715,12 130,11.5522847 130,11 L130,6 C130,5.44771525 130.447715,5 131,5 C131.552285,5 132,5.44771525 132,6 L132,11 C132,11.5522847 131.552285,12 131,12 L131,12 Z M127,15 L127,18 C127,18.5522847 126.552285,19 126,19 C125.447715,19 125,18.5522847 125,18 L125,15 L123,15 L123,18 C123,18.5522847 122.552285,19 122,19 C121.447715,19 121,18.5522847 121,18 L121,15 C119.895431,15 119,14.1045695 119,13 L119,6 L129,6 L129,13 C129,14.1045695 128.104569,15 127,15 L127,15 Z M121.494,1.675 L121.067,0.853 C120.928416,0.589983591 121.006781,0.264961219 121.25,0.094 C121.3651,0.0211490231 121.505979,0.001337522 121.636707,0.0396181282 C121.767435,0.0778987345 121.875376,0.170570917 121.933,0.294 L122.433,1.258 C123.447776,0.908661391 124.550224,0.908661391 125.565,1.258 L126.065,0.294 C126.122624,0.170570917 126.230565,0.0778987345 126.361293,0.0396181282 C126.492021,0.001337522 126.6329,0.0211490231 126.748,0.094 C126.991219,0.264961219 127.069584,0.589983591 126.931,0.853 L126.504,1.675 C127.741078,2.39006148 128.613122,3.60022329 128.9,5 L119.1,5 C119.386413,3.60058419 120.257684,2.39048604 121.494,1.675 L121.494,1.675 Z M117,12 C116.447715,12 116,11.5522847 116,11 L116,6 C116,5.44771525 116.447715,5 117,5 C117.552285,5 118,5.44771525 118,6 L118,11 C118,11.5522847 117.552285,12 117,12 L117,12 Z" id="Shape" fill="#82929E" fill-rule="nonzero"></path>
            <path d="M137,1 L141,1 L141,5 L137,5 L137,1 L137,1 Z M137,7 L141,7 L141,11 L137,11 L137,7 L137,7 Z M137,13 L141,13 L141,17 L137,17 L137,13 L137,13 Z M143,1 L147,1 L147,5 L143,5 L143,1 L143,1 Z M143,7 L147,7 L147,11 L143,11 L143,7 L143,7 Z M143,13 L147,13 L147,17 L143,17 L143,13 L143,13 Z M149,1 L153,1 L153,5 L149,5 L149,1 L149,1 Z M149,7 L153,7 L153,11 L149,11 L149,7 L149,7 Z M149,13 L153,13 L153,17 L149,17 L149,13 L149,13 Z" id="Shape" fill="#82929E" fill-rule="nonzero"></path>
            <path d="M21,2 L29,2 L29,14.764 L25,12.764 L21,14.764 L21,2 Z M19,18 L25,15 L31,18 L31,0 L19,0 L19,18 Z" id="Fill-5" fill="#82929E" fill-rule="nonzero"></path>
            <path d="M69.9914698,0 C71.1007504,0 72,0.892622799 72,1.99508929 L72,16.0049107 C72,17.1067681 71.0980496,18 69.9914698,18 L62.0085302,18 C60.8992496,18 60,17.1073772 60,16.0049107 L60,1.99508929 C60,0.893231902 60.9019504,0 62.0085302,0 L69.9914698,0 Z M67,14 L65,14 L65,16 L67,16 L67,14 Z M70,2 L62,2 L62,13 L70,13 L70,2 Z" id="Rectangle-4" fill="#82929E" fill-rule="nonzero"></path>
            <path d="M86.530826,1.74838236 C88.593909,2.83777868 90,5.00468426 90,7.5 C90,11.0898509 87.0898509,14 83.5,14 C79.9101491,14 77,11.0898509 77,7.5 C77,5.00468426 78.406091,2.83777868 80.469174,1.74838236 C81.0745704,0.703122104 82.2051737,0 83.5,0 C84.7948263,0 85.9254296,0.703122104 86.530826,1.74838236 L86.530826,1.74838236 L86.530826,1.74838236 Z M83.5,12 C85.4329966,12 87,10.4329966 87,8.5 C87,6.56700338 85.4329966,5 83.5,5 C81.5670034,5 80,6.56700338 80,8.5 C80,10.4329966 81.5670034,12 83.5,12 L83.5,12 L83.5,12 Z M83.5,10 C84.3284271,10 85,9.32842712 85,8.5 C85,7.67157288 84.3284271,7 83.5,7 C82.6715729,7 82,7.67157288 82,8.5 C82,9.32842712 82.6715729,10 83.5,10 L83.5,10 L83.5,10 Z" id="Oval-5" fill="#82929E" fill-rule="nonzero"></path>
            <path d="M87.7994646,13.6875 C89.1488983,14.1455903 90,14.8158172 90,15.5625 C90,16.9432119 87.0898509,18.0625 83.5,18.0625 C79.9101491,18.0625 77,16.9432119 77,15.5625 C77,14.8158172 77.8511017,14.1455903 79.2005354,13.6875 C80.3463768,14.5432497 81.8515245,15.0625 83.5,15.0625 C85.1484755,15.0625 86.6536232,14.5432497 87.7994646,13.6875 L87.7994646,13.6875 L87.7994646,13.6875 Z" id="Oval-9" fill="#82929E" fill-rule="nonzero"></path>
            <path d="M43,0 C46.8659932,0 50,3.13400675 50,7 C50,10.8659932 46.8659932,14 43,14 C39.1340067,14 36,10.8659932 36,7 C36,3.13400675 39.1340067,0 43,0 Z M43,2 C40.2385763,2 38,4.23857625 38,7 C38,9.76142375 40.2385763,12 43,12 C45.7614237,12 48,9.76142375 48,7 C48,4.23857625 45.7614237,2 43,2 Z" id="Oval-11" fill="#82929E" fill-rule="nonzero"></path>
            <line x1="53.9999998" y1="17.9999998" x2="47" y2="11" id="Line" stroke="#82929E" stroke-width="2"></line>
            <circle id="Oval-2" fill="#82929E" fill-rule="nonzero" cx="11" cy="3" r="3"></circle>
            <circle id="Oval-2-Copy" fill="#82929E" fill-rule="nonzero" cx="3" cy="9" r="3"></circle>
            <circle id="Oval-2-Copy-2" fill="#82929E" fill-rule="nonzero" cx="11" cy="15" r="3"></circle>
            <polyline id="Line" stroke="#82929E" stroke-width="2" points="11 3 3 9 11 15"></polyline>
        </g>
        <g id="иконки-в-шапке-+" transform="translate(0.000000, 46.000000)">
            <path d="M111,13.126 C110.668617,13.9030757 110.262721,14.6462145 109.788,15.345 C109.001,16.519 107.888,17.982 106.518,17.994 C105.296,18.006 104.983,17.215 103.326,17.224 C101.669,17.233 101.326,18.008 100.1,17.997116 C98.726,17.985 97.675,16.664 96.888,15.49 C94.688,12.205 94.457,8.35 95.814,6.301 C96.6605536,4.93406681 98.1250867,4.07075129 99.731,3.992 C101.188,3.992 102.104,4.776 103.308,4.776 C104.477,4.776 105.189,3.991 106.873,3.991 C108.282415,4.05082114 109.593579,4.72964013 110.456,5.846 C109.060174,6.58903493 108.235201,8.08659165 108.353034,9.66347001 C108.470866,11.2403484 109.509246,12.5986655 111,13.126 L111,13.126 L111,13.126 Z M106.026,2.707 C106.733363,1.99355415 107.080331,0.998596597 106.97,0 C105.851558,0.0994605524 104.802082,0.5832089 104,1.369 C103.271882,2.04412295 102.911229,3.02718018 103.03,4.013 C104.165067,4.00898093 105.24809,3.53640223 106.023,2.707 L106.023,2.707 L106.026,2.707 Z" id="Shape" fill="#4E5E6A" fill-rule="nonzero"></path>
            <path d="M131,12 C130.447715,12 130,11.5522847 130,11 L130,6 C130,5.44771525 130.447715,5 131,5 C131.552285,5 132,5.44771525 132,6 L132,11 C132,11.5522847 131.552285,12 131,12 L131,12 Z M127,15 L127,18 C127,18.5522847 126.552285,19 126,19 C125.447715,19 125,18.5522847 125,18 L125,15 L123,15 L123,18 C123,18.5522847 122.552285,19 122,19 C121.447715,19 121,18.5522847 121,18 L121,15 C119.895431,15 119,14.1045695 119,13 L119,6 L129,6 L129,13 C129,14.1045695 128.104569,15 127,15 L127,15 Z M121.494,1.675 L121.067,0.853 C120.928416,0.589983591 121.006781,0.264961219 121.25,0.094 C121.3651,0.0211490231 121.505979,0.001337522 121.636707,0.0396181282 C121.767435,0.0778987345 121.875376,0.170570917 121.933,0.294 L122.433,1.258 C123.447776,0.908661391 124.550224,0.908661391 125.565,1.258 L126.065,0.294 C126.122624,0.170570917 126.230565,0.0778987345 126.361293,0.0396181282 C126.492021,0.001337522 126.6329,0.0211490231 126.748,0.094 C126.991219,0.264961219 127.069584,0.589983591 126.931,0.853 L126.504,1.675 C127.741078,2.39006148 128.613122,3.60022329 128.9,5 L119.1,5 C119.386413,3.60058419 120.257684,2.39048604 121.494,1.675 L121.494,1.675 Z M117,12 C116.447715,12 116,11.5522847 116,11 L116,6 C116,5.44771525 116.447715,5 117,5 C117.552285,5 118,5.44771525 118,6 L118,11 C118,11.5522847 117.552285,12 117,12 L117,12 Z" id="Shape" fill="#4E5E6A" fill-rule="nonzero"></path>
            <path d="M137,1 L141,1 L141,5 L137,5 L137,1 L137,1 Z M137,7 L141,7 L141,11 L137,11 L137,7 L137,7 Z M137,13 L141,13 L141,17 L137,17 L137,13 L137,13 Z M143,1 L147,1 L147,5 L143,5 L143,1 L143,1 Z M143,7 L147,7 L147,11 L143,11 L143,7 L143,7 Z M143,13 L147,13 L147,17 L143,17 L143,13 L143,13 Z M149,1 L153,1 L153,5 L149,5 L149,1 L149,1 Z M149,7 L153,7 L153,11 L149,11 L149,7 L149,7 Z M149,13 L153,13 L153,17 L149,17 L149,13 L149,13 Z" id="Shape" fill="#4E5E6A" fill-rule="nonzero"></path>
            <path d="M21,2 L29,2 L29,14.764 L25,12.764 L21,14.764 L21,2 Z M19,18 L25,15 L31,18 L31,0 L19,0 L19,18 Z" id="Fill-5-Copy" fill="#4E5E6A" fill-rule="nonzero"></path>
            <path d="M69.9914698,0 C71.1007504,0 72,0.892622799 72,1.99508929 L72,16.0049107 C72,17.1067681 71.0980496,18 69.9914698,18 L62.0085302,18 C60.8992496,18 60,17.1073772 60,16.0049107 L60,1.99508929 C60,0.893231902 60.9019504,0 62.0085302,0 L69.9914698,0 Z M67,14 L65,14 L65,16 L67,16 L67,14 Z M70,2 L62,2 L62,13 L70,13 L70,2 Z" id="Rectangle-4" fill="#4E5E6A" fill-rule="nonzero"></path>
            <path d="M86.530826,1.74838236 C88.593909,2.83777868 90,5.00468426 90,7.5 C90,11.0898509 87.0898509,14 83.5,14 C79.9101491,14 77,11.0898509 77,7.5 C77,5.00468426 78.406091,2.83777868 80.469174,1.74838236 C81.0745704,0.703122104 82.2051737,0 83.5,0 C84.7948263,0 85.9254296,0.703122104 86.530826,1.74838236 L86.530826,1.74838236 L86.530826,1.74838236 Z M83.5,12 C85.4329966,12 87,10.4329966 87,8.5 C87,6.56700338 85.4329966,5 83.5,5 C81.5670034,5 80,6.56700338 80,8.5 C80,10.4329966 81.5670034,12 83.5,12 L83.5,12 L83.5,12 Z M83.5,10 C84.3284271,10 85,9.32842712 85,8.5 C85,7.67157288 84.3284271,7 83.5,7 C82.6715729,7 82,7.67157288 82,8.5 C82,9.32842712 82.6715729,10 83.5,10 L83.5,10 L83.5,10 Z" id="Oval-5" fill="#4E5E6A" fill-rule="nonzero"></path>
            <path d="M87.7994646,13.6875 C89.1488983,14.1455903 90,14.8158172 90,15.5625 C90,16.9432119 87.0898509,18.0625 83.5,18.0625 C79.9101491,18.0625 77,16.9432119 77,15.5625 C77,14.8158172 77.8511017,14.1455903 79.2005354,13.6875 C80.3463768,14.5432497 81.8515245,15.0625 83.5,15.0625 C85.1484755,15.0625 86.6536232,14.5432497 87.7994646,13.6875 L87.7994646,13.6875 L87.7994646,13.6875 Z" id="Oval-9" fill="#4E5E6A" fill-rule="nonzero"></path>
            <path d="M43,0 C46.8659932,0 50,3.13400675 50,7 C50,10.8659932 46.8659932,14 43,14 C39.1340067,14 36,10.8659932 36,7 C36,3.13400675 39.1340067,0 43,0 Z M43,2 C40.2385763,2 38,4.23857625 38,7 C38,9.76142375 40.2385763,12 43,12 C45.7614237,12 48,9.76142375 48,7 C48,4.23857625 45.7614237,2 43,2 Z" id="Oval-11" fill="#4E5E6A" fill-rule="nonzero"></path>
            <line x1="53.9999998" y1="17.9999998" x2="47" y2="11" id="Line" stroke="#4E5E6A" stroke-width="2"></line>
            <path d="M11,6 C12.6568542,6 14,4.65685425 14,3 C14,1.34314575 12.6568542,0 11,0 C9.34314575,0 8,1.34314575 8,3 C8,4.65685425 9.34314575,6 11,6 L11,6 L11,6 Z" id="Oval-2" fill="#4E5E6A" fill-rule="nonzero"></path>
            <circle id="Oval-2-Copy" fill="#4E5E6A" fill-rule="nonzero" cx="3" cy="9" r="3"></circle>
            <circle id="Oval-2-Copy-2" fill="#4E5E6A" fill-rule="nonzero" cx="11" cy="15" r="3"></circle>
            <polyline id="Line" stroke="#4E5E6A" stroke-width="2" points="11 3 3 9 11 15"></polyline>
        </g>
        <g id="логотипы" transform="translate(0.000000, 123.000000)" fill-rule="nonzero">
            <rect id="Rectangle-path" fill="#27C942" x="0" y="0" width="50" height="50"></rect>
            <path d="M40,30.081 C40.0664596,31.3956399 39.5358373,32.6700154 38.556,33.549 C37.5668216,34.4175918 36.3144688,34.9286052 35,35 L26,35 L26,31.816 C27.1981296,31.3985886 28.0009455,30.2687579 28.0009455,29 C28.0009455,27.7312421 27.1981296,26.6014114 26,26.184 L26,21 L26,21 L26,19 L28,19 L28,21 L30,21 L30,17 L20,17 L20,21 L22,21 L22,19 L24,19 L24,26.184 C22.8018704,26.6014114 21.9990545,27.7312421 21.9990545,29 C21.9990545,30.2687579 22.8018704,31.3985886 24,31.816 L24,35 L10,35 L10,29 L12,29 L12,27 L10,27 L10,21 L18,21 L18,15 L32,15 L32,21 L35,21 C35.9552712,21.1326806 36.8664172,21.4863874 37.661,22.033 C38.7826238,22.7884471 39.4371992,24.067381 39.394,25.419 C39.4273126,26.1999036 39.1812637,26.9671222 38.7,27.583 C39.5115444,28.1566646 39.9958,29.0871802 40,30.081 L40,30.081 Z M16,27 L16,23 L12,23 L12,25 L14,25 L14,31 L12,31 L12,33 L16,33 L16,29 L18,29 L18,33 L22,33 L22,31 L20,31 L20,25 L22,25 L22,23 L18,23 L18,27 L16,27 L16,27 Z M36.456,27.631 C37.1091192,27.1849262 37.4668559,26.4180737 37.389,25.631 C37.389,23.882 36.073,23.013 34.201,23.004 L27.996,23.017 L27.996,25 L29.996,25 L29.996,31 L27.996,31 L27.996,32.985 L34.745,33 C36.771,33 38,31.828 38,30.014 C38.0383679,28.9738201 37.4210441,28.0210464 36.456,27.631 L36.456,27.631 Z M34,31 L32,31.006 L32,29 L34,29 C34.5522847,29 35,29.4477153 35,30 C35,30.5522847 34.5522847,31 34,31 L34,31 Z M34,27 L32,27 L32,27 L31.994,27 L31.994,25 L34,25 C34.5522847,25 35,25.4477153 35,26 C35,26.5522847 34.5522847,27 34,27 L34,27 Z M23,28 C23,27.4477153 23.4477153,27 24,27 C24.5522847,27 25,27.4477153 25,28 C25,28.5522847 24.5522847,29 24,29 C23.4477153,29 23,28.5522847 23,28 L23,28 Z" id="Shape_5_copy" fill="#FFFFFF"></path>
            <path d="M48,55 L48,103 L0,103 L0,55 L48,55 Z M31,69 L17,69 L17,75 L9,75 L9,81 L11,81 L11,83 L9,83 L9,89 L23,89 L23,85.816 C21.8018704,85.3985886 20.9990545,84.2687579 20.9990545,83 C20.9990545,81.7312421 21.8018704,80.6014114 23,80.184 L23,80.184 L23,73 L21,73 L21,75 L19,75 L19,71 L29,71 L29,75 L27,75 L27,73 L25,73 L25,80.184 C26.1981296,80.6014114 27.0009455,81.7312421 27.0009455,83 C27.0009455,84.2687579 26.1981296,85.3985886 25,85.816 L25,85.816 L25,89 L34,89 C35.3145206,88.9288356 36.5669459,88.4177926 37.556,87.549 C38.5358373,86.6700154 39.0664596,85.3956399 39,84.081 C38.9958,83.0871802 38.5115444,82.1566646 37.7,81.583 C38.1812637,80.9671222 38.4273126,80.1999036 38.394,79.419 C38.4371992,78.067381 37.7826238,76.7884471 36.661,76.033 C35.8664172,75.4863874 34.9552712,75.1326806 34,75 L34,75 L31,75 L31,69 Z M15,77 L15,81 L17,81 L17,77 L21,77 L21,79 L19,79 L19,85 L21,85 L21,87 L17,87 L17,83 L15,83 L15,87 L11,87 L11,85 L13,85 L13,79 L11,79 L11,77 L15,77 Z M33.201,77.004 C35.073,77.013 36.388,77.882 36.388,79.631 C36.4665156,80.4179507 36.1090827,81.1849741 35.456,81.631 C36.4206896,82.0209208 37.0379393,82.9731804 37,84.013 C37,85.827 35.771,87 33.745,87 L33.745,87 L26.996,86.985 L26.996,85 L28.996,85 L28.996,79 L26.996,79 L26.996,77.017 Z M33,83 L31,83 L31,85.006 L33,85 C33.5522847,85 34,84.5522847 34,84 C34,83.4477153 33.5522847,83 33,83 L33,83 Z M23,81 C22.4477153,81 22,81.4477153 22,82 C22,82.5522847 22.4477153,83 23,83 C23.5522847,83 24,82.5522847 24,82 C24,81.4477153 23.5522847,81 23,81 Z M33,79 L30.994,79 L30.994,81 L33,81 C33.5522847,81 34,80.5522847 34,80 C34,79.4477153 33.5522847,79 33,79 L33,79 Z" id="Shape" fill="#373F44"></path>
        </g>
        <g id="mailruandetc" transform="translate(137.000000, 0.000000)" fill-rule="nonzero">
            <path d="M55,0 C59.970563,0 64,4.029437 64,9 C64,13.970563 59.970563,18 55,18 C50.029437,18 46,13.970563 46,9 C46,4.029437 50.029437,0 55,0 Z M58,4 L56,4 L52,14 L54,14 L58,4 Z M59,8 L58,9 L60,11 L58,13 L59,14 L62,11 L59,8 Z M51,4 L48,7 L51,10 L52,9 L50,7 L52,5 L51,4 Z" id="Oval-13-Copy-5-Copy-3" fill="#27C942"></path>
            <path d="M32,0 C36.970563,0 41,4.029437 41,9 C41,13.970563 36.970563,18 32,18 C27.029437,18 23,13.970563 23,9 C23,7.77684271 23.2440045,6.61067576 23.685993,5.54751963 L31.1471,13.0086272 C31.5410394,11.8877942 32.1861143,10.8355484 33.0823245,9.93933817 C33.9225538,9.09910892 34.8999341,8.47962104 35.9424008,8.08087363 L28.54752,0.685992823 C29.610676,0.244004431 30.7768429,0 32,0 Z M36.8569083,11.2124206 C36.2888172,11.4117566 35.755473,11.7385125 35.3012973,12.1926882 C34.803763,12.6902224 34.4591385,13.2827627 34.2674238,13.9119115 L34.2674238,13.9119115 L37.6605677,14.6949447 Z" id="Oval-13-Copy-5-Copy-2" fill="#00B0EA"></path>
            <path d="M9,18 C13.970563,18 18,13.970563 18,9 C18,4.029437 13.970563,0 9,0 C4.029437,0 0,4.029437 0,9 C0,13.970563 4.029437,18 9,18 Z M8.75715425,4.78840379 C9.82712447,4.78840379 10.8332879,5.26129359 11.5716736,6.00187343 L11.5716736,6.00450645 C11.5716736,5.64913696 11.8110148,5.38109586 12.143126,5.38109586 L12.2271192,5.38056925 C12.7466134,5.38056925 12.8532506,5.87197794 12.8532506,6.02767699 L12.8559714,11.5549934 C12.8191969,11.9169455 13.2293331,12.1038019 13.4566502,11.8715698 C14.3442402,10.9594051 15.405697,7.18269366 12.9048577,4.994569 C10.5740235,2.95441989 7.44626299,3.29048059 5.78298634,4.4370716 C4.01482785,5.6565094 2.8833328,8.35587814 3.98252951,10.8911222 C5.18072765,13.6563163 8.60900317,14.4810649 10.6465193,13.6579839 C11.6783985,13.2418795 12.1548868,14.6365884 11.0833367,15.0921881 C9.46411923,15.7816874 4.95762336,15.7122635 2.85235097,12.0657109 C1.42990757,9.60305039 1.50547515,5.27077245 5.27797373,3.02586241 C8.16384782,1.30843337 11.9687325,1.78360512 14.2629677,4.17982586 C16.6611193,6.68496573 16.5213062,11.3757728 14.1820463,13.1989613 C13.1222571,14.0275717 11.5480642,13.221342 11.5581574,12.014016 L11.5472743,11.6193268 C10.8091519,12.351481 9.82712447,12.7787318 8.75715425,12.7787318 C6.64310513,12.7787318 4.78314212,10.9191199 4.78314212,8.80507079 C4.78314212,6.67013307 6.64310513,4.78840379 8.75715425,4.78840379 Z M11.4178176,8.65209252 C11.338125,7.10431753 10.1891643,6.17337058 8.80182776,6.17337058 L8.7492552,6.17337058 C7.14811773,6.17337058 6.2600012,7.43265471 6.2600012,8.86317269 C6.2600012,10.4644857 7.33435978,11.4762662 8.74319926,11.4762662 C10.3136182,11.4762662 11.3464629,10.3258135 11.4212406,8.9648949 L11.4178176,8.65209252 Z" id="Oval-13-Copy-5-Copy" fill="#FFA930"></path>
            <path d="M55,23 C59.970563,23 64,27.029437 64,32 C64,36.970563 59.970563,41 55,41 C50.029437,41 46,36.970563 46,32 C46,27.029437 50.029437,23 55,23 Z M58,27 L56,27 L52,37 L54,37 L58,27 Z M59,31 L58,32 L60,34 L58,36 L59,37 L62,34 L59,31 Z M51,27 L48,30 L51,33 L52,32 L50,30 L52,28 L51,27 Z" id="Oval-13-Copy-5-Copy-6" fill="#82929E"></path>
            <path d="M32,23 C36.970563,23 41,27.029437 41,32 C41,36.970563 36.970563,41 32,41 C27.029437,41 23,36.970563 23,32 C23,30.7768427 23.2440045,29.6106758 23.685993,28.5475196 L31.1471,36.0086272 C31.5410394,34.8877942 32.1861143,33.8355484 33.0823245,32.9393382 C33.9225538,32.0991089 34.8999341,31.479621 35.9424008,31.0808736 L28.54752,23.6859928 C29.610676,23.2440044 30.7768429,23 32,23 Z M36.8569083,34.2124206 C36.2888172,34.4117566 35.755473,34.7385125 35.3012973,35.1926882 C34.803763,35.6902224 34.4591385,36.2827627 34.2674238,36.9119115 L34.2674238,36.9119115 L37.6605677,37.6949447 Z" id="Oval-13-Copy-5-Copy-5" fill="#82929E"></path>
            <path d="M9,41 C13.970563,41 18,36.970563 18,32 C18,27.029437 13.970563,23 9,23 C4.029437,23 0,27.029437 0,32 C0,36.970563 4.029437,41 9,41 Z M8.75715425,27.7884038 C9.82712447,27.7884038 10.8332879,28.2612936 11.5716736,29.0018734 L11.5716736,29.0045064 C11.5716736,28.649137 11.8110148,28.3810959 12.143126,28.3810959 L12.2271192,28.3805693 C12.7466134,28.3805693 12.8532506,28.8719779 12.8532506,29.027677 L12.8559714,34.5549934 C12.8191969,34.9169455 13.2293331,35.1038019 13.4566502,34.8715698 C14.3442402,33.9594051 15.405697,30.1826937 12.9048577,27.994569 C10.5740235,25.9544199 7.44626299,26.2904806 5.78298634,27.4370716 C4.01482785,28.6565094 2.8833328,31.3558781 3.98252951,33.8911222 C5.18072765,36.6563163 8.60900317,37.4810649 10.6465193,36.6579839 C11.6783985,36.2418795 12.1548868,37.6365884 11.0833367,38.0921881 C9.46411923,38.7816874 4.95762336,38.7122635 2.85235097,35.0657109 C1.42990757,32.6030504 1.50547515,28.2707725 5.27797373,26.0258624 C8.16384782,24.3084334 11.9687325,24.7836051 14.2629677,27.1798259 C16.6611193,29.6849657 16.5213062,34.3757728 14.1820463,36.1989613 C13.1222571,37.0275717 11.5480642,36.221342 11.5581574,35.014016 L11.5472743,34.6193268 C10.8091519,35.351481 9.82712447,35.7787318 8.75715425,35.7787318 C6.64310513,35.7787318 4.78314212,33.9191199 4.78314212,31.8050708 C4.78314212,29.6701331 6.64310513,27.7884038 8.75715425,27.7884038 Z M11.4178176,31.6520925 C11.338125,30.1043175 10.1891643,29.1733706 8.80182776,29.1733706 L8.7492552,29.1733706 C7.14811773,29.1733706 6.2600012,30.4326547 6.2600012,31.8631727 C6.2600012,33.4644857 7.33435978,34.4762662 8.74319926,34.4762662 C10.3136182,34.4762662 11.3464629,33.3258135 11.4212406,31.9648949 L11.4178176,31.6520925 Z" id="Oval-13-Copy-5-Copy-4" fill="#82929E"></path>
        </g>
        <path d="M215,41 C219.970563,41 224,36.970563 224,32 C224,27.029437 219.970563,23 215,23 C210.029437,23 206,27.029437 206,32 C206,36.970563 210.029437,41 215,41 Z M215,29 C213.343153,29 212,30.3431531 212,32 C212,33.6568469 213.343153,35 215,35 C216.656847,35 218,33.6568469 218,32 C218,30.3431531 216.656847,29 215,29 Z M215,34 C213.895444,34 213,33.1045562 213,32 C213,30.8954438 213.895444,30 215,30 C216.104556,30 217,30.8954438 217,32 C217,33.1045562 216.104556,34 215,34 Z M220,28.9999835 C220,29.5522734 219.552306,30 219.000017,30 C218.447727,30 218,29.5522734 218,28.9999835 C218,28.4476936 218.447727,28 219.000017,28 C219.552306,28 220,28.4476936 220,28.9999835 Z M209,29.9958262 C209,27.7889923 210.796521,26 212.995826,26 L217.004174,26 C219.211008,26 221,27.7965212 221,29.9958262 L221,34.0041738 C221,36.2110077 219.203479,38 217.004174,38 L212.995826,38 C210.788992,38 209,36.2034788 209,34.0041738 L209,29.9958262 Z" id="Combined-Shape-Copy" fill="#82929E" fill-rule="nonzero"></path>
        <g id="Combined-Shape" transform="translate(206.000000, 0.000000)" fill-rule="nonzero">
            <g id="path-6-link" fill="url(#radialGradient-3)">
                <path d="M9,18 C13.970563,18 18,13.970563 18,9 C18,4.029437 13.970563,0 9,0 C4.029437,0 0,4.029437 0,9 C0,13.970563 4.029437,18 9,18 Z M9,6 C7.343153,6 6,7.34315309 6,9 C6,10.6568469 7.343153,12 9,12 C10.656847,12 12,10.6568469 12,9 C12,7.34315309 10.656847,6 9,6 Z M9,11 C7.895444,11 7,10.1045562 7,9 C7,7.89544383 7.895444,7 9,7 C10.104556,7 11,7.89544383 11,9 C11,10.1045562 10.104556,11 9,11 Z M14,5.99998346 C14,6.55227337 13.552306,7 13.000017,7 C12.447727,7 12,6.55227337 12,5.99998346 C12,5.44769355 12.447727,5 13.000017,5 C13.552306,5 14,5.44769355 14,5.99998346 Z M3,6.99582624 C3,4.78899235 4.796521,3 6.995826,3 L11.004174,3 C13.211008,3 15,4.79652125 15,6.99582624 L15,11.0041738 C15,13.2110077 13.203479,15 11.004174,15 L6.995826,15 C4.788992,15 3,13.2034788 3,11.0041738 L3,6.99582624 Z" id="path-6"></path>
            </g>
            <g id="path-6-link" fill="url(#linearGradient-4)">
                <path d="M9,18 C13.970563,18 18,13.970563 18,9 C18,4.029437 13.970563,0 9,0 C4.029437,0 0,4.029437 0,9 C0,13.970563 4.029437,18 9,18 Z M9,6 C7.343153,6 6,7.34315309 6,9 C6,10.6568469 7.343153,12 9,12 C10.656847,12 12,10.6568469 12,9 C12,7.34315309 10.656847,6 9,6 Z M9,11 C7.895444,11 7,10.1045562 7,9 C7,7.89544383 7.895444,7 9,7 C10.104556,7 11,7.89544383 11,9 C11,10.1045562 10.104556,11 9,11 Z M14,5.99998346 C14,6.55227337 13.552306,7 13.000017,7 C12.447727,7 12,6.55227337 12,5.99998346 C12,5.44769355 12.447727,5 13.000017,5 C13.552306,5 14,5.44769355 14,5.99998346 Z M3,6.99582624 C3,4.78899235 4.796521,3 6.995826,3 L11.004174,3 C13.211008,3 15,4.79652125 15,6.99582624 L15,11.0041738 C15,13.2110077 13.203479,15 11.004174,15 L6.995826,15 C4.788992,15 3,13.2034788 3,11.0041738 L3,6.99582624 Z" id="path-6"></path>
            </g>
            <g id="path-6-link" fill="url(#linearGradient-5)">
                <path d="M9,18 C13.970563,18 18,13.970563 18,9 C18,4.029437 13.970563,0 9,0 C4.029437,0 0,4.029437 0,9 C0,13.970563 4.029437,18 9,18 Z M9,6 C7.343153,6 6,7.34315309 6,9 C6,10.6568469 7.343153,12 9,12 C10.656847,12 12,10.6568469 12,9 C12,7.34315309 10.656847,6 9,6 Z M9,11 C7.895444,11 7,10.1045562 7,9 C7,7.89544383 7.895444,7 9,7 C10.104556,7 11,7.89544383 11,9 C11,10.1045562 10.104556,11 9,11 Z M14,5.99998346 C14,6.55227337 13.552306,7 13.000017,7 C12.447727,7 12,6.55227337 12,5.99998346 C12,5.44769355 12.447727,5 13.000017,5 C13.552306,5 14,5.44769355 14,5.99998346 Z M3,6.99582624 C3,4.78899235 4.796521,3 6.995826,3 L11.004174,3 C13.211008,3 15,4.79652125 15,6.99582624 L15,11.0041738 C15,13.2110077 13.203479,15 11.004174,15 L6.995826,15 C4.788992,15 3,13.2034788 3,11.0041738 L3,6.99582624 Z" id="path-6"></path>
            </g>
        </g>
        <path d="M169,46 C173.970563,46 178,50.0294373 178,55 C178,59.9705627 173.970563,64 169,64 C164.029437,64 160,59.9705627 160,55 C160,50.0294373 164.029437,46 169,46 Z M169.027377,49.0088368 C165.736491,49.0088368 163.060243,51.6841264 163.05893,54.9725586 C163.058482,56.0994411 163.373786,57.1968894 163.971047,58.14654 L163.971047,58.14654 L164.113053,58.3721671 L163.510178,60.5729506 L165.768255,59.9809203 L165.986212,60.1101236 C166.902063,60.6535697 167.952059,60.9410324 169.02279,60.9415998 L169.02279,60.9415998 C172.313404,60.9415998 174.989747,58.2659438 174.991142,54.9774052 C174.991615,53.3837001 174.371728,51.8851777 173.245308,50.7579287 C172.118817,49.6306678 170.621002,49.0094988 169.027377,49.0088368 Z M166.688039,51.6157921 L166.852379,51.6195365 C166.978723,51.6247023 167.118542,51.6306128 167.251341,51.9258655 C167.408987,52.2764286 167.753548,53.153191 167.797877,53.2418483 C167.842206,53.3305057 167.871759,53.4340221 167.812653,53.552421 C167.753548,53.6706309 167.723995,53.744512 167.635526,53.8480402 C167.546868,53.9515684 167.449155,54.079105 167.369552,54.1585302 C167.28061,54.2469157 167.188263,54.3429612 167.291698,54.5202759 C167.395132,54.697768 167.750971,55.2781074 168.278026,55.7479915 C168.858651,56.2656898 169.361121,56.477049 169.604497,56.5828741 L169.703756,56.6279219 C169.881073,56.7165792 169.984507,56.701803 170.087942,56.5833213 C170.191376,56.4651114 170.530961,56.0658814 170.649172,55.8885666 C170.767383,55.7110627 170.885594,55.7406152 171.048134,55.7997201 C171.210674,55.858825 172.08229,56.2877967 172.259606,56.3764541 C172.436923,56.4651114 172.555134,56.5094401 172.599463,56.5833213 C172.643792,56.6574861 172.643792,57.012293 172.496028,57.4262165 C172.348265,57.8402347 171.624412,58.2394648 171.299332,58.2690172 C170.974252,58.2985697 170.66948,58.4160466 169.171807,57.8254584 C167.369741,57.1148164 166.231866,55.2675985 166.143208,55.1493887 C166.054644,55.0310015 165.41926,54.1881063 165.41926,53.3157531 C165.41926,52.4434946 165.877328,52.0146174 166.039868,51.8372081 C166.202313,51.6597988 166.394406,51.6153723 166.512617,51.6153723 C166.630733,51.6153723 166.749039,51.6151037 166.852379,51.6195365 Z" id="Combined-Shape" fill="#41C351"></path>
        <path d="M169,69 C173.970563,69 178,73.0294373 178,78 C178,82.9705627 173.970563,87 169,87 C164.029437,87 160,82.9705627 160,78 C160,73.0294373 164.029437,69 169,69 Z M169.027377,72.0088368 C165.736491,72.0088368 163.060243,74.6841264 163.05893,77.9725586 C163.058482,79.0994411 163.373786,80.1968894 163.971047,81.14654 L163.971047,81.14654 L164.113053,81.3721671 L163.510178,83.5729506 L165.768255,82.9809203 L165.986212,83.1101236 C166.902063,83.6535697 167.952059,83.9410324 169.02279,83.9415998 L169.02279,83.9415998 C172.313404,83.9415998 174.989747,81.2659438 174.991142,77.9774052 C174.991615,76.3837001 174.371728,74.8851777 173.245308,73.7579287 C172.118817,72.6306678 170.621002,72.0094988 169.027377,72.0088368 Z M166.688039,74.6157921 L166.852379,74.6195365 C166.978723,74.6247023 167.118542,74.6306128 167.251341,74.9258655 C167.408987,75.2764286 167.753548,76.153191 167.797877,76.2418483 C167.842206,76.3305057 167.871759,76.4340221 167.812653,76.552421 C167.753548,76.6706309 167.723995,76.744512 167.635526,76.8480402 C167.546868,76.9515684 167.449155,77.079105 167.369552,77.1585302 C167.28061,77.2469157 167.188263,77.3429612 167.291698,77.5202759 C167.395132,77.697768 167.750971,78.2781074 168.278026,78.7479915 C168.858651,79.2656898 169.361121,79.477049 169.604497,79.5828741 L169.703756,79.6279219 C169.881073,79.7165792 169.984507,79.701803 170.087942,79.5833213 C170.191376,79.4651114 170.530961,79.0658814 170.649172,78.8885666 C170.767383,78.7110627 170.885594,78.7406152 171.048134,78.7997201 C171.210674,78.858825 172.08229,79.2877967 172.259606,79.3764541 C172.436923,79.4651114 172.555134,79.5094401 172.599463,79.5833213 C172.643792,79.6574861 172.643792,80.012293 172.496028,80.4262165 C172.348265,80.8402347 171.624412,81.2394648 171.299332,81.2690172 C170.974252,81.2985697 170.66948,81.4160466 169.171807,80.8254584 C167.369741,80.1148164 166.231866,78.2675985 166.143208,78.1493887 C166.054644,78.0310015 165.41926,77.1881063 165.41926,76.3157531 C165.41926,75.4434946 165.877328,75.0146174 166.039868,74.8372081 C166.202313,74.6597988 166.394406,74.6153723 166.512617,74.6153723 C166.630733,74.6153723 166.749039,74.6151037 166.852379,74.6195365 Z" id="Combined-Shape" fill="#82929E"></path>
    </g>
</svg>