<?xml version="1.0" encoding="UTF-8" standalone="no"?>
<svg width="125px" height="160px" viewBox="0 0 125 160" version="1.1" xmlns="http://www.w3.org/2000/svg" xmlns:xlink="http://www.w3.org/1999/xlink" xmlns:sketch="http://www.bohemiancoding.com/sketch/ns">
    <!-- Generator: Sketch 3.4.4 (17249) - http://www.bohemiancoding.com/sketch -->
    <title>Page-1</title>
    <desc>Created with Sketch.</desc>
    <defs></defs>
    <g id="Page-1" stroke="none" stroke-width="1" fill="none" fill-rule="evenodd" sketch:type="MSPage">
        <g id="icons" sketch:type="MSLayerGroup" transform="translate(-14.000000, -17.000000)">
            <g id="Slice-3" sketch:type="MSShapeGroup">
                <g id="Page-1">
                    <g id="ico_pl" transform="translate(55.000000, 154.000000)">
                        <g id="Page-1">
                            <g id="Плейлист">
                                <path d="M8,3 L8,11 L15,7 L8,3 L8,3 L8,3 L8,3 Z" id="Fill-4" fill="#27C942"></path>
                                <path d="M0,0 L20,0 L20,4 L24,4 L24,7 L28,7 L28,22 L7,22 L7,18 L4,18 L4,14 L0,14 L0,0 L0,0 L0,0 Z" id="Path-38" stroke="#27C942" stroke-width="2"></path>
                                <path d="M4,14 L20,14 L20,4" id="Path-39" stroke="#27C942" stroke-width="2"></path>
                                <path d="M24,7 L24,18 L7,18" id="Path-40" stroke="#27C942" stroke-width="2"></path>
                            </g>
                        </g>
                    </g>
                    <g id="Текст" transform="translate(14.000000, 148.000000)" stroke="#27C942" stroke-width="2">
                        <path d="M19,0 L19,24 L33,24 L33,0 L19,0 L19,0 Z" id="Path-28"></path>
                        <path d="M0,3 L15,3" id="Path-29"></path>
                        <path d="M0,7 L11,7" id="Path-29-Copy"></path>
                        <path d="M0,17 L15,17" id="Path-29-Copy-2"></path>
                        <path d="M0,21 L11,21" id="Path-29-Copy-3"></path>
                    </g>
                    <g id="Блоги" transform="translate(105.000000, 107.000000)">
                        <path d="M2,23 L0.433970213,30.047134 C0.194295082,31.1256721 0.879344657,31.8045901 1.95286596,31.5660298 L9,30 L32,7 L25,0 L2,23 L2,23 Z" id="Fill-20" stroke="#23292C" stroke-width="2"></path>
                        <path d="M26,2 L29,0 L32,3 L30,6 L26,2 L26,2 Z" id="Path-23" fill="#23292C"></path>
                        <path d="M21,5 L27,11" id="Path-25" stroke="#23292C" stroke-width="2"></path>
                        <path d="M24,8 L16,16" id="Path-26" stroke="#23292C" stroke-width="2"></path>
                        <path d="M3,23 L9,29" id="Path-26" stroke="#23292C" stroke-width="2"></path>
                    </g>
                    <g id="Комментарии" transform="translate(63.000000, 107.000000)" stroke="#23292C" stroke-width="2">
                        <path d="M0,0 L34,0 L34,28 L24,28 L24,39 L13,28 L0,28 L0,0 L0,0 Z" id="Path-29"></path>
                        <path d="M10,19 L24,19" id="Path-30"></path>
                        <path d="M10,14 L24,14" id="Path-30-Copy"></path>
                        <path d="M10,9 L24,9" id="Path-30-Copy-2"></path>
                    </g>
                    <g id="Темы" transform="translate(16.000000, 107.000000)" stroke="#23292C" stroke-width="2">
                        <path d="M6,21.9999998 L13,29 L26,16 L19,9 L6,21.9999998 L6,21.9999998 Z" id="Path"></path>
                        <path d="M14.5789698,34.5903341 C13.8008421,35.3688711 12.5321149,35.3620698 11.7506061,34.580561 L0.589484198,23.419439 C-0.1944503,22.6355045 -0.195263519,21.3653088 0.579711177,20.5903341 L21.1700458,-3.55271368e-15 L31.1499544,-3.55271368e-15 C33.3638005,-3.55271368e-15 35.1584774,1.78732987 35.1584774,3.99310226 L35.1584771,14 L14.5789698,34.5903341 L14.5789698,34.5903341 Z" id="Path"></path>
                        <path d="M29.1212929,5.87863591 C27.9496834,4.70712136 26.0503166,4.70712136 24.8787071,5.87863591 C23.7070976,7.05015045 23.7070976,8.94984955 24.8787071,10.1213641 C26.0503166,11.2928786 27.9496834,11.2928786 29.1212929,10.1213641 C30.2929024,8.94984955 30.2929024,7.05015045 29.1212929,5.87863591 L29.1212929,5.87863591 L29.1212929,5.87863591 Z" id="Path"></path>
                        <path d="M42.166,4 C37.164,9.002 30.374,10.322 27,6.948" id="Path"></path>
                    </g>
                    <g id="Мобильные" transform="translate(73.000000, 84.000000)" fill="#82929E">
                        <path d="M0,1.99508929 C0,0.893231902 0.901950359,0 2.0085302,0 L9.9914698,0 C11.1007504,0 12,0.892622799 12,1.99508929 L12,16.0049107 C12,17.1067681 11.0980496,18 9.9914698,18 L2.0085302,18 C0.899249601,18 0,17.1073772 0,16.0049107 L0,1.99508929 L0,1.99508929 Z M5,14 L7,14 L7,16 L5,16 L5,14 L5,14 Z M2,2 L10,2 L10,13 L2,13 L2,2 L2,2 Z" id="Rectangle-4"></path>
                    </g>
                    <g id="Стройка" transform="translate(89.000000, 84.000000)" fill="#82929E">
                        <path d="M9.53082598,1.74838236 C11.593909,2.83777868 13,5.00468426 13,7.5 C13,11.0898509 10.0898509,14 6.5,14 C2.91014913,14 0,11.0898509 0,7.5 C0,5.00468426 1.40609104,2.83777868 3.46917402,1.74838236 C4.07457041,0.703122104 5.20517372,0 6.5,0 C7.79482628,0 8.92542959,0.703122104 9.53082598,1.74838236 L9.53082598,1.74838236 Z M6.5,12 C8.43299662,12 10,10.4329966 10,8.5 C10,6.56700338 8.43299662,5 6.5,5 C4.56700338,5 3,6.56700338 3,8.5 C3,10.4329966 4.56700338,12 6.5,12 L6.5,12 Z M6.5,10 C7.32842712,10 8,9.32842712 8,8.5 C8,7.67157288 7.32842712,7 6.5,7 C5.67157288,7 5,7.67157288 5,8.5 C5,9.32842712 5.67157288,10 6.5,10 L6.5,10 Z" id="Oval-5"></path>
                        <path d="M10.7994646,13.6875 C12.1488983,14.1455903 13,14.8158172 13,15.5625 C13,16.9432119 10.0898509,18.0625 6.5,18.0625 C2.91014913,18.0625 0,16.9432119 0,15.5625 C0,14.8158172 0.851101691,14.1455903 2.20053536,13.6875 C3.34637681,14.5432497 4.85152448,15.0625 6.5,15.0625 C8.14847552,15.0625 9.65362319,14.5432497 10.7994646,13.6875 L10.7994646,13.6875 Z" id="Oval-9"></path>
                    </g>
                    <g id="Поиск" transform="translate(49.000000, 84.000000)">
                        <path d="M7,14 C10.8659932,14 14,10.8659932 14,7 C14,3.13400675 10.8659932,0 7,0 C3.13400675,0 0,3.13400675 0,7 C0,10.8659932 3.13400675,14 7,14 L7,14 Z M7,12 C9.76142375,12 12,9.76142375 12,7 C12,4.23857625 9.76142375,2 7,2 C4.23857625,2 2,4.23857625 2,7 C2,9.76142375 4.23857625,12 7,12 L7,12 Z" id="Oval-11" fill="#82929E"></path>
                        <path d="M17.9999998,17.9999998 L11,11" id="Line" stroke="#82929E" stroke-width="2"></path>
                    </g>
                    <g id="Избранное" transform="translate(33.000000, 84.000000)" stroke="#82929E" stroke-width="2">
                        <path d="M0,0 L12,0 L12,18 L6,15 L0,18 L0,0 L0,0 Z" id="Rectangle-7"></path>
                    </g>
                    <g id="Соц.-сети" transform="translate(14.000000, 84.000000)">
                        <circle id="Oval-2" fill="#82929E" cx="11" cy="3" r="3"></circle>
                        <circle id="Oval-2-Copy" fill="#82929E" cx="3" cy="9" r="3"></circle>
                        <circle id="Oval-2-Copy-2" fill="#82929E" cx="11" cy="15" r="3"></circle>
                        <path d="M11,3 L3,9 L11,15" id="Line" stroke="#82929E" stroke-width="2"></path>
                    </g>
                    <g id="Мобильные-Copy" transform="translate(73.000000, 62.000000)" fill="#5D5D5D">
                        <path d="M0,1.99508929 C0,0.893231902 0.901950359,0 2.0085302,0 L9.9914698,0 C11.1007504,0 12,0.892622799 12,1.99508929 L12,16.0049107 C12,17.1067681 11.0980496,18 9.9914698,18 L2.0085302,18 C0.899249601,18 0,17.1073772 0,16.0049107 L0,1.99508929 L0,1.99508929 Z M5,14 L7,14 L7,16 L5,16 L5,14 L5,14 Z M2,2 L10,2 L10,13 L2,13 L2,2 L2,2 Z" id="Rectangle-4"></path>
                    </g>
                    <g id="Стройка-Copy" transform="translate(89.000000, 62.000000)" fill="#5D5D5D">
                        <path d="M9.53082598,1.74838236 C11.593909,2.83777868 13,5.00468426 13,7.5 C13,11.0898509 10.0898509,14 6.5,14 C2.91014913,14 0,11.0898509 0,7.5 C0,5.00468426 1.40609104,2.83777868 3.46917402,1.74838236 C4.07457041,0.703122104 5.20517372,0 6.5,0 C7.79482628,0 8.92542959,0.703122104 9.53082598,1.74838236 L9.53082598,1.74838236 Z M6.5,12 C8.43299662,12 10,10.4329966 10,8.5 C10,6.56700338 8.43299662,5 6.5,5 C4.56700338,5 3,6.56700338 3,8.5 C3,10.4329966 4.56700338,12 6.5,12 L6.5,12 Z M6.5,10 C7.32842712,10 8,9.32842712 8,8.5 C8,7.67157288 7.32842712,7 6.5,7 C5.67157288,7 5,7.67157288 5,8.5 C5,9.32842712 5.67157288,10 6.5,10 L6.5,10 Z" id="Oval-5"></path>
                        <path d="M10.7994646,13.6875 C12.1488983,14.1455903 13,14.8158172 13,15.5625 C13,16.9432119 10.0898509,18.0625 6.5,18.0625 C2.91014913,18.0625 0,16.9432119 0,15.5625 C0,14.8158172 0.851101691,14.1455903 2.20053536,13.6875 C3.34637681,14.5432497 4.85152448,15.0625 6.5,15.0625 C8.14847552,15.0625 9.65362319,14.5432497 10.7994646,13.6875 L10.7994646,13.6875 Z" id="Oval-9"></path>
                    </g>
                    <g id="Поиск-Copy" transform="translate(49.000000, 62.000000)">
                        <path d="M7,14 C10.8659932,14 14,10.8659932 14,7 C14,3.13400675 10.8659932,0 7,0 C3.13400675,0 0,3.13400675 0,7 C0,10.8659932 3.13400675,14 7,14 L7,14 Z M7,12 C9.76142375,12 12,9.76142375 12,7 C12,4.23857625 9.76142375,2 7,2 C4.23857625,2 2,4.23857625 2,7 C2,9.76142375 4.23857625,12 7,12 L7,12 Z" id="Oval-11" fill="#5D5D5D"></path>
                        <path d="M17.9999998,17.9999998 L11,11" id="Line" stroke="#5D5D5D" stroke-width="2"></path>
                    </g>
                    <g id="Избранное-Copy" transform="translate(33.000000, 62.000000)" stroke="#5D5D5D" stroke-width="2">
                        <path d="M0,0 L12,0 L12,18 L6,15 L0,18 L0,0 L0,0 Z" id="Rectangle-7"></path>
                    </g>
                    <g id="Соц.-сети-Copy" transform="translate(14.000000, 62.000000)">
                        <path d="M11,6 C12.6568542,6 14,4.65685425 14,3 C14,1.34314575 12.6568542,0 11,0 C9.34314575,0 8,1.34314575 8,3 C8,4.65685425 9.34314575,6 11,6 L11,6 Z" id="Oval-2" fill="#5D5D5D"></path>
                        <circle id="Oval-2-Copy" fill="#5D5D5D" cx="3" cy="9" r="3"></circle>
                        <circle id="Oval-2-Copy-2" fill="#5D5D5D" cx="11" cy="15" r="3"></circle>
                        <path d="M11,3 L3,9 L11,15" id="Line" stroke="#5D5D5D" stroke-width="2"></path>
                    </g>
                    <g id="Просмотры" transform="translate(115.000000, 23.000000)">
                        <path d="M0,6.00372553 C0,6.00372553 2.09243393,-5.468461e-16 8.04621696,0 C14,5.46846112e-16 16,6.00372553 16,6.00372553 C16,6.00372553 14,12 8.04621696,12 C2.09243393,12 0,6.00372553 0,6.00372553 L0,6.00372553 Z" id="Path-1" stroke="#9EA5A9" stroke-width="1.5"></path>
                        <circle id="Oval-1" fill="#9EA5A9" cx="8" cy="6" r="2"></circle>
                    </g>
                    <path d="M118,45 L128,45 L128,47 L118,47 L118,45 L118,45 Z M118,49 L128,49 L128,51 L118,51 L118,49 L118,49 Z M118,53 L124,53 L124,55 L118,55 L118,53 L118,53 Z" id="Комментарии" stroke="#9BA2A6" fill="#D8D8D8"></path>
                    <path d="M91,35 C95.9705627,35 100,30.9705627 100,26 C100,21.0294373 95.9705627,17 91,17 C86.0294373,17 82,21.0294373 82,26 C82,30.9705627 86.0294373,35 91,35 L91,35 Z M83.5445165,24.9720713 C83.5445165,24.9720713 82.9561611,25.1717951 83.0026126,25.5404593 C83.0490642,25.9090774 83.5290481,26.0780178 83.5290481,26.0780178 L86.6567709,27.1226278 L94.1664549,22.3914219 C94.1664549,22.3914219 94.5999873,22.1303155 94.584519,22.3914219 C94.584519,22.3914219 94.6619537,22.4375049 94.4296959,22.6525744 C94.1974381,22.8676439 88.530348,27.9213388 88.530348,27.9213388 L88.1220853,31.3761371 C88.2949315,31.4506534 88.4529133,31.3317592 88.4529133,31.3317592 L90.4740206,29.5036456 L93.6245046,31.8998707 C94.476101,32.2685349 94.7857936,31.5005152 94.7857936,31.5005152 C94.7857936,31.5005152 96.954736,20.856792 97,20.4252435 C97.045264,19.9936951 95.9780657,20.1333537 95.9780657,20.1333537 L83.5445165,24.9720713 L83.5445165,24.9720713 Z" id="Oval-13-Copy" fill="#35ACE1"></path>
                    <path d="M69,35 C73.9705627,35 78,30.9705627 78,26 C78,21.0294373 73.9705627,17 69,17 C64.0294373,17 60,21.0294373 60,26 C60,30.9705627 64.0294373,35 69,35 L69,35 Z M75.5,22.1837305 C75.0473031,22.3845463 74.5607062,22.5202692 74.0501147,22.58124 C74.5712269,22.2688188 74.9715665,21.7741007 75.1600774,21.1845734 C74.67225,21.4739229 74.1320038,21.6839673 73.5569347,21.7971723 C73.0964857,21.3065148 72.440389,21 71.7142774,21 C70.3201333,21 69.1897445,22.1302657 69.1897445,23.5244098 C69.1897445,23.7222725 69.2120779,23.9149671 69.255145,24.099725 C67.1570381,23.9944567 65.2968463,22.9893932 64.0517759,21.4620486 C63.8345331,21.8348868 63.709946,22.2685727 63.709946,22.7312366 C63.709946,23.6070987 64.1555677,24.3797843 64.8330134,24.8324812 C64.4191999,24.8193765 64.0298732,24.7058024 63.6895814,24.5167377 C63.6893354,24.5272584 63.6893354,24.5377791 63.6893354,24.5484843 C63.6893354,25.7715905 64.5595372,26.791912 65.7144127,27.0238592 C65.502584,27.0815691 65.2795579,27.1125159 65.0493949,27.1125159 C64.8866627,27.1125159 64.7284834,27.0965811 64.5743646,27.0671109 C64.8955838,28.070021 65.8278638,28.7999471 66.9325969,28.8202502 C66.068609,29.4974498 64.9801799,29.9009272 63.7973108,29.9009272 C63.5936033,29.9009272 63.3926029,29.889053 63.1951094,29.8657352 C64.312332,30.5819413 65.6392914,31 67.0648745,31 C71.708371,31 74.2476698,27.1531836 74.2476698,23.8171432 C74.2476698,23.7076912 74.2451473,23.5988544 74.2402868,23.4905714 C74.7335899,23.1345909 75.161554,22.6900152 75.5,22.1837305 L75.5,22.1837305 Z" id="Oval-13-Copy-2" fill="#40AAEB"></path>
                    <path d="M46.9823495,34.9470048 C51.4907948,34.4575987 55,30.6386088 55,26 C55,21.0294373 50.9705627,17 46,17 C41.0294373,17 37,21.0294373 37,26 C37,30.2981686 40.0130072,33.8926116 44.0421286,34.7864362 L44.0421286,29.4923829 L42,29.4923829 L42,26.7891272 L44.0421286,26.7891272 L44.0421286,24.480303 C44.0421286,22.6661227 45.2484385,21 48.0280982,21 C49.1535273,21 49.9858946,21.1048803 49.9858946,21.1048803 L49.9201696,23.629008 C49.9201696,23.629008 49.071446,23.621131 48.1452929,23.621131 C47.1429107,23.621131 46.9823495,24.0701177 46.9823495,24.8153655 C46.9823495,25.4045329 46.9823495,23.5595741 46.9823495,26.7891272 L50,26.7891272 L49.8686999,29.4923829 L46.9823495,29.4923829 L46.9823495,34.9470048 L46.9823495,34.9470048 Z" id="Oval-13-Copy-3" fill="#455899"></path>
                    <path d="M23,35 C27.9705627,35 32,30.9705627 32,26 C32,21.0294373 27.9705627,17 23,17 C18.0294373,17 14,21.0294373 14,26 C14,30.9705627 18.0294373,35 23,35 L23,35 Z M24.9595445,25.3587203 C25.3878973,25.1827399 25.724687,24.9096498 25.9673069,24.5377917 C26.2125899,24.1667627 26.3352031,23.7437244 26.3352031,23.2677925 C26.3352031,22.8560294 26.245453,22.4936225 26.0686158,22.1780848 C25.8926851,21.8660291 25.6243413,21.6129468 25.2661341,21.4248069 C24.936427,21.2505399 24.5809394,21.1361306 24.2023911,21.0823526 C23.8237861,21.0268613 23.2674939,21 22.533458,21 L19,21 L19,30.7559681 L23.002663,30.7559681 C23.6976033,30.7559681 24.2681172,30.6952814 24.717831,30.5721394 C25.1701513,30.4490526 25.5834325,30.2453266 25.9584112,29.9575345 C26.2774661,29.715672 26.5289818,29.4140071 26.7173778,29.0473445 C26.9058304,28.6797422 27,28.2532219 27,27.7677835 C27,27.1054805 26.8133605,26.5784236 26.4418947,26.186613 C26.0712788,25.7947471 25.5762933,25.5381275 24.9595445,25.4098453 L24.9595445,25.3587203 L24.9595445,25.3587203 Z M24.2557085,28.3538137 C24.1490736,28.5393006 23.984645,28.6797422 23.7553969,28.776852 C23.4967987,28.8861212 23.2390504,28.944155 22.9901977,28.9528324 C22.7395887,28.9623941 22.288175,28.9667052 21.6340869,28.9667052 L21.4990084,28.9667052 L21.4990084,26.5238166 L21.9628874,26.5238166 C22.408975,26.5238166 22.7671823,26.5264143 23.032863,26.5333231 C23.2994504,26.5394581 23.5092073,26.5706305 23.6611706,26.6295486 C23.9108731,26.7162675 24.0992691,26.8436654 24.2255085,27.016219 C24.3516913,27.1861197 24.4129979,27.4210734 24.4129979,27.7227383 C24.4129979,27.9576368 24.360587,28.1682716 24.2557085,28.3538137 L24.2557085,28.3538137 Z M21.4990084,22.7883786 L21.6731826,22.7883786 C22.1210833,22.7883786 22.457873,22.7918606 22.6845147,22.7979404 C22.9120064,22.8048491 23.1066349,22.8421565 23.2710069,22.9149474 C23.4488073,22.9877936 23.5767466,23.109167 23.6585076,23.2738723 C23.742025,23.4402909 23.7828772,23.6015141 23.7828772,23.7593106 C23.7828772,23.9725431 23.7438382,24.1598539 23.6674032,24.3236749 C23.5927248,24.4840138 23.4523202,24.612296 23.2532721,24.7042656 C23.0702023,24.7856787 22.8906454,24.8308344 22.7191909,24.8394566 C22.5467732,24.8490183 22.2436965,24.8533294 21.8153437,24.8533294 L21.4990084,24.8533294 L21.4990084,22.7883786 L21.4990084,22.7883786 Z" id="Oval-13-Copy-4" fill="#445798"></path>
                    <path d="M91,57 C95.9705627,57 100,52.9705627 100,48 C100,43.0294373 95.9705627,39 91,39 C86.0294373,39 82,43.0294373 82,48 C82,52.9705627 86.0294373,57 91,57 L91,57 Z M83.5445165,46.9720713 C83.5445165,46.9720713 82.9561611,47.1717951 83.0026126,47.5404593 C83.0490642,47.9090774 83.5290481,48.0780178 83.5290481,48.0780178 L86.6567709,49.1226278 L94.1664549,44.3914219 C94.1664549,44.3914219 94.5999873,44.1303155 94.584519,44.3914219 C94.584519,44.3914219 94.6619537,44.4375049 94.4296959,44.6525744 C94.1974381,44.8676439 88.530348,49.9213388 88.530348,49.9213388 L88.1220853,53.3761371 C88.2949315,53.4506534 88.4529133,53.3317592 88.4529133,53.3317592 L90.4740206,51.5036456 L93.6245046,53.8998707 C94.476101,54.2685349 94.7857936,53.5005152 94.7857936,53.5005152 C94.7857936,53.5005152 96.954736,42.856792 97,42.4252435 C97.045264,41.9936951 95.9780657,42.1333536 95.9780657,42.1333536 L83.5445165,46.9720713 L83.5445165,46.9720713 Z" id="Oval-13-Copy-8" fill="#82929E"></path>
                    <path d="M69,57 C73.9705627,57 78,52.9705627 78,48 C78,43.0294373 73.9705627,39 69,39 C64.0294373,39 60,43.0294373 60,48 C60,52.9705627 64.0294373,57 69,57 L69,57 Z M75.5,44.1837305 C75.0473031,44.3845463 74.5607062,44.5202692 74.0501147,44.58124 C74.5712269,44.2688188 74.9715665,43.7741007 75.1600774,43.1845734 C74.67225,43.4739229 74.1320038,43.6839673 73.5569347,43.7971723 C73.0964857,43.3065148 72.440389,43 71.7142774,43 C70.3201333,43 69.1897445,44.1302657 69.1897445,45.5244098 C69.1897445,45.7222725 69.2120779,45.9149671 69.255145,46.099725 C67.1570381,45.9944566 65.2968463,44.9893932 64.0517759,43.4620486 C63.8345331,43.8348868 63.709946,44.2685727 63.709946,44.7312366 C63.709946,45.6070987 64.1555677,46.3797843 64.8330134,46.8324812 C64.4191999,46.8193765 64.0298732,46.7058024 63.6895814,46.5167377 C63.6893354,46.5272584 63.6893354,46.5377791 63.6893354,46.5484843 C63.6893354,47.7715905 64.5595372,48.791912 65.7144127,49.0238592 C65.502584,49.0815691 65.2795579,49.1125159 65.0493949,49.1125159 C64.8866627,49.1125159 64.7284834,49.0965811 64.5743646,49.0671109 C64.8955838,50.070021 65.8278638,50.7999471 66.9325969,50.8202502 C66.068609,51.4974498 64.9801799,51.9009272 63.7973108,51.9009272 C63.5936033,51.9009272 63.3926029,51.889053 63.1951094,51.8657352 C64.312332,52.5819413 65.6392914,53 67.0648745,53 C71.708371,53 74.2476698,49.1531836 74.2476698,45.8171432 C74.2476698,45.7076912 74.2451473,45.5988544 74.2402868,45.4905714 C74.7335899,45.1345909 75.161554,44.6900152 75.5,44.1837305 L75.5,44.1837305 Z" id="Oval-13-Copy-7" fill="#82929E"></path>
                    <path d="M46.9823495,56.9470048 C51.4907948,56.4575987 55,52.6386088 55,48 C55,43.0294373 50.9705627,39 46,39 C41.0294373,39 37,43.0294373 37,48 C37,52.2981686 40.0130072,55.8926116 44.0421286,56.7864362 L44.0421286,51.4923829 L42,51.4923829 L42,48.7891272 L44.0421286,48.7891272 L44.0421286,46.480303 C44.0421286,44.6661227 45.2484385,43 48.0280982,43 C49.1535273,43 49.9858946,43.1048803 49.9858946,43.1048803 L49.9201696,45.629008 C49.9201696,45.629008 49.071446,45.621131 48.1452929,45.621131 C47.1429107,45.621131 46.9823495,46.0701177 46.9823495,46.8153655 C46.9823495,47.4045329 46.9823495,45.5595741 46.9823495,48.7891272 L50,48.7891272 L49.8686999,51.4923829 L46.9823495,51.4923829 L46.9823495,56.9470048 L46.9823495,56.9470048 Z" id="Oval-13-Copy-6" fill="#82929E"></path>
                    <path d="M23,57 C27.9705627,57 32,52.9705627 32,48 C32,43.0294373 27.9705627,39 23,39 C18.0294373,39 14,43.0294373 14,48 C14,52.9705627 18.0294373,57 23,57 L23,57 Z M24.9595445,47.3587203 C25.3878973,47.1827399 25.724687,46.9096498 25.9673069,46.5377917 C26.2125899,46.1667627 26.3352031,45.7437244 26.3352031,45.2677925 C26.3352031,44.8560294 26.245453,44.4936225 26.0686158,44.1780848 C25.8926851,43.8660291 25.6243413,43.6129468 25.2661341,43.4248069 C24.936427,43.2505399 24.5809394,43.1361306 24.2023911,43.0823526 C23.8237861,43.0268613 23.2674939,43 22.533458,43 L19,43 L19,52.7559681 L23.002663,52.7559681 C23.6976033,52.7559681 24.2681172,52.6952814 24.717831,52.5721394 C25.1701513,52.4490526 25.5834325,52.2453266 25.9584112,51.9575345 C26.2774661,51.715672 26.5289818,51.4140071 26.7173778,51.0473445 C26.9058304,50.6797422 27,50.2532219 27,49.7677835 C27,49.1054805 26.8133605,48.5784236 26.4418947,48.186613 C26.0712788,47.7947471 25.5762933,47.5381275 24.9595445,47.4098453 L24.9595445,47.3587203 L24.9595445,47.3587203 Z M24.2557085,50.3538137 C24.1490736,50.5393006 23.984645,50.6797422 23.7553969,50.776852 C23.4967987,50.8861212 23.2390504,50.944155 22.9901977,50.9528324 C22.7395887,50.9623941 22.288175,50.9667052 21.6340869,50.9667052 L21.4990084,50.9667052 L21.4990084,48.5238166 L21.9628874,48.5238166 C22.408975,48.5238166 22.7671823,48.5264143 23.032863,48.5333231 C23.2994504,48.5394581 23.5092073,48.5706305 23.6611706,48.6295486 C23.9108731,48.7162675 24.0992691,48.8436654 24.2255085,49.016219 C24.3516913,49.1861197 24.4129979,49.4210734 24.4129979,49.7227383 C24.4129979,49.9576368 24.360587,50.1682716 24.2557085,50.3538137 L24.2557085,50.3538137 Z M21.4990084,44.7883786 L21.6731826,44.7883786 C22.1210833,44.7883786 22.457873,44.7918606 22.6845147,44.7979404 C22.9120064,44.8048491 23.1066349,44.8421565 23.2710069,44.9149474 C23.4488073,44.9877936 23.5767466,45.109167 23.6585076,45.2738722 C23.742025,45.4402909 23.7828772,45.6015141 23.7828772,45.7593106 C23.7828772,45.9725431 23.7438382,46.1598539 23.6674032,46.3236749 C23.5927248,46.4840138 23.4523202,46.612296 23.2532721,46.7042656 C23.0702023,46.7856787 22.8906454,46.8308344 22.7191909,46.8394566 C22.5467732,46.8490183 22.2436965,46.8533294 21.8153437,46.8533294 L21.4990084,46.8533294 L21.4990084,44.7883786 L21.4990084,44.7883786 Z" id="Oval-13-Copy-5" fill="#82929E"></path>
                </g>
            </g>
        </g>
    </g>
</svg>