<?xml version="1.0" encoding="UTF-8"?>
<svg width="700pt" height="700pt" version="1.1" viewBox="0 0 700 700" xmlns="http://www.w3.org/2000/svg" xmlns:xlink="http://www.w3.org/1999/xlink">

 <g>
  <path d="m578.41 231.51h-151.15c-0.67188 0.039063-1.3711 0.078126-2.0234 0.11719-8.8945 0.066406-14.844-8.1328-12.82-17.926 2.2227-21.172 11.879-88.766 11.879-101.39 0-14.203-2.2344-28.527-4.75-42.578-2.4453-13.703-7.6758-26.629-17.414-37.023-10.5-11.219-23.438-15.16-38.176-10.344-14.508 4.7422-24.102 14.352-24.871 30.328-1.0547 21.801-1.4375 43.629-2.3125 65.441-0.11719 2.9102-0.85156 6.0977-2.2695 8.6055-21.816 38.602-44.062 76.957-65.531 115.75-5.0586 9.1445-10.711 11.57-21.617 14.113-10.242 1.1797-29.551 2.7891-40.098 3.8242v222.63c12.824 0 28.66 8.3828 32.969 10.902 25.027 14.633 50.16 29.086 75.332 43.461 2.2383 1.2812 5.0625 2.1914 7.6172 2.1992 61.633 0.11719 114.04-0.003906 175.67-0.003906 8.9531 0 38.242-3.8125 45.762-35.223 7.5664-31.641-23.156-41.395-23.156-41.395s38.047 4.5352 44.324-30.414c5.8906-32.781-23.004-42.598-24.305-43.125 11.754-1.9492 38.473-7.582 44.109-31.914 5.7461-24.82-11.867-40.723-21.387-47.074 14.379-0.30859 42.074-9.0117 44.609-36.934 2.9453-32.496-19.617-42.02-30.395-42.02zm-487.49 269.04h98v-257.6h-98z"/>
  <use x="70" y="644" xlink:href="#t"/>
  <use x="90.550781" y="644" xlink:href="#c"/>
  <use x="104.359375" y="644" xlink:href="#a"/>
  <use x="123.347656" y="644" xlink:href="#k"/>
  <use x="142.242188" y="644" xlink:href="#b"/>
  <use x="155.628906" y="644" xlink:href="#a"/>
  <use x="174.617188" y="644" xlink:href="#j"/>
  <use x="204.410156" y="644" xlink:href="#i"/>
  <use x="224.453125" y="644" xlink:href="#h"/>
  <use x="252.453125" y="644" xlink:href="#g"/>
  <use x="280.3125" y="644" xlink:href="#e"/>
  <use x="300.25" y="644" xlink:href="#s"/>
  <use x="316.914062" y="644" xlink:href="#f"/>
  <use x="336.847656" y="644" xlink:href="#e"/>
  <use x="70" y="672" xlink:href="#r"/>
  <use x="82.183594" y="672" xlink:href="#c"/>
  <use x="95.992188" y="672" xlink:href="#d"/>
  <use x="115.226562" y="672" xlink:href="#q"/>
  <use x="154.152344" y="672" xlink:href="#b"/>
  <use x="167.535156" y="672" xlink:href="#f"/>
  <use x="187.46875" y="672" xlink:href="#a"/>
  <use x="216.207031" y="672" xlink:href="#p"/>
  <use x="239.640625" y="672" xlink:href="#d"/>
  <use x="258.878906" y="672" xlink:href="#e"/>
  <use x="278.8125" y="672" xlink:href="#o"/>
  <use x="308.492188" y="672" xlink:href="#n"/>
  <use x="329.015625" y="672" xlink:href="#c"/>
  <use x="342.820312" y="672" xlink:href="#d"/>
  <use x="362.058594" y="672" xlink:href="#m"/>
  <use x="371.65625" y="672" xlink:href="#a"/>
  <use x="390.648438" y="672" xlink:href="#l"/>
  <use x="407.242188" y="672" xlink:href="#b"/>
 </g>
</svg>
