<svg width="330" height="132" fill="none" xmlns="http://www.w3.org/2000/svg"><mask id="a" style="mask-type:alpha" maskUnits="userSpaceOnUse" x="0" y="0" width="330" height="132"><path fill="#11B687" d="M0 0h330v132H0z"/></mask><g mask="url(#a)"><mask id="b" fill="#fff"><path d="M-111.412 6.318c30.637-.293 30.637.936 30.637 3.103 0 2.283.118 5.327 22.847 7.61 22.904 1.933 46.922-.41 70.882-3.395C42.83 8.894 72.764 3.332 103.987 2.57c31.224-.761 31.106 7.025 31.106 15.924 0 7.728.118 15.866 22.437 18.56 21.792 3.16 45.282-4.04 68.187-11.359 27.826-9.133 55.593-19.378 79.728-12.997 20.796 9.66 15.406 29.449 9.255 50.935-5.565 18.617-10.896 37.586-2.577 54.213 7.205 17.798 19.448 16.452 31.106 15.222 13.708-1.522 25.834-2.868 26.771 26.697 0 30.444-8.787 60.419-16.461 89.985-5.799 24.062-10.779 47.949-9.08 71.25 2.226 22.833 7.615 23.009 12.536 23.243 5.214.176 9.549.176 8.787 31.381-.41 30.853-2.284 60.595-3.28 90.043-.176 23.887.293 47.715 2.812 70.138.117 6.616.117 13.114.175 19.437-4.627-30.561-5.389-60.185-5.389-89.692.703-23.77 2.109-47.715 1.347-70.314-.293-23.125-4.042-23.242-8.259-23.418-6.151 0-13.122-.41-17.223-31.322-3.749-31.322 2.226-61.18 8.963-90.863 6.268-24.004 13.122-47.949 12.067-70.196-1.64-21.897-11.247-21.311-21.85-20.491-14.469 1.522-29.759 3.102-39.659-22.131-13.005-22.13-6.561-45.666-.879-67.62 3.867-16.276 8.202-32.435-8.201-39.519-17.34-6.088-39.6 1.757-62.153 9.25-27.943 8.256-56.648 16.57-86.172 11.066-30.403-4.801-30.403-15.398-30.403-24.824-.117-7.025-.176-13.465-23.198-13.758-23.14-.41-47.098 3.864-71 7.318-29.875 3.689-59.692 6.44-90.74 2.4-30.813-4.332-30.93-8.254-30.637-11.299-.176-1.756-.293-2.868-22.905-3.57 6.326 0 13.005.116 19.566 0l-.176.058zm-476.667 403.439c4.452 30.502 5.213 60.185 5.272 89.751-.879 23.769-2.05 47.597-1.465 70.43.411 22.95 4.042 23.009 8.26 23.301 6.093 0 13.181.176 17.164 31.322 3.867 31.205-2.226 61.064-8.845 90.746-6.093 23.77-13.005 47.891-11.951 70.138 1.523 21.955 11.189 21.37 21.792 20.608 14.352-1.463 29.759-3.161 39.659 22.072 12.829 22.365 6.327 45.842.586 67.913-3.925 16.393-8.202 32.435 8.084 39.577 17.34 5.972 39.776-1.932 62.212-9.25 27.826-8.372 56.471-16.568 86.23-11.299 30.52 4.742 30.403 15.397 30.345 24.94.117 7.026.117 13.407 23.139 13.759 23.022.409 47.215-3.864 71.175-7.494 29.876-3.572 59.634-6.265 90.74-2.401 30.814 4.45 30.696 8.489 30.814 11.183 0 1.932-.118 2.985 22.553 3.747-6.327 0-12.829-.118-19.039-.118-30.813.293-31.106-.878-31.047-3.102.117-2.401 0-5.211-22.729-7.494-23.022-2.049-46.923.292-71.058 3.395-29.759 4.743-59.342 10.187-90.624 11.007-31.106.761-31.516-6.967-31.399-15.69 0-7.728 0-15.983-22.26-18.794-21.85-2.985-45.283 4.04-68.363 11.534-27.826 9.133-55.183 19.086-79.435 12.821-20.737-9.718-15.406-29.507-9.314-50.876 5.682-18.676 10.954-37.586 2.695-54.33-7.206-17.798-19.449-16.569-30.931-15.339-13.766 1.639-25.834 2.693-26.654-26.873 0-30.444 8.787-60.185 16.403-89.692 5.682-24.062 10.778-48.066 8.845-71.192-2.05-23.008-7.498-23.125-12.302-23.242-5.213-.293-9.548-.586-8.787-31.557.41-30.912 2.285-60.419 3.281-89.692.117-24.062-.41-47.773-2.695-70.431-.117-6.44-.176-12.88-.176-19.437l-.175.059zm-1.055-59.541c8.377 30.561 11.248 60.302 13.357 90.043.585 23.887.761 47.598 4.159 70.431 3.28 22.833 8.552 23.008 14.235 23.301 7.791-.176 16.637-.176 24.486 31.029 7.791 31.147 3.867 60.946-.996 90.746-4.627 23.77-10.017 47.891-6.15 70.255 4.217 21.955 15.289 21.487 27.239 20.901 15.993-1.463 32.922-2.81 45.869 23.243 15.523 23.594 10.134 47.89 5.272 70.899-3.456 17.271-6.913 34.015 10.134 43.148 18.043 8.197 40.421 1.757 63.267-4.332 28.118-6.733 56.823-13.114 86.874-4.157 30.403 8.548 30.228 20.901 30.228 32.259 0 8.489 0 16.393 23.022 19.554 23.022 3.279 46.981.586 71.057-1.522 29.876-1.639 59.811-2.283 90.8 5.562 30.93 8.196 30.637 13.875 30.52 18.383-.117 3.279-.117 5.855 22.612 9.426-6.62-.117-13.122-.176-19.449-.176-30.754-3.571-30.813-6.44-30.813-10.421.176-3.922.176-8.196-22.553-13.29-23.022-4.8-46.981-4.157-71.058-2.576-29.642 2.693-59.4 6.265-90.624 3.279-31.106-3.162-31.281-12.646-31.281-23.126.117-9.25.175-18.969-22.144-24.589-21.967-5.796-45.575-.117-68.656 5.855-28.118 7.728-55.768 15.924-80.782 6.615-21.967-12.353-17.457-33.02-12.243-55.501 4.745-19.145 9.256-38.699-1.054-56.38-9.315-18.383-22.73-17.446-35.734-16.276-15.29 1.464-28.998 2.225-33.391-27.458-3.866-30.443 2.987-60.185 8.787-89.75 4.159-23.887 7.615-47.949 2.812-71.016-4.687-23.126-11.658-23.009-18.102-23.126-6.912-.176-13.122-.41-16.168-31.498-3.456-30.795-3.397-60.419-4.335-89.809-1.347-23.887-3.573-47.89-8.669-70.431-.176-6.381-.293-13.172-.469-19.671l-.059.176zm-1.347-60.185c12.126 30.736 16.93 60.595 20.796 90.277 2.285 24.004 4.218 47.949 10.486 70.782 6.151 22.833 12.712 22.833 19.858 22.833 9.842 0 20.445 0 32.278 31.146 11.716 31.205 9.724 60.947 6.62 90.805-3.105 23.887-6.854 48.066-.176 70.489 7.03 22.072 19.449 21.604 32.629 21.077 17.691-1.171 36.203-2.225 52.312 24.647 18.102 24.824 13.942 49.823 9.9 73.768-2.694 18.091-5.682 35.83 12.244 47.012 18.687 10.422 41.416 5.211 64.321.469 28.528-4.977 57.408-9.719 87.636 2.986 30.52 12.528 30.52 26.697 30.227 39.869-.117 10.012-.117 19.145 22.846 25.351 22.905 6.147 47.216 5.093 71.292 4.625 29.935.293 59.987 1.522 91.034 13.29 30.813 12.119 30.755 19.554 30.52 25.936-.117 4.742-.293 8.547 22.26 15.046-6.443-.176-13.004-.293-19.448-.469-30.813-7.318-30.813-11.943-30.52-17.622.176-5.093.293-10.889-22.553-18.793-22.905-7.787-46.923-8.665-71.175-8.782-29.935.644-59.635 2.225-90.8-4.742-30.93-7.026-31.223-18.325-30.989-30.62.118-10.479.176-21.779-22.26-30.151-22.143-8.489-45.751-4.332-69.066.293-28.412 5.796-56.237 12.412-82.13.176-23.197-14.93-19.565-36.709-15.23-60.01 3.866-19.964 7.439-40.045-4.921-58.546-11.482-19.144-26.303-18.324-40.421-17.329-16.929 1.171-32.394 2.049-40.537-27.809-7.615-30.561-2.695-60.478 1.23-90.044 2.519-24.062 4.452-48.183-3.28-71.192-7.733-23.008-16.169-22.95-23.901-22.95-8.846-.117-16.637-.117-23.667-31.029-7.322-30.795-9.255-60.712-12.243-90.278-2.987-24.179-6.737-48.183-14.645-70.781-.176-6.558-.293-12.998-.468-19.73h-.059zm-1.64-60.185c16.109 30.619 22.612 60.477 28.587 90.57 3.866 24.004 7.147 47.949 16.285 70.782 9.021 22.833 17.223 22.833 25.893 23.008 11.481-.41 24.076-.292 39.893 30.912 15.582 31.088 15.406 60.888 14.352 91.039-1.465 23.77-3.749 47.891 5.682 70.431 9.724 22.247 23.667 21.954 38.312 21.603 19.331-1.171 39.483-1.932 58.58 25.936 20.796 26.111 17.808 51.813 14.821 76.871-2.109 18.969-4.628 37.645 14.235 50.876 19.448 12.529 42.353 8.665 65.609 5.328 28.705-3.455 57.702-6.44 88.105 10.128 30.637 16.159 30.638 32.376 30.638 47.422-.293 11.475-.293 22.248 22.611 31.322 22.905 9.075 47.099 9.543 71.351 10.597 29.935 2.225 59.81 5.269 90.8 21.077 30.93 15.983 30.93 25.35 30.813 33.546-.293 6.148-.469 11.475 22.26 20.784-6.62-.176-13.18-.293-19.741-.468-30.696-11.358-30.638-17.798-30.404-25.175.118-6.733.293-13.758-22.436-24.765-22.905-10.714-47.215-13.114-71.35-14.753-29.76-1.23-59.694-1.523-90.917-12.412-30.989-10.948-30.93-24.179-30.989-38.231.176-12.236.41-24.94-22.143-35.947-22.378-11.358-46.161-8.782-69.652-5.503-28.529 4.157-56.823 9.25-83.594-6.147-24.428-17.505-21.265-40.573-18.101-64.752 2.87-20.491 5.682-41.216-8.67-60.595-13.766-19.847-29.876-19.379-45.4-18.559-18.453.937-35.617 1.522-47.567-28.395-11.482-30.619-8.377-60.595-6.444-90.277.938-24.004 1.523-48.066-9.138-71.075-10.72-22.95-20.62-23.008-29.935-23.008-10.603 0-20.327 0-31.223-31.03-11.247-30.912-15.114-60.712-20.034-90.453-4.453-24.062-9.725-47.949-20.621-70.606-.175-6.557-.293-13.407-.468-19.964v-.117zm-.762-59.424c19.917 30.619 28.236 60.419 35.617 90.043 5.272 23.887 10.017 47.89 22.026 70.782 11.95 22.833 21.675 22.833 31.985 23.008 13.59 0 28.118.176 47.86 31.205 19.566 31.147 21.089 60.888 21.733 90.629-.117 23.887-.879 47.949 11.365 70.782 12.536 22.365 27.825 21.955 43.935 21.779 21.089-.644 42.881-1.346 65.024 27.341 23.491 27.341 21.382 53.862 19.331 79.739-1.523 19.965-3.046 39.519 16.637 54.741 20.21 14.636 43.174 12.119 66.372 10.011 28.997-1.815 58.111-3.103 88.631 17.154 30.814 19.964 30.93 37.879 30.755 54.975.117 13.114.176 25.526 23.198 37.469 22.905 11.943 46.805 13.875 70.823 16.393 29.935 3.864 59.635 8.782 90.624 28.394 30.93 19.847 30.989 31.205 30.989 41.451.175 7.786.175 14.929 23.139 26.989-6.737-.117-13.298-.175-19.742-.409-30.813-15.105-30.813-23.477-30.93-33.02.117-8.197-.117-17.037-22.905-30.795-23.022-13.466-46.688-17.33-70.999-20.433-29.642-2.927-59.518-5.093-90.624-20.022-30.989-14.812-31.106-29.976-31.223-46.134.176-13.7 0-27.927-22.553-41.802-22.436-14.168-46.161-12.588-69.828-10.89-28.704 2.518-57.116 5.972-84.765-12.411-25.834-20.257-23.491-44.437-21.265-69.553 2.109-21.018 3.866-42.563-12.536-62.702-15.875-20.609-33.215-20.023-50.203-19.672-20.211.586-39.132 1.23-54.714-28.98-15.29-30.737-14.177-60.888-13.884-90.336-.468-23.887-1.523-47.949-15.055-71.075-13.591-22.95-25.131-22.833-36.027-23.008-12.712-.293-24.252-.176-39.19-31.088-15.114-30.912-20.913-61.063-27.357-90.336-5.975-24.004-12.419-48.066-26.068-70.724-.117-6.44-.176-12.88-.293-19.437l.117-.058zm2.285-56.439c23.49 30.561 32.57 59.073 41.24 88.112 6.268 23.418 12.126 47.129 26.947 69.962 14.762 22.833 26.42 23.126 38.605 23.594 15.699.293 32.863 1.171 56.237 31.966 23.314 30.795 26.009 60.009 28.294 89.399 1.054 23.712 1.757 47.598 16.695 70.431 15.231 22.423 32.043 22.365 49.676 22.248 22.612-.293 46.337-.586 71.292 28.804 25.893 28.336 24.78 55.677 23.667 82.257-.879 20.784-1.816 41.216 18.687 58.487 20.913 16.861 43.935 15.398 67.308 14.52 28.822-.293 57.76-.293 88.34 23.418 30.637 23.711 30.988 43.909 31.105 63.112.293 14.754.762 28.922 23.608 43.734 22.905 14.812 46.454 17.915 70.238 21.486 29.173 5.504 58.053 11.358 88.866 34.659 30.755 23.419 31.692 37.587 32.278 50.174.586 9.719 1.171 18.793 23.959 33.606-6.619.117-13.298 0-19.624-.118-30.989-18.968-30.989-29.448-31.282-41.099-.586-10.187-.996-20.784-23.608-37.352-22.905-16.276-46.63-21.311-70.12-25.409-29.583-4.508-59.342-8.489-90.448-27.282-30.93-18.852-30.99-35.83-30.99-54.038-.41-15.398-.41-31.322-22.904-47.949-22.612-16.569-46.337-16.569-69.535-16.1-29.29 1.171-57.994 2.986-86.406-18.501-27.064-22.832-25.423-48.066-23.959-74.002 1.23-21.837 2.109-43.616-16.109-64.634-17.985-21.311-36.789-21.194-55.007-20.784-22.026.176-42.881.468-62.095-29.975-19.097-30.854-19.683-60.712-20.972-89.81-1.757-23.769-3.925-47.422-20.21-70.313-16.344-22.833-29.759-23.243-42.354-23.594-14.996-.703-28.704-.761-47.508-31.673-18.863-31.03-26.303-60.654-33.977-89.575-7.029-23.594-14.528-46.896-30.989-69.436.176-6.147.469-12.529 1.172-18.325h-.117zm9.607-48.944c26.654 29.858 34.972 55.677 43.232 82.667 6.854 22.423 13.181 45.021 30.638 67.737 17.515 22.423 31.399 23.594 45.458 24.765 19.097 1.522 39.307 3.689 65.961 33.84 26.478 30.151 29.642 57.726 32.454 86.003 2.226 23.009 3.749 46.252 21.264 68.967 17.809 22.365 36.32 22.658 55.476 22.833 24.545.176 49.969.469 77.267 29.976 27.826 28.98 27.474 56.555 27.181 83.896-.41 21.486-.879 42.738 20.21 61.941 21.499 18.676 44.58 18.384 67.778 18.501 28.294.585 56.647 1.346 86.581 28.219 30.052 26.697 31.106 49.588 32.16 71.25.47 16.686 1.172 32.727 23.784 50.35 22.73 17.446 45.751 21.31 68.656 25.701 27.357 5.562 54.304 11.3 84.356 37.762 30.169 26.697 32.863 44.612 35.441 60.654 1.171 12.119 2.519 23.535 25.131 41.04-5.565.761-11.482 1.464-17.633 1.64-30.813-22.658-31.985-36.006-33.625-50.642-1.172-12.529-2.519-25.702-24.955-44.671-22.436-18.969-44.99-24.179-67.719-29.097-28.528-5.211-57.233-10.304-88.222-32.844C-.813 782.869-1.516 763.608-2.16 742.941c-.469-17.154-.937-34.952-23.198-54.038-22.378-19.086-45.575-19.964-68.89-20.315-28.704-.117-57.409.468-86.465-24.004-28.235-25.35-27.474-51.403-26.771-78.393.586-22.247.879-44.495-19.155-65.864-19.742-21.662-39.952-21.779-59.518-21.837-23.901 0-46.513-.117-69.359-30.62-22.846-30.736-24.662-59.892-27.181-88.638-2.578-23.009-5.507-45.783-24.369-68.323-18.98-22.423-34.563-23.594-49.208-24.589-17.632-1.171-33.976-2.108-56.53-32.962-22.612-30.912-30.754-59.248-39.014-87.116-7.498-22.54-14.938-44.319-33.918-66.566 1.523-4.801 2.988-9.66 4.628-14.637h.117zm22.612-36.123c28.997 28.512 34.972 50.467 41.709 73.709 4.921 19.145 10.896 39.87 30.755 62.059 19.858 22.072 36.202 24.062 53.835 27.165 22.553 3.279 46.395 7.026 75.393 35.655 28.88 28.629 31.516 53.862 34.269 79.739 1.757 21.369 3.632 43.851 23.608 65.981 19.917 22.072 40.244 22.365 61.158 23.243 26.302.761 53.366 1.229 82.246 30.034 28.88 28.687 28.88 56.145 28.88 83.896 0 22.13 0 44.144 21.499 64.635 21.558 20.432 44.228 20.842 66.547 21.076 27.357.995 54.011 2.049 82.657 31.029 28.587 28.981 30.696 54.507 32.57 78.979 1.817 19.378 3.105 37.645 25.249 57.492 22.143 19.847 43.525 23.886 63.852 27.165 24.838 4.742 48.329 9.133 76.857 38.172 28.587 28.98 34.094 50.935 38.722 71.484 4.218 16.276 6.912 30.561 29.173 50.408-4.98 1.64-9.842 3.162-14.645 4.743-30.228-26.112-33.508-43.149-36.32-61.064-3.866-16.568-7.615-33.429-29.173-54.213-21.499-21.018-41.123-25.175-61.275-28.688-26.888-5.503-53.659-10.596-84.063-36.532-30.168-25.995-31.75-48.184-32.863-71.075-1.64-19.73-2.988-39.87-24.37-60.888-21.674-20.9-43.525-21.896-65.668-22.423-28.294-.878-56.237-1.229-85.703-28.16-28.821-27.458-28.821-54.448-28.587-81.964.117-22.423.117-44.905-21.089-66.157-20.971-21.486-42.587-21.779-63.852-22.247-25.424-.41-50.203-.879-76.154-30.913-26.127-30.326-28.529-58.37-31.809-85.711-2.051-21.193-4.511-42.094-25.307-63.698-20.972-21.603-39.483-23.886-57.584-26.696-20.328-2.108-39.894-4.45-65.786-34.601-26.068-30.327-33.625-56.614-41.826-82.433-5.39-18.851-10.955-37.645-31.985-58.955 2.577-3.747 5.272-7.494 9.138-10.129l-.058-.117zm39.366-19.203c30.169 25.995 33.332 43.09 36.202 60.946 3.867 16.569 7.616 33.43 29.115 54.331 21.557 20.784 41.299 24.94 61.275 28.687 26.771 5.504 53.776 10.597 84.062 36.533 30.228 25.994 31.692 48.066 32.922 71.075 1.641 19.671 2.988 39.811 24.428 60.77 21.558 20.901 43.467 21.896 65.493 22.54 28.294.879 56.413 1.171 85.703 28.219 28.88 27.458 28.821 54.331 28.704 81.965 0 22.364-.117 44.787 20.972 66.098 21.089 21.486 42.763 21.779 64.028 22.247 25.424.293 50.086.761 76.388 30.795 25.893 30.444 28.529 58.195 31.517 85.828 2.109 21.077 4.51 42.095 25.306 63.698 20.913 21.604 39.483 24.004 57.585 26.814 20.444 2.049 40.069 4.333 65.844 34.601 26.127 30.327 33.625 56.438 41.885 82.257 5.272 18.969 10.896 37.645 31.867 59.131-2.519 3.688-5.213 7.318-9.138 10.128-28.997-28.687-35.09-50.583-41.826-73.767-4.804-19.145-10.779-39.87-30.638-62.059-19.917-22.13-36.202-24.062-53.952-27.165-22.554-3.279-46.337-7.143-75.393-35.655-28.88-28.628-31.516-53.745-34.21-79.973-1.758-21.369-3.691-43.734-23.609-65.806-20.034-22.071-40.186-22.423-61.275-23.242-26.42-.644-53.366-1.23-82.246-29.976-28.88-28.687-28.88-56.262-29.115-83.896.118-22.13.176-44.202-21.264-64.752-21.675-20.432-44.228-20.783-66.547-21.193-27.357-.878-54.011-2.049-82.423-31.029-28.704-28.981-30.813-54.507-32.629-79.096-1.933-19.261-3.28-37.469-25.306-57.375-22.261-19.847-43.701-23.711-63.853-27.165-24.838-4.625-48.27-9.075-76.74-38.055-28.587-28.98-34.211-50.935-38.839-71.484-4.217-16.393-7.029-30.62-29.055-50.467 4.803-1.522 9.607-3.103 14.645-4.625l.117.117zm51.316-7.435c30.696 22.716 31.868 35.947 33.508 50.584 1.172 12.528 2.577 25.935 25.014 44.904 22.377 18.852 44.989 24.004 67.718 28.98 28.295 5.328 57.233 10.304 88.105 32.962 30.813 22.54 31.399 41.918 32.161 62.527.468 17.154 1.054 34.951 23.314 54.154 22.261 19.203 45.576 19.73 68.656 20.316 28.705 0 57.468-.351 86.582 24.062C-14.345 346-15.282 372.112-15.985 399.16c-.469 22.13-.644 44.378 19.273 65.806 19.859 21.603 39.952 21.837 59.693 21.779 23.666-.118 46.396.117 69.418 30.619 22.729 30.795 24.662 59.717 27.064 88.638 2.519 23.243 5.389 45.842 24.193 68.499 19.039 22.364 34.68 23.535 49.384 24.472 17.515 1.054 33.976 2.225 56.529 33.02 22.73 30.795 30.638 59.014 39.015 87.058 7.498 22.54 14.938 44.319 33.976 66.566-1.64 5.035-3.163 9.953-4.628 14.637-26.888-29.859-35.148-55.794-43.349-82.726-6.854-22.423-13.18-45.021-30.696-67.62-17.515-22.716-31.223-23.77-45.341-24.823-19.156-1.523-39.424-3.689-66.137-33.723-26.42-30.268-29.583-57.784-32.453-86.004-1.934-23.301-3.574-46.544-21.089-69.084-17.809-22.423-36.379-22.715-55.476-22.95-24.78-.175-50.086-.409-77.443-29.858-27.825-28.98-27.532-56.555-27.357-83.838.41-21.603 1.055-42.855-20.034-61.941-21.382-18.852-44.814-18.501-67.895-18.559-28.235-.644-56.705-1.464-86.405-28.219-30.052-26.756-31.107-49.823-32.278-71.485-.645-16.568-1.23-32.551-23.901-50.115-22.729-17.564-45.868-21.486-68.539-25.994-27.474-5.503-54.421-11.065-84.472-37.645-30.169-26.697-32.922-44.495-35.324-60.888-1.348-11.943-2.578-23.301-25.014-40.865 5.565-.644 11.189-1.463 17.515-1.639h.059zm57.702-1.171c30.754 19.086 30.52 29.39 31.106 41.158.468 10.304 1.054 21.018 23.783 37.47 22.847 16.275 46.396 21.193 69.945 25.408 29.349 4.449 59.4 8.489 90.448 27.341 31.106 18.676 30.93 35.713 31.223 53.921.176 15.397.469 31.38 23.022 48.066 22.553 16.744 46.161 16.451 69.418 16.1 28.997-1.171 58.053-3.103 86.288 18.617 27.181 22.716 25.424 47.891 23.96 74.061-1.172 21.662-2.05 43.734 16.168 64.634 17.984 21.252 36.905 20.901 55.182 20.608 21.968-.292 42.647-.585 62.212 29.859 19.098 30.795 19.742 60.478 20.914 89.985 1.64 23.711 3.866 47.597 20.151 70.489 16.461 22.833 29.759 23.008 42.588 23.418 14.938.586 28.704.644 47.391 31.791 18.98 30.912 26.362 60.595 34.211 89.516 6.913 23.477 14.47 47.071 30.931 69.845-.176 6.089-.469 12.119-1.289 18.032-23.491-30.736-32.629-59.365-41.123-88.228-6.386-23.594-12.127-47.13-27.065-69.962-14.82-22.833-26.419-23.302-38.545-23.594-15.876-.586-33.04-1.23-56.472-32.083-23.315-30.854-26.009-60.127-28.235-89.4-1.172-23.887-1.523-47.656-16.637-70.313-15.289-22.423-32.278-22.541-49.793-22.248-22.847.117-46.337.41-71.351-28.804-25.892-28.395-24.78-55.795-23.666-82.257.761-20.901 1.816-41.334-18.687-58.546-20.914-16.744-44.111-15.515-67.31-14.519-28.879.175-57.876.175-88.221-23.594-30.637-23.594-31.223-43.91-31.223-62.996-.586-14.636-.762-28.863-23.667-43.733-22.904-14.812-46.688-17.798-70.12-21.604-29.349-5.503-58.17-11.182-88.866-34.6-30.755-23.536-31.985-37.587-32.454-50.291-.468-9.719-1.054-18.676-23.783-33.606 6.268-.117 12.887 0 19.624.118l-.058-.059zm59.4.995c30.696 15.222 30.52 23.536 30.696 32.962.117 8.255.176 17.154 22.905 30.912 22.905 13.465 46.981 17.27 70.999 20.315 29.583 3.103 59.635 5.21 90.799 20.14 30.989 14.871 30.931 30.034 30.989 46.076 0 13.758.176 28.043 22.73 41.977 22.436 14.168 46.16 12.704 69.534 11.006 28.822-2.576 57.467-6.088 84.941 12.529 25.893 20.14 23.608 44.202 21.265 69.26-1.992 21.194-3.75 42.68 12.595 62.937 15.992 20.608 33.449 19.964 50.262 19.437 20.093-.703 39.073-1.23 54.889 28.98 15.29 30.737 14.177 60.712 13.884 90.336.468 24.004 1.464 48.242 14.938 71.309 13.649 22.891 25.013 22.892 36.027 22.892 12.594.175 24.369.117 39.19 31.204 15.113 30.913 20.913 60.771 27.357 90.337 5.975 24.062 12.594 48.066 26.302 70.899.117 6.381.176 12.88.293 19.378-20.034-30.736-28.411-60.478-35.851-90.16-5.272-24.063-9.9-47.949-22.026-70.782-11.833-23.009-21.733-23.009-31.868-23.009-13.766 0-28.294-.175-48.036-31.205-19.565-31.146-21.089-60.946-21.674-90.746.117-24.062.996-48.183-11.365-70.723-12.595-22.423-27.943-22.247-43.994-21.779-21.206.585-43.056 1.171-65.2-27.458-23.373-27.341-21.381-54.038-19.33-79.681 1.464-19.964 3.162-39.577-16.462-54.799-20.21-14.753-43.466-12.119-66.43-10.011-29.173 1.756-58.463 3.103-88.807-17.271-30.814-20.023-30.814-38.055-30.521-55.092-.293-12.997-.41-25.35-23.197-37.352-23.023-11.943-47.099-13.758-71-16.276-30.051-4.04-59.81-8.957-90.799-28.629-30.93-19.847-30.989-31.146-30.813-41.45-.117-7.787-.117-14.93-22.905-26.873 6.444.118 13.005.293 19.741.41h-.058zm60.396 1.523c30.52 11.357 30.228 17.739 30.228 25.233-.176 6.44-.293 13.758 22.553 24.648 22.846 10.713 47.098 12.88 71.292 14.753 29.759 1.171 59.928 1.522 91.034 12.529 31.106 10.89 30.813 24.062 30.813 38.347-.117 12.061 0 24.648 22.436 35.948 22.26 11.299 46.044 8.489 69.418 5.503 28.411-4.215 57.115-9.309 83.594 6.147 24.662 17.564 21.381 40.338 18.218 64.635-2.988 20.491-5.565 41.333 8.846 60.595 13.707 19.964 29.934 19.144 45.458 18.383 18.277-.878 35.617-1.522 47.684 28.512 11.365 30.736 8.377 60.419 6.327 90.16-1.055 24.18-1.465 48.242 9.138 71.309 10.72 23.009 20.621 23.009 29.876 22.892 10.662.117 20.503.117 31.282 31.205 11.247 30.912 15.231 60.594 20.034 90.16 4.628 24.297 9.725 48.359 20.679 71.016.176 6.85.41 13.29.586 19.847-16.168-30.736-22.905-60.595-28.587-90.629-3.925-24.003-7.205-47.949-16.461-70.723-9.021-22.892-17.164-23.009-25.834-23.009-11.716.293-24.194.176-39.952-31.029-15.582-31.146-15.523-60.946-14.469-90.863 1.64-24.179 3.925-48.183-5.507-70.782-9.841-22.13-23.783-21.837-38.545-21.252-19.332.937-39.366 1.756-58.581-26.111-20.913-26.112-17.808-51.813-14.937-76.695 2.108-19.086 4.51-37.762-14.235-50.994-19.566-12.412-42.588-8.548-65.61-5.21-28.822 3.395-57.995 6.381-88.105-10.304-30.755-16.276-30.755-32.259-30.52-47.423-.117-11.357.117-22.247-22.905-31.204-22.905-9.075-47.216-9.543-71.175-10.714-30.052-2.108-59.986-5.328-91.034-21.077-30.989-15.983-30.93-25.233-30.52-33.605 0-6.148.293-11.534-22.436-20.725 6.444.175 13.005.41 19.859.468l.058.059zm59.928 1.463c30.637 7.436 30.52 12.06 30.227 17.623 0 5.093-.176 11.006 22.612 18.851 22.905 7.728 47.216 8.49 71.058 8.782 29.934-.644 59.869-2.283 91.033 4.742 31.106 6.967 30.99 18.325 30.93 30.561-.116 10.714 0 21.779 22.32 30.268 22.026 8.548 45.751 4.333 69.066-.292 28.294-5.796 56.413-12.412 82.246-.117 23.198 14.929 19.332 36.766 15.231 59.892-3.866 19.847-7.322 39.987 4.921 58.487 11.658 19.203 26.42 18.325 40.655 17.33 16.871-1.054 32.395-2.108 40.537 27.868 7.733 30.502 2.812 60.419-1.171 89.984-2.578 24.18-4.628 48.242 2.987 71.368 7.967 22.833 16.403 22.833 24.077 22.891 8.787.176 16.754.117 23.666 31.147 7.323 30.795 9.314 60.595 12.243 90.277 3.105 24.063 6.62 48.066 14.821 70.607.117 6.732.293 13.172.469 19.729-12.302-30.736-17.164-60.419-20.913-90.043-2.402-24.062-4.218-48.066-10.603-70.782-6.093-23.008-12.712-23.008-19.859-22.891-9.842.117-20.445-.117-32.336-31.205-11.658-31.205-9.549-61.064-6.444-90.746 3.046-24.18 6.854-48.242.176-70.724-7.147-21.954-19.566-21.603-32.747-20.9-17.925 1.17-36.319 2.107-52.37-24.765-18.219-24.824-14.06-49.823-10.018-73.592 2.519-18.091 5.566-36.006-12.419-47.13-18.687-10.421-41.533-5.093-64.145-.468-28.821 5.093-57.701 9.718-87.636-3.103-30.637-12.529-30.637-26.58-30.227-39.87-.176-9.836-.176-19.203-23.14-25.35-23.021-6.089-47.157-4.918-70.999-4.625-30.227-.293-60.103-1.464-91.092-13.29-30.93-12.12-30.813-19.554-30.462-25.936-.117-4.625.117-8.665-22.553-15.046 6.444.175 13.005.41 19.741.468h.118zm59.634.761c30.521 3.689 30.638 6.675 30.638 10.538-.117 3.747-.176 8.08 22.553 13.115 22.846 4.918 47.099 4.156 71.058 2.693 29.876-2.693 59.634-6.265 90.74-3.103 31.224 2.986 31.224 12.646 31.107 23.126 0 9.25 0 18.851 22.26 24.355 22.026 5.854 45.634.175 68.773-5.796 28.002-7.494 55.945-15.925 80.9-6.558 21.967 12.354 17.457 32.962 12.126 55.268-4.628 19.203-9.08 38.816 1.171 56.379 9.549 18.384 22.905 17.33 35.91 16.159 15.231-1.464 28.997-2.108 33.625 27.575 3.866 30.444-2.988 60.009-9.021 89.692-4.042 24.004-7.499 48.066-2.812 71.25 4.921 22.95 11.833 22.95 18.101 22.95 7.147.176 13.298.469 16.403 31.674 3.456 30.853 3.397 60.185 4.335 89.575 1.347 24.062 3.456 48.066 8.787 70.606.117 6.733.292 13.173.41 19.671-8.377-30.619-11.189-60.419-13.181-90.16-.879-23.77-1.054-47.656-4.511-70.431-3.163-23.008-8.377-23.008-14.059-23.301-7.967.293-16.637 0-24.662-31.029-7.791-31.205-3.749-61.005 1.054-90.746 4.804-24.063 10.135-48.066 6.268-70.431-4.334-21.837-15.406-21.369-27.356-20.784-16.11 1.464-33.04 2.811-46.045-23.242-15.523-23.594-10.134-47.774-5.389-70.607 3.398-17.329 6.971-34.19-10.134-43.382-18.043-8.196-40.538-1.64-63.208 4.332-28.236 6.733-57.233 13.173-86.992 4.04-30.52-8.548-30.345-20.9-30.227-32.142 0-8.489-.118-16.275-23.022-19.671-23.022-3.161-47.216-.41-71.058 1.522-29.935 1.64-59.986 2.342-91.034-5.562-30.813-8.196-30.637-13.758-30.344-18.383-.118-3.279 0-5.855-22.612-9.309 6.443.117 12.887.117 19.565.117h-.117z"/></mask><path d="M-111.412 6.318c30.637-.293 30.637.936 30.637 3.103 0 2.283.118 5.327 22.847 7.61 22.904 1.933 46.922-.41 70.882-3.395C42.83 8.894 72.764 3.332 103.987 2.57c31.224-.761 31.106 7.025 31.106 15.924 0 7.728.118 15.866 22.437 18.56 21.792 3.16 45.282-4.04 68.187-11.359 27.826-9.133 55.593-19.378 79.728-12.997 20.796 9.66 15.406 29.449 9.255 50.935-5.565 18.617-10.896 37.586-2.577 54.213 7.205 17.798 19.448 16.452 31.106 15.222 13.708-1.522 25.834-2.868 26.771 26.697 0 30.444-8.787 60.419-16.461 89.985-5.799 24.062-10.779 47.949-9.08 71.25 2.226 22.833 7.615 23.009 12.536 23.243 5.214.176 9.549.176 8.787 31.381-.41 30.853-2.284 60.595-3.28 90.043-.176 23.887.293 47.715 2.812 70.138.117 6.616.117 13.114.175 19.437-4.627-30.561-5.389-60.185-5.389-89.692.703-23.77 2.109-47.715 1.347-70.314-.293-23.125-4.042-23.242-8.259-23.418-6.151 0-13.122-.41-17.223-31.322-3.749-31.322 2.226-61.18 8.963-90.863 6.268-24.004 13.122-47.949 12.067-70.196-1.64-21.897-11.247-21.311-21.85-20.491-14.469 1.522-29.759 3.102-39.659-22.131-13.005-22.13-6.561-45.666-.879-67.62 3.867-16.276 8.202-32.435-8.201-39.519-17.34-6.088-39.6 1.757-62.153 9.25-27.943 8.256-56.648 16.57-86.172 11.066-30.403-4.801-30.403-15.398-30.403-24.824-.117-7.025-.176-13.465-23.198-13.758-23.14-.41-47.098 3.864-71 7.318-29.875 3.689-59.692 6.44-90.74 2.4-30.813-4.332-30.93-8.254-30.637-11.299-.176-1.756-.293-2.868-22.905-3.57 6.326 0 13.005.116 19.566 0l-.176.058zm-476.667 403.439c4.452 30.502 5.213 60.185 5.272 89.751-.879 23.769-2.05 47.597-1.465 70.43.411 22.95 4.042 23.009 8.26 23.301 6.093 0 13.181.176 17.164 31.322 3.867 31.205-2.226 61.064-8.845 90.746-6.093 23.77-13.005 47.891-11.951 70.138 1.523 21.955 11.189 21.37 21.792 20.608 14.352-1.463 29.759-3.161 39.659 22.072 12.829 22.365 6.327 45.842.586 67.913-3.925 16.393-8.202 32.435 8.084 39.577 17.34 5.972 39.776-1.932 62.212-9.25 27.826-8.372 56.471-16.568 86.23-11.299 30.52 4.742 30.403 15.397 30.345 24.94.117 7.026.117 13.407 23.139 13.759 23.022.409 47.215-3.864 71.175-7.494 29.876-3.572 59.634-6.265 90.74-2.401 30.814 4.45 30.696 8.489 30.814 11.183 0 1.932-.118 2.985 22.553 3.747-6.327 0-12.829-.118-19.039-.118-30.813.293-31.106-.878-31.047-3.102.117-2.401 0-5.211-22.729-7.494-23.022-2.049-46.923.292-71.058 3.395-29.759 4.743-59.342 10.187-90.624 11.007-31.106.761-31.516-6.967-31.399-15.69 0-7.728 0-15.983-22.26-18.794-21.85-2.985-45.283 4.04-68.363 11.534-27.826 9.133-55.183 19.086-79.435 12.821-20.737-9.718-15.406-29.507-9.314-50.876 5.682-18.676 10.954-37.586 2.695-54.33-7.206-17.798-19.449-16.569-30.931-15.339-13.766 1.639-25.834 2.693-26.654-26.873 0-30.444 8.787-60.185 16.403-89.692 5.682-24.062 10.778-48.066 8.845-71.192-2.05-23.008-7.498-23.125-12.302-23.242-5.213-.293-9.548-.586-8.787-31.557.41-30.912 2.285-60.419 3.281-89.692.117-24.062-.41-47.773-2.695-70.431-.117-6.44-.176-12.88-.176-19.437l-.175.059zm-1.055-59.541c8.377 30.561 11.248 60.302 13.357 90.043.585 23.887.761 47.598 4.159 70.431 3.28 22.833 8.552 23.008 14.235 23.301 7.791-.176 16.637-.176 24.486 31.029 7.791 31.147 3.867 60.946-.996 90.746-4.627 23.77-10.017 47.891-6.15 70.255 4.217 21.955 15.289 21.487 27.239 20.901 15.993-1.463 32.922-2.81 45.869 23.243 15.523 23.594 10.134 47.89 5.272 70.899-3.456 17.271-6.913 34.015 10.134 43.148 18.043 8.197 40.421 1.757 63.267-4.332 28.118-6.733 56.823-13.114 86.874-4.157 30.403 8.548 30.228 20.901 30.228 32.259 0 8.489 0 16.393 23.022 19.554 23.022 3.279 46.981.586 71.057-1.522 29.876-1.639 59.811-2.283 90.8 5.562 30.93 8.196 30.637 13.875 30.52 18.383-.117 3.279-.117 5.855 22.612 9.426-6.62-.117-13.122-.176-19.449-.176-30.754-3.571-30.813-6.44-30.813-10.421.176-3.922.176-8.196-22.553-13.29-23.022-4.8-46.981-4.157-71.058-2.576-29.642 2.693-59.4 6.265-90.624 3.279-31.106-3.162-31.281-12.646-31.281-23.126.117-9.25.175-18.969-22.144-24.589-21.967-5.796-45.575-.117-68.656 5.855-28.118 7.728-55.768 15.924-80.782 6.615-21.967-12.353-17.457-33.02-12.243-55.501 4.745-19.145 9.256-38.699-1.054-56.38-9.315-18.383-22.73-17.446-35.734-16.276-15.29 1.464-28.998 2.225-33.391-27.458-3.866-30.443 2.987-60.185 8.787-89.75 4.159-23.887 7.615-47.949 2.812-71.016-4.687-23.126-11.658-23.009-18.102-23.126-6.912-.176-13.122-.41-16.168-31.498-3.456-30.795-3.397-60.419-4.335-89.809-1.347-23.887-3.573-47.89-8.669-70.431-.176-6.381-.293-13.172-.469-19.671l-.059.176zm-1.347-60.185c12.126 30.736 16.93 60.595 20.796 90.277 2.285 24.004 4.218 47.949 10.486 70.782 6.151 22.833 12.712 22.833 19.858 22.833 9.842 0 20.445 0 32.278 31.146 11.716 31.205 9.724 60.947 6.62 90.805-3.105 23.887-6.854 48.066-.176 70.489 7.03 22.072 19.449 21.604 32.629 21.077 17.691-1.171 36.203-2.225 52.312 24.647 18.102 24.824 13.942 49.823 9.9 73.768-2.694 18.091-5.682 35.83 12.244 47.012 18.687 10.422 41.416 5.211 64.321.469 28.528-4.977 57.408-9.719 87.636 2.986 30.52 12.528 30.52 26.697 30.227 39.869-.117 10.012-.117 19.145 22.846 25.351 22.905 6.147 47.216 5.093 71.292 4.625 29.935.293 59.987 1.522 91.034 13.29 30.813 12.119 30.755 19.554 30.52 25.936-.117 4.742-.293 8.547 22.26 15.046-6.443-.176-13.004-.293-19.448-.469-30.813-7.318-30.813-11.943-30.52-17.622.176-5.093.293-10.889-22.553-18.793-22.905-7.787-46.923-8.665-71.175-8.782-29.935.644-59.635 2.225-90.8-4.742-30.93-7.026-31.223-18.325-30.989-30.62.118-10.479.176-21.779-22.26-30.151-22.143-8.489-45.751-4.332-69.066.293-28.412 5.796-56.237 12.412-82.13.176-23.197-14.93-19.565-36.709-15.23-60.01 3.866-19.964 7.439-40.045-4.921-58.546-11.482-19.144-26.303-18.324-40.421-17.329-16.929 1.171-32.394 2.049-40.537-27.809-7.615-30.561-2.695-60.478 1.23-90.044 2.519-24.062 4.452-48.183-3.28-71.192-7.733-23.008-16.169-22.95-23.901-22.95-8.846-.117-16.637-.117-23.667-31.029-7.322-30.795-9.255-60.712-12.243-90.278-2.987-24.179-6.737-48.183-14.645-70.781-.176-6.558-.293-12.998-.468-19.73h-.059zm-1.64-60.185c16.109 30.619 22.612 60.477 28.587 90.57 3.866 24.004 7.147 47.949 16.285 70.782 9.021 22.833 17.223 22.833 25.893 23.008 11.481-.41 24.076-.292 39.893 30.912 15.582 31.088 15.406 60.888 14.352 91.039-1.465 23.77-3.749 47.891 5.682 70.431 9.724 22.247 23.667 21.954 38.312 21.603 19.331-1.171 39.483-1.932 58.58 25.936 20.796 26.111 17.808 51.813 14.821 76.871-2.109 18.969-4.628 37.645 14.235 50.876 19.448 12.529 42.353 8.665 65.609 5.328 28.705-3.455 57.702-6.44 88.105 10.128 30.637 16.159 30.638 32.376 30.638 47.422-.293 11.475-.293 22.248 22.611 31.322 22.905 9.075 47.099 9.543 71.351 10.597 29.935 2.225 59.81 5.269 90.8 21.077 30.93 15.983 30.93 25.35 30.813 33.546-.293 6.148-.469 11.475 22.26 20.784-6.62-.176-13.18-.293-19.741-.468-30.696-11.358-30.638-17.798-30.404-25.175.118-6.733.293-13.758-22.436-24.765-22.905-10.714-47.215-13.114-71.35-14.753-29.76-1.23-59.694-1.523-90.917-12.412-30.989-10.948-30.93-24.179-30.989-38.231.176-12.236.41-24.94-22.143-35.947-22.378-11.358-46.161-8.782-69.652-5.503-28.529 4.157-56.823 9.25-83.594-6.147-24.428-17.505-21.265-40.573-18.101-64.752 2.87-20.491 5.682-41.216-8.67-60.595-13.766-19.847-29.876-19.379-45.4-18.559-18.453.937-35.617 1.522-47.567-28.395-11.482-30.619-8.377-60.595-6.444-90.277.938-24.004 1.523-48.066-9.138-71.075-10.72-22.95-20.62-23.008-29.935-23.008-10.603 0-20.327 0-31.223-31.03-11.247-30.912-15.114-60.712-20.034-90.453-4.453-24.062-9.725-47.949-20.621-70.606-.175-6.557-.293-13.407-.468-19.964v-.117zm-.762-59.424c19.917 30.619 28.236 60.419 35.617 90.043 5.272 23.887 10.017 47.89 22.026 70.782 11.95 22.833 21.675 22.833 31.985 23.008 13.59 0 28.118.176 47.86 31.205 19.566 31.147 21.089 60.888 21.733 90.629-.117 23.887-.879 47.949 11.365 70.782 12.536 22.365 27.825 21.955 43.935 21.779 21.089-.644 42.881-1.346 65.024 27.341 23.491 27.341 21.382 53.862 19.331 79.739-1.523 19.965-3.046 39.519 16.637 54.741 20.21 14.636 43.174 12.119 66.372 10.011 28.997-1.815 58.111-3.103 88.631 17.154 30.814 19.964 30.93 37.879 30.755 54.975.117 13.114.176 25.526 23.198 37.469 22.905 11.943 46.805 13.875 70.823 16.393 29.935 3.864 59.635 8.782 90.624 28.394 30.93 19.847 30.989 31.205 30.989 41.451.175 7.786.175 14.929 23.139 26.989-6.737-.117-13.298-.175-19.742-.409-30.813-15.105-30.813-23.477-30.93-33.02.117-8.197-.117-17.037-22.905-30.795-23.022-13.466-46.688-17.33-70.999-20.433-29.642-2.927-59.518-5.093-90.624-20.022-30.989-14.812-31.106-29.976-31.223-46.134.176-13.7 0-27.927-22.553-41.802-22.436-14.168-46.161-12.588-69.828-10.89-28.704 2.518-57.116 5.972-84.765-12.411-25.834-20.257-23.491-44.437-21.265-69.553 2.109-21.018 3.866-42.563-12.536-62.702-15.875-20.609-33.215-20.023-50.203-19.672-20.211.586-39.132 1.23-54.714-28.98-15.29-30.737-14.177-60.888-13.884-90.336-.468-23.887-1.523-47.949-15.055-71.075-13.591-22.95-25.131-22.833-36.027-23.008-12.712-.293-24.252-.176-39.19-31.088-15.114-30.912-20.913-61.063-27.357-90.336-5.975-24.004-12.419-48.066-26.068-70.724-.117-6.44-.176-12.88-.293-19.437l.117-.058zm2.285-56.439c23.49 30.561 32.57 59.073 41.24 88.112 6.268 23.418 12.126 47.129 26.947 69.962 14.762 22.833 26.42 23.126 38.605 23.594 15.699.293 32.863 1.171 56.237 31.966 23.314 30.795 26.009 60.009 28.294 89.399 1.054 23.712 1.757 47.598 16.695 70.431 15.231 22.423 32.043 22.365 49.676 22.248 22.612-.293 46.337-.586 71.292 28.804 25.893 28.336 24.78 55.677 23.667 82.257-.879 20.784-1.816 41.216 18.687 58.487 20.913 16.861 43.935 15.398 67.308 14.52 28.822-.293 57.76-.293 88.34 23.418 30.637 23.711 30.988 43.909 31.105 63.112.293 14.754.762 28.922 23.608 43.734 22.905 14.812 46.454 17.915 70.238 21.486 29.173 5.504 58.053 11.358 88.866 34.659 30.755 23.419 31.692 37.587 32.278 50.174.586 9.719 1.171 18.793 23.959 33.606-6.619.117-13.298 0-19.624-.118-30.989-18.968-30.989-29.448-31.282-41.099-.586-10.187-.996-20.784-23.608-37.352-22.905-16.276-46.63-21.311-70.12-25.409-29.583-4.508-59.342-8.489-90.448-27.282-30.93-18.852-30.99-35.83-30.99-54.038-.41-15.398-.41-31.322-22.904-47.949-22.612-16.569-46.337-16.569-69.535-16.1-29.29 1.171-57.994 2.986-86.406-18.501-27.064-22.832-25.423-48.066-23.959-74.002 1.23-21.837 2.109-43.616-16.109-64.634-17.985-21.311-36.789-21.194-55.007-20.784-22.026.176-42.881.468-62.095-29.975-19.097-30.854-19.683-60.712-20.972-89.81-1.757-23.769-3.925-47.422-20.21-70.313-16.344-22.833-29.759-23.243-42.354-23.594-14.996-.703-28.704-.761-47.508-31.673-18.863-31.03-26.303-60.654-33.977-89.575-7.029-23.594-14.528-46.896-30.989-69.436.176-6.147.469-12.529 1.172-18.325h-.117zm9.607-48.944c26.654 29.858 34.972 55.677 43.232 82.667 6.854 22.423 13.181 45.021 30.638 67.737 17.515 22.423 31.399 23.594 45.458 24.765 19.097 1.522 39.307 3.689 65.961 33.84 26.478 30.151 29.642 57.726 32.454 86.003 2.226 23.009 3.749 46.252 21.264 68.967 17.809 22.365 36.32 22.658 55.476 22.833 24.545.176 49.969.469 77.267 29.976 27.826 28.98 27.474 56.555 27.181 83.896-.41 21.486-.879 42.738 20.21 61.941 21.499 18.676 44.58 18.384 67.778 18.501 28.294.585 56.647 1.346 86.581 28.219 30.052 26.697 31.106 49.588 32.16 71.25.47 16.686 1.172 32.727 23.784 50.35 22.73 17.446 45.751 21.31 68.656 25.701 27.357 5.562 54.304 11.3 84.356 37.762 30.169 26.697 32.863 44.612 35.441 60.654 1.171 12.119 2.519 23.535 25.131 41.04-5.565.761-11.482 1.464-17.633 1.64-30.813-22.658-31.985-36.006-33.625-50.642-1.172-12.529-2.519-25.702-24.955-44.671-22.436-18.969-44.99-24.179-67.719-29.097-28.528-5.211-57.233-10.304-88.222-32.844C-.813 782.869-1.516 763.608-2.16 742.941c-.469-17.154-.937-34.952-23.198-54.038-22.378-19.086-45.575-19.964-68.89-20.315-28.704-.117-57.409.468-86.465-24.004-28.235-25.35-27.474-51.403-26.771-78.393.586-22.247.879-44.495-19.155-65.864-19.742-21.662-39.952-21.779-59.518-21.837-23.901 0-46.513-.117-69.359-30.62-22.846-30.736-24.662-59.892-27.181-88.638-2.578-23.009-5.507-45.783-24.369-68.323-18.98-22.423-34.563-23.594-49.208-24.589-17.632-1.171-33.976-2.108-56.53-32.962-22.612-30.912-30.754-59.248-39.014-87.116-7.498-22.54-14.938-44.319-33.918-66.566 1.523-4.801 2.988-9.66 4.628-14.637h.117zm22.612-36.123c28.997 28.512 34.972 50.467 41.709 73.709 4.921 19.145 10.896 39.87 30.755 62.059 19.858 22.072 36.202 24.062 53.835 27.165 22.553 3.279 46.395 7.026 75.393 35.655 28.88 28.629 31.516 53.862 34.269 79.739 1.757 21.369 3.632 43.851 23.608 65.981 19.917 22.072 40.244 22.365 61.158 23.243 26.302.761 53.366 1.229 82.246 30.034 28.88 28.687 28.88 56.145 28.88 83.896 0 22.13 0 44.144 21.499 64.635 21.558 20.432 44.228 20.842 66.547 21.076 27.357.995 54.011 2.049 82.657 31.029 28.587 28.981 30.696 54.507 32.57 78.979 1.817 19.378 3.105 37.645 25.249 57.492 22.143 19.847 43.525 23.886 63.852 27.165 24.838 4.742 48.329 9.133 76.857 38.172 28.587 28.98 34.094 50.935 38.722 71.484 4.218 16.276 6.912 30.561 29.173 50.408-4.98 1.64-9.842 3.162-14.645 4.743-30.228-26.112-33.508-43.149-36.32-61.064-3.866-16.568-7.615-33.429-29.173-54.213-21.499-21.018-41.123-25.175-61.275-28.688-26.888-5.503-53.659-10.596-84.063-36.532-30.168-25.995-31.75-48.184-32.863-71.075-1.64-19.73-2.988-39.87-24.37-60.888-21.674-20.9-43.525-21.896-65.668-22.423-28.294-.878-56.237-1.229-85.703-28.16-28.821-27.458-28.821-54.448-28.587-81.964.117-22.423.117-44.905-21.089-66.157-20.971-21.486-42.587-21.779-63.852-22.247-25.424-.41-50.203-.879-76.154-30.913-26.127-30.326-28.529-58.37-31.809-85.711-2.051-21.193-4.511-42.094-25.307-63.698-20.972-21.603-39.483-23.886-57.584-26.696-20.328-2.108-39.894-4.45-65.786-34.601-26.068-30.327-33.625-56.614-41.826-82.433-5.39-18.851-10.955-37.645-31.985-58.955 2.577-3.747 5.272-7.494 9.138-10.129l-.058-.117zm39.366-19.203c30.169 25.995 33.332 43.09 36.202 60.946 3.867 16.569 7.616 33.43 29.115 54.331 21.557 20.784 41.299 24.94 61.275 28.687 26.771 5.504 53.776 10.597 84.062 36.533 30.228 25.994 31.692 48.066 32.922 71.075 1.641 19.671 2.988 39.811 24.428 60.77 21.558 20.901 43.467 21.896 65.493 22.54 28.294.879 56.413 1.171 85.703 28.219 28.88 27.458 28.821 54.331 28.704 81.965 0 22.364-.117 44.787 20.972 66.098 21.089 21.486 42.763 21.779 64.028 22.247 25.424.293 50.086.761 76.388 30.795 25.893 30.444 28.529 58.195 31.517 85.828 2.109 21.077 4.51 42.095 25.306 63.698 20.913 21.604 39.483 24.004 57.585 26.814 20.444 2.049 40.069 4.333 65.844 34.601 26.127 30.327 33.625 56.438 41.885 82.257 5.272 18.969 10.896 37.645 31.867 59.131-2.519 3.688-5.213 7.318-9.138 10.128-28.997-28.687-35.09-50.583-41.826-73.767-4.804-19.145-10.779-39.87-30.638-62.059-19.917-22.13-36.202-24.062-53.952-27.165-22.554-3.279-46.337-7.143-75.393-35.655-28.88-28.628-31.516-53.745-34.21-79.973-1.758-21.369-3.691-43.734-23.609-65.806-20.034-22.071-40.186-22.423-61.275-23.242-26.42-.644-53.366-1.23-82.246-29.976-28.88-28.687-28.88-56.262-29.115-83.896.118-22.13.176-44.202-21.264-64.752-21.675-20.432-44.228-20.783-66.547-21.193-27.357-.878-54.011-2.049-82.423-31.029-28.704-28.981-30.813-54.507-32.629-79.096-1.933-19.261-3.28-37.469-25.306-57.375-22.261-19.847-43.701-23.711-63.853-27.165-24.838-4.625-48.27-9.075-76.74-38.055-28.587-28.98-34.211-50.935-38.839-71.484-4.217-16.393-7.029-30.62-29.055-50.467 4.803-1.522 9.607-3.103 14.645-4.625l.117.117zm51.316-7.435c30.696 22.716 31.868 35.947 33.508 50.584 1.172 12.528 2.577 25.935 25.014 44.904 22.377 18.852 44.989 24.004 67.718 28.98 28.295 5.328 57.233 10.304 88.105 32.962 30.813 22.54 31.399 41.918 32.161 62.527.468 17.154 1.054 34.951 23.314 54.154 22.261 19.203 45.576 19.73 68.656 20.316 28.705 0 57.468-.351 86.582 24.062C-14.345 346-15.282 372.112-15.985 399.16c-.469 22.13-.644 44.378 19.273 65.806 19.859 21.603 39.952 21.837 59.693 21.779 23.666-.118 46.396.117 69.418 30.619 22.729 30.795 24.662 59.717 27.064 88.638 2.519 23.243 5.389 45.842 24.193 68.499 19.039 22.364 34.68 23.535 49.384 24.472 17.515 1.054 33.976 2.225 56.529 33.02 22.73 30.795 30.638 59.014 39.015 87.058 7.498 22.54 14.938 44.319 33.976 66.566-1.64 5.035-3.163 9.953-4.628 14.637-26.888-29.859-35.148-55.794-43.349-82.726-6.854-22.423-13.18-45.021-30.696-67.62-17.515-22.716-31.223-23.77-45.341-24.823-19.156-1.523-39.424-3.689-66.137-33.723-26.42-30.268-29.583-57.784-32.453-86.004-1.934-23.301-3.574-46.544-21.089-69.084-17.809-22.423-36.379-22.715-55.476-22.95-24.78-.175-50.086-.409-77.443-29.858-27.825-28.98-27.532-56.555-27.357-83.838.41-21.603 1.055-42.855-20.034-61.941-21.382-18.852-44.814-18.501-67.895-18.559-28.235-.644-56.705-1.464-86.405-28.219-30.052-26.756-31.107-49.823-32.278-71.485-.645-16.568-1.23-32.551-23.901-50.115-22.729-17.564-45.868-21.486-68.539-25.994-27.474-5.503-54.421-11.065-84.472-37.645-30.169-26.697-32.922-44.495-35.324-60.888-1.348-11.943-2.578-23.301-25.014-40.865 5.565-.644 11.189-1.463 17.515-1.639h.059zm57.702-1.171c30.754 19.086 30.52 29.39 31.106 41.158.468 10.304 1.054 21.018 23.783 37.47 22.847 16.275 46.396 21.193 69.945 25.408 29.349 4.449 59.4 8.489 90.448 27.341 31.106 18.676 30.93 35.713 31.223 53.921.176 15.397.469 31.38 23.022 48.066 22.553 16.744 46.161 16.451 69.418 16.1 28.997-1.171 58.053-3.103 86.288 18.617 27.181 22.716 25.424 47.891 23.96 74.061-1.172 21.662-2.05 43.734 16.168 64.634 17.984 21.252 36.905 20.901 55.182 20.608 21.968-.292 42.647-.585 62.212 29.859 19.098 30.795 19.742 60.478 20.914 89.985 1.64 23.711 3.866 47.597 20.151 70.489 16.461 22.833 29.759 23.008 42.588 23.418 14.938.586 28.704.644 47.391 31.791 18.98 30.912 26.362 60.595 34.211 89.516 6.913 23.477 14.47 47.071 30.931 69.845-.176 6.089-.469 12.119-1.289 18.032-23.491-30.736-32.629-59.365-41.123-88.228-6.386-23.594-12.127-47.13-27.065-69.962-14.82-22.833-26.419-23.302-38.545-23.594-15.876-.586-33.04-1.23-56.472-32.083-23.315-30.854-26.009-60.127-28.235-89.4-1.172-23.887-1.523-47.656-16.637-70.313-15.289-22.423-32.278-22.541-49.793-22.248-22.847.117-46.337.41-71.351-28.804-25.892-28.395-24.78-55.795-23.666-82.257.761-20.901 1.816-41.334-18.687-58.546-20.914-16.744-44.111-15.515-67.31-14.519-28.879.175-57.876.175-88.221-23.594-30.637-23.594-31.223-43.91-31.223-62.996-.586-14.636-.762-28.863-23.667-43.733-22.904-14.812-46.688-17.798-70.12-21.604-29.349-5.503-58.17-11.182-88.866-34.6-30.755-23.536-31.985-37.587-32.454-50.291-.468-9.719-1.054-18.676-23.783-33.606 6.268-.117 12.887 0 19.624.118l-.058-.059zm59.4.995c30.696 15.222 30.52 23.536 30.696 32.962.117 8.255.176 17.154 22.905 30.912 22.905 13.465 46.981 17.27 70.999 20.315 29.583 3.103 59.635 5.21 90.799 20.14 30.989 14.871 30.931 30.034 30.989 46.076 0 13.758.176 28.043 22.73 41.977 22.436 14.168 46.16 12.704 69.534 11.006 28.822-2.576 57.467-6.088 84.941 12.529 25.893 20.14 23.608 44.202 21.265 69.26-1.992 21.194-3.75 42.68 12.595 62.937 15.992 20.608 33.449 19.964 50.262 19.437 20.093-.703 39.073-1.23 54.889 28.98 15.29 30.737 14.177 60.712 13.884 90.336.468 24.004 1.464 48.242 14.938 71.309 13.649 22.891 25.013 22.892 36.027 22.892 12.594.175 24.369.117 39.19 31.204 15.113 30.913 20.913 60.771 27.357 90.337 5.975 24.062 12.594 48.066 26.302 70.899.117 6.381.176 12.88.293 19.378-20.034-30.736-28.411-60.478-35.851-90.16-5.272-24.063-9.9-47.949-22.026-70.782-11.833-23.009-21.733-23.009-31.868-23.009-13.766 0-28.294-.175-48.036-31.205-19.565-31.146-21.089-60.946-21.674-90.746.117-24.062.996-48.183-11.365-70.723-12.595-22.423-27.943-22.247-43.994-21.779-21.206.585-43.056 1.171-65.2-27.458-23.373-27.341-21.381-54.038-19.33-79.681 1.464-19.964 3.162-39.577-16.462-54.799-20.21-14.753-43.466-12.119-66.43-10.011-29.173 1.756-58.463 3.103-88.807-17.271-30.814-20.023-30.814-38.055-30.521-55.092-.293-12.997-.41-25.35-23.197-37.352-23.023-11.943-47.099-13.758-71-16.276-30.051-4.04-59.81-8.957-90.799-28.629-30.93-19.847-30.989-31.146-30.813-41.45-.117-7.787-.117-14.93-22.905-26.873 6.444.118 13.005.293 19.741.41h-.058zm60.396 1.523c30.52 11.357 30.228 17.739 30.228 25.233-.176 6.44-.293 13.758 22.553 24.648 22.846 10.713 47.098 12.88 71.292 14.753 29.759 1.171 59.928 1.522 91.034 12.529 31.106 10.89 30.813 24.062 30.813 38.347-.117 12.061 0 24.648 22.436 35.948 22.26 11.299 46.044 8.489 69.418 5.503 28.411-4.215 57.115-9.309 83.594 6.147 24.662 17.564 21.381 40.338 18.218 64.635-2.988 20.491-5.565 41.333 8.846 60.595 13.707 19.964 29.934 19.144 45.458 18.383 18.277-.878 35.617-1.522 47.684 28.512 11.365 30.736 8.377 60.419 6.327 90.16-1.055 24.18-1.465 48.242 9.138 71.309 10.72 23.009 20.621 23.009 29.876 22.892 10.662.117 20.503.117 31.282 31.205 11.247 30.912 15.231 60.594 20.034 90.16 4.628 24.297 9.725 48.359 20.679 71.016.176 6.85.41 13.29.586 19.847-16.168-30.736-22.905-60.595-28.587-90.629-3.925-24.003-7.205-47.949-16.461-70.723-9.021-22.892-17.164-23.009-25.834-23.009-11.716.293-24.194.176-39.952-31.029-15.582-31.146-15.523-60.946-14.469-90.863 1.64-24.179 3.925-48.183-5.507-70.782-9.841-22.13-23.783-21.837-38.545-21.252-19.332.937-39.366 1.756-58.581-26.111-20.913-26.112-17.808-51.813-14.937-76.695 2.108-19.086 4.51-37.762-14.235-50.994-19.566-12.412-42.588-8.548-65.61-5.21-28.822 3.395-57.995 6.381-88.105-10.304-30.755-16.276-30.755-32.259-30.52-47.423-.117-11.357.117-22.247-22.905-31.204-22.905-9.075-47.216-9.543-71.175-10.714-30.052-2.108-59.986-5.328-91.034-21.077-30.989-15.983-30.93-25.233-30.52-33.605 0-6.148.293-11.534-22.436-20.725 6.444.175 13.005.41 19.859.468l.058.059zm59.928 1.463c30.637 7.436 30.52 12.06 30.227 17.623 0 5.093-.176 11.006 22.612 18.851 22.905 7.728 47.216 8.49 71.058 8.782 29.934-.644 59.869-2.283 91.033 4.742 31.106 6.967 30.99 18.325 30.93 30.561-.116 10.714 0 21.779 22.32 30.268 22.026 8.548 45.751 4.333 69.066-.292 28.294-5.796 56.413-12.412 82.246-.117 23.198 14.929 19.332 36.766 15.231 59.892-3.866 19.847-7.322 39.987 4.921 58.487 11.658 19.203 26.42 18.325 40.655 17.33 16.871-1.054 32.395-2.108 40.537 27.868 7.733 30.502 2.812 60.419-1.171 89.984-2.578 24.18-4.628 48.242 2.987 71.368 7.967 22.833 16.403 22.833 24.077 22.891 8.787.176 16.754.117 23.666 31.147 7.323 30.795 9.314 60.595 12.243 90.277 3.105 24.063 6.62 48.066 14.821 70.607.117 6.732.293 13.172.469 19.729-12.302-30.736-17.164-60.419-20.913-90.043-2.402-24.062-4.218-48.066-10.603-70.782-6.093-23.008-12.712-23.008-19.859-22.891-9.842.117-20.445-.117-32.336-31.205-11.658-31.205-9.549-61.064-6.444-90.746 3.046-24.18 6.854-48.242.176-70.724-7.147-21.954-19.566-21.603-32.747-20.9-17.925 1.17-36.319 2.107-52.37-24.765-18.219-24.824-14.06-49.823-10.018-73.592 2.519-18.091 5.566-36.006-12.419-47.13-18.687-10.421-41.533-5.093-64.145-.468-28.821 5.093-57.701 9.718-87.636-3.103-30.637-12.529-30.637-26.58-30.227-39.87-.176-9.836-.176-19.203-23.14-25.35-23.021-6.089-47.157-4.918-70.999-4.625-30.227-.293-60.103-1.464-91.092-13.29-30.93-12.12-30.813-19.554-30.462-25.936-.117-4.625.117-8.665-22.553-15.046 6.444.175 13.005.41 19.741.468h.118zm59.634.761c30.521 3.689 30.638 6.675 30.638 10.538-.117 3.747-.176 8.08 22.553 13.115 22.846 4.918 47.099 4.156 71.058 2.693 29.876-2.693 59.634-6.265 90.74-3.103 31.224 2.986 31.224 12.646 31.107 23.126 0 9.25 0 18.851 22.26 24.355 22.026 5.854 45.634.175 68.773-5.796 28.002-7.494 55.945-15.925 80.9-6.558 21.967 12.354 17.457 32.962 12.126 55.268-4.628 19.203-9.08 38.816 1.171 56.379 9.549 18.384 22.905 17.33 35.91 16.159 15.231-1.464 28.997-2.108 33.625 27.575 3.866 30.444-2.988 60.009-9.021 89.692-4.042 24.004-7.499 48.066-2.812 71.25 4.921 22.95 11.833 22.95 18.101 22.95 7.147.176 13.298.469 16.403 31.674 3.456 30.853 3.397 60.185 4.335 89.575 1.347 24.062 3.456 48.066 8.787 70.606.117 6.733.292 13.173.41 19.671-8.377-30.619-11.189-60.419-13.181-90.16-.879-23.77-1.054-47.656-4.511-70.431-3.163-23.008-8.377-23.008-14.059-23.301-7.967.293-16.637 0-24.662-31.029-7.791-31.205-3.749-61.005 1.054-90.746 4.804-24.063 10.135-48.066 6.268-70.431-4.334-21.837-15.406-21.369-27.356-20.784-16.11 1.464-33.04 2.811-46.045-23.242-15.523-23.594-10.134-47.774-5.389-70.607 3.398-17.329 6.971-34.19-10.134-43.382-18.043-8.196-40.538-1.64-63.208 4.332-28.236 6.733-57.233 13.173-86.992 4.04-30.52-8.548-30.345-20.9-30.227-32.142 0-8.489-.118-16.275-23.022-19.671-23.022-3.161-47.216-.41-71.058 1.522-29.935 1.64-59.986 2.342-91.034-5.562-30.813-8.196-30.637-13.758-30.344-18.383-.118-3.279 0-5.855-22.612-9.309 6.443.117 12.887.117 19.565.117h-.117z" stroke="#403730" stroke-opacity=".12" stroke-width="3" mask="url(#b)"/></g></svg>