<svg width="58" height="58" fill="none" xmlns="http://www.w3.org/2000/svg"><path d="M56.32 50.707v-.03l-.599-7.812a2.78 2.78 0 00-1.333-2.171l-.136-.083-.356-2.61a4.17 4.17 0 001.123-1.465 4.122 4.122 0 00.378-1.727v-3.145a3.237 3.237 0 00-3.234-3.233h-1.836a3.24 3.24 0 00-3.136 2.446.858.858 0 00-.086.528 3.357 3.357 0 00-.011.258v3.146a4.15 4.15 0 001.903 3.486l-.236 2.353a.845.845 0 00-.134.127l-5.135 6.148-3.557-.013a.792.792 0 00-.193.022 3.737 3.737 0 00-1.647.845v-1.161a5.377 5.377 0 00-3.661-5.1l-1.469-.494a1.554 1.554 0 01-1.059-1.478v-1.581l.5-.304a2.977 2.977 0 001.419-2.527v-4.879a3.282 3.282 0 00-3.277-3.279h-3.004a3.282 3.282 0 00-3.277 3.28v4.879c0 1.024.544 1.993 1.42 2.526l.5.305v1.58c0 .434-.183.851-.498 1.145a1.529 1.529 0 01-.564.334l-1.466.494a5.377 5.377 0 00-3.662 5.1v1.226a3.734 3.734 0 00-1.718-.91.808.808 0 00-.193-.022l-3.557.012-5.135-6.148a.83.83 0 00-.134-.127l-.236-2.353a4.15 4.15 0 001.904-3.486v-3.145c0-.088-.005-.174-.011-.26a.849.849 0 00-.087-.527 3.239 3.239 0 00-3.136-2.446H5.859a3.237 3.237 0 00-3.234 3.233v3.145a4.12 4.12 0 00.404 1.785c.26.545.637 1.024 1.096 1.406l-.355 2.612-.136.082a2.78 2.78 0 00-1.333 2.17l-.6 7.813v.03l-.002.035v2.16A5.104 5.104 0 006.8 58h44.424c2.812 0 5.1-2.287 5.1-5.098v-2.16l-.002-.035zM50.328 30.13h1.836c.846 0 1.535.688 1.535 1.534v3.143l-.884-.62v-.795a1.62 1.62 0 00-1.03-1.514L49.06 30.8c.276-.404.74-.67 1.266-.67zm-1.534 2.392l2.322.918v.782c0 .53.258 1.03.693 1.334l1.263.887a2.446 2.446 0 01-1.826.817 2.455 2.455 0 01-2.452-2.451v-2.287zm2.453 6.437c.362 0 .713-.047 1.048-.135l.137 1.004a4.593 4.593 0 00-1.88.01l.092-.923c.197.029.398.044.603.044zm-11.21 9.651l3.85.014h.003c.252 0 .49-.112.652-.305l5.32-6.37a2.91 2.91 0 013.165-.093l.483.292c.299.18.492.495.518.845l.529 6.899h-4.14v-2.974l.512-.537a.85.85 0 10-1.23-1.172l-4.46 4.683H38.66a2.02 2.02 0 011.376-1.282zm-6.145-5.483a3.679 3.679 0 012.505 3.489v3.276h-6.01l1.156-1.164a.849.849 0 00.207-.852l-1.673-5.346c.499-.072.99-.188 1.471-.35.267.195.564.349.878.454l1.466.493zm-6.006-4.163a2.943 2.943 0 002.323 0v.58c0 .414.077.816.223 1.19a6.722 6.722 0 01-2.8.07c.165-.395.254-.824.254-1.26v-.58zm1.107 5.792l.983 3.139-.993 1-.883-.985.893-3.154zm-1.448-16.082h3.004c.87 0 1.578.708 1.578 1.58v1.1l-4.102-1.32a.852.852 0 00-.653.056l-1.404.732v-.568c0-.872.708-1.58 1.577-1.58zm-1.577 4.065l1.875-.978 4.284 1.378v1.993c0 .437-.232.849-.604 1.076l-1.822 1.11a1.252 1.252 0 01-1.307 0l-1.822-1.11a1.267 1.267 0 01-.604-1.076V32.74zm-1.766 10.388l1.464-.492a3.21 3.21 0 00.768-.375c.464.14.937.239 1.416.297l-1.512 5.341c-.08.28-.01.582.185.799l1.072 1.195h-5.897v-3.276a3.678 3.678 0 012.504-3.489zM6.777 37.26a2.447 2.447 0 01-1.827-.817l1.264-.887c.434-.305.693-.803.693-1.334v-.782l2.322-.918v2.287c0 1.351-1.1 2.45-2.452 2.45zm-.918-7.13h1.835c.526 0 .99.266 1.267.67l-2.723 1.078a1.62 1.62 0 00-1.03 1.514v.794l-.884.62v-3.142c0-.846.688-1.534 1.535-1.534zm.918 8.829c.204 0 .405-.015.602-.044l.093.922a4.595 4.595 0 00-1.88-.009l.136-1.003c.335.087.687.134 1.049.134zm-2.782 4.032a1.08 1.08 0 01.518-.843l.483-.292a2.91 2.91 0 013.164.092l5.32 6.37a.85.85 0 00.653.306h.003l3.85-.014c.656.18 1.16.666 1.375 1.282h-6.577l-4.46-4.683a.85.85 0 10-1.23 1.172l.51.537v2.974H3.467l.529-6.901zm50.628 9.91a3.403 3.403 0 01-3.4 3.4H6.799a3.404 3.404 0 01-3.4-3.4v-1.31h4.206v.208c0 .877.33 1.712.931 2.352a.847.847 0 001.201.037.85.85 0 00.038-1.201 1.728 1.728 0 01-.47-1.188v-3.097l2.274 2.389v.407c0 1.83 1.49 3.32 3.321 3.32h3.579a.85.85 0 100-1.7H14.9c-.86 0-1.564-.672-1.617-1.518h7.043a.873.873 0 00.123-.01h17.125c.04.006.08.01.122.01h7.217a1.623 1.623 0 01-1.618 1.518h-21.18a.85.85 0 000 1.7h21.18c1.83 0 3.32-1.49 3.32-3.32v-.552l-.002-.035 2.105-2.209V51.8c0 .443-.167.865-.47 1.188a.85.85 0 001.238 1.164c.6-.64.93-1.475.93-2.352v-.208h4.207v1.31z" fill="#151F59"/><path d="M5.048 25.256h.143a3.609 3.609 0 006.527 0h12.197a2.425 2.425 0 002.288-1.63 4.303 4.303 0 005.549-.404 2.425 2.425 0 002.389 2.034h12.197a3.608 3.608 0 006.528 0h.142a2.426 2.426 0 002.423-2.422V9.482a2.426 2.426 0 00-2.423-2.423h-6.887a.85.85 0 100 1.7h6.887c.4 0 .724.324.724.723v13.352a.724.724 0 01-.724.723h-.245c-.613 0-1.166.362-1.41.922a1.91 1.91 0 01-3.502 0 1.537 1.537 0 00-1.411-.922H34.141a.724.724 0 01-.724-.723v-.975h7.151a2.826 2.826 0 002.823-2.823V2.823A2.826 2.826 0 0040.568 0H16.911a2.826 2.826 0 00-2.824 2.823v4.236H5.048a2.426 2.426 0 00-2.423 2.423v1.205a.85.85 0 001.7 0V9.482c0-.4.324-.724.723-.724h9.04v10.278a2.826 2.826 0 002.823 2.823h7.728v.975a.724.724 0 01-.724.723H11.617c-.614 0-1.168.362-1.412.922a1.91 1.91 0 01-3.501 0 1.537 1.537 0 00-1.411-.922h-.245a.724.724 0 01-.724-.723v-8.569a.85.85 0 10-1.7 0v8.57a2.426 2.426 0 002.424 2.421zm10.738-6.22V2.823c0-.62.505-1.124 1.125-1.124h23.657c.62 0 1.124.504 1.124 1.124v16.213c0 .62-.504 1.124-1.124 1.124h-7.864a1.715 1.715 0 00-.315.03 1.708 1.708 0 00-1.257.996 2.608 2.608 0 01-4.786 0 1.711 1.711 0 00-1.572-1.026h-7.863c-.62 0-1.125-.504-1.125-1.124z" fill="#151F59"/><path d="M19.32 6.542h18.376a.85.85 0 100-1.699H19.321a.85.85 0 100 1.7zm0 4.366h18.376a.85.85 0 100-1.7H19.321a.85.85 0 000 1.7zm10.767 3.516a.85.85 0 00-.85-.85h-9.916a.85.85 0 100 1.7h9.916a.85.85 0 00.85-.85z" fill="#151F59"/></svg>