<svg width="70" height="70" fill="none" xmlns="http://www.w3.org/2000/svg"><g clip-path="url(#clip0)" fill="#151F59"><path d="M55.401 59.096h-4.084a1.026 1.026 0 100 2.05h4.084a1.025 1.025 0 100-2.05zm-17.831-.045l-3.291-2.88a1.027 1.027 0 00-1.351 1.544l3.29 2.88a1.023 1.023 0 001.448-.097 1.025 1.025 0 00-.097-1.447zm-13.81.045h-4.085a1.025 1.025 0 100 2.05h4.085a1.025 1.025 0 100-2.05zm-17.832-.045l-3.29-2.88a1.027 1.027 0 00-1.351 1.544l3.29 2.88a1.023 1.023 0 001.447-.097 1.025 1.025 0 00-.096-1.447z"/><path d="M69.714 11.272a1.488 1.488 0 00-1.011-.595l-14.18-1.778a1.48 1.48 0 00-1.389 2.333l3.27 4.56-15.034 8.924-8.306-14.507a1.886 1.886 0 00-1.343-.929 1.886 1.886 0 00-1.567.46L15.446 22.93a1.026 1.026 0 101.37 1.528L31.38 11.396l8.594 15.008c.173.303.454.518.792.607.337.09.688.04.988-.138l16.373-9.719a1.33 1.33 0 00.402-1.917l-2.97-4.142 12.29 1.541-2.275 12.33-2.982-4.204a1.322 1.322 0 00-1.753-.379l-5.332 3.11c-.188.065-.37.148-.547.25l-2.174 1.255a3.15 3.15 0 00-.549.402l-1.962 1.144a2.93 2.93 0 00-.424.096c-.08.024-.156.059-.228.101L38.446 33.43l-7.67-12.142a1.874 1.874 0 00-2.557-.612l-10.003 5.962-.007.002c-.08.024-.156.059-.227.101L6.822 33.42l7.114-6.38a1.025 1.025 0 10-1.37-1.526L.47 36.363a1.4 1.4 0 00-.194 1.878 1.4 1.4 0 001.852.375l.608-.363c.343.499.813.906 1.378 1.178.983.474 2.11.471 3.091-.009l4.592-2.246-2.389 11.669a.82.82 0 01-.27.458 1.025 1.025 0 101.328 1.562c.487-.413.825-.985.952-1.608l.591-2.868c.58.94 1.37 1.76 2.338 2.388l-.886 2.187c-.13.264-.425.445-.926.737l-.195.115-5.836 3.343-.536-.442L7.272 53.6a1.025 1.025 0 00-1.334-1.558L4.118 53.6c-.334.284-.523.7-.519 1.138.003.438.2.85.537 1.127l1.307 1.078a1.609 1.609 0 001.807.152l6.115-3.503.013-.008.19-.11c.637-.373 1.359-.794 1.762-1.667a.785.785 0 00.02-.045l.787-1.941 2.242 1.288c.454.261.717.767.67 1.288l-.395 4.339a1.204 1.204 0 001.196 1.309h2.459c.561 0 1.042-.381 1.17-.926l1.52-6.487a2.886 2.886 0 00-.325-2.457l-5.016-7.078 2.751-7.432.005-.014c.224-.63.342-1.28.36-1.927a3.14 3.14 0 002.03-.39l2.172-1.256a3.165 3.165 0 001.157-4.318l-.497-.86a3.151 3.151 0 00-.87-.97l2.363-1.408 7.556 11.962-2.375 1.422c-.379.226-.57.67-.475 1.1a3.519 3.519 0 001.92 2.425c.982.475 2.11.472 3.09-.008l9.066-4.434a1.025 1.025 0 10-.902-1.842l-9.064 4.434a1.479 1.479 0 01-1.3.003 1.484 1.484 0 01-.498-.388l2.497-1.495 12.215-7.123a.89.89 0 01.55.324l.043.054c.05.122.11.242.177.36l.497.86a4.174 4.174 0 01-.002 2.785l-2.657 7.177-3.925-.454-.503-.059.025-.128a1.026 1.026 0 10-2.01-.403l-2.005 9.748a.828.828 0 01-.274.463L35.76 53.6a1.477 1.477 0 00.018 2.265l1.304 1.076a1.61 1.61 0 001.81.154l6.116-3.503.013-.008c.064-.038.127-.075.19-.11.636-.373 1.358-.794 1.761-1.668a.696.696 0 00.02-.044l.787-1.941 2.242 1.288c.454.261.717.767.67 1.288l-.395 4.339a1.203 1.203 0 001.197 1.31h2.458a1.2 1.2 0 001.17-.927l1.52-6.487a2.89 2.89 0 00-.325-2.457L51.3 41.097l2.751-7.432.005-.014a6.26 6.26 0 00.36-1.927 3.141 3.141 0 002.03-.39l2.173-1.256a3.165 3.165 0 001.156-4.318l-.496-.86a3.172 3.172 0 00-.693-.828l2.716-1.584 3.38 4.762a1.48 1.48 0 001.528.59 1.48 1.48 0 001.138-1.178l2.629-14.246a1.49 1.49 0 00-.262-1.144zM23.041 50.019a.859.859 0 00-.028.1l-1.378 5.875h-.854l.31-3.411a3.405 3.405 0 00-1.69-3.252l-3.676-2.112a5.525 5.525 0 01-2.735-5.576l.783.09 4.163.483 5.041 7.111c.12.211.143.462.064.692zm-2.558-17.058l-2.657 7.176-4.109-.475-.32-.037.718-3.583 2.155-1.054a1.025 1.025 0 10-.902-1.842l-2.6 1.273c-.007.002-.012.005-.017.008L6.303 37.58a1.49 1.49 0 01-1.797-.383l14.477-8.628c.298-.03.592.09.785.332l.042.054a3.2 3.2 0 00.178.36l.496.86.002.004c.313.887.32 1.862-.003 2.782zm5.468-4.66l-2.174 1.256a1.098 1.098 0 01-.842.11 1.098 1.098 0 01-.605-.413 6.275 6.275 0 00-.686-1.268 1.111 1.111 0 01.526-1.212l2.174-1.255a1.105 1.105 0 01.843-.111c.286.077.525.26.674.517l.496.86c.306.53.124 1.21-.406 1.517zM45.1 50.965c-.13.264-.424.445-.925.738l-.195.114-5.836 3.343-.536-.442 4.498-3.852a2.89 2.89 0 00.951-1.608l.592-2.867a7.602 7.602 0 002.338 2.387l-.886 2.187zm9.582-.945a1.65 1.65 0 00-.03.1l-1.376 5.875h-.855l.31-3.411a3.406 3.406 0 00-1.69-3.252l-3.675-2.112a5.525 5.525 0 01-2.735-5.576l.986.114 3.96.459 5.04 7.111c.12.211.144.462.065.692zm1.856-24.65a1.118 1.118 0 01.963.556l.497.86c.306.53.124 1.21-.407 1.517l-2.173 1.255a1.098 1.098 0 01-.842.11 1.099 1.099 0 01-.606-.413 6.281 6.281 0 00-.685-1.268c-.078-.336.007-.69.223-.954l2.809-1.637c.072-.015.146-.026.22-.026z"/></g><defs><clipPath id="clip0"><path fill="#fff" d="M0 0h70v70H0z"/></clipPath></defs></svg>