<svg width="74" height="49" fill="none" xmlns="http://www.w3.org/2000/svg"><path d="M62.12 44.728h2.607a1.084 1.084 0 001.058-1.321l-1.736-7.726 4.474 8.47c.187.355.556.577.958.577h2.607a1.085 1.085 0 001.042-1.382l-3.216-11.23a.546.546 0 01.025-.363l3.97-9.096.005-.014.016-.042.02-.056.004-.014.004-.016.007-.023.011-.049.007-.03.005-.04.005-.033a1.3 1.3 0 00.004-.05l.002-.04v-.018l.001-.018-.085-10.206v-.04a4.625 4.625 0 00-1.542-3.255 4.802 4.802 0 00-.544-.42c.409-.365.72-.828.9-1.36l.802-2.364A3.211 3.211 0 0071.522.5l-.935-.318a3.19 3.19 0 00-2.45.162 3.19 3.19 0 00-1.618 1.847l-.802 2.364a3.21 3.21 0 00.63 3.147l-15.094.989a1.084 1.084 0 00-1.013 1.09c.01 1.183.48 2.29 1.323 3.12a4.386 4.386 0 003.138 1.266l1.082-.007v2.29a.8.8 0 01-.8.799h-13.48a.8.8 0 01-.8-.8V2.97a.8.8 0 01.8-.801h13.48c.441 0 .8.359.8.8v2.142a1.084 1.084 0 002.168 0V2.97A2.972 2.972 0 0054.983 0h-13.48a2.971 2.971 0 00-2.968 2.97v13.48a2.97 2.97 0 002.967 2.969h13.481a2.971 2.971 0 002.968-2.968v-2.306l6.105-.043.333 7.605-7.245 7.535a3.26 3.26 0 00-.514 3.898l4.488 10.916c.166.407.563.672 1.002.672zm5.832-13.842a2.71 2.71 0 00-.121 1.828l2.819 9.846h-.515L64.42 31.742l-.01-.016-.108-.208a1.104 1.104 0 00-.119-.179.623.623 0 01-.12-.557l2.235-7.563 4.97.067-3.317 7.6zm-.181-25.633l.8-2.365c.09-.263.276-.476.525-.598a1.039 1.039 0 01.794-.053l.936.317c.543.184.835.776.65 1.318l-.8 2.365a1.035 1.035 0 01-1.319.65l-.935-.316a1.04 1.04 0 01-.651-1.318zm-10.896 6.732h-.02L54.683 12a2.231 2.231 0 01-1.6-.646 2.24 2.24 0 01-.43-.581l16.453-1.078a2.474 2.474 0 011.818.632c.496.445.787 1.055.823 1.72l.075 9.077-5.292-.072-.305-6.965.85-.005a1.084 1.084 0 00-.008-2.169h-.007l-10.185.072zm1.657 20.112a1.097 1.097 0 01.166-1.343l4.495-4.675-1.21 4.098a2.797 2.797 0 00.145 1.927l-.277.295a.918.918 0 00-.089.107 1.892 1.892 0 00-.262 1.721l1.872 8.333h-.526l-4.24-10.314a1.02 1.02 0 00-.074-.149zm14.384 14.121h-4.32a1.084 1.084 0 100 2.168h4.32a1.084 1.084 0 100-2.168zm-7.798 0H60.8a1.084 1.084 0 100 2.168h4.32a1.084 1.084 0 100-2.168zM12.792 21.693l.058-4.292 2.134 1.188c.107.058.215.108.327.15v.644c0 1.6 1.301 2.9 2.9 2.9h13.003c1.599 0 2.9-1.3 2.9-2.9V6.38c0-1.6-1.301-2.902-2.9-2.902H18.21a2.904 2.904 0 00-2.9 2.902v5.672l-3.89-2.494a3.186 3.186 0 00.943-1.983l.234-2.485a3.21 3.21 0 00-2.891-3.495l-.984-.093a3.189 3.189 0 00-2.346.722 3.188 3.188 0 00-1.149 2.17l-.235 2.485a3.193 3.193 0 00.594 2.177c-.142.12-.278.249-.404.392l-.494.56a5.703 5.703 0 00-1.424 3.722l-.07 8.42-.61 4.73a1.084 1.084 0 002.15.277l.499-3.862 4.94-.067-1.509 4.374-.014.042L3.506 42.56H2.75l1.386-10.753a1.084 1.084 0 10-2.15-.277L.442 43.505a1.085 1.085 0 001.076 1.223h2.76c.463 0 .875-.293 1.026-.73l4.822-13.98L13.59 33.7l-2.18 9.708a1.085 1.085 0 001.059 1.321h2.606c.44 0 .836-.265 1.003-.672l4.486-10.916a3.256 3.256 0 00-.51-3.892l-7.262-7.555zm5.42-16.046h13.002c.404 0 .732.328.732.733v13.003a.733.733 0 01-.732.732H18.21a.733.733 0 01-.732-.732v-.616l4.478-.552a5.112 5.112 0 004.483-5.068 1.083 1.083 0 00-1.2-1.078l-7.76.827V6.38c0-.405.328-.733.731-.733zM7.151 7.084l.235-2.486c.026-.277.158-.526.372-.704a1.033 1.033 0 01.76-.233l.983.092c.571.054.992.563.938 1.133l-.235 2.486a1.032 1.032 0 01-.984.94 3.837 3.837 0 00-1.419-.166 1.04 1.04 0 01-.65-1.062zm-1.719 6.664a3.53 3.53 0 01.882-2.306l.494-.56c.243-.275.555-.454.888-.531.062.01.125.018.188.024l.89.084c.073.034.145.072.215.118l6.508 4.17.015.01c.162.1.335.179.513.24l.049.017c.328.104.678.14 1.024.103l6.9-.735a2.943 2.943 0 01-2.306 1.682l-5.447.67a.337.337 0 01-.208-.04l-3.702-2.059a.933.933 0 00-.041-.023l-2.511-1.396a1.083 1.083 0 10-1.054 1.895l1.967 1.093-.065 4.849-5.26.071.061-7.376zm13.229 18.35a1.077 1.077 0 00-.075.148L14.349 42.56h-.526l1.87-8.332a1.887 1.887 0 00-.26-1.722 1.014 1.014 0 00-.09-.107l-4.42-4.695 1.226-3.552 6.347 6.602.01.01c.351.356.415.904.156 1.333zM5.403 46.218H1.084a1.084 1.084 0 100 2.168h4.319a1.084 1.084 0 100-2.168zm10.992 0h-4.32a1.084 1.084 0 100 2.168h4.32a1.084 1.084 0 100-2.168z" fill="#151F59"/><path d="M53.26 46.218h-2.434c.185-.43.287-.904.287-1.401V27.04c0-1.967-1.6-3.568-3.569-3.568H37.462a1.084 1.084 0 000 2.168h10.084c.772 0 1.4.628 1.4 1.4v17.777c0 .772-.628 1.4-1.4 1.4H29.77c-.772 0-1.4-.628-1.4-1.4V27.04c0-.771.628-1.4 1.4-1.4h2.386a1.084 1.084 0 100-2.168H29.77a3.573 3.573 0 00-3.569 3.568v17.777c0 .497.102.97.287 1.4h-2.85a1.084 1.084 0 100 2.169H53.26a1.084 1.084 0 100-2.168z" fill="#151F59"/></svg>