<svg width="50" height="62" fill="none" xmlns="http://www.w3.org/2000/svg"><path d="M49.706 60.515l-4.025-4.906a.909.909 0 00-1.405 1.153l4.026 4.906a.907.907 0 001.279.126.908.908 0 00.125-1.279zm-7.776-9.476l-3.35-4.326a1.587 1.587 0 00-2.224-.283l-.784.606-1.39-1.363a10.302 10.302 0 00-7.253-2.962H11.506l-6.762-6.756c-1.064-1.063-2.75-1.119-3.84-.128A2.73 2.73 0 000 37.8a2.77 2.77 0 00.756 1.963l4.006 5.39a.909.909 0 001.459-1.084L2.179 38.63a.926.926 0 00-.087-.1.932.932 0 01-.275-.688.932.932 0 01.308-.672c.366-.332.964-.301 1.334.07l7.028 7.021c.17.17.401.266.642.266h15.8c2.25 0 4.375.867 5.981 2.443l1.212 1.187-3.213 2.486a4.968 4.968 0 00-3.538-1.466H11.325a2.608 2.608 0 01-2.083-1.046l-.898-1.208a.908.908 0 10-1.457 1.084l.897 1.208a4.433 4.433 0 003.541 1.779h16.047a3.16 3.16 0 012.081.775l-.427.33c-.335.26-.549.633-.602 1.053-.054.421.06.836.32 1.172l3.357 4.334v.002l2.314 2.987a.906.906 0 001.274.161.908.908 0 00.162-1.274l-1.757-2.269 1.257-.972 5.727-4.43.926 1.13a.909.909 0 001.405-1.153l-1.48-1.802zm-4.645-3.03l2.66 3.435-6.964 5.386-2.66-3.434 6.964-5.387zm-26.672-29.28h.007a.909.909 0 00.908-.902c.037-4.655 4.003-8.642 8.66-8.707a8.716 8.716 0 016.297 2.53A8.715 8.715 0 0129.1 17.9a8.69 8.69 0 01-1.829 5.362 12.4 12.4 0 00-2.498 6.008l-.364 2.857a.496.496 0 01-.421.426h-6.946a.492.492 0 01-.416-.411l-.437-2.755c-.34-2.146-1.271-4.204-2.694-5.951a8.772 8.772 0 01-1.276-2.117.909.909 0 00-1.673.71c.39.917.907 1.777 1.54 2.554 1.22 1.5 2.019 3.26 2.309 5.089l.437 2.754a2.3 2.3 0 001.359 1.758l.655 3.53a1.782 1.782 0 001.752 1.456h4.14c.872 0 1.611-.625 1.756-1.486l.613-3.639a2.314 2.314 0 001.104-1.688l.364-2.857a10.6 10.6 0 012.133-5.127 10.49 10.49 0 002.209-6.474c0-2.857-1.121-5.536-3.156-7.543a10.534 10.534 0 00-7.598-3.053c-2.732.038-5.334 1.163-7.327 3.167-1.994 2.005-3.103 4.612-3.125 7.343a.91.91 0 00.902.916zm12.095 18.624h-4.08l-.553-2.976h5.133l-.5 2.976z" fill="#151F59"/><path d="M21.878 20.513l.345-.29.473-.451c.097-.096.247-.268.447-.515.201-.247.353-.47.456-.668.104-.199.201-.443.292-.732a2.92 2.92 0 00.137-.885c0-.879-.337-1.607-1.012-2.185-.675-.578-1.579-.867-2.71-.867-1.013 0-1.82.229-2.423.686-.603.458-.903.94-.903 1.445 0 .277.092.491.279.642.185.15.393.225.621.225a.69.69 0 00.477-.184c.138-.123.255-.254.351-.394.096-.139.277-.27.54-.393.265-.123.595-.184.991-.184.564 0 1.015.133 1.351.401.336.268.504.646.504 1.134 0 .286-.07.562-.207.83-.139.268-.278.47-.416.607-.139.137-.346.325-.624.563l-.524.428c-.723.643-1.084 1.584-1.084 2.822 0 .38.063.642.19.785.126.143.34.215.641.215.602 0 .904-.218.904-.65 0-.615.048-1.085.144-1.41.096-.325.35-.65.76-.975zm-1.79 4.334c-.338 0-.609.121-.813.362-.206.24-.308.53-.308.867 0 .325.102.611.308.857.204.247.475.37.813.37.337 0 .626-.123.868-.37a1.19 1.19 0 00.361-.857c0-.337-.12-.626-.361-.867a1.185 1.185 0 00-.868-.362zm.572-19.992a.908.908 0 00.909-.908V.908a.908.908 0 00-1.817 0v3.039c0 .501.407.908.909.908zm14.051 14.042h3.04a.909.909 0 100-1.817h-3.04a.908.908 0 100 1.817zm-31.141 0h3.04a.908.908 0 000-1.817H3.57a.909.909 0 100 1.817zm27.026-9.929a.905.905 0 00.642-.266l2.15-2.148a.908.908 0 10-1.285-1.285l-2.15 2.148a.909.909 0 00.643 1.551zM8.575 30.974a.906.906 0 00.642-.265l2.15-2.149a.909.909 0 00-1.284-1.285l-2.15 2.148a.909.909 0 00.642 1.551zm22.663-3.699a.908.908 0 10-1.285 1.285l2.15 2.149a.905.905 0 001.285 0 .909.909 0 000-1.286l-2.15-2.148zM10.083 8.702a.907.907 0 001.284 0 .909.909 0 000-1.285l-2.15-2.148a.908.908 0 10-1.284 1.285l2.15 2.148z" fill="#151F59"/></svg>