<svg width="58" height="58" fill="none" xmlns="http://www.w3.org/2000/svg"><path d="M53.695 0H20.024a3.582 3.582 0 00-3.578 3.579v10.726h-1.119c-.35 0-.694-.056-1.023-.167l-.82-.276a1.512 1.512 0 01-.611-.387l-.008-.009a1.525 1.525 0 01-.418-1.052V10.86l.488-.297a2.947 2.947 0 001.405-2.502V3.247A3.248 3.248 0 0011.097 0H8.134a3.249 3.249 0 00-3.243 3.247V8.06c0 1.016.538 1.975 1.405 2.503l.487.297v1.554c0 .424-.178.833-.487 1.122a1.513 1.513 0 01-.55.326l-1.448.488A5.313 5.313 0 00.68 19.39v11.676a4.268 4.268 0 003.41 4.176v3.613a.85.85 0 001.7 0V31.89h7.405v21.45h-2.853V35.344a.85.85 0 10-1.7 0V53.34H5.79V42.216a.85.85 0 10-1.7 0v11.975c0 .309.166.579.413.727a3.108 3.108 0 00-.412 1.55v.478c0 .581.473 1.054 1.054 1.054h4.143c.07 0 .138-.007.204-.02.067.013.135.02.205.02h4.143c.58 0 1.054-.473 1.054-1.054v-.479c0-.563-.15-1.092-.413-1.549a.848.848 0 00.413-.727V20.213c0-.163.132-.295.294-.295h9.623a4.317 4.317 0 004.313-4.311v-.34a.962.962 0 00-.96-.962H26.62l1.215-1.136a2.39 2.39 0 002.64-.345l2.235 1.2a2.399 2.399 0 00-.023.316 2.409 2.409 0 002.406 2.406A2.409 2.409 0 0037.5 14.34c0-.438-.12-.849-.326-1.203l1.99-2.437a2.386 2.386 0 001.695-.061l1.622 1.713a2.388 2.388 0 00-.243 1.047 2.409 2.409 0 002.406 2.406A2.409 2.409 0 0047.05 13.4c0-.445-.123-.86-.333-1.217l3.044-3.775c.241.08.498.127.766.127a2.409 2.409 0 002.405-2.407 2.409 2.409 0 00-2.405-2.406 2.409 2.409 0 00-2.407 2.406c0 .44.12.85.326 1.204l-3.052 3.783a2.39 2.39 0 00-1.681.066L42.09 9.468c.154-.317.244-.672.244-1.048a2.409 2.409 0 00-2.407-2.405A2.409 2.409 0 0037.52 8.42c0 .44.12.85.326 1.205l-1.988 2.436a2.392 2.392 0 00-2.343.467l-2.235-1.2c.014-.103.023-.208.023-.315a2.409 2.409 0 00-2.406-2.406 2.409 2.409 0 00-2.224 3.322l-2.54 2.376h-5.988V3.58a1.88 1.88 0 011.878-1.88h33.672c1.037 0 1.88.843 1.88 1.88v28.17a1.882 1.882 0 01-1.88 1.879H20.023a1.881 1.881 0 01-1.878-1.88v-9.203a.85.85 0 10-1.699 0v9.203a3.582 3.582 0 003.577 3.579H24a3.228 3.228 0 00-.451 1.65v4.813c0 1.016.538 1.974 1.405 2.502l.488.298v1.554c0 .424-.178.833-.488 1.121a1.507 1.507 0 01-.55.327l-1.448.487a5.313 5.313 0 00-3.618 5.041v4.03a.85.85 0 101.7 0v-4.03c0-1.556.988-2.935 2.46-3.43l1.448-.487a3.24 3.24 0 00.752-.368 8.28 8.28 0 001.38.29l-1.488 5.258a.846.846 0 00.186.798l1.772 1.976a.85.85 0 00.61.282h.022a.85.85 0 00.603-.25l1.96-1.977a.85.85 0 00.208-.852L29.305 49.1a8.33 8.33 0 001.433-.342c.263.191.556.342.864.446l1.447.486a3.616 3.616 0 012.461 3.431v4.03a.85.85 0 001.7 0v-4.03a3.6 3.6 0 01.679-2.113.85.85 0 00-1.38-.99c-.052.07-.101.144-.149.218a5.304 5.304 0 00-2.769-2.156l-1.449-.488a1.525 1.525 0 01-1.036-1.447V44.59l.488-.298a2.947 2.947 0 001.404-2.502v-4.814a3.23 3.23 0 00-.451-1.65h7.626a3.23 3.23 0 00-.452 1.65v4.814c0 1.016.539 1.974 1.405 2.502l.488.298v1.554a1.516 1.516 0 01-1.038 1.448l-.772.26a.85.85 0 10.542 1.61l.772-.26c.269-.09.52-.214.753-.367a8.26 8.26 0 001.38.29l-1.488 5.257a.85.85 0 00.185.8l1.772 1.975a.85.85 0 00.611.282h.022a.85.85 0 00.603-.25l1.96-1.977a.849.849 0 00.207-.852l-1.646-5.26a8.368 8.368 0 001.433-.342c.263.19.555.342.865.445l1.446.487c.52.175.982.458 1.373.841a3.612 3.612 0 011.09 2.59v4.03a.85.85 0 101.699 0v-4.03a5.3 5.3 0 00-.334-1.855 5.356 5.356 0 00-1.267-1.95 5.262 5.262 0 00-2.018-1.236l-1.449-.488a1.522 1.522 0 01-1.036-1.447V44.59l.487-.297a2.947 2.947 0 001.405-2.502v-4.815c0-.601-.165-1.165-.452-1.649h4.976a3.583 3.583 0 003.579-3.578V3.578A3.583 3.583 0 0053.695 0zm-3.17 5.422a.708.708 0 010 1.413.702.702 0 01-.446-.159l-.007-.007-.002-.001a.707.707 0 01.456-1.246zM45.35 13.4a.708.708 0 11-1.415-.002.708.708 0 011.415.002zm-5.424-5.687a.708.708 0 010 1.414.703.703 0 01-.446-.16l-.005-.003a.705.705 0 01.451-1.25zm-4.833 5.92a.708.708 0 11-.624.377l.002-.004a.708.708 0 01.622-.372zm-6.196-3.327a.708.708 0 01.626 1.034l-.004.006a.707.707 0 01-1.138.149v-.001a.708.708 0 01.516-1.188zM9.564 18.912l.992 4.674-1.003 1.011-.89-.992.9-4.693zm.018-5.154a6.646 6.646 0 01-1.346-.11c.16-.388.246-.807.246-1.234v-.556a2.913 2.913 0 002.266 0v.556c0 .405.075.799.217 1.166a6.67 6.67 0 01-1.383.178zM8.134 1.699h2.963c.851 0 1.544.694 1.544 1.548v1.07L8.61 3.02a.85.85 0 00-.653.055L6.59 3.79v-.542c0-.853.693-1.548 1.544-1.548zM6.59 5.706l1.839-.96 4.212 1.356V8.06c0 .427-.226.83-.59 1.051l-1.798 1.096a1.22 1.22 0 01-1.275 0L7.18 9.112a1.238 1.238 0 01-.59-1.052V5.706zM5.8 56.301a1.429 1.429 0 011.416-1.26c.73 0 1.335.551 1.417 1.26H5.8zm4.552 0a1.428 1.428 0 011.416-1.26c.73 0 1.335.551 1.417 1.26h-2.833zM24.81 18.219h-9.623a1.996 1.996 0 00-1.993 1.994v9.976H5.79v-9.558a.85.85 0 10-1.7 0v12.851a2.566 2.566 0 01-1.711-2.416V19.391c0-1.557.989-2.935 2.46-3.431l1.449-.487c.268-.09.52-.214.751-.368.481.144.971.244 1.467.3l-1.59 8.294a.85.85 0 00.201.727l1.773 1.976a.85.85 0 00.61.282h.022a.85.85 0 00.603-.251l1.96-1.976a.85.85 0 00.228-.775l-1.761-8.3a8.33 8.33 0 001.527-.354c.264.19.556.341.865.445l.817.275a4.9 4.9 0 001.566.257h12.067a2.617 2.617 0 01-2.583 2.214zm6.488 19.827l-4.03-1.297a.85.85 0 00-.653.056l-1.367.714v-.543c0-.853.692-1.547 1.543-1.547h2.963c.851 0 1.544.694 1.544 1.547v1.07zm-1.892 7.541v.557c0 .404.075.798.216 1.165a6.648 6.648 0 01-1.383.178 6.685 6.685 0 01-1.346-.11c.16-.388.247-.807.247-1.233v-.557a2.912 2.912 0 002.266 0zm-1.196 9.765l-.858-.957.868-3.069.955 3.053-.965.973zm2.498-12.51l-1.797 1.096a1.22 1.22 0 01-1.276 0l-1.798-1.096a1.238 1.238 0 01-.59-1.052v-2.355l1.84-.96 4.21 1.356v1.96c0 .426-.225.829-.589 1.05zm16.762-4.796l-4.029-1.297a.85.85 0 00-.654.056l-1.367.714v-.543c0-.853.693-1.547 1.544-1.547h2.962c.852 0 1.544.694 1.544 1.547v1.07zm-1.891 7.54v.558c0 .404.075.799.216 1.165a6.652 6.652 0 01-1.384.178 6.636 6.636 0 01-1.346-.11c.16-.388.247-.807.247-1.233v-.557a2.909 2.909 0 002.267 0zm-1.196 9.766l-.859-.957.868-3.069.956 3.053-.965.973zm2.498-12.51l-1.798 1.096a1.22 1.22 0 01-1.276 0l-1.797-1.096a1.238 1.238 0 01-.59-1.052v-2.355l1.839-.96 4.211 1.356v1.96c0 .426-.225.829-.59 1.05z" fill="#151F59"/><path d="M22.04 24.236h29a.85.85 0 000-1.699h-29a.85.85 0 100 1.7zm0 3.88H37.4a.85.85 0 100-1.699H22.04a.85.85 0 000 1.7z" fill="#151F59"/></svg>