<svg width="42" height="42" fill="none" xmlns="http://www.w3.org/2000/svg"><path d="M40.031 11.813h-3.937a.656.656 0 00-.657.656v24.937a.656.656 0 00.657.657h3.937a.656.656 0 00.657-.657V12.47a.656.656 0 00-.657-.656zm-.656 24.937H36.75V13.125h2.625V36.75zm-5.906 1.313a.656.656 0 00.656-.657V17.72a.656.656 0 00-.656-.657H29.53a.656.656 0 00-.656.657v19.687a.656.656 0 00.656.657h3.938zm-3.282-19.688h2.625V36.75h-2.624V18.375zm-3.281 19.688a.656.656 0 00.657-.657V22.313a.656.656 0 00-.657-.657H22.97a.656.656 0 00-.657.657v15.093a.656.656 0 00.657.657h3.937zm-3.281-15.094h2.625V36.75h-2.625V22.969zm-3.281 15.094a.656.656 0 00.656-.657v-9.843a.656.656 0 00-.656-.657h-3.938a.656.656 0 00-.656.657v9.843a.656.656 0 00.656.657h3.938zm-3.282-9.844h2.625v8.531h-2.625v-8.531zm-3.281 9.844a.656.656 0 00.656-.657v-7.218a.656.656 0 00-.656-.657H9.844a.656.656 0 00-.656.657v7.218a.656.656 0 00.656.657h3.937zm-3.281-7.22h2.625v5.907H10.5v-5.906zm-3.281 7.22a.656.656 0 00.656-.657V33.47a.656.656 0 00-.656-.657H3.28a.656.656 0 00-.656.657v3.937a.656.656 0 00.656.657h3.94zm-3.282-3.938h2.626v2.625H3.938v-2.625zm13.782-22.312h1.312a.656.656 0 100-1.313h-.656v-.656a.656.656 0 10-1.313 0v.769a1.968 1.968 0 00.657 3.825.656.656 0 110 1.312h-1.313a.656.656 0 100 1.313h.657v.656a.656.656 0 101.312 0v-.77a1.968 1.968 0 00-.656-3.824.656.656 0 110-1.313z" fill="#151F59"/><path d="M40.031 3.938h-3.937a.656.656 0 100 1.312h2.353l-9.188 9.188h-3.693a7.876 7.876 0 00-15.342-3.074 7.874 7.874 0 006.045 10.158l-2.76 2.76H8.531a.654.654 0 00-.464.191l-6.562 6.563a.656.656 0 00.928.928l6.37-6.37h4.978a.656.656 0 00.464-.192l3.751-3.751a7.89 7.89 0 007.349-5.901h4.186a.658.658 0 00.464-.192l9.38-9.38v2.353a.657.657 0 001.313 0V4.594a.656.656 0 00-.657-.657zM17.72 20.343a6.563 6.563 0 116.562-6.563 6.57 6.57 0 01-6.562 6.563z" fill="#151F59"/></svg>