<svg width="42" height="42" fill="none" xmlns="http://www.w3.org/2000/svg"><path d="M20.344 36.75h1.312v1.313h-1.312V36.75zm11.322-4.149l.929-.928.928.928-.928.928-.928-.928zm5.084-12.257h1.313v1.312H36.75v-1.312z" fill="#151F59"/><path d="M40.031 16.406H35.38c-.254-.8-.576-1.578-.962-2.324l3.289-3.29a.656.656 0 000-.927L34.92 7.08A19.687 19.687 0 107.08 34.92l2.784 2.784a.656.656 0 00.928 0l3.289-3.288a14.73 14.73 0 002.326.96v4.654a.656.656 0 00.657.656h7.875a.656.656 0 00.656-.656v-4.653c.8-.253 1.578-.575 2.324-.96l3.29 3.288a.656.656 0 00.927 0l5.569-5.568a.656.656 0 000-.928l-3.289-3.29c.387-.746.709-1.525.963-2.326h4.653a.656.656 0 00.657-.657v-7.875a.656.656 0 00-.657-.656zm-32.025-8.4a18.368 18.368 0 0125.511-.453l-.926.927A17.062 17.062 0 008.48 32.59l-.927.927a18.368 18.368 0 01.452-25.51zm18.562 7.426a7.875 7.875 0 01-11.136 11.136.657.657 0 00-.928 0l-5.095 5.095A15.75 15.75 0 0131.664 9.41l-5.096 5.094a.657.657 0 000 .929zm12.807 8.85H34.89a.656.656 0 00-.633.48 13.448 13.448 0 01-1.22 2.953.656.656 0 00.108.787l3.17 3.17-4.64 4.64-3.17-3.17a.657.657 0 00-.788-.108c-.932.523-1.924.933-2.953 1.22a.657.657 0 00-.48.634v4.487H17.72v-4.486a.656.656 0 00-.48-.633 13.45 13.45 0 01-2.954-1.221.656.656 0 00-.787.109l-3.17 3.169-1.856-1.856 6.514-6.513a9.187 9.187 0 0012.959-12.96l6.512-6.513 1.856 1.856-3.169 3.17a.656.656 0 00-.109.787 13.44 13.44 0 011.221 2.953.655.655 0 00.633.48h4.486v6.564z" fill="#151F59"/><path d="M21.656 18.468v-7.312a.656.656 0 10-1.312 0v7.312a2.625 2.625 0 00-1.876 1.876h-4.687a.656.656 0 100 1.312h4.687a2.619 2.619 0 103.188-3.188zM21 22.313a1.313 1.313 0 110-2.626 1.313 1.313 0 010 2.625zm0-13.782a.656.656 0 01-.656-.656V6.562a.656.656 0 111.312 0v1.313a.656.656 0 01-.656.656zm6.562 1.759a.657.657 0 01-.567-.984l.656-1.138a.657.657 0 011.137.657l-.657 1.137a.656.656 0 01-.569.328zm-13.125 0a.656.656 0 01-.569-.328l-.656-1.137a.656.656 0 011.137-.657l.656 1.138a.656.656 0 01-.568.984zm-4.804 4.804a.652.652 0 01-.328-.088l-1.137-.656a.657.657 0 01.656-1.137l1.137.656a.656.656 0 01-.328 1.225zm-1.758 6.562H6.562a.656.656 0 110-1.312h1.313a.656.656 0 110 1.312zm.622 7.219a.656.656 0 01-.328-1.224l1.137-.657a.655.655 0 11.656 1.137l-1.137.656a.65.65 0 01-.328.088z" fill="#151F59"/><path d="M21 27.562a6.506 6.506 0 01-4.638-1.925.658.658 0 01.463-1.128.657.657 0 01.466.201 5.247 5.247 0 107.42-7.42.656.656 0 11.926-.928A6.562 6.562 0 0121 27.561z" fill="#151F59"/></svg>