<svg width="45" height="45" fill="none" xmlns="http://www.w3.org/2000/svg"><g clip-path="url(#clip0)" fill="#151F59"><path d="M42.178 23.522h-1.924V15.59c0-.61-.497-1.107-1.108-1.107h-3.57c-.61 0-1.107.497-1.107 1.107v7.933h-4.087V12.576a1.11 1.11 0 00-1.107-1.108h-3.57a1.11 1.11 0 00-1.108 1.108v10.946H22.25V15.16c0-.81-.658-1.467-1.467-1.467h-.273v-4.13a1.11 1.11 0 00-1.107-1.109h-3.57a1.11 1.11 0 00-1.108 1.109v4.13H10.64V6.549A1.11 1.11 0 009.531 5.44h-3.57a1.11 1.11 0 00-1.106 1.11v7.143H3.63c-.81 0-1.467.659-1.467 1.467v5.237a.66.66 0 101.318 0V15.16c0-.082.067-.148.149-.148h17.152a.15.15 0 01.149.149v25.15a.149.149 0 01-.149.149H3.631a.149.149 0 01-.15-.149V18.473a.66.66 0 00-1.317 0V40.31c0 .81.658 1.467 1.467 1.467h17.152c.81 0 1.467-.658 1.467-1.467V24.84h19.928a.66.66 0 000-1.318zM16.044 9.772h3.148v3.92h-3.148v-3.92zM6.172 6.76H9.32v6.932H6.17V6.76zm29.615 9.04h3.148v7.722h-3.148V15.8zm-9.872-3.014h3.149v10.736h-3.149V12.787z"/><path d="M7.076 22.594h10.26c.644 0 1.167-.523 1.167-1.166v-2.407c0-.643-.523-1.166-1.166-1.166H7.077c-.643 0-1.166.523-1.166 1.166v2.407c0 .643.523 1.166 1.165 1.166zm.153-3.42h9.955v2.102H7.23v-2.102zM5.91 36.449c0 .643.524 1.166 1.166 1.166h10.26c.644 0 1.167-.523 1.167-1.166v-10.26c0-.643-.523-1.166-1.166-1.166H7.077c-.643 0-1.166.523-1.166 1.165V36.45zm1.319-4.471h4.318v4.318H7.23v-4.318zm5.637 4.318v-4.318h4.318v4.318h-4.318zm4.318-5.636h-4.318v-4.32h4.318v4.319zm-5.637-4.319v4.319H7.23v-4.32h4.318zm20.521 3.717c-4.12 0-7.471 3.352-7.471 7.471 0 4.12 3.351 7.471 7.47 7.471 1.723 0 3.403-.6 4.733-1.69a.66.66 0 00-.836-1.02 6.163 6.163 0 01-3.896 1.392 6.16 6.16 0 01-6.153-6.153 6.16 6.16 0 016.153-6.153 6.16 6.16 0 015.588 8.73.66.66 0 101.197.554 7.409 7.409 0 00.686-3.13c0-4.12-3.352-7.472-7.471-7.472z"/><path d="M32.068 42.234a.66.66 0 00.66-.659v-.533c.952-.185 1.699-.864 1.858-1.751.14-.784-.22-1.81-1.647-2.335-.656-.242-1.227-.441-1.603-.646-.184-.1-.194-.286-.184-.387.022-.209.172-.47.529-.577.855-.257 1.64.365 1.66.382a.66.66 0 00.846-1.012 3.62 3.62 0 00-1.46-.686v-.547a.66.66 0 00-1.318 0v.57l-.108.03c-.805.243-1.378.912-1.46 1.704-.073.707.258 1.35.864 1.681 1.21.658 2.727.781 2.583 1.59-.063.353-.485.717-1.081.717-.597 0-1.171-.241-1.537-.645a.66.66 0 00-.977.885c.44.486 1.05.83 1.716.985v.575c0 .364.295.66.66.66zM7.246 1.298l31.453 8.14-2.04 1.11a.66.66 0 00.63 1.158l3.05-1.658a1.15 1.15 0 00.42-1.622l-1.863-2.93a.659.659 0 10-1.113.707l1.246 1.96L7.576.02a.659.659 0 10-.33 1.277z"/></g><defs><clipPath id="clip0"><path fill="#fff" d="M0 0h45v45H0z"/></clipPath></defs></svg>