<svg width="43" height="43" fill="none" xmlns="http://www.w3.org/2000/svg"><g clip-path="url(#clip0)" fill="#151F59"><path d="M39.56 15.698h-2.562v-.287a1.3 1.3 0 00-1.3-1.3h-5.054a.63.63 0 100 1.262H35.7c.02 0 .037.017.037.038V27.1a.63.63 0 101.262 0V16.96h2.563c.085 0 .154.07.154.154v22.007a2.62 2.62 0 01-2.618 2.617H5.904a2.62 2.62 0 01-2.618-2.617V17.114c0-.085.07-.154.155-.154h2.646v21.573c0 .89.724 1.614 1.614 1.614h27.684c.89 0 1.613-.724 1.613-1.614V25.792a.63.63 0 10-1.262 0v9.077H25.531a4.606 4.606 0 00-3.358 1.452v-8.16a.63.63 0 10-1.261 0v8.16a4.606 4.606 0 00-3.357-1.452h-6.867a.63.63 0 000 1.262h6.867a3.362 3.362 0 013.302 2.754H7.7a.352.352 0 01-.352-.352v-2.402h4.649a.63.63 0 100-1.262H7.349V15.41c0-.02.017-.037.038-.037h5.054a.63.63 0 100-1.262H7.387a1.3 1.3 0 00-1.3 1.3v.287H3.441c-.781 0-1.417.636-1.417 1.416v22.007c0 2.139 1.74 3.88 3.88 3.88h31.193c2.14 0 3.88-1.741 3.88-3.88V17.114c0-.78-.635-1.416-1.416-1.416zM25.53 36.131h10.206v2.402a.352.352 0 01-.351.352H22.229a3.362 3.362 0 013.302-2.754z"/><path d="M13.133 8.85a.632.632 0 00.687-.569 7.735 7.735 0 012.488-4.986 7.736 7.736 0 015.235-2.033c4.278 0 7.758 3.48 7.758 7.757a7.707 7.707 0 01-1.428 4.487l-4.037 6.284a.631.631 0 00-.1.341v.817a.3.3 0 01-.3.301h-.041l.401-6.819h.719a1.867 1.867 0 001.865-1.864v-.077a1.867 1.867 0 00-1.865-1.864c-.986 0-1.803.77-1.861 1.755l-.047.789h-2.212l-.047-.79a1.867 1.867 0 00-1.861-1.754 1.867 1.867 0 00-1.865 1.864v.077c0 1.028.837 1.864 1.865 1.864h.719l.401 6.815a.3.3 0 01-.257-.297v-.817a.631.631 0 00-.1-.34l-4.037-6.285a7.685 7.685 0 01-1.23-2.742.631.631 0 00-1.23.283 8.939 8.939 0 001.406 3.152l3.93 6.117v.632c0 .637.383 1.185.93 1.428v1.067c0 1.122.914 2.035 2.036 2.035h.976a2.038 2.038 0 002.036-2.035v-1.067c.548-.243.931-.79.931-1.428v-.632l3.93-6.117a8.963 8.963 0 001.635-5.18c0-4.973-4.047-9.019-9.02-9.019-2.26 0-4.421.84-6.087 2.364a8.994 8.994 0 00-2.892 5.799.63.63 0 00.57.687zm10.78 3.604a.604.604 0 011.205.035v.077c0 .332-.27.603-.603.603h-.644l.042-.715zm-5.426.715a.604.604 0 01-.603-.603v-.077a.604.604 0 011.205-.035l.042.715h-.644zm4.046 1.261l-.402 6.819h-1.26l-.402-6.819h2.064zm.272 9.013a.775.775 0 01-.774.774h-.976a.775.775 0 01-.774-.774v-.933h2.524v.933zM32.592 4.79a.628.628 0 00.416-.157l1.376-1.208a.63.63 0 00-.832-.948l-1.377 1.208a.63.63 0 00.417 1.105zm-.417 3.804l1.376 1.209a.628.628 0 00.89-.058.63.63 0 00-.058-.89l-1.376-1.209a.63.63 0 10-.832.948zM8.702 3.425l1.376 1.208a.628.628 0 00.89-.058.63.63 0 00-.057-.89L9.534 2.477a.63.63 0 10-.832.948zm.416 6.535a.629.629 0 00.416-.158l1.377-1.208a.63.63 0 00-.833-.948L8.702 8.854a.63.63 0 00.416 1.105zm6.844 11.92a.63.63 0 00-.63-.631H9.117a.63.63 0 000 1.262h6.213a.63.63 0 00.631-.631zm1.29 2.577h-6.995a.63.63 0 100 1.262h6.995a.63.63 0 000-1.262zm0 3.073h-6.995a.63.63 0 100 1.262h6.995a.63.63 0 100-1.261zm0 3.074h-6.995a.63.63 0 100 1.262h6.995a.63.63 0 000-1.262zm17.347-8.724a.63.63 0 00-.63-.631h-6.214a.63.63 0 100 1.262h6.213a.63.63 0 00.631-.631zm-1.771 2.577h-6.995a.63.63 0 000 1.262h6.995a.63.63 0 100-1.262zm0 3.073h-6.995a.63.63 0 100 1.262h6.995a.63.63 0 100-1.261zm0 3.074h-6.995a.63.63 0 100 1.262h6.995a.63.63 0 100-1.262z"/></g><defs><clipPath id="clip0"><path fill="#fff" d="M0 0h43v43H0z"/></clipPath></defs></svg>