<svg width="44" height="44" fill="none" xmlns="http://www.w3.org/2000/svg"><g clip-path="url(#clip0)" fill="#151F59"><path d="M.646 27.468h2.218a.646.646 0 100-1.292H.646a.646.646 0 000 1.292z"/><path d="M43.354 14.011a.646.646 0 00-.646.646v2.56a3.667 3.667 0 01-3.663 3.663H18.016v-.518a2.56 2.56 0 00-2.557-2.557 2.56 2.56 0 00-2.558 2.557v.518H9.544c-.208 0-.402.1-.524.268l-1.16 1.608-1.16-1.608a.646.646 0 00-.524-.268h-1.22a3.668 3.668 0 01-3.664-3.663V6.557a3.667 3.667 0 013.663-3.663h27.758a.646.646 0 100-1.292H4.955A4.96 4.96 0 000 6.557v10.66a4.96 4.96 0 004.955 4.955h.891l1.004 1.391a1.247 1.247 0 002.02 0l1.004-1.391h3.027v1.825c0 .404-.178.782-.489 1.04l-2.85 2.357a2.818 2.818 0 00-2.318-1.218H2.617a.646.646 0 100 1.292h4.627c.842 0 1.527.685 1.527 1.527V39.58c0 .842-.685 1.527-1.527 1.527H.646a.646.646 0 100 1.292h6.598a2.822 2.822 0 002.574-1.672 5.8 5.8 0 003.486 1.17h10.333a2.371 2.371 0 002.368-2.368c0-.517-.166-.994-.447-1.384a2.37 2.37 0 001.205-2.062c0-.54-.182-1.037-.486-1.435a2.369 2.369 0 00.64-3.437 2.37 2.37 0 00-1.237-4.388h-5.875a.998.998 0 01-.713-.296l-.963-.962a.384.384 0 01-.113-.273v-3.12h21.029A4.96 4.96 0 0044 17.218v-2.56a.646.646 0 00-.646-.646zM18.178 27.44a2.286 2.286 0 001.627.674h5.875a1.078 1.078 0 010 2.154h-1.902a.646.646 0 100 1.291h1.248a1.078 1.078 0 010 2.154h-1.248a.646.646 0 100 1.292h.616a1.078 1.078 0 010 2.154h-.966a.646.646 0 100 1.292h.209a1.078 1.078 0 010 2.154H13.304a4.503 4.503 0 01-2.813-.991l-.428-.344V28.995c0-.11-.007-.217-.02-.323l3.193-2.64a2.632 2.632 0 00.957-2.034v-3.636a1.267 1.267 0 012.531 0v4.93c0 .447.175.869.492 1.185l.962.963z"/><path d="M39.045 1.602h-6.579a.646.646 0 100 1.292h6.58a3.667 3.667 0 013.663 3.663v8.348a.646.646 0 101.291 0V6.557a4.96 4.96 0 00-4.955-4.955zM25.04 9.933a1.14 1.14 0 00-.926-.781l-.73-.106-.325-.66a1.14 1.14 0 00-1.029-.64c-.44 0-.834.245-1.028.64l-.326.66-.73.106a1.14 1.14 0 00-.925.78 1.14 1.14 0 00.29 1.176l.528.514-.125.726c-.074.434.1.864.456 1.122a1.143 1.143 0 001.208.088l.652-.343.652.342c.39.205.852.172 1.208-.087a1.14 1.14 0 00.456-1.122l-.124-.726.527-.514a1.14 1.14 0 00.29-1.175zm-1.774.817c-.27.264-.394.643-.33 1.016l.087.511-.46-.241a1.146 1.146 0 00-1.066 0l-.46.242.088-.512a1.147 1.147 0 00-.33-1.015l-.372-.363.514-.075c.373-.054.696-.288.863-.627l.23-.465.23.465c.167.339.49.573.864.627l.513.075-.371.362zm-5.424-.817a1.14 1.14 0 00-.926-.781l-.729-.106-.326-.66a1.14 1.14 0 00-1.028-.64c-.44 0-.834.245-1.029.64l-.326.66-.729.106a1.14 1.14 0 00-.925.78 1.14 1.14 0 00.29 1.176l.527.514-.124.727c-.074.433.1.863.456 1.121a1.142 1.142 0 001.208.088l.652-.343.652.343c.39.204.852.17 1.208-.088a1.14 1.14 0 00.456-1.121l-.124-.726.527-.515a1.14 1.14 0 00.29-1.175zm-1.774.818c-.27.263-.394.643-.33 1.015l.088.511-.46-.241a1.146 1.146 0 00-1.067 0l-.46.242.088-.512a1.146 1.146 0 00-.33-1.015l-.371-.363.513-.074a1.15 1.15 0 00.864-.628l.23-.465.23.465c.167.339.49.573.863.628l.514.074-.372.363zm-5.423-.818a1.14 1.14 0 00-.926-.781l-.729-.106-.326-.66a1.14 1.14 0 00-1.028-.64c-.44 0-.834.245-1.029.64l-.326.66-.729.106a1.14 1.14 0 00-.926.78 1.14 1.14 0 00.29 1.176l.528.514-.124.726c-.075.434.1.864.456 1.122a1.143 1.143 0 001.208.088l.652-.343.652.343c.389.204.852.17 1.208-.088a1.14 1.14 0 00.456-1.122l-.125-.726.528-.514a1.14 1.14 0 00.29-1.175zm-1.774.818c-.27.263-.394.643-.33 1.015l.088.511-.46-.241a1.148 1.148 0 00-1.067 0l-.46.242.088-.512a1.147 1.147 0 00-.33-1.015l-.372-.363.514-.074a1.15 1.15 0 00.864-.628l.23-.465.23.465c.167.339.49.573.863.628l.514.074-.372.363zm23.451-.818a1.14 1.14 0 00-.926-.781l-.73-.106-.325-.66a1.14 1.14 0 00-1.029-.64c-.44 0-.834.245-1.028.64l-.326.66-.729.106a1.14 1.14 0 00-.926.78 1.14 1.14 0 00.29 1.176l.528.514-.125.726c-.074.434.1.864.457 1.122a1.14 1.14 0 001.207.088l.652-.343.652.343a1.143 1.143 0 001.208-.087 1.14 1.14 0 00.457-1.122l-.125-.726.527-.515a1.14 1.14 0 00.29-1.175zm-1.774.818c-.27.263-.394.643-.33 1.015l.088.511-.46-.241a1.146 1.146 0 00-1.067 0l-.46.242.088-.512a1.147 1.147 0 00-.33-1.015l-.372-.363.514-.074a1.15 1.15 0 00.864-.628l.23-.465.23.465c.166.339.49.573.863.628l.514.074-.372.363z"/><path d="M34.318 11.623l-.124.726c-.075.433.1.863.456 1.121a1.14 1.14 0 001.208.088l.652-.343.652.343a1.143 1.143 0 001.208-.087 1.14 1.14 0 00.456-1.122l-.125-.726.528-.515a1.14 1.14 0 00.29-1.175 1.14 1.14 0 00-.926-.781l-.729-.106-.326-.66a1.14 1.14 0 00-1.028-.64c-.44 0-.834.245-1.029.64l-.326.66-.729.106a1.14 1.14 0 00-.926.78 1.14 1.14 0 00.29 1.176l.528.514zm1.098-1.31c.374-.054.697-.288.864-.627l.23-.465.23.465c.167.339.49.573.863.628l.514.074-.372.363c-.27.263-.394.643-.33 1.015l.088.511-.46-.241a1.148 1.148 0 00-1.067 0l-.46.242.088-.512a1.147 1.147 0 00-.33-1.015l-.371-.363.513-.074z"/></g><defs><clipPath id="clip0"><path fill="#fff" d="M0 0h44v44H0z"/></clipPath></defs></svg>