<svg width="23" height="23" viewBox="0 0 23 23"  xmlns="http://www.w3.org/2000/svg">
<g clip-path="url(#clip0)">
<path d="M4.13745 22.063H19.6921C21.4691 22.063 22.9148 20.6173 22.9148 18.8403V3.28564C22.9148 1.50865 21.4691 0.0629883 19.6921 0.0629883H4.13745C2.36046 0.0629883 0.914795 1.50865 0.914795 3.28564V18.8403C0.914795 20.6173 2.36046 22.063 4.13745 22.063ZM2.20386 3.28564C2.20386 2.21948 3.07129 1.35205 4.13745 1.35205H19.6921C20.7583 1.35205 21.6257 2.21948 21.6257 3.28564V18.8403C21.6257 19.9065 20.7583 20.7739 19.6921 20.7739H4.13745C3.07129 20.7739 2.20386 19.9065 2.20386 18.8403V3.28564Z" fill="#CCA75D"/>
<path d="M11.9148 16.8638C15.1133 16.8638 17.7156 14.2615 17.7156 11.063C17.7156 7.8645 15.1133 5.26221 11.9148 5.26221C8.71631 5.26221 6.11401 7.8645 6.11401 11.063C6.11401 14.2615 8.71631 16.8638 11.9148 16.8638ZM11.9148 6.55127C14.4026 6.55127 16.4265 8.57516 16.4265 11.063C16.4265 13.5508 14.4026 15.5747 11.9148 15.5747C9.42697 15.5747 7.40308 13.5508 7.40308 11.063C7.40308 8.57516 9.42697 6.55127 11.9148 6.55127Z" fill="#CCA75D"/>
<path d="M18.3601 6.55127C19.4263 6.55127 20.2937 5.68384 20.2937 4.61768C20.2937 3.55151 19.4263 2.68408 18.3601 2.68408C17.2939 2.68408 16.4265 3.55151 16.4265 4.61768C16.4265 5.68384 17.2939 6.55127 18.3601 6.55127ZM18.3601 3.97314C18.7154 3.97314 19.0046 4.26234 19.0046 4.61768C19.0046 4.97301 18.7154 5.26221 18.3601 5.26221C18.0048 5.26221 17.7156 4.97301 17.7156 4.61768C17.7156 4.26234 18.0048 3.97314 18.3601 3.97314Z" fill="#CCA75D"/>
</g>
<defs>
<clipPath id="clip0">
<rect width="22" height="22" fill="white" transform="translate(0.914795 0.0629883)"/>
</clipPath>
</defs>
</svg>
