<svg width="21" height="23" viewBox="0 0 21 23"  xmlns="http://www.w3.org/2000/svg">
<path d="M16.5645 14.9141C15.4796 14.9141 14.4932 15.3437 13.7664 16.0416L9.44245 13.3628C9.68916 12.791 9.82617 12.1613 9.82617 11.5C9.82617 10.8387 9.68916 10.209 9.4424 9.63727L13.7663 6.95844C14.4932 7.6563 15.4796 8.08594 16.5645 8.08594C18.7937 8.08594 20.6074 6.27226 20.6074 4.04297C20.6074 1.81368 18.7937 0 16.5645 0C14.3352 0 12.5215 1.81368 12.5215 4.04297C12.5215 4.70112 12.6797 5.32302 12.9598 5.87273L8.73713 8.48889C7.87122 7.44742 6.56646 6.7832 5.10938 6.7832C2.50853 6.7832 0.392578 8.89916 0.392578 11.5C0.392578 14.1008 2.50853 16.2168 5.10938 16.2168C6.56646 16.2168 7.87122 15.5526 8.73713 14.5111L12.9598 17.1273C12.6797 17.677 12.5215 18.2989 12.5215 18.957C12.5215 21.1863 14.3352 23 16.5645 23C18.7937 23 20.6074 21.1863 20.6074 18.957C20.6074 16.7277 18.7937 14.9141 16.5645 14.9141ZM16.5645 1.34766C18.0506 1.34766 19.2598 2.55677 19.2598 4.04297C19.2598 5.52916 18.0506 6.73828 16.5645 6.73828C15.0783 6.73828 13.8691 5.52916 13.8691 4.04297C13.8691 2.55677 15.0783 1.34766 16.5645 1.34766ZM5.10938 14.8691C3.25163 14.8691 1.74023 13.3577 1.74023 11.5C1.74023 9.64226 3.25163 8.13086 5.10938 8.13086C6.96712 8.13086 8.47852 9.64226 8.47852 11.5C8.47852 13.3577 6.96712 14.8691 5.10938 14.8691ZM16.5645 21.6523C15.0783 21.6523 13.8691 20.4432 13.8691 18.957C13.8691 17.4708 15.0783 16.2617 16.5645 16.2617C18.0506 16.2617 19.2598 17.4708 19.2598 18.957C19.2598 20.4432 18.0506 21.6523 16.5645 21.6523Z" fill="white"/>
</svg>
