<svg width="20" height="17" viewBox="0 0 20 17"  xmlns="http://www.w3.org/2000/svg">
<path d="M18.2034 1.99595C16.1371 0.0297452 12.774 0.0297452 10.7071 1.9955L10.2774 2.40371L9.84806 1.99569C7.78096 0.0296709 4.41829 0.0298935 2.35119 1.99569C1.33625 2.96105 0.777344 4.24151 0.777344 5.60083C0.777344 6.96059 1.33625 8.24082 2.35134 9.2066L9.81845 16.2957C9.94689 16.4179 10.1122 16.4788 10.2773 16.4788C10.4424 16.4788 10.6076 16.4177 10.7362 16.2955L18.2034 9.2066C19.2182 8.24105 19.7773 6.96063 19.7773 5.60105C19.7773 4.24151 19.2182 2.96127 18.2034 1.99595ZM17.2847 8.23993L10.2773 14.8928L3.27024 8.24016C2.52245 7.52907 2.11068 6.59172 2.11068 5.60105C2.11068 4.61038 2.52245 3.67303 3.27024 2.96194C4.05024 2.21972 5.07468 1.84885 6.09935 1.84885C7.12423 1.84885 8.14912 2.22016 8.92912 2.96239L9.818 3.80663C10.0753 4.05129 10.4791 4.05129 10.7365 3.80663L11.6256 2.96194C13.1858 1.47772 15.7242 1.47772 17.2844 2.96194C18.032 3.67307 18.444 4.61038 18.444 5.60105C18.444 6.59172 18.032 7.52884 17.2847 8.23993Z" fill="white"/>
</svg>
