<svg width="23" height="24" viewBox="0 0 23 24"  xmlns="http://www.w3.org/2000/svg">
<path d="M11.5 0C5.14894 0 0 5.37256 0 12C0 18.6274 5.14894 24 11.5 24C17.8511 24 23 18.6274 23 12C23 5.37256 17.8511 0 11.5 0ZM17.3334 13.2978C17.8694 13.8441 18.4365 14.3583 18.9176 14.961C19.1308 15.2277 19.3318 15.5034 19.4847 15.8135C19.7031 16.2557 19.5059 16.7406 19.1266 16.7669L16.7706 16.7664C16.1621 16.8189 15.6779 16.5628 15.2696 16.1287C14.9438 15.7828 14.6414 15.4133 14.3275 15.0556C14.1993 14.9087 14.0642 14.7705 13.9033 14.6617C13.5821 14.4437 13.3031 14.5105 13.1191 14.8606C12.9315 15.2169 12.8887 15.6117 12.8708 16.0082C12.8452 16.5879 12.6776 16.7394 12.1202 16.7666C10.9292 16.8248 9.79906 16.6362 8.74871 16.0097C7.82212 15.457 7.10494 14.677 6.48 13.7938C5.26306 12.0722 4.33106 10.1826 3.49365 8.23881C3.30518 7.80104 3.44306 7.56681 3.90588 7.55773C4.67482 7.54226 5.44376 7.54423 6.21271 7.55699C6.52565 7.56215 6.73271 7.74899 6.85294 8.05713C7.26847 9.12393 7.77788 10.1389 8.41624 11.0803C8.58635 11.3309 8.76 11.5809 9.00729 11.7579C9.28024 11.9534 9.48824 11.8888 9.61694 11.5708C9.69929 11.3688 9.73482 11.1527 9.75271 10.9361C9.81388 10.1944 9.82118 9.45293 9.71529 8.71415C9.64941 8.25183 9.40024 7.95327 8.95859 7.86586C8.73365 7.82142 8.76659 7.73451 8.876 7.60045C9.06588 7.36868 9.24376 7.22529 9.59929 7.22529L12.2612 7.2248C12.6807 7.31073 12.7748 7.50715 12.8318 7.94811L12.8341 11.0348C12.8292 11.2055 12.9162 11.7113 13.2099 11.823C13.4452 11.904 13.6005 11.7071 13.7412 11.5517C14.3795 10.8448 14.8344 10.0105 15.2416 9.14701C15.4214 8.7662 15.5765 8.37213 15.7271 7.97733C15.8391 7.6854 16.0132 7.54177 16.3289 7.54668L18.8922 7.54987C18.9678 7.54987 19.0445 7.55061 19.1193 7.56411C19.5513 7.64121 19.6696 7.83517 19.536 8.27491C19.3256 8.96581 18.9169 9.54132 18.5174 10.1183C18.0892 10.736 17.6325 11.3322 17.2085 11.9526C16.8188 12.5198 16.8496 12.8053 17.3334 13.2978Z" fill="#4F4F4F"/>
</svg>
