<svg width="12" height="16" viewBox="0 0 12 16" xmlns="http://www.w3.org/2000/svg">
<path d="M0.130281 14.4086C0.244844 14.4711 2.97109 15.9391 6 15.9391C9.2815 15.9391 11.7741 14.4662 11.8786 14.4035C11.9156 14.3813 11.9463 14.3499 11.9676 14.3123C11.9888 14.2747 12 14.2323 12 14.1891C12 12.1706 11.381 10.3235 10.2572 8.9878C9.47097 8.05342 8.48453 7.41655 7.39656 7.12336C8.06255 6.80643 8.60092 6.27239 8.92324 5.60899C9.24555 4.9456 9.33264 4.1923 9.17018 3.47286C9.00772 2.75342 8.60539 2.11064 8.02928 1.65011C7.45317 1.18959 6.73755 0.938721 6 0.938721C5.26245 0.938721 4.54683 1.18959 3.97072 1.65011C3.39461 2.11064 2.99228 2.75342 2.82982 3.47286C2.66736 4.1923 2.75445 4.9456 3.07676 5.60899C3.39908 6.27239 3.93745 6.80643 4.60344 7.12336C3.51547 7.41655 2.52903 8.05352 1.74284 8.9878C0.618969 10.3235 0 12.1706 0 14.1891C3.63707e-07 14.234 0.012099 14.2781 0.0350242 14.3167C0.0579494 14.3553 0.0908545 14.3871 0.130281 14.4086ZM3.25 4.18911C3.25 3.64521 3.41128 3.11353 3.71346 2.66129C4.01563 2.20906 4.44512 1.85658 4.94762 1.64844C5.45012 1.4403 6.00305 1.38584 6.5365 1.49195C7.06995 1.59806 7.55995 1.85997 7.94454 2.24457C8.32914 2.62916 8.59105 3.11917 8.69716 3.65261C8.80327 4.18606 8.74881 4.73899 8.54067 5.24149C8.33253 5.74399 7.98005 6.17348 7.52782 6.47565C7.07558 6.77783 6.5439 6.93911 6 6.93911C5.27091 6.93828 4.57192 6.64829 4.05637 6.13274C3.54082 5.6172 3.25083 4.9182 3.25 4.18911ZM2.12541 9.30971C3.14062 8.10342 4.5165 7.43911 6 7.43911C7.4835 7.43911 8.85938 8.10342 9.87459 9.30971C10.8959 10.5234 11.4701 12.1997 11.4989 14.0433C10.9639 14.3329 8.74088 15.4391 6 15.4391C3.46531 15.4391 1.07812 14.3263 0.50125 14.0374C0.53125 12.1961 1.10522 10.5221 2.12541 9.30971Z" fill="#4D4D4D"/>
</svg>
