<svg width="22" height="21" viewBox="0 0 22 21"  xmlns="http://www.w3.org/2000/svg">
<path d="M0.653913 10.326L5.78929 13.0073C5.98791 13.1099 6.22241 13.1026 6.41229 12.9862L10.9833 10.2023L8.21654 12.7708C8.07566 12.9018 7.99516 13.0888 7.99516 13.2859V19.5422C7.99516 20.2022 8.79929 20.4799 9.17641 19.9556L11.3963 16.8637L16.886 20.1389C17.271 20.3708 17.7645 20.138 17.8538 19.6769L21.2777 1.80192C21.38 1.26476 20.8699 0.826591 20.3957 1.02642L0.708163 9.07018C0.179663 9.28651 0.145538 10.0611 0.653913 10.326V10.326ZM19.7552 2.76442L16.746 18.4733L11.5442 15.3695C11.2607 15.1999 10.8958 15.2751 10.6945 15.5538L9.30766 17.4852V13.5948L16.7898 6.65017C17.3822 6.10109 16.7014 5.12484 16.025 5.54101L6.05879 11.6112L2.56579 9.78793L19.7552 2.76442Z" fill="#CCA75D"/>
</svg>
