<svg width="25" height="20" viewBox="0 0 25 20" xmlns="http://www.w3.org/2000/svg">
<path d="M15.9345 8.98926L10.6323 6.08814C10.3274 5.92133 9.9671 5.92755 9.66827 6.10462C9.36926 6.28186 9.19092 6.59497 9.19092 6.94251V12.695C9.19092 13.0408 9.36816 13.3534 9.66516 13.5308C9.82025 13.6235 9.99218 13.67 10.1645 13.67C10.3223 13.67 10.4805 13.631 10.6261 13.5526L15.9284 10.7015C16.2432 10.5321 16.4397 10.2049 16.4411 9.84729C16.4424 9.48969 16.2483 9.16101 15.9345 8.98926ZM10.5973 11.9713V7.672L14.5601 9.84034L10.5973 11.9713Z" fill="#CCA75D"/>
<path d="M24.0636 5.26434L24.0625 5.25336C24.0422 5.06018 23.8399 3.34192 23.0045 2.46796C22.039 1.44 20.9444 1.31512 20.418 1.25525C20.3744 1.25031 20.3345 1.24573 20.2988 1.24097L20.2569 1.23657C17.084 1.00586 12.2924 0.974365 12.2444 0.974182L12.2402 0.973999L12.236 0.974182C12.188 0.974365 7.39633 1.00586 4.19493 1.23657L4.15263 1.24097C4.11858 1.24554 4.08104 1.24976 4.04021 1.25452C3.51982 1.31458 2.43694 1.43964 1.46868 2.50476C0.673094 3.36938 0.443114 5.05084 0.419494 5.23981L0.416747 5.26434C0.409606 5.34473 0.240234 7.25836 0.240234 9.1795V10.9754C0.240234 12.8965 0.409606 14.8102 0.416747 14.8907L0.418029 14.9028C0.438354 15.0929 0.640501 16.7797 1.47198 17.654C2.37981 18.6475 3.5277 18.779 4.14513 18.8497C4.24272 18.8608 4.32677 18.8704 4.38408 18.8804L4.43956 18.8881C6.27152 19.0624 12.0153 19.1483 12.2589 19.1518L12.2662 19.152L12.2735 19.1518C12.3215 19.1516 17.113 19.1201 20.2858 18.8894L20.3277 18.885C20.3678 18.8797 20.4129 18.8749 20.4623 18.8698C20.9798 18.8149 22.0568 18.7008 23.0117 17.6501C23.8073 16.7853 24.0374 15.1039 24.0609 14.9151L24.0636 14.8906C24.0708 14.81 24.2403 12.8965 24.2403 10.9754V9.1795C24.2401 7.25836 24.0708 5.34491 24.0636 5.26434ZM22.8337 10.9754C22.8337 12.7535 22.6784 14.5848 22.6638 14.7529C22.6041 15.2159 22.3615 16.2798 21.9739 16.7011C21.3762 17.3586 20.7622 17.4238 20.314 17.4713C20.2598 17.4769 20.2096 17.4824 20.1642 17.4881C17.0954 17.71 12.4846 17.7441 12.2722 17.7454C12.034 17.7419 6.37424 17.6553 4.59813 17.4903C4.50712 17.4755 4.4088 17.4641 4.30516 17.4524C3.77947 17.3922 3.05986 17.3098 2.50652 16.7011L2.49352 16.6872C2.11266 16.2904 1.87701 15.2956 1.81713 14.7584C1.80596 14.6313 1.64666 12.7784 1.64666 10.9754V9.1795C1.64666 7.40338 1.80157 5.57416 1.81658 5.40259C1.88781 4.85712 2.135 3.85773 2.50652 3.4538C3.12249 2.77631 3.77196 2.70123 4.20152 2.65161C4.24254 2.64685 4.28081 2.64246 4.31615 2.63788C7.42966 2.41486 12.0736 2.38171 12.2402 2.38043C12.4068 2.38153 17.0491 2.41486 20.1349 2.63788C20.1728 2.64264 20.2142 2.6474 20.2587 2.65253C20.7005 2.70288 21.3683 2.77905 21.9812 3.43274L21.9869 3.43878C22.3677 3.83557 22.6034 4.84778 22.6632 5.39581C22.6739 5.51575 22.8337 7.37262 22.8337 9.1795V10.9754Z" fill="#CCA75D"/>
</svg>
