<svg width="94" height="64" fill="none" xmlns="http://www.w3.org/2000/svg"><path d="M0 62.061V60.81c.396.4.879.601 1.45.601.429 0 .808-.126 1.137-.379.335-.252.541-.61.618-1.07H.742v-.924h2.447c-.077-.45-.277-.8-.602-1.046a1.736 1.736 0 00-1.096-.38c-.587 0-1.084.207-1.491.619v-1.253c.44-.225.917-.338 1.434-.338.862 0 1.546.242 2.052.725.258.253.458.572.601.956.148.38.223.778.223 1.195 0 .874-.272 1.574-.816 2.101-.511.511-1.195.767-2.052.767A3.28 3.28 0 010 62.06zm8.103-5.298v2.324l2.018-2.324h1.352l-2.324 2.538 2.448 2.958h-1.418l-1.953-2.464-.123.124v2.34H7.032v-5.496h1.07zm6.104.684c.549-.539 1.255-.808 2.117-.808.863 0 1.566.27 2.11.808.55.538.824 1.228.824 2.068 0 .84-.275 1.53-.824 2.068-.544.533-1.247.8-2.11.8-.862 0-1.568-.267-2.117-.8-.544-.538-.816-1.227-.816-2.068 0-.84.272-1.53.816-2.068zm.799 3.436c.34.352.78.527 1.318.527.539 0 .978-.175 1.319-.527.34-.357.51-.813.51-1.368 0-.555-.172-1.01-.519-1.368-.34-.357-.777-.535-1.31-.535s-.972.178-1.318.535c-.34.357-.511.813-.511 1.368 0 .555.17 1.01.51 1.368zm6.969 1.377v-5.497h3.181v.923h-2.11v1.26h.742c.582 0 1.041.149 1.376.446.346.307.52.714.52 1.22 0 .362-.102.688-.306.98-.313.445-.84.667-1.582.667h-1.82zm1.072-2.39v1.466h.51c.682 0 1.022-.239 1.022-.717a.692.692 0 00-.23-.527c-.149-.148-.407-.222-.775-.222h-.527zm5.358-3.107h1.071v3.659l3.016-3.659h.758v5.496h-1.07v-3.675l-3.017 3.675h-.758v-5.496zm8.505 1.252l-.56-.733a2.448 2.448 0 011.69-.643c.555 0 .994.132 1.318.396.324.258.486.604.486 1.038 0 .522-.225.91-.675 1.162.33.082.582.253.758.51.176.26.264.561.264.907 0 .517-.204.934-.61 1.253-.407.318-.931.478-1.574.478-.95 0-1.64-.346-2.068-1.039l.7-.667c.12.275.31.48.569.618.263.132.538.198.824.198.346 0 .607-.08.782-.24a.741.741 0 00.272-.576c0-.56-.4-.84-1.203-.84h-.494v-.923h.494c.28 0 .503-.06.668-.182a.618.618 0 00.247-.519c0-.203-.066-.36-.198-.47-.132-.11-.327-.164-.585-.164-.472 0-.84.145-1.104.436zm7.068-1.252v2.126H46.3v-2.126h1.072v5.496H46.3v-2.447h-2.323v2.447h-1.072v-5.496h1.072zm9.429 0v.923H51.43v1.228h1.895v.922h-1.896v1.5h1.978v.923h-3.049v-5.496h3.05zm6.758 4.046v1.252a2.87 2.87 0 01-1.36.322c-.802 0-1.472-.256-2.01-.767-.588-.566-.882-1.266-.882-2.1 0-.89.294-1.608.882-2.151.516-.484 1.189-.726 2.018-.726.484 0 .934.113 1.352.338v1.253c-.357-.412-.8-.618-1.327-.618-.538 0-.978.19-1.318.568a1.953 1.953 0 00-.503 1.352c0 .576.187 1.035.56 1.376a1.89 1.89 0 001.302.502c.517 0 .945-.2 1.286-.601zm5.947-3.123h-1.236v4.573h-1.071v-4.573h-1.236v-.923h3.543v.923zm2.409-.923h1.599c.34 0 .618.03.832.09.22.055.426.165.618.33.374.33.56.772.56 1.327 0 .516-.15.925-.453 1.228-.324.324-.788.486-1.392.486h-.692v2.035H68.52v-5.496zm1.072.923V59.3h.436c.313 0 .547-.058.7-.173.198-.154.297-.368.297-.643a.73.73 0 00-.305-.626c-.164-.116-.417-.173-.758-.173h-.37zm8.109-.923v.923h-1.977v1.228h1.895v.922h-1.895v1.5h1.977v.923h-3.049v-5.496h3.05zm2.77 0h1.07v3.659l3.017-3.659h.758v5.496h-1.071v-3.675l-3.016 3.675h-.758v-5.496zm.939-1.459l.742-.296c.12.318.368.478.741.478.374 0 .621-.16.742-.478l.741.296c-.11.286-.293.511-.552.676-.252.165-.563.247-.93.247-.369 0-.682-.082-.94-.247a1.376 1.376 0 01-.544-.675zm7.418 1.459h3.708v4.573h.577v2.16h-.989v-1.237h-3.378v1.236h-.99v-2.159a.716.716 0 00.512-.198c.153-.142.274-.324.362-.543.132-.335.198-.816.198-1.442v-2.39zm1.038.923v1.467c0 .686-.063 1.197-.19 1.532-.098.253-.241.47-.428.651h2.217v-3.65h-1.599z" fill="#000"/><path d="M61.246 47.155h-16.12v-2.319h13.795v-5.208H45.96c-5.681 0-10.302-4.608-10.302-10.271 0-5.664 4.621-10.272 10.302-10.272h12.96v-4.997H43.006c.297-.381.553-.738.778-1.166.19-.363.308-.761.431-1.152h17.032v9.634H45.96c-4.398 0-7.976 3.568-7.976 7.953s3.578 7.953 7.976 7.953h15.286v9.845z" fill="#7F9681"/><path d="M45.367 47.155c-2.136 0-4.238-.412-6.245-1.224a16.98 16.98 0 01-5.21-3.308c-1.53-1.423-2.738-3.066-3.59-4.886a13.986 13.986 0 01-1.344-5.963v-.658h2.325v.658c0 6.959 6.572 13.063 14.063 13.063v2.318z" fill="#7F9681"/><path d="M45.074 33.44H29.095v-2.318h15.979a1.947 1.947 0 001.947-1.942c0-1.07-.873-1.942-1.947-1.942h-5.621c.122-.445.21-.793.414-1.204.18-.362.453-.792.736-1.114h4.47c2.357 0 4.274 1.91 4.274 4.26 0 2.349-1.917 4.26-4.273 4.26zm-10.183-6.201H28.64V15.784c.004-.266.004-.537 0-.807-.035-2.12-.072-4.31-1.033-6.33-.76-1.595-1.854-2.576-2.441-3.102a11.614 11.614 0 00-4.16-2.38c-.612-.197-2.257-.643-4.335-.538-.297.015-.597.04-.891.077L15.494.403c.35-.043.706-.074 1.06-.092 2.373-.12 4.255.354 5.165.647A13.936 13.936 0 0126.72 3.82c.659.59 2.028 1.817 2.988 3.832 1.177 2.473 1.22 5.03 1.257 7.286.005.292.005.586 0 .875v9.106h4.782c-.224.36-.45.734-.591 1.115-.145.392-.19.796-.265 1.204z" fill="#7F9681"/><path d="M31.764 20.49c-.398 0-.799-.021-1.2-.066l.257-2.304a8.262 8.262 0 002.9-.185c1.899-.47 3.122-1.522 4.016-2.29.623-.536 1.92-1.65 2.903-3.58 1.07-2.1 1.238-4.138 1.19-5.48l2.324-.083a13.518 13.518 0 01-1.44 6.614c-1.191 2.336-2.78 3.702-3.46 4.285-1.01.869-2.536 2.182-4.974 2.785-.82.203-1.663.305-2.516.305z" fill="#7F9681"/><path d="M30.874 16.049l-2.138-.913a16.665 16.665 0 012.322-3.863c.657-.817 2.024-2.52 4.378-3.802a13.56 13.56 0 014.65-1.528c1.508-.193 3.63-.18 3.72-.178h.054l.477.048-.231 2.307-.369-.037c-.326-.001-2.122.002-3.354.16a11.31 11.31 0 00-3.831 1.263c-1.946 1.06-3.074 2.464-3.68 3.218a14.338 14.338 0 00-1.998 3.325z" fill="#7F9681"/><path d="M29.203 15.102a14.67 14.67 0 01-3.819-.505c-3.098-.837-5.11-2.478-5.83-3.145-1.507-1.394-2.344-2.819-2.709-3.544-.72-1.432-.975-2.684-1.245-4.01a23.693 23.693 0 01-.446-3.512l2.323-.118a21.39 21.39 0 00.402 3.168c.26 1.272.464 2.277 1.046 3.433.237.471.926 1.695 2.21 2.883.595.55 2.26 1.904 4.858 2.606a12.31 12.31 0 003.21.425h.006v2.319h-.006z" fill="#7F9681"/></svg>