<svg width="94" height="65" fill="none" xmlns="http://www.w3.org/2000/svg"><path d="M.362 62.575v-1.253a1.96 1.96 0 001.45.602c.429 0 .808-.126 1.137-.379.335-.253.541-.61.618-1.071H1.103v-.923h2.448c-.077-.45-.278-.8-.602-1.047a1.736 1.736 0 00-1.096-.379c-.588 0-1.085.206-1.491.618v-1.252c.44-.225.917-.338 1.434-.338.862 0 1.546.242 2.051.725.259.253.46.572.602.956.148.379.222.777.222 1.195 0 .873-.272 1.574-.815 2.101-.511.51-1.195.766-2.052.766-.517 0-.997-.107-1.442-.321zm8.103-5.298V59.6l2.018-2.323h1.352L9.51 59.815l2.447 2.958H10.54l-1.953-2.464-.123.124v2.34H7.393v-5.496h1.072zm6.103.683c.55-.538 1.256-.807 2.118-.807.863 0 1.566.27 2.11.808.549.538.824 1.227.824 2.068 0 .84-.275 1.53-.825 2.068-.543.533-1.247.8-2.109.8-.862 0-1.568-.267-2.118-.8-.543-.538-.815-1.228-.815-2.068 0-.84.271-1.53.815-2.068zm.8 3.437c.34.351.78.527 1.318.527s.978-.176 1.319-.527c.34-.357.51-.813.51-1.368 0-.555-.173-1.011-.519-1.368-.34-.357-.777-.536-1.31-.536s-.972.179-1.318.536c-.34.357-.511.813-.511 1.368 0 .555.17 1.01.51 1.368zm6.969 1.376v-5.496h3.18v.922h-2.109v1.261h.742c.582 0 1.041.149 1.376.445.346.308.52.714.52 1.22 0 .362-.102.69-.306.98-.313.445-.84.668-1.582.668h-1.82zm1.071-2.39v1.467h.511c.681 0 1.022-.24 1.022-.717a.691.691 0 00-.23-.527c-.149-.149-.407-.223-.775-.223h-.528zm5.359-3.106h1.071v3.658l3.016-3.658h.758v5.496h-1.071v-3.675l-3.016 3.675h-.758v-5.496zm8.506 1.253l-.56-.734a2.448 2.448 0 011.689-.643c.554 0 .994.132 1.318.395.324.259.486.605.486 1.039 0 .522-.225.909-.675 1.162.33.082.582.252.758.51.175.259.263.56.263.907 0 .516-.203.934-.61 1.252-.406.32-.93.478-1.573.478-.95 0-1.64-.346-2.069-1.038l.7-.667c.122.274.311.48.57.618.263.132.538.197.823.197.346 0 .607-.08.783-.239a.741.741 0 00.272-.576c0-.56-.4-.84-1.203-.84h-.494v-.924h.494c.28 0 .503-.06.668-.181a.618.618 0 00.247-.52c0-.202-.066-.359-.198-.469-.132-.11-.327-.165-.585-.165-.473 0-.84.146-1.104.437zm7.067-1.253v2.126h2.323v-2.126h1.071v5.496h-1.07v-2.448h-2.325v2.448h-1.07v-5.496h1.07zm9.429 0v.922H51.79v1.228h1.896v.923H51.79v1.5h1.978v.923H50.72v-5.496h3.049zm6.758 4.045v1.253c-.407.214-.86.321-1.36.321-.802 0-1.472-.255-2.01-.766-.588-.566-.882-1.266-.882-2.101 0-.89.294-1.607.881-2.15.517-.484 1.19-.726 2.02-.726a2.8 2.8 0 011.35.338v1.252c-.357-.412-.799-.618-1.326-.618-.538 0-.978.19-1.319.569a1.953 1.953 0 00-.502 1.351c0 .577.187 1.036.56 1.376a1.89 1.89 0 001.302.503c.517 0 .945-.2 1.286-.602zm5.947-3.122h-1.236v4.573h-1.071v-4.574H62.93v-.922h3.543v.922zm2.409-.923h1.599c.34 0 .618.03.832.09.22.055.426.165.618.33.373.33.56.772.56 1.326 0 .517-.15.926-.453 1.228-.324.324-.788.486-1.392.486h-.693v2.036h-1.07v-5.496zm1.071.922v1.616h.437c.313 0 .547-.058.7-.173.198-.154.297-.369.297-.643a.73.73 0 00-.305-.626c-.165-.116-.417-.173-.758-.173h-.37zm8.11-.922v.922h-1.978v1.228h1.896v.923h-1.896v1.5h1.978v.923h-3.049v-5.496h3.049zm2.77 0h1.07v3.658l3.017-3.658h.758v5.496h-1.072v-3.675l-3.016 3.675h-.757v-5.496zm.939-1.459l.741-.296c.121.318.368.477.742.477s.62-.159.742-.477l.741.296c-.11.286-.294.511-.552.676-.252.165-.563.247-.931.247-.368 0-.681-.082-.94-.247a1.376 1.376 0 01-.543-.676zm7.417 1.459h3.71v4.573h.577v2.159h-.99v-1.236h-3.378v1.236h-.988v-2.16a.716.716 0 00.51-.197c.154-.143.275-.324.363-.544.132-.335.198-.816.198-1.442v-2.39zm1.04.922v1.467c0 .687-.064 1.198-.19 1.533-.1.253-.242.47-.429.65h2.217V58.2h-1.599zm-28.622-10.53h-16.12V45.35h13.795v-5.208h-12.96c-5.681 0-10.303-4.608-10.303-10.272 0-5.664 4.622-10.271 10.303-10.271h12.96v-4.997H43.368c.297-.381.553-.738.777-1.166.191-.364.309-.762.432-1.153h17.032v9.634H46.323c-4.398 0-7.976 3.568-7.976 7.953 0 4.386 3.578 7.953 7.976 7.953H61.61v9.846z" fill="#fff"/><path d="M45.729 47.669c-2.137 0-4.238-.412-6.246-1.224a16.984 16.984 0 01-5.208-3.308c-1.532-1.423-2.74-3.066-3.59-4.886a13.986 13.986 0 01-1.345-5.963v-.658h2.325v.658c0 6.958 6.572 13.063 14.063 13.063v2.318z" fill="#fff"/><path d="M45.436 33.954H29.457v-2.319h15.979a1.947 1.947 0 001.947-1.941c0-1.07-.874-1.942-1.947-1.942h-5.621c.122-.445.21-.793.414-1.204.18-.362.453-.792.736-1.115h4.47c2.357 0 4.274 1.912 4.274 4.26 0 2.35-1.917 4.26-4.273 4.26zm-10.183-6.201h-6.252V16.298a21.71 21.71 0 000-.807c-.035-2.12-.071-4.31-1.032-6.33-.76-1.595-1.854-2.576-2.442-3.103a11.613 11.613 0 00-4.16-2.38c-.61-.197-2.256-.642-4.334-.538-.297.015-.597.041-.891.078L15.856.917a14.948 14.948 0 016.225.554 13.936 13.936 0 015.001 2.863c.659.59 2.028 1.818 2.987 3.833 1.178 2.473 1.22 5.03 1.258 7.286.005.292.005.585 0 .874v9.107h4.782c-.224.36-.451.734-.592 1.115-.144.392-.189.796-.264 1.204z" fill="#fff"/><path d="M32.126 21.005c-.398 0-.799-.023-1.2-.067l.257-2.305a8.23 8.23 0 002.899-.184c1.9-.47 3.123-1.522 4.017-2.29.623-.536 1.92-1.651 2.903-3.58 1.07-2.1 1.238-4.139 1.19-5.48l2.323-.083a13.519 13.519 0 01-1.44 6.614c-1.19 2.335-2.78 3.702-3.458 4.285-1.01.869-2.537 2.181-4.975 2.785-.82.202-1.664.305-2.516.305z" fill="#fff"/><path d="M31.235 16.562l-2.137-.913a16.665 16.665 0 012.321-3.862c.658-.818 2.025-2.52 4.379-3.802a13.56 13.56 0 014.65-1.528c1.508-.193 3.63-.18 3.72-.178h.054l.477.048-.231 2.307-.369-.037c-.326-.001-2.122.002-3.354.16a11.32 11.32 0 00-3.831 1.263c-1.946 1.06-3.074 2.463-3.68 3.217a14.335 14.335 0 00-1.999 3.325z" fill="#fff"/><path d="M29.565 15.616a14.67 14.67 0 01-3.819-.505c-3.098-.837-5.11-2.478-5.83-3.145-1.508-1.394-2.344-2.819-2.71-3.544-.719-1.432-.974-2.684-1.244-4.01A23.693 23.693 0 0115.516.9l2.323-.118a21.39 21.39 0 00.402 3.17c.26 1.271.464 2.275 1.046 3.432.237.47.926 1.695 2.21 2.883.595.55 2.259 1.904 4.858 2.606 1.043.282 2.123.425 3.21.425h.005l.002 2.319h-.007z" fill="#fff"/></svg>