<svg width="467" height="386" viewBox="0 0 467 386" fill="none" xmlns="http://www.w3.org/2000/svg">
<g opacity="0.3">
<path d="M65.6958 44.7572C111.26 37.3444 149.063 36.8214 185.083 67.8803C201.463 82.0043 214.245 101.373 235.233 109.23C263.095 119.663 297.384 105.254 323.121 95.3424C337.287 89.881 352.742 78.1001 367.732 75.1518C379.007 72.9389 387.464 77.4041 397.342 82.7688C424.308 97.4253 446.358 114.223 476.624 122.183C540.235 138.907 642.676 145.999 684.399 84.2609C710.944 119.451 720.847 176.315 681.367 207.687C661.64 223.363 600.676 220.726 610.464 257.137C613.815 269.601 624.678 279.274 628.598 291.673C633.103 305.923 628.92 318.876 625.229 332.885C611.672 384.343 625.256 425.597 648.26 473.124C613.345 457.676 592.615 435.555 563.509 412.878C541.272 395.554 520.852 395.066 494.378 403.76C463.025 414.039 434.415 444.592 399.952 439.872C372.082 436.056 346.305 417.693 322.741 403.695C299.168 389.685 268.989 368.15 239.764 369.827C212.903 371.362 193.987 395.49 167.13 400.445C111.011 410.808 58.0258 369.539 4.57094 359.349C9.5313 327.404 23.3586 309.911 46.9196 288.882C80.3508 259.034 130.313 225.975 85.6925 182.519C67.126 164.441 16.5598 140.579 44.3553 109.569C51.4158 101.699 63.6405 99.9853 71.0247 92.8474C88.401 76.0559 77.2316 63.1328 65.7257 44.7962L65.6958 44.7572Z" stroke="#F7EEE7" stroke-width="0.25" stroke-linecap="round" stroke-linejoin="round"/>
<path d="M6.91316 344.601C56.1272 355.353 107.191 383.762 158.444 369.408C184.088 362.227 200.637 346.401 228.594 348.769C258.074 351.268 285.558 366.507 311.648 379.227C335.04 390.623 359.835 404.491 386.111 407.478C421.875 411.53 447.053 384.702 479.678 374.859C505.702 367.017 524.441 372.103 545.804 387.829C574.21 408.734 595.36 425.191 630.692 435.267" stroke="#F7EEE7" stroke-width="0.25" stroke-linecap="round" stroke-linejoin="round"/>
<path d="M10.2604 332.588C57.816 344.498 104.71 359.215 153.728 347.111C180.017 340.622 199.063 330.377 226.836 334.752C256.188 339.37 283.592 352.124 310.817 363.406C333.979 373.009 358.174 383.367 383.546 384.624C415.468 386.22 436.981 365.585 466.338 356.63C491.281 349.018 510.216 354.656 531.265 368.508C561.7 388.548 584.119 399.803 621.218 404.533" stroke="#F7EEE7" stroke-width="0.25" stroke-linecap="round" stroke-linejoin="round"/>
<path d="M15.6203 321.857C66.2618 336.298 109.887 339.251 161.313 328.713C189.011 323.041 209.184 319.737 237.039 326.504C264.645 333.215 290.997 343.939 317.821 353.126C339.53 360.564 362.034 367.548 385.2 367.568C414.481 367.59 434.48 349.674 461.922 342.847C485.816 336.907 503.048 344.128 523.45 355.9C555.357 374.336 580.663 380.16 618.029 379.509" stroke="#F7EEE7" stroke-width="0.25" stroke-linecap="round" stroke-linejoin="round"/>
<path d="M23.98 310.951C53.7018 320.555 82.6458 327.384 114.038 323.88C134.413 321.606 154.253 315.691 174.551 312.766C229.958 304.795 277.639 332.035 330.247 345.37C350.363 350.463 370.897 353.976 391.695 352.658C417.636 351.014 437.143 336.032 462.031 331.401C484.599 327.2 500.795 336.607 520.093 346.576C553.487 363.819 582.169 364.054 619.23 358.811" stroke="#F7EEE7" stroke-width="0.25" stroke-linecap="round" stroke-linejoin="round"/>
<path d="M36.3568 298.437C67.2693 309.809 95.8381 317.359 128.534 310.781C150.164 306.433 170.355 298.124 192.658 296.899C245.801 293.964 293.101 330.024 345.637 337C364.072 339.443 382.56 339.267 400.966 336.524C424.196 333.052 445.854 319.37 469.035 318.564C489.543 317.849 503.897 330.258 521.418 338.65C555.166 354.808 587.31 349.675 622.989 341.017" stroke="#F7EEE7" stroke-width="0.25" stroke-linecap="round" stroke-linejoin="round"/>
<path d="M53.7229 282.869C84.1597 295.812 111.886 305.235 144.561 295.632C164.28 289.84 182 279.911 203.114 279.824C235.695 279.698 262.073 299.436 291.215 311.041C313.67 319.99 337.396 325.944 361.705 325.17C381.115 324.556 399.731 319.156 418.324 314.115C436.735 309.12 459.548 298.193 478.932 302.104C494.961 305.35 506.954 318.405 520.647 326.35C555.258 346.404 591.385 336.206 627.461 324.717" stroke="#F7EEE7" stroke-width="0.25" stroke-linecap="round" stroke-linejoin="round"/>
<path d="M77.1379 262.778C104.928 276.762 131.658 289.496 161.976 276.081C178.634 268.718 191.857 257.402 211.202 258.868C243.731 261.349 271.228 288.611 301.241 299.818C325.346 308.821 350.632 312.413 375.905 306.631C408.446 299.193 456.72 258.85 489.773 277.881C503.637 285.86 511.909 301.903 524.702 311.457C557.195 335.713 596.564 321.11 630.835 308.519" stroke="#F7EEE7" stroke-width="0.25" stroke-linecap="round" stroke-linejoin="round"/>
<path d="M100.864 234.742C124.813 245.814 147.764 256.487 174.378 250.099C188.673 246.674 199.538 240.579 214.762 243.462C244.051 249.006 270.762 270.375 299.403 279.416C324.232 287.267 349.485 291.461 375.434 287.367C409.26 282.048 459.411 243.749 492.475 257.833C506.643 263.868 515.904 279.131 528.245 287.867C559.906 310.286 593.706 302.687 628.893 292.446" stroke="#F7EEE7" stroke-width="0.25" stroke-linecap="round" stroke-linejoin="round"/>
<path d="M104.503 211.307C126.64 219.572 148.419 227.534 172.302 227.603C186.374 227.638 198.429 226.322 212.246 230.326C264.51 245.472 309.568 276.404 366.568 273.172C385.689 272.088 404.06 266.515 422.118 260.482C439.053 254.825 460.512 242.214 478.854 244.201C496.551 246.127 510.873 261.964 525.585 270.417C556.918 288.427 587.162 285.133 621.608 277.503" stroke="#F7EEE7" stroke-width="0.25" stroke-linecap="round" stroke-linejoin="round"/>
<path d="M94.1715 191.421C130.215 200.529 168.036 205.447 203.163 217.783C251.541 234.785 300.809 258.138 352.653 262.046C370.866 263.421 388.227 260.82 405.757 255.873C424.801 250.506 444.328 237.406 464.016 236.63C482.342 235.907 498.509 246.513 514.707 253.61C548.176 268.261 577.009 269.204 613.367 263.623" stroke="#F7EEE7" stroke-width="0.25" stroke-linecap="round" stroke-linejoin="round"/>
<path d="M75.9661 174.057C166.45 185 248.791 230.945 337.214 252.377C353.478 256.32 368.9 256.918 385.316 253.247C406.71 248.471 424.264 234.049 445.344 229.884C466.16 225.767 485.995 232.9 505.726 238.876C541.002 249.551 571.28 253.79 608.545 250.803" stroke="#F7EEE7" stroke-width="0.25" stroke-linecap="round" stroke-linejoin="round"/>
<path d="M56.0103 158.19C85.4214 157.937 112.004 160.545 138.761 173.423C156.793 182.104 173.307 193.62 192.168 200.613C215.557 209.3 240.997 210.566 264.85 217.856C285.36 224.121 303.921 234.004 323.603 242.214C337.198 247.893 349.888 251.586 364.765 249.499C389.429 246.04 406.797 228.069 430.168 221.312C452.642 214.81 476.048 218.225 498.463 222.967C536.641 231.025 572.153 238.849 611.512 239.103" stroke="#F7EEE7" stroke-width="0.25" stroke-linecap="round" stroke-linejoin="round"/>
<path d="M40.4063 142.779C74.0425 138.368 101.67 141.813 131.192 159.13C148.353 169.19 163.626 182.596 182.104 190.367C208.245 201.366 236.551 197.28 263.529 204.946C282.452 210.325 298.267 220.056 315.17 229.685C358.986 254.641 381.637 222.193 423.632 208.742C488.38 187.998 561.918 220.784 626.633 228.432" stroke="#F7EEE7" stroke-width="0.25" stroke-linecap="round" stroke-linejoin="round"/>
<path d="M35.2573 126.786C68.3235 118.379 94.214 120.218 122.956 139.637C143.093 153.241 160.352 172.559 182.719 182.71C207.903 194.155 231.651 185.686 258.015 189.07C280.224 191.917 296.515 201.851 315.366 212.904C329.037 220.929 339.957 227.341 356.342 224.168C382.919 219.036 404.803 196.292 431.144 188.433C506.001 166.092 586.446 199.952 658.309 218.803" stroke="#F7EEE7" stroke-width="0.25" stroke-linecap="round" stroke-linejoin="round"/>
<path d="M40.9518 113.17C77.6232 104.596 104.645 107.507 135.436 130.242C154.314 144.182 170.546 162.792 192.447 172.229C219.007 183.68 246.128 172.563 273.835 175.225C291.596 176.937 306.66 182.986 322.491 190.653C365.05 211.241 392.29 184.709 435.587 177.312C516.344 163.512 599.488 195.23 677.821 210.336" stroke="#F7EEE7" stroke-width="0.25" stroke-linecap="round" stroke-linejoin="round"/>
<path d="M51.5356 104.061C89.1414 96.1005 117.158 98.5468 147.953 122.929C166.036 137.243 181.252 156.477 202.729 166.021C229.455 177.903 256.344 165.798 284.015 165.199C300.203 164.848 314.5 167.597 329.777 172.39C369.703 184.893 400.222 168.983 441.11 166.404C525.698 161.068 609.16 188.172 692.896 195.399" stroke="#F7EEE7" stroke-width="0.25" stroke-linecap="round" stroke-linejoin="round"/>
<path d="M63.8194 97.126C102.237 89.7393 131.327 91.7437 161.941 117.853C179.169 132.544 193.262 152.412 214.29 162.095C251.953 179.447 296.662 150.643 337.24 156.252C374.059 161.342 407.971 155.812 445.146 156.338C531.556 157.546 616.493 180.362 703.104 175.713" stroke="#F7EEE7" stroke-width="0.25" stroke-linecap="round" stroke-linejoin="round"/>
<path d="M74.5687 90.0467C111.293 83.6389 142.045 83.7499 171.461 109.036C188.769 123.912 202.014 145.875 222.784 156.446C262.303 176.551 304.344 142.576 344.771 140.391C379.684 138.507 418.563 144.615 453.239 147.274C537 153.7 624.758 172.208 707.896 153.002" stroke="#F7EEE7" stroke-width="0.25" stroke-linecap="round" stroke-linejoin="round"/>
<path d="M80.6121 80.5032C118.331 74.3432 150.969 73.7809 180.949 100.273C197.883 115.241 210.544 137.651 231.194 148.078C272.976 169.159 312.758 130.987 352.393 122.862C362.421 120.812 370.683 122.59 380.661 124.817C406.375 130.554 431.424 135.06 457.627 138.423C537.061 148.631 631.574 164.062 706.716 129.025" stroke="#F7EEE7" stroke-width="0.25" stroke-linecap="round" stroke-linejoin="round"/>
<path d="M78.7214 66.1774C120.425 59.5393 155.223 59.1452 187.766 89.0452C204.047 104.008 216.651 124.906 237.653 133.897C282.197 152.973 320.218 112.397 360.099 101.702C370.275 98.971 378.027 101.698 387.751 105.314C411.853 114.259 434.16 123.971 459.673 129.028C533.37 143.616 636.817 156.361 699.076 105.549" stroke="#F7EEE7" stroke-width="0.25" stroke-linecap="round" stroke-linejoin="round"/>
<path d="M541.588 131.919C531.105 151.137 525.313 163.633 507.203 176.429C481.255 194.763 465.111 211.682 489.509 238.465C498.288 248.096 509.686 256.895 513.381 270.116C518.425 288.16 507.528 303.344 503.879 320.218C496.925 352.32 526.071 376.112 543.918 400.794" stroke="#F7EEE7" stroke-width="0.25" stroke-linecap="round" stroke-linejoin="round"/>
<path d="M516.106 129.643C503.793 143.706 499.321 161.067 484.513 173.342C458.081 195.253 448.657 211.215 477.465 234.739C489.974 244.945 505.244 252.97 506.681 271.192C507.944 287.186 496.409 302.436 492.885 317.297C485.584 348.139 513.297 373.411 529.594 397.631" stroke="#F7EEE7" stroke-width="0.25" stroke-linecap="round" stroke-linejoin="round"/>
<path d="M491.87 125.699C477.072 138.606 471.008 159.539 459.162 175.017C438.87 201.532 433.78 215.964 465.379 232.748C475.915 238.352 491.246 244.319 496.498 256.356C504.228 274.032 489.911 293.911 483.775 309.816C470.127 345.237 493.905 367.701 512.398 398.631" stroke="#F7EEE7" stroke-width="0.25" stroke-linecap="round" stroke-linejoin="round"/>
<path d="M469.687 120.264C450.929 134.609 446.404 157.764 435.918 177.624C430.253 188.362 416.315 200.238 422.11 213.818C427.053 225.371 442.872 229.5 453.23 233.177C463.879 236.951 481.59 240.804 487.629 252.187C496.876 269.596 479.024 292.65 472.17 307.888C454.764 346.584 472.454 367.242 491.268 404.587" stroke="#F7EEE7" stroke-width="0.25" stroke-linecap="round" stroke-linejoin="round"/>
<path d="M450.417 113.545C428.751 132.688 425.005 151.616 415.487 177.416C410.36 191.329 395.907 208.611 405.729 223.434C412.095 233.039 431.006 234.705 440.568 236.713C453.231 239.375 472.029 240.477 478.341 253.682C486.447 270.625 465.852 295.454 458.203 309.91C452.561 320.557 445.174 332.41 443.666 344.724C440.836 367.869 457.24 396.142 465.249 416.305" stroke="#F7EEE7" stroke-width="0.25" stroke-linecap="round" stroke-linejoin="round"/>
<path d="M434.84 105.713C405.826 131.007 402.222 155.322 391.985 190.458C389.059 200.518 378.343 217.791 383.738 228.739C390.967 243.395 413.472 242.769 426.988 244.003C438.509 245.056 462.654 243.583 468.301 257.318C473.223 269.289 451.118 299.452 446.696 307.05C437.258 323.301 423.71 340.539 420.102 359.485C415.419 384.02 426.849 411.602 433.339 434.518" stroke="#F7EEE7" stroke-width="0.25" stroke-linecap="round" stroke-linejoin="round"/>
<path d="M415.119 93.47C390.453 126.411 384.99 158.009 375.721 196.961C373.37 206.817 362.954 225.881 368.56 236.296C375.834 249.814 397.685 249.008 410.433 250.141C421.495 251.133 445.143 249.805 450.804 262.807C455.885 274.46 435.634 303.314 431.37 310.864C421.993 327.45 408.073 344.756 403.918 363.781C398.346 389.308 410.025 416.596 417.399 440.328" stroke="#F7EEE7" stroke-width="0.25" stroke-linecap="round" stroke-linejoin="round"/>
<path d="M400.292 84.477C379.492 122.001 371.523 158.708 362.264 200.054C360.055 209.905 350.049 229.746 355.673 240.117C362.722 253.127 383.356 252.966 395.753 254.636C406.865 256.137 429.258 255.822 434.778 268.747C439.922 280.806 421.763 306.715 416.977 314.86C407.569 330.882 392.693 347.128 387.594 365.34C380.5 390.631 392.207 416.651 400.115 440.139" stroke="#F7EEE7" stroke-width="0.25" stroke-linecap="round" stroke-linejoin="round"/>
<path d="M389.242 78.4323C371.613 118.289 360.757 158.035 350.909 200.307C348.548 210.418 339 229.981 344.472 240.706C351.175 253.868 370.096 254.473 382.411 257.475C393.9 260.274 414.441 261.174 419.731 274.606C424.783 287.446 408.958 309.554 403.13 318.613C393.515 333.545 377.374 347.698 371.028 364.486C361.921 388.577 373.511 412.562 381.717 435.121" stroke="#F7EEE7" stroke-width="0.25" stroke-linecap="round" stroke-linejoin="round"/>
<path d="M380.877 75.0526C365.803 115.713 351.884 156.374 340.977 198.366C330.981 236.895 331.513 245.077 369.851 258.817C381.642 263.045 400.331 266.129 405.158 280.06C409.899 293.757 396.754 312.006 389.479 321.854C379.403 335.512 361.98 346.636 354.17 361.69C342.678 383.868 354.083 405.272 362.482 426.549" stroke="#F7EEE7" stroke-width="0.25" stroke-linecap="round" stroke-linejoin="round"/>
<path d="M374.074 74.0509C361.376 113.601 345.108 151.898 332.829 191.549C328.638 205.096 319.238 223.885 326.21 237.842C331.878 249.199 347.069 253.666 357.561 258.714C395.349 276.899 400.864 301.367 367.735 332.374C358.786 340.753 345.278 346.535 337.994 356.277C322.896 376.497 333.679 394.481 342.737 415.623" stroke="#F7EEE7" stroke-width="0.25" stroke-linecap="round" stroke-linejoin="round"/>
<path d="M367.731 75.1518C356.577 114.59 338.067 149.265 323.816 187.314C310.378 223.183 313.631 236.661 344.993 257.278C376.57 278.04 389.581 305.493 353.234 332.142C343.413 339.344 329.173 342.625 320.609 351.008C302.932 368.308 313.151 383.394 322.734 403.659" stroke="#F7EEE7" stroke-width="0.25" stroke-linecap="round" stroke-linejoin="round"/>
<path d="M360.742 78.0585C351.028 116.753 332.463 144.593 315.524 179.568C298.011 215.717 304.506 230.007 331.603 254.556C355.113 275.864 378.021 305.357 340.913 328.837C329.606 335.983 315.242 337.275 304.217 344.317C282.574 358.153 292.127 371.47 302.732 391.859" stroke="#F7EEE7" stroke-width="0.25" stroke-linecap="round" stroke-linejoin="round"/>
<path d="M352 82.4842C346.637 107.128 340.661 126.859 326.064 147.448C319.224 157.097 310.772 165.518 304.598 175.687C284.705 208.464 294.481 225.312 316.848 250.683C335.682 272.041 361.911 306.71 324.63 326.012C312.453 332.319 298.01 332.095 285.993 338.073C262.77 349.635 271.275 361.168 283.01 381.484" stroke="#F7EEE7" stroke-width="0.25" stroke-linecap="round" stroke-linejoin="round"/>
<path d="M340.387 88.1425C336.011 112.555 331.603 130.846 314.919 149.468C307.61 157.632 298.192 163.813 291.593 172.7C270.078 201.668 281.956 220.719 300.216 245.723C315.895 267.202 342.15 304.057 306.95 321.299C294.41 327.442 280.027 326.934 267.179 331.787C241.999 341.282 251.762 354.696 263.879 373.79" stroke="#F7EEE7" stroke-width="0.25" stroke-linecap="round" stroke-linejoin="round"/>
<path d="M324.81 94.7482C321.648 118.725 319.012 136.317 300.518 152.739C292.863 159.538 282.815 163.512 275.794 171.164C253.341 195.655 266.508 216.44 281.162 239.755C294.379 260.78 319.276 297.854 287.559 314.434C275.199 320.893 260.409 320.553 247.674 325.783C221.6 336.49 232.359 350.573 245.58 369.976" stroke="#F7EEE7" stroke-width="0.25" stroke-linecap="round" stroke-linejoin="round"/>
<path d="M304.16 102.028C302.582 124.346 302.094 142.641 283.167 156.766C274.222 163.441 263.078 165.543 254.852 173.491C234.948 192.716 247.58 213.313 259.17 232.957C272.295 255.218 293.058 289.296 263.479 306.66C251.865 313.474 237.362 314.502 225.732 321.267C200.69 335.822 214.944 352.525 228.416 371.354" stroke="#F7EEE7" stroke-width="0.25" stroke-linecap="round" stroke-linejoin="round"/>
<path d="M277.311 109.668C277.373 130.078 279.343 150.098 260.669 162.75C251.081 169.247 238.275 168.912 229.63 177.378C213.516 193.18 224.634 209.236 233.604 225.208C244.031 243.764 259.592 268.786 246.247 289.436C237.038 303.686 215.38 307.366 203.268 318.49C180.678 339.239 198.129 359.131 212.63 379.099" stroke="#F7EEE7" stroke-width="0.25" stroke-linecap="round" stroke-linejoin="round"/>
<path d="M256.744 112.685C257.843 132.229 260.992 151.541 242.891 163.825C233.522 170.176 220.969 169.512 212.467 177.775C196.574 193.233 208.333 205.312 218.091 219.648C231.211 238.933 238.911 261.261 225.609 282.908C215.592 299.211 196.74 307.369 184.767 321.862C164.53 346.365 179.701 367.974 194.149 390.994" stroke="#F7EEE7" stroke-width="0.25" stroke-linecap="round" stroke-linejoin="round"/>
<path d="M240.016 110.748C241.924 129.908 245.819 148.338 227.908 160.425C218.491 166.781 205.76 165.872 197.174 174.159C180.55 190.198 194.666 201.047 205.127 214.834C220.939 235.652 221.545 257.512 208.06 280.29C197.699 297.785 179.645 308.652 168.1 325.127C149.698 351.377 162.199 373.23 176.075 398.287" stroke="#F7EEE7" stroke-width="0.25" stroke-linecap="round" stroke-linejoin="round"/>
<path d="M226.127 104.901C228.779 125.057 232.88 142.02 213.919 154.098C204.949 159.812 193.529 159.403 185.026 166.44C164.941 183.061 182.358 196.225 194.087 210.751C215.186 236.877 205.695 265.038 186.117 290.293C176.257 303.011 163.314 313.185 154.108 326.432C135.535 353.185 145.306 374.76 158.382 401.637" stroke="#F7EEE7" stroke-width="0.25" stroke-linecap="round" stroke-linejoin="round"/>
<path d="M214.093 96.1468C217.403 116.624 221.551 132.519 202.323 144.678C192.95 150.608 181.025 150.226 172.122 157.467C149.952 175.47 172.169 191.625 184.449 207.099C207.787 236.52 194.272 265.983 172.24 293.027C162.072 305.517 149.248 315.847 139.965 329.061C122.129 354.475 129.643 375.11 141.013 401.645" stroke="#F7EEE7" stroke-width="0.25" stroke-linecap="round" stroke-linejoin="round"/>
<path d="M202.911 85.533C206.874 106.458 210.908 121.358 191.353 133.695C181.525 139.892 169.022 139.644 159.64 147.149C135.186 166.718 162.741 187.09 175.562 203.861C201.107 237.261 185.172 267.899 159.337 296.787C148.794 308.586 136.01 318.524 126.491 331.228C109.15 354.386 114.467 373.54 123.855 398.997" stroke="#F7EEE7" stroke-width="0.25" stroke-linecap="round" stroke-linejoin="round"/>
<path d="M191.607 74.0744C196.259 95.4403 200.151 109.47 180.292 122.082C170.024 128.606 156.934 128.56 147.102 136.379C120.435 157.594 153.452 182.748 166.868 200.94C194.553 238.463 177.304 270.573 146.809 300.9C115.63 331.897 92.4791 346.899 106.879 394.354" stroke="#F7EEE7" stroke-width="0.25" stroke-linecap="round" stroke-linejoin="round"/>
<path d="M179.184 62.7833C184.621 84.4746 188.491 97.7889 168.419 110.77C157.79 117.643 144.188 117.857 134.008 126.015C105.415 148.914 143.708 178.662 157.769 198.152C187.557 239.466 169.451 273.47 134.001 304.557C103.949 330.905 79.9255 344.38 89.9994 388.264" stroke="#F7EEE7" stroke-width="0.25" stroke-linecap="round" stroke-linejoin="round"/>
<path d="M164.653 52.6857C171.002 74.4622 175.111 87.2829 155.04 100.708C144.223 107.941 130.244 108.444 119.866 116.949C89.874 141.519 132.928 174.906 147.671 195.421C179.622 239.891 160.215 275.883 120.29 307.091C91.802 329.373 67.3585 341.253 73.1373 381.419" stroke="#F7EEE7" stroke-width="0.25" stroke-linecap="round" stroke-linejoin="round"/>
<path d="M147.029 44.8168C154.463 66.3279 159.253 78.8648 139.431 92.871C128.67 100.474 114.488 101.276 104.175 110.094C73.5386 136.271 120.542 171.568 135.972 192.628C170.296 239.466 148.08 276.756 105.048 307.8C78.294 327.113 54.4577 337.928 56.2421 374.486" stroke="#F7EEE7" stroke-width="0.25" stroke-linecap="round" stroke-linejoin="round"/>
<path d="M125.31 40.1898C133.953 60.9383 140.073 73.4756 120.872 88.1706C110.511 96.1065 96.3835 97.2077 86.4312 106.295C56.1336 133.976 105.966 168.712 122.08 189.629C159.243 237.856 131.434 274.899 87.6234 305.922C62.468 323.73 40.7867 334.666 39.2197 368.051" stroke="#F7EEE7" stroke-width="0.25" stroke-linecap="round" stroke-linejoin="round"/>
<path d="M98.536 39.8332C108.413 59.1921 116.759 72.023 98.6815 87.5782C89.1356 95.7966 75.3529 97.2001 66.1685 106.482C37.4824 135.484 88.649 166.475 105.428 186.336C177.452 271.573 24.0567 289.309 22.0226 362.783" stroke="#F7EEE7" stroke-width="0.25" stroke-linecap="round" stroke-linejoin="round"/>
</g>
</svg>
