<?xml version="1.0" encoding="utf-8"?><svg viewBox="0 0 59 32" xmlns="http://www.w3.org/2000/svg" xmlns:xlink="http://www.w3.org/1999/xlink"><style>:root>svg{display:none}:root>svg:target{display:block}</style><svg fill="none" viewBox="0 0 26 22" id="icon-arrow"><path d="M14.154 2L23 11m0 0l-8.846 9M23 11H0" stroke="#F94244" stroke-width="3"/></svg><svg fill="none" viewBox="0 0 25 25" id="icon-fb"><path d="M12.5 0C5.596 0 0 5.596 0 12.5S5.596 25 12.5 25 25 19.404 25 12.5 19.404 0 12.5 0zm4.769 6.366h-1.73c-1.355 0-1.617.645-1.617 1.59v2.084h3.233l-.002 3.265h-3.23v8.378H10.55v-8.378H7.731V10.04h2.82V7.633c0-2.794 1.706-4.316 4.199-4.316l2.52.004v3.045h-.001z" fill="#26242D"/></svg><svg fill="none" viewBox="0 0 24 25" id="icon-inst"><path d="M14.297 12.5c0 1.321-1.028 2.393-2.297 2.393-1.269 0-2.297-1.072-2.297-2.393 0-1.321 1.028-2.393 2.297-2.393 1.269 0 2.297 1.072 2.297 2.393z" fill="#26242D"/><path d="M17.371 8.266a2.234 2.234 0 00-.515-.825 2.127 2.127 0 00-.792-.537c-.243-.098-.608-.215-1.28-.247-.727-.034-.944-.042-2.784-.042-1.84 0-2.058.007-2.785.042-.672.032-1.036.149-1.28.247-.298.115-.57.299-.791.537a2.236 2.236 0 00-.516.825c-.094.253-.207.633-.237 1.333-.033.757-.04.984-.04 2.9 0 1.917.007 2.144.04 2.901.03.7.143 1.08.237 1.333.11.312.287.594.515.825.223.239.493.422.793.537.243.099.607.216 1.28.247.726.035.944.042 2.784.042 1.84 0 2.058-.007 2.784-.042.672-.031 1.037-.148 1.28-.247a2.332 2.332 0 001.307-1.362c.095-.253.207-.633.238-1.333.033-.757.04-.984.04-2.9 0-1.917-.007-2.144-.04-2.9-.03-.7-.143-1.08-.238-1.334zM12 16.186c-1.954 0-3.539-1.65-3.539-3.686S10.046 8.814 12 8.814c1.954 0 3.538 1.65 3.538 3.686 0 2.035-1.584 3.685-3.538 3.685zm3.678-6.657c-.457 0-.827-.385-.827-.86 0-.477.37-.862.827-.862.457 0 .827.385.827.861s-.37.861-.827.861z" fill="#26242D"/><path d="M12 0C5.374 0 0 5.598 0 12.5S5.374 25 12 25s12-5.598 12-12.5S18.626 0 12 0zm6.85 15.46c-.034.763-.15 1.285-.321 1.742a3.6 3.6 0 01-2.015 2.099c-.439.177-.94.299-1.673.333-.735.035-.97.044-2.84.044-1.872 0-2.107-.009-2.842-.044-.733-.035-1.234-.156-1.672-.333a3.366 3.366 0 01-1.221-.828 3.536 3.536 0 01-.795-1.271c-.17-.457-.287-.979-.32-1.743-.034-.765-.042-1.01-.042-2.959 0-1.95.008-2.194.042-2.96.033-.763.15-1.285.32-1.742.173-.479.444-.912.795-1.27.344-.366.76-.649 1.22-.829.439-.177.94-.299 1.673-.333.735-.035.97-.044 2.841-.044 1.871 0 2.106.009 2.84.044.734.034 1.235.156 1.674.333.46.18.876.463 1.22.828.35.359.622.792.795 1.271.17.457.287.979.32 1.743.034.765.042 1.01.042 2.959 0 1.95-.008 2.194-.042 2.96z" fill="#26242D"/></svg><svg fill="none" viewBox="0 0 29 29" id="icon-instRed" xmlns="http://www.w3.org/2000/svg"><path d="M17.275 14.5a2.775 2.775 0 11-5.55 0 2.775 2.775 0 015.55 0z" fill="#F94244"/><path d="M20.99 9.59a2.579 2.579 0 00-.622-.958 2.578 2.578 0 00-.958-.623c-.293-.114-.734-.25-1.546-.287-.878-.04-1.141-.048-3.364-.048-2.224 0-2.487.008-3.365.048-.812.037-1.253.173-1.546.287a2.576 2.576 0 00-.957.623c-.277.268-.49.595-.623.957-.114.294-.25.734-.287 1.546-.04.878-.048 1.142-.048 3.365 0 2.223.008 2.486.048 3.364.037.812.173 1.253.287 1.546.133.362.346.69.623.958.268.276.595.49.957.623.293.114.734.25 1.546.286.878.04 1.141.049 3.364.049 2.224 0 2.487-.009 3.365-.049.812-.037 1.253-.172 1.546-.286.726-.28 1.3-.854 1.58-1.58.114-.294.25-.735.287-1.547.04-.878.049-1.141.049-3.364s-.009-2.487-.049-3.365c-.037-.812-.172-1.252-.287-1.546zm-6.49 9.185a4.275 4.275 0 110-8.55 4.275 4.275 0 010 8.55zm4.444-7.72a1 1 0 110-1.999 1 1 0 010 1.998z" fill="#F94244"/><path d="M14.5 0C6.493 0 0 6.493 0 14.5S6.493 29 14.5 29 29 22.507 29 14.5 22.507 0 14.5 0zm8.276 17.933c-.04.886-.181 1.491-.387 2.02a4.258 4.258 0 01-2.435 2.436c-.53.206-1.135.346-2.021.387-.888.04-1.172.05-3.433.05s-2.545-.01-3.433-.05c-.886-.04-1.491-.181-2.02-.387a4.08 4.08 0 01-1.476-.96 4.08 4.08 0 01-.96-1.475c-.206-.53-.346-1.135-.387-2.021-.04-.888-.05-1.172-.05-3.433s.01-2.545.05-3.433c.04-.886.181-1.491.387-2.02.209-.556.537-1.06.96-1.476.416-.423.92-.75 1.475-.96.53-.206 1.135-.346 2.021-.387.888-.04 1.172-.05 3.433-.05s2.545.01 3.433.05c.886.04 1.491.181 2.02.387.556.209 1.06.537 1.476.96.423.416.751.92.96 1.475.206.53.347 1.135.387 2.021.04.888.05 1.172.05 3.433s-.01 2.545-.05 3.433z" fill="#F94244"/></svg><svg fill="none" viewBox="0 0 29 28" id="icon-mail" xmlns="http://www.w3.org/2000/svg"><path d="M27.964 4H1.035L14.5 14.708 28.116 4.03a.965.965 0 00-.152-.03z" fill="#F94244"/><path d="M15.153 16.777c-.381.301-.93.301-1.312 0L0 5.767V23c0 .552.464 1 1.036 1h26.928c.572 0 1.036-.448 1.036-1V5.915L15.153 16.777z" fill="#F94244"/></svg><svg fill="none" viewBox="0 0 25 32" id="icon-map" xmlns="http://www.w3.org/2000/svg"><path d="M12.07 0C5.416 0 0 5.415 0 12.07c0 9.582 10.776 19.208 11.235 19.614a1.265 1.265 0 001.697-.024c.457-.428 11.21-10.584 11.21-19.59C24.142 5.417 18.724 0 12.07 0zm0 17.826a5.755 5.755 0 11.001-11.51 5.755 5.755 0 010 11.51z" fill="#F94244"/></svg><svg fill="none" viewBox="0 0 27 26" id="icon-phone" xmlns="http://www.w3.org/2000/svg"><g clip-path="url(#gclip0)"><path d="M26.265 19.081l-3.768-3.628c-1.346-1.296-3.633-.777-4.171.907-.404 1.166-1.75 1.814-2.961 1.555-2.691-.648-6.325-4.017-6.998-6.738-.403-1.167.404-2.462 1.615-2.851 1.75-.519 2.288-2.721.942-4.017L7.156.68C6.08-.227 4.465-.227 3.523.68L.966 3.142c-2.557 2.592.27 9.46 6.594 15.55 6.325 6.091 13.457 8.942 16.148 6.35l2.557-2.462c.942-1.036.942-2.591 0-3.499z" fill="#F94244"/></g><defs><clipPath id="gclip0"><path fill="#fff" d="M0 0h27v26H0z"/></clipPath></defs></svg><svg fill="none" viewBox="0 0 26 25" id="icon-tg"><path d="M13 25c7.181 0 13-5.595 13-12.5S20.181 0 13 0 0 5.595 0 12.5 5.819 25 13 25zM5.949 12.23l12.534-4.648c.581-.202 1.09.137.901.983l.001-.001-2.134 9.667c-.158.686-.582.852-1.174.53l-3.25-2.304-1.568 1.452c-.173.167-.32.308-.655.308l.23-3.18 6.024-5.233c.262-.222-.059-.347-.404-.126L9.01 14.184l-3.209-.962c-.696-.213-.712-.67.148-.993z" fill="#26242D"/></svg><svg fill="none" viewBox="0 0 59 15" id="icon-title"><circle cx="51.5" cy="7.5" r="6" stroke="#F94244" stroke-width="3"/><path stroke="#F94244" stroke-width="2" d="M45 8H16M13 8H8M5 8H0"/></svg></svg>