<svg width="77" height="80" viewBox="0 0 77 80" fill="none" xmlns="http://www.w3.org/2000/svg">
<g clip-path="url(#clip0)">
<path d="M26.4457 17.1692C27.278 17.1692 27.9526 16.4691 27.9526 15.6067C27.9526 14.7424 27.278 14.0442 26.4457 14.0442C25.614 14.0442 24.9395 14.7424 24.9395 15.6067C24.9395 16.4691 25.614 17.1692 26.4457 17.1692Z" fill="url(#paint0_linear)"/>
<path d="M66.5225 28.3496C67.6255 26.3446 67.1976 23.8068 65.5048 22.3139L60.4015 17.8205C60.1189 17.5714 59.9271 17.2211 59.8611 16.8347L58.7057 10.0452C58.3196 7.75636 56.4266 6.0962 54.2046 6.0962H47.5432C47.1818 6.0962 46.8287 5.9607 46.5608 5.72511L41.4576 1.13587C41.4534 1.1322 41.4487 1.12854 41.4446 1.12427C39.7388 -0.374756 37.2625 -0.374756 35.5573 1.12427C35.5526 1.12854 35.5485 1.1322 35.5444 1.13587L30.4523 5.71473C30.1733 5.9607 29.8207 6.0962 29.4599 6.0962H22.7968C20.5753 6.0962 18.6824 7.75697 18.2962 10.0427L17.1384 16.8384C17.0737 17.2229 16.883 17.5714 16.6004 17.8198L11.496 22.3145C9.80373 23.8068 9.37639 26.3446 10.4795 28.349L13.811 34.4056C13.9976 34.7449 14.0647 35.1435 13.9999 35.5286L12.8427 42.4146C12.4595 44.6992 13.6933 46.9343 15.7752 47.7283L22.0357 50.1209C22.1605 50.1685 22.2782 50.2326 22.3859 50.3113L10.7808 71.4137C10.1192 72.6167 11.1887 74.0553 12.4796 73.697L19.2574 71.8141L21.0733 78.8417C21.42 80.1838 23.1682 80.4286 23.8374 79.2115L35.8139 57.436L37.9736 56.6108C38.3132 56.4808 38.6881 56.4814 39.0272 56.6102L41.3498 57.4976L54.2004 79.2536C54.8903 80.4206 56.5985 80.1692 56.941 78.8417L58.7575 71.8141L65.5348 73.697C66.8439 74.062 67.9204 72.5746 67.21 71.3716L54.7249 50.2387C54.802 50.1917 54.8826 50.152 54.9668 50.1203L61.225 47.7283C63.311 46.9337 64.5447 44.6979 64.1592 42.414L63.002 35.528C62.9372 35.1435 63.0043 34.7443 63.1909 34.405L66.5225 28.3496ZM23.0357 74.3623L21.7785 69.4959C21.563 68.6622 20.7366 68.1678 19.9326 68.3912L15.1872 69.7096L24.2077 53.3057L26.1831 56.8958C27.2432 58.8252 29.4122 59.7187 31.43 59.0992L23.0357 74.3623ZM62.6676 69.6656L58.0818 68.3912C57.2771 68.1678 56.4513 68.6628 56.2359 69.4959L54.938 74.5198L45.8786 59.1828C46.2059 59.2579 46.5349 59.2951 46.8616 59.2951C48.4579 59.2945 49.983 58.4168 50.8183 56.8964L52.8943 53.1226L62.6676 69.6656ZM60.5734 32.8571C60.0401 33.8263 59.8482 34.9659 60.033 36.0651L61.1902 42.9517C61.325 43.747 60.9018 44.5228 60.1843 44.7962L53.9262 47.1876C52.9885 47.5452 52.1903 48.2203 51.6523 49.0961C51.5905 49.1791 51.5382 49.2683 51.4946 49.3616L48.2007 55.3492C47.8228 56.0365 47.0359 56.3392 46.3301 56.0706C46.1323 55.9949 40.228 53.7391 40.0679 53.6781C39.0578 53.2935 37.9447 53.2929 36.9329 53.6787C36.8116 53.7238 34.1411 54.7449 30.673 56.0706C29.9661 56.3404 29.1791 56.0365 28.8012 55.3486L25.7016 49.715C25.6304 49.4208 25.4779 49.148 25.2531 48.9362C24.718 48.1373 23.9575 47.5239 23.0769 47.1882L16.817 44.7956C16.1013 44.5228 15.6781 43.7464 15.8117 42.9505L16.9689 36.0651C17.1543 34.9659 16.9624 33.8263 16.4292 32.8571L13.0976 26.8006C12.7115 26.1005 12.8598 25.2149 13.4478 24.6961L18.5517 20.2021C19.3699 19.4812 19.9226 18.4772 20.1074 17.3786L21.2646 10.5841C21.3982 9.79432 22.0428 9.22059 22.7974 9.22059H29.4605C30.5353 9.22059 31.5806 8.82142 32.4153 8.08534L37.5115 3.50342C38.086 3.00293 38.9165 3.00293 39.491 3.50342L44.5984 8.09571C45.4213 8.82142 46.4673 9.22059 47.5432 9.22059H54.2052C54.9598 9.22059 55.6043 9.79432 55.7379 10.586L56.8939 17.378C57.0811 18.4796 57.6338 19.4824 58.4508 20.2021L63.5535 24.6949C64.1427 25.2143 64.2905 26.0999 63.9049 26.8006L60.5734 32.8571Z" fill="url(#paint1_linear)"/>
<path d="M38.5006 9.33545C35.9065 9.33545 33.3849 9.85364 31.0058 10.876C30.237 11.2062 29.8721 12.1205 30.1905 12.9176C30.5096 13.7147 31.3913 14.0925 32.1594 13.7629C34.1707 12.8981 36.3044 12.4598 38.5006 12.4598C47.64 12.4598 55.0753 20.1698 55.0753 29.6468C55.0753 39.1237 47.64 46.8337 38.5006 46.8337C29.3612 46.8337 21.9258 39.1237 21.9258 29.6468C21.9258 26.7073 22.6539 23.8057 24.0313 21.2562C24.438 20.5037 24.179 19.5509 23.4533 19.1292C22.7269 18.7074 21.8087 18.976 21.4019 19.7285C19.7733 22.7437 18.9121 26.1732 18.9121 29.6474C18.9121 40.8473 27.6995 49.9593 38.5006 49.9593C49.3016 49.9593 58.089 40.8473 58.089 29.6474C58.089 18.4468 49.3016 9.33545 38.5006 9.33545Z" fill="url(#paint2_linear)"/>
<path d="M32.5825 31.6627L31.7008 36.9887C31.6036 37.5746 31.8361 38.1673 32.3005 38.517C32.7591 38.8631 33.3736 38.9155 33.8869 38.636L38.5004 36.1214L43.114 38.636C43.6213 38.9125 44.2364 38.8667 44.7009 38.517C45.1647 38.1673 45.3972 37.5752 45.3001 36.9887L44.4183 31.6627L48.1501 27.8908C48.561 27.4757 48.7087 26.855 48.5315 26.2892C48.3538 25.7234 47.8823 25.3114 47.3149 25.2253L42.1575 24.4484L39.8519 19.6028C39.5976 19.0693 39.0737 18.7312 38.5004 18.7312C37.9265 18.7312 37.4026 19.0693 37.149 19.6028L34.8434 24.4484L29.6859 25.2253C29.1179 25.3114 28.6464 25.7234 28.4693 26.2892C28.2921 26.855 28.4398 27.4757 28.8507 27.8908L32.5825 31.6627ZM36.0606 27.4226C36.5515 27.3488 36.9759 27.0289 37.1955 26.5681L38.5004 23.8252L39.806 26.5681C40.0249 27.0289 40.4493 27.3488 40.9402 27.4226L43.8603 27.8627L41.7472 29.9983C41.3923 30.3572 41.2304 30.8742 41.314 31.3814L41.8131 34.3965L39.2014 32.9732C38.9819 32.8535 38.7411 32.7937 38.5004 32.7937C38.2597 32.7937 38.0189 32.8535 37.7994 32.9732L35.1877 34.3965L35.6868 31.3814C35.771 30.8748 35.6086 30.3572 35.2536 29.9983L33.1405 27.8627L36.0606 27.4226Z" fill="url(#paint3_linear)"/>
</g>
<defs>
<linearGradient id="paint0_linear" x1="26.1091" y1="13.1761" x2="25.6293" y2="18.2428" gradientUnits="userSpaceOnUse">
<stop stop-color="#FED976"/>
<stop offset="1" stop-color="#FEB54A"/>
</linearGradient>
<linearGradient id="paint1_linear" x1="32.2163" y1="-22.2222" x2="15.8729" y2="106.575" gradientUnits="userSpaceOnUse">
<stop stop-color="#FED976"/>
<stop offset="1" stop-color="#FEB54A"/>
</linearGradient>
<linearGradient id="paint2_linear" x1="34.12" y1="-1.94895" x2="27.8838" y2="63.9165" gradientUnits="userSpaceOnUse">
<stop stop-color="#FED976"/>
<stop offset="1" stop-color="#FEB54A"/>
</linearGradient>
<linearGradient id="paint3_linear" x1="36.2407" y1="13.1522" x2="33.2836" y2="45.7395" gradientUnits="userSpaceOnUse">
<stop stop-color="#FED976"/>
<stop offset="1" stop-color="#FEB54A"/>
</linearGradient>
<clipPath id="clip0">
<rect width="77" height="80" fill="white"/>
</clipPath>
</defs>
</svg>
