<svg width="41" height="81" viewBox="0 0 41 81" fill="none" xmlns="http://www.w3.org/2000/svg">
<path d="M0.502654 79.4485C0.474239 79.7232 0.673874 79.9689 0.94855 79.9973L5.42466 80.4604C5.69934 80.4888 5.94504 80.2892 5.97346 80.0145C6.00187 79.7398 5.80224 79.4941 5.52756 79.4657L1.5488 79.0541L1.96039 75.0753C1.98881 74.8007 1.78917 74.555 1.5145 74.5265C1.23982 74.4981 0.994115 74.6978 0.9657 74.9724L0.502654 79.4485ZM36.5528 1.22361C37.5169 3.15185 38.3263 6.21411 38.839 9.97381C39.3503 13.7233 39.5617 18.1304 39.3505 22.7271C38.9274 31.9366 36.8116 41.8282 32.0876 48.7172L32.9124 49.2828C37.7884 42.1718 39.9226 32.0634 40.3495 22.7729C40.5633 18.1196 40.3497 13.6517 39.8298 9.83869C39.3112 6.03589 38.4831 2.84815 37.4472 0.776393L36.5528 1.22361ZM32.0876 48.7172C22.5394 62.6418 8.7156 72.5868 0.684704 79.1119L1.3153 79.8881C9.2844 73.4132 23.2606 63.3582 32.9124 49.2828L32.0876 48.7172Z" fill="#FFD338"/>
</svg>
