<svg width="44" height="44" viewBox="0 0 44 44" fill="none" xmlns="http://www.w3.org/2000/svg">
<g clip-path="url(#clip0)">
<path d="M37.554 6.44082C28.9612 -2.14941 15.0315 -2.14735 6.44131 6.44554C-2.14892 15.0384 -2.14686 28.968 6.44603 37.5583C15.0389 46.1485 28.9685 46.1464 37.5588 37.5535C41.6843 33.4267 44.0013 27.8301 44 21.9948C43.9988 16.1605 41.6801 10.5656 37.554 6.44082ZM33.3183 30.6453C33.3173 30.6462 33.3164 30.6473 33.3153 30.6482V30.6409L32.2006 31.7482C30.759 33.208 28.6595 33.8086 26.6639 33.3322C24.6534 32.7941 22.7422 31.9374 21.0026 30.7949C19.3865 29.762 17.8888 28.5546 16.5366 27.1942C15.2925 25.9592 14.1748 24.6031 13.1999 23.1462C12.1336 21.5785 11.2896 19.8708 10.6919 18.0715C10.0068 15.9578 10.5746 13.6384 12.1586 12.0802L13.4639 10.7749C13.8269 10.4104 14.4166 10.4091 14.781 10.772C14.782 10.7729 14.783 10.7739 14.7839 10.7749L18.9053 14.8962C19.2698 15.2591 19.2711 15.8488 18.9082 16.2133C18.9072 16.2142 18.9063 16.2152 18.9053 16.2162L16.4853 18.6362C15.7909 19.323 15.7036 20.4144 16.2799 21.2029C17.1552 22.4041 18.1238 23.5345 19.1766 24.5836C20.3505 25.7625 21.6265 26.8349 22.9899 27.7883C23.7777 28.3378 24.8458 28.2451 25.5273 27.5683L27.8666 25.1923C28.2295 24.8277 28.8192 24.8265 29.1836 25.1894C29.1846 25.1903 29.1855 25.1913 29.1866 25.1923L33.3153 29.3283C33.6799 29.6911 33.6812 30.2807 33.3183 30.6453Z" fill="url(#paint0_linear)"/>
</g>
<defs>
<linearGradient id="paint0_linear" x1="17.0802" y1="-12.2227" x2="10.5622" y2="59.1611" gradientUnits="userSpaceOnUse">
<stop stop-color="#FED976"/>
<stop offset="1" stop-color="#FEB54A"/>
</linearGradient>
<clipPath id="clip0">
<rect width="44" height="44" fill="white"/>
</clipPath>
</defs>
</svg>
