<svg width="81" height="81" viewBox="0 0 81 81" fill="none" xmlns="http://www.w3.org/2000/svg">
<g clip-path="url(#clip0)">
<path d="M77.2786 40.5027L80.8322 31.2339C81.222 30.2114 80.9183 29.0521 80.0628 28.3586L72.3582 22.1119L70.799 12.3065C70.6269 11.2232 69.7765 10.3778 68.6932 10.2057L58.8878 8.64658L52.6461 0.936922C51.9577 0.0814184 50.7731 -0.222311 49.7759 0.167475L40.502 3.72617L31.2332 0.172537C30.2056 -0.222311 29.0565 0.0915427 28.363 0.941984L22.1163 8.65164L12.3109 10.2108C11.2327 10.3829 10.3822 11.2333 10.2101 12.3116L8.65095 22.117L0.941291 28.3637C0.0908487 29.0521 -0.217943 30.2114 0.171843 31.2339L3.72548 40.5027L0.171843 49.7715C-0.223005 50.7941 0.0908487 51.9533 0.941291 52.6418L8.65095 58.8834L10.2101 68.6888C10.3822 69.7721 11.2276 70.6225 12.3109 70.7946L22.1163 72.3538L28.363 80.0584C29.0565 80.9189 30.2157 81.2227 31.2383 80.8278L40.502 77.2793L49.7708 80.8329C50.0644 80.9443 50.3682 80.9999 50.677 80.9999C51.4211 80.9999 52.1551 80.6709 52.6461 80.0584L58.8878 72.3538L68.6932 70.7946C69.7765 70.6225 70.6269 69.7721 70.799 68.6888L72.3582 58.8834L80.0628 52.6418C80.9183 51.9482 81.222 50.7941 80.8322 49.7715L77.2786 40.5027Z" fill="url(#paint0_linear)"/>
<path d="M32.9077 35.4423C28.7213 35.4423 25.3145 32.0355 25.3145 27.8491C25.3145 23.6627 28.7213 20.2559 32.9077 20.2559C37.0941 20.2559 40.5009 23.6627 40.5009 27.8491C40.5009 32.0355 37.0941 35.4423 32.9077 35.4423ZM32.9077 25.318C31.5105 25.318 30.3766 26.4519 30.3766 27.8491C30.3766 29.2462 31.5105 30.3802 32.9077 30.3802C34.3048 30.3802 35.4388 29.2462 35.4388 27.8491C35.4388 26.4519 34.3048 25.318 32.9077 25.318Z" fill="#FAFAFA"/>
<path d="M48.0942 60.7514C43.9078 60.7514 40.501 57.3446 40.501 53.1582C40.501 48.9718 43.9078 45.5649 48.0942 45.5649C52.2806 45.5649 55.6874 48.9718 55.6874 53.1582C55.6874 57.3446 52.2806 60.7514 48.0942 60.7514ZM48.0942 50.6271C46.7021 50.6271 45.5631 51.7661 45.5631 53.1582C45.5631 54.5503 46.7021 55.6892 48.0942 55.6892C49.4863 55.6892 50.6253 54.5503 50.6253 53.1582C50.6253 51.7661 49.4863 50.6271 48.0942 50.6271Z" fill="#FAFAFA"/>
<path d="M27.8472 60.7514C27.3359 60.7514 26.8246 60.5995 26.3792 60.2806C25.2402 59.4656 24.9769 57.8862 25.7919 56.7472L51.1027 21.3121C51.9177 20.1732 53.4971 19.9099 54.6361 20.7249C55.7751 21.5349 56.0332 23.1193 55.2233 24.2533L29.9125 59.6883C29.4114 60.3818 28.6369 60.7514 27.8472 60.7514Z" fill="#FAFAFA"/>
</g>
<defs>
<linearGradient id="paint0_linear" x1="31.4448" y1="-22.5001" x2="19.4453" y2="108.911" gradientUnits="userSpaceOnUse">
<stop stop-color="#FED976"/>
<stop offset="1" stop-color="#FEB54A"/>
</linearGradient>
<clipPath id="clip0">
<rect width="81" height="81" fill="white"/>
</clipPath>
</defs>
</svg>
