<svg width="17" height="21" viewBox="0 0 17 21" fill="none" xmlns="http://www.w3.org/2000/svg">
<path d="M8.49955 0C4.13155 0 0.578125 3.55342 0.578125 7.92087C0.578125 14.2093 7.6496 20.5264 7.95078 20.7928C8.10828 20.9309 8.30392 21 8.49955 21C8.70292 21 8.90628 20.9254 9.06489 20.7767C9.36497 20.496 16.421 13.8313 16.421 7.92142C16.421 3.55397 12.8664 0 8.49955 0ZM8.49955 11.6981C6.41336 11.6981 4.72286 10.0065 4.72286 7.92197C4.72286 5.83745 6.41336 4.14584 8.49955 4.14584C10.5846 4.14584 12.2751 5.83689 12.2751 7.92197C12.2751 10.0071 10.5846 11.6981 8.49955 11.6981Z" fill="url(#paint0_linear)"/>
<defs>
<linearGradient id="paint0_linear" x1="6.72809" y1="-5.83333" x2="2.63025" y2="28.0243" gradientUnits="userSpaceOnUse">
<stop stop-color="#FED976"/>
<stop offset="1" stop-color="#FEB54A"/>
</linearGradient>
</defs>
</svg>
