<svg width="75" height="75" viewBox="0 0 75 75" fill="none" xmlns="http://www.w3.org/2000/svg">
<g clip-path="url(#clip0)">
<path d="M10.8621 19.3062C14.1431 12.8753 20.6451 8.87976 27.8314 8.87976C28.6405 8.87976 29.2962 8.22273 29.2962 7.41205C29.2962 6.60137 28.6405 5.94434 27.8314 5.94434C19.3685 5.94434 11.9235 10.7757 8.2534 17.9704C7.88547 18.6922 8.171 19.5763 8.89141 19.9455C9.61124 20.3141 10.4942 20.0281 10.8621 19.3062Z" fill="url(#paint0_linear)"/>
<path d="M8.42285 23.6652C8.42285 24.2735 7.93076 24.766 7.32422 24.766C6.71711 24.766 6.22559 24.2735 6.22559 23.6652C6.22559 23.0575 6.71711 22.5645 7.32422 22.5645C7.93076 22.5645 8.42285 23.0575 8.42285 23.6652Z" fill="url(#paint1_linear)"/>
<path d="M71.8838 59.6824C71.834 59.64 71.7814 59.601 71.7259 59.5661L64.5104 54.956C60.0626 52.114 54.633 47.5905 50.8061 43.8088C54.0259 39.146 55.7219 33.7074 55.7219 27.9988C55.7219 12.601 43.2106 0.0744629 27.8315 0.0744629C12.4849 0.0744629 0 12.5844 0 27.9604C0 43.3582 12.5113 55.8847 27.8904 55.8847C33.4969 55.8847 38.8538 54.2341 43.4641 51.1003C47.2859 54.9703 52.0826 60.4719 54.9763 65.0155L59.384 71.9372C59.4195 71.9923 59.4584 72.045 59.5007 72.0955C63.0896 76.3455 69.6831 76.2676 73.1598 71.8174C75.9436 68.2565 75.6088 62.8357 71.8838 59.6824ZM42.7483 48.0101C38.4235 51.2414 33.2857 52.9493 27.8904 52.9493C14.1272 52.9493 2.92969 41.7397 2.92969 27.9604C2.92969 14.2029 14.1008 3.00988 27.8315 3.00988C41.5953 3.00988 52.7922 14.2195 52.7922 27.9988C52.7922 36.2587 48.7919 43.4935 42.7483 48.0101ZM45.817 49.311C46.9603 48.3438 48.0246 47.2866 49.0013 46.1474C50.4461 47.5618 52.0901 49.061 53.7981 50.5224L50.2407 54.0862C48.8079 52.4517 47.2916 50.8148 45.817 49.311ZM70.8533 70.008C68.5627 72.94 64.2243 73.0547 61.7981 70.2706L57.4459 63.4366C56.1133 61.3439 54.2954 58.9033 52.1519 56.3233L56.0618 52.4058C58.5074 54.3838 60.8648 56.1078 62.9357 57.431L70.0636 61.9849C72.3828 64.0133 72.7421 67.5915 70.8533 70.008Z" fill="url(#paint2_linear)"/>
<path d="M42.4799 38.3801H41.0151V13.4296C41.0151 12.6189 40.3593 11.9619 39.5502 11.9619H30.7612C29.9521 11.9619 29.2963 12.6189 29.2963 13.4296V20.7682H21.9727C21.1636 20.7682 20.5078 21.4252 20.5078 22.2359V29.5744H13.1836C12.3745 29.5744 11.7188 30.2315 11.7188 31.0421V38.3801H10.2539C9.44481 38.3801 8.78906 39.0377 8.78906 39.8478C8.78906 40.6585 9.44481 41.3155 10.2539 41.3155H42.4799C43.289 41.3155 43.9447 40.6585 43.9447 39.8478C43.9447 39.0377 43.289 38.3801 42.4799 38.3801ZM20.5078 38.3801H14.6484V32.5099H20.5078V38.3801ZM29.2963 38.3801H23.4375C23.4375 34.403 23.4375 26.0462 23.4375 23.7036H29.2963V38.3801ZM38.0854 38.3801H32.226C32.226 35.537 32.226 17.7399 32.226 14.8973H38.0854V38.3801Z" fill="url(#paint3_linear)"/>
</g>
<defs>
<linearGradient id="paint0_linear" x1="16.3237" y1="2.01042" x2="14.916" y2="25.0921" gradientUnits="userSpaceOnUse">
<stop stop-color="#FED976"/>
<stop offset="1" stop-color="#FEB54A"/>
</linearGradient>
<linearGradient id="paint1_linear" x1="7.07853" y1="21.9529" x2="6.75178" y2="25.5245" gradientUnits="userSpaceOnUse">
<stop stop-color="#FED976"/>
<stop offset="1" stop-color="#FEB54A"/>
</linearGradient>
<linearGradient id="paint2_linear" x1="29.1139" y1="-20.7994" x2="17.9609" y2="101.11" gradientUnits="userSpaceOnUse">
<stop stop-color="#FED976"/>
<stop offset="1" stop-color="#FEB54A"/>
</linearGradient>
<linearGradient id="paint3_linear" x1="22.436" y1="3.80813" x2="18.7962" y2="51.5498" gradientUnits="userSpaceOnUse">
<stop stop-color="#FED976"/>
<stop offset="1" stop-color="#FEB54A"/>
</linearGradient>
<clipPath id="clip0">
<rect width="75" height="75" fill="white"/>
</clipPath>
</defs>
</svg>
