<svg width="80" height="80" viewBox="0 0 80 80" fill="none" xmlns="http://www.w3.org/2000/svg">
<g clip-path="url(#clip0)">
<path d="M30.625 41.5625C31.4874 41.5625 32.1875 40.8624 32.1875 40C32.1875 39.1425 31.4917 38.4375 30.625 38.4375C29.7626 38.4375 29.0625 39.1376 29.0625 40C29.0625 40.8673 29.765 41.5625 30.625 41.5625Z" fill="url(#paint0_linear)"/>
<path d="M40 69.6875C49.6539 69.6875 57.1875 61.8567 57.1875 52.5C57.1875 43.0231 49.4769 35.3125 40 35.3125C38.6426 35.3125 37.2821 35.4675 35.9021 35.8038C35.0635 36.0083 34.5495 36.8536 34.754 37.6917C34.9585 38.5303 35.8038 39.0448 36.6418 38.8397C37.7203 38.5773 38.9123 38.4375 40 38.4375C47.7539 38.4375 54.0625 44.7461 54.0625 52.5C54.0625 60.4626 47.5952 66.5625 40 66.5625C32.2461 66.5625 25.9375 60.2539 25.9375 52.5C25.9375 50.1166 26.5417 47.6843 27.829 45.4504C28.2593 44.7028 28.0029 43.7469 27.2552 43.3167C26.507 42.8851 25.5518 43.1427 25.1208 43.8904C24.3854 45.1672 23.7903 46.5375 23.3557 48.194C23.3014 48.4857 22.8125 50.1123 22.8125 52.5C22.8125 61.9775 30.5231 69.6875 40 69.6875ZM23.0823 49.4495C23.0835 49.4446 23.0847 49.4403 23.0853 49.4354C23.0847 49.4391 23.0835 49.4452 23.0823 49.4495Z" fill="url(#paint1_linear)"/>
<path d="M37.0117 59.9506C37.655 60.451 38.3197 60.9692 39.024 61.5326C39.3091 61.7609 39.6545 61.875 40 61.875C40.3454 61.875 40.6909 61.7609 40.9759 61.5326C41.6791 60.9705 42.3425 60.4535 42.9846 59.9536C44.115 59.0723 45.0909 58.3118 45.9479 57.5659C47.7282 56.0162 49.375 54.2358 49.375 51.7267C49.375 48.6554 46.9726 46.25 43.9062 46.25C42.1759 46.25 40.8929 47.0007 40 47.9401C39.107 47.0007 37.8247 46.25 36.0937 46.25C33.0273 46.25 30.625 48.6554 30.625 51.7267C30.625 54.9744 33.3038 57.0618 37.0117 59.9506ZM36.0937 49.375C37.8119 49.375 38.4411 51.192 38.5034 51.3867C38.7018 52.0477 39.3103 52.5 40 52.5C40.6903 52.5 41.2982 52.0477 41.4966 51.3867C41.5027 51.3666 42.1203 49.375 43.9062 49.375C45.4449 49.375 46.25 50.5579 46.25 51.7267C46.25 52.7576 45.5896 53.7341 43.8959 55.2094C43.1036 55.899 42.1582 56.6357 41.0638 57.4884C40.7165 57.7588 40.3638 58.0341 40 58.3191C39.6356 58.0328 39.2804 57.7563 38.9325 57.4854C35.5273 54.8322 33.75 53.371 33.75 51.7267C33.75 50.5579 34.555 49.375 36.0937 49.375Z" fill="url(#paint2_linear)"/>
<path d="M2.67807 44.2035C6.88094 39.9188 21.9938 25.9375 39.9998 25.9375C58.0051 25.9375 73.1187 39.9188 77.3215 44.2035C77.924 44.8175 78.9133 44.8309 79.5316 44.2248C80.1475 43.6206 80.1572 42.6312 79.553 42.0154C75.134 37.5104 59.2228 22.8125 39.9998 22.8125C20.7768 22.8125 4.86556 37.5104 0.446622 42.0154C-0.157015 42.6312 -0.147859 43.6206 0.468595 44.2248C1.08383 44.8291 2.07321 44.8193 2.67807 44.2035Z" fill="url(#paint3_linear)"/>
<path d="M12.0543 64.6704C20.1194 70.9528 29.8588 75.9375 39.9998 75.9375C50.1402 75.9375 59.8795 70.9528 67.9453 64.6704C75.0254 59.1547 79.4657 53.7128 79.6512 53.4839C80.1163 52.9102 80.1163 52.0898 79.6512 51.5161C79.4657 51.2872 75.026 45.8453 67.9453 40.3302C59.8801 34.0479 50.1408 29.0625 39.9998 29.0625C29.8588 29.0625 20.1188 34.0479 12.0543 40.3302C4.97421 45.8453 0.533904 51.2872 0.348358 51.5161C-0.116119 52.0898 -0.116119 52.9102 0.348358 53.4839C0.533904 53.7128 4.97421 59.1547 12.0543 64.6704ZM14.03 42.7527C20.2293 37.9327 29.7673 32.1875 39.9998 32.1875C50.2329 32.1875 59.7709 37.9327 65.9702 42.7527C71.052 46.7035 74.7892 50.7013 76.3791 52.5C74.7892 54.2987 71.052 58.2965 65.9702 62.2473C59.7709 67.0673 50.2329 72.8125 39.9998 72.8125C29.7673 72.8125 20.2293 67.0673 14.03 62.2473C8.94698 58.2959 5.2098 54.2987 3.62045 52.5C5.2098 50.7013 8.94759 46.7035 14.03 42.7527Z" fill="url(#paint4_linear)"/>
<path d="M40 16.5625C40.863 16.5625 41.5625 15.863 41.5625 15V5.625C41.5625 4.76196 40.863 4.0625 40 4.0625C39.137 4.0625 38.4375 4.76196 38.4375 5.625V15C38.4375 15.863 39.137 16.5625 40 16.5625Z" fill="url(#paint5_linear)"/>
<path d="M20.6783 20.595C21.1123 21.3463 22.0693 21.5965 22.8127 21.1669C23.5604 20.7359 23.8161 19.7801 23.3846 19.0325L18.6971 10.9142C18.2656 10.1665 17.3098 9.91075 16.5627 10.3423C15.8156 10.7738 15.5593 11.729 15.9908 12.4767L20.6783 20.595Z" fill="url(#paint6_linear)"/>
<path d="M57.1877 21.1669C57.9323 21.5972 58.8894 21.3451 59.3221 20.595L64.0096 12.4767C64.4411 11.729 64.1854 10.7738 63.4377 10.3423C62.69 9.91075 61.7348 10.1665 61.3033 10.9142L56.6158 19.0325C56.1843 19.7801 56.4406 20.7359 57.1877 21.1669Z" fill="url(#paint7_linear)"/>
</g>
<defs>
<linearGradient id="paint0_linear" x1="30.2756" y1="37.5694" x2="29.8127" y2="42.6393" gradientUnits="userSpaceOnUse">
<stop stop-color="#FED976"/>
<stop offset="1" stop-color="#FEB54A"/>
</linearGradient>
<linearGradient id="paint1_linear" x1="36.1564" y1="25.7639" x2="31.0642" y2="81.5324" gradientUnits="userSpaceOnUse">
<stop stop-color="#FED976"/>
<stop offset="1" stop-color="#FEB54A"/>
</linearGradient>
<linearGradient id="paint2_linear" x1="37.9035" y1="41.9097" x2="35.9697" y2="67.3233" gradientUnits="userSpaceOnUse">
<stop stop-color="#FED976"/>
<stop offset="1" stop-color="#FEB54A"/>
</linearGradient>
<linearGradient id="paint3_linear" x1="31.0548" y1="16.7405" x2="30.1632" y2="52.4775" gradientUnits="userSpaceOnUse">
<stop stop-color="#FED976"/>
<stop offset="1" stop-color="#FEB54A"/>
</linearGradient>
<linearGradient id="paint4_linear" x1="31.0549" y1="16.0417" x2="26.964" y2="92.5049" gradientUnits="userSpaceOnUse">
<stop stop-color="#FED976"/>
<stop offset="1" stop-color="#FEB54A"/>
</linearGradient>
<linearGradient id="paint5_linear" x1="39.6506" y1="0.590278" x2="33.0611" y2="18.6321" gradientUnits="userSpaceOnUse">
<stop stop-color="#FED976"/>
<stop offset="1" stop-color="#FEB54A"/>
</linearGradient>
<linearGradient id="paint6_linear" x1="18.8142" y1="7.00924" x2="16.4382" y2="25.0908" gradientUnits="userSpaceOnUse">
<stop stop-color="#FED976"/>
<stop offset="1" stop-color="#FEB54A"/>
</linearGradient>
<linearGradient id="paint7_linear" x1="59.4392" y1="7.00924" x2="57.0632" y2="25.0909" gradientUnits="userSpaceOnUse">
<stop stop-color="#FED976"/>
<stop offset="1" stop-color="#FEB54A"/>
</linearGradient>
<clipPath id="clip0">
<rect width="80" height="80" fill="white"/>
</clipPath>
</defs>
</svg>
