<svg width="26" height="26" viewBox="0 0 26 26" fill="none" xmlns="http://www.w3.org/2000/svg">
<path d="M18.4475 0H7.55259C3.38807 0 0 3.38807 0 7.55259V18.4474C0 22.6119 3.38807 26 7.55259 26H18.4474C22.6119 26 26 22.6119 26 18.4475V7.55259C26 3.38807 22.6119 0 18.4475 0ZM23.9688 18.4474C23.9688 21.4919 21.4919 23.9688 18.4475 23.9688H7.55259C4.50811 23.9688 2.03125 21.4919 2.03125 18.4475V7.55259C2.03125 4.50811 4.50811 2.03125 7.55259 2.03125H18.4474C21.4919 2.03125 23.9688 4.50811 23.9688 7.55259V18.4474Z" fill="url(#paint0_linear)"/>
<path d="M13 5.99219C9.13585 5.99219 5.99219 9.13585 5.99219 13C5.99219 16.8641 9.13585 20.0078 13 20.0078C16.8641 20.0078 20.0078 16.8641 20.0078 13C20.0078 9.13585 16.8641 5.99219 13 5.99219ZM13 17.9766C10.2559 17.9766 8.02344 15.7441 8.02344 13C8.02344 10.2559 10.2559 8.02344 13 8.02344C15.7441 8.02344 17.9766 10.2559 17.9766 13C17.9766 15.7441 15.7441 17.9766 13 17.9766Z" fill="url(#paint1_linear)"/>
<path d="M20.1094 6.90625C20.6703 6.90625 21.125 6.45154 21.125 5.89062C21.125 5.32971 20.6703 4.875 20.1094 4.875C19.5485 4.875 19.0938 5.32971 19.0938 5.89062C19.0938 6.45154 19.5485 6.90625 20.1094 6.90625Z" fill="url(#paint2_linear)"/>
<defs>
<linearGradient id="paint0_linear" x1="10.0928" y1="-7.22222" x2="6.2413" y2="34.9591" gradientUnits="userSpaceOnUse">
<stop stop-color="#FED976"/>
<stop offset="1" stop-color="#FEB54A"/>
</linearGradient>
<linearGradient id="paint1_linear" x1="11.4329" y1="2.09896" x2="9.35664" y2="24.8373" gradientUnits="userSpaceOnUse">
<stop stop-color="#FED976"/>
<stop offset="1" stop-color="#FEB54A"/>
</linearGradient>
<linearGradient id="paint2_linear" x1="19.8823" y1="4.31076" x2="19.5814" y2="7.60618" gradientUnits="userSpaceOnUse">
<stop stop-color="#FED976"/>
<stop offset="1" stop-color="#FEB54A"/>
</linearGradient>
</defs>
</svg>
