<svg width="142" height="43" fill="none" xmlns="http://www.w3.org/2000/svg"><path d="M.6 42.25c-.16 0-.3-.054-.42-.16a.598.598 0 01-.18-.44V27.23c0-.174.06-.314.18-.42.12-.12.26-.18.42-.18.173 0 .313.06.42.18.12.106.18.246.18.42v13.94h8.22c.187 0 .333.052.44.16a.48.48 0 01.16.38c0 .16-.053.292-.16.4-.107.093-.253.14-.44.14H.6zm21.32.32c-1.174 0-2.214-.227-3.12-.68a5.466 5.466 0 01-2.12-1.92c-.507-.828-.76-1.767-.76-2.82v-9.92c0-.188.053-.334.16-.44a.639.639 0 01.44-.16c.186 0 .333.052.44.16.106.106.16.252.16.44v9.92c0 .826.2 1.56.6 2.2.413.626.98 1.12 1.7 1.48.733.36 1.566.54 2.5.54.946 0 1.78-.18 2.5-.54a4.291 4.291 0 001.7-1.48c.413-.64.62-1.374.62-2.2v-9.92c0-.188.053-.334.16-.44a.639.639 0 01.44-.16c.186 0 .333.052.44.16.106.106.16.252.16.44v9.92c0 1.053-.26 1.992-.78 2.82-.507.813-1.214 1.453-2.12 1.92-.907.453-1.947.68-3.12.68zm14.015-.32a.638.638 0 01-.44-.16.638.638 0 01-.16-.44V27.23c0-.174.053-.314.16-.42.12-.12.267-.18.44-.18.267 0 .447.1.54.3l6.72 13.28 6.64-13.28c.12-.2.3-.3.54-.3.173 0 .313.06.42.18.107.106.16.246.16.42v14.42a.64.64 0 01-.16.44.568.568 0 01-.42.16.638.638 0 01-.44-.16.598.598 0 01-.18-.44V29.39l-6.08 12.38c-.093.186-.267.28-.52.28-.24 0-.427-.127-.56-.38l-6.06-12.1v12.08a.6.6 0 01-.18.44.568.568 0 01-.42.16zm41.548 0a.639.639 0 01-.44-.16.638.638 0 01-.16-.44V27.23c0-.174.053-.314.16-.42.12-.12.266-.18.44-.18a.59.59 0 01.46.2l10.16 13.22V27.23c0-.174.053-.314.16-.42.12-.12.266-.18.44-.18.16 0 .3.06.42.18.12.106.18.246.18.42v14.42a.6.6 0 01-.18.44.612.612 0 01-.42.16.558.558 0 01-.44-.18l-10.18-13.24v12.82a.6.6 0 01-.18.44.568.568 0 01-.42.16zm18.206 0c-.254 0-.434-.1-.54-.3-.094-.2-.094-.388 0-.56l6.06-14.34c.106-.28.3-.42.58-.42.266 0 .46.14.58.42l6.08 14.34c.106.186.1.38-.02.58a.582.582 0 01-.52.28c-.267 0-.454-.127-.56-.38l-1.48-3.54h-8.14l-1.48 3.54c-.094.253-.28.38-.56.38zm2.5-5h7.22l-3.62-8.64-3.6 8.64zm16.582 5a.64.64 0 01-.44-.16.637.637 0 01-.16-.44V27.23c0-.188.053-.334.16-.44a.64.64 0 01.44-.16h3.82c.973 0 1.833.206 2.58.62.76.4 1.353.952 1.78 1.66.427.706.64 1.526.64 2.46 0 1.092-.307 2.04-.92 2.84-.613.786-1.427 1.326-2.44 1.62l3.44 5.5c.173.266.207.486.1.66-.093.172-.293.26-.6.26a.61.61 0 01-.34-.08 1.895 1.895 0 01-.2-.24l-3.68-5.88h-3.58v5.6a.64.64 0 01-.16.44.597.597 0 01-.44.16zm.6-7.4h3.22c.747 0 1.4-.148 1.96-.44a3.443 3.443 0 001.34-1.24c.333-.52.5-1.12.5-1.8 0-.694-.167-1.308-.5-1.84a3.258 3.258 0 00-1.34-1.24c-.56-.308-1.213-.46-1.96-.46h-3.22v7.02zm13.348 7.4c-.253 0-.433-.1-.54-.3-.093-.2-.093-.388 0-.56l6.06-14.34c.107-.28.3-.42.58-.42.267 0 .46.14.58.42l6.08 14.34c.107.186.1.38-.02.58a.58.58 0 01-.52.28c-.267 0-.453-.127-.56-.38l-1.48-3.54h-8.14l-1.48 3.54c-.093.253-.28.38-.56.38zm2.5-5h7.22l-3.62-8.64-3.6 8.64zM56.676 16.303a.394.394 0 00-.394.394v.566h-.566a.394.394 0 100 .788h.566v.566a.394.394 0 10.789 0v-.566h.566a.393.393 0 00.394-.394.394.394 0 00-.394-.394h-.566v-.566a.394.394 0 00-.395-.394zm15.707.274a.394.394 0 00-.394.394v.566h-.566a.394.394 0 100 .789h.566v.566a.394.394 0 10.788 0v-.566h.566a.393.393 0 00.395-.395.394.394 0 00-.395-.394h-.566v-.566a.394.394 0 00-.394-.394zm.84-5.11h.566a.394.394 0 100-.788h-.566v-.566a.394.394 0 10-.788 0v.566h-.566a.394.394 0 000 .788h.566v.566a.394.394 0 10.788 0v-.566zm-16.993.686a.393.393 0 00.395-.394v-.566h.566a.393.393 0 00.394-.395.394.394 0 00-.394-.394h-.566v-.566a.394.394 0 10-.788 0v.566h-.567a.394.394 0 000 .789h.566v.566c0 .217.177.394.395.394zm21.904.777a.532.532 0 00-1.006 0c-.21.614-.4.803-1.014 1.013a.532.532 0 000 1.006c.615.21.804.399 1.014 1.013a.532.532 0 001.006 0c.21-.614.399-.804 1.013-1.013a.531.531 0 000-1.006c-.615-.21-.804-.399-1.013-1.013zm.2 1.516a1.791 1.791 0 00-.703.703 1.792 1.792 0 00-.704-.703 1.79 1.79 0 00.704-.704c.175.309.395.529.703.704zM51.43 16.323a.53.53 0 00.502-.36c.21-.615.4-.804 1.014-1.014a.531.531 0 000-1.006c-.615-.21-.804-.399-1.014-1.013a.532.532 0 00-1.006 0c-.21.614-.399.804-1.013 1.013a.532.532 0 000 1.006c.614.21.804.4 1.013 1.014.074.215.276.36.503.36zm-.704-1.877a1.79 1.79 0 00.703-.703c.175.308.396.528.704.703a1.792 1.792 0 00-.704.704 1.79 1.79 0 00-.703-.704zm18.811 8.364a.531.531 0 00-.503.361c-.21.615-.4.804-1.014 1.013a.532.532 0 000 1.006c.615.21.804.4 1.014 1.014a.531.531 0 001.006 0c.21-.615.399-.804 1.013-1.014a.532.532 0 000-1.006c-.614-.21-.804-.398-1.013-1.013a.532.532 0 00-.503-.36zm.703 1.878a1.79 1.79 0 00-.703.703 1.79 1.79 0 00-.704-.703c.308-.176.529-.396.704-.704.175.308.395.528.703.703zm-11.22 1.516a.531.531 0 001.006 0c.21-.615.399-.804 1.013-1.013a.532.532 0 000-1.007c-.614-.209-.804-.398-1.013-1.013a.531.531 0 00-1.006 0c-.21.615-.4.804-1.013 1.013a.531.531 0 000 1.007c.614.209.803.398 1.013 1.013zm-.2-1.517c.307-.175.528-.395.703-.703.175.308.395.528.703.703a1.857 1.857 0 00-.401.302 1.857 1.857 0 00-.302.402 1.792 1.792 0 00-.704-.704z" fill="#fff"/><path d="M69.498 14.052l-2.161-.768.985-2.072 2.527-2.528a.394.394 0 00-.557-.557l-2.528 2.527-1.17.557a.394.394 0 10.338.712l.23-.11-.57 1.2a.721.721 0 00.41.988l1.251.445-1.252.446a.72.72 0 00-.409.987l.57 1.2-1.2-.57a.72.72 0 00-.987.409l-.445 1.252-.446-1.253a.721.721 0 00-.987-.408l-1.2.57.57-1.2a.72.72 0 00-.409-.987l-1.252-.446 1.253-.445a.721.721 0 00.408-.987l-.57-1.2 1.2.57a.72.72 0 00.987-.409l.446-1.252.18.508a.394.394 0 00.744-.264l-.53-1.489V5.903a.394.394 0 10-.789 0v3.575l-.768 2.161-2.072-.985-2.527-2.527a.394.394 0 10-.558.557l2.528 2.528.985 2.072-2.161.768h-4.667a.394.394 0 100 .788h4.667l2.16.769-.984 2.072-2.528 2.527a.394.394 0 10.558.558l2.528-2.528 1.982-.942v11.182c0 .552.225 1.021.723 1.187V41.75c0 .218.282.5.5.5.108 0 .225-.101.307-.221.06-.086.116-.17.116-.279l.077-6.001v-6.084c.186-.062.277-.167.413-.303.227-.226.367-.54.367-.884v-4.764a.394.394 0 00-.788 0v4.764a.464.464 0 01-.926 0V19.22l.091.258a.394.394 0 00.743 0l.092-.258v2.653a.394.394 0 00.788 0v-4.578l1.983.942 2.528 2.528a.394.394 0 10.557-.558l-2.527-2.527-.985-2.072 2.16-.769h4.668a.394.394 0 100-.788h-4.667z" fill="#fff"/><path d="M64.53 13.092a.394.394 0 00-.394.394v.566h-.566a.394.394 0 000 .789h.566v.566a.394.394 0 10.788 0v-.566h.566a.393.393 0 100-.789h-.566v-.566a.394.394 0 00-.394-.394zm-3.675-7.106a.395.395 0 00.18-.528l-.61-1.238a.394.394 0 00-.707.348l.609 1.238a.394.394 0 00.528.18zm1.448 2.946a.396.396 0 00.18-.528l-.637-1.295a.394.394 0 10-.707.348l.637 1.295a.394.394 0 00.527.18zm4.453 0a.394.394 0 00.528-.18l2.058-4.184a.394.394 0 00-.708-.348l-2.057 4.184a.394.394 0 00.18.528zM64.53.287a.531.531 0 00-.503.36c-.21.615-.399.804-1.013 1.014a.531.531 0 000 1.006c.614.21.804.399 1.013 1.013a.532.532 0 001.006 0c.21-.614.399-.804 1.013-1.013a.53.53 0 000-1.006c-.614-.21-.803-.399-1.013-1.013a.532.532 0 00-.503-.36zm.704 1.877a1.792 1.792 0 00-.704.703 1.791 1.791 0 00-.703-.703c.308-.175.528-.395.703-.703.175.308.395.528.704.703z" fill="#fff"/></svg>