<svg width="118" height="22" fill="none" xmlns="http://www.w3.org/2000/svg"><path d="M0 7.583h1.406v1.923c.492-.709.998-1.227 1.517-1.555.715-.436 1.466-.654 2.255-.654a3.7 3.7 0 011.517.317c.48.211.87.494 1.174.849.303.348.566.849.789 1.504.472-.873 1.062-1.535 1.77-1.985a4.138 4.138 0 012.285-.685c.762 0 1.433.194 2.013.583.587.389 1.021.93 1.305 1.626.283.696.425 1.74.425 3.13v6.078h-1.447v-6.077c0-1.194-.084-2.012-.253-2.455a2.2 2.2 0 00-.87-1.085c-.404-.273-.89-.409-1.456-.409-.688 0-1.318.205-1.891.614a3.54 3.54 0 00-1.244 1.637c-.263.682-.395 1.82-.395 3.416v4.359H7.494v-5.699c0-1.343-.084-2.254-.252-2.731a2.234 2.234 0 00-.86-1.156c-.411-.293-.9-.44-1.467-.44-.654 0-1.267.201-1.84.604a3.55 3.55 0 00-1.265 1.606c-.27.675-.404 1.708-.404 3.1v4.716H0V7.584zm28.714 7.437l1.193.635c-.391.777-.843 1.405-1.355 1.882a5.445 5.445 0 01-1.73 1.095c-.64.245-1.365.368-2.174.368-1.794 0-3.196-.593-4.208-1.78-1.011-1.194-1.517-2.54-1.517-4.041 0-1.412.428-2.67 1.285-3.775C21.293 8 22.746 7.297 24.567 7.297c1.874 0 3.371.72 4.49 2.158.796 1.016 1.2 2.285 1.214 3.806H20.38c.027 1.296.435 2.36 1.224 3.192.788.825 1.763 1.238 2.922 1.238.56 0 1.103-.1 1.629-.297.532-.198.984-.46 1.355-.788.37-.327.772-.856 1.204-1.586zm0-2.997c-.19-.764-.466-1.374-.83-1.831-.357-.457-.832-.825-1.426-1.105a4.337 4.337 0 00-1.87-.42c-1.08 0-2.007.352-2.782 1.054-.567.512-.995 1.279-1.285 2.302h8.193zm15.191-8.737v15.428h-1.396V16.8c-.593.73-1.26 1.278-2.002 1.647a5.319 5.319 0 01-2.418.552c-1.557 0-2.889-.57-3.995-1.708-1.099-1.146-1.648-2.538-1.648-4.174 0-1.603.556-2.974 1.669-4.113 1.112-1.139 2.45-1.708 4.015-1.708.903 0 1.72.194 2.447.583.735.389 1.38.972 1.932 1.75V3.285h1.396zM38.24 8.678c-.789 0-1.517.198-2.185.593a4.29 4.29 0 00-1.598 1.647 4.57 4.57 0 00.01 4.501 4.422 4.422 0 001.599 1.678 4.206 4.206 0 002.164.593c.775 0 1.51-.197 2.205-.593a4.09 4.09 0 001.598-1.606c.377-.675.566-1.436.566-2.281 0-1.29-.421-2.367-1.264-3.233-.836-.866-1.868-1.3-3.095-1.3zM47.617 3c.323 0 .6.116.829.348.23.232.344.511.344.839 0 .32-.115.596-.344.828-.23.232-.506.348-.83.348-.316 0-.59-.116-.819-.348a1.138 1.138 0 01-.343-.828c0-.328.114-.607.343-.84.23-.231.503-.347.82-.347zm-.708 4.583h1.426v11.13h-1.426V7.584zm15.322 0v11.13h-1.395V16.8c-.594.73-1.261 1.28-2.003 1.648a5.319 5.319 0 01-2.417.552c-1.558 0-2.89-.57-3.995-1.708-1.1-1.146-1.649-2.538-1.649-4.174 0-1.603.556-2.974 1.67-4.113 1.112-1.139 2.45-1.708 4.014-1.708.904 0 1.72.194 2.448.583.735.389 1.379.972 1.932 1.75V7.582h1.395zm-5.663 1.095c-.79 0-1.517.198-2.185.593a4.29 4.29 0 00-1.598 1.647 4.57 4.57 0 00.01 4.501 4.42 4.42 0 001.598 1.678 4.206 4.206 0 002.164.593c.776 0 1.51-.197 2.205-.593a4.09 4.09 0 001.598-1.606c.378-.675.567-1.436.567-2.281 0-1.29-.422-2.367-1.264-3.233-.837-.866-1.868-1.3-3.095-1.3zm15.413.46l-1.709 1.729c-.694-.696-1.325-1.043-1.891-1.043-.31 0-.553.068-.728.204a.588.588 0 00-.263.491c0 .15.053.29.161.42.115.122.391.293.83.511l1.011.512c1.066.532 1.797 1.074 2.195 1.626.398.553.597 1.2.597 1.944 0 .989-.361 1.814-1.083 2.476-.714.661-1.675.992-2.882.992-1.605 0-2.886-.634-3.843-1.903l1.699-1.872c.323.382.701.692 1.132.931.439.232.827.348 1.164.348.364 0 .657-.089.88-.266.222-.177.333-.382.333-.614 0-.43-.4-.85-1.203-1.258l-.93-.47c-1.78-.908-2.67-2.044-2.67-3.408 0-.88.333-1.63 1-2.25.675-.628 1.534-.941 2.58-.941.714 0 1.385.16 2.012.48a4.42 4.42 0 011.608 1.361zm2.397-5.852h2.741v5.422c.54-.47 1.082-.821 1.629-1.053a4.107 4.107 0 011.658-.358c1.093 0 2.013.382 2.761 1.145.64.662.961 1.634.961 2.916v7.356h-2.72v-4.88c0-1.29-.061-2.162-.183-2.62-.12-.456-.33-.797-.627-1.022-.29-.225-.65-.338-1.082-.338-.56 0-1.041.188-1.446.563-.398.375-.674.886-.83 1.534-.08.335-.12 1.098-.12 2.292v4.47h-2.742V3.287zM94.94 7.583h2.751v11.13h-2.75v-1.176c-.54.518-1.083.893-1.63 1.125a4.524 4.524 0 01-1.76.338c-1.422 0-2.652-.556-3.69-1.668-1.04-1.118-1.558-2.506-1.558-4.163 0-1.719.502-3.127 1.507-4.225 1.004-1.098 2.225-1.647 3.661-1.647.66 0 1.281.126 1.861.378a5.08 5.08 0 011.608 1.136V7.583zm-2.903 2.292c-.856 0-1.567.307-2.134.92-.566.607-.85 1.388-.85 2.343 0 .962.287 1.753.86 2.373.58.621 1.292.931 2.135.931.87 0 1.59-.303 2.164-.91.573-.614.86-1.415.86-2.404 0-.969-.287-1.753-.86-2.353-.573-.6-1.298-.9-2.175-.9zm7.798-2.292h2.367v1.402c.256-.553.597-.972 1.021-1.259a2.45 2.45 0 011.396-.43c.358 0 .732.096 1.123.287l-.86 2.404c-.323-.163-.59-.245-.799-.245-.425 0-.785.266-1.082.798-.29.532-.435 1.575-.435 3.13l.01.542v4.502h-2.74V7.584zm7.303-4.297h2.761v8.89l4.066-4.593h3.459l-4.734 5.34 5.31 5.79h-3.429l-4.672-5.125v5.126h-2.761V3.286z" fill="#000"/></svg>