<svg width="519" height="290" fill="none" xmlns="http://www.w3.org/2000/svg"><mask id="a" maskUnits="userSpaceOnUse" x="0" y="0" width="519" height="291"><path transform="rotate(-180 519 290)" fill="#C4C4C4" d="M519 290h519v290H519z"/></mask><g mask="url(#a)" stroke="#DCDCDC"><path d="M519.725 290.56c-31.983-14.556-130.504-38.828-177.361-34.15-78.505 7.838-145.379 38.069-178.816 50.386"/><path d="M520.453 270.406c-31.983-14.556-130.349-37.798-177.361-34.151-101.038 7.838-179.542 54.305-212.979 66.622"/><path d="M520.453 248.572c-31.983-14.556-130.349-37.798-177.361-34.151-101.038 7.838-233.332 78.378-266.769 90.695"/><path d="M520.453 225.618c-31.983-14.556-129.446-32.644-176.634-30.792-114.122 4.479-225.336 83.417-334.37 110.29"/><path d="M513.184 206.023c-31.983-14.556-109.034-34.279-169.366-31.911-117.756 4.621-200.622 78.379-343.82 109.73"/><path d="M513.184 186.429c-31.983-14.556-109.034-34.279-169.366-31.911-117.756 4.621-200.622 78.378-343.82 109.73"/><path d="M513.184 164.035c-31.983-14.556-109.034-34.279-169.366-31.911-117.756 4.621-200.622 78.378-343.82 109.73"/><path d="M513.184 142.761c-31.983-14.556-109.034-34.279-169.366-31.911-117.756 4.621-200.622 78.378-343.82 109.73"/><path d="M513.184 121.487c-31.983-14.556-109.034-34.28-169.366-31.911-117.756 4.621-200.622 78.378-343.82 109.729"/><path d="M513.184 100.213C481.201 85.657 404.15 65.934 343.818 68.302 226.062 72.923 143.196 146.68-.002 178.032"/><path d="M513.184 81.178C481.201 66.622 404.15 46.899 343.818 49.267c-117.756 4.621-200.622 78.378-343.82 109.73"/><path d="M513.184 61.023C481.201 46.467 404.15 26.744 343.818 29.112 226.062 33.733 143.196 107.49-.002 138.842"/><path d="M513.184 40.869C481.201 26.313 404.15 6.589 343.818 8.958 226.062 13.579 143.196 87.336-.002 118.687"/><path d="M513.184 18.475C481.201 3.92 404.15-15.804 343.818-13.436 226.062-8.815 143.196 64.942-.002 96.294"/><path d="M513.184-2.8C481.201-17.354 404.15-37.077 343.818-34.71 226.062-30.09 143.196 43.667-.002 75.02"/><path d="M513.184-24.073C481.201-38.63 404.15-58.353 343.818-55.984 226.062-51.363 143.196 22.394-.002 53.746"/><path d="M513.184-48.706c-31.983-14.556-109.034-34.28-169.366-31.911C226.062-75.996 143.196-2.24-.002 29.113m519.001 282.721c-31.984-14.556-130.504-38.828-177.362-34.15-78.504 7.838-145.378 38.069-178.815 50.386"/></g></svg>