<svg width="74" height="74" viewBox="0 0 74 74" fill="none" xmlns="http://www.w3.org/2000/svg">
<path d="M72.632 71.0203L58.9686 51.6647V30.0625H62.4373C62.6483 30.0624 62.8552 30.0046 63.0356 29.8954C63.2161 29.7862 63.3632 29.6297 63.4611 29.4428C63.559 29.2559 63.6039 29.0459 63.591 28.8353C63.5781 28.6248 63.5078 28.4218 63.3877 28.2483L52.9815 13.2171C52.8694 13.0717 52.7254 12.9539 52.5606 12.8729C52.3958 12.7919 52.2147 12.7498 52.0311 12.7498C51.8474 12.7498 51.6663 12.7919 51.5015 12.8729C51.3367 12.9539 51.1927 13.0717 51.0806 13.2171L48.4929 16.9541C48.4596 16.859 48.4137 16.7687 48.3565 16.6858L37.9502 1.65456C37.8381 1.50915 37.6941 1.39141 37.5294 1.3104C37.3646 1.22938 37.1834 1.18726 36.9998 1.18726C36.8162 1.18726 36.635 1.22938 36.4703 1.3104C36.3055 1.39141 36.1615 1.50915 36.0494 1.65456L25.6431 16.6858C25.5859 16.7687 25.54 16.859 25.5067 16.9541L22.919 13.2171C22.8069 13.0717 22.6629 12.9539 22.4981 12.8729C22.3333 12.7919 22.1522 12.7498 21.9686 12.7498C21.7849 12.7498 21.6038 12.7919 21.439 12.8729C21.2742 12.9539 21.1302 13.0717 21.0181 13.2171L10.6119 28.2483C10.4918 28.4218 10.4216 28.6248 10.4086 28.8353C10.3957 29.0459 10.4406 29.2559 10.5385 29.4428C10.6364 29.6297 10.7835 29.7862 10.964 29.8954C11.1445 30.0046 11.3514 30.0624 11.5623 30.0625H15.0311V51.6647L1.36765 71.0203C1.24535 71.1934 1.17299 71.3968 1.15848 71.6083C1.14396 71.8198 1.18786 72.0311 1.28536 72.2194C1.38286 72.4076 1.53022 72.5653 1.71134 72.6754C1.89245 72.7856 2.10035 72.8438 2.31231 72.8437H71.6873C71.8993 72.8438 72.1072 72.7856 72.2883 72.6754C72.4694 72.5653 72.6168 72.4076 72.7143 72.2194C72.8118 72.0311 72.8557 71.8198 72.8411 71.6083C72.8266 71.3968 72.7543 71.1934 72.632 71.0203ZM26.5936 18.5H30.0623V20.8125H32.3748V17.3437C32.3748 17.0371 32.253 16.743 32.0361 16.5261C31.8193 16.3093 31.5252 16.1875 31.2186 16.1875H28.8008L36.9998 4.344L45.1988 16.1875H42.7811C42.4744 16.1875 42.1803 16.3093 41.9635 16.5261C41.7466 16.743 41.6248 17.0371 41.6248 17.3437V20.8125H43.9373V18.5H47.4061H47.4246L43.4933 24.1772C43.002 22.8509 42.1163 21.7069 40.9554 20.899C39.7946 20.0911 38.4141 19.658 36.9998 19.658C35.5855 19.658 34.205 20.0911 33.0442 20.899C31.8833 21.7069 30.9976 22.8509 30.5063 24.1772L26.5751 18.5H26.5936ZM45.0936 33.5613C44.0987 32.7961 42.8799 32.3792 41.6248 32.375H40.827C41.7186 31.7809 42.4616 30.9896 42.9984 30.0625H45.0936V33.5613ZM41.6248 39.3125V63.5937H38.1561V49.7187H35.8436V63.5937H32.3748C32.3748 60.1007 32.3748 49.8794 32.3748 49.7257V39.3125H30.0623V48.5625H28.9061V38.1562C28.9061 37.2362 29.2715 36.354 29.922 35.7034C30.5725 35.0529 31.4548 34.6875 32.3748 34.6875H41.6248C42.5448 34.6875 43.4271 35.0529 44.0776 35.7034C44.7281 36.354 45.0936 37.2362 45.0936 38.1562V48.5625H43.9373V39.3125H41.6248ZM33.1726 32.375H32.3748C31.1197 32.3792 29.9009 32.7961 28.9061 33.5613V30.0625H31.0012C31.5381 30.9896 32.281 31.7809 33.1726 32.375ZM36.9998 31.2187C36.0851 31.2187 35.1909 30.9475 34.4303 30.4393C33.6697 29.9311 33.0769 29.2087 32.7269 28.3636C32.3768 27.5185 32.2852 26.5886 32.4637 25.6914C32.6421 24.7943 33.0826 23.9702 33.7294 23.3233C34.3763 22.6765 35.2004 22.236 36.0975 22.0576C36.9947 21.8791 37.9246 21.9707 38.7697 22.3208C39.6148 22.6708 40.3372 23.2636 40.8454 24.0242C41.3536 24.7848 41.6248 25.679 41.6248 26.5937C41.6248 27.8203 41.1375 28.9967 40.2702 29.8641C39.4028 30.7314 38.2264 31.2187 36.9998 31.2187ZM52.8982 70.5312L47.3587 51.7052L45.141 52.3573L50.4875 70.5312H23.5121L28.8587 52.3573L26.641 51.7052L21.1014 70.5312H4.54387L17.132 52.6984C17.2697 52.5032 17.3436 52.2701 17.3436 52.0312V28.9062C17.3436 28.5996 17.2217 28.3055 17.0049 28.0886C16.7881 27.8718 16.494 27.75 16.1873 27.75H13.7696L21.9686 15.9065L30.1664 27.75H27.7498C27.4432 27.75 27.1491 27.8718 26.9322 28.0886C26.7154 28.3055 26.5936 28.5996 26.5936 28.9062V49.7187C26.5936 50.0254 26.7154 50.3195 26.9322 50.5363C27.1491 50.7532 27.4432 50.875 27.7498 50.875H30.0623C30.0623 51.2218 30.0623 51.6138 30.0623 52.0671V64.75C30.0623 65.0566 30.1841 65.3507 30.401 65.5676C30.6178 65.7844 30.9119 65.9062 31.2186 65.9062H42.7811C43.0877 65.9062 43.3818 65.7844 43.5987 65.5676C43.8155 65.3507 43.9373 65.0566 43.9373 64.75V50.875H46.2498C46.5565 50.875 46.8506 50.7532 47.0674 50.5363C47.2842 50.3195 47.4061 50.0254 47.4061 49.7187V38.1562C47.4061 38.0637 47.3829 37.9781 47.3783 37.8868H47.4061V28.9062C47.4061 28.5996 47.2842 28.3055 47.0674 28.0886C46.8506 27.8718 46.5565 27.75 46.2498 27.75H43.8332L52.0311 15.9065L60.23 27.75H57.8123C57.5056 27.75 57.2116 27.8718 56.9947 28.0886C56.7779 28.3055 56.6561 28.5996 56.6561 28.9062V52.0312C56.656 52.2701 56.7299 52.5032 56.8676 52.6984L69.4557 70.5312H52.8982Z" fill="#151F59"/>
</svg>
