<svg width="75" height="75" viewBox="0 0 75 75" fill="none" xmlns="http://www.w3.org/2000/svg">
<g clip-path="url(#clip0)">
<path d="M42.5 60C39.7386 60 37.5 57.7614 37.5 55V48.8913C39.127 46.1531 39.9903 43.0289 40 39.8438V28.75C40 18.4113 31.0275 10 20 10C8.9725 10 0 18.4113 0 28.75V39.8438C0.096875 46.7275 3.98484 52.9958 10.1087 56.1413L11.285 53.935C5.97734 51.2227 2.59891 45.8034 2.5 39.8438V28.75C2.5 19.79 10.35 12.5 20 12.5C29.65 12.5 37.5 19.79 37.5 28.75V39.8438C37.4011 45.8034 34.0227 51.2227 28.715 53.935L21 57.4163C19.2881 58.3164 12.9967 54.8352 11.285 53.935L10.1075 56.1413C12.5562 57.428 19.0513 60.7867 21.5 59.5L25 58.75V65C25 65.642 25.4862 66.1795 26.125 66.2438L35.25 67.1563C36.5292 67.2813 37.5034 68.3584 37.5 69.6438V75H40V69.6438C40.0077 67.073 38.0586 64.9183 35.5 64.6688L27.5 63.875V57.4163L29.8913 56.1413C31.7956 55.1287 33.5214 53.8114 35 52.2413V55C35.0041 59.1405 38.3595 62.4959 42.5 62.5H48.75V60H42.5Z" fill="#151F59"/>
<path d="M12.5 56.4287V63.8749L4.50001 64.6749C1.94376 64.9242 -0.00436765 67.0754 7.35425e-06 69.6437V74.9999H2.50001V69.6437C2.49641 68.3584 3.47079 67.2812 4.75001 67.1562L13.875 66.2499C14.5161 66.1856 15.0033 65.6443 15 64.9999V56.4287H12.5Z" fill="#151F59"/>
<path d="M34.0075 28.985L30.3937 28.2262L32.4875 25.1887C32.8302 24.6922 32.7691 24.0216 32.3425 23.595L28.905 20.1575C28.4786 19.7316 27.8089 19.6706 27.3125 20.0125L24.275 22.1062L23.515 18.4925C23.3931 17.9139 22.8827 17.4997 22.2912 17.5H17.7087C17.1175 17.4997 16.6069 17.9139 16.485 18.4925L15.725 22.1062L12.6875 20.0125C12.1911 19.6706 11.5214 19.7316 11.095 20.1575L7.6575 23.595C7.23094 24.0216 7.16984 24.6922 7.5125 25.1887L9.60625 28.2262L5.9925 28.985C5.41391 29.1069 4.99969 29.6175 5 30.2087V34.7912C4.99969 35.3825 5.41391 35.8931 5.9925 36.015L9.60625 36.7737L7.5125 39.8112C7.16984 40.3078 7.23094 40.9784 7.6575 41.405L11.095 44.8425C11.5214 45.2684 12.1911 45.3294 12.6875 44.9875L15.725 42.8937L16.485 46.5075C16.6069 47.0861 17.1173 47.5003 17.7087 47.5H22.2912C22.8825 47.5003 23.3931 47.0861 23.515 46.5075L24.275 42.8937L27.3125 44.9875C27.8089 45.3294 28.4786 45.2684 28.905 44.8425L32.3425 41.405C32.7691 40.9784 32.8302 40.3078 32.4875 39.8112L30.3937 36.7737L34.0075 36.015C34.5861 35.8931 35.0003 35.3827 35 34.7912V30.2087C35.0003 29.6175 34.5861 29.1069 34.0075 28.985ZM32.5 33.7775L29.7262 34.36C28.4316 34.6345 27.6045 35.9064 27.8791 37.2011C27.9445 37.5103 28.0706 37.8034 28.25 38.0637L29.8387 40.375L27.875 42.3387L25.5637 40.75C24.475 39.9989 22.9834 40.2727 22.2323 41.3614C22.0519 41.623 21.9253 41.9178 21.86 42.2287L21.2762 45H18.7237L18.14 42.2262C17.8667 40.932 16.5959 40.1045 15.3019 40.3778C14.9916 40.4433 14.6973 40.5698 14.4362 40.75L12.125 42.3387L10.1612 40.375L11.75 38.065C12.5008 36.9744 12.2252 35.4816 11.1345 34.7308C10.8741 34.5514 10.5806 34.4255 10.2712 34.36L7.5 33.7775V31.2225L10.2737 30.64C11.5684 30.3655 12.3955 29.0936 12.1209 27.7989C12.0555 27.4897 11.9294 27.1966 11.75 26.9362L10.1612 24.625L12.125 22.6612L14.4362 24.25C15.525 25.0011 17.0166 24.7273 17.7677 23.6386C17.9481 23.377 18.0747 23.0822 18.14 22.7712L18.7237 20H21.2762L21.86 22.7737C22.1333 24.068 23.4041 24.8955 24.6981 24.6222C25.0084 24.5567 25.3027 24.4302 25.5637 24.25L27.875 22.6612L29.8387 24.625L28.25 26.935C27.4992 28.0256 27.7748 29.5184 28.8655 30.2692C29.1259 30.4486 29.4194 30.5745 29.7287 30.64L32.5 31.2225V33.7775Z" fill="#151F59"/>
<path d="M20 26.25C16.5483 26.25 13.75 29.0483 13.75 32.5C13.7541 35.95 16.55 38.7459 20 38.75C23.4517 38.75 26.25 35.9517 26.25 32.5C26.25 29.0483 23.4517 26.25 20 26.25ZM20 36.25C17.9289 36.25 16.25 34.5711 16.25 32.5C16.25 30.4289 17.9289 28.75 20 28.75C22.0711 28.75 23.75 30.4289 23.75 32.5C23.75 34.5711 22.0711 36.25 20 36.25Z" fill="#151F59"/>
<path d="M69.9641 6.1857C67.8773 6.2157 66.21 7.93164 66.24 10.0184C66.2564 11.1649 66.7927 12.242 67.6977 12.9462L64.9562 21.2499C64.0606 21.2621 63.1995 21.5973 62.5312 22.1937L57.4375 19.3749C57.8161 17.3724 56.4997 15.4423 54.4972 15.0637C54.2509 15.0171 54.0006 14.9957 53.75 14.9999C51.6789 14.9999 50 16.6788 50 18.7499C50.002 19.5576 50.2681 20.3424 50.7575 20.9849L47.1637 26.3749C46.8656 26.2951 46.5586 26.253 46.25 26.2499C44.1789 26.2499 42.5 27.9288 42.5 29.9999C42.5 32.071 44.1789 33.7499 46.25 33.7499C48.3211 33.7499 50 32.071 50 29.9999C49.9978 29.1919 49.7317 28.4066 49.2425 27.7637L52.8362 22.3749C53.1344 22.4548 53.4414 22.4968 53.75 22.4999C54.6612 22.4963 55.5395 22.1587 56.2187 21.5512L61.3125 24.3812C60.9533 26.4209 62.3158 28.3655 64.3555 28.7246C66.3952 29.0837 68.3398 27.7215 68.6989 25.6818C68.9395 24.3157 68.4062 22.9284 67.3125 22.0749L70.0725 13.7424C72.1592 13.7124 73.8266 11.9965 73.7966 9.90976C73.7667 7.82304 72.0508 6.1557 69.9641 6.1857ZM46.25 31.2499C45.5597 31.2499 45 30.6902 45 29.9999C45 29.3096 45.5597 28.7499 46.25 28.7499C46.9403 28.7499 47.5 29.3096 47.5 29.9999C47.5 30.6902 46.9403 31.2499 46.25 31.2499ZM53.75 19.9999C53.0597 19.9999 52.5 19.4402 52.5 18.7499C52.5 18.0596 53.0597 17.4999 53.75 17.4999C54.4403 17.4999 55 18.0596 55 18.7499C55 19.4402 54.4403 19.9999 53.75 19.9999ZM65 26.2499C64.3097 26.2499 63.75 25.6902 63.75 24.9999C63.75 24.3096 64.3097 23.7499 65 23.7499C65.6903 23.7499 66.25 24.3096 66.25 24.9999C66.25 25.6902 65.6903 26.2499 65 26.2499ZM70 11.2499C69.3097 11.2499 68.75 10.6902 68.75 9.99992C68.75 9.30961 69.3097 8.74992 70 8.74992C70.6903 8.74992 71.25 9.30961 71.25 9.99992C71.25 10.6902 70.6903 11.2499 70 11.2499Z" fill="#151F59"/>
<path d="M71.25 26.25V53.75H68.75V46.25H66.25V53.75H63.75V45H61.25V53.75H58.75V41.25H56.25V53.75H53.75V33.75H51.25V53.75H48.75V48.75H46.25V53.75H43.75V56.25H73.75V55V53.75V26.25H71.25Z" fill="#151F59"/>
<path d="M42.5 0C38.3595 0.0040625 35.0041 3.35953 35 7.5V13.75H37.5V7.5C37.5 4.73859 39.7386 2.5 42.5 2.5H48.75V0H42.5Z" fill="#151F59"/>
<path d="M53.75 60H51.25V62.5H53.75V60Z" fill="#151F59"/>
<path d="M75 60H47V62.5H75V60Z" fill="#151F59"/>
<path d="M75 0H47.5V2.5H75V0Z" fill="#151F59"/>
</g>
<defs>
<clipPath id="clip0">
<rect width="75" height="75" fill="white"/>
</clipPath>
</defs>
</svg>
