<svg width="71" height="71" viewBox="0 0 71 71" fill="none" xmlns="http://www.w3.org/2000/svg">
<g clip-path="url(#clip0)">
<path d="M15.2796 19.356C15.2754 19.356 15.271 19.356 15.2667 19.356C14.6666 19.3504 14.0482 18.9882 13.4783 18.3083C12.9862 17.7214 12.1117 17.6445 11.5247 18.1365C10.9379 18.6285 10.8608 19.5031 11.3528 20.0901C12.0859 20.9647 12.95 21.5771 13.8675 21.8898V23.5742C13.8675 24.3401 14.4884 24.9609 15.2542 24.9609C16.0199 24.9609 16.6409 24.3401 16.6409 23.5742V21.9017C18.2423 21.348 19.4379 19.8183 19.4379 17.9691C19.4379 15.6752 17.5717 13.8089 15.2778 13.8089C14.5131 13.8089 13.891 13.1869 13.891 12.4222C13.891 11.6638 14.5076 11.0416 15.2639 11.0355C15.7623 11.0257 16.2841 11.2826 16.7775 11.7602C17.3282 12.2928 18.2057 12.2786 18.7385 11.7282C19.2711 11.1779 19.2567 10.3 18.7066 9.76735C17.9946 9.07829 17.2825 8.69154 16.6409 8.4827V6.93359C16.6409 6.16771 16.0199 5.54688 15.2542 5.54688C14.4884 5.54688 13.8675 6.16771 13.8675 6.93359V8.51015C12.267 9.09105 11.1175 10.6292 11.1175 12.4222C11.1175 14.7161 12.9837 16.5824 15.2776 16.5824C16.0423 16.5824 16.6643 17.2045 16.6643 17.9691C16.6643 18.7312 16.0475 19.356 15.2796 19.356Z" fill="#151F59"/>
<path d="M15.2539 30.5078C23.6649 30.5078 30.5078 23.6649 30.5078 15.2539C30.5078 13.3508 30.1488 11.4598 29.4617 9.6976C31.3393 9.35799 33.5532 9.15234 35.5 9.15234C48.8867 9.15234 60.5156 19.2686 62.4101 31.8826L59.5001 28.9726C58.9584 28.4311 58.0806 28.4311 57.5388 28.9726C56.9973 29.5141 56.9973 30.3922 57.5388 30.9338L63.0857 36.4807C63.6274 37.0222 64.5052 37.0222 65.047 36.4807L70.5938 30.9338C71.1353 30.3923 71.1353 29.5142 70.5938 28.9726C70.0522 28.4311 69.1744 28.4311 68.6326 28.9726L65.2723 32.333C63.6211 17.8652 50.6636 6.37891 35.5 6.37891C33.0832 6.37891 30.3727 6.6593 28.1641 7.12524C25.3797 2.70466 20.5264 0 15.2539 0C6.8429 0 0 6.8429 0 15.2539C0 23.6649 6.8429 30.5078 15.2539 30.5078ZM15.2539 2.77344C22.1379 2.77344 27.7344 8.34846 27.7344 15.2539C27.7344 22.1356 22.1356 27.7344 15.2539 27.7344C8.37218 27.7344 2.77344 22.1356 2.77344 15.2539C2.77344 8.37218 8.37218 2.77344 15.2539 2.77344Z" fill="#151F59"/>
<path d="M58.5195 59.9062H64.0664C64.8322 59.9062 65.4531 59.2854 65.4531 58.5195C65.4531 57.7536 64.8322 57.1328 64.0664 57.1328H58.5195C57.7538 57.1328 57.1328 57.7536 57.1328 58.5195C57.1328 59.2854 57.7538 59.9062 58.5195 59.9062Z" fill="#151F59"/>
<path d="M58.5195 65.4531H64.0664C64.8322 65.4531 65.4531 64.8323 65.4531 64.0664C65.4531 63.3005 64.8322 62.6797 64.0664 62.6797H58.5195C57.7538 62.6797 57.1328 63.3005 57.1328 64.0664C57.1328 64.8323 57.7538 65.4531 58.5195 65.4531Z" fill="#151F59"/>
<path d="M2.36786 42.0277L5.72913 38.6664C7.38556 53.1665 20.3689 64.6212 35.5005 64.6212C36.8988 64.6212 38.7961 64.5217 40.4926 64.3057V69.6134C40.4926 70.3793 41.1136 71.0001 41.8794 71.0001H49.5063C50.2721 71.0001 50.893 70.3793 50.893 69.6134C50.893 68.8475 50.2721 68.2267 49.5063 68.2267H43.2661C43.2661 64.9296 43.2661 45.2227 43.2661 42.4337H51.5864V49.3673C51.5864 50.1332 52.2074 50.754 52.9731 50.754H58.52C59.2857 50.754 59.9067 50.1332 59.9067 49.3673V42.4337H68.227V68.2267H48.5005C47.7347 68.2267 47.1138 68.8475 47.1138 69.6134C47.1138 70.3793 47.7347 71.0001 48.5005 71.0001H69.6137C70.3795 71.0001 71.0005 70.3793 71.0005 69.6134V41.047C71.0005 40.2811 70.3795 39.6603 69.6137 39.6603H41.8794C41.1136 39.6603 40.4926 40.2811 40.4926 41.047V61.5078C38.8415 61.7399 36.8639 61.8478 35.5005 61.8478C21.9184 61.8478 10.4325 51.89 8.58216 39.1093L11.5004 42.0275C12.042 42.569 12.9198 42.569 13.4616 42.0275C14.0031 41.486 14.0031 40.608 13.4616 40.0663L7.91473 34.5194C7.37308 33.9779 6.49529 33.9779 5.9535 34.5194L0.406624 40.0663C-0.13489 40.6078 -0.13489 41.4859 0.406624 42.0275C0.948276 42.5692 1.82607 42.5692 2.36786 42.0277ZM54.3598 42.4337H57.1333V47.9806H54.3598V42.4337Z" fill="#151F59"/>
<path d="M55.7461 71C56.512 71 57.1328 70.3791 57.1328 69.6133C57.1328 68.8474 56.512 68.2266 55.7461 68.2266C54.9802 68.2266 54.3594 68.8474 54.3594 69.6133C54.3594 70.3791 54.9802 71 55.7461 71Z" fill="#151F59"/>
</g>
<defs>
<clipPath id="clip0">
<rect width="71" height="71" fill="white"/>
</clipPath>
</defs>
</svg>
