<svg width="68" height="68" viewBox="0 0 68 68" fill="none" xmlns="http://www.w3.org/2000/svg">
<path d="M61.3594 3.58594H6.64062C2.97898 3.58594 0 6.56492 0 10.2266V57.7734C0 61.4351 2.97898 64.4141 6.64062 64.4141H61.3594C65.021 64.4141 68 61.4351 68 57.7734V10.2266C68 6.56492 65.021 3.58594 61.3594 3.58594ZM65.3438 57.7734C65.3438 59.9704 63.5564 61.7578 61.3594 61.7578H6.64062C4.44364 61.7578 2.65625 59.9704 2.65625 57.7734V10.2266C2.65625 8.02958 4.44364 6.24219 6.64062 6.24219H61.3594C63.5564 6.24219 65.3438 8.02958 65.3438 10.2266V57.7734Z" fill="#151F59"/>
<path d="M45.6875 50.3359C43.344 50.3359 41.4375 52.2425 41.4375 54.5859C41.4375 56.9294 43.344 58.8359 45.6875 58.8359C48.031 58.8359 49.9375 56.9294 49.9375 54.5859C49.9375 52.2425 48.031 50.3359 45.6875 50.3359ZM45.6875 56.1797C44.8087 56.1797 44.0938 55.4648 44.0938 54.5859C44.0938 53.7071 44.8087 52.9922 45.6875 52.9922C46.5663 52.9922 47.2812 53.7071 47.2812 54.5859C47.2812 55.4648 46.5663 56.1797 45.6875 56.1797Z" fill="#151F59"/>
<path d="M57.375 50.3359C55.0315 50.3359 53.125 52.2425 53.125 54.5859C53.125 56.9294 55.0315 58.8359 57.375 58.8359C59.7185 58.8359 61.625 56.9294 61.625 54.5859C61.625 52.2425 59.7185 50.3359 57.375 50.3359ZM57.375 56.1797C56.4962 56.1797 55.7812 55.4648 55.7812 54.5859C55.7812 53.7071 56.4962 52.9922 57.375 52.9922C58.2538 52.9922 58.9688 53.7071 58.9688 54.5859C58.9688 55.4648 58.2538 56.1797 57.375 56.1797Z" fill="#151F59"/>
<path d="M15.2706 53.2578H7.70312C6.9696 53.2578 6.375 53.8524 6.375 54.5859C6.375 55.3195 6.9696 55.9141 7.70312 55.9141H15.2706C16.0042 55.9141 16.5988 55.3195 16.5988 54.5859C16.5988 53.8524 16.0042 53.2578 15.2706 53.2578Z" fill="#151F59"/>
<path d="M31.9196 53.2578H24.3521C23.6185 53.2578 23.0239 53.8524 23.0239 54.5859C23.0239 55.3195 23.6185 55.9141 24.3521 55.9141H31.9196C32.6531 55.9141 33.2477 55.3195 33.2477 54.5859C33.2477 53.8524 32.6531 53.2578 31.9196 53.2578Z" fill="#151F59"/>
<path d="M60.2969 9.96094H39.9766C39.2432 9.96094 38.6484 10.5555 38.6484 11.2891C38.6484 12.0226 39.2432 12.6172 39.9766 12.6172H58.9688V30.3928H55.6201C55.0918 30.3928 54.614 30.7059 54.4028 31.1901L53.2168 33.9097L50.8166 26.4941C50.6564 25.9991 50.222 25.6433 49.7053 25.5837C49.1876 25.5236 48.6843 25.7716 48.4157 26.2172L45.6805 30.7522H42.5013C41.9673 30.7522 41.4852 31.0721 41.2776 31.5642L39.6206 35.4932L35.4296 17.2816C35.294 16.692 34.777 16.2686 34.1721 16.2519C33.5727 16.2387 33.0277 16.6292 32.8595 17.2104L28.8611 31.0311H24.2822C23.6822 31.0311 23.1567 31.4334 23.0001 32.0127L22.2828 34.6667L18.4762 23.383C18.3017 22.8657 17.8286 22.508 17.2834 22.4809C16.7364 22.4529 16.2319 22.7633 16.0074 23.2608L12.4562 31.1241H9.03125V12.6172H40.2274C40.961 12.6172 41.5556 12.0226 41.5556 11.2891C41.5556 10.5555 40.961 9.96094 40.2274 9.96094H7.70312C6.9696 9.96094 6.375 10.5555 6.375 11.2891V46.0859C6.375 46.8195 6.9696 47.4141 7.70312 47.4141H60.2969C61.0303 47.4141 61.625 46.8195 61.625 46.0859V11.2891C61.625 10.5555 61.0303 9.96094 60.2969 9.96094ZM9.03125 44.7578V33.7803H13.3139C13.8359 33.7803 14.3095 33.4746 14.5244 32.9989L17.0388 27.4312L21.165 39.6625C21.352 40.2167 21.8754 40.5855 22.4643 40.5655C23.0489 40.5475 23.553 40.1492 23.7057 39.5845L25.2995 33.6875H29.8598C30.4513 33.6875 30.9713 33.2965 31.1356 32.7285L33.9892 22.865L37.954 40.0934C38.0832 40.655 38.5597 41.0691 39.1336 41.1188C39.1723 41.1221 39.2105 41.1237 39.2487 41.1237C39.7787 41.1237 40.2633 40.8068 40.472 40.3116L43.3829 33.4085H46.4306C46.8961 33.4085 47.3275 33.1649 47.5679 32.7663L49.1864 30.0828L51.7694 38.0633C51.9392 38.5885 52.4164 38.9538 52.9676 38.9809C53.5217 39.0086 54.0296 38.6912 54.2502 38.1852L56.4899 33.0492H58.9688V44.7578H9.03125Z" fill="#151F59"/>
<path d="M34 12.6172C34.3493 12.6172 34.692 12.4751 34.9389 12.228C35.186 11.981 35.3281 11.6384 35.3281 11.2891C35.3281 10.9398 35.186 10.5971 34.9389 10.3501C34.692 10.103 34.3493 9.96094 34 9.96094C33.6507 9.96094 33.308 10.103 33.061 10.3501C32.814 10.5971 32.6719 10.9398 32.6719 11.2891C32.6719 11.6384 32.814 11.981 33.061 12.228C33.308 12.4751 33.6507 12.6172 34 12.6172Z" fill="#151F59"/>
</svg>
