<svg width="72" height="72" viewBox="0 0 72 72" fill="none" xmlns="http://www.w3.org/2000/svg">
<g clip-path="url(#clip0)">
<path d="M67.5466 46.8924C73.5665 40.7557 73.4719 30.9007 67.3351 24.8809C66.2317 23.7985 64.9732 22.8864 63.601 22.1748V1.2C63.601 0.5373 63.0637 0 62.401 0H9.60098C8.93828 0 8.40098 0.5373 8.40098 1.2V42C8.40098 42.6627 8.93828 43.2 9.60098 43.2H42.5758C45.9446 49.7349 53.44 53.0052 60.5218 51.03L54.5014 58.6344C53.8202 59.4994 52.7789 60.0031 51.6778 60H49.4866C51.1435 57.5202 50.4763 54.1668 47.9966 52.51C47.1098 51.9175 46.0675 51.6009 45.001 51.6H30.2242L20.4658 47.8476C16.1579 46.5261 11.5703 46.4098 7.20098 47.5116V46.8C7.20098 46.1373 6.66368 45.6 6.00098 45.6H1.20098C0.538276 45.6 0.000976562 46.1373 0.000976562 46.8V70.8C0.000976562 71.4627 0.538276 72 1.20098 72H6.00098C6.66368 72 7.20098 71.4627 7.20098 70.8V68.64L24.979 71.9736C25.052 71.9889 25.1263 71.9977 25.201 72H55.2814C56.3467 72.0016 57.3577 71.5305 58.0414 70.7136L70.321 56.0664C72.4717 54.0348 72.5681 50.6445 70.5365 48.4938C69.7397 47.6502 68.6905 47.0883 67.5466 46.8924ZM4.80098 69.6H2.40098V48H4.80098V69.6ZM31.201 2.4H40.801V14.4H31.201V2.4ZM41.5642 31.1665C40.5467 34.297 40.5467 37.6693 41.5642 40.8H10.801V2.4H28.801V15.6C28.801 16.2627 29.3383 16.8 30.001 16.8H42.001C42.6637 16.8 43.201 16.2627 43.201 15.6V2.4H61.201V21.1632C53.0161 18.5029 44.2244 22.9816 41.5642 31.1665ZM56.401 49.2C49.1144 49.1914 43.2095 43.2865 43.201 36C43.201 28.7098 49.1108 22.8 56.401 22.8C63.6911 22.8 69.601 28.7098 69.601 36C69.601 43.2901 63.6911 49.2 56.401 49.2ZM68.641 54.354C68.6024 54.3898 68.566 54.4279 68.5318 54.468L56.2006 69.1716C55.9726 69.4432 55.636 69.6 55.2814 69.6H25.3126L7.20098 66.204V50.0172C11.2576 48.8617 15.5596 48.8859 19.603 50.0868L29.5702 53.9268C29.708 53.9773 29.8541 54.0022 30.001 54H45.001C46.6579 54 48.001 55.3431 48.001 57C48.001 58.6569 46.6579 60 45.001 60H37.201V62.4H51.6778C53.5133 62.4037 55.2485 61.5628 56.383 60.12L64.4878 49.8816C65.021 49.4395 65.6923 49.1983 66.385 49.2H66.6334C68.2718 49.2013 69.5996 50.5291 69.601 52.1676C69.6008 52.9986 69.2527 53.7915 68.641 54.354Z" fill="#151F59"/>
<path d="M65.9428 32.0327C65.7991 31.5859 65.408 31.2637 64.942 31.2083L59.7016 30.5867L57.4804 25.8875C57.283 25.4693 56.8628 25.2019 56.4004 25.1999C55.9339 25.1764 55.5014 25.4438 55.3144 25.8719L53.0008 30.5867L47.8468 31.2083C47.1889 31.2878 46.7198 31.8856 46.7993 32.5436C46.8322 32.815 46.9565 33.067 47.152 33.2579L50.9488 36.9599L49.2472 42.8711C49.0648 43.5082 49.4333 44.1727 50.0704 44.3551C50.4043 44.4506 50.7631 44.3969 51.0544 44.2079L56.4004 40.7315L61.7464 44.2115C62.3026 44.572 63.0455 44.4133 63.406 43.8571C63.604 43.5514 63.6526 43.1723 63.538 42.8267L61.5856 36.9599L65.6092 33.2855C65.9558 32.969 66.0862 32.4796 65.9428 32.0327ZM59.392 35.7143C59.0423 36.034 58.9135 36.5296 59.0632 36.9791L60.1768 40.3235L57.0568 38.2943C56.6591 38.0359 56.1464 38.0359 55.7488 38.2943L52.4404 40.4399L53.4508 36.9299C53.5726 36.5059 53.4518 36.0491 53.1364 35.7407L50.6272 33.2903L53.9416 32.8895C54.3443 32.8406 54.6952 32.5913 54.874 32.2271L56.3764 29.1671L57.8164 32.2103C57.9925 32.5846 58.3489 32.8417 58.7596 32.8907L62.056 33.2807L59.392 35.7143Z" fill="#151F59"/>
<path d="M36.0002 28.8H14.4002C13.7375 28.8 13.2002 29.3373 13.2002 30V37.2C13.2002 37.8627 13.7375 38.4 14.4002 38.4H36.0002C36.6629 38.4 37.2002 37.8627 37.2002 37.2V30C37.2002 29.3373 36.663 28.8 36.0002 28.8ZM34.8002 36H15.6002V31.2H34.8002V36Z" fill="#151F59"/>
<path d="M24.8488 11.1516L20.0488 6.35158C19.5802 5.88313 18.8206 5.88313 18.352 6.35158L13.552 11.1516C13.0834 11.6203 13.0836 12.3801 13.5523 12.8487C13.7773 13.0735 14.0824 13.2 14.4004 13.2H15.6004V15.6C15.6004 16.2627 16.1377 16.8 16.8004 16.8H21.6004C22.2631 16.8 22.8004 16.2627 22.8004 15.6V13.2H24.0004C24.6631 13.1998 25.2003 12.6625 25.2001 11.9997C25.2001 11.6817 25.0738 11.3766 24.8488 11.1516ZM20.4004 12V14.4H18.0004V12C18.0007 11.4994 17.6904 11.0512 17.2216 10.8756L19.2004 8.89678L21.1792 10.8756C20.7106 11.0512 20.4001 11.4994 20.4004 12Z" fill="#151F59"/>
</g>
<defs>
<clipPath id="clip0">
<rect width="72" height="72" fill="white"/>
</clipPath>
</defs>
</svg>
