<svg width="359" height="456" viewBox="0 0 359 456" fill="none" xmlns="http://www.w3.org/2000/svg">
<mask id="path-1-inside-1_25_459" fill="white">
<path d="M-377.366 4.13381C-330.503 3.68605 -330.503 5.56663 -330.503 8.88003C-330.503 12.3725 -330.324 17.0292 -295.557 20.5217C-260.522 23.4769 -223.784 19.8949 -187.136 15.3277C-141.438 8.07407 -95.6508 -0.433309 -47.8918 -1.59748C-0.132935 -2.76165 -0.312134 9.14869 -0.312134 22.7605C-0.312134 34.5813 -0.13269 47.0289 34.0063 51.1483C67.3391 55.9841 103.27 44.9692 138.305 33.7753C180.867 19.8053 223.34 4.13381 260.256 13.8949C292.066 28.6709 283.822 58.9393 274.414 91.8046C265.901 120.282 257.748 149.297 270.471 174.729C281.493 201.953 300.22 199.893 318.051 198.013C339.018 195.684 357.566 193.625 359 238.848C359 285.415 345.559 331.265 333.821 376.488C324.95 413.294 317.334 449.831 319.933 485.472C323.338 520.398 331.581 520.666 339.108 521.024C347.083 521.293 353.713 521.293 352.548 569.024C351.921 616.218 349.054 661.71 347.531 706.754C347.262 743.291 347.979 779.738 351.832 814.036C352.011 824.156 352.011 834.096 352.1 843.768C345.022 797.022 343.857 751.709 343.857 706.575C344.932 670.217 347.083 633.59 345.918 599.024C345.47 563.651 339.735 563.472 333.284 563.203C323.875 563.203 313.212 562.576 306.94 515.293C301.205 467.383 310.345 421.712 320.649 376.309C330.237 339.593 340.721 302.967 339.108 268.937C336.599 235.445 321.904 236.341 305.686 237.594C283.553 239.923 260.167 242.34 245.024 203.744C225.132 169.893 234.988 133.894 243.68 100.312C249.594 75.4167 256.224 50.7005 231.135 39.8648C204.612 30.5515 170.563 42.5514 136.065 54.0139C93.3242 66.6407 49.4181 79.357 4.25769 70.9391C-42.2467 63.5959 -42.2468 47.3871 -42.2468 32.9694C-42.426 22.2232 -42.5156 12.3725 -77.73 11.9248C-113.124 11.2979 -149.771 17.8352 -186.33 23.1187C-232.028 28.7604 -277.636 32.9694 -325.127 26.7903C-372.258 20.1635 -372.437 14.1636 -371.989 9.50689C-372.258 6.82035 -372.437 5.11888 -407.025 4.04426C-397.347 4.04426 -387.133 4.22336 -377.097 4.04426L-377.366 4.13381ZM-1106.47 621.232C-1099.66 667.889 -1098.5 713.291 -1098.41 758.515C-1099.75 794.872 -1101.55 831.32 -1100.65 866.245C-1100.02 901.349 -1094.47 901.439 -1088.01 901.886C-1078.7 901.886 -1067.85 902.155 -1061.76 949.796C-1055.85 997.527 -1065.17 1043.2 -1075.29 1088.6C-1084.61 1124.96 -1095.18 1161.85 -1093.57 1195.88C-1091.24 1229.47 -1076.46 1228.57 -1060.24 1227.41C-1038.28 1225.17 -1014.72 1222.57 -999.576 1261.17C-979.952 1295.38 -989.898 1331.29 -998.68 1365.05C-1004.68 1390.12 -1011.22 1414.66 -986.314 1425.58C-959.792 1434.72 -925.473 1422.63 -891.155 1411.43C-848.593 1398.63 -804.777 1386.09 -759.258 1394.15C-712.574 1401.4 -712.753 1417.7 -712.843 1432.3C-712.664 1443.05 -712.664 1452.81 -677.449 1453.34C-642.235 1453.97 -605.229 1447.43 -568.581 1441.88C-522.883 1436.42 -477.364 1432.3 -429.784 1438.21C-382.652 1445.02 -382.831 1451.19 -382.652 1455.31C-382.652 1458.27 -382.832 1459.88 -348.155 1461.05C-357.832 1461.05 -367.778 1460.87 -377.276 1460.87C-424.408 1461.31 -424.856 1459.52 -424.766 1456.12C-424.587 1452.45 -424.766 1448.15 -459.533 1444.66C-494.747 1441.52 -531.305 1445.11 -568.222 1449.85C-613.741 1457.11 -658.991 1465.43 -706.84 1466.69C-754.419 1467.85 -755.046 1456.03 -754.867 1442.69C-754.867 1430.87 -754.867 1418.24 -788.917 1413.94C-822.339 1409.37 -858.181 1420.12 -893.485 1431.58C-936.046 1445.55 -977.892 1460.78 -1014.99 1451.19C-1046.71 1436.33 -1038.55 1406.06 -1029.23 1373.37C-1020.54 1344.81 -1012.48 1315.88 -1025.11 1290.27C-1036.13 1263.05 -1054.86 1264.93 -1072.42 1266.81C-1093.48 1269.32 -1111.94 1270.93 -1113.19 1225.7C-1113.19 1179.14 -1099.75 1133.65 -1088.1 1088.51C-1079.41 1051.71 -1071.62 1014.99 -1074.57 979.617C-1077.71 944.423 -1086.04 944.244 -1093.39 944.065C-1101.37 943.617 -1108 943.17 -1106.83 895.797C-1106.2 848.514 -1103.34 803.38 -1101.81 758.604C-1101.63 721.799 -1102.44 685.53 -1105.94 650.874C-1106.11 641.023 -1106.2 631.173 -1106.2 621.143L-1106.47 621.232ZM-1108.09 530.159C-1095.27 576.904 -1090.88 622.397 -1087.66 667.889C-1086.76 704.426 -1086.49 740.694 -1081.29 775.619C-1076.28 810.544 -1068.21 810.813 -1059.52 811.26C-1047.6 810.992 -1034.07 810.992 -1022.07 858.723C-1010.15 906.364 -1016.15 951.946 -1023.59 997.527C-1030.67 1033.89 -1038.91 1070.78 -1033 1104.99C-1026.55 1138.57 -1009.61 1137.85 -991.332 1136.96C-966.87 1134.72 -940.975 1132.66 -921.172 1172.51C-897.427 1208.6 -905.671 1245.76 -913.108 1280.96C-918.395 1307.38 -923.681 1332.99 -897.606 1346.96C-870.008 1359.49 -835.78 1349.64 -800.834 1340.33C-757.824 1330.03 -713.918 1320.27 -667.951 1333.97C-621.447 1347.05 -621.716 1365.94 -621.716 1383.31C-621.716 1396.3 -621.716 1408.39 -586.501 1413.22C-551.287 1418.24 -514.639 1414.12 -477.812 1410.9C-432.114 1408.39 -386.326 1407.4 -338.926 1419.4C-291.615 1431.94 -292.063 1440.63 -292.242 1447.52C-292.421 1452.54 -292.421 1456.48 -257.655 1461.94C-267.78 1461.76 -277.726 1461.67 -287.403 1461.67C-334.445 1456.21 -334.535 1451.82 -334.535 1445.73C-334.266 1439.73 -334.266 1433.19 -369.032 1425.4C-404.247 1418.06 -440.895 1419.05 -477.722 1421.46C-523.062 1425.58 -568.581 1431.05 -616.339 1426.48C-663.919 1421.64 -664.188 1407.14 -664.188 1391.11C-664.009 1376.96 -663.919 1362.09 -698.058 1353.49C-731.66 1344.63 -767.77 1353.31 -803.074 1362.45C-846.084 1374.27 -888.377 1386.81 -926.638 1372.57C-960.24 1353.67 -953.34 1322.06 -945.365 1287.67C-938.107 1258.39 -931.208 1228.48 -946.978 1201.44C-961.225 1173.32 -981.745 1174.75 -1001.64 1176.54C-1025.02 1178.78 -1045.99 1179.94 -1052.71 1134.54C-1058.62 1087.97 -1048.14 1042.48 -1039.27 997.259C-1032.91 960.722 -1027.62 923.916 -1034.97 888.633C-1042.14 853.26 -1052.8 853.439 -1062.66 853.26C-1073.23 852.991 -1082.73 852.633 -1087.39 805.081C-1092.67 757.977 -1092.58 712.664 -1094.02 667.71C-1096.08 631.173 -1099.48 594.456 -1107.28 559.979C-1107.55 550.218 -1107.73 539.83 -1108 529.89L-1108.09 530.159ZM-1110.15 438.1C-1091.6 485.114 -1084.25 530.785 -1078.34 576.188C-1074.84 612.904 -1071.89 649.531 -1062.3 684.456C-1052.89 719.381 -1042.85 719.381 -1031.92 719.381C-1016.87 719.381 -1000.65 719.381 -982.551 767.022C-964.63 814.753 -967.677 860.245 -972.426 905.916C-977.175 942.453 -982.909 979.438 -972.695 1013.74C-961.942 1047.5 -942.946 1046.78 -922.785 1045.97C-895.725 1044.18 -867.41 1042.57 -842.769 1083.68C-815.081 1121.65 -821.443 1159.88 -827.626 1196.51C-831.747 1224.18 -836.317 1251.32 -808.898 1268.42C-780.315 1284.36 -745.548 1276.39 -710.513 1269.14C-666.876 1261.52 -622.701 1254.27 -576.466 1273.7C-529.782 1292.87 -529.782 1314.54 -530.23 1334.69C-530.409 1350 -530.409 1363.97 -495.284 1373.46C-460.249 1382.87 -423.064 1381.26 -386.236 1380.54C-340.449 1380.99 -294.482 1382.87 -246.992 1400.87C-199.86 1419.4 -199.95 1430.78 -200.308 1440.54C-200.487 1447.79 -200.756 1453.61 -166.259 1463.55C-176.115 1463.28 -186.151 1463.1 -196.007 1462.84C-243.139 1451.64 -243.139 1444.57 -242.691 1435.88C-242.422 1428.09 -242.243 1419.22 -277.188 1407.14C-312.224 1395.23 -348.961 1393.88 -386.057 1393.7C-431.845 1394.69 -477.274 1397.11 -524.943 1386.45C-572.254 1375.7 -572.702 1358.42 -572.344 1339.61C-572.165 1323.58 -572.075 1306.3 -606.393 1293.49C-640.264 1280.51 -676.374 1286.87 -712.036 1293.94C-755.494 1302.81 -798.056 1312.93 -837.661 1294.21C-873.144 1271.38 -867.589 1238.06 -860.958 1202.42C-855.044 1171.88 -849.579 1141.17 -868.485 1112.87C-886.047 1083.59 -908.717 1084.84 -930.312 1086.36C-956.207 1088.15 -979.863 1089.5 -992.318 1043.83C-1003.97 997.08 -996.44 951.319 -990.436 906.095C-986.583 869.29 -983.626 832.395 -995.454 797.201C-1007.28 762.007 -1020.18 762.097 -1032.01 762.097C-1045.54 761.918 -1057.46 761.918 -1068.21 714.634C-1079.41 667.53 -1082.37 621.77 -1086.94 576.546C-1091.51 539.562 -1097.24 502.845 -1109.34 468.279C-1109.61 458.249 -1109.79 448.398 -1110.06 438.1H-1110.15ZM-1112.66 346.041C-1088.01 392.876 -1078.07 438.548 -1068.93 484.577C-1063.02 521.293 -1058 557.92 -1044.02 592.845C-1030.22 627.77 -1017.68 627.77 -1004.41 628.038C-986.852 627.411 -967.587 627.591 -943.394 675.321C-919.559 722.873 -919.828 768.455 -921.441 814.574C-923.681 850.932 -927.176 887.827 -912.749 922.304C-897.875 956.334 -876.549 955.886 -854.148 955.349C-824.579 953.558 -793.755 952.393 -764.544 995.02C-732.735 1034.96 -737.305 1074.27 -741.875 1112.6C-745.1 1141.62 -748.953 1170.18 -720.101 1190.42C-690.352 1209.59 -655.317 1203.67 -619.744 1198.57C-575.838 1193.29 -531.484 1188.72 -484.98 1214.06C-438.117 1238.78 -438.117 1263.58 -438.117 1286.6C-438.565 1304.15 -438.565 1320.63 -403.53 1334.51C-368.495 1348.39 -331.488 1349.11 -294.392 1350.72C-248.605 1354.12 -202.907 1358.78 -155.506 1382.96C-108.195 1407.4 -108.195 1421.73 -108.375 1434.27C-108.823 1443.67 -109.091 1451.82 -74.325 1466.06C-84.4502 1465.79 -94.4859 1465.61 -104.522 1465.34C-151.474 1447.97 -151.384 1438.12 -151.026 1426.84C-150.847 1416.54 -150.578 1405.79 -185.344 1388.96C-220.379 1372.57 -257.565 1368.9 -294.482 1366.39C-340.001 1364.51 -385.788 1364.06 -433.547 1347.4C-480.948 1330.66 -480.858 1310.42 -480.948 1288.93C-480.679 1270.21 -480.321 1250.78 -514.818 1233.94C-549.047 1216.57 -585.426 1220.51 -621.357 1225.53C-664.994 1231.88 -708.273 1239.67 -749.222 1216.12C-786.587 1189.35 -781.748 1154.06 -776.91 1117.08C-772.519 1085.74 -768.218 1054.03 -790.171 1024.39C-811.228 994.035 -835.869 994.751 -859.614 996.005C-887.84 997.438 -914.094 998.333 -932.373 952.573C-949.935 905.737 -945.186 859.887 -942.229 814.484C-940.795 777.768 -939.899 740.963 -956.207 705.769C-972.605 670.665 -987.748 670.575 -1002 670.575C-1018.21 670.575 -1033.09 670.575 -1049.75 623.113C-1066.96 575.83 -1072.87 530.248 -1080.4 484.756C-1087.21 447.95 -1095.27 411.413 -1111.94 376.757C-1112.21 366.727 -1112.39 356.25 -1112.66 346.22V346.041ZM-1113.82 255.146C-1083.36 301.982 -1070.63 347.563 -1059.34 392.876C-1051.28 429.413 -1044.02 466.129 -1025.65 501.144C-1007.37 536.069 -992.497 536.069 -976.727 536.338C-955.939 536.338 -933.717 536.606 -903.52 584.069C-873.592 631.71 -871.263 677.202 -870.277 722.694C-870.456 759.231 -871.621 796.037 -852.894 830.962C-833.719 865.17 -810.332 864.543 -785.691 864.275C-753.434 863.29 -720.101 862.215 -686.231 906.095C-650.299 947.916 -653.525 988.483 -656.661 1028.06C-658.991 1058.6 -661.321 1088.51 -631.214 1111.79C-600.3 1134.18 -565.176 1130.33 -529.692 1127.11C-485.338 1124.33 -440.805 1122.36 -394.122 1153.35C-346.99 1183.88 -346.811 1211.29 -347.08 1237.44C-346.9 1257.5 -346.811 1276.48 -311.596 1294.75C-276.561 1313.02 -240.003 1315.97 -203.265 1319.82C-157.477 1325.73 -112.048 1333.26 -64.6478 1363.26C-17.3369 1393.61 -17.2473 1410.99 -17.2473 1426.66C-16.9784 1438.57 -16.9784 1449.49 18.1464 1467.94C7.84192 1467.76 -2.19373 1467.67 -12.0502 1467.31C-59.1819 1444.21 -59.1819 1431.4 -59.3611 1416.81C-59.1819 1404.27 -59.5403 1390.75 -94.3963 1369.7C-129.611 1349.11 -165.811 1343.2 -202.996 1338.45C-248.336 1333.97 -294.034 1330.66 -341.614 1307.82C-389.014 1285.17 -389.193 1261.97 -389.373 1237.26C-389.104 1216.3 -389.373 1194.54 -423.87 1173.32C-458.188 1151.65 -494.478 1154.06 -530.678 1156.66C-574.584 1160.51 -618.042 1165.79 -660.335 1137.68C-699.85 1106.69 -696.266 1069.71 -692.861 1031.29C-689.636 999.139 -686.947 966.184 -712.036 935.379C-736.319 903.857 -762.842 904.752 -788.827 905.289C-819.741 906.185 -848.683 907.17 -872.517 860.961C-895.904 813.947 -894.201 767.828 -893.753 722.784C-894.47 686.247 -896.083 649.441 -916.782 614.068C-937.57 578.964 -955.222 579.143 -971.888 578.875C-991.332 578.427 -1008.98 578.606 -1031.83 531.323C-1054.95 484.04 -1063.82 437.921 -1073.68 393.145C-1082.82 356.429 -1092.67 319.623 -1113.55 284.967C-1113.73 275.116 -1113.82 265.266 -1114 255.236L-1113.82 255.146ZM-1110.33 168.819C-1074.4 215.565 -1060.51 259.176 -1047.25 303.594C-1037.66 339.414 -1028.7 375.682 -1006.03 410.608C-983.447 445.533 -965.616 445.98 -946.978 446.697C-922.964 447.145 -896.71 448.488 -860.958 495.592C-825.296 542.696 -821.174 587.382 -817.68 632.337C-816.067 668.605 -814.991 705.142 -792.142 740.067C-768.845 774.365 -743.129 774.276 -716.158 774.097C-681.571 773.649 -645.282 773.201 -607.11 818.156C-567.505 861.499 -569.208 903.319 -570.91 943.976C-572.254 975.766 -573.688 1007.02 -542.327 1033.44C-510.338 1059.23 -475.124 1056.99 -439.372 1055.65C-395.286 1055.2 -351.022 1055.2 -304.249 1091.47C-257.386 1127.73 -256.848 1158.63 -256.669 1188C-256.221 1210.57 -255.504 1232.24 -220.559 1254.9C-185.523 1277.55 -149.503 1282.3 -113.123 1287.76C-68.5007 1296.18 -24.3259 1305.14 22.8058 1340.78C69.8478 1376.6 71.2816 1398.27 72.1776 1417.52C73.0736 1432.39 73.9697 1446.27 108.826 1468.93C98.7003 1469.1 88.4856 1468.93 78.8083 1468.75C31.4078 1439.73 31.4077 1423.7 30.9597 1405.88C30.0637 1390.3 29.4365 1374.09 -5.15063 1348.75C-40.1858 1323.85 -76.4755 1316.15 -112.407 1309.88C-157.657 1302.99 -203.176 1296.9 -250.755 1268.15C-298.066 1239.32 -298.156 1213.35 -298.156 1185.5C-298.783 1161.94 -298.783 1137.59 -333.191 1112.15C-367.778 1086.81 -404.068 1086.81 -439.551 1087.53C-484.353 1089.32 -528.259 1092.09 -571.717 1059.23C-613.114 1024.3 -610.605 985.706 -608.365 946.035C-606.483 912.633 -605.139 879.319 -633.006 847.171C-660.514 814.574 -689.277 814.753 -717.144 815.38C-750.835 815.648 -782.734 816.096 -812.124 769.529C-841.335 722.336 -842.231 676.665 -844.202 632.158C-846.891 595.8 -850.206 559.621 -875.116 524.606C-900.115 489.681 -920.635 489.055 -939.899 488.517C-962.838 487.443 -983.805 487.353 -1012.57 440.07C-1041.42 392.608 -1052.8 347.295 -1064.54 303.056C-1075.29 266.967 -1086.76 231.326 -1111.94 196.848C-1111.67 187.445 -1111.22 177.684 -1110.15 168.819H-1110.33ZM-1095.63 93.9538C-1054.86 139.625 -1042.14 179.117 -1029.5 220.4C-1019.02 254.699 -1009.34 289.265 -982.641 324.011C-955.849 358.31 -934.613 360.101 -913.108 361.892C-883.897 364.22 -852.984 367.533 -812.214 413.652C-771.713 459.771 -766.874 501.95 -762.573 545.203C-759.168 580.397 -756.839 615.949 -730.047 650.695C-702.807 684.903 -674.492 685.351 -645.192 685.62C-607.648 685.888 -568.76 686.336 -527.004 731.47C-484.442 775.798 -484.98 817.977 -485.428 859.797C-486.055 892.663 -486.772 925.17 -454.515 954.543C-421.63 983.109 -386.326 982.662 -350.843 982.841C-307.564 983.736 -264.196 984.901 -218.408 1026C-172.441 1066.84 -170.828 1101.85 -169.216 1134.99C-168.499 1160.51 -167.423 1185.05 -132.836 1212C-98.07 1238.69 -62.8557 1244.6 -27.8206 1251.32C14.0245 1259.82 55.2426 1268.6 101.209 1309.08C147.355 1349.91 151.477 1377.31 155.42 1401.85C157.212 1420.39 159.273 1437.85 193.86 1464.63C185.347 1465.79 176.297 1466.87 166.889 1467.13C119.757 1432.48 117.965 1412.06 115.456 1389.67C113.664 1370.51 111.603 1350.36 77.285 1321.35C42.9667 1292.33 8.46912 1284.36 -26.2972 1276.84C-69.9343 1268.87 -113.84 1261.08 -161.241 1226.6C-208.193 1191.94 -209.269 1162.48 -210.254 1130.87C-210.971 1104.63 -211.688 1077.41 -245.737 1048.21C-279.966 1019.02 -315.449 1017.68 -351.112 1017.14C-395.018 1016.96 -438.924 1017.86 -483.367 980.423C-526.556 941.647 -525.391 901.797 -524.316 860.514C-523.42 826.484 -522.972 792.455 -553.617 759.768C-583.813 726.634 -614.727 726.455 -644.654 726.366C-681.213 726.366 -715.8 726.187 -750.745 679.53C-785.691 632.516 -788.469 587.919 -792.322 543.95C-796.264 508.756 -800.744 473.92 -829.597 439.443C-858.629 405.145 -882.463 403.354 -904.864 401.831C-931.835 400.04 -956.835 398.608 -991.332 351.414C-1025.92 304.131 -1038.37 260.788 -1051.01 218.162C-1062.48 183.684 -1073.86 150.371 -1102.89 116.342C-1100.56 108.998 -1098.32 101.566 -1095.81 93.9538H-1095.63ZM-1061.04 38.7006C-1016.69 82.3122 -1007.55 115.894 -997.246 151.446C-989.719 180.729 -980.58 212.43 -950.204 246.37C-919.828 280.131 -894.829 283.176 -867.858 287.922C-833.36 292.937 -796.891 298.668 -752.538 342.459C-708.363 386.25 -704.331 424.846 -700.119 464.428C-697.431 497.114 -694.564 531.502 -664.009 565.352C-633.543 599.113 -602.451 599.561 -570.462 600.904C-530.23 602.068 -488.833 602.785 -444.658 646.844C-400.483 690.724 -400.483 732.724 -400.483 775.171C-400.483 809.022 -400.484 842.693 -367.599 874.036C-334.625 905.289 -299.948 905.916 -265.809 906.274C-223.964 907.797 -183.194 909.409 -139.377 953.737C-95.6507 998.065 -92.425 1037.11 -89.5576 1074.54C-86.7799 1104.18 -84.8086 1132.12 -50.9384 1162.48C-17.068 1192.84 15.6376 1199.02 46.7301 1204.03C84.7222 1211.29 120.653 1218 164.291 1262.42C208.017 1306.75 216.44 1340.33 223.519 1371.76C229.97 1396.66 234.092 1418.51 268.141 1448.87C260.525 1451.37 253.088 1453.7 245.74 1456.12C199.505 1416.18 194.487 1390.12 190.186 1362.72C184.272 1337.37 178.538 1311.58 145.563 1279.79C112.679 1247.64 82.6613 1241.29 51.8375 1235.91C10.7092 1227.5 -30.2399 1219.7 -76.7443 1180.03C-122.89 1140.27 -125.31 1106.33 -127.012 1071.32C-129.521 1041.14 -131.582 1010.33 -164.287 978.184C-197.441 946.214 -230.863 944.692 -264.733 943.886C-308.012 942.543 -350.753 942.005 -395.824 900.812C-439.909 858.812 -439.909 817.529 -439.551 775.44C-439.372 741.142 -439.372 706.754 -471.808 674.247C-503.886 641.381 -536.95 640.934 -569.477 640.217C-608.365 639.59 -646.267 638.874 -685.962 592.934C-725.925 546.547 -729.599 503.651 -734.617 461.831C-737.753 429.413 -741.516 397.443 -773.326 364.399C-805.404 331.355 -833.719 327.862 -861.406 323.564C-892.499 320.34 -922.427 316.758 -962.032 270.639C-1001.91 224.251 -1013.46 184.043 -1026.01 144.55C-1034.25 115.715 -1042.76 86.9688 -1074.93 54.3721C-1070.99 48.6409 -1066.87 42.9096 -1060.95 38.8797L-1061.04 38.7006ZM-1000.83 9.32779C-954.684 49.0886 -949.845 75.2376 -945.455 102.551C-939.541 127.894 -933.806 153.685 -900.922 185.654C-867.947 217.445 -837.751 223.803 -807.196 229.535C-766.247 237.952 -724.939 245.743 -678.614 285.415C-632.379 325.176 -630.138 358.936 -628.257 394.13C-625.748 424.219 -623.687 455.025 -590.892 487.084C-557.918 519.054 -524.406 520.577 -490.715 521.562C-447.436 522.905 -404.426 523.353 -359.624 564.725C-315.449 606.725 -315.539 647.829 -315.718 690.097C-315.718 724.306 -315.897 758.604 -283.64 791.201C-251.382 824.066 -218.229 824.514 -185.703 825.23C-146.815 825.678 -109.091 826.395 -68.8591 872.334C-29.2542 918.901 -25.222 961.349 -20.6522 1003.62C-17.4264 1035.86 -13.7527 1068 18.0568 1101.05C50.0454 1134.09 78.4498 1137.76 106.137 1142.06C137.409 1145.2 167.427 1148.69 206.852 1194.99C246.816 1241.38 258.285 1281.32 270.919 1320.81C278.984 1349.82 287.586 1378.39 319.664 1411.25C315.811 1416.9 311.689 1422.45 305.686 1426.75C261.332 1382.87 252.013 1349.37 241.708 1313.91C234.361 1284.63 225.221 1252.93 194.845 1218.99C164.38 1185.14 139.47 1182.18 112.32 1177.44C77.8226 1172.42 41.4434 1166.51 -3.00024 1122.9C-47.1749 1079.11 -51.2072 1040.69 -55.329 1000.57C-58.0171 967.886 -60.974 933.677 -91.4393 899.916C-122.084 866.155 -152.908 865.618 -185.165 864.364C-225.577 863.379 -266.794 862.484 -310.969 818.514C-355.144 774.634 -355.144 732.455 -355.502 690.187C-355.323 656.336 -355.233 622.576 -388.029 591.143C-421.182 559.89 -455.68 559.352 -489.819 558.726C-531.664 557.382 -572.434 555.591 -615.891 511.263C-659.797 466.935 -663.023 427.891 -665.801 390.279C-668.758 360.817 -670.819 332.966 -704.51 302.519C-738.559 272.161 -771.354 266.251 -802.178 260.967C-840.17 253.893 -876.012 247.087 -919.559 202.759C-963.286 158.431 -971.888 124.849 -978.967 93.4165C-985.418 68.3422 -989.719 46.5812 -1023.41 16.2232C-1016.06 13.8949 -1008.72 11.477 -1001.01 9.14869L-1000.83 9.32779ZM-922.337 -2.04523C-875.385 32.7007 -873.592 52.9393 -871.084 75.3272C-869.292 94.4912 -867.141 114.998 -832.823 144.013C-798.594 172.849 -764.007 180.729 -729.24 188.341C-685.962 196.49 -641.697 204.102 -594.476 238.758C-547.344 273.236 -546.448 302.877 -545.284 334.399C-544.567 360.638 -543.671 387.861 -509.621 417.234C-475.572 446.607 -439.909 447.413 -404.605 448.309C-360.699 448.309 -316.704 447.771 -272.171 485.114C-228.892 523.711 -230.326 563.651 -231.401 605.024C-232.118 638.874 -232.386 672.904 -201.921 705.679C-171.545 738.724 -140.811 739.082 -110.615 738.992C-74.4146 738.813 -39.6482 739.172 -4.43384 785.828C30.3325 832.932 33.2894 877.17 36.9631 921.409C40.8162 956.96 45.2068 991.527 73.9697 1026.18C103.091 1060.39 127.015 1062.18 149.506 1063.62C176.297 1065.23 201.476 1067.02 235.974 1114.12C270.74 1161.23 282.837 1204.39 295.65 1247.29C307.119 1281.76 318.499 1315.08 347.62 1349.11C345.111 1356.81 342.782 1364.33 340.542 1371.49C299.413 1325.82 286.779 1286.15 274.235 1244.96C263.751 1210.66 254.074 1176.09 227.282 1141.53C200.49 1106.78 179.523 1105.17 157.929 1103.56C128.628 1101.23 97.6251 1097.91 56.7657 1051.97C16.3544 1005.68 11.5156 963.587 7.125 920.424C4.16809 884.782 1.65918 849.23 -25.1323 814.753C-52.3719 780.455 -80.7765 780.007 -109.987 779.649C-147.89 779.38 -186.599 779.022 -228.444 733.978C-271.006 689.65 -270.558 647.471 -270.289 605.74C-269.662 572.695 -268.676 540.188 -300.933 510.995C-333.639 482.159 -369.481 482.696 -404.784 482.607C-447.974 481.622 -491.521 480.368 -536.95 439.443C-582.917 398.518 -584.53 363.235 -586.322 330.101C-587.308 304.758 -588.204 280.31 -622.881 253.445C-657.647 226.579 -693.04 220.579 -727.717 213.684C-769.741 205.266 -810.959 196.759 -856.926 156.102C-903.072 115.267 -907.284 88.0435 -910.957 62.9691C-913.018 44.7006 -914.9 27.3276 -949.218 0.462204C-940.706 -0.522861 -932.104 -1.77658 -922.427 -2.04523H-922.337ZM-834.077 -3.83626C-787.035 25.3575 -787.393 41.1185 -786.497 59.1184C-785.781 74.8794 -784.885 91.2673 -750.118 116.431C-715.173 141.327 -679.152 148.849 -643.131 155.297C-598.239 162.102 -552.273 168.281 -504.783 197.117C-457.203 225.684 -457.472 251.743 -457.024 279.594C-456.755 303.146 -456.307 327.593 -421.809 353.116C-387.312 378.727 -351.201 378.279 -315.628 377.742C-271.275 375.951 -226.831 372.996 -183.642 406.22C-142.066 440.965 -144.754 479.473 -146.994 519.502C-148.786 552.636 -150.13 586.397 -122.263 618.367C-94.7546 650.874 -65.8126 650.337 -37.8561 649.889C-4.25464 649.441 27.3756 648.993 57.3033 695.56C86.5143 742.664 87.4999 788.067 89.292 833.201C91.8009 869.469 95.2059 906.006 120.116 941.02C145.295 975.945 165.635 976.214 185.258 976.841C208.107 977.736 229.164 977.826 257.748 1025.47C286.779 1072.75 298.069 1118.15 310.076 1162.39C320.65 1198.3 332.208 1234.39 357.387 1269.23C357.118 1278.54 356.67 1287.76 355.416 1296.81C319.485 1249.79 305.506 1206 292.514 1161.85C282.747 1125.76 273.966 1089.77 251.117 1054.84C228.447 1019.92 210.705 1019.2 192.157 1018.75C167.875 1017.86 141.621 1016.87 105.779 969.677C70.1167 922.483 65.9949 877.708 62.59 832.932C60.7979 796.395 60.2603 760.037 37.1425 725.381C13.7557 691.082 -12.2295 690.903 -39.021 691.351C-73.9666 691.53 -109.898 691.978 -148.159 647.292C-187.764 603.859 -186.061 561.949 -184.359 521.472C-183.194 489.502 -181.581 458.249 -212.942 431.921C-244.931 406.309 -280.414 408.19 -315.897 409.712C-360.072 409.981 -404.426 409.981 -450.841 373.623C-497.704 337.534 -498.6 306.459 -498.6 277.266C-499.496 254.878 -499.765 233.117 -534.8 210.371C-569.835 187.714 -606.214 183.147 -642.056 177.326C-686.947 168.908 -731.033 160.222 -777.985 124.401C-825.027 88.4017 -826.909 66.9093 -827.626 47.4767C-828.342 32.6112 -829.239 18.9098 -864.005 -3.92581C-854.417 -4.10492 -844.292 -3.92581 -833.988 -3.74671L-834.077 -3.83626ZM-743.219 -2.31389C-696.266 20.9695 -696.535 33.6858 -696.266 48.1035C-696.087 60.7303 -695.997 74.3421 -661.231 95.3867C-626.196 115.983 -589.369 121.804 -552.631 126.461C-507.381 131.207 -461.414 134.431 -413.745 157.267C-366.344 180.013 -366.434 203.207 -366.344 227.744C-366.344 248.788 -366.076 270.639 -331.578 291.952C-297.26 313.623 -260.97 311.385 -225.218 308.788C-181.133 304.847 -137.317 299.474 -95.2923 327.952C-55.6874 358.757 -59.1819 395.563 -62.766 433.891C-65.8126 466.309 -68.5007 499.174 -43.5012 530.159C-19.0393 561.681 7.66272 560.696 33.379 559.89C64.1133 558.815 93.1449 558.009 117.338 604.218C140.725 651.232 139.022 697.082 138.574 742.395C139.291 779.111 140.814 816.186 161.423 851.469C182.301 886.484 199.684 886.484 216.53 886.484C235.795 886.752 253.805 886.663 276.475 934.214C299.593 981.498 308.463 1027.17 318.32 1072.39C327.459 1109.2 337.585 1145.91 358.552 1180.84C358.731 1190.6 358.821 1200.54 359 1210.48C328.355 1163.47 315.542 1117.97 304.162 1072.57C296.098 1035.77 289.019 999.229 270.471 964.304C252.371 929.11 237.228 929.11 221.727 929.11C200.67 929.11 178.448 928.841 148.251 881.379C118.324 833.738 115.994 788.156 115.098 742.575C115.277 705.769 116.621 668.874 97.7148 634.396C78.45 600.098 54.9735 600.367 30.4221 601.083C-2.01453 601.979 -35.4369 602.874 -69.3071 559.084C-105.059 517.263 -102.013 476.428 -98.8765 437.204C-96.6364 406.667 -94.0378 376.668 -124.055 353.384C-154.969 330.817 -190.541 334.847 -225.666 338.071C-270.289 340.757 -315.091 342.817 -361.506 311.653C-408.637 281.027 -408.637 253.445 -408.189 227.385C-408.637 207.505 -408.817 188.61 -443.673 170.252C-478.887 151.983 -515.714 149.207 -552.273 145.356C-598.239 139.177 -643.758 131.655 -691.159 101.566C-738.47 71.2078 -738.559 53.9244 -738.29 38.1633C-738.47 26.253 -738.47 15.3277 -773.326 -2.94075C-763.469 -2.76165 -753.434 -2.49299 -743.129 -2.31389H-743.219ZM-650.837 0.0144477C-604.153 17.3874 -604.601 27.1485 -604.601 38.6111C-604.87 48.4618 -605.049 59.6557 -570.104 76.3122C-535.158 92.7001 -498.062 96.0135 -461.056 98.8792C-415.537 100.67 -369.391 101.208 -321.811 118.043C-274.231 134.7 -274.679 154.849 -274.679 176.699C-274.859 195.147 -274.679 214.4 -240.361 231.684C-206.312 248.967 -169.932 244.669 -134.18 240.102C-90.7225 233.654 -46.8165 225.863 -6.31555 249.505C31.4077 276.37 26.3899 311.205 21.5513 348.369C16.9814 379.712 13.0389 411.593 35.0815 441.055C56.049 471.592 80.8691 470.338 104.614 469.174C132.571 467.831 159.093 466.846 177.552 512.786C194.935 559.8 190.365 605.203 187.229 650.695C185.616 687.68 184.989 724.485 201.207 759.768C217.605 794.962 232.748 794.962 246.905 794.783C263.213 794.962 278.267 794.962 294.754 842.514C311.958 889.797 318.051 935.2 325.398 980.423C332.477 1017.59 340.273 1054.39 357.029 1089.05C357.297 1099.53 357.656 1109.38 357.925 1119.41C333.194 1072.39 322.89 1026.72 314.198 980.781C308.194 944.065 303.177 907.439 289.019 872.603C275.22 837.589 262.765 837.409 249.504 837.409C231.583 837.857 212.497 837.678 188.394 789.947C164.559 742.306 164.649 696.724 166.262 650.963C168.771 613.979 172.265 577.263 157.839 542.696C142.786 508.845 121.46 509.293 98.8795 510.189C69.3103 511.621 38.6656 512.875 9.27551 470.249C-22.7131 430.309 -17.9641 390.996 -13.5735 352.936C-10.3477 323.743 -6.67395 295.176 -35.3473 274.937C-65.2749 255.952 -100.489 261.863 -135.704 266.967C-179.789 272.161 -224.412 276.728 -270.468 251.206C-317.51 226.311 -317.51 201.863 -317.152 178.669C-317.331 161.296 -316.973 144.64 -352.187 130.939C-387.222 117.058 -424.408 116.342 -461.056 114.551C-507.023 111.327 -552.81 106.401 -600.3 82.3122C-647.701 57.8646 -647.611 43.7155 -646.984 30.9097C-646.984 21.5068 -646.536 13.2681 -681.302 -0.791515C-671.446 -0.522861 -661.41 -0.164655 -650.927 -0.0751038L-650.837 0.0144477ZM-559.172 2.25323C-512.309 13.6263 -512.488 20.7008 -512.937 29.2082C-512.937 36.9992 -513.205 46.0439 -478.349 58.0437C-443.314 69.8645 -406.128 71.0287 -369.66 71.4765C-323.872 70.4914 -278.084 67.9839 -230.415 78.7301C-182.835 89.3867 -183.015 106.76 -183.104 125.476C-183.283 141.864 -183.104 158.789 -148.965 171.774C-115.274 184.848 -78.9844 178.401 -43.322 171.326C-0.0432129 162.461 42.9667 152.341 82.4821 171.147C117.965 193.983 112.051 227.385 105.779 262.758C99.8652 293.116 94.5786 323.922 113.306 352.22C131.137 381.593 153.717 380.25 175.491 378.727C201.297 377.115 225.042 375.503 237.497 421.354C249.325 468.01 241.798 513.771 235.705 558.994C231.762 595.979 228.626 632.784 240.275 668.157C252.461 703.082 265.364 703.082 277.102 703.172C290.542 703.441 302.729 703.351 313.302 750.813C324.502 797.917 327.549 843.499 332.029 888.901C336.778 925.707 342.154 962.423 354.699 996.9C354.878 1007.2 355.147 1017.05 355.416 1027.08C336.599 980.065 329.162 934.662 323.427 889.349C319.753 852.544 316.976 815.828 307.209 781.082C297.89 745.888 287.765 745.888 276.833 746.067C261.78 746.246 245.561 745.888 227.372 698.336C209.54 650.605 212.766 604.934 217.515 559.531C222.175 522.547 227.999 485.741 217.784 451.353C206.852 417.772 187.856 418.309 167.696 419.384C140.277 421.175 112.141 422.607 87.5895 381.503C59.7227 343.534 66.0845 305.295 72.2672 268.937C76.1201 241.266 80.7795 213.863 53.2711 196.848C24.6875 180.908 -10.2581 189.057 -44.8452 196.132C-88.9304 203.923 -133.105 210.997 -178.893 191.386C-225.756 172.222 -225.756 150.729 -225.128 130.401C-225.397 115.357 -225.397 101.028 -260.522 91.6255C-295.736 82.3122 -332.653 84.1032 -369.122 84.551C-415.358 84.1032 -461.056 82.3122 -508.456 64.2228C-555.767 45.6857 -555.588 34.3126 -555.05 24.5515C-555.23 17.477 -554.871 11.2979 -589.548 1.53682C-579.691 1.80548 -569.656 2.16368 -559.351 2.25323H-559.172ZM-467.955 3.4174C-421.272 9.05914 -421.092 13.6263 -421.092 19.5366C-421.272 25.2679 -421.361 31.8947 -386.595 39.5962C-351.649 47.1185 -314.553 45.9543 -277.905 43.7155C-232.207 39.5962 -186.688 34.1335 -139.109 38.9693C-91.3497 43.5364 -91.3498 58.3124 -91.529 74.3421C-91.529 88.4912 -91.5289 103.178 -57.4794 111.595C-23.7883 120.551 12.3221 111.864 47.7158 102.73C90.5465 91.2673 133.288 78.3719 171.459 92.7001C205.06 111.595 198.161 143.118 190.007 177.237C182.928 206.609 176.118 236.609 191.799 263.475C206.404 291.594 226.834 289.982 246.726 288.191C270.023 285.952 291.08 284.967 298.159 330.369C304.073 376.936 293.589 422.16 284.36 467.562C278.177 504.278 272.891 541.084 280.059 576.546C287.586 611.65 298.159 611.65 307.746 611.65C318.678 611.919 328.087 612.367 332.836 660.098C338.122 707.291 338.033 752.156 339.466 797.111C341.527 833.917 344.753 870.633 352.907 905.11C353.086 915.409 353.355 925.259 353.534 935.2C340.721 888.364 336.42 842.783 333.373 797.29C332.029 760.933 331.76 724.396 326.474 689.56C321.635 654.366 313.66 654.366 304.969 653.919C292.783 654.366 279.521 653.919 267.245 606.456C255.328 558.726 261.511 513.144 268.858 467.652C276.206 430.846 284.36 394.13 278.446 359.921C271.815 326.519 254.88 327.235 236.601 328.131C211.96 330.369 186.064 332.429 166.172 292.579C142.427 256.49 150.671 219.505 157.929 184.58C163.126 158.073 168.591 132.282 142.427 118.222C114.829 105.685 80.4213 115.715 45.7445 124.849C2.5553 135.147 -41.7987 144.998 -87.3176 131.028C-134.001 117.954 -133.732 99.0583 -133.553 81.8644C-133.553 68.8795 -133.732 56.9691 -168.768 51.7751C-203.982 46.9394 -240.988 51.1483 -277.457 54.1035C-323.245 56.6109 -369.212 57.6855 -416.702 45.5961C-463.833 33.0589 -463.565 24.5515 -463.117 17.477C-463.296 12.4621 -463.117 8.52183 -497.704 3.2383C-487.847 3.4174 -477.991 3.4174 -467.776 3.4174H-467.955Z"/>
</mask>
<path d="M-377.366 4.13381C-330.503 3.68605 -330.503 5.56663 -330.503 8.88003C-330.503 12.3725 -330.324 17.0292 -295.557 20.5217C-260.522 23.4769 -223.784 19.8949 -187.136 15.3277C-141.438 8.07407 -95.6508 -0.433309 -47.8918 -1.59748C-0.132935 -2.76165 -0.312134 9.14869 -0.312134 22.7605C-0.312134 34.5813 -0.13269 47.0289 34.0063 51.1483C67.3391 55.9841 103.27 44.9692 138.305 33.7753C180.867 19.8053 223.34 4.13381 260.256 13.8949C292.066 28.6709 283.822 58.9393 274.414 91.8046C265.901 120.282 257.748 149.297 270.471 174.729C281.493 201.953 300.22 199.893 318.051 198.013C339.018 195.684 357.566 193.625 359 238.848C359 285.415 345.559 331.265 333.821 376.488C324.95 413.294 317.334 449.831 319.933 485.472C323.338 520.398 331.581 520.666 339.108 521.024C347.083 521.293 353.713 521.293 352.548 569.024C351.921 616.218 349.054 661.71 347.531 706.754C347.262 743.291 347.979 779.738 351.832 814.036C352.011 824.156 352.011 834.096 352.1 843.768C345.022 797.022 343.857 751.709 343.857 706.575C344.932 670.217 347.083 633.59 345.918 599.024C345.47 563.651 339.735 563.472 333.284 563.203C323.875 563.203 313.212 562.576 306.94 515.293C301.205 467.383 310.345 421.712 320.649 376.309C330.237 339.593 340.721 302.967 339.108 268.937C336.599 235.445 321.904 236.341 305.686 237.594C283.553 239.923 260.167 242.34 245.024 203.744C225.132 169.893 234.988 133.894 243.68 100.312C249.594 75.4167 256.224 50.7005 231.135 39.8648C204.612 30.5515 170.563 42.5514 136.065 54.0139C93.3242 66.6407 49.4181 79.357 4.25769 70.9391C-42.2467 63.5959 -42.2468 47.3871 -42.2468 32.9694C-42.426 22.2232 -42.5156 12.3725 -77.73 11.9248C-113.124 11.2979 -149.771 17.8352 -186.33 23.1187C-232.028 28.7604 -277.636 32.9694 -325.127 26.7903C-372.258 20.1635 -372.437 14.1636 -371.989 9.50689C-372.258 6.82035 -372.437 5.11888 -407.025 4.04426C-397.347 4.04426 -387.133 4.22336 -377.097 4.04426L-377.366 4.13381ZM-1106.47 621.232C-1099.66 667.889 -1098.5 713.291 -1098.41 758.515C-1099.75 794.872 -1101.55 831.32 -1100.65 866.245C-1100.02 901.349 -1094.47 901.439 -1088.01 901.886C-1078.7 901.886 -1067.85 902.155 -1061.76 949.796C-1055.85 997.527 -1065.17 1043.2 -1075.29 1088.6C-1084.61 1124.96 -1095.18 1161.85 -1093.57 1195.88C-1091.24 1229.47 -1076.46 1228.57 -1060.24 1227.41C-1038.28 1225.17 -1014.72 1222.57 -999.576 1261.17C-979.952 1295.38 -989.898 1331.29 -998.68 1365.05C-1004.68 1390.12 -1011.22 1414.66 -986.314 1425.58C-959.792 1434.72 -925.473 1422.63 -891.155 1411.43C-848.593 1398.63 -804.777 1386.09 -759.258 1394.15C-712.574 1401.4 -712.753 1417.7 -712.843 1432.3C-712.664 1443.05 -712.664 1452.81 -677.449 1453.34C-642.235 1453.97 -605.229 1447.43 -568.581 1441.88C-522.883 1436.42 -477.364 1432.3 -429.784 1438.21C-382.652 1445.02 -382.831 1451.19 -382.652 1455.31C-382.652 1458.27 -382.832 1459.88 -348.155 1461.05C-357.832 1461.05 -367.778 1460.87 -377.276 1460.87C-424.408 1461.31 -424.856 1459.52 -424.766 1456.12C-424.587 1452.45 -424.766 1448.15 -459.533 1444.66C-494.747 1441.52 -531.305 1445.11 -568.222 1449.85C-613.741 1457.11 -658.991 1465.43 -706.84 1466.69C-754.419 1467.85 -755.046 1456.03 -754.867 1442.69C-754.867 1430.87 -754.867 1418.24 -788.917 1413.94C-822.339 1409.37 -858.181 1420.12 -893.485 1431.58C-936.046 1445.55 -977.892 1460.78 -1014.99 1451.19C-1046.71 1436.33 -1038.55 1406.06 -1029.23 1373.37C-1020.54 1344.81 -1012.48 1315.88 -1025.11 1290.27C-1036.13 1263.05 -1054.86 1264.93 -1072.42 1266.81C-1093.48 1269.32 -1111.94 1270.93 -1113.19 1225.7C-1113.19 1179.14 -1099.75 1133.65 -1088.1 1088.51C-1079.41 1051.71 -1071.62 1014.99 -1074.57 979.617C-1077.71 944.423 -1086.04 944.244 -1093.39 944.065C-1101.37 943.617 -1108 943.17 -1106.83 895.797C-1106.2 848.514 -1103.34 803.38 -1101.81 758.604C-1101.63 721.799 -1102.44 685.53 -1105.94 650.874C-1106.11 641.023 -1106.2 631.173 -1106.2 621.143L-1106.47 621.232ZM-1108.09 530.159C-1095.27 576.904 -1090.88 622.397 -1087.66 667.889C-1086.76 704.426 -1086.49 740.694 -1081.29 775.619C-1076.28 810.544 -1068.21 810.813 -1059.52 811.26C-1047.6 810.992 -1034.07 810.992 -1022.07 858.723C-1010.15 906.364 -1016.15 951.946 -1023.59 997.527C-1030.67 1033.89 -1038.91 1070.78 -1033 1104.99C-1026.55 1138.57 -1009.61 1137.85 -991.332 1136.96C-966.87 1134.72 -940.975 1132.66 -921.172 1172.51C-897.427 1208.6 -905.671 1245.76 -913.108 1280.96C-918.395 1307.38 -923.681 1332.99 -897.606 1346.96C-870.008 1359.49 -835.78 1349.64 -800.834 1340.33C-757.824 1330.03 -713.918 1320.27 -667.951 1333.97C-621.447 1347.05 -621.716 1365.94 -621.716 1383.31C-621.716 1396.3 -621.716 1408.39 -586.501 1413.22C-551.287 1418.24 -514.639 1414.12 -477.812 1410.9C-432.114 1408.39 -386.326 1407.4 -338.926 1419.4C-291.615 1431.94 -292.063 1440.63 -292.242 1447.52C-292.421 1452.54 -292.421 1456.48 -257.655 1461.94C-267.78 1461.76 -277.726 1461.67 -287.403 1461.67C-334.445 1456.21 -334.535 1451.82 -334.535 1445.73C-334.266 1439.73 -334.266 1433.19 -369.032 1425.4C-404.247 1418.06 -440.895 1419.05 -477.722 1421.46C-523.062 1425.58 -568.581 1431.05 -616.339 1426.48C-663.919 1421.64 -664.188 1407.14 -664.188 1391.11C-664.009 1376.96 -663.919 1362.09 -698.058 1353.49C-731.66 1344.63 -767.77 1353.31 -803.074 1362.45C-846.084 1374.27 -888.377 1386.81 -926.638 1372.57C-960.24 1353.67 -953.34 1322.06 -945.365 1287.67C-938.107 1258.39 -931.208 1228.48 -946.978 1201.44C-961.225 1173.32 -981.745 1174.75 -1001.64 1176.54C-1025.02 1178.78 -1045.99 1179.94 -1052.71 1134.54C-1058.62 1087.97 -1048.14 1042.48 -1039.27 997.259C-1032.91 960.722 -1027.62 923.916 -1034.97 888.633C-1042.14 853.26 -1052.8 853.439 -1062.66 853.26C-1073.23 852.991 -1082.73 852.633 -1087.39 805.081C-1092.67 757.977 -1092.58 712.664 -1094.02 667.71C-1096.08 631.173 -1099.48 594.456 -1107.28 559.979C-1107.55 550.218 -1107.73 539.83 -1108 529.89L-1108.09 530.159ZM-1110.15 438.1C-1091.6 485.114 -1084.25 530.785 -1078.34 576.188C-1074.84 612.904 -1071.89 649.531 -1062.3 684.456C-1052.89 719.381 -1042.85 719.381 -1031.92 719.381C-1016.87 719.381 -1000.65 719.381 -982.551 767.022C-964.63 814.753 -967.677 860.245 -972.426 905.916C-977.175 942.453 -982.909 979.438 -972.695 1013.74C-961.942 1047.5 -942.946 1046.78 -922.785 1045.97C-895.725 1044.18 -867.41 1042.57 -842.769 1083.68C-815.081 1121.65 -821.443 1159.88 -827.626 1196.51C-831.747 1224.18 -836.317 1251.32 -808.898 1268.42C-780.315 1284.36 -745.548 1276.39 -710.513 1269.14C-666.876 1261.52 -622.701 1254.27 -576.466 1273.7C-529.782 1292.87 -529.782 1314.54 -530.23 1334.69C-530.409 1350 -530.409 1363.97 -495.284 1373.46C-460.249 1382.87 -423.064 1381.26 -386.236 1380.54C-340.449 1380.99 -294.482 1382.87 -246.992 1400.87C-199.86 1419.4 -199.95 1430.78 -200.308 1440.54C-200.487 1447.79 -200.756 1453.61 -166.259 1463.55C-176.115 1463.28 -186.151 1463.1 -196.007 1462.84C-243.139 1451.64 -243.139 1444.57 -242.691 1435.88C-242.422 1428.09 -242.243 1419.22 -277.188 1407.14C-312.224 1395.23 -348.961 1393.88 -386.057 1393.7C-431.845 1394.69 -477.274 1397.11 -524.943 1386.45C-572.254 1375.7 -572.702 1358.42 -572.344 1339.61C-572.165 1323.58 -572.075 1306.3 -606.393 1293.49C-640.264 1280.51 -676.374 1286.87 -712.036 1293.94C-755.494 1302.81 -798.056 1312.93 -837.661 1294.21C-873.144 1271.38 -867.589 1238.06 -860.958 1202.42C-855.044 1171.88 -849.579 1141.17 -868.485 1112.87C-886.047 1083.59 -908.717 1084.84 -930.312 1086.36C-956.207 1088.15 -979.863 1089.5 -992.318 1043.83C-1003.97 997.08 -996.44 951.319 -990.436 906.095C-986.583 869.29 -983.626 832.395 -995.454 797.201C-1007.28 762.007 -1020.18 762.097 -1032.01 762.097C-1045.54 761.918 -1057.46 761.918 -1068.21 714.634C-1079.41 667.53 -1082.37 621.77 -1086.94 576.546C-1091.51 539.562 -1097.24 502.845 -1109.34 468.279C-1109.61 458.249 -1109.79 448.398 -1110.06 438.1H-1110.15ZM-1112.66 346.041C-1088.01 392.876 -1078.07 438.548 -1068.93 484.577C-1063.02 521.293 -1058 557.92 -1044.02 592.845C-1030.22 627.77 -1017.68 627.77 -1004.41 628.038C-986.852 627.411 -967.587 627.591 -943.394 675.321C-919.559 722.873 -919.828 768.455 -921.441 814.574C-923.681 850.932 -927.176 887.827 -912.749 922.304C-897.875 956.334 -876.549 955.886 -854.148 955.349C-824.579 953.558 -793.755 952.393 -764.544 995.02C-732.735 1034.96 -737.305 1074.27 -741.875 1112.6C-745.1 1141.62 -748.953 1170.18 -720.101 1190.42C-690.352 1209.59 -655.317 1203.67 -619.744 1198.57C-575.838 1193.29 -531.484 1188.72 -484.98 1214.06C-438.117 1238.78 -438.117 1263.58 -438.117 1286.6C-438.565 1304.15 -438.565 1320.63 -403.53 1334.51C-368.495 1348.39 -331.488 1349.11 -294.392 1350.72C-248.605 1354.12 -202.907 1358.78 -155.506 1382.96C-108.195 1407.4 -108.195 1421.73 -108.375 1434.27C-108.823 1443.67 -109.091 1451.82 -74.325 1466.06C-84.4502 1465.79 -94.4859 1465.61 -104.522 1465.34C-151.474 1447.97 -151.384 1438.12 -151.026 1426.84C-150.847 1416.54 -150.578 1405.79 -185.344 1388.96C-220.379 1372.57 -257.565 1368.9 -294.482 1366.39C-340.001 1364.51 -385.788 1364.06 -433.547 1347.4C-480.948 1330.66 -480.858 1310.42 -480.948 1288.93C-480.679 1270.21 -480.321 1250.78 -514.818 1233.94C-549.047 1216.57 -585.426 1220.51 -621.357 1225.53C-664.994 1231.88 -708.273 1239.67 -749.222 1216.12C-786.587 1189.35 -781.748 1154.06 -776.91 1117.08C-772.519 1085.74 -768.218 1054.03 -790.171 1024.39C-811.228 994.035 -835.869 994.751 -859.614 996.005C-887.84 997.438 -914.094 998.333 -932.373 952.573C-949.935 905.737 -945.186 859.887 -942.229 814.484C-940.795 777.768 -939.899 740.963 -956.207 705.769C-972.605 670.665 -987.748 670.575 -1002 670.575C-1018.21 670.575 -1033.09 670.575 -1049.75 623.113C-1066.96 575.83 -1072.87 530.248 -1080.4 484.756C-1087.21 447.95 -1095.27 411.413 -1111.94 376.757C-1112.21 366.727 -1112.39 356.25 -1112.66 346.22V346.041ZM-1113.82 255.146C-1083.36 301.982 -1070.63 347.563 -1059.34 392.876C-1051.28 429.413 -1044.02 466.129 -1025.65 501.144C-1007.37 536.069 -992.497 536.069 -976.727 536.338C-955.939 536.338 -933.717 536.606 -903.52 584.069C-873.592 631.71 -871.263 677.202 -870.277 722.694C-870.456 759.231 -871.621 796.037 -852.894 830.962C-833.719 865.17 -810.332 864.543 -785.691 864.275C-753.434 863.29 -720.101 862.215 -686.231 906.095C-650.299 947.916 -653.525 988.483 -656.661 1028.06C-658.991 1058.6 -661.321 1088.51 -631.214 1111.79C-600.3 1134.18 -565.176 1130.33 -529.692 1127.11C-485.338 1124.33 -440.805 1122.36 -394.122 1153.35C-346.99 1183.88 -346.811 1211.29 -347.08 1237.44C-346.9 1257.5 -346.811 1276.48 -311.596 1294.75C-276.561 1313.02 -240.003 1315.97 -203.265 1319.82C-157.477 1325.73 -112.048 1333.26 -64.6478 1363.26C-17.3369 1393.61 -17.2473 1410.99 -17.2473 1426.66C-16.9784 1438.57 -16.9784 1449.49 18.1464 1467.94C7.84192 1467.76 -2.19373 1467.67 -12.0502 1467.31C-59.1819 1444.21 -59.1819 1431.4 -59.3611 1416.81C-59.1819 1404.27 -59.5403 1390.75 -94.3963 1369.7C-129.611 1349.11 -165.811 1343.2 -202.996 1338.45C-248.336 1333.97 -294.034 1330.66 -341.614 1307.82C-389.014 1285.17 -389.193 1261.97 -389.373 1237.26C-389.104 1216.3 -389.373 1194.54 -423.87 1173.32C-458.188 1151.65 -494.478 1154.06 -530.678 1156.66C-574.584 1160.51 -618.042 1165.79 -660.335 1137.68C-699.85 1106.69 -696.266 1069.71 -692.861 1031.29C-689.636 999.139 -686.947 966.184 -712.036 935.379C-736.319 903.857 -762.842 904.752 -788.827 905.289C-819.741 906.185 -848.683 907.17 -872.517 860.961C-895.904 813.947 -894.201 767.828 -893.753 722.784C-894.47 686.247 -896.083 649.441 -916.782 614.068C-937.57 578.964 -955.222 579.143 -971.888 578.875C-991.332 578.427 -1008.98 578.606 -1031.83 531.323C-1054.95 484.04 -1063.82 437.921 -1073.68 393.145C-1082.82 356.429 -1092.67 319.623 -1113.55 284.967C-1113.73 275.116 -1113.82 265.266 -1114 255.236L-1113.82 255.146ZM-1110.33 168.819C-1074.4 215.565 -1060.51 259.176 -1047.25 303.594C-1037.66 339.414 -1028.7 375.682 -1006.03 410.608C-983.447 445.533 -965.616 445.98 -946.978 446.697C-922.964 447.145 -896.71 448.488 -860.958 495.592C-825.296 542.696 -821.174 587.382 -817.68 632.337C-816.067 668.605 -814.991 705.142 -792.142 740.067C-768.845 774.365 -743.129 774.276 -716.158 774.097C-681.571 773.649 -645.282 773.201 -607.11 818.156C-567.505 861.499 -569.208 903.319 -570.91 943.976C-572.254 975.766 -573.688 1007.02 -542.327 1033.44C-510.338 1059.23 -475.124 1056.99 -439.372 1055.65C-395.286 1055.2 -351.022 1055.2 -304.249 1091.47C-257.386 1127.73 -256.848 1158.63 -256.669 1188C-256.221 1210.57 -255.504 1232.24 -220.559 1254.9C-185.523 1277.55 -149.503 1282.3 -113.123 1287.76C-68.5007 1296.18 -24.3259 1305.14 22.8058 1340.78C69.8478 1376.6 71.2816 1398.27 72.1776 1417.52C73.0736 1432.39 73.9697 1446.27 108.826 1468.93C98.7003 1469.1 88.4856 1468.93 78.8083 1468.75C31.4078 1439.73 31.4077 1423.7 30.9597 1405.88C30.0637 1390.3 29.4365 1374.09 -5.15063 1348.75C-40.1858 1323.85 -76.4755 1316.15 -112.407 1309.88C-157.657 1302.99 -203.176 1296.9 -250.755 1268.15C-298.066 1239.32 -298.156 1213.35 -298.156 1185.5C-298.783 1161.94 -298.783 1137.59 -333.191 1112.15C-367.778 1086.81 -404.068 1086.81 -439.551 1087.53C-484.353 1089.32 -528.259 1092.09 -571.717 1059.23C-613.114 1024.3 -610.605 985.706 -608.365 946.035C-606.483 912.633 -605.139 879.319 -633.006 847.171C-660.514 814.574 -689.277 814.753 -717.144 815.38C-750.835 815.648 -782.734 816.096 -812.124 769.529C-841.335 722.336 -842.231 676.665 -844.202 632.158C-846.891 595.8 -850.206 559.621 -875.116 524.606C-900.115 489.681 -920.635 489.055 -939.899 488.517C-962.838 487.443 -983.805 487.353 -1012.57 440.07C-1041.42 392.608 -1052.8 347.295 -1064.54 303.056C-1075.29 266.967 -1086.76 231.326 -1111.94 196.848C-1111.67 187.445 -1111.22 177.684 -1110.15 168.819H-1110.33ZM-1095.63 93.9538C-1054.86 139.625 -1042.14 179.117 -1029.5 220.4C-1019.02 254.699 -1009.34 289.265 -982.641 324.011C-955.849 358.31 -934.613 360.101 -913.108 361.892C-883.897 364.22 -852.984 367.533 -812.214 413.652C-771.713 459.771 -766.874 501.95 -762.573 545.203C-759.168 580.397 -756.839 615.949 -730.047 650.695C-702.807 684.903 -674.492 685.351 -645.192 685.62C-607.648 685.888 -568.76 686.336 -527.004 731.47C-484.442 775.798 -484.98 817.977 -485.428 859.797C-486.055 892.663 -486.772 925.17 -454.515 954.543C-421.63 983.109 -386.326 982.662 -350.843 982.841C-307.564 983.736 -264.196 984.901 -218.408 1026C-172.441 1066.84 -170.828 1101.85 -169.216 1134.99C-168.499 1160.51 -167.423 1185.05 -132.836 1212C-98.07 1238.69 -62.8557 1244.6 -27.8206 1251.32C14.0245 1259.82 55.2426 1268.6 101.209 1309.08C147.355 1349.91 151.477 1377.31 155.42 1401.85C157.212 1420.39 159.273 1437.85 193.86 1464.63C185.347 1465.79 176.297 1466.87 166.889 1467.13C119.757 1432.48 117.965 1412.06 115.456 1389.67C113.664 1370.51 111.603 1350.36 77.285 1321.35C42.9667 1292.33 8.46912 1284.36 -26.2972 1276.84C-69.9343 1268.87 -113.84 1261.08 -161.241 1226.6C-208.193 1191.94 -209.269 1162.48 -210.254 1130.87C-210.971 1104.63 -211.688 1077.41 -245.737 1048.21C-279.966 1019.02 -315.449 1017.68 -351.112 1017.14C-395.018 1016.96 -438.924 1017.86 -483.367 980.423C-526.556 941.647 -525.391 901.797 -524.316 860.514C-523.42 826.484 -522.972 792.455 -553.617 759.768C-583.813 726.634 -614.727 726.455 -644.654 726.366C-681.213 726.366 -715.8 726.187 -750.745 679.53C-785.691 632.516 -788.469 587.919 -792.322 543.95C-796.264 508.756 -800.744 473.92 -829.597 439.443C-858.629 405.145 -882.463 403.354 -904.864 401.831C-931.835 400.04 -956.835 398.608 -991.332 351.414C-1025.92 304.131 -1038.37 260.788 -1051.01 218.162C-1062.48 183.684 -1073.86 150.371 -1102.89 116.342C-1100.56 108.998 -1098.32 101.566 -1095.81 93.9538H-1095.63ZM-1061.04 38.7006C-1016.69 82.3122 -1007.55 115.894 -997.246 151.446C-989.719 180.729 -980.58 212.43 -950.204 246.37C-919.828 280.131 -894.829 283.176 -867.858 287.922C-833.36 292.937 -796.891 298.668 -752.538 342.459C-708.363 386.25 -704.331 424.846 -700.119 464.428C-697.431 497.114 -694.564 531.502 -664.009 565.352C-633.543 599.113 -602.451 599.561 -570.462 600.904C-530.23 602.068 -488.833 602.785 -444.658 646.844C-400.483 690.724 -400.483 732.724 -400.483 775.171C-400.483 809.022 -400.484 842.693 -367.599 874.036C-334.625 905.289 -299.948 905.916 -265.809 906.274C-223.964 907.797 -183.194 909.409 -139.377 953.737C-95.6507 998.065 -92.425 1037.11 -89.5576 1074.54C-86.7799 1104.18 -84.8086 1132.12 -50.9384 1162.48C-17.068 1192.84 15.6376 1199.02 46.7301 1204.03C84.7222 1211.29 120.653 1218 164.291 1262.42C208.017 1306.75 216.44 1340.33 223.519 1371.76C229.97 1396.66 234.092 1418.51 268.141 1448.87C260.525 1451.37 253.088 1453.7 245.74 1456.12C199.505 1416.18 194.487 1390.12 190.186 1362.72C184.272 1337.37 178.538 1311.58 145.563 1279.79C112.679 1247.64 82.6613 1241.29 51.8375 1235.91C10.7092 1227.5 -30.2399 1219.7 -76.7443 1180.03C-122.89 1140.27 -125.31 1106.33 -127.012 1071.32C-129.521 1041.14 -131.582 1010.33 -164.287 978.184C-197.441 946.214 -230.863 944.692 -264.733 943.886C-308.012 942.543 -350.753 942.005 -395.824 900.812C-439.909 858.812 -439.909 817.529 -439.551 775.44C-439.372 741.142 -439.372 706.754 -471.808 674.247C-503.886 641.381 -536.95 640.934 -569.477 640.217C-608.365 639.59 -646.267 638.874 -685.962 592.934C-725.925 546.547 -729.599 503.651 -734.617 461.831C-737.753 429.413 -741.516 397.443 -773.326 364.399C-805.404 331.355 -833.719 327.862 -861.406 323.564C-892.499 320.34 -922.427 316.758 -962.032 270.639C-1001.91 224.251 -1013.46 184.043 -1026.01 144.55C-1034.25 115.715 -1042.76 86.9688 -1074.93 54.3721C-1070.99 48.6409 -1066.87 42.9096 -1060.95 38.8797L-1061.04 38.7006ZM-1000.83 9.32779C-954.684 49.0886 -949.845 75.2376 -945.455 102.551C-939.541 127.894 -933.806 153.685 -900.922 185.654C-867.947 217.445 -837.751 223.803 -807.196 229.535C-766.247 237.952 -724.939 245.743 -678.614 285.415C-632.379 325.176 -630.138 358.936 -628.257 394.13C-625.748 424.219 -623.687 455.025 -590.892 487.084C-557.918 519.054 -524.406 520.577 -490.715 521.562C-447.436 522.905 -404.426 523.353 -359.624 564.725C-315.449 606.725 -315.539 647.829 -315.718 690.097C-315.718 724.306 -315.897 758.604 -283.64 791.201C-251.382 824.066 -218.229 824.514 -185.703 825.23C-146.815 825.678 -109.091 826.395 -68.8591 872.334C-29.2542 918.901 -25.222 961.349 -20.6522 1003.62C-17.4264 1035.86 -13.7527 1068 18.0568 1101.05C50.0454 1134.09 78.4498 1137.76 106.137 1142.06C137.409 1145.2 167.427 1148.69 206.852 1194.99C246.816 1241.38 258.285 1281.32 270.919 1320.81C278.984 1349.82 287.586 1378.39 319.664 1411.25C315.811 1416.9 311.689 1422.45 305.686 1426.75C261.332 1382.87 252.013 1349.37 241.708 1313.91C234.361 1284.63 225.221 1252.93 194.845 1218.99C164.38 1185.14 139.47 1182.18 112.32 1177.44C77.8226 1172.42 41.4434 1166.51 -3.00024 1122.9C-47.1749 1079.11 -51.2072 1040.69 -55.329 1000.57C-58.0171 967.886 -60.974 933.677 -91.4393 899.916C-122.084 866.155 -152.908 865.618 -185.165 864.364C-225.577 863.379 -266.794 862.484 -310.969 818.514C-355.144 774.634 -355.144 732.455 -355.502 690.187C-355.323 656.336 -355.233 622.576 -388.029 591.143C-421.182 559.89 -455.68 559.352 -489.819 558.726C-531.664 557.382 -572.434 555.591 -615.891 511.263C-659.797 466.935 -663.023 427.891 -665.801 390.279C-668.758 360.817 -670.819 332.966 -704.51 302.519C-738.559 272.161 -771.354 266.251 -802.178 260.967C-840.17 253.893 -876.012 247.087 -919.559 202.759C-963.286 158.431 -971.888 124.849 -978.967 93.4165C-985.418 68.3422 -989.719 46.5812 -1023.41 16.2232C-1016.06 13.8949 -1008.72 11.477 -1001.01 9.14869L-1000.83 9.32779ZM-922.337 -2.04523C-875.385 32.7007 -873.592 52.9393 -871.084 75.3272C-869.292 94.4912 -867.141 114.998 -832.823 144.013C-798.594 172.849 -764.007 180.729 -729.24 188.341C-685.962 196.49 -641.697 204.102 -594.476 238.758C-547.344 273.236 -546.448 302.877 -545.284 334.399C-544.567 360.638 -543.671 387.861 -509.621 417.234C-475.572 446.607 -439.909 447.413 -404.605 448.309C-360.699 448.309 -316.704 447.771 -272.171 485.114C-228.892 523.711 -230.326 563.651 -231.401 605.024C-232.118 638.874 -232.386 672.904 -201.921 705.679C-171.545 738.724 -140.811 739.082 -110.615 738.992C-74.4146 738.813 -39.6482 739.172 -4.43384 785.828C30.3325 832.932 33.2894 877.17 36.9631 921.409C40.8162 956.96 45.2068 991.527 73.9697 1026.18C103.091 1060.39 127.015 1062.18 149.506 1063.62C176.297 1065.23 201.476 1067.02 235.974 1114.12C270.74 1161.23 282.837 1204.39 295.65 1247.29C307.119 1281.76 318.499 1315.08 347.62 1349.11C345.111 1356.81 342.782 1364.33 340.542 1371.49C299.413 1325.82 286.779 1286.15 274.235 1244.96C263.751 1210.66 254.074 1176.09 227.282 1141.53C200.49 1106.78 179.523 1105.17 157.929 1103.56C128.628 1101.23 97.6251 1097.91 56.7657 1051.97C16.3544 1005.68 11.5156 963.587 7.125 920.424C4.16809 884.782 1.65918 849.23 -25.1323 814.753C-52.3719 780.455 -80.7765 780.007 -109.987 779.649C-147.89 779.38 -186.599 779.022 -228.444 733.978C-271.006 689.65 -270.558 647.471 -270.289 605.74C-269.662 572.695 -268.676 540.188 -300.933 510.995C-333.639 482.159 -369.481 482.696 -404.784 482.607C-447.974 481.622 -491.521 480.368 -536.95 439.443C-582.917 398.518 -584.53 363.235 -586.322 330.101C-587.308 304.758 -588.204 280.31 -622.881 253.445C-657.647 226.579 -693.04 220.579 -727.717 213.684C-769.741 205.266 -810.959 196.759 -856.926 156.102C-903.072 115.267 -907.284 88.0435 -910.957 62.9691C-913.018 44.7006 -914.9 27.3276 -949.218 0.462204C-940.706 -0.522861 -932.104 -1.77658 -922.427 -2.04523H-922.337ZM-834.077 -3.83626C-787.035 25.3575 -787.393 41.1185 -786.497 59.1184C-785.781 74.8794 -784.885 91.2673 -750.118 116.431C-715.173 141.327 -679.152 148.849 -643.131 155.297C-598.239 162.102 -552.273 168.281 -504.783 197.117C-457.203 225.684 -457.472 251.743 -457.024 279.594C-456.755 303.146 -456.307 327.593 -421.809 353.116C-387.312 378.727 -351.201 378.279 -315.628 377.742C-271.275 375.951 -226.831 372.996 -183.642 406.22C-142.066 440.965 -144.754 479.473 -146.994 519.502C-148.786 552.636 -150.13 586.397 -122.263 618.367C-94.7546 650.874 -65.8126 650.337 -37.8561 649.889C-4.25464 649.441 27.3756 648.993 57.3033 695.56C86.5143 742.664 87.4999 788.067 89.292 833.201C91.8009 869.469 95.2059 906.006 120.116 941.02C145.295 975.945 165.635 976.214 185.258 976.841C208.107 977.736 229.164 977.826 257.748 1025.47C286.779 1072.75 298.069 1118.15 310.076 1162.39C320.65 1198.3 332.208 1234.39 357.387 1269.23C357.118 1278.54 356.67 1287.76 355.416 1296.81C319.485 1249.79 305.506 1206 292.514 1161.85C282.747 1125.76 273.966 1089.77 251.117 1054.84C228.447 1019.92 210.705 1019.2 192.157 1018.75C167.875 1017.86 141.621 1016.87 105.779 969.677C70.1167 922.483 65.9949 877.708 62.59 832.932C60.7979 796.395 60.2603 760.037 37.1425 725.381C13.7557 691.082 -12.2295 690.903 -39.021 691.351C-73.9666 691.53 -109.898 691.978 -148.159 647.292C-187.764 603.859 -186.061 561.949 -184.359 521.472C-183.194 489.502 -181.581 458.249 -212.942 431.921C-244.931 406.309 -280.414 408.19 -315.897 409.712C-360.072 409.981 -404.426 409.981 -450.841 373.623C-497.704 337.534 -498.6 306.459 -498.6 277.266C-499.496 254.878 -499.765 233.117 -534.8 210.371C-569.835 187.714 -606.214 183.147 -642.056 177.326C-686.947 168.908 -731.033 160.222 -777.985 124.401C-825.027 88.4017 -826.909 66.9093 -827.626 47.4767C-828.342 32.6112 -829.239 18.9098 -864.005 -3.92581C-854.417 -4.10492 -844.292 -3.92581 -833.988 -3.74671L-834.077 -3.83626ZM-743.219 -2.31389C-696.266 20.9695 -696.535 33.6858 -696.266 48.1035C-696.087 60.7303 -695.997 74.3421 -661.231 95.3867C-626.196 115.983 -589.369 121.804 -552.631 126.461C-507.381 131.207 -461.414 134.431 -413.745 157.267C-366.344 180.013 -366.434 203.207 -366.344 227.744C-366.344 248.788 -366.076 270.639 -331.578 291.952C-297.26 313.623 -260.97 311.385 -225.218 308.788C-181.133 304.847 -137.317 299.474 -95.2923 327.952C-55.6874 358.757 -59.1819 395.563 -62.766 433.891C-65.8126 466.309 -68.5007 499.174 -43.5012 530.159C-19.0393 561.681 7.66272 560.696 33.379 559.89C64.1133 558.815 93.1449 558.009 117.338 604.218C140.725 651.232 139.022 697.082 138.574 742.395C139.291 779.111 140.814 816.186 161.423 851.469C182.301 886.484 199.684 886.484 216.53 886.484C235.795 886.752 253.805 886.663 276.475 934.214C299.593 981.498 308.463 1027.17 318.32 1072.39C327.459 1109.2 337.585 1145.91 358.552 1180.84C358.731 1190.6 358.821 1200.54 359 1210.48C328.355 1163.47 315.542 1117.97 304.162 1072.57C296.098 1035.77 289.019 999.229 270.471 964.304C252.371 929.11 237.228 929.11 221.727 929.11C200.67 929.11 178.448 928.841 148.251 881.379C118.324 833.738 115.994 788.156 115.098 742.575C115.277 705.769 116.621 668.874 97.7148 634.396C78.45 600.098 54.9735 600.367 30.4221 601.083C-2.01453 601.979 -35.4369 602.874 -69.3071 559.084C-105.059 517.263 -102.013 476.428 -98.8765 437.204C-96.6364 406.667 -94.0378 376.668 -124.055 353.384C-154.969 330.817 -190.541 334.847 -225.666 338.071C-270.289 340.757 -315.091 342.817 -361.506 311.653C-408.637 281.027 -408.637 253.445 -408.189 227.385C-408.637 207.505 -408.817 188.61 -443.673 170.252C-478.887 151.983 -515.714 149.207 -552.273 145.356C-598.239 139.177 -643.758 131.655 -691.159 101.566C-738.47 71.2078 -738.559 53.9244 -738.29 38.1633C-738.47 26.253 -738.47 15.3277 -773.326 -2.94075C-763.469 -2.76165 -753.434 -2.49299 -743.129 -2.31389H-743.219ZM-650.837 0.0144477C-604.153 17.3874 -604.601 27.1485 -604.601 38.6111C-604.87 48.4618 -605.049 59.6557 -570.104 76.3122C-535.158 92.7001 -498.062 96.0135 -461.056 98.8792C-415.537 100.67 -369.391 101.208 -321.811 118.043C-274.231 134.7 -274.679 154.849 -274.679 176.699C-274.859 195.147 -274.679 214.4 -240.361 231.684C-206.312 248.967 -169.932 244.669 -134.18 240.102C-90.7225 233.654 -46.8165 225.863 -6.31555 249.505C31.4077 276.37 26.3899 311.205 21.5513 348.369C16.9814 379.712 13.0389 411.593 35.0815 441.055C56.049 471.592 80.8691 470.338 104.614 469.174C132.571 467.831 159.093 466.846 177.552 512.786C194.935 559.8 190.365 605.203 187.229 650.695C185.616 687.68 184.989 724.485 201.207 759.768C217.605 794.962 232.748 794.962 246.905 794.783C263.213 794.962 278.267 794.962 294.754 842.514C311.958 889.797 318.051 935.2 325.398 980.423C332.477 1017.59 340.273 1054.39 357.029 1089.05C357.297 1099.53 357.656 1109.38 357.925 1119.41C333.194 1072.39 322.89 1026.72 314.198 980.781C308.194 944.065 303.177 907.439 289.019 872.603C275.22 837.589 262.765 837.409 249.504 837.409C231.583 837.857 212.497 837.678 188.394 789.947C164.559 742.306 164.649 696.724 166.262 650.963C168.771 613.979 172.265 577.263 157.839 542.696C142.786 508.845 121.46 509.293 98.8795 510.189C69.3103 511.621 38.6656 512.875 9.27551 470.249C-22.7131 430.309 -17.9641 390.996 -13.5735 352.936C-10.3477 323.743 -6.67395 295.176 -35.3473 274.937C-65.2749 255.952 -100.489 261.863 -135.704 266.967C-179.789 272.161 -224.412 276.728 -270.468 251.206C-317.51 226.311 -317.51 201.863 -317.152 178.669C-317.331 161.296 -316.973 144.64 -352.187 130.939C-387.222 117.058 -424.408 116.342 -461.056 114.551C-507.023 111.327 -552.81 106.401 -600.3 82.3122C-647.701 57.8646 -647.611 43.7155 -646.984 30.9097C-646.984 21.5068 -646.536 13.2681 -681.302 -0.791515C-671.446 -0.522861 -661.41 -0.164655 -650.927 -0.0751038L-650.837 0.0144477ZM-559.172 2.25323C-512.309 13.6263 -512.488 20.7008 -512.937 29.2082C-512.937 36.9992 -513.205 46.0439 -478.349 58.0437C-443.314 69.8645 -406.128 71.0287 -369.66 71.4765C-323.872 70.4914 -278.084 67.9839 -230.415 78.7301C-182.835 89.3867 -183.015 106.76 -183.104 125.476C-183.283 141.864 -183.104 158.789 -148.965 171.774C-115.274 184.848 -78.9844 178.401 -43.322 171.326C-0.0432129 162.461 42.9667 152.341 82.4821 171.147C117.965 193.983 112.051 227.385 105.779 262.758C99.8652 293.116 94.5786 323.922 113.306 352.22C131.137 381.593 153.717 380.25 175.491 378.727C201.297 377.115 225.042 375.503 237.497 421.354C249.325 468.01 241.798 513.771 235.705 558.994C231.762 595.979 228.626 632.784 240.275 668.157C252.461 703.082 265.364 703.082 277.102 703.172C290.542 703.441 302.729 703.351 313.302 750.813C324.502 797.917 327.549 843.499 332.029 888.901C336.778 925.707 342.154 962.423 354.699 996.9C354.878 1007.2 355.147 1017.05 355.416 1027.08C336.599 980.065 329.162 934.662 323.427 889.349C319.753 852.544 316.976 815.828 307.209 781.082C297.89 745.888 287.765 745.888 276.833 746.067C261.78 746.246 245.561 745.888 227.372 698.336C209.54 650.605 212.766 604.934 217.515 559.531C222.175 522.547 227.999 485.741 217.784 451.353C206.852 417.772 187.856 418.309 167.696 419.384C140.277 421.175 112.141 422.607 87.5895 381.503C59.7227 343.534 66.0845 305.295 72.2672 268.937C76.1201 241.266 80.7795 213.863 53.2711 196.848C24.6875 180.908 -10.2581 189.057 -44.8452 196.132C-88.9304 203.923 -133.105 210.997 -178.893 191.386C-225.756 172.222 -225.756 150.729 -225.128 130.401C-225.397 115.357 -225.397 101.028 -260.522 91.6255C-295.736 82.3122 -332.653 84.1032 -369.122 84.551C-415.358 84.1032 -461.056 82.3122 -508.456 64.2228C-555.767 45.6857 -555.588 34.3126 -555.05 24.5515C-555.23 17.477 -554.871 11.2979 -589.548 1.53682C-579.691 1.80548 -569.656 2.16368 -559.351 2.25323H-559.172ZM-467.955 3.4174C-421.272 9.05914 -421.092 13.6263 -421.092 19.5366C-421.272 25.2679 -421.361 31.8947 -386.595 39.5962C-351.649 47.1185 -314.553 45.9543 -277.905 43.7155C-232.207 39.5962 -186.688 34.1335 -139.109 38.9693C-91.3497 43.5364 -91.3498 58.3124 -91.529 74.3421C-91.529 88.4912 -91.5289 103.178 -57.4794 111.595C-23.7883 120.551 12.3221 111.864 47.7158 102.73C90.5465 91.2673 133.288 78.3719 171.459 92.7001C205.06 111.595 198.161 143.118 190.007 177.237C182.928 206.609 176.118 236.609 191.799 263.475C206.404 291.594 226.834 289.982 246.726 288.191C270.023 285.952 291.08 284.967 298.159 330.369C304.073 376.936 293.589 422.16 284.36 467.562C278.177 504.278 272.891 541.084 280.059 576.546C287.586 611.65 298.159 611.65 307.746 611.65C318.678 611.919 328.087 612.367 332.836 660.098C338.122 707.291 338.033 752.156 339.466 797.111C341.527 833.917 344.753 870.633 352.907 905.11C353.086 915.409 353.355 925.259 353.534 935.2C340.721 888.364 336.42 842.783 333.373 797.29C332.029 760.933 331.76 724.396 326.474 689.56C321.635 654.366 313.66 654.366 304.969 653.919C292.783 654.366 279.521 653.919 267.245 606.456C255.328 558.726 261.511 513.144 268.858 467.652C276.206 430.846 284.36 394.13 278.446 359.921C271.815 326.519 254.88 327.235 236.601 328.131C211.96 330.369 186.064 332.429 166.172 292.579C142.427 256.49 150.671 219.505 157.929 184.58C163.126 158.073 168.591 132.282 142.427 118.222C114.829 105.685 80.4213 115.715 45.7445 124.849C2.5553 135.147 -41.7987 144.998 -87.3176 131.028C-134.001 117.954 -133.732 99.0583 -133.553 81.8644C-133.553 68.8795 -133.732 56.9691 -168.768 51.7751C-203.982 46.9394 -240.988 51.1483 -277.457 54.1035C-323.245 56.6109 -369.212 57.6855 -416.702 45.5961C-463.833 33.0589 -463.565 24.5515 -463.117 17.477C-463.296 12.4621 -463.117 8.52183 -497.704 3.2383C-487.847 3.4174 -477.991 3.4174 -467.776 3.4174H-467.955Z" stroke="#403730" stroke-opacity="0.12" stroke-width="3" mask="url(#path-1-inside-1_25_459)"/>
</svg>
