<svg width="32" height="32" viewBox="0 0 32 32" fill="none" xmlns="http://www.w3.org/2000/svg">
<path d="M15.9998 0L13.9185 1.4301L11.4419 0.906842L10.0582 3.02325L7.58164 3.48836L7.11653 5.96497L5.00012 7.34862L5.51169 9.82522L4.09296 11.9065L5.51169 13.9996L5.00012 16.4648L7.11653 17.8485L7.58164 20.3251L10.0582 20.8019L11.4419 22.9066L13.9185 22.395L15.9998 23.8137L18.0812 22.395L20.5578 22.9066L21.9414 20.8019L24.418 20.3251L24.8831 17.8485L26.9995 16.4648L26.488 13.9996L27.9067 11.9065L26.488 9.82522L26.9995 7.34862L24.8831 5.96497L24.418 3.48836L21.9414 3.02325L20.5578 0.906842L18.0812 1.4301L15.9998 0ZM15.9998 3.72092C20.5209 3.72092 24.1859 7.38603 24.1859 11.9069C24.1859 16.4281 20.5207 20.093 15.9998 20.093C11.4787 20.093 7.8138 16.4279 7.8138 11.9069C7.8138 7.38583 11.4789 3.72092 15.9998 3.72092V3.72092ZM20.4184 7.70915L19.6509 8.5231L14.8137 13.6858L12.2789 11.4301L11.4416 10.686L9.95333 12.3603L10.7907 13.0927L14.1394 16.0695L14.9533 16.7906L15.6974 16L21.2788 10.0464L22.0463 9.23247L20.4184 7.70915ZM6.25567 18.1742L0 27.9071L5.58138 26.7908L7.06962 31.9999L12.1625 23.5116L11.5928 23.6278C11.3023 23.6917 10.9787 23.5611 10.8136 23.3138L9.60435 21.465L7.4415 21.0464C7.14976 20.9911 6.9037 20.745 6.84842 20.4533L6.42976 18.2904L6.25535 18.1742L6.25567 18.1742ZM25.744 18.1742L25.5696 18.2905L25.1509 20.4534C25.0956 20.7451 24.8496 20.9912 24.5578 21.0464L22.395 21.4651L21.1858 23.3139C21.0207 23.5612 20.697 23.6915 20.4066 23.6279L19.8368 23.5116L24.9297 32L26.418 26.7908L31.9993 27.9072L25.7437 18.1743L25.744 18.1742Z" fill="#E83C38"/>
</svg>
