<svg width="32" height="27" viewBox="0 0 32 27" fill="none" xmlns="http://www.w3.org/2000/svg">
<path d="M30.6184 0H12.2268C11.4521 0 10.8457 0.606196 10.8457 1.38111V5.49059H19.772C21.6583 5.49059 23.2079 7.04019 23.2079 8.92644V14.3832H26.7448L30.4163 19.0317C30.9553 19.7053 31.9995 19.3348 31.9995 18.4591V1.3812C31.9995 0.606527 31.3933 9.04055e-05 30.6183 9.04055e-05L30.6184 0Z" fill="#E83C38"/>
<path d="M19.7727 7.54492H1.38111C0.606436 7.54492 0 8.15112 0 8.92604V26.0039C0 26.846 1.07802 27.2166 1.58316 26.5429L5.25468 21.8945H19.7389C20.5136 21.8945 21.12 21.2883 21.12 20.5133V8.89229C21.1536 8.15123 20.5136 7.54504 19.7725 7.54504L19.7727 7.54492ZM4.98533 16.4039C4.04217 16.4039 3.26749 15.6292 3.26749 14.686C3.26749 13.7429 4.04217 12.9682 4.98533 12.9682C5.92849 12.9682 6.70316 13.7429 6.70316 14.686C6.66956 15.6628 5.92849 16.4039 4.98533 16.4039ZM10.577 16.4039C9.63381 16.4039 8.85913 15.6292 8.85913 14.686C8.85913 13.7429 9.63381 12.9682 10.577 12.9682C11.5201 12.9682 12.2948 13.7429 12.2948 14.686C12.2948 15.6628 11.5201 16.4039 10.577 16.4039ZM16.1686 16.4039C15.2255 16.4039 14.4508 15.6292 14.4508 14.686C14.4508 13.7429 15.2255 12.9682 16.1686 12.9682C17.1118 12.9682 17.8864 13.7429 17.8864 14.686C17.8864 15.6628 17.1118 16.4039 16.1686 16.4039Z" fill="#E83C38"/>
</svg>
