<svg width="54" height="54" fill="none" xmlns="http://www.w3.org/2000/svg"><g clip-path="url(#clip0)"><path d="M52.757 44.389a.776.776 0 00-.776.776v5.187a.13.13 0 01-.131.131H48.9V39.14a.776.776 0 10-1.553 0v11.343h-5.7l1.542-1.697a1.241 1.241 0 00.297-1.02L41.752 37.52l.319-.48.083.058a1.214 1.214 0 001.791-.447l1.765-3.538 4.032 1.561c.159.07 2.238 1.023 2.238 3.504v3.365a.776.776 0 001.553 0v-3.365c0-3.583-3.073-4.887-3.204-4.94a.304.304 0 00-.014-.007l-6.865-2.658v-1.414a5.67 5.67 0 002.05-3.521 2.71 2.71 0 001.441-.635 2.669 2.669 0 00.326-3.717V19.19c0-4.1-3.335-7.435-7.435-7.435a7.4 7.4 0 00-4.825 1.785 2.668 2.668 0 00-.601-1.615V9.83c0-4.1-3.336-7.435-7.435-7.435-4.1 0-7.436 3.335-7.436 7.435v2.15a2.533 2.533 0 00-.6 1.554A7.4 7.4 0 0016.007 12a.776.776 0 10-.396 1.502 5.884 5.884 0 014.38 5.688v1.161a6.443 6.443 0 00-.145-.026.895.895 0 00-.186-.525c-.198-.285-.555-.641-1.703-1.875-.41-.44-1.07-.52-1.573-.192-1.966 1.284-4.355 1.94-6.572 1.809-.722-.042-1.173.275-1.366.795l-.22.044V19.19a5.92 5.92 0 014.184-5.632.776.776 0 10-.448-1.487 7.494 7.494 0 00-3.791 2.645 7.368 7.368 0 00-1.497 4.474v2.15a2.53 2.53 0 00-.603 1.636c0 1.33.98 2.488 2.375 2.661a5.735 5.735 0 002.163 3.612v1.323l-6.857 2.659-.015.005c-.13.054-3.204 1.358-3.204 4.941v12.175c0 .929.755 1.684 1.684 1.684h23.909c.334 0 .645-.1.907-.268.262.169.573.268.908.268H51.85c.928 0 1.683-.755 1.683-1.684v-5.187a.776.776 0 00-.776-.776zM8.37 24.032a1.12 1.12 0 01-.746-1.057c0-.457.33-.832.746-1.01v2.067zm35.886 8.516l-1.524 3.054-1.717-1.22 1.906-2.351 1.335.517zm-4.363.753l-2.008-2.478v-.745a6.25 6.25 0 002.018.33c.684 0 1.377-.13 1.994-.362v.782l-2.004 2.473zm.911 2.837l-.285.43h-1.252l-.285-.43.911-.647.911.647zM27.031 23.942l-2.008-2.478v-.745a6.25 6.25 0 002.018.33c.683 0 1.376-.13 1.994-.362v.781l-2.004 2.474zm.912 2.837l-.286.43h-1.252l-.285-.43.911-.647.912.647zm-7.026-10.576c.127.034.258.058.39.074a5.735 5.735 0 002.164 3.612v1.323l-1.584.614a2.655 2.655 0 00-.343-.541V19.19a7.418 7.418 0 00-.627-2.987zm10.24-.822a4.123 4.123 0 01-4.116 4.115c-2.551 0-4.257-1.978-4.257-4.115v-3.637c2.452.098 4.999-.629 7.08-1.925.7.751 1.117 1.187 1.293 1.39v4.172zm1.481.896a2.81 2.81 0 00.388-.075 7.39 7.39 0 00-.63 2.988v2.15a2.71 2.71 0 00-.306.453l-1.502-.581v-1.414a5.67 5.67 0 002.05-3.521zm-8.637 6.396l1.906 2.353-1.3.923-.002.001-.413.293-1.524-3.054 1.333-.516zm4.817 1.53l1.24-1.531 1.336.517-1.524 3.054-.413-.293-.001-.001-1.302-.925.664-.82zm.391 3.476l.084.059a1.214 1.214 0 001.79-.448l1.31-2.627a2.725 2.725 0 001.773.976 5.644 5.644 0 002.166 3.61v1.323l-6.6 2.559-.842-4.972.32-.48zm7.653 4.354l1.906 2.352c-.833.593-1.67 1.188-1.714 1.218L35.53 32.55l1.332-.516zm7.156-7.292c0 2.217-1.8 4.115-4.115 4.115-2.639 0-4.257-2.067-4.257-4.115v-3.637c2.434.097 4.984-.62 7.08-1.924.7.75 1.117 1.186 1.293 1.389v4.172zm2.3-1.765c0 .472-.292.892-.746 1.057v-2.112c.47.171.745.6.745 1.055zM33.95 19.19a5.89 5.89 0 015.882-5.883 5.889 5.889 0 015.882 5.883v1.161a5.219 5.219 0 00-.145-.026.893.893 0 00-.186-.525c-.204-.293-.556-.643-1.703-1.875-.4-.43-1.06-.527-1.573-.192-1.913 1.25-4.33 1.956-6.63 1.806-.646-.042-1.114.274-1.307.798l-.22.044V19.19zm.143 2.776v2.066a1.118 1.118 0 01-.746-1.056c0-.457.331-.832.746-1.01zm-.637-8.35a1.117 1.117 0 01-.746 1.057V12.56c.464.168.746.595.746 1.055zM26.97 3.948a5.889 5.889 0 015.883 5.882v1.161a6.007 6.007 0 00-.146-.026c-.011-.238-.08-.384-.22-.573-.207-.281-.59-.668-1.669-1.827a1.228 1.228 0 00-1.573-.192c-2.02 1.32-4.47 1.962-6.692 1.803a1.234 1.234 0 00-1.245.8l-.22.045V9.83a5.89 5.89 0 015.882-5.882zm-5.739 8.657v2.068a1.12 1.12 0 01-.746-1.057c0-.454.329-.831.746-1.01zm-1.383 9.316c.434.158.713.537.74.987.036.501-.272.954-.74 1.124v-2.111zm-.072 3.718a2.723 2.723 0 001.845-1.071l1.358 2.721a1.213 1.213 0 001.791.448l.083-.058.32.48-.842 4.97-6.605-2.557v-1.414a5.675 5.675 0 002.05-3.519zm-5.607 7.663l-2.008-2.478v-.745a6.26 6.26 0 002.018.33c.695 0 1.386-.133 1.994-.362v.782l-2.004 2.473zm.912 2.837l-.286.43h-1.251l-.286-.43.912-.647.91.647zm2.116-4.107l1.335.517-1.524 3.054-.413-.293-.001-.001-1.302-.925 1.905-2.352zM9.922 24.74v-3.637c2.465.098 5.013-.638 7.08-1.924.694.743 1.117 1.186 1.293 1.389v4.172a4.124 4.124 0 01-4.116 4.115c-2.532 0-4.257-1.955-4.257-4.115zm1.217 7.292l1.906 2.352-1.3.924-.002.001-.412.293-1.524-3.054 1.332-.516zm-4.42 18.45V39.14a.776.776 0 10-1.552 0v11.343h-2.95a.13.13 0 01-.131-.13V38.176c0-2.494 2.101-3.444 2.237-3.503l4.029-1.562 1.765 3.537a1.213 1.213 0 001.791.448l.083-.059.32.48-1.735 10.248-.004.024c-.05.361.063.733.301.996l1.543 1.697H6.72zm5.415-2.618l1.65-9.743h.771l1.65 9.743-2.035 2.238-2.036-2.238zm14.123 2.487a.13.13 0 01-.131.131h-2.95V39.14a.776.776 0 10-1.553 0v11.343h-5.7l1.543-1.697a1.241 1.241 0 00.297-1.02L16.028 37.52l.32-.48.083.058a1.214 1.214 0 001.79-.447l1.766-3.538 4.031 1.562c1.175.51 2.239 1.829 2.239 3.503v12.175zm.776-14.996a5.531 5.531 0 00-1.266-1.407l.878-5.187h.772l.879 5.19a5.51 5.51 0 00-1.263 1.404zm5.41 15.127V39.14a.776.776 0 10-1.553 0v11.343h-2.95a.131.131 0 01-.13-.13V38.176c0-.923.289-1.773.906-2.487.41-.472.956-.853 1.33-1.016l4.03-1.562 1.765 3.537a1.213 1.213 0 001.79.448l.084-.059.32.48-1.735 10.25-.004.024c-.05.361.063.733.3.996l1.544 1.697h-5.697zm5.415-2.618l1.649-9.743h.772l1.65 9.743-2.036 2.238-2.035-2.238z" fill="#000"/></g><defs><clipPath id="clip0"><path fill="#fff" transform="translate(.533 .715)" d="M0 0h53v53H0z"/></clipPath></defs></svg>