<svg width="41" height="39" fill="none" xmlns="http://www.w3.org/2000/svg"><g clip-path="url(#clip0)" fill="#000"><path d="M40.91 37.68L36.223 1.165c-.048-.373-.381-.653-.776-.653H6.385c-.395 0-.728.28-.776.653L.922 37.68a.718.718 0 00.19.582.8.8 0 00.585.25h38.438a.8.8 0 00.585-.25.718.718 0 00.19-.582zM21.19 1.997v2.968h-1.563V1.997h1.563zm-14.113 0h1.639L7.3 16.117c-.041.408.274.77.703.81l.075.003c.399 0 .739-.288.777-.672l1.43-14.261h7.779v3.71c0 .41.35.743.781.743h3.125c.431 0 .781-.333.781-.742V1.997h8.795l3.51 35.03H6.775l1.415-14.12c.04-.408-.274-.77-.704-.809-.43-.038-.81.26-.851.669l-1.43 14.26H2.58l4.497-35.03zm29.55 35.03l-3.51-35.03h1.638l4.497 35.03h-2.626z"/><path d="M18.846 19.81h3.125c.431 0 .781-.333.781-.743v-8.906c0-.41-.35-.742-.781-.742h-3.125c-.432 0-.782.332-.782.742v8.906c0 .41.35.742.782.742zm.781-8.907h1.563v7.422h-1.563v-7.422zm-.781 23.75h3.125c.431 0 .781-.332.781-.742v-10.39c0-.41-.35-.743-.781-.743h-3.125c-.432 0-.782.332-.782.742v10.391c0 .41.35.742.782.742zm.781-10.39h1.563v8.906h-1.563v-8.906zM7.746 20.254c.432 0 .782-.332.782-.742s-.35-.742-.782-.742c-.432 0-.781.332-.781.742s.35.742.781.742z"/></g><defs><clipPath id="clip0"><path fill="#fff" transform="translate(.916 .512)" d="M0 0h40v38H0z"/></clipPath></defs></svg>