<svg width="59" height="57" fill="none" xmlns="http://www.w3.org/2000/svg"><g clip-path="url(#clip0)" fill="#000"><path d="M9.115 42.372c-1.774 0-3.217 1.393-3.217 3.106 0 1.713 1.443 3.107 3.217 3.107 1.773 0 3.216-1.394 3.216-3.107 0-1.713-1.443-3.106-3.216-3.106zm0 4.572c-.837 0-1.517-.658-1.517-1.466 0-.808.68-1.465 1.517-1.465.836 0 1.517.657 1.517 1.465s-.68 1.466-1.517 1.466zM44.9 48.585c1.773 0 3.216-1.394 3.216-3.107 0-1.713-1.443-3.106-3.216-3.106-1.773 0-3.216 1.393-3.216 3.106 0 1.713 1.443 3.107 3.216 3.107zm0-4.573c.837 0 1.517.658 1.517 1.466 0 .808-.68 1.466-1.517 1.466-.837 0-1.517-.658-1.517-1.466 0-.808.68-1.466 1.517-1.466zm-32.063-.444a.797.797 0 00-.127.73 3.851 3.851 0 010 2.36.798.798 0 00.127.73.86.86 0 00.684.334h26.972a.86.86 0 00.684-.334.798.798 0 00.127-.73 3.851 3.851 0 010-2.36.798.798 0 00-.127-.73.86.86 0 00-.684-.333H13.52a.86.86 0 00-.684.333zm1.724 1.307h24.893a5.479 5.479 0 000 1.206H14.56a5.478 5.478 0 000-1.206zm8.916-13.65c-.47 0-.85.367-.85.82 0 .454.38.82.85.82h1.977c.47 0 .85-.366.85-.82 0-.453-.38-.82-.85-.82h-1.977zM5.595 34.154c.315 0 .617-.17.764-.46l2.006-3.967a.808.808 0 00-.39-1.097.863.863 0 00-1.137.377l-2.006 3.966a.808.808 0 00.391 1.097.87.87 0 00.372.084zm4.018 0c.314 0 .617-.17.764-.46l2.006-3.967a.808.808 0 00-.39-1.097.863.863 0 00-1.137.378L8.85 32.972a.808.808 0 00.39 1.097.87.87 0 00.373.084zm4.019 0c.315 0 .617-.17.764-.46l2.006-3.967a.808.808 0 00-.39-1.097.863.863 0 00-1.136.378l-2.006 3.965a.808.808 0 00.39 1.097.87.87 0 00.372.084z"/><path d="M58.45 29.48l-2.095-4.68a.844.844 0 00-.036-.07l-3.582-8.262a.86.86 0 00-1.111-.44.81.81 0 00-.456 1.073l3.293 7.595-1.125.47-7.525-13.949-.166-.309-.996-1.845-.002-.006a1.356 1.356 0 01-.063-.135l-.016-.046a1.305 1.305 0 01-.033-.1l-.011-.049a1.265 1.265 0 01-.033-.267 1.314 1.314 0 01.084-.488 1.36 1.36 0 01.784-.788c.71-.282 1.529.045 1.825.73l2.66 6.133a.86.86 0 001.111.44.81.81 0 00.456-1.074l-2.66-6.133c-.655-1.514-2.468-2.238-4.039-1.613a3.05 3.05 0 00-1.733 1.742 2.9 2.9 0 00-.132.46l-12.92 5.133a4.97 4.97 0 00-.673-.046h-3.44c-1.214 0-2.202.954-2.202 2.127v3.523h-2.28c-1.084 0-1.966.851-1.966 1.898v4.66c0 .14-.119.256-.265.256H2.724c-1.083 0-1.964.851-1.964 1.898v1.99c0 .453.38.82.85.82.469 0 .849-.367.849-.82v-1.99c0-.142.12-.257.266-.257h16.379c1.083 0 1.965-.851 1.965-1.898v-4.66c0-.14.119-.256.265-.256h12.441c.124 0 .235.067.29.175l2.582 5.11c.074.146.113.31.113.472v9.938a.318.318 0 01-.322.312H2.725a.262.262 0 01-.266-.257v-3.384c0-.453-.38-.82-.85-.82-.469 0-.85.367-.85.82v3.384c0 1.046.882 1.898 1.966 1.898h14.958v1.792H8.316c-3.307 0-5.998 2.598-5.998 5.793 0 3.194 2.69 5.791 5.998 5.791h37.382c3.308 0 5.998-2.597 5.998-5.793 0-3.193-2.69-5.791-5.998-5.791H35.356v-1.792h1.082c1.114 0 2.021-.876 2.021-1.953v-9.938c0-.41-.098-.822-.285-1.191l-2.583-5.11a2.033 2.033 0 00-1.553-1.08v-.419l10.665-5.494 7.071 13.108-7.976 3.328c-.54.225-.878.718-.883 1.286-.005.559.333 1.07.861 1.3l7.68 3.35a3.874 3.874 0 001.559.325c.52 0 1.025-.1 1.502-.3l1.957-.817c1.917-.8 2.803-2.957 1.975-4.809zm-39.067 8.414h14.274v1.792H19.383v-1.792zm26.315 3.433c2.37 0 4.3 1.861 4.3 4.153 0 2.288-1.93 4.15-4.3 4.15H8.316c-2.37 0-4.299-1.862-4.299-4.153 0-2.288 1.928-4.15 4.299-4.15h37.382zm-13.36-23.754v1.033h-7.023v-3.524c0-.268.225-.487.503-.487h3.439a3.19 3.19 0 01.84.114l.052.014a3.13 3.13 0 01.451.17l.069.034a2.933 2.933 0 01.363.214l.06.042c.054.038.106.079.157.12l.05.043c.053.045.104.091.153.14l.033.033c.053.054.105.109.153.166l.002.003c.054.063.105.129.153.196l.003.004a2.97 2.97 0 01.492 1.151l.005.026c.013.077.024.155.032.233l.002.032c.007.08.011.16.011.242zm1.55-1.152a4.543 4.543 0 00-.871-1.696l-.03-.037a4.508 4.508 0 00-.3-.328l-.07-.07a4.269 4.269 0 00-.115-.105l-.037-.034a4.758 4.758 0 00-.318-.256l10.88-4.322a2.9 2.9 0 00.118.246l.774 1.435-10.031 5.167zM55.8 32.784l-1.957.816a2.165 2.165 0 01-1.688-.013l-7.194-3.14 8.259-3.446a.871.871 0 00.07-.025l1.843-.772 1.756 3.927c.457 1.021-.032 2.211-1.089 2.653z"/><path d="M34.225 30.132c.603 0 1.093-.474 1.093-1.056v-2.833c0-.159-.037-.319-.11-.463l-1.964-3.885a1.104 1.104 0 00-.982-.593h-8.679c-.602 0-1.093.474-1.093 1.056v3.859c0 .28.118.553.325.75l2.997 2.86c.206.196.479.305.768.305h7.645zm-10.036-4.16v-3.03h7.694l1.736 3.436v2.113h-6.79l-2.64-2.518z"/></g><defs><clipPath id="clip0"><path fill="#fff" transform="translate(.76 .356)" d="M0 0h58v56H0z"/></clipPath></defs></svg>