<svg width="58" height="57" fill="none" xmlns="http://www.w3.org/2000/svg"><path d="M17.274 5.06a3.487 3.487 0 00-2.438.994 3.365 3.365 0 00-1.012 2.396c0 .203.082.398.229.541a.786.786 0 001.102 0 .759.759 0 00.228-.541c0-.493.2-.966.555-1.315a1.912 1.912 0 011.337-.545h5.072c.207 0 .405-.08.551-.224a.759.759 0 000-1.083.786.786 0 00-.55-.224h-5.073zm9.741 0h-1.38a.787.787 0 00-.551.223.759.759 0 000 1.083.787.787 0 00.55.224h1.381c.207 0 .405-.08.551-.224a.759.759 0 000-1.083.787.787 0 00-.55-.224zm-4.279-1.095h4.28c.206 0 .404-.08.55-.224a.759.759 0 000-1.083.787.787 0 00-.55-.224h-4.28a.786.786 0 00-.55.224.759.759 0 000 1.083.786.786 0 00.55.224z" fill="#000"/><path d="M11.93 9.215a.791.791 0 00.553-.223.764.764 0 00.228-.542 4.45 4.45 0 011.338-3.17 4.61 4.61 0 013.226-1.315h2.057c.206 0 .405-.08.55-.224a.759.759 0 000-1.083.787.787 0 00-.55-.224h-2.058a6.186 6.186 0 00-4.327 1.764 5.97 5.97 0 00-1.795 4.252.754.754 0 00.228.54.78.78 0 00.55.225zM37.547 5.06a3.487 3.487 0 00-2.44.993 3.365 3.365 0 00-1.011 2.397c0 .203.082.398.228.541a.786.786 0 001.102 0 .759.759 0 00.228-.541c0-.493.2-.966.555-1.315a1.912 1.912 0 011.338-.545h2.35c.206 0 .405-.08.55-.224a.759.759 0 000-1.083.786.786 0 00-.55-.224h-2.35zm4.855.765a.755.755 0 00.228.541.78.78 0 00.552.224h4.107c.206 0 .405-.08.55-.224a.76.76 0 000-1.083.786.786 0 00-.55-.224h-4.107a.791.791 0 00-.552.224.765.765 0 00-.228.542zm3.813-1.86h1.073c.207 0 .405-.08.552-.224a.759.759 0 000-1.083.786.786 0 00-.552-.224h-1.073a.786.786 0 00-.551.224.76.76 0 000 1.083.786.786 0 00.55.224z" fill="#000"/><path d="M32.203 9.215c.207 0 .405-.08.551-.224a.759.759 0 00.228-.541 4.45 4.45 0 011.339-3.17 4.61 4.61 0 013.226-1.315h4.381c.207 0 .405-.08.551-.224a.759.759 0 000-1.083.787.787 0 00-.55-.224h-4.382a6.186 6.186 0 00-4.328 1.764 5.97 5.97 0 00-1.795 4.252.755.755 0 00.228.541.781.781 0 00.551.224zM49.36 27.802a.787.787 0 00-.552.225.76.76 0 00-.228.541v2.625c0 .203.082.398.228.541a.786.786 0 001.102 0 .759.759 0 00.229-.54v-2.626a.759.759 0 00-.229-.541.787.787 0 00-.55-.225z" fill="#000"/><path d="M54.703 50.122H52.81v-27.17l1.986-.234a.782.782 0 00.508-.292.756.756 0 00-.13-1.062.789.789 0 00-.564-.166l-15.872 1.874-.428-8.81a.775.775 0 00.336-.281.755.755 0 00.125-.416V10.94a.76.76 0 00-.228-.541.787.787 0 00-.551-.225h-8.906a.786.786 0 00-.551.225.758.758 0 00-.229.54v2.626a.762.762 0 00.463.7l-.485 10.043-9.705 1.145-.54-11.192a.774.774 0 00.335-.281.753.753 0 00.125-.415V10.94a.759.759 0 00-.228-.541.787.787 0 00-.551-.225H8.814a.786.786 0 00-.551.225.759.759 0 00-.229.54v2.626c0 .148.044.294.127.418.082.124.2.222.338.282L7.077 43.559h-.592c-.2 0-.393.076-.538.212a.76.76 0 00-.24.517l-.286 5.834H3.492a.791.791 0 00-.551.224.764.764 0 00-.228.541v2.625a.754.754 0 00.228.542.781.781 0 00.551.224h51.211a.791.791 0 00.551-.224.763.763 0 00.228-.542v-2.625a.752.752 0 00-.228-.541.78.78 0 00-.55-.224zm-7.824 0v-7.985a.759.759 0 00-.228-.541.786.786 0 00-.55-.224h-5.345a.791.791 0 00-.55.224.763.763 0 00-.229.541v7.985h-1.202v-7.985a.759.759 0 00-.228-.541.786.786 0 00-.552-.224h-5.343a.791.791 0 00-.552.224.763.763 0 00-.228.541v7.985H14.046V27.53l37.206-4.393v26.985h-4.373zm-1.558 0h-3.785v-7.22h3.785v7.22zm-8.105 0h-3.785v-7.22h3.785v7.22zm-7.348-38.416h7.348v1.093h-7.348v-1.093zm.462 2.625h6.424l.432 8.925-7.331.865.475-9.79zM9.596 11.706h7.345v1.093H9.593l.003-1.093zm.463 2.625h6.423l.545 11.305-6.526.77a.783.783 0 00-.504.27.757.757 0 00.063 1.047.787.787 0 00.627.204l1.8-.213V43.56h-3.85l1.422-29.228zM7.227 45.09h5.26v5.03H6.983l.245-5.03zm46.697 7.656H4.27v-1.094h49.653v1.094z" fill="#000"/><path d="M27.516 38.82h-8.907a.786.786 0 00-.55.224.759.759 0 000 1.083.786.786 0 00.55.224h8.907c.206 0 .405-.08.55-.224a.759.759 0 000-1.083.786.786 0 00-.55-.224zm0-5.25h-8.907a.786.786 0 00-.55.224.759.759 0 000 1.083.786.786 0 00.55.224h8.907c.206 0 .405-.08.55-.224a.759.759 0 000-1.083.786.786 0 00-.55-.224zm0 2.625h-8.907a.786.786 0 00-.55.224.759.759 0 000 1.083.786.786 0 00.55.224h8.907c.206 0 .405-.08.55-.224a.759.759 0 000-1.083.786.786 0 00-.55-.224zm9.142-1.313h-2.672a.791.791 0 00-.55.224.765.765 0 00-.229.542v2.625a.756.756 0 00.228.541.78.78 0 00.551.224h2.672c.207 0 .405-.08.551-.224a.759.759 0 00.228-.541v-2.625a.759.759 0 00-.228-.542.786.786 0 00-.55-.224zm-.78 2.625h-1.112v-1.094h1.113v1.094zm8.886-2.625h-2.672a.791.791 0 00-.551.224.763.763 0 00-.228.542v2.625a.754.754 0 00.228.541.78.78 0 00.55.224h2.673c.206 0 .405-.08.55-.224a.759.759 0 00.229-.541v-2.625a.759.759 0 00-.228-.542.786.786 0 00-.551-.224zm-.78 2.625h-1.113v-1.094h1.113v1.094z" fill="#000"/></svg>