<svg width="146" height="47" fill="none" xmlns="http://www.w3.org/2000/svg"><path d="M57.522 17l-2.43-3.51H52.41V17h-2.916V4.4h5.454c1.116 0 2.082.186 2.898.558.828.372 1.464.9 1.908 1.584.444.684.666 1.494.666 2.43 0 .936-.228 1.746-.684 2.43-.444.672-1.08 1.188-1.908 1.548L60.654 17h-3.132zm-.054-8.028c0-.708-.228-1.248-.684-1.62-.456-.384-1.122-.576-1.998-.576H52.41v4.392h2.376c.876 0 1.542-.192 1.998-.576.456-.384.684-.924.684-1.62zm15.018 5.688V17H62.73V4.4h9.522v2.34h-6.624v2.736h5.85v2.268h-5.85v2.916h6.858zM86.272 17l-.018-7.56-3.708 6.228h-1.314l-3.69-6.066V17h-2.736V4.4h2.413l4.716 7.83 4.644-7.83h2.394l.035 12.6h-2.736zm11.828.216c-1.308 0-2.49-.282-3.546-.846a6.382 6.382 0 01-2.466-2.322c-.588-.996-.882-2.112-.882-3.348 0-1.236.294-2.346.882-3.33a6.34 6.34 0 012.466-2.34c1.056-.564 2.238-.846 3.546-.846 1.308 0 2.484.282 3.528.846a6.34 6.34 0 012.466 2.34c.6.984.9 2.094.9 3.33 0 1.236-.3 2.352-.9 3.348a6.382 6.382 0 01-2.466 2.322c-1.044.564-2.22.846-3.528.846zm0-2.484c.744 0 1.416-.168 2.016-.504a3.682 3.682 0 001.404-1.44c.348-.612.522-1.308.522-2.088s-.174-1.476-.522-2.088a3.558 3.558 0 00-1.404-1.422 3.945 3.945 0 00-2.016-.522c-.744 0-1.416.174-2.016.522a3.68 3.68 0 00-1.422 1.422c-.336.612-.504 1.308-.504 2.088s.168 1.476.504 2.088a3.81 3.81 0 001.422 1.44c.6.336 1.272.504 2.016.504zM118.74 4.4V17h-2.394l-6.282-7.65V17h-2.88V4.4h2.412l6.264 7.65V4.4h2.88zm5.592 2.376H120.3V4.4h10.98v2.376h-4.032V17h-2.916V6.776z" fill="#000"/><path d="M52.56 23.6c1.072 0 1.912.256 2.52.768.608.512.912 1.216.912 2.112 0 .896-.304 1.6-.912 2.112-.608.504-1.448.756-2.52.756h-2.256V32h-.888v-8.4h3.144zm-.024 4.968c.832 0 1.468-.18 1.908-.54.44-.368.66-.884.66-1.548 0-.68-.22-1.2-.66-1.56-.44-.368-1.076-.552-1.908-.552h-2.232v4.2h2.232zm10.563.54h-5.28c.048.656.3 1.188.756 1.596.456.4 1.032.6 1.728.6.392 0 .752-.068 1.08-.204.328-.144.612-.352.852-.624l.48.552c-.28.336-.632.592-1.056.768a3.507 3.507 0 01-1.38.264c-.648 0-1.224-.136-1.728-.408a3.038 3.038 0 01-1.164-1.152 3.267 3.267 0 01-.42-1.656c0-.616.132-1.168.396-1.656.272-.488.64-.868 1.104-1.14.472-.272 1-.408 1.584-.408a3.05 3.05 0 011.572.408c.464.272.828.652 1.092 1.14.264.48.396 1.032.396 1.656l-.012.264zm-3.048-2.736c-.608 0-1.12.196-1.536.588-.408.384-.64.888-.696 1.512h4.476c-.056-.624-.292-1.128-.708-1.512-.408-.392-.92-.588-1.536-.588zm12.002-.684V32h-.78v-4.992l-2.556 4.224h-.384l-2.556-4.236V32h-.78v-6.312h.864l2.676 4.548 2.724-4.548h.792zm5.029 6.372a3.319 3.319 0 01-1.644-.408 3.063 3.063 0 01-1.152-1.152 3.267 3.267 0 01-.42-1.656c0-.616.14-1.168.42-1.656.28-.488.664-.868 1.152-1.14a3.319 3.319 0 011.644-.408c.608 0 1.156.136 1.644.408.488.272.868.652 1.14 1.14.28.488.42 1.04.42 1.656 0 .616-.14 1.168-.42 1.656a2.976 2.976 0 01-1.14 1.152 3.319 3.319 0 01-1.644.408zm0-.756c.448 0 .848-.1 1.2-.3.36-.208.64-.5.84-.876.2-.376.3-.804.3-1.284s-.1-.908-.3-1.284c-.2-.376-.48-.664-.84-.864a2.314 2.314 0 00-1.2-.312c-.448 0-.852.104-1.212.312-.352.2-.632.488-.84.864-.2.376-.3.804-.3 1.284s.1.908.3 1.284c.208.376.488.668.84.876.36.2.764.3 1.212.3zm5.025-5.616h.852v2.796h3.971v-2.796h.852V32h-.852v-2.784h-3.972V32h-.852v-6.312zm12.537.756h-2.388V32h-.852v-5.556h-2.388v-.756h5.628v.756zm8.393 2.292c.856.2 1.284.716 1.284 1.548 0 .552-.204.976-.612 1.272-.408.296-1.016.444-1.824.444h-2.868v-6.312h2.784c.72 0 1.284.14 1.692.42.408.28.612.68.612 1.2 0 .344-.096.64-.288.888-.184.24-.444.42-.78.54zm-3.192-.24h1.896c.488 0 .86-.092 1.116-.276.264-.184.396-.452.396-.804 0-.352-.132-.616-.396-.792-.256-.176-.628-.264-1.116-.264h-1.896v2.136zm2.004 2.832c.544 0 .952-.088 1.224-.264.272-.176.408-.452.408-.828 0-.376-.124-.652-.372-.828-.248-.184-.64-.276-1.176-.276h-2.088v2.196h2.004zm6.64-5.688c.824 0 1.456.208 1.896.624.44.408.66 1.016.66 1.824V32h-.816v-.984a1.947 1.947 0 01-.852.768c-.368.184-.808.276-1.32.276-.704 0-1.264-.168-1.68-.504-.416-.336-.624-.78-.624-1.332 0-.536.192-.968.576-1.296.392-.328 1.012-.492 1.86-.492h2.004v-.384c0-.544-.152-.956-.456-1.236-.304-.288-.748-.432-1.332-.432-.4 0-.784.068-1.152.204a2.822 2.822 0 00-.948.54l-.384-.636c.32-.272.704-.48 1.152-.624.448-.152.92-.228 1.416-.228zm-.3 5.748c.48 0 .892-.108 1.236-.324.344-.224.6-.544.768-.96v-1.032h-1.98c-1.08 0-1.62.376-1.62 1.128 0 .368.14.66.42.876.28.208.672.312 1.176.312zm5.125-5.7h.852v2.796h3.972v-2.796h.852V32h-.852v-2.784h-3.972V32h-.852v-6.312zm8.097 0h.852v2.796h3.972v-2.796h.852V32h-.852v-2.784h-3.972V32h-.852v-6.312zm10.702 6.372a3.319 3.319 0 01-1.644-.408 3.063 3.063 0 01-1.152-1.152 3.267 3.267 0 01-.42-1.656c0-.616.14-1.168.42-1.656.28-.488.664-.868 1.152-1.14a3.319 3.319 0 011.644-.408c.608 0 1.156.136 1.644.408.488.272.868.652 1.14 1.14.28.488.42 1.04.42 1.656 0 .616-.14 1.168-.42 1.656a2.976 2.976 0 01-1.14 1.152 3.319 3.319 0 01-1.644.408zm0-.756c.448 0 .848-.1 1.2-.3.36-.208.64-.5.84-.876.2-.376.3-.804.3-1.284s-.1-.908-.3-1.284c-.2-.376-.48-.664-.84-.864a2.314 2.314 0 00-1.2-.312c-.448 0-.852.104-1.212.312-.352.2-.632.488-.84.864-.2.376-.3.804-.3 1.284s.1.908.3 1.284c.208.376.488.668.84.876.36.2.764.3 1.212.3zm5.025-5.616h.852v5.016l4.212-5.016h.756V32h-.852v-5.016l-4.2 5.016h-.768v-6.312zm2.868-.912c-.544 0-.976-.136-1.296-.408-.32-.272-.484-.656-.492-1.152h.612a1 1 0 00.336.756c.216.184.496.276.84.276s.624-.092.84-.276a.983.983 0 00.348-.756h.612c-.008.496-.176.88-.504 1.152-.32.272-.752.408-1.296.408zM49.212 36.688h.852v5.016l4.212-5.016h.756V43h-.852v-5.016L49.98 43h-.768v-6.312zm14.042 6.372a3.436 3.436 0 01-1.68-.408 2.976 2.976 0 01-1.152-1.14 3.333 3.333 0 01-.42-1.668c0-.616.14-1.168.42-1.656.28-.488.664-.868 1.152-1.14a3.436 3.436 0 011.68-.408c.544 0 1.028.108 1.452.324.432.208.772.516 1.02.924l-.636.432a1.945 1.945 0 00-.792-.696c-.32-.16-.668-.24-1.044-.24-.456 0-.868.104-1.236.312-.36.2-.644.488-.852.864-.2.376-.3.804-.3 1.284 0 .488.1.92.3 1.296.208.368.492.656.852.864.368.2.78.3 1.236.3.376 0 .724-.076 1.044-.228.32-.152.584-.384.792-.696l.636.432c-.248.408-.588.72-1.02.936a3.304 3.304 0 01-1.452.312zm6.294-6.42c.824 0 1.456.208 1.896.624.44.408.66 1.016.66 1.824V43h-.816v-.984a1.947 1.947 0 01-.852.768c-.368.184-.808.276-1.32.276-.704 0-1.264-.168-1.68-.504-.416-.336-.624-.78-.624-1.332 0-.536.192-.968.576-1.296.392-.328 1.012-.492 1.86-.492h2.004v-.384c0-.544-.152-.956-.456-1.236-.304-.288-.748-.432-1.332-.432-.4 0-.784.068-1.152.204a2.822 2.822 0 00-.948.54l-.384-.636c.32-.272.704-.48 1.152-.624.448-.152.92-.228 1.416-.228zm-.3 5.748c.48 0 .892-.108 1.236-.324.344-.224.6-.544.768-.96v-1.032h-1.98c-1.08 0-1.62.376-1.62 1.128 0 .368.14.66.42.876.28.208.672.312 1.176.312zm5.124-5.7h.852v2.796h3.972v-2.796h.852V43h-.852v-2.784h-3.972V43h-.852v-6.312zm13.462 0l-3.156 7.068c-.256.592-.552 1.012-.888 1.26-.336.248-.74.372-1.212.372-.304 0-.588-.048-.852-.144a1.846 1.846 0 01-.684-.432l.396-.636c.32.32.704.48 1.152.48.288 0 .532-.08.732-.24.208-.16.4-.432.576-.816l.276-.612-2.82-6.3h.888l2.376 5.364 2.376-5.364h.84zm4.235 3.024c.448.104.792.284 1.032.54.248.256.372.568.372.936 0 .368-.128.696-.384.984-.248.288-.588.512-1.02.672a4.277 4.277 0 01-1.428.228c-.456 0-.904-.064-1.344-.192a3.56 3.56 0 01-1.152-.588l.288-.636c.288.216.624.384 1.008.504s.772.18 1.164.18c.584 0 1.06-.108 1.428-.324.376-.224.564-.524.564-.9 0-.336-.152-.596-.456-.78-.304-.192-.72-.288-1.248-.288h-1.08v-.624h1.032c.472 0 .852-.088 1.14-.264.288-.184.432-.428.432-.732 0-.336-.164-.6-.492-.792-.32-.192-.74-.288-1.26-.288-.68 0-1.352.172-2.016.516l-.24-.66a5 5 0 012.34-.588c.48 0 .912.072 1.296.216.392.136.696.332.912.588.224.256.336.552.336.888 0 .32-.112.604-.336.852-.216.248-.512.432-.888.552zm8.498-3.024V43h-.852v-5.556h-3.024l-.084 1.56c-.064 1.312-.216 2.32-.456 3.024-.24.704-.668 1.056-1.284 1.056-.168 0-.372-.032-.612-.096l.06-.732c.144.032.244.048.3.048.328 0 .576-.152.744-.456.168-.304.28-.68.336-1.128a26.6 26.6 0 00.144-1.776l.108-2.256h4.62zm4.594-.048c.824 0 1.456.208 1.896.624.44.408.66 1.016.66 1.824V43h-.816v-.984a1.947 1.947 0 01-.852.768c-.368.184-.808.276-1.32.276-.704 0-1.264-.168-1.68-.504-.416-.336-.624-.78-.624-1.332 0-.536.192-.968.576-1.296.392-.328 1.012-.492 1.86-.492h2.004v-.384c0-.544-.152-.956-.456-1.236-.304-.288-.748-.432-1.332-.432-.4 0-.784.068-1.152.204a2.822 2.822 0 00-.948.54l-.384-.636c.32-.272.704-.48 1.152-.624.448-.152.92-.228 1.416-.228zm-.3 5.748c.48 0 .892-.108 1.236-.324.344-.224.6-.544.768-.96v-1.032h-1.98c-1.08 0-1.62.376-1.62 1.128 0 .368.14.66.42.876.28.208.672.312 1.176.312z" fill="#B0A9A9"/><path d="M12.211 10.93c-.364-.019-.71.134-.959.384s-.402.594-.383.959v16.839l4.228 3.765 3.865-3.765.02-16.82a1.311 1.311 0 00-1.343-1.343l-5.428-.019zm13.563-8.126l-5.428-.019c-.721-.002-1.362.639-1.36 1.36l.019 5.428a1.355 1.355 0 001.356 1.352h5.409a1.352 1.352 0 001.356-1.356V4.16a1.355 1.355 0 00-1.352-1.356z" fill="url(#paint0_linear)"/><path d="M10.823 42.902c0 1.074.403 2.09 1.17 2.858.806.805 1.841 1.227 2.877 1.189 1.132.019 2.129-.441 2.877-1.19a3.919 3.919 0 001.17-2.857l.045-13.79h-8.094l-.045 13.79zM31.193.062L25.765.08c-.746.003-.95-.348-.953.398v10.855c0 .36-.254 1.666 0 1.92.255.255.603.397.962.397l5.428-.02a1.357 1.357 0 001.351-1.356V1.419a1.361 1.361 0 00-1.36-1.357zm-10.851 0h-8.136C5.47.08-.001 5.563 0 12.273a1.356 1.356 0 102.712 0c.002-.721.631-1.347 1.347-1.347l4.08.002-.008 1.337a1.356 1.356 0 001.355 1.366H20.35a1.354 1.354 0 001.349-1.348L21.698 1.42c0-.75-.607-1.357-1.356-1.356z" fill="url(#paint1_linear)"/><defs><linearGradient id="paint0_linear" x1="18.997" y1="32.878" x2="18.997" y2="2.785" gradientUnits="userSpaceOnUse"><stop stop-color="#DEDEDE"/><stop offset="1" stop-color="#fff"/></linearGradient><linearGradient id="paint1_linear" x1="-8.376" y1="-.021" x2="33.779" y2="49.315" gradientUnits="userSpaceOnUse"><stop stop-color="#FED976"/><stop offset="1" stop-color="#FEB54A"/></linearGradient></defs></svg>