<svg width="45" height="46" fill="none" xmlns="http://www.w3.org/2000/svg"><path d="M14.22 28.185a6.916 6.916 0 01-3.904-1.21 7.149 7.149 0 01-2.587-3.223 7.33 7.33 0 01-.4-4.149 7.231 7.231 0 011.923-3.677 6.979 6.979 0 013.597-1.965 6.883 6.883 0 014.058.409 7.06 7.06 0 013.153 2.644 7.295 7.295 0 011.184 3.99 7.27 7.27 0 01-2.06 5.075 6.956 6.956 0 01-4.965 2.106zm0-13.116a5.72 5.72 0 00-3.228 1 5.912 5.912 0 00-2.14 2.665 6.06 6.06 0 00-.33 3.43 5.98 5.98 0 001.59 3.041 5.77 5.77 0 002.974 1.625 5.692 5.692 0 003.356-.338 5.838 5.838 0 002.607-2.187 6.032 6.032 0 00.979-3.299 6.012 6.012 0 00-1.703-4.198 5.753 5.753 0 00-4.106-1.742v.003zm12.391 29.688H1.831a.601.601 0 01-.43-.182.629.629 0 01-.178-.44V37.92a7.618 7.618 0 012.16-5.318 7.289 7.289 0 015.204-2.204h10.958c.161 0 .316.066.43.182a.629.629 0 010 .88.602.602 0 01-.43.181H8.587a6.083 6.083 0 00-4.344 1.84 6.36 6.36 0 00-1.804 4.439v5.594h23.564v-4.848a.63.63 0 01.178-.44.602.602 0 01.86 0 .629.629 0 01.178.44v5.47a.629.629 0 01-.178.44.602.602 0 01-.43.182zm-1.307-10.288a.598.598 0 01-.494-.258 6.298 6.298 0 00-1.113-1.194.631.631 0 01-.087-.875.599.599 0 01.856-.089c.502.416.95.897 1.33 1.43a.63.63 0 01-.175.894.6.6 0 01-.317.092z" fill="#000"/><path d="M21.052 44.757H7.385a.601.601 0 01-.43-.182.629.629 0 01-.178-.44v-4.143a.63.63 0 01.178-.44.602.602 0 01.86 0 .629.629 0 01.179.44v3.522h12.45v-3.522a.63.63 0 01.178-.44.602.602 0 01.86 0 .629.629 0 01.178.44v4.143a.629.629 0 01-.178.44.601.601 0 01-.43.182zm20.866-27.979h-9.44a.601.601 0 01-.43-.182.628.628 0 010-.88.602.602 0 01.43-.181h9.44a.64.64 0 00.456-.194.668.668 0 00.189-.465V3.146a.668.668 0 00-.19-.466.639.639 0 00-.455-.194H22.895a.64.64 0 00-.456.194.667.667 0 00-.189.465v11.73c0 .176.069.343.19.467.12.123.284.193.455.193h3.52c.162 0 .316.065.43.182a.629.629 0 010 .879.601.601 0 01-.43.182h-3.52c-.493 0-.966-.2-1.315-.558a1.926 1.926 0 01-.546-1.344V3.146c0-.505.197-.989.546-1.345a1.842 1.842 0 011.315-.558h19.023c.494 0 .967.201 1.316.558.348.357.545.84.545 1.344v11.73c0 .505-.197.989-.546 1.345a1.843 1.843 0 01-1.315.558z" fill="#000"/><path d="M35.33 11.35a.598.598 0 01-.337-.106.635.635 0 01-.092-.956l1.246-1.274-1.25-1.28a.63.63 0 01.017-.861.602.602 0 01.842-.019l1.68 1.717a.629.629 0 010 .879l-1.68 1.717a.601.601 0 01-.425.182zm-5.846-.001a.601.601 0 01-.43-.182l-1.679-1.718a.629.629 0 010-.88l1.68-1.716a.601.601 0 01.852.007.628.628 0 01.007.872l-1.249 1.281 1.25 1.278a.626.626 0 01.13.677.619.619 0 01-.223.28.599.599 0 01-.338.104v-.003zm2.039 1.921a.597.597 0 01-.48-.24.628.628 0 01-.11-.533l1.766-7.275a.62.62 0 01.277-.383.597.597 0 01.835.212c.083.14.108.31.07.47l-1.768 7.273a.623.623 0 01-.215.342.6.6 0 01-.375.133zm-5.108 9.066a.601.601 0 01-.43-.182.629.629 0 01-.178-.44v-5.558c0-.164.064-.323.178-.44a.601.601 0 01.86 0 .628.628 0 01.178.44v4.165l5.047-4.628a.605.605 0 01.441-.164.598.598 0 01.424.206.625.625 0 01.154.453.633.633 0 01-.207.43l-6.063 5.558a.6.6 0 01-.404.16z" fill="#000"/></svg>