<svg width="48" height="49" fill="none" xmlns="http://www.w3.org/2000/svg"><path d="M48 13.706c0-5.067-4.122-9.189-9.19-9.189H15.69a.703.703 0 000 1.405h23.12c4.293 0 7.785 3.492 7.785 7.785 0 4.292-3.492 7.784-7.784 7.784h-7.556c-1.548-4.705-5.983-8.112-11.2-8.112-5.213 0-9.645 3.403-11.196 8.103-4.14-.173-7.454-3.594-7.454-7.776 0-4.292 3.492-7.784 7.784-7.784h2.966a.703.703 0 000-1.405H9.19C4.122 4.517 0 8.64 0 13.707c0 4.833 3.75 8.806 8.495 9.162a11.756 11.756 0 00-.226 2.297c0 1.673.344 3.29 1.021 4.805a.703.703 0 001.283-.573 10.304 10.304 0 01-.899-4.232c0-.78.087-1.54.25-2.27h17.117a.703.703 0 000-1.406H10.347c1.487-3.915 5.278-6.706 9.709-6.706 5.724 0 10.381 4.657 10.381 10.381 0 5.725-4.657 10.382-10.381 10.382a10.386 10.386 0 01-7.817-3.55.702.702 0 10-1.057.926 11.79 11.79 0 008.874 4.029 11.72 11.72 0 006.559-1.998l1.993 1.993a1.36 1.36 0 00.09 1.822l5.49 5.49a3.485 3.485 0 002.48 1.027c.937 0 1.818-.365 2.48-1.028a3.486 3.486 0 001.028-2.48c0-.937-.365-1.818-1.028-2.481l-5.49-5.49a1.35 1.35 0 00-.96-.397c-.318 0-.619.108-.861.308l-1.993-1.993a11.72 11.72 0 001.998-6.56c0-.776-.076-1.535-.22-2.27h7.189c5.067 0 9.189-4.122 9.189-9.189zm-9.845 26.585c.397.397.616.925.616 1.487s-.219 1.09-.616 1.487a2.089 2.089 0 01-1.487.616 2.09 2.09 0 01-1.487-.616l-5.457-5.457 2.975-2.974 5.456 5.457zm-7.316-5.584l-1.242 1.242-1.855-1.855c.444-.383.86-.798 1.242-1.242l1.855 1.855z" fill="#000"/><path d="M5.038 14.491a.785.785 0 100-1.57.785.785 0 000 1.57zm2.932 0a.785.785 0 100-1.57.785.785 0 000 1.57zm2.934 0a.785.785 0 100-1.57.785.785 0 000 1.57zm33.408-.785a5.978 5.978 0 00-5.971-5.971 5.978 5.978 0 00-5.972 5.971 5.978 5.978 0 005.972 5.972 5.978 5.978 0 005.971-5.972zm-10.538 0a4.571 4.571 0 014.567-4.566 4.571 4.571 0 014.566 4.566 4.571 4.571 0 01-4.566 4.567 4.571 4.571 0 01-4.567-4.567z" fill="#000"/><path d="M40.504 12.078a.703.703 0 00-.993 0l-1.875 1.874-.742-.742a.703.703 0 00-.994.993l1.24 1.24a.7.7 0 00.993 0l2.371-2.371a.703.703 0 000-.994z" fill="#000"/></svg>