<svg width="49" height="49" fill="none" xmlns="http://www.w3.org/2000/svg"><g clip-path="url(#clip0)"><path d="M5.284 40.71c.03.05.069.096.113.135l.024.02a17.097 17.097 0 0012.306 5.766.49.49 0 00.157.004 18.004 18.004 0 00.705 0 .491.491 0 00.158-.004 17.096 17.096 0 0012.308-5.77.562.562 0 00.133-.15 17.06 17.06 0 004.154-10.244.558.558 0 00.26-.146 3.883 3.883 0 000-5.486l-1.307-1.307a17.092 17.092 0 00-.432-1.053 20.36 20.36 0 013.553-1.701l8.534-3.103a.562.562 0 00.206-.926l-3.745-3.746A3.879 3.879 0 0037 7.59l-3.744-3.744a.563.563 0 00-.926.205l-3.103 8.535a20.42 20.42 0 01-1.27 2.812 16.965 16.965 0 00-9.214-3.015.566.566 0 00-.14-.004 18.608 18.608 0 00-.728 0 .56.56 0 00-.145.004A17.096 17.096 0 005.42 18.15l-.024.02a.562.562 0 00-.112.134 17.1 17.1 0 000 22.406zm.507-21.258a17.098 17.098 0 003.519 2.85 23.048 23.048 0 00-1.085 6.643H2.24a15.928 15.928 0 013.551-9.493zm20.63.138l3.99 3.99c-.426.364-.837.743-1.233 1.138a1.095 1.095 0 01-1.55 0l-2.344-2.345a1.097 1.097 0 010-1.55 21.593 21.593 0 001.138-1.233zm4.263 19.97a16.922 16.922 0 00-3.516-2.864 23.052 23.052 0 001.08-6.627h5.985a15.928 15.928 0 01-3.549 9.49zm-13.01-5.34c-2.568.08-5.085.739-7.364 1.927a22.007 22.007 0 01-.96-6.077h8.324v4.15zm0 1.125v10.03c-3.202-1.66-5.609-4.515-6.992-8.151a15.978 15.978 0 016.992-1.879zm1.125-.003c2.446.07 4.842.71 6.999 1.865-1.382 3.644-3.791 6.505-6.999 8.167V35.343zm0-1.126V30.07h8.324a22.013 22.013 0 01-.954 6.059 16.904 16.904 0 00-7.37-1.913zm0-9.419a16.801 16.801 0 006.03-1.288l1.957 1.957c.2 1.149.313 2.312.338 3.478h-8.325v-4.147zm9.45 4.147a24.76 24.76 0 00-.221-2.812 2.219 2.219 0 001.946-.62l.012-.012 3.444 3.444h-5.18zm-3.76-8.916a2.224 2.224 0 00-.411 2.571 15.672 15.672 0 01-5.279 1.073V13.64c2.514 1.303 4.585 3.38 6.025 6.044a23.26 23.26 0 01-.336.345zm-6.815 3.641a15.97 15.97 0 01-6.992-1.879c1.383-3.636 3.79-6.49 6.992-8.15v10.03zm0 1.126v4.15H9.35c.034-2.06.357-4.106.96-6.077a17.089 17.089 0 007.364 1.927zM8.225 30.07c.035 2.256.4 4.494 1.085 6.644a17.096 17.096 0 00-3.519 2.849 15.928 15.928 0 01-3.55-9.492h5.984zM6.532 40.416a15.975 15.975 0 013.164-2.619c1.21 3.094 3.129 5.654 5.63 7.452a15.998 15.998 0 01-8.794-4.833zm14.616 4.833c2.505-1.8 4.426-4.367 5.635-7.468a15.8 15.8 0 013.16 2.633 15.997 15.997 0 01-8.795 4.835zm14.021-16.17a.562.562 0 00-.056-.042l-4.307-4.308a20.363 20.363 0 011.723-1.376l2.278 2.279a2.758 2.758 0 01.362 3.447zm4.081-21.08a2.754 2.754 0 012.35 4.19L37.812 8.4a2.74 2.74 0 011.437-.404zm-8.965 4.972l2.801-7.704 11.65 11.65-7.705 2.801a21.632 21.632 0 00-5.74 3.152l-4.156-4.157a21.378 21.378 0 003.15-5.742zm-4.666 5.828a15.802 15.802 0 00-4.48-5.038 15.826 15.826 0 016.249 2.613c-.53.85-1.12 1.662-1.77 2.425zm-10.292-5.033c-2.502 1.798-4.42 4.359-5.63 7.453A15.974 15.974 0 016.532 18.6a16 16 0 018.795-4.834z" fill="#000"/><path d="M44.338 10.694a.561.561 0 00.732-.312 4.073 4.073 0 00-5.3-5.3.562.562 0 10.42 1.043 2.948 2.948 0 013.837 3.836.563.563 0 00.311.733z" fill="#000"/><path d="M39.529 4.394a4.787 4.787 0 016.23 6.23.563.563 0 101.043.42 5.913 5.913 0 00-7.694-7.694.562.562 0 10.42 1.043z" fill="#000"/><path d="M3.78 23.896l-2.46-.938-.567 4.157 2.694.727.333-3.946z" fill="#fff"/><path d="M2.815 24.02c.31 0 .56-.248.56-.553a.557.557 0 00-.56-.553.557.557 0 00-.561.553c0 .305.25.553.56.553zm-.995 3.881a.559.559 0 00.563-.553.559.559 0 00-.564-.554.559.559 0 00-.563.554c0 .306.252.553.563.553z" fill="#000"/></g><defs><clipPath id="clip0"><path fill="#fff" transform="translate(.167 .781)" d="M0 0h48v48H0z"/></clipPath></defs></svg>