<svg width="46" height="49" fill="none" xmlns="http://www.w3.org/2000/svg"><path d="M34.923 9.914a.6.6 0 01-.29-.075.63.63 0 01-.223-.206c-.338-.514-.712-1-1.119-1.456a.666.666 0 01.04-.906.607.607 0 01.87.021c.447.503.86 1.04 1.231 1.606a.666.666 0 01-.19.922.602.602 0 01-.321.094h.002zm-4.475 26.497H15.553a.61.61 0 01-.44-.19.663.663 0 01-.181-.458v-.286c0-3.122-.958-4.289-2.865-6.616-.21-.255-.428-.519-.657-.804-2.294-2.851-3.554-6.454-3.558-10.178 0-2.148.42-4.274 1.233-6.247a15.83 15.83 0 013.5-5.23 15.06 15.06 0 015.196-3.36 14.57 14.57 0 016.046-.944c2.274.125 4.49.794 6.475 1.956a.645.645 0 01.287.39.674.674 0 01-.056.487.628.628 0 01-.368.306.598.598 0 01-.468-.05 13.18 13.18 0 00-5.934-1.793 13.374 13.374 0 00-5.55.864 13.823 13.823 0 00-4.772 3.084 14.53 14.53 0 00-3.213 4.802 15.051 15.051 0 00-1.133 5.735c.003 3.42 1.16 6.728 3.267 9.345.225.28.442.543.649.796 1.84 2.242 3.077 3.75 3.16 7.094h13.667c.136-3.458 1.392-4.976 3.572-7.61l.129-.156a14.738 14.738 0 003.188-7.172.668.668 0 01.249-.424.61.61 0 01.462-.116.606.606 0 01.406.26.66.66 0 01.111.482 16.066 16.066 0 01-3.474 7.814l-.13.157c-2.254 2.724-3.282 3.966-3.282 7.411a.672.672 0 01-.181.46.62.62 0 01-.44.191zm6.855-20.549a.606.606 0 01-.398-.15.655.655 0 01-.213-.383 14.899 14.899 0 00-.428-1.793.674.674 0 01.04-.495.63.63 0 01.363-.32.598.598 0 01.474.041.642.642 0 01.308.38c.195.64.35 1.294.466 1.955a.675.675 0 01-.134.532.626.626 0 01-.214.172.599.599 0 01-.264.061z" fill="#000"/><path d="M31.71 41.177H14.29c-.35 0-.684-.145-.932-.403a1.408 1.408 0 01-.386-.972V36.49c0-.365.139-.715.386-.973s.583-.403.932-.403h17.42c.349 0 .684.145.931.403s.386.608.387.973v3.312c0 .364-.14.714-.387.972a1.292 1.292 0 01-.932.403zM14.29 36.41a.074.074 0 00-.053.023.08.08 0 00-.022.056v3.312c0 .02.008.04.022.055a.074.074 0 00.053.023h17.42c.02 0 .038-.009.052-.023a.08.08 0 00.022-.055V36.49a.08.08 0 00-.022-.056.074.074 0 00-.053-.023H14.29z" fill="#000"/><path d="M26.89 47.484h-7.78a2.13 2.13 0 01-1.54-.665 2.321 2.321 0 01-.636-1.605v-4.686c0-.172.065-.337.182-.458a.609.609 0 01.44-.19h10.887a.61.61 0 01.44.19.663.663 0 01.181.458v4.686c0 .602-.229 1.179-.637 1.605a2.131 2.131 0 01-1.537.665zm-8.713-6.307v4.037c0 .258.099.505.274.688a.913.913 0 00.659.285h7.78a.913.913 0 00.659-.285.995.995 0 00.273-.688v-4.037h-9.645z" fill="#000"/><path d="M17.558 44.085h-3.267a.61.61 0 01-.44-.19.663.663 0 01-.182-.458c0-.172.065-.337.182-.459a.609.609 0 01.44-.19h3.267c.165 0 .323.068.44.19a.663.663 0 01.182.459.663.663 0 01-.182.458.61.61 0 01-.44.19zm14.152 0h-3.268a.609.609 0 01-.44-.19.663.663 0 01-.182-.458c0-.172.066-.337.182-.459a.609.609 0 01.44-.19h3.268c.165 0 .323.068.44.19a.663.663 0 01.181.459.663.663 0 01-.182.458.609.609 0 01-.44.19zm-4.684-22.208a.603.603 0 01-.346-.11.644.644 0 01-.228-.29.676.676 0 01.134-.707l2.994-3.124-2.994-3.124a.664.664 0 01-.174-.456.663.663 0 01.182-.453.609.609 0 01.434-.19.608.608 0 01.437.182l3.433 3.582a.664.664 0 01.183.459.663.663 0 01-.183.459l-3.433 3.582a.609.609 0 01-.44.19zm-8.052 0a.609.609 0 01-.44-.19l-3.433-3.582a.663.663 0 01-.182-.459c0-.172.065-.337.182-.459l3.433-3.582a.608.608 0 01.437-.182.61.61 0 01.435.19c.115.12.18.283.182.453a.664.664 0 01-.175.456l-2.994 3.124 2.994 3.124a.674.674 0 01.135.707.644.644 0 01-.23.29.603.603 0 01-.344.11zm2.696 2.904a.605.605 0 01-.522-.296.664.664 0 01-.086-.489l2.662-12.977a.665.665 0 01.27-.409.608.608 0 01.468-.09.609.609 0 01.391.282.666.666 0 01.086.489l-2.661 12.98a.653.653 0 01-.218.367.606.606 0 01-.39.143z" fill="#000"/></svg>