<svg width="1580" height="843" fill="none" xmlns="http://www.w3.org/2000/svg"><g clip-path="url(#clip0)" fill="#86A184"><path d="M306.996 200.101c-5.566-2.701-12.152-3.254-18.543-1.557-4.661 1.238-8.852 3.584-12.157 6.798l-2.563-1.086a.826.826 0 00-1.086.439l-.323.762-1.525-.646a3.312 3.312 0 10-2.586 6.099l1.525.647-.323.762a.817.817 0 00-.006.634.828.828 0 00.445.452l.822.348c-1.502 3.931-1.749 8.058-.708 11.978 1.631 6.139 6.248 11.084 12.693 13.618a23.892 23.892 0 004.53 4.084c4.547 3.15 9.656 4.292 14.016 3.134 4.36-1.158 8.228-4.684 10.614-9.676a23.9 23.9 0 001.914-5.831l.016.013c4.317-5.39 5.863-11.985 4.24-18.096-1.482-5.581-5.387-10.154-10.995-12.876zm-9.814-.816c.198 1.577-.339 4.209-1.411 6.794-1.179 2.844-2.753 4.962-3.917 5.271-1.169.31-2.314.702-3.427 1.174a2.489 2.489 0 00-.854-.602l-10.674-4.525.234-.554c3.149-3.177 7.208-5.493 11.745-6.698a26.485 26.485 0 018.304-.86zm-17.648 14.626l1.293-3.05 6.1 2.585a.834.834 0 01.497.662.822.822 0 00.499.661l1.73.733a.826.826 0 01.514.771.835.835 0 01-.249.587.837.837 0 01-.593.236.826.826 0 01-.318-.069l-1.731-.734a.832.832 0 00-.821.101.827.827 0 01-.822.102l-6.099-2.585zm-3.282-4.99l3.05 1.293-1.293 3.05-3.05-1.293 1.293-3.05zm-2.403-2.817l1.524.646-2.585 6.1-1.525-.647 2.262-5.336v-.001l.324-.762zm-4.989 3.281a1.656 1.656 0 011.293-3.049l1.525.646-1.293 3.05-1.525-.647zm2.709 15.921c-.946-3.562-.726-7.318.633-10.906l.702.298a.84.84 0 00.316.066.844.844 0 00.588-.238.817.817 0 00.182-.268l.323-.762 7.712 3.269c-3.868 3.893-5.197 8.985-3.741 14.469a19.792 19.792 0 002.332 5.325c-4.556-2.53-7.786-6.505-9.047-11.253zm38.757 10.871c-2.175 4.553-5.654 7.756-9.544 8.789-3.89 1.033-8.5-.022-12.648-2.895-4.034-2.794-7.118-7.004-8.249-11.262-1.355-5.102-.006-9.822 3.796-13.341l1.306.553a2.483 2.483 0 002.026-.04l1.347.571a2.466 2.466 0 001.901.016 2.488 2.488 0 001.553-2.283 2.485 2.485 0 00-1.515-2.308l-.513-.218a24.229 24.229 0 012.493-.808c4.492-1.193 8.87-1.007 12.326.523 3.669 1.624 6.192 4.678 7.295 8.832 1.131 4.258.543 9.443-1.574 13.871zm3.793-8.515a19.762 19.762 0 00-.618-5.781c-1.237-4.656-4.081-8.087-8.226-9.922-2.947-1.304-6.475-1.726-10.175-1.249 1.043-1.389 1.811-3.057 2.201-3.997 1.299-3.132 1.66-5.65 1.552-7.278 8.439 1.044 15.496 6.283 17.537 13.967 1.257 4.734.426 9.8-2.271 14.26z"/><path d="M305.07 222.406a.83.83 0 00-1.517-.203.826.826 0 00-.084.628.83.83 0 01-.588 1.013.826.826 0 01-1.013-.588.826.826 0 00-1.013-.587.829.829 0 00-.588 1.012 2.489 2.489 0 001.154 1.512 2.489 2.489 0 003.396-.902c.331-.57.422-1.248.253-1.885zm-14.407 3.826a.828.828 0 10-1.6.425.828.828 0 01-1.601.426.829.829 0 00-1.601.425 2.486 2.486 0 003.039 1.763 2.483 2.483 0 001.763-3.039zm12.66 4.422a.83.83 0 00-.945.692c-.005.031-.51 3.05-4.146 4.016-3.589.953-5.507-1.324-5.595-1.432a.828.828 0 00-1.294 1.034c.106.133 2.642 3.239 7.314 1.998 4.671-1.24 5.332-5.196 5.358-5.363a.83.83 0 00-.692-.945zm-7.97.331l3.202-.851a.824.824 0 00.587-1.012.823.823 0 00-1.012-.588l-2.402.637-.637-2.401a.83.83 0 00-1.601.425l.85 3.202a.83.83 0 001.013.588zm-9.229.737a2.483 2.483 0 00.795 4.881 2.488 2.488 0 002.193-1.676 2.484 2.484 0 00-2.988-3.205zm.85 3.202a.827.827 0 01-.929-1.216.826.826 0 01.826-.406.833.833 0 01.691.609.826.826 0 01-.588 1.013zm19.958-8.729a2.488 2.488 0 00-1.824 2.072 2.47 2.47 0 00.232 1.423 2.483 2.483 0 103.476-3.241 2.486 2.486 0 00-1.884-.254zm.851 3.202a.83.83 0 01-1.039-.748.822.822 0 01.461-.796.83.83 0 011.165.531.826.826 0 01-.587 1.013zm-8.702 9.166a2.483 2.483 0 00.795 4.881 2.488 2.488 0 002.193-1.676 2.484 2.484 0 00-2.988-3.205zm.85 3.202a.827.827 0 01-.929-1.216.826.826 0 01.826-.405.824.824 0 01.691.608.826.826 0 01-.588 1.013zm-5.102-19.209a2.483 2.483 0 00.609-4.55 2.481 2.481 0 00-2.755.174 2.488 2.488 0 00-.893 2.612 2.487 2.487 0 003.039 1.764zm-.85-3.202a.827.827 0 01.928 1.216.823.823 0 01-.826.405.824.824 0 01-.69-.608.83.83 0 01.588-1.013z"/></g><g clip-path="url(#clip1)" fill="#86A184"><path d="M1181.94 4.382c-5.56-2.701-12.15-3.254-18.54-1.557-4.66 1.238-8.85 3.584-12.16 6.798l-2.56-1.087a.84.84 0 00-.91.172.912.912 0 00-.18.268l-.32.762-1.53-.647a3.302 3.302 0 00-2.53-.02 3.29 3.29 0 00-1.81 1.777 3.314 3.314 0 001.76 4.343l1.52.647-.32.761c-.04.1-.06.208-.07.317 0 .109.02.217.06.318.05.1.11.192.18.27.08.077.17.14.27.182l.82.348c-1.5 3.931-1.75 8.058-.71 11.978 1.63 6.14 6.25 11.084 12.7 13.618a23.86 23.86 0 004.53 4.083c4.54 3.15 9.65 4.293 14.01 3.135 4.36-1.158 8.23-4.685 10.62-9.676a23.942 23.942 0 001.91-5.831l.02.013c4.31-5.39 5.86-11.985 4.24-18.096-1.49-5.581-5.39-10.154-11-12.876zm-9.81-.816c.19 1.577-.34 4.209-1.41 6.794-1.18 2.844-2.76 4.962-3.92 5.271-1.17.31-2.31.702-3.43 1.174-.24-.26-.53-.465-.85-.602l-10.68-4.526.24-.553c3.15-3.178 7.21-5.493 11.74-6.698a26.544 26.544 0 018.31-.86zm-17.65 14.625l1.29-3.05 6.1 2.586a.817.817 0 01.5.662.823.823 0 00.5.66l1.73.734c.1.042.19.103.27.18.08.078.14.17.18.271a.87.87 0 010 .638.969.969 0 01-.19.27.819.819 0 01-.91.167l-1.73-.735a.83.83 0 00-.82.1.827.827 0 01-.82.103l-6.1-2.586zm-3.28-4.989l3.05 1.293-1.3 3.05-3.05-1.293 1.3-3.05zm-2.41-2.818l1.53.647-2.59 6.1-1.52-.647 2.26-5.337.32-.763zm-4.98 3.282a1.667 1.667 0 01-.89-.904 1.63 1.63 0 01.02-1.264c.17-.402.49-.721.89-.887.41-.165.86-.163 1.27.005l1.52.647-1.29 3.05-1.52-.647zm2.7 15.92c-.94-3.561-.72-7.317.64-10.905l.7.298a.82.82 0 00.63.005c.1-.04.2-.101.27-.178a.944.944 0 00.19-.267l.32-.762 7.71 3.27c-3.87 3.892-5.2 8.984-3.74 14.468.51 1.88 1.3 3.674 2.33 5.325-4.55-2.53-7.78-6.505-9.05-11.253zm38.76 10.872c-2.17 4.553-5.65 7.756-9.54 8.789-3.89 1.033-8.5-.022-12.65-2.895-4.04-2.794-7.12-7.005-8.25-11.262-1.35-5.102-.01-9.823 3.8-13.342l1.3.554a2.498 2.498 0 002.03-.04l1.35.57a2.455 2.455 0 001.9.016c.45-.184.84-.5 1.12-.905.28-.407.43-.886.43-1.377 0-.492-.14-.973-.41-1.384a2.46 2.46 0 00-1.11-.924l-.51-.218c.82-.314 1.65-.584 2.49-.808 4.5-1.193 8.87-1.008 12.33.523 3.67 1.624 6.19 4.678 7.3 8.832 1.13 4.258.54 9.443-1.58 13.871zm3.79-8.515c.08-1.947-.12-3.895-.61-5.781-1.24-4.656-4.08-8.087-8.23-9.922-2.95-1.304-6.47-1.727-10.17-1.25 1.04-1.388 1.81-3.057 2.2-3.996 1.29-3.132 1.66-5.65 1.55-7.278 8.44 1.044 15.49 6.282 17.54 13.967 1.25 4.733.42 9.8-2.28 14.26z"/><path d="M1180.01 26.687a.799.799 0 00-.38-.504.826.826 0 00-1.13.3.861.861 0 00-.09.629.827.827 0 01-1.21.929.85.85 0 01-.39-.504.798.798 0 00-.38-.504.827.827 0 00-1.13.3.861.861 0 00-.09.63 2.496 2.496 0 003.04 1.763 2.483 2.483 0 001.76-3.039zm-14.4 3.826a.85.85 0 00-.39-.504.81.81 0 00-.62-.084.82.82 0 00-.59 1.013c.05.212.02.438-.09.628a.827.827 0 01-1.13.301.799.799 0 01-.38-.504.85.85 0 00-.39-.503.827.827 0 00-1.13.3.812.812 0 00-.08.628 2.48 2.48 0 003.04 1.764 2.483 2.483 0 001.76-3.039zm12.66 4.422a.839.839 0 00-.62.15.887.887 0 00-.33.542c0 .03-.51 3.05-4.14 4.015-3.59.953-5.51-1.324-5.6-1.431a.84.84 0 00-.55-.3.836.836 0 00-.61.176.803.803 0 00-.3.551c-.03.217.03.435.17.607.1.133 2.64 3.239 7.31 1.998 4.67-1.24 5.33-5.196 5.36-5.364a.843.843 0 00-.15-.615.818.818 0 00-.54-.33zm-7.97.331l3.2-.85a.827.827 0 00.5-.385c.11-.19.14-.416.09-.629a.85.85 0 00-.39-.503.827.827 0 00-.63-.084l-2.4.637-.63-2.401a.85.85 0 00-.39-.504.828.828 0 00-1.13.3.812.812 0 00-.08.63l.85 3.2c.05.213.19.394.38.504.19.11.42.14.63.085zm-9.23.737c-.48.126-.9.39-1.23.759-.32.369-.53.825-.6 1.312-.06.487.02.983.24 1.424.21.441.55.808.98 1.055a2.482 2.482 0 002.75-.174c.4-.299.69-.706.85-1.171.16-.465.17-.967.05-1.442a2.495 2.495 0 00-3.04-1.763zm.85 3.201a.824.824 0 01-.87-.297.822.822 0 01-.06-.919.852.852 0 01.35-.328.84.84 0 01.48-.077.8.8 0 01.43.2c.13.108.22.25.26.408a.86.86 0 01-.09.628.828.828 0 01-.5.385zm19.96-8.728c-.48.126-.9.39-1.23.759-.32.369-.53.825-.6 1.313-.06.486.02.982.23 1.423.22.441.56.808.99 1.055a2.48 2.48 0 002.75-.175c.39-.298.69-.705.85-1.17.16-.465.17-.967.05-1.441a2.494 2.494 0 00-3.04-1.764zm.85 3.202a.825.825 0 01-.87-.298.823.823 0 01-.06-.918c.08-.142.2-.256.35-.328a.84.84 0 01.48-.078c.16.022.31.092.43.2.13.108.21.25.26.409.05.212.02.438-.09.628a.828.828 0 01-.5.385zm-8.7 9.166a2.484 2.484 0 00-1.83 2.071c-.06.487.02.983.23 1.424.22.441.56.808.99 1.055a2.48 2.48 0 003.64-2.787 2.481 2.481 0 00-3.03-1.763zm.85 3.201a.825.825 0 01-.87-.297.823.823 0 01-.06-.918.82.82 0 01.82-.405.8.8 0 01.44.199c.12.108.21.25.25.409.06.212.03.438-.08.628a.828.828 0 01-.5.384zm-5.11-19.209a2.484 2.484 0 001.83-2.071c.06-.487-.02-.982-.23-1.424a2.49 2.49 0 00-.99-1.055 2.48 2.48 0 00-3.64 2.787 2.48 2.48 0 003.03 1.763zm-.85-3.201a.825.825 0 01.48.017c.16.053.3.15.39.28a.823.823 0 01.06.919.82.82 0 01-.82.405.8.8 0 01-.44-.2.829.829 0 01-.25-.408.811.811 0 01.08-.628c.11-.19.29-.328.5-.385z"/></g><g clip-path="url(#clip2)" fill="#86A184"><path d="M1490.75 286.966c-5.56-2.702-12.15-3.255-18.54-1.557-4.66 1.238-8.85 3.583-12.16 6.797l-2.56-1.086a.852.852 0 00-.32-.066.834.834 0 00-.58.238.94.94 0 00-.19.267l-.32.763-1.52-.647c-.4-.17-.83-.259-1.27-.262a3.35 3.35 0 00-1.27.241c-.81.33-1.46.969-1.81 1.778a3.314 3.314 0 001.76 4.343l1.53.646-.33.762a.854.854 0 000 .634c.04.101.1.193.17.271.08.077.17.139.27.181l.82.349c-1.5 3.931-1.75 8.057-.7 11.978 1.63 6.139 6.24 11.084 12.69 13.617a23.828 23.828 0 004.53 4.084c4.55 3.15 9.65 4.292 14.01 3.135 4.36-1.158 8.23-4.685 10.62-9.676a23.955 23.955 0 001.91-5.832l.02.014c4.32-5.39 5.86-11.986 4.24-18.096-1.48-5.582-5.39-10.154-11-12.876zm-9.81-.817c.2 1.577-.34 4.21-1.41 6.795-1.18 2.843-2.75 4.962-3.92 5.271-1.17.309-2.31.702-3.43 1.174a2.43 2.43 0 00-.85-.603l-10.67-4.525.23-.554c3.15-3.177 7.21-5.492 11.75-6.697 2.7-.724 5.5-1.014 8.3-.861zm-17.65 14.626l1.29-3.05 6.1 2.586a.824.824 0 01.5.662c.02.144.08.281.16.397.09.116.21.206.34.263l1.73.734c.1.041.19.103.27.18.08.077.14.17.18.271.04.101.07.21.06.319 0 .11-.02.218-.06.319a.92.92 0 01-.18.269.897.897 0 01-.28.177.837.837 0 01-.64-.011l-1.73-.733a.818.818 0 00-.42-.06.879.879 0 00-.4.16.787.787 0 01-.39.163.845.845 0 01-.43-.06l-6.1-2.586zm-3.28-4.989l3.05 1.293-1.29 3.05-3.05-1.294 1.29-3.049zm-2.4-2.818l1.52.647-2.58 6.099-1.53-.647 2.26-5.336v-.001l.33-.762zm-4.99 3.282c-.4-.173-.72-.498-.88-.905-.17-.406-.16-.86.01-1.263a1.652 1.652 0 012.16-.882l1.53.647-1.3 3.049-1.52-.646zm2.71 15.921c-.95-3.563-.73-7.318.63-10.906l.7.297a.833.833 0 001.09-.439l.32-.762 7.71 3.269c-3.86 3.893-5.19 8.985-3.74 14.469.51 1.88 1.3 3.674 2.33 5.325-4.55-2.531-7.78-6.506-9.04-11.253zm38.75 10.871c-2.17 4.552-5.65 7.756-9.54 8.789-3.89 1.033-8.5-.022-12.65-2.895-4.03-2.795-7.12-7.005-8.25-11.263-1.35-5.101 0-9.822 3.8-13.341l1.3.554c.33.135.67.202 1.02.195.35-.007.69-.088 1.01-.236l1.35.571a2.455 2.455 0 001.9.016c.45-.184.85-.499 1.12-.906.28-.406.43-.885.43-1.377.01-.491-.14-.972-.41-1.383a2.421 2.421 0 00-1.1-.924l-.52-.218c.82-.315 1.65-.584 2.5-.808 4.49-1.193 8.87-1.008 12.32.522 3.67 1.625 6.19 4.679 7.3 8.833 1.13 4.257.54 9.443-1.58 13.871zm3.8-8.516a19.76 19.76 0 00-.62-5.78c-1.24-4.656-4.08-8.087-8.23-9.922-2.94-1.305-6.47-1.727-10.17-1.25 1.04-1.388 1.81-3.057 2.2-3.996 1.3-3.132 1.66-5.65 1.55-7.278 8.44 1.044 15.5 6.282 17.54 13.967 1.26 4.733.42 9.8-2.27 14.259z"/><path d="M1488.83 309.271a.847.847 0 00-.39-.504.826.826 0 00-1.13.3.813.813 0 00-.08.629c.05.212.02.438-.09.628a.829.829 0 01-.5.385.837.837 0 01-.63-.084.802.802 0 01-.38-.504.85.85 0 00-.39-.504.825.825 0 00-1.21.929c.16.637.58 1.18 1.15 1.511.57.331 1.25.422 1.88.252a2.47 2.47 0 001.51-1.154c.34-.57.43-1.248.26-1.884zm-14.41 3.826a.832.832 0 00-.38-.504.837.837 0 00-1.14.301.811.811 0 00-.08.628c.06.212.03.438-.08.628a.837.837 0 01-1.14.301.838.838 0 01-.38-.504.853.853 0 00-.39-.504.812.812 0 00-.62-.084.822.822 0 00-.59 1.013 2.478 2.478 0 003.04 1.764 2.481 2.481 0 001.76-3.039zm12.66 4.422a.835.835 0 00-.62.15.832.832 0 00-.32.542c-.01.03-.51 3.049-4.15 4.015-3.59.953-5.51-1.324-5.6-1.432a.796.796 0 00-.55-.3.81.81 0 00-.6.177.828.828 0 00-.14 1.158c.11.132 2.64 3.239 7.31 1.998 4.68-1.241 5.34-5.196 5.36-5.364a.801.801 0 00-.15-.616.815.815 0 00-.54-.328zm-7.97.33l3.2-.85c.21-.056.4-.195.51-.385.11-.19.14-.416.08-.628a.838.838 0 00-.38-.504.837.837 0 00-.63-.084l-2.4.638-.64-2.401a.847.847 0 00-.39-.504.812.812 0 00-.62-.084.818.818 0 00-.59 1.013l.85 3.201c.05.213.19.394.38.504.19.11.42.141.63.084zm-9.23.738c-.47.126-.9.39-1.22.759-.33.368-.54.825-.6 1.312-.07.487.01.983.23 1.424.22.441.56.808.98 1.055.43.246.92.361 1.41.33a2.482 2.482 0 002.24-3.117 2.482 2.482 0 00-3.04-1.763zm.85 3.201a.828.828 0 11-.1-1.621c.16.022.31.091.44.199.12.109.21.251.25.409.06.212.03.438-.08.628s-.3.329-.51.385zm19.96-8.728c-.47.126-.9.39-1.23.759-.32.368-.53.825-.59 1.312-.07.487.01.983.23 1.424a2.471 2.471 0 002.38 1.385 2.477 2.477 0 002.2-1.675c.16-.465.18-.967.05-1.442a2.497 2.497 0 00-3.04-1.763zm.85 3.201a.825.825 0 01-.87-.297.826.826 0 01.77-1.324c.16.022.31.091.44.2.12.108.21.25.25.408a.86.86 0 01-.09.628.825.825 0 01-.5.385zm-8.7 9.167c-.48.126-.9.39-1.23.759-.32.368-.53.825-.6 1.312-.06.487.02.983.24 1.424.21.441.55.808.98 1.055a2.482 2.482 0 002.75-.175c.39-.298.69-.705.85-1.17.16-.465.17-.967.05-1.442a2.497 2.497 0 00-3.04-1.763zm.85 3.201a.825.825 0 01-.87-.297.826.826 0 01.77-1.324.852.852 0 01.69.608.86.86 0 01-.09.628.825.825 0 01-.5.385zm-5.1-19.209c.47-.126.9-.39 1.22-.759.33-.368.54-.825.6-1.312.07-.487-.01-.983-.23-1.424a2.533 2.533 0 00-.98-1.055 2.52 2.52 0 00-1.41-.33 2.475 2.475 0 00-2.19 1.675c-.16.465-.18.967-.05 1.442a2.482 2.482 0 003.04 1.763zm-.85-3.201a.83.83 0 011.04.748.851.851 0 01-.11.468.889.889 0 01-.36.328.831.831 0 01-.91-.123.827.827 0 01-.25-.408.818.818 0 01.59-1.013z"/></g><g clip-path="url(#clip3)" fill="#86A184"><path d="M1356.39 460.108l-6.7 4.592a.81.81 0 00-.2 1.143l1.96 2.867c-5.04.078-10.13 1.726-14.5 4.717-4.36 2.99-7.73 7.144-9.63 11.817l-1.96-2.867a.868.868 0 00-.53-.349.807.807 0 00-.61.125l-6.7 4.593a.807.807 0 00-.2 1.142l14.53 21.215c.37.53.85.97 1.4 1.285l11 6.209a3.352 3.352 0 002.58.317c.43-.121.82-.326 1.17-.603.34-.277.63-.622.84-1.013 2.61 1.013 5.32 1.538 7.9 1.525 3.15-.016 6.02-.849 8.3-2.409 2.28-1.56 4.09-3.937 5.25-6.874.94-2.402 1.43-5.117 1.42-7.916a3.25 3.25 0 002.01-1.026c.35-.366.6-.806.75-1.288.15-.482.19-.993.11-1.496l-1.82-12.498a4.213 4.213 0 00-.69-1.769l-14.54-21.216a.815.815 0 00-.53-.348.807.807 0 00-.61.125zm-.45 20.417c-2.84-.025-5.83.726-8.7 2.177.49-1.643.64-3.459.69-4.468.14-3.366-.38-5.849-1.03-7.344 1.86-.406 3.77-.583 5.69-.525l2.79 4.076-.04.196c-.35 1.97-.14 4.01.6 5.888zm-18.05-5.732a25.802 25.802 0 017.41-3.501c.72 1.418 1.11 4.065.99 6.842-.13 3.054-.87 5.555-1.85 6.223-3.69 2.529-6.39 5.807-7.72 9.337-1.48-1.37-3.31-2.3-5.27-2.681l-.2-.038-2.79-4.076c1.67-4.79 5.01-9.078 9.43-12.106zm8.64 40.477c-.24.097-.5.137-.76.119a1.755 1.755 0 01-.74-.224l-11-6.209a2.6 2.6 0 01-.84-.771l-14.07-20.532 5.37-3.674 5.61 8.197c.07.09.14.167.23.227.09.059.2.101.3.122l.53.104c1.17.227 2.29.685 3.29 1.347 1 .662 1.87 1.516 2.55 2.511l4.68 6.831c.25.363.34.807.27 1.236a1.615 1.615 0 01-1.9 1.299c-.42-.084-.8-.335-1.05-.698l-3.28-4.781a.813.813 0 00-.53-.349.807.807 0 00-.61.125.76.76 0 00-.33.525c-.04.214.01.436.13.617l4.21 6.148c.08.106.17.194.28.257l7.82 4.416c.29.163.53.404.69.696.16.292.24.622.22.952-.01.33-.12.647-.31.914s-.46.474-.76.595zm17.58-2.222c-3.79 2.592-9.42 2.82-14.87.649a3.564 3.564 0 00-.48-1.743 3.444 3.444 0 00-1.29-1.274l-5.94-3.356c.46-.173.87-.45 1.21-.81.34-.36.58-.793.73-1.267.14-.474.17-.977.1-1.47a3.443 3.443 0 00-.55-1.377l-4.68-6.831c-.12-.167-.24-.33-.36-.489 1.09-3.514 3.71-6.825 7.4-9.357 3.7-2.532 7.73-3.775 11.4-3.522.1.171.21.341.32.508l4.69 6.831c.28.413.65.758 1.08 1.008.43.251.92.4 1.41.438a3.218 3.218 0 002.64-1.057l.98 6.754c.09.606.34 1.179.72 1.659.39.481.89.852 1.46 1.074.05 5.872-2.19 11.04-5.97 13.632zm6.62-30.583c.21.318.36.682.41 1.062l1.82 12.497c.04.229.03.461-.03.683-.06.222-.16.431-.29.613a1.731 1.731 0 01-1.15.668c-.22.03-.45.014-.67-.046a1.713 1.713 0 01-.62-.305 1.72 1.72 0 01-.45-.515c-.12-.2-.2-.42-.23-.649l-1.3-8.887a.772.772 0 00-.14-.354l-4.21-6.148a.817.817 0 00-.53-.349.807.807 0 00-.61.125.761.761 0 00-.33.525c-.04.214.01.436.13.617l3.28 4.782c.25.363.34.807.27 1.235a1.615 1.615 0 01-1.9 1.3 1.633 1.633 0 01-1.05-.698l-4.68-6.831a9.236 9.236 0 01-1.43-3.28 9.26 9.26 0 01-.07-3.557l.1-.531a.867.867 0 00-.01-.321.817.817 0 00-.13-.296l-5.61-8.198 5.36-3.674 14.07 20.532z"/><path d="M1349.32 500.092a.868.868 0 00-.53-.349.807.807 0 00-.81 1.267.836.836 0 01-.2 1.143.822.822 0 01-1.14-.224.868.868 0 00-.53-.349.807.807 0 00-.81 1.267c.37.544.94.92 1.58 1.046a2.406 2.406 0 002.84-1.949 2.488 2.488 0 00-.4-1.852zm10.92-8.491c-.18.122-.3.31-.34.525-.03.214.02.436.14.617.12.181.17.404.13.618a.761.761 0 01-.33.525.81.81 0 01-.61.124.815.815 0 01-.53-.348.817.817 0 00-.53-.349.807.807 0 00-.95.65c-.03.214.01.436.14.617.37.544.94.92 1.58 1.046a2.406 2.406 0 002.84-1.949 2.488 2.488 0 00-.4-1.852.813.813 0 00-.53-.349.807.807 0 00-.61.125zm2.31 8.541a.806.806 0 00-.52.341.832.832 0 00-.12.616c.01.03.56 3.031-2.49 5.118-3 2.059-5.55.541-5.67.468a.808.808 0 00-.61-.102.838.838 0 00-.51.362.85.85 0 00.27 1.132c.14.09 3.55 2.187 7.46-.494s3.19-6.612 3.15-6.778a.798.798 0 00-.35-.529.812.812 0 00-.61-.134zm-7.27 2.894l2.68-1.837c.17-.121.3-.31.33-.524a.843.843 0 00-.13-.618.842.842 0 00-.53-.349.807.807 0 00-.61.125l-2.01 1.378-1.4-2.049a.864.864 0 00-.53-.349.807.807 0 00-.95.65c-.04.214.01.436.13.617l1.88 2.733a.82.82 0 001.14.223z"/></g><g clip-path="url(#clip4)" fill="#86A184"><path d="M152.626 772.08l-6.702 4.593a.806.806 0 00-.337.525.83.83 0 00.135.617l1.964 2.867c-5.041.079-10.133 1.727-14.497 4.717-4.364 2.991-7.739 7.145-9.632 11.817l-1.964-2.866a.834.834 0 00-.527-.349.803.803 0 00-.611.125l-6.703 4.592a.81.81 0 00-.337.525.841.841 0 00.135.618l14.538 21.215c.364.53.843.97 1.4 1.285l10.998 6.209c.391.221.82.363 1.263.417a3.324 3.324 0 002.485-.703c.345-.278.63-.622.84-1.013 2.61 1.012 5.319 1.538 7.899 1.525 3.155-.016 6.026-.849 8.303-2.409 2.276-1.56 4.09-3.937 5.243-6.874.944-2.402 1.432-5.118 1.429-7.917a3.282 3.282 0 002.009-1.026 3.31 3.31 0 00.746-1.288c.148-.482.187-.993.113-1.496l-1.821-12.497a4.222 4.222 0 00-.693-1.77l-14.538-21.215a.834.834 0 00-.527-.348.804.804 0 00-.611.124zm-.451 20.417c-2.84-.024-5.826.726-8.703 2.177.497-1.642.644-3.459.688-4.468.144-3.365-.374-5.848-1.026-7.343a23.335 23.335 0 015.686-.525l2.793 4.075-.035.196a10.811 10.811 0 00.597 5.888zm-18.05-5.731a25.693 25.693 0 017.41-3.502c.717 1.418 1.11 4.066.992 6.842-.131 3.055-.874 5.556-1.848 6.223-3.69 2.529-6.391 5.807-7.723 9.338a10.816 10.816 0 00-5.276-2.682l-.195-.038-2.793-4.075c1.677-4.791 5.014-9.078 9.433-12.106zm8.64 40.477a1.72 1.72 0 01-1.499-.105l-10.998-6.21a2.54 2.54 0 01-.84-.771l-14.069-20.532 5.362-3.674 5.617 8.198a.853.853 0 00.527.348l.529.104a9.11 9.11 0 013.292 1.348 9.234 9.234 0 012.546 2.511l4.681 6.831c.248.362.345.807.269 1.235a1.608 1.608 0 01-.673 1.05 1.612 1.612 0 01-1.222.249 1.67 1.67 0 01-1.055-.697l-3.277-4.782a.836.836 0 00-.527-.348.808.808 0 00-.611.124.806.806 0 00-.337.525.838.838 0 00.135.618l4.213 6.148a.83.83 0 00.28.257l7.821 4.415a1.8 1.8 0 01.908 1.649 1.73 1.73 0 01-.317.914 1.7 1.7 0 01-.755.595zm17.575-2.222c-3.783 2.592-9.413 2.82-14.868.648a3.494 3.494 0 00-1.763-3.016l-5.944-3.356a3.204 3.204 0 001.937-2.078c.143-.474.177-.976.1-1.469a3.378 3.378 0 00-.548-1.378l-4.682-6.831a10.864 10.864 0 00-.355-.488c1.089-3.514 3.703-6.826 7.398-9.357 3.695-2.532 7.727-3.775 11.397-3.522.104.171.213.341.327.507l4.681 6.832c.284.413.655.758 1.087 1.008.432.25.913.4 1.406.437a3.203 3.203 0 002.637-1.056l.984 6.754a3.498 3.498 0 002.177 2.733c.056 5.872-2.189 11.04-5.971 13.632zm6.622-30.583c.217.318.359.682.415 1.062l1.821 12.497a1.744 1.744 0 01-.325 1.296 1.721 1.721 0 01-.504.45 1.731 1.731 0 01-1.933-.133 1.787 1.787 0 01-.684-1.164l-1.295-8.887a.843.843 0 00-.139-.354l-4.213-6.148a.834.834 0 00-.527-.349.805.805 0 00-.948.65.835.835 0 00.135.617l3.277 4.782c.248.362.345.807.269 1.235a1.61 1.61 0 01-.674 1.05 1.611 1.611 0 01-1.222.249 1.672 1.672 0 01-1.054-.697l-4.681-6.831a9.26 9.26 0 01-1.424-3.28 9.123 9.123 0 01-.068-3.557l.094-.531a.826.826 0 00-.135-.617l-5.617-8.198 5.362-3.674 14.07 20.532z"/><path d="M145.552 812.064a.836.836 0 00-.527-.348.803.803 0 00-.948.649.832.832 0 00.135.618.836.836 0 01.134.618.801.801 0 01-.948.649.836.836 0 01-.527-.348.834.834 0 00-.527-.349.803.803 0 00-.948.65.83.83 0 00.135.617c.372.544.941.92 1.582 1.046a2.417 2.417 0 001.833-.374 2.418 2.418 0 001.01-1.575 2.51 2.51 0 00-.404-1.853zm10.924-8.491a.806.806 0 00-.337.525.837.837 0 00.135.618.835.835 0 01.135.617.803.803 0 01-.948.65.831.831 0 01-.527-.349.839.839 0 00-.528-.348.805.805 0 00-.948.649.841.841 0 00.135.618c.373.544.942.92 1.582 1.046.64.126 1.3-.009 1.833-.374a2.419 2.419 0 001.011-1.575 2.515 2.515 0 00-.404-1.853.839.839 0 00-.528-.348.808.808 0 00-.611.124zm2.309 8.542a.803.803 0 00-.641.957c.006.03.56 3.03-2.486 5.117-3.005 2.059-5.554.542-5.673.469a.817.817 0 00-.615-.102.791.791 0 00-.501.362.821.821 0 00-.097.617.84.84 0 00.364.514c.143.091 3.546 2.187 7.458-.494 3.913-2.68 3.186-6.611 3.153-6.777a.84.84 0 00-.348-.53.822.822 0 00-.614-.133zm-7.275 2.894l2.681-1.837a.806.806 0 00.337-.525.835.835 0 00-.135-.617.834.834 0 00-.527-.349.804.804 0 00-.611.125l-2.011 1.378-1.404-2.05a.836.836 0 00-.527-.348.81.81 0 00-.612.124.808.808 0 00-.336.525.837.837 0 00.134.618l1.873 2.732a.838.838 0 00.527.349.804.804 0 00.611-.125z"/></g><g clip-path="url(#clip5)" fill="#86A184"><path d="M1180.53 246.307c-.02.033-.03.066-.05.101l-7.99 22.22c-.2.567-.19 1.187.03 1.747s.64 1.022 1.17 1.3l31.07 16.086c.59.302 1.27.36 1.89.161.63-.2 1.16-.64 1.46-1.225l1.5-2.893 14.33-20.494v-.009l.03-.043c.01-.01.01-.021.02-.032 0-.003 0-.006.01-.009l1.52-2.942c.1-.196.12-.423.05-.632a.794.794 0 00-.41-.485l-14.7-7.614a.849.849 0 00-.64-.054.842.842 0 00-.48.408l-1.52 2.942c0 .003-.01.006-.01.009 0 .011-.01.023-.01.034-.01.016-.02.031-.02.047 0 .003-.01.006-.01.01l-3.91 10.87c-1.42-.878-1.67-1.515-1.7-1.772a.511.511 0 01.02-.274.69.69 0 01.14-.237.734.734 0 00.24-.317.758.758 0 00.06-.393.84.84 0 00-.46-.649c-1.47-.758-2.74-1.057-3.89-1.114l2.79-3.992.06-.094a10.713 10.713 0 001.17-5.722 10.7 10.7 0 00-1.98-5.495.825.825 0 00.28-.399l1.55-4.793a.8.8 0 00-.02-.57.822.822 0 00-.38-.421l-.74-.38 1.52-2.942 5.15 2.665a.831.831 0 001.12-.354l1.52-2.942a.91.91 0 00.09-.324.94.94 0 00-.04-.334.894.894 0 00-.45-.482l-11.42-4.976a.823.823 0 00-.48-.055.774.774 0 00-.42.221l-1.88 1.825a.759.759 0 00-.21.328.845.845 0 00-.03.387c.02.13.07.253.14.36.08.107.18.194.29.254l.74.381-1.52 2.942-.74-.381a.81.81 0 00-.56-.072.814.814 0 00-.48.311l-3.02 4.032a.855.855 0 00-.17.461c-1.98-.011-3.93.526-5.63 1.552a10.732 10.732 0 00-3.99 4.262zm19.11 36.937l-17.75-9.187a.72.72 0 01-.3-.972l3.9-7.544a.722.722 0 01.97-.309l17.84 9.237c.17.088.3.24.36.422s.04.38-.05.55l-3.9 7.544a.722.722 0 01-.43.355.726.726 0 01-.55-.046l-.09-.05zm-10.09-20.143l14.71 7.615-.76 1.471-14.71-7.615.76-1.471zm17.09 22.835a.835.835 0 01-1.12.354l-3.77-1.955c.17-.173.31-.371.43-.589l1.19-2.301 4.41 2.284-1.14 2.207zm1.99-3.63l-4.5-2.332 1.95-3.772c.29-.56.35-1.212.16-1.812a2.423 2.423 0 00-1.18-1.392l-.09-.049 1.14-2.207.03-.062c0-.003 0-.009.01-.013v-.003c.19-.511.29-1.053.28-1.6 0-.455-.1-.904-.29-1.316-.2-.412-.48-.775-.83-1.064l3.7-10.293 13.03 6.745-13.41 19.17zm1.8-28.911l13.24 6.854-.76 1.47-13.24-6.853.76-1.471zm-9.92 10.813c.14 1.248 1.29 2.439 3.42 3.541.55.285.82.7.84 1.305v.064l-11.05-5.725c.43-.078.86-.176 1.29-.273 1.72-.394 3.36-.768 5.59.148-.1.303-.13.624-.09.94zm-2.17-32.968l10.09 4.4-.73 1.42-10.01-5.183.65-.637zm-.23 2.722l2.94 1.523-1.52 2.941-2.94-1.523 1.52-2.941zm-5.88 6.28l2.01-2.688 6.11 3.163-1.03 3.195-7.09-3.67zm2.05 2.925l1.47.762a9.152 9.152 0 014.48 5.306 9.106 9.106 0 01-.56 6.924l-3.52 5.033c-.52.088-1.02.202-1.51.313-1.7.389-3.17.724-5.06-.255a.836.836 0 00-1.12.355l-1.14 2.206-.1-.049a2.377 2.377 0 00-3.2 1.018l-3.91 7.544a2.41 2.41 0 00-.23.692l-5.43-2.812a.847.847 0 01-.39-.433.893.893 0 01-.01-.582l7.97-22.168a9.145 9.145 0 015.34-4.45 9.12 9.12 0 016.92.596z"/><path d="M1194.62 271.321a3.326 3.326 0 00-3.66.409c-.5.422-.86.984-1.04 1.613-.19.63-.18 1.299.02 1.923.2.624.58 1.176 1.09 1.585a3.324 3.324 0 003.67.313 3.311 3.311 0 001.55-3.904 3.29 3.29 0 00-1.63-1.939zm-2.28 4.413a1.677 1.677 0 01-.69-.671 1.625 1.625 0 01-.2-.941c.03-.326.15-.637.35-.893a1.672 1.672 0 011.76-.557c.31.091.59.273.8.524.22.25.35.557.38.883a1.648 1.648 0 01-1.14 1.762c-.42.133-.87.094-1.26-.107zm19.38-8.616c2.1 1.085 4.17.955 4.82-.303.65-1.258-.44-3.025-2.53-4.11-2.1-1.085-4.17-.955-4.82.303-.66 1.258.43 3.025 2.53 4.11zm1.52-2.942c1.43.737 1.92 1.695 1.83 1.878-.1.183-1.16.33-2.59-.407-1.42-.737-1.92-1.695-1.82-1.878.09-.183 1.16-.33 2.58.407zm-28.35-11.881l8.82 4.569c.2.101.43.12.64.054.2-.067.38-.214.48-.409l2.28-4.412a.82.82 0 00.06-.632.863.863 0 00-.41-.485l-8.83-4.568a.82.82 0 00-1.11.354l-2.29 4.413a.815.815 0 00-.05.631c.07.209.21.384.41.485zm3.02-4.032l7.35 3.808-1.52 2.941-7.35-3.807 1.52-2.942z"/></g><g clip-path="url(#clip6)" fill="#86A184"><path d="M41.95 55.193a.846.846 0 00-.043.1l-7.99 22.22a2.492 2.492 0 001.195 3.048l31.07 16.086a2.487 2.487 0 003.349-1.064l1.498-2.893L85.36 72.196l.005-.009.028-.043.018-.032.005-.01 1.523-2.942a.828.828 0 00-.354-1.116L71.878 60.43a.828.828 0 00-1.116.355l-1.523 2.942a.29.29 0 00-.005.009c-.006.01-.01.022-.015.034a.824.824 0 00-.02.047l-.004.01-3.909 10.87c-1.42-.878-1.67-1.515-1.707-1.772a.62.62 0 01.165-.511.79.79 0 00.297-.71.824.824 0 00-.461-.65c-1.463-.757-2.739-1.056-3.887-1.113l2.792-3.992a.815.815 0 00.057-.094 10.777 10.777 0 00-.809-11.217.826.826 0 00.283-.4l1.549-4.793a.828.828 0 00-.407-.99l-.736-.38 1.523-2.942 5.148 2.665a.828.828 0 001.116-.355l1.523-2.941a.827.827 0 00-.404-1.14l-11.412-4.976a.829.829 0 00-.908.166l-1.878 1.825a.827.827 0 00.196 1.33l.736.38-1.523 2.942-.736-.381a.829.829 0 00-1.043.239l-3.02 4.031a.826.826 0 00-.163.461 10.778 10.778 0 00-9.627 5.815zM61.06 92.13l-17.744-9.187a.722.722 0 01-.309-.972l3.906-7.544a.722.722 0 01.972-.309l17.84 9.236a.722.722 0 01.308.972l-3.905 7.544a.722.722 0 01-.972.31l-.095-.05zM50.975 71.987l14.708 7.615-.762 1.471-14.708-7.615.762-1.47zM68.06 94.822a.83.83 0 01-1.116.354l-3.777-1.955a2.37 2.37 0 00.431-.59l1.192-2.3 4.412 2.284-1.142 2.207zm1.996-3.63L65.55 88.86l1.953-3.772a2.381 2.381 0 00-1.018-3.204l-.095-.05 1.142-2.206.029-.062.005-.014.002-.002c.194-.51.29-1.053.283-1.6a3.063 3.063 0 00-1.12-2.38l3.701-10.293 13.029 6.745-13.406 19.17zm1.796-28.911l13.237 6.853-.761 1.471-13.238-6.853.762-1.471zm-9.92 10.813c.142 1.247 1.293 2.439 3.421 3.54.552.286.819.7.842 1.306l.001.063-11.058-5.725c.439-.078.868-.175 1.294-.273 1.722-.393 3.359-.767 5.59.149a2.22 2.22 0 00-.09.94zm-2.169-32.968l10.091 4.4-.735 1.42-10.01-5.183.654-.637zm-.23 2.721l2.941 1.523-1.523 2.942-2.941-1.523 1.523-2.942zm-5.881 6.28l2.013-2.687 6.108 3.163-1.033 3.195-7.088-3.67zm2.047 2.926l1.47.762a9.12 9.12 0 013.927 12.23l-3.52 5.033c-.526.087-1.027.201-1.513.312-1.702.39-3.172.725-5.063-.254a.829.829 0 00-1.117.354l-1.142 2.207-.095-.05a2.38 2.38 0 00-3.204 1.019l-3.906 7.544c-.112.217-.19.45-.232.692l-5.43-2.812a.83.83 0 01-.399-1.016l7.971-22.168A9.12 9.12 0 0155.7 52.053z"/><path d="M56.043 80.207a3.313 3.313 0 10-3.046 5.884 3.313 3.313 0 003.046-5.884zM53.76 84.62a1.656 1.656 0 111.523-2.942 1.656 1.656 0 01-1.523 2.942zm19.383-8.617c2.096 1.086 4.168.956 4.819-.302.651-1.258-.44-3.025-2.535-4.11-2.096-1.085-4.168-.955-4.82.303-.65 1.257.44 3.024 2.536 4.11zm1.522-2.941c1.424.737 1.92 1.694 1.826 1.877-.095.184-1.163.33-2.587-.406-1.424-.737-1.92-1.695-1.825-1.878.094-.183 1.163-.33 2.587.407zM46.31 61.18l8.825 4.57a.828.828 0 001.117-.355l2.284-4.413a.828.828 0 00-.355-1.116l-8.825-4.569a.828.828 0 00-1.116.355l-2.284 4.412a.828.828 0 00.354 1.117zm3.02-4.031l7.355 3.807-1.524 2.942-7.354-3.808 1.523-2.941z"/></g><g clip-path="url(#clip7)" fill="#86A184"><path d="M665.82 91.353l-8.311-12.207a13.831 13.831 0 00-7.265-5.391 13.83 13.83 0 00-9.042.278l-7.589 2.902a1.034 1.034 0 10.739 1.934l7.589-2.903a11.664 11.664 0 0113.857 4.345l5.105 7.498-9.161-6.452a7.386 7.386 0 00-6.617-.95l-27.564 9.401a1.863 1.863 0 01-2.351-1.14 2.366 2.366 0 011.394-3.01l9.484-3.628a1.034 1.034 0 10-.739-1.934l-9.485 3.628a4.425 4.425 0 00-2.607 5.63 3.939 3.939 0 004.972 2.414l27.565-9.4a5.309 5.309 0 014.756.681l13.819 9.733a1.032 1.032 0 001.322-.108c.357-.351.411-.907.129-1.32z"/><path d="M630.841 78.653a1.036 1.036 0 10-.732 1.767c.273 0 .54-.111.732-.304a1.038 1.038 0 000-1.464zm26.82 22.616l-.039-.012a5.97 5.97 0 01-3.075-2.208 28.167 28.167 0 002.241-2.011 1.036 1.036 0 00-1.464-1.464c-4.06 4.06-9.245 6.584-14.852 7.283a25.866 25.866 0 01-3.208.199h-.004a25.866 25.866 0 01-3.208-.199c-5.607-.699-10.793-3.223-14.852-7.283a1.036 1.036 0 00-1.464 1.464 27.973 27.973 0 002.241 2.01 5.965 5.965 0 01-3.074 2.208l-.04.013a1.034 1.034 0 10.611 1.978l.041-.013a8.036 8.036 0 004.121-2.948c.354.244.713.48 1.077.706a5.564 5.564 0 01-3.258 3.49l-.32.127a1.035 1.035 0 10.763 1.924l.321-.127a7.626 7.626 0 004.323-4.372c.398.207.8.404 1.207.591a5.1 5.1 0 01-2.738 4.19l-.062.033a1.034 1.034 0 10.957 1.835l.062-.032a7.167 7.167 0 003.768-5.207c.439.161.882.311 1.329.449a6.894 6.894 0 01-1.81 4.419 1.034 1.034 0 101.526 1.399 8.962 8.962 0 002.324-5.271 27.23 27.23 0 001.801.344 10.702 10.702 0 01-1.433 4.518l-.14.237a1.036 1.036 0 001.785 1.049l.14-.237a12.78 12.78 0 001.705-5.321c.42.034.841.059 1.264.074v6.15a1.035 1.035 0 102.07 0v-6.15c.423-.015.844-.04 1.264-.074a12.756 12.756 0 001.705 5.321l.139.237a1.036 1.036 0 001.786-1.049l-.14-.237a10.69 10.69 0 01-1.434-4.518 27.136 27.136 0 001.802-.344 8.956 8.956 0 002.324 5.271 1.033 1.033 0 001.463.063c.421-.386.45-1.041.063-1.462a6.894 6.894 0 01-1.81-4.419c.447-.138.89-.288 1.329-.449a7.165 7.165 0 003.768 5.207l.062.032a1.03 1.03 0 001.396-.439 1.034 1.034 0 00-.439-1.396l-.062-.032a5.102 5.102 0 01-2.738-4.191 27.47 27.47 0 001.207-.591 7.626 7.626 0 004.323 4.372l.321.128a1.036 1.036 0 00.763-1.925l-.32-.127a5.56 5.56 0 01-3.258-3.49c.364-.227.723-.462 1.077-.706a8.034 8.034 0 004.122 2.948l.04.013a1.034 1.034 0 10.611-1.978z"/></g><g clip-path="url(#clip8)" fill="#86A184"><path d="M878.507 806.293l-4.231-14.149a13.824 13.824 0 00-5.294-7.336 13.832 13.832 0 00-8.703-2.47l-8.111.472a1.035 1.035 0 10.12 2.066l8.111-.471a11.663 11.663 0 0111.894 8.332l2.598 8.69-6.78-8.92a7.387 7.387 0 00-6.02-2.906l-29.117.624a1.861 1.861 0 01-1.895-1.798 2.365 2.365 0 012.238-2.447l10.138-.59a1.035 1.035 0 00-.12-2.067l-10.138.59a4.425 4.425 0 00-4.188 4.578 3.939 3.939 0 004.009 3.804l29.117-.624a5.311 5.311 0 014.328 2.089l10.228 13.456a1.032 1.032 0 001.293.296c.446-.226.666-.74.523-1.219z"/><path d="M849.006 783.608a1.04 1.04 0 00-.605-.511 1.043 1.043 0 00-.79.068 1.048 1.048 0 00-.51.606c-.082.26-.057.548.068.789.125.242.346.428.606.511.259.082.547.057.789-.068s.428-.347.51-.606c.083-.26.058-.547-.068-.789zm18.729 29.669l-.034-.023a5.969 5.969 0 01-2.263-3.035 28.116 28.116 0 002.744-1.239 1.035 1.035 0 00-.953-1.838c-5.097 2.642-10.803 3.48-16.359 2.45a25.971 25.971 0 01-3.118-.781h-.002l-.001-.001a25.856 25.856 0 01-2.998-1.16c-5.133-2.361-9.313-6.336-11.954-11.433a1.036 1.036 0 00-1.838.953c.465.898.976 1.763 1.528 2.594a5.97 5.97 0 01-3.598 1.175h-.042a1.034 1.034 0 10-.016 2.07h.044a8.03 8.03 0 004.819-1.564c.263.34.534.673.813.999a5.565 5.565 0 01-4.161 2.341l-.344.024a1.036 1.036 0 00.145 2.065l.345-.024a7.627 7.627 0 005.443-2.859c.317.317.64.626.972.927a5.103 5.103 0 01-3.878 3.167l-.068.012a1.034 1.034 0 10.357 2.039l.068-.012a7.164 7.164 0 005.167-3.824c.369.286.746.563 1.131.83a6.89 6.89 0 01-3.062 3.664 1.036 1.036 0 101.032 1.795 8.952 8.952 0 003.809-4.321 26.88 26.88 0 001.613.873 10.705 10.705 0 01-2.733 3.873l-.205.184a1.036 1.036 0 001.385 1.539l.204-.184a12.753 12.753 0 003.235-4.556c.389.16.784.311 1.182.454l-1.86 5.861a1.036 1.036 0 001.973.626l1.86-5.861c.408.113.817.217 1.227.311a12.767 12.767 0 00.017 5.587l.061.268a1.035 1.035 0 102.018-.459l-.061-.269a10.692 10.692 0 010-4.739c.606.092 1.214.165 1.821.216a8.958 8.958 0 00.622 5.727 1.033 1.033 0 001.374.503c.519-.241.744-.856.503-1.375a6.895 6.895 0 01-.389-4.759c.468.004.936-.005 1.403-.026a7.162 7.162 0 002.017 6.103l.049.049a1.038 1.038 0 001.464.004 1.035 1.035 0 00.003-1.464l-.049-.049a5.1 5.1 0 01-1.342-4.823 27.07 27.07 0 001.328-.198 7.631 7.631 0 002.799 5.475l.268.218a1.035 1.035 0 001.309-1.603l-.267-.218a5.563 5.563 0 01-2.05-4.312 27.19 27.19 0 001.24-.348 8.029 8.029 0 003.037 4.057l.035.024a1.036 1.036 0 001.181-1.7z"/></g><g clip-path="url(#clip9)" fill="#86A184"><path d="M1510.82 763.024l-8.31-12.208a13.842 13.842 0 00-7.27-5.391 13.828 13.828 0 00-9.04.278l-7.59 2.903c-.53.204-.8.802-.59 1.336.2.534.8.801 1.33.597l7.59-2.903a11.67 11.67 0 0113.86 4.346l5.1 7.497-9.16-6.452a7.374 7.374 0 00-6.61-.949l-27.57 9.401a1.864 1.864 0 01-2.35-1.141 2.366 2.366 0 011.39-3.01l9.49-3.628c.53-.204.8-.803.6-1.336a1.044 1.044 0 00-1.34-.598l-9.49 3.628a4.424 4.424 0 00-2.6 5.631 3.936 3.936 0 004.97 2.413l27.56-9.401c1.6-.545 3.38-.29 4.76.683l13.82 9.733a1.037 1.037 0 001.32-.109c.36-.351.41-.907.13-1.32z"/><path d="M1475.84 750.323a1.032 1.032 0 00-1.46 0 1.017 1.017 0 000 1.463c.19.193.46.304.73.304.27 0 .54-.111.73-.304.19-.192.3-.459.3-.731 0-.274-.11-.54-.3-.732zm26.82 22.616l-.04-.012a5.954 5.954 0 01-3.07-2.208c.77-.626 1.52-1.296 2.24-2.011.4-.404.4-1.059 0-1.464a1.043 1.043 0 00-1.47 0c-4.06 4.06-9.24 6.584-14.85 7.283-.04.002-.07.007-.11.013a25.954 25.954 0 01-6.31-.013c-5.61-.699-10.79-3.223-14.85-7.283a1.03 1.03 0 00-1.46 0c-.41.404-.41 1.06 0 1.464.71.715 1.46 1.385 2.24 2.011a5.979 5.979 0 01-3.08 2.208l-.04.012c-.54.169-.85.748-.68 1.295.14.444.55.729.99.729.1 0 .2-.015.3-.046l.05-.013a8.066 8.066 0 004.12-2.948c.35.244.71.48 1.07.706a5.56 5.56 0 01-3.25 3.49l-.33.127c-.53.211-.79.813-.58 1.344a1.047 1.047 0 001.35.581l.32-.128a7.633 7.633 0 004.32-4.371c.4.206.8.403 1.21.59a5.113 5.113 0 01-2.74 4.191l-.06.032a1.036 1.036 0 10.96 1.835l.06-.032a7.168 7.168 0 003.77-5.207c.43.161.88.311 1.32.45a6.816 6.816 0 01-1.81 4.418c-.38.421-.35 1.076.07 1.462a1.031 1.031 0 001.46-.063 8.939 8.939 0 002.32-5.271c.6.135 1.2.249 1.81.344-.14 1.59-.63 3.137-1.44 4.518l-.14.237a1.038 1.038 0 001.79 1.049l.14-.237a12.875 12.875 0 001.7-5.321c.42.034.84.059 1.27.075v6.149c0 .572.46 1.035 1.03 1.035.57 0 1.04-.463 1.04-1.035v-6.149c.42-.016.84-.041 1.26-.075.17 1.873.75 3.693 1.71 5.321l.14.237c.19.328.53.511.89.511a1 1 0 00.52-.143c.5-.289.66-.924.37-1.417l-.14-.237a10.656 10.656 0 01-1.43-4.518 28.5 28.5 0 001.8-.344c.17 1.96.98 3.807 2.32 5.271.21.222.49.335.77.335a1.032 1.032 0 00.76-1.734 6.868 6.868 0 01-1.81-4.418c.45-.139.89-.289 1.33-.45a7.143 7.143 0 003.77 5.207l.06.032a1.021 1.021 0 001.39-.439c.27-.507.07-1.132-.44-1.396l-.06-.032a5.081 5.081 0 01-2.73-4.191c.4-.187.8-.384 1.2-.59a7.622 7.622 0 004.33 4.371l.32.128a1.033 1.033 0 001.34-.581 1.037 1.037 0 00-.58-1.344l-.32-.127a5.575 5.575 0 01-3.26-3.49c.36-.226.72-.462 1.08-.706a7.985 7.985 0 004.12 2.948l.04.013c.1.031.2.046.31.046.44 0 .85-.285.98-.73a1.029 1.029 0 00-.68-1.294z"/></g><g clip-path="url(#clip10)" fill="#86A184"><path d="M466.582 731.287a.813.813 0 00-.402-.509l-15.802-8.356a.799.799 0 00-.646-.046.834.834 0 00-.483.447l-15.641 34.79-3.085 5.833a4.186 4.186 0 00-.315 3.143 4.026 4.026 0 001.971 2.416l26.575 14.053c.953.503 2.07.599 3.106.269a4.184 4.184 0 002.421-2.03l5.42-10.249c.376-.712.54-1.516.472-2.314a4.093 4.093 0 00-.853-2.179l1.323-2.503c1.301-2.459 1.494-5.129.56-7.722a10.426 10.426 0 00-1.829-3.199.767.767 0 00-.531-.272.792.792 0 00-.573.188c-.072.05-.728.479-2.082.537-1.365.059-3.718-.255-7.174-2.083-1.322-.699-2.544-1.17-3.666-1.413l11.136-18.151a.838.838 0 00.098-.65zm-1.943.55l-.868 1.414-14.081-7.446.681-1.513 14.268 7.545zm-24.391 35.814l4.645-8.785 22.984 12.155-4.645 8.784-22.984-12.154zm-4.31-2.279l.387-.732a.838.838 0 01.484-.406.803.803 0 01.621.054l1.437.76c.19.1.332.274.394.483a.833.833 0 01-.063.628l-.387.732-2.873-1.519zm4.355-1.283a2.413 2.413 0 00-.652-.506l-1.436-.759a2.417 2.417 0 00-1.864-.162 2.513 2.513 0 00-1.452 1.218l-.388.733-2.154-1.14 2.322-4.392 6.465 3.418-.841 1.59zm-8.597.914l6.413 3.391a4.17 4.17 0 00-.126 1.807l-5.03-2.66a2.412 2.412 0 01-1.03-1.061 2.488 2.488 0 01-.227-1.477zm27.832 16.591l-18.674-9.875a2.412 2.412 0 01-1.03-1.061 2.488 2.488 0 01-.227-1.477l22.737 12.023a2.484 2.484 0 01-1.349.644 2.41 2.41 0 01-1.457-.254zm9-12.103l-22.737-12.024a2.483 2.483 0 011.348-.643 2.414 2.414 0 011.457.253l18.675 9.876c.445.236.805.607 1.03 1.061.225.455.304.97.227 1.477zm-19.157-13.878l.774-1.464 18.674 9.876-.774 1.464-18.674-9.876zm17.081-.393a6.416 6.416 0 002.088-.473 9.414 9.414 0 011.148 2.224c.667 1.891.623 3.761-.128 5.572l-18.602-9.837a2.911 2.911 0 011.22-.904c1.441-.574 3.537-.172 6.062 1.163 3.132 1.657 5.895 2.415 8.212 2.255zm-14.902-4.931a4.553 4.553 0 00-2.398 2.276.995.995 0 00-.057.092l-1.323 2.503a4.082 4.082 0 00-2.281.522 4.194 4.194 0 00-1.647 1.693l-1.936 3.66-6.509-3.442 13.611-30.274 13.893 7.347-9.344 15.23a5.46 5.46 0 00-2.008.393h-.001z"/><path d="M459.076 769.14c-.797-1.001-2.029-1.972-3.467-2.732-1.438-.761-2.933-1.232-4.209-1.327-2.044-.153-2.81.696-3.085 1.216-.275.52-.546 1.632.731 3.235.797 1.001 2.028 1.972 3.466 2.732 1.438.761 2.933 1.232 4.21 1.327 2.043.153 2.81-.696 3.085-1.216.275-.52.546-1.632-.731-3.235zm-5.789 1.66c-2.674-1.414-3.809-3.227-3.536-3.743.273-.516 2.411-.599 5.084.815 2.673 1.414 3.808 3.227 3.535 3.743-.273.516-2.41.599-5.083-.815zm6.203-36.064l-8.619-4.558a.806.806 0 00-.622-.054.838.838 0 00-.484.406l-2.323 4.393a.838.838 0 00-.063.628.8.8 0 00.395.483l8.619 4.558c.19.101.414.121.621.054a.838.838 0 00.484-.406l2.323-4.392a.84.84 0 00.063-.629.805.805 0 00-.394-.483zm-3.041 4.012l-7.183-3.798 1.549-2.928 7.182 3.798-1.548 2.928zm-2.266 2.549l-5.746-3.039a.808.808 0 00-.621-.054.836.836 0 00-.548 1.035.8.8 0 00.395.483l5.746 3.039c.19.101.414.12.621.054a.836.836 0 00.548-1.035.806.806 0 00-.395-.483z"/></g><g clip-path="url(#clip11)" fill="#86A184"><path d="M58.193 460.326c-2.863-5.486-7.824-9.852-13.97-12.294-6.145-2.443-12.75-2.674-18.596-.651-5.891 2.039-10.31 6.117-12.443 11.483-2.346 5.902-1.58 12.636 2.095 18.512.05.701.131 1.404.244 2.109l-2.093.179a.824.824 0 00-.7.519.828.828 0 00.153.857l1.73 1.939c.358.402.576.908.623 1.443l.221 2.59a.828.828 0 001.377.547l1.056-.942c1.927 3.622 4.73 6.296 7.981 7.589l10.774 4.282a.82.82 0 00.363.056.822.822 0 00.352-.105l10.121-5.744a4.112 4.112 0 002.165-2.254l1.466-3.688c3.822-2.281 6.67-5.573 8.246-9.536 2.133-5.367 1.72-11.365-1.165-16.891zm-43.47-.85c4.048-10.184 17.007-14.628 28.889-9.905a26.503 26.503 0 017.183 4.254c-.78 1.385-2.78 3.179-5.18 4.618-2.64 1.582-5.166 2.347-6.285 1.902-4.668-1.856-9.427-2.205-13.4-.985-4.332 1.331-7.563 4.401-9.342 8.877a19.753 19.753 0 00-1.293 5.679c-2.157-4.75-2.386-9.876-.572-14.44zm34.005 18.1a3.418 3.418 0 00-1.842 1.873l-2.933 7.379-2.058 1.21a3.309 3.309 0 00-1.512-2.732 3.317 3.317 0 00-3.111-.261.829.829 0 00-.133.072L26.09 492.5c-2.808-1.243-5.229-3.69-6.899-6.97a2.497 2.497 0 011.026-.324l2.59-.222a.824.824 0 00.699-.519.828.828 0 00-.152-.857l-1.731-1.939a2.503 2.503 0 01-.622-1.443l-.222-2.59a.827.827 0 00-1.377-.547l-1.938 1.731a2.493 2.493 0 01-.329.247c-.554-3.598-.21-7.192.993-10.218 1.587-3.994 4.454-6.728 8.29-7.906 3.613-1.11 7.982-.776 12.3.941 3.812 1.515 6.869 3.79 8.84 6.579 1.887 2.669 2.683 5.716 2.322 8.854a3.332 3.332 0 00-1.151.259zm-31.762 7.645l-.08-.94a4.167 4.167 0 00-1.037-2.405l-.628-.703.94-.081a4.16 4.16 0 002.405-1.037l.703-.628.08.94a4.17 4.17 0 001.037 2.405l.628.703-.94.081a4.165 4.165 0 00-2.404 1.036l-.704.629zm31.14 4.608a2.464 2.464 0 01-1.324 1.364.81.81 0 00-.081.04l-9.813 5.569-8.94-3.553 10.042-6.708a1.654 1.654 0 012.129 2.174 1.658 1.658 0 01-.88.893.837.837 0 00-.115.061l-3.163 2.001a.832.832 0 00-.244 1.134.828.828 0 001.13.266l3.111-1.97c.214-.097.416-.217.604-.357l4.475-2.631v-.001a.823.823 0 00.35-.407l3.038-7.643a1.746 1.746 0 01.944-.958 1.62 1.62 0 011.258-.01 1.665 1.665 0 01.897 2.139l-3.417 8.597zm3.398-12.151c.459-3.608-.432-7.111-2.594-10.171-1.605-2.27-3.85-4.222-6.585-5.745 1.662-.495 3.27-1.376 4.142-1.899 2.908-1.742 4.698-3.55 5.581-4.922 6.158 5.865 8.707 14.275 5.77 21.664a17.526 17.526 0 01-5.616 7.405l.861-2.166a3.332 3.332 0 00-1.56-4.166z"/><path d="M28.132 472.825a.827.827 0 001.075-.463 2.486 2.486 0 00-3.292-3.199 2.485 2.485 0 00-1.325 1.363.829.829 0 001.54.612.827.827 0 011.538.612.829.829 0 00.464 1.075zm13.536 1.816a2.489 2.489 0 00-3.226 1.391.829.829 0 001.539.612.828.828 0 111.54.612.83.83 0 001.538.612 2.488 2.488 0 00-1.39-3.227zm-4.315 7.271a.827.827 0 00-1.171-.006c-.022.021-2.226 2.146-5.723.756-3.45-1.371-3.635-4.343-3.642-4.482a.826.826 0 00-1.432-.53.826.826 0 00-.223.59c.006.17.194 4.176 4.686 5.961 4.491 1.786 7.378-.998 7.498-1.118a.826.826 0 00.007-1.171zm-6.594-4.479l3.078 1.224a.829.829 0 00.611-1.54l-2.308-.917.917-2.309a.83.83 0 00-1.539-.612l-1.223 3.079a.826.826 0 00.463 1.075z"/></g><g clip-path="url(#clip12)" fill="#86A184"><path d="M1568.56 31.648c-2.86-5.486-7.82-9.852-13.97-12.294-6.14-2.443-12.75-2.674-18.6-.65-5.89 2.038-10.31 6.116-12.44 11.482-2.34 5.902-1.58 12.636 2.1 18.512.05.701.13 1.404.24 2.109l-2.09.179a.851.851 0 00-.43.16.792.792 0 00-.27.359.865.865 0 00-.05.45c.03.151.1.293.2.407l1.73 1.94c.36.4.58.907.62 1.442l.22 2.59c.02.153.07.3.16.423.1.124.22.22.36.276a.835.835 0 00.86-.152l1.06-.942c1.92 3.622 4.73 6.296 7.98 7.589l10.77 4.282a.846.846 0 00.72-.05l10.12-5.743a4.081 4.081 0 002.16-2.254l1.47-3.688c3.82-2.281 6.67-5.573 8.25-9.536 2.13-5.367 1.71-11.365-1.17-16.892zm-43.47-.85c4.05-10.184 17.01-14.628 28.89-9.905a26.48 26.48 0 017.18 4.254c-.78 1.385-2.78 3.18-5.18 4.618-2.64 1.582-5.16 2.347-6.28 1.902-4.67-1.856-9.43-2.205-13.4-.985-4.34 1.33-7.57 4.4-9.35 8.877a20.126 20.126 0 00-1.29 5.68c-2.15-4.751-2.38-9.877-.57-14.441zm34 18.1c-.41.175-.79.43-1.1.752-.32.322-.57.703-.74 1.12l-2.93 7.38-2.06 1.21a3.376 3.376 0 00-.41-1.555 3.322 3.322 0 00-2.62-1.697 3.304 3.304 0 00-1.59.259.614.614 0 00-.13.072l-11.05 7.383c-2.81-1.243-5.23-3.69-6.9-6.97.31-.181.66-.292 1.02-.324l2.59-.222a.85.85 0 00.43-.16.792.792 0 00.27-.359.865.865 0 00.05-.45.883.883 0 00-.2-.407l-1.73-1.94a2.436 2.436 0 01-.62-1.442l-.22-2.59a.828.828 0 00-.17-.423.81.81 0 00-.8-.322.785.785 0 00-.41.198l-1.94 1.73c-.1.092-.21.175-.33.248-.55-3.598-.21-7.192.99-10.218 1.59-3.994 4.46-6.728 8.29-7.906 3.62-1.11 7.99-.776 12.31.94 3.81 1.516 6.86 3.79 8.83 6.58 1.89 2.67 2.69 5.716 2.33 8.854-.4.017-.79.105-1.16.26zm-31.76 7.644l-.08-.94a4.138 4.138 0 00-1.03-2.404l-.63-.703.94-.08a4.16 4.16 0 002.4-1.038l.71-.628.08.94c.07.892.44 1.736 1.03 2.405l.63.703-.94.08c-.89.079-1.73.442-2.4 1.037l-.71.628zm31.14 4.61a2.417 2.417 0 01-1.32 1.363.372.372 0 00-.08.04l-9.82 5.57-8.93-3.554 10.04-6.708c.4-.157.85-.148 1.25.024s.71.494.88.896c.16.402.16.852 0 1.254a1.67 1.67 0 01-.88.893c-.04.017-.08.038-.12.06l-3.16 2.002a.86.86 0 00-.36.518c-.04.212 0 .433.11.616.12.184.3.314.51.364.22.05.44.014.62-.099l3.12-1.969c.21-.097.41-.217.6-.357l4.47-2.631v-.001a.782.782 0 00.35-.407l3.04-7.643c.09-.214.22-.41.38-.574.16-.164.35-.294.57-.384a1.602 1.602 0 011.25-.01c.4.17.72.488.89.888.16.399.17.848.01 1.251l-3.42 8.597zm3.4-12.152c.46-3.608-.43-7.111-2.59-10.171-1.61-2.27-3.85-4.222-6.59-5.745 1.66-.495 3.27-1.376 4.14-1.899 2.91-1.742 4.7-3.55 5.59-4.922 6.15 5.865 8.7 14.275 5.77 21.664a17.638 17.638 0 01-5.62 7.405l.86-2.166c.3-.765.31-1.613.02-2.382a3.335 3.335 0 00-1.58-1.784z"/><path d="M1538.5 44.147a.827.827 0 001.07-.464 2.469 2.469 0 00-1.39-3.226 2.482 2.482 0 00-1.9.028c-.6.26-1.08.751-1.32 1.364a.82.82 0 00.01.633.818.818 0 001.08.433c.21-.087.37-.25.45-.455a.827.827 0 011.53-.022c.08.202.09.43.01.634a.82.82 0 000 .634c.09.201.26.36.46.441zm13.54 1.816a2.48 2.48 0 00-3.23 1.391.82.82 0 00.01.634c.09.202.25.36.45.442a.827.827 0 001.08-.464.827.827 0 011.53-.022c.09.202.09.43.01.634a.82.82 0 00.01.634.82.82 0 001.08.433.817.817 0 00.45-.455c.24-.613.23-1.296-.03-1.901a2.486 2.486 0 00-1.36-1.326zm-4.32 7.271a.824.824 0 00-1.17-.006c-.02.021-2.23 2.146-5.72.756-3.45-1.371-3.64-4.343-3.65-4.482 0-.219-.1-.425-.26-.573a.82.82 0 00-.59-.22.84.84 0 00-.58.263.81.81 0 00-.22.59c.01.17.19 4.176 4.68 5.961 4.5 1.785 7.38-.998 7.5-1.118a.812.812 0 00.25-.584c0-.22-.09-.43-.24-.587zm-6.59-4.479l3.07 1.224a.827.827 0 001.07-1.097.843.843 0 00-.45-.443l-2.31-.917.91-2.309a.82.82 0 000-.634.829.829 0 00-.46-.441.827.827 0 00-1.07.464l-1.23 3.078a.83.83 0 00.47 1.075z"/></g><g clip-path="url(#clip13)" fill="#86A184"><path d="M1187.92 708.196c.4-.077.67-.474.59-.887a.754.754 0 00-.87-.61.762.762 0 00.28 1.497zm9.21 7.626c-2.54-1.727-5.5-2.438-8.13-1.927-3.38.638-6.27 3.098-8.13 6.925-2.02 4.14-2.59 9.296-1.6 14.519 1.25 6.63 5.16 13.513 11.67 15.974 1.62.582 3.55.772 5.21.444 3.38-.639 6.27-3.098 8.13-6.926 2.02-4.138 2.58-9.294 1.59-14.518-1.06-5.632-3.95-11.227-8.74-14.491zm-14.9 5.695c1.65-3.383 4.15-5.549 7.05-6.096 2.03-.383 4.17.037 6.23 1.212l-14.09 21.086c-.26-.868-.48-1.759-.65-2.663-.93-4.892-.41-9.7 1.46-13.539zm3.27 23.953l3.09-4.632a.781.781 0 00-.2-1.079.754.754 0 00-1.06.2l-2.82 4.222a21.834 21.834 0 01-2.46-4.636l14.75-22.073c1.14.852 2.24 1.881 3.34 3.321l-10.66 15.956a.781.781 0 00.2 1.079c.35.243.82.153 1.06-.2l10.35-15.487c.52.815 1 1.684 1.42 2.596l-15.14 22.658a17.215 17.215 0 01-1.87-1.925zm17.41-1.335c-1.64 3.383-4.15 5.548-7.05 6.096a8.232 8.232 0 01-3.45-.097l10.86-16.256a.781.781 0 00-.2-1.079.754.754 0 00-1.06.2l-11.12 16.639c-.76-.326-1.4-.651-2.31-1.289l14.64-21.908c.47 1.252.88 2.697 1.16 4.155.92 4.893.4 9.701-1.47 13.539z"/><path d="M1202.93 715.413a.754.754 0 00-1.08-.026.78.78 0 00-.01 1.096c3.24 3.435 5.56 8.179 6.54 13.357 2.24 11.847-3.03 22.825-11.75 24.471-8.72 1.647-17.63-6.652-19.87-18.499-2.23-11.847 3.04-22.825 11.75-24.471 3.66-.714 7.42.414 10.55 2.691a.75.75 0 001.06-.18.792.792 0 00-.18-1.082c-1.43-1.035-2.91-1.821-4.42-2.355l-2.54-4.041c-1.17-1.921-3.61-3.074-5.9-2.615-2.31.436-4.09 2.237-4.54 4.587l-.89 4.691c-1.77 1.525-3.27 3.519-4.44 5.92-2.41 4.944-3.1 11.03-1.94 17.138 1.94 11.009 10.86 21.657 21.65 19.742 4.66-.881 8.57-4.127 11.01-9.142 2.41-4.943 3.1-11.03 1.95-17.138-1.04-5.471-3.5-10.494-6.95-14.144zm-18.89-6.762c.32-1.725 1.63-3.046 3.33-3.366 1.55-.315 3.42.424 4.33 1.918l1.65 2.62a13.632 13.632 0 00-9.89 1.872l.58-3.044z"/></g><g clip-path="url(#clip14)" fill="#86A184"><path d="M345.388 536.012a.754.754 0 00.593-.887.754.754 0 00-.876-.609.754.754 0 00-.593.887.755.755 0 00.876.609zm9.209 7.627c-2.535-1.728-5.497-2.439-8.132-1.928-3.379.639-6.267 3.098-8.131 6.926-2.014 4.139-2.58 9.295-1.594 14.518 1.251 6.631 5.155 13.513 11.669 15.975 1.624.581 3.546.771 5.209.443 3.381-.638 6.268-3.098 8.131-6.925 2.015-4.138 2.581-9.295 1.594-14.519-1.06-5.632-3.957-11.227-8.746-14.49zm-14.896 5.695c1.647-3.384 4.152-5.549 7.053-6.097 2.026-.383 4.165.038 6.227 1.212l-14.092 21.087a25.817 25.817 0 01-.652-2.664c-.924-4.892-.404-9.7 1.464-13.538zm3.264 23.953l3.096-4.632a.787.787 0 00-.204-1.079.751.751 0 00-1.058.2l-2.821 4.221a21.735 21.735 0 01-2.46-4.635l14.752-22.074a16.84 16.84 0 013.339 3.321l-10.665 15.957a.787.787 0 00.204 1.079.751.751 0 001.058-.2l10.351-15.487c.524.814.999 1.684 1.424 2.596l-15.143 22.657a17.939 17.939 0 01-1.873-1.924zm17.417-1.336c-1.646 3.384-4.151 5.549-7.052 6.097a8.231 8.231 0 01-3.453-.098l10.865-16.255a.788.788 0 00-.204-1.079.752.752 0 00-1.059.2l-11.12 16.638a11.644 11.644 0 01-2.309-1.288l14.642-21.909a25.946 25.946 0 011.154 4.155c.924 4.893.405 9.702-1.464 13.539z"/><path d="M360.4 543.229a.752.752 0 00-1.077-.026.786.786 0 00-.019 1.097c3.242 3.435 5.565 8.178 6.544 13.356 2.238 11.847-3.033 22.825-11.749 24.472-8.716 1.647-17.628-6.652-19.867-18.499-2.238-11.847 3.033-22.825 11.749-24.472 3.656-.713 7.417.415 10.547 2.691a.751.751 0 001.062-.18.786.786 0 00-.185-1.082c-1.428-1.034-2.908-1.821-4.415-2.355l-2.54-4.041c-1.175-1.92-3.616-3.073-5.901-2.615-2.312.437-4.094 2.237-4.541 4.587l-.891 4.692c-1.764 1.524-3.271 3.519-4.439 5.92-2.407 4.943-3.097 11.029-1.943 17.138 1.944 11.008 10.868 21.657 21.652 19.742 4.662-.881 8.574-4.128 11.015-9.143 2.406-4.943 3.096-11.029 1.942-17.138-1.033-5.471-3.499-10.494-6.944-14.144zm-18.895-6.762c.328-1.724 1.636-3.046 3.332-3.366 1.547-.315 3.426.425 4.33 1.919l1.647 2.62a13.674 13.674 0 00-5.121-.009c-1.7.322-3.3.959-4.766 1.881l.578-3.045z"/></g><g clip-path="url(#clip15)" fill="#86A184"><path d="M954.216 137.674a.755.755 0 00.593-.887.754.754 0 00-.875-.61.755.755 0 00-.593.887c.078.413.47.686.875.61zm9.21 7.626c-2.536-1.727-5.498-2.438-8.132-1.927-3.38.638-6.268 3.097-8.132 6.925-2.014 4.14-2.58 9.296-1.593 14.518 1.25 6.631 5.154 13.513 11.669 15.975 1.623.581 3.545.772 5.208.444 3.381-.639 6.269-3.098 8.132-6.926 2.014-4.138 2.58-9.294 1.593-14.518-1.06-5.633-3.957-11.228-8.745-14.491zm-14.897 5.695c1.648-3.384 4.152-5.549 7.053-6.097 2.026-.383 4.165.038 6.227 1.213l-14.092 21.086a25.602 25.602 0 01-.651-2.663c-.925-4.892-.405-9.701 1.463-13.539zm3.264 23.953l3.096-4.632a.787.787 0 00-.204-1.079.752.752 0 00-1.058.2l-2.821 4.222a21.744 21.744 0 01-2.46-4.636l14.752-22.073a16.84 16.84 0 013.339 3.321l-10.665 15.956a.788.788 0 00.204 1.079.753.753 0 001.059-.2l10.35-15.487c.524.815 1 1.684 1.424 2.596l-15.143 22.658a17.956 17.956 0 01-1.873-1.925zm17.418-1.335c-1.647 3.383-4.152 5.548-7.053 6.096a8.247 8.247 0 01-3.453-.097l10.865-16.256a.787.787 0 00-.204-1.079.751.751 0 00-1.058.2l-11.121 16.639a11.602 11.602 0 01-2.309-1.289l14.642-21.909a25.958 25.958 0 011.154 4.156c.925 4.893.405 9.701-1.463 13.539z"/><path d="M969.228 144.89a.753.753 0 00-1.077-.026.785.785 0 00-.018 1.097c3.241 3.435 5.564 8.178 6.543 13.357 2.238 11.847-3.033 22.825-11.749 24.471-8.716 1.647-17.628-6.652-19.866-18.499-2.238-11.847 3.032-22.825 11.748-24.472 3.656-.713 7.417.415 10.547 2.692a.752.752 0 001.062-.18.788.788 0 00-.184-1.083c-1.429-1.034-2.909-1.82-4.416-2.354l-2.54-4.042c-1.174-1.92-3.616-3.073-5.901-2.614-2.312.436-4.094 2.237-4.541 4.587l-.891 4.691c-1.764 1.525-3.271 3.519-4.439 5.92-2.407 4.943-3.096 11.03-1.942 17.138 1.943 11.008 10.867 21.657 21.651 19.742 4.662-.881 8.574-4.128 11.015-9.143 2.407-4.943 3.096-11.029 1.942-17.137-1.033-5.471-3.499-10.494-6.944-14.145zm-18.895-6.761c.328-1.725 1.636-3.046 3.332-3.367 1.547-.315 3.426.425 4.33 1.919l1.647 2.62c-1.7-.323-3.419-.33-5.121-.008-1.7.321-3.3.958-4.766 1.88l.578-3.044z"/></g><defs><clipPath id="clip0"><path fill="#fff" transform="rotate(-14.873 911.666 -903.317)" d="M0 0h53v53H0z"/></clipPath><clipPath id="clip1"><path fill="#fff" transform="rotate(-14.873 599.426 -4352.7)" d="M0 0h53v53H0z"/></clipPath><clipPath id="clip2"><path fill="#fff" transform="rotate(-14.873 1836.28 -5394.32)" d="M0 0h53v53H0z"/></clipPath><clipPath id="clip3"><path fill="#fff" transform="rotate(-34.421 1443.009 -1878.603)" d="M0 0h52v53H0z"/></clipPath><clipPath id="clip4"><path fill="#fff" transform="rotate(-34.421 1344.714 220.503)" d="M0 0h52v53H0z"/></clipPath><clipPath id="clip5"><path fill="#fff" transform="rotate(27.372 139.318 2551.416)" d="M0 0h53v53H0z"/></clipPath><clipPath id="clip6"><path fill="#fff" transform="rotate(27.372 -37.568 118.068)" d="M0 0h53v53H0z"/></clipPath><clipPath id="clip7"><path fill="#fff" transform="translate(613 66.208)" d="M0 0h53v53H0z"/></clipPath><clipPath id="clip8"><path fill="#fff" transform="rotate(17.603 -2056.809 3082.021)" d="M0 0h53v53H0z"/></clipPath><clipPath id="clip9"><path fill="#fff" transform="translate(1458 737.878)" d="M0 0h53v53H0z"/></clipPath><clipPath id="clip10"><path fill="#fff" transform="rotate(27.87 -1223.979 1256.499)" d="M0 0h52v53H0z"/></clipPath><clipPath id="clip11"><path fill="#fff" transform="rotate(21.676 -1130.423 271.137)" d="M0 0h53v53H0z"/></clipPath><clipPath id="clip12"><path fill="#fff" transform="rotate(21.676 744.327 4001.38)" d="M0 0h53v53H0z"/></clipPath><clipPath id="clip13"><path fill="#fff" transform="rotate(-10.698 4364.77 -5848.543)" d="M0 0h52v53H0z"/></clipPath><clipPath id="clip14"><path fill="#fff" transform="rotate(-10.698 3024.004 -1435.332)" d="M0 0h52v53H0z"/></clipPath><clipPath id="clip15"><path fill="#fff" transform="rotate(-10.698 1201.202 -4885.782)" d="M0 0h52v53H0z"/></clipPath></defs></svg>