<svg width="80" height="74" fill="none" xmlns="http://www.w3.org/2000/svg"><g clip-path="url(#clip0)"><path d="M5.736 55.654C2.156 50.244.07 43.92.002 37.154-.201 17.01 17.924.31 40 .31c22.092 0 40 16.342 40 36.5 0 6.254-1.724 12.141-4.761 17.287-.57.964-1.683 1.556-2.883 1.556H5.736z" fill="#fff"/><path d="M54.688 27.4v11.407c0 .788-.7 1.426-1.563 1.426H43.75c-.863 0-1.563-.638-1.563-1.426V27.401c0-.788.7-1.426 1.563-1.426h9.375c.863 0 1.563.638 1.563 1.426z" fill="#2476ED"/><path d="M50.023 7.44v40.416H6.273V30.252L14.085 7.44h35.938z" fill="#FECBAA"/><path d="M9.904 30.252v17.604H4.159V30.252L11.972 7.44h5.744L9.904 30.252z" fill="#ECE9CB"/><path d="M75.29 54.01C68.553 65.497 55.277 73.31 40 73.31c-15.276 0-28.552-7.814-35.29-19.301h70.58z" fill="#C9885B"/><path d="M55.703 60.479H43.951c-.647 0-1.172-.479-1.172-1.07 0-.59.525-1.069 1.172-1.069h11.752c.647 0 1.172.48 1.172 1.07 0 .59-.525 1.069-1.172 1.069zm-9.47 3.181c0-.59-.524-1.069-1.171-1.069h-7.526c-.647 0-1.172.479-1.172 1.07 0 .59.525 1.069 1.172 1.069h7.526c.647 0 1.172-.479 1.172-1.07zm9.025 3.983c0-.59-.524-1.07-1.172-1.07h-3.609c-.647 0-1.172.48-1.172 1.07 0 .59.525 1.07 1.172 1.07h3.61c.647 0 1.171-.48 1.171-1.07z" fill="#B56D3C"/><path d="M80 25.975v19.743c0 1.18-1.05 2.138-2.344 2.138H52.344c-1.295 0-2.344-.957-2.344-2.138V15.26c0-1.18 1.05-2.138 2.344-2.138h8.593c3.48 0 6.517 1.73 8.135 4.298h1.553c5.178 0 9.375 3.83 9.375 8.555z" fill="#E9F3FE"/><path d="M56.875 47.856h-4.531c-1.295 0-2.344-.957-2.344-2.138V15.26c0-1.18 1.05-2.138 2.344-2.138h4.531c-1.294 0-2.344.957-2.344 2.139v30.457c0 1.18 1.05 2.138 2.344 2.138z" fill="#C8E2FD"/><path d="M80 34.53H64.844c-1.295 0-2.344-.958-2.344-2.139V19.56c0-1.181 1.05-2.139 2.344-2.139h5.781c5.178 0 9.375 3.83 9.375 8.555v8.555z" fill="#D3E1F4"/><path d="M67.716 34.53h-2.872c-1.295 0-2.344-.958-2.344-2.139V19.56c0-1.181 1.05-2.139 2.344-2.139h2.872c-1.294 0-2.344.958-2.344 2.14V32.39c0 1.181 1.05 2.139 2.344 2.139z" fill="#B2C6E2"/><path d="M70.313 48.788c0 4.724-4.198 8.554-9.376 8.554-5.177 0-9.374-3.83-9.374-8.554 0-4.725 4.197-8.555 9.374-8.555 5.178 0 9.376 3.83 9.376 8.555zm-42.188-8.555c-5.178 0-9.375 3.83-9.375 8.555 0 4.724 4.197 8.554 9.375 8.554s9.375-3.83 9.375-8.554c0-4.725-4.197-8.555-9.375-8.555z" fill="#5B6B5C"/><path d="M65.625 48.788c0 2.362-2.099 4.277-4.688 4.277-2.588 0-4.687-1.915-4.687-4.277 0-2.363 2.099-4.278 4.688-4.278 2.588 0 4.687 1.915 4.687 4.278zm-37.5-4.278c-2.589 0-4.688 1.915-4.688 4.278 0 2.362 2.1 4.277 4.688 4.277 2.589 0 4.688-1.915 4.688-4.277 0-2.363-2.1-4.278-4.688-4.278z" fill="#4D545F"/><path d="M32.813 48.788c0 .602-.137 1.174-.382 1.694a5.057 5.057 0 01-1.857.349c-2.59 0-4.688-1.916-4.688-4.278 0-.602.137-1.174.382-1.694a5.061 5.061 0 011.857-.349c2.59 0 4.688 1.915 4.688 4.278zm28.125-4.278c-.66 0-1.288.125-1.857.349a3.946 3.946 0 00-.382 1.694c0 2.363 2.098 4.278 4.687 4.278.66 0 1.288-.125 1.857-.35a3.936 3.936 0 00.382-1.693c0-2.363-2.098-4.278-4.687-4.278z" fill="#ACADB0"/><path d="M18.672 59.422c-4.272 3.897-11.197 3.897-15.468 0-4.272-3.898-4.272-10.217 0-14.115l5.226-4.769c-1.92-.67-3.437-2.084-4.123-3.857h13.262c-.687 1.773-2.203 3.188-4.124 3.857l5.227 4.77c4.271 3.897 4.271 10.216 0 14.114z" fill="#7F9681"/><path d="M12.89 62.185c-3.407.562-7.052-.36-9.686-2.764-4.272-3.897-4.272-10.216 0-14.114l5.226-4.77c-1.92-.668-3.437-2.084-4.123-3.857h3.906c.473 1.221 1.339 2.272 2.46 3.027.779.525.864 1.56.178 2.186L7.11 45.307c-4.272 3.897-4.272 10.217 0 14.114 1.637 1.494 3.663 2.415 5.78 2.764z" fill="#7F9681"/><path d="M30.144 70.388c-4.271 3.897-11.196 3.897-15.467 0-4.272-3.898-4.272-10.217 0-14.115l5.226-4.769c-1.92-.669-3.437-2.084-4.124-3.857h13.263c-.687 1.773-2.204 3.188-4.124 3.857l5.226 4.77c4.272 3.897 4.272 10.216 0 14.114z" fill="#98C59C"/><path d="M24.07 73.196c-3.323.463-6.835-.473-9.393-2.808-4.272-3.898-4.272-10.217 0-14.115l5.226-4.769c-1.92-.669-3.437-2.084-4.124-3.857h3.32c.48 1.242 1.37 2.31 2.52 3.067.753.496.828 1.497.17 2.097l-3.794 3.462c-4.27 3.898-4.27 10.217 0 14.115 1.713 1.562 3.852 2.498 6.075 2.808z" fill="#A1B9A3"/><path d="M21.11 65.504c0 .59-.525 1.07-1.172 1.07h-1.822c-.788 0-1.505-.397-1.87-1.034a1.778 1.778 0 01.139-1.99l1.21-1.589c.37-.484 1.1-.604 1.632-.266.53.337.662 1.003.292 1.488l-.955 1.252h1.374c.647 0 1.172.479 1.172 1.07zm7.326-1.955l-.712-.934c-.37-.485-1.1-.604-1.632-.267-.53.337-.662 1.004-.292 1.488l.456.599h-2.568c-.647 0-1.172.478-1.172 1.069 0 .59.525 1.07 1.172 1.07h3.017c.788 0 1.505-.397 1.87-1.034.365-.638.312-1.4-.139-1.99zm-3.878-2.144c.232 0 .465-.062.669-.192.531-.337.662-1.004.292-1.488l-1.377-1.806c-.394-.517-1.042-.825-1.732-.825s-1.337.308-1.73.825l-.798 1.045c-.37.485-.239 1.15.292 1.488.532.338 1.262.218 1.631-.267l.605-.792 1.186 1.553c.227.3.592.46.962.46z" fill="#E9F3FE"/></g><defs><clipPath id="clip0"><path fill="#fff" transform="translate(0 .311)" d="M0 0h80v73H0z"/></clipPath></defs></svg>