<svg width="70" height="67" fill="none" xmlns="http://www.w3.org/2000/svg"><g clip-path="url(#clip0)"><path d="M14.215 16.302L21.72 4.239c.872-1.402 2.454-2.257 4.159-2.25l12.788.06-13.03 20.801-11.422-6.548z" fill="#7F9681"/><path d="M52.443 23.002l5.636-12.715-4.158 2.384-5.013-8.367c-.862-1.44-2.467-2.323-4.202-2.314l-18.05-.015h2.441c1.673.017 3.218.99 4.078 2.364l9.324 14.88-4.434 2.543 14.378 1.24z" fill="#D3E7B5"/><path d="M53.92 12.671l-5.012-8.367c-.862-1.44-2.467-2.323-4.202-2.314h-6.108c1.734-.01 3.34.875 4.202 2.314l6.825 11.237-3.066 6.953 5.884.508 5.636-12.715-4.158 2.384zM26.657 1.975l2.484.002-.044-.002h-2.44z" fill="#8BBD8F"/><path d="M61.63 26.189l7.166 12.25a4.432 4.432 0 01-.044 4.57l-6.447 10.566L49.99 32.378l11.64-6.19z" fill="#7F9681"/><path d="M68.796 38.439l-7.167-12.25-4.659 2.477 5.717 9.773a4.431 4.431 0 01-.043 4.57l-3.318 5.438 2.979 5.128 6.447-10.566a4.431 4.431 0 00.044-4.57z" fill="#7F9681"/><path d="M36.45 54.512l8.69 11.027-.078-4.637 10.08.03c1.734.006 3.337-.882 4.196-2.323l7.818-12.926c-.928 1.725-2.506 2.455-4.179 2.481H44.846l-.084-4.944-8.312 11.292z" fill="#D3E7B5"/><path d="M66.91 46.091c.085-.13.169-.264.246-.408l-.247.408zm-3.933 2.073h-3.43L53.229 58.61c-.79 1.327-2.213 2.183-3.788 2.306l5.7.018c1.735.005 3.338-.883 4.197-2.324l7.571-12.518c-.947 1.43-2.398 2.05-3.932 2.073z" fill="#8BBD8F"/><path d="M29.668 60.959l-14.673.079c-1.705.009-3.288-.846-4.16-2.246l-6.55-10.509 25.348-.064.035 12.74z" fill="#7F9681"/><path d="M15.929 26.177L1.637 28.124l4.281 2.177-4.902 8.426a4.433 4.433 0 00.097 4.638l9.306 14.797-1.26-2c-.848-1.38-.774-3.148.011-4.562l8.507-15.322 4.564 2.32-6.312-12.42z" fill="#D3E7B5"/></g><defs><clipPath id="clip0"><path fill="#fff" transform="translate(.409 .815)" d="M0 0h69v66H0z"/></clipPath></defs></svg>