<svg width="81" height="81" fill="none" xmlns="http://www.w3.org/2000/svg"><g clip-path="url(#clip0)"><path d="M39.901 75.6a1.208 1.208 0 01-.034-2.415 1.208 1.208 0 01.104 2.412l-.035.001-.035.001zm-4.854-.183a1.25 1.25 0 01-.143-.008H34.9a1.204 1.204 0 01-1.077-1.322 1.21 1.21 0 011.325-1.08l.037.004a1.207 1.207 0 01-.14 2.406zm9.698-.372a1.207 1.207 0 01-.232-2.392l.023-.004a1.207 1.207 0 01.453 2.371l-.009.002c-.08.015-.157.023-.235.023zm-14.488-.548a1.26 1.26 0 01-.319-.042l-.007-.002a1.208 1.208 0 01.618-2.335l.025.007a1.207 1.207 0 01-.317 2.372zm19.193-.742a1.208 1.208 0 01-.413-2.342l.02-.006a1.207 1.207 0 11.816 2.272l-.01.004a1.222 1.222 0 01-.413.072zm-23.792-.904a1.19 1.19 0 01-.492-.107l-.017-.007a1.207 1.207 0 11.997-2.2c.608.275.884.993.61 1.6a1.205 1.205 0 01-1.098.714zm28.239-1.091a1.207 1.207 0 01-.57-2.273 1.208 1.208 0 011.164 2.116l-.027.015a1.202 1.202 0 01-.567.142zm10.965-10.792l.008.005-.128-.09.12.085zm-55.73-5.263a1.21 1.21 0 01-1.12-.753l-.003-.008a1.207 1.207 0 112.232-.922l.008.021a1.207 1.207 0 01-1.117 1.662zm59.927-2.317a1.208 1.208 0 01-1.15-1.577 1.21 1.21 0 011.505-.8c.638.195.998.867.805 1.504l-.015.048c-.169.505-.64.825-1.145.825zm-61.404-2.33a1.208 1.208 0 01-1.173-.928l-.004-.016a1.208 1.208 0 012.349-.56l.003.015a1.207 1.207 0 01-1.175 1.488zM70.17 48.64a1.207 1.207 0 01-1.193-1.404 1.21 1.21 0 011.37-1.013c.66.098 1.115.71 1.019 1.369l-.008.05a1.208 1.208 0 01-1.188.998zM6.91 46.236c-.62 0-1.146-.473-1.201-1.1l-.004-.05a1.208 1.208 0 012.41-.156 1.209 1.209 0 01-1.205 1.306zm63.629-2.459c-.667 0-1.208-.54-1.208-1.207v-.089a1.207 1.207 0 112.415 0v.089c0 .667-.54 1.207-1.207 1.207zM6.907 41.361a1.207 1.207 0 01-1.204-1.309 1.207 1.207 0 012.41.156l-.005.05a1.207 1.207 0 01-1.2 1.103zm63.253-2.518a1.207 1.207 0 01-1.188-.998l-.008-.05a1.208 1.208 0 012.388-.355 1.207 1.207 0 01-1.192 1.403zm.202-1.254l-.204.03.204-.03zM7.64 36.541a1.21 1.21 0 01-1.177-1.486 1.208 1.208 0 012.36.51l-.01.049a1.207 1.207 0 01-1.174.927zm61.412-2.44c-.508 0-.982-.324-1.151-.831l-.014-.042a1.206 1.206 0 112.308-.71v.002a1.201 1.201 0 01-1.143 1.582zM9.103 31.887a1.206 1.206 0 01-1.118-1.662l.006-.015a1.207 1.207 0 112.237.908l-.006.015c-.19.47-.642.754-1.119.754zm58.118-2.306c-.44 0-.865-.241-1.08-.658l-.018-.035a1.207 1.207 0 112.168-1.066v.003a1.202 1.202 0 01-.52 1.621 1.2 1.2 0 01-.55.135zm-55.956-2.068a1.207 1.207 0 01-1.032-1.832 1.208 1.208 0 112.063 1.253 1.205 1.205 0 01-1.031.579zm53.45-2.12c-.387 0-.768-.186-1-.53a1.201 1.201 0 01.284-1.679 1.213 1.213 0 011.687.287l.026.036a1.208 1.208 0 01-.998 1.886zM14.07 23.52a1.208 1.208 0 01-.928-1.979l.01-.012a1.207 1.207 0 111.858 1.542l-.01.012a1.203 1.203 0 01-.93.437zm47.534-1.886a1.2 1.2 0 01-.871-.37 1.209 1.209 0 01.016-1.71 1.206 1.206 0 011.706.017l.02.02a1.207 1.207 0 01-.871 2.043zm-44.155-1.632a1.207 1.207 0 01-.8-2.111l.004-.005a1.209 1.209 0 011.615 1.795l-.02.018c-.23.203-.515.303-.799.303zm40.51-1.608c-.249 0-.498-.076-.713-.234l-.041-.03a1.207 1.207 0 011.48-1.909 1.207 1.207 0 01-.727 2.172zm.108-1.373l-.121.155.12-.155zm-36.746.017a1.206 1.206 0 01-.653-2.224 1.207 1.207 0 011.344 2.007l-.043.028a1.2 1.2 0 01-.648.189zm32.539-1.295c-.19 0-.384-.045-.564-.14l-.03-.016a1.207 1.207 0 011.164-2.116l.004.002a1.21 1.21 0 01.488 1.634 1.206 1.206 0 01-1.062.636zM25.6 14.7a1.208 1.208 0 01-.5-2.307l.028-.012a1.207 1.207 0 11.967 2.212c-.16.072-.33.107-.496.107z" fill="#A7C7D3"/><path d="M48.018 65.99L29.841 47.815a2.91 2.91 0 114.117-4.116l-4.681-4.68a2.905 2.905 0 01-.817-2.525 2.893 2.893 0 01.814-1.595 2.91 2.91 0 013.842-.237l-1.781-1.78a2.91 2.91 0 01-.816-2.535 2.882 2.882 0 01.811-1.586 2.88 2.88 0 011.597-.814 2.909 2.909 0 012.525.817l2.04 2.04a2.911 2.911 0 114.116-4.116L53.42 38.5l.032-.047a5.294 5.294 0 012.057-1.278 5.333 5.333 0 015.478 1.284l5.508 5.508a5.65 5.65 0 011.655 3.988l.003 3.446a6.082 6.082 0 001.783 4.296l1.228 1.228-14.049 14.048-1.57-1.57a6.086 6.086 0 00-3.903-1.769 5.648 5.648 0 01-3.625-1.643z" fill="#FECBAA"/><path d="M56.203 71.885L72.15 55.94a1.345 1.345 0 011.903 0l5.678 5.679a1.345 1.345 0 010 1.902L63.786 79.466a1.345 1.345 0 01-1.902 0l-5.68-5.678a1.346 1.346 0 010-1.903z" fill="#A3C4A6"/><path d="M72.573 63.097a1.206 1.206 0 101.705-1.704 1.206 1.206 0 10-1.705 1.704z" fill="#FF8812"/><path d="M57.488 42.567L53.421 38.5l.033-.047a5.294 5.294 0 012.056-1.278l3.685 3.684a1.208 1.208 0 01-1.707 1.708z" fill="#FFAE85"/><path d="M32.231 65.993l18.177-18.177a2.911 2.911 0 10-4.116-4.117l4.68-4.68a2.905 2.905 0 00.818-2.524 2.89 2.89 0 00-.814-1.595 2.91 2.91 0 00-3.842-.237l1.78-1.781a2.907 2.907 0 00.816-2.535 2.88 2.88 0 00-.81-1.586 2.888 2.888 0 00-1.598-.813 2.907 2.907 0 00-2.524.817l-2.04 2.04a2.912 2.912 0 00.003-4.12 2.914 2.914 0 00-4.12.003L26.83 38.501l-.033-.046a5.295 5.295 0 00-2.057-1.278 5.333 5.333 0 00-5.477 1.283l-5.508 5.509a5.65 5.65 0 00-1.655 3.988l-.004 3.445c0 1.61-.642 3.156-1.782 4.296l-1.228 1.228 14.048 14.049 1.57-1.57a6.085 6.085 0 013.904-1.769 5.649 5.649 0 003.624-1.643z" fill="#FECBAA"/><path d="M24.046 71.887L8.1 55.94a1.345 1.345 0 00-1.902 0L.519 61.62a1.345 1.345 0 000 1.902L16.465 79.47a1.346 1.346 0 001.903 0l5.678-5.68a1.346 1.346 0 000-1.902z" fill="#7F9681"/><path d="M18.604 74.025a1.206 1.206 0 10-1.704-1.704 1.206 1.206 0 101.704 1.704z" fill="#EF6085"/><path d="M22.762 42.569L26.83 38.5l-.033-.046a5.295 5.295 0 00-2.057-1.278l-3.685 3.684a1.208 1.208 0 001.708 1.708z" fill="#FFAE85"/><path d="M51.75 22.43v25.706a2.911 2.911 0 11-5.82 0v6.62a2.905 2.905 0 01-1.208 2.362 2.888 2.888 0 01-1.703.552 2.91 2.91 0 01-2.885-2.55v2.52a2.91 2.91 0 01-1.215 2.37 2.883 2.883 0 01-1.695.547 2.888 2.888 0 01-1.705-.554 2.91 2.91 0 01-1.207-2.363v-2.885c0 .973-.476 1.835-1.208 2.363a2.881 2.881 0 01-1.703.552 2.913 2.913 0 01-2.91-2.915V38.05l-.056.01a5.302 5.302 0 01-2.359-.55 5.334 5.334 0 01-2.965-4.781v-7.79a5.65 5.65 0 011.65-3.99l2.434-2.439a6.08 6.08 0 001.777-4.298v-1.737H48.84v2.22c0 1.476.538 2.902 1.51 4.011a5.648 5.648 0 011.401 3.725z" fill="#FEDFC5"/><path d="M50.412 43.696a2.909 2.909 0 00-4.12.004l4.68-4.68a2.906 2.906 0 00.818-2.525 2.889 2.889 0 00-.814-1.595 2.912 2.912 0 00-3.843-.237l1.782-1.781a2.91 2.91 0 00.816-2.535 2.885 2.885 0 00-.812-1.586 2.886 2.886 0 00-1.596-.813 2.91 2.91 0 00-2.525.817l-2.04 2.04a2.912 2.912 0 00.003-4.12 2.914 2.914 0 00-4.12.003L26.83 38.501l-.033-.046a5.295 5.295 0 00-2.057-1.278 5.35 5.35 0 00-2.764-.171 7.751 7.751 0 004.102 3.102v14.647a5.333 5.333 0 006.365 5.229 5.31 5.31 0 001.656 1.97c.442.323.924.57 1.431.74l14.879-14.878a2.911 2.911 0 00.004-4.12z" fill="#FFAE85"/><path d="M54.164 48.136v-10.28a5.39 5.39 0 00-.712.597l-.032.047-11.813-11.813a2.913 2.913 0 00-4.12-.004 2.911 2.911 0 00.003 4.12l-2.04-2.04a2.909 2.909 0 00-2.524-.817 2.885 2.885 0 00-1.597.814 2.882 2.882 0 00-.85 2.059c0 .744.286 1.492.855 2.061l1.781 1.781a2.911 2.911 0 00-3.842.237 2.893 2.893 0 00-.852 2.06c0 .745.286 1.49.855 2.06l4.68 4.68a2.909 2.909 0 00-2.524-.817 2.887 2.887 0 00-1.595.814 2.913 2.913 0 00.003 4.12L42.019 59.99c.327.062.661.094 1 .094 1.129 0 2.208-.35 3.116-1.008a5.292 5.292 0 002.21-4.321v-1.313a5.333 5.333 0 005.82-5.307z" fill="#FFAE85"/><path d="M51.75 22.43v25.706a2.911 2.911 0 01-2.91 2.915c-.044 0-.09 0-.137-.003a2.88 2.88 0 01-1.563-.547l-.004-.002a2.91 2.91 0 01-1.207-2.363v6.62a2.905 2.905 0 01-1.207 2.362 2.888 2.888 0 01-1.703.552 2.91 2.91 0 01-2.885-2.55v2.52a2.91 2.91 0 01-1.215 2.37 2.883 2.883 0 01-1.695.547 2.888 2.888 0 01-1.705-.554 2.91 2.91 0 01-1.207-2.363v-2.885c0 .973-.476 1.835-1.208 2.363a2.881 2.881 0 01-1.703.552 2.913 2.913 0 01-2.91-2.915V38.05l-.056.01a5.302 5.302 0 01-2.359-.55 5.334 5.334 0 01-2.965-4.781v-7.79a5.65 5.65 0 011.65-3.99l2.434-2.439a6.061 6.061 0 001.505-2.502c.18-.579.272-1.19.272-1.796v-1.737H48.84v2.22c0 .497.054 1.022.192 1.501a6.054 6.054 0 001.318 2.51 5.693 5.693 0 011.401 3.725z" fill="#FEDFC5"/><path d="M51.75 22.43v25.706a2.911 2.911 0 01-2.91 2.915c-.044 0-.09 0-.137-.003a2.88 2.88 0 01-1.563-.547l.05-24.77c0-.15-.034-.387-.097-.688-1.11-5.41-5.678-9.036-11.2-9.036H28.7c.18-.58.272-1.19.272-1.796v-1.737H48.84v2.22c0 .497.054 1.022.192 1.501a6.053 6.053 0 001.318 2.51 5.693 5.693 0 011.4 3.725z" fill="#FECBAA"/><path d="M50.13 12.475H27.58a1.345 1.345 0 01-1.346-1.346V3.098c0-.743.602-1.346 1.345-1.346h22.552c.742 0 1.345.603 1.345 1.346v8.031c0 .743-.603 1.346-1.345 1.346z" fill="#ADE1B1"/><path d="M32.607 7.114a1.206 1.206 0 10-2.41 0 1.206 1.206 0 102.41 0z" fill="#5186FF"/><path d="M47.137 34.683V50.5a2.908 2.908 0 01-1.208-2.364v6.62a2.903 2.903 0 01-1.207 2.363V34.683a1.208 1.208 0 012.415 0zm-5.803 0v22.448a2.91 2.91 0 01-1.2-2.01v2.519a2.909 2.909 0 01-1.215 2.37V34.682a1.208 1.208 0 012.415 0zm-5.815 0v25.32a2.91 2.91 0 01-1.207-2.363v-2.885a2.91 2.91 0 01-1.207 2.363V34.683a1.208 1.208 0 012.414 0zm-7.028-2.385v5.752l-.056.009a5.296 5.296 0 01-2.358-.55v-5.211a1.208 1.208 0 012.414 0z" fill="#FECBAA"/></g><defs><clipPath id="clip0"><path fill="#fff" transform="translate(.125 .815)" d="M0 0h80v80H0z"/></clipPath></defs></svg>