<svg width="78" height="75" fill="none" xmlns="http://www.w3.org/2000/svg"><g clip-path="url(#clip0)"><path d="M58.791 43.387c0-13.45-11.315-24.353-25.273-24.353S8.245 29.938 8.245 43.387c0 13.45 11.315 24.353 25.273 24.353S58.79 56.837 58.79 43.387z" fill="#89C8FD"/><path d="M33.518 19.034c-1.297 0-2.572.095-3.816.277 12.147 1.772 21.456 11.877 21.456 24.076 0 12.2-9.31 22.305-21.456 24.077 1.244.182 2.519.276 3.816.276 13.958 0 25.273-10.903 25.273-24.353 0-13.45-11.315-24.353-25.273-24.353z" fill="#60B6FF"/><path d="M30.233 28.499c-3.893 2.345-6.814 6.096-4.623 10.316 2.19 4.22 7.056 2.58 11.558 1.993 4.502-.586 1.095 12.779 3.771 16.061 2.677 3.283 10.22-3.282 9.49-7.503-1.08-6.248-1.46-8.44 7.3-12.895l.023-.009C54.8 26.854 45.862 19.724 35.1 19.083v.037s-.974 7.034-4.867 9.379z" fill="#C0DFC3"/><path d="M49.352 24.408l.006.004-.005-.004zm3.091 2.841zM16.728 54.407c-1.169-1.713 2.069-5.744 2.798-8.792.73-3.048-3.65-2.814-4.988-3.869-1.338-1.055-3.163-5.627-4.502-6.682l-.213-.162a23.507 23.507 0 00-1.578 8.485c0 8.05 4.053 15.186 10.3 19.62l.008-.51s.973-3.986-1.825-8.09zm33.702-5.041l-.016-.09a23.634 23.634 0 01-2.1 5.345c1.438-1.63 2.398-3.619 2.115-5.255z" fill="#C0DFC3"/><path d="M35.1 19.084v.036s-.082.587-.29 1.478c8.862 3.223 15.35 11.108 16.243 20.553 1.117-1.468 3.16-2.892 6.676-4.68l.023-.009C54.8 26.854 45.862 19.724 35.1 19.083z" fill="#7F9681"/><path d="M33.484 74.815a34.38 34.38 0 01-5.395-.427c-8.613-1.367-16.156-5.876-21.24-12.694-5.085-6.82-7.102-15.133-5.68-23.41.104-.6.695-1.005 1.317-.906.624.099 1.046.665.943 1.265-1.323 7.696.552 15.428 5.281 21.769 4.728 6.341 11.743 10.533 19.753 11.805C44.998 74.842 60.669 64.049 63.4 48.16c1.322-7.697-.553-15.428-5.282-21.77-4.728-6.34-11.743-10.533-19.752-11.804-.624-.099-1.046-.665-.944-1.265.104-.6.694-1.005 1.316-.906 8.614 1.367 16.157 5.875 21.241 12.694 5.085 6.82 7.102 15.133 5.68 23.41-1.423 8.276-6.114 15.526-13.21 20.411a33.345 33.345 0 01-18.966 5.885z" fill="#7F9681"/><path d="M26.533 27.392C14.31 25.4 6.729 10.611 6.729 10.611S18.963-.947 31.185 1.046c12.222 1.992 19.803 16.78 19.803 16.78s-12.233 11.559-24.455 9.566z" fill="#7F9681"/><path d="M31.185 1.046c-2.334-.38-4.668-.266-6.917.167C35.98 3.74 43.203 17.827 43.203 17.827s-8.008 7.564-17.54 9.398c.288.062.577.12.87.167 12.221 1.993 24.455-9.565 24.455-9.565S43.407 3.038 31.185 1.046z" fill="#7F9681"/><path d="M50.297 16.599L38.346 14.66 27.18.846c-.89.05-1.773.16-2.643.317l10.47 12.957-9.012-1.461-7.69-9.562c-.72.313-1.422.645-2.098.989l6.46 8.033L7.766 9.702c-.67.562-1.037.909-1.037.909s.246.478.717 1.271l14.821 2.403-8.22 6.108c.53.524 1.085 1.042 1.665 1.544l9.628-7.153 9.54 1.546-12.975 9.649c.805.36 1.638.674 2.496.925L37.953 16.83l11.96 1.939c.693-.581 1.075-.941 1.075-.941s-.236-.461-.69-1.228zm9.004-3.562C62.58 5.582 73.94 3.072 73.94 3.072s6.044 9.578 2.766 17.033c-3.279 7.456-14.639 9.966-14.639 9.966s-6.044-9.578-2.766-17.034z" fill="#7F9681"/><path d="M73.94 3.072s-2.584.57-5.642 1.977c1.569 3.194 4.056 9.677 1.69 15.056-1.714 3.9-5.64 6.447-8.996 7.99.606 1.232 1.075 1.976 1.075 1.976s11.36-2.51 14.639-9.966c3.278-7.455-2.767-17.033-2.767-17.033z" fill="#7F9681"/><path d="M77.634 13.956l-8.736 3.522L74.635 4.3c-.41-.78-.695-1.228-.695-1.228s-.54.12-1.42.383l-5.927 13.62-3.676-8.693a15.451 15.451 0 00-1.743 1.724l4.165 9.849-3.912 8.989c.382.716.64 1.127.64 1.127s.588-.13 1.533-.418l4.04-9.281 9.992-4.028c.066-.798.062-1.598.003-2.388z" fill="#7F9681"/></g><defs><clipPath id="clip0"><path fill="#fff" transform="translate(.725 .815)" d="M0 0h77v74H0z"/></clipPath></defs></svg>