<svg width="77" height="74" fill="none" xmlns="http://www.w3.org/2000/svg"><g clip-path="url(#clip0)"><path d="M56.82 35.74v1.52c0 2.18-.72 4.304-2.06 6.074l-3.35 4.433v23.37c0 1.202-1.028 2.178-2.297 2.178H25.227c-1.269 0-2.298-.975-2.298-2.179V19.587H56.82v16.152z" fill="#FED2A4"/><path d="M56.82 21.123v-1.536H22.93v51.549c0 1.204 1.029 2.179 2.298 2.179h8.976a2.074 2.074 0 01-.102-.642V57.877c2.784-1.598 4.65-4.497 4.65-7.802v-4.386c0-3.682-1.512-7.142-4.259-9.746-.128-.121-.259-.24-.391-.356V21.123h22.72z" fill="#FFBD86"/><path d="M73.015 2.727c.94 0 1.702.722 1.702 1.613v29.634c0 .89-.762 1.613-1.702 1.613H3.985c-.94 0-1.702-.722-1.702-1.613V4.34c0-.891.762-1.613 1.702-1.613h69.03z" fill="#9DB59F"/><path d="M18.097 33.974V4.34c0-.891.762-1.613 1.702-1.613H3.985c-.94 0-1.702.722-1.702 1.613v29.634c0 .89.762 1.613 1.702 1.613h15.814c-.94 0-1.702-.722-1.702-1.614z" fill="#7F9681"/><path d="M25.643 19.773c-1.582-1.502-3.686-2.33-5.926-2.33l-.172.002c-4.525.087-8.206 3.688-8.206 8.026v10.116H34.1a14.81 14.81 0 00-5.657-3.083.465.465 0 01-.348-.44v-6.678c0-2.123-.873-4.118-2.452-5.613z" fill="#7F9681"/><path d="M66.651 7.142c0 1.785 1.526 3.232 3.41 3.232V27.94c-1.884 0-3.41 1.447-3.41 3.232H10.349c0-1.785-1.526-3.232-3.41-3.232V10.374c1.884 0 3.41-1.447 3.41-3.232h56.302z" fill="#DBF1D0"/><path d="M25.643 19.773c-1.58-1.502-3.686-2.33-5.925-2.33l-.173.002h-.014c-.783.017-1.434-.564-1.434-1.306V7.142H10.35c0 1.785-1.526 3.232-3.41 3.232V27.94c1.884 0 3.41 1.447 3.41 3.232h17.746v-5.786c0-2.123-.872-4.119-2.451-5.613z" fill="#D5EFC8"/><path d="M38.51 27.065c5.011 0 9.075-3.852 9.075-8.604 0-4.752-4.064-8.604-9.076-8.604-5.012 0-9.075 3.852-9.075 8.604 0 4.752 4.063 8.604 9.075 8.604z" fill="#9DB59F"/><path d="M52.444 2.821v4.32c0 2.042-1.747 3.698-3.902 3.698-2.155 0-3.9-1.656-3.9-3.699V2.821c0-1.385 1.183-2.506 2.644-2.506H49.8c1.461 0 2.645 1.121 2.645 2.506zM44.64 7.14v1.531c0 2.043-1.746 3.698-3.9 3.698-2.155 0-3.901-1.655-3.901-3.698v-5.85c0-1.385 1.183-2.506 2.643-2.506h2.515c1.46 0 2.644 1.121 2.644 2.506v4.32zm-7.801 1.531v1.246c0 2.043-1.748 3.699-3.902 3.699-2.155 0-3.901-1.656-3.901-3.699V2.821c0-1.385 1.184-2.506 2.645-2.506h2.513c1.46 0 2.645 1.121 2.645 2.506v5.85z" fill="#FED2A4"/><path d="M29.036 2.821v5.85c0 2.043-1.747 3.698-3.901 3.698-2.155 0-3.901-1.655-3.901-3.698v-5.85c0-1.385 1.183-2.506 2.643-2.506h2.515c1.46 0 2.644 1.121 2.644 2.506z" fill="#FED2A4"/><path d="M48.396 7.14V2.821c0-1.182.87-2.17 2.03-2.435a2.802 2.802 0 00-.627-.071h-2.513c-1.46 0-2.645 1.121-2.645 2.506v4.32c0 2.042 1.746 3.698 3.901 3.698.68 0 1.32-.166 1.878-.456-1.206-.63-2.024-1.845-2.024-3.243zm-7.802 1.531v-5.85c0-1.182.869-2.17 2.03-2.435a2.816 2.816 0 00-.627-.071h-2.515c-1.46 0-2.643 1.121-2.643 2.506v5.85c0 2.043 1.746 3.698 3.9 3.698.681 0 1.321-.165 1.878-.456-1.206-.629-2.023-1.845-2.023-3.242zM32.79 9.917V2.821c0-1.182.873-2.17 2.033-2.435a2.854 2.854 0 00-.63-.071h-2.512c-1.461 0-2.645 1.121-2.645 2.506v7.096c0 2.043 1.746 3.699 3.9 3.699.681 0 1.321-.166 1.878-.456-1.206-.63-2.023-1.845-2.023-3.243zm-7.801-1.246v-5.85c0-1.182.87-2.17 2.03-2.435a2.84 2.84 0 00-.627-.071h-2.515c-1.46 0-2.643 1.121-2.643 2.506v5.85c0 2.043 1.746 3.698 3.9 3.698.681 0 1.321-.165 1.878-.456-1.206-.629-2.023-1.845-2.023-3.242z" fill="#FFBD86"/><path d="M34.87 50.075c0 3.048-2.646 5.5-5.86 5.433l-6.081-.128-5.326-5.05c-1.526-1.446-2.383-3.408-2.383-5.452V25.471c0-2.334 1.942-4.3 4.404-4.347a4.608 4.608 0 013.272 1.248 4.136 4.136 0 011.318 3.014v9.09c0 .602.481 1.104 1.113 1.166a10.873 10.873 0 016.422 2.904c1.928 1.828 3.12 4.353 3.12 7.143v4.386z" fill="#FED2A4"/><path d="M28.284 54.758l.001-.001-4.668-4.426c-1.526-1.447-2.383-3.409-2.383-5.453V25.471c0-1.274.58-2.438 1.506-3.24a4.618 4.618 0 00-3.116-1.107c-2.462.047-4.404 2.013-4.404 4.347v19.407c0 2.044.857 4.006 2.383 5.453l5.326 5.049 6.08.128h.066l-.791-.75z" fill="#FFBD86"/></g><defs><clipPath id="clip0"><path fill="#fff" transform="translate(0 .315)" d="M0 0h77v73H0z"/></clipPath></defs></svg>