<svg width="44" height="44" viewBox="0 0 44 44" fill="none" xmlns="http://www.w3.org/2000/svg">
<path d="M41.871 22C41.2046 22 40.5673 22.3181 40.1685 22.8518L36.5165 27.72L32.6005 28.2097L32.9051 27.8029C33.1951 27.4168 33.3548 26.9372 33.3548 26.4545V26.3773C33.3548 25.1374 32.3465 24.129 31.1066 24.129C30.5494 24.129 30.0151 24.3342 29.6027 24.706L24.3539 29.4298C23.3095 30.3699 22.7097 31.7154 22.7097 33.122V36.9032H21.2903V33.122C21.2903 31.7161 20.6905 30.3699 19.6461 29.4305L14.398 24.7074C13.9849 24.3342 13.4506 24.129 12.8934 24.129C11.6535 24.129 10.6452 25.1374 10.6452 26.3773V26.4545C10.6452 26.9379 10.8049 27.4168 11.0949 27.8029L11.3995 28.2097L7.48349 27.72L3.8315 22.8518C3.43265 22.3181 2.79539 22 2.12903 22C0.955362 22 0 22.9554 0 24.129V24.4094C0 24.8307 0.123362 25.2396 0.357611 25.5903L4.53286 31.8523C5.45599 33.2377 7.00183 34.0645 8.66583 34.0645H11.1247C12.6543 34.0645 14.0075 35.0396 14.4909 36.4909L14.6284 36.9032H13.4839V44H30.5161V36.9032H29.3716L29.5091 36.4909C29.9932 35.0396 31.3457 34.0645 32.8753 34.0645H35.3342C36.9982 34.0645 38.5433 33.2377 39.4671 31.8523L43.6424 25.5903C43.8766 25.2396 44 24.8307 44 24.4094V24.129C44 22.9554 43.0446 22 41.871 22ZM15.8364 36.0418C15.16 34.0105 13.2659 32.6452 11.1247 32.6452H8.66583C7.47726 32.6452 6.37358 32.0547 5.71346 31.0647L1.53856 24.8027C1.46059 24.6855 1.41935 24.5497 1.41935 24.4094V24.129C1.41935 23.7375 1.73746 23.4194 2.12903 23.4194C2.35115 23.4194 2.56322 23.525 2.69664 23.7025L6.71006 29.0535L12.5833 29.7881L12.9163 30.2323L14.0515 29.3813L12.2305 26.9528C12.1234 26.8094 12.0645 26.6327 12.0645 26.4545V26.3773C12.0645 25.9202 12.4363 25.5484 12.8934 25.5484C13.0985 25.5484 13.295 25.6236 13.4478 25.7612L18.6966 30.4849C19.4423 31.1562 19.871 32.1178 19.871 33.122V36.9032H16.124L15.8364 36.0418ZM14.9032 42.5806V41.1613H18.4516V39.7419H14.9032V38.3226H21.2903V39.7419H19.871V41.1613H21.2903V42.5806H14.9032ZM22.7097 42.5806V41.1613H24.129V39.7419H22.7097V38.3226H29.0968V39.7419H25.5484V41.1613H29.0968V42.5806H22.7097ZM42.5806 24.4094C42.5806 24.5497 42.5394 24.6862 42.4614 24.8034L38.2865 31.0654C37.6271 32.0547 36.5227 32.6452 35.3342 32.6452H32.8753C30.7334 32.6452 28.8393 34.0105 28.1629 36.0418L27.876 36.9032H24.129V33.122C24.129 32.1178 24.5577 31.1562 25.3034 30.4849L30.5522 25.7605C30.705 25.6236 30.9015 25.5484 31.1066 25.5484C31.5637 25.5484 31.9355 25.9202 31.9355 26.3773V26.4545C31.9355 26.6327 31.8766 26.8094 31.7702 26.9521L29.9485 29.3806L31.0837 30.2316L31.4167 29.7874L37.2899 29.0528L41.3034 23.7018C41.4368 23.525 41.6488 23.4194 41.871 23.4194C42.2625 23.4194 42.5806 23.7375 42.5806 24.129V24.4094Z" fill="#151F59"/>
<path d="M14.1934 21.2903H41.8708V18.9995C41.8708 17.5292 40.9453 16.1933 39.5685 15.676L36.1934 14.4115V13.8103C36.7305 13.3283 37.1443 12.7139 37.382 12.0163C38.7192 11.787 39.7418 10.6275 39.7418 9.22581V6.3871C39.7418 2.86505 36.8768 0 33.3547 0C30.9176 0 28.7966 1.37327 27.7206 3.38517C26.7036 1.3802 24.6279 0 22.23 0C21.0099 0 19.8282 0.357611 18.815 1.03402L18.1327 1.48901C17.274 1.79984 16.5865 2.40209 16.145 3.15578C15.0337 1.27104 12.9875 0 10.645 0C7.12298 0 4.25794 2.86505 4.25794 6.3871V9.22581C4.25794 10.6275 5.28053 11.787 6.61775 12.0163C6.85547 12.7132 7.26922 13.3276 7.80633 13.8103V14.4115L4.4312 15.6767C3.05447 16.1933 2.12891 17.5292 2.12891 18.9995V21.2903H14.1934ZM29.0966 19.871H26.2579V18.4516H24.8386V19.871H19.1612V18.4516H17.7418V19.871H14.9031V18.9995C14.9031 18.1165 15.4582 17.3154 16.2847 17.0052L19.6224 15.755L21.9999 18.925L24.3774 15.755L27.7151 17.0059C28.5415 17.3154 29.0966 18.1165 29.0966 18.9995V19.871ZM7.80633 10.6452V7.75621C9.03405 7.64324 10.2171 7.25791 11.2632 6.58947L11.2688 6.59501C11.87 7.19623 12.6521 7.59369 13.4837 7.74061V10.6452C13.4837 12.2107 12.2106 13.4839 10.645 13.4839C9.07945 13.4839 7.80633 12.2107 7.80633 10.6452ZM30.516 14.4115L27.6773 15.476L24.8386 14.4115V13.8103C25.3757 13.3283 25.7894 12.7139 26.0272 12.0163C26.6838 11.9034 27.2573 11.5648 27.6773 11.0839C28.0973 11.5648 28.6708 11.9034 29.3274 12.0163C29.5651 12.7132 29.9789 13.3276 30.516 13.8103V14.4115ZM20.5805 14.6548C21.0255 14.8131 21.5016 14.9032 21.9999 14.9032C22.4982 14.9032 22.9743 14.8124 23.4192 14.6548V14.6669L21.9999 16.5589L20.5805 14.6669V14.6548ZM29.0966 10.448C28.6742 10.2016 28.387 9.74871 28.387 9.22581C28.387 8.7029 28.6742 8.25 29.0966 8.00362V10.448ZM26.2579 10.448V8.00432C26.6803 8.25069 26.9676 8.7036 26.9676 9.2265C26.9676 9.7494 26.6803 10.2016 26.2579 10.448ZM24.8386 10.6452C24.8386 12.2107 23.5655 13.4839 21.9999 13.4839C20.4343 13.4839 19.1612 12.2107 19.1612 10.6452V7.80645H24.8386V10.6452ZM17.7418 10.448C17.3194 10.2016 17.0321 9.74871 17.0321 9.22581C17.0321 8.7029 17.3194 8.25 17.7418 8.00362V10.448ZM14.9031 8.00362C15.3255 8.25 15.6128 8.7029 15.6128 9.22581C15.6128 9.74871 15.3255 10.2016 14.9031 10.448V8.00362ZM13.4837 13.8103C14.0209 13.3283 14.4346 12.7139 14.6723 12.0163C15.329 11.9034 15.9025 11.5648 16.3225 11.0839C16.7424 11.5648 17.3159 11.9034 17.9726 12.0163C18.2103 12.7132 18.6241 13.3276 19.1612 13.8103V14.4115L16.3225 15.476L13.4837 14.4115V13.8103ZM40.4515 18.9995V19.871H37.6128V18.4516H36.1934V19.871H30.516V18.9995C30.516 17.9796 30.0645 17.0323 29.333 16.3701L30.6941 15.86C31.0888 16.9543 32.1263 17.7419 33.3547 17.7419C34.5824 17.7419 35.6206 16.9543 36.0153 15.8607L39.0689 17.0059C39.8964 17.3154 40.4515 18.1165 40.4515 18.9995ZM34.7741 14.9032C34.7741 15.686 34.1375 16.3226 33.3547 16.3226C32.5719 16.3226 31.9354 15.686 31.9354 14.9032V14.6548C32.3803 14.8131 32.8564 14.9032 33.3547 14.9032C33.853 14.9032 34.3291 14.8124 34.7741 14.6548V14.9032ZM33.3547 13.4839C31.7891 13.4839 30.516 12.2107 30.516 10.6452V7.75621C31.7437 7.64324 32.9268 7.25791 33.9729 6.58947L33.9785 6.59501C34.5797 7.19623 35.3618 7.59369 36.1934 7.74061V10.6452C36.1934 12.2107 34.9203 13.4839 33.3547 13.4839ZM37.6128 10.448V8.00432C38.0352 8.25069 38.3225 8.7036 38.3225 9.2265C38.3225 9.7494 38.0352 10.2016 37.6128 10.448ZM33.3547 1.41935C36.0933 1.41935 38.3225 3.64853 38.3225 6.3871V6.78179C37.9032 6.53749 37.4225 6.3871 36.9031 6.3871C36.1879 6.3871 35.4879 6.0974 34.982 5.59148L34.1545 4.76399L33.3128 5.32535C32.2711 6.01944 31.0583 6.3871 29.8063 6.3871C29.2869 6.3871 28.8063 6.53749 28.387 6.78179V6.3871C28.387 3.64853 30.6161 1.41935 33.3547 1.41935ZM17.0321 5.08279C17.0321 4.04669 17.6929 3.13048 18.6757 2.80198L19.6019 2.21497C20.3827 1.69484 21.2909 1.41935 22.23 1.41935C24.842 1.41935 26.9676 3.54492 26.9676 6.15701V6.78179C26.5483 6.53749 26.0677 6.3871 25.5483 6.3871H18.4515C17.932 6.3871 17.4514 6.53749 17.0321 6.78179V5.08279ZM10.645 1.41935C13.3836 1.41935 15.6128 3.64853 15.6128 6.3871V6.78179C15.1935 6.53749 14.7129 6.3871 14.1934 6.3871C13.4782 6.3871 12.7782 6.0974 12.2723 5.59148L11.4448 4.76399L10.6031 5.32535C9.56146 6.01944 8.34863 6.3871 7.09665 6.3871C6.57721 6.3871 6.09659 6.53749 5.67729 6.78179V6.3871C5.67729 3.64853 7.90647 1.41935 10.645 1.41935ZM5.67729 9.22581C5.67729 8.7029 5.96456 8.25 6.38697 8.00362V10.4473C5.96456 10.2016 5.67729 9.74871 5.67729 9.22581ZM10.645 14.9032C11.1433 14.9032 11.6195 14.8124 12.0644 14.6548V14.9032C12.0644 15.686 11.4278 16.3226 10.645 16.3226C9.86224 16.3226 9.22568 15.686 9.22568 14.9032V14.6548C9.67061 14.8124 10.1467 14.9032 10.645 14.9032ZM7.80633 19.871V18.4516H6.38697V19.871H3.54826V18.9995C3.54826 18.1165 4.10339 17.3154 4.92984 17.0052L7.98374 15.86C8.37913 16.9543 9.41731 17.7419 10.645 17.7419C11.8728 17.7419 12.9109 16.9543 13.3056 15.8607L14.6661 16.3707C13.9353 17.033 13.4837 17.9803 13.4837 18.9995V19.871H7.80633Z" fill="#151F59"/>
</svg>
