<svg width="43" height="43" viewBox="0 0 43 43" fill="none" xmlns="http://www.w3.org/2000/svg">
<g clip-path="url(#clip0)">
<path d="M39.1007 35.1376C39.7878 34.5037 40.2263 33.6036 40.2263 32.5971V31.2101C40.2263 29.2981 38.6706 27.7424 36.7587 27.7424C35.0844 27.7424 33.6835 28.9361 33.3608 30.5165H31.0827C30.7956 29.7113 30.0326 29.1295 29.1298 29.1295C28.2267 29.1295 27.4637 29.7113 27.1765 30.5165H24.8985C24.6218 29.16 23.5507 28.0892 22.1945 27.8125V26.2568C23.3878 25.947 24.2751 24.8704 24.2751 23.5812H24.9686C25.352 23.5812 25.6621 23.2714 25.6621 22.8877V20.8071H27.0492V19.42H25.6621V19.4126C25.6621 18.0858 26.291 16.7817 27.3875 15.8372C29.376 14.122 30.5169 11.6364 30.5169 9.01706C30.5169 6.53992 29.5324 4.23041 27.7454 2.51385C25.9595 0.797288 23.5988 -0.0987493 21.1291 0.00893773C16.4478 0.197559 12.57 4.16505 12.4864 8.85282C12.4383 11.5061 13.5572 14.0333 15.5558 15.7868C16.6557 16.7505 17.2951 18.0692 17.3327 19.42H15.9527V20.8071H17.3398V22.8877C17.3398 23.2714 17.6496 23.5812 18.0333 23.5812H18.7268C18.7268 24.8704 19.6137 25.947 20.8074 26.2568V27.8125C19.4508 28.0892 18.3801 29.16 18.1031 30.5165H15.825C15.5379 29.7113 14.7749 29.1295 13.8721 29.1295C12.969 29.1295 12.206 29.7113 11.9188 30.5165H9.64081C9.31809 28.9361 7.91782 27.7424 6.24325 27.7424C4.33096 27.7424 2.77559 29.2981 2.77559 31.2101V32.5971C2.77559 33.6036 3.21379 34.5037 3.90089 35.1376C1.61711 36.0661 0.00146484 38.3062 0.00146484 40.9195V42.3066C0.00146484 42.6903 0.311319 43.0001 0.694997 43.0001H11.7915C12.1748 43.0001 12.485 42.6903 12.485 42.3066V40.9195C12.485 38.3062 10.8691 36.0661 8.58528 35.1376C9.27237 34.5037 9.71091 33.6036 9.71091 32.5971V31.9036H11.9188C12.206 32.7089 12.969 33.2907 13.8721 33.2907C14.7749 33.2907 15.5379 32.7089 15.825 31.9036H18.0333V32.5971C18.0333 33.6036 18.4715 34.5037 19.1586 35.1376C16.8748 36.0661 15.2592 38.3062 15.2592 40.9195V42.3066C15.2592 42.6903 15.569 43.0001 15.9527 43.0001H27.0492C27.4325 43.0001 27.7427 42.6903 27.7427 42.3066V40.9195C27.7427 38.3062 26.1268 36.0661 23.843 35.1376C24.5301 34.5037 24.9686 33.6036 24.9686 32.5971V31.9036H27.1765C27.4637 32.7089 28.2267 33.2907 29.1298 33.2907C30.0326 33.2907 30.7956 32.7089 31.0827 31.9036H33.291V32.5971C33.291 33.6036 33.7292 34.5037 34.4163 35.1376C32.1325 36.0661 30.5169 38.3062 30.5169 40.9195V42.3066C30.5169 42.6903 30.8267 43.0001 31.2104 43.0001H42.3069C42.6902 43.0001 43.0004 42.6903 43.0004 42.3066V40.9195C43.0004 38.3062 41.3845 36.0661 39.1007 35.1376ZM11.098 40.9195V41.613H9.71091V40.226H8.32385V41.613H4.16266V40.226H2.77559V41.613H1.38853V40.9195C1.38853 38.2433 3.56665 36.0648 6.24325 36.0648C8.91951 36.0648 11.098 38.2433 11.098 40.9195ZM4.16266 32.5971V31.2101C4.16266 30.0631 5.09594 29.1295 6.24325 29.1295C7.39022 29.1295 8.32385 30.0631 8.32385 31.2101V32.5971C8.32385 33.7441 7.39022 34.6777 6.24325 34.6777C5.09594 34.6777 4.16266 33.7441 4.16266 32.5971ZM13.8721 31.9036C13.4891 31.9036 13.1786 31.5931 13.1786 31.2101C13.1786 30.8274 13.4891 30.5165 13.8721 30.5165C14.2548 30.5165 14.5656 30.8274 14.5656 31.2101C14.5656 31.5931 14.2548 31.9036 13.8721 31.9036ZM16.4698 14.7434C14.779 13.2602 13.8325 11.122 13.8735 8.87686C13.9449 4.91073 17.2246 1.55415 21.1847 1.39431C23.3005 1.31744 25.2737 2.06312 26.7841 3.51452C28.2968 4.96627 29.1298 6.92123 29.1298 9.01706C29.1298 11.2328 28.1643 13.3357 26.4816 14.7858C25.0793 15.9954 24.2751 17.6815 24.2751 19.4126V19.42H18.7197C18.6821 17.6703 17.8707 15.971 16.4698 14.7434ZM24.2751 20.8071V22.1942H18.7268V20.8071H24.2751ZM20.1139 23.5812H22.888C22.888 24.3462 22.2656 24.9683 21.501 24.9683C20.736 24.9683 20.1139 24.3462 20.1139 23.5812ZM26.3557 40.9195V41.613H24.9686V40.226H23.5815V41.613H19.4204V40.226H18.0333V41.613H16.6462V40.9195C16.6462 38.2433 18.8244 36.0648 21.501 36.0648C24.1772 36.0648 26.3557 38.2433 26.3557 40.9195ZM19.4204 32.5971V31.2101C19.4204 30.0631 20.3536 29.1295 21.501 29.1295C22.6479 29.1295 23.5815 30.0631 23.5815 31.2101V32.5971C23.5815 33.7441 22.6479 34.6777 21.501 34.6777C20.3536 34.6777 19.4204 33.7441 19.4204 32.5971ZM29.1298 31.9036C28.7468 31.9036 28.4363 31.5931 28.4363 31.2101C28.4363 30.8274 28.7468 30.5165 29.1298 30.5165C29.5125 30.5165 29.8233 30.8274 29.8233 31.2101C29.8233 31.5931 29.5125 31.9036 29.1298 31.9036ZM34.6781 32.5971V31.2101C34.6781 30.0631 35.6113 29.1295 36.7587 29.1295C37.9056 29.1295 38.8392 30.0631 38.8392 31.2101V32.5971C38.8392 33.7441 37.9056 34.6777 36.7587 34.6777C35.6113 34.6777 34.6781 33.7441 34.6781 32.5971ZM41.6134 41.613H40.2263V40.226H38.8392V41.613H34.6781V40.226H33.291V41.613H31.9039V40.9195C31.9039 38.2433 34.0821 36.0648 36.7587 36.0648C39.4349 36.0648 41.6134 38.2433 41.6134 40.9195V41.613Z" fill="#151F59"/>
<path d="M20.1138 16.6458H22.888V18.0329H20.1138V16.6458Z" fill="#151F59"/>
<path d="M20.8072 12.4146V13.8718H22.1943V12.4146C22.6358 12.3246 23.0466 12.1485 23.41 11.907L24.478 12.9751L25.4584 11.9944L24.3907 10.9263C24.6318 10.563 24.8079 10.1525 24.8983 9.71061H26.3554V8.32354H24.8983C24.8079 7.88162 24.6318 7.47119 24.3907 7.10783L25.4584 6.03977L24.478 5.05907L23.41 6.12713C23.0466 5.88569 22.6358 5.70959 22.1943 5.61952V4.16235H20.8072V5.61952C20.3653 5.70959 19.9548 5.88569 19.5911 6.12713L18.5231 5.05907L17.5427 6.03977L18.6108 7.10783C18.3693 7.47119 18.1932 7.88162 18.1028 8.32354H16.646V9.71061H18.1028C18.1932 10.1525 18.3693 10.563 18.6108 10.9263L17.5427 11.9944L18.5231 12.9751L19.5911 11.907C19.9548 12.1485 20.3653 12.3246 20.8072 12.4146ZM21.5007 6.93648C22.6477 6.93648 23.5813 7.87011 23.5813 9.01708C23.5813 10.164 22.6477 11.0977 21.5007 11.0977C20.3534 11.0977 19.4201 10.164 19.4201 9.01708C19.4201 7.87011 20.3534 6.93648 21.5007 6.93648Z" fill="#151F59"/>
</g>
<defs>
<clipPath id="clip0">
<rect width="43" height="43" fill="white"/>
</clipPath>
</defs>
</svg>
