<svg width="44" height="44" viewBox="0 0 44 44" fill="none" xmlns="http://www.w3.org/2000/svg">
<path d="M41.4404 2.75L39.4687 1.56681C38.5096 0.991375 37.4117 0.6875 36.2938 0.6875H30.25C29.4917 0.6875 28.875 1.30419 28.875 2.0625C28.875 2.56575 29.0208 3.03119 29.2572 3.4375H26.125C24.9879 3.4375 24.0625 4.36287 24.0625 5.5C24.0625 5.742 24.112 5.97162 24.189 6.1875H22C20.8629 6.1875 19.9375 7.11287 19.9375 8.25V10.6019C17.1174 11.4544 15.125 14.0931 15.125 17.0775C15.125 20.0826 17.1428 22.7569 20.031 23.5819L22.8353 24.3829C23.9628 24.7053 24.75 25.7496 24.75 26.9225C24.75 28.3786 23.5654 29.5625 22.11 29.5625H21.89C20.4346 29.5625 19.25 28.3779 19.25 26.9225V26.8125C19.25 25.6754 18.3246 24.75 17.1875 24.75C16.0504 24.75 15.125 25.6754 15.125 26.8125V26.9225C15.125 28.4054 15.6179 29.8024 16.4588 30.9375H14.7428C14.9792 30.5312 15.125 30.0658 15.125 29.5625C15.125 28.8042 14.5083 28.1875 13.75 28.1875H7.70619C6.58831 28.1875 5.49038 28.4914 4.53063 29.0668L2.55956 30.25H0.6875V41.25H2.55956L4.53131 42.4332C5.49038 43.0086 6.58831 43.3125 7.70619 43.3125H16.5C17.6371 43.3125 18.5625 42.3871 18.5625 41.25C18.5625 40.9784 18.5068 40.7206 18.4113 40.4827C19.2878 40.2449 19.9375 39.4508 19.9375 38.5C19.9375 38.258 19.888 38.0284 19.811 37.8125H22C23.1371 37.8125 24.0625 36.8871 24.0625 35.75V33.3981C26.8826 32.5456 28.875 29.9069 28.875 26.9225C28.875 23.9174 26.8572 21.2431 23.969 20.4181L21.1647 19.6171C20.0372 19.2947 19.25 18.2504 19.25 17.0775C19.25 15.6214 20.4346 14.4375 21.89 14.4375H22.1093C23.5654 14.4375 24.7493 15.6221 24.7493 17.0775V17.1875C24.7493 18.3246 25.6747 19.25 26.8118 19.25C27.9489 19.25 28.8743 18.3246 28.8743 17.1875V17.0775C28.8743 16.6464 28.8283 16.2243 28.7485 15.8125H36.2924C37.4103 15.8125 38.5083 15.5086 39.468 14.9332L41.4404 13.75H43.3125V2.75H41.4404ZM18.5625 38.5C18.5625 38.8788 18.2538 39.1875 17.875 39.1875H16.5H9.625V40.5625H16.5C16.8788 40.5625 17.1875 40.8712 17.1875 41.25C17.1875 41.6288 16.8788 41.9375 16.5 41.9375H7.70619C6.83719 41.9375 5.984 41.701 5.23875 41.2541L2.94044 39.875H2.0625V31.625H2.94044L5.23875 30.2459C5.984 29.799 6.83719 29.5625 7.70619 29.5625H13.75C13.75 30.3208 13.1333 30.9375 12.375 30.9375H9.625H9.34037L8.28438 31.9935C7.63538 32.6425 6.77188 33 5.85406 33H4.8125V34.375H5.85406C7.13969 34.375 8.34763 33.8745 9.25719 32.9656L9.91031 32.3125H12.375H17.8228C18.4497 32.7882 19.1606 33.1629 19.9375 33.3981V33.6875H9.625V35.0625H19.9375V35.75C19.9375 35.992 19.987 36.2216 20.064 36.4375H17.875H9.625V37.8125H17.875C18.2538 37.8125 18.5625 38.1212 18.5625 38.5ZM27.5 17.1875C27.5 17.5663 27.1913 17.875 26.8125 17.875C26.4337 17.875 26.125 17.5663 26.125 17.1875V17.0775C26.125 14.8638 24.3237 13.0625 22.11 13.0625H21.89C19.6763 13.0625 17.875 14.8638 17.875 17.0775C17.875 18.8609 19.0726 20.449 20.7866 20.9385L23.5909 21.7394C25.8926 22.3974 27.5 24.5279 27.5 26.9225C27.5 29.4504 25.7049 31.6669 23.232 32.1936L22.6875 32.3091V35.75C22.6875 36.1288 22.3788 36.4375 22 36.4375C21.6212 36.4375 21.3125 36.1288 21.3125 35.75V32.3091L20.768 32.1936C18.2951 31.6669 16.5 29.4504 16.5 26.9225V26.8125C16.5 26.4337 16.8087 26.125 17.1875 26.125C17.5663 26.125 17.875 26.4337 17.875 26.8125V26.9225C17.875 29.1362 19.6763 30.9375 21.89 30.9375H22.1093C24.3231 30.9375 26.1243 29.1362 26.1243 26.9225C26.1243 25.1391 24.9267 23.551 23.2127 23.0615L20.4084 22.2606C18.1074 21.6026 16.5 19.4721 16.5 17.0775C16.5 14.5496 18.2951 12.3331 20.768 11.8064L21.3125 11.6909V8.25C21.3125 7.87119 21.6212 7.5625 22 7.5625C22.3788 7.5625 22.6875 7.87119 22.6875 8.25V11.6909L23.232 11.8064C25.7049 12.3331 27.5 14.5496 27.5 17.0775V17.1875ZM41.9375 12.375H41.0596L38.7612 13.7541C38.016 14.201 37.1628 14.4375 36.2938 14.4375H28.3319C28.1222 13.9487 27.8561 13.4874 27.5419 13.0625H34.375V11.6875H26.1772C25.5503 11.2118 24.8394 10.8371 24.0625 10.6019V10.3125H34.375V8.9375H24.0625V8.25C24.0625 8.008 24.013 7.77838 23.936 7.5625H26.125H34.375V6.1875H26.125C25.7462 6.1875 25.4375 5.87881 25.4375 5.5C25.4375 5.12119 25.7462 4.8125 26.125 4.8125H31.625H34.0904L34.7435 5.46562C35.6524 6.3745 36.861 6.875 38.1466 6.875H39.1875V5.5H38.1459C37.2281 5.5 36.3646 5.1425 35.7149 4.4935L34.6596 3.4375H34.375H31.625C30.8667 3.4375 30.25 2.82081 30.25 2.0625H36.2938C37.1628 2.0625 38.016 2.299 38.7612 2.74587L41.0596 4.125H41.9375V12.375Z" fill="#151F59"/>
<path d="M30.25 26.125H37.125V27.5H30.25V26.125Z" fill="#151F59"/>
<path d="M6.875 16.5H13.75V17.875H6.875V16.5Z" fill="#151F59"/>
<path d="M7.50635 21.0273L13.8588 18.3942L14.3855 19.6647L8.03297 22.2978L7.50635 21.0273Z" fill="#151F59"/>
<path d="M7.50586 13.3516L8.03248 12.0811L14.385 14.7142L13.8584 15.9847L7.50586 13.3516Z" fill="#151F59"/>
<path d="M29.6304 24.3345L35.9829 21.7013L36.5095 22.9718L30.157 25.605L29.6304 24.3345Z" fill="#151F59"/>
<path d="M29.6338 29.2925L30.1604 28.022L36.5129 30.6551L35.9863 31.9256L29.6338 29.2925Z" fill="#151F59"/>
</svg>
