<svg width="43" height="43" viewBox="0 0 43 43" fill="none" xmlns="http://www.w3.org/2000/svg">
<path d="M36.2812 30.9405V30.5562C37.9213 29.1997 38.9688 27.1498 38.9688 24.8594H40.3125V23.5156H38.8404C38.2062 20.081 35.1942 17.4688 31.5781 17.4688C31.4827 17.4688 31.3907 17.4795 31.2966 17.4829C30.2041 15.5956 28.3256 14.3721 26.2031 14.1564V13.7587C27.8432 12.4021 28.8906 10.3523 28.8906 8.06183H30.2344V6.71808H28.7623C28.128 3.28412 25.116 0.671875 21.5 0.671875C17.884 0.671875 14.872 3.28413 14.2377 6.71875H12.7656V8.0625H14.1094C14.1094 10.3523 15.1568 12.4021 16.7969 13.7593V14.1571C14.6744 14.3727 12.7959 15.5962 11.7034 17.4835C11.6093 17.4795 11.5173 17.4688 11.4219 17.4688C7.80584 17.4688 4.79383 20.081 4.15958 23.5156H2.6875V24.8594H4.03125C4.03125 27.1491 5.0787 29.199 6.71875 30.5562V30.9405C3.32847 31.2812 0.671875 34.1675 0.671875 37.668V42.3281H42.3281V37.668C42.3281 34.1675 39.6715 31.2812 36.2812 30.9405ZM9.40625 38.2969H5.375V36.9531H8.0625V36.937C8.45487 37.234 8.90705 37.4557 9.40625 37.5571V38.2969ZM8.0625 31.5781V31.4343C9.07166 31.9517 10.2118 32.25 11.4219 32.25C12.6319 32.25 13.7721 31.9517 14.7812 31.4343V31.5781V32.1129C14.6227 32.4233 13.8608 33.5938 11.4219 33.5938C8.9823 33.5938 8.22778 32.4401 8.0625 32.1116V31.5781ZM16.1969 21.1627C15.3584 21.6182 14.7812 22.4964 14.7812 23.5156H13.4375V19.1652C14.5394 19.5563 15.4928 20.2557 16.1969 21.1627ZM16.895 22.3056C17.075 22.6892 17.2168 23.0937 17.3129 23.5156H16.125C16.125 22.9808 16.4415 22.5213 16.895 22.3056ZM17.1187 20.1562H18.1406V20.1401C18.533 20.4371 18.9852 20.6588 19.4844 20.7603V23.5156H18.6842C18.4517 22.2559 17.9041 21.1056 17.1187 20.1562ZM18.1406 14.6375C19.1498 15.1548 20.29 15.4531 21.5 15.4531C22.71 15.4531 23.8502 15.1548 24.8594 14.6375V14.7812V15.3161C24.7008 15.6265 23.9389 16.7969 21.5 16.7969C19.0604 16.7969 18.3059 15.6433 18.1406 15.3147V14.7812V14.6375ZM28.2188 23.5156C28.2188 22.4964 27.6416 21.6182 26.8031 21.1627C27.5066 20.2557 28.4606 19.5563 29.5625 19.1652V23.5156H28.2188ZM20.1562 19.4844C19.045 19.4844 18.1406 18.58 18.1406 17.4688V17.2376C18.8508 17.7261 19.915 18.1406 21.5 18.1406C23.085 18.1406 24.1492 17.7261 24.8594 17.2376V17.4688C24.8594 18.58 23.955 19.4844 22.8438 19.4844H22.1719V23.5156H20.8281V19.4844H20.1562ZM23.5156 20.7603C24.0148 20.6588 24.467 20.4371 24.8594 20.1401V20.1562H25.8813C25.0959 21.1056 24.5483 22.2559 24.3158 23.5156H23.5156V20.7603ZM26.105 22.3056C26.5585 22.5213 26.875 22.9808 26.875 23.5156H25.6871C25.7832 23.0937 25.925 22.6892 26.105 22.3056ZM27.342 18.8125H25.9102C26.0923 18.3993 26.2031 17.9485 26.2031 17.4688V15.4955C26.6701 15.5553 27.1196 15.6809 27.5469 15.8583V18.6728C27.4777 18.7184 27.4098 18.7648 27.342 18.8125ZM24.1875 24.8594C24.1875 27.1491 25.235 29.199 26.875 30.5562V30.9405C24.506 31.1784 22.5024 32.6632 21.506 34.7279C20.5137 32.6632 18.5034 31.1777 16.125 30.9405V30.5562C17.765 29.1997 18.8125 27.1498 18.8125 24.8594H24.1875ZM25.5312 32.6484C25.9552 32.4744 26.4054 32.3515 26.875 32.2917V34.2656C26.875 34.7453 26.9859 35.1962 27.1679 35.6094H25.5312V32.6484ZM16.125 34.2656V32.2896C16.5967 32.3461 17.0455 32.4643 17.4688 32.631V35.6094H15.8321C16.0141 35.1962 16.125 34.7453 16.125 34.2656ZM17.4688 36.9531V38.2969H13.4375V37.5571C13.9367 37.4557 14.3889 37.234 14.7812 36.937V36.9531H17.4688ZM13.4375 39.6406H17.4688V40.9844H13.4375V39.6406ZM18.8125 33.4009C20.0474 34.3778 20.8281 35.8929 20.8281 37.625H20.8301C20.8301 37.6398 20.8281 37.6532 20.8281 37.668V40.9844H18.8125V33.4009ZM22.1719 37.668C22.1719 35.9614 22.96 34.4383 24.1875 33.4439V40.9844H22.1719V37.668ZM25.5312 39.6406H29.5625V40.9844H25.5312V39.6406ZM29.5625 38.2969H25.5312V36.9531H28.2188V36.937C28.6111 37.234 29.0633 37.4557 29.5625 37.5571V38.2969ZM28.2188 31.5781V31.4343C29.2279 31.9517 30.3681 32.25 31.5781 32.25C32.7882 32.25 33.9283 31.9517 34.9375 31.4343V31.5781V32.1129C34.7789 32.4233 34.017 33.5938 31.5781 33.5938C29.1385 33.5938 28.384 32.4401 28.2188 32.1116V31.5781ZM37.625 36.9531V38.2969H33.5938V37.5571C34.093 37.4557 34.5451 37.234 34.9375 36.937V36.9531H37.625ZM37.625 35.6094H35.9883C36.1704 35.1962 36.2812 34.7453 36.2812 34.2656V32.2917C36.7509 32.3508 37.201 32.4744 37.625 32.6484V35.6094ZM31.5781 30.9062C28.2436 30.9062 25.5312 28.1932 25.5312 24.8594H37.625C37.625 28.1932 34.9126 30.9062 31.5781 30.9062ZM36.2812 23.5156C36.2812 22.9808 36.5977 22.5213 37.0512 22.3056C37.2313 22.6892 37.373 23.0937 37.4691 23.5156H36.2812ZM36.3531 21.1627C35.5146 21.6182 34.9375 22.4964 34.9375 23.5156H33.5938V19.1652C34.6956 19.5563 35.649 20.2557 36.3531 21.1627ZM32.25 18.8521V23.5156H30.9062V18.8521C31.1273 18.8273 31.351 18.8125 31.5781 18.8125C31.8052 18.8125 32.029 18.8273 32.25 18.8521ZM29.8366 17.6844C29.5128 17.763 29.197 17.8618 28.8906 17.9821V16.6746C29.2434 16.9662 29.5612 17.3035 29.8366 17.6844ZM26.9731 5.5087C27.1532 5.89234 27.2949 6.29681 27.391 6.71875H26.2031C26.2031 6.18394 26.5196 5.72438 26.9731 5.5087ZM26.275 4.36584C25.4365 4.82137 24.8594 5.69952 24.8594 6.71875H23.5156V2.36836C24.6175 2.75939 25.5709 3.45881 26.275 4.36584ZM22.1719 2.05527V6.71875H20.8281V2.05527C21.0492 2.03041 21.2729 2.01562 21.5 2.01562C21.7271 2.01562 21.9508 2.03041 22.1719 2.05527ZM19.4844 2.36836V6.71875H18.1406C18.1406 5.69952 17.5635 4.82137 16.725 4.36584C17.4291 3.45881 18.3825 2.75939 19.4844 2.36836ZM16.0269 5.5087C16.4804 5.72438 16.7969 6.18394 16.7969 6.71875H15.609C15.7051 6.29681 15.8468 5.89234 16.0269 5.5087ZM15.4531 8.0625H27.5469C27.5469 11.3963 24.8345 14.1094 21.5 14.1094C18.1655 14.1094 15.4531 11.3963 15.4531 8.0625ZM17.0898 18.8125H15.658C15.5902 18.7648 15.5223 18.7184 15.4531 18.6728V15.8583C15.8804 15.6809 16.3299 15.5553 16.7969 15.4955V17.4688C16.7969 17.9485 16.9077 18.3993 17.0898 18.8125ZM14.1094 16.6746V17.9821C13.8037 17.8618 13.4879 17.7637 13.1634 17.6844C13.4388 17.3035 13.7566 16.9662 14.1094 16.6746ZM12.0938 18.8521V23.5156H10.75V18.8521C10.971 18.8273 11.1948 18.8125 11.4219 18.8125C11.649 18.8125 11.8727 18.8273 12.0938 18.8521ZM9.40625 19.1652V23.5156H8.0625C8.0625 22.4964 7.48536 21.6182 6.64686 21.1627C7.35098 20.2557 8.30438 19.5563 9.40625 19.1652ZM5.94878 22.3056C6.4023 22.5213 6.71875 22.9808 6.71875 23.5156H5.53088C5.62695 23.0937 5.76872 22.6892 5.94878 22.3056ZM5.375 24.8594H17.4688C17.4688 28.1932 14.7564 30.9062 11.4219 30.9062C8.08736 30.9062 5.375 28.1932 5.375 24.8594ZM7.01169 35.6094H5.375V32.6484C5.79895 32.4744 6.24911 32.3515 6.71875 32.2917V34.2656C6.71875 34.7453 6.82961 35.1962 7.01169 35.6094ZM2.01562 37.668C2.01562 35.9614 2.80373 34.4383 4.03125 33.4439V40.9844H2.01562V37.668ZM5.375 40.9844V39.6406H9.40625V40.9844H5.375ZM10.0781 36.2812C8.96684 36.2812 8.0625 35.3769 8.0625 34.2656V34.0345C8.77267 34.523 9.83692 34.9375 11.4219 34.9375C13.0068 34.9375 14.0711 34.523 14.7812 34.0345V34.2656C14.7812 35.3769 13.8769 36.2812 12.7656 36.2812H12.0938V40.9844H10.75V36.2812H10.0781ZM32.25 40.9844H30.9062V36.2812H30.2344C29.1231 36.2812 28.2188 35.3769 28.2188 34.2656V34.0345C28.9289 34.523 29.9932 34.9375 31.5781 34.9375C33.1631 34.9375 34.2273 34.523 34.9375 34.0345V34.2656C34.9375 35.3769 34.0332 36.2812 32.9219 36.2812H32.25V40.9844ZM33.5938 39.6406H37.625V40.9844H33.5938V39.6406ZM40.9844 40.9844H38.9688V33.4439C40.1963 34.4376 40.9844 35.9614 40.9844 37.668V40.9844Z" fill="#151F59"/>
</svg>
