<svg width="43" height="43" viewBox="0 0 43 43" fill="none" xmlns="http://www.w3.org/2000/svg">
<path d="M26.4933 17.5737C25.1499 17.5737 24.0571 18.6665 24.0571 20.0096C24.0571 21.353 25.1499 22.4458 26.4933 22.4458C27.8364 22.4458 28.9292 21.353 28.9292 20.0096C28.9292 18.6665 27.8364 17.5737 26.4933 17.5737ZM26.4933 21.1851C25.8451 21.1851 25.3176 20.6579 25.3176 20.0096C25.3176 19.3617 25.8451 18.8342 26.4933 18.8342C27.1413 18.8342 27.6688 19.3617 27.6688 20.0096C27.6688 20.6579 27.1413 21.1851 26.4933 21.1851Z" fill="#151F59"/>
<path d="M19.1573 11.4705C18.8168 11.5416 18.5983 11.8756 18.6695 12.2161C18.7164 12.4409 18.7403 12.6725 18.7403 12.9044C18.7403 14.7481 17.2401 16.2484 15.3964 16.2484C13.5523 16.2484 12.0524 14.7481 12.0524 12.9044C12.0524 11.0607 13.5523 9.56047 15.3964 9.56047C16.1614 9.56047 16.8812 9.81177 17.4779 10.2875C17.7502 10.504 18.1469 10.4594 18.3637 10.1871C18.5806 9.91478 18.5356 9.51815 18.2633 9.3013C17.453 8.65567 16.4347 8.30005 15.3964 8.30005C12.8575 8.30005 10.792 10.3655 10.792 12.9044C10.792 15.4433 12.8575 17.5088 15.3964 17.5088C17.9353 17.5088 20.0007 15.4433 20.0007 12.9044C20.0007 12.5859 19.9679 12.2677 19.9033 11.9583C19.8321 11.6178 19.4982 11.3999 19.1573 11.4705Z" fill="#151F59"/>
<path d="M3.18255 41.3621H0.630211C0.282135 41.3621 0 41.6442 0 41.9923C0 42.3403 0.282135 42.6225 0.630211 42.6225H3.18255C3.53062 42.6225 3.81276 42.3403 3.81276 41.9923C3.81276 41.6442 3.53062 41.3621 3.18255 41.3621Z" fill="#151F59"/>
<path d="M9.67767 41.3621H7.12566C6.77758 41.3621 6.49512 41.6442 6.49512 41.9923C6.49512 42.3403 6.77758 42.6225 7.12566 42.6225H9.67767C10.0257 42.6225 10.3079 42.3403 10.3079 41.9923C10.3079 41.6442 10.0257 41.3621 9.67767 41.3621Z" fill="#151F59"/>
<path d="M40.1258 40.3314C40.2455 40.4709 40.42 40.5509 40.6041 40.5509H42.1365C42.3573 40.5509 42.562 40.4354 42.6761 40.2465C42.7903 40.0575 42.7972 39.8226 42.6945 39.6274L40.1336 34.757C40.0677 34.632 40.0503 34.4876 40.0841 34.3505L41.2149 29.7852C41.2149 29.7848 41.2153 29.7845 41.2153 29.7842L41.2159 29.7822C41.2166 29.7793 41.2169 29.7763 41.2176 29.7737C41.2208 29.7589 41.2238 29.7445 41.2264 29.73C41.2271 29.7255 41.2274 29.7209 41.2281 29.7163C41.2281 29.7156 41.2284 29.7153 41.2284 29.7146C41.2287 29.7113 41.2294 29.7081 41.2297 29.7048C41.231 29.694 41.232 29.6828 41.233 29.6717C41.2333 29.6674 41.2333 29.6628 41.2333 29.6585C41.234 29.6448 41.2346 29.6313 41.2343 29.6179V28.4312C41.2343 28.0832 40.9522 27.801 40.6041 27.801C40.256 27.801 39.9739 28.0832 39.9739 28.4312V28.6914L37.2345 27.5688L37.2903 23.9824L37.6495 24.2009C37.9468 24.3816 38.3345 24.2868 38.5153 23.9893C38.6961 23.692 38.6016 23.3043 38.304 23.1235L36.9987 22.3302C36.9937 22.3273 36.9888 22.324 36.9836 22.3211L32.8674 19.8199C32.203 19.4164 31.79 18.7199 31.7244 17.9739L38.0084 21.3867C38.0426 21.4071 38.076 21.4277 38.1115 21.4461L38.2181 21.5006L39.113 21.9868C39.6438 22.2751 39.9735 22.8296 39.9735 23.4338V25.9002C39.9735 26.2483 40.256 26.5304 40.6041 26.5304C40.9522 26.5304 41.2343 26.2483 41.2343 25.9002V23.4338C41.2343 22.7459 40.9909 22.095 40.5673 21.5826C40.8186 21.4084 41.025 21.1735 41.1684 20.8936L41.8406 19.5807C42.0702 19.1326 42.1115 18.6221 41.9567 18.1428C41.8022 17.6635 41.4702 17.2731 41.022 17.0438L40.5024 16.7774C39.5772 16.3037 38.4392 16.6708 37.9651 17.5959L37.2929 18.9089C37.2021 19.0863 37.1417 19.2733 37.1105 19.4646L32.1256 16.7571C32.223 16.4254 32.1407 16.054 31.8818 15.7972L30.7704 14.685C30.4131 14.3274 29.8328 14.3058 29.4502 14.6352L28.5031 15.4475C28.4595 15.4281 28.4152 15.4094 28.3706 15.3914L28.2938 14.1322C28.2623 13.6208 27.8362 13.2202 27.3241 13.2202H25.752C25.3934 13.2202 25.0765 13.419 24.9082 13.7133V11.8365C24.9082 11.2532 24.4528 10.7617 23.8715 10.7171L22.6331 10.6226C22.5123 10.2404 22.3611 9.86807 22.1807 9.50819L23.0166 8.56369C23.4093 8.12048 23.3886 7.44499 22.97 7.02605L21.3671 5.42281C20.9547 5.01076 20.2848 4.98484 19.8426 5.36474L18.8997 6.17342C18.5438 5.98806 18.173 5.83092 17.7918 5.70428L17.7151 4.44649C17.6793 3.85532 17.1872 3.39209 16.5947 3.39209H14.3278C13.7448 3.39209 13.2531 3.84744 13.2088 4.4291L13.1143 5.66721C12.6927 5.80008 12.2843 5.96936 11.8926 6.17342L10.9501 5.36474C10.5072 4.98484 9.83759 5.01043 9.42554 5.42281L7.82262 7.02573C7.40368 7.44466 7.38334 8.12015 7.77571 8.56336L8.61194 9.50786C8.43118 9.86742 8.27994 10.2401 8.15954 10.6223L6.92077 10.7168C6.33944 10.7614 5.88409 11.2528 5.88409 11.8361V14.1027C5.88409 14.6952 6.34732 15.1873 6.93816 15.2234L8.19629 15.2998C8.32292 15.681 8.47973 16.0514 8.66542 16.4077L7.85674 17.3506C7.47684 17.7931 7.50243 18.4627 7.91481 18.8751L9.51773 20.478C9.93634 20.8969 10.6118 20.9173 11.0554 20.5246L11.9999 19.6887C12.3594 19.8691 12.7321 20.0203 13.1143 20.1411L13.2078 21.3661L9.95865 21.7125C9.91304 21.7174 9.86679 21.7069 9.82742 21.6836L6.72 19.6923C7.031 19.3908 7.24162 18.983 7.28525 18.5191L7.42402 17.0504C7.47126 16.5491 7.32036 16.0596 6.99951 15.6715C6.67833 15.2838 6.22561 15.0439 5.72432 14.9967L5.14299 14.9416C4.64171 14.894 4.15191 15.0449 3.76414 15.3661C3.37604 15.6873 3.13623 16.14 3.08899 16.6413L2.95022 18.1097C2.90658 18.5723 3.03354 19.024 3.30518 19.396C3.21923 19.4685 3.13623 19.5466 3.05979 19.6332L2.76781 19.9642C2.23372 20.5702 1.93584 21.3487 1.92928 22.1564L1.88794 27.1311L0.261075 39.7504C0.237783 39.9302 0.293225 40.1113 0.412969 40.2475C0.532384 40.3833 0.704946 40.4613 0.886037 40.4613H2.51783C2.78651 40.4613 3.026 40.2908 3.11359 40.0368L7.16453 28.2944L10.9323 32.2141C11.1433 32.428 11.182 32.7564 11.0265 33.0127C11.0098 33.0405 10.995 33.0697 10.9829 33.0996L8.47481 39.2013H8.14445L9.25364 34.2642C9.36911 33.923 9.31302 33.55 9.10043 33.2561C9.08436 33.2344 9.0673 33.2134 9.04892 33.1941L7.88692 31.9596C7.64842 31.7063 7.24949 31.6942 6.99623 31.9327C6.74263 32.1712 6.7305 32.5701 6.969 32.8237L8.03193 33.9526L6.74198 39.6934C6.69999 39.88 6.74526 40.0759 6.86467 40.2255C6.98442 40.3747 7.16551 40.4617 7.35677 40.4617H8.89703C9.15259 40.4617 9.38289 40.3075 9.48 40.0713L12.1321 33.6196C12.5546 32.8762 12.4339 31.9419 11.8355 31.3349L7.53819 26.8644L7.57231 24.3081L8.84913 25.0181C9.12372 25.1706 9.43342 25.231 9.74475 25.1923L12.9631 24.7963C14.2632 24.6365 15.2861 23.6573 15.541 22.4162H16.5951C17.1872 22.4162 17.6793 21.953 17.7154 21.3618L17.7918 20.104C18.1343 19.9898 18.4686 19.8511 18.7928 19.6883L19.7041 20.495V20.8408C19.7041 21.3529 20.1044 21.7788 20.6161 21.8106L21.8743 21.8874C21.8926 21.9316 21.9113 21.9759 21.9307 22.0199L21.1174 22.9677C20.79 23.3508 20.8126 23.9299 21.1686 24.2858L22.2817 25.3999C22.6446 25.7605 23.2285 25.7772 23.611 25.4383L24.5549 24.6031C24.5992 24.6218 24.6438 24.6398 24.6887 24.6572L24.7835 25.8992C24.8203 26.4038 25.2458 26.7988 25.752 26.7988H27.3241C27.8362 26.7988 28.262 26.3986 28.2938 25.8868L28.3706 24.6287C28.3909 24.6205 28.4113 24.6119 28.4316 24.6034L29.3748 25.4383C29.7573 25.7772 30.3413 25.7605 30.7064 25.3983L31.8172 24.2865C32.1735 23.9302 32.1961 23.3508 31.8681 22.967L31.0555 22.0199C31.0748 21.9763 31.0938 21.932 31.1119 21.8874L32.3707 21.8106C32.663 21.7925 32.9185 21.6452 33.0842 21.4268L36.0414 23.2236L35.9705 27.7804L32.431 32.701C32.1538 33.0861 32.0278 33.5592 32.0764 34.0342L32.6941 39.9857C32.7276 40.3068 32.9982 40.5509 33.3211 40.5509H34.7662C35.0949 40.5509 35.3688 40.298 35.3944 39.9699L35.7684 35.2163C35.7727 35.1631 35.7835 35.1116 35.7996 35.0621C35.8839 35.3124 36.0158 35.547 36.1923 35.752L40.1258 40.3314ZM38.3762 19.96C38.325 19.8012 38.3388 19.6319 38.4149 19.4833L39.0871 18.1707C39.2443 17.8643 39.6212 17.7426 39.9276 17.8994L40.4473 18.1655C40.5959 18.2416 40.7058 18.3708 40.757 18.5296C40.8081 18.6884 40.7947 18.8577 40.7186 19.006L40.0464 20.3189C39.9703 20.4675 39.841 20.5774 39.6822 20.6286C39.5231 20.6797 39.3542 20.6663 39.2055 20.5902L38.8083 20.3868L38.62 20.2844C38.5051 20.2067 38.4195 20.0942 38.3762 19.96ZM24.7399 14.6923L24.6887 15.3622C24.6192 15.3891 24.5503 15.4176 24.4824 15.4475L24.1514 15.1634C24.3981 15.0781 24.6051 14.9098 24.7399 14.6923ZM4.20539 18.2281L4.34416 16.7597C4.35991 16.5937 4.4393 16.4435 4.56757 16.3372C4.68075 16.2437 4.81985 16.1938 4.96486 16.1938C4.98454 16.1938 5.00455 16.1948 5.02456 16.1968L5.60589 16.2515C5.77189 16.2673 5.92215 16.3467 6.02844 16.4753C6.13473 16.6036 6.1846 16.7659 6.16918 16.9319L6.03041 18.4007C6.00088 18.714 5.74302 18.9515 5.43694 18.9653C5.16268 18.8787 4.87858 18.8478 4.59906 18.8679C4.34646 18.7684 4.17881 18.5112 4.20539 18.2281ZM2.06871 39.2009H1.60286L3.07324 27.7974L6.0163 27.7577L2.06871 39.2009ZM12.8092 23.5454L9.59056 23.9414C9.54594 23.9469 9.50132 23.9384 9.46163 23.9164L7.27246 22.6993C7.26557 22.6954 7.25868 22.6914 7.25179 22.6878L5.76599 21.8618C5.46154 21.6922 5.07804 21.8021 4.90876 22.1062C4.7398 22.4103 4.84938 22.7941 5.15349 22.9634L6.32107 23.6126L6.28269 26.493L3.15361 26.5354L3.19003 22.1669C3.19397 21.6623 3.37998 21.1761 3.71362 20.7979L4.0056 20.4668C4.15191 20.3005 4.34055 20.1932 4.54165 20.148C4.57774 20.1535 4.6135 20.1601 4.65024 20.1637L5.17777 20.2136C5.22206 20.2336 5.26569 20.2572 5.30801 20.2844L9.15325 22.7485C9.1562 22.7505 9.15883 22.7521 9.16178 22.7541C9.43834 22.9247 9.7687 22.9998 10.0925 22.9657L14.188 22.5294C13.9436 23.07 13.4305 23.4689 12.8092 23.5454ZM18.5644 18.3797C18.0802 18.6605 17.5632 18.8751 17.0274 19.0178C16.765 19.0877 16.5767 19.3176 16.5603 19.5886L16.4651 21.1558H14.4561L14.3376 19.6063C14.317 19.3353 14.1251 19.1083 13.8616 19.0427C13.2908 18.9003 12.7413 18.6772 12.2279 18.3797C11.993 18.2432 11.6974 18.2727 11.494 18.4529L10.3172 19.4948L8.8967 18.0743L9.90878 16.8945C10.0859 16.6885 10.1105 16.392 9.97078 16.1594C9.66634 15.6532 9.43473 15.1066 9.28283 14.5354C9.21296 14.273 8.98298 14.0847 8.712 14.0683L7.14484 13.9728V11.9641L8.69429 11.8456C8.96527 11.825 9.19229 11.6331 9.2579 11.3696C9.39995 10.7991 9.62304 10.2493 9.92092 9.73586C10.0571 9.50097 10.0279 9.20538 9.84776 9.00198L8.80583 7.82522L10.2263 6.4047L11.4061 7.41678C11.6121 7.59393 11.9083 7.61887 12.1413 7.47878C12.6767 7.15695 13.2554 6.91714 13.8616 6.7659C14.1254 6.70029 14.317 6.47327 14.3376 6.20229L14.4561 4.65284H16.4651L16.5603 6.22C16.5767 6.49098 16.765 6.72095 17.0274 6.79083C17.5989 6.94305 18.1452 7.17434 18.6517 7.47878C18.8843 7.61887 19.1805 7.59393 19.3869 7.41711L20.5663 6.40503L21.9868 7.82522L20.9452 9.00198C20.7651 9.20538 20.7355 9.50097 20.8717 9.73586C21.1696 10.2496 21.3927 10.7991 21.5347 11.3696C21.6003 11.6334 21.8277 11.8253 22.0983 11.846L23.6481 11.9641V13.9728L22.0809 14.0683C21.8096 14.0847 21.58 14.273 21.5101 14.5354C21.3579 15.1069 21.1266 15.6532 20.8222 16.1594C20.6821 16.3923 20.707 16.6885 20.8838 16.8945L21.8959 18.0743L20.4754 19.4948L19.2986 18.4529C19.0952 18.2727 18.7993 18.2432 18.5644 18.3797ZM30.6201 20.6545C30.358 20.6706 30.1329 20.8477 30.0558 21.0987C29.9804 21.3454 29.8787 21.5842 29.7547 21.8086C29.6267 22.0392 29.6559 22.3247 29.8275 22.5248L30.7366 23.5841L30.007 24.3144L28.9552 23.3833C28.7577 23.2085 28.4723 23.175 28.24 23.2997C28.0327 23.4102 27.8112 23.5024 27.5819 23.5726C27.3309 23.6497 27.1538 23.8744 27.1377 24.1369L27.0521 25.5384H26.0203L25.9137 24.1451C25.8937 23.8826 25.7123 23.6602 25.4593 23.5874C25.2094 23.5155 24.9692 23.4188 24.7458 23.2993C24.5135 23.1753 24.2281 23.2088 24.031 23.3833L22.9788 24.3144L22.2492 23.5841L23.1586 22.5248C23.3302 22.3247 23.3591 22.0392 23.2315 21.8086C23.1071 21.5842 23.0058 21.3454 22.9303 21.099C22.8532 20.8477 22.6281 20.6706 22.366 20.6545L21.1545 20.5807C21.1961 20.5492 21.2368 20.5157 21.2746 20.478C21.2746 20.478 23.197 18.2747 23.2052 18.2593C23.3273 18.0274 23.2931 17.7439 23.1196 17.5477L22.661 17.0297L22.656 17.0238C22.6528 17.0202 22.6495 17.0163 22.6462 17.0126L22.6354 17.0005L22.1958 16.4881L22.9175 15.7657L23.9771 16.6754C24.1773 16.8473 24.463 16.8765 24.6936 16.7482C24.9321 16.6157 25.19 16.5091 25.46 16.4313C25.7126 16.3582 25.8937 16.1361 25.9137 15.8736L26.0203 14.4807H27.0521L27.1377 15.8828C27.1538 16.1452 27.3306 16.37 27.5819 16.4471C27.8286 16.5229 28.0674 16.6242 28.2918 16.7486C28.5225 16.8762 28.8079 16.8473 29.0077 16.6754L30.0683 15.7657L30.7878 16.4858C30.7225 16.5409 30.6683 16.6085 30.63 16.6856L29.8666 17.5477C29.6917 17.7452 29.6582 18.03 29.7826 18.2626C29.9017 18.4857 29.9991 18.7261 30.0719 18.9781C30.1454 19.2304 30.3672 19.4105 30.629 19.4308L30.8665 19.4489C31.0883 19.8793 31.395 20.267 31.7756 20.5843L30.6201 20.6545ZM41.0932 39.2905H40.8934L37.1483 34.9305C37.0124 34.7724 36.9426 34.5706 36.9517 34.3623L37.1883 28.9119L39.8613 30.0076L38.8608 34.0474C38.7525 34.4844 38.8083 34.945 39.0179 35.3436L41.0932 39.2905ZM35.129 33.8446C34.7708 34.1753 34.5516 34.6261 34.5116 35.1159L34.1832 39.2905H33.8893L33.3302 33.9053C33.3132 33.7383 33.3572 33.572 33.4543 33.4372L35.876 30.0703L35.7366 33.2823L35.129 33.8446Z" fill="#151F59"/>
<path d="M42.3696 41.3621H39.8172C39.4691 41.3621 39.187 41.6442 39.187 41.9923C39.187 42.3403 39.4691 42.6225 39.8172 42.6225H42.3696C42.7176 42.6225 42.9998 42.3403 42.9998 41.9923C42.9998 41.6442 42.7176 41.3621 42.3696 41.3621Z" fill="#151F59"/>
<path d="M34.8617 41.3621H32.3094C31.9613 41.3621 31.6792 41.6442 31.6792 41.9923C31.6792 42.3403 31.9613 42.6225 32.3094 42.6225H34.8617C35.2098 42.6225 35.492 42.3403 35.492 41.9923C35.492 41.6442 35.2098 41.3621 34.8617 41.3621Z" fill="#151F59"/>
<path d="M27.5575 11.5295C29.8283 11.5295 31.9178 12.5576 33.294 14.2855L32.8239 14.1714C32.4853 14.0897 32.1448 14.2973 32.0628 14.6356C31.9807 14.9738 32.1884 15.3143 32.5266 15.3967L34.4835 15.8711C34.7991 15.9698 35.1977 15.8182 35.2945 15.419L35.7446 13.5622C35.8266 13.2239 35.619 12.8834 35.2807 12.801C34.9422 12.7194 34.6017 12.9267 34.5196 13.2653L34.4192 13.6793C32.8107 11.5455 30.2968 10.269 27.5575 10.269C27.2094 10.269 26.9272 10.5512 26.9272 10.8993C26.9272 11.2473 27.2094 11.5295 27.5575 11.5295Z" fill="#151F59"/>
<path d="M3.1953 8.23736C3.24746 8.6061 3.70642 8.86757 4.05056 8.74192L6.12786 7.98311C6.45494 7.86369 6.62324 7.50184 6.50382 7.17509C6.38408 6.84801 6.02222 6.67971 5.69547 6.79913L5.07904 7.02418C7.00281 3.73599 10.5223 1.68034 14.4148 1.68034C14.7628 1.68034 15.045 1.39821 15.045 1.05013C15.045 0.702057 14.7628 0.419922 14.4148 0.419922C10.0144 0.419922 6.04125 2.77312 3.91212 6.52552L3.66771 5.85627C3.54829 5.52952 3.18611 5.36155 2.85969 5.48064C2.53261 5.60005 2.36431 5.96191 2.48373 6.28899L3.1953 8.23736Z" fill="#151F59"/>
</svg>
