<svg width="510" height="300" fill="none" xmlns="http://www.w3.org/2000/svg"><mask id="a" style="mask-type:alpha" maskUnits="userSpaceOnUse" x="0" y="0" width="510" height="300"><path fill="#11B687" d="M0 0h510v300H0z"/></mask><g mask="url(#a)"><mask id="b" fill="#fff"><path d="M-377.366-1.866c46.863-.448 46.863 1.433 46.863 4.746 0 3.493.179 8.15 34.946 11.642 35.035 2.955 71.773-.627 108.421-5.194C-141.438 2.074-95.651-6.433-47.892-7.597-.132-8.762-.312 3.149-.312 16.76c0 11.821.18 24.269 34.318 28.388 33.333 4.836 69.264-6.179 104.299-17.373 42.562-13.97 85.035-29.641 121.951-19.88 31.81 14.776 23.566 45.044 14.158 77.91-8.513 28.477-16.666 57.492-3.943 82.924 11.022 27.224 29.749 25.164 47.58 23.284 20.967-2.329 39.515-4.388 40.949 40.835 0 46.567-13.441 92.417-25.179 137.64-8.871 36.806-16.487 73.343-13.888 108.984 3.405 34.926 11.648 35.194 19.175 35.552 7.975.269 14.605.269 13.44 48-.627 47.194-3.494 92.686-5.017 137.73-.269 36.537.448 72.984 4.301 107.282.179 10.12.179 20.06.268 29.732-7.078-46.746-8.243-92.059-8.243-137.193 1.075-36.358 3.226-72.985 2.061-107.551-.448-35.373-6.183-35.552-12.634-35.821-9.409 0-20.072-.627-26.344-47.91-5.735-47.91 3.405-93.581 13.709-138.984 9.588-36.716 20.072-73.342 18.459-107.372-2.509-33.492-17.204-32.596-33.422-31.343-22.133 2.329-45.519 4.746-60.662-33.85-19.892-33.851-10.036-69.85-1.344-103.432 5.914-24.895 12.544-49.611-12.545-60.447-26.523-9.314-60.572 2.686-95.07 14.149C93.325 60.64 49.418 73.357 4.258 64.939c-46.505-7.343-46.505-23.552-46.505-37.97-.179-10.746-.269-20.596-35.483-21.044-35.394-.627-72.041 5.91-108.6 11.194-45.698 5.641-91.306 9.85-138.797 3.671-47.131-6.626-47.31-12.626-46.862-17.283-.269-2.687-.448-4.388-35.036-5.463 9.678 0 19.892.18 29.928 0l-.269.09zm-729.104 617.098c6.81 46.657 7.97 92.059 8.06 137.283-1.34 36.357-3.14 72.805-2.24 107.73.63 35.104 6.18 35.194 12.64 35.641 9.31 0 20.16.269 26.25 47.91 5.91 47.731-3.41 93.404-13.53 138.804-9.32 36.36-19.89 73.25-18.28 107.28 2.33 33.59 17.11 32.69 33.33 31.53 21.96-2.24 45.52-4.84 60.664 33.76 19.624 34.21 9.678 70.12.896 103.88-6 25.07-12.54 49.61 12.366 60.53 26.522 9.14 60.841-2.95 95.159-14.15 42.562-12.8 86.378-25.34 131.897-17.28 46.684 7.25 46.505 23.55 46.415 38.15.179 10.75.179 20.51 35.394 21.04 35.214.63 72.22-5.91 108.868-11.46 45.698-5.46 91.217-9.58 138.797-3.67 47.132 6.81 46.953 12.98 47.132 17.1 0 2.96-.18 4.57 34.497 5.74-9.677 0-19.623-.18-29.121-.18-47.132.44-47.58-1.35-47.49-4.75.179-3.67 0-7.97-34.767-11.46-35.214-3.14-71.772.45-108.689 5.19-45.519 7.26-90.769 15.58-138.618 16.84-47.579 1.16-48.206-10.66-48.027-24 0-11.82 0-24.45-34.05-28.75-33.422-4.57-69.264 6.18-104.568 17.64-42.561 13.97-84.407 29.2-121.505 19.61-31.72-14.86-23.56-45.13-14.24-77.82 8.69-28.56 16.75-57.49 4.12-83.1-11.02-27.22-29.75-25.34-47.31-23.46-21.06 2.51-39.52 4.12-40.77-41.11 0-46.56 13.44-92.05 25.09-137.19 8.69-36.8 16.48-73.52 13.53-108.893-3.14-35.194-11.47-35.373-18.82-35.552-7.98-.448-14.61-.895-13.44-48.268.63-47.283 3.49-92.417 5.02-137.193.18-36.805-.63-73.074-4.13-107.73-.17-9.851-.26-19.701-.26-29.731l-.27.089zm-1.62-91.073c12.82 46.745 17.21 92.238 20.43 137.73.9 36.537 1.17 72.805 6.37 107.73 5.01 34.925 13.08 35.194 21.77 35.641 11.92-.268 25.45-.268 37.45 47.463 11.92 47.641 5.92 93.223-1.52 138.804-7.08 36.363-15.32 73.253-9.41 107.463 6.45 33.58 23.39 32.86 41.668 31.97 24.462-2.24 50.357-4.3 70.16 35.55 23.745 36.09 15.501 73.25 8.064 108.45-5.287 26.42-10.573 52.03 15.502 66 27.598 12.53 61.826 2.68 96.772-6.63 43.01-10.3 86.916-20.06 132.883-6.36 46.504 13.08 46.235 31.97 46.235 49.34 0 12.99 0 25.08 35.215 29.91 35.214 5.02 71.862.9 108.689-2.32 45.698-2.51 91.486-3.5 138.886 8.5 47.311 12.54 46.863 21.23 46.684 28.12-.179 5.02-.179 8.96 34.587 14.42-10.125-.18-20.071-.27-29.748-.27-47.042-5.46-47.132-9.85-47.132-15.94.269-6 .269-12.54-34.497-20.33-35.215-7.34-71.863-6.35-108.69-3.94-45.34 4.12-90.859 9.59-138.617 5.02-47.58-4.84-47.849-19.34-47.849-35.37.179-14.15.269-29.02-33.87-37.62-33.602-8.86-69.712-.18-105.016 8.96-43.01 11.82-85.303 24.36-123.564 10.12-33.602-18.9-26.702-50.51-18.727-84.9 7.258-29.28 14.157-59.19-1.613-86.23-14.247-28.12-34.767-26.69-54.662-24.9-23.38 2.24-44.35 3.4-51.07-42-5.91-46.57 4.57-92.06 13.44-137.281 6.36-36.537 11.65-73.343 4.3-108.626-7.17-35.373-17.83-35.194-27.69-35.373-10.57-.269-20.07-.627-24.73-48.179-5.28-47.104-5.19-92.417-6.63-137.371-2.06-36.537-5.46-73.254-13.26-107.731-.27-9.761-.45-20.149-.72-30.089l-.09.269zm-2.06-92.059c18.55 47.014 25.9 92.685 31.81 138.088 3.5 36.716 6.45 73.343 16.04 108.268 9.41 34.925 19.45 34.925 30.38 34.925 15.05 0 31.27 0 49.369 47.641 17.921 47.731 14.874 93.223 10.125 138.894-4.749 36.537-10.483 73.522-.269 107.824 10.753 33.76 29.749 33.04 49.91 32.23 27.06-1.79 55.375-3.4 80.016 37.71 27.688 37.97 21.326 76.2 15.143 112.83-4.121 27.67-8.691 54.81 18.728 71.91 28.583 15.94 63.35 7.97 98.385.72 43.637-7.62 87.812-14.87 134.047 4.56 46.684 19.17 46.684 40.84 46.236 60.99-.179 15.31-.179 29.28 34.946 38.77 35.035 9.41 72.22 7.8 109.048 7.08 45.787.45 91.754 2.33 139.244 20.33 47.132 18.53 47.042 29.91 46.684 39.67-.179 7.25-.448 13.07 34.049 23.01-9.856-.27-19.892-.45-29.748-.71-47.132-11.2-47.132-18.27-46.684-26.96.269-7.79.448-16.66-34.497-28.74-35.036-11.91-71.773-13.26-108.869-13.44-45.788.99-91.217 3.41-138.886-7.25-47.311-10.75-47.759-28.03-47.401-46.84.179-16.03.269-33.31-34.049-46.12-33.871-12.98-69.981-6.62-105.643.45-43.458 8.87-86.02 18.99-125.625.27-35.483-22.83-29.928-56.15-23.297-91.79 5.914-30.54 11.379-61.25-7.527-89.55-17.562-29.28-40.232-28.03-61.827-26.51-25.895 1.79-49.551 3.14-62.006-42.53-11.652-46.75-4.122-92.511 1.882-137.735 3.853-36.805 6.81-73.7-5.018-108.894-11.826-35.194-24.726-35.104-36.556-35.104-13.53-.179-25.45-.179-36.2-47.463-11.2-47.104-14.16-92.864-18.73-138.088-4.57-36.984-10.3-73.701-22.4-108.267-.27-10.03-.45-19.881-.72-30.179h-.09zm-2.51-92.059c24.65 46.835 34.59 92.507 43.73 138.536 5.91 36.716 10.93 73.343 24.91 108.268 13.8 34.925 26.34 34.925 39.61 35.193 17.558-.627 36.823-.447 61.016 47.283 23.835 47.552 23.566 93.134 21.953 139.253-2.24 36.358-5.735 73.253 8.692 107.73 14.874 34.03 36.2 33.582 58.601 33.045 29.569-1.791 60.393-2.956 89.604 39.671 31.809 39.94 27.239 79.25 22.669 117.58-3.225 29.02-7.078 57.58 21.774 77.82 29.749 19.17 64.784 13.25 100.357 8.15 43.906-5.28 88.26-9.85 134.764 15.49 46.863 24.72 46.863 49.52 46.863 72.54-.448 17.55-.448 34.03 34.587 47.91 35.035 13.88 72.042 14.6 109.138 16.21 45.787 3.4 91.485 8.06 138.886 32.24 47.311 24.44 47.311 38.77 47.131 51.31-.448 9.4-.716 17.55 34.05 31.79-10.125-.27-20.16-.45-30.197-.72-46.952-17.37-46.862-27.22-46.504-38.5.179-10.3.448-21.05-34.318-37.88-35.035-16.39-72.221-20.06-109.138-22.57-45.519-1.88-91.306-2.33-139.065-18.99-47.401-16.74-47.311-36.98-47.401-58.47.269-18.72.627-38.15-33.87-54.99-34.229-17.37-70.608-13.43-106.539-8.41-43.637 6.35-86.916 14.14-127.865-9.41-37.365-26.77-32.526-62.06-27.688-99.04 4.391-31.34 8.692-63.05-13.261-92.69-21.057-30.355-45.698-29.639-69.443-28.385-28.226 1.433-54.48 2.328-72.759-43.432-17.562-46.836-12.813-92.686-9.856-138.089 1.434-36.716 2.33-73.521-13.978-108.715-16.398-35.104-31.541-35.194-45.793-35.194-16.21 0-31.09 0-47.75-47.462-17.21-47.283-23.12-92.865-30.65-138.357-6.81-36.806-14.87-73.343-31.54-107.999-.27-10.03-.45-20.507-.72-30.537v-.179zm-1.16-90.895c30.46 46.836 43.19 92.417 54.48 137.73 8.06 36.537 15.32 73.253 33.69 108.268 18.28 34.925 33.153 34.925 48.923 35.194 20.788 0 43.01.268 73.207 47.731 29.928 47.641 32.257 93.133 33.243 138.625-.179 36.537-1.344 73.343 17.383 108.268 19.175 34.208 42.562 33.581 67.203 33.313 32.257-.985 65.59-2.06 99.46 41.82 35.932 41.821 32.706 82.388 29.57 121.965-2.33 30.54-4.66 60.45 25.447 83.73 30.914 22.39 66.038 18.54 101.522 15.32 44.354-2.78 88.887-4.75 135.57 26.24 47.132 30.53 47.311 57.94 47.042 84.09.18 20.06.269 39.04 35.484 57.31 35.035 18.27 71.593 21.22 108.331 25.07 45.788 5.91 91.217 13.44 138.617 43.44 47.311 30.35 47.4 47.73 47.4 63.4.27 11.91.27 22.83 35.394 41.28-10.304-.18-20.34-.27-30.196-.63-47.132-23.1-47.132-35.91-47.311-50.5.18-12.54-.18-26.06-35.035-47.11-35.215-20.59-71.415-26.5-108.6-31.25-45.34-4.48-91.038-7.79-138.618-30.63-47.4-22.65-47.579-45.85-47.759-70.56.269-20.96 0-42.72-34.497-63.94-34.318-21.67-70.608-19.26-106.808-16.66-43.906 3.85-87.364 9.13-129.657-18.98-39.515-30.99-35.931-67.97-32.526-106.39 3.225-32.151 5.914-65.106-19.175-95.911-24.283-31.522-50.806-30.627-76.791-30.09-30.914.896-59.856 1.881-83.69-44.328-23.387-47.014-21.684-93.133-21.236-138.177-.717-36.537-2.33-73.343-23.029-108.716-20.788-35.104-38.44-34.925-55.106-35.193-19.444-.448-37.092-.269-59.942-47.552-23.12-47.283-31.99-93.402-41.85-138.178-9.14-36.716-18.99-73.522-39.87-108.178-.18-9.851-.27-19.701-.45-29.731l.18-.09zm3.49-86.327c35.93 46.746 49.82 90.357 63.08 134.775 9.59 35.82 18.55 72.088 41.22 107.014 22.583 34.925 40.414 35.372 59.052 36.089 24.014.448 50.268 1.791 86.02 48.895 35.662 47.104 39.784 91.79 43.278 136.745 1.613 36.268 2.689 72.805 25.538 107.73 23.297 34.298 49.013 34.209 75.984 34.03 34.587-.448 70.876-.896 109.048 44.059 39.605 43.343 37.902 85.163 36.2 125.82-1.344 31.79-2.778 63.044 28.583 89.464 31.989 25.79 67.203 23.55 102.955 22.21 44.086-.45 88.35-.45 135.123 35.82 46.863 36.26 47.401 67.16 47.58 96.53.448 22.57 1.165 44.24 36.11 66.9 35.036 22.65 71.056 27.4 107.436 32.86 44.622 8.42 88.797 17.38 135.929 53.02 47.042 35.82 48.476 57.49 49.372 76.74.896 14.87 1.792 28.75 36.648 51.41-10.126.17-20.34 0-30.018-.18-47.4-29.02-47.4-45.05-47.848-62.87-.896-15.58-1.524-31.79-36.11-57.13-35.036-24.9-71.326-32.6-107.257-38.87-45.25-6.89-90.769-12.98-138.348-41.73-47.311-28.83-47.401-54.8-47.401-82.65-.627-23.56-.627-47.91-35.035-73.35-34.587-25.34-70.877-25.34-106.36-24.62-44.802 1.79-88.708 4.56-132.166-28.3-41.397-34.93-38.888-73.524-36.648-113.195 1.882-33.402 3.226-66.716-24.641-98.864-27.508-32.597-56.271-32.418-84.138-31.791-33.691.268-65.59.716-94.98-45.851-29.211-47.193-30.107-92.864-32.078-137.371-2.689-36.358-6.004-72.537-30.914-107.552-24.999-34.925-45.519-35.551-64.783-36.089-22.939-1.074-43.906-1.164-72.671-48.447-28.85-47.462-40.23-92.775-51.97-137.014-10.75-36.089-22.22-71.73-47.4-106.208.27-9.403.72-19.164 1.79-28.029h-.18zm14.7-74.865c40.77 45.671 53.49 85.163 66.13 126.446 10.48 34.299 20.16 68.865 46.859 103.611 26.792 34.299 48.028 36.09 69.533 37.881 29.211 2.328 60.124 5.641 100.894 51.76 40.501 46.119 45.34 88.298 49.641 131.551 3.405 35.194 5.734 70.746 32.526 105.492 27.24 34.208 55.555 34.656 84.855 34.925 37.544.268 76.432.716 118.188 45.85 42.562 44.328 42.024 86.507 41.576 128.327-.627 32.866-1.344 65.373 30.913 94.746 32.885 28.566 68.189 28.119 103.672 28.298 43.279.895 86.647 2.06 132.435 43.159 45.967 40.84 47.58 75.85 49.192 108.99.717 25.52 1.793 50.06 36.38 77.01 34.766 26.69 69.98 32.6 105.015 39.32 41.846 8.5 83.064 17.28 129.03 57.76 46.146 40.83 50.268 68.23 54.211 92.77 1.792 18.54 3.853 36 38.44 62.78-8.513 1.16-17.563 2.24-26.971 2.5-47.132-34.65-48.924-55.07-51.433-77.46-1.792-19.16-3.853-39.31-38.171-68.32-34.318-29.02-68.816-36.99-103.582-44.51-43.637-7.97-87.543-15.76-134.944-50.24-46.952-34.66-48.028-64.12-49.013-95.73-.717-26.24-1.434-53.46-35.483-82.66-34.229-29.19-69.712-30.53-105.375-31.07-43.906-.18-87.812.72-132.255-36.717-43.189-38.776-42.024-78.626-40.949-119.909.896-34.03 1.344-68.059-29.301-100.746-30.196-33.134-61.11-33.313-91.037-33.402-36.559 0-71.146-.179-106.091-46.836-34.946-47.014-37.724-91.611-41.577-135.58-3.942-35.194-8.422-70.03-37.275-104.507-29.032-34.298-52.866-36.089-75.267-37.612-26.971-1.791-51.971-3.223-86.468-50.417-34.588-47.283-47.038-90.626-59.678-133.252-11.47-34.478-22.85-67.791-51.88-101.82 2.33-7.344 4.57-14.776 7.08-22.388h.18zm34.59-55.253c44.35 43.611 53.49 77.193 63.794 112.745 7.527 29.283 16.666 60.984 47.042 94.924 30.376 33.761 55.375 36.806 82.346 41.552 34.498 5.015 70.967 10.746 115.32 54.537 44.175 43.791 48.207 82.387 52.419 121.969 2.688 32.686 5.555 67.074 36.11 100.924 30.466 33.761 61.558 34.209 93.547 35.552 40.232 1.164 81.629 1.881 125.804 45.94 44.175 43.88 44.175 85.88 44.175 128.327 0 33.851-.001 67.522 32.884 98.865 32.974 31.253 67.651 31.88 101.79 32.238 41.845 1.523 82.615 3.135 126.432 47.463 43.726 44.328 46.952 83.373 49.82 120.803 2.777 29.64 4.748 57.58 38.619 87.94 33.87 30.36 66.576 36.54 97.668 41.55 37.992 7.26 73.923 13.97 117.561 58.39 43.726 44.33 52.149 77.91 59.228 109.34 6.451 24.9 10.573 46.75 44.622 77.11-7.616 2.5-15.053 4.83-22.401 7.25-46.235-39.94-51.253-66-55.554-93.4-5.914-25.35-11.648-51.14-44.623-82.93-32.884-32.15-62.902-38.5-93.725-43.88-41.129-8.41-82.078-16.21-128.582-55.88-46.146-39.76-48.566-73.7-50.268-108.71-2.509-30.18-4.57-60.99-37.275-93.136-33.154-31.97-66.576-33.492-100.446-34.298-43.279-1.343-86.02-1.881-131.091-43.074-44.085-42-44.085-83.283-43.727-125.372.179-34.298.179-68.686-32.257-101.193-32.078-32.866-65.142-33.313-97.669-34.03-38.888-.627-76.79-1.343-116.485-47.283-39.963-46.387-43.637-89.283-48.655-131.103-3.136-32.418-6.899-64.388-38.709-97.432-32.078-33.044-60.393-36.537-88.08-40.835-31.093-3.224-61.021-6.806-100.626-52.925-39.878-46.388-51.428-86.596-63.978-126.089-8.24-28.835-16.75-57.581-48.92-90.178 3.94-5.731 8.06-11.462 13.98-15.492l-.09-.18zm60.21-29.373c46.146 39.76 50.985 65.91 55.375 93.223 5.914 25.343 11.649 51.134 44.533 83.103 32.975 31.791 63.171 38.149 93.726 43.881 40.949 8.417 82.257 16.208 128.582 55.88 46.235 39.761 48.476 73.521 50.357 108.715 2.509 30.089 4.57 60.895 37.365 92.954 32.974 31.97 66.486 33.493 100.177 34.478 43.279 1.343 86.289 1.791 131.091 43.163 44.175 42 44.085 83.104 43.906 125.372 0 34.209-.179 68.507 32.078 101.104 32.258 32.865 65.411 33.313 97.937 34.029 38.888.448 76.612 1.165 116.844 47.104 39.605 46.567 43.637 89.015 48.207 131.283 3.226 32.243 6.9 64.383 38.709 97.433 31.988 33.04 60.393 36.71 88.08 41.01 31.272 3.14 61.29 6.63 100.715 52.93 39.964 46.39 51.433 86.33 64.067 125.82 8.065 29.01 16.667 57.58 48.745 90.44-3.853 5.65-7.975 11.2-13.978 15.5-44.354-43.88-53.673-77.38-63.978-112.84-7.347-29.28-16.487-60.98-46.863-94.92-30.465-33.85-55.375-36.81-82.525-41.55-34.497-5.02-70.877-10.93-115.32-54.54-44.175-43.79-48.207-82.21-52.329-122.328-2.688-32.686-5.645-66.895-36.11-100.656-30.645-33.761-61.469-34.298-93.726-35.552-40.412-.985-81.629-1.88-125.804-45.85-44.175-43.88-44.175-86.059-44.533-128.327.179-33.851.269-67.611-32.527-99.044-33.153-31.253-67.651-31.791-101.79-32.417-41.845-1.344-82.615-3.135-126.072-47.463-43.906-44.328-47.132-83.372-49.91-120.984-2.957-29.462-5.018-57.313-38.709-87.76-34.049-30.358-66.844-36.268-97.668-41.552-37.992-7.074-73.834-13.88-117.381-58.208-43.727-44.328-52.329-77.91-59.408-109.342-6.451-25.075-10.752-46.836-44.443-77.194 7.35-2.328 14.69-4.746 22.4-7.074l.18.179zm78.493-11.373c46.952 34.746 48.745 54.984 51.253 77.372 1.792 19.164 3.943 39.671 38.261 68.686 34.229 28.836 68.816 36.716 103.583 44.328 43.278 8.149 87.543 15.761 134.764 50.417 47.132 34.478 48.028 64.119 49.192 95.641.717 26.239 1.613 53.462 35.663 82.835 34.049 29.373 69.712 30.179 105.016 31.075 43.906 0 87.901-.538 132.434 36.805 43.279 38.597 41.845 78.537 40.77 119.91-.717 33.85-.985 67.88 29.48 100.655 30.376 33.045 61.11 33.403 91.306 33.313 36.2-.179 70.967.18 106.181 46.836 34.766 47.104 37.723 91.342 41.397 135.581 3.853 35.551 8.244 70.118 37.007 104.771 29.121 34.21 53.045 36 75.536 37.44 26.791 1.61 51.97 3.4 86.468 50.5 34.766 47.11 46.863 90.27 59.676 133.17 11.469 34.47 22.849 67.79 51.97 101.82-2.509 7.7-4.838 15.22-7.078 22.38-41.129-45.67-53.763-85.34-66.307-126.53-10.484-34.3-20.161-68.87-46.953-103.43-26.792-34.75-47.759-36.36-69.353-37.97-29.301-2.33-60.304-5.65-101.163-51.59-40.412-46.294-45.25-88.383-49.641-131.546-2.957-35.642-5.466-71.194-32.257-105.671-27.24-34.298-55.644-34.746-84.855-35.104-37.903-.269-76.612-.627-118.457-45.671-42.562-44.328-42.114-86.507-41.845-128.238.627-33.045 1.613-65.552-30.644-94.745-32.706-28.836-68.548-28.299-103.851-28.388-43.19-.985-86.737-2.239-132.166-43.164-45.967-40.925-47.58-76.208-49.372-109.342-.986-25.343-1.882-49.791-36.559-76.656-34.766-26.866-70.159-32.866-104.836-39.761-42.024-8.418-83.242-16.925-129.209-57.582-46.146-40.835-50.358-68.059-54.031-93.133-2.061-18.268-3.943-35.641-38.261-62.507 8.512-.985 17.114-2.239 26.791-2.507h.09zm88.26-1.791c47.042 29.194 46.684 44.954 47.58 62.954.716 15.761 1.612 32.15 36.379 57.313 34.945 24.896 70.966 32.418 106.987 38.866 44.892 6.805 90.858 12.984 138.348 41.82 47.58 28.567 47.311 54.626 47.759 82.477.269 23.552.717 47.999 35.215 73.522 34.497 25.611 70.608 25.163 106.181 24.626 44.353-1.791 88.797-4.746 131.986 28.478 41.576 34.745 38.888 73.253 36.648 113.282-1.792 33.134-3.136 66.895 24.731 98.865 27.508 32.507 56.45 31.97 84.407 31.522 33.601-.448 65.232-.896 95.16 45.671 29.21 47.104 30.196 92.507 31.988 137.641 2.509 36.268 5.914 72.805 30.824 107.819 25.179 34.925 45.519 35.194 65.142 35.821 22.849.895 43.906.985 72.49 48.629 29.031 47.28 40.321 92.68 52.328 136.92 10.574 35.91 22.132 72 47.311 106.84-.269 9.31-.717 18.53-1.971 27.58-35.931-47.02-49.91-90.81-62.902-134.96-9.767-36.09-18.548-72.08-41.397-107.01-22.67-34.92-40.412-35.64-58.96-36.09-24.282-.89-50.536-1.88-86.378-49.073-35.662-47.194-39.784-91.969-43.189-136.745-1.792-36.537-2.33-72.895-25.448-107.551-23.386-34.299-49.372-34.478-76.163-34.03-34.946.179-70.877.627-109.138-44.059-39.605-43.433-37.902-85.343-36.2-125.82 1.165-31.97 2.778-63.223-28.583-89.551-31.989-25.612-67.472-23.731-102.955-22.209-44.175.269-88.529.269-134.944-36.089-46.863-36.089-47.759-67.164-47.759-96.357-.896-22.388-1.165-44.149-36.2-66.895-35.035-22.657-71.414-27.224-107.256-33.045-44.891-8.418-88.977-17.104-135.929-52.925-47.042-36-48.924-57.492-49.641-76.924-.716-14.866-1.613-28.567-36.379-51.403 9.588-.179 19.713 0 30.017.18l-.089-.09zm90.858 1.522c46.953 23.284 46.684 36 46.953 50.417.179 12.627.269 26.24 35.035 47.284 35.035 20.596 71.862 26.417 108.6 31.074 45.25 4.746 91.217 7.97 138.886 30.806 47.401 22.746 47.311 45.94 47.401 70.477 0 21.044.268 42.895 34.766 64.208 34.318 21.671 70.608 19.433 106.36 16.836 44.085-3.941 87.901-9.314 129.926 19.164 39.605 30.805 36.11 67.611 32.526 105.939-3.047 32.418-5.735 65.283 19.265 96.268 24.462 31.522 51.164 30.537 76.88 29.731 30.734-1.075 59.766-1.881 83.959 44.328 23.387 47.014 21.684 92.864 21.236 138.177.717 36.716 2.24 73.791 22.849 109.074 20.878 35.015 38.261 35.015 55.107 35.015 19.265.268 37.275.179 59.945 47.73 23.118 47.284 31.988 92.956 41.845 138.176 9.139 36.81 19.265 73.52 40.232 108.45.179 9.76.269 19.7.448 29.64-30.645-47.01-43.458-92.51-54.838-137.91-8.064-36.8-15.143-73.341-33.691-108.266-18.1-35.194-33.243-35.194-48.744-35.194-21.057 0-43.279-.269-73.476-47.731-29.927-47.641-32.257-93.223-33.153-138.804.179-36.806 1.523-73.701-17.383-108.179-19.265-34.298-42.742-34.029-67.293-33.313-32.437.896-65.859 1.791-99.73-41.999-35.751-41.821-32.705-82.656-29.568-121.88 2.24-30.537 4.838-60.536-25.179-83.82-30.914-22.567-66.486-18.537-101.611-15.313-44.623 2.686-89.425 4.746-135.84-26.418-47.131-30.626-47.131-58.208-46.683-84.268-.448-19.88-.628-38.775-35.484-57.133-35.214-18.269-72.041-21.045-108.6-24.896-45.966-6.179-91.485-13.701-138.886-43.79-47.311-30.358-47.4-47.642-47.131-63.403-.18-11.91-.18-22.835-35.036-41.104 9.857.18 19.892.448 30.197.627h-.09zm92.382 2.328c46.684 17.373 46.236 27.134 46.236 38.597-.269 9.85-.448 21.045 34.497 37.701 34.946 16.388 72.042 19.701 109.048 22.567 45.519 1.791 91.665 2.328 139.245 19.164 47.58 16.657 47.132 36.806 47.132 58.656-.18 18.448 0 37.701 34.318 54.985 34.049 17.283 70.429 12.985 106.181 8.418 43.458-6.448 87.364-14.239 127.864 9.403 37.724 26.865 32.706 61.7 27.867 98.864-4.57 31.343-8.512 63.224 13.53 92.686 20.968 30.537 45.788 29.283 69.533 28.119 27.957-1.343 54.479-2.328 72.938 43.612 17.383 47.014 12.813 92.417 9.677 137.909-1.613 36.985-2.24 73.79 13.978 109.073 16.398 35.194 31.541 35.194 45.698 35.015 16.308.179 31.362.179 47.849 47.731 17.204 47.283 23.297 92.686 30.644 137.909 7.079 37.167 14.875 73.967 31.631 108.627.268 10.48.627 20.33.896 30.36-24.731-47.02-35.035-92.69-43.727-138.629-6.004-36.716-11.021-73.342-25.179-108.178-13.799-35.014-26.254-35.194-39.515-35.194-17.921.448-37.007.269-61.11-47.462-23.835-47.641-23.745-93.223-22.132-138.984 2.509-36.984 6.003-73.7-8.423-108.267-15.053-33.851-36.379-33.403-58.96-32.507-29.569 1.432-60.213 2.686-89.603-39.94-31.99-39.94-27.24-79.253-22.85-117.313 3.226-29.193 6.9-57.76-21.773-77.999-29.928-18.985-65.142-13.074-100.357-7.97-44.085 5.194-88.708 9.761-134.764-15.761-47.042-24.895-47.042-49.343-46.684-72.537-.179-17.373.179-34.029-35.035-47.73-35.035-13.881-72.221-14.597-108.869-16.388-45.967-3.224-91.754-8.15-139.244-32.239-47.401-24.447-47.311-38.596-46.684-51.402 0-9.403.448-17.642-34.318-31.702 9.856.27 19.892.627 30.375.717l.09.09zm91.665 2.24c46.863 11.372 46.684 18.447 46.235 26.954 0 7.791-.268 16.836 34.588 28.836 35.035 11.82 72.221 12.985 108.689 13.433 45.788-.986 91.576-3.493 139.245 7.253 47.58 10.657 47.4 28.03 47.311 46.746-.179 16.388 0 33.313 34.139 46.298 33.691 13.074 69.98 6.627 105.643-.448 43.279-8.865 86.289-18.985 125.804-.179 35.483 22.836 29.569 56.238 23.297 91.611-5.914 30.358-11.2 61.164 7.527 89.462 17.831 29.373 40.411 28.03 62.185 26.507 25.806-1.612 49.551-3.224 62.006 42.627 11.828 46.656 4.301 92.417-1.792 137.64-3.943 36.985-7.079 73.79 4.57 109.163 12.186 34.925 25.089 34.925 36.827 35.015 13.44.269 25.627.179 36.2 47.641 11.2 47.104 14.247 92.686 18.727 138.088 4.749 36.806 10.125 73.522 22.67 107.999.179 10.3.448 20.15.717 30.18-18.817-47.015-26.254-92.418-31.989-137.731-3.674-36.805-6.451-73.521-16.218-108.267-9.319-35.194-19.444-35.194-30.376-35.015-15.053.179-31.272-.179-49.461-47.731-17.832-47.731-14.606-93.402-9.857-138.805 4.66-36.984 10.484-73.79.269-108.178-10.932-33.581-29.928-33.044-50.088-31.969-27.419 1.791-55.555 3.223-80.106-37.881-27.867-37.969-21.505-76.208-15.323-112.566 3.853-27.671 8.513-55.074-18.996-72.089-28.584-15.94-63.53-7.791-98.116-.716-44.085 7.791-88.26 14.865-134.048-4.746-46.863-19.164-46.863-40.657-46.235-60.985-.269-15.044-.269-29.373-35.394-38.775-35.214-9.314-72.131-7.523-108.6-7.075-46.236-.448-91.934-2.239-139.334-20.328-47.311-18.537-47.132-29.91-46.594-39.672-.18-7.074.179-13.253-34.498-23.014 9.857.268 19.892.627 30.197.716h.179zm91.217 1.163c46.683 5.642 46.863 10.21 46.863 16.12-.18 5.73-.269 12.358 34.497 20.06 34.946 7.521 72.042 6.357 108.69 4.118 45.698-4.119 91.217-9.582 138.796-4.746 47.76 4.567 47.76 19.343 47.58 35.373 0 14.15 0 28.836 34.05 37.253 33.69 8.956 69.801.269 105.195-8.865 42.83-11.463 85.572-24.358 123.743-10.03 33.601 18.895 26.702 50.418 18.548 84.537-7.079 29.372-13.889 59.372 1.792 86.238 14.605 28.119 35.035 26.507 54.927 24.716 23.297-2.239 44.354-3.224 51.433 42.178 5.914 46.567-4.57 91.791-13.799 137.193-6.183 36.716-11.469 73.522-4.301 108.984 7.527 35.104 18.1 35.104 27.687 35.104 10.932.269 20.341.717 25.09 48.448 5.286 47.193 5.197 92.058 6.63 137.013 2.061 36.806 5.287 73.522 13.441 107.999.179 10.299.448 20.149.627 30.09-12.813-46.836-17.114-92.417-20.161-137.91-1.344-36.357-1.613-72.894-6.899-107.73-4.839-35.194-12.814-35.194-21.505-35.641-12.186.447-25.448 0-37.724-47.463-11.917-47.73-5.734-93.312 1.613-138.804 7.348-36.806 15.502-73.522 9.588-107.731-6.631-33.402-23.566-32.686-41.845-31.79-24.641 2.238-50.537 4.298-70.429-35.552-23.745-36.089-15.501-73.074-8.243-107.999 5.197-26.507 10.662-52.298-15.502-66.358-27.598-12.537-62.006-2.507-96.682 6.627-43.19 10.298-87.544 20.149-133.063 6.179-46.683-13.074-46.414-31.97-46.235-49.164 0-12.985-.179-24.895-35.215-30.089-35.214-4.836-72.22-.627-108.689 2.328-45.788 2.508-91.755 3.582-139.245-8.507-47.131-12.537-46.863-21.044-46.415-28.119-.179-5.015 0-8.955-34.587-14.239 9.857.18 19.713.18 29.928.18h-.179z"/></mask><path d="M-377.366-1.866c46.863-.448 46.863 1.433 46.863 4.746 0 3.493.179 8.15 34.946 11.642 35.035 2.955 71.773-.627 108.421-5.194C-141.438 2.074-95.651-6.433-47.892-7.597-.132-8.762-.312 3.149-.312 16.76c0 11.821.18 24.269 34.318 28.388 33.333 4.836 69.264-6.179 104.299-17.373 42.562-13.97 85.035-29.641 121.951-19.88 31.81 14.776 23.566 45.044 14.158 77.91-8.513 28.477-16.666 57.492-3.943 82.924 11.022 27.224 29.749 25.164 47.58 23.284 20.967-2.329 39.515-4.388 40.949 40.835 0 46.567-13.441 92.417-25.179 137.64-8.871 36.806-16.487 73.343-13.888 108.984 3.405 34.926 11.648 35.194 19.175 35.552 7.975.269 14.605.269 13.44 48-.627 47.194-3.494 92.686-5.017 137.73-.269 36.537.448 72.984 4.301 107.282.179 10.12.179 20.06.268 29.732-7.078-46.746-8.243-92.059-8.243-137.193 1.075-36.358 3.226-72.985 2.061-107.551-.448-35.373-6.183-35.552-12.634-35.821-9.409 0-20.072-.627-26.344-47.91-5.735-47.91 3.405-93.581 13.709-138.984 9.588-36.716 20.072-73.342 18.459-107.372-2.509-33.492-17.204-32.596-33.422-31.343-22.133 2.329-45.519 4.746-60.662-33.85-19.892-33.851-10.036-69.85-1.344-103.432 5.914-24.895 12.544-49.611-12.545-60.447-26.523-9.314-60.572 2.686-95.07 14.149C93.325 60.64 49.418 73.357 4.258 64.939c-46.505-7.343-46.505-23.552-46.505-37.97-.179-10.746-.269-20.596-35.483-21.044-35.394-.627-72.041 5.91-108.6 11.194-45.698 5.641-91.306 9.85-138.797 3.671-47.131-6.626-47.31-12.626-46.862-17.283-.269-2.687-.448-4.388-35.036-5.463 9.678 0 19.892.18 29.928 0l-.269.09zm-729.104 617.098c6.81 46.657 7.97 92.059 8.06 137.283-1.34 36.357-3.14 72.805-2.24 107.73.63 35.104 6.18 35.194 12.64 35.641 9.31 0 20.16.269 26.25 47.91 5.91 47.731-3.41 93.404-13.53 138.804-9.32 36.36-19.89 73.25-18.28 107.28 2.33 33.59 17.11 32.69 33.33 31.53 21.96-2.24 45.52-4.84 60.664 33.76 19.624 34.21 9.678 70.12.896 103.88-6 25.07-12.54 49.61 12.366 60.53 26.522 9.14 60.841-2.95 95.159-14.15 42.562-12.8 86.378-25.34 131.897-17.28 46.684 7.25 46.505 23.55 46.415 38.15.179 10.75.179 20.51 35.394 21.04 35.214.63 72.22-5.91 108.868-11.46 45.698-5.46 91.217-9.58 138.797-3.67 47.132 6.81 46.953 12.98 47.132 17.1 0 2.96-.18 4.57 34.497 5.74-9.677 0-19.623-.18-29.121-.18-47.132.44-47.58-1.35-47.49-4.75.179-3.67 0-7.97-34.767-11.46-35.214-3.14-71.772.45-108.689 5.19-45.519 7.26-90.769 15.58-138.618 16.84-47.579 1.16-48.206-10.66-48.027-24 0-11.82 0-24.45-34.05-28.75-33.422-4.57-69.264 6.18-104.568 17.64-42.561 13.97-84.407 29.2-121.505 19.61-31.72-14.86-23.56-45.13-14.24-77.82 8.69-28.56 16.75-57.49 4.12-83.1-11.02-27.22-29.75-25.34-47.31-23.46-21.06 2.51-39.52 4.12-40.77-41.11 0-46.56 13.44-92.05 25.09-137.19 8.69-36.8 16.48-73.52 13.53-108.893-3.14-35.194-11.47-35.373-18.82-35.552-7.98-.448-14.61-.895-13.44-48.268.63-47.283 3.49-92.417 5.02-137.193.18-36.805-.63-73.074-4.13-107.73-.17-9.851-.26-19.701-.26-29.731l-.27.089zm-1.62-91.073c12.82 46.745 17.21 92.238 20.43 137.73.9 36.537 1.17 72.805 6.37 107.73 5.01 34.925 13.08 35.194 21.77 35.641 11.92-.268 25.45-.268 37.45 47.463 11.92 47.641 5.92 93.223-1.52 138.804-7.08 36.363-15.32 73.253-9.41 107.463 6.45 33.58 23.39 32.86 41.668 31.97 24.462-2.24 50.357-4.3 70.16 35.55 23.745 36.09 15.501 73.25 8.064 108.45-5.287 26.42-10.573 52.03 15.502 66 27.598 12.53 61.826 2.68 96.772-6.63 43.01-10.3 86.916-20.06 132.883-6.36 46.504 13.08 46.235 31.97 46.235 49.34 0 12.99 0 25.08 35.215 29.91 35.214 5.02 71.862.9 108.689-2.32 45.698-2.51 91.486-3.5 138.886 8.5 47.311 12.54 46.863 21.23 46.684 28.12-.179 5.02-.179 8.96 34.587 14.42-10.125-.18-20.071-.27-29.748-.27-47.042-5.46-47.132-9.85-47.132-15.94.269-6 .269-12.54-34.497-20.33-35.215-7.34-71.863-6.35-108.69-3.94-45.34 4.12-90.859 9.59-138.617 5.02-47.58-4.84-47.849-19.34-47.849-35.37.179-14.15.269-29.02-33.87-37.62-33.602-8.86-69.712-.18-105.016 8.96-43.01 11.82-85.303 24.36-123.564 10.12-33.602-18.9-26.702-50.51-18.727-84.9 7.258-29.28 14.157-59.19-1.613-86.23-14.247-28.12-34.767-26.69-54.662-24.9-23.38 2.24-44.35 3.4-51.07-42-5.91-46.57 4.57-92.06 13.44-137.281 6.36-36.537 11.65-73.343 4.3-108.626-7.17-35.373-17.83-35.194-27.69-35.373-10.57-.269-20.07-.627-24.73-48.179-5.28-47.104-5.19-92.417-6.63-137.371-2.06-36.537-5.46-73.254-13.26-107.731-.27-9.761-.45-20.149-.72-30.089l-.09.269zm-2.06-92.059c18.55 47.014 25.9 92.685 31.81 138.088 3.5 36.716 6.45 73.343 16.04 108.268 9.41 34.925 19.45 34.925 30.38 34.925 15.05 0 31.27 0 49.369 47.641 17.921 47.731 14.874 93.223 10.125 138.894-4.749 36.537-10.483 73.522-.269 107.824 10.753 33.76 29.749 33.04 49.91 32.23 27.06-1.79 55.375-3.4 80.016 37.71 27.688 37.97 21.326 76.2 15.143 112.83-4.121 27.67-8.691 54.81 18.728 71.91 28.583 15.94 63.35 7.97 98.385.72 43.637-7.62 87.812-14.87 134.047 4.56 46.684 19.17 46.684 40.84 46.236 60.99-.179 15.31-.179 29.28 34.946 38.77 35.035 9.41 72.22 7.8 109.048 7.08 45.787.45 91.754 2.33 139.244 20.33 47.132 18.53 47.042 29.91 46.684 39.67-.179 7.25-.448 13.07 34.049 23.01-9.856-.27-19.892-.45-29.748-.71-47.132-11.2-47.132-18.27-46.684-26.96.269-7.79.448-16.66-34.497-28.74-35.036-11.91-71.773-13.26-108.869-13.44-45.788.99-91.217 3.41-138.886-7.25-47.311-10.75-47.759-28.03-47.401-46.84.179-16.03.269-33.31-34.049-46.12-33.871-12.98-69.981-6.62-105.643.45-43.458 8.87-86.02 18.99-125.625.27-35.483-22.83-29.928-56.15-23.297-91.79 5.914-30.54 11.379-61.25-7.527-89.55-17.562-29.28-40.232-28.03-61.827-26.51-25.895 1.79-49.551 3.14-62.006-42.53-11.652-46.75-4.122-92.511 1.882-137.735 3.853-36.805 6.81-73.7-5.018-108.894-11.826-35.194-24.726-35.104-36.556-35.104-13.53-.179-25.45-.179-36.2-47.463-11.2-47.104-14.16-92.864-18.73-138.088-4.57-36.984-10.3-73.701-22.4-108.267-.27-10.03-.45-19.881-.72-30.179h-.09zm-2.51-92.059c24.65 46.835 34.59 92.507 43.73 138.536 5.91 36.716 10.93 73.343 24.91 108.268 13.8 34.925 26.34 34.925 39.61 35.193 17.558-.627 36.823-.447 61.016 47.283 23.835 47.552 23.566 93.134 21.953 139.253-2.24 36.358-5.735 73.253 8.692 107.73 14.874 34.03 36.2 33.582 58.601 33.045 29.569-1.791 60.393-2.956 89.604 39.671 31.809 39.94 27.239 79.25 22.669 117.58-3.225 29.02-7.078 57.58 21.774 77.82 29.749 19.17 64.784 13.25 100.357 8.15 43.906-5.28 88.26-9.85 134.764 15.49 46.863 24.72 46.863 49.52 46.863 72.54-.448 17.55-.448 34.03 34.587 47.91 35.035 13.88 72.042 14.6 109.138 16.21 45.787 3.4 91.485 8.06 138.886 32.24 47.311 24.44 47.311 38.77 47.131 51.31-.448 9.4-.716 17.55 34.05 31.79-10.125-.27-20.16-.45-30.197-.72-46.952-17.37-46.862-27.22-46.504-38.5.179-10.3.448-21.05-34.318-37.88-35.035-16.39-72.221-20.06-109.138-22.57-45.519-1.88-91.306-2.33-139.065-18.99-47.401-16.74-47.311-36.98-47.401-58.47.269-18.72.627-38.15-33.87-54.99-34.229-17.37-70.608-13.43-106.539-8.41-43.637 6.35-86.916 14.14-127.865-9.41-37.365-26.77-32.526-62.06-27.688-99.04 4.391-31.34 8.692-63.05-13.261-92.69-21.057-30.355-45.698-29.639-69.443-28.385-28.226 1.433-54.48 2.328-72.759-43.432-17.562-46.836-12.813-92.686-9.856-138.089 1.434-36.716 2.33-73.521-13.978-108.715-16.398-35.104-31.541-35.194-45.793-35.194-16.21 0-31.09 0-47.75-47.462-17.21-47.283-23.12-92.865-30.65-138.357-6.81-36.806-14.87-73.343-31.54-107.999-.27-10.03-.45-20.507-.72-30.537v-.179zm-1.16-90.895c30.46 46.836 43.19 92.417 54.48 137.73 8.06 36.537 15.32 73.253 33.69 108.268 18.28 34.925 33.153 34.925 48.923 35.194 20.788 0 43.01.268 73.207 47.731 29.928 47.641 32.257 93.133 33.243 138.625-.179 36.537-1.344 73.343 17.383 108.268 19.175 34.208 42.562 33.581 67.203 33.313 32.257-.985 65.59-2.06 99.46 41.82 35.932 41.821 32.706 82.388 29.57 121.965-2.33 30.54-4.66 60.45 25.447 83.73 30.914 22.39 66.038 18.54 101.522 15.32 44.354-2.78 88.887-4.75 135.57 26.24 47.132 30.53 47.311 57.94 47.042 84.09.18 20.06.269 39.04 35.484 57.31 35.035 18.27 71.593 21.22 108.331 25.07 45.788 5.91 91.217 13.44 138.617 43.44 47.311 30.35 47.4 47.73 47.4 63.4.27 11.91.27 22.83 35.394 41.28-10.304-.18-20.34-.27-30.196-.63-47.132-23.1-47.132-35.91-47.311-50.5.18-12.54-.18-26.06-35.035-47.11-35.215-20.59-71.415-26.5-108.6-31.25-45.34-4.48-91.038-7.79-138.618-30.63-47.4-22.65-47.579-45.85-47.759-70.56.269-20.96 0-42.72-34.497-63.94-34.318-21.67-70.608-19.26-106.808-16.66-43.906 3.85-87.364 9.13-129.657-18.98-39.515-30.99-35.931-67.97-32.526-106.39 3.225-32.151 5.914-65.106-19.175-95.911-24.283-31.522-50.806-30.627-76.791-30.09-30.914.896-59.856 1.881-83.69-44.328-23.387-47.014-21.684-93.133-21.236-138.177-.717-36.537-2.33-73.343-23.029-108.716-20.788-35.104-38.44-34.925-55.106-35.193-19.444-.448-37.092-.269-59.942-47.552-23.12-47.283-31.99-93.402-41.85-138.178-9.14-36.716-18.99-73.522-39.87-108.178-.18-9.851-.27-19.701-.45-29.731l.18-.09zm3.49-86.327c35.93 46.746 49.82 90.357 63.08 134.775 9.59 35.82 18.55 72.088 41.22 107.014 22.583 34.925 40.414 35.372 59.052 36.089 24.014.448 50.268 1.791 86.02 48.895 35.662 47.104 39.784 91.79 43.278 136.745 1.613 36.268 2.689 72.805 25.538 107.73 23.297 34.298 49.013 34.209 75.984 34.03 34.587-.448 70.876-.896 109.048 44.059 39.605 43.343 37.902 85.163 36.2 125.82-1.344 31.79-2.778 63.044 28.583 89.464 31.989 25.79 67.203 23.55 102.955 22.21 44.086-.45 88.35-.45 135.123 35.82 46.863 36.26 47.401 67.16 47.58 96.53.448 22.57 1.165 44.24 36.11 66.9 35.036 22.65 71.056 27.4 107.436 32.86 44.622 8.42 88.797 17.38 135.929 53.02 47.042 35.82 48.476 57.49 49.372 76.74.896 14.87 1.792 28.75 36.648 51.41-10.126.17-20.34 0-30.018-.18-47.4-29.02-47.4-45.05-47.848-62.87-.896-15.58-1.524-31.79-36.11-57.13-35.036-24.9-71.326-32.6-107.257-38.87-45.25-6.89-90.769-12.98-138.348-41.73-47.311-28.83-47.401-54.8-47.401-82.65-.627-23.56-.627-47.91-35.035-73.35-34.587-25.34-70.877-25.34-106.36-24.62-44.802 1.79-88.708 4.56-132.166-28.3-41.397-34.93-38.888-73.524-36.648-113.195 1.882-33.402 3.226-66.716-24.641-98.864-27.508-32.597-56.271-32.418-84.138-31.791-33.691.268-65.59.716-94.98-45.851-29.211-47.193-30.107-92.864-32.078-137.371-2.689-36.358-6.004-72.537-30.914-107.552-24.999-34.925-45.519-35.551-64.783-36.089-22.939-1.074-43.906-1.164-72.671-48.447-28.85-47.462-40.23-92.775-51.97-137.014-10.75-36.089-22.22-71.73-47.4-106.208.27-9.403.72-19.164 1.79-28.029h-.18zm14.7-74.865c40.77 45.671 53.49 85.163 66.13 126.446 10.48 34.299 20.16 68.865 46.859 103.611 26.792 34.299 48.028 36.09 69.533 37.881 29.211 2.328 60.124 5.641 100.894 51.76 40.501 46.119 45.34 88.298 49.641 131.551 3.405 35.194 5.734 70.746 32.526 105.492 27.24 34.208 55.555 34.656 84.855 34.925 37.544.268 76.432.716 118.188 45.85 42.562 44.328 42.024 86.507 41.576 128.327-.627 32.866-1.344 65.373 30.913 94.746 32.885 28.566 68.189 28.119 103.672 28.298 43.279.895 86.647 2.06 132.435 43.159 45.967 40.84 47.58 75.85 49.192 108.99.717 25.52 1.793 50.06 36.38 77.01 34.766 26.69 69.98 32.6 105.015 39.32 41.846 8.5 83.064 17.28 129.03 57.76 46.146 40.83 50.268 68.23 54.211 92.77 1.792 18.54 3.853 36 38.44 62.78-8.513 1.16-17.563 2.24-26.971 2.5-47.132-34.65-48.924-55.07-51.433-77.46-1.792-19.16-3.853-39.31-38.171-68.32-34.318-29.02-68.816-36.99-103.582-44.51-43.637-7.97-87.543-15.76-134.944-50.24-46.952-34.66-48.028-64.12-49.013-95.73-.717-26.24-1.434-53.46-35.483-82.66-34.229-29.19-69.712-30.53-105.375-31.07-43.906-.18-87.812.72-132.255-36.717-43.189-38.776-42.024-78.626-40.949-119.909.896-34.03 1.344-68.059-29.301-100.746-30.196-33.134-61.11-33.313-91.037-33.402-36.559 0-71.146-.179-106.091-46.836-34.946-47.014-37.724-91.611-41.577-135.58-3.942-35.194-8.422-70.03-37.275-104.507-29.032-34.298-52.866-36.089-75.267-37.612-26.971-1.791-51.971-3.223-86.468-50.417-34.588-47.283-47.038-90.626-59.678-133.252-11.47-34.478-22.85-67.791-51.88-101.82 2.33-7.344 4.57-14.776 7.08-22.388h.18zm34.59-55.253c44.35 43.611 53.49 77.193 63.794 112.745 7.527 29.283 16.666 60.984 47.042 94.924 30.376 33.761 55.375 36.806 82.346 41.552 34.498 5.015 70.967 10.746 115.32 54.537 44.175 43.791 48.207 82.387 52.419 121.969 2.688 32.686 5.555 67.074 36.11 100.924 30.466 33.761 61.558 34.209 93.547 35.552 40.232 1.164 81.629 1.881 125.804 45.94 44.175 43.88 44.175 85.88 44.175 128.327 0 33.851-.001 67.522 32.884 98.865 32.974 31.253 67.651 31.88 101.79 32.238 41.845 1.523 82.615 3.135 126.432 47.463 43.726 44.328 46.952 83.373 49.82 120.803 2.777 29.64 4.748 57.58 38.619 87.94 33.87 30.36 66.576 36.54 97.668 41.55 37.992 7.26 73.923 13.97 117.561 58.39 43.726 44.33 52.149 77.91 59.228 109.34 6.451 24.9 10.573 46.75 44.622 77.11-7.616 2.5-15.053 4.83-22.401 7.25-46.235-39.94-51.253-66-55.554-93.4-5.914-25.35-11.648-51.14-44.623-82.93-32.884-32.15-62.902-38.5-93.725-43.88-41.129-8.41-82.078-16.21-128.582-55.88-46.146-39.76-48.566-73.7-50.268-108.71-2.509-30.18-4.57-60.99-37.275-93.136-33.154-31.97-66.576-33.492-100.446-34.298-43.279-1.343-86.02-1.881-131.091-43.074-44.085-42-44.085-83.283-43.727-125.372.179-34.298.179-68.686-32.257-101.193-32.078-32.866-65.142-33.313-97.669-34.03-38.888-.627-76.79-1.343-116.485-47.283-39.963-46.387-43.637-89.283-48.655-131.103-3.136-32.418-6.899-64.388-38.709-97.432-32.078-33.044-60.393-36.537-88.08-40.835-31.093-3.224-61.021-6.806-100.626-52.925-39.878-46.388-51.428-86.596-63.978-126.089-8.24-28.835-16.75-57.581-48.92-90.178 3.94-5.731 8.06-11.462 13.98-15.492l-.09-.18zm60.21-29.373c46.146 39.76 50.985 65.91 55.375 93.223 5.914 25.343 11.649 51.134 44.533 83.103 32.975 31.791 63.171 38.149 93.726 43.881 40.949 8.417 82.257 16.208 128.582 55.88 46.235 39.761 48.476 73.521 50.357 108.715 2.509 30.089 4.57 60.895 37.365 92.954 32.974 31.97 66.486 33.493 100.177 34.478 43.279 1.343 86.289 1.791 131.091 43.163 44.175 42 44.085 83.104 43.906 125.372 0 34.209-.179 68.507 32.078 101.104 32.258 32.865 65.411 33.313 97.937 34.029 38.888.448 76.612 1.165 116.844 47.104 39.605 46.567 43.637 89.015 48.207 131.283 3.226 32.243 6.9 64.383 38.709 97.433 31.988 33.04 60.393 36.71 88.08 41.01 31.272 3.14 61.29 6.63 100.715 52.93 39.964 46.39 51.433 86.33 64.067 125.82 8.065 29.01 16.667 57.58 48.745 90.44-3.853 5.65-7.975 11.2-13.978 15.5-44.354-43.88-53.673-77.38-63.978-112.84-7.347-29.28-16.487-60.98-46.863-94.92-30.465-33.85-55.375-36.81-82.525-41.55-34.497-5.02-70.877-10.93-115.32-54.54-44.175-43.79-48.207-82.21-52.329-122.328-2.688-32.686-5.645-66.895-36.11-100.656-30.645-33.761-61.469-34.298-93.726-35.552-40.412-.985-81.629-1.88-125.804-45.85-44.175-43.88-44.175-86.059-44.533-128.327.179-33.851.269-67.611-32.527-99.044-33.153-31.253-67.651-31.791-101.79-32.417-41.845-1.344-82.615-3.135-126.072-47.463-43.906-44.328-47.132-83.372-49.91-120.984-2.957-29.462-5.018-57.313-38.709-87.76-34.049-30.358-66.844-36.268-97.668-41.552-37.992-7.074-73.834-13.88-117.381-58.208-43.727-44.328-52.329-77.91-59.408-109.342-6.451-25.075-10.752-46.836-44.443-77.194 7.35-2.328 14.69-4.746 22.4-7.074l.18.179zm78.493-11.373c46.952 34.746 48.745 54.984 51.253 77.372 1.792 19.164 3.943 39.671 38.261 68.686 34.229 28.836 68.816 36.716 103.583 44.328 43.278 8.149 87.543 15.761 134.764 50.417 47.132 34.478 48.028 64.119 49.192 95.641.717 26.239 1.613 53.462 35.663 82.835 34.049 29.373 69.712 30.179 105.016 31.075 43.906 0 87.901-.538 132.434 36.805 43.279 38.597 41.845 78.537 40.77 119.91-.717 33.85-.985 67.88 29.48 100.655 30.376 33.045 61.11 33.403 91.306 33.313 36.2-.179 70.967.18 106.181 46.836 34.766 47.104 37.723 91.342 41.397 135.581 3.853 35.551 8.244 70.118 37.007 104.771 29.121 34.21 53.045 36 75.536 37.44 26.791 1.61 51.97 3.4 86.468 50.5 34.766 47.11 46.863 90.27 59.676 133.17 11.469 34.47 22.849 67.79 51.97 101.82-2.509 7.7-4.838 15.22-7.078 22.38-41.129-45.67-53.763-85.34-66.307-126.53-10.484-34.3-20.161-68.87-46.953-103.43-26.792-34.75-47.759-36.36-69.353-37.97-29.301-2.33-60.304-5.65-101.163-51.59-40.412-46.294-45.25-88.383-49.641-131.546-2.957-35.642-5.466-71.194-32.257-105.671-27.24-34.298-55.644-34.746-84.855-35.104-37.903-.269-76.612-.627-118.457-45.671-42.562-44.328-42.114-86.507-41.845-128.238.627-33.045 1.613-65.552-30.644-94.745-32.706-28.836-68.548-28.299-103.851-28.388-43.19-.985-86.737-2.239-132.166-43.164-45.967-40.925-47.58-76.208-49.372-109.342-.986-25.343-1.882-49.791-36.559-76.656-34.766-26.866-70.159-32.866-104.836-39.761-42.024-8.418-83.242-16.925-129.209-57.582-46.146-40.835-50.358-68.059-54.031-93.133-2.061-18.268-3.943-35.641-38.261-62.507 8.512-.985 17.114-2.239 26.791-2.507h.09zm88.26-1.791c47.042 29.194 46.684 44.954 47.58 62.954.716 15.761 1.612 32.15 36.379 57.313 34.945 24.896 70.966 32.418 106.987 38.866 44.892 6.805 90.858 12.984 138.348 41.82 47.58 28.567 47.311 54.626 47.759 82.477.269 23.552.717 47.999 35.215 73.522 34.497 25.611 70.608 25.163 106.181 24.626 44.353-1.791 88.797-4.746 131.986 28.478 41.576 34.745 38.888 73.253 36.648 113.282-1.792 33.134-3.136 66.895 24.731 98.865 27.508 32.507 56.45 31.97 84.407 31.522 33.601-.448 65.232-.896 95.16 45.671 29.21 47.104 30.196 92.507 31.988 137.641 2.509 36.268 5.914 72.805 30.824 107.819 25.179 34.925 45.519 35.194 65.142 35.821 22.849.895 43.906.985 72.49 48.629 29.031 47.28 40.321 92.68 52.328 136.92 10.574 35.91 22.132 72 47.311 106.84-.269 9.31-.717 18.53-1.971 27.58-35.931-47.02-49.91-90.81-62.902-134.96-9.767-36.09-18.548-72.08-41.397-107.01-22.67-34.92-40.412-35.64-58.96-36.09-24.282-.89-50.536-1.88-86.378-49.073-35.662-47.194-39.784-91.969-43.189-136.745-1.792-36.537-2.33-72.895-25.448-107.551-23.386-34.299-49.372-34.478-76.163-34.03-34.946.179-70.877.627-109.138-44.059-39.605-43.433-37.902-85.343-36.2-125.82 1.165-31.97 2.778-63.223-28.583-89.551-31.989-25.612-67.472-23.731-102.955-22.209-44.175.269-88.529.269-134.944-36.089-46.863-36.089-47.759-67.164-47.759-96.357-.896-22.388-1.165-44.149-36.2-66.895-35.035-22.657-71.414-27.224-107.256-33.045-44.891-8.418-88.977-17.104-135.929-52.925-47.042-36-48.924-57.492-49.641-76.924-.716-14.866-1.613-28.567-36.379-51.403 9.588-.179 19.713 0 30.017.18l-.089-.09zm90.858 1.522c46.953 23.284 46.684 36 46.953 50.417.179 12.627.269 26.24 35.035 47.284 35.035 20.596 71.862 26.417 108.6 31.074 45.25 4.746 91.217 7.97 138.886 30.806 47.401 22.746 47.311 45.94 47.401 70.477 0 21.044.268 42.895 34.766 64.208 34.318 21.671 70.608 19.433 106.36 16.836 44.085-3.941 87.901-9.314 129.926 19.164 39.605 30.805 36.11 67.611 32.526 105.939-3.047 32.418-5.735 65.283 19.265 96.268 24.462 31.522 51.164 30.537 76.88 29.731 30.734-1.075 59.766-1.881 83.959 44.328 23.387 47.014 21.684 92.864 21.236 138.177.717 36.716 2.24 73.791 22.849 109.074 20.878 35.015 38.261 35.015 55.107 35.015 19.265.268 37.275.179 59.945 47.73 23.118 47.284 31.988 92.956 41.845 138.176 9.139 36.81 19.265 73.52 40.232 108.45.179 9.76.269 19.7.448 29.64-30.645-47.01-43.458-92.51-54.838-137.91-8.064-36.8-15.143-73.341-33.691-108.266-18.1-35.194-33.243-35.194-48.744-35.194-21.057 0-43.279-.269-73.476-47.731-29.927-47.641-32.257-93.223-33.153-138.804.179-36.806 1.523-73.701-17.383-108.179-19.265-34.298-42.742-34.029-67.293-33.313-32.437.896-65.859 1.791-99.73-41.999-35.751-41.821-32.705-82.656-29.568-121.88 2.24-30.537 4.838-60.536-25.179-83.82-30.914-22.567-66.486-18.537-101.611-15.313-44.623 2.686-89.425 4.746-135.84-26.418-47.131-30.626-47.131-58.208-46.683-84.268-.448-19.88-.628-38.775-35.484-57.133-35.214-18.269-72.041-21.045-108.6-24.896-45.966-6.179-91.485-13.701-138.886-43.79-47.311-30.358-47.4-47.642-47.131-63.403-.18-11.91-.18-22.835-35.036-41.104 9.857.18 19.892.448 30.197.627h-.09zm92.382 2.328c46.684 17.373 46.236 27.134 46.236 38.597-.269 9.85-.448 21.045 34.497 37.701 34.946 16.388 72.042 19.701 109.048 22.567 45.519 1.791 91.665 2.328 139.245 19.164 47.58 16.657 47.132 36.806 47.132 58.656-.18 18.448 0 37.701 34.318 54.985 34.049 17.283 70.429 12.985 106.181 8.418 43.458-6.448 87.364-14.239 127.864 9.403 37.724 26.865 32.706 61.7 27.867 98.864-4.57 31.343-8.512 63.224 13.53 92.686 20.968 30.537 45.788 29.283 69.533 28.119 27.957-1.343 54.479-2.328 72.938 43.612 17.383 47.014 12.813 92.417 9.677 137.909-1.613 36.985-2.24 73.79 13.978 109.073 16.398 35.194 31.541 35.194 45.698 35.015 16.308.179 31.362.179 47.849 47.731 17.204 47.283 23.297 92.686 30.644 137.909 7.079 37.167 14.875 73.967 31.631 108.627.268 10.48.627 20.33.896 30.36-24.731-47.02-35.035-92.69-43.727-138.629-6.004-36.716-11.021-73.342-25.179-108.178-13.799-35.014-26.254-35.194-39.515-35.194-17.921.448-37.007.269-61.11-47.462-23.835-47.641-23.745-93.223-22.132-138.984 2.509-36.984 6.003-73.7-8.423-108.267-15.053-33.851-36.379-33.403-58.96-32.507-29.569 1.432-60.213 2.686-89.603-39.94-31.99-39.94-27.24-79.253-22.85-117.313 3.226-29.193 6.9-57.76-21.773-77.999-29.928-18.985-65.142-13.074-100.357-7.97-44.085 5.194-88.708 9.761-134.764-15.761-47.042-24.895-47.042-49.343-46.684-72.537-.179-17.373.179-34.029-35.035-47.73-35.035-13.881-72.221-14.597-108.869-16.388-45.967-3.224-91.754-8.15-139.244-32.239-47.401-24.447-47.311-38.596-46.684-51.402 0-9.403.448-17.642-34.318-31.702 9.856.27 19.892.627 30.375.717l.09.09zm91.665 2.24c46.863 11.372 46.684 18.447 46.235 26.954 0 7.791-.268 16.836 34.588 28.836 35.035 11.82 72.221 12.985 108.689 13.433 45.788-.986 91.576-3.493 139.245 7.253 47.58 10.657 47.4 28.03 47.311 46.746-.179 16.388 0 33.313 34.139 46.298 33.691 13.074 69.98 6.627 105.643-.448 43.279-8.865 86.289-18.985 125.804-.179 35.483 22.836 29.569 56.238 23.297 91.611-5.914 30.358-11.2 61.164 7.527 89.462 17.831 29.373 40.411 28.03 62.185 26.507 25.806-1.612 49.551-3.224 62.006 42.627 11.828 46.656 4.301 92.417-1.792 137.64-3.943 36.985-7.079 73.79 4.57 109.163 12.186 34.925 25.089 34.925 36.827 35.015 13.44.269 25.627.179 36.2 47.641 11.2 47.104 14.247 92.686 18.727 138.088 4.749 36.806 10.125 73.522 22.67 107.999.179 10.3.448 20.15.717 30.18-18.817-47.015-26.254-92.418-31.989-137.731-3.674-36.805-6.451-73.521-16.218-108.267-9.319-35.194-19.444-35.194-30.376-35.015-15.053.179-31.272-.179-49.461-47.731-17.832-47.731-14.606-93.402-9.857-138.805 4.66-36.984 10.484-73.79.269-108.178-10.932-33.581-29.928-33.044-50.088-31.969-27.419 1.791-55.555 3.223-80.106-37.881-27.867-37.969-21.505-76.208-15.323-112.566 3.853-27.671 8.513-55.074-18.996-72.089-28.584-15.94-63.53-7.791-98.116-.716-44.085 7.791-88.26 14.865-134.048-4.746-46.863-19.164-46.863-40.657-46.235-60.985-.269-15.044-.269-29.373-35.394-38.775-35.214-9.314-72.131-7.523-108.6-7.075-46.236-.448-91.934-2.239-139.334-20.328-47.311-18.537-47.132-29.91-46.594-39.672-.18-7.074.179-13.253-34.498-23.014 9.857.268 19.892.627 30.197.716h.179zm91.217 1.163c46.683 5.642 46.863 10.21 46.863 16.12-.18 5.73-.269 12.358 34.497 20.06 34.946 7.521 72.042 6.357 108.69 4.118 45.698-4.119 91.217-9.582 138.796-4.746 47.76 4.567 47.76 19.343 47.58 35.373 0 14.15 0 28.836 34.05 37.253 33.69 8.956 69.801.269 105.195-8.865 42.83-11.463 85.572-24.358 123.743-10.03 33.601 18.895 26.702 50.418 18.548 84.537-7.079 29.372-13.889 59.372 1.792 86.238 14.605 28.119 35.035 26.507 54.927 24.716 23.297-2.239 44.354-3.224 51.433 42.178 5.914 46.567-4.57 91.791-13.799 137.193-6.183 36.716-11.469 73.522-4.301 108.984 7.527 35.104 18.1 35.104 27.687 35.104 10.932.269 20.341.717 25.09 48.448 5.286 47.193 5.197 92.058 6.63 137.013 2.061 36.806 5.287 73.522 13.441 107.999.179 10.299.448 20.149.627 30.09-12.813-46.836-17.114-92.417-20.161-137.91-1.344-36.357-1.613-72.894-6.899-107.73-4.839-35.194-12.814-35.194-21.505-35.641-12.186.447-25.448 0-37.724-47.463-11.917-47.73-5.734-93.312 1.613-138.804 7.348-36.806 15.502-73.522 9.588-107.731-6.631-33.402-23.566-32.686-41.845-31.79-24.641 2.238-50.537 4.298-70.429-35.552-23.745-36.089-15.501-73.074-8.243-107.999 5.197-26.507 10.662-52.298-15.502-66.358-27.598-12.537-62.006-2.507-96.682 6.627-43.19 10.298-87.544 20.149-133.063 6.179-46.683-13.074-46.414-31.97-46.235-49.164 0-12.985-.179-24.895-35.215-30.089-35.214-4.836-72.22-.627-108.689 2.328-45.788 2.508-91.755 3.582-139.245-8.507-47.131-12.537-46.863-21.044-46.415-28.119-.179-5.015 0-8.955-34.587-14.239 9.857.18 19.713.18 29.928.18h-.179z" stroke="#403730" stroke-opacity=".12" stroke-width="3" mask="url(#b)"/></g></svg>