<svg width="57" height="57" viewBox="0 0 57 57" fill="none" xmlns="http://www.w3.org/2000/svg">
<g clip-path="url(#clip0)">
<path d="M56.7032 54.2682L43.6716 34.7208C43.3449 34.2309 42.7984 33.9384 42.2096 33.9384C41.6207 33.9384 41.0742 34.2309 40.7475 34.7208L39.0433 37.2771L31.1791 25.4808V14.5803H36.8866C36.8866 14.5803 36.8877 19.3663 36.8896 19.4068C36.9568 20.8373 38.1553 21.9577 39.618 21.9577H50.8872C51.5208 21.9577 52.0889 21.6306 52.4069 21.0825C52.725 20.5346 52.7272 19.8789 52.4128 19.3288L49.774 14.7108C49.7588 14.6842 49.7588 14.6511 49.774 14.6244L52.4128 10.0065C52.7272 9.45643 52.725 8.80071 52.4069 8.25275C52.0889 7.70469 51.5208 7.3776 50.8872 7.3776H42.2452V4.5236C42.2452 3.04616 41.0433 1.84437 39.566 1.84437H31.1792V1.7572C31.1791 0.788203 30.3909 0 29.422 0H27.5777C26.6089 0 25.8205 0.788203 25.8205 1.75709V4.8725C25.8205 5.33373 26.1944 5.70746 26.6555 5.70746C27.1166 5.70746 27.4905 5.33373 27.4905 4.8725V1.75709C27.4905 1.709 27.5297 1.66992 27.5777 1.66992H29.422C29.4701 1.66992 29.5092 1.70911 29.5092 1.75709V23.1908C29.2179 22.9863 28.8672 22.8723 28.4999 22.8723C28.1326 22.8723 27.7817 22.9861 27.4905 23.1908V8.21245C27.4905 7.75122 27.1166 7.37749 26.6555 7.37749C26.1944 7.37749 25.8205 7.75122 25.8205 8.21245V25.4808L17.9563 37.2771L16.2521 34.7208C15.9255 34.2308 15.379 33.9384 14.7902 33.9384C14.2013 33.9384 13.6548 34.2308 13.3282 34.7208L0.296569 54.2682C-0.0635779 54.8085 -0.0969763 55.4996 0.209287 56.072C0.515662 56.6444 1.10926 57 1.75853 57H12.0752C12.5363 57 12.9102 56.6263 12.9102 56.165C12.9102 55.7038 12.5363 55.3301 12.0752 55.3301H7.928L19.85 37.447L24.723 35.0106L27.9989 37.4675C28.2958 37.6901 28.7041 37.6902 29.0009 37.4675L32.2767 35.0107L37.1499 37.4472L49.0718 55.3301H15.4467C14.9855 55.3301 14.6117 55.7038 14.6117 56.165C14.6117 56.6263 14.9855 57 15.4467 57H55.2412C55.8905 57 56.484 56.6444 56.7904 56.072C57.0967 55.4995 57.0633 54.8085 56.7032 54.2682ZM39.5659 14.5803C40.1224 14.5803 40.5752 15.0331 40.5752 15.5896C40.5752 16.1461 40.1224 16.5989 39.5659 16.5989C39.2177 16.5989 38.8748 16.6687 38.5565 16.7984V14.5803H39.5659ZM50.8872 9.0473C50.9022 9.0473 50.9374 9.0473 50.9627 9.09083C50.9879 9.13436 50.9703 9.16487 50.963 9.17789L48.3242 13.7957C48.0168 14.3334 48.0168 15.0016 48.3242 15.5392L50.963 20.1571C50.9703 20.1701 50.9879 20.2007 50.9627 20.2441C50.9374 20.2877 50.9022 20.2877 50.8872 20.2877H39.618C39.0582 20.2877 38.5825 19.8573 38.5577 19.3282C38.5446 19.0484 38.6432 18.7832 38.8355 18.5818C39.0278 18.3801 39.2873 18.2688 39.5659 18.2688C41.0433 18.2688 42.2451 17.0669 42.2451 15.5896V9.0473H50.8872ZM39.5659 3.51418C40.1224 3.51418 40.5752 3.96696 40.5752 4.52348V13.1083C40.2635 12.9811 39.9228 12.9103 39.5659 12.9103H31.1791V3.51418H39.5659ZM1.75853 55.3301C1.74161 55.3301 1.70632 55.3301 1.6816 55.2841C1.657 55.238 1.67659 55.2086 1.68594 55.1945L14.7176 35.647C14.7246 35.6365 14.7434 35.6082 14.7902 35.6082C14.8368 35.6082 14.8556 35.6365 14.8627 35.647L16.9529 38.7823L5.92109 55.3301H1.75853ZM32.5619 33.2862C32.279 33.1446 31.9405 33.1753 31.6874 33.365L28.4999 35.7558L25.3122 33.365C25.0593 33.1754 24.7207 33.1447 24.4378 33.2862L21.7171 34.6466L28.4274 24.5811C28.4345 24.5704 28.4533 24.5422 28.4999 24.5422C28.5464 24.5422 28.5652 24.5704 28.5724 24.5811L35.2827 34.6466L32.5619 33.2862ZM55.3182 55.2841C55.2934 55.3301 55.2583 55.3301 55.2413 55.3301H51.0788L40.0469 38.7824L42.1371 35.647C42.1443 35.6364 42.163 35.6082 42.2097 35.6082C42.2564 35.6082 42.2752 35.6364 42.2822 35.647L55.3138 55.1945C55.3232 55.2086 55.3427 55.238 55.3182 55.2841Z" fill="#151F59"/>
</g>
<defs>
<clipPath id="clip0">
<rect width="57" height="57" fill="white"/>
</clipPath>
</defs>
</svg>
