<svg width="67" height="67" viewBox="0 0 67 67" fill="none" xmlns="http://www.w3.org/2000/svg">
<path d="M23.8541 41.127L25.8726 43.1455C26.5715 43.8442 27.7022 43.8442 28.4011 43.1455L29.6643 41.8822C29.867 41.975 30.0747 42.0609 30.2844 42.1391V43.9256C30.2844 44.9115 31.0865 45.7135 32.0724 45.7135H34.9268C35.9127 45.7135 36.7147 44.9115 36.7147 43.9256V42.1391C36.9245 42.0609 37.1322 41.975 37.3349 41.8822L38.5982 43.1456C39.295 43.8421 40.4294 43.8425 41.1265 43.1455L43.145 41.127C43.842 40.43 43.842 39.2957 43.1449 38.5984L41.8817 37.3353C41.9745 37.1326 42.0605 36.925 42.1386 36.7152H43.9251C44.911 36.7152 45.713 35.9132 45.713 34.9273V32.0728C45.713 31.0869 44.911 30.2849 43.9251 30.2849H42.1386C42.0606 30.0753 41.9745 29.8676 41.8817 29.6648L43.1452 28.4014C43.842 27.7044 43.842 26.5701 43.145 25.8731L41.1264 23.8546C40.4294 23.1575 39.2951 23.1578 38.5979 23.8546L37.3349 25.1179C37.1322 25.0251 36.9245 24.9392 36.7147 24.861V23.0746C36.7147 22.0887 35.9127 21.2866 34.9268 21.2866H32.0724C31.0865 21.2866 30.2844 22.0887 30.2844 23.0746V24.861C30.0744 24.9393 29.8666 25.0253 29.6643 25.1179L28.4011 23.8547C27.7026 23.1559 26.5713 23.1558 25.8726 23.8547L23.8541 25.8731C23.1572 26.5701 23.1572 27.7044 23.8542 28.4017L25.1174 29.6648C25.0247 29.8675 24.9387 30.0751 24.8606 30.2849H23.0741C22.0882 30.2849 21.2861 31.0869 21.2861 32.0728V34.9273C21.2861 35.9132 22.0882 36.7152 23.0741 36.7152H24.8606C24.9387 36.9251 25.0248 37.1328 25.1174 37.3353L23.854 38.5987C23.1572 39.2958 23.1572 40.43 23.8541 41.127ZM24.9838 34.7522H23.249V32.2475H24.9838C25.7378 32.2475 26.4137 31.7719 26.6658 31.0643C26.7473 30.8353 26.8411 30.6088 26.9449 30.3904C27.2673 29.7112 27.1257 28.8967 26.5927 28.3638L25.3661 27.1371L27.137 25.3662L28.3637 26.593C28.8967 27.1258 29.7111 27.2677 30.3908 26.9447C30.6083 26.8415 30.8349 26.7475 31.0641 26.6659C31.7719 26.4138 32.2476 25.7379 32.2476 24.9841V23.2493H34.7522V24.9841C34.7522 25.7379 35.2279 26.4138 35.9355 26.6659C36.1645 26.7474 36.391 26.8412 36.6094 26.945C37.2885 27.2675 38.1027 27.1257 38.636 26.5928L39.8627 25.3662L41.6336 27.1371L40.4068 28.3638C39.8738 28.8969 39.7323 29.7113 40.0548 30.3904C40.1586 30.6088 40.2524 30.8354 40.3339 31.064C40.5859 31.7719 41.2618 32.2475 42.0158 32.2475H43.7506V34.7522H42.0157C41.2618 34.7522 40.5859 35.2279 40.334 35.9354C40.2524 36.1644 40.1586 36.3909 40.0548 36.6093C39.7325 37.2882 39.8739 38.1027 40.4069 38.636L41.6336 39.8626L39.8627 41.6336L38.6357 40.4066C38.1029 39.8739 37.2887 39.7324 36.609 40.0549C36.391 40.1585 36.1645 40.2523 35.9357 40.3337C35.2278 40.5858 34.7521 41.2617 34.7521 42.0157V43.7506H32.2474V42.0157C32.2474 41.2618 31.7718 40.5859 31.0642 40.334C30.8352 40.2523 30.6087 40.1585 30.3903 40.0547C29.711 39.7322 28.8967 39.874 28.3637 40.4067L27.137 41.6336L25.3661 39.8626L26.593 38.6357C27.1257 38.1027 27.2672 37.2882 26.9448 36.6089C26.8411 36.3909 26.7473 36.1644 26.6658 35.9355C26.4137 35.2279 25.7378 34.7522 24.9838 34.7522Z" fill="#151F59"/>
<path d="M33.5 38.7382C36.3883 38.7382 38.7382 36.3883 38.7382 33.4999C38.7382 30.6116 36.3883 28.2617 33.5 28.2617C30.6117 28.2617 28.2617 30.6116 28.2617 33.4999C28.2617 36.3883 30.6117 38.7382 33.5 38.7382ZM33.5 30.2246C35.306 30.2246 36.7753 31.694 36.7753 33.4999C36.7753 35.306 35.3059 36.7753 33.5 36.7753C31.6939 36.7753 30.2246 35.3059 30.2246 33.4999C30.2246 31.6939 31.6939 30.2246 33.5 30.2246Z" fill="#151F59"/>
<path d="M12.3293 24.6587C19.1458 24.6587 24.6587 19.1193 24.6587 12.3294C24.6587 5.5309 19.1277 0 12.3293 0C5.5309 0 0 5.5309 0 12.3293C0 19.1224 5.52698 24.6587 12.3293 24.6587ZM18.8988 20.342C17.041 21.8679 14.7282 22.6959 12.3293 22.6959C9.98221 22.6959 7.65632 21.8997 5.75991 20.3421C5.75991 18.31 7.36202 16.8987 9.14367 16.8987H15.5149C17.2984 16.8985 18.8988 18.3114 18.8988 20.342ZM12.3293 1.96289C18.0455 1.96289 22.6959 6.61324 22.6959 12.3293C22.6959 14.6795 21.9085 16.8485 20.5855 18.5892C19.8754 16.4687 17.8716 14.9356 15.5149 14.9356H9.14367C6.78728 14.9356 4.7833 16.4687 4.07326 18.5892C2.75027 16.8485 1.96289 14.6795 1.96289 12.3293C1.96289 6.61324 6.61324 1.96289 12.3293 1.96289Z" fill="#151F59"/>
<path d="M54.6707 42.3411C47.8723 42.3411 42.3413 47.8721 42.3413 54.6705C42.3413 61.4662 47.8624 66.9998 54.6707 66.9998C61.4448 66.9998 67.0001 61.4935 67.0001 54.6705C67.0001 47.8721 61.4692 42.3411 54.6707 42.3411ZM61.2402 62.6832C57.4335 65.8099 51.938 65.8346 48.1012 62.6832C48.1012 60.651 49.7033 59.2399 51.485 59.2399H57.8563C59.64 59.2397 61.2402 60.6525 61.2402 62.6832ZM62.9268 60.9304C62.2168 58.8099 60.2129 57.2768 57.8564 57.2768H51.4851C49.1287 57.2768 47.1249 58.8099 46.4148 60.9304C45.0917 59.1897 44.3043 57.0207 44.3043 54.6705C44.3043 48.9543 48.9547 44.304 54.6709 44.304C60.387 44.304 65.0373 48.9543 65.0373 54.6705C65.0372 57.0207 64.2498 59.1897 62.9268 60.9304Z" fill="#151F59"/>
<path d="M15.7219 11.9055C17.5973 10.0303 17.5974 6.9951 15.7219 5.11989H15.7221C13.847 3.2448 10.8117 3.24428 8.93647 5.11989C7.061 6.99497 7.06087 10.03 8.93621 11.9055C10.8113 13.7806 13.8466 13.7809 15.7219 11.9055ZM10.3242 6.50765C11.4297 5.40215 13.2284 5.40215 14.3339 6.50765H14.334C15.442 7.61577 15.4421 9.4092 14.3339 10.5174C13.2285 11.6228 11.4299 11.6228 10.3241 10.5174C9.21612 9.40933 9.21599 7.6159 10.3242 6.50765Z" fill="#151F59"/>
<path d="M8.93639 54.2467C10.8068 56.1171 13.8511 56.1173 15.722 54.2467C17.5927 52.3758 17.5927 49.3316 15.722 47.4608H15.7218C13.8512 45.5902 10.807 45.5902 8.93626 47.4608C7.0655 49.3316 7.0655 52.3758 8.93639 54.2467ZM10.3242 48.8489C11.4299 47.7434 13.2284 47.7434 14.3339 48.8489C15.4394 49.9542 15.4394 51.7532 14.3341 52.8587C13.2287 53.9643 11.4298 53.9643 10.3243 52.8587C9.21879 51.7532 9.21879 49.9542 10.3242 48.8489Z" fill="#151F59"/>
<path d="M51.2775 5.11973C49.4069 6.99049 49.4069 10.0345 51.2775 11.9053C53.1502 13.778 56.1945 13.7742 58.0632 11.9053C59.9385 10.0301 59.9387 6.99494 58.0632 5.11973H58.0633C56.1924 3.2487 53.1483 3.24896 51.2775 5.11973ZM56.6753 10.5174C55.5699 11.6229 53.7713 11.623 52.6655 10.5174C51.56 9.41191 51.56 7.61312 52.6655 6.50762C53.7709 5.40212 55.5699 5.40212 56.6753 6.50762H56.6754C57.7834 7.61587 57.7836 9.4093 56.6753 10.5174Z" fill="#151F59"/>
<path d="M58.0632 47.4609C56.1926 45.5902 53.1482 45.5901 51.2775 47.461C49.4068 49.3318 49.4068 52.3759 51.2776 54.2467C53.1484 56.1175 56.1924 56.1174 58.0633 54.2467C59.9341 52.3758 59.9341 49.3316 58.0632 47.4609ZM56.6754 52.8587C55.5701 53.9642 53.7713 53.9643 52.6655 52.8588C51.5601 51.7533 51.5601 49.9544 52.6654 48.8489C53.771 47.7435 55.5697 47.7434 56.6753 48.8489C57.7808 49.9543 57.7808 51.7532 56.6754 52.8587Z" fill="#151F59"/>
<path d="M39.6755 13.3108C40.2176 13.3108 40.6569 12.8714 40.6569 12.3293C40.6569 11.7873 40.2176 11.3479 39.6755 11.3479H27.3247C26.7826 11.3479 26.3433 11.7873 26.3433 12.3293C26.3433 12.8714 26.7826 13.3108 27.3247 13.3108H39.6755Z" fill="#151F59"/>
<path d="M27.3247 53.6892C26.7826 53.6892 26.3433 54.1285 26.3433 54.6707C26.3433 55.2128 26.7826 55.6521 27.3247 55.6521H39.6755C40.2176 55.6521 40.6569 55.2128 40.6569 54.6707C40.6569 54.1285 40.2176 53.6892 39.6755 53.6892H27.3247Z" fill="#151F59"/>
<path d="M13.311 39.6752V27.3245C13.311 26.7823 12.8717 26.343 12.3296 26.343C11.7874 26.343 11.3481 26.7823 11.3481 27.3245V39.6752C11.3481 40.2174 11.7874 40.6567 12.3296 40.6567C12.8717 40.6567 13.311 40.2174 13.311 39.6752Z" fill="#151F59"/>
<path d="M55.6519 39.6752V27.3245C55.6519 26.7823 55.2126 26.343 54.6704 26.343C54.1283 26.343 53.689 26.7823 53.689 27.3245V39.6752C53.689 40.2174 54.1283 40.6567 54.6704 40.6567C55.2126 40.6567 55.6519 40.2174 55.6519 39.6752Z" fill="#151F59"/>
<path d="M64.8438 10.329C64.9477 10.8609 65.4639 11.2082 65.9952 11.1039C66.5271 11 66.8742 10.4845 66.7701 9.95251C65.6433 4.18567 60.5547 0 54.6707 0C47.8723 0 42.3413 5.5309 42.3413 12.3293C42.3413 19.1606 47.8948 24.6586 54.6707 24.6586C60.4931 24.6586 65.5147 20.5681 66.7249 14.9266C66.8386 14.3966 66.5011 13.8748 65.9711 13.7612C65.4418 13.6478 64.9194 13.9849 64.8057 14.5149C64.4811 16.0277 63.8249 17.4072 62.9255 18.5856C62.2144 16.4668 60.2115 14.9356 57.8564 14.9356H51.4851C49.1287 14.9356 47.1247 16.4687 46.4147 18.5892C45.0916 16.8485 44.3043 14.6795 44.3043 12.3293C44.3042 6.61324 48.9547 1.96289 54.6707 1.96289C59.6181 1.96289 63.8965 5.48131 64.8438 10.329ZM51.4851 16.8985H57.8564C59.7223 16.8985 61.2401 18.4165 61.2401 20.2824V20.3304C59.4308 21.8143 57.1271 22.6959 54.6707 22.6959C52.3574 22.6959 50.0212 21.9191 48.1012 20.342C48.1012 18.3098 49.7033 16.8985 51.4851 16.8985Z" fill="#151F59"/>
<path d="M12.3293 66.9999C19.1333 66.9999 24.6587 61.4666 24.6587 54.6706C24.6587 48.8407 20.5194 43.7611 14.8164 42.5923C14.2862 42.4843 13.7667 42.8257 13.6578 43.3568C13.5489 43.8878 13.8912 44.4064 14.4223 44.5154C19.2163 45.4977 22.6959 49.7687 22.6959 54.6706C22.6959 57.0207 21.9085 59.1897 20.5854 60.9305C19.8753 58.8099 17.8715 57.2769 15.5149 57.2769H9.14367C6.78728 57.2769 4.7833 58.8099 4.07326 60.9305C2.75027 59.1898 1.96289 57.0208 1.96289 54.6706C1.96289 49.7686 5.44231 45.4976 10.2363 44.5154C10.7674 44.4065 11.1096 43.8878 11.0008 43.3568C10.8921 42.8257 10.3735 42.484 9.8422 42.5923C4.13921 43.7611 0 48.8407 0 54.6706C0 61.4567 5.51036 66.9999 12.3293 66.9999ZM9.14367 59.2398H15.5149C17.2986 59.2398 18.8988 60.6526 18.8988 62.6831C15.0987 65.8044 9.60181 65.8388 5.75991 62.6831C5.75991 60.651 7.36202 59.2398 9.14367 59.2398Z" fill="#151F59"/>
</svg>
