<svg width="55" height="55" viewBox="0 0 55 55" fill="none" xmlns="http://www.w3.org/2000/svg">
<g clip-path="url(#clip0)">
<path d="M23.2036 1.07422V19.9805H7.51999C7.23511 19.9805 6.96183 20.0937 6.76041 20.2951L0.3151 26.7404C-0.104382 27.1599 -0.104382 27.8401 0.3151 28.2597L6.76041 34.705C6.96183 34.9063 7.23511 35.0195 7.51999 35.0195H23.2036V40.0389C19.5645 40.5619 16.7583 43.699 16.7583 47.4805C16.7583 47.5842 16.7627 47.6848 16.7699 47.7818C15.0559 48.9753 13.9151 50.817 13.6151 52.8516H8.16452C7.57123 52.8516 7.09031 53.3326 7.09031 53.9258C7.09031 54.519 7.57123 55 8.16452 55H22.6665C23.2598 55 23.7407 54.519 23.7407 53.9258C23.7407 53.3326 23.2598 52.8516 22.6665 52.8516H15.796C16.1096 51.3589 17.0654 50.0397 18.4447 49.2644C18.9219 48.9962 19.0354 48.5529 18.9606 48.0237C18.5406 45.0504 20.9979 42.1094 24.2778 42.1094C26.2261 42.1094 28.0255 43.1915 28.974 44.9337C29.4884 45.8784 30.4427 45.332 30.7231 45.332C31.9078 45.332 32.8716 46.2958 32.8716 47.4805C32.8716 48.0738 33.3525 48.5547 33.9458 48.5547C36.5396 48.5547 38.7097 50.4029 39.2088 52.8516H32.3344C31.7412 52.8516 31.2602 53.3326 31.2602 53.9258C31.2602 54.519 31.7412 55 32.3344 55H46.8364C47.4297 55 47.9106 54.519 47.9106 53.9258C47.9106 53.3326 47.4297 52.8516 46.8364 52.8516H41.3884C40.9102 49.5231 38.2442 46.8915 34.8991 46.4664C34.5261 44.9303 33.325 43.7147 31.7973 43.3199C31.7973 39.84 31.7973 25.3701 31.7973 22.1288H47.4809C47.7658 22.1288 48.0391 22.0156 48.2405 21.8142L54.6858 15.3688C55.1053 14.9494 55.1053 14.2692 54.6858 13.8496L48.2405 7.40427C48.0391 7.20307 47.7658 7.08984 47.4809 7.08984H31.7973V1.07422C31.7973 0.480928 31.3164 0 30.7231 0H24.2778C23.6845 0 23.2036 0.480928 23.2036 1.07422ZM2.59384 27.5L7.96493 22.1289H29.6489V32.8711H7.96493L2.59384 27.5ZM25.352 40.04V35.0195H29.6489V42.2548C28.5001 41.0646 26.9915 40.2804 25.352 40.04ZM52.4071 14.6094L47.036 19.9805C46.8047 19.9805 27.824 19.9805 25.352 19.9805V9.23828H47.036L52.4071 14.6094ZM29.6489 2.14844V7.08984H25.352V2.14844H29.6489Z" fill="#151F59"/>
<path d="M27.5 55C28.0933 55 28.5742 54.5191 28.5742 53.9258C28.5742 53.3325 28.0933 52.8516 27.5 52.8516C26.9067 52.8516 26.4258 53.3325 26.4258 53.9258C26.4258 54.5191 26.9067 55 27.5 55Z" fill="#151F59"/>
</g>
<defs>
<clipPath id="clip0">
<rect width="55" height="55" fill="white"/>
</clipPath>
</defs>
</svg>
