<svg width="74" height="49" viewBox="0 0 74 49" fill="none" xmlns="http://www.w3.org/2000/svg">
<path d="M62.1202 44.7283H64.7268C65.0559 44.7283 65.3676 44.5787 65.5731 44.3218C65.7792 44.0643 65.8571 43.7279 65.7848 43.4066L64.0487 35.681L68.523 44.1507C68.7104 44.5058 69.0797 44.7283 69.4816 44.7283H72.0883C72.4281 44.7283 72.7488 44.5685 72.9537 44.2969C73.1587 44.0254 73.2242 43.6731 73.1305 43.3456L69.9147 32.1169C69.8808 31.9966 69.8892 31.8673 69.9389 31.7527L73.909 22.6574C73.9107 22.6529 73.9124 22.6478 73.9141 22.6433C73.9203 22.6298 73.9248 22.6151 73.9305 22.601C73.9372 22.5823 73.9446 22.5643 73.9502 22.5451C73.9513 22.5406 73.9536 22.5361 73.9547 22.5315C73.9564 22.5265 73.9576 22.5208 73.9587 22.5152C73.9609 22.5078 73.9626 22.4999 73.9649 22.492C73.9688 22.4762 73.9734 22.4598 73.9768 22.4435C73.979 22.4333 73.9807 22.4226 73.983 22.4124C73.9852 22.3994 73.9864 22.3864 73.9886 22.3735C73.9897 22.3622 73.992 22.3514 73.9931 22.3396C73.9948 22.3232 73.9959 22.3068 73.9971 22.2899C73.9976 22.2764 73.9988 22.2628 73.9988 22.2493C73.9988 22.2453 73.9993 22.2419 73.9993 22.238C73.9993 22.2363 73.9993 22.234 73.9993 22.2323C73.9993 22.2261 74.0005 22.2199 74.0005 22.2137L73.9158 12.0079C73.9152 11.9943 73.9152 11.9808 73.9146 11.9672C73.8571 10.7094 73.3094 9.5537 72.3728 8.71305C72.2 8.55836 72.0188 8.41835 71.8297 8.29245C72.2379 7.9283 72.549 7.46535 72.7296 6.93295L73.5307 4.56852C74.0987 2.89344 73.1976 1.06874 71.5226 0.500776L70.5871 0.183486C69.7758 -0.0914607 68.9052 -0.0338744 68.1374 0.344954C67.3684 0.724912 66.7943 1.38038 66.5188 2.19224L65.7176 4.5561C65.3371 5.6796 65.6171 6.86916 66.3477 7.70303L51.2533 8.6916C50.6797 8.72942 50.2354 9.20762 50.2399 9.78235C50.2495 10.9646 50.7198 12.0723 51.5632 12.9011C52.4067 13.7293 53.5155 14.1781 54.7017 14.168L55.7828 14.1606V16.4505C55.7828 16.8915 55.4243 17.25 54.9834 17.25H41.5025C41.0616 17.25 40.7031 16.8915 40.7031 16.4505V2.96909C40.7031 2.52759 41.0616 2.16852 41.5025 2.16852H54.9834C55.4243 2.16852 55.7828 2.52759 55.7828 2.96909V5.11108C55.7828 5.70952 56.2684 6.19506 56.8668 6.19506C57.4658 6.19506 57.9514 5.70952 57.9514 5.11108V2.96909C57.9514 1.33239 56.6201 0 54.9834 0H41.5025C39.8659 0 38.5352 1.33183 38.5352 2.96909V16.4505C38.5352 18.0872 39.8659 19.4185 41.5025 19.4185H54.9834C56.6201 19.4185 57.9514 18.0872 57.9514 16.4505V14.1454L64.0567 14.1025L64.3892 21.7067L57.1446 29.242C56.1182 30.2837 55.9121 31.8741 56.6303 33.1399L61.1181 44.0564C61.2846 44.4629 61.6809 44.7283 62.1202 44.7283ZM67.9522 30.8861C67.701 31.4614 67.6581 32.1106 67.8308 32.7136L70.6503 42.5603H70.1348L64.4208 31.742C64.418 31.7363 64.4152 31.7307 64.4118 31.7256L64.3028 31.5184C64.2695 31.4552 64.2294 31.3953 64.1842 31.3394C64.055 31.1808 64.0115 30.9691 64.0646 30.7816L66.2991 23.2186L71.2691 23.2858L67.9522 30.8861ZM67.771 5.25279L68.5721 2.88835C68.6613 2.62526 68.8476 2.41242 69.0966 2.28991C69.2422 2.21821 69.3986 2.18151 69.5562 2.18151C69.6685 2.18151 69.7814 2.20014 69.8904 2.2374L70.8259 2.55413C71.369 2.73818 71.6609 3.32985 71.4768 3.8724L70.6757 6.23684C70.5865 6.49993 70.4002 6.71277 70.1512 6.83585C69.9022 6.95836 69.6199 6.97756 69.3574 6.88779L68.4219 6.57106C67.8788 6.38701 67.5869 5.79534 67.771 5.25279ZM56.8753 11.9848C56.8725 11.9848 56.8696 11.9842 56.8668 11.9842C56.8629 11.9842 56.8589 11.9848 56.8555 11.9848L54.6831 12C54.075 12.0051 53.5121 11.7764 53.0825 11.3541C52.9063 11.1819 52.7629 10.9855 52.654 10.7726L69.1068 9.69484C69.7775 9.65307 70.4233 9.87777 70.9241 10.3266C71.4204 10.772 71.7117 11.3824 71.7473 12.0474L71.8223 21.1241L66.5306 21.0524L66.2257 14.0872L67.0754 14.0816C67.6739 14.0771 68.156 13.5881 68.1515 12.9897C68.1475 12.3935 67.6631 11.9131 67.0675 11.9131C67.0653 11.9131 67.0624 11.9131 67.0602 11.9131L56.8753 11.9848ZM58.5323 32.0971C58.2732 31.6686 58.3375 31.1204 58.6977 30.7545L63.1929 26.0793L61.9824 30.177C61.7978 30.8234 61.8559 31.506 62.1281 32.1039L61.8514 32.3986C61.8193 32.4324 61.7893 32.468 61.7622 32.5058C61.3986 33.0077 61.3038 33.644 61.5003 34.2272L63.3724 42.5603H62.8468L58.6068 32.2461C58.5859 32.1942 58.5611 32.1445 58.5323 32.0971Z" fill="#151F59"/>
<path d="M72.9158 46.2175H68.5968C67.9977 46.2175 67.5122 46.7025 67.5122 47.3015C67.5122 47.9005 67.9977 48.3855 68.5968 48.3855H72.9158C73.5142 48.3855 73.9997 47.9005 73.9997 47.3015C73.9997 46.7025 73.5142 46.2175 72.9158 46.2175Z" fill="#151F59"/>
<path d="M65.1183 46.2175H60.7993C60.2003 46.2175 59.7153 46.7025 59.7153 47.3015C59.7153 47.9005 60.2003 48.3855 60.7993 48.3855H65.1183C65.7173 48.3855 66.2023 47.9005 66.2023 47.3015C66.2023 46.7025 65.7173 46.2175 65.1183 46.2175Z" fill="#151F59"/>
<path d="M12.7919 21.6933L12.8495 17.4014L14.9842 18.5887C15.0903 18.6474 15.1993 18.6971 15.3105 18.7394V19.383C15.3105 20.9825 16.6118 22.2838 18.2113 22.2838H31.2134C32.8128 22.2838 34.1142 20.9825 34.1142 19.383V6.37978C34.1142 4.77978 32.8128 3.47844 31.2134 3.47844H18.2113C16.6118 3.47844 15.3105 4.77978 15.3105 6.37978V12.052L11.42 9.55832C11.9586 9.02932 12.2917 8.33602 12.364 7.57554L12.5983 5.08973C12.7648 3.32883 11.4674 1.76101 9.70654 1.59502L8.72305 1.50187C7.87168 1.42113 7.03667 1.67801 6.37669 2.22396C5.71614 2.77046 5.30852 3.54111 5.22778 4.39418L4.99292 6.87943C4.91727 7.68394 5.14705 8.44724 5.58685 9.05585C5.44514 9.17611 5.30908 9.30483 5.18262 9.44823L4.68861 10.0083C3.78191 11.0369 3.27662 12.3586 3.26476 13.73L3.19532 22.1494L2.58502 26.8794C2.5088 27.4728 2.92771 28.0165 3.52164 28.0927C4.11557 28.17 4.65926 27.75 4.73547 27.1566L5.23343 23.2949L10.174 23.2283L8.6649 27.6026C8.66038 27.6168 8.6553 27.6303 8.65079 27.6439L3.50583 42.5604H2.74987L4.1359 31.8076C4.21268 31.2136 3.7932 30.67 3.19984 30.5937C2.6076 30.5175 2.06222 30.9364 1.98601 31.5298L0.441898 43.5055C0.402378 43.8149 0.497226 44.126 0.703295 44.3603C0.9088 44.5946 1.20577 44.7284 1.51741 44.7284H4.27874C4.74112 44.7284 5.15269 44.4354 5.30343 43.9978L10.1255 30.0184L13.5902 33.6995L11.4104 43.4067C11.3387 43.728 11.4161 44.065 11.6221 44.3219C11.8276 44.5788 12.1393 44.7284 12.4684 44.7284H15.0751C15.5143 44.7284 15.9106 44.463 16.0777 44.0566L20.5633 33.14C21.2808 31.8753 21.077 30.2883 20.0546 29.2478L12.7919 21.6933ZM18.2113 5.64696H31.2134C31.6176 5.64696 31.9462 5.97554 31.9462 6.37978V19.383C31.9462 19.7867 31.6176 20.1153 31.2134 20.1153H18.2113C17.8076 20.1153 17.479 19.7867 17.479 19.383V18.7671L21.9572 18.2155C24.513 17.901 26.4399 15.7223 26.4399 13.1473C26.4399 12.8396 26.3095 12.5466 26.0808 12.3411C25.8522 12.1356 25.5473 12.0368 25.2408 12.069L17.479 12.8961V6.37978C17.479 5.97554 17.8076 5.64696 18.2113 5.64696ZM7.15185 7.0838L7.38671 4.59799C7.41268 4.32135 7.54479 4.0718 7.75876 3.89453C7.94676 3.73927 8.17824 3.65628 8.41931 3.65628C8.45262 3.65628 8.48593 3.65741 8.51924 3.66079L9.50216 3.75339C10.0729 3.80758 10.4936 4.3157 10.4399 4.88648L10.2051 7.37173C10.1791 7.64837 10.047 7.89791 9.833 8.07519C9.65742 8.22029 9.44401 8.30102 9.22101 8.31118C8.75636 8.16552 8.27591 8.11302 7.80223 8.14633C7.38501 7.97978 7.10724 7.55353 7.15185 7.0838ZM5.43329 13.748C5.44006 12.8983 5.7534 12.0791 6.31515 11.4423L6.80859 10.8822C7.05192 10.6067 7.36356 10.4283 7.69666 10.351C7.75876 10.3606 7.82199 10.3691 7.88523 10.3753L8.77443 10.4588C8.84782 10.4927 8.92009 10.5316 8.9901 10.5768L15.4979 14.7473C15.5024 14.7501 15.5075 14.7535 15.5126 14.7563C15.6746 14.8563 15.8474 14.9359 16.0264 14.9963C16.0427 15.0019 16.058 15.0087 16.0744 15.0138C16.4029 15.1177 16.7524 15.1538 17.0985 15.1171L23.9993 14.382C23.5826 15.2774 22.7273 15.9363 21.6924 16.0639L16.2454 16.734C16.1732 16.7436 16.1015 16.729 16.0377 16.694L12.3363 14.6355C12.3228 14.6276 12.3087 14.6197 12.2945 14.6124L9.78332 13.2162C9.26053 12.9249 8.59998 13.1134 8.30922 13.6368C8.01847 14.1602 8.20647 14.8201 8.72983 15.1109L10.6968 16.2045L10.6319 21.053L5.37175 21.1242L5.43329 13.748ZM18.6618 32.0972C18.633 32.1446 18.6082 32.1943 18.5867 32.2463L14.3485 42.5604H13.8228L15.6933 34.2285C15.8914 33.6464 15.7966 33.0096 15.4319 32.506C15.4048 32.4681 15.3748 32.4326 15.3427 32.3987L10.9238 27.7037L12.1489 24.1525L18.4958 30.7547C18.4992 30.758 18.5026 30.7614 18.506 30.7648C18.8571 31.1205 18.9209 31.6681 18.6618 32.0972Z" fill="#151F59"/>
<path d="M5.40298 46.2175H1.08398C0.485535 46.2175 0 46.7025 0 47.3015C0 47.9005 0.485535 48.3855 1.08398 48.3855H5.40298C6.002 48.3855 6.48753 47.9005 6.48753 47.3015C6.48753 46.7025 6.002 46.2175 5.40298 46.2175Z" fill="#151F59"/>
<path d="M16.3947 46.2175H12.0757C11.4772 46.2175 10.9917 46.7025 10.9917 47.3015C10.9917 47.9005 11.4772 48.3855 12.0757 48.3855H16.3947C16.9937 48.3855 17.4792 47.9005 17.4792 47.3015C17.4792 46.7025 16.9937 46.2175 16.3947 46.2175Z" fill="#151F59"/>
<path d="M53.261 46.2178H50.8265C51.0111 45.7876 51.1133 45.314 51.1133 44.8171V27.0404C51.1133 25.0728 49.5127 23.4717 47.5446 23.4717H37.4608C36.8617 23.4717 36.3768 23.9572 36.3768 24.5562C36.3768 25.1547 36.8617 25.6402 37.4608 25.6402H47.5446C48.317 25.6402 48.9453 26.2686 48.9453 27.0404V44.8171C48.9453 45.5895 48.317 46.2178 47.5446 46.2178H29.7701C28.9978 46.2178 28.3694 45.5895 28.3694 44.8171V27.0404C28.3694 26.2686 28.9978 25.6402 29.7701 25.6402H32.1566C32.7556 25.6402 33.2411 25.1547 33.2411 24.5562C33.2411 23.9572 32.7556 23.4717 32.1566 23.4717H29.7701C27.8026 23.4717 26.2014 25.0728 26.2014 27.0404V44.8171C26.2014 45.314 26.3036 45.7876 26.4882 46.2178H23.6377C23.0387 46.2178 22.5537 46.7028 22.5537 47.3018C22.5537 47.9008 23.0387 48.3858 23.6377 48.3858H53.261C53.8594 48.3858 54.3449 47.9008 54.3449 47.3018C54.3449 46.7028 53.8594 46.2178 53.261 46.2178Z" fill="#151F59"/>
</svg>
