<svg width="58" height="58" viewBox="0 0 58 58" fill="none" xmlns="http://www.w3.org/2000/svg">
<g clip-path="url(#clip0)">
<path d="M23.8298 51.4167L23.6594 52.2491L23.8236 51.4159C23.3634 51.3251 22.9165 51.6247 22.8258 52.0849C22.735 52.5456 23.0346 52.9921 23.4953 53.0828C23.4966 53.0832 23.5094 53.0854 23.5108 53.0859C23.5647 53.096 23.6183 53.1014 23.6714 53.1014C24.071 53.1014 24.4272 52.8182 24.5046 52.411C24.5931 51.95 24.2909 51.5048 23.8298 51.4167Z" fill="#151F59"/>
<path d="M30.3258 51.6898L30.4103 52.5349L30.3231 51.6902C29.8563 51.738 29.5169 52.1553 29.5651 52.6221C29.6098 53.0593 29.9789 53.385 30.409 53.385C30.4382 53.385 30.4678 53.3832 30.497 53.3806L30.5205 53.3779C30.9851 53.3235 31.3148 52.9044 31.263 52.4398C31.2108 51.9756 30.7904 51.6411 30.3258 51.6898Z" fill="#151F59"/>
<path d="M27.0735 51.797C27.0735 51.797 27.0616 51.7965 27.0611 51.7965C26.5929 51.7753 26.2018 52.139 26.1805 52.6077C26.1597 53.0763 26.5279 53.4732 26.9965 53.4944C27.0098 53.4953 27.0226 53.4953 27.0359 53.4953C27.4872 53.4953 27.8634 53.14 27.8837 52.6842C27.905 52.2156 27.5426 51.8182 27.0735 51.797Z" fill="#151F59"/>
<path d="M20.6917 50.5535L20.6811 50.5495C20.2394 50.3911 19.758 50.622 19.5996 51.0637C19.4407 51.5053 19.6752 51.9938 20.1169 52.1527C20.212 52.1867 20.3089 52.2027 20.4041 52.2027C20.7523 52.2027 21.0793 51.9872 21.2037 51.6403C21.3625 51.1986 21.1333 50.7119 20.6917 50.5535Z" fill="#151F59"/>
<path d="M33.5318 51.0953L33.7411 51.9188L33.5292 51.0962C33.0747 51.213 32.8013 51.6763 32.9181 52.1307C33.0168 52.514 33.3619 52.7688 33.7403 52.7688C33.8106 52.7688 33.8819 52.76 33.9531 52.7414C33.9567 52.7405 33.9717 52.7365 33.9757 52.7356C34.4266 52.6126 34.6903 52.1493 34.57 51.6975C34.4496 51.2462 33.9845 50.9776 33.5318 51.0953Z" fill="#151F59"/>
<path d="M36.6036 50.0239L36.9403 50.8036L36.6009 50.0248C36.1708 50.2124 35.9739 50.7129 36.1611 51.143C36.3005 51.4629 36.6129 51.6536 36.9408 51.6536C37.0536 51.6536 37.1691 51.6306 37.2793 51.5828C37.2828 51.5811 37.2966 51.5753 37.3001 51.5735C37.7262 51.381 37.9143 50.8819 37.724 50.4549C37.5337 50.0274 37.0319 49.8358 36.6036 50.0239Z" fill="#151F59"/>
<path d="M17.4463 11.2942C17.5826 11.2942 17.7211 11.2614 17.849 11.1933C18.2632 10.9725 18.4194 10.4578 18.1986 10.0436C17.9778 9.62991 17.4636 9.47282 17.0494 9.69407L17.0392 9.69938C16.6255 9.92019 16.4737 10.4322 16.6945 10.8464C16.8467 11.1322 17.1423 11.2942 17.4463 11.2942Z" fill="#151F59"/>
<path d="M7.61866 20.7837C7.74477 20.8496 7.87974 20.8811 8.01293 20.8811C8.3187 20.8811 8.6143 20.7156 8.76608 20.4257L8.78112 20.3961C8.98821 19.9748 8.81475 19.4655 8.39349 19.2588C7.97532 19.0526 7.46998 19.2225 7.26023 19.6381C7.0434 20.0531 7.20359 20.566 7.61866 20.7837Z" fill="#151F59"/>
<path d="M6.42285 23.9799C6.51313 24.0104 6.60472 24.025 6.69544 24.025C7.04944 24.025 7.37999 23.8016 7.49991 23.4475L7.51097 23.4139C7.64903 22.9657 7.39725 22.49 6.94855 22.3523C6.50383 22.2152 6.03168 22.4621 5.88964 22.9046C5.74051 23.3484 5.97902 23.8299 6.42285 23.9799Z" fill="#151F59"/>
<path d="M9.29511 17.8112C9.44601 17.921 9.6208 17.9741 9.79426 17.9741C10.0567 17.9741 10.316 17.8524 10.4819 17.6241L10.493 17.609C10.7656 17.2276 10.6766 16.6983 10.2961 16.4258C9.91506 16.1527 9.38406 16.2403 9.11059 16.6209L9.79514 17.1245L9.10793 16.6244C8.83181 17.0041 8.91589 17.5356 9.29511 17.8112Z" fill="#151F59"/>
<path d="M14.5618 13.1292C14.7401 13.1292 14.9198 13.073 15.0733 12.9561C15.4521 12.6791 15.534 12.1477 15.257 11.7689C14.9795 11.3901 14.4481 11.3083 14.0697 11.5853L14.0485 11.6007C13.675 11.8844 13.6007 12.4185 13.8843 12.7924C14.0516 13.0128 14.3051 13.1292 14.5618 13.1292Z" fill="#151F59"/>
<path d="M5.66426 36.8647C5.77666 37.2297 6.11208 37.4638 6.47493 37.4638C6.55768 37.4638 6.6422 37.4514 6.72539 37.4258C7.17143 37.289 7.42322 36.8164 7.28958 36.3695C7.1617 35.9235 6.69928 35.6615 6.24925 35.7841C5.79657 35.9075 5.52974 36.3748 5.6532 36.8275C5.65586 36.8364 5.66161 36.8558 5.66426 36.8647Z" fill="#151F59"/>
<path d="M11.9952 15.3682C12.216 15.3682 12.4368 15.2828 12.6037 15.1129C12.9351 14.781 12.9351 14.2429 12.6037 13.9115C12.2718 13.5796 11.7337 13.5796 11.4018 13.9115L11.3877 13.9257C11.0593 14.2606 11.066 14.7978 11.4009 15.1262C11.566 15.2881 11.7806 15.3682 11.9952 15.3682Z" fill="#151F59"/>
<path d="M6.60304 33.1603C6.5433 32.6987 6.12159 32.3713 5.65962 32.4262C5.1941 32.4819 4.86134 32.9045 4.91665 33.3705L4.92152 33.4045C4.98347 33.8267 5.34588 34.1294 5.76051 34.1294C5.80122 34.1294 5.84282 34.1263 5.88485 34.1201C6.34727 34.0528 6.66809 33.6227 6.60304 33.1603Z" fill="#151F59"/>
<path d="M5.53567 30.7271C5.54452 30.7271 5.55293 30.7276 5.56134 30.7276C6.01889 30.7276 6.39679 30.3634 6.41006 29.9027L6.41095 29.8665C6.41095 29.397 6.03039 29.0168 5.56134 29.0168C5.09538 29.0168 4.71748 29.3912 4.71173 29.8554C4.69934 30.3236 5.06795 30.7134 5.53567 30.7271Z" fill="#151F59"/>
<path d="M5.72201 27.3197C5.7729 27.3286 5.8229 27.333 5.8729 27.333C6.27647 27.333 6.63445 27.044 6.70835 26.633C6.71057 26.6206 6.71234 26.6082 6.71411 26.5958C6.78269 26.1316 6.46188 25.6997 5.99725 25.6316C5.53837 25.5634 5.1087 25.8789 5.0348 26.3365C4.95426 26.7976 5.26136 27.237 5.72201 27.3197Z" fill="#151F59"/>
<path d="M45.7997 18.0795C45.9643 18.3184 46.2289 18.4463 46.4988 18.4463C46.6648 18.4463 46.8329 18.3976 46.9798 18.2963C47.3661 18.0308 47.4639 17.5015 47.1984 17.1148L46.4922 17.5874L47.1958 17.1108C46.932 16.7223 46.4037 16.621 46.0156 16.8843C45.6271 17.1475 45.5257 17.6759 45.789 18.0644L45.7997 18.0795Z" fill="#151F59"/>
<path d="M50.1384 26.6289C49.672 26.6811 49.3366 27.102 49.3892 27.5684L49.3937 27.6051C49.4543 28.0286 49.818 28.3343 50.234 28.3343C50.2738 28.3343 50.3145 28.3317 50.3552 28.3259C50.8159 28.26 51.1371 27.8356 51.0774 27.3754C51.0239 26.9103 50.6017 26.5767 50.1384 26.6289Z" fill="#151F59"/>
<path d="M48.7046 24.2317L48.7082 24.2427C48.817 24.6131 49.1555 24.853 49.5228 24.853C49.602 24.853 49.6826 24.8419 49.7627 24.818C50.2131 24.6857 50.4707 24.2135 50.3384 23.7631L50.3348 23.752C50.2025 23.3015 49.7304 23.044 49.2799 23.1768C48.8299 23.3091 48.5723 23.7812 48.7046 24.2317Z" fill="#151F59"/>
<path d="M47.5045 21.0548C47.6527 21.3562 47.9558 21.5318 48.2709 21.5318C48.3961 21.5318 48.5236 21.504 48.6435 21.4447C49.0643 21.2376 49.2391 20.7313 49.0316 20.3101L48.2616 20.669L49.0307 20.3083C48.8315 19.8835 48.3258 19.7008 47.901 19.8999C47.4762 20.099 47.293 20.6048 47.4921 21.0296L47.5045 21.0548Z" fill="#151F59"/>
<path d="M43.6597 15.4263C43.8261 15.5962 44.046 15.6812 44.2664 15.6812C44.481 15.6812 44.6956 15.6006 44.8611 15.4382C45.1939 15.1125 45.2014 14.5802 44.8806 14.2448C44.5624 13.9018 44.0261 13.881 43.6818 14.1988C43.3371 14.5169 43.3159 15.0546 43.634 15.3993L43.6597 15.4263Z" fill="#151F59"/>
<path d="M50.4144 30.1766C49.9476 30.1646 49.5568 30.5306 49.5405 30.9974C49.5192 31.4625 49.8763 31.8585 50.3418 31.8846C50.3582 31.8855 50.3737 31.886 50.3901 31.886C50.8374 31.886 51.2122 31.5359 51.2375 31.0833L51.2388 31.0483C51.2521 30.5797 50.883 30.1903 50.4144 30.1766Z" fill="#151F59"/>
<path d="M38.2265 11.2544L38.2469 11.2654C38.3734 11.3327 38.5093 11.3646 38.6429 11.3646C38.9451 11.3646 39.2376 11.2017 39.3912 10.9163C39.6124 10.5043 39.4567 9.98925 39.046 9.76623L38.6349 10.5096L39.0434 9.76446C38.6318 9.53878 38.1154 9.68968 37.8898 10.1012C37.6645 10.5123 37.815 11.0291 38.2265 11.2544Z" fill="#151F59"/>
<path d="M41.1004 13.1175L41.1137 13.1277C41.2673 13.2441 41.4474 13.3003 41.6266 13.3003C41.8832 13.3003 42.1368 13.1843 42.3041 12.964C42.5877 12.5901 42.5142 12.0573 42.1408 11.7736L42.135 11.7697C41.7629 11.4838 41.2297 11.5537 40.9438 11.9259C40.6579 12.298 40.7283 12.8317 41.1004 13.1175Z" fill="#151F59"/>
<path d="M57.4756 43.0389L53.4873 39.0435C53.1479 38.7037 52.697 38.5165 52.2169 38.5165C51.7372 38.5165 51.2859 38.7037 50.9469 39.0435L50.8544 39.136L50.5925 38.8741C50.269 38.5497 50.0185 38.1722 49.8486 37.7612C49.8336 37.7067 49.8137 37.6536 49.788 37.6036C49.6579 37.2381 49.5902 36.8492 49.5902 36.4496V35.3194C49.6676 35.3601 49.7522 35.3898 49.8429 35.4053C49.8915 35.4137 49.9398 35.4176 49.9876 35.4176C50.3907 35.4176 50.7473 35.13 50.8221 34.7211C50.9128 34.2618 50.615 33.8153 50.1553 33.7233C49.953 33.683 49.753 33.718 49.5849 33.8091C49.5327 32.602 49.0393 31.4745 48.1808 30.6143L44.3116 26.7384C43.4434 25.8688 42.2889 25.39 41.0609 25.39C40.1104 25.39 39.205 25.6781 38.4413 26.2113L38.0306 25.7985V16.0811C38.0306 14.9098 37.6054 13.7796 36.8337 12.8995C36.2845 12.2738 35.9823 11.4702 35.9823 10.6365V9.9245H36.0407C37.031 9.9245 37.8368 9.1187 37.8368 8.12793V2.47626C37.8368 1.48549 37.031 0.679688 36.0407 0.679688H20.1703C19.1799 0.679688 18.3741 1.48549 18.3741 2.47626V8.12793C18.3741 9.1187 19.1799 9.9245 20.1703 9.9245H20.3012V10.2971C20.3012 11.2131 19.945 12.0742 19.2985 12.7216L17.5856 14.4376C16.6767 15.3483 16.1762 16.5585 16.1762 17.8462V23.3275C16.1762 24.0723 16.355 24.7754 16.6696 25.3985C15.543 25.4635 14.4929 25.933 13.6884 26.7384L9.81918 30.6143C8.91028 31.5249 8.40981 32.7356 8.40981 34.0229V36.4496C8.40981 37.3656 8.05403 38.2267 7.40753 38.8741L7.14867 39.1334C7.14734 39.1342 7.14645 39.1351 7.14557 39.136L7.05353 39.0435C6.71413 38.7037 6.26321 38.5165 5.7831 38.5165C5.30342 38.5165 4.85207 38.7037 4.51311 39.0435L0.524368 43.0389C-0.174789 43.7394 -0.174789 44.8793 0.524368 45.5798L1.89038 46.9476C2.22182 47.2799 2.7599 47.2803 3.09178 46.9489C3.42366 46.617 3.42455 46.0794 3.09267 45.747L1.7271 44.3788C1.6886 44.3403 1.6886 44.2779 1.7271 44.2394L5.71584 40.244C5.75301 40.2069 5.81363 40.2064 5.8508 40.244L6.5442 40.9388H6.54465L16.0129 50.4234L17.0736 51.4863C17.1121 51.5248 17.1121 51.5872 17.0736 51.6257L13.0853 55.6211C13.0477 55.6587 12.9871 55.6587 12.9499 55.6211L5.49812 48.1565C5.16669 47.8242 4.6286 47.8237 4.29672 48.1552C3.9644 48.487 3.96396 49.0247 4.29539 49.357L11.7476 56.8216C12.0866 57.1615 12.5379 57.3486 13.0181 57.3486C13.4977 57.3486 13.9486 57.1615 14.288 56.8216L18.2763 52.8262C18.9755 52.1262 18.9755 50.9863 18.2763 50.2858L18.233 50.2424L18.7361 49.7384C19.3237 49.1495 20.1043 48.7955 20.934 48.7419C22.1018 48.6662 23.2005 48.168 24.0276 47.3392L27.6915 43.6673C28.7482 43.3898 29.5708 42.5291 29.7943 41.4512C30.1709 41.6304 30.5917 41.7313 31.036 41.7313C32.6339 41.7313 33.9339 40.4299 33.9339 38.8298V36.8124C34.2994 36.9792 34.7052 37.0731 35.1327 37.0731C36.7306 37.0731 38.0302 35.7717 38.0302 34.1716V28.2075L40.6436 30.8337C40.8096 31.0006 41.0277 31.0838 41.2459 31.0838C41.4627 31.0838 41.6795 31.0014 41.8455 30.8364C42.1778 30.5054 42.1791 29.9678 41.8481 29.635L39.6692 27.4455C40.0909 27.2132 40.5662 27.0893 41.0609 27.0893C41.8344 27.0893 42.5619 27.3911 43.1088 27.9393L46.9781 31.8148C47.5666 32.4046 47.891 33.1888 47.891 34.0229V36.4496C47.891 37.8191 48.4233 39.1064 49.3897 40.0746L49.6535 40.3387L48.4211 41.5733L40.9675 49.0397L40.552 48.6233C40.5476 48.6193 40.5436 48.6149 40.5392 48.6109L40.4662 48.5375C39.5865 47.6564 38.4178 47.1268 37.1762 47.0462C36.4208 46.9971 35.7101 46.675 35.1725 46.1369L32.3807 43.3602C32.048 43.0292 31.5099 43.0305 31.1789 43.3633C30.8483 43.696 30.8497 44.2341 31.1824 44.5647L33.9724 47.3392C34.7995 48.168 35.8982 48.6662 37.0664 48.7419C37.8957 48.7955 38.6763 49.1495 39.2639 49.738L39.3051 49.7791C39.3272 49.8044 39.3506 49.8278 39.3754 49.8499L39.767 50.242L39.7237 50.2858C39.0245 50.9863 39.0245 52.1257 39.7237 52.8262L43.712 56.8216C44.0514 57.1615 44.5023 57.3486 44.9824 57.3486C45.4621 57.3486 45.9134 57.1615 46.2528 56.8216L57.4756 45.5793C58.1748 44.8788 58.1748 43.7394 57.4756 43.0389ZM50.1597 34.5906L50.1438 34.588L49.9889 34.5565L50.1597 34.5906ZM22.8248 46.1387C22.2899 46.675 21.5792 46.9971 20.8243 47.0462C19.5822 47.1268 18.4135 47.6564 17.5338 48.5375L17.0325 49.0397L16.5811 48.5875C16.5753 48.5817 16.5696 48.5755 16.5638 48.5702L8.34653 40.3387L8.61026 40.0746C9.57669 39.1064 10.109 37.8191 10.109 36.4496V34.0229C10.109 33.1888 10.4329 32.4046 11.0219 31.8148L14.8912 27.9393C15.4381 27.3911 16.1656 27.0893 16.9391 27.0893C17.4351 27.0893 17.9122 27.2141 18.3352 27.4481L16.1528 29.6341C15.8213 29.966 15.8218 30.5041 16.1536 30.8355C16.3196 31.001 16.5368 31.0838 16.7541 31.0838C16.9718 31.0838 17.1895 31.0006 17.3555 30.8346L19.9623 28.223V38.8298C19.9623 40.4299 21.2624 41.7313 22.8602 41.7313C23.3107 41.7313 23.7373 41.6278 24.1178 41.4437C24.2904 42.2858 24.8285 42.9955 25.5578 43.4L22.8248 46.1387ZM36.3314 34.172C36.3314 34.8349 35.7933 35.3743 35.1327 35.3743C34.4716 35.3743 33.9339 34.8349 33.9339 34.172V24.6949C33.9339 24.2258 33.5538 23.8453 33.0843 23.8453C32.6148 23.8453 32.2347 24.2258 32.2347 24.6949V38.8302C32.2347 39.4931 31.6971 40.0321 31.036 40.0321C30.4426 40.0321 29.9501 39.5975 29.8549 39.0289V24.6851C29.8549 24.2156 29.4748 23.8355 29.0053 23.8355C28.8544 23.8355 28.7124 23.8754 28.5894 23.9444C28.3208 24.0873 28.138 24.3696 28.138 24.6949V38.8298C28.138 38.9378 28.1442 39.0435 28.1557 39.1484V40.8605C28.1557 41.5233 27.6181 42.0627 26.957 42.0627C26.2963 42.0627 25.7587 41.5233 25.7587 40.8605V24.675C25.7587 24.2059 25.3781 23.8253 24.909 23.8253C24.4395 23.8253 24.059 24.2059 24.059 24.675V38.8298C24.059 39.4927 23.5213 40.0321 22.8607 40.0321C22.1996 40.0321 21.6619 39.4927 21.6619 38.8298V23.0257C21.6619 22.5562 21.2814 22.1757 20.8123 22.1757C20.3428 22.1757 19.9627 22.5562 19.9627 23.0257V25.9489C19.8915 25.9719 19.8224 26.0042 19.7583 26.0467C18.6595 25.6339 17.8754 24.571 17.8754 23.3275V17.8462C17.8754 17.0121 18.1998 16.228 18.7883 15.6381L20.5013 13.9221C21.4681 12.9539 22.0005 11.6666 22.0005 10.2971V9.9245H23.7085C24.178 9.9245 24.5581 9.54395 24.5581 9.07489C24.5581 8.60539 24.178 8.22528 23.7085 8.22528H20.1703C20.1167 8.22528 20.0733 8.18147 20.0733 8.12793V2.47626C20.0733 2.42271 20.1167 2.37891 20.1703 2.37891H36.0403C36.0942 2.37891 36.1376 2.42271 36.1376 2.47626V8.12793C36.1376 8.18192 36.0942 8.22528 36.0403 8.22528H27.6973C27.2282 8.22528 26.8477 8.60539 26.8477 9.07489C26.8477 9.54395 27.2282 9.9245 27.6973 9.9245H34.2831V10.6365C34.2831 11.8826 34.7349 13.084 35.5557 14.0203C36.0557 14.5903 36.3314 15.3222 36.3314 16.0811V34.172ZM56.2729 44.3788L45.0501 55.6211C45.0315 55.6401 45.0089 55.6494 44.9824 55.6494C44.9563 55.6494 44.9337 55.6401 44.9147 55.6211L40.9264 51.6257C40.8879 51.5872 40.8879 51.5248 40.9264 51.4863L41.5685 50.8429L41.5689 50.8425L48.0839 44.3164L52.1492 40.244C52.1864 40.2064 52.247 40.2064 52.2842 40.244L56.2729 44.2394C56.3114 44.2779 56.3114 44.3403 56.2729 44.3788Z" fill="#151F59"/>
<path d="M22.86 4.39575C22.3613 4.39575 21.9556 4.80241 21.9556 5.302C21.9556 5.80203 22.3613 6.20825 22.86 6.20825C23.3592 6.20825 23.765 5.80203 23.765 5.302C23.765 4.80241 23.3592 4.39575 22.86 4.39575Z" fill="#151F59"/>
<path d="M52.4948 43.1248C51.9956 43.1248 51.5898 43.5314 51.5898 44.031C51.5898 44.5306 51.9956 44.9373 52.4948 44.9373C52.9935 44.9373 53.3992 44.5306 53.3992 44.031C53.3992 43.5314 52.9935 43.1248 52.4948 43.1248Z" fill="#151F59"/>
<path d="M14.1585 51.7925C14.1585 51.2929 13.7527 50.8862 13.254 50.8862C12.7549 50.8862 12.3491 51.2929 12.3491 51.7925C12.3491 52.2921 12.7549 52.6987 13.254 52.6987C13.7527 52.6987 14.1585 52.2921 14.1585 51.7925Z" fill="#151F59"/>
</g>
<defs>
<clipPath id="clip0">
<rect width="58" height="58" fill="white"/>
</clipPath>
</defs>
</svg>
