<svg width="72" height="72" viewBox="0 0 72 72" fill="none" xmlns="http://www.w3.org/2000/svg">
<path d="M70.8264 50.2634C70.5012 49.5465 70.0322 48.9041 69.4484 48.3761C68.8646 47.848 68.1785 47.4456 67.4327 47.1938L66.7286 46.9393C65.1477 46.4039 63.5239 46.0045 61.875 45.7454V44.4878C62.0157 44.319 62.307 44.1342 62.5238 43.9331C63.6654 42.8747 64.4052 41.4535 64.6172 39.9113C65.1972 39.737 65.6877 39.3462 65.9871 38.8199C66.2865 38.2936 66.3718 37.6722 66.2251 37.0847C66.1417 36.7571 65.9768 36.4559 65.7457 36.2092C65.5145 35.9625 65.2247 35.7783 64.9033 35.6738L64.999 34.2614C65.126 32.4908 64.5814 30.7373 63.4737 29.3502C63.1516 28.9484 62.7843 28.5851 62.3792 28.2674C62.3031 27.1242 61.7957 26.0525 60.9598 25.2691C60.1238 24.4856 59.0215 24.0488 57.8758 24.0469H57.875C56.7383 24.0488 55.644 24.4788 54.8102 25.2513C53.9764 26.0239 53.4642 27.0822 53.3758 28.2155C52.4812 28.936 51.7731 29.8612 51.3115 30.9131C50.8498 31.9649 50.6481 33.1125 50.7235 34.2587L50.8219 35.6829C50.4991 35.7847 50.2077 35.9676 49.9757 36.2141C49.7437 36.4606 49.5789 36.7626 49.497 37.091C49.4 37.486 49.4069 37.8994 49.5171 38.2908C49.6273 38.6823 49.837 39.0386 50.1258 39.325C50.3928 39.6004 50.7256 39.8032 51.0928 39.9141C51.3647 41.7869 52.4535 43.4199 53.8597 44.4789V45.7454C52.7905 45.9095 51.7314 46.1336 50.6873 46.4166C50.143 45.5537 49.3893 44.8424 48.4964 44.3489C47.6035 43.8554 46.6002 43.5956 45.58 43.5938H44.3882C44.3715 43.4532 44.3498 43.3059 44.321 43.1612C44.3012 43.0623 44.2638 42.9678 44.2106 42.8821L42.4538 40.0022C42.3836 39.8817 42.2832 39.7816 42.1626 39.7118C42.0419 39.642 41.9051 39.6048 41.7657 39.604V39.6563H40.9219V38.7207C42.3496 37.8796 43.5364 36.6848 44.368 35.2516C45.1996 33.8183 45.6479 32.195 45.6697 30.5382C45.687 30.5382 45.6959 30.5399 45.713 30.5399C46.263 30.5408 46.7987 30.3653 47.2415 30.0392C47.6843 29.7131 48.0109 29.2536 48.1732 28.7281C48.3355 28.2027 48.325 27.6391 48.1433 27.12C47.9615 26.601 47.6181 26.1539 47.1634 25.8445C46.8588 25.6243 46.4997 25.4916 46.125 25.4608V19.7655C46.128 18.1892 45.7332 16.6377 44.9773 15.2546C44.2214 13.8715 43.1288 12.7014 41.8005 11.8526C40.4723 11.0039 38.9514 10.504 37.3787 10.3992C35.806 10.2943 34.2322 10.588 32.8031 11.2529L30.5549 12.2983C30.476 12.185 30.3708 12.0924 30.2484 12.0285C30.1259 11.9646 29.9899 11.9312 29.8518 11.9312C28.5378 11.9322 27.2779 12.4541 26.3479 13.3823C25.418 14.3106 24.894 15.5697 24.8907 16.8836V25.2832C24.8939 25.4351 24.9379 25.5833 25.0181 25.7123C24.9439 25.7522 24.8721 25.7964 24.8031 25.8445C24.5105 26.0458 24.2631 26.3057 24.0767 26.6079C23.8903 26.9101 23.7689 27.2478 23.7203 27.5995C23.6685 27.9653 23.696 28.3378 23.8007 28.692C23.9055 29.0463 24.0851 29.3738 24.3274 29.6526C24.5697 29.9314 24.869 30.1549 25.2052 30.308C25.5413 30.461 25.9065 30.5401 26.2758 30.5399C26.2992 30.5399 26.3065 30.5382 26.3298 30.5376C26.3517 32.1946 26.8001 33.818 27.6318 35.2514C28.4635 36.6847 29.6504 37.8795 31.0782 38.7207V39.6563H30.2344V39.604C30.095 39.6048 29.9582 39.642 29.8375 39.7119C29.7168 39.7818 29.6165 39.882 29.5463 40.0025L27.7745 42.8828C27.7235 42.9686 27.6885 43.063 27.6712 43.1612C27.6431 43.3059 27.6281 43.4532 27.6113 43.5938H26.4195C25.569 43.5947 24.7282 43.7753 23.9523 44.1238C23.1764 44.4724 22.4829 44.9809 21.9173 45.6161L21.5475 45.4915C20.0743 44.9831 18.5572 44.6122 17.0157 44.3836V43.0416C17.9526 42.4588 18.7422 41.6675 19.3229 40.7294C19.9036 39.7912 20.2598 38.7316 20.3635 37.6331C20.8554 37.386 21.2494 36.98 21.4815 36.4808C21.7136 35.9817 21.7703 35.4187 21.6422 34.8834C21.5752 34.6086 21.4517 34.3509 21.2795 34.1266C21.1073 33.9022 20.8903 33.7163 20.6423 33.5805L20.746 32.0931C20.8206 31.0783 20.6833 30.0592 20.3429 29.1003C20.0025 28.1415 19.4664 27.2639 18.7687 26.5233C18.0682 25.7741 17.2212 25.1769 16.2804 24.7685C15.3395 24.3602 14.3248 24.1494 13.2991 24.1494C12.2734 24.1494 11.2587 24.3602 10.3178 24.7685C9.37695 25.1769 8.53 25.7741 7.82949 26.5233C7.13177 27.2639 6.59565 28.1414 6.25516 29.1002C5.91466 30.0591 5.77723 31.0782 5.8516 32.0929L5.95453 33.5782C5.70537 33.7137 5.48726 33.8997 5.31416 34.1243C5.14107 34.349 5.01681 34.6073 4.94935 34.8828C4.81784 35.4178 4.8722 35.9817 5.1035 36.4817C5.33479 36.9818 5.72927 37.3883 6.22214 37.6345C6.32423 38.7327 6.67887 39.7924 7.25834 40.7308C7.83781 41.6692 8.62642 42.4609 9.56255 43.0441V44.3827C8.02211 44.6117 6.50624 44.9832 5.03442 45.4922L4.34649 45.7298C3.64343 45.9673 2.99667 46.3467 2.44629 46.8445C1.89592 47.3422 1.45368 47.9478 1.14699 48.6235C1.12041 48.6839 1.09468 48.7445 1.06782 48.8123C0.823915 49.4465 0.700259 50.1205 0.703175 50.8V60.7773C0.703752 60.8867 0.726173 60.9949 0.769121 61.0954C0.81207 61.196 0.874681 61.287 0.953279 61.3631C1.03188 61.4391 1.12488 61.4987 1.22682 61.5383C1.32876 61.578 1.4376 61.5968 1.54693 61.5938H70.4532C70.5625 61.5968 70.6713 61.578 70.7733 61.5384C70.8752 61.4988 70.9683 61.4392 71.0469 61.3631C71.1255 61.2871 71.1881 61.1961 71.231 61.0955C71.2739 60.9949 71.2964 60.8867 71.2969 60.7773V52.5797C71.3039 51.8536 71.1717 51.1328 70.9075 50.4563C70.8815 50.3911 70.8545 50.3265 70.8264 50.2634ZM45.7032 27.1782C45.7898 27.1425 45.8839 27.1288 45.9772 27.1383C46.0704 27.1478 46.1598 27.1801 46.2375 27.2325C46.3358 27.3036 46.4179 27.3947 46.4785 27.4997C46.5391 27.6048 46.5768 27.7215 46.5891 27.8421C46.6204 28.0346 46.5863 28.232 46.4921 28.4028C46.398 28.5736 46.2494 28.7079 46.0699 28.7843C45.9546 28.8348 45.8289 28.8568 45.7033 28.8486L45.7032 27.1782ZM26.2969 28.8483C26.1653 28.8591 26.033 28.8373 25.9118 28.7849C25.731 28.7094 25.5806 28.5757 25.4845 28.405C25.3884 28.2343 25.352 28.0364 25.3812 27.8427C25.3946 27.7217 25.4333 27.6048 25.4949 27.4998C25.5565 27.3948 25.6395 27.3039 25.7385 27.2331C25.82 27.1787 25.914 27.1459 26.0116 27.1376C26.1092 27.1293 26.2074 27.1458 26.2969 27.1855V28.8483ZM17.1179 46.1054L16.6793 49.4449L14.7809 48.584L16.011 47.4067C16.399 47.0345 16.6911 46.5739 16.8625 46.0643C16.9483 46.0772 17.033 46.0914 17.1179 46.1054ZM13.2918 47.6684L11.7515 46.1872C11.5928 46.034 11.4666 45.8504 11.3805 45.6473C11.2943 45.4442 11.2499 45.2259 11.25 45.0053V43.8047C11.9116 44.0008 12.5975 44.1021 13.2874 44.1058C13.9793 44.1126 14.668 44.0105 15.3282 43.8033V45.0029C15.3299 45.2235 15.2869 45.4421 15.2018 45.6457C15.1167 45.8492 14.9913 46.0334 14.8332 46.1872L13.2918 47.6684ZM14.3376 50.2357L14.0845 51.0814L12.7064 51.0596L12.4814 50.1343L13.2985 49.7636L14.3376 50.2357ZM9.06333 27.6751C9.60596 27.0951 10.2619 26.6327 10.9906 26.3166C11.7192 26.0005 12.505 25.8374 13.2992 25.8374C14.0935 25.8374 14.8793 26.0005 15.6079 26.3166C16.3366 26.6327 16.9925 27.0951 17.5351 27.6751C18.0742 28.247 18.4884 28.9247 18.7515 29.6653C19.0146 30.4058 19.1208 31.193 19.0635 31.9768L18.9661 33.3804C18.4489 31.4808 17.266 29.8305 15.6333 28.7304C15.4512 28.6075 15.2284 28.5604 15.0121 28.5992C14.7958 28.638 14.6033 28.7597 14.4753 28.9383C13.9503 29.6692 13.241 30.248 12.4196 30.6156C11.5982 30.9832 10.6941 31.1266 9.79922 31.0312L9.30085 30.9779L9.27441 30.9754C9.13025 30.9634 8.98514 30.98 8.84739 31.0241C8.70964 31.0683 8.58195 31.1392 8.47163 31.2328C8.36131 31.3264 8.27053 31.4408 8.20447 31.5695C8.13842 31.6982 8.0984 31.8386 8.08669 31.9828L7.93805 33.8313C7.84707 33.8122 7.75285 33.7918 7.65877 33.7711L7.53432 31.9768C7.47706 31.1929 7.58342 30.4057 7.84664 29.6652C8.10986 28.9246 8.52419 28.2469 9.06333 27.6751ZM7.88377 37.0248C7.88378 36.826 7.81362 36.6336 7.68566 36.4815C7.55769 36.3294 7.38014 36.2274 7.1843 36.1934C7.01172 36.1638 6.85515 36.0742 6.74216 35.9404C6.62918 35.8066 6.56703 35.6373 6.56667 35.4622C6.56669 35.4028 6.57392 35.3436 6.58819 35.286C6.59579 35.2557 6.60752 35.2266 6.62307 35.1995C6.65892 35.2223 6.6945 35.2453 6.73289 35.2649C6.7934 35.2956 6.85737 35.319 6.92344 35.3345C8.63822 35.7354 8.87025 35.7215 9.20058 35.4811C9.29961 35.4085 9.38195 35.3155 9.44205 35.2084C9.50216 35.1013 9.53864 34.9825 9.54905 34.8601L9.72117 32.7191C10.7512 32.8132 11.7892 32.6706 12.7557 32.3021C13.7222 31.9335 14.5916 31.3489 15.2975 30.5929C16.3309 31.4812 17.06 32.6711 17.3823 33.9952L17.6865 35.2418C17.716 35.363 17.7721 35.4762 17.8506 35.5731C17.9292 35.67 18.0283 35.7483 18.1407 35.8024C18.2532 35.8564 18.3762 35.8848 18.501 35.8856C18.6257 35.8864 18.7491 35.8595 18.8622 35.8068L19.9137 35.3173C19.9436 35.3026 19.9726 35.2862 20.0007 35.2682C20.0024 35.2741 20.0049 35.2796 20.0065 35.2857C20.0306 35.3845 20.0342 35.4872 20.017 35.5875C19.9998 35.6877 19.9622 35.7833 19.9064 35.8684C19.8507 35.9535 19.7781 36.0262 19.693 36.0821C19.608 36.1379 19.5124 36.1757 19.4122 36.193C19.2159 36.2295 19.0386 36.3337 18.9111 36.4873C18.7836 36.641 18.7139 36.8344 18.7141 37.0341C18.7129 38.4703 18.1412 39.8471 17.1247 40.8618C16.1083 41.8765 14.7304 42.4458 13.2942 42.4445C11.858 42.4433 10.4812 41.8716 9.46651 40.8551C8.45185 39.8387 7.88252 38.4608 7.88377 37.0246V37.0248ZM9.73749 46.0639C9.90846 46.5726 10.1996 47.0326 10.5863 47.4047L11.8141 48.5828L9.91566 49.4444L9.47635 46.1054C9.56339 46.091 9.6503 46.0768 9.73749 46.0635V46.0639ZM9.99849 59.9063H6.32817V54.7929C6.32817 54.5691 6.23928 54.3545 6.08105 54.1963C5.92281 54.038 5.7082 53.9492 5.48443 53.9492C5.26065 53.9492 5.04604 54.038 4.8878 54.1963C4.72957 54.3545 4.64068 54.5691 4.64068 54.7929V59.9063H2.39068V50.7925C2.38788 50.3268 2.47191 49.8646 2.63846 49.4296C2.65486 49.3878 2.67221 49.3464 2.69049 49.3054C2.90312 48.8417 3.2087 48.4266 3.5883 48.0857C3.9679 47.7449 4.41344 47.4856 4.89732 47.324L5.58483 47.0865C6.31721 46.8334 7.0635 46.6184 7.8181 46.4385L8.39002 50.7937C8.40717 50.9244 8.45471 51.0493 8.52883 51.1583C8.60295 51.2673 8.70158 51.3574 8.81682 51.4215C8.93207 51.4855 9.06071 51.5216 9.19243 51.527C9.32416 51.5323 9.4553 51.5067 9.57535 51.4522L10.9162 50.8439L11.1827 51.9244L9.99849 59.9063ZM11.7045 59.9063L12.7688 52.7344L13.9541 52.7464L14.7859 59.9063H11.7045ZM20.3907 49.5906V59.9063H16.4847L15.5655 52.0032L15.889 50.9332L17.0196 51.4495C17.1394 51.5046 17.2704 51.5307 17.4021 51.5258C17.5339 51.5208 17.6626 51.4851 17.7779 51.4213C17.8933 51.3575 17.992 51.2674 18.0662 51.1585C18.1404 51.0495 18.1879 50.9246 18.2049 50.7939L18.7769 46.4389C19.5124 46.6142 20.239 46.8243 20.9565 47.0692C20.5841 47.8576 20.3908 48.7187 20.3907 49.5906ZM42.2242 42.8818L42.6915 43.6354C42.8039 44.3325 42.7113 45.0472 42.4252 45.6927C42.1391 46.3382 41.6717 46.8868 41.0798 47.2717L38.686 48.8391L37.2723 46.9479L39.7575 45.6682L39.7716 45.6604C40.895 45.0572 41.7651 44.0714 42.2242 42.8818ZM39.6623 43.7053C39.4544 43.8847 39.2274 44.0408 38.9854 44.1708L36.0041 45.7044L33.0248 44.1704C32.7801 44.0405 32.5501 43.8845 32.339 43.705C32.6245 43.2129 32.7719 42.6527 32.7657 42.0838V39.5072C34.86 40.2379 37.1401 40.2379 39.2344 39.5072V42.0838C39.2286 42.6529 39.3764 43.2131 39.6623 43.7053ZM30.6563 14.0898L33.4952 12.7829C34.6684 12.2381 35.9599 11.9976 37.2505 12.0837C38.5411 12.1698 39.7893 12.5797 40.8797 13.2755C41.9701 13.9712 42.8676 14.9305 43.4895 16.0647C44.1113 17.199 44.4374 18.4715 44.4375 19.765V22.548C43.1719 20.8573 41.251 19.6876 39.0094 19.6876H33.471C32.1237 19.6876 30.9375 18.8091 30.6563 17.4983V14.0898ZM26.5782 24.3289V16.8836C26.5701 16.167 26.8006 15.4681 27.2334 14.8969C27.6662 14.3257 28.2767 13.9147 28.9688 13.7287V21.1741C28.9769 21.8907 28.7464 22.5896 28.3136 23.1608C27.8808 23.7319 27.2702 24.1429 26.5782 24.3289ZM27.9844 30.398V25.57C29.6719 24.744 30.6563 23.0842 30.6563 21.1741V20.4976C31.4779 21.0809 32.4635 21.3882 33.471 21.3751H39.0094C40.2013 21.3832 41.3526 21.8088 42.2633 22.5777C43.174 23.3467 43.7865 24.4104 43.9943 25.5841C43.9943 25.5963 44.0154 25.6415 44.0154 25.6544V30.3985C44.0154 34.7931 40.3943 38.3683 35.9998 38.3683C31.6052 38.3683 27.9844 34.7925 27.9844 30.398ZM29.3085 43.6354L29.7758 42.8818C30.235 44.0708 31.1046 45.056 32.2274 45.6592L32.2414 45.6669L34.7267 46.9466L33.3141 48.8391L30.9208 47.2724C30.3288 46.8875 29.8613 46.339 29.5751 45.6935C29.2888 45.0479 29.1963 44.3331 29.3085 43.636V43.6354ZM49.9219 59.9063H45.7032V53.707C45.7032 53.4832 45.6143 53.2686 45.456 53.1104C45.2978 52.9521 45.0832 52.8632 44.8594 52.8632C44.6356 52.8632 44.421 52.9521 44.2628 53.1104C44.1046 53.2686 44.0157 53.4832 44.0157 53.707V59.9063H27.9844V53.707C27.9844 53.4832 27.8955 53.2686 27.7373 53.1104C27.5791 52.9521 27.3644 52.8632 27.1407 52.8632C26.9169 52.8632 26.7023 52.9521 26.5441 53.1104C26.3858 53.2686 26.2969 53.4832 26.2969 53.707V59.9063H22.0782V49.5906C22.0874 48.4449 22.5489 47.3493 23.3621 46.5422C24.1753 45.7351 25.2744 45.2819 26.4201 45.2813H27.6849C27.8207 45.9748 28.0955 46.6336 28.4927 47.2181C28.8899 47.8025 29.4013 48.3005 29.9961 48.682L33.0525 50.6838C33.2321 50.8016 33.4497 50.8465 33.6612 50.8093C33.8727 50.7721 34.062 50.6556 34.1905 50.4836L36 48.0629L37.8096 50.4844C37.9381 50.6564 38.1274 50.7729 38.3388 50.8102C38.5502 50.8475 38.7679 50.8028 38.9475 50.6852L42.004 48.6827C42.5989 48.3011 43.1104 47.803 43.5076 47.2184C43.9048 46.6339 44.1795 45.9749 44.3152 45.2813H45.58C46.7257 45.2819 47.8248 45.7351 48.638 46.5422C49.4512 47.3493 49.9127 48.4449 49.9219 49.5906V59.9063ZM62.0213 47.4891L61.5328 51.2085L59.3424 50.2144L60.7259 48.8906C61.1472 48.4865 61.4614 47.9839 61.6399 47.4281C61.767 47.4469 61.8943 47.4677 62.0213 47.4891ZM57.8751 49.2991L56.1427 47.6712C55.9613 47.5032 55.8152 47.3007 55.7129 47.0756C55.6106 46.8505 55.5541 46.6072 55.5469 46.36V45.3616C56.2022 45.5842 56.8855 45.7136 57.5768 45.7461C57.6642 45.7493 57.7979 45.751 57.885 45.751C58.6676 45.7411 59.4442 45.6114 60.1875 45.3664V46.3576C60.1809 46.6052 60.1248 46.8489 60.0226 47.0744C59.9204 47.2999 59.7741 47.5027 59.5924 47.6709L57.8751 49.2991ZM59.0468 51.9337L58.7466 52.935L57.1759 52.9102L56.9113 51.8239L57.858 51.3943L59.0468 51.9337ZM57.8751 25.7344C58.345 25.7351 58.8073 25.8529 59.2201 26.0772C59.633 26.3016 59.9834 26.6253 60.2396 27.0192C58.4677 26.3582 56.6856 26.698 55.4336 27.1433C55.6817 26.7154 56.0377 26.36 56.4662 26.1128C56.8946 25.8656 57.3804 25.7351 57.8751 25.7344ZM60.1594 28.8306C61.0389 29.3059 61.6905 29.819 62.1522 30.4004C62.9962 31.4574 63.4109 32.7937 63.3136 34.1428L63.2315 35.3291C62.3092 34.8007 62.0167 33.724 62.0027 33.6709C61.9595 33.4965 61.8618 33.3404 61.7237 33.2254C61.5856 33.1104 61.4144 33.0425 61.2351 33.0316C56.9623 32.771 56.0398 31.7691 55.1987 29.0702C56.1797 28.5984 58.3018 27.8265 60.1594 28.8306ZM53.7835 30.1458C53.9625 30.6609 54.1855 31.1596 54.4499 31.6365C53.6692 32.0782 52.9777 32.6617 52.4108 33.357C52.5056 32.1656 52.9875 31.0378 53.7831 30.1458H53.7835ZM52.7416 39.1679C52.7319 38.9533 52.6378 38.7511 52.4798 38.6056C52.3217 38.46 52.1126 38.3827 51.8978 38.3907H51.7873C51.6061 38.3758 51.437 38.2939 51.3129 38.161C51.1888 38.0282 51.1186 37.8539 51.1161 37.6721C51.1159 37.6149 51.1223 37.5579 51.1352 37.5022C51.1591 37.4235 51.2111 37.3563 51.2813 37.3134C51.3516 37.2706 51.4351 37.2552 51.516 37.27C51.5681 37.2734 51.6204 37.2719 51.6721 37.2657H51.7205C51.8353 37.2685 51.9493 37.2474 52.0555 37.2038C52.1617 37.1602 52.2577 37.0951 52.3374 37.0126C52.4312 36.9139 52.4988 36.7934 52.5343 36.662C53.1982 34.5901 54.436 33.5276 55.5087 32.9797C56.566 33.9351 58.106 34.4688 60.5751 34.6748C60.9465 35.537 61.8731 37.0343 63.867 37.2655C63.9109 37.2689 63.955 37.2689 63.9989 37.2655H64.0422C64.0991 37.269 64.1561 37.2667 64.2125 37.2586C64.2913 37.2432 64.373 37.2582 64.441 37.3008C64.5091 37.3433 64.5584 37.4102 64.579 37.4877C64.6215 37.6646 64.5944 37.8511 64.5032 38.0085C64.4121 38.166 64.264 38.2824 64.0895 38.3337C64.036 38.3467 63.9779 38.2493 63.9235 38.39H63.8207C63.606 38.382 63.3969 38.4593 63.2388 38.6049C63.0808 38.7504 62.9867 38.9526 62.977 39.1672C62.9288 40.4926 62.3685 41.7477 61.4138 42.6683C60.4591 43.589 59.1845 44.1034 57.8582 44.1034C56.532 44.1034 55.2574 43.589 54.3027 42.6683C53.348 41.7477 52.7876 40.4926 52.7395 39.1672L52.7416 39.1679ZM54.0837 47.4268C54.2612 47.9824 54.5742 48.485 54.9945 48.8893L56.3753 50.2141L54.1829 51.2082L53.6942 47.4876C53.8238 47.4661 53.9535 47.4469 54.0833 47.4268H54.0837ZM54.4641 59.9063H51.6094V49.5906C51.6092 49.0466 51.534 48.5052 51.3857 47.9817C51.6 47.9255 51.8147 47.8712 52.029 47.8207L52.6547 52.557C52.6722 52.6878 52.7202 52.8127 52.7946 52.9217C52.869 53.0307 52.9679 53.1208 53.0834 53.1848C53.1988 53.2488 53.3276 53.2849 53.4595 53.2902C53.5914 53.2955 53.7227 53.27 53.843 53.2155L55.3477 52.5331L55.6492 53.7565L54.4641 59.9063ZM56.1825 59.9063L57.2091 54.5844L58.6411 54.6002L59.4317 59.9063H56.1825ZM69.6094 59.9063H67.2674C67.5453 58.3594 67.3684 56.9806 66.6768 55.356C66.5864 55.1522 66.4192 54.9924 66.2116 54.9113C66.0039 54.8301 65.7727 54.8342 65.5681 54.9227C65.3635 55.0111 65.202 55.1768 65.1189 55.3836C65.0357 55.5904 65.0376 55.8217 65.124 56.0272C65.727 57.4431 65.8447 58.477 65.5589 59.8735C65.558 59.8847 65.5556 59.8957 65.552 59.9063H61.1379L60.232 53.8421L60.5976 52.6302L61.8725 53.2121C61.9923 53.2672 62.1233 53.2933 62.2551 53.2884C62.3868 53.2835 62.5155 53.2477 62.6309 53.1839C62.7462 53.1201 62.845 53.0301 62.9191 52.9211C62.9933 52.8121 63.0408 52.6873 63.0578 52.5565L63.6798 47.8211C64.513 48.0169 65.3356 48.2547 66.1447 48.5337L66.8819 48.7882C67.4086 48.9642 67.8936 49.2466 68.3067 49.6177C68.7198 49.9889 69.0523 50.441 69.2835 50.946C69.303 50.9903 69.3218 51.0351 69.3372 51.0737C69.5226 51.5511 69.615 52.0596 69.6094 52.5717V59.9063Z" fill="#151F59"/>
<path d="M38.5342 27.5252C38.758 27.5252 38.9726 27.4364 39.1309 27.2781C39.2891 27.1199 39.378 26.9053 39.378 26.6815C39.3767 26.5918 39.3933 26.5028 39.4267 26.4196C39.4601 26.3363 39.5097 26.2606 39.5727 26.1967C39.6356 26.1328 39.7107 26.0821 39.7934 26.0475C39.8761 26.0129 39.9649 25.9951 40.0546 25.9951C40.1443 25.9951 40.2331 26.0129 40.3158 26.0475C40.3986 26.0821 40.4736 26.1328 40.5365 26.1967C40.5995 26.2606 40.6491 26.3363 40.6826 26.4196C40.716 26.5028 40.7325 26.5918 40.7312 26.6815C40.7312 26.9053 40.8201 27.1199 40.9784 27.2781C41.1366 27.4364 41.3512 27.5252 41.575 27.5252C41.7988 27.5252 42.0134 27.4364 42.1716 27.2781C42.3298 27.1199 42.4187 26.9053 42.4187 26.6815C42.4211 26.3695 42.3618 26.0601 42.244 25.7712C42.1263 25.4822 41.9525 25.2195 41.7328 24.998C41.513 24.7765 41.2516 24.6007 40.9636 24.4808C40.6755 24.3608 40.3666 24.2991 40.0546 24.2991C39.7426 24.2991 39.4337 24.3608 39.1457 24.4808C38.8576 24.6007 38.5962 24.7765 38.3764 24.998C38.1567 25.2195 37.9829 25.4822 37.8652 25.7712C37.7475 26.0601 37.6881 26.3695 37.6905 26.6815C37.6905 26.9053 37.7794 27.1199 37.9376 27.2781C38.0959 27.4364 38.3105 27.5252 38.5342 27.5252Z" fill="#151F59"/>
<path d="M33.4661 27.5252C33.6899 27.5252 33.9045 27.4364 34.0627 27.2781C34.221 27.1199 34.3099 26.9053 34.3099 26.6815C34.3123 26.3695 34.2529 26.0601 34.1352 25.7712C34.0174 25.4822 33.8437 25.2195 33.6239 24.998C33.4041 24.7765 33.1427 24.6007 32.8547 24.4808C32.5667 24.3608 32.2577 24.2991 31.9457 24.2991C31.6337 24.2991 31.3248 24.3608 31.0368 24.4808C30.7488 24.6007 30.4873 24.7765 30.2676 24.998C30.0478 25.2195 29.874 25.4822 29.7563 25.7712C29.6386 26.0601 29.5792 26.3695 29.5816 26.6815C29.5816 26.9053 29.6705 27.1199 29.8287 27.2781C29.987 27.4364 30.2016 27.5252 30.4254 27.5252C30.6491 27.5252 30.8638 27.4364 31.022 27.2781C31.1802 27.1199 31.2691 26.9053 31.2691 26.6815C31.2678 26.5918 31.2844 26.5028 31.3178 26.4196C31.3512 26.3363 31.4009 26.2606 31.4638 26.1967C31.5268 26.1328 31.6018 26.0821 31.6845 26.0475C31.7673 26.0129 31.8561 25.9951 31.9457 25.9951C32.0354 25.9951 32.1242 26.0129 32.2069 26.0475C32.2897 26.0821 32.3647 26.1328 32.4277 26.1967C32.4906 26.2606 32.5403 26.3363 32.5737 26.4196C32.6071 26.5028 32.6236 26.5918 32.6224 26.6815C32.6224 26.9053 32.7113 27.1199 32.8695 27.2781C33.0277 27.4364 33.2423 27.5252 33.4661 27.5252Z" fill="#151F59"/>
<path d="M39.1313 32.9738C39.2129 32.8962 39.2782 32.8031 39.3232 32.6999C39.3683 32.5967 39.3922 32.4855 39.3936 32.3729C39.395 32.2602 39.3739 32.1485 39.3314 32.0442C39.289 31.9399 39.2261 31.8451 39.1464 31.7655C39.0667 31.6859 38.972 31.623 38.8676 31.5806C38.7633 31.5382 38.6515 31.5172 38.5389 31.5186C38.4263 31.5201 38.3151 31.5441 38.2119 31.5892C38.1087 31.6343 38.0156 31.6997 37.9381 31.7813C37.4236 32.2945 36.7266 32.5827 36 32.5827C35.2733 32.5827 34.5764 32.2945 34.0619 31.7813C33.9838 31.7019 33.8907 31.6388 33.7881 31.5955C33.6855 31.5523 33.5753 31.5298 33.4639 31.5293C33.3525 31.5289 33.2421 31.5505 33.1391 31.5929C33.0362 31.6353 32.9426 31.6977 32.8638 31.7765C32.7851 31.8552 32.7227 31.9488 32.6803 32.0518C32.6379 32.1548 32.6163 32.2651 32.6167 32.3765C32.6172 32.4879 32.6397 32.5981 32.6829 32.7007C32.7262 32.8034 32.7893 32.8964 32.8687 32.9745C33.6998 33.8037 34.826 34.2694 36 34.2694C37.174 34.2694 38.3001 33.8037 39.1313 32.9745V32.9738Z" fill="#151F59"/>
<path d="M24.4688 49.5586C24.245 49.5586 24.0304 49.6475 23.8721 49.8057C23.7139 49.964 23.625 50.1786 23.625 50.4023V50.6221C23.625 50.8459 23.7139 51.0605 23.8721 51.2188C24.0304 51.377 24.245 51.4659 24.4688 51.4659C24.6925 51.4659 24.9071 51.377 25.0654 51.2188C25.2236 51.0605 25.3125 50.8459 25.3125 50.6221V50.4023C25.3125 50.1786 25.2236 49.964 25.0654 49.8057C24.9071 49.6475 24.6925 49.5586 24.4688 49.5586Z" fill="#151F59"/>
<path d="M24.4688 52.166C24.245 52.166 24.0304 52.2549 23.8721 52.4131C23.7139 52.5714 23.625 52.786 23.625 53.0098V57.1124C23.625 57.3361 23.7139 57.5507 23.8721 57.709C24.0304 57.8672 24.245 57.9561 24.4688 57.9561C24.6925 57.9561 24.9071 57.8672 25.0654 57.709C25.2236 57.5507 25.3125 57.3361 25.3125 57.1124V53.0098C25.3125 52.786 25.2236 52.5714 25.0654 52.4131C24.9071 52.2549 24.6925 52.166 24.4688 52.166Z" fill="#151F59"/>
</svg>
