<svg width="44" height="44" fill="none" xmlns="http://www.w3.org/2000/svg"><path d="M41.871 22c-.666 0-1.304.318-1.703.852l-3.651 4.868-3.917.49.305-.407c.29-.386.45-.866.45-1.349v-.077a2.25 2.25 0 00-3.752-1.671l-5.25 4.724a4.975 4.975 0 00-1.643 3.692v3.781h-1.42v-3.781c0-1.406-.6-2.752-1.644-3.692l-5.248-4.723a2.24 2.24 0 00-1.505-.578 2.25 2.25 0 00-2.248 2.248v.078c0 .483.16.962.45 1.348l.304.407-3.916-.49-3.651-4.868A2.135 2.135 0 002.128 22 2.132 2.132 0 000 24.129v.28c0 .422.123.83.358 1.181l4.175 6.262a4.957 4.957 0 004.133 2.213h2.459c1.53 0 2.883.975 3.366 2.426l.137.412h-1.144V44h17.032v-7.097h-1.144l.137-.412a3.544 3.544 0 013.366-2.426h2.46a4.957 4.957 0 004.132-2.213l4.175-6.262c.235-.35.358-.76.358-1.18v-.281A2.132 2.132 0 0041.871 22zM15.836 36.042a4.96 4.96 0 00-4.711-3.397h-2.46a3.541 3.541 0 01-2.952-1.58L1.54 24.803a.708.708 0 01-.12-.394v-.28a.71.71 0 011.278-.427l4.013 5.351 5.873.735.333.444 1.136-.85-1.822-2.43a.838.838 0 01-.165-.498v-.077a.83.83 0 011.383-.616l5.249 4.724a3.555 3.555 0 011.174 2.637v3.781h-3.747l-.288-.861zm-.933 6.539v-1.42h3.549v-1.42h-3.549v-1.418h6.387v1.419h-1.419v1.42h1.42v1.419h-6.388zm7.807 0v-1.42h1.419v-1.42h-1.42v-1.418h6.388v1.419h-3.549v1.42h3.549v1.419H22.71zm19.87-18.172a.71.71 0 01-.119.394l-4.175 6.262a3.542 3.542 0 01-2.952 1.58h-2.459a4.96 4.96 0 00-4.712 3.397l-.287.861h-3.747v-3.781c0-1.004.429-1.966 1.174-2.637l5.25-4.724a.829.829 0 011.383.616v.078a.838.838 0 01-.166.497l-1.822 2.429 1.136.85.333-.444 5.873-.734 4.013-5.351a.71.71 0 011.277.427v.28zM14.193 21.29h27.678V19c0-1.47-.926-2.807-2.303-3.324l-3.375-1.264v-.602a4.256 4.256 0 001.189-1.794 2.837 2.837 0 002.36-2.79V6.387A6.394 6.394 0 0033.355 0a6.39 6.39 0 00-5.634 3.385A6.159 6.159 0 0022.23 0c-1.22 0-2.402.358-3.415 1.034l-.682.455a3.806 3.806 0 00-1.988 1.667A6.384 6.384 0 0010.645 0a6.394 6.394 0 00-6.387 6.387v2.839a2.837 2.837 0 002.36 2.79 4.265 4.265 0 001.188 1.794v.601l-3.375 1.266A3.566 3.566 0 002.13 19v2.29h12.064zm14.904-1.419h-2.84v-1.42H24.84v1.42h-5.68v-1.42h-1.42v1.42h-2.838V19a2.14 2.14 0 011.382-1.995l3.337-1.25L22 18.925l2.377-3.17 3.338 1.25A2.138 2.138 0 0129.097 19v.871zm-21.29-9.226V7.756a7.702 7.702 0 003.456-1.167l.006.006a4.165 4.165 0 002.215 1.146v2.904a2.842 2.842 0 01-2.839 2.839 2.842 2.842 0 01-2.839-2.839zm22.709 3.767l-2.839 1.064-2.838-1.065v-.6a4.257 4.257 0 001.188-1.795 2.823 2.823 0 001.65-.932c.42.48.994.82 1.65.932a4.265 4.265 0 001.189 1.794v.601zm-9.935.243c.445.158.92.248 1.419.248.498 0 .974-.09 1.42-.248v.012L22 16.559l-1.42-1.892v-.012zm8.516-4.207c-.423-.246-.71-.7-.71-1.222 0-.523.287-.976.71-1.222v2.444zm-2.84 0V8.004c.423.247.71.7.71 1.223 0 .522-.287.975-.71 1.221zm-1.418.197a2.842 2.842 0 01-2.84 2.839 2.842 2.842 0 01-2.838-2.839V7.806h5.678v2.84zm-7.097-.197c-.423-.246-.71-.7-.71-1.222 0-.523.287-.976.71-1.222v2.444zm-2.839-2.444c.422.246.71.699.71 1.222s-.287.976-.71 1.222V8.004zm-1.42 5.806a4.255 4.255 0 001.19-1.794 2.823 2.823 0 001.65-.932c.42.48.993.82 1.65.932a4.265 4.265 0 001.188 1.794v.601l-2.838 1.065-2.84-1.065v-.6zM40.453 19v.871h-2.84v-1.42h-1.419v1.42h-5.677V19c0-1.02-.451-1.968-1.183-2.63l1.361-.51a2.832 2.832 0 002.66 1.882 2.833 2.833 0 002.661-1.881l3.054 1.145A2.138 2.138 0 0140.452 19zm-5.678-4.097a1.42 1.42 0 01-1.42 1.42 1.42 1.42 0 01-1.419-1.42v-.248a4.23 4.23 0 001.42.248c.498 0 .974-.09 1.42-.248v.248zm-1.42-1.42a2.842 2.842 0 01-2.838-2.838V7.756a7.703 7.703 0 003.457-1.167l.005.006a4.165 4.165 0 002.215 1.146v2.904a2.842 2.842 0 01-2.838 2.839zm4.259-3.035V8.004c.422.247.71.7.71 1.223 0 .522-.288.975-.71 1.221zm-4.258-9.029a4.974 4.974 0 014.968 4.968v.395c-.42-.245-.9-.395-1.42-.395-.715 0-1.415-.29-1.921-.796l-.828-.827-.841.561a6.305 6.305 0 01-3.507 1.062c-.52 0-1 .15-1.419.395v-.395a4.974 4.974 0 014.968-4.968zM17.032 5.083c0-1.036.66-1.953 1.644-2.281l.926-.587a4.725 4.725 0 012.628-.796 4.743 4.743 0 014.738 4.738v.625c-.42-.245-.9-.395-1.42-.395h-7.096c-.52 0-1 .15-1.42.395v-1.7zm-6.387-3.664a4.974 4.974 0 014.968 4.968v.395c-.42-.245-.9-.395-1.42-.395-.715 0-1.415-.29-1.92-.796l-.828-.827-.842.561a6.305 6.305 0 01-3.506 1.062c-.52 0-1 .15-1.42.395v-.395a4.974 4.974 0 014.968-4.968zM5.677 9.226c0-.523.288-.976.71-1.222v2.443a1.413 1.413 0 01-.71-1.221zm4.968 5.677c.498 0 .975-.09 1.42-.248v.248a1.42 1.42 0 01-1.42 1.42 1.42 1.42 0 01-1.42-1.42v-.248c.446.157.922.248 1.42.248zm-2.839 4.968v-1.42H6.387v1.42H3.548V19a2.14 2.14 0 011.382-1.995l3.054-1.145a2.835 2.835 0 002.661 1.882 2.833 2.833 0 002.66-1.881l1.361.51A3.56 3.56 0 0013.484 19v.871H7.806z" fill="#151F59"/></svg>