<svg width="43" height="43" fill="none" xmlns="http://www.w3.org/2000/svg"><g clip-path="url(#clip0)" fill="#151F59"><path d="M39.1 35.138a3.449 3.449 0 001.126-2.54V31.21a3.472 3.472 0 00-3.467-3.468 3.475 3.475 0 00-3.398 2.774h-2.278a2.078 2.078 0 00-1.953-1.386c-.903 0-1.666.581-1.953 1.387h-2.279a3.479 3.479 0 00-2.703-2.704v-1.556a2.77 2.77 0 002.08-2.676h.694c.383 0 .693-.31.693-.693v-2.08h1.387V19.42h-1.387v-.007c0-1.327.629-2.631 1.726-3.576a9.002 9.002 0 003.129-6.82 8.941 8.941 0 00-2.772-6.503A8.929 8.929 0 0021.13.009c-4.681.189-8.559 4.156-8.643 8.844a8.992 8.992 0 003.07 6.934c1.1.963 1.74 2.282 1.777 3.633h-1.38v1.387h1.387v2.08c0 .384.31.694.693.694h.694a2.77 2.77 0 002.08 2.676v1.555a3.479 3.479 0 00-2.704 2.704h-2.278a2.078 2.078 0 00-1.953-1.386c-.903 0-1.666.581-1.953 1.387H9.64a3.474 3.474 0 00-3.398-2.775 3.472 3.472 0 00-3.467 3.468v1.387c0 1.007.438 1.907 1.125 2.54A6.248 6.248 0 000 40.92v1.388c0 .383.31.693.694.693H11.79c.384 0 .694-.31.694-.693V40.92a6.249 6.249 0 00-3.9-5.781 3.449 3.449 0 001.126-2.54v-.694h2.208a2.078 2.078 0 001.953 1.387c.903 0 1.666-.582 1.953-1.387h2.208v.693c0 1.007.438 1.907 1.126 2.54a6.248 6.248 0 00-3.9 5.782v1.388c0 .383.31.693.694.693h11.096c.384 0 .694-.31.694-.693V40.92a6.249 6.249 0 00-3.9-5.781 3.449 3.449 0 001.126-2.54v-.694h2.207a2.078 2.078 0 001.954 1.387c.903 0 1.666-.582 1.953-1.387h2.208v.693c0 1.007.438 1.907 1.125 2.54a6.248 6.248 0 00-3.9 5.782v1.388c0 .383.31.693.694.693h11.097c.383 0 .693-.31.693-.693V40.92a6.249 6.249 0 00-3.9-5.781zM11.099 40.92v.693H9.711v-1.387H8.324v1.387H4.163v-1.387H2.776v1.387H1.389v-.694a4.86 4.86 0 014.854-4.854 4.861 4.861 0 014.855 4.855zm-6.935-8.323V31.21c0-1.147.933-2.08 2.08-2.08s2.08.933 2.08 2.08v1.387c0 1.147-.933 2.08-2.08 2.08a2.083 2.083 0 01-2.08-2.08zm9.71-.693a.694.694 0 110-1.387.694.694 0 010 1.387zm2.597-17.16a7.606 7.606 0 01-2.596-5.867c.07-3.966 3.35-7.323 7.31-7.483 2.116-.077 4.09.67 5.6 2.12a7.562 7.562 0 012.346 5.503 7.611 7.611 0 01-2.648 5.769c-1.403 1.21-2.207 2.896-2.207 4.627v.007H18.72c-.038-1.75-.85-3.449-2.25-4.677zm7.805 6.063v1.387h-5.548v-1.387h5.548zm-4.161 2.774h2.774c0 .765-.622 1.387-1.387 1.387a1.388 1.388 0 01-1.387-1.387zm6.242 17.338v.694H24.97v-1.387h-1.39v1.387h-4.16v-1.387h-1.388v1.387h-1.387v-.694a4.86 4.86 0 014.855-4.854 4.861 4.861 0 014.855 4.855zm-6.936-8.322V31.21c0-1.147.934-2.08 2.081-2.08 1.147 0 2.08.933 2.08 2.08v1.387c0 1.147-.933 2.08-2.08 2.08a2.083 2.083 0 01-2.08-2.08zm9.71-.693a.694.694 0 110-1.387.694.694 0 010 1.387zm5.548.693V31.21c0-1.147.933-2.08 2.08-2.08 1.148 0 2.081.933 2.081 2.08v1.387c0 1.147-.933 2.08-2.08 2.08a2.083 2.083 0 01-2.08-2.08zm6.935 9.016h-1.387v-1.387H38.84v1.387h-4.16v-1.387h-1.39v1.387h-1.387v-.694a4.86 4.86 0 014.855-4.854 4.861 4.861 0 014.854 4.855v.693z"/><path d="M20.114 16.646h2.774v1.387h-2.774v-1.387zm.693-4.231v1.457h1.387v-1.457c.442-.09.853-.266 1.216-.508l1.068 1.068.98-.98-1.067-1.069a3.46 3.46 0 00.507-1.215h1.457V8.324h-1.457a3.448 3.448 0 00-.507-1.216l1.067-1.068-.98-.98-1.068 1.067a3.44 3.44 0 00-1.216-.507V4.162h-1.387V5.62a3.44 3.44 0 00-1.216.507L18.523 5.06l-.98.98 1.068 1.069a3.441 3.441 0 00-.508 1.216h-1.457V9.71h1.457c.09.441.266.852.508 1.215l-1.068 1.068.98.981 1.068-1.068a3.43 3.43 0 001.216.508zm.694-5.479c1.147 0 2.08.934 2.08 2.081 0 1.147-.933 2.08-2.08 2.08a2.083 2.083 0 01-2.08-2.08c0-1.147.932-2.08 2.08-2.08z"/></g><defs><clipPath id="clip0"><path fill="#fff" d="M0 0h43v43H0z"/></clipPath></defs></svg>