<svg width="44" height="44" fill="none" xmlns="http://www.w3.org/2000/svg"><path d="M41.44 2.75l-1.97-1.183a6.172 6.172 0 00-3.175-.88H30.25c-.758 0-1.375.617-1.375 1.375 0 .504.146.97.382 1.376h-3.132A2.065 2.065 0 0024.062 5.5c0 .242.05.472.127.688H22a2.065 2.065 0 00-2.063 2.062v2.352c-2.82.852-4.812 3.491-4.812 6.476a6.793 6.793 0 004.906 6.504l2.804.8a2.652 2.652 0 011.915 2.54 2.643 2.643 0 01-2.64 2.64h-.22a2.643 2.643 0 01-2.64-2.64v-.11a2.065 2.065 0 00-2.063-2.062 2.065 2.065 0 00-2.062 2.063v.11c0 1.482.493 2.88 1.334 4.015h-1.716a2.73 2.73 0 00.382-1.375c0-.759-.617-1.375-1.375-1.375H7.706a6.177 6.177 0 00-3.175.879L2.56 30.25H.687v11H2.56l1.971 1.183a6.17 6.17 0 003.175.88H16.5a2.065 2.065 0 002.063-2.063c0-.272-.056-.53-.152-.767a2.06 2.06 0 001.526-1.983c0-.242-.049-.472-.126-.688H22a2.065 2.065 0 002.063-2.062v-2.352c2.82-.852 4.812-3.491 4.812-6.476a6.793 6.793 0 00-4.906-6.504l-2.804-.8a2.652 2.652 0 01-1.915-2.54 2.643 2.643 0 012.64-2.64h.22a2.643 2.643 0 012.64 2.64v.11c0 1.137.925 2.062 2.062 2.062a2.065 2.065 0 002.062-2.063v-.11a6.64 6.64 0 00-.125-1.265h7.543a6.177 6.177 0 003.176-.879l1.972-1.183h1.873v-11H41.44zM18.563 38.5a.689.689 0 01-.688.688h-8.25v1.374H16.5a.689.689 0 010 1.376H7.706a4.8 4.8 0 01-2.467-.684L2.94 39.875h-.877v-8.25h.877l2.299-1.38a4.8 4.8 0 012.467-.683h6.044c0 .759-.617 1.375-1.375 1.375H9.34l-1.056 1.056A3.415 3.415 0 015.854 33H4.812v1.375h1.042c1.286 0 2.494-.5 3.403-1.41l.653-.653h7.913a6.72 6.72 0 002.114 1.086v.29H9.626v1.374h10.313v.688c0 .242.049.472.126.688H9.625v1.374h8.25a.69.69 0 01.688.688zM27.5 17.187a.689.689 0 01-1.375 0v-.11a4.02 4.02 0 00-4.015-4.015h-.22a4.02 4.02 0 00-4.015 4.016 4.032 4.032 0 002.912 3.86l2.804.801a5.413 5.413 0 013.909 5.183 5.416 5.416 0 01-4.268 5.272l-.544.115v3.441a.689.689 0 01-1.375 0v-3.44l-.545-.116a5.416 5.416 0 01-4.268-5.272v-.11a.689.689 0 011.375 0v.11a4.02 4.02 0 004.015 4.015h.22a4.02 4.02 0 004.014-4.015 4.032 4.032 0 00-2.911-3.86l-2.805-.801a5.413 5.413 0 01-3.908-5.183 5.416 5.416 0 014.268-5.272l.544-.115V8.25a.689.689 0 011.375 0v3.44l.545.116a5.416 5.416 0 014.268 5.272v.11zm14.438-4.812h-.878l-2.299 1.38a4.799 4.799 0 01-2.467.682h-7.962a6.869 6.869 0 00-.79-1.374h6.833v-1.376h-8.198a6.72 6.72 0 00-2.114-1.085v-.29h10.312V8.938H24.062V8.25c0-.242-.049-.472-.126-.688h10.439V6.188h-8.25a.689.689 0 010-1.375h7.965l.653.654a4.781 4.781 0 003.404 1.409h1.04V5.5h-1.041a3.418 3.418 0 01-2.431-1.006L34.66 3.438h-3.035a1.376 1.376 0 01-1.375-1.376h6.044a4.8 4.8 0 012.467.684l2.299 1.379h.877v8.25z" fill="#151F59"/><path d="M30.25 26.125h6.875V27.5H30.25v-1.375zM6.875 16.5h6.875v1.375H6.875V16.5zm.631 4.527l6.353-2.633.527 1.27-6.353 2.634-.527-1.27zm0-7.675l.526-1.27 6.353 2.632-.527 1.27-6.352-2.632zM29.63 24.334l6.353-2.633.527 1.27-6.353 2.634-.527-1.27zm.004 4.959l.526-1.271 6.353 2.633-.527 1.27-6.352-2.633z" fill="#151F59"/></svg>