<svg width="43" height="43" fill="none" xmlns="http://www.w3.org/2000/svg"><path d="M36.281 30.94v-.384a7.38 7.38 0 002.688-5.697h1.343v-1.343H38.84c-.634-3.435-3.646-6.047-7.262-6.047-.095 0-.187.01-.281.014-1.093-1.887-2.971-3.11-5.094-3.327v-.397a7.38 7.38 0 002.688-5.697h1.343V6.718h-1.472C28.128 3.284 25.116.672 21.5.672c-3.616 0-6.628 2.612-7.262 6.047h-1.472v1.343h1.343c0 2.29 1.048 4.34 2.688 5.697v.398c-2.123.216-4.001 1.44-5.094 3.326-.094-.003-.186-.014-.281-.014-3.616 0-6.628 2.612-7.262 6.047H2.687v1.343h1.344c0 2.29 1.048 4.34 2.688 5.697v.384c-3.39.341-6.047 3.227-6.047 6.728v4.66h41.656v-4.66c0-3.5-2.657-6.387-6.047-6.727zM9.406 38.297H5.375v-1.344h2.688v-.016c.392.297.844.519 1.343.62v.74zm-1.344-6.719v-.144c1.01.518 2.15.816 3.36.816s2.35-.298 3.36-.816v.679c-.16.31-.921 1.48-3.36 1.48-2.44 0-3.194-1.153-3.36-1.481v-.534zm8.135-10.415a2.68 2.68 0 00-1.416 2.353h-1.344v-4.35a6.062 6.062 0 012.76 1.997zm.698 1.143c.18.383.322.788.418 1.21h-1.188c0-.535.317-.995.77-1.21zm.224-2.15h1.022v-.016c.392.297.844.519 1.343.62v2.756h-.8a7.36 7.36 0 00-1.565-3.36zm1.022-5.518c1.009.517 2.149.815 3.359.815s2.35-.298 3.36-.816v.679c-.16.31-.921 1.48-3.36 1.48-2.44 0-3.194-1.153-3.36-1.481v-.678zm10.078 8.878a2.68 2.68 0 00-1.416-2.353 6.06 6.06 0 012.76-1.998v4.35h-1.344zm-8.063-4.032a2.018 2.018 0 01-2.015-2.015v-.231c.71.488 1.774.903 3.359.903s2.65-.415 3.36-.903v.23a2.018 2.018 0 01-2.016 2.016h-.672v4.032h-1.344v-4.032h-.672zm3.36 1.276a3.315 3.315 0 001.343-.62v.016h1.022a7.36 7.36 0 00-1.565 3.36h-.8V20.76zm2.589 1.546c.453.215.77.675.77 1.21h-1.188c.096-.422.238-.827.418-1.21zm1.237-3.494H25.91c.182-.413.293-.864.293-1.343v-1.974c.467.06.917.186 1.344.363v2.815c-.07.045-.137.092-.205.14zm-3.154 6.047a7.38 7.38 0 002.687 5.697v.384c-2.369.238-4.373 1.723-5.369 3.788a6.726 6.726 0 00-5.381-3.788v-.384a7.38 7.38 0 002.688-5.697h5.375zm1.343 7.79a5.3 5.3 0 011.344-.357v1.974c0 .48.11.93.293 1.343H25.53v-2.96zm-9.406 1.617V32.29c.472.056.92.174 1.344.341v2.978h-1.637a3.32 3.32 0 00.293-1.343zm1.344 2.687v1.344h-4.032v-.74c.5-.101.952-.323 1.344-.62v.016h2.688zm-4.032 2.688h4.032v1.343h-4.032v-1.343zm5.376-6.24c1.234.977 2.015 2.492 2.015 4.224h.002l-.002.043v3.316h-2.015v-7.583zm3.359 4.267c0-1.707.788-3.23 2.015-4.224v7.54h-2.015v-3.316zm3.36 1.973h4.03v1.343h-4.03v-1.343zm4.03-1.344h-4.03v-1.344h2.687v-.016c.392.297.844.519 1.343.62v.74zm-1.343-6.719v-.144a7.325 7.325 0 006.718 0v.679c-.158.31-.92 1.48-3.359 1.48-2.44 0-3.194-1.153-3.36-1.481v-.534zm9.406 5.375v1.344h-4.031v-.74a3.315 3.315 0 001.343-.62v.016h2.688zm0-1.344h-1.637c.182-.413.293-.864.293-1.343v-1.974c.47.059.92.182 1.344.356v2.961zm-6.047-4.703a6.054 6.054 0 01-6.047-6.047h12.094a6.054 6.054 0 01-6.047 6.047zm4.703-7.39c0-.535.317-.995.77-1.21.18.383.322.788.418 1.21h-1.188zm.072-2.353a2.68 2.68 0 00-1.416 2.353h-1.343v-4.35a6.063 6.063 0 012.76 1.997zm-4.103-2.31v4.663h-1.344v-4.664c.221-.025.445-.04.672-.04.227 0 .451.015.672.04zm-2.413-1.169c-.324.079-.64.178-.946.298v-1.307c.352.291.67.628.946 1.01zM26.973 5.51c.18.383.322.788.418 1.21h-1.188c0-.535.317-.995.77-1.21zm-.698-1.143a2.68 2.68 0 00-1.416 2.353h-1.343V2.37a6.062 6.062 0 012.759 1.997zm-4.103-2.31V6.72h-1.344V2.055c.221-.025.445-.04.672-.04.227 0 .45.015.672.04zm-2.688.312v4.35h-1.343a2.68 2.68 0 00-1.416-2.352 6.062 6.062 0 012.76-1.998zm-3.457 3.14c.453.216.77.676.77 1.21h-1.188c.096-.421.238-.826.418-1.21zm-.574 2.554h12.094A6.054 6.054 0 0121.5 14.11a6.054 6.054 0 01-6.047-6.046zm1.637 10.75h-1.432a8.123 8.123 0 00-.205-.14v-2.814a5.236 5.236 0 011.344-.363v1.974c0 .48.11.93.293 1.343zm-2.98-2.137v1.307a7.334 7.334 0 00-.947-.298c.276-.38.594-.718.946-1.01zm-2.016 2.177v4.664H10.75v-4.664c.221-.025.445-.04.672-.04.227 0 .45.015.672.04zm-2.688.313v4.35H8.062a2.68 2.68 0 00-1.415-2.352 6.063 6.063 0 012.76-1.998zm-3.457 3.14c.453.216.77.676.77 1.21H5.53c.096-.421.238-.826.418-1.21zm-.574 2.554h12.094a6.054 6.054 0 01-6.047 6.047 6.054 6.054 0 01-6.047-6.047zm1.637 10.75H5.375v-2.96a5.3 5.3 0 011.344-.357v1.974c0 .48.11.93.293 1.343zm-4.996 2.059c0-1.707.788-3.23 2.015-4.224v7.54H2.016v-3.316zm3.359 3.316v-1.343h4.031v1.343H5.375zm4.703-4.703a2.018 2.018 0 01-2.015-2.015v-.231c.71.488 1.774.903 3.359.903s2.65-.415 3.36-.904v.232a2.018 2.018 0 01-2.016 2.015h-.672v4.703H10.75v-4.703h-.672zm22.172 4.703h-1.344v-4.703h-.672a2.018 2.018 0 01-2.015-2.015v-.231c.71.488 1.774.903 3.36.903 1.584 0 2.648-.415 3.358-.904v.232a2.018 2.018 0 01-2.015 2.015h-.672v4.703zm1.344-1.343h4.031v1.343h-4.031v-1.343zm7.39 1.343H38.97v-7.54a5.425 5.425 0 012.015 4.224v3.316z" fill="#151F59"/></svg>