<svg width="43" height="43" fill="none" xmlns="http://www.w3.org/2000/svg"><path d="M26.493 17.574a2.439 2.439 0 00-2.436 2.436 2.439 2.439 0 002.436 2.436 2.439 2.439 0 002.436-2.436 2.439 2.439 0 00-2.436-2.436zm0 3.611a1.177 1.177 0 01-1.175-1.175c0-.648.527-1.176 1.175-1.176s1.176.528 1.176 1.176c0 .648-.528 1.175-1.176 1.175zm-7.336-9.715a.63.63 0 00-.488.746 3.348 3.348 0 01-3.273 4.032 3.348 3.348 0 01-3.344-3.344c0-1.843 1.5-3.344 3.344-3.344.765 0 1.485.252 2.082.727a.63.63 0 00.785-.986 4.618 4.618 0 00-2.867-1 4.61 4.61 0 00-4.604 4.603 4.61 4.61 0 004.604 4.605 4.61 4.61 0 004.507-5.55.63.63 0 00-.746-.489zM3.183 41.362H.63a.63.63 0 100 1.26h2.553a.63.63 0 000-1.26zm6.495 0H7.126a.63.63 0 100 1.26h2.552a.63.63 0 000-1.26z" fill="#151F59"/><path d="M40.126 40.331c.12.14.294.22.478.22h1.532a.63.63 0 00.558-.924l-2.56-4.87a.575.575 0 01-.05-.407l1.13-4.565h.001v-.003l.003-.008.008-.044.002-.014v-.001l.002-.01.003-.033v-.014c.001-.013.002-.027.001-.04V28.43a.63.63 0 10-1.26 0v.26l-2.74-1.122.056-3.587.36.219a.63.63 0 00.654-1.078l-1.305-.793-.015-.009-4.117-2.501a2.408 2.408 0 01-1.143-1.846l6.284 3.413.103.06.107.054.895.486c.53.288.86.843.86 1.447V25.9a.63.63 0 001.261 0v-2.466a2.9 2.9 0 00-.667-1.851c.252-.175.458-.41.601-.69l.673-1.312c.23-.448.27-.959.116-1.438a1.871 1.871 0 00-.935-1.1l-.52-.266a1.888 1.888 0 00-2.537.819l-.672 1.313a1.89 1.89 0 00-.182.556l-4.985-2.708a.967.967 0 00-.244-.96l-1.112-1.112a.975.975 0 00-1.32-.05l-.947.813a4.11 4.11 0 00-.132-.057l-.077-1.259a.973.973 0 00-.97-.912h-1.572a.975.975 0 00-.844.493v-1.877c0-.583-.455-1.074-1.037-1.119l-1.238-.094a7.591 7.591 0 00-.452-1.115l.836-.944a1.124 1.124 0 00-.047-1.538l-1.603-1.603a1.128 1.128 0 00-1.524-.058l-.943.808a7.559 7.559 0 00-1.108-.469l-.077-1.258a1.124 1.124 0 00-1.12-1.054h-2.267c-.583 0-1.075.455-1.12 1.037l-.094 1.238a7.57 7.57 0 00-1.221.506l-.943-.808a1.127 1.127 0 00-1.524.058L7.823 7.026a1.124 1.124 0 00-.047 1.537l.836.945c-.18.36-.332.732-.452 1.114l-1.24.095a1.128 1.128 0 00-1.036 1.12v2.266c0 .592.463 1.084 1.054 1.12l1.258.077c.127.381.284.751.47 1.108l-.81.943a1.127 1.127 0 00.059 1.524l1.603 1.603c.418.419 1.094.44 1.537.047l.945-.836c.36.18.732.331 1.114.452l.094 1.225-3.25.346a.214.214 0 01-.13-.028L6.72 19.692c.311-.301.522-.709.565-1.173l.139-1.469A1.874 1.874 0 007 15.671a1.873 1.873 0 00-1.276-.674l-.581-.055a1.87 1.87 0 00-1.379.424 1.872 1.872 0 00-.675 1.275L2.95 18.11a1.87 1.87 0 00.355 1.286c-.086.072-.169.15-.245.237l-.292.331a3.357 3.357 0 00-.839 2.192l-.041 4.975L.26 39.751a.63.63 0 00.625.71h1.632a.63.63 0 00.596-.424l4.05-11.743 3.768 3.92c.211.214.25.542.095.799a.624.624 0 00-.044.087l-2.507 6.1h-.33l1.109-4.937a1.108 1.108 0 00-.205-1.07L7.887 31.96a.63.63 0 00-.918.864l1.063 1.129-1.29 5.74a.631.631 0 00.615.769h1.54a.63.63 0 00.583-.39l2.652-6.452a1.91 1.91 0 00-.296-2.285l-4.298-4.47.034-2.557 1.277.71c.275.153.584.213.896.174l3.218-.396a3.011 3.011 0 002.578-2.38h1.054c.592 0 1.084-.463 1.12-1.054l.077-1.258a7.555 7.555 0 001-.416l.912.807v.346c0 .512.4.938.912.97l1.258.076c.019.045.037.089.057.133l-.814.948a.976.976 0 00.052 1.318l1.113 1.114a.974.974 0 001.329.038l.944-.835c.044.019.089.037.134.054l.095 1.242c.036.505.462.9.968.9h1.572c.512 0 .938-.4.97-.912l.077-1.258.06-.026.944.835a.975.975 0 001.331-.04l1.111-1.111a.977.977 0 00.051-1.32l-.813-.947c.02-.044.039-.088.057-.133l1.259-.076a.97.97 0 00.713-.384l2.957 1.797-.07 4.556-3.54 4.921a1.94 1.94 0 00-.355 1.333l.618 5.952a.63.63 0 00.627.565h1.445a.63.63 0 00.628-.581l.374-4.754a.673.673 0 01.032-.154c.084.25.216.485.392.69l3.934 4.58zm-1.75-20.371a.621.621 0 01.039-.477l.672-1.312a.626.626 0 01.84-.272l.52.267a.62.62 0 01.271.84l-.672 1.313a.621.621 0 01-.84.271l-.398-.203-.188-.103a.62.62 0 01-.244-.324zM24.74 14.692l-.051.67a4.91 4.91 0 00-.207.085l-.33-.284c.246-.085.453-.253.588-.47zM4.205 18.228l.14-1.468a.622.622 0 01.68-.563l.58.055a.621.621 0 01.564.68L6.03 18.4a.625.625 0 01-.593.564 2.245 2.245 0 00-.838-.097.626.626 0 01-.394-.64zM2.07 39.201h-.466l1.47-11.404 2.943-.04L2.07 39.202zm10.74-15.656l-3.218.396a.211.211 0 01-.13-.025L7.273 22.7l-.02-.011-1.486-.826a.63.63 0 10-.613 1.101l1.168.65-.038 2.88-3.13.042.037-4.368c.004-.505.19-.99.524-1.37l.292-.33c.146-.166.335-.274.536-.319.036.006.072.012.108.016l.528.05c.044.02.088.043.13.07l3.845 2.465.009.005c.276.17.607.246.93.212l4.096-.437c-.244.541-.758.94-1.379 1.016zm5.755-5.165a6.294 6.294 0 01-1.537.638.63.63 0 00-.467.57l-.095 1.568h-2.009l-.118-1.55a.63.63 0 00-.476-.563 6.3 6.3 0 01-1.634-.663.63.63 0 00-.734.073l-1.177 1.042-1.42-1.42 1.012-1.18a.63.63 0 00.062-.736 6.284 6.284 0 01-.688-1.624.63.63 0 00-.571-.467l-1.567-.095v-2.009l1.55-.118a.63.63 0 00.563-.476 6.28 6.28 0 01.663-1.634.63.63 0 00-.073-.734L8.806 7.825l1.42-1.42 1.18 1.012a.63.63 0 00.735.062 6.293 6.293 0 011.72-.713.63.63 0 00.477-.564l.118-1.55h2.01l.094 1.568a.63.63 0 00.467.57 6.298 6.298 0 011.625.689.63.63 0 00.735-.062l1.18-1.012 1.42 1.42-1.042 1.177a.63.63 0 00-.073.734 6.28 6.28 0 01.663 1.634.63.63 0 00.563.476l1.55.118v2.009l-1.567.095a.63.63 0 00-.57.467 6.292 6.292 0 01-.689 1.624.63.63 0 00.062.736l1.012 1.18-1.42 1.42-1.177-1.042a.63.63 0 00-.735-.073zm12.056 2.274a.631.631 0 00-.564.445 3.718 3.718 0 01-.301.71.63.63 0 00.073.716l.909 1.06-.73.73-1.052-.932a.63.63 0 00-.715-.083c-.207.11-.429.202-.658.273a.63.63 0 00-.444.564l-.086 1.401H26.02l-.106-1.393a.63.63 0 00-.455-.558 3.66 3.66 0 01-.713-.288.63.63 0 00-.715.084l-1.052.931-.73-.73.91-1.06a.63.63 0 00.073-.715 3.705 3.705 0 01-.302-.71.63.63 0 00-.564-.445l-1.212-.073a1.16 1.16 0 00.12-.103s1.923-2.203 1.931-2.219a.63.63 0 00-.085-.711l-.459-.518-.005-.006-.01-.011-.01-.013-.44-.512.721-.722 1.06.91a.63.63 0 00.717.072c.238-.132.496-.239.766-.317a.63.63 0 00.454-.557l.106-1.393h1.032l.086 1.402a.63.63 0 00.444.564c.247.076.485.177.71.302a.63.63 0 00.716-.074l1.06-.91.72.72a.627.627 0 00-.158.2l-.763.863a.63.63 0 00-.084.715c.119.223.216.463.289.715a.63.63 0 00.557.453l.237.018c.222.43.529.818.91 1.135l-1.156.07zm10.473 18.637h-.2l-3.745-4.36a.814.814 0 01-.196-.569l.236-5.45 2.673 1.096-1 4.04c-.108.436-.053.897.157 1.296l2.075 3.947zm-5.964-5.446c-.358.33-.577.781-.617 1.27l-.329 4.175h-.294l-.559-5.385a.682.682 0 01.124-.468l2.422-3.367-.14 3.212-.607.563zm7.24 7.517h-2.553a.63.63 0 100 1.26h2.553a.63.63 0 000-1.26zm-7.508 0h-2.553a.63.63 0 100 1.26h2.553a.63.63 0 100-1.26z" fill="#151F59"/><path d="M27.558 11.53c2.27 0 4.36 1.028 5.736 2.756l-.47-.115a.63.63 0 00-.297 1.226l1.956.474a.632.632 0 00.812-.452l.45-1.857a.63.63 0 00-1.225-.297l-.1.414a8.56 8.56 0 00-6.863-3.41.63.63 0 000 1.26zM3.195 8.237c.052.37.511.63.856.505l2.077-.759A.63.63 0 105.695 6.8l-.616.225a10.784 10.784 0 019.336-5.344.63.63 0 000-1.26A12.04 12.04 0 003.912 6.526l-.244-.67a.63.63 0 00-1.184.433l.711 1.948z" fill="#151F59"/></svg>