<svg width="28" height="28" viewBox="0 0 28 28" xmlns="http://www.w3.org/2000/svg">
<g clip-path="url(#clip0)">
<path d="M27.0602 13.6685C26.8475 13.3476 21.7377 5.83301 13.6601 5.83301C6.72884 5.83301 0.552493 13.3045 0.292614 13.623C0.116004 13.84 0.116004 14.1585 0.292614 14.3766C0.552493 14.6951 6.72884 22.1666 13.6601 22.1666C20.5913 22.1666 26.7676 14.6951 27.0275 14.3766C27.1907 14.176 27.2053 13.8855 27.0602 13.6685ZM13.6601 20.9999C8.10365 20.9999 2.82053 15.5049 1.47842 13.9998C2.81831 12.4937 8.09579 6.99973 13.6601 6.99973C20.1616 6.99973 24.7505 12.4867 25.871 13.9683C24.5772 15.4255 19.2638 20.9999 13.6601 20.9999Z" fill="black"/>
<path d="M13.6602 9.33325C11.1784 9.33325 9.16016 11.4263 9.16016 14C9.16016 16.5737 11.1784 18.6667 13.6602 18.6667C16.142 18.6667 18.1603 16.5737 18.1603 14C18.1603 11.4263 16.142 9.33325 13.6602 9.33325ZM13.6602 17.5001C11.7994 17.5001 10.2852 15.9297 10.2852 14C10.2852 12.0704 11.7994 10.5 13.6602 10.5C15.521 10.5 17.0353 12.0704 17.0353 14C17.0353 15.9297 15.521 17.5001 13.6602 17.5001Z" fill="black"/>
</g>
<defs>
<clipPath id="clip0">
<rect width="27" height="28" fill="white" transform="translate(0.160156)"/>
</clipPath>
</defs>
</svg>
