<svg width="452" height="372" viewBox="0 0 452 372" fill="none" xmlns="http://www.w3.org/2000/svg">
<path d="M70.5638 253.428C70.8766 253.197 71.2269 253.023 71.5868 252.924L130.307 177.717L110.147 177.654L86.5508 207.671C86.5508 207.671 86.752 207.76 86.8317 207.848C87.408 208.376 87.3633 209.34 86.822 209.866C86.3088 210.373 85.8798 210.946 85.4087 211.485C85.6758 211.733 85.9102 212.022 86.1819 212.246C86.6222 212.601 86.6752 213.317 86.4799 213.814C86.2565 214.33 85.7476 214.691 85.1631 214.698C84.9667 214.708 84.7704 214.717 84.574 214.727C84.574 214.727 84.5038 214.714 84.4524 214.728C84.4056 214.718 84.3262 214.751 84.3028 214.747C83.9522 214.799 83.6204 214.88 83.3027 215.012C83.2232 215.045 83.1484 215.054 83.069 215.087C82.9336 215.158 82.8027 215.205 82.6673 215.276C82.373 215.412 82.0928 215.6 81.8407 215.769C81.6726 215.882 81.5325 215.976 81.3878 216.094C81.3271 216.155 81.243 216.211 81.187 216.249C80.921 216.488 80.6362 216.7 80.3936 216.944C79.8009 217.484 79.2269 218.052 78.653 218.62C78.3777 218.906 78.0132 219.029 77.6485 219.03L43.0837 262.991L43.0279 276.073L54.5174 276.103C55.142 275.155 55.8321 274.245 56.8034 273.634C57.247 273.357 57.7236 273.159 58.2001 272.961C58.2186 272.867 58.2325 272.797 58.251 272.703C59.6557 267.067 63.054 262.165 66.7855 257.792C66.5927 257.292 66.6428 256.669 67.0486 256.213C67.5804 255.613 67.85 254.863 67.9091 254.072C67.9992 252.508 70.0797 252.31 70.6198 253.39L70.5638 253.428Z" fill="#E83C38"/>
<path d="M144.809 260.327C144.716 260.674 144.558 260.983 144.329 261.279C143.397 262.555 141.967 263.27 140.491 263.733C140.131 264.076 139.772 264.418 139.408 264.785C139.198 264.987 138.96 265.086 138.707 265.133C138.596 265.33 138.456 265.546 138.367 265.747C138.009 266.455 137.055 266.608 136.418 266.263C135.716 265.881 135.579 264.978 135.905 264.312C136.3 263.538 136.766 262.779 137.274 262.051L135.89 262.046C135.091 262.034 134.491 261.38 134.47 260.622C134.47 260.5 134.512 260.411 134.53 260.317L133.703 260.324L133.819 231.923L116.283 231.867L116.167 260.268L72.7387 260.136C72.4303 260.221 72.1313 260.381 71.8183 260.489C71.8278 260.564 71.8373 260.639 71.8468 260.714C71.9795 261.519 71.649 262.208 70.8452 262.463C70.2237 262.657 69.4232 262.28 69.1788 261.672C68.254 262.17 67.4042 262.781 66.5874 263.472C67.1017 263.452 67.5932 263.67 67.9122 264.147C68.3016 264.759 68.056 265.757 67.3787 266.11C66.9443 266.341 66.5099 266.571 66.0709 266.825C66.2871 267.33 66.1576 267.986 65.7656 268.371C65.7656 268.371 65.733 268.413 65.705 268.432C65.6911 268.502 65.6351 268.54 65.5978 268.606L65.5885 268.652C65.57 268.746 65.5562 268.816 65.5377 268.91C65.4683 269.261 65.4035 269.589 65.3341 269.941C65.1391 270.559 64.7895 271.099 64.2338 271.451C63.6501 271.823 62.9489 271.927 62.2708 271.915C62.224 271.906 62.1773 271.897 62.1305 271.887C62.0385 272.599 61.9979 273.297 62.0275 274.009C62.2301 274.706 62.3299 275.431 62.3782 276.171L115.542 276.352L115.416 308.498L133.508 308.567L133.63 276.444L158.452 276.527L158.515 260.454L144.79 260.421L144.809 260.327Z" fill="#E83C38"/>
<path d="M262.837 196.029C262.398 196.283 261.94 196.509 261.501 196.763C260.871 197.125 260.264 197.492 259.671 197.911C259.447 198.061 259.176 198.324 258.905 198.465C258.849 198.503 258.816 198.545 258.765 198.559C258.62 198.676 258.503 198.775 258.359 198.893C257.196 199.855 255.672 200.066 254.45 199.118C253.227 198.171 253.028 196.599 253.703 195.272C254.099 194.498 254.476 193.697 254.871 192.923C254.824 192.792 254.698 192.694 254.679 192.544C254.561 192.156 254.546 191.739 254.625 191.341C254.652 190.957 254.777 190.568 254.992 190.221C255.117 189.954 255.29 189.696 255.486 189.443C255.087 188.877 254.749 188.251 254.56 187.484C254.551 187.409 254.541 187.334 254.527 187.282C245.926 180.254 235.285 176.547 223.458 176.499C192.857 176.393 169.992 200.617 169.841 243.223C169.69 285.828 192.366 310.188 222.967 310.294C225.783 310.315 228.522 310.101 231.178 309.701C232.204 308.687 233.25 307.701 234.276 306.687C236.031 304.94 238.404 306.091 239.128 307.84C261.123 300.697 276.258 278.207 276.389 243.58C276.453 223.443 271.41 207.383 262.86 196.034L262.837 196.029ZM222.974 293.65C202.45 293.588 188.333 276.71 188.447 243.272C188.562 209.833 202.812 193.057 223.336 193.12C234.558 193.146 243.866 198.318 249.939 208.546C250.313 208.376 250.724 208.263 251.14 208.247C252.735 208.173 254.136 209.691 254.121 211.245C254.101 212.823 253.809 214.299 253.354 215.742C256.162 223.183 257.697 232.393 257.67 243.485C257.555 276.923 243.306 293.699 222.955 293.622L222.974 293.65Z" fill="#E83C38"/>
<path d="M383.049 261.091L383.165 232.69L365.629 232.634L365.513 261.034L315.309 260.878L379.625 178.502L359.465 178.439L335.351 209.109C334.35 213.316 332.689 217.295 330.345 221.042C329.567 222.276 327.896 221.629 327.702 220.52C326.335 223.998 324.326 227.154 321.006 229.078C320.511 229.369 320.038 229.3 319.645 229.077L292.35 263.791L292.295 276.872L322.508 276.974C325.132 275.253 329.143 274.878 331.809 274.796C334.675 274.68 337.547 274.907 340.377 275.344C342.5 275.666 344.648 276.114 346.572 277.078L364.884 277.142L364.762 309.264L382.854 309.333L382.981 277.187L407.802 277.271L407.866 261.197L383.044 261.114L383.049 261.091Z" fill="#E83C38"/>
<path d="M76.3407 122.648L76.3929 107.862L106.022 107.97L106.057 96.4667L76.4287 96.3586L76.4688 82.4955L110.011 82.5978L110.047 70.7292L61.8346 70.5771L61.7591 91.8798C62.3869 92.3931 62.9259 92.9863 63.3156 93.7203C64.0105 95.0013 64.2054 96.4755 64.0682 97.9086C63.7895 100.92 62.4723 103.775 62.4226 106.734C62.4239 107.342 62.1068 107.718 61.677 107.925L61.5661 134.453L110.966 134.62L111.001 122.752L76.2706 122.634L76.3407 122.648Z" fill="#E83C38"/>
<path d="M165.072 114.278C173.113 110.853 177.886 104.154 178.203 95.0427C177.923 95.2307 177.606 95.3626 177.227 95.3121C176.731 95.2385 176.131 94.8281 176.046 94.2759C175.909 93.4944 175.781 92.6661 175.868 91.8559C175.891 91.7387 175.909 91.6451 175.933 91.5279C175.622 90.8827 175.392 90.2044 175.39 89.4741C175.379 88.6688 176.056 88.0724 176.813 88.0516C177.131 88.0414 177.398 88.1671 177.623 88.3819C175.135 77.4751 165.25 70.9235 150.65 70.8876L123.037 70.7881L122.971 90.0729C123.206 90.2408 123.402 90.4744 123.478 90.83C124.714 95.8925 125.38 101.134 124.718 106.333C124.617 107.092 124.146 107.753 123.295 107.755C123.173 107.756 123.038 107.705 122.897 107.677L122.787 134.692L137.555 134.736L137.619 116.936L151.194 116.989L163.419 134.831L179.281 134.873L165.044 114.297L165.072 114.278ZM149.71 105.185L137.687 105.147L137.784 82.8748L149.807 82.9129C158.841 82.9449 163.377 87.0528 163.35 94.0804C163.318 101.01 158.749 105.193 149.738 105.166L149.71 105.185Z" fill="#E83C38"/>
<path d="M232.059 114.488C240.366 110.945 245.223 103.946 245.268 94.3672C245.326 80.0452 234.687 71.1547 217.661 71.1018L190.048 71.0024L189.803 134.883L204.57 134.927L204.634 117.127L218.21 117.179L230.434 135.022L246.296 135.064L232.059 114.488ZM216.697 105.394L204.674 105.356L204.771 83.0844L216.794 83.1225C217.547 83.1252 218.267 83.1701 218.936 83.2292C219.099 83.1398 219.267 83.0269 219.431 82.9376C219.547 82.5955 219.686 82.258 219.868 81.9532C220.39 81.1559 221.212 80.8072 222.125 80.9874C222.967 81.1537 223.674 81.7557 224.325 82.2737C224.47 82.1563 224.638 82.0435 224.839 82.0101C224.927 81.5651 225.057 81.1528 225.266 80.7074C225.602 79.9949 226.607 79.8283 227.215 80.1919C227.913 80.5974 228.06 81.4538 227.729 82.1429C227.236 83.1648 227.561 84.2268 227.25 85.3091C227.171 85.5856 227.008 85.7967 226.868 86.0124C229.163 87.9258 230.31 90.7319 230.295 94.2574C230.263 101.187 225.694 105.37 216.683 105.343L216.697 105.394Z" fill="#E83C38"/>
<path d="M309.406 76.8823C309.163 76.8829 308.892 76.9024 308.644 76.9265C308.467 76.9644 308.289 77.0023 308.107 77.0637C308.027 77.0967 307.948 77.1297 307.887 77.1907C307.635 77.3599 307.341 77.4965 306.999 77.5021C306.607 77.5218 306.256 77.3308 305.988 77.0834C305.721 76.836 305.561 76.415 305.579 76.0779C305.579 75.7127 305.727 75.3284 305.998 75.0655C306.059 75.0044 306.166 74.9527 306.227 74.8916C300.974 71.9561 294.746 70.2638 287.895 70.2494C267.76 70.1908 252.943 84.1777 252.863 103.168C252.787 122.134 267.496 136.257 287.655 136.321C307.716 136.389 322.617 122.467 322.688 103.402C322.734 92.2173 317.64 82.8156 309.402 76.9057L309.406 76.8823ZM287.717 123.703C276.325 123.668 267.787 115.338 267.826 103.203C267.866 91.067 276.475 82.7898 287.867 82.825C290.733 82.8313 293.418 83.386 295.824 84.3721C295.982 84.0627 296.136 83.7767 296.313 83.4953C296.724 82.8949 297.429 82.6449 298.103 82.924C298.665 83.1566 298.909 83.6429 298.947 84.1859C299.242 84.171 299.513 84.1516 299.808 84.1367C300.111 83.5882 300.409 83.063 300.688 82.5098C300.846 82.2004 301.005 81.8909 301.144 81.5535C301.223 81.3988 301.279 81.2394 301.358 81.0847C301.368 81.0379 301.377 80.991 301.414 80.9254C301.516 80.6536 301.619 80.3817 301.721 80.1099C301.739 80.0162 301.763 79.8991 301.781 79.8054C301.826 78.8409 303.03 77.9106 303.939 78.6011C304.787 79.2309 305.611 79.8561 306.454 80.5093C307.002 80.9339 307.462 81.8035 306.968 82.4602C306.735 82.7792 306.525 83.1028 306.334 83.4545C306.264 83.5624 306.213 83.6983 306.143 83.8061C306.134 83.853 306.129 83.8764 306.125 83.8998C306.111 83.9701 306.102 84.0169 306.064 84.0826C305.86 84.6262 305.725 85.1837 305.614 85.7459C305.351 87.0809 305.087 88.4159 304.594 89.6814C304.656 89.9855 304.638 90.3227 304.451 90.6509C304.372 90.8056 304.251 90.9277 304.111 91.0217C306.442 94.3536 307.803 98.5402 307.776 103.353C307.736 115.489 299.127 123.766 287.735 123.731L287.717 123.703Z" fill="#E83C38"/>
<path d="M389.061 96.6283C389.061 96.6283 388.907 96.5492 388.841 96.5119C388.392 96.2041 387.788 95.8171 387.497 95.3216C387.194 95.6267 386.914 95.9365 386.568 96.209C385.961 96.6975 385.139 96.8027 384.553 96.2003C384.047 95.6866 383.956 94.6709 384.562 94.1824C386.444 92.6557 387.496 90.5274 388.356 88.2637C385.579 77.8352 375.83 71.5782 361.572 71.5367L333.959 71.4372L333.714 135.317L348.481 135.362L348.545 117.562L362.121 117.614L374.345 135.457L390.207 135.499L375.97 114.923C383.744 111.615 388.43 105.24 389.043 96.6003L389.061 96.6283ZM360.627 105.857L348.604 105.819L348.701 83.5473L360.723 83.5854C369.758 83.6175 374.293 87.7254 374.267 94.753C374.235 101.682 369.666 105.866 360.655 105.839L360.627 105.857Z" fill="#E83C38"/>
<path d="M444.705 230.948L441.039 230.93C439.509 230.92 439.248 229.043 440.327 228.258C440.383 228.22 440.439 228.183 440.495 228.145C439.401 228.392 438.284 228.633 437.176 228.828C436.759 230.328 436.481 231.855 436.223 233.41L435.747 357.158L347.002 356.861C347.016 357.034 347.007 357.203 346.97 357.39C346.785 358.084 345.916 358.666 345.219 358.383C343.866 357.848 342.537 357.318 341.171 356.853L223.666 356.474C223.629 356.661 223.522 356.835 223.368 356.999C222.804 357.642 222.178 358.224 221.534 358.779C221.493 359.233 221.358 359.669 221.149 359.992C219.592 362.337 218.269 364.85 216.263 366.888C215.689 367.456 214.932 367.72 214.146 367.759C213.632 367.78 213.131 367.608 212.696 367.351C211.927 368.416 211.312 369.56 210.809 370.751L399.089 371.357C399.089 371.357 399.238 371.216 399.322 371.16C401.857 369.398 404.92 369.272 407.811 369.892C409.123 368.91 410.552 368.073 412.062 367.568C413.492 367.096 415.1 367.073 416.318 368.043C417.18 368.725 417.594 369.707 417.825 370.75C419.649 370.867 421.445 371.124 423.279 371.438L450.046 371.516L450.558 236.752C448.203 235.265 446.131 233.322 444.756 230.934L444.705 230.948Z" fill="#E83C38"/>
<path d="M243.847 14.8026C244.114 14.9283 244.385 15.0305 244.68 15.1374L262.239 15.1982C264.273 14.748 266.268 14.2417 268.245 13.8291C271.975 13.0326 275.832 12.4558 279.639 12.9887C281.955 13.3243 284.056 14.1286 285.995 15.2658L437.014 15.766L436.75 88.111C437.534 87.3411 439.218 87.6737 439.207 89.083C439.2 92.3182 439.371 95.6372 438.601 98.7948C438.221 100.35 437.56 101.728 436.707 102.971L436.235 226.087C437.717 225.844 439.184 225.55 440.661 225.209C441.439 223.732 442.413 222.124 444.063 221.647C445.147 221.325 446.214 221.585 447.243 222.031C448.082 220.859 448.734 219.527 449.19 218.449C449.772 216.982 450.315 215.337 450.601 213.642L450.614 208.656C450.571 208.38 450.501 208.122 450.43 207.865C450.284 207.374 450.386 206.98 450.614 206.685L451.091 77.2669C450.942 77.2861 450.797 77.2818 450.657 77.2541C448.921 76.9356 447.315 76.0831 446.685 74.3525C446.144 72.9073 446.524 71.2301 446.974 69.8103C447.532 68.0953 448.337 66.4779 449.007 64.8094C449.626 63.2767 450.272 61.6036 450.292 60.1475C450.3 59.492 450.673 59.079 451.173 58.8857L451.376 1.49473L233.637 0.78889C229.178 1.95254 224.686 2.91497 220.157 1.60678C219.652 1.45831 219.375 1.136 219.257 0.74772L111.203 0.385598C110.98 0.901201 110.443 1.28187 109.859 1.28811L104.177 1.26115C103.968 2.07168 103.596 2.84986 102.994 3.4367C102.887 3.73195 102.649 4.07436 102.378 4.21554C101.949 4.42269 101.556 4.68593 101.164 4.94916C100.417 5.40998 99.7073 5.92688 98.9414 6.35966C98.6658 6.52426 98.3761 6.6374 98.0394 6.61957C97.5297 6.61625 97.0755 6.33186 96.794 5.91125C96.5922 5.57937 96.5773 5.16273 96.6467 4.8114C96.6744 4.67087 96.7443 4.56301 96.8189 4.43171C95.9814 4.24199 95.1578 3.982 94.3577 3.72664C93.6042 3.48051 93.1911 2.74188 93.3672 1.97358C93.534 1.25213 94.412 0.744145 95.1186 0.981032C95.9843 1.27368 96.8547 1.5429 97.7435 1.71844C97.9541 1.76001 98.188 1.8062 98.3985 1.84778C98.3985 1.84778 98.4453 1.85702 98.4687 1.86164C98.4687 1.86164 98.4687 1.86164 98.4453 1.85702C98.5388 1.8755 98.6558 1.8986 98.754 1.89365C98.8008 1.90289 98.8242 1.90751 98.8709 1.91675C98.1831 1.7079 97.705 1.17545 97.2829 0.605385C97.2453 0.549303 97.2124 0.469797 97.1795 0.390293L34.6162 0.178189C34.8969 0.233622 35.1683 0.335898 35.3698 0.546044C35.9228 1.06894 35.9015 2.03815 35.3602 2.56397C34.7582 3.15081 34.0671 3.57402 33.3947 4.02527C33.3386 4.06288 33.25 4.14271 33.1985 4.15689C33.1985 4.15689 33.1985 4.15689 33.2219 4.16151C33.3386 4.06288 33.3854 4.07212 33.2219 4.16151C33.1052 4.26014 32.9839 4.3822 32.886 4.50887C32.8441 4.59794 32.7834 4.65897 32.7416 4.74804C32.7277 4.8183 32.667 4.87933 32.6298 4.94497C32.6205 4.99182 32.6113 5.03865 32.602 5.08549C32.2535 6.11175 31.0151 6.47557 30.2185 5.70987C30.2185 5.70987 30.1763 5.67721 30.1576 5.64917C30.1576 5.64917 30.1342 5.64455 30.1108 5.63993C30.0031 5.56999 29.872 5.49544 29.7643 5.4255C29.6098 5.34632 29.4787 5.27176 29.3242 5.19258C29.1947 5.84838 28.9295 6.45305 28.463 6.9693C28.099 7.33546 27.5942 7.43045 27.131 7.31464C26.6147 8.57544 25.9626 9.78511 25.0764 10.8268C24.1295 11.9296 22.9528 12.7193 21.6682 13.3173C21.6869 13.3454 21.7291 13.3781 21.7479 13.4061C21.9216 13.7568 22.044 14.1216 22.115 14.5007L115.135 14.814C115.135 14.814 115.223 14.7342 115.256 14.6919C115.793 14.1896 116.362 13.6449 117.035 13.3154C117.969 12.8915 118.914 12.9077 119.85 13.336C120.538 13.6666 121.133 14.2221 121.672 14.8153L242.113 15.2145C242.538 14.7873 243.14 14.5657 243.833 14.8728L243.847 14.8026Z" fill="#E83C38"/>
<path d="M14.4326 355.769L14.8664 243.061C14.4089 243.409 13.7918 243.457 13.2628 243.182C12.5793 242.828 12.3808 241.864 12.7488 241.231C13.2847 240.364 13.9887 239.383 14.8757 238.707L15.4245 90.5896C15.3587 90.4306 15.2929 90.2716 15.2551 90.0938C14.897 88.8307 14.7913 87.52 14.7837 86.2044C14.2925 86.1074 13.8013 86.0104 13.3242 85.9649C12.3375 85.916 11.7745 85.0748 11.9549 84.1613C12.4588 81.4866 13.7159 78.9363 15.4883 76.8529L15.7045 16.9337C15.5775 16.5922 15.4785 16.232 15.3795 15.8717C15.2852 15.4881 15.1674 15.0998 15.0497 14.7115C14.6099 14.6003 14.2305 14.3064 14.0937 13.7683C13.8957 13.0478 14.3381 12.1618 15.0953 12.0193C15.8291 11.8722 16.2216 11.7307 16.838 11.3171C17.1182 11.129 17.6687 10.5564 17.8738 10.2562C18.4704 9.32758 18.805 8.37158 19.0458 7.27538C18.8154 6.71885 18.6131 6.14352 18.6118 5.53488C18.6053 4.70621 18.9217 3.96563 19.2848 3.23429C19.3733 3.03273 19.5226 2.89188 19.6907 2.77907C19.7729 1.87056 19.8785 0.966671 20.0075 0.0674063L1.42877 0L0.399533 273.86C0.941625 273.699 1.54054 273.866 1.84594 274.535C2.67268 276.255 3.46269 278.285 2.81685 280.202C2.69143 280.591 2.50047 280.942 2.26735 281.261C2.63778 281.724 2.79357 282.412 2.42989 282.9C1.47402 284.171 0.985981 285.535 0.938002 287.131C0.917776 288.587 1.14534 290.019 1.3215 291.466C1.62623 293.984 1.46776 296.386 0.279833 298.463L0 370.026L3.93274 370.049C6.21885 369.794 8.49571 369.587 10.7731 369.623C10.7911 369.286 10.8792 368.963 11.1686 368.728C11.8035 368.22 12.5132 367.704 13.3071 367.252C13.3066 367.008 13.3341 366.746 13.4552 366.502C14.2095 365.021 15.3381 363.613 16.861 362.916C18.2017 362.281 19.7072 362.164 21.1577 362.573C23.9698 363.347 26.0558 365.706 27.1651 368.334C31.1908 368.131 35.6135 367.642 38.8783 370.185L189.851 370.676C189.995 370.315 190.115 369.949 190.306 369.598C191.242 367.811 192.764 366.384 194.478 365.335C195.029 365.006 195.684 365.135 196.138 365.542C196.199 365.481 196.264 365.396 196.348 365.34C196.96 364.949 197.957 365.195 198.309 365.873C198.45 366.144 198.59 366.415 198.755 366.691C198.806 366.799 198.886 366.887 198.961 366.999C199.078 367.144 199.2 367.266 199.345 367.392C199.345 367.392 199.388 367.424 199.43 367.457C199.453 367.462 199.495 367.494 199.491 367.518C199.641 367.62 199.786 367.746 199.936 367.849C199.806 366.412 199.953 364.932 200.693 363.643C201.537 362.203 203.012 361.253 204.62 360.865C204.3 360.023 204.705 358.838 205.892 358.853C207.496 358.854 207.679 361.007 206.52 361.581C206.553 361.661 206.614 361.721 206.647 361.801C206.873 362.502 206.379 363.403 205.645 363.55C205.444 363.583 205.239 363.64 205.056 363.701C204.954 363.73 204.846 363.781 204.743 363.81C204.818 363.8 204.814 363.823 204.613 363.857C204.557 363.894 204.482 363.904 204.426 363.942C204.29 364.012 204.127 364.102 204.01 364.2C204.01 364.2 203.954 364.238 203.949 364.261C203.954 364.238 203.982 364.219 204.038 364.181C203.982 364.219 203.921 364.28 203.865 364.318C203.749 364.416 203.655 364.52 203.562 364.623C203.529 364.665 203.473 364.703 203.441 364.745C203.371 364.853 203.273 364.979 203.226 365.092C203.838 364.58 204.468 364.096 205.164 363.771C205.617 363.569 206.108 363.422 206.589 363.323C208.235 361.019 209.815 358.679 211.391 356.362L14.4185 355.718L14.4326 355.769Z" fill="#E83C38"/>
</svg>
