<svg width="51" height="51" viewBox="0 0 51 51" fill="none" xmlns="http://www.w3.org/2000/svg">
<g clip-path="url(#clip0)">
<path d="M36.5049 39.1831C35.9658 39.1831 35.5283 39.6206 35.5283 40.1597C35.5283 40.6987 35.9658 41.1362 36.5049 41.1362C37.0439 41.1362 37.4814 40.6987 37.4814 40.1597C37.4814 39.6206 37.0439 39.1831 36.5049 39.1831Z" fill="white"/>
<path d="M38.9094 36.0252L34.2678 34.4783L32.6015 31.1456C34.1026 29.6177 35.1449 27.596 35.4964 25.4873L35.7042 24.2417H37.4814C39.0969 24.2417 40.4111 22.9274 40.4111 21.312V15.1597C40.4111 7.08252 33.8398 0.51123 25.7627 0.51123C17.6648 0.51123 11.1143 7.06367 11.1143 15.1597V21.312C11.1143 22.5851 11.9308 23.6706 13.0674 24.0737V25.2183C13.0674 26.8337 14.3816 28.1479 15.9971 28.1479H16.8547C17.278 29.0676 17.826 29.9193 18.4928 30.6845C18.6311 30.8435 18.7753 30.9976 18.923 31.1475L17.2576 34.4783L12.6159 36.0253C7.21895 37.8249 3.30176 43.5064 3.30176 49.5347C3.30176 50.074 3.73896 50.5112 4.27832 50.5112H47.2471C47.7863 50.5112 48.2236 50.074 48.2236 49.5347C48.2236 43.5064 44.3065 37.8249 38.9094 36.0252ZM38.458 21.312C38.458 21.8505 38.0199 22.2886 37.4814 22.2886H35.991C36.2393 20.3657 36.4047 18.3195 36.4712 16.3042C36.4731 16.2474 36.4747 16.1921 36.4765 16.1362H38.458V21.312ZM14.0439 22.2886C13.5055 22.2886 13.0674 21.8505 13.0674 21.312V16.1362H15.0496C15.0528 16.2381 15.0562 16.3404 15.0601 16.4435C15.0602 16.447 15.0604 16.4504 15.0604 16.4539C15.0604 16.4542 15.0604 16.4545 15.0604 16.4548C15.1288 18.4149 15.2921 20.408 15.5347 22.2885H14.0439V22.2886ZM15.9971 26.1948C15.4586 26.1948 15.0205 25.7567 15.0205 25.2183V24.2417H15.8211L16.0289 25.4877C16.0686 25.7245 16.1173 25.9604 16.1736 26.1948H15.9971ZM15.0222 14.1831H13.1045C13.5991 7.63809 19.0612 2.46436 25.7627 2.46436C32.4344 2.46436 37.9205 7.6374 38.4208 14.1831H36.5033C36.433 8.78984 32.0411 4.41748 26.6368 4.41748H24.8888C19.4846 4.41748 15.0924 8.78984 15.0222 14.1831ZM24.8887 6.37061H26.6367C31.0126 6.37061 34.5543 9.94981 34.5518 14.3208C34.5518 14.6281 34.5493 14.8957 34.5441 15.1392C34.5441 15.1423 34.544 15.1455 34.544 15.1487L33.3226 14.9742C30.0042 14.5004 26.871 12.9338 24.5001 10.5629C24.3169 10.3798 24.0686 10.2769 23.8096 10.2769C21.1869 10.2769 18.6764 11.4718 17.0168 13.4905C17.4258 9.51406 20.7874 6.37061 24.8887 6.37061ZM18.1982 26.1948C17.7094 24.5686 17.15 19.7834 17.0264 16.717L18.3407 14.9645C19.5479 13.3555 21.4259 12.3558 23.4236 12.241C26.0522 14.7426 29.4528 16.3945 33.0464 16.9076L34.4841 17.1131C34.388 19.1526 34.1916 21.1993 33.9103 23.0816C33.9102 23.0822 33.9101 23.0829 33.91 23.0836C33.8205 23.6888 33.75 24.0782 33.5699 25.166C33.0527 28.2681 30.7381 31.0732 27.6825 31.8372C26.425 32.1512 25.1002 32.1511 23.8434 31.8372C21.9354 31.3603 20.186 30.0401 19.057 28.1479H21.0479C21.451 29.2846 22.5364 30.1011 23.8096 30.1011H25.7627C27.3813 30.1011 28.6924 28.7901 28.6924 27.1714C28.6924 25.556 27.3781 24.2417 25.7627 24.2417H23.8096C22.5081 24.2417 21.4387 25.0823 21.0462 26.1948H18.1982ZM23.7274 33.8136C24.3973 33.9547 25.0802 34.0269 25.7627 34.0269C26.297 34.0269 26.8313 33.9821 27.3597 33.8954L25.6341 35.7203L23.7274 33.8136ZM24.2915 37.14L21.194 40.4156C20.3413 38.7834 19.6086 37.0847 19.0076 35.3456L20.1708 33.0192L24.2915 37.14ZM31.1891 32.6884L32.5176 35.3455C31.9156 37.0875 31.1827 38.7868 30.3309 40.4171L27.0156 37.1019L31.1891 32.6884ZM22.833 27.1714C22.833 26.6322 23.2703 26.1948 23.8096 26.1948H25.7627C26.3012 26.1948 26.7393 26.6329 26.7393 27.1714C26.7393 27.7106 26.3019 28.1479 25.7627 28.1479H23.8096C23.2711 28.1479 22.833 27.7099 22.833 27.1714ZM5.29395 48.5581C5.68096 43.7203 8.90059 39.323 13.2336 37.8781L17.3443 36.5082C18.0975 38.5907 19.0305 40.6148 20.1239 42.5375C20.1258 42.5408 20.1275 42.5441 20.1294 42.5474C20.1294 42.5475 20.1295 42.5475 20.1295 42.5476C20.9284 43.9527 21.8276 45.3259 22.8025 46.6295L24.0039 48.5581H5.29395ZM25.7627 47.6876L24.4383 45.5613C24.4234 45.5375 24.4076 45.5144 24.3908 45.4919C23.6 44.437 22.8623 43.3338 22.1904 42.2046L25.6731 38.5216L29.3429 42.1913C28.6665 43.3287 27.9263 44.4365 27.1348 45.4917C27.0869 45.5555 27.1548 45.455 25.7627 47.6876ZM27.5215 48.5581L28.7228 46.6296C29.702 45.321 30.6076 43.9368 31.4146 42.5151C31.4194 42.5065 31.424 42.4978 31.4289 42.4892C31.4295 42.4881 31.4301 42.4871 31.4307 42.486C32.5103 40.5817 33.4335 38.5752 34.1811 36.5082L38.2917 37.8781C42.6248 39.323 45.8444 43.7203 46.2314 48.5581H27.5215Z" fill="white"/>
<path d="M43.2966 44.606C42.6439 43.2996 41.688 42.1391 40.532 41.2498C40.1045 40.9208 39.4914 41.0008 39.1626 41.4283C38.8337 41.8559 38.9137 42.4689 39.3411 42.7979C40.2643 43.5081 41.0278 44.4352 41.5492 45.4788C41.7907 45.9621 42.3776 46.1566 42.8593 45.916C43.3417 45.675 43.5375 45.0885 43.2966 44.606Z" fill="white"/>
</g>
<defs>
<clipPath id="clip0">
<rect width="50" height="50" fill="white" transform="translate(0.762695 0.51123)"/>
</clipPath>
</defs>
</svg>
