<svg width="49" height="50" viewBox="0 0 49 50" fill="none" xmlns="http://www.w3.org/2000/svg">
<g clip-path="url(#clip0)">
<path d="M39.7627 34.0757C39.2452 34.0757 38.8252 34.5044 38.8252 35.0327C38.8252 35.561 39.2452 35.9897 39.7627 35.9897C40.2802 35.9897 40.7002 35.561 40.7002 35.0327C40.7002 34.5044 40.2802 34.0757 39.7627 34.0757Z" fill="white"/>
<path d="M24.7627 34.0757C24.2452 34.0757 23.8252 34.5044 23.8252 35.0327C23.8252 35.561 24.2452 35.9897 24.7627 35.9897C25.2802 35.9897 25.7002 35.561 25.7002 35.0327C25.7002 34.5044 25.2802 34.0757 24.7627 34.0757Z" fill="white"/>
<path d="M7.8877 10.5327C7.3702 10.5327 6.9502 10.9615 6.9502 11.4897C6.9502 12.018 7.3702 12.4468 7.8877 12.4468C8.4052 12.4468 8.8252 12.018 8.8252 11.4897C8.8252 10.9615 8.4052 10.5327 7.8877 10.5327Z" fill="white"/>
<path d="M43.3949 29.2295C41.8599 26.5928 39.9607 24.5154 37.9026 23.1859C37.9361 23.1548 37.969 23.1229 38.0012 23.0901C38.5326 22.5476 38.8252 21.8266 38.8252 21.0601C38.8252 20.6864 38.7541 20.3296 38.6264 20.0019C39.8199 19.6698 40.7002 18.5541 40.7002 17.2319C40.7002 16.5183 40.4463 15.8443 39.9825 15.317C40.4284 14.8087 40.7002 14.1381 40.7002 13.4038C40.7002 12.6905 40.4466 12.017 39.9833 11.4897C40.4466 10.9625 40.7002 10.289 40.7002 9.57568C40.7002 7.99256 39.4385 6.70459 37.8877 6.70459H35.7809L36.9269 1.55729C36.9901 1.27344 36.9233 0.975609 36.7454 0.748123C36.5675 0.520637 36.2979 0.388184 36.0127 0.388184H28.5127C28.2275 0.388184 27.9579 0.520732 27.78 0.748219C27.6021 0.975705 27.5354 1.27353 27.5985 1.55748L27.9329 3.05945L25.7329 4.18243C24.7206 4.69913 23.8015 5.37537 23.0011 6.19248C21.6916 7.52907 20.013 8.35049 18.2002 8.56209V7.66162C18.2002 7.13305 17.7805 6.70459 17.2627 6.70459H4.1377C3.61991 6.70459 3.2002 7.13305 3.2002 7.66162V22.9741C3.2002 23.5027 3.61991 23.9312 4.1377 23.9312H17.2627C17.7805 23.9312 18.2002 23.5027 18.2002 22.9741V22.0171H18.5452C20.0813 22.0171 21.5994 22.2685 23.0569 22.7641C24.0462 23.1011 25.0559 23.3658 26.0789 23.5575C24.2306 24.8889 22.5293 26.8268 21.1306 29.2295C19.2957 32.3814 18.2002 35.9819 18.2002 38.8608C18.2002 42.0794 19.5554 44.7688 22.1191 46.6383C24.5862 48.4373 28.0937 49.3882 32.2627 49.3882C36.4317 49.3882 39.9392 48.4373 42.4062 46.6383C44.97 44.7688 46.3252 42.0794 46.3252 38.8608C46.3252 35.9818 45.2297 32.3814 43.3949 29.2295ZM16.3252 10.5327H11.6377C11.1199 10.5327 10.7002 10.9612 10.7002 11.4897C10.7002 12.0183 11.1199 12.4468 11.6377 12.4468H16.3252V22.0171H5.0752V8.61865H16.3252V10.5327ZM34.8383 2.30225L33.8581 6.70459H30.6674L29.6873 2.30225H34.8383ZM23.65 20.9484C22.0005 20.3875 20.283 20.103 18.5452 20.103H18.2002V10.4881C20.5149 10.2697 22.6628 9.24465 24.3269 7.54592C24.9846 6.87456 25.7397 6.31891 26.5713 5.89437L28.3607 4.98107L28.7444 6.70459H28.5127C27.995 6.70459 27.5752 7.13305 27.5752 7.66162C27.5752 8.19019 27.995 8.61865 28.5127 8.61865C30.5709 8.61865 35.8542 8.61865 37.8877 8.61865C38.4046 8.61865 38.8252 9.04798 38.8252 9.57568C38.8252 9.83102 38.7276 10.0713 38.5504 10.2521C38.3732 10.4331 38.1378 10.5327 37.8877 10.5327H34.1377C33.62 10.5327 33.2002 10.9612 33.2002 11.4897C33.2002 12.0183 33.62 12.4468 34.1377 12.4468H37.8877C38.4053 12.4468 38.8252 12.8754 38.8252 13.4038C38.8252 13.9315 38.4046 14.3608 37.8877 14.3608H34.1377C33.62 14.3608 33.2002 14.7893 33.2002 15.3179C33.2002 15.8464 33.62 16.2749 34.1377 16.2749H37.8877C38.4053 16.2749 38.8252 16.7036 38.8252 17.2319C38.8252 17.7596 38.4046 18.189 37.8877 18.189C36.5761 18.189 35.4493 18.189 34.1377 18.189C33.62 18.189 33.2002 18.6174 33.2002 19.146C33.2002 19.6746 33.62 20.103 34.1377 20.103H36.0127C36.5296 20.103 36.9502 20.5324 36.9502 21.0601C36.9502 21.5885 36.5303 22.0171 36.0127 22.0171H30.0989C29.8045 22.0171 29.4988 22.01 29.1898 21.996C27.3047 21.9109 25.4411 21.5585 23.65 20.9484ZM41.3163 45.0809C39.1693 46.6466 36.0385 47.4741 32.2627 47.4741C28.4869 47.4741 25.3561 46.6466 23.209 45.0809C21.1589 43.5859 20.0752 41.4351 20.0752 38.8608C20.0752 36.3111 21.0723 33.0763 22.7424 30.2074C24.5649 27.0769 26.9092 24.8485 29.3546 23.9167C29.6065 23.9253 29.8565 23.9312 30.0989 23.9312H35.2085C37.6404 24.8714 39.9699 27.093 41.783 30.2074C43.4531 33.0762 44.4502 36.3111 44.4502 38.8608C44.4502 41.4351 43.3665 43.5859 41.3163 45.0809Z" fill="white"/>
<path d="M32.7481 34.2552C31.3506 33.5011 30.4346 32.9527 30.4346 32.2296C30.4346 31.1742 31.2757 30.3156 32.3096 30.3156C33.3434 30.3156 34.1846 31.1742 34.1846 32.2296C34.1846 32.7582 34.6044 33.1866 35.1221 33.1866C35.6398 33.1866 36.0596 32.7582 36.0596 32.2296C36.0596 30.4492 34.8627 28.9487 33.2471 28.5227V27.4445C33.2471 26.9159 32.8273 26.4874 32.3096 26.4874C31.7919 26.4874 31.3721 26.9159 31.3721 27.4445V28.5227C29.7565 28.9487 28.5596 30.4492 28.5596 32.2296C28.5596 34.16 30.3194 35.1096 31.8719 35.9474C33.2688 36.7012 34.1846 37.2493 34.1846 37.9718C34.1846 39.0272 33.3434 39.8859 32.3096 39.8859C31.2757 39.8859 30.4346 39.0272 30.4346 37.9718C30.4346 37.4432 30.0148 37.0148 29.4971 37.0148C28.9794 37.0148 28.5596 37.4432 28.5596 37.9718C28.5596 39.7523 29.7565 41.2527 31.3721 41.6788V42.757C31.3721 43.2855 31.7919 43.714 32.3096 43.714C32.8273 43.714 33.2471 43.2855 33.2471 42.757V41.6788C34.8627 41.2527 36.0596 39.7523 36.0596 37.9718C36.0596 36.042 34.3003 35.0928 32.7481 34.2552Z" fill="white"/>
</g>
<defs>
<clipPath id="clip0">
<rect width="48" height="49" fill="white" transform="translate(0.762695 0.388184)"/>
</clipPath>
</defs>
</svg>
