<svg width="50" height="50" viewBox="0 0 50 50" fill="none" xmlns="http://www.w3.org/2000/svg">
<g clip-path="url(#clip0)">
<path d="M15.6104 35.6458C15.0821 35.6458 14.6533 36.0745 14.6533 36.6028C14.6533 37.1311 15.0821 37.5598 15.6104 37.5598C16.1386 37.5598 16.5674 37.1311 16.5674 36.6028C16.5674 36.0745 16.1386 35.6458 15.6104 35.6458Z" fill="white"/>
<path d="M43.7608 18.4198L49.4005 12.7801C49.6377 12.5429 49.7333 12.1987 49.6527 11.8732C49.572 11.5475 49.3266 11.2879 49.006 11.189L35.2726 6.95028C34.0346 2.97085 30.355 0.236328 26.1376 0.236328C22.2173 0.236328 18.7111 2.62556 17.2599 6.22974L1.35273 11.1898C1.03299 11.2896 0.788565 11.5493 0.708462 11.8746C0.628358 12.1998 0.724061 12.5434 0.960926 12.7802L6.74896 18.5683L3.09846 24.6526C2.94906 24.9015 2.92083 25.2048 3.02151 25.4771C3.12219 25.7493 3.34106 25.9611 3.6165 26.0529L8.91108 27.8177V42.537C8.91108 42.9359 9.15857 43.293 9.5321 43.4331C12.7694 44.647 24.7979 49.1582 24.8625 49.1811C25.0524 49.248 25.2663 49.2571 25.4748 49.1896C25.4776 49.1887 25.4804 49.1881 25.4832 49.1871L42.7098 43.4449C43.1005 43.3147 43.3642 42.9489 43.3642 42.537V27.4236L49.0105 25.6492C49.3298 25.5489 49.5734 25.2892 49.6531 24.9642C49.7328 24.6392 49.637 24.2962 49.4004 24.0595L43.7608 18.4198ZM35.708 9.80664C35.708 9.56346 35.6977 9.32085 35.6794 9.07901L46.924 12.5497L42.1487 17.3249L34.3462 14.7243C35.2297 13.2475 35.708 11.5435 35.708 9.80664ZM18.8955 7.31568C19.9579 4.22619 22.8683 2.15039 26.1376 2.15039C29.6596 2.15039 32.7143 4.53263 33.5659 7.94349C33.7172 8.54958 33.7939 9.17643 33.7939 9.80664C33.7939 11.5842 33.204 13.2503 32.0877 14.6255C30.6256 16.4287 28.4569 17.4629 26.1376 17.4629C23.6306 17.4629 21.2791 16.2323 19.8468 14.1703C18.9536 12.8873 18.4814 11.3783 18.4814 9.80664C18.4814 8.95191 18.6206 8.11384 18.8955 7.31568ZM3.43351 12.5459L16.6693 8.41885C16.6028 8.87612 16.5673 9.33932 16.5673 9.80654C16.5673 11.3475 16.9323 12.8399 17.6281 14.1866L8.21254 17.3249L3.43351 12.5459ZM5.3536 24.6143L8.37974 19.5706L23.7461 24.6927L20.7201 29.7364C19.0793 29.1895 7.10555 25.1982 5.3536 24.6143ZM24.2236 46.8983L10.8251 41.8739V28.4557C21.3668 31.951 20.8521 31.8443 21.1456 31.8443C21.4746 31.8443 21.7897 31.674 21.9664 31.3796L24.2236 27.6174V46.8983ZM25.1806 23.1533L10.9806 18.42L18.7128 15.8427C20.5225 18.0675 23.2469 19.3769 26.1376 19.3769C28.8118 19.3769 31.325 18.2765 33.1328 16.3375L39.3807 18.4199L25.1806 23.1533ZM41.4501 41.8473L26.1376 46.9514V26.8901L29.5304 31.1307C29.7772 31.4392 30.1881 31.5642 30.5647 31.4459L41.4501 28.0252V41.8473ZM30.6158 29.4236L26.7854 24.6359L42.1487 19.5149L46.9304 24.2966L30.6158 29.4236Z" fill="white"/>
<path d="M21.6884 37.77L19.56 36.9718C19.0651 36.7863 18.5135 37.037 18.3278 37.5318C18.1422 38.0268 18.393 38.5785 18.8878 38.764L21.0163 39.5622C21.5122 39.748 22.0632 39.4961 22.2485 39.0021C22.434 38.5072 22.1833 37.9555 21.6884 37.77Z" fill="white"/>
<path d="M21.6884 41.8583L15.9462 39.705C15.4514 39.5194 14.8997 39.7702 14.7141 40.265C14.5284 40.7599 14.7792 41.3116 15.2741 41.4972L21.0163 43.6505C21.127 43.6921 21.2405 43.7118 21.3522 43.7118C21.7397 43.7118 22.1043 43.4747 22.2485 43.0905C22.4341 42.5955 22.1834 42.0439 21.6884 41.8583Z" fill="white"/>
<path d="M31.5993 6.25799C31.2256 5.88417 30.6196 5.88427 30.2458 6.25799L25.1803 11.3236L23.9429 10.0862C23.5692 9.71249 22.9632 9.71249 22.5894 10.0862C22.2156 10.4599 22.2157 11.0659 22.5894 11.4397L24.5036 13.3537C24.8773 13.7274 25.4833 13.7274 25.8571 13.3537L31.5993 7.61152C31.973 7.2378 31.973 6.6318 31.5993 6.25799Z" fill="white"/>
</g>
<defs>
<clipPath id="clip0">
<rect width="49" height="49" fill="white" transform="translate(0.680664 0.235352)"/>
</clipPath>
</defs>
</svg>
