<svg width="62" height="12" fill="none" xmlns="http://www.w3.org/2000/svg"><g clip-path="url(#clip0)"><path d="M61.983 5.122a.345.345 0 00-.284-.22l-3.72-.495-1.664-3.09a.356.356 0 00-.315-.18.356.356 0 00-.315.18l-1.664 3.09-3.72.495a.345.345 0 00-.284.22.304.304 0 00.09.33l2.69 2.405-.634 3.397a.31.31 0 00.14.315.379.379 0 00.37.024L56 9.99l3.327 1.603a.377.377 0 00.37-.024.31.31 0 00.14-.315l-.635-3.397 2.692-2.405a.304.304 0 00.089-.33zm-3.404 2.392a.306.306 0 00-.102.285l.547 2.92-2.86-1.378a.38.38 0 00-.328 0l-2.86 1.378.546-2.92a.306.306 0 00-.1-.285l-2.315-2.068 3.198-.426a.35.35 0 00.265-.176L56 2.188l1.43 2.656a.35.35 0 00.265.176l3.198.426-2.314 2.068z" fill="#CCA75D"/></g><path d="M10.056 5.237a.293.293 0 00-.237-.2l-3.1-.45-1.386-2.81a.293.293 0 00-.525 0L3.42 4.588l-3.1.45a.293.293 0 00-.162.5l2.243 2.186-.53 3.088a.293.293 0 00.426.309L5.07 9.662l2.773 1.458a.293.293 0 00.425-.309l-.53-3.088 2.244-2.186a.293.293 0 00.074-.3zm12.482 0a.293.293 0 00-.236-.2l-3.1-.45-1.387-2.81a.293.293 0 00-.525 0l-1.386 2.81-3.1.45a.293.293 0 00-.163.5l2.243 2.186-.53 3.088a.293.293 0 00.426.309l2.773-1.458 2.772 1.458a.293.293 0 00.425-.309l-.53-3.088 2.244-2.186a.293.293 0 00.074-.3zm12.482 0a.293.293 0 00-.236-.2l-3.1-.45-1.386-2.81a.293.293 0 00-.525 0l-1.387 2.81-3.1.45a.293.293 0 00-.162.5l2.243 2.186-.53 3.088a.293.293 0 00.425.309l2.773-1.458 2.773 1.458a.293.293 0 00.425-.309l-.53-3.088 2.244-2.186a.293.293 0 00.074-.3zm12.483 0a.293.293 0 00-.236-.2l-3.1-.45-1.387-2.81a.293.293 0 00-.525 0l-1.387 2.81-3.1.45a.293.293 0 00-.162.5l2.243 2.186-.53 3.088a.293.293 0 00.426.309l2.773-1.458 2.772 1.458a.293.293 0 00.425-.309l-.53-3.088 2.244-2.186a.293.293 0 00.074-.3z" fill="#CCA75D"/><defs><clipPath id="clip0"><path fill="#fff" transform="translate(50 .884)" d="M0 0h12v11H0z"/></clipPath></defs></svg>