<svg width="197" height="143" fill="none" xmlns="http://www.w3.org/2000/svg"><mask id="a" maskUnits="userSpaceOnUse" x="0" y="0" width="197" height="143"><path transform="rotate(-180 196.216 142.353)" fill="#C4C4C4" d="M196.216 142.353h196.216v142.353H196.216z"/></mask><g mask="url(#a)" stroke="#DCDCDC"><path d="M196.491 142.628c-12.092-7.145-49.339-19.06-67.054-16.764-29.68 3.848-54.963 18.688-67.604 24.733"/><path d="M196.766 132.735c-12.092-7.146-49.281-18.554-67.054-16.764-38.2 3.847-67.88 26.657-80.52 32.703"/><path d="M196.766 122.017c-12.092-7.145-49.281-18.554-67.054-16.764-38.2 3.848-88.215 38.474-100.857 44.52"/><path d="M196.766 110.749c-12.092-7.145-48.939-16.023-66.78-15.114-43.145 2.198-85.192 40.947-126.413 54.138"/><path d="M194.018 101.131c-12.092-7.145-41.222-16.827-64.032-15.664C85.466 87.735 54.138 123.94 0 139.33"/><path d="M194.018 91.513c-12.092-7.145-41.222-16.827-64.032-15.665C85.466 78.117 54.138 114.322 0 129.712"/><path d="M194.018 80.52c-12.092-7.145-41.222-16.826-64.032-15.664C85.466 67.124 54.138 103.33 0 118.719"/><path d="M194.018 70.077c-12.092-7.145-41.222-16.826-64.032-15.664C85.466 56.682 54.138 92.887 0 108.276"/><path d="M194.018 59.634c-12.092-7.145-41.222-16.826-64.032-15.664C85.466 46.24 54.138 82.444 0 97.833"/><path d="M194.018 49.192c-12.092-7.145-41.222-16.827-64.032-15.665C85.466 35.796 54.138 72.001 0 87.391"/><path d="M194.018 39.848c-12.092-7.145-41.222-16.827-64.032-15.664C85.466 26.452 54.138 62.657 0 78.047"/><path d="M194.018 29.954c-12.092-7.145-41.222-16.826-64.032-15.664C85.466 16.56 54.138 52.764 0 68.153"/><path d="M194.018 20.061c-12.092-7.145-41.222-16.826-64.032-15.664C85.466 6.665 54.138 42.87 0 58.26"/><path d="M194.018 9.069c-12.092-7.145-41.222-16.827-64.032-15.664C85.466-4.327 54.138 31.878 0 47.268"/><path d="M194.018-1.374c-12.092-7.145-41.222-16.827-64.032-15.665C85.466-14.77 54.138 21.435 0 36.825"/><path d="M194.018-11.817c-12.092-7.145-41.222-16.826-64.032-15.664C85.466-25.213 54.138 10.993 0 26.382"/><path d="M194.018-23.909c-12.092-7.145-41.222-16.826-64.032-15.664C85.466-37.304 54.138-1.099 0 14.29m196.216 138.781c-12.091-7.145-49.339-19.06-67.054-16.764-29.68 3.848-54.963 18.687-67.604 24.733"/></g></svg>