<svg width="98" height="109" viewBox="0 0 98 109" fill="none" xmlns="http://www.w3.org/2000/svg">
<path d="M20.6637 64.2872V59.3935L5.98285 42.2659L1.52964 34.7542C-0.0363158 30.8637 1.99455 24.0127 5.98285 22.6914L13.3233 34.9254L23.1105 44.7127C25.1012 46.327 27.5946 47.1928 30.1573 47.1595H35.6382C38.2016 47.197 40.6964 46.3307 42.685 44.7127L52.4722 34.9254L59.8126 22.6914C63.8009 24.0127 65.8318 30.8637 64.2903 34.7542L59.8126 42.2659L45.1318 59.3935V83.8616" stroke="#0D369C" stroke-width="2" stroke-miterlimit="10"/>
<path d="M32.8956 22.6909C33.8688 22.6567 34.8386 22.8232 35.7446 23.18C36.6507 23.5368 37.4735 24.0763 38.1621 24.7648C38.8506 25.4534 39.3902 26.2763 39.747 27.1823C40.1038 28.0884 40.2702 29.0582 40.2361 30.0313V32.4781C40.2361 34.4249 39.4627 36.292 38.0861 37.6686C36.7095 39.0452 34.8424 39.8186 32.8956 39.8186C30.9488 39.8186 29.0817 39.0452 27.7051 37.6686C26.3285 36.292 25.5552 34.4249 25.5552 32.4781V30.0313C25.5246 29.0591 25.6936 28.0909 26.0517 27.1865C26.4098 26.2821 26.9493 25.4607 27.6371 24.7728C28.3249 24.085 29.1464 23.5454 30.0508 23.1874C30.9552 22.8293 31.9234 22.6603 32.8956 22.6909V22.6909Z" stroke="#0D369C" stroke-width="2" stroke-miterlimit="10"/>
<path d="M64.7042 79.1135C63.7319 79.1441 62.7638 78.9751 61.8594 78.617C60.955 78.2589 60.1334 77.7194 59.4456 77.0315C58.7578 76.3437 58.2183 75.5223 57.8602 74.6179C57.5022 73.7135 57.3332 72.7453 57.3637 71.7731V69.3263C57.3637 67.3795 58.1371 65.5124 59.5137 64.1358C60.8903 62.7592 62.7574 61.9858 64.7042 61.9858C66.651 61.9858 68.518 62.7592 69.8946 64.1358C71.2712 65.5124 72.0446 67.3795 72.0446 69.3263V71.7731C72.0788 72.7462 71.9123 73.716 71.5555 74.6221C71.1987 75.5281 70.6592 76.351 69.9706 77.0396C69.2821 77.7281 68.4592 78.2676 67.5532 78.6244C66.6471 78.9812 65.6773 79.1477 64.7042 79.1135V79.1135Z" stroke="#0D369C" stroke-width="2" stroke-miterlimit="10"/>
<path d="M50.1226 108.33V96.0957C50.1226 87.9967 58.7598 86.3084 64.8034 86.3084H67.5439C70.0168 85.9071 72.4011 85.0792 74.5906 83.8616L84.3779 78.968L91.7183 61.8403C95.7066 63.1616 97.7375 72.4595 96.196 76.3499L91.7183 86.3084L77.0375 98.5425V108.33" stroke="#0D369C" stroke-width="2" stroke-miterlimit="10"/>
<path d="M25.5552 86.4538C26.5284 86.488 27.4982 86.3215 28.4042 85.9647C29.3103 85.6079 30.1331 85.0685 30.8217 84.3799C31.5102 83.6914 32.0498 82.8684 32.4066 81.9624C32.7634 81.0564 32.9298 80.0866 32.8957 79.1134V76.6666C32.8957 74.7198 32.1223 72.8527 30.7457 71.4761C29.3691 70.0995 27.502 69.3262 25.5552 69.3262C23.6084 69.3262 21.7413 70.0995 20.3647 71.4761C18.9881 72.8527 18.2148 74.7198 18.2148 76.6666V79.1134C18.1843 80.0856 18.3532 81.0538 18.7113 81.9582C19.0694 82.8626 19.6089 83.6841 20.2967 84.3719C20.9845 85.0597 21.806 85.5993 22.7104 85.9574C23.6148 86.3154 24.583 86.4844 25.5552 86.4538V86.4538Z" stroke="#0D369C" stroke-width="2" stroke-miterlimit="10"/>
<path d="M10.8757 108.329V103.436C10.8757 95.3367 19.6108 93.6484 25.5565 93.6484C31.5023 93.6484 40.2374 95.3367 40.2374 103.436V108.329" stroke="#0D369C" stroke-width="2" stroke-miterlimit="10"/>
<path d="M32.8969 12.904V0.669922" stroke="#0D369C" stroke-width="2" stroke-miterlimit="10"/>
<path d="M42.7821 15.3507L50.1225 8.01025" stroke="#0D369C" stroke-width="2" stroke-miterlimit="10"/>
<path d="M23.2077 15.3507L15.8672 8.01025" stroke="#0D369C" stroke-width="2" stroke-miterlimit="10"/>
</svg>
