<svg width="108" height="108" viewBox="0 0 108 108" fill="none" xmlns="http://www.w3.org/2000/svg">
<path d="M40.1489 80.1914C61.7703 80.1914 79.2979 62.6639 79.2979 41.0425C79.2979 19.4211 61.7703 1.89355 40.1489 1.89355C18.5276 1.89355 1 19.4211 1 41.0425C1 62.6639 18.5276 80.1914 40.1489 80.1914Z" stroke="#0D369C" stroke-width="2" stroke-miterlimit="10"/>
<path d="M69.5107 80.1915L94.517 105.076C95.829 106.303 97.5666 106.972 99.3629 106.942C101.159 106.912 102.873 106.185 104.144 104.915C105.414 103.645 106.141 101.93 106.171 100.134C106.201 98.3379 105.532 96.6003 104.304 95.2883L79.2979 70.4043" stroke="#0D369C" stroke-width="2" stroke-miterlimit="10"/>
<path d="M49.9362 44.8584C47.1556 42.5967 43.7283 41.2772 40.1489 41.0903V41.0903C36.5703 41.2806 33.1439 42.5997 30.3617 44.8584" stroke="#0D369C" stroke-width="2" stroke-miterlimit="10"/>
<path d="M40.1489 41.0419C41.1913 40.9999 42.2142 40.7461 43.1553 40.2958C44.0965 39.8456 44.936 39.2085 45.6228 38.4232C46.3097 37.6379 46.8293 36.721 47.1502 35.7283C47.4711 34.7357 47.5865 33.688 47.4893 32.6493V29.86C47.4893 27.9132 46.7159 26.0461 45.3393 24.6695C43.9627 23.2929 42.0957 22.5195 40.1489 22.5195C38.2021 22.5195 36.335 23.2929 34.9584 24.6695C33.5819 26.0461 32.8085 27.9132 32.8085 29.86V32.6249C32.7113 33.6648 32.8266 34.7137 33.1472 35.7077C33.4679 36.7018 33.9872 37.6203 34.6737 38.4075C35.3602 39.1947 36.1996 39.8341 37.1408 40.287C38.082 40.7398 39.1054 40.9967 40.1489 41.0419V41.0419Z" stroke="#0D369C" stroke-width="2" stroke-miterlimit="10"/>
<path d="M8.34042 50.8306C11.253 48.9794 14.6866 48.121 18.1277 48.3838C23.633 48.3838 30.3617 52.9349 30.3617 55.7242V63.0647" stroke="#0D369C" stroke-width="2" stroke-miterlimit="10"/>
<path d="M18.1276 48.3822C19.17 48.3402 20.193 48.0864 21.1341 47.6362C22.0752 47.186 22.9147 46.5488 23.6016 45.7635C24.2884 44.9783 24.8081 44.0613 25.129 43.0687C25.4499 42.076 25.5652 41.0284 25.468 39.9896V37.2003C25.468 35.2535 24.6946 33.3864 23.318 32.0098C21.9414 30.6332 20.0744 29.8599 18.1276 29.8599C16.1808 29.8599 14.3138 30.6332 12.9372 32.0098C11.5606 33.3864 10.7872 35.2535 10.7872 37.2003V39.9652C10.69 41.0051 10.8053 42.054 11.126 43.048C11.4466 44.0421 11.966 44.9606 12.6525 45.7478C13.339 46.535 14.1783 47.1744 15.1195 47.6273C16.0607 48.0802 17.0841 48.337 18.1276 48.3822Z" stroke="#0D369C" stroke-width="2" stroke-miterlimit="10"/>
<path d="M71.9574 50.8293C69.0463 48.9748 65.6115 48.1161 62.1702 48.3825C56.6649 48.3825 49.9362 52.9335 49.9362 55.7229V63.0633" stroke="#0D369C" stroke-width="2" stroke-miterlimit="10"/>
<path d="M62.1703 48.3822C61.1291 48.3368 60.1079 48.0807 59.1684 47.6293C58.229 47.178 57.3908 46.5408 56.7047 45.7563C56.0185 44.9718 55.4986 44.0562 55.1764 43.0651C54.8541 42.0739 54.7363 41.0277 54.8299 39.9896V37.2003C54.8299 35.2535 55.6033 33.3864 56.9799 32.0098C58.3565 30.6332 60.2235 29.8599 62.1703 29.8599C64.1171 29.8599 65.9842 30.6332 67.3608 32.0098C68.7374 33.3864 69.5108 35.2535 69.5108 37.2003V39.9652C69.6115 41.0058 69.4987 42.0561 69.1794 43.0516C68.8602 44.0472 68.341 44.9671 67.6538 45.7551C66.9667 46.5431 66.126 47.1825 65.1831 47.6342C64.2402 48.0859 63.215 48.3404 62.1703 48.3822V48.3822Z" stroke="#0D369C" stroke-width="2" stroke-miterlimit="10"/>
<path d="M74.4042 60.6172L81.7447 67.9576L67.0638 82.6385L59.7234 75.298" stroke="#0D369C" stroke-width="2" stroke-miterlimit="10"/>
</svg>
