<svg width="114" height="111" viewBox="0 0 114 111" fill="none" xmlns="http://www.w3.org/2000/svg">
<path d="M36.8204 68.9577C41.5501 68.9577 45.3842 65.1236 45.3842 60.3939C45.3842 55.6642 41.5501 51.8301 36.8204 51.8301C32.0907 51.8301 28.2566 55.6642 28.2566 60.3939C28.2566 65.1236 32.0907 68.9577 36.8204 68.9577Z" stroke="#0D369C" stroke-width="2" stroke-miterlimit="10"/>
<path d="M12.3523 78.7453C17.082 78.7453 20.9162 74.9112 20.9162 70.1815C20.9162 65.4518 17.082 61.6177 12.3523 61.6177C7.62265 61.6177 3.7885 65.4518 3.7885 70.1815C3.7885 74.9112 7.62265 78.7453 12.3523 78.7453Z" stroke="#0D369C" stroke-width="2" stroke-miterlimit="10"/>
<path d="M20.9424 110.553L26.6435 83.8587C27.5978 79.4545 30.7297 77.2034 35.6233 76.2981L50.3041 73.8513L64.8382 60.7119C64.8382 60.7119 69.7318 68.9577 64.3244 73.9981L53.8276 84.397L37.7765 89.2906" stroke="#0D369C" stroke-width="2" stroke-miterlimit="10"/>
<path d="M42.9374 110.554L47.8311 86.0854" stroke="#0D369C" stroke-width="2" stroke-miterlimit="10"/>
<path d="M91.9716 76.2986C96.7012 76.2986 100.535 72.4644 100.535 67.7347C100.535 63.0051 96.7012 59.1709 91.9716 59.1709C87.2419 59.1709 83.4077 63.0051 83.4077 67.7347C83.4077 72.4644 87.2419 76.2986 91.9716 76.2986Z" stroke="#0D369C" stroke-width="2" stroke-miterlimit="10"/>
<path d="M112.574 110.554L107.093 91.4685C106.139 87.0642 103.398 83.6387 95.6418 83.6387H66.2801C66.2801 83.6387 67.9194 93.4259 76.0673 93.4259H95.6418" stroke="#0D369C" stroke-width="2" stroke-miterlimit="10"/>
<path d="M94.5163 110.553L88.3014 93.4258" stroke="#0D369C" stroke-width="2" stroke-miterlimit="10"/>
<path d="M1 110.554L4.6213 93.6461C5.57556 89.2419 8.70743 86.9908 13.601 86.0855L25.8351 83.6387" stroke="#0D369C" stroke-width="2" stroke-miterlimit="10"/>
<path d="M38.4116 9.5752L4.57224 24.0358L15.7052 32.6486L14.2127 46.522L48.0276 32.0614" stroke="#0D369C" stroke-width="2" stroke-miterlimit="10"/>
<path d="M61.5822 63.6483L34.4716 0.447266" stroke="#0D369C" stroke-width="2" stroke-miterlimit="10"/>
<path d="M69.8277 83.6152L65.3745 72.8003" stroke="#0D369C" stroke-width="2" stroke-miterlimit="10"/>
<path d="M80.9618 110.553L73.8905 93.4497" stroke="#0D369C" stroke-width="2" stroke-miterlimit="10"/>
</svg>
