<svg width="108" height="116" viewBox="0 0 108 116" fill="none" xmlns="http://www.w3.org/2000/svg">
<path d="M74.4043 101.319V93.9786C74.4043 87.2254 60.5064 84.1914 53.6064 84.1914C46.7064 84.1914 32.8085 87.2254 32.8085 93.9786V101.319" stroke="#0D369C" stroke-width="2" stroke-miterlimit="10"/>
<path d="M53.6075 76.7775C54.7979 76.7576 55.9717 76.4945 57.0567 76.0045C58.1418 75.5145 59.1152 74.8078 59.9172 73.9279C60.7192 73.048 61.3329 72.0134 61.7205 70.8877C62.1081 69.762 62.2616 68.5689 62.1714 67.3818V64.2254C62.3 63.0239 62.1744 61.8087 61.8026 60.6589C61.4309 59.5092 60.8213 58.4505 60.0136 57.5517C59.2059 56.6529 58.2181 55.9341 57.1144 55.4421C56.0108 54.9501 54.8159 54.6958 53.6075 54.6958C52.3992 54.6958 51.2043 54.9501 50.1006 55.4421C48.997 55.9341 48.0092 56.6529 47.2015 57.5517C46.3938 58.4505 45.7842 59.5092 45.4124 60.6589C45.0407 61.8087 44.9151 63.0239 45.0437 64.2254V67.3818C44.9571 68.5682 45.113 69.7597 45.502 70.8839C45.8909 72.008 46.5048 73.0412 47.3061 73.9204C48.1074 74.7995 49.0794 75.5062 50.1628 75.9975C51.2461 76.4887 52.4182 76.7541 53.6075 76.7775V76.7775Z" stroke="#0D369C" stroke-width="2" stroke-miterlimit="10"/>
<path d="M16.9054 81.6463C15.7128 81.6198 14.538 81.3506 13.4528 80.8552C12.3676 80.3598 11.3946 79.6485 10.5933 78.7648C9.79195 77.881 9.17904 76.8433 8.79191 75.7149C8.40478 74.5866 8.25156 73.3911 8.34158 72.2016V69.0452C8.21294 67.8437 8.33855 66.6286 8.7103 65.4788C9.08205 64.329 9.69163 63.2703 10.4993 62.3715C11.307 61.4727 12.2948 60.754 13.3985 60.2619C14.5022 59.7699 15.697 59.5156 16.9054 59.5156C18.1138 59.5156 19.3086 59.7699 20.4123 60.2619C21.516 60.754 22.5038 61.4727 23.3115 62.3715C24.1192 63.2703 24.7288 64.329 25.1005 65.4788C25.4723 66.6286 25.5979 67.8437 25.4692 69.0452V72.2016C25.5628 73.3919 25.4121 74.5888 25.0263 75.7187C24.6405 76.8486 24.0278 77.8878 23.2258 78.7723C22.4237 79.6568 21.4494 80.368 20.3625 80.8622C19.2756 81.3565 18.0992 81.6233 16.9054 81.6463Z" stroke="#0D369C" stroke-width="2" stroke-miterlimit="10"/>
<path d="M90.3097 81.6463C91.5034 81.6233 92.6799 81.3565 93.7668 80.8622C94.8537 80.368 95.828 79.6568 96.63 78.7723C97.432 77.8878 98.0448 76.8486 98.4306 75.7187C98.8164 74.5888 98.9671 73.3919 98.8735 72.2016V69.0452C99.0021 67.8437 98.8765 66.6286 98.5048 65.4788C98.133 64.329 97.5234 63.2703 96.7157 62.3715C95.908 61.4727 94.9203 60.754 93.8166 60.2619C92.7129 59.7699 91.5181 59.5156 90.3097 59.5156C89.1013 59.5156 87.9064 59.7699 86.8028 60.2619C85.6991 60.754 84.7113 61.4727 83.9036 62.3715C83.0959 63.2703 82.4863 64.329 82.1146 65.4788C81.7428 66.6286 81.6172 67.8437 81.7458 69.0452V72.2016C81.6558 73.3911 81.8091 74.5866 82.1962 75.7149C82.5833 76.8433 83.1962 77.881 83.9975 78.7648C84.7989 79.6485 85.7718 80.3598 86.857 80.8552C87.9423 81.3506 89.117 81.6198 90.3097 81.6463Z" stroke="#0D369C" stroke-width="2" stroke-miterlimit="10"/>
<path d="M106.212 116V96.4254C106.212 94.4786 105.439 92.6115 104.062 91.2349C102.686 89.8583 100.818 89.085 98.8717 89.085H91.5313L79.2972 101.319H64.6164C64.6164 101.319 63.5153 111.106 71.9568 111.106H86.6376L96.4249 101.319" stroke="#0D369C" stroke-width="2" stroke-miterlimit="10"/>
<path d="M1 116V96.4254C1 94.4786 1.7734 92.6115 3.14999 91.2349C4.52659 89.8583 6.39362 89.085 8.34043 89.085H15.6809L27.9149 101.319H42.5957C42.5957 101.319 43.6968 111.106 35.2553 111.106H20.5745L10.7872 101.319" stroke="#0D369C" stroke-width="2" stroke-miterlimit="10"/>
<path d="M89.0851 108.66V116" stroke="#0D369C" stroke-width="2" stroke-miterlimit="10"/>
<path d="M18.1277 108.66V116" stroke="#0D369C" stroke-width="2" stroke-miterlimit="10"/>
<path d="M35.2553 111.106H71.9574" stroke="#0D369C" stroke-width="2" stroke-miterlimit="10"/>
<path d="M23.0213 1H86.6383C87.9362 1 89.1809 1.51558 90.0986 2.43331C91.0163 3.35104 91.5319 4.59575 91.5319 5.89362V40.1489C91.5319 41.4468 91.0163 42.6915 90.0986 43.6092C89.1809 44.527 87.9362 45.0425 86.6383 45.0425H76.8511V55.5394C76.8562 56.0416 76.7065 56.5333 76.4225 56.9476C76.1385 57.3619 75.7338 57.6788 75.2635 57.8552C74.7932 58.0316 74.2799 58.0589 73.7935 57.9335C73.3071 57.8081 72.8711 57.536 72.5447 57.1543L62.1702 44.9202H23.0213C21.7234 44.9202 20.4787 44.4046 19.561 43.4869C18.6432 42.5692 18.1277 41.3245 18.1277 40.0266V5.77127C18.1596 4.49473 18.6892 3.28122 19.6035 2.38978C20.5178 1.49835 21.7443 0.999601 23.0213 1V1Z" stroke="#0D369C" stroke-width="2" stroke-miterlimit="10"/>
</svg>
