<svg width="111" height="103" viewBox="0 0 111 103" fill="none" xmlns="http://www.w3.org/2000/svg">
<path d="M36.2649 88.4246C36.8162 87.6456 37.5513 87.0146 38.405 86.5878C39.2586 86.161 40.2045 85.9514 41.1585 85.9778H77.1511C79.8671 85.9778 94.8171 70.9789 96.7256 68.8501C101.377 62.702 105.472 56.1512 108.96 49.2757C107.704 48.0176 106.13 47.1251 104.405 46.6941C102.681 46.263 100.872 46.3096 99.1724 46.8289C94.8415 47.8321 92.2969 50.9395 89.3852 56.6161L78.1787 62.4395" stroke="#0D369C" stroke-width="2" stroke-miterlimit="10"/>
<path d="M50.2353 71.2976H72.2566C82.0438 71.2976 82.0438 59.0635 72.2566 59.0635H57.5757C55.5449 59.0635 51.7278 54.1699 48.498 54.1699H36.264C32.5504 54.6747 29.1087 56.3956 26.4767 59.0635C22.8065 62.7338 16.3224 68.8508 16.3224 68.8508" stroke="#0D369C" stroke-width="2" stroke-miterlimit="10"/>
<path d="M11.7927 63.9519L2 73.7446L28.9212 100.666L38.7139 90.8731L11.7927 63.9519Z" stroke="#0D369C" stroke-width="2" stroke-miterlimit="10"/>
<path d="M67.3637 19.9139C68.4061 19.872 69.429 19.6181 70.3701 19.1679C71.3112 18.7177 72.1507 18.0805 72.8375 17.2953C73.5243 16.51 74.044 15.5931 74.3649 14.6004C74.6858 13.6077 74.8013 12.5601 74.7041 11.5214V8.73203C74.7041 6.78523 73.9306 4.91816 72.554 3.54156C71.1774 2.16496 69.3105 1.3916 67.3637 1.3916C65.4169 1.3916 63.5498 2.16496 62.1732 3.54156C60.7966 4.91816 60.0232 6.78523 60.0232 8.73203V11.4969C59.9261 12.5369 60.0413 13.5857 60.362 14.5798C60.6826 15.5738 61.2019 16.4923 61.8884 17.2795C62.5749 18.0667 63.4143 18.7062 64.3555 19.159C65.2967 19.6119 66.3202 19.8687 67.3637 19.9139V19.9139Z" stroke="#0D369C" stroke-width="2" stroke-miterlimit="10"/>
<path d="M91.8318 24.8075C92.8742 24.7655 93.8971 24.5117 94.8382 24.0615C95.7793 23.6113 96.6188 22.9741 97.3056 22.1888C97.9924 21.4036 98.5122 20.4866 98.8331 19.494C99.154 18.5013 99.2694 17.4537 99.1722 16.4149V13.6256C99.1722 11.6788 98.3987 9.81171 97.0221 8.43512C95.6455 7.05852 93.7786 6.28516 91.8318 6.28516C89.885 6.28516 88.0179 7.05852 86.6413 8.43512C85.2647 9.81171 84.4914 11.6788 84.4914 13.6256V16.3905C84.3942 17.4304 84.5094 18.4793 84.8301 19.4733C85.1507 20.4674 85.67 21.3859 86.3565 22.1731C87.043 22.9603 87.8824 23.5997 88.8236 24.0526C89.7648 24.5054 90.7883 24.7623 91.8318 24.8075V24.8075Z" stroke="#0D369C" stroke-width="2" stroke-miterlimit="10"/>
<path d="M42.8956 24.8075C43.938 24.7655 44.9609 24.5117 45.902 24.0615C46.8431 23.6113 47.6826 22.9741 48.3694 22.1888C49.0562 21.4036 49.576 20.4866 49.8969 19.494C50.2178 18.5013 50.3332 17.4537 50.236 16.4149V13.6256C50.236 11.6788 49.4626 9.81171 48.086 8.43512C46.7094 7.05852 44.8424 6.28516 42.8956 6.28516C40.9488 6.28516 39.0817 7.05852 37.7051 8.43512C36.3285 9.81171 35.5552 11.6788 35.5552 13.6256V16.3905C35.458 17.4304 35.5732 18.4793 35.8939 19.4733C36.2145 20.4674 36.7338 21.3859 37.4203 22.1731C38.1068 22.9603 38.9462 23.5997 39.8874 24.0526C40.8286 24.5054 41.8521 24.7623 42.8956 24.8075V24.8075Z" stroke="#0D369C" stroke-width="2" stroke-miterlimit="10"/>
<path d="M82.0446 51.7235V34.5958C82.0446 28.5277 72.4775 27.2554 67.3637 27.2554C62.2499 27.2554 52.6829 28.5277 52.6829 34.5958V49.2766" stroke="#0D369C" stroke-width="2" stroke-miterlimit="10"/>
<path d="M104.066 41.9364V39.4896C104.066 33.4215 94.4988 32.1491 89.385 32.1491C86.9142 32.1404 84.4507 32.4196 82.0446 32.981" stroke="#0D369C" stroke-width="2" stroke-miterlimit="10"/>
<path d="M30.6616 49.2768V39.4895C30.6616 33.4215 40.2531 32.1491 45.3424 32.1491C47.8133 32.1404 50.2767 32.4196 52.6829 32.981" stroke="#0D369C" stroke-width="2" stroke-miterlimit="10"/>
</svg>
