<svg width="63" height="64" fill="none" xmlns="http://www.w3.org/2000/svg"><g filter="url(#filter0_d)"><path d="M31.5 45.298A16.798 16.798 0 1148.298 28.5 16.817 16.817 0 0131.5 45.298zm0-32.056A15.257 15.257 0 1046.758 28.5 15.275 15.275 0 0031.5 13.242z" fill="url(#paint0_linear)"/><path d="M31.5 41.317A12.817 12.817 0 1144.317 28.5 12.832 12.832 0 0131.5 41.317zm0-24.094A11.277 11.277 0 1042.777 28.5 11.29 11.29 0 0031.5 17.223z" fill="url(#paint1_linear)"/><path d="M32.783 28.747h-3.917a.77.77 0 01-.77-.77v-6.298a.77.77 0 01.77-.77h3.917a3.918 3.918 0 110 7.838zm-3.147-1.541h3.147a2.38 2.38 0 100-4.756h-3.147v4.756z" fill="url(#paint2_linear)"/><path d="M33.784 35.047h-4.918a.77.77 0 01-.77-.77v-6.3a.77.77 0 01.77-.771h4.918a3.919 3.919 0 110 7.838v.003zm-4.148-1.54h4.148a2.379 2.379 0 000-4.757h-4.148v4.757z" fill="url(#paint3_linear)"/><path d="M28.866 22.45H27.74a.77.77 0 010-1.541h1.125a.77.77 0 110 1.54z" fill="url(#paint4_linear)"/><path d="M29.497 22.45a.77.77 0 01-.77-.77v-1.418a.77.77 0 111.54 0v1.417a.77.77 0 01-.77.77z" fill="url(#paint5_linear)"/><path d="M31.95 22.45a.77.77 0 01-.77-.77v-1.418a.77.77 0 111.54 0v1.417a.77.77 0 01-.77.77z" fill="url(#paint6_linear)"/><path d="M29.497 36.46a.77.77 0 01-.77-.77v-1.413a.77.77 0 111.54 0v1.416a.77.77 0 01-.77.767z" fill="url(#paint7_linear)"/><path d="M31.95 36.46a.77.77 0 01-.77-.77v-1.413a.77.77 0 111.54 0v1.416a.77.77 0 01-.77.767z" fill="url(#paint8_linear)"/><path d="M28.866 35.047H27.74a.77.77 0 110-1.54h1.125a.77.77 0 110 1.54z" fill="url(#paint9_linear)"/><path d="M31.5 13.242a.77.77 0 01-.77-.77V7.13a.77.77 0 011.54 0v5.342a.77.77 0 01-.77.77z" fill="url(#paint10_linear)"/><path d="M31.5 7.9a3.18 3.18 0 110-6.359 3.18 3.18 0 010 6.359zm0-4.819a1.64 1.64 0 100 3.279 1.64 1.64 0 000-3.28z" fill="url(#paint11_linear)"/><path d="M31.5 50.64a.77.77 0 01-.77-.77v-5.342a.77.77 0 011.54 0v5.342a.77.77 0 01-.77.77z" fill="url(#paint12_linear)"/><path d="M31.5 55.46a3.18 3.18 0 110-6.36 3.18 3.18 0 010 6.36zm0-4.82a1.64 1.64 0 100 3.28 1.64 1.64 0 000-3.28z" fill="url(#paint13_linear)"/><path d="M52.87 29.27h-5.342a.77.77 0 010-1.54h5.342a.77.77 0 010 1.54z" fill="url(#paint14_linear)"/><path d="M55.28 31.68a3.18 3.18 0 110-6.361 3.18 3.18 0 010 6.36zm0-4.82a1.64 1.64 0 100 3.28 1.64 1.64 0 000-3.28z" fill="url(#paint15_linear)"/><path d="M15.472 29.27H10.13a.77.77 0 010-1.54h5.342a.77.77 0 010 1.54z" fill="url(#paint16_linear)"/><path d="M7.72 31.68a3.18 3.18 0 110-6.361 3.18 3.18 0 010 6.36zm0-4.82a1.64 1.64 0 100 3.28 1.64 1.64 0 000-3.28z" fill="url(#paint17_linear)"/><path d="M18.174 47.085h-6.15a.77.77 0 110-1.54h5.726l3.08-4.943a.772.772 0 011.31.815l-3.306 5.305a.77.77 0 01-.66.363z" fill="url(#paint18_linear)"/><path d="M9.617 49.494a3.179 3.179 0 110-6.358 3.179 3.179 0 010 6.358zm0-4.818a1.64 1.64 0 10.001 3.279 1.64 1.64 0 00-.001-3.28z" fill="url(#paint19_linear)"/><path d="M21.486 16.76a.77.77 0 01-.654-.363l-3.081-4.942h-5.727a.77.77 0 010-1.54h6.15a.77.77 0 01.654.363l3.306 5.304a.77.77 0 01-.648 1.178z" fill="url(#paint20_linear)"/><path d="M9.617 13.865a3.18 3.18 0 11.002-6.36 3.18 3.18 0 01-.002 6.36zm0-4.819a1.64 1.64 0 10.001 3.278 1.64 1.64 0 00-.001-3.278z" fill="url(#paint21_linear)"/><path d="M50.975 47.085h-6.15a.77.77 0 01-.653-.363l-3.31-5.305a.772.772 0 011.31-.815l3.081 4.943h5.725a.77.77 0 110 1.54h-.003z" fill="url(#paint22_linear)"/><path d="M53.383 49.494a3.18 3.18 0 110-6.359 3.18 3.18 0 010 6.36zm0-4.818a1.639 1.639 0 100 3.277 1.639 1.639 0 000-3.277z" fill="url(#paint23_linear)"/><path d="M41.513 16.76a.77.77 0 01-.653-1.178l3.306-5.304a.768.768 0 01.654-.363h6.153a.77.77 0 010 1.54H45.25l-3.081 4.942a.77.77 0 01-.656.363z" fill="url(#paint24_linear)"/><path d="M53.383 13.865a3.18 3.18 0 110-6.36 3.18 3.18 0 010 6.36zm0-4.819a1.64 1.64 0 100 3.279 1.64 1.64 0 000-3.279z" fill="url(#paint25_linear)"/></g><defs><linearGradient id="paint0_linear" x1="20.285" y1="-3.867" x2="54.976" y2="5.835" gradientUnits="userSpaceOnUse"><stop stop-color="#2450A4"/><stop offset="1" stop-color="#41B3CD"/></linearGradient><linearGradient id="paint12_linear" x1="30.986" y1="40.568" x2="32.694" y2="40.675" gradientUnits="userSpaceOnUse"><stop stop-color="#2450A4"/><stop offset="1" stop-color="#41B3CD"/></linearGradient><linearGradient id="paint1_linear" x1="22.943" y1="3.803" x2="49.413" y2="11.206" gradientUnits="userSpaceOnUse"><stop stop-color="#2450A4"/><stop offset="1" stop-color="#41B3CD"/></linearGradient><linearGradient id="paint2_linear" x1="29.535" y1="17.276" x2="38.338" y2="19.997" gradientUnits="userSpaceOnUse"><stop stop-color="#2450A4"/><stop offset="1" stop-color="#41B3CD"/></linearGradient><linearGradient id="paint3_linear" x1="29.692" y1="23.572" x2="39.265" y2="26.852" gradientUnits="userSpaceOnUse"><stop stop-color="#2450A4"/><stop offset="1" stop-color="#41B3CD"/></linearGradient><linearGradient id="paint4_linear" x1="27.414" y1="20.195" x2="29.818" y2="21.358" gradientUnits="userSpaceOnUse"><stop stop-color="#2450A4"/><stop offset="1" stop-color="#41B3CD"/></linearGradient><linearGradient id="paint5_linear" x1="28.983" y1="18.121" x2="30.663" y2="18.366" gradientUnits="userSpaceOnUse"><stop stop-color="#2450A4"/><stop offset="1" stop-color="#41B3CD"/></linearGradient><linearGradient id="paint6_linear" x1="31.436" y1="18.121" x2="33.116" y2="18.366" gradientUnits="userSpaceOnUse"><stop stop-color="#2450A4"/><stop offset="1" stop-color="#41B3CD"/></linearGradient><linearGradient id="paint7_linear" x1="28.983" y1="32.138" x2="30.663" y2="32.383" gradientUnits="userSpaceOnUse"><stop stop-color="#2450A4"/><stop offset="1" stop-color="#41B3CD"/></linearGradient><linearGradient id="paint8_linear" x1="31.436" y1="32.138" x2="33.116" y2="32.383" gradientUnits="userSpaceOnUse"><stop stop-color="#2450A4"/><stop offset="1" stop-color="#41B3CD"/></linearGradient><linearGradient id="paint9_linear" x1="27.414" y1="32.793" x2="29.818" y2="33.956" gradientUnits="userSpaceOnUse"><stop stop-color="#2450A4"/><stop offset="1" stop-color="#41B3CD"/></linearGradient><linearGradient id="paint10_linear" x1="30.986" y1="3.17" x2="32.694" y2="3.277" gradientUnits="userSpaceOnUse"><stop stop-color="#2450A4"/><stop offset="1" stop-color="#41B3CD"/></linearGradient><linearGradient id="paint11_linear" x1="29.377" y1="-1.407" x2="35.944" y2=".43" gradientUnits="userSpaceOnUse"><stop stop-color="#2450A4"/><stop offset="1" stop-color="#41B3CD"/></linearGradient><linearGradient id="paint25_linear" x1="51.26" y1="4.558" x2="57.827" y2="6.395" gradientUnits="userSpaceOnUse"><stop stop-color="#2450A4"/><stop offset="1" stop-color="#41B3CD"/></linearGradient><linearGradient id="paint13_linear" x1="29.377" y1="46.153" x2="35.944" y2="47.99" gradientUnits="userSpaceOnUse"><stop stop-color="#2450A4"/><stop offset="1" stop-color="#41B3CD"/></linearGradient><linearGradient id="paint14_linear" x1="47.901" y1="27.016" x2="50.893" y2="30.754" gradientUnits="userSpaceOnUse"><stop stop-color="#2450A4"/><stop offset="1" stop-color="#41B3CD"/></linearGradient><linearGradient id="paint15_linear" x1="53.157" y1="22.373" x2="59.724" y2="24.21" gradientUnits="userSpaceOnUse"><stop stop-color="#2450A4"/><stop offset="1" stop-color="#41B3CD"/></linearGradient><linearGradient id="paint16_linear" x1="10.503" y1="27.016" x2="13.495" y2="30.754" gradientUnits="userSpaceOnUse"><stop stop-color="#2450A4"/><stop offset="1" stop-color="#41B3CD"/></linearGradient><linearGradient id="paint17_linear" x1="5.597" y1="22.373" x2="12.164" y2="24.21" gradientUnits="userSpaceOnUse"><stop stop-color="#2450A4"/><stop offset="1" stop-color="#41B3CD"/></linearGradient><linearGradient id="paint18_linear" x1="13.083" y1="37.066" x2="23.274" y2="41.647" gradientUnits="userSpaceOnUse"><stop stop-color="#2450A4"/><stop offset="1" stop-color="#41B3CD"/></linearGradient><linearGradient id="paint19_linear" x1="7.495" y1="40.188" x2="14.061" y2="42.025" gradientUnits="userSpaceOnUse"><stop stop-color="#2450A4"/><stop offset="1" stop-color="#41B3CD"/></linearGradient><linearGradient id="paint20_linear" x1="13.082" y1="6.743" x2="23.269" y2="11.319" gradientUnits="userSpaceOnUse"><stop stop-color="#2450A4"/><stop offset="1" stop-color="#41B3CD"/></linearGradient><linearGradient id="paint21_linear" x1="7.495" y1="4.558" x2="14.061" y2="6.395" gradientUnits="userSpaceOnUse"><stop stop-color="#2450A4"/><stop offset="1" stop-color="#41B3CD"/></linearGradient><linearGradient id="paint22_linear" x1="42.575" y1="37.066" x2="52.766" y2="41.647" gradientUnits="userSpaceOnUse"><stop stop-color="#2450A4"/><stop offset="1" stop-color="#41B3CD"/></linearGradient><linearGradient id="paint23_linear" x1="51.26" y1="40.188" x2="57.827" y2="42.025" gradientUnits="userSpaceOnUse"><stop stop-color="#2450A4"/><stop offset="1" stop-color="#41B3CD"/></linearGradient><linearGradient id="paint24_linear" x1="42.572" y1="6.743" x2="52.761" y2="11.322" gradientUnits="userSpaceOnUse"><stop stop-color="#2450A4"/><stop offset="1" stop-color="#41B3CD"/></linearGradient><filter id="filter0_d" x="-1" y="0" width="65" height="65" filterUnits="userSpaceOnUse" color-interpolation-filters="sRGB"><feFlood flood-opacity="0" result="BackgroundImageFix"/><feColorMatrix in="SourceAlpha" values="0 0 0 0 0 0 0 0 0 0 0 0 0 0 0 0 0 0 127 0"/><feOffset dy="4"/><feGaussianBlur stdDeviation="2"/><feColorMatrix values="0 0 0 0 0.247059 0 0 0 0 0.670588 0 0 0 0 0.682353 0 0 0 0.27 0"/><feBlend in2="BackgroundImageFix" result="effect1_dropShadow"/><feBlend in="SourceGraphic" in2="effect1_dropShadow" result="shape"/></filter></defs></svg>