<svg width="59" height="59" fill="none" xmlns="http://www.w3.org/2000/svg"><g filter="url(#filter0_d)"><path d="M46.234 16.084v-1.74h-1.593v1.594h-1.594v2.39a2.394 2.394 0 002.39 2.39c.44 0 .797.358.797.798v.797h-.797a.798.798 0 01-.796-.797v-.797h-1.594v.797c0 1.037.669 1.914 1.594 2.244v1.74h1.593v-1.594h1.594v-2.39a2.394 2.394 0 00-2.39-2.391.798.798 0 01-.797-.797v-.797h.797c.44 0 .796.358.796.797v.797h1.594v-.797a2.387 2.387 0 00-1.594-2.244z" fill="url(#paint0_linear)"/><path d="M54.203 19.922c0-4.833-3.933-8.766-8.766-8.766-4.832 0-8.765 3.933-8.765 8.766 0 1.73.501 3.378 1.427 4.79a12.66 12.66 0 00-5.748 1.457 8.306 8.306 0 00-2.58-2.773 8.387 8.387 0 00-3.445-1.316l-3.354-.48-.464-1.853a6.39 6.39 0 002.798-3.809h.21a3.19 3.19 0 003.187-3.187 3.15 3.15 0 00-.714-1.985l.574-2.14c.093-.371.14-.752.14-1.134a4.681 4.681 0 00-3.072-4.386L20.39 1.2a6.67 6.67 0 00-2.287-.403 6.72 6.72 0 00-5.351 2.676l-.405.538a3.193 3.193 0 00-2.768 3.16c0 1.283.45 2.86.694 3.617a3.156 3.156 0 00-.694 1.962 3.19 3.19 0 003.188 3.188h.21a6.387 6.387 0 002.797 3.809l-.464 1.852-3.354.48a8.397 8.397 0 00-3.445 1.316 8.32 8.32 0 00-3.713 6.937v14.293h22.936c2.298 3.364 6.161 5.578 10.533 5.578 7.03 0 12.75-5.72 12.75-12.75 0-3.497-1.416-6.667-3.703-8.973 3.934-.861 6.89-4.369 6.89-8.558zm-19.012 23.11a16.943 16.943 0 01-.88-4.782h7.91a16.91 16.91 0 01-.886 4.781h-6.144zm5.5 1.593c-.852 1.81-1.84 3.035-2.427 3.664-.589-.628-1.58-1.85-2.431-3.664h4.858zm-4.85-14.344c.85-1.809 1.84-3.034 2.426-3.664.59.627 1.58 1.85 2.431 3.664h-4.857zm5.499 1.594c.464 1.355.802 2.95.88 4.781h-7.91c.08-1.829.42-3.424.887-4.781h6.143zm-7.259-1.594h-4.348a11.15 11.15 0 016.548-3.797 16.43 16.43 0 00-2.2 3.797zm-5.462 1.594h4.885a18.808 18.808 0 00-.787 4.781H27.15c.123-1.733.64-3.355 1.469-4.781zm4.097 6.375c.071 1.8.363 3.397.787 4.781h-4.885a11.06 11.06 0 01-1.47-4.781h5.568zm11.1 0h5.566a11.062 11.062 0 01-1.47 4.781h-4.884c.424-1.384.716-2.98.787-4.781zm0-1.594c-.072-1.8-.364-3.397-.788-4.781h4.885a11.062 11.062 0 011.47 4.781h-5.568zm-1.366-6.375a16.426 16.426 0 00-2.2-3.797 11.153 11.153 0 016.549 3.797H42.45zm-23.31-3.89l1.028.514-.657.986h-.74l-.658-.986 1.028-.514zm-2.463 1.232l.788 1.182-.808 2.425a18.033 18.033 0 01-1.306-2.943l1.326-.664zm2.241 1.861h.446l1.162 3.487a18.29 18.29 0 01-1.385 1.736 18.29 18.29 0 01-1.386-1.736l1.163-3.487zm2.707 1.746l-.808-2.425.788-1.182 1.327.663a18.1 18.1 0 01-1.307 2.944zm2.254-7.891a18.292 18.292 0 01-.495 3.392l-2.899-1.45 2.124-2.123 1.27.18zm1.637-8.995v-3.188a1.595 1.595 0 010 3.188zM11.172 12.75c0-.879.715-1.594 1.594-1.594h.03c-.013.16-.03.32-.03.482v2.706a1.595 1.595 0 01-1.594-1.594zm1.96-3.188h-.366c-.401 0-.78.083-1.134.219-.21-.733-.46-1.773-.46-2.61 0-.878.715-1.593 1.594-1.593h.398l.861-1.149a5.12 5.12 0 014.077-2.038 5.08 5.08 0 011.742.306l5.242 1.907a3.084 3.084 0 011.935 3.62l-.414 1.543a3.147 3.147 0 00-1.091-.204h-.797c-3.692 0-8.278-3.024-8.324-3.055l-.443-.294-.441.295a6.151 6.151 0 00-2.379 3.053zm1.227 4.782v-2.706c0-1.361.602-2.636 1.632-3.5 1.245.76 4.68 2.691 7.93 2.98v3.226a4.786 4.786 0 01-4.78 4.781 4.786 4.786 0 01-4.782-4.781zm4.782 6.375a6.37 6.37 0 001.895-.288l.41 1.638-2.305 2.304-2.305-2.304.409-1.638a6.368 6.368 0 001.896.288zm-3.47 2.439l2.125 2.124-2.9 1.45a18.36 18.36 0 01-.494-3.393l1.27-.181zm-4.5 19.873V31.078H9.579v11.953H6.391V30.332a6.73 6.73 0 013.003-5.611 6.791 6.791 0 012.787-1.066l.62-.088a19.733 19.733 0 005.776 12.855l.564.564.563-.563a19.733 19.733 0 005.776-12.855l.62.088c.991.142 1.955.51 2.787 1.066a6.727 6.727 0 012.104 2.274c-3.305 2.307-5.475 6.13-5.475 10.457 0 2.002.476 3.89 1.303 5.578H11.171zm18.562 1.594h4.348a16.425 16.425 0 002.2 3.797 11.15 11.15 0 01-6.548-3.797zm10.518 3.797a16.422 16.422 0 002.199-3.797h4.349a11.15 11.15 0 01-6.548 3.797zm5.404-21.34a12.66 12.66 0 00-5.394-2.207 7.112 7.112 0 01-1.995-4.953c0-3.954 3.217-7.172 7.172-7.172 3.954 0 7.171 3.218 7.171 7.172 0 3.88-3.1 7.044-6.954 7.16z" fill="url(#paint1_linear)"/></g><defs><linearGradient id="paint0_linear" x1="43.841" y1="9.174" x2="49.089" y2="9.803" gradientUnits="userSpaceOnUse"><stop stop-color="#2450A4"/><stop offset="1" stop-color="#41B3CD"/></linearGradient><linearGradient id="paint1_linear" x1="13.007" y1="-22.099" x2="64.024" y2="-7.83" gradientUnits="userSpaceOnUse"><stop stop-color="#2450A4"/><stop offset="1" stop-color="#41B3CD"/></linearGradient><filter id="filter0_d" x="0" y="0" width="59" height="59" filterUnits="userSpaceOnUse" color-interpolation-filters="sRGB"><feFlood flood-opacity="0" result="BackgroundImageFix"/><feColorMatrix in="SourceAlpha" values="0 0 0 0 0 0 0 0 0 0 0 0 0 0 0 0 0 0 127 0"/><feOffset dy="4"/><feGaussianBlur stdDeviation="2"/><feColorMatrix values="0 0 0 0 0.247059 0 0 0 0 0.670588 0 0 0 0 0.682353 0 0 0 0.27 0"/><feBlend in2="BackgroundImageFix" result="effect1_dropShadow"/><feBlend in="SourceGraphic" in2="effect1_dropShadow" result="shape"/></filter></defs></svg>