<svg width="54" height="59" fill="none" xmlns="http://www.w3.org/2000/svg"><g filter="url(#filter0_d)"><path d="M27.166 27.834a.797.797 0 00-.287-.01 1.902 1.902 0 01-1.682-1.886.837.837 0 00-1.673 0 3.579 3.579 0 002.631 3.446v.836a.836.836 0 101.673 0v-.785a3.572 3.572 0 00-.732-7.07 1.9 1.9 0 111.9-1.898.836.836 0 101.673 0 3.579 3.579 0 00-2.84-3.497v-.762a.837.837 0 00-1.674 0v.813a3.572 3.572 0 00.941 7.018 1.898 1.898 0 01.07 3.795z" fill="url(#paint0_linear)"/><path d="M14.966 23.266c0 6.7 5.43 12.131 12.13 12.131 6.7 0 12.131-5.43 12.131-12.13 0-6.7-5.431-12.131-12.13-12.131-6.697.007-12.124 5.434-12.131 12.13zm12.13-10.457c5.776 0 10.458 4.682 10.458 10.457 0 5.776-4.682 10.458-10.458 10.458-5.775 0-10.457-4.682-10.457-10.458.006-5.772 4.684-10.45 10.457-10.457z" fill="url(#paint1_linear)"/><path d="M43.351 37.46l-6.553 3.096a5.338 5.338 0 00-4.55-2.808l-6.05-.166a6.39 6.39 0 01-2.75-.71l-.615-.32a10.857 10.857 0 00-10.057.011l.039-1.394a.837.837 0 00-.814-.86l-6.633-.182a.836.836 0 00-.86.813l-.4 14.557a.837.837 0 00.813.86l6.634.182h.023c.453 0 .824-.36.836-.814l.02-.696 1.723-.923a2.956 2.956 0 012.206-.241l10.291 2.888A11.011 11.011 0 0028.97 51c1.61 0 3.2-.346 4.663-1.018a.775.775 0 00.103-.057l14.922-9.651a.837.837 0 00.274-1.114 4.226 4.226 0 00-5.58-1.7zM5.804 48.707l.354-12.885 4.961.137-.354 12.885-4.961-.137zm27.075-.219a9.485 9.485 0 01-5.8.648l-10.263-2.881a4.626 4.626 0 00-3.449.377l-.88.471.235-8.566a9.195 9.195 0 019.342-.499l.616.32a8.08 8.08 0 003.472.896l6.05.167a3.67 3.67 0 013.487 2.923l-9.01-.248a.837.837 0 00-.047 1.672l9.945.274h.023a.837.837 0 00.836-.814 5.305 5.305 0 00-.081-1.085l6.721-3.176a2.556 2.556 0 012.91.395L32.88 48.489z" fill="url(#paint2_linear)"/><path d="M27.933 8.784V.837a.837.837 0 00-1.673 0v7.947a.837.837 0 101.673 0z" fill="url(#paint3_linear)"/><path d="M34.207 8.784V5.019a.837.837 0 10-1.673 0v3.765a.837.837 0 001.673 0z" fill="url(#paint4_linear)"/><path d="M21.659 8.784V5.019a.837.837 0 00-1.673 0v3.765a.837.837 0 001.673 0z" fill="url(#paint5_linear)"/></g><defs><linearGradient id="paint0_linear" x1="24.711" y1="8.103" x2="32.539" y2="9.1" gradientUnits="userSpaceOnUse"><stop stop-color="#2450A4"/><stop offset="1" stop-color="#41B3CD"/></linearGradient><linearGradient id="paint1_linear" x1="18.997" y1="-.107" x2="44.05" y2="6.899" gradientUnits="userSpaceOnUse"><stop stop-color="#2450A4"/><stop offset="1" stop-color="#41B3CD"/></linearGradient><linearGradient id="paint2_linear" x1="11.575" y1="26.307" x2="43.752" y2="50.272" gradientUnits="userSpaceOnUse"><stop stop-color="#2450A4"/><stop offset="1" stop-color="#41B3CD"/></linearGradient><linearGradient id="paint3_linear" x1="26.538" y1="-4.458" x2="28.396" y2="-4.368" gradientUnits="userSpaceOnUse"><stop stop-color="#2450A4"/><stop offset="1" stop-color="#41B3CD"/></linearGradient><linearGradient id="paint4_linear" x1="32.812" y1="1.663" x2="34.661" y2="1.822" gradientUnits="userSpaceOnUse"><stop stop-color="#2450A4"/><stop offset="1" stop-color="#41B3CD"/></linearGradient><linearGradient id="paint5_linear" x1="20.264" y1="1.663" x2="22.113" y2="1.822" gradientUnits="userSpaceOnUse"><stop stop-color="#2450A4"/><stop offset="1" stop-color="#41B3CD"/></linearGradient><filter id="filter0_d" x="-3" y="0" width="59" height="59" filterUnits="userSpaceOnUse" color-interpolation-filters="sRGB"><feFlood flood-opacity="0" result="BackgroundImageFix"/><feColorMatrix in="SourceAlpha" values="0 0 0 0 0 0 0 0 0 0 0 0 0 0 0 0 0 0 127 0"/><feOffset dy="4"/><feGaussianBlur stdDeviation="2"/><feColorMatrix values="0 0 0 0 0.247059 0 0 0 0 0.670588 0 0 0 0 0.682353 0 0 0 0.27 0"/><feBlend in2="BackgroundImageFix" result="effect1_dropShadow"/><feBlend in="SourceGraphic" in2="effect1_dropShadow" result="shape"/></filter></defs></svg>