<svg width="332" height="192" fill="none" xmlns="http://www.w3.org/2000/svg"><mask id="a" maskUnits="userSpaceOnUse" x="0" y="0" width="332" height="192"><path transform="rotate(-180 332 192)" fill="#C4C4C4" d="M332 192h332v192H332z"/></mask><g mask="url(#a)" stroke="#DCDCDC"><path d="M332.93 206.378c-20.459-11.11-83.384-28.848-113.457-26.065-64.633 5.982-114.851 41.447-136.24 50.847"/><path d="M332.93 189.714c-20.459-11.109-83.384-28.847-113.457-26.064-64.633 5.982-149.26 59.82-170.65 69.22"/><path d="M332.93 172.196c-20.459-11.11-82.806-24.914-112.992-23.501-73.002 3.418-144.145 63.665-213.893 84.175"/><path d="M328.28 157.241c-20.459-11.109-69.748-26.162-108.342-24.355C144.611 136.413 91.602 192.705 0 216.633"/><path d="M328.28 142.286c-20.459-11.11-69.748-26.163-108.342-24.356C144.611 121.458 91.602 177.75 0 201.678"/><path d="M328.28 125.194c-20.459-11.109-69.748-26.162-108.342-24.355C144.611 104.366 91.602 160.659 0 184.587"/><path d="M328.28 108.958c-20.459-11.11-69.748-26.163-108.342-24.356C144.611 88.13 91.602 144.422 0 168.35"/><path d="M328.28 92.72c-20.459-11.108-69.748-26.161-108.342-24.354C144.611 71.893 91.602 128.185 0 152.113"/><path d="M328.28 76.484c-20.459-11.11-69.748-26.162-108.342-24.355C144.611 55.656 91.602 111.949 0 135.877"/><path d="M328.28 61.956c-20.459-11.11-69.748-26.162-108.342-24.355C144.611 41.128 91.602 97.42 0 121.348"/><path d="M328.28 46.574c-20.459-11.11-69.748-26.162-108.342-24.355C144.611 25.746 91.602 82.039 0 105.967"/><path d="M328.28 31.192c-20.459-11.11-69.748-26.163-108.342-24.356C144.611 10.363 91.602 66.656 0 90.584"/><path d="M328.28 14.1c-20.459-11.109-69.748-26.162-108.342-24.355C144.611-6.728 91.602 49.565 0 73.493"/><path d="M328.28-2.137c-20.459-11.11-69.748-26.162-108.342-24.355C144.611-22.965 91.602 33.328 0 57.256"/><path d="M328.28-18.373c-20.459-11.11-69.748-26.162-108.342-24.355C144.611-39.201 91.602 17.092 0 41.019"/><path d="M328.28-37.174c-20.459-11.11-69.748-26.162-108.342-24.355C144.611-58.002 91.602-1.71 0 22.219"/></g></svg>