<svg width="450" height="142" viewBox="0 0 450 142" fill="none" xmlns="http://www.w3.org/2000/svg">
<mask id="mask0_49_3142" style="mask-type:alpha" maskUnits="userSpaceOnUse" x="0" y="0" width="450" height="142">
<rect width="142" height="450" transform="matrix(4.37114e-08 -1 -1 -4.37114e-08 450 142)" fill="#11B687"/>
</mask>
<g mask="url(#mask0_49_3142)">
<mask id="path-2-inside-1_49_3142" fill="white">
<path d="M451.866 737.366C452.314 690.503 450.433 690.503 447.12 690.503C443.627 690.503 438.971 690.324 435.478 655.557C432.523 620.522 436.105 583.784 440.672 547.136C447.926 501.438 456.433 455.651 457.598 407.892C458.762 360.133 446.851 360.312 433.24 360.312C421.419 360.312 408.971 360.133 404.852 325.994C400.016 292.661 411.031 256.73 422.225 221.695C436.195 179.133 451.866 136.66 442.105 99.7435C427.329 67.9342 397.061 76.1779 364.195 85.5863C335.718 94.0986 306.703 102.252 281.271 89.5287C254.047 78.5074 256.107 59.7801 257.988 41.949C260.316 20.9817 262.376 2.43371 217.152 1.00011C170.585 1.00011 124.735 14.4407 79.5116 26.1787C42.706 35.0495 6.16904 42.6659 -29.4724 40.0674C-64.3975 36.6625 -64.6661 28.4189 -65.0244 20.8922C-65.293 12.9173 -65.293 6.28672 -113.024 7.45151C-160.217 8.07871 -205.71 10.946 -250.754 12.4693C-287.291 12.7381 -323.738 12.0212 -358.036 8.1683C-368.156 7.98898 -378.096 7.9891 -387.767 7.8995C-341.022 14.9781 -295.709 16.1432 -250.575 16.1432C-214.217 15.0678 -177.59 12.9173 -143.024 14.0821C-107.651 14.5301 -107.472 20.2649 -107.203 26.7163C-107.203 36.1247 -106.576 46.7877 -59.293 53.0599C-11.3831 58.7947 34.2881 49.655 79.6907 39.3506C116.407 29.7629 153.033 19.2793 187.063 20.8922C220.555 23.4011 219.66 38.0961 218.406 54.3144C216.077 76.4466 213.66 99.8332 252.256 114.976C286.107 134.868 322.106 125.012 355.688 116.32C380.583 110.406 405.3 103.776 416.135 128.865C425.449 155.388 413.449 189.437 401.986 223.935C389.359 266.676 376.643 310.582 385.061 355.742C392.404 402.247 408.613 402.247 423.031 402.247C433.777 402.426 443.628 402.516 444.075 437.73C444.702 473.124 438.165 509.771 432.881 546.33C427.24 592.028 423.031 637.636 429.21 685.127C435.837 732.258 441.836 732.437 446.493 731.989C449.18 732.258 450.881 732.437 451.956 767.025C451.956 757.347 451.777 747.133 451.956 737.097L451.866 737.366ZM-165.232 1466.47C-211.889 1459.66 -257.291 1458.5 -302.515 1458.41C-338.872 1459.75 -375.32 1461.55 -410.245 1460.65C-445.349 1460.02 -445.439 1454.47 -445.886 1448.01C-445.886 1438.7 -446.155 1427.85 -493.796 1421.76C-541.527 1415.85 -587.198 1425.17 -632.601 1435.29C-668.959 1444.61 -705.854 1455.18 -739.884 1453.57C-773.465 1451.24 -772.57 1436.46 -771.406 1420.24C-769.167 1398.28 -766.57 1374.72 -805.167 1359.58C-839.375 1339.95 -875.285 1349.9 -909.046 1358.68C-934.121 1364.68 -958.658 1371.22 -969.583 1346.31C-978.717 1319.79 -966.628 1285.47 -955.434 1251.15C-942.628 1208.59 -930.091 1164.78 -938.15 1119.26C-945.404 1072.57 -961.702 1072.75 -976.299 1072.84C-987.046 1072.66 -996.807 1072.66 -997.344 1037.45C-997.971 1002.23 -991.434 965.229 -985.881 928.581C-980.419 882.882 -976.299 837.364 -982.21 789.784C-989.016 742.652 -995.195 742.831 -999.314 742.652C-1002.27 742.652 -1003.88 742.831 -1005.05 708.155C-1005.05 717.832 -1004.87 727.778 -1004.87 737.276C-1005.31 784.408 -1003.52 784.856 -1000.12 784.766C-996.448 784.587 -992.15 784.766 -988.657 819.532C-985.523 854.747 -989.105 891.305 -993.851 928.222C-1001.11 973.741 -1009.43 1018.99 -1010.69 1066.84C-1011.85 1114.42 -1000.03 1115.05 -986.687 1114.87C-974.867 1114.87 -962.24 1114.87 -957.941 1148.92C-953.374 1182.34 -964.12 1218.18 -975.583 1253.48C-989.553 1296.05 -1004.78 1337.89 -995.195 1374.99C-980.329 1406.71 -950.061 1398.55 -917.375 1389.23C-888.808 1380.54 -859.882 1372.48 -834.271 1385.11C-807.047 1396.13 -808.928 1414.86 -810.808 1432.42C-813.316 1453.48 -814.928 1471.94 -769.704 1473.19C-723.138 1473.19 -677.645 1459.75 -632.511 1448.1C-595.706 1439.41 -558.99 1431.62 -523.617 1434.57C-488.423 1437.71 -488.244 1446.04 -488.065 1453.39C-487.617 1461.37 -487.17 1468 -439.797 1466.83C-392.514 1466.2 -347.38 1463.34 -302.604 1461.81C-265.799 1461.63 -229.53 1462.44 -194.874 1465.94C-185.023 1466.11 -175.173 1466.2 -165.143 1466.2L-165.232 1466.47ZM-74.1586 1468.09C-120.904 1455.27 -166.397 1450.88 -211.889 1447.66C-248.426 1446.76 -284.694 1446.49 -319.619 1441.29C-354.544 1436.28 -354.813 1428.21 -355.26 1419.52C-354.992 1407.6 -354.992 1394.07 -402.723 1382.07C-450.364 1370.15 -495.946 1376.15 -541.527 1383.59C-577.885 1390.67 -614.78 1398.91 -648.989 1393C-682.571 1386.55 -681.854 1369.61 -680.959 1351.33C-678.72 1326.87 -676.66 1300.97 -716.511 1281.17C-752.6 1257.43 -789.764 1265.67 -824.958 1273.11C-851.375 1278.39 -876.987 1283.68 -890.957 1257.61C-903.494 1230.01 -893.643 1195.78 -884.33 1160.83C-874.032 1117.82 -864.27 1073.92 -877.972 1027.95C-891.046 981.447 -909.942 981.716 -927.315 981.716C-940.3 981.716 -952.389 981.716 -957.225 946.501C-962.24 911.287 -958.12 874.639 -954.896 837.812C-952.389 792.114 -951.404 746.326 -963.404 698.925C-975.941 651.615 -984.628 652.063 -991.523 652.242C-996.538 652.421 -1000.48 652.421 -1005.94 617.655C-1005.76 627.78 -1005.67 637.726 -1005.67 647.403C-1000.21 694.445 -995.821 694.535 -989.732 694.535C-983.732 694.266 -977.195 694.266 -969.404 729.032C-962.061 764.247 -963.046 800.895 -965.463 837.722C-969.583 883.062 -975.046 928.58 -970.478 976.339C-965.643 1023.92 -951.135 1024.19 -935.106 1024.19C-920.957 1024.01 -906.091 1023.92 -897.494 1058.06C-888.628 1091.66 -897.315 1127.77 -906.449 1163.07C-918.27 1206.08 -930.807 1248.38 -916.569 1286.64C-897.673 1320.24 -866.062 1313.34 -831.674 1305.37C-802.391 1298.11 -772.48 1291.21 -745.436 1306.98C-717.317 1321.23 -718.75 1341.74 -720.541 1361.64C-722.779 1385.02 -723.943 1405.99 -678.541 1412.71C-631.974 1418.62 -586.482 1408.14 -541.259 1399.27C-504.722 1392.91 -467.916 1387.62 -432.633 1394.97C-397.26 1402.14 -397.439 1412.8 -397.26 1422.66C-396.991 1433.23 -396.633 1442.73 -349.081 1447.39C-301.977 1452.67 -256.664 1452.58 -211.71 1454.02C-175.173 1456.08 -138.456 1459.48 -103.979 1467.28C-94.2181 1467.55 -83.8301 1467.73 -73.89 1468L-74.1586 1468.09ZM17.9002 1470.15C-29.1143 1451.6 -74.7855 1444.25 -120.188 1438.34C-156.904 1434.84 -193.531 1431.89 -228.456 1422.3C-263.381 1412.89 -263.381 1402.85 -263.381 1391.92C-263.381 1376.87 -263.381 1360.65 -311.022 1342.55C-358.753 1324.63 -404.245 1327.68 -449.916 1332.43C-486.453 1337.17 -523.438 1342.91 -557.736 1332.69C-591.497 1321.94 -590.781 1302.95 -589.975 1282.79C-588.184 1255.72 -586.572 1227.41 -627.676 1202.77C-665.645 1175.08 -703.884 1181.44 -740.51 1187.63C-768.182 1191.75 -795.316 1196.32 -812.42 1168.9C-828.36 1140.31 -820.39 1105.55 -813.137 1070.51C-805.525 1026.88 -798.271 982.701 -817.704 936.466C-836.868 889.782 -858.539 889.782 -878.688 890.23C-894.002 890.409 -907.972 890.409 -917.464 855.284C-926.867 820.249 -925.255 783.064 -924.539 746.236C-924.986 700.449 -926.867 654.482 -944.867 606.992C-963.404 559.86 -974.777 559.95 -984.538 560.308C-991.792 560.487 -997.613 560.756 -1007.55 526.259C-1007.28 536.115 -1007.1 546.151 -1006.84 556.007C-995.642 603.139 -988.568 603.139 -979.881 602.691C-972.09 602.422 -963.225 602.243 -951.135 637.188C-939.225 672.223 -937.882 708.961 -937.703 746.057C-938.688 791.845 -941.106 837.274 -930.449 884.943C-919.703 932.254 -902.419 932.702 -883.614 932.344C-867.584 932.165 -850.301 932.075 -837.495 966.393C-824.51 1000.26 -830.868 1036.37 -837.942 1072.04C-846.808 1115.49 -856.927 1158.06 -838.211 1197.66C-815.375 1233.14 -782.062 1227.59 -746.421 1220.96C-715.884 1215.04 -685.168 1209.58 -656.869 1228.49C-627.586 1246.05 -628.84 1268.72 -630.362 1290.31C-632.153 1316.21 -633.497 1339.86 -587.825 1352.32C-541.08 1363.97 -495.319 1356.44 -450.095 1350.44C-413.29 1346.58 -376.395 1343.63 -341.201 1355.45C-306.007 1367.28 -306.097 1380.18 -306.097 1392.01C-305.918 1405.54 -305.918 1417.46 -258.634 1428.21C-211.53 1439.41 -165.77 1442.37 -120.546 1446.94C-83.5615 1451.51 -46.8455 1457.24 -12.2786 1469.34C-2.24887 1469.61 7.60181 1469.79 17.9002 1470.06L17.9002 1470.15ZM109.959 1472.66C63.1237 1448.01 17.4524 1438.07 -28.577 1428.93C-65.293 1423.02 -101.92 1418 -136.845 1404.02C-171.77 1390.22 -171.77 1377.68 -172.038 1364.41C-171.411 1346.85 -171.591 1327.59 -219.321 1303.39C-266.873 1279.56 -312.455 1279.83 -358.574 1281.44C-394.932 1283.68 -431.827 1287.18 -466.304 1272.75C-500.334 1257.88 -499.886 1236.55 -499.349 1214.15C-497.558 1184.58 -496.393 1153.76 -539.02 1124.54C-578.96 1092.74 -618.273 1097.3 -656.601 1101.87C-685.615 1105.1 -714.182 1108.95 -734.421 1080.1C-753.585 1050.35 -747.675 1015.32 -742.57 979.744C-737.287 935.838 -732.72 891.484 -758.063 844.98C-782.779 798.117 -807.584 798.117 -830.599 798.117C-848.151 798.565 -864.629 798.565 -878.509 763.53C-892.39 728.495 -893.106 691.488 -894.718 654.392C-898.121 608.605 -902.778 562.907 -926.957 515.506C-951.404 468.195 -965.732 468.195 -978.269 468.374C-987.672 468.822 -995.821 469.091 -1010.06 434.325C-1009.79 444.45 -1009.61 454.486 -1009.34 464.521C-991.971 511.474 -982.12 511.384 -970.837 511.026C-960.538 510.847 -949.792 510.578 -932.956 545.344C-916.569 580.379 -912.897 617.565 -910.389 654.482C-908.509 700.001 -908.061 745.788 -891.405 793.547C-874.659 840.948 -854.42 840.858 -832.928 840.948C-814.211 840.679 -794.779 840.321 -777.943 874.818C-760.57 909.047 -764.51 945.426 -769.525 981.357C-775.883 1024.99 -783.674 1068.27 -760.122 1109.22C-733.346 1146.59 -698.063 1141.75 -661.078 1136.91C-629.735 1132.52 -598.034 1128.22 -568.393 1150.17C-538.035 1171.23 -538.751 1195.87 -540.005 1219.61C-541.438 1247.84 -542.333 1274.09 -496.573 1292.37C-449.737 1309.94 -403.887 1305.19 -358.484 1302.23C-321.768 1300.8 -284.963 1299.9 -249.769 1316.21C-214.665 1332.6 -214.575 1347.75 -214.575 1361.99C-214.575 1378.21 -214.575 1393.09 -167.113 1409.75C-119.83 1426.96 -74.2482 1432.87 -28.7561 1440.4C8.04953 1447.21 44.5865 1455.27 79.2429 1471.94C89.2726 1472.21 99.7502 1472.39 109.78 1472.66L109.959 1472.66ZM200.854 1473.82C154.018 1443.36 108.437 1430.63 63.1237 1419.34C26.5867 1411.28 -10.1294 1404.02 -45.144 1385.65C-80.069 1367.37 -80.069 1352.5 -80.3376 1336.73C-80.3376 1315.94 -80.6063 1293.72 -128.069 1263.52C-175.71 1233.59 -221.202 1231.26 -266.694 1230.28C-303.231 1230.46 -340.037 1231.62 -374.962 1212.89C-409.17 1193.72 -408.543 1170.33 -408.275 1145.69C-407.29 1113.43 -406.215 1080.1 -450.095 1046.23C-491.916 1010.3 -532.483 1013.53 -572.064 1016.66C-602.601 1018.99 -632.511 1021.32 -655.795 991.214C-678.183 960.3 -674.332 925.176 -671.108 889.692C-668.332 845.338 -666.362 800.805 -697.347 754.122C-727.884 706.99 -755.286 706.811 -781.436 707.079C-801.495 706.9 -820.48 706.811 -838.748 671.596C-857.017 636.561 -859.972 600.003 -863.823 563.265C-869.733 517.477 -877.255 472.048 -907.255 424.648C-937.613 377.337 -954.986 377.247 -970.657 377.247C-982.568 376.978 -993.493 376.978 -1011.94 341.854C-1011.76 352.158 -1011.67 362.194 -1011.31 372.05C-988.21 419.182 -975.404 419.182 -960.807 419.361C-948.27 419.182 -934.747 419.54 -913.703 454.396C-893.106 489.611 -887.196 525.811 -882.449 562.996C-877.972 608.336 -874.659 654.034 -851.823 701.614C-829.166 749.014 -805.973 749.193 -781.256 749.373C-760.301 749.104 -738.54 749.373 -717.317 783.87C-695.645 818.188 -698.063 854.478 -700.66 890.678C-704.511 934.584 -709.794 978.042 -681.675 1020.33C-650.69 1059.85 -613.706 1056.27 -575.288 1052.86C-543.139 1049.64 -510.184 1046.95 -479.379 1072.04C-447.857 1096.32 -448.752 1122.84 -449.289 1148.83C-450.185 1179.74 -451.17 1208.68 -404.961 1232.52C-357.947 1255.9 -311.828 1254.2 -266.784 1253.75C-230.247 1254.47 -193.441 1256.08 -158.068 1276.78C-122.964 1297.57 -123.143 1315.22 -122.875 1331.89C-122.427 1351.33 -122.606 1368.98 -75.3228 1391.83C-28.0396 1414.95 18.0793 1423.82 62.855 1433.68C99.5711 1442.82 136.377 1452.67 171.033 1473.55C180.884 1473.73 190.734 1473.82 200.764 1474L200.854 1473.82ZM287.181 1470.33C240.435 1434.4 196.824 1420.51 152.406 1407.25C116.586 1397.66 80.3175 1388.7 45.3925 1366.03C10.4674 1343.45 10.0197 1325.62 9.30326 1306.98C8.85551 1282.96 7.51225 1256.71 -39.5918 1220.96C-86.6958 1185.3 -131.382 1181.17 -176.337 1177.68C-212.605 1176.07 -249.142 1174.99 -284.067 1152.14C-318.365 1128.85 -318.276 1103.13 -318.097 1076.16C-317.649 1041.57 -317.201 1005.28 -362.156 967.11C-405.499 927.505 -447.319 929.208 -487.976 930.91C-519.766 932.254 -551.02 933.688 -577.437 902.327C-603.228 870.338 -600.989 835.124 -599.646 799.372C-599.198 755.286 -599.198 711.022 -635.467 664.249C-671.735 617.386 -702.63 616.848 -732.003 616.669C-754.57 616.221 -776.242 615.504 -798.898 580.559C-821.555 545.523 -826.301 509.503 -831.763 473.123C-840.181 428.501 -849.136 384.326 -884.778 337.194C-920.598 290.152 -942.27 288.718 -961.523 287.822C-976.389 286.926 -990.269 286.03 -1012.93 251.174C-1013.1 261.3 -1012.93 271.514 -1012.75 281.192C-983.732 328.592 -967.702 328.592 -949.882 329.04C-934.3 329.936 -918.091 330.563 -892.748 365.151C-867.852 400.186 -860.151 436.475 -853.883 472.407C-846.987 517.657 -840.898 563.175 -812.152 610.755C-783.316 658.066 -757.346 658.156 -729.496 658.156C-705.944 658.783 -681.586 658.783 -656.153 693.191C-630.81 727.778 -630.81 764.068 -631.526 799.551C-633.317 844.353 -636.094 888.259 -603.228 931.717C-568.303 973.114 -529.706 970.605 -490.035 968.365C-456.633 966.483 -423.319 965.139 -391.171 993.006C-358.574 1020.51 -358.753 1049.28 -359.38 1077.14C-359.648 1110.83 -360.096 1142.73 -313.529 1172.12C-266.336 1201.34 -220.665 1202.23 -176.158 1204.2C-139.8 1206.89 -103.621 1210.21 -68.6064 1235.12C-33.6814 1260.12 -33.0545 1280.63 -32.5172 1299.9C-31.4426 1322.84 -31.3531 1343.81 15.9301 1372.57C63.3923 1401.42 108.705 1412.8 152.944 1424.54C189.033 1435.29 224.674 1446.76 259.152 1471.94C268.555 1471.67 278.316 1471.22 287.181 1470.15L287.181 1470.33ZM362.046 1455.63C316.375 1414.86 276.883 1402.14 235.6 1389.5C201.301 1379.02 166.735 1369.34 131.989 1342.64C97.6905 1315.85 95.8995 1294.61 94.1084 1273.11C91.7801 1243.9 88.4667 1212.98 42.3477 1172.21C-3.77123 1131.71 -45.9499 1126.87 -89.2032 1122.57C-124.397 1119.17 -159.949 1116.84 -194.695 1090.05C-228.903 1062.81 -229.351 1034.49 -229.62 1005.19C-229.888 967.648 -230.336 928.76 -275.47 887.004C-319.798 844.442 -361.977 844.98 -403.797 845.428C-436.663 846.055 -469.17 846.772 -498.543 814.515C-527.109 781.63 -526.662 746.326 -526.841 710.843C-527.736 667.564 -528.9 624.196 -570.005 578.408C-610.84 532.441 -645.855 530.828 -678.989 529.216C-704.511 528.499 -729.048 527.423 -756.003 492.836C-782.689 458.07 -788.6 422.856 -795.316 387.821C-803.823 345.975 -812.599 304.757 -853.077 258.791C-893.912 212.644 -921.315 208.523 -945.852 204.58C-964.389 202.788 -981.851 200.727 -1008.63 166.14C-1009.79 174.653 -1010.87 183.703 -1011.13 193.111C-976.478 240.243 -956.061 242.035 -933.673 244.544C-914.509 246.336 -894.36 248.397 -865.345 282.715C-836.33 317.033 -828.36 351.531 -820.838 386.297C-812.868 429.934 -805.077 473.84 -770.6 521.241C-735.943 568.193 -706.481 569.269 -674.869 570.254C-648.631 570.971 -621.407 571.688 -592.213 605.737C-563.02 639.966 -561.676 675.449 -561.139 711.112C-560.96 755.018 -561.855 798.924 -524.423 843.367C-485.647 886.556 -445.797 885.391 -404.514 884.316C-370.484 883.42 -336.455 882.972 -303.768 913.617C-270.634 943.813 -270.455 974.727 -270.366 1004.65C-270.366 1041.21 -270.187 1075.8 -223.53 1110.75C-176.516 1145.69 -131.919 1148.47 -87.9495 1152.32C-52.7558 1156.26 -17.9203 1160.74 16.5569 1189.6C50.8551 1218.63 52.6462 1242.46 54.1685 1264.86C55.9595 1291.84 57.3924 1316.83 104.586 1351.33C151.869 1385.92 195.212 1398.37 237.838 1411.01C272.316 1422.48 305.629 1433.86 339.658 1462.89C347.002 1460.56 354.434 1458.32 362.046 1455.81L362.046 1455.63ZM417.299 1421.04C373.688 1376.69 340.106 1367.55 304.554 1357.25C275.271 1349.72 243.57 1340.58 209.63 1310.2C175.869 1279.83 172.824 1254.83 168.078 1227.86C163.063 1193.36 157.332 1156.89 113.541 1112.54C69.7505 1068.36 31.1538 1064.33 -8.4279 1060.12C-41.1141 1057.43 -75.5019 1054.56 -109.352 1024.01C-143.113 993.543 -143.561 962.451 -144.904 930.462C-146.068 890.23 -146.785 848.833 -190.844 804.658C-234.724 760.483 -276.724 760.483 -319.171 760.483C-353.022 760.483 -386.693 760.483 -418.036 727.599C-449.289 694.625 -449.916 659.948 -450.274 625.809C-451.797 583.964 -453.409 543.194 -497.737 499.377C-542.065 455.651 -581.109 452.425 -618.541 449.558C-648.183 446.78 -676.123 444.809 -706.481 410.938C-736.839 377.068 -743.018 344.362 -748.033 313.27C-755.286 275.278 -762.003 239.347 -806.42 195.709C-850.748 151.983 -884.33 143.56 -915.763 136.481C-940.658 130.03 -962.508 125.908 -992.866 91.8585C-995.374 99.4748 -997.702 106.912 -1000.12 114.259C-960.18 160.495 -934.121 165.513 -906.718 169.814C-881.375 175.728 -855.584 181.462 -823.793 214.437C-791.644 247.321 -785.286 277.339 -779.913 308.162C-771.495 349.291 -763.704 390.24 -724.033 436.744C-684.272 482.89 -650.332 485.31 -615.318 487.012C-585.139 489.521 -554.333 491.582 -522.184 524.287C-490.214 557.441 -488.692 590.863 -487.886 624.733C-486.543 668.012 -486.005 710.753 -444.812 755.824C-402.812 799.909 -361.529 799.909 -319.44 799.551C-285.142 799.372 -250.754 799.372 -218.247 831.808C-185.381 863.886 -184.934 896.95 -184.217 929.477C-183.59 968.365 -182.874 1006.27 -136.934 1045.96C-90.5466 1085.93 -47.6514 1089.6 -5.83092 1094.62C26.5867 1097.75 58.5565 1101.52 91.601 1133.33C124.645 1165.4 128.138 1193.72 132.436 1221.41C135.66 1252.5 139.242 1282.43 185.361 1322.03C231.749 1361.91 271.957 1373.46 311.45 1386.01C340.285 1394.25 369.031 1402.76 401.628 1434.93C407.359 1430.99 413.09 1426.87 417.12 1420.95L417.299 1421.04ZM446.672 1360.83C406.911 1314.68 380.762 1309.85 353.449 1305.45C328.106 1299.54 302.315 1293.81 270.346 1260.92C238.555 1227.95 232.197 1197.75 226.465 1167.2C218.048 1126.25 210.257 1084.94 170.585 1038.61C130.825 992.379 97.0637 990.138 61.87 988.257C31.7807 985.748 0.974997 983.687 -31.0844 950.892C-63.0542 917.918 -64.5766 884.406 -65.5617 850.715C-66.9049 807.436 -67.3527 764.426 -108.725 719.624C-150.725 675.449 -191.829 675.539 -234.097 675.718C-268.306 675.718 -302.604 675.897 -335.201 643.64C-368.066 611.382 -368.514 578.229 -369.23 545.703C-369.678 506.815 -370.395 469.091 -416.334 428.859C-462.901 389.254 -505.348 385.222 -547.617 380.652C-579.855 377.426 -612.004 373.753 -645.049 341.943C-678.093 309.955 -681.765 281.55 -686.063 253.862C-689.197 222.591 -692.69 192.573 -738.988 153.148C-785.376 113.184 -825.316 101.715 -864.808 89.0808C-893.822 81.0164 -922.389 72.4144 -955.255 40.3361C-960.896 44.1891 -966.449 48.3109 -970.747 54.3144C-926.867 98.6683 -893.375 107.987 -857.912 118.292C-828.629 125.639 -796.928 134.779 -762.988 165.154C-729.138 195.62 -726.182 220.53 -721.436 247.68C-716.421 282.177 -710.511 318.557 -666.899 363C-623.108 407.175 -584.691 411.207 -544.572 415.329C-511.886 418.017 -477.677 420.974 -443.916 451.439C-410.155 482.084 -409.618 512.908 -408.364 545.165C-407.379 585.577 -406.484 626.794 -362.514 670.969C-318.634 715.144 -276.455 715.144 -234.187 715.502C-200.336 715.323 -166.576 715.233 -135.143 748.028C-103.89 781.182 -103.352 815.68 -102.725 849.819C-101.382 891.664 -99.5912 932.434 -55.2633 975.891C-10.9353 1019.8 28.1091 1023.02 65.7207 1025.8C95.1831 1028.76 123.034 1030.82 153.481 1064.51C183.839 1098.56 189.749 1131.35 195.033 1162.18C202.107 1200.17 208.913 1236.01 253.241 1279.56C297.569 1323.29 331.151 1331.89 362.583 1338.97C387.658 1345.42 409.419 1349.72 439.777 1383.41C442.105 1376.06 444.523 1368.72 446.851 1361.01L446.672 1360.83ZM458.045 1282.34C423.299 1235.38 403.061 1233.59 380.673 1231.08C361.509 1229.29 341.002 1227.14 311.987 1192.82C283.151 1158.59 275.271 1124.01 267.659 1089.24C259.51 1045.96 251.898 1001.7 217.242 954.476C182.764 907.344 153.123 906.448 121.601 905.283C95.3621 904.567 68.1385 903.671 38.7657 869.621C9.39285 835.572 8.58691 799.909 7.69138 764.605C7.69138 720.699 8.2287 676.704 -29.1142 632.171C-67.7109 588.892 -107.651 590.325 -149.024 591.401C-182.874 592.118 -216.903 592.386 -249.679 561.921C-282.724 531.545 -283.082 500.811 -282.992 470.615C-282.813 434.415 -283.171 399.648 -329.828 364.434C-376.932 329.667 -421.17 326.711 -465.409 323.037C-500.96 319.184 -535.527 314.793 -570.184 286.03C-604.392 256.909 -606.183 232.985 -607.616 210.494C-609.228 183.702 -611.019 158.524 -658.123 124.026C-705.227 89.26 -748.391 77.1633 -791.286 64.3499C-825.763 52.8807 -859.077 41.5009 -893.106 12.3796C-900.807 14.8885 -908.33 17.2183 -915.494 19.4584C-869.823 60.5866 -830.151 73.2208 -788.958 85.7653C-754.66 96.249 -720.093 105.926 -685.526 132.718C-650.78 159.509 -649.168 180.477 -647.556 202.071C-645.228 231.372 -641.914 262.375 -595.974 303.234C-549.676 343.646 -507.587 348.484 -464.424 352.875C-428.782 355.832 -393.23 358.341 -358.753 385.132C-324.455 412.372 -324.007 440.776 -323.649 469.987C-323.38 507.89 -323.022 546.599 -277.978 588.444C-233.65 631.006 -191.471 630.558 -149.74 630.289C-116.695 629.662 -84.1883 628.676 -54.9946 660.933C-26.159 693.639 -26.6963 729.481 -26.6068 764.784C-25.6217 807.974 -24.368 851.521 16.5569 896.95C57.4819 942.917 92.7652 944.53 125.899 946.322C151.242 947.308 175.69 948.204 202.555 982.881C229.421 1017.65 235.421 1053.04 242.316 1087.72C250.734 1129.74 259.241 1170.96 299.898 1216.93C340.733 1263.07 367.957 1267.28 393.031 1270.96C411.299 1273.02 428.672 1274.9 455.538 1309.22C456.523 1300.71 457.777 1292.1 458.045 1282.43L458.045 1282.34ZM459.836 1194.08C430.643 1147.04 414.881 1147.39 396.882 1146.5C381.121 1145.78 364.733 1144.88 339.569 1110.12C314.673 1075.17 307.151 1039.15 300.703 1003.13C293.898 958.239 287.719 912.273 258.883 864.783C230.316 817.203 204.257 817.472 176.406 817.024C152.854 816.755 128.407 816.307 102.884 781.809C77.2728 747.312 77.7206 711.201 78.2578 675.628C80.0489 631.275 83.0041 586.831 49.7805 543.642C15.0346 502.066 -23.4725 504.754 -63.502 506.994C-96.6359 508.786 -130.397 510.13 -162.367 482.263C-194.874 454.755 -194.337 425.813 -193.889 397.856C-193.441 364.255 -192.993 332.624 -239.56 302.697C-286.664 273.486 -332.067 272.5 -377.2 270.708C-413.469 268.199 -450.006 264.794 -485.02 239.884C-519.945 214.705 -520.214 194.365 -520.841 174.742C-521.736 151.893 -521.826 130.836 -569.467 102.252C-616.75 73.2208 -662.153 61.9306 -706.391 49.9238C-742.301 39.3504 -778.391 27.7916 -813.226 2.61286C-822.539 2.88166 -831.763 3.32966 -840.808 4.58417C-793.794 40.5153 -750.003 54.4936 -705.854 67.4862C-669.765 77.253 -633.765 86.0341 -598.84 108.883C-563.915 131.553 -563.199 149.295 -562.751 167.843C-561.855 192.125 -560.87 218.379 -513.677 254.221C-466.483 289.883 -421.707 294.005 -376.932 297.41C-340.395 299.202 -304.037 299.74 -269.381 322.858C-235.082 346.244 -234.903 372.229 -235.351 399.021C-235.53 433.967 -235.978 469.898 -191.292 508.159C-147.859 547.764 -105.949 546.061 -65.4721 544.359C-33.5022 543.194 -2.24883 541.581 24.0793 572.942C49.691 604.931 47.8104 640.414 46.288 675.897C46.0194 720.072 46.0194 764.426 82.3772 810.841C118.466 857.704 149.541 858.6 178.735 858.6C201.122 859.496 222.883 859.765 245.629 894.8C268.286 929.835 272.853 966.214 278.674 1002.06C287.092 1046.95 295.778 1091.03 331.599 1137.99C367.598 1185.03 389.091 1186.91 408.523 1187.63C423.389 1188.34 437.09 1189.24 459.926 1224C460.105 1214.42 459.926 1204.29 459.747 1193.99L459.836 1194.08ZM458.314 1103.22C435.031 1056.27 422.314 1056.54 407.896 1056.27C395.27 1056.09 381.658 1056 360.613 1021.23C340.017 986.196 334.196 949.369 329.539 912.631C324.793 867.381 321.569 821.414 298.733 773.745C275.987 726.344 252.794 726.434 228.256 726.344C207.212 726.344 185.361 726.075 164.048 691.578C142.377 657.26 144.615 620.97 147.212 585.218C151.153 541.133 156.526 497.317 128.048 455.292C97.2428 415.687 60.4371 419.182 22.1091 422.766C-10.3085 425.813 -43.1738 428.501 -74.1586 403.501C-105.681 379.039 -104.696 352.337 -103.89 326.621C-102.815 295.887 -102.009 266.855 -148.218 242.662C-195.232 219.275 -241.082 220.978 -286.395 221.426C-323.111 220.709 -360.186 219.186 -395.469 198.577C-430.484 177.699 -430.484 160.316 -430.484 143.47C-430.752 124.205 -430.663 106.195 -478.214 83.5252C-525.497 60.4074 -571.169 51.5366 -616.392 41.6801C-653.198 32.5406 -689.914 22.4152 -724.839 1.44795C-734.6 1.26875 -744.54 1.17927 -754.48 1.00007C-707.466 31.6446 -661.974 44.458 -616.571 55.8376C-579.766 63.9019 -543.229 70.9807 -508.304 89.5286C-473.11 107.629 -473.11 122.772 -473.11 138.273C-473.11 159.33 -472.841 181.552 -425.379 211.748C-377.738 241.676 -332.156 244.006 -286.574 244.902C-249.769 244.723 -212.874 243.379 -178.396 262.285C-144.098 281.55 -144.367 305.026 -145.083 329.578C-145.979 362.014 -146.874 395.437 -103.084 429.307C-61.2632 465.059 -20.4278 462.013 18.7958 458.876C49.3328 456.636 79.3325 454.038 102.616 484.055C125.183 514.969 121.153 550.541 117.929 585.666C115.243 630.289 113.183 675.091 144.347 721.506C174.973 768.637 202.555 768.637 228.615 768.189C248.495 768.637 267.39 768.817 285.748 803.673C304.017 838.887 306.793 875.714 310.644 912.273C316.823 958.239 324.345 1003.76 354.434 1051.16C384.792 1098.47 402.076 1098.56 417.837 1098.29C429.747 1098.47 440.672 1098.47 458.941 1133.33C458.762 1123.47 458.493 1113.43 458.314 1103.13L458.314 1103.22ZM455.986 1010.84C438.613 964.153 428.852 964.601 417.389 964.601C407.538 964.87 396.344 965.049 379.688 930.104C363.3 895.158 359.987 858.062 357.121 821.056C355.33 775.537 354.793 729.391 337.957 681.811C321.3 634.231 301.151 634.679 279.301 634.679C260.853 634.859 241.6 634.679 224.316 600.361C207.033 566.312 211.331 529.932 215.898 494.18C222.346 450.722 230.137 406.817 206.495 366.316C179.63 328.592 144.795 333.61 107.631 338.449C76.2878 343.019 44.4075 346.961 14.9451 324.918C-15.592 303.951 -14.3382 279.131 -13.1741 255.386C-11.8308 227.429 -10.8457 200.907 -56.7856 182.448C-103.8 165.065 -149.203 169.635 -194.695 172.771C-231.679 174.384 -268.485 175.011 -303.768 158.793C-338.962 142.395 -338.962 127.252 -338.783 113.095C-338.962 96.7866 -338.962 81.7332 -386.514 65.2461C-433.797 48.0421 -479.199 41.9491 -524.423 34.6015C-561.587 27.5228 -598.392 19.7272 -633.049 2.97127C-643.526 2.70247 -653.377 2.34407 -663.407 2.07527C-616.392 26.806 -570.721 37.1104 -524.781 45.802C-488.065 51.8055 -451.439 56.8233 -416.603 70.9807C-381.588 84.7797 -381.409 97.2347 -381.409 110.496C-381.857 128.417 -381.678 147.503 -333.947 171.606C-286.306 195.441 -240.724 195.351 -194.963 193.738C-157.979 191.229 -121.263 187.735 -86.6957 202.161C-52.8453 217.214 -53.2931 238.54 -54.1886 261.12C-55.6214 290.69 -56.8751 321.334 -14.2487 350.724C25.6912 382.713 65.0043 377.964 103.064 373.573C132.257 370.348 160.824 366.674 181.063 395.347C200.048 425.275 194.137 460.489 189.033 495.704C183.839 539.789 179.272 584.412 204.794 630.468C229.689 677.51 254.137 677.51 277.331 677.152C294.704 677.331 311.36 676.973 325.061 712.187C338.942 747.222 339.658 784.408 341.449 821.056C344.673 867.023 349.599 912.81 373.688 960.3C398.135 1007.7 412.284 1007.61 425.09 1006.98C434.493 1006.98 442.732 1006.54 456.792 1041.3C456.523 1031.45 456.165 1021.41 456.075 1010.93L455.986 1010.84ZM453.747 919.172C442.374 872.309 435.299 872.488 426.792 872.937C419.001 872.937 409.956 873.205 397.956 838.349C386.136 803.314 384.971 766.128 384.524 729.66C385.509 683.872 388.016 638.084 377.27 590.415C366.613 542.835 349.24 543.015 330.524 543.104C314.136 543.283 297.211 543.104 284.226 508.965C271.152 475.274 277.599 438.984 284.674 403.322C293.539 360.043 303.659 317.033 284.853 277.518C262.017 242.035 228.615 247.949 193.242 254.221C162.884 260.135 132.078 265.421 103.78 246.694C74.4072 228.863 75.7504 206.283 77.2728 184.509C78.8847 158.703 80.4967 134.958 34.6464 122.503C-12.0099 110.675 -57.7706 118.202 -102.994 124.295C-139.979 128.238 -176.784 131.374 -212.157 119.725C-247.082 107.539 -247.082 94.6362 -247.172 82.898C-247.44 69.4575 -247.351 57.2712 -294.813 46.698C-341.917 35.4975 -387.499 32.451 -432.901 27.9708C-469.707 23.2218 -506.423 17.8455 -540.9 5.30098C-551.199 5.12178 -561.049 4.85298 -571.079 4.58418C-524.065 23.401 -478.662 30.8382 -433.349 36.5728C-396.544 40.2465 -359.827 43.0243 -325.082 52.7911C-289.888 62.11 -289.888 72.2352 -290.067 83.1668C-290.246 98.2203 -289.888 114.439 -242.336 132.628C-194.605 150.46 -148.934 147.234 -103.531 142.485C-66.5467 137.825 -29.7411 132.001 4.64666 142.216C38.2284 153.148 37.6911 172.144 36.6165 192.304C34.8255 219.723 33.3927 247.859 74.4967 272.411C112.467 300.277 150.705 293.916 187.063 287.733C214.734 283.88 242.137 279.22 259.152 306.729C275.092 335.312 266.943 370.258 259.868 404.845C252.077 448.93 245.003 493.105 264.614 538.893C283.778 585.756 305.271 585.756 325.599 585.128C340.643 585.397 354.972 585.397 364.375 620.522C373.688 655.736 371.897 692.653 371.449 729.122C371.897 775.358 373.688 821.056 391.777 868.456C410.314 915.767 421.687 915.588 431.448 915.05C438.523 915.23 444.702 914.871 454.463 949.548C454.195 939.691 453.836 929.656 453.747 919.351L453.747 919.172ZM452.583 827.955C446.941 781.272 442.374 781.092 436.463 781.092C430.732 781.272 424.105 781.361 416.404 746.595C408.882 711.649 410.046 674.553 412.285 637.905C416.404 592.207 421.867 546.688 417.031 499.109C412.464 451.35 397.688 451.35 381.658 451.529C367.509 451.529 352.822 451.529 344.405 417.479C335.449 383.788 344.136 347.678 353.27 312.284C364.733 269.453 377.628 226.712 363.3 188.541C344.405 154.94 312.883 161.839 278.763 169.993C249.391 177.072 219.391 183.882 192.525 168.201C164.406 153.596 166.018 133.166 167.809 113.274C170.048 89.9768 171.033 68.9198 125.631 61.841C79.0638 55.9272 33.8404 66.411 -11.5621 75.6402C-48.2782 81.8229 -85.0839 87.1095 -120.546 79.9411C-155.65 72.4144 -155.65 61.8412 -155.65 52.2535C-155.919 41.3219 -156.367 31.9134 -204.098 27.1644C-251.291 21.8778 -296.156 21.9673 -341.111 20.5337C-377.917 18.4727 -414.633 15.247 -449.11 7.09298C-459.409 6.91378 -469.259 6.6451 -479.199 6.4659C-432.364 19.2793 -386.782 23.5803 -341.29 26.6268C-304.932 27.9708 -268.396 28.2396 -233.56 33.5262C-198.366 38.3648 -198.366 46.3397 -197.919 55.0312C-198.366 67.2174 -197.919 80.4787 -150.456 92.7545C-102.725 104.672 -57.1438 98.4891 -11.6517 91.1416C25.1539 83.7942 61.87 75.6401 96.0786 81.5539C129.481 88.1847 128.765 105.12 127.869 123.399C125.631 148.04 123.571 173.936 163.421 193.828C199.51 217.573 236.495 209.329 271.42 202.071C297.927 196.874 323.718 191.409 337.778 217.573C350.315 245.171 340.285 279.579 331.151 314.255C320.853 357.445 311.002 401.799 324.972 447.318C338.046 494.001 356.942 493.732 374.136 493.553C387.121 493.553 399.031 493.732 404.225 528.768C409.061 563.982 404.852 600.988 401.897 637.457C399.389 683.245 398.314 729.212 410.404 776.702C422.941 823.833 431.449 823.565 438.523 823.117C443.538 823.296 447.478 823.117 452.762 857.704C452.583 847.847 452.583 837.991 452.583 827.776L452.583 827.955Z"/>
</mask>
<path d="M451.866 737.366C452.314 690.503 450.433 690.503 447.12 690.503C443.627 690.503 438.971 690.324 435.478 655.557C432.523 620.522 436.105 583.784 440.672 547.136C447.926 501.438 456.433 455.651 457.598 407.892C458.762 360.133 446.851 360.312 433.24 360.312C421.419 360.312 408.971 360.133 404.852 325.994C400.016 292.661 411.031 256.73 422.225 221.695C436.195 179.133 451.866 136.66 442.105 99.7435C427.329 67.9342 397.061 76.1779 364.195 85.5863C335.718 94.0986 306.703 102.252 281.271 89.5287C254.047 78.5074 256.107 59.7801 257.988 41.949C260.316 20.9817 262.376 2.43371 217.152 1.00011C170.585 1.00011 124.735 14.4407 79.5116 26.1787C42.706 35.0495 6.16904 42.6659 -29.4724 40.0674C-64.3975 36.6625 -64.6661 28.4189 -65.0244 20.8922C-65.293 12.9173 -65.293 6.28672 -113.024 7.45151C-160.217 8.07871 -205.71 10.946 -250.754 12.4693C-287.291 12.7381 -323.738 12.0212 -358.036 8.1683C-368.156 7.98898 -378.096 7.9891 -387.767 7.8995C-341.022 14.9781 -295.709 16.1432 -250.575 16.1432C-214.217 15.0678 -177.59 12.9173 -143.024 14.0821C-107.651 14.5301 -107.472 20.2649 -107.203 26.7163C-107.203 36.1247 -106.576 46.7877 -59.293 53.0599C-11.3831 58.7947 34.2881 49.655 79.6907 39.3506C116.407 29.7629 153.033 19.2793 187.063 20.8922C220.555 23.4011 219.66 38.0961 218.406 54.3144C216.077 76.4466 213.66 99.8332 252.256 114.976C286.107 134.868 322.106 125.012 355.688 116.32C380.583 110.406 405.3 103.776 416.135 128.865C425.449 155.388 413.449 189.437 401.986 223.935C389.359 266.676 376.643 310.582 385.061 355.742C392.404 402.247 408.613 402.247 423.031 402.247C433.777 402.426 443.628 402.516 444.075 437.73C444.702 473.124 438.165 509.771 432.881 546.33C427.24 592.028 423.031 637.636 429.21 685.127C435.837 732.258 441.836 732.437 446.493 731.989C449.18 732.258 450.881 732.437 451.956 767.025C451.956 757.347 451.777 747.133 451.956 737.097L451.866 737.366ZM-165.232 1466.47C-211.889 1459.66 -257.291 1458.5 -302.515 1458.41C-338.872 1459.75 -375.32 1461.55 -410.245 1460.65C-445.349 1460.02 -445.439 1454.47 -445.886 1448.01C-445.886 1438.7 -446.155 1427.85 -493.796 1421.76C-541.527 1415.85 -587.198 1425.17 -632.601 1435.29C-668.959 1444.61 -705.854 1455.18 -739.884 1453.57C-773.465 1451.24 -772.57 1436.46 -771.406 1420.24C-769.167 1398.28 -766.57 1374.72 -805.167 1359.58C-839.375 1339.95 -875.285 1349.9 -909.046 1358.68C-934.121 1364.68 -958.658 1371.22 -969.583 1346.31C-978.717 1319.79 -966.628 1285.47 -955.434 1251.15C-942.628 1208.59 -930.091 1164.78 -938.15 1119.26C-945.404 1072.57 -961.702 1072.75 -976.299 1072.84C-987.046 1072.66 -996.807 1072.66 -997.344 1037.45C-997.971 1002.23 -991.434 965.229 -985.881 928.581C-980.419 882.882 -976.299 837.364 -982.21 789.784C-989.016 742.652 -995.195 742.831 -999.314 742.652C-1002.27 742.652 -1003.88 742.831 -1005.05 708.155C-1005.05 717.832 -1004.87 727.778 -1004.87 737.276C-1005.31 784.408 -1003.52 784.856 -1000.12 784.766C-996.448 784.587 -992.15 784.766 -988.657 819.532C-985.523 854.747 -989.105 891.305 -993.851 928.222C-1001.11 973.741 -1009.43 1018.99 -1010.69 1066.84C-1011.85 1114.42 -1000.03 1115.05 -986.687 1114.87C-974.867 1114.87 -962.24 1114.87 -957.941 1148.92C-953.374 1182.34 -964.12 1218.18 -975.583 1253.48C-989.553 1296.05 -1004.78 1337.89 -995.195 1374.99C-980.329 1406.71 -950.061 1398.55 -917.375 1389.23C-888.808 1380.54 -859.882 1372.48 -834.271 1385.11C-807.047 1396.13 -808.928 1414.86 -810.808 1432.42C-813.316 1453.48 -814.928 1471.94 -769.704 1473.19C-723.138 1473.19 -677.645 1459.75 -632.511 1448.1C-595.706 1439.41 -558.99 1431.62 -523.617 1434.57C-488.423 1437.71 -488.244 1446.04 -488.065 1453.39C-487.617 1461.37 -487.17 1468 -439.797 1466.83C-392.514 1466.2 -347.38 1463.34 -302.604 1461.81C-265.799 1461.63 -229.53 1462.44 -194.874 1465.94C-185.023 1466.11 -175.173 1466.2 -165.143 1466.2L-165.232 1466.47ZM-74.1586 1468.09C-120.904 1455.27 -166.397 1450.88 -211.889 1447.66C-248.426 1446.76 -284.694 1446.49 -319.619 1441.29C-354.544 1436.28 -354.813 1428.21 -355.26 1419.52C-354.992 1407.6 -354.992 1394.07 -402.723 1382.07C-450.364 1370.15 -495.946 1376.15 -541.527 1383.59C-577.885 1390.67 -614.78 1398.91 -648.989 1393C-682.571 1386.55 -681.854 1369.61 -680.959 1351.33C-678.72 1326.87 -676.66 1300.97 -716.511 1281.17C-752.6 1257.43 -789.764 1265.67 -824.958 1273.11C-851.375 1278.39 -876.987 1283.68 -890.957 1257.61C-903.494 1230.01 -893.643 1195.78 -884.33 1160.83C-874.032 1117.82 -864.27 1073.92 -877.972 1027.95C-891.046 981.447 -909.942 981.716 -927.315 981.716C-940.3 981.716 -952.389 981.716 -957.225 946.501C-962.24 911.287 -958.12 874.639 -954.896 837.812C-952.389 792.114 -951.404 746.326 -963.404 698.925C-975.941 651.615 -984.628 652.063 -991.523 652.242C-996.538 652.421 -1000.48 652.421 -1005.94 617.655C-1005.76 627.78 -1005.67 637.726 -1005.67 647.403C-1000.21 694.445 -995.821 694.535 -989.732 694.535C-983.732 694.266 -977.195 694.266 -969.404 729.032C-962.061 764.247 -963.046 800.895 -965.463 837.722C-969.583 883.062 -975.046 928.58 -970.478 976.339C-965.643 1023.92 -951.135 1024.19 -935.106 1024.19C-920.957 1024.01 -906.091 1023.92 -897.494 1058.06C-888.628 1091.66 -897.315 1127.77 -906.449 1163.07C-918.27 1206.08 -930.807 1248.38 -916.569 1286.64C-897.673 1320.24 -866.062 1313.34 -831.674 1305.37C-802.391 1298.11 -772.48 1291.21 -745.436 1306.98C-717.317 1321.23 -718.75 1341.74 -720.541 1361.64C-722.779 1385.02 -723.943 1405.99 -678.541 1412.71C-631.974 1418.62 -586.482 1408.14 -541.259 1399.27C-504.722 1392.91 -467.916 1387.62 -432.633 1394.97C-397.26 1402.14 -397.439 1412.8 -397.26 1422.66C-396.991 1433.23 -396.633 1442.73 -349.081 1447.39C-301.977 1452.67 -256.664 1452.58 -211.71 1454.02C-175.173 1456.08 -138.456 1459.48 -103.979 1467.28C-94.2181 1467.55 -83.8301 1467.73 -73.89 1468L-74.1586 1468.09ZM17.9002 1470.15C-29.1143 1451.6 -74.7855 1444.25 -120.188 1438.34C-156.904 1434.84 -193.531 1431.89 -228.456 1422.3C-263.381 1412.89 -263.381 1402.85 -263.381 1391.92C-263.381 1376.87 -263.381 1360.65 -311.022 1342.55C-358.753 1324.63 -404.245 1327.68 -449.916 1332.43C-486.453 1337.17 -523.438 1342.91 -557.736 1332.69C-591.497 1321.94 -590.781 1302.95 -589.975 1282.79C-588.184 1255.72 -586.572 1227.41 -627.676 1202.77C-665.645 1175.08 -703.884 1181.44 -740.51 1187.63C-768.182 1191.75 -795.316 1196.32 -812.42 1168.9C-828.36 1140.31 -820.39 1105.55 -813.137 1070.51C-805.525 1026.88 -798.271 982.701 -817.704 936.466C-836.868 889.782 -858.539 889.782 -878.688 890.23C-894.002 890.409 -907.972 890.409 -917.464 855.284C-926.867 820.249 -925.255 783.064 -924.539 746.236C-924.986 700.449 -926.867 654.482 -944.867 606.992C-963.404 559.86 -974.777 559.95 -984.538 560.308C-991.792 560.487 -997.613 560.756 -1007.55 526.259C-1007.28 536.115 -1007.1 546.151 -1006.84 556.007C-995.642 603.139 -988.568 603.139 -979.881 602.691C-972.09 602.422 -963.225 602.243 -951.135 637.188C-939.225 672.223 -937.882 708.961 -937.703 746.057C-938.688 791.845 -941.106 837.274 -930.449 884.943C-919.703 932.254 -902.419 932.702 -883.614 932.344C-867.584 932.165 -850.301 932.075 -837.495 966.393C-824.51 1000.26 -830.868 1036.37 -837.942 1072.04C-846.808 1115.49 -856.927 1158.06 -838.211 1197.66C-815.375 1233.14 -782.062 1227.59 -746.421 1220.96C-715.884 1215.04 -685.168 1209.58 -656.869 1228.49C-627.586 1246.05 -628.84 1268.72 -630.362 1290.31C-632.153 1316.21 -633.497 1339.86 -587.825 1352.32C-541.08 1363.97 -495.319 1356.44 -450.095 1350.44C-413.29 1346.58 -376.395 1343.63 -341.201 1355.45C-306.007 1367.28 -306.097 1380.18 -306.097 1392.01C-305.918 1405.54 -305.918 1417.46 -258.634 1428.21C-211.53 1439.41 -165.77 1442.37 -120.546 1446.94C-83.5615 1451.51 -46.8455 1457.24 -12.2786 1469.34C-2.24887 1469.61 7.60181 1469.79 17.9002 1470.06L17.9002 1470.15ZM109.959 1472.66C63.1237 1448.01 17.4524 1438.07 -28.577 1428.93C-65.293 1423.02 -101.92 1418 -136.845 1404.02C-171.77 1390.22 -171.77 1377.68 -172.038 1364.41C-171.411 1346.85 -171.591 1327.59 -219.321 1303.39C-266.873 1279.56 -312.455 1279.83 -358.574 1281.44C-394.932 1283.68 -431.827 1287.18 -466.304 1272.75C-500.334 1257.88 -499.886 1236.55 -499.349 1214.15C-497.558 1184.58 -496.393 1153.76 -539.02 1124.54C-578.96 1092.74 -618.273 1097.3 -656.601 1101.87C-685.615 1105.1 -714.182 1108.95 -734.421 1080.1C-753.585 1050.35 -747.675 1015.32 -742.57 979.744C-737.287 935.838 -732.72 891.484 -758.063 844.98C-782.779 798.117 -807.584 798.117 -830.599 798.117C-848.151 798.565 -864.629 798.565 -878.509 763.53C-892.39 728.495 -893.106 691.488 -894.718 654.392C-898.121 608.605 -902.778 562.907 -926.957 515.506C-951.404 468.195 -965.732 468.195 -978.269 468.374C-987.672 468.822 -995.821 469.091 -1010.06 434.325C-1009.79 444.45 -1009.61 454.486 -1009.34 464.521C-991.971 511.474 -982.12 511.384 -970.837 511.026C-960.538 510.847 -949.792 510.578 -932.956 545.344C-916.569 580.379 -912.897 617.565 -910.389 654.482C-908.509 700.001 -908.061 745.788 -891.405 793.547C-874.659 840.948 -854.42 840.858 -832.928 840.948C-814.211 840.679 -794.779 840.321 -777.943 874.818C-760.57 909.047 -764.51 945.426 -769.525 981.357C-775.883 1024.99 -783.674 1068.27 -760.122 1109.22C-733.346 1146.59 -698.063 1141.75 -661.078 1136.91C-629.735 1132.52 -598.034 1128.22 -568.393 1150.17C-538.035 1171.23 -538.751 1195.87 -540.005 1219.61C-541.438 1247.84 -542.333 1274.09 -496.573 1292.37C-449.737 1309.94 -403.887 1305.19 -358.484 1302.23C-321.768 1300.8 -284.963 1299.9 -249.769 1316.21C-214.665 1332.6 -214.575 1347.75 -214.575 1361.99C-214.575 1378.21 -214.575 1393.09 -167.113 1409.75C-119.83 1426.96 -74.2482 1432.87 -28.7561 1440.4C8.04953 1447.21 44.5865 1455.27 79.2429 1471.94C89.2726 1472.21 99.7502 1472.39 109.78 1472.66L109.959 1472.66ZM200.854 1473.82C154.018 1443.36 108.437 1430.63 63.1237 1419.34C26.5867 1411.28 -10.1294 1404.02 -45.144 1385.65C-80.069 1367.37 -80.069 1352.5 -80.3376 1336.73C-80.3376 1315.94 -80.6063 1293.72 -128.069 1263.52C-175.71 1233.59 -221.202 1231.26 -266.694 1230.28C-303.231 1230.46 -340.037 1231.62 -374.962 1212.89C-409.17 1193.72 -408.543 1170.33 -408.275 1145.69C-407.29 1113.43 -406.215 1080.1 -450.095 1046.23C-491.916 1010.3 -532.483 1013.53 -572.064 1016.66C-602.601 1018.99 -632.511 1021.32 -655.795 991.214C-678.183 960.3 -674.332 925.176 -671.108 889.692C-668.332 845.338 -666.362 800.805 -697.347 754.122C-727.884 706.99 -755.286 706.811 -781.436 707.079C-801.495 706.9 -820.48 706.811 -838.748 671.596C-857.017 636.561 -859.972 600.003 -863.823 563.265C-869.733 517.477 -877.255 472.048 -907.255 424.648C-937.613 377.337 -954.986 377.247 -970.657 377.247C-982.568 376.978 -993.493 376.978 -1011.94 341.854C-1011.76 352.158 -1011.67 362.194 -1011.31 372.05C-988.21 419.182 -975.404 419.182 -960.807 419.361C-948.27 419.182 -934.747 419.54 -913.703 454.396C-893.106 489.611 -887.196 525.811 -882.449 562.996C-877.972 608.336 -874.659 654.034 -851.823 701.614C-829.166 749.014 -805.973 749.193 -781.256 749.373C-760.301 749.104 -738.54 749.373 -717.317 783.87C-695.645 818.188 -698.063 854.478 -700.66 890.678C-704.511 934.584 -709.794 978.042 -681.675 1020.33C-650.69 1059.85 -613.706 1056.27 -575.288 1052.86C-543.139 1049.64 -510.184 1046.95 -479.379 1072.04C-447.857 1096.32 -448.752 1122.84 -449.289 1148.83C-450.185 1179.74 -451.17 1208.68 -404.961 1232.52C-357.947 1255.9 -311.828 1254.2 -266.784 1253.75C-230.247 1254.47 -193.441 1256.08 -158.068 1276.78C-122.964 1297.57 -123.143 1315.22 -122.875 1331.89C-122.427 1351.33 -122.606 1368.98 -75.3228 1391.83C-28.0396 1414.95 18.0793 1423.82 62.855 1433.68C99.5711 1442.82 136.377 1452.67 171.033 1473.55C180.884 1473.73 190.734 1473.82 200.764 1474L200.854 1473.82ZM287.181 1470.33C240.435 1434.4 196.824 1420.51 152.406 1407.25C116.586 1397.66 80.3175 1388.7 45.3925 1366.03C10.4674 1343.45 10.0197 1325.62 9.30326 1306.98C8.85551 1282.96 7.51225 1256.71 -39.5918 1220.96C-86.6958 1185.3 -131.382 1181.17 -176.337 1177.68C-212.605 1176.07 -249.142 1174.99 -284.067 1152.14C-318.365 1128.85 -318.276 1103.13 -318.097 1076.16C-317.649 1041.57 -317.201 1005.28 -362.156 967.11C-405.499 927.505 -447.319 929.208 -487.976 930.91C-519.766 932.254 -551.02 933.688 -577.437 902.327C-603.228 870.338 -600.989 835.124 -599.646 799.372C-599.198 755.286 -599.198 711.022 -635.467 664.249C-671.735 617.386 -702.63 616.848 -732.003 616.669C-754.57 616.221 -776.242 615.504 -798.898 580.559C-821.555 545.523 -826.301 509.503 -831.763 473.123C-840.181 428.501 -849.136 384.326 -884.778 337.194C-920.598 290.152 -942.27 288.718 -961.523 287.822C-976.389 286.926 -990.269 286.03 -1012.93 251.174C-1013.1 261.3 -1012.93 271.514 -1012.75 281.192C-983.732 328.592 -967.702 328.592 -949.882 329.04C-934.3 329.936 -918.091 330.563 -892.748 365.151C-867.852 400.186 -860.151 436.475 -853.883 472.407C-846.987 517.657 -840.898 563.175 -812.152 610.755C-783.316 658.066 -757.346 658.156 -729.496 658.156C-705.944 658.783 -681.586 658.783 -656.153 693.191C-630.81 727.778 -630.81 764.068 -631.526 799.551C-633.317 844.353 -636.094 888.259 -603.228 931.717C-568.303 973.114 -529.706 970.605 -490.035 968.365C-456.633 966.483 -423.319 965.139 -391.171 993.006C-358.574 1020.51 -358.753 1049.28 -359.38 1077.14C-359.648 1110.83 -360.096 1142.73 -313.529 1172.12C-266.336 1201.34 -220.665 1202.23 -176.158 1204.2C-139.8 1206.89 -103.621 1210.21 -68.6064 1235.12C-33.6814 1260.12 -33.0545 1280.63 -32.5172 1299.9C-31.4426 1322.84 -31.3531 1343.81 15.9301 1372.57C63.3923 1401.42 108.705 1412.8 152.944 1424.54C189.033 1435.29 224.674 1446.76 259.152 1471.94C268.555 1471.67 278.316 1471.22 287.181 1470.15L287.181 1470.33ZM362.046 1455.63C316.375 1414.86 276.883 1402.14 235.6 1389.5C201.301 1379.02 166.735 1369.34 131.989 1342.64C97.6905 1315.85 95.8995 1294.61 94.1084 1273.11C91.7801 1243.9 88.4667 1212.98 42.3477 1172.21C-3.77123 1131.71 -45.9499 1126.87 -89.2032 1122.57C-124.397 1119.17 -159.949 1116.84 -194.695 1090.05C-228.903 1062.81 -229.351 1034.49 -229.62 1005.19C-229.888 967.648 -230.336 928.76 -275.47 887.004C-319.798 844.442 -361.977 844.98 -403.797 845.428C-436.663 846.055 -469.17 846.772 -498.543 814.515C-527.109 781.63 -526.662 746.326 -526.841 710.843C-527.736 667.564 -528.9 624.196 -570.005 578.408C-610.84 532.441 -645.855 530.828 -678.989 529.216C-704.511 528.499 -729.048 527.423 -756.003 492.836C-782.689 458.07 -788.6 422.856 -795.316 387.821C-803.823 345.975 -812.599 304.757 -853.077 258.791C-893.912 212.644 -921.315 208.523 -945.852 204.58C-964.389 202.788 -981.851 200.727 -1008.63 166.14C-1009.79 174.653 -1010.87 183.703 -1011.13 193.111C-976.478 240.243 -956.061 242.035 -933.673 244.544C-914.509 246.336 -894.36 248.397 -865.345 282.715C-836.33 317.033 -828.36 351.531 -820.838 386.297C-812.868 429.934 -805.077 473.84 -770.6 521.241C-735.943 568.193 -706.481 569.269 -674.869 570.254C-648.631 570.971 -621.407 571.688 -592.213 605.737C-563.02 639.966 -561.676 675.449 -561.139 711.112C-560.96 755.018 -561.855 798.924 -524.423 843.367C-485.647 886.556 -445.797 885.391 -404.514 884.316C-370.484 883.42 -336.455 882.972 -303.768 913.617C-270.634 943.813 -270.455 974.727 -270.366 1004.65C-270.366 1041.21 -270.187 1075.8 -223.53 1110.75C-176.516 1145.69 -131.919 1148.47 -87.9495 1152.32C-52.7558 1156.26 -17.9203 1160.74 16.5569 1189.6C50.8551 1218.63 52.6462 1242.46 54.1685 1264.86C55.9595 1291.84 57.3924 1316.83 104.586 1351.33C151.869 1385.92 195.212 1398.37 237.838 1411.01C272.316 1422.48 305.629 1433.86 339.658 1462.89C347.002 1460.56 354.434 1458.32 362.046 1455.81L362.046 1455.63ZM417.299 1421.04C373.688 1376.69 340.106 1367.55 304.554 1357.25C275.271 1349.72 243.57 1340.58 209.63 1310.2C175.869 1279.83 172.824 1254.83 168.078 1227.86C163.063 1193.36 157.332 1156.89 113.541 1112.54C69.7505 1068.36 31.1538 1064.33 -8.4279 1060.12C-41.1141 1057.43 -75.5019 1054.56 -109.352 1024.01C-143.113 993.543 -143.561 962.451 -144.904 930.462C-146.068 890.23 -146.785 848.833 -190.844 804.658C-234.724 760.483 -276.724 760.483 -319.171 760.483C-353.022 760.483 -386.693 760.483 -418.036 727.599C-449.289 694.625 -449.916 659.948 -450.274 625.809C-451.797 583.964 -453.409 543.194 -497.737 499.377C-542.065 455.651 -581.109 452.425 -618.541 449.558C-648.183 446.78 -676.123 444.809 -706.481 410.938C-736.839 377.068 -743.018 344.362 -748.033 313.27C-755.286 275.278 -762.003 239.347 -806.42 195.709C-850.748 151.983 -884.33 143.56 -915.763 136.481C-940.658 130.03 -962.508 125.908 -992.866 91.8585C-995.374 99.4748 -997.702 106.912 -1000.12 114.259C-960.18 160.495 -934.121 165.513 -906.718 169.814C-881.375 175.728 -855.584 181.462 -823.793 214.437C-791.644 247.321 -785.286 277.339 -779.913 308.162C-771.495 349.291 -763.704 390.24 -724.033 436.744C-684.272 482.89 -650.332 485.31 -615.318 487.012C-585.139 489.521 -554.333 491.582 -522.184 524.287C-490.214 557.441 -488.692 590.863 -487.886 624.733C-486.543 668.012 -486.005 710.753 -444.812 755.824C-402.812 799.909 -361.529 799.909 -319.44 799.551C-285.142 799.372 -250.754 799.372 -218.247 831.808C-185.381 863.886 -184.934 896.95 -184.217 929.477C-183.59 968.365 -182.874 1006.27 -136.934 1045.96C-90.5466 1085.93 -47.6514 1089.6 -5.83092 1094.62C26.5867 1097.75 58.5565 1101.52 91.601 1133.33C124.645 1165.4 128.138 1193.72 132.436 1221.41C135.66 1252.5 139.242 1282.43 185.361 1322.03C231.749 1361.91 271.957 1373.46 311.45 1386.01C340.285 1394.25 369.031 1402.76 401.628 1434.93C407.359 1430.99 413.09 1426.87 417.12 1420.95L417.299 1421.04ZM446.672 1360.83C406.911 1314.68 380.762 1309.85 353.449 1305.45C328.106 1299.54 302.315 1293.81 270.346 1260.92C238.555 1227.95 232.197 1197.75 226.465 1167.2C218.048 1126.25 210.257 1084.94 170.585 1038.61C130.825 992.379 97.0637 990.138 61.87 988.257C31.7807 985.748 0.974997 983.687 -31.0844 950.892C-63.0542 917.918 -64.5766 884.406 -65.5617 850.715C-66.9049 807.436 -67.3527 764.426 -108.725 719.624C-150.725 675.449 -191.829 675.539 -234.097 675.718C-268.306 675.718 -302.604 675.897 -335.201 643.64C-368.066 611.382 -368.514 578.229 -369.23 545.703C-369.678 506.815 -370.395 469.091 -416.334 428.859C-462.901 389.254 -505.348 385.222 -547.617 380.652C-579.855 377.426 -612.004 373.753 -645.049 341.943C-678.093 309.955 -681.765 281.55 -686.063 253.862C-689.197 222.591 -692.69 192.573 -738.988 153.148C-785.376 113.184 -825.316 101.715 -864.808 89.0808C-893.822 81.0164 -922.389 72.4144 -955.255 40.3361C-960.896 44.1891 -966.449 48.3109 -970.747 54.3144C-926.867 98.6683 -893.375 107.987 -857.912 118.292C-828.629 125.639 -796.928 134.779 -762.988 165.154C-729.138 195.62 -726.182 220.53 -721.436 247.68C-716.421 282.177 -710.511 318.557 -666.899 363C-623.108 407.175 -584.691 411.207 -544.572 415.329C-511.886 418.017 -477.677 420.974 -443.916 451.439C-410.155 482.084 -409.618 512.908 -408.364 545.165C-407.379 585.577 -406.484 626.794 -362.514 670.969C-318.634 715.144 -276.455 715.144 -234.187 715.502C-200.336 715.323 -166.576 715.233 -135.143 748.028C-103.89 781.182 -103.352 815.68 -102.725 849.819C-101.382 891.664 -99.5912 932.434 -55.2633 975.891C-10.9353 1019.8 28.1091 1023.02 65.7207 1025.8C95.1831 1028.76 123.034 1030.82 153.481 1064.51C183.839 1098.56 189.749 1131.35 195.033 1162.18C202.107 1200.17 208.913 1236.01 253.241 1279.56C297.569 1323.29 331.151 1331.89 362.583 1338.97C387.658 1345.42 409.419 1349.72 439.777 1383.41C442.105 1376.06 444.523 1368.72 446.851 1361.01L446.672 1360.83ZM458.045 1282.34C423.299 1235.38 403.061 1233.59 380.673 1231.08C361.509 1229.29 341.002 1227.14 311.987 1192.82C283.151 1158.59 275.271 1124.01 267.659 1089.24C259.51 1045.96 251.898 1001.7 217.242 954.476C182.764 907.344 153.123 906.448 121.601 905.283C95.3621 904.567 68.1385 903.671 38.7657 869.621C9.39285 835.572 8.58691 799.909 7.69138 764.605C7.69138 720.699 8.2287 676.704 -29.1142 632.171C-67.7109 588.892 -107.651 590.325 -149.024 591.401C-182.874 592.118 -216.903 592.386 -249.679 561.921C-282.724 531.545 -283.082 500.811 -282.992 470.615C-282.813 434.415 -283.171 399.648 -329.828 364.434C-376.932 329.667 -421.17 326.711 -465.409 323.037C-500.96 319.184 -535.527 314.793 -570.184 286.03C-604.392 256.909 -606.183 232.985 -607.616 210.494C-609.228 183.702 -611.019 158.524 -658.123 124.026C-705.227 89.26 -748.391 77.1633 -791.286 64.3499C-825.763 52.8807 -859.077 41.5009 -893.106 12.3796C-900.807 14.8885 -908.33 17.2183 -915.494 19.4584C-869.823 60.5866 -830.151 73.2208 -788.958 85.7653C-754.66 96.249 -720.093 105.926 -685.526 132.718C-650.78 159.509 -649.168 180.477 -647.556 202.071C-645.228 231.372 -641.914 262.375 -595.974 303.234C-549.676 343.646 -507.587 348.484 -464.424 352.875C-428.782 355.832 -393.23 358.341 -358.753 385.132C-324.455 412.372 -324.007 440.776 -323.649 469.987C-323.38 507.89 -323.022 546.599 -277.978 588.444C-233.65 631.006 -191.471 630.558 -149.74 630.289C-116.695 629.662 -84.1883 628.676 -54.9946 660.933C-26.159 693.639 -26.6963 729.481 -26.6068 764.784C-25.6217 807.974 -24.368 851.521 16.5569 896.95C57.4819 942.917 92.7652 944.53 125.899 946.322C151.242 947.308 175.69 948.204 202.555 982.881C229.421 1017.65 235.421 1053.04 242.316 1087.72C250.734 1129.74 259.241 1170.96 299.898 1216.93C340.733 1263.07 367.957 1267.28 393.031 1270.96C411.299 1273.02 428.672 1274.9 455.538 1309.22C456.523 1300.71 457.777 1292.1 458.045 1282.43L458.045 1282.34ZM459.836 1194.08C430.643 1147.04 414.881 1147.39 396.882 1146.5C381.121 1145.78 364.733 1144.88 339.569 1110.12C314.673 1075.17 307.151 1039.15 300.703 1003.13C293.898 958.239 287.719 912.273 258.883 864.783C230.316 817.203 204.257 817.472 176.406 817.024C152.854 816.755 128.407 816.307 102.884 781.809C77.2728 747.312 77.7206 711.201 78.2578 675.628C80.0489 631.275 83.0041 586.831 49.7805 543.642C15.0346 502.066 -23.4725 504.754 -63.502 506.994C-96.6359 508.786 -130.397 510.13 -162.367 482.263C-194.874 454.755 -194.337 425.813 -193.889 397.856C-193.441 364.255 -192.993 332.624 -239.56 302.697C-286.664 273.486 -332.067 272.5 -377.2 270.708C-413.469 268.199 -450.006 264.794 -485.02 239.884C-519.945 214.705 -520.214 194.365 -520.841 174.742C-521.736 151.893 -521.826 130.836 -569.467 102.252C-616.75 73.2208 -662.153 61.9306 -706.391 49.9238C-742.301 39.3504 -778.391 27.7916 -813.226 2.61286C-822.539 2.88166 -831.763 3.32966 -840.808 4.58417C-793.794 40.5153 -750.003 54.4936 -705.854 67.4862C-669.765 77.253 -633.765 86.0341 -598.84 108.883C-563.915 131.553 -563.199 149.295 -562.751 167.843C-561.855 192.125 -560.87 218.379 -513.677 254.221C-466.483 289.883 -421.707 294.005 -376.932 297.41C-340.395 299.202 -304.037 299.74 -269.381 322.858C-235.082 346.244 -234.903 372.229 -235.351 399.021C-235.53 433.967 -235.978 469.898 -191.292 508.159C-147.859 547.764 -105.949 546.061 -65.4721 544.359C-33.5022 543.194 -2.24883 541.581 24.0793 572.942C49.691 604.931 47.8104 640.414 46.288 675.897C46.0194 720.072 46.0194 764.426 82.3772 810.841C118.466 857.704 149.541 858.6 178.735 858.6C201.122 859.496 222.883 859.765 245.629 894.8C268.286 929.835 272.853 966.214 278.674 1002.06C287.092 1046.95 295.778 1091.03 331.599 1137.99C367.598 1185.03 389.091 1186.91 408.523 1187.63C423.389 1188.34 437.09 1189.24 459.926 1224C460.105 1214.42 459.926 1204.29 459.747 1193.99L459.836 1194.08ZM458.314 1103.22C435.031 1056.27 422.314 1056.54 407.896 1056.27C395.27 1056.09 381.658 1056 360.613 1021.23C340.017 986.196 334.196 949.369 329.539 912.631C324.793 867.381 321.569 821.414 298.733 773.745C275.987 726.344 252.794 726.434 228.256 726.344C207.212 726.344 185.361 726.075 164.048 691.578C142.377 657.26 144.615 620.97 147.212 585.218C151.153 541.133 156.526 497.317 128.048 455.292C97.2428 415.687 60.4371 419.182 22.1091 422.766C-10.3085 425.813 -43.1738 428.501 -74.1586 403.501C-105.681 379.039 -104.696 352.337 -103.89 326.621C-102.815 295.887 -102.009 266.855 -148.218 242.662C-195.232 219.275 -241.082 220.978 -286.395 221.426C-323.111 220.709 -360.186 219.186 -395.469 198.577C-430.484 177.699 -430.484 160.316 -430.484 143.47C-430.752 124.205 -430.663 106.195 -478.214 83.5252C-525.497 60.4074 -571.169 51.5366 -616.392 41.6801C-653.198 32.5406 -689.914 22.4152 -724.839 1.44795C-734.6 1.26875 -744.54 1.17927 -754.48 1.00007C-707.466 31.6446 -661.974 44.458 -616.571 55.8376C-579.766 63.9019 -543.229 70.9807 -508.304 89.5286C-473.11 107.629 -473.11 122.772 -473.11 138.273C-473.11 159.33 -472.841 181.552 -425.379 211.748C-377.738 241.676 -332.156 244.006 -286.574 244.902C-249.769 244.723 -212.874 243.379 -178.396 262.285C-144.098 281.55 -144.367 305.026 -145.083 329.578C-145.979 362.014 -146.874 395.437 -103.084 429.307C-61.2632 465.059 -20.4278 462.013 18.7958 458.876C49.3328 456.636 79.3325 454.038 102.616 484.055C125.183 514.969 121.153 550.541 117.929 585.666C115.243 630.289 113.183 675.091 144.347 721.506C174.973 768.637 202.555 768.637 228.615 768.189C248.495 768.637 267.39 768.817 285.748 803.673C304.017 838.887 306.793 875.714 310.644 912.273C316.823 958.239 324.345 1003.76 354.434 1051.16C384.792 1098.47 402.076 1098.56 417.837 1098.29C429.747 1098.47 440.672 1098.47 458.941 1133.33C458.762 1123.47 458.493 1113.43 458.314 1103.13L458.314 1103.22ZM455.986 1010.84C438.613 964.153 428.852 964.601 417.389 964.601C407.538 964.87 396.344 965.049 379.688 930.104C363.3 895.158 359.987 858.062 357.121 821.056C355.33 775.537 354.793 729.391 337.957 681.811C321.3 634.231 301.151 634.679 279.301 634.679C260.853 634.859 241.6 634.679 224.316 600.361C207.033 566.312 211.331 529.932 215.898 494.18C222.346 450.722 230.137 406.817 206.495 366.316C179.63 328.592 144.795 333.61 107.631 338.449C76.2878 343.019 44.4075 346.961 14.9451 324.918C-15.592 303.951 -14.3382 279.131 -13.1741 255.386C-11.8308 227.429 -10.8457 200.907 -56.7856 182.448C-103.8 165.065 -149.203 169.635 -194.695 172.771C-231.679 174.384 -268.485 175.011 -303.768 158.793C-338.962 142.395 -338.962 127.252 -338.783 113.095C-338.962 96.7866 -338.962 81.7332 -386.514 65.2461C-433.797 48.0421 -479.199 41.9491 -524.423 34.6015C-561.587 27.5228 -598.392 19.7272 -633.049 2.97127C-643.526 2.70247 -653.377 2.34407 -663.407 2.07527C-616.392 26.806 -570.721 37.1104 -524.781 45.802C-488.065 51.8055 -451.439 56.8233 -416.603 70.9807C-381.588 84.7797 -381.409 97.2347 -381.409 110.496C-381.857 128.417 -381.678 147.503 -333.947 171.606C-286.306 195.441 -240.724 195.351 -194.963 193.738C-157.979 191.229 -121.263 187.735 -86.6957 202.161C-52.8453 217.214 -53.2931 238.54 -54.1886 261.12C-55.6214 290.69 -56.8751 321.334 -14.2487 350.724C25.6912 382.713 65.0043 377.964 103.064 373.573C132.257 370.348 160.824 366.674 181.063 395.347C200.048 425.275 194.137 460.489 189.033 495.704C183.839 539.789 179.272 584.412 204.794 630.468C229.689 677.51 254.137 677.51 277.331 677.152C294.704 677.331 311.36 676.973 325.061 712.187C338.942 747.222 339.658 784.408 341.449 821.056C344.673 867.023 349.599 912.81 373.688 960.3C398.135 1007.7 412.284 1007.61 425.09 1006.98C434.493 1006.98 442.732 1006.54 456.792 1041.3C456.523 1031.45 456.165 1021.41 456.075 1010.93L455.986 1010.84ZM453.747 919.172C442.374 872.309 435.299 872.488 426.792 872.937C419.001 872.937 409.956 873.205 397.956 838.349C386.136 803.314 384.971 766.128 384.524 729.66C385.509 683.872 388.016 638.084 377.27 590.415C366.613 542.835 349.24 543.015 330.524 543.104C314.136 543.283 297.211 543.104 284.226 508.965C271.152 475.274 277.599 438.984 284.674 403.322C293.539 360.043 303.659 317.033 284.853 277.518C262.017 242.035 228.615 247.949 193.242 254.221C162.884 260.135 132.078 265.421 103.78 246.694C74.4072 228.863 75.7504 206.283 77.2728 184.509C78.8847 158.703 80.4967 134.958 34.6464 122.503C-12.0099 110.675 -57.7706 118.202 -102.994 124.295C-139.979 128.238 -176.784 131.374 -212.157 119.725C-247.082 107.539 -247.082 94.6362 -247.172 82.898C-247.44 69.4575 -247.351 57.2712 -294.813 46.698C-341.917 35.4975 -387.499 32.451 -432.901 27.9708C-469.707 23.2218 -506.423 17.8455 -540.9 5.30098C-551.199 5.12178 -561.049 4.85298 -571.079 4.58418C-524.065 23.401 -478.662 30.8382 -433.349 36.5728C-396.544 40.2465 -359.827 43.0243 -325.082 52.7911C-289.888 62.11 -289.888 72.2352 -290.067 83.1668C-290.246 98.2203 -289.888 114.439 -242.336 132.628C-194.605 150.46 -148.934 147.234 -103.531 142.485C-66.5467 137.825 -29.7411 132.001 4.64666 142.216C38.2284 153.148 37.6911 172.144 36.6165 192.304C34.8255 219.723 33.3927 247.859 74.4967 272.411C112.467 300.277 150.705 293.916 187.063 287.733C214.734 283.88 242.137 279.22 259.152 306.729C275.092 335.312 266.943 370.258 259.868 404.845C252.077 448.93 245.003 493.105 264.614 538.893C283.778 585.756 305.271 585.756 325.599 585.128C340.643 585.397 354.972 585.397 364.375 620.522C373.688 655.736 371.897 692.653 371.449 729.122C371.897 775.358 373.688 821.056 391.777 868.456C410.314 915.767 421.687 915.588 431.448 915.05C438.523 915.23 444.702 914.871 454.463 949.548C454.195 939.691 453.836 929.656 453.747 919.351L453.747 919.172ZM452.583 827.955C446.941 781.272 442.374 781.092 436.463 781.092C430.732 781.272 424.105 781.361 416.404 746.595C408.882 711.649 410.046 674.553 412.285 637.905C416.404 592.207 421.867 546.688 417.031 499.109C412.464 451.35 397.688 451.35 381.658 451.529C367.509 451.529 352.822 451.529 344.405 417.479C335.449 383.788 344.136 347.678 353.27 312.284C364.733 269.453 377.628 226.712 363.3 188.541C344.405 154.94 312.883 161.839 278.763 169.993C249.391 177.072 219.391 183.882 192.525 168.201C164.406 153.596 166.018 133.166 167.809 113.274C170.048 89.9768 171.033 68.9198 125.631 61.841C79.0638 55.9272 33.8404 66.411 -11.5621 75.6402C-48.2782 81.8229 -85.0839 87.1095 -120.546 79.9411C-155.65 72.4144 -155.65 61.8412 -155.65 52.2535C-155.919 41.3219 -156.367 31.9134 -204.098 27.1644C-251.291 21.8778 -296.156 21.9673 -341.111 20.5337C-377.917 18.4727 -414.633 15.247 -449.11 7.09298C-459.409 6.91378 -469.259 6.6451 -479.199 6.4659C-432.364 19.2793 -386.782 23.5803 -341.29 26.6268C-304.932 27.9708 -268.396 28.2396 -233.56 33.5262C-198.366 38.3648 -198.366 46.3397 -197.919 55.0312C-198.366 67.2174 -197.919 80.4787 -150.456 92.7545C-102.725 104.672 -57.1438 98.4891 -11.6517 91.1416C25.1539 83.7942 61.87 75.6401 96.0786 81.5539C129.481 88.1847 128.765 105.12 127.869 123.399C125.631 148.04 123.571 173.936 163.421 193.828C199.51 217.573 236.495 209.329 271.42 202.071C297.927 196.874 323.718 191.409 337.778 217.573C350.315 245.171 340.285 279.579 331.151 314.255C320.853 357.445 311.002 401.799 324.972 447.318C338.046 494.001 356.942 493.732 374.136 493.553C387.121 493.553 399.031 493.732 404.225 528.768C409.061 563.982 404.852 600.988 401.897 637.457C399.389 683.245 398.314 729.212 410.404 776.702C422.941 823.833 431.449 823.565 438.523 823.117C443.538 823.296 447.478 823.117 452.762 857.704C452.583 847.847 452.583 837.991 452.583 827.776L452.583 827.955Z" stroke="#403730" stroke-opacity="0.12" stroke-width="3" mask="url(#path-2-inside-1_49_3142)"/>
</g>
</svg>
