<svg width="118" height="22" viewBox="0 0 118 22" fill="none" xmlns="http://www.w3.org/2000/svg">
<path d="M0 7.58312H1.40585V9.50639C1.89806 8.7971 2.40376 8.27877 2.92295 7.95141C3.63767 7.51492 4.38947 7.29668 5.17837 7.29668C5.71104 7.29668 6.21674 7.40239 6.69547 7.61381C7.1742 7.82523 7.56527 8.10827 7.86869 8.46292C8.17211 8.81074 8.43507 9.31202 8.65758 9.96675C9.12957 9.09378 9.71955 8.43223 10.4275 7.9821C11.1355 7.52515 11.8974 7.29668 12.7133 7.29668C13.4752 7.29668 14.1461 7.49105 14.726 7.8798C15.3126 8.26854 15.7475 8.81074 16.0307 9.50639C16.3139 10.202 16.4555 11.2455 16.4555 12.6368V18.7136H15.0092V12.6368C15.0092 11.4433 14.9249 10.6249 14.7563 10.1816C14.5878 9.73146 14.2978 9.36999 13.8865 9.09719C13.482 8.82438 12.9965 8.68798 12.4301 8.68798C11.7424 8.68798 11.1119 8.89258 10.5388 9.30179C9.9724 9.711 9.55773 10.2566 9.29476 10.9386C9.0318 11.6206 8.90032 12.7596 8.90032 14.3555V18.7136H7.49447V13.0153C7.49447 11.6718 7.41019 10.7613 7.24162 10.2839C7.0798 9.79966 6.79323 9.41432 6.38193 9.12788C5.97063 8.83461 5.48179 8.68798 4.9154 8.68798C4.26136 8.68798 3.64778 8.88917 3.07466 9.29156C2.50827 9.68713 2.08685 10.2225 1.81041 10.8977C1.5407 11.5729 1.40585 12.6061 1.40585 13.9974V18.7136H0V7.58312Z" fill="black"/>
<path d="M28.7136 15.0205L29.9071 15.6547C29.516 16.4322 29.0643 17.0597 28.5518 17.5371C28.0394 18.0145 27.4629 18.3794 26.8223 18.6317C26.1818 18.8772 25.4569 19 24.6478 19C22.8543 19 21.4518 18.4066 20.4404 17.2199C19.429 16.0264 18.9233 14.6795 18.9233 13.179C18.9233 11.7673 19.3514 10.509 20.2078 9.40409C21.2933 7.99915 22.7464 7.29668 24.5669 7.29668C26.4414 7.29668 27.9382 8.0162 29.0575 9.45524C29.8531 10.4714 30.2577 11.74 30.2712 13.2609H20.3797C20.4067 14.5567 20.8146 15.6206 21.6035 16.4527C22.3924 17.2779 23.3667 17.6905 24.5264 17.6905C25.0861 17.6905 25.6289 17.5916 26.1548 17.3939C26.6875 17.1961 27.1392 16.9335 27.5101 16.6061C27.8809 16.2788 28.2821 15.7502 28.7136 15.0205ZM28.7136 12.023C28.5248 11.2592 28.2484 10.6488 27.8843 10.1918C27.5269 9.73487 27.0516 9.36658 26.4582 9.08696C25.8649 8.80733 25.2412 8.66752 24.5871 8.66752C23.5083 8.66752 22.5812 9.01876 21.8058 9.72123C21.2394 10.2327 20.8112 11 20.5213 12.023H28.7136Z" fill="black"/>
<path d="M43.9049 3.28645V18.7136H42.5091V16.8005C41.9158 17.5303 41.2483 18.0793 40.5066 18.4476C39.7716 18.8159 38.9659 19 38.0893 19C36.5318 19 35.2001 18.4305 34.0943 17.2916C32.9952 16.1458 32.4457 14.7545 32.4457 13.1176C32.4457 11.5149 33.002 10.1441 34.1145 9.00512C35.2271 7.86616 36.5655 7.29668 38.1298 7.29668C39.0333 7.29668 39.8491 7.49105 40.5774 7.8798C41.3123 8.26854 41.9562 8.85166 42.5091 9.62916V3.28645H43.9049ZM38.241 8.67775C37.4521 8.67775 36.7239 8.87553 36.0564 9.2711C35.3889 9.65985 34.8562 10.2089 34.4584 10.9182C34.0673 11.6275 33.8718 12.3777 33.8718 13.1688C33.8718 13.9531 34.0707 14.7033 34.4685 15.4194C34.8663 16.1355 35.399 16.6948 36.0665 17.0972C36.7408 17.4928 37.4622 17.6905 38.2309 17.6905C39.0063 17.6905 39.7413 17.4928 40.4358 17.0972C41.1303 16.7016 41.6629 16.1662 42.0338 15.491C42.4114 14.8159 42.6002 14.0554 42.6002 13.2097C42.6002 11.9207 42.1787 10.8431 41.3359 9.97698C40.4998 9.11083 39.4682 8.67775 38.241 8.67775Z" fill="black"/>
<path d="M47.6167 3C47.9403 3 48.2168 3.11594 48.446 3.34783C48.6753 3.57971 48.7899 3.85934 48.7899 4.1867C48.7899 4.50725 48.6753 4.78346 48.446 5.01535C48.2168 5.24723 47.9403 5.36317 47.6167 5.36317C47.2998 5.36317 47.0267 5.24723 46.7975 5.01535C46.5682 4.78346 46.4536 4.50725 46.4536 4.1867C46.4536 3.85934 46.5682 3.57971 46.7975 3.34783C47.0267 3.11594 47.2998 3 47.6167 3ZM46.9087 7.58312H48.3348V18.7136H46.9087V7.58312Z" fill="black"/>
<path d="M62.2314 7.58312V18.7136H60.8357V16.8005C60.2423 17.5303 59.5748 18.0793 58.8331 18.4476C58.0982 18.8159 57.2924 19 56.4159 19C54.8583 19 53.5266 18.4305 52.4208 17.2916C51.3218 16.1458 50.7723 14.7545 50.7723 13.1176C50.7723 11.5149 51.3285 10.1441 52.4411 9.00512C53.5536 7.86616 54.892 7.29668 56.4563 7.29668C57.3598 7.29668 58.1757 7.49105 58.9039 7.8798C59.6389 8.26854 60.2828 8.85166 60.8357 9.62916V7.58312H62.2314ZM56.5676 8.67775C55.7787 8.67775 55.0505 8.87553 54.383 9.2711C53.7154 9.65985 53.1828 10.2089 52.785 10.9182C52.3939 11.6275 52.1983 12.3777 52.1983 13.1688C52.1983 13.9531 52.3972 14.7033 52.7951 15.4194C53.1929 16.1355 53.7256 16.6948 54.3931 17.0972C55.0673 17.4928 55.7888 17.6905 56.5575 17.6905C57.3329 17.6905 58.0678 17.4928 58.7623 17.0972C59.4568 16.7016 59.9895 16.1662 60.3603 15.491C60.7379 14.8159 60.9267 14.0554 60.9267 13.2097C60.9267 11.9207 60.5053 10.8431 59.6625 9.97698C58.8264 9.11083 57.7947 8.67775 56.5676 8.67775Z" fill="black"/>
<path d="M71.9813 9.13811L70.272 10.867C69.5776 10.1714 68.9471 9.82353 68.3807 9.82353C68.0706 9.82353 67.8278 9.89173 67.6525 10.0281C67.4772 10.1577 67.3896 10.3214 67.3896 10.5192C67.3896 10.6692 67.4435 10.809 67.5514 10.9386C67.666 11.0614 67.9425 11.2319 68.3807 11.4501L69.3921 11.9616C70.4575 12.4936 71.1891 13.0358 71.5869 13.5882C71.9847 14.1407 72.1836 14.7886 72.1836 15.532C72.1836 16.5209 71.8229 17.3461 71.1014 18.0077C70.3867 18.6692 69.4258 19 68.2189 19C66.6142 19 65.333 18.3657 64.3756 17.0972L66.0747 15.2251C66.3984 15.607 66.776 15.9173 67.2075 16.156C67.6458 16.3879 68.0335 16.5038 68.3706 16.5038C68.7347 16.5038 69.028 16.4152 69.2505 16.2379C69.473 16.0605 69.5843 15.8559 69.5843 15.624C69.5843 15.1944 69.1831 14.7749 68.3807 14.3657L67.4502 13.8951C65.6702 12.9881 64.7802 11.8525 64.7802 10.4885C64.7802 9.6087 65.1139 8.85848 65.7814 8.23785C66.4557 7.6104 67.3154 7.29668 68.3605 7.29668C69.0752 7.29668 69.7461 7.45695 70.3732 7.77749C71.007 8.09122 71.543 8.54476 71.9813 9.13811Z" fill="black"/>
<path d="M74.3783 3.28645H77.1192V8.70844C77.6586 8.23785 78.2014 7.88662 78.7476 7.65473C79.2937 7.41603 79.8466 7.29668 80.4063 7.29668C81.4986 7.29668 82.419 7.6786 83.1674 8.44246C83.8079 9.10401 84.1282 10.0759 84.1282 11.3581V18.7136H81.4076V13.8338C81.4076 12.5448 81.3469 11.6718 81.2255 11.2148C81.1041 10.7579 80.8951 10.4169 80.5984 10.1918C80.3085 9.96675 79.9478 9.85422 79.5162 9.85422C78.9566 9.85422 78.4745 10.0418 78.0699 10.4169C77.6721 10.792 77.3957 11.3035 77.2406 11.9514C77.1597 12.2856 77.1192 13.0494 77.1192 14.243V18.7136H74.3783V3.28645Z" fill="black"/>
<path d="M94.9401 7.58312H97.6911V18.7136H94.9401V17.5371C94.4007 18.0554 93.8579 18.4305 93.3117 18.6624C92.7723 18.8875 92.1857 19 91.5519 19C90.1292 19 88.8987 18.4442 87.8603 17.3325C86.8219 16.214 86.3027 14.8261 86.3027 13.1688C86.3027 11.4501 86.8051 10.0418 87.8097 8.94373C88.8144 7.84569 90.0348 7.29668 91.471 7.29668C92.1318 7.29668 92.7521 7.42285 93.332 7.67519C93.9118 7.92754 94.4479 8.30605 94.9401 8.81074V7.58312ZM92.0374 9.87468C91.1811 9.87468 90.4697 10.1816 89.9033 10.7954C89.3369 11.4024 89.0537 12.1833 89.0537 13.1381C89.0537 14.0997 89.3403 14.8909 89.9134 15.5115C90.4933 16.1321 91.2047 16.4425 92.0475 16.4425C92.9173 16.4425 93.6388 16.139 94.2119 15.532C94.785 14.9182 95.0716 14.1168 95.0716 13.1279C95.0716 12.1594 94.785 11.3751 94.2119 10.7749C93.6388 10.1748 92.9139 9.87468 92.0374 9.87468Z" fill="black"/>
<path d="M99.8353 7.58312H102.202V8.98465C102.458 8.43223 102.799 8.01279 103.223 7.72634C103.648 7.4399 104.113 7.29668 104.619 7.29668C104.977 7.29668 105.351 7.39216 105.742 7.58312L104.882 9.98721C104.559 9.82353 104.292 9.74169 104.083 9.74169C103.658 9.74169 103.298 10.0077 103.001 10.5396C102.711 11.0716 102.566 12.1151 102.566 13.6701L102.576 14.2123V18.7136H99.8353V7.58312Z" fill="black"/>
<path d="M107.138 3.28645H109.899V12.1765L113.965 7.58312H117.424L112.69 12.9233L118 18.7136H114.571L109.899 13.5882V18.7136H107.138V3.28645Z" fill="black"/>
</svg>
