<svg width="1600" height="532" viewBox="0 0 1600 532" fill="none" xmlns="http://www.w3.org/2000/svg">
<path d="M1499 487.288C1493.31 476.423 1470.16 467.689 1459.81 465.706C1404.54 455.158 1346.65 456.613 1290.69 456.803C1229.72 456.993 1171.54 466.761 1111.08 471.276C1079.63 473.617 1046.4 469.398 1014.89 468.301C962.989 466.508 911.11 464.398 859.231 461.972C814.499 459.883 768.08 464.567 728.617 489.25C724.127 492.056 719.594 495.453 717.571 500.474C704.754 532.098 864.48 528.111 885.287 528.659C990.268 531.402 1095.31 532.815 1200.29 529.967C1278.35 527.858 1359.7 527.984 1437.13 516.951C1454.25 514.503 1477.54 513.638 1492.34 503.554C1500.5 497.984 1501.68 492.415 1499 487.288Z" fill="#F5F5F5"/>
<path d="M1431.04 55.7324C1432.41 55.7324 1433.83 55.7535 1435.26 55.8168" stroke="#D2E8F9" stroke-miterlimit="10"/>
<path d="M1443.71 56.4062C1470.93 59.1699 1504.17 70.6889 1500.29 94.2541C1494.1 131.828 1327.27 117.967 1287.42 118.347C1207.3 119.127 1126.31 119.423 1047.74 136.975C1028.64 141.237 1001.28 150.646 1003.34 175.034C1004.06 183.557 1009.1 191.258 1015.47 197.038C1038.4 217.776 1070.38 219.759 1100.06 223.409C1144.94 228.916 1358.47 221.574 1428.26 244.485C1442.01 249 1459.19 254.801 1459.76 274.464C1461.21 324.421 1337.22 321.974 1300.03 322.923C1200.76 325.455 1101.39 324.463 1002.12 322.501C921.889 320.919 841.425 319.506 761.34 314.337C731.49 312.396 682.647 311.826 659.88 289.4C647.147 276.869 645.482 254.063 665.614 242.418C679.801 234.211 721.414 237.797 737.435 236.426C785.878 232.249 771.227 202.84 731.975 199.085" stroke="#DBDBDB" stroke-miterlimit="10" stroke-dasharray="4.01 4.01"/>
<path d="M727.74 198.728C726.369 198.664 724.957 198.622 723.523 198.622" stroke="#D2E8F9" stroke-miterlimit="10"/>
<path d="M1433.89 92.2722L1421.11 24.6567C1420.36 20.6061 1415.51 18.9184 1412.39 21.5977L1360.26 66.4918C1357.14 69.1711 1358.1 74.2344 1361.98 75.5846L1426.89 98.306C1430.77 99.6562 1434.65 96.3018 1433.89 92.2722Z" fill="#FDAB88"/>
<path d="M1424.04 91.2391C1423.68 91.2391 1423.3 91.1758 1422.95 91.0492L1369.57 72.3574C1368.45 71.9776 1367.63 71.0072 1367.4 69.8468C1367.19 68.6865 1367.59 67.484 1368.49 66.7245L1411.37 29.805C1412.26 29.0244 1413.5 28.7923 1414.62 29.1932C1415.74 29.5729 1416.56 30.5434 1416.79 31.7037L1427.31 87.3151C1427.52 88.4754 1427.12 89.6779 1426.21 90.4585C1425.6 90.9648 1424.82 91.2391 1424.04 91.2391ZM1372.44 68.8975L1422.88 86.5556L1412.95 34.0033L1372.44 68.8975Z" fill="#C16C44"/>
<path d="M1400.86 68.5383C1399.84 68.1797 1399.3 67.1037 1399.59 66.07L1404.88 47.4836C1405.39 45.7748 1407.24 44.8254 1408.93 45.4161C1410.62 46.0068 1411.48 47.8844 1410.81 49.5511L1403.36 67.378C1402.99 68.3906 1401.87 68.897 1400.86 68.5383Z" fill="#C16C44"/>
<path d="M1401.26 73.6025C1400.88 74.6574 1399.72 75.227 1398.67 74.8472C1397.61 74.4675 1397.04 73.3072 1397.42 72.2523C1397.8 71.1975 1398.96 70.6278 1400.02 71.0076C1401.07 71.3662 1401.64 72.5266 1401.26 73.6025Z" fill="#C16C44"/>
<path d="M719.472 175.879L677.437 154.951C674.929 153.706 671.998 155.647 672.167 158.432L675.055 205.33C675.224 208.136 678.365 209.697 680.705 208.136L719.83 182.187C722.191 180.626 721.98 177.124 719.472 175.879Z" fill="#FDAB88"/>
<path d="M714.857 180.814C714.709 181.004 714.52 181.193 714.309 181.341L682.119 202.691C681.444 203.134 680.58 203.198 679.863 202.839C679.147 202.48 678.662 201.763 678.62 200.961L676.238 162.396C676.195 161.594 676.575 160.814 677.249 160.371C677.924 159.928 678.788 159.865 679.505 160.223L714.077 177.438C714.794 177.797 715.279 178.514 715.321 179.337C715.342 179.843 715.173 180.392 714.857 180.814ZM681.423 199.695L711.842 179.527L679.189 163.261L681.423 199.695Z" fill="#C16C44"/>
<path d="M692.952 184.064C692.34 184.465 691.518 184.317 691.097 183.727L683.17 173.178C682.454 172.187 682.707 170.794 683.718 170.119C684.73 169.444 686.122 169.76 686.733 170.794L693.352 182.208C693.732 182.84 693.563 183.663 692.952 184.064Z" fill="#C16C44"/>
<path d="M695.86 185.942C696.282 186.575 696.113 187.44 695.459 187.883C694.827 188.305 693.963 188.136 693.52 187.482C693.098 186.849 693.267 185.984 693.92 185.541C694.574 185.119 695.438 185.309 695.86 185.942Z" fill="#C16C44"/>
<path d="M748.585 270.436C750.518 270.436 752.085 268.868 752.085 266.934C752.085 265 750.518 263.432 748.585 263.432C746.653 263.432 745.086 265 745.086 266.934C745.086 268.868 746.653 270.436 748.585 270.436Z" stroke="#FFB288" stroke-miterlimit="10"/>
<path d="M1268.05 205.625C1269.98 205.625 1271.55 204.057 1271.55 202.123C1271.55 200.189 1269.98 198.621 1268.05 198.621C1266.12 198.621 1264.55 200.189 1264.55 202.123C1264.55 204.057 1266.12 205.625 1268.05 205.625Z" stroke="#FFB288" stroke-miterlimit="10"/>
<path d="M992.445 107.484C994.377 107.484 995.944 105.916 995.944 103.982C995.944 102.047 994.377 100.479 992.445 100.479C990.512 100.479 988.945 102.047 988.945 103.982C988.945 105.916 990.512 107.484 992.445 107.484Z" stroke="#FFB288" stroke-miterlimit="10"/>
<path d="M988.249 373.831C990.182 373.831 991.749 372.263 991.749 370.329C991.749 368.395 990.182 366.827 988.249 366.827C986.317 366.827 984.75 368.395 984.75 370.329C984.75 372.263 986.317 373.831 988.249 373.831Z" stroke="#FFB288" stroke-miterlimit="10"/>
<path d="M1069.8 164.108V172.02" stroke="#FFB288" stroke-miterlimit="10" stroke-linecap="round" stroke-linejoin="round"/>
<path d="M1073.75 168.074H1065.84" stroke="#FFB288" stroke-miterlimit="10" stroke-linecap="round" stroke-linejoin="round"/>
<path d="M1211.91 62.8623V70.7948" stroke="#FFB288" stroke-miterlimit="10" stroke-linecap="round" stroke-linejoin="round"/>
<path d="M1215.85 66.8281H1207.95" stroke="#FFB288" stroke-miterlimit="10" stroke-linecap="round" stroke-linejoin="round"/>
<path d="M1431.75 276.595V284.527" stroke="#FFB288" stroke-miterlimit="10" stroke-linecap="round" stroke-linejoin="round"/>
<path d="M1435.69 280.561H1427.79" stroke="#FFB288" stroke-miterlimit="10" stroke-linecap="round" stroke-linejoin="round"/>
<path d="M1140.87 503.109C1140.87 503.109 1126.14 509.396 1126.14 512.54C1126.14 514.354 1146.39 511.759 1147.62 510.535C1149.58 508.573 1146.82 503.363 1146.82 503.363L1140.87 503.109Z" fill="#003A66"/>
<path d="M1139.92 494.313L1140.87 503.384C1140.87 503.384 1141.36 504.84 1143.42 505.009C1145.49 505.178 1146.84 503.384 1146.84 503.384L1146.1 492.034" fill="#FFB288"/>
<path d="M1165.66 286.36C1171.02 307.985 1169.04 318.955 1161.17 335.263C1156.41 390.094 1153.1 444.693 1146.69 498.152L1139.92 498.532C1124.54 446.486 1110.39 368.68 1112.2 297.563" fill="#003A66"/>
<path d="M1162.33 293.786C1164.29 298.807 1164.78 304.461 1164.61 309.799C1164.36 318.005 1161.03 325.432 1158.86 333.195C1155.99 343.575 1155.76 353.891 1154.98 364.524C1153.75 381.169 1152.49 397.794 1151.22 414.439C1149.16 441.57 1147.07 468.7 1144.96 495.831C1144.9 496.633 1144.84 497.434 1144.77 498.257" stroke="#0061A6" stroke-width="0.5" stroke-miterlimit="10"/>
<path d="M1199.65 505.221C1199.65 505.221 1184.91 511.508 1184.91 514.651C1184.91 516.465 1205.17 513.87 1206.39 512.647C1208.35 510.685 1205.59 505.474 1205.59 505.474L1199.65 505.221Z" fill="#003A66"/>
<path d="M1198.7 496.422L1199.64 505.494C1199.64 505.494 1200.13 506.949 1202.19 507.118C1204.26 507.287 1205.61 505.494 1205.61 505.494L1204.87 494.144" fill="#FFB288"/>
<path d="M1214.68 284.525C1221.47 305.728 1220.2 316.825 1213.44 333.618C1212.32 388.639 1208.52 446.085 1205.68 499.861H1198.72C1179.94 448.955 1159.81 370.348 1156.9 299.251" fill="#003A66"/>
<path d="M1211.33 293.301C1211.33 293.301 1219.19 311.697 1205.91 337.541C1204.37 361.929 1203.59 499.839 1203.59 499.839" stroke="#0061A6" stroke-width="0.5" stroke-miterlimit="10"/>
<path d="M1191.89 299.145C1193.24 301.233 1195.37 302.71 1197.65 303.638C1199.94 304.566 1202.39 304.967 1204.83 305.263C1207.74 305.621 1210.67 305.853 1213.6 305.706" stroke="#0061A6" stroke-width="0.5" stroke-miterlimit="10"/>
<path d="M1192.84 302.584C1195.35 304.862 1198.55 306.255 1201.84 307.014C1205.13 307.774 1208.52 307.921 1211.9 307.964" stroke="#0061A6" stroke-width="0.5" stroke-miterlimit="10"/>
<path d="M1134.23 181.993C1110.79 222.816 1085.55 259.778 1070.61 304.398L1066.16 302.035C1067.3 260.6 1080.73 200.348 1098.35 162.816" fill="#FFB288"/>
<path d="M1122.78 139.378C1122.78 139.378 1115.53 141.424 1106.99 147.099C1098.96 152.437 1092.89 160.39 1088.78 169.103C1084.64 177.816 1082.39 187.31 1080.93 196.846C1080.93 196.846 1090.74 201.761 1101.99 203.154C1113.23 204.567 1125.2 203.154 1125.2 203.154" fill="#F0F0F0"/>
<path d="M1105.3 163.514C1102.81 207.649 1104.71 253.07 1105.82 296.002C1105.82 296.002 1121.21 300.095 1158.57 300.095C1195.8 300.095 1220.16 288.745 1220.16 288.745C1212.95 244.61 1207.22 190.476 1189.56 154.147C1189.56 154.147 1169.61 132.628 1149.97 131.742C1146 131.573 1142.06 133.008 1138.29 134.759C1135.51 136.046 1122.75 139.168 1122.75 139.168L1105.3 163.514Z" fill="#F0F0F0"/>
<path d="M1105.09 167.438C1104.12 175.919 1104.12 202.122 1104.12 202.122" stroke="#94C1F2" stroke-width="0.5" stroke-miterlimit="10"/>
<path d="M1142.26 309.884C1204.7 302.965 1230.88 382.141 1245.09 412.858C1278.69 485.474 1405.47 477.373 1463.25 477.373C1538.93 477.373 1570.68 490.118 1602.64 502.308" stroke="url(#paint0_linear)" stroke-width="5" stroke-miterlimit="10" stroke-linecap="round" stroke-linejoin="round"/>
<path d="M1163.78 313.471C1163.78 345.623 1139.48 365.011 1118.69 365.011H1084.62V261.932H1118.69C1139.48 261.932 1163.78 281.32 1163.78 313.471Z" fill="#C16C44"/>
<path d="M1146.22 313.471C1146.22 344.884 1127.63 370.327 1104.72 370.327H1067.11V256.594H1104.72C1127.63 256.594 1146.22 282.058 1146.22 313.471Z" fill="url(#paint1_linear)"/>
<path opacity="0.5" d="M1154.55 282.396C1146.41 293.492 1138.49 304.716 1130.79 316.108C1131.89 315.897 1132.9 315.37 1133.7 314.589C1133.7 315.454 1132.33 316.931 1133.55 317.48C1134.76 318.028 1136.02 316.615 1137.29 316.994C1138.47 316.72 1139.56 315.243 1140.43 314.378C1140.05 315.265 1139.96 315.897 1139.9 316.362C1148.18 313.134 1155.6 305.391 1162.06 299.168C1160.47 292.86 1157.86 287.227 1154.55 282.396Z" fill="#FDAE2B"/>
<path d="M1069.81 370.326C1092.73 370.326 1111.32 344.87 1111.32 313.469C1111.32 282.069 1092.73 256.613 1069.81 256.613C1046.88 256.613 1028.3 282.069 1028.3 313.469C1028.3 344.87 1046.88 370.326 1069.81 370.326Z" fill="#FDAB88"/>
<path d="M1073.27 333.619C1073.27 338.281 1070.09 342.079 1066.14 342.079C1062.2 342.079 1059.02 338.302 1059.02 333.619C1059.02 328.957 1062.2 325.159 1066.14 325.159C1070.09 325.159 1073.27 328.957 1073.27 333.619Z" fill="#C16C44"/>
<path d="M1073.27 293.304C1073.27 297.966 1070.09 301.763 1066.14 301.763C1062.2 301.763 1059.02 297.987 1059.02 293.304C1059.02 288.641 1062.2 284.844 1066.14 284.844C1070.09 284.844 1073.27 288.641 1073.27 293.304Z" fill="#C16C44"/>
<path d="M1200.93 196.088C1200.93 196.088 1203.56 222.944 1191.57 245.286C1181.3 264.378 1160.92 289.104 1144.46 302.733L1140.49 301.762C1146.23 279.737 1164.31 240.644 1165.45 226.003C1166.57 211.341 1166.32 194.358 1166.57 186.193" fill="#FFB288"/>
<path d="M1149.98 131.721C1149.98 131.721 1172.07 133.24 1184.89 144.062C1203.19 159.526 1205.89 189.822 1205.89 196.847C1200.36 202.817 1188.26 203.134 1179.45 203.134C1170.64 203.134 1164.21 198.914 1164.21 198.914L1162.42 165.518" fill="#F0F0F0"/>
<path d="M1142.1 298.492C1139.59 298.745 1137.14 299.969 1135.03 301.615C1133.09 303.134 1130.71 305.665 1130.97 306.825C1131.22 308.049 1134.4 305.707 1134.78 306.171C1135.16 306.636 1129.34 315.433 1130.44 316.087C1131.53 316.741 1136.49 308.787 1136.49 308.787C1136.49 308.787 1131.68 317.289 1133.54 317.479C1135.1 317.627 1139.36 309.589 1139.36 309.589C1139.36 309.589 1135.75 316.783 1136.99 317.057C1138.24 317.332 1141.57 310.159 1141.57 310.159C1141.57 310.159 1138.85 316.277 1139.88 316.382C1140.41 316.425 1143.09 313.387 1144.23 309.695C1145.32 306.066 1146.63 302.901 1145.62 300.074" fill="#FFB288"/>
<path d="M1165.14 169.041V199.463" stroke="#94C1F2" stroke-width="0.5" stroke-miterlimit="10"/>
<path d="M1104.19 103.663C1104.08 104.992 1104.02 106.3 1104.02 107.629C1104.04 110.498 1104.42 113.494 1106.06 115.857C1107.2 117.46 1108.91 118.663 1110.81 119.19C1112.16 119.549 1113.91 119.401 1114.5 118.135C1114.71 117.692 1114.71 117.186 1114.71 116.679C1114.69 111.764 1113.74 106.869 1111.9 102.312" fill="#26387A"/>
<path d="M1137.54 106.426C1135.64 99.0421 1129.68 88.6835 1119.98 90.751C1113.89 92.059 1108.28 96.2151 1106.49 102.017C1104.34 108.958 1107.82 117.038 1111.97 122.692C1113.51 124.78 1115.32 126.763 1117.68 128.008C1123.29 130.92 1130.88 128.536 1134.69 123.683C1138.51 118.831 1139.04 112.27 1137.54 106.426Z" fill="#FFB288"/>
<path d="M1123.92 125.751L1127.08 137.333L1122.76 139.38C1122.76 139.38 1126.05 143.768 1132.56 142.819C1145.8 140.899 1149.96 131.722 1149.96 131.722L1142.49 130.941L1134.23 116.827" fill="#FFB288"/>
<path d="M1143.99 98.3465C1143.06 93.2621 1139.43 88.9583 1135.03 86.279C1127.19 81.5111 1116.04 81.1314 1109.08 87.6925C1105.12 91.4267 1097.97 104.676 1106.51 107.292C1109.18 108.114 1111.92 106.49 1114.24 104.929C1116.6 103.346 1118.97 101.764 1121.33 100.182C1122.17 99.6123 1123.08 99.0216 1124.09 98.9794C1125.75 98.9161 1127.14 100.351 1127.74 101.912C1128.33 103.473 1128.37 105.182 1128.77 106.806C1129.04 107.946 1129.55 109.127 1130.54 109.781C1131.53 110.414 1133.11 110.224 1133.62 109.169C1133.97 108.431 1133.72 107.566 1133.7 106.743C1133.68 105.92 1134.14 104.908 1134.97 104.95C1135.26 104.971 1135.53 105.119 1135.77 105.287C1137.83 106.891 1137.16 110.119 1137.83 112.629C1137.92 112.967 1137.24 118.072 1137.45 118.325C1144.03 116.848 1144.64 101.996 1143.99 98.3465Z" fill="#003A66"/>
<path d="M1134.25 105.625C1134.1 104.697 1134.99 103.832 1135.94 103.726C1136.89 103.621 1137.79 104.106 1138.51 104.718C1139.75 105.752 1140.64 107.271 1140.66 108.874C1140.68 110.14 1140.17 111.363 1139.48 112.418C1139.01 113.136 1138.4 113.832 1137.58 114.085C1136.53 114.422 1135.37 113.937 1134.61 113.136" fill="#FFB288"/>
<path d="M899.518 502.796C899.518 502.796 913.726 505.159 914.126 508.302C914.358 510.095 894.205 512.226 892.835 511.171C890.643 509.484 893.341 503.176 893.341 503.176L899.518 502.796Z" fill="#003A66"/>
<path d="M898.387 494.062L899.546 503.049C899.546 503.049 899.251 504.568 897.227 504.99C895.203 505.412 893.622 503.809 893.622 503.809L891.957 492.585" fill="#FFB288"/>
<path d="M845.236 289.126C842.686 311.257 842.559 321.889 852.446 337.037C857.126 358.45 864.314 380.349 869.753 402.269C867.413 428.45 883.814 470.137 892.625 499.905L898.991 498.808C907.571 445.222 910.733 363.028 903.039 291.088" fill="#003A66"/>
<path d="M849.391 319.104C849.391 319.104 873.844 396.804 873.844 401.024C873.844 405.243 874.519 419.758 875.594 429.146C877.575 446.382 893.175 497.162 893.175 497.162" stroke="#0061A6" stroke-width="0.5" stroke-miterlimit="10"/>
<path d="M892.413 501.129L891.422 497.247L899.643 496.952L899.77 500.518L892.413 501.129Z" fill="#0061A6"/>
<path d="M788.955 503.241C788.955 503.241 800.086 511.279 799.095 514.106C798.526 515.73 780.439 509.021 779.722 507.544C778.563 505.181 783.538 500.92 783.538 500.92L788.955 503.241Z" fill="#003A66"/>
<path d="M791.679 495.328L788.876 503.493C788.876 503.493 787.99 504.653 786.072 504.168C784.175 503.683 783.5 501.637 783.5 501.637L786.81 491.362" fill="#FFB288"/>
<path d="M797.477 284.528C790.689 305.731 791.954 316.828 798.721 333.621C799.121 353.726 799.332 374.042 799.564 394.38C785.25 430.224 782.995 462.375 784.808 496.51L791.701 499.063C791.701 499.063 832.787 427.396 840.333 399.084C848.998 366.595 853.909 331.849 855.258 299.254" fill="#003A66"/>
<path d="M799.159 289.126C799.159 289.126 791.676 311.025 801.478 332.121C801.478 338.007 804.851 386.973 803.523 394.526C802.891 398.155 796.166 415.454 791.676 432.311C786.722 450.939 785.668 494.884 785.668 494.884" stroke="#0061A6" stroke-width="0.5" stroke-miterlimit="10"/>
<path d="M783.5 496.51L784.596 491.89L793.429 496.003L791.679 499.949L783.5 496.51Z" fill="#0061A6"/>
<path d="M912.358 120.689L906.814 115.963C906.814 115.963 906.814 107.693 906.814 106.174C906.814 104.655 904.748 95.5413 902.893 95.5413C901.038 95.5413 900.616 93.2628 899.689 94.1911C898.761 95.1194 900.448 105.415 899.689 106.174C898.93 106.934 897.939 101.28 897.243 101.976C896.548 102.672 896.484 106.828 896.484 108.938C896.484 111.047 898.171 114.972 899.857 116.638C901.544 118.326 908.964 126.364 908.964 126.364L912.358 120.689Z" fill="#EF9467"/>
<path d="M909.603 117.565L904.987 122.84C904.987 122.84 923.263 147.059 929.061 155.16C923.79 153.304 916.202 148.662 911.817 145.793C903.216 140.16 894.594 137.164 888.649 137.164C875.98 137.164 882.62 178.915 897.292 185.033C925.14 189.232 956.381 186.573 961.145 176.763C968.228 162.228 927.395 128.029 909.603 117.565Z" fill="#E9E9E9"/>
<path d="M929.035 155.14C929.035 155.14 932.513 164.886 938.711 168.051" stroke="#94C1F2" stroke-width="0.5" stroke-miterlimit="10"/>
<path d="M824.642 148.199C791.44 185.519 791.946 249.696 791.946 293.324C791.946 293.324 816.315 309.97 853.543 309.97C890.919 309.97 906.286 300.793 906.286 300.793C907.403 256.595 899.519 237.544 906.813 164.443C906.813 164.443 894.924 137.165 888.6 137.165C882.254 137.165 857.485 134.718 857.485 134.718L824.642 148.199Z" fill="#EBEBEB"/>
<path d="M905 186.004C905 186.004 905.759 173.24 908.858 170.139" stroke="#94C1F2" stroke-width="0.5" stroke-miterlimit="10"/>
<path d="M868.467 106.723C869.71 99.1912 875.065 88.4318 884.909 89.6554C891.086 90.4149 895.871 94.6976 899.328 99.6975C902.301 103.98 901.183 108.094 896.946 118.959C895.597 121.174 892.688 125.14 890.453 126.575C885.12 129.972 877.362 128.263 873.125 123.769C868.888 119.275 867.497 112.672 868.467 106.723Z" fill="#FFB288"/>
<path d="M869.799 105.795C871.211 105.584 869.799 104.656 870.432 105.943C870.832 106.766 870.959 107.019 871.76 107.272C872.54 107.525 872.561 108.264 873.214 108.749C874.247 109.508 875.111 108.475 875.533 107.589C876.334 105.964 876.313 103.981 876.123 102.23C875.976 100.838 875.512 98.6435 876.861 97.673C877.978 96.8924 880.424 98.0317 881.562 98.3692C883.333 98.8755 885.082 99.4452 886.832 99.9937C891.069 101.281 895.559 102.42 900.007 101.829C903.907 101.302 907.934 99.2764 909.81 95.6477C912.044 91.3229 907.575 85.6478 903.022 85.6478C901.82 85.6478 900.703 86.133 899.523 86.3651C899.101 86.4495 898.637 86.5128 898.216 86.3862C897.225 86.0908 896.782 84.9727 896.213 84.1077C894.526 81.4706 891.638 80.6689 888.666 81.0065C885.293 81.3862 882.405 82.9896 879.18 83.8757C877.472 84.3398 875.997 83.8967 874.31 83.96C872.561 84.0233 870.748 85.1626 869.968 86.787C868.598 85.3525 865.52 88.8756 864.74 89.825C861.367 93.9178 860.313 99.8249 860.229 105.015C860.144 109.551 860.903 116.133 865.857 117.968C867.965 118.749 869.272 119.15 869.378 117.23C868.45 115.226 868.239 111.281 868.049 109.614C867.86 107.947 868.345 105.964 869.883 105.31" fill="#003A66"/>
<path d="M885.947 124.699L884.872 136.07L888.603 137.125C888.603 137.125 886.622 142.231 880.108 143.096C866.848 144.868 857.488 134.678 857.488 134.678L861.915 133.813L868.619 112.674" fill="#FFB288"/>
<path d="M872.011 105.711C872.074 104.761 871.104 103.981 870.177 103.96C869.228 103.938 868.364 104.487 867.689 105.162C863.979 108.854 868.638 117.862 872.306 113.2" fill="#FFB288"/>
<path d="M896.989 118.748C896.399 120.14 894.038 120.71 892.752 120.836C886.512 121.532 881.348 117.482 875.382 116.743C874.201 116.596 872.852 116.49 871.967 117.292C871.124 118.051 871.06 119.317 871.039 120.435C871.018 121.828 870.997 123.241 871.124 124.613C871.229 125.815 871.461 127.039 872.093 128.072C874.792 132.566 883.793 133.326 888.346 133.051C890.18 132.946 892.099 132.587 893.553 131.49C895.598 129.95 896.041 127.229 896.821 124.845C897.727 121.954 896.989 118.748 896.989 118.748Z" fill="#003A66"/>
<path d="M892.567 123.643C892.378 123.517 892.146 123.411 891.914 123.411C889.005 123.411 887.382 122.715 885.126 122.525C884.747 122.504 884.346 122.462 883.967 122.588C883.165 122.841 882.702 123.664 882.533 124.487C882.364 125.31 882.786 125.943 883.524 126.301C884.873 126.976 886.391 127.209 887.888 127.251C889.195 127.293 890.902 127.398 891.977 126.512C892.567 126.027 893.474 124.318 892.567 123.643Z" fill="#FFB288"/>
<path d="M865.138 288.389C792.6 284.591 738.086 362.518 701.693 392.446C516.308 544.899 22.0463 496.587 -2.44922 496.101" stroke="url(#paint2_linear)" stroke-width="5" stroke-miterlimit="10" stroke-linecap="round" stroke-linejoin="round"/>
<path d="M837.314 294.296C839.992 326.321 865.815 343.642 886.516 341.912L920.477 339.085L911.918 236.364L877.958 239.191C857.256 240.921 834.637 262.271 837.314 294.296Z" fill="#C16C44"/>
<path d="M854.809 292.84C857.423 324.148 878.039 347.966 900.89 346.047L938.35 342.924L928.906 229.592L891.446 232.714C868.616 234.634 852.195 261.554 854.809 292.84Z" fill="url(#paint3_linear)"/>
<path d="M935.652 343.14C958.496 341.233 974.9 314.321 972.293 283.031C969.686 251.74 949.054 227.919 926.21 229.825C903.366 231.732 886.961 258.644 889.569 289.934C892.176 321.225 912.808 345.046 935.652 343.14Z" fill="#FDAB88"/>
<path d="M929.178 306.848C929.558 311.489 933.057 315.013 936.978 314.675C940.899 314.338 943.745 310.308 943.366 305.667C942.986 301.025 939.487 297.502 935.566 297.84C931.645 298.177 928.799 302.207 929.178 306.848Z" fill="#C16C44"/>
<path d="M925.835 266.701C926.214 271.342 929.713 274.865 933.634 274.528C937.555 274.211 940.401 270.161 940.022 265.519C939.642 260.878 936.143 257.355 932.222 257.692C928.322 258.009 925.455 262.038 925.835 266.701Z" fill="#C16C44"/>
<path d="M934.113 271.954C938.371 271.596 987.067 267.524 987.067 267.524C990.293 267.25 992.696 264.38 992.422 261.132C992.148 257.862 989.302 255.435 986.076 255.71C986.076 255.71 937.17 259.802 933.122 260.14C929.075 260.478 929.834 272.313 934.113 271.954Z" fill="#E2E8ED"/>
<path d="M937.442 312.122C941.7 311.764 990.396 307.692 990.396 307.692C993.622 307.418 996.025 304.548 995.751 301.3C995.477 298.029 992.631 295.603 989.406 295.878C989.406 295.878 940.499 299.97 936.451 300.308C932.404 300.624 933.184 312.481 937.442 312.122Z" fill="#E2E8ED"/>
<path d="M806.956 196.09C806.956 196.09 804.321 222.946 816.316 245.288C826.582 264.38 846.967 289.106 863.431 302.735L867.394 301.764C861.66 279.739 843.573 240.646 842.435 226.005C841.318 211.343 841.571 194.36 841.318 186.195" fill="#FFB288"/>
<path d="M857.508 134.697C857.508 134.697 834.235 136.047 820.849 146.153C797.703 163.642 802.256 210.646 808.981 233.599C815.727 256.574 848.127 291.046 858.604 298.472C860.312 298.472 865.35 298.051 865.181 294.084C859.384 276.173 842.878 229.064 842.878 229.064L845.492 165.499" fill="#ECECEC"/>
<path d="M865.794 298.493C868.303 298.746 870.748 299.97 872.856 301.616C874.796 303.134 877.178 305.666 876.925 306.826C876.672 308.05 873.489 305.708 873.109 306.172C872.73 306.637 878.548 315.434 877.452 316.088C876.356 316.742 871.402 308.788 871.402 308.788C871.402 308.788 876.208 317.29 874.353 317.48C872.793 317.628 868.535 309.59 868.535 309.59C868.535 309.59 872.139 316.784 870.896 317.058C869.652 317.333 866.321 310.16 866.321 310.16C866.321 310.16 869.041 316.278 868.008 316.383C867.481 316.426 864.804 313.388 863.665 309.696C862.569 306.067 861.262 302.902 862.274 300.075" fill="#FFB288"/>
<path d="M849.389 247.819C845.679 237.123 842.875 229.106 842.875 229.106L847.766 175.752" stroke="#94C1F2" stroke-width="0.5" stroke-miterlimit="10"/>
<path d="M803.647 188.705C803.521 203.178 805.249 221.004 808.959 233.641C812.206 244.696 821.397 258.43 831.22 270.498" stroke="#94C1F2" stroke-width="0.5" stroke-miterlimit="10"/>
<path d="M1301.48 110.119L1305.22 107.566C1305.22 107.566 1306.94 99.4229 1307.91 97.9461C1308.93 96.4061 1310.84 93.1993 1313.04 91.7226C1313.94 91.1108 1318.12 88.7479 1319.17 89.8027C1319.7 90.3302 1317.93 95.0348 1317.13 95.8365C1316.33 96.6381 1313.94 100.267 1314.32 101.385C1314.7 102.524 1316.66 100.035 1317.13 99.5706C1317.59 99.1065 1318.22 98.5158 1318.43 99.1276C1318.79 100.14 1316.68 105.815 1315.04 107.461C1313.39 109.106 1310.72 110.668 1308.86 110.668L1303.04 115.794" fill="#FFB288"/>
<path d="M1346.55 83.3035C1352.75 86.9532 1356.56 93.8308 1358.06 100.708C1358.33 101.953 1358.55 103.282 1359.41 104.21C1360.08 104.949 1361.05 105.329 1361.98 105.751C1367.1 108.135 1371.05 112.776 1372.84 118.113C1373.62 120.392 1373.01 123.599 1373.89 125.539C1374.99 127.923 1379.04 128.451 1381.21 129.189C1387.72 131.341 1392.48 137.902 1392.57 144.759C1392.63 151.615 1387.99 158.261 1381.54 160.56C1383.27 162.986 1383.53 166.278 1382.72 169.168C1381.92 172.058 1380.17 174.59 1378.19 176.826C1369.99 186.088 1357.36 191.045 1345.01 190.518C1341.45 190.37 1337.89 189.779 1334.58 188.429C1330.85 186.91 1327.56 184.442 1324.42 181.931C1320.62 178.893 1316.83 175.56 1314.78 171.13C1312.74 166.721 1312.86 160.94 1316.34 157.522C1312.34 158.366 1308.06 156.172 1305.8 152.754C1303.55 149.337 1303.15 144.927 1304.05 140.919C1304.96 136.932 1307.07 133.303 1309.51 130.012C1311.24 127.712 1313.2 125.371 1313.58 122.523C1314.19 117.755 1311.54 113.514 1310.84 108.767C1309.77 101.405 1310.1 95.0544 1316.41 91.1515C1318.43 85.8984 1320.87 81.8478 1326.67 80.3077C1333.54 78.4723 1340.4 79.6537 1346.55 83.3035Z" fill="#003A66"/>
<path d="M1331.39 139.295C1310.35 133.789 1286.3 142.481 1280.92 142.46C1288.26 135.118 1301.75 118.747 1306.41 113.093C1306.41 109.211 1304.05 108.114 1304.05 108.114C1304.05 108.114 1246.37 137.966 1252.17 157.46C1258.22 177.797 1314.74 167.818 1319.25 173.662" fill="#F0F0F0"/>
<path d="M1335.51 328.725C1335.45 330.455 1327.92 367.501 1327.35 371.488C1325.73 383.07 1331.84 394.695 1331.25 412.648C1330.53 434.483 1321.26 493.133 1320.08 495.749C1318.9 498.344 1313.25 495.96 1313.25 495.96C1313.25 495.96 1296.95 417.268 1296.02 385.053C1295.27 358.535 1299.12 301.13 1299.12 301.13" fill="#FFB288"/>
<path d="M1320.67 496.739C1320.67 496.739 1321.62 498.722 1321.57 499.63C1321.45 502.077 1321.38 503.743 1321.38 503.743L1320.33 503.807L1319.97 501.802C1319.97 501.802 1317.15 502.288 1314.28 504.186C1312.89 505.094 1305.89 505.009 1304.81 504.44C1303.61 503.807 1303.95 502.646 1304.35 502.182C1304.75 501.718 1312.32 498.406 1312.32 498.406" fill="#26387A"/>
<path d="M1313.27 495.939C1312.66 497.416 1306.69 500.665 1307.24 501.108C1307.79 501.551 1311.26 501.572 1315.12 500.285C1318.64 499.124 1320.62 497.817 1320.73 496.888L1320.06 494.42" fill="#FFB288"/>
<path d="M1387.85 330.265C1387.83 331.995 1381.44 369.252 1381 373.26C1379.73 384.885 1386.21 396.319 1386.16 414.272C1386.1 436.108 1378.62 495.031 1377.52 497.668C1376.42 500.306 1370.69 498.09 1370.69 498.09C1370.69 498.09 1351.99 419.926 1350.09 387.775C1348.53 361.277 1350.62 303.788 1350.62 303.788" fill="#FFB288"/>
<path d="M1378.13 498.659C1378.13 498.659 1379.14 500.621 1379.12 501.528C1379.08 503.976 1379.04 505.642 1379.04 505.642L1377.98 505.748L1377.56 503.765C1377.56 503.765 1374.76 504.334 1371.96 506.317C1370.59 507.267 1363.61 507.414 1362.51 506.866C1361.29 506.275 1361.61 505.115 1361.98 504.63C1362.36 504.144 1369.83 500.621 1369.83 500.621" fill="#26387A"/>
<path d="M1370.69 498.09C1370.12 499.588 1364.26 503.026 1364.81 503.448C1365.38 503.87 1368.84 503.786 1372.65 502.394C1376.13 501.128 1378.07 499.756 1378.15 498.828L1377.42 496.381" fill="#FFB288"/>
<path d="M1368.83 234.949C1368.83 234.949 1385.54 245.898 1391.91 272.185C1400.49 307.628 1387.84 377.015 1387.84 377.015C1387.84 377.015 1361.66 384.674 1333.2 384.42C1304.74 384.188 1287.88 374.547 1287.81 372.838C1287.75 371.108 1283.58 318.577 1289.35 282.944C1295.85 242.945 1312.39 232.164 1312.39 232.164" fill="#003A66"/>
<path d="M1346.17 138.62C1348.76 137.649 1355.49 140.012 1368.07 144.843C1373.6 150.835 1376.02 163.936 1377.22 175.561C1373.95 203.809 1370.31 219.252 1372.08 228.788C1372.5 231.045 1374.57 232.754 1374.23 235.919C1373.55 242.438 1362.89 243.429 1342.65 245.729C1322.41 248.028 1304.2 238.83 1305.27 235.961C1306.37 233.092 1309.83 230.56 1310.38 228.661C1310.92 226.763 1312.57 202.543 1310.4 199.674C1308.2 196.805 1302.55 188.535 1302.55 180.476C1302.55 169.147 1308.79 164.063 1312.86 157.839C1319.67 147.459 1324.82 140.962 1331.41 139.316C1341.93 136.679 1346.17 138.62 1346.17 138.62Z" fill="#F0F0F0"/>
<path d="M1312.1 152.945C1312.1 152.945 1312.84 157.798 1310.35 161.869C1309.6 163.114 1305 167.798 1304.09 170.793" stroke="#6CB1EF" stroke-width="0.5" stroke-miterlimit="10"/>
<path d="M1341.32 124.824C1346.84 119.339 1347.73 108.917 1345.2 101.871C1342.37 93.9382 1331.08 88.01 1323.32 92.9678C1308.08 102.715 1323.55 142.503 1341.32 124.824Z" fill="#FFB288"/>
<path d="M1330.8 123.853L1331.1 140.815C1331.1 140.815 1330.46 144.591 1337.08 144.823C1346.17 145.14 1346.17 138.621 1346.17 138.621L1340.92 121.152" fill="#FFB288"/>
<path d="M1337.67 85.4773C1335.8 84.2537 1333.82 84.1904 1331.88 85.3296C1330.7 86.0258 1329.87 87.1861 1328.61 87.7558C1327.72 88.1566 1326.65 88.2199 1325.72 88.473C1321.32 89.6756 1317.14 93.03 1315.29 97.2283C1313.41 101.448 1314.02 108.325 1317.52 111.342C1317.37 108.072 1318.34 103.389 1320.09 100.604C1321 99.1481 1322.45 97.7135 1324.14 97.9245C1326.06 98.1354 1327.09 100.182 1328.46 101.532C1330.55 103.557 1333.54 103.979 1336.3 104.401C1339.42 104.865 1341.83 105.414 1343.37 108.494C1344.04 109.823 1344.4 111.3 1344.76 112.734C1345.18 114.464 1345.6 116.194 1345.71 117.945C1345.77 119.042 1345.71 120.182 1346.04 121.215C1346.74 123.304 1348.85 124.57 1350.93 125.266C1352.54 125.815 1355.23 126.3 1356.25 124.485C1357.09 122.966 1357.81 120.836 1358.1 119.127C1359.07 113.431 1357.26 107.524 1354.18 102.629C1350.81 97.2705 1346.02 93.6629 1341.68 89.1904C1340.41 87.8613 1339.11 86.4267 1337.67 85.4773Z" fill="#003A66"/>
<path d="M1341.93 111.575C1342.27 110.288 1343.22 108.959 1344.55 108.769C1348.87 108.115 1348.22 114.571 1346.55 116.828C1345.58 118.157 1343.07 119.866 1341.93 116.216" fill="#FFB288"/>
<path d="M1387.7 243.62L1385.68 247.966C1385.68 247.966 1378.03 249.78 1377.2 251.13C1375.92 253.261 1374 256.215 1374 257.881C1374 259.569 1374.17 266.911 1376.26 266.911C1377.56 266.911 1380.66 260.898 1381.29 260.075C1382.79 258.092 1388.86 256.658 1388.86 251.426L1392.57 243.599" fill="#FFB288"/>
<path d="M1346.17 138.389C1346.17 138.389 1364.05 133.832 1378 142.651C1388.86 149.507 1416.79 183.6 1416.79 203.135C1416.79 216.3 1390.67 248.916 1390.67 248.916L1386.33 245.814C1386.33 245.814 1388.86 220.182 1396.45 206.047C1390.84 200.435 1369.02 183.03 1363.52 177.545" fill="#F0F0F0"/>
<path d="M1360.69 175.772C1364.59 179.253 1374.88 187.523 1374.88 187.523" stroke="#6CB1EF" stroke-width="0.5" stroke-miterlimit="10"/>
<path d="M846.448 104.399L812.511 83.5017C812.511 83.5017 827.789 40.4671 807.572 25.4392C796.834 17.4445 783.213 11.9798 769.193 7.90659C737.94 -1.15065 700.622 -3.1999 672.782 10.9172C652.234 21.3154 639.772 39.1515 634.171 57.4684C629.266 73.6095 629.664 91.9517 642.888 105.082C648.82 110.977 656.94 115.43 665.59 118.87C692.469 129.623 763.493 133.671 794.349 117.909C802.899 113.532 802.137 107.637 805.716 98.4031L846.448 104.399Z" fill="#F8F8F8"/>
<path d="M660.874 58.594H659.306V62.542H657.052V52.742H659.306V56.704H660.93L663.506 52.742H665.9L662.694 57.474L665.998 62.542H663.422L660.874 58.594ZM669.887 54.898C671.053 54.898 671.949 55.178 672.575 55.738C673.2 56.2887 673.513 57.124 673.513 58.244V62.542H671.469V61.604C671.058 62.304 670.293 62.654 669.173 62.654C668.594 62.654 668.09 62.556 667.661 62.36C667.241 62.164 666.919 61.8933 666.695 61.548C666.471 61.2027 666.359 60.8107 666.359 60.372C666.359 59.672 666.62 59.1213 667.143 58.72C667.675 58.3187 668.491 58.118 669.593 58.118H671.329C671.329 57.642 671.184 57.278 670.895 57.026C670.605 56.7647 670.171 56.634 669.593 56.634C669.191 56.634 668.795 56.6993 668.403 56.83C668.02 56.9513 667.693 57.1193 667.423 57.334L666.639 55.808C667.049 55.5187 667.539 55.2947 668.109 55.136C668.687 54.9773 669.28 54.898 669.887 54.898ZM669.719 61.184C670.092 61.184 670.423 61.1 670.713 60.932C671.002 60.7547 671.207 60.498 671.329 60.162V59.392H669.831C668.935 59.392 668.487 59.686 668.487 60.274C668.487 60.554 668.594 60.778 668.809 60.946C669.033 61.1047 669.336 61.184 669.719 61.184ZM678.728 59.686H677.594V62.542H675.41V55.01H677.594V57.936H678.77L680.814 55.01H683.138L680.506 58.622L683.32 62.542H680.744L678.728 59.686ZM695.819 59.686H694.769V62.542H692.613V59.686H691.563L689.967 62.542H687.391L689.757 58.65L687.559 55.01H689.869L691.535 57.936H692.613V55.01H694.769V57.936H695.833L697.513 55.01H699.823L697.625 58.65L700.005 62.542H697.415L695.819 59.686ZM708.23 58.804C708.23 58.832 708.216 59.028 708.188 59.392H702.49C702.593 59.8587 702.835 60.2273 703.218 60.498C703.601 60.7687 704.077 60.904 704.646 60.904C705.038 60.904 705.383 60.848 705.682 60.736C705.99 60.6147 706.275 60.428 706.536 60.176L707.698 61.436C706.989 62.248 705.953 62.654 704.59 62.654C703.741 62.654 702.989 62.4907 702.336 62.164C701.683 61.828 701.179 61.366 700.824 60.778C700.469 60.19 700.292 59.5227 700.292 58.776C700.292 58.0387 700.465 57.376 700.81 56.788C701.165 56.1907 701.645 55.7287 702.252 55.402C702.868 55.066 703.554 54.898 704.31 54.898C705.047 54.898 705.715 55.0567 706.312 55.374C706.909 55.6913 707.376 56.1487 707.712 56.746C708.057 57.334 708.23 58.02 708.23 58.804ZM704.324 56.55C703.829 56.55 703.414 56.69 703.078 56.97C702.742 57.25 702.537 57.6327 702.462 58.118H706.172C706.097 57.642 705.892 57.264 705.556 56.984C705.22 56.6947 704.809 56.55 704.324 56.55ZM721.219 62.542V58.034L718.965 61.814H718.041L715.843 58.02V62.542H713.869V55.01H716.151L718.559 59.364L721.121 55.01H723.165L723.193 62.542H721.219ZM725.285 55.01H727.455V57.95H730.731V55.01H732.915V62.542H730.731V59.728H727.455V62.542H725.285V55.01ZM742.328 58.804C742.328 58.832 742.314 59.028 742.286 59.392H736.588C736.69 59.8587 736.933 60.2273 737.316 60.498C737.698 60.7687 738.174 60.904 738.744 60.904C739.136 60.904 739.481 60.848 739.78 60.736C740.088 60.6147 740.372 60.428 740.634 60.176L741.796 61.436C741.086 62.248 740.05 62.654 738.688 62.654C737.838 62.654 737.087 62.4907 736.434 62.164C735.78 61.828 735.276 61.366 734.922 60.778C734.567 60.19 734.39 59.5227 734.39 58.776C734.39 58.0387 734.562 57.376 734.908 56.788C735.262 56.1907 735.743 55.7287 736.35 55.402C736.966 55.066 737.652 54.898 738.408 54.898C739.145 54.898 739.812 55.0567 740.41 55.374C741.007 55.6913 741.474 56.1487 741.81 56.746C742.155 57.334 742.328 58.02 742.328 58.804ZM738.422 56.55C737.927 56.55 737.512 56.69 737.176 56.97C736.84 57.25 736.634 57.6327 736.56 58.118H740.27C740.195 57.642 739.99 57.264 739.654 56.984C739.318 56.6947 738.907 56.55 738.422 56.55ZM754.295 56.802H751.747V62.542H749.577V56.802H747.029V55.01H754.295V56.802ZM762.466 58.804C762.466 58.832 762.452 59.028 762.424 59.392H756.726C756.829 59.8587 757.072 60.2273 757.454 60.498C757.837 60.7687 758.313 60.904 758.882 60.904C759.274 60.904 759.62 60.848 759.918 60.736C760.226 60.6147 760.511 60.428 760.772 60.176L761.934 61.436C761.225 62.248 760.189 62.654 758.826 62.654C757.977 62.654 757.226 62.4907 756.572 62.164C755.919 61.828 755.415 61.366 755.06 60.778C754.706 60.19 754.528 59.5227 754.528 58.776C754.528 58.0387 754.701 57.376 755.046 56.788C755.401 56.1907 755.882 55.7287 756.488 55.402C757.104 55.066 757.79 54.898 758.546 54.898C759.284 54.898 759.951 55.0567 760.548 55.374C761.146 55.6913 761.612 56.1487 761.948 56.746C762.294 57.334 762.466 58.02 762.466 58.804ZM758.56 56.55C758.066 56.55 757.65 56.69 757.314 56.97C756.978 57.25 756.773 57.6327 756.698 58.118H760.408C760.334 57.642 760.128 57.264 759.792 56.984C759.456 56.6947 759.046 56.55 758.56 56.55ZM771.63 55.01V62.542H769.446V56.802H766.31V62.542H764.14V55.01H771.63ZM781.046 58.804C781.046 58.832 781.032 59.028 781.004 59.392H775.306C775.409 59.8587 775.652 60.2273 776.034 60.498C776.417 60.7687 776.893 60.904 777.462 60.904C777.854 60.904 778.2 60.848 778.498 60.736C778.806 60.6147 779.091 60.428 779.352 60.176L780.514 61.436C779.805 62.248 778.769 62.654 777.406 62.654C776.557 62.654 775.806 62.4907 775.152 62.164C774.499 61.828 773.995 61.366 773.64 60.778C773.286 60.19 773.108 59.5227 773.108 58.776C773.108 58.0387 773.281 57.376 773.626 56.788C773.981 56.1907 774.462 55.7287 775.068 55.402C775.684 55.066 776.37 54.898 777.126 54.898C777.864 54.898 778.531 55.0567 779.128 55.374C779.726 55.6913 780.192 56.1487 780.528 56.746C780.874 57.334 781.046 58.02 781.046 58.804ZM777.14 56.55C776.646 56.55 776.23 56.69 775.894 56.97C775.558 57.25 775.353 57.6327 775.278 58.118H778.988C778.914 57.642 778.708 57.264 778.372 56.984C778.036 56.6947 777.626 56.55 777.14 56.55ZM787.159 54.898C787.859 54.898 788.493 55.0613 789.063 55.388C789.641 55.7053 790.094 56.158 790.421 56.746C790.747 57.3247 790.911 58.0013 790.911 58.776C790.911 59.5507 790.747 60.232 790.421 60.82C790.094 61.3987 789.641 61.8513 789.063 62.178C788.493 62.4953 787.859 62.654 787.159 62.654C786.197 62.654 785.441 62.3507 784.891 61.744V65.258H782.707V55.01H784.793V55.878C785.334 55.2247 786.123 54.898 787.159 54.898ZM786.781 60.862C787.341 60.862 787.798 60.6753 788.153 60.302C788.517 59.9193 788.699 59.4107 788.699 58.776C788.699 58.1413 788.517 57.6373 788.153 57.264C787.798 56.8813 787.341 56.69 786.781 56.69C786.221 56.69 785.759 56.8813 785.395 57.264C785.04 57.6373 784.863 58.1413 784.863 58.776C784.863 59.4107 785.04 59.9193 785.395 60.302C785.759 60.6753 786.221 60.862 786.781 60.862ZM796.515 57.418C797.495 57.4273 798.247 57.6513 798.769 58.09C799.292 58.5193 799.553 59.1307 799.553 59.924C799.553 60.7547 799.259 61.4033 798.671 61.87C798.093 62.3273 797.276 62.556 796.221 62.556L792.441 62.542V55.01H794.611V57.418H796.515ZM796.025 61.002C796.445 61.0113 796.767 60.9227 796.991 60.736C797.215 60.5493 797.327 60.2693 797.327 59.896C797.327 59.532 797.215 59.266 796.991 59.098C796.777 58.93 796.455 58.8413 796.025 58.832L794.611 58.818V61.002H796.025ZM671.375 75.622C671.823 75.762 672.168 75.9767 672.411 76.266C672.663 76.5553 672.789 76.9007 672.789 77.302C672.789 77.778 672.626 78.198 672.299 78.562C671.972 78.9167 671.524 79.192 670.955 79.388C670.386 79.584 669.742 79.682 669.023 79.682C668.435 79.682 667.856 79.6213 667.287 79.5C666.718 79.3787 666.19 79.1967 665.705 78.954L666.293 77.428C667.086 77.8107 667.964 78.002 668.925 78.002C669.438 78.002 669.84 77.9273 670.129 77.778C670.428 77.6193 670.577 77.4 670.577 77.12C670.577 76.8773 670.474 76.6953 670.269 76.574C670.064 76.4433 669.765 76.378 669.373 76.378H667.833V75.02H669.177C669.56 75.02 669.854 74.9593 670.059 74.838C670.264 74.7167 670.367 74.5393 670.367 74.306C670.367 74.0633 670.236 73.8767 669.975 73.746C669.723 73.6153 669.359 73.55 668.883 73.55C668.155 73.55 667.362 73.7227 666.503 74.068L665.971 72.556C667.016 72.0987 668.034 71.87 669.023 71.87C669.704 71.87 670.311 71.954 670.843 72.122C671.384 72.29 671.809 72.5373 672.117 72.864C672.425 73.1813 672.579 73.5547 672.579 73.984C672.579 74.3387 672.472 74.6607 672.257 74.95C672.042 75.23 671.748 75.454 671.375 75.622ZM677.304 71.898C678.47 71.898 679.366 72.178 679.992 72.738C680.617 73.2887 680.93 74.124 680.93 75.244V79.542H678.886V78.604C678.475 79.304 677.71 79.654 676.59 79.654C676.011 79.654 675.507 79.556 675.078 79.36C674.658 79.164 674.336 78.8933 674.112 78.548C673.888 78.2027 673.776 77.8107 673.776 77.372C673.776 76.672 674.037 76.1213 674.56 75.72C675.092 75.3187 675.908 75.118 677.01 75.118H678.746C678.746 74.642 678.601 74.278 678.312 74.026C678.022 73.7647 677.588 73.634 677.01 73.634C676.608 73.634 676.212 73.6993 675.82 73.83C675.437 73.9513 675.11 74.1193 674.84 74.334L674.056 72.808C674.466 72.5187 674.956 72.2947 675.526 72.136C676.104 71.9773 676.697 71.898 677.304 71.898ZM677.136 78.184C677.509 78.184 677.84 78.1 678.13 77.932C678.419 77.7547 678.624 77.498 678.746 77.162V76.392H677.248C676.352 76.392 675.904 76.686 675.904 77.274C675.904 77.554 676.011 77.778 676.226 77.946C676.45 78.1047 676.753 78.184 677.136 78.184ZM686.145 76.686H685.011V79.542H682.827V72.01H685.011V74.936H686.187L688.231 72.01H690.555L687.923 75.622L690.737 79.542H688.161L686.145 76.686ZM694.599 71.898C695.765 71.898 696.661 72.178 697.287 72.738C697.912 73.2887 698.225 74.124 698.225 75.244V79.542H696.181V78.604C695.77 79.304 695.005 79.654 693.885 79.654C693.306 79.654 692.802 79.556 692.373 79.36C691.953 79.164 691.631 78.8933 691.407 78.548C691.183 78.2027 691.071 77.8107 691.071 77.372C691.071 76.672 691.332 76.1213 691.855 75.72C692.387 75.3187 693.203 75.118 694.305 75.118H696.041C696.041 74.642 695.896 74.278 695.607 74.026C695.317 73.7647 694.883 73.634 694.305 73.634C693.903 73.634 693.507 73.6993 693.115 73.83C692.732 73.9513 692.405 74.1193 692.135 74.334L691.351 72.808C691.761 72.5187 692.251 72.2947 692.821 72.136C693.399 71.9773 693.992 71.898 694.599 71.898ZM694.431 78.184C694.804 78.184 695.135 78.1 695.425 77.932C695.714 77.7547 695.919 77.498 696.041 77.162V76.392H694.543C693.647 76.392 693.199 76.686 693.199 77.274C693.199 77.554 693.306 77.778 693.521 77.946C693.745 78.1047 694.048 78.184 694.431 78.184ZM704.94 75.622C705.388 75.762 705.733 75.9767 705.976 76.266C706.228 76.5553 706.354 76.9007 706.354 77.302C706.354 77.778 706.19 78.198 705.864 78.562C705.537 78.9167 705.089 79.192 704.52 79.388C703.95 79.584 703.306 79.682 702.588 79.682C702 79.682 701.421 79.6213 700.852 79.5C700.282 79.3787 699.755 79.1967 699.27 78.954L699.858 77.428C700.651 77.8107 701.528 78.002 702.49 78.002C703.003 78.002 703.404 77.9273 703.694 77.778C703.992 77.6193 704.142 77.4 704.142 77.12C704.142 76.8773 704.039 76.6953 703.834 76.574C703.628 76.4433 703.33 76.378 702.938 76.378H701.398V75.02H702.742C703.124 75.02 703.418 74.9593 703.624 74.838C703.829 74.7167 703.932 74.5393 703.932 74.306C703.932 74.0633 703.801 73.8767 703.54 73.746C703.288 73.6153 702.924 73.55 702.448 73.55C701.72 73.55 700.926 73.7227 700.068 74.068L699.536 72.556C700.581 72.0987 701.598 71.87 702.588 71.87C703.269 71.87 703.876 71.954 704.408 72.122C704.949 72.29 705.374 72.5373 705.682 72.864C705.99 73.1813 706.144 73.5547 706.144 73.984C706.144 74.3387 706.036 74.6607 705.822 74.95C705.607 75.23 705.313 75.454 704.94 75.622ZM710.868 71.898C712.035 71.898 712.931 72.178 713.556 72.738C714.182 73.2887 714.494 74.124 714.494 75.244V79.542H712.45V78.604C712.04 79.304 711.274 79.654 710.154 79.654C709.576 79.654 709.072 79.556 708.642 79.36C708.222 79.164 707.9 78.8933 707.676 78.548C707.452 78.2027 707.34 77.8107 707.34 77.372C707.34 76.672 707.602 76.1213 708.124 75.72C708.656 75.3187 709.473 75.118 710.574 75.118H712.31C712.31 74.642 712.166 74.278 711.876 74.026C711.587 73.7647 711.153 73.634 710.574 73.634C710.173 73.634 709.776 73.6993 709.384 73.83C709.002 73.9513 708.675 74.1193 708.404 74.334L707.62 72.808C708.031 72.5187 708.521 72.2947 709.09 72.136C709.669 71.9773 710.262 71.898 710.868 71.898ZM710.7 78.184C711.074 78.184 711.405 78.1 711.694 77.932C711.984 77.7547 712.189 77.498 712.31 77.162V76.392H710.812C709.916 76.392 709.468 76.686 709.468 77.274C709.468 77.554 709.576 77.778 709.79 77.946C710.014 78.1047 710.318 78.184 710.7 78.184ZM722.719 73.802H720.171V79.542H718.001V73.802H715.453V72.01H722.719V73.802ZM727.958 74.418C728.938 74.4273 729.689 74.6513 730.212 75.09C730.734 75.5193 730.996 76.1307 730.996 76.924C730.996 77.7547 730.702 78.4033 730.114 78.87C729.535 79.3273 728.718 79.556 727.664 79.556L723.884 79.542V72.01H726.054V74.418H727.958ZM727.468 78.002C727.888 78.0113 728.21 77.9227 728.434 77.736C728.658 77.5493 728.77 77.2693 728.77 76.896C728.77 76.532 728.658 76.266 728.434 76.098C728.219 75.93 727.897 75.8413 727.468 75.832L726.054 75.818V78.002H727.468ZM739.643 76.686H738.509V79.542H736.325V72.01H738.509V74.936H739.685L741.729 72.01H744.053L741.421 75.622L744.235 79.542H741.659L739.643 76.686ZM752.43 72.01L749.028 80.004C748.682 80.872 748.253 81.4833 747.74 81.838C747.236 82.1927 746.624 82.37 745.906 82.37C745.514 82.37 745.126 82.3093 744.744 82.188C744.361 82.0667 744.048 81.8987 743.806 81.684L744.604 80.13C744.772 80.2793 744.963 80.396 745.178 80.48C745.402 80.564 745.621 80.606 745.836 80.606C746.134 80.606 746.377 80.5313 746.564 80.382C746.75 80.242 746.918 80.004 747.068 79.668L747.096 79.598L743.834 72.01H746.088L748.202 77.12L750.33 72.01H752.43ZM757.791 79.542L756.139 77.232L754.431 79.542H752.051L754.949 75.748L752.149 72.01H754.599L756.195 74.208L757.833 72.01H760.157L757.357 75.692L760.269 79.542H757.791ZM761.345 72.01H763.515V74.95H766.791V72.01H768.975V79.542H766.791V76.728H763.515V79.542H761.345V72.01ZM778.191 71.898C778.957 71.898 779.643 72.066 780.249 72.402C780.856 72.7287 781.332 73.186 781.677 73.774C782.023 74.362 782.195 75.0293 782.195 75.776C782.195 76.5227 782.023 77.19 781.677 77.778C781.332 78.366 780.856 78.828 780.249 79.164C779.643 79.4907 778.957 79.654 778.191 79.654C777.529 79.654 776.922 79.5327 776.371 79.29C775.821 79.038 775.363 78.688 774.999 78.24C774.635 77.7827 774.393 77.26 774.271 76.672H773.235V79.542H771.065V72.01H773.235V74.782H774.285C774.5 73.9047 774.957 73.2047 775.657 72.682C776.357 72.1593 777.202 71.898 778.191 71.898ZM778.191 77.862C778.723 77.862 779.162 77.6753 779.507 77.302C779.862 76.9193 780.039 76.4107 780.039 75.776C780.039 75.132 779.862 74.6233 779.507 74.25C779.162 73.8767 778.723 73.69 778.191 73.69C777.65 73.69 777.202 73.8767 776.847 74.25C776.502 74.6233 776.329 75.132 776.329 75.776C776.329 76.4107 776.502 76.9193 776.847 77.302C777.202 77.6753 777.65 77.862 778.191 77.862ZM785.084 76.14C785.084 75.6547 785.192 75.2533 785.406 74.936C785.63 74.6187 785.952 74.2687 786.372 73.886C786.68 73.606 786.904 73.3727 787.044 73.186C787.194 72.99 787.268 72.7707 787.268 72.528C787.268 72.1827 787.128 71.912 786.848 71.716C786.578 71.5107 786.214 71.408 785.756 71.408C785.318 71.408 784.926 71.5013 784.58 71.688C784.244 71.8653 783.96 72.1173 783.726 72.444L782.032 71.45C782.424 70.8527 782.952 70.3907 783.614 70.064C784.286 69.7373 785.08 69.574 785.994 69.574C787.068 69.574 787.926 69.8027 788.57 70.26C789.224 70.7173 789.55 71.352 789.55 72.164C789.55 72.5467 789.485 72.8827 789.354 73.172C789.233 73.4613 789.079 73.7087 788.892 73.914C788.715 74.11 788.482 74.3387 788.192 74.6C787.847 74.908 787.595 75.1693 787.436 75.384C787.278 75.5893 787.198 75.8413 787.198 76.14H785.084ZM786.148 79.654C785.766 79.654 785.444 79.5327 785.182 79.29C784.93 79.038 784.804 78.7347 784.804 78.38C784.804 78.0253 784.93 77.7313 785.182 77.498C785.434 77.2553 785.756 77.134 786.148 77.134C786.54 77.134 786.862 77.2553 787.114 77.498C787.366 77.7313 787.492 78.0253 787.492 78.38C787.492 78.7347 787.362 79.038 787.1 79.29C786.848 79.5327 786.531 79.654 786.148 79.654Z" fill="#E88D67"/>
<defs>
<linearGradient id="paint0_linear" x1="1372.45" y1="309.458" x2="1372.45" y2="502.308" gradientUnits="userSpaceOnUse">
<stop stop-color="#F5A484"/>
<stop offset="1" stop-color="#D06330"/>
</linearGradient>
<linearGradient id="paint1_linear" x1="1106.67" y1="256.594" x2="1106.67" y2="370.327" gradientUnits="userSpaceOnUse">
<stop stop-color="#F5A484"/>
<stop offset="1" stop-color="#D06330"/>
</linearGradient>
<linearGradient id="paint2_linear" x1="431.345" y1="288.255" x2="431.345" y2="503.746" gradientUnits="userSpaceOnUse">
<stop stop-color="#F5A484"/>
<stop offset="1" stop-color="#D06330"/>
</linearGradient>
<linearGradient id="paint3_linear" x1="896.443" y1="229.592" x2="896.443" y2="346.155" gradientUnits="userSpaceOnUse">
<stop stop-color="#F5A484"/>
<stop offset="1" stop-color="#D06330"/>
</linearGradient>
</defs>
</svg>
