<svg width="768" height="440" viewBox="0 0 768 440" fill="none" xmlns="http://www.w3.org/2000/svg">
<path d="M705.745 404.884C701.244 396.293 682.943 389.387 674.759 387.819C631.055 379.479 585.284 380.63 541.031 380.78C492.826 380.93 446.822 388.653 399.018 392.223C374.15 394.075 347.881 390.738 322.962 389.871C281.925 388.453 240.905 386.785 199.884 384.867C164.515 383.215 127.812 386.919 96.6089 406.435C93.0586 408.654 89.4749 411.34 87.8748 415.31C77.7406 440.315 204.035 437.162 220.486 437.596C303.493 439.764 386.551 440.882 469.558 438.63C531.28 436.962 595.602 437.062 656.824 428.338C670.358 426.403 688.777 425.719 700.478 417.745C706.928 413.341 707.862 408.938 705.745 404.884Z" fill="#F5F5F5"/>
<path d="M651.996 63.6572C653.08 63.6572 654.196 63.6739 655.33 63.724" stroke="#D2E8F9" stroke-miterlimit="10"/>
<path d="M662.016 64.1895C683.535 66.3747 709.82 75.4826 706.753 94.1153C701.853 123.824 569.941 112.865 538.439 113.165C475.083 113.782 411.044 114.016 348.922 127.895C333.821 131.264 312.186 138.704 313.819 157.987C314.386 164.726 318.37 170.815 323.403 175.386C341.538 191.783 366.824 193.351 390.293 196.237C425.779 200.591 594.61 194.786 649.798 212.901C660.666 216.471 674.25 221.059 674.7 236.605C675.85 276.106 577.809 274.171 548.406 274.922C469.916 276.924 391.343 276.139 312.853 274.588C249.414 273.337 185.792 272.219 122.469 268.133C98.8674 266.598 60.2473 266.148 42.2458 248.416C32.1783 238.507 30.8615 220.475 46.7795 211.267C57.9972 204.778 90.9 207.614 103.568 206.529C141.871 203.226 130.287 179.973 99.2507 177.004" stroke="#DBDBDB" stroke-miterlimit="10" stroke-dasharray="4.01 4.01"/>
<path d="M95.9 176.721C94.8166 176.671 93.6998 176.638 92.5664 176.638" stroke="#D2E8F9" stroke-miterlimit="10"/>
<path d="M654.252 92.5495L644.151 39.0866C643.551 35.8838 639.718 34.5493 637.251 36.6678L596.031 72.1652C593.564 74.2837 594.33 78.2871 597.397 79.3547L648.718 97.3203C651.785 98.3878 654.852 95.7356 654.252 92.5495Z" fill="#FDAB88"/>
<path d="M646.464 91.7333C646.18 91.7333 645.88 91.6832 645.597 91.5832L603.393 76.8037C602.51 76.5035 601.86 75.7361 601.676 74.8187C601.51 73.9012 601.826 72.9504 602.543 72.3499L636.446 43.158C637.146 42.5408 638.13 42.3573 639.013 42.6742C639.896 42.9745 640.546 43.7418 640.73 44.6593L649.047 88.6306C649.214 89.5481 648.897 90.4989 648.18 91.1161C647.697 91.5164 647.08 91.7333 646.464 91.7333ZM605.66 74.068L645.547 88.0301L637.696 46.4775L605.66 74.068Z" fill="#C16C44"/>
<path d="M628.137 73.7839C627.337 73.5003 626.904 72.6496 627.137 71.8322L631.321 57.1361C631.721 55.7849 633.188 55.0343 634.521 55.5014C635.855 55.9684 636.538 57.4531 636.005 58.7709L630.121 72.8664C629.821 73.6671 628.937 74.0674 628.137 73.7839Z" fill="#C16C44"/>
<path d="M628.455 77.7866C628.155 78.6207 627.238 79.0711 626.405 78.7708C625.571 78.4706 625.121 77.5531 625.421 76.7191C625.721 75.885 626.638 75.4346 627.471 75.7349C628.305 76.0184 628.755 76.9359 628.455 77.7866Z" fill="#C16C44"/>
<path d="M89.3697 158.656L56.1335 142.109C54.15 141.124 51.8331 142.659 51.9664 144.861L54.25 181.943C54.3833 184.162 56.8669 185.396 58.717 184.162L89.653 163.644C91.5198 162.41 91.3532 159.64 89.3697 158.656Z" fill="#FDAB88"/>
<path d="M85.7182 162.557C85.6015 162.707 85.4515 162.857 85.2849 162.974L59.8326 179.855C59.2992 180.206 58.6158 180.256 58.0491 179.972C57.4824 179.688 57.099 179.121 57.0657 178.487L55.1822 147.994C55.1489 147.36 55.4489 146.743 55.9823 146.393C56.5157 146.043 57.199 145.993 57.7658 146.276L85.1015 159.888C85.6682 160.172 86.0516 160.739 86.0849 161.389C86.1016 161.79 85.9682 162.223 85.7182 162.557ZM59.2826 177.487L83.3347 161.539L57.5158 148.678L59.2826 177.487Z" fill="#C16C44"/>
<path d="M68.397 165.128C67.9136 165.445 67.2635 165.328 66.9302 164.861L60.663 156.521C60.0963 155.737 60.2963 154.636 61.0963 154.102C61.8964 153.568 62.9965 153.819 63.4799 154.636L68.7137 163.66C69.0137 164.161 68.8804 164.811 68.397 165.128Z" fill="#C16C44"/>
<path d="M70.7008 166.613C71.0341 167.113 70.9008 167.797 70.384 168.147C69.884 168.481 69.2006 168.347 68.8506 167.83C68.5172 167.33 68.6505 166.646 69.1672 166.296C69.684 165.962 70.3674 166.112 70.7008 166.613Z" fill="#C16C44"/>
<path d="M112.392 233.423C113.92 233.423 115.159 232.183 115.159 230.654C115.159 229.125 113.92 227.885 112.392 227.885C110.864 227.885 109.625 229.125 109.625 230.654C109.625 232.183 110.864 233.423 112.392 233.423Z" stroke="#FFB288" stroke-miterlimit="10"/>
<path d="M523.13 182.178C524.658 182.178 525.897 180.938 525.897 179.409C525.897 177.879 524.658 176.64 523.13 176.64C521.602 176.64 520.363 177.879 520.363 179.409C520.363 180.938 521.602 182.178 523.13 182.178Z" stroke="#FFB288" stroke-miterlimit="10"/>
<path d="M305.208 104.578C306.736 104.578 307.975 103.338 307.975 101.809C307.975 100.28 306.736 99.04 305.208 99.04C303.68 99.04 302.441 100.28 302.441 101.809C302.441 103.338 303.68 104.578 305.208 104.578Z" stroke="#FFB288" stroke-miterlimit="10"/>
<path d="M301.892 315.177C303.42 315.177 304.659 313.937 304.659 312.408C304.659 310.878 303.42 309.639 301.892 309.639C300.364 309.639 299.125 310.878 299.125 312.408C299.125 313.937 300.364 315.177 301.892 315.177Z" stroke="#FFB288" stroke-miterlimit="10"/>
<path d="M366.375 149.351V155.606" stroke="#FFB288" stroke-miterlimit="10" stroke-linecap="round" stroke-linejoin="round"/>
<path d="M369.493 152.486H363.242" stroke="#FFB288" stroke-miterlimit="10" stroke-linecap="round" stroke-linejoin="round"/>
<path d="M478.738 69.2979V75.57" stroke="#FFB288" stroke-miterlimit="10" stroke-linecap="round" stroke-linejoin="round"/>
<path d="M481.856 72.4336H475.605" stroke="#FFB288" stroke-miterlimit="10" stroke-linecap="round" stroke-linejoin="round"/>
<path d="M652.562 238.292V244.564" stroke="#FFB288" stroke-miterlimit="10" stroke-linecap="round" stroke-linejoin="round"/>
<path d="M655.68 241.428H649.43" stroke="#FFB288" stroke-miterlimit="10" stroke-linecap="round" stroke-linejoin="round"/>
<path d="M422.577 417.392C422.577 417.392 410.926 422.363 410.926 424.848C410.926 426.283 426.944 424.231 427.911 423.263C429.461 421.712 427.277 417.592 427.277 417.592L422.577 417.392Z" fill="#003A66"/>
<path d="M421.824 410.437L422.574 417.61C422.574 417.61 422.958 418.761 424.591 418.895C426.225 419.028 427.291 417.61 427.291 417.61L426.708 408.636" fill="#FFB288"/>
<path d="M442.18 246.01C446.413 263.108 444.847 271.782 438.629 284.677C434.862 328.031 432.246 371.201 427.178 413.471L421.828 413.772C409.66 372.619 398.476 311.099 399.91 254.867" fill="#003A66"/>
<path d="M439.545 251.883C441.095 255.853 441.478 260.323 441.345 264.544C441.145 271.033 438.511 276.904 436.794 283.043C434.528 291.25 434.344 299.407 433.728 307.815C432.761 320.976 431.761 334.121 430.761 347.282C429.127 368.734 427.477 390.186 425.81 411.638C425.76 412.272 425.71 412.905 425.66 413.556" stroke="#0061A6" stroke-width="0.5" stroke-miterlimit="10"/>
<path d="M469.046 419.063C469.046 419.063 457.395 424.034 457.395 426.52C457.395 427.955 473.413 425.903 474.379 424.935C475.929 423.384 473.746 419.264 473.746 419.264L469.046 419.063Z" fill="#003A66"/>
<path d="M468.293 412.107L469.043 419.28C469.043 419.28 469.426 420.431 471.06 420.565C472.693 420.698 473.76 419.28 473.76 419.28L473.177 410.306" fill="#FFB288"/>
<path d="M480.933 244.562C486.3 261.326 485.3 270.1 479.95 283.378C479.067 326.883 476.066 372.305 473.816 414.825H468.316C453.464 374.574 437.546 312.42 435.246 256.205" fill="#003A66"/>
<path d="M478.281 251.499C478.281 251.499 484.498 266.045 473.998 286.479C472.781 305.763 472.164 414.807 472.164 414.807" stroke="#0061A6" stroke-width="0.5" stroke-miterlimit="10"/>
<path d="M462.91 256.119C463.977 257.771 465.66 258.938 467.461 259.672C469.277 260.406 471.211 260.723 473.144 260.957C475.445 261.24 477.761 261.424 480.078 261.307" stroke="#0061A6" stroke-width="0.5" stroke-miterlimit="10"/>
<path d="M463.66 258.838C465.644 260.639 468.177 261.74 470.777 262.341C473.378 262.941 476.061 263.058 478.728 263.092" stroke="#0061A6" stroke-width="0.5" stroke-miterlimit="10"/>
<path d="M417.321 163.493C398.786 195.771 378.835 224.996 367.017 260.277L363.5 258.409C364.4 225.647 375.018 178.006 388.952 148.33" fill="#FFB288"/>
<path d="M408.27 129.797C408.27 129.797 402.536 131.415 395.785 135.902C389.435 140.122 384.634 146.411 381.384 153.301C378.117 160.19 376.334 167.696 375.184 175.236C375.184 175.236 382.934 179.123 391.835 180.224C400.719 181.341 410.187 180.224 410.187 180.224" fill="#F0F0F0"/>
<path d="M394.439 148.879C392.473 183.776 393.973 219.691 394.856 253.637C394.856 253.637 407.024 256.873 436.56 256.873C465.996 256.873 485.264 247.898 485.264 247.898C479.563 213.002 475.03 170.198 461.062 141.473C461.062 141.473 445.294 124.458 429.759 123.758C426.626 123.624 423.509 124.759 420.525 126.143C418.325 127.161 408.241 129.629 408.241 129.629L394.439 148.879Z" fill="#F0F0F0"/>
<path d="M394.278 151.982C393.512 158.688 393.512 179.406 393.512 179.406" stroke="#94C1F2" stroke-width="0.5" stroke-miterlimit="10"/>
<path d="M423.668 264.612C473.039 259.141 493.741 321.745 504.975 346.033C531.544 403.449 631.786 397.044 677.473 397.044C737.312 397.044 744.628 399.987 769.899 409.625" stroke="url(#paint0_linear)" stroke-width="5" stroke-miterlimit="10" stroke-linecap="round" stroke-linejoin="round"/>
<path d="M440.683 267.449C440.683 292.871 421.464 308.201 405.029 308.201H378.094V226.697H405.029C421.464 226.697 440.683 242.027 440.683 267.449Z" fill="#C16C44"/>
<path d="M426.801 267.449C426.801 292.287 412.1 312.404 393.982 312.404H364.246V222.477H393.982C412.1 222.477 426.801 242.611 426.801 267.449Z" fill="url(#paint1_linear)"/>
<path opacity="0.5" d="M433.386 242.878C426.953 251.652 420.685 260.527 414.602 269.534C415.468 269.368 416.268 268.951 416.902 268.333C416.902 269.017 415.818 270.185 416.785 270.619C417.735 271.052 418.735 269.935 419.735 270.235C420.669 270.018 421.535 268.85 422.219 268.167C421.919 268.867 421.852 269.368 421.802 269.735C428.353 267.182 434.22 261.06 439.32 256.139C438.07 251.152 436.003 246.698 433.386 242.878Z" fill="#FDAE2B"/>
<path d="M366.378 312.402C384.504 312.402 399.198 292.275 399.198 267.447C399.198 242.619 384.504 222.491 366.378 222.491C348.252 222.491 333.559 242.619 333.559 267.447C333.559 292.275 348.252 312.402 366.378 312.402Z" fill="#FDAB88"/>
<path d="M369.115 283.379C369.115 287.065 366.598 290.068 363.481 290.068C360.365 290.068 357.848 287.082 357.848 283.379C357.848 279.692 360.365 276.689 363.481 276.689C366.598 276.689 369.115 279.692 369.115 283.379Z" fill="#C16C44"/>
<path d="M369.115 251.503C369.115 255.189 366.598 258.192 363.481 258.192C360.365 258.192 357.848 255.206 357.848 251.503C357.848 247.816 360.365 244.813 363.481 244.813C366.598 244.813 369.115 247.816 369.115 251.503Z" fill="#C16C44"/>
<path d="M470.053 174.636C470.053 174.636 472.137 195.871 462.652 213.536C454.535 228.633 438.417 248.183 425.399 258.959L422.266 258.191C426.799 240.776 441.101 209.866 442.001 198.29C442.884 186.696 442.684 173.268 442.884 166.812" fill="#FFB288"/>
<path d="M429.773 123.741C429.773 123.741 447.242 124.942 457.376 133.5C471.844 145.727 473.977 169.681 473.977 175.236C469.61 179.957 460.043 180.207 453.075 180.207C446.108 180.207 441.024 176.871 441.024 176.871L439.608 150.464" fill="#F0F0F0"/>
<path d="M423.541 255.606C421.558 255.807 419.624 256.774 417.957 258.075C416.424 259.276 414.54 261.278 414.74 262.195C414.94 263.163 417.457 261.311 417.757 261.678C418.057 262.045 413.457 269.001 414.324 269.518C415.19 270.036 419.108 263.747 419.108 263.747C419.108 263.747 415.307 270.469 416.774 270.619C418.007 270.736 421.374 264.381 421.374 264.381C421.374 264.381 418.524 270.069 419.508 270.286C420.491 270.503 423.125 264.831 423.125 264.831C423.125 264.831 420.974 269.669 421.791 269.752C422.208 269.785 424.325 267.383 425.225 264.464C426.091 261.595 427.125 259.093 426.325 256.858" fill="#FFB288"/>
<path d="M441.758 153.25V177.304" stroke="#94C1F2" stroke-width="0.5" stroke-miterlimit="10"/>
<path d="M393.563 101.555C393.48 102.606 393.43 103.64 393.43 104.691C393.446 106.96 393.746 109.328 395.046 111.197C395.947 112.464 397.297 113.415 398.797 113.832C399.864 114.116 401.247 113.999 401.714 112.998C401.88 112.648 401.88 112.247 401.88 111.847C401.864 107.96 401.114 104.09 399.664 100.487" fill="#26387A"/>
<path d="M419.926 103.739C418.426 97.9011 413.709 89.7107 406.042 91.3454C401.225 92.3796 396.791 95.6658 395.374 100.253C393.674 105.741 396.424 112.13 399.708 116.601C400.925 118.252 402.358 119.82 404.225 120.804C408.659 123.106 414.659 121.221 417.676 117.385C420.693 113.548 421.11 108.36 419.926 103.739Z" fill="#FFB288"/>
<path d="M409.163 119.021L411.663 128.179L408.246 129.797C408.246 129.797 410.846 133.267 415.997 132.516C426.464 130.998 429.748 123.742 429.748 123.742L423.847 123.125L417.314 111.965" fill="#FFB288"/>
<path d="M425.03 97.3509C424.297 93.3308 421.43 89.9278 417.946 87.8093C411.745 84.0394 402.928 83.7391 397.428 88.9269C394.294 91.8795 388.643 102.355 395.394 104.424C397.511 105.074 399.678 103.79 401.511 102.555C403.378 101.304 405.245 100.053 407.112 98.8021C407.778 98.3518 408.495 97.8847 409.295 97.8513C410.612 97.8013 411.712 98.9356 412.179 100.17C412.646 101.404 412.679 102.756 412.996 104.04C413.212 104.941 413.612 105.875 414.396 106.392C415.179 106.892 416.429 106.742 416.829 105.908C417.113 105.324 416.913 104.641 416.896 103.99C416.879 103.339 417.246 102.539 417.896 102.572C418.129 102.589 418.346 102.706 418.529 102.839C420.163 104.107 419.63 106.659 420.163 108.644C420.23 108.911 419.696 112.948 419.863 113.148C425.063 111.98 425.547 100.237 425.03 97.3509Z" fill="#003A66"/>
<path d="M417.333 103.106C417.216 102.373 417.916 101.689 418.667 101.605C419.417 101.522 420.133 101.905 420.7 102.389C421.684 103.207 422.384 104.408 422.4 105.675C422.417 106.676 422.017 107.644 421.467 108.478C421.1 109.045 420.617 109.595 419.967 109.796C419.133 110.062 418.217 109.679 417.616 109.045" fill="#FFB288"/>
<path d="M231.732 417.147C231.732 417.147 242.966 419.016 243.283 421.501C243.466 422.919 227.532 424.604 226.448 423.77C224.715 422.435 226.848 417.448 226.848 417.448L231.732 417.147Z" fill="#003A66"/>
<path d="M230.834 410.242L231.751 417.348C231.751 417.348 231.517 418.549 229.917 418.883C228.317 419.216 227.067 417.949 227.067 417.949L225.75 409.074" fill="#FFB288"/>
<path d="M188.809 248.201C186.792 265.7 186.692 274.107 194.509 286.084C198.21 303.015 203.894 320.33 208.194 337.662C206.344 358.363 219.312 391.325 226.279 414.862L231.313 413.995C238.097 371.625 240.597 306.635 234.513 249.753" fill="#003A66"/>
<path d="M192.098 271.905C192.098 271.905 211.433 333.342 211.433 336.678C211.433 340.014 211.966 351.491 212.816 358.914C214.383 372.542 226.717 412.694 226.717 412.694" stroke="#0061A6" stroke-width="0.5" stroke-miterlimit="10"/>
<path d="M226.108 415.829L225.324 412.76L231.825 412.526L231.925 415.345L226.108 415.829Z" fill="#0061A6"/>
<path d="M144.31 417.498C144.31 417.498 153.111 423.854 152.328 426.089C151.878 427.373 137.576 422.069 137.01 420.901C136.093 419.033 140.027 415.663 140.027 415.663L144.31 417.498Z" fill="#003A66"/>
<path d="M146.467 411.242L144.25 417.698C144.25 417.698 143.55 418.616 142.034 418.232C140.533 417.848 140 416.23 140 416.23L142.617 408.106" fill="#FFB288"/>
<path d="M151.045 244.564C145.677 261.329 146.677 270.103 152.028 283.381C152.345 299.278 152.511 315.342 152.695 331.423C141.377 359.764 139.594 385.186 141.027 412.176L146.477 414.195C146.477 414.195 178.964 357.529 184.931 335.143C191.781 309.454 195.665 281.98 196.732 256.208" fill="#003A66"/>
<path d="M152.379 248.2C152.379 248.2 146.461 265.515 154.212 282.196C154.212 286.85 156.879 325.567 155.829 331.539C155.329 334.408 150.012 348.087 146.461 361.415C142.544 376.144 141.711 410.891 141.711 410.891" stroke="#0061A6" stroke-width="0.5" stroke-miterlimit="10"/>
<path d="M140 412.177L140.867 408.523L147.851 411.776L146.467 414.896L140 412.177Z" fill="#0061A6"/>
<path d="M241.887 115.02L237.503 111.283C237.503 111.283 237.503 104.744 237.503 103.543C237.503 102.342 235.87 95.136 234.403 95.136C232.936 95.136 232.603 93.3344 231.87 94.0684C231.136 94.8024 232.47 102.943 231.87 103.543C231.269 104.144 230.486 99.6732 229.936 100.224C229.386 100.774 229.336 104.06 229.336 105.728C229.336 107.397 230.669 110.499 232.003 111.817C233.336 113.152 239.203 119.507 239.203 119.507L241.887 115.02Z" fill="#EF9467"/>
<path d="M239.709 112.549L236.058 116.719C236.058 116.719 250.51 135.869 255.093 142.275C250.926 140.807 244.926 137.137 241.459 134.868C234.658 130.414 227.841 128.046 223.141 128.046C213.123 128.046 218.374 161.057 229.975 165.895C251.993 169.214 276.695 167.113 280.462 159.356C286.063 147.863 253.777 120.823 239.709 112.549Z" fill="#E9E9E9"/>
<path d="M255.07 142.261C255.07 142.261 257.821 149.967 262.721 152.47" stroke="#94C1F2" stroke-width="0.5" stroke-miterlimit="10"/>
<path d="M172.532 136.772C146.28 166.28 146.68 217.024 146.68 251.521C146.68 251.521 165.948 264.682 195.384 264.682C224.937 264.682 237.088 257.426 237.088 257.426C237.971 222.479 231.737 207.416 237.505 149.616C237.505 149.616 228.104 128.047 223.103 128.047C218.086 128.047 198.501 126.112 198.501 126.112L172.532 136.772Z" fill="#EBEBEB"/>
<path d="M236.074 166.663C236.074 166.663 236.674 156.571 239.124 154.119" stroke="#94C1F2" stroke-width="0.5" stroke-miterlimit="10"/>
<path d="M207.182 103.977C208.166 98.0219 212.399 89.5145 220.183 90.482C225.067 91.0825 228.851 94.4688 231.584 98.4222C233.934 101.808 233.051 105.061 229.701 113.652C228.634 115.404 226.334 118.54 224.567 119.674C220.35 122.36 214.216 121.008 210.866 117.455C207.516 113.902 206.415 108.681 207.182 103.977Z" fill="#FFB288"/>
<path d="M208.236 103.244C209.353 103.077 208.236 102.343 208.736 103.361C209.053 104.011 209.153 104.211 209.786 104.412C210.403 104.612 210.42 105.196 210.936 105.579C211.753 106.18 212.436 105.362 212.77 104.662C213.403 103.377 213.386 101.809 213.236 100.425C213.12 99.3238 212.753 97.5889 213.82 96.8216C214.703 96.2044 216.637 97.1052 217.537 97.3721C218.937 97.7724 220.32 98.2228 221.704 98.6565C225.054 99.6741 228.604 100.575 232.121 100.108C235.205 99.6908 238.389 98.0894 239.872 95.2202C241.639 91.8006 238.105 87.3134 234.505 87.3134C233.555 87.3134 232.671 87.6971 231.738 87.8806C231.405 87.9473 231.038 87.9973 230.705 87.8973C229.921 87.6637 229.571 86.7796 229.121 86.0957C227.788 84.0106 225.504 83.3767 223.154 83.6436C220.487 83.9438 218.204 85.2116 215.653 85.9122C214.303 86.2792 213.136 85.9289 211.803 85.9789C210.42 86.029 208.986 86.9298 208.369 88.2142C207.286 87.0799 204.852 89.8656 204.236 90.6163C201.569 93.8524 200.735 98.5231 200.669 102.627C200.602 106.213 201.202 111.418 205.119 112.869C206.786 113.486 207.819 113.803 207.903 112.285C207.169 110.7 207.003 107.581 206.853 106.263C206.703 104.945 207.086 103.377 208.303 102.86" fill="#003A66"/>
<path d="M221.002 118.19L220.152 127.181L223.102 128.015C223.102 128.015 221.535 132.052 216.385 132.736C205.901 134.137 198.5 126.08 198.5 126.08L202 125.396L207.301 108.682" fill="#FFB288"/>
<path d="M209.985 103.176C210.035 102.425 209.269 101.808 208.535 101.791C207.785 101.775 207.102 102.208 206.568 102.742C203.635 105.661 207.319 112.784 210.219 109.098" fill="#FFB288"/>
<path d="M229.734 113.484C229.267 114.585 227.401 115.036 226.384 115.136C221.45 115.686 217.366 112.483 212.649 111.9C211.716 111.783 210.649 111.699 209.949 112.333C209.282 112.934 209.232 113.935 209.216 114.819C209.199 115.92 209.182 117.037 209.282 118.122C209.366 119.072 209.549 120.04 210.049 120.857C212.183 124.41 219.3 125.011 222.9 124.794C224.35 124.711 225.867 124.427 227.017 123.56C228.634 122.342 228.984 120.19 229.601 118.305C230.318 116.02 229.734 113.484 229.734 113.484Z" fill="#003A66"/>
<path d="M226.237 117.355C226.087 117.255 225.903 117.172 225.72 117.172C223.42 117.172 222.136 116.621 220.353 116.471C220.053 116.454 219.736 116.421 219.436 116.521C218.803 116.721 218.436 117.372 218.303 118.022C218.169 118.673 218.503 119.173 219.086 119.457C220.153 119.991 221.353 120.174 222.536 120.208C223.57 120.241 224.92 120.324 225.77 119.624C226.237 119.24 226.953 117.889 226.237 117.355Z" fill="#FFB288"/>
<path d="M204.549 247.619C147.194 244.617 105.359 292.643 83.8652 331.361C68.5565 358.937 38.2507 378.807 -0.726562 392.931" stroke="url(#paint2_linear)" stroke-width="5" stroke-miterlimit="10" stroke-linecap="round" stroke-linejoin="round"/>
<path d="M182.55 252.291C184.667 277.613 205.086 291.308 221.454 289.94L248.306 287.705L241.539 206.484L214.686 208.72C198.318 210.088 180.433 226.969 182.55 252.291Z" fill="#C16C44"/>
<path d="M196.38 251.14C198.447 275.895 214.748 294.727 232.817 293.21L262.436 290.741L254.969 201.13L225.349 203.599C207.298 205.117 194.313 226.402 196.38 251.14Z" fill="url(#paint3_linear)"/>
<path d="M260.307 290.91C278.369 289.403 291.341 268.124 289.279 243.382C287.217 218.641 270.904 199.806 252.841 201.314C234.779 202.821 221.808 224.1 223.87 248.841C225.931 273.583 242.245 292.417 260.307 290.91Z" fill="#FDAB88"/>
<path d="M255.187 262.217C255.487 265.886 258.254 268.672 261.354 268.405C264.454 268.138 266.705 264.952 266.405 261.283C266.105 257.613 263.338 254.827 260.237 255.094C257.137 255.361 254.887 258.547 255.187 262.217Z" fill="#C16C44"/>
<path d="M252.546 230.47C252.846 234.139 255.613 236.925 258.713 236.658C261.814 236.408 264.064 233.205 263.764 229.535C263.464 225.866 260.697 223.08 257.597 223.347C254.513 223.597 252.246 226.783 252.546 230.47Z" fill="#C16C44"/>
<path d="M259.083 234.624C262.45 234.34 300.953 231.121 300.953 231.121C303.504 230.904 305.404 228.635 305.187 226.066C304.97 223.481 302.72 221.563 300.17 221.779C300.17 221.779 261.5 225.016 258.3 225.282C255.099 225.549 255.699 234.907 259.083 234.624Z" fill="#E2E8ED"/>
<path d="M261.718 266.384C265.085 266.1 303.589 262.881 303.589 262.881C306.139 262.664 308.039 260.395 307.822 257.826C307.605 255.241 305.355 253.322 302.805 253.539C302.805 253.539 264.135 256.775 260.935 257.042C257.734 257.292 258.351 266.667 261.718 266.384Z" fill="#E2E8ED"/>
<path d="M158.546 174.64C158.546 174.64 156.462 195.875 165.946 213.54C174.064 228.637 190.182 248.187 203.2 258.963L206.333 258.195C201.799 240.78 187.498 209.87 186.598 198.294C185.715 186.7 185.915 173.272 185.715 166.816" fill="#FFB288"/>
<path d="M198.516 126.097C198.516 126.097 180.115 127.164 169.531 135.155C151.229 148.983 154.829 186.149 160.147 204.298C165.48 222.463 191.099 249.72 199.383 255.592C200.733 255.592 204.717 255.258 204.584 252.122C200 237.96 186.949 200.711 186.949 200.711L189.016 150.451" fill="#ECECEC"/>
<path d="M205.071 255.608C207.055 255.809 208.988 256.776 210.655 258.077C212.188 259.278 214.072 261.28 213.872 262.197C213.672 263.165 211.155 261.313 210.855 261.68C210.555 262.047 215.155 269.003 214.289 269.52C213.422 270.038 209.505 263.749 209.505 263.749C209.505 263.749 213.305 270.471 211.838 270.621C210.605 270.738 207.238 264.383 207.238 264.383C207.238 264.383 210.088 270.071 209.105 270.288C208.121 270.505 205.488 264.833 205.488 264.833C205.488 264.833 207.638 269.671 206.821 269.754C206.405 269.787 204.288 267.385 203.388 264.466C202.521 261.597 201.487 259.095 202.288 256.859" fill="#FFB288"/>
<path d="M192.096 215.54C189.162 207.083 186.945 200.744 186.945 200.744L190.812 158.558" stroke="#94C1F2" stroke-width="0.5" stroke-miterlimit="10"/>
<path d="M155.927 168.8C155.827 180.243 157.194 194.339 160.127 204.331C162.694 213.071 169.962 223.931 177.729 233.472" stroke="#94C1F2" stroke-width="0.5" stroke-miterlimit="10"/>
<path d="M549.562 106.659L552.513 104.641C552.513 104.641 553.88 98.202 554.646 97.0343C555.446 95.8166 556.963 93.281 558.697 92.1133C559.413 91.6296 562.714 89.7613 563.547 90.5954C563.964 91.0124 562.564 94.7323 561.93 95.3662C561.297 96 559.413 98.8692 559.713 99.7533C560.013 100.654 561.564 98.6857 561.93 98.3187C562.297 97.9517 562.797 97.4847 562.964 97.9684C563.247 98.7691 561.58 103.256 560.28 104.557C558.98 105.859 556.863 107.093 555.396 107.093L550.796 111.147" fill="#FFB288"/>
<path d="M585.198 85.4567C590.098 88.3426 593.115 93.7806 594.298 99.2186C594.515 100.203 594.682 101.254 595.365 101.988C595.899 102.572 596.665 102.872 597.399 103.205C601.449 105.09 604.566 108.76 605.983 112.981C606.599 114.782 606.116 117.318 606.816 118.852C607.683 120.737 610.883 121.154 612.6 121.738C617.75 123.44 621.517 128.627 621.584 134.049C621.634 139.47 617.967 144.725 612.867 146.543C614.234 148.461 614.434 151.063 613.8 153.349C613.167 155.634 611.783 157.636 610.216 159.404C603.733 166.727 593.748 170.647 583.981 170.23C581.164 170.113 578.347 169.646 575.73 168.579C572.78 167.378 570.18 165.426 567.696 163.441C564.696 161.039 561.696 158.403 560.079 154.9C558.462 151.414 558.562 146.843 561.312 144.141C558.145 144.808 554.762 143.073 552.978 140.371C551.195 137.669 550.878 134.182 551.595 131.013C552.311 127.86 553.978 124.991 555.912 122.389C557.279 120.57 558.829 118.719 559.129 116.467C559.612 112.697 557.512 109.344 556.962 105.591C556.112 99.7691 556.379 94.7481 561.362 91.6621C562.962 87.5085 564.896 84.3057 569.48 83.088C574.913 81.6368 580.331 82.5709 585.198 85.4567Z" fill="#003A66"/>
<path d="M573.213 129.729C556.578 125.375 537.559 132.248 533.309 132.231C539.11 126.426 549.777 113.481 553.461 109.011C553.461 105.942 551.594 105.074 551.594 105.074C551.594 105.074 505.99 128.678 510.574 144.091C515.358 160.172 560.045 152.282 563.612 156.902" fill="#F0F0F0"/>
<path d="M576.469 279.508C576.419 280.876 570.469 310.168 570.019 313.321C568.735 322.479 573.569 331.67 573.102 345.866C572.536 363.131 565.202 409.504 564.268 411.573C563.335 413.624 558.868 411.739 558.868 411.739C558.868 411.739 545.983 349.519 545.25 324.047C544.65 303.079 547.7 257.689 547.7 257.689" fill="#FFB288"/>
<path d="M564.733 412.355C564.733 412.355 565.483 413.923 565.449 414.641C565.349 416.576 565.299 417.894 565.299 417.894L564.466 417.944L564.183 416.359C564.183 416.359 561.949 416.743 559.682 418.244C558.582 418.961 553.048 418.894 552.198 418.444C551.248 417.944 551.515 417.026 551.832 416.659C552.148 416.292 558.132 413.673 558.132 413.673" fill="#26387A"/>
<path d="M558.885 411.723C558.402 412.89 553.685 415.459 554.118 415.809C554.551 416.16 557.302 416.176 560.352 415.159C563.135 414.241 564.702 413.207 564.785 412.473L564.252 410.521" fill="#FFB288"/>
<path d="M617.857 280.727C617.84 282.095 612.79 311.553 612.44 314.723C611.44 323.914 616.557 332.955 616.524 347.151C616.474 364.416 610.556 411.006 609.69 413.091C608.823 415.176 604.289 413.425 604.289 413.425C604.289 413.425 589.505 351.621 588.005 326.199C586.771 305.248 588.421 259.792 588.421 259.792" fill="#FFB288"/>
<path d="M610.169 413.874C610.169 413.874 610.969 415.425 610.953 416.143C610.919 418.078 610.886 419.395 610.886 419.395L610.053 419.479L609.719 417.911C609.719 417.911 607.502 418.361 605.286 419.929C604.202 420.68 598.685 420.797 597.818 420.363C596.852 419.896 597.102 418.978 597.402 418.595C597.702 418.211 603.602 415.425 603.602 415.425" fill="#26387A"/>
<path d="M604.288 413.423C603.838 414.608 599.205 417.327 599.638 417.66C600.088 417.994 602.822 417.927 605.838 416.826C608.589 415.826 610.122 414.741 610.189 414.007L609.605 412.072" fill="#FFB288"/>
<path d="M602.814 205.361C602.814 205.361 616.031 214.019 621.065 234.803C627.849 262.827 617.848 317.692 617.848 317.692C617.848 317.692 597.146 323.747 574.645 323.547C552.143 323.363 538.808 315.74 538.758 314.389C538.708 313.021 535.408 271.485 539.975 243.311C545.109 211.683 558.193 203.159 558.193 203.159" fill="#003A66"/>
<path d="M584.904 129.196C586.954 128.428 592.272 130.296 602.222 134.116C606.59 138.854 608.506 149.213 609.456 158.404C606.873 180.74 603.989 192.951 605.389 200.491C605.723 202.275 607.356 203.627 607.09 206.129C606.556 211.283 598.122 212.067 582.121 213.885C566.119 215.704 551.718 208.431 552.568 206.162C553.435 203.894 556.168 201.892 556.602 200.39C557.035 198.889 558.335 179.739 556.619 177.471C554.885 175.202 550.418 168.663 550.418 162.291C550.418 153.333 555.352 149.313 558.569 144.392C563.952 136.185 568.019 131.047 573.237 129.746C581.554 127.661 584.904 129.196 584.904 129.196Z" fill="#F0F0F0"/>
<path d="M557.97 140.521C557.97 140.521 558.554 144.358 556.587 147.578C555.987 148.562 552.353 152.265 551.637 154.634" stroke="#6CB1EF" stroke-width="0.5" stroke-miterlimit="10"/>
<path d="M581.059 118.287C585.426 113.95 586.126 105.709 584.126 100.138C581.892 93.8657 572.958 89.1783 566.824 93.0983C554.773 100.805 567.007 132.266 581.059 118.287Z" fill="#FFB288"/>
<path d="M572.746 117.519L572.979 130.931C572.979 130.931 572.479 133.917 577.713 134.1C584.897 134.35 584.897 129.196 584.897 129.196L580.747 115.384" fill="#FFB288"/>
<path d="M578.173 87.1744C576.689 86.2069 575.123 86.1569 573.589 87.0577C572.656 87.6082 572.006 88.5256 571.006 88.976C570.306 89.2929 569.455 89.343 568.722 89.5432C565.238 90.494 561.938 93.1463 560.471 96.4658C558.988 99.802 559.471 105.24 562.238 107.625C562.121 105.04 562.888 101.337 564.272 99.1348C564.988 97.9838 566.138 96.8495 567.472 97.0163C568.989 97.1831 569.805 98.8012 570.889 99.8688C572.539 101.47 574.906 101.804 577.089 102.137C579.556 102.504 581.457 102.938 582.673 105.374C583.207 106.424 583.49 107.592 583.773 108.726C584.107 110.094 584.44 111.462 584.523 112.847C584.573 113.714 584.523 114.615 584.79 115.432C585.34 117.084 587.007 118.085 588.657 118.635C589.924 119.069 592.057 119.452 592.857 118.018C593.524 116.817 594.091 115.132 594.324 113.781C595.091 109.277 593.658 104.606 591.224 100.736C588.557 96.4992 584.773 93.6467 581.34 90.1103C580.34 89.0594 579.306 87.9251 578.173 87.1744Z" fill="#003A66"/>
<path d="M581.543 107.81C581.81 106.792 582.56 105.741 583.61 105.591C587.027 105.074 586.51 110.179 585.193 111.963C584.427 113.014 582.443 114.366 581.543 111.48" fill="#FFB288"/>
<path d="M617.737 212.216L616.136 215.652C616.136 215.652 610.086 217.087 609.436 218.154C608.419 219.839 606.902 222.174 606.902 223.492C606.902 224.827 607.036 230.632 608.686 230.632C609.719 230.632 612.169 225.878 612.669 225.227C613.853 223.659 618.653 222.525 618.653 218.388L621.587 212.199" fill="#FFB288"/>
<path d="M584.902 129.012C584.902 129.012 599.037 125.409 610.071 132.381C618.655 137.803 640.741 164.759 640.741 180.206C640.741 190.615 620.089 216.404 620.089 216.404L616.655 213.952C616.655 213.952 618.655 193.684 624.656 182.508C620.222 178.071 602.971 164.309 598.62 159.972" fill="#F0F0F0"/>
<path d="M596.383 158.57C599.466 161.323 607.6 167.862 607.6 167.862" stroke="#6CB1EF" stroke-width="0.5" stroke-miterlimit="10"/>
<path d="M194.256 97.2225L162.702 77.793C162.702 77.793 176.908 37.7814 158.111 23.8091C148.127 16.376 135.462 11.2952 122.428 7.50806C93.37 -0.912956 58.673 -2.81826 32.789 10.3072C13.6841 19.9749 2.09788 36.5582 -3.10975 53.5884C-7.67028 68.5957 -7.30054 85.6495 4.9944 97.8576C10.5102 103.338 18.0597 107.478 26.1023 110.677C51.0927 120.674 117.128 124.438 145.816 109.783C153.766 105.714 153.057 100.233 156.385 91.6477L194.256 97.2225Z" fill="#F8F8F8"/>
<path d="M43.5842 36.3997H42.0162V40.3477H39.7622V30.5477H42.0162V34.5097H43.6402L46.2162 30.5477H48.6102L45.4042 35.2797L48.7082 40.3477H46.1322L43.5842 36.3997ZM52.5971 32.7037C53.7637 32.7037 54.6597 32.9837 55.2851 33.5437C55.9104 34.0943 56.2231 34.9297 56.2231 36.0497V40.3477H54.1791V39.4097C53.7684 40.1097 53.0031 40.4597 51.8831 40.4597C51.3044 40.4597 50.8004 40.3617 50.3711 40.1657C49.9511 39.9697 49.6291 39.699 49.4051 39.3537C49.1811 39.0083 49.0691 38.6163 49.0691 38.1777C49.0691 37.4777 49.3304 36.927 49.8531 36.5257C50.3851 36.1243 51.2017 35.9237 52.3031 35.9237H54.0391C54.0391 35.4477 53.8944 35.0837 53.6051 34.8317C53.3157 34.5703 52.8817 34.4397 52.3031 34.4397C51.9017 34.4397 51.5051 34.505 51.1131 34.6357C50.7304 34.757 50.4037 34.925 50.1331 35.1397L49.3491 33.6137C49.7597 33.3243 50.2497 33.1003 50.8191 32.9417C51.3977 32.783 51.9904 32.7037 52.5971 32.7037ZM52.4291 38.9897C52.8024 38.9897 53.1337 38.9057 53.4231 38.7377C53.7124 38.5603 53.9177 38.3037 54.0391 37.9677V37.1977H52.5411C51.6451 37.1977 51.1971 37.4917 51.1971 38.0797C51.1971 38.3597 51.3044 38.5837 51.5191 38.7517C51.7431 38.9103 52.0464 38.9897 52.4291 38.9897ZM61.4383 37.4917H60.3043V40.3477H58.1203V32.8157H60.3043V35.7417H61.4803L63.5243 32.8157H65.8483L63.2163 36.4277L66.0303 40.3477H63.4543L61.4383 37.4917ZM78.5295 37.4917H77.4795V40.3477H75.3235V37.4917H74.2735L72.6775 40.3477H70.1015L72.4675 36.4557L70.2695 32.8157H72.5795L74.2455 35.7417H75.3235V32.8157H77.4795V35.7417H78.5435L80.2235 32.8157H82.5335L80.3355 36.4557L82.7155 40.3477H80.1255L78.5295 37.4917ZM90.9403 36.6097C90.9403 36.6377 90.9263 36.8337 90.8983 37.1977H85.2003C85.303 37.6643 85.5457 38.033 85.9283 38.3037C86.311 38.5743 86.787 38.7097 87.3563 38.7097C87.7483 38.7097 88.0937 38.6537 88.3923 38.5417C88.7003 38.4203 88.985 38.2337 89.2463 37.9817L90.4083 39.2417C89.699 40.0537 88.663 40.4597 87.3003 40.4597C86.451 40.4597 85.6997 40.2963 85.0463 39.9697C84.393 39.6337 83.889 39.1717 83.5343 38.5837C83.1797 37.9957 83.0023 37.3283 83.0023 36.5817C83.0023 35.8443 83.175 35.1817 83.5203 34.5937C83.875 33.9963 84.3557 33.5343 84.9623 33.2077C85.5783 32.8717 86.2643 32.7037 87.0203 32.7037C87.7577 32.7037 88.425 32.8623 89.0223 33.1797C89.6197 33.497 90.0863 33.9543 90.4223 34.5517C90.7677 35.1397 90.9403 35.8257 90.9403 36.6097ZM87.0343 34.3557C86.5397 34.3557 86.1243 34.4957 85.7883 34.7757C85.4523 35.0557 85.247 35.4383 85.1723 35.9237H88.8823C88.8077 35.4477 88.6023 35.0697 88.2663 34.7897C87.9303 34.5003 87.5197 34.3557 87.0343 34.3557ZM103.929 40.3477V35.8397L101.675 39.6197H100.751L98.5533 35.8257V40.3477H96.5793V32.8157H98.8613L101.269 37.1697L103.831 32.8157H105.875L105.903 40.3477H103.929ZM107.995 32.8157H110.165V35.7557H113.441V32.8157H115.625V40.3477H113.441V37.5337H110.165V40.3477H107.995V32.8157ZM125.038 36.6097C125.038 36.6377 125.024 36.8337 124.996 37.1977H119.298C119.401 37.6643 119.643 38.033 120.026 38.3037C120.409 38.5743 120.885 38.7097 121.454 38.7097C121.846 38.7097 122.191 38.6537 122.49 38.5417C122.798 38.4203 123.083 38.2337 123.344 37.9817L124.506 39.2417C123.797 40.0537 122.761 40.4597 121.398 40.4597C120.549 40.4597 119.797 40.2963 119.144 39.9697C118.491 39.6337 117.987 39.1717 117.632 38.5837C117.277 37.9957 117.1 37.3283 117.1 36.5817C117.1 35.8443 117.273 35.1817 117.618 34.5937C117.973 33.9963 118.453 33.5343 119.06 33.2077C119.676 32.8717 120.362 32.7037 121.118 32.7037C121.855 32.7037 122.523 32.8623 123.12 33.1797C123.717 33.497 124.184 33.9543 124.52 34.5517C124.865 35.1397 125.038 35.8257 125.038 36.6097ZM121.132 34.3557C120.637 34.3557 120.222 34.4957 119.886 34.7757C119.55 35.0557 119.345 35.4383 119.27 35.9237H122.98C122.905 35.4477 122.7 35.0697 122.364 34.7897C122.028 34.5003 121.617 34.3557 121.132 34.3557ZM63.0196 51.6077H60.4716V57.3477H58.3016V51.6077H55.7536V49.8157H63.0196V51.6077ZM71.1913 53.6097C71.1913 53.6377 71.1773 53.8337 71.1493 54.1977H65.4513C65.554 54.6643 65.7966 55.033 66.1793 55.3037C66.562 55.5743 67.038 55.7097 67.6073 55.7097C67.9993 55.7097 68.3446 55.6537 68.6433 55.5417C68.9513 55.4203 69.236 55.2337 69.4973 54.9817L70.6593 56.2417C69.95 57.0537 68.914 57.4597 67.5513 57.4597C66.702 57.4597 65.9506 57.2963 65.2973 56.9697C64.644 56.6337 64.14 56.1717 63.7853 55.5837C63.4306 54.9957 63.2533 54.3283 63.2533 53.5817C63.2533 52.8443 63.426 52.1817 63.7713 51.5937C64.126 50.9963 64.6066 50.5343 65.2133 50.2077C65.8293 49.8717 66.5153 49.7037 67.2713 49.7037C68.0086 49.7037 68.676 49.8623 69.2733 50.1797C69.8706 50.497 70.3373 50.9543 70.6733 51.5517C71.0186 52.1397 71.1913 52.8257 71.1913 53.6097ZM67.2853 51.3557C66.7906 51.3557 66.3753 51.4957 66.0393 51.7757C65.7033 52.0557 65.498 52.4383 65.4233 52.9237H69.1333C69.0586 52.4477 68.8533 52.0697 68.5173 51.7897C68.1813 51.5003 67.7706 51.3557 67.2853 51.3557ZM80.3554 49.8157V57.3477H78.1714V51.6077H75.0354V57.3477H72.8654V49.8157H80.3554ZM89.7714 53.6097C89.7714 53.6377 89.7574 53.8337 89.7294 54.1977H84.0314C84.134 54.6643 84.3767 55.033 84.7594 55.3037C85.142 55.5743 85.618 55.7097 86.1874 55.7097C86.5794 55.7097 86.9247 55.6537 87.2234 55.5417C87.5314 55.4203 87.816 55.2337 88.0774 54.9817L89.2394 56.2417C88.53 57.0537 87.494 57.4597 86.1314 57.4597C85.282 57.4597 84.5307 57.2963 83.8774 56.9697C83.224 56.6337 82.72 56.1717 82.3654 55.5837C82.0107 54.9957 81.8334 54.3283 81.8334 53.5817C81.8334 52.8443 82.006 52.1817 82.3514 51.5937C82.706 50.9963 83.1867 50.5343 83.7934 50.2077C84.4094 49.8717 85.0954 49.7037 85.8514 49.7037C86.5887 49.7037 87.256 49.8623 87.8534 50.1797C88.4507 50.497 88.9174 50.9543 89.2534 51.5517C89.5987 52.1397 89.7714 52.8257 89.7714 53.6097ZM85.8654 51.3557C85.3707 51.3557 84.9554 51.4957 84.6194 51.7757C84.2834 52.0557 84.078 52.4383 84.0034 52.9237H87.7134C87.6387 52.4477 87.4334 52.0697 87.0974 51.7897C86.7614 51.5003 86.3507 51.3557 85.8654 51.3557ZM95.8835 49.7037C96.5835 49.7037 97.2181 49.867 97.7875 50.1937C98.3661 50.511 98.8188 50.9637 99.1455 51.5517C99.4721 52.1303 99.6355 52.807 99.6355 53.5817C99.6355 54.3563 99.4721 55.0377 99.1455 55.6257C98.8188 56.2043 98.3661 56.657 97.7875 56.9837C97.2181 57.301 96.5835 57.4597 95.8835 57.4597C94.9221 57.4597 94.1661 57.1563 93.6155 56.5497V60.0637H91.4315V49.8157H93.5175V50.6837C94.0588 50.0303 94.8475 49.7037 95.8835 49.7037ZM95.5055 55.6677C96.0655 55.6677 96.5228 55.481 96.8775 55.1077C97.2415 54.725 97.4235 54.2163 97.4235 53.5817C97.4235 52.947 97.2415 52.443 96.8775 52.0697C96.5228 51.687 96.0655 51.4957 95.5055 51.4957C94.9455 51.4957 94.4835 51.687 94.1195 52.0697C93.7648 52.443 93.5875 52.947 93.5875 53.5817C93.5875 54.2163 93.7648 54.725 94.1195 55.1077C94.4835 55.481 94.9455 55.6677 95.5055 55.6677ZM105.24 52.2237C106.22 52.233 106.971 52.457 107.494 52.8957C108.017 53.325 108.278 53.9363 108.278 54.7297C108.278 55.5603 107.984 56.209 107.396 56.6757C106.817 57.133 106.001 57.3617 104.946 57.3617L101.166 57.3477V49.8157H103.336V52.2237H105.24ZM104.75 55.8077C105.17 55.817 105.492 55.7283 105.716 55.5417C105.94 55.355 106.052 55.075 106.052 54.7017C106.052 54.3377 105.94 54.0717 105.716 53.9037C105.501 53.7357 105.179 53.647 104.75 53.6377L103.336 53.6237V55.8077H104.75ZM55.1176 70.4277C55.5656 70.5677 55.9109 70.7823 56.1536 71.0717C56.4056 71.361 56.5316 71.7063 56.5316 72.1077C56.5316 72.5837 56.3683 73.0037 56.0416 73.3677C55.7149 73.7223 55.2669 73.9977 54.6976 74.1937C54.1283 74.3897 53.4843 74.4877 52.7656 74.4877C52.1776 74.4877 51.5989 74.427 51.0296 74.3057C50.4603 74.1843 49.9329 74.0023 49.4476 73.7597L50.0356 72.2337C50.8289 72.6163 51.7063 72.8077 52.6676 72.8077C53.1809 72.8077 53.5823 72.733 53.8716 72.5837C54.1703 72.425 54.3196 72.2057 54.3196 71.9257C54.3196 71.683 54.2169 71.501 54.0116 71.3797C53.8063 71.249 53.5076 71.1837 53.1156 71.1837H51.5756V69.8257H52.9196C53.3023 69.8257 53.5963 69.765 53.8016 69.6437C54.0069 69.5223 54.1096 69.345 54.1096 69.1117C54.1096 68.869 53.9789 68.6823 53.7176 68.5517C53.4656 68.421 53.1016 68.3557 52.6256 68.3557C51.8976 68.3557 51.1043 68.5283 50.2456 68.8737L49.7136 67.3617C50.7589 66.9043 51.7763 66.6757 52.7656 66.6757C53.4469 66.6757 54.0536 66.7597 54.5856 66.9277C55.1269 67.0957 55.5516 67.343 55.8596 67.6697C56.1676 67.987 56.3216 68.3603 56.3216 68.7897C56.3216 69.1443 56.2143 69.4663 55.9996 69.7557C55.7849 70.0357 55.4909 70.2597 55.1176 70.4277ZM61.0463 66.7037C62.2129 66.7037 63.1089 66.9837 63.7343 67.5437C64.3596 68.0943 64.6723 68.9297 64.6723 70.0497V74.3477H62.6283V73.4097C62.2176 74.1097 61.4523 74.4597 60.3323 74.4597C59.7536 74.4597 59.2496 74.3617 58.8203 74.1657C58.4003 73.9697 58.0783 73.699 57.8543 73.3537C57.6303 73.0083 57.5183 72.6163 57.5183 72.1777C57.5183 71.4777 57.7796 70.927 58.3023 70.5257C58.8343 70.1243 59.6509 69.9237 60.7523 69.9237H62.4883C62.4883 69.4477 62.3436 69.0837 62.0543 68.8317C61.7649 68.5703 61.3309 68.4397 60.7523 68.4397C60.3509 68.4397 59.9543 68.505 59.5623 68.6357C59.1796 68.757 58.8529 68.925 58.5823 69.1397L57.7983 67.6137C58.2089 67.3243 58.6989 67.1003 59.2683 66.9417C59.8469 66.783 60.4396 66.7037 61.0463 66.7037ZM60.8783 72.9897C61.2516 72.9897 61.5829 72.9057 61.8723 72.7377C62.1616 72.5603 62.3669 72.3037 62.4883 71.9677V71.1977H60.9903C60.0943 71.1977 59.6463 71.4917 59.6463 72.0797C59.6463 72.3597 59.7536 72.5837 59.9683 72.7517C60.1923 72.9103 60.4956 72.9897 60.8783 72.9897ZM69.8875 71.4917H68.7535V74.3477H66.5695V66.8157H68.7535V69.7417H69.9295L71.9735 66.8157H74.2975L71.6655 70.4277L74.4795 74.3477H71.9035L69.8875 71.4917ZM78.3412 66.7037C79.5079 66.7037 80.4039 66.9837 81.0292 67.5437C81.6545 68.0943 81.9672 68.9297 81.9672 70.0497V74.3477H79.9232V73.4097C79.5125 74.1097 78.7472 74.4597 77.6272 74.4597C77.0485 74.4597 76.5445 74.3617 76.1152 74.1657C75.6952 73.9697 75.3732 73.699 75.1492 73.3537C74.9252 73.0083 74.8132 72.6163 74.8132 72.1777C74.8132 71.4777 75.0745 70.927 75.5972 70.5257C76.1292 70.1243 76.9459 69.9237 78.0472 69.9237H79.7832C79.7832 69.4477 79.6385 69.0837 79.3492 68.8317C79.0599 68.5703 78.6259 68.4397 78.0472 68.4397C77.6459 68.4397 77.2492 68.505 76.8572 68.6357C76.4745 68.757 76.1479 68.925 75.8772 69.1397L75.0932 67.6137C75.5039 67.3243 75.9939 67.1003 76.5632 66.9417C77.1419 66.783 77.7345 66.7037 78.3412 66.7037ZM78.1732 72.9897C78.5465 72.9897 78.8779 72.9057 79.1672 72.7377C79.4565 72.5603 79.6619 72.3037 79.7832 71.9677V71.1977H78.2852C77.3892 71.1977 76.9412 71.4917 76.9412 72.0797C76.9412 72.3597 77.0485 72.5837 77.2632 72.7517C77.4872 72.9103 77.7905 72.9897 78.1732 72.9897ZM88.6821 70.4277C89.1301 70.5677 89.4754 70.7823 89.7181 71.0717C89.9701 71.361 90.0961 71.7063 90.0961 72.1077C90.0961 72.5837 89.9327 73.0037 89.6061 73.3677C89.2794 73.7223 88.8314 73.9977 88.2621 74.1937C87.6927 74.3897 87.0487 74.4877 86.3301 74.4877C85.7421 74.4877 85.1634 74.427 84.5941 74.3057C84.0247 74.1843 83.4974 74.0023 83.0121 73.7597L83.6001 72.2337C84.3934 72.6163 85.2707 72.8077 86.2321 72.8077C86.7454 72.8077 87.1467 72.733 87.4361 72.5837C87.7347 72.425 87.8841 72.2057 87.8841 71.9257C87.8841 71.683 87.7814 71.501 87.5761 71.3797C87.3707 71.249 87.0721 71.1837 86.6801 71.1837H85.1401V69.8257H86.4841C86.8667 69.8257 87.1607 69.765 87.3661 69.6437C87.5714 69.5223 87.6741 69.345 87.6741 69.1117C87.6741 68.869 87.5434 68.6823 87.2821 68.5517C87.0301 68.421 86.6661 68.3557 86.1901 68.3557C85.4621 68.3557 84.6687 68.5283 83.8101 68.8737L83.2781 67.3617C84.3234 66.9043 85.3407 66.6757 86.3301 66.6757C87.0114 66.6757 87.6181 66.7597 88.1501 66.9277C88.6914 67.0957 89.1161 67.343 89.4241 67.6697C89.7321 67.987 89.8861 68.3603 89.8861 68.7897C89.8861 69.1443 89.7787 69.4663 89.5641 69.7557C89.3494 70.0357 89.0554 70.2597 88.6821 70.4277ZM94.6107 66.7037C95.7774 66.7037 96.6734 66.9837 97.2987 67.5437C97.9241 68.0943 98.2367 68.9297 98.2367 70.0497V74.3477H96.1927V73.4097C95.7821 74.1097 95.0167 74.4597 93.8967 74.4597C93.3181 74.4597 92.8141 74.3617 92.3847 74.1657C91.9647 73.9697 91.6427 73.699 91.4187 73.3537C91.1947 73.0083 91.0827 72.6163 91.0827 72.1777C91.0827 71.4777 91.3441 70.927 91.8667 70.5257C92.3987 70.1243 93.2154 69.9237 94.3167 69.9237H96.0527C96.0527 69.4477 95.9081 69.0837 95.6187 68.8317C95.3294 68.5703 94.8954 68.4397 94.3167 68.4397C93.9154 68.4397 93.5187 68.505 93.1267 68.6357C92.7441 68.757 92.4174 68.925 92.1467 69.1397L91.3627 67.6137C91.7734 67.3243 92.2634 67.1003 92.8327 66.9417C93.4114 66.783 94.0041 66.7037 94.6107 66.7037ZM94.4427 72.9897C94.8161 72.9897 95.1474 72.9057 95.4367 72.7377C95.7261 72.5603 95.9314 72.3037 96.0527 71.9677V71.1977H94.5547C93.6587 71.1977 93.2107 71.4917 93.2107 72.0797C93.2107 72.3597 93.3181 72.5837 93.5327 72.7517C93.7567 72.9103 94.0601 72.9897 94.4427 72.9897ZM106.462 68.6077H103.914V74.3477H101.744V68.6077H99.1959V66.8157H106.462V68.6077ZM111.7 69.2237C112.68 69.233 113.431 69.457 113.954 69.8957C114.477 70.325 114.738 70.9363 114.738 71.7297C114.738 72.5603 114.444 73.209 113.856 73.6757C113.277 74.133 112.461 74.3617 111.406 74.3617L107.626 74.3477V66.8157H109.796V69.2237H111.7ZM111.21 72.8077C111.63 72.817 111.952 72.7283 112.176 72.5417C112.4 72.355 112.512 72.075 112.512 71.7017C112.512 71.3377 112.4 71.0717 112.176 70.9037C111.961 70.7357 111.639 70.647 111.21 70.6377L109.796 70.6237V72.8077H111.21ZM58.9773 88.4917H57.8433V91.3477H55.6593V83.8157H57.8433V86.7417H59.0193L61.0633 83.8157H63.3873L60.7553 87.4277L63.5693 91.3477H60.9933L58.9773 88.4917ZM71.7639 83.8157L68.3619 91.8097C68.0166 92.6777 67.5873 93.289 67.0739 93.6437C66.5699 93.9983 65.9586 94.1757 65.2399 94.1757C64.8479 94.1757 64.4606 94.115 64.0779 93.9937C63.6953 93.8723 63.3826 93.7043 63.1399 93.4897L63.9379 91.9357C64.1059 92.085 64.2973 92.2017 64.5119 92.2857C64.7359 92.3697 64.9553 92.4117 65.1699 92.4117C65.4686 92.4117 65.7113 92.337 65.8979 92.1877C66.0846 92.0477 66.2526 91.8097 66.4019 91.4737L66.4299 91.4037L63.1679 83.8157H65.4219L67.5359 88.9257L69.6639 83.8157H71.7639ZM77.1257 91.3477L75.4737 89.0377L73.7657 91.3477H71.3857L74.2837 87.5537L71.4837 83.8157H73.9337L75.5297 86.0137L77.1677 83.8157H79.4917L76.6917 87.4977L79.6037 91.3477H77.1257ZM80.6789 83.8157H82.8489V86.7557H86.1249V83.8157H88.3089V91.3477H86.1249V88.5337H82.8489V91.3477H80.6789V83.8157ZM97.5256 83.7037C98.2909 83.7037 98.9769 83.8717 99.5836 84.2077C100.19 84.5343 100.666 84.9917 101.012 85.5797C101.357 86.1677 101.53 86.835 101.53 87.5817C101.53 88.3283 101.357 88.9957 101.012 89.5837C100.666 90.1717 100.19 90.6337 99.5836 90.9697C98.9769 91.2963 98.2909 91.4597 97.5256 91.4597C96.8629 91.4597 96.2562 91.3383 95.7056 91.0957C95.1549 90.8437 94.6976 90.4937 94.3336 90.0457C93.9696 89.5883 93.7269 89.0657 93.6056 88.4777H92.5696V91.3477H90.3996V83.8157H92.5696V86.5877H93.6196C93.8342 85.7103 94.2916 85.0103 94.9916 84.4877C95.6916 83.965 96.5362 83.7037 97.5256 83.7037ZM97.5256 89.6677C98.0576 89.6677 98.4962 89.481 98.8416 89.1077C99.1962 88.725 99.3736 88.2163 99.3736 87.5817C99.3736 86.9377 99.1962 86.429 98.8416 86.0557C98.4962 85.6823 98.0576 85.4957 97.5256 85.4957C96.9842 85.4957 96.5362 85.6823 96.1816 86.0557C95.8362 86.429 95.6636 86.9377 95.6636 87.5817C95.6636 88.2163 95.8362 88.725 96.1816 89.1077C96.5362 89.481 96.9842 89.6677 97.5256 89.6677ZM104.419 87.9457C104.419 87.4603 104.526 87.059 104.741 86.7417C104.965 86.4243 105.287 86.0743 105.707 85.6917C106.015 85.4117 106.239 85.1783 106.379 84.9917C106.528 84.7957 106.603 84.5763 106.603 84.3337C106.603 83.9883 106.463 83.7177 106.183 83.5217C105.912 83.3163 105.548 83.2137 105.091 83.2137C104.652 83.2137 104.26 83.307 103.915 83.4937C103.579 83.671 103.294 83.923 103.061 84.2497L101.367 83.2557C101.759 82.6583 102.286 82.1963 102.949 81.8697C103.621 81.543 104.414 81.3797 105.329 81.3797C106.402 81.3797 107.261 81.6083 107.905 82.0657C108.558 82.523 108.885 83.1577 108.885 83.9697C108.885 84.3523 108.819 84.6883 108.689 84.9777C108.567 85.267 108.413 85.5143 108.227 85.7197C108.049 85.9157 107.816 86.1443 107.527 86.4057C107.181 86.7137 106.929 86.975 106.771 87.1897C106.612 87.395 106.533 87.647 106.533 87.9457H104.419ZM105.483 91.4597C105.1 91.4597 104.778 91.3383 104.517 91.0957C104.265 90.8437 104.139 90.5403 104.139 90.1857C104.139 89.831 104.265 89.537 104.517 89.3037C104.769 89.061 105.091 88.9397 105.483 88.9397C105.875 88.9397 106.197 89.061 106.449 89.3037C106.701 89.537 106.827 89.831 106.827 90.1857C106.827 90.5403 106.696 90.8437 106.435 91.0957C106.183 91.3383 105.865 91.4597 105.483 91.4597Z" fill="#E88D67"/>
<defs>
<linearGradient id="paint0_linear" x1="596.783" y1="264.275" x2="596.783" y2="409.625" gradientUnits="userSpaceOnUse">
<stop stop-color="#F5A484"/>
<stop offset="1" stop-color="#D06330"/>
</linearGradient>
<linearGradient id="paint1_linear" x1="395.524" y1="222.477" x2="395.524" y2="312.404" gradientUnits="userSpaceOnUse">
<stop stop-color="#F5A484"/>
<stop offset="1" stop-color="#D06330"/>
</linearGradient>
<linearGradient id="paint2_linear" x1="101.911" y1="247.485" x2="101.911" y2="392.931" gradientUnits="userSpaceOnUse">
<stop stop-color="#F5A484"/>
<stop offset="1" stop-color="#D06330"/>
</linearGradient>
<linearGradient id="paint3_linear" x1="229.3" y1="201.13" x2="229.3" y2="293.295" gradientUnits="userSpaceOnUse">
<stop stop-color="#F5A484"/>
<stop offset="1" stop-color="#D06330"/>
</linearGradient>
</defs>
</svg>
