<svg xmlns="http://www.w3.org/2000/svg" width="310" height="88" viewBox="0 0 94.6 26.98"><path fill="#fff" d="M2.22 19.77V18h4.21v1.73h2.18v-3.64h-1V9.44H2l-.21 2.88c-.13 2-.05 3.76-1.75 3.76v3.69zM91.53 9.56h-2L86.61 18l-3.26-4.2 3.41-4.23H84l-2.33 3.19v-3.2h-2.15v8.6h2.19v-3l.07-.1 2.22 3.1h4.87l.53-1.72h2.3l.56 1.72h2.34zm-1.63 4.95l.63-2.51h.06l.6 2.52zM76 18.16h2.18v-8.6h-2L74 13.22l-.72 1.54s.16-1.29.18-1.29V9.56H71.2v8.6h2l2.07-3.39.81-1.67h.06L76 14.73zm-5.63-6.54V9.55h-6.78v2.07h2.28v6.54h2.2v-6.54zm-8.93 3.86c-.48 1.19-2.42.9-2.42-.14v-3c0-1.06 1.91-1.31 2.5-.24l1.78-.72a3.21 3.21 0 00-3-2c-1.73 0-3.43 1-3.43 2.94v3c0 2 1.7 2.94 3.39 2.94a3.47 3.47 0 003.1-1.94zm-27.33-.68h2.48V18h2.19V9.44h-2.19v3.26h-2.48V9.44h-2.18V18h2.18zm-8.39-5.36V18h2.18v-6.49h3.17V9.44zm-3.65 0h-2l-3 8.6h2.33l.6-1.72h2.29l.52 1.68h2.34zm-1.62 5l.63-2.52h.06l.6 2.52zM14.3 18h2.19V9.44h-2l-2.2 3.66-.72 1.54s.17-1.29.18-1.29V9.44H9.52V18h2.06l2.06-3.39.82-1.61h.06s-.21 1.61-.22 1.61zm-8.92-1.91h-2a7.08 7.08 0 00.36-2l.18-2.61h1.46z"/><path fill="#ef7e1c" d="M46.68 21.28a7.79 7.79 0 007.76-3.63l-1.6 1.19-.05-.07-1.11.83-.16-.21 1.11-.83-.05-.07 2.34-1.75c.11-.25.21-.51.3-.77l-2.91 2.16-.05-.07-1.11.83-.15-.21 1.11-.83-.05-.07 3.36-2.51a5.58 5.58 0 00.1-.59l-3.74 2.78-.05-.07-1.11.83-.16-.22 1.12-.82-.06-.08 4.06-3v-.56l-4.34 3.24-.06-.07-1.11.83-.16-.21 1.12-.84-.03-.13 4.59-3.42-.06-.5-4.8 3.56-.06-.07-1.11.82-.16-.2 1.12-.83-.06-.08 5-3.7c0-.16-.07-.31-.11-.47L50.2 15.3l-.06-.07-1.14.83-.15-.21L50 15h-.07l5.25-4c-.06-.15-.11-.29-.17-.43l-5.34 4-.06-.07-1.11.83-.15-.21 1.11-.83-.05-.07 5.42-4.05c-.06-.14-.13-.27-.2-.4l-5.49 4.09v-.07l-1.14.85-.16-.21 1.11-.83v-.07l5.45-4.12-.25-.36-5.53 4.13-.06-.07-1.11.83-.16-.21 1.12-.83-.06-.07 5.54-4.13c-.09-.12-.19-.23-.28-.34l-5.52 4.12-.09-.07-1.12.83-.11-.24 1.11-.83-.05-.07L53.29 8c-.11-.1-.21-.21-.33-.3l-5.41 4v-.07l-1.11.83-.16-.21 1.11-.83-.05-.07 5.32-4-.37-.28L47 11l-1.11.83-.16-.2 1.12-.83-.06-.08 5.06-3.82-.42-.24-4.93 3.68-.06-.07-1.11.83-.16-.21 1.12-.83-.06-.06L51 6.44l-.48-.2L46 9.63l-.06-.07-1.11.82-.15-.2 1.11-.83-.06-.07L50 6.08l-.55-.14-4 3-.06-.07-1.11.83-.15-.21 1.11-.83-.06-.07 3.66-2.74-.65-.06-3.28 2.42-.06-.07-1.11.86-.15-.21 1.11-.83-.05-.07 2.79-2.09a6.13 6.13 0 00-.85.09L44.38 7.5l-.05-.07-1.11.83-.16-.21 1.11-.83-.05-.07 1.4-1a7.79 7.79 0 001.16 15.17z"/><path fill="#fff" d="M18.94 26.38v-2.11L17.9 26h-.36l-1-1.7v2.07h-.77v-3.51h.68l1.32 2.19L19 22.86h.67v3.52zM23.16 25v.21h-2a.63.63 0 00.26.4.84.84 0 00.51.14 1 1 0 00.38-.06.75.75 0 00.3-.2L23 26a1.4 1.4 0 01-1.12.43 1.74 1.74 0 01-.81-.17 1.37 1.37 0 01-.54-.5 1.43 1.43 0 010-1.44 1.36 1.36 0 01.51-.5 1.63 1.63 0 011.46 0 1.29 1.29 0 01.51.5 1.36 1.36 0 01.18.74zm-1.4-.82a.65.65 0 00-.45.16.56.56 0 00-.22.41h1.33a.64.64 0 00-.66-.56zm5 1.52V27h-.73v-.59h-1.9V27h-.73v-1.26h.11a.36.36 0 00.34-.3 2.92 2.92 0 00.12-.83v-.94h2.36v2.07zm-2.07-1.07a5.08 5.08 0 01-.07.67.72.72 0 01-.17.4h1.14v-1.38h-.89zm2.57-1h.78v1.62l1.32-1.62h.72v2.71h-.78v-1.57L28 26.38h-.72zm6.63 2.07V27h-.73v-.6h-2.3v-2.73h.78v2.07h1.09v-2.07h.79v2.07zm.5-2.07h.78v1.62l1.32-1.62h.72v2.71h-.78v-1.57l-1.31 1.61h-.73zm3.58 0h.78v1.06H40v-1.02h.78v2.71H40v-1h-1.23v1H38zm4.79 2.75a1.62 1.62 0 01-.78-.17 1.39 1.39 0 01-.6-1.85 1.42 1.42 0 01.6-.59 1.75 1.75 0 01.78-.18 1.59 1.59 0 01.74.18 1.1 1.1 0 01.47.51l-.61.33a.67.67 0 00-.61-.37.65.65 0 00-.51.2.85.85 0 000 1.1.69.69 0 00.51.2.65.65 0 00.61-.37l.61.33a1.08 1.08 0 01-.47.5 1.49 1.49 0 01-.75.19zm2.89-1.06h-.41v1h-.79v-2.65h.79v1.06h.42l.74-1.06h.83L46.31 25l1 1.41h-.93zm2-1.69h.78v1.62l1.32-1.62h.72v2.71h-.78v-1.57l-1.31 1.61h-.73zM53.93 25v.21h-2a.64.64 0 00.26.4.93.93 0 00.52.15 1 1 0 00.37-.07.79.79 0 00.31-.2l.42.46a1.42 1.42 0 01-1.12.44 2 2 0 01-.82-.18 1.37 1.37 0 01-.54-.5 1.39 1.39 0 01.52-1.94 1.63 1.63 0 011.46 0 1.24 1.24 0 01.5.49 1.36 1.36 0 01.18.74zm-1.41-.81a.68.68 0 00-.45.15.64.64 0 00-.22.41h1.33a.64.64 0 00-.22-.41.65.65 0 00-.44-.15zm4.49-.6a1.41 1.41 0 011 .3 1.17 1.17 0 01.34.91v1.54h-.74v-.33a.88.88 0 01-.83.37 1.26 1.26 0 01-.54-.1.75.75 0 01-.47-.72A.72.72 0 0156 25a1.43 1.43 0 01.88-.22h.63a.51.51 0 00-.16-.4.69.69 0 00-.47-.14 1.54 1.54 0 00-.42.07 1 1 0 00-.36.19l-.26-.5a1.5 1.5 0 01.53-.24 2.3 2.3 0 01.64-.09zM57 25.9a.75.75 0 00.36-.1.53.53 0 00.22-.27v-.28H57c-.32 0-.48.11-.48.32a.29.29 0 00.11.24.63.63 0 00.33.09zm2-2.23h.78v1.06H61v-1.06h.79v2.71H61v-1h-1.22v1H59zm4.55 0a1.41 1.41 0 011 .3 1.13 1.13 0 01.34.91v1.54h-.74v-.33a.88.88 0 01-.83.38 1.45 1.45 0 01-.54-.11.75.75 0 01-.47-.72.7.7 0 01.29-.59 1.38 1.38 0 01.87-.22h.63a.51.51 0 00-.16-.4.69.69 0 00-.47-.14 1.54 1.54 0 00-.42.07 1.24 1.24 0 00-.36.19l-.31-.55a1.7 1.7 0 01.53-.24 2.35 2.35 0 01.64-.09zm-.06 2.27a.65.65 0 00.36-.1.53.53 0 00.22-.27v-.28h-.54c-.32 0-.48.11-.48.32a.27.27 0 00.12.24.59.59 0 00.32.09zm4.66-2.23v2.71h-.79v-2.1h-.86v.48a4.32 4.32 0 01-.11.88 1.07 1.07 0 01-.26.56.63.63 0 01-.5.2 1.4 1.4 0 01-.41-.06v-.65h.12a.3.3 0 00.26-.12.77.77 0 00.12-.33 5.06 5.06 0 00.05-.53v-1.09zm.75 0h.78v1.62L71 23.67h.73v2.71h-.79v-1.61l-1.31 1.61h-.73zM74.22 25a.8.8 0 01.37.23.59.59 0 01.14.38.67.67 0 01-.18.45 1.15 1.15 0 01-.48.3 2.38 2.38 0 01-.7.11 3.38 3.38 0 01-.63-.07 2.35 2.35 0 01-.56-.2l.21-.55a2.23 2.23 0 001 .21.89.89 0 00.43-.08.25.25 0 00.16-.24.21.21 0 00-.11-.2.71.71 0 00-.32-.07h-.56v-.49h.49a.59.59 0 00.32-.06.21.21 0 00.11-.19.25.25 0 00-.15-.21 1 1 0 00-.39-.07 2.29 2.29 0 00-.86.19l-.19-.54a2.6 2.6 0 011.1-.25 2.5 2.5 0 01.66.09 1.07 1.07 0 01.45.26.58.58 0 010 .76.77.77 0 01-.32.24zm2.5-.43a1.16 1.16 0 01.8.24.82.82 0 01.28.66.86.86 0 01-.31.7 1.35 1.35 0 01-.87.25H75.3v-2.75h.78v.87zm1.37-.87h.78v2.71h-.78zm-1.54 2.16a.47.47 0 00.34-.1.33.33 0 00.12-.3.36.36 0 00-.11-.29.63.63 0 00-.35-.09h-.47v.79zM27.05.07V4.2h-.94V.85h-1.42v.86a8.56 8.56 0 01-.15 1.43 1.72 1.72 0 01-.37.84 1 1 0 01-.73.29 2.65 2.65 0 01-.48-.07l.04-.81h.17a.5.5 0 00.47-.39 4.8 4.8 0 00.17-1.26l.06-1.67zm3.83 3.25H29l-.36.88h-1L29.46.07h.94l1.85 4.13h-1zm-.3-.73L29.93 1l-.66 1.58zM32.8.07h3.33v.76h-2.38v.85h1.14A1.78 1.78 0 0136 2a1.09 1.09 0 01.39.9 1.15 1.15 0 01-.43 1 2 2 0 01-1.24.34h-2zm1.9 3.42a.89.89 0 00.56-.14.5.5 0 00.2-.42c0-.36-.25-.54-.76-.54h-1v1.1zm4.42.78A2.36 2.36 0 0138 4a2.06 2.06 0 01-1.1-1.86A2.2 2.2 0 0137.15 1 2.11 2.11 0 0138 .28a2.56 2.56 0 012.32 0 2.06 2.06 0 011.1 1.86A2.08 2.08 0 0140.28 4a2.47 2.47 0 01-1.16.27zm0-.81a1.27 1.27 0 00.66-.17 1.18 1.18 0 00.47-.47 1.34 1.34 0 00.16-.68 1.38 1.38 0 00-.16-.69 1.25 1.25 0 00-.47-.45 1.4 1.4 0 00-1.32 0 1.38 1.38 0 00-.46.47 1.38 1.38 0 00-.17.69 1.35 1.35 0 00.17.68 1.22 1.22 0 00.46.47 1.38 1.38 0 00.66.17zM43.91.07a2.36 2.36 0 011 .18 1.37 1.37 0 01.62.52 1.42 1.42 0 01.22.8 1.37 1.37 0 01-.22.79 1.31 1.31 0 01-.62.52 2.2 2.2 0 01-1 .18h-.83V4.2h-1V.07zm0 2.21a1 1 0 00.65-.18.63.63 0 00.22-.53.64.64 0 00-.27-.57 1 1 0 00-.65-.19h-.79v1.47zm5.07 1H47l-.37.88h-1L47.5.07h1l1.79 4.13h-1zm-.31-.73L48 1l-.66 1.58zm5.12-1.7h-1.32V4.2h-.94V.85h-1.32V.07h3.58zm2.52 3.42A2.36 2.36 0 0155.15 4a2 2 0 01-.81-.77 2 2 0 01-.29-1.09A2 2 0 0154.34 1a2 2 0 01.81-.76 2.56 2.56 0 012.32 0 2.08 2.08 0 011.1 1.86 2.1 2.1 0 01-1.1 1.9 2.47 2.47 0 01-1.16.27zm0-.81a1.27 1.27 0 00.69-.17 1.16 1.16 0 00.46-.47 1.25 1.25 0 00.17-.68A1.3 1.3 0 0057 1a1.4 1.4 0 00-1.32 0 1.32 1.32 0 00-.47.47 1.38 1.38 0 00-.16.69 1.34 1.34 0 00.16.68 1.18 1.18 0 00.47.47 1.38 1.38 0 00.66.17zM61.1.07a2.4 2.4 0 01.95.18 1.43 1.43 0 01.62.52 1.42 1.42 0 01.22.8 1.38 1.38 0 01-.84 1.31 2.23 2.23 0 01-.95.18h-.84V4.2h-.95V.07zM61 2.28a1 1 0 00.66-.18.66.66 0 00.22-.53.66.66 0 00-.18-.57 1 1 0 00-.7-.15h-.78v1.43zM63.52.07h.95v2.69l2-2.69h.9V4.2h-.97V1.52l-2 2.68h-.9zm8.15 0V4.2h-1V3.1h-.87l-.73 1.1h-1L69 3a1.31 1.31 0 01-.64-.52 1.45 1.45 0 01-.23-.83 1.49 1.49 0 01.22-.82 1.38 1.38 0 01.62-.53 2.2 2.2 0 01.94-.19zm-1.76.78a.93.93 0 00-.63.19.72.72 0 00-.21.56.72.72 0 00.21.56.89.89 0 00.61.19h.83V.85z"/></svg>