<svg width="569" height="444" viewBox="0 0 569 444" fill="none" xmlns="http://www.w3.org/2000/svg">
<circle cx="4.65734" cy="439.343" r="4.65734" fill="#D1D1D1"/>
<circle cx="4.65734" cy="190.951" r="4.65734" fill="#D1D1D1"/>
<circle cx="4.65734" cy="315.147" r="4.65734" fill="#D1D1D1"/>
<circle cx="4.65734" cy="66.755" r="4.65734" fill="#D1D1D1"/>
<circle cx="4.65734" cy="377.245" r="4.65734" fill="#D1D1D1"/>
<circle cx="4.65734" cy="128.854" r="4.65734" fill="#D1D1D1"/>
<circle cx="4.65734" cy="253.049" r="4.65734" fill="#D1D1D1"/>
<circle cx="4.65734" cy="4.65734" r="4.65734" fill="#D1D1D1"/>
<circle cx="315.147" cy="439.343" r="4.65734" fill="#D1D1D1"/>
<circle cx="315.147" cy="190.951" r="4.65734" fill="#D1D1D1"/>
<circle cx="315.147" cy="315.147" r="4.65734" fill="#D1D1D1"/>
<circle cx="315.147" cy="66.755" r="4.65734" fill="#D1D1D1"/>
<circle cx="315.147" cy="377.245" r="4.65734" fill="#D1D1D1"/>
<circle cx="315.147" cy="128.854" r="4.65734" fill="#D1D1D1"/>
<circle cx="315.147" cy="253.049" r="4.65734" fill="#D1D1D1"/>
<circle cx="315.147" cy="4.65734" r="4.65734" fill="#D1D1D1"/>
<circle cx="66.7555" cy="439.343" r="4.65734" fill="#D1D1D1"/>
<circle cx="66.7555" cy="190.951" r="4.65734" fill="#D1D1D1"/>
<circle cx="66.7555" cy="315.147" r="4.65734" fill="#D1D1D1"/>
<circle cx="66.7555" cy="66.755" r="4.65734" fill="#D1D1D1"/>
<circle cx="66.7555" cy="377.245" r="4.65734" fill="#D1D1D1"/>
<circle cx="66.7555" cy="128.854" r="4.65734" fill="#D1D1D1"/>
<circle cx="66.7555" cy="253.049" r="4.65734" fill="#D1D1D1"/>
<circle cx="66.7555" cy="4.65734" r="4.65734" fill="#D1D1D1"/>
<circle cx="377.245" cy="439.343" r="4.65734" fill="#D1D1D1"/>
<circle cx="377.245" cy="190.951" r="4.65734" fill="#D1D1D1"/>
<circle cx="377.245" cy="315.147" r="4.65734" fill="#D1D1D1"/>
<circle cx="377.245" cy="66.755" r="4.65734" fill="#D1D1D1"/>
<circle cx="377.245" cy="377.245" r="4.65734" fill="#D1D1D1"/>
<circle cx="377.245" cy="128.854" r="4.65734" fill="#D1D1D1"/>
<circle cx="377.245" cy="253.049" r="4.65734" fill="#D1D1D1"/>
<circle cx="377.245" cy="4.65734" r="4.65734" fill="#D1D1D1"/>
<circle cx="128.853" cy="439.343" r="4.65734" fill="#D1D1D1"/>
<circle cx="128.853" cy="190.951" r="4.65734" fill="#D1D1D1"/>
<circle cx="128.853" cy="315.147" r="4.65734" fill="#D1D1D1"/>
<circle cx="128.853" cy="66.755" r="4.65734" fill="#D1D1D1"/>
<circle cx="128.853" cy="377.245" r="4.65734" fill="#D1D1D1"/>
<circle cx="128.853" cy="128.854" r="4.65734" fill="#D1D1D1"/>
<circle cx="128.853" cy="253.049" r="4.65734" fill="#D1D1D1"/>
<circle cx="128.853" cy="4.65734" r="4.65734" fill="#D1D1D1"/>
<circle cx="439.342" cy="439.343" r="4.65734" fill="#D1D1D1"/>
<circle cx="439.342" cy="190.951" r="4.65734" fill="#D1D1D1"/>
<circle cx="439.342" cy="315.147" r="4.65734" fill="#D1D1D1"/>
<circle cx="439.342" cy="66.755" r="4.65734" fill="#D1D1D1"/>
<circle cx="439.342" cy="377.245" r="4.65734" fill="#D1D1D1"/>
<circle cx="439.342" cy="128.854" r="4.65734" fill="#D1D1D1"/>
<circle cx="439.342" cy="253.049" r="4.65734" fill="#D1D1D1"/>
<circle cx="439.342" cy="4.65734" r="4.65734" fill="#D1D1D1"/>
<circle cx="190.951" cy="439.343" r="4.65734" fill="#D1D1D1"/>
<circle cx="190.951" cy="190.951" r="4.65734" fill="#D1D1D1"/>
<circle cx="190.951" cy="315.147" r="4.65734" fill="#D1D1D1"/>
<circle cx="190.951" cy="66.755" r="4.65734" fill="#D1D1D1"/>
<circle cx="190.951" cy="377.245" r="4.65734" fill="#D1D1D1"/>
<circle cx="190.951" cy="128.854" r="4.65734" fill="#D1D1D1"/>
<circle cx="190.951" cy="253.049" r="4.65734" fill="#D1D1D1"/>
<circle cx="190.951" cy="4.65734" r="4.65734" fill="#D1D1D1"/>
<circle cx="501.441" cy="439.343" r="4.65734" fill="#D1D1D1"/>
<circle cx="501.441" cy="190.951" r="4.65734" fill="#D1D1D1"/>
<circle cx="501.441" cy="315.147" r="4.65734" fill="#D1D1D1"/>
<circle cx="501.441" cy="66.755" r="4.65734" fill="#D1D1D1"/>
<circle cx="501.441" cy="377.245" r="4.65734" fill="#D1D1D1"/>
<circle cx="501.441" cy="128.854" r="4.65734" fill="#D1D1D1"/>
<circle cx="501.441" cy="253.049" r="4.65734" fill="#D1D1D1"/>
<circle cx="501.441" cy="4.65734" r="4.65734" fill="#D1D1D1"/>
<circle cx="253.048" cy="439.343" r="4.65734" fill="#D1D1D1"/>
<circle cx="253.048" cy="190.951" r="4.65734" fill="#D1D1D1"/>
<circle cx="253.048" cy="315.147" r="4.65734" fill="#D1D1D1"/>
<circle cx="253.048" cy="66.755" r="4.65734" fill="#D1D1D1"/>
<circle cx="253.048" cy="377.245" r="4.65734" fill="#D1D1D1"/>
<circle cx="253.048" cy="128.854" r="4.65734" fill="#D1D1D1"/>
<circle cx="253.048" cy="253.049" r="4.65734" fill="#D1D1D1"/>
<circle cx="253.048" cy="4.65734" r="4.65734" fill="#D1D1D1"/>
<circle cx="563.538" cy="439.343" r="4.65734" fill="#D1D1D1"/>
<circle cx="563.538" cy="190.951" r="4.65734" fill="#D1D1D1"/>
<circle cx="563.538" cy="315.147" r="4.65734" fill="#D1D1D1"/>
<circle cx="563.538" cy="66.755" r="4.65734" fill="#D1D1D1"/>
<circle cx="563.538" cy="377.245" r="4.65734" fill="#D1D1D1"/>
<circle cx="563.538" cy="128.854" r="4.65734" fill="#D1D1D1"/>
<circle cx="563.538" cy="253.049" r="4.65734" fill="#D1D1D1"/>
<circle cx="563.538" cy="4.65734" r="4.65734" fill="#D1D1D1"/>
</svg>
