<svg width="327" height="168" viewBox="0 0 327 168" fill="none" xmlns="http://www.w3.org/2000/svg">
<mask id="path-1-inside-1_37_2343" fill="white">
<path d="M736.366 -136.866C689.503 -137.314 689.503 -135.433 689.503 -132.12C689.503 -128.627 689.324 -123.971 654.557 -120.478C619.522 -117.523 582.784 -121.105 546.136 -125.672C500.438 -132.926 454.651 -141.433 406.892 -142.597C359.133 -143.762 359.312 -131.851 359.312 -118.24C359.312 -106.419 359.133 -93.9711 324.994 -89.8517C291.661 -85.0159 255.73 -96.0308 220.695 -107.225C178.133 -121.195 135.66 -136.866 98.7435 -127.105C66.9342 -112.329 75.1779 -82.0607 84.5863 -49.1954C93.0986 -20.718 101.252 8.29659 88.5287 33.7292C77.5074 60.9528 58.7802 58.8931 40.949 57.0125C19.9817 54.6842 1.43372 52.6245 0.00012207 97.848C0.00012207 144.415 13.4407 190.265 25.1787 235.488C34.0496 272.294 41.6659 308.831 39.0674 344.472C35.6625 379.398 27.4189 379.666 19.8922 380.024C11.9174 380.293 5.28674 380.293 6.45154 428.024C7.07874 475.218 9.94604 520.71 11.4694 565.754C11.7382 602.291 11.0212 638.738 7.16833 673.036C6.98901 683.156 6.98914 693.096 6.89954 702.768C13.9781 656.022 15.1432 610.709 15.1432 565.575C14.0679 529.217 11.9174 492.59 13.0822 458.024C13.5302 422.651 19.2649 422.472 25.7163 422.203C35.1248 422.203 45.7877 421.576 52.0599 374.293C57.7947 326.383 48.655 280.712 38.3506 235.309C28.7629 198.593 18.2793 161.967 19.8922 127.937C22.4011 94.445 37.0961 95.3405 53.3145 96.5943C75.4467 98.9226 98.8333 101.34 113.976 62.7438C133.868 28.8934 124.012 -7.10623 115.32 -40.688C109.406 -65.5833 102.776 -90.2995 127.865 -101.135C154.388 -110.449 188.437 -98.4486 222.935 -86.9861C265.676 -74.3593 309.582 -61.643 354.742 -70.0609C401.247 -77.4041 401.247 -93.6129 401.247 -108.031C401.426 -118.777 401.516 -128.627 436.73 -129.075C472.124 -129.702 508.771 -123.165 545.33 -117.881C591.028 -112.24 636.636 -108.031 684.127 -114.21C731.258 -120.836 731.437 -126.836 730.989 -131.493C731.258 -134.18 731.437 -135.881 766.025 -136.956C756.347 -136.956 746.133 -136.777 736.097 -136.956L736.366 -136.866ZM1465.47 480.232C1458.66 526.889 1457.5 572.291 1457.41 617.515C1458.75 653.872 1460.55 690.32 1459.65 725.245C1459.02 760.349 1453.47 760.439 1447.01 760.886C1437.7 760.886 1426.85 761.155 1420.76 808.796C1414.85 856.527 1424.17 902.198 1434.29 947.601C1443.61 983.959 1454.18 1020.85 1452.57 1054.88C1450.24 1088.47 1435.46 1087.57 1419.24 1086.41C1397.28 1084.17 1373.72 1081.57 1358.58 1120.17C1338.95 1154.38 1348.9 1190.29 1357.68 1224.05C1363.68 1249.12 1370.22 1273.66 1345.31 1284.58C1318.79 1293.72 1284.47 1281.63 1250.15 1270.43C1207.59 1257.63 1163.78 1245.09 1118.26 1253.15C1071.57 1260.4 1071.75 1276.7 1071.84 1291.3C1071.66 1302.05 1071.66 1311.81 1036.45 1312.34C1001.23 1312.97 964.229 1306.43 927.581 1300.88C881.883 1295.42 836.364 1291.3 788.784 1297.21C741.652 1304.02 741.831 1310.19 741.652 1314.31C741.652 1317.27 741.832 1318.88 707.155 1320.05C716.832 1320.05 726.778 1319.87 736.276 1319.87C783.408 1320.31 783.856 1318.52 783.766 1315.12C783.587 1311.45 783.766 1307.15 818.533 1303.66C853.747 1300.52 890.305 1304.11 927.222 1308.85C972.741 1316.11 1017.99 1324.43 1065.84 1325.69C1113.42 1326.85 1114.05 1315.03 1113.87 1301.69C1113.87 1289.87 1113.87 1277.24 1147.92 1272.94C1181.34 1268.37 1217.18 1279.12 1252.48 1290.58C1295.05 1304.55 1336.89 1319.78 1373.99 1310.19C1405.71 1295.33 1397.55 1265.06 1388.23 1232.37C1379.54 1203.81 1371.48 1174.88 1384.11 1149.27C1395.13 1122.05 1413.86 1123.93 1431.42 1125.81C1452.48 1128.32 1470.94 1129.93 1472.19 1084.7C1472.19 1038.14 1458.75 992.645 1447.1 947.511C1438.41 910.706 1430.62 873.99 1433.57 838.617C1436.71 803.423 1445.04 803.244 1452.39 803.065C1460.37 802.617 1467 802.17 1465.83 754.797C1465.2 707.514 1462.34 662.38 1460.81 617.604C1460.63 580.799 1461.44 544.53 1464.94 509.874C1465.11 500.023 1465.2 490.173 1465.2 480.143L1465.47 480.232ZM1467.09 389.159C1454.27 435.904 1449.88 481.397 1446.66 526.889C1445.76 563.426 1445.49 599.694 1440.29 634.619C1435.28 669.544 1427.21 669.813 1418.52 670.26C1406.6 669.992 1393.07 669.992 1381.07 717.723C1369.15 765.364 1375.15 810.946 1382.59 856.527C1389.67 892.885 1397.91 929.78 1392 963.989C1385.55 997.571 1368.61 996.854 1350.33 995.959C1325.87 993.72 1299.97 991.66 1280.17 1031.51C1256.43 1067.6 1264.67 1104.76 1272.11 1139.96C1277.39 1166.38 1282.68 1191.99 1256.61 1205.96C1229.01 1218.49 1194.78 1208.64 1159.83 1199.33C1116.82 1189.03 1072.92 1179.27 1026.95 1192.97C980.447 1206.05 980.716 1224.94 980.716 1242.31C980.716 1255.3 980.716 1267.39 945.501 1272.22C910.287 1277.24 873.639 1273.12 836.812 1269.9C791.114 1267.39 745.326 1266.4 697.926 1278.4C650.615 1290.94 651.063 1299.63 651.242 1306.52C651.421 1311.54 651.421 1315.48 616.655 1320.94C626.78 1320.76 636.726 1320.67 646.403 1320.67C693.445 1315.21 693.535 1310.82 693.535 1304.73C693.266 1298.73 693.266 1292.19 728.032 1284.4C763.247 1277.06 799.895 1278.05 836.722 1280.46C882.062 1284.58 927.581 1290.05 975.339 1285.48C1022.92 1280.64 1023.19 1266.14 1023.19 1250.11C1023.01 1235.96 1022.92 1221.09 1057.06 1212.49C1090.66 1203.63 1126.77 1212.31 1162.07 1221.45C1205.08 1233.27 1247.38 1245.81 1285.64 1231.57C1319.24 1212.67 1312.34 1181.06 1304.37 1146.67C1297.11 1117.39 1290.21 1087.48 1305.98 1060.44C1320.23 1032.32 1340.74 1033.75 1360.64 1035.54C1384.02 1037.78 1404.99 1038.94 1411.71 993.541C1417.62 946.974 1407.14 901.482 1398.27 856.259C1391.91 819.722 1386.62 782.916 1393.97 747.633C1401.14 712.26 1411.8 712.439 1421.66 712.26C1432.23 711.991 1441.73 711.633 1446.39 664.081C1451.67 616.977 1451.58 571.664 1453.02 526.71C1455.08 490.173 1458.48 453.456 1466.28 418.979C1466.55 409.218 1466.73 398.83 1467 388.89L1467.09 389.159ZM1469.15 297.1C1450.6 344.114 1443.25 389.785 1437.34 435.188C1433.84 471.904 1430.89 508.531 1421.3 543.456C1411.89 578.381 1401.85 578.381 1390.92 578.381C1375.87 578.381 1359.65 578.381 1341.55 626.022C1323.63 673.753 1326.68 719.245 1331.43 764.916C1336.17 801.453 1341.91 838.438 1331.69 872.736C1320.94 906.497 1301.95 905.781 1281.79 904.975C1254.72 903.184 1226.41 901.572 1201.77 942.676C1174.08 980.646 1180.44 1018.88 1186.63 1055.51C1190.75 1083.18 1195.32 1110.32 1167.9 1127.42C1139.31 1143.36 1104.55 1135.39 1069.51 1128.14C1025.88 1120.52 981.701 1113.27 935.466 1132.7C888.782 1151.87 888.782 1173.54 889.23 1193.69C889.409 1209 889.409 1222.97 854.284 1232.46C819.249 1241.87 782.064 1240.26 745.236 1239.54C699.449 1239.99 653.482 1241.87 605.992 1259.87C558.86 1278.4 558.95 1289.78 559.308 1299.54C559.487 1306.79 559.756 1312.61 525.259 1322.55C535.115 1322.28 545.151 1322.1 555.007 1321.84C602.139 1310.64 602.139 1303.57 601.691 1294.88C601.422 1287.09 601.243 1278.22 636.188 1266.14C671.224 1254.23 707.961 1252.88 745.057 1252.7C790.845 1253.69 836.274 1256.11 883.943 1245.45C931.254 1234.7 931.702 1217.42 931.344 1198.61C931.165 1182.58 931.075 1165.3 965.393 1152.49C999.264 1139.51 1035.37 1145.87 1071.04 1152.94C1114.49 1161.81 1157.06 1171.93 1196.66 1153.21C1232.14 1130.38 1226.59 1097.06 1219.96 1061.42C1214.04 1030.88 1208.58 1000.17 1227.49 971.87C1245.05 942.586 1267.72 943.84 1289.31 945.362C1315.21 947.153 1338.86 948.497 1351.32 902.825C1362.97 856.08 1355.44 810.319 1349.44 765.095C1345.58 728.29 1342.63 691.395 1354.45 656.201C1366.28 621.007 1379.18 621.097 1391.01 621.097C1404.54 620.918 1416.46 620.918 1427.21 573.634C1438.41 526.53 1441.37 480.77 1445.94 435.546C1450.51 398.562 1456.24 361.845 1468.34 327.279C1468.61 317.249 1468.79 307.398 1469.06 297.1H1469.15ZM1471.66 205.041C1447.01 251.876 1437.07 297.548 1427.93 343.577C1422.02 380.293 1417 416.92 1403.02 451.845C1389.22 486.77 1376.68 486.77 1363.41 487.038C1345.85 486.411 1326.59 486.591 1302.39 534.321C1278.56 581.873 1278.83 627.455 1280.44 673.574C1282.68 709.932 1286.18 746.827 1271.75 781.304C1256.88 815.334 1235.55 814.886 1213.15 814.349C1183.58 812.558 1152.76 811.393 1123.54 854.02C1091.74 893.96 1096.3 933.273 1100.87 971.601C1104.1 1000.62 1107.95 1029.18 1079.1 1049.42C1049.35 1068.59 1014.32 1062.67 978.744 1057.57C934.838 1052.29 890.484 1047.72 843.98 1073.06C797.117 1097.78 797.117 1122.58 797.117 1145.6C797.565 1163.15 797.565 1179.63 762.53 1193.51C727.495 1207.39 690.488 1208.11 653.392 1209.72C607.605 1213.12 561.907 1217.78 514.506 1241.96C467.195 1266.4 467.195 1280.73 467.375 1293.27C467.823 1302.67 468.091 1310.82 433.325 1325.06C443.45 1324.79 453.486 1324.61 463.522 1324.34C510.474 1306.97 510.384 1297.12 510.026 1285.84C509.847 1275.54 509.578 1264.79 544.344 1247.96C579.379 1231.57 616.565 1227.9 653.482 1225.39C699.001 1223.51 744.788 1223.06 792.547 1206.4C839.948 1189.66 839.858 1169.42 839.948 1147.93C839.679 1129.21 839.321 1109.78 873.818 1092.94C908.047 1075.57 944.426 1079.51 980.357 1084.53C1023.99 1090.88 1067.27 1098.67 1108.22 1075.12C1145.59 1048.35 1140.75 1013.06 1135.91 976.078C1131.52 944.735 1127.22 913.034 1149.17 883.393C1170.23 853.035 1194.87 853.751 1218.61 855.005C1246.84 856.438 1273.09 857.333 1291.37 811.573C1308.94 764.737 1304.19 718.887 1301.23 673.484C1299.8 636.768 1298.9 599.963 1315.21 564.769C1331.6 529.665 1346.75 529.575 1361 529.575C1377.21 529.575 1392.09 529.575 1408.75 482.113C1425.96 434.83 1431.87 389.248 1439.4 343.756C1446.21 306.95 1454.27 270.413 1470.94 235.757C1471.21 225.727 1471.39 215.25 1471.66 205.22V205.041ZM1472.82 114.146C1442.36 160.982 1429.63 206.563 1418.34 251.876C1410.28 288.413 1403.02 325.129 1384.65 360.144C1366.37 395.069 1351.5 395.069 1335.73 395.338C1314.94 395.338 1292.72 395.606 1262.52 443.069C1232.59 490.71 1230.26 536.202 1229.28 581.694C1229.46 618.231 1230.62 655.037 1211.89 689.962C1192.72 724.17 1169.33 723.543 1144.69 723.275C1112.43 722.29 1079.1 721.215 1045.23 765.095C1009.3 806.916 1012.53 847.483 1015.66 887.064C1017.99 917.601 1020.32 947.511 990.214 970.795C959.3 993.183 924.176 989.332 888.692 986.108C844.338 983.332 799.805 981.362 753.122 1012.35C705.99 1042.88 705.811 1070.29 706.08 1096.44C705.9 1116.5 705.811 1135.48 670.596 1153.75C635.561 1172.02 599.003 1174.97 562.265 1178.82C516.477 1184.73 471.048 1192.26 423.648 1222.26C376.337 1252.61 376.247 1269.99 376.247 1285.66C375.978 1297.57 375.978 1308.49 340.854 1326.94C351.158 1326.76 361.194 1326.67 371.05 1326.31C418.182 1303.21 418.182 1290.4 418.361 1275.81C418.182 1263.27 418.54 1249.75 453.396 1228.7C488.611 1208.11 524.811 1202.2 561.996 1197.45C607.336 1192.97 653.034 1189.66 700.614 1166.82C748.014 1144.17 748.193 1120.97 748.373 1096.26C748.104 1075.3 748.373 1053.54 782.87 1032.32C817.188 1010.65 853.478 1013.06 889.678 1015.66C933.584 1019.51 977.042 1024.79 1019.33 996.675C1058.85 965.69 1055.27 928.706 1051.86 890.288C1048.64 858.139 1045.95 825.184 1071.04 794.379C1095.32 762.857 1121.84 763.752 1147.83 764.289C1178.74 765.185 1207.68 766.17 1231.52 719.961C1254.9 672.947 1253.2 626.828 1252.75 581.784C1253.47 545.247 1255.08 508.441 1275.78 473.068C1296.57 437.964 1314.22 438.143 1330.89 437.875C1350.33 437.427 1367.98 437.606 1390.83 390.323C1413.95 343.04 1422.82 296.921 1432.68 252.145C1441.82 215.429 1451.67 178.623 1472.55 143.967C1472.73 134.116 1472.82 124.266 1473 114.236L1472.82 114.146ZM1469.33 27.8188C1433.4 74.5646 1419.51 118.176 1406.25 162.594C1396.66 198.414 1387.7 234.682 1365.03 269.608C1342.45 304.533 1324.62 304.98 1305.98 305.697C1281.96 306.145 1255.71 307.488 1219.96 354.592C1184.3 401.696 1180.17 446.382 1176.68 491.337C1175.07 527.605 1173.99 564.142 1151.14 599.067C1127.85 633.365 1102.13 633.276 1075.16 633.097C1040.57 632.649 1004.28 632.201 966.11 677.156C926.505 720.499 928.208 762.319 929.91 802.976C931.254 834.766 932.688 866.02 901.327 892.437C869.338 918.228 834.124 915.989 798.372 914.646C754.286 914.198 710.022 914.198 663.249 950.467C616.386 986.735 615.848 1017.63 615.669 1047C615.221 1069.57 614.504 1091.24 579.559 1113.9C544.523 1136.55 508.503 1141.3 472.123 1146.76C427.501 1155.18 383.326 1164.14 336.194 1199.78C289.152 1235.6 287.718 1257.27 286.822 1276.52C285.926 1291.39 285.03 1305.27 250.174 1327.93C260.3 1328.1 270.514 1327.93 280.192 1327.75C327.592 1298.73 327.592 1282.7 328.04 1264.88C328.936 1249.3 329.563 1233.09 364.151 1207.75C399.186 1182.85 435.475 1175.15 471.407 1168.88C516.657 1161.99 562.176 1155.9 609.755 1127.15C657.066 1098.32 657.156 1072.35 657.156 1044.5C657.783 1020.94 657.783 996.586 692.191 971.153C726.778 945.81 763.068 945.81 798.551 946.526C843.353 948.318 887.259 951.094 930.717 918.228C972.114 883.303 969.605 844.706 967.365 805.035C965.483 771.633 964.139 738.319 992.006 706.171C1019.51 673.574 1048.28 673.753 1076.14 674.38C1109.84 674.648 1141.73 675.096 1171.12 628.529C1200.34 581.336 1201.23 535.665 1203.2 491.158C1205.89 454.8 1209.21 418.621 1234.12 383.606C1259.12 348.681 1279.63 348.055 1298.9 347.517C1321.84 346.443 1342.81 346.353 1371.57 299.07C1400.42 251.608 1411.8 206.295 1423.54 162.056C1434.29 125.967 1445.76 90.3257 1470.94 55.8484C1470.67 46.4455 1470.22 36.6844 1469.15 27.8188H1469.33ZM1454.63 -47.0462C1413.86 -1.37495 1401.14 38.1172 1388.5 79.4004C1378.02 113.699 1368.34 148.265 1341.64 183.011C1314.85 217.31 1293.61 219.101 1272.11 220.892C1242.9 223.22 1211.98 226.533 1171.21 272.652C1130.71 318.771 1125.87 360.95 1121.57 404.203C1118.17 439.397 1115.84 474.949 1089.05 509.695C1061.81 543.903 1033.49 544.351 1004.19 544.62C966.648 544.888 927.76 545.336 886.004 590.47C843.442 634.798 843.98 676.977 844.428 718.797C845.055 751.663 845.772 784.17 813.515 813.543C780.63 842.109 745.326 841.662 709.843 841.841C666.564 842.736 623.196 843.901 577.408 885.005C531.441 925.84 529.828 960.855 528.216 993.989C527.499 1019.51 526.423 1044.05 491.836 1071C457.07 1097.69 421.856 1103.6 386.821 1110.32C344.975 1118.82 303.757 1127.6 257.791 1168.08C211.645 1208.91 207.523 1236.31 203.58 1260.85C201.788 1279.39 199.727 1296.85 165.14 1323.63C173.653 1324.79 182.703 1325.87 192.111 1326.13C239.243 1291.48 241.035 1271.06 243.544 1248.67C245.336 1229.51 247.397 1209.36 281.715 1180.35C316.033 1151.33 350.531 1143.36 385.297 1135.84C428.934 1127.87 472.84 1120.08 520.241 1085.6C567.193 1050.94 568.269 1021.48 569.254 989.869C569.971 963.631 570.688 936.407 604.737 907.213C638.966 878.02 674.449 876.676 710.112 876.139C754.018 875.96 797.924 876.855 842.367 839.423C885.556 800.647 884.391 760.797 883.316 719.514C882.42 685.484 881.972 651.455 912.617 618.768C942.813 585.634 973.727 585.455 1003.65 585.366C1040.21 585.366 1074.8 585.187 1109.75 538.53C1144.69 491.516 1147.47 446.919 1151.32 402.95C1155.26 367.756 1159.74 332.92 1188.6 298.443C1217.63 264.145 1241.46 262.354 1263.86 260.831C1290.84 259.04 1315.83 257.608 1350.33 210.414C1384.92 163.131 1397.37 119.788 1410.01 77.1616C1421.48 42.6843 1432.86 9.37122 1461.89 -24.6583C1459.56 -32.0015 1457.32 -39.4343 1454.81 -47.0462H1454.63ZM1420.04 -102.299C1375.69 -58.6878 1366.55 -25.1061 1356.25 10.4458C1348.72 39.7291 1339.58 71.4303 1309.2 105.37C1278.83 139.131 1253.83 142.176 1226.86 146.922C1192.36 151.937 1155.89 157.668 1111.54 201.459C1067.36 245.25 1063.33 283.846 1059.12 323.428C1056.43 356.114 1053.56 390.502 1023.01 424.352C992.543 458.113 961.451 458.561 929.462 459.904C889.23 461.068 847.833 461.785 803.658 505.844C759.483 549.724 759.483 591.724 759.483 634.171C759.483 668.022 759.484 701.693 726.599 733.036C693.625 764.289 658.948 764.916 624.809 765.274C582.964 766.797 542.194 768.409 498.377 812.737C454.651 857.065 451.425 896.109 448.558 933.542C445.78 963.183 443.809 991.123 409.938 1021.48C376.068 1051.84 343.362 1058.02 312.27 1063.03C274.278 1070.29 238.347 1077 194.709 1121.42C150.983 1165.75 142.56 1199.33 135.481 1230.76C129.03 1255.66 124.908 1277.51 90.8585 1307.87C98.4749 1310.37 105.912 1312.7 113.26 1315.12C159.495 1275.18 164.513 1249.12 168.814 1221.72C174.728 1196.37 180.462 1170.58 213.437 1138.79C246.321 1106.64 276.339 1100.29 307.162 1094.91C348.291 1086.5 389.24 1078.7 435.744 1039.03C481.89 999.272 484.31 965.332 486.012 930.318C488.521 900.139 490.582 869.333 523.287 837.184C556.441 805.214 589.863 803.692 623.733 802.886C667.012 801.543 709.753 801.005 754.824 759.812C798.909 717.812 798.909 676.529 798.551 634.44C798.372 600.142 798.372 565.754 830.808 533.247C862.886 500.381 895.95 499.934 928.477 499.217C967.365 498.59 1005.27 497.874 1044.96 451.934C1084.93 405.547 1088.6 362.651 1093.62 320.831C1096.75 288.413 1100.52 256.443 1132.33 223.399C1164.4 190.355 1192.72 186.862 1220.41 182.564C1251.5 179.34 1281.43 175.758 1321.03 129.639C1360.91 83.2511 1372.46 43.0425 1385.01 3.55037C1393.25 -25.2852 1401.76 -54.0312 1433.93 -86.6279C1429.99 -92.3591 1425.87 -98.0904 1419.95 -102.12L1420.04 -102.299ZM1359.83 -131.672C1313.68 -91.9114 1308.85 -65.7624 1304.45 -38.4492C1298.54 -13.1062 1292.81 12.6846 1259.92 44.6545C1226.95 76.4452 1196.75 82.8033 1166.2 88.5346C1125.25 96.9525 1083.94 104.743 1037.61 144.415C991.379 184.176 989.138 217.936 987.257 253.13C984.748 283.219 982.687 314.025 949.892 346.084C916.918 378.054 883.406 379.577 849.715 380.562C806.436 381.905 763.426 382.353 718.624 423.725C674.449 465.725 674.539 506.829 674.718 549.097C674.718 583.306 674.897 617.604 642.64 650.201C610.382 683.066 577.229 683.514 544.703 684.23C505.815 684.678 468.091 685.395 427.859 731.334C388.254 777.901 384.222 820.349 379.652 862.617C376.426 894.855 372.753 927.004 340.943 960.049C308.955 993.093 280.55 996.765 252.863 1001.06C221.591 1004.2 191.573 1007.69 152.148 1053.99C112.184 1100.38 100.715 1140.32 88.0808 1179.81C80.0165 1208.82 71.4144 1237.39 39.3362 1270.25C43.1892 1275.9 47.3109 1281.45 53.3145 1285.75C97.6683 1241.87 106.987 1208.37 117.292 1172.91C124.639 1143.63 133.779 1111.93 164.155 1077.99C194.62 1044.14 219.53 1041.18 246.68 1036.44C281.177 1031.42 317.557 1025.51 362 981.899C406.175 938.109 410.207 899.691 414.329 859.572C417.017 826.886 419.974 792.677 450.439 758.916C481.084 725.155 511.908 724.618 544.165 723.364C584.577 722.379 625.794 721.484 669.969 677.514C714.144 633.634 714.144 591.455 714.502 549.187C714.323 515.336 714.233 481.576 747.029 450.143C780.182 418.89 814.68 418.352 848.819 417.726C890.664 416.382 931.434 414.591 974.891 370.263C1018.8 325.935 1022.02 286.891 1024.8 249.279C1027.76 219.817 1029.82 191.966 1063.51 161.519C1097.56 131.161 1130.35 125.251 1161.18 119.967C1199.17 112.893 1235.01 106.087 1278.56 61.7588C1322.29 17.4308 1330.89 -16.1509 1337.97 -47.5835C1344.42 -72.6578 1348.72 -94.4188 1382.41 -124.777C1375.06 -127.105 1367.72 -129.523 1360.01 -131.851L1359.83 -131.672ZM1281.34 -143.045C1234.38 -108.299 1232.59 -88.0607 1230.08 -65.6728C1228.29 -46.5088 1226.14 -26.0016 1191.82 3.01306C1157.59 31.8486 1123.01 39.7291 1088.24 47.341C1044.96 55.4902 1000.7 63.1021 953.476 97.7584C906.344 132.236 905.448 161.877 904.284 193.399C903.567 219.638 902.671 246.861 868.621 276.234C834.572 305.607 798.909 306.413 763.605 307.309C719.699 307.309 675.704 306.771 631.171 344.114C587.892 382.711 589.326 422.651 590.401 464.024C591.118 497.874 591.386 531.904 560.921 564.679C530.545 597.724 499.811 598.082 469.615 597.992C433.415 597.813 398.648 598.172 363.434 644.828C328.667 691.932 325.711 736.17 322.037 780.409C318.184 815.96 313.793 850.527 285.03 885.184C255.909 919.392 231.985 921.183 209.494 922.616C182.703 924.228 157.524 926.019 123.026 973.123C88.26 1020.23 76.1633 1063.39 63.35 1106.29C51.8807 1140.76 40.501 1174.08 11.3796 1208.11C13.8885 1215.81 16.2184 1223.33 18.4585 1230.49C59.5867 1184.82 72.2208 1145.15 84.7654 1103.96C95.249 1069.66 104.926 1035.09 131.718 1000.53C158.51 965.78 179.477 964.168 201.071 962.556C230.372 960.228 261.375 956.914 302.234 910.974C342.646 864.676 347.484 822.587 351.875 779.424C354.832 743.782 357.341 708.23 384.132 673.753C411.372 639.455 439.776 639.007 468.987 638.649C506.89 638.38 545.599 638.022 587.444 592.978C630.006 548.65 629.558 506.471 629.289 464.74C628.662 431.695 627.676 399.188 659.933 369.995C692.639 341.159 728.481 341.696 763.784 341.607C806.974 340.622 850.521 339.368 895.95 298.443C941.917 257.518 943.53 222.235 945.322 189.101C946.308 163.758 947.204 139.31 981.881 112.445C1016.65 85.5794 1052.04 79.5795 1086.72 72.684C1128.74 64.2662 1169.96 55.7588 1215.93 15.1025C1262.07 -25.7329 1266.28 -52.9565 1269.96 -78.0309C1272.02 -96.2994 1273.9 -113.672 1308.22 -140.538C1299.71 -141.523 1291.1 -142.777 1281.43 -143.045H1281.34ZM1193.08 -144.836C1146.04 -115.643 1146.39 -99.8815 1145.5 -81.8816C1144.78 -66.1206 1143.88 -49.7327 1109.12 -24.5688C1074.17 0.326523 1038.15 7.84885 1002.13 14.2965C957.239 21.1024 911.273 27.2815 863.783 56.117C816.203 84.6839 816.472 110.743 816.024 138.594C815.755 162.146 815.307 186.593 780.809 212.116C746.312 237.727 710.201 237.279 674.628 236.742C630.275 234.951 585.831 231.996 542.642 265.22C501.066 299.965 503.754 338.473 505.994 378.502C507.786 411.636 509.13 445.397 481.263 477.367C453.755 509.874 424.813 509.337 396.856 508.889C363.255 508.441 331.624 507.993 301.697 554.56C272.486 601.664 271.5 647.067 269.708 692.201C267.199 728.469 263.794 765.006 238.884 800.02C213.705 834.945 193.365 835.214 173.742 835.841C150.893 836.736 129.836 836.826 101.252 884.467C72.2208 931.75 60.9307 977.153 48.9238 1021.39C38.3505 1057.3 26.7916 1093.39 1.61292 1128.23C1.88171 1137.54 2.32971 1146.76 3.58423 1155.81C39.5154 1108.79 53.4937 1065 66.4862 1020.85C76.2531 984.765 85.0342 948.765 107.883 913.84C130.553 878.915 148.295 878.199 166.843 877.751C191.125 876.855 217.379 875.87 253.221 828.677C288.883 781.483 293.005 736.708 296.41 691.932C298.202 655.395 298.74 619.037 321.858 584.381C345.244 550.082 371.229 549.903 398.021 550.351C432.967 550.53 468.898 550.978 507.159 506.292C546.764 462.859 545.061 420.949 543.359 380.472C542.194 348.502 540.581 317.249 571.942 290.921C603.931 265.309 639.414 267.19 674.897 268.712C719.072 268.981 763.426 268.981 809.841 232.623C856.704 196.534 857.6 165.459 857.6 136.266C858.496 113.878 858.765 92.1167 893.8 69.3706C928.835 46.7141 965.214 42.147 1001.06 36.3262C1045.95 27.9083 1090.03 19.2219 1136.99 -16.5987C1184.03 -52.5983 1185.91 -74.0907 1186.63 -93.5233C1187.34 -108.389 1188.24 -122.09 1223 -144.926C1213.42 -145.105 1203.29 -144.926 1192.99 -144.747L1193.08 -144.836ZM1102.22 -143.314C1055.27 -120.031 1055.54 -107.314 1055.27 -92.8965C1055.09 -80.2697 1055 -66.6579 1020.23 -45.6133C985.196 -25.0165 948.369 -19.1957 911.631 -14.539C866.381 -9.79279 820.414 -6.56894 772.745 16.2667C725.344 39.0127 725.434 62.2065 725.344 86.7436C725.344 107.788 725.076 129.639 690.578 150.952C656.26 172.623 619.97 170.385 584.218 167.788C540.133 163.847 496.317 158.474 454.292 186.952C414.687 217.757 418.182 254.563 421.766 292.891C424.813 325.309 427.501 358.174 402.501 389.159C378.039 420.681 351.337 419.696 325.621 418.89C294.887 417.815 265.855 417.009 241.662 463.218C218.275 510.232 219.978 556.082 220.426 601.395C219.709 638.111 218.186 675.186 197.577 710.469C176.699 745.484 159.316 745.484 142.47 745.484C123.205 745.752 105.195 745.663 82.5253 793.214C59.4075 840.498 50.5366 886.169 40.6802 931.392C31.5406 968.198 21.4153 1004.91 0.447998 1039.84C0.268799 1049.6 0.179321 1059.54 0.00012207 1069.48C30.6447 1022.47 43.458 976.974 54.8376 931.571C62.902 894.766 69.9807 858.229 88.5287 823.304C106.629 788.11 121.772 788.11 137.273 788.11C158.33 788.11 180.552 787.841 210.749 740.379C240.676 692.738 243.006 647.156 243.902 601.575C243.723 564.769 242.379 527.874 261.285 493.396C280.55 459.098 304.026 459.367 328.578 460.083C361.015 460.979 394.437 461.874 428.307 418.084C464.059 376.263 461.013 335.428 457.876 296.204C455.636 265.667 453.038 235.668 483.055 212.384C513.969 189.817 549.541 193.847 584.666 197.071C629.289 199.757 674.091 201.817 720.506 170.653C767.637 140.027 767.637 112.445 767.189 86.3854C767.637 66.505 767.817 47.6096 802.673 29.2516C837.887 10.9831 874.714 8.20705 911.273 4.35634C957.239 -1.82271 1002.76 -9.34502 1050.16 -39.4343C1097.47 -69.7922 1097.56 -87.0756 1097.29 -102.837C1097.47 -114.747 1097.47 -125.672 1132.33 -143.941C1122.47 -143.762 1112.43 -143.493 1102.13 -143.314H1102.22ZM1009.84 -140.986C963.153 -123.613 963.601 -113.851 963.601 -102.389C963.87 -92.5382 964.049 -81.3443 929.104 -64.6878C894.158 -48.2999 857.062 -44.9865 820.056 -42.1208C774.537 -40.3298 728.391 -39.7925 680.811 -22.9568C633.231 -6.30028 633.679 13.8488 633.679 35.6993C633.859 54.1469 633.679 73.4005 599.361 90.6839C565.312 107.967 528.932 103.669 493.18 99.1017C449.722 92.654 405.817 84.863 365.316 108.505C327.592 135.37 332.61 170.205 337.449 207.369C342.019 238.712 345.961 270.593 323.918 300.055C302.951 330.592 278.131 329.338 254.386 328.174C226.429 326.831 199.907 325.846 181.448 371.786C164.065 418.8 168.635 464.203 171.771 509.695C173.384 546.68 174.011 583.485 157.793 618.768C141.395 653.962 126.252 653.962 112.095 653.783C95.7866 653.962 80.7333 653.962 64.2461 701.514C47.0421 748.797 40.9491 794.2 33.6016 839.423C26.5228 876.587 18.7273 913.392 1.97131 948.049C1.70251 958.526 1.34412 968.377 1.07532 978.407C25.806 931.392 36.1105 885.721 44.802 839.781C50.8055 803.065 55.8234 766.439 69.9807 731.603C83.7798 696.589 96.2347 696.409 109.496 696.409C127.417 696.857 146.503 696.678 170.606 648.947C194.441 601.306 194.351 555.724 192.738 509.963C190.229 472.979 186.735 436.263 201.161 401.696C216.214 367.845 237.54 368.293 260.12 369.189C289.69 370.621 320.334 371.875 349.724 329.249C381.713 289.309 376.964 249.996 372.573 211.936C369.348 182.743 365.674 154.176 394.347 133.937C424.275 114.952 459.489 120.863 494.704 125.967C538.789 131.161 583.412 135.728 629.468 110.206C676.51 85.3108 676.51 60.8633 676.152 37.6694C676.331 20.2965 675.973 3.63992 711.187 -10.0614C746.222 -23.9419 783.408 -24.6583 820.056 -26.4493C866.023 -29.6732 911.81 -34.5985 959.3 -58.6878C1006.7 -83.1354 1006.61 -97.2845 1005.98 -110.09C1005.98 -119.493 1005.54 -127.732 1040.3 -141.792C1030.45 -141.523 1020.41 -141.165 1009.93 -141.075L1009.84 -140.986ZM918.172 -138.747C871.309 -127.374 871.488 -120.299 871.937 -111.792C871.937 -104.001 872.205 -94.9561 837.349 -82.9563C802.314 -71.1355 765.128 -69.9713 728.66 -69.5235C682.872 -70.5086 637.084 -73.0161 589.415 -62.2699C541.835 -51.6133 542.015 -34.2403 542.104 -15.5241C542.283 0.863831 542.104 17.789 507.965 30.774C474.274 43.8485 437.984 37.4008 402.322 30.3262C359.043 21.4606 316.033 11.3413 276.518 30.1471C241.035 52.9827 246.949 86.3854 253.221 121.758C259.135 152.116 264.421 182.922 245.694 211.22C227.863 240.593 205.283 239.25 183.509 237.727C157.703 236.115 133.958 234.503 121.503 280.354C109.675 327.01 117.202 372.771 123.295 417.994C127.238 454.979 130.374 491.784 118.725 527.157C106.539 562.082 93.6362 562.082 81.8981 562.172C68.4575 562.441 56.2712 562.351 45.698 609.813C34.4976 656.917 31.451 702.499 26.9708 747.901C22.2218 784.707 16.8456 821.423 4.30103 855.9C4.12183 866.199 3.85303 876.049 3.58423 886.079C22.401 839.065 29.8383 793.662 35.5729 748.349C39.2466 711.544 42.0243 674.828 51.7911 640.082C61.11 604.888 71.2352 604.888 82.1669 605.067C97.2203 605.246 113.439 604.888 131.628 557.336C149.46 509.605 146.234 463.934 141.485 418.531C136.825 381.547 131.001 344.741 141.216 310.353C152.148 276.772 171.144 277.309 191.304 278.384C218.723 280.175 246.859 281.607 271.411 240.503C299.277 202.534 292.916 164.295 286.733 127.937C282.88 100.266 278.22 72.8631 305.729 55.8484C334.312 39.9082 369.258 48.0574 403.845 55.132C447.93 62.9229 492.105 69.9975 537.893 50.3857C584.756 31.2217 584.756 9.72943 584.128 -10.5987C584.397 -25.6434 584.397 -39.9716 619.522 -49.3745C654.736 -58.6878 691.653 -56.8968 728.122 -56.449C774.358 -56.8968 820.056 -58.6878 867.456 -76.7772C914.767 -95.3143 914.588 -106.687 914.05 -116.448C914.23 -123.523 913.871 -129.702 948.548 -139.463C938.691 -139.195 928.656 -138.836 918.351 -138.747H918.172ZM826.955 -137.583C780.272 -131.941 780.092 -127.374 780.092 -121.463C780.272 -115.732 780.361 -109.105 745.595 -101.404C710.649 -93.8815 673.553 -95.0457 636.905 -97.2845C591.207 -101.404 545.688 -106.866 498.109 -102.031C450.35 -97.4636 450.35 -82.6876 450.529 -66.6579C450.529 -52.5088 450.529 -37.8224 416.479 -29.4045C382.788 -20.4494 346.678 -29.1359 311.284 -38.2701C268.453 -49.7327 225.712 -62.6281 187.541 -48.2999C153.94 -29.4045 160.839 2.11755 168.993 36.2366C176.072 65.6095 182.882 95.6092 167.201 122.475C152.596 150.594 132.166 148.982 112.274 147.191C88.9768 144.952 67.9198 143.967 60.8411 189.369C54.9272 235.936 65.411 281.16 74.6403 326.562C80.8229 363.278 86.1095 400.084 78.9412 435.546C71.4144 470.65 60.8412 470.65 51.2535 470.65C40.3219 470.919 30.9135 471.367 26.1644 519.098C20.8778 566.291 20.9673 611.156 19.5337 656.111C17.4728 692.917 14.2471 729.633 6.09302 764.11C5.91382 774.409 5.64514 784.259 5.46594 794.2C18.2793 747.364 22.5803 701.783 25.6268 656.29C26.9708 619.933 27.2396 583.396 32.5262 548.56C37.3649 513.366 45.3397 513.366 54.0312 512.919C66.2174 513.366 79.4788 512.919 91.7545 465.456C103.672 417.726 97.4891 372.144 90.1416 326.652C82.7942 289.846 74.6401 253.13 80.554 218.921C87.1847 185.519 104.12 186.235 122.399 187.131C147.04 189.369 172.936 191.429 192.828 151.579C216.573 115.49 208.329 78.5049 201.071 43.5798C195.874 17.0726 190.409 -8.71817 216.573 -22.7777C244.171 -35.3149 278.579 -25.2852 313.255 -16.1509C356.445 -5.85251 400.799 3.99814 446.318 -9.97188C493.001 -23.0464 492.732 -41.9417 492.553 -59.1356C492.553 -72.1205 492.732 -84.0309 527.768 -89.2249C562.982 -94.0606 599.988 -89.8517 636.457 -86.8965C682.245 -84.3891 728.212 -83.3145 775.702 -95.4039C822.833 -107.941 822.565 -116.448 822.117 -123.523C822.296 -128.538 822.117 -132.478 856.704 -137.762C846.847 -137.583 836.991 -137.583 826.776 -137.583H826.955Z"/>
</mask>
<path d="M736.366 -136.866C689.503 -137.314 689.503 -135.433 689.503 -132.12C689.503 -128.627 689.324 -123.971 654.557 -120.478C619.522 -117.523 582.784 -121.105 546.136 -125.672C500.438 -132.926 454.651 -141.433 406.892 -142.597C359.133 -143.762 359.312 -131.851 359.312 -118.24C359.312 -106.419 359.133 -93.9711 324.994 -89.8517C291.661 -85.0159 255.73 -96.0308 220.695 -107.225C178.133 -121.195 135.66 -136.866 98.7435 -127.105C66.9342 -112.329 75.1779 -82.0607 84.5863 -49.1954C93.0986 -20.718 101.252 8.29659 88.5287 33.7292C77.5074 60.9528 58.7802 58.8931 40.949 57.0125C19.9817 54.6842 1.43372 52.6245 0.00012207 97.848C0.00012207 144.415 13.4407 190.265 25.1787 235.488C34.0496 272.294 41.6659 308.831 39.0674 344.472C35.6625 379.398 27.4189 379.666 19.8922 380.024C11.9174 380.293 5.28674 380.293 6.45154 428.024C7.07874 475.218 9.94604 520.71 11.4694 565.754C11.7382 602.291 11.0212 638.738 7.16833 673.036C6.98901 683.156 6.98914 693.096 6.89954 702.768C13.9781 656.022 15.1432 610.709 15.1432 565.575C14.0679 529.217 11.9174 492.59 13.0822 458.024C13.5302 422.651 19.2649 422.472 25.7163 422.203C35.1248 422.203 45.7877 421.576 52.0599 374.293C57.7947 326.383 48.655 280.712 38.3506 235.309C28.7629 198.593 18.2793 161.967 19.8922 127.937C22.4011 94.445 37.0961 95.3405 53.3145 96.5943C75.4467 98.9226 98.8333 101.34 113.976 62.7438C133.868 28.8934 124.012 -7.10623 115.32 -40.688C109.406 -65.5833 102.776 -90.2995 127.865 -101.135C154.388 -110.449 188.437 -98.4486 222.935 -86.9861C265.676 -74.3593 309.582 -61.643 354.742 -70.0609C401.247 -77.4041 401.247 -93.6129 401.247 -108.031C401.426 -118.777 401.516 -128.627 436.73 -129.075C472.124 -129.702 508.771 -123.165 545.33 -117.881C591.028 -112.24 636.636 -108.031 684.127 -114.21C731.258 -120.836 731.437 -126.836 730.989 -131.493C731.258 -134.18 731.437 -135.881 766.025 -136.956C756.347 -136.956 746.133 -136.777 736.097 -136.956L736.366 -136.866ZM1465.47 480.232C1458.66 526.889 1457.5 572.291 1457.41 617.515C1458.75 653.872 1460.55 690.32 1459.65 725.245C1459.02 760.349 1453.47 760.439 1447.01 760.886C1437.7 760.886 1426.85 761.155 1420.76 808.796C1414.85 856.527 1424.17 902.198 1434.29 947.601C1443.61 983.959 1454.18 1020.85 1452.57 1054.88C1450.24 1088.47 1435.46 1087.57 1419.24 1086.41C1397.28 1084.17 1373.72 1081.57 1358.58 1120.17C1338.95 1154.38 1348.9 1190.29 1357.68 1224.05C1363.68 1249.12 1370.22 1273.66 1345.31 1284.58C1318.79 1293.72 1284.47 1281.63 1250.15 1270.43C1207.59 1257.63 1163.78 1245.09 1118.26 1253.15C1071.57 1260.4 1071.75 1276.7 1071.84 1291.3C1071.66 1302.05 1071.66 1311.81 1036.45 1312.34C1001.23 1312.97 964.229 1306.43 927.581 1300.88C881.883 1295.42 836.364 1291.3 788.784 1297.21C741.652 1304.02 741.831 1310.19 741.652 1314.31C741.652 1317.27 741.832 1318.88 707.155 1320.05C716.832 1320.05 726.778 1319.87 736.276 1319.87C783.408 1320.31 783.856 1318.52 783.766 1315.12C783.587 1311.45 783.766 1307.15 818.533 1303.66C853.747 1300.52 890.305 1304.11 927.222 1308.85C972.741 1316.11 1017.99 1324.43 1065.84 1325.69C1113.42 1326.85 1114.05 1315.03 1113.87 1301.69C1113.87 1289.87 1113.87 1277.24 1147.92 1272.94C1181.34 1268.37 1217.18 1279.12 1252.48 1290.58C1295.05 1304.55 1336.89 1319.78 1373.99 1310.19C1405.71 1295.33 1397.55 1265.06 1388.23 1232.37C1379.54 1203.81 1371.48 1174.88 1384.11 1149.27C1395.13 1122.05 1413.86 1123.93 1431.42 1125.81C1452.48 1128.32 1470.94 1129.93 1472.19 1084.7C1472.19 1038.14 1458.75 992.645 1447.1 947.511C1438.41 910.706 1430.62 873.99 1433.57 838.617C1436.71 803.423 1445.04 803.244 1452.39 803.065C1460.37 802.617 1467 802.17 1465.83 754.797C1465.2 707.514 1462.34 662.38 1460.81 617.604C1460.63 580.799 1461.44 544.53 1464.94 509.874C1465.11 500.023 1465.2 490.173 1465.2 480.143L1465.47 480.232ZM1467.09 389.159C1454.27 435.904 1449.88 481.397 1446.66 526.889C1445.76 563.426 1445.49 599.694 1440.29 634.619C1435.28 669.544 1427.21 669.813 1418.52 670.26C1406.6 669.992 1393.07 669.992 1381.07 717.723C1369.15 765.364 1375.15 810.946 1382.59 856.527C1389.67 892.885 1397.91 929.78 1392 963.989C1385.55 997.571 1368.61 996.854 1350.33 995.959C1325.87 993.72 1299.97 991.66 1280.17 1031.51C1256.43 1067.6 1264.67 1104.76 1272.11 1139.96C1277.39 1166.38 1282.68 1191.99 1256.61 1205.96C1229.01 1218.49 1194.78 1208.64 1159.83 1199.33C1116.82 1189.03 1072.92 1179.27 1026.95 1192.97C980.447 1206.05 980.716 1224.94 980.716 1242.31C980.716 1255.3 980.716 1267.39 945.501 1272.22C910.287 1277.24 873.639 1273.12 836.812 1269.9C791.114 1267.39 745.326 1266.4 697.926 1278.4C650.615 1290.94 651.063 1299.63 651.242 1306.52C651.421 1311.54 651.421 1315.48 616.655 1320.94C626.78 1320.76 636.726 1320.67 646.403 1320.67C693.445 1315.21 693.535 1310.82 693.535 1304.73C693.266 1298.73 693.266 1292.19 728.032 1284.4C763.247 1277.06 799.895 1278.05 836.722 1280.46C882.062 1284.58 927.581 1290.05 975.339 1285.48C1022.92 1280.64 1023.19 1266.14 1023.19 1250.11C1023.01 1235.96 1022.92 1221.09 1057.06 1212.49C1090.66 1203.63 1126.77 1212.31 1162.07 1221.45C1205.08 1233.27 1247.38 1245.81 1285.64 1231.57C1319.24 1212.67 1312.34 1181.06 1304.37 1146.67C1297.11 1117.39 1290.21 1087.48 1305.98 1060.44C1320.23 1032.32 1340.74 1033.75 1360.64 1035.54C1384.02 1037.78 1404.99 1038.94 1411.71 993.541C1417.62 946.974 1407.14 901.482 1398.27 856.259C1391.91 819.722 1386.62 782.916 1393.97 747.633C1401.14 712.26 1411.8 712.439 1421.66 712.26C1432.23 711.991 1441.73 711.633 1446.39 664.081C1451.67 616.977 1451.58 571.664 1453.02 526.71C1455.08 490.173 1458.48 453.456 1466.28 418.979C1466.55 409.218 1466.73 398.83 1467 388.89L1467.09 389.159ZM1469.15 297.1C1450.6 344.114 1443.25 389.785 1437.34 435.188C1433.84 471.904 1430.89 508.531 1421.3 543.456C1411.89 578.381 1401.85 578.381 1390.92 578.381C1375.87 578.381 1359.65 578.381 1341.55 626.022C1323.63 673.753 1326.68 719.245 1331.43 764.916C1336.17 801.453 1341.91 838.438 1331.69 872.736C1320.94 906.497 1301.95 905.781 1281.79 904.975C1254.72 903.184 1226.41 901.572 1201.77 942.676C1174.08 980.646 1180.44 1018.88 1186.63 1055.51C1190.75 1083.18 1195.32 1110.32 1167.9 1127.42C1139.31 1143.36 1104.55 1135.39 1069.51 1128.14C1025.88 1120.52 981.701 1113.27 935.466 1132.7C888.782 1151.87 888.782 1173.54 889.23 1193.69C889.409 1209 889.409 1222.97 854.284 1232.46C819.249 1241.87 782.064 1240.26 745.236 1239.54C699.449 1239.99 653.482 1241.87 605.992 1259.87C558.86 1278.4 558.95 1289.78 559.308 1299.54C559.487 1306.79 559.756 1312.61 525.259 1322.55C535.115 1322.28 545.151 1322.1 555.007 1321.84C602.139 1310.64 602.139 1303.57 601.691 1294.88C601.422 1287.09 601.243 1278.22 636.188 1266.14C671.224 1254.23 707.961 1252.88 745.057 1252.7C790.845 1253.69 836.274 1256.11 883.943 1245.45C931.254 1234.7 931.702 1217.42 931.344 1198.61C931.165 1182.58 931.075 1165.3 965.393 1152.49C999.264 1139.51 1035.37 1145.87 1071.04 1152.94C1114.49 1161.81 1157.06 1171.93 1196.66 1153.21C1232.14 1130.38 1226.59 1097.06 1219.96 1061.42C1214.04 1030.88 1208.58 1000.17 1227.49 971.87C1245.05 942.586 1267.72 943.84 1289.31 945.362C1315.21 947.153 1338.86 948.497 1351.32 902.825C1362.97 856.08 1355.44 810.319 1349.44 765.095C1345.58 728.29 1342.63 691.395 1354.45 656.201C1366.28 621.007 1379.18 621.097 1391.01 621.097C1404.54 620.918 1416.46 620.918 1427.21 573.634C1438.41 526.53 1441.37 480.77 1445.94 435.546C1450.51 398.562 1456.24 361.845 1468.34 327.279C1468.61 317.249 1468.79 307.398 1469.06 297.1H1469.15ZM1471.66 205.041C1447.01 251.876 1437.07 297.548 1427.93 343.577C1422.02 380.293 1417 416.92 1403.02 451.845C1389.22 486.77 1376.68 486.77 1363.41 487.038C1345.85 486.411 1326.59 486.591 1302.39 534.321C1278.56 581.873 1278.83 627.455 1280.44 673.574C1282.68 709.932 1286.18 746.827 1271.75 781.304C1256.88 815.334 1235.55 814.886 1213.15 814.349C1183.58 812.558 1152.76 811.393 1123.54 854.02C1091.74 893.96 1096.3 933.273 1100.87 971.601C1104.1 1000.62 1107.95 1029.18 1079.1 1049.42C1049.35 1068.59 1014.32 1062.67 978.744 1057.57C934.838 1052.29 890.484 1047.72 843.98 1073.06C797.117 1097.78 797.117 1122.58 797.117 1145.6C797.565 1163.15 797.565 1179.63 762.53 1193.51C727.495 1207.39 690.488 1208.11 653.392 1209.72C607.605 1213.12 561.907 1217.78 514.506 1241.96C467.195 1266.4 467.195 1280.73 467.375 1293.27C467.823 1302.67 468.091 1310.82 433.325 1325.06C443.45 1324.79 453.486 1324.61 463.522 1324.34C510.474 1306.97 510.384 1297.12 510.026 1285.84C509.847 1275.54 509.578 1264.79 544.344 1247.96C579.379 1231.57 616.565 1227.9 653.482 1225.39C699.001 1223.51 744.788 1223.06 792.547 1206.4C839.948 1189.66 839.858 1169.42 839.948 1147.93C839.679 1129.21 839.321 1109.78 873.818 1092.94C908.047 1075.57 944.426 1079.51 980.357 1084.53C1023.99 1090.88 1067.27 1098.67 1108.22 1075.12C1145.59 1048.35 1140.75 1013.06 1135.91 976.078C1131.52 944.735 1127.22 913.034 1149.17 883.393C1170.23 853.035 1194.87 853.751 1218.61 855.005C1246.84 856.438 1273.09 857.333 1291.37 811.573C1308.94 764.737 1304.19 718.887 1301.23 673.484C1299.8 636.768 1298.9 599.963 1315.21 564.769C1331.6 529.665 1346.75 529.575 1361 529.575C1377.21 529.575 1392.09 529.575 1408.75 482.113C1425.96 434.83 1431.87 389.248 1439.4 343.756C1446.21 306.95 1454.27 270.413 1470.94 235.757C1471.21 225.727 1471.39 215.25 1471.66 205.22V205.041ZM1472.82 114.146C1442.36 160.982 1429.63 206.563 1418.34 251.876C1410.28 288.413 1403.02 325.129 1384.65 360.144C1366.37 395.069 1351.5 395.069 1335.73 395.338C1314.94 395.338 1292.72 395.606 1262.52 443.069C1232.59 490.71 1230.26 536.202 1229.28 581.694C1229.46 618.231 1230.62 655.037 1211.89 689.962C1192.72 724.17 1169.33 723.543 1144.69 723.275C1112.43 722.29 1079.1 721.215 1045.23 765.095C1009.3 806.916 1012.53 847.483 1015.66 887.064C1017.99 917.601 1020.32 947.511 990.214 970.795C959.3 993.183 924.176 989.332 888.692 986.108C844.338 983.332 799.805 981.362 753.122 1012.35C705.99 1042.88 705.811 1070.29 706.08 1096.44C705.9 1116.5 705.811 1135.48 670.596 1153.75C635.561 1172.02 599.003 1174.97 562.265 1178.82C516.477 1184.73 471.048 1192.26 423.648 1222.26C376.337 1252.61 376.247 1269.99 376.247 1285.66C375.978 1297.57 375.978 1308.49 340.854 1326.94C351.158 1326.76 361.194 1326.67 371.05 1326.31C418.182 1303.21 418.182 1290.4 418.361 1275.81C418.182 1263.27 418.54 1249.75 453.396 1228.7C488.611 1208.11 524.811 1202.2 561.996 1197.45C607.336 1192.97 653.034 1189.66 700.614 1166.82C748.014 1144.17 748.193 1120.97 748.373 1096.26C748.104 1075.3 748.373 1053.54 782.87 1032.32C817.188 1010.65 853.478 1013.06 889.678 1015.66C933.584 1019.51 977.042 1024.79 1019.33 996.675C1058.85 965.69 1055.27 928.706 1051.86 890.288C1048.64 858.139 1045.95 825.184 1071.04 794.379C1095.32 762.857 1121.84 763.752 1147.83 764.289C1178.74 765.185 1207.68 766.17 1231.52 719.961C1254.9 672.947 1253.2 626.828 1252.75 581.784C1253.47 545.247 1255.08 508.441 1275.78 473.068C1296.57 437.964 1314.22 438.143 1330.89 437.875C1350.33 437.427 1367.98 437.606 1390.83 390.323C1413.95 343.04 1422.82 296.921 1432.68 252.145C1441.82 215.429 1451.67 178.623 1472.55 143.967C1472.73 134.116 1472.82 124.266 1473 114.236L1472.82 114.146ZM1469.33 27.8188C1433.4 74.5646 1419.51 118.176 1406.25 162.594C1396.66 198.414 1387.7 234.682 1365.03 269.608C1342.45 304.533 1324.62 304.98 1305.98 305.697C1281.96 306.145 1255.71 307.488 1219.96 354.592C1184.3 401.696 1180.17 446.382 1176.68 491.337C1175.07 527.605 1173.99 564.142 1151.14 599.067C1127.85 633.365 1102.13 633.276 1075.16 633.097C1040.57 632.649 1004.28 632.201 966.11 677.156C926.505 720.499 928.208 762.319 929.91 802.976C931.254 834.766 932.688 866.02 901.327 892.437C869.338 918.228 834.124 915.989 798.372 914.646C754.286 914.198 710.022 914.198 663.249 950.467C616.386 986.735 615.848 1017.63 615.669 1047C615.221 1069.57 614.504 1091.24 579.559 1113.9C544.523 1136.55 508.503 1141.3 472.123 1146.76C427.501 1155.18 383.326 1164.14 336.194 1199.78C289.152 1235.6 287.718 1257.27 286.822 1276.52C285.926 1291.39 285.03 1305.27 250.174 1327.93C260.3 1328.1 270.514 1327.93 280.192 1327.75C327.592 1298.73 327.592 1282.7 328.04 1264.88C328.936 1249.3 329.563 1233.09 364.151 1207.75C399.186 1182.85 435.475 1175.15 471.407 1168.88C516.657 1161.99 562.176 1155.9 609.755 1127.15C657.066 1098.32 657.156 1072.35 657.156 1044.5C657.783 1020.94 657.783 996.586 692.191 971.153C726.778 945.81 763.068 945.81 798.551 946.526C843.353 948.318 887.259 951.094 930.717 918.228C972.114 883.303 969.605 844.706 967.365 805.035C965.483 771.633 964.139 738.319 992.006 706.171C1019.51 673.574 1048.28 673.753 1076.14 674.38C1109.84 674.648 1141.73 675.096 1171.12 628.529C1200.34 581.336 1201.23 535.665 1203.2 491.158C1205.89 454.8 1209.21 418.621 1234.12 383.606C1259.12 348.681 1279.63 348.055 1298.9 347.517C1321.84 346.443 1342.81 346.353 1371.57 299.07C1400.42 251.608 1411.8 206.295 1423.54 162.056C1434.29 125.967 1445.76 90.3257 1470.94 55.8484C1470.67 46.4455 1470.22 36.6844 1469.15 27.8188H1469.33ZM1454.63 -47.0462C1413.86 -1.37495 1401.14 38.1172 1388.5 79.4004C1378.02 113.699 1368.34 148.265 1341.64 183.011C1314.85 217.31 1293.61 219.101 1272.11 220.892C1242.9 223.22 1211.98 226.533 1171.21 272.652C1130.71 318.771 1125.87 360.95 1121.57 404.203C1118.17 439.397 1115.84 474.949 1089.05 509.695C1061.81 543.903 1033.49 544.351 1004.19 544.62C966.648 544.888 927.76 545.336 886.004 590.47C843.442 634.798 843.98 676.977 844.428 718.797C845.055 751.663 845.772 784.17 813.515 813.543C780.63 842.109 745.326 841.662 709.843 841.841C666.564 842.736 623.196 843.901 577.408 885.005C531.441 925.84 529.828 960.855 528.216 993.989C527.499 1019.51 526.423 1044.05 491.836 1071C457.07 1097.69 421.856 1103.6 386.821 1110.32C344.975 1118.82 303.757 1127.6 257.791 1168.08C211.645 1208.91 207.523 1236.31 203.58 1260.85C201.788 1279.39 199.727 1296.85 165.14 1323.63C173.653 1324.79 182.703 1325.87 192.111 1326.13C239.243 1291.48 241.035 1271.06 243.544 1248.67C245.336 1229.51 247.397 1209.36 281.715 1180.35C316.033 1151.33 350.531 1143.36 385.297 1135.84C428.934 1127.87 472.84 1120.08 520.241 1085.6C567.193 1050.94 568.269 1021.48 569.254 989.869C569.971 963.631 570.688 936.407 604.737 907.213C638.966 878.02 674.449 876.676 710.112 876.139C754.018 875.96 797.924 876.855 842.367 839.423C885.556 800.647 884.391 760.797 883.316 719.514C882.42 685.484 881.972 651.455 912.617 618.768C942.813 585.634 973.727 585.455 1003.65 585.366C1040.21 585.366 1074.8 585.187 1109.75 538.53C1144.69 491.516 1147.47 446.919 1151.32 402.95C1155.26 367.756 1159.74 332.92 1188.6 298.443C1217.63 264.145 1241.46 262.354 1263.86 260.831C1290.84 259.04 1315.83 257.608 1350.33 210.414C1384.92 163.131 1397.37 119.788 1410.01 77.1616C1421.48 42.6843 1432.86 9.37122 1461.89 -24.6583C1459.56 -32.0015 1457.32 -39.4343 1454.81 -47.0462H1454.63ZM1420.04 -102.299C1375.69 -58.6878 1366.55 -25.1061 1356.25 10.4458C1348.72 39.7291 1339.58 71.4303 1309.2 105.37C1278.83 139.131 1253.83 142.176 1226.86 146.922C1192.36 151.937 1155.89 157.668 1111.54 201.459C1067.36 245.25 1063.33 283.846 1059.12 323.428C1056.43 356.114 1053.56 390.502 1023.01 424.352C992.543 458.113 961.451 458.561 929.462 459.904C889.23 461.068 847.833 461.785 803.658 505.844C759.483 549.724 759.483 591.724 759.483 634.171C759.483 668.022 759.484 701.693 726.599 733.036C693.625 764.289 658.948 764.916 624.809 765.274C582.964 766.797 542.194 768.409 498.377 812.737C454.651 857.065 451.425 896.109 448.558 933.542C445.78 963.183 443.809 991.123 409.938 1021.48C376.068 1051.84 343.362 1058.02 312.27 1063.03C274.278 1070.29 238.347 1077 194.709 1121.42C150.983 1165.75 142.56 1199.33 135.481 1230.76C129.03 1255.66 124.908 1277.51 90.8585 1307.87C98.4749 1310.37 105.912 1312.7 113.26 1315.12C159.495 1275.18 164.513 1249.12 168.814 1221.72C174.728 1196.37 180.462 1170.58 213.437 1138.79C246.321 1106.64 276.339 1100.29 307.162 1094.91C348.291 1086.5 389.24 1078.7 435.744 1039.03C481.89 999.272 484.31 965.332 486.012 930.318C488.521 900.139 490.582 869.333 523.287 837.184C556.441 805.214 589.863 803.692 623.733 802.886C667.012 801.543 709.753 801.005 754.824 759.812C798.909 717.812 798.909 676.529 798.551 634.44C798.372 600.142 798.372 565.754 830.808 533.247C862.886 500.381 895.95 499.934 928.477 499.217C967.365 498.59 1005.27 497.874 1044.96 451.934C1084.93 405.547 1088.6 362.651 1093.62 320.831C1096.75 288.413 1100.52 256.443 1132.33 223.399C1164.4 190.355 1192.72 186.862 1220.41 182.564C1251.5 179.34 1281.43 175.758 1321.03 129.639C1360.91 83.2511 1372.46 43.0425 1385.01 3.55037C1393.25 -25.2852 1401.76 -54.0312 1433.93 -86.6279C1429.99 -92.3591 1425.87 -98.0904 1419.95 -102.12L1420.04 -102.299ZM1359.83 -131.672C1313.68 -91.9114 1308.85 -65.7624 1304.45 -38.4492C1298.54 -13.1062 1292.81 12.6846 1259.92 44.6545C1226.95 76.4452 1196.75 82.8033 1166.2 88.5346C1125.25 96.9525 1083.94 104.743 1037.61 144.415C991.379 184.176 989.138 217.936 987.257 253.13C984.748 283.219 982.687 314.025 949.892 346.084C916.918 378.054 883.406 379.577 849.715 380.562C806.436 381.905 763.426 382.353 718.624 423.725C674.449 465.725 674.539 506.829 674.718 549.097C674.718 583.306 674.897 617.604 642.64 650.201C610.382 683.066 577.229 683.514 544.703 684.23C505.815 684.678 468.091 685.395 427.859 731.334C388.254 777.901 384.222 820.349 379.652 862.617C376.426 894.855 372.753 927.004 340.943 960.049C308.955 993.093 280.55 996.765 252.863 1001.06C221.591 1004.2 191.573 1007.69 152.148 1053.99C112.184 1100.38 100.715 1140.32 88.0808 1179.81C80.0165 1208.82 71.4144 1237.39 39.3362 1270.25C43.1892 1275.9 47.3109 1281.45 53.3145 1285.75C97.6683 1241.87 106.987 1208.37 117.292 1172.91C124.639 1143.63 133.779 1111.93 164.155 1077.99C194.62 1044.14 219.53 1041.18 246.68 1036.44C281.177 1031.42 317.557 1025.51 362 981.899C406.175 938.109 410.207 899.691 414.329 859.572C417.017 826.886 419.974 792.677 450.439 758.916C481.084 725.155 511.908 724.618 544.165 723.364C584.577 722.379 625.794 721.484 669.969 677.514C714.144 633.634 714.144 591.455 714.502 549.187C714.323 515.336 714.233 481.576 747.029 450.143C780.182 418.89 814.68 418.352 848.819 417.726C890.664 416.382 931.434 414.591 974.891 370.263C1018.8 325.935 1022.02 286.891 1024.8 249.279C1027.76 219.817 1029.82 191.966 1063.51 161.519C1097.56 131.161 1130.35 125.251 1161.18 119.967C1199.17 112.893 1235.01 106.087 1278.56 61.7588C1322.29 17.4308 1330.89 -16.1509 1337.97 -47.5835C1344.42 -72.6578 1348.72 -94.4188 1382.41 -124.777C1375.06 -127.105 1367.72 -129.523 1360.01 -131.851L1359.83 -131.672ZM1281.34 -143.045C1234.38 -108.299 1232.59 -88.0607 1230.08 -65.6728C1228.29 -46.5088 1226.14 -26.0016 1191.82 3.01306C1157.59 31.8486 1123.01 39.7291 1088.24 47.341C1044.96 55.4902 1000.7 63.1021 953.476 97.7584C906.344 132.236 905.448 161.877 904.284 193.399C903.567 219.638 902.671 246.861 868.621 276.234C834.572 305.607 798.909 306.413 763.605 307.309C719.699 307.309 675.704 306.771 631.171 344.114C587.892 382.711 589.326 422.651 590.401 464.024C591.118 497.874 591.386 531.904 560.921 564.679C530.545 597.724 499.811 598.082 469.615 597.992C433.415 597.813 398.648 598.172 363.434 644.828C328.667 691.932 325.711 736.17 322.037 780.409C318.184 815.96 313.793 850.527 285.03 885.184C255.909 919.392 231.985 921.183 209.494 922.616C182.703 924.228 157.524 926.019 123.026 973.123C88.26 1020.23 76.1633 1063.39 63.35 1106.29C51.8807 1140.76 40.501 1174.08 11.3796 1208.11C13.8885 1215.81 16.2184 1223.33 18.4585 1230.49C59.5867 1184.82 72.2208 1145.15 84.7654 1103.96C95.249 1069.66 104.926 1035.09 131.718 1000.53C158.51 965.78 179.477 964.168 201.071 962.556C230.372 960.228 261.375 956.914 302.234 910.974C342.646 864.676 347.484 822.587 351.875 779.424C354.832 743.782 357.341 708.23 384.132 673.753C411.372 639.455 439.776 639.007 468.987 638.649C506.89 638.38 545.599 638.022 587.444 592.978C630.006 548.65 629.558 506.471 629.289 464.74C628.662 431.695 627.676 399.188 659.933 369.995C692.639 341.159 728.481 341.696 763.784 341.607C806.974 340.622 850.521 339.368 895.95 298.443C941.917 257.518 943.53 222.235 945.322 189.101C946.308 163.758 947.204 139.31 981.881 112.445C1016.65 85.5794 1052.04 79.5795 1086.72 72.684C1128.74 64.2662 1169.96 55.7588 1215.93 15.1025C1262.07 -25.7329 1266.28 -52.9565 1269.96 -78.0309C1272.02 -96.2994 1273.9 -113.672 1308.22 -140.538C1299.71 -141.523 1291.1 -142.777 1281.43 -143.045H1281.34ZM1193.08 -144.836C1146.04 -115.643 1146.39 -99.8815 1145.5 -81.8816C1144.78 -66.1206 1143.88 -49.7327 1109.12 -24.5688C1074.17 0.326523 1038.15 7.84885 1002.13 14.2965C957.239 21.1024 911.273 27.2815 863.783 56.117C816.203 84.6839 816.472 110.743 816.024 138.594C815.755 162.146 815.307 186.593 780.809 212.116C746.312 237.727 710.201 237.279 674.628 236.742C630.275 234.951 585.831 231.996 542.642 265.22C501.066 299.965 503.754 338.473 505.994 378.502C507.786 411.636 509.13 445.397 481.263 477.367C453.755 509.874 424.813 509.337 396.856 508.889C363.255 508.441 331.624 507.993 301.697 554.56C272.486 601.664 271.5 647.067 269.708 692.201C267.199 728.469 263.794 765.006 238.884 800.02C213.705 834.945 193.365 835.214 173.742 835.841C150.893 836.736 129.836 836.826 101.252 884.467C72.2208 931.75 60.9307 977.153 48.9238 1021.39C38.3505 1057.3 26.7916 1093.39 1.61292 1128.23C1.88171 1137.54 2.32971 1146.76 3.58423 1155.81C39.5154 1108.79 53.4937 1065 66.4862 1020.85C76.2531 984.765 85.0342 948.765 107.883 913.84C130.553 878.915 148.295 878.199 166.843 877.751C191.125 876.855 217.379 875.87 253.221 828.677C288.883 781.483 293.005 736.708 296.41 691.932C298.202 655.395 298.74 619.037 321.858 584.381C345.244 550.082 371.229 549.903 398.021 550.351C432.967 550.53 468.898 550.978 507.159 506.292C546.764 462.859 545.061 420.949 543.359 380.472C542.194 348.502 540.581 317.249 571.942 290.921C603.931 265.309 639.414 267.19 674.897 268.712C719.072 268.981 763.426 268.981 809.841 232.623C856.704 196.534 857.6 165.459 857.6 136.266C858.496 113.878 858.765 92.1167 893.8 69.3706C928.835 46.7141 965.214 42.147 1001.06 36.3262C1045.95 27.9083 1090.03 19.2219 1136.99 -16.5987C1184.03 -52.5983 1185.91 -74.0907 1186.63 -93.5233C1187.34 -108.389 1188.24 -122.09 1223 -144.926C1213.42 -145.105 1203.29 -144.926 1192.99 -144.747L1193.08 -144.836ZM1102.22 -143.314C1055.27 -120.031 1055.54 -107.314 1055.27 -92.8965C1055.09 -80.2697 1055 -66.6579 1020.23 -45.6133C985.196 -25.0165 948.369 -19.1957 911.631 -14.539C866.381 -9.79279 820.414 -6.56894 772.745 16.2667C725.344 39.0127 725.434 62.2065 725.344 86.7436C725.344 107.788 725.076 129.639 690.578 150.952C656.26 172.623 619.97 170.385 584.218 167.788C540.133 163.847 496.317 158.474 454.292 186.952C414.687 217.757 418.182 254.563 421.766 292.891C424.813 325.309 427.501 358.174 402.501 389.159C378.039 420.681 351.337 419.696 325.621 418.89C294.887 417.815 265.855 417.009 241.662 463.218C218.275 510.232 219.978 556.082 220.426 601.395C219.709 638.111 218.186 675.186 197.577 710.469C176.699 745.484 159.316 745.484 142.47 745.484C123.205 745.752 105.195 745.663 82.5253 793.214C59.4075 840.498 50.5366 886.169 40.6802 931.392C31.5406 968.198 21.4153 1004.91 0.447998 1039.84C0.268799 1049.6 0.179321 1059.54 0.00012207 1069.48C30.6447 1022.47 43.458 976.974 54.8376 931.571C62.902 894.766 69.9807 858.229 88.5287 823.304C106.629 788.11 121.772 788.11 137.273 788.11C158.33 788.11 180.552 787.841 210.749 740.379C240.676 692.738 243.006 647.156 243.902 601.575C243.723 564.769 242.379 527.874 261.285 493.396C280.55 459.098 304.026 459.367 328.578 460.083C361.015 460.979 394.437 461.874 428.307 418.084C464.059 376.263 461.013 335.428 457.876 296.204C455.636 265.667 453.038 235.668 483.055 212.384C513.969 189.817 549.541 193.847 584.666 197.071C629.289 199.757 674.091 201.817 720.506 170.653C767.637 140.027 767.637 112.445 767.189 86.3854C767.637 66.505 767.817 47.6096 802.673 29.2516C837.887 10.9831 874.714 8.20705 911.273 4.35634C957.239 -1.82271 1002.76 -9.34502 1050.16 -39.4343C1097.47 -69.7922 1097.56 -87.0756 1097.29 -102.837C1097.47 -114.747 1097.47 -125.672 1132.33 -143.941C1122.47 -143.762 1112.43 -143.493 1102.13 -143.314H1102.22ZM1009.84 -140.986C963.153 -123.613 963.601 -113.851 963.601 -102.389C963.87 -92.5382 964.049 -81.3443 929.104 -64.6878C894.158 -48.2999 857.062 -44.9865 820.056 -42.1208C774.537 -40.3298 728.391 -39.7925 680.811 -22.9568C633.231 -6.30028 633.679 13.8488 633.679 35.6993C633.859 54.1469 633.679 73.4005 599.361 90.6839C565.312 107.967 528.932 103.669 493.18 99.1017C449.722 92.654 405.817 84.863 365.316 108.505C327.592 135.37 332.61 170.205 337.449 207.369C342.019 238.712 345.961 270.593 323.918 300.055C302.951 330.592 278.131 329.338 254.386 328.174C226.429 326.831 199.907 325.846 181.448 371.786C164.065 418.8 168.635 464.203 171.771 509.695C173.384 546.68 174.011 583.485 157.793 618.768C141.395 653.962 126.252 653.962 112.095 653.783C95.7866 653.962 80.7333 653.962 64.2461 701.514C47.0421 748.797 40.9491 794.2 33.6016 839.423C26.5228 876.587 18.7273 913.392 1.97131 948.049C1.70251 958.526 1.34412 968.377 1.07532 978.407C25.806 931.392 36.1105 885.721 44.802 839.781C50.8055 803.065 55.8234 766.439 69.9807 731.603C83.7798 696.589 96.2347 696.409 109.496 696.409C127.417 696.857 146.503 696.678 170.606 648.947C194.441 601.306 194.351 555.724 192.738 509.963C190.229 472.979 186.735 436.263 201.161 401.696C216.214 367.845 237.54 368.293 260.12 369.189C289.69 370.621 320.334 371.875 349.724 329.249C381.713 289.309 376.964 249.996 372.573 211.936C369.348 182.743 365.674 154.176 394.347 133.937C424.275 114.952 459.489 120.863 494.704 125.967C538.789 131.161 583.412 135.728 629.468 110.206C676.51 85.3108 676.51 60.8633 676.152 37.6694C676.331 20.2965 675.973 3.63992 711.187 -10.0614C746.222 -23.9419 783.408 -24.6583 820.056 -26.4493C866.023 -29.6732 911.81 -34.5985 959.3 -58.6878C1006.7 -83.1354 1006.61 -97.2845 1005.98 -110.09C1005.98 -119.493 1005.54 -127.732 1040.3 -141.792C1030.45 -141.523 1020.41 -141.165 1009.93 -141.075L1009.84 -140.986ZM918.172 -138.747C871.309 -127.374 871.488 -120.299 871.937 -111.792C871.937 -104.001 872.205 -94.9561 837.349 -82.9563C802.314 -71.1355 765.128 -69.9713 728.66 -69.5235C682.872 -70.5086 637.084 -73.0161 589.415 -62.2699C541.835 -51.6133 542.015 -34.2403 542.104 -15.5241C542.283 0.863831 542.104 17.789 507.965 30.774C474.274 43.8485 437.984 37.4008 402.322 30.3262C359.043 21.4606 316.033 11.3413 276.518 30.1471C241.035 52.9827 246.949 86.3854 253.221 121.758C259.135 152.116 264.421 182.922 245.694 211.22C227.863 240.593 205.283 239.25 183.509 237.727C157.703 236.115 133.958 234.503 121.503 280.354C109.675 327.01 117.202 372.771 123.295 417.994C127.238 454.979 130.374 491.784 118.725 527.157C106.539 562.082 93.6362 562.082 81.8981 562.172C68.4575 562.441 56.2712 562.351 45.698 609.813C34.4976 656.917 31.451 702.499 26.9708 747.901C22.2218 784.707 16.8456 821.423 4.30103 855.9C4.12183 866.199 3.85303 876.049 3.58423 886.079C22.401 839.065 29.8383 793.662 35.5729 748.349C39.2466 711.544 42.0243 674.828 51.7911 640.082C61.11 604.888 71.2352 604.888 82.1669 605.067C97.2203 605.246 113.439 604.888 131.628 557.336C149.46 509.605 146.234 463.934 141.485 418.531C136.825 381.547 131.001 344.741 141.216 310.353C152.148 276.772 171.144 277.309 191.304 278.384C218.723 280.175 246.859 281.607 271.411 240.503C299.277 202.534 292.916 164.295 286.733 127.937C282.88 100.266 278.22 72.8631 305.729 55.8484C334.312 39.9082 369.258 48.0574 403.845 55.132C447.93 62.9229 492.105 69.9975 537.893 50.3857C584.756 31.2217 584.756 9.72943 584.128 -10.5987C584.397 -25.6434 584.397 -39.9716 619.522 -49.3745C654.736 -58.6878 691.653 -56.8968 728.122 -56.449C774.358 -56.8968 820.056 -58.6878 867.456 -76.7772C914.767 -95.3143 914.588 -106.687 914.05 -116.448C914.23 -123.523 913.871 -129.702 948.548 -139.463C938.691 -139.195 928.656 -138.836 918.351 -138.747H918.172ZM826.955 -137.583C780.272 -131.941 780.092 -127.374 780.092 -121.463C780.272 -115.732 780.361 -109.105 745.595 -101.404C710.649 -93.8815 673.553 -95.0457 636.905 -97.2845C591.207 -101.404 545.688 -106.866 498.109 -102.031C450.35 -97.4636 450.35 -82.6876 450.529 -66.6579C450.529 -52.5088 450.529 -37.8224 416.479 -29.4045C382.788 -20.4494 346.678 -29.1359 311.284 -38.2701C268.453 -49.7327 225.712 -62.6281 187.541 -48.2999C153.94 -29.4045 160.839 2.11755 168.993 36.2366C176.072 65.6095 182.882 95.6092 167.201 122.475C152.596 150.594 132.166 148.982 112.274 147.191C88.9768 144.952 67.9198 143.967 60.8411 189.369C54.9272 235.936 65.411 281.16 74.6403 326.562C80.8229 363.278 86.1095 400.084 78.9412 435.546C71.4144 470.65 60.8412 470.65 51.2535 470.65C40.3219 470.919 30.9135 471.367 26.1644 519.098C20.8778 566.291 20.9673 611.156 19.5337 656.111C17.4728 692.917 14.2471 729.633 6.09302 764.11C5.91382 774.409 5.64514 784.259 5.46594 794.2C18.2793 747.364 22.5803 701.783 25.6268 656.29C26.9708 619.933 27.2396 583.396 32.5262 548.56C37.3649 513.366 45.3397 513.366 54.0312 512.919C66.2174 513.366 79.4788 512.919 91.7545 465.456C103.672 417.726 97.4891 372.144 90.1416 326.652C82.7942 289.846 74.6401 253.13 80.554 218.921C87.1847 185.519 104.12 186.235 122.399 187.131C147.04 189.369 172.936 191.429 192.828 151.579C216.573 115.49 208.329 78.5049 201.071 43.5798C195.874 17.0726 190.409 -8.71817 216.573 -22.7777C244.171 -35.3149 278.579 -25.2852 313.255 -16.1509C356.445 -5.85251 400.799 3.99814 446.318 -9.97188C493.001 -23.0464 492.732 -41.9417 492.553 -59.1356C492.553 -72.1205 492.732 -84.0309 527.768 -89.2249C562.982 -94.0606 599.988 -89.8517 636.457 -86.8965C682.245 -84.3891 728.212 -83.3145 775.702 -95.4039C822.833 -107.941 822.565 -116.448 822.117 -123.523C822.296 -128.538 822.117 -132.478 856.704 -137.762C846.847 -137.583 836.991 -137.583 826.776 -137.583H826.955Z" stroke="#403730" stroke-opacity="0.12" stroke-width="3" mask="url(#path-1-inside-1_37_2343)"/>
</svg>
