<svg width="70" height="70" fill="none" xmlns="http://www.w3.org/2000/svg"><g clip-path="url(#clip0)" fill="#151F59"><path d="M17.557 51.93a16.064 16.064 0 00-5.42 12.027v5.01a1.033 1.033 0 102.065 0v-5.01c0-4.007 1.722-7.827 4.723-10.48a1.033 1.033 0 10-1.368-1.547zm32.121-1.89l-9.71-5.587v-1.636a12.15 12.15 0 003.317-2.21 1.033 1.033 0 10-1.41-1.508 10.037 10.037 0 01-6.874 2.714c-5.555 0-10.074-4.519-10.074-10.074V21.562l2.683-.744a6.418 6.418 0 013.253-.044l2.567.636a8.413 8.413 0 005.237-.378 6.425 6.425 0 013.16-.43l3.247.379v10.758c0 1.428-.295 2.81-.877 4.11a1.032 1.032 0 101.885.844 12.044 12.044 0 001.058-4.954v-.872h.598a3.67 3.67 0 003.666-3.666 3.66 3.66 0 00-1.373-2.857l1.028-3.854a5.675 5.675 0 002.476-3.06 5.653 5.653 0 00-2.415-6.65l-2.111-1.294-.04-.133a9.35 9.35 0 00-9.432-6.671 1.542 1.542 0 01-.74-.148L35.662 1.04a10.536 10.536 0 00-9.408.138 10.536 10.536 0 00-5.601 7.555l-2.51 2.292a6.306 6.306 0 00-1.047 8.106 6.336 6.336 0 002.008 1.965l.867 3.247a3.66 3.66 0 00-1.373 2.857 3.67 3.67 0 003.666 3.666h.598v.872c0 4.87 2.884 9.08 7.034 11.012v1.702l-8.292 4.771a1.033 1.033 0 001.03 1.79l7.32-4.212a5.044 5.044 0 004.978 4.267 5.044 5.044 0 004.977-4.267l8.74 5.029a14.027 14.027 0 017.012 12.126v5.01a1.033 1.033 0 102.065 0v-5.01c0-5.727-3.084-11.06-8.048-13.916zm-1.94-21.238h-.598V25.6h.598a1.602 1.602 0 010 3.202zm.367-5.248a3.648 3.648 0 00-.367-.019h-.598v-2.313l.352.041c.412.048.821.05 1.222.009l-.61 2.282zm-28.57-11.002l2.768-2.528c.167-.153.28-.356.32-.58l.061-.338a8.486 8.486 0 014.512-6.09 8.529 8.529 0 013.9-.949c1.251 0 2.504.28 3.678.839l3.135 1.492a3.622 3.622 0 001.728.347 7.292 7.292 0 017.354 5.2l.153.511c.073.243.233.451.45.584l2.447 1.5a3.598 3.598 0 011.537 4.233 3.63 3.63 0 01-3.846 2.44l-5.664-.663a8.483 8.483 0 00-4.18.57 6.36 6.36 0 01-3.96.286l-2.567-.637a8.484 8.484 0 00-4.303.06l-3.511.974c-1.805.5-3.7-.22-4.717-1.792a4.247 4.247 0 01.705-5.46zm1.936 9.404a6.259 6.259 0 001.391.051v1.528h-.598c-.124 0-.246.006-.367.018l-.426-1.597zm.793 6.846a1.601 1.601 0 010-3.202h.598v3.202h-.598zm12.668 20.201a2.975 2.975 0 01-2.971-2.97v-2.54a12.154 12.154 0 005.943.034v2.505a2.975 2.975 0 01-2.972 2.971z"/><path d="M67.13 37.377l-4.388-4.363a1.348 1.348 0 00-1.896 0l-4.387 4.363a1.34 1.34 0 00-.295 1.466 1.34 1.34 0 001.243.832h1.335a11.062 11.062 0 01-2.133 5.92l-.462.63a1.412 1.412 0 001.14 2.25c.208 0 .417-.046.614-.14l1.69-.814a9.305 9.305 0 005.223-7.846h1.368a1.34 1.34 0 001.243-.832 1.34 1.34 0 00-.295-1.466zm-3.335.233c-.57 0-1.033.462-1.033 1.032v.545a7.228 7.228 0 01-3.583 6.216 13.111 13.111 0 001.648-6.391v-.37c0-.57-.463-1.033-1.033-1.033h-.64l2.64-2.626 2.641 2.626h-.64zM61.7 31.247c4.463 0 8.094-3.631 8.094-8.095s-3.631-8.095-8.095-8.095-8.095 3.631-8.095 8.095 3.631 8.095 8.095 8.095zm0-14.125a6.037 6.037 0 016.029 6.03 6.037 6.037 0 01-6.03 6.03 6.037 6.037 0 01-6.03-6.03 6.037 6.037 0 016.03-6.03zM13.801 47.964a1.41 1.41 0 00.054-1.739l-.462-.63a11.061 11.061 0 01-2.133-5.92h1.335a1.34 1.34 0 001.243-.832 1.34 1.34 0 00-.295-1.466l-4.387-4.363a1.348 1.348 0 00-1.896 0l-4.388 4.363a1.34 1.34 0 00-.295 1.466 1.34 1.34 0 001.243.832h1.368a9.305 9.305 0 005.224 7.846l1.689.813a1.413 1.413 0 001.7-.37zm-2.978-2.561a7.228 7.228 0 01-3.583-6.216v-.545c0-.57-.462-1.032-1.033-1.032h-.64l2.64-2.626 2.642 2.626h-.641c-.57 0-1.033.462-1.033 1.032v.37c0 2.261.566 4.442 1.648 6.391zm-2.52-14.156c4.463 0 8.095-3.631 8.095-8.095s-3.632-8.095-8.095-8.095a8.033 8.033 0 00-3.282.695 1.032 1.032 0 10.838 1.887 5.983 5.983 0 012.444-.517 6.037 6.037 0 016.03 6.03 6.037 6.037 0 01-6.03 6.03 6.037 6.037 0 01-6.03-6.03 6.03 6.03 0 01.763-2.936 1.033 1.033 0 10-1.803-1.008 8.1 8.1 0 00-1.025 3.944c0 4.464 3.63 8.095 8.095 8.095z"/><path d="M7.29 26.776c.265 0 .529-.1.73-.302l4.029-4.029a1.033 1.033 0 00-1.46-1.46L7.29 24.283l-.445-.446a1.033 1.033 0 00-1.46 1.46l1.175 1.177c.202.201.466.302.73.302zm51.551-.607a1.03 1.03 0 001.46-.047l1.324-1.41 1.325 1.41a1.03 1.03 0 001.46.047c.415-.39.436-1.044.045-1.46l-1.413-1.506 1.413-1.506a1.033 1.033 0 10-1.505-1.413l-1.325 1.41-1.324-1.41a1.033 1.033 0 10-1.506 1.413l1.414 1.506-1.414 1.506c-.39.416-.37 1.07.046 1.46z"/></g><defs><clipPath id="clip0"><path fill="#fff" d="M0 0h70v70H0z"/></clipPath></defs></svg>