<svg width="71" height="71" fill="none" xmlns="http://www.w3.org/2000/svg"><g clip-path="url(#clip0)" fill="#151F59"><path d="M70.675 34.716l-3.328-3.329-1.569 1.57 1.435 1.434h-2.891a28.824 28.824 0 00-8.853-19.71V6.656h5.087l-1.434 1.435 1.569 1.568 3.328-3.328a1.108 1.108 0 000-1.569L60.69 1.434l-1.569 1.569 1.434 1.434H54.36a1.11 1.11 0 00-1.109 1.11v7.213a28.961 28.961 0 00-4.04-2.643l-1.055 1.952a26.62 26.62 0 0113.97 23.43 26.624 26.624 0 01-13.97 23.432l1.057 1.951a29.006 29.006 0 004.038-2.642v7.213c0 .612.497 1.11 1.11 1.11h6.197l-1.435 1.434 1.569 1.569 3.328-3.329a1.108 1.108 0 000-1.568l-3.33-3.329-1.569 1.568 1.434 1.435H55.47v-8.026a28.824 28.824 0 008.853-19.709h2.89l-1.434 1.435 1.569 1.568 3.328-3.328a1.108 1.108 0 000-1.568zM8.874 35.5a26.62 26.62 0 0113.97-23.431l-1.056-1.952a29.026 29.026 0 00-4.039 2.643V5.547a1.11 1.11 0 00-1.11-1.11h-6.196l1.434-1.434-1.568-1.569L6.98 4.762a1.108 1.108 0 000 1.57l3.328 3.327 1.568-1.568-1.434-1.435h5.088v8.025a28.824 28.824 0 00-8.853 19.71h-2.89l1.434-1.435-1.569-1.569-3.328 3.329a1.108 1.108 0 000 1.568l3.328 3.328 1.57-1.568-1.435-1.435h2.89a28.824 28.824 0 008.854 19.71v8.025h-5.088l1.434-1.435-1.568-1.568-3.328 3.328a1.108 1.108 0 000 1.568l3.328 3.329 1.568-1.57-1.434-1.434h6.197a1.11 1.11 0 001.11-1.109V58.24a28.941 28.941 0 004.037 2.642l1.056-1.951A26.624 26.624 0 018.874 35.5z"/><path d="M43.598 32.97l5.44 2.383A3.327 3.327 0 0151.03 38.4v14.85h2.219V38.401a5.548 5.548 0 00-3.322-5.08l-6.988-3.063-2.451-3.267a5.549 5.549 0 002.777-4.803v-3.329h-2.22v3.328a3.332 3.332 0 01-3.327 3.329H33.28a3.332 3.332 0 01-3.328-3.328v-9.985a3.332 3.332 0 013.328-3.328h4.438a3.332 3.332 0 013.328 3.328v2.219h-4.438a2.221 2.221 0 01-2.218-2.219h-2.22a4.442 4.442 0 004.438 4.438h5.547a1.11 1.11 0 001.11-1.11v-3.328a5.553 5.553 0 00-5.547-5.547H33.28a5.553 5.553 0 00-5.547 5.547v9.985a5.549 5.549 0 002.777 4.803l-2.436 3.248-6.842 2.743a5.52 5.52 0 00-3.483 5.148v15.12h2.219V38.13c0-1.367.82-2.58 2.09-3.09l5.355-2.146-.774 4.642a1.11 1.11 0 001.4 1.249l5.04-1.44-2.012 19.117c-.036.338.087.673.33.91l3.42 3.329c.208.202.486.315.774.315h.016c.295-.005.575-.126.78-.337l3.236-3.328a1.11 1.11 0 00.308-.89l-2.013-19.116 5.042 1.44a1.11 1.11 0 001.398-1.25l-.76-4.566zm-5.325-5.236l2.292 3.056-5.065 3.377-5.065-3.377 2.292-3.056h5.546zm-8.627 5.261l3.175 2.117-3.704 1.058.529-3.175zm8.025 23.183l-2.1 2.16-2.24-2.178 2.05-19.472.06-.017a.788.788 0 00.119 0l.059.017 2.052 19.49zm.508-21.066l3.175-2.117.53 3.175-3.705-1.058z"/><path d="M24.406 42.156h2.219v15.532h-2.219V42.156zM44.375 53.25h2.219v4.438h-2.219V53.25zm0-11.094h2.219v8.875h-2.219v-8.875z"/></g><defs><clipPath id="clip0"><path fill="#fff" d="M0 0h71v71H0z"/></clipPath></defs></svg>