<svg width="70" height="70" fill="none" xmlns="http://www.w3.org/2000/svg"><path d="M65.529 56.25h-.433V23.446a2.38 2.38 0 00-2.378-2.378H61.2a74.796 74.796 0 005.085-6.203l.677.501c.532.394 1.233.46 1.828.17.596-.289.977-.88.997-1.541l.212-7.33a1.772 1.772 0 00-2.335-1.73l-6.95 2.339a1.766 1.766 0 00-1.184 1.402 1.766 1.766 0 00.695 1.7l1.112.823a69.583 69.583 0 01-3.172 4.013 1.026 1.026 0 101.562 1.331 71.496 71.496 0 003.872-4.971 1.026 1.026 0 00-.226-1.419L61.88 9.048l6.056-2.038-.185 6.387-1.079-.799a1.023 1.023 0 00-1.447.23A73.49 73.49 0 0139.16 35.429a73.486 73.486 0 01-33.552 8.147H3.079a1.027 1.027 0 010-2.052h2.528a70.714 70.714 0 0027.873-5.69 70.756 70.756 0 0023.258-15.997 1.026 1.026 0 10-1.476-1.426 69.165 69.165 0 01-8.254 7.284h-8.202a2.38 2.38 0 00-2.377 2.377v4.141c-.916.456-1.844.892-2.783 1.31v-1.457a2.38 2.38 0 00-2.378-2.378h-8.187a2.38 2.38 0 00-2.377 2.378v5.742c-.924.207-1.851.395-2.783.564v-3.05a2.38 2.38 0 00-2.377-2.379H7.355a2.38 2.38 0 00-2.377 2.378v4.15h-1.9A3.082 3.082 0 000 42.55a3.082 3.082 0 003.079 3.079h1.9v10.62h-.553a4.338 4.338 0 00-4.333 4.333v2.812c0 .972.79 1.762 1.762 1.762H68.1c.972 0 1.762-.79 1.762-1.762v-2.812a4.338 4.338 0 00-4.333-4.333zM38.481 28.071c0-.18.146-.326.325-.326h5.311a68.596 68.596 0 01-5.636 3.402v-3.076zm-15.725 3.994c0-.18.146-.326.325-.326h8.187c.18 0 .325.146.325.326v2.329a69.088 69.088 0 01-8.837 2.92v-5.25zm-15.4 2.93h8.187c.18 0 .326.146.326.325v3.39a69.14 69.14 0 01-8.838.745V35.32c0-.18.146-.325.325-.325zm51.902-11.874h3.46c.18 0 .326.146.326.325V56.25h-8.838V27.807a75.832 75.832 0 005.052-4.685zM40.1 37.253a74.664 74.664 0 007.218-4.257v10.928a1.026 1.026 0 102.052 0V31.58a75.668 75.668 0 002.782-2.094V56.25H49.37V48.3a1.026 1.026 0 10-2.052 0v7.95H38.48V38.061a74.043 74.043 0 001.62-.809zm-17.345 6.383a75.78 75.78 0 008.838-2.647v15.26h-8.838V43.636zm10.89-3.435a75.017 75.017 0 002.782-1.18v17.228h-2.782V40.201zM7.031 45.613a74.892 74.892 0 008.838-.696v3.402a1.026 1.026 0 102.052 0v-3.714c.93-.155 1.858-.329 2.782-.518v12.162h-2.782v-3.554a1.026 1.026 0 00-2.052 0v3.554H7.03V45.613zM67.81 63.104H2.145v-2.522a2.283 2.283 0 012.281-2.28H65.53a2.283 2.283 0 012.28 2.28v2.522z" fill="#151F59"/></svg>