<svg width="69" height="69" fill="none" xmlns="http://www.w3.org/2000/svg"><path d="M66.844 39.89v-4.312a1.078 1.078 0 00-1.078-1.078H51.75v-1.078a3.244 3.244 0 00-3.234-3.234h-1.078V28.03h5.39a3.244 3.244 0 003.234-3.234V5.39a3.244 3.244 0 00-3.234-3.235H16.172a3.244 3.244 0 00-3.235 3.235v19.406a3.244 3.244 0 003.235 3.234h5.39v2.157h-1.078a3.244 3.244 0 00-3.234 3.234V34.5H3.234a1.078 1.078 0 00-1.078 1.078v4.313a1.078 1.078 0 001.078 1.078H5.25L2.167 65.636a1.044 1.044 0 00.259.841 1.058 1.058 0 00.808.367h2.157a1.078 1.078 0 001.035-.776l7.32-25.1h3.504v3.235a1.078 1.078 0 001.078 1.078h3.235v2.157a1.078 1.078 0 001.078 1.078h8.625v6.468h-7.547a1.078 1.078 0 00-1.078 1.078v4.507a3.234 3.234 0 102.156 0v-3.428h8.625v3.428a3.234 3.234 0 102.156 0v-3.428h8.625v3.428a3.234 3.234 0 102.156 0v-4.507a1.078 1.078 0 00-1.078-1.078h-7.547v-6.468h8.625a1.078 1.078 0 001.078-1.078V45.28h3.235a1.078 1.078 0 001.078-1.078V40.97h3.504l7.32 25.098a1.078 1.078 0 001.035.777h2.157a1.059 1.059 0 00.808-.367 1.042 1.042 0 00.259-.84L63.749 40.97h2.017a1.078 1.078 0 001.078-1.078zM4.582 64.688h-.13L7.419 40.97h4.086L4.582 64.687zM17.25 38.814H4.312v-2.157H17.25v2.157zm4.313 4.312h-2.157v-9.703a1.078 1.078 0 011.078-1.078h1.078v10.781zm2.156 21.563a1.078 1.078 0 110-2.156 1.078 1.078 0 010 2.156zM45.28 62.53a1.079 1.079 0 110 2.157 1.079 1.079 0 010-2.157zM34.5 64.688a1.078 1.078 0 110-2.157 1.078 1.078 0 010 2.157zm1.078-9.704h-2.156v-6.468h2.156v6.468zm9.703-8.625H23.72V24.797a1.078 1.078 0 011.078-1.078h19.406a1.078 1.078 0 011.078 1.078v21.562zm-17.25-24.797v-2.156a6.469 6.469 0 0112.938 0v2.157H28.03zm16.172 0h-1.078v-2.156a8.625 8.625 0 00-17.25 0v2.157h-1.078a3.244 3.244 0 00-3.235 3.234v1.078h-5.39a1.078 1.078 0 01-1.078-1.078V5.39a1.078 1.078 0 011.078-1.079h36.656a1.078 1.078 0 011.078 1.079v19.406a1.078 1.078 0 01-1.078 1.078h-5.39v-1.078a3.244 3.244 0 00-3.235-3.235zm5.39 21.563h-2.156V32.344h1.079a1.078 1.078 0 011.078 1.078v9.703zm14.954 21.563h-.129l-6.922-23.72h4.087l2.964 23.72zm.14-25.876H51.75v-2.156h12.938v2.157z" fill="#151F59"/><path d="M49.594 11.86h2.156V7.546a1.078 1.078 0 00-1.078-1.078h-4.313v2.156h3.235v3.234zm2.156 2.156h-2.156v2.156h2.156v-2.156z" fill="#151F59"/></svg>