<svg width="58" height="69" fill="none" xmlns="http://www.w3.org/2000/svg"><path d="M56.66 5.125a4.129 4.129 0 00-2.972-1.271h-5.314l.06-.73a2.894 2.894 0 00-.753-2.193A2.894 2.894 0 0045.558 0H13.73a1.024 1.024 0 000 2.047h31.828a.83.83 0 01.617.271.83.83 0 01.22.638l-1.73 20.95a15.779 15.779 0 01-5.05 10.336A15.779 15.779 0 0128.9 38.425a15.778 15.778 0 01-10.716-4.183 15.777 15.777 0 01-5.05-10.335l-1.73-20.951a.83.83 0 01.22-.638.83.83 0 01.617-.27h1.364a1.024 1.024 0 000-2.048H12.24c-.805 0-1.578.34-2.123.931a2.894 2.894 0 00-.754 2.193l.06.73H4.11a4.13 4.13 0 00-2.972 1.271A4.13 4.13 0 00.004 8.152l.58 12.666A13.869 13.869 0 0014.46 34.073h.738a17.965 17.965 0 001.598 1.675 17.816 17.816 0 008.817 4.421v5.958l-1.369 2.13h-2.912a2.844 2.844 0 00-2.84 2.84v2.379H13.11a3.761 3.761 0 00-3.757 3.757v8.906H8.8a1.024 1.024 0 000 2.047H49a1.024 1.024 0 000-2.047h-.554V63.5a1.024 1.024 0 00-2.048 0v2.638H11.401v-8.906c0-.943.766-1.71 1.71-1.71h31.577c.942 0 1.71.767 1.71 1.71v1.906a1.024 1.024 0 002.047 0v-1.906a3.761 3.761 0 00-3.757-3.757h-5.245v-2.379a2.844 2.844 0 00-2.84-2.84H33.69l-1.369-2.13v-5.985A17.816 17.816 0 0042.6 34.073h.739c7.44 0 13.536-5.822 13.876-13.255l.184-4.029a1.024 1.024 0 00-2.045-.094l-.184 4.03A11.821 11.821 0 0144.1 31.999c.44-.71.828-1.449 1.163-2.212a9.783 9.783 0 007.862-9.156l.531-11.612a1.023 1.023 0 00-1.022-1.07h-4.597l.17-2.048h5.482c.56 0 1.104.233 1.491.638.388.406.595.96.57 1.52l-.196 4.274a1.024 1.024 0 102.045.094l.195-4.275a4.128 4.128 0 00-1.133-3.027zm-45.567 18.95c.094 1.142.296 2.263.6 3.349a7.744 7.744 0 01-4.974-6.887L6.237 9.996H9.93l1.162 14.08zm-8.464-3.35L2.05 8.058a2.072 2.072 0 01.57-1.52A2.072 2.072 0 014.111 5.9h5.482l.17 2.047H5.164a1.024 1.024 0 00-1.022 1.07l.531 11.613a9.783 9.783 0 007.862 9.156c.335.763.724 1.503 1.163 2.212a11.822 11.822 0 01-11.07-11.274zm34.767 30.372v2.379H20.539v-2.379c0-.437.356-.793.793-.793h15.27c.438 0 .794.356.794.793zm-6.96-4.116l.82 1.276h-4.578l.82-1.276c.106-.165.162-.357.162-.553v-5.999a18.085 18.085 0 002.614-.01v6.008c0 .197.056.389.162.554zM51.561 9.996l-.482 10.541a7.743 7.743 0 01-4.974 6.887 17.94 17.94 0 00.6-3.349l1.162-14.08h3.694z" fill="#151F59"/><path d="M37.191 16.018a1.54 1.54 0 00-1.25-1.055l-3.858-.56-1.726-3.496a1.54 1.54 0 00-1.39-.864 1.54 1.54 0 00-1.389.864l-1.725 3.496-3.858.56a1.54 1.54 0 00-1.251 1.055 1.54 1.54 0 00.392 1.588l2.792 2.721-.66 3.843a1.54 1.54 0 00.617 1.515 1.54 1.54 0 001.632.118l3.45-1.814 3.451 1.814a1.544 1.544 0 001.632-.118c.48-.35.717-.93.617-1.515l-.66-3.843 2.792-2.72a1.54 1.54 0 00.392-1.59zm-4.8 3.026a1.55 1.55 0 00-.445 1.372l.532 3.106-2.79-1.466a1.549 1.549 0 00-1.441 0l-2.79 1.466.533-3.106a1.549 1.549 0 00-.446-1.372l-2.257-2.2 3.12-.453a1.55 1.55 0 001.166-.847l1.395-2.827 1.394 2.826a1.55 1.55 0 001.167.848l3.12.453-2.258 2.2z" fill="#151F59"/></svg>