<svg width="71" height="71" fill="none" xmlns="http://www.w3.org/2000/svg"><g clip-path="url(#clip0)" fill="#151F59"><path d="M60.214 11.095c-.001.395.178.76.49 1.002.762.588 1.108-.013 2.688.04a5.486 5.486 0 014.914 3.494 1.04 1.04 0 001.936-.76 7.563 7.563 0 00-7.997-4.758c-.738-7.406-9.217-11.345-15.353-7.08A7.197 7.197 0 0040.93-.139c-2.976 0-5.669 1.879-6.724 4.627A4.712 4.712 0 0030.3 5.962a5.681 5.681 0 00-5.488 2.509 21.874 21.874 0 00-11.83 7.413A21.818 21.818 0 008.07 29.666v3.082c0 3.072-1.196 5.96-3.368 8.132l-2.856 2.856C-.02 45.6 1.298 48.789 3.94 48.789h4.107c.013 0 .023.01.023.024v3.523c0 5.853 4.762 10.614 10.614 10.614a2.686 2.686 0 012.683 2.683v3.058c0 1.197.974 2.17 2.17 2.17h6.14a1.04 1.04 0 100-2.08h-6.14a.09.09 0 01-.09-.09v-3.058a4.768 4.768 0 00-4.763-4.763c-4.705 0-8.533-3.829-8.533-8.534v-3.523c0-1.16-.944-2.104-2.104-2.104H3.939c-.784 0-1.178-.948-.623-1.502l2.856-2.856a13.49 13.49 0 003.978-9.603v-3.082c0-8.608 5.691-16.237 13.77-18.792a5.675 5.675 0 004.724 6.313c-.196 4.327 3.24 7.99 7.63 7.99H49.04a19.8 19.8 0 01.515 4.352l-4.272 7.74a1.21 1.21 0 001.059 1.792h2.054v6.261l.001.051a19.584 19.584 0 01-3.766 6.361c-2.141 2.427-3.32 5.657-3.32 9.096v7.845a.107.107 0 01-.107.106H34.53a1.04 1.04 0 100 2.08h6.674a2.19 2.19 0 002.187-2.186V60.83c0-2.933.994-5.674 2.8-7.72a21.649 21.649 0 004.068-6.775 1.2 1.2 0 00.403-.43l5.245-9.502a1.21 1.21 0 00-1.059-1.792h-2.054V28.35a1.21 1.21 0 00-1.307-1.205 21.743 21.743 0 00-.318-1.968h12.03a7.54 7.54 0 006.988-4.675 1.04 1.04 0 00-1.922-.795 5.467 5.467 0 01-5.066 3.39H36.274a5.552 5.552 0 01-5.55-5.84h17.73a5.616 5.616 0 005.573-4.915c.44-3.55-2.49-6.554-5.972-6.308a7.535 7.535 0 00-.246-1.097c5.06-3.851 12.405-.23 12.405 6.158zm-9.5 20.639v3.75a1.21 1.21 0 001.208 1.208h1.45l-2.897 5.248v-3.75a1.21 1.21 0 00-1.208-1.21h-1.449l2.896-5.246zM48.578 8.102a3.55 3.55 0 013.408 3.73 3.535 3.535 0 01-3.533 3.345H29.808c-3.886 0-5.086-4.352-2.477-6.412a3.539 3.539 0 012.892-.709 1.524 1.524 0 001.47-.53 2.647 2.647 0 012.61-.921 1.49 1.49 0 001.725-1.025 5.15 5.15 0 014.9-3.639 5.124 5.124 0 015.118 5.121c0 .562.327.81.466.948.658.506 1.075.059 2.065.092z"/><path d="M38.106 27.766l-5.244 9.503a1.21 1.21 0 001.059 1.792h2.054v6.262c0 1.237 1.662 1.68 2.267.584l5.244-9.503a1.21 1.21 0 00-1.059-1.792h-2.054V28.35c0-1.245-1.666-1.672-2.267-.584zm2.845 8.926l-2.896 5.248v-3.75a1.21 1.21 0 00-1.209-1.21h-1.449l2.896-5.246v3.75a1.21 1.21 0 001.209 1.208h1.449zm22.131 9.215l5.244-9.503a1.21 1.21 0 00-1.058-1.792h-2.054V28.35c0-1.245-1.667-1.672-2.267-.584l-5.244 9.503a1.21 1.21 0 001.058 1.792h2.055v6.262c0 1.252 1.666 1.671 2.266.584zm-2.844-8.926l2.896-5.247v3.75a1.21 1.21 0 001.208 1.208h1.45l-2.896 5.248v-3.75a1.21 1.21 0 00-1.209-1.209h-1.45z"/></g><defs><clipPath id="clip0"><path fill="#fff" d="M0 0h71v71H0z"/></clipPath></defs></svg>