<svg width="71" height="71" fill="none" xmlns="http://www.w3.org/2000/svg"><g clip-path="url(#clip0)"><path d="M61.116 54.601l-2.88 2.88a12.164 12.164 0 011.227 5.345v6.99a1.183 1.183 0 01-2.367 0v-6.99a9.837 9.837 0 00-9.036-9.811l-4.914 17.128a1.184 1.184 0 01-2.275-.653l4.787-16.685a7.254 7.254 0 01-4.66-3.335 1.183 1.183 0 112.021-1.231 4.91 4.91 0 003.972 2.365c.147-.024.3-.021.454.014a12.146 12.146 0 019.51 4.797l2.487-2.487a2.694 2.694 0 00.21-3.574c-1.877-2.375-1.4-5.249.4-6.945a2.71 2.71 0 00.26-3.637l-1.704-2.141a5.065 5.065 0 01-.893-4.583l1.101-3.732a2.687 2.687 0 00-1.562-3.255l-1.454-.595a5.042 5.042 0 01-3.142-4.682v-3.808c0-7.505-6.104-13.61-13.608-13.61h-7.1c-7.503 0-13.608 6.106-13.608 13.61v3.808c0 2.062-1.233 3.9-3.142 4.682l-1.453.595a2.687 2.687 0 00-1.563 3.256l1.102 3.731a5.065 5.065 0 01-.894 4.583l-1.703 2.141a2.71 2.71 0 00.26 3.637c1.802 1.7 2.274 4.572.4 6.945a2.694 2.694 0 00.21 3.574l2.486 2.487c2.29-2.986 5.8-4.802 9.706-4.802 2.731 0 4.945-2.2 4.945-4.932v-.31c-4.891-2.33-9.271-11.703-9.983-16.871a1.183 1.183 0 012.345-.323c.91 6.616 7.752 16.364 14.442 16.364 7.422 0 13.46-6.038 13.46-13.46v-7.295a12.877 12.877 0 01-6.755-5.627C36.498 24.789 28.35 28.645 19.72 28.99a1.183 1.183 0 01-.094-2.365c8.521-.341 16.55-4.376 21.885-11.369a1.184 1.184 0 012.041.281 10.537 10.537 0 006.915 6.25c.451.127.817.534.856 1.05.007.096.005 8.316.004 8.367-.081 10.428-10.15 18.036-20.29 15.058a7.247 7.247 0 01-2.712 5.112L35.5 56.93 43.146 51a1.183 1.183 0 011.449 1.871l-7.912 6.136v8.443a1.183 1.183 0 01-2.366 0v-8.443l-8.263-6.397c-1.284.423-2.415.37-2.302.37a9.841 9.841 0 00-9.848 9.847v6.99a1.183 1.183 0 01-2.366 0v-6.99c0-1.884.425-3.7 1.227-5.345l-2.88-2.88c-1.686-1.686-2.131-4.515-.293-6.842a2.679 2.679 0 00-.267-3.63c-1.898-1.789-2.112-4.79-.488-6.831l1.703-2.142a2.696 2.696 0 00.475-2.439l-1.1-3.732a5.047 5.047 0 012.934-6.115l1.454-.595a2.684 2.684 0 001.672-2.492v-3.809C15.975 7.167 23.142 0 31.95 0h7.1c8.809 0 15.975 7.166 15.975 15.975v3.81c0 1.096.657 2.075 1.673 2.491l1.453.595a5.047 5.047 0 012.935 6.115l-1.101 3.732a2.696 2.696 0 00.475 2.44l1.704 2.14c1.624 2.042 1.409 5.043-.489 6.833a2.68 2.68 0 00-.266 3.629c1.807 2.288 1.424 5.124-.293 6.841zm-34.535 2.32a1.183 1.183 0 10-2.278.644l3.55 12.573a1.183 1.183 0 002.278-.643l-3.55-12.573z" fill="#151F59"/></g><defs><clipPath id="clip0"><path fill="#fff" d="M0 0h71v71H0z"/></clipPath></defs></svg>