<svg width="70" height="70" fill="none" xmlns="http://www.w3.org/2000/svg"><path d="M69.735 14.493a1.024 1.024 0 00-1.447-.07l-3.026 2.743a.311.311 0 01-.44-.021l-2.212-2.44a1.024 1.024 0 00-1.517 1.375l1.806 1.992-3.054 2.768c-.153.14-.261.322-.309.523l-.84 3.547a9.655 9.655 0 01-2.922 4.947L49.771 35.3a1.487 1.487 0 01-2.48-1.173c.02-.396.192-.761.486-1.027l2.618-2.374a1.024 1.024 0 10-1.376-1.518l-2.618 2.374a3.517 3.517 0 00-.921 1.34 3.324 3.324 0 00-1.414-.315h-.004a3.31 3.31 0 00-1.439.327 3.323 3.323 0 00-.472-.942l2.556-2.317a1.024 1.024 0 00-1.376-1.517l-1.45 1.314a3.34 3.34 0 00-.818-1.252l-.808-.781 1.311-1.19a1.024 1.024 0 00-1.375-1.516l-1.412 1.28-2.884-2.786c.456-.18.881-.456 1.243-.83a3.537 3.537 0 00.148-4.746l4.35-3.944a15.671 15.671 0 017.349-3.735 1.01 1.01 0 00.48-.244l3.221-2.92 5.472 6.035a1.02 1.02 0 001.447.07c.419-.38.45-1.027.07-1.446l-5.878-6.484a.311.311 0 01.021-.439L56.845 1.8A1.024 1.024 0 1055.469.283l-3.026 2.744a2.354 2.354 0 00-.764 1.93l-3.386 3.07a17.72 17.72 0 00-8.032 4.162l-4.439 4.025-4.598-4.442a11.694 11.694 0 00-6.213-3.135l-3.281-.551-3.093-2.988a2.354 2.354 0 00-.703-1.954L14.996.306a1.024 1.024 0 10-1.423 1.472l2.938 2.84a.31.31 0 01.008.439L5.113 16.863a.304.304 0 01-.218.095.315.315 0 01-.221-.088l-2.939-2.838a1.024 1.024 0 10-1.422 1.473l2.938 2.838a2.342 2.342 0 001.977.636l3.285 3.174a17.722 17.722 0 004.685 7.74l2.137 2.064a1.021 1.021 0 001.448-.024 1.024 1.024 0 00-.025-1.448l-2.137-2.065a15.669 15.669 0 01-4.212-7.086 1.024 1.024 0 00-.275-.463L7.007 17.85 17.57 6.915l2.965 2.865c.149.143.338.239.542.273l3.594.604a9.656 9.656 0 015.13 2.588l5.828 5.63c.588.57.605 1.511.036 2.1a1.486 1.486 0 01-1.896.2l-2.746-2.62a1.024 1.024 0 10-1.422 1.473l10.04 9.666c.269.26.401.61.391.96a3.329 3.329 0 00-.587-.054h-.004c-.458 0-.895.093-1.293.26a3.31 3.31 0 00-.965-2.122 3.313 3.313 0 00-2.358-.98h-.003c-.28 0-.556.035-.821.102l-3.648-3.524a1.024 1.024 0 10-1.423 1.473l3.3 3.186a3.302 3.302 0 00-.603 1.134 3.318 3.318 0 00-1.427-.32h-.003c-.254 0-.503.03-.745.084l-2.31-2.233a1.024 1.024 0 10-1.424 1.473l1.928 1.863a3.31 3.31 0 00-.785 2.145v.676l-2.932-2.832a1.024 1.024 0 10-1.423 1.473l4.352 4.203-.004 3.266a1.274 1.274 0 01-.675-.34l-6.282-6.07a1.024 1.024 0 10-1.423 1.473l5.474 5.289a3.528 3.528 0 00-1.078.736 3.51 3.51 0 00-1.038 2.497l-.009 8.103a11.693 11.693 0 002.055 6.649l1.88 2.745-.005 4.299a2.342 2.342 0 00-.919 1.862l-.004 1.764a1.024 1.024 0 001.021 1.027h.003c.564 0 1.022-.457 1.024-1.022l.005-1.766c0-.106.05-.178.09-.22a.284.284 0 01.22-.09l16.416.018c.172 0 .31.14.31.31l-.004 1.764a1.024 1.024 0 001.022 1.027h.002c.565 0 1.023-.457 1.024-1.022l.005-1.765c0-.758-.359-1.431-.915-1.864l.005-4.57a17.719 17.719 0 002.321-8.744l.001-.933a1.024 1.024 0 00-1.022-1.026h-.002c-.565 0-1.023.458-1.024 1.023v.933a15.669 15.669 0 01-2.18 7.95 1.022 1.022 0 00-.142.52l-.004 4.348-15.204-.017.004-4.122c0-.207-.062-.409-.179-.58l-2.06-3.007a9.655 9.655 0 01-1.696-5.49l.01-8.102c0-.397.155-.77.435-1.05s.653-.433 1.049-.433h.002c.819 0 1.484.668 1.483 1.486l-.004 3.535a1.024 1.024 0 002.048.002l.004-3.535.011-10.376c0-.344.135-.667.378-.91s.566-.376.91-.376h.001c.344 0 .667.134.91.378.243.243.377.567.376.91l-.011 10.377a1.023 1.023 0 001.022 1.025h.002a1.024 1.024 0 001.023-1.022l.014-12.433c0-.344.135-.667.379-.91a1.28 1.28 0 01.909-.376h.001c.344 0 .667.135.91.378.243.244.377.567.376.911l-.014 12.433c0 .565.458 1.024 1.023 1.025h.001a1.024 1.024 0 001.024-1.023l.011-9.596c0-.344.135-.667.378-.91s.566-.376.91-.376h.001c.71 0 1.287.579 1.286 1.289l-.01 9.596a1.024 1.024 0 001.022 1.025h.001a1.024 1.024 0 001.024-1.023l.009-7.595a1.29 1.29 0 011.287-1.285h.002a1.286 1.286 0 011.286 1.289l-.012 10.763a1.024 1.024 0 001.022 1.026h.002c.564 0 1.023-.458 1.023-1.023l.01-9.256a3.532 3.532 0 001.383.279 3.51 3.51 0 002.369-.916l6.002-5.443a11.694 11.694 0 003.54-5.992l.767-3.238 3.184-2.887a2.4 2.4 0 00.415.038c.587 0 1.144-.215 1.582-.611l3.027-2.745c.419-.38.45-1.027.07-1.446z" fill="#151F59"/></svg>