<?xml version="1.0" encoding="utf-8"?><svg viewBox="0 0 73 73" xmlns="http://www.w3.org/2000/svg" xmlns:xlink="http://www.w3.org/1999/xlink"><style>:root>svg{display:none}:root>svg:target{display:block}</style><svg fill="none" viewBox="0 0 51 51" id="icon-ad_01" xmlns="http://www.w3.org/2000/svg"><g clip-path="url(#aclip0)" fill="#FAC234"><path d="M25.616 9.525c-6.855 0-12.432 5.576-12.432 12.432 0 2.146.563 4.27 1.626 6.14 1.717 3.603 2.51 7.535 2.88 10.452h-2.487a.758.758 0 00-.758.758v6.724a2.75 2.75 0 002.747 2.746h1.991A2.986 2.986 0 0022.066 51H28.7a2.985 2.985 0 002.882-2.224h1.992a2.75 2.75 0 002.746-2.746v-6.724a.758.758 0 00-.758-.758h-2.02c.37-2.912 1.158-6.834 2.845-10.385a12.43 12.43 0 001.66-6.207c0-6.854-5.577-12.431-12.432-12.431zm9.19 36.505c0 .679-.552 1.231-1.23 1.231l-2.653.001a.758.758 0 00-.757.758c0 .808-.657 1.465-1.465 1.465h-6.635a1.467 1.467 0 01-1.465-1.466.758.758 0 00-.758-.758h-2.651a1.233 1.233 0 01-1.232-1.23v-5.967h18.847v5.966zm-11.01-16.114c-.781-.949-2-1.17-2.07-1.18a.758.758 0 00-.25 1.494c.014.002 1.271.224 1.43 1.298.023.151.043.354.06.58h-.811c-.926 0-1.55-.256-1.908-.786-.641-.947-.427-2.64-.105-3.916.733.625 1.542.76 2.144.86.197.032.382.06.546.112.425.135.69.36.834.705.101.242.134.53.13.833zm2.818-7.318c.274-.66.79-1.1 1.575-1.35.253-.081.576-.135.916-.192 1.084-.18 2.481-.413 3.652-1.742.616 2.114 1.187 5.4-.028 7.199-.648.958-1.743 1.424-3.349 1.424h-1.736c.038-.574.082-1.058.134-1.405.29-1.963 2.493-2.377 2.597-2.395a.756.756 0 00-.252-1.494c-.123.02-2.7.482-3.592 2.735-.198-.977-.243-1.996.083-2.78zm8.434 4.862c-1.833 3.85-2.661 8.044-3.036 11.09h-4.606c0-.071.002-5.392.157-9.097h1.816c2.117 0 3.666-.704 4.604-2.09 2.311-3.42-.194-9.762-.302-10.03a.758.758 0 00-1.381-.056c-.934 1.868-2.211 2.08-3.445 2.286-.396.065-.77.128-1.126.241-1.22.388-2.067 1.134-2.516 2.216-1.004 2.42.412 5.792.865 6.758-.185 3.718-.188 9.464-.188 9.772h-1.237c-.006-1.156-.027-3.723-.116-5.573.34-.732 1.197-2.862.528-4.474-.315-.757-.928-1.3-1.775-1.57-.247-.079-.505-.12-.757-.163-.786-.13-1.464-.243-1.997-1.31a.757.757 0 00-1.38.056c-.18.443-1.696 4.392-.168 6.653.653.965 1.717 1.454 3.165 1.454h.895c.065 1.723.084 3.89.088 4.926h-3.918c-.375-3.05-1.205-7.25-3.043-11.108a1.327 1.327 0 00-.046-.093 10.92 10.92 0 01-1.433-5.392c0-6.02 4.898-10.917 10.918-10.917s10.917 4.897 10.917 10.917a10.967 10.967 0 01-1.483 5.504zM24.86.758v5.587a.758.758 0 001.515 0V.758a.758.758 0 00-1.516 0zM40.547 6.282a.756.756 0 00-1.07 0l-3.952 3.951a.756.756 0 00.536 1.293.755.755 0 00.536-.222l3.95-3.95a.756.756 0 000-1.072zM10.615 6.118a.757.757 0 000 1.071l3.95 3.951a.756.756 0 001.072 0 .757.757 0 000-1.071l-3.951-3.951a.756.756 0 00-1.071 0zM4.334 21.05c0 .419.34.758.758.758h5.587a.758.758 0 000-1.515H5.092a.757.757 0 00-.758.758zM45.908 20.525H40.32a.758.758 0 000 1.516h5.588a.758.758 0 000-1.516z"/></g><defs><clipPath id="aclip0"><path fill="#fff" d="M0 0h51v51H0z"/></clipPath></defs></svg><svg fill="none" viewBox="0 0 47 47" id="icon-ad_02" xmlns="http://www.w3.org/2000/svg"><g clip-path="url(#bclip0)"><path d="M35.984 39.063l.001-13.207c0-.353-.137-.684-.387-.934a1.314 1.314 0 00-.936-.387h-2.506a1.313 1.313 0 00-1.3 1.092v-3.426c0-.051-.002-.102-.008-.151.04-.428-.13-.852-.46-1.132l-4.795-4.049a9.654 9.654 0 004.634-8.217A9.558 9.558 0 0024.931.07a.64.64 0 00-.926.57v7.374h-6.767V.64a.64.64 0 00-.927-.571 9.562 9.562 0 00-5.295 8.583 9.649 9.649 0 005.16 8.516v7.367h-2.648a1.325 1.325 0 00-1.323 1.322v2.277c0 .25.074.483.196.684a1.31 1.31 0 00-.196.682v2.278c0 .25.074.482.195.681a1.307 1.307 0 00-.194.684v2.277c0 .251.073.483.195.684-.122.2-.196.432-.196.683v2.277c0 .728.593 1.322 1.322 1.323h2.65v2.168A4.45 4.45 0 0020.62 47h.002a4.45 4.45 0 004.444-4.445V39.86c.035.047.07.095.113.138.25.25.582.387.936.387h3.42a1.32 1.32 0 001.311-1.215 1.32 1.32 0 001.311 1.215h2.508c.352 0 .684-.138.934-.389.249-.248.385-.58.385-.933zM17.088 16.19a8.362 8.362 0 01-4.793-7.54 8.28 8.28 0 013.664-6.898v6.9c0 .353.286.639.64.639h8.045a.64.64 0 00.64-.64v-6.9a8.276 8.276 0 013.664 6.9 8.366 8.366 0 01-4.794 7.54.637.637 0 00-.288.27c-.01.002-.018.007-.027.01-.049.013-.095.034-.142.052-.044.016-.09.029-.132.052-.088.044-.171.098-.247.162l-4.95 4.18a1.325 1.325 0 00-.157 1.864l1.468 1.74.01.013h-2.234V16.77a.638.638 0 00-.367-.58zm-3.561 19.273l-.039.003-.003-.047.043-2.32h3.31l3.212.043-.042 2.32h-6.481zm-.042-3.686l.043-2.322h3.288l3.236.043-.044 2.32-6.479.002c-.014 0-.027.003-.04.003l-.005-.047zm.043-5.965h3.288l3.236.043-.044 2.32h-3.192l-3.33-.043.042-2.32zm0 13.934l-.043-.683.043-2.32h3.312l3.212.042-.044 2.321h-6.48v.64zm7.092 5.973a3.169 3.169 0 01-3.165-3.166v-2.168h2.553c.73 0 1.322-.593 1.322-1.322v-2.278c0-.112-.018-.22-.044-.323-.008-.03-.019-.059-.028-.088a1.34 1.34 0 00-.095-.218c-.01-.017-.013-.036-.023-.053.008-.014.011-.03.019-.044a1.287 1.287 0 00.126-.315c.027-.106.045-.213.045-.324v-2.277c0-.112-.02-.22-.045-.324-.008-.03-.018-.057-.027-.087a1.293 1.293 0 00-.097-.22c-.008-.016-.012-.035-.021-.051.01-.015.013-.033.02-.05a1.28 1.28 0 00.127-.314c.025-.104.043-.21.042-.319v-2.278c0-.112-.018-.22-.044-.323-.008-.03-.018-.06-.027-.088a1.32 1.32 0 00-.097-.222c-.008-.015-.012-.034-.022-.05.01-.016.014-.035.022-.05.039-.071.071-.144.096-.222.01-.03.02-.057.027-.088.027-.104.045-.211.045-.323v-2.277c0-.089-.01-.176-.026-.26-.005-.027-.016-.054-.024-.082-.015-.054-.028-.109-.05-.16-.013-.032-.03-.06-.046-.091-.022-.044-.043-.089-.07-.13-.02-.03-.043-.057-.066-.085-.023-.03-.044-.062-.069-.09.036-.009.068-.026.103-.037l.03-.01a1.195 1.195 0 00.432-.233l2.243-1.894v19.768a3.17 3.17 0 01-3.166 3.166zm8.957-6.658a.043.043 0 01-.043.044l-3.463-.044V22.337a.64.64 0 00-.226-.488L24.839 21l-.051-.043a.646.646 0 00-.195-.112c-.031-.01-.066-.01-.098-.016-.038-.007-.077-.02-.117-.02a.64.64 0 00-.162.028c-.018.005-.037.003-.055.01a.64.64 0 00-.195.113l-3.308 2.736-1.464-1.8 4.992-4.187a.5.5 0 00.315.017c.016-.003.095-.007.111-.012l4.962 4.221a.63.63 0 00.004.266v16.86zm5.128.001c0 .02-.021.043-.04.043l-2.55-.043.042-13.25 2.549.043v13.207z" fill="#FAC234"/></g><defs><clipPath id="bclip0"><path fill="#fff" d="M0 0h47v47H0z"/></clipPath></defs></svg><svg fill="none" viewBox="0 0 48 48" id="icon-ad_03" xmlns="http://www.w3.org/2000/svg"><g clip-path="url(#cclip0)" fill="#FABF31"><path d="M18.492 16.5a.728.728 0 01-.422-.134c-.01-.008-1.16-.802-2.924-.962-1.368-.127-1.784.593-1.822.67a.75.75 0 01-.515.403.726.726 0 01-.628-.158L7.626 12.31a.73.73 0 01-.035-1.062c.018-.018 1.757-1.783 3.136-4.715C11.894 4.056 17.643.38 23.197.38c2.785 0 5.168.889 7.083 2.641a.728.728 0 01-.487 1.267l-.911.007c-.063-.002-.152-.007-.305-.007-1.158 0-4.987.258-6.894 3.485l1.833 3.665a.73.73 0 01-.16.864l-4.371 4.007a.735.735 0 01-.493.191zm-3.661-2.569c.14 0 .29.007.447.021a8.333 8.333 0 013.119.917l3.569-3.271-1.759-3.517a.726.726 0 01.005-.661c1.834-3.526 5.402-4.36 7.372-4.542-1.287-.691-2.755-1.04-4.388-1.04-5.082 0-10.273 3.449-11.151 5.317a20.793 20.793 0 01-2.904 4.549l3.427 3.015c.47-.418 1.208-.788 2.263-.788zM9.018 21.233a.732.732 0 01-.472-.174l-4.92-4.19a.733.733 0 01-.254-.503.723.723 0 01.18-.533l2.733-3.098a.734.734 0 01.501-.245.733.733 0 01.528.181l4.737 4.19c.294.26.33.707.079 1.01l-2.55 3.097a.723.723 0 01-.562.265zm-3.882-4.994l3.79 3.23 1.633-1.983-3.664-3.24-1.76 1.993zM41.972 41.263c-.404 0-.764-.088-1.069-.265a.739.739 0 01-.167-.133L19.19 17.832a.73.73 0 01.053-1.047l5.01-4.373a.73.73 0 01.988.028l9.975 9.732L47.669 34.12c.07.068.125.148.164.238.532 1.232-.23 3.18-1.898 4.848-1.27 1.268-2.788 2.057-3.963 2.057zm-.265-1.495c.514.174 1.89-.286 3.197-1.594 1.27-1.27 1.735-2.567 1.624-3.13L34.202 23.22l-9.498-9.267-3.935 3.434 20.938 22.381zM4.828 33.045a.733.733 0 01-.416-.13l-2.095-1.457a.73.73 0 01.415-1.328h4.19a.73.73 0 01.417 1.328l-2.095 1.457a.734.734 0 01-.416.13z"/><path d="M4.828 43.52a.728.728 0 01-.728-.729V32.316a.728.728 0 111.457 0v10.475a.727.727 0 01-.729.73z"/><path d="M44.088 47.62H.728A.728.728 0 010 46.89v-4.098c0-.403.326-.729.729-.729h43.359c.403 0 .729.326.729.729v4.099a.728.728 0 01-.729.729zm-42.63-1.458h41.901V43.52H1.458v2.642z"/></g><defs><clipPath id="cclip0"><path fill="#fff" d="M0 0h48v48H0z"/></clipPath></defs></svg><svg fill="none" viewBox="0 0 10 6" id="icon-arrow" xmlns="http://www.w3.org/2000/svg"><path d="M1 .572l4 3.81 4-3.81" stroke="#fff"/></svg><svg fill="none" viewBox="0 0 55 46" id="icon-articles" xmlns="http://www.w3.org/2000/svg"><path d="M31 2l21 21m0 0L31 44m21-21H0" stroke="url(#epaint0_linear)" stroke-width="3"/><defs><linearGradient id="epaint0_linear" x1="6.649" y1="5.5" x2="67.228" y2="10.178" gradientUnits="userSpaceOnUse"><stop offset=".012" stop-color="#FAC336"/><stop offset="1" stop-color="#F6A103"/></linearGradient></defs></svg><svg fill="none" viewBox="0 0 15 15" id="icon-dw_01" xmlns="http://www.w3.org/2000/svg"><path d="M12.005 8.16L7.5 12.664 2.995 8.159l.828-.828 3.091 3.09V0h1.172v10.421l3.09-3.09.83.828zM15 13.827H0V15h15v-1.172z" fill="url(#fpaint0_linear)"/><defs><linearGradient id="fpaint0_linear" x1="1.918" y1="1.25" x2="19.429" y2="2.342" gradientUnits="userSpaceOnUse"><stop offset=".012" stop-color="#FAC336"/><stop offset="1" stop-color="#F6A103"/></linearGradient></defs></svg><svg fill="none" viewBox="0 0 36 36" id="icon-modal_loop" xmlns="http://www.w3.org/2000/svg"><path d="M13.04 24.704c6.443 0 11.667-5.223 11.667-11.667 0-6.443-5.224-11.666-11.667-11.666-6.444 0-11.667 5.223-11.667 11.666 0 6.444 5.223 11.667 11.667 11.667z" fill="#EEEFEE"/><path d="M21.904 24.72l.15.151 2.827-2.825-.15-.151-2.827 2.826z" fill="#475F6C"/><path d="M3.864 3.866A12.977 12.977 0 0020.7 23.517l1.203 1.204 2.826-2.827-1.203-1.204A12.978 12.978 0 003.864 3.866zm16.965 16.965a11.016 11.016 0 110-15.579 11.043 11.043 0 010 15.58z" fill="#575B6D"/><path d="M34.642 29.386L25.57 21.55l-4.017 4.019 7.827 9.076a3.73 3.73 0 105.262-5.26z" fill="#8E8E8E"/><path d="M26.555 21.315a.852.852 0 01.097 1.107.517.517 0 01-.097.118l-4.018 4.018a.875.875 0 01-1.236-1.236l4.018-4.018a.868.868 0 011.236.01z" fill="#FFE8C8"/><path d="M8.762 10.13a4.043 4.043 0 011.324-2.8 4.318 4.318 0 012.969-1.033 4.544 4.544 0 013.083 1.017 3.275 3.275 0 011.177 2.592 3.46 3.46 0 01-.403 1.646 6.067 6.067 0 01-1.514 1.68 5.185 5.185 0 00-1.365 1.468 4.7 4.7 0 00-.254 1.822h-1.59c-.05-.84.083-1.68.389-2.463a5.612 5.612 0 011.433-1.669c.503-.38.941-.84 1.298-1.36.166-.31.253-.655.253-1.006a2.298 2.298 0 00-.688-1.714 2.46 2.46 0 00-1.799-.673c-1.446 0-2.296.83-2.55 2.493H8.763zm5.206 9.647h-1.852v-1.853h1.853l-.001 1.853z" fill="#575B6D"/></svg><svg fill="none" viewBox="0 0 32 39" id="icon-modal_page" xmlns="http://www.w3.org/2000/svg"><path d="M24.2 3.394L6.079.259.311 33.602l25.66 4.438 4.464-25.805L24.2 3.394z" fill="#00C8C8"/><path d="M30.435 12.235L24.2 3.393l-5.334-.922L13.1 35.813 25.97 38.04l4.464-25.805z" fill="#1CADB5"/><path d="M22.9 10.931l7.537 1.304-6.234-8.841L22.9 10.93z" fill="#02818E"/><path d="M7.336 15.428l-2.63 15.2 18.123 3.136 2.63-15.201-18.123-3.135zm5.885 15.14l-6.605-1.142.325-1.877 6.605 1.143-.325 1.877zm.587-3.392l-6.605-1.142.324-1.877 6.605 1.143-.324 1.877zm.622-3.595L7.825 22.44l.324-1.877 6.605 1.143-.324 1.876zm.586-3.392l-6.605-1.142.325-1.877 6.605 1.143-.325 1.876zm6.612 11.834l-6.605-1.143.324-1.876 6.605 1.142-.325 1.877zm.586-3.393l-6.605-1.142.325-1.876 6.605 1.142-.325 1.877zm.622-3.595l-6.605-1.142.325-1.877 6.605 1.143-.325 1.876zm.587-3.392l-6.605-1.142.324-1.877 6.605 1.143-.324 1.876z" fill="#0092AA"/><path d="M25.462 18.563l-9.103-1.575-2.629 15.2 9.103 1.575 2.629-15.2zm-3.831 13.46l-6.605-1.143.324-1.877 6.605 1.143-.324 1.876zm.587-3.393l-6.606-1.142.325-1.877 6.605 1.143-.325 1.876zm.621-3.595l-6.605-1.142.325-1.877 6.605 1.143-.325 1.876zm.587-3.392l-6.605-1.142.325-1.877 6.605 1.143-.325 1.876z" fill="#02818E"/></svg><svg fill="none" viewBox="0 0 33 30" id="icon-modal_tel" xmlns="http://www.w3.org/2000/svg"><path d="M12.31 17.498c2.713 2.714 5.74 4.104 6.747 3.097l1.27-1.27a2.481 2.481 0 013.507 0l2.805 2.805a3.47 3.47 0 010 4.908l-1.973 1.973c-2.445 2.444-9.77-.917-16.36-7.509-3.295-3.297-5.783-6.776-7.142-9.736C-.195 8.805-.426 6.363.798 5.14l1.973-1.973a3.47 3.47 0 014.909 0l2.805 2.804a2.48 2.48 0 010 3.507l-1.271 1.27c-1.008 1.008.38 4.035 3.095 6.75z" fill="#575B6D"/><path d="M32.497 1.298v9.033a1.297 1.297 0 01-1.298 1.298h-9.573l-3.932 3.437v-3.438H16.34a1.298 1.298 0 01-1.298-1.298V1.298A1.298 1.298 0 0116.34 0h14.858a1.298 1.298 0 011.3 1.298z" fill="#EEEFEE"/><path d="M19.885 5.814a1.176 1.176 0 11-2.352 0 1.176 1.176 0 012.352 0zM24.947 5.814a1.176 1.176 0 11-2.353 0 1.176 1.176 0 012.353 0zM30.007 5.814a1.177 1.177 0 11-2.354 0 1.177 1.177 0 012.354 0z" fill="#575B6D"/></svg><svg fill="none" viewBox="0 0 56 56" id="icon-money" xmlns="http://www.w3.org/2000/svg"><path d="M28.73 30.562a.875.875 0 00-.315-.01 2.088 2.088 0 01-1.847-2.071.919.919 0 00-1.837 0 3.93 3.93 0 002.889 3.783v.919a.919.919 0 001.837 0v-.863a3.922 3.922 0 00-.804-7.762 2.086 2.086 0 112.086-2.085.919.919 0 001.837 0 3.93 3.93 0 00-3.119-3.84v-.836a.919.919 0 00-1.837 0v.892a3.923 3.923 0 001.033 7.706 2.084 2.084 0 01.077 4.167z" fill="url(#jpaint0_linear)"/><path d="M15.336 25.548c0 7.356 5.963 13.32 13.32 13.32s13.32-5.964 13.32-13.32c0-7.357-5.963-13.32-13.32-13.32-7.353.008-13.311 5.967-13.32 13.32zm13.32-11.483c6.342 0 11.483 5.14 11.483 11.483 0 6.342-5.141 11.483-11.483 11.483-6.342 0-11.483-5.141-11.483-11.483.007-6.34 5.144-11.476 11.483-11.483z" fill="url(#jpaint1_linear)"/><path d="M46.505 41.132l-7.196 3.4a5.86 5.86 0 00-4.996-3.083l-6.643-.183a7.017 7.017 0 01-3.019-.78l-.676-.35a11.922 11.922 0 00-11.043.012l.043-1.531a.919.919 0 00-.893-.944l-7.284-.2a.918.918 0 00-.944.892l-.44 15.985a.919.919 0 00.893.943l7.284.2h.025a.919.919 0 00.919-.893l.021-.764 1.892-1.014a3.246 3.246 0 012.423-.265l11.3 3.172.06.015a12.256 12.256 0 007.603-.861.86.86 0 00.114-.063L52.33 44.222c.409-.264.54-.8.301-1.223a4.64 4.64 0 00-6.127-1.867zM5.276 53.482l.39-14.148 5.447.15-.39 14.149-5.447-.15zm29.73-.24c-1.995.9-4.224 1.149-6.369.71l-11.27-3.163a5.08 5.08 0 00-3.786.414l-.967.518.26-9.406a10.097 10.097 0 0110.257-.547l.676.35a8.87 8.87 0 003.813.985l6.643.182a4.029 4.029 0 013.829 3.21l-9.895-.272a.92.92 0 00-.05 1.836l10.92.3h.025a.918.918 0 00.917-.893c.011-.399-.018-.798-.089-1.191l7.38-3.488a2.807 2.807 0 013.195.434l-15.489 10.02z" fill="url(#jpaint2_linear)"/><path d="M29.572 9.645V.919a.919.919 0 00-1.838 0v8.726a.919.919 0 001.837 0z" fill="url(#jpaint3_linear)"/><path d="M36.462 9.645V5.51a.919.919 0 00-1.837 0v4.134a.919.919 0 001.837 0z" fill="url(#jpaint4_linear)"/><path d="M22.685 9.645V5.51a.919.919 0 00-1.837 0v4.134a.919.919 0 101.837 0z" fill="url(#jpaint5_linear)"/><defs><linearGradient id="jpaint0_linear" x1="25.734" y1="18.314" x2="34.921" y2="18.575" gradientUnits="userSpaceOnUse"><stop offset=".012" stop-color="#FAC336"/><stop offset="1" stop-color="#F6A103"/></linearGradient><linearGradient id="jpaint1_linear" x1="18.742" y1="14.447" x2="49.842" y2="16.387" gradientUnits="userSpaceOnUse"><stop offset=".012" stop-color="#FAC336"/><stop offset="1" stop-color="#F6A103"/></linearGradient><linearGradient id="jpaint2_linear" x1="9.723" y1="39.016" x2="65.99" y2="48.362" gradientUnits="userSpaceOnUse"><stop offset=".012" stop-color="#FAC336"/><stop offset="1" stop-color="#F6A103"/></linearGradient><linearGradient id="jpaint3_linear" x1="27.969" y1=".88" x2="30.122" y2=".904" gradientUnits="userSpaceOnUse"><stop offset=".012" stop-color="#FAC336"/><stop offset="1" stop-color="#F6A103"/></linearGradient><linearGradient id="jpaint4_linear" x1="34.86" y1="5.09" x2="37.012" y2="5.132" gradientUnits="userSpaceOnUse"><stop offset=".012" stop-color="#FAC336"/><stop offset="1" stop-color="#F6A103"/></linearGradient><linearGradient id="jpaint5_linear" x1="21.083" y1="5.09" x2="23.235" y2="5.132" gradientUnits="userSpaceOnUse"><stop offset=".012" stop-color="#FAC336"/><stop offset="1" stop-color="#F6A103"/></linearGradient></defs></svg><svg fill="none" viewBox="0 0 43 43" id="icon-pageServices" xmlns="http://www.w3.org/2000/svg"><path d="M26.455 7.643H16.377a1.26 1.26 0 100 2.52h10.078a1.26 1.26 0 000-2.52z" fill="url(#kpaint0_linear)"/><path d="M26.455 12.682H16.377a1.26 1.26 0 000 2.52h10.078a1.26 1.26 0 000-2.52z" fill="url(#kpaint1_linear)"/><path d="M26.455 17.72H6.3a1.26 1.26 0 000 2.52h20.156a1.26 1.26 0 000-2.52z" fill="url(#kpaint2_linear)"/><path d="M21.888 22.76H6.298a1.26 1.26 0 100 2.52h15.59a1.26 1.26 0 000-2.52z" fill="url(#kpaint3_linear)"/><path d="M32.838 22.76V3.78c0-2.09-1.772-3.78-3.863-3.78H11.338c-.32 0-.648.126-.894.373L.364 10.535a1.272 1.272 0 00-.365.887V39.22A3.784 3.784 0 003.78 43h29.058C38.4 43 43 38.42 43 32.838c0-5.557-4.559-10.078-10.162-10.078zM10.078 4.32v5.842H4.283l5.795-5.843zM3.78 40.48c-.694 0-1.26-.565-1.26-1.26V12.683h8.819a1.26 1.26 0 001.26-1.26V2.52h16.377c.715 0 1.343.588 1.343 1.26v19.293A10.194 10.194 0 0024.04 27.8H6.299a1.26 1.26 0 000 2.52h16.698a9.984 9.984 0 00-.321 2.519H6.299a1.26 1.26 0 000 2.52h16.696c.51 1.97 1.61 3.745 3.182 5.123H3.779zm29.059 0c-4.143 0-7.643-3.5-7.643-7.642 0-4.168 3.429-7.559 7.643-7.559s7.642 3.391 7.642 7.559c0 4.143-3.5 7.642-7.642 7.642z" fill="url(#kpaint4_linear)"/><path d="M37.6 30.695a1.26 1.26 0 00-1.782-.015l-4.247 4.177-1.72-1.665a1.26 1.26 0 10-1.752 1.81l2.603 2.52a1.26 1.26 0 001.76-.007l5.123-5.039a1.26 1.26 0 00.014-1.781z" fill="url(#kpaint5_linear)"/><defs><linearGradient id="kpaint0_linear" x1="16.728" y1="7.853" x2="30.183" y2="12.049" gradientUnits="userSpaceOnUse"><stop offset=".012" stop-color="#FAC336"/><stop offset="1" stop-color="#F6A103"/></linearGradient><linearGradient id="kpaint1_linear" x1="16.728" y1="12.892" x2="30.183" y2="17.088" gradientUnits="userSpaceOnUse"><stop offset=".012" stop-color="#FAC336"/><stop offset="1" stop-color="#F6A103"/></linearGradient><linearGradient id="kpaint2_linear" x1="7.939" y1="17.931" x2="28.145" y2="29.274" gradientUnits="userSpaceOnUse"><stop offset=".012" stop-color="#FAC336"/><stop offset="1" stop-color="#F6A103"/></linearGradient><linearGradient id="kpaint3_linear" x1="7.355" y1="22.97" x2="25.026" y2="30.892" gradientUnits="userSpaceOnUse"><stop offset=".012" stop-color="#FAC336"/><stop offset="1" stop-color="#F6A103"/></linearGradient><linearGradient id="kpaint4_linear" x1="5.498" y1="3.583" x2="55.696" y2="6.714" gradientUnits="userSpaceOnUse"><stop offset=".012" stop-color="#FAC336"/><stop offset="1" stop-color="#F6A103"/></linearGradient><linearGradient id="kpaint5_linear" x1="29.025" y1="30.948" x2="40.948" y2="31.956" gradientUnits="userSpaceOnUse"><stop offset=".012" stop-color="#FAC336"/><stop offset="1" stop-color="#F6A103"/></linearGradient></defs></svg><svg fill="none" viewBox="0 0 31 31" id="icon-phone" xmlns="http://www.w3.org/2000/svg"><path d="M23.936 19.052c-.615-.628-1.357-.964-2.143-.964-.78 0-1.528.33-2.169.958l-2.003 1.96c-.165-.087-.33-.168-.489-.249a8.072 8.072 0 01-.627-.33c-1.877-1.17-3.583-2.694-5.219-4.666-.792-.983-1.325-1.811-1.712-2.65.52-.468 1.002-.953 1.471-1.42.178-.174.355-.354.533-.529 1.332-1.306 1.332-2.999 0-4.305L9.847 5.158c-.197-.193-.4-.392-.59-.59-.38-.387-.78-.785-1.192-1.158-.615-.598-1.35-.915-2.124-.915-.773 0-1.522.317-2.156.915l-.012.012-2.156 2.134A4.517 4.517 0 00.24 8.45c-.152 1.817.393 3.509.812 4.617 1.027 2.719 2.561 5.238 4.85 7.939 2.777 3.254 6.119 5.824 9.936 7.634 1.458.679 3.405 1.481 5.58 1.618.133.007.272.013.4.013 1.464 0 2.694-.517 3.658-1.543.006-.013.019-.02.025-.032.33-.392.71-.746 1.11-1.126.272-.255.551-.522.824-.802.628-.641.957-1.388.957-2.153 0-.772-.336-1.512-.976-2.134l-3.481-3.429zm2.27 6.552c-.006 0-.006.006 0 0-.247.261-.501.498-.774.76-.412.385-.83.79-1.223 1.244-.64.672-1.395.989-2.384.989-.096 0-.197 0-.292-.006-1.883-.119-3.633-.84-4.946-1.456a28.094 28.094 0 01-9.359-7.193c-2.162-2.557-3.607-4.922-4.565-7.46-.59-1.55-.805-2.757-.71-3.895a2.834 2.834 0 01.875-1.848L4.99 4.617c.31-.286.64-.442.964-.442.4 0 .723.237.926.436l.019.018c.386.355.754.722 1.14 1.114.197.2.4.398.603.604l1.731 1.698c.672.66.672 1.27 0 1.93-.184.18-.361.36-.545.534a32.804 32.804 0 01-1.592 1.518c-.012.013-.025.02-.031.032-.546.535-.444 1.057-.33 1.412l.02.056c.45 1.07 1.083 2.078 2.047 3.279l.006.006c1.75 2.116 3.596 3.765 5.63 5.028.26.162.527.292.78.417.23.112.445.217.629.33.025.012.05.03.076.043.215.106.418.155.627.155.527 0 .856-.323.964-.429l2.169-2.128c.215-.211.558-.466.957-.466.393 0 .717.242.913.454l.013.012 3.494 3.429c.653.634.653 1.288.006 1.947zM16.431 7.802a8.093 8.093 0 014.375 2.228 7.882 7.882 0 012.27 4.293c.07.41.431.697.843.697.051 0 .096-.006.146-.013.47-.074.78-.51.704-.97a9.537 9.537 0 00-2.745-5.196 9.844 9.844 0 00-5.295-2.694.86.86 0 00-.989.684.832.832 0 00.691.971zM30.198 13.795c-.564-3.248-2.124-6.204-4.52-8.556A16.195 16.195 0 0016.959.803a.851.851 0 00-.983.684c-.076.46.235.89.704.97a14.501 14.501 0 017.793 3.964c2.143 2.103 3.538 4.748 4.039 7.647.07.411.43.697.843.697.05 0 .095-.006.146-.012a.826.826 0 00.697-.958z" fill="#fff"/></svg><svg fill="none" viewBox="0 0 66 67" id="icon-services_01" xmlns="http://www.w3.org/2000/svg"><path d="M65.94 7.55H51.063V4.314h-4.25V0H19.189v4.314h-4.25V7.55H.064v6.472H14.94v2.157h-3.627l-3.187 3.236H.065v2.157h8.94l3.187-3.236H19.19c0 1.784 1.43 3.236 3.187 3.236h1.685l2.565 2.604V45.3c0 2.206 1.314 4.1 3.187 4.935v15.146L33.002 67l3.187-1.618V50.236a5.399 5.399 0 003.188-4.935V24.175l2.565-2.603h1.685c1.757 0 3.187-1.452 3.187-3.236h4.25v-4.314H65.94V7.55zM5.376 11.864H2.189V9.707h3.188v2.157zm9.562 0H7.502V9.707h7.437v2.157zm4.25 4.315h-2.125V6.47h2.125v9.708zm14.875 47.87l-1.062.54-1.063-.54V50.694h2.125v13.355zm0-15.512h-2.125c-1.757 0-3.188-1.452-3.188-3.236v-3.236h8.5v3.236c0 1.784-1.43 3.236-3.187 3.236zm-5.313-14.022v-9.708h8.5v9.708H36.19v2.157h1.062v3.236h-8.5v-3.236h5.313v-2.157h-5.313zm15.938-30.2h-2.125v2.157h2.125v11.864c0 .594-.477 1.079-1.062 1.079h-2.565l-3.188 3.235H28.13l-3.187-3.235h-2.565a1.072 1.072 0 01-1.063-1.079V6.471h18.063V4.314H21.314V2.157H44.69v2.157zm4.25 3.235v8.629h-2.125V6.471h2.125v1.08zm9.563 4.314h-7.438V9.707h7.438v2.157zm5.312 0h-3.187V9.707h3.187v2.157z" fill="#303030"/><path d="M27.688 11.864h-2.125v2.157h2.125v-2.157zM31.938 11.864h-2.125v2.157h2.125v-2.157zM36.188 11.864h-2.126v2.157h2.126v-2.157zM40.438 11.864h-2.126v2.157h2.126v-2.157z" fill="#303030"/></svg><svg fill="none" viewBox="0 0 66 66" id="icon-services_02" xmlns="http://www.w3.org/2000/svg"><path d="M43.94 27.823l1.834-1.834V21.29H42.58v-7.624L38.026 0h-10.05l-4.557 13.666v7.624h-3.193v4.699l1.834 1.834c-1.684 2.705-7.157 12.261-7.157 22.21 0 5.885.841 10.373 1.546 13.101A3.813 3.813 0 0020.136 66h2.672a3.81 3.81 0 003.619-4.98c-.456-1.4-1.943-6.56-1.943-14.181 0-7.172 6.304-15.032 8.516-17.57 2.213 2.537 8.516 10.389 8.516 17.57 0 7.622-1.487 12.781-1.943 14.181A3.81 3.81 0 0043.191 66h2.673a3.812 3.812 0 003.687-2.866c.705-2.728 1.546-7.216 1.546-13.102 0-9.948-5.473-19.504-7.157-22.209zM34.064 2.13h2.426l3.961 11.882v2.343a9.57 9.57 0 00-6.387-3.521V9.385a3.19 3.19 0 002.13-2.998 3.19 3.19 0 00-2.13-2.998V2.13zM33 5.323c.587 0 1.065.478 1.065 1.064 0 .587-.478 1.065-1.065 1.065a1.066 1.066 0 01-1.065-1.065c0-.586.478-1.064 1.065-1.064zM22.355 46.839c0 7.936 1.567 13.365 2.047 14.838a1.677 1.677 0 01-1.594 2.194h-2.672a1.684 1.684 0 01-1.626-1.27c-.674-2.608-1.478-6.907-1.478-12.569 0-6.311 2.438-12.606 4.49-16.79l4.423 2.211C24 38.85 22.355 42.88 22.355 46.84zm9.58-19.58a49.323 49.323 0 00-4.88 6.37l-4.56-2.28c1.022-1.894 1.784-3.04 1.807-3.075l.49-.729-2.437-2.438V23.42h2.063l7.518.94v2.9zm-6.387-5.844v-7.404L29.51 2.13h2.425v1.26a3.19 3.19 0 00-2.129 2.998 3.19 3.19 0 002.13 2.998v5.518H33c3.793 0 6.926 2.85 7.387 6.52L33 22.348l-7.452-.932zm8.517 5.843v-2.899l7.518-.94h2.062v1.689l-2.438 2.437.491.728c.023.035.787 1.181 1.808 3.075l-4.56 2.28a49.329 49.329 0 00-4.881-6.37zM47.49 62.602a1.684 1.684 0 01-1.627 1.269h-2.672a1.677 1.677 0 01-1.593-2.192c.48-1.476 2.047-6.905 2.047-14.84 0-3.96-1.645-7.99-3.59-11.386l4.425-2.213c2.052 4.182 4.488 10.473 4.488 16.792 0 5.662-.804 9.96-1.478 12.57z" fill="#303030"/></svg><svg fill="none" viewBox="0 0 65 65" id="icon-services_03" xmlns="http://www.w3.org/2000/svg"><path d="M29.776 13.039l-2.449-.817.36-1.264A7.283 7.283 0 0023.38 2.17l-.995-.397-2.933 7.823-2.448-.816L20.186 0h-2.928C11.17 0 6.215 4.955 6.215 11.044c0 3.287 1.448 6.38 3.974 8.484l2.316 1.93v2.622l-1.048 32.533v1.048c0 4.046 3.291 7.339 7.338 7.339 4.047 0 7.339-3.293 7.339-7.339V56.58l-1.049-32.467v-2.866l4.691-8.208zm-6.22-8.42a5.191 5.191 0 012.117 5.763l-.336 1.177-3.896-1.298 2.115-5.642zm.481 51.994v1.048a5.248 5.248 0 01-5.242 5.242 5.248 5.248 0 01-5.242-5.242v-1.014l1.049-32.534v-3.636l-3.07-2.559a8.924 8.924 0 01-3.22-6.874c0-4.912 3.978-8.913 8.883-8.947l-2.897 7.993 12.388 4.13-3.697 6.469v3.457l1.048 32.467z" fill="#303030"/><path d="M18.795 54.516a3.15 3.15 0 00-3.146 3.145 3.15 3.15 0 003.146 3.146 3.15 3.15 0 003.145-3.146 3.149 3.149 0 00-3.145-3.145zm0 4.194a1.05 1.05 0 010-2.097 1.05 1.05 0 010 2.097zM14.987 12.303l-1.712 5.134 8.28 2.76 1.712-5.134-8.28-2.76zm5.242 5.242l-4.301-1.434.385-1.156 4.301 1.433-.385 1.157zM18.795 23.064a3.15 3.15 0 00-3.146 3.146v23.064a3.15 3.15 0 003.146 3.145 3.15 3.15 0 003.145-3.145V26.21a3.149 3.149 0 00-3.145-3.146zm1.048 26.21a1.05 1.05 0 01-2.097 0V26.21c0-.578.47-1.049 1.049-1.049.577 0 1.048.471 1.048 1.049v23.064zM52.96 20.968l5.824-10.484L52.96 0H41.243l-5.825 10.484 5.825 10.484h11.716zM42.475 2.097h9.25l4.659 8.387-4.66 8.387h-9.25l-4.658-8.387 4.659-8.387z" fill="#303030"/><path d="M47.103 16.774c3.469 0 6.29-2.82 6.29-6.29 0-3.469-2.821-6.29-6.29-6.29a6.297 6.297 0 00-6.29 6.29c0 3.47 2.82 6.29 6.29 6.29zm0-10.484a4.198 4.198 0 014.193 4.194 4.198 4.198 0 01-4.193 4.194 4.198 4.198 0 01-4.194-4.194 4.198 4.198 0 014.194-4.194zM35.57 35.645h5.241V65h12.581V35.645h5.242V25.161H35.57v10.484zm16.773-8.387h4.194v6.29h-4.194v-6.29zm-8.387 0h6.29v6.29h-6.29v-6.29zm-1.048 8.387h8.387v1.237l-8.387 1.678v-2.915zm0 5.053l8.387-1.677v3.103L42.908 43.8v-3.103zm0 5.242l8.387-1.677v3.103l-8.387 1.677V45.94zm0 5.242l8.387-1.677v3.103l-8.387 1.677v-3.103zm0 5.242l8.387-1.677v3.103l-8.387 1.677v-3.103zm0 5.242l8.387-1.677v2.914h-8.387v-1.237zm-5.242-34.408h4.194v6.29h-4.194v-6.29z" fill="#303030"/></svg><svg fill="none" viewBox="0 0 73 73" id="icon-services_04" xmlns="http://www.w3.org/2000/svg"><path d="M1.14 63.875h70.72c.63 0 1.14-.51 1.14-1.14v-22.81a4.571 4.571 0 00-4.566-4.566H55.677a3.415 3.415 0 00-3.208-2.273h-4.54c-.008 0-.015-.005-.023-.005a3.426 3.426 0 01-3.422-3.421V17.11c0-4.402-3.582-7.985-7.984-7.985s-7.984 3.583-7.984 7.984v12.55a3.426 3.426 0 01-3.422 3.422c-.008 0-.015.005-.023.005h-4.54a3.415 3.415 0 00-3.208 2.273H4.566c-.01 0-.02.006-.03.006A4.566 4.566 0 000 39.925v22.809c0 .631.51 1.141 1.14 1.141zm69.579-5.703H2.28v-9.127H70.72v9.127zM2.28 61.594v-1.14H70.72v1.14H2.28zM30.797 29.66V17.11a5.71 5.71 0 015.703-5.704 5.71 5.71 0 015.703 5.703v12.55a5.707 5.707 0 005.659 5.7c.016 0 .028.008.044.008h4.563c.63 0 1.14.511 1.14 1.141v5.698H19.391v-5.698c0-.63.51-1.14 1.14-1.14h4.563c.016 0 .028-.009.044-.01a5.707 5.707 0 005.659-5.698zM4.562 37.644l.018-.003h12.53v5.706c0 .63.51 1.14 1.14 1.14h36.5c.63 0 1.14-.51 1.14-1.14v-5.706h12.544a2.287 2.287 0 012.285 2.284v6.838H2.28v-6.838a2.284 2.284 0 012.281-2.281z" fill="#303030"/><path d="M36.5 20.53a3.426 3.426 0 003.422-3.422 3.426 3.426 0 00-3.422-3.422 3.426 3.426 0 00-3.422 3.422A3.426 3.426 0 0036.5 20.53zm0-4.563a1.141 1.141 0 110 2.282 1.141 1.141 0 010-2.282z" fill="#303030"/></svg><svg fill="none" viewBox="0 0 55 55" id="icon-services_05" xmlns="http://www.w3.org/2000/svg"><path d="M2.661 0v55H52.34V0H2.66zm47.903 53.226H4.435V1.774h46.13v51.452z" fill="#303030"/><path d="M9.314 44.355a3.108 3.108 0 003.105-3.105v-6.653a.887.887 0 011.774 0v.444a3.108 3.108 0 003.105 3.105 3.108 3.108 0 003.105-3.105v-3.105c0-.49.397-.887.887-.887h1.774v.548l1.593.796a3.53 3.53 0 00-1.593 2.962v10.774a4.44 4.44 0 004.436 4.436 4.44 4.44 0 004.435-4.436v-8.87h.887c.49 0 .887.397.887.887v3.105a3.108 3.108 0 003.105 3.105 3.108 3.108 0 003.105-3.105v-6.21c0-.734.597-1.33 1.331-1.33s1.33.596 1.33 1.33v3.548a3.108 3.108 0 003.106 3.105 3.108 3.108 0 003.105-3.105V9.76h-4.436V4.436h-33.71v.887H9.314a3.108 3.108 0 00-3.105 3.105v32.823a3.108 3.108 0 003.105 3.104zM29.18 33.768c.605.303.98.911.98 1.587V46.13a2.665 2.665 0 01-2.66 2.661 2.665 2.665 0 01-2.662-2.661V35.355c0-.677.376-1.284.98-1.587l.794-.397v-1.983l-1.774-.887v-1.226h5.322V30.5l-1.773.887v1.983l.793.397zm16.505 6.152c-.734 0-1.331-.597-1.331-1.33v-3.55a3.108 3.108 0 00-3.105-3.104 3.108 3.108 0 00-3.105 3.105v6.21c0 .733-.597 1.33-1.33 1.33-.734 0-1.331-.597-1.331-1.33v-3.105a2.665 2.665 0 00-2.661-2.662h-.888v-.13c0-1.208-.6-2.31-1.593-2.961l1.593-.796V27.5h-3.548v-2.833l18.629-4.05V38.59c0 .734-.596 1.33-1.33 1.33zM12.419 6.21h30.16v8.871H12.42v-8.87zM7.983 8.428c0-.734.597-1.33 1.33-1.33h1.332v9.757h33.71v-5.322h2.66v7.269l-20.403 4.435v4.264h-3.548v1.774H21.29a2.665 2.665 0 00-2.662 2.661v3.105c0 .734-.597 1.33-1.33 1.33-.734 0-1.33-.596-1.33-1.33v-.443a2.665 2.665 0 00-2.662-2.662 2.665 2.665 0 00-2.662 2.662v6.653c0 .733-.597 1.33-1.33 1.33-.734 0-1.331-.597-1.331-1.33V8.428z" fill="#303030"/></svg><svg fill="none" viewBox="0 0 55 54" id="icon-services_06" xmlns="http://www.w3.org/2000/svg"><path d="M5.156 5.906c.475 0 .86-.378.86-.843a.852.852 0 00-.86-.844.852.852 0 00-.86.843c0 .466.386.844.86.844zM11.172 5.906c.474 0 .86-.378.86-.843a.852.852 0 00-.86-.844.852.852 0 00-.86.843c0 .466.385.844.86.844zM18.047 5.906c.474 0 .86-.378.86-.843a.852.852 0 00-.86-.844.852.852 0 00-.86.843c0 .466.385.844.86.844zM24.063 5.906c.474 0 .859-.378.859-.843a.852.852 0 00-.86-.844.852.852 0 00-.859.843c0 .466.385.844.86.844z" fill="#303030"/><path d="M53.281.844H1.72a.868.868 0 00-.608.247.836.836 0 00-.252.597v50.624c0 .224.09.439.252.597.161.158.38.247.608.247H53.28a.867.867 0 00.608-.247.836.836 0 00.252-.596V1.687a.836.836 0 00-.252-.596.867.867 0 00-.608-.247zM28.36 26.156V15.188h24.063v10.968H28.359zm-1.718 12.657H2.578v-10.97h24.063v10.97zM52.42 13.5H28.36V2.531h24.063V13.5zM26.642 2.531v23.625H15.469V2.531H26.64zm-24.063 0H13.75v23.625H2.578V2.531zm0 37.969h24.063v10.969H2.578V40.5zM28.36 51.469V27.844h11.172v23.625H28.36zm24.063 0H41.25V27.844h11.172v23.625z" fill="#303030"/><path d="M49.844 5.906c.474 0 .86-.378.86-.843a.852.852 0 00-.86-.844.852.852 0 00-.86.843c0 .466.385.844.86.844zM49.844 11.813c.474 0 .86-.378.86-.844a.852.852 0 00-.86-.844.852.852 0 00-.86.844c0 .466.385.844.86.844zM49.844 18.563c.474 0 .86-.378.86-.844a.852.852 0 00-.86-.844.852.852 0 00-.86.844c0 .466.385.843.86.843zM49.844 24.469c.474 0 .86-.378.86-.844a.852.852 0 00-.86-.844.852.852 0 00-.86.844c0 .466.385.844.86.844zM24.063 22.781a.867.867 0 00.607-.247.836.836 0 00.252-.596V11.813a.836.836 0 00-.252-.597.867.867 0 00-1.215 0 .836.836 0 00-.252.597v10.124c0 .224.09.439.252.597.161.158.38.247.608.247zM30.938 5.906h6.875a.868.868 0 00.607-.247.836.836 0 000-1.193.868.868 0 00-.608-.247h-6.874a.868.868 0 00-.608.247.836.836 0 000 1.193c.161.158.38.247.608.247zM49.844 49.781c.474 0 .86-.377.86-.843a.852.852 0 00-.86-.844.852.852 0 00-.86.843c0 .467.385.844.86.844zM43.828 49.781c.475 0 .86-.377.86-.843a.852.852 0 00-.86-.844.852.852 0 00-.86.843c0 .467.385.844.86.844zM36.953 49.781c.475 0 .86-.377.86-.843a.852.852 0 00-.86-.844.852.852 0 00-.86.843c0 .467.385.844.86.844zM30.938 49.781c.474 0 .859-.377.859-.843a.852.852 0 00-.86-.844.852.852 0 00-.859.843c0 .467.385.844.86.844zM5.156 49.781c.475 0 .86-.377.86-.843a.852.852 0 00-.86-.844.852.852 0 00-.86.843c0 .467.386.844.86.844zM5.156 43.875c.475 0 .86-.378.86-.844a.852.852 0 00-.86-.843.852.852 0 00-.86.843c0 .466.386.844.86.844zM5.156 37.125c.475 0 .86-.378.86-.844a.852.852 0 00-.86-.843.852.852 0 00-.86.843c0 .466.386.844.86.844zM5.156 31.219c.475 0 .86-.378.86-.844a.852.852 0 00-.86-.844.852.852 0 00-.86.844c0 .466.386.844.86.844zM30.938 31.219a.867.867 0 00-.608.247.836.836 0 00-.252.596v10.126c0 .223.09.438.252.596a.867.867 0 001.215 0 .836.836 0 00.252-.596V32.062a.836.836 0 00-.252-.596.867.867 0 00-.608-.247zM24.063 48.094h-6.875a.867.867 0 00-.608.247.836.836 0 000 1.193c.161.158.38.247.608.247h6.875a.867.867 0 00.607-.247.836.836 0 000-1.193.867.867 0 00-.608-.247z" fill="#303030"/></svg><svg fill="none" viewBox="0 0 31 30" id="icon-tel" xmlns="http://www.w3.org/2000/svg"><path d="M24.486 18.534c-.634-.63-1.4-.966-2.212-.966-.805 0-1.577.33-2.238.96l-2.069 1.963c-.17-.087-.34-.168-.504-.25-.235-.111-.458-.217-.648-.33-1.937-1.172-3.698-2.699-5.386-4.675-.818-.985-1.368-1.814-1.768-2.655.537-.468 1.035-.954 1.519-1.421.183-.175.367-.356.55-.53 1.374-1.31 1.374-3.005 0-4.314L9.943 4.614a26.637 26.637 0 01-.609-.592 30.232 30.232 0 00-1.23-1.16c-.635-.598-1.394-.916-2.193-.916-.798 0-1.57.318-2.225.917l-.013.012-2.226 2.138C.61 5.811.132 6.783.027 7.912c-.157 1.82.406 3.516.838 4.625 1.06 2.724 2.644 5.249 5.007 7.954a30.634 30.634 0 0010.256 7.649c1.506.68 3.515 1.483 5.76 1.62.137.007.281.013.412.013 1.512 0 2.782-.517 3.777-1.546.006-.012.02-.019.026-.031.34-.393.733-.748 1.145-1.129.282-.255.57-.523.851-.804.648-.642.989-1.39.989-2.157 0-.772-.347-1.514-1.008-2.138l-3.594-3.434zm2.344 6.564c-.007 0-.007.006 0 0-.256.262-.517.498-.799.76-.425.387-.857.792-1.263 1.247-.661.673-1.44.991-2.461.991-.098 0-.203 0-.301-.006-1.944-.119-3.75-.842-5.105-1.459a28.917 28.917 0 01-9.661-7.206c-2.232-2.562-3.724-4.93-4.713-7.474-.609-1.552-.831-2.761-.733-3.902.066-.73.36-1.334.903-1.851L4.93 4.072c.321-.287.661-.443.995-.443.413 0 .746.237.956.437l.02.018c.399.356.778.723 1.178 1.116.202.2.412.4.621.605l1.787 1.702c.694.66.694 1.271 0 1.932-.19.18-.373.362-.563.536a33.451 33.451 0 01-1.643 1.521c-.013.012-.026.019-.032.031-.563.536-.458 1.06-.34 1.415l.019.056c.465 1.072 1.12 2.082 2.114 3.285l.007.007c1.806 2.12 3.71 3.771 5.812 5.036.268.162.543.293.805.418.236.112.458.218.648.33.026.013.052.032.078.044.223.106.432.156.648.156.544 0 .884-.324.995-.43l2.239-2.132c.222-.212.576-.468.988-.468.406 0 .74.244.943.455l.013.013 3.606 3.435c.674.635.674 1.29.007 1.95zM16.737 7.263a8.447 8.447 0 014.516 2.232c1.244 1.184 2.049 2.668 2.343 4.3.073.412.446.7.871.7.052 0 .098-.007.15-.013.485-.075.806-.512.727-.973-.353-1.976-1.335-3.777-2.834-5.205a10.274 10.274 0 00-5.465-2.699c-.485-.075-.936.23-1.021.686a.837.837 0 00.713.972zM30.953 13.266c-.583-3.254-2.193-6.215-4.667-8.57-2.474-2.357-5.583-3.89-9-4.445a.877.877 0 00-1.014.685c-.079.462.242.892.726.973 3.05.492 5.832 1.87 8.044 3.97 2.212 2.107 3.652 4.757 4.17 7.662.072.411.445.698.87.698.052 0 .098-.007.15-.013.478-.068.806-.505.72-.96z" fill="#fff"/></svg><svg fill="none" viewBox="0 0 37 36" id="icon-years" xmlns="http://www.w3.org/2000/svg"><g clip-path="url(#tclip0)"><path d="M35.916 16.945c-.599 0-1.084.473-1.084 1.055 0 8.762-7.327 15.89-16.332 15.89-9.006 0-16.332-7.128-16.332-15.89S9.494 2.11 18.5 2.11c2.746 0 5.417.663 7.802 1.927l-1.355 1.318c-.31.302-.403.756-.236 1.15.168.394.564.65 1.002.65H30.9c.598 0 1.084-.471 1.084-1.054V1.055c0-.427-.265-.811-.67-.975a1.106 1.106 0 00-1.18.229l-2.242 2.18A18.82 18.82 0 0018.5 0C13.558 0 8.913 1.872 5.418 5.272 1.924 8.672 0 13.192 0 18s1.924 9.328 5.418 12.728C8.913 34.128 13.558 36 18.5 36c4.941 0 9.587-1.872 13.081-5.272C35.075 27.328 37 22.808 37 18c0-.582-.486-1.055-1.084-1.055z" fill="url(#tpaint0_linear)"/><path d="M25.464 16.945h-5.882v-5.723c0-.583-.485-1.055-1.084-1.055-.599 0-1.084.472-1.084 1.055V18c0 .582.485 1.054 1.084 1.054h6.966c.599 0 1.084-.472 1.084-1.054 0-.583-.485-1.055-1.084-1.055z" fill="url(#tpaint1_linear)"/></g><defs><linearGradient id="tpaint0_linear" x1="4.731" y1="3" x2="47.915" y2="5.768" gradientUnits="userSpaceOnUse"><stop offset=".012" stop-color="#FAC336"/><stop offset="1" stop-color="#F6A103"/></linearGradient><linearGradient id="tpaint1_linear" x1="18.582" y1="10.908" x2="29.243" y2="11.591" gradientUnits="userSpaceOnUse"><stop offset=".012" stop-color="#FAC336"/><stop offset="1" stop-color="#F6A103"/></linearGradient><clipPath id="tclip0"><path fill="#fff" d="M0 0h37v36H0z"/></clipPath></defs></svg></svg>