<svg width="66" height="66" viewBox="0 0 66 66" fill="none" xmlns="http://www.w3.org/2000/svg">
<path d="M43.9399 27.8232L45.7741 25.989V21.2902H42.5805V13.6661L38.0255 0H27.9755L23.4194 13.6661V21.2902H20.2258V25.989L22.06 27.8232C20.376 30.5281 14.9033 40.0843 14.9033 50.0322C14.9033 55.918 15.7443 60.4059 16.4489 63.1343C16.8844 64.8217 18.4012 66 20.1363 66H22.8082C24.9053 66 26.6127 64.2925 26.6127 62.1954C26.6127 61.7962 26.5499 61.4014 26.4265 61.0203C25.9709 59.6204 24.4839 54.4607 24.4839 46.8388C24.4839 39.6672 30.7879 31.8068 32.9999 29.2691C35.2131 31.8059 41.516 39.6576 41.516 46.8388C41.516 54.4607 40.029 59.6204 39.5734 61.0203C39.45 61.4014 39.3872 61.7962 39.3872 62.1954C39.3872 64.2925 41.0946 66 43.1917 66H45.8636C47.5987 66 49.1157 64.8217 49.551 63.1343C50.2556 60.4059 51.0966 55.918 51.0966 50.0322C51.0964 40.0843 45.6239 30.5281 43.9399 27.8232ZM34.0643 2.12907H36.4902L40.4512 14.0111V16.3541C38.9034 14.4358 36.6393 13.1191 34.0643 12.8328V9.38476C35.3003 8.94414 36.1933 7.77298 36.1933 6.38698C36.1933 5.00099 35.3003 3.83004 34.0643 3.38921V2.12907ZM32.9999 5.32267C33.5865 5.32267 34.0645 5.80062 34.0645 6.38721C34.0645 6.97379 33.5865 7.45174 32.9999 7.45174C32.4134 7.45174 31.9354 6.97379 31.9354 6.38721C31.9352 5.80062 32.4131 5.32267 32.9999 5.32267ZM22.3548 46.8386C22.3548 54.7746 23.9219 60.2036 24.4019 61.6768C24.4573 61.8483 24.4839 62.0175 24.4839 62.1952C24.4839 63.1191 23.7323 63.8707 22.8084 63.8707H20.1361C19.3718 63.8707 18.7023 63.3492 18.5096 62.6018C17.8358 59.9928 17.0319 55.6942 17.0319 50.032C17.0319 43.7206 19.4697 37.4261 21.5221 33.2413L25.9452 35.4533C23.9993 38.8495 22.3548 42.8796 22.3548 46.8386ZM31.9356 27.2581C31.166 28.0968 29.0827 30.4729 27.0549 33.6281L22.4957 31.349C23.5166 29.4553 24.2787 28.3087 24.3022 28.2736L24.7917 27.5455L22.3548 25.1075V23.4193H24.418L31.9356 24.3593V27.2581ZM25.5484 21.4152V14.0111L29.5095 2.12907H31.9354V3.38943C30.6994 3.83004 29.8063 5.00121 29.8063 6.38721C29.8063 7.7732 30.6994 8.94414 31.9354 9.38498V14.9035H32.9999C36.7929 14.9035 39.9257 17.7533 40.3866 21.4237L32.9999 22.3467L25.5484 21.4152ZM34.0645 27.2578V24.3593L41.5831 23.4193H43.6451V25.1075L41.2073 27.5453L41.698 28.2734C41.7214 28.3085 42.4846 29.454 43.5056 31.3476L38.9452 33.6278C36.9174 30.4727 34.8342 28.0966 34.0645 27.2578ZM47.4899 62.6018C47.2972 63.3492 46.6276 63.8707 45.8633 63.8707H43.1915C42.2676 63.8707 41.516 63.1191 41.516 62.1952C41.516 62.0175 41.5426 61.8483 41.598 61.6788C42.0782 60.2034 43.6451 54.7743 43.6451 46.8384C43.6451 42.8794 42.0004 38.8492 40.0544 35.4533L44.4796 33.2402C46.532 37.4217 48.9675 43.713 48.9675 50.0318C48.9677 55.6942 48.1639 59.9928 47.4899 62.6018Z" fill="#303030"/>
</svg>
