<svg width="66" height="67" viewBox="0 0 66 67" fill="none" xmlns="http://www.w3.org/2000/svg">
<path d="M65.9391 7.55007H51.0641V4.31446H46.814V0H19.1891V4.31446H14.9392V7.5503H0.0644531V14.0218H14.9394V16.179H11.3119L8.12458 19.4146H0.0644531V21.5718H9.00435L12.1919 18.336H14.9394H16.002H19.1895C19.1895 20.1199 20.6197 21.5718 22.3771 21.5718H24.0621L26.6269 24.1755V39.9078V42.065V45.3009C26.6269 47.5066 27.9411 49.4017 29.8144 50.2364V65.3821L33.0018 67L36.1893 65.3821V50.2364C38.0624 49.4015 39.3769 47.5066 39.3769 45.3009V42.065V39.9078V24.1755L41.9417 21.5718H43.6267C45.384 21.5718 46.8142 20.1199 46.8142 18.336H51.0643V14.0218H65.9393L65.9391 7.55007ZM5.37681 11.8645H2.18926V9.7073H5.37681V11.8645ZM14.9392 11.8645H7.50184V9.7073H14.9392V11.8645ZM19.1891 16.1788H17.064V14.0218V7.55007V6.47146H19.1891V16.1788ZM34.0643 64.0489L33.0018 64.5882L31.9392 64.0489V50.694H34.0643V64.0489ZM34.064 48.5367H31.939C30.1817 48.5367 28.7515 47.0848 28.7515 45.3009V42.065H37.2514V45.3009H37.2516C37.2516 47.0848 35.8216 48.5367 34.064 48.5367ZM28.7515 34.5147V24.8074H37.2514V34.5147H36.1889V36.672H37.2514V39.9078H28.7515V36.672H34.064V34.5147H28.7515ZM44.6892 4.31446H42.5642V6.47168H44.6892V18.3362C44.6892 18.9303 44.2122 19.4146 43.6267 19.4146H41.0619L37.8743 22.6504H28.1292L24.9416 19.4146H22.3768C21.7914 19.4146 21.3143 18.9303 21.3143 18.336V6.47146H39.3766V4.31423H21.3141V2.15723H44.689V4.31446H44.6892ZM48.939 7.55007V14.0215V16.179H46.814V6.47146H48.939V7.55007ZM58.5015 11.8645H51.0641V9.7073H58.5015V11.8645ZM63.8143 11.8645H63.814H60.6267V9.7073H63.8143V11.8645Z" fill="#303030"/>
<path d="M27.6875 11.8643H25.5625V14.0215H27.6875V11.8643Z" fill="#303030"/>
<path d="M31.9375 11.8643H29.8125V14.0215H31.9375V11.8643Z" fill="#303030"/>
<path d="M36.1875 11.8643H34.0625V14.0215H36.1875V11.8643Z" fill="#303030"/>
<path d="M40.4375 11.8643H38.3125V14.0215H40.4375V11.8643Z" fill="#303030"/>
</svg>
