<svg width="55" height="54" viewBox="0 0 55 54" fill="none" xmlns="http://www.w3.org/2000/svg">
<path d="M5.15625 5.90625C5.63087 5.90625 6.01562 5.52849 6.01562 5.0625C6.01562 4.59651 5.63087 4.21875 5.15625 4.21875C4.68163 4.21875 4.29688 4.59651 4.29688 5.0625C4.29688 5.52849 4.68163 5.90625 5.15625 5.90625Z" fill="#303030"/>
<path d="M11.1719 5.90625C11.6465 5.90625 12.0312 5.52849 12.0312 5.0625C12.0312 4.59651 11.6465 4.21875 11.1719 4.21875C10.6973 4.21875 10.3125 4.59651 10.3125 5.0625C10.3125 5.52849 10.6973 5.90625 11.1719 5.90625Z" fill="#303030"/>
<path d="M18.0469 5.90625C18.5215 5.90625 18.9062 5.52849 18.9062 5.0625C18.9062 4.59651 18.5215 4.21875 18.0469 4.21875C17.5723 4.21875 17.1875 4.59651 17.1875 5.0625C17.1875 5.52849 17.5723 5.90625 18.0469 5.90625Z" fill="#303030"/>
<path d="M24.0625 5.90625C24.5371 5.90625 24.9219 5.52849 24.9219 5.0625C24.9219 4.59651 24.5371 4.21875 24.0625 4.21875C23.5879 4.21875 23.2031 4.59651 23.2031 5.0625C23.2031 5.52849 23.5879 5.90625 24.0625 5.90625Z" fill="#303030"/>
<path d="M53.2812 0.84375H1.71875C1.49083 0.84375 1.27224 0.932645 1.11108 1.09088C0.949916 1.24911 0.859375 1.46372 0.859375 1.6875V52.3125C0.859375 52.5363 0.949916 52.7509 1.11108 52.9091C1.27224 53.0674 1.49083 53.1562 1.71875 53.1562H53.2812C53.5092 53.1562 53.7278 53.0674 53.8889 52.9091C54.0501 52.7509 54.1406 52.5363 54.1406 52.3125V1.6875C54.1406 1.46372 54.0501 1.24911 53.8889 1.09088C53.7278 0.932645 53.5092 0.84375 53.2812 0.84375ZM28.3594 26.1562V15.1875H52.4219V26.1562H28.3594ZM26.6406 38.8125H2.57812V27.8438H26.6406V38.8125ZM52.4219 13.5H28.3594V2.53125H52.4219V13.5ZM26.6406 2.53125V26.1562H15.4688V2.53125H26.6406ZM2.57812 2.53125H13.75V26.1562H2.57812V2.53125ZM2.57812 40.5H26.6406V51.4688H2.57812V40.5ZM28.3594 51.4688V27.8438H39.5312V51.4688H28.3594ZM52.4219 51.4688H41.25V27.8438H52.4219V51.4688Z" fill="#303030"/>
<path d="M49.8438 5.90625C50.3184 5.90625 50.7031 5.52849 50.7031 5.0625C50.7031 4.59651 50.3184 4.21875 49.8438 4.21875C49.3691 4.21875 48.9844 4.59651 48.9844 5.0625C48.9844 5.52849 49.3691 5.90625 49.8438 5.90625Z" fill="#303030"/>
<path d="M49.8438 11.8125C50.3184 11.8125 50.7031 11.4347 50.7031 10.9688C50.7031 10.5028 50.3184 10.125 49.8438 10.125C49.3691 10.125 48.9844 10.5028 48.9844 10.9688C48.9844 11.4347 49.3691 11.8125 49.8438 11.8125Z" fill="#303030"/>
<path d="M49.8438 18.5625C50.3184 18.5625 50.7031 18.1847 50.7031 17.7188C50.7031 17.2528 50.3184 16.875 49.8438 16.875C49.3691 16.875 48.9844 17.2528 48.9844 17.7188C48.9844 18.1847 49.3691 18.5625 49.8438 18.5625Z" fill="#303030"/>
<path d="M49.8438 24.4688C50.3184 24.4688 50.7031 24.091 50.7031 23.625C50.7031 23.159 50.3184 22.7812 49.8438 22.7812C49.3691 22.7812 48.9844 23.159 48.9844 23.625C48.9844 24.091 49.3691 24.4688 49.8438 24.4688Z" fill="#303030"/>
<path d="M24.0625 22.7812C24.2904 22.7812 24.509 22.6924 24.6702 22.5341C24.8313 22.3759 24.9219 22.1613 24.9219 21.9375V11.8125C24.9219 11.5887 24.8313 11.3741 24.6702 11.2159C24.509 11.0576 24.2904 10.9688 24.0625 10.9688C23.8346 10.9688 23.616 11.0576 23.4548 11.2159C23.2937 11.3741 23.2031 11.5887 23.2031 11.8125V21.9375C23.2031 22.1613 23.2937 22.3759 23.4548 22.5341C23.616 22.6924 23.8346 22.7812 24.0625 22.7812Z" fill="#303030"/>
<path d="M30.9375 5.90625H37.8125C38.0404 5.90625 38.259 5.81736 38.4202 5.65912C38.5813 5.50089 38.6719 5.28628 38.6719 5.0625C38.6719 4.83872 38.5813 4.62411 38.4202 4.46588C38.259 4.30765 38.0404 4.21875 37.8125 4.21875H30.9375C30.7096 4.21875 30.491 4.30765 30.3298 4.46588C30.1687 4.62411 30.0781 4.83872 30.0781 5.0625C30.0781 5.28628 30.1687 5.50089 30.3298 5.65912C30.491 5.81736 30.7096 5.90625 30.9375 5.90625Z" fill="#303030"/>
<path d="M49.8438 49.7812C50.3184 49.7812 50.7031 49.4035 50.7031 48.9375C50.7031 48.4715 50.3184 48.0938 49.8438 48.0938C49.3691 48.0938 48.9844 48.4715 48.9844 48.9375C48.9844 49.4035 49.3691 49.7812 49.8438 49.7812Z" fill="#303030"/>
<path d="M43.8281 49.7812C44.3027 49.7812 44.6875 49.4035 44.6875 48.9375C44.6875 48.4715 44.3027 48.0938 43.8281 48.0938C43.3535 48.0938 42.9688 48.4715 42.9688 48.9375C42.9688 49.4035 43.3535 49.7812 43.8281 49.7812Z" fill="#303030"/>
<path d="M36.9531 49.7812C37.4277 49.7812 37.8125 49.4035 37.8125 48.9375C37.8125 48.4715 37.4277 48.0938 36.9531 48.0938C36.4785 48.0938 36.0938 48.4715 36.0938 48.9375C36.0938 49.4035 36.4785 49.7812 36.9531 49.7812Z" fill="#303030"/>
<path d="M30.9375 49.7812C31.4121 49.7812 31.7969 49.4035 31.7969 48.9375C31.7969 48.4715 31.4121 48.0938 30.9375 48.0938C30.4629 48.0938 30.0781 48.4715 30.0781 48.9375C30.0781 49.4035 30.4629 49.7812 30.9375 49.7812Z" fill="#303030"/>
<path d="M5.15625 49.7812C5.63087 49.7812 6.01562 49.4035 6.01562 48.9375C6.01562 48.4715 5.63087 48.0938 5.15625 48.0938C4.68163 48.0938 4.29688 48.4715 4.29688 48.9375C4.29688 49.4035 4.68163 49.7812 5.15625 49.7812Z" fill="#303030"/>
<path d="M5.15625 43.875C5.63087 43.875 6.01562 43.4972 6.01562 43.0312C6.01562 42.5653 5.63087 42.1875 5.15625 42.1875C4.68163 42.1875 4.29688 42.5653 4.29688 43.0312C4.29688 43.4972 4.68163 43.875 5.15625 43.875Z" fill="#303030"/>
<path d="M5.15625 37.125C5.63087 37.125 6.01562 36.7472 6.01562 36.2812C6.01562 35.8153 5.63087 35.4375 5.15625 35.4375C4.68163 35.4375 4.29688 35.8153 4.29688 36.2812C4.29688 36.7472 4.68163 37.125 5.15625 37.125Z" fill="#303030"/>
<path d="M5.15625 31.2188C5.63087 31.2188 6.01562 30.841 6.01562 30.375C6.01562 29.909 5.63087 29.5312 5.15625 29.5312C4.68163 29.5312 4.29688 29.909 4.29688 30.375C4.29688 30.841 4.68163 31.2188 5.15625 31.2188Z" fill="#303030"/>
<path d="M30.9375 31.2188C30.7096 31.2188 30.491 31.3076 30.3298 31.4659C30.1687 31.6241 30.0781 31.8387 30.0781 32.0625V42.1875C30.0781 42.4113 30.1687 42.6259 30.3298 42.7841C30.491 42.9424 30.7096 43.0312 30.9375 43.0312C31.1654 43.0312 31.384 42.9424 31.5452 42.7841C31.7063 42.6259 31.7969 42.4113 31.7969 42.1875V32.0625C31.7969 31.8387 31.7063 31.6241 31.5452 31.4659C31.384 31.3076 31.1654 31.2188 30.9375 31.2188Z" fill="#303030"/>
<path d="M24.0625 48.0938H17.1875C16.9596 48.0938 16.741 48.1826 16.5798 48.3409C16.4187 48.4991 16.3281 48.7137 16.3281 48.9375C16.3281 49.1613 16.4187 49.3759 16.5798 49.5341C16.741 49.6924 16.9596 49.7812 17.1875 49.7812H24.0625C24.2904 49.7812 24.509 49.6924 24.6702 49.5341C24.8313 49.3759 24.9219 49.1613 24.9219 48.9375C24.9219 48.7137 24.8313 48.4991 24.6702 48.3409C24.509 48.1826 24.2904 48.0938 24.0625 48.0938Z" fill="#303030"/>
</svg>
