<svg width="36" height="36" viewBox="0 0 36 36" fill="none" xmlns="http://www.w3.org/2000/svg">
<path d="M13.0399 24.7042C19.4833 24.7042 24.7067 19.4808 24.7067 13.0374C24.7067 6.59401 19.4833 1.37061 13.0399 1.37061C6.59646 1.37061 1.37305 6.59401 1.37305 13.0374C1.37305 19.4808 6.59646 24.7042 13.0399 24.7042Z" fill="#EEEFEE"/>
<path d="M21.9043 24.7208L22.0548 24.8713L24.8806 22.0455L24.7301 21.895L21.9043 24.7208Z" fill="#475F6C"/>
<path d="M3.86388 3.8663C1.55385 6.17807 0.201108 9.27632 0.0759364 12.542C-0.049235 15.8078 1.06238 19.0005 3.18868 21.4823C5.31498 23.9641 8.2994 25.5523 11.5457 25.9295C14.7919 26.3067 18.061 25.4452 20.6997 23.5171L21.9033 24.7206L24.7291 21.8939L23.5256 20.6904C25.4483 18.0501 26.3049 14.7818 25.9242 11.5378C25.5436 8.29386 23.9538 5.31266 21.4721 3.18912C18.9904 1.06558 15.7993 -0.0441463 12.5355 0.0813725C9.27165 0.206891 6.17517 1.55843 3.86388 3.8663ZM20.8288 20.8312C19.2882 22.3719 17.3253 23.4212 15.1883 23.8463C13.0514 24.2714 10.8363 24.0533 8.82335 23.2195C6.81036 22.3857 5.08982 20.9738 3.87932 19.1621C2.66881 17.3505 2.02271 15.2206 2.02271 13.0418C2.02271 10.8629 2.66881 8.73303 3.87932 6.92141C5.08982 5.10978 6.81036 3.6978 8.82335 2.86402C10.8363 2.03024 13.0514 1.81212 15.1883 2.23723C17.3253 2.66234 19.2882 3.71159 20.8288 5.2523C22.888 7.32174 24.044 10.1224 24.044 13.0418C24.044 15.9612 22.888 18.7618 20.8288 20.8312Z" fill="#575B6D"/>
<path d="M34.6418 29.3855L25.5699 21.5503L21.5527 25.5687L29.38 34.6451C29.715 35.0336 30.1265 35.3487 30.5887 35.5709C31.051 35.7932 31.5542 35.9176 32.0667 35.9365C32.5793 35.9555 33.0902 35.8685 33.5677 35.681C34.0451 35.4935 34.4787 35.2095 34.8413 34.8468C35.2042 34.4843 35.4883 34.0508 35.676 33.5734C35.8637 33.0961 35.9509 32.5852 35.9322 32.0726C35.9134 31.5601 35.7892 31.0569 35.5672 30.5945C35.3452 30.1322 35.0301 29.7206 34.6418 29.3855Z" fill="#8E8E8E"/>
<path d="M26.5549 21.3147C26.7007 21.4571 26.7906 21.6471 26.8083 21.8502C26.826 22.0532 26.7704 22.2559 26.6516 22.4215C26.6254 22.4655 26.5928 22.5053 26.5549 22.5397L22.5365 26.5577C22.5026 26.5961 22.4627 26.6288 22.4183 26.6544C22.2391 26.7729 22.0225 26.8214 21.8098 26.7905C21.5971 26.7596 21.4033 26.6516 21.2651 26.4869C21.127 26.3222 21.0544 26.1125 21.061 25.8977C21.0676 25.6829 21.153 25.478 21.301 25.3222L25.3194 21.3037C25.4009 21.2227 25.4977 21.1587 25.6041 21.1154C25.7106 21.0721 25.8245 21.0503 25.9394 21.0513C26.0544 21.0523 26.1679 21.0761 26.2736 21.1213C26.3792 21.1665 26.4748 21.2322 26.5549 21.3147Z" fill="#FFE8C8"/>
<path d="M8.76172 10.1303C8.78764 9.59942 8.91798 9.07885 9.1453 8.5984C9.37262 8.11794 9.69244 7.68702 10.0865 7.3303C10.911 6.62517 11.9707 6.25625 13.0549 6.29693C14.1728 6.2448 15.2706 6.607 16.138 7.31412C16.5166 7.62973 16.8191 8.02677 17.0229 8.47561C17.2266 8.92445 17.3264 9.41351 17.3148 9.9063C17.319 10.4797 17.1807 11.0451 16.9123 11.5517C16.5173 12.2015 16.0037 12.7713 15.3982 13.2313C14.8517 13.6275 14.3879 14.1265 14.0327 14.7004C13.8291 15.2851 13.743 15.9042 13.7794 16.5222H12.1887C12.1394 15.6826 12.272 14.8422 12.5776 14.0586C12.9406 13.4135 13.4277 12.8465 14.0108 12.3904C14.5139 12.0098 14.9521 11.5503 15.3085 11.0298C15.4753 10.7207 15.5624 10.3748 15.5618 10.0236C15.5719 9.70597 15.5161 9.38974 15.3978 9.09484C15.2795 8.79994 15.1013 8.5328 14.8745 8.3103C14.6351 8.08307 14.3525 7.90632 14.0434 7.79057C13.7344 7.67482 13.4052 7.62244 13.0755 7.63655C11.6288 7.63655 10.7789 8.4678 10.5257 10.1303H8.76172ZM13.968 19.7772H12.116V17.9239H13.9693L13.968 19.7772Z" fill="#575B6D"/>
</svg>
