<svg width="55" height="55" viewBox="0 0 55 55" fill="none" xmlns="http://www.w3.org/2000/svg">
<path d="M2.66113 0V55H52.3386V0H2.66113ZM50.5644 53.2258H4.43518V1.77423H50.5642V53.2258H50.5644Z" fill="#303030"/>
<path d="M9.31389 44.3553C11.0259 44.3553 12.4188 42.9626 12.4188 41.2504V34.5972C12.4188 34.1074 12.8161 33.7101 13.3059 33.7101C13.7957 33.7101 14.193 34.1074 14.193 34.5972V35.0408C14.193 36.7528 15.5857 38.1457 17.2979 38.1457C19.0101 38.1457 20.4028 36.7529 20.4028 35.0408V31.9359C20.4028 31.4461 20.8002 31.0487 21.2899 31.0487H23.0642V31.597L24.6573 32.3926C23.6655 33.0456 23.0642 34.1456 23.0642 35.3547V46.1293C23.0642 48.5751 25.0539 50.5649 27.4997 50.5649C29.9455 50.5649 31.9353 48.5751 31.9353 46.1293V37.2585H32.8224C33.3122 37.2585 33.7095 37.6559 33.7095 38.1457V41.2506C33.7095 42.9626 35.1022 44.3555 36.8144 44.3555C38.5266 44.3555 39.9193 42.9628 39.9193 41.2506V35.0409C39.9193 34.3073 40.5164 33.7103 41.25 33.7103C41.9836 33.7103 42.5807 34.3073 42.5807 35.0409V38.5894C42.5807 40.3014 43.9734 41.6943 45.6856 41.6943C47.3978 41.6943 48.7905 40.3016 48.7905 38.5894V20.2316V18.6295V9.75854H44.3549V4.43604H10.6446V5.32315H9.31389C7.60188 5.32315 6.20898 6.71586 6.20898 8.42805V41.2506C6.20898 42.9626 7.60169 44.3553 9.31389 44.3553ZM29.1804 33.768C29.7846 34.0706 30.1607 34.679 30.1607 35.355V46.1297C30.1607 47.5969 28.9666 48.791 27.4994 48.791C26.0321 48.791 24.838 47.5969 24.838 46.1297V35.355C24.838 34.6782 25.2141 34.0706 25.8183 33.768L26.6122 33.3714V31.3878L24.838 30.5007V29.2747H30.1605V30.5007H30.1607L28.3865 31.3878V33.3714L29.1804 33.768ZM45.6847 39.9199C44.951 39.9199 44.354 39.3228 44.354 38.5892V35.0408C44.354 33.3287 42.9613 31.9359 41.2491 31.9359C39.5369 31.9359 38.1442 33.3286 38.1442 35.0408V41.2504C38.1442 41.984 37.5471 42.581 36.8135 42.581C36.0799 42.581 35.4828 41.984 35.4828 41.2504V38.1455C35.4828 36.6782 34.2887 35.4841 32.8215 35.4841H31.9344V35.3547C31.9344 34.1456 31.3338 33.0447 30.3412 32.3926L31.9344 31.597V27.5005H28.3859V24.667L47.015 20.6174V38.5892H47.0153C47.0153 39.3228 46.4185 39.9199 45.6847 39.9199ZM12.4186 6.21008H42.5799V15.081H12.4186V6.21008ZM7.98303 8.42787C7.98321 7.69425 8.58027 7.09719 9.31389 7.09719H10.6446V16.8553H44.3542V11.5328H47.0155V18.6295V18.8016L26.6122 23.2372V27.5006H23.064V29.2749H21.2897C19.8225 29.2749 18.6284 30.469 18.6284 31.9362V35.0411C18.6284 35.7747 18.0313 36.3718 17.2977 36.3718C16.5641 36.3718 15.9671 35.7747 15.9671 35.0411V34.5976C15.9671 33.1303 14.7729 31.9362 13.3057 31.9362C11.8385 31.9362 10.6444 33.1303 10.6444 34.5976V41.2507C10.6444 41.9844 10.0473 42.5814 9.3137 42.5814C8.58009 42.5814 7.98303 41.9844 7.98303 41.2507V8.42787Z" fill="#303030"/>
</svg>
