<svg width="37" height="36" viewBox="0 0 37 36" fill="none" xmlns="http://www.w3.org/2000/svg">
<g clip-path="url(#clip0)">
<path d="M35.9159 16.9453C35.3172 16.9453 34.8319 17.4175 34.8319 18C34.8319 26.762 27.5054 33.8905 18.5 33.8905C9.49449 33.8905 2.16803 26.762 2.16803 18C2.16803 9.23788 9.49449 2.10943 18.5 2.10943C21.246 2.10943 23.9171 2.77282 26.3016 4.03689L24.9465 5.35546C24.6364 5.6571 24.5437 6.11068 24.7114 6.50485C24.8792 6.89895 25.2745 7.15594 25.7129 7.15594H30.8996C31.4982 7.15594 31.9836 6.68372 31.9836 6.10126V1.05475C31.9836 0.628164 31.7195 0.243627 31.3144 0.0803624C30.9092 -0.0829726 30.443 0.00730814 30.1331 0.309017L27.8916 2.48989C25.0524 0.858858 21.8243 0.000136291 18.4999 0.000136291C13.5584 0.000136291 8.91261 1.87248 5.41844 5.27214C1.92428 8.67194 0 13.1921 0 18C0 22.808 1.92428 27.3281 5.41844 30.7279C8.91268 34.1277 13.5584 36 18.4999 36C23.4414 36 28.0871 34.1277 31.5813 30.7279C35.0755 27.3281 36.9997 22.808 36.9997 18C36.9998 17.4175 36.5145 16.9453 35.9159 16.9453Z" fill="url(#paint0_linear)"/>
<path d="M25.4643 16.9451H19.582V11.2217C19.582 10.6392 19.0967 10.167 18.498 10.167C17.8994 10.167 17.4141 10.6392 17.4141 11.2217V17.9998C17.4141 18.5822 17.8994 19.0544 18.498 19.0544H25.4643C26.063 19.0544 26.5483 18.5822 26.5483 17.9998C26.5483 17.4173 26.063 16.9451 25.4643 16.9451Z" fill="url(#paint1_linear)"/>
</g>
<defs>
<linearGradient id="paint0_linear" x1="4.73111" y1="2.99999" x2="47.9147" y2="5.76825" gradientUnits="userSpaceOnUse">
<stop offset="0.0119048" stop-color="#FAC336"/>
<stop offset="1" stop-color="#F6A103"/>
</linearGradient>
<linearGradient id="paint1_linear" x1="18.582" y1="10.9076" x2="29.2429" y2="11.591" gradientUnits="userSpaceOnUse">
<stop offset="0.0119048" stop-color="#FAC336"/>
<stop offset="1" stop-color="#F6A103"/>
</linearGradient>
<clipPath id="clip0">
<rect width="37" height="36" fill="white"/>
</clipPath>
</defs>
</svg>
