<svg width="58" height="58" viewBox="0 0 58 58" fill="none" xmlns="http://www.w3.org/2000/svg">
<path d="M56.2969 5.10352H57.9997V6.80637H56.2969V5.10352Z" fill="#303030"/>
<path d="M52.8349 0.0518713V17.9375H46.0905V16.2379H37.5762V14.7779L34.2576 13.6237H34.1705V12.1586L30.8461 11.0505H0V16.1679H1.70285V12.7533H3.51922V24.6733H1.70285V17.8707H0V26.3761H3.51922V41.7195H3.48392L1.75961 48.4232V53.6393H22.2129V45.5752L15.4392 41.7341V38.4859L16.8699 33.2631H22.2129V26.376H30.8406L34.1707 25.3142V23.8406H34.2406L37.5762 22.8255V21.3431H46.0905V19.6402H52.8348V57.9487H57.9999V8.50925H56.297V56.2458H54.5378V1.75461H56.2971V3.4007H58V0.0517578H52.8349V0.0518713ZM20.51 48.493H17.0853V50.1958H20.5099V51.9365H3.46246V50.1958H11.9767V48.493H3.49993L4.8042 43.4222H14.9641L20.51 46.5672V48.493ZM13.7363 38.2568V41.7194H5.22208V26.376H16.991L13.7363 38.2568ZM20.51 31.5603H17.3364L18.7566 26.376H20.51V31.5603ZM35.8734 21.5638L34.1705 22.082V20.4918H32.4677V24.07L30.5756 24.6733H5.22208V12.7533H30.5699L32.4678 13.3859V18.7133H34.1707V15.3964L35.8735 15.9886V21.5638H35.8734ZM37.5762 19.6402V17.9408H39.2792V19.6402H37.5762ZM44.3876 19.6402H40.9821V17.9408H44.3876V19.6402Z" fill="#303030"/>
<path d="M13.6797 48.4927H15.3825V50.1955H13.6797V48.4927Z" fill="#303030"/>
<path d="M6.86816 14.4556H10.2739V16.1584H6.86816V14.4556Z" fill="#303030"/>
<path d="M6.86816 17.9385H10.2739V19.6413H6.86816V17.9385Z" fill="#303030"/>
<path d="M6.86816 21.3057H10.2739V23.0085H6.86816V21.3057Z" fill="#303030"/>
<path d="M6.8877 28.0977H8.59055V29.8005H6.8877V28.0977Z" fill="#303030"/>
<path d="M6.8877 31.5601H8.59055V33.2629H6.8877V31.5601Z" fill="#303030"/>
<path d="M43.4789 27.2358H41.7761V28.9387H40.0732V30.6415H41.7761V32.3444H43.4789V30.6415H45.1818V28.9387H43.4789V27.2358Z" fill="#303030"/>
<path d="M41.7761 10.2072H43.4789V8.50433H45.1818V6.80148H43.4789V5.09863H41.7761V6.80148H40.0732V8.50433H41.7761V10.2072Z" fill="#303030"/>
</svg>
