<svg width="49" height="49" viewBox="0 0 49 49" fill="none" xmlns="http://www.w3.org/2000/svg">
<path d="M36.6248 44.6764L35.3909 41.4778L38.3511 40.3359L32.4799 23.3019L36.7532 19.0286L35.7361 18.0115L31.9585 21.7891L28.1952 10.8708C28.5782 10.2281 28.7991 9.47802 28.7991 8.67714C28.7991 7.11249 27.9585 5.74078 26.7056 4.98871V0.0327148H22.3904V4.93339C21.0848 5.67213 20.2009 7.07289 20.2009 8.67704C20.2009 9.49863 20.433 10.267 20.8345 10.9205L17.0737 21.7732L13.3118 18.0113L12.2948 19.0284L16.5502 23.2838L14.2211 30.005L15.5802 30.476L17.6808 24.4144L19.5267 26.2604L14.1746 40.1357L12.4618 39.475L15.0887 31.8943L13.7297 31.4233L10.6478 40.3169L13.6569 41.4775L12.4231 44.6761H0V48.9665H40.3219V47.5281H1.43836V46.1145H47.5616V47.5281H44.637V48.9665H49V44.6761H36.6248V44.6764ZM36.5393 39.4932L34.8733 40.1358L29.5213 26.2606L31.3486 24.4333L36.5393 39.4932ZM28.955 24.7925L25.2947 15.3034L26.3549 12.5549C26.6184 12.4283 26.8669 12.2752 27.0974 12.0999L30.827 22.9204L28.955 24.7925ZM26.2172 27.5303C25.8269 27.0216 25.2132 26.6926 24.524 26.6926C23.8347 26.6926 23.221 27.0216 22.8307 27.5303L21.2054 25.9049L24.524 17.3016L27.8425 25.9049L26.2172 27.5303ZM25.2192 28.8263C25.2192 29.2097 24.9073 29.5215 24.524 29.5215C24.1406 29.5215 23.8288 29.2097 23.8288 28.8263C23.8288 28.4429 24.1406 28.1311 24.524 28.1311C24.9073 28.1311 25.2192 28.4429 25.2192 28.8263ZM23.8288 4.37808V1.47107H25.2672V4.37808H23.8288ZM24.5 5.81644C26.0774 5.81644 27.3607 7.09974 27.3607 8.67714C27.3607 10.2275 25.8425 11.5378 24.5 11.5378C22.9226 11.5378 21.6393 10.2545 21.6393 8.67714C21.6393 7.09974 22.9226 5.81644 24.5 5.81644ZM18.2042 22.9038L21.9386 12.1275C22.7183 12.7078 23.6815 13.0064 24.6523 12.9723L20.0929 24.7925L18.2042 22.9038ZM20.6392 27.373L22.4148 29.1486C22.5706 30.1727 23.4571 30.9599 24.524 30.9599C25.5908 30.9599 26.4774 30.1727 26.6332 29.1486L28.4088 27.373L35.0831 44.6763H13.9648L20.6392 27.373Z" fill="#303030"/>
<path d="M41.7598 47.5283H43.1981V48.9667H41.7598V47.5283Z" fill="#303030"/>
<path d="M23.7812 7.97412H25.2196V9.38064H23.7812V7.97412Z" fill="#303030"/>
</svg>
