<svg width="47" height="47" viewBox="0 0 47 47" fill="none" xmlns="http://www.w3.org/2000/svg">
<g clip-path="url(#clip0)">
<path d="M35.9843 39.0627L35.9851 25.8565C35.9851 25.5035 35.8476 25.1718 35.5977 24.9221C35.348 24.6722 35.0157 24.5348 34.6621 24.5348H32.1562C31.8024 24.5348 31.4715 24.6722 31.2211 24.9221C31.0269 25.1176 30.9031 25.3624 30.8569 25.6272V22.201C30.8569 22.1497 30.8544 22.0991 30.8482 22.05C30.8882 21.6222 30.7182 21.1975 30.3878 20.9178L25.5928 16.8692C28.4368 15.1415 30.227 12.0183 30.227 8.65231C30.2278 5.00066 28.199 1.71169 24.9314 0.0685771C24.7333 -0.0303529 24.4979 -0.0215916 24.3086 0.0954087C24.12 0.211861 24.0047 0.417753 24.0047 0.639707L24.0041 8.01255H17.238V0.639889C17.238 0.417753 17.1228 0.212044 16.9341 0.0955913C16.7448 -0.0215916 16.5093 -0.0316306 16.3113 0.0687597C13.0452 1.71169 11.0156 5.00066 11.0156 8.65231C11.0156 12.2227 13.0278 15.5208 16.1766 17.1678L16.1761 24.5348H13.5276C12.7982 24.5361 12.2052 25.1287 12.2052 25.8565V28.1344C12.2052 28.3848 12.2794 28.6174 12.401 28.8178C12.2794 29.0177 12.2052 29.25 12.2052 29.5005V31.778C12.2052 32.0285 12.2789 32.2603 12.4003 32.4594C12.2756 32.6642 12.2052 32.8984 12.2057 33.1433L12.2052 35.4202C12.2052 35.6714 12.2794 35.9032 12.401 36.1036C12.2794 36.3035 12.2052 36.5358 12.2046 36.787V39.0644C12.2046 39.7921 12.7976 40.3855 13.527 40.3868H13.5276H16.1761V42.5548C16.1761 45.006 18.17 46.9999 20.6204 46.9999H20.6217C23.0721 46.9999 25.0664 45.006 25.0664 42.5548V39.8604C25.1013 39.9073 25.1363 39.9547 25.1789 39.9978C25.4293 40.2475 25.761 40.385 26.1145 40.385H29.5343C30.227 40.385 30.79 39.8485 30.8462 39.1702C30.9018 39.848 31.4653 40.385 32.1575 40.385H34.6597C34.661 40.385 34.6636 40.385 34.6647 40.385C35.0169 40.385 35.3493 40.247 35.599 39.9965C35.8476 39.7479 35.9843 39.4156 35.9843 39.0627ZM17.0883 16.1913C14.1761 14.8249 12.2948 11.8652 12.2948 8.65177C12.2948 5.84777 13.6752 3.29038 15.9587 1.75294V8.65231C15.9587 9.00569 16.2454 9.29189 16.5982 9.29189H24.6439C24.9962 9.29189 25.2835 9.0055 25.2835 8.65231V1.75294C27.568 3.29038 28.9483 5.84777 28.9477 8.65177C28.9477 11.8646 27.0662 14.8249 24.1542 16.1924C24.03 16.2508 23.93 16.346 23.8665 16.4616C23.8568 16.4638 23.8482 16.4692 23.8388 16.4718C23.7902 16.4846 23.744 16.5059 23.6971 16.5236C23.6528 16.5401 23.6068 16.553 23.5646 16.5755C23.4768 16.6202 23.3937 16.6739 23.3182 16.7379L18.3677 20.9185C17.8104 21.3893 17.7409 22.2253 18.2109 22.7825L19.6793 24.5222C19.6828 24.5264 19.6864 24.531 19.6895 24.5346H17.4547L17.4552 16.7713C17.4559 16.5225 17.313 16.2968 17.0883 16.1913ZM13.527 35.4635C13.5135 35.4635 13.5007 35.4667 13.488 35.4673L13.4845 35.4198L13.5283 33.0999H16.8388L20.0504 33.143L20.0077 35.4629L13.527 35.4635ZM13.4845 31.7775L13.5283 29.4563H16.8158L20.0518 29.4994L20.0084 31.8198L13.529 31.8206C13.5155 31.8206 13.5022 31.8239 13.4887 31.8244L13.4845 31.7775ZM13.5283 25.8129H16.8158L20.0518 25.8559L20.0084 28.1764H16.8164L13.4852 28.1333L13.5283 25.8129ZM13.5283 39.7467L13.4845 39.064L13.5283 36.7433H16.8395L20.0518 36.7864L20.0084 39.1071H16.8164C16.8158 39.1071 16.8158 39.1071 16.8151 39.1071H13.5283V39.7467ZM20.6204 45.7201C18.8749 45.7201 17.4554 44.2996 17.4554 42.5543L17.4559 40.3861H20.0075C20.7374 40.3861 21.3303 39.7927 21.3303 39.0638V36.7862C21.3303 36.6738 21.3118 36.5665 21.2856 36.4628C21.2779 36.4329 21.2675 36.404 21.2582 36.3748C21.2326 36.2985 21.201 36.2266 21.1629 36.1569C21.1539 36.1399 21.1501 36.1207 21.1399 36.1038C21.1483 36.0901 21.1514 36.0744 21.1589 36.0601C21.2005 35.9851 21.2344 35.9077 21.2607 35.8252C21.2699 35.7984 21.2779 35.7721 21.285 35.7447C21.3118 35.6392 21.3297 35.5317 21.3297 35.4206L21.3292 33.1437C21.3292 33.032 21.3107 32.9245 21.2845 32.8203C21.2768 32.7909 21.2669 32.7628 21.2576 32.7328C21.2321 32.656 21.2005 32.583 21.1614 32.5124C21.1527 32.4968 21.149 32.4775 21.1399 32.4618C21.1496 32.4468 21.1527 32.4288 21.1609 32.4125C21.2012 32.3395 21.2346 32.2632 21.2602 32.1831C21.2699 32.1551 21.2786 32.1269 21.2865 32.0982C21.312 31.9945 21.3297 31.8883 21.3292 31.779L21.3297 29.501C21.3297 29.3886 21.3113 29.2818 21.285 29.1776C21.2773 29.1476 21.2669 29.1188 21.2576 29.0896C21.2321 29.012 21.1999 28.939 21.1614 28.8684C21.1527 28.8528 21.149 28.8335 21.1392 28.8173C21.1488 28.8023 21.1527 28.7829 21.1614 28.7674C21.1998 28.6968 21.2321 28.6238 21.2569 28.5462C21.2662 28.5168 21.2766 28.4889 21.2843 28.4582C21.3106 28.354 21.329 28.247 21.329 28.1352L21.3295 25.8576C21.3295 25.769 21.3199 25.6822 21.3033 25.5984C21.2976 25.5705 21.2866 25.544 21.279 25.5161C21.2642 25.4617 21.2509 25.4073 21.2293 25.3562C21.2158 25.3242 21.1985 25.2956 21.1832 25.2649C21.1607 25.2213 21.1397 25.1762 21.1129 25.1349C21.093 25.105 21.0696 25.078 21.047 25.0501C21.024 25.0199 21.0035 24.9882 20.978 24.9601C21.0136 24.9513 21.0464 24.9343 21.0813 24.9232C21.0917 24.9201 21.1019 24.9157 21.1116 24.9124C21.1801 24.8894 21.2472 24.8657 21.3113 24.8319C21.3931 24.7901 21.4712 24.7409 21.5433 24.6797L23.7864 22.7858V42.5545C23.7864 44.2989 22.3667 45.7201 20.6204 45.7201ZM29.5774 39.062C29.5774 39.0872 29.5586 39.1058 29.5343 39.1058L26.0712 39.062V22.3373C26.0712 22.1493 25.9882 21.9703 25.8446 21.8489L24.8388 21.0007C24.8388 21.0001 24.789 20.9585 24.7877 20.958C24.7278 20.908 24.6621 20.8715 24.593 20.8464C24.5617 20.8351 24.5274 20.8359 24.4955 20.8298C24.4568 20.8231 24.4181 20.8103 24.3783 20.8103H24.3776C24.3232 20.8103 24.2695 20.8244 24.2164 20.8384C24.1983 20.8433 24.1793 20.8415 24.1615 20.8477C24.0914 20.8735 24.0249 20.9105 23.9656 20.9611L20.6582 23.6974L19.1941 21.8967L24.1857 17.7097C24.3022 17.7462 24.3829 17.7584 24.5006 17.7269C24.5168 17.7243 24.5957 17.7199 24.6123 17.7155L29.574 21.9363C29.5564 22.0254 29.5577 22.1137 29.5778 22.2019V39.062H29.5774ZM34.7052 39.0633C34.7052 39.0832 34.6838 39.1058 34.6645 39.1058L32.1146 39.0627L32.1571 25.8134L34.7055 25.8559L34.7052 39.0633Z" fill="#FAC234"/>
</g>
<defs>
<clipPath id="clip0">
<rect width="47" height="47" fill="white"/>
</clipPath>
</defs>
</svg>
