<svg width="57" height="57" viewBox="0 0 57 57" fill="none" xmlns="http://www.w3.org/2000/svg">
<g clip-path="url(#clip0)">
<path d="M1.67305 33.981H20.1318V32.308H1.67305V28.9279H30.9467V27.2548H22.5528V25.6223H26.7541V18.9404H18.5341V20.6135H25.081V23.9492H13.4028V20.6135H16.7495V18.9404H11.7297V25.6223H15.8567V27.2548H0V47.3091H46.9005V45.636H1.67305V33.981ZM17.5298 25.6224H20.8798V27.2549H17.5298V25.6224Z" fill="#303030"/>
<path d="M48.5732 45.6357H50.2463V47.3088H48.5732V45.6357Z" fill="#303030"/>
<path d="M44.5209 27.2549V28.9279H55.3266V40.6733H31.8428V42.3463H55.3266V45.636H51.9194V47.309H56.9996V27.2549H44.5209Z" fill="#303030"/>
<path d="M34.3486 18.3076H32.6608V19.9806H34.3486V22.7167H32.6608V24.3898H34.3486V27.2548H32.6608V28.9279H34.3486V32.8456L38.6347 36.4797H41.0447V33.2284H42.8107V31.5553H41.0447V28.9279H42.8107V27.2548H41.0447V24.4999H42.8107V22.8268H41.0447V16.3727H45.246V9.69092H40.2082V11.364H43.5729V14.6996H31.8947V11.364H38.5352V9.69092H30.2217V16.3726H34.3486V18.3076ZM36.0217 23.1789V21.0085L39.3717 23.9904V26.1732L36.0217 23.1789ZM39.3718 28.4172V30.5411L36.0218 27.7036V25.4229L39.3718 28.4172ZM39.2484 34.8066L36.0217 32.0707V29.8962L39.3717 32.7337V34.8066H39.2484ZM39.3718 16.3726V21.7506L36.0218 18.7688V16.3726H39.3718Z" fill="#303030"/>
<path d="M21.8047 32.3076H23.4777V33.9807H21.8047V32.3076Z" fill="#303030"/>
<path d="M28.4971 40.6733H30.1701V42.3464H28.4971V40.6733Z" fill="#303030"/>
</g>
<defs>
<clipPath id="clip0">
<rect width="57" height="57" fill="white"/>
</clipPath>
</defs>
</svg>
