<svg width="61" height="41" viewBox="0 0 61 41" fill="none" xmlns="http://www.w3.org/2000/svg">
<path d="M59.1462 34.8712C59.1462 29.1144 58.7426 23.7267 55.7686 18.6119C52.2639 12.5847 46.2899 8.20917 39.4709 6.73213V3.92947L36.1859 0.746094H24.6828L21.5291 3.94119V6.71933C14.6995 8.18071 8.69002 12.5508 5.18179 18.5884C2.20354 23.7139 1.79389 29.1025 1.79389 34.8713H0V40.2538H50.1756V38.4597H1.79412V36.6654H59.2059V38.4597H55.5579V40.2538H61V34.8713H59.1462V34.8712ZM49.8459 14.0677L47.7779 25.8985H44.0802L46.5831 11.5611C47.7476 12.301 48.8388 13.141 49.8459 14.0677ZM9.64737 15.5166L10.2242 18.8168L11.9916 18.5079L11.1981 13.9688C12.2078 13.0514 13.3002 12.2202 14.4657 11.4893L16.981 25.8984H13.2833L12.3051 20.3019L10.5377 20.6108L11.7757 27.6925H18.7783V25.7611L16.122 10.5443C17.8331 9.65907 19.6746 8.97814 21.6184 8.53666L24.2676 29.3673H25.8945V28.3638L23.3233 7.72093V4.6775L25.4328 2.54022H35.4592L37.6767 4.68922V7.71854L37.1916 11.3677L38.9701 11.6041L39.3761 8.54946C41.3417 9.0011 43.2024 9.69818 44.9288 10.6041L42.2962 25.6847L42.283 25.7613V27.6928H49.2857L51.3938 15.6324C56.2159 20.8588 57.3522 26.4206 57.3522 34.8714H3.58801C3.58801 24.2077 5.85961 19.6733 9.64737 15.5166Z" fill="#303030"/>
<path d="M51.9697 38.4595H53.7638V40.2536H51.9697V38.4595Z" fill="#303030"/>
<path d="M34.9863 28.3591V29.3674H36.6086L38.7319 13.3981L36.9534 13.1616L34.9863 28.3591Z" fill="#303030"/>
<path d="M25.0576 6.04346H26.8517V7.83758H25.0576V6.04346Z" fill="#303030"/>
<path d="M28.6465 6.04346H30.4406V7.83758H28.6465V6.04346Z" fill="#303030"/>
</svg>
