<svg width="43" height="43" viewBox="0 0 43 43" fill="none" xmlns="http://www.w3.org/2000/svg">
<path d="M26.4551 7.64258H16.377C15.6812 7.64258 15.1172 8.20662 15.1172 8.90234C15.1172 9.59807 15.6812 10.1621 16.377 10.1621H26.4551C27.1508 10.1621 27.7148 9.59807 27.7148 8.90234C27.7148 8.20662 27.1508 7.64258 26.4551 7.64258Z" fill="url(#paint0_linear)"/>
<path d="M26.4551 12.6816H16.377C15.6812 12.6816 15.1172 13.2457 15.1172 13.9414C15.1172 14.6371 15.6812 15.2012 16.377 15.2012H26.4551C27.1508 15.2012 27.7148 14.6371 27.7148 13.9414C27.7148 13.2457 27.1508 12.6816 26.4551 12.6816Z" fill="url(#paint1_linear)"/>
<path d="M26.4551 17.7207H6.29883C5.6031 17.7207 5.03906 18.2847 5.03906 18.9805C5.03906 19.6762 5.6031 20.2402 6.29883 20.2402H26.4551C27.1508 20.2402 27.7148 19.6762 27.7148 18.9805C27.7148 18.2847 27.1508 17.7207 26.4551 17.7207Z" fill="url(#paint2_linear)"/>
<path d="M21.8882 22.7598H6.29883C5.6031 22.7598 5.03906 23.3238 5.03906 24.0195C5.03906 24.7153 5.6031 25.2793 6.29883 25.2793H21.8882C22.5839 25.2793 23.1479 24.7153 23.1479 24.0195C23.1479 23.3238 22.5839 22.7598 21.8882 22.7598Z" fill="url(#paint3_linear)"/>
<path d="M32.8379 22.7598V3.7793C32.8379 1.69044 31.0662 0 28.9746 0H11.3377C11.0183 0 10.6898 0.126313 10.4435 0.372723L0.365332 10.5348C0.133787 10.7682 0 11.0928 0 11.4219V39.2207C0 41.3046 1.69539 43 3.7793 43C6.43707 43 7.31957 43 7.31579 43C11.1793 43 18.7818 43 32.8379 43C38.4004 43 43 38.42 43 32.8379C43 27.2808 38.4413 22.7598 32.8379 22.7598ZM10.0781 4.31906V10.1621H4.28337L10.0781 4.31906ZM3.7793 40.4805C3.08466 40.4805 2.51953 39.9153 2.51953 39.2207V12.6816H11.3379C12.0336 12.6816 12.5977 12.1176 12.5977 11.4219V2.51953H28.9746C29.6904 2.51953 30.3184 3.10818 30.3184 3.7793V23.0734C27.6445 23.7524 25.3921 25.4859 24.0399 27.7988H6.29883C5.6031 27.7988 5.03906 28.3629 5.03906 29.0586C5.03906 29.7543 5.6031 30.3184 6.29883 30.3184H22.9973C22.7875 31.1239 22.6758 31.9682 22.6758 32.8379H6.29883C5.6031 32.8379 5.03906 33.4019 5.03906 34.0977C5.03906 34.7934 5.6031 35.3574 6.29883 35.3574H22.9953C23.5045 37.3274 24.6055 39.103 26.1768 40.4805H3.7793ZM32.8379 40.4805C28.6952 40.4805 25.1953 36.9806 25.1953 32.8379C25.1953 28.6701 28.6237 25.2793 32.8379 25.2793C37.0521 25.2793 40.4805 28.6701 40.4805 32.8379C40.4805 36.9806 36.9806 40.4805 32.8379 40.4805Z" fill="url(#paint4_linear)"/>
<path d="M37.5995 30.6947C37.1117 30.1987 36.3141 30.1921 35.818 30.68L31.5712 34.8572L29.8509 33.1924C29.3509 32.7085 28.5534 32.7216 28.0696 33.2216C27.5857 33.7215 27.5988 34.5191 28.0988 35.0029L30.7023 37.5224C31.1934 37.9977 31.9742 37.9948 32.4618 37.5153L37.5848 32.4762C38.0808 31.9884 38.0874 31.1908 37.5995 30.6947Z" fill="url(#paint5_linear)"/>
<defs>
<linearGradient id="paint0_linear" x1="16.728" y1="7.85254" x2="30.183" y2="12.0486" gradientUnits="userSpaceOnUse">
<stop offset="0.0119048" stop-color="#FAC336"/>
<stop offset="1" stop-color="#F6A103"/>
</linearGradient>
<linearGradient id="paint1_linear" x1="16.728" y1="12.8916" x2="30.183" y2="17.0877" gradientUnits="userSpaceOnUse">
<stop offset="0.0119048" stop-color="#FAC336"/>
<stop offset="1" stop-color="#F6A103"/>
</linearGradient>
<linearGradient id="paint2_linear" x1="7.93859" y1="17.9307" x2="28.1455" y2="29.2738" gradientUnits="userSpaceOnUse">
<stop offset="0.0119048" stop-color="#FAC336"/>
<stop offset="1" stop-color="#F6A103"/>
</linearGradient>
<linearGradient id="paint3_linear" x1="7.35462" y1="22.9697" x2="25.0256" y2="30.8915" gradientUnits="userSpaceOnUse">
<stop offset="0.0119048" stop-color="#FAC336"/>
<stop offset="1" stop-color="#F6A103"/>
</linearGradient>
<linearGradient id="paint4_linear" x1="5.49836" y1="3.58333" x2="55.696" y2="6.71427" gradientUnits="userSpaceOnUse">
<stop offset="0.0119048" stop-color="#FAC336"/>
<stop offset="1" stop-color="#F6A103"/>
</linearGradient>
<linearGradient id="paint5_linear" x1="29.0252" y1="30.9482" x2="40.9477" y2="31.9563" gradientUnits="userSpaceOnUse">
<stop offset="0.0119048" stop-color="#FAC336"/>
<stop offset="1" stop-color="#F6A103"/>
</linearGradient>
</defs>
</svg>
