<svg width="33" height="30" viewBox="0 0 33 30" fill="none" xmlns="http://www.w3.org/2000/svg">
<path d="M12.3093 17.4983C15.0228 20.2118 18.0508 21.6018 19.0571 20.5952L20.3275 19.3247C20.5578 19.0945 20.8311 18.9118 21.1319 18.7872C21.4327 18.6626 21.7551 18.5985 22.0806 18.5985C22.4062 18.5985 22.7286 18.6626 23.0294 18.7872C23.3302 18.9118 23.6035 19.0945 23.8337 19.3247L26.6385 22.1295C26.9609 22.4518 27.2165 22.8344 27.391 23.2555C27.5654 23.6766 27.6552 24.128 27.6552 24.5838C27.6552 25.0396 27.5654 25.491 27.391 25.9121C27.2165 26.3332 26.9609 26.7158 26.6385 27.0381L24.6655 29.0111C22.2213 31.4553 14.8967 28.0938 8.30526 21.5024C5.01109 18.2051 2.52276 14.7264 1.16408 11.7657C-0.194598 8.80503 -0.425171 6.36312 0.798103 5.14062L2.77113 3.1676C3.09341 2.84526 3.47603 2.58957 3.89714 2.41512C4.31825 2.24067 4.7696 2.15088 5.22541 2.15088C5.68123 2.15088 6.13257 2.24067 6.55368 2.41512C6.97479 2.58957 7.35742 2.84526 7.6797 3.1676L10.4845 5.97239C10.7147 6.20259 10.8974 6.4759 11.022 6.7767C11.1466 7.07749 11.2107 7.39989 11.2107 7.72548C11.2107 8.05106 11.1466 8.37346 11.022 8.67426C10.8974 8.97506 10.7147 9.24836 10.4845 9.47857L9.21401 10.749C8.20622 11.7568 9.59469 14.7845 12.3093 17.4983Z" fill="#575B6D"/>
<path d="M32.4971 1.29833V10.3305C32.4971 10.501 32.4636 10.6699 32.3983 10.8274C32.3331 10.985 32.2375 11.1281 32.1169 11.2487C31.9963 11.3693 31.8532 11.4649 31.6956 11.5301C31.5381 11.5953 31.3692 11.6289 31.1987 11.6288H21.6261L17.6944 15.0658V11.6285H16.3403C16.1698 11.6285 16.001 11.595 15.8434 11.5297C15.6859 11.4645 15.5427 11.3689 15.4221 11.2483C15.3016 11.1277 15.2059 10.9846 15.1407 10.827C15.0755 10.6695 15.0419 10.5006 15.042 10.3301V1.29833C15.0419 1.12781 15.0755 0.958962 15.1407 0.801419C15.2059 0.643876 15.3016 0.500729 15.4221 0.380158C15.5427 0.259587 15.6859 0.163955 15.8434 0.0987263C16.001 0.0334973 16.1698 -5.06004e-05 16.3403 2.30676e-07H31.1983C31.3689 -0.000101443 31.5378 0.0334087 31.6954 0.0986149C31.853 0.163821 31.9962 0.259445 32.1168 0.380021C32.2374 0.500597 32.333 0.643761 32.3983 0.801329C32.4635 0.958897 32.4971 1.12778 32.4971 1.29833Z" fill="#EEEFEE"/>
<path d="M19.8852 5.81416C19.8852 6.04684 19.8162 6.2743 19.6869 6.46776C19.5576 6.66123 19.3739 6.81202 19.1589 6.90107C18.9439 6.99011 18.7074 7.01341 18.4792 6.96801C18.251 6.92262 18.0413 6.81057 17.8768 6.64604C17.7123 6.48151 17.6002 6.27189 17.5548 6.04367C17.5094 5.81546 17.5327 5.57891 17.6218 5.36394C17.7108 5.14897 17.8616 4.96524 18.0551 4.83597C18.2485 4.70669 18.476 4.6377 18.7087 4.6377C18.8632 4.63759 19.0162 4.66795 19.159 4.72704C19.3018 4.78613 19.4315 4.87278 19.5408 4.98205C19.6501 5.09131 19.7367 5.22104 19.7958 5.36383C19.8549 5.50661 19.8853 5.65963 19.8852 5.81416Z" fill="#575B6D"/>
<path d="M24.9467 5.81416C24.9467 6.04684 24.8777 6.2743 24.7484 6.46776C24.6191 6.66123 24.4354 6.81202 24.2204 6.90107C24.0055 6.99011 23.7689 7.01341 23.5407 6.96801C23.3125 6.92262 23.1029 6.81057 22.9383 6.64604C22.7738 6.48151 22.6618 6.27189 22.6164 6.04367C22.571 5.81546 22.5943 5.57891 22.6833 5.36394C22.7723 5.14897 22.9231 4.96524 23.1166 4.83597C23.3101 4.70669 23.5375 4.6377 23.7702 4.6377C23.9247 4.63759 24.0778 4.66795 24.2205 4.72704C24.3633 4.78613 24.4931 4.87278 24.6023 4.98205C24.7116 5.09131 24.7982 5.22104 24.8573 5.36383C24.9164 5.50661 24.9468 5.65963 24.9467 5.81416Z" fill="#575B6D"/>
<path d="M30.0072 5.81416C30.0072 6.04684 29.9382 6.2743 29.809 6.46776C29.6797 6.66123 29.4959 6.81202 29.281 6.90107C29.066 6.99011 28.8295 7.01341 28.6012 6.96801C28.373 6.92262 28.1634 6.81057 27.9989 6.64604C27.8343 6.48151 27.7223 6.27189 27.6769 6.04367C27.6315 5.81546 27.6548 5.57891 27.7439 5.36394C27.8329 5.14897 27.9837 4.96524 28.1772 4.83597C28.3706 4.70669 28.5981 4.6377 28.8308 4.6377C28.9853 4.63759 29.1383 4.66795 29.2811 4.72704C29.4239 4.78613 29.5536 4.87278 29.6629 4.98205C29.7721 5.09131 29.8588 5.22104 29.9179 5.36383C29.977 5.50661 30.0073 5.65963 30.0072 5.81416Z" fill="#575B6D"/>
</svg>
