<svg width="32" height="39" viewBox="0 0 32 39" fill="none" xmlns="http://www.w3.org/2000/svg">
<path d="M24.2009 3.39353L6.07812 0.258789L0.310747 33.6016L25.9713 38.0401L30.4349 12.2351L24.2009 3.39353Z" fill="#00C8C8"/>
<path d="M30.4349 12.2349L24.201 3.3933L18.8672 2.4707L13.0998 35.8135L25.9714 38.0399L30.4349 12.2349Z" fill="#1CADB5"/>
<path d="M22.8993 10.9313L30.4371 12.2352L24.2031 3.39355L22.8993 10.9313Z" fill="#02818E"/>
<path d="M7.33594 15.4282L4.70666 30.6288L22.8294 33.7635L25.4587 18.563L7.33594 15.4282ZM13.2211 30.5685L6.61607 29.426L6.94064 27.5495L13.5457 28.692L13.2211 30.5685ZM13.8078 27.1765L7.2028 26.034L7.52737 24.1575L14.1324 25.3L13.8078 27.1765ZM14.4297 23.5813L7.82466 22.4388L8.14923 20.5624L14.7543 21.7049L14.4297 23.5813ZM15.0164 20.1893L8.41138 19.0468L8.73596 17.1704L15.341 18.3129L15.0164 20.1893ZM21.6275 32.0225L15.0225 30.8801L15.3471 29.0036L21.9521 30.1461L21.6275 32.0225ZM22.2143 28.6305L15.6092 27.488L15.9338 25.6116L22.5388 26.7541L22.2143 28.6305ZM22.8361 25.0354L16.2311 23.8929L16.5556 22.0165L23.1607 23.1589L22.8361 25.0354ZM23.4228 21.6434L16.8178 20.5009L17.1424 18.6244L23.7474 19.7669L23.4228 21.6434Z" fill="#0092AA"/>
<path d="M25.462 18.5628L16.3594 16.9883L13.7301 32.1888L22.8327 33.7633L25.462 18.5628ZM21.6307 32.0223L15.0257 30.8799L15.3502 29.0034L21.9553 30.1459L21.6307 32.0223ZM22.2175 28.6303L15.6124 27.4878L15.937 25.6114L22.542 26.7539L22.2175 28.6303ZM22.8393 25.0352L16.2343 23.8927L16.5588 22.0163L23.1639 23.1588L22.8393 25.0352ZM23.426 21.6432L16.821 20.5007L17.1456 18.6242L23.7506 19.7667L23.426 21.6432Z" fill="#02818E"/>
</svg>
