<svg width="31" height="30" viewBox="0 0 31 30" fill="none" xmlns="http://www.w3.org/2000/svg">
<path d="M24.4864 18.5338C23.8516 17.9042 23.0858 17.5676 22.2742 17.5676C21.4691 17.5676 20.6968 17.8979 20.0357 18.5275L17.9674 20.4911C17.7972 20.4038 17.627 20.3228 17.4634 20.2417C17.2278 20.1295 17.0052 20.0236 16.8154 19.9114C14.878 18.7395 13.1174 17.2122 11.4287 15.2362C10.6106 14.2513 10.0608 13.4222 9.6615 12.5807C10.1982 12.1132 10.6956 11.627 11.18 11.1595C11.3633 10.9849 11.5465 10.8042 11.7298 10.6296C13.1043 9.32057 13.1043 7.62505 11.7298 6.316L9.94295 4.61425C9.74005 4.42101 9.5306 4.22153 9.33424 4.02206C8.94153 3.63558 8.52918 3.23663 8.10374 2.86262C7.46885 2.2642 6.70961 1.94629 5.91109 1.94629C5.11257 1.94629 4.34024 2.2642 3.68571 2.86262C3.67917 2.86885 3.67917 2.86885 3.67262 2.87509L1.44725 5.01319C0.609458 5.81109 0.131656 6.78352 0.0269326 7.91179C-0.130153 9.73199 0.432737 11.4275 0.864721 12.5371C1.92505 15.2611 3.50899 17.7857 5.87182 20.4911C8.73863 23.7512 12.188 26.3257 16.1282 28.1396C17.6336 28.8191 19.643 29.6232 21.888 29.7604C22.0254 29.7666 22.1694 29.7728 22.3003 29.7728C23.8123 29.7728 25.0821 29.2555 26.0769 28.2269C26.0835 28.2145 26.0966 28.2082 26.1031 28.1958C26.4435 27.803 26.8362 27.4477 27.2485 27.0675C27.53 26.8119 27.818 26.5439 28.0994 26.2634C28.7474 25.6213 29.0877 24.8733 29.0877 24.1065C29.0877 23.3336 28.7408 22.5918 28.0798 21.9684L24.4864 18.5338ZM26.8296 25.0977C26.8231 25.0977 26.8231 25.1039 26.8296 25.0977C26.5744 25.3595 26.3126 25.5964 26.0311 25.8582C25.6057 26.2447 25.1737 26.6498 24.7679 27.1049C24.1068 27.7781 23.3279 28.096 22.3069 28.096C22.2087 28.096 22.104 28.096 22.0058 28.0898C20.0619 27.9713 18.2554 27.2483 16.9005 26.6311C13.1959 24.9231 9.94295 22.4983 7.23977 19.4252C5.00785 16.8632 3.51554 14.4944 2.52721 11.9511C1.9185 10.399 1.69596 9.18967 1.79414 8.04893C1.8596 7.31961 2.15413 6.71495 2.69738 6.19757L4.92931 4.07193C5.25002 3.78519 5.59037 3.62935 5.92418 3.62935C6.33653 3.62935 6.67034 3.86622 6.87978 4.06569C6.88633 4.07193 6.89287 4.07816 6.89942 4.0844C7.29868 4.43971 7.6783 4.80749 8.07756 5.2002C8.28046 5.39967 8.48991 5.59915 8.69936 5.80485L10.4862 7.50661C11.18 8.16737 11.18 8.77826 10.4862 9.43901C10.2964 9.61978 10.1131 9.80056 9.92331 9.9751C9.37351 10.5112 8.8499 11.0099 8.28046 11.4961C8.26737 11.5085 8.25428 11.5148 8.24774 11.5272C7.68485 12.0633 7.78957 12.587 7.90738 12.9423C7.91393 12.961 7.92047 12.9797 7.92702 12.9984C8.39173 14.0705 9.04625 15.0804 10.0411 16.2834L10.0477 16.2897C11.8542 18.4091 13.7588 20.061 15.8598 21.3264C16.1282 21.4885 16.4031 21.6194 16.6649 21.744C16.9005 21.8562 17.1231 21.9622 17.3129 22.0744C17.3391 22.0869 17.3652 22.1056 17.3914 22.118C17.614 22.224 17.8234 22.2739 18.0394 22.2739C18.5826 22.2739 18.923 21.9497 19.0343 21.8438L21.2727 19.7119C21.4953 19.5 21.8487 19.2444 22.2611 19.2444C22.6669 19.2444 23.0007 19.4875 23.2036 19.6994C23.2101 19.7057 23.2101 19.7057 23.2167 19.7119L26.8231 23.1466C27.4972 23.7824 27.4972 24.4369 26.8296 25.0977Z" fill="white"/>
<path d="M16.7371 7.26314C18.4519 7.53742 20.0097 8.31038 21.2533 9.49475C22.4969 10.6791 23.302 12.1627 23.5965 13.7959C23.6685 14.2073 24.0416 14.4941 24.467 14.4941C24.5194 14.4941 24.5652 14.4878 24.6175 14.4816C25.1019 14.4068 25.4226 13.9704 25.3441 13.5092C24.9906 11.5331 24.0088 9.73163 22.51 8.30414C21.0111 6.87666 19.1196 5.94163 17.0447 5.60502C16.5604 5.53021 16.1087 5.83566 16.0237 6.29071C15.9386 6.74576 16.2527 7.18834 16.7371 7.26314Z" fill="white"/>
<path d="M30.9525 13.2663C30.37 10.0124 28.7599 7.05142 26.2858 4.69514C23.8117 2.33886 20.7027 0.805408 17.2861 0.250623C16.8083 0.169586 16.3567 0.481264 16.2716 0.936313C16.193 1.3976 16.5138 1.82771 16.9981 1.90875C20.0482 2.4012 22.8299 3.77881 25.0422 5.87952C27.2545 7.98646 28.6944 10.6357 29.2115 13.5405C29.2835 13.952 29.6566 14.2387 30.082 14.2387C30.1344 14.2387 30.1802 14.2325 30.2326 14.2262C30.7104 14.1577 31.0376 13.7213 30.9525 13.2663Z" fill="white"/>
</svg>
