<svg width="55" height="55" viewBox="0 0 55 55" fill="none" xmlns="http://www.w3.org/2000/svg">
<path d="M6.226 53.3837H3.39877L1.65432 51.5794V48.8126L29.7529 20.7141C32.1905 18.2764 33.5638 14.9817 33.6199 11.4367C33.6601 8.89129 34.6738 6.49797 36.4742 4.69749C39.0612 2.11054 42.9513 1.0184 46.2646 1.91659L44.6266 3.55459L45.7695 4.69749L48.6088 1.85809L47.2887 0.538055C47.2887 0.538055 40.7067 -1.88554 35.3315 3.5547C33.2325 5.65354 32.0507 8.44381 32.0038 11.4113C31.9545 14.534 30.7492 17.432 28.61 19.5711L0.0380859 48.1431V52.233L2.71328 55H6.89533L9.41763 52.4778L8.27506 51.3348L6.226 53.3837Z" fill="#303030"/>
<path d="M54.3936 7.70475L53.1494 6.46058L47.081 12.529L44.3218 12.4677L42.5021 10.6479L42.5022 7.96518L44.6273 5.83994L43.4844 4.69727L40.8861 7.29574L40.886 11.3174L43.6375 14.0692L47.0661 14.1453L50.8129 17.8921C49.0109 20.0081 46.3681 21.2799 43.5864 21.3413C40.0799 21.4186 36.8183 22.7915 34.4025 25.2075L11.7041 47.9059L12.847 49.0488L35.5453 26.3504C37.6653 24.2303 40.5336 23.0252 43.6218 22.9573C51.9847 22.9573 56.6539 14.7794 54.3936 7.70475ZM51.7724 16.5658L48.5511 13.3445L53.0467 8.84905C53.6954 11.383 53.1976 14.231 51.7724 16.5658Z" fill="#303030"/>
<path d="M9.41406 50.1836L10.5566 49.0411L11.6993 50.1837L10.5567 51.3263L9.41406 50.1836Z" fill="#303030"/>
<path d="M39.9912 19.5164L43.4197 16.0879L38.8738 11.542L35.4453 14.9705L39.9912 19.5164ZM41.134 16.0879L39.9912 17.2307L37.7309 14.9703L38.8737 13.8276L41.134 16.0879Z" fill="#303030"/>
<path d="M31.4404 22.3745L32.5831 21.2318L33.7259 22.3746L32.5832 23.5173L31.4404 22.3745Z" fill="#303030"/>
<path d="M29.1543 24.6597L30.297 23.517L31.4397 24.6597L30.297 25.8024L29.1543 24.6597Z" fill="#303030"/>
</svg>
