<svg width="56" height="56" viewBox="0 0 56 56" fill="none" xmlns="http://www.w3.org/2000/svg">
<path d="M28.7295 30.5622C28.6259 30.5398 28.5196 30.5358 28.4147 30.5515C27.3629 30.429 26.5695 29.5391 26.5677 28.4806C26.5677 27.9734 26.1564 27.5621 25.6491 27.5621C25.1419 27.5621 24.7306 27.9734 24.7306 28.4806C24.7333 30.2483 25.9155 31.7965 27.6199 32.2643V33.1829C27.6199 33.6902 28.0312 34.1015 28.5385 34.1015C29.0457 34.1015 29.457 33.6902 29.457 33.1829V32.32C31.4242 31.9082 32.7612 30.076 32.5545 28.077C32.3473 26.0779 30.6631 24.5588 28.6533 24.5584C27.5015 24.5584 26.5677 23.6246 26.5677 22.4728C26.5677 21.321 27.5015 20.3872 28.6533 20.3872C29.8051 20.3872 30.7389 21.321 30.7389 22.4728C30.7389 22.98 31.1502 23.3913 31.6574 23.3913C32.1647 23.3913 32.576 22.98 32.576 22.4728C32.5733 20.6168 31.2731 19.016 29.457 18.633V17.797C29.457 17.2897 29.0457 16.8784 28.5385 16.8784C28.0312 16.8784 27.6199 17.2897 27.6199 17.797V18.6891C25.7245 19.2067 24.5045 21.0469 24.7655 22.9944C25.0266 24.9419 26.6883 26.3955 28.6533 26.395C29.7898 26.395 30.7169 27.3051 30.7375 28.4412C30.7586 29.5773 29.8652 30.521 28.7295 30.5622Z" fill="url(#paint0_linear)"/>
<path d="M15.3359 25.5476C15.3359 32.9042 21.2994 38.8676 28.656 38.8676C36.0126 38.8676 41.976 32.9042 41.976 25.5476C41.976 18.191 36.0126 12.2275 28.656 12.2275C21.303 12.2356 15.3445 18.1946 15.3359 25.5476ZM28.656 14.0647C34.998 14.0647 40.1389 19.2056 40.1389 25.5476C40.1389 31.8896 34.998 37.0305 28.656 37.0305C22.314 37.0305 17.1731 31.8896 17.1731 25.5476C17.1802 19.2087 22.3171 14.0718 28.656 14.0647Z" fill="url(#paint1_linear)"/>
<path d="M46.5047 41.132L39.3092 44.5317C38.3157 42.6838 36.41 41.5078 34.3127 41.4486L27.6702 41.2661C26.6184 41.236 25.5864 40.9696 24.6512 40.4866L23.9753 40.1363C20.5146 38.3323 16.3895 38.3368 12.9324 40.1479L12.9745 38.6167C12.9884 38.1094 12.5888 37.6869 12.0815 37.673L4.79764 37.4725C4.29037 37.4586 3.86831 37.8582 3.85441 38.3655L3.41441 54.3497C3.40051 54.857 3.80014 55.2795 4.30741 55.2934L11.5913 55.4939H11.6164C12.1143 55.4939 12.5215 55.0979 12.535 54.6005L12.5561 53.8357L14.4484 52.8225C15.1911 52.4229 16.0594 52.3278 16.8708 52.5575L28.1707 55.7289C28.1905 55.7348 28.2102 55.7392 28.2304 55.7437C29.0471 55.9146 29.8796 56.0003 30.7138 55.9998C32.481 56.0007 34.2275 55.6199 35.8336 54.8826C35.8731 54.8646 35.9112 54.8436 35.9476 54.8198L52.3314 44.2222C52.7396 43.9581 52.8714 43.4221 52.6324 42.9987C51.416 40.8404 48.7182 40.0183 46.5047 41.132ZM5.27621 53.4823L5.66552 39.3343L11.1128 39.4841L10.7234 53.6326L5.27621 53.4823ZM35.0061 53.2419C33.0107 54.1425 30.782 54.391 28.6372 53.9528L17.3678 50.7894C16.0994 50.4311 14.7417 50.5795 13.5814 51.2034L12.6144 51.7214L12.8732 42.3147C15.9374 40.2766 19.8673 40.0672 23.1307 41.7675L23.8067 42.1178C24.9881 42.7278 26.291 43.0642 27.6199 43.1027L34.2629 43.2853C36.1288 43.3391 37.7134 44.6676 38.0919 46.4958L28.1972 46.2226C27.6899 46.2087 27.2679 46.6088 27.2535 47.1156C27.2396 47.6229 27.6397 48.0454 28.1465 48.0593L39.0661 48.3598H39.0917C39.5891 48.3594 39.9959 47.9633 40.0093 47.4664C40.0205 47.0672 39.9909 46.6676 39.9205 46.2747L47.3008 42.7874C47.308 42.7843 47.3152 42.7807 47.3224 42.7771C48.3692 42.2474 49.6349 42.4246 50.4961 43.2216L35.0061 53.2419Z" fill="url(#paint2_linear)"/>
<path d="M29.5715 9.6449V0.918562C29.5715 0.411289 29.1602 0 28.6529 0C28.1457 0 27.7344 0.411289 27.7344 0.918562V9.6449C27.7344 10.1522 28.1457 10.5635 28.6529 10.5635C29.1602 10.5635 29.5715 10.1522 29.5715 9.6449Z" fill="url(#paint3_linear)"/>
<path d="M36.4621 9.64486V5.51134C36.4621 5.00406 36.0508 4.59277 35.5436 4.59277C35.0363 4.59277 34.625 5.00406 34.625 5.51134V9.64486C34.625 10.1521 35.0363 10.5634 35.5436 10.5634C36.0508 10.5634 36.4621 10.1521 36.4621 9.64486Z" fill="url(#paint4_linear)"/>
<path d="M22.6848 9.64486V5.51134C22.6848 5.00406 22.2735 4.59277 21.7662 4.59277C21.2589 4.59277 20.8477 5.00406 20.8477 5.51134V9.64486C20.8477 10.1521 21.2589 10.5634 21.7662 10.5634C22.2735 10.5634 22.6848 10.1521 22.6848 9.64486Z" fill="url(#paint5_linear)"/>
<defs>
<linearGradient id="paint0_linear" x1="25.7337" y1="18.3137" x2="34.9207" y2="18.5747" gradientUnits="userSpaceOnUse">
<stop offset="0.0119048" stop-color="#FAC336"/>
<stop offset="1" stop-color="#F6A103"/>
</linearGradient>
<linearGradient id="paint1_linear" x1="18.7424" y1="14.4475" x2="49.8417" y2="16.3873" gradientUnits="userSpaceOnUse">
<stop offset="0.0119048" stop-color="#FAC336"/>
<stop offset="1" stop-color="#F6A103"/>
</linearGradient>
<linearGradient id="paint2_linear" x1="9.72276" y1="39.0161" x2="65.9903" y2="48.3617" gradientUnits="userSpaceOnUse">
<stop offset="0.0119048" stop-color="#FAC336"/>
<stop offset="1" stop-color="#F6A103"/>
</linearGradient>
<linearGradient id="paint3_linear" x1="27.9693" y1="0.880287" x2="30.122" y2="0.903638" gradientUnits="userSpaceOnUse">
<stop offset="0.0119048" stop-color="#FAC336"/>
<stop offset="1" stop-color="#F6A103"/>
</linearGradient>
<linearGradient id="paint4_linear" x1="34.8599" y1="5.09033" x2="37.0121" y2="5.13163" gradientUnits="userSpaceOnUse">
<stop offset="0.0119048" stop-color="#FAC336"/>
<stop offset="1" stop-color="#F6A103"/>
</linearGradient>
<linearGradient id="paint5_linear" x1="21.0826" y1="5.09033" x2="23.2348" y2="5.13163" gradientUnits="userSpaceOnUse">
<stop offset="0.0119048" stop-color="#FAC336"/>
<stop offset="1" stop-color="#F6A103"/>
</linearGradient>
</defs>
</svg>
