<svg width="31" height="31" viewBox="0 0 31 31" fill="none" xmlns="http://www.w3.org/2000/svg">
<path d="M23.9359 19.0522C23.3209 18.4238 22.579 18.0878 21.7928 18.0878C21.0129 18.0878 20.2647 18.4175 19.6243 19.046L17.6206 21.0059C17.4558 20.9188 17.2909 20.8379 17.1324 20.757C16.9041 20.6451 16.6886 20.5393 16.5047 20.4273C14.6278 19.2575 12.9222 17.7331 11.2863 15.7607C10.4938 14.7776 9.96114 13.95 9.57436 13.1101C10.0943 12.6434 10.5762 12.1581 11.0454 11.6914C11.2229 11.5172 11.4005 11.3368 11.578 11.1625C12.9095 9.85589 12.9095 8.16347 11.578 6.85683L9.847 5.15819C9.65044 4.9653 9.44755 4.76619 9.25733 4.56708C8.87689 4.18131 8.47743 3.7831 8.06529 3.40977C7.45024 2.81245 6.71473 2.49512 5.94117 2.49512C5.16761 2.49512 4.41942 2.81245 3.78535 3.40977C3.77901 3.41599 3.77901 3.41599 3.77267 3.42221L1.61685 5.5564C0.805252 6.35283 0.342385 7.32348 0.240935 8.44969C0.0887592 10.2665 0.634054 11.959 1.05254 13.0665C2.07972 15.7856 3.61416 18.3055 5.90313 21.0059C8.68033 24.2601 12.0218 26.8298 15.8389 28.6405C17.2973 29.3187 19.2438 30.1213 21.4187 30.2582C21.5518 30.2645 21.6913 30.2707 21.8181 30.2707C23.2828 30.2707 24.5129 29.7542 25.4767 28.7276C25.483 28.7151 25.4957 28.7089 25.502 28.6965C25.8318 28.3045 26.2122 27.9498 26.6117 27.5703C26.8843 27.3152 27.1633 27.0476 27.4359 26.7676C28.0637 26.1267 28.3934 25.3801 28.3934 24.6148C28.3934 23.8432 28.0573 23.1028 27.4169 22.4806L23.9359 19.0522ZM26.2059 25.6041C26.1995 25.6041 26.1995 25.6103 26.2059 25.6041C25.9586 25.8654 25.7049 26.1019 25.4323 26.3632C25.0202 26.749 24.6017 27.1534 24.2086 27.6076C23.5682 28.2796 22.8136 28.5969 21.8245 28.5969C21.7294 28.5969 21.6279 28.5969 21.5328 28.5907C19.6496 28.4725 17.8996 27.7507 16.5871 27.1347C12.9983 25.4299 9.84701 23.0095 7.22832 19.9419C5.06616 17.3847 3.6205 15.0203 2.66306 12.4816C2.07338 10.9323 1.8578 9.72522 1.95291 8.58658C2.01631 7.85859 2.30164 7.25504 2.82792 6.73861L4.99007 4.61686C5.30077 4.33064 5.63048 4.17509 5.95385 4.17509C6.35331 4.17509 6.67669 4.41153 6.87959 4.61064C6.88593 4.61686 6.89227 4.62308 6.89861 4.62931C7.28539 4.98397 7.65314 5.35107 8.03992 5.74307C8.23648 5.94217 8.43938 6.14128 8.64228 6.34661L10.3733 8.04525C11.0454 8.7048 11.0454 9.31456 10.3733 9.97411C10.1894 10.1546 10.0119 10.335 9.82798 10.5092C9.29537 11.0443 8.78812 11.5421 8.23648 12.0274C8.2238 12.0399 8.21112 12.0461 8.20478 12.0585C7.65948 12.5936 7.76093 13.1163 7.87507 13.4709C7.88141 13.4896 7.88775 13.5083 7.89409 13.5269C8.34427 14.5971 8.97834 15.6051 9.94211 16.806L9.94846 16.8122C11.6985 18.9277 13.5436 20.5766 15.5789 21.8397C15.8389 22.0015 16.1052 22.1321 16.3588 22.2566C16.5871 22.3686 16.8027 22.4744 16.9866 22.5864C17.0119 22.5988 17.0373 22.6175 17.0627 22.6299C17.2782 22.7357 17.4811 22.7855 17.6904 22.7855C18.2167 22.7855 18.5464 22.4619 18.6542 22.3561L20.8227 20.2282C21.0382 20.0166 21.3806 19.7615 21.7801 19.7615C22.1732 19.7615 22.4966 20.0042 22.6931 20.2157C22.6995 20.2219 22.6995 20.2219 22.7058 20.2282L26.1995 23.6566C26.8526 24.2912 26.8526 24.9445 26.2059 25.6041Z" fill="white"/>
<path d="M16.4311 7.80207C18.0924 8.07585 19.6015 8.84739 20.8062 10.0296C22.0109 11.2118 22.7908 12.6927 23.0761 14.3229C23.1459 14.7335 23.5073 15.0197 23.9195 15.0197C23.9702 15.0197 24.0146 15.0135 24.0653 15.0073C24.5345 14.9326 24.8452 14.4971 24.7691 14.0366C24.4267 12.0642 23.4756 10.266 22.0236 8.84117C20.5716 7.4163 18.7391 6.48298 16.7292 6.14699C16.26 6.07232 15.8224 6.37721 15.74 6.83142C15.6576 7.28564 15.9619 7.72741 16.4311 7.80207Z" fill="white"/>
<path d="M30.1984 13.7946C29.634 10.5467 28.0742 7.59118 25.6775 5.23922C23.2807 2.88726 20.2689 1.35661 16.9591 0.802845C16.4962 0.721957 16.0587 1.03306 15.9763 1.48728C15.9002 1.94772 16.2109 2.37704 16.6801 2.45793C19.6349 2.94948 22.3296 4.32457 24.4728 6.42142C26.6159 8.5245 28.0108 11.1689 28.5118 14.0684C28.5815 14.4791 28.9429 14.7653 29.3551 14.7653C29.4058 14.7653 29.4502 14.7591 29.5009 14.7528C29.9638 14.6844 30.2808 14.2489 30.1984 13.7946Z" fill="white"/>
</svg>
