<svg width="65" height="65" viewBox="0 0 65 65" fill="none" xmlns="http://www.w3.org/2000/svg">
<path d="M29.7763 13.0388L27.3272 12.222L27.6878 10.9577C28.7204 7.34392 26.868 3.56661 23.3791 2.17101L22.3842 1.77362L19.4507 9.59683L17.0027 8.78114L20.1856 0H17.2584C11.1694 0 6.21484 4.95473 6.21484 11.0437C6.21484 14.3314 7.66262 17.4231 10.1892 19.5283L12.5051 21.4585V24.0795L11.4567 56.613V57.6614C11.4567 61.707 14.7485 65 18.7953 65C22.8421 65 26.1339 61.707 26.1339 57.6614V56.5795L25.0855 24.113V21.2467L29.7763 13.0388ZM23.5561 4.61921C25.4118 5.84991 26.307 8.15962 25.6727 10.3821L25.3372 11.5585L21.4414 10.2606L23.5561 4.61921ZM24.0373 56.613V57.6614C24.0373 60.5519 21.6858 62.9034 18.7953 62.9034C15.9048 62.9034 13.5533 60.5519 13.5533 57.6614V56.6466L14.6017 24.1132V20.4772L11.5311 17.9181C9.48468 16.2122 8.31144 13.7077 8.31144 11.0437C8.31144 6.13193 12.29 2.13138 17.1945 2.09682L14.2978 10.0898L26.6857 14.2193L22.9892 20.689V24.1464H22.9889L24.0373 56.613Z" fill="#303030"/>
<path d="M18.7946 54.5161C17.0606 54.5161 15.6494 55.9273 15.6494 57.6613C15.6494 59.3953 17.0606 60.8066 18.7946 60.8066C20.5286 60.8066 21.9399 59.3953 21.9399 57.6613C21.9399 55.9273 20.5289 54.5161 18.7946 54.5161ZM18.7946 58.7097C18.2169 58.7097 17.7462 58.2401 17.7462 57.6613C17.7462 57.0825 18.2169 56.6129 18.7946 56.6129C19.3723 56.6129 19.8431 57.0825 19.8431 57.6613C19.8431 58.2401 19.3723 58.7097 18.7946 58.7097Z" fill="#303030"/>
<path d="M14.9874 12.3027L13.2754 17.4367L21.5546 20.1971L23.2665 15.0631L14.9874 12.3027ZM20.2294 17.5446L15.9279 16.1113L16.3127 14.955L20.6142 16.3883L20.2294 17.5446Z" fill="#303030"/>
<path d="M18.7946 23.0645C17.0606 23.0645 15.6494 24.4757 15.6494 26.2097V49.2742C15.6494 51.0082 17.0606 52.4194 18.7946 52.4194C20.5286 52.4194 21.9399 51.0082 21.9399 49.2742V26.2097C21.9399 24.4755 20.5289 23.0645 18.7946 23.0645ZM19.8431 49.2742C19.8431 49.853 19.3723 50.3226 18.7946 50.3226C18.2169 50.3226 17.7462 49.853 17.7462 49.2742V26.2097C17.7462 25.632 18.2169 25.1613 18.7946 25.1613C19.3723 25.1613 19.8431 25.632 19.8431 26.2097V49.2742Z" fill="#303030"/>
<path d="M52.9595 20.9677L58.7843 10.4839L52.9595 0H41.2428L35.418 10.4839L41.2428 20.9677H52.9595ZM42.4757 2.09682H51.7255L56.3846 10.4839L51.7255 18.8709H42.4757L37.8166 10.4839L42.4757 2.09682Z" fill="#303030"/>
<path d="M47.1027 16.7743C50.5718 16.7743 53.393 13.9532 53.393 10.4841C53.393 7.015 50.5718 4.19385 47.1027 4.19385C43.6336 4.19385 40.8125 7.015 40.8125 10.4841C40.8125 13.9532 43.6336 16.7743 47.1027 16.7743ZM47.1027 6.29044C49.4155 6.29044 51.2964 8.17128 51.2964 10.4841C51.2964 12.7969 49.4155 14.6777 47.1027 14.6777C44.7899 14.6777 42.9091 12.7969 42.9091 10.4841C42.9091 8.17128 44.7899 6.29044 47.1027 6.29044Z" fill="#303030"/>
<path d="M35.5693 35.645H40.8114V64.9998H53.3921V35.645H58.6341V25.1611H35.5693V35.645ZM52.3434 27.2579H56.5371V33.5482H53.3918H52.3434V27.2579ZM43.9564 27.2579H50.2466V33.5482H43.9564V27.2579ZM42.908 35.645H51.295V36.8821L42.908 38.5595V35.645ZM42.908 40.6981L51.295 39.0207V42.1239L42.908 43.8013V40.6981ZM42.908 45.9402L51.295 44.2628V47.366L42.908 49.0434V45.9402ZM42.908 51.182L51.295 49.5046V52.6078L42.908 54.2852V51.182ZM42.908 56.4241L51.295 54.7466V57.8498L42.908 59.5272V56.4241ZM42.908 61.6659L51.295 59.9885V62.903H42.908V61.6659ZM37.6662 27.2579H41.8598V33.5482H40.8114H37.6662V27.2579Z" fill="#303030"/>
</svg>
