<svg width="55" height="55" viewBox="0 0 55 55" fill="none" xmlns="http://www.w3.org/2000/svg">
<g clip-path="url(#clip0)">
<path d="M43.515 26.2921L55 14.807L46.8609 6.66776C46.9195 6.57746 46.9123 1.23438 46.9123 1.23438H33.9192V3.80777L33.9174 3.80593L30.9185 6.80495L32.0669 7.95343L34.2247 5.7956C34.6396 6.54043 35.4349 7.04575 36.3465 7.04575H37.7565L35.2628 9.53956L36.4112 10.6878L38.7736 8.32557V11.0791C38.7736 14.2086 43.6279 14.2086 43.6279 11.0791V9.40086C43.6279 8.88352 44.0192 8.68039 44.4581 8.59778C45.0405 8.4882 45.4823 8.47034 45.9782 8.08206L49.2249 11.3287L43.4827 17.0709L44.6311 18.2194L50.3733 12.4771L52.703 14.8069L42.3664 25.1436L36.6168 19.394L40.1016 15.9092L38.9532 14.7607L35.4685 18.2455L28.6215 11.3986L30.9187 9.10148L29.7703 7.953L27.4732 10.2503L26.3065 9.08372L12.6722 22.7181L16.6917 32.4805L7.64189 41.5302L4.80907 42.0662L0 46.8753L6.88992 53.7653L11.6991 48.9561L12.2351 46.1233L21.2814 37.0769L31.0474 41.0929L44.6816 27.4587L43.515 26.2921ZM44.4852 6.97364C43.1472 6.97245 42.0039 8.03983 42.0039 9.40086V11.079C42.0039 12.1122 40.3978 12.1138 40.3978 11.079V7.84884C40.3978 6.51055 39.309 5.42162 37.9706 5.42162H36.3466C35.9037 5.42162 35.5435 5.06138 35.5435 4.61864V2.85862H45.2883V6.17067C45.2882 6.61341 44.928 6.97364 44.4852 6.97364ZM26.3065 11.3806L42.3846 27.4587L41.2361 28.6072L25.158 12.5291L26.3065 11.3806ZM30.6642 39.1792L20.8981 35.1633L10.7323 45.3292L10.1963 48.162L6.88992 51.4684L2.29686 46.8753L5.60327 43.5689L8.4361 43.033L18.6057 32.8633L14.5862 23.1009L15.7729 21.9142L26.0704 32.2118L27.2188 31.0633L16.9212 20.7658L24.0095 13.6775L40.0876 29.7556L32.9994 36.8439L30.6643 34.5087L29.5159 35.6572L31.8511 37.9923L30.6642 39.1792Z" fill="#303030"/>
<path d="M27.2129 33.3608L28.3612 32.2126L29.5093 33.3608L28.3611 34.509L27.2129 33.3608Z" fill="#303030"/>
<path d="M22.8057 17.0991L23.9539 15.9509L25.1022 17.0991L23.9539 18.2474L22.8057 17.0991Z" fill="#303030"/>
<path d="M25.1025 19.3965L26.2508 18.2482L27.3991 19.3965L26.2508 20.5448L25.1025 19.3965Z" fill="#303030"/>
<path d="M41.1797 19.3701L42.328 18.2219L43.4762 19.3701L42.328 20.5184L41.1797 19.3701Z" fill="#303030"/>
<path d="M5.77539 46.8306L6.92366 45.6823L8.07192 46.8306L6.92366 47.9788L5.77539 46.8306Z" fill="#303030"/>
</g>
<defs>
<clipPath id="clip0">
<rect width="55" height="55" fill="white"/>
</clipPath>
</defs>
</svg>
