<svg width="48" height="48" viewBox="0 0 48 48" fill="none" xmlns="http://www.w3.org/2000/svg">
<g clip-path="url(#clip0)">
<path d="M18.4918 16.5002C18.3446 16.5002 18.1976 16.4561 18.0705 16.3663C18.0591 16.3582 16.9097 15.564 15.1463 15.4041C13.7778 15.2775 13.3623 15.9974 13.3244 16.0745C13.2238 16.2781 13.0306 16.4326 12.8085 16.4771C12.5839 16.5231 12.3502 16.4682 12.1807 16.3187L7.62633 12.3106C7.47515 12.1775 7.38614 11.9887 7.37928 11.7868C7.37283 11.5865 7.45019 11.391 7.59139 11.2488C7.60886 11.2315 9.34776 9.46644 10.7273 6.53431C11.8941 4.05593 17.6434 0.380371 23.1972 0.380371C25.9819 0.380371 28.3646 1.26854 30.2796 3.02137C30.5003 3.22308 30.5749 3.54021 30.4674 3.8197C30.3605 4.09981 30.0923 4.28551 29.7928 4.28759L28.8818 4.29487C28.8192 4.29258 28.7295 4.28759 28.5773 4.28759C27.4194 4.28759 23.59 4.54566 21.6835 7.77329L23.5164 11.438C23.6615 11.7288 23.5964 12.0814 23.3569 12.3017L18.9847 16.3093C18.8452 16.4353 18.669 16.5002 18.4918 16.5002ZM14.8306 13.9314C14.9718 13.9314 15.1213 13.9382 15.2779 13.9522C16.7026 14.0817 17.7956 14.5488 18.397 14.8686L21.9657 11.5977L20.2072 8.08147C20.1022 7.8729 20.1043 7.62668 20.2122 7.41956C22.0457 3.89414 25.614 3.06046 27.5839 2.8783C26.2971 2.18685 24.8292 1.83791 23.1957 1.83791C18.1136 1.83791 12.9235 5.2868 12.0449 7.15525C11.0137 9.34645 9.81253 10.9163 9.14147 11.7038L12.5681 14.7193C13.0387 14.3011 13.7757 13.9314 14.8306 13.9314Z" fill="#FABF31"/>
<path d="M9.01782 21.2326C8.84606 21.2326 8.67761 21.1715 8.54556 21.0594L3.62666 16.8692C3.47797 16.7415 3.38606 16.5606 3.37212 16.3663C3.35757 16.1711 3.42266 15.9785 3.55221 15.8327L6.28491 12.7355C6.41343 12.5908 6.5931 12.5024 6.78629 12.4899C6.98093 12.4793 7.16871 12.5433 7.31407 12.6714L12.0508 16.8615C12.3451 17.1208 12.3802 17.5677 12.13 17.8709L9.5795 20.9679C9.45577 21.1189 9.27631 21.2135 9.08104 21.2301C9.06087 21.232 9.03924 21.2326 9.01782 21.2326ZM5.13577 16.2393L8.92591 19.4684L10.5585 17.4862L6.89505 14.2456L5.13577 16.2393Z" fill="#FABF31"/>
<path d="M41.9717 41.263C41.5677 41.263 41.2081 41.1746 40.9035 40.9983C40.8417 40.9627 40.7862 40.9178 40.7363 40.8652L19.1891 17.8317C19.0535 17.6876 18.9838 17.4944 18.993 17.2969C19.0034 17.0993 19.093 16.9151 19.2425 16.7845L24.2525 12.4121C24.5378 12.1638 24.9677 12.1754 25.2397 12.4397L35.2147 22.1725L47.6686 34.12C47.7391 34.1876 47.7944 34.2681 47.8331 34.3579C48.3646 35.5898 47.6024 37.5383 45.9351 39.2063C44.6653 40.4744 43.1467 41.263 41.9717 41.263ZM41.7072 39.7684C42.2211 39.9421 43.5967 39.4823 44.9039 38.1743C46.1734 36.9049 46.639 35.6073 46.528 35.0444L34.2022 23.2198L24.7036 13.9528L20.7691 17.3871L41.7072 39.7684Z" fill="#FABF31"/>
<path d="M4.82762 33.0447C4.68206 33.0447 4.53691 33.0015 4.41172 32.9154L2.3166 31.4579C2.05583 31.2757 1.94187 30.9455 2.03732 30.6408C2.13298 30.3376 2.41475 30.1299 2.7325 30.1299H6.92274C7.24112 30.1299 7.52269 30.3376 7.61793 30.6408C7.71317 30.9455 7.60067 31.2757 7.33907 31.4579L5.24394 32.9154C5.11834 33.0015 4.97361 33.0447 4.82762 33.0447Z" fill="#FABF31"/>
<path d="M4.82828 43.5201C4.42547 43.5201 4.09961 43.1951 4.09961 42.7915V32.3161C4.09961 31.9133 4.42547 31.5874 4.82828 31.5874C5.23129 31.5874 5.55694 31.9133 5.55694 32.3161V42.7915C5.55715 43.1951 5.2315 43.5201 4.82828 43.5201Z" fill="#FABF31"/>
<path d="M44.088 47.6195H0.728665C0.325861 47.6195 0 47.2944 0 46.8908V42.7917C0 42.3888 0.325861 42.063 0.728665 42.063H44.088C44.491 42.063 44.8167 42.3888 44.8167 42.7917V46.8908C44.8167 47.2944 44.4908 47.6195 44.088 47.6195ZM1.45754 46.1619H43.3593V43.5203H1.45754V46.1619Z" fill="#FABF31"/>
</g>
<defs>
<clipPath id="clip0">
<rect width="48" height="48" fill="white"/>
</clipPath>
</defs>
</svg>
