<svg width="73" height="73" viewBox="0 0 73 73" fill="none" xmlns="http://www.w3.org/2000/svg">
<path d="M1.14062 63.875H71.8594C72.4901 63.875 73 63.3651 73 62.7344V47.904V39.9253C73 37.4079 70.9514 35.3594 68.4341 35.3594H55.6773C55.2028 34.0385 53.9516 33.0861 52.4688 33.0861H47.9291C47.9211 33.0861 47.9142 33.0815 47.9062 33.0815C46.0197 33.0815 44.4844 31.5463 44.4844 29.6597V17.1094C44.4844 12.7077 40.9017 9.125 36.5 9.125C32.0983 9.125 28.5156 12.7077 28.5156 17.1094V29.6597C28.5156 31.5463 26.9803 33.0815 25.0938 33.0815C25.0858 33.0815 25.0789 33.0861 25.0709 33.0861H20.5312C19.0484 33.0861 17.7972 34.0385 17.3227 35.3594H4.56592C4.55566 35.3594 4.54653 35.3651 4.53627 35.3651C2.03145 35.381 0 37.4182 0 39.9253V47.904V62.7344C0 63.3651 0.509859 63.875 1.14062 63.875ZM70.7188 58.1719H2.28125V49.0446H70.7188V58.1719ZM2.28125 61.5938V60.4531H70.7188V61.5938H2.28125ZM30.7969 29.6597V17.1094C30.7969 13.9647 33.3553 11.4062 36.5 11.4062C39.6447 11.4062 42.2031 13.9647 42.2031 17.1094V29.6597C42.2031 32.7884 44.7387 35.3343 47.8618 35.3582C47.8777 35.3594 47.8903 35.3674 47.9062 35.3674H52.4688C53.0984 35.3674 53.6094 35.8784 53.6094 36.508V42.2065H19.3906V36.508C19.3906 35.8784 19.9016 35.3674 20.5312 35.3674H25.0938C25.1097 35.3674 25.1223 35.3594 25.1382 35.3582C28.2613 35.3343 30.7969 32.7884 30.7969 29.6597ZM4.5625 37.644C4.5682 37.644 4.57391 37.6406 4.57961 37.6406H17.1094V43.3472C17.1094 43.9779 17.6192 44.4878 18.25 44.4878H54.75C55.3808 44.4878 55.8906 43.9779 55.8906 43.3472V37.6406H68.4341C69.6945 37.6406 70.7188 38.6649 70.7188 39.9253V46.7633H2.28125V39.9253C2.28125 38.6672 3.30439 37.644 4.5625 37.644Z" fill="#303030"/>
<path d="M36.5 20.5298C38.3866 20.5298 39.9219 18.9945 39.9219 17.1079C39.9219 15.2213 38.3866 13.686 36.5 13.686C34.6134 13.686 33.0781 15.2213 33.0781 17.1079C33.0781 18.9945 34.6134 20.5298 36.5 20.5298ZM36.5 15.9673C37.1296 15.9673 37.6406 16.4783 37.6406 17.1079C37.6406 17.7375 37.1296 18.2485 36.5 18.2485C35.8704 18.2485 35.3594 17.7375 35.3594 17.1079C35.3594 16.4783 35.8704 15.9673 36.5 15.9673Z" fill="#303030"/>
</svg>
