<svg width="51" height="51" viewBox="0 0 51 51" fill="none" xmlns="http://www.w3.org/2000/svg">
<g clip-path="url(#clip0)">
<path d="M25.6162 9.5249C18.7608 9.5249 13.1836 15.1015 13.1836 21.9571C13.1836 24.1026 13.7474 26.2266 14.8096 28.0962C16.5271 31.7 17.3194 35.6324 17.6902 38.5491H15.2027C14.7847 38.5491 14.4451 38.8886 14.4451 39.3067V46.0306C14.4451 47.5451 15.677 48.777 17.1915 48.777H19.1831C19.519 50.0547 20.6839 51.0001 22.0658 51.0001H28.7005C30.0828 51.0001 31.2471 50.0547 31.583 48.7763H33.5749C35.0893 48.7763 36.3212 47.5445 36.3212 46.03V39.306C36.3212 38.8879 35.9824 38.5483 35.5634 38.5483H33.5422C33.9121 35.6361 34.7006 31.7136 36.3876 28.1628C37.4735 26.2815 38.048 24.1355 38.048 21.9564C38.0488 15.1017 32.471 9.5249 25.6162 9.5249ZM34.8061 46.0304C34.8061 46.7089 34.2541 47.2614 33.5751 47.2614L30.9234 47.2623C30.5053 47.2623 30.1656 47.6017 30.1656 48.0199C30.1656 48.8278 29.5086 49.4848 28.7007 49.4848H22.066C21.2586 49.4848 20.6007 48.8278 20.6007 48.0192C20.6007 47.6011 20.2614 47.2614 19.8431 47.2614H17.1917C16.5128 47.2614 15.9604 46.7086 15.9604 46.0304V40.064H18.5448H32.6874H34.8063V46.0304H34.8061ZM23.7952 29.9155C23.0147 28.9671 21.7964 28.7466 21.7268 28.7362C21.3107 28.6668 20.9237 28.9465 20.8545 29.3584C20.7857 29.7713 21.0646 30.1613 21.4773 30.2307C21.4903 30.2323 22.7471 30.4541 22.906 31.5277C22.9289 31.6793 22.9486 31.8821 22.9665 32.1086H22.1547C21.2294 32.1086 20.6054 31.8518 20.247 31.3221C19.6059 30.3749 19.8198 28.6815 20.1423 27.4061C20.8752 28.0305 21.6842 28.1652 22.2857 28.2659C22.4827 28.2984 22.6684 28.3265 22.832 28.3784C23.2571 28.5131 23.5219 28.7379 23.6659 29.0827C23.7671 29.3251 23.8004 29.6129 23.7952 29.9155ZM26.6144 22.5981C26.8883 21.9389 27.4031 21.4972 28.189 21.2471C28.4419 21.1667 28.7645 21.1131 29.1048 21.0562C30.1888 20.8761 31.5863 20.6433 32.7568 19.3145C33.3725 21.4283 33.9443 24.7149 32.7287 26.5126C32.0814 27.4708 30.9857 27.9369 29.3802 27.9369H27.6437C27.6815 27.3635 27.7259 26.8786 27.7775 26.5325C28.0677 24.5688 30.2709 24.1554 30.3745 24.1372C30.7859 24.0676 31.0639 23.678 30.9945 23.266C30.9267 22.8539 30.5373 22.5735 30.1231 22.6433C30.0003 22.6636 27.4234 23.125 26.5309 25.3782C26.3333 24.4012 26.2877 23.3821 26.6144 22.5981ZM35.048 27.4597C33.2153 31.3106 32.3866 35.5044 32.0124 38.5496H27.4059C27.4059 38.4787 27.4083 33.1576 27.5629 29.4531H29.3791C31.4959 29.4531 33.0452 28.7494 33.9833 27.3622C36.294 23.9431 33.7895 17.6009 33.6814 17.3326C33.5703 17.0563 33.307 16.8706 33.0089 16.8585C32.7092 16.8425 32.4333 17.0094 32.2995 17.2769C31.3658 19.145 30.0887 19.3571 28.8546 19.5634C28.4594 19.6284 28.0856 19.6907 27.7291 19.8042C26.5091 20.1918 25.6623 20.9379 25.213 22.02C24.2086 24.4406 25.6255 27.8119 26.0776 28.7775C25.8929 32.4961 25.8897 38.2417 25.8897 38.5496H24.6526C24.6474 37.394 24.6258 34.8273 24.5367 32.9771C24.8766 32.2446 25.7343 30.1153 25.0647 28.5031C24.7501 27.7456 24.1366 27.2031 23.2897 26.9331C23.0433 26.854 22.7845 26.8125 22.5328 26.7703C21.7472 26.6395 21.0689 26.5269 20.5356 25.4597C20.4024 25.1929 20.1317 25.0267 19.8265 25.0414C19.5288 25.0535 19.2661 25.2392 19.1547 25.5159C18.9764 25.9587 17.4604 29.908 18.9885 32.1689C19.6407 33.1338 20.7053 33.6229 22.1525 33.6229H23.0478C23.1129 35.3462 23.1315 37.5138 23.1358 38.5489H19.2183C18.8432 35.4986 18.0126 31.299 16.1749 27.4414C16.1641 27.4178 16.1422 27.3711 16.1286 27.348C15.1923 25.7034 14.6965 23.8389 14.6965 21.9562C14.6965 15.9364 19.5936 11.0389 25.6141 11.0389C31.6336 11.0389 36.5314 15.9364 36.5314 21.9562C36.5335 23.8709 36.0298 25.7552 35.048 27.4597Z" fill="#FAC234"/>
<path d="M24.8594 0.757554V6.34495C24.8594 6.76286 25.1986 7.1025 25.6169 7.1025C26.0351 7.1025 26.3747 6.76286 26.3747 6.34495V0.757554C26.3747 0.339429 26.0351 0 25.6169 0C25.1986 0 24.8594 0.339645 24.8594 0.757554Z" fill="#FAC234"/>
<path d="M40.5474 6.28236C40.2508 5.98596 39.7728 5.98596 39.4761 6.28236L35.5254 10.2331C35.2285 10.5296 35.2285 11.008 35.5254 11.3044C35.6726 11.4525 35.8663 11.5264 36.0611 11.5264C36.2548 11.5264 36.4487 11.4525 36.5968 11.3044L40.5476 7.35362C40.844 7.05721 40.844 6.5779 40.5474 6.28236Z" fill="#FAC234"/>
<path d="M10.6149 6.11781C10.3185 6.41379 10.3185 6.89266 10.6149 7.18929L14.5657 11.1401C14.7133 11.2877 14.9075 11.3621 15.1014 11.3621C15.2953 11.3621 15.489 11.2877 15.6371 11.1401C15.9333 10.8437 15.9333 10.3652 15.6371 10.0688L11.6859 6.11781C11.3899 5.82141 10.9102 5.82141 10.6149 6.11781Z" fill="#FAC234"/>
<path d="M4.33398 21.0505C4.33398 21.4686 4.6732 21.8081 5.09154 21.8081H10.6789C11.0971 21.8081 11.4365 21.4684 11.4365 21.0505C11.4365 20.6322 11.0968 20.293 10.6789 20.293H5.09154C4.67255 20.293 4.33398 20.6315 4.33398 21.0505Z" fill="#FAC234"/>
<path d="M45.9077 20.5254H40.3203C39.9021 20.5254 39.5625 20.865 39.5625 21.2829C39.5625 21.7015 39.9021 22.0405 40.3203 22.0405H45.9077C46.3258 22.0405 46.6652 21.7013 46.6652 21.2829C46.6652 20.8648 46.3256 20.5254 45.9077 20.5254Z" fill="#FAC234"/>
</g>
<defs>
<clipPath id="clip0">
<rect width="51" height="51" fill="white"/>
</clipPath>
</defs>
</svg>
