<svg width="18" height="18" viewBox="0 0 18 18" fill="none" xmlns="http://www.w3.org/2000/svg">
<path fill-rule="evenodd" clip-rule="evenodd" d="M16.2737 1.4246C16.8595 2.01039 17.3344 2.48527 17.3344 2.48527L10.9704 8.84921L17.3344 15.2132C17.3344 15.2132 16.8595 15.688 16.2737 16.2738C15.6879 16.8596 15.2131 17.3345 15.2131 17.3345L8.84911 10.9705L2.48517 17.3345C2.48517 17.3345 2.01032 16.8596 1.42454 16.2738C0.838752 15.688 0.363852 15.2132 0.363852 15.2132L6.7278 8.84921L0.363853 2.48527C0.363853 2.48527 0.838744 2.0104 1.42453 1.42461C2.01031 0.838826 2.48517 0.363955 2.48517 0.363955L8.84911 6.7279L15.2131 0.363954C15.2131 0.363954 15.6879 0.838816 16.2737 1.4246Z" fill="white"/>
</svg>
