<svg width="192" height="16" viewBox="0 0 192 16" fill="none" xmlns="http://www.w3.org/2000/svg">
<path d="M191.333 8.80232C191.724 8.4118 191.724 7.77863 191.333 7.38811L184.969 1.02415C184.579 0.633623 183.945 0.633623 183.555 1.02415C183.164 1.41467 183.164 2.04784 183.555 2.43836L189.212 8.09521L183.555 13.7521C183.164 14.1426 183.164 14.7758 183.555 15.1663C183.945 15.5568 184.579 15.5568 184.969 15.1663L191.333 8.80232ZM0.625977 9.09521H2.11035V7.09521H0.625977V9.09521ZM5.0791 9.09521H8.04785V7.09521H5.0791V9.09521ZM11.0166 9.09521H13.9854V7.09521H11.0166V9.09521ZM16.9541 9.09521H19.9229V7.09521H16.9541V9.09521ZM22.8916 9.09521H25.8604V7.09521H22.8916V9.09521ZM28.8291 9.09521H31.7979V7.09521H28.8291V9.09521ZM34.7666 9.09521H37.7354V7.09521H34.7666V9.09521ZM40.7041 9.09521H43.6729V7.09521H40.7041V9.09521ZM46.6416 9.09521H49.6104V7.09521H46.6416V9.09521ZM52.5791 9.09521H55.5479V7.09521H52.5791V9.09521ZM58.5166 9.09521H61.4854V7.09521H58.5166V9.09521ZM64.4541 9.09521H67.4229V7.09521H64.4541V9.09521ZM70.3916 9.09521H73.3604V7.09521H70.3916V9.09521ZM76.3291 9.09521H79.2979V7.09521H76.3291V9.09521ZM82.2666 9.09521H85.2354V7.09521H82.2666V9.09521ZM88.2041 9.09521H91.1729V7.09521H88.2041V9.09521ZM94.1416 9.09521H97.1104V7.09521H94.1416V9.09521ZM100.079 9.09521H103.048V7.09521H100.079V9.09521ZM106.017 9.09521H108.985V7.09521H106.017V9.09521ZM111.954 9.09521H114.923V7.09521H111.954V9.09521ZM117.892 9.09521H120.86V7.09521H117.892V9.09521ZM123.829 9.09521H126.798V7.09521H123.829V9.09521ZM129.767 9.09521H132.735V7.09521H129.767V9.09521ZM135.704 9.09521H138.673V7.09521H135.704V9.09521ZM141.642 9.09521H144.61V7.09521H141.642V9.09521ZM147.579 9.09521H150.548V7.09521H147.579V9.09521ZM153.517 9.09521H156.485V7.09521H153.517V9.09521ZM159.454 9.09521H162.423V7.09521H159.454V9.09521ZM165.392 9.09521H168.36V7.09521H165.392V9.09521ZM171.329 9.09521H174.298V7.09521H171.329V9.09521ZM177.267 9.09521H180.235V7.09521H177.267V9.09521ZM183.204 9.09521H186.173V7.09521H183.204V9.09521ZM189.142 9.09521H190.626V7.09521H189.142V9.09521Z" fill="#7F9681"/>
</svg>
