<svg width="191" height="45" viewBox="0 0 191 45" fill="none" xmlns="http://www.w3.org/2000/svg">
<path d="M1.18945 22.3838H3.37607V14.2472H10.2186L14.1604 22.3838H16.6743L12.4498 13.7117C13.6497 13.2258 14.572 12.4374 15.2166 11.3466C15.8611 10.2557 16.1834 9.01119 16.1834 7.61294C16.1834 5.93703 15.7322 4.49415 14.8298 3.28432C13.9274 2.07449 12.6382 1.34066 10.9623 1.08283C10.6946 1.03324 10.4268 1.00349 10.1591 0.993577C9.90123 0.973744 9.66819 0.963827 9.45994 0.963827H1.18945V22.3838ZM3.37607 12.1647V3.0612H9.40044C9.57894 3.0612 9.78719 3.07112 10.0252 3.09095C10.2731 3.10087 10.5061 3.13062 10.7243 3.1802C11.8251 3.4182 12.6333 3.96857 13.1489 4.83132C13.6745 5.68415 13.9373 6.61136 13.9373 7.61294C13.9373 8.60461 13.6745 9.53181 13.1489 10.3946C12.6333 11.2573 11.8251 11.8027 10.7243 12.0308C10.5061 12.0804 10.2731 12.1151 10.0252 12.1349C9.78719 12.1548 9.57894 12.1647 9.40044 12.1647H3.37607Z" fill="white"/>
<path d="M25.7522 22.3838H27.9537V13.4142L35.1086 0.963827H32.5798L26.853 10.9152L21.0964 0.963827H18.5676L25.7522 13.4142V22.3838Z" fill="white"/>
<path d="M38.2223 22.3838H40.3197V5.84282L47.9357 22.3838H49.3488L56.9797 5.84282V22.3689H59.0622V0.963827H57.0243L48.6497 18.9774L40.2305 0.963827H38.2223V22.3838Z" fill="white"/>
<path d="M72.9501 22.83C75.4391 22.83 77.4721 22.1954 79.0488 20.926C80.6255 19.6468 81.7065 17.9362 82.2915 15.7942L80.0603 15.2141C79.6041 16.8999 78.786 18.2436 77.6059 19.2452C76.4258 20.2368 74.8739 20.7327 72.9501 20.7327C71.2741 20.7327 69.8709 20.3509 68.7404 19.5873C67.6199 18.8138 66.7769 17.7478 66.2117 16.3892C65.6564 15.0306 65.3837 13.4588 65.3936 11.6738C65.4134 9.88881 65.701 8.31702 66.2563 6.95844C66.8117 5.58994 67.6447 4.5239 68.7553 3.76032C69.8759 2.99674 71.2741 2.61495 72.9501 2.61495C74.8739 2.61495 76.4258 3.11574 77.6059 4.11732C78.786 5.10899 79.6041 6.44773 80.0603 8.13356L82.2915 7.55344C81.7065 5.41144 80.6255 3.70578 79.0488 2.43645C77.4721 1.1572 75.4391 0.517578 72.9501 0.517578C70.818 0.517578 69.0181 0.988619 67.5504 1.9307C66.0828 2.87278 64.9721 4.18178 64.2184 5.85769C63.4648 7.53361 63.088 9.47231 63.088 11.6738C63.088 13.8654 63.4648 15.8041 64.2184 17.4899C64.9721 19.1658 66.0828 20.4748 67.5504 21.4169C69.0181 22.359 70.818 22.83 72.9501 22.83Z" fill="white"/>
<path d="M86.6148 22.3838H88.8014V12.7151H100.642V22.3838H102.814V0.963827H100.642V10.6177H88.8014V0.963827H86.6148V22.3838Z" fill="white"/>
<path d="M108.022 22.3838H121.409V20.2864H110.209V12.5663H119.624V10.4689H110.209V3.0612H121.409V0.963827H108.022V22.3838Z" fill="white"/>
<path d="M126.03 22.3838H128.232V4.81645L140.027 22.3838H142.229V0.963827H140.027V18.5163L128.232 0.963827H126.03V22.3838Z" fill="white"/>
<path d="M175.425 22.3838H177.612V11.6738L188.144 22.3838H190.999L180.2 11.3019L190.181 0.963827H187.385L177.612 11.0788V0.963827H175.425V22.3838Z" fill="white"/>
<path d="M4.06972 35.7451H0.75V35.162H8.06128V35.7451H4.74157V44.0353H4.06972V35.7451Z" fill="white"/>
<path d="M18.2375 44.0353L16.0375 41.0691C15.7126 41.1113 15.414 41.1324 15.1417 41.1324H12.507V44.0353H11.8352V35.162H15.1417C16.301 35.162 17.21 35.4282 17.8686 35.9606C18.5273 36.4845 18.8566 37.2155 18.8566 38.1536C18.8566 38.855 18.6678 39.4465 18.2902 39.9282C17.9213 40.4014 17.39 40.7353 16.6962 40.9296L19.0016 44.0353H18.2375ZM15.1417 40.562C16.1253 40.562 16.8762 40.355 17.3944 39.9409C17.9125 39.5184 18.1716 38.9226 18.1716 38.1536C18.1716 37.3845 17.9125 36.793 17.3944 36.3789C16.8762 35.9564 16.1253 35.7451 15.1417 35.7451H12.507V40.562H15.1417Z" fill="white"/>
<path d="M29.1284 41.5381H23.7799L22.6075 44.0353H21.8829L26.1248 35.162H26.7966L31.0385 44.0353H30.314L29.1284 41.5381ZM28.8781 40.993L26.4541 35.8719L24.0434 40.993H28.8781Z" fill="white"/>
<path d="M42.3292 35.162V44.0353H41.7759L35.4922 36.3282V44.0353H34.8203V35.162H35.3868L41.6574 42.8691V35.162H42.3292Z" fill="white"/>
<path d="M50.0812 44.0986C49.4049 44.0986 48.7595 43.9888 48.1447 43.7691C47.5387 43.5409 47.0645 43.2493 46.722 42.8944L47.0249 42.4127C47.3499 42.7423 47.7846 43.0127 48.3291 43.224C48.8824 43.4268 49.462 43.5282 50.068 43.5282C50.9462 43.5282 51.6093 43.3676 52.0572 43.0465C52.5051 42.7254 52.7291 42.3071 52.7291 41.7916C52.7291 41.3944 52.6105 41.0775 52.3734 40.8409C52.1363 40.6043 51.842 40.4226 51.4908 40.2958C51.1395 40.1691 50.6652 40.0381 50.068 39.9029C49.3918 39.7423 48.8473 39.586 48.4345 39.4338C48.0305 39.2817 47.6836 39.0493 47.3938 38.7367C47.1128 38.4155 46.9722 37.9888 46.9722 37.4564C46.9722 37.0254 47.0908 36.6324 47.3279 36.2775C47.5651 35.9141 47.9251 35.6268 48.4082 35.4155C48.9 35.2043 49.5103 35.0986 50.2393 35.0986C50.7486 35.0986 51.2492 35.1705 51.7411 35.3141C52.2329 35.4578 52.6588 35.6522 53.0189 35.8972L52.7686 36.4169C52.3997 36.1719 51.9913 35.986 51.5434 35.8592C51.1043 35.7324 50.6696 35.6691 50.2393 35.6691C49.3874 35.6691 48.7419 35.8338 48.3028 36.1634C47.8637 36.493 47.6441 36.9198 47.6441 37.4437C47.6441 37.8409 47.7627 38.1578 47.9998 38.3944C48.2369 38.631 48.5311 38.8127 48.8824 38.9395C49.2337 39.0662 49.7123 39.2014 50.3183 39.3451C50.9945 39.5057 51.5347 39.662 51.9386 39.8141C52.3426 39.9662 52.6851 40.1986 52.9662 40.5113C53.256 40.8155 53.4009 41.2296 53.4009 41.7536C53.4009 42.1845 53.278 42.5775 53.0321 42.9324C52.7949 43.2874 52.4261 43.5705 51.9255 43.7817C51.4249 43.993 50.8101 44.0986 50.0812 44.0986Z" fill="white"/>
<path d="M57.7926 35.162H58.4645V43.4522H63.7734V44.0353H57.7926V35.162Z" fill="white"/>
<path d="M73.3233 41.5381H67.9749L66.8025 44.0353H66.0779L70.3198 35.162H70.9916L75.2335 44.0353H74.5089L73.3233 41.5381ZM73.073 40.993L70.6491 35.8719L68.2384 40.993H73.073Z" fill="white"/>
<path d="M80.3174 35.7451H76.9977V35.162H84.309V35.7451H80.9893V44.0353H80.3174V35.7451Z" fill="white"/>
<path d="M88.0829 35.162H88.7547V44.0353H88.0829V35.162Z" fill="white"/>
<path d="M97.9883 44.0986C97.0837 44.0986 96.267 43.9043 95.538 43.5155C94.8091 43.1184 94.2339 42.5775 93.8123 41.893C93.3996 41.2085 93.1932 40.4437 93.1932 39.5986C93.1932 38.7536 93.3996 37.9888 93.8123 37.3043C94.2339 36.6198 94.8091 36.0831 95.538 35.6944C96.267 35.2972 97.0837 35.0986 97.9883 35.0986C98.8929 35.0986 99.7097 35.293 100.439 35.6817C101.168 36.0705 101.738 36.6071 102.151 37.2916C102.573 37.9761 102.783 38.7451 102.783 39.5986C102.783 40.4522 102.573 41.2212 102.151 41.9057C101.738 42.5902 101.168 43.1268 100.439 43.5155C99.7097 43.9043 98.8929 44.0986 97.9883 44.0986ZM97.9883 43.5029C98.7612 43.5029 99.4594 43.3338 100.083 42.9958C100.706 42.6578 101.198 42.193 101.558 41.6014C101.918 41.0014 102.098 40.3338 102.098 39.5986C102.098 38.8634 101.918 38.2 101.558 37.6085C101.198 37.0085 100.706 36.5395 100.083 36.2014C99.4594 35.8634 98.7612 35.6944 97.9883 35.6944C97.2155 35.6944 96.5129 35.8634 95.8806 36.2014C95.257 36.5395 94.7652 37.0085 94.4051 37.6085C94.0451 38.2 93.865 38.8634 93.865 39.5986C93.865 40.3338 94.0451 41.0014 94.4051 41.6014C94.7652 42.193 95.257 42.6578 95.8806 42.9958C96.5129 43.3338 97.2155 43.5029 97.9883 43.5029Z" fill="white"/>
<path d="M114.73 35.162V44.0353H114.177L107.893 36.3282V44.0353H107.221V35.162H107.788L114.059 42.8691V35.162H114.73Z" fill="white"/>
<path d="M131.254 41.5381H125.905L124.733 44.0353H124.008L128.25 35.162H128.922L133.164 44.0353H132.439L131.254 41.5381ZM131.003 40.993L128.58 35.8719L126.169 40.993H131.003Z" fill="white"/>
<path d="M143.404 39.6367H144.049V42.9578C143.645 43.3296 143.153 43.6127 142.574 43.8071C142.003 44.0014 141.397 44.0986 140.756 44.0986C139.843 44.0986 139.017 43.9043 138.279 43.5155C137.55 43.1268 136.975 42.5902 136.554 41.9057C136.141 41.2212 135.934 40.4522 135.934 39.5986C135.934 38.7451 136.141 37.9761 136.554 37.2916C136.975 36.6071 137.55 36.0705 138.279 35.6817C139.017 35.293 139.847 35.0986 140.769 35.0986C141.445 35.0986 142.064 35.2043 142.627 35.4155C143.197 35.6184 143.685 35.9184 144.089 36.3155L143.667 36.7465C143.281 36.3747 142.846 36.1085 142.363 35.9479C141.889 35.7789 141.362 35.6944 140.782 35.6944C139.992 35.6944 139.276 35.8634 138.635 36.2014C138.003 36.5395 137.506 37.0085 137.146 37.6085C136.786 38.2 136.606 38.8634 136.606 39.5986C136.606 40.3254 136.786 40.9888 137.146 41.5888C137.515 42.1803 138.016 42.6493 138.648 42.9958C139.28 43.3338 139.992 43.5029 140.782 43.5029C141.836 43.5029 142.71 43.2324 143.404 42.6916V39.6367Z" fill="white"/>
<path d="M155.476 43.4522V44.0353H149.114V35.162H155.279V35.7451H149.786V39.2437H154.699V39.8141H149.786V43.4522H155.476Z" fill="white"/>
<path d="M167.543 35.162V44.0353H166.989L160.706 36.3282V44.0353H160.034V35.162H160.6L166.871 42.8691V35.162H167.543Z" fill="white"/>
<path d="M176.77 44.0986C175.865 44.0986 175.049 43.9043 174.32 43.5155C173.6 43.1268 173.029 42.5902 172.607 41.9057C172.194 41.2212 171.988 40.4522 171.988 39.5986C171.988 38.7451 172.194 37.9761 172.607 37.2916C173.029 36.6071 173.6 36.0705 174.32 35.6817C175.049 35.293 175.865 35.0986 176.77 35.0986C177.438 35.0986 178.052 35.2043 178.614 35.4155C179.176 35.6184 179.655 35.9226 180.05 36.3282L179.629 36.7465C178.891 36.0451 177.947 35.6944 176.796 35.6944C176.024 35.6944 175.321 35.8634 174.689 36.2014C174.056 36.5395 173.56 37.0085 173.2 37.6085C172.84 38.2 172.66 38.8634 172.66 39.5986C172.66 40.3338 172.84 41.0014 173.2 41.6014C173.56 42.193 174.056 42.6578 174.689 42.9958C175.321 43.3338 176.024 43.5029 176.796 43.5029C177.938 43.5029 178.882 43.1479 179.629 42.4381L180.05 42.8564C179.655 43.262 179.172 43.5705 178.601 43.7817C178.039 43.993 177.429 44.0986 176.77 44.0986Z" fill="white"/>
<path d="M187.035 40.9803V44.0353H186.363V40.9803L182.648 35.162H183.386L186.719 40.3845L190.052 35.162H190.75L187.035 40.9803Z" fill="white"/>
<g clip-path="url(#clip0_760:1181)">
<path d="M166.695 3.33836C164.588 1.23127 161.786 0.0708008 158.806 0.0708008C155.827 0.0708008 153.025 1.23127 150.918 3.33836C148.811 5.44545 147.65 8.2471 147.65 11.2271C147.65 14.2071 148.811 17.0086 150.918 19.1157C153.025 21.2228 155.826 22.3833 158.806 22.3833C161.786 22.3833 164.588 21.2228 166.695 19.1157C168.802 17.0086 169.963 14.207 169.963 11.227C169.963 8.24706 168.802 5.44553 166.695 3.33836ZM165.772 4.26132C166.368 4.857 166.877 5.51583 167.296 6.22233H162.959C162.768 5.25823 162.52 4.36408 162.22 3.56941C161.941 2.82992 161.623 2.20012 161.274 1.68649C162.961 2.11976 164.508 2.99739 165.772 4.26132ZM162.118 11.227C162.118 12.4931 162.033 13.7218 161.869 14.8664H155.744C155.58 13.7218 155.495 12.4931 155.495 11.227C155.495 9.93875 155.583 8.68908 155.753 7.52743H161.86C162.03 8.68912 162.118 9.93875 162.118 11.227ZM158.806 1.37595C159.552 1.37595 160.372 2.36824 160.999 4.03026C161.248 4.69057 161.459 5.4278 161.628 6.22229H155.985C156.154 5.4278 156.364 4.69057 156.614 4.03026C157.241 2.36824 158.061 1.37595 158.806 1.37595ZM151.841 4.26127C153.105 2.99735 154.652 2.11971 156.339 1.68645C155.99 2.20007 155.672 2.82992 155.393 3.56937C155.093 4.36403 154.845 5.25819 154.654 6.22229H150.317C150.735 5.51583 151.245 4.85696 151.841 4.26127ZM148.955 11.2271C148.955 9.93818 149.202 8.68725 149.671 7.52748H154.435C154.274 8.6994 154.189 9.94703 154.189 11.2271C154.189 12.4851 154.271 13.7121 154.427 14.8664H149.647C149.193 13.7236 148.955 12.4937 148.955 11.2271ZM151.841 18.1927C151.228 17.5802 150.707 16.9008 150.282 16.1715H154.642C154.835 17.1586 155.086 18.0735 155.393 18.8847C155.672 19.6241 155.99 20.2539 156.339 20.7676C154.652 20.3343 153.105 19.4567 151.841 18.1927ZM158.806 21.0781C158.061 21.0781 157.241 20.0858 156.614 18.4238C156.358 17.7469 156.144 16.989 155.973 16.1715H161.64C161.469 16.9889 161.255 17.7468 160.999 18.4238C160.372 20.0859 159.552 21.0781 158.806 21.0781ZM165.772 18.1928C164.508 19.4567 162.961 20.3344 161.274 20.7676C161.623 20.254 161.941 19.6241 162.22 18.8847C162.526 18.0735 162.778 17.1587 162.971 16.1716H167.331C166.906 16.9008 166.385 17.5802 165.772 18.1928ZM163.186 14.8664C163.342 13.712 163.423 12.485 163.423 11.227C163.423 9.94703 163.339 8.69932 163.177 7.52743H167.942C168.411 8.6872 168.658 9.93814 168.658 11.227C168.658 12.4937 168.419 13.7235 167.966 14.8664H163.186Z" fill="#F87A0B"/>
</g>
<defs>
<clipPath id="clip0_760:1181">
<rect width="22.3125" height="22.3125" fill="white" transform="translate(147.65 0.0708008)"/>
</clipPath>
</defs>
</svg>
