<svg width="59" height="50" viewBox="0 0 59 50" fill="none" xmlns="http://www.w3.org/2000/svg">
<path d="M58.0782 28.2925C58.0781 28.2923 58.0781 28.2921 58.078 28.2918L47.0971 0.719931C46.8641 0.1341 46.2001 -0.151894 45.6142 0.0811538C45.6138 0.0812965 45.6134 0.0814392 45.6129 0.0817246L1.0652 17.8202C0.883528 17.8987 0.725974 18.024 0.608523 18.1833C0.238043 18.3758 0.00399593 18.7568 0 19.1743V48.8583C0 49.4888 0.511193 50 1.14169 50H49.0928C49.7233 50 50.2345 49.4888 50.2345 48.8583V32.6463L57.4409 29.776C58.0266 29.5424 58.3119 28.8782 58.0782 28.2925ZM47.9511 47.7166H2.28339V20.316H47.9511V47.7166ZM19.0492 18.0383L38.1657 10.4209C39.8718 12.2142 42.2358 13.2335 44.711 13.2432L46.6176 18.0383H19.0492ZM50.2345 30.1939V19.1743C50.2345 18.5438 49.7233 18.0326 49.0928 18.0326H49.0746L46.6553 11.9565C46.6285 11.9058 46.5972 11.8576 46.5617 11.8126C46.4392 11.2628 45.9301 10.8876 45.3686 10.9335C43.0655 11.1435 40.8126 10.1733 39.3827 8.35558C39.0269 7.91646 38.4016 7.80728 37.9179 8.09984C37.8637 8.10626 37.8099 8.11625 37.757 8.12952L14.4184 17.4229C14.136 17.5337 13.9101 17.7533 13.7917 18.0326H6.70403L45.3983 2.62542L55.5354 28.0795L50.2345 30.1939Z" fill="#CCA75D"/>
<path d="M5.38182 40.009C7.59842 40.6642 9.33294 42.3966 9.99084 44.6124C10.1351 45.096 10.58 45.4274 11.0846 45.4275C11.1438 45.4238 11.2026 45.415 11.2604 45.4013C11.3116 45.4158 11.364 45.4265 11.4168 45.4332H38.8175C38.8646 45.4271 38.9111 45.4175 38.9568 45.4047C39.5272 45.5434 40.102 45.1936 40.2409 44.6232C40.2413 44.6211 40.2419 44.6191 40.2423 44.6169C40.8985 42.3989 42.6333 40.6641 44.8513 40.0079C45.3892 39.8435 45.7234 39.3075 45.6345 38.752C45.6498 38.6967 45.6608 38.6402 45.6676 38.5831V29.4495C45.6609 29.3923 45.6495 29.3358 45.6334 29.2806C45.7229 28.725 45.3885 28.1887 44.8502 28.0247C42.6321 27.3686 40.8978 25.6331 40.2434 23.4145C40.0782 22.8729 39.5369 22.5379 38.9784 22.6313C38.9256 22.6166 38.8718 22.6059 38.8175 22.5994H11.4168C11.3593 22.6062 11.3024 22.6176 11.2467 22.6336C10.6914 22.5451 10.1557 22.8792 9.99084 23.4168C9.33422 25.6344 7.59956 27.3686 5.38182 28.0247C4.84394 28.1891 4.50971 28.7251 4.59862 29.2806C4.58378 29.3361 4.57307 29.3924 4.56665 29.4495V38.5831C4.57322 38.6367 4.58392 38.6898 4.59862 38.7418C4.505 39.3008 4.83994 39.8428 5.38182 40.009ZM6.85004 29.9131C9.14256 28.9923 10.9596 27.1753 11.8803 24.8828H38.3528C39.274 27.1753 41.0914 28.9923 43.3842 29.9131V38.1195C41.0924 39.0413 39.2757 40.858 38.3539 43.1498H11.8803C10.9586 40.858 9.14185 39.0413 6.85004 38.1195V29.9131Z" fill="#CCA75D"/>
<path d="M25.1173 40.8663C28.9005 40.8663 31.9674 37.7995 31.9674 34.0162C31.9674 30.2329 28.9005 27.166 25.1173 27.166C21.334 27.166 18.2671 30.2329 18.2671 34.0162C18.2708 37.7979 21.3355 40.8626 25.1173 40.8663ZM25.1173 29.4494C27.6394 29.4494 29.684 31.494 29.684 34.0162C29.684 36.5383 27.6394 38.5829 25.1173 38.5829C22.5951 38.5829 20.5505 36.5383 20.5505 34.0162C20.5505 31.494 22.5951 29.4494 25.1173 29.4494Z" fill="#CCA75D"/>
<path d="M12.5587 35.7285C13.5045 35.7285 14.2713 34.9618 14.2713 34.016C14.2713 33.0703 13.5045 32.3035 12.5587 32.3035C11.613 32.3035 10.8462 33.0703 10.8462 34.016C10.8462 34.9619 11.613 35.7285 12.5587 35.7285ZM12.5587 33.4452C12.874 33.4452 13.1296 33.7008 13.1296 34.016C13.1296 34.3313 12.874 34.5869 12.5587 34.5869C12.2435 34.5869 11.9879 34.3313 11.9879 34.016C11.9879 33.7008 12.2435 33.4452 12.5587 33.4452Z" fill="#CCA75D"/>
<path d="M37.6759 35.7285C38.6217 35.7285 39.3885 34.9618 39.3885 34.016C39.3885 33.0703 38.6217 32.3035 37.6759 32.3035C36.7302 32.3035 35.9634 33.0703 35.9634 34.016C35.9634 34.9619 36.7302 35.7285 37.6759 35.7285ZM37.6759 33.4452C37.9912 33.4452 38.2468 33.7008 38.2468 34.016C38.2468 34.3313 37.9912 34.5869 37.6759 34.5869C37.3607 34.5869 37.1051 34.3313 37.1051 34.016C37.1051 33.7008 37.3607 33.4452 37.6759 33.4452Z" fill="#CCA75D"/>
</svg>
