<?xml version="1.0" encoding="utf-8"?><svg viewBox="0 0 44 24" xmlns="http://www.w3.org/2000/svg" xmlns:xlink="http://www.w3.org/1999/xlink"><style>:root>svg{display:none}:root>svg:target{display:block}</style><svg viewBox="0 0 44 24" id="icon-arrow" xmlns="http://www.w3.org/2000/svg"><path d="M1 1l21 21L43 1" stroke="#fff" stroke-width="2"/></svg><svg fill="none" viewBox="0 0 26 16" id="icon-arrowRight" xmlns="http://www.w3.org/2000/svg"><path d="M25.707 8.707a1 1 0 000-1.414L19.343.929a1 1 0 10-1.414 1.414L23.586 8l-5.657 5.657a1 1 0 001.414 1.414l6.364-6.364zM0 9h25V7H0v2z" fill="#fff"/></svg><svg viewBox="0 0 17 17" id="icon-phone" xmlns="http://www.w3.org/2000/svg"><path d="M16.537 12.476l-2.372-2.372c-.848-.847-2.288-.508-2.627.593-.254.763-1.101 1.186-1.864 1.017-1.695-.424-3.982-2.627-4.406-4.406-.254-.763.254-1.61 1.017-1.864 1.101-.34 1.44-1.78.593-2.627L4.506.445c-.678-.593-1.695-.593-2.288 0l-1.61 1.61c-1.61 1.694.17 6.185 4.152 10.167s8.473 5.846 10.167 4.152l1.61-1.61c.593-.678.593-1.695 0-2.288z" fill="#F45959"/></svg><svg viewBox="0 0 21 19" id="icon-phote" xmlns="http://www.w3.org/2000/svg"><path d="M18.474 3.812h-3.036V3.5A2.525 2.525 0 0012.914.976H8.086A2.525 2.525 0 005.56 3.5v.312H2.524A2.525 2.525 0 000 6.337V15.5a2.525 2.525 0 002.524 2.524h15.952A2.525 2.525 0 0021 15.5V6.337a2.526 2.526 0 00-2.526-2.525zM10.5 15.406a4.773 4.773 0 01-4.769-4.769A4.773 4.773 0 0110.5 5.87a4.773 4.773 0 014.768 4.768c0 2.63-2.139 4.768-4.768 4.768zm2.524-4.769a2.529 2.529 0 01-2.524 2.525 2.529 2.529 0 01-2.525-2.525A2.528 2.528 0 0110.5 8.113a2.528 2.528 0 012.524 2.524z" fill="#F45959"/></svg><svg viewBox="0 0 12 10" id="icon-photeWhite" xmlns="http://www.w3.org/2000/svg"><path d="M10.557 1.75H8.822v-.178c0-.797-.646-1.443-1.443-1.443H4.62c-.796 0-1.442.646-1.442 1.443v.178H1.443C.646 1.75 0 2.396 0 3.192v5.236c0 .797.646 1.443 1.443 1.443h9.114c.797 0 1.443-.646 1.443-1.443V3.192c0-.797-.647-1.442-1.443-1.442zM5.999 8.375A2.727 2.727 0 013.275 5.65a2.728 2.728 0 012.724-2.725A2.727 2.727 0 018.724 5.65 2.728 2.728 0 016 8.375zM7.442 5.65c0 .794-.648 1.442-1.443 1.442A1.445 1.445 0 014.557 5.65c0-.795.647-1.443 1.442-1.443.795 0 1.443.648 1.443 1.443z" fill="#fff"/></svg><svg viewBox="0 0 8 8" id="icon-playVideo" xmlns="http://www.w3.org/2000/svg"><path d="M1.702.176C.981-.237.396.102.396.933v6.134c0 .832.585 1.17 1.306.757l5.361-3.075c.722-.414.722-1.084 0-1.498L1.702.176z" fill="#fff"/></svg><svg viewBox="0 0 18 14" id="icon-tel" xmlns="http://www.w3.org/2000/svg"><path d="M7.063 9.227l-.298 3.909c.426 0 .61-.171.832-.376l1.997-1.782 4.139 2.829c.759.395 1.294.187 1.498-.652l2.717-11.88c.242-1.048-.405-1.457-1.145-1.2L.836 5.78C-.254 6.175-.238 6.742.65 7l4.083 1.185 9.482-5.538c.447-.276.852-.123.518.153l-7.67 6.428z" fill="#F45959"/></svg><svg viewBox="0 0 16 17" id="icon-viber" xmlns="http://www.w3.org/2000/svg"><path d="M11.932.403a22.5 22.5 0 00-8.475 0C2.227.678.68 2.166.377 3.363a16.329 16.329 0 000 6.98c.303 1.197 1.85 2.685 3.08 2.96h.001c.055.011.095.06.095.115v3.393c0 .17.206.253.323.13l1.606-1.654 1.51-1.555a.115.115 0 01.085-.035 22.519 22.519 0 004.855-.393c1.23-.275 2.778-1.764 3.08-2.96a16.308 16.308 0 000-6.981c-.302-1.197-1.85-2.685-3.08-2.96zm.043 10.113c-.246.524-.604.96-1.12 1.239-.146.078-.32.104-.485.154-.189-.057-.37-.096-.536-.166-1.734-.722-3.33-1.653-4.595-3.081-.718-.812-1.281-1.73-1.757-2.7-.225-.46-.415-.938-.61-1.413-.176-.433.084-.88.358-1.207.258-.306.588-.54.947-.713.28-.135.555-.057.76.18a9.834 9.834 0 011.175 1.652c.202.366.146.815-.22 1.064-.088.061-.17.132-.252.2a.83.83 0 00-.191.203.555.555 0 00-.037.486c.451 1.245 1.212 2.213 2.46 2.734.2.083.4.18.631.154.385-.046.51-.47.78-.692.264-.216.602-.22.886-.038.284.18.56.374.834.57.27.193.537.38.785.6.239.211.321.488.187.774zm-2.24-4.057a.344.344 0 01-.024-.001c-.173-.006-.268-.109-.286-.276-.014-.121-.025-.245-.054-.363a1.024 1.024 0 00-.376-.593.979.979 0 00-.306-.148c-.14-.04-.284-.03-.423-.063-.15-.037-.234-.16-.21-.302a.273.273 0 01.287-.22c.88.064 1.508.52 1.598 1.56.006.072.014.15-.003.22-.026.114-.107.173-.19.184.008 0 .006 0-.012.002zM9.19 4.083a3.086 3.086 0 00-.858-.265c-.129-.021-.26-.034-.39-.052-.157-.022-.24-.123-.233-.279a.244.244 0 01.271-.241c.52.03 1.024.142 1.486.388.941.5 1.479 1.29 1.636 2.344.007.048.018.095.022.143.009.119.014.237.024.393-.004.029-.006.095-.023.158-.06.229-.405.258-.485.027a.688.688 0 01-.027-.22c0-.482-.105-.964-.347-1.384a2.57 2.57 0 00-1.076-1.012zm2.908 3.258c-.182.002-.264-.15-.276-.314-.023-.324-.04-.65-.084-.97-.235-1.697-1.582-3.1-3.264-3.401-.253-.045-.512-.057-.768-.084-.162-.017-.374-.027-.41-.23-.03-.169.112-.304.273-.313.044-.002.088 0 .132 0 2.178.062.132.005.005 0 2.266.067 4.126 1.577 4.525 3.826.068.383.092.775.122 1.165.013.163-.08.319-.255.32z" fill="#F45959"/></svg><svg viewBox="0 0 18 18" id="icon-video" xmlns="http://www.w3.org/2000/svg"><path d="M9 0a9 9 0 109 9 9.01 9.01 0 00-9-9zm3.79 9.287a.643.643 0 01-.288.288v.004L7.359 12.15a.643.643 0 01-.93-.579V6.43a.643.643 0 01.93-.576l5.143 2.572a.643.643 0 01.288.862z" fill="#F45959"/></svg><svg viewBox="0 0 17 17" id="icon-whatsapp" xmlns="http://www.w3.org/2000/svg"><path d="M8.272.403h-.004C3.708.403 0 4.113 0 8.673c0 1.81.583 3.486 1.574 4.847l-1.03 3.073 3.178-1.017a8.198 8.198 0 004.55 1.367c4.56 0 8.268-3.71 8.268-8.27S12.832.403 8.272.403zm4.812 11.678c-.2.564-.991 1.031-1.623 1.168-.432.091-.997.165-2.897-.623C6.134 11.62 4.57 9.15 4.447 8.99c-.117-.16-.982-1.307-.982-2.494 0-1.187.603-1.764.846-2.013.2-.203.529-.296.845-.296.103 0 .195.005.277.009.243.01.365.025.525.408.2.481.686 1.668.744 1.79.059.122.118.287.035.447-.078.166-.146.24-.268.38-.122.14-.238.248-.36.399-.111.131-.237.272-.097.515.14.237.627 1.03 1.342 1.667.923.822 1.671 1.084 1.94 1.196.199.083.437.063.582-.092.185-.2.414-.53.646-.856.166-.234.375-.263.594-.18.223.078 1.405.662 1.648.783.242.122.403.18.462.282.057.102.057.583-.142 1.147z" fill="#F45959"/></svg></svg>