<svg width="142" height="43" viewBox="0 0 142 43" fill="none" xmlns="http://www.w3.org/2000/svg">
<path d="M0.6 42.2491C0.44 42.2491 0.3 42.1958 0.18 42.0891C0.06 41.9691 0 41.8225 0 41.6491V27.2291C0 27.0558 0.06 26.9158 0.18 26.8091C0.3 26.6891 0.44 26.6291 0.6 26.6291C0.773333 26.6291 0.913333 26.6891 1.02 26.8091C1.14 26.9158 1.2 27.0558 1.2 27.2291V41.1691H9.42C9.60667 41.1691 9.75333 41.2225 9.86 41.3291C9.96667 41.4225 10.02 41.5491 10.02 41.7091C10.02 41.8691 9.96667 42.0025 9.86 42.1091C9.75333 42.2025 9.60667 42.2491 9.42 42.2491H0.6Z" fill="white"/>
<path d="M21.9195 42.5691C20.7462 42.5691 19.7062 42.3425 18.7995 41.8891C17.9062 41.4225 17.1995 40.7825 16.6795 39.9691C16.1729 39.1425 15.9195 38.2025 15.9195 37.1491V27.2291C15.9195 27.0424 15.9729 26.8958 16.0795 26.7891C16.1995 26.6824 16.3462 26.6291 16.5195 26.6291C16.7062 26.6291 16.8529 26.6824 16.9595 26.7891C17.0662 26.8958 17.1195 27.0424 17.1195 27.2291V37.1491C17.1195 37.9758 17.3195 38.7091 17.7195 39.3491C18.1329 39.9758 18.6995 40.4691 19.4195 40.8291C20.1529 41.1891 20.9862 41.3691 21.9195 41.3691C22.8662 41.3691 23.6995 41.1891 24.4195 40.8291C25.1395 40.4691 25.7062 39.9758 26.1195 39.3491C26.5329 38.7091 26.7395 37.9758 26.7395 37.1491V27.2291C26.7395 27.0424 26.7929 26.8958 26.8995 26.7891C27.0195 26.6824 27.1662 26.6291 27.3395 26.6291C27.5262 26.6291 27.6729 26.6824 27.7795 26.7891C27.8862 26.8958 27.9395 27.0424 27.9395 27.2291V37.1491C27.9395 38.2025 27.6795 39.1425 27.1595 39.9691C26.6529 40.7825 25.9462 41.4225 25.0395 41.8891C24.1329 42.3425 23.0929 42.5691 21.9195 42.5691Z" fill="white"/>
<path d="M35.9352 42.2491C35.7618 42.2491 35.6152 42.1958 35.4952 42.0891C35.3885 41.9691 35.3352 41.8225 35.3352 41.6491V27.2291C35.3352 27.0558 35.3885 26.9158 35.4952 26.8091C35.6152 26.6891 35.7618 26.6291 35.9352 26.6291C36.2018 26.6291 36.3818 26.7291 36.4752 26.9291L43.1952 40.2091L49.8352 26.9291C49.9552 26.7291 50.1352 26.6291 50.3752 26.6291C50.5485 26.6291 50.6885 26.6891 50.7952 26.8091C50.9018 26.9158 50.9552 27.0558 50.9552 27.2291V41.6491C50.9552 41.8225 50.9018 41.9691 50.7952 42.0891C50.6885 42.1958 50.5485 42.2491 50.3752 42.2491C50.2018 42.2491 50.0552 42.1958 49.9352 42.0891C49.8152 41.9691 49.7552 41.8225 49.7552 41.6491V29.3891L43.6752 41.7691C43.5818 41.9558 43.4085 42.0491 43.1552 42.0491C42.9152 42.0491 42.7285 41.9225 42.5952 41.6691L36.5352 29.5691V41.6491C36.5352 41.8225 36.4752 41.9691 36.3552 42.0891C36.2485 42.1958 36.1085 42.2491 35.9352 42.2491Z" fill="white"/>
<path d="M77.4828 42.2491C77.3095 42.2491 77.1628 42.1958 77.0428 42.0891C76.9361 41.9691 76.8828 41.8225 76.8828 41.6491V27.2291C76.8828 27.0558 76.9361 26.9158 77.0428 26.8091C77.1628 26.6891 77.3095 26.6291 77.4828 26.6291C77.6695 26.6291 77.8228 26.6958 77.9428 26.8291L88.1028 40.0491V27.2291C88.1028 27.0558 88.1561 26.9158 88.2628 26.8091C88.3828 26.6891 88.5295 26.6291 88.7028 26.6291C88.8628 26.6291 89.0028 26.6891 89.1228 26.8091C89.2428 26.9158 89.3028 27.0558 89.3028 27.2291V41.6491C89.3028 41.8225 89.2428 41.9691 89.1228 42.0891C89.0028 42.1958 88.8628 42.2491 88.7028 42.2491C88.5161 42.2491 88.3695 42.1891 88.2628 42.0691L78.0828 28.8291V41.6491C78.0828 41.8225 78.0228 41.9691 77.9028 42.0891C77.7961 42.1958 77.6561 42.2491 77.4828 42.2491Z" fill="white"/>
<path d="M95.6886 42.2491C95.4353 42.2491 95.2553 42.1491 95.1486 41.9491C95.0553 41.7491 95.0553 41.5625 95.1486 41.3891L101.209 27.0491C101.315 26.7691 101.509 26.6291 101.789 26.6291C102.055 26.6291 102.249 26.7691 102.369 27.0491L108.449 41.3891C108.555 41.5758 108.549 41.7691 108.429 41.9691C108.309 42.1558 108.135 42.2491 107.909 42.2491C107.642 42.2491 107.455 42.1225 107.349 41.8691L105.869 38.3291H97.7286L96.2486 41.8691C96.1553 42.1225 95.9686 42.2491 95.6886 42.2491ZM98.1886 37.2491H105.409L101.789 28.6091L98.1886 37.2491Z" fill="white"/>
<path d="M114.771 42.2491C114.598 42.2491 114.451 42.1958 114.331 42.0891C114.224 41.9691 114.171 41.8225 114.171 41.6491V27.2291C114.171 27.0424 114.224 26.8958 114.331 26.7891C114.451 26.6824 114.598 26.6291 114.771 26.6291H118.591C119.564 26.6291 120.424 26.8358 121.171 27.2491C121.931 27.6491 122.524 28.2024 122.951 28.9091C123.378 29.6158 123.591 30.4358 123.591 31.3691C123.591 32.4624 123.284 33.4091 122.671 34.2091C122.058 34.9958 121.244 35.5358 120.231 35.8291L123.671 41.3291C123.844 41.5958 123.878 41.8158 123.771 41.9891C123.678 42.1625 123.478 42.2491 123.171 42.2491C123.024 42.2491 122.911 42.2225 122.831 42.1691C122.764 42.1025 122.698 42.0225 122.631 41.9291L118.951 36.0491C118.831 36.0491 118.711 36.0491 118.591 36.0491H115.371V41.6491C115.371 41.8225 115.318 41.9691 115.211 42.0891C115.104 42.1958 114.958 42.2491 114.771 42.2491ZM115.371 34.8491H118.591C119.338 34.8491 119.991 34.7025 120.551 34.4091C121.124 34.1025 121.571 33.6891 121.891 33.1691C122.224 32.6491 122.391 32.0491 122.391 31.3691C122.391 30.6758 122.224 30.0624 121.891 29.5291C121.571 28.9958 121.124 28.5824 120.551 28.2891C119.991 27.9824 119.338 27.8291 118.591 27.8291H115.371V34.8491Z" fill="white"/>
<path d="M128.719 42.2491C128.466 42.2491 128.286 42.1491 128.179 41.9491C128.086 41.7491 128.086 41.5625 128.179 41.3891L134.239 27.0491C134.346 26.7691 134.539 26.6291 134.819 26.6291C135.086 26.6291 135.279 26.7691 135.399 27.0491L141.479 41.3891C141.586 41.5758 141.579 41.7691 141.459 41.9691C141.339 42.1558 141.166 42.2491 140.939 42.2491C140.672 42.2491 140.486 42.1225 140.379 41.8691L138.899 38.3291H130.759L129.279 41.8691C129.186 42.1225 128.999 42.2491 128.719 42.2491ZM131.219 37.2491H138.439L134.819 28.6091L131.219 37.2491Z" fill="white"/>
<path d="M56.6764 16.3027C56.4587 16.3027 56.2822 16.4792 56.2822 16.6969V17.2629H55.7163C55.4985 17.2629 55.322 17.4394 55.3221 17.6571C55.3221 17.8748 55.4986 18.0513 55.7163 18.0513L56.2823 18.0513L56.2823 18.6173C56.2823 18.8351 56.4588 19.0116 56.6765 19.0115C56.7853 19.0115 56.884 18.9674 56.9553 18.8961C57.0266 18.8248 57.0708 18.7262 57.0707 18.6173V18.0513H57.6367C57.7456 18.0514 57.8441 18.0072 57.9155 17.9359C57.9868 17.8646 58.0309 17.766 58.0309 17.6572C58.0309 17.4394 57.8544 17.2629 57.6367 17.263L57.0707 17.2629L57.0706 16.6969C57.0707 16.4792 56.8942 16.3027 56.6764 16.3027Z" fill="white"/>
<path d="M72.3831 16.5771C72.1654 16.5771 71.9888 16.7536 71.9888 16.9714V17.5374L71.4229 17.5374C71.2051 17.5374 71.0286 17.7139 71.0286 17.9316C71.0286 18.1493 71.2051 18.3258 71.4228 18.3258H71.9889V18.8919C71.9889 19.1096 72.1654 19.2861 72.3831 19.2861C72.492 19.2861 72.5905 19.2419 72.6619 19.1706C72.7332 19.0993 72.7774 19.0007 72.7774 18.8918V18.3258H73.3433C73.4522 18.3258 73.5508 18.2816 73.6221 18.2103C73.6935 18.139 73.7376 18.0404 73.7376 17.9315C73.7376 17.7138 73.5611 17.5373 73.3434 17.5373H72.7774V16.9713C72.7773 16.7537 72.6008 16.5771 72.3831 16.5771Z" fill="white"/>
<path d="M73.2232 11.4671L73.7891 11.4671C73.898 11.467 73.9966 11.4229 74.0679 11.3516C74.1393 11.2803 74.1834 11.1817 74.1834 11.0728C74.1834 10.8551 74.0069 10.6786 73.7892 10.6786L73.2232 10.6786V10.1126C73.2232 9.89488 73.0467 9.71837 72.829 9.71841C72.6113 9.71845 72.4348 9.89492 72.4348 10.1126V10.6786L71.8688 10.6786C71.651 10.6787 71.4746 10.8551 71.4746 11.0729C71.4746 11.2906 71.6511 11.4671 71.8688 11.4671L72.4348 11.4671V12.033C72.4348 12.2508 72.6113 12.4273 72.829 12.4272C72.9378 12.4272 73.0364 12.3831 73.1077 12.3118C73.1791 12.2404 73.2232 12.1419 73.2232 12.033L73.2232 11.4671Z" fill="white"/>
<path d="M56.2307 12.1528C56.3395 12.1529 56.4381 12.1087 56.5094 12.0374C56.5807 11.9661 56.6249 11.8675 56.6249 11.7586L56.6249 11.1926L57.1909 11.1926C57.2997 11.1926 57.3983 11.1485 57.4696 11.0772C57.541 11.0058 57.5851 10.9073 57.5851 10.7984C57.5851 10.5806 57.4086 10.4041 57.1909 10.4042L56.6249 10.4042L56.6249 9.83819C56.6249 9.62046 56.4484 9.44395 56.2307 9.44399C56.013 9.44399 55.8365 9.6205 55.8365 9.83823V10.4042L55.2705 10.4042C55.0528 10.4042 54.8763 10.5808 54.8763 10.7984C54.8763 11.0162 55.0528 11.1927 55.2705 11.1926L55.8365 11.1926V11.7586C55.8365 11.9764 56.013 12.1529 56.2307 12.1528Z" fill="white"/>
<path d="M78.1338 12.9296C78.0603 12.7141 77.8581 12.5693 77.6306 12.5693C77.4031 12.5693 77.2009 12.7141 77.1276 12.9296C76.9182 13.5439 76.7289 13.7333 76.1144 13.9428C75.8989 14.0163 75.754 14.2185 75.7541 14.4459C75.7541 14.6734 75.8989 14.8756 76.1144 14.949C76.7288 15.1584 76.9182 15.3478 77.1276 15.9622C77.2011 16.1777 77.4032 16.3225 77.6307 16.3225C77.8582 16.3225 78.0604 16.1777 78.1338 15.9621C78.3431 15.3478 78.5326 15.1584 79.147 14.949C79.2259 14.9221 79.2953 14.878 79.3516 14.8217C79.4491 14.7242 79.5073 14.5901 79.5073 14.4459C79.5073 14.2184 79.3625 14.0163 79.147 13.9428C78.5325 13.7334 78.3431 13.544 78.1338 12.9296ZM78.3341 14.4459C78.026 14.6212 77.8058 14.8412 77.6306 15.1493C77.4554 14.8413 77.2353 14.6212 76.9272 14.4459C77.2352 14.2707 77.4554 14.0506 77.6306 13.7425C77.8059 14.0506 78.026 14.2707 78.3341 14.4459Z" fill="white"/>
<path d="M51.4292 16.3229C51.6567 16.3228 51.8589 16.1781 51.9323 15.9626C52.1417 15.3482 52.3311 15.1588 52.9455 14.9494C53.0244 14.9225 53.0938 14.8784 53.1501 14.8221C53.2477 14.7246 53.3058 14.5905 53.3059 14.4463C53.3059 14.2189 53.1611 14.0167 52.9456 13.9432C52.3312 13.7338 52.1418 13.5444 51.9324 12.9301C51.8589 12.7146 51.6567 12.5698 51.4293 12.5698C51.2017 12.5698 50.9995 12.7145 50.9262 12.9301C50.7168 13.5444 50.5274 13.7338 49.913 13.9432C49.6975 14.0167 49.5527 14.2189 49.5527 14.4463C49.5527 14.6738 49.6975 14.876 49.913 14.9494C50.5274 15.1588 50.7168 15.3482 50.9262 15.9626C50.9996 16.1781 51.2018 16.3229 51.4292 16.3229ZM50.7258 14.4463C51.0339 14.2711 51.254 14.0509 51.4292 13.7429C51.6045 14.0509 51.8246 14.2711 52.1327 14.4463C51.8247 14.6215 51.6044 14.8417 51.4292 15.1497C51.254 14.8417 51.0339 14.6215 50.7258 14.4463Z" fill="white"/>
<path d="M69.5367 22.8109C69.3092 22.8109 69.107 22.9557 69.0337 23.1712C68.8242 23.7856 68.6348 23.975 68.0205 24.1843C67.805 24.2577 67.6602 24.46 67.6602 24.6874C67.6602 24.9149 67.805 25.1171 68.0205 25.1905C68.6349 25.4 68.8243 25.5893 69.0337 26.2037C69.1071 26.4192 69.3093 26.564 69.5367 26.564C69.7642 26.5641 69.9664 26.4193 70.0399 26.2037C70.2493 25.5893 70.4387 25.3999 71.053 25.1905C71.1319 25.1636 71.2013 25.1195 71.2577 25.0632C71.3552 24.9657 71.4133 24.8317 71.4134 24.6875C71.4134 24.46 71.2686 24.2578 71.0531 24.1844C70.4387 23.9749 70.2493 23.7856 70.0399 23.1712C69.9664 22.9557 69.7642 22.8109 69.5367 22.8109ZM70.2402 24.6875C69.9321 24.8627 69.7119 25.0828 69.5367 25.3909C69.3615 25.0828 69.1413 24.8627 68.8333 24.6875C69.1413 24.5122 69.3615 24.292 69.5367 23.984C69.712 24.2921 69.9321 24.5122 70.2402 24.6875Z" fill="white"/>
<path d="M59.0198 26.2038C59.0932 26.4193 59.2954 26.564 59.5229 26.564C59.6671 26.564 59.8011 26.5058 59.8987 26.4083C59.955 26.352 59.9991 26.2826 60.0259 26.2037C60.2354 25.5893 60.4247 25.4 61.0391 25.1906C61.2546 25.1172 61.3994 24.9149 61.3994 24.6875C61.3994 24.46 61.2546 24.2578 61.0391 24.1844C60.4247 23.975 60.2354 23.7856 60.0259 23.1712C59.9525 22.9557 59.7503 22.8109 59.5228 22.8109C59.2953 22.8109 59.0931 22.9557 59.0197 23.1712C58.8103 23.7856 58.6209 23.975 58.0066 24.1844C57.791 24.2578 57.6462 24.46 57.6463 24.6875C57.6463 24.9149 57.7911 25.1171 58.0066 25.1906C58.621 25.3999 58.8104 25.5893 59.0198 26.2038ZM58.8194 24.6874C59.1275 24.5122 59.3476 24.292 59.5229 23.984C59.6981 24.292 59.9183 24.5122 60.2263 24.6874C60.0722 24.775 59.9402 24.8739 59.8248 24.9893C59.7093 25.1048 59.6105 25.2368 59.5229 25.3909C59.3476 25.0828 59.1275 24.8627 58.8194 24.6874Z" fill="white"/>
<path d="M69.4981 14.0521L67.3369 13.2835L68.3216 11.2119L70.8493 8.68427C71.0033 8.53028 71.0032 8.28071 70.8493 8.12676C70.6953 7.97281 70.4458 7.97278 70.2918 8.12676L67.7641 10.6544L66.5936 11.2108C66.3968 11.3043 66.3133 11.5395 66.4068 11.7361C66.5002 11.9327 66.7354 12.0164 66.9321 11.9229L67.1628 11.8132L66.5921 13.0137C66.5048 13.1973 66.4994 13.4104 66.5772 13.5982C66.6551 13.786 66.8095 13.9328 67.0011 14.0008L68.2534 14.4462L67.001 14.8917C66.8094 14.9598 66.655 15.1066 66.5772 15.2944C66.4995 15.4822 66.5049 15.6951 66.5921 15.8787L67.1628 17.0793L65.9622 16.5087C65.7786 16.4214 65.5656 16.4159 65.3778 16.4937C65.1901 16.5715 65.0433 16.7259 64.9751 16.9175L64.5298 18.1699L64.0844 16.9175C64.0162 16.726 63.8694 16.5715 63.6816 16.4937C63.4938 16.4159 63.2808 16.4214 63.0971 16.5087L61.8966 17.0793L62.4673 15.8788C62.5546 15.6952 62.56 15.4822 62.4822 15.2944C62.4044 15.1066 62.25 14.9598 62.0584 14.8916L60.806 14.4462L62.0585 14.0008C62.25 13.9327 62.4045 13.7859 62.4823 13.5981C62.56 13.4103 62.5546 13.1973 62.4673 13.0137L61.8966 11.8132L63.0972 12.3838C63.2808 12.4711 63.4938 12.4766 63.6816 12.3988C63.8694 12.321 64.0162 12.1666 64.0843 11.975L64.5297 10.7225L64.7107 11.2315C64.7837 11.4366 65.0091 11.5438 65.2142 11.4708C65.4194 11.398 65.5265 11.1725 65.4536 10.9673L64.924 9.47798L64.9239 5.90319C64.9239 5.68546 64.7474 5.50896 64.5297 5.50899C64.312 5.50903 64.1355 5.6855 64.1355 5.90323L64.1355 9.47794L63.367 11.6391L61.2954 10.6544L58.7678 8.12672C58.6138 7.97278 58.3643 7.97274 58.2103 8.12672C58.0563 8.28071 58.0563 8.53029 58.2103 8.68423L60.738 11.2119L61.7227 13.2835L59.5616 14.0521L54.8948 14.0521C54.677 14.0521 54.5005 14.2286 54.5006 14.4462C54.5006 14.664 54.6771 14.8405 54.8948 14.8404H59.5617L61.7228 15.609L60.7381 17.6806L58.2104 20.2083C58.0564 20.3622 58.0564 20.6119 58.2104 20.7658C58.3643 20.9198 58.614 20.9198 58.7679 20.7658L61.2956 18.2381L63.2783 17.2956L63.2783 28.4778C63.2783 29.0301 63.5034 29.499 64.0007 29.6647L64.0007 41.7502C64.0007 41.968 64.2826 42.2494 64.5002 42.2494C64.6091 42.2494 64.7258 42.1489 64.8085 42.0289C64.8678 41.9428 64.924 41.859 64.924 41.7502L65.0007 35.7489L65.0007 29.6647C65.1874 29.6026 65.2782 29.4984 65.4143 29.3623C65.6409 29.1357 65.7813 28.8228 65.7813 28.4778V23.7137C65.7813 23.496 65.6048 23.3195 65.3871 23.3195C65.1694 23.3195 64.9929 23.496 64.9929 23.7137L64.9929 28.4777C64.9929 28.7332 64.7851 28.9409 64.5298 28.9408C64.2744 28.9408 64.0667 28.7331 64.0667 28.4777L64.0667 19.2207L64.1584 19.4785C64.2142 19.6357 64.363 19.7407 64.5298 19.7407C64.6966 19.7407 64.8454 19.6357 64.9012 19.4785L64.9929 19.2206V21.874C64.9929 22.0917 65.1694 22.2682 65.3871 22.2682C65.6048 22.2682 65.7813 22.0917 65.7813 21.874L65.7813 17.2955L67.7641 18.238L70.2918 20.7657C70.4457 20.9197 70.6953 20.9197 70.8493 20.7657C71.0033 20.6117 71.0032 20.3622 70.8493 20.2082L68.3216 17.6805L67.3369 15.6089L69.4979 14.8404H74.1649C74.2737 14.8404 74.3723 14.7962 74.4437 14.7249C74.515 14.6536 74.5591 14.555 74.5591 14.4461C74.5591 14.2284 74.3826 14.0519 74.1649 14.0519L69.4981 14.0521Z" fill="white"/>
<path d="M64.5298 13.0918C64.3121 13.0919 64.1356 13.2683 64.1356 13.4861V14.052L63.5696 14.052C63.3519 14.052 63.1754 14.2285 63.1754 14.4463C63.1754 14.664 63.3519 14.8405 63.5696 14.8405L64.1356 14.8405L64.1356 15.4065C64.1356 15.6243 64.3121 15.8008 64.5298 15.8007C64.6387 15.8007 64.7373 15.7566 64.8086 15.6852C64.8799 15.6139 64.9241 15.5153 64.9241 15.4064V14.8405H65.4901C65.599 14.8405 65.6975 14.7963 65.7689 14.725C65.8402 14.6537 65.8843 14.5551 65.8843 14.4462C65.8843 14.2285 65.7078 14.052 65.4902 14.052L64.9241 14.052L64.9241 13.4859C64.924 13.2684 64.7475 13.0919 64.5298 13.0918Z" fill="white"/>
<path d="M60.8545 5.98617C60.8944 5.96655 60.9295 5.94105 60.9594 5.9112C61.0754 5.7952 61.1107 5.61386 61.0343 5.45843L60.4254 4.22039C60.3293 4.02503 60.093 3.94457 59.8976 4.04065C59.7026 4.13654 59.6218 4.373 59.7179 4.56839L60.3267 5.80643C60.4229 6.00174 60.6591 6.08225 60.8545 5.98617Z" fill="white"/>
<path d="M62.3033 8.93205C62.3432 8.91238 62.3783 8.88692 62.4082 8.85708C62.5242 8.74108 62.5595 8.55974 62.4831 8.40431L61.8462 7.10929C61.7502 6.9139 61.5139 6.83343 61.3185 6.92951C61.1232 7.02548 61.0426 7.26186 61.1387 7.45729L61.7756 8.75231C61.8716 8.94766 62.1079 9.02812 62.3033 8.93205Z" fill="white"/>
<path d="M66.7564 8.93195C66.9119 9.00841 67.0932 8.97302 67.2092 8.85702C67.239 8.82722 67.2645 8.79209 67.2841 8.75218L69.3418 4.56832C69.4379 4.37293 69.3574 4.13666 69.1621 4.04055C68.9667 3.94443 68.7304 4.02508 68.6343 4.22032L66.5767 8.40418C66.4805 8.5996 66.5611 8.83584 66.7564 8.93195Z" fill="white"/>
<path d="M64.5301 0.287393C64.3026 0.287431 64.1004 0.432236 64.0271 0.647657C63.8176 1.26211 63.6282 1.45147 63.0139 1.66084C62.7983 1.73424 62.6535 1.93651 62.6536 2.16393C62.6536 2.3914 62.7984 2.59359 63.0139 2.66703C63.6283 2.87647 63.8176 3.06583 64.027 3.68021C64.1005 3.8957 64.3027 4.04051 64.5301 4.04054C64.7575 4.04058 64.9598 3.89581 65.0332 3.68021C65.2426 3.06583 65.432 2.87643 66.0464 2.66702C66.1253 2.64015 66.1947 2.59604 66.251 2.53973C66.3486 2.4422 66.4067 2.30817 66.4068 2.16396C66.4068 1.93646 66.262 1.73431 66.0465 1.66087C65.4321 1.45143 65.2427 1.26207 65.0333 0.647691C64.9598 0.432196 64.7576 0.287356 64.5301 0.287393ZM65.2335 2.16397C64.9255 2.33925 64.7053 2.55935 64.5301 2.8674C64.3549 2.55932 64.1347 2.33918 63.8267 2.16397C64.1347 1.98873 64.3548 1.76851 64.5301 1.46054C64.7054 1.76858 64.9255 1.98872 65.2335 2.16397Z" fill="white"/>
</svg>
