<svg width="57" height="57" fill="none" xmlns="http://www.w3.org/2000/svg"><g clip-path="url(#clip0)"><path d="M56.703 54.268L43.672 34.721a1.754 1.754 0 00-1.462-.783c-.59 0-1.136.293-1.462.783l-1.705 2.556-7.864-11.796v-10.9h5.708s0 4.785.003 4.826c.067 1.43 1.265 2.55 2.728 2.55h11.27a1.74 1.74 0 001.519-.875 1.74 1.74 0 00.006-1.753l-2.639-4.618a.088.088 0 010-.087l2.639-4.617a1.74 1.74 0 00-.006-1.754 1.74 1.74 0 00-1.52-.875h-8.642V4.524a2.682 2.682 0 00-2.679-2.68h-8.387v-.087A1.76 1.76 0 0029.422 0h-1.844a1.76 1.76 0 00-1.758 1.757v3.115a.835.835 0 101.67 0V1.757c0-.048.04-.087.088-.087h1.844c.048 0 .087.04.087.087v21.434a1.754 1.754 0 00-2.018 0V8.212a.835.835 0 10-1.67 0v17.269l-7.865 11.796-1.704-2.556a1.753 1.753 0 00-1.462-.783c-.589 0-1.135.293-1.462.783L.297 54.268a1.754 1.754 0 00-.088 1.804c.307.572.9.928 1.55.928h10.316a.835.835 0 100-1.67H7.928L19.85 37.447l4.873-2.436 3.276 2.456a.835.835 0 001.002 0l3.276-2.456 4.873 2.436L49.072 55.33H15.447a.835.835 0 100 1.67H55.24c.65 0 1.243-.356 1.55-.928a1.754 1.754 0 00-.088-1.804zM39.566 14.58a1.01 1.01 0 010 2.019c-.348 0-.691.07-1.01.2V14.58h1.01zm11.321-5.533c.015 0 .05 0 .076.044.025.043.007.074 0 .087l-2.639 4.618a1.763 1.763 0 000 1.743l2.639 4.618c.007.013.025.044 0 .087-.026.044-.06.044-.076.044H39.618c-.56 0-1.035-.43-1.06-.96a.999.999 0 01.278-.746 1 1 0 01.73-.313 2.682 2.682 0 002.68-2.68V9.048h8.641zM39.566 3.514c.556 0 1.01.453 1.01 1.01v8.584a2.665 2.665 0 00-1.01-.198h-8.387V3.514h8.387zM1.759 55.33c-.017 0-.053 0-.077-.046-.025-.046-.005-.075.004-.09l13.032-19.547c.007-.01.025-.039.072-.039.047 0 .066.029.073.039l2.09 3.135L5.92 55.33H1.76zm30.803-22.044a.835.835 0 00-.875.079l-3.187 2.39-3.188-2.39a.835.835 0 00-.874-.079l-2.72 1.36 6.71-10.065a.08.08 0 01.072-.039c.046 0 .065.028.072.04l6.71 10.065-2.72-1.36zm22.756 21.998c-.025.046-.06.046-.077.046H51.08L40.047 38.782l2.09-3.135c.007-.01.026-.039.073-.039a.08.08 0 01.072.039l13.032 19.547c.01.015.029.044.004.09z" fill="#151F59"/></g><defs><clipPath id="clip0"><path fill="#fff" d="M0 0h57v57H0z"/></clipPath></defs></svg>