<svg width="67" height="67" fill="none" xmlns="http://www.w3.org/2000/svg"><path d="M23.854 41.127l2.019 2.018c.698.7 1.83.7 2.528 0l1.263-1.263c.203.093.41.179.62.257v1.787a1.79 1.79 0 001.788 1.788h2.855a1.79 1.79 0 001.788-1.788v-1.787c.21-.078.417-.164.62-.257l1.263 1.264a1.79 1.79 0 002.529 0l2.018-2.019a1.79 1.79 0 000-2.529l-1.263-1.263a9.39 9.39 0 00.257-.62h1.786a1.79 1.79 0 001.788-1.788v-2.854a1.79 1.79 0 00-1.788-1.788H42.14a9.23 9.23 0 00-.257-.62l1.263-1.264a1.79 1.79 0 000-2.528l-2.019-2.018a1.79 1.79 0 00-2.528 0l-1.263 1.263a9.272 9.272 0 00-.62-.257v-1.786a1.79 1.79 0 00-1.788-1.788h-2.855a1.79 1.79 0 00-1.788 1.788v1.786c-.21.078-.417.164-.62.257l-1.263-1.263a1.787 1.787 0 00-2.528 0l-2.019 2.018a1.79 1.79 0 000 2.529l1.263 1.263a9.61 9.61 0 00-.256.62h-1.787a1.79 1.79 0 00-1.788 1.788v2.854a1.79 1.79 0 001.788 1.788h1.787c.078.21.164.418.256.62L23.854 38.6a1.79 1.79 0 000 2.528zm1.13-6.375h-1.735v-2.505h1.735c.754 0 1.43-.475 1.682-1.183.081-.229.175-.455.279-.674a1.79 1.79 0 00-.352-2.026l-1.227-1.227 1.771-1.77 1.227 1.226a1.788 1.788 0 002.027.352 7.25 7.25 0 01.673-.28 1.788 1.788 0 001.184-1.68v-1.736h2.504v1.735c0 .754.476 1.43 1.183 1.682.23.081.456.175.674.279a1.79 1.79 0 002.027-.352l1.227-1.227 1.77 1.771-1.226 1.227a1.788 1.788 0 00-.352 2.026c.104.219.197.445.279.674a1.787 1.787 0 001.682 1.184h1.735v2.504h-1.735c-.754 0-1.43.476-1.682 1.183a7.224 7.224 0 01-.28.674 1.788 1.788 0 00.353 2.027l1.227 1.227-1.771 1.77-1.227-1.226a1.788 1.788 0 00-2.027-.352 7.188 7.188 0 01-.673.279 1.788 1.788 0 00-1.184 1.682v1.735h-2.505v-1.735c0-.754-.475-1.43-1.183-1.682a7.252 7.252 0 01-.674-.28 1.788 1.788 0 00-2.026.353l-1.227 1.227-1.77-1.771 1.226-1.227a1.789 1.789 0 00.352-2.027 7.18 7.18 0 01-.28-.674 1.788 1.788 0 00-1.681-1.183z" fill="#151F59"/><path d="M33.5 38.738a5.244 5.244 0 005.238-5.238 5.244 5.244 0 00-5.238-5.238 5.244 5.244 0 00-5.238 5.238 5.244 5.244 0 005.238 5.238zm0-8.513a3.28 3.28 0 013.275 3.275 3.28 3.28 0 01-3.275 3.275 3.28 3.28 0 01-3.275-3.275 3.279 3.279 0 013.275-3.275zm-21.17-5.566c6.816 0 12.329-5.54 12.329-12.33C24.659 5.531 19.128 0 12.329 0 5.531 0 0 5.53 0 12.33c0 6.792 5.527 12.329 12.33 12.329zm6.569-4.317a10.33 10.33 0 01-6.57 2.354c-2.347 0-4.673-.796-6.57-2.354 0-2.032 1.603-3.443 3.385-3.443h6.37c1.784 0 3.385 1.412 3.385 3.443zm-6.57-18.38c5.716 0 10.367 4.651 10.367 10.367 0 2.35-.788 4.52-2.11 6.26a5.355 5.355 0 00-5.071-3.653H9.144a5.355 5.355 0 00-5.07 3.653 10.312 10.312 0 01-2.111-6.26c0-5.716 4.65-10.366 10.366-10.366zM54.67 42.341c-6.798 0-12.329 5.531-12.329 12.33 0 6.795 5.521 12.329 12.33 12.329C61.445 67 67 61.493 67 54.67c0-6.798-5.532-12.329-12.33-12.329zm6.57 20.342a10.343 10.343 0 01-13.139 0c0-2.032 1.602-3.443 3.384-3.443h6.371c1.784 0 3.384 1.413 3.384 3.443zm1.687-1.753a5.355 5.355 0 00-5.07-3.653h-6.372a5.355 5.355 0 00-5.07 3.653 10.311 10.311 0 01-2.11-6.26c0-5.716 4.65-10.366 10.366-10.366 5.716 0 10.366 4.65 10.366 10.366 0 2.35-.787 4.52-2.11 6.26z" fill="#151F59"/><path d="M15.722 11.905a4.795 4.795 0 000-6.785 4.795 4.795 0 00-6.786 0 4.795 4.795 0 000 6.785 4.796 4.796 0 006.786 0zm-5.398-5.397a2.838 2.838 0 014.01 0 2.834 2.834 0 010 4.01 2.839 2.839 0 01-4.01 0 2.834 2.834 0 010-4.01zM8.936 54.247a4.804 4.804 0 006.786 0 4.804 4.804 0 000-6.786 4.804 4.804 0 00-6.786 0 4.804 4.804 0 000 6.786zm1.388-5.398a2.838 2.838 0 014.01 0 2.839 2.839 0 010 4.01 2.838 2.838 0 01-4.01 0 2.839 2.839 0 010-4.01zM51.278 5.12a4.804 4.804 0 000 6.785 4.804 4.804 0 006.785 0 4.795 4.795 0 000-6.785 4.804 4.804 0 00-6.785 0zm5.397 5.397a2.838 2.838 0 01-4.01 0 2.839 2.839 0 010-4.01 2.839 2.839 0 014.01 0 2.834 2.834 0 010 4.01zm1.388 36.943a4.804 4.804 0 00-6.785.001 4.804 4.804 0 000 6.786 4.804 4.804 0 006.785 0 4.804 4.804 0 000-6.786zm-1.388 5.399a2.839 2.839 0 01-4.01 0 2.839 2.839 0 010-4.01 2.839 2.839 0 014.01 0 2.839 2.839 0 010 4.01zm-17-39.549a.981.981 0 100-1.962h-12.35a.981.981 0 100 1.963h12.35zm-12.35 40.38a.981.981 0 100 1.962h12.35a.981.981 0 100-1.963h-12.35zM13.311 39.675v-12.35a.981.981 0 10-1.963 0v12.35a.981.981 0 101.963 0zm42.341 0v-12.35a.981.981 0 10-1.963 0v12.35a.981.981 0 101.963 0z" fill="#151F59"/><path d="M64.844 10.329a.981.981 0 001.926-.376C65.643 4.186 60.555 0 54.67 0c-6.798 0-12.329 5.53-12.329 12.33 0 6.83 5.554 12.329 12.33 12.329 5.822 0 10.844-4.09 12.054-9.732a.981.981 0 10-1.92-.412 10.246 10.246 0 01-1.88 4.07 5.355 5.355 0 00-5.069-3.65h-6.37a5.355 5.355 0 00-5.071 3.654 10.311 10.311 0 01-2.11-6.26c0-5.716 4.65-10.366 10.366-10.366 4.947 0 9.226 3.518 10.173 8.366zm-13.359 6.57h6.371a3.388 3.388 0 013.384 3.383v.048a10.362 10.362 0 01-6.57 2.366c-2.313 0-4.649-.777-6.569-2.354 0-2.032 1.602-3.444 3.384-3.444zM12.33 67c6.803 0 12.329-5.533 12.329-12.33 0-5.83-4.14-10.909-9.843-12.078a.983.983 0 00-.394 1.923c4.794.983 8.274 5.254 8.274 10.156 0 2.35-.788 4.519-2.11 6.26a5.355 5.355 0 00-5.071-3.654H9.144a5.355 5.355 0 00-5.07 3.654 10.312 10.312 0 01-2.111-6.26c0-4.902 3.48-9.173 8.273-10.156a.982.982 0 00-.394-1.923C4.14 43.762 0 48.841 0 54.671 0 61.457 5.51 67 12.33 67zm-3.186-7.76h6.37c1.785 0 3.385 1.413 3.385 3.443a10.344 10.344 0 01-13.14 0c0-2.032 1.603-3.443 3.385-3.443z" fill="#151F59"/></svg>