<svg width="55" height="55" fill="none" xmlns="http://www.w3.org/2000/svg"><g clip-path="url(#clip0)" fill="#151F59"><path d="M23.204 1.074V19.98H7.52c-.285 0-.558.114-.76.315L.315 26.74c-.42.42-.42 1.1 0 1.52l6.445 6.445c.202.201.475.315.76.315h15.684v5.019c-3.64.523-6.446 3.66-6.446 7.441 0 .104.005.205.012.302a7.534 7.534 0 00-3.155 5.07h-5.45a1.074 1.074 0 000 2.148h14.502a1.074 1.074 0 000-2.148h-6.871a5.404 5.404 0 012.649-3.588c.477-.268.59-.711.516-1.24-.42-2.974 2.037-5.915 5.317-5.915 1.948 0 3.748 1.082 4.696 2.825.514.944 1.469.398 1.75.398a2.15 2.15 0 012.148 2.148c0 .594.48 1.075 1.074 1.075a5.38 5.38 0 015.263 4.297h-6.875a1.074 1.074 0 000 2.148h14.502a1.074 1.074 0 000-2.148h-5.448a7.536 7.536 0 00-6.489-6.386 4.312 4.312 0 00-3.102-3.146V22.129h15.684c.285 0 .558-.113.76-.315l6.445-6.445c.42-.42.42-1.1 0-1.52L48.24 7.405a1.075 1.075 0 00-.76-.314H31.798V1.074c0-.593-.48-1.074-1.074-1.074h-6.445c-.593 0-1.074.48-1.074 1.074zM2.594 27.5l5.37-5.371H29.65V32.87H7.965L2.594 27.5zm22.758 12.54v-5.02h4.297v7.235a7.487 7.487 0 00-4.297-2.215zm27.055-25.43l-5.371 5.37H25.352V9.238h21.684l5.371 5.371zM29.65 2.147V7.09h-4.297V2.148h4.297z"/><path d="M27.5 55a1.074 1.074 0 100-2.148 1.074 1.074 0 000 2.148z"/></g><defs><clipPath id="clip0"><path fill="#fff" d="M0 0h55v55H0z"/></clipPath></defs></svg>