<svg width="74" height="49" fill="none" xmlns="http://www.w3.org/2000/svg"><path d="M62.12 44.728h2.607a1.084 1.084 0 001.058-1.321l-1.736-7.726 4.474 8.47c.187.355.557.577.959.577h2.606a1.085 1.085 0 001.043-1.382l-3.216-11.23a.546.546 0 01.024-.363l3.97-9.096.005-.014.016-.042c.007-.019.015-.037.02-.056l.005-.014a.13.13 0 00.004-.016l.006-.023.012-.049.006-.03c.002-.014.003-.027.006-.04 0-.01.003-.022.004-.033l.004-.05.002-.04v-.018l.002-.018-.085-10.206-.001-.04a4.624 4.624 0 00-1.542-3.255 4.81 4.81 0 00-.543-.42c.408-.365.719-.828.9-1.36l.8-2.364A3.211 3.211 0 0071.524.5l-.936-.318a3.189 3.189 0 00-2.45.162 3.19 3.19 0 00-1.618 1.847l-.801 2.364a3.21 3.21 0 00.63 3.147l-15.095.989a1.084 1.084 0 00-1.013 1.09c.01 1.183.48 2.29 1.323 3.12a4.386 4.386 0 003.139 1.266l1.08-.007v2.29a.8.8 0 01-.799.799h-13.48a.8.8 0 01-.8-.8V2.97a.8.8 0 01.8-.801h13.48c.441 0 .8.359.8.8v2.142a1.084 1.084 0 002.168 0V2.97A2.972 2.972 0 0054.983 0h-13.48a2.971 2.971 0 00-2.968 2.97v13.48a2.97 2.97 0 002.968 2.969h13.48a2.971 2.971 0 002.968-2.968v-2.306l6.106-.043.332 7.605-7.244 7.535a3.26 3.26 0 00-.515 3.898l4.488 10.916c.167.407.563.672 1.002.672zm5.832-13.842a2.712 2.712 0 00-.121 1.828l2.82 9.846h-.516L64.42 31.742a.143.143 0 00-.01-.016l-.108-.208a1.104 1.104 0 00-.119-.179.623.623 0 01-.12-.557l2.235-7.563 4.97.067-3.317 7.6zm-.181-25.633l.801-2.365c.09-.263.276-.476.525-.598a1.038 1.038 0 01.793-.053l.936.317c.543.184.835.776.65 1.318l-.8 2.365c-.09.263-.276.476-.525.599a1.032 1.032 0 01-.794.052l-.935-.317a1.04 1.04 0 01-.651-1.318zm-10.896 6.732h-.019L54.682 12a2.23 2.23 0 01-1.6-.646 2.235 2.235 0 01-.429-.581l16.453-1.078a2.474 2.474 0 011.817.632c.496.445.788 1.055.823 1.72l.075 9.077-5.291-.072-.305-6.965.85-.005a1.084 1.084 0 00-.008-2.169h-.008l-10.185.072zm1.657 20.112a1.097 1.097 0 01.166-1.343l4.495-4.675-1.21 4.098a2.797 2.797 0 00.145 1.927l-.277.295a.918.918 0 00-.089.107 1.892 1.892 0 00-.262 1.721l1.872 8.333h-.525l-4.24-10.314a1.02 1.02 0 00-.075-.149zm14.384 14.121h-4.32a1.084 1.084 0 100 2.167h4.32a1.084 1.084 0 100-2.167zm-7.798 0H60.8a1.084 1.084 0 100 2.167h4.32a1.084 1.084 0 100-2.167zM12.792 21.693l.058-4.292 2.134 1.188c.106.058.215.108.326.15v.644c0 1.6 1.302 2.9 2.901 2.9h13.002c1.6 0 2.901-1.3 2.901-2.9V6.38c0-1.6-1.301-2.902-2.9-2.902H18.21c-1.6 0-2.9 1.302-2.9 2.902v5.672l-3.89-2.494a3.186 3.186 0 00.944-1.982l.234-2.486a3.21 3.21 0 00-2.891-3.495l-.984-.093a3.189 3.189 0 00-2.346.722 3.188 3.188 0 00-1.15 2.17L4.994 6.88a3.193 3.193 0 00.594 2.177 3.89 3.89 0 00-.404.392l-.494.56a5.703 5.703 0 00-1.424 3.722l-.07 8.42-.61 4.73a1.084 1.084 0 002.15.277l.498-3.862 4.941-.067-1.51 4.375-.013.04L3.506 42.56H2.75l1.386-10.752a1.084 1.084 0 10-2.15-.278L.442 43.505a1.085 1.085 0 001.075 1.223H4.28c.462 0 .874-.293 1.024-.73l4.823-13.98L13.59 33.7l-2.18 9.708a1.085 1.085 0 001.058 1.321h2.607c.44 0 .836-.265 1.003-.671l4.485-10.917a3.257 3.257 0 00-.508-3.892l-7.263-7.555zm5.42-16.046h13.001c.405 0 .733.329.733.733v13.003a.733.733 0 01-.733.732H18.211a.733.733 0 01-.732-.732v-.616l4.478-.552a5.112 5.112 0 004.483-5.068 1.083 1.083 0 00-1.2-1.078l-7.761.827V6.38c0-.404.329-.733.732-.733zM7.151 7.084l.235-2.486a1.03 1.03 0 01.372-.703 1.033 1.033 0 01.76-.234l.983.092c.57.055.992.563.938 1.133l-.235 2.486a1.033 1.033 0 01-.984.94 3.836 3.836 0 00-1.419-.166 1.04 1.04 0 01-.65-1.062zm-1.719 6.664a3.53 3.53 0 01.882-2.306l.494-.56c.243-.275.555-.454.888-.531.062.01.125.018.188.024l.89.084c.073.034.145.073.215.118l6.508 4.17.015.01c.162.1.334.179.513.24l.048.017c.329.104.678.14 1.024.103L24 14.382a2.944 2.944 0 01-2.307 1.682l-5.447.67a.337.337 0 01-.207-.04l-3.702-2.058a.88.88 0 00-.042-.024l-2.51-1.396a1.084 1.084 0 10-1.054 1.895l1.967 1.093-.065 4.849-5.26.071.061-7.376zm13.229 18.35a1.083 1.083 0 00-.075.148L14.348 42.56h-.525l1.87-8.332a1.887 1.887 0 00-.261-1.722 1.015 1.015 0 00-.09-.107l-4.418-4.695 1.225-3.552 6.347 6.603a1.091 1.091 0 01.166 1.343zM5.403 46.218H1.084a1.084 1.084 0 100 2.167h4.319a1.084 1.084 0 100-2.167zm10.992 0h-4.32a1.084 1.084 0 100 2.167h4.32a1.084 1.084 0 100-2.167z" fill="#151F59"/><path d="M53.261 46.218h-2.434c.184-.43.286-.904.286-1.4V27.04c0-1.967-1.6-3.568-3.568-3.568H37.46a1.084 1.084 0 100 2.168h10.084c.772 0 1.4.629 1.4 1.4v17.777a1.4 1.4 0 01-1.4 1.4H29.77a1.4 1.4 0 01-1.4-1.4V27.04c0-.771.628-1.4 1.4-1.4h2.387a1.084 1.084 0 100-2.168H29.77a3.573 3.573 0 00-3.569 3.568v17.777c0 .497.103.97.287 1.4h-2.85a1.084 1.084 0 100 2.169H53.26a1.084 1.084 0 100-2.168z" fill="#151F59"/></svg>