<svg width="58" height="58" fill="none" xmlns="http://www.w3.org/2000/svg"><g clip-path="url(#clip0)" fill="#151F59"><path d="M23.83 51.417l-.17.832.164-.833a.85.85 0 10-.329 1.667l.016.003a.85.85 0 00.319-1.67zm6.496.273l.084.845-.087-.845a.849.849 0 10.174 1.69l.023-.002a.847.847 0 00.743-.938.853.853 0 00-.937-.75zm-3.253.107h-.012a.845.845 0 00-.88.81.854.854 0 00.816.887l.039.001a.85.85 0 00.037-1.698zm-6.381-1.244l-.01-.003a.845.845 0 00-1.082.514.854.854 0 00.804 1.139.85.85 0 00.288-1.65zm12.84.542l.21.824-.213-.823a.85.85 0 10.424 1.645l.023-.005a.847.847 0 00.594-1.038.852.852 0 00-1.038-.603zm3.072-1.071l.336.78-.34-.78a.85.85 0 00.68 1.559l.02-.01a.847.847 0 00.424-1.118.852.852 0 00-1.12-.431zm-19.158-38.73a.85.85 0 10-.397-1.6l-.01.005a.845.845 0 00-.345 1.147.85.85 0 00.752.448zm-9.827 9.49a.85.85 0 001.147-.358l.015-.03a.85.85 0 00-1.52-.758.85.85 0 00.358 1.146zM6.423 23.98a.85.85 0 001.077-.532l.011-.034a.85.85 0 00-1.621-.51.85.85 0 00.533 1.076zm2.872-6.169a.846.846 0 001.187-.187l.011-.015a.848.848 0 00-1.382-.988l.684.504-.687-.5a.85.85 0 00.187 1.186zm5.267-4.681a.841.841 0 00.511-.174.85.85 0 10-1.003-1.37l-.021.015a.852.852 0 00.513 1.528zM5.664 36.865a.848.848 0 001.626-.495.85.85 0 00-1.637.458l.011.037zm6.331-21.497a.85.85 0 00.609-.255.85.85 0 00-1.202-1.201l-.014.014a.849.849 0 00.607 1.442zM6.603 33.16a.85.85 0 00-1.686.21l.005.035a.848.848 0 00.963.715.85.85 0 00.718-.96zm-1.067-2.433h.025a.85.85 0 00.85-.824v-.037a.85.85 0 00-1.7-.01.85.85 0 00.825.871zm.186-3.407a.85.85 0 00.992-.724.849.849 0 00-1.68-.26.85.85 0 00.688.984zM45.8 18.08a.846.846 0 001.18.216.85.85 0 00.218-1.181l-.706.472.704-.476a.85.85 0 00-1.407.953l.01.015zm4.338 8.549a.85.85 0 00-.749.94l.005.036a.85.85 0 001.683-.23.85.85 0 00-.939-.746zm-1.433-2.397l.003.01a.85.85 0 101.63-.479l-.003-.011a.849.849 0 10-1.63.48zm-1.2-3.177a.854.854 0 001.139.39.847.847 0 00.388-1.135l-.77.359.769-.36a.85.85 0 00-1.539.72l.013.026zm-3.845-5.629a.846.846 0 001.201.012.849.849 0 00.02-1.193.85.85 0 00-1.247 1.154l.026.027zm6.754 14.751a.852.852 0 00-.873.82.85.85 0 001.697.086v-.035a.848.848 0 00-.824-.871zM38.227 11.254l.02.011a.85.85 0 00.8-1.5l-.412.745.408-.746a.85.85 0 00-.816 1.49zm2.873 1.863l.014.01a.849.849 0 101.027-1.354l-.006-.003a.85.85 0 10-1.035 1.348z"/><path d="M57.476 43.039l-3.989-3.995c-.34-.34-.79-.527-1.27-.527s-.931.187-1.27.526l-.093.093-.261-.262a3.43 3.43 0 01-.744-1.113.821.821 0 00-.061-.157 3.435 3.435 0 01-.198-1.154v-1.13a.849.849 0 001.232-.599.85.85 0 00-1.237-.912 4.79 4.79 0 00-1.404-3.195l-3.87-3.876a4.563 4.563 0 00-3.25-1.348 4.56 4.56 0 00-2.62.821l-.41-.412V16.08a4.824 4.824 0 00-1.197-3.181 3.428 3.428 0 01-.852-2.264v-.711h.059c.99 0 1.796-.806 1.796-1.797V2.476c0-.99-.806-1.796-1.796-1.796H20.17c-.991 0-1.797.805-1.797 1.796v5.652c0 .99.806 1.796 1.796 1.796h.131v.373c0 .916-.356 1.777-1.002 2.425l-1.713 1.716a4.793 4.793 0 00-1.41 3.408v5.482c0 .744.179 1.447.494 2.07a4.562 4.562 0 00-2.982 1.34L9.82 30.614a4.794 4.794 0 00-1.41 3.409v2.427c0 .916-.355 1.777-1.001 2.424l-.26.26a.015.015 0 00-.002.002l-.092-.093c-.34-.34-.79-.526-1.27-.526s-.932.187-1.27.526L.523 43.04a1.8 1.8 0 000 2.54l1.366 1.369a.85.85 0 101.203-1.201L1.726 44.38a.099.099 0 010-.14l3.989-3.995a.095.095 0 01.135 0l.693.695 9.469 9.484 1.06 1.063c.04.039.04.101 0 .14l-3.988 3.995a.095.095 0 01-.135 0l-7.452-7.465a.85.85 0 10-1.203 1.201l7.453 7.465c.339.34.79.527 1.27.527s.93-.188 1.27-.527l3.988-3.996c.7-.7.7-1.84 0-2.54l-.043-.044.503-.504a3.414 3.414 0 012.198-.996 4.808 4.808 0 003.094-1.403l3.664-3.672a2.91 2.91 0 002.102-2.216c.377.18.798.28 1.242.28a2.903 2.903 0 002.898-2.901v-2.018c.365.167.771.261 1.199.261a2.903 2.903 0 002.897-2.901v-5.964l2.614 2.626a.846.846 0 001.202.002.85.85 0 00.002-1.201l-2.179-2.19a2.875 2.875 0 011.392-.356c.773 0 1.5.302 2.048.85l3.87 3.876c.588.59.912 1.374.912 2.208v2.427c0 1.37.532 2.656 1.499 3.625l.264.264-1.233 1.234-7.453 7.467-.416-.417-.013-.012-.073-.073a5.116 5.116 0 00-3.29-1.492 3.115 3.115 0 01-2.004-.91l-2.791-2.776a.85.85 0 10-1.199 1.205l2.79 2.774a4.808 4.808 0 003.094 1.403c.83.053 1.61.408 2.198.996l.041.041a.796.796 0 00.07.07l.392.393-.043.044c-.7.7-.7 1.84 0 2.54l3.988 3.996c.34.34.79.527 1.27.527s.931-.188 1.27-.527L57.475 45.58a1.8 1.8 0 000-2.54zM50.16 34.59l-.016-.003-.155-.032.17.035zM22.825 46.139a3.11 3.11 0 01-2 .907 5.107 5.107 0 00-3.291 1.492l-.502.502-.45-.453c-.007-.005-.012-.012-.018-.017l-8.217-8.23.263-.264a5.098 5.098 0 001.499-3.625v-2.427c0-.834.324-1.618.913-2.208l3.87-3.876a2.874 2.874 0 012.047-.85c.496 0 .973.125 1.396.36l-2.182 2.185a.85.85 0 101.203 1.2l2.606-2.611V38.83a2.903 2.903 0 004.156 2.614c.172.842.71 1.551 1.44 1.956l-2.733 2.739zM36.33 34.172c0 .663-.538 1.202-1.198 1.202-.661 0-1.2-.54-1.2-1.202v-9.477a.85.85 0 10-1.698 0V38.83c0 .663-.538 1.202-1.199 1.202a1.2 1.2 0 01-1.181-1.003V24.685a.85.85 0 00-1.266-.74.85.85 0 00-.451.75V38.83c0 .108.006.214.018.318v1.712c0 .663-.538 1.203-1.199 1.203-.66 0-1.198-.54-1.198-1.203V24.676a.85.85 0 00-1.7 0V38.83c0 .663-.538 1.202-1.198 1.202-.661 0-1.2-.54-1.2-1.202V23.026a.85.85 0 10-1.698 0v2.923a.832.832 0 00-.205.098 2.907 2.907 0 01-1.883-2.72v-5.48c0-.835.325-1.619.913-2.209l1.713-1.716a5.096 5.096 0 001.5-3.625v-.373h1.707a.85.85 0 100-1.699H20.17a.097.097 0 01-.097-.097V2.476c0-.053.044-.097.097-.097h15.87c.054 0 .098.044.098.097v5.652a.097.097 0 01-.098.097h-8.343a.85.85 0 100 1.7h6.586v.711a5.13 5.13 0 001.273 3.384c.5.57.775 1.302.775 2.061v18.091zm19.942 10.207L45.05 55.62a.091.091 0 01-.068.028.092.092 0 01-.067-.028l-3.989-3.995a.099.099 0 010-.14l.642-.643 6.516-6.527 4.065-4.072a.095.095 0 01.135 0l3.989 3.995a.1.1 0 010 .14z"/><path d="M22.86 4.396a.906.906 0 000 1.812.906.906 0 000-1.812zm29.635 38.729a.907.907 0 000 1.812.906.906 0 000-1.812zm-38.336 8.667c0-.5-.406-.906-.905-.906a.907.907 0 000 1.813.906.906 0 00.905-.907z"/></g><defs><clipPath id="clip0"><path fill="#fff" d="M0 0h58v58H0z"/></clipPath></defs></svg>