<svg width="72" height="72" fill="none" xmlns="http://www.w3.org/2000/svg"><path d="M70.826 50.263a5.744 5.744 0 00-3.393-3.07l-.704-.254a29.32 29.32 0 00-4.854-1.194v-1.257c.14-.169.432-.354.649-.555a6.735 6.735 0 002.093-4.022 2.356 2.356 0 001.608-2.826 2.004 2.004 0 00-1.322-1.411L65 34.26a7.06 7.06 0 00-1.525-4.91 6.71 6.71 0 00-1.095-1.084 4.52 4.52 0 00-4.503-4.22h-.001a4.52 4.52 0 00-4.5 4.168 7.156 7.156 0 00-2.651 6.044l.098 1.424a1.98 1.98 0 00-1.325 1.408 2.355 2.355 0 00.629 2.234c.267.275.6.478.967.59.272 1.872 1.36 3.505 2.767 4.564v1.266c-1.07.165-2.129.389-3.173.672a6.051 6.051 0 00-5.107-2.823h-1.192a5.642 5.642 0 00-.067-.433.843.843 0 00-.11-.279l-1.757-2.88a.802.802 0 00-.688-.398v.052h-.844v-.935a9.644 9.644 0 004.748-8.183l.043.002a2.57 2.57 0 001.45-4.695 2.06 2.06 0 00-1.038-.384v-5.695a9.369 9.369 0 00-13.322-8.513l-2.248 1.045a.857.857 0 00-.703-.367 4.965 4.965 0 00-4.961 4.953v8.4c.003.151.047.3.127.428A2.554 2.554 0 0023.72 27.6a2.578 2.578 0 002.556 2.94l.054-.001a9.646 9.646 0 004.748 8.183v.935h-.844v-.052a.801.801 0 00-.688.398l-1.771 2.88a.825.825 0 00-.104.28c-.028.144-.043.291-.06.432H26.42a6.037 6.037 0 00-4.502 2.022l-.37-.124a25.243 25.243 0 00-4.531-1.108v-1.342a7.163 7.163 0 003.348-5.409 2.441 2.441 0 001.278-2.75 2.034 2.034 0 00-1-1.303l.104-1.487a7.338 7.338 0 00-1.977-5.57A7.489 7.489 0 006.255 29.1a7.34 7.34 0 00-.403 2.993l.103 1.485a2.037 2.037 0 00-1.006 1.305 2.428 2.428 0 001.273 2.752 7.153 7.153 0 003.34 5.41v1.338c-1.54.229-3.056.6-4.528 1.11l-.688.237a5.417 5.417 0 00-3.278 3.082A5.472 5.472 0 00.703 50.8v9.977a.82.82 0 00.844.817h68.906a.822.822 0 00.844-.817V52.58a5.686 5.686 0 00-.47-2.317zM45.703 27.178a.568.568 0 01.534.055.86.86 0 01.352.61.871.871 0 01-.52.941.786.786 0 01-.366.065v-1.67zm-19.406 1.67a.805.805 0 01-.385-.063.88.88 0 01-.53-.942.866.866 0 01.356-.61.58.58 0 01.559-.047v1.662zm-9.18 17.257l-.438 3.34-1.898-.861 1.23-1.177c.388-.372.68-.833.852-1.343l.255.041zm-3.825 1.563l-1.54-1.48a1.64 1.64 0 01-.502-1.183v-1.2a7.307 7.307 0 002.037.3 6.599 6.599 0 002.041-.302v1.2a1.634 1.634 0 01-.495 1.184l-1.541 1.481zm1.046 2.568l-.253.845-1.379-.021-.225-.926.818-.37 1.039.472zm-5.275-22.56a5.8 5.8 0 019.688 1.99c.264.74.37 1.527.313 2.31l-.098 1.404a8.207 8.207 0 00-3.333-4.65.844.844 0 00-1.158.208A5.092 5.092 0 019.8 31.031l-.498-.053-.027-.003a1.101 1.101 0 00-1.187 1.008l-.149 1.848-.28-.06-.124-1.794a5.669 5.669 0 011.53-4.302zm-1.18 9.349a.844.844 0 00-.699-.832.743.743 0 01-.596-.907.34.34 0 01.035-.087c.036.023.071.046.11.066a.85.85 0 00.19.07c1.715.4 1.947.386 2.278.146a.86.86 0 00.348-.62l.172-2.142a6.785 6.785 0 005.576-2.126 6.52 6.52 0 012.085 3.402l.304 1.247a.843.843 0 001.176.565l1.052-.49a.886.886 0 00.087-.049l.005.018a.743.743 0 01-.594.907.854.854 0 00-.698.841 5.415 5.415 0 11-10.83-.01zm1.854 9.039c.171.509.463.969.85 1.34l1.227 1.179-1.898.861-.44-3.339.261-.041zm.261 13.842h-3.67v-5.113a.844.844 0 10-1.687 0v5.113H2.39v-9.114a3.749 3.749 0 01.3-1.487 3.728 3.728 0 012.206-1.981l.688-.237a23.578 23.578 0 012.233-.649l.572 4.356a.844.844 0 001.185.658l1.341-.608.267 1.08-1.185 7.982zm1.707 0l1.064-7.172 1.185.012.832 7.16h-3.082zm8.686-10.315v10.315h-3.906l-.92-7.903.324-1.07 1.13.517a.84.84 0 001.186-.656l.572-4.355c.735.175 1.462.385 2.18.63a5.905 5.905 0 00-.566 2.522zm21.833-6.71l.468.754a3.645 3.645 0 01-1.612 3.637l-2.394 1.567-1.414-1.891 2.486-1.28.014-.008a5.333 5.333 0 002.452-2.778zm-2.562.824c-.208.18-.435.336-.677.466l-2.98 1.533-2.98-1.534a3.833 3.833 0 01-.686-.465 3.162 3.162 0 00.427-1.621v-2.577c2.094.73 4.374.73 6.468 0v2.577c-.005.569.142 1.13.428 1.621zM30.656 14.09l2.84-1.307a7.7 7.7 0 0110.941 6.982v2.783c-1.265-1.69-3.186-2.86-5.428-2.86h-5.538c-1.347 0-2.533-.879-2.815-2.19V14.09zm-4.078 10.239v-7.445a3.23 3.23 0 012.39-3.155v7.445a3.23 3.23 0 01-2.39 3.155zm1.406 6.069V25.57c1.688-.826 2.672-2.486 2.672-4.396v-.676a4.76 4.76 0 002.815.877h5.538a5.098 5.098 0 014.985 4.21c0 .011.021.056.021.07v4.743c0 4.395-3.62 7.97-8.015 7.97-4.395 0-8.016-3.576-8.016-7.97zm1.324 13.237l.468-.753a5.334 5.334 0 002.451 2.777l.014.008 2.486 1.28-1.413 1.892-2.393-1.567a3.646 3.646 0 01-1.613-3.636zm20.614 16.271h-4.219v-6.199a.843.843 0 10-1.687 0v6.2H27.984v-6.2a.844.844 0 10-1.687 0v6.2h-4.219V49.59a4.344 4.344 0 014.342-4.31h1.265a5.236 5.236 0 002.311 3.401l3.057 2.002a.843.843 0 001.138-.2L36 48.063l1.81 2.421a.844.844 0 001.137.201l3.057-2.002a5.235 5.235 0 002.311-3.402h1.265a4.344 4.344 0 014.342 4.31v10.315zm12.1-12.417l-.49 3.72-2.19-.995 1.384-1.323c.421-.404.735-.907.914-1.463.127.019.254.04.381.061zm-4.147 1.81l-1.732-1.628a1.862 1.862 0 01-.596-1.311v-.998a7.39 7.39 0 002.03.384c.087.003.22.005.308.005.783-.01 1.56-.14 2.303-.385v.992a1.856 1.856 0 01-.596 1.313l-1.717 1.628zm1.172 2.635l-.3 1.001-1.571-.025-.265-1.086.947-.43 1.189.54zm-1.172-26.2a2.826 2.826 0 012.365 1.285c-1.772-.66-3.554-.321-4.806.124a2.826 2.826 0 012.441-1.409zm2.284 3.097c.88.475 1.532.988 1.993 1.57a5.378 5.378 0 011.162 3.742l-.083 1.186c-.922-.528-1.214-1.605-1.228-1.658a.844.844 0 00-.768-.64c-4.273-.26-5.195-1.262-6.036-3.96.98-.473 3.103-1.245 4.96-.24zm-6.376 1.315c.18.515.402 1.014.667 1.49a7.215 7.215 0 00-2.04 1.721 5.477 5.477 0 011.373-3.211zm-1.041 9.022a.815.815 0 00-.844-.777h-.11a.731.731 0 01-.653-.889.336.336 0 01.381-.232.848.848 0 00.156-.004h.049a.829.829 0 00.616-.253.819.819 0 00.197-.351c.664-2.072 1.902-3.134 2.975-3.682 1.057.955 2.597 1.489 5.066 1.695.371.862 1.298 2.36 3.292 2.59a.854.854 0 00.132 0h.043a.836.836 0 00.17-.006.316.316 0 01.367.229.709.709 0 01-.49.846c-.053.013-.111-.085-.166.056h-.102a.814.814 0 00-.844.777 5.122 5.122 0 01-10.237 0h.002zm1.342 8.259c.177.555.49 1.058.91 1.462l1.381 1.325-2.192.994-.489-3.72c.13-.022.26-.041.39-.061zm.38 12.48H51.61V49.59a5.91 5.91 0 00-.223-1.61c.214-.056.429-.11.643-.16l.626 4.736a.846.846 0 001.188.658l1.505-.682.301 1.224-1.185 6.15zm1.718 0l1.027-5.323 1.432.016.79 5.306h-3.248zm13.427 0h-2.342c.278-1.548.101-2.926-.59-4.551a.845.845 0 00-1.553.671c.603 1.416.72 2.45.435 3.846a.136.136 0 01-.007.033h-4.414l-.906-6.064.366-1.212 1.275.582a.84.84 0 001.185-.656l.622-4.735a25.42 25.42 0 012.465.713l.737.254a4.056 4.056 0 012.455 2.286c.186.477.278.986.272 1.498v7.334z" fill="#151F59"/><path d="M38.534 27.525a.844.844 0 00.844-.843.677.677 0 111.353 0 .843.843 0 101.688 0 2.363 2.363 0 00-4.043-1.684 2.364 2.364 0 00-.685 1.683.844.844 0 00.843.844zm-5.068 0a.843.843 0 00.844-.843 2.365 2.365 0 10-4.728 0 .844.844 0 101.687 0 .677.677 0 111.353 0 .844.844 0 00.844.843zm5.665 5.449a.843.843 0 10-1.193-1.193 2.744 2.744 0 01-3.876 0 .845.845 0 10-1.193 1.194 4.434 4.434 0 006.262 0v-.001zM24.469 49.559a.844.844 0 00-.844.843v.22a.844.844 0 001.688 0v-.22a.844.844 0 00-.844-.843zm0 2.607a.844.844 0 00-.844.844v4.102a.844.844 0 001.688 0V53.01a.844.844 0 00-.844-.844z" fill="#151F59"/></svg>