<svg width="86" height="86" viewBox="0 0 86 86" fill="none" xmlns="http://www.w3.org/2000/svg">
<g clip-path="url(#clip0)">
<path d="M47.5389 54.1176L54.3891 47.2681L56.3265 49.2054L49.4769 56.0556L47.5389 54.1176Z" fill="#003A66"/>
<path d="M83.6791 74.62L80.5858 71.5267H85.4424V11.245H14.2004V0.284668H7.3502C3.57322 0.284668 0.5 3.35789 0.5 7.13487V64.6765C0.5 68.4535 3.57322 71.5267 7.3502 71.5267H63.0107L74.8915 83.4075C76.0642 84.5802 77.6249 85.2271 79.2853 85.2271C82.7117 85.2271 85.5 82.4402 85.5 79.0138C85.5 77.3547 84.8531 75.7947 83.6791 74.62ZM77.6604 72.476L72.7475 77.3889L49.7271 54.3658L47.7209 47.4908L54.6426 49.4569L77.6604 72.476ZM3.24008 7.13487C3.24008 4.86908 5.08441 3.02475 7.3502 3.02475H11.4603V57.8263H7.3502C5.8089 57.8263 4.38535 58.3374 3.24008 59.199V7.13487ZM7.3502 68.7866C5.08441 68.7866 3.24008 66.9423 3.24008 64.6765C3.24008 62.4107 5.08441 60.5664 7.3502 60.5664H14.2004V13.9851H82.7024V68.7866H77.8457L56.0756 47.0152L43.7017 43.5011L47.2907 55.8067L60.2706 68.7866H7.3502ZM79.2853 82.487C78.3568 82.487 77.4851 82.1251 76.8289 81.4702L74.6848 79.3262L79.5977 74.4133L81.7417 76.5573C82.398 77.2136 82.7599 78.0866 82.7599 79.0138C82.7599 80.9277 81.2005 82.487 79.2853 82.487Z" fill="#003A66"/>
<path d="M56.6716 19.4651H64.2523V22.2052H56.6716V19.4651Z" fill="#003A66"/>
<path d="M69.0019 41.3858H47.0813V29.0554H49.8214V38.6457H66.2619V34.0626H69.0019V41.3858Z" fill="#003A66"/>
<path d="M21.0505 63.3064H23.7906V66.0465H21.0505V63.3064Z" fill="#003A66"/>
<path d="M26.5308 63.3064H45.7113V66.0465H26.5308V63.3064Z" fill="#003A66"/>
<path d="M16.9406 62.5037V16.7251H62.7191L16.9406 62.5037ZM23.7908 23.5753V45.4959L45.7114 23.5753H23.7908Z" fill="url(#paint0_linear)"/>
<path d="M22.4207 49.273V22.2053H49.4883L22.4207 49.273ZM25.1607 24.9454V42.6589L42.8743 24.9454H25.1607Z" fill="#003A66"/>
<path d="M70.372 35.9057C65.0852 35.9057 60.7817 31.6022 60.7817 26.3154C60.7817 21.0285 65.0852 16.7251 70.372 16.7251C75.6588 16.7251 79.9623 21.0285 79.9623 26.3154C79.9623 31.6022 75.6588 35.9057 70.372 35.9057ZM70.372 22.2053C68.1062 22.2053 66.2619 24.0496 66.2619 26.3154C66.2619 28.5812 68.1062 30.4255 70.372 30.4255C72.6378 30.4255 74.4821 28.5812 74.4821 26.3154C74.4821 24.0496 72.6378 22.2053 70.372 22.2053Z" fill="url(#paint1_linear)"/>
<path d="M70.372 31.7955C67.3496 31.7955 64.8918 29.3377 64.8918 26.3154C64.8918 23.293 67.3496 20.8352 70.372 20.8352C73.3944 20.8352 75.8522 23.293 75.8522 26.3154C75.8522 29.3377 73.3944 31.7955 70.372 31.7955ZM70.372 23.5753C68.8608 23.5753 67.6319 24.8042 67.6319 26.3154C67.6319 27.8266 68.8608 29.0554 70.372 29.0554C71.8832 29.0554 73.1121 27.8266 73.1121 26.3154C73.1121 24.8042 71.8832 23.5753 70.372 23.5753Z" fill="#003A66"/>
</g>
<defs>
<linearGradient id="paint0_linear" x1="39.8298" y1="16.7251" x2="39.8298" y2="62.5037" gradientUnits="userSpaceOnUse">
<stop stop-color="#F5A484"/>
<stop offset="1" stop-color="#D06330"/>
</linearGradient>
<linearGradient id="paint1_linear" x1="70.372" y1="16.7251" x2="70.372" y2="35.9057" gradientUnits="userSpaceOnUse">
<stop stop-color="#F5A484"/>
<stop offset="1" stop-color="#D06330"/>
</linearGradient>
<clipPath id="clip0">
<rect width="85" height="85" fill="white" transform="translate(0.5 0.227051)"/>
</clipPath>
</defs>
</svg>
