<svg width="71" height="78" viewBox="0 0 71 78" fill="none" xmlns="http://www.w3.org/2000/svg">
<path d="M41.585 26.6786H28.3593V19.0607C25.8624 17.0557 24.3915 14.0216 24.3915 10.8079C24.3915 4.97365 29.1381 0.227051 34.972 0.227051C40.806 0.227051 45.5526 4.97365 45.5526 10.8076C45.5526 14.0227 44.0819 17.0568 41.5848 19.0604L41.585 26.6786Z" fill="url(#paint0_linear)"/>
<path d="M42.9072 20.0659H36.2942V14.5322C37.8299 13.9847 38.9394 12.5296 38.9394 10.8077C38.9394 8.62016 37.1591 6.83984 34.9716 6.83984C32.7841 6.83984 31.0038 8.62016 31.0038 10.8077C31.0038 12.5296 32.1134 13.9845 33.649 14.5322V20.0659H27.036V22.7111H42.907L42.9072 20.0659ZM34.9719 9.48505C35.7021 9.48505 36.2945 10.0789 36.2945 10.8077C36.2945 11.5364 35.7021 12.1303 34.9719 12.1303C34.2417 12.1303 33.6493 11.5364 33.6493 10.8077C33.649 10.0789 34.2417 9.48505 34.9719 9.48505Z" fill="#003A66"/>
<path d="M45.1675 55.0437L46.6012 52.819C51.7422 56.1347 54.8107 61.7517 54.8104 67.8464V77.7379H15.1332V67.8464C15.1332 61.752 18.2014 56.1349 23.3424 52.8179L24.7761 55.0426C20.3944 57.8675 17.7784 62.6541 17.7784 67.8464V75.0927L35.731 75.0924H52.1652V67.8462C52.1652 62.6552 49.5492 57.8686 45.1675 55.0437Z" fill="#003A66"/>
<path d="M20.3005 45.2476C20.3005 53.2993 26.8499 59.8487 34.9017 59.8487C42.9534 59.8487 49.5028 53.2993 49.5028 45.2476C49.5028 37.197 42.9534 30.6465 34.9017 30.6465C26.8499 30.6465 20.3005 37.1973 20.3005 45.2476ZM46.8579 45.2476C46.8579 51.8392 41.4936 57.2038 34.9017 57.2038C28.3098 57.2038 22.9455 51.8395 22.9455 45.2476C22.9455 38.6546 28.3098 33.2914 34.9017 33.2914C41.4936 33.2914 46.8579 38.6546 46.8579 45.2476Z" fill="#003A66"/>
<path d="M22.3259 52.7128C21.2321 53.025 20.1237 53.1836 19.0327 53.1836C12.4411 53.1836 7.07649 47.8193 7.07649 41.2274C7.07649 34.6344 12.4408 29.2712 19.0327 29.2712C22.6314 29.2712 26.004 30.8715 28.2881 33.6634L30.3368 31.9878C27.5474 28.5807 23.4277 26.626 19.0313 26.626C10.9796 26.626 4.43018 33.1768 4.43018 41.2271C4.43018 49.2788 10.9796 55.8282 19.0313 55.8282C20.3683 55.8282 21.7201 55.6352 23.0505 55.2555L22.3259 52.7128Z" fill="#003A66"/>
<path d="M2.83515 64.6001C2.83515 59.4077 5.45119 54.6211 9.83284 51.7962L8.39914 49.5715C3.25842 52.8889 0.189941 58.5056 0.189941 64.6001V74.4916H17.3835V71.8464H2.83515V64.6001Z" fill="#003A66"/>
<path d="M63.9308 41.2271C63.9308 33.1765 57.3814 26.626 49.3297 26.626C44.9347 26.626 40.815 28.5807 38.0256 31.9878L40.0743 33.6634C42.3584 30.8715 45.7321 29.2712 49.3297 29.2712C55.9213 29.2712 61.2859 34.6344 61.2859 41.2274C61.2859 47.819 55.9216 53.1836 49.3297 53.1836C48.2385 53.1836 47.1303 53.025 46.0365 52.7128L45.3077 55.2547C46.6381 55.6355 47.9913 55.8299 49.3297 55.8299C57.3814 55.8282 63.9308 49.2788 63.9308 41.2271Z" fill="#003A66"/>
<path d="M62.7269 47.3892L61.2932 49.6139C65.6748 52.4388 68.2909 57.2254 68.2909 62.4163V69.6626H55.0651H52.4199V72.3078H70.9361V62.4163C70.9361 56.3216 67.8673 50.7048 62.7269 47.3892Z" fill="#003A66"/>
<defs>
<linearGradient id="paint0_linear" x1="34.972" y1="0.227051" x2="34.972" y2="26.6786" gradientUnits="userSpaceOnUse">
<stop stop-color="#F5A484"/>
<stop offset="1" stop-color="#D06330"/>
</linearGradient>
</defs>
</svg>
