<svg width="74" height="74" viewBox="0 0 74 74" fill="none" xmlns="http://www.w3.org/2000/svg">
<g clip-path="url(#clip0)">
<path d="M45.893 1.36206H27.0539L26.3362 16.4333L22.7478 20.7992L50.3187 20.3208L46.5509 15.7157L45.893 1.36206Z" fill="url(#paint0_linear)"/>
<path d="M52.3198 44.0271H20.6866C20.015 44.0271 19.47 44.5709 19.47 45.2437V72.0103C19.47 72.6832 20.015 73.2269 20.6866 73.2269H52.32C52.9928 73.2269 53.5366 72.6832 53.5366 72.0103V45.2437C53.5366 44.5709 52.9927 44.0271 52.3198 44.0271ZM51.1032 70.7937H21.9032V46.4605H51.1032V70.7937Z" fill="#003A66"/>
<path d="M52.3198 44.0271H20.6866C20.015 44.0271 19.47 44.5709 19.47 45.2437V72.0103C19.47 72.6832 20.015 73.2269 20.6866 73.2269H52.32C52.9928 73.2269 53.5366 72.6832 53.5366 72.0103V45.2437C53.5366 44.5709 52.9927 44.0271 52.3198 44.0271ZM51.1032 70.7937H21.9032V46.4605H51.1032V70.7937Z" fill="#003A66"/>
<path d="M20.6866 44.0271H1.21979C0.54825 44.0271 0.00317383 44.5709 0.00317383 45.2437V72.0103C0.00317383 72.6833 0.54825 73.2271 1.21979 73.2271H20.6864C21.358 73.2271 21.903 72.6833 21.903 72.0105V45.2437C21.9032 44.5709 21.3581 44.0271 20.6866 44.0271ZM19.4698 70.7937H2.43655V46.4605H19.4699V70.7937H19.4698Z" fill="#003A66"/>
<path d="M71.7867 44.0271H52.3199C51.6471 44.0271 51.1033 44.5709 51.1033 45.2437V72.0103C51.1033 72.6832 51.6471 73.2269 52.3199 73.2269H71.7865C72.4593 73.2269 73.0031 72.6832 73.0031 72.0103V45.2437C73.0033 44.5709 72.4595 44.0271 71.7867 44.0271ZM70.5699 70.7937H53.5367V46.4605H70.57V70.7937H70.5699Z" fill="#003A66"/>
<path d="M47.453 53.7605H25.553C24.8815 53.7605 24.3364 54.3043 24.3364 54.9771V67.1437C24.3364 67.8166 24.8815 68.3604 25.553 68.3604H47.453C48.1259 68.3604 48.6697 67.8166 48.6697 67.1437V54.9771C48.6697 54.3043 48.1259 53.7605 47.453 53.7605ZM46.2364 65.9271H26.7697V56.1937H46.2363V65.9271H46.2364Z" fill="#003A66"/>
<path d="M40.1534 48.8938H37.72V51.3272H40.1534V48.8938Z" fill="#003A66"/>
<path d="M35.2866 48.8938H32.8533V51.3272H35.2866V48.8938Z" fill="#003A66"/>
<path d="M30.42 48.8938H27.9866V51.3272H30.42V48.8938Z" fill="#003A66"/>
<path d="M45.0198 48.8938H42.5864V51.3272H45.0198V48.8938Z" fill="#003A66"/>
<path d="M20.6863 53.7605H1.21973V56.1939H20.6863V53.7605Z" fill="#003A66"/>
<path d="M13.3864 48.8938H8.51978V51.3272H13.3864V48.8938Z" fill="#003A66"/>
<path d="M13.3864 58.627H8.51978V61.0603H13.3864V58.627Z" fill="#003A66"/>
<path d="M71.7864 53.7605H52.3198V56.1939H71.7864V53.7605Z" fill="#003A66"/>
<path d="M63.2698 54.9771H60.8364V72.0104H63.2698V54.9771Z" fill="#003A66"/>
<path d="M64.4865 48.8938H59.6199V51.3272H64.4865V48.8938Z" fill="#003A66"/>
<path d="M58.4031 61.0603H55.9697V64.7103H58.4031V61.0603Z" fill="#003A66"/>
<path d="M68.1365 61.0603H65.7031V64.7103H68.1365V61.0603Z" fill="#003A66"/>
<path d="M51.9633 20.0503L47.4532 15.5401V1.44367C47.4532 0.772127 46.9094 0.227051 46.2366 0.227051H26.7698C26.0982 0.227051 25.5532 0.772127 25.5532 1.44367V15.5399L21.043 20.0501C20.695 20.398 20.5905 20.9213 20.7789 21.3762C20.9676 21.8301 21.4116 22.1269 21.9032 22.1269H51.1032C51.5946 22.1269 52.0401 21.8301 52.2274 21.3762C52.4159 20.9213 52.3114 20.3981 51.9633 20.0503ZM24.8401 19.6937L27.63 16.9038C27.8587 16.6763 27.9864 16.366 27.9864 16.0437V2.66043H45.0198V16.0438C45.0198 16.3662 45.1475 16.6764 45.3762 16.904L48.1661 19.6938H24.8401V19.6937Z" fill="#003A66"/>
<path d="M65.703 26.9937C63.019 26.9937 60.8364 29.1764 60.8364 31.8603V33.0769H63.2698V31.8603C63.2698 30.5183 64.3611 29.4269 65.7032 29.4269C67.0451 29.4269 68.1366 30.5182 68.1366 31.8603V45.2437H70.57V31.8603C70.5697 29.1764 68.3871 26.9937 65.703 26.9937Z" fill="#003A66"/>
<path d="M69.3531 39.1604H65.7031V41.5938H69.3531V39.1604Z" fill="#003A66"/>
<path d="M35.2866 36.7271H23.1199C22.4484 36.7271 21.9033 37.2708 21.9033 37.9437V45.2437C21.9033 45.9165 22.4484 46.4603 23.1199 46.4603H35.2866C35.9581 46.4603 36.5032 45.9165 36.5032 45.2437V37.9437C36.5032 37.2708 35.9581 36.7271 35.2866 36.7271ZM34.0698 44.0271H24.3364V39.1604H34.0698V44.0271Z" fill="#003A66"/>
<path d="M23.1197 39.1604H19.4697V41.5938H23.1197V39.1604Z" fill="#003A66"/>
<path d="M38.9366 39.1604H35.2866V41.5938H38.9366V39.1604Z" fill="#003A66"/>
<path d="M20.6866 0.227051H1.21979C0.54825 0.227051 0.00317383 0.772127 0.00317383 1.44367V16.0437C0.00317383 16.7152 0.54825 17.2603 1.21979 17.2603H20.6864C21.358 17.2603 21.903 16.7152 21.903 16.0437V1.44367C21.9032 0.772127 21.3581 0.227051 20.6866 0.227051ZM19.4698 14.8271H2.43655V2.66043H19.4699V14.8271H19.4698Z" fill="#003A66"/>
<path d="M17.0367 7.5271H14.6033V12.3937H17.0367V7.5271Z" fill="#003A66"/>
<path d="M71.7867 0.227051H52.3199C51.6471 0.227051 51.1033 0.772127 51.1033 1.44367V16.0437C51.1033 16.7152 51.6471 17.2603 52.3199 17.2603H71.7865C72.4593 17.2603 73.0031 16.7152 73.0031 16.0437V1.44367C73.0033 0.772127 72.4595 0.227051 71.7867 0.227051ZM70.5699 14.8271H53.5367V2.66043H70.57V14.8271H70.5699Z" fill="#003A66"/>
<path d="M58.4031 7.5271H55.9697V12.3937H58.4031V7.5271Z" fill="#003A66"/>
<path d="M21.9032 24.5605H0.00317383V26.9939H21.9032V24.5605Z" fill="#003A66"/>
<path d="M4.8699 22.127H2.43652V33.077H4.8699V22.127Z" fill="#003A66"/>
<path d="M3.65317 31.8604C1.64083 31.8604 0.00317383 33.498 0.00317383 35.5104C0.00317383 37.5227 1.64083 39.1603 3.65317 39.1603C5.66552 39.1603 7.30317 37.5227 7.30317 35.5104C7.30317 33.498 5.66552 31.8604 3.65317 31.8604ZM3.65317 36.727C2.98277 36.727 2.43655 36.1808 2.43655 35.5104C2.43655 34.8399 2.98277 34.2937 3.65317 34.2937C4.32358 34.2937 4.86979 34.8399 4.86979 35.5104C4.86979 36.1808 4.32358 36.727 3.65317 36.727Z" fill="#003A66"/>
<path d="M9.7366 22.127H7.30322V33.077H9.7366V22.127Z" fill="#003A66"/>
<path d="M8.51987 31.8604C6.50753 31.8604 4.86987 33.498 4.86987 35.5104C4.86987 37.5227 6.50753 39.1603 8.51987 39.1603C10.5322 39.1603 12.1699 37.5227 12.1699 35.5104C12.1699 33.498 10.5322 31.8604 8.51987 31.8604ZM8.51987 36.727C7.84947 36.727 7.30325 36.1808 7.30325 35.5104C7.30325 34.8399 7.84947 34.2937 8.51987 34.2937C9.19028 34.2937 9.73649 34.8399 9.73649 35.5104C9.73663 36.1808 9.19028 36.727 8.51987 36.727Z" fill="#003A66"/>
<path d="M14.6033 22.127H12.1699V33.077H14.6033V22.127Z" fill="#003A66"/>
<path d="M13.3866 31.8604C11.3742 31.8604 9.73657 33.498 9.73657 35.5104C9.73657 37.5227 11.3742 39.1603 13.3866 39.1603C15.3989 39.1603 17.0366 37.5227 17.0366 35.5104C17.0366 33.498 15.3989 31.8604 13.3866 31.8604ZM13.3866 36.727C12.7162 36.727 12.17 36.1808 12.17 35.5104C12.17 34.8399 12.7162 34.2937 13.3866 34.2937C14.057 34.2937 14.6032 34.8399 14.6032 35.5104C14.6032 36.1808 14.057 36.727 13.3866 36.727Z" fill="#003A66"/>
</g>
<defs>
<linearGradient id="paint0_linear" x1="36.5333" y1="1.36206" x2="36.5333" y2="20.7992" gradientUnits="userSpaceOnUse">
<stop stop-color="#F5A484"/>
<stop offset="1" stop-color="#D06330"/>
</linearGradient>
<clipPath id="clip0">
<rect width="73" height="73" fill="white" transform="translate(0.00317383 0.227051)"/>
</clipPath>
</defs>
</svg>
