<svg width="18" height="20" fill="none" xmlns="http://www.w3.org/2000/svg"><g clip-path="url(#clip0)" fill="#000"><path d="M6.183 7.504a22.03 22.03 0 002.51-.69C7.628 4.754 6.31 2.895 4.76 1.326 2.481 2.617.748 4.922.19 7.67c1.677.357 3.748.312 5.994-.167zm8.532-5.11l-.147.613c-.232.98-2.194 2.382-4.767 3.395l-.116.045A23.67 23.67 0 005.782.836C6.774.424 7.86.164 8.988.164c2.015 0 3.892.75 5.39 1.94.116.09.232.179.337.29zm-4.619 7.726c-.274-.79-.58-1.558-.918-2.304-.885.312-1.824.58-2.784.78a18.786 18.786 0 01-3.839.423c-.823 0-1.702-.067-2.535-.234-.02.29.004.579.004.88 0 2.927 1.265 5.543 3.238 7.28l.031-.2c.401-2.56 3.207-5.266 6.803-6.624z"/><path d="M10.444 11.167a28.062 28.062 0 011.16 7.585 8.486 8.486 0 01-2.615.412c-1.698 0-3.29-.538-4.64-1.406a2.456 2.456 0 01-.011-.835c.327-2.104 2.942-4.542 6.106-5.756zm7.45-.156c-.443 3.262-2.493 5.99-5.256 7.292a29.1 29.1 0 00-1.203-7.47c2.363-.69 4.603-.612 6.459.178zm.095-1.347v.2c-2.015-.79-4.402-.824-6.891-.078a28.04 28.04 0 00-.928-2.338c1.733-.687 4.969-2.268 5.421-4.174a9.735 9.735 0 012.398 6.39z"/></g><defs><clipPath id="clip0"><path fill="#fff" transform="translate(0 .164)" d="M0 0h18v19H0z"/></clipPath></defs></svg>