<svg width="18" height="19" fill="none" xmlns="http://www.w3.org/2000/svg"><g clip-path="url(#clip0)" fill="#000"><path d="M13.127.164H4.872A4.878 4.878 0 000 5.036v8.256a4.878 4.878 0 004.872 4.872h8.256A4.878 4.878 0 0018 13.292V5.036A4.878 4.878 0 0013.127.164zM9 14.086a4.927 4.927 0 01-4.922-4.922A4.927 4.927 0 019 4.242a4.927 4.927 0 014.922 4.922A4.927 4.927 0 019 14.086zm5.04-8.683a1.456 1.456 0 01-1.455-1.454c0-.802.652-1.455 1.454-1.455.802 0 1.455.653 1.455 1.455s-.653 1.454-1.455 1.454z"/><path d="M9 5.298a3.87 3.87 0 00-3.867 3.866A3.871 3.871 0 009 13.031a3.87 3.87 0 003.866-3.867A3.87 3.87 0 009 5.298zm5.04-1.748a.4.4 0 100 .799.4.4 0 000-.8z"/></g><defs><clipPath id="clip0"><path fill="#fff" transform="translate(0 .164)" d="M0 0h18v18H0z"/></clipPath></defs></svg>