<svg width="22" height="22" fill="none" xmlns="http://www.w3.org/2000/svg"><g clip-path="url(#clip0)" fill="#000"><path d="M9.051 10.034c.457-.22.802-.463 1.038-.727.421-.475.629-1.105.629-1.886 0-.76-.208-1.41-.623-1.955-.693-.887-1.866-1.341-3.525-1.365H0v12.802h6.126c.69 0 1.33-.056 1.921-.172a3.869 3.869 0 001.536-.643c.385-.272.707-.61.963-1.007a3.575 3.575 0 00.606-2.041c0-.735-.177-1.361-.53-1.876-.355-.514-.878-.891-1.571-1.13zm-6.34-3.71H5.67c.65 0 1.186.068 1.607.2.487.193.73.586.73 1.184 0 .537-.185.912-.553 1.124-.37.211-.85.317-1.438.317H2.71V6.325zm4.679 8.132c-.327.151-.788.226-1.378.226H2.71v-3.414h3.347c.583.004 1.037.077 1.362.215.577.25.865.706.865 1.374 0 .788-.297 1.318-.894 1.6zm12.495-9.758H14.06v1.594h5.826V4.698zm2.025 6.289a4.45 4.45 0 00-.803-1.957 4.006 4.006 0 00-1.736-1.4c-.7-.297-1.487-.446-2.365-.444-1.473 0-2.669.44-3.594 1.312-.923.876-1.385 2.135-1.385 3.776 0 1.75.51 3.013 1.536 3.789 1.022.777 2.201 1.164 3.54 1.164 1.622 0 2.883-.46 3.784-1.38.576-.58.902-1.15.973-1.71h-2.684a2.088 2.088 0 01-.542.65c-.374.289-.86.433-1.457.433-.568 0-1.05-.12-1.451-.357-.663-.38-1.01-1.047-1.053-1.996h7.325c.01-.818-.017-1.447-.088-1.88zm-7.171.246c.096-.616.33-1.104.7-1.465.372-.36.898-.541 1.57-.542.62 0 1.139.169 1.56.509.417.343.652.84.7 1.498h-4.53z"/></g><defs><clipPath id="clip0"><path fill="#fff" transform="translate(0 .164)" d="M0 0h22v21H0z"/></clipPath></defs></svg>