<svg width="18" height="19" fill="none" xmlns="http://www.w3.org/2000/svg"><g clip-path="url(#clip0)"><path d="M9.245.164c-4.935 0-7.557 3.162-7.557 6.61 0 1.597.893 3.592 2.323 4.224.408.184.354-.04.705-1.383a.319.319 0 00-.077-.313C2.595 6.937 4.24 2.076 8.954 2.076c6.82 0 5.545 9.436 1.186 9.436-1.123 0-1.96-.882-1.695-1.973.32-1.3.949-2.697.949-3.634 0-2.36-3.518-2.01-3.518 1.118 0 .967.343 1.62.343 1.62s-1.132 4.571-1.342 5.425c-.356 1.446.048 3.787.083 3.989.022.11.146.146.216.055.112-.147 1.48-2.098 1.863-3.509l.712-2.599c.377.681 1.464 1.251 2.623 1.251 3.447 0 5.939-3.03 5.939-6.79-.012-3.604-3.097-6.3-7.068-6.3z" fill="#000"/></g><defs><clipPath id="clip0"><path fill="#fff" transform="translate(0 .164)" d="M0 0h18v18H0z"/></clipPath></defs></svg>