<svg width="47" height="47" viewBox="0 0 47 47" fill="none" xmlns="http://www.w3.org/2000/svg">
<g clip-path="url(#clip0)">
<path d="M40.0882 31.4338L40.0235 31.3683C39.6735 31.0166 39.1045 31.0155 38.7528 31.3655C38.4012 31.7155 38.3999 32.2845 38.7501 32.6362L38.8036 32.6902C38.9797 32.8702 39.2127 32.9605 39.446 32.9605C39.6725 32.9605 39.8993 32.8753 40.0741 32.7044C40.4288 32.3574 40.4352 31.7886 40.0882 31.4338Z" fill="black"/>
<path d="M45.7207 44.2959H43.2051V39.0745C43.2051 37.3671 42.7985 35.6618 42.0292 34.1427C41.805 33.7 41.2642 33.523 40.8219 33.7472C40.3791 33.9713 40.2021 34.5119 40.4263 34.9545C41.0687 36.2231 41.4083 37.6478 41.4083 39.0744V44.2959H5.83008V39.0688C5.83008 34.8141 8.8464 31.0643 13.0022 30.1527L16.0744 29.4787C16.6592 29.3504 17.2043 29.1238 17.6947 28.8197C19.3406 30.245 21.42 31.0227 23.6191 31.0227C25.8102 31.0227 27.8825 30.2505 29.5256 28.8351C30.0093 29.1307 30.5453 29.3515 31.1197 29.4771L34.2298 30.157C34.9964 30.3246 35.7374 30.5894 36.4323 30.9442C36.5631 31.011 36.7026 31.0427 36.8401 31.0427C37.167 31.0427 37.4821 30.8637 37.641 30.5526C37.8667 30.1106 37.6913 29.5696 37.2493 29.3439C36.4175 28.9191 35.5306 28.6022 34.6136 28.4016L31.5036 27.7217C29.9324 27.3781 28.7919 25.9614 28.7919 24.353V24.0065C30.8092 22.8577 32.272 20.8439 32.6725 18.4734H33.0939C34.5078 18.4734 35.6581 17.323 35.6581 15.909V14.2095C35.6581 12.7956 34.5078 11.6452 33.0939 11.6452H32.7832V7.96911C32.7832 3.62606 29.2499 0.0927734 24.9069 0.0927734H22.3314C17.9884 0.0927734 14.4551 3.62606 14.4551 7.96911V11.6452H14.1443C12.7304 11.6452 11.5801 12.7955 11.5801 14.2094V15.909C11.5801 17.3229 12.7304 18.4733 14.1443 18.4733H14.5657C14.9631 20.8252 16.4061 22.8262 18.3989 23.9794V24.3554C18.3989 25.9627 17.2594 27.3792 15.6895 27.7236L12.6173 28.3976C10.1931 28.9294 8.00124 30.2873 6.44569 32.2212C4.88995 34.1551 4.0332 36.5869 4.0332 39.0688V44.2959H1.51758C1.02146 44.2959 0.619141 44.6982 0.619141 45.1943C0.619141 45.6905 1.02146 46.0928 1.51758 46.0928H4.93164H42.3066H45.7207C46.2168 46.0928 46.6191 45.6905 46.6191 45.1943C46.6191 44.6982 46.2168 44.2959 45.7207 44.2959ZM32.7832 13.442H33.094C33.5171 13.442 33.8613 13.7862 33.8613 14.2094V15.909C33.8613 16.3321 33.5171 16.6764 33.094 16.6764H32.7832V13.442ZM14.4551 16.6764H14.1443C13.7211 16.6764 13.377 16.3321 13.377 15.909V14.2094C13.377 13.7862 13.7211 13.442 14.1443 13.442H14.4551V16.6764ZM23.6191 29.226C21.9359 29.226 20.3405 28.6569 19.051 27.611C19.6945 26.8007 20.1019 25.8033 20.1806 24.735C20.8645 24.9293 21.5861 25.0334 22.3314 25.0334H24.9069C25.6354 25.0334 26.341 24.9335 27.0112 24.7475C27.0935 25.821 27.5071 26.8225 28.1587 27.6333C26.8742 28.6646 25.2901 29.226 23.6191 29.226ZM16.252 7.96911C16.252 4.61686 18.9792 1.88965 22.3314 1.88965H24.9069C27.9459 1.88965 30.4713 4.13125 30.9166 7.04785C30.8463 7.0872 30.7798 7.13607 30.7199 7.19582C27.8508 10.0651 24.036 11.6451 19.9785 11.6451H16.252V7.96911ZM16.252 17.1572V13.442H19.9785C22.2206 13.442 24.4079 13.0069 26.4793 12.1489C28.1282 11.4659 29.6388 10.5408 30.9863 9.3925V12.5436V17.1572C30.9863 20.5094 28.2591 23.2365 24.9069 23.2365H22.3314C18.9792 23.2365 16.252 20.5093 16.252 17.1572Z" fill="black"/>
<path d="M11.8577 33.4861C11.5498 33.0972 10.9849 33.0313 10.5956 33.3392C8.8331 34.734 7.82227 36.8224 7.82227 39.0688C7.82227 39.5649 8.22459 39.9672 8.7207 39.9672C9.21682 39.9672 9.61914 39.5649 9.61914 39.0688C9.61914 37.3749 10.3815 35.8001 11.7107 34.7482C12.0997 34.4402 12.1656 33.8752 11.8577 33.4861Z" fill="black"/>
<path d="M14.6308 32.6181C14.5239 32.1335 14.0446 31.8277 13.5598 31.9345L13.5182 31.9437C13.0338 32.0513 12.7284 32.5313 12.836 33.0156C12.929 33.4344 13.3004 33.7194 13.7122 33.7194C13.7768 33.7194 13.8423 33.7124 13.908 33.6978L13.9473 33.6891C14.4318 33.5822 14.7379 33.1027 14.6308 32.6181Z" fill="black"/>
</g>
<defs>
<clipPath id="clip0">
<rect width="46" height="46" fill="white" transform="translate(0.619141 0.0927734)"/>
</clipPath>
</defs>
</svg>
