<svg width="40" height="41" viewBox="0 0 40 41" fill="none" xmlns="http://www.w3.org/2000/svg">
<g clip-path="url(#clip0)">
<path d="M39.3699 1.94767C39.3526 1.77361 39.2771 1.60579 39.1474 1.47493L39.139 1.4665C39.0074 1.33376 38.8373 1.25634 38.6606 1.23892C34.5077 0.29431 30.1521 0.413607 26.057 1.58525C21.926 2.76704 18.1367 4.99767 15.0985 8.03587L14.5783 8.55603H7.45338C7.24619 8.55603 7.04752 8.63837 6.90096 8.78486L0.228849 15.4569C-0.0762294 15.762 -0.0762294 16.2567 0.228849 16.5619L3.40065 19.7338L2.69236 20.442C2.38729 20.7471 2.38729 21.2419 2.69236 21.547L5.39986 24.2545L3.27432 28.0167C3.10174 28.3223 3.15401 28.7054 3.40213 28.9535L4.38986 29.9413C2.73455 31.7735 1.53049 33.9809 0.892677 36.3726L0.0264268 39.6202C-0.0454482 39.8896 0.0316612 40.1769 0.228849 40.3741C0.377286 40.5224 0.576817 40.6029 0.781349 40.6029C0.84838 40.6029 0.916114 40.5943 0.982599 40.5765L4.23026 39.7103C6.6219 39.0724 8.8294 37.8684 10.6617 36.2129L11.6474 37.1986C11.7978 37.349 11.9978 37.4274 12.2 37.4274C12.3314 37.4274 12.4638 37.3943 12.5841 37.3264L16.3463 35.201L19.0617 37.9163C19.2143 38.0688 19.4142 38.1452 19.6142 38.1452C19.8141 38.1452 20.014 38.0688 20.1666 37.9163L20.8749 37.208L24.0349 40.368C24.1814 40.5145 24.3801 40.5968 24.5873 40.5968C24.7945 40.5968 24.9931 40.5145 25.1397 40.368L31.8117 33.696C31.9582 33.5494 32.0406 33.3507 32.0406 33.1435V26.0423L32.5726 25.5102C35.6107 22.472 37.8414 18.6826 39.0232 14.5517C40.1953 10.4564 40.3146 6.10056 39.3699 1.94767ZM1.88627 16.0093L7.77705 10.1186H13.0156L5.93541 17.1989C5.93526 17.1991 5.93502 17.1992 5.93486 17.1995C5.93471 17.1997 5.93455 17.1999 5.93432 17.2001L4.50565 18.6288L1.88627 16.0093ZM3.82768 38.2004L1.88408 38.7188L2.40244 36.7752C2.96955 34.6488 4.03385 32.6842 5.49604 31.0472L9.55549 35.1067C7.91861 36.569 5.954 37.6334 3.82768 38.2004ZM12.3326 35.6738L11.2913 34.6326C11.2734 34.6101 11.2542 34.5883 11.2335 34.5674C11.2127 34.5467 11.1908 34.5276 11.1684 34.5096L6.09338 29.4346C6.07541 29.4121 6.05627 29.3903 6.03549 29.3695C6.01471 29.3487 5.99283 29.3296 5.97041 29.3117L4.92705 28.2684L6.54674 25.4013L15.1997 34.0542L12.3326 35.6738ZM30.4785 32.8199L24.5877 38.7107L21.9802 36.1031L30.4785 27.6049V32.8199ZM31.4681 24.4054L20.3235 35.5499C20.3233 35.5502 20.323 35.5504 20.3228 35.5506C20.3225 35.5509 20.3223 35.5512 20.3221 35.5514L19.6145 36.259L17.0318 33.6763L17.0317 33.6763L6.92471 23.5693C6.92455 23.5692 6.92432 23.569 6.92416 23.5688L4.34979 20.9945L6.48736 18.8569L16.9144 29.2839C17.067 29.4364 17.2669 29.5127 17.4668 29.5127C17.6667 29.5127 17.8667 29.4364 18.0192 29.2839C18.3243 28.9788 18.3243 28.4841 18.0192 28.1789L7.59229 17.7519L16.2035 9.14072C21.9358 3.40822 30.025 1.01204 37.9305 2.67845C39.5967 10.5839 37.2006 18.6729 31.4681 24.4054Z" fill="black"/>
<path d="M29.1117 16.4886C28.6803 16.4886 28.3304 16.8385 28.3304 17.27L28.3301 17.3195C28.3266 17.751 28.6735 18.1036 29.105 18.1071C29.1072 18.1071 29.1094 18.1072 29.1116 18.1072C29.54 18.1072 29.8892 17.7614 29.8928 17.3321L29.8931 17.27C29.893 16.8385 29.5432 16.4886 29.1117 16.4886Z" fill="black"/>
<path d="M28.7204 19.5069C28.3477 19.2892 27.8693 19.4149 27.6516 19.7875C26.7572 21.3187 25.1014 22.2699 23.3305 22.2699C20.5733 22.2699 18.3302 20.0268 18.3302 17.2696C18.3302 14.5124 20.5733 12.2693 23.3305 12.2693C24.8127 12.2693 26.2097 12.9213 27.1634 14.0581C27.4409 14.3889 27.9338 14.4317 28.2641 14.1545C28.5947 13.8772 28.6379 13.3844 28.3605 13.0538C27.1092 11.5621 25.2759 10.7065 23.3305 10.7065C19.7117 10.7065 16.7676 13.6507 16.7676 17.2694C16.7676 20.8882 19.7117 23.8323 23.3305 23.8323C25.6546 23.8323 27.8274 22.5844 29.0009 20.5754C29.2186 20.2031 29.0929 19.7247 28.7204 19.5069Z" fill="black"/>
<path d="M19.8512 30.0119C19.7059 29.8658 19.5051 29.783 19.2988 29.783C19.0934 29.783 18.8918 29.8658 18.7466 30.0119C18.6013 30.1572 18.5176 30.358 18.5176 30.5642C18.5176 30.7697 18.6012 30.9712 18.7466 31.1166C18.8918 31.2619 19.0934 31.3455 19.2988 31.3455C19.5052 31.3455 19.7059 31.2619 19.8512 31.1166C19.9973 30.9705 20.0801 30.7697 20.0801 30.5642C20.0801 30.3587 19.9973 30.1572 19.8512 30.0119Z" fill="black"/>
</g>
<defs>
<clipPath id="clip0">
<rect width="40" height="40" fill="white" transform="translate(0 0.605469)"/>
</clipPath>
</defs>
</svg>
