<svg width="50" height="51" viewBox="0 0 50 51" fill="none" xmlns="http://www.w3.org/2000/svg">
<g clip-path="url(#clip0)">
<path d="M34.8528 12.7665C32.2167 10.1488 28.7256 8.71069 25.013 8.71069C24.9793 8.71069 24.9453 8.71089 24.9114 8.71108C20.8957 8.7394 17.077 10.5125 14.4347 13.5754C14.0825 13.9838 14.1279 14.6004 14.5363 14.9528C14.9448 15.3051 15.5614 15.2594 15.9136 14.8512C18.188 12.2147 21.4727 10.6885 24.9252 10.6642C24.9545 10.664 24.9835 10.6638 25.0127 10.6638C28.2061 10.6638 31.2092 11.9009 33.4768 14.1525C35.7655 16.425 37.0259 19.4527 37.0259 22.6779C37.0259 25.7579 35.8617 28.6868 33.7477 30.9249C31.5282 33.2747 30.2254 36.2489 30.0299 39.3752H28.1259V29.0239H28.7444C30.1625 29.0239 31.316 27.8703 31.316 26.4524V26.3221C31.316 24.9041 30.1624 23.7506 28.7444 23.7506C27.3263 23.7506 26.1729 24.9042 26.1729 26.3221V27.0709H23.8293V26.3221C23.8293 24.9041 22.6756 23.7506 21.2578 23.7506H21.0923C19.6743 23.7506 18.5209 24.9042 18.5209 26.3221V26.4524C18.5209 27.8705 19.6745 29.0239 21.0923 29.0239H21.8762V39.3752H19.9955C19.806 36.214 18.5292 33.2673 16.3521 31.0042C14.104 28.6667 12.9144 25.5904 13.0027 22.3421C13.0173 21.803 12.5922 21.3541 12.053 21.3394C11.5115 21.321 11.065 21.7499 11.0503 22.2891C10.9476 26.0646 12.3305 29.6404 14.9444 32.3581C16.958 34.4514 18.0669 37.2363 18.0669 40.1999V40.3517V43.0257C18.0669 45.1145 19.6509 46.8395 21.6807 47.0643V47.2851C21.6806 49.116 23.1701 50.6054 25.0008 50.6054C26.8316 50.6054 28.321 49.116 28.321 47.2852V47.0672C30.3616 46.8526 31.957 45.1222 31.957 43.0258V40.3518V40.2002C31.957 37.2755 33.0971 34.4577 35.1672 32.266C37.6251 29.6639 38.9788 26.2586 38.9788 22.6778C38.9789 18.9283 37.5135 15.4084 34.8528 12.7665ZM28.1259 26.3221C28.1259 25.9811 28.4034 25.7037 28.7444 25.7037C29.0854 25.7037 29.3629 25.9811 29.3629 26.3221V26.4524C29.3629 26.7934 29.0854 27.0709 28.7444 27.0709H28.1259V26.3221ZM23.8292 29.0239H26.1728V39.3752H23.8292V29.0239ZM21.0921 27.0709C20.7511 27.0709 20.4737 26.7934 20.4737 26.4524V26.3221C20.4737 25.9811 20.7511 25.7037 21.0921 25.7037H21.2576C21.5986 25.7037 21.876 25.9811 21.876 26.3221V27.0709H21.0921ZM26.3681 47.2852C26.3681 48.0391 25.7548 48.6524 25.0009 48.6524C24.247 48.6524 23.6337 48.0391 23.6337 47.2852V47.0899H26.3681V47.2852ZM30.0041 43.0258C30.0041 44.1899 29.0571 45.1369 27.893 45.1369H27.3447H22.6573H22.1309C20.9669 45.1369 20.0199 44.1899 20.0199 43.0258V41.3283H30.0041V43.0258Z" fill="black"/>
<path d="M25 0.605469C24.4607 0.605469 24.0234 1.04277 24.0234 1.58203V5.22891C24.0234 5.76816 24.4606 6.20547 25 6.20547C25.5393 6.20547 25.9766 5.76816 25.9766 5.22891V1.58203C25.9766 1.04277 25.5393 0.605469 25 0.605469Z" fill="black"/>
<path d="M46.0961 21.7012H42.4492C41.91 21.7012 41.4727 22.1385 41.4727 22.6777C41.4727 23.217 41.91 23.6543 42.4492 23.6543H46.0961C46.6354 23.6543 47.0727 23.217 47.0727 22.6777C47.0727 22.1385 46.6355 21.7012 46.0961 21.7012Z" fill="black"/>
<path d="M7.55117 21.7012H3.9043C3.36504 21.7012 2.92773 22.1385 2.92773 22.6777C2.92773 23.217 3.36504 23.6543 3.9043 23.6543H7.55117C8.09043 23.6543 8.52773 23.217 8.52773 22.6777C8.52773 22.1385 8.09053 21.7012 7.55117 21.7012Z" fill="black"/>
<path d="M13.3532 9.64907L10.7746 7.07036C10.3932 6.68921 9.77507 6.68901 9.39343 7.07036C9.01208 7.45171 9.01208 8.07007 9.39343 8.45151L11.972 11.0302C12.1629 11.2209 12.4128 11.3163 12.6627 11.3163C12.9126 11.3163 13.1625 11.2209 13.3532 11.0302C13.7345 10.6489 13.7345 10.0305 13.3532 9.64907Z" fill="black"/>
<path d="M40.607 7.07012C40.2256 6.68887 39.6074 6.68887 39.226 7.07012L36.6473 9.64883C36.266 10.0302 36.266 10.6485 36.6473 11.03C36.8381 11.2206 37.088 11.316 37.3379 11.316C37.5878 11.316 37.8377 11.2206 38.0284 11.03L40.607 8.45127C40.9884 8.06992 40.9884 7.45156 40.607 7.07012Z" fill="black"/>
<path d="M34.1424 18.9903C33.4107 17.1739 32.1663 15.6282 30.544 14.52C28.9002 13.3975 26.9789 12.8053 24.9824 12.8053C24.9588 12.8053 24.9348 12.8054 24.9112 12.8055C24.3718 12.8093 23.9376 13.2496 23.9414 13.7889C23.9452 14.3259 24.3818 14.7586 24.9179 14.7586C24.9201 14.7586 24.9226 14.7586 24.9248 14.7586C24.9443 14.7584 24.9633 14.7584 24.9826 14.7584C28.2343 14.7584 31.1147 16.701 32.3309 19.72C32.4842 20.1007 32.8502 20.3321 33.2369 20.3321C33.3584 20.3321 33.4821 20.3092 33.6015 20.261C34.1018 20.0594 34.344 19.4904 34.1424 18.9903Z" fill="black"/>
<path d="M34.5673 21.9874C34.3857 21.8058 34.1338 21.7012 33.877 21.7012C33.619 21.7012 33.3671 21.8058 33.1855 21.9874C33.0039 22.1689 32.9004 22.4209 32.9004 22.6777C32.9004 22.9346 33.0039 23.1865 33.1855 23.3682C33.3671 23.5498 33.619 23.6543 33.877 23.6543C34.1338 23.6543 34.3857 23.5499 34.5673 23.3682C34.7489 23.1865 34.8524 22.9346 34.8524 22.6777C34.8524 22.4209 34.7489 22.1689 34.5673 21.9874Z" fill="black"/>
<path d="M13.7274 16.9562C13.5459 16.7745 13.2939 16.671 13.0371 16.671C12.7803 16.671 12.5283 16.7744 12.3467 16.9562C12.165 17.1388 12.0605 17.3898 12.0605 17.6476C12.0605 17.9044 12.1649 18.1554 12.3467 18.338C12.5283 18.5196 12.7803 18.6241 13.0371 18.6241C13.2939 18.6241 13.5459 18.5197 13.7274 18.338C13.9091 18.1554 14.0137 17.9044 14.0137 17.6476C14.0137 17.3898 13.9092 17.1388 13.7274 16.9562Z" fill="black"/>
</g>
<defs>
<clipPath id="clip0">
<rect width="50" height="50" fill="white" transform="translate(0 0.605469)"/>
</clipPath>
</defs>
</svg>
