<svg width="510" height="197" viewBox="0 0 510 197" fill="none" xmlns="http://www.w3.org/2000/svg">
<mask id="mask0_57_1052" style="mask-type:alpha" maskUnits="userSpaceOnUse" x="0" y="0" width="510" height="197">
<rect width="510" height="197" fill="#11B687"/>
</mask>
<g mask="url(#mask0_57_1052)">
<mask id="path-2-inside-1_57_1052" fill="white">
<path d="M-358.366 3.13381C-311.503 2.68605 -311.503 4.56663 -311.503 7.88003C-311.503 11.3725 -311.324 16.0292 -276.557 19.5217C-241.522 22.4769 -204.784 18.8949 -168.136 14.3277C-122.438 7.07407 -76.6508 -1.43331 -28.8918 -2.59748C18.8671 -3.76165 18.6879 8.14869 18.6879 21.7605C18.6879 33.5813 18.8673 46.0289 53.0063 50.1483C86.3391 54.9841 122.27 43.9692 157.305 32.7753C199.867 18.8053 242.34 3.13381 279.256 12.8949C311.066 27.6709 302.822 57.9393 293.414 90.8046C284.901 119.282 276.748 148.297 289.471 173.729C300.493 200.953 319.22 198.893 337.051 197.013C358.018 194.684 376.566 192.625 378 237.848C378 284.415 364.559 330.265 352.821 375.488C343.95 412.294 336.334 448.831 338.933 484.472C342.338 519.398 350.581 519.666 358.108 520.024C366.083 520.293 372.713 520.293 371.548 568.024C370.921 615.218 368.054 660.71 366.531 705.754C366.262 742.291 366.979 778.738 370.832 813.036C371.011 823.156 371.011 833.096 371.1 842.768C364.022 796.022 362.857 750.709 362.857 705.575C363.932 669.217 366.083 632.59 364.918 598.024C364.47 562.651 358.735 562.472 352.284 562.203C342.875 562.203 332.212 561.576 325.94 514.293C320.205 466.383 329.345 420.712 339.649 375.309C349.237 338.593 359.721 301.967 358.108 267.937C355.599 234.445 340.904 235.341 324.686 236.594C302.553 238.923 279.167 241.34 264.024 202.744C244.132 168.893 253.988 132.894 262.68 99.312C268.594 74.4167 275.224 49.7005 250.135 38.8648C223.612 29.5515 189.563 41.5514 155.065 53.0139C112.324 65.6407 68.4181 78.357 23.2577 69.9391C-23.2467 62.5959 -23.2468 46.3871 -23.2468 31.9694C-23.426 21.2232 -23.5156 11.3725 -58.73 10.9248C-94.1235 10.2979 -130.771 16.8352 -167.33 22.1187C-213.028 27.7604 -258.636 31.9694 -306.127 25.7903C-353.258 19.1635 -353.437 13.1636 -352.989 8.50689C-353.258 5.82035 -353.437 4.11888 -388.025 3.04426C-378.347 3.04426 -368.133 3.22336 -358.097 3.04426L-358.366 3.13381ZM-1087.47 620.232C-1080.66 666.889 -1079.5 712.291 -1079.41 757.515C-1080.75 793.872 -1082.55 830.32 -1081.65 865.245C-1081.02 900.349 -1075.47 900.439 -1069.01 900.886C-1059.7 900.886 -1048.85 901.155 -1042.76 948.796C-1036.85 996.527 -1046.17 1042.2 -1056.29 1087.6C-1065.61 1123.96 -1076.18 1160.85 -1074.57 1194.88C-1072.24 1228.47 -1057.46 1227.57 -1041.24 1226.41C-1019.28 1224.17 -995.719 1221.57 -980.576 1260.17C-960.952 1294.38 -970.898 1330.29 -979.68 1364.05C-985.683 1389.12 -992.224 1413.66 -967.314 1424.58C-940.792 1433.72 -906.473 1421.63 -872.155 1410.43C-829.593 1397.63 -785.777 1385.09 -740.258 1393.15C-693.574 1400.4 -693.753 1416.7 -693.843 1431.3C-693.664 1442.05 -693.664 1451.81 -658.449 1452.34C-623.235 1452.97 -586.229 1446.43 -549.581 1440.88C-503.883 1435.42 -458.364 1431.3 -410.784 1437.21C-363.652 1444.02 -363.831 1450.19 -363.652 1454.31C-363.652 1457.27 -363.832 1458.88 -329.155 1460.05C-338.832 1460.05 -348.778 1459.87 -358.276 1459.87C-405.408 1460.31 -405.856 1458.52 -405.766 1455.12C-405.587 1451.45 -405.766 1447.15 -440.533 1443.66C-475.747 1440.52 -512.305 1444.11 -549.222 1448.85C-594.741 1456.11 -639.991 1464.43 -687.84 1465.69C-735.419 1466.85 -736.046 1455.03 -735.867 1441.69C-735.867 1429.87 -735.867 1417.24 -769.917 1412.94C-803.339 1408.37 -839.181 1419.12 -874.485 1430.58C-917.046 1444.55 -958.892 1459.78 -995.988 1450.19C-1027.71 1435.33 -1019.55 1405.06 -1010.23 1372.37C-1001.54 1343.81 -993.479 1314.88 -1006.11 1289.27C-1017.13 1262.05 -1035.86 1263.93 -1053.42 1265.81C-1074.48 1268.32 -1092.94 1269.93 -1094.19 1224.7C-1094.19 1178.14 -1080.75 1132.65 -1069.1 1087.51C-1060.41 1050.71 -1052.62 1013.99 -1055.57 978.617C-1058.71 943.423 -1067.04 943.244 -1074.39 943.065C-1082.37 942.617 -1089 942.17 -1087.83 894.797C-1087.2 847.514 -1084.34 802.38 -1082.81 757.604C-1082.63 720.799 -1083.44 684.53 -1086.94 649.874C-1087.11 640.023 -1087.2 630.173 -1087.2 620.143L-1087.47 620.232ZM-1089.09 529.159C-1076.27 575.904 -1071.88 621.397 -1068.66 666.889C-1067.76 703.426 -1067.49 739.694 -1062.29 774.619C-1057.28 809.544 -1049.21 809.813 -1040.52 810.26C-1028.6 809.992 -1015.07 809.992 -1003.07 857.723C-991.149 905.364 -997.152 950.946 -1004.59 996.527C-1011.67 1032.89 -1019.91 1069.78 -1014 1103.99C-1007.55 1137.57 -990.611 1136.85 -972.332 1135.96C-947.87 1133.72 -921.975 1131.66 -902.172 1171.51C-878.427 1207.6 -886.671 1244.76 -894.108 1279.96C-899.395 1306.38 -904.681 1331.99 -878.606 1345.96C-851.008 1358.49 -816.78 1348.64 -781.834 1339.33C-738.824 1329.03 -694.918 1319.27 -648.951 1332.97C-602.447 1346.05 -602.716 1364.94 -602.716 1382.31C-602.716 1395.3 -602.716 1407.39 -567.501 1412.22C-532.287 1417.24 -495.639 1413.12 -458.812 1409.9C-413.114 1407.39 -367.326 1406.4 -319.926 1418.4C-272.615 1430.94 -273.063 1439.63 -273.242 1446.52C-273.421 1451.54 -273.421 1455.48 -238.655 1460.94C-248.78 1460.76 -258.726 1460.67 -268.403 1460.67C-315.445 1455.21 -315.535 1450.82 -315.535 1444.73C-315.266 1438.73 -315.266 1432.19 -350.032 1424.4C-385.247 1417.06 -421.895 1418.05 -458.722 1420.46C-504.062 1424.58 -549.581 1430.05 -597.339 1425.48C-644.919 1420.64 -645.188 1406.14 -645.188 1390.11C-645.009 1375.96 -644.919 1361.09 -679.058 1352.49C-712.66 1343.63 -748.77 1352.31 -784.074 1361.45C-827.084 1373.27 -869.377 1385.81 -907.638 1371.57C-941.24 1352.67 -934.34 1321.06 -926.365 1286.67C-919.107 1257.39 -912.208 1227.48 -927.978 1200.44C-942.225 1172.32 -962.745 1173.75 -982.637 1175.54C-1006.02 1177.78 -1026.99 1178.94 -1033.71 1133.54C-1039.62 1086.97 -1029.14 1041.48 -1020.27 996.259C-1013.91 959.722 -1008.62 922.916 -1015.97 887.633C-1023.14 852.26 -1033.8 852.439 -1043.66 852.26C-1054.23 851.991 -1063.73 851.633 -1068.39 804.081C-1073.67 756.977 -1073.58 711.664 -1075.02 666.71C-1077.08 630.173 -1080.48 593.456 -1088.28 558.979C-1088.55 549.218 -1088.73 538.83 -1089 528.89L-1089.09 529.159ZM-1091.15 437.1C-1072.6 484.114 -1065.25 529.785 -1059.34 575.188C-1055.84 611.904 -1052.89 648.531 -1043.3 683.456C-1033.89 718.381 -1023.85 718.381 -1012.92 718.381C-997.869 718.381 -981.651 718.381 -963.551 766.022C-945.63 813.753 -948.677 859.245 -953.426 904.916C-958.175 941.453 -963.909 978.438 -953.695 1012.74C-942.942 1046.5 -923.946 1045.78 -903.785 1044.97C-876.725 1043.18 -848.41 1041.57 -823.769 1082.68C-796.081 1120.65 -802.443 1158.88 -808.626 1195.51C-812.747 1223.18 -817.317 1250.32 -789.898 1267.42C-761.315 1283.36 -726.548 1275.39 -691.513 1268.14C-647.876 1260.52 -603.701 1253.27 -557.466 1272.7C-510.782 1291.87 -510.782 1313.54 -511.23 1333.69C-511.409 1349 -511.409 1362.97 -476.284 1372.46C-441.249 1381.87 -404.064 1380.26 -367.236 1379.54C-321.449 1379.99 -275.482 1381.87 -227.992 1399.87C-180.86 1418.4 -180.95 1429.78 -181.308 1439.54C-181.487 1446.79 -181.756 1452.61 -147.259 1462.55C-157.115 1462.28 -167.151 1462.1 -177.007 1461.84C-224.139 1450.64 -224.139 1443.57 -223.691 1434.88C-223.422 1427.09 -223.243 1418.22 -258.188 1406.14C-293.224 1394.23 -329.961 1392.88 -367.057 1392.7C-412.845 1393.69 -458.274 1396.11 -505.943 1385.45C-553.254 1374.7 -553.702 1357.42 -553.344 1338.61C-553.165 1322.58 -553.075 1305.3 -587.393 1292.49C-621.264 1279.51 -657.374 1285.87 -693.036 1292.94C-736.494 1301.81 -779.056 1311.93 -818.661 1293.21C-854.144 1270.38 -848.589 1237.06 -841.958 1201.42C-836.044 1170.88 -830.579 1140.17 -849.485 1111.87C-867.047 1082.59 -889.717 1083.84 -911.312 1085.36C-937.207 1087.15 -960.863 1088.5 -973.318 1042.83C-984.966 996.08 -977.44 950.319 -971.436 905.095C-967.583 868.29 -964.626 831.395 -976.454 796.201C-988.282 761.007 -1001.18 761.097 -1013.01 761.097C-1026.54 760.918 -1038.46 760.918 -1049.21 713.634C-1060.41 666.53 -1063.37 620.77 -1067.94 575.546C-1072.51 538.562 -1078.24 501.845 -1090.34 467.279C-1090.61 457.249 -1090.79 447.398 -1091.06 437.1H-1091.15ZM-1093.66 345.041C-1069.01 391.876 -1059.07 437.548 -1049.93 483.577C-1044.02 520.293 -1039 556.92 -1025.02 591.845C-1011.22 626.77 -998.676 626.77 -985.414 627.038C-967.852 626.411 -948.587 626.591 -924.394 674.321C-900.559 721.873 -900.828 767.455 -902.441 813.574C-904.681 849.932 -908.176 886.827 -893.749 921.304C-878.875 955.334 -857.549 954.886 -835.148 954.349C-805.579 952.558 -774.755 951.393 -745.544 994.02C-713.735 1033.96 -718.305 1073.27 -722.875 1111.6C-726.1 1140.62 -729.953 1169.18 -701.101 1189.42C-671.352 1208.59 -636.317 1202.67 -600.744 1197.57C-556.838 1192.29 -512.484 1187.72 -465.98 1213.06C-419.117 1237.78 -419.117 1262.58 -419.117 1285.6C-419.565 1303.15 -419.565 1319.63 -384.53 1333.51C-349.495 1347.39 -312.488 1348.11 -275.392 1349.72C-229.605 1353.12 -183.907 1357.78 -136.506 1381.96C-89.1953 1406.4 -89.1953 1420.73 -89.3745 1433.27C-89.8225 1442.67 -90.0913 1450.82 -55.325 1465.06C-65.4502 1464.79 -75.4859 1464.61 -85.5215 1464.34C-132.474 1446.97 -132.384 1437.12 -132.026 1425.84C-131.847 1415.54 -131.578 1404.79 -166.344 1387.96C-201.379 1371.57 -238.565 1367.9 -275.482 1365.39C-321.001 1363.51 -366.788 1363.06 -414.547 1346.4C-461.948 1329.66 -461.858 1309.42 -461.948 1287.93C-461.679 1269.21 -461.321 1249.78 -495.818 1232.94C-530.047 1215.57 -566.426 1219.51 -602.357 1224.53C-645.994 1230.88 -689.273 1238.67 -730.222 1215.12C-767.587 1188.35 -762.748 1153.06 -757.91 1116.08C-753.519 1084.74 -749.218 1053.03 -771.171 1023.39C-792.228 993.035 -816.869 993.751 -840.614 995.005C-868.84 996.438 -895.094 997.333 -913.373 951.573C-930.935 904.737 -926.186 858.887 -923.229 813.484C-921.795 776.768 -920.899 739.963 -937.207 704.769C-953.605 669.665 -968.748 669.575 -982.995 669.575C-999.213 669.575 -1014.09 669.575 -1030.75 622.113C-1047.96 574.83 -1053.87 529.248 -1061.4 483.756C-1068.21 446.95 -1076.27 410.413 -1092.94 375.757C-1093.21 365.727 -1093.39 355.25 -1093.66 345.22V345.041ZM-1094.82 254.146C-1064.36 300.982 -1051.63 346.563 -1040.34 391.876C-1032.28 428.413 -1025.02 465.129 -1006.65 500.144C-988.371 535.069 -973.497 535.069 -957.727 535.338C-936.939 535.338 -914.717 535.606 -884.52 583.069C-854.592 630.71 -852.263 676.202 -851.277 721.694C-851.456 758.231 -852.621 795.037 -833.894 829.962C-814.719 864.17 -791.332 863.543 -766.691 863.275C-734.434 862.29 -701.101 861.215 -667.231 905.095C-631.299 946.916 -634.525 987.483 -637.661 1027.06C-639.991 1057.6 -642.321 1087.51 -612.214 1110.79C-581.3 1133.18 -546.176 1129.33 -510.692 1126.11C-466.338 1123.33 -421.805 1121.36 -375.122 1152.35C-327.99 1182.88 -327.811 1210.29 -328.08 1236.44C-327.9 1256.5 -327.811 1275.48 -292.596 1293.75C-257.561 1312.02 -221.003 1314.97 -184.265 1318.82C-138.477 1324.73 -93.0483 1332.26 -45.6478 1362.26C1.66309 1392.61 1.75269 1409.99 1.75269 1425.66C2.02161 1437.57 2.02161 1448.49 37.1464 1466.94C26.8419 1466.76 16.8063 1466.67 6.94983 1466.31C-40.1819 1443.21 -40.1819 1430.4 -40.3611 1415.81C-40.1819 1403.27 -40.5403 1389.75 -75.3963 1368.7C-110.611 1348.11 -146.811 1342.2 -183.996 1337.45C-229.336 1332.97 -275.034 1329.66 -322.614 1306.82C-370.014 1284.17 -370.193 1260.97 -370.373 1236.26C-370.104 1215.3 -370.373 1193.54 -404.87 1172.32C-439.188 1150.65 -475.478 1153.06 -511.678 1155.66C-555.584 1159.51 -599.042 1164.79 -641.335 1136.68C-680.85 1105.69 -677.266 1068.71 -673.861 1030.29C-670.636 998.139 -667.947 965.184 -693.036 934.379C-717.319 902.857 -743.842 903.752 -769.827 904.289C-800.741 905.185 -829.683 906.17 -853.517 859.961C-876.904 812.947 -875.201 766.828 -874.753 721.784C-875.47 685.247 -877.083 648.441 -897.782 613.068C-918.57 577.964 -936.222 578.143 -952.888 577.875C-972.332 577.427 -989.984 577.606 -1012.83 530.323C-1035.95 483.04 -1044.82 436.921 -1054.68 392.145C-1063.82 355.429 -1073.67 318.623 -1094.55 283.967C-1094.73 274.116 -1094.82 264.266 -1095 254.236L-1094.82 254.146ZM-1091.33 167.819C-1055.4 214.565 -1041.51 258.176 -1028.25 302.594C-1018.66 338.414 -1009.7 374.682 -987.027 409.608C-964.447 444.533 -946.616 444.98 -927.978 445.697C-903.964 446.145 -877.71 447.488 -841.958 494.592C-806.296 541.696 -802.174 586.382 -798.68 631.337C-797.067 667.605 -795.991 704.142 -773.142 739.067C-749.845 773.365 -724.129 773.276 -697.158 773.097C-662.571 772.649 -626.282 772.201 -588.11 817.156C-548.505 860.499 -550.208 902.319 -551.91 942.976C-553.254 974.766 -554.688 1006.02 -523.327 1032.44C-491.338 1058.23 -456.124 1055.99 -420.372 1054.65C-376.286 1054.2 -332.022 1054.2 -285.249 1090.47C-238.386 1126.73 -237.848 1157.63 -237.669 1187C-237.221 1209.57 -236.504 1231.24 -201.559 1253.9C-166.523 1276.55 -130.503 1281.3 -94.1235 1286.76C-49.5007 1295.18 -5.32593 1304.14 41.8058 1339.78C88.8478 1375.6 90.2816 1397.27 91.1776 1416.52C92.0736 1431.39 92.9697 1445.27 127.826 1467.93C117.7 1468.1 107.486 1467.93 97.8083 1467.75C50.4078 1438.73 50.4077 1422.7 49.9597 1404.88C49.0637 1389.3 48.4365 1373.09 13.8494 1347.75C-21.1858 1322.85 -57.4755 1315.15 -93.4067 1308.88C-138.657 1301.99 -184.176 1295.9 -231.755 1267.15C-279.066 1238.32 -279.156 1212.35 -279.156 1184.5C-279.783 1160.94 -279.783 1136.59 -314.191 1111.15C-348.778 1085.81 -385.068 1085.81 -420.551 1086.53C-465.353 1088.32 -509.259 1091.09 -552.717 1058.23C-594.114 1023.3 -591.605 984.706 -589.365 945.035C-587.483 911.633 -586.139 878.319 -614.006 846.171C-641.514 813.574 -670.277 813.753 -698.144 814.38C-731.835 814.648 -763.734 815.096 -793.124 768.529C-822.335 721.336 -823.231 675.665 -825.202 631.158C-827.891 594.8 -831.206 558.621 -856.116 523.606C-881.115 488.681 -901.635 488.055 -920.899 487.517C-943.838 486.443 -964.805 486.353 -993.568 439.07C-1022.42 391.608 -1033.8 346.295 -1045.54 302.056C-1056.29 265.967 -1067.76 230.326 -1092.94 195.848C-1092.67 186.445 -1092.22 176.684 -1091.15 167.819H-1091.33ZM-1076.63 92.9538C-1035.86 138.625 -1023.14 178.117 -1010.5 219.4C-1000.02 253.699 -990.343 288.265 -963.641 323.011C-936.849 357.31 -915.613 359.101 -894.108 360.892C-864.897 363.22 -833.984 366.533 -793.214 412.652C-752.713 458.771 -747.874 500.95 -743.573 544.203C-740.168 579.397 -737.839 614.949 -711.047 649.695C-683.807 683.903 -655.492 684.351 -626.192 684.62C-588.648 684.888 -549.76 685.336 -508.004 730.47C-465.442 774.798 -465.98 816.977 -466.428 858.797C-467.055 891.663 -467.772 924.17 -435.515 953.543C-402.63 982.109 -367.326 981.662 -331.843 981.841C-288.564 982.736 -245.196 983.901 -199.408 1025C-153.441 1065.84 -151.828 1100.85 -150.216 1133.99C-149.499 1159.51 -148.423 1184.05 -113.836 1211C-79.07 1237.69 -43.8557 1243.6 -8.82056 1250.32C33.0245 1258.82 74.2426 1267.6 120.209 1308.08C166.355 1348.91 170.477 1376.31 174.42 1400.85C176.212 1419.39 178.273 1436.85 212.86 1463.63C204.347 1464.79 195.297 1465.87 185.889 1466.13C138.757 1431.48 136.965 1411.06 134.456 1388.67C132.664 1369.51 130.603 1349.36 96.285 1320.35C61.9667 1291.33 27.4691 1283.36 -7.29724 1275.84C-50.9343 1267.87 -94.8403 1260.08 -142.241 1225.6C-189.193 1190.94 -190.269 1161.48 -191.254 1129.87C-191.971 1103.63 -192.688 1076.41 -226.737 1047.21C-260.966 1018.02 -296.449 1016.68 -332.112 1016.14C-376.018 1015.96 -419.924 1016.86 -464.367 979.423C-507.556 940.647 -506.391 900.797 -505.316 859.514C-504.42 825.484 -503.972 791.455 -534.617 758.768C-564.813 725.634 -595.727 725.455 -625.654 725.366C-662.213 725.366 -696.8 725.187 -731.745 678.53C-766.691 631.516 -769.469 586.919 -773.322 542.95C-777.264 507.756 -781.744 472.92 -810.597 438.443C-839.629 404.145 -863.463 402.354 -885.864 400.831C-912.835 399.04 -937.835 397.608 -972.332 350.414C-1006.92 303.131 -1019.37 259.788 -1032.01 217.162C-1043.48 182.684 -1054.86 149.371 -1083.89 115.342C-1081.56 107.998 -1079.32 100.566 -1076.81 92.9538H-1076.63ZM-1042.04 37.7006C-997.69 81.3122 -988.55 114.894 -978.246 150.446C-970.719 179.729 -961.58 211.43 -931.204 245.37C-900.828 279.131 -875.829 282.176 -848.858 286.922C-814.36 291.937 -777.891 297.668 -733.538 341.459C-689.363 385.25 -685.331 423.846 -681.119 463.428C-678.431 496.114 -675.564 530.502 -645.009 564.352C-614.543 598.113 -583.451 598.561 -551.462 599.904C-511.23 601.068 -469.833 601.785 -425.658 645.844C-381.483 689.724 -381.483 731.724 -381.483 774.171C-381.483 808.022 -381.484 841.693 -348.599 873.036C-315.625 904.289 -280.948 904.916 -246.809 905.274C-204.964 906.797 -164.194 908.409 -120.377 952.737C-76.6507 997.065 -73.425 1036.11 -70.5576 1073.54C-67.7799 1103.18 -65.8086 1131.12 -31.9384 1161.48C1.93201 1191.84 34.6376 1198.02 65.7301 1203.03C103.722 1210.29 139.653 1217 183.291 1261.42C227.017 1305.75 235.44 1339.33 242.519 1370.76C248.97 1395.66 253.092 1417.51 287.141 1447.87C279.525 1450.37 272.088 1452.7 264.74 1455.12C218.505 1415.18 213.487 1389.12 209.186 1361.72C203.272 1336.37 197.538 1310.58 164.563 1278.79C131.679 1246.64 101.661 1240.29 70.8375 1234.91C29.7092 1226.5 -11.2399 1218.7 -57.7443 1179.03C-103.89 1139.27 -106.31 1105.33 -108.012 1070.32C-110.521 1040.14 -112.582 1009.33 -145.287 977.184C-178.441 945.214 -211.863 943.692 -245.733 942.886C-289.012 941.543 -331.753 941.005 -376.824 899.812C-420.909 857.812 -420.909 816.529 -420.551 774.44C-420.372 740.142 -420.372 705.754 -452.808 673.247C-484.886 640.381 -517.95 639.934 -550.477 639.217C-589.365 638.59 -627.267 637.874 -666.962 591.934C-706.925 545.547 -710.599 502.651 -715.617 460.831C-718.753 428.413 -722.516 396.443 -754.326 363.399C-786.404 330.355 -814.719 326.862 -842.406 322.564C-873.499 319.34 -903.427 315.758 -943.032 269.639C-982.905 223.251 -994.464 183.043 -1007.01 143.55C-1015.25 114.715 -1023.76 85.9688 -1055.93 53.3721C-1051.99 47.6409 -1047.87 41.9096 -1041.95 37.8797L-1042.04 37.7006ZM-981.83 8.32779C-935.684 48.0886 -930.845 74.2376 -926.455 101.551C-920.541 126.894 -914.806 152.685 -881.922 184.654C-848.947 216.445 -818.751 222.803 -788.196 228.535C-747.247 236.952 -705.939 244.743 -659.614 284.415C-613.379 324.176 -611.138 357.936 -609.257 393.13C-606.748 423.219 -604.687 454.025 -571.892 486.084C-538.918 518.054 -505.406 519.577 -471.715 520.562C-428.436 521.905 -385.426 522.353 -340.624 563.725C-296.449 605.725 -296.539 646.829 -296.718 689.097C-296.718 723.306 -296.897 757.604 -264.64 790.201C-232.382 823.066 -199.229 823.514 -166.703 824.23C-127.815 824.678 -90.0913 825.395 -49.8591 871.334C-10.2542 917.901 -6.22205 960.349 -1.65222 1002.62C1.57361 1034.86 5.24731 1067 37.0568 1100.05C69.0454 1133.09 97.4498 1136.76 125.137 1141.06C156.409 1144.2 186.427 1147.69 225.852 1193.99C265.816 1240.38 277.285 1280.32 289.919 1319.81C297.984 1348.82 306.586 1377.39 338.664 1410.25C334.811 1415.9 330.689 1421.45 324.686 1425.75C280.332 1381.87 271.013 1348.37 260.708 1312.91C253.361 1283.63 244.221 1251.93 213.845 1217.99C183.38 1184.14 158.47 1181.18 131.32 1176.44C96.8226 1171.42 60.4434 1165.51 15.9998 1121.9C-28.1749 1078.11 -32.2072 1039.69 -36.329 999.572C-39.0171 966.886 -41.974 932.677 -72.4393 898.916C-103.084 865.155 -133.908 864.618 -166.165 863.364C-206.577 862.379 -247.794 861.484 -291.969 817.514C-336.144 773.634 -336.144 731.455 -336.502 689.187C-336.323 655.336 -336.233 621.576 -369.029 590.143C-402.182 558.89 -436.68 558.352 -470.819 557.726C-512.664 556.382 -553.434 554.591 -596.891 510.263C-640.797 465.935 -644.023 426.891 -646.801 389.279C-649.758 359.817 -651.819 331.966 -685.51 301.519C-719.559 271.161 -752.354 265.251 -783.178 259.967C-821.17 252.893 -857.012 246.087 -900.559 201.759C-944.286 157.431 -952.888 123.849 -959.967 92.4165C-966.418 67.3422 -970.719 45.5812 -1004.41 15.2232C-997.063 12.8949 -989.715 10.477 -982.009 8.14869L-981.83 8.32779ZM-903.337 -3.04523C-856.385 31.7007 -854.592 51.9393 -852.084 74.3272C-850.292 93.4912 -848.141 113.998 -813.823 143.013C-779.594 171.849 -745.007 179.729 -710.24 187.341C-666.962 195.49 -622.697 203.102 -575.476 237.758C-528.344 272.236 -527.448 301.877 -526.284 333.399C-525.567 359.638 -524.671 386.861 -490.621 416.234C-456.572 445.607 -420.909 446.413 -385.605 447.309C-341.699 447.309 -297.704 446.771 -253.171 484.114C-209.892 522.711 -211.326 562.651 -212.401 604.024C-213.118 637.874 -213.386 671.904 -182.921 704.679C-152.545 737.724 -121.811 738.082 -91.6146 737.992C-55.4146 737.813 -20.6482 738.172 14.5662 784.828C49.3325 831.932 52.2894 876.17 55.9631 920.409C59.8162 955.96 64.2068 990.527 92.9697 1025.18C122.091 1059.39 146.015 1061.18 168.506 1062.62C195.297 1064.23 220.476 1066.02 254.974 1113.12C289.74 1160.23 301.837 1203.39 314.65 1246.29C326.119 1280.76 337.499 1314.08 366.62 1348.11C364.111 1355.81 361.782 1363.33 359.542 1370.49C318.413 1324.82 305.779 1285.15 293.235 1243.96C282.751 1209.66 273.074 1175.09 246.282 1140.53C219.49 1105.78 198.523 1104.17 176.929 1102.56C147.628 1100.23 116.625 1096.91 75.7657 1050.97C35.3544 1004.68 30.5156 962.587 26.125 919.424C23.1681 883.782 20.6592 848.23 -6.13232 813.753C-33.3719 779.455 -61.7765 779.007 -90.9874 778.649C-128.89 778.38 -167.599 778.022 -209.444 732.978C-252.006 688.65 -251.558 646.471 -251.289 604.74C-250.662 571.695 -249.676 539.188 -281.933 509.995C-314.639 481.159 -350.481 481.696 -385.784 481.607C-428.974 480.622 -472.521 479.368 -517.95 438.443C-563.917 397.518 -565.53 362.235 -567.322 329.101C-568.308 303.758 -569.204 279.31 -603.881 252.445C-638.647 225.579 -674.04 219.579 -708.717 212.684C-750.741 204.266 -791.959 195.759 -837.926 155.102C-884.072 114.267 -888.284 87.0435 -891.957 61.9691C-894.018 43.7006 -895.9 26.3276 -930.218 -0.537796C-921.706 -1.52286 -913.104 -2.77658 -903.427 -3.04523H-903.337ZM-815.077 -4.83626C-768.035 24.3575 -768.393 40.1185 -767.497 58.1184C-766.781 73.8794 -765.885 90.2673 -731.118 115.431C-696.173 140.327 -660.152 147.849 -624.131 154.297C-579.239 161.102 -533.273 167.281 -485.783 196.117C-438.203 224.684 -438.472 250.743 -438.024 278.594C-437.755 302.146 -437.307 326.593 -402.809 352.116C-368.312 377.727 -332.201 377.279 -296.628 376.742C-252.275 374.951 -207.831 371.996 -164.642 405.22C-123.066 439.965 -125.754 478.473 -127.994 518.502C-129.786 551.636 -131.13 585.397 -103.263 617.367C-75.7546 649.874 -46.8126 649.337 -18.8561 648.889C14.7454 648.441 46.3756 647.993 76.3033 694.56C105.514 741.664 106.5 787.067 108.292 832.201C110.801 868.469 114.206 905.006 139.116 940.02C164.295 974.945 184.635 975.214 204.258 975.841C227.107 976.736 248.164 976.826 276.748 1024.47C305.779 1071.75 317.069 1117.15 329.076 1161.39C339.65 1197.3 351.208 1233.39 376.387 1268.23C376.118 1277.54 375.67 1286.76 374.416 1295.81C338.485 1248.79 324.506 1205 311.514 1160.85C301.747 1124.76 292.966 1088.77 270.117 1053.84C247.447 1018.92 229.705 1018.2 211.157 1017.75C186.875 1016.86 160.621 1015.87 124.779 968.677C89.1167 921.483 84.9949 876.708 81.59 831.932C79.7979 795.395 79.2603 759.037 56.1425 724.381C32.7557 690.082 6.77051 689.903 -20.021 690.351C-54.9666 690.53 -90.8978 690.978 -129.159 646.292C-168.764 602.859 -167.061 560.949 -165.359 520.472C-164.194 488.502 -162.581 457.249 -193.942 430.921C-225.931 405.309 -261.414 407.19 -296.897 408.712C-341.072 408.981 -385.426 408.981 -431.841 372.623C-478.704 336.534 -479.6 305.459 -479.6 276.266C-480.496 253.878 -480.765 232.117 -515.8 209.371C-550.835 186.714 -587.214 182.147 -623.056 176.326C-667.947 167.908 -712.033 159.222 -758.985 123.401C-806.027 87.4017 -807.909 65.9093 -808.626 46.4767C-809.342 31.6112 -810.239 17.9098 -845.005 -4.92581C-835.417 -5.10492 -825.292 -4.92581 -814.988 -4.74671L-815.077 -4.83626ZM-724.219 -3.31389C-677.266 19.9695 -677.535 32.6858 -677.266 47.1035C-677.087 59.7303 -676.997 73.3421 -642.231 94.3867C-607.196 114.983 -570.369 120.804 -533.631 125.461C-488.381 130.207 -442.414 133.431 -394.745 156.267C-347.344 179.013 -347.434 202.207 -347.344 226.744C-347.344 247.788 -347.076 269.639 -312.578 290.952C-278.26 312.623 -241.97 310.385 -206.218 307.788C-162.133 303.847 -118.317 298.474 -76.2923 326.952C-36.6874 357.757 -40.1819 394.563 -43.766 432.891C-46.8126 465.309 -49.5007 498.174 -24.5012 529.159C-0.0393066 560.681 26.6627 559.696 52.379 558.89C83.1133 557.815 112.145 557.009 136.338 603.218C159.725 650.232 158.022 696.082 157.574 741.395C158.291 778.111 159.814 815.186 180.423 850.469C201.301 885.484 218.684 885.484 235.53 885.484C254.795 885.752 272.805 885.663 295.475 933.214C318.593 980.498 327.463 1026.17 337.32 1071.39C346.459 1108.2 356.585 1144.91 377.552 1179.84C377.731 1189.6 377.821 1199.54 378 1209.48C347.355 1162.47 334.542 1116.97 323.162 1071.57C315.098 1034.77 308.019 998.229 289.471 963.304C271.371 928.11 256.228 928.11 240.727 928.11C219.67 928.11 197.448 927.841 167.251 880.379C137.324 832.738 134.994 787.156 134.098 741.575C134.277 704.769 135.621 667.874 116.715 633.396C97.45 599.098 73.9735 599.367 49.4221 600.083C16.9855 600.979 -16.4369 601.874 -50.3071 558.084C-86.0591 516.263 -83.0126 475.428 -79.8765 436.204C-77.6364 405.667 -75.0378 375.668 -105.055 352.384C-135.969 329.817 -171.541 333.847 -206.666 337.071C-251.289 339.757 -296.091 341.817 -342.506 310.653C-389.637 280.027 -389.637 252.445 -389.189 226.385C-389.637 206.505 -389.817 187.61 -424.673 169.252C-459.887 150.983 -496.714 148.207 -533.273 144.356C-579.239 138.177 -624.758 130.655 -672.159 100.566C-719.47 70.2078 -719.559 52.9244 -719.29 37.1633C-719.47 25.253 -719.47 14.3277 -754.326 -3.94075C-744.469 -3.76165 -734.434 -3.49299 -724.129 -3.31389H-724.219ZM-631.837 -0.985552C-585.153 16.3874 -585.601 26.1485 -585.601 37.6111C-585.87 47.4618 -586.049 58.6557 -551.104 75.3122C-516.158 91.7001 -479.062 95.0135 -442.056 97.8792C-396.537 99.6702 -350.391 100.208 -302.811 117.043C-255.231 133.7 -255.679 153.849 -255.679 175.699C-255.859 194.147 -255.679 213.4 -221.361 230.684C-187.312 247.967 -150.932 243.669 -115.18 239.102C-71.7225 232.654 -27.8165 224.863 12.6844 248.505C50.4077 275.37 45.3899 310.205 40.5513 347.369C35.9814 378.712 32.0389 410.593 54.0815 440.055C75.049 470.592 99.8691 469.338 123.614 468.174C151.571 466.831 178.093 465.846 196.552 511.786C213.935 558.8 209.365 604.203 206.229 649.695C204.616 686.68 203.989 723.485 220.207 758.768C236.605 793.962 251.748 793.962 265.905 793.783C282.213 793.962 297.267 793.962 313.754 841.514C330.958 888.797 337.051 934.2 344.398 979.423C351.477 1016.59 359.273 1053.39 376.029 1088.05C376.297 1098.53 376.656 1108.38 376.925 1118.41C352.194 1071.39 341.89 1025.72 333.198 979.781C327.194 943.065 322.177 906.439 308.019 871.603C294.22 836.589 281.765 836.409 268.504 836.409C250.583 836.857 231.497 836.678 207.394 788.947C183.559 741.306 183.649 695.724 185.262 649.963C187.771 612.979 191.265 576.263 176.839 541.696C161.786 507.845 140.46 508.293 117.88 509.189C88.3103 510.621 57.6656 511.875 28.2755 469.249C-3.71313 429.309 1.03589 389.996 5.42651 351.936C8.65234 322.743 12.326 294.176 -16.3473 273.937C-46.2749 254.952 -81.4893 260.863 -116.704 265.967C-160.789 271.161 -205.412 275.728 -251.468 250.206C-298.51 225.311 -298.51 200.863 -298.152 177.669C-298.331 160.296 -297.973 143.64 -333.187 129.939C-368.222 116.058 -405.408 115.342 -442.056 113.551C-488.023 110.327 -533.81 105.401 -581.3 81.3122C-628.701 56.8646 -628.611 42.7155 -627.984 29.9097C-627.984 20.5068 -627.536 12.2681 -662.302 -1.79151C-652.446 -1.52286 -642.41 -1.16466 -631.927 -1.0751L-631.837 -0.985552ZM-540.172 1.25323C-493.309 12.6263 -493.488 19.7008 -493.937 28.2082C-493.937 35.9992 -494.205 45.0439 -459.349 57.0437C-424.314 68.8645 -387.128 70.0287 -350.66 70.4765C-304.872 69.4914 -259.084 66.9839 -211.415 77.7301C-163.835 88.3867 -164.015 105.76 -164.104 124.476C-164.283 140.864 -164.104 157.789 -129.965 170.774C-96.274 183.848 -59.9844 177.401 -24.322 170.326C18.9568 161.461 61.9667 151.341 101.482 170.147C136.965 192.983 131.051 226.385 124.779 261.758C118.865 292.116 113.579 322.922 132.306 351.22C150.137 380.593 172.717 379.25 194.491 377.727C220.297 376.115 244.042 374.503 256.497 420.354C268.325 467.01 260.798 512.771 254.705 557.994C250.762 594.979 247.626 631.784 259.275 667.157C271.461 702.082 284.364 702.082 296.102 702.172C309.542 702.441 321.729 702.351 332.302 749.813C343.502 796.917 346.549 842.499 351.029 887.901C355.778 924.707 361.154 961.423 373.699 995.9C373.878 1006.2 374.147 1016.05 374.416 1026.08C355.599 979.065 348.162 933.662 342.427 888.349C338.753 851.544 335.976 814.828 326.209 780.082C316.89 744.888 306.765 744.888 295.833 745.067C280.78 745.246 264.561 744.888 246.372 697.336C228.54 649.605 231.766 603.934 236.515 558.531C241.175 521.547 246.999 484.741 236.784 450.353C225.852 416.772 206.856 417.309 186.696 418.384C159.277 420.175 131.141 421.607 106.589 380.503C78.7227 342.534 85.0845 304.295 91.2672 267.937C95.1201 240.266 99.7795 212.863 72.2711 195.848C43.6875 179.908 8.74194 188.057 -25.8452 195.132C-69.9304 202.923 -114.105 209.997 -159.893 190.386C-206.756 171.222 -206.756 149.729 -206.128 129.401C-206.397 114.357 -206.397 100.028 -241.522 90.6255C-276.736 81.3122 -313.653 83.1032 -350.122 83.551C-396.358 83.1032 -442.056 81.3122 -489.456 63.2228C-536.767 44.6857 -536.588 33.3126 -536.05 23.5515C-536.23 16.477 -535.871 10.2979 -570.548 0.536821C-560.691 0.805475 -550.656 1.16368 -540.351 1.25323H-540.172ZM-448.955 2.4174C-402.272 8.05914 -402.092 12.6263 -402.092 18.5366C-402.272 24.2679 -402.361 30.8947 -367.595 38.5962C-332.649 46.1185 -295.553 44.9543 -258.905 42.7155C-213.207 38.5962 -167.688 33.1335 -120.109 37.9693C-72.3497 42.5364 -72.3498 57.3124 -72.529 73.3421C-72.529 87.4912 -72.5289 102.178 -38.4794 110.595C-4.78833 119.551 31.3221 110.864 66.7158 101.73C109.547 90.2673 152.288 77.3719 190.459 91.7001C224.06 110.595 217.161 142.118 209.007 176.237C201.928 205.609 195.118 235.609 210.799 262.475C225.404 290.594 245.834 288.982 265.726 287.191C289.023 284.952 310.08 283.967 317.159 329.369C323.073 375.936 312.589 421.16 303.36 466.562C297.177 503.278 291.891 540.084 299.059 575.546C306.586 610.65 317.159 610.65 326.746 610.65C337.678 610.919 347.087 611.367 351.836 659.098C357.122 706.291 357.033 751.156 358.466 796.111C360.527 832.917 363.753 869.633 371.907 904.11C372.086 914.409 372.355 924.259 372.534 934.2C359.721 887.364 355.42 841.783 352.373 796.29C351.029 759.933 350.76 723.396 345.474 688.56C340.635 653.366 332.66 653.366 323.969 652.919C311.783 653.366 298.521 652.919 286.245 605.456C274.328 557.726 280.511 512.144 287.858 466.652C295.206 429.846 303.36 393.13 297.446 358.921C290.815 325.519 273.88 326.235 255.601 327.131C230.96 329.369 205.064 331.429 185.172 291.579C161.427 255.49 169.671 218.505 176.929 183.58C182.126 157.073 187.591 131.282 161.427 117.222C133.829 104.685 99.4213 114.715 64.7445 123.849C21.5553 134.147 -22.7987 143.998 -68.3176 130.028C-115.001 116.954 -114.732 98.0583 -114.553 80.8644C-114.553 67.8795 -114.732 55.9691 -149.768 50.7751C-184.982 45.9394 -221.988 50.1483 -258.457 53.1035C-304.245 55.6109 -350.212 56.6855 -397.702 44.5961C-444.833 32.0589 -444.565 23.5515 -444.117 16.477C-444.296 11.4621 -444.117 7.52183 -478.704 2.2383C-468.847 2.4174 -458.991 2.4174 -448.776 2.4174H-448.955Z"/>
</mask>
<path d="M-358.366 3.13381C-311.503 2.68605 -311.503 4.56663 -311.503 7.88003C-311.503 11.3725 -311.324 16.0292 -276.557 19.5217C-241.522 22.4769 -204.784 18.8949 -168.136 14.3277C-122.438 7.07407 -76.6508 -1.43331 -28.8918 -2.59748C18.8671 -3.76165 18.6879 8.14869 18.6879 21.7605C18.6879 33.5813 18.8673 46.0289 53.0063 50.1483C86.3391 54.9841 122.27 43.9692 157.305 32.7753C199.867 18.8053 242.34 3.13381 279.256 12.8949C311.066 27.6709 302.822 57.9393 293.414 90.8046C284.901 119.282 276.748 148.297 289.471 173.729C300.493 200.953 319.22 198.893 337.051 197.013C358.018 194.684 376.566 192.625 378 237.848C378 284.415 364.559 330.265 352.821 375.488C343.95 412.294 336.334 448.831 338.933 484.472C342.338 519.398 350.581 519.666 358.108 520.024C366.083 520.293 372.713 520.293 371.548 568.024C370.921 615.218 368.054 660.71 366.531 705.754C366.262 742.291 366.979 778.738 370.832 813.036C371.011 823.156 371.011 833.096 371.1 842.768C364.022 796.022 362.857 750.709 362.857 705.575C363.932 669.217 366.083 632.59 364.918 598.024C364.47 562.651 358.735 562.472 352.284 562.203C342.875 562.203 332.212 561.576 325.94 514.293C320.205 466.383 329.345 420.712 339.649 375.309C349.237 338.593 359.721 301.967 358.108 267.937C355.599 234.445 340.904 235.341 324.686 236.594C302.553 238.923 279.167 241.34 264.024 202.744C244.132 168.893 253.988 132.894 262.68 99.312C268.594 74.4167 275.224 49.7005 250.135 38.8648C223.612 29.5515 189.563 41.5514 155.065 53.0139C112.324 65.6407 68.4181 78.357 23.2577 69.9391C-23.2467 62.5959 -23.2468 46.3871 -23.2468 31.9694C-23.426 21.2232 -23.5156 11.3725 -58.73 10.9248C-94.1235 10.2979 -130.771 16.8352 -167.33 22.1187C-213.028 27.7604 -258.636 31.9694 -306.127 25.7903C-353.258 19.1635 -353.437 13.1636 -352.989 8.50689C-353.258 5.82035 -353.437 4.11888 -388.025 3.04426C-378.347 3.04426 -368.133 3.22336 -358.097 3.04426L-358.366 3.13381ZM-1087.47 620.232C-1080.66 666.889 -1079.5 712.291 -1079.41 757.515C-1080.75 793.872 -1082.55 830.32 -1081.65 865.245C-1081.02 900.349 -1075.47 900.439 -1069.01 900.886C-1059.7 900.886 -1048.85 901.155 -1042.76 948.796C-1036.85 996.527 -1046.17 1042.2 -1056.29 1087.6C-1065.61 1123.96 -1076.18 1160.85 -1074.57 1194.88C-1072.24 1228.47 -1057.46 1227.57 -1041.24 1226.41C-1019.28 1224.17 -995.719 1221.57 -980.576 1260.17C-960.952 1294.38 -970.898 1330.29 -979.68 1364.05C-985.683 1389.12 -992.224 1413.66 -967.314 1424.58C-940.792 1433.72 -906.473 1421.63 -872.155 1410.43C-829.593 1397.63 -785.777 1385.09 -740.258 1393.15C-693.574 1400.4 -693.753 1416.7 -693.843 1431.3C-693.664 1442.05 -693.664 1451.81 -658.449 1452.34C-623.235 1452.97 -586.229 1446.43 -549.581 1440.88C-503.883 1435.42 -458.364 1431.3 -410.784 1437.21C-363.652 1444.02 -363.831 1450.19 -363.652 1454.31C-363.652 1457.27 -363.832 1458.88 -329.155 1460.05C-338.832 1460.05 -348.778 1459.87 -358.276 1459.87C-405.408 1460.31 -405.856 1458.52 -405.766 1455.12C-405.587 1451.45 -405.766 1447.15 -440.533 1443.66C-475.747 1440.52 -512.305 1444.11 -549.222 1448.85C-594.741 1456.11 -639.991 1464.43 -687.84 1465.69C-735.419 1466.85 -736.046 1455.03 -735.867 1441.69C-735.867 1429.87 -735.867 1417.24 -769.917 1412.94C-803.339 1408.37 -839.181 1419.12 -874.485 1430.58C-917.046 1444.55 -958.892 1459.78 -995.988 1450.19C-1027.71 1435.33 -1019.55 1405.06 -1010.23 1372.37C-1001.54 1343.81 -993.479 1314.88 -1006.11 1289.27C-1017.13 1262.05 -1035.86 1263.93 -1053.42 1265.81C-1074.48 1268.32 -1092.94 1269.93 -1094.19 1224.7C-1094.19 1178.14 -1080.75 1132.65 -1069.1 1087.51C-1060.41 1050.71 -1052.62 1013.99 -1055.57 978.617C-1058.71 943.423 -1067.04 943.244 -1074.39 943.065C-1082.37 942.617 -1089 942.17 -1087.83 894.797C-1087.2 847.514 -1084.34 802.38 -1082.81 757.604C-1082.63 720.799 -1083.44 684.53 -1086.94 649.874C-1087.11 640.023 -1087.2 630.173 -1087.2 620.143L-1087.47 620.232ZM-1089.09 529.159C-1076.27 575.904 -1071.88 621.397 -1068.66 666.889C-1067.76 703.426 -1067.49 739.694 -1062.29 774.619C-1057.28 809.544 -1049.21 809.813 -1040.52 810.26C-1028.6 809.992 -1015.07 809.992 -1003.07 857.723C-991.149 905.364 -997.152 950.946 -1004.59 996.527C-1011.67 1032.89 -1019.91 1069.78 -1014 1103.99C-1007.55 1137.57 -990.611 1136.85 -972.332 1135.96C-947.87 1133.72 -921.975 1131.66 -902.172 1171.51C-878.427 1207.6 -886.671 1244.76 -894.108 1279.96C-899.395 1306.38 -904.681 1331.99 -878.606 1345.96C-851.008 1358.49 -816.78 1348.64 -781.834 1339.33C-738.824 1329.03 -694.918 1319.27 -648.951 1332.97C-602.447 1346.05 -602.716 1364.94 -602.716 1382.31C-602.716 1395.3 -602.716 1407.39 -567.501 1412.22C-532.287 1417.24 -495.639 1413.12 -458.812 1409.9C-413.114 1407.39 -367.326 1406.4 -319.926 1418.4C-272.615 1430.94 -273.063 1439.63 -273.242 1446.52C-273.421 1451.54 -273.421 1455.48 -238.655 1460.94C-248.78 1460.76 -258.726 1460.67 -268.403 1460.67C-315.445 1455.21 -315.535 1450.82 -315.535 1444.73C-315.266 1438.73 -315.266 1432.19 -350.032 1424.4C-385.247 1417.06 -421.895 1418.05 -458.722 1420.46C-504.062 1424.58 -549.581 1430.05 -597.339 1425.48C-644.919 1420.64 -645.188 1406.14 -645.188 1390.11C-645.009 1375.96 -644.919 1361.09 -679.058 1352.49C-712.66 1343.63 -748.77 1352.31 -784.074 1361.45C-827.084 1373.27 -869.377 1385.81 -907.638 1371.57C-941.24 1352.67 -934.34 1321.06 -926.365 1286.67C-919.107 1257.39 -912.208 1227.48 -927.978 1200.44C-942.225 1172.32 -962.745 1173.75 -982.637 1175.54C-1006.02 1177.78 -1026.99 1178.94 -1033.71 1133.54C-1039.62 1086.97 -1029.14 1041.48 -1020.27 996.259C-1013.91 959.722 -1008.62 922.916 -1015.97 887.633C-1023.14 852.26 -1033.8 852.439 -1043.66 852.26C-1054.23 851.991 -1063.73 851.633 -1068.39 804.081C-1073.67 756.977 -1073.58 711.664 -1075.02 666.71C-1077.08 630.173 -1080.48 593.456 -1088.28 558.979C-1088.55 549.218 -1088.73 538.83 -1089 528.89L-1089.09 529.159ZM-1091.15 437.1C-1072.6 484.114 -1065.25 529.785 -1059.34 575.188C-1055.84 611.904 -1052.89 648.531 -1043.3 683.456C-1033.89 718.381 -1023.85 718.381 -1012.92 718.381C-997.869 718.381 -981.651 718.381 -963.551 766.022C-945.63 813.753 -948.677 859.245 -953.426 904.916C-958.175 941.453 -963.909 978.438 -953.695 1012.74C-942.942 1046.5 -923.946 1045.78 -903.785 1044.97C-876.725 1043.18 -848.41 1041.57 -823.769 1082.68C-796.081 1120.65 -802.443 1158.88 -808.626 1195.51C-812.747 1223.18 -817.317 1250.32 -789.898 1267.42C-761.315 1283.36 -726.548 1275.39 -691.513 1268.14C-647.876 1260.52 -603.701 1253.27 -557.466 1272.7C-510.782 1291.87 -510.782 1313.54 -511.23 1333.69C-511.409 1349 -511.409 1362.97 -476.284 1372.46C-441.249 1381.87 -404.064 1380.26 -367.236 1379.54C-321.449 1379.99 -275.482 1381.87 -227.992 1399.87C-180.86 1418.4 -180.95 1429.78 -181.308 1439.54C-181.487 1446.79 -181.756 1452.61 -147.259 1462.55C-157.115 1462.28 -167.151 1462.1 -177.007 1461.84C-224.139 1450.64 -224.139 1443.57 -223.691 1434.88C-223.422 1427.09 -223.243 1418.22 -258.188 1406.14C-293.224 1394.23 -329.961 1392.88 -367.057 1392.7C-412.845 1393.69 -458.274 1396.11 -505.943 1385.45C-553.254 1374.7 -553.702 1357.42 -553.344 1338.61C-553.165 1322.58 -553.075 1305.3 -587.393 1292.49C-621.264 1279.51 -657.374 1285.87 -693.036 1292.94C-736.494 1301.81 -779.056 1311.93 -818.661 1293.21C-854.144 1270.38 -848.589 1237.06 -841.958 1201.42C-836.044 1170.88 -830.579 1140.17 -849.485 1111.87C-867.047 1082.59 -889.717 1083.84 -911.312 1085.36C-937.207 1087.15 -960.863 1088.5 -973.318 1042.83C-984.966 996.08 -977.44 950.319 -971.436 905.095C-967.583 868.29 -964.626 831.395 -976.454 796.201C-988.282 761.007 -1001.18 761.097 -1013.01 761.097C-1026.54 760.918 -1038.46 760.918 -1049.21 713.634C-1060.41 666.53 -1063.37 620.77 -1067.94 575.546C-1072.51 538.562 -1078.24 501.845 -1090.34 467.279C-1090.61 457.249 -1090.79 447.398 -1091.06 437.1H-1091.15ZM-1093.66 345.041C-1069.01 391.876 -1059.07 437.548 -1049.93 483.577C-1044.02 520.293 -1039 556.92 -1025.02 591.845C-1011.22 626.77 -998.676 626.77 -985.414 627.038C-967.852 626.411 -948.587 626.591 -924.394 674.321C-900.559 721.873 -900.828 767.455 -902.441 813.574C-904.681 849.932 -908.176 886.827 -893.749 921.304C-878.875 955.334 -857.549 954.886 -835.148 954.349C-805.579 952.558 -774.755 951.393 -745.544 994.02C-713.735 1033.96 -718.305 1073.27 -722.875 1111.6C-726.1 1140.62 -729.953 1169.18 -701.101 1189.42C-671.352 1208.59 -636.317 1202.67 -600.744 1197.57C-556.838 1192.29 -512.484 1187.72 -465.98 1213.06C-419.117 1237.78 -419.117 1262.58 -419.117 1285.6C-419.565 1303.15 -419.565 1319.63 -384.53 1333.51C-349.495 1347.39 -312.488 1348.11 -275.392 1349.72C-229.605 1353.12 -183.907 1357.78 -136.506 1381.96C-89.1953 1406.4 -89.1953 1420.73 -89.3745 1433.27C-89.8225 1442.67 -90.0913 1450.82 -55.325 1465.06C-65.4502 1464.79 -75.4859 1464.61 -85.5215 1464.34C-132.474 1446.97 -132.384 1437.12 -132.026 1425.84C-131.847 1415.54 -131.578 1404.79 -166.344 1387.96C-201.379 1371.57 -238.565 1367.9 -275.482 1365.39C-321.001 1363.51 -366.788 1363.06 -414.547 1346.4C-461.948 1329.66 -461.858 1309.42 -461.948 1287.93C-461.679 1269.21 -461.321 1249.78 -495.818 1232.94C-530.047 1215.57 -566.426 1219.51 -602.357 1224.53C-645.994 1230.88 -689.273 1238.67 -730.222 1215.12C-767.587 1188.35 -762.748 1153.06 -757.91 1116.08C-753.519 1084.74 -749.218 1053.03 -771.171 1023.39C-792.228 993.035 -816.869 993.751 -840.614 995.005C-868.84 996.438 -895.094 997.333 -913.373 951.573C-930.935 904.737 -926.186 858.887 -923.229 813.484C-921.795 776.768 -920.899 739.963 -937.207 704.769C-953.605 669.665 -968.748 669.575 -982.995 669.575C-999.213 669.575 -1014.09 669.575 -1030.75 622.113C-1047.96 574.83 -1053.87 529.248 -1061.4 483.756C-1068.21 446.95 -1076.27 410.413 -1092.94 375.757C-1093.21 365.727 -1093.39 355.25 -1093.66 345.22V345.041ZM-1094.82 254.146C-1064.36 300.982 -1051.63 346.563 -1040.34 391.876C-1032.28 428.413 -1025.02 465.129 -1006.65 500.144C-988.371 535.069 -973.497 535.069 -957.727 535.338C-936.939 535.338 -914.717 535.606 -884.52 583.069C-854.592 630.71 -852.263 676.202 -851.277 721.694C-851.456 758.231 -852.621 795.037 -833.894 829.962C-814.719 864.17 -791.332 863.543 -766.691 863.275C-734.434 862.29 -701.101 861.215 -667.231 905.095C-631.299 946.916 -634.525 987.483 -637.661 1027.06C-639.991 1057.6 -642.321 1087.51 -612.214 1110.79C-581.3 1133.18 -546.176 1129.33 -510.692 1126.11C-466.338 1123.33 -421.805 1121.36 -375.122 1152.35C-327.99 1182.88 -327.811 1210.29 -328.08 1236.44C-327.9 1256.5 -327.811 1275.48 -292.596 1293.75C-257.561 1312.02 -221.003 1314.97 -184.265 1318.82C-138.477 1324.73 -93.0483 1332.26 -45.6478 1362.26C1.66309 1392.61 1.75269 1409.99 1.75269 1425.66C2.02161 1437.57 2.02161 1448.49 37.1464 1466.94C26.8419 1466.76 16.8063 1466.67 6.94983 1466.31C-40.1819 1443.21 -40.1819 1430.4 -40.3611 1415.81C-40.1819 1403.27 -40.5403 1389.75 -75.3963 1368.7C-110.611 1348.11 -146.811 1342.2 -183.996 1337.45C-229.336 1332.97 -275.034 1329.66 -322.614 1306.82C-370.014 1284.17 -370.193 1260.97 -370.373 1236.26C-370.104 1215.3 -370.373 1193.54 -404.87 1172.32C-439.188 1150.65 -475.478 1153.06 -511.678 1155.66C-555.584 1159.51 -599.042 1164.79 -641.335 1136.68C-680.85 1105.69 -677.266 1068.71 -673.861 1030.29C-670.636 998.139 -667.947 965.184 -693.036 934.379C-717.319 902.857 -743.842 903.752 -769.827 904.289C-800.741 905.185 -829.683 906.17 -853.517 859.961C-876.904 812.947 -875.201 766.828 -874.753 721.784C-875.47 685.247 -877.083 648.441 -897.782 613.068C-918.57 577.964 -936.222 578.143 -952.888 577.875C-972.332 577.427 -989.984 577.606 -1012.83 530.323C-1035.95 483.04 -1044.82 436.921 -1054.68 392.145C-1063.82 355.429 -1073.67 318.623 -1094.55 283.967C-1094.73 274.116 -1094.82 264.266 -1095 254.236L-1094.82 254.146ZM-1091.33 167.819C-1055.4 214.565 -1041.51 258.176 -1028.25 302.594C-1018.66 338.414 -1009.7 374.682 -987.027 409.608C-964.447 444.533 -946.616 444.98 -927.978 445.697C-903.964 446.145 -877.71 447.488 -841.958 494.592C-806.296 541.696 -802.174 586.382 -798.68 631.337C-797.067 667.605 -795.991 704.142 -773.142 739.067C-749.845 773.365 -724.129 773.276 -697.158 773.097C-662.571 772.649 -626.282 772.201 -588.11 817.156C-548.505 860.499 -550.208 902.319 -551.91 942.976C-553.254 974.766 -554.688 1006.02 -523.327 1032.44C-491.338 1058.23 -456.124 1055.99 -420.372 1054.65C-376.286 1054.2 -332.022 1054.2 -285.249 1090.47C-238.386 1126.73 -237.848 1157.63 -237.669 1187C-237.221 1209.57 -236.504 1231.24 -201.559 1253.9C-166.523 1276.55 -130.503 1281.3 -94.1235 1286.76C-49.5007 1295.18 -5.32593 1304.14 41.8058 1339.78C88.8478 1375.6 90.2816 1397.27 91.1776 1416.52C92.0736 1431.39 92.9697 1445.27 127.826 1467.93C117.7 1468.1 107.486 1467.93 97.8083 1467.75C50.4078 1438.73 50.4077 1422.7 49.9597 1404.88C49.0637 1389.3 48.4365 1373.09 13.8494 1347.75C-21.1858 1322.85 -57.4755 1315.15 -93.4067 1308.88C-138.657 1301.99 -184.176 1295.9 -231.755 1267.15C-279.066 1238.32 -279.156 1212.35 -279.156 1184.5C-279.783 1160.94 -279.783 1136.59 -314.191 1111.15C-348.778 1085.81 -385.068 1085.81 -420.551 1086.53C-465.353 1088.32 -509.259 1091.09 -552.717 1058.23C-594.114 1023.3 -591.605 984.706 -589.365 945.035C-587.483 911.633 -586.139 878.319 -614.006 846.171C-641.514 813.574 -670.277 813.753 -698.144 814.38C-731.835 814.648 -763.734 815.096 -793.124 768.529C-822.335 721.336 -823.231 675.665 -825.202 631.158C-827.891 594.8 -831.206 558.621 -856.116 523.606C-881.115 488.681 -901.635 488.055 -920.899 487.517C-943.838 486.443 -964.805 486.353 -993.568 439.07C-1022.42 391.608 -1033.8 346.295 -1045.54 302.056C-1056.29 265.967 -1067.76 230.326 -1092.94 195.848C-1092.67 186.445 -1092.22 176.684 -1091.15 167.819H-1091.33ZM-1076.63 92.9538C-1035.86 138.625 -1023.14 178.117 -1010.5 219.4C-1000.02 253.699 -990.343 288.265 -963.641 323.011C-936.849 357.31 -915.613 359.101 -894.108 360.892C-864.897 363.22 -833.984 366.533 -793.214 412.652C-752.713 458.771 -747.874 500.95 -743.573 544.203C-740.168 579.397 -737.839 614.949 -711.047 649.695C-683.807 683.903 -655.492 684.351 -626.192 684.62C-588.648 684.888 -549.76 685.336 -508.004 730.47C-465.442 774.798 -465.98 816.977 -466.428 858.797C-467.055 891.663 -467.772 924.17 -435.515 953.543C-402.63 982.109 -367.326 981.662 -331.843 981.841C-288.564 982.736 -245.196 983.901 -199.408 1025C-153.441 1065.84 -151.828 1100.85 -150.216 1133.99C-149.499 1159.51 -148.423 1184.05 -113.836 1211C-79.07 1237.69 -43.8557 1243.6 -8.82056 1250.32C33.0245 1258.82 74.2426 1267.6 120.209 1308.08C166.355 1348.91 170.477 1376.31 174.42 1400.85C176.212 1419.39 178.273 1436.85 212.86 1463.63C204.347 1464.79 195.297 1465.87 185.889 1466.13C138.757 1431.48 136.965 1411.06 134.456 1388.67C132.664 1369.51 130.603 1349.36 96.285 1320.35C61.9667 1291.33 27.4691 1283.36 -7.29724 1275.84C-50.9343 1267.87 -94.8403 1260.08 -142.241 1225.6C-189.193 1190.94 -190.269 1161.48 -191.254 1129.87C-191.971 1103.63 -192.688 1076.41 -226.737 1047.21C-260.966 1018.02 -296.449 1016.68 -332.112 1016.14C-376.018 1015.96 -419.924 1016.86 -464.367 979.423C-507.556 940.647 -506.391 900.797 -505.316 859.514C-504.42 825.484 -503.972 791.455 -534.617 758.768C-564.813 725.634 -595.727 725.455 -625.654 725.366C-662.213 725.366 -696.8 725.187 -731.745 678.53C-766.691 631.516 -769.469 586.919 -773.322 542.95C-777.264 507.756 -781.744 472.92 -810.597 438.443C-839.629 404.145 -863.463 402.354 -885.864 400.831C-912.835 399.04 -937.835 397.608 -972.332 350.414C-1006.92 303.131 -1019.37 259.788 -1032.01 217.162C-1043.48 182.684 -1054.86 149.371 -1083.89 115.342C-1081.56 107.998 -1079.32 100.566 -1076.81 92.9538H-1076.63ZM-1042.04 37.7006C-997.69 81.3122 -988.55 114.894 -978.246 150.446C-970.719 179.729 -961.58 211.43 -931.204 245.37C-900.828 279.131 -875.829 282.176 -848.858 286.922C-814.36 291.937 -777.891 297.668 -733.538 341.459C-689.363 385.25 -685.331 423.846 -681.119 463.428C-678.431 496.114 -675.564 530.502 -645.009 564.352C-614.543 598.113 -583.451 598.561 -551.462 599.904C-511.23 601.068 -469.833 601.785 -425.658 645.844C-381.483 689.724 -381.483 731.724 -381.483 774.171C-381.483 808.022 -381.484 841.693 -348.599 873.036C-315.625 904.289 -280.948 904.916 -246.809 905.274C-204.964 906.797 -164.194 908.409 -120.377 952.737C-76.6507 997.065 -73.425 1036.11 -70.5576 1073.54C-67.7799 1103.18 -65.8086 1131.12 -31.9384 1161.48C1.93201 1191.84 34.6376 1198.02 65.7301 1203.03C103.722 1210.29 139.653 1217 183.291 1261.42C227.017 1305.75 235.44 1339.33 242.519 1370.76C248.97 1395.66 253.092 1417.51 287.141 1447.87C279.525 1450.37 272.088 1452.7 264.74 1455.12C218.505 1415.18 213.487 1389.12 209.186 1361.72C203.272 1336.37 197.538 1310.58 164.563 1278.79C131.679 1246.64 101.661 1240.29 70.8375 1234.91C29.7092 1226.5 -11.2399 1218.7 -57.7443 1179.03C-103.89 1139.27 -106.31 1105.33 -108.012 1070.32C-110.521 1040.14 -112.582 1009.33 -145.287 977.184C-178.441 945.214 -211.863 943.692 -245.733 942.886C-289.012 941.543 -331.753 941.005 -376.824 899.812C-420.909 857.812 -420.909 816.529 -420.551 774.44C-420.372 740.142 -420.372 705.754 -452.808 673.247C-484.886 640.381 -517.95 639.934 -550.477 639.217C-589.365 638.59 -627.267 637.874 -666.962 591.934C-706.925 545.547 -710.599 502.651 -715.617 460.831C-718.753 428.413 -722.516 396.443 -754.326 363.399C-786.404 330.355 -814.719 326.862 -842.406 322.564C-873.499 319.34 -903.427 315.758 -943.032 269.639C-982.905 223.251 -994.464 183.043 -1007.01 143.55C-1015.25 114.715 -1023.76 85.9688 -1055.93 53.3721C-1051.99 47.6409 -1047.87 41.9096 -1041.95 37.8797L-1042.04 37.7006ZM-981.83 8.32779C-935.684 48.0886 -930.845 74.2376 -926.455 101.551C-920.541 126.894 -914.806 152.685 -881.922 184.654C-848.947 216.445 -818.751 222.803 -788.196 228.535C-747.247 236.952 -705.939 244.743 -659.614 284.415C-613.379 324.176 -611.138 357.936 -609.257 393.13C-606.748 423.219 -604.687 454.025 -571.892 486.084C-538.918 518.054 -505.406 519.577 -471.715 520.562C-428.436 521.905 -385.426 522.353 -340.624 563.725C-296.449 605.725 -296.539 646.829 -296.718 689.097C-296.718 723.306 -296.897 757.604 -264.64 790.201C-232.382 823.066 -199.229 823.514 -166.703 824.23C-127.815 824.678 -90.0913 825.395 -49.8591 871.334C-10.2542 917.901 -6.22205 960.349 -1.65222 1002.62C1.57361 1034.86 5.24731 1067 37.0568 1100.05C69.0454 1133.09 97.4498 1136.76 125.137 1141.06C156.409 1144.2 186.427 1147.69 225.852 1193.99C265.816 1240.38 277.285 1280.32 289.919 1319.81C297.984 1348.82 306.586 1377.39 338.664 1410.25C334.811 1415.9 330.689 1421.45 324.686 1425.75C280.332 1381.87 271.013 1348.37 260.708 1312.91C253.361 1283.63 244.221 1251.93 213.845 1217.99C183.38 1184.14 158.47 1181.18 131.32 1176.44C96.8226 1171.42 60.4434 1165.51 15.9998 1121.9C-28.1749 1078.11 -32.2072 1039.69 -36.329 999.572C-39.0171 966.886 -41.974 932.677 -72.4393 898.916C-103.084 865.155 -133.908 864.618 -166.165 863.364C-206.577 862.379 -247.794 861.484 -291.969 817.514C-336.144 773.634 -336.144 731.455 -336.502 689.187C-336.323 655.336 -336.233 621.576 -369.029 590.143C-402.182 558.89 -436.68 558.352 -470.819 557.726C-512.664 556.382 -553.434 554.591 -596.891 510.263C-640.797 465.935 -644.023 426.891 -646.801 389.279C-649.758 359.817 -651.819 331.966 -685.51 301.519C-719.559 271.161 -752.354 265.251 -783.178 259.967C-821.17 252.893 -857.012 246.087 -900.559 201.759C-944.286 157.431 -952.888 123.849 -959.967 92.4165C-966.418 67.3422 -970.719 45.5812 -1004.41 15.2232C-997.063 12.8949 -989.715 10.477 -982.009 8.14869L-981.83 8.32779ZM-903.337 -3.04523C-856.385 31.7007 -854.592 51.9393 -852.084 74.3272C-850.292 93.4912 -848.141 113.998 -813.823 143.013C-779.594 171.849 -745.007 179.729 -710.24 187.341C-666.962 195.49 -622.697 203.102 -575.476 237.758C-528.344 272.236 -527.448 301.877 -526.284 333.399C-525.567 359.638 -524.671 386.861 -490.621 416.234C-456.572 445.607 -420.909 446.413 -385.605 447.309C-341.699 447.309 -297.704 446.771 -253.171 484.114C-209.892 522.711 -211.326 562.651 -212.401 604.024C-213.118 637.874 -213.386 671.904 -182.921 704.679C-152.545 737.724 -121.811 738.082 -91.6146 737.992C-55.4146 737.813 -20.6482 738.172 14.5662 784.828C49.3325 831.932 52.2894 876.17 55.9631 920.409C59.8162 955.96 64.2068 990.527 92.9697 1025.18C122.091 1059.39 146.015 1061.18 168.506 1062.62C195.297 1064.23 220.476 1066.02 254.974 1113.12C289.74 1160.23 301.837 1203.39 314.65 1246.29C326.119 1280.76 337.499 1314.08 366.62 1348.11C364.111 1355.81 361.782 1363.33 359.542 1370.49C318.413 1324.82 305.779 1285.15 293.235 1243.96C282.751 1209.66 273.074 1175.09 246.282 1140.53C219.49 1105.78 198.523 1104.17 176.929 1102.56C147.628 1100.23 116.625 1096.91 75.7657 1050.97C35.3544 1004.68 30.5156 962.587 26.125 919.424C23.1681 883.782 20.6592 848.23 -6.13232 813.753C-33.3719 779.455 -61.7765 779.007 -90.9874 778.649C-128.89 778.38 -167.599 778.022 -209.444 732.978C-252.006 688.65 -251.558 646.471 -251.289 604.74C-250.662 571.695 -249.676 539.188 -281.933 509.995C-314.639 481.159 -350.481 481.696 -385.784 481.607C-428.974 480.622 -472.521 479.368 -517.95 438.443C-563.917 397.518 -565.53 362.235 -567.322 329.101C-568.308 303.758 -569.204 279.31 -603.881 252.445C-638.647 225.579 -674.04 219.579 -708.717 212.684C-750.741 204.266 -791.959 195.759 -837.926 155.102C-884.072 114.267 -888.284 87.0435 -891.957 61.9691C-894.018 43.7006 -895.9 26.3276 -930.218 -0.537796C-921.706 -1.52286 -913.104 -2.77658 -903.427 -3.04523H-903.337ZM-815.077 -4.83626C-768.035 24.3575 -768.393 40.1185 -767.497 58.1184C-766.781 73.8794 -765.885 90.2673 -731.118 115.431C-696.173 140.327 -660.152 147.849 -624.131 154.297C-579.239 161.102 -533.273 167.281 -485.783 196.117C-438.203 224.684 -438.472 250.743 -438.024 278.594C-437.755 302.146 -437.307 326.593 -402.809 352.116C-368.312 377.727 -332.201 377.279 -296.628 376.742C-252.275 374.951 -207.831 371.996 -164.642 405.22C-123.066 439.965 -125.754 478.473 -127.994 518.502C-129.786 551.636 -131.13 585.397 -103.263 617.367C-75.7546 649.874 -46.8126 649.337 -18.8561 648.889C14.7454 648.441 46.3756 647.993 76.3033 694.56C105.514 741.664 106.5 787.067 108.292 832.201C110.801 868.469 114.206 905.006 139.116 940.02C164.295 974.945 184.635 975.214 204.258 975.841C227.107 976.736 248.164 976.826 276.748 1024.47C305.779 1071.75 317.069 1117.15 329.076 1161.39C339.65 1197.3 351.208 1233.39 376.387 1268.23C376.118 1277.54 375.67 1286.76 374.416 1295.81C338.485 1248.79 324.506 1205 311.514 1160.85C301.747 1124.76 292.966 1088.77 270.117 1053.84C247.447 1018.92 229.705 1018.2 211.157 1017.75C186.875 1016.86 160.621 1015.87 124.779 968.677C89.1167 921.483 84.9949 876.708 81.59 831.932C79.7979 795.395 79.2603 759.037 56.1425 724.381C32.7557 690.082 6.77051 689.903 -20.021 690.351C-54.9666 690.53 -90.8978 690.978 -129.159 646.292C-168.764 602.859 -167.061 560.949 -165.359 520.472C-164.194 488.502 -162.581 457.249 -193.942 430.921C-225.931 405.309 -261.414 407.19 -296.897 408.712C-341.072 408.981 -385.426 408.981 -431.841 372.623C-478.704 336.534 -479.6 305.459 -479.6 276.266C-480.496 253.878 -480.765 232.117 -515.8 209.371C-550.835 186.714 -587.214 182.147 -623.056 176.326C-667.947 167.908 -712.033 159.222 -758.985 123.401C-806.027 87.4017 -807.909 65.9093 -808.626 46.4767C-809.342 31.6112 -810.239 17.9098 -845.005 -4.92581C-835.417 -5.10492 -825.292 -4.92581 -814.988 -4.74671L-815.077 -4.83626ZM-724.219 -3.31389C-677.266 19.9695 -677.535 32.6858 -677.266 47.1035C-677.087 59.7303 -676.997 73.3421 -642.231 94.3867C-607.196 114.983 -570.369 120.804 -533.631 125.461C-488.381 130.207 -442.414 133.431 -394.745 156.267C-347.344 179.013 -347.434 202.207 -347.344 226.744C-347.344 247.788 -347.076 269.639 -312.578 290.952C-278.26 312.623 -241.97 310.385 -206.218 307.788C-162.133 303.847 -118.317 298.474 -76.2923 326.952C-36.6874 357.757 -40.1819 394.563 -43.766 432.891C-46.8126 465.309 -49.5007 498.174 -24.5012 529.159C-0.0393066 560.681 26.6627 559.696 52.379 558.89C83.1133 557.815 112.145 557.009 136.338 603.218C159.725 650.232 158.022 696.082 157.574 741.395C158.291 778.111 159.814 815.186 180.423 850.469C201.301 885.484 218.684 885.484 235.53 885.484C254.795 885.752 272.805 885.663 295.475 933.214C318.593 980.498 327.463 1026.17 337.32 1071.39C346.459 1108.2 356.585 1144.91 377.552 1179.84C377.731 1189.6 377.821 1199.54 378 1209.48C347.355 1162.47 334.542 1116.97 323.162 1071.57C315.098 1034.77 308.019 998.229 289.471 963.304C271.371 928.11 256.228 928.11 240.727 928.11C219.67 928.11 197.448 927.841 167.251 880.379C137.324 832.738 134.994 787.156 134.098 741.575C134.277 704.769 135.621 667.874 116.715 633.396C97.45 599.098 73.9735 599.367 49.4221 600.083C16.9855 600.979 -16.4369 601.874 -50.3071 558.084C-86.0591 516.263 -83.0126 475.428 -79.8765 436.204C-77.6364 405.667 -75.0378 375.668 -105.055 352.384C-135.969 329.817 -171.541 333.847 -206.666 337.071C-251.289 339.757 -296.091 341.817 -342.506 310.653C-389.637 280.027 -389.637 252.445 -389.189 226.385C-389.637 206.505 -389.817 187.61 -424.673 169.252C-459.887 150.983 -496.714 148.207 -533.273 144.356C-579.239 138.177 -624.758 130.655 -672.159 100.566C-719.47 70.2078 -719.559 52.9244 -719.29 37.1633C-719.47 25.253 -719.47 14.3277 -754.326 -3.94075C-744.469 -3.76165 -734.434 -3.49299 -724.129 -3.31389H-724.219ZM-631.837 -0.985552C-585.153 16.3874 -585.601 26.1485 -585.601 37.6111C-585.87 47.4618 -586.049 58.6557 -551.104 75.3122C-516.158 91.7001 -479.062 95.0135 -442.056 97.8792C-396.537 99.6702 -350.391 100.208 -302.811 117.043C-255.231 133.7 -255.679 153.849 -255.679 175.699C-255.859 194.147 -255.679 213.4 -221.361 230.684C-187.312 247.967 -150.932 243.669 -115.18 239.102C-71.7225 232.654 -27.8165 224.863 12.6844 248.505C50.4077 275.37 45.3899 310.205 40.5513 347.369C35.9814 378.712 32.0389 410.593 54.0815 440.055C75.049 470.592 99.8691 469.338 123.614 468.174C151.571 466.831 178.093 465.846 196.552 511.786C213.935 558.8 209.365 604.203 206.229 649.695C204.616 686.68 203.989 723.485 220.207 758.768C236.605 793.962 251.748 793.962 265.905 793.783C282.213 793.962 297.267 793.962 313.754 841.514C330.958 888.797 337.051 934.2 344.398 979.423C351.477 1016.59 359.273 1053.39 376.029 1088.05C376.297 1098.53 376.656 1108.38 376.925 1118.41C352.194 1071.39 341.89 1025.72 333.198 979.781C327.194 943.065 322.177 906.439 308.019 871.603C294.22 836.589 281.765 836.409 268.504 836.409C250.583 836.857 231.497 836.678 207.394 788.947C183.559 741.306 183.649 695.724 185.262 649.963C187.771 612.979 191.265 576.263 176.839 541.696C161.786 507.845 140.46 508.293 117.88 509.189C88.3103 510.621 57.6656 511.875 28.2755 469.249C-3.71313 429.309 1.03589 389.996 5.42651 351.936C8.65234 322.743 12.326 294.176 -16.3473 273.937C-46.2749 254.952 -81.4893 260.863 -116.704 265.967C-160.789 271.161 -205.412 275.728 -251.468 250.206C-298.51 225.311 -298.51 200.863 -298.152 177.669C-298.331 160.296 -297.973 143.64 -333.187 129.939C-368.222 116.058 -405.408 115.342 -442.056 113.551C-488.023 110.327 -533.81 105.401 -581.3 81.3122C-628.701 56.8646 -628.611 42.7155 -627.984 29.9097C-627.984 20.5068 -627.536 12.2681 -662.302 -1.79151C-652.446 -1.52286 -642.41 -1.16466 -631.927 -1.0751L-631.837 -0.985552ZM-540.172 1.25323C-493.309 12.6263 -493.488 19.7008 -493.937 28.2082C-493.937 35.9992 -494.205 45.0439 -459.349 57.0437C-424.314 68.8645 -387.128 70.0287 -350.66 70.4765C-304.872 69.4914 -259.084 66.9839 -211.415 77.7301C-163.835 88.3867 -164.015 105.76 -164.104 124.476C-164.283 140.864 -164.104 157.789 -129.965 170.774C-96.274 183.848 -59.9844 177.401 -24.322 170.326C18.9568 161.461 61.9667 151.341 101.482 170.147C136.965 192.983 131.051 226.385 124.779 261.758C118.865 292.116 113.579 322.922 132.306 351.22C150.137 380.593 172.717 379.25 194.491 377.727C220.297 376.115 244.042 374.503 256.497 420.354C268.325 467.01 260.798 512.771 254.705 557.994C250.762 594.979 247.626 631.784 259.275 667.157C271.461 702.082 284.364 702.082 296.102 702.172C309.542 702.441 321.729 702.351 332.302 749.813C343.502 796.917 346.549 842.499 351.029 887.901C355.778 924.707 361.154 961.423 373.699 995.9C373.878 1006.2 374.147 1016.05 374.416 1026.08C355.599 979.065 348.162 933.662 342.427 888.349C338.753 851.544 335.976 814.828 326.209 780.082C316.89 744.888 306.765 744.888 295.833 745.067C280.78 745.246 264.561 744.888 246.372 697.336C228.54 649.605 231.766 603.934 236.515 558.531C241.175 521.547 246.999 484.741 236.784 450.353C225.852 416.772 206.856 417.309 186.696 418.384C159.277 420.175 131.141 421.607 106.589 380.503C78.7227 342.534 85.0845 304.295 91.2672 267.937C95.1201 240.266 99.7795 212.863 72.2711 195.848C43.6875 179.908 8.74194 188.057 -25.8452 195.132C-69.9304 202.923 -114.105 209.997 -159.893 190.386C-206.756 171.222 -206.756 149.729 -206.128 129.401C-206.397 114.357 -206.397 100.028 -241.522 90.6255C-276.736 81.3122 -313.653 83.1032 -350.122 83.551C-396.358 83.1032 -442.056 81.3122 -489.456 63.2228C-536.767 44.6857 -536.588 33.3126 -536.05 23.5515C-536.23 16.477 -535.871 10.2979 -570.548 0.536821C-560.691 0.805475 -550.656 1.16368 -540.351 1.25323H-540.172ZM-448.955 2.4174C-402.272 8.05914 -402.092 12.6263 -402.092 18.5366C-402.272 24.2679 -402.361 30.8947 -367.595 38.5962C-332.649 46.1185 -295.553 44.9543 -258.905 42.7155C-213.207 38.5962 -167.688 33.1335 -120.109 37.9693C-72.3497 42.5364 -72.3498 57.3124 -72.529 73.3421C-72.529 87.4912 -72.5289 102.178 -38.4794 110.595C-4.78833 119.551 31.3221 110.864 66.7158 101.73C109.547 90.2673 152.288 77.3719 190.459 91.7001C224.06 110.595 217.161 142.118 209.007 176.237C201.928 205.609 195.118 235.609 210.799 262.475C225.404 290.594 245.834 288.982 265.726 287.191C289.023 284.952 310.08 283.967 317.159 329.369C323.073 375.936 312.589 421.16 303.36 466.562C297.177 503.278 291.891 540.084 299.059 575.546C306.586 610.65 317.159 610.65 326.746 610.65C337.678 610.919 347.087 611.367 351.836 659.098C357.122 706.291 357.033 751.156 358.466 796.111C360.527 832.917 363.753 869.633 371.907 904.11C372.086 914.409 372.355 924.259 372.534 934.2C359.721 887.364 355.42 841.783 352.373 796.29C351.029 759.933 350.76 723.396 345.474 688.56C340.635 653.366 332.66 653.366 323.969 652.919C311.783 653.366 298.521 652.919 286.245 605.456C274.328 557.726 280.511 512.144 287.858 466.652C295.206 429.846 303.36 393.13 297.446 358.921C290.815 325.519 273.88 326.235 255.601 327.131C230.96 329.369 205.064 331.429 185.172 291.579C161.427 255.49 169.671 218.505 176.929 183.58C182.126 157.073 187.591 131.282 161.427 117.222C133.829 104.685 99.4213 114.715 64.7445 123.849C21.5553 134.147 -22.7987 143.998 -68.3176 130.028C-115.001 116.954 -114.732 98.0583 -114.553 80.8644C-114.553 67.8795 -114.732 55.9691 -149.768 50.7751C-184.982 45.9394 -221.988 50.1483 -258.457 53.1035C-304.245 55.6109 -350.212 56.6855 -397.702 44.5961C-444.833 32.0589 -444.565 23.5515 -444.117 16.477C-444.296 11.4621 -444.117 7.52183 -478.704 2.2383C-468.847 2.4174 -458.991 2.4174 -448.776 2.4174H-448.955Z" stroke="#403730" stroke-opacity="0.12" stroke-width="3" mask="url(#path-2-inside-1_57_1052)"/>
</g>
</svg>
