<svg width="510" height="300" viewBox="0 0 510 300" fill="none" xmlns="http://www.w3.org/2000/svg">
<mask id="mask0_57_1066" style="mask-type:alpha" maskUnits="userSpaceOnUse" x="0" y="0" width="510" height="300">
<rect width="510" height="300" fill="#11B687"/>
</mask>
<g mask="url(#mask0_57_1066)">
<mask id="path-2-inside-1_57_1066" fill="white">
<path d="M-377.366 -1.86619C-330.503 -2.31395 -330.503 -0.433367 -330.503 2.88003C-330.503 6.37254 -330.324 11.0292 -295.557 14.5217C-260.522 17.4769 -223.784 13.8949 -187.136 9.32774C-141.438 2.07407 -95.6508 -6.43331 -47.8918 -7.59748C-0.132935 -8.76165 -0.312134 3.14869 -0.312134 16.7605C-0.312134 28.5813 -0.13269 41.0289 34.0063 45.1483C67.3391 49.9841 103.27 38.9692 138.305 27.7753C180.867 13.8053 223.34 -1.86619 260.256 7.89491C292.066 22.6709 283.822 52.9393 274.414 85.8046C265.901 114.282 257.748 143.297 270.471 168.729C281.493 195.953 300.22 193.893 318.051 192.013C339.018 189.684 357.566 187.625 359 232.848C359 279.415 345.559 325.265 333.821 370.488C324.95 407.294 317.334 443.831 319.933 479.472C323.338 514.398 331.581 514.666 339.108 515.024C347.083 515.293 353.713 515.293 352.548 563.024C351.921 610.218 349.054 655.71 347.531 700.754C347.262 737.291 347.979 773.738 351.832 808.036C352.011 818.156 352.011 828.096 352.1 837.768C345.022 791.022 343.857 745.709 343.857 700.575C344.932 664.217 347.083 627.59 345.918 593.024C345.47 557.651 339.735 557.472 333.284 557.203C323.875 557.203 313.212 556.576 306.94 509.293C301.205 461.383 310.345 415.712 320.649 370.309C330.237 333.593 340.721 296.967 339.108 262.937C336.599 229.445 321.904 230.341 305.686 231.594C283.553 233.923 260.167 236.34 245.024 197.744C225.132 163.893 234.988 127.894 243.68 94.312C249.594 69.4167 256.224 44.7005 231.135 33.8648C204.612 24.5515 170.563 36.5514 136.065 48.0139C93.3242 60.6407 49.4181 73.357 4.25769 64.9391C-42.2467 57.5959 -42.2468 41.3871 -42.2468 26.9694C-42.426 16.2232 -42.5156 6.37254 -77.73 5.92478C-113.124 5.29792 -149.771 11.8352 -186.33 17.1187C-232.028 22.7604 -277.636 26.9694 -325.127 20.7903C-372.258 14.1635 -372.437 8.16356 -371.989 3.50689C-372.258 0.820352 -372.437 -0.881124 -407.025 -1.95574C-397.347 -1.95574 -387.133 -1.77664 -377.097 -1.95574L-377.366 -1.86619ZM-1106.47 615.232C-1099.66 661.889 -1098.5 707.291 -1098.41 752.515C-1099.75 788.872 -1101.55 825.32 -1100.65 860.245C-1100.02 895.349 -1094.47 895.439 -1088.01 895.886C-1078.7 895.886 -1067.85 896.155 -1061.76 943.796C-1055.85 991.527 -1065.17 1037.2 -1075.29 1082.6C-1084.61 1118.96 -1095.18 1155.85 -1093.57 1189.88C-1091.24 1223.47 -1076.46 1222.57 -1060.24 1221.41C-1038.28 1219.17 -1014.72 1216.57 -999.576 1255.17C-979.952 1289.38 -989.898 1325.29 -998.68 1359.05C-1004.68 1384.12 -1011.22 1408.66 -986.314 1419.58C-959.792 1428.72 -925.473 1416.63 -891.155 1405.43C-848.593 1392.63 -804.777 1380.09 -759.258 1388.15C-712.574 1395.4 -712.753 1411.7 -712.843 1426.3C-712.664 1437.05 -712.664 1446.81 -677.449 1447.34C-642.235 1447.97 -605.229 1441.43 -568.581 1435.88C-522.883 1430.42 -477.364 1426.3 -429.784 1432.21C-382.652 1439.02 -382.831 1445.19 -382.652 1449.31C-382.652 1452.27 -382.832 1453.88 -348.155 1455.05C-357.832 1455.05 -367.778 1454.87 -377.276 1454.87C-424.408 1455.31 -424.856 1453.52 -424.766 1450.12C-424.587 1446.45 -424.766 1442.15 -459.533 1438.66C-494.747 1435.52 -531.305 1439.11 -568.222 1443.85C-613.741 1451.11 -658.991 1459.43 -706.84 1460.69C-754.419 1461.85 -755.046 1450.03 -754.867 1436.69C-754.867 1424.87 -754.867 1412.24 -788.917 1407.94C-822.339 1403.37 -858.181 1414.12 -893.485 1425.58C-936.046 1439.55 -977.892 1454.78 -1014.99 1445.19C-1046.71 1430.33 -1038.55 1400.06 -1029.23 1367.37C-1020.54 1338.81 -1012.48 1309.88 -1025.11 1284.27C-1036.13 1257.05 -1054.86 1258.93 -1072.42 1260.81C-1093.48 1263.32 -1111.94 1264.93 -1113.19 1219.7C-1113.19 1173.14 -1099.75 1127.65 -1088.1 1082.51C-1079.41 1045.71 -1071.62 1008.99 -1074.57 973.617C-1077.71 938.423 -1086.04 938.244 -1093.39 938.065C-1101.37 937.617 -1108 937.17 -1106.83 889.797C-1106.2 842.514 -1103.34 797.38 -1101.81 752.604C-1101.63 715.799 -1102.44 679.53 -1105.94 644.874C-1106.11 635.023 -1106.2 625.173 -1106.2 615.143L-1106.47 615.232ZM-1108.09 524.159C-1095.27 570.904 -1090.88 616.397 -1087.66 661.889C-1086.76 698.426 -1086.49 734.694 -1081.29 769.619C-1076.28 804.544 -1068.21 804.813 -1059.52 805.26C-1047.6 804.992 -1034.07 804.992 -1022.07 852.723C-1010.15 900.364 -1016.15 945.946 -1023.59 991.527C-1030.67 1027.89 -1038.91 1064.78 -1033 1098.99C-1026.55 1132.57 -1009.61 1131.85 -991.332 1130.96C-966.87 1128.72 -940.975 1126.66 -921.172 1166.51C-897.427 1202.6 -905.671 1239.76 -913.108 1274.96C-918.395 1301.38 -923.681 1326.99 -897.606 1340.96C-870.008 1353.49 -835.78 1343.64 -800.834 1334.33C-757.824 1324.03 -713.918 1314.27 -667.951 1327.97C-621.447 1341.05 -621.716 1359.94 -621.716 1377.31C-621.716 1390.3 -621.716 1402.39 -586.501 1407.22C-551.287 1412.24 -514.639 1408.12 -477.812 1404.9C-432.114 1402.39 -386.326 1401.4 -338.926 1413.4C-291.615 1425.94 -292.063 1434.63 -292.242 1441.52C-292.421 1446.54 -292.421 1450.48 -257.655 1455.94C-267.78 1455.76 -277.726 1455.67 -287.403 1455.67C-334.445 1450.21 -334.535 1445.82 -334.535 1439.73C-334.266 1433.73 -334.266 1427.19 -369.032 1419.4C-404.247 1412.06 -440.895 1413.05 -477.722 1415.46C-523.062 1419.58 -568.581 1425.05 -616.339 1420.48C-663.919 1415.64 -664.188 1401.14 -664.188 1385.11C-664.009 1370.96 -663.919 1356.09 -698.058 1347.49C-731.66 1338.63 -767.77 1347.31 -803.074 1356.45C-846.084 1368.27 -888.377 1380.81 -926.638 1366.57C-960.24 1347.67 -953.34 1316.06 -945.365 1281.67C-938.107 1252.39 -931.208 1222.48 -946.978 1195.44C-961.225 1167.32 -981.745 1168.75 -1001.64 1170.54C-1025.02 1172.78 -1045.99 1173.94 -1052.71 1128.54C-1058.62 1081.97 -1048.14 1036.48 -1039.27 991.259C-1032.91 954.722 -1027.62 917.916 -1034.97 882.633C-1042.14 847.26 -1052.8 847.439 -1062.66 847.26C-1073.23 846.991 -1082.73 846.633 -1087.39 799.081C-1092.67 751.977 -1092.58 706.664 -1094.02 661.71C-1096.08 625.173 -1099.48 588.456 -1107.28 553.979C-1107.55 544.218 -1107.73 533.83 -1108 523.89L-1108.09 524.159ZM-1110.15 432.1C-1091.6 479.114 -1084.25 524.785 -1078.34 570.188C-1074.84 606.904 -1071.89 643.531 -1062.3 678.456C-1052.89 713.381 -1042.85 713.381 -1031.92 713.381C-1016.87 713.381 -1000.65 713.381 -982.551 761.022C-964.63 808.753 -967.677 854.245 -972.426 899.916C-977.175 936.453 -982.909 973.438 -972.695 1007.74C-961.942 1041.5 -942.946 1040.78 -922.785 1039.97C-895.725 1038.18 -867.41 1036.57 -842.769 1077.68C-815.081 1115.65 -821.443 1153.88 -827.626 1190.51C-831.747 1218.18 -836.317 1245.32 -808.898 1262.42C-780.315 1278.36 -745.548 1270.39 -710.513 1263.14C-666.876 1255.52 -622.701 1248.27 -576.466 1267.7C-529.782 1286.87 -529.782 1308.54 -530.23 1328.69C-530.409 1344 -530.409 1357.97 -495.284 1367.46C-460.249 1376.87 -423.064 1375.26 -386.236 1374.54C-340.449 1374.99 -294.482 1376.87 -246.992 1394.87C-199.86 1413.4 -199.95 1424.78 -200.308 1434.54C-200.487 1441.79 -200.756 1447.61 -166.259 1457.55C-176.115 1457.28 -186.151 1457.1 -196.007 1456.84C-243.139 1445.64 -243.139 1438.57 -242.691 1429.88C-242.422 1422.09 -242.243 1413.22 -277.188 1401.14C-312.224 1389.23 -348.961 1387.88 -386.057 1387.7C-431.845 1388.69 -477.274 1391.11 -524.943 1380.45C-572.254 1369.7 -572.702 1352.42 -572.344 1333.61C-572.165 1317.58 -572.075 1300.3 -606.393 1287.49C-640.264 1274.51 -676.374 1280.87 -712.036 1287.94C-755.494 1296.81 -798.056 1306.93 -837.661 1288.21C-873.144 1265.38 -867.589 1232.06 -860.958 1196.42C-855.044 1165.88 -849.579 1135.17 -868.485 1106.87C-886.047 1077.59 -908.717 1078.84 -930.312 1080.36C-956.207 1082.15 -979.863 1083.5 -992.318 1037.83C-1003.97 991.08 -996.44 945.319 -990.436 900.095C-986.583 863.29 -983.626 826.395 -995.454 791.201C-1007.28 756.007 -1020.18 756.097 -1032.01 756.097C-1045.54 755.918 -1057.46 755.918 -1068.21 708.634C-1079.41 661.53 -1082.37 615.77 -1086.94 570.546C-1091.51 533.562 -1097.24 496.845 -1109.34 462.279C-1109.61 452.249 -1109.79 442.398 -1110.06 432.1H-1110.15ZM-1112.66 340.041C-1088.01 386.876 -1078.07 432.548 -1068.93 478.577C-1063.02 515.293 -1058 551.92 -1044.02 586.845C-1030.22 621.77 -1017.68 621.77 -1004.41 622.038C-986.852 621.411 -967.587 621.591 -943.394 669.321C-919.559 716.873 -919.828 762.455 -921.441 808.574C-923.681 844.932 -927.176 881.827 -912.749 916.304C-897.875 950.334 -876.549 949.886 -854.148 949.349C-824.579 947.558 -793.755 946.393 -764.544 989.02C-732.735 1028.96 -737.305 1068.27 -741.875 1106.6C-745.1 1135.62 -748.953 1164.18 -720.101 1184.42C-690.352 1203.59 -655.317 1197.67 -619.744 1192.57C-575.838 1187.29 -531.484 1182.72 -484.98 1208.06C-438.117 1232.78 -438.117 1257.58 -438.117 1280.6C-438.565 1298.15 -438.565 1314.63 -403.53 1328.51C-368.495 1342.39 -331.488 1343.11 -294.392 1344.72C-248.605 1348.12 -202.907 1352.78 -155.506 1376.96C-108.195 1401.4 -108.195 1415.73 -108.375 1428.27C-108.823 1437.67 -109.091 1445.82 -74.325 1460.06C-84.4502 1459.79 -94.4859 1459.61 -104.522 1459.34C-151.474 1441.97 -151.384 1432.12 -151.026 1420.84C-150.847 1410.54 -150.578 1399.79 -185.344 1382.96C-220.379 1366.57 -257.565 1362.9 -294.482 1360.39C-340.001 1358.51 -385.788 1358.06 -433.547 1341.4C-480.948 1324.66 -480.858 1304.42 -480.948 1282.93C-480.679 1264.21 -480.321 1244.78 -514.818 1227.94C-549.047 1210.57 -585.426 1214.51 -621.357 1219.53C-664.994 1225.88 -708.273 1233.67 -749.222 1210.12C-786.587 1183.35 -781.748 1148.06 -776.91 1111.08C-772.519 1079.74 -768.218 1048.03 -790.171 1018.39C-811.228 988.035 -835.869 988.751 -859.614 990.005C-887.84 991.438 -914.094 992.333 -932.373 946.573C-949.935 899.737 -945.186 853.887 -942.229 808.484C-940.795 771.768 -939.899 734.963 -956.207 699.769C-972.605 664.665 -987.748 664.575 -1002 664.575C-1018.21 664.575 -1033.09 664.575 -1049.75 617.113C-1066.96 569.83 -1072.87 524.248 -1080.4 478.756C-1087.21 441.95 -1095.27 405.413 -1111.94 370.757C-1112.21 360.727 -1112.39 350.25 -1112.66 340.22V340.041ZM-1113.82 249.146C-1083.36 295.982 -1070.63 341.563 -1059.34 386.876C-1051.28 423.413 -1044.02 460.129 -1025.65 495.144C-1007.37 530.069 -992.497 530.069 -976.727 530.338C-955.939 530.338 -933.717 530.606 -903.52 578.069C-873.592 625.71 -871.263 671.202 -870.277 716.694C-870.456 753.231 -871.621 790.037 -852.894 824.962C-833.719 859.17 -810.332 858.543 -785.691 858.275C-753.434 857.29 -720.101 856.215 -686.231 900.095C-650.299 941.916 -653.525 982.483 -656.661 1022.06C-658.991 1052.6 -661.321 1082.51 -631.214 1105.79C-600.3 1128.18 -565.176 1124.33 -529.692 1121.11C-485.338 1118.33 -440.805 1116.36 -394.122 1147.35C-346.99 1177.88 -346.811 1205.29 -347.08 1231.44C-346.9 1251.5 -346.811 1270.48 -311.596 1288.75C-276.561 1307.02 -240.003 1309.97 -203.265 1313.82C-157.477 1319.73 -112.048 1327.26 -64.6478 1357.26C-17.3369 1387.61 -17.2473 1404.99 -17.2473 1420.66C-16.9784 1432.57 -16.9784 1443.49 18.1464 1461.94C7.84192 1461.76 -2.19373 1461.67 -12.0502 1461.31C-59.1819 1438.21 -59.1819 1425.4 -59.3611 1410.81C-59.1819 1398.27 -59.5403 1384.75 -94.3963 1363.7C-129.611 1343.11 -165.811 1337.2 -202.996 1332.45C-248.336 1327.97 -294.034 1324.66 -341.614 1301.82C-389.014 1279.17 -389.193 1255.97 -389.373 1231.26C-389.104 1210.3 -389.373 1188.54 -423.87 1167.32C-458.188 1145.65 -494.478 1148.06 -530.678 1150.66C-574.584 1154.51 -618.042 1159.79 -660.335 1131.68C-699.85 1100.69 -696.266 1063.71 -692.861 1025.29C-689.636 993.139 -686.947 960.184 -712.036 929.379C-736.319 897.857 -762.842 898.752 -788.827 899.289C-819.741 900.185 -848.683 901.17 -872.517 854.961C-895.904 807.947 -894.201 761.828 -893.753 716.784C-894.47 680.247 -896.083 643.441 -916.782 608.068C-937.57 572.964 -955.222 573.143 -971.888 572.875C-991.332 572.427 -1008.98 572.606 -1031.83 525.323C-1054.95 478.04 -1063.82 431.921 -1073.68 387.145C-1082.82 350.429 -1092.67 313.623 -1113.55 278.967C-1113.73 269.116 -1113.82 259.266 -1114 249.236L-1113.82 249.146ZM-1110.33 162.819C-1074.4 209.565 -1060.51 253.176 -1047.25 297.594C-1037.66 333.414 -1028.7 369.682 -1006.03 404.608C-983.447 439.533 -965.616 439.98 -946.978 440.697C-922.964 441.145 -896.71 442.488 -860.958 489.592C-825.296 536.696 -821.174 581.382 -817.68 626.337C-816.067 662.605 -814.991 699.142 -792.142 734.067C-768.845 768.365 -743.129 768.276 -716.158 768.097C-681.571 767.649 -645.282 767.201 -607.11 812.156C-567.505 855.499 -569.208 897.319 -570.91 937.976C-572.254 969.766 -573.688 1001.02 -542.327 1027.44C-510.338 1053.23 -475.124 1050.99 -439.372 1049.65C-395.286 1049.2 -351.022 1049.2 -304.249 1085.47C-257.386 1121.73 -256.848 1152.63 -256.669 1182C-256.221 1204.57 -255.504 1226.24 -220.559 1248.9C-185.523 1271.55 -149.503 1276.3 -113.123 1281.76C-68.5007 1290.18 -24.3259 1299.14 22.8058 1334.78C69.8478 1370.6 71.2816 1392.27 72.1776 1411.52C73.0736 1426.39 73.9697 1440.27 108.826 1462.93C98.7003 1463.1 88.4856 1462.93 78.8083 1462.75C31.4078 1433.73 31.4077 1417.7 30.9597 1399.88C30.0637 1384.3 29.4365 1368.09 -5.15063 1342.75C-40.1858 1317.85 -76.4755 1310.15 -112.407 1303.88C-157.657 1296.99 -203.176 1290.9 -250.755 1262.15C-298.066 1233.32 -298.156 1207.35 -298.156 1179.5C-298.783 1155.94 -298.783 1131.59 -333.191 1106.15C-367.778 1080.81 -404.068 1080.81 -439.551 1081.53C-484.353 1083.32 -528.259 1086.09 -571.717 1053.23C-613.114 1018.3 -610.605 979.706 -608.365 940.035C-606.483 906.633 -605.139 873.319 -633.006 841.171C-660.514 808.574 -689.277 808.753 -717.144 809.38C-750.835 809.648 -782.734 810.096 -812.124 763.529C-841.335 716.336 -842.231 670.665 -844.202 626.158C-846.891 589.8 -850.206 553.621 -875.116 518.606C-900.115 483.681 -920.635 483.055 -939.899 482.517C-962.838 481.443 -983.805 481.353 -1012.57 434.07C-1041.42 386.608 -1052.8 341.295 -1064.54 297.056C-1075.29 260.967 -1086.76 225.326 -1111.94 190.848C-1111.67 181.445 -1111.22 171.684 -1110.15 162.819H-1110.33ZM-1095.63 87.9538C-1054.86 133.625 -1042.14 173.117 -1029.5 214.4C-1019.02 248.699 -1009.34 283.265 -982.641 318.011C-955.849 352.31 -934.613 354.101 -913.108 355.892C-883.897 358.22 -852.984 361.533 -812.214 407.652C-771.713 453.771 -766.874 495.95 -762.573 539.203C-759.168 574.397 -756.839 609.949 -730.047 644.695C-702.807 678.903 -674.492 679.351 -645.192 679.62C-607.648 679.888 -568.76 680.336 -527.004 725.47C-484.442 769.798 -484.98 811.977 -485.428 853.797C-486.055 886.663 -486.772 919.17 -454.515 948.543C-421.63 977.109 -386.326 976.662 -350.843 976.841C-307.564 977.736 -264.196 978.901 -218.408 1020C-172.441 1060.84 -170.828 1095.85 -169.216 1128.99C-168.499 1154.51 -167.423 1179.05 -132.836 1206C-98.07 1232.69 -62.8557 1238.6 -27.8206 1245.32C14.0245 1253.82 55.2426 1262.6 101.209 1303.08C147.355 1343.91 151.477 1371.31 155.42 1395.85C157.212 1414.39 159.273 1431.85 193.86 1458.63C185.347 1459.79 176.297 1460.87 166.889 1461.13C119.757 1426.48 117.965 1406.06 115.456 1383.67C113.664 1364.51 111.603 1344.36 77.285 1315.35C42.9667 1286.33 8.46912 1278.36 -26.2972 1270.84C-69.9343 1262.87 -113.84 1255.08 -161.241 1220.6C-208.193 1185.94 -209.269 1156.48 -210.254 1124.87C-210.971 1098.63 -211.688 1071.41 -245.737 1042.21C-279.966 1013.02 -315.449 1011.68 -351.112 1011.14C-395.018 1010.96 -438.924 1011.86 -483.367 974.423C-526.556 935.647 -525.391 895.797 -524.316 854.514C-523.42 820.484 -522.972 786.455 -553.617 753.768C-583.813 720.634 -614.727 720.455 -644.654 720.366C-681.213 720.366 -715.8 720.187 -750.745 673.53C-785.691 626.516 -788.469 581.919 -792.322 537.95C-796.264 502.756 -800.744 467.92 -829.597 433.443C-858.629 399.145 -882.463 397.354 -904.864 395.831C-931.835 394.04 -956.835 392.608 -991.332 345.414C-1025.92 298.131 -1038.37 254.788 -1051.01 212.162C-1062.48 177.684 -1073.86 144.371 -1102.89 110.342C-1100.56 102.998 -1098.32 95.5657 -1095.81 87.9538H-1095.63ZM-1061.04 32.7006C-1016.69 76.3122 -1007.55 109.894 -997.246 145.446C-989.719 174.729 -980.58 206.43 -950.204 240.37C-919.828 274.131 -894.829 277.176 -867.858 281.922C-833.36 286.937 -796.891 292.668 -752.538 336.459C-708.363 380.25 -704.331 418.846 -700.119 458.428C-697.431 491.114 -694.564 525.502 -664.009 559.352C-633.543 593.113 -602.451 593.561 -570.462 594.904C-530.23 596.068 -488.833 596.785 -444.658 640.844C-400.483 684.724 -400.483 726.724 -400.483 769.171C-400.483 803.022 -400.484 836.693 -367.599 868.036C-334.625 899.289 -299.948 899.916 -265.809 900.274C-223.964 901.797 -183.194 903.409 -139.377 947.737C-95.6507 992.065 -92.425 1031.11 -89.5576 1068.54C-86.7799 1098.18 -84.8086 1126.12 -50.9384 1156.48C-17.068 1186.84 15.6376 1193.02 46.7301 1198.03C84.7222 1205.29 120.653 1212 164.291 1256.42C208.017 1300.75 216.44 1334.33 223.519 1365.76C229.97 1390.66 234.092 1412.51 268.141 1442.87C260.525 1445.37 253.088 1447.7 245.74 1450.12C199.505 1410.18 194.487 1384.12 190.186 1356.72C184.272 1331.37 178.538 1305.58 145.563 1273.79C112.679 1241.64 82.6613 1235.29 51.8375 1229.91C10.7092 1221.5 -30.2399 1213.7 -76.7443 1174.03C-122.89 1134.27 -125.31 1100.33 -127.012 1065.32C-129.521 1035.14 -131.582 1004.33 -164.287 972.184C-197.441 940.214 -230.863 938.692 -264.733 937.886C-308.012 936.543 -350.753 936.005 -395.824 894.812C-439.909 852.812 -439.909 811.529 -439.551 769.44C-439.372 735.142 -439.372 700.754 -471.808 668.247C-503.886 635.381 -536.95 634.934 -569.477 634.217C-608.365 633.59 -646.267 632.874 -685.962 586.934C-725.925 540.547 -729.599 497.651 -734.617 455.831C-737.753 423.413 -741.516 391.443 -773.326 358.399C-805.404 325.355 -833.719 321.862 -861.406 317.564C-892.499 314.34 -922.427 310.758 -962.032 264.639C-1001.91 218.251 -1013.46 178.043 -1026.01 138.55C-1034.25 109.715 -1042.76 80.9688 -1074.93 48.3721C-1070.99 42.6409 -1066.87 36.9096 -1060.95 32.8797L-1061.04 32.7006ZM-1000.83 3.32779C-954.684 43.0886 -949.845 69.2376 -945.455 96.5508C-939.541 121.894 -933.806 147.685 -900.922 179.654C-867.947 211.445 -837.751 217.803 -807.196 223.535C-766.247 231.952 -724.939 239.743 -678.614 279.415C-632.379 319.176 -630.138 352.936 -628.257 388.13C-625.748 418.219 -623.687 449.025 -590.892 481.084C-557.918 513.054 -524.406 514.577 -490.715 515.562C-447.436 516.905 -404.426 517.353 -359.624 558.725C-315.449 600.725 -315.539 641.829 -315.718 684.097C-315.718 718.306 -315.897 752.604 -283.64 785.201C-251.382 818.066 -218.229 818.514 -185.703 819.23C-146.815 819.678 -109.091 820.395 -68.8591 866.334C-29.2542 912.901 -25.222 955.349 -20.6522 997.617C-17.4264 1029.86 -13.7527 1062 18.0568 1095.05C50.0454 1128.09 78.4498 1131.76 106.137 1136.06C137.409 1139.2 167.427 1142.69 206.852 1188.99C246.816 1235.38 258.285 1275.32 270.919 1314.81C278.984 1343.82 287.586 1372.39 319.664 1405.25C315.811 1410.9 311.689 1416.45 305.686 1420.75C261.332 1376.87 252.013 1343.37 241.708 1307.91C234.361 1278.63 225.221 1246.93 194.845 1212.99C164.38 1179.14 139.47 1176.18 112.32 1171.44C77.8226 1166.42 41.4434 1160.51 -3.00024 1116.9C-47.1749 1073.11 -51.2072 1034.69 -55.329 994.572C-58.0171 961.886 -60.974 927.677 -91.4393 893.916C-122.084 860.155 -152.908 859.618 -185.165 858.364C-225.577 857.379 -266.794 856.484 -310.969 812.514C-355.144 768.634 -355.144 726.455 -355.502 684.187C-355.323 650.336 -355.233 616.576 -388.029 585.143C-421.182 553.89 -455.68 553.352 -489.819 552.726C-531.664 551.382 -572.434 549.591 -615.891 505.263C-659.797 460.935 -663.023 421.891 -665.801 384.279C-668.758 354.817 -670.819 326.966 -704.51 296.519C-738.559 266.161 -771.354 260.251 -802.178 254.967C-840.17 247.893 -876.012 241.087 -919.559 196.759C-963.286 152.431 -971.888 118.849 -978.967 87.4165C-985.418 62.3422 -989.719 40.5812 -1023.41 10.2232C-1016.06 7.89491 -1008.72 5.47702 -1001.01 3.14869L-1000.83 3.32779ZM-922.337 -8.04523C-875.385 26.7007 -873.592 46.9393 -871.084 69.3272C-869.292 88.4912 -867.141 108.998 -832.823 138.013C-798.594 166.849 -764.007 174.729 -729.24 182.341C-685.962 190.49 -641.697 198.102 -594.476 232.758C-547.344 267.236 -546.448 296.877 -545.284 328.399C-544.567 354.638 -543.671 381.861 -509.621 411.234C-475.572 440.607 -439.909 441.413 -404.605 442.309C-360.699 442.309 -316.704 441.771 -272.171 479.114C-228.892 517.711 -230.326 557.651 -231.401 599.024C-232.118 632.874 -232.386 666.904 -201.921 699.679C-171.545 732.724 -140.811 733.082 -110.615 732.992C-74.4146 732.813 -39.6482 733.172 -4.43384 779.828C30.3325 826.932 33.2894 871.17 36.9631 915.409C40.8162 950.96 45.2068 985.527 73.9697 1020.18C103.091 1054.39 127.015 1056.18 149.506 1057.62C176.297 1059.23 201.476 1061.02 235.974 1108.12C270.74 1155.23 282.837 1198.39 295.65 1241.29C307.119 1275.76 318.499 1309.08 347.62 1343.11C345.111 1350.81 342.782 1358.33 340.542 1365.49C299.413 1319.82 286.779 1280.15 274.235 1238.96C263.751 1204.66 254.074 1170.09 227.282 1135.53C200.49 1100.78 179.523 1099.17 157.929 1097.56C128.628 1095.23 97.6251 1091.91 56.7657 1045.97C16.3544 999.676 11.5156 957.587 7.125 914.424C4.16809 878.782 1.65918 843.23 -25.1323 808.753C-52.3719 774.455 -80.7765 774.007 -109.987 773.649C-147.89 773.38 -186.599 773.022 -228.444 727.978C-271.006 683.65 -270.558 641.471 -270.289 599.74C-269.662 566.695 -268.676 534.188 -300.933 504.995C-333.639 476.159 -369.481 476.696 -404.784 476.607C-447.974 475.622 -491.521 474.368 -536.95 433.443C-582.917 392.518 -584.53 357.235 -586.322 324.101C-587.308 298.758 -588.204 274.31 -622.881 247.445C-657.647 220.579 -693.04 214.579 -727.717 207.684C-769.741 199.266 -810.959 190.759 -856.926 150.102C-903.072 109.267 -907.284 82.0435 -910.957 56.9691C-913.018 38.7006 -914.9 21.3276 -949.218 -5.5378C-940.706 -6.52286 -932.104 -7.77658 -922.427 -8.04523H-922.337ZM-834.077 -9.83626C-787.035 19.3575 -787.393 35.1185 -786.497 53.1184C-785.781 68.8794 -784.885 85.2673 -750.118 110.431C-715.173 135.327 -679.152 142.849 -643.131 149.297C-598.239 156.102 -552.273 162.281 -504.783 191.117C-457.203 219.684 -457.472 245.743 -457.024 273.594C-456.755 297.146 -456.307 321.593 -421.809 347.116C-387.312 372.727 -351.201 372.279 -315.628 371.742C-271.275 369.951 -226.831 366.996 -183.642 400.22C-142.066 434.965 -144.754 473.473 -146.994 513.502C-148.786 546.636 -150.13 580.397 -122.263 612.367C-94.7546 644.874 -65.8126 644.337 -37.8561 643.889C-4.25464 643.441 27.3756 642.993 57.3033 689.56C86.5143 736.664 87.4999 782.067 89.292 827.201C91.8009 863.469 95.2059 900.006 120.116 935.02C145.295 969.945 165.635 970.214 185.258 970.841C208.107 971.736 229.164 971.826 257.748 1019.47C286.779 1066.75 298.069 1112.15 310.076 1156.39C320.65 1192.3 332.208 1228.39 357.387 1263.23C357.118 1272.54 356.67 1281.76 355.416 1290.81C319.485 1243.79 305.506 1200 292.514 1155.85C282.747 1119.76 273.966 1083.77 251.117 1048.84C228.447 1013.92 210.705 1013.2 192.157 1012.75C167.875 1011.86 141.621 1010.87 105.779 963.677C70.1167 916.483 65.9949 871.708 62.59 826.932C60.7979 790.395 60.2603 754.037 37.1425 719.381C13.7557 685.082 -12.2295 684.903 -39.021 685.351C-73.9666 685.53 -109.898 685.978 -148.159 641.292C-187.764 597.859 -186.061 555.949 -184.359 515.472C-183.194 483.502 -181.581 452.249 -212.942 425.921C-244.931 400.309 -280.414 402.19 -315.897 403.712C-360.072 403.981 -404.426 403.981 -450.841 367.623C-497.704 331.534 -498.6 300.459 -498.6 271.266C-499.496 248.878 -499.765 227.117 -534.8 204.371C-569.835 181.714 -606.214 177.147 -642.056 171.326C-686.947 162.908 -731.033 154.222 -777.985 118.401C-825.027 82.4017 -826.909 60.9093 -827.626 41.4767C-828.342 26.6112 -829.239 12.9098 -864.005 -9.92581C-854.417 -10.1049 -844.292 -9.92581 -833.988 -9.74671L-834.077 -9.83626ZM-743.219 -8.31389C-696.266 14.9695 -696.535 27.6858 -696.266 42.1035C-696.087 54.7303 -695.997 68.3421 -661.231 89.3867C-626.196 109.983 -589.369 115.804 -552.631 120.461C-507.381 125.207 -461.414 128.431 -413.745 151.267C-366.344 174.013 -366.434 197.207 -366.344 221.744C-366.344 242.788 -366.076 264.639 -331.578 285.952C-297.26 307.623 -260.97 305.385 -225.218 302.788C-181.133 298.847 -137.317 293.474 -95.2923 321.952C-55.6874 352.757 -59.1819 389.563 -62.766 427.891C-65.8126 460.309 -68.5007 493.174 -43.5012 524.159C-19.0393 555.681 7.66272 554.696 33.379 553.89C64.1133 552.815 93.1449 552.009 117.338 598.218C140.725 645.232 139.022 691.082 138.574 736.395C139.291 773.111 140.814 810.186 161.423 845.469C182.301 880.484 199.684 880.484 216.53 880.484C235.795 880.752 253.805 880.663 276.475 928.214C299.593 975.498 308.463 1021.17 318.32 1066.39C327.459 1103.2 337.585 1139.91 358.552 1174.84C358.731 1184.6 358.821 1194.54 359 1204.48C328.355 1157.47 315.542 1111.97 304.162 1066.57C296.098 1029.77 289.019 993.229 270.471 958.304C252.371 923.11 237.228 923.11 221.727 923.11C200.67 923.11 178.448 922.841 148.251 875.379C118.324 827.738 115.994 782.156 115.098 736.575C115.277 699.769 116.621 662.874 97.7148 628.396C78.45 594.098 54.9735 594.367 30.4221 595.083C-2.01453 595.979 -35.4369 596.874 -69.3071 553.084C-105.059 511.263 -102.013 470.428 -98.8765 431.204C-96.6364 400.667 -94.0378 370.668 -124.055 347.384C-154.969 324.817 -190.541 328.847 -225.666 332.071C-270.289 334.757 -315.091 336.817 -361.506 305.653C-408.637 275.027 -408.637 247.445 -408.189 221.385C-408.637 201.505 -408.817 182.61 -443.673 164.252C-478.887 145.983 -515.714 143.207 -552.273 139.356C-598.239 133.177 -643.758 125.655 -691.159 95.5657C-738.47 65.2078 -738.559 47.9244 -738.29 32.1633C-738.47 20.253 -738.47 9.32773 -773.326 -8.94075C-763.469 -8.76165 -753.434 -8.49299 -743.129 -8.31389H-743.219ZM-650.837 -5.98555C-604.153 11.3874 -604.601 21.1485 -604.601 32.6111C-604.87 42.4618 -605.049 53.6557 -570.104 70.3122C-535.158 86.7001 -498.062 90.0135 -461.056 92.8792C-415.537 94.6702 -369.391 95.2075 -321.811 112.043C-274.231 128.7 -274.679 148.849 -274.679 170.699C-274.859 189.147 -274.679 208.4 -240.361 225.684C-206.312 242.967 -169.932 238.669 -134.18 234.102C-90.7225 227.654 -46.8165 219.863 -6.31555 243.505C31.4077 270.37 26.3899 305.205 21.5513 342.369C16.9814 373.712 13.0389 405.593 35.0815 435.055C56.049 465.592 80.8691 464.338 104.614 463.174C132.571 461.831 159.093 460.846 177.552 506.786C194.935 553.8 190.365 599.203 187.229 644.695C185.616 681.68 184.989 718.485 201.207 753.768C217.605 788.962 232.748 788.962 246.905 788.783C263.213 788.962 278.267 788.962 294.754 836.514C311.958 883.797 318.051 929.2 325.398 974.423C332.477 1011.59 340.273 1048.39 357.029 1083.05C357.297 1093.53 357.656 1103.38 357.925 1113.41C333.194 1066.39 322.89 1020.72 314.198 974.781C308.194 938.065 303.177 901.439 289.019 866.603C275.22 831.589 262.765 831.409 249.504 831.409C231.583 831.857 212.497 831.678 188.394 783.947C164.559 736.306 164.649 690.724 166.262 644.963C168.771 607.979 172.265 571.263 157.839 536.696C142.786 502.845 121.46 503.293 98.8795 504.189C69.3103 505.621 38.6656 506.875 9.27551 464.249C-22.7131 424.309 -17.9641 384.996 -13.5735 346.936C-10.3477 317.743 -6.67395 289.176 -35.3473 268.937C-65.2749 249.952 -100.489 255.863 -135.704 260.967C-179.789 266.161 -224.412 270.728 -270.468 245.206C-317.51 220.311 -317.51 195.863 -317.152 172.669C-317.331 155.296 -316.973 138.64 -352.187 124.939C-387.222 111.058 -424.408 110.342 -461.056 108.551C-507.023 105.327 -552.81 100.401 -600.3 76.3122C-647.701 51.8646 -647.611 37.7155 -646.984 24.9097C-646.984 15.5068 -646.536 7.26805 -681.302 -6.79151C-671.446 -6.52286 -661.41 -6.16466 -650.927 -6.0751L-650.837 -5.98555ZM-559.172 -3.74677C-512.309 7.62626 -512.488 14.7008 -512.937 23.2082C-512.937 30.9992 -513.205 40.0439 -478.349 52.0437C-443.314 63.8645 -406.128 65.0287 -369.66 65.4765C-323.872 64.4914 -278.084 61.9839 -230.415 72.7301C-182.835 83.3867 -183.015 100.76 -183.104 119.476C-183.283 135.864 -183.104 152.789 -148.965 165.774C-115.274 178.848 -78.9844 172.401 -43.322 165.326C-0.0432129 156.461 42.9667 146.341 82.4821 165.147C117.965 187.983 112.051 221.385 105.779 256.758C99.8652 287.116 94.5786 317.922 113.306 346.22C131.137 375.593 153.717 374.25 175.491 372.727C201.297 371.115 225.042 369.503 237.497 415.354C249.325 462.01 241.798 507.771 235.705 552.994C231.762 589.979 228.626 626.784 240.275 662.157C252.461 697.082 265.364 697.082 277.102 697.172C290.542 697.441 302.729 697.351 313.302 744.813C324.502 791.917 327.549 837.499 332.029 882.901C336.778 919.707 342.154 956.423 354.699 990.9C354.878 1001.2 355.147 1011.05 355.416 1021.08C336.599 974.065 329.162 928.662 323.427 883.349C319.753 846.544 316.976 809.828 307.209 775.082C297.89 739.888 287.765 739.888 276.833 740.067C261.78 740.246 245.561 739.888 227.372 692.336C209.54 644.605 212.766 598.934 217.515 553.531C222.175 516.547 227.999 479.741 217.784 445.353C206.852 411.772 187.856 412.309 167.696 413.384C140.277 415.175 112.141 416.607 87.5895 375.503C59.7227 337.534 66.0845 299.295 72.2672 262.937C76.1201 235.266 80.7795 207.863 53.2711 190.848C24.6875 174.908 -10.2581 183.057 -44.8452 190.132C-88.9304 197.923 -133.105 204.997 -178.893 185.386C-225.756 166.222 -225.756 144.729 -225.128 124.401C-225.397 109.357 -225.397 95.0284 -260.522 85.6255C-295.736 76.3122 -332.653 78.1032 -369.122 78.551C-415.358 78.1032 -461.056 76.3122 -508.456 58.2228C-555.767 39.6857 -555.588 28.3126 -555.05 18.5515C-555.23 11.477 -554.871 5.29792 -589.548 -4.46318C-579.691 -4.19452 -569.656 -3.83632 -559.351 -3.74677H-559.172ZM-467.955 -2.5826C-421.272 3.05914 -421.092 7.62626 -421.092 13.5366C-421.272 19.2679 -421.361 25.8947 -386.595 33.5962C-351.649 41.1185 -314.553 39.9543 -277.905 37.7155C-232.207 33.5962 -186.688 28.1335 -139.109 32.9693C-91.3497 37.5364 -91.3498 52.3124 -91.529 68.3421C-91.529 82.4912 -91.5289 97.1776 -57.4794 105.595C-23.7883 114.551 12.3221 105.864 47.7158 96.7299C90.5465 85.2673 133.288 72.3719 171.459 86.7001C205.06 105.595 198.161 137.118 190.007 171.237C182.928 200.609 176.118 230.609 191.799 257.475C206.404 285.594 226.834 283.982 246.726 282.191C270.023 279.952 291.08 278.967 298.159 324.369C304.073 370.936 293.589 416.16 284.36 461.562C278.177 498.278 272.891 535.084 280.059 570.546C287.586 605.65 298.159 605.65 307.746 605.65C318.678 605.919 328.087 606.367 332.836 654.098C338.122 701.291 338.033 746.156 339.466 791.111C341.527 827.917 344.753 864.633 352.907 899.11C353.086 909.409 353.355 919.259 353.534 929.2C340.721 882.364 336.42 836.783 333.373 791.29C332.029 754.933 331.76 718.396 326.474 683.56C321.635 648.366 313.66 648.366 304.969 647.919C292.783 648.366 279.521 647.919 267.245 600.456C255.328 552.726 261.511 507.144 268.858 461.652C276.206 424.846 284.36 388.13 278.446 353.921C271.815 320.519 254.88 321.235 236.601 322.131C211.96 324.369 186.064 326.429 166.172 286.579C142.427 250.49 150.671 213.505 157.929 178.58C163.126 152.073 168.591 126.282 142.427 112.222C114.829 99.6851 80.4213 109.715 45.7445 118.849C2.5553 129.147 -41.7987 138.998 -87.3176 125.028C-134.001 111.954 -133.732 93.0583 -133.553 75.8644C-133.553 62.8795 -133.732 50.9691 -168.768 45.7751C-203.982 40.9394 -240.988 45.1483 -277.457 48.1035C-323.245 50.6109 -369.212 51.6855 -416.702 39.5961C-463.833 27.0589 -463.565 18.5515 -463.117 11.477C-463.296 6.46209 -463.117 2.52183 -497.704 -2.7617C-487.847 -2.5826 -477.991 -2.5826 -467.776 -2.5826H-467.955Z"/>
</mask>
<path d="M-377.366 -1.86619C-330.503 -2.31395 -330.503 -0.433367 -330.503 2.88003C-330.503 6.37254 -330.324 11.0292 -295.557 14.5217C-260.522 17.4769 -223.784 13.8949 -187.136 9.32774C-141.438 2.07407 -95.6508 -6.43331 -47.8918 -7.59748C-0.132935 -8.76165 -0.312134 3.14869 -0.312134 16.7605C-0.312134 28.5813 -0.13269 41.0289 34.0063 45.1483C67.3391 49.9841 103.27 38.9692 138.305 27.7753C180.867 13.8053 223.34 -1.86619 260.256 7.89491C292.066 22.6709 283.822 52.9393 274.414 85.8046C265.901 114.282 257.748 143.297 270.471 168.729C281.493 195.953 300.22 193.893 318.051 192.013C339.018 189.684 357.566 187.625 359 232.848C359 279.415 345.559 325.265 333.821 370.488C324.95 407.294 317.334 443.831 319.933 479.472C323.338 514.398 331.581 514.666 339.108 515.024C347.083 515.293 353.713 515.293 352.548 563.024C351.921 610.218 349.054 655.71 347.531 700.754C347.262 737.291 347.979 773.738 351.832 808.036C352.011 818.156 352.011 828.096 352.1 837.768C345.022 791.022 343.857 745.709 343.857 700.575C344.932 664.217 347.083 627.59 345.918 593.024C345.47 557.651 339.735 557.472 333.284 557.203C323.875 557.203 313.212 556.576 306.94 509.293C301.205 461.383 310.345 415.712 320.649 370.309C330.237 333.593 340.721 296.967 339.108 262.937C336.599 229.445 321.904 230.341 305.686 231.594C283.553 233.923 260.167 236.34 245.024 197.744C225.132 163.893 234.988 127.894 243.68 94.312C249.594 69.4167 256.224 44.7005 231.135 33.8648C204.612 24.5515 170.563 36.5514 136.065 48.0139C93.3242 60.6407 49.4181 73.357 4.25769 64.9391C-42.2467 57.5959 -42.2468 41.3871 -42.2468 26.9694C-42.426 16.2232 -42.5156 6.37254 -77.73 5.92478C-113.124 5.29792 -149.771 11.8352 -186.33 17.1187C-232.028 22.7604 -277.636 26.9694 -325.127 20.7903C-372.258 14.1635 -372.437 8.16356 -371.989 3.50689C-372.258 0.820352 -372.437 -0.881124 -407.025 -1.95574C-397.347 -1.95574 -387.133 -1.77664 -377.097 -1.95574L-377.366 -1.86619ZM-1106.47 615.232C-1099.66 661.889 -1098.5 707.291 -1098.41 752.515C-1099.75 788.872 -1101.55 825.32 -1100.65 860.245C-1100.02 895.349 -1094.47 895.439 -1088.01 895.886C-1078.7 895.886 -1067.85 896.155 -1061.76 943.796C-1055.85 991.527 -1065.17 1037.2 -1075.29 1082.6C-1084.61 1118.96 -1095.18 1155.85 -1093.57 1189.88C-1091.24 1223.47 -1076.46 1222.57 -1060.24 1221.41C-1038.28 1219.17 -1014.72 1216.57 -999.576 1255.17C-979.952 1289.38 -989.898 1325.29 -998.68 1359.05C-1004.68 1384.12 -1011.22 1408.66 -986.314 1419.58C-959.792 1428.72 -925.473 1416.63 -891.155 1405.43C-848.593 1392.63 -804.777 1380.09 -759.258 1388.15C-712.574 1395.4 -712.753 1411.7 -712.843 1426.3C-712.664 1437.05 -712.664 1446.81 -677.449 1447.34C-642.235 1447.97 -605.229 1441.43 -568.581 1435.88C-522.883 1430.42 -477.364 1426.3 -429.784 1432.21C-382.652 1439.02 -382.831 1445.19 -382.652 1449.31C-382.652 1452.27 -382.832 1453.88 -348.155 1455.05C-357.832 1455.05 -367.778 1454.87 -377.276 1454.87C-424.408 1455.31 -424.856 1453.52 -424.766 1450.12C-424.587 1446.45 -424.766 1442.15 -459.533 1438.66C-494.747 1435.52 -531.305 1439.11 -568.222 1443.85C-613.741 1451.11 -658.991 1459.43 -706.84 1460.69C-754.419 1461.85 -755.046 1450.03 -754.867 1436.69C-754.867 1424.87 -754.867 1412.24 -788.917 1407.94C-822.339 1403.37 -858.181 1414.12 -893.485 1425.58C-936.046 1439.55 -977.892 1454.78 -1014.99 1445.19C-1046.71 1430.33 -1038.55 1400.06 -1029.23 1367.37C-1020.54 1338.81 -1012.48 1309.88 -1025.11 1284.27C-1036.13 1257.05 -1054.86 1258.93 -1072.42 1260.81C-1093.48 1263.32 -1111.94 1264.93 -1113.19 1219.7C-1113.19 1173.14 -1099.75 1127.65 -1088.1 1082.51C-1079.41 1045.71 -1071.62 1008.99 -1074.57 973.617C-1077.71 938.423 -1086.04 938.244 -1093.39 938.065C-1101.37 937.617 -1108 937.17 -1106.83 889.797C-1106.2 842.514 -1103.34 797.38 -1101.81 752.604C-1101.63 715.799 -1102.44 679.53 -1105.94 644.874C-1106.11 635.023 -1106.2 625.173 -1106.2 615.143L-1106.47 615.232ZM-1108.09 524.159C-1095.27 570.904 -1090.88 616.397 -1087.66 661.889C-1086.76 698.426 -1086.49 734.694 -1081.29 769.619C-1076.28 804.544 -1068.21 804.813 -1059.52 805.26C-1047.6 804.992 -1034.07 804.992 -1022.07 852.723C-1010.15 900.364 -1016.15 945.946 -1023.59 991.527C-1030.67 1027.89 -1038.91 1064.78 -1033 1098.99C-1026.55 1132.57 -1009.61 1131.85 -991.332 1130.96C-966.87 1128.72 -940.975 1126.66 -921.172 1166.51C-897.427 1202.6 -905.671 1239.76 -913.108 1274.96C-918.395 1301.38 -923.681 1326.99 -897.606 1340.96C-870.008 1353.49 -835.78 1343.64 -800.834 1334.33C-757.824 1324.03 -713.918 1314.27 -667.951 1327.97C-621.447 1341.05 -621.716 1359.94 -621.716 1377.31C-621.716 1390.3 -621.716 1402.39 -586.501 1407.22C-551.287 1412.24 -514.639 1408.12 -477.812 1404.9C-432.114 1402.39 -386.326 1401.4 -338.926 1413.4C-291.615 1425.94 -292.063 1434.63 -292.242 1441.52C-292.421 1446.54 -292.421 1450.48 -257.655 1455.94C-267.78 1455.76 -277.726 1455.67 -287.403 1455.67C-334.445 1450.21 -334.535 1445.82 -334.535 1439.73C-334.266 1433.73 -334.266 1427.19 -369.032 1419.4C-404.247 1412.06 -440.895 1413.05 -477.722 1415.46C-523.062 1419.58 -568.581 1425.05 -616.339 1420.48C-663.919 1415.64 -664.188 1401.14 -664.188 1385.11C-664.009 1370.96 -663.919 1356.09 -698.058 1347.49C-731.66 1338.63 -767.77 1347.31 -803.074 1356.45C-846.084 1368.27 -888.377 1380.81 -926.638 1366.57C-960.24 1347.67 -953.34 1316.06 -945.365 1281.67C-938.107 1252.39 -931.208 1222.48 -946.978 1195.44C-961.225 1167.32 -981.745 1168.75 -1001.64 1170.54C-1025.02 1172.78 -1045.99 1173.94 -1052.71 1128.54C-1058.62 1081.97 -1048.14 1036.48 -1039.27 991.259C-1032.91 954.722 -1027.62 917.916 -1034.97 882.633C-1042.14 847.26 -1052.8 847.439 -1062.66 847.26C-1073.23 846.991 -1082.73 846.633 -1087.39 799.081C-1092.67 751.977 -1092.58 706.664 -1094.02 661.71C-1096.08 625.173 -1099.48 588.456 -1107.28 553.979C-1107.55 544.218 -1107.73 533.83 -1108 523.89L-1108.09 524.159ZM-1110.15 432.1C-1091.6 479.114 -1084.25 524.785 -1078.34 570.188C-1074.84 606.904 -1071.89 643.531 -1062.3 678.456C-1052.89 713.381 -1042.85 713.381 -1031.92 713.381C-1016.87 713.381 -1000.65 713.381 -982.551 761.022C-964.63 808.753 -967.677 854.245 -972.426 899.916C-977.175 936.453 -982.909 973.438 -972.695 1007.74C-961.942 1041.5 -942.946 1040.78 -922.785 1039.97C-895.725 1038.18 -867.41 1036.57 -842.769 1077.68C-815.081 1115.65 -821.443 1153.88 -827.626 1190.51C-831.747 1218.18 -836.317 1245.32 -808.898 1262.42C-780.315 1278.36 -745.548 1270.39 -710.513 1263.14C-666.876 1255.52 -622.701 1248.27 -576.466 1267.7C-529.782 1286.87 -529.782 1308.54 -530.23 1328.69C-530.409 1344 -530.409 1357.97 -495.284 1367.46C-460.249 1376.87 -423.064 1375.26 -386.236 1374.54C-340.449 1374.99 -294.482 1376.87 -246.992 1394.87C-199.86 1413.4 -199.95 1424.78 -200.308 1434.54C-200.487 1441.79 -200.756 1447.61 -166.259 1457.55C-176.115 1457.28 -186.151 1457.1 -196.007 1456.84C-243.139 1445.64 -243.139 1438.57 -242.691 1429.88C-242.422 1422.09 -242.243 1413.22 -277.188 1401.14C-312.224 1389.23 -348.961 1387.88 -386.057 1387.7C-431.845 1388.69 -477.274 1391.11 -524.943 1380.45C-572.254 1369.7 -572.702 1352.42 -572.344 1333.61C-572.165 1317.58 -572.075 1300.3 -606.393 1287.49C-640.264 1274.51 -676.374 1280.87 -712.036 1287.94C-755.494 1296.81 -798.056 1306.93 -837.661 1288.21C-873.144 1265.38 -867.589 1232.06 -860.958 1196.42C-855.044 1165.88 -849.579 1135.17 -868.485 1106.87C-886.047 1077.59 -908.717 1078.84 -930.312 1080.36C-956.207 1082.15 -979.863 1083.5 -992.318 1037.83C-1003.97 991.08 -996.44 945.319 -990.436 900.095C-986.583 863.29 -983.626 826.395 -995.454 791.201C-1007.28 756.007 -1020.18 756.097 -1032.01 756.097C-1045.54 755.918 -1057.46 755.918 -1068.21 708.634C-1079.41 661.53 -1082.37 615.77 -1086.94 570.546C-1091.51 533.562 -1097.24 496.845 -1109.34 462.279C-1109.61 452.249 -1109.79 442.398 -1110.06 432.1H-1110.15ZM-1112.66 340.041C-1088.01 386.876 -1078.07 432.548 -1068.93 478.577C-1063.02 515.293 -1058 551.92 -1044.02 586.845C-1030.22 621.77 -1017.68 621.77 -1004.41 622.038C-986.852 621.411 -967.587 621.591 -943.394 669.321C-919.559 716.873 -919.828 762.455 -921.441 808.574C-923.681 844.932 -927.176 881.827 -912.749 916.304C-897.875 950.334 -876.549 949.886 -854.148 949.349C-824.579 947.558 -793.755 946.393 -764.544 989.02C-732.735 1028.96 -737.305 1068.27 -741.875 1106.6C-745.1 1135.62 -748.953 1164.18 -720.101 1184.42C-690.352 1203.59 -655.317 1197.67 -619.744 1192.57C-575.838 1187.29 -531.484 1182.72 -484.98 1208.06C-438.117 1232.78 -438.117 1257.58 -438.117 1280.6C-438.565 1298.15 -438.565 1314.63 -403.53 1328.51C-368.495 1342.39 -331.488 1343.11 -294.392 1344.72C-248.605 1348.12 -202.907 1352.78 -155.506 1376.96C-108.195 1401.4 -108.195 1415.73 -108.375 1428.27C-108.823 1437.67 -109.091 1445.82 -74.325 1460.06C-84.4502 1459.79 -94.4859 1459.61 -104.522 1459.34C-151.474 1441.97 -151.384 1432.12 -151.026 1420.84C-150.847 1410.54 -150.578 1399.79 -185.344 1382.96C-220.379 1366.57 -257.565 1362.9 -294.482 1360.39C-340.001 1358.51 -385.788 1358.06 -433.547 1341.4C-480.948 1324.66 -480.858 1304.42 -480.948 1282.93C-480.679 1264.21 -480.321 1244.78 -514.818 1227.94C-549.047 1210.57 -585.426 1214.51 -621.357 1219.53C-664.994 1225.88 -708.273 1233.67 -749.222 1210.12C-786.587 1183.35 -781.748 1148.06 -776.91 1111.08C-772.519 1079.74 -768.218 1048.03 -790.171 1018.39C-811.228 988.035 -835.869 988.751 -859.614 990.005C-887.84 991.438 -914.094 992.333 -932.373 946.573C-949.935 899.737 -945.186 853.887 -942.229 808.484C-940.795 771.768 -939.899 734.963 -956.207 699.769C-972.605 664.665 -987.748 664.575 -1002 664.575C-1018.21 664.575 -1033.09 664.575 -1049.75 617.113C-1066.96 569.83 -1072.87 524.248 -1080.4 478.756C-1087.21 441.95 -1095.27 405.413 -1111.94 370.757C-1112.21 360.727 -1112.39 350.25 -1112.66 340.22V340.041ZM-1113.82 249.146C-1083.36 295.982 -1070.63 341.563 -1059.34 386.876C-1051.28 423.413 -1044.02 460.129 -1025.65 495.144C-1007.37 530.069 -992.497 530.069 -976.727 530.338C-955.939 530.338 -933.717 530.606 -903.52 578.069C-873.592 625.71 -871.263 671.202 -870.277 716.694C-870.456 753.231 -871.621 790.037 -852.894 824.962C-833.719 859.17 -810.332 858.543 -785.691 858.275C-753.434 857.29 -720.101 856.215 -686.231 900.095C-650.299 941.916 -653.525 982.483 -656.661 1022.06C-658.991 1052.6 -661.321 1082.51 -631.214 1105.79C-600.3 1128.18 -565.176 1124.33 -529.692 1121.11C-485.338 1118.33 -440.805 1116.36 -394.122 1147.35C-346.99 1177.88 -346.811 1205.29 -347.08 1231.44C-346.9 1251.5 -346.811 1270.48 -311.596 1288.75C-276.561 1307.02 -240.003 1309.97 -203.265 1313.82C-157.477 1319.73 -112.048 1327.26 -64.6478 1357.26C-17.3369 1387.61 -17.2473 1404.99 -17.2473 1420.66C-16.9784 1432.57 -16.9784 1443.49 18.1464 1461.94C7.84192 1461.76 -2.19373 1461.67 -12.0502 1461.31C-59.1819 1438.21 -59.1819 1425.4 -59.3611 1410.81C-59.1819 1398.27 -59.5403 1384.75 -94.3963 1363.7C-129.611 1343.11 -165.811 1337.2 -202.996 1332.45C-248.336 1327.97 -294.034 1324.66 -341.614 1301.82C-389.014 1279.17 -389.193 1255.97 -389.373 1231.26C-389.104 1210.3 -389.373 1188.54 -423.87 1167.32C-458.188 1145.65 -494.478 1148.06 -530.678 1150.66C-574.584 1154.51 -618.042 1159.79 -660.335 1131.68C-699.85 1100.69 -696.266 1063.71 -692.861 1025.29C-689.636 993.139 -686.947 960.184 -712.036 929.379C-736.319 897.857 -762.842 898.752 -788.827 899.289C-819.741 900.185 -848.683 901.17 -872.517 854.961C-895.904 807.947 -894.201 761.828 -893.753 716.784C-894.47 680.247 -896.083 643.441 -916.782 608.068C-937.57 572.964 -955.222 573.143 -971.888 572.875C-991.332 572.427 -1008.98 572.606 -1031.83 525.323C-1054.95 478.04 -1063.82 431.921 -1073.68 387.145C-1082.82 350.429 -1092.67 313.623 -1113.55 278.967C-1113.73 269.116 -1113.82 259.266 -1114 249.236L-1113.82 249.146ZM-1110.33 162.819C-1074.4 209.565 -1060.51 253.176 -1047.25 297.594C-1037.66 333.414 -1028.7 369.682 -1006.03 404.608C-983.447 439.533 -965.616 439.98 -946.978 440.697C-922.964 441.145 -896.71 442.488 -860.958 489.592C-825.296 536.696 -821.174 581.382 -817.68 626.337C-816.067 662.605 -814.991 699.142 -792.142 734.067C-768.845 768.365 -743.129 768.276 -716.158 768.097C-681.571 767.649 -645.282 767.201 -607.11 812.156C-567.505 855.499 -569.208 897.319 -570.91 937.976C-572.254 969.766 -573.688 1001.02 -542.327 1027.44C-510.338 1053.23 -475.124 1050.99 -439.372 1049.65C-395.286 1049.2 -351.022 1049.2 -304.249 1085.47C-257.386 1121.73 -256.848 1152.63 -256.669 1182C-256.221 1204.57 -255.504 1226.24 -220.559 1248.9C-185.523 1271.55 -149.503 1276.3 -113.123 1281.76C-68.5007 1290.18 -24.3259 1299.14 22.8058 1334.78C69.8478 1370.6 71.2816 1392.27 72.1776 1411.52C73.0736 1426.39 73.9697 1440.27 108.826 1462.93C98.7003 1463.1 88.4856 1462.93 78.8083 1462.75C31.4078 1433.73 31.4077 1417.7 30.9597 1399.88C30.0637 1384.3 29.4365 1368.09 -5.15063 1342.75C-40.1858 1317.85 -76.4755 1310.15 -112.407 1303.88C-157.657 1296.99 -203.176 1290.9 -250.755 1262.15C-298.066 1233.32 -298.156 1207.35 -298.156 1179.5C-298.783 1155.94 -298.783 1131.59 -333.191 1106.15C-367.778 1080.81 -404.068 1080.81 -439.551 1081.53C-484.353 1083.32 -528.259 1086.09 -571.717 1053.23C-613.114 1018.3 -610.605 979.706 -608.365 940.035C-606.483 906.633 -605.139 873.319 -633.006 841.171C-660.514 808.574 -689.277 808.753 -717.144 809.38C-750.835 809.648 -782.734 810.096 -812.124 763.529C-841.335 716.336 -842.231 670.665 -844.202 626.158C-846.891 589.8 -850.206 553.621 -875.116 518.606C-900.115 483.681 -920.635 483.055 -939.899 482.517C-962.838 481.443 -983.805 481.353 -1012.57 434.07C-1041.42 386.608 -1052.8 341.295 -1064.54 297.056C-1075.29 260.967 -1086.76 225.326 -1111.94 190.848C-1111.67 181.445 -1111.22 171.684 -1110.15 162.819H-1110.33ZM-1095.63 87.9538C-1054.86 133.625 -1042.14 173.117 -1029.5 214.4C-1019.02 248.699 -1009.34 283.265 -982.641 318.011C-955.849 352.31 -934.613 354.101 -913.108 355.892C-883.897 358.22 -852.984 361.533 -812.214 407.652C-771.713 453.771 -766.874 495.95 -762.573 539.203C-759.168 574.397 -756.839 609.949 -730.047 644.695C-702.807 678.903 -674.492 679.351 -645.192 679.62C-607.648 679.888 -568.76 680.336 -527.004 725.47C-484.442 769.798 -484.98 811.977 -485.428 853.797C-486.055 886.663 -486.772 919.17 -454.515 948.543C-421.63 977.109 -386.326 976.662 -350.843 976.841C-307.564 977.736 -264.196 978.901 -218.408 1020C-172.441 1060.84 -170.828 1095.85 -169.216 1128.99C-168.499 1154.51 -167.423 1179.05 -132.836 1206C-98.07 1232.69 -62.8557 1238.6 -27.8206 1245.32C14.0245 1253.82 55.2426 1262.6 101.209 1303.08C147.355 1343.91 151.477 1371.31 155.42 1395.85C157.212 1414.39 159.273 1431.85 193.86 1458.63C185.347 1459.79 176.297 1460.87 166.889 1461.13C119.757 1426.48 117.965 1406.06 115.456 1383.67C113.664 1364.51 111.603 1344.36 77.285 1315.35C42.9667 1286.33 8.46912 1278.36 -26.2972 1270.84C-69.9343 1262.87 -113.84 1255.08 -161.241 1220.6C-208.193 1185.94 -209.269 1156.48 -210.254 1124.87C-210.971 1098.63 -211.688 1071.41 -245.737 1042.21C-279.966 1013.02 -315.449 1011.68 -351.112 1011.14C-395.018 1010.96 -438.924 1011.86 -483.367 974.423C-526.556 935.647 -525.391 895.797 -524.316 854.514C-523.42 820.484 -522.972 786.455 -553.617 753.768C-583.813 720.634 -614.727 720.455 -644.654 720.366C-681.213 720.366 -715.8 720.187 -750.745 673.53C-785.691 626.516 -788.469 581.919 -792.322 537.95C-796.264 502.756 -800.744 467.92 -829.597 433.443C-858.629 399.145 -882.463 397.354 -904.864 395.831C-931.835 394.04 -956.835 392.608 -991.332 345.414C-1025.92 298.131 -1038.37 254.788 -1051.01 212.162C-1062.48 177.684 -1073.86 144.371 -1102.89 110.342C-1100.56 102.998 -1098.32 95.5657 -1095.81 87.9538H-1095.63ZM-1061.04 32.7006C-1016.69 76.3122 -1007.55 109.894 -997.246 145.446C-989.719 174.729 -980.58 206.43 -950.204 240.37C-919.828 274.131 -894.829 277.176 -867.858 281.922C-833.36 286.937 -796.891 292.668 -752.538 336.459C-708.363 380.25 -704.331 418.846 -700.119 458.428C-697.431 491.114 -694.564 525.502 -664.009 559.352C-633.543 593.113 -602.451 593.561 -570.462 594.904C-530.23 596.068 -488.833 596.785 -444.658 640.844C-400.483 684.724 -400.483 726.724 -400.483 769.171C-400.483 803.022 -400.484 836.693 -367.599 868.036C-334.625 899.289 -299.948 899.916 -265.809 900.274C-223.964 901.797 -183.194 903.409 -139.377 947.737C-95.6507 992.065 -92.425 1031.11 -89.5576 1068.54C-86.7799 1098.18 -84.8086 1126.12 -50.9384 1156.48C-17.068 1186.84 15.6376 1193.02 46.7301 1198.03C84.7222 1205.29 120.653 1212 164.291 1256.42C208.017 1300.75 216.44 1334.33 223.519 1365.76C229.97 1390.66 234.092 1412.51 268.141 1442.87C260.525 1445.37 253.088 1447.7 245.74 1450.12C199.505 1410.18 194.487 1384.12 190.186 1356.72C184.272 1331.37 178.538 1305.58 145.563 1273.79C112.679 1241.64 82.6613 1235.29 51.8375 1229.91C10.7092 1221.5 -30.2399 1213.7 -76.7443 1174.03C-122.89 1134.27 -125.31 1100.33 -127.012 1065.32C-129.521 1035.14 -131.582 1004.33 -164.287 972.184C-197.441 940.214 -230.863 938.692 -264.733 937.886C-308.012 936.543 -350.753 936.005 -395.824 894.812C-439.909 852.812 -439.909 811.529 -439.551 769.44C-439.372 735.142 -439.372 700.754 -471.808 668.247C-503.886 635.381 -536.95 634.934 -569.477 634.217C-608.365 633.59 -646.267 632.874 -685.962 586.934C-725.925 540.547 -729.599 497.651 -734.617 455.831C-737.753 423.413 -741.516 391.443 -773.326 358.399C-805.404 325.355 -833.719 321.862 -861.406 317.564C-892.499 314.34 -922.427 310.758 -962.032 264.639C-1001.91 218.251 -1013.46 178.043 -1026.01 138.55C-1034.25 109.715 -1042.76 80.9688 -1074.93 48.3721C-1070.99 42.6409 -1066.87 36.9096 -1060.95 32.8797L-1061.04 32.7006ZM-1000.83 3.32779C-954.684 43.0886 -949.845 69.2376 -945.455 96.5508C-939.541 121.894 -933.806 147.685 -900.922 179.654C-867.947 211.445 -837.751 217.803 -807.196 223.535C-766.247 231.952 -724.939 239.743 -678.614 279.415C-632.379 319.176 -630.138 352.936 -628.257 388.13C-625.748 418.219 -623.687 449.025 -590.892 481.084C-557.918 513.054 -524.406 514.577 -490.715 515.562C-447.436 516.905 -404.426 517.353 -359.624 558.725C-315.449 600.725 -315.539 641.829 -315.718 684.097C-315.718 718.306 -315.897 752.604 -283.64 785.201C-251.382 818.066 -218.229 818.514 -185.703 819.23C-146.815 819.678 -109.091 820.395 -68.8591 866.334C-29.2542 912.901 -25.222 955.349 -20.6522 997.617C-17.4264 1029.86 -13.7527 1062 18.0568 1095.05C50.0454 1128.09 78.4498 1131.76 106.137 1136.06C137.409 1139.2 167.427 1142.69 206.852 1188.99C246.816 1235.38 258.285 1275.32 270.919 1314.81C278.984 1343.82 287.586 1372.39 319.664 1405.25C315.811 1410.9 311.689 1416.45 305.686 1420.75C261.332 1376.87 252.013 1343.37 241.708 1307.91C234.361 1278.63 225.221 1246.93 194.845 1212.99C164.38 1179.14 139.47 1176.18 112.32 1171.44C77.8226 1166.42 41.4434 1160.51 -3.00024 1116.9C-47.1749 1073.11 -51.2072 1034.69 -55.329 994.572C-58.0171 961.886 -60.974 927.677 -91.4393 893.916C-122.084 860.155 -152.908 859.618 -185.165 858.364C-225.577 857.379 -266.794 856.484 -310.969 812.514C-355.144 768.634 -355.144 726.455 -355.502 684.187C-355.323 650.336 -355.233 616.576 -388.029 585.143C-421.182 553.89 -455.68 553.352 -489.819 552.726C-531.664 551.382 -572.434 549.591 -615.891 505.263C-659.797 460.935 -663.023 421.891 -665.801 384.279C-668.758 354.817 -670.819 326.966 -704.51 296.519C-738.559 266.161 -771.354 260.251 -802.178 254.967C-840.17 247.893 -876.012 241.087 -919.559 196.759C-963.286 152.431 -971.888 118.849 -978.967 87.4165C-985.418 62.3422 -989.719 40.5812 -1023.41 10.2232C-1016.06 7.89491 -1008.72 5.47702 -1001.01 3.14869L-1000.83 3.32779ZM-922.337 -8.04523C-875.385 26.7007 -873.592 46.9393 -871.084 69.3272C-869.292 88.4912 -867.141 108.998 -832.823 138.013C-798.594 166.849 -764.007 174.729 -729.24 182.341C-685.962 190.49 -641.697 198.102 -594.476 232.758C-547.344 267.236 -546.448 296.877 -545.284 328.399C-544.567 354.638 -543.671 381.861 -509.621 411.234C-475.572 440.607 -439.909 441.413 -404.605 442.309C-360.699 442.309 -316.704 441.771 -272.171 479.114C-228.892 517.711 -230.326 557.651 -231.401 599.024C-232.118 632.874 -232.386 666.904 -201.921 699.679C-171.545 732.724 -140.811 733.082 -110.615 732.992C-74.4146 732.813 -39.6482 733.172 -4.43384 779.828C30.3325 826.932 33.2894 871.17 36.9631 915.409C40.8162 950.96 45.2068 985.527 73.9697 1020.18C103.091 1054.39 127.015 1056.18 149.506 1057.62C176.297 1059.23 201.476 1061.02 235.974 1108.12C270.74 1155.23 282.837 1198.39 295.65 1241.29C307.119 1275.76 318.499 1309.08 347.62 1343.11C345.111 1350.81 342.782 1358.33 340.542 1365.49C299.413 1319.82 286.779 1280.15 274.235 1238.96C263.751 1204.66 254.074 1170.09 227.282 1135.53C200.49 1100.78 179.523 1099.17 157.929 1097.56C128.628 1095.23 97.6251 1091.91 56.7657 1045.97C16.3544 999.676 11.5156 957.587 7.125 914.424C4.16809 878.782 1.65918 843.23 -25.1323 808.753C-52.3719 774.455 -80.7765 774.007 -109.987 773.649C-147.89 773.38 -186.599 773.022 -228.444 727.978C-271.006 683.65 -270.558 641.471 -270.289 599.74C-269.662 566.695 -268.676 534.188 -300.933 504.995C-333.639 476.159 -369.481 476.696 -404.784 476.607C-447.974 475.622 -491.521 474.368 -536.95 433.443C-582.917 392.518 -584.53 357.235 -586.322 324.101C-587.308 298.758 -588.204 274.31 -622.881 247.445C-657.647 220.579 -693.04 214.579 -727.717 207.684C-769.741 199.266 -810.959 190.759 -856.926 150.102C-903.072 109.267 -907.284 82.0435 -910.957 56.9691C-913.018 38.7006 -914.9 21.3276 -949.218 -5.5378C-940.706 -6.52286 -932.104 -7.77658 -922.427 -8.04523H-922.337ZM-834.077 -9.83626C-787.035 19.3575 -787.393 35.1185 -786.497 53.1184C-785.781 68.8794 -784.885 85.2673 -750.118 110.431C-715.173 135.327 -679.152 142.849 -643.131 149.297C-598.239 156.102 -552.273 162.281 -504.783 191.117C-457.203 219.684 -457.472 245.743 -457.024 273.594C-456.755 297.146 -456.307 321.593 -421.809 347.116C-387.312 372.727 -351.201 372.279 -315.628 371.742C-271.275 369.951 -226.831 366.996 -183.642 400.22C-142.066 434.965 -144.754 473.473 -146.994 513.502C-148.786 546.636 -150.13 580.397 -122.263 612.367C-94.7546 644.874 -65.8126 644.337 -37.8561 643.889C-4.25464 643.441 27.3756 642.993 57.3033 689.56C86.5143 736.664 87.4999 782.067 89.292 827.201C91.8009 863.469 95.2059 900.006 120.116 935.02C145.295 969.945 165.635 970.214 185.258 970.841C208.107 971.736 229.164 971.826 257.748 1019.47C286.779 1066.75 298.069 1112.15 310.076 1156.39C320.65 1192.3 332.208 1228.39 357.387 1263.23C357.118 1272.54 356.67 1281.76 355.416 1290.81C319.485 1243.79 305.506 1200 292.514 1155.85C282.747 1119.76 273.966 1083.77 251.117 1048.84C228.447 1013.92 210.705 1013.2 192.157 1012.75C167.875 1011.86 141.621 1010.87 105.779 963.677C70.1167 916.483 65.9949 871.708 62.59 826.932C60.7979 790.395 60.2603 754.037 37.1425 719.381C13.7557 685.082 -12.2295 684.903 -39.021 685.351C-73.9666 685.53 -109.898 685.978 -148.159 641.292C-187.764 597.859 -186.061 555.949 -184.359 515.472C-183.194 483.502 -181.581 452.249 -212.942 425.921C-244.931 400.309 -280.414 402.19 -315.897 403.712C-360.072 403.981 -404.426 403.981 -450.841 367.623C-497.704 331.534 -498.6 300.459 -498.6 271.266C-499.496 248.878 -499.765 227.117 -534.8 204.371C-569.835 181.714 -606.214 177.147 -642.056 171.326C-686.947 162.908 -731.033 154.222 -777.985 118.401C-825.027 82.4017 -826.909 60.9093 -827.626 41.4767C-828.342 26.6112 -829.239 12.9098 -864.005 -9.92581C-854.417 -10.1049 -844.292 -9.92581 -833.988 -9.74671L-834.077 -9.83626ZM-743.219 -8.31389C-696.266 14.9695 -696.535 27.6858 -696.266 42.1035C-696.087 54.7303 -695.997 68.3421 -661.231 89.3867C-626.196 109.983 -589.369 115.804 -552.631 120.461C-507.381 125.207 -461.414 128.431 -413.745 151.267C-366.344 174.013 -366.434 197.207 -366.344 221.744C-366.344 242.788 -366.076 264.639 -331.578 285.952C-297.26 307.623 -260.97 305.385 -225.218 302.788C-181.133 298.847 -137.317 293.474 -95.2923 321.952C-55.6874 352.757 -59.1819 389.563 -62.766 427.891C-65.8126 460.309 -68.5007 493.174 -43.5012 524.159C-19.0393 555.681 7.66272 554.696 33.379 553.89C64.1133 552.815 93.1449 552.009 117.338 598.218C140.725 645.232 139.022 691.082 138.574 736.395C139.291 773.111 140.814 810.186 161.423 845.469C182.301 880.484 199.684 880.484 216.53 880.484C235.795 880.752 253.805 880.663 276.475 928.214C299.593 975.498 308.463 1021.17 318.32 1066.39C327.459 1103.2 337.585 1139.91 358.552 1174.84C358.731 1184.6 358.821 1194.54 359 1204.48C328.355 1157.47 315.542 1111.97 304.162 1066.57C296.098 1029.77 289.019 993.229 270.471 958.304C252.371 923.11 237.228 923.11 221.727 923.11C200.67 923.11 178.448 922.841 148.251 875.379C118.324 827.738 115.994 782.156 115.098 736.575C115.277 699.769 116.621 662.874 97.7148 628.396C78.45 594.098 54.9735 594.367 30.4221 595.083C-2.01453 595.979 -35.4369 596.874 -69.3071 553.084C-105.059 511.263 -102.013 470.428 -98.8765 431.204C-96.6364 400.667 -94.0378 370.668 -124.055 347.384C-154.969 324.817 -190.541 328.847 -225.666 332.071C-270.289 334.757 -315.091 336.817 -361.506 305.653C-408.637 275.027 -408.637 247.445 -408.189 221.385C-408.637 201.505 -408.817 182.61 -443.673 164.252C-478.887 145.983 -515.714 143.207 -552.273 139.356C-598.239 133.177 -643.758 125.655 -691.159 95.5657C-738.47 65.2078 -738.559 47.9244 -738.29 32.1633C-738.47 20.253 -738.47 9.32773 -773.326 -8.94075C-763.469 -8.76165 -753.434 -8.49299 -743.129 -8.31389H-743.219ZM-650.837 -5.98555C-604.153 11.3874 -604.601 21.1485 -604.601 32.6111C-604.87 42.4618 -605.049 53.6557 -570.104 70.3122C-535.158 86.7001 -498.062 90.0135 -461.056 92.8792C-415.537 94.6702 -369.391 95.2075 -321.811 112.043C-274.231 128.7 -274.679 148.849 -274.679 170.699C-274.859 189.147 -274.679 208.4 -240.361 225.684C-206.312 242.967 -169.932 238.669 -134.18 234.102C-90.7225 227.654 -46.8165 219.863 -6.31555 243.505C31.4077 270.37 26.3899 305.205 21.5513 342.369C16.9814 373.712 13.0389 405.593 35.0815 435.055C56.049 465.592 80.8691 464.338 104.614 463.174C132.571 461.831 159.093 460.846 177.552 506.786C194.935 553.8 190.365 599.203 187.229 644.695C185.616 681.68 184.989 718.485 201.207 753.768C217.605 788.962 232.748 788.962 246.905 788.783C263.213 788.962 278.267 788.962 294.754 836.514C311.958 883.797 318.051 929.2 325.398 974.423C332.477 1011.59 340.273 1048.39 357.029 1083.05C357.297 1093.53 357.656 1103.38 357.925 1113.41C333.194 1066.39 322.89 1020.72 314.198 974.781C308.194 938.065 303.177 901.439 289.019 866.603C275.22 831.589 262.765 831.409 249.504 831.409C231.583 831.857 212.497 831.678 188.394 783.947C164.559 736.306 164.649 690.724 166.262 644.963C168.771 607.979 172.265 571.263 157.839 536.696C142.786 502.845 121.46 503.293 98.8795 504.189C69.3103 505.621 38.6656 506.875 9.27551 464.249C-22.7131 424.309 -17.9641 384.996 -13.5735 346.936C-10.3477 317.743 -6.67395 289.176 -35.3473 268.937C-65.2749 249.952 -100.489 255.863 -135.704 260.967C-179.789 266.161 -224.412 270.728 -270.468 245.206C-317.51 220.311 -317.51 195.863 -317.152 172.669C-317.331 155.296 -316.973 138.64 -352.187 124.939C-387.222 111.058 -424.408 110.342 -461.056 108.551C-507.023 105.327 -552.81 100.401 -600.3 76.3122C-647.701 51.8646 -647.611 37.7155 -646.984 24.9097C-646.984 15.5068 -646.536 7.26805 -681.302 -6.79151C-671.446 -6.52286 -661.41 -6.16466 -650.927 -6.0751L-650.837 -5.98555ZM-559.172 -3.74677C-512.309 7.62626 -512.488 14.7008 -512.937 23.2082C-512.937 30.9992 -513.205 40.0439 -478.349 52.0437C-443.314 63.8645 -406.128 65.0287 -369.66 65.4765C-323.872 64.4914 -278.084 61.9839 -230.415 72.7301C-182.835 83.3867 -183.015 100.76 -183.104 119.476C-183.283 135.864 -183.104 152.789 -148.965 165.774C-115.274 178.848 -78.9844 172.401 -43.322 165.326C-0.0432129 156.461 42.9667 146.341 82.4821 165.147C117.965 187.983 112.051 221.385 105.779 256.758C99.8652 287.116 94.5786 317.922 113.306 346.22C131.137 375.593 153.717 374.25 175.491 372.727C201.297 371.115 225.042 369.503 237.497 415.354C249.325 462.01 241.798 507.771 235.705 552.994C231.762 589.979 228.626 626.784 240.275 662.157C252.461 697.082 265.364 697.082 277.102 697.172C290.542 697.441 302.729 697.351 313.302 744.813C324.502 791.917 327.549 837.499 332.029 882.901C336.778 919.707 342.154 956.423 354.699 990.9C354.878 1001.2 355.147 1011.05 355.416 1021.08C336.599 974.065 329.162 928.662 323.427 883.349C319.753 846.544 316.976 809.828 307.209 775.082C297.89 739.888 287.765 739.888 276.833 740.067C261.78 740.246 245.561 739.888 227.372 692.336C209.54 644.605 212.766 598.934 217.515 553.531C222.175 516.547 227.999 479.741 217.784 445.353C206.852 411.772 187.856 412.309 167.696 413.384C140.277 415.175 112.141 416.607 87.5895 375.503C59.7227 337.534 66.0845 299.295 72.2672 262.937C76.1201 235.266 80.7795 207.863 53.2711 190.848C24.6875 174.908 -10.2581 183.057 -44.8452 190.132C-88.9304 197.923 -133.105 204.997 -178.893 185.386C-225.756 166.222 -225.756 144.729 -225.128 124.401C-225.397 109.357 -225.397 95.0284 -260.522 85.6255C-295.736 76.3122 -332.653 78.1032 -369.122 78.551C-415.358 78.1032 -461.056 76.3122 -508.456 58.2228C-555.767 39.6857 -555.588 28.3126 -555.05 18.5515C-555.23 11.477 -554.871 5.29792 -589.548 -4.46318C-579.691 -4.19452 -569.656 -3.83632 -559.351 -3.74677H-559.172ZM-467.955 -2.5826C-421.272 3.05914 -421.092 7.62626 -421.092 13.5366C-421.272 19.2679 -421.361 25.8947 -386.595 33.5962C-351.649 41.1185 -314.553 39.9543 -277.905 37.7155C-232.207 33.5962 -186.688 28.1335 -139.109 32.9693C-91.3497 37.5364 -91.3498 52.3124 -91.529 68.3421C-91.529 82.4912 -91.5289 97.1776 -57.4794 105.595C-23.7883 114.551 12.3221 105.864 47.7158 96.7299C90.5465 85.2673 133.288 72.3719 171.459 86.7001C205.06 105.595 198.161 137.118 190.007 171.237C182.928 200.609 176.118 230.609 191.799 257.475C206.404 285.594 226.834 283.982 246.726 282.191C270.023 279.952 291.08 278.967 298.159 324.369C304.073 370.936 293.589 416.16 284.36 461.562C278.177 498.278 272.891 535.084 280.059 570.546C287.586 605.65 298.159 605.65 307.746 605.65C318.678 605.919 328.087 606.367 332.836 654.098C338.122 701.291 338.033 746.156 339.466 791.111C341.527 827.917 344.753 864.633 352.907 899.11C353.086 909.409 353.355 919.259 353.534 929.2C340.721 882.364 336.42 836.783 333.373 791.29C332.029 754.933 331.76 718.396 326.474 683.56C321.635 648.366 313.66 648.366 304.969 647.919C292.783 648.366 279.521 647.919 267.245 600.456C255.328 552.726 261.511 507.144 268.858 461.652C276.206 424.846 284.36 388.13 278.446 353.921C271.815 320.519 254.88 321.235 236.601 322.131C211.96 324.369 186.064 326.429 166.172 286.579C142.427 250.49 150.671 213.505 157.929 178.58C163.126 152.073 168.591 126.282 142.427 112.222C114.829 99.6851 80.4213 109.715 45.7445 118.849C2.5553 129.147 -41.7987 138.998 -87.3176 125.028C-134.001 111.954 -133.732 93.0583 -133.553 75.8644C-133.553 62.8795 -133.732 50.9691 -168.768 45.7751C-203.982 40.9394 -240.988 45.1483 -277.457 48.1035C-323.245 50.6109 -369.212 51.6855 -416.702 39.5961C-463.833 27.0589 -463.565 18.5515 -463.117 11.477C-463.296 6.46209 -463.117 2.52183 -497.704 -2.7617C-487.847 -2.5826 -477.991 -2.5826 -467.776 -2.5826H-467.955Z" stroke="#403730" stroke-opacity="0.12" stroke-width="3" mask="url(#path-2-inside-1_57_1066)"/>
</g>
</svg>
