<svg width="25" height="25" fill="none" xmlns="http://www.w3.org/2000/svg"><path d="M16.758 12.622a4.136 4.136 0 11-8.272 0 4.136 4.136 0 018.272 0z" fill="#000"/><path d="M19.485 0H5.515A5.52 5.52 0 000 5.515v13.97A5.52 5.52 0 005.515 25h13.97A5.52 5.52 0 0025 19.485V5.515A5.52 5.52 0 0019.485 0zM12.5 19.393A6.901 6.901 0 015.607 12.5 6.901 6.901 0 0112.5 5.607a6.901 6.901 0 016.893 6.893 6.901 6.901 0 01-6.893 6.893zm7.904-13.419a1.379 1.379 0 110-2.757 1.379 1.379 0 010 2.757z" fill="#000"/></svg>