<svg width="25" height="25" fill="none" xmlns="http://www.w3.org/2000/svg"><g clip-path="url(#clip0)"><path d="M23.407 0H1.597C.714 0 0 .714 0 1.595v21.81C0 24.285.714 25 1.597 25h21.808c.88 0 1.595-.715 1.595-1.595V1.595A1.592 1.592 0 0023.407 0zm-2.67 15.234c.458.465 1.45 1.247 1.27 2.042-.167.73-1.257.465-2.315.507-1.209.051-1.925.077-2.652-.507-.342-.276-.543-.605-.871-.972-.299-.331-.674-.926-1.186-.903-.92.046-.632 1.327-.958 2.2-5.109.805-7.16-2.351-8.97-5.414-.877-1.484-2.144-4.67-2.144-4.67l3.613-.012s1.159 2.108 1.466 2.651c.261.462.549.83.845 1.242.249.343.642 1.013 1.073.958.7-.09.827-2.807.393-3.717-.173-.369-.588-.497-1.016-.623.144-.913 4.052-1.104 4.684-.395.917 1.03-.635 3.899.62 4.735 1.765-.924 3.271-4.795 3.271-4.795l4.23.027s-.66 2.092-1.354 3.02c-.404.543-1.745 1.753-1.692 2.651.043.711 1.133 1.403 1.694 1.975z" fill="#030104"/></g><defs><clipPath id="clip0"><path fill="#fff" d="M0 0h25v25H0z"/></clipPath></defs></svg>