<?xml version="1.0" encoding="utf-8"?><svg viewBox="0 0 34 23" xmlns="http://www.w3.org/2000/svg" xmlns:xlink="http://www.w3.org/1999/xlink"><style>:root>svg{display:none}:root>svg:target{display:block}</style><svg viewBox="0 0 9 6" id="icon-arrowBot" xmlns="http://www.w3.org/2000/svg"><path d="M1.139 1l3.663 3.664L8.466 1" stroke="#4C4C4C"/></svg><svg viewBox="0 0 12 14" id="icon-basket" xmlns="http://www.w3.org/2000/svg"><path d="M1.333 12.445c0 .86.696 1.555 1.556 1.555H9.11c.86 0 1.556-.696 1.556-1.555V3.11H1.333v9.334zM8.722.778L7.944 0H4.056l-.778.778H.556v1.555h10.888V.778H8.722z" fill="#4D4D4D"/></svg><svg viewBox="0 0 15 15" id="icon-cart" xmlns="http://www.w3.org/2000/svg"><g clip-path="url(#cclip0)" fill="#4D4D4D"><path d="M12.065 11.091c-.899 0-1.63.683-1.63 1.522s.731 1.522 1.63 1.522c.899 0 1.63-.683 1.63-1.522s-.731-1.522-1.63-1.522zm0 2.435c-.54 0-.978-.41-.978-.913 0-.504.439-.913.978-.913.54 0 .978.41.978.913 0 .503-.439.913-.978.913zM5.544 11.091c-.9 0-1.63.683-1.63 1.522s.73 1.522 1.63 1.522c.898 0 1.63-.683 1.63-1.522s-.732-1.522-1.63-1.522zm0 2.435c-.54 0-.979-.41-.979-.913 0-.504.44-.913.979-.913.539 0 .978.41.978.913 0 .503-.44.913-.978.913zM13.37 9.874H5.843c-.774 0-1.447-.514-1.599-1.224L2.602.988a.321.321 0 00-.32-.245H.327C.146.743 0 .88 0 1.048c0 .168.146.304.326.304h1.69L3.604 8.77c.212.992 1.154 1.713 2.238 1.713h7.527c.18 0 .326-.137.326-.305 0-.168-.146-.304-.326-.304z"/><path d="M14.919 2.672a.338.338 0 00-.245-.103H2.935c-.18 0-.326.137-.326.305 0 .168.146.304.326.304h11.37l-.464 3.461c-.061.456-.478.8-.97.8H3.912c-.18 0-.326.136-.326.304 0 .168.146.305.326.305h8.957c.82 0 1.517-.573 1.618-1.333l.51-3.804a.29.29 0 00-.08-.239z"/></g><defs><clipPath id="cclip0"><path fill="#fff" transform="translate(0 .439)" d="M0 0h15v14H0z"/></clipPath></defs></svg><svg viewBox="0 0 20 17" id="icon-heard" xmlns="http://www.w3.org/2000/svg"><path d="M18.203 1.996c-2.066-1.966-5.429-1.966-7.496 0l-.43.408-.429-.408C7.781.03 4.418.03 2.351 1.996 1.336 2.96.777 4.242.777 5.6c0 1.36.56 2.64 1.574 3.606l7.467 7.089a.664.664 0 00.918 0l7.467-7.09c1.015-.965 1.574-2.245 1.574-3.605 0-1.36-.559-2.64-1.574-3.605zm-.918 6.244l-7.008 6.653L3.27 8.24c-.748-.71-1.16-1.648-1.16-2.639 0-.99.412-1.928 1.16-2.64A4.094 4.094 0 016.1 1.85c1.024 0 2.05.371 2.83 1.113l.888.845a.666.666 0 00.918 0l.89-.845c1.56-1.484 4.098-1.484 5.658 0 .748.711 1.16 1.648 1.16 2.639 0 .99-.412 1.928-1.16 2.639z" fill="#fff"/></svg><svg viewBox="0 0 23 23" id="icon-inst" xmlns="http://www.w3.org/2000/svg"><g clip-path="url(#eclip0)" fill="#CCA75D"><path d="M4.137 22.063h15.555a3.226 3.226 0 003.223-3.223V3.286A3.226 3.226 0 0019.692.063H4.137A3.226 3.226 0 00.915 3.286V18.84a3.226 3.226 0 003.222 3.223zM2.204 3.286c0-1.067.867-1.934 1.933-1.934h15.555c1.066 0 1.934.867 1.934 1.934V18.84a1.936 1.936 0 01-1.934 1.934H4.137a1.936 1.936 0 01-1.933-1.934V3.286z"/><path d="M11.915 16.864c3.198 0 5.8-2.603 5.8-5.801 0-3.199-2.602-5.8-5.8-5.8a5.807 5.807 0 00-5.801 5.8c0 3.198 2.602 5.8 5.8 5.8zm0-10.313a4.517 4.517 0 014.512 4.512 4.517 4.517 0 01-4.512 4.512 4.517 4.517 0 01-4.512-4.512 4.517 4.517 0 014.512-4.512zM18.36 6.551a1.936 1.936 0 001.934-1.933 1.936 1.936 0 00-1.934-1.934 1.936 1.936 0 00-1.933 1.934c0 1.066.867 1.933 1.933 1.933zm0-2.578a.645.645 0 11-.002 1.29.645.645 0 01.002-1.29z"/></g><defs><clipPath id="eclip0"><path fill="#fff" transform="translate(.915 .063)" d="M0 0h22v22H0z"/></clipPath></defs></svg><svg viewBox="0 0 15 15" id="icon-pen" xmlns="http://www.w3.org/2000/svg"><g clip-path="url(#fclip0)"><path d="M5.296 13.124L1.894 9.722l8.229-8.23 3.402 3.403-8.23 8.229zm-3.72-2.803l3.12 3.12L.018 15l1.559-4.68zM14.57 3.853l-.59.59-3.407-3.407.59-.59a1.522 1.522 0 012.153 0L14.571 1.7a1.53 1.53 0 010 2.153z" fill="#4D4D4D"/></g><defs><clipPath id="fclip0"><path fill="#fff" d="M0 0h15v15H0z"/></clipPath></defs></svg><svg viewBox="0 0 12 16" id="icon-person" xmlns="http://www.w3.org/2000/svg"><path d="M.13 14.409c.115.062 2.841 1.53 5.87 1.53 3.281 0 5.774-1.473 5.879-1.536A.25.25 0 0012 14.19c0-2.018-.619-3.866-1.743-5.201-.786-.935-1.772-1.571-2.86-1.865a3.25 3.25 0 10-2.794 0c-1.088.294-2.074.93-2.86 1.865C.619 10.323 0 12.17 0 14.189a.25.25 0 00.13.22zm3.12-10.22a2.75 2.75 0 115.5 0 2.75 2.75 0 01-5.5 0zM2.125 9.31C3.141 8.104 4.516 7.44 6 7.44s2.86.664 3.875 1.87c1.02 1.214 1.595 2.89 1.624 4.734-.535.29-2.758 1.396-5.499 1.396-2.535 0-4.922-1.113-5.499-1.402.03-1.84.604-3.515 1.624-4.727z" fill="#4D4D4D"/></svg><svg viewBox="0 0 12 13" id="icon-search" xmlns="http://www.w3.org/2000/svg"><path d="M11.927 12.013L8.276 8.362A4.726 4.726 0 009.5 5.19 4.756 4.756 0 004.75.44 4.756 4.756 0 000 5.19a4.756 4.756 0 004.75 4.75c1.22 0 2.33-.466 3.172-1.225l3.65 3.651a.25.25 0 00.355 0 .25.25 0 000-.353zM4.75 9.44A4.255 4.255 0 01.5 5.19 4.255 4.255 0 014.75.94 4.255 4.255 0 019 5.19a4.255 4.255 0 01-4.25 4.25z" fill="#7C7C7C"/></svg><svg viewBox="0 0 21 23" id="icon-social" xmlns="http://www.w3.org/2000/svg"><path d="M16.564 14.914c-1.084 0-2.07.43-2.798 1.128l-4.324-2.68a4.69 4.69 0 00.384-1.862 4.69 4.69 0 00-.384-1.863l4.324-2.679a4.03 4.03 0 002.798 1.128 4.048 4.048 0 004.043-4.043A4.048 4.048 0 0016.564 0a4.048 4.048 0 00-4.043 4.043c0 .658.159 1.28.439 1.83L8.737 8.489A4.709 4.709 0 005.11 6.783 4.722 4.722 0 00.393 11.5c0 2.6 2.116 4.717 4.716 4.717a4.709 4.709 0 003.628-1.706l4.223 2.616a4.02 4.02 0 00-.439 1.83A4.048 4.048 0 0016.564 23a4.048 4.048 0 004.043-4.043 4.047 4.047 0 00-4.043-4.043zm0-13.566a2.698 2.698 0 012.696 2.695 2.698 2.698 0 01-2.696 2.695 2.698 2.698 0 01-2.695-2.695 2.698 2.698 0 012.695-2.695zM5.11 14.869A3.373 3.373 0 011.74 11.5a3.373 3.373 0 013.37-3.37 3.373 3.373 0 013.369 3.37 3.373 3.373 0 01-3.37 3.37zm11.455 6.783a2.698 2.698 0 01-2.695-2.695 2.698 2.698 0 012.695-2.695 2.698 2.698 0 012.696 2.695 2.698 2.698 0 01-2.696 2.695z" fill="#fff"/></svg><svg viewBox="0 0 22 21" id="icon-tel" xmlns="http://www.w3.org/2000/svg"><path d="M.654 10.326l5.135 2.681a.632.632 0 00.623-.02l4.571-2.785-2.766 2.569a.703.703 0 00-.222.515v6.256c0 .66.804.938 1.181.414l2.22-3.092 5.49 3.275c.385.232.879-.001.968-.462l3.424-17.875c.102-.537-.408-.975-.882-.776L.708 9.07c-.528.217-.562.991-.054 1.256zm19.101-7.562l-3.009 15.71-5.202-3.104a.639.639 0 00-.85.184l-1.386 1.931v-3.89L16.79 6.65c.592-.549-.089-1.525-.765-1.109l-9.966 6.07-3.493-1.823 17.19-7.024z" fill="#CCA75D"/></svg><svg viewBox="0 0 34 20" id="icon-vk" xmlns="http://www.w3.org/2000/svg"><path d="M32.125 14.694c-.718-.855-1.528-1.618-2.311-2.356-.276-.26-.56-.527-.835-.794-.37-.358-.55-.612-.569-.8-.018-.184.108-.458.4-.862.436-.609.9-1.218 1.35-1.807.4-.524.813-1.066 1.209-1.61l.088-.123c.773-1.063 1.572-2.163 2-3.502.122-.384.249-.953-.057-1.452-.307-.499-.874-.647-1.275-.715a3.232 3.232 0 00-.553-.036L26.56.633c-.866-.015-1.468.394-1.795 1.214a28.95 28.95 0 01-.93 2.134c-.687 1.39-1.559 2.99-2.822 4.324l-.057.06c-.086.09-.226.24-.298.274-.137-.085-.295-.574-.288-.83v-.02l-.004-5.757a.641.641 0 00-.006-.088C20.248 1.123 20.029.3 18.72.043a.659.659 0 00-.126-.012h-5.213c-.98 0-1.5.446-1.915.93-.12.141-.44.516-.277.974.165.464.656.556.817.587.568.107.862.426.953 1.037.18 1.185.202 2.454.07 3.99-.038.412-.106.726-.217.986a.758.758 0 01-.076.144.766.766 0 01-.142-.08c-.399-.271-.7-.693-.99-1.102-1.163-1.63-2.14-3.433-2.99-5.509C8.267 1.138 7.61.663 6.767.65 5.161.624 3.676.624 2.23.652c-.683.012-1.162.226-1.424.636-.262.41-.252.934.029 1.556 2.01 4.442 3.833 7.674 5.915 10.479 1.465 1.974 2.94 3.345 4.643 4.313 1.788 1.018 3.805 1.516 6.144 1.516.266 0 .537-.007.811-.02 1.444-.065 2.031-.636 2.095-2.034.036-.739.119-1.337.406-1.857.08-.146.17-.243.242-.261.076-.019.21.027.36.124.273.176.509.416.703.626.196.214.394.435.586.648.409.455.831.925 1.274 1.373 1 1.015 2.155 1.48 3.431 1.382l4.586.003c.015 0 .03 0 .044-.002a1.544 1.544 0 001.255-.799c.323-.57.318-1.29-.014-1.93-.346-.665-.795-1.237-1.19-1.71zm.06 2.999c-.064.111-.142.131-.182.136l-4.585-.002c-.018 0-.036 0-.054.002-.904.075-1.671-.24-2.414-.993-.42-.427-.833-.885-1.231-1.328-.195-.216-.395-.44-.597-.66-.25-.27-.56-.583-.957-.84-.594-.384-1.087-.372-1.396-.295-.305.077-.74.295-1.073.9-.432.783-.527 1.627-.566 2.424-.022.488-.105.617-.14.65-.045.043-.197.118-.703.14-2.433.115-4.475-.319-6.243-1.325-1.538-.874-2.885-2.131-4.238-3.955C5.782 9.82 4 6.663 2.032 2.31a1.103 1.103 0 01-.1-.31c.05-.016.149-.037.32-.04 1.434-.028 2.903-.029 4.494-.002.218.003.466.068.654.525.887 2.169 1.911 4.056 3.132 5.77.325.456.728 1.022 1.321 1.425.543.37.984.353 1.259.273.274-.08.655-.302.911-.906.166-.39.266-.828.315-1.381.142-1.643.117-3.009-.079-4.297-.137-.923-.617-1.59-1.372-1.93.134-.07.285-.099.495-.099h5.145c.29.065.346.14.366.166.083.11.131.371.16.575l.005 5.704c-.012.547.255 1.76 1.165 2.093a.584.584 0 00.023.007c.828.27 1.376-.312 1.67-.624l.053-.056c1.384-1.461 2.316-3.168 3.045-4.643.38-.762.7-1.55.973-2.23.136-.34.26-.396.555-.39h.012l5.017.005c.117 0 .239.001.333.017.24.04.338.09.37.11.004.038.003.147-.07.374-.363 1.14-1.067 2.107-1.811 3.132l-.09.123c-.386.532-.794 1.068-1.19 1.586a77.106 77.106 0 00-1.372 1.837c-.954 1.323-.87 2.202.32 3.356.282.274.57.545.85.808.79.745 1.537 1.448 2.204 2.243.35.418.745.92 1.034 1.475.15.29.113.552.036.688z" fill="#CCA75D"/></svg><svg viewBox="0 0 25 20" id="icon-youtube" xmlns="http://www.w3.org/2000/svg"><path d="M15.934 8.99l-5.302-2.902a.965.965 0 00-.964.017.965.965 0 00-.477.838v5.752c0 .346.177.658.474.836a.971.971 0 00.961.022l5.302-2.852a.974.974 0 00.006-1.712zm-5.337 2.981V7.672L14.56 9.84l-3.963 2.131z" fill="#CCA75D"/><path d="M24.064 5.264l-.002-.01c-.02-.194-.222-1.912-1.058-2.786-.965-1.028-2.06-1.153-2.586-1.213a6.298 6.298 0 01-.12-.014l-.041-.004c-3.173-.231-7.965-.263-8.013-.263h-.008c-.048 0-4.84.032-8.041.263l-.042.004-.113.014c-.52.06-1.603.185-2.571 1.25C.673 3.369.443 5.05.419 5.24l-.002.024C.41 5.344.24 7.258.24 9.18v1.795c0 1.921.17 3.835.177 3.916l.001.012c.02.19.223 1.877 1.054 2.751.908.994 2.056 1.125 2.673 1.196.098.01.182.02.24.03l.055.008c1.832.174 7.575.26 7.819.264h.015c.048 0 4.839-.032 8.012-.263l.042-.004.134-.015c.518-.055 1.595-.17 2.55-1.22.795-.865 1.025-2.546 1.049-2.735l.003-.024c.007-.081.176-1.995.176-3.916V9.18c0-1.922-.17-3.835-.176-3.916zm-1.23 5.711c0 1.779-.156 3.61-.17 3.778-.06.463-.303 1.527-.69 1.948-.598.658-1.212.723-1.66.77a7 7 0 00-.15.017c-3.069.222-7.68.256-7.892.257-.238-.003-5.898-.09-7.674-.255a6.191 6.191 0 00-.293-.038c-.526-.06-1.245-.142-1.798-.75l-.013-.015c-.381-.397-.617-1.391-.677-1.929-.011-.127-.17-1.98-.17-3.783V9.18c0-1.777.155-3.606.17-3.777.07-.546.318-1.545.69-1.95.615-.677 1.265-.752 1.695-.801l.114-.014c3.114-.223 7.758-.256 7.924-.258.167.002 4.81.035 7.895.258l.124.015c.442.05 1.11.126 1.722.78l.006.006c.38.397.616 1.409.676 1.957.01.12.17 1.977.17 3.784v1.795z" fill="#CCA75D"/></svg></svg>