<svg width="58" height="58" viewBox="0 0 58 58" fill="none" xmlns="http://www.w3.org/2000/svg">
<path d="M56.3207 50.7067C56.3203 50.6965 56.3207 50.6863 56.3203 50.6761L55.7215 42.865C55.6552 41.9698 55.1569 41.1579 54.3883 40.6937L54.252 40.6114L53.8962 38.0001C54.356 37.6178 54.7321 37.1386 54.9927 36.5934C55.002 36.5744 55.0109 36.5554 55.0188 36.5359C55.2609 36.0098 55.3972 35.4248 55.3972 34.8088V31.6639C55.3972 29.8811 53.9462 28.431 52.1634 28.431H50.3274C48.8158 28.431 47.5436 29.4735 47.1909 30.8767C47.1772 30.9032 47.1644 30.9302 47.1533 30.9586C47.0949 31.1059 47.0816 31.259 47.1046 31.4046C47.098 31.49 47.0936 31.5763 47.0936 31.6635V34.8088C47.0936 36.2695 47.8529 37.5554 48.9972 38.2953L48.7609 40.6481C48.7123 40.6857 48.6667 40.7277 48.6273 40.7751L43.4925 46.9232L39.9352 46.9104C39.8666 46.9095 39.8051 46.9175 39.7418 46.9321C39.1108 47.0772 38.551 47.3733 38.0952 47.7773V46.6157C38.0952 44.3045 36.6239 42.2553 34.434 41.5167L32.9653 41.0224C32.7268 40.9428 32.5108 40.8061 32.3387 40.6251C32.0599 40.3344 31.9064 39.9503 31.9064 39.5445V37.963L32.406 37.659C33.2808 37.1257 33.8246 36.1575 33.8246 35.1323V32.5308C33.8246 32.5281 33.8246 32.5255 33.8246 32.5228V30.2536C33.8246 28.4456 32.3546 26.9742 30.5479 26.9742H27.5437C25.737 26.9742 24.2674 28.4456 24.2674 30.2536V32.21V32.2126V35.1323C24.2674 36.1575 24.8108 37.1257 25.6861 37.659L26.1861 37.9639V39.5449C26.1861 39.9777 26.0042 40.395 25.6887 40.6892C25.5263 40.8406 25.3374 40.9525 25.1254 41.0233L23.6585 41.5167C21.4686 42.2553 19.9972 44.3041 19.9972 46.6161V47.8428C19.5291 47.4056 18.9436 47.0852 18.2794 46.9325C18.2162 46.9179 18.1551 46.9104 18.0861 46.9109L14.5288 46.9232L9.39394 40.7755C9.35455 40.7282 9.30942 40.6857 9.2603 40.6481L9.024 38.2953C10.1683 37.5554 10.9281 36.2695 10.9281 34.8088V31.6639C10.9281 31.5763 10.9232 31.4904 10.9166 31.4046C10.9396 31.259 10.9263 31.1059 10.8684 30.959C10.8569 30.9307 10.8445 30.9032 10.8303 30.8771C10.4781 29.4735 9.20587 28.431 7.69383 28.431H5.85876C4.07547 28.431 2.62494 29.8815 2.62494 31.6639V34.8088C2.62494 35.4252 2.76079 36.0098 3.00284 36.5359C3.0108 36.5554 3.01965 36.5748 3.02895 36.5939C3.28958 37.1386 3.66571 37.6178 4.12547 38.0001L3.7697 40.6118L3.63385 40.6941C2.86522 41.1583 2.36652 41.9703 2.30058 42.8633L1.70187 50.6766C1.70099 50.6868 1.70143 50.6969 1.70099 50.7071C1.70055 50.7186 1.69922 50.7297 1.69922 50.7416V52.9024C1.69922 55.7132 3.98697 58 6.79909 58H51.2226C54.0347 58 56.3225 55.7132 56.3225 52.9019V50.7412C56.3225 50.7292 56.3211 50.7182 56.3207 50.7067ZM50.3274 30.1302H52.1634C53.0094 30.1302 53.698 30.8183 53.698 31.6639V34.8066L52.8138 34.1862V33.3923C52.8138 32.7197 52.4094 32.125 51.7837 31.8776L49.061 30.8001C49.3375 30.3961 49.8017 30.1302 50.3274 30.1302ZM48.7928 32.5215L51.1146 33.4401V34.2225C51.1146 34.7526 51.3735 35.2513 51.808 35.5562L53.0714 36.4425C52.6222 36.9439 51.97 37.2598 51.2452 37.2598C49.8929 37.2598 48.7928 36.1602 48.7928 34.8088V32.5215ZM51.2456 38.959C51.6076 38.959 51.9589 38.9121 52.2939 38.8245L52.4306 39.8277C51.8085 39.7011 51.1686 39.7047 50.5504 39.8374L50.6429 38.9148C50.8398 38.9436 51.0407 38.959 51.2456 38.959ZM40.0356 48.6101L43.8859 48.6238H43.889C44.1407 48.6238 44.3797 48.5123 44.5408 48.3189L49.8619 41.9482C50.8071 41.2977 52.0386 41.2587 53.0258 41.8557L53.5095 42.1477C53.8077 42.3283 54.0011 42.6433 54.0272 42.9929L54.556 49.8916H50.4168V46.9179L50.9279 46.3812C51.2518 46.0413 51.2385 45.5037 50.8987 45.1798C50.5593 44.8563 50.0212 44.8696 49.6977 45.209L45.2382 49.8916H38.6603C38.8758 49.2756 39.3798 48.7906 40.0356 48.6101ZM33.8914 43.127C35.3898 43.6323 36.396 45.0346 36.396 46.6157V49.8916H30.3868L31.5417 48.7278C31.7634 48.5043 31.8435 48.1764 31.7493 47.876L30.0762 42.5301C30.5749 42.4584 31.0661 42.3416 31.5475 42.1809C31.8143 42.3747 32.1113 42.5287 32.4254 42.6336L33.8914 43.127ZM27.8853 38.9635C28.2566 39.1228 28.6513 39.2029 29.0465 39.2029C29.4412 39.2029 29.8363 39.1228 30.2076 38.9635V39.5449C30.2076 39.9578 30.2846 40.36 30.4306 40.7344C29.9655 40.845 29.4916 40.9078 29.0119 40.9185C28.5464 40.9282 28.0849 40.8888 27.6309 40.8043C27.7964 40.4087 27.8853 39.9803 27.8853 39.5449V38.9635ZM28.9925 44.7559L29.9748 47.8945L28.9823 48.8942L28.0995 47.9105L28.9925 44.7559ZM27.5442 28.6735H30.5483C31.4183 28.6735 32.1259 29.3824 32.1259 30.2536V31.3537L28.0243 30.0342C27.8079 29.9647 27.5725 29.9846 27.3707 30.0895L25.9671 30.8223V30.2536C25.9671 29.3824 26.6746 28.6735 27.5442 28.6735ZM25.9671 32.7392L27.842 31.7608L32.1259 33.1388V35.1323C32.1259 35.569 31.8944 35.981 31.5223 36.208L29.6996 37.3187C29.2965 37.5638 28.796 37.5638 28.3933 37.3187L26.5706 36.208C26.1985 35.981 25.9671 35.569 25.9671 35.1323V32.7392ZM24.201 43.1274L25.6653 42.6345C25.9392 42.5433 26.1958 42.4177 26.433 42.2597C26.8972 42.3991 27.3703 42.4986 27.849 42.5566L26.337 47.8981C26.2574 48.1786 26.3273 48.48 26.522 48.6968L27.5942 49.8916H21.6969V46.6157C21.6969 45.0342 22.7032 43.6319 24.201 43.1274ZM6.77652 37.2598C6.0517 37.2598 5.39989 36.9439 4.9503 36.4425L6.2141 35.5562C6.64819 35.2513 6.9075 34.7526 6.9075 34.2225V33.4401L9.22888 32.5215V34.8088C9.22888 36.1602 8.12881 37.2598 6.77652 37.2598ZM5.85876 30.1302H7.69427C8.21997 30.1302 8.6846 30.3961 8.96117 30.8001L6.23843 31.8776C5.61273 32.125 5.20828 32.7197 5.20828 33.3923V34.1862L4.32416 34.8066V31.6639C4.32416 30.8183 5.01225 30.1302 5.85876 30.1302ZM6.77652 38.959C6.98096 38.959 7.1823 38.9436 7.37877 38.9148L7.47169 39.8374C6.85307 39.7047 6.21365 39.7016 5.59149 39.8281L5.72823 38.825C6.0632 38.9121 6.41455 38.959 6.77652 38.959ZM3.99493 42.9907C4.0206 42.6433 4.21397 42.3283 4.51266 42.1477L4.99588 41.8557C5.98355 41.2587 7.21504 41.2981 8.15979 41.9482L13.4809 48.3189C13.6424 48.5123 13.8814 48.6238 14.1332 48.6238H14.1358L17.9861 48.6101C18.6418 48.7906 19.1463 49.2756 19.3614 49.8916H12.784L8.32396 45.209C8.00049 44.8691 7.46284 44.8563 7.123 45.1798C6.78316 45.5033 6.77032 46.0413 7.0938 46.3812L7.60489 46.9179V49.8916H3.46614L3.99493 42.9907ZM54.6232 52.9019C54.6232 54.7759 53.0979 56.3008 51.223 56.3008H6.79909C4.92419 56.3008 3.39844 54.7759 3.39844 52.9019V51.5908H7.60489V51.7988C7.60489 52.6758 7.93588 53.5108 8.53636 54.1507C8.70363 54.3286 8.92931 54.4184 9.15587 54.4184C9.36429 54.4184 9.57315 54.3423 9.73732 54.1883C10.0794 53.867 10.0962 53.3294 9.77493 52.9869C9.47137 52.6639 9.30411 52.2422 9.30411 51.7988V48.7021L11.5795 51.0908V51.4979C11.5795 53.3281 13.0689 54.8171 14.9 54.8171H18.4786C18.9476 54.8171 19.3282 54.437 19.3282 53.9675C19.3282 53.4984 18.9476 53.1179 18.4786 53.1179H14.9C14.0407 53.1179 13.3358 52.4462 13.2827 51.6005H20.326C20.3676 51.6005 20.4083 51.5965 20.4486 51.5908H37.5735C37.6134 51.5965 37.6545 51.6005 37.6961 51.6005H44.9125C44.8589 52.4462 44.1545 53.1179 43.2951 53.1179H22.1155C21.6465 53.1179 21.2659 53.4984 21.2659 53.9675C21.2659 54.437 21.6465 54.8171 22.1155 54.8171H43.2951C45.1258 54.8171 46.6152 53.3281 46.6152 51.4979V50.9456C46.6152 50.9341 46.6139 50.9226 46.6135 50.9111L48.7176 48.7021V51.7988C48.7176 52.2422 48.5508 52.6639 48.2472 52.9869C47.9259 53.3294 47.9427 53.867 48.2848 54.1883C48.4485 54.3423 48.6578 54.4184 48.8663 54.4184C49.0928 54.4184 49.3185 54.3286 49.4858 54.1507C50.0862 53.5108 50.4168 52.6758 50.4168 51.7988V51.5908H54.6232V52.9019Z" fill="#151F59"/>
<path d="M5.0481 25.2564H5.19058C5.78531 26.5171 7.05486 27.3256 8.45494 27.3256C9.85635 27.3256 11.1255 26.5167 11.7184 25.2564H23.9152C24.9741 25.2564 25.8737 24.5732 26.2029 23.6253C26.9251 24.1515 27.8074 24.4533 28.7394 24.4533C29.8881 24.4533 30.9616 23.9957 31.7519 23.2222C31.9391 24.3736 32.9374 25.2564 34.141 25.2564H46.3382C46.9325 26.5167 48.2016 27.3256 49.6013 27.3256C51.0018 27.3256 52.2713 26.5167 52.8656 25.2564H53.0081C54.344 25.2564 55.4313 24.1696 55.4313 22.8337V9.48155C55.4313 8.14563 54.344 7.05884 53.0081 7.05884H46.1214C45.6519 7.05884 45.2718 7.43939 45.2718 7.90845C45.2718 8.37794 45.6519 8.75806 46.1214 8.75806H53.0081C53.4072 8.75806 53.732 9.08286 53.732 9.48155V22.8341C53.732 23.2328 53.4072 23.5572 53.0081 23.5572H52.7634C52.1501 23.5572 51.5965 23.9187 51.3527 24.4789C51.0491 25.1759 50.3615 25.6263 49.6013 25.6263C48.8415 25.6263 48.1547 25.1759 47.8507 24.4785C47.6069 23.9192 47.0533 23.5572 46.44 23.5572H34.141C33.7419 23.5572 33.4171 23.2328 33.4171 22.8341V21.8589H40.568C42.1247 21.8589 43.3911 20.5924 43.3911 19.0361V2.82274C43.3916 1.26645 42.1247 0 40.568 0H16.9108C15.3536 0 14.0871 1.26645 14.0871 2.82274V7.05884H5.0481C3.71217 7.05884 2.62494 8.14563 2.62494 9.48155V10.6874C2.62494 11.1564 3.00549 11.537 3.47455 11.537C3.94405 11.537 4.32416 11.1564 4.32416 10.6874V9.48155C4.32416 9.08286 4.64896 8.75806 5.0481 8.75806H14.0871V19.0361C14.0871 20.5924 15.3536 21.8589 16.9108 21.8589H24.6391V22.8341C24.6391 23.2328 24.3143 23.5572 23.9152 23.5572H11.6171C11.0033 23.5572 10.4493 23.9187 10.205 24.4794C9.90237 25.1759 9.21561 25.6263 8.45494 25.6263C7.69472 25.6263 7.00706 25.1759 6.70351 24.4785C6.45969 23.9192 5.90611 23.5572 5.2928 23.5572H5.0481C4.64896 23.5572 4.32416 23.2328 4.32416 22.8341V14.2655C4.32416 13.796 3.94405 13.4159 3.47455 13.4159C3.00549 13.4159 2.62494 13.796 2.62494 14.2655V22.8341C2.62494 24.1696 3.71217 25.2564 5.0481 25.2564ZM15.7864 19.0361V2.82274C15.7864 2.20323 16.2908 1.69922 16.9108 1.69922H40.568C41.1879 1.69922 41.6919 2.20323 41.6919 2.82274V19.0361C41.6919 19.6556 41.1879 20.1596 40.568 20.1596H32.7042C32.6055 20.1596 32.5082 20.1689 32.413 20.1853C32.4051 20.1866 32.3967 20.188 32.3887 20.1897C31.836 20.2924 31.3612 20.6601 31.1324 21.1858C30.7182 22.1385 29.7788 22.754 28.7394 22.754C27.7004 22.754 26.7609 22.1385 26.3463 21.1858C26.075 20.5623 25.4582 20.1596 24.7745 20.1596H16.9108C16.2908 20.1596 15.7864 19.6556 15.7864 19.0361Z" fill="#151F59"/>
<path d="M19.3206 6.54248H37.6961C38.1652 6.54248 38.5457 6.16237 38.5457 5.69287C38.5457 5.22337 38.1652 4.84326 37.6961 4.84326H19.3206C18.8516 4.84326 18.471 5.22337 18.471 5.69287C18.471 6.16237 18.8516 6.54248 19.3206 6.54248Z" fill="#151F59"/>
<path d="M19.3206 10.9077H37.6961C38.1652 10.9077 38.5457 10.5276 38.5457 10.0581C38.5457 9.58905 38.1652 9.2085 37.6961 9.2085H19.3206C18.8516 9.2085 18.471 9.58905 18.471 10.0581C18.471 10.5276 18.8516 10.9077 19.3206 10.9077Z" fill="#151F59"/>
<path d="M30.0868 14.4238C30.0868 13.9543 29.7062 13.5742 29.2372 13.5742H19.3206C18.8516 13.5742 18.471 13.9543 18.471 14.4238C18.471 14.8929 18.8516 15.2734 19.3206 15.2734H29.2372C29.7062 15.2734 30.0868 14.8929 30.0868 14.4238Z" fill="#151F59"/>
</svg>
