<svg width="70" height="70" viewBox="0 0 70 70" fill="none" xmlns="http://www.w3.org/2000/svg">
<g clip-path="url(#clip0)">
<path d="M55.4015 59.0956H51.3171C50.7504 59.0956 50.2911 59.5549 50.2911 60.121C50.2911 60.6876 50.7504 61.1464 51.3171 61.1464H55.4015C55.9676 61.1464 56.4269 60.6876 56.4269 60.121C56.4269 59.5549 55.9676 59.0956 55.4015 59.0956Z" fill="#151F59"/>
<path d="M37.5694 59.0513L34.2785 56.1711C33.8523 55.7989 33.2045 55.8416 32.8312 56.2678C32.4584 56.694 32.5017 57.3418 32.9279 57.7151L36.2187 60.5947C36.4131 60.7646 36.654 60.8484 36.8938 60.8484C37.179 60.8484 37.4631 60.7299 37.666 60.4981C38.0388 60.0719 37.9956 59.4246 37.5694 59.0513Z" fill="#151F59"/>
<path d="M23.7597 59.0956H19.6752C19.1086 59.0956 18.6498 59.5549 18.6498 60.121C18.6498 60.6876 19.1086 61.1464 19.6752 61.1464H23.7597C24.3263 61.1464 24.7856 60.6876 24.7856 60.121C24.7856 59.5549 24.3263 59.0956 23.7597 59.0956Z" fill="#151F59"/>
<path d="M5.92804 59.0513L2.63718 56.1711C2.211 55.7989 1.56319 55.8416 1.18988 56.2678C0.817106 56.694 0.860365 57.3418 1.28654 57.7151L4.57741 60.5947C4.7718 60.7646 5.01266 60.8484 5.25246 60.8484C5.53764 60.8484 5.82176 60.7299 6.02417 60.4981C6.39748 60.0719 6.35422 59.4246 5.92804 59.0513Z" fill="#151F59"/>
<path d="M69.7143 11.2718C69.4745 10.9445 69.1055 10.7271 68.7028 10.6769L54.523 8.8985C53.9383 8.8248 53.3663 9.10518 53.0656 9.61093C52.7644 10.1172 52.7911 10.7538 53.1345 11.2323L56.4045 15.7921L41.3703 24.7157L33.0635 10.2091C32.7778 9.71026 32.2886 9.37167 31.7209 9.28035C31.1532 9.18902 30.5823 9.35618 30.1545 9.74017L15.446 22.9309C15.0241 23.3095 14.9889 23.9573 15.367 24.3792C15.7451 24.8006 16.3929 24.8358 16.8154 24.4577L31.3796 11.3963L39.9737 26.4038C40.1467 26.7067 40.4282 26.9224 40.7657 27.0111C41.1027 27.1003 41.4536 27.0511 41.7543 26.8727L58.1274 17.1545C58.4473 16.9649 58.6743 16.6477 58.7501 16.284C58.8265 15.9203 58.7464 15.5384 58.5295 15.2367L55.5597 11.0951L67.8494 12.6364L65.5743 24.9651L62.5921 20.7621C62.1911 20.197 61.437 20.0341 60.8388 20.3834L55.5068 23.4927C55.3193 23.5584 55.1361 23.6406 54.9599 23.7426L52.7863 24.9977C52.5855 25.1136 52.4023 25.2492 52.2373 25.3998L50.2746 26.5443C50.1331 26.5657 49.9916 26.5972 49.8511 26.6404C49.771 26.6645 49.6946 26.6986 49.6231 26.7414L38.4458 33.4299L30.7756 21.2881C30.2261 20.4187 29.1035 20.1495 28.2191 20.6761L18.2157 26.6383C18.2135 26.6394 18.2114 26.6394 18.2092 26.6404C18.1297 26.6645 18.0533 26.6986 17.9817 26.7414L6.82259 33.4192L13.9362 27.0394C14.3582 26.6613 14.3934 26.0129 14.0153 25.5915C13.6372 25.1696 12.9888 25.1344 12.5669 25.513L0.468905 36.3624C-0.0726294 36.8479 -0.155942 37.6559 0.275042 38.2412C0.549548 38.6145 0.973056 38.8153 1.40511 38.8153C1.65131 38.8153 1.90018 38.7507 2.12662 38.6156L2.73491 38.253C3.07831 38.7518 3.54828 39.1587 4.11278 39.4306C5.09598 39.9054 6.22338 39.9022 7.20444 39.422L11.7963 37.1763L9.40743 48.845C9.37165 49.0228 9.27499 49.1851 9.1372 49.3032C8.70568 49.6701 8.65334 50.3174 9.02024 50.7483C9.22318 50.9871 9.51157 51.1094 9.80157 51.1094C10.0366 51.1094 10.2726 51.0293 10.4654 50.8653C10.9519 50.4519 11.2895 49.88 11.4166 49.2572L12.0083 46.3894C12.5877 47.3288 13.3771 48.1485 14.3464 48.7771L13.4599 50.9641C13.3296 51.2279 13.0353 51.409 12.5343 51.7011C12.4703 51.739 12.4046 51.7769 12.3389 51.8159L6.50323 55.1591L5.96703 54.7169L7.27174 53.5997C7.70165 53.2312 7.75185 52.5839 7.38335 52.154C7.01539 51.7235 6.36811 51.6733 5.93766 52.0418L4.11812 53.6002C3.78434 53.8843 3.59475 54.2993 3.59902 54.7377C3.60222 55.1762 3.79876 55.5874 4.13575 55.8646L5.44259 56.9434C5.73258 57.1816 6.09414 57.3039 6.4573 57.3039C6.72967 57.3039 7.00364 57.235 7.24984 57.0956L13.3653 53.5922C13.3696 53.5895 13.3739 53.5869 13.3782 53.5842C13.4422 53.5463 13.5058 53.5094 13.5683 53.4731C14.2049 53.1009 14.9269 52.68 15.3301 51.8068C15.3371 51.7919 15.3435 51.7769 15.3494 51.762L16.1366 49.8207L18.3791 51.1094C18.833 51.37 19.0958 51.8757 19.0488 52.3975L18.6541 56.7357C18.6237 57.071 18.7364 57.4059 18.9633 57.6548C19.1908 57.9031 19.5139 58.0457 19.8504 58.0457H22.3087C22.87 58.0457 23.3512 57.6638 23.4783 57.1186L24.9982 50.6324C25.2577 49.8276 25.1547 48.9566 24.7125 48.2335C24.7002 48.2137 24.6874 48.1945 24.674 48.1752L19.6576 41.0974L22.4091 33.6654C22.4107 33.6606 22.4123 33.6563 22.4139 33.6515C22.6377 33.0203 22.7557 32.3709 22.7733 31.7241C22.9244 31.746 23.0761 31.7583 23.2273 31.7583C23.7752 31.7583 24.3157 31.6146 24.8027 31.3332L26.9763 30.0782C28.4856 29.2066 29.0047 27.2696 28.1331 25.7603L27.6364 24.8999C27.4132 24.5133 27.1152 24.1864 26.7654 23.9306L29.1286 22.5223L36.6855 34.4841L34.31 35.9058C33.9314 36.1322 33.7402 36.5755 33.8352 37.0065C34.0708 38.073 34.7704 38.9569 35.7541 39.4311C36.7373 39.9059 37.8647 39.9027 38.8458 39.4226L47.9109 34.9888C48.4193 34.74 48.6303 34.1258 48.3814 33.6174C48.1325 33.1084 47.5183 32.898 47.0094 33.1469L37.9448 37.5806C37.532 37.7825 37.0583 37.7835 36.6444 37.5838C36.4495 37.4898 36.2807 37.3574 36.1466 37.1961L38.6444 35.7013L50.8594 28.5775C51.0714 28.6138 51.2674 28.7243 51.4084 28.9016L51.4517 28.9556C51.5029 29.0779 51.5612 29.198 51.629 29.3155L52.1257 30.1759C52.1262 30.177 52.1267 30.178 52.1278 30.1791C52.4397 31.0656 52.4482 32.0414 52.1241 32.9605L49.4671 40.1377L45.5423 39.6837L45.0387 39.625L45.0643 39.4968C45.1754 38.9414 44.8155 38.4009 44.2601 38.2898C43.7046 38.1798 43.1642 38.5387 43.0531 39.0941L41.0493 48.8417C41.0119 49.0223 40.9158 49.1862 40.7753 49.3053L35.7589 53.6002C35.4257 53.8849 35.2366 54.2993 35.2403 54.7383C35.2441 55.1762 35.4401 55.5874 35.7771 55.8646L37.0812 56.9407C37.3712 57.1805 37.7333 57.3039 38.0981 57.3039C38.3705 57.3039 38.6444 57.235 38.8917 57.0951L45.0067 53.5917C45.0109 53.589 45.0152 53.5869 45.0195 53.5842C45.0836 53.5463 45.1466 53.5094 45.2091 53.4731C45.8462 53.1009 46.5683 52.68 46.9715 51.8063C46.9784 51.7919 46.9848 51.7769 46.9907 51.762L47.7779 49.8207L50.0204 51.1088C50.4744 51.37 50.7371 51.8757 50.6896 52.3975L50.2954 56.7357C50.265 57.071 50.3777 57.4059 50.6047 57.6542C50.8316 57.9031 51.1553 58.0457 51.4917 58.0457H53.95C54.5102 58.0457 54.9914 57.6644 55.1196 57.1186L56.6401 50.6324C56.8991 49.8276 56.796 48.9566 56.3538 48.2329C56.3415 48.2137 56.3287 48.1939 56.3153 48.1752L51.2989 41.0974L54.0504 33.6654C54.052 33.6606 54.0536 33.6563 54.0552 33.6515C54.279 33.0203 54.3975 32.3703 54.4146 31.7241C54.5658 31.746 54.7174 31.7583 54.8686 31.7583C55.4165 31.7583 55.957 31.6146 56.4441 31.3332L58.6177 30.0782C60.1269 29.2066 60.646 27.2696 59.7744 25.7603L59.2778 24.8999C59.0935 24.5811 58.8575 24.3045 58.5846 24.0721L61.3013 22.4881L64.6808 27.2503C65.0258 27.7374 65.6261 27.9681 66.2088 27.8399C66.7914 27.7112 67.2384 27.2493 67.3468 26.6618L69.9755 12.4163C70.0492 12.0169 69.9541 11.5998 69.7143 11.2718ZM23.0409 50.0193C23.0296 50.0519 23.02 50.085 23.0126 50.1192L21.6352 55.9944H20.7807L21.091 52.5828C21.2106 51.2664 20.5473 49.9894 19.4007 49.3309L15.7253 47.2187C13.7376 46.0764 12.6775 43.8787 12.9904 41.6432L13.7728 41.7334L17.9363 42.2157L22.9773 49.3272C23.0969 49.5382 23.1204 49.7886 23.0409 50.0193ZM20.4833 32.9605L17.8258 40.1371L13.7173 39.6624L13.3974 39.625L14.1146 36.0425L16.2695 34.9883C16.778 34.7394 16.9889 34.1253 16.74 33.6168C16.4912 33.1079 15.877 32.8975 15.3681 33.1463L12.7672 34.4185C12.7613 34.4211 12.756 34.4238 12.7506 34.4265L6.30349 37.5801C5.8912 37.7819 5.41749 37.783 5.00359 37.5833C4.80866 37.4893 4.64043 37.3574 4.50638 37.1972L18.9826 28.5689C19.2806 28.5395 19.5754 28.6597 19.7676 28.9011L19.8103 28.955C19.8616 29.0768 19.9198 29.1975 19.9877 29.315L20.4843 30.1759C20.4854 30.177 20.4859 30.178 20.4865 30.1791C20.7989 31.0656 20.8069 32.0414 20.4833 32.9605ZM25.9509 28.3019L23.7773 29.5569C23.5204 29.7054 23.2214 29.7449 22.9351 29.6675C22.6889 29.6018 22.478 29.4565 22.3295 29.2541C22.1522 28.8119 21.9247 28.3857 21.6443 27.9857C21.537 27.5227 21.7378 27.0234 22.1703 26.7739L24.344 25.5189C24.5154 25.4201 24.705 25.3694 24.8972 25.3694C24.9939 25.3694 25.0906 25.3822 25.1867 25.4078C25.473 25.4847 25.7122 25.6684 25.8607 25.9248L26.3574 26.7852C26.6634 27.3155 26.4807 27.9959 25.9509 28.3019ZM45.1017 50.9641C44.9709 51.2285 44.6772 51.409 44.1757 51.7016C44.1116 51.739 44.0464 51.7769 43.9807 51.8159L38.1451 55.1591L37.6089 54.7169L42.1073 50.8653C42.5906 50.4541 42.9286 49.8832 43.0584 49.2572L43.6496 46.3899C44.2291 47.3293 45.019 48.1485 45.9883 48.7771L45.1017 50.9641ZM54.6827 50.0193C54.6715 50.0519 54.6619 50.085 54.6539 50.1192L53.2766 55.9944H52.4221L52.7323 52.5828C52.852 51.2664 52.1887 49.9894 51.0426 49.3309L47.3672 47.2187C45.3794 46.0764 44.3188 43.8787 44.6318 41.6432L45.6176 41.7569L49.5777 42.2157L54.6186 49.3272C54.7383 49.5382 54.7618 49.7886 54.6827 50.0193ZM56.5386 25.3694C56.6352 25.3694 56.7324 25.3822 56.828 25.4078C57.1143 25.4847 57.3536 25.6684 57.502 25.9248L57.9987 26.7852C58.3047 27.3155 58.1226 27.9959 57.5923 28.3019L55.4187 29.5569C55.1623 29.7054 54.8627 29.7449 54.5765 29.6675C54.3303 29.6018 54.1193 29.4565 53.9708 29.2541C53.7935 28.8119 53.566 28.3857 53.2862 27.9863C53.2082 27.6503 53.2931 27.2968 53.5094 27.0319L56.3175 25.3945C56.3901 25.3795 56.4643 25.3694 56.5386 25.3694Z" fill="#151F59"/>
</g>
<defs>
<clipPath id="clip0">
<rect width="70" height="70" fill="white"/>
</clipPath>
</defs>
</svg>
