<svg width="74" height="49" viewBox="0 0 74 49" fill="none" xmlns="http://www.w3.org/2000/svg">
<path d="M62.1199 44.7283H64.7266C65.0557 44.7283 65.3673 44.5787 65.5728 44.3218C65.7789 44.0643 65.8568 43.7279 65.7846 43.4066L64.0485 35.681L68.5227 44.1507C68.7102 44.5058 69.0794 44.7283 69.4814 44.7283H72.088C72.4279 44.7283 72.7486 44.5685 72.9535 44.2969C73.1584 44.0254 73.2239 43.6731 73.1302 43.3456L69.9144 32.1169C69.8805 31.9966 69.889 31.8673 69.9387 31.7527L73.9088 22.6574C73.9105 22.6529 73.9121 22.6478 73.9138 22.6433C73.9201 22.6298 73.9246 22.6151 73.9302 22.601C73.937 22.5823 73.9443 22.5643 73.95 22.5451C73.9511 22.5406 73.9534 22.5361 73.9545 22.5315C73.9562 22.5265 73.9573 22.5208 73.9584 22.5152C73.9607 22.5078 73.9624 22.4999 73.9647 22.492C73.9686 22.4762 73.9731 22.4598 73.9765 22.4435C73.9788 22.4333 73.9805 22.4226 73.9827 22.4124C73.985 22.3994 73.9861 22.3864 73.9884 22.3735C73.9895 22.3622 73.9918 22.3514 73.9929 22.3396C73.9946 22.3232 73.9957 22.3068 73.9968 22.2899C73.9974 22.2764 73.9985 22.2628 73.9985 22.2493C73.9985 22.2453 73.9991 22.2419 73.9991 22.238C73.9991 22.2363 73.9991 22.234 73.9991 22.2323C73.9991 22.2261 74.0002 22.2199 74.0002 22.2137L73.9155 12.0079C73.915 11.9943 73.915 11.9808 73.9144 11.9672C73.8568 10.7094 73.3092 9.5537 72.3726 8.71305C72.1998 8.55836 72.0186 8.41835 71.8294 8.29245C72.2376 7.9283 72.5487 7.46535 72.7294 6.93295L73.5305 4.56852C74.0985 2.89344 73.1974 1.06874 71.5223 0.500776L70.5868 0.183486C69.7755 -0.0914607 68.905 -0.0338744 68.1371 0.344954C67.3682 0.724912 66.794 1.38038 66.5185 2.19224L65.7174 4.5561C65.3369 5.6796 65.6169 6.86916 66.3474 7.70303L51.253 8.6916C50.6794 8.72942 50.2351 9.20762 50.2396 9.78235C50.2492 10.9646 50.7195 12.0723 51.563 12.9011C52.4065 13.7293 53.5153 14.1781 54.7014 14.168L55.7826 14.1606V16.4505C55.7826 16.8915 55.4241 17.25 54.9832 17.25H41.5023C41.0614 17.25 40.7029 16.8915 40.7029 16.4505V2.96909C40.7029 2.52759 41.0614 2.16852 41.5023 2.16852H54.9832C55.4241 2.16852 55.7826 2.52759 55.7826 2.96909V5.11108C55.7826 5.70952 56.2681 6.19506 56.8666 6.19506C57.4656 6.19506 57.9511 5.70952 57.9511 5.11108V2.96909C57.9511 1.33239 56.6199 0 54.9832 0H41.5023C39.8656 0 38.5349 1.33183 38.5349 2.96909V16.4505C38.5349 18.0872 39.8656 19.4185 41.5023 19.4185H54.9832C56.6199 19.4185 57.9511 18.0872 57.9511 16.4505V14.1454L64.0564 14.1025L64.3889 21.7067L57.1443 29.242C56.118 30.2837 55.9119 31.8741 56.63 33.1399L61.1178 44.0564C61.2844 44.4629 61.6807 44.7283 62.1199 44.7283ZM67.952 30.8861C67.7007 31.4614 67.6578 32.1106 67.8306 32.7136L70.65 42.5603H70.1346L64.4206 31.742C64.4177 31.7363 64.4149 31.7307 64.4115 31.7256L64.3026 31.5184C64.2693 31.4552 64.2292 31.3953 64.184 31.3394C64.0547 31.1808 64.0112 30.9691 64.0643 30.7816L66.2989 23.2186L71.2688 23.2858L67.952 30.8861ZM67.7707 5.25279L68.5719 2.88835C68.6611 2.62526 68.8474 2.41242 69.0963 2.28991C69.242 2.21821 69.3984 2.18151 69.5559 2.18151C69.6683 2.18151 69.7812 2.20014 69.8901 2.2374L70.8256 2.55413C71.3687 2.73818 71.6606 3.32985 71.4766 3.8724L70.6755 6.23684C70.5863 6.49993 70.3999 6.71277 70.151 6.83585C69.902 6.95836 69.6197 6.97756 69.3572 6.88779L68.4217 6.57106C67.8786 6.38701 67.5867 5.79534 67.7707 5.25279ZM56.875 11.9848C56.8722 11.9848 56.8694 11.9842 56.8666 11.9842C56.8626 11.9842 56.8587 11.9848 56.8553 11.9848L54.6828 12C54.0748 12.0051 53.5119 11.7764 53.0822 11.3541C52.9061 11.1819 52.7627 10.9855 52.6537 10.7726L69.1065 9.69484C69.7772 9.65307 70.4231 9.87777 70.9239 10.3266C71.4201 10.772 71.7114 11.3824 71.747 12.0474L71.8221 21.1241L66.5304 21.0524L66.2255 14.0872L67.0752 14.0816C67.6736 14.0771 68.1558 13.5881 68.1513 12.9897C68.1473 12.3935 67.6629 11.9131 67.0673 11.9131C67.065 11.9131 67.0622 11.9131 67.0599 11.9131L56.875 11.9848ZM58.5321 32.0971C58.2729 31.6686 58.3373 31.1204 58.6975 30.7545L63.1926 26.0793L61.9822 30.177C61.7976 30.8234 61.8557 31.506 62.1278 32.1039L61.8512 32.3986C61.819 32.4324 61.7891 32.468 61.762 32.5058C61.3984 33.0077 61.3036 33.644 61.5 34.2272L63.3721 42.5603H62.8465L58.6066 32.2461C58.5857 32.1942 58.5609 32.1445 58.5321 32.0971Z" fill="#151F59"/>
<path d="M72.9158 46.2176H68.5968C67.9977 46.2176 67.5122 46.7026 67.5122 47.3016C67.5122 47.9006 67.9977 48.3856 68.5968 48.3856H72.9158C73.5142 48.3856 73.9997 47.9006 73.9997 47.3016C73.9997 46.7026 73.5142 46.2176 72.9158 46.2176Z" fill="#151F59"/>
<path d="M65.1184 46.2176H60.7994C60.2004 46.2176 59.7155 46.7026 59.7155 47.3016C59.7155 47.9006 60.2004 48.3856 60.7994 48.3856H65.1184C65.7175 48.3856 66.2024 47.9006 66.2024 47.3016C66.2024 46.7026 65.7175 46.2176 65.1184 46.2176Z" fill="#151F59"/>
<path d="M12.7921 21.6931L12.8497 17.4012L14.9843 18.5885C15.0905 18.6473 15.1994 18.6969 15.3107 18.7393V19.3829C15.3107 20.9823 16.612 22.2837 18.2114 22.2837H31.2136C32.813 22.2837 34.1143 20.9823 34.1143 19.3829V6.37966C34.1143 4.77966 32.813 3.47832 31.2136 3.47832H18.2114C16.612 3.47832 15.3107 4.77966 15.3107 6.37966V12.0519L11.4202 9.5582C11.9588 9.0292 12.2919 8.3359 12.3642 7.57542L12.5985 5.08961C12.765 3.3287 11.4676 1.76089 9.70672 1.5949L8.72324 1.50175C7.87186 1.42101 7.03686 1.67789 6.37687 2.22383C5.71632 2.77034 5.3087 3.54098 5.22796 4.39405L4.9931 6.8793C4.91745 7.68382 5.14723 8.44712 5.58703 9.05573C5.44533 9.17599 5.30926 9.30471 5.1828 9.44811L4.6888 10.0082C3.78209 11.0368 3.2768 12.3585 3.26495 13.7298L3.1955 22.1493L2.5852 26.8793C2.50898 27.4727 2.9279 28.0163 3.52183 28.0926C4.11576 28.1699 4.65944 27.7499 4.73566 27.1565L5.23361 23.2948L10.1742 23.2282L8.66508 27.6025C8.66057 27.6166 8.65549 27.6302 8.65097 27.6437L3.50602 42.5603H2.75006L4.13608 31.8075C4.21286 31.2135 3.79339 30.6698 3.20002 30.5936C2.60778 30.5174 2.06241 30.9363 1.98619 31.5297L0.442081 43.5054C0.402561 43.8148 0.497409 44.1259 0.703479 44.3602C0.908983 44.5945 1.20595 44.7283 1.51759 44.7283H4.27892C4.7413 44.7283 5.15288 44.4353 5.30362 43.9977L10.1256 30.0183L13.5904 33.6993L11.4106 43.4066C11.3389 43.7278 11.4162 44.0649 11.6223 44.3218C11.8278 44.5787 12.1395 44.7283 12.4686 44.7283H15.0752C15.5145 44.7283 15.9108 44.4629 16.0779 44.0564L20.5635 33.1398C21.281 31.8752 21.0772 30.2882 20.0548 29.2477L12.7921 21.6931ZM18.2114 5.64684H31.2136C31.6178 5.64684 31.9464 5.97542 31.9464 6.37966V19.3829C31.9464 19.7866 31.6178 20.1152 31.2136 20.1152H18.2114C17.8078 20.1152 17.4792 19.7866 17.4792 19.3829V18.767L21.9574 18.2154C24.5132 17.9009 26.4401 15.7222 26.4401 13.1472C26.4401 12.8395 26.3097 12.5465 26.081 12.341C25.8524 12.1355 25.5475 12.0367 25.2409 12.0689L17.4792 12.896V6.37966C17.4792 5.97542 17.8078 5.64684 18.2114 5.64684ZM7.15203 7.08368L7.38689 4.59786C7.41286 4.32122 7.54497 4.07168 7.75894 3.89441C7.94695 3.73915 8.17842 3.65616 8.4195 3.65616C8.4528 3.65616 8.48611 3.65729 8.51942 3.66067L9.50235 3.75326C10.0731 3.80746 10.4937 4.31558 10.4401 4.88636L10.2052 7.37161C10.1793 7.64825 10.0472 7.89779 9.83319 8.07507C9.6576 8.22016 9.44419 8.3009 9.22119 8.31106C8.75655 8.1654 8.27609 8.1129 7.80242 8.1462C7.3852 7.97966 7.10743 7.5534 7.15203 7.08368ZM5.43347 13.7479C5.44024 12.8982 5.75358 12.079 6.31533 11.4422L6.80877 10.8821C7.0521 10.6066 7.36374 10.4282 7.69684 10.3509C7.75894 10.3605 7.82218 10.3689 7.88541 10.3751L8.77461 10.4587C8.84801 10.4926 8.92027 10.5315 8.99028 10.5767L15.4981 14.7472C15.5026 14.75 15.5077 14.7534 15.5128 14.7562C15.6748 14.8562 15.8476 14.9358 16.0265 14.9962C16.0429 15.0018 16.0582 15.0086 16.0745 15.0137C16.4031 15.1176 16.7526 15.1537 17.0987 15.117L23.9994 14.3819C23.5828 15.2773 22.7275 15.9362 21.6926 16.0638L16.2456 16.7339C16.1733 16.7435 16.1016 16.7288 16.0378 16.6938L12.3365 14.6354C12.323 14.6275 12.3088 14.6196 12.2947 14.6123L9.7835 13.2161C9.26071 12.9247 8.60016 13.1133 8.3094 13.6367C8.01865 14.16 8.20665 14.82 8.73001 15.1108L10.697 16.2044L10.6321 21.0529L5.37193 21.124L5.43347 13.7479ZM18.662 32.0971C18.6332 32.1445 18.6083 32.1942 18.5869 32.2461L14.3486 42.5603H13.823L15.6935 34.2283C15.8916 33.6463 15.7968 33.0094 15.4321 32.5058C15.405 32.468 15.375 32.4324 15.3429 32.3986L10.9239 27.7036L12.1491 24.1524L18.496 30.7545C18.4994 30.7579 18.5028 30.7613 18.5062 30.7647C18.8573 31.1204 18.9211 31.668 18.662 32.0971Z" fill="#151F59"/>
<path d="M5.40298 46.2176H1.08398C0.485535 46.2176 0 46.7026 0 47.3016C0 47.9006 0.485535 48.3856 1.08398 48.3856H5.40298C6.002 48.3856 6.48753 47.9006 6.48753 47.3016C6.48753 46.7026 6.002 46.2176 5.40298 46.2176Z" fill="#151F59"/>
<path d="M16.3947 46.2176H12.0757C11.4772 46.2176 10.9917 46.7026 10.9917 47.3016C10.9917 47.9006 11.4772 48.3856 12.0757 48.3856H16.3947C16.9937 48.3856 17.4792 47.9006 17.4792 47.3016C17.4792 46.7026 16.9937 46.2176 16.3947 46.2176Z" fill="#151F59"/>
<path d="M53.2608 46.2177H50.8264C51.011 45.7875 51.1132 45.3138 51.1132 44.817V27.0402C51.1132 25.0727 49.5126 23.4716 47.5445 23.4716H37.4606C36.8616 23.4716 36.3766 23.9571 36.3766 24.5561C36.3766 25.1546 36.8616 25.6401 37.4606 25.6401H47.5445C48.3168 25.6401 48.9452 26.2685 48.9452 27.0402V44.817C48.9452 45.5894 48.3168 46.2177 47.5445 46.2177H29.77C28.9976 46.2177 28.3692 45.5894 28.3692 44.817V27.0402C28.3692 26.2685 28.9976 25.6401 29.77 25.6401H32.1564C32.7554 25.6401 33.241 25.1546 33.241 24.5561C33.241 23.9571 32.7554 23.4716 32.1564 23.4716H29.77C27.8024 23.4716 26.2013 25.0727 26.2013 27.0402V44.817C26.2013 45.3138 26.3035 45.7875 26.4881 46.2177H23.6375C23.0385 46.2177 22.5536 46.7027 22.5536 47.3017C22.5536 47.9007 23.0385 48.3857 23.6375 48.3857H53.2608C53.8592 48.3857 54.3448 47.9007 54.3448 47.3017C54.3448 46.7027 53.8592 46.2177 53.2608 46.2177Z" fill="#151F59"/>
</svg>
