<svg width="50" height="62" viewBox="0 0 50 62" fill="none" xmlns="http://www.w3.org/2000/svg">
<path d="M49.7065 60.5152L45.6806 55.6095C45.3622 55.222 44.7899 55.1653 44.402 55.4836C44.0141 55.802 43.9578 56.3743 44.2762 56.7622L48.3021 61.6679C48.4818 61.8869 48.7425 62 49.005 62C49.2079 62 49.4118 61.9323 49.5806 61.7937C49.9685 61.4754 50.0248 60.903 49.7065 60.5152Z" fill="#151F59"/>
<path d="M41.9295 51.0387L38.5791 46.7133C38.0441 46.0227 37.047 45.896 36.3563 46.43L35.5725 47.0364L34.1823 45.6732C32.234 43.7631 29.6583 42.7111 26.929 42.7111H11.5056L4.74378 35.9549C3.67996 34.892 1.99316 34.8362 0.903315 35.8267C0.339472 36.339 0.0187626 37.04 0.000787736 37.8002C-0.0167141 38.5258 0.258112 39.2372 0.756678 39.7632L4.76318 45.1524C5.0626 45.5549 5.63165 45.6386 6.03419 45.3397C6.4372 45.0403 6.52093 44.4712 6.22151 44.0687L2.17906 38.6308C2.15257 38.5953 2.12371 38.5618 2.09249 38.5305C1.90849 38.3465 1.81057 38.1029 1.81672 37.8432C1.82287 37.585 1.93261 37.3466 2.12513 37.1711C2.49078 36.839 3.08868 36.8697 3.45905 37.2401L10.4872 44.2621C10.6575 44.4324 10.8883 44.528 11.1291 44.528H26.929C29.1797 44.528 31.304 45.3955 32.9104 46.9707L34.1218 48.1584L30.909 50.6437C29.9757 49.7062 28.7156 49.1778 27.3713 49.1778H11.3254C10.508 49.1778 9.72897 48.7866 9.24175 48.1315L8.34443 46.9243C8.04501 46.5218 7.47596 46.4376 7.07342 46.7375C6.67088 47.0369 6.58715 47.6059 6.88658 48.0085L7.7839 49.2156C8.61263 50.3296 9.93662 50.9947 11.3254 50.9947H27.3718C28.148 50.9947 28.8802 51.2723 29.4531 51.77L29.0264 52.1001V52.1006C28.691 52.3598 28.4772 52.7335 28.4238 53.1535C28.3703 53.5741 28.4834 53.9894 28.7431 54.3248L32.1006 58.6595C32.101 58.66 32.101 58.66 32.101 58.6605L34.4151 61.6476C34.5939 61.8789 34.8625 61.9995 35.1336 61.9995C35.328 61.9995 35.5238 61.9376 35.6894 61.8094C36.0858 61.5024 36.1586 60.9319 35.8512 60.5351L34.0939 58.2664L35.3512 57.2939L41.0776 52.8641L42.0042 53.9936C42.3226 54.381 42.8949 54.4378 43.2828 54.1195C43.6707 53.8011 43.727 53.2288 43.4086 52.8409L41.9295 51.0387ZM37.2849 48.009L39.9447 51.4436L32.9813 56.8299L30.3211 53.3957L37.2849 48.009Z" fill="#151F59"/>
<path d="M10.6126 18.7289H10.6201C11.1182 18.7289 11.5241 18.3268 11.5283 17.8273C11.5652 13.1723 15.5315 9.18471 20.1884 9.12038C22.563 9.0849 24.798 9.98553 26.4853 11.6496C28.1716 13.3128 29.1002 15.5322 29.1002 17.8992C29.1002 19.8599 28.4678 21.7146 27.271 23.2619C25.9149 25.0154 25.0511 27.0929 24.7734 29.2702L24.4087 32.1272C24.3804 32.3496 24.2049 32.5217 23.9878 32.5534H17.0419C16.83 32.5217 16.6602 32.359 16.6261 32.1419L16.1895 29.387C15.8489 27.2414 14.9176 25.1833 13.4947 23.4359C12.9706 22.7921 12.5416 22.0798 12.2194 21.3192C12.0236 20.8575 11.49 20.6413 11.0284 20.8371C10.5662 21.033 10.3505 21.5661 10.5464 22.0282C10.9356 22.9464 11.4531 23.8063 12.0856 24.583C13.3064 26.0825 14.1049 27.8421 14.3949 29.6718L14.8315 32.4262C14.9592 33.2322 15.4852 33.8784 16.1909 34.1844L16.8465 37.7136C17.0031 38.557 17.7396 39.1696 18.5977 39.1696H22.7376C23.6103 39.1696 24.3491 38.5452 24.4939 37.6843L25.1065 34.0453C25.6954 33.6906 26.1183 33.0794 26.2105 32.3571L26.5752 29.5005C26.8126 27.6439 27.5496 25.871 28.708 24.3735C30.1531 22.505 30.9166 20.2662 30.9166 17.8992C30.9166 15.0421 29.796 12.3634 27.7611 10.3564C25.7242 8.34793 23.0228 7.26234 20.1629 7.3035C17.4312 7.34134 14.8291 8.46619 12.8358 10.4704C10.8425 12.4746 9.73275 15.0824 9.71099 17.8131C9.70721 18.3145 10.1107 18.7246 10.6126 18.7289ZM22.7078 37.3527H18.6275L18.075 34.3769H23.2082L22.7078 37.3527Z" fill="#151F59"/>
<path d="M21.8776 20.5126L22.2229 20.2236L22.6964 19.7719C22.7934 19.6758 22.9429 19.5041 23.1434 19.2572C23.344 19.0103 23.4963 18.7875 23.5994 18.5888C23.703 18.3902 23.8 18.1461 23.8913 17.8571C23.9826 17.568 24.0284 17.2733 24.0284 16.972C24.0284 16.0932 23.6907 15.3647 23.0162 14.7867C22.3412 14.2086 21.4372 13.9196 20.3053 13.9196C19.293 13.9196 18.4856 14.1486 17.8829 14.606C17.2803 15.0639 16.9795 15.5454 16.9795 16.0511C16.9795 16.3282 17.0722 16.5421 17.2585 16.6925C17.4444 16.8429 17.6516 16.9181 17.8801 16.9181C18.0598 16.9181 18.2188 16.8571 18.3569 16.7336C18.495 16.6111 18.6123 16.4796 18.7084 16.3401C18.8044 16.201 18.9846 16.0695 19.2486 15.9465C19.513 15.8235 19.8431 15.7625 20.2391 15.7625C20.8034 15.7625 21.2537 15.8964 21.59 16.1641C21.9259 16.4318 22.0943 16.8103 22.0943 17.2979C22.0943 17.5836 22.0247 17.8604 21.8866 18.1281C21.748 18.3958 21.6094 18.5983 21.4708 18.7355C21.3322 18.8722 21.1246 19.0595 20.8474 19.2979L20.3233 19.7264C19.6 20.3693 19.2386 21.3096 19.2386 22.5475C19.2386 22.9283 19.302 23.1904 19.4283 23.3332C19.5551 23.4761 19.7689 23.5475 20.0702 23.5475C20.6723 23.5475 20.9737 23.3304 20.9737 22.8971C20.9737 22.2831 21.0219 21.8134 21.1184 21.488C21.2144 21.1625 21.4675 20.8376 21.8776 20.5126Z" fill="#151F59"/>
<path d="M20.0877 24.8474C19.7504 24.8474 19.4794 24.968 19.2746 25.2088C19.0693 25.4496 18.9671 25.7386 18.9671 26.0759C18.9671 26.4008 19.0693 26.687 19.2746 26.9334C19.4794 27.1804 19.7504 27.3038 20.0877 27.3038C20.425 27.3038 20.7144 27.1804 20.9557 26.9334C21.1965 26.687 21.3171 26.4008 21.3171 26.0759C21.3171 25.7386 21.1965 25.4496 20.9557 25.2088C20.7144 24.968 20.425 24.8474 20.0877 24.8474Z" fill="#151F59"/>
<path d="M20.6605 4.8551C21.1619 4.8551 21.5687 4.4483 21.5687 3.9469V0.908203C21.5687 0.406799 21.1619 0 20.6605 0C20.1586 0 19.7518 0.406799 19.7518 0.908203V3.9469C19.7518 4.4483 20.1586 4.8551 20.6605 4.8551Z" fill="#151F59"/>
<path d="M34.7112 18.8973H37.7513C38.2532 18.8973 38.66 18.4905 38.66 17.9886C38.66 17.4872 38.2532 17.0804 37.7513 17.0804H34.7112C34.2093 17.0804 33.803 17.4872 33.803 17.9886C33.803 18.4905 34.2093 18.8973 34.7112 18.8973Z" fill="#151F59"/>
<path d="M3.56927 18.8973H6.60939C7.11127 18.8973 7.51759 18.4905 7.51759 17.9886C7.51759 17.4872 7.11127 17.0804 6.60939 17.0804H3.56927C3.0674 17.0804 2.6606 17.4872 2.6606 17.9886C2.6606 18.4905 3.0674 18.8973 3.56927 18.8973Z" fill="#151F59"/>
<path d="M30.5959 8.96803C30.8281 8.96803 31.0604 8.87958 31.2378 8.70219L33.3877 6.55373C33.7429 6.19896 33.7429 5.62376 33.3881 5.269C33.0334 4.91423 32.4582 4.91376 32.1034 5.26852L29.9535 7.41699C29.5988 7.77176 29.5988 8.34695 29.953 8.70172C30.1304 8.8791 30.3632 8.96803 30.5959 8.96803Z" fill="#151F59"/>
<path d="M8.57479 30.9744C8.80705 30.9744 9.03977 30.886 9.21716 30.7086L11.367 28.5601C11.7218 28.2058 11.7218 27.6307 11.3675 27.2754C11.0127 26.9206 10.4376 26.9206 10.0828 27.2754L7.9329 29.4234C7.57766 29.7782 7.57766 30.3534 7.93243 30.7086C8.10981 30.886 8.34254 30.9744 8.57479 30.9744Z" fill="#151F59"/>
<path d="M31.2378 27.2754C30.883 26.9206 30.3078 26.9206 29.953 27.2754C29.5988 27.6307 29.5988 28.2058 29.9535 28.5601L32.1034 30.7086C32.2808 30.886 32.513 30.9744 32.7458 30.9744C32.978 30.9744 33.2108 30.886 33.3881 30.7086C33.7429 30.3534 33.7424 29.7782 33.3877 29.4234L31.2378 27.2754Z" fill="#151F59"/>
<path d="M10.0828 8.70219C10.2602 8.8791 10.4924 8.96803 10.7247 8.96803C10.9574 8.96803 11.1901 8.8791 11.3675 8.70172C11.7218 8.34695 11.7218 7.77175 11.3671 7.41699L9.21716 5.26852C8.86192 4.91375 8.2872 4.91375 7.93243 5.26899C7.57767 5.62376 7.57814 6.19895 7.93291 6.55372L10.0828 8.70219Z" fill="#151F59"/>
</svg>
