<svg width="58" height="58" viewBox="0 0 58 58" fill="none" xmlns="http://www.w3.org/2000/svg">
<path d="M53.6953 0H20.0238C18.0511 0 16.4462 1.6054 16.4462 3.57853V14.3053H15.3271C14.9775 14.3053 14.6332 14.2486 14.3036 14.138L13.4849 13.8619C13.2522 13.784 13.0407 13.6504 12.8729 13.4747C12.8703 13.472 12.8681 13.4689 12.8654 13.4663C12.5959 13.1809 12.4473 12.8083 12.4473 12.4144V10.8604L12.9353 10.563C13.8018 10.0351 14.3398 9.0762 14.3398 8.06065V5.49457C14.3398 5.49147 14.3398 5.48838 14.3398 5.48572V3.24665C14.3398 1.45628 12.8853 0 11.0967 0H8.13417C6.34601 0 4.89106 1.45628 4.89106 3.24665V5.1773V5.17951V8.06065C4.89106 9.0762 5.42914 10.0351 6.29557 10.563L6.78321 10.8604V12.4144C6.78321 12.8384 6.60532 13.2472 6.29557 13.5358C6.13715 13.6827 5.95218 13.7928 5.74553 13.8623L4.29766 14.3495C2.13382 15.0783 0.679749 17.1041 0.679749 19.3905V31.066C0.679749 33.1245 2.14709 34.8463 4.09057 35.2415V38.8554C4.09057 39.3244 4.47112 39.705 4.94018 39.705C5.40967 39.705 5.78978 39.3244 5.78978 38.8554V31.8886H13.1946V53.3412H10.3418V35.3437C10.3418 34.8746 9.96171 34.4941 9.49222 34.4941C9.02316 34.4941 8.64261 34.8746 8.64261 35.3437V53.3412H5.78978V42.2162C5.78978 41.7467 5.40967 41.3666 4.94018 41.3666C4.47112 41.3666 4.09057 41.7467 4.09057 42.2162V54.1908C4.09057 54.4997 4.25607 54.7696 4.50298 54.9183C4.24146 55.375 4.09057 55.9037 4.09057 56.4671V56.9458C4.09057 57.5273 4.56361 57.9999 5.14461 57.9999H9.28778C9.35769 57.9999 9.42584 57.9928 9.49222 57.9795C9.55859 57.9928 9.62674 57.9999 9.69665 57.9999H13.8398C14.4208 57.9999 14.8939 57.5273 14.8939 56.9458V56.4671C14.8939 55.9037 14.7434 55.375 14.4814 54.9183C14.7284 54.7696 14.8939 54.5001 14.8939 54.1908V31.0479C14.8939 31.0448 14.8943 31.0421 14.8943 31.039V20.2127C14.8943 20.0503 15.0257 19.918 15.1877 19.918H24.8108C27.1888 19.918 29.1235 17.9842 29.1235 15.6067V15.2668C29.1235 14.7367 28.6925 14.3053 28.1632 14.3053H26.6198L27.8353 13.1685C28.1561 13.3269 28.5155 13.4185 28.8973 13.4185C29.5014 13.4185 30.0523 13.1933 30.4753 12.8242L32.7104 14.0247C32.6967 14.1283 32.6869 14.2331 32.6869 14.3402C32.6869 15.6669 33.7667 16.7461 35.0933 16.7461C36.4199 16.7461 37.4992 15.6669 37.4992 14.3402C37.4992 13.9017 37.3793 13.4911 37.1735 13.1366L39.1625 10.6997C39.4028 10.7807 39.659 10.8263 39.9268 10.8263C40.2569 10.8263 40.5715 10.7595 40.8578 10.6387L42.4804 12.3516C42.326 12.6689 42.2371 13.0238 42.2371 13.3995C42.2371 14.7261 43.3163 15.8054 44.6434 15.8054C45.97 15.8054 47.0493 14.7261 47.0493 13.3995C47.0493 12.9552 46.9263 12.5401 46.7156 12.1826L49.7605 8.40758C50.0012 8.48855 50.2579 8.53457 50.5256 8.53457C51.8522 8.53457 52.9315 7.45531 52.9315 6.12824C52.9315 4.80161 51.8522 3.72234 50.5256 3.72234C49.1985 3.72234 48.1193 4.80161 48.1193 6.12824C48.1193 6.5672 48.2392 6.9774 48.445 7.33185L45.3934 11.1148C45.1571 11.0369 44.9054 10.9936 44.643 10.9936C44.3129 10.9936 43.9982 11.0604 43.7119 11.1812L42.0893 9.46782C42.2433 9.15054 42.3326 8.79609 42.3326 8.42041C42.3326 7.09378 41.2529 6.01451 39.9263 6.01451C38.5997 6.01451 37.5204 7.09378 37.5204 8.42041C37.5204 8.85937 37.6403 9.27002 37.8465 9.6249L35.8579 12.0609C35.6172 11.9799 35.3606 11.9343 35.0933 11.9343C34.4893 11.9343 33.9383 12.1596 33.5153 12.5282L31.2802 11.3277C31.2935 11.2246 31.3032 11.1197 31.3032 11.0126C31.3032 9.68597 30.224 8.6067 28.8969 8.6067C27.5703 8.6067 26.491 9.68597 26.491 11.0126C26.491 11.337 26.5565 11.6463 26.6733 11.9286L24.1325 14.3053H18.1454V3.57853C18.1454 2.54219 18.9879 1.69922 20.0234 1.69922H53.6953C54.7316 1.69922 55.5746 2.54219 55.5746 3.57853V31.7483C55.5746 32.7842 54.7316 33.6277 53.6953 33.6277H20.0234C18.9879 33.6277 18.1454 32.7842 18.1454 31.7483V22.5447C18.1454 22.0752 17.7653 21.6951 17.2958 21.6951C16.8263 21.6951 16.4462 22.0752 16.4462 22.5447V31.7483C16.4462 33.7215 18.0511 35.3269 20.0234 35.3269H24.0001C23.7139 35.8105 23.5488 36.3743 23.5488 36.9761V38.9067V38.9089V41.7901C23.5488 42.8056 24.0873 43.7645 24.9537 44.2924L25.4418 44.5902V46.1439C25.4418 46.5682 25.2639 46.9767 24.9537 47.2652C24.7953 47.4125 24.6104 47.5223 24.4042 47.5917L22.9563 48.0789C20.792 48.8078 19.3384 50.8335 19.3384 53.12V57.1503C19.3384 57.6198 19.7185 57.9999 20.188 57.9999C20.657 57.9999 21.0376 57.6198 21.0376 57.1503V53.12C21.0376 51.5637 22.0261 50.1848 23.4979 49.6897L24.9462 49.2025C25.2144 49.1118 25.4657 48.9887 25.698 48.8347C26.1507 48.9706 26.6114 49.0679 27.0778 49.125L25.5905 54.3829C25.5113 54.663 25.5808 54.9643 25.7755 55.1811L27.5477 57.1574C27.7039 57.3313 27.9247 57.4335 28.1588 57.4392C28.1659 57.4392 28.173 57.4397 28.18 57.4397C28.4062 57.4397 28.6234 57.3494 28.7832 57.1883L30.743 55.2121C30.9647 54.9886 31.0448 54.6608 30.951 54.3603L29.3049 49.0985C29.7903 49.0277 30.2691 48.9135 30.7377 48.7573C31.0014 48.948 31.2935 49.0989 31.6019 49.2025L33.0494 49.6892C34.5211 50.1853 35.5101 51.5637 35.5101 53.12V57.1503C35.5101 57.6193 35.8907 57.9999 36.3597 57.9999C36.8292 57.9999 37.2093 57.6193 37.2093 57.1503V53.12C37.2093 52.3571 37.4443 51.6265 37.889 51.007C38.1625 50.626 38.0753 50.095 37.6943 49.8215C37.3129 49.5481 36.7823 49.6352 36.5084 50.0162C36.4571 50.0879 36.408 50.1614 36.3602 50.2348C35.723 49.2467 34.7614 48.4728 33.5914 48.0789L32.1422 47.5913C31.9068 47.5125 31.7006 47.382 31.5298 47.2028C31.2563 46.9169 31.1059 46.5408 31.1059 46.1439V44.5898L31.594 44.2924H31.5935C32.4599 43.7645 32.998 42.8056 32.998 41.7901V39.2236C32.998 39.2209 32.998 39.2178 32.998 39.2151V36.9761C32.998 36.3743 32.833 35.8105 32.5467 35.3264H40.1728C39.8865 35.8105 39.7214 36.3743 39.7214 36.9761V38.9067V38.9089V41.7901C39.7214 42.8056 40.26 43.7645 41.1259 44.2924L41.6136 44.5898V46.1439C41.6136 46.5678 41.4361 46.9771 41.1273 47.2652C40.9693 47.4116 40.7839 47.5218 40.5759 47.5917L39.8037 47.8519C39.359 48.0015 39.1201 48.4834 39.2696 48.9281C39.3891 49.283 39.7201 49.5069 40.0745 49.5069C40.1648 49.5069 40.256 49.4923 40.3462 49.4622L41.118 49.202C41.387 49.1118 41.6384 48.9883 41.8707 48.8347C42.3234 48.9706 42.784 49.0679 43.2504 49.125L41.7627 54.3824C41.6835 54.663 41.7534 54.9643 41.9477 55.1811L43.7203 57.1574C43.8765 57.3313 44.0974 57.4335 44.3314 57.4392C44.3385 57.4392 44.3456 57.4397 44.3527 57.4397C44.5788 57.4397 44.7961 57.3494 44.9558 57.1883L46.9157 55.2121C47.1374 54.9886 47.2174 54.6608 47.1232 54.3603L45.4771 49.0985C45.9625 49.0277 46.4413 48.9131 46.9103 48.7573C47.1732 48.9476 47.4652 49.0985 47.775 49.202L49.2211 49.6892C49.741 49.864 50.2026 50.1468 50.5938 50.53C50.9734 50.9012 51.2717 51.3601 51.4566 51.857C51.6071 52.2619 51.6836 52.6867 51.6836 53.1195V57.1498C51.6836 57.6193 52.0638 57.9994 52.5332 57.9994C53.0023 57.9994 53.3829 57.6193 53.3829 57.1498V53.1195C53.3829 52.4836 53.2705 51.8597 53.0492 51.265C52.778 50.5348 52.3394 49.8605 51.7823 49.3153C51.2066 48.752 50.5278 48.336 49.7636 48.0789L48.3153 47.5909C48.0821 47.513 47.871 47.3793 47.7024 47.2019C47.4294 46.9169 47.2794 46.5412 47.2794 46.1434V44.5889L47.7662 44.292C48.6326 43.7641 49.1707 42.8052 49.1707 41.7896V39.2231C49.1707 39.2205 49.1707 39.2174 49.1707 39.2147V36.9756C49.1707 36.3738 49.0056 35.8101 48.7193 35.3264H53.6953C55.6684 35.3264 57.2738 33.721 57.2738 31.7479V3.57853C57.2738 1.6054 55.6684 0 53.6953 0V0ZM50.5256 5.42156C50.915 5.42156 51.2323 5.73883 51.2323 6.12868C51.2323 6.51808 50.915 6.83536 50.5256 6.83536C50.3561 6.83536 50.2008 6.77562 50.0791 6.67606C50.0765 6.67385 50.0743 6.67119 50.0716 6.66898C50.0707 6.66854 50.0703 6.66809 50.0698 6.66765C49.9163 6.538 49.8189 6.34462 49.8189 6.12824C49.8185 5.73883 50.1358 5.42156 50.5256 5.42156ZM45.3501 13.3995C45.3501 13.7893 45.0328 14.1061 44.643 14.1061C44.2536 14.1061 43.9363 13.7893 43.9363 13.3995C43.9363 13.0096 44.2536 12.6928 44.643 12.6928C45.0328 12.6928 45.3501 13.0096 45.3501 13.3995ZM39.9263 7.71329C40.3162 7.71329 40.6334 8.03056 40.6334 8.41997C40.6334 8.80981 40.3162 9.12709 39.9263 9.12709C39.7582 9.12709 39.6037 9.06779 39.482 8.96911C39.4816 8.96867 39.4807 8.96779 39.4798 8.96734C39.4785 8.96602 39.4772 8.96513 39.4754 8.9638C39.3192 8.83415 39.2196 8.63856 39.2196 8.41997C39.2196 8.03056 39.5369 7.71329 39.9263 7.71329ZM35.0933 13.6335C35.4827 13.6335 35.8 13.9504 35.8 14.3402C35.8 14.7301 35.4827 15.0469 35.0933 15.0469C34.7034 15.0469 34.3862 14.7301 34.3862 14.3402C34.3862 14.2208 34.4162 14.1088 34.4689 14.0097C34.4693 14.0083 34.4707 14.007 34.4711 14.0057C34.4724 14.0035 34.4733 14.0013 34.4742 13.9991C34.595 13.7813 34.8269 13.6335 35.0933 13.6335ZM28.8969 10.3055C29.2867 10.3055 29.604 10.6228 29.604 11.0126C29.604 11.1307 29.5744 11.2423 29.523 11.3401C29.5217 11.3423 29.5204 11.3445 29.5191 11.3462C29.5177 11.3493 29.5164 11.352 29.5151 11.3547C29.3947 11.5719 29.1628 11.7193 28.8969 11.7193C28.6938 11.7193 28.5106 11.6325 28.3814 11.4949C28.3814 11.4945 28.3814 11.4945 28.3814 11.4945C28.3814 11.494 28.3809 11.494 28.3809 11.494C28.2628 11.3679 28.1902 11.1984 28.1902 11.0126C28.1902 10.6228 28.5075 10.3055 28.8969 10.3055ZM9.5639 18.9117L10.5556 23.5863L9.55284 24.597L8.6634 23.6054L9.5639 18.9117ZM9.5816 13.7579C9.12848 13.7676 8.67845 13.7296 8.23595 13.6482C8.39613 13.2601 8.48242 12.841 8.48242 12.4144V11.8578C8.84527 12.0109 9.23025 12.0883 9.61523 12.0883C10.0007 12.0883 10.3852 12.0109 10.748 11.8578V12.4144C10.748 12.8189 10.8233 13.2127 10.9649 13.5804C10.5113 13.6871 10.0489 13.7477 9.5816 13.7579ZM8.13417 1.69922H11.0967C11.9481 1.69922 12.6406 2.3935 12.6406 3.24665V4.31663L8.61119 3.01965C8.3948 2.95017 8.15939 2.97009 7.95761 3.0754L6.59027 3.78916V3.24665C6.59027 2.3935 7.28279 1.69922 8.13417 1.69922ZM6.59027 5.70609L8.42888 4.74586L12.6406 6.10169V8.06065C12.6406 8.48767 12.415 8.89035 12.0512 9.11204C12.0508 9.11204 12.0508 9.11204 12.0508 9.11204L10.2533 10.2081C9.85994 10.448 9.37097 10.448 8.97758 10.2081L7.18013 9.11204C6.81595 8.89035 6.59027 8.48723 6.59027 8.06021V5.70609ZM5.79952 56.3007C5.88227 55.5922 6.48584 55.0404 7.21642 55.0404C7.94655 55.0404 8.55057 55.5922 8.63287 56.3007H5.79952ZM10.3516 56.3007C10.4343 55.5922 11.0379 55.0404 11.768 55.0404C12.4986 55.0404 13.1026 55.5922 13.1849 56.3007H10.3516ZM24.8108 18.2188H15.1877C14.0889 18.2188 13.1951 19.1135 13.1951 20.2127V30.1894H5.78978V20.6309C5.78978 20.1614 5.40967 19.7813 4.94018 19.7813C4.47112 19.7813 4.09057 20.1614 4.09057 20.6309V33.4821C3.09493 33.1307 2.37896 32.1807 2.37896 31.066V19.3905C2.37896 17.8342 3.36796 16.4558 4.83973 15.9598L6.2876 15.4726C6.5562 15.3823 6.80754 15.2589 7.03942 15.1053C7.52042 15.2491 8.01027 15.3491 8.50632 15.4049L6.91551 23.6987C6.86551 23.9594 6.94029 24.2284 7.1173 24.4262L8.88952 26.402C9.04573 26.5763 9.26654 26.6781 9.50062 26.6843H9.52186C9.74798 26.6843 9.96525 26.594 10.125 26.433L12.0848 24.4572C12.2866 24.2536 12.3725 23.9625 12.3132 23.6824L10.552 15.3819C11.0697 15.3124 11.5804 15.1943 12.0795 15.0279C12.3428 15.2186 12.6353 15.3695 12.9442 15.4726L13.7611 15.7483C14.2655 15.9182 14.7925 16.0045 15.3271 16.0045H27.3942C27.2021 17.2568 26.1166 18.2188 24.8108 18.2188ZM31.2988 38.0461L27.2694 36.7491C27.053 36.6796 26.8176 36.6995 26.6158 36.8048L25.2485 37.5186V36.9761C25.2485 36.1229 25.941 35.4286 26.7923 35.4286H29.7549C30.6063 35.4286 31.2988 36.1229 31.2988 36.9761V38.0461ZM29.4067 45.5872V46.1439C29.4067 46.5483 29.4819 46.9422 29.6235 47.3094C29.1699 47.4165 28.7071 47.4771 28.2398 47.4873C27.7875 47.4966 27.3375 47.459 26.8941 47.3776C27.0548 46.9895 27.141 46.5704 27.141 46.1439V45.5872C27.5039 45.7403 27.8884 45.8177 28.2739 45.8177C28.6588 45.8177 29.0438 45.7403 29.4067 45.5872ZM28.211 55.3519L27.353 54.3952L28.2212 51.326L29.1761 54.3789L28.211 55.3519ZM30.7094 42.8415L28.9115 43.9375C28.5181 44.1774 28.0291 44.1774 27.6358 43.9375L25.8383 42.8415C25.4741 42.6198 25.2485 42.2167 25.2485 41.7901V39.4355L27.0871 38.4753L31.2988 39.8311V41.7901C31.2988 42.2171 31.0731 42.6198 30.7094 42.8415ZM47.4714 38.0461L43.442 36.7491C43.2252 36.6796 42.9898 36.6995 42.7884 36.8048L41.4211 37.5186V36.9761C41.4211 36.1229 42.1136 35.4286 42.965 35.4286H45.9275C46.7789 35.4286 47.4714 36.1229 47.4714 36.9761V38.0461ZM45.5797 45.5868V46.1439C45.5797 46.5483 45.655 46.9426 45.7961 47.3094C45.3421 47.4165 44.8797 47.4771 44.412 47.4873C43.9584 47.4971 43.5088 47.459 43.0663 47.3776C43.2265 46.9895 43.3128 46.5704 43.3128 46.1439V45.5872C43.6761 45.7403 44.0611 45.8177 44.446 45.8177C44.8315 45.8177 45.2169 45.7403 45.5797 45.5868ZM44.3837 55.3519L43.5252 54.3952L44.3934 51.326L45.3488 54.3789L44.3837 55.3519ZM46.8816 42.8415L45.0841 43.9375C44.6908 44.1774 44.2018 44.1774 43.8084 43.9375L42.0105 42.8415C41.6468 42.6198 41.4211 42.2171 41.4211 41.7901V39.4355L43.2597 38.4757L47.4714 39.8311V41.7901C47.4714 42.2171 47.2458 42.6198 46.8816 42.8415Z" fill="#151F59"/>
<path d="M22.0399 24.2364H51.0412C51.5102 24.2364 51.8908 23.8558 51.8908 23.3868C51.8908 22.9173 51.5102 22.5372 51.0412 22.5372H22.0399C21.5708 22.5372 21.1902 22.9173 21.1902 23.3868C21.1902 23.8558 21.5708 24.2364 22.0399 24.2364Z" fill="#151F59"/>
<path d="M22.0399 28.1163H37.4005C37.8696 28.1163 38.2501 27.7362 38.2501 27.2667C38.2501 26.7976 37.8696 26.4171 37.4005 26.4171H22.0399C21.5708 26.4171 21.1902 26.7976 21.1902 27.2667C21.1902 27.7362 21.5708 28.1163 22.0399 28.1163Z" fill="#151F59"/>
</svg>
