<svg width="1600" height="314" viewBox="0 0 1600 314" fill="none" xmlns="http://www.w3.org/2000/svg">
<path d="M17.024 286.301L10.289 286.335L10.3844 305.01L6.88943 305.028L6.79408 286.353L0.0441705 286.387L0.0292367 283.463L17.009 283.376L17.024 286.301Z" fill="#453D37"/>
<path d="M29.1777 302.032C29.9676 302.016 30.6306 301.912 31.1667 301.721C31.7126 301.519 32.1523 301.255 32.4855 300.928C32.8288 300.601 33.071 300.221 33.212 299.788C33.3629 299.345 33.4331 298.873 33.4227 298.373C33.4016 297.353 33.0351 296.561 32.3232 295.995C31.6211 295.42 30.5202 295.148 29.0205 295.179L24.6865 295.269L24.8287 302.122L29.1777 302.032ZM24.4951 286.046L24.6351 292.794L28.1444 292.721C29.644 292.69 30.7578 292.377 31.4856 291.782C32.2134 291.187 32.566 290.344 32.5434 289.254C32.5187 288.065 32.1509 287.212 31.4401 286.697C30.7392 286.181 29.649 285.939 28.1693 285.969L24.4951 286.046ZM28.1123 283.225C29.492 283.196 30.6746 283.307 31.66 283.556C32.6452 283.796 33.4578 284.154 34.0978 284.631C34.7378 285.108 35.2102 285.698 35.5148 286.402C35.8293 287.096 35.9957 287.882 36.0139 288.762C36.0245 289.272 35.9548 289.769 35.8048 290.252C35.6646 290.725 35.4338 291.175 35.1126 291.602C34.8012 292.018 34.404 292.396 33.9209 292.737C33.4379 293.077 32.8637 293.364 32.1984 293.597C35.2712 294.184 36.8346 295.777 36.8886 298.376C36.9076 299.296 36.7502 300.144 36.4163 300.922C36.0921 301.688 35.6059 302.359 34.9577 302.932C34.3192 303.496 33.5233 303.942 32.5699 304.272C31.6166 304.602 30.525 304.78 29.2953 304.805L21.377 304.969L20.9289 283.374L28.1123 283.225Z" fill="#453D37"/>
<path d="M67.7463 292.751C67.8141 294.349 67.6167 295.834 67.1543 297.205C66.6919 298.576 66.0069 299.771 65.0993 300.79C64.2012 301.799 63.0993 302.606 61.7938 303.212C60.4983 303.818 59.0412 304.155 57.4227 304.223C55.8141 304.291 54.3338 304.079 52.9817 303.586C51.6396 303.092 50.4735 302.381 49.4833 301.452C48.4926 300.513 47.709 299.38 47.1323 298.053C46.5556 296.726 46.2334 295.264 46.1657 293.665C46.098 292.067 46.2953 290.582 46.7577 289.211C47.2201 287.84 47.9051 286.645 48.8128 285.626C49.7204 284.607 50.822 283.794 52.1176 283.189C53.4231 282.583 54.8801 282.246 56.4887 282.178C58.1072 282.109 59.5876 282.322 60.9297 282.816C62.2817 283.309 63.4481 284.025 64.4288 284.964C65.4194 285.903 66.203 287.036 66.7797 288.363C67.3564 289.69 67.6786 291.152 67.7463 292.751ZM64.1645 292.903C64.1121 291.664 63.895 290.557 63.5134 289.582C63.1418 288.607 62.6267 287.788 61.968 287.125C61.3194 286.462 60.5426 285.965 59.6378 285.633C58.7329 285.301 57.726 285.158 56.6169 285.205C55.5179 285.252 54.5317 285.479 53.6581 285.886C52.7846 286.293 52.0477 286.855 51.4475 287.571C50.8472 288.287 50.3982 289.147 50.1004 290.15C49.8026 291.154 49.68 292.275 49.7325 293.514C49.7854 294.763 50.0027 295.875 50.3843 296.849C50.7659 297.824 51.286 298.643 51.9446 299.306C52.6028 299.958 53.3844 300.451 54.2893 300.783C55.1937 301.105 56.1954 301.242 57.2944 301.196C58.4034 301.149 59.3949 300.927 60.2689 300.529C61.1424 300.122 61.8745 299.566 62.4652 298.86C63.0654 298.144 63.5094 297.284 63.7972 296.281C64.095 295.278 64.2175 294.151 64.1645 292.903Z" fill="#453D37"/>
<path d="M94.7665 280.314L96.1648 301.868L92.6621 302.096L91.7338 287.786C91.7028 287.307 91.6804 286.807 91.6667 286.287C91.6629 285.766 91.6816 285.204 91.7226 284.6C91.5666 285.131 91.3934 285.628 91.203 286.091C91.022 286.544 90.8376 286.947 90.6501 287.3L82.4126 301.663C82.3412 301.798 82.2548 301.934 82.1535 302.071C82.0621 302.207 81.9501 302.334 81.8175 302.453C81.6943 302.562 81.5601 302.655 81.4149 302.735C81.2691 302.805 81.1114 302.845 80.9418 302.856L78.3223 303.026L76.924 281.471L80.4416 281.243L81.3689 295.538C81.4 296.017 81.4177 296.522 81.4221 297.053C81.4358 297.573 81.4215 298.125 81.3792 298.709C81.5358 298.188 81.7046 297.701 81.8857 297.248C82.0761 296.785 82.2604 296.382 82.4387 296.04L90.6761 281.676C90.7475 281.541 90.8289 281.406 90.9203 281.27C91.0217 281.133 91.134 281.01 91.2572 280.902C91.3898 280.783 91.529 280.689 91.6748 280.619C91.8199 280.54 91.9773 280.495 92.147 280.484L94.7665 280.314ZM85.7877 277.92C86.1769 277.895 86.4986 277.834 86.7529 277.737C87.0171 277.64 87.2233 277.496 87.3713 277.306C87.5186 277.106 87.6172 276.849 87.667 276.535C87.7168 276.221 87.7265 275.83 87.696 275.361L89.5821 275.239C89.8116 275.224 89.9877 275.312 90.1104 275.505C90.2331 275.697 90.3019 275.908 90.3168 276.138C90.3492 276.637 90.2682 277.088 90.074 277.491C89.8896 277.894 89.6066 278.243 89.225 278.539C88.8426 278.824 88.3666 279.055 87.7969 279.233C87.2365 279.399 86.602 279.505 85.8935 279.551C85.185 279.597 84.5372 279.574 83.95 279.482C83.3721 279.379 82.8752 279.211 82.4592 278.978C82.0425 278.734 81.7118 278.425 81.467 278.05C81.2322 277.674 81.0986 277.237 81.0663 276.738C81.0514 276.508 81.0924 276.29 81.1892 276.084C81.286 275.877 81.4492 275.766 81.6787 275.751L83.5647 275.629C83.5952 276.098 83.6553 276.485 83.7452 276.79C83.8352 277.094 83.9661 277.337 84.1381 277.516C84.3094 277.685 84.5274 277.801 84.792 277.864C85.0666 277.927 85.3985 277.945 85.7877 277.92Z" fill="#453D37"/>
<path d="M121.764 291.551L118.051 283.976C117.914 283.687 117.762 283.355 117.596 282.979C117.429 282.593 117.264 282.177 117.101 281.73C117.036 282.208 116.957 282.653 116.865 283.063C116.782 283.463 116.695 283.817 116.604 284.127L114.386 292.246L121.764 291.551ZM129.125 298.993L126.421 299.248C126.123 299.276 125.867 299.225 125.654 299.094C125.45 298.952 125.292 298.771 125.181 298.551L122.941 293.971L113.667 294.845L112.323 299.763C112.262 299.97 112.14 300.167 111.957 300.355C111.773 300.543 111.537 300.651 111.249 300.678L108.531 300.934L115.031 278.626L118.57 278.292L129.125 298.993Z" fill="#453D37"/>
<path d="M139.018 295.088C139.803 294.997 140.453 294.836 140.97 294.605C141.496 294.363 141.91 294.068 142.212 293.721C142.513 293.364 142.714 292.969 142.815 292.534C142.924 292.089 142.95 291.618 142.893 291.121C142.831 290.585 142.7 290.111 142.502 289.701C142.303 289.292 142.019 288.962 141.648 288.713C141.275 288.454 140.807 288.277 140.242 288.181C139.687 288.084 139.018 288.081 138.233 288.172L134.418 288.613L135.218 295.527L139.018 295.088ZM137.914 285.415C139.265 285.259 140.439 285.274 141.437 285.461C142.445 285.646 143.293 285.966 143.98 286.42C144.665 286.864 145.193 287.427 145.564 288.109C145.945 288.79 146.183 289.542 146.278 290.367C146.394 291.37 146.326 292.299 146.072 293.154C145.828 293.998 145.411 294.746 144.822 295.398C144.233 296.05 143.475 296.585 142.547 297.005C141.629 297.423 140.559 297.703 139.337 297.844L132.05 298.687L129.568 277.23L143.813 275.582L144.128 278.309L133.37 279.554L134.099 285.857L137.914 285.415Z" fill="#453D37"/>
<path d="M167.021 272.5L160.907 292.194C160.705 292.848 160.463 293.401 160.182 293.854C159.91 294.295 159.597 294.662 159.243 294.953C158.898 295.232 158.514 295.447 158.091 295.596C157.668 295.755 157.205 295.87 156.699 295.939C155.461 296.11 154.811 295.972 154.75 295.526L154.447 293.327L155.531 293.178C155.769 293.145 156.003 293.087 156.234 293.005C156.465 292.923 156.682 292.807 156.883 292.658C157.093 292.498 157.287 292.295 157.465 292.048C157.642 291.792 157.795 291.473 157.924 291.092L158.594 289.031L147.926 275.132L151.18 274.684C151.478 274.643 151.726 274.684 151.924 274.808C152.123 274.932 152.303 275.099 152.463 275.309L158.355 283.34C158.866 284.047 159.308 284.804 159.682 285.61C159.734 285.179 159.806 284.755 159.9 284.338C160.004 283.92 160.122 283.495 160.255 283.063L163.102 273.843C163.164 273.633 163.283 273.434 163.459 273.249C163.634 273.053 163.866 272.935 164.153 272.896L167.021 272.5Z" fill="#453D37"/>
<path d="M186.212 272.423L179.563 273.491L182.525 291.93L179.074 292.484L176.112 274.046L169.447 275.117L168.983 272.229L185.748 269.535L186.212 272.423Z" fill="#453D37"/>
<path d="M201.009 280.51L196.644 273.291C196.482 273.016 196.301 272.698 196.103 272.338C195.902 271.968 195.702 271.568 195.5 271.137C195.477 271.62 195.438 272.069 195.383 272.486C195.335 272.891 195.28 273.252 195.216 273.569L193.722 281.852L201.009 280.51ZM208.997 287.275L206.327 287.766C206.031 287.821 205.772 287.792 205.548 287.681C205.332 287.558 205.159 287.392 205.029 287.182L202.395 282.817L193.234 284.504L192.328 289.521C192.285 289.732 192.181 289.94 192.015 290.143C191.849 290.347 191.624 290.475 191.339 290.527L188.654 291.022L193.164 268.227L196.661 267.583L208.997 287.275Z" fill="#453D37"/>
<path d="M230.647 282.751L227.553 283.417C227.22 283.489 226.923 283.461 226.66 283.333C226.397 283.206 226.131 282.992 225.862 282.692L219.273 276.393C219.103 276.225 218.942 276.091 218.787 275.992C218.631 275.882 218.466 275.805 218.292 275.761C218.117 275.706 217.929 275.686 217.727 275.698C217.523 275.701 217.299 275.729 217.054 275.782L214.62 276.306L216.657 285.764L213.226 286.503L208.677 265.388L212.109 264.649L214.055 273.681L216.122 273.236C216.552 273.143 216.899 272.997 217.163 272.797C217.427 272.597 217.658 272.271 217.858 271.819L221.388 263.632C221.495 263.322 221.647 263.054 221.844 262.828C222.05 262.599 222.32 262.449 222.652 262.377L225.555 261.752L221.359 271.617C221.192 272.031 220.978 272.39 220.715 272.692C220.453 272.994 220.146 273.254 219.794 273.473C220.373 273.502 220.889 273.641 221.342 273.891C221.805 274.14 222.27 274.52 222.739 275.033L230.647 282.751Z" fill="#453D37"/>
<path d="M267.24 273.799C267.208 274.235 267.06 274.594 266.798 274.877C266.538 275.169 266.244 275.362 265.917 275.455L264.604 275.829L267 251.815C267.033 251.42 267.162 251.087 267.386 250.816C267.62 250.541 267.919 250.352 268.285 250.248L269.597 249.874L267.24 273.799Z" fill="#453D37"/>
<path d="M284.949 268.633C284.928 269.069 284.789 269.432 284.534 269.721C284.281 270.02 283.993 270.219 283.668 270.321L282.365 270.726L284.173 246.661C284.197 246.266 284.318 245.93 284.535 245.653C284.762 245.373 285.057 245.176 285.42 245.063L286.723 244.658L284.949 268.633Z" fill="#453D37"/>
<path d="M329.118 233.24L322.833 235.662L329.549 253.088L326.288 254.345L319.572 236.919L313.274 239.346L312.222 236.617L328.066 230.511L329.118 233.24Z" fill="#453D37"/>
<path d="M346.02 243.477C346.747 243.168 347.324 242.825 347.751 242.448C348.183 242.058 348.492 241.649 348.68 241.222C348.877 240.79 348.96 240.348 348.93 239.893C348.905 239.426 348.795 238.962 348.6 238.502C348.201 237.563 347.566 236.964 346.694 236.704C345.829 236.431 344.705 236.587 343.325 237.174L339.335 238.87L342.017 245.179L346.02 243.477ZM335.727 230.38L338.367 236.592L341.598 235.219C342.978 234.632 343.895 233.927 344.349 233.104C344.804 232.281 344.817 231.368 344.391 230.365C343.926 229.269 343.267 228.615 342.415 228.401C341.573 228.183 340.471 228.364 339.109 228.943L335.727 230.38ZM338.035 226.416C339.305 225.876 340.444 225.539 341.451 225.404C342.455 225.26 343.342 225.29 344.114 225.495C344.885 225.699 345.543 226.072 346.088 226.612C346.638 227.138 347.085 227.807 347.429 228.617C347.629 229.086 347.749 229.573 347.789 230.077C347.835 230.568 347.788 231.072 347.649 231.587C347.515 232.09 347.287 232.589 346.965 233.084C346.643 233.58 346.217 234.06 345.687 234.524C348.757 233.925 350.801 234.822 351.818 237.215C352.178 238.062 352.347 238.908 352.326 239.754C352.311 240.586 352.109 241.389 351.72 242.163C351.337 242.923 350.765 243.634 350.003 244.294C349.24 244.955 348.293 245.526 347.161 246.007L339.872 249.106L331.423 229.227L338.035 226.416Z" fill="#453D37"/>
<path d="M376.545 220.821C377.233 222.266 377.633 223.709 377.744 225.152C377.856 226.594 377.693 227.962 377.257 229.255C376.826 230.535 376.128 231.71 375.164 232.778C374.209 233.843 373 234.723 371.538 235.42C370.084 236.113 368.639 236.497 367.202 236.572C365.774 236.644 364.422 236.446 363.147 235.979C361.868 235.503 360.703 234.767 359.653 233.772C358.603 232.777 357.734 231.557 357.046 230.113C356.357 228.669 355.957 227.225 355.846 225.783C355.735 224.34 355.897 222.973 356.333 221.679C356.769 220.386 357.465 219.207 358.42 218.143C359.384 217.074 360.593 216.193 362.046 215.501C363.509 214.804 364.954 214.42 366.382 214.349C367.819 214.273 369.173 214.475 370.443 214.956C371.723 215.432 372.887 216.167 373.937 217.162C374.987 218.157 375.857 219.377 376.545 220.821ZM373.309 222.364C372.775 221.244 372.142 220.311 371.409 219.563C370.686 218.812 369.891 218.26 369.025 217.908C368.169 217.552 367.259 217.398 366.297 217.447C365.334 217.496 364.352 217.759 363.35 218.236C362.357 218.709 361.538 219.304 360.894 220.021C360.249 220.738 359.791 221.544 359.519 222.437C359.247 223.331 359.171 224.298 359.29 225.338C359.409 226.378 359.735 227.458 360.268 228.577C360.806 229.706 361.441 230.644 362.174 231.391C362.907 232.139 363.706 232.688 364.572 233.04C365.433 233.383 366.345 233.53 367.307 233.481C368.266 233.423 369.241 233.158 370.234 232.685C371.236 232.207 372.062 231.615 372.71 230.907C373.355 230.19 373.81 229.391 374.078 228.511C374.35 227.617 374.421 226.652 374.294 225.616C374.175 224.576 373.846 223.492 373.309 222.364Z" fill="#453D37"/>
<path d="M394.681 199.313L404.748 218.424L401.643 220.059L394.959 207.372C394.736 206.947 394.511 206.5 394.287 206.031C394.071 205.557 393.859 205.036 393.65 204.468C393.724 205.016 393.769 205.541 393.784 206.042C393.803 206.529 393.799 206.972 393.772 207.37L392.108 223.844C392.098 223.997 392.074 224.156 392.037 224.322C392.01 224.484 391.959 224.646 391.887 224.809C391.818 224.958 391.734 225.098 391.634 225.23C391.529 225.353 391.402 225.454 391.251 225.533L388.929 226.757L378.862 207.646L381.981 206.003L388.657 218.677C388.881 219.102 389.103 219.556 389.323 220.039C389.548 220.508 389.76 221.018 389.959 221.568C389.89 221.029 389.845 220.515 389.826 220.028C389.811 219.527 389.815 219.084 389.838 218.699L391.502 202.225C391.512 202.073 391.531 201.916 391.559 201.754C391.596 201.588 391.649 201.43 391.717 201.281C391.79 201.119 391.878 200.976 391.983 200.853C392.083 200.721 392.208 200.616 392.359 200.536L394.681 199.313ZM385.507 200.789C385.852 200.607 386.121 200.42 386.313 200.228C386.515 200.032 386.645 199.816 386.702 199.583C386.755 199.34 386.741 199.065 386.658 198.758C386.575 198.451 386.425 198.09 386.206 197.674L387.878 196.793C388.081 196.686 388.278 196.695 388.469 196.821C388.659 196.947 388.808 197.111 388.915 197.315C389.148 197.757 389.259 198.202 389.246 198.65C389.242 199.093 389.126 199.527 388.898 199.952C388.665 200.369 388.324 200.774 387.877 201.168C387.433 201.549 386.897 201.905 386.269 202.235C385.641 202.566 385.04 202.809 384.466 202.965C383.896 203.107 383.374 203.156 382.899 203.112C382.419 203.06 381.991 202.912 381.615 202.67C381.247 202.422 380.947 202.078 380.714 201.635C380.607 201.432 380.555 201.216 380.559 200.988C380.563 200.759 380.667 200.592 380.871 200.485L382.543 199.604C382.762 200.02 382.975 200.348 383.181 200.59C383.387 200.832 383.606 200.999 383.836 201.093C384.061 201.177 384.308 201.195 384.575 201.144C384.851 201.089 385.162 200.971 385.507 200.789Z" fill="#453D37"/>
<path d="M424.533 197.847L417.959 192.562C417.712 192.359 417.433 192.122 417.123 191.852C416.809 191.573 416.483 191.266 416.146 190.931C416.29 191.391 416.407 191.827 416.498 192.238C416.592 192.635 416.664 192.993 416.712 193.312L418.147 201.606L424.533 197.847ZM434.355 201.466L432.015 202.843C431.757 202.995 431.503 203.057 431.255 203.029C431.01 202.988 430.79 202.891 430.596 202.738L426.626 199.54L418.598 204.264L419.466 209.288C419.498 209.501 419.471 209.732 419.385 209.98C419.299 210.228 419.131 210.425 418.881 210.572L416.528 211.957L412.954 188.997L416.018 187.194L434.355 201.466Z" fill="#453D37"/>
<path d="M442.727 193.003C443.396 192.583 443.914 192.158 444.281 191.727C444.651 191.282 444.898 190.838 445.021 190.394C445.139 189.943 445.15 189.499 445.053 189.063C444.96 188.614 444.781 188.178 444.515 187.754C444.228 187.297 443.907 186.926 443.551 186.642C443.195 186.357 442.797 186.182 442.354 186.117C441.907 186.044 441.408 186.086 440.857 186.243C440.314 186.394 439.709 186.68 439.04 187.1L435.787 189.141L439.487 195.036L442.727 193.003ZM437.564 184.749C438.716 184.027 439.783 183.534 440.764 183.273C441.753 183.006 442.656 182.93 443.471 183.044C444.281 183.149 445 183.43 445.629 183.885C446.266 184.336 446.805 184.912 447.246 185.615C447.783 186.471 448.121 187.339 448.26 188.22C448.403 189.086 448.349 189.941 448.098 190.783C447.848 191.625 447.394 192.435 446.737 193.213C446.089 193.986 445.244 194.7 444.202 195.354L437.989 199.253L426.507 180.957L438.653 173.334L440.112 175.659L430.939 181.416L434.312 186.791L437.564 184.749Z" fill="#453D37"/>
<path d="M459.425 159.739L462.434 180.14C462.534 180.817 462.555 181.42 462.498 181.95C462.443 182.465 462.32 182.931 462.127 183.346C461.937 183.748 461.683 184.107 461.366 184.425C461.054 184.751 460.685 185.055 460.26 185.336C459.217 186.026 458.572 186.183 458.324 185.808L457.099 183.956L458.012 183.352C458.212 183.22 458.399 183.066 458.571 182.892C458.744 182.718 458.889 182.52 459.006 182.299C459.126 182.064 459.213 181.796 459.267 181.497C459.315 181.189 459.315 180.836 459.267 180.436L458.979 178.288L443.349 170.373L446.088 168.561C446.339 168.395 446.58 168.325 446.813 168.351C447.046 168.377 447.28 168.45 447.515 168.57L456.302 173.261C457.068 173.677 457.795 174.168 458.48 174.734C458.34 174.323 458.223 173.909 458.127 173.493C458.04 173.071 457.962 172.636 457.895 172.19L456.473 162.645C456.438 162.428 456.46 162.198 456.538 161.954C456.611 161.702 456.769 161.496 457.01 161.336L459.425 159.739Z" fill="#453D37"/>
<path d="M475.496 152.259L469.944 156.071L480.515 171.466L477.633 173.445L467.062 158.05L461.498 161.87L459.842 159.459L473.84 149.848L475.496 152.259Z" fill="#453D37"/>
<path d="M494.27 151.977L487.279 147.256C487.016 147.074 486.719 146.862 486.388 146.618C486.051 146.367 485.701 146.088 485.337 145.781C485.518 146.229 485.671 146.653 485.796 147.055C485.923 147.443 486.024 147.794 486.099 148.108L488.218 156.253L494.27 151.977ZM504.359 154.766L502.141 156.333C501.896 156.506 501.649 156.589 501.399 156.582C501.152 156.561 500.925 156.483 500.719 156.347L496.496 153.49L488.888 158.865L490.171 163.8C490.221 164.009 490.213 164.241 490.148 164.495C490.083 164.75 489.932 164.96 489.695 165.128L487.465 166.703L481.996 144.12L484.899 142.068L504.359 154.766Z" fill="#453D37"/>
<path d="M521.381 142.545L518.811 144.391C518.535 144.59 518.251 144.683 517.959 144.671C517.667 144.659 517.338 144.569 516.971 144.401L508.415 141.258C508.193 141.171 507.991 141.113 507.809 141.083C507.622 141.046 507.44 141.041 507.264 141.069C507.081 141.09 506.9 141.146 506.72 141.238C506.534 141.322 506.34 141.437 506.137 141.583L504.115 143.036L509.759 150.894L506.909 152.941L494.306 135.399L497.157 133.351L502.548 140.855L504.266 139.621C504.623 139.365 504.883 139.092 505.045 138.803C505.207 138.514 505.289 138.123 505.291 137.629L505.258 128.713C505.233 128.387 505.265 128.08 505.355 127.794C505.453 127.502 505.64 127.257 505.916 127.059L508.328 125.326L508.42 136.046C508.433 136.492 508.379 136.906 508.259 137.288C508.14 137.67 507.962 138.031 507.727 138.372C508.269 138.167 508.798 138.089 509.313 138.138C509.836 138.181 510.415 138.343 511.05 138.627L521.381 142.545Z" fill="#453D37"/>
<path d="M551.068 121.524C551.18 121.946 551.158 122.333 551.002 122.686C550.852 123.048 550.637 123.326 550.359 123.52L549.24 124.302L543.661 100.823C543.564 100.44 543.577 100.083 543.7 99.7527C543.831 99.4169 544.052 99.1401 544.364 98.9224L545.482 98.1403L551.068 121.524Z" fill="#453D37"/>
<path d="M564.888 111.928C564.994 112.351 564.967 112.738 564.806 113.089C564.651 113.448 564.433 113.723 564.151 113.914L563.022 114.681L557.771 91.1257C557.679 90.7409 557.697 90.3843 557.824 90.056C557.96 89.7221 558.185 89.4484 558.5 89.2351L559.629 88.4686L564.888 111.928Z" fill="#453D37"/>
<path d="M600.152 67.2389L594.355 70.6682L603.864 86.741L600.856 88.5206L591.347 72.4478L585.538 75.8848L584.049 73.3674L598.663 64.7214L600.152 67.2389Z" fill="#453D37"/>
<path d="M619.95 74.4783C620.648 74.1072 621.192 73.7154 621.585 73.3028C621.981 72.8767 622.254 72.4426 622.404 72.0004C622.562 71.5535 622.607 71.105 622.537 70.6549C622.472 70.1913 622.322 69.7388 622.087 69.2974C621.608 68.397 620.923 67.8551 620.033 67.6719C619.146 67.4752 618.041 67.7292 616.717 68.4338L612.89 70.4702L616.11 76.5218L619.95 74.4783ZM608.556 62.3263L611.727 68.2852L614.826 66.6364C616.15 65.9318 617.003 65.1497 617.383 64.29C617.764 63.4304 617.699 62.5194 617.187 61.5572C616.628 60.5067 615.915 59.9119 615.048 59.7728C614.19 59.629 613.107 59.9048 611.801 60.6L608.556 62.3263ZM610.511 58.1767C611.729 57.5285 612.835 57.0933 613.827 56.8713C614.814 56.6405 615.701 56.5934 616.487 56.73C617.273 56.8667 617.961 57.1803 618.551 57.6708C619.144 58.1479 619.648 58.7748 620.061 59.5517C620.301 60.0019 620.463 60.4765 620.547 60.9754C620.635 61.4607 620.633 61.9663 620.539 62.4921C620.449 63.0044 620.265 63.5213 619.987 64.0428C619.71 64.5643 619.327 65.0795 618.839 65.5885C621.846 64.7248 623.96 65.4407 625.181 67.7359C625.613 68.5481 625.856 69.3763 625.908 70.2205C625.965 71.0511 625.834 71.8686 625.514 72.673C625.199 73.4639 624.69 74.2217 623.988 74.9463C623.286 75.6709 622.393 76.3221 621.307 76.8999L614.315 80.6204L604.168 61.5519L610.511 58.1767Z" fill="#453D37"/>
<path d="M647.948 51.9064C648.612 53.3621 648.987 54.812 649.075 56.256C649.162 57.7001 648.976 59.0651 648.519 60.3509C648.066 61.6235 647.349 62.786 646.367 63.8383C645.394 64.8865 644.171 65.7467 642.697 66.419C641.232 67.0871 639.78 67.4469 638.342 67.4985C636.913 67.5458 635.565 67.3253 634.298 66.837C633.027 66.3396 631.875 65.5847 630.841 64.5722C629.808 63.5597 628.96 62.3256 628.296 60.8699C627.632 59.4142 627.256 57.9643 627.169 56.5202C627.082 55.0761 627.267 53.7112 627.725 52.4253C628.182 51.1394 628.898 49.9724 629.87 48.9242C630.852 47.8719 632.076 47.0117 633.54 46.3436C635.014 45.6713 636.466 45.3115 637.895 45.2641C639.333 45.2126 640.684 45.4376 641.945 45.9392C643.216 46.4366 644.369 47.1915 645.402 48.204C646.435 49.2165 647.284 50.4506 647.948 51.9064ZM644.686 53.3941C644.172 52.2659 643.554 51.3219 642.834 50.5623C642.123 49.7985 641.338 49.2334 640.478 48.8671C639.628 48.4966 638.721 48.3277 637.758 48.3604C636.794 48.3931 635.808 48.6397 634.798 49.1004C633.797 49.5568 632.968 50.1381 632.312 50.844C631.656 51.55 631.184 52.3476 630.898 53.2368C630.611 54.126 630.518 55.0916 630.62 56.1334C630.721 57.1752 631.029 58.2602 631.544 59.3884C632.062 60.5257 632.682 61.4742 633.402 62.2338C634.122 62.9934 634.912 63.5564 635.772 63.9228C636.627 64.28 637.536 64.4423 638.5 64.4096C639.459 64.3678 640.439 64.1187 641.439 63.6622C642.449 63.2016 643.285 62.6228 643.945 61.926C644.601 61.22 645.07 60.429 645.352 59.5531C645.639 58.6638 645.727 57.7004 645.616 56.6627C645.515 55.6209 645.205 54.5313 644.686 53.3941Z" fill="#453D37"/>
<path d="M669.836 31.7513L677.423 51.9749L674.136 53.2078L669.099 39.7816C668.931 39.3322 668.765 38.8605 668.601 38.3666C668.446 37.8692 668.301 37.3256 668.165 36.7357C668.17 37.2893 668.148 37.8154 668.1 38.314C668.058 38.7997 667.999 39.2387 667.921 39.6308L664.202 55.7654C664.172 55.9152 664.129 56.0703 664.072 56.2306C664.024 56.3875 663.954 56.542 663.861 56.6942C663.775 56.8334 663.673 56.9622 663.558 57.0804C663.438 57.1893 663.299 57.2736 663.14 57.3333L660.682 58.2553L653.095 38.0317L656.395 36.7935L661.427 50.2057C661.596 50.6551 661.759 51.1332 661.917 51.64C662.081 52.1339 662.227 52.6664 662.356 53.2376C662.355 52.6933 662.375 52.1783 662.417 51.6926C662.465 51.194 662.525 50.7551 662.596 50.3759L666.316 34.2412C666.345 34.0914 666.384 33.9381 666.432 33.7812C666.489 33.6209 666.561 33.4711 666.648 33.3318C666.74 33.1796 666.846 33.0491 666.965 32.9402C667.081 32.822 667.219 32.733 667.378 32.6733L669.836 31.7513ZM660.548 32.0633C660.914 31.9263 661.204 31.7747 661.419 31.6085C661.644 31.4387 661.8 31.2415 661.886 31.0168C661.969 30.7827 661.989 30.5082 661.946 30.1934C661.902 29.8785 661.798 29.5011 661.633 29.061L663.403 28.3972C663.618 28.3164 663.812 28.3503 663.985 28.4989C664.159 28.6475 664.286 28.8295 664.367 29.0449C664.542 29.513 664.595 29.9683 664.526 30.4107C664.467 30.8496 664.297 31.2657 664.018 31.659C663.734 32.043 663.346 32.4023 662.852 32.7371C662.364 33.0591 661.788 33.3447 661.123 33.5941C660.458 33.8435 659.831 34.0092 659.243 34.0912C658.66 34.1604 658.135 34.1435 657.67 34.0405C657.2 33.9282 656.794 33.7281 656.451 33.4403C656.117 33.1489 655.863 32.7691 655.687 32.301C655.606 32.0856 655.582 31.865 655.615 31.6391C655.648 31.4132 655.772 31.2599 655.987 31.1791L657.757 30.5152C657.922 30.9553 658.092 31.3081 658.266 31.5738C658.441 31.8395 658.636 32.0331 658.853 32.1548C659.066 32.2672 659.308 32.3151 659.579 32.2987C659.86 32.2787 660.183 32.2003 660.548 32.0633Z" fill="#453D37"/>
<path d="M697.718 37.2976L692.701 30.5157C692.514 30.2569 692.304 29.9575 692.073 29.6175C691.839 29.2679 691.602 28.888 691.362 28.478C691.384 28.9602 691.386 29.4114 691.37 29.8317C691.36 30.2396 691.339 30.6043 691.305 30.9256L690.587 39.3113L697.718 37.2976ZM706.299 43.2911L703.687 44.0289C703.398 44.1104 703.137 44.1062 702.904 44.0162C702.677 43.9138 702.49 43.7642 702.341 43.5673L699.312 39.466L690.348 41.9974L689.912 47.077C689.889 47.2912 689.804 47.5073 689.658 47.7253C689.512 47.9432 689.299 48.0916 689.02 48.1704L686.393 48.9123L688.766 25.7976L692.187 24.8315L706.299 43.2911Z" fill="#453D37"/>
<path d="M715.208 38.3992C715.979 38.2284 716.61 38.0017 717.1 37.719C717.598 37.4244 717.98 37.089 718.245 36.7128C718.508 36.3269 718.667 35.9127 718.723 35.4702C718.786 35.0158 718.763 34.5445 718.655 34.0563C718.539 33.5291 718.361 33.0717 718.121 32.6843C717.882 32.2969 717.565 31.9984 717.17 31.7887C716.773 31.5693 716.289 31.4409 715.718 31.4036C715.156 31.3641 714.489 31.4297 713.718 31.6005L709.969 32.4305L711.473 39.2259L715.208 38.3992ZM713.118 28.8911C714.446 28.5971 715.616 28.4917 716.628 28.575C717.649 28.6561 718.525 28.8873 719.255 29.2686C719.982 29.6401 720.565 30.146 721.004 30.7863C721.453 31.4245 721.767 32.1487 721.946 32.9591C722.164 33.9452 722.191 34.8764 722.027 35.7527C721.87 36.617 721.532 37.4037 721.013 38.1126C720.494 38.8216 719.794 39.4322 718.914 39.9445C718.044 40.4547 717.008 40.8427 715.807 41.1086L708.646 42.694L703.977 21.6046L717.978 18.5051L718.571 21.1852L707.997 23.526L709.369 29.7211L713.118 28.8911Z" fill="#453D37"/>
<path d="M741.555 14.2774L736.005 34.1375C735.821 34.7968 735.595 35.3567 735.327 35.8171C735.068 36.2659 734.765 36.6409 734.42 36.9418C734.083 37.2312 733.705 37.4566 733.286 37.6178C732.868 37.7889 732.408 37.9164 731.905 38.0004C730.672 38.2062 730.019 38.0872 729.944 37.6434L729.579 35.4537L730.659 35.2734C730.896 35.2339 731.128 35.1697 731.357 35.0808C731.585 34.992 731.798 34.8703 731.995 34.7157C732.201 34.5496 732.389 34.3408 732.56 34.0892C732.729 33.8277 732.873 33.5047 732.991 33.1199L733.602 31.0409L722.543 17.4515L725.784 16.9105C726.079 16.8611 726.329 16.8956 726.531 17.0139C726.733 17.1322 726.917 17.2941 727.083 17.4995L733.201 25.3594C733.732 26.0514 734.196 26.7952 734.593 27.5907C734.632 27.1584 734.693 26.7326 734.775 26.3133C734.867 25.8924 734.973 25.4641 735.092 25.0284L737.677 15.731C737.733 15.5189 737.846 15.3175 738.017 15.1267C738.186 14.9261 738.414 14.8019 738.7 14.7542L741.555 14.2774Z" fill="#453D37"/>
<path d="M760.393 14.8833L753.706 15.6801L755.915 34.2239L752.445 34.6374L750.235 16.0936L743.532 16.8922L743.186 13.9878L760.047 11.9788L760.393 14.8833Z" fill="#453D37"/>
<path d="M776.639 24.1306L773.086 16.4797C772.954 16.1885 772.81 15.8532 772.651 15.4738C772.493 15.0843 772.336 14.6646 772.183 14.2146C772.108 14.6914 772.02 15.134 771.919 15.5424C771.828 15.9401 771.734 16.293 771.636 16.6009L769.249 24.6718L776.639 24.1306ZM783.843 31.7247L781.136 31.923C780.836 31.9449 780.582 31.8884 780.371 31.7534C780.17 31.6077 780.016 31.4235 779.909 31.2006L777.766 26.5749L768.476 27.2552L767.029 32.1439C766.964 32.3493 766.838 32.544 766.651 32.7281C766.464 32.9123 766.225 33.015 765.936 33.0361L763.214 33.2355L770.178 11.0677L773.723 10.808L783.843 31.7247Z" fill="#453D37"/>
<path d="M804.051 31.0612L800.887 31.1407C800.547 31.1492 800.26 31.0664 800.025 30.8922C799.791 30.7181 799.569 30.4586 799.361 30.1137L794.058 22.6996C793.923 22.5029 793.789 22.3412 793.655 22.2145C793.522 22.0778 793.374 21.9715 793.212 21.8955C793.05 21.8096 792.868 21.7541 792.668 21.7292C792.467 21.6942 792.241 21.6799 791.992 21.6861L789.502 21.7487L789.745 31.4206L786.236 31.5088L785.694 9.91561L789.203 9.82745L789.435 19.0645L791.549 19.0114C791.989 19.0004 792.357 18.9211 792.654 18.7736C792.95 18.6261 793.238 18.3488 793.518 17.9416L798.509 10.5539C798.672 10.2697 798.871 10.0347 799.106 9.84869C799.352 9.66246 799.644 9.56508 799.984 9.55654L802.953 9.48194L796.995 18.3944C796.755 18.7706 796.478 19.0826 796.164 19.3306C795.85 19.5786 795.5 19.7774 795.113 19.9272C795.677 20.0631 796.158 20.296 796.556 20.6261C796.965 20.956 797.351 21.4164 797.716 22.0074L804.051 31.0612Z" fill="#453D37"/>
<path d="M843.218 32.1336C843.039 32.5317 842.778 32.8187 842.434 32.9944C842.09 33.1801 841.748 33.2607 841.409 33.2362L840.048 33.1379L850.521 11.3957C850.687 11.0367 850.922 10.7679 851.226 10.5893C851.539 10.4115 851.886 10.3362 852.265 10.3636L853.626 10.4619L843.218 32.1336Z" fill="#453D37"/>
<path d="M856.977 33.1834C856.786 33.5759 856.516 33.8547 856.167 34.0198C855.818 34.1948 855.474 34.2649 855.135 34.2301L853.778 34.0901L864.912 12.679C865.089 12.3253 865.332 12.0638 865.641 11.8946C865.96 11.7264 866.308 11.6618 866.686 11.7008L868.044 11.8407L856.977 33.1834Z" fill="#453D37"/>
<path d="M917.284 23.6016L910.691 22.2295L906.886 40.5128L903.464 39.8008L907.269 21.5175L900.661 20.1423L901.256 17.2787L917.88 20.7379L917.284 23.6016Z" fill="#453D37"/>
<path d="M927.72 41.5548C928.485 41.7532 929.151 41.8331 929.719 41.7945C930.299 41.7487 930.794 41.6137 931.203 41.3893C931.622 41.1675 931.958 40.8673 932.212 40.4887C932.477 40.103 932.672 39.6682 932.798 39.1842C933.054 38.1969 932.916 37.3346 932.384 36.5974C931.865 35.853 930.879 35.2925 929.427 34.9158L925.231 33.827L923.509 40.4623L927.72 41.5548ZM927.548 24.8977L925.853 31.4313L929.25 32.3129C930.702 32.6896 931.859 32.6902 932.721 32.3146C933.583 31.9391 934.151 31.2238 934.424 30.1687C934.723 29.0169 934.6 28.0965 934.056 27.4077C933.521 26.7214 932.538 26.1924 931.105 25.8207L927.548 24.8977ZM931.794 23.1637C933.13 23.5103 934.238 23.9373 935.119 24.4448C936.003 24.9426 936.688 25.5077 937.174 26.1402C937.661 26.7728 937.956 27.4691 938.058 28.2291C938.173 28.982 938.119 29.7844 937.898 30.6362C937.77 31.1298 937.568 31.5889 937.293 32.0133C937.03 32.4306 936.686 32.801 936.261 33.1247C935.848 33.4412 935.363 33.6976 934.806 33.894C934.249 34.0903 933.618 34.2108 932.915 34.2555C935.713 35.6532 936.786 37.6104 936.133 40.127C935.902 41.0176 935.52 41.7915 934.988 42.4489C934.468 43.0992 933.819 43.6125 933.039 43.9887C932.272 44.3579 931.385 44.5719 930.377 44.6309C929.37 44.6898 928.272 44.5648 927.081 44.2559L919.415 42.2668L924.84 21.3591L931.794 23.1637Z" fill="#453D37"/>
<path d="M962.179 44.7018C961.679 46.2215 960.97 47.541 960.054 48.6604C959.137 49.7799 958.075 50.6563 956.866 51.2898C955.669 51.9169 954.354 52.2835 952.918 52.3896C951.492 52.4989 950.01 52.3 948.472 51.7931C946.942 51.2892 945.632 50.568 944.541 49.6293C943.46 48.6939 942.62 47.6168 942.021 46.3983C941.425 45.1702 941.092 43.8337 941.02 42.3887C940.949 40.9438 941.164 39.4615 941.664 37.9419C942.165 36.4223 942.874 35.1028 943.79 33.9833C944.707 32.8639 945.769 31.9874 946.978 31.354C948.187 30.7205 949.505 30.3491 950.93 30.2399C952.366 30.1337 953.848 30.3326 955.377 30.8364C956.916 31.3434 958.226 32.0647 959.307 33.0002C960.398 33.9388 961.237 35.0205 961.823 36.2455C962.419 37.4736 962.752 38.8101 962.823 40.255C962.895 41.6999 962.68 43.1822 962.179 44.7018ZM958.775 43.5799C959.163 42.4022 959.35 41.29 959.337 40.2433C959.333 39.1997 959.14 38.2517 958.758 37.3992C958.385 36.5498 957.834 35.8102 957.104 35.1802C956.375 34.5503 955.483 34.0616 954.429 33.7142C953.384 33.37 952.381 33.2343 951.42 33.3072C950.459 33.3801 949.571 33.6456 948.757 34.1038C947.943 34.5619 947.219 35.208 946.586 36.0418C945.954 36.8757 945.443 37.8815 945.055 39.0592C944.664 40.2464 944.475 41.3633 944.488 42.41C944.501 43.4567 944.699 44.4063 945.081 45.2588C945.467 46.1018 946.024 46.8383 946.754 47.4682C947.486 48.0887 948.375 48.571 949.42 48.9153C950.474 49.2626 951.48 49.4046 952.438 49.3413C953.399 49.2684 954.281 49.006 955.082 48.5542C955.897 48.0961 956.615 47.4485 957.239 46.6115C957.871 45.7776 958.383 44.7671 958.775 43.5799Z" fill="#453D37"/>
<path d="M988.821 43.3297L980.91 63.4291L977.644 62.1437L982.896 48.7999C983.072 48.3533 983.264 47.8917 983.473 47.4151C983.691 46.9422 983.948 46.4413 984.242 45.9122C983.875 46.3265 983.506 46.7028 983.137 47.0409C982.78 47.3735 982.442 47.6595 982.122 47.899L968.554 57.3894C968.432 57.4811 968.296 57.5673 968.146 57.648C968.005 57.7323 967.85 57.8 967.679 57.8511C967.521 57.8966 967.36 57.9244 967.195 57.9346C967.033 57.9355 966.873 57.9048 966.715 57.8426L964.272 56.8813L972.183 36.7818L975.463 38.0727L970.217 51.4025C970.041 51.8492 969.842 52.3136 969.62 52.7958C969.411 53.2724 969.163 53.7659 968.876 54.2763C969.24 53.8713 969.6 53.5025 969.956 53.17C970.326 52.8318 970.664 52.5458 970.971 52.312L984.539 42.8215C984.661 42.7298 984.793 42.6418 984.933 42.5575C985.083 42.4768 985.237 42.4137 985.395 42.3683C985.565 42.3172 985.731 42.2912 985.893 42.2903C986.058 42.2801 986.22 42.3061 986.378 42.3684L988.821 43.3297ZM981.715 37.3415C982.078 37.4843 982.395 37.5661 982.666 37.5869C982.947 37.6113 983.194 37.5691 983.409 37.4602C983.628 37.342 983.826 37.1515 984.005 36.8886C984.184 36.6258 984.359 36.2757 984.531 35.8384L986.29 36.5305C986.504 36.6147 986.625 36.77 986.654 36.9964C986.684 37.2228 986.656 37.443 986.572 37.657C986.389 38.1223 986.123 38.4961 985.776 38.7785C985.438 39.0645 985.033 39.2598 984.562 39.3646C984.094 39.4601 983.565 39.4667 982.974 39.3846C982.396 39.2968 981.777 39.1229 981.116 38.8629C980.455 38.6029 979.879 38.3062 979.387 37.9728C978.908 37.6338 978.53 37.2701 978.253 36.8817C977.979 36.4839 977.812 36.0633 977.75 35.6199C977.697 35.1801 977.763 34.7275 977.946 34.2623C978.03 34.0482 978.16 33.8683 978.335 33.7225C978.511 33.5767 978.706 33.5459 978.92 33.6301L980.679 34.3222C980.506 34.7596 980.396 35.1353 980.348 35.4494C980.299 35.7635 980.315 36.0383 980.394 36.2737C980.477 36.4997 980.625 36.6976 980.838 36.8673C981.06 37.0406 981.352 37.1987 981.715 37.3415Z" fill="#453D37"/>
<path d="M1006.55 66.0388L1007.21 57.6293C1007.24 57.311 1007.28 56.9478 1007.33 56.5396C1007.38 56.1223 1007.45 55.6801 1007.54 55.2128C1007.24 55.5911 1006.94 55.9333 1006.66 56.2397C1006.38 56.5413 1006.13 56.8022 1005.89 57.0223L999.844 62.8788L1006.55 66.0388ZM1009.09 76.1927L1006.63 75.0349C1006.36 74.907 1006.17 74.7325 1006.05 74.5116C1005.95 74.2858 1005.9 74.0497 1005.92 73.8033L1006.33 68.7212L997.901 64.7487L994.239 68.2956C994.081 68.4424 993.876 68.55 993.622 68.6185C993.369 68.687 993.111 68.6594 992.849 68.5357L990.38 67.3715L1007.34 51.4867L1010.55 53.0028L1009.09 76.1927Z" fill="#453D37"/>
<path d="M1020.48 78.9028C1021.18 79.2689 1021.81 79.5016 1022.37 79.6012C1022.94 79.6965 1023.44 79.6856 1023.89 79.5684C1024.34 79.4423 1024.73 79.2279 1025.06 78.9252C1025.4 78.6183 1025.68 78.2433 1025.91 77.8002C1026.16 77.3216 1026.32 76.8571 1026.39 76.4065C1026.46 75.956 1026.4 75.5234 1026.24 75.1089C1026.08 74.6855 1025.79 74.2755 1025.37 73.8789C1024.97 73.4869 1024.42 73.1079 1023.72 72.7419L1020.31 70.9628L1017.09 77.1307L1020.48 78.9028ZM1025 70.2827C1026.21 70.9128 1027.17 71.5855 1027.89 72.3008C1028.62 73.0207 1029.14 73.7614 1029.46 74.523C1029.77 75.2757 1029.89 76.0383 1029.82 76.8107C1029.75 77.5878 1029.52 78.3441 1029.14 79.0796C1028.67 79.9747 1028.09 80.7044 1027.4 81.269C1026.72 81.8292 1025.96 82.2135 1025.11 82.4217C1024.25 82.6299 1023.32 82.6466 1022.32 82.472C1021.33 82.3019 1020.28 81.9319 1019.19 81.362L1012.69 77.9636L1022.7 58.8218L1035.41 65.4658L1034.14 67.8984L1024.54 62.8807L1021.6 68.5036L1025 70.2827Z" fill="#453D37"/>
<path d="M1058.8 78.5184L1041.97 90.4319C1041.41 90.8275 1040.89 91.1196 1040.39 91.308C1039.9 91.4927 1039.43 91.5929 1038.97 91.6089C1038.53 91.621 1038.09 91.5575 1037.67 91.4183C1037.24 91.2878 1036.8 91.0965 1036.35 90.8445C1035.27 90.2267 1034.84 89.7223 1035.06 89.3311L1036.16 87.4011L1037.11 87.9422C1037.32 88.0608 1037.54 88.1577 1037.77 88.2328C1038 88.308 1038.25 88.3477 1038.5 88.3521C1038.76 88.3528 1039.04 88.3094 1039.33 88.2219C1039.63 88.1257 1039.94 87.9656 1040.28 87.7416L1042.06 86.5134L1042.05 68.9929L1044.9 70.6163C1045.16 70.7645 1045.34 70.9483 1045.42 71.1677C1045.5 71.3871 1045.54 71.6288 1045.54 71.893L1045.33 81.851C1045.31 82.723 1045.2 83.5928 1045.01 84.4602C1045.31 84.1495 1045.62 83.8573 1045.95 83.5836C1046.29 83.315 1046.64 83.0494 1047.01 82.7868L1054.88 77.2006C1055.05 77.0712 1055.27 76.9864 1055.52 76.9462C1055.78 76.8972 1056.04 76.9444 1056.29 77.0877L1058.8 78.5184Z" fill="#453D37"/>
<path d="M1071.82 89.7611L1066.05 86.2889L1056.42 102.291L1053.43 100.489L1063.06 84.4871L1057.27 81.0072L1058.78 78.5009L1073.33 87.2547L1071.82 89.7611Z" fill="#453D37"/>
<path d="M1079.33 106.937L1081.02 98.672C1081.08 98.3596 1081.16 98.0038 1081.26 97.6046C1081.37 97.197 1081.49 96.7666 1081.63 96.3136C1081.29 96.6523 1080.96 96.9561 1080.63 97.2249C1080.32 97.4906 1080.04 97.7183 1079.78 97.9079L1073.06 102.981L1079.33 106.937ZM1080.61 117.326L1078.31 115.876C1078.06 115.716 1077.89 115.519 1077.8 115.286C1077.72 115.049 1077.71 114.809 1077.76 114.567L1078.78 109.572L1070.9 104.6L1066.84 107.672C1066.66 107.799 1066.44 107.88 1066.18 107.917C1065.92 107.954 1065.67 107.895 1065.43 107.741L1063.12 106.283L1081.89 92.591L1084.9 94.4888L1080.61 117.326Z" fill="#453D37"/>
<path d="M1098.52 129.033L1095.87 127.296C1095.59 127.11 1095.4 126.878 1095.3 126.601C1095.21 126.325 1095.18 125.985 1095.2 125.583L1095.07 116.468C1095.07 116.23 1095.05 116.021 1095.01 115.841C1094.98 115.652 1094.92 115.481 1094.83 115.326C1094.74 115.163 1094.63 115.014 1094.48 114.879C1094.33 114.736 1094.15 114.596 1093.95 114.459L1091.86 113.092L1086.55 121.18L1083.62 119.254L1095.47 101.197L1098.41 103.123L1093.34 110.848L1095.1 112.008C1095.47 112.25 1095.82 112.394 1096.15 112.442C1096.48 112.489 1096.87 112.426 1097.33 112.25L1105.64 109.021C1105.94 108.88 1106.24 108.8 1106.54 108.781C1106.84 108.768 1107.14 108.855 1107.42 109.041L1109.91 110.671L1099.93 114.603C1099.52 114.775 1099.12 114.874 1098.72 114.899C1098.32 114.924 1097.92 114.888 1097.51 114.791C1097.9 115.224 1098.16 115.689 1098.3 116.187C1098.45 116.691 1098.5 117.29 1098.47 117.983L1098.52 129.033Z" fill="#453D37"/>
<path d="M1130.03 150.353C1129.68 150.61 1129.31 150.729 1128.92 150.71C1128.53 150.7 1128.2 150.6 1127.91 150.41L1126.78 149.648L1146.68 135.993C1147 135.764 1147.34 135.648 1147.69 135.644C1148.05 135.646 1148.39 135.752 1148.71 135.965L1149.84 136.727L1130.03 150.353Z" fill="#453D37"/>
<path d="M1140.99 157.725C1140.63 157.982 1140.26 158.102 1139.88 158.085C1139.49 158.075 1139.15 157.976 1138.87 157.787L1137.73 157.027L1157.6 143.326C1157.92 143.096 1158.26 142.979 1158.61 142.974C1158.97 142.975 1159.31 143.081 1159.63 143.293L1160.76 144.052L1140.99 157.725Z" fill="#453D37"/>
<path d="M1198.44 172.837L1192.77 169.216L1182.73 184.963L1179.78 183.084L1189.82 167.337L1184.13 163.708L1185.7 161.242L1200.02 170.37L1198.44 172.837Z" fill="#453D37"/>
<path d="M1200.75 192.976C1201.43 193.389 1202.04 193.659 1202.6 193.787C1203.17 193.912 1203.68 193.927 1204.14 193.831C1204.6 193.741 1205.01 193.551 1205.36 193.263C1205.73 192.971 1206.04 192.612 1206.3 192.185C1206.84 191.315 1206.95 190.45 1206.66 189.59C1206.38 188.727 1205.6 187.904 1204.32 187.121L1200.62 184.859L1197.04 190.706L1200.75 192.976ZM1205.43 176.989L1201.91 182.747L1204.91 184.579C1206.19 185.362 1207.29 185.699 1208.23 185.59C1209.16 185.482 1209.91 184.962 1210.48 184.033C1211.1 183.018 1211.25 182.101 1210.93 181.284C1210.62 180.472 1209.83 179.679 1208.57 178.907L1205.43 176.989ZM1210 176.565C1211.18 177.286 1212.12 178.017 1212.81 178.758C1213.51 179.491 1214 180.231 1214.28 180.978C1214.57 181.725 1214.64 182.477 1214.52 183.234C1214.41 183.987 1214.13 184.74 1213.67 185.49C1213.4 185.925 1213.08 186.306 1212.69 186.632C1212.32 186.955 1211.88 187.209 1211.38 187.395C1210.89 187.578 1210.35 187.682 1209.76 187.708C1209.17 187.734 1208.53 187.666 1207.85 187.504C1210.12 189.655 1210.58 191.839 1209.22 194.057C1208.74 194.842 1208.15 195.472 1207.45 195.946C1206.76 196.417 1205.99 196.719 1205.14 196.852C1204.29 196.982 1203.38 196.929 1202.4 196.692C1201.42 196.456 1200.41 196.017 1199.36 195.375L1192.6 191.242L1203.87 172.816L1210 176.565Z" fill="#453D37"/>
<path d="M1235.45 204.149C1234.65 205.536 1233.69 206.686 1232.57 207.597C1231.44 208.509 1230.23 209.152 1228.91 209.529C1227.62 209.901 1226.25 209.995 1224.83 209.809C1223.41 209.628 1222 209.134 1220.59 208.327C1219.2 207.525 1218.06 206.554 1217.18 205.415C1216.31 204.28 1215.7 203.056 1215.36 201.741C1215.03 200.418 1214.97 199.042 1215.19 197.612C1215.41 196.183 1215.92 194.774 1216.72 193.387C1217.52 192 1218.48 190.85 1219.6 189.939C1220.73 189.028 1221.94 188.384 1223.26 188.007C1224.57 187.631 1225.93 187.533 1227.35 187.714C1228.78 187.9 1230.19 188.394 1231.59 189.196C1232.99 190.003 1234.13 190.974 1235 192.109C1235.88 193.248 1236.48 194.477 1236.81 195.795C1237.14 197.118 1237.2 198.494 1236.98 199.924C1236.76 201.353 1236.25 202.762 1235.45 204.149ZM1232.34 202.363C1232.96 201.288 1233.37 200.236 1233.56 199.209C1233.77 198.186 1233.77 197.218 1233.57 196.306C1233.38 195.399 1232.99 194.563 1232.4 193.799C1231.81 193.035 1231.04 192.376 1230.08 191.823C1229.12 191.275 1228.17 190.94 1227.21 190.817C1226.26 190.694 1225.33 190.775 1224.44 191.06C1223.55 191.344 1222.71 191.831 1221.92 192.52C1221.14 193.209 1220.43 194.091 1219.82 195.166C1219.19 196.25 1218.78 197.305 1218.58 198.333C1218.39 199.361 1218.39 200.331 1218.59 201.243C1218.8 202.146 1219.19 202.98 1219.78 203.745C1220.37 204.5 1221.15 205.152 1222.1 205.7C1223.06 206.253 1224.02 206.595 1224.97 206.727C1225.93 206.849 1226.84 206.77 1227.72 206.49C1228.61 206.205 1229.44 205.716 1230.22 205.022C1231.01 204.333 1231.72 203.447 1232.34 202.363Z" fill="#453D37"/>
<path d="M1264.83 207.765L1254.69 226.838L1251.59 225.19L1258.32 212.528C1258.55 212.104 1258.79 211.667 1259.05 211.217C1259.32 210.772 1259.63 210.304 1259.99 209.811C1259.58 210.181 1259.17 210.513 1258.76 210.808C1258.37 211.097 1258 211.343 1257.66 211.545L1243.1 219.435C1242.97 219.513 1242.82 219.583 1242.66 219.646C1242.51 219.714 1242.35 219.764 1242.18 219.795C1242.02 219.822 1241.85 219.832 1241.69 219.823C1241.53 219.806 1241.37 219.757 1241.22 219.677L1238.9 218.445L1249.04 199.372L1252.15 201.027L1245.43 213.676C1245.2 214.1 1244.95 214.539 1244.68 214.992C1244.42 215.442 1244.12 215.904 1243.77 216.379C1244.18 216.018 1244.58 215.692 1244.97 215.402C1245.38 215.108 1245.74 214.862 1246.08 214.665L1260.63 206.774C1260.76 206.697 1260.91 206.625 1261.05 206.557C1261.21 206.494 1261.37 206.448 1261.53 206.421C1261.71 206.39 1261.88 206.383 1262.04 206.4C1262.2 206.409 1262.36 206.453 1262.51 206.533L1264.83 207.765ZM1258.45 201.009C1258.79 201.192 1259.1 201.31 1259.37 201.361C1259.64 201.417 1259.89 201.403 1260.12 201.319C1260.35 201.227 1260.57 201.06 1260.77 200.819C1260.98 200.578 1261.2 200.25 1261.42 199.835L1263.09 200.722C1263.29 200.83 1263.39 200.998 1263.4 201.227C1263.4 201.455 1263.35 201.671 1263.24 201.874C1263 202.315 1262.7 202.657 1262.32 202.898C1261.95 203.143 1261.53 203.292 1261.05 203.342C1260.57 203.384 1260.05 203.331 1259.47 203.182C1258.9 203.029 1258.31 202.786 1257.68 202.453C1257.05 202.12 1256.52 201.76 1256.06 201.373C1255.63 200.981 1255.29 200.577 1255.06 200.16C1254.83 199.734 1254.72 199.297 1254.7 198.849C1254.7 198.406 1254.82 197.964 1255.05 197.523C1255.16 197.319 1255.31 197.155 1255.5 197.03C1255.69 196.906 1255.89 196.897 1256.09 197.005L1257.76 197.892C1257.54 198.307 1257.39 198.668 1257.3 198.974C1257.22 199.281 1257.21 199.556 1257.26 199.799C1257.31 200.033 1257.44 200.246 1257.63 200.439C1257.83 200.636 1258.1 200.826 1258.45 201.009Z" fill="#453D37"/>
<path d="M1281.03 230.794L1281.74 222.388C1281.77 222.07 1281.81 221.707 1281.86 221.299C1281.91 220.882 1281.98 220.44 1282.07 219.973C1281.77 220.35 1281.48 220.691 1281.19 220.996C1280.91 221.296 1280.65 221.556 1280.42 221.775L1274.35 227.605L1281.03 230.794ZM1283.53 240.96L1281.08 239.791C1280.81 239.662 1280.62 239.486 1280.5 239.265C1280.4 239.039 1280.36 238.802 1280.37 238.556L1280.8 233.476L1272.39 229.466L1268.72 232.996C1268.56 233.143 1268.35 233.249 1268.1 233.317C1267.85 233.384 1267.59 233.355 1267.33 233.23L1264.86 232.055L1281.89 216.246L1285.1 217.776L1283.53 240.96Z" fill="#453D37"/>
<path d="M1295.47 243.238C1296.2 243.554 1296.84 243.742 1297.4 243.803C1297.98 243.858 1298.49 243.812 1298.92 243.664C1299.36 243.507 1299.73 243.266 1300.04 242.941C1300.36 242.611 1300.62 242.217 1300.82 241.759C1301.04 241.264 1301.16 240.79 1301.2 240.336C1301.23 239.882 1301.15 239.454 1300.95 239.052C1300.76 238.641 1300.45 238.252 1300.01 237.885C1299.58 237.522 1299 237.183 1298.28 236.866L1294.76 235.328L1291.97 241.706L1295.47 243.238ZM1299.39 234.323C1300.63 234.868 1301.64 235.472 1302.41 236.135C1303.19 236.803 1303.76 237.506 1304.12 238.243C1304.49 238.972 1304.67 239.725 1304.64 240.5C1304.63 241.28 1304.46 242.051 1304.12 242.811C1303.72 243.737 1303.19 244.505 1302.54 245.116C1301.91 245.722 1301.17 246.159 1300.33 246.426C1299.5 246.693 1298.57 246.774 1297.56 246.67C1296.56 246.569 1295.49 246.273 1294.36 245.78L1287.64 242.843L1296.29 223.051L1309.43 228.794L1308.33 231.309L1298.41 226.972L1295.87 232.786L1299.39 234.323Z" fill="#453D37"/>
<path d="M1330.92 237.552L1315.86 251.645C1315.36 252.114 1314.88 252.475 1314.41 252.729C1313.96 252.978 1313.5 253.142 1313.05 253.22C1312.61 253.292 1312.17 253.288 1311.73 253.209C1311.29 253.138 1310.83 253.008 1310.35 252.819C1309.19 252.355 1308.7 251.914 1308.86 251.496L1309.69 249.435L1310.7 249.841C1310.93 249.93 1311.16 249.996 1311.4 250.039C1311.64 250.082 1311.89 250.088 1312.14 250.058C1312.4 250.023 1312.67 249.942 1312.94 249.816C1313.22 249.68 1313.51 249.479 1313.82 249.211L1315.42 247.752L1313.02 230.396L1316.07 231.615C1316.35 231.727 1316.54 231.886 1316.65 232.092C1316.77 232.298 1316.84 232.532 1316.87 232.794L1318.02 242.687C1318.12 243.554 1318.13 244.431 1318.05 245.317C1318.31 244.968 1318.59 244.635 1318.87 244.319C1319.17 244.007 1319.48 243.696 1319.81 243.386L1326.85 236.781C1327 236.629 1327.21 236.515 1327.45 236.441C1327.7 236.357 1327.96 236.369 1328.23 236.477L1330.92 237.552Z" fill="#453D37"/>
<path d="M1345.8 246.15L1339.47 243.836L1333.06 261.374L1329.78 260.174L1336.19 242.635L1329.85 240.316L1330.86 237.569L1346.8 243.403L1345.8 246.15Z" fill="#453D37"/>
<path d="M1359.15 261.809L1358.78 253.382C1358.76 253.062 1358.76 252.697 1358.76 252.286C1358.76 251.866 1358.77 251.418 1358.8 250.943C1358.55 251.356 1358.3 251.732 1358.05 252.071C1357.82 252.405 1357.6 252.695 1357.39 252.943L1352.11 259.5L1359.15 261.809ZM1362.93 271.572L1360.35 270.726C1360.06 270.632 1359.85 270.483 1359.71 270.278C1359.58 270.067 1359.5 269.838 1359.49 269.591L1359.27 264.498L1350.41 261.596L1347.22 265.567C1347.08 265.732 1346.89 265.865 1346.65 265.964C1346.4 266.063 1346.14 266.067 1345.87 265.977L1343.27 265.126L1358.14 247.271L1361.52 248.378L1362.93 271.572Z" fill="#453D37"/>
<path d="M1381.08 276.917L1378.04 276.035C1377.71 275.941 1377.46 275.775 1377.29 275.538C1377.12 275.301 1376.99 274.987 1376.9 274.595L1374.08 265.923C1374.02 265.695 1373.94 265.5 1373.85 265.339C1373.76 265.169 1373.65 265.023 1373.52 264.901C1373.39 264.77 1373.24 264.662 1373.05 264.578C1372.87 264.484 1372.66 264.402 1372.42 264.332L1370.03 263.639L1367.34 272.93L1363.96 271.953L1369.98 251.208L1373.35 252.186L1370.78 261.06L1372.81 261.649C1373.23 261.772 1373.61 261.807 1373.93 261.757C1374.26 261.706 1374.62 261.529 1375.01 261.225L1382 255.694C1382.24 255.473 1382.51 255.309 1382.79 255.203C1383.08 255.1 1383.38 255.096 1383.71 255.19L1386.56 256.018L1378.19 262.709C1377.84 262.995 1377.49 263.208 1377.11 263.35C1376.74 263.491 1376.34 263.575 1375.93 263.601C1376.43 263.901 1376.81 264.268 1377.09 264.703C1377.38 265.141 1377.61 265.697 1377.78 266.371L1381.08 276.917Z" fill="#453D37"/>
<path d="M1420.93 286.995C1420.7 287.365 1420.4 287.614 1420.04 287.741C1419.67 287.878 1419.32 287.911 1418.99 287.84L1417.65 287.557L1431 267.448C1431.21 267.116 1431.48 266.881 1431.8 266.746C1432.14 266.613 1432.49 266.585 1432.86 266.664L1434.2 266.947L1420.93 286.995Z" fill="#453D37"/>
<path d="M1435.43 289.997C1435.21 290.371 1434.92 290.626 1434.55 290.761C1434.19 290.905 1433.84 290.946 1433.51 290.882L1432.17 290.627L1445.09 270.245C1445.29 269.907 1445.56 269.668 1445.88 269.525C1446.21 269.385 1446.57 269.35 1446.94 269.421L1448.28 269.677L1435.43 289.997Z" fill="#453D37"/>
<path d="M1492.75 280.009L1486.07 279.136L1483.65 297.653L1480.18 297.2L1482.61 278.683L1475.91 277.807L1476.29 274.907L1493.13 277.109L1492.75 280.009Z" fill="#453D37"/>
<path d="M1503.07 297.158C1503.86 297.24 1504.53 297.219 1505.08 297.095C1505.65 296.963 1506.12 296.756 1506.49 296.472C1506.87 296.19 1507.16 295.843 1507.35 295.431C1507.56 295.01 1507.69 294.55 1507.74 294.053C1507.84 293.039 1507.58 292.207 1506.94 291.558C1506.31 290.899 1505.26 290.493 1503.76 290.338L1499.45 289.891L1498.74 296.709L1503.07 297.158ZM1500.4 280.715L1499.71 287.429L1503.2 287.791C1504.69 287.946 1505.83 287.773 1506.63 287.273C1507.43 286.772 1507.88 285.98 1507.99 284.896C1508.12 283.712 1507.86 282.82 1507.22 282.221C1506.58 281.623 1505.53 281.247 1504.06 281.094L1500.4 280.715ZM1504.34 278.364C1505.72 278.506 1506.88 278.762 1507.82 279.132C1508.77 279.492 1509.53 279.948 1510.11 280.5C1510.68 281.053 1511.08 281.697 1511.3 282.433C1511.52 283.161 1511.59 283.962 1511.5 284.837C1511.45 285.344 1511.31 285.828 1511.11 286.289C1510.91 286.741 1510.62 287.159 1510.25 287.543C1509.89 287.918 1509.45 288.244 1508.93 288.522C1508.41 288.799 1507.8 289.013 1507.11 289.163C1510.09 290.125 1511.44 291.899 1511.18 294.485C1511.08 295.4 1510.82 296.223 1510.39 296.953C1509.97 297.673 1509.41 298.278 1508.7 298.767C1507.99 299.247 1507.15 299.592 1506.16 299.801C1505.17 300.01 1504.07 300.051 1502.84 299.924L1494.97 299.107L1497.2 277.622L1504.34 278.364Z" fill="#453D37"/>
<path d="M1537.59 292.111C1537.47 293.706 1537.1 295.158 1536.48 296.466C1535.86 297.774 1535.04 298.881 1534.02 299.788C1533.01 300.686 1531.83 301.36 1530.46 301.81C1529.1 302.261 1527.62 302.426 1526 302.306C1524.39 302.187 1522.95 301.804 1521.66 301.157C1520.39 300.511 1519.31 299.669 1518.44 298.631C1517.56 297.584 1516.91 296.368 1516.5 294.983C1516.08 293.598 1515.93 292.108 1516.05 290.512C1516.16 288.917 1516.53 287.465 1517.15 286.157C1517.77 284.849 1518.59 283.742 1519.61 282.835C1520.63 281.928 1521.82 281.249 1523.17 280.798C1524.54 280.348 1526.03 280.183 1527.63 280.302C1529.25 280.422 1530.69 280.805 1531.97 281.451C1533.26 282.098 1534.33 282.945 1535.2 283.992C1536.07 285.039 1536.72 286.255 1537.14 287.64C1537.55 289.025 1537.71 290.515 1537.59 292.111ZM1534.01 291.845C1534.1 290.609 1534.02 289.484 1533.75 288.472C1533.49 287.46 1533.08 286.587 1532.5 285.852C1531.93 285.118 1531.22 284.534 1530.36 284.099C1529.5 283.664 1528.52 283.406 1527.41 283.323C1526.31 283.242 1525.31 283.353 1524.39 283.656C1523.48 283.959 1522.68 284.431 1522 285.073C1521.32 285.714 1520.77 286.516 1520.36 287.478C1519.95 288.441 1519.7 289.54 1519.61 290.776C1519.51 292.023 1519.6 293.153 1519.87 294.165C1520.13 295.177 1520.55 296.051 1521.13 296.786C1521.71 297.511 1522.43 298.09 1523.29 298.525C1524.15 298.95 1525.13 299.203 1526.22 299.285C1527.33 299.367 1528.34 299.261 1529.26 298.968C1530.17 298.665 1530.96 298.197 1531.63 297.565C1532.31 296.924 1532.85 296.121 1533.25 295.158C1533.67 294.196 1533.92 293.092 1534.01 291.845Z" fill="#453D37"/>
<path d="M1564.94 282.733L1563.95 304.311L1560.45 304.151L1561.1 289.826C1561.12 289.346 1561.15 288.847 1561.2 288.329C1561.25 287.811 1561.33 287.254 1561.44 286.658C1561.23 287.169 1561 287.644 1560.76 288.084C1560.53 288.514 1560.3 288.894 1560.08 289.224L1550.31 302.593C1550.22 302.719 1550.12 302.845 1550.01 302.969C1549.9 303.095 1549.77 303.209 1549.63 303.313C1549.49 303.407 1549.35 303.485 1549.2 303.548C1549.05 303.601 1548.88 303.624 1548.71 303.616L1546.09 303.497L1547.08 281.919L1550.6 282.08L1549.94 296.39C1549.92 296.869 1549.89 297.373 1549.83 297.901C1549.79 298.42 1549.71 298.967 1549.61 299.543C1549.82 299.042 1550.04 298.576 1550.27 298.146C1550.51 297.707 1550.74 297.327 1550.95 297.006L1560.72 283.637C1560.81 283.511 1560.9 283.385 1561.01 283.26C1561.12 283.135 1561.25 283.026 1561.38 282.932C1561.53 282.828 1561.68 282.75 1561.83 282.697C1561.98 282.634 1562.15 282.606 1562.31 282.614L1564.94 282.733ZM1556.28 279.365C1556.67 279.383 1556.99 279.358 1557.26 279.29C1557.53 279.222 1557.75 279.102 1557.92 278.93C1558.09 278.747 1558.21 278.503 1558.3 278.196C1558.38 277.89 1558.43 277.502 1558.46 277.032L1560.34 277.118C1560.57 277.129 1560.74 277.236 1560.84 277.441C1560.94 277.646 1560.98 277.863 1560.97 278.093C1560.95 278.592 1560.82 279.032 1560.58 279.412C1560.36 279.792 1560.04 280.107 1559.62 280.359C1559.21 280.6 1558.71 280.778 1558.13 280.891C1557.55 280.995 1556.91 281.031 1556.2 280.999C1555.49 280.966 1554.85 280.872 1554.28 280.716C1553.71 280.55 1553.24 280.328 1552.85 280.05C1552.46 279.762 1552.17 279.418 1551.97 279.019C1551.78 278.62 1551.69 278.17 1551.71 277.671C1551.72 277.441 1551.79 277.229 1551.91 277.034C1552.03 276.839 1552.2 276.747 1552.43 276.758L1554.32 276.844C1554.3 277.313 1554.32 277.704 1554.37 278.017C1554.43 278.33 1554.53 278.585 1554.68 278.782C1554.83 278.969 1555.04 279.109 1555.29 279.2C1555.56 279.293 1555.89 279.348 1556.28 279.365Z" fill="#453D37"/>
<path d="M1593.67 296.882L1590.78 288.957C1590.67 288.656 1590.55 288.309 1590.43 287.918C1590.3 287.516 1590.18 287.085 1590.07 286.623C1589.95 287.092 1589.83 287.526 1589.69 287.924C1589.57 288.312 1589.44 288.656 1589.32 288.955L1586.26 296.794L1593.67 296.882ZM1600.2 305.06L1597.49 305.028C1597.19 305.024 1596.94 304.946 1596.74 304.794C1596.55 304.632 1596.41 304.435 1596.32 304.204L1594.58 299.413L1585.27 299.302L1583.41 304.05C1583.33 304.249 1583.19 304.433 1582.98 304.6C1582.78 304.768 1582.54 304.85 1582.25 304.847L1579.52 304.814L1588.34 283.317L1591.89 283.36L1600.2 305.06Z" fill="#453D37"/>
</svg>
