<svg width="420" height="32" viewBox="0 0 420 32" fill="none" xmlns="http://www.w3.org/2000/svg">
<g clip-path="url(#clip0_127_17907)">
<path fill-rule="evenodd" clip-rule="evenodd" d="M317.294 10.5474H324.919C325.521 10.5474 326.013 11.0357 326.013 11.6326V19.1964C326.013 19.7933 325.521 20.2817 324.919 20.2817H317.294C316.692 20.2817 316.2 19.7933 316.2 19.1964V11.6326C316.2 11.0357 316.692 10.5474 317.294 10.5474Z" fill="white"/>
<path fill-rule="evenodd" clip-rule="evenodd" d="M322.845 17.7843H321.675C321.641 17.7843 321.613 17.7569 321.613 17.7233V17.4361L320.733 18.3095C320.709 18.3332 320.67 18.3332 320.646 18.3095L319.819 17.4889C319.795 17.4652 319.795 17.4264 319.819 17.4027L320.024 17.1996H318.779C318.745 17.1996 318.717 17.1722 318.717 17.1386V15.9782C318.717 15.9446 318.745 15.9172 318.779 15.9172H319.068L318.187 15.0438C318.164 15.0201 318.164 14.9813 318.187 14.9576L319.015 14.1369C319.039 14.1133 319.078 14.1133 319.102 14.1369L319.306 14.3401V13.1049C319.306 13.0714 319.334 13.044 319.368 13.044H320.538C320.571 13.044 320.599 13.0714 320.599 13.1049V13.3921L321.48 12.5188C321.504 12.4951 321.543 12.4951 321.567 12.5187L322.394 13.3394C322.418 13.363 322.418 13.4018 322.394 13.4255L322.189 13.6287H323.434C323.468 13.6287 323.496 13.6562 323.496 13.6897V14.8502C323.496 14.8838 323.468 14.9112 323.434 14.9112H323.145L324.025 15.7844C324.049 15.8082 324.049 15.8469 324.025 15.8706L323.198 16.6912C323.174 16.7149 323.135 16.7149 323.111 16.6912L322.907 16.4881V17.7233C322.907 17.7569 322.879 17.7843 322.845 17.7843ZM322.695 14.5504L322.237 14.9111L321.675 14.9112C321.641 14.9112 321.613 14.8838 321.613 14.8502V13.6897L321.547 14.2652L321.15 14.6596C321.126 14.6833 321.087 14.6833 321.063 14.6596L320.599 14.1996L320.236 13.839L320.599 14.2924V14.8501C320.599 14.8836 320.571 14.911 320.538 14.911H319.368L319.948 14.9767L320.346 15.371C320.37 15.3948 320.37 15.4335 320.346 15.4572L319.518 16.2778L319.976 15.9172H320.538C320.571 15.9172 320.599 15.9446 320.599 15.9782V17.1386L320.666 16.563L321.063 16.1687C321.087 16.145 321.126 16.145 321.15 16.1687L321.977 16.9892L321.613 16.5359V15.9782C321.613 15.9446 321.641 15.9172 321.675 15.9172H322.845L322.264 15.8516L321.867 15.4572C321.843 15.4335 321.843 15.3947 321.867 15.371L322.331 14.9111L322.695 14.5504ZM322.695 14.5504V14.5504V14.5504ZM321.613 13.6897V13.6897V13.6897Z" fill="#A3A3A3"/>
<path d="M331.253 14.445C331.267 14.8983 330.906 15.2258 330.449 15.2258H329.248V13.697H330.457C330.884 13.697 331.239 13.9917 331.253 14.445ZM361.03 11.6341V16.1874C361.03 16.2657 360.96 16.3189 360.881 16.3189H359.919C359.843 16.3189 359.771 16.2637 359.771 16.1874V11.6341H358.263C358.185 11.6341 358.13 11.5617 358.13 11.486V10.7053C358.13 10.6266 358.184 10.5573 358.263 10.5573C359.696 10.5573 361.129 10.5573 362.563 10.5573C362.642 10.5573 362.695 10.6266 362.695 10.7053V11.486C362.695 11.5617 362.639 11.6341 362.563 11.6341H361.03ZM336.959 16.1299V15.3733C336.959 15.3171 336.916 15.234 336.819 15.234H334.568C334.43 15.234 334.159 15.1395 334.159 14.7932V13.6972H336.551C336.651 13.6972 336.694 13.6125 336.694 13.5626V12.7925C336.694 12.712 336.637 12.6532 336.536 12.6532H334.159V12.0387C334.159 11.7775 334.377 11.6341 334.568 11.6341H336.812C336.917 11.6341 336.959 11.5539 336.959 11.4949V10.6967C336.959 10.618 336.899 10.5578 336.802 10.5573L334.465 10.5464C333.587 10.5423 332.899 11.2715 332.899 12.0779V14.8066C332.899 15.6433 333.612 16.3189 334.432 16.3189H336.816C336.901 16.3189 336.957 16.2574 336.959 16.1797C336.959 16.1656 336.959 16.1467 336.959 16.1299ZM346.492 13.2532V13.2121C346.671 13.1053 346.82 12.9655 346.937 12.7944C347.056 12.6232 347.143 12.4204 347.196 12.1875L347.578 10.7204C347.592 10.6552 347.547 10.5573 347.439 10.5573H346.534C346.503 10.5561 346.471 10.5615 346.438 10.5751C346.405 10.5875 346.382 10.6204 346.368 10.6725L345.995 12.056C345.951 12.2244 345.891 12.3587 345.818 12.4573C345.745 12.5574 345.664 12.6313 345.574 12.6792C345.486 12.7272 345.394 12.7587 345.303 12.7738C345.211 12.7875 345.124 12.7944 345.042 12.7929H344.388V10.6942C344.388 10.6058 344.313 10.5575 344.249 10.5575H343.278C343.195 10.5575 343.128 10.6162 343.128 10.6889V16.1874C343.128 16.2637 343.201 16.3189 343.278 16.3189H344.239C344.318 16.3189 344.388 16.2657 344.388 16.1874V13.7463H345.059C345.251 13.7436 345.414 13.7614 345.546 13.7998C345.679 13.8368 345.789 13.9052 345.878 14.0052C345.965 14.1053 346.038 14.2491 346.094 14.4367L346.605 16.2201C346.633 16.2934 346.684 16.3189 346.737 16.3189H347.699C347.82 16.3246 347.856 16.2086 347.843 16.1546L347.329 14.2478C347.297 14.1244 347.261 14.0121 347.224 13.9121C347.185 13.8107 347.137 13.7203 347.078 13.6395C347.02 13.5586 346.942 13.4861 346.849 13.4216C346.755 13.3587 346.636 13.3025 346.492 13.2532ZM349.98 14.0998L350.294 13.0587L350.61 11.8861H350.659L350.966 13.0587L351.28 14.0998H349.98ZM351.579 15.1189L351.902 16.1874C351.929 16.2855 351.983 16.3189 352.045 16.3189H353.093C353.191 16.3184 353.255 16.237 353.231 16.1396L351.513 11.0081C351.431 10.7582 351.31 10.5573 351.018 10.5573L350.274 10.5591C350.125 10.5498 349.996 10.5997 349.896 10.7313C349.844 10.7981 349.801 10.8889 349.764 11.0081L348.047 16.133C348.009 16.2472 348.105 16.3189 348.182 16.3189H349.19C349.222 16.3189 349.291 16.3233 349.333 16.2338C349.343 16.2139 349.352 16.1859 349.358 16.1627L349.681 15.1189H351.579ZM356.74 12.3887C356.739 12.7907 356.417 13.1436 355.979 13.1432L354.85 13.142V11.6341H355.927C356.415 11.619 356.74 11.9866 356.74 12.3887ZM354.85 16.1463V14.2199H356.227C357.18 14.22 358.072 13.4473 358.057 12.3573C358.057 12.0957 357.99 11.8496 357.893 11.6341C357.665 11.1269 357.248 10.7875 356.756 10.6386C356.554 10.5777 356.334 10.5591 356.118 10.5573H354.016C353.792 10.5573 353.605 10.7103 353.595 10.9522C353.594 10.9858 353.59 11.0213 353.591 11.0587V16.1797C353.591 16.2594 353.651 16.3184 353.734 16.3189H354.712C354.762 16.3189 354.811 16.2889 354.833 16.2448C354.847 16.2175 354.85 16.1858 354.85 16.1463ZM328.398 16.3189H330.573C331.649 16.3563 332.527 15.6162 332.562 14.5108C332.563 14.4161 332.569 14.3033 332.543 14.1792C332.352 13.2747 331.632 12.6532 330.714 12.6532H329.248V11.6259H331.75C331.844 11.628 331.901 11.5608 331.899 11.4697V10.7382C331.901 10.638 331.863 10.555 331.75 10.5573H328.428C328.088 10.5573 327.988 10.8044 327.988 10.9631V15.9137C327.988 16.1364 328.165 16.3189 328.398 16.3189ZM338.333 11.1081L338.258 12.3573C338.234 12.7834 338.206 13.1519 338.177 13.4669C338.131 13.9868 338.078 15.234 337.399 15.234C337.391 15.234 337.382 15.2341 337.373 15.234C337.311 15.2335 337.233 15.2851 337.233 15.3684V16.1299C337.233 16.146 337.233 16.1565 337.233 16.1705C337.233 16.2588 337.293 16.3189 337.374 16.3189C337.386 16.3189 337.423 16.3188 337.434 16.3188C337.946 16.3169 338.395 16.2633 338.782 15.6833C338.903 15.5013 339.01 15.2971 339.085 15.0655C339.163 14.834 339.223 14.5737 339.268 14.2874C339.312 14.0011 339.348 13.6861 339.377 13.3409C339.405 12.9971 339.432 12.6232 339.46 12.2177L339.493 11.6423H341.108V16.1799C341.108 16.2565 341.175 16.3261 341.258 16.3189H342.218C342.318 16.3189 342.368 16.2507 342.368 16.171V10.9633C342.369 10.7474 342.187 10.5573 341.93 10.5573H338.751C338.506 10.5573 338.362 10.7693 338.351 10.945C338.348 10.9951 338.336 11.0485 338.333 11.1081Z" fill="white"/>
<path fill-rule="evenodd" clip-rule="evenodd" d="M329.823 18.2777L329.448 18.9061L328.734 20.0538C328.709 20.0928 328.686 20.1243 328.667 20.148C328.647 20.1717 328.626 20.1905 328.603 20.2046C328.581 20.2185 328.555 20.2276 328.525 20.2318C328.496 20.236 328.459 20.2381 328.417 20.2381H328.248C328.139 20.2381 328.066 20.2122 328.029 20.1605C327.992 20.1089 327.974 20.0384 327.974 19.949V17.3813C327.974 17.3283 328.004 17.3018 328.063 17.3018H328.515C328.554 17.3018 328.579 17.3073 328.589 17.3185C328.598 17.3297 328.603 17.3506 328.603 17.3813V19.2662H328.628L328.987 18.6798L329.718 17.4903C329.743 17.4512 329.766 17.419 329.786 17.3939C329.805 17.3688 329.827 17.3493 329.849 17.3352C329.871 17.3213 329.897 17.3123 329.925 17.308C329.953 17.3039 329.988 17.3018 330.031 17.3018H330.204C330.308 17.3018 330.379 17.3234 330.419 17.3667C330.459 17.41 330.478 17.4861 330.478 17.595V20.1585C330.478 20.2115 330.449 20.2381 330.39 20.2381H329.938C329.898 20.2381 329.873 20.2325 329.862 20.2213C329.851 20.2101 329.845 20.1892 329.845 20.1585V18.2777H329.823ZM331.682 20.1543C331.682 20.1905 331.675 20.2136 331.663 20.2234C331.65 20.2332 331.624 20.2381 331.585 20.2381H331.162C331.1 20.2381 331.069 20.2101 331.069 20.1543V18.1186C331.069 18.0655 331.1 18.039 331.162 18.039H331.585C331.624 18.039 331.65 18.0439 331.663 18.0536C331.675 18.0634 331.682 18.0851 331.682 18.1186V18.8348H332.471V18.1186C332.471 18.0655 332.502 18.039 332.565 18.039H332.99C333.029 18.039 333.055 18.0439 333.067 18.0536C333.078 18.0634 333.084 18.0851 333.084 18.1186V20.1543C333.084 20.1905 333.078 20.2136 333.067 20.2234C333.055 20.2332 333.029 20.2381 332.99 20.2381H332.565C332.502 20.2381 332.471 20.2101 332.471 20.1543V19.3123H331.682V20.1543ZM334.693 18.5333V20.1543C334.693 20.1905 334.686 20.2136 334.673 20.2234C334.661 20.2332 334.635 20.2381 334.595 20.2381H334.177C334.113 20.2381 334.08 20.2101 334.08 20.1543V18.5333H333.481C333.424 18.5333 333.396 18.5026 333.396 18.4411V18.1353C333.396 18.0962 333.401 18.0704 333.411 18.0578C333.421 18.0452 333.444 18.039 333.481 18.039H335.304C335.338 18.039 335.361 18.0452 335.372 18.0578C335.384 18.0704 335.389 18.0962 335.389 18.1353V18.4411C335.389 18.5026 335.361 18.5333 335.304 18.5333H334.693ZM336.542 17.9845C336.871 17.9845 337.118 18.0662 337.283 18.2296C337.448 18.3929 337.53 18.6268 337.53 18.9312C337.53 19.0764 337.502 19.1756 337.446 19.2286C337.389 19.2816 337.312 19.3082 337.213 19.3082H336.132C336.135 19.3975 336.15 19.4715 336.177 19.5302C336.203 19.5888 336.239 19.6363 336.284 19.6726C336.329 19.7089 336.382 19.734 336.442 19.748C336.503 19.762 336.568 19.7689 336.639 19.7689C336.72 19.7689 336.803 19.7591 336.888 19.7396C336.972 19.72 337.051 19.6949 337.124 19.6642C337.159 19.6531 337.181 19.6495 337.194 19.6537C337.207 19.658 337.219 19.6712 337.23 19.6935L337.365 19.9951C337.376 20.0202 337.379 20.0398 337.372 20.0538C337.365 20.0677 337.35 20.0817 337.327 20.0956C337.223 20.1627 337.102 20.2108 336.964 20.2402C336.826 20.2695 336.698 20.2841 336.58 20.2841C336.211 20.2841 335.938 20.1934 335.76 20.0118C335.583 19.8304 335.495 19.5427 335.495 19.149C335.495 18.9647 335.519 18.8006 335.569 18.6568C335.618 18.513 335.688 18.3908 335.78 18.2903C335.871 18.1898 335.981 18.1137 336.109 18.062C336.237 18.0103 336.381 17.9845 336.542 17.9845ZM336.555 18.4872C336.439 18.4872 336.345 18.5277 336.271 18.6086C336.198 18.6896 336.156 18.7929 336.145 18.9186H336.935C336.935 18.8572 336.928 18.7999 336.916 18.7469C336.903 18.6938 336.883 18.6484 336.854 18.6108C336.826 18.5731 336.788 18.543 336.74 18.5207C336.692 18.4983 336.631 18.4872 336.555 18.4872ZM338.59 21.0214C338.59 21.052 338.585 21.0716 338.575 21.08C338.565 21.0884 338.541 21.0925 338.502 21.0925H338.065C338.035 21.0925 338.013 21.0884 337.998 21.08C337.985 21.0716 337.978 21.052 337.978 21.0214V18.2903C337.978 18.2596 337.982 18.2352 337.993 18.217C338.002 18.1988 338.025 18.18 338.062 18.1605C338.197 18.099 338.349 18.0557 338.516 18.0306C338.684 18.0055 338.843 17.9929 338.995 17.9929C339.195 17.9929 339.363 18.0229 339.5 18.0829C339.636 18.143 339.746 18.224 339.829 18.3259C339.912 18.4279 339.972 18.5486 340.009 18.6882C340.045 18.8279 340.064 18.9772 340.064 19.1364C340.064 19.2928 340.044 19.4401 340.004 19.5784C339.965 19.7166 339.904 19.8374 339.822 19.9407C339.74 20.044 339.636 20.1256 339.511 20.1857C339.385 20.2458 339.238 20.2758 339.068 20.2758C338.984 20.2758 338.905 20.2723 338.833 20.2653C338.762 20.2583 338.68 20.2451 338.59 20.2255V21.0214ZM339.422 19.1239C339.422 19.0094 339.41 18.913 339.388 18.8348C339.366 18.7567 339.332 18.6938 339.288 18.6464C339.244 18.5989 339.19 18.5654 339.127 18.5458C339.063 18.5263 338.992 18.5165 338.912 18.5165C338.873 18.5165 338.821 18.5207 338.757 18.529C338.694 18.5375 338.638 18.5486 338.59 18.5626V19.7061C338.664 19.7256 338.729 19.7382 338.787 19.7438C338.845 19.7494 338.897 19.7522 338.942 19.7522C339.084 19.7522 339.199 19.7047 339.288 19.6097C339.377 19.5148 339.422 19.3528 339.422 19.1239ZM341.14 20.1543C341.14 20.1905 341.134 20.2136 341.121 20.2234C341.109 20.2332 341.083 20.2381 341.043 20.2381H340.621C340.559 20.2381 340.528 20.2101 340.528 20.1543V18.1186C340.528 18.0655 340.559 18.039 340.621 18.039H341.043C341.083 18.039 341.109 18.0439 341.121 18.0536C341.134 18.0634 341.14 18.0851 341.14 18.1186V18.8348H341.93V18.1186C341.93 18.0655 341.961 18.039 342.023 18.039H342.449C342.488 18.039 342.514 18.0439 342.525 18.0536C342.536 18.0634 342.542 18.0851 342.542 18.1186V20.1543C342.542 20.1905 342.536 20.2136 342.525 20.2234C342.514 20.2332 342.488 20.2381 342.449 20.2381H342.023C341.961 20.2381 341.93 20.2101 341.93 20.1543V19.3123H341.14V20.1543ZM344.05 17.9845C344.379 17.9845 344.626 18.0662 344.791 18.2296C344.955 18.3929 345.038 18.6268 345.038 18.9312C345.038 19.0764 345.01 19.1756 344.953 19.2286C344.897 19.2816 344.819 19.3082 344.721 19.3082H343.64C343.643 19.3975 343.658 19.4715 343.685 19.5302C343.711 19.5888 343.747 19.6363 343.792 19.6726C343.837 19.7089 343.89 19.734 343.95 19.748C344.011 19.762 344.076 19.7689 344.147 19.7689C344.228 19.7689 344.311 19.7591 344.396 19.7396C344.48 19.72 344.559 19.6949 344.632 19.6642C344.666 19.6531 344.689 19.6495 344.702 19.6537C344.715 19.658 344.727 19.6712 344.738 19.6935L344.873 19.9951C344.884 20.0202 344.886 20.0398 344.879 20.0538C344.873 20.0677 344.858 20.0817 344.835 20.0956C344.731 20.1627 344.61 20.2108 344.472 20.2402C344.334 20.2695 344.206 20.2841 344.087 20.2841C343.719 20.2841 343.446 20.1934 343.268 20.0118C343.091 19.8304 343.003 19.5427 343.003 19.149C343.003 18.9647 343.027 18.8006 343.076 18.6568C343.126 18.513 343.196 18.3908 343.287 18.2903C343.379 18.1898 343.489 18.1137 343.617 18.062C343.745 18.0103 343.889 17.9845 344.05 17.9845ZM344.062 18.4872C343.947 18.4872 343.852 18.5277 343.78 18.6086C343.706 18.6896 343.664 18.7929 343.653 18.9186H344.443C344.443 18.8572 344.436 18.7999 344.423 18.7469C344.411 18.6938 344.39 18.6484 344.362 18.6108C344.334 18.5731 344.296 18.543 344.248 18.5207C344.2 18.4983 344.138 18.4872 344.062 18.4872ZM346.55 18.5333V20.1543C346.55 20.1905 346.543 20.2136 346.531 20.2234C346.518 20.2332 346.492 20.2381 346.452 20.2381H346.035C345.97 20.2381 345.937 20.2101 345.937 20.1543V18.5333H345.338C345.281 18.5333 345.253 18.5026 345.253 18.4411V18.1353C345.253 18.0962 345.258 18.0704 345.268 18.0578C345.278 18.0452 345.301 18.039 345.338 18.039H347.162C347.196 18.039 347.218 18.0452 347.23 18.0578C347.241 18.0704 347.246 18.0962 347.246 18.1353V18.4411C347.246 18.5026 347.218 18.5333 347.162 18.5333H346.55ZM350.033 20.1585C350.033 20.1892 350.028 20.2101 350.017 20.2213C350.005 20.2325 349.98 20.2381 349.941 20.2381H349.48C349.421 20.2381 349.391 20.2115 349.391 20.1585V17.8589H348.251V20.1585C348.251 20.1892 348.245 20.2101 348.234 20.2213C348.223 20.2325 348.198 20.2381 348.158 20.2381H347.694C347.635 20.2381 347.605 20.2115 347.605 20.1585V17.5866C347.605 17.4888 347.626 17.4169 347.666 17.3709C347.707 17.3248 347.777 17.3018 347.875 17.3018H349.763C349.865 17.3018 349.935 17.3248 349.974 17.3709C350.013 17.4169 350.033 17.4888 350.033 17.5866V20.1585ZM352.503 19.9658C352.503 20.0021 352.498 20.0328 352.489 20.0579C352.479 20.0831 352.454 20.1068 352.415 20.1292C352.35 20.1599 352.281 20.185 352.207 20.2046C352.132 20.2241 352.056 20.2395 351.979 20.2507C351.902 20.2618 351.823 20.2702 351.745 20.2758C351.667 20.2813 351.592 20.2841 351.522 20.2841C351.331 20.2841 351.173 20.266 351.047 20.2297C350.923 20.1934 350.822 20.1438 350.746 20.081C350.671 20.0182 350.617 19.9441 350.586 19.859C350.556 19.7738 350.54 19.6823 350.54 19.5846C350.54 19.4757 350.558 19.3759 350.595 19.2851C350.632 19.1944 350.686 19.1155 350.76 19.0485C350.832 18.9815 350.925 18.9291 351.036 18.8914C351.147 18.8536 351.279 18.8348 351.431 18.8348H351.896V18.7678C351.896 18.7287 351.891 18.691 351.883 18.6547C351.874 18.6184 351.857 18.587 351.83 18.5605C351.803 18.5339 351.766 18.5123 351.718 18.4956C351.67 18.4788 351.607 18.4704 351.528 18.4704C351.486 18.4704 351.438 18.4726 351.384 18.4767C351.331 18.4809 351.277 18.4865 351.224 18.4934C351.171 18.5005 351.118 18.5088 351.068 18.5186C351.017 18.5284 350.972 18.5388 350.932 18.55C350.896 18.5584 350.871 18.5584 350.856 18.55C350.843 18.5416 350.832 18.5234 350.827 18.4956L350.76 18.2023C350.751 18.1716 350.75 18.15 350.758 18.1374C350.764 18.1249 350.779 18.1144 350.802 18.106C350.928 18.0613 351.062 18.0292 351.201 18.0097C351.34 17.9901 351.479 17.9803 351.617 17.9803C351.923 17.9803 352.148 18.0452 352.29 18.1751C352.433 18.305 352.503 18.4969 352.503 18.7511V19.9658ZM351.891 19.2412H351.558C351.518 19.2412 351.476 19.2439 351.431 19.2495C351.386 19.2551 351.344 19.2684 351.306 19.2893C351.268 19.3103 351.236 19.3403 351.211 19.3794C351.186 19.4185 351.173 19.4715 351.173 19.5385C351.173 19.6363 351.206 19.7047 351.273 19.7438C351.339 19.7829 351.428 19.8025 351.541 19.8025C351.558 19.8025 351.58 19.8017 351.608 19.8003C351.636 19.7989 351.667 19.7962 351.699 19.792C351.731 19.7878 351.764 19.7822 351.798 19.7752C351.832 19.7682 351.863 19.7591 351.891 19.748V19.2412ZM353.669 21.0214C353.669 21.052 353.664 21.0716 353.654 21.08C353.644 21.0884 353.619 21.0925 353.581 21.0925H353.145C353.113 21.0925 353.092 21.0884 353.078 21.08C353.063 21.0716 353.057 21.052 353.057 21.0214V18.2903C353.057 18.2596 353.061 18.2352 353.071 18.217C353.081 18.1988 353.104 18.18 353.141 18.1605C353.276 18.099 353.428 18.0557 353.595 18.0306C353.762 18.0055 353.922 17.9929 354.074 17.9929C354.274 17.9929 354.442 18.0229 354.579 18.0829C354.716 18.143 354.825 18.224 354.908 18.3259C354.991 18.4279 355.051 18.5486 355.088 18.6882C355.124 18.8279 355.142 18.9772 355.142 19.1364C355.142 19.2928 355.123 19.4401 355.083 19.5784C355.044 19.7166 354.983 19.8374 354.901 19.9407C354.82 20.044 354.716 20.1256 354.59 20.1857C354.464 20.2458 354.317 20.2758 354.147 20.2758C354.063 20.2758 353.984 20.2723 353.912 20.2653C353.841 20.2583 353.759 20.2451 353.669 20.2255V21.0214ZM354.501 19.1239C354.501 19.0094 354.49 18.913 354.467 18.8348C354.444 18.7567 354.41 18.6938 354.367 18.6464C354.323 18.5989 354.269 18.5654 354.206 18.5458C354.142 18.5263 354.071 18.5165 353.991 18.5165C353.952 18.5165 353.901 18.5207 353.836 18.529C353.773 18.5375 353.717 18.5486 353.669 18.5626V19.7061C353.743 19.7256 353.808 19.7382 353.866 19.7438C353.925 19.7494 353.976 19.7522 354.021 19.7522C354.163 19.7522 354.278 19.7047 354.367 19.6097C354.456 19.5148 354.501 19.3528 354.501 19.1239ZM357.655 19.128C357.655 19.4967 357.566 19.7815 357.389 19.9826C357.212 20.1836 356.941 20.2841 356.578 20.2841C356.212 20.2841 355.945 20.1836 355.776 19.9826C355.607 19.7815 355.522 19.4994 355.522 19.1364C355.522 18.9577 355.547 18.7964 355.596 18.6526C355.646 18.5088 355.716 18.388 355.807 18.2903C355.899 18.1926 356.01 18.1172 356.141 18.0641C356.272 18.011 356.421 17.9845 356.587 17.9845C356.941 17.9845 357.208 18.0857 357.387 18.2882C357.566 18.4906 357.655 18.7706 357.655 19.128ZM357.017 19.1406C357.017 19.0457 357.01 18.9591 356.997 18.8809C356.982 18.8028 356.958 18.7357 356.925 18.6798C356.891 18.624 356.847 18.58 356.793 18.5479C356.74 18.5158 356.674 18.4997 356.595 18.4997C356.446 18.4997 356.335 18.5563 356.263 18.6694C356.192 18.7825 356.156 18.9354 356.156 19.128C356.156 19.3375 356.189 19.4967 356.256 19.6056C356.321 19.7145 356.43 19.7689 356.582 19.7689C356.661 19.7689 356.728 19.7529 356.783 19.7207C356.838 19.6886 356.883 19.644 356.918 19.5867C356.953 19.5295 356.979 19.4631 356.994 19.3877C357.01 19.3123 357.017 19.23 357.017 19.1406ZM359.834 18.039C359.932 18.039 359.999 18.0592 360.034 18.0998C360.069 18.1402 360.088 18.2052 360.088 18.2945V20.1585C360.088 20.192 360.081 20.2136 360.068 20.2234C360.056 20.2332 360.03 20.2381 359.99 20.2381H359.563C359.524 20.2381 359.498 20.2318 359.485 20.2192C359.473 20.2066 359.467 20.185 359.467 20.1543V18.5333H358.947L358.935 18.7511C358.92 18.994 358.902 19.2034 358.88 19.3794C358.857 19.5553 358.819 19.7054 358.766 19.8297C358.712 19.9539 358.636 20.0551 358.538 20.1333C358.439 20.2115 358.308 20.2758 358.145 20.3261C358.105 20.34 358.077 20.342 358.06 20.3323C358.044 20.3225 358.029 20.3037 358.018 20.2758L357.904 19.991C357.89 19.9546 357.885 19.9288 357.89 19.9135C357.894 19.8981 357.914 19.8806 357.951 19.8611C358.027 19.8276 358.088 19.7899 358.134 19.748C358.181 19.7061 358.219 19.6461 358.248 19.5679C358.278 19.4897 358.301 19.3857 358.318 19.2558C358.335 19.1259 358.35 18.9549 358.364 18.7427L358.394 18.2862C358.4 18.1939 358.422 18.1298 358.459 18.0934C358.498 18.0571 358.563 18.039 358.656 18.039H359.834ZM360.902 20.2381C360.792 20.2381 360.721 20.2164 360.687 20.1731C360.653 20.1299 360.636 20.0705 360.636 19.9951V18.1186C360.636 18.0655 360.667 18.039 360.729 18.039H361.151C361.191 18.039 361.217 18.0439 361.229 18.0536C361.242 18.0634 361.248 18.0851 361.248 18.1186V18.7259H361.772C361.978 18.7259 362.14 18.7546 362.26 18.8118C362.38 18.8691 362.47 18.9382 362.532 19.0192C362.594 19.1001 362.633 19.1832 362.648 19.2684C362.664 19.3535 362.672 19.4241 362.672 19.4799C362.672 19.5888 362.65 19.6893 362.608 19.7815C362.566 19.8736 362.508 19.9533 362.433 20.0202C362.358 20.0872 362.27 20.1403 362.169 20.1794C362.068 20.2185 361.958 20.2381 361.84 20.2381H360.902ZM362.043 19.4715C362.043 19.3933 362.018 19.327 361.968 19.2725C361.919 19.2181 361.845 19.1909 361.747 19.1909H361.248V19.7605H361.742C361.802 19.7605 361.851 19.7508 361.891 19.7312C361.93 19.7117 361.961 19.6872 361.983 19.658C362.006 19.6286 362.021 19.5972 362.03 19.5636C362.038 19.5302 362.043 19.4994 362.043 19.4715Z" fill="white"/>
<path d="M273.546 14.3796C273.558 14.78 273.241 15.0687 272.837 15.0687H271.777V13.7192H272.844C273.221 13.7192 273.534 13.9794 273.546 14.3796ZM299.83 11.8985V15.9176C299.83 15.9868 299.769 16.034 299.698 16.034H298.85C298.783 16.034 298.719 15.9849 298.719 15.9176V11.8985H297.388C297.32 11.8985 297.271 11.8346 297.271 11.7677V11.0786C297.271 11.009 297.318 10.9482 297.388 10.9482H301.183C301.253 10.9482 301.3 11.009 301.3 11.0786V11.7677C301.3 11.8346 301.251 11.8985 301.183 11.8985H299.83ZM278.583 15.8669V15.1991C278.583 15.1496 278.545 15.076 278.459 15.076H276.472C276.351 15.076 276.111 14.9925 276.111 14.6869V13.7196H278.223C278.311 13.7196 278.349 13.6447 278.349 13.6008V12.9211C278.349 12.8498 278.299 12.7983 278.21 12.7983H276.111V12.2558C276.111 12.025 276.304 11.8985 276.472 11.8985H278.454C278.546 11.8985 278.583 11.8277 278.583 11.7758V11.071C278.583 11.0014 278.531 10.9482 278.444 10.9482L276.382 10.9385C275.607 10.9349 275 11.5784 275 12.2904V14.6991C275 15.4372 275.628 16.034 276.352 16.034H278.457C278.532 16.034 278.581 15.9796 278.583 15.9108C278.583 15.8982 278.583 15.8818 278.583 15.8669ZM286.998 13.3278V13.2915C287.155 13.1974 287.287 13.0737 287.39 12.9227C287.495 12.7717 287.572 12.5928 287.619 12.3871L287.956 11.0919C287.969 11.0344 287.929 10.9482 287.834 10.9482H287.035C287.008 10.9469 286.98 10.9518 286.95 10.9639C286.921 10.9743 286.9 11.0038 286.888 11.0496L286.56 12.2707C286.52 12.4196 286.468 12.5381 286.403 12.6251C286.338 12.7137 286.267 12.7789 286.187 12.8213C286.109 12.8635 286.029 12.8912 285.949 12.9046C285.867 12.9166 285.79 12.9227 285.718 12.9214H285.14V11.0689C285.14 10.9912 285.074 10.9482 285.019 10.9482H284.16C284.088 10.9482 284.029 11.0001 284.029 11.0642V15.9176C284.029 15.9849 284.093 16.034 284.16 16.034H285.008C285.079 16.034 285.14 15.9868 285.14 15.9176V13.7631H285.732C285.902 13.7607 286.046 13.776 286.163 13.8102C286.28 13.8429 286.378 13.9033 286.456 13.9914C286.532 14.0796 286.597 14.2069 286.647 14.3724L287.097 15.9466C287.122 16.011 287.167 16.034 287.214 16.034H288.063C288.17 16.0389 288.202 15.9366 288.19 15.889L287.736 14.2057C287.709 14.0966 287.677 13.9975 287.644 13.9093C287.609 13.8199 287.567 13.7397 287.515 13.6689C287.463 13.5972 287.395 13.5332 287.312 13.4764C287.23 13.4208 287.125 13.3713 286.998 13.3278ZM290.077 14.0749L290.354 13.1558L290.632 12.1208H290.676L290.947 13.1558L291.225 14.0749H290.077ZM291.488 14.9745L291.773 15.9176C291.798 16.0042 291.844 16.034 291.899 16.034H292.824C292.911 16.0332 292.968 15.9615 292.946 15.8753L291.429 11.346C291.357 11.1254 291.251 10.9482 290.993 10.9482L290.336 10.9498C290.205 10.9413 290.091 10.9852 290.002 11.1016C289.957 11.1604 289.918 11.241 289.886 11.346L288.371 15.8697C288.337 15.9704 288.422 16.034 288.49 16.034H289.38C289.407 16.034 289.468 16.0376 289.505 15.9588C289.514 15.9414 289.523 15.9161 289.528 15.8959L289.813 14.9745H291.488ZM296.043 12.5646C296.043 12.9194 295.758 13.2307 295.372 13.2307L294.376 13.2295V11.8985H295.326C295.757 11.8853 296.044 12.2095 296.043 12.5646ZM294.376 15.8814V14.1811H295.591C296.431 14.1811 297.219 13.499 297.206 12.5369C297.206 12.3062 297.147 12.0887 297.061 11.8985C296.86 11.4508 296.492 11.1511 296.058 11.0199C295.88 10.9659 295.686 10.9498 295.494 10.9482H293.638C293.442 10.9482 293.276 11.0831 293.268 11.2965C293.266 11.3259 293.263 11.3577 293.264 11.3908V15.9108C293.264 15.9812 293.317 16.0336 293.39 16.034H294.253C294.298 16.034 294.341 16.0074 294.36 15.9683C294.373 15.9442 294.376 15.9161 294.376 15.8814ZM271.025 16.034H272.947C273.896 16.0666 274.671 15.4134 274.702 14.4376C274.703 14.3543 274.708 14.2549 274.685 14.1448C274.517 13.3467 273.881 12.7983 273.07 12.7983H271.777V11.8913H273.985C274.069 11.8929 274.119 11.8338 274.117 11.7535V11.1076C274.119 11.0191 274.085 10.9461 273.985 10.9482H271.053C270.752 10.9482 270.665 11.166 270.665 11.3062V15.676C270.665 15.8726 270.821 16.034 271.025 16.034ZM279.795 11.4343L279.73 12.5369C279.708 12.913 279.684 13.2383 279.658 13.5166C279.618 13.9753 279.571 15.076 278.971 15.076C278.965 15.076 278.957 15.076 278.948 15.076C278.894 15.0755 278.825 15.121 278.825 15.1947V15.8669V15.9027C278.825 15.9809 278.878 16.034 278.949 16.034C278.96 16.034 278.993 16.0336 279.003 16.0336C279.455 16.032 279.851 15.9849 280.192 15.4727C280.299 15.3119 280.393 15.1319 280.46 14.9274C280.528 14.7232 280.582 14.4933 280.621 14.2407C280.66 13.9878 280.692 13.7096 280.718 13.4051C280.742 13.1015 280.766 12.7717 280.79 12.4137L280.82 11.9058H282.246V15.9111C282.246 15.9784 282.305 16.04 282.378 16.034H283.225C283.313 16.034 283.357 15.9736 283.357 15.9031V11.3066C283.358 11.1161 283.197 10.9482 282.971 10.9482H280.165C279.949 10.9482 279.821 11.1351 279.812 11.2905C279.81 11.3344 279.799 11.3818 279.795 11.4343Z" fill="white"/>
<path d="M271.45 18.2873V20.53C271.45 20.5574 271.456 20.5747 271.467 20.5827C271.479 20.5908 271.497 20.594 271.521 20.5935H271.735C271.76 20.594 271.777 20.5908 271.787 20.5827C271.797 20.5747 271.803 20.5574 271.803 20.53V18.2873H272.558C272.579 18.2873 272.594 18.2829 272.601 18.2739C272.608 18.2647 272.611 18.2494 272.61 18.2277V18.0448C272.611 18.0247 272.608 18.0098 272.601 17.9997C272.594 17.9905 272.579 17.9857 272.558 17.9857H270.717C270.696 17.9857 270.681 17.9905 270.674 17.9997C270.667 18.0098 270.664 18.0247 270.665 18.0448V18.2277C270.664 18.2494 270.667 18.2647 270.674 18.2739C270.681 18.2829 270.696 18.2873 270.717 18.2873H271.45ZM273.699 18.5965C273.575 18.5965 273.46 18.6195 273.354 18.6646C273.249 18.7101 273.158 18.777 273.08 18.8648C273.001 18.9521 272.941 19.0601 272.897 19.1873C272.854 19.3146 272.832 19.4608 272.832 19.6242C272.832 19.857 272.87 20.0487 272.942 20.1978C273.013 20.3467 273.117 20.4567 273.25 20.5279C273.385 20.5996 273.546 20.6351 273.733 20.6343C273.8 20.6343 273.868 20.6306 273.937 20.6225C274.006 20.6146 274.073 20.6001 274.14 20.5803C274.206 20.5598 274.27 20.532 274.33 20.4965C274.347 20.4888 274.358 20.4793 274.362 20.4659C274.365 20.4535 274.362 20.4385 274.353 20.4221L274.274 20.265C274.264 20.2505 274.254 20.2416 274.243 20.2384C274.23 20.2344 274.217 20.2376 274.203 20.2469C274.167 20.265 274.126 20.2831 274.078 20.2992C274.03 20.3145 273.979 20.327 273.925 20.3362C273.87 20.3459 273.815 20.3512 273.759 20.3512C273.678 20.3515 273.602 20.3402 273.53 20.3173C273.459 20.294 273.395 20.2574 273.34 20.207C273.285 20.1562 273.242 20.0906 273.21 20.0081C273.178 19.9263 273.163 19.8269 273.163 19.7105H274.241C274.291 19.7112 274.338 19.7036 274.38 19.6875C274.422 19.6706 274.457 19.6416 274.482 19.5993C274.508 19.5571 274.521 19.4974 274.522 19.4197C274.522 19.2976 274.506 19.1854 274.473 19.085C274.441 18.9843 274.392 18.8982 274.325 18.8248C274.258 18.7524 274.173 18.696 274.069 18.6569C273.965 18.6171 273.842 18.597 273.699 18.5965ZM274.213 19.4495H273.174C273.178 19.3726 273.193 19.2993 273.218 19.2296C273.242 19.1603 273.277 19.0987 273.321 19.044C273.366 18.99 273.42 18.9474 273.484 18.9163C273.547 18.8853 273.62 18.8688 273.703 18.8683C273.804 18.8688 273.888 18.8845 273.954 18.9151C274.02 18.9458 274.072 18.9876 274.111 19.0415C274.149 19.0952 274.176 19.1572 274.191 19.2268C274.207 19.2961 274.215 19.3706 274.213 19.4495ZM275.701 20.3657C275.599 20.3652 275.514 20.3496 275.445 20.3173C275.375 20.2848 275.32 20.2397 275.279 20.1812C275.238 20.1224 275.209 20.0539 275.19 19.9751C275.172 19.8957 275.163 19.8087 275.164 19.7141C275.164 19.6714 275.164 19.6279 275.166 19.584C275.167 19.5393 275.169 19.4909 275.172 19.4355C275.176 19.3806 275.18 19.3161 275.187 19.2409C275.247 19.1962 275.312 19.1583 275.38 19.1269C275.449 19.0963 275.518 19.073 275.587 19.0564C275.656 19.0404 275.722 19.0322 275.784 19.0322C275.88 19.0331 275.959 19.052 276.023 19.0895C276.087 19.1266 276.137 19.1769 276.173 19.2405C276.209 19.3038 276.235 19.3757 276.25 19.4551C276.265 19.5349 276.273 19.6174 276.272 19.7032C276.273 19.7629 276.266 19.824 276.256 19.8865C276.244 19.948 276.225 20.0077 276.2 20.0648C276.174 20.122 276.139 20.1739 276.095 20.2183C276.052 20.2637 275.997 20.2996 275.932 20.3258C275.867 20.3515 275.79 20.3652 275.701 20.3657ZM275.833 18.7676C275.771 18.7676 275.706 18.7741 275.637 18.7863C275.567 18.7984 275.498 18.818 275.427 18.8446C275.356 18.872 275.289 18.9067 275.224 18.9505C275.222 18.9485 275.221 18.9473 275.22 18.9473C275.22 18.9465 275.218 18.9465 275.216 18.9465C275.231 18.8374 275.251 18.7439 275.277 18.6679C275.303 18.5913 275.339 18.5269 275.386 18.4742C275.433 18.4218 275.497 18.3774 275.575 18.3413C275.654 18.3046 275.753 18.2716 275.874 18.2426C275.941 18.2261 276.017 18.2091 276.098 18.1914C276.181 18.175 276.27 18.1568 276.366 18.1383C276.386 18.1326 276.4 18.1221 276.408 18.1073C276.414 18.0923 276.414 18.073 276.407 18.0488L276.373 17.9035C276.368 17.8833 276.361 17.8721 276.35 17.8685C276.34 17.8656 276.324 17.8677 276.302 17.8737C276.258 17.8833 276.207 17.8942 276.151 17.9055C276.095 17.916 276.036 17.9277 275.976 17.9397C275.915 17.9514 275.855 17.9639 275.795 17.9768C275.736 17.9897 275.681 18.0042 275.63 18.019C275.494 18.0609 275.379 18.1152 275.285 18.1821C275.193 18.2502 275.117 18.3311 275.059 18.4262C275 18.5212 274.955 18.6312 274.924 18.756C274.893 18.8801 274.873 19.0206 274.861 19.1756C274.85 19.3314 274.844 19.5035 274.845 19.6919C274.844 19.7817 274.85 19.872 274.862 19.9613C274.876 20.0512 274.899 20.1361 274.933 20.2166C274.967 20.2972 275.016 20.3684 275.078 20.4309C275.142 20.4938 275.222 20.5432 275.321 20.5791C275.421 20.6149 275.543 20.6338 275.685 20.6343C275.829 20.6338 275.953 20.6137 276.057 20.5755C276.162 20.538 276.249 20.4865 276.32 20.4213C276.391 20.3564 276.447 20.2831 276.489 20.2013C276.531 20.1192 276.561 20.0346 276.579 19.9468C276.598 19.8591 276.607 19.7724 276.606 19.6883C276.607 19.5921 276.598 19.4994 276.582 19.4092C276.566 19.3195 276.54 19.2352 276.503 19.158C276.467 19.081 276.419 19.0125 276.359 18.9542C276.3 18.8957 276.226 18.8503 276.139 18.8172C276.052 18.785 275.95 18.7685 275.833 18.7676ZM277.812 18.5965C277.687 18.5965 277.572 18.6195 277.467 18.6646C277.361 18.7101 277.27 18.777 277.192 18.8648C277.114 18.9521 277.053 19.0601 277.009 19.1873C276.966 19.3146 276.945 19.4608 276.944 19.6242C276.945 19.857 276.981 20.0487 277.054 20.1978C277.125 20.3467 277.228 20.4567 277.362 20.5279C277.497 20.5996 277.658 20.6351 277.845 20.6343C277.913 20.6343 277.98 20.6306 278.049 20.6225C278.118 20.6146 278.185 20.6001 278.252 20.5803C278.318 20.5598 278.382 20.532 278.442 20.4965C278.459 20.4888 278.47 20.4793 278.474 20.4659C278.477 20.4535 278.474 20.4385 278.465 20.4221L278.386 20.265C278.376 20.2505 278.366 20.2416 278.355 20.2384C278.343 20.2344 278.33 20.2376 278.314 20.2469C278.279 20.265 278.238 20.2831 278.19 20.2992C278.142 20.3145 278.091 20.327 278.036 20.3362C277.983 20.3459 277.928 20.3512 277.871 20.3512C277.79 20.3515 277.714 20.3402 277.642 20.3173C277.57 20.294 277.507 20.2574 277.452 20.207C277.397 20.1562 277.354 20.0906 277.322 20.0081C277.291 19.9263 277.275 19.8269 277.275 19.7105H278.352C278.403 19.7112 278.45 19.7036 278.492 19.6875C278.535 19.6706 278.569 19.6416 278.595 19.5993C278.62 19.5571 278.633 19.4974 278.634 19.4197C278.634 19.2976 278.619 19.1854 278.586 19.085C278.553 18.9843 278.504 18.8982 278.437 18.8248C278.37 18.7524 278.285 18.696 278.181 18.6569C278.077 18.6171 277.954 18.597 277.812 18.5965ZM278.326 19.4495H277.286C277.291 19.3726 277.305 19.2993 277.33 19.2296C277.354 19.1603 277.389 19.0987 277.433 19.044C277.478 18.99 277.533 18.9474 277.596 18.9163C277.66 18.8853 277.732 18.8688 277.815 18.8683C277.916 18.8688 278 18.8845 278.066 18.9151C278.133 18.9458 278.185 18.9876 278.223 19.0415C278.261 19.0952 278.288 19.1572 278.304 19.2268C278.319 19.2961 278.326 19.3706 278.326 19.4495ZM280.827 20.3657C280.725 20.3652 280.64 20.3496 280.57 20.3173C280.501 20.2848 280.446 20.2397 280.405 20.1812C280.364 20.1224 280.335 20.0539 280.316 19.9751C280.298 19.8957 280.289 19.8087 280.29 19.7141C280.29 19.6714 280.29 19.6279 280.292 19.584C280.293 19.5393 280.295 19.4909 280.298 19.4355C280.303 19.3806 280.306 19.3161 280.313 19.2409C280.373 19.1962 280.438 19.1583 280.507 19.1269C280.575 19.0963 280.644 19.073 280.713 19.0564C280.781 19.0404 280.847 19.0322 280.91 19.0322C281.006 19.0331 281.086 19.052 281.149 19.0895C281.213 19.1266 281.263 19.1769 281.299 19.2405C281.335 19.3038 281.361 19.3757 281.376 19.4551C281.391 19.5349 281.399 19.6174 281.398 19.7032C281.399 19.7629 281.393 19.824 281.382 19.8865C281.37 19.948 281.351 20.0077 281.326 20.0648C281.3 20.122 281.265 20.1739 281.222 20.2183C281.177 20.2637 281.123 20.2996 281.058 20.3258C280.993 20.3515 280.915 20.3652 280.827 20.3657ZM280.958 18.7676C280.898 18.7676 280.833 18.7741 280.763 18.7863C280.694 18.7984 280.624 18.818 280.553 18.8446C280.482 18.872 280.415 18.9067 280.35 18.9505C280.348 18.9485 280.347 18.9473 280.346 18.9473C280.346 18.9465 280.345 18.9465 280.342 18.9465C280.357 18.8374 280.377 18.7439 280.403 18.6679C280.428 18.5913 280.465 18.5269 280.512 18.4742C280.559 18.4218 280.623 18.3774 280.701 18.3413C280.78 18.3046 280.88 18.2716 281 18.2426C281.067 18.2261 281.142 18.2091 281.225 18.1914C281.307 18.175 281.396 18.1568 281.492 18.1383C281.512 18.1326 281.526 18.1221 281.534 18.1073C281.541 18.0923 281.541 18.073 281.533 18.0488L281.5 17.9035C281.494 17.8833 281.486 17.8721 281.476 17.8685C281.466 17.8656 281.45 17.8677 281.428 17.8737C281.384 17.8833 281.333 17.8942 281.277 17.9055C281.221 17.916 281.163 17.9277 281.101 17.9397C281.041 17.9514 280.981 17.9639 280.922 17.9768C280.862 17.9897 280.807 18.0042 280.756 18.019C280.62 18.0609 280.505 18.1152 280.412 18.1821C280.318 18.2502 280.242 18.3311 280.184 18.4262C280.126 18.5212 280.081 18.6312 280.05 18.756C280.019 18.8801 279.998 19.0206 279.987 19.1756C279.976 19.3314 279.97 19.5035 279.971 19.6919C279.97 19.7817 279.977 19.872 279.989 19.9613C280.002 20.0512 280.026 20.1361 280.059 20.2166C280.094 20.2972 280.141 20.3684 280.204 20.4309C280.268 20.4938 280.348 20.5432 280.448 20.5791C280.547 20.6149 280.669 20.6338 280.812 20.6343C280.955 20.6338 281.079 20.6137 281.183 20.5755C281.288 20.538 281.375 20.4865 281.446 20.4213C281.517 20.3564 281.573 20.2831 281.615 20.2013C281.657 20.1192 281.687 20.0346 281.705 19.9468C281.723 19.8591 281.733 19.7724 281.732 19.6883C281.733 19.5921 281.724 19.4994 281.708 19.4092C281.692 19.3195 281.666 19.2352 281.629 19.158C281.593 19.081 281.545 19.0125 281.486 18.9542C281.426 18.8957 281.352 18.8503 281.265 18.8172C281.179 18.785 281.076 18.7685 280.958 18.7676ZM282.408 18.8237L282.378 19.226C282.364 19.4012 282.35 19.5494 282.334 19.6725C282.319 19.7954 282.302 19.8976 282.282 19.9795C282.263 20.0612 282.239 20.1272 282.211 20.1784C282.184 20.2295 282.151 20.2711 282.111 20.3028C282.073 20.3343 282.026 20.3616 281.972 20.3847C281.951 20.3939 281.938 20.4055 281.93 20.42C281.923 20.4345 281.922 20.4503 281.927 20.4664L281.976 20.6153C281.982 20.6315 281.989 20.6411 281.999 20.6456C282.01 20.6499 282.021 20.6504 282.033 20.648C282.044 20.6456 282.057 20.6423 282.066 20.6379C282.159 20.6101 282.237 20.5743 282.301 20.5296C282.366 20.4849 282.418 20.4277 282.46 20.3576C282.502 20.2867 282.536 20.1997 282.563 20.0947C282.589 19.9903 282.612 19.8651 282.629 19.7178C282.646 19.5707 282.663 19.3979 282.679 19.1998L282.701 18.9207H283.426V20.5376C283.426 20.561 283.431 20.5755 283.443 20.5835C283.454 20.5908 283.471 20.594 283.494 20.5935H283.677C283.705 20.594 283.723 20.5908 283.734 20.5835C283.744 20.5755 283.749 20.561 283.749 20.5376V18.8237C283.749 18.7838 283.744 18.7496 283.734 18.7226C283.723 18.6944 283.704 18.673 283.677 18.659C283.651 18.6449 283.613 18.6376 283.565 18.6376H282.599C282.545 18.6368 282.5 18.6517 282.464 18.6816C282.43 18.7113 282.411 18.7588 282.408 18.8237ZM284.237 18.6932V20.4482C284.237 20.4981 284.251 20.5352 284.278 20.5586C284.305 20.5819 284.341 20.5935 284.387 20.5935H284.474C284.501 20.5935 284.527 20.59 284.548 20.5835C284.567 20.5766 284.587 20.565 284.603 20.5485C284.621 20.5323 284.639 20.5102 284.658 20.4817L285.243 19.6026C285.283 19.5429 285.318 19.4882 285.351 19.4358C285.383 19.3843 285.415 19.3327 285.446 19.2819C285.478 19.2304 285.513 19.1756 285.551 19.1181H285.574V20.5413C285.574 20.5626 285.579 20.5775 285.588 20.584C285.598 20.5908 285.613 20.594 285.634 20.5935H285.84C285.863 20.594 285.879 20.5908 285.887 20.584C285.897 20.5775 285.902 20.5626 285.9 20.5413V18.7863C285.9 18.7363 285.885 18.6988 285.858 18.6739C285.83 18.6497 285.794 18.6376 285.751 18.6376H285.653C285.619 18.6376 285.592 18.6413 285.572 18.6485C285.551 18.6553 285.533 18.6679 285.518 18.6843C285.503 18.702 285.488 18.7241 285.473 18.7528L284.905 19.6211C284.864 19.6799 284.826 19.7366 284.792 19.7906C284.756 19.8446 284.721 19.8989 284.686 19.9545C284.652 20.0096 284.615 20.0689 284.575 20.1317H284.56V18.6932C284.56 18.6679 284.555 18.6505 284.547 18.6416C284.538 18.6332 284.522 18.6295 284.5 18.63H284.297C284.276 18.6295 284.261 18.6332 284.251 18.6416C284.242 18.6497 284.237 18.6658 284.237 18.6896V18.6932ZM287.418 19.677V20.5376C287.418 20.561 287.422 20.5766 287.431 20.5835C287.44 20.5908 287.456 20.594 287.478 20.5935H287.684C287.705 20.594 287.72 20.5908 287.73 20.5835C287.739 20.5766 287.744 20.561 287.744 20.5376V19.677H288.037C288.089 19.6767 288.14 19.6851 288.189 19.7023C288.237 19.7197 288.281 19.7471 288.319 19.7857C288.357 19.824 288.387 19.8744 288.405 19.9379L288.589 20.5521C288.596 20.5722 288.605 20.584 288.617 20.5884C288.628 20.5928 288.64 20.594 288.649 20.5935H288.871C288.889 20.5928 288.902 20.5896 288.908 20.5827C288.913 20.5755 288.917 20.5678 288.916 20.5581C288.915 20.5481 288.914 20.5389 288.912 20.53L288.725 19.8857C288.708 19.8309 288.689 19.7805 288.666 19.7354C288.643 19.6912 288.612 19.652 288.574 19.619C288.536 19.5856 288.485 19.5591 288.421 19.5389L288.424 19.5317C288.49 19.5014 288.541 19.4556 288.58 19.396C288.619 19.3359 288.648 19.2658 288.668 19.1854L288.807 18.6973C288.81 18.6835 288.809 18.6698 288.805 18.6573C288.8 18.6449 288.788 18.6381 288.766 18.6376H288.563C288.55 18.6368 288.538 18.6393 288.527 18.644C288.517 18.6497 288.508 18.6622 288.503 18.6819L288.361 19.1479C288.336 19.2228 288.305 19.2792 288.268 19.3186C288.23 19.3569 288.187 19.3831 288.141 19.3968C288.095 19.4105 288.047 19.4165 287.996 19.416H287.744V18.6932C287.744 18.6698 287.739 18.6542 287.73 18.6473C287.72 18.64 287.705 18.6368 287.684 18.6376H287.478C287.456 18.6368 287.44 18.64 287.431 18.6473C287.422 18.6542 287.418 18.6698 287.418 18.6932V19.416H287.166C287.115 19.4165 287.066 19.4105 287.02 19.3968C286.974 19.3831 286.933 19.3569 286.897 19.3186C286.86 19.2792 286.83 19.2228 286.805 19.1479L286.659 18.6819C286.653 18.6622 286.646 18.6497 286.635 18.644C286.624 18.6393 286.612 18.6368 286.599 18.6376H286.396C286.374 18.6381 286.36 18.6449 286.355 18.6573C286.35 18.6698 286.349 18.6835 286.351 18.6973L286.494 19.1854C286.513 19.2658 286.543 19.3359 286.58 19.396C286.619 19.4556 286.671 19.5014 286.738 19.5317L286.742 19.5389C286.677 19.5591 286.626 19.5863 286.587 19.6198C286.548 19.6537 286.518 19.6931 286.494 19.7379C286.472 19.7825 286.453 19.832 286.438 19.8857L286.246 20.53C286.244 20.5389 286.244 20.5481 286.244 20.5581C286.245 20.5678 286.249 20.5755 286.257 20.5827C286.264 20.5896 286.276 20.5928 286.295 20.5935H286.512C286.522 20.594 286.534 20.5928 286.546 20.5884C286.558 20.584 286.567 20.5722 286.573 20.5521L286.757 19.9379C286.776 19.8744 286.805 19.824 286.843 19.7857C286.881 19.7471 286.924 19.7197 286.973 19.7023C287.022 19.6851 287.073 19.6767 287.125 19.677H287.418ZM290.05 18.5965C289.926 18.5965 289.811 18.6195 289.705 18.6646C289.6 18.7101 289.509 18.777 289.431 18.8648C289.352 18.9521 289.292 19.0601 289.249 19.1873C289.205 19.3146 289.183 19.4608 289.183 19.6242C289.183 19.857 289.22 20.0487 289.292 20.1978C289.364 20.3467 289.468 20.4567 289.601 20.5279C289.736 20.5996 289.897 20.6351 290.084 20.6343C290.151 20.6343 290.218 20.6306 290.287 20.6225C290.356 20.6146 290.424 20.6001 290.49 20.5803C290.557 20.5598 290.621 20.532 290.681 20.4965C290.698 20.4888 290.708 20.4793 290.713 20.4659C290.716 20.4535 290.713 20.4385 290.704 20.4221L290.624 20.265C290.615 20.2505 290.604 20.2416 290.594 20.2384C290.582 20.2344 290.568 20.2376 290.553 20.2469C290.518 20.265 290.477 20.2831 290.429 20.2992C290.381 20.3145 290.33 20.327 290.276 20.3362C290.221 20.3459 290.166 20.3512 290.11 20.3512C290.029 20.3515 289.953 20.3402 289.881 20.3173C289.809 20.294 289.745 20.2574 289.691 20.207C289.636 20.1562 289.593 20.0906 289.561 20.0081C289.529 19.9263 289.514 19.8269 289.514 19.7105H290.59C290.641 19.7112 290.689 19.7036 290.73 19.6875C290.773 19.6706 290.807 19.6416 290.833 19.5993C290.859 19.5571 290.872 19.4974 290.873 19.4197C290.873 19.2976 290.857 19.1854 290.824 19.085C290.792 18.9843 290.742 18.8982 290.675 18.8248C290.609 18.7524 290.523 18.696 290.419 18.6569C290.316 18.6171 290.193 18.597 290.05 18.5965ZM290.565 19.4495H289.524C289.529 19.3726 289.544 19.2993 289.569 19.2296C289.593 19.1603 289.628 19.0987 289.672 19.044C289.717 18.99 289.771 18.9474 289.835 18.9163C289.898 18.8853 289.971 18.8688 290.054 18.8683C290.155 18.8688 290.238 18.8845 290.305 18.9151C290.371 18.9458 290.423 18.9876 290.462 19.0415C290.5 19.0952 290.527 19.1572 290.542 19.2268C290.558 19.2961 290.565 19.3706 290.565 19.4495Z" fill="white"/>
<path fill-rule="evenodd" clip-rule="evenodd" d="M262.084 17.195C261.992 17.195 261.917 17.2695 261.917 17.3605V18.8384L262.916 20.0989L260.673 17.8743C260.608 17.8094 260.502 17.8094 260.437 17.8743L259.367 18.9355L259.168 20.5125V17.3658C259.168 17.2746 259.092 17.2002 259.001 17.2002H257.399L256.217 18.157L258.46 15.9316C258.525 15.8676 258.525 15.7617 258.46 15.6977L257.337 14.5833L255.815 14.4399H258.988C259.079 14.4399 259.155 14.3655 259.155 14.2741V12.7716L258.165 11.5393L260.409 13.7643C260.473 13.8287 260.58 13.8287 260.645 13.7643L261.748 12.6704L261.911 11.1273V14.2741C261.911 14.3651 261.985 14.4396 262.077 14.4396H263.656L264.857 13.4827L262.613 15.7081C262.548 15.7721 262.548 15.878 262.613 15.9421L263.713 17.0334L265.256 17.195H262.084ZM268.467 16.8297L266.058 14.4396L265.093 13.4827L266.849 14.4396C266.94 14.4396 267.016 14.3651 267.016 14.2741V11.1273C267.016 11.0363 266.94 10.9618 266.849 10.9618H263.47H262.077L264.019 10.4169C264.084 10.3529 264.084 10.2474 264.019 10.1829L261.775 7.95796C261.711 7.89357 261.605 7.89357 261.54 7.95796L259.155 10.3239L258.134 11.3476L258.134 11.3485L258.136 11.3456L258.141 11.3359L259.155 9.54105C259.155 9.44962 259.079 9.37548 258.988 9.37548H255.815C255.723 9.37548 255.648 9.44962 255.648 9.54105V12.9081V12.9085V14.2741L255.086 12.3507C255.021 12.2863 254.914 12.2863 254.849 12.3507L252.607 14.5757C252.541 14.6402 252.541 14.7457 252.607 14.8101L255.981 18.157L254.229 17.2002C254.137 17.2002 254.062 17.2746 254.062 17.3658V20.5125C254.062 20.6035 254.137 20.6775 254.229 20.6775H257.61H259.001L257.062 21.2208C256.998 21.2853 256.998 21.3908 257.062 21.4551L259.306 23.6801C259.371 23.7447 259.477 23.7447 259.542 23.6801L261.917 21.3244L262.902 20.347L261.917 22.0939C261.917 22.185 261.992 22.2594 262.084 22.2594H265.256C265.348 22.2594 265.423 22.185 265.423 22.0939V18.7293V17.3605L265.988 19.289C266.052 19.3535 266.159 19.3535 266.223 19.289L268.467 17.064C268.531 16.9997 268.531 16.8941 268.467 16.8297Z" fill="white"/>
<path d="M18.9917 8.18861L12.526 23.4904H8.30778L5.12753 11.2776C4.93319 10.5246 4.7663 10.2502 4.17872 9.93269C3.22076 9.41557 1.63635 8.93252 0.241699 8.6309L0.337727 8.18634H7.12802C7.99224 8.18634 8.77189 8.75788 8.96851 9.74671L10.649 18.603L14.8008 8.18861H18.9917ZM35.5194 18.4941C35.5354 14.4549 29.8882 14.2327 29.9271 12.4297C29.9385 11.8808 30.4666 11.298 31.6189 11.1483C32.1905 11.0734 33.7658 11.0168 35.5536 11.8332L36.2532 8.58777C35.293 8.24081 34.0584 7.90967 32.5197 7.90967C28.5758 7.90967 25.8003 9.98937 25.7751 12.9694C25.75 15.1716 27.7573 16.4008 29.2686 17.1334C30.8233 17.884 31.3445 18.3649 31.3377 19.0339C31.3285 20.0613 30.0985 20.5126 28.9508 20.5308C26.9434 20.5625 25.7797 19.9932 24.8515 19.5646L24.129 22.9166C25.0618 23.3407 26.7811 23.7104 28.5667 23.7285C32.7644 23.7285 35.5056 21.6738 35.5194 18.4941ZM45.9335 23.4904H49.6235L46.4021 8.18861H42.9956C42.2296 8.18861 41.5849 8.6309 41.2968 9.31127L35.3113 23.4904H39.5021L40.3343 21.2043H45.4534L45.9335 23.4904ZM41.482 18.0678L43.5831 12.3208L44.7926 18.0678H41.482ZM24.6937 8.18861L21.3946 23.4904H17.405L20.7064 8.18861H24.6937Z" fill="white"/>
<path d="M102.901 13.3345H65.9966V31.6382H102.901V13.3345Z" fill="white"/>
<path d="M80.5859 0.148397L77.1121 8.36846H74.8455L73.1365 1.80867C73.0318 1.40563 72.9425 1.25771 72.6273 1.08577C72.1112 0.808442 71.2612 0.547752 70.5122 0.3869L70.5622 0.148397H74.2098C74.6738 0.148397 75.0932 0.455309 75.1995 0.98593L76.1016 5.74305L78.3326 0.148397H80.5859ZM89.4636 5.68574C89.4731 3.51703 86.4405 3.39685 86.4607 2.4262C86.4682 2.13223 86.7499 1.81792 87.3703 1.73842C87.678 1.69959 88.5243 1.66816 89.4843 2.10634L89.8606 0.362865C89.3445 0.177979 88.6806 0.000488281 87.855 0.000488281C85.7357 0.000488281 84.2447 1.1172 84.2335 2.71832C84.2207 3.90159 85.2977 4.56163 86.1104 4.95544C86.9471 5.3585 87.2267 5.61735 87.223 5.97601C87.2177 6.52698 86.5559 6.77102 85.9409 6.78024C84.8618 6.79691 84.2372 6.49187 83.7397 6.26075L83.35 8.06336C83.8513 8.29079 84.7762 8.48863 85.7341 8.4997C87.9837 8.49786 89.4577 7.39407 89.4636 5.68574ZM95.0604 8.36846H97.0437L95.3124 0.148397H93.4838C93.0718 0.148397 92.7252 0.385052 92.5706 0.751125L89.3535 8.36846H91.6052L92.0523 7.14081H94.8037L95.0604 8.36846ZM92.6673 5.45647L93.7969 2.36888L94.4454 5.45647H92.6673ZM83.6482 0.148397L81.876 8.36846H79.7327L81.505 0.148397H83.6482Z" fill="white"/>
<path d="M74.594 23.4716C74.8359 23.6139 75.2143 23.7359 75.6061 23.7359C76.0904 23.7359 76.3625 23.5086 76.3625 23.1702C76.3625 22.8559 76.152 22.671 75.6247 22.4806C74.9294 22.2402 74.4877 21.8705 74.4877 21.2788C74.4877 20.5947 75.0581 20.0845 75.9713 20.0845C76.4242 20.0845 76.7537 20.1824 76.9701 20.2879L76.7894 20.9035C76.6347 20.824 76.3423 20.7057 75.9506 20.7057C75.4663 20.7057 75.2611 20.959 75.2611 21.2049C75.2611 21.5247 75.5035 21.6726 76.0627 21.8815C76.7894 22.1589 77.1359 22.5213 77.1359 23.1129C77.1359 23.784 76.6272 24.3572 75.5535 24.3572C75.1064 24.3572 74.6477 24.2333 74.417 24.0984L74.594 23.4716Z" fill="black"/>
<path d="M80.1071 22.4547H78.5305V23.675H80.2937V24.2962H77.7661V20.1455H80.2007V20.7667H78.5305V21.8391H80.1071V22.4547Z" fill="black"/>
<path d="M83.9006 24.1741C83.7199 24.261 83.3228 24.359 82.8135 24.359C81.4846 24.359 80.6777 23.5344 80.6777 22.2716C80.6777 20.9054 81.6393 20.0845 82.9183 20.0845C83.4217 20.0845 83.7757 20.1824 83.9304 20.2638L83.7682 20.8665C83.5689 20.7796 83.2909 20.7057 82.948 20.7057C82.0981 20.7057 81.4831 21.2363 81.4831 22.2328C81.4831 23.1443 82.0162 23.723 82.9422 23.723C83.2462 23.723 83.5689 23.662 83.7736 23.5751L83.9006 24.1741Z" fill="black"/>
<path d="M85.2496 20.1459V22.566C85.2496 23.3795 85.5908 23.7549 86.107 23.7549C86.6587 23.7549 86.9888 23.3795 86.9888 22.566V20.1459H87.7527V22.5161C87.7527 23.7974 87.0893 24.3631 86.083 24.3631C85.1135 24.3631 84.4873 23.8269 84.4873 22.5217V20.144H85.2496V20.1459Z" fill="black"/>
<path d="M88.5659 20.2086C88.8567 20.1532 89.2798 20.1162 89.7216 20.1162C90.3233 20.1162 90.7278 20.2142 91.0133 20.449C91.2424 20.6394 91.3726 20.9297 91.3726 21.2865C91.3726 21.8227 91.0074 22.1851 90.6087 22.3219V22.3404C90.9123 22.4513 91.093 22.7416 91.1919 23.1409C91.328 23.6586 91.4401 24.1393 91.522 24.2983H90.739C90.6779 24.1744 90.5715 23.8361 90.4594 23.3184C90.3345 22.7767 90.1426 22.6048 89.7083 22.5918H89.3223V24.2983H88.5659V20.2086ZM89.3223 22.0371H89.7758C90.2919 22.0371 90.6066 21.7654 90.6066 21.3531C90.6066 20.9038 90.2898 20.6875 89.7944 20.6875C89.552 20.6875 89.3973 20.706 89.3223 20.7245V22.0371Z" fill="black"/>
<path d="M94.3772 22.4547H92.8V23.675H94.5632V24.2962H92.0361V20.1455H94.4702V20.7667H92.8V21.8391H94.3772V22.4547Z" fill="black"/>
<path d="M152.714 22.4583H152.208V16.6953H152.714V22.4583ZM156.573 16.6953C157.018 16.6886 157.46 16.7565 157.882 16.8961C158.25 17.0171 158.59 17.2134 158.877 17.4724C159.147 17.726 159.358 18.0351 159.495 18.3781C159.788 19.149 159.788 19.9997 159.495 20.7706C159.356 21.1149 159.142 21.4247 158.869 21.6778C158.581 21.9369 158.242 22.1332 157.873 22.2542C157.452 22.3936 157.01 22.4615 156.566 22.455H154.452V16.6919L156.573 16.6953ZM154.96 17.1728V21.9808H156.573C156.953 21.9895 157.332 21.9338 157.694 21.8161C157.997 21.7139 158.276 21.5489 158.51 21.3321C158.732 21.1203 158.902 20.8613 159.008 20.5746C159.233 19.9349 159.233 19.2385 159.008 18.5987C158.902 18.3118 158.732 18.0524 158.51 17.8397C158.277 17.6219 157.998 17.4568 157.694 17.3555C157.332 17.2385 156.953 17.1829 156.573 17.1909L154.96 17.1728ZM165.932 16.6294C166.175 16.6287 166.417 16.6563 166.654 16.7117C166.881 16.7646 167.101 16.8442 167.308 16.9488C167.508 17.0489 167.693 17.1739 167.861 17.321C168.024 17.4649 168.166 17.6313 168.283 17.8149L167.859 18.0949C167.76 17.9437 167.64 17.8064 167.504 17.6865C167.367 17.5659 167.215 17.4625 167.053 17.3786C166.884 17.2921 166.706 17.2263 166.521 17.1826C166.329 17.1372 166.131 17.1145 165.934 17.1151C165.604 17.1125 165.276 17.1729 164.969 17.293C164.68 17.4041 164.416 17.5721 164.194 17.7869C163.971 18.0091 163.795 18.2734 163.676 18.5642C163.424 19.2105 163.424 19.9267 163.676 20.573C163.795 20.8645 163.972 21.1294 164.196 21.3518C164.418 21.5667 164.681 21.7347 164.971 21.8458C165.278 21.9659 165.605 22.0263 165.935 22.0236C166.132 22.0242 166.328 22.002 166.52 21.9578C166.703 21.9158 166.881 21.8511 167.049 21.7651C167.213 21.6814 167.365 21.578 167.502 21.4572C167.639 21.3368 167.759 21.1983 167.857 21.0456L168.273 21.3469C168.152 21.5298 168.007 21.6959 167.843 21.8409C167.676 21.9846 167.492 22.1074 167.295 22.2064C167.09 22.3094 166.873 22.3874 166.649 22.4386C166.018 22.581 165.359 22.5329 164.755 22.3003C164.403 22.1622 164.081 21.9556 163.811 21.6927C163.541 21.4276 163.329 21.1112 163.187 20.7623C162.885 19.9969 162.885 19.1469 163.187 18.3813C163.329 18.032 163.541 17.7148 163.811 17.4494C164.081 17.1864 164.403 16.9798 164.755 16.8418C165.129 16.6968 165.529 16.6247 165.931 16.6294H165.932ZM170.004 19.2639C170.078 19.1418 170.17 19.0308 170.276 18.9346C170.375 18.8433 170.487 18.7663 170.608 18.7057C170.73 18.6468 170.858 18.6026 170.99 18.574C171.121 18.5455 171.254 18.5312 171.388 18.5312C171.614 18.5289 171.839 18.5657 172.052 18.6399C172.246 18.7074 172.423 18.8132 172.574 18.9511C172.719 19.0895 172.833 19.2582 172.905 19.4451C172.987 19.6518 173.026 19.8721 173.023 20.0938V22.4682H172.55V20.2272C172.553 20.0482 172.525 19.87 172.467 19.7003C172.416 19.5515 172.332 19.4159 172.222 19.3035C172.111 19.193 171.976 19.1081 171.828 19.0548C171.658 18.9943 171.478 18.9647 171.297 18.9675C171.122 18.966 170.947 18.9973 170.784 19.0598C170.629 19.1188 170.488 19.2084 170.369 19.3232C170.25 19.4397 170.156 19.5785 170.092 19.7316C170.023 19.8964 169.989 20.0734 169.991 20.2519V22.4583H169.518V16.5306H169.991L170.004 19.2639ZM176.124 18.5312C176.373 18.5291 176.619 18.5791 176.848 18.6777C177.066 18.7722 177.262 18.9107 177.424 19.0844C177.59 19.2669 177.721 19.4793 177.807 19.7102C177.904 19.965 177.953 20.2349 177.953 20.5071C177.953 20.5434 177.953 20.5768 177.953 20.6076C177.953 20.6383 177.953 20.669 177.953 20.6998H174.67C174.682 20.9077 174.733 21.1116 174.821 21.3008C174.901 21.4697 175.014 21.6213 175.153 21.747C175.288 21.8692 175.447 21.9638 175.619 22.0253C175.8 22.0895 175.99 22.1219 176.182 22.1208C176.435 22.125 176.685 22.0744 176.916 21.9726C177.133 21.873 177.332 21.7365 177.502 21.5692L177.756 21.8985C177.64 22.0147 177.513 22.1185 177.376 22.208C177.252 22.2879 177.12 22.3542 176.982 22.4057C176.85 22.4547 176.713 22.4895 176.574 22.5094C176.435 22.5284 176.294 22.5377 176.154 22.5374C175.884 22.5401 175.616 22.4903 175.365 22.3908C175.131 22.2982 174.92 22.1586 174.743 21.9808C174.564 21.798 174.425 21.5805 174.335 21.3419C174.232 21.0795 174.181 20.8 174.185 20.5186C174.183 20.2434 174.233 19.9701 174.333 19.7134C174.425 19.4775 174.563 19.2621 174.74 19.0795C174.914 18.9017 175.123 18.761 175.354 18.6662C175.598 18.5675 175.859 18.5188 176.122 18.523L176.124 18.5312ZM176.124 18.9478C175.937 18.9453 175.751 18.9795 175.578 19.0482C175.417 19.1133 175.27 19.2083 175.145 19.3282C175.018 19.4508 174.914 19.5953 174.839 19.7546C174.759 19.9261 174.708 20.1098 174.688 20.298H177.472C177.458 20.1082 177.411 19.9223 177.334 19.748C177.265 19.589 177.165 19.4444 177.042 19.3216C176.92 19.2015 176.775 19.1066 176.616 19.0425C176.457 18.9783 176.286 18.9461 176.114 18.9478H176.124ZM180.85 18.5312C181.126 18.5288 181.401 18.5814 181.656 18.686C181.899 18.7853 182.115 18.9378 182.289 19.1322L181.982 19.4484C181.834 19.3006 181.66 19.1811 181.469 19.096C181.269 19.0105 181.054 18.9679 180.837 18.9709C180.632 18.9689 180.429 19.0087 180.241 19.0878C180.06 19.1645 179.897 19.2765 179.761 19.4171C179.623 19.5592 179.515 19.7271 179.444 19.911C179.291 20.3134 179.291 20.7569 179.444 21.1592C179.513 21.343 179.619 21.5108 179.757 21.6524C179.894 21.794 180.058 21.9063 180.241 21.9825C180.429 22.0615 180.632 22.1013 180.837 22.0994C181.057 22.1017 181.276 22.0568 181.477 21.9676C181.669 21.8823 181.843 21.7641 181.993 21.6186L182.289 21.9396C182.113 22.1334 181.896 22.2858 181.653 22.3859C181.398 22.4907 181.124 22.5433 180.848 22.5406C180.572 22.544 180.298 22.4925 180.041 22.3892C179.804 22.2935 179.589 22.1509 179.409 21.97C179.229 21.789 179.089 21.5737 178.996 21.337C178.799 20.8259 178.799 20.2608 178.996 19.7497C179.088 19.5126 179.229 19.2968 179.409 19.1156C179.589 18.9344 179.804 18.7915 180.041 18.6959C180.294 18.586 180.566 18.5272 180.841 18.523L180.85 18.5312ZM183.879 20.2272H184.513L186.157 18.5938H186.754L184.895 20.4215L186.788 22.4666H186.186L184.513 20.6553H183.879V22.4666H183.398V16.5388H183.871L183.879 20.2272ZM158.398 14.6469V12.177C158.398 11.245 157.798 10.6177 156.834 10.6094C156.559 10.5918 156.285 10.6476 156.039 10.771C155.794 10.8944 155.586 11.0808 155.438 11.3109C155.303 11.0876 155.109 10.9047 154.879 10.7812C154.648 10.6577 154.387 10.5984 154.125 10.6094C153.896 10.5985 153.669 10.6468 153.465 10.7496C153.262 10.8524 153.088 11.0061 152.963 11.1956V10.7017H152.098V14.6436H152.972V12.4619C152.972 11.7769 153.353 11.4146 153.944 11.4146C154.535 11.4146 154.809 11.7851 154.809 12.4536V14.6469H155.682V12.4619C155.682 11.7769 156.08 11.4146 156.655 11.4146C157.229 11.4146 157.528 11.7851 157.528 12.4536V14.6469H158.398ZM171.317 10.7049H169.904V9.50949H169.039V10.7049H168.233V11.4887H169.039V13.2868C169.039 14.2023 169.396 14.7473 170.419 14.7473C170.801 14.7485 171.175 14.643 171.499 14.4427L171.25 13.7083C171.018 13.8454 170.755 13.9219 170.485 13.9306C170.053 13.9306 169.911 13.6672 169.911 13.272V11.4887H171.323L171.317 10.7049ZM178.692 10.6062C178.481 10.6 178.272 10.6505 178.088 10.7522C177.904 10.854 177.75 11.0032 177.645 11.1841V10.7049H176.788V14.6469H177.653V12.4371C177.653 11.7785 177.935 11.4228 178.501 11.4228C178.686 11.4202 178.87 11.4538 179.042 11.5216L179.308 10.7131C179.11 10.6431 178.902 10.6068 178.692 10.6062ZM167.545 11.0195C167.056 10.7309 166.493 10.588 165.924 10.6078C164.918 10.6078 164.264 11.0853 164.264 11.8691C164.264 12.5129 164.745 12.9081 165.635 13.0316L166.042 13.0892C166.515 13.1551 166.74 13.2785 166.74 13.5009C166.74 13.8055 166.425 13.9784 165.834 13.9784C165.358 13.9934 164.889 13.8483 164.506 13.5667L164.099 14.2352C164.603 14.5845 165.207 14.764 165.821 14.7473C166.968 14.7473 167.634 14.2105 167.634 13.4614C167.634 12.7681 167.109 12.4059 166.246 12.2824L165.839 12.2247C165.465 12.1753 165.165 12.1013 165.165 11.8378C165.165 11.5496 165.447 11.3751 165.922 11.3751C166.357 11.3815 166.783 11.4977 167.161 11.7126L167.545 11.0195ZM190.708 10.6078C190.497 10.6017 190.288 10.6522 190.104 10.7539C189.92 10.8556 189.766 11.0048 189.661 11.1858V10.7049H188.804V14.6469H189.669V12.4371C189.669 11.7785 189.951 11.4228 190.517 11.4228C190.703 11.4202 190.886 11.4538 191.058 11.5216L191.324 10.7131C191.126 10.6431 190.918 10.6068 190.708 10.6062V10.6078ZM179.567 12.6775C179.567 13.873 180.407 14.7473 181.686 14.7473C182.205 14.7728 182.715 14.6048 183.115 14.2764L182.7 13.5832C182.399 13.8086 182.032 13.9311 181.655 13.9323C180.964 13.9323 180.458 13.4284 180.458 12.671C180.458 11.9135 180.966 11.4179 181.655 11.4097C182.031 11.4137 182.395 11.5378 182.694 11.7637L183.109 11.0705C182.708 10.742 182.199 10.5741 181.68 10.5996C180.4 10.5996 179.56 11.4739 179.56 12.6693L179.567 12.6775ZM187.664 12.6775V10.7017H186.801V11.1808C186.653 10.9921 186.462 10.8411 186.244 10.7406C186.026 10.64 185.786 10.5928 185.546 10.6028C184.432 10.6028 183.554 11.469 183.554 12.6726C183.554 13.8763 184.427 14.7424 185.546 14.7424C185.786 14.7524 186.026 14.7052 186.244 14.6047C186.462 14.5041 186.653 14.3532 186.801 14.1645V14.6419H187.665L187.664 12.6775ZM184.447 12.6775C184.447 11.9844 184.903 11.4162 185.652 11.4162C186.368 11.4162 186.849 11.9613 186.849 12.6775C186.849 13.3938 186.368 13.9389 185.652 13.9389C184.903 13.9389 184.447 13.3691 184.447 12.6775ZM174.019 10.6062C172.857 10.6062 172.04 11.4476 172.04 12.6759C172.04 13.929 172.889 14.7457 174.077 14.7457C174.671 14.7663 175.251 14.5694 175.707 14.1924L175.284 13.5569C174.954 13.8189 174.545 13.9638 174.122 13.9685C173.564 13.9685 173.058 13.7132 172.933 13.0036H175.885C175.893 12.8966 175.902 12.7895 175.902 12.6743C175.902 11.4459 175.128 10.6045 174.014 10.6045L174.019 10.6062ZM174.002 11.3735C174.56 11.3735 174.917 11.7192 175.009 12.3301H172.939C173.03 11.7604 173.378 11.3735 173.994 11.3735H174.002ZM195.694 12.6759V9.12256H194.83V11.1841C194.682 10.9954 194.492 10.8444 194.273 10.7438C194.055 10.6433 193.815 10.5961 193.575 10.6062C192.461 10.6062 191.583 11.4722 191.583 12.6759C191.583 13.8796 192.456 14.7457 193.575 14.7457C193.815 14.7558 194.055 14.7085 194.273 14.608C194.492 14.5074 194.682 14.3564 194.83 14.1677V14.6452H195.694V12.6759ZM196.706 14.283C196.74 14.2828 196.774 14.2896 196.805 14.3028C196.835 14.3156 196.863 14.334 196.886 14.3571C196.91 14.3797 196.928 14.4065 196.941 14.4361C196.954 14.4668 196.961 14.4999 196.961 14.5332C196.961 14.5667 196.954 14.5997 196.941 14.6304C196.928 14.66 196.91 14.6868 196.886 14.7095C196.863 14.7324 196.835 14.7509 196.805 14.7638C196.774 14.7771 196.74 14.7838 196.706 14.7836C196.655 14.7842 196.605 14.77 196.563 14.7427C196.52 14.7155 196.487 14.6765 196.466 14.6304C196.453 14.5997 196.446 14.5667 196.446 14.5332C196.446 14.4999 196.453 14.4668 196.466 14.4361C196.492 14.3756 196.541 14.3278 196.602 14.3028C196.633 14.2904 196.665 14.2837 196.697 14.283H196.706ZM196.706 14.7276C196.732 14.728 196.758 14.7229 196.782 14.7127C196.804 14.7029 196.826 14.689 196.843 14.6716C196.88 14.6349 196.901 14.5851 196.901 14.5332C196.901 14.4814 196.88 14.4317 196.843 14.3949C196.826 14.3775 196.805 14.3635 196.782 14.3538C196.758 14.3437 196.732 14.3387 196.706 14.339C196.678 14.3386 196.652 14.3437 196.627 14.3538C196.598 14.3663 196.572 14.3859 196.551 14.4106C196.531 14.4355 196.517 14.4648 196.511 14.4961C196.505 14.5275 196.507 14.5598 196.516 14.5904C196.525 14.621 196.542 14.6488 196.564 14.6716C196.583 14.6892 196.604 14.7032 196.627 14.7127C196.649 14.7224 196.673 14.728 196.697 14.7292L196.706 14.7276ZM196.72 14.4147C196.745 14.413 196.77 14.42 196.79 14.4345C196.798 14.441 196.805 14.4492 196.809 14.4587C196.813 14.4681 196.816 14.4785 196.815 14.4888C196.815 14.4977 196.813 14.5066 196.81 14.5148C196.807 14.5231 196.802 14.5304 196.795 14.5366C196.78 14.55 196.761 14.5581 196.74 14.5596L196.817 14.6469H196.757L196.685 14.5596H196.662V14.6469H196.612V14.4147H196.72ZM196.662 14.4575V14.5201H196.72C196.731 14.5231 196.742 14.5231 196.752 14.5201C196.755 14.5176 196.759 14.5141 196.761 14.5101C196.763 14.506 196.764 14.5016 196.763 14.497C196.764 14.4925 196.763 14.4881 196.761 14.484C196.759 14.48 196.755 14.4765 196.752 14.474C196.742 14.471 196.731 14.471 196.72 14.474L196.662 14.4575ZM192.477 12.6743C192.477 11.981 192.934 11.413 193.682 11.413C194.398 11.413 194.88 11.958 194.88 12.6743C194.88 13.3905 194.398 13.9356 193.682 13.9356C192.934 13.9356 192.477 13.3658 192.477 12.6743ZM163.28 12.6743V10.6983H162.4V11.1775C162.252 10.9888 162.061 10.8378 161.843 10.7372C161.625 10.6367 161.385 10.5895 161.145 10.5996C160.031 10.5996 159.153 11.4656 159.153 12.6693C159.153 13.873 160.026 14.7391 161.145 14.7391C161.385 14.7492 161.625 14.7019 161.843 14.6014C162.061 14.5008 162.252 14.3499 162.4 14.1611V14.6386H163.265L163.28 12.6743ZM160.063 12.6743C160.063 11.981 160.519 11.413 161.268 11.413C161.983 11.413 162.464 11.958 162.464 12.6743C162.464 13.3905 161.983 13.9356 161.268 13.9356C160.509 13.9323 160.052 13.3691 160.052 12.6759L160.063 12.6743ZM187.388 22.264H187.313V22.4583H187.277V22.264H187.202V22.2294H187.388V22.264ZM187.674 22.4583H187.631V22.2706L187.563 22.4353H187.523L187.455 22.2706V22.4567H187.418V22.2278H187.474L187.541 22.3925L187.607 22.2278H187.664L187.674 22.4583Z" fill="white"/>
<path d="M136.065 11.1812H130.836V20.5025H136.065V11.1812Z" fill="#AEAEAE"/>
<path d="M131.175 15.8429C131.175 14.9453 131.38 14.0594 131.775 13.2521C132.171 12.4447 132.746 11.7372 133.458 11.1831C132.576 10.4958 131.517 10.0684 130.403 9.94984C129.288 9.8312 128.162 10.0261 127.153 10.5122C126.145 10.9984 125.294 11.7561 124.7 12.6989C124.105 13.6418 123.79 14.7315 123.79 15.8437C123.79 16.956 124.105 18.0458 124.7 18.9886C125.294 19.9313 126.145 20.6891 127.153 21.1753C128.162 21.6614 129.288 21.8563 130.403 21.7377C131.517 21.619 132.576 21.1917 133.458 20.5044C132.746 19.9501 132.17 19.2423 131.775 18.4347C131.379 17.627 131.175 16.7408 131.175 15.8429Z" fill="white"/>
<path d="M142.549 19.5147V19.3237H142.629V19.2842H142.429V19.3237H142.507V19.5147H142.549ZM142.933 19.5147V19.2842H142.873L142.803 19.4489L142.733 19.2842H142.672V19.5147H142.715V19.3418L142.779 19.4917H142.825L142.889 19.3418V19.5163L142.933 19.5147Z" fill="#CACACA"/>
<path d="M143.127 15.8429C143.127 16.9551 142.811 18.045 142.216 18.9879C141.621 19.9307 140.771 20.6885 139.762 21.1745C138.753 21.6606 137.628 21.8554 136.513 21.7366C135.398 21.6178 134.339 21.1902 133.458 20.5027C134.169 19.948 134.744 19.2403 135.14 18.4329C135.535 17.6256 135.741 16.7397 135.741 15.842C135.741 14.9444 135.535 14.0584 135.14 13.2511C134.744 12.4437 134.169 11.736 133.458 11.1813C134.339 10.4938 135.398 10.0662 136.513 9.94744C137.628 9.82869 138.755 10.0236 139.763 10.5099C140.772 10.9962 141.622 11.7542 142.217 12.6972C142.811 13.6403 143.127 14.7304 143.127 15.8429Z" fill="#CACACA"/>
<path d="M228.599 9.60107H220.924V22.0362H228.599V9.60107Z" fill="#AEAEAE"/>
<path d="M221.714 15.8199C221.713 14.6224 221.987 13.4406 222.514 12.3636C223.042 11.2866 223.809 10.3427 224.759 9.60338C223.582 8.68657 222.17 8.11646 220.683 7.95822C219.196 7.79992 217.694 8.05993 216.348 8.70845C215.003 9.35703 213.869 10.3679 213.075 11.6257C212.282 12.8834 211.861 14.3372 211.861 15.821C211.861 17.3047 212.282 18.7585 213.075 20.0163C213.869 21.274 215.003 22.2849 216.348 22.9335C217.694 23.582 219.196 23.842 220.683 23.6837C222.17 23.5255 223.582 22.9553 224.759 22.0385C223.809 21.299 223.041 20.3548 222.513 19.2774C221.986 18.2 221.712 17.0176 221.714 15.8199Z" fill="white"/>
<path d="M237.658 15.8196C237.658 17.3034 237.237 18.7574 236.443 20.0151C235.65 21.2729 234.515 22.2838 233.169 22.9322C231.824 23.5807 230.322 23.8405 228.834 23.682C227.347 23.5235 225.935 22.9531 224.759 22.036C225.708 21.2961 226.475 20.3519 227.003 19.2749C227.53 18.1978 227.805 17.016 227.805 15.8185C227.805 14.6209 227.53 13.4391 227.003 12.362C226.475 11.2849 225.708 10.3409 224.759 9.60092C225.935 8.68379 227.347 8.11337 228.834 7.95491C230.322 7.79641 231.824 8.05626 233.169 8.70467C234.515 9.35314 235.65 10.364 236.443 11.6218C237.237 12.8796 237.658 14.3335 237.658 15.8174V15.8196Z" fill="#CACACA"/>
<path d="M384.693 12.3879C385.513 12.3879 386.151 12.685 386.607 13.2791C387.066 13.8733 387.296 14.7071 387.296 15.7805C387.296 16.8579 387.064 17.6977 386.601 18.2998C386.137 18.8979 385.494 19.1969 384.67 19.1969C383.838 19.1969 383.192 18.8979 382.733 18.2998H382.638L382.382 19.0781H381.336V9.83301H382.733V12.0314C382.733 12.1938 382.725 12.4354 382.709 12.7563C382.693 13.0771 382.681 13.2811 382.673 13.3682H382.733C383.176 12.7147 383.83 12.3879 384.693 12.3879ZM384.331 13.5287C383.769 13.5287 383.363 13.695 383.113 14.0278C382.867 14.3565 382.741 14.9091 382.733 15.6855V15.7805C382.733 16.5807 382.859 17.161 383.113 17.5214C383.366 17.8779 383.78 18.0562 384.355 18.0562C384.85 18.0562 385.224 17.8601 385.478 17.4679C385.735 17.0758 385.864 16.5094 385.864 15.7686C385.864 14.2753 385.353 13.5287 384.331 13.5287Z" fill="#CACACA"/>
<path d="M391.788 19.1969C390.766 19.1969 389.966 18.8999 389.387 18.3057C388.813 17.7076 388.526 16.8857 388.526 15.8399C388.526 14.7665 388.793 13.9228 389.328 13.3088C389.863 12.6949 390.597 12.3879 391.532 12.3879C392.4 12.3879 393.085 12.6513 393.588 13.1781C394.091 13.7049 394.343 14.4298 394.343 15.3527V16.1073H389.964C389.983 16.745 390.156 17.2362 390.481 17.5808C390.805 17.9215 391.263 18.0918 391.853 18.0918C392.241 18.0918 392.602 18.0562 392.934 17.9849C393.271 17.9096 393.632 17.7868 394.016 17.6165V18.7513C393.675 18.9137 393.33 19.0286 392.982 19.0959C392.633 19.1633 392.235 19.1969 391.788 19.1969ZM391.532 13.4455C391.089 13.4455 390.732 13.5861 390.463 13.8673C390.197 14.1486 390.039 14.5585 389.987 15.0972H392.97C392.962 14.5546 392.831 14.1446 392.578 13.8673C392.324 13.5861 391.976 13.4455 391.532 13.4455Z" fill="#CACACA"/>
<path d="M401.829 13.0177C401.829 13.9248 401.532 14.6199 400.938 15.1032C400.344 15.5864 399.498 15.8281 398.401 15.8281H397.498V19.0781H396.077V10.3915H398.579C399.664 10.3915 400.476 10.6133 401.015 11.057C401.558 11.5006 401.829 12.1542 401.829 13.0177ZM397.498 14.6338H398.252C398.981 14.6338 399.516 14.5071 399.856 14.2535C400.197 14 400.367 13.6039 400.367 13.0652C400.367 12.5661 400.215 12.1938 399.91 11.9482C399.605 11.7026 399.129 11.5798 398.484 11.5798H397.498V14.6338Z" fill="#CACACA"/>
<path d="M407.527 19.0781L407.248 18.1631H407.2C406.883 18.5632 406.564 18.8365 406.244 18.983C405.923 19.1256 405.511 19.1969 405.008 19.1969C404.362 19.1969 403.857 19.0227 403.493 18.6741C403.132 18.3255 402.952 17.8324 402.952 17.1946C402.952 16.5173 403.203 16.0063 403.706 15.6617C404.21 15.3171 404.976 15.1289 406.006 15.0972L407.141 15.0616V14.711C407.141 14.2912 407.042 13.9783 406.844 13.7723C406.65 13.5623 406.347 13.4574 405.935 13.4574C405.598 13.4574 405.275 13.5069 404.966 13.6059C404.657 13.7049 404.36 13.8218 404.075 13.9565L403.623 12.9583C403.98 12.7721 404.37 12.6315 404.794 12.5364C405.218 12.4374 405.618 12.3879 405.994 12.3879C406.83 12.3879 407.46 12.5701 407.883 12.9345C408.311 13.2989 408.525 13.8713 408.525 14.6516V19.0781H407.527ZM405.447 18.1275C405.954 18.1275 406.36 17.9868 406.665 17.7056C406.974 17.4204 407.129 17.0223 407.129 16.5113V15.941L406.285 15.9766C405.628 16.0004 405.148 16.1113 404.847 16.3093C404.55 16.5034 404.402 16.8025 404.402 17.2065C404.402 17.4996 404.489 17.7274 404.663 17.8898C404.837 18.0482 405.099 18.1275 405.447 18.1275Z" fill="#CACACA"/>
<path d="M411.87 19.0781H410.474V12.5067H411.87V19.0781ZM410.391 10.7658C410.391 10.5163 410.458 10.3242 410.593 10.1895C410.731 10.0548 410.927 9.98749 411.181 9.98749C411.427 9.98749 411.617 10.0548 411.751 10.1895C411.89 10.3242 411.959 10.5163 411.959 10.7658C411.959 11.0035 411.89 11.1916 411.751 11.3303C411.617 11.465 411.427 11.5323 411.181 11.5323C410.927 11.5323 410.731 11.465 410.593 11.3303C410.458 11.1916 410.391 11.0035 410.391 10.7658Z" fill="#CACACA"/>
<path d="M416.089 19.1969C415.269 19.1969 414.629 18.8999 414.17 18.3057C413.71 17.7115 413.48 16.8777 413.48 15.8043C413.48 14.7269 413.712 13.8891 414.176 13.291C414.643 12.6889 415.289 12.3879 416.112 12.3879C416.976 12.3879 417.634 12.7068 418.085 13.3445H418.156C418.089 12.8731 418.055 12.5008 418.055 12.2275V9.83301H419.458V19.0781H418.364L418.121 18.2166H418.055C417.608 18.8702 416.952 19.1969 416.089 19.1969ZM416.463 18.068C417.037 18.068 417.455 17.9076 417.717 17.5868C417.978 17.262 418.113 16.7371 418.121 16.0123V15.8162C418.121 14.9883 417.986 14.4001 417.717 14.0515C417.447 13.703 417.026 13.5287 416.451 13.5287C415.96 13.5287 415.582 13.7287 415.316 14.1288C415.051 14.5249 414.918 15.0913 414.918 15.8281C414.918 16.5569 415.047 17.1134 415.304 17.4976C415.562 17.8779 415.948 18.068 416.463 18.068Z" fill="#CACACA"/>
</g>
<defs>
<clipPath id="clip0_127_17907">
<rect width="419.403" height="31.6377" fill="white" transform="translate(0.241699)"/>
</clipPath>
</defs>
</svg>
