<svg width="264" height="78" viewBox="0 0 264 78" fill="none" xmlns="http://www.w3.org/2000/svg">
<path d="M221.335 49.7376V44.464H209.057V49.7376H205.28V40.9042H207.074C209.573 36.3814 210.954 31.1219 211.215 25.1253H222.415V40.9042H225.168V49.7376H221.335ZM218.043 40.9042V28.7522H214.75C214.651 30.5423 214.31 32.5555 213.726 34.7955C213.14 37.0334 212.418 39.0699 211.552 40.9042H218.043ZM236.745 28.5473C235.215 28.5473 234 29.1216 233.101 30.266C232.201 31.4132 231.752 32.9313 231.752 34.8187C231.752 36.735 232.201 38.2495 233.101 39.3648C234 40.4789 235.179 41.036 236.637 41.036C238.139 41.036 239.33 40.4955 240.212 39.4104C241.094 38.3279 241.535 36.8229 241.535 34.8989C241.535 32.8947 241.106 31.3345 240.253 30.2203C239.399 29.1051 238.229 28.5473 236.745 28.5473ZM253.692 28.4671V34.4957H255.404C257.725 34.4957 258.886 33.4799 258.886 31.4477C258.886 29.4611 257.725 28.4671 255.404 28.4671H253.692ZM253.692 37.7986V44.4623H249.334V25.1214H256.161C261.037 25.1214 263.474 27.1768 263.474 31.2842C263.474 33.2286 262.774 34.799 261.376 35.9983C259.977 37.1996 258.108 37.7986 255.769 37.7986H253.692ZM85.7736 36.0869V41.2786H88.323C90.3653 41.2786 91.3869 40.3893 91.3869 38.6084C91.3869 36.9283 90.4096 36.0869 88.4577 36.0869H85.7736ZM81.4158 44.4619V25.1221H93.8687V28.6967H85.7736V32.9165H89.5112C91.5803 32.9165 93.1792 33.3945 94.3072 34.3534C95.4363 35.3118 96.0018 36.6359 96.0018 38.3244C96.0018 40.267 95.4008 41.7752 94.1986 42.849C92.9984 43.9245 91.2961 44.4619 89.0924 44.4619H81.4158ZM110.762 44.4619H99.1577V25.1211H110.317V28.6689H103.517V32.9713H109.843V36.5055H103.517V40.9281H110.762V44.4619ZM130.353 44.4619H125.995V28.7501H122.123C121.079 36.1575 120.103 40.6747 119.194 42.2964C118.286 43.9199 116.905 44.7315 115.053 44.7315C114.269 44.7315 113.487 44.6053 112.703 44.3537V40.8747C113.226 41.0547 113.677 41.1443 114.055 41.1443C114.423 41.1443 114.75 41.0276 115.031 40.7935C115.315 40.5598 115.627 39.9394 115.97 38.9331C116.311 37.9261 116.724 36.1874 117.205 33.7193C117.686 31.2508 118.147 28.3849 118.588 25.1211H130.353V44.4619ZM144.67 36.8151L142.591 30.3149C142.439 29.8295 142.331 29.2478 142.269 28.5751H142.159C142.115 29.1402 142.003 29.7036 141.822 30.2604L139.718 36.8151H144.67ZM151.794 44.4619H147.044L145.668 40.1595H138.787L137.424 44.4619H132.703L139.745 25.1211H144.912L151.794 44.4619ZM158.568 36.154V41.2505H160.929C161.936 41.2505 162.725 41.0188 163.296 40.551C163.866 40.0828 164.152 39.4445 164.152 38.6354C164.152 37.8622 163.872 37.2562 163.31 36.8151C162.748 36.3758 161.963 36.154 160.956 36.154H158.568ZM158.568 28.3325V32.9165H160.484C161.383 32.9165 162.091 32.6986 162.608 32.2628C163.126 31.8262 163.385 31.228 163.385 30.4625C163.385 29.0428 162.323 28.3325 160.199 28.3325H158.568ZM154.21 44.4619V25.1211H161.252C163.411 25.1211 165.071 25.5175 166.232 26.3084C167.392 27.1002 167.971 28.2155 167.971 29.6537C167.971 30.6966 167.618 31.6087 166.913 32.3904C166.207 33.1731 165.304 33.7175 164.207 34.0219V34.0771C165.583 34.2472 166.684 34.7561 167.507 35.6015C168.329 36.4468 168.74 37.4759 168.74 38.6896C168.74 40.4603 168.106 41.8655 166.838 42.9042C165.571 43.9424 163.838 44.4619 161.644 44.4619H154.21ZM184.514 28.6685H178.995V44.4619H174.622V28.6685H169.132V25.1221H184.514V28.6685ZM194.485 28.5473C192.955 28.5473 191.74 29.1216 190.841 30.266C189.941 31.4132 189.492 32.9313 189.492 34.8187C189.492 36.735 189.941 38.2495 190.841 39.3648C191.74 40.4789 192.919 41.036 194.376 41.036C195.878 41.036 197.07 40.4955 197.953 39.4104C198.834 38.3279 199.275 36.8229 199.275 34.8989C199.275 32.8947 198.846 31.3345 197.993 30.2203C197.139 29.1051 195.969 28.5473 194.485 28.5473ZM194.295 44.799C191.526 44.799 189.267 43.8974 187.523 42.095C185.776 40.2916 184.904 37.943 184.904 35.0475C184.904 31.9911 185.79 29.5184 187.563 27.6296C189.334 25.7421 191.682 24.797 194.605 24.797C197.368 24.797 199.6 25.7017 201.305 27.5086C203.009 29.3166 203.862 31.6983 203.862 34.6574C203.862 37.6966 202.979 40.1461 201.209 42.0068C199.444 43.869 197.139 44.799 194.295 44.799ZM236.555 44.799C233.786 44.799 231.527 43.8974 229.783 42.095C228.037 40.2916 227.164 37.943 227.164 35.0475C227.164 31.9911 228.051 29.5184 229.824 27.6296C231.595 25.7421 233.942 24.797 236.866 24.797C239.628 24.797 241.86 25.7017 243.565 27.5086C245.269 29.3166 246.122 31.6983 246.122 34.6574C246.122 37.6966 245.239 40.1461 243.47 42.0068C241.704 43.869 239.399 44.799 236.555 44.799Z" fill="#312F2D"/>
<path fill-rule="evenodd" clip-rule="evenodd" d="M0 60.982V78L62.0615 0L0 60.982ZM8.48153 10.8207H25.4654L21.1131 15.1713H12.8338V23.4465L8.48153 27.7971C8.48153 22.1383 8.48153 16.4798 8.48153 10.8207ZM42.7136 58.7758H25.7298L30.082 54.4252H38.3614V46.1496L42.7136 41.7994C42.7136 47.4578 42.7136 53.117 42.7136 58.7758ZM2.16117 43.3613L42.7396 12.9953L2.16117 50.8478V43.3613Z" fill="#F7B802"/>
</svg>
