<svg width="20" height="17" viewBox="0 0 20 17"  xmlns="http://www.w3.org/2000/svg">
<path fill="#fff" style="fill: var(--color1, #fff)" d="M34.265 3.757c-3.889-3.701-10.22-3.701-14.111-0.001l-0.809 0.768-0.808-0.768c-3.891-3.701-10.221-3.7-14.112 0-1.91 1.817-2.963 4.227-2.963 6.786s1.052 4.969 2.963 6.787l14.056 13.344c0.242 0.23 0.553 0.345 0.864 0.345s0.622-0.115 0.864-0.345l14.056-13.344c1.91-1.817 2.963-4.228 2.963-6.787s-1.052-4.969-2.963-6.786zM32.536 15.51l-13.19 12.523-13.19-12.523c-1.408-1.339-2.183-3.103-2.183-4.968s0.775-3.629 2.183-4.968c1.468-1.397 3.397-2.095 5.325-2.095s3.858 0.699 5.327 2.096l1.673 1.589c0.484 0.461 1.244 0.461 1.729 0l1.674-1.59c2.937-2.794 7.715-2.794 10.652 0 1.407 1.339 2.183 3.103 2.183 4.968s-0.776 3.629-2.182 4.967z"></path>
</svg>