<svg   xmlns="http://www.w3.org/2000/svg">
<path fill="#4f4f4f"  d="M18.268 16c0 1.691-1.314 3.063-2.935 3.063s-2.935-1.371-2.935-3.063c0-1.691 1.314-3.063 2.935-3.063s2.935 1.371 2.935 3.063z"></path>
<path fill="#4f4f4f"  d="M22.197 10.582c-0.141-0.399-0.366-0.76-0.659-1.056-0.284-0.305-0.63-0.54-1.012-0.687-0.31-0.126-0.776-0.275-1.635-0.316-0.929-0.044-1.207-0.054-3.558-0.054s-2.63 0.009-3.558 0.053c-0.858 0.041-1.325 0.191-1.635 0.316-0.383 0.147-0.729 0.382-1.012 0.687-0.292 0.296-0.518 0.657-0.659 1.056-0.12 0.324-0.264 0.81-0.303 1.706-0.042 0.969-0.051 1.259-0.051 3.713s0.009 2.744 0.051 3.713c0.039 0.896 0.182 1.382 0.303 1.706 0.141 0.399 0.366 0.76 0.659 1.056 0.284 0.305 0.63 0.54 1.012 0.687 0.31 0.126 0.777 0.276 1.635 0.316 0.928 0.044 1.207 0.053 3.558 0.053s2.63-0.009 3.558-0.053c0.858-0.041 1.325-0.191 1.635-0.316 0.768-0.309 1.375-0.942 1.671-1.744 0.121-0.324 0.264-0.81 0.303-1.706 0.042-0.969 0.051-1.26 0.051-3.713s-0.009-2.744-0.051-3.713c-0.039-0.896-0.183-1.382-0.303-1.706zM15.333 20.718c-2.497 0-4.521-2.112-4.521-4.718s2.024-4.718 4.521-4.718c2.497 0 4.521 2.112 4.521 4.718s-2.024 4.718-4.521 4.718zM20.033 12.198c-0.583 0-1.057-0.494-1.057-1.103s0.473-1.103 1.057-1.103c0.583 0 1.057 0.494 1.057 1.103s-0.473 1.103-1.057 1.103z"></path>
<path fill="#4f4f4f"  d="M15.333 0c-8.467 0-15.333 7.165-15.333 16s6.866 16 15.333 16c8.467 0 15.333-7.165 15.333-16s-6.866-16-15.333-16zM24.085 19.788c-0.043 0.978-0.192 1.646-0.409 2.23-0.457 1.234-1.392 2.21-2.575 2.687-0.56 0.227-1.2 0.382-2.137 0.427-0.939 0.045-1.239 0.055-3.63 0.055s-2.691-0.011-3.63-0.055c-0.937-0.045-1.577-0.2-2.137-0.427-0.588-0.231-1.12-0.592-1.56-1.060-0.448-0.459-0.794-1.014-1.015-1.627-0.218-0.584-0.367-1.252-0.409-2.23-0.043-0.98-0.053-1.293-0.053-3.788s0.010-2.808 0.053-3.788c0.043-0.978 0.191-1.646 0.409-2.23 0.221-0.613 0.568-1.168 1.016-1.627 0.44-0.468 0.972-0.829 1.559-1.060 0.56-0.227 1.2-0.382 2.137-0.427 0.939-0.045 1.239-0.055 3.63-0.055s2.691 0.011 3.63 0.056c0.937 0.044 1.577 0.2 2.137 0.427 0.587 0.231 1.12 0.593 1.56 1.060 0.448 0.459 0.795 1.014 1.015 1.627 0.218 0.584 0.367 1.252 0.409 2.23 0.043 0.98 0.053 1.293 0.053 3.788s-0.010 2.808-0.053 3.788z"></path>
</svg>

