<svg width="15" height="15" viewBox="0 0 15 15"  xmlns="http://www.w3.org/2000/svg">
<g clip-path="url(#clip0)">
<path d="M12.065 11.0911C11.1663 11.0911 10.4346 11.774 10.4346 12.6128C10.4346 13.4516 11.1663 14.1346 12.065 14.1346C12.9637 14.1346 13.6954 13.4516 13.6954 12.6128C13.6954 11.774 12.9637 11.0911 12.065 11.0911ZM12.065 13.5258C11.5256 13.5258 11.0867 13.1162 11.0867 12.6128C11.0867 12.1094 11.5256 11.6998 12.065 11.6998C12.6044 11.6998 13.0433 12.1094 13.0433 12.6128C13.0433 13.1162 12.6043 13.5258 12.065 13.5258Z" fill="#4D4D4D"/>
<path d="M5.54351 11.0911C4.64483 11.0911 3.91309 11.774 3.91309 12.6128C3.91309 13.4516 4.64483 14.1346 5.54351 14.1346C6.4422 14.1346 7.17394 13.4516 7.17394 12.6128C7.17394 11.7741 6.44223 11.0911 5.54351 11.0911ZM5.54351 13.5258C5.00415 13.5258 4.56525 13.1162 4.56525 12.6128C4.56525 12.1094 5.00415 11.6998 5.54351 11.6998C6.08287 11.6998 6.52177 12.1094 6.52177 12.6128C6.52177 13.1162 6.08287 13.5258 5.54351 13.5258Z" fill="#4D4D4D"/>
<path d="M13.3696 9.87385H5.84282C5.06868 9.87385 4.39631 9.3595 4.24434 8.65037L2.60218 0.988104C2.57152 0.845669 2.43783 0.743408 2.28262 0.743408H0.326098C0.146097 0.743408 0 0.879766 0 1.04777C0 1.21577 0.146097 1.35212 0.326098 1.35212H2.01522L3.60456 8.7703C3.81718 9.76246 4.75891 10.4826 5.84282 10.4826H13.3696C13.5496 10.4826 13.6957 10.3462 13.6957 10.1782C13.6957 10.0102 13.5496 9.87385 13.3696 9.87385Z" fill="#4D4D4D"/>
<path d="M14.9187 2.6722C14.8567 2.60706 14.768 2.56934 14.6741 2.56934H2.93498C2.75498 2.56934 2.60889 2.70569 2.60889 2.87369C2.60889 3.04169 2.75498 3.17802 2.93498 3.17802H14.305L13.8413 6.63906C13.78 7.09498 13.3626 7.43889 12.8702 7.43889H3.91325C3.73325 7.43889 3.58715 7.57525 3.58715 7.74325C3.58715 7.91125 3.73325 8.0476 3.91325 8.0476H12.8702C13.6906 8.0476 14.3865 7.47481 14.4883 6.71456L14.9976 2.91141C15.0093 2.82496 14.9807 2.73731 14.9187 2.6722Z" fill="#4D4D4D"/>
</g>
<defs>
<clipPath id="clip0">
<rect width="15" height="14" fill="white" transform="translate(0 0.438965)"/>
</clipPath>
</defs>
</svg>
