<svg width="12" height="13" viewBox="0 0 12 13" xmlns="http://www.w3.org/2000/svg">
<path d="M11.9269 12.0128L8.27591 8.36188C9.0339 7.51989 9.4999 6.40991 9.4999 5.1899C9.4999 2.57093 7.36891 0.439941 4.74994 0.439941C2.13096 0.439941 0 2.57093 0 5.1899C0 7.80888 2.13099 9.93986 4.74996 9.93986C5.96994 9.93986 7.07993 9.47386 7.92194 8.71538L11.5729 12.3663C11.6219 12.4154 11.6859 12.4398 11.7499 12.4398C11.8139 12.4398 11.8779 12.4154 11.9269 12.3668C12.0244 12.2688 12.0244 12.1108 11.9269 12.0128ZM4.74996 9.43988C2.40649 9.43988 0.500011 7.53339 0.500011 5.18993C0.500011 2.84646 2.40647 0.939952 4.74996 0.939952C7.09345 0.939952 8.99991 2.84643 8.99991 5.1899C8.99991 7.53337 7.09343 9.43988 4.74996 9.43988Z" fill="#7C7C7C"/>
</svg>
