<svg width="55" height="55" viewBox="0 0 55 55" fill="none" xmlns="http://www.w3.org/2000/svg">
<g clip-path="url(#clip0)">
<path d="M52.4761 8.41875L42.9046 4.43114C41.8547 3.99383 40.6505 3.99394 39.6007 4.43125L35.0051 6.3454C34.5944 6.51663 34.4 6.98821 34.5712 7.39899C34.7423 7.80978 35.2139 8.00421 35.6248 7.83298L40.2203 5.91872C40.8761 5.64544 41.6288 5.64533 42.2851 5.91861L51.8561 9.90601C52.787 10.2943 53.3887 11.1676 53.3887 12.1304V46.586C53.3887 47.9258 52.2379 49.0158 50.8235 49.0158H49.5172C49.0722 49.0158 48.7115 49.3765 48.7115 49.8215C48.7115 50.2666 49.0722 50.6272 49.5172 50.6272H50.8235C53.1264 50.6272 55 48.8143 55 46.586V12.1304C55 10.5152 54.0094 9.05834 52.4761 8.41875Z" fill="#00FFB7"/>
<path d="M46.0056 49.016H32.4683C33.0257 48.3824 33.3309 47.5785 33.3309 46.7279C33.3309 45.8789 33.0235 45.1009 32.515 44.4976C32.8356 44.334 33.1326 44.1199 33.3947 43.8579C34.0491 43.2034 34.4094 42.3331 34.4094 41.4073C34.4094 40.5247 34.0772 39.7186 33.5321 39.1061C33.802 38.9532 34.0534 38.7637 34.2785 38.5383C34.9329 37.884 35.2934 37.0138 35.2934 36.0877C35.2934 35.2077 34.9632 34.4037 34.4212 33.7917C34.6957 33.6377 34.9513 33.4458 35.1806 33.2171C35.8345 32.5616 36.1946 31.6916 36.1946 30.767C36.1946 28.8556 34.64 27.3005 32.7291 27.3005H29.1165V12.1304C29.1165 11.1675 29.7182 10.2942 30.6486 9.90612L32.114 9.29597C32.5248 9.12495 32.7191 8.65337 32.5481 8.24248C32.377 7.8317 31.9054 7.63705 31.4946 7.80839L30.0287 8.41876C28.4957 9.05824 27.5052 10.5152 27.5052 12.1304V27.3006H24.1389C25.2598 23.7583 25.1644 20.0614 23.8563 15.7706C23.6575 15.1208 23.2622 14.5643 22.7127 14.1611C22.1665 13.7604 21.5192 13.5485 20.8406 13.5485C19.9664 13.5485 19.1535 13.8976 18.5515 14.5315C17.9499 15.1653 17.6435 15.995 17.6888 16.8677C17.9407 21.7121 15.7062 23.3795 12.6134 25.6875C11.5951 26.4473 10.4822 27.2783 9.38846 28.2974V27.2414C9.38846 26.7964 9.02784 26.4358 8.58279 26.4358H0.805664C0.360615 26.4358 0 26.7964 0 27.2414V50.0911C0 50.5362 0.360615 50.8968 0.805664 50.8968H8.58301C9.02806 50.8968 9.38867 50.5362 9.38867 50.0911V48.0643C10.9189 48.2099 12.0365 48.5148 13.1223 49.347C13.8352 49.8934 14.7139 50.1943 15.5966 50.1943H29.8054C30.3859 50.4772 31.0295 50.6272 31.6818 50.6272H46.0055C46.4505 50.6272 46.8111 50.2666 46.8111 49.8215C46.8111 49.3765 46.4505 49.016 46.0056 49.016ZM14.1026 48.0681C12.5834 46.9039 10.9598 46.5805 9.38867 46.4448V37.0373C9.38867 36.5923 9.02806 36.2317 8.58301 36.2317C8.13796 36.2317 7.77734 36.5923 7.77734 37.0373V49.2856H1.61133V28.0472H7.77734V33.5269C7.77734 33.972 8.13796 34.3326 8.58301 34.3326C9.02806 34.3326 9.38867 33.972 9.38867 33.5269V30.5862C10.7364 29.099 12.1795 28.0221 13.5773 26.979C16.672 24.6698 19.5949 22.4884 19.2983 16.7841C19.2761 16.3571 19.426 15.9512 19.7205 15.6411C20.0151 15.3307 20.4129 15.1599 20.8409 15.1599C21.1742 15.1599 21.4919 15.2638 21.7597 15.4604C22.0271 15.6565 22.2192 15.9268 22.3155 16.2414C23.6479 20.6119 23.627 24.2889 22.2499 27.8133C22.153 28.0613 22.1849 28.341 22.3349 28.5609C22.485 28.7808 22.734 28.9123 23.0002 28.9123H32.7293C33.7517 28.9123 34.5835 29.7445 34.5835 30.7675C34.5835 31.2621 34.3905 31.728 34.0412 32.0781C33.69 32.4285 33.2242 32.6216 32.7293 32.6216H29.4196C28.9746 32.6216 28.614 32.9822 28.614 33.4272C28.614 33.8723 28.9746 34.2329 29.4196 34.2329H31.828C32.8504 34.2329 33.6821 35.0651 33.6821 36.0882C33.6821 36.5837 33.4894 37.0494 33.1392 37.3995C32.7892 37.7496 32.3236 37.9423 31.828 37.9423H29.4196C28.9746 37.9423 28.614 38.3029 28.614 38.7479C28.614 39.193 28.9746 39.5536 29.4196 39.5536H30.9438C31.9663 39.5536 32.798 40.3854 32.798 41.4077C32.798 41.9031 32.6052 42.3689 32.2552 42.719C31.9044 43.0698 31.4386 43.2629 30.9438 43.2629H29.8653H28.5354C28.0904 43.2629 27.7298 43.6235 27.7298 44.0685C27.7298 44.5136 28.0904 44.8742 28.5354 44.8742H29.8653C30.8878 44.8742 31.7195 45.706 31.7195 46.7283C31.7195 47.2237 31.5265 47.6899 31.1774 48.0399C30.8502 48.3664 30.3333 48.5747 29.9464 48.5815C29.9197 48.582 15.5966 48.5835 15.5966 48.5835C15.0663 48.5829 14.5357 48.4001 14.1026 48.0681Z" fill="#00FFB7"/>
<path d="M44.1603 12.4883C44.1603 10.7953 42.7829 9.41797 41.09 9.41797C39.397 9.41797 38.0196 10.7953 38.0196 12.4883C38.0196 14.1813 39.397 15.5586 41.09 15.5586C42.7829 15.5586 44.1603 14.1813 44.1603 12.4883ZM39.631 12.4883C39.631 11.6838 40.2855 11.0293 41.09 11.0293C41.8944 11.0293 42.549 11.6838 42.549 12.4883C42.549 13.2928 41.8944 13.9473 41.09 13.9473C40.2855 13.9473 39.631 13.2929 39.631 12.4883Z" fill="#00FFB7"/>
<path d="M41.5933 39.9787H40.1484C39.3873 39.9787 38.7681 39.3594 38.7681 38.5983C38.7681 38.1532 38.4075 37.7926 37.9624 37.7926C37.5174 37.7926 37.1568 38.1532 37.1568 38.5983C37.1568 40.22 38.454 41.5435 40.0651 41.5878V43.3708C40.0651 43.8159 40.4257 44.1765 40.8708 44.1765C41.3158 44.1765 41.6765 43.8159 41.6765 43.3708V41.5878C43.2877 41.5435 44.5849 40.22 44.5849 38.5983V37.4829C44.5849 36.4481 43.9237 35.5382 42.9395 35.2183L39.3001 34.0361C38.9819 33.9326 38.7681 33.6385 38.7681 33.304V31.707C38.7681 31.0888 39.271 30.5859 39.8891 30.5859H41.8527C42.4708 30.5859 42.9737 31.0888 42.9737 31.707C42.9737 32.152 43.3343 32.5126 43.7793 32.5126C44.2244 32.5126 44.585 32.152 44.585 31.707C44.585 30.2004 43.3593 28.9746 41.8527 28.9746H41.6765V27.1937C41.6765 26.7487 41.3158 26.3881 40.8708 26.3881C40.4257 26.3881 40.0651 26.7487 40.0651 27.1937V28.9746H39.889C38.3825 28.9746 37.1567 30.2003 37.1567 31.707V33.304C37.1567 34.3388 37.8179 35.2488 38.8021 35.5686L42.4414 36.7507C42.7597 36.8542 42.9735 37.1484 42.9735 37.4829V38.5983C42.9737 39.3594 42.3544 39.9787 41.5933 39.9787Z" fill="#00FFB7"/>
</g>
<defs>
<clipPath id="clip0">
<rect width="55" height="55" fill="white"/>
</clipPath>
</defs>
</svg>
