<svg width="24" height="24" viewBox="0 0 24 24" fill="none" xmlns="http://www.w3.org/2000/svg">
<path d="M2.60055 1.07627C2.54651 1.13405 2.45519 1.25472 2.39415 1.33765C1.25966 2.84208 -0.0961406 5.15486 0.00542801 7.38704C0.177815 11.1246 5.22177 16.0921 6.76393 17.5257C8.30656 18.9589 13.6291 23.6268 17.3657 23.5253C17.9887 23.5099 18.6489 23.379 19.3272 23.1358C20.8931 22.5743 22.3067 21.5065 23.2045 20.7205C23.2045 20.7205 23.3979 20.556 23.4724 20.4768C23.6602 20.2741 23.8088 19.9783 23.9267 19.5725C23.9868 19.3651 23.9998 19.1466 23.9998 19.0003C23.9998 18.8373 23.9835 18.5214 23.8764 18.2339C23.7296 17.8407 23.5614 17.5593 23.3601 17.3701C23.2111 17.2317 19.842 14.5923 19.8206 14.5774L19.795 14.5607C19.6124 14.4204 19.4218 14.3109 19.228 14.235C18.7201 14.036 18.1578 14.0281 17.6439 14.2117C17.3173 14.3286 17.0233 14.522 16.7964 14.7671L15.6386 16.0064C15.53 16.1229 15.3283 16.2435 15.257 16.2608C15.182 16.2748 15.1298 16.2785 15.0963 16.2794L7.32582 9.05826C7.30718 9.04055 7.29786 9.02331 7.29274 9.0112C7.29647 9.00002 7.30113 8.99024 7.30346 8.98278C7.33188 8.92501 7.46606 8.74144 7.63379 8.55973L8.77946 7.31948C9.38561 6.66767 9.5361 5.65385 9.15033 4.8632C9.01288 4.58132 8.82465 4.37073 8.73753 4.27149L8.69234 4.21558C8.66997 4.18996 5.83351 1.07721 5.70631 0.960264C5.39089 0.667206 4.89423 0.508795 4.18838 0.47525C3.79608 0.456614 3.30408 0.572159 3.01847 0.749672C2.8349 0.864752 2.69746 0.97191 2.60055 1.07627ZM4.74048 1.97222C4.89936 2.13343 7.48097 4.96104 7.61608 5.1092L7.71113 5.22428C7.7498 5.26761 7.84065 5.36964 7.89376 5.47773C8.03167 5.76101 7.97763 6.13001 7.75399 6.37088L6.60692 7.61254C6.47274 7.75744 6.1466 8.1283 6.01708 8.4372C5.93135 8.64313 5.89081 8.82251 5.89035 9.03077C5.90433 9.42866 6.07299 9.79952 6.37024 10.0795L14.219 17.3734C14.5176 17.6506 14.9518 17.7391 15.51 17.6361C15.9414 17.5565 16.4088 17.2303 16.6603 16.961L17.82 15.7194C17.8973 15.636 17.9998 15.5698 18.1154 15.5279C18.3083 15.4589 18.5282 15.4622 18.7183 15.5367C18.8292 15.5801 18.9214 15.6523 18.9517 15.6761C18.9806 15.6984 19.0039 15.7147 19.0248 15.7278C19.3477 15.978 22.2448 18.2549 22.4018 18.3872C22.4022 18.3881 22.4707 18.465 22.5672 18.7226C22.5807 18.759 22.6021 18.8661 22.6021 18.9999C22.6021 19.0963 22.5914 19.1592 22.5844 19.182C22.5117 19.4318 22.4516 19.5194 22.4516 19.5212C22.4064 19.5664 22.3123 19.6442 22.2965 19.6577C21.4769 20.3748 20.2152 21.3322 18.8553 21.8196C18.3176 22.0124 17.8051 22.1159 17.3299 22.1275C14.7771 22.1969 10.555 19.1396 7.71579 16.5012C4.87606 13.8632 1.51917 9.87547 1.40176 7.32274C1.31604 5.4824 2.51296 3.50181 3.49836 2.19446L3.5361 2.14414C3.558 2.11432 3.5976 2.05841 3.6181 2.03419C3.65304 2.00111 3.70523 1.96896 3.74669 1.94287C3.80866 1.91119 4.00108 1.86646 4.12128 1.87252C4.53408 1.89255 4.7251 1.96663 4.74048 1.97222Z" fill="#00FFB7"/>
</svg>
