<svg width="55" height="55" viewBox="0 0 55 55" fill="none" xmlns="http://www.w3.org/2000/svg">
<g clip-path="url(#clip0)">
<path d="M17.9298 26.6628C20.3084 26.6628 22.2435 24.7276 22.2435 22.3489C22.2435 19.9703 20.3083 18.0351 17.9298 18.0351C15.551 18.0351 13.6159 19.9703 13.6159 22.3489C13.6159 24.7276 15.551 26.6628 17.9298 26.6628ZM17.9298 19.6464C19.4199 19.6464 20.6322 20.8588 20.6322 22.3489C20.6322 23.8391 19.4199 25.0515 17.9298 25.0515C16.4396 25.0515 15.2273 23.8391 15.2273 22.3489C15.2273 20.8588 16.4396 19.6464 17.9298 19.6464Z" fill="#00FFB7"/>
<path d="M27.4275 22.1477C29.7482 22.1477 31.6365 20.2596 31.6365 17.9387C31.6365 15.6179 29.7483 13.7297 27.4275 13.7297C25.1066 13.7297 23.2184 15.6179 23.2184 17.9387C23.2184 20.2596 25.1066 22.1477 27.4275 22.1477ZM27.4275 15.3411C28.8599 15.3411 30.0252 16.5064 30.0252 17.9387C30.0252 19.3711 28.8599 20.5364 27.4275 20.5364C25.9951 20.5364 24.8297 19.3711 24.8297 17.9387C24.8297 16.5064 25.9951 15.3411 27.4275 15.3411Z" fill="#00FFB7"/>
<path d="M19.6615 47.1018C21.9822 47.1018 23.8705 45.2137 23.8705 42.8928C23.8705 40.572 21.9823 38.6838 19.6615 38.6838C17.3406 38.6838 15.4524 40.572 15.4524 42.8928C15.4524 45.2137 17.3406 47.1018 19.6615 47.1018ZM19.6615 40.2953C21.0939 40.2953 22.2592 41.4606 22.2592 42.8929C22.2592 44.3253 21.0939 45.4906 19.6615 45.4906C18.2291 45.4906 17.0637 44.3253 17.0637 42.8929C17.0637 41.4606 18.2291 40.2953 19.6615 40.2953Z" fill="#00FFB7"/>
<path d="M29.5731 50.2824C31.8938 50.2824 33.7821 48.3942 33.7821 46.0734C33.7821 43.7525 31.8939 41.8644 29.5731 41.8644C27.2522 41.8644 25.3639 43.7525 25.3639 46.0734C25.3639 48.3942 27.2521 50.2824 29.5731 50.2824ZM29.5731 43.4757C31.0054 43.4757 32.1707 44.641 32.1707 46.0734C32.1707 47.5057 31.0054 48.6711 29.5731 48.6711C28.1407 48.6711 26.9753 47.5057 26.9753 46.0734C26.9753 44.641 28.1407 43.4757 29.5731 43.4757Z" fill="#00FFB7"/>
<path d="M9.12569 32.9701C9.12569 35.6785 11.3291 37.8819 14.0375 37.8819C16.7459 37.8819 18.9493 35.6785 18.9493 32.9701C18.9493 30.2617 16.7459 28.0583 14.0375 28.0583C11.3291 28.0583 9.12569 30.2617 9.12569 32.9701ZM14.0375 29.6696C15.8573 29.6696 17.338 31.1502 17.338 32.9701C17.338 34.79 15.8574 36.2706 14.0375 36.2706C12.2176 36.2706 10.737 34.79 10.737 32.9701C10.737 31.1502 12.2176 29.6696 14.0375 29.6696Z" fill="#00FFB7"/>
<path d="M4.95669 32.1253C4.95669 44.2788 15.4267 53.5169 27.6442 54.2611C27.6609 54.2621 27.6775 54.2626 27.694 54.2626C28.1166 54.2626 28.4714 53.9333 28.4974 53.5059C28.5244 53.0618 28.1863 52.6799 27.7422 52.6528C15.8688 51.9295 6.568 42.9128 6.568 32.1253C6.568 19.9031 18.2052 10.4723 31.5038 11.677C32.1088 12.3074 32.8532 12.8127 33.6322 13.1826C33.5683 13.477 33.5794 13.7911 33.6568 14.075L35.2513 19.9399C34.8801 20.3737 34.7511 20.9644 34.8992 21.5083L35.2787 22.9046C35.5096 23.755 36.3594 24.299 37.228 24.1484L37.9806 27.4074C35.2592 28.6472 33.7711 30.3074 33.7711 32.1254C33.7711 33.95 35.2919 35.6378 38.0535 36.8776C39.0356 37.3185 39.8854 37.9227 40.5824 38.675C41.4686 42.5653 41.7412 43.7997 42.3907 45.7554C41.7894 48.3784 39.9914 50.3891 37.4293 51.2913C35.4745 51.9797 33.4399 52.4206 31.3823 52.602C30.9391 52.6411 30.6113 53.032 30.6504 53.4752C30.6894 53.9185 31.0818 54.2456 31.5236 54.2071C33.7154 54.0139 35.8825 53.5443 37.9645 52.8111C40.3345 51.9766 42.2058 50.2858 43.2611 48.1056C44.3385 50.749 45.3205 52.3825 46.2335 53.9746C46.695 54.7797 47.6428 55.172 48.5386 54.9285C49.4342 54.685 50.0529 53.8668 50.0435 52.9387C50.0158 50.2399 50.0869 46.1829 48.1907 40.1383C48.0575 39.7137 47.6056 39.4775 47.1808 39.6107C46.7563 39.7439 46.5202 40.1961 46.6533 40.6206C48.4332 46.2941 48.4025 50.0583 48.4323 52.9553C48.4344 53.1504 48.3043 53.3223 48.116 53.3736C47.928 53.4248 47.7285 53.3423 47.6314 53.173C44.2416 47.2616 43.8145 45.5081 42.1056 38.1092C42.1056 38.1092 38.7859 23.7328 38.7859 23.7327L41.1534 23.089L42.3532 26.9136V26.9137L45.5275 37.0319C45.6607 37.4564 46.1125 37.6926 46.5374 37.5594C46.9619 37.4262 47.1981 36.9741 47.0649 36.5496L44.1269 27.1843C48.5658 25.3858 49.8075 19.4241 46.0073 16.1056C44.45 14.7457 42.7043 13.5858 40.8176 12.6484L40.6858 12.1637C40.6053 11.8674 40.4565 11.6018 40.254 11.3825C41.0673 10.1817 41.8788 8.32436 41.2878 6.15081C40.7206 4.06459 39.3259 3.25969 37.8495 2.40763C36.9541 1.89083 36.0281 1.35641 35.1348 0.467287C34.2667 -0.396267 32.8329 -0.00837146 32.5212 1.17777C32.2011 2.39688 31.6731 3.32661 31.1626 4.22572C30.3115 5.72456 29.275 7.46886 30.3728 9.98862C16.6967 9.39985 4.95669 19.3194 4.95669 32.1253ZM39.9871 36.0973C39.5854 35.8398 39.1612 35.6087 38.7135 35.4077C36.5965 34.4571 35.3823 33.2608 35.3823 32.1253C35.3823 31.0445 36.452 29.9341 38.3512 29.0128L39.9871 36.0973ZM44.9472 17.3194C47.7994 19.81 46.8795 24.2523 43.6433 25.6434C42.8111 22.9909 43.0368 23.7101 42.7069 22.6586C43.5496 22.336 43.9844 21.4329 43.7579 20.5991L43.3784 19.2028C43.2296 18.6562 42.8168 18.2135 42.2804 18.0286L41.3983 14.7842C42.6684 15.5186 43.857 16.3674 44.9472 17.3194ZM41.6908 19.5496L41.6911 19.5495C41.7429 19.5355 41.8067 19.5639 41.8233 19.6255L42.2029 21.0217C42.2185 21.0793 42.1844 21.1388 42.1269 21.1544C41.0488 21.4475 37.949 22.2902 36.9661 22.5575C36.9098 22.5732 36.8494 22.5401 36.8334 22.4815L36.4539 21.0853C36.4373 21.0237 36.4795 20.9663 36.5299 20.9526L41.6908 19.5496ZM40.6472 18.1636L36.7279 19.2291L35.2117 13.6521C35.1725 13.5087 35.2624 13.3593 35.401 13.3215L38.8004 12.3972C38.9324 12.361 39.0893 12.4331 39.1309 12.5865C39.6296 14.4207 39.2798 13.1342 40.6472 18.1636ZM32.5638 5.0216C33.0882 4.09821 33.681 3.05419 34.0583 1.669C35.0814 2.6707 36.1232 3.27183 37.0442 3.80345C38.3771 4.57269 39.3401 5.12838 39.733 6.57383C40.2133 8.34004 39.3865 9.88002 38.7016 10.7842C38.5978 10.7935 38.4763 10.8157 38.3775 10.8425L34.9781 11.7668C34.8744 11.7949 34.7556 11.8397 34.6694 11.8804C33.2443 11.2955 32.0554 10.2712 31.6478 8.77209C31.2549 7.32663 31.8039 6.35974 32.5638 5.0216Z" fill="#00FFB7"/>
</g>
<defs>
<clipPath id="clip0">
<rect width="55" height="55" fill="white"/>
</clipPath>
</defs>
</svg>
