<svg xmlns="http://www.w3.org/2000/svg" id="Layer_1" data-name="Layer 1" fill="#fff" viewBox="0 0 128 128" width="512" height="512" >
<title>ANALYTICS RESEARCH</title>
<path d="M85.466,88.137A42.371,42.371,0,0,0,20.059,34.3,42.369,42.369,0,0,0,79.033,94.743a1.25,1.25,0,0,0-1.594-1.927,39.869,39.869,0,0,1-55.5-56.873A39.564,39.564,0,0,1,50.686,22.216,39.868,39.868,0,0,1,82.825,87.431a1.249,1.249,0,0,0,.079,1.68l21.76,21.76a2.681,2.681,0,0,1,0,3.785,2.74,2.74,0,0,1-3.784,0L83.736,97.513a1.25,1.25,0,0,0-1.767,1.768l17.143,17.143a5.176,5.176,0,0,0,7.319-7.32Z" fill="#00FFB7"/>
<path d="M27.524,39.572a1.249,1.249,0,0,0-1.762.139,34.5,34.5,0,1,0,8.773-7.391,1.25,1.25,0,0,0,1.271,2.152,32.036,32.036,0,1,1-8.144,6.862A1.25,1.25,0,0,0,27.524,39.572Z" fill="#00FFB7"/>
<path d="M30.552,35.07q-.3.238-.593.485a1.25,1.25,0,1,0,1.6,1.917q.271-.226.546-.446a1.25,1.25,0,0,0-1.557-1.956Z" fill="#00FFB7"/>
<path d="M36.753,56.522H33.606a3.293,3.293,0,0,0-3.289,3.289v4.5A3.293,3.293,0,0,0,33.606,67.6h3.146a1.25,1.25,0,0,0,0-2.5H33.606a.79.79,0,0,1-.789-.789v-4.5a.789.789,0,0,1,.789-.789h3.146a3.313,3.313,0,0,0,2.336-5.64l-2.225-2.225a.79.79,0,0,1,0-1.116l3.185-3.185a.807.807,0,0,1,1.115,0l2.226,2.224a3.313,3.313,0,0,0,5.639-2.336V43.6a.79.79,0,0,1,.789-.789h4.5a.79.79,0,0,1,.789.789v3.146a3.314,3.314,0,0,0,5.64,2.336l2.225-2.225a.808.808,0,0,1,1.115,0l3.185,3.186a.787.787,0,0,1,0,1.115l-2.225,2.225a1.25,1.25,0,0,0,1.768,1.768l2.225-2.224a3.288,3.288,0,0,0,0-4.651l-3.185-3.185a3.367,3.367,0,0,0-4.65,0l-2.225,2.225a.794.794,0,0,1-.886.153.781.781,0,0,1-.486-.721V43.6a3.293,3.293,0,0,0-3.289-3.289h-4.5A3.293,3.293,0,0,0,46.529,43.6v3.146a.793.793,0,0,1-.513.733.783.783,0,0,1-.858-.165l-2.226-2.224a3.367,3.367,0,0,0-4.65,0L35.1,48.274a3.293,3.293,0,0,0,0,4.651l2.225,2.225a.793.793,0,0,1,.153.886A.784.784,0,0,1,36.753,56.522Z" fill="#00FFB7"/>
<path d="M67.389,67.6h3.146a3.293,3.293,0,0,0,3.289-3.289v-4.5a3.293,3.293,0,0,0-3.289-3.289H67.389a1.25,1.25,0,0,0,0,2.5h3.146a.789.789,0,0,1,.789.789v4.5a.79.79,0,0,1-.789.789H67.389a3.314,3.314,0,0,0-2.336,5.639l2.225,2.226a.787.787,0,0,1,0,1.115L64.092,77.27a.789.789,0,0,1-1.115,0l-2.225-2.225a3.314,3.314,0,0,0-5.64,2.336v3.147a.789.789,0,0,1-.789.788h-4.5a.789.789,0,0,1-.789-.788V77.38a3.313,3.313,0,0,0-5.639-2.336L41.165,77.27a.789.789,0,0,1-1.115,0l-3.185-3.185a.79.79,0,0,1,0-1.116l2.225-2.225a1.25,1.25,0,1,0-1.768-1.768L35.1,71.2a3.293,3.293,0,0,0,0,4.651l3.185,3.185a3.292,3.292,0,0,0,4.65,0l2.226-2.225a.792.792,0,0,1,.886-.152.781.781,0,0,1,.485.721v3.147a3.293,3.293,0,0,0,3.289,3.288h4.5a3.293,3.293,0,0,0,3.289-3.288V77.38a.794.794,0,0,1,.513-.732.782.782,0,0,1,.859.164l2.225,2.225a3.292,3.292,0,0,0,4.65,0l3.185-3.185a3.288,3.288,0,0,0,0-4.651L66.82,68.976a.8.8,0,0,1-.153-.885A.784.784,0,0,1,67.389,67.6Z" fill="#00FFB7" />
<path d="M52.071,70.783a8.72,8.72,0,1,0-8.721-8.72A8.73,8.73,0,0,0,52.071,70.783Zm0-14.94a6.22,6.22,0,1,1-6.221,6.22A6.227,6.227,0,0,1,52.071,55.842Z" fill="#00FFB7"/>
<path d="M114.582,29.424h-3.758a1.188,1.188,0,0,1-1.1-.762,1.175,1.175,0,0,1,.247-1.291l2.658-2.658a3.686,3.686,0,0,0,0-5.211l-3.8-3.805a3.689,3.689,0,0,0-5.212,0l-2.657,2.657a1.188,1.188,0,0,1-1.324.235A1.175,1.175,0,0,1,98.9,17.5V13.746a3.69,3.69,0,0,0-3.685-3.685H89.837a3.69,3.69,0,0,0-3.685,3.685V17.5a1.215,1.215,0,0,1-2.053.851L81.441,15.7a3.689,3.689,0,0,0-5.212,0l-3.8,3.805a1.25,1.25,0,0,0,1.768,1.768L78,17.464a1.188,1.188,0,0,1,1.677,0l2.657,2.658a3.715,3.715,0,0,0,6.32-2.618V13.746a1.187,1.187,0,0,1,1.185-1.185h5.381A1.187,1.187,0,0,1,96.4,13.746V17.5a3.715,3.715,0,0,0,6.321,2.618l2.657-2.658a1.188,1.188,0,0,1,1.677,0l3.8,3.806a1.185,1.185,0,0,1,0,1.675L108.205,25.6a3.715,3.715,0,0,0,2.619,6.321h3.758a1.187,1.187,0,0,1,1.186,1.185V38.49a1.187,1.187,0,0,1-1.186,1.186h-3.758a3.632,3.632,0,0,0-3.357,2.19c-.013.025-.037.08-.048.106A3.668,3.668,0,0,0,108.205,46l2.658,2.658a1.186,1.186,0,0,1,0,1.676l-3.8,3.8a1.188,1.188,0,0,1-1.677,0l-2.657-2.658A3.715,3.715,0,0,0,96.4,54.1v3.758a1.25,1.25,0,1,0,2.5,0V54.1a1.188,1.188,0,0,1,.763-1.1,1.175,1.175,0,0,1,1.291.248l2.657,2.657a3.689,3.689,0,0,0,5.212,0l3.8-3.8a3.686,3.686,0,0,0,0-5.211l-2.658-2.658a1.189,1.189,0,0,1-.233-1.324,1.175,1.175,0,0,1,1.085-.729h3.758a3.69,3.69,0,0,0,3.686-3.686V33.109A3.69,3.69,0,0,0,114.582,29.424Z" fill="#00FFB7"/>
<path d="M93.881,43.354a1.25,1.25,0,1,0,.437,2.461,10.173,10.173,0,1,0-10.38-15.467,1.25,1.25,0,0,0,2.109,1.342,7.673,7.673,0,1,1,7.833,11.665Z" fill="#00FFB7"/></svg>
