<svg width="25" height="25" fill="none" xmlns="http://www.w3.org/2000/svg"><path d="M25 12.5c0-.785-.074-1.571-.22-2.335a.733.733 0 00-.72-.595H12.55a.732.732 0 00-.733.733v4.394c0 .405.328.733.733.733h5.906a6.56 6.56 0 01-1.47 1.935l4.14 4.14C23.505 19.235 25 16.042 25 12.5zM12.5 5.86c1.438 0 2.805.456 3.953 1.32.29.218.7.191.958-.068l3.126-3.126a.731.731 0 00-.047-1.08A12.458 12.458 0 0012.5 0C8.212 0 4.423 2.18 2.183 5.49l4.299 4.3c1.026-2.31 3.333-3.93 6.02-3.93zm0 19.14c2.797 0 5.372-.938 7.452-2.5l-4.217-4.217a6.574 6.574 0 01-3.234.858c-2.687 0-4.994-1.62-6.02-3.931l-4.3 4.3c2.24 3.31 6.03 5.49 10.32 5.49zM5.966 13.555a6.542 6.542 0 01-.107-1.055c0-.361.05-.71.107-1.055L1.37 6.849A12.36 12.36 0 000 12.5c0 2.035.5 3.953 1.37 5.65l4.596-4.595z" fill="#000"/></svg>