<svg width="47" height="47" fill="none" xmlns="http://www.w3.org/2000/svg"><g clip-path="url(#clip0)" fill="#000"><path d="M40.088 31.434l-.065-.066a.899.899 0 00-1.273 1.268l.054.054a.896.896 0 001.27.014.899.899 0 00.014-1.27z"/><path d="M45.72 44.296h-2.515v-5.221a10.97 10.97 0 00-1.176-4.932.898.898 0 00-1.603.812 9.163 9.163 0 01.982 4.12v5.22H5.83V39.07c0-4.255 3.016-8.005 7.172-8.916l3.072-.674a5.177 5.177 0 001.62-.66 8.998 8.998 0 005.925 2.204 8.998 8.998 0 005.907-2.188c.483.296 1.02.517 1.594.642l3.11.68a9.137 9.137 0 012.202.787.898.898 0 10.817-1.6 10.936 10.936 0 00-2.635-.942l-3.11-.68a3.469 3.469 0 01-2.712-3.369v-.347a7.897 7.897 0 003.88-5.533h.422a2.567 2.567 0 002.564-2.564v-1.7a2.567 2.567 0 00-2.564-2.564h-.31V7.97c0-4.343-3.534-7.876-7.877-7.876H22.33c-4.343 0-7.876 3.533-7.876 7.876v3.676h-.31a2.567 2.567 0 00-2.565 2.564v1.7a2.567 2.567 0 002.564 2.564h.422a7.897 7.897 0 003.833 5.506v.376a3.47 3.47 0 01-2.71 3.369l-3.072.674a10.962 10.962 0 00-6.171 3.823 10.961 10.961 0 00-2.413 6.848v5.227H1.518a.899.899 0 000 1.797H45.72a.899.899 0 000-1.797zM32.784 13.442h.311c.423 0 .767.344.767.767v1.7a.768.768 0 01-.767.767h-.31v-3.234zm-18.328 3.234h-.31a.768.768 0 01-.768-.767v-1.7c0-.423.344-.767.767-.767h.311v3.234zm9.164 12.55a7.213 7.213 0 01-4.568-1.615 5.249 5.249 0 001.13-2.876 7.86 7.86 0 002.15.298h2.576c.728 0 1.434-.1 2.104-.286a5.252 5.252 0 001.148 2.886 7.213 7.213 0 01-4.54 1.593zM16.252 7.969a6.086 6.086 0 016.08-6.08h2.575a6.09 6.09 0 016.01 5.159.9.9 0 00-.197.148 15.09 15.09 0 01-10.741 4.45h-3.727V7.968zm0 9.188v-3.715h3.727c2.242 0 4.429-.435 6.5-1.293a16.891 16.891 0 004.507-2.756v7.764a6.086 6.086 0 01-6.08 6.08h-2.575a6.086 6.086 0 01-6.079-6.08z"/><path d="M11.858 33.486a.899.899 0 00-1.262-.147 7.267 7.267 0 00-2.774 5.73.899.899 0 001.797 0 5.48 5.48 0 012.092-4.32.899.899 0 00.147-1.263zm2.772-.868a.898.898 0 00-1.07-.684l-.042.01a.898.898 0 10.39 1.754l.04-.009a.898.898 0 00.683-1.07z"/></g><defs><clipPath id="clip0"><path fill="#fff" transform="translate(.62 .093)" d="M0 0h46v46H0z"/></clipPath></defs></svg>