<svg width="43" height="43" fill="none" xmlns="http://www.w3.org/2000/svg"><g clip-path="url(#clip0)" fill="#000"><path d="M16.823 4.488c-6.785 0-12.305 5.52-12.305 12.305S10.038 29.1 16.823 29.1s12.305-5.52 12.305-12.306c0-6.785-5.52-12.305-12.305-12.305zm0 22.97c-5.88 0-10.665-4.784-10.665-10.665 0-5.88 4.784-10.664 10.665-10.664 5.88 0 10.665 4.784 10.665 10.664s-4.785 10.665-10.665 10.665zm-10.258-.27l-.069-.07a.82.82 0 00-1.16 1.16l.076.077a.818.818 0 001.16-.007.82.82 0 00-.007-1.16z"/><path d="M41.603 36.846L30.426 25.67c4.11-6.296 3.405-14.84-2.118-20.362-6.333-6.333-16.638-6.333-22.971 0a16.28 16.28 0 00-4.67 9.798 16.306 16.306 0 002.44 10.397.82.82 0 101.385-.88C.853 18.902 1.696 11.267 6.497 6.467c5.693-5.694 14.957-5.694 20.65 0 5.694 5.693 5.694 14.957 0 20.65-4.91 4.912-12.66 5.68-18.426 1.828a.82.82 0 00-.911 1.364 16.15 16.15 0 008.99 2.72c3.119 0 6.222-.892 8.897-2.634l2.707 2.707 8.47 8.47c.632.632 1.472.98 2.365.98a3.32 3.32 0 002.364-.98 3.346 3.346 0 000-4.727zM27.04 29.42a16.23 16.23 0 002.408-2.407l1.944 1.944-.015.014-2.393 2.393-1.944-1.944zm13.402 10.994c-.322.322-.75.499-1.204.499-.455 0-.882-.177-1.204-.498l-7.89-7.89 2.393-2.394.014-.015 7.89 7.891a1.704 1.704 0 010 2.407z"/><path d="M19.988 9.134a.82.82 0 00-.627 1.516 6.628 6.628 0 014.107 6.143.82.82 0 001.64 0 8.264 8.264 0 00-5.12-7.66zm-3.051-.626h-.115a.82.82 0 000 1.64 6.936 6.936 0 01.104.001.82.82 0 00.01-1.64z"/></g><defs><clipPath id="clip0"><path fill="#fff" transform="translate(.58 .555)" d="M0 0h42v42H0z"/></clipPath></defs></svg>