<svg width="35" height="53" fill="none" xmlns="http://www.w3.org/2000/svg"><path d="M14.453.555c-.56 0-1.015.455-1.015 1.016v6.263a1.016 1.016 0 002.03 0V1.57c0-.561-.454-1.016-1.015-1.016zm13.33 13.332h-6.264a1.016 1.016 0 000 2.031h6.264a1.016 1.016 0 000-2.031zm-20.399-.003H1.121a1.016 1.016 0 100 2.031h6.263a1.016 1.016 0 000-2.03zM9.43 8.44L6.471 5.483a1.016 1.016 0 00-1.436 1.436l2.957 2.957a1.012 1.012 0 001.436 0 1.016 1.016 0 000-1.436zm14.44-2.955a1.016 1.016 0 00-1.436 0l-2.957 2.957a1.016 1.016 0 001.436 1.436l2.957-2.957a1.016 1.016 0 000-1.436z" fill="#000"/><path d="M30.906 23.681c-.685 0-1.328.186-1.882.508a3.764 3.764 0 00-3.602-2.689c-1.081 0-2.056.46-2.742 1.193a3.747 3.747 0 00-4.47-.77V14.9a3.762 3.762 0 00-3.757-3.758 3.762 3.762 0 00-3.758 3.758v5.355a1.016 1.016 0 002.032 0V14.9c0-.952.774-1.727 1.726-1.727s1.727.775 1.727 1.727v17.002a1.016 1.016 0 002.03 0v-6.645a1.728 1.728 0 013.454 0v6.645a1.016 1.016 0 002.031 0v-6.645a1.728 1.728 0 013.453 0v6.645a1.016 1.016 0 002.032 0V27.44a1.728 1.728 0 013.453 0v10.62c0 .756-.068 1.514-.203 2.251a1.016 1.016 0 101.998.365 14.57 14.57 0 00.236-2.616V27.44a3.762 3.762 0 00-3.758-3.759z" fill="#000"/><path d="M30.104 47.225a1.016 1.016 0 00-1.436-.05 12.42 12.42 0 01-8.5 3.349c-4.752 0-9.157-2.765-11.224-7.044l-4.678-9.686a1.87 1.87 0 01.746-2.424c.869-.501 2-.212 2.522.644l3.309 5.43a1.016 1.016 0 001.883-.53v-9.953a1.016 1.016 0 00-2.032 0v6.336l-1.426-2.34a3.87 3.87 0 00-5.272-1.346 3.91 3.91 0 00-1.559 5.066l4.678 9.687a14.478 14.478 0 005.348 5.974 14.478 14.478 0 007.705 2.217c3.683 0 7.194-1.383 9.886-3.894.41-.383.432-1.025.05-1.436zm2.628-3.445a1.023 1.023 0 00-.718-.297c-.267 0-.53.108-.718.297a1.023 1.023 0 00-.298.718 1.02 1.02 0 001.016 1.016c.267 0 .529-.109.718-.298a1.02 1.02 0 00.297-.718c0-.267-.108-.529-.297-.718zM12.429 22.993a1.023 1.023 0 00-.718-.297c-.267 0-.53.108-.718.297-.189.19-.298.451-.298.718 0 .268.109.53.298.719.189.188.45.297.718.297.267 0 .53-.109.718-.297.189-.19.298-.451.298-.719 0-.267-.11-.529-.298-.718z" fill="#000"/></svg>