<svg width="40" height="41" fill="none" xmlns="http://www.w3.org/2000/svg"><g clip-path="url(#clip0)" fill="#000"><path d="M39.37 1.948a.78.78 0 00-.223-.473l-.008-.009a.78.78 0 00-.478-.227 25.427 25.427 0 00-12.604.346 25.425 25.425 0 00-10.958 6.45l-.52.521H7.452a.781.781 0 00-.552.229L.229 15.457a.781.781 0 000 1.105L3.4 19.734l-.709.708a.781.781 0 000 1.105L5.4 24.254l-2.126 3.763a.781.781 0 00.128.936l.988.988a15.602 15.602 0 00-3.497 6.432L.026 39.62a.781.781 0 00.957.957l3.247-.867a15.603 15.603 0 006.432-3.497l.985.986a.78.78 0 00.937.127l3.762-2.125 2.716 2.715a.78.78 0 001.105 0l.708-.708 3.16 3.16a.781.781 0 001.105 0l6.672-6.672a.782.782 0 00.229-.552v-7.102l.532-.532a25.427 25.427 0 006.45-10.958 25.423 25.423 0 00.347-12.604zM1.886 16.009l5.891-5.89h5.239l-7.08 7.08h-.001v.001l-1.43 1.429-2.619-2.62zM3.828 38.2l-1.944.519.518-1.944a14.04 14.04 0 013.094-5.728l4.06 4.06A14.036 14.036 0 013.827 38.2zm8.505-2.526l-1.042-1.041a.802.802 0 00-.123-.123l-5.075-5.075a.784.784 0 00-.123-.123l-1.043-1.044 1.62-2.867 8.653 8.653-2.867 1.62zm18.145-2.854l-5.89 5.89-2.608-2.607 8.498-8.498v5.215zm.99-8.415L20.323 35.55v.001l-.709.708-2.582-2.583L6.925 23.57 4.35 20.994l2.137-2.137 10.427 10.427a.78.78 0 001.105 0 .781.781 0 000-1.105L7.592 17.752l8.611-8.611c5.733-5.733 13.822-8.129 21.728-6.463 1.666 7.906-.73 15.995-6.463 21.727z"/><path d="M29.112 16.489a.781.781 0 00-.782.781v.05a.781.781 0 00.775.787h.007a.782.782 0 00.78-.775l.001-.062a.782.782 0 00-.781-.781z"/><path d="M28.72 19.507a.781.781 0 00-1.068.28 5.023 5.023 0 01-4.322 2.483c-2.757 0-5-2.243-5-5 0-2.758 2.243-5 5-5 1.483 0 2.88.651 3.833 1.788a.781.781 0 101.197-1.004 6.55 6.55 0 00-5.03-2.348 6.57 6.57 0 00-6.562 6.563 6.57 6.57 0 006.563 6.563A6.59 6.59 0 0029 20.575a.781.781 0 00-.28-1.068zm-8.869 10.505a.782.782 0 00-1.333.552c0 .206.083.407.229.553a.787.787 0 00.552.229.786.786 0 00.781-.782.784.784 0 00-.229-.552z"/></g><defs><clipPath id="clip0"><path fill="#fff" transform="translate(0 .605)" d="M0 0h40v40H0z"/></clipPath></defs></svg>