<svg width="47" height="47" fill="none" xmlns="http://www.w3.org/2000/svg"><g clip-path="url(#clip0)" fill="#000"><path d="M23.58 11.387c-1.763 0-3.464.367-5.057 1.092a.898.898 0 00.745 1.636 10.338 10.338 0 014.312-.931c5.747 0 10.422 4.675 10.422 10.421 0 5.747-4.675 10.422-10.422 10.422-5.746 0-10.422-4.675-10.422-10.422 0-1.678.386-3.279 1.148-4.76a.898.898 0 10-1.598-.822 12.255 12.255 0 00-1.347 5.582c0 6.738 5.482 12.22 12.22 12.22 6.737 0 12.218-5.482 12.218-12.22 0-6.737-5.481-12.218-12.219-12.218z"/><path d="M45.96 22.408a35.44 35.44 0 00-1.322-1.696 46.75 46.75 0 00-4.832-5.031c-2.374-2.12-4.803-3.813-7.219-5.032-3.048-1.537-6.079-2.317-9.007-2.317-6.618 0-12.476 3.977-16.225 7.314a45.798 45.798 0 00-4.833 5.03 32.73 32.73 0 00-1.325 1.712c-.544.76-.617.933-.617 1.217 0 .298.081.455.62 1.197.261.36.702.944 1.323 1.697a46.74 46.74 0 004.831 5.031c2.375 2.12 4.803 3.813 7.22 5.032 3.048 1.537 6.078 2.317 9.006 2.317 4.582 0 9.316-1.86 14.07-5.526a.898.898 0 10-1.097-1.422c-4.433 3.418-8.798 5.151-12.973 5.151-5.911 0-11.266-3.598-14.717-6.616-3.273-2.863-5.555-5.796-6.32-6.87.74-1.057 3.005-3.999 6.346-6.907 3.44-2.992 8.781-6.56 14.691-6.56 5.911 0 11.266 3.598 14.717 6.616 3.275 2.864 5.557 5.798 6.32 6.872-.506.727-1.718 2.31-3.466 4.146a.898.898 0 001.3 1.24 43.731 43.731 0 002.92-3.385c1.21-1.567 1.21-1.764 1.21-2.012 0-.299-.082-.455-.622-1.198z"/><path d="M30.238 20.449a.898.898 0 00-1.682.16 1.616 1.616 0 01-3.182-.408c0-.739.498-1.383 1.212-1.567a.899.899 0 00.163-1.68 7.303 7.303 0 00-3.169-.716c-4.062 0-7.367 3.305-7.367 7.367 0 4.063 3.305 7.368 7.367 7.368 4.062 0 7.367-3.305 7.367-7.367a7.303 7.303 0 00-.71-3.157zm-6.658 8.727a5.577 5.577 0 01-5.57-5.57 5.577 5.577 0 016.302-5.524 3.418 3.418 0 002.678 5.532 3.41 3.41 0 002.114-.732 5.577 5.577 0 01-5.524 6.293zm0-28.571a.899.899 0 00-.898.899v4.851a.899.899 0 001.797 0V1.504a.898.898 0 00-.899-.899zM38.974 3.25a.899.899 0 00-1.27 0l-4.257 4.257a.898.898 0 101.27 1.27l4.257-4.257a.897.897 0 000-1.27zm-25.26 4.257L9.458 3.249A.899.899 0 008.187 4.52l4.257 4.257a.896.896 0 001.27 0 .897.897 0 000-1.27zm9.866 32.45a.899.899 0 00-.898.898v4.852a.899.899 0 001.797 0v-4.852a.899.899 0 00-.899-.898zm-9.866-1.523a.899.899 0 00-1.27 0L8.187 42.69a.898.898 0 001.27 1.27l4.257-4.257a.899.899 0 000-1.27zm25.26 4.256l-4.257-4.256a.899.899 0 00-1.27 1.27l4.257 4.257a.896.896 0 001.27 0 .897.897 0 000-1.27zm-22.55-27.933a.905.905 0 00-.635-.264.905.905 0 00-.635.264.905.905 0 00-.263.635c0 .236.096.468.263.635a.905.905 0 00.635.263.905.905 0 00.635-.263.905.905 0 00.264-.635.905.905 0 00-.264-.635zM40.186 29.95a.905.905 0 00-.635-.263.905.905 0 00-.635.262.907.907 0 00-.264.636c0 .237.096.467.264.636a.905.905 0 00.635.263.905.905 0 00.635-.264.907.907 0 00.263-.635.906.906 0 00-.263-.636z"/></g><defs><clipPath id="clip0"><path fill="#fff" transform="translate(.58 .605)" d="M0 0h46v46H0z"/></clipPath></defs></svg>