<svg width="50" height="51" fill="none" xmlns="http://www.w3.org/2000/svg"><g clip-path="url(#clip0)" fill="#000"><path d="M34.853 12.767a13.87 13.87 0 00-9.84-4.056h-.102a13.977 13.977 0 00-10.476 4.864.977.977 0 001.479 1.276 12.024 12.024 0 019.011-4.187h.088c3.193 0 6.196 1.237 8.464 3.489a11.931 11.931 0 013.549 8.525c0 3.08-1.164 6.009-3.278 8.247-2.22 2.35-3.523 5.324-3.718 8.45h-1.904V29.024h.618a2.574 2.574 0 002.572-2.572v-.13a2.574 2.574 0 00-2.572-2.571 2.574 2.574 0 00-2.571 2.571v.749h-2.344v-.749a2.574 2.574 0 00-2.571-2.571h-.166a2.574 2.574 0 00-2.571 2.571v.13a2.574 2.574 0 002.571 2.572h.784v10.351h-1.88c-.19-3.161-1.467-6.108-3.644-8.37a11.935 11.935 0 01-3.35-8.663.977.977 0 00-1.952-.053 13.873 13.873 0 003.894 10.07c2.014 2.092 3.123 4.877 3.123 7.84v2.827a4.07 4.07 0 003.614 4.038v.221c0 1.831 1.49 3.32 3.32 3.32 1.83 0 3.32-1.489 3.32-3.32v-.218a4.07 4.07 0 003.636-4.041V40.2c0-2.925 1.14-5.742 3.21-7.934a13.91 13.91 0 003.812-9.588c0-3.75-1.465-7.27-4.126-9.912zm-6.727 13.555a.62.62 0 011.237 0v.13a.62.62 0 01-.619.619h-.618v-.749zm-4.297 2.702h2.344v10.351h-2.344V29.024zm-2.737-1.953a.62.62 0 01-.618-.619v-.13a.62.62 0 01.618-.618h.166a.62.62 0 01.618.618v.749h-.784zm5.276 20.214c0 .754-.613 1.367-1.367 1.367a1.369 1.369 0 01-1.367-1.367v-.195h2.734v.195zm3.636-4.26a2.113 2.113 0 01-2.111 2.112h-5.762a2.113 2.113 0 01-2.111-2.111v-1.698h9.984v1.698zM25 .605a.977.977 0 00-.977.977v3.647a.977.977 0 001.954 0V1.582A.977.977 0 0025 .605zm21.096 21.096H42.45a.977.977 0 000 1.953h3.647a.977.977 0 000-1.953zm-38.545 0H3.904a.977.977 0 000 1.953h3.647a.977.977 0 000-1.953zM13.353 9.65l-2.578-2.58a.977.977 0 00-1.382 1.382l2.579 2.578a.974.974 0 001.381 0 .977.977 0 000-1.38zm27.254-2.58a.977.977 0 00-1.381 0l-2.579 2.58a.977.977 0 001.381 1.381l2.579-2.579a.977.977 0 000-1.38z"/><path d="M34.142 18.99a9.86 9.86 0 00-3.598-4.47 9.817 9.817 0 00-5.633-1.714.977.977 0 00.007 1.953h.065a7.88 7.88 0 017.348 4.961.977.977 0 101.811-.73zm.425 2.997a.984.984 0 00-.69-.286.985.985 0 00-.692.286.983.983 0 000 1.381.984.984 0 00.692.286.983.983 0 00.69-.286.983.983 0 000-1.38zm-20.84-5.031a.982.982 0 00-1.38 0 .986.986 0 00-.287.692c0 .256.105.507.287.69a.984.984 0 00.69.286.983.983 0 00.69-.286.986.986 0 00.287-.69.986.986 0 00-.287-.692z"/></g><defs><clipPath id="clip0"><path fill="#fff" transform="translate(0 .605)" d="M0 0h50v50H0z"/></clipPath></defs></svg>