<svg width="55" height="55" viewBox="0 0 55 55" fill="none" xmlns="http://www.w3.org/2000/svg">
<path d="M47.3988 52.027C47.268 52.0274 47.1394 51.9932 47.026 51.928C46.9126 51.8627 46.8184 51.7687 46.753 51.6554L41.3823 42.2318C41.3178 42.1186 41.2842 41.9904 41.2849 41.8602V9.98917C41.2861 8.84268 41.7421 7.74349 42.5528 6.93281C43.3634 6.12212 44.4626 5.66616 45.6091 5.66498H49.1893C50.3358 5.66616 51.435 6.12212 52.2457 6.93281C53.0564 7.74349 53.5123 8.84268 53.5135 9.98917V41.8639C53.5142 41.9942 53.4806 42.1223 53.4161 42.2355L48.0447 51.6554C47.9793 51.7687 47.8851 51.8627 47.7717 51.928C47.6583 51.9932 47.5297 52.0274 47.3988 52.027ZM42.7714 41.6669L47.3996 49.7832L52.027 41.6669V9.98917C52.0262 9.2368 51.727 8.51548 51.195 7.98348C50.663 7.45148 49.9417 7.15225 49.1893 7.15146H45.6091C44.8567 7.15225 44.1354 7.45148 43.6034 7.98348C43.0714 8.51548 42.7722 9.2368 42.7714 9.98917V41.6669Z" fill="black"/>
<path d="M42.5313 42.4102L41.5235 41.3184C41.5822 41.2634 47.4657 35.9455 53.2757 41.3184L52.2656 42.4095C47.4746 37.9797 42.7305 42.2274 42.5313 42.4102Z" fill="black"/>
<path d="M42.0282 14.0012H52.7703V15.4877H42.0282V14.0012Z" fill="black"/>
<path d="M46.6556 14.7444H48.1421V39.7152H46.6556V14.7444Z" fill="black"/>
<path d="M22.7826 39.9062H15.0053C14.8082 39.9062 14.6192 39.8279 14.4798 39.6885C14.3404 39.5491 14.2621 39.3601 14.2621 39.163C14.2483 37.5264 13.8878 35.9112 13.2043 34.4241C12.5208 32.937 11.5299 31.6116 10.2969 30.5354C8.71309 29.1323 7.49677 27.3628 6.7541 25.3815C6.01142 23.4002 5.76496 21.2672 6.03621 19.1688C6.30747 17.0703 7.0882 15.0701 8.31027 13.3428C9.53235 11.6154 11.1586 10.2134 13.0471 9.25914C14.9357 8.30486 17.029 7.8273 19.1446 7.86814C21.2601 7.90897 23.3335 8.46696 25.1838 9.49341C27.0341 10.5199 28.605 11.9836 29.7595 13.7568C30.914 15.53 31.617 17.5588 31.8071 19.6662C31.9984 21.7068 31.6998 23.7635 30.936 25.6654C30.1723 27.5673 28.9655 29.2593 27.416 30.6008C26.194 31.6676 25.2145 32.9837 24.5435 34.4605C23.8725 35.9374 23.5255 37.5408 23.5259 39.163C23.5259 39.3601 23.4476 39.5491 23.3082 39.6885C23.1688 39.8279 22.9797 39.9062 22.7826 39.9062ZM15.727 38.4197H22.0609C22.1597 36.7136 22.5977 35.0444 23.3494 33.5096C24.1011 31.9748 25.1513 30.6054 26.4386 29.4815C28.1966 27.948 29.4454 25.9152 30.0189 23.6539C30.5923 21.3927 30.4631 19.0104 29.6484 16.8245C28.8337 14.6386 27.3723 12.7528 25.4587 11.4184C23.5452 10.0841 21.2706 9.36452 18.9378 9.35559C16.605 9.34667 14.3249 10.0488 12.4012 11.3685C10.4776 12.6882 9.00172 14.5627 8.17033 16.7423C7.33895 18.922 7.19149 21.3032 7.74761 23.5687C8.30373 25.8343 9.53703 27.8766 11.2832 29.4235C13.8981 31.7142 15.4965 34.9495 15.727 38.4182V38.4197Z" fill="black"/>
<path d="M21.3073 44.2624H16.4807C16.1364 44.262 15.8064 44.1251 15.563 43.8816C15.3195 43.6382 15.1826 43.3082 15.1822 42.9639V39.163C15.1822 38.9659 15.2605 38.7768 15.3999 38.6374C15.5393 38.498 15.7283 38.4197 15.9255 38.4197H21.8632C22.0604 38.4197 22.2494 38.498 22.3888 38.6374C22.5282 38.7768 22.6065 38.9659 22.6065 39.163V42.9639C22.6061 43.3083 22.4691 43.6385 22.2255 43.8819C21.9819 44.1253 21.6517 44.2622 21.3073 44.2624ZM16.668 42.7759H21.1192V39.9062H16.6687L16.668 42.7759Z" fill="black"/>
<path d="M18.1507 3.61215H19.6372V6.38965H18.1507V3.61215Z" fill="black"/>
<path d="M10.1955 6.14227L11.4828 5.39903L12.8712 7.8037L11.5839 8.54694L10.1955 6.14227Z" fill="black"/>
<path d="M4.57114 12.3107L5.31438 11.0234L7.71905 12.4118L6.97581 13.6991L4.57114 12.3107Z" fill="black"/>
<path d="M2.22974 18.978H5.00724V20.4645H2.22974V18.978Z" fill="black"/>
<path d="M32.7815 18.978H35.559V20.4645H32.7815V18.978Z" fill="black"/>
<path d="M30.0664 12.4084L32.4718 11.0196L33.215 12.3069L30.8097 13.6957L30.0664 12.4084Z" fill="black"/>
<path d="M24.9178 7.80634L26.3066 5.40102L27.5939 6.14427L26.2051 8.54958L24.9178 7.80634Z" fill="black"/>
<path d="M18.1507 25.2762H19.6372V39.1637H18.1507V25.2762Z" fill="black"/>
<path d="M18.894 26.0195C18.2526 26.0195 17.6257 25.8293 17.0924 25.473C16.5591 25.1167 16.1435 24.6102 15.8981 24.0177C15.6526 23.4251 15.5884 22.7731 15.7135 22.1441C15.8386 21.515 16.1475 20.9372 16.601 20.4837C17.0545 20.0302 17.6323 19.7214 18.2614 19.5962C18.8904 19.4711 19.5424 19.5353 20.1349 19.7808C20.7275 20.0262 21.2339 20.4418 21.5903 20.9751C21.9466 21.5084 22.1368 22.1353 22.1368 22.7767C22.1358 23.6364 21.7938 24.4607 21.1859 25.0686C20.578 25.6765 19.7537 26.0185 18.894 26.0195ZM18.894 21.0204C18.5466 21.0204 18.2071 21.1234 17.9182 21.3164C17.6294 21.5094 17.4043 21.7837 17.2714 22.1046C17.1385 22.4255 17.1037 22.7787 17.1714 23.1193C17.2392 23.46 17.4065 23.773 17.6521 24.0186C17.8977 24.2642 18.2107 24.4315 18.5514 24.4992C18.892 24.567 19.2452 24.5322 19.5661 24.3993C19.887 24.2664 20.1613 24.0413 20.3543 23.7524C20.5473 23.4636 20.6503 23.1241 20.6503 22.7767C20.6497 22.3111 20.4645 21.8647 20.1352 21.5355C19.806 21.2062 19.3596 21.021 18.894 21.0204Z" fill="black"/>
<path d="M47.3989 52.027H21.7213C20.736 52.0258 19.7915 51.6339 19.0948 50.9372C18.3982 50.2406 18.0062 49.296 18.0051 48.3108V43.5191H19.4916V48.3108C19.4916 48.9021 19.7265 49.4693 20.1446 49.8874C20.5628 50.3056 21.1299 50.5405 21.7213 50.5405H47.3989V52.027Z" fill="black"/>
</svg>
