<svg width="50" height="44" viewBox="0 0 50 44" fill="none" xmlns="http://www.w3.org/2000/svg">
<path d="M50 10.3384C50 5.06028 45.7061 0.766333 40.4279 0.766333H16.3433C15.9391 0.766333 15.6114 1.09397 15.6114 1.49817C15.6114 1.90237 15.9391 2.23 16.3433 2.23H40.4279C44.8989 2.23 48.5364 5.86741 48.5364 10.3385C48.5364 14.8096 44.899 18.447 40.4279 18.447H32.5571C30.9448 13.546 26.325 9.99758 20.8914 9.99758C15.4609 9.99758 10.8435 13.5417 9.22852 18.4382C4.91631 18.2573 1.46357 14.6943 1.46357 10.3384C1.46357 5.86731 5.10098 2.22991 9.57207 2.22991H12.6616C13.0658 2.22991 13.3935 1.90227 13.3935 1.49807C13.3935 1.09387 13.0658 0.766235 12.6616 0.766235H9.57207C4.29404 0.766333 0 5.06038 0 10.3384C0 15.3731 3.90713 19.5122 8.84844 19.8833C8.69502 20.6573 8.61387 21.4569 8.61387 22.2751C8.61387 24.0179 8.97168 25.702 9.67744 27.2807C9.84238 27.6496 10.2754 27.8152 10.6441 27.6501C11.0132 27.4852 11.1785 27.0524 11.0136 26.6834C10.3924 25.2938 10.0773 23.8106 10.0773 22.275C10.0773 21.463 10.168 20.6718 10.3385 19.9105H28.168C28.5722 19.9105 28.8998 19.5828 28.8998 19.1786C28.8998 18.7744 28.5722 18.4468 28.168 18.4468H10.778C12.3271 14.3679 16.2759 11.461 20.8914 11.461C26.8543 11.461 31.7054 16.312 31.7054 22.2749C31.7054 28.2378 26.8543 33.0889 20.8914 33.0889C17.7723 33.0889 14.8045 31.7412 12.749 29.3916C12.4829 29.0873 12.0205 29.0566 11.7164 29.3227C11.4122 29.5888 11.3813 30.0511 11.6475 30.3553C13.9809 33.0228 17.3502 34.5526 20.8914 34.5526C23.4184 34.5526 25.7693 33.7849 27.7237 32.4709L29.8001 34.5473C29.344 35.1025 29.3749 35.9264 29.8933 36.4449L35.6116 42.1633C36.3018 42.8535 37.2194 43.2336 38.1956 43.2336C39.1717 43.2336 40.0895 42.8535 40.7796 42.1633C41.4697 41.4731 41.8498 40.5554 41.8498 39.5793C41.8498 38.6032 41.4697 37.6855 40.7796 36.9953L35.0613 31.2771C34.7941 31.0098 34.4389 30.8626 34.0609 30.8626C33.7297 30.8626 33.4158 30.9757 33.1635 31.1835L31.0873 29.1073C32.4013 27.1529 33.1689 24.802 33.1689 22.2749C33.1689 21.4662 33.0896 20.6758 32.9395 19.9104H40.4279C45.7061 19.9106 50 15.6165 50 10.3384ZM39.7447 38.0304C40.1585 38.4442 40.3863 38.9943 40.3863 39.5794C40.3863 40.1646 40.1585 40.7147 39.7446 41.1284C39.3309 41.5422 38.7809 41.77 38.1957 41.77C37.6105 41.77 37.0604 41.5422 36.6467 41.1284L30.9629 35.4446L34.0609 32.3464L39.7447 38.0304ZM32.1237 32.2138L30.8301 33.5074L28.8979 31.5752C29.3604 31.1765 29.7928 30.7441 30.1915 30.2816L32.1237 32.2138Z" fill="black"/>
<path d="M5.24727 11.1559C5.69875 11.1559 6.06475 10.7899 6.06475 10.3384C6.06475 9.88693 5.69875 9.52094 5.24727 9.52094C4.79579 9.52094 4.42979 9.88693 4.42979 10.3384C4.42979 10.7899 4.79579 11.1559 5.24727 11.1559Z" fill="black"/>
<path d="M8.30254 11.1559C8.75402 11.1559 9.12002 10.7899 9.12002 10.3384C9.12002 9.88693 8.75402 9.52094 8.30254 9.52094C7.85106 9.52094 7.48506 9.88693 7.48506 10.3384C7.48506 10.7899 7.85106 11.1559 8.30254 11.1559Z" fill="black"/>
<path d="M11.3578 11.1559C11.8093 11.1559 12.1753 10.7899 12.1753 10.3384C12.1753 9.88693 11.8093 9.52094 11.3578 9.52094C10.9063 9.52094 10.5403 9.88693 10.5403 10.3384C10.5403 10.7899 10.9063 11.1559 11.3578 11.1559Z" fill="black"/>
<path d="M46.1581 10.3384C46.1581 6.90853 43.3678 4.1181 39.9378 4.1181C36.5078 4.1181 33.7175 6.90853 33.7175 10.3384C33.7175 13.7683 36.5078 16.5587 39.9378 16.5587C43.3678 16.5587 46.1581 13.7683 46.1581 10.3384ZM35.1812 10.3384C35.1812 7.71557 37.3149 5.58178 39.9378 5.58178C42.5606 5.58178 44.6944 7.71557 44.6944 10.3384C44.6944 12.9613 42.5606 15.0951 39.9378 15.0951C37.3149 15.0951 35.1812 12.9613 35.1812 10.3384Z" fill="black"/>
<path d="M42.1916 8.64229C41.9057 8.35654 41.4425 8.35654 41.1566 8.64229L39.2043 10.5946L38.4306 9.821C38.1448 9.53525 37.6815 9.53525 37.3957 9.821C37.1099 10.1067 37.1099 10.5701 37.3957 10.8559L38.6868 12.147C38.8298 12.2898 39.0171 12.3613 39.2043 12.3613C39.3915 12.3613 39.5789 12.2898 39.7218 12.147L42.1916 9.67715C42.4773 9.39141 42.4773 8.92803 42.1916 8.64229Z" fill="black"/>
</svg>
