<svg width="161" height="24" viewBox="0 0 161 24" fill="none" xmlns="http://www.w3.org/2000/svg">
<path d="M10.088 0.279999H15.816L17.896 7.288L20.008 0.279999H25.736L21.896 11.128L23.528 15.768L28.424 0.279999H35.208L26.632 23H21.224L17.896 14.872L14.6 23H9.192L0.616 0.279999H7.368L12.296 15.768L13.864 11.128L10.088 0.279999ZM52.9565 17.56V23H36.7645V0.279999H52.6685V5.72H43.0045V8.92H51.2605V13.976H43.0045V17.56H52.9565ZM55.8583 23V0.279999H62.0983V17.56H72.4023V23H55.8583ZM74.577 23V0.279999H83.313C85.8303 0.279999 87.9317 0.791999 89.617 1.816C91.3237 2.81867 92.6037 4.184 93.457 5.912C94.3317 7.61867 94.769 9.51733 94.769 11.608C94.769 13.912 94.289 15.9173 93.329 17.624C92.3903 19.3307 91.057 20.6533 89.329 21.592C87.6223 22.5307 85.617 23 83.313 23H74.577ZM88.433 11.608C88.433 10.4347 88.2303 9.41067 87.825 8.536C87.4197 7.64 86.833 6.94667 86.065 6.456C85.297 5.96533 84.3797 5.72 83.313 5.72H80.817V17.56H83.313C84.401 17.56 85.3183 17.304 86.065 16.792C86.833 16.28 87.4197 15.576 87.825 14.68C88.2303 13.7627 88.433 12.7387 88.433 11.608Z" fill="#F7EEE7"/>
<path d="M97.4833 23V0.279999H107.275C108.385 0.279999 109.409 0.503999 110.347 0.952C111.286 1.4 112.097 2.008 112.779 2.776C113.462 3.52267 113.985 4.36533 114.347 5.304C114.731 6.24267 114.923 7.192 114.923 8.152C114.923 9.496 114.603 10.7653 113.963 11.96C113.345 13.1547 112.47 14.136 111.339 14.904C110.23 15.6507 108.929 16.024 107.435 16.024H103.723V23H97.4833ZM103.723 10.584H107.019C107.275 10.584 107.521 10.5093 107.755 10.36C107.99 10.2107 108.182 9.95467 108.331 9.592C108.502 9.22933 108.587 8.74933 108.587 8.152C108.587 7.512 108.491 7.02133 108.299 6.68C108.129 6.31733 107.905 6.072 107.627 5.944C107.371 5.79467 107.115 5.72 106.859 5.72H103.723V10.584ZM117.421 23V0.279999H127.853C128.962 0.279999 129.986 0.503999 130.925 0.952C131.863 1.4 132.674 2.008 133.357 2.776C134.039 3.52267 134.562 4.36533 134.925 5.304C135.309 6.24267 135.501 7.192 135.501 8.152C135.501 9.02667 135.373 9.86933 135.117 10.68C134.861 11.4907 134.487 12.2373 133.997 12.92C133.506 13.5813 132.919 14.1573 132.237 14.648L137.037 23H130.189L126.189 16.024H123.661V23H117.421ZM123.661 10.584H127.597C127.853 10.584 128.098 10.488 128.333 10.296C128.567 10.104 128.759 9.82667 128.909 9.464C129.079 9.10133 129.165 8.664 129.165 8.152C129.165 7.61867 129.069 7.18133 128.877 6.84C128.706 6.47733 128.482 6.2 128.205 6.008C127.949 5.816 127.693 5.72 127.437 5.72H123.661V10.584ZM148.973 23.192C147.245 23.192 145.677 22.872 144.269 22.232C142.861 21.5707 141.645 20.696 140.621 19.608C139.619 18.4987 138.84 17.2613 138.285 15.896C137.752 14.5093 137.485 13.08 137.485 11.608C137.485 10.0933 137.773 8.65333 138.349 7.288C138.925 5.92267 139.725 4.70667 140.749 3.64C141.795 2.552 143.021 1.69867 144.429 1.08C145.859 0.461332 147.416 0.151999 149.101 0.151999C150.829 0.151999 152.397 0.482665 153.805 1.144C155.213 1.784 156.419 2.65867 157.421 3.768C158.424 4.87733 159.192 6.12533 159.725 7.512C160.28 8.87733 160.557 10.2853 160.557 11.736C160.557 13.2293 160.269 14.6587 159.693 16.024C159.139 17.3893 158.339 18.616 157.293 19.704C156.269 20.7707 155.053 21.624 153.645 22.264C152.237 22.8827 150.68 23.192 148.973 23.192ZM143.821 11.672C143.821 12.44 143.928 13.1867 144.141 13.912C144.355 14.616 144.675 15.256 145.101 15.832C145.528 16.3867 146.061 16.8347 146.701 17.176C147.363 17.496 148.141 17.656 149.037 17.656C149.933 17.656 150.712 17.4853 151.373 17.144C152.035 16.8027 152.568 16.344 152.973 15.768C153.4 15.1707 153.709 14.52 153.901 13.816C154.115 13.0907 154.221 12.3547 154.221 11.608C154.221 10.84 154.115 10.104 153.901 9.4C153.688 8.696 153.368 8.06667 152.941 7.512C152.515 6.936 151.971 6.488 151.309 6.168C150.648 5.848 149.88 5.688 149.005 5.688C148.109 5.688 147.331 5.85867 146.669 6.2C146.029 6.54133 145.496 7 145.069 7.576C144.643 8.13067 144.323 8.77067 144.109 9.496C143.917 10.2 143.821 10.9253 143.821 11.672Z" fill="#E83C38"/>
</svg>
