<svg width="78" height="82" viewBox="0 0 78 82" fill="none" xmlns="http://www.w3.org/2000/svg">
<path d="M21.1027 38.0878C29.3477 38.0878 36.0316 31.3946 36.0316 23.1382C36.0316 14.8818 29.3477 8.18872 21.1027 8.18872C12.8577 8.18872 6.17383 14.8818 6.17383 23.1382C6.17383 31.3946 12.8577 38.0878 21.1027 38.0878Z" stroke="#0D369C" stroke-miterlimit="10"/>
<path d="M21.1027 75.1029C29.3477 75.1029 36.0316 68.4098 36.0316 60.1534C36.0316 51.897 29.3477 45.2039 21.1027 45.2039C12.8577 45.2039 6.17383 51.897 6.17383 60.1534C6.17383 68.4098 12.8577 75.1029 21.1027 75.1029Z" stroke="#0D369C" stroke-miterlimit="10"/>
<path d="M57.4489 74.5011C65.6939 74.5011 72.3778 67.808 72.3778 59.5516C72.3778 51.2952 65.6939 44.6021 57.4489 44.6021C49.2039 44.6021 42.52 51.2952 42.52 59.5516C42.52 67.808 49.2039 74.5011 57.4489 74.5011Z" stroke="#0D369C" stroke-miterlimit="10"/>
<path d="M31.0295 26.1475C30.3826 28.1798 29.1242 29.9621 27.4266 31.2506C25.729 32.5392 23.6753 33.2708 21.5465 33.3454C19.4176 33.42 17.3178 32.834 15.5345 31.6675C13.7511 30.501 12.3713 28.811 11.584 26.829" stroke="#0D369C" stroke-miterlimit="10"/>
<path d="M57.4747 65.7916C60.926 65.7916 63.7238 62.9899 63.7238 59.5338C63.7238 56.0778 60.926 53.2761 57.4747 53.2761C54.0234 53.2761 51.2256 56.0778 51.2256 59.5338C51.2256 62.9899 54.0234 65.7916 57.4747 65.7916Z" stroke="#0D369C" stroke-miterlimit="10"/>
<path d="M68.9396 59.0205C67.0127 63.1274 62.4961 65.8093 57.5021 65.8093C55.2739 65.8564 53.0728 65.3131 51.1218 64.2344C49.1707 63.1557 47.5389 61.5799 46.3916 59.6666" stroke="#0D369C" stroke-miterlimit="10"/>
<path d="M46.3477 59.879C48.2657 55.781 52.7912 53.0902 57.7852 53.0902C60.0259 53.0407 62.2396 53.5883 64.1996 54.6769C66.1596 55.7656 67.7955 57.3562 68.9398 59.286" stroke="#0D369C" stroke-miterlimit="10"/>
<path d="M17.1968 20.412C18.1536 20.412 18.9292 19.6353 18.9292 18.6772C18.9292 17.7191 18.1536 16.9424 17.1968 16.9424C16.24 16.9424 15.4644 17.7191 15.4644 18.6772C15.4644 19.6353 16.24 20.412 17.1968 20.412Z" stroke="#0D369C" stroke-miterlimit="10"/>
<path d="M25.2925 20.412C26.2493 20.412 27.0249 19.6353 27.0249 18.6772C27.0249 17.7191 26.2493 16.9424 25.2925 16.9424C24.3357 16.9424 23.5601 17.7191 23.5601 18.6772C23.5601 19.6353 24.3357 20.412 25.2925 20.412Z" stroke="#0D369C" stroke-miterlimit="10"/>
<path d="M51.5437 9.20654C48.2889 10.4621 45.5754 12.8186 43.8738 15.8676C42.1722 18.9166 41.5897 22.4657 42.2274 25.8997C42.865 29.3336 44.6826 32.4358 47.365 34.6685C50.0473 36.9011 53.4254 38.1234 56.9134 38.1234C60.4014 38.1234 63.7794 36.9011 66.4617 34.6685C69.1441 32.4358 70.9617 29.3336 71.5993 25.8997C72.237 22.4657 71.6545 18.9166 69.9529 15.8676C68.2513 12.8186 65.5378 10.4621 62.283 9.20654" stroke="#0D369C" stroke-miterlimit="10"/>
<path d="M56.9185 0.399658V25.1473" stroke="#0D369C" stroke-miterlimit="10"/>
<path d="M68.1787 70.1108L76.9999 78.5636" stroke="#0D369C" stroke-miterlimit="10"/>
<path d="M1.26855 72.1112L12.2818 61.0828" stroke="#0D369C" stroke-miterlimit="10"/>
<path d="M5.43994 76.2802L16.4532 65.2517" stroke="#0D369C" stroke-miterlimit="10"/>
<path d="M9.87744 80.7235L20.8907 69.6951" stroke="#0D369C" stroke-miterlimit="10"/>
</svg>
