<svg width="67" height="70" viewBox="0 0 67 70" fill="none" xmlns="http://www.w3.org/2000/svg">
<path d="M62.4928 39.6291H61.5871V4.76999C61.5871 3.7718 61.1906 2.8145 60.4848 2.10868C59.779 1.40285 58.8217 1.00633 57.8235 1.00633H8.97642C7.98173 1.01165 7.0296 1.41052 6.32812 2.11577C5.62665 2.82101 5.23287 3.77528 5.23289 4.76999V39.6291H4.22656V4.76999C4.23186 3.50654 4.73612 2.29635 5.62952 1.40295C6.52292 0.50955 7.73309 0.00529754 8.99654 0H57.743C59.0064 0.00529754 60.2166 0.50955 61.11 1.40295C62.0034 2.29635 62.5077 3.50654 62.513 4.76999L62.4928 39.6291Z" fill="#0D369C"/>
<path d="M45.4858 19.1201C43.8334 18.9468 42.3144 18.1338 41.2537 16.855C40.193 15.5762 39.6749 13.933 39.8101 12.2771C39.6522 11.4424 39.6804 10.5831 39.8926 9.7605C40.1049 8.93792 40.4959 8.17227 41.0379 7.51813C41.58 6.86398 42.2596 6.33745 43.0284 5.97604C43.7972 5.61463 44.6363 5.42725 45.4858 5.42725C46.3353 5.42725 47.1744 5.61463 47.9432 5.97604C48.712 6.33745 49.3916 6.86398 49.9336 7.51813C50.4757 8.17227 50.8667 8.93792 51.0789 9.7605C51.2912 10.5831 51.3194 11.4424 51.1615 12.2771C51.2967 13.933 50.7786 15.5762 49.7179 16.855C48.6572 18.1338 47.1382 18.9468 45.4858 19.1201ZM45.4858 6.46051C44.1017 6.62744 42.838 7.32967 41.9652 8.41682C41.0925 9.50398 40.6801 10.8896 40.8164 12.2771C40.6558 12.9788 40.6554 13.7077 40.8153 14.4096C40.9751 15.1115 41.2911 15.7683 41.7398 16.3313C42.1885 16.8943 42.7582 17.3488 43.4068 17.6613C44.0553 17.9737 44.7659 18.136 45.4858 18.136C46.2057 18.136 46.9163 17.9737 47.5648 17.6613C48.2133 17.3488 48.7831 16.8943 49.2318 16.3313C49.6804 15.7683 49.9964 15.1115 50.1563 14.4096C50.3162 13.7077 50.3158 12.9788 50.1552 12.2771C50.2914 10.8896 49.8791 9.50398 49.0063 8.41682C48.1336 7.32967 46.8699 6.62744 45.4858 6.46051Z" fill="#0D369C"/>
<path d="M56.616 27.2915L50.4976 21.6963L51.1819 20.9517L53.597 23.1052L57.3003 26.5468L56.616 27.2915Z" fill="#0D369C"/>
<path d="M52.0272 39.6694H51.0209L51.0007 26.2651L56.9783 31.5584L56.3141 32.3031L52.0272 28.5193V29.3646V39.6694Z" fill="#0D369C"/>
<path d="M39.5887 39.6292H38.5824V27.5533C38.5857 26.9419 38.4496 26.3378 38.1846 25.7868C37.9196 25.2358 37.5325 24.7524 37.0528 24.3733L30.8337 19.5027C30.5597 19.2829 30.3331 19.0099 30.1677 18.7C30.0023 18.3901 29.9015 18.0499 29.8714 17.6999C29.8413 17.3499 29.8825 16.9975 29.9926 16.6639C30.1026 16.3303 30.2792 16.0225 30.5117 15.7592C30.9775 15.2726 31.6108 14.9812 32.2834 14.9438C32.9559 14.9064 33.6176 15.1259 34.1344 15.5579L40.8567 20.9317L40.2328 21.7166L33.5105 16.3429C33.2081 16.0584 32.8086 15.9 32.3935 15.9C31.9783 15.9 31.5788 16.0584 31.2765 16.3429C31.1298 16.4973 31.018 16.6815 30.9485 16.8829C30.8791 17.0842 30.8537 17.2982 30.8739 17.5102C30.8913 17.7246 30.952 17.9332 31.0523 18.1235C31.1526 18.3138 31.2905 18.4817 31.4576 18.6172L37.6767 23.6085C38.2808 24.0896 38.7671 24.7024 39.0985 25.3999C39.4298 26.0975 39.5975 26.8616 39.5887 27.6338V39.6292Z" fill="#0D369C"/>
<path d="M22.904 70H21.8977V67.2627C21.8931 66.4479 21.7107 65.6438 21.363 64.9068C21.0154 64.1698 20.511 63.5177 19.885 62.9959L15.1553 58.9706L15.7993 58.2058L20.5492 62.2311C21.2754 62.853 21.8583 63.6247 22.2578 64.4933C22.6574 65.3619 22.8641 66.3067 22.8637 67.2627L22.904 70Z" fill="#0D369C"/>
<path d="M1.00634 70.0001H9.98609e-06V67.3031C-0.00167631 66.3321 0.210223 65.3727 0.620641 64.4927C1.03106 63.6127 1.62997 62.8338 2.37496 62.2111L7.18519 58.1858L7.82922 58.9506L3.01899 62.9759C2.38569 63.5001 1.87668 64.1584 1.52863 64.9032C1.18058 65.6481 1.00218 66.4609 1.00634 67.283V70.0001Z" fill="#0D369C"/>
<path d="M11.5123 60.7016C7.66818 60.7016 4.54858 57.0184 4.54858 52.4899C4.54858 47.9615 7.66818 44.2783 11.5123 44.2783C15.3565 44.2783 18.4761 47.9615 18.4761 52.4899C18.4761 57.0184 15.2961 60.7016 11.5123 60.7016ZM11.5123 45.2846C8.23172 45.2846 5.47439 48.525 5.47439 52.4899C5.47439 56.4549 8.15121 59.6952 11.5123 59.6952C14.8735 59.6952 17.5503 56.475 17.5503 52.4899C17.5503 48.5049 14.8131 45.2846 11.5123 45.2846Z" fill="#0D369C"/>
<path d="M44.8017 70H43.7954V67.2627C43.7908 66.4479 43.6084 65.6438 43.2607 64.9068C42.9131 64.1698 42.4087 63.5177 41.7827 62.9959L37.053 58.9706L37.697 58.2058L42.4268 62.2311C43.1597 62.8484 43.7486 63.6188 44.152 64.4881C44.5553 65.3574 44.7633 66.3044 44.7614 67.2627L44.8017 70Z" fill="#0D369C"/>
<path d="M22.904 67.3031H21.8977C21.896 66.3321 22.1079 65.3727 22.5183 64.4927C22.9287 63.6127 23.5277 62.8338 24.2727 62.2111L29.0829 58.1858L29.7269 58.9506L24.9167 62.9759C24.2808 63.5023 23.7702 64.1638 23.422 64.9123C23.0739 65.6609 22.8969 66.4776 22.904 67.3031Z" fill="#0D369C"/>
<path d="M33.4101 60.7016C29.5659 60.7016 26.4463 57.0184 26.4463 52.4899C26.4463 47.9615 29.5659 44.2783 33.4101 44.2783C37.2542 44.2783 40.3739 47.9615 40.3739 52.4899C40.3739 57.0184 37.2542 60.7016 33.4101 60.7016ZM33.4101 45.2846C30.1295 45.2846 27.3721 48.525 27.3721 52.4899C27.3721 56.4549 30.1295 59.7556 33.4101 59.7556C36.6907 59.7556 39.448 56.5354 39.448 52.5503C39.448 48.5653 36.7108 45.2846 33.4101 45.2846Z" fill="#0D369C"/>
<path d="M66.6993 70H65.6125V67.2627C65.608 66.4479 65.4255 65.6438 65.0779 64.9068C64.7302 64.1698 64.2258 63.5177 63.5999 62.9959L58.8701 58.9706L59.5142 58.2058L64.2439 62.2311C64.9769 62.8484 65.5658 63.6188 65.9691 64.4881C66.3725 65.3574 66.5805 66.3044 66.5786 67.2627L66.6993 70Z" fill="#0D369C"/>
<path d="M44.8017 67.3031H43.7954C43.7954 66.3344 44.0059 65.3772 44.4125 64.498C44.8191 63.6187 45.4121 62.8384 46.1502 62.2111L50.9806 58.1858L51.6246 58.9506L46.8144 62.9759C46.1785 63.5023 45.6678 64.1638 45.3197 64.9123C44.9715 65.6609 44.7946 66.4776 44.8017 67.3031Z" fill="#0D369C"/>
<path d="M55.3078 60.7016C51.4636 60.7016 48.344 57.0184 48.344 52.4899C48.344 47.9615 51.4636 44.2783 55.3078 44.2783C59.1519 44.2783 62.2715 47.9615 62.2715 52.4899C62.2715 57.0184 59.1519 60.7016 55.3078 60.7016ZM55.3078 45.2846C52.0272 45.2846 49.2698 48.525 49.2698 52.4899C49.2698 56.4549 51.9467 59.6952 55.3078 59.6952C58.6689 59.6952 61.3457 56.475 61.3457 52.4899C61.3457 48.5049 58.5884 45.2846 55.3078 45.2846Z" fill="#0D369C"/>
<path d="M24.8159 39.6693H23.8095V15.9402H18.5766V39.6693H17.5703V14.9338H24.8159V39.6693Z" fill="#0D369C"/>
<path d="M31.2768 39.6694H30.2704V29.7068H24.313V28.7004H31.2768V39.6694Z" fill="#0D369C"/>
<path d="M11.4319 39.6692H10.4255V23.1252H18.0736V24.1316H11.4319V39.6692Z" fill="#0D369C"/>
</svg>
