<svg width="68" height="70" viewBox="0 0 68 70" fill="none" xmlns="http://www.w3.org/2000/svg">
<path d="M48.8641 38.1541H44.3611V37.14H48.1745L51.4808 29.0264C51.4933 29.0011 51.4998 28.9734 51.4998 28.9452C51.4998 28.9171 51.4933 28.8893 51.4808 28.8641C51.4561 28.8498 51.4281 28.8423 51.3996 28.8423C51.3711 28.8423 51.3431 28.8498 51.3185 28.8641H16.0041C15.9794 28.8498 15.9514 28.8423 15.923 28.8423C15.8945 28.8423 15.8665 28.8498 15.8418 28.8641C15.8293 28.8893 15.8228 28.9171 15.8228 28.9452C15.8228 28.9734 15.8293 29.0011 15.8418 29.0264L19.1481 37.14H22.9615V38.1541H18.4382L14.8885 29.4523C14.8178 29.2703 14.7919 29.0738 14.8131 28.8796C14.8343 28.6855 14.9019 28.4992 15.0102 28.3367C15.1172 28.1714 15.2647 28.0362 15.4387 27.9439C15.6126 27.8517 15.8072 27.8053 16.0041 27.8093H51.2171C51.4139 27.8053 51.6085 27.8517 51.7825 27.9439C51.9564 28.0362 52.1039 28.1714 52.211 28.3367C52.3193 28.4992 52.3869 28.6855 52.4081 28.8796C52.4293 29.0738 52.4034 29.2703 52.3327 29.4523L48.8641 38.1541Z" fill="#0D369C"/>
<path d="M44.8072 46.5315H43.793V34.3611H23.5091V46.5315H22.4949V34.3611C22.4949 34.1029 22.5975 33.8552 22.7801 33.6726C22.9626 33.49 23.2103 33.3875 23.4685 33.3875H43.8742C44.1324 33.3875 44.3801 33.49 44.5627 33.6726C44.7453 33.8552 44.8478 34.1029 44.8478 34.3611L44.8072 46.5315Z" fill="#0D369C"/>
<path d="M46.1866 28.3165H45.1724V25.2942C45.1829 24.39 44.9917 23.4948 44.6128 22.6737C44.2338 21.8527 43.6767 21.1264 42.9818 20.5477L37.7688 16.065L38.4179 15.2942L43.6511 19.7364C44.4459 20.4194 45.0838 21.2659 45.5214 22.2181C45.959 23.1703 46.1859 24.2057 46.1866 25.2536V28.3165Z" fill="#0D369C"/>
<path d="M22.0486 28.3165H21.0344V25.3348C21.0323 24.2687 21.2636 23.215 21.7122 22.2478C22.1607 21.2807 22.8156 20.4235 23.6308 19.7364L28.9452 15.2739L29.5943 16.0447L24.2799 20.5275C23.5777 21.1113 23.0135 21.8433 22.6278 22.6709C22.242 23.4986 22.0442 24.4014 22.0486 25.3145V28.3165Z" fill="#0D369C"/>
<path d="M33.6917 18.0122C29.4726 18.0122 26.0447 13.9554 26.0447 9.00608C26.0447 4.05679 29.4726 0 33.6917 0C37.9108 0 41.3185 4.05679 41.3185 9.00608C41.3185 13.9554 37.8905 18.0122 33.6917 18.0122ZM33.6917 1.0142C30.0406 1.0142 27.0589 4.60446 27.0589 9.00608C27.0589 13.4077 30.0406 16.998 33.6917 16.998C37.3428 16.998 40.3043 13.428 40.3043 9.00608C40.3043 4.58417 37.3428 1.0142 33.6917 1.0142Z" fill="#0D369C"/>
<path d="M23.0832 69.9999H22.069V67.2413C22.0633 66.4174 21.8791 65.6044 21.5289 64.8585C21.1787 64.1127 20.6709 63.4516 20.0406 62.9208L15.2739 58.8641L15.923 58.0933L20.71 62.1501C21.4424 62.7808 22.0299 63.5622 22.4325 64.4409C22.8351 65.3196 23.0432 66.2748 23.0427 67.2413L23.0832 69.9999Z" fill="#0D369C"/>
<path d="M1.0142 69.9999H0V67.2616C0.00126988 66.2865 0.216233 65.3235 0.629758 64.4403C1.04328 63.5572 1.64531 62.7755 2.39349 62.1501L7.24136 58.0933L7.91074 58.8641L3.0426 62.9208C2.40651 63.4511 1.89499 64.1149 1.54442 64.8651C1.19385 65.6153 1.01283 66.4335 1.0142 67.2616V69.9999Z" fill="#0D369C"/>
<path d="M11.6025 60.6289C7.72826 60.6289 4.58423 56.9169 4.58423 52.353C4.58423 47.7891 7.72826 44.0771 11.6025 44.0771C15.4767 44.0771 18.641 47.7891 18.641 52.353C18.641 56.9169 15.4767 60.6289 11.6025 60.6289ZM11.6025 45.0913C8.29621 45.0913 5.5173 48.3571 5.5173 52.353C5.5173 56.349 8.21507 59.6147 11.6025 59.6147C14.9899 59.6147 17.6877 56.349 17.6877 52.353C17.6877 48.3571 14.9291 45.0913 11.6025 45.0913Z" fill="#0D369C"/>
<path d="M45.1521 69.9999H44.1379V67.2413C44.1322 66.4174 43.9479 65.6044 43.5977 64.8585C43.2475 64.1127 42.7398 63.4516 42.1095 62.9208L37.3428 58.8641L37.9919 58.0933L42.7789 62.1501C43.5112 62.7808 44.0988 63.5622 44.5013 64.4409C44.9039 65.3196 45.1121 66.2748 45.1115 67.2413L45.1521 69.9999Z" fill="#0D369C"/>
<path d="M23.083 67.2616H22.0688C22.0775 66.2817 22.302 65.3156 22.7262 64.4322C23.1503 63.5488 23.7639 62.7696 24.5232 62.1501L29.3711 58.0933L30.0405 58.8641L25.1723 62.9208C24.5229 63.4432 23.9984 64.104 23.6369 64.855C23.2755 65.606 23.0862 66.4282 23.083 67.2616Z" fill="#0D369C"/>
<path d="M33.6713 60.6289C29.7971 60.6289 26.6531 56.9169 26.6531 52.353C26.6531 47.7891 29.7971 44.0771 33.6713 44.0771C37.5456 44.0771 40.7504 47.7891 40.7504 52.353C40.7504 56.9169 37.5456 60.6289 33.6713 60.6289ZM33.6713 45.0913C30.3651 45.0913 27.5861 48.3571 27.5861 52.353C27.5861 56.349 30.2839 59.6147 33.6713 59.6147C37.0588 59.6147 39.7565 56.349 39.7565 52.353C39.7565 48.3571 36.9979 45.0913 33.6713 45.0913Z" fill="#0D369C"/>
<path d="M67.2211 69.9999H66.2069V67.2413C66.2012 66.4174 66.017 65.6044 65.6668 64.8585C65.3166 64.1127 64.8088 63.4516 64.1785 62.9208L59.4119 58.8641L60.0609 58.0933L64.848 62.1501C65.5803 62.7808 66.1678 63.5622 66.5704 64.4409C66.973 65.3196 67.1812 66.2748 67.1806 67.2413L67.2211 69.9999Z" fill="#0D369C"/>
<path d="M45.1521 67.2616H44.1379C44.1392 66.2865 44.3541 65.3235 44.7677 64.4403C45.1812 63.5572 45.7832 62.7754 46.5314 62.1501L51.3793 58.0933L52.0284 58.8641L47.1805 62.9208C46.5423 63.4492 46.0293 64.1126 45.6785 64.8633C45.3277 65.6139 45.148 66.4331 45.1521 67.2616Z" fill="#0D369C"/>
<path d="M55.7405 60.6289C51.8662 60.6289 48.7222 56.9169 48.7222 52.353C48.7222 47.7891 51.8662 44.0771 55.7405 44.0771C59.6147 44.0771 62.7587 47.7891 62.7587 52.353C62.7587 56.9169 59.6147 60.6289 55.7405 60.6289ZM55.7405 45.0913C52.4342 45.0913 49.6553 48.3571 49.6553 52.353C49.6553 56.349 52.353 59.6147 55.7405 59.6147C59.1279 59.6147 61.8257 56.349 61.8257 52.353C61.8257 48.3571 59.0062 45.0913 55.7405 45.0913Z" fill="#0D369C"/>
</svg>
