<svg width="60" height="70" viewBox="0 0 60 70" fill="none" xmlns="http://www.w3.org/2000/svg">
<path d="M56.1151 55.2067H52.2024V54.3134H55.5255L58.3841 47.3099C58.3939 47.2873 58.399 47.263 58.399 47.2384C58.399 47.2138 58.3939 47.1895 58.3841 47.1669C58.3643 47.1586 58.343 47.1543 58.3215 47.1543C58.3 47.1543 58.2788 47.1586 58.259 47.1669H1.08702C1.06723 47.1586 1.04596 47.1543 1.02448 47.1543C1.003 47.1543 0.981733 47.1586 0.961943 47.1669C0.947341 47.1879 0.93948 47.2128 0.93948 47.2384C0.93948 47.2639 0.947341 47.2889 0.961943 47.3099L3.82056 54.3134H7.09006V55.2067H3.15946L0.0864597 47.6493C0.0168601 47.4914 -0.0114423 47.3183 0.00418373 47.1465C0.0198097 46.9746 0.0788842 46.8095 0.175824 46.6667C0.272486 46.5234 0.402864 46.4061 0.555525 46.3251C0.708187 46.2441 0.878432 46.2019 1.05125 46.2021H58.2233C58.3931 46.2048 58.5597 46.2484 58.709 46.3293C58.8583 46.4101 58.9859 46.5259 59.0809 46.6667C59.1763 46.8098 59.2358 46.9739 59.2545 47.1449C59.2731 47.3159 59.2504 47.4889 59.1881 47.6493L56.1151 55.2067Z" fill="#0D369C"/>
<path d="M52.6489 70.0001H51.7556V51.848H7.53662V69.9107H6.64331V51.848C6.64331 51.6253 6.73179 51.4117 6.88927 51.2542C7.04674 51.0967 7.26032 51.0082 7.48303 51.0082H51.7556C51.8674 51.0059 51.9785 51.0258 52.0824 51.067C52.1864 51.1081 52.2811 51.1696 52.361 51.2478C52.4409 51.326 52.5043 51.4194 52.5476 51.5224C52.5909 51.6255 52.6132 51.7362 52.6132 51.848L52.6489 70.0001Z" fill="#0D369C"/>
<path d="M30.209 40.3599H29.3157V46.6667H30.209V40.3599Z" fill="#0D369C"/>
<path d="M31.8527 40.8065H27.4755C27.0854 40.8018 26.7128 40.6435 26.4385 40.3659C26.1643 40.0883 26.0105 39.7138 26.0105 39.3236V34.1067C26.0105 33.7165 26.1643 33.342 26.4385 33.0644C26.7128 32.7868 27.0854 32.6285 27.4755 32.6238H31.8527C32.246 32.6238 32.6232 32.78 32.9013 33.0581C33.1794 33.3362 33.3357 33.7134 33.3357 34.1067V39.3236C33.3357 39.7169 33.1794 40.0941 32.9013 40.3722C32.6232 40.6503 32.246 40.8065 31.8527 40.8065ZM27.4755 33.5171C27.3989 33.5171 27.3231 33.5324 27.2525 33.5623C27.182 33.5921 27.1181 33.6358 27.0648 33.6908C27.0115 33.7458 26.9697 33.811 26.9421 33.8824C26.9144 33.9538 26.9014 34.0301 26.9038 34.1067V39.3236C26.9014 39.4002 26.9144 39.4765 26.9421 39.5479C26.9697 39.6193 27.0115 39.6845 27.0648 39.7395C27.1181 39.7945 27.182 39.8382 27.2525 39.868C27.3231 39.8979 27.3989 39.9132 27.4755 39.9132H31.8527C32.0091 39.9132 32.1591 39.8511 32.2697 39.7405C32.3803 39.63 32.4424 39.48 32.4424 39.3236V34.1067C32.4424 33.9503 32.3803 33.8003 32.2697 33.6898C32.1591 33.5792 32.0091 33.5171 31.8527 33.5171H27.4755Z" fill="#0D369C"/>
<path d="M50.1835 46.6487H49.2902V41.6283C49.2937 40.0681 48.9565 38.5259 48.3023 37.1095C47.6481 35.6931 46.6926 34.4366 45.5025 33.4276L36.8374 26.0131L37.4627 25.3342L46.1457 32.7487C47.4335 33.8529 48.4664 35.2235 49.1727 36.7659C49.8791 38.3082 50.2423 39.9855 50.2371 41.6819L50.1835 46.6487Z" fill="#0D369C"/>
<path d="M10.0559 46.6487H9.1626V41.6997C9.16383 39.9974 9.53701 38.3158 10.2561 36.7728C10.9751 35.2297 12.0227 33.8625 13.3254 32.7666L22.1692 25.3342L22.741 26.0131L13.8971 33.4276C12.688 34.4392 11.7169 35.705 11.0529 37.1348C10.389 38.5646 10.0485 40.1233 10.0559 41.6997V46.6487Z" fill="#0D369C"/>
<path d="M29.7981 29.1399C23.0089 29.1399 17.4883 22.6187 17.4883 14.5789C17.4883 6.53905 23.0089 0 29.7981 0C36.5873 0 42.0901 6.53905 42.0901 14.5789C42.0901 22.6187 36.5694 29.1399 29.7981 29.1399ZM29.7981 0.893313C23.5092 0.893313 18.3816 7.03931 18.3816 14.5789C18.3816 22.1184 23.5092 28.2465 29.7981 28.2465C36.087 28.2465 41.1968 22.1184 41.1968 14.5789C41.1968 7.03931 36.0692 0.893313 29.7981 0.893313Z" fill="#0D369C"/>
</svg>
