<svg width="67" height="67" viewBox="0 0 67 67" fill="none" xmlns="http://www.w3.org/2000/svg">
<g clip-path="url(#clip0)">
<path d="M65.5352 65.0413H59.271V26.7458C59.271 26.2109 58.8373 25.7771 58.3022 25.7771H47.9696C47.4345 25.7771 47.0009 26.2109 47.0009 26.7458V65.0413H39.6389V38.1117C39.6389 37.5768 39.2053 37.143 38.6702 37.143H28.3376C27.8025 37.143 27.3689 37.5768 27.3689 38.1117V65.0413H20.0069V43.2781C20.0069 42.7431 19.5733 42.3093 19.0382 42.3093H8.70557C8.17048 42.3093 7.73684 42.7431 7.73684 43.2781V65.0412H1.47264C0.937547 65.0412 0.503906 65.4749 0.503906 66.0099C0.503906 66.5449 0.937547 66.9786 1.47264 66.9786H65.5352C66.0703 66.9786 66.5039 66.5449 66.5039 66.0099C66.5038 65.4749 66.0703 65.0413 65.5352 65.0413ZM18.0694 65.0413H9.67417V44.2468H18.0694V65.0413ZM37.7016 65.0413H29.3063V39.0805H37.7016V65.0413ZM57.3336 65.0413H48.9384V27.7146H57.3336V65.0413Z" fill="black"/>
<path d="M63.4109 1.73847C62.758 1.16213 61.8891 0.89362 61.0254 1.00216L52.7593 2.03547C51.1183 2.24056 49.9187 3.78086 50.124 5.42351C50.3315 7.08344 51.8501 8.26641 53.5122 8.05887L54.1867 7.9747C44.0411 19.7382 31.9797 25.8176 23.4567 28.873C12.8295 32.6828 4.55801 33.0087 4.47745 33.0114C2.80644 33.0636 1.48798 34.4657 1.53851 36.137C1.58853 37.7875 2.92052 39.0803 4.57116 39.0803C4.60184 39.0803 4.63265 39.0799 4.66423 39.0789C5.032 39.0678 13.8003 38.7582 25.3523 34.6419C31.8463 32.3278 37.957 29.2558 43.5143 25.5115C43.9579 25.2127 44.0753 24.6104 43.7762 24.1669C43.4774 23.723 42.8754 23.6059 42.4316 23.9048C37.0087 27.5588 31.0436 30.5573 24.7019 32.817C13.4339 36.832 4.96059 37.1316 4.60623 37.1423L4.57116 37.1428C3.97459 37.1428 3.49299 36.6753 3.47494 36.0783C3.45664 35.4738 3.93359 34.9666 4.53842 34.9477C4.62298 34.945 13.1305 34.6328 24.1105 30.6966C33.3091 27.3991 46.5264 20.6659 57.2557 7.31586C57.7898 6.65122 57.2251 5.64201 56.3806 5.74784L53.2725 6.13637C52.7336 6.20301 52.2103 5.84994 52.0735 5.32374C51.909 4.69055 52.3514 4.0388 52.9998 3.95759L61.2662 2.92428C61.9116 2.84268 62.5 3.36437 62.5 4.01367V12.2798C62.5 12.8851 62.0075 13.3777 61.4021 13.3777C60.7966 13.3777 60.3042 12.8853 60.3042 12.2798V9.77384C60.3042 9.37797 60.0482 9.00775 59.6779 8.86789C59.2955 8.72339 58.8435 8.84469 58.5849 9.16128C54.9669 13.5945 50.8473 17.6061 46.3404 21.0845C45.9169 21.4114 45.8384 22.0197 46.1653 22.4433C46.4922 22.8669 47.1008 22.9451 47.5241 22.6183C51.45 19.5884 55.089 16.1645 58.3699 12.4166C58.4416 14.027 59.7742 15.3153 61.4022 15.3153C63.0758 15.3153 64.4374 13.9536 64.4374 12.28V4.01393C64.4373 3.14381 64.0632 2.3143 63.4109 1.73847Z" fill="black"/>
</g>
<defs>
<clipPath id="clip0">
<rect width="66" height="66" fill="white" transform="translate(0.503906 0.978516)"/>
</clipPath>
</defs>
</svg>
