<svg width="75" height="75" viewBox="0 0 75 75" fill="none" xmlns="http://www.w3.org/2000/svg">
<path d="M57.0094 14.5375C56.847 14.5376 56.687 14.4981 56.5432 14.4225C56.3995 14.3469 56.2763 14.2374 56.1844 14.1035C55.6405 13.3122 55.0388 12.5621 54.3844 11.8595C54.2105 11.6645 54.1199 11.4091 54.1319 11.1481C54.1439 10.8871 54.2576 10.6411 54.4487 10.4629C54.6397 10.2847 54.893 10.1883 55.1542 10.1944C55.4154 10.2005 55.6638 10.3085 55.8464 10.4955C56.5674 11.2706 57.2299 12.0982 57.8284 12.9715C57.9314 13.1216 57.9915 13.2969 58.0022 13.4786C58.0129 13.6604 57.9738 13.8416 57.8892 14.0027C57.8045 14.1639 57.6774 14.2988 57.5217 14.3931C57.3659 14.4873 57.1874 14.5372 57.0054 14.5375H57.0094Z" fill="black"/>
<path d="M49.809 55.3875H25.849C25.5838 55.3875 25.3294 55.2821 25.1419 55.0946C24.9543 54.907 24.849 54.6527 24.849 54.3875V53.9475C24.849 49.1345 23.308 47.3355 20.24 43.7475C19.903 43.3545 19.551 42.9474 19.184 42.5084C15.4923 38.1127 13.4656 32.5578 13.459 26.8175C13.459 23.5054 14.1344 20.2281 15.4437 17.1857C16.753 14.1434 18.6688 11.4 21.0741 9.12303C23.4793 6.84606 26.3236 5.08338 29.433 3.94265C32.5425 2.80193 35.8519 2.30712 39.159 2.48845C42.8164 2.68036 46.3805 3.71203 49.575 5.50345C49.8017 5.63505 49.9677 5.85041 50.0372 6.10317C50.1067 6.35593 50.0742 6.62587 49.9466 6.85488C49.819 7.0839 49.6067 7.25367 49.3552 7.32766C49.1037 7.40164 48.8332 7.37391 48.602 7.25045C45.6743 5.60862 42.408 4.66254 39.056 4.48545C36.0198 4.31809 32.9814 4.7716 30.1264 5.81828C27.2714 6.86496 24.6598 8.48281 22.4513 10.573C20.2427 12.6631 18.4835 15.1817 17.2813 17.9747C16.0791 20.7678 15.459 23.7766 15.459 26.8175C15.4643 32.0881 17.3251 37.1886 20.715 41.2244C21.077 41.6544 21.426 42.0615 21.759 42.4505C24.719 45.9075 26.709 48.2315 26.842 53.3875H48.829C49.048 48.0564 51.068 45.7155 54.574 41.6544L54.782 41.4145C57.4861 38.2771 59.2623 34.4482 59.911 30.3575C59.9315 30.2277 59.9773 30.1033 60.0459 29.9912C60.1145 29.8792 60.2044 29.7818 60.3107 29.7045C60.4169 29.6273 60.5373 29.5717 60.665 29.541C60.7927 29.5102 60.9252 29.505 61.055 29.5255C61.1847 29.5459 61.3092 29.5918 61.4212 29.6604C61.5332 29.7289 61.6307 29.8189 61.7079 29.9251C61.7852 30.0314 61.8408 30.1518 61.8715 30.2795C61.9022 30.4072 61.9075 30.5397 61.887 30.6695C61.179 35.1261 59.2433 39.2974 56.297 42.7155L56.088 42.9575C52.463 47.1575 50.809 49.0724 50.809 54.3834C50.8095 54.5151 50.784 54.6456 50.734 54.7674C50.684 54.8892 50.6104 54.9999 50.5175 55.0931C50.4246 55.1864 50.3142 55.2604 50.1926 55.311C50.071 55.3615 49.9406 55.3875 49.809 55.3875Z" fill="black"/>
<path d="M60.8365 23.7075C60.6025 23.7073 60.3759 23.625 60.1963 23.475C60.0167 23.325 59.8954 23.1167 59.8535 22.8865C59.6834 21.951 59.4532 21.0274 59.1645 20.1215C59.0839 19.8687 59.107 19.5943 59.2287 19.3585C59.3504 19.1228 59.5608 18.9451 59.8135 18.8645C60.0663 18.7838 60.3407 18.8069 60.5764 18.9286C60.8122 19.0503 60.9899 19.2607 61.0705 19.5135C61.3848 20.5014 61.6357 21.5085 61.8215 22.5285C61.8477 22.6727 61.842 22.8209 61.8046 22.9626C61.7672 23.1043 61.6991 23.2361 61.6051 23.3486C61.5111 23.4611 61.3935 23.5515 61.2607 23.6135C61.1279 23.6756 60.9831 23.7076 60.8365 23.7075Z" fill="black"/>
<path d="M51.8403 62.7347H23.8183C23.2561 62.7342 22.7171 62.5107 22.3194 62.1132C21.9218 61.7158 21.6981 61.1769 21.6973 60.6147V55.5087C21.6978 54.9463 21.9214 54.4072 22.3191 54.0095C22.7167 53.6119 23.2559 53.3882 23.8183 53.3877H51.8403C52.4026 53.3882 52.9418 53.6119 53.3395 54.0095C53.7371 54.4072 53.9608 54.9463 53.9613 55.5087V60.6147C53.9605 61.1769 53.7367 61.7158 53.3391 62.1132C52.9415 62.5107 52.4025 62.7342 51.8403 62.7347ZM23.8183 55.3877C23.7862 55.3877 23.7554 55.4004 23.7327 55.4231C23.71 55.4458 23.6973 55.4766 23.6973 55.5087V60.6147C23.6975 60.6466 23.7104 60.6771 23.7331 60.6996C23.7557 60.7221 23.7863 60.7347 23.8183 60.7347H51.8403C51.8722 60.7347 51.9028 60.7221 51.9255 60.6996C51.9482 60.6771 51.961 60.6466 51.9613 60.6147V55.5087C51.9613 55.4766 51.9485 55.4458 51.9258 55.4231C51.9031 55.4004 51.8724 55.3877 51.8403 55.3877H23.8183Z" fill="black"/>
<path d="M44.0863 72.4574H31.5703C30.6421 72.4574 29.7518 72.0886 29.0954 71.4323C28.4391 70.7759 28.0703 69.8856 28.0703 68.9574V61.7344C28.0703 61.4692 28.1757 61.2148 28.3632 61.0273C28.5507 60.8397 28.8051 60.7344 29.0703 60.7344H46.5853C46.8505 60.7344 47.1049 60.8397 47.2924 61.0273C47.48 61.2148 47.5853 61.4692 47.5853 61.7344V68.9574C47.5853 69.8855 47.2167 70.7756 46.5605 71.4319C45.9044 72.0883 45.0144 72.4571 44.0863 72.4574ZM30.0713 62.7344V68.9574C30.0713 69.3552 30.2293 69.7367 30.5107 70.018C30.792 70.2993 31.1735 70.4574 31.5713 70.4574H44.0863C44.4841 70.4574 44.8657 70.2993 45.147 70.018C45.4283 69.7367 45.5863 69.3552 45.5863 68.9574V62.7344H30.0713Z" fill="black"/>
<path d="M29.0754 67.2185H23.8184C23.5531 67.2185 23.2988 67.1132 23.1113 66.9256C22.9237 66.7381 22.8184 66.4837 22.8184 66.2185C22.8184 65.9533 22.9237 65.6989 23.1113 65.5114C23.2988 65.3239 23.5531 65.2185 23.8184 65.2185H29.0754C29.3406 65.2185 29.5949 65.3239 29.7825 65.5114C29.97 65.6989 30.0754 65.9533 30.0754 66.2185C30.0754 66.4837 29.97 66.7381 29.7825 66.9256C29.5949 67.1132 29.3406 67.2185 29.0754 67.2185Z" fill="black"/>
<path d="M51.839 67.2185H46.582C46.3168 67.2185 46.0625 67.1132 45.8749 66.9256C45.6874 66.7381 45.582 66.4837 45.582 66.2185C45.582 65.9533 45.6874 65.6989 45.8749 65.5114C46.0625 65.3239 46.3168 65.2185 46.582 65.2185H51.839C52.1042 65.2185 52.3586 65.3239 52.5461 65.5114C52.7337 65.6989 52.839 65.9533 52.839 66.2185C52.839 66.4837 52.7337 66.7381 52.5461 66.9256C52.3586 67.1132 52.1042 67.2185 51.839 67.2185Z" fill="black"/>
<path d="M44.3045 32.9805C44.1067 32.9804 43.9134 32.9218 43.749 32.8119C43.5846 32.702 43.4565 32.5458 43.3808 32.3631C43.3051 32.1804 43.2853 31.9794 43.3239 31.7855C43.3625 31.5915 43.4577 31.4133 43.5975 31.2735L48.4135 26.4575L43.5975 21.6415C43.4153 21.4529 43.3145 21.2003 43.3168 20.9381C43.3191 20.6759 43.4242 20.4251 43.6097 20.2397C43.7951 20.0543 44.0459 19.9491 44.3081 19.9468C44.5703 19.9445 44.8229 20.0453 45.0115 20.2275L50.5345 25.7505C50.7219 25.938 50.8273 26.1923 50.8273 26.4575C50.8273 26.7226 50.7219 26.977 50.5345 27.1645L45.0115 32.6875C44.824 32.875 44.5697 32.9804 44.3045 32.9805Z" fill="black"/>
<path d="M31.3509 32.9805C31.0857 32.9804 30.8314 32.875 30.6439 32.6875L25.1209 27.1645C24.9334 26.977 24.8281 26.7226 24.8281 26.4575C24.8281 26.1923 24.9334 25.938 25.1209 25.7505L30.6439 20.2275C30.8325 20.0453 31.0851 19.9445 31.3473 19.9468C31.6095 19.9491 31.8603 20.0543 32.0457 20.2397C32.2311 20.4251 32.3363 20.6759 32.3386 20.9381C32.3409 21.2003 32.2401 21.4529 32.0579 21.6415L27.2419 26.4575L32.0579 31.2735C32.1977 31.4133 32.2929 31.5915 32.3315 31.7855C32.3701 31.9794 32.3503 32.1804 32.2746 32.3631C32.1989 32.5458 32.0708 32.702 31.9064 32.8119C31.742 32.9218 31.5487 32.9804 31.3509 32.9805Z" fill="black"/>
<path d="M35.6888 37.4576C35.6182 37.4576 35.5478 37.4503 35.4788 37.4356C35.3503 37.4082 35.2284 37.3557 35.1202 37.2811C35.0119 37.2066 34.9194 37.1114 34.848 37.0011C34.7766 36.8907 34.7276 36.7674 34.7039 36.6381C34.6802 36.5088 34.6822 36.3761 34.7098 36.2476L38.9918 16.2406C39.0193 16.1122 39.0719 15.9904 39.1464 15.8823C39.221 15.7742 39.3161 15.6818 39.4264 15.6104C39.5367 15.5391 39.6599 15.4901 39.7891 15.4664C39.9183 15.4427 40.0509 15.4446 40.1793 15.4721C40.3077 15.4996 40.4295 15.5522 40.5376 15.6268C40.6458 15.7013 40.7381 15.7965 40.8095 15.9067C40.8809 16.017 40.9298 16.1402 40.9535 16.2694C40.9773 16.3986 40.9753 16.5312 40.9478 16.6596L36.6658 36.6706C36.6172 36.8936 36.4938 37.0932 36.3161 37.2364C36.1383 37.3796 35.917 37.4576 35.6888 37.4576Z" fill="black"/>
</svg>
