<svg width="69" height="70" viewBox="0 0 69 70" fill="none" xmlns="http://www.w3.org/2000/svg">
<g clip-path="url(#clip0)">
<path d="M5.78125 10.2549C7.10831 10.2549 7.11044 8.2334 5.78125 8.2334C4.45419 8.2334 4.45206 10.2549 5.78125 10.2549Z" fill="black"/>
<path d="M9.34375 10.2549C10.6708 10.2549 10.6729 8.2334 9.34375 8.2334C8.01669 8.2334 8.01456 10.2549 9.34375 10.2549Z" fill="black"/>
<path d="M12.9083 10.2549C14.2353 10.2549 14.2374 8.2334 12.9083 8.2334C11.5812 8.2334 11.5789 10.2549 12.9083 10.2549Z" fill="black"/>
<path d="M67.2168 4.38135H1.20898C0.658875 4.38135 0.212891 4.83389 0.212891 5.39209V64.0151C0.212891 64.5733 0.658875 65.0259 1.20898 65.0259H67.2168C67.7669 65.0259 68.2129 64.5733 68.2129 64.0151V5.39209C68.2129 4.83389 67.7669 4.38135 67.2168 4.38135ZM66.2207 6.40283V12.1003C63.9864 12.1292 61.7521 12.1243 59.4214 12.0855C58.1415 12.0704 58.1028 14.0853 59.3887 14.1067C60.7354 14.1292 66.2207 14.1219 66.2207 14.1219V29.6049H2.20508V14.1094L53.389 14.1068C54.6841 14.1035 54.6531 12.1479 53.384 12.0854C36.3504 12.1294 19.1376 12.1302 2.20508 12.0879V6.40283H66.2207ZM2.20508 31.6265H22.2365V37.5884C22.2365 38.8532 24.2287 38.9109 24.2287 37.5884V31.6265H44.2129V63.0044H24.2287V43.4088C24.2287 42.144 22.2365 42.0863 22.2365 43.4088V63.0044H2.20508V31.6265ZM46.2051 63.0044V31.6265H66.2207V63.0044H46.2051Z" fill="black"/>
<path d="M49.1535 19.1382H19.2707C18.0243 19.1382 17.9674 21.1597 19.2707 21.1597H49.1535C50.4 21.1597 50.4568 19.1382 49.1535 19.1382Z" fill="black"/>
<path d="M43.6418 23.5029H24.7824C23.536 23.5029 23.4792 25.5244 24.7824 25.5244H43.6418C44.8883 25.5244 44.9451 23.5029 43.6418 23.5029Z" fill="black"/>
<path d="M10.4308 43.0452C10.9003 43.4399 11.3699 43.4399 11.8394 43.0452L16.5131 38.3029C17.3946 37.4086 16.0261 35.9385 15.1045 36.8736L11.1351 40.9012L9.39951 39.14C8.51816 38.2457 7.06918 39.6343 7.9909 40.5693L10.4308 43.0452Z" fill="black"/>
<path d="M6.55393 48.8765H17.9506C19.197 48.8765 19.2539 46.855 17.9506 46.855H6.55393C5.30748 46.855 5.25064 48.8765 6.55393 48.8765Z" fill="black"/>
<path d="M17.9506 51.2573H6.55393C5.30748 51.2573 5.25064 53.2788 6.55393 53.2788H17.9506C19.197 53.2788 19.2539 51.2573 17.9506 51.2573Z" fill="black"/>
<path d="M15.5599 55.6597H8.94455C7.69811 55.6597 7.64126 57.6812 8.94455 57.6812H15.5599C16.8064 57.6812 16.8632 55.6597 15.5599 55.6597Z" fill="black"/>
<path d="M32.3917 43.0452C32.8612 43.4399 33.3309 43.4399 33.8003 43.0452L38.4739 38.3029C39.3554 37.4086 37.9867 35.9385 37.0653 36.8736L33.096 40.9012L31.3604 39.1401C30.4791 38.2458 29.0301 39.6344 29.9518 40.5694L32.3917 43.0452Z" fill="black"/>
<path d="M28.5149 48.8765H39.9115C41.1579 48.8765 41.2148 46.855 39.9115 46.855H28.5149C27.2684 46.855 27.2116 48.8765 28.5149 48.8765Z" fill="black"/>
<path d="M28.5149 53.2788H39.9115C41.1579 53.2788 41.2148 51.2573 39.9115 51.2573H28.5149C27.2684 51.2573 27.2116 53.2788 28.5149 53.2788Z" fill="black"/>
<path d="M37.5209 55.6597H30.9055C29.659 55.6597 29.6022 57.6812 30.9055 57.6812H37.5209C38.7673 57.6812 38.8242 55.6597 37.5209 55.6597Z" fill="black"/>
<path d="M54.3683 43.0452C54.8378 43.4399 55.3074 43.4399 55.7769 43.0452L60.4504 38.3029C61.3319 37.4086 59.9633 35.9385 59.0418 36.8736L55.0726 40.9012L53.337 39.1401C52.4557 38.2458 51.0067 39.6344 51.9284 40.5694L54.3683 43.0452Z" fill="black"/>
<path d="M61.8881 46.855H50.4914C49.245 46.855 49.1881 48.8765 50.4914 48.8765H61.8881C63.1346 48.8765 63.1913 46.855 61.8881 46.855Z" fill="black"/>
<path d="M61.8881 51.2573H50.4914C49.245 51.2573 49.1881 53.2788 50.4914 53.2788H61.8881C63.1346 53.2788 63.1913 51.2573 61.8881 51.2573Z" fill="black"/>
<path d="M59.4974 55.6597H52.882C51.6356 55.6597 51.5788 57.6812 52.882 57.6812H59.4974C60.744 57.6812 60.8007 55.6597 59.4974 55.6597Z" fill="black"/>
</g>
<defs>
<clipPath id="clip0">
<rect width="68" height="69" fill="white" transform="translate(0.212891 0.203613)"/>
</clipPath>
</defs>
</svg>
