<svg width="73" height="73" viewBox="0 0 73 73" fill="none" xmlns="http://www.w3.org/2000/svg">
<g clip-path="url(#clip0)">
<path d="M6.15039 11.1919C7.55552 11.1919 7.55777 9.08252 6.15039 9.08252C4.74527 9.08252 4.74302 11.1919 6.15039 11.1919Z" fill="black"/>
<path d="M9.92383 11.1919C11.329 11.1919 11.3312 9.08252 9.92383 9.08252C8.5187 9.08252 8.51645 11.1919 9.92383 11.1919Z" fill="black"/>
<path d="M13.6973 11.1919C15.1024 11.1919 15.1047 9.08252 13.6973 9.08252C12.2922 9.08252 12.2898 11.1919 13.6973 11.1919Z" fill="black"/>
<path d="M71.2012 5.06299H1.31055C0.728078 5.06299 0.255859 5.53521 0.255859 6.11768V67.2896C0.255859 67.872 0.728078 68.3442 1.31055 68.3442H58.3691C59.689 68.3442 59.7491 66.2349 58.3691 66.2349H2.36523V47.0303H70.1465V66.2349H63.9926C62.6727 66.2349 62.6126 68.3442 63.9926 68.3442H71.2012C71.7838 68.3442 72.2559 67.872 72.2559 67.2896V6.11768C72.2559 5.53521 71.7838 5.06299 71.2012 5.06299ZM70.1465 7.17236V13.1021H18.9694C18.9612 13.102 18.9529 13.102 18.9448 13.1021H2.36523V7.17236H70.1465ZM2.36523 40.6283C6.63784 39.9474 8.08164 36.0545 8.08445 32.2513C8.08698 29.0654 8.08938 25.7711 10.6525 24.0784C11.7539 23.3513 10.6414 21.5576 9.49014 22.3182C5.98084 24.6356 5.97761 28.8573 5.97508 32.2496C5.97311 34.9247 5.35998 37.733 2.36523 38.4721V15.2113H17.6552C17.2183 16.5834 16.3203 17.7763 14.974 18.7686C13.9105 19.5524 15.1213 21.2807 16.2254 20.4665C18.1199 19.0701 19.3561 17.2674 19.8406 15.2113H70.1465V28.5772C67.0589 29.1397 64.9341 31.6152 64.0726 34.5296C63.2279 37.3871 62.2323 37.6579 60.8543 38.0327C57.5205 38.9397 55.8792 41.5346 55.9652 44.9209H2.36523V40.6283ZM58.0782 44.9209C58.0013 42.4784 59.0059 40.7217 61.408 40.0681C63.0528 39.6206 64.9171 39.1135 66.0955 35.1276C67.0094 32.0361 68.9478 31.0482 70.1466 30.7331V44.921H58.0782V44.9209Z" fill="black"/>
<path d="M59.6004 52.4534H12.9129C11.5931 52.4534 11.533 54.5627 12.9129 54.5627H59.6004C60.9203 54.5627 60.9804 52.4534 59.6004 52.4534Z" fill="black"/>
<path d="M21.3504 58.8606C20.0306 58.8606 19.9705 60.97 21.3504 60.97H51.1629C52.4828 60.97 52.5429 58.8606 51.1629 58.8606H21.3504Z" fill="black"/>
<path d="M49.6282 26.9507C50.8543 26.4622 50.1295 24.481 48.8473 24.9911L44.5509 26.7029C40.1008 17.742 26.609 20.7162 26.4684 30.8557C26.4684 31.8572 26.6239 32.8233 26.912 33.7309L22.6331 35.4359C21.4015 35.9265 22.1477 37.8998 23.4138 37.3955L27.7715 35.6592C33.4195 44.9115 47.4972 39.4126 45.2573 28.6923L49.6282 26.9507ZM28.5779 30.8556C28.6805 23.0417 39.0263 20.658 42.5848 27.4863L28.8785 32.9474C28.6829 32.2838 28.5779 31.5818 28.5779 30.8556ZM43.3961 30.8556C43.3296 38.2703 33.7428 40.9949 29.7601 34.8668L43.2688 29.4845C43.3524 29.929 43.3961 30.3873 43.3961 30.8556Z" fill="black"/>
<path d="M22.636 25.5415C21.2787 25.5415 21.2765 27.6509 22.636 27.6509C23.9933 27.6509 23.9956 25.5415 22.636 25.5415Z" fill="black"/>
<path d="M49.6419 31.7227C48.2846 31.7227 48.2823 33.832 49.6419 33.832C50.9992 33.832 51.0014 31.7227 49.6419 31.7227Z" fill="black"/>
<path d="M25.3587 22.9685C26.716 22.9685 26.7182 20.8591 25.3587 20.8591C24.0014 20.8591 23.9991 22.9685 25.3587 22.9685Z" fill="black"/>
</g>
<defs>
<clipPath id="clip0">
<rect width="72" height="72" fill="white" transform="translate(0.255859 0.703613)"/>
</clipPath>
</defs>
</svg>
