<svg width="71" height="70" viewBox="0 0 71 70" fill="none" xmlns="http://www.w3.org/2000/svg">
<g clip-path="url(#clip0)">
<path d="M69.7617 4.38135H1.8125C1.24621 4.38135 0.787109 4.83389 0.787109 5.39209V64.0151C0.787109 64.5733 1.24621 65.0259 1.8125 65.0259H52.4131C53.6962 65.0259 53.7547 63.0044 52.4131 63.0044H47.619V48.0415H68.7363V63.0044H57.8806C56.5975 63.0044 56.539 65.0259 57.8806 65.0259H69.7617C70.328 65.0259 70.7871 64.5733 70.7871 64.0151V5.39209C70.7871 4.83389 70.328 4.38135 69.7617 4.38135ZM47.619 14.107H68.7363V29.0521H47.619V14.107ZM68.7363 6.40283V12.0855H2.83789V6.40283H68.7363ZM2.83789 63.0044V39.5664H12.4176C13.7007 39.5664 13.7593 37.5449 12.4176 37.5449H2.83789V14.107H45.5682V37.5991L19.0363 37.545C17.7298 37.6081 17.6989 39.5637 19.0321 39.5665L45.5684 39.6205V63.0044H2.83789ZM47.619 46.02V31.0736H68.7363V46.02H47.619Z" fill="black"/>
<path d="M6.48467 10.2549C7.80428 10.2549 7.80647 8.2334 6.48467 8.2334C5.16506 8.2334 5.16287 10.2549 6.48467 10.2549Z" fill="black"/>
<path d="M10.1526 10.2549C11.4722 10.2549 11.4744 8.2334 10.1526 8.2334C8.83303 8.2334 8.83084 10.2549 10.1526 10.2549Z" fill="black"/>
<path d="M13.8225 10.2549C15.1421 10.2549 15.1443 8.2334 13.8225 8.2334C12.503 8.2334 12.5008 10.2549 13.8225 10.2549Z" fill="black"/>
<path d="M8.9278 21.2944H38.6987C39.9818 21.2944 40.0403 19.2729 38.6987 19.2729H8.9278C7.64456 19.2729 7.58618 21.2944 8.9278 21.2944Z" fill="black"/>
<path d="M8.9278 26.7307H38.6987C39.9818 26.7307 40.0403 24.7092 38.6987 24.7092H8.9278C7.64456 24.7092 7.58618 26.7307 8.9278 26.7307Z" fill="black"/>
<path d="M29.0592 31.1562C29.0592 30.598 28.6001 30.1455 28.0338 30.1455H8.92775C7.64465 30.1455 7.58613 32.167 8.92775 32.167H28.0338C28.6001 32.167 29.0592 31.7144 29.0592 31.1562Z" fill="black"/>
<path d="M38.6987 44.866H25.0606C23.7775 44.866 23.7189 46.8875 25.0606 46.8875H38.6987C39.9818 46.8875 40.0403 44.866 38.6987 44.866Z" fill="black"/>
<path d="M38.6987 50.3022H25.0606C23.7775 50.3022 23.7189 52.3237 25.0606 52.3237H38.6987C39.9818 52.3237 40.0403 50.3022 38.6987 50.3022Z" fill="black"/>
<path d="M33.5025 55.7385H25.0606C23.7775 55.7385 23.7189 57.76 25.0606 57.76H33.5025C34.7856 57.76 34.8442 55.7385 33.5025 55.7385Z" fill="black"/>
<path d="M19.3282 44.866H8.92773C8.36145 44.866 7.90234 45.3185 7.90234 45.8767V56.7492C7.90234 57.3074 8.36145 57.7599 8.92773 57.7599H19.3282C19.8945 57.7599 20.3536 57.3074 20.3536 56.7492V45.8767C20.3536 45.3185 19.8945 44.866 19.3282 44.866ZM18.3028 55.7385H9.95312V46.8875H18.3028V55.7385Z" fill="black"/>
<path d="M63.4492 18.3296H52.7852C51.5021 18.3296 51.4436 20.3511 52.7852 20.3511H63.4492C64.7325 20.3511 64.7909 18.3296 63.4492 18.3296Z" fill="black"/>
<path d="M60.7149 23.0913H52.7852C51.5021 23.0913 51.4436 25.1128 52.7852 25.1128H60.7149C61.9981 25.1128 62.0565 23.0913 60.7149 23.0913Z" fill="black"/>
<path d="M63.4492 34.9792H52.7852C51.5021 34.9792 51.4436 37.0007 52.7852 37.0007H63.4492C64.7325 37.0007 64.7909 34.9792 63.4492 34.9792Z" fill="black"/>
<path d="M60.7149 39.741H52.7852C51.5021 39.741 51.4436 41.7625 52.7852 41.7625H60.7149C61.9981 41.7625 62.0565 39.741 60.7149 39.741Z" fill="black"/>
<path d="M52.7871 53.6501H63.4511C64.7343 53.6501 64.7928 51.6287 63.4511 51.6287H52.7871C51.504 51.6287 51.4456 53.6501 52.7871 53.6501Z" fill="black"/>
<path d="M52.7871 58.4119H60.7168C61.9999 58.4119 62.0584 56.3904 60.7168 56.3904H52.7871C51.504 56.3904 51.4456 58.4119 52.7871 58.4119Z" fill="black"/>
</g>
<defs>
<clipPath id="clip0">
<rect width="70" height="69" fill="white" transform="translate(0.787109 0.203613)"/>
</clipPath>
</defs>
</svg>
