<svg width="66" height="68" viewBox="0 0 66 68" fill="none" xmlns="http://www.w3.org/2000/svg">
<path d="M10.5741 65.0928C10.597 65.2832 10.6877 65.4585 10.8291 65.5856C10.9706 65.7127 11.153 65.7829 11.3419 65.7829H21.6348C21.7557 65.7829 21.8748 65.7542 21.9828 65.699C22.0907 65.6438 22.1844 65.5636 22.2563 65.465C22.3283 65.3664 22.3764 65.2521 22.397 65.1312C22.4175 65.0103 22.4098 64.8861 22.3746 64.7688L21.0517 60.3643L25.173 57.7194C25.706 57.4213 26.3307 57.3399 26.9206 57.4914C26.9366 57.4954 26.9527 57.499 26.9689 57.502L35.5358 59.1035C37.8923 59.5314 40.3219 59.1832 42.4695 58.1096C42.5023 58.0931 42.5339 58.0743 42.5641 58.0533L57.381 47.7258C57.5435 47.6125 57.6573 47.4405 57.6991 47.2449C57.7409 47.0494 57.7075 46.845 57.6058 46.6735C57.049 45.7319 56.1557 45.0447 55.1121 44.7549C54.0686 44.4652 52.9551 44.5953 52.0037 45.1181L51.8471 45.2039C50.7779 43.9644 48.9897 43.499 47.6197 44.2038C47.6139 44.2068 47.6081 44.2099 47.6024 44.213L47.086 44.4954C46.3543 43.8911 45.4592 43.5263 44.519 43.4492C43.5788 43.3721 42.6376 43.5863 41.8198 44.0636L38.6409 45.8184H34.4024C33.4976 45.8171 32.6047 45.6094 31.7896 45.2107L31.2021 44.9221C29.5066 44.0847 27.6159 43.7399 25.7393 43.926C23.8627 44.112 22.0734 44.8216 20.5695 45.9762C20.5526 45.9893 20.5361 46.0024 20.5204 46.0172L19.1015 47.2996C18.6141 47.74 18.0431 48.0747 17.4237 48.2831L16.6564 45.7283C16.6081 45.5674 16.5101 45.4265 16.3769 45.3263C16.2436 45.2262 16.0823 45.1722 15.9165 45.1722H9.0547C8.94523 45.1722 8.83701 45.1958 8.73718 45.2414C8.63736 45.287 8.54822 45.3536 8.47565 45.4368C8.40307 45.52 8.34872 45.6179 8.31619 45.724C8.28366 45.8301 8.27369 45.942 8.28693 46.0524L10.5741 65.0928ZM48.3266 45.6006C48.9977 45.2604 49.8307 45.4983 50.4171 45.9871L44.9689 48.9706L44.7746 49.0753C44.6142 48.6544 44.3992 48.257 44.1354 47.8937L48.3266 45.6006ZM42.5675 45.4388L42.5859 45.4283C43.0328 45.1661 43.5368 45.0208 44.0527 45.0055C44.5686 44.9901 45.0802 45.1052 45.5414 45.3403L42.9762 46.7429C42.5286 46.4227 42.0322 46.1796 41.5067 46.0232L42.5675 45.4388ZM20.1301 48.4729L21.5247 47.2124C22.8009 46.2397 24.3166 45.6432 25.9052 45.4886C27.4937 45.3339 29.0935 45.627 30.5285 46.3357L31.1169 46.6251C32.142 47.1267 33.2651 47.3879 34.4031 47.3895H40.1016C40.8785 47.3906 41.6325 47.6563 42.2428 48.1441C42.8532 48.6319 43.2847 49.3135 43.4682 50.0798L39.5122 49.898C38.0024 49.8291 36.4896 49.9001 34.9926 50.11C34.891 50.1231 34.7931 50.1564 34.7043 50.2081C34.6156 50.2599 34.5378 50.329 34.4755 50.4114C34.4133 50.4939 34.3678 50.5881 34.3416 50.6885C34.3155 50.789 34.3093 50.8937 34.3233 50.9966C34.3373 51.0995 34.3713 51.1986 34.4233 51.288C34.4753 51.3775 34.5443 51.4556 34.6263 51.5178C34.7083 51.58 34.8016 51.6251 34.9008 51.6505C35.0001 51.6758 35.1033 51.6809 35.2045 51.6654C36.6082 51.4686 38.0266 51.4021 39.4422 51.4668L44.3031 51.69C44.3148 51.69 44.3265 51.691 44.3381 51.691C44.5433 51.691 44.74 51.6082 44.885 51.461C45.0301 51.3137 45.1116 51.114 45.1116 50.9058C45.1116 50.8273 45.1091 50.7503 45.1058 50.6731L45.6968 50.3568L52.7383 46.5005C53.2293 46.2306 53.7917 46.1246 54.3454 46.1976C54.8992 46.2706 55.4162 46.5188 55.823 46.9071L41.7349 56.7266C39.8973 57.632 37.8245 57.9234 35.8137 57.5587L27.2721 55.9622C26.3002 55.7196 25.2737 55.8612 24.4009 56.3584C24.3887 56.3654 24.3768 56.3726 24.365 56.38L20.5839 58.8067L17.8746 49.7851C18.7077 49.5106 19.4757 49.0638 20.1301 48.4729ZM15.3438 46.7429L20.5904 64.2126H12.0268L9.92817 46.7429H15.3438Z" fill="black"/>
<path d="M15.9505 63.8446C16.3749 63.8446 16.7897 63.7169 17.1426 63.4775C17.4955 63.2381 17.7705 62.8979 17.9329 62.4999C18.0953 62.1019 18.1378 61.6639 18.055 61.2414C17.9722 60.8188 17.7678 60.4307 17.4678 60.126C17.1677 59.8214 16.7853 59.6139 16.3691 59.5299C15.9528 59.4458 15.5214 59.489 15.1293 59.6539C14.7372 59.8187 14.4021 60.0979 14.1663 60.4561C13.9305 60.8143 13.8047 61.2355 13.8047 61.6663C13.8053 62.2438 14.0316 62.7975 14.4339 63.2059C14.8362 63.6142 15.3816 63.844 15.9505 63.8446ZM15.9505 61.0584C16.0689 61.0584 16.1847 61.094 16.2832 61.1608C16.3817 61.2276 16.4584 61.3226 16.5038 61.4337C16.5491 61.5448 16.561 61.667 16.5379 61.7849C16.5147 61.9029 16.4577 62.0112 16.3739 62.0962C16.2902 62.1813 16.1835 62.2392 16.0673 62.2626C15.9511 62.2861 15.8307 62.274 15.7213 62.228C15.6118 62.182 15.5183 62.1041 15.4525 62.0041C15.3867 61.9041 15.3516 61.7866 15.3516 61.6663C15.3519 61.5052 15.4151 61.3508 15.5273 61.237C15.6396 61.1231 15.7918 61.059 15.9505 61.0589V61.0584Z" fill="black"/>
<path d="M26.8313 23.3627C27.1923 23.3627 27.3158 23.1916 27.3564 23.0473L27.6519 21.9443H29.4678L29.7637 23.0481C29.804 23.192 29.9278 23.3622 30.2885 23.3622C30.6847 23.3622 31.2603 23.1071 31.2603 22.7079C31.2579 22.667 31.2509 22.6266 31.2394 22.5873L29.5424 16.9681C29.4436 16.6493 29.0563 16.4434 28.5553 16.4434C28.0544 16.4434 27.6672 16.6493 27.5682 16.9686L25.8795 22.5906C25.8683 22.6289 25.8616 22.6685 25.8594 22.7084C25.8595 23.1076 26.4351 23.3627 26.8313 23.3627ZM27.9774 20.7081L28.5553 18.5539L29.1333 20.7081H27.9774Z" fill="black"/>
<path d="M32.3416 23.3626H33.9476C35.4285 23.3626 36.2441 22.5674 36.2441 21.1235V18.7378C36.2441 17.2939 35.4285 16.4985 33.9476 16.4985H32.3416C31.953 16.4985 31.6602 16.7129 31.6602 16.997V22.8643C31.6602 23.1489 31.953 23.3626 32.3416 23.3626ZM34.6998 21.1235C34.6998 21.6913 34.4467 21.9792 33.9476 21.9792H33.2045V17.8821H33.9476C34.4467 17.8821 34.6998 18.17 34.6998 18.7378V21.1235Z" fill="black"/>
<path d="M31.2355 30.1431C33.1332 30.1432 34.9883 29.5719 36.5662 28.5016C38.1441 27.4314 39.374 25.9101 40.1002 24.1303C40.8265 22.3505 41.0165 20.392 40.6463 18.5026C40.2761 16.6131 39.3622 14.8775 38.0204 13.5153C36.6785 12.1531 34.9688 11.2254 33.1076 10.8495C31.2463 10.4737 29.3171 10.6666 27.5638 11.4038C25.8105 12.141 24.312 13.3895 23.2577 14.9913C22.2034 16.5931 21.6406 18.4763 21.6406 20.4027C21.6435 22.9851 22.6553 25.4609 24.4541 27.2869C26.2529 29.113 28.6917 30.1402 31.2355 30.1431ZM31.2355 12.2327C32.8273 12.2326 34.3833 12.7118 35.7068 13.6095C37.0304 14.5072 38.0619 15.7832 38.6711 17.2761C39.2803 18.769 39.4397 20.4117 39.1291 21.9966C38.8186 23.5814 38.0521 25.0372 36.9266 26.1798C35.801 27.3224 34.367 28.1006 32.8058 28.4158C31.2446 28.7311 29.6264 28.5693 28.1558 27.9509C26.6852 27.3326 25.4282 26.2854 24.5439 24.9418C23.6595 23.5982 23.1875 22.0186 23.1875 20.4027C23.1899 18.2367 24.0386 16.16 25.5474 14.6284C27.0561 13.0967 29.1018 12.2352 31.2355 12.2327Z" fill="black"/>
<path d="M31.6789 33.1812C31.4738 33.1812 31.2771 33.2639 31.132 33.4111C30.987 33.5584 30.9055 33.7581 30.9055 33.9663V38.9115C30.44 39.0947 30.0522 39.4373 29.8093 39.8802C29.5664 40.323 29.4838 40.8381 29.5755 41.3363C29.6673 41.8345 29.9278 42.2844 30.312 42.6082C30.6961 42.9319 31.1796 43.1091 31.6789 43.1091C32.1782 43.1091 32.6617 42.9319 33.0458 42.6082C33.43 42.2844 33.6905 41.8345 33.7823 41.3363C33.8741 40.8381 33.7914 40.323 33.5485 39.8802C33.3056 39.4373 32.9179 39.0947 32.4523 38.9115V33.9663C32.4523 33.7581 32.3709 33.5584 32.2258 33.4111C32.0808 33.2639 31.884 33.1812 31.6789 33.1812ZM31.6789 41.5368C31.5616 41.5368 31.447 41.5015 31.3495 41.4353C31.252 41.3692 31.176 41.2752 31.1311 41.1652C31.0862 41.0552 31.0745 40.9342 31.0973 40.8174C31.1202 40.7006 31.1767 40.5934 31.2596 40.5092C31.3425 40.425 31.4482 40.3677 31.5632 40.3444C31.6782 40.3212 31.7975 40.3331 31.9058 40.3787C32.0142 40.4243 32.1068 40.5014 32.1719 40.6004C32.2371 40.6994 32.2719 40.8158 32.2719 40.9348C32.2716 41.0944 32.2091 41.2474 32.0979 41.3602C31.9868 41.473 31.8361 41.5365 31.6789 41.5368Z" fill="black"/>
<path d="M30.9055 5.59562V7.76632C30.9055 7.97455 30.987 8.17426 31.132 8.3215C31.2771 8.46875 31.4738 8.55147 31.6789 8.55147C31.884 8.55147 32.0808 8.46875 32.2258 8.3215C32.3709 8.17426 32.4523 7.97455 32.4523 7.76632V5.59562C32.9179 5.41243 33.3056 5.06976 33.5485 4.62694C33.7914 4.18412 33.8741 3.66902 33.7823 3.17083C33.6905 2.67264 33.43 2.22271 33.0458 1.89894C32.6617 1.57517 32.1782 1.39795 31.6789 1.39795C31.1796 1.39795 30.6961 1.57517 30.312 1.89894C29.9278 2.22271 29.6673 2.67264 29.5755 3.17083C29.4838 3.66902 29.5664 4.18412 29.8093 4.62694C30.0522 5.06976 30.44 5.41243 30.9055 5.59562ZM31.6789 2.97032C31.7962 2.97032 31.9108 3.00562 32.0083 3.07177C32.1059 3.13791 32.1819 3.23192 32.2267 3.34192C32.2716 3.45191 32.2834 3.57294 32.2605 3.68971C32.2376 3.80648 32.1811 3.91373 32.0982 3.99792C32.0153 4.0821 31.9096 4.13943 31.7946 4.16266C31.6796 4.18589 31.5603 4.17397 31.452 4.1284C31.3436 4.08284 31.251 4.00569 31.1859 3.9067C31.1207 3.80771 31.0859 3.69133 31.0859 3.57227C31.0861 3.41269 31.1487 3.2597 31.2598 3.14686C31.371 3.03401 31.5217 2.97053 31.6789 2.97032Z" fill="black"/>
<path d="M43.6719 20.0812C43.4667 20.0812 43.27 20.1639 43.125 20.3112C42.9799 20.4584 42.8984 20.6581 42.8984 20.8664C42.8984 21.0746 42.9799 21.2743 43.125 21.4215C43.27 21.5688 43.4667 21.6515 43.6719 21.6515H48.5432C48.7237 22.1241 49.0613 22.5177 49.4975 22.7643C49.9337 23.0108 50.4411 23.0948 50.9318 23.0016C51.4226 22.9084 51.8658 22.644 52.1847 22.254C52.5037 21.8641 52.6783 21.3732 52.6783 20.8664C52.6783 20.3595 52.5037 19.8686 52.1847 19.4787C51.8658 19.0888 51.4226 18.8243 50.9318 18.7311C50.4411 18.6379 49.9337 18.7219 49.4975 18.9684C49.0613 19.215 48.7237 19.6086 48.5432 20.0812H43.6719ZM50.5364 20.2644C50.6537 20.2644 50.7683 20.2997 50.8658 20.3659C50.9633 20.432 51.0393 20.526 51.0842 20.636C51.1291 20.746 51.1408 20.867 51.118 20.9838C51.0951 21.1006 51.0386 21.2078 50.9557 21.292C50.8728 21.3762 50.7671 21.4335 50.6521 21.4567C50.537 21.48 50.4178 21.4681 50.3095 21.4225C50.2011 21.3769 50.1085 21.2998 50.0434 21.2008C49.9782 21.1018 49.9434 20.9854 49.9434 20.8664C49.9436 20.7068 50.0062 20.5538 50.1173 20.4409C50.2285 20.3281 50.3792 20.2646 50.5364 20.2644Z" fill="black"/>
<path d="M15.4642 23.0388C15.8953 23.0381 16.3163 22.9053 16.6719 22.6578C17.0275 22.4104 17.3013 22.0597 17.4573 21.6517H19.5956C19.8008 21.6517 19.9975 21.5689 20.1425 21.4217C20.2876 21.2744 20.3691 21.0747 20.3691 20.8665C20.3691 20.6583 20.2876 20.4586 20.1425 20.3113C19.9975 20.1641 19.8008 20.0813 19.5956 20.0813H17.4573C17.3164 19.7128 17.079 19.3903 16.7708 19.1487C16.4626 18.907 16.0953 18.7554 15.7084 18.7101C15.3215 18.6648 14.9298 18.7276 14.5755 18.8917C14.2212 19.0557 13.9177 19.3149 13.6979 19.6411C13.478 19.9674 13.35 20.3484 13.3277 20.7431C13.3055 21.1378 13.3897 21.5312 13.5715 21.8808C13.7533 22.2304 14.0256 22.523 14.3591 22.7271C14.6927 22.9312 15.0748 23.0389 15.4642 23.0388ZM15.4642 20.2645C15.5815 20.2645 15.6961 20.2998 15.7936 20.366C15.8911 20.4321 15.9671 20.5261 16.012 20.6361C16.0569 20.7461 16.0686 20.8672 16.0458 20.9839C16.0229 21.1007 15.9664 21.208 15.8835 21.2921C15.8006 21.3763 15.6949 21.4337 15.5799 21.4569C15.4648 21.4801 15.3456 21.4682 15.2373 21.4226C15.1289 21.3771 15.0363 21.2999 14.9712 21.2009C14.906 21.1019 14.8712 20.9856 14.8712 20.8665C14.8714 20.7069 14.934 20.5539 15.0451 20.441C15.1563 20.3282 15.307 20.2647 15.4642 20.2644V20.2645Z" fill="black"/>
<path d="M16.0447 6.75122C16.3422 6.75118 16.6364 6.68802 16.9084 6.56579L22.174 11.9111C22.3194 12.0564 22.5156 12.1374 22.7196 12.1365C22.9236 12.1357 23.1191 12.053 23.2633 11.9065C23.4076 11.76 23.489 11.5616 23.4898 11.3545C23.4906 11.1474 23.4107 10.9483 23.2676 10.8007L18.0009 5.45427C18.1862 5.02621 18.2304 4.54884 18.1268 4.09325C18.0233 3.63765 17.7775 3.2282 17.4262 2.92585C17.0748 2.62351 16.6367 2.44445 16.177 2.41534C15.7173 2.38623 15.2606 2.50863 14.875 2.76431C14.4894 3.01998 14.1954 3.39526 14.0369 3.83426C13.8783 4.27326 13.8637 4.7525 13.9952 5.20062C14.1267 5.64873 14.3972 6.04176 14.7665 6.32116C15.1358 6.60056 15.5842 6.7514 16.0447 6.75122ZM15.6254 4.15313C15.7084 4.06898 15.814 4.01168 15.929 3.98848C16.044 3.96527 16.1633 3.97721 16.2716 4.02278C16.3799 4.06835 16.4725 4.1455 16.5377 4.24449C16.6028 4.34347 16.6376 4.45984 16.6376 4.57888C16.6376 4.69793 16.6028 4.8143 16.5377 4.91328C16.4725 5.01227 16.3799 5.08942 16.2716 5.13499C16.1633 5.18056 16.044 5.1925 15.929 5.16929C15.814 5.14609 15.7084 5.08879 15.6254 5.00464C15.5143 4.89164 15.452 4.73852 15.452 4.57888C15.452 4.41925 15.5143 4.26613 15.6254 4.15313Z" fill="black"/>
<path d="M43.7954 34.0659C44.0707 34.3459 44.416 34.5443 44.7942 34.6397C45.1724 34.735 45.569 34.7238 45.9414 34.6071C46.3137 34.4904 46.6476 34.2727 46.907 33.9775C47.1664 33.6823 47.3414 33.3208 47.4133 32.932C47.4851 32.5432 47.451 32.1419 47.3147 31.7713C47.1783 31.4008 46.9449 31.075 46.6395 30.8293C46.3342 30.5835 45.9685 30.4271 45.582 30.3768C45.1955 30.3266 44.8028 30.3844 44.4463 30.5441L42.9341 29.0091C42.8625 28.9352 42.7772 28.8765 42.6831 28.8362C42.589 28.796 42.488 28.7751 42.3859 28.7747C42.2838 28.7743 42.1826 28.7944 42.0882 28.8339C41.9938 28.8733 41.908 28.9314 41.8358 29.0047C41.7637 29.078 41.7065 29.1651 41.6676 29.2609C41.6287 29.3568 41.609 29.4595 41.6094 29.5631C41.6098 29.6667 41.6305 29.7693 41.6701 29.8648C41.7098 29.9603 41.7677 30.0469 41.8404 30.1196L43.3515 31.6534C43.1769 32.054 43.1258 32.4989 43.205 32.9295C43.2843 33.3601 43.4901 33.7563 43.7954 34.0659ZM45.728 32.1042C45.8254 32.2027 45.886 32.3325 45.8997 32.4713C45.9133 32.6102 45.8791 32.7496 45.8028 32.8657C45.7266 32.9818 45.613 33.0674 45.4815 33.1081C45.35 33.1487 45.2087 33.1417 45.0816 33.0884C44.9546 33.0351 44.8497 32.9387 44.7849 32.8157C44.72 32.6926 44.6992 32.5506 44.726 32.4137C44.7528 32.2768 44.8255 32.1536 44.9317 32.0651C45.038 31.9765 45.1712 31.9282 45.3087 31.9282C45.4659 31.9282 45.6167 31.9915 45.728 32.1042Z" fill="black"/>
<path d="M22.3584 29.8217C22.2134 29.6745 22.0167 29.5918 21.8116 29.5918C21.6064 29.5918 21.4097 29.6745 21.2647 29.8217L17.8211 33.3174C17.4648 33.1581 17.0725 33.1006 16.6864 33.151C16.3003 33.2014 15.9351 33.3578 15.6301 33.6034C15.3251 33.8489 15.0919 34.1743 14.9556 34.5445C14.8194 34.9147 14.7852 35.3156 14.8568 35.704C14.9285 36.0924 15.1032 36.4536 15.3621 36.7487C15.621 37.0438 15.9544 37.2615 16.3262 37.3785C16.6981 37.4954 17.0943 37.5071 17.4722 37.4123C17.8501 37.3175 18.1954 37.1198 18.4708 36.8405C18.7752 36.5305 18.9803 36.1345 19.0594 35.7042C19.1384 35.2739 19.0877 34.8294 18.9138 34.4289L22.3584 30.9321C22.5035 30.7848 22.585 30.5851 22.585 30.3769C22.585 30.1687 22.5035 29.969 22.3584 29.8217ZM17.3771 35.7301C17.2942 35.8142 17.1885 35.8715 17.0735 35.8948C16.9585 35.918 16.8393 35.9061 16.7309 35.8605C16.6226 35.8149 16.53 35.7378 16.4648 35.6388C16.3997 35.5398 16.3649 35.4234 16.3649 35.3044C16.3649 35.1853 16.3997 35.0689 16.4648 34.97C16.53 34.871 16.6226 34.7938 16.7309 34.7482C16.8393 34.7027 16.9585 34.6908 17.0735 34.714C17.1885 34.7372 17.2942 34.7945 17.3771 34.8787C17.4881 34.9917 17.5505 35.1448 17.5505 35.3044C17.5505 35.464 17.4881 35.617 17.3771 35.7301Z" fill="black"/>
<path d="M41.5665 12.9536C41.6681 12.9537 41.7687 12.9334 41.8626 12.894C41.9564 12.8545 42.0417 12.7966 42.1134 12.7235L43.6244 11.1897C43.9808 11.3494 44.3734 11.4072 44.7598 11.357C45.1463 11.3067 45.5119 11.1504 45.8172 10.9047C46.1225 10.6591 46.356 10.3335 46.4924 9.96301C46.6289 9.59256 46.6631 9.19133 46.5914 8.80259C46.5197 8.41385 46.3448 8.05235 46.0856 7.75708C45.8265 7.46182 45.4928 7.24399 45.1206 7.12709C44.7484 7.01019 44.3518 6.99866 43.9737 7.09373C43.5955 7.18881 43.2501 7.38689 42.9747 7.66661C42.6703 7.97657 42.4651 8.37258 42.386 8.80283C42.307 9.23309 42.3577 9.67755 42.5315 10.0781L41.0196 11.6131C40.9114 11.7229 40.8377 11.8628 40.8078 12.0151C40.778 12.1674 40.7933 12.3253 40.8518 12.4688C40.9104 12.6123 41.0095 12.7349 41.1368 12.8212C41.264 12.9074 41.4135 12.9535 41.5665 12.9535V12.9536ZM44.0683 8.77721C44.1512 8.69293 44.2569 8.6355 44.3719 8.61219C44.487 8.58888 44.6062 8.60074 44.7146 8.64628C44.823 8.69181 44.9157 8.76896 44.9809 8.86797C45.0461 8.96698 45.0809 9.08341 45.0809 9.2025C45.0809 9.3216 45.0461 9.43802 44.9809 9.53703C44.9157 9.63605 44.823 9.7132 44.7146 9.75873C44.6062 9.80426 44.487 9.81612 44.3719 9.79282C44.2569 9.76951 44.1512 9.71208 44.0683 9.6278C43.9576 9.5148 43.8954 9.36189 43.8954 9.2025C43.8954 9.04311 43.9576 8.8902 44.0683 8.77721Z" fill="black"/>
</svg>
