<svg width="69" height="70" viewBox="0 0 69 70" fill="none" xmlns="http://www.w3.org/2000/svg">
<path d="M2.15625 63.2889H9.7887C10.0032 63.2889 10.2088 63.2037 10.3605 63.0521C10.5121 62.9004 10.5973 62.6947 10.5973 62.4803V60.8115H11.5501C13.6133 60.811 15.6355 61.3873 17.3884 62.4754C19.4368 63.7464 21.7225 63.8517 24.0792 63.8517H30.2919C30.8287 63.8521 31.3552 63.705 31.8141 63.4265C32.2729 63.1481 32.6465 62.7489 32.8939 62.2726C33.1413 61.7963 33.2531 61.2611 33.2171 60.7256C33.1811 60.1901 32.9987 59.6747 32.6897 59.2358C33.0961 59.0112 33.4434 58.6934 33.7032 58.3086C33.9629 57.9237 34.1278 57.4828 34.1841 57.0219C34.2405 56.561 34.1867 56.0933 34.0274 55.6572C33.868 55.2211 33.6074 54.829 33.2672 54.5131C33.7432 54.063 34.0588 53.4694 34.1656 52.823C34.2725 52.1767 34.1648 51.5131 33.8589 50.9337H39.4113C40.1548 50.9337 40.8679 50.6383 41.3936 50.1126C41.9194 49.5868 42.2147 48.8738 42.2147 48.1303C42.2147 47.3867 41.9194 46.6737 41.3936 46.1479C40.8679 45.6222 40.1548 45.3268 39.4113 45.3268H23.6985C23.4921 45.3271 23.2928 45.2509 23.1391 45.1131C22.9854 44.9753 22.8881 44.7855 22.866 44.5802C22.7426 43.4377 22.8882 42.2822 23.291 41.2059C23.7432 40.0043 23.9745 38.7308 23.9737 37.4469V36.7162C23.9725 35.549 23.5083 34.4299 22.6829 33.6046C21.8575 32.7793 20.7384 32.3151 19.5712 32.314C19.378 32.314 19.1912 32.3831 19.0445 32.5089C18.8979 32.6348 18.8012 32.8089 18.7719 32.9999L18.3676 35.6392C17.9525 38.3295 16.9088 40.884 15.3211 43.0952C14.9051 43.6663 14.3603 44.1311 13.7308 44.4519C13.1014 44.7727 12.4051 44.9405 11.6986 44.9415H10.5973V42.9503C10.5973 42.7359 10.5121 42.5302 10.3605 42.3786C10.2088 42.2269 10.0032 42.1417 9.7887 42.1417H2.15625C1.9418 42.1417 1.73613 42.2269 1.58449 42.3786C1.43285 42.5302 1.34766 42.7359 1.34766 42.9503V62.4803C1.34766 62.6947 1.43285 62.9004 1.58449 63.0521C1.73613 63.2037 1.9418 63.2889 2.15625 63.2889ZM11.6986 46.5587C12.6607 46.557 13.6089 46.3284 14.466 45.8912C15.323 45.454 16.0648 44.8208 16.631 44.0429C18.3687 41.6235 19.5112 38.8283 19.9655 35.8844L20.2519 34.0156C20.8529 34.168 21.386 34.5163 21.767 35.0054C22.1481 35.4945 22.3553 36.0966 22.356 36.7166V37.4473C22.3567 38.537 22.1603 39.6179 21.7765 40.6378C21.2848 41.9513 21.1072 43.3617 21.2578 44.7562C21.3227 45.3578 21.6079 45.9142 22.0584 46.3181C22.5089 46.7221 23.0929 46.9452 23.698 46.9444H39.4114C39.726 46.9444 40.0278 47.0694 40.2502 47.2918C40.4727 47.5143 40.5977 47.816 40.5977 48.1307C40.5977 48.4453 40.4727 48.747 40.2502 48.9695C40.0278 49.1919 39.726 49.3169 39.4114 49.3169H29.5662C29.5263 49.3172 29.4865 49.3205 29.4471 49.3266H28.262C28.0475 49.3266 27.8418 49.4118 27.6902 49.5635C27.5386 49.7151 27.4534 49.9208 27.4534 50.1352C27.4534 50.3497 27.5386 50.5553 27.6902 50.707C27.8418 50.8586 28.0475 50.9438 28.262 50.9438H31.1982C31.3819 50.942 31.5642 50.9766 31.7344 51.0457C31.9046 51.1147 32.0595 51.2168 32.19 51.3461C32.3206 51.4753 32.4242 51.6292 32.4949 51.7987C32.5656 51.9683 32.602 52.1502 32.602 52.3339C32.602 52.5176 32.5656 52.6994 32.4949 52.869C32.4242 53.0385 32.3206 53.1924 32.19 53.3216C32.0595 53.4509 31.9046 53.553 31.7344 53.622C31.5642 53.6911 31.3819 53.7257 31.1982 53.7239H28.262C28.0475 53.7239 27.8418 53.8091 27.6902 53.9607C27.5386 54.1124 27.4534 54.318 27.4534 54.5325C27.4534 54.7469 27.5386 54.9526 27.6902 55.1043C27.8418 55.2559 28.0475 55.3411 28.262 55.3411H31.2656C31.6167 55.3411 31.9534 55.4805 32.2016 55.7288C32.4498 55.977 32.5893 56.3137 32.5893 56.6648C32.5893 57.0158 32.4498 57.3525 32.2016 57.6007C31.9534 57.849 31.6167 57.9884 31.2656 57.9884H26.9353C26.7209 57.9884 26.5152 58.0736 26.3636 58.2253C26.2119 58.3769 26.1267 58.5826 26.1267 58.797C26.1267 59.0115 26.2119 59.2171 26.3636 59.3688C26.5152 59.5204 26.7209 59.6056 26.9353 59.6056H30.2922C30.6409 59.6056 30.9753 59.7441 31.2218 59.9907C31.4683 60.2372 31.6069 60.5716 31.6069 60.9202C31.6069 61.2689 31.4683 61.6033 31.2218 61.8498C30.9753 62.0964 30.6409 62.2349 30.2922 62.2349H24.0795C21.9656 62.2349 19.9287 62.1482 18.2412 61.1016C16.2323 59.8547 13.9148 59.1942 11.5504 59.1947H10.5976V46.5587H11.6986ZM2.96484 43.7589H8.98011V61.6717H2.96484V43.7589Z" fill="black"/>
<path d="M66.8429 5.89408H59.2105C58.996 5.89408 58.7904 5.97927 58.6387 6.13091C58.4871 6.28255 58.4019 6.48822 58.4019 6.70267V8.37148H57.4498C55.3866 8.37197 53.3644 7.79563 51.6115 6.70753C49.563 5.43655 47.2774 5.3313 44.9206 5.3313H38.7079C38.1712 5.33089 37.6447 5.47795 37.1858 5.75642C36.7269 6.0349 36.3534 6.43408 36.106 6.91039C35.8586 7.38671 35.7468 7.92184 35.7828 8.45737C35.8188 8.99291 36.0012 9.50826 36.3102 9.94716C35.9038 10.1718 35.5565 10.4896 35.2967 10.8744C35.0369 11.2593 34.8721 11.7002 34.8158 12.1611C34.7594 12.622 34.8131 13.0897 34.9725 13.5258C35.1319 13.9619 35.3924 14.354 35.7327 14.6699C35.2567 15.12 34.9411 15.7136 34.8342 16.3599C34.7274 17.0063 34.8351 17.6699 35.141 18.2493H29.5886C28.8451 18.2493 28.132 18.5446 27.6063 19.0704C27.0805 19.5961 26.7852 20.3092 26.7852 21.0527C26.7852 21.7962 27.0805 22.5093 27.6063 23.0351C28.132 23.5608 28.8451 23.8562 29.5886 23.8562H45.3007C45.5071 23.8559 45.7064 23.932 45.8601 24.0699C46.0138 24.2077 46.1111 24.3975 46.1333 24.6028C46.2566 25.7453 46.1111 26.9008 45.7082 27.9771C45.256 29.1787 45.0247 30.4522 45.0255 31.7361V32.4668C45.0267 33.634 45.4909 34.7531 46.3163 35.5784C47.1417 36.4037 48.2608 36.8679 49.428 36.869C49.6212 36.869 49.808 36.7999 49.9547 36.674C50.1013 36.5482 50.198 36.374 50.2273 36.1831L50.6316 33.5438C51.0467 30.8535 52.0904 28.299 53.6781 26.0878C54.0941 25.5167 54.6389 25.0519 55.2684 24.7311C55.8978 24.4103 56.5941 24.2425 57.3006 24.2415H58.4019V26.2322C58.4019 26.4467 58.4871 26.6524 58.6387 26.804C58.7904 26.9556 58.996 27.0408 59.2105 27.0408H66.8429C67.0574 27.0408 67.2631 26.9556 67.4147 26.804C67.5664 26.6524 67.6515 26.4467 67.6515 26.2322V6.70267C67.6515 6.48822 67.5664 6.28255 67.4147 6.13091C67.2631 5.97927 67.0574 5.89408 66.8429 5.89408ZM57.3006 22.6243C56.3385 22.6259 55.3903 22.8546 54.5333 23.2918C53.6762 23.7289 52.9344 24.3622 52.3682 25.1401C50.6305 27.5595 49.488 30.3546 49.0337 33.2985L48.7473 35.1673C48.1463 35.015 47.6132 34.6667 47.2322 34.1776C46.8511 33.6885 46.6439 33.0864 46.6432 32.4664V31.7357C46.6425 30.646 46.8389 29.5651 47.2227 28.5452C47.7144 27.2316 47.892 25.8213 47.7414 24.4268C47.6765 23.8252 47.3913 23.2688 46.9408 22.8648C46.4903 22.4609 45.9063 22.2378 45.3012 22.2386H29.5878C29.2732 22.2386 28.9715 22.1136 28.749 21.8911C28.5265 21.6687 28.4015 21.3669 28.4015 21.0523C28.4015 20.7377 28.5265 20.436 28.749 20.2135C28.9715 19.991 29.2732 19.866 29.5878 19.866H39.433C39.4729 19.8658 39.5127 19.8625 39.5521 19.8563H40.7372C40.9517 19.8563 41.1574 19.7712 41.309 19.6195C41.4606 19.4679 41.5458 19.2622 41.5458 19.0477C41.5458 18.8333 41.4606 18.6276 41.309 18.476C41.1574 18.3243 40.9517 18.2392 40.7372 18.2392H37.801C37.6173 18.241 37.435 18.2063 37.2648 18.1373C37.0946 18.0683 36.9397 17.9662 36.8092 17.8369C36.6786 17.7076 36.575 17.5538 36.5043 17.3842C36.4336 17.2147 36.3972 17.0328 36.3972 16.8491C36.3972 16.6654 36.4336 16.4835 36.5043 16.314C36.575 16.1444 36.6786 15.9906 36.8092 15.8613C36.9397 15.7321 37.0946 15.63 37.2648 15.5609C37.435 15.4919 37.6173 15.4573 37.801 15.4591H40.7378C40.9522 15.4591 41.1579 15.3739 41.3095 15.2222C41.4612 15.0706 41.5464 14.8649 41.5464 14.6505C41.5464 14.436 41.4612 14.2304 41.3095 14.0787C41.1579 13.9271 40.9522 13.8419 40.7378 13.8419H37.7336C37.3825 13.8419 37.0458 13.7024 36.7976 13.4542C36.5494 13.206 36.4099 12.8693 36.4099 12.5182C36.4099 12.1672 36.5494 11.8305 36.7976 11.5822C37.0458 11.334 37.3825 11.1945 37.7336 11.1945H42.0635C42.2779 11.1945 42.4836 11.1094 42.6352 10.9577C42.7869 10.8061 42.8721 10.6004 42.8721 10.386C42.8721 10.1715 42.7869 9.96583 42.6352 9.81419C42.4836 9.66255 42.2779 9.57736 42.0635 9.57736H38.707C38.3583 9.57736 38.0239 9.43886 37.7774 9.19231C37.5309 8.94577 37.3924 8.61139 37.3924 8.26272C37.3924 7.91406 37.5309 7.57967 37.7774 7.33313C38.0239 7.08659 38.3583 6.94808 38.707 6.94808H44.9197C47.0336 6.94808 49.0705 7.03474 50.758 8.08133C52.7671 9.3286 55.085 9.98926 57.4498 9.98867H58.4026V22.6243H57.3006ZM66.0344 25.4241H60.0191V7.51127H66.0344V25.4241Z" fill="black"/>
<path d="M30.4245 37.3865C30.7677 37.3865 30.8858 37.2255 30.9246 37.0901L31.2013 36.0733H32.8984L33.1752 37.091C33.2139 37.2258 33.3319 37.3875 33.6752 37.3875C34.0505 37.3875 34.5958 37.1486 34.5958 36.774C34.5935 36.7356 34.5868 36.6975 34.5757 36.6606L32.9801 31.4558C32.8857 31.1576 32.5196 30.9648 32.0456 30.9648C31.5716 30.9648 31.2046 31.1576 31.1109 31.4563L29.523 36.6629C29.5124 36.6987 29.506 36.7357 29.5039 36.7731C29.5039 37.1476 30.0492 37.3865 30.4245 37.3865ZM31.5108 34.9141L32.0456 32.9513L32.5802 34.9141H31.5108Z" fill="black"/>
<path d="M35.6007 37.3866H37.1108C38.5078 37.3866 39.2771 36.6477 39.2771 35.3058V33.0957C39.2771 31.7538 38.5078 31.0149 37.1108 31.0149H35.6007C35.2315 31.0149 34.9531 31.2162 34.9531 31.4833V36.918C34.9531 37.1853 35.2315 37.3866 35.6007 37.3866ZM37.8108 35.3058C37.8108 35.8271 37.5751 36.0915 37.11 36.0915H36.4182V32.3101H37.11C37.5748 32.3101 37.8108 32.5745 37.8108 33.0959V35.3058Z" fill="black"/>
<path d="M33.6514 43.9054C33.9628 43.9363 34.2731 43.9516 34.5822 43.9514C37.0142 43.9497 39.3493 42.9977 41.0892 41.2985C42.8291 39.5993 43.836 37.2874 43.8952 34.8561C43.9543 32.4249 43.061 30.0667 41.4058 28.2849C39.7506 26.5031 37.4646 25.4386 35.0356 25.3187C32.6066 25.1988 30.2268 26.0329 28.4042 27.643C26.5815 29.2531 25.4603 31.5118 25.2797 33.9371C25.0991 36.3624 25.8734 38.7622 27.4374 40.6245C29.0015 42.4869 31.2314 43.6642 33.6514 43.9054ZM26.9075 33.8832C27.0949 31.9848 27.9807 30.2237 29.3929 28.9413C30.8052 27.6589 32.6434 26.9467 34.551 26.9428C34.8062 26.9428 35.0626 26.9554 35.3202 26.9806C36.8349 27.1299 38.2712 27.725 39.4476 28.6906C40.624 29.6562 41.4877 30.949 41.9294 32.4055C42.3711 33.862 42.3709 35.4167 41.929 36.8731C41.487 38.3295 40.6231 39.6221 39.4465 40.5876C38.2699 41.553 36.8335 42.1478 35.3188 42.2968C33.8042 42.4458 32.2793 42.1423 30.9372 41.4247C29.595 40.7071 28.4958 39.6076 27.7785 38.2652C27.0612 36.9229 26.7581 35.3979 26.9075 33.8833V33.8832Z" fill="black"/>
</svg>
