<svg width="79" height="79" viewBox="0 0 79 79" fill="none" xmlns="http://www.w3.org/2000/svg">
<path d="M62.4057 43.8223C63.8396 41.1314 64.6926 38.176 64.9106 35.143C65.1286 32.11 64.707 29.0653 63.6724 26.2013C63.6089 26.0238 63.4913 25.8699 63.3358 25.7609C63.1803 25.6518 62.9945 25.5928 62.8037 25.5919L57.015 25.565L58.3637 22.0638C58.3703 22.0468 58.3764 22.0294 58.3819 22.0119C58.5442 21.4896 58.5949 20.9398 58.5308 20.3972C58.4667 19.8546 58.2891 19.331 58.0094 18.8597C57.7297 18.3883 57.3539 17.9795 56.9058 17.659C56.4577 17.3385 55.9471 17.1134 55.4063 16.9979C55.3688 16.9899 55.3309 16.9842 55.2927 16.9809L55.2717 16.9789C54.7383 16.872 54.1886 16.8718 53.6552 16.9784C53.1217 17.085 52.6154 17.2962 52.1661 17.5995C51.6897 17.9168 51.2842 18.3269 50.9745 18.8048C50.6648 19.2826 50.4575 19.818 50.3654 20.378L49.5512 25.5296L48.0298 25.5226V4.22559C48.0298 3.98316 47.9323 3.75067 47.7587 3.57925C47.585 3.40783 47.3496 3.31152 47.104 3.31152H36.6821C36.4365 3.31152 36.201 3.40783 36.0274 3.57925C35.8538 3.75067 35.7563 3.98316 35.7563 4.22559V25.4657L34.2432 25.4586V14.804C34.2432 14.6679 34.2124 14.5336 34.1531 14.4107L29.9377 5.68138C29.8625 5.52552 29.744 5.39389 29.5962 5.30174C29.4483 5.20959 29.2769 5.16068 29.1021 5.16068C28.9272 5.16068 28.7559 5.20959 28.608 5.30174C28.4601 5.39389 28.3417 5.52552 28.2664 5.68138L24.051 14.4107C23.9917 14.5335 23.9609 14.6679 23.9609 14.804V25.411L21.3321 25.3988H21.3277C21.146 25.3988 20.9684 25.4516 20.817 25.5505C20.6655 25.6495 20.5468 25.7902 20.4758 25.9553C19.3837 28.4912 18.7491 31.1961 18.6008 33.9479C18.5762 34.345 18.5658 37.7094 18.5634 38.5873L14.1755 49.9359C14.0624 50.2283 14.0231 50.5435 14.0607 50.8544C14.0984 51.1652 14.2121 51.4623 14.3919 51.7202C14.5717 51.978 14.8123 52.1888 15.093 52.3344C15.3737 52.4801 15.686 52.5562 16.003 52.5562H21.9118V59.1553C21.912 59.9582 22.0753 60.753 22.3921 61.4926C22.7089 62.2321 23.1728 62.9014 23.7562 63.4607C24.3397 64.0201 25.0309 64.4582 25.789 64.749C26.547 65.0399 27.3564 65.1776 28.1693 65.1541C28.5762 65.1416 33.6353 65.1197 36.7996 65.1084L39.1989 74.5274C39.2494 74.7247 39.3651 74.8998 39.5277 75.0249C39.6904 75.1499 39.8906 75.2178 40.0968 75.2178H61.692C61.834 75.2178 61.974 75.1857 62.1013 75.1238C62.2287 75.0619 62.3399 74.9719 62.4264 74.8608C62.5129 74.7497 62.5723 74.6204 62.6002 74.483C62.628 74.3456 62.6235 74.2037 62.587 74.0683C62.5507 73.934 58.9704 60.5428 59.7633 52.1308C59.9792 49.8411 62.1935 44.3449 62.4057 43.8223ZM52.1921 20.6728C52.244 20.3586 52.3604 20.0583 52.5341 19.7902C52.7079 19.5221 52.9353 19.2919 53.2025 19.1138C53.4534 18.9438 53.7369 18.8263 54.0355 18.7684C54.3341 18.7105 54.6415 18.7135 54.9389 18.7772C54.9764 18.7852 55.0143 18.7909 55.0525 18.7942L55.065 18.7954C55.3465 18.8625 55.6114 18.9852 55.8436 19.1562C56.0758 19.3271 56.2705 19.5426 56.416 19.7899C56.5616 20.0371 56.6549 20.3109 56.6903 20.5947C56.7258 20.8785 56.7026 21.1665 56.6223 21.4412L55.0375 25.5545L51.4231 25.5377L52.1921 20.6728ZM37.6078 20.7473H42.9465C43.192 20.7473 43.4275 20.651 43.6011 20.4795C43.7748 20.3081 43.8723 20.0756 43.8723 19.8332C43.8723 19.5908 43.7748 19.3583 43.6011 19.1869C43.4275 19.0154 43.192 18.9191 42.9465 18.9191H37.6078V12.0763H41.1901C41.4357 12.0763 41.6712 11.98 41.8448 11.8086C42.0184 11.6372 42.1159 11.4047 42.1159 11.1623C42.1159 10.9198 42.0184 10.6873 41.8448 10.5159C41.6712 10.3445 41.4357 10.2482 41.1901 10.2482H37.6078V5.13965H46.1776V25.5139L37.6078 25.4742V20.7473ZM29.1021 8.19917L32.1016 14.4102H26.1025L29.1021 8.19917ZM25.8125 16.2383H32.3917V25.4501L25.8125 25.4196V16.2383ZM60.5027 73.3896H40.8184L38.4185 63.9679C38.3682 63.7705 38.2526 63.5952 38.09 63.47C37.9274 63.3448 37.727 63.2768 37.5208 63.2768H37.5173C37.157 63.2781 28.6864 63.3092 28.1118 63.3269C27.5467 63.3428 26.9842 63.2467 26.4574 63.0442C25.9307 62.8418 25.4504 62.5371 25.045 62.1481C24.6395 61.7592 24.3172 61.2939 24.0971 60.7799C23.877 60.2658 23.7635 59.7134 23.7634 59.1553V51.6421C23.7634 51.3997 23.6659 51.1672 23.4922 50.9958C23.3186 50.8244 23.0831 50.7281 22.8376 50.7281H16.0035C15.9865 50.7281 15.9698 50.724 15.9548 50.7162C15.9398 50.7084 15.927 50.6971 15.9174 50.6833C15.9078 50.6695 15.9017 50.6536 15.8997 50.637C15.8977 50.6204 15.8998 50.6035 15.9058 50.5879L20.3542 39.0834C20.3941 38.9799 20.4147 38.8702 20.415 38.7595C20.419 37.0931 20.4318 34.3438 20.4497 34.053C20.5752 31.7138 21.0812 29.4099 21.9481 27.2295L24.627 27.242C24.7933 27.2906 24.9702 27.2913 25.1369 27.2443L62.1326 27.416C62.9665 29.9763 63.2732 32.6754 63.0347 35.3545C62.7962 38.0336 62.0173 40.6385 60.7439 43.016C60.7302 43.042 60.7177 43.0688 60.7064 43.0961C60.603 43.3482 58.1713 49.3014 57.9206 51.9608C57.2262 59.3161 59.634 69.8966 60.5027 73.3896Z" fill="black"/>
<path d="M53.3017 9.21917C53.0207 9.58486 52.7638 9.96798 52.5325 10.3662C51.7676 11.7139 51.7383 13.3401 52.4553 14.6102C53.6357 16.6991 56.251 17.1133 57.7042 17.1743C57.7843 17.1776 57.864 17.1793 57.9432 17.1793C58.7688 17.1865 59.5844 17.0011 60.3236 16.6382C61.0628 16.2753 61.7048 15.7451 62.1972 15.0908C63.3166 13.615 63.5916 11.6935 62.952 9.81742C62.4231 8.10538 61.2922 6.72408 59.5905 5.70963C58.3773 5.00631 57.0425 4.5311 55.6539 4.30806C54.2402 4.08077 53.8236 4.24484 53.5492 4.62707C53.4488 4.7692 53.3902 4.93598 53.3799 5.10896C53.3696 5.28193 53.408 5.45434 53.4908 5.6071C53.552 5.71104 53.6205 5.81057 53.6959 5.90493C53.9398 6.22759 54.3939 6.82813 54.3024 7.41877C54.2171 7.97056 53.7516 8.60538 53.3017 9.21917ZM54.8014 10.2911C55.3537 9.53787 55.9796 8.68414 56.1329 7.69466C56.2049 7.20739 56.1568 6.71015 55.9927 6.24511C57.7175 6.65263 60.3825 7.74707 61.1842 10.3614C61.1872 10.3709 61.1902 10.3805 61.1935 10.3899C61.6409 11.6913 61.466 13.0052 60.7152 13.9948C60.3769 14.4413 59.9322 14.7984 59.4206 15.0344C58.909 15.2705 58.3463 15.3781 57.7824 15.3478C55.9398 15.2704 54.6223 14.6927 54.0727 13.7194C53.6663 13 53.695 12.0575 54.1551 11.2464C54.3505 10.9152 54.5664 10.5961 54.8014 10.2911Z" fill="black"/>
</svg>
