<svg width="79" height="79" viewBox="0 0 79 79" fill="none" xmlns="http://www.w3.org/2000/svg">
<path d="M34.8633 38.5718C33.392 38.5747 31.9814 39.1514 30.9387 40.1763C29.896 41.2012 29.3056 42.5913 29.2961 44.044L29.2776 48.1632H27.6696C25.6165 48.1655 23.6482 48.9718 22.1964 50.4052C20.7447 51.8386 19.9281 53.7821 19.9258 55.8092V69.0956C19.9281 71.1226 20.7448 73.066 22.1965 74.4993C23.6483 75.9327 25.6166 76.7389 27.6696 76.7412H32.6866C34.7397 76.7389 36.708 75.9326 38.1598 74.4993C39.6115 73.0659 40.4281 71.1225 40.4305 69.0954V55.8092C40.4281 53.7821 39.6115 51.8387 38.1598 50.4053C36.708 48.9719 34.7397 48.1657 32.6866 48.1634H31.1291L31.1476 44.0524C31.1498 43.0794 31.5434 42.1471 32.2418 41.4607C32.9401 40.7742 33.8861 40.3898 34.8715 40.3919C35.857 40.3941 36.8012 40.7827 37.4964 41.4722C38.1917 42.1617 38.5811 43.0957 38.5789 44.0687V44.2792C38.5804 45.7366 39.1675 47.1339 40.2112 48.1644C41.2549 49.195 42.67 49.7747 44.1461 49.7764H44.1799C45.6559 49.7747 47.0709 49.1951 48.1146 48.1646C49.1583 47.1341 49.7454 45.737 49.7471 44.2797V37.5506H54.2539C54.4995 37.5506 54.7349 37.4543 54.9085 37.2829C55.0822 37.1115 55.1797 36.879 55.1797 36.6366V31.4287C55.1794 31.1959 55.0892 30.972 54.9275 30.8027C54.7657 30.6334 54.5446 30.5313 54.3093 30.5174V27.9083L58.9952 17.8841C59.0588 17.7479 59.0876 17.5982 59.0788 17.4484C59.07 17.2986 59.024 17.1532 58.9449 17.0251L49.8006 2.22609C49.7179 2.09232 49.6018 1.98177 49.4634 1.90507C49.325 1.82837 49.169 1.78809 49.0103 1.78809C48.8516 1.78809 48.6955 1.82837 48.5571 1.90507C48.4187 1.98177 48.3026 2.09232 48.22 2.22609L39.0756 17.0252C38.9964 17.1533 38.9504 17.2987 38.9416 17.4485C38.9329 17.5984 38.9616 17.748 39.0253 17.8843L43.7111 27.9085V30.5175C43.4758 30.5314 43.2546 30.6335 43.0929 30.8028C42.9311 30.9722 42.8409 31.1961 42.8406 31.4289V36.6361C42.8406 36.8785 42.9381 37.111 43.1117 37.2825C43.2853 37.4539 43.5208 37.5502 43.7664 37.5502H47.8955V44.2792C47.8945 45.2519 47.5027 46.1845 46.8061 46.8723C46.1095 47.5602 45.165 47.9471 44.1799 47.9483H44.1461C43.161 47.9471 42.2166 47.5603 41.52 46.8725C40.8234 46.1848 40.4316 45.2523 40.4305 44.2797V44.0691C40.4289 42.6117 39.8419 41.2144 38.7982 40.1838C37.7545 39.1532 36.3394 38.5735 34.8633 38.5718ZM27.6696 49.9913H29.2743V57.0811H21.7773V55.8092C21.7791 54.2668 22.4004 52.788 23.505 51.6973C24.6097 50.6066 26.1074 49.9931 27.6696 49.9913ZM32.6866 74.9131H27.6696C26.1074 74.9114 24.6097 74.2979 23.5051 73.2072C22.4005 72.1166 21.7791 70.6378 21.7773 69.0954V58.9092H38.5789V69.0954C38.5771 70.6378 37.9558 72.1166 36.8511 73.2072C35.7465 74.2979 34.2488 74.9114 32.6866 74.9131ZM38.5789 55.8092V57.0813H31.1248V49.9913H32.686C34.2483 49.9929 35.7462 50.6063 36.851 51.6971C37.9558 52.7878 38.5772 54.2666 38.5789 55.8092ZM52.4579 30.5148H45.5627V28.6218H52.4579V30.5148ZM49.0103 16.0993C49.3777 16.0992 49.7368 16.2068 50.0423 16.4083C50.3477 16.6098 50.5858 16.8962 50.7264 17.2313C50.867 17.5664 50.9039 17.9351 50.8322 18.2909C50.7605 18.6466 50.5837 18.9734 50.3239 19.2299C50.0641 19.4864 49.7332 19.6611 49.3729 19.7318C49.0126 19.8026 48.6391 19.7663 48.2997 19.6275C47.9603 19.4887 47.6702 19.2537 47.4661 18.9521C47.262 18.6505 47.153 18.2959 47.153 17.9332C47.1536 17.447 47.3494 16.9809 47.6976 16.637C48.0458 16.2932 48.5179 16.0998 49.0103 16.0993ZM48.0845 5.95546V14.3869C47.2103 14.6094 46.4482 15.1392 45.9413 15.8768C45.4344 16.6144 45.2173 17.5093 45.3309 18.3936C45.4445 19.2779 45.8809 20.091 46.5583 20.6803C47.2356 21.2696 48.1075 21.5948 49.0103 21.5948C49.9131 21.5948 50.785 21.2696 51.4623 20.6803C52.1397 20.091 52.5761 19.2779 52.6897 18.3936C52.8032 17.5093 52.5862 16.6144 52.0793 15.8768C51.5724 15.1392 50.8103 14.6094 49.9361 14.3869V5.95546L57.1072 17.561L52.7913 26.793H45.2292L40.9134 17.561L48.0845 5.95546ZM44.6921 32.3428H53.3281V35.7219H44.6921V32.3428Z" fill="black"/>
</svg>
