<svg width="72" height="72" viewBox="0 0 72 72" fill="none" xmlns="http://www.w3.org/2000/svg">
<path d="M70.4582 8.6512C69.9827 8.54079 69.4829 8.68416 69.1395 9.03023L63.2982 14.9063H60.4978L57.4151 11.7186V8.88466L63.1727 3.05256C63.5134 2.70759 63.6521 2.21156 63.5393 1.7397C63.427 1.26838 63.0791 0.888257 62.619 0.733349C61.1726 0.246655 59.659 1.13431e-05 58.1196 1.13431e-05C53.5304 1.13431e-05 49.3612 2.13576 46.6808 5.85957C44.1721 9.34554 43.3988 13.6176 44.5067 17.7061L34.128 28.0646L16.8369 10.7677V7.37294C16.8369 6.87911 16.5771 6.42098 16.1528 6.16719L6.19012 0.200512C5.63532 -0.131825 4.92587 -0.0444833 4.46904 0.411999L0.484207 4.3885C0.0273819 4.84499 -0.0601303 5.55306 0.272306 6.10677L6.24956 16.0499C6.50384 16.4735 6.96232 16.7322 7.45712 16.7327L10.8574 16.7338L28.1502 34.0307L17.8111 44.3497C13.7145 43.2444 9.43192 44.0173 5.93749 46.5228C2.20858 49.1963 0.0703125 53.3563 0.0703125 57.9365C0.0703125 59.4723 0.317438 60.9835 0.805085 62.4266C0.960846 62.8885 1.34557 63.2374 1.82111 63.3472C2.2972 63.4576 2.7964 63.3143 3.1404 62.9682L8.98115 57.0927H11.797L15.0052 60.2947V63.105L9.1182 68.9343C8.77145 69.2776 8.6278 69.7759 8.73843 70.251C8.84851 70.7256 9.198 71.1096 9.66088 71.2651C11.1068 71.7518 12.6209 71.9984 14.1598 71.9984C18.7489 71.9984 22.9165 69.8638 25.5958 66.1422C28.1062 62.6545 28.8806 58.3809 27.7732 54.2923L36.0769 46.0047L37.9791 48.0669L37.1062 48.9375C36.5558 49.4869 36.5558 50.3773 37.1062 50.9266C37.6565 51.4754 38.5482 51.4754 39.0991 50.9266L39.8895 50.1378L57.7365 69.4858C57.7497 69.5001 57.7635 69.5139 57.7772 69.5276C61.0796 72.8235 66.4299 72.8246 69.7339 69.527C73.0286 66.2372 73.0286 60.8841 69.7339 57.5942C69.7196 57.5799 69.7047 57.5662 69.6899 57.5525L50.2737 39.7744L51.0553 38.9944C51.6057 38.4456 51.6057 37.5552 51.0553 37.0058C50.5049 36.4565 49.6133 36.4565 49.0623 37.0058L48.1954 37.8716L46.1254 35.9753L54.4694 27.6477C55.6555 27.9641 56.8795 28.1245 58.1196 28.1245C65.8889 28.1245 72.209 21.8161 72.209 14.0625C72.209 12.5261 71.9619 11.0155 71.4743 9.57186C71.3185 9.10988 70.9338 8.76107 70.4582 8.6512ZM12.4393 14.3344C12.1751 14.0702 11.8168 13.9356 11.4425 13.9356L8.25573 13.9345L3.25488 5.6014L5.68376 3.17726L14.0189 8.16945V11.35C14.0189 11.7224 14.1669 12.0795 14.4306 12.3432L32.1356 30.0537L30.1426 32.0422L12.4393 14.3344ZM48.2791 41.7651L67.7613 59.6031C69.9376 61.7982 69.931 65.3522 67.7409 67.5391C65.546 69.7297 61.9927 69.7363 59.7889 67.5583L41.8836 48.1471L48.2791 41.7651ZM46.2008 39.8617L39.9731 46.0762L38.071 44.014L44.1308 37.9655L46.2008 39.8617ZM58.1196 25.312C56.8872 25.312 55.6753 25.1148 54.5183 24.7259C54.0114 24.5561 53.4511 24.6869 53.0725 25.0642C46.0087 32.1142 30.7882 47.3044 25.1836 52.8987C24.8049 53.2766 24.6734 53.8358 24.8445 54.3423C26.0158 57.8134 25.4555 61.5158 23.3067 64.5013C21.1641 67.4781 17.8298 69.1859 14.1598 69.1859C13.7475 69.1859 13.3375 69.1634 12.9313 69.12L17.4065 64.6881C17.6729 64.4244 17.8232 64.0652 17.8232 63.69V59.7118C17.8232 59.3389 17.6746 58.9813 17.4104 58.7176L13.3766 54.6916C13.1124 54.428 12.7541 54.2797 12.3804 54.2797H8.39443C8.01852 54.2797 7.65856 54.4296 7.39382 54.6955L2.95381 59.162C2.90978 58.7566 2.88777 58.3473 2.88777 57.9359C2.88777 54.2725 4.59838 50.9453 7.58151 48.8068C10.5723 46.6623 14.2825 46.1025 17.761 47.272C18.2679 47.4429 18.8282 47.3116 19.2069 46.9336C19.2845 46.8567 47.0759 19.119 47.0958 19.0992C47.4744 18.7213 47.6054 18.1626 47.4348 17.6562C46.263 14.185 46.8222 10.4837 48.9693 7.50038C51.1136 4.52089 54.4484 2.81251 58.119 2.81251C58.5439 2.81251 58.9661 2.83613 59.3844 2.88228L55.0021 7.32131C54.7424 7.58443 54.597 7.93874 54.597 8.30788V12.286C54.597 12.6508 54.7385 13.0007 54.9922 13.2627L58.8851 17.2887C59.1504 17.5633 59.5164 17.7182 59.899 17.7182H63.8849C64.2603 17.7182 64.6202 17.5688 64.885 17.3024L69.325 12.8364C69.369 13.2418 69.391 13.6511 69.391 14.0625C69.391 20.2654 64.3346 25.312 58.1196 25.312Z" fill="url(#paint0_linear)"/>
<defs>
<linearGradient id="paint0_linear" x1="28.0735" y1="-20.0001" x2="17.4279" y2="96.8133" gradientUnits="userSpaceOnUse">
<stop stop-color="#FED976"/>
<stop offset="1" stop-color="#FEB54A"/>
</linearGradient>
</defs>
</svg>
