<svg width="76" height="76" fill="none" xmlns="http://www.w3.org/2000/svg"><g clip-path="url(#clip0)" fill="#086293"><path d="M44.98 9.14a1.484 1.484 0 10-.695 2.886C56.316 14.927 64.72 25.608 64.72 38c0 14.733-11.986 26.719-26.719 26.719s-26.718-11.986-26.718-26.72c0-12.391 8.402-23.072 20.432-25.972a1.485 1.485 0 00-.696-2.886c-6.365 1.534-12.131 5.214-16.237 10.36C10.549 24.804 8.313 31.2 8.313 38 8.313 54.37 21.63 67.687 38 67.687S67.688 54.37 67.688 38c0-6.799-2.237-13.196-6.469-18.5-4.106-5.146-9.873-8.825-16.238-10.36z"/><path d="M75.105 34.43l-1.737-3.24.29-4.006a7.577 7.577 0 00-2.743-6.707l-2.883-2.36L66.9 14.7a7.63 7.63 0 00-5.193-5.488l-3.558-1.075-2.725-3.15a7.596 7.596 0 00-6.528-2.64l-3.693.368-3.63-1.821a7.573 7.573 0 00-7.143 0L31.19 2.63l-4.005-.29a7.576 7.576 0 00-6.707 2.743l-2.36 2.883L14.7 9.101a7.63 7.63 0 00-5.489 5.192l-1.075 3.558-3.15 2.725a7.596 7.596 0 00-2.64 6.529l.369 3.693-1.821 3.63a7.573 7.573 0 000 7.143l1.736 3.24-.29 4.005a7.577 7.577 0 002.743 6.707l2.883 2.36L9.1 61.3a7.629 7.629 0 005.192 5.488l3.558 1.075 2.725 3.15a7.594 7.594 0 006.529 2.64l3.692-.368 3.63 1.82a7.578 7.578 0 007.142 0l3.24-1.735 4.006.29a7.58 7.58 0 006.707-2.743l2.36-2.883L61.3 66.9a7.63 7.63 0 005.488-5.193l1.075-3.558 3.15-2.725a7.595 7.595 0 002.64-6.529l-.368-3.692 1.82-3.63a7.574 7.574 0 00.001-7.143zm-2.627 5.757a1.829 1.829 0 00-.018.036l-2.023 4.033a1.486 1.486 0 00-.15.813l.41 4.119a4.631 4.631 0 01-1.618 3.982l-3.485 3.015a1.483 1.483 0 00-.45.694l-1.2 3.97a4.653 4.653 0 01-3.389 3.176c-.044.01-.088.022-.13.036l-3.886 1.29a1.485 1.485 0 00-.68.468l-2.634 3.216a4.62 4.62 0 01-4.168 1.665l-4.462-.323c-.28-.02-.56.04-.808.172l-3.617 1.938a4.609 4.609 0 01-4.357-.008l-.037-.019-4.032-2.022a1.485 1.485 0 00-.813-.15l-4.119.41a4.63 4.63 0 01-3.983-1.618l-3.015-3.485a1.483 1.483 0 00-.693-.45l-3.97-1.2a4.652 4.652 0 01-3.176-3.39 1.447 1.447 0 00-.037-.13l-1.29-3.885a1.482 1.482 0 00-.468-.681l-3.215-2.634A4.62 4.62 0 015.3 49.058l.323-4.463c.02-.28-.04-.56-.172-.808l-1.939-3.616a4.61 4.61 0 01.027-4.394l2.023-4.032c.126-.252.178-.534.15-.813l-.41-4.12A4.632 4.632 0 016.92 22.83l3.485-3.015a1.49 1.49 0 00.45-.694l1.2-3.97a4.653 4.653 0 013.39-3.176c.043-.01.087-.022.13-.036l3.885-1.29c.267-.088.503-.25.68-.468l2.634-3.216A4.621 4.621 0 0126.942 5.3l4.462.323c.28.02.56-.04.808-.172l3.616-1.938a4.609 4.609 0 014.395.027l4.032 2.022c.251.126.533.179.813.15l4.119-.41A4.63 4.63 0 0153.17 6.92l3.015 3.485c.183.213.424.369.693.45l3.97 1.2a4.653 4.653 0 013.176 3.39c.01.044.022.087.037.13l1.29 3.885c.088.267.25.503.468.681l3.216 2.633a4.62 4.62 0 011.664 4.168l-.323 4.462c-.02.28.04.561.172.809l1.939 3.616a4.609 4.609 0 01-.008 4.358z"/><path d="M31.558 29.913a1.483 1.483 0 00-1.34-.85h-7.843c-.82 0-1.484.665-1.484 1.484v22.469c0 .82.664 1.484 1.484 1.484h7.843c.615 0 1.143-.374 1.368-.907 1.132.158 2.297.48 3.51.816 1.825.505 3.712 1.028 5.672 1.028h8.57c2.648 0 4.795-1.405 5.741-3.757.461-1.147.542-2.336.273-3.332a5.369 5.369 0 001.224-1.639c.638-1.305.766-2.772.404-4.008.674-.652 1.178-1.513 1.44-2.527.247-.949.242-1.885.023-2.695 1.34-.788 2.241-2.219 2.241-3.831 0-1.265-.492-2.43-1.386-3.281a4.641 4.641 0 00-3.22-1.268H43.999c-.917-1.15-1.203-2.713-.68-3.97 1.072-2.58 1.005-4.765-.216-7.083-.906-1.72-3.343-3.433-5.391-3.14-1.238.176-2.134 1.051-2.397 2.34-.077.38-.098.79-.123 1.264-.06 1.17-.144 2.773-1.154 4.708-.685 1.312-.913 2.662-1.115 3.852-.288 1.706-.428 2.528-1.365 2.843zm-7.699 2.119h4.875v19.5h-4.875v-19.5zm11.991-4.466c.173-1.021.352-2.078.82-2.974 1.31-2.509 1.42-4.65 1.487-5.928.018-.341.034-.663.067-.825v-.003c.516.007 1.783.702 2.253 1.594.813 1.543.84 2.78.1 4.56-.667 1.606-.617 3.47.043 5.126a1.484 1.484 0 00.206 2.953h15.252c.452 0 .869.159 1.173.448.212.202.464.562.464 1.13 0 .797-.73 1.486-1.594 1.504l-3.82.083a1.484 1.484 0 00.032 2.969h.033l3.181-.07c.104.294.158.855-.06 1.498-.186.547-.685 1.463-1.941 1.463a1.484 1.484 0 100 2.97c.225 0 .446-.015.662-.042.018.42-.068.912-.299 1.383-.272.557-.81 1.221-1.83 1.221a1.484 1.484 0 000 2.969c.154 0 .306-.007.456-.02a2.803 2.803 0 01-.223 1.03c-.233.56-.99 1.863-2.975 1.863h-8.569c-1.556 0-3.17-.447-4.879-.92-1.36-.376-2.753-.762-4.186-.934V32.917c3.341-.606 3.802-3.311 4.147-5.351zM38 11.281a1.484 1.484 0 000-2.968 1.484 1.484 0 100 2.968z"/></g><defs><clipPath id="clip0"><path fill="#fff" d="M0 0h76v76H0z"/></clipPath></defs></svg>