<svg width="76" height="76" fill="none" xmlns="http://www.w3.org/2000/svg"><g clip-path="url(#clip0)" fill="#086293"><path d="M16.303 73.656l-2.234-3.148a1.484 1.484 0 10-2.421 1.719l2.235 3.147a1.482 1.482 0 002.07.352 1.484 1.484 0 00.35-2.07zm17.126.554l-2.432-11.59a21.86 21.86 0 00-9.245-13.724l-5.193-3.492a5.223 5.223 0 00-6.62.676V28.194a4.94 4.94 0 00-3.893-4.851 4.945 4.945 0 00-4.187.975A4.946 4.946 0 000 28.194v23.015c0 3.015.923 5.909 2.668 8.368l2.647 3.729a1.482 1.482 0 002.07.35 1.484 1.484 0 00.351-2.069L5.09 57.858a11.425 11.425 0 01-2.12-6.649V28.194c0-.61.273-1.179.748-1.56a1.99 1.99 0 011.686-.393 1.988 1.988 0 011.567 1.953v18.26c0 2.585.95 5.047 2.675 6.964.074.088.15.176.23.26.986 1.046 2.145 2.276 3.236 3.437l1.528 1.626.016.015 2.291 2.438a1.485 1.485 0 002.164-2.032c-.027-.029-1.764-1.88-3.749-3.988l-3.403-3.623-.025-.028a2.505 2.505 0 01.048-3.282 2.244 2.244 0 012.922-.373l5.192 3.491a18.906 18.906 0 017.997 11.87l2.432 11.591a1.485 1.485 0 002.905-.61z"/><path d="M10.998 66.182l-.01-.014a1.485 1.485 0 00-2.417 1.725l.01.013a1.483 1.483 0 002.07.346 1.485 1.485 0 00.347-2.07zM74.14 24.318a4.947 4.947 0 00-4.186-.975 4.94 4.94 0 00-3.892 4.851V46.08a5.223 5.223 0 00-6.621-.676l-5.193 3.492a21.86 21.86 0 00-9.245 13.723l-2.432 11.592a1.484 1.484 0 102.905.61l2.432-11.592a18.906 18.906 0 017.996-11.87l5.193-3.491a2.244 2.244 0 012.922.373c.835.943.847 2.325.052 3.279l-.028.031-7.153 7.61a1.484 1.484 0 002.164 2.033c.02-.021 6.085-6.47 7.071-7.515.08-.085.157-.173.23-.261a10.372 10.372 0 002.675-6.964v-18.26a1.99 1.99 0 011.567-1.953 1.992 1.992 0 011.686.393c.475.381.748.95.748 1.56v23.015a11.43 11.43 0 01-2.12 6.65L59.697 73.655a1.484 1.484 0 002.42 1.719l11.215-15.798A14.378 14.378 0 0076 51.209V28.194a4.947 4.947 0 00-1.86-3.876z"/><path d="M56.8 28.45l-2.64-.631v-.474a6.64 6.64 0 002.842-5.443v-3.434a6.65 6.65 0 00-6.644-6.643 6.615 6.615 0 00-4.31 1.594c-1.293-3.166-4.404-5.403-8.03-5.403-3.63 0-6.744 2.243-8.033 5.415a6.613 6.613 0 00-4.325-1.606 6.65 6.65 0 00-6.643 6.643v3.433a6.64 6.64 0 002.842 5.444v.473l-2.641.631a6.954 6.954 0 00-5.355 6.785v2.773c0 .82.664 1.484 1.484 1.484h6.82c-.01.18-.017.361-.017.544v5.337c0 .82.665 1.484 1.484 1.484h8.923a1.484 1.484 0 100-2.968h-1.534V40.82a1.484 1.484 0 10-2.968 0v3.068h-2.936v-3.853a6.146 6.146 0 014.728-5.996l4.074-.976 2.726 6.202a1.484 1.484 0 002.718 0l2.722-6.192 4.061.97a6.145 6.145 0 014.733 5.996v3.849h-2.936V40.82a1.484 1.484 0 00-2.969 0v3.068h-1.682a1.484 1.484 0 000 2.969h9.071c.82 0 1.484-.665 1.484-1.485V40.04c0-.184-.007-.366-.018-.548h6.84c.82 0 1.485-.664 1.485-1.484v-2.772a6.954 6.954 0 00-5.355-6.786zm-6.442-13.656a3.68 3.68 0 013.667 3.432H51.96a10.82 10.82 0 01-4.977-1.213 3.68 3.68 0 013.374-2.22zm-3.675 6.89c.002-.072.006-.144.006-.216v-1.322a13.787 13.787 0 005.272 1.049h2.072v.707a3.679 3.679 0 01-3.675 3.674 3.679 3.679 0 01-3.675-3.675v-.216zm-14.366-4.998a5.708 5.708 0 015.702-5.702 5.71 5.71 0 015.63 4.796l-2.5-1.468a1.484 1.484 0 00-1.89.326 6.395 6.395 0 01-4.913 2.293h-2.029v-.245zm-6.657-1.893c1.51 0 2.81.916 3.374 2.22a10.82 10.82 0 01-4.976 1.213h-2.064a3.68 3.68 0 013.666-3.432zm-3.674 6.401h2.072a13.8 13.8 0 005.277-1.05V21.9a3.679 3.679 0 01-3.675 3.675 3.679 3.679 0 01-3.674-3.675v-.707zm7.17 9.958a9.104 9.104 0 00-6.308 5.37H16.83v-1.287a3.995 3.995 0 013.077-3.898l3.78-.903a1.484 1.484 0 001.14-1.444v-.5a6.531 6.531 0 001.659.002v.423a1.483 1.483 0 001.204 1.527l2.215.53-.75.18zm4.14-2.304a6.964 6.964 0 00-1.188-.4l-2.652-.636v-.463c.478-.334.911-.73 1.286-1.175a8.74 8.74 0 002.554 2.56v.114zm6.447 2.181l-1.737 3.95-1.741-3.96v-1.06a8.679 8.679 0 003.478.006v1.064zm-1.724-3.86a5.708 5.708 0 01-5.702-5.701V19.9h2.03a9.353 9.353 0 006.306-2.437l3.062 1.799v2.423a5.707 5.707 0 01-5.696 5.484zm4.693 1.684v-.1a8.735 8.735 0 002.575-2.567c.372.44.801.832 1.275 1.163v.463l-2.651.635a7.09 7.09 0 00-1.2.406zm16.475 7.67H53.15a9.102 9.102 0 00-6.312-5.368l-.745-.178 2.226-.533a1.483 1.483 0 001.212-1.497v-.455c.271.033.547.053.827.053.282 0 .56-.02.833-.054v.499c0 .687.471 1.284 1.14 1.444l3.78.903a3.995 3.995 0 013.076 3.898v1.288z"/><path d="M39.05 44.322a1.496 1.496 0 00-1.05-.434c-.392 0-.773.158-1.05.434a1.492 1.492 0 00-.434 1.05c0 .391.157.773.434 1.05.276.276.658.435 1.05.435.39 0 .772-.159 1.05-.435.275-.277.434-.659.434-1.05s-.159-.773-.435-1.05zM37.999 0c-.82 0-1.485.665-1.485 1.484v2.221a1.484 1.484 0 002.97 0v-2.22c0-.82-.665-1.485-1.485-1.485zm-5.468 4.842l-1.557-1.556a1.484 1.484 0 10-2.098 2.1l1.557 1.556c.29.29.67.434 1.049.434a1.485 1.485 0 001.049-2.534zm14.556-1.518a1.484 1.484 0 00-2.099.001l-1.545 1.547a1.484 1.484 0 002.1 2.098l1.545-1.547c.58-.58.58-1.52 0-2.099z"/></g><defs><clipPath id="clip0"><path fill="#fff" d="M0 0h76v76H0z"/></clipPath></defs></svg>