<svg width="83" height="83" fill="none" xmlns="http://www.w3.org/2000/svg"><path d="M76.516 46.688a3.89 3.89 0 100-7.782 3.89 3.89 0 000 7.782zm0-5.188a1.297 1.297 0 110 2.593 1.297 1.297 0 010-2.593zM66.14 38.906a3.89 3.89 0 100-7.78 3.89 3.89 0 000 7.78zm0-5.187a1.297 1.297 0 110 2.593 1.297 1.297 0 010-2.593zm0 12.969a1.297 1.297 0 100-2.594 1.297 1.297 0 000 2.593zm10.376-12.969a1.297 1.297 0 100-2.594 1.297 1.297 0 000 2.594z" fill="#086293"/><path d="M77.673 64.844h.14a1.297 1.297 0 001.296-1.297v-7.781a1.297 1.297 0 00-1.297-1.297H75.22v-2.594h1.297a1.297 1.297 0 100-2.594H66.14a1.297 1.297 0 000 2.594h1.296v3.588a3.904 3.904 0 00-1.073 1.6h-7.27l-7.22-12.032V37.61a6.496 6.496 0 00-5.187-6.354V19.453a16.86 16.86 0 10-33.718 0v11.802a6.496 6.496 0 00-5.188 6.354v7.682L2.61 78.913a1.297 1.297 0 001.282 1.493h41.5a1.297 1.297 0 001.296-1.297V63.853l2.731 5.461a1.296 1.296 0 001.16.717h11.766a9.079 9.079 0 1015.329-5.187zm-1.157-2.594H70.03a1.298 1.298 0 01-1.297-1.297V58.36a1.298 1.298 0 011.297-1.297h6.485v5.188zM70.03 51.875h2.594v2.594H70.03v-2.594zM49.28 37.609v6.485H35.016V40.28a11.694 11.694 0 006.425-9.275 6.456 6.456 0 002.653-1.18v2.597a1.297 1.297 0 001.297 1.297 3.895 3.895 0 013.89 3.89zM22.825 48.244l-2.075-1.556h4.386l3.395 6.79v6.178l-5.187-6.916v-3.46a1.297 1.297 0 00-.52-1.037zM20.75 20.75h18.156v6.683l-5.753.959-.868-1.738a1.296 1.296 0 00-1.16-.716H28.53a1.297 1.297 0 00-1.16.716l-.868 1.738-5.753-.96V20.75zm20.75.223a3.89 3.89 0 010 7.335v-7.335zm-16.553-2.817l9.625-4.812 3.208 4.812H24.947zm-6.79 10.152a3.89 3.89 0 010-7.335v7.335zm8.864 2.8a1.296 1.296 0 001.373-.7l.939-1.877h.99l.939 1.877a1.297 1.297 0 001.373.7l6.265-1.045a9.075 9.075 0 01-18.144 0l6.265 1.045zM29.828 41.5c.873 0 1.743-.1 2.594-.294v3.878l-2.594 5.188-2.594-5.188v-3.878c.851.195 1.721.293 2.594.294zm1.297 11.978l3.395-6.79h4.386l-2.075 1.556a1.296 1.296 0 00-.519 1.037v3.459l-5.187 6.916v-6.178zm-1.297-48.29a14.282 14.282 0 0114.266 14.265v.004a6.449 6.449 0 00-3.17-1.26l-4.83-7.245a1.297 1.297 0 00-1.659-.44l-15.304 7.652a6.449 6.449 0 00-3.569 1.293v-.004A14.282 14.282 0 0129.828 5.188zm-15.562 28.53a1.297 1.297 0 001.296-1.296v-2.597c.784.59 1.69.993 2.653 1.18a11.694 11.694 0 006.426 9.275v3.814H10.375v-6.485a3.895 3.895 0 013.89-3.89zm-4.075 12.97h6.236l4.323 3.242v3.242c0 .28.091.553.26.778l7.521 10.03v13.833H15.562V58.358a1.297 1.297 0 10-2.593 0v19.453H5.402l4.789-31.124zm41.189 20.75l-4.83-9.659a1.297 1.297 0 00-2.456.58v19.453h-12.97V63.98l7.523-10.029c.168-.225.26-.498.26-.778V49.93l4.322-3.242h6.614l7.404 12.339a1.298 1.298 0 001.112.63h7.782v1.296a3.871 3.871 0 00.838 2.409 9.14 9.14 0 00-3.851 4.075H51.38zm19.948 10.374a6.485 6.485 0 116.484-6.484 6.491 6.491 0 01-6.484 6.484z" fill="#086293"/></svg>