<svg width="73" height="73" fill="none" xmlns="http://www.w3.org/2000/svg"><path d="M71.93 66.252h-4.404V49.569a1.07 1.07 0 00-2.138 0v16.683h-9.383V29.504h9.383v15.074a1.07 1.07 0 002.138 0V28.434c0-.59-.478-1.069-1.069-1.069H54.935a1.07 1.07 0 00-1.069 1.07v37.817h-2.47V34.196a1.07 1.07 0 00-1.07-1.07H38.805a1.07 1.07 0 00-1.069 1.07v32.056h-2.47V42.837c0-.59-.479-1.07-1.07-1.07H22.675c-.591 0-1.07.48-1.07 1.07v23.415h-2.47V49.75a1.07 1.07 0 00-1.07-1.07H6.543a1.07 1.07 0 00-1.069 1.07v16.5H1.069c-.59 0-1.069.48-1.069 1.07v4.61C0 72.52.479 73 1.07 73h11.548a1.07 1.07 0 000-2.139H2.138v-2.47h68.723v2.47H17.608a1.07 1.07 0 000 2.139h54.323A1.07 1.07 0 0073 71.93v-4.609c0-.59-.479-1.07-1.07-1.07zM39.875 35.265h9.383v30.987h-9.383V35.265zm-16.131 8.642h9.383v22.345h-9.383V43.907zM7.612 50.82h9.383v15.432H7.612V50.82zM6.399 39.01h16.274c.944 0 1.85-.4 2.488-1.094l13.255-14.462h9.03a3.35 3.35 0 002.386-.988L60.78 11.518v3.378c0 .591.478 1.07 1.069 1.07h4.608c.59 0 1.07-.479 1.07-1.07V3.373A3.377 3.377 0 0064.152 0H52.631a1.07 1.07 0 00-1.069 1.07v4.609c0 .59.479 1.07 1.07 1.07h3.376l-9.959 9.958h-9.117a3.38 3.38 0 00-2.486 1.094L21.189 32.263H18.24a1.07 1.07 0 000 2.138h3.42c.299 0 .585-.126.787-.347l13.575-14.808c.233-.254.565-.4.91-.4h9.56c.283 0 .555-.113.756-.313L59.346 6.435a1.07 1.07 0 00-.756-1.825H53.7V2.139h10.453c.68 0 1.235.554 1.235 1.234v10.454h-2.47v-4.89a1.07 1.07 0 00-1.825-.756L48.319 20.954a1.227 1.227 0 01-.873.361h-9.5c-.3 0-.586.126-.789.347L23.584 36.471a1.24 1.24 0 01-.911.4H7.468V34.4h5.782a1.07 1.07 0 100-2.138H6.399c-.59 0-1.07.478-1.07 1.069v4.608c0 .59.48 1.07 1.07 1.07z" fill="#086293"/></svg>