<svg width="76" height="76" fill="none" xmlns="http://www.w3.org/2000/svg"><g clip-path="url(#clip0)" fill="#086293"><path d="M58.867 39.386a5.951 5.951 0 01-4.553-2.125 6.12 6.12 0 01-1.437-4.426h-9.452c-.82 0-1.485-.664-1.485-1.484V21.34a1.484 1.484 0 011.753-1.46l.088.016a3.041 3.041 0 002.502-.658 3.043 3.043 0 001.098-2.344c0-.907-.4-1.761-1.098-2.343a3.043 3.043 0 00-2.502-.657l-.089.016a1.484 1.484 0 01-1.752-1.46V1.484c0-.82.665-1.484 1.485-1.484h24.624a6.734 6.734 0 016.727 6.726v24.625c0 .82-.665 1.484-1.485 1.484h-8.43a6.007 6.007 0 01-1.345 4.352 6.007 6.007 0 01-4.649 2.2zm-13.958-9.52h9.714a1.485 1.485 0 011.46 1.752l-.203 1.106a3.162 3.162 0 00.7 2.62 2.96 2.96 0 002.33 1.073 3.044 3.044 0 002.312-1.114c.57-.695.805-1.6.643-2.485l-.22-1.2a1.484 1.484 0 011.46-1.752h8.702V6.726a3.762 3.762 0 00-3.758-3.757H44.91v7.934a6.003 6.003 0 013.275 1.37 6.003 6.003 0 012.165 4.622 6.003 6.003 0 01-2.165 4.624 6.004 6.004 0 01-3.275 1.37v6.977z"/><path d="M62.442 51.508c.82 0 1.484-.665 1.484-1.485V44.65c0-.82-.664-1.484-1.484-1.484H52.257a1.484 1.484 0 00-1.46 1.751l.219 1.2a3.044 3.044 0 01-.643 2.485 3.043 3.043 0 01-2.311 1.114 2.962 2.962 0 01-2.33-1.073 3.162 3.162 0 01-.7-2.62l.202-1.106a1.485 1.485 0 00-1.46-1.751H34.06v-6.978a6.004 6.004 0 003.275-1.37 6.003 6.003 0 002.165-4.623 6.004 6.004 0 00-2.165-4.624 6.005 6.005 0 00-3.275-1.369v-9.418c0-.82-.665-1.485-1.485-1.485H7.951a6.734 6.734 0 00-6.726 6.726v49.25A6.734 6.734 0 007.95 76H57.2a6.734 6.734 0 006.725-6.726v-4.308a1.484 1.484 0 00-2.968 0v4.308A3.762 3.762 0 0157.2 73.03H34.06v-9.574a1.485 1.485 0 00-1.751-1.46l-.09.016a3.042 3.042 0 01-2.502-.657 3.042 3.042 0 01-1.098-2.344c0-.908.4-1.762 1.098-2.343a3.042 3.042 0 012.503-.658l.089.016a1.486 1.486 0 001.75-1.46v-8.434h7.969a6.118 6.118 0 001.437 4.426 5.952 5.952 0 004.64 2.125 6.007 6.007 0 004.562-2.2 6.006 6.006 0 001.344-4.35h6.947v3.89c0 .82.664 1.484 1.484 1.484zM4.193 20.024a3.762 3.762 0 013.758-3.757h23.14v9.482a1.484 1.484 0 001.751 1.46l.09-.016a3.043 3.043 0 012.502.658 3.043 3.043 0 011.098 2.343c0 .908-.4 1.762-1.098 2.343a3.043 3.043 0 01-2.502.658l-.09-.016a1.484 1.484 0 00-1.75 1.46v8.526h-6.37a6.007 6.007 0 00-5.783-4.33 6.006 6.006 0 00-5.783 4.33H4.193v-23.14zm23.623 34.364a6.004 6.004 0 00-2.165 4.625c0 1.791.789 3.476 2.165 4.623a6.002 6.002 0 003.275 1.37v8.025H7.951a3.762 3.762 0 01-3.758-3.757v-23.14h10.214c.795 0 1.449-.627 1.483-1.42a3.04 3.04 0 013.05-2.91 3.04 3.04 0 013.048 2.91c.035.794.688 1.42 1.483 1.42h7.62v6.885a6.003 6.003 0 00-3.275 1.37z"/><path d="M62.442 58.901c-.622 0-1.187-.4-1.397-.984a1.496 1.496 0 01.436-1.631 1.5 1.5 0 011.744-.129c.52.322.793.951.673 1.551a1.5 1.5 0 01-1.456 1.194z"/></g><defs><clipPath id="clip0"><path fill="#fff" d="M0 0h76v76H0z"/></clipPath></defs></svg>