<svg width="51" height="52" fill="none" xmlns="http://www.w3.org/2000/svg"><g clip-path="url(#clip0)" fill="#000"><path d="M38.872 14.428a.757.757 0 00-.586-.512l-3.703-.67-1.782-3.315a.757.757 0 00-1.334 0l-1.782 3.315-3.703.67a.757.757 0 00-.412 1.27l2.601 2.718-.506 3.73a.757.757 0 001.079.783l3.39-1.634 3.39 1.634a.758.758 0 001.08-.784l-.507-3.729 2.601-2.719a.757.757 0 00.174-.758zM34.75 17.12a.758.758 0 00-.203.625l.366 2.695-2.45-1.18a.757.757 0 00-.658 0l-2.45 1.18.366-2.695a.757.757 0 00-.203-.625l-1.88-1.965 2.676-.485a.757.757 0 00.532-.386l1.288-2.396 1.288 2.396a.756.756 0 00.532.386l2.676.485-1.88 1.965zm15.327 14.208c-.895-.895-2.068-1.125-3.303-.65a5.01 5.01 0 00-1.475.905l-6.374 5.273c.022-.164.034-.34.034-.528 0-1.29-1.358-2.227-4.153-2.866-2.13-.487-5.042-.767-7.99-.767-1.71 0-3.413.25-5.075.745v-.402a.757.757 0 00-.757-.758h-5.522a.757.757 0 00-.757.758v.975H.757A.757.757 0 000 34.77v10.884c0 .418.34.757.757.757h1.87a.757.757 0 000-1.514H1.516v-9.37h13.19v9.37H5.657a.757.757 0 000 1.514h9.048v.976c0 .418.339.757.757.757h5.522c.418 0 .757-.34.757-.757v-1.681c2.54.07 5.83.141 8.833.141 3.04 0 5.789-.072 7.17-.29 2.275-.358 6.092-3.336 11.345-8.85.15-.156.254-.267.308-.321l.009-.009c.35-.35 1.002-1.001 1.355-1.849.477-1.145.234-2.282-.684-3.2zm-29.85 15.301h-4.008V33.795h4.007V46.63zm29.136-12.684c-.238.571-.752 1.085-1.028 1.361l-.009.009c-.059.059-.173.178-.334.348-2.825 2.964-7.942 7.998-10.484 8.398-2.635.415-10.698.271-15.753.13v-9.17a16.322 16.322 0 015.062-.811c2.838 0 5.627.265 7.651.728 2.43.556 2.976 1.206 2.976 1.39 0 1.146-.693 1.329-.99 1.354a.73.73 0 00-.059.007.785.785 0 00-.044-.006c-.549-.056-5.696-.013-6.722-.004a.757.757 0 00.006 1.515h6.64a.758.758 0 00.12-.01.7.7 0 00.122.01h1.685a.757.757 0 00.482-.174l7.596-6.282a3.526 3.526 0 011.038-.646c.893-.344 1.39.01 1.687.307.49.49.6.966.358 1.546z"/><path d="M32.134 28.39c6.826 0 12.379-5.552 12.379-12.378 0-6.825-5.553-12.378-12.379-12.378-2.81 0-5.459.918-7.66 2.654a.757.757 0 00.938 1.19 10.75 10.75 0 016.722-2.33c5.99 0 10.864 4.874 10.864 10.864 0 5.99-4.874 10.864-10.864 10.864-5.99 0-10.863-4.874-10.863-10.864 0-2.282.7-4.466 2.023-6.315a.757.757 0 10-1.232-.882 12.294 12.294 0 00-2.306 7.197c0 6.826 5.553 12.379 12.378 12.379z"/></g><defs><clipPath id="clip0"><path fill="#fff" transform="translate(0 .389)" d="M0 0h51v51H0z"/></clipPath></defs></svg>