<svg width="48" height="48" fill="none" xmlns="http://www.w3.org/2000/svg"><g clip-path="url(#clip0)" fill="#000"><path d="M12.537 7.743C6.882 7.743 2.281 12.344 2.281 18s4.601 10.257 10.256 10.257c5.656 0 10.257-4.601 10.257-10.257 0-5.655-4.601-10.256-10.257-10.256zm0 19.133c-4.894 0-8.876-3.982-8.876-8.877 0-4.894 3.982-8.876 8.876-8.876 4.895 0 8.877 3.982 8.877 8.876 0 4.895-3.982 8.877-8.877 8.877z"/><path d="M15.61 16.482a.69.69 0 00.69-.69v-.736a2.9 2.9 0 00-2.898-2.897h-.046V10.64a.69.69 0 00-1.38 0v1.534a3.27 3.27 0 00-2.943 3.25 3.27 3.27 0 003.266 3.265h.735c1.04 0 1.886.845 1.886 1.885s-.846 1.886-1.886 1.886h-1.103a1.52 1.52 0 01-1.518-1.518.69.69 0 00-1.38 0 2.9 2.9 0 002.898 2.898h.046v1.517a.69.69 0 001.38 0v-1.533a3.27 3.27 0 002.943-3.25 3.27 3.27 0 00-3.266-3.265H12.3a1.888 1.888 0 01-1.886-1.886c0-1.04.846-1.885 1.886-1.885h1.103c.837 0 1.518.68 1.518 1.517v.736c0 .381.309.69.69.69zm7.966 17.661a.69.69 0 00.69-.69v-4.416a.69.69 0 00-.69-.69H4.443a.69.69 0 00-.69.69v3.726H2.97a.69.69 0 00-.69.69v4.415c0 .381.31.69.69.69h.782v3.035H2.97a.69.69 0 00-.69.69v4.415c0 .381.31.69.69.69h19.133a.69.69 0 00.69-.69v-3.725h.782a.69.69 0 00.69-.69v-4.415a.69.69 0 00-.69-.69h-.782v-3.035h.782zM3.66 37.178v-3.035h17.753v3.035H3.66zm17.753 8.83H3.66v-3.035h17.753v3.035zm1.472-7.45v3.035H5.133v-3.035h17.753zM5.133 32.763v-3.036h17.753v3.036H5.133zm40.315-19.617L35.146.636a.697.697 0 00-1.066 0l-10.302 12.51c-.363.441-.038 1.128.533 1.128h4.461v21.387c0 .38.31.69.69.69h10.302a.69.69 0 00.69-.69v-2.898a.69.69 0 00-1.38 0v2.208h-8.922V13.585a.69.69 0 00-.69-.69h-3.69L34.614 2.16l8.84 10.735h-3.689a.69.69 0 00-.69.69v15.913a.69.69 0 001.38 0V14.274h4.461c.571 0 .897-.686.533-1.128zM39.766 38.65H29.463a.69.69 0 000 1.38h10.303a.69.69 0 000-1.38zm0 3.68H29.463a.69.69 0 000 1.38h10.303a.69.69 0 000-1.38zm0 3.679H29.463a.69.69 0 000 1.38h10.303a.69.69 0 000-1.38z"/></g><defs><clipPath id="clip0"><path fill="#fff" transform="translate(.441 .389)" d="M0 0h47v47H0z"/></clipPath></defs></svg>