<svg width="49" height="50" fill="none" xmlns="http://www.w3.org/2000/svg"><g clip-path="url(#clip0)"><path d="M6.557 18.171c.352.204.76.244 1.128.144.369-.098.7-.336.903-.686 1.096-1.9 2.236-4.094 3.41-5.909.188-.344.223-.738.128-1.096-.122-.45-.353-.678-.727-.925L6.52 6.883l-4.877 8.45 4.913 2.838zm16.092.082c.217.124.47.154.714.09.309-.082.428-.231.596-.478a.953.953 0 00-.336-1.226l-5.111-2.952c-.873-.505-1.557-.401-2.282-.293-.944.144-1.942.293-3.38-.372l-2.718 4.71c1.899 1.196 2.613 2.21 3.32 3.217.679.963 1.352 1.918 3.327 3.06 1.974 1.14 4.096 2.241 6.033 2.561 1.82.302 3.814-.285 4.788-1.97.203-.352.228-.773.12-1.166-.158-.567-.47-.879-.94-1.19-2.644-1.528-5.292-3.055-7.937-4.583a.697.697 0 01.697-1.204l3.11 1.796zm-17.541.683a19.685 19.685 0 00-.366 3.814c0 1.539.173 3.034.501 4.463.342 1.479.847 2.89 1.495 4.216a.693.693 0 11-1.245.61 20.897 20.897 0 01-1.606-4.517 21.313 21.313 0 01-.543-4.771 21.401 21.401 0 01.494-4.547L.35 16.19a.697.697 0 01-.258-.95l5.575-9.65a.694.694 0 01.946-.258l3.43 1.98A21.09 21.09 0 0124.5 1.596a21.079 21.079 0 0114.456 5.717l3.391-1.956a.696.696 0 01.988.23l1.972 3.416a.696.696 0 11-1.204.697l-1.626-2.816c-1.638.947-3.277 1.89-4.913 2.838a1.476 1.476 0 00-.689.903c-.1.369-.06.773.144 1.126 1.134 1.956 2.26 3.917 3.391 5.876.204.352.537.591.904.689.368.098.776.06 1.125-.144 1.639-.95 3.28-1.89 4.919-2.837l-1.628-2.816a.698.698 0 01.255-.95.698.698 0 01.95.255l1.972 3.418a.696.696 0 01-.255.95l-3.492 2.013a20.942 20.942 0 01.494 4.546c0 4.786-1.59 9.2-4.27 12.745a21.192 21.192 0 01-10.613 7.464v4.525a.697.697 0 01-.697.697H18.927a.697.697 0 01-.697-.697V42.96a21.091 21.091 0 01-5.952-2.944 21.195 21.195 0 01-5.073-5.084.696.696 0 011.14-.8 19.774 19.774 0 009.886 7.365v-.382a2.872 2.872 0 01.842-2.035 2.908 2.908 0 011.305-.751c-.124-1.159-.605-1.764-1.063-2.336-.613-.77-1.19-1.495-1.19-2.992v-5.86c0-.247.067-.505.154-.733a43.742 43.742 0 01-2.198-1.193c-2.24-1.294-3-2.374-3.765-3.462-.632-.895-1.264-1.796-2.955-2.862-.366.377-.824.64-1.315.77a2.87 2.87 0 01-2.181-.284l-.757-.44zm6.196-10.895c.277.158.553.318.83.475a2.885 2.885 0 011.338 1.747c.13.486.133 1.007-.006 1.506 1.064.472 1.831.355 2.558.247.972-.147 1.886-.282 3.185.466l5.079 2.933c.138.082.268.174.385.277.241-.155.491-.315.738-.467.423-.263.876-.537 1.294-.776 2.24-1.294 3.554-1.413 4.88-1.533 1.088-.097 2.184-.195 3.953-1.125a2.863 2.863 0 01-.008-1.528 2.86 2.86 0 011.337-1.744l.828-.478a19.794 19.794 0 00-5.71-3.586 19.693 19.693 0 00-7.486-1.465c-2.653 0-5.181.52-7.484 1.465a19.831 19.831 0 00-5.711 3.586zm14.082 8.847a2.335 2.335 0 01-.892 2.433l2.981 1.72c.535.266 1.04.83 1.313 1.346l3.071-1.771a.697.697 0 11.697 1.205l-3.106 1.792a.686.686 0 01-.282.09c.022.369-.022.738-.141 1.093.152.28.353.429.648.543a.968.968 0 00.716-.09l5.076-2.932c.809-.47 1.07-.999 1.398-1.829.347-.89.718-1.828 2.012-2.743l-2.72-4.71c-1.987 1.045-3.224 1.156-4.45 1.265-1.172.106-2.333.212-4.31 1.354-.34.192-.782.46-1.248.751-.269.166-.527.331-.763.483zm2.854 9.164c-1.519 1.769-3.412 2.211-5.442 1.924v2.753a.7.7 0 01-1.397 0v-3.057a15.734 15.734 0 01-1.855-.67.516.516 0 00-.025.138V33c0 1.014.429 1.554.885 2.127.594.746 1.223 1.535 1.367 3.108h5.437c.075-1.898.428-2.973 1.204-4.65a.7.7 0 01.925-.339c.347.16.5.576.34.923-.695 1.503-1.01 2.455-1.078 4.153.51.13.963.396 1.324.757a2.88 2.88 0 01.846 2.035v.382a19.816 19.816 0 009.504-6.842A19.675 19.675 0 0044.26 22.75a20.41 20.41 0 00-.366-3.814l-.757.44a2.87 2.87 0 01-2.181.284 2.87 2.87 0 01-1.305-.756c-.939.686-1.221 1.408-1.49 2.088-.355.907-.691 1.758-1.956 2.505l-5.119 2.954c-.146.084-.295.15-.447.2.054.893.078 1.797.078 2.692 0 .496-.024 1-.076 1.492a.695.695 0 11-1.384-.141c.05-.45.066-.898.066-1.351 0-.893-.02-1.788-.079-2.68a2.328 2.328 0 01-1.004-.61zm-8.616 15.062v5.672h9.753v-5.672a1.48 1.48 0 00-.437-1.047 1.47 1.47 0 00-1.047-.437h-6.785a1.47 1.47 0 00-1.047.437 1.47 1.47 0 00-.437 1.047z" fill="#000"/></g><defs><clipPath id="clip0"><path fill="#fff" transform="translate(0 .389)" d="M0 0h49v49H0z"/></clipPath></defs></svg>