<svg width="43" height="44" fill="none" xmlns="http://www.w3.org/2000/svg"><g clip-path="url(#clip0)" fill="#000"><path d="M42.16 42.169h-.336V17.814a.84.84 0 00-.84-.84h-6.718a.84.84 0 00-.84.84v24.355h-2.352v-19.82a.84.84 0 00-.84-.84h-6.718a.84.84 0 00-.84.84v19.82h-2.352V27.21a.84.84 0 00-.84-.84h-6.718a.84.84 0 00-.84.84v14.958H9.574v-8.566a.84.84 0 00-.84-.84H2.016a.84.84 0 00-.84.84v8.566H.84a.84.84 0 000 1.68h41.32a.84.84 0 000-1.68zm-39.305 0v-7.727h5.04v7.727h-5.04zm10.75 0V28.05h5.04v14.118h-5.04zm10.75 0v-18.98h5.04v18.98h-5.04zm10.75 0V18.653h5.04V42.17h-5.04zM34.478 13c.901.59 1.523.775 2.307.826v.628a.84.84 0 001.68 0v-.725c1.48-.38 2.428-1.646 2.638-2.894.275-1.632-.578-3.05-2.17-3.613a33.01 33.01 0 01-.468-.169V4.048c.376.134.62.307.633.317a.84.84 0 001.01-1.343 4.517 4.517 0 00-1.643-.717v-.617a.84.84 0 00-1.68 0V2.3a3.8 3.8 0 00-.284.073c-1.055.317-1.843 1.217-2.057 2.35-.196 1.039.14 2.042.876 2.62.373.292.835.56 1.465.842v3.956c-.497-.047-.833-.184-1.388-.547a.84.84 0 10-.92 1.406zm4.969-2.444a1.954 1.954 0 01-.982 1.385v-3.1c1.102.443 1.032 1.42.982 1.715zm-3.09-4.535c-.237-.186-.34-.573-.262-.986.066-.35.281-.764.69-.973v2.244a3.721 3.721 0 01-.429-.285zM5.487 26.293a.84.84 0 001.188 0l9.691-9.691 2.782 2.781a.84.84 0 001.187 0l9.206-9.206.686.685a.84.84 0 001.433-.594v-5.22a.84.84 0 00-.84-.84H25.6a.84.84 0 00-.594 1.434l.694.693-5.959 5.959-2.78-2.782a.84.84 0 00-1.189 0L2.833 22.452a.84.84 0 000 1.187l2.654 2.654zm10.88-14.999l2.78 2.782a.84.84 0 001.188 0l7.146-7.147a.84.84 0 00.117-1.041h2.383v2.385a.84.84 0 00-1.034.122l-9.205 9.206-2.782-2.781a.84.84 0 00-1.188 0l-9.691 9.69-1.466-1.466 11.751-11.75z"/></g><defs><clipPath id="clip0"><path fill="#fff" transform="translate(0 .849)" d="M0 0h43v43H0z"/></clipPath></defs></svg>