<svg width="48" height="48" fill="none" xmlns="http://www.w3.org/2000/svg"><g clip-path="url(#clip0)" fill="#000"><path d="M44.996 19.474C44.996 15.11 43.836.87 28.923.87c-8.227 0-14.127 2.08-17.546 6.184A14.666 14.666 0 008.37 18.27l-4.8 6.936a3.184 3.184 0 00-.565 1.798C3 28.79 4.473 30.24 6.295 30.244h2.483c-.265 2.421-.433 7.675 2.902 8.765 1.898.517 3.888.629 5.835.326l-2.469 7.246a.963.963 0 00-.05.31.99.99 0 001 .979h22c.062 0 .125-.006.187-.017a.98.98 0 00.797-1.144l-.046-.244a24.934 24.934 0 012.9-16.924c2.099-3.714 3.162-7.101 3.162-10.067zM36.808 45.91H17.383l2.559-7.524a.96.96 0 00.021-.546 1.002 1.002 0 00-1.212-.713c-.042.008-3.762.897-6.442.02-1.96-.64-1.79-5.476-1.4-7.718a.99.99 0 00-.986-1.144H6.296c-.716 0-1.298-.567-1.3-1.268 0-.254.077-.502.224-.712l5.03-7.259a.97.97 0 00.152-.748 12.902 12.902 0 012.526-10.007c3.017-3.626 8.395-5.464 15.994-5.464 12.702 0 14.073 11.641 14.073 16.646 0 2.63-.979 5.699-2.911 9.119a26.947 26.947 0 00-3.276 17.318z"/><path d="M37.865 16.87a.965.965 0 00.093 1.382 2.873 2.873 0 011.038 2.201c0 1.622-1.344 2.938-3 2.938-1.657 0-3-1.316-3-2.938 0-.847.38-1.651 1.037-2.201a.97.97 0 00.341-.736.99.99 0 00-1-.98h-4.378V12.25a.97.97 0 00-.341-.737 1.015 1.015 0 00-1.411.091 2.985 2.985 0 01-2.248 1.017c-1.657 0-3-1.316-3-2.938s1.343-2.937 3-2.937c.865 0 1.686.372 2.248 1.016.19.212.463.334.752.334a.99.99 0 001-.98V1.85h-2v3.354a5.013 5.013 0 00-2-.417c-2.762 0-5 2.192-5 4.896 0 2.704 2.238 4.896 5 4.896.689 0 1.37-.143 2-.417v3.354a.99.99 0 001 .98h3.426a4.735 4.735 0 00-.426 1.958c.003 2.703 2.24 4.893 5 4.896 2.76-.003 4.996-2.194 5-4.896a4.732 4.732 0 00-.427-1.958h3.426v-1.959h-5.378a1.01 1.01 0 00-.752.334z"/><path d="M33.442 4.894l-.894 1.753c1.515.736 5.447 3.256 5.447 5.973h2c0-4.47-6.285-7.6-6.553-7.726zm-8.446 17.517c-2.21 0-4 1.754-4 3.917h2c0-1.081.895-1.958 2-1.958 1.104 0 2 .877 2 1.958h2c0-2.163-1.791-3.917-4-3.917z"/><path d="M27.996 16.536h-9.537a3.86 3.86 0 00.535-1.957c.001-2.163-1.79-3.917-3.998-3.918v1.959c1.104 0 2 .876 2 1.958 0 1.082-.896 1.958-2 1.958a.99.99 0 00-1 .98.99.99 0 001 .979h12v7.833h2v-8.813a.99.99 0 00-1-.979zm1 11.751h-2v1.958h2v-1.958zm0 3.916h-2v1.958h2v-1.958z"/><path d="M16.996 19.474h-2v1.958h2v-1.958zm0 3.916h-2v1.958h2V23.39zm17.979 13.904l-1.96-.383a28.413 28.413 0 000 10.175l1.96-.383a26.998 26.998 0 010-9.41zm-4.01 2.979l-1.94-.475c-.043.172-1.057 4.23.021 7.402l1.898-.619c-.894-2.625.012-6.272.021-6.308z"/></g><defs><clipPath id="clip0"><path fill="#fff" transform="translate(0 .87)" d="M0 0h48v47H0z"/></clipPath></defs></svg>