<svg width="50" height="51" fill="none" xmlns="http://www.w3.org/2000/svg"><g clip-path="url(#clip0)" fill="#000"><path d="M19.608 6.22c0 2.961 2.362 5.37 5.264 5.37s5.264-2.409 5.264-5.37c0-2.962-2.361-5.371-5.264-5.371-2.902 0-5.264 2.41-5.264 5.37zm8.614 0c0 1.884-1.503 3.418-3.35 3.418-1.847 0-3.35-1.534-3.35-3.418 0-1.885 1.503-3.418 3.35-3.418 1.847 0 3.35 1.533 3.35 3.418zm-3.35 44.629a.967.967 0 00.957-.977.967.967 0 00-.957-.977.967.967 0 00-.957.977c0 .54.428.977.957.977z"/><path d="M1.33 50.849h28.796c.529 0-1.433-.438-1.433-.977 0-.54 1.962-.977 1.433-.977H14.345v-7.421h21.054v7.422h-6.22a.967.967 0 00-.957.976c0 .54.428.977.957.977h19.236a.967.967 0 00.957-.977.967.967 0 00-.957-.977H37.313v-8.398a.967.967 0 00-.957-.977h-4.785V20.38h1.914c1.284 0 2.475-.65 3.185-1.74l5.742-8.789c1.175-1.797.697-4.221-1.06-5.416-1.761-1.2-4.135-.718-5.31 1.083l-4.605 7.05h-13.13l-4.605-7.05c-1.184-1.812-3.566-2.276-5.309-1.084-1.76 1.197-2.235 3.622-1.061 5.417l5.741 8.789a3.799 3.799 0 003.186 1.74h1.914v19.14h-4.785a.967.967 0 00-.957.977v8.398H1.329a.967.967 0 00-.957.977c0 .54.429.977.957.977zm17.8-32.422h-2.871a1.899 1.899 0 01-1.593-.87l-5.742-8.79a1.977 1.977 0 01.533-2.709 1.884 1.884 0 012.652.543l4.89 7.485a.952.952 0 00.796.434h14.154c.32 0 .62-.163.797-.434l4.89-7.486a1.883 1.883 0 012.653-.54c.88.598 1.118 1.81.53 2.708l-5.742 8.79c-.355.544-.95.869-1.592.869h-2.87a.967.967 0 00-.958.976V39.52H25.83V28.192a.967.967 0 00-.957-.976.967.967 0 00-.957.976V39.52h-3.828V19.403a.967.967 0 00-.957-.976z"/></g><defs><clipPath id="clip0"><path fill="#fff" transform="translate(.372 .849)" d="M0 0h49v50H0z"/></clipPath></defs></svg>