<svg width="47" height="47" fill="none" xmlns="http://www.w3.org/2000/svg"><g clip-path="url(#clip0)" fill="#000"><path d="M41.82 24.244H30.163a10.666 10.666 0 01-9.183-5.27 12.59 12.59 0 00-10.839-6.23h-.367a.958.958 0 00-.93.73 15.698 15.698 0 00-.306 5.757L3.93 26.022a3.163 3.163 0 002.614 4.93h2.38c-.255 2.37-.416 7.511 2.782 8.577 1.845.511 3.778.617 5.667.308l-1.497 5.227a.96.96 0 00.922 1.222h20.125a.958.958 0 00.935-1.168c-1.035-4.6-.086-9.736 2.744-14.854a28.593 28.593 0 002.127-4.76.959.959 0 00-.91-1.26zm-2.892 5.092c-2.83 5.113-3.911 10.283-3.163 15.033H18.07l1.562-5.486a.958.958 0 00-1.15-1.193c-.041.009-3.605.876-6.175.02-1.878-.627-1.715-5.36-1.341-7.555a.958.958 0 00-.944-1.12H6.545A1.247 1.247 0 015.513 27.1l4.822-7.114a.958.958 0 00.146-.73 13.49 13.49 0 01.067-4.593 10.667 10.667 0 018.777 5.27 12.59 12.59 0 0010.839 6.23h10.284a28.82 28.82 0 01-1.52 3.175z"/><path d="M18.524 22.203l-1.533 1.14a16.464 16.464 0 0013.173 6.651v-1.916a14.538 14.538 0 01-11.64-5.875zM34.03 35.935l-1.878-.375a28.385 28.385 0 000 9.96l1.878-.376a26.98 26.98 0 010-9.209zm-3.842 2.916l-1.86-.464c-.042.167-1.014 4.14.021 7.244l1.817-.606c-.856-2.57.013-6.138.022-6.174zM33.09 6.995a2.875 2.875 0 100 5.75 2.875 2.875 0 000-5.75zm0 3.833a.958.958 0 11.001-1.917.958.958 0 010 1.917z"/><path d="M34.049 1.245h-1.917v6.708h1.917V1.245z"/><path d="M39.731 10.471L35.898.888a.958.958 0 00-.89-.602h-3.834a.958.958 0 00-.893.602l-3.833 9.583a.958.958 0 00.096.889l3.833 5.75a.959.959 0 00.797.426h3.834c.32 0 .617-.16.794-.426l3.834-5.75a.96.96 0 00.095-.889zm-5.236 5.148h-2.808l-3.269-4.903 3.405-8.513h2.536l3.405 8.513-3.269 4.903z"/><path d="M35.436 15.72l-.87 1.709a3.252 3.252 0 011.4 2.982c0 .422-.048 1.582-.274 4.723l1.91.138c.185-2.566.28-4.201.28-4.86a5.096 5.096 0 00-2.446-4.692zm-3.821 1.709l-.44-.851.428.858-.857-1.716a5.095 5.095 0 00-2.447 4.691c0 .66.096 2.294.28 4.86l1.911-.137c-.226-3.14-.274-4.301-.274-4.723a3.252 3.252 0 011.4-2.982zm-7.199-7.862L21.541.942a.958.958 0 00-.908-.656h-1.917a.958.958 0 00-.909.656l-2.875 8.625a.96.96 0 00.909 1.26h7.667a.958.958 0 00.908-1.26zm-7.245-.656l2.236-6.708h.535l2.235 6.708h-5.006z"/><path d="M22.549 4.12h-5.75v1.916h5.75V4.12zm-1.916 5.75h-1.917v8.625h1.917V9.87zm-3.834 0h-1.917v5.75H16.8V9.87zm7.666 0H22.55v13.416h1.916V9.87zm18.209 10.541h-2.875v1.917h2.875V20.41zm0-3.833h-1.917v1.916h1.917v-1.916zm0-3.833h-1.917v1.916h1.917v-1.916zM12.007 8.911H9.132v1.917h2.875V8.91zm-.958-3.834H9.132v1.917h1.917V5.077zm0-3.832H9.132V3.16h1.917V1.245z"/></g><defs><clipPath id="clip0"><path fill="#fff" transform="translate(.084 .286)" d="M0 0h46v46H0z"/></clipPath></defs></svg>