<svg width="56" height="56" fill="none" xmlns="http://www.w3.org/2000/svg"><g clip-path="url(#clip0)" fill="#000"><path d="M28.085 7.629a.807.807 0 00.807-.808V1.377a.807.807 0 10-1.615 0v5.444c0 .446.362.808.808.808zM13.02 13.396a.808.808 0 001.142-1.142l-3.85-3.85A.808.808 0 009.17 9.548l3.85 3.85zM7.588 26.512H2.143a.807.807 0 100 1.615h5.444a.807.807 0 100-1.615zm5.432 14.732l-3.85 3.85a.808.808 0 101.142 1.141l3.85-3.85a.808.808 0 00-1.142-1.141zm30.132 0a.808.808 0 00-1.142 1.142l3.85 3.85a.808.808 0 001.142-1.143l-3.85-3.85zm10.877-14.732h-5.444a.807.807 0 100 1.615h5.444a.807.807 0 100-1.615zM45.86 8.405l-3.85 3.85a.807.807 0 101.142 1.141l3.85-3.85a.807.807 0 10-1.143-1.141zm-1.823 17.283c0-8.923-7.156-16.182-15.952-16.182-3.081 0-6.072.893-8.648 2.582a16.147 16.147 0 00-5.78 6.687.808.808 0 001.464.682c2.363-5.064 7.451-8.336 12.964-8.336 7.906 0 14.337 6.534 14.337 14.567 0 3.815-1.441 7.421-4.06 10.155-1.508 1.576-2.792 3.082-3.123 5.191H21.142c-.417-2.19-1.91-3.726-3.253-5.106-2.67-2.744-4.141-6.381-4.141-10.24 0-.953.091-1.906.27-2.833a.808.808 0 10-1.585-.308c-.2 1.028-.3 2.085-.3 3.14 0 4.283 1.633 8.32 4.599 11.368 1.703 1.75 2.909 3.147 2.909 5.195v.021l.046 4.739c0 1.537.82 2.887 2.046 3.634v.888a4.042 4.042 0 004.037 4.038h4.953a4.042 4.042 0 004.038-4.038v-.888a4.254 4.254 0 002.045-3.634s-.005-5.279-.016-5.331c.153-1.872 1.287-3.202 2.74-4.719 2.906-3.036 4.507-7.04 4.507-11.272zM33.145 51.532a2.425 2.425 0 01-2.422 2.423H25.77a2.425 2.425 0 01-2.422-2.423v-.311c.193.027.39.042.592.042h8.613c.201 0 .399-.015.592-.042v.311zm-.592-1.884H23.94a2.64 2.64 0 01-2.638-2.638v-.054h8.183a.807.807 0 100-1.615h-8.183V42.65h13.864l.025 2.691h-1.938a.807.807 0 100 1.615h1.938v.054a2.64 2.64 0 01-2.638 2.638z"/><path d="M33.335 25.794a.808.808 0 001.276.99l1.599-2.058a2.567 2.567 0 00.522-1.907 2.567 2.567 0 00-.979-1.719 2.563 2.563 0 00-1.907-.522 2.566 2.566 0 00-1.718.979l-5.216 6.716-2.993-3.311a2.587 2.587 0 00-3.65-.185 2.568 2.568 0 00-.848 1.787c-.034.69.201 1.351.664 1.863l5.06 5.599c1.02 1.181 3.032 1.109 3.958-.148l3.197-4.116a.808.808 0 00-1.276-.99l-3.196 4.116c-.347.47-1.104.498-1.484.055l-5.06-5.599a.97.97 0 011.437-1.3l3.64 4.027c.316.368.947.347 1.236-.046l5.806-7.478a.974.974 0 011.36-.17c.418.31.499.954.171 1.359l-1.599 2.058z"/></g><defs><clipPath id="clip0"><path fill="#fff" transform="translate(.586 .57)" d="M0 0h55v55H0z"/></clipPath></defs></svg>