<svg width="24" height="24" viewBox="0 0 24 24" xmlns="http://www.w3.org/2000/svg">
<g clip-path="url(#clip0)">
<path d="M23.5888 8.75756L22.415 7.58377C21.8667 7.03542 20.9746 7.03552 20.4263 7.58377L17.9539 10.0562V2.10938C17.9539 0.946266 17.0076 0 15.8445 0H2.11011C0.946998 0 0.000732422 0.946266 0.000732422 2.10938V21.8906C0.000732422 23.0537 0.946998 24 2.11011 24H15.8445C17.0076 24 17.9539 23.0537 17.9539 21.8906V16.311L23.5888 10.7463C24.1371 10.198 24.1371 9.30586 23.5888 8.75756ZM15.1795 17.0743L13.0644 18.0614L14.0505 15.9483L19.2994 10.6995L20.4598 11.8599L15.1795 17.0743ZM16.5476 21.8906C16.5476 22.2783 16.2322 22.5938 15.8445 22.5938H2.11011C1.7224 22.5938 1.40698 22.2783 1.40698 21.8906V2.10938C1.40698 1.72167 1.7224 1.40625 2.11011 1.40625H15.8445C16.2322 1.40625 16.5476 1.72167 16.5476 2.10938V11.4624C12.6486 15.3615 12.9032 15.0813 12.8285 15.2413L10.9724 19.2188C10.8474 19.4868 10.9033 19.8043 11.1124 20.0134C11.3214 20.2225 11.639 20.2784 11.9069 20.1533L15.8844 18.2971C16.0302 18.2291 16.0542 18.1868 16.5476 17.6996V21.8906ZM21.4604 10.8719L20.2937 9.70514L21.4207 8.57812L22.5941 9.7523L21.4604 10.8719Z" fill="#3082A5"/>
<path d="M3.75024 5.95312H14.2502C14.6386 5.95312 14.9534 5.63831 14.9534 5.25C14.9534 4.86169 14.6386 4.54688 14.2502 4.54688H3.75024C3.36193 4.54688 3.04712 4.86169 3.04712 5.25C3.04712 5.63831 3.36193 5.95312 3.75024 5.95312Z" fill="#3082A5"/>
<path d="M3.75024 9.70312H12.0002C12.3886 9.70312 12.7034 9.38831 12.7034 9C12.7034 8.61169 12.3886 8.29688 12.0002 8.29688H3.75024C3.36193 8.29688 3.04712 8.61169 3.04712 9C3.04712 9.38831 3.36193 9.70312 3.75024 9.70312Z" fill="#3082A5"/>
<path d="M9.75024 12.0469H3.75024C3.36193 12.0469 3.04712 12.3617 3.04712 12.75C3.04712 13.1383 3.36193 13.4531 3.75024 13.4531H9.75024C10.1386 13.4531 10.4534 13.1383 10.4534 12.75C10.4534 12.3617 10.1386 12.0469 9.75024 12.0469Z" fill="#3082A5"/>
</g>
<defs>
<clipPath id="clip0">
<rect width="24" height="24" fill="white"/>
</clipPath>
</defs>
</svg>
