<svg width="63" height="63" fill="none" xmlns="http://www.w3.org/2000/svg"><path d="M61.031 6.89H1.97a.984.984 0 00-.985.985v17.719a.984.984 0 00.985.984h59.06a.984.984 0 00.985-.984V7.875a.984.984 0 00-.985-.984zM14.766 24.61H2.953V8.86h11.813v15.75zm31.5 0H16.734v-6.891h29.532v6.89zm0-8.86H16.734V8.86h29.532v6.89zm13.78 8.86H48.235V8.86h11.813v15.75zm.985 23.624h-2.953V35.437a.984.984 0 00-.984-.984H54.14a.984.984 0 00-.985.984v.985H45.28v-.984a.984.984 0 00-.984-.985h-2.953a.984.984 0 00-.985.984v12.797H15.75V40.36a1.969 1.969 0 113.938 0v.985a.984.984 0 001.968 0v-.985a3.938 3.938 0 10-7.875 0v7.875h-.984v-2.953a.984.984 0 00-.985-.984H8.86a.984.984 0 00-.984.984v2.953H1.969a.984.984 0 00-.985.985v5.906a.984.984 0 00.985.984H61.03a.984.984 0 00.985-.984V49.22a.984.984 0 00-.985-.985zm-5.906-11.812h.984v11.812h-.984V36.422zm-9.844 1.969h7.875v5.906h-7.875V38.39zm0 7.875h7.875v1.968h-7.875v-1.968zm-2.953-9.844h.984v11.812h-.984V36.422zM9.844 46.266h.984v1.968h-.984v-1.968zm50.203 7.875H2.953v-3.938h57.094v3.938z" fill="#fff"/><path d="M11.813 9.844H5.905a.984.984 0 100 1.969h5.907a.984.984 0 100-1.97zm39.375 1.969h5.906a.984.984 0 000-1.97h-5.907a.984.984 0 100 1.97z" fill="#fff"/></svg>