<svg width="52" height="52" fill="none" xmlns="http://www.w3.org/2000/svg"><path d="M12.188 25.188H0v25.187h3.25V52h1.625v-1.625h20.212V52h1.625v-1.625H48.04V52h1.625v-1.625H52V25.187H12.187zm0 23.562H1.624V32.5h10.563v16.25zm0-17.875H1.624v-4.063h10.563v4.063zm26 17.875H13.811V26.812h24.376V48.75zm12.187 0H39.812V32.5h10.563v16.25zm0-17.875H39.812v-4.063h10.563v4.063z" fill="#fff"/><path d="M8.938 35.75h1.624v4.063H8.938V35.75zm32.5 0h1.624v4.063h-1.624V35.75zM35.75 32.5h-19.5v13.813h19.5V32.5zm-1.625 12.188h-16.25V34.124h16.25v10.563zM16.25 28.438h19.5v1.625h-19.5v-1.625zM17.875 0H0v13.813h17.875V0zm-9.75 12.188h-6.5V1.624h6.5v10.563zm8.125 0h-6.5V1.624h6.5v10.563zm17.875 1.625H52V0H34.125v13.813zm9.75-12.188h6.5v10.563h-6.5V1.624zm-8.125 0h6.5v10.563h-6.5V1.624z" fill="#fff"/><path d="M20.313 0v12.73l-2.032 2.707h-3.656v1.626h22.75v-1.625h-3.656l-2.032-2.709V0H20.313zm1.625 1.625h8.125v10.563h-8.125V1.624zm-1.625 13.813l1.218-1.626h8.938l1.218 1.626H20.313zM4.875 4.063H6.5v4.062H4.875V4.062zm8.125 0h1.625v4.062H13V4.062zm25.188 0h1.624v4.062h-1.624V4.062zm8.125 0h1.624v4.062h-1.624V4.062zM21.938 35.75h8.937v1.625h-8.938V35.75z" fill="#fff"/></svg>