<svg width="330" height="132" viewBox="0 0 330 132" fill="none" xmlns="http://www.w3.org/2000/svg">
<mask id="mask0_75_2193" style="mask-type:alpha" maskUnits="userSpaceOnUse" x="0" y="0" width="330" height="132">
<rect width="330" height="132" fill="#11B687"/>
</mask>
<g mask="url(#mask0_75_2193)">
<mask id="path-2-inside-1_75_2193" fill="white">
<path d="M-111.412 6.31762C-80.7747 6.0249 -80.7747 7.25436 -80.7747 9.42055C-80.7747 11.7038 -80.6575 14.7482 -57.9284 17.0315C-35.0236 18.9635 -11.0057 16.6217 12.9536 13.6359C42.8295 8.89364 72.764 3.33179 103.987 2.57069C135.211 1.8096 135.093 9.59619 135.093 18.4952C135.093 26.2232 135.211 34.3611 157.53 37.0542C179.322 40.2156 202.812 33.0145 225.717 25.6963C253.543 16.5631 281.31 6.31762 305.445 12.6991C326.241 22.3592 320.851 42.1477 314.7 63.634C309.135 82.2515 303.804 101.22 312.123 117.847C319.328 135.645 331.571 134.299 343.229 133.069C356.937 131.547 369.063 130.201 370 159.766C370 190.21 361.213 220.185 353.539 249.751C347.74 273.813 342.76 297.7 344.459 321.001C346.685 343.834 352.074 344.01 356.995 344.244C362.209 344.42 366.544 344.42 365.782 375.625C365.372 406.478 363.498 436.22 362.502 465.668C362.326 489.555 362.795 513.383 365.314 535.806C365.431 542.422 365.431 548.92 365.489 555.243C360.862 524.682 360.1 495.058 360.1 465.551C360.803 441.781 362.209 417.836 361.447 395.237C361.154 372.112 357.405 371.995 353.188 371.819C347.037 371.819 340.066 371.409 335.965 340.497C332.216 309.175 338.191 279.317 344.928 249.634C351.196 225.63 358.05 201.685 356.995 179.438C355.355 157.541 345.748 158.127 335.145 158.947C320.676 160.469 305.386 162.049 295.486 136.816C282.481 114.686 288.925 91.1505 294.607 69.1958C298.474 52.9201 302.809 36.7614 286.406 29.6774C269.066 23.5886 246.806 31.4338 224.253 38.9276C196.31 47.1826 167.605 55.4961 138.081 49.9928C107.678 45.192 107.678 34.5953 107.678 25.1694C107.561 18.1439 107.502 11.7038 84.48 11.4111C61.3409 11.0013 37.3816 15.2751 13.4809 18.7293C-16.395 22.4177 -46.2124 25.1694 -77.2599 21.1297C-108.073 16.7973 -108.19 12.8748 -107.897 9.83037C-108.073 8.074 -108.19 6.96163 -130.802 6.25908C-124.476 6.25908 -117.797 6.37617 -111.236 6.25908L-111.412 6.31762ZM-588.079 409.757C-583.627 440.259 -582.866 469.942 -582.807 499.508C-583.686 523.277 -584.857 547.105 -584.272 569.938C-583.861 592.888 -580.23 592.947 -576.012 593.239C-569.919 593.239 -562.831 593.415 -558.848 624.561C-554.981 655.766 -561.074 685.625 -567.693 715.307C-573.786 739.077 -580.698 763.198 -579.644 785.445C-578.121 807.4 -568.455 806.815 -557.852 806.053C-543.5 804.59 -528.093 802.892 -518.193 828.125C-505.364 850.49 -511.866 873.967 -517.607 896.038C-521.532 912.431 -525.809 928.473 -509.523 935.615C-492.183 941.587 -469.747 933.683 -447.311 926.365C-419.485 917.993 -390.84 909.797 -361.081 915.066C-330.561 919.808 -330.678 930.463 -330.736 940.006C-330.619 947.032 -330.619 953.413 -307.597 953.765C-284.575 954.174 -260.382 949.901 -236.422 946.271C-206.546 942.699 -176.788 940.006 -145.682 943.87C-114.868 948.32 -114.986 952.359 -114.868 955.053C-114.868 956.985 -114.986 958.038 -92.315 958.8C-98.6417 958.8 -105.144 958.682 -111.354 958.682C-142.167 958.975 -142.46 957.804 -142.401 955.58C-142.284 953.179 -142.401 950.369 -165.13 948.086C-188.152 946.037 -212.053 948.378 -236.188 951.481C-265.947 956.224 -295.53 961.668 -326.812 962.488C-357.918 963.249 -358.328 955.521 -358.211 946.798C-358.211 939.07 -358.211 930.815 -380.471 928.004C-402.321 925.019 -425.754 932.044 -448.834 939.538C-476.66 948.671 -504.017 958.624 -528.269 952.359C-549.006 942.641 -543.675 922.852 -537.583 901.483C-531.901 882.807 -526.629 863.897 -534.888 847.153C-542.094 829.355 -554.337 830.584 -565.819 831.814C-579.585 833.453 -591.653 834.507 -592.473 804.941C-592.473 774.497 -583.686 744.756 -576.07 715.249C-570.388 691.187 -565.292 667.183 -567.225 644.057C-569.275 621.049 -574.723 620.932 -579.527 620.815C-584.74 620.522 -589.075 620.229 -588.314 589.258C-587.904 558.346 -586.029 528.839 -585.033 499.566C-584.916 475.504 -585.443 451.793 -587.728 429.135C-587.845 422.695 -587.904 416.255 -587.904 409.698L-588.079 409.757ZM-589.134 350.216C-580.757 380.777 -577.886 410.518 -575.777 440.259C-575.192 464.146 -575.016 487.857 -571.618 510.69C-568.338 533.523 -563.066 533.698 -557.383 533.991C-549.592 533.815 -540.746 533.815 -532.897 565.02C-525.106 596.167 -529.03 625.966 -533.893 655.766C-538.52 679.536 -543.91 703.657 -540.043 726.021C-535.826 747.976 -524.754 747.508 -512.804 746.922C-496.811 745.459 -479.882 744.112 -466.935 770.165C-451.412 793.759 -456.801 818.055 -461.663 841.064C-465.119 858.335 -468.576 875.079 -451.529 884.212C-433.486 892.409 -411.108 885.969 -388.262 879.88C-360.144 873.147 -331.439 866.766 -301.388 875.723C-270.985 884.271 -271.16 896.624 -271.16 907.982C-271.16 916.471 -271.16 924.375 -248.138 927.536C-225.116 930.815 -201.157 928.122 -177.081 926.014C-147.205 924.375 -117.27 923.731 -86.2812 931.576C-55.3508 939.772 -55.6437 945.451 -55.7609 949.959C-55.8781 953.238 -55.8781 955.814 -33.1489 959.385C-39.7685 959.268 -46.2709 959.209 -52.5976 959.209C-83.3522 955.638 -83.4108 952.769 -83.4108 948.788C-83.235 944.866 -83.235 940.592 -105.964 935.498C-128.986 930.698 -152.945 931.341 -177.022 932.922C-206.664 935.615 -236.422 939.187 -267.646 936.201C-298.752 933.039 -298.927 923.555 -298.927 913.075C-298.81 903.825 -298.752 894.106 -321.071 888.486C-343.038 882.69 -366.646 888.369 -389.727 894.341C-417.845 902.069 -445.495 910.265 -470.509 900.956C-492.476 888.603 -487.966 867.936 -482.752 845.455C-478.007 826.31 -473.496 806.756 -483.806 789.075C-493.121 770.692 -506.536 771.629 -519.54 772.799C-534.83 774.263 -548.538 775.024 -552.931 745.341C-556.797 714.898 -549.944 685.156 -544.144 655.591C-539.985 631.704 -536.529 607.642 -541.332 584.575C-546.019 561.449 -552.99 561.566 -559.434 561.449C-566.346 561.273 -572.556 561.039 -575.602 529.951C-579.058 499.156 -578.999 469.532 -579.937 440.142C-581.284 416.255 -583.51 392.252 -588.606 369.711C-588.782 363.33 -588.899 356.539 -589.075 350.04L-589.134 350.216ZM-590.481 290.031C-578.355 320.767 -573.551 350.626 -569.685 380.308C-567.4 404.312 -565.467 428.257 -559.199 451.09C-553.048 473.923 -546.487 473.923 -539.341 473.923C-529.499 473.923 -518.896 473.923 -507.063 505.069C-495.347 536.274 -497.339 566.016 -500.443 595.874C-503.548 619.761 -507.297 643.94 -500.619 666.363C-493.589 688.435 -481.17 687.967 -467.99 687.44C-450.299 686.269 -431.787 685.215 -415.678 712.087C-397.576 736.911 -401.736 761.91 -405.778 785.855C-408.472 803.946 -411.46 821.685 -393.534 832.867C-374.847 843.289 -352.118 838.078 -329.213 833.336C-300.685 828.359 -271.805 823.617 -241.577 836.322C-211.057 848.85 -211.057 863.019 -211.35 876.191C-211.467 886.203 -211.467 895.336 -188.504 901.542C-165.599 907.689 -141.288 906.635 -117.212 906.167C-87.2771 906.46 -57.2255 907.689 -26.1779 919.457C4.63525 931.576 4.57666 939.011 4.34235 945.393C4.22516 950.135 4.04944 953.94 26.6028 960.439C20.159 960.263 13.598 960.146 7.15424 959.97C-23.659 952.652 -23.659 948.027 -23.3661 942.348C-23.1903 937.255 -23.0732 931.459 -45.9194 923.555C-68.8243 915.768 -92.8422 914.89 -117.094 914.773C-147.029 915.417 -176.729 916.998 -207.894 910.031C-238.824 903.005 -239.117 891.706 -238.883 879.411C-238.765 868.932 -238.707 857.632 -261.143 849.26C-283.286 840.771 -306.894 844.928 -330.209 849.553C-358.621 855.349 -386.446 861.965 -412.339 849.729C-435.536 834.799 -431.904 813.02 -427.569 789.719C-423.703 769.755 -420.13 749.674 -432.49 731.173C-443.972 712.029 -458.793 712.849 -472.911 713.844C-489.84 715.015 -505.305 715.893 -513.448 686.035C-521.063 655.474 -516.143 625.557 -512.218 595.991C-509.699 571.929 -507.766 547.808 -515.498 524.799C-523.231 501.791 -531.667 501.849 -539.399 501.849C-548.245 501.732 -556.036 501.732 -563.066 470.82C-570.388 440.025 -572.321 410.108 -575.309 380.542C-578.296 356.363 -582.046 332.359 -589.954 309.761C-590.13 303.203 -590.247 296.763 -590.422 290.031H-590.481ZM-592.121 229.846C-576.012 260.465 -569.509 290.323 -563.534 320.416C-559.668 344.42 -556.387 368.365 -547.249 391.198C-538.228 414.031 -530.026 414.031 -521.356 414.206C-509.875 413.796 -497.28 413.914 -481.463 445.118C-465.881 476.206 -466.057 506.006 -467.111 536.157C-468.576 559.927 -470.86 584.048 -461.429 606.588C-451.705 628.835 -437.762 628.542 -423.117 628.191C-403.786 627.02 -383.634 626.259 -364.537 654.127C-343.741 680.238 -346.729 705.94 -349.716 730.998C-351.825 749.967 -354.344 768.643 -335.481 781.874C-316.033 794.403 -293.128 790.539 -269.872 787.202C-241.167 783.747 -212.17 780.762 -181.767 797.33C-151.13 813.489 -151.129 829.706 -151.129 844.752C-151.422 856.227 -151.422 867 -128.518 876.074C-105.613 885.149 -81.4191 885.617 -57.1669 886.671C-27.2324 888.896 2.64349 891.94 33.6324 907.748C64.5628 923.731 64.5628 933.098 64.4456 941.294C64.1528 947.442 63.9771 952.769 86.7061 962.078C80.0866 961.902 73.5256 961.785 66.9646 961.61C36.2686 950.252 36.3271 943.812 36.5615 936.435C36.6786 929.702 36.8544 922.677 14.1252 911.67C-8.7796 900.956 -33.0904 898.556 -57.2254 896.917C-86.9842 895.687 -116.919 895.394 -148.142 884.505C-179.131 873.557 -179.072 860.326 -179.131 846.274C-178.955 834.038 -178.721 821.334 -201.274 810.327C-223.652 798.969 -247.435 801.545 -270.926 804.824C-299.455 808.981 -327.749 814.074 -354.52 798.677C-378.948 781.172 -375.785 758.104 -372.621 733.925C-369.751 713.434 -366.939 692.709 -381.291 673.33C-395.057 653.483 -411.167 653.951 -426.691 654.771C-445.144 655.708 -462.308 656.293 -474.258 626.376C-485.74 595.757 -482.635 565.781 -480.702 536.099C-479.764 512.095 -479.179 488.033 -489.84 465.024C-500.56 442.074 -510.46 442.016 -519.775 442.016C-530.378 442.016 -540.102 442.016 -550.998 410.986C-562.245 380.074 -566.112 350.274 -571.032 320.533C-575.485 296.471 -580.757 272.584 -591.653 249.927C-591.828 243.37 -591.946 236.52 -592.121 229.963V229.846ZM-592.883 170.422C-572.966 201.041 -564.647 230.841 -557.266 260.465C-551.994 284.352 -547.249 308.355 -535.24 331.247C-523.29 354.08 -513.565 354.08 -503.255 354.255C-489.665 354.255 -475.137 354.431 -455.395 385.46C-435.829 416.607 -434.306 446.348 -433.662 476.089C-433.779 499.976 -434.541 524.038 -422.297 546.871C-409.761 569.236 -394.472 568.826 -378.362 568.65C-357.273 568.006 -335.481 567.304 -313.338 595.991C-289.847 623.332 -291.956 649.853 -294.007 675.73C-295.53 695.695 -297.053 715.249 -277.37 730.471C-257.16 745.107 -234.196 742.59 -210.998 740.482C-182.001 738.667 -152.887 737.379 -122.367 757.636C-91.5534 777.6 -91.4363 795.515 -91.612 812.611C-91.4949 825.725 -91.4363 838.137 -68.4142 850.08C-45.5094 862.023 -21.6086 863.955 2.40924 866.473C32.3437 870.337 62.0438 875.255 93.0328 894.867C123.963 914.714 124.022 926.072 124.022 936.318C124.197 944.104 124.197 951.247 147.161 963.307C140.424 963.19 133.863 963.132 127.419 962.898C96.6062 947.793 96.6062 939.421 96.489 929.878C96.6062 921.681 96.3718 912.841 73.5842 899.083C50.5621 885.617 26.8958 881.753 2.58496 878.65C-27.0566 875.723 -56.9326 873.557 -88.0386 858.628C-119.028 843.816 -119.145 828.652 -119.262 812.494C-119.086 798.794 -119.262 784.567 -141.815 770.692C-164.251 756.524 -187.976 758.104 -211.643 759.802C-240.347 762.32 -268.759 765.774 -296.408 747.391C-322.242 727.134 -319.899 702.954 -317.673 677.838C-315.564 656.82 -313.807 635.275 -330.209 615.136C-346.084 594.527 -363.424 595.113 -380.412 595.464C-400.623 596.05 -419.544 596.694 -435.126 566.484C-450.416 535.747 -449.303 505.596 -449.01 476.148C-449.478 452.261 -450.533 428.199 -464.065 405.073C-477.656 382.123 -489.196 382.24 -500.092 382.065C-512.804 381.772 -524.344 381.889 -539.282 350.977C-554.396 320.065 -560.195 289.914 -566.639 260.641C-572.614 236.637 -579.058 212.575 -592.707 189.917C-592.824 183.477 -592.883 177.037 -593 170.48L-592.883 170.422ZM-590.598 113.983C-567.108 144.544 -558.028 173.056 -549.358 202.095C-543.09 225.513 -537.232 249.224 -522.411 272.057C-507.649 294.89 -495.991 295.183 -483.806 295.651C-468.107 295.944 -450.943 296.822 -427.569 327.617C-404.255 358.412 -401.56 387.626 -399.275 417.016C-398.221 440.728 -397.518 464.614 -382.58 487.447C-367.349 509.87 -350.537 509.812 -332.904 509.695C-310.292 509.402 -286.567 509.109 -261.612 538.499C-235.719 566.835 -236.832 594.176 -237.945 620.756C-238.824 641.54 -239.761 661.972 -219.258 679.243C-198.345 696.104 -175.323 694.641 -151.95 693.763C-123.128 693.47 -94.1895 693.47 -63.6107 717.181C-32.9733 740.892 -32.6217 761.09 -32.5046 780.293C-32.2117 795.047 -31.743 809.215 -8.89673 824.027C14.0081 838.839 37.5573 841.942 61.3409 845.513C90.5139 851.017 119.394 856.871 150.207 880.172C180.962 903.591 181.899 917.759 182.485 930.346C183.071 940.065 183.656 949.139 206.444 963.952C199.825 964.069 193.146 963.952 186.82 963.834C155.831 944.866 155.831 934.386 155.538 922.735C154.952 912.548 154.542 901.951 131.93 885.383C109.025 869.107 85.3002 864.072 61.8096 859.974C32.2266 855.466 2.46777 851.485 -28.6383 832.692C-59.5687 813.84 -59.6273 796.862 -59.6273 778.654C-60.0373 763.256 -60.0373 747.332 -82.5321 730.705C-105.144 714.136 -128.869 714.136 -152.067 714.605C-181.357 715.776 -210.061 717.591 -238.473 696.104C-265.537 673.272 -263.896 648.038 -262.432 622.102C-261.202 600.265 -260.323 578.486 -278.541 557.468C-296.526 536.157 -315.33 536.274 -333.548 536.684C-355.574 536.86 -376.429 537.152 -395.643 506.709C-414.74 475.855 -415.326 445.997 -416.615 416.899C-418.372 393.13 -420.54 369.477 -436.825 346.586C-453.169 323.753 -466.584 323.343 -479.179 322.992C-494.175 322.289 -507.883 322.231 -526.687 291.319C-545.55 260.289 -552.99 230.665 -560.664 201.744C-567.693 178.15 -575.192 154.848 -591.653 132.308C-591.477 126.161 -591.184 119.779 -590.481 113.983H-590.598ZM-580.991 65.0391C-554.337 94.8974 -546.019 120.716 -537.759 147.706C-530.905 170.129 -524.578 192.727 -507.121 215.443C-489.606 237.866 -475.722 239.037 -461.663 240.208C-442.566 241.73 -422.356 243.897 -395.702 274.048C-369.224 304.199 -366.06 331.774 -363.248 360.051C-361.022 383.06 -359.499 406.303 -341.984 429.018C-324.175 451.383 -305.664 451.676 -286.508 451.851C-261.963 452.027 -236.539 452.32 -209.241 481.827C-181.415 510.807 -181.767 538.382 -182.06 565.723C-182.47 587.209 -182.939 608.461 -161.85 627.664C-140.351 646.34 -117.27 646.048 -94.0724 646.165C-65.7781 646.75 -37.4254 647.511 -7.49084 674.384C22.5608 701.081 23.6152 723.972 24.6697 745.634C25.1383 762.32 25.8413 778.361 48.4532 795.984C71.1824 813.43 94.2044 817.294 117.109 821.685C144.466 827.247 171.413 832.985 201.465 859.447C231.634 886.144 234.328 904.059 236.906 920.101C238.077 932.22 239.425 943.636 262.037 961.141C256.472 961.902 250.555 962.605 244.404 962.781C213.591 940.123 212.419 926.775 210.779 912.139C209.607 899.61 208.26 886.437 185.824 867.468C163.388 848.499 140.834 843.289 118.105 838.371C89.5766 833.16 60.8723 828.067 29.8833 805.527C-0.812683 782.869 -1.51569 763.608 -2.1601 742.941C-2.62872 725.787 -3.09735 707.989 -25.3578 688.903C-47.7355 669.817 -70.9332 668.939 -94.2481 668.588C-122.952 668.471 -151.657 669.056 -180.713 644.584C-208.948 619.234 -208.187 593.181 -207.484 566.191C-206.898 543.944 -206.605 521.696 -226.639 500.327C-246.381 478.665 -266.591 478.548 -286.157 478.49C-310.058 478.49 -332.67 478.373 -355.516 447.87C-378.362 417.134 -380.178 387.978 -382.697 359.232C-385.275 336.223 -388.204 313.449 -407.066 290.909C-426.046 268.486 -441.629 267.315 -456.274 266.32C-473.906 265.149 -490.25 264.212 -512.804 233.358C-535.416 202.446 -543.558 174.11 -551.818 146.242C-559.316 123.702 -566.756 101.923 -585.736 79.6755C-584.213 74.8748 -582.748 70.0155 -581.108 65.0391H-580.991ZM-558.379 28.9163C-529.382 57.4281 -523.407 79.3828 -516.67 102.625C-511.749 121.77 -505.774 142.495 -485.915 164.684C-466.057 186.756 -449.713 188.746 -432.08 191.849C-409.527 195.128 -385.685 198.875 -356.687 227.504C-327.807 256.133 -325.171 281.366 -322.418 307.243C-320.661 328.612 -318.786 351.094 -298.81 373.224C-278.893 395.296 -258.566 395.589 -237.652 396.467C-211.35 397.228 -184.286 397.696 -155.406 426.501C-126.526 455.188 -126.526 482.646 -126.526 510.397C-126.526 532.527 -126.526 554.541 -105.027 575.032C-83.4694 595.464 -60.7988 595.874 -38.4798 596.108C-11.1228 597.103 15.5312 598.157 44.1769 627.137C72.764 656.118 74.8729 681.644 76.7475 706.116C78.5635 725.494 79.8522 743.761 101.996 763.608C124.139 783.455 145.521 787.494 165.848 790.773C190.686 795.515 214.177 799.906 242.705 828.945C271.292 857.925 276.799 879.88 281.427 900.429C285.645 916.705 288.339 930.99 310.6 950.837C305.62 952.477 300.758 953.999 295.955 955.58C265.727 929.468 262.447 912.431 259.635 894.516C255.769 877.948 252.02 861.087 230.462 840.303C208.963 819.285 189.339 815.128 169.187 811.615C142.299 806.112 115.528 801.019 85.1245 775.083C54.9556 749.088 53.374 726.899 52.2609 704.008C50.6207 684.278 49.2734 664.138 27.8916 643.12C6.21692 622.22 -15.6335 621.224 -37.7768 620.697C-66.071 619.819 -94.0138 619.468 -123.48 592.537C-152.301 565.079 -152.301 538.089 -152.067 510.573C-151.95 488.15 -151.95 465.668 -173.156 444.416C-194.127 422.93 -215.743 422.637 -237.008 422.169C-262.432 421.759 -287.211 421.29 -313.162 391.256C-339.289 360.93 -341.691 332.886 -344.971 305.545C-347.022 284.352 -349.482 263.451 -370.278 241.847C-391.25 220.244 -409.761 217.961 -427.862 215.151C-448.19 213.043 -467.756 210.701 -493.648 180.55C-519.716 150.223 -527.273 123.936 -535.474 98.1175C-540.864 79.2657 -546.429 60.4725 -567.459 39.1618C-564.882 35.4149 -562.187 31.668 -558.321 29.0334L-558.379 28.9163ZM-519.013 9.71328C-488.844 35.7076 -485.681 52.803 -482.811 70.6595C-478.944 87.2279 -475.195 104.089 -453.696 124.99C-432.139 145.774 -412.397 149.93 -392.421 153.677C-365.65 159.181 -338.645 164.274 -308.359 190.21C-278.131 216.204 -276.667 238.276 -275.437 261.285C-273.796 280.956 -272.449 301.096 -251.009 322.055C-229.451 342.956 -207.542 343.951 -185.516 344.595C-157.222 345.474 -129.103 345.766 -99.8133 372.814C-70.9332 400.272 -70.9918 427.145 -71.1089 454.779C-71.1089 477.143 -71.2261 499.566 -50.1372 520.877C-29.0483 542.363 -7.37366 542.656 13.8909 543.124C39.3148 543.417 63.9771 543.885 90.2795 573.919C116.172 604.363 118.808 632.114 121.796 659.747C123.905 680.824 126.306 701.842 147.102 723.445C168.015 745.049 186.585 747.449 204.687 750.259C225.131 752.308 244.756 754.592 270.531 784.86C296.658 815.187 304.156 841.298 312.416 867.117C317.688 886.086 323.312 904.762 344.283 926.248C341.764 929.936 339.07 933.566 335.145 936.376C306.148 907.689 300.055 885.793 293.319 862.609C288.515 843.464 282.54 822.739 262.681 800.55C242.764 778.42 226.479 776.488 208.729 773.385C186.175 770.106 162.392 766.242 133.336 737.73C104.456 709.102 101.82 683.985 99.1251 657.757C97.3677 636.388 95.4346 614.023 75.5173 591.951C55.4828 569.88 35.3313 569.528 14.2424 568.709C-12.1772 568.065 -39.1241 567.479 -68.0042 538.733C-96.8842 510.046 -96.8842 482.471 -97.1186 454.837C-97.0014 432.707 -96.9428 410.635 -118.383 390.085C-140.058 369.653 -162.611 369.302 -184.93 368.892C-212.287 368.014 -238.941 366.843 -267.353 337.863C-296.057 308.882 -298.166 283.356 -299.982 258.767C-301.915 239.506 -303.262 221.298 -325.288 201.392C-347.549 181.545 -368.989 177.681 -389.141 174.227C-413.979 169.602 -437.411 165.152 -465.881 136.172C-494.468 107.192 -500.092 85.2374 -504.72 64.6878C-508.937 48.295 -511.749 34.0683 -533.775 14.2213C-528.972 12.6991 -524.168 11.1184 -519.13 9.59619L-519.013 9.71328ZM-467.697 2.27796C-437.001 24.9937 -435.829 38.2251 -434.189 52.8615C-433.017 65.3904 -431.612 78.7973 -409.175 97.7662C-386.798 116.618 -364.186 121.77 -341.457 126.746C-313.162 132.074 -284.224 137.05 -253.352 159.708C-222.539 182.248 -221.953 201.626 -221.191 222.235C-220.723 239.389 -220.137 257.186 -197.877 276.389C-175.616 295.592 -152.301 296.119 -129.221 296.705C-100.516 296.705 -71.7534 296.354 -42.639 320.767C-14.3447 346 -15.282 372.112 -15.9849 399.16C-16.4536 421.29 -16.6294 443.538 3.2879 464.966C23.1466 486.569 43.2396 486.803 62.9811 486.745C86.6475 486.627 109.377 486.862 132.399 517.364C155.128 548.159 157.061 577.081 159.463 606.002C161.982 629.245 164.852 651.844 183.656 674.501C202.695 696.865 218.336 698.036 233.04 698.973C250.555 700.027 267.016 701.198 289.569 731.993C312.299 762.788 320.207 791.007 328.584 819.051C336.082 841.591 343.522 863.37 362.56 885.617C360.92 890.652 359.397 895.57 357.932 900.254C331.044 870.395 322.784 844.46 314.583 817.528C307.729 795.105 301.403 772.507 283.887 749.908C266.372 727.192 252.664 726.138 238.546 725.085C219.39 723.562 199.122 721.396 172.409 691.362C145.989 661.094 142.826 633.578 139.956 605.358C138.022 582.057 136.382 558.814 118.867 536.274C101.058 513.851 82.4883 513.559 63.3912 513.324C38.6118 513.149 13.3051 512.915 -14.0518 483.466C-41.8774 454.486 -41.5845 426.911 -41.4088 399.628C-40.9987 378.025 -40.3543 356.773 -61.4432 337.687C-82.825 318.835 -106.257 319.186 -129.338 319.128C-157.573 318.484 -186.043 317.664 -215.743 290.909C-245.795 264.153 -246.85 241.086 -248.021 219.424C-248.666 202.856 -249.251 186.873 -271.922 169.309C-294.651 151.745 -317.79 147.823 -340.461 143.315C-367.935 137.812 -394.882 132.25 -424.933 105.67C-455.102 78.973 -457.855 61.1751 -460.257 44.7822C-461.605 32.8389 -462.835 21.481 -485.271 3.91725C-479.706 3.27324 -474.082 2.4536 -467.756 2.27796H-467.697ZM-409.995 1.10705C-379.241 20.193 -379.475 30.497 -378.889 42.2648C-378.421 52.5688 -377.835 63.2827 -355.106 79.7341C-332.259 96.0098 -308.71 100.928 -285.161 105.143C-255.812 109.592 -225.761 113.632 -194.713 132.484C-163.607 151.16 -163.783 168.197 -163.49 186.405C-163.314 201.802 -163.021 217.785 -140.468 234.471C-117.915 251.215 -94.3067 250.922 -71.0504 250.571C-42.0532 249.4 -12.9974 247.468 15.2383 269.188C42.4195 291.904 40.6621 317.079 39.1976 343.249C38.026 364.911 37.1473 386.983 55.3657 407.883C73.3499 429.135 92.2712 428.784 110.548 428.491C132.516 428.199 153.195 427.906 172.76 458.35C191.858 489.145 192.502 518.828 193.674 548.335C195.314 572.046 197.54 595.932 213.825 618.824C230.286 641.657 243.584 641.832 256.413 642.242C271.351 642.828 285.117 642.886 303.804 674.033C322.784 704.945 330.166 734.628 338.015 763.549C344.928 787.026 352.485 810.62 368.946 833.394C368.77 839.483 368.477 845.513 367.657 851.426C344.166 820.69 335.028 792.061 326.534 763.198C320.148 739.604 314.407 716.068 299.469 693.236C284.649 670.403 273.05 669.934 260.924 669.642C245.048 669.056 227.884 668.412 204.452 637.559C181.137 606.705 178.443 577.432 176.217 548.159C175.045 524.272 174.694 500.503 159.58 477.846C144.291 455.423 127.302 455.305 109.787 455.598C86.9404 455.715 63.4498 456.008 38.436 426.794C12.5436 398.399 13.6566 370.999 14.7697 344.537C15.5312 323.636 16.5856 303.203 -3.91742 285.991C-24.8306 269.247 -48.0283 270.476 -71.2261 271.472C-100.106 271.647 -129.103 271.647 -159.448 247.878C-190.085 224.284 -190.671 203.968 -190.671 184.882C-191.257 170.246 -191.433 156.019 -214.338 141.149C-237.242 126.337 -261.026 123.351 -284.458 119.545C-313.807 114.042 -342.628 108.363 -373.324 84.9447C-404.079 61.4092 -405.309 47.3582 -405.778 34.6538C-406.246 24.9352 -406.832 15.9777 -429.561 1.0485C-423.293 0.931409 -416.674 1.0485 -409.937 1.16559L-409.995 1.10705ZM-350.595 2.10233C-319.899 17.3242 -320.075 25.6377 -319.899 35.0636C-319.782 43.3186 -319.723 52.2175 -296.994 65.9758C-274.089 79.4413 -250.013 83.2468 -225.995 86.2912C-196.412 89.3941 -166.36 91.5018 -135.196 106.431C-104.207 121.302 -104.265 136.465 -104.207 152.507C-104.207 166.265 -104.031 180.55 -81.4776 194.484C-59.0414 208.652 -35.3165 207.188 -11.9429 205.49C16.8785 202.914 45.5242 199.402 72.9984 218.019C98.8908 238.159 96.6062 262.221 94.263 287.279C92.2712 308.473 90.5139 329.959 106.858 350.216C122.85 370.824 140.307 370.18 157.12 369.653C177.213 368.95 196.193 368.423 212.009 398.633C227.299 429.37 226.186 459.345 225.893 488.969C226.361 512.973 227.357 537.211 240.831 560.278C254.48 583.169 265.844 583.17 276.858 583.17C289.452 583.345 301.227 583.287 316.048 614.374C331.161 645.287 336.961 675.145 343.405 704.711C349.38 728.773 355.999 752.777 369.707 775.61C369.824 781.991 369.883 788.49 370 794.988C349.966 764.252 341.589 734.51 334.149 704.828C328.877 680.765 324.249 656.879 312.123 634.046C300.29 611.037 290.39 611.037 280.255 611.037C266.489 611.037 251.961 610.862 232.219 579.832C212.654 548.686 211.13 518.886 210.545 489.086C210.662 465.024 211.541 440.903 199.18 418.363C186.585 395.94 171.237 396.116 155.186 396.584C133.98 397.169 112.13 397.755 89.9866 369.126C66.6131 341.785 68.6048 315.088 70.6552 289.445C72.1196 269.481 73.8185 249.868 54.1941 234.646C33.9839 219.893 10.7276 222.527 -12.2358 224.635C-41.4088 226.391 -70.6989 227.738 -101.043 207.364C-131.857 187.341 -131.857 169.309 -131.564 152.272C-131.857 139.275 -131.974 126.922 -154.761 114.92C-177.784 102.977 -201.86 101.162 -225.761 98.6444C-255.812 94.6047 -285.571 89.6869 -316.56 70.0155C-347.49 50.1684 -347.549 38.8691 -347.373 28.565C-347.49 20.7784 -347.49 13.6359 -370.278 1.6925C-363.834 1.8096 -357.273 1.98523 -350.537 2.10233H-350.595ZM-290.199 3.62452C-259.679 14.9824 -259.971 21.3639 -259.971 28.8578C-260.147 35.2978 -260.264 42.616 -237.418 53.5056C-214.572 64.2194 -190.32 66.3856 -166.126 68.2591C-136.367 69.43 -106.198 69.7813 -75.0924 80.7879C-43.9863 91.6774 -44.2792 104.85 -44.2792 119.135C-44.3964 131.196 -44.2792 143.783 -21.843 155.083C0.41748 166.382 24.201 163.572 47.5746 160.586C75.986 156.371 104.69 151.277 131.169 166.733C155.831 184.297 152.55 207.071 149.387 231.368C146.399 251.859 143.822 272.701 158.233 291.963C171.94 311.927 188.167 311.107 203.691 310.346C221.968 309.468 239.308 308.824 251.375 338.858C262.74 369.594 259.752 399.277 257.702 429.018C256.647 453.198 256.237 477.26 266.84 500.327C277.56 523.336 287.461 523.336 296.716 523.219C307.378 523.336 317.219 523.336 327.998 554.424C339.245 585.336 343.229 615.018 348.032 644.584C352.66 668.881 357.757 692.943 368.711 715.6C368.887 722.45 369.121 728.89 369.297 735.447C353.129 704.711 346.392 674.852 340.71 644.818C336.785 620.815 333.505 596.869 324.249 574.095C315.228 551.203 307.085 551.086 298.415 551.086C286.699 551.379 274.221 551.262 258.463 520.057C242.881 488.911 242.94 459.111 243.994 429.194C245.634 405.015 247.919 381.011 238.487 358.412C228.646 336.282 214.704 336.575 199.942 337.16C180.61 338.097 160.576 338.916 141.361 311.049C120.448 284.937 123.553 259.236 126.424 234.354C128.532 215.268 130.934 196.592 112.189 183.36C92.6227 170.948 69.6007 174.812 46.5787 178.15C17.7573 181.545 -11.4157 184.531 -41.5259 167.846C-72.2805 151.57 -72.2805 135.587 -72.0462 120.423C-72.1634 109.066 -71.9291 98.176 -94.9511 89.2185C-117.856 80.1439 -142.167 79.6755 -166.126 78.5046C-196.178 76.397 -226.112 73.1769 -257.16 57.4281C-288.149 41.4451 -288.09 32.1949 -287.68 23.8228C-287.68 17.6755 -287.387 12.2893 -310.116 3.0976C-303.672 3.27324 -297.111 3.50743 -290.257 3.56597L-290.199 3.62452ZM-230.271 5.08816C-199.634 12.5235 -199.751 17.1486 -200.044 22.7105C-200.044 27.8039 -200.22 33.7171 -177.432 41.5622C-154.527 49.2903 -130.216 50.0513 -106.374 50.3441C-76.4398 49.7001 -46.5053 48.0608 -15.3406 55.0863C15.7655 62.0532 15.6484 73.4111 15.5898 85.6472C15.4726 96.3611 15.5898 107.426 37.9088 115.915C59.935 124.463 83.66 120.248 106.975 115.623C135.269 109.827 163.388 103.211 189.221 115.506C212.419 130.435 208.553 152.272 204.452 175.398C200.586 195.245 197.13 215.385 209.373 233.885C221.031 253.088 235.793 252.21 250.028 251.215C266.899 250.161 282.423 249.107 290.565 279.083C298.298 309.585 293.377 339.502 289.394 369.067C286.816 393.247 284.766 417.309 292.381 440.435C300.348 463.268 308.784 463.268 316.458 463.326C325.245 463.502 333.212 463.443 340.124 494.473C347.447 525.268 349.438 555.068 352.367 584.75C355.472 608.813 358.987 632.816 367.188 655.357C367.305 662.089 367.481 668.529 367.657 675.086C355.355 644.35 350.493 614.667 346.744 585.043C344.342 560.981 342.526 536.977 336.141 514.261C330.048 491.253 323.429 491.253 316.282 491.37C306.44 491.487 295.837 491.253 283.946 460.165C272.288 428.96 274.397 399.101 277.502 369.419C280.548 345.239 284.356 321.177 277.678 298.695C270.531 276.741 258.112 277.092 244.931 277.795C227.006 278.965 208.612 279.902 192.561 253.03C174.342 228.206 178.501 203.207 182.543 179.438C185.062 161.347 188.109 143.432 170.124 132.308C151.437 121.887 128.591 127.215 105.979 131.84C77.1576 136.933 48.2775 141.558 18.343 128.737C-12.2944 116.208 -12.2944 102.157 -11.8843 88.8672C-12.0601 79.0315 -12.0601 69.6642 -35.0235 63.5169C-58.0455 57.4281 -82.1806 58.599 -106.023 58.8918C-136.25 58.599 -166.126 57.4281 -197.115 45.6019C-228.045 33.4829 -227.928 26.0476 -227.577 19.6661C-227.694 15.041 -227.46 11.0013 -250.13 4.6198C-243.686 4.79543 -237.125 5.02962 -230.389 5.08816H-230.271ZM-170.637 5.84926C-140.116 9.53764 -139.999 12.5235 -139.999 16.3875C-140.116 20.1344 -140.175 24.4668 -117.446 29.5018C-94.5996 34.4196 -70.3474 33.6585 -46.3881 32.1949C-16.5122 29.5018 13.2465 25.9305 44.3527 29.0919C75.5759 32.0778 75.5759 41.7378 75.4587 52.2175C75.4587 61.4678 75.4587 71.0693 97.7192 76.5726C119.745 82.4272 143.353 76.7482 166.492 70.7766C194.494 63.2827 222.437 54.8521 247.392 64.2194C269.359 76.5726 264.849 97.1807 259.518 119.487C254.89 138.69 250.438 158.303 260.689 175.866C270.238 194.25 283.594 193.196 296.599 192.025C311.83 190.561 325.596 189.917 330.224 219.6C334.09 250.044 327.236 279.609 321.203 309.292C317.161 333.296 313.704 357.358 318.391 380.542C323.312 403.492 330.224 403.492 336.492 403.492C343.639 403.668 349.79 403.961 352.895 435.166C356.351 466.019 356.292 495.351 357.23 524.741C358.577 548.803 360.686 572.807 366.017 595.347C366.134 602.08 366.309 608.52 366.427 615.018C358.05 584.399 355.238 554.599 353.246 524.858C352.367 501.088 352.192 477.202 348.735 454.427C345.572 431.419 340.358 431.419 334.676 431.126C326.709 431.419 318.039 431.126 310.014 400.097C302.223 368.892 306.265 339.092 311.068 309.351C315.872 285.288 321.203 261.285 317.336 238.92C313.002 217.083 301.93 217.551 289.98 218.136C273.87 219.6 256.94 220.947 243.935 194.894C228.412 171.3 233.801 147.12 238.546 124.287C241.944 106.958 245.517 90.0967 228.412 80.905C210.369 72.7086 187.874 79.2657 165.204 85.2374C136.968 91.9702 107.971 98.4102 78.212 89.277C47.6917 80.7294 47.8675 68.3762 47.9846 57.1354C47.9846 48.6462 47.8674 40.8597 24.9626 37.464C1.94055 34.3025 -22.2531 37.0542 -46.0952 38.9862C-76.0297 40.6255 -106.081 41.328 -137.129 33.4243C-167.942 25.2279 -167.766 19.6661 -167.473 15.041C-167.591 11.7624 -167.473 9.18637 -190.085 5.73217C-183.642 5.84926 -177.198 5.84926 -170.52 5.84926H-170.637Z"/>
</mask>
<path d="M-111.412 6.31762C-80.7747 6.0249 -80.7747 7.25436 -80.7747 9.42055C-80.7747 11.7038 -80.6575 14.7482 -57.9284 17.0315C-35.0236 18.9635 -11.0057 16.6217 12.9536 13.6359C42.8295 8.89364 72.764 3.33179 103.987 2.57069C135.211 1.8096 135.093 9.59619 135.093 18.4952C135.093 26.2232 135.211 34.3611 157.53 37.0542C179.322 40.2156 202.812 33.0145 225.717 25.6963C253.543 16.5631 281.31 6.31762 305.445 12.6991C326.241 22.3592 320.851 42.1477 314.7 63.634C309.135 82.2515 303.804 101.22 312.123 117.847C319.328 135.645 331.571 134.299 343.229 133.069C356.937 131.547 369.063 130.201 370 159.766C370 190.21 361.213 220.185 353.539 249.751C347.74 273.813 342.76 297.7 344.459 321.001C346.685 343.834 352.074 344.01 356.995 344.244C362.209 344.42 366.544 344.42 365.782 375.625C365.372 406.478 363.498 436.22 362.502 465.668C362.326 489.555 362.795 513.383 365.314 535.806C365.431 542.422 365.431 548.92 365.489 555.243C360.862 524.682 360.1 495.058 360.1 465.551C360.803 441.781 362.209 417.836 361.447 395.237C361.154 372.112 357.405 371.995 353.188 371.819C347.037 371.819 340.066 371.409 335.965 340.497C332.216 309.175 338.191 279.317 344.928 249.634C351.196 225.63 358.05 201.685 356.995 179.438C355.355 157.541 345.748 158.127 335.145 158.947C320.676 160.469 305.386 162.049 295.486 136.816C282.481 114.686 288.925 91.1505 294.607 69.1958C298.474 52.9201 302.809 36.7614 286.406 29.6774C269.066 23.5886 246.806 31.4338 224.253 38.9276C196.31 47.1826 167.605 55.4961 138.081 49.9928C107.678 45.192 107.678 34.5953 107.678 25.1694C107.561 18.1439 107.502 11.7038 84.48 11.4111C61.3409 11.0013 37.3816 15.2751 13.4809 18.7293C-16.395 22.4177 -46.2124 25.1694 -77.2599 21.1297C-108.073 16.7973 -108.19 12.8748 -107.897 9.83037C-108.073 8.074 -108.19 6.96163 -130.802 6.25908C-124.476 6.25908 -117.797 6.37617 -111.236 6.25908L-111.412 6.31762ZM-588.079 409.757C-583.627 440.259 -582.866 469.942 -582.807 499.508C-583.686 523.277 -584.857 547.105 -584.272 569.938C-583.861 592.888 -580.23 592.947 -576.012 593.239C-569.919 593.239 -562.831 593.415 -558.848 624.561C-554.981 655.766 -561.074 685.625 -567.693 715.307C-573.786 739.077 -580.698 763.198 -579.644 785.445C-578.121 807.4 -568.455 806.815 -557.852 806.053C-543.5 804.59 -528.093 802.892 -518.193 828.125C-505.364 850.49 -511.866 873.967 -517.607 896.038C-521.532 912.431 -525.809 928.473 -509.523 935.615C-492.183 941.587 -469.747 933.683 -447.311 926.365C-419.485 917.993 -390.84 909.797 -361.081 915.066C-330.561 919.808 -330.678 930.463 -330.736 940.006C-330.619 947.032 -330.619 953.413 -307.597 953.765C-284.575 954.174 -260.382 949.901 -236.422 946.271C-206.546 942.699 -176.788 940.006 -145.682 943.87C-114.868 948.32 -114.986 952.359 -114.868 955.053C-114.868 956.985 -114.986 958.038 -92.315 958.8C-98.6417 958.8 -105.144 958.682 -111.354 958.682C-142.167 958.975 -142.46 957.804 -142.401 955.58C-142.284 953.179 -142.401 950.369 -165.13 948.086C-188.152 946.037 -212.053 948.378 -236.188 951.481C-265.947 956.224 -295.53 961.668 -326.812 962.488C-357.918 963.249 -358.328 955.521 -358.211 946.798C-358.211 939.07 -358.211 930.815 -380.471 928.004C-402.321 925.019 -425.754 932.044 -448.834 939.538C-476.66 948.671 -504.017 958.624 -528.269 952.359C-549.006 942.641 -543.675 922.852 -537.583 901.483C-531.901 882.807 -526.629 863.897 -534.888 847.153C-542.094 829.355 -554.337 830.584 -565.819 831.814C-579.585 833.453 -591.653 834.507 -592.473 804.941C-592.473 774.497 -583.686 744.756 -576.07 715.249C-570.388 691.187 -565.292 667.183 -567.225 644.057C-569.275 621.049 -574.723 620.932 -579.527 620.815C-584.74 620.522 -589.075 620.229 -588.314 589.258C-587.904 558.346 -586.029 528.839 -585.033 499.566C-584.916 475.504 -585.443 451.793 -587.728 429.135C-587.845 422.695 -587.904 416.255 -587.904 409.698L-588.079 409.757ZM-589.134 350.216C-580.757 380.777 -577.886 410.518 -575.777 440.259C-575.192 464.146 -575.016 487.857 -571.618 510.69C-568.338 533.523 -563.066 533.698 -557.383 533.991C-549.592 533.815 -540.746 533.815 -532.897 565.02C-525.106 596.167 -529.03 625.966 -533.893 655.766C-538.52 679.536 -543.91 703.657 -540.043 726.021C-535.826 747.976 -524.754 747.508 -512.804 746.922C-496.811 745.459 -479.882 744.112 -466.935 770.165C-451.412 793.759 -456.801 818.055 -461.663 841.064C-465.119 858.335 -468.576 875.079 -451.529 884.212C-433.486 892.409 -411.108 885.969 -388.262 879.88C-360.144 873.147 -331.439 866.766 -301.388 875.723C-270.985 884.271 -271.16 896.624 -271.16 907.982C-271.16 916.471 -271.16 924.375 -248.138 927.536C-225.116 930.815 -201.157 928.122 -177.081 926.014C-147.205 924.375 -117.27 923.731 -86.2812 931.576C-55.3508 939.772 -55.6437 945.451 -55.7609 949.959C-55.8781 953.238 -55.8781 955.814 -33.1489 959.385C-39.7685 959.268 -46.2709 959.209 -52.5976 959.209C-83.3522 955.638 -83.4108 952.769 -83.4108 948.788C-83.235 944.866 -83.235 940.592 -105.964 935.498C-128.986 930.698 -152.945 931.341 -177.022 932.922C-206.664 935.615 -236.422 939.187 -267.646 936.201C-298.752 933.039 -298.927 923.555 -298.927 913.075C-298.81 903.825 -298.752 894.106 -321.071 888.486C-343.038 882.69 -366.646 888.369 -389.727 894.341C-417.845 902.069 -445.495 910.265 -470.509 900.956C-492.476 888.603 -487.966 867.936 -482.752 845.455C-478.007 826.31 -473.496 806.756 -483.806 789.075C-493.121 770.692 -506.536 771.629 -519.54 772.799C-534.83 774.263 -548.538 775.024 -552.931 745.341C-556.797 714.898 -549.944 685.156 -544.144 655.591C-539.985 631.704 -536.529 607.642 -541.332 584.575C-546.019 561.449 -552.99 561.566 -559.434 561.449C-566.346 561.273 -572.556 561.039 -575.602 529.951C-579.058 499.156 -578.999 469.532 -579.937 440.142C-581.284 416.255 -583.51 392.252 -588.606 369.711C-588.782 363.33 -588.899 356.539 -589.075 350.04L-589.134 350.216ZM-590.481 290.031C-578.355 320.767 -573.551 350.626 -569.685 380.308C-567.4 404.312 -565.467 428.257 -559.199 451.09C-553.048 473.923 -546.487 473.923 -539.341 473.923C-529.499 473.923 -518.896 473.923 -507.063 505.069C-495.347 536.274 -497.339 566.016 -500.443 595.874C-503.548 619.761 -507.297 643.94 -500.619 666.363C-493.589 688.435 -481.17 687.967 -467.99 687.44C-450.299 686.269 -431.787 685.215 -415.678 712.087C-397.576 736.911 -401.736 761.91 -405.778 785.855C-408.472 803.946 -411.46 821.685 -393.534 832.867C-374.847 843.289 -352.118 838.078 -329.213 833.336C-300.685 828.359 -271.805 823.617 -241.577 836.322C-211.057 848.85 -211.057 863.019 -211.35 876.191C-211.467 886.203 -211.467 895.336 -188.504 901.542C-165.599 907.689 -141.288 906.635 -117.212 906.167C-87.2771 906.46 -57.2255 907.689 -26.1779 919.457C4.63525 931.576 4.57666 939.011 4.34235 945.393C4.22516 950.135 4.04944 953.94 26.6028 960.439C20.159 960.263 13.598 960.146 7.15424 959.97C-23.659 952.652 -23.659 948.027 -23.3661 942.348C-23.1903 937.255 -23.0732 931.459 -45.9194 923.555C-68.8243 915.768 -92.8422 914.89 -117.094 914.773C-147.029 915.417 -176.729 916.998 -207.894 910.031C-238.824 903.005 -239.117 891.706 -238.883 879.411C-238.765 868.932 -238.707 857.632 -261.143 849.26C-283.286 840.771 -306.894 844.928 -330.209 849.553C-358.621 855.349 -386.446 861.965 -412.339 849.729C-435.536 834.799 -431.904 813.02 -427.569 789.719C-423.703 769.755 -420.13 749.674 -432.49 731.173C-443.972 712.029 -458.793 712.849 -472.911 713.844C-489.84 715.015 -505.305 715.893 -513.448 686.035C-521.063 655.474 -516.143 625.557 -512.218 595.991C-509.699 571.929 -507.766 547.808 -515.498 524.799C-523.231 501.791 -531.667 501.849 -539.399 501.849C-548.245 501.732 -556.036 501.732 -563.066 470.82C-570.388 440.025 -572.321 410.108 -575.309 380.542C-578.296 356.363 -582.046 332.359 -589.954 309.761C-590.13 303.203 -590.247 296.763 -590.422 290.031H-590.481ZM-592.121 229.846C-576.012 260.465 -569.509 290.323 -563.534 320.416C-559.668 344.42 -556.387 368.365 -547.249 391.198C-538.228 414.031 -530.026 414.031 -521.356 414.206C-509.875 413.796 -497.28 413.914 -481.463 445.118C-465.881 476.206 -466.057 506.006 -467.111 536.157C-468.576 559.927 -470.86 584.048 -461.429 606.588C-451.705 628.835 -437.762 628.542 -423.117 628.191C-403.786 627.02 -383.634 626.259 -364.537 654.127C-343.741 680.238 -346.729 705.94 -349.716 730.998C-351.825 749.967 -354.344 768.643 -335.481 781.874C-316.033 794.403 -293.128 790.539 -269.872 787.202C-241.167 783.747 -212.17 780.762 -181.767 797.33C-151.13 813.489 -151.129 829.706 -151.129 844.752C-151.422 856.227 -151.422 867 -128.518 876.074C-105.613 885.149 -81.4191 885.617 -57.1669 886.671C-27.2324 888.896 2.64349 891.94 33.6324 907.748C64.5628 923.731 64.5628 933.098 64.4456 941.294C64.1528 947.442 63.9771 952.769 86.7061 962.078C80.0866 961.902 73.5256 961.785 66.9646 961.61C36.2686 950.252 36.3271 943.812 36.5615 936.435C36.6786 929.702 36.8544 922.677 14.1252 911.67C-8.7796 900.956 -33.0904 898.556 -57.2254 896.917C-86.9842 895.687 -116.919 895.394 -148.142 884.505C-179.131 873.557 -179.072 860.326 -179.131 846.274C-178.955 834.038 -178.721 821.334 -201.274 810.327C-223.652 798.969 -247.435 801.545 -270.926 804.824C-299.455 808.981 -327.749 814.074 -354.52 798.677C-378.948 781.172 -375.785 758.104 -372.621 733.925C-369.751 713.434 -366.939 692.709 -381.291 673.33C-395.057 653.483 -411.167 653.951 -426.691 654.771C-445.144 655.708 -462.308 656.293 -474.258 626.376C-485.74 595.757 -482.635 565.781 -480.702 536.099C-479.764 512.095 -479.179 488.033 -489.84 465.024C-500.56 442.074 -510.46 442.016 -519.775 442.016C-530.378 442.016 -540.102 442.016 -550.998 410.986C-562.245 380.074 -566.112 350.274 -571.032 320.533C-575.485 296.471 -580.757 272.584 -591.653 249.927C-591.828 243.37 -591.946 236.52 -592.121 229.963V229.846ZM-592.883 170.422C-572.966 201.041 -564.647 230.841 -557.266 260.465C-551.994 284.352 -547.249 308.355 -535.24 331.247C-523.29 354.08 -513.565 354.08 -503.255 354.255C-489.665 354.255 -475.137 354.431 -455.395 385.46C-435.829 416.607 -434.306 446.348 -433.662 476.089C-433.779 499.976 -434.541 524.038 -422.297 546.871C-409.761 569.236 -394.472 568.826 -378.362 568.65C-357.273 568.006 -335.481 567.304 -313.338 595.991C-289.847 623.332 -291.956 649.853 -294.007 675.73C-295.53 695.695 -297.053 715.249 -277.37 730.471C-257.16 745.107 -234.196 742.59 -210.998 740.482C-182.001 738.667 -152.887 737.379 -122.367 757.636C-91.5534 777.6 -91.4363 795.515 -91.612 812.611C-91.4949 825.725 -91.4363 838.137 -68.4142 850.08C-45.5094 862.023 -21.6086 863.955 2.40924 866.473C32.3437 870.337 62.0438 875.255 93.0328 894.867C123.963 914.714 124.022 926.072 124.022 936.318C124.197 944.104 124.197 951.247 147.161 963.307C140.424 963.19 133.863 963.132 127.419 962.898C96.6062 947.793 96.6062 939.421 96.489 929.878C96.6062 921.681 96.3718 912.841 73.5842 899.083C50.5621 885.617 26.8958 881.753 2.58496 878.65C-27.0566 875.723 -56.9326 873.557 -88.0386 858.628C-119.028 843.816 -119.145 828.652 -119.262 812.494C-119.086 798.794 -119.262 784.567 -141.815 770.692C-164.251 756.524 -187.976 758.104 -211.643 759.802C-240.347 762.32 -268.759 765.774 -296.408 747.391C-322.242 727.134 -319.899 702.954 -317.673 677.838C-315.564 656.82 -313.807 635.275 -330.209 615.136C-346.084 594.527 -363.424 595.113 -380.412 595.464C-400.623 596.05 -419.544 596.694 -435.126 566.484C-450.416 535.747 -449.303 505.596 -449.01 476.148C-449.478 452.261 -450.533 428.199 -464.065 405.073C-477.656 382.123 -489.196 382.24 -500.092 382.065C-512.804 381.772 -524.344 381.889 -539.282 350.977C-554.396 320.065 -560.195 289.914 -566.639 260.641C-572.614 236.637 -579.058 212.575 -592.707 189.917C-592.824 183.477 -592.883 177.037 -593 170.48L-592.883 170.422ZM-590.598 113.983C-567.108 144.544 -558.028 173.056 -549.358 202.095C-543.09 225.513 -537.232 249.224 -522.411 272.057C-507.649 294.89 -495.991 295.183 -483.806 295.651C-468.107 295.944 -450.943 296.822 -427.569 327.617C-404.255 358.412 -401.56 387.626 -399.275 417.016C-398.221 440.728 -397.518 464.614 -382.58 487.447C-367.349 509.87 -350.537 509.812 -332.904 509.695C-310.292 509.402 -286.567 509.109 -261.612 538.499C-235.719 566.835 -236.832 594.176 -237.945 620.756C-238.824 641.54 -239.761 661.972 -219.258 679.243C-198.345 696.104 -175.323 694.641 -151.95 693.763C-123.128 693.47 -94.1895 693.47 -63.6107 717.181C-32.9733 740.892 -32.6217 761.09 -32.5046 780.293C-32.2117 795.047 -31.743 809.215 -8.89673 824.027C14.0081 838.839 37.5573 841.942 61.3409 845.513C90.5139 851.017 119.394 856.871 150.207 880.172C180.962 903.591 181.899 917.759 182.485 930.346C183.071 940.065 183.656 949.139 206.444 963.952C199.825 964.069 193.146 963.952 186.82 963.834C155.831 944.866 155.831 934.386 155.538 922.735C154.952 912.548 154.542 901.951 131.93 885.383C109.025 869.107 85.3002 864.072 61.8096 859.974C32.2266 855.466 2.46777 851.485 -28.6383 832.692C-59.5687 813.84 -59.6273 796.862 -59.6273 778.654C-60.0373 763.256 -60.0373 747.332 -82.5321 730.705C-105.144 714.136 -128.869 714.136 -152.067 714.605C-181.357 715.776 -210.061 717.591 -238.473 696.104C-265.537 673.272 -263.896 648.038 -262.432 622.102C-261.202 600.265 -260.323 578.486 -278.541 557.468C-296.526 536.157 -315.33 536.274 -333.548 536.684C-355.574 536.86 -376.429 537.152 -395.643 506.709C-414.74 475.855 -415.326 445.997 -416.615 416.899C-418.372 393.13 -420.54 369.477 -436.825 346.586C-453.169 323.753 -466.584 323.343 -479.179 322.992C-494.175 322.289 -507.883 322.231 -526.687 291.319C-545.55 260.289 -552.99 230.665 -560.664 201.744C-567.693 178.15 -575.192 154.848 -591.653 132.308C-591.477 126.161 -591.184 119.779 -590.481 113.983H-590.598ZM-580.991 65.0391C-554.337 94.8974 -546.019 120.716 -537.759 147.706C-530.905 170.129 -524.578 192.727 -507.121 215.443C-489.606 237.866 -475.722 239.037 -461.663 240.208C-442.566 241.73 -422.356 243.897 -395.702 274.048C-369.224 304.199 -366.06 331.774 -363.248 360.051C-361.022 383.06 -359.499 406.303 -341.984 429.018C-324.175 451.383 -305.664 451.676 -286.508 451.851C-261.963 452.027 -236.539 452.32 -209.241 481.827C-181.415 510.807 -181.767 538.382 -182.06 565.723C-182.47 587.209 -182.939 608.461 -161.85 627.664C-140.351 646.34 -117.27 646.048 -94.0724 646.165C-65.7781 646.75 -37.4254 647.511 -7.49084 674.384C22.5608 701.081 23.6152 723.972 24.6697 745.634C25.1383 762.32 25.8413 778.361 48.4532 795.984C71.1824 813.43 94.2044 817.294 117.109 821.685C144.466 827.247 171.413 832.985 201.465 859.447C231.634 886.144 234.328 904.059 236.906 920.101C238.077 932.22 239.425 943.636 262.037 961.141C256.472 961.902 250.555 962.605 244.404 962.781C213.591 940.123 212.419 926.775 210.779 912.139C209.607 899.61 208.26 886.437 185.824 867.468C163.388 848.499 140.834 843.289 118.105 838.371C89.5766 833.16 60.8723 828.067 29.8833 805.527C-0.812683 782.869 -1.51569 763.608 -2.1601 742.941C-2.62872 725.787 -3.09735 707.989 -25.3578 688.903C-47.7355 669.817 -70.9332 668.939 -94.2481 668.588C-122.952 668.471 -151.657 669.056 -180.713 644.584C-208.948 619.234 -208.187 593.181 -207.484 566.191C-206.898 543.944 -206.605 521.696 -226.639 500.327C-246.381 478.665 -266.591 478.548 -286.157 478.49C-310.058 478.49 -332.67 478.373 -355.516 447.87C-378.362 417.134 -380.178 387.978 -382.697 359.232C-385.275 336.223 -388.204 313.449 -407.066 290.909C-426.046 268.486 -441.629 267.315 -456.274 266.32C-473.906 265.149 -490.25 264.212 -512.804 233.358C-535.416 202.446 -543.558 174.11 -551.818 146.242C-559.316 123.702 -566.756 101.923 -585.736 79.6755C-584.213 74.8748 -582.748 70.0155 -581.108 65.0391H-580.991ZM-558.379 28.9163C-529.382 57.4281 -523.407 79.3828 -516.67 102.625C-511.749 121.77 -505.774 142.495 -485.915 164.684C-466.057 186.756 -449.713 188.746 -432.08 191.849C-409.527 195.128 -385.685 198.875 -356.687 227.504C-327.807 256.133 -325.171 281.366 -322.418 307.243C-320.661 328.612 -318.786 351.094 -298.81 373.224C-278.893 395.296 -258.566 395.589 -237.652 396.467C-211.35 397.228 -184.286 397.696 -155.406 426.501C-126.526 455.188 -126.526 482.646 -126.526 510.397C-126.526 532.527 -126.526 554.541 -105.027 575.032C-83.4694 595.464 -60.7988 595.874 -38.4798 596.108C-11.1228 597.103 15.5312 598.157 44.1769 627.137C72.764 656.118 74.8729 681.644 76.7475 706.116C78.5635 725.494 79.8522 743.761 101.996 763.608C124.139 783.455 145.521 787.494 165.848 790.773C190.686 795.515 214.177 799.906 242.705 828.945C271.292 857.925 276.799 879.88 281.427 900.429C285.645 916.705 288.339 930.99 310.6 950.837C305.62 952.477 300.758 953.999 295.955 955.58C265.727 929.468 262.447 912.431 259.635 894.516C255.769 877.948 252.02 861.087 230.462 840.303C208.963 819.285 189.339 815.128 169.187 811.615C142.299 806.112 115.528 801.019 85.1245 775.083C54.9556 749.088 53.374 726.899 52.2609 704.008C50.6207 684.278 49.2734 664.138 27.8916 643.12C6.21692 622.22 -15.6335 621.224 -37.7768 620.697C-66.071 619.819 -94.0138 619.468 -123.48 592.537C-152.301 565.079 -152.301 538.089 -152.067 510.573C-151.95 488.15 -151.95 465.668 -173.156 444.416C-194.127 422.93 -215.743 422.637 -237.008 422.169C-262.432 421.759 -287.211 421.29 -313.162 391.256C-339.289 360.93 -341.691 332.886 -344.971 305.545C-347.022 284.352 -349.482 263.451 -370.278 241.847C-391.25 220.244 -409.761 217.961 -427.862 215.151C-448.19 213.043 -467.756 210.701 -493.648 180.55C-519.716 150.223 -527.273 123.936 -535.474 98.1175C-540.864 79.2657 -546.429 60.4725 -567.459 39.1618C-564.882 35.4149 -562.187 31.668 -558.321 29.0334L-558.379 28.9163ZM-519.013 9.71328C-488.844 35.7076 -485.681 52.803 -482.811 70.6595C-478.944 87.2279 -475.195 104.089 -453.696 124.99C-432.139 145.774 -412.397 149.93 -392.421 153.677C-365.65 159.181 -338.645 164.274 -308.359 190.21C-278.131 216.204 -276.667 238.276 -275.437 261.285C-273.796 280.956 -272.449 301.096 -251.009 322.055C-229.451 342.956 -207.542 343.951 -185.516 344.595C-157.222 345.474 -129.103 345.766 -99.8133 372.814C-70.9332 400.272 -70.9918 427.145 -71.1089 454.779C-71.1089 477.143 -71.2261 499.566 -50.1372 520.877C-29.0483 542.363 -7.37366 542.656 13.8909 543.124C39.3148 543.417 63.9771 543.885 90.2795 573.919C116.172 604.363 118.808 632.114 121.796 659.747C123.905 680.824 126.306 701.842 147.102 723.445C168.015 745.049 186.585 747.449 204.687 750.259C225.131 752.308 244.756 754.592 270.531 784.86C296.658 815.187 304.156 841.298 312.416 867.117C317.688 886.086 323.312 904.762 344.283 926.248C341.764 929.936 339.07 933.566 335.145 936.376C306.148 907.689 300.055 885.793 293.319 862.609C288.515 843.464 282.54 822.739 262.681 800.55C242.764 778.42 226.479 776.488 208.729 773.385C186.175 770.106 162.392 766.242 133.336 737.73C104.456 709.102 101.82 683.985 99.1251 657.757C97.3677 636.388 95.4346 614.023 75.5173 591.951C55.4828 569.88 35.3313 569.528 14.2424 568.709C-12.1772 568.065 -39.1241 567.479 -68.0042 538.733C-96.8842 510.046 -96.8842 482.471 -97.1186 454.837C-97.0014 432.707 -96.9428 410.635 -118.383 390.085C-140.058 369.653 -162.611 369.302 -184.93 368.892C-212.287 368.014 -238.941 366.843 -267.353 337.863C-296.057 308.882 -298.166 283.356 -299.982 258.767C-301.915 239.506 -303.262 221.298 -325.288 201.392C-347.549 181.545 -368.989 177.681 -389.141 174.227C-413.979 169.602 -437.411 165.152 -465.881 136.172C-494.468 107.192 -500.092 85.2374 -504.72 64.6878C-508.937 48.295 -511.749 34.0683 -533.775 14.2213C-528.972 12.6991 -524.168 11.1184 -519.13 9.59619L-519.013 9.71328ZM-467.697 2.27796C-437.001 24.9937 -435.829 38.2251 -434.189 52.8615C-433.017 65.3904 -431.612 78.7973 -409.175 97.7662C-386.798 116.618 -364.186 121.77 -341.457 126.746C-313.162 132.074 -284.224 137.05 -253.352 159.708C-222.539 182.248 -221.953 201.626 -221.191 222.235C-220.723 239.389 -220.137 257.186 -197.877 276.389C-175.616 295.592 -152.301 296.119 -129.221 296.705C-100.516 296.705 -71.7534 296.354 -42.639 320.767C-14.3447 346 -15.282 372.112 -15.9849 399.16C-16.4536 421.29 -16.6294 443.538 3.2879 464.966C23.1466 486.569 43.2396 486.803 62.9811 486.745C86.6475 486.627 109.377 486.862 132.399 517.364C155.128 548.159 157.061 577.081 159.463 606.002C161.982 629.245 164.852 651.844 183.656 674.501C202.695 696.865 218.336 698.036 233.04 698.973C250.555 700.027 267.016 701.198 289.569 731.993C312.299 762.788 320.207 791.007 328.584 819.051C336.082 841.591 343.522 863.37 362.56 885.617C360.92 890.652 359.397 895.57 357.932 900.254C331.044 870.395 322.784 844.46 314.583 817.528C307.729 795.105 301.403 772.507 283.887 749.908C266.372 727.192 252.664 726.138 238.546 725.085C219.39 723.562 199.122 721.396 172.409 691.362C145.989 661.094 142.826 633.578 139.956 605.358C138.022 582.057 136.382 558.814 118.867 536.274C101.058 513.851 82.4883 513.559 63.3912 513.324C38.6118 513.149 13.3051 512.915 -14.0518 483.466C-41.8774 454.486 -41.5845 426.911 -41.4088 399.628C-40.9987 378.025 -40.3543 356.773 -61.4432 337.687C-82.825 318.835 -106.257 319.186 -129.338 319.128C-157.573 318.484 -186.043 317.664 -215.743 290.909C-245.795 264.153 -246.85 241.086 -248.021 219.424C-248.666 202.856 -249.251 186.873 -271.922 169.309C-294.651 151.745 -317.79 147.823 -340.461 143.315C-367.935 137.812 -394.882 132.25 -424.933 105.67C-455.102 78.973 -457.855 61.1751 -460.257 44.7822C-461.605 32.8389 -462.835 21.481 -485.271 3.91725C-479.706 3.27324 -474.082 2.4536 -467.756 2.27796H-467.697ZM-409.995 1.10705C-379.241 20.193 -379.475 30.497 -378.889 42.2648C-378.421 52.5688 -377.835 63.2827 -355.106 79.7341C-332.259 96.0098 -308.71 100.928 -285.161 105.143C-255.812 109.592 -225.761 113.632 -194.713 132.484C-163.607 151.16 -163.783 168.197 -163.49 186.405C-163.314 201.802 -163.021 217.785 -140.468 234.471C-117.915 251.215 -94.3067 250.922 -71.0504 250.571C-42.0532 249.4 -12.9974 247.468 15.2383 269.188C42.4195 291.904 40.6621 317.079 39.1976 343.249C38.026 364.911 37.1473 386.983 55.3657 407.883C73.3499 429.135 92.2712 428.784 110.548 428.491C132.516 428.199 153.195 427.906 172.76 458.35C191.858 489.145 192.502 518.828 193.674 548.335C195.314 572.046 197.54 595.932 213.825 618.824C230.286 641.657 243.584 641.832 256.413 642.242C271.351 642.828 285.117 642.886 303.804 674.033C322.784 704.945 330.166 734.628 338.015 763.549C344.928 787.026 352.485 810.62 368.946 833.394C368.77 839.483 368.477 845.513 367.657 851.426C344.166 820.69 335.028 792.061 326.534 763.198C320.148 739.604 314.407 716.068 299.469 693.236C284.649 670.403 273.05 669.934 260.924 669.642C245.048 669.056 227.884 668.412 204.452 637.559C181.137 606.705 178.443 577.432 176.217 548.159C175.045 524.272 174.694 500.503 159.58 477.846C144.291 455.423 127.302 455.305 109.787 455.598C86.9404 455.715 63.4498 456.008 38.436 426.794C12.5436 398.399 13.6566 370.999 14.7697 344.537C15.5312 323.636 16.5856 303.203 -3.91742 285.991C-24.8306 269.247 -48.0283 270.476 -71.2261 271.472C-100.106 271.647 -129.103 271.647 -159.448 247.878C-190.085 224.284 -190.671 203.968 -190.671 184.882C-191.257 170.246 -191.433 156.019 -214.338 141.149C-237.242 126.337 -261.026 123.351 -284.458 119.545C-313.807 114.042 -342.628 108.363 -373.324 84.9447C-404.079 61.4092 -405.309 47.3582 -405.778 34.6538C-406.246 24.9352 -406.832 15.9777 -429.561 1.0485C-423.293 0.931409 -416.674 1.0485 -409.937 1.16559L-409.995 1.10705ZM-350.595 2.10233C-319.899 17.3242 -320.075 25.6377 -319.899 35.0636C-319.782 43.3186 -319.723 52.2175 -296.994 65.9758C-274.089 79.4413 -250.013 83.2468 -225.995 86.2912C-196.412 89.3941 -166.36 91.5018 -135.196 106.431C-104.207 121.302 -104.265 136.465 -104.207 152.507C-104.207 166.265 -104.031 180.55 -81.4776 194.484C-59.0414 208.652 -35.3165 207.188 -11.9429 205.49C16.8785 202.914 45.5242 199.402 72.9984 218.019C98.8908 238.159 96.6062 262.221 94.263 287.279C92.2712 308.473 90.5139 329.959 106.858 350.216C122.85 370.824 140.307 370.18 157.12 369.653C177.213 368.95 196.193 368.423 212.009 398.633C227.299 429.37 226.186 459.345 225.893 488.969C226.361 512.973 227.357 537.211 240.831 560.278C254.48 583.169 265.844 583.17 276.858 583.17C289.452 583.345 301.227 583.287 316.048 614.374C331.161 645.287 336.961 675.145 343.405 704.711C349.38 728.773 355.999 752.777 369.707 775.61C369.824 781.991 369.883 788.49 370 794.988C349.966 764.252 341.589 734.51 334.149 704.828C328.877 680.765 324.249 656.879 312.123 634.046C300.29 611.037 290.39 611.037 280.255 611.037C266.489 611.037 251.961 610.862 232.219 579.832C212.654 548.686 211.13 518.886 210.545 489.086C210.662 465.024 211.541 440.903 199.18 418.363C186.585 395.94 171.237 396.116 155.186 396.584C133.98 397.169 112.13 397.755 89.9866 369.126C66.6131 341.785 68.6048 315.088 70.6552 289.445C72.1196 269.481 73.8185 249.868 54.1941 234.646C33.9839 219.893 10.7276 222.527 -12.2358 224.635C-41.4088 226.391 -70.6989 227.738 -101.043 207.364C-131.857 187.341 -131.857 169.309 -131.564 152.272C-131.857 139.275 -131.974 126.922 -154.761 114.92C-177.784 102.977 -201.86 101.162 -225.761 98.6444C-255.812 94.6047 -285.571 89.6869 -316.56 70.0155C-347.49 50.1684 -347.549 38.8691 -347.373 28.565C-347.49 20.7784 -347.49 13.6359 -370.278 1.6925C-363.834 1.8096 -357.273 1.98523 -350.537 2.10233H-350.595ZM-290.199 3.62452C-259.679 14.9824 -259.971 21.3639 -259.971 28.8578C-260.147 35.2978 -260.264 42.616 -237.418 53.5056C-214.572 64.2194 -190.32 66.3856 -166.126 68.2591C-136.367 69.43 -106.198 69.7813 -75.0924 80.7879C-43.9863 91.6774 -44.2792 104.85 -44.2792 119.135C-44.3964 131.196 -44.2792 143.783 -21.843 155.083C0.41748 166.382 24.201 163.572 47.5746 160.586C75.986 156.371 104.69 151.277 131.169 166.733C155.831 184.297 152.55 207.071 149.387 231.368C146.399 251.859 143.822 272.701 158.233 291.963C171.94 311.927 188.167 311.107 203.691 310.346C221.968 309.468 239.308 308.824 251.375 338.858C262.74 369.594 259.752 399.277 257.702 429.018C256.647 453.198 256.237 477.26 266.84 500.327C277.56 523.336 287.461 523.336 296.716 523.219C307.378 523.336 317.219 523.336 327.998 554.424C339.245 585.336 343.229 615.018 348.032 644.584C352.66 668.881 357.757 692.943 368.711 715.6C368.887 722.45 369.121 728.89 369.297 735.447C353.129 704.711 346.392 674.852 340.71 644.818C336.785 620.815 333.505 596.869 324.249 574.095C315.228 551.203 307.085 551.086 298.415 551.086C286.699 551.379 274.221 551.262 258.463 520.057C242.881 488.911 242.94 459.111 243.994 429.194C245.634 405.015 247.919 381.011 238.487 358.412C228.646 336.282 214.704 336.575 199.942 337.16C180.61 338.097 160.576 338.916 141.361 311.049C120.448 284.937 123.553 259.236 126.424 234.354C128.532 215.268 130.934 196.592 112.189 183.36C92.6227 170.948 69.6007 174.812 46.5787 178.15C17.7573 181.545 -11.4157 184.531 -41.5259 167.846C-72.2805 151.57 -72.2805 135.587 -72.0462 120.423C-72.1634 109.066 -71.9291 98.176 -94.9511 89.2185C-117.856 80.1439 -142.167 79.6755 -166.126 78.5046C-196.178 76.397 -226.112 73.1769 -257.16 57.4281C-288.149 41.4451 -288.09 32.1949 -287.68 23.8228C-287.68 17.6755 -287.387 12.2893 -310.116 3.0976C-303.672 3.27324 -297.111 3.50743 -290.257 3.56597L-290.199 3.62452ZM-230.271 5.08816C-199.634 12.5235 -199.751 17.1486 -200.044 22.7105C-200.044 27.8039 -200.22 33.7171 -177.432 41.5622C-154.527 49.2903 -130.216 50.0513 -106.374 50.3441C-76.4398 49.7001 -46.5053 48.0608 -15.3406 55.0863C15.7655 62.0532 15.6484 73.4111 15.5898 85.6472C15.4726 96.3611 15.5898 107.426 37.9088 115.915C59.935 124.463 83.66 120.248 106.975 115.623C135.269 109.827 163.388 103.211 189.221 115.506C212.419 130.435 208.553 152.272 204.452 175.398C200.586 195.245 197.13 215.385 209.373 233.885C221.031 253.088 235.793 252.21 250.028 251.215C266.899 250.161 282.423 249.107 290.565 279.083C298.298 309.585 293.377 339.502 289.394 369.067C286.816 393.247 284.766 417.309 292.381 440.435C300.348 463.268 308.784 463.268 316.458 463.326C325.245 463.502 333.212 463.443 340.124 494.473C347.447 525.268 349.438 555.068 352.367 584.75C355.472 608.813 358.987 632.816 367.188 655.357C367.305 662.089 367.481 668.529 367.657 675.086C355.355 644.35 350.493 614.667 346.744 585.043C344.342 560.981 342.526 536.977 336.141 514.261C330.048 491.253 323.429 491.253 316.282 491.37C306.44 491.487 295.837 491.253 283.946 460.165C272.288 428.96 274.397 399.101 277.502 369.419C280.548 345.239 284.356 321.177 277.678 298.695C270.531 276.741 258.112 277.092 244.931 277.795C227.006 278.965 208.612 279.902 192.561 253.03C174.342 228.206 178.501 203.207 182.543 179.438C185.062 161.347 188.109 143.432 170.124 132.308C151.437 121.887 128.591 127.215 105.979 131.84C77.1576 136.933 48.2775 141.558 18.343 128.737C-12.2944 116.208 -12.2944 102.157 -11.8843 88.8672C-12.0601 79.0315 -12.0601 69.6642 -35.0235 63.5169C-58.0455 57.4281 -82.1806 58.599 -106.023 58.8918C-136.25 58.599 -166.126 57.4281 -197.115 45.6019C-228.045 33.4829 -227.928 26.0476 -227.577 19.6661C-227.694 15.041 -227.46 11.0013 -250.13 4.6198C-243.686 4.79543 -237.125 5.02962 -230.389 5.08816H-230.271ZM-170.637 5.84926C-140.116 9.53764 -139.999 12.5235 -139.999 16.3875C-140.116 20.1344 -140.175 24.4668 -117.446 29.5018C-94.5996 34.4196 -70.3474 33.6585 -46.3881 32.1949C-16.5122 29.5018 13.2465 25.9305 44.3527 29.0919C75.5759 32.0778 75.5759 41.7378 75.4587 52.2175C75.4587 61.4678 75.4587 71.0693 97.7192 76.5726C119.745 82.4272 143.353 76.7482 166.492 70.7766C194.494 63.2827 222.437 54.8521 247.392 64.2194C269.359 76.5726 264.849 97.1807 259.518 119.487C254.89 138.69 250.438 158.303 260.689 175.866C270.238 194.25 283.594 193.196 296.599 192.025C311.83 190.561 325.596 189.917 330.224 219.6C334.09 250.044 327.236 279.609 321.203 309.292C317.161 333.296 313.704 357.358 318.391 380.542C323.312 403.492 330.224 403.492 336.492 403.492C343.639 403.668 349.79 403.961 352.895 435.166C356.351 466.019 356.292 495.351 357.23 524.741C358.577 548.803 360.686 572.807 366.017 595.347C366.134 602.08 366.309 608.52 366.427 615.018C358.05 584.399 355.238 554.599 353.246 524.858C352.367 501.088 352.192 477.202 348.735 454.427C345.572 431.419 340.358 431.419 334.676 431.126C326.709 431.419 318.039 431.126 310.014 400.097C302.223 368.892 306.265 339.092 311.068 309.351C315.872 285.288 321.203 261.285 317.336 238.92C313.002 217.083 301.93 217.551 289.98 218.136C273.87 219.6 256.94 220.947 243.935 194.894C228.412 171.3 233.801 147.12 238.546 124.287C241.944 106.958 245.517 90.0967 228.412 80.905C210.369 72.7086 187.874 79.2657 165.204 85.2374C136.968 91.9702 107.971 98.4102 78.212 89.277C47.6917 80.7294 47.8675 68.3762 47.9846 57.1354C47.9846 48.6462 47.8674 40.8597 24.9626 37.464C1.94055 34.3025 -22.2531 37.0542 -46.0952 38.9862C-76.0297 40.6255 -106.081 41.328 -137.129 33.4243C-167.942 25.2279 -167.766 19.6661 -167.473 15.041C-167.591 11.7624 -167.473 9.18637 -190.085 5.73217C-183.642 5.84926 -177.198 5.84926 -170.52 5.84926H-170.637Z" stroke="#403730" stroke-opacity="0.12" stroke-width="3" mask="url(#path-2-inside-1_75_2193)"/>
</g>
</svg>
