<svg width="61" height="61" viewBox="0 0 61 61" fill="none" xmlns="http://www.w3.org/2000/svg">
<path d="M10.604 38.6016C14.5355 38.6016 17.7227 35.4144 17.7227 31.4829C17.7227 27.5514 14.5355 24.3643 10.604 24.3643C6.67248 24.3643 3.48535 27.5514 3.48535 31.4829C3.48535 35.4144 6.67248 38.6016 10.604 38.6016Z" fill="#293F5B"/>
<path d="M50.1587 38.6016C54.0902 38.6016 57.2773 35.4144 57.2773 31.4829C57.2773 27.5514 54.0902 24.3643 50.1587 24.3643C46.2272 24.3643 43.04 27.5514 43.04 31.4829C43.04 35.4144 46.2272 38.6016 50.1587 38.6016Z" fill="#293F5B"/>
<path d="M45.5586 39.7102C47.3381 42.4879 48.3708 45.7876 48.3708 49.3242V56.4726H59.2126C60.1995 56.4726 60.9997 55.6725 60.9997 54.6855V49.3242C60.9997 41.3416 52.5684 36.2132 45.5586 39.7102Z" fill="#293F5B"/>
<path d="M0 49.4609V54.6855C0 55.6724 0.800148 56.4726 1.78711 56.4726H12.6289V49.3242C12.6289 45.7834 13.6639 42.48 15.4473 39.7003C8.32078 36.1875 0 41.4541 0 49.4609Z" fill="#293F5B"/>
<path d="M30.5 35.0273C22.6041 35.0273 16.2031 41.4283 16.2031 49.3242V56.4727C16.2031 57.4596 17.0033 58.2598 17.9902 58.2598H43.0098C43.9967 58.2598 44.7969 57.4596 44.7969 56.4727V49.3242C44.7969 41.4283 38.3959 35.0273 30.5 35.0273Z" fill="#293F5B"/>
<path d="M27.5089 12.9395C28.2067 13.6374 29.3383 13.6376 30.0362 12.9395L37.1847 5.79107C37.8826 5.09314 37.8826 3.96167 37.1847 3.26374C36.4869 2.56581 35.3553 2.56581 34.6574 3.26374L28.7725 9.14845L26.3428 6.71882C25.645 6.02089 24.5134 6.02089 23.8154 6.71882C23.1175 7.41674 23.1175 8.54822 23.8154 9.24615L27.5089 12.9395Z" fill="#293F5B"/>
<path d="M30.5 35.0273C35.435 35.0273 39.4355 31.0268 39.4355 26.0918C39.4355 21.1568 35.435 17.1562 30.5 17.1562C25.565 17.1562 21.5645 21.1568 21.5645 26.0918C21.5645 31.0268 25.565 35.0273 30.5 35.0273Z" fill="#293F5B"/>
</svg>
