<svg width="48" height="49" fill="none" xmlns="http://www.w3.org/2000/svg"><path d="M43.248 9.863a.702.702 0 00-.996-.148.736.736 0 00-.145 1.017c2.925 4 4.47 8.762 4.47 13.768 0 6.156-2.348 11.944-6.613 16.297-4.264 4.353-9.933 6.75-15.964 6.75-6.03 0-11.7-2.397-15.964-6.75C3.77 36.444 1.423 30.657 1.423 24.5c0-6.156 2.348-11.944 6.613-16.297C12.3 3.85 17.969 1.453 24 1.453c5.912 0 11.502 2.316 15.74 6.524a.701.701 0 001.005-.015.737.737 0 00-.013-1.027C36.227 2.463 30.285 0 24 0 17.59 0 11.562 2.548 7.03 7.176 2.495 11.803 0 17.956 0 24.5c0 6.544 2.496 12.697 7.03 17.324C11.561 46.452 17.59 49 24 49c6.41 0 12.438-2.548 16.97-7.176C45.505 37.197 48 31.044 48 24.5c0-5.322-1.643-10.383-4.752-14.637z" fill="#000"/><path d="M23.968 11.32c-3.378 0-6.126 2.805-6.126 6.253s2.748 6.253 6.126 6.253 6.126-2.805 6.126-6.253-2.748-6.254-6.126-6.254zm0 11.054c-2.593 0-4.703-2.154-4.703-4.801 0-2.647 2.11-4.801 4.703-4.801 2.593 0 4.703 2.154 4.703 4.8 0 2.648-2.11 4.802-4.703 4.802zm5.234 2.857H18.244c-1.62 0-3.207.567-4.471 1.595a.737.737 0 00-.113 1.021.702.702 0 001 .115 5.621 5.621 0 013.584-1.278h10.958c3.174 0 5.756 2.636 5.756 5.876v3.564a.014.014 0 01-.014.014h-3.192v-3.445a.72.72 0 00-.711-.727.72.72 0 00-.712.727v3.445H17.277v-3.445a.72.72 0 00-.712-.727.719.719 0 00-.711.727v3.445h-3.352a.014.014 0 01-.014-.014V32.56c0-.995.248-1.978.717-2.842a.734.734 0 00-.277-.988.704.704 0 00-.968.284 7.457 7.457 0 00-.895 3.546v3.564c0 .809.645 1.467 1.437 1.467h22.442c.793 0 1.437-.658 1.437-1.467V32.56c0-4.041-3.22-7.329-7.179-7.329z" fill="#000"/></svg>