<svg width="50" height="44" fill="none" xmlns="http://www.w3.org/2000/svg"><path d="M50 10.338C50 5.06 45.706.766 40.428.766H16.343a.732.732 0 100 1.464h24.085c4.47 0 8.108 3.637 8.108 8.108 0 4.472-3.637 8.109-8.108 8.109h-7.87c-1.613-4.901-6.233-8.45-11.667-8.45-5.43 0-10.047 3.545-11.662 8.441-4.313-.18-7.765-3.744-7.765-8.1 0-4.47 3.637-8.108 8.108-8.108h3.09a.732.732 0 100-1.464h-3.09C4.294.766 0 5.06 0 10.338c0 5.035 3.907 9.174 8.848 9.545a12.291 12.291 0 00-.234 2.392c0 1.743.358 3.427 1.063 5.006a.732.732 0 101.337-.598 10.732 10.732 0 01-.937-4.408c0-.812.091-1.603.261-2.364h17.83a.732.732 0 000-1.464h-17.39c1.55-4.08 5.498-6.986 10.113-6.986 5.963 0 10.814 4.851 10.814 10.814s-4.85 10.814-10.814 10.814a10.82 10.82 0 01-8.142-3.697.732.732 0 10-1.101.963 12.282 12.282 0 009.243 4.198 12.21 12.21 0 006.833-2.082l2.076 2.076a1.417 1.417 0 00.093 1.898l5.719 5.718a3.63 3.63 0 002.584 1.07 3.63 3.63 0 002.584-1.07 3.63 3.63 0 001.07-2.584 3.63 3.63 0 00-1.07-2.584l-5.719-5.718a1.405 1.405 0 00-1-.414c-.331 0-.645.113-.898.32l-2.076-2.076a12.206 12.206 0 002.082-6.832c0-.809-.08-1.6-.23-2.365h7.489c5.278 0 9.572-4.293 9.572-9.572zM39.745 38.03c.413.414.641.964.641 1.55 0 .585-.228 1.135-.641 1.548a2.176 2.176 0 01-1.55.642 2.176 2.176 0 01-1.548-.642l-5.684-5.683 3.098-3.099 5.684 5.684zm-7.621-5.816l-1.294 1.293-1.932-1.932c.462-.398.895-.83 1.294-1.293l1.932 1.932z" fill="#000"/><path d="M5.247 11.156a.817.817 0 100-1.635.817.817 0 000 1.635zm3.056 0a.817.817 0 100-1.635.817.817 0 000 1.635zm3.055 0a.817.817 0 100-1.635.817.817 0 000 1.635zm34.8-.818c0-3.43-2.79-6.22-6.22-6.22-3.43 0-6.22 2.79-6.22 6.22 0 3.43 2.79 6.22 6.22 6.22 3.43 0 6.22-2.79 6.22-6.22zm-10.977 0a4.762 4.762 0 014.757-4.756 4.762 4.762 0 014.756 4.756 4.762 4.762 0 01-4.756 4.757 4.762 4.762 0 01-4.757-4.757z" fill="#000"/><path d="M42.192 8.642a.732.732 0 00-1.035 0l-1.953 1.953-.773-.774a.732.732 0 00-1.035 1.035l1.29 1.291a.73.73 0 001.036 0l2.47-2.47a.732.732 0 000-1.035z" fill="#000"/></svg>