<svg width="55" height="55" fill="none" xmlns="http://www.w3.org/2000/svg"><path d="M47.399 52.027a.743.743 0 01-.646-.372l-5.37-9.423a.743.743 0 01-.098-.372V9.99a4.329 4.329 0 014.324-4.325h3.58a4.329 4.329 0 014.325 4.324v31.875a.75.75 0 01-.098.372l-5.371 9.42a.744.744 0 01-.646.371zm-4.628-10.36l4.629 8.116 4.627-8.116V9.989a2.84 2.84 0 00-2.838-2.838h-3.58a2.84 2.84 0 00-2.838 2.838v31.678z" fill="#000"/><path d="M42.531 42.41l-1.008-1.092c.06-.055 5.943-5.372 11.753 0l-1.01 1.092c-4.791-4.43-9.535-.183-9.735 0zm-.503-28.409H52.77v1.487H42.028V14z" fill="#000"/><path d="M46.656 14.744h1.486v24.971h-1.486v-24.97zM22.783 39.906h-7.778a.743.743 0 01-.743-.743 11.581 11.581 0 00-3.965-8.628 12.965 12.965 0 1121.51-10.869 12.873 12.873 0 01-4.391 10.935 11.364 11.364 0 00-3.89 8.562.743.743 0 01-.743.743zm-7.056-1.486h6.334a12.852 12.852 0 014.378-8.939 11.477 11.477 0 10-15.156-.058 13.114 13.114 0 014.444 8.995v.002z" fill="#000"/><path d="M21.307 44.262h-4.826a1.3 1.3 0 01-1.299-1.298v-3.801a.743.743 0 01.743-.743h5.938a.743.743 0 01.744.743v3.8a1.3 1.3 0 01-1.3 1.3zm-4.639-1.486h4.451v-2.87h-4.45l-.001 2.87zM18.15 3.612h1.487V6.39h-1.486V3.612zm-7.955 2.53l1.288-.743 1.388 2.405-1.287.743-1.389-2.405zM4.571 12.31l.743-1.287 2.405 1.389-.743 1.287-2.405-1.388zM2.23 18.978h2.777v1.486H2.23v-1.486zm30.552 0h2.777v1.486h-2.777v-1.486zm-2.716-6.57l2.406-1.388.743 1.287-2.405 1.389-.744-1.288zm-5.148-4.602l1.389-2.405 1.287.743-1.389 2.406-1.287-.744z" fill="#000"/><path d="M18.15 25.276h1.487v13.888h-1.486V25.276z" fill="#000"/><path d="M18.894 26.02a3.243 3.243 0 110-6.486 3.243 3.243 0 010 6.486zm0-5a1.756 1.756 0 100 3.513 1.756 1.756 0 000-3.513zm28.505 31.007H21.72a3.72 3.72 0 01-3.716-3.716v-4.792h1.487v4.792a2.23 2.23 0 002.23 2.23h25.677v1.486z" fill="#000"/></svg>