<svg width="47" height="47" fill="none" xmlns="http://www.w3.org/2000/svg"><path d="M32.313.734H14.686a3.676 3.676 0 00-3.671 3.672v38.188a3.676 3.676 0 003.671 3.672h17.626a3.676 3.676 0 003.671-3.672V4.406A3.676 3.676 0 0032.312.734zm-3.834 1.47l-.44 2.202H18.96l-.44-2.203h9.958zm6.037 40.39a2.206 2.206 0 01-2.203 2.203H14.686a2.206 2.206 0 01-2.203-2.203V4.406a2.205 2.205 0 012.204-2.203h2.335l.616 3.082a.734.734 0 00.72.59H28.64a.734.734 0 00.72-.59l.616-3.082h2.335a2.206 2.206 0 012.204 2.203v38.188z" fill="#000"/><path d="M19.094 41.86h-4.407a.734.734 0 100 1.468h4.407a.734.734 0 100-1.469zm2.937 0h-.734a.734.734 0 100 1.468h.734a.734.734 0 100-1.469z" fill="#000"/></svg>