<svg width="1600" height="900" fill="none" xmlns="http://www.w3.org/2000/svg"><g filter="url(#filter0_f)"><path d="M1580.4 784.434c-88.1 167.2-329.14 296.196-469.02 222.486-139.889-73.711 2.84-199.855 90.94-367.055 88.1-167.199 33.18-583.634 173.06-509.925 139.89 73.709 293.12 487.295 205.02 654.494z" fill="#5F285C"/></g><g filter="url(#filter1_f)"><path d="M-76.165 323.502c-76.8-98.741-88.841-279.29-6.23-343.543C.217-84.296 37.355 36.192 114.155 134.933c76.8 98.742 342.924 179.215 260.313 243.469-82.612 64.255-373.833 43.842-450.633-54.9z" fill="#2239AB" fill-opacity=".6"/></g><g filter="url(#filter2_f)"><path d="M659.804 318.394c-54.794 103.989-285.863 141.452-456.679 51.445-170.817-90.007-46.282-149.617 8.512-253.607 54.794-103.989-108.03-430.785 62.787-340.778 170.816 90.007 440.174 438.95 385.38 542.94z" fill="#5F285C" fill-opacity=".5"/></g><path d="M1426.7 234.989s17.51-10.817 31.77 8.928c-.18.687-13.91-5.838-25.59 2.576-.86-.859-6.18-11.504-6.18-11.504zm-15.28 10.989s-15.8 13.049-1.55 32.966c.69.172-1.2-15.109 10.65-23.523-.69-1.03-9.1-9.443-9.1-9.443zm-97.53 70.054s-15.79 13.049-1.54 32.967c.69.171-1.2-15.11 10.64-23.523-.68-1.031-9.1-9.444-9.1-9.444zm15.11-10.817s17.52-10.817 31.77 8.928c-.18.687-13.91-5.838-25.59 2.576-.86-1.03-6.18-11.504-6.18-11.504z" fill="#272B30"/><path d="M1328.83 310.022l-5.49 3.091s.69.859 1.72 2.404l-.35-.172a58.117 58.117 0 00-1.54-2.06l-4.81 4.121s2.57 13.392 25.75 25.068c-3.43-25.583-15.28-32.452-15.28-32.452zm15.11 31.937l.17.172c-.17 0-.17-.172-.17-.172zm82.42-101.991l-5.5 3.091s.69.858 1.72 2.404l-.34-.172a50.894 50.894 0 00-1.55-2.06l-4.81 4.12s2.58 13.393 25.76 25.069c-3.26-25.584-15.28-32.452-15.28-32.452zm15.11 31.937l.17.171s0-.171-.17-.171z" fill="#ECB534"/><path d="M1386.87 254.048l16.82-40.694 5.15 7.212-17.68 39.663-4.29-6.181z" fill="#272B30"/><path d="M1406.94 207.245l-15.62 11.216 27.44 38.215 15.62-11.215-27.44-38.216z" fill="#FBFBFB"/><path d="M1406.78 206.83c-3.09-4.292-9.1-5.322-13.39-2.232-4.29 3.091-5.32 9.1-2.23 13.393l15.62-11.161z" fill="#A24644"/><path d="M1344.63 284.267l-43.96 3.091 5.15 7.211 43.27-4.121-4.46-6.181z" fill="#272B30"/><path d="M1309.36 277.2l-15.62 11.217 27.44 38.216 15.62-11.217-27.44-38.216z" fill="#FBFBFB"/><path d="M1293.46 288.216c-3.09-4.292-2.06-10.302 2.23-13.392 4.3-3.091 10.3-2.061 13.4 2.232l-15.63 11.16zm-37.08-171.186c1.37 1.889 24.89 34.684 24.89 34.684l-24.89-34.684z" fill="#A24644"/><path d="M1282.64 150.684l-2.57 1.888-25.07-34.683 2.58-1.889 25.06 34.684z" fill="#272B30"/><path d="M1389.62 280.833l-10.99 6.353s1.2 1.717 3.26 4.636l-.69-.343c-1.89-2.576-2.92-4.121-2.92-4.121l-9.44 8.413s5.32 26.957 51.51 49.965c-7.04-51.167-30.73-64.903-30.73-64.903zm30.22 63.873l.34.344c-.17 0-.17-.172-.34-.344z" fill="#ECB534"/><path d="M1356.65 290.105c.51.687 6.86 9.615 6.86 9.615l31.6-22.664s-8.59-11.161-7.9-10.989c.69-.172-30.56 24.038-30.56 24.038z" fill="#ECB534"/><path d="M1337.42 179.53c-15.63-21.291-38.63-34.169-63.02-37.603-4.63 24.21.35 50.137 15.46 71.771l47.56-34.168z" fill="#C0443A"/><path d="M1314.92 198.589l-23.86 16.998 59.41 82.76 23.86-17.17 23.7-16.999-59.24-82.76-23.87 17.171z" fill="#FBFBFB"/><path d="M1361.97 283.924c8.07 11.16 18.89 19.059 31.08 23.523-.35-12.878-4.29-25.755-12.36-36.916-8.07-11.16-18.89-19.059-31.08-23.523.34 12.878 4.46 25.755 12.36 36.916z" fill="#272B30"/><path d="M1340.68 214.041c3.78 5.323 2.57 12.706-2.75 16.484-5.32 3.777-12.7 2.575-16.48-2.748-3.78-5.322-2.58-12.706 2.75-16.483 5.32-3.777 12.7-2.576 16.48 2.747z" fill="#8AC2CB"/><path d="M1342.74 237.221c-8.93 6.525-21.64 4.464-27.99-4.636-6.52-8.928-4.46-21.634 4.64-27.987 8.93-6.525 21.63-4.464 27.99 4.636 6.35 9.1 4.29 21.634-4.64 27.987zm-20.6-28.674c-6.87 4.979-8.42 14.595-3.44 21.463s14.6 8.413 21.46 3.434c6.87-4.98 8.42-14.595 3.44-21.463s-14.6-8.413-21.46-3.434z" fill="#A24644"/><path opacity=".4" d="M1289.68 213.698l23.87-17.17-39.32-54.601c-4.46 24.21.34 50.137 15.45 71.771zm25.27-15.125l-23.85 17.123 59.38 82.707 23.85-17.123-59.38-82.707zm-13.48 84.204l-7.81 5.609 27.45 38.216 7.81-5.609-27.45-38.216zm-5.78-8.125c-4.29 3.09-5.32 9.1-2.23 13.393l7.9-5.667-5.67-7.726zm111.25-67.553l-7.81 5.609 27.44 38.215 7.81-5.608-27.44-38.216zm-13.55-2.501c4.29-3.09 10.3-2.06 13.39 2.232l-7.89 5.666-5.5-7.898z" fill="#272B30"/><path d="M266.78 735.22c42.648-18.657 62.096-68.353 43.44-111-18.657-42.648-68.353-62.096-111-43.44-42.648 18.657-62.096 68.353-43.44 111 18.657 42.648 68.353 62.096 111 43.44z" fill="#9C9C9F"/><path d="M253.315 592.625c0 1.827-9.365 2.512-20.557 2.055-11.192-.685-20.328-2.512-20.1-4.339 0-1.828 9.365-2.513 20.557-2.056 11.192.685 20.328 2.512 20.1 4.34zm-71.949 59.157c0 8.68-5.025 15.76-11.192 15.76s-11.192-7.08-11.192-15.76c0-8.679 5.025-15.76 11.192-15.76s11.192 7.081 11.192 15.76zm117.63-24.44c0 7.995-19.414 14.39-43.169 14.39-23.754 0-43.169-6.395-43.169-14.39 0-7.994 19.415-14.389 43.169-14.389 23.755 0 43.169 6.395 43.169 14.389zm-37.685 44.083c0 3.883-6.396 7.081-14.161 7.081-7.766 0-14.162-3.198-14.162-7.081 0-3.883 6.396-7.081 14.162-7.081 7.765 0 14.161 3.198 14.161 7.081zm43.169-9.593c0 6.395-1.142 11.649-2.741 11.649-1.599 0-2.741-5.254-2.741-11.649 0-6.396 1.142-11.649 2.741-11.649 1.37 0 2.741 5.253 2.741 11.649zm-107.809-54.361c0 5.025-1.37 9.136-2.969 9.136-1.599 0-2.97-4.111-2.97-9.136 0-5.025 1.371-9.136 2.97-9.136 1.827 0 2.969 4.111 2.969 9.136zm77.658-3.197c-5.025.456-9.136-.457-9.365-2.056-.228-1.599 3.883-3.198 8.908-3.655 5.025-.456 9.136.457 9.365 2.056 0 1.599-3.883 3.198-8.908 3.655zm-32.431 98.672c0 2.512-9.365 4.568-21.242 4.568s-21.242-2.056-21.242-4.568c0-2.513 9.365-4.569 21.242-4.569s21.242 2.056 21.242 4.569zm20.552 19.186c8.452 0 15.303-.818 15.303-1.827s-6.851-1.827-15.303-1.827c-8.452 0-15.304.818-15.304 1.827s6.852 1.827 15.304 1.827z" fill="#545454"/><path d="M472 169c17.673 0 32-14.327 32-32 0-17.673-14.327-32-32-32-17.673 0-32 14.327-32 32 0 17.673 14.327 32 32 32z" fill="#D94D7E"/><path d="M446.201 118.2c-1.1 1.5-2.1 3.1-2.9 4.8 17.4-2.8 34.9-5.5 52.5-7.4-2-2.3-4.4-4.2-7-5.8-1.9.6-3.8 1.2-5.7 1.7-9.4 2.7-19 4.5-28.7 5.8-2.7.4-5.5.7-8.2.9zm-2.401 34c9.4-2.4 18.6-5.8 27.2-10.2 4.7-2.4 9.3-5.2 14.3-7.2 5.8-2.3 11.8-3.4 18-4.1-.5-2.4-1.2-4.6-2.2-6.8-20.3 5.4-40.2 13.8-60.5 19.5.7 3.1 1.8 6.1 3.2 8.8zm55.801 1.1c1.8-3.1 3.1-6.5 3.8-10.1-6.4 1.7-12.6 4.4-18.4 7.6-8.5 4.7-15.6 10.8-23.2 16.6 3 1 6.2 1.6 9.5 1.7 3.9-3.8 8-7.4 12.7-10.1 4.9-2.9 10.1-4.5 15.6-5.7z" fill="#993965"/><g opacity=".4"><path opacity=".4" d="M1377.38 705.949c9.28-16.771 3.2-37.884-13.57-47.158-16.77-9.273-37.88-3.196-47.16 13.575-9.27 16.771-3.19 37.884 13.58 47.157 16.77 9.274 37.88 3.196 47.15-13.574z" fill="#E37067"/><path opacity=".4" d="M1421.52 713.817c.66-1.992-30.89-14.241-70.46-27.359-39.58-13.118-72.2-22.138-72.86-20.146-.66 1.993 30.89 14.242 70.46 27.36 39.58 13.118 72.2 22.137 72.86 20.145zM1368.6 666.5c-.2.7-4.8-.2-10.2-2-5.4-1.8-9.6-3.8-9.3-4.5.2-.7 4.8.2 10.2 2 5.3 1.9 9.5 3.9 9.3 4.5zm-13.01 11.7c-.5 1.5-5.3 1.2-10.6-.6-5.4-1.8-9.3-4.4-8.9-5.9.5-1.5 5.3-1.2 10.6.6 5.4 1.7 9.4 4.4 8.9 5.9zm10.71 27.8c-.2.7-4.8-.1-10.2-1.9-5.4-1.8-9.5-3.8-9.3-4.6.2-.7 4.8.1 10.2 1.9 5.4 1.8 9.6 3.9 9.3 4.6zm-21.91 6.1c-.6 1.8-5.5 1.8-10.8.1-5.4-1.8-9.3-4.7-8.7-6.5.6-1.8 5.5-1.8 10.8-.1 5.4 1.8 9.3 4.7 8.7 6.5z" fill="#fff"/></g><g opacity=".3"><path d="M347.144 152.88l1.037-18.611 4.147 18.611 25.574 1.14-24.537 2.089-1.728 17.852-5.184-17.662-23.846-.95 24.537-2.469zm324.859 20.321l.346-10.445 2.419 10.445 14.169.57-13.478 1.139-1.036 10.065-2.765-9.875-13.133-.57 13.478-1.329zM217.205 367.292l.691-13.673 3.456 13.863 18.662.76-18.316 1.519-1.037 13.104-3.801-12.914-17.626-.759 17.971-1.9zM1389.79 53.366l.69-13.674 3.46 13.864 18.66.76-18.31 1.518-1.04 13.105-3.8-12.914-17.63-.76 17.97-1.9zm-274.75 206.625l.7-13.673 3.45 13.863 18.66.76-18.31 1.519-1.04 13.104-3.8-12.914-17.63-.759 17.97-1.9zM769.109 13.674L770.146 0l3.111 13.864 18.662.76-17.971 1.519-1.383 13.104-3.801-12.914-17.28-.76 17.625-1.9zM536.182 743.891l.691-13.674 3.456 13.674 18.662.76-18.317 1.519-1.036 13.104-3.802-12.914-17.625-.76 17.971-1.709zm933.798-561.574l.34-11.205 2.77 11.395 15.55.57-14.86 1.329-1.04 10.825-3.11-10.635-14.51-.759 14.86-1.52zm-103 234.163l.69-8.546 2.08 8.546 11.4.57-11.06.95-1.03 8.166-2.08-8.166-11.06-.38 11.06-1.14zM27.473 576.578l.346-8.547 2.073 8.737 11.405.379-11.06.95-.69 8.166-2.42-7.976-11.059-.57 11.405-1.139zm1190.217-29.817l.35-8.546 2.07 8.546 11.75.569-11.4.95-.69 8.166-2.42-8.166-11.06-.38 11.4-1.139zM1013.8 733.256l.34-8.546 2.07 8.546 11.75.57-11.4.949-.69 8.167-2.42-8.167-11.06-.379 11.41-1.14zm-835.304-23.739l.692-12.725 2.764 12.915 17.28.759-16.588 1.33-1.383 12.154-3.456-11.964-16.243-.76 16.934-1.709z" fill="#ECB534"/><path d="M107.652 38.742l-2.419 1.33c-2.074 1.139-2.074 2.848 0 3.988 2.073 1.14 5.184 1.14 7.257 0l2.419-1.33c2.074-1.14 2.074-2.848 0-3.988-1.728-1.14-5.183-1.14-7.257 0zM393.8 4.748c1.728 0 1.728-1.52 0-1.52-1.382 0-1.382 1.52 0 1.52zm909.6 58.493c1.73 0 1.73-1.52 0-1.52s-1.73 1.52 0 1.52zm43.2 112.239v1.329c0 .95 2.76.95 2.76 0v-1.329c0-.95-2.76-.95-2.76 0zm-45.62 124.583c1.72 0 1.72-1.519 0-1.519-1.73.19-1.73 1.519 0 1.519zm-90.9 133.509c-1.72-.379-3.45-.949-4.83-1.329-1.39-.38-2.77.76-1.39 1.139 1.73.38 3.46.95 4.84 1.33 1.38.38 2.77-.76 1.38-1.14zm-92.61-43.489c1.72 0 1.72-1.52 0-1.52-1.73 0-1.73 1.52 0 1.52zm-681.502-31.336c1.728 0 1.728-1.52 0-1.52s-1.728 1.52 0 1.52zM284.938 548.66c3.456 0 3.456-2.849 0-2.849s-3.456 2.849 0 2.849zm768.252 30.006c3.45 0 3.45-2.848 0-2.848-3.46 0-3.46 2.848 0 2.848zM525.13 788.331c3.456 0 3.456-2.849 0-2.849-3.111 0-3.111 2.849 0 2.849zm389.136-80.334c3.456 0 3.456-2.848 0-2.848s-3.456 2.848 0 2.848zm557.434 73.497c3.45 0 3.45-2.848 0-2.848-3.11 0-3.11 2.848 0 2.848zM1452 618.168c3.46 0 3.46-2.848 0-2.848s-3.46 2.848 0 2.848zm-180.75 95.337c3.46 0 3.46-2.849 0-2.849-3.45 0-3.45 2.849 0 2.849zm-62.2 64c3.46 0 3.46-2.848 0-2.848-3.11 0-3.11 2.848 0 2.848zM166.059 807.322c3.456 0 3.456-2.848 0-2.848s-3.456 2.848 0 2.848zm19.695-241v1.329c0 1.9 5.184 1.9 5.184 0v-1.329c0-1.899-5.184-1.899-5.184 0zM81.73 403.946c-.69-1.33-1.728-2.659-2.419-4.178-1.037-1.71-6.22-.95-4.838.759.691 1.33 1.728 2.659 2.42 4.178 1.036 1.71 5.874.95 4.837-.759zM54.432 193.332c3.456 0 3.456-2.849 0-2.849s-3.456 2.849 0 2.849zm156.203 74.826c3.456 0 3.456-2.849 0-2.849s-3.456 2.849 0 2.849zm123.722 11.585c1.727 0 1.727-1.52 0-1.52-1.728 0-1.728 1.52 0 1.52zm44.582 190.672c1.728 0 1.728-1.519 0-1.519-1.382 0-1.382 1.519 0 1.519zm867.441-240.999c1.72 0 1.72-1.52 0-1.52-1.73 0-1.73 1.52 0 1.52zm317.25 84.321c1.72 0 1.72-1.519 0-1.519-1.73.19-1.73 1.519 0 1.519zm-59.45 122.494c1.73 0 1.73-1.519 0-1.519-1.72.19-1.72 1.519 0 1.519zM1045.59 28.677c6.56 0 6.56-5.697 0-5.697-6.57 0-6.57 5.697 0 5.697zm537.73 106.162c6.57 0 6.57-5.698 0-5.698-6.56 0-6.56 5.698 0 5.698zM1432.3 307.66c6.57 0 6.57-5.698 0-5.698-6.91 0-6.91 5.698 0 5.698zm-178.67 76.345c6.56 0 6.56-5.697 0-5.697-6.57 0-6.57 5.697 0 5.697zM1499 57.164c6.57 0 6.57-5.697 0-5.697s-6.57 5.697 0 5.697zm-87.78 455.412l-2.42 1.33c-2.08 1.139-2.08 2.848 0 3.988 2.07 1.139 5.18 1.139 7.25 0 .7-.38 1.73-.95 2.42-1.33 2.08-1.139 2.08-2.848 0-3.988-2.07-1.139-5.18-1.139-7.25 0zM702.412 731.737l2.419-1.33c2.074-1.139 2.074-2.848 0-3.988-2.073-1.139-5.184-1.139-7.257 0l-2.419 1.329c-2.074 1.14-2.074 2.849 0 3.989 1.728 1.139 5.184 1.139 7.257 0zm-293.751-64.571c6.566 0 6.566-5.697 0-5.697s-6.566 5.697 0 5.697zM2.592 675.333c3.456 0 3.456-2.849 0-2.849s-3.456 2.849 0 2.849zm289.606 70.837c3.456 0 3.456-2.849 0-2.849-3.11 0-3.11 2.849 0 2.849zm872.622-275.185v-1.329c0-1.899-5.19-1.899-5.19 0v1.329c0 1.9 5.19 1.9 5.19 0zm54.25-321.333c3.46 0 3.46-2.849 0-2.849-3.45 0-3.45 2.849 0 2.849zM661.633 27.157c3.456 0 3.456-2.848 0-2.848s-3.456 2.848 0 2.848zM886.96 44.82c3.456 0 3.456-2.849 0-2.849-3.111 0-3.111 2.85 0 2.85zM315.352 71.028l-2.419 1.33c-2.419 1.329 1.382 3.228 3.801 2.088l2.42-1.33c2.073-1.329-1.383-3.418-3.802-2.088zM223.08 185.166c3.456 0 3.456-2.849 0-2.849s-3.456 2.849 0 2.849zM62.03 266.828c3.455 0 3.455-2.848 0-2.848-3.456 0-3.456 2.848 0 2.848zm98.843-154.589c1.728 0 1.728-1.519 0-1.519-1.383.19-1.383 1.519 0 1.519zM520.29 34.564c1.728 0 1.728-1.52 0-1.52-1.728.19-1.728 1.52 0 1.52zm18.313 73.497c1.728 0 1.728-1.519 0-1.519s-1.728 1.519 0 1.519zM1166.89 21.08c1.72 0 1.72-1.52 0-1.52-1.39 0-1.39 1.52 0 1.52zm-49.42 140.726c1.72 0 1.72-1.519 0-1.519-1.73 0-1.73 1.519 0 1.519zm49.42 489.597c1.72 0 1.72-1.519 0-1.519-1.39.189-1.39 1.519 0 1.519zm143.76-89.829c1.73 0 1.73-1.519 0-1.519-1.72.19-1.72 1.519 0 1.519zm257.81-33.994c1.73 0 1.73-1.52 0-1.52s-1.73 1.52 0 1.52zm-106.43-68.179c1.72 0 1.72-1.519 0-1.519-1.73.19-1.73 1.519 0 1.519zm-195.96 187.255c3.46 0 3.46-2.849 0-2.849-3.11 0-3.11 2.849 0 2.849zm146.18 61.341c3.46 0 3.46-2.848 0-2.848-3.11 0-3.11 2.848 0 2.848zm-354.22 95.337c3.46 0 3.46-2.849 0-2.849s-3.46 2.849 0 2.849zm-260.235-21.84c3.456 0 3.456-2.848 0-2.848s-3.456 2.848 0 2.848zm557.785 12.154v-.76c0-3.608-10.37-3.608-10.37 0v.76c0 3.798 10.37 3.798 10.37 0v-.76c0-3.608-10.37-3.608-10.37 0v.76c0 3.798 10.37 3.798 10.37 0zm200.44-14.813c6.57 0 6.57-5.697 0-5.697-6.56 0-6.56 5.697 0 5.697zm-180.74-535.366h-2.42c-2.76 0-5.18 1.33-5.18 2.849 0 1.519 2.42 2.849 5.18 2.849h2.42c2.77 0 5.18-1.33 5.18-2.849-.34-1.519-2.41-2.849-5.18-2.849zm141-56.974c6.56 0 6.56-5.697 0-5.697-6.57 0-6.57 5.697 0 5.697zM1390.14 21.84c6.57 0 6.57-5.697 0-5.697-6.91 0-6.91 5.697 0 5.697zm-344.55 143.385c6.56 0 6.56-5.698 0-5.698-6.57 0-6.57 5.698 0 5.698zm-577.486 59.443c6.567 0 6.567-5.698 0-5.698-6.566 0-6.566 5.698 0 5.698zm95.037-43.87c6.567 0 6.567-5.698 0-5.698-6.566 0-6.566 5.698 0 5.698zm584.049-77.295c6.56 0 6.56-5.698 0-5.698-6.57 0-6.57 5.698 0 5.698zM473.286 551.319v-1.329c0-1.52-2.419-2.849-5.184-2.849s-5.184 1.329-5.184 2.849v1.329c0 1.519 2.419 2.849 5.184 2.849 3.11 0 5.184-1.14 5.184-2.849zm-364.25-21.65c6.566 0 6.566-5.698 0-5.698-6.567 0-6.912 5.698 0 5.698zm46.996-300.823c6.566 0 6.566-5.698 0-5.698s-6.566 5.698 0 5.698zm192.494 185.735v-1.329c0-1.52-2.419-2.849-5.184-2.849s-5.184 1.329-5.184 2.849v1.329c0 1.519 2.419 2.849 5.184 2.849 2.765-.19 5.184-1.33 5.184-2.849z" fill="#fff"/><path d="M1408.8 858.029l.69-12.724 3.11 12.724 17.28.76-16.93 1.329-1.04 12.155-3.45-11.965-16.25-.57 16.59-1.709z" fill="#ECB534"/><path d="M317.08 875.501c3.456 0 3.456-2.849 0-2.849s-3.456 2.849 0 2.849zm904.41 21.84c3.46 0 3.46-2.849 0-2.849-3.11 0-3.46 2.849 0 2.849zm-1171.898-.19v-1.329c0-1.519-2.419-2.849-5.184-2.849-2.764 0-5.183 1.33-5.183 2.849v1.329c0 1.52 2.419 2.849 5.183 2.849 3.11 0 5.184-1.14 5.184-2.849zm1251.378-70.648c3.46 0 3.46-2.848 0-2.848-3.45 0-3.45 2.848 0 2.848zM952.963 85.651c1.728 0 1.728-1.52 0-1.52-1.383.19-1.383 1.52 0 1.52zM638.138 267.398c1.728 0 1.728-1.519 0-1.519-1.728.19-1.728 1.519 0 1.519zm13.474-127.812c1.728 0 1.728-1.519 0-1.519s-1.728 1.519 0 1.519zM577.31 241.38c1.728 0 1.728-1.519 0-1.519s-1.728 1.519 0 1.519zm972.14 277.274c6.57 0 6.57-5.698 0-5.698-6.91 0-6.91 5.698 0 5.698zm45.63 150.601c6.56 0 6.56-5.697 0-5.697-6.57 0-6.57 5.697 0 5.697zM439.767 823.275c-3.456-.95-6.911-1.899-10.022-2.849-2.419-.759-5.529-.38-7.257.95-1.383 1.329-.691 3.228 1.728 3.988 3.456.95 6.912 1.899 10.022 2.849 2.419.759 5.529.38 7.257-.95 1.383-1.329.691-3.228-1.728-3.988zM315.696 630.133c6.566 0 6.566-5.698 0-5.698-6.567 0-6.912 5.698 0 5.698z" fill="#fff"/></g><defs><filter id="filter0_f" x="609" y="-195" width="1496.77" height="1647" filterUnits="userSpaceOnUse" color-interpolation-filters="sRGB"><feFlood flood-opacity="0" result="BackgroundImageFix"/><feBlend in="SourceGraphic" in2="BackgroundImageFix" result="shape"/><feGaussianBlur stdDeviation="150" result="effect1_foregroundBlur"/></filter><filter id="filter1_f" x="-545" y="-413" width="1247.42" height="1289.09" filterUnits="userSpaceOnUse" color-interpolation-filters="sRGB"><feFlood flood-opacity="0" result="BackgroundImageFix"/><feBlend in="SourceGraphic" in2="BackgroundImageFix" result="shape"/><feGaussianBlur stdDeviation="150" result="effect1_foregroundBlur"/></filter><filter id="filter2_f" x="-344" y="-555" width="1443.97" height="1402" filterUnits="userSpaceOnUse" color-interpolation-filters="sRGB"><feFlood flood-opacity="0" result="BackgroundImageFix"/><feBlend in="SourceGraphic" in2="BackgroundImageFix" result="shape"/><feGaussianBlur stdDeviation="150" result="effect1_foregroundBlur"/></filter></defs></svg>