<svg width="68" height="69" fill="none" xmlns="http://www.w3.org/2000/svg"><path d="M44.314 4.373H27.68A5.13 5.13 0 0022.655.248a5.13 5.13 0 00-5.024 4.125H.996A.996.996 0 000 5.37v61.883c0 .55.446.996.996.996h43.318c.55 0 .996-.446.996-.996v-47.46a.996.996 0 10-1.992 0v46.464H1.992V6.366h8.322a9.28 9.28 0 00.138 2.134h-5.33a.996.996 0 00-.997.996v39.019a.996.996 0 101.992 0V10.492h5.278a5.24 5.24 0 004.165 2.062h14.19a5.24 5.24 0 004.166-2.062h5.276v51.64H6.117v-9.275a.996.996 0 10-1.992 0v10.27c0 .55.446.996.996.996h35.067c.55 0 .996-.446.996-.996V9.496a.996.996 0 00-.996-.996h-5.33a9.28 9.28 0 00.138-2.135h8.322v9.086a.996.996 0 101.992 0V5.37a.996.996 0 00-.996-.996zM29.75 10.562H15.56c-2.308 0-3.332-2.279-3.254-4.196h6.224c.538 0 .998-.492.996-1.003a3.133 3.133 0 013.13-3.123 3.133 3.133 0 013.129 3.128c0 .484.376.998.996.998h6.223c.078 1.917-.946 4.196-3.254 4.196z" fill="#003A66"/><path d="M31.937 18.742a.996.996 0 100-1.992H13.373a.996.996 0 100 1.992h18.564zM8.251 25.997c0 .55.446.996.996.996h26.816a.996.996 0 100-1.992H9.247a.996.996 0 00-.996.996zm.996 5.122h26.816a.996.996 0 100-1.992H9.247a.996.996 0 100 1.992zm0 4.125h26.816a.996.996 0 100-1.992H9.247a.996.996 0 100 1.992zm0 4.126h26.816a.996.996 0 100-1.992H9.247a.996.996 0 100 1.992zm0 4.125h26.816a.996.996 0 100-1.992H9.247a.996.996 0 100 1.992zm26.816 6.259H25.749a.996.996 0 100 1.992h10.314a.996.996 0 100-1.992zm-23.622.932a5.063 5.063 0 005.057 5.057 5.063 5.063 0 005.057-5.057 5.063 5.063 0 00-5.057-5.057 5.063 5.063 0 00-5.057 5.057zm8.122 0a3.068 3.068 0 01-3.065 3.065 3.069 3.069 0 01-3.065-3.065 3.069 3.069 0 013.065-3.065 3.068 3.068 0 013.065 3.065zM67.892 62.74l-2.063-4.061a.996.996 0 00-.888-.545h-3.053l.792-7.677c3.45-2.864 2.497-8.537-1.336-10.318a.996.996 0 00-.84 1.807c2.599 1.208 3.238 5.053.89 6.988h-5.282c-2.35-1.934-1.708-5.78.89-6.988a.996.996 0 10-.84-1.806c-3.832 1.78-4.787 7.454-1.335 10.317l.79 7.677h-3.052a.996.996 0 00-.889.545l-2.062 4.06a.996.996 0 00-.108.452v4.061c0 .55.446.996.996.996h16.502c.55 0 .996-.446.996-.996v-4.061a.996.996 0 00-.108-.451zM56.878 50.926h3.75l-.742 7.207H57.62l-.742-7.207zm-3.702 9.2H64.33l1.083 2.133h-13.32l1.083-2.133zm-1.678 6.13v-2.005h14.51v2.005h-14.51z" fill="#003A66"/></svg>