<svg width="70" height="71" fill="none" xmlns="http://www.w3.org/2000/svg"><path d="M67.334 64.124V30.68a1.025 1.025 0 10-2.05 0v33.416h-2.052V23.49h2.051v2.889a1.025 1.025 0 102.051 0v-8.016c0-.566-.459-1.025-1.025-1.025h-6.767v-2.5a2.395 2.395 0 001.974-2.353v-1.368c0-.975-.588-1.815-1.427-2.187V3.735A3.49 3.49 0 0056.603.248H50.04a3.49 3.49 0 00-3.486 3.487V8.87a2.394 2.394 0 00-1.581 2.247v1.368c0 1.23.933 2.245 2.128 2.377v2.476h-5.804v-2.5a2.395 2.395 0 001.975-2.353v-1.368c0-.975-.588-1.815-1.427-2.187V3.735A3.49 3.49 0 0038.358.248h-6.562a3.49 3.49 0 00-3.486 3.487V8.87a2.394 2.394 0 00-1.581 2.247v1.368c0 1.23.932 2.244 2.127 2.377v2.476h-5.803v-2.5a2.395 2.395 0 001.974-2.353v-1.368c0-.975-.587-1.815-1.427-2.187V3.735A3.49 3.49 0 0020.114.248h-6.562a3.49 3.49 0 00-3.487 3.487V8.87a2.394 2.394 0 00-1.58 2.247v1.368c0 1.23.932 2.244 2.127 2.377v2.476h-6.92c-.567 0-1.026.46-1.026 1.025v38.692a1.025 1.025 0 002.05 0V23.49h2.052v40.606H4.717v-2.59a1.025 1.025 0 00-2.051 0v2.618A3.083 3.083 0 000 67.174v1.639c0 .791.644 1.435 1.436 1.435h51.097a1.025 1.025 0 100-2.05H2.05v-1.023a1.03 1.03 0 011.028-1.028H66.92a1.03 1.03 0 011.028 1.028v1.023h-11.04a1.025 1.025 0 100 2.05h11.656c.792 0 1.436-.644 1.436-1.435v-1.638a3.083 3.083 0 00-2.666-3.05zm-18.73-60.39c0-.791.644-1.435 1.436-1.435h6.563c.791 0 1.435.644 1.435 1.436v4.99h-9.433v-4.99zm-1.58 7.383c0-.188.153-.341.341-.341h11.758c.189 0 .342.153.342.341v1.368a.342.342 0 01-.342.341H47.365a.342.342 0 01-.342-.341v-1.368zm2.128 3.76h8.34v2.461h-8.34v-2.46zM30.36 3.735c0-.792.644-1.436 1.436-1.436h6.562c.792 0 1.436.644 1.436 1.436v4.99H30.36v-4.99zm-1.58 7.382c0-.188.153-.341.341-.341H40.88c.188 0 .342.153.342.341v1.368a.342.342 0 01-.342.341H29.12a.342.342 0 01-.342-.341v-1.368zm2.127 3.76h8.34v2.461h-8.34v-2.46zM12.117 3.735c0-.792.643-1.436 1.435-1.436h6.562c.792 0 1.436.644 1.436 1.436v4.99h-9.434v-4.99zm-1.582 7.382c0-.188.153-.341.342-.341h11.758c.188 0 .341.153.341.341v1.368a.342.342 0 01-.341.341H10.877a.342.342 0 01-.342-.341v-1.368zm2.128 3.76h8.34v2.461h-8.34v-2.46zM4.717 21.44v-2.051h60.566v2.05H4.717zm44.435 10.266h8.34v18.24a4.175 4.175 0 01-4.17 4.17c-2.3 0-4.17-1.871-4.17-4.17v-18.24zm8.34-2.05h-8.34V23.49h8.34v6.164zm-26.585 2.05h8.34v18.24a4.175 4.175 0 01-4.17 4.17c-2.3 0-4.17-1.871-4.17-4.17v-18.24zm8.34-2.05h-8.34V23.49h8.34v6.164zm-26.584 2.05h8.34v18.24c0 2.299-1.87 4.17-4.17 4.17s-4.17-1.871-4.17-4.17v-18.24zm8.34-2.05h-8.34V23.49h8.34v6.164zM8.818 23.49h1.794v26.455c0 3.43 2.79 6.22 6.22 6.22 3.43 0 6.221-2.79 6.221-6.22V23.49h5.803v26.455c0 3.43 2.79 6.22 6.22 6.22 3.43 0 6.221-2.79 6.221-6.22V23.49h5.804v26.455c0 3.43 2.79 6.22 6.22 6.22 3.43 0 6.221-2.79 6.221-6.22V23.49h1.64v40.605H8.818V23.49z" fill="#003A66"/></svg>