<svg width="74" height="75" fill="none" xmlns="http://www.w3.org/2000/svg"><path d="M17.35 14.573c0-1.213-.987-2.2-2.2-2.2h-4.666c-1.213 0-2.2.987-2.2 2.2v4.666c0 1.213.987 2.2 2.2 2.2h4.666c1.213 0 2.2-.987 2.2-2.2v-4.666zm-2.168 4.666a.032.032 0 01-.033.032h-4.665a.033.033 0 01-.033-.032v-4.666c0-.018.015-.032.033-.032h4.666c.017 0 .032.014.032.032v4.666zm13.768-4.666c0-1.213-.987-2.2-2.2-2.2h-4.666c-1.213 0-2.2.987-2.2 2.2v4.666c0 1.213.987 2.2 2.2 2.2h4.666c1.213 0 2.2-.987 2.2-2.2v-4.666zm-2.168 4.666a.032.032 0 01-.032.032h-4.666a.033.033 0 01-.033-.032v-4.666c0-.018.015-.032.033-.032h4.666c.017 0 .032.014.032.032v4.666zm-9.432 7.323c0-1.213-.987-2.2-2.2-2.2h-4.666c-1.213 0-2.2.987-2.2 2.2v4.665c0 1.214.987 2.2 2.2 2.2h4.666c1.213 0 2.2-.986 2.2-2.2v-4.665zm-2.168 4.665a.032.032 0 01-.033.033h-4.665a.033.033 0 01-.033-.033v-4.665c0-.018.015-.033.033-.033h4.666c.017 0 .032.015.032.033v4.665zm13.768-4.665c0-1.213-.987-2.2-2.2-2.2h-4.666c-1.213 0-2.2.987-2.2 2.2v4.665c0 1.214.987 2.2 2.2 2.2h4.666c1.213 0 2.2-.986 2.2-2.2v-4.665zm-2.168 4.665a.032.032 0 01-.032.033h-4.666a.033.033 0 01-.033-.033v-4.665c0-.018.015-.033.033-.033h4.666c.017 0 .032.015.032.033v4.665zM15.15 36.35h-4.666c-1.213 0-2.2.987-2.2 2.2v4.666c0 1.213.987 2.2 2.2 2.2h4.666c1.213 0 2.2-.987 2.2-2.2V38.55c0-1.213-.987-2.2-2.2-2.2zm.032 6.866a.032.032 0 01-.033.032h-4.665a.033.033 0 01-.033-.032V38.55c0-.018.015-.032.033-.032h4.666c.017 0 .032.014.032.032v4.666zM26.75 36.35h-4.666c-1.213 0-2.2.987-2.2 2.2v4.666c0 1.213.987 2.2 2.2 2.2h4.666c1.213 0 2.2-.987 2.2-2.2V38.55c0-1.213-.987-2.2-2.2-2.2zm.032 6.866a.032.032 0 01-.032.032h-4.666a.033.033 0 01-.033-.032V38.55c0-.018.015-.032.033-.032h4.666c.017 0 .032.014.032.032v4.666z" fill="#003A66"/><path d="M70.55 67.356h-1.608v-9.16c0-3.648-2.445-6.914-5.946-7.942l-6.565-1.927a2.279 2.279 0 00-.631-.42l-1.363-.608a2.743 2.743 0 00-1.203-.235v-3.056a9.82 9.82 0 003.985-6.8 2.455 2.455 0 001.864-2.38v-8.625a3.685 3.685 0 00-3.568-3.68 3.686 3.686 0 00-3.675-3.476h-8.95a7.03 7.03 0 00-2.352.405c.007-.07.011-.142.011-.214v-4.665c0-1.213-.987-2.2-2.2-2.2h-4.666c-1.213 0-2.2.987-2.2 2.2v4.666c0 1.213.987 2.2 2.2 2.2H37.6a7.052 7.052 0 00-1.552 2.923h-2.365c-1.213 0-2.2.987-2.2 2.2v4.666c0 1.213.987 2.2 2.2 2.2h2.146v1.4c0 .575.199 1.104.531 1.522h-2.677c-1.213 0-2.2.987-2.2 2.2v4.666c0 1.213.987 2.2 2.2 2.2h4.666c1.213 0 2.2-.987 2.2-2.2v-.167c.352.348.73.668 1.129.96v3.05c-.403-.01-.81.067-1.19.238l-1.337.6a2.273 2.273 0 00-.627.42l-6.604 1.938c-3.501 1.027-5.947 4.293-5.947 7.942v.736a1.084 1.084 0 102.168 0v-.736a6.143 6.143 0 014.39-5.862l5.407-1.587c.11.306.289.594.534.839l3.702 3.707.011.011a2.356 2.356 0 002.064.635l.769 1.32-1.79 10.096h-8.304V65a1.084 1.084 0 10-2.167 0v2.355H28.14V64a1.084 1.084 0 10-2.167 0v3.356h-4.511V54.707h.136a1.084 1.084 0 000-2.167H8.549a1.084 1.084 0 100 2.167h.136v12.649H4.76V10.597c0-.903.734-1.637 1.637-1.637h36.04c.902 0 1.636.734 1.636 1.637v4.395a1.084 1.084 0 102.168 0v-4.395a3.81 3.81 0 00-3.319-3.773v-3.91A2.67 2.67 0 0040.256.249H8.577a2.67 2.67 0 00-2.666 2.667v3.91a3.81 3.81 0 00-3.319 3.772v56.867a3.452 3.452 0 00-2.589 3.338 3.45 3.45 0 003.447 3.446h67.1a3.45 3.45 0 003.447-3.446 3.45 3.45 0 00-3.446-3.446zM8.578 2.416h31.679a.5.5 0 01.498.499v3.877H8.08V2.915a.5.5 0 01.498-.499zm58.197 55.78v9.16h-4.618V65a1.084 1.084 0 10-2.168 0v2.355h-8.3l-1.792-10.107.78-1.397a2.349 2.349 0 002.082-.623l3.705-3.608c.254-.247.439-.544.552-.864l5.37 1.577a6.143 6.143 0 014.39 5.863zm-19.997-2.222l-.682-1.172 1.453-1.214 1.292 1.105-.715 1.28h-1.348v.001zm6.778-6.695l1.363.608c.069.03.09.125.032.181l-3.699 3.602a.195.195 0 01-.261.008l-1.717-1.468 3.694-2.86a.576.576 0 01.588-.07zM51.84 21.215c.834 0 1.513.679 1.513 1.513 0 1.082.88 1.961 1.961 1.961h.088c.834 0 1.513.68 1.513 1.514v4.587h-.711a.724.724 0 01-.723-.723v-.99c0-1.729-1.42-2.994-2.982-2.994-.317 0-.636.05-.949.154a13.137 13.137 0 01-8.189 0 2.99 2.99 0 00-3.93 2.84v.99a.724.724 0 01-.723.723h-.71v-4.682a4.899 4.899 0 014.893-4.893h8.949zM33.651 19.24v-4.666c0-.018.015-.032.033-.032h4.666c.017 0 .032.014.032.032v4.666a.032.032 0 01-.032.032h-4.666a.033.033 0 01-.033-.032zm0 11.988v-4.665c0-.018.015-.033.033-.033h2.146v4.73h-2.146a.033.033 0 01-.033-.032zm4.73 11.989a.032.032 0 01-.032.032h-4.665a.032.032 0 01-.033-.032V38.55c0-.018.015-.032.033-.032h4.253c.117.455.266.898.445 1.325v3.373zm1.429-6.664a1.537 1.537 0 00-1.529-1.44.284.284 0 01-.283-.284v-1.87h.71a2.894 2.894 0 002.891-2.891v-.99c0-.556.542-.96 1.086-.781a15.313 15.313 0 009.546 0 .823.823 0 011.082.782v.989a2.894 2.894 0 002.891 2.89h.71v1.871a.284.284 0 01-.283.284c-.806 0-1.477.632-1.529 1.44-.253 4.023-3.612 7.174-7.646 7.174s-7.393-3.151-7.646-7.174zm7.646 9.341a9.77 9.77 0 003.61-.69v2.877l-3.521 2.727-3.699-2.764v-2.839a9.78 9.78 0 003.61.69zm-7.45 4.162a.112.112 0 01.033-.18l1.337-.6a.578.578 0 01.582.064l3.85 2.877-1.85 1.546a.194.194 0 01-.258-.007l-3.694-3.7zm7.057 8.087h.79l1.634 9.214H45.43l1.633-9.214zm-36.21-3.435h8.442v12.649h-8.442v-12.65zM70.551 72.08H3.45a1.28 1.28 0 01-1.279-1.278 1.28 1.28 0 011.279-1.278h67.1a1.28 1.28 0 011.28 1.278 1.28 1.28 0 01-1.28 1.278z" fill="#003A66"/></svg>