<svg width="71" height="71" fill="none" xmlns="http://www.w3.org/2000/svg"><path d="M42.022 9.345a1.387 1.387 0 00-1.674 1.01 1.366 1.366 0 001.023 1.649c11.24 2.671 19.09 12.508 19.09 23.922 0 13.57-11.197 24.61-24.961 24.61s-24.96-11.04-24.96-24.61c0-11.413 7.849-21.25 19.088-23.922a1.367 1.367 0 001.023-1.65 1.388 1.388 0 00-1.673-1.008 27.914 27.914 0 00-15.17 9.542c-3.953 4.885-6.042 10.776-6.042 17.038 0 15.078 12.441 27.344 27.734 27.344 15.293 0 27.734-12.266 27.734-27.344 0-6.262-2.09-12.154-6.043-17.039a27.914 27.914 0 00-15.17-9.542z" fill="#003A66"/><path d="M70.164 32.638l-1.622-2.984.27-3.69a6.932 6.932 0 00-2.562-6.177l-2.693-2.174-1.06-3.146c-.593-2.406-2.446-4.34-4.85-5.055l-3.324-.99-2.546-2.901a7.147 7.147 0 00-6.1-2.432l-3.45.34-3.39-1.678a7.164 7.164 0 00-6.673 0L29.137 3.35l-3.741-.267A7.127 7.127 0 0019.13 5.61l-2.205 2.655-3.191 1.044c-2.44.585-4.402 2.412-5.128 4.782l-1.004 3.277-2.943 2.51a6.947 6.947 0 00-2.466 6.014l.344 3.401-1.701 3.344a6.889 6.889 0 000 6.578L2.457 42.2l-.271 3.69a6.932 6.932 0 002.562 6.177l2.693 2.174 1.06 3.146c.593 2.406 2.446 4.34 4.85 5.055l3.324.99 2.546 2.901a7.146 7.146 0 006.1 2.432l3.45-.339 3.39 1.677a7.168 7.168 0 006.673 0l3.027-1.599 3.742.267a7.13 7.13 0 006.265-2.526l2.206-2.655 3.19-1.044c2.44-.585 4.402-2.412 5.128-4.783l1.004-3.277 2.943-2.51a6.947 6.947 0 002.466-6.013l-.344-3.402 1.701-3.343a6.89 6.89 0 000-6.579zm-2.454 5.303a1.09 1.09 0 00-.018.033l-1.89 3.714a1.359 1.359 0 00-.14.749l.384 3.794a4.236 4.236 0 01-1.512 3.668l-3.255 2.777c-.199.17-.345.391-.42.639l-1.121 3.656a4.322 4.322 0 01-3.167 2.926c-.041.009-.082.02-.122.033l-3.63 1.188c-.249.082-.47.231-.636.432l-2.46 2.962a4.347 4.347 0 01-3.893 1.533l-4.169-.297a1.403 1.403 0 00-.755.158l-3.378 1.785a4.36 4.36 0 01-4.106-.025l-3.766-1.863a1.404 1.404 0 00-.76-.138l-3.848.378a4.356 4.356 0 01-3.72-1.49l-2.817-3.21a1.387 1.387 0 00-.648-.415l-3.709-1.104a4.31 4.31 0 01-2.967-3.123c-.01-.04-.02-.08-.034-.12l-1.205-3.579a1.365 1.365 0 00-.437-.627L6.506 49.95a4.226 4.226 0 01-1.555-3.839l.302-4.11a1.351 1.351 0 00-.161-.744l-1.81-3.331a4.193 4.193 0 01.024-4.047l1.89-3.714a1.35 1.35 0 00.14-.749l-.383-3.794a4.236 4.236 0 011.512-3.668l3.255-2.777c.199-.17.345-.39.42-.639l1.121-3.656a4.322 4.322 0 013.167-2.925c.041-.01.082-.021.122-.034l3.63-1.188c.249-.082.47-.231.636-.431l2.46-2.963a4.348 4.348 0 013.893-1.533l4.169.298c.261.018.523-.037.755-.159l3.378-1.785a4.36 4.36 0 014.105.025l3.767 1.863c.235.116.498.164.76.138l3.848-.378a4.357 4.357 0 013.72 1.49l2.817 3.21c.172.196.397.34.648.415l3.709 1.104a4.311 4.311 0 012.967 3.123c.01.04.02.08.034.12l1.205 3.578c.083.246.234.463.437.627l3.005 2.426a4.226 4.226 0 011.555 3.839l-.302 4.11a1.35 1.35 0 00.161.744l1.81 3.331a4.193 4.193 0 01-.007 4.014z" fill="#003A66"/><path d="M29.482 28.478a1.387 1.387 0 00-1.252-.783h-7.327c-.766 0-1.387.612-1.387 1.367v20.695c0 .755.62 1.367 1.387 1.367h7.327c.575 0 1.068-.345 1.278-.836 1.057.146 2.146.443 3.28.752 1.704.465 3.467.947 5.298.947h8.005c2.475 0 4.48-1.294 5.364-3.46.431-1.056.507-2.152.255-3.07a4.94 4.94 0 001.144-1.509c.596-1.202.715-2.553.377-3.692.63-.6 1.1-1.393 1.346-2.327.23-.874.226-1.736.021-2.483 1.251-.725 2.094-2.043 2.094-3.528 0-1.165-.46-2.238-1.296-3.022a4.37 4.37 0 00-3.008-1.167H41.105c-.858-1.06-1.125-2.5-.636-3.657 1.001-2.377.94-4.39-.201-6.524-.847-1.584-3.124-3.162-5.037-2.893-1.157.163-1.994.97-2.24 2.156-.072.35-.091.727-.114 1.164-.057 1.078-.135 2.554-1.078 4.337-.64 1.208-.854 2.451-1.042 3.548-.27 1.57-.4 2.328-1.275 2.618zm-7.192 1.951h4.553v17.96H22.29V30.43zm11.202-4.113c.161-.94.328-1.913.765-2.739 1.224-2.31 1.328-4.282 1.39-5.46.016-.314.032-.61.062-.76l.001-.003c.481.007 1.665.647 2.104 1.469.76 1.421.785 2.56.093 4.2-.623 1.479-.576 3.195.04 4.72a1.373 1.373 0 00-1.194 1.354c0 .754.621 1.367 1.387 1.367h14.248c.423 0 .812.146 1.096.413.198.186.434.517.434 1.041 0 .733-.682 1.367-1.489 1.385l-3.57.076a1.376 1.376 0 00-1.355 1.397 1.378 1.378 0 001.386 1.337h.03l2.973-.063c.097.27.147.787-.057 1.379-.173.503-.64 1.348-1.813 1.348-.766 0-1.387.612-1.387 1.367s.621 1.367 1.387 1.367c.21 0 .416-.013.618-.038.018.387-.063.84-.278 1.274-.255.513-.758 1.125-1.71 1.125-.766 0-1.386.612-1.386 1.367s.62 1.367 1.386 1.367c.144 0 .286-.006.426-.019-.004.263-.058.59-.21.95-.216.515-.923 1.715-2.778 1.715h-8.005c-1.454 0-2.962-.411-4.558-.847-1.27-.347-2.572-.702-3.911-.86v-16.3c3.122-.558 3.552-3.05 3.875-4.929zM35.5 11.317c.766 0 1.387-.612 1.387-1.367s-.62-1.367-1.387-1.367-1.387.612-1.387 1.367.621 1.367 1.387 1.367z" fill="#003A66"/></svg>