<svg width="70" height="70" fill="none" xmlns="http://www.w3.org/2000/svg"><path d="M69.424 8.761L61.16.881c-.314-.302-.64-.614-1.246-.614H26.81c-.967 0-1.753.787-1.753 1.754v5.384l-11.667 2a1.728 1.728 0 00-1.402 1.993l.592 3.453c-3.792 1.276-7.686 2.591-11.444 3.941a1.736 1.736 0 00-1.038 2.206l7.477 20.784a1.026 1.026 0 101.93-.695L2.14 20.611c3.54-1.267 7.208-2.508 10.792-3.715l3.523 20.542 4.054 23.656a1.737 1.737 0 001.994 1.406l10.98-1.884 8.58-1.47-12.904 4.638-10.177 3.659L11.08 45.46a1.025 1.025 0 00-1.93.694l8.016 22.295c.256.7.92 1.137 1.622 1.137a1.7 1.7 0 00.583-.104l10.482-3.769 23.802-8.554 4.547-.78h10.045c.967 0 1.754-.788 1.754-1.757V9.917c0-.614-.333-.927-.576-1.156zm-2.717.243H61.45c-.246.002-.82.007-.967-.138-.033-.034-.073-.146-.073-.353l-.012-5.526 6.31 6.017zm1.242 45.324H27.11V34.344a1.025 1.025 0 00-2.051 0v20.277c0 .97.786 1.758 1.753 1.758h19.252l-12.926 2.215-10.662 1.83-3.999-23.333-4.411-25.72 10.992-1.885v20.1a1.025 1.025 0 002.051 0V2.318h31.237l.013 6.197c0 .751.229 1.359.68 1.806.692.687 1.67.735 2.278.735h.148l6.485-.001v43.273z" fill="#003A66"/><path d="M32.051 16.19c0 .565.46 1.024 1.025 1.024h29.318a1.025 1.025 0 000-2.05H33.076c-.566 0-1.025.459-1.025 1.025zm30.343 6.258H33.076a1.025 1.025 0 000 2.051h29.318a1.025 1.025 0 000-2.05zm0 7.285H33.076a1.025 1.025 0 000 2.05h29.318a1.025 1.025 0 000-2.05zm0 7.285H33.076a1.025 1.025 0 000 2.05h29.318a1.025 1.025 0 000-2.05zm0 7.284H33.076a1.025 1.025 0 000 2.051h29.318a1.025 1.025 0 100-2.05z" fill="#003A66"/></svg>