<svg width="65" height="83" fill="none" xmlns="http://www.w3.org/2000/svg"><path d="M63.574 34.596a6.397 6.397 0 00-.72-7.877 3.992 3.992 0 01-1-3.559c.608-2.908-.825-5.82-3.484-7.08a3.953 3.953 0 01-2.203-2.953c-.47-2.935-2.844-5.126-5.774-5.33a3.905 3.905 0 01-3.107-1.947c-1.486-2.564-4.482-3.74-7.287-2.858a3.874 3.874 0 01-3.592-.68 6.2 6.2 0 00-7.814 0 3.873 3.873 0 01-3.593.68c-2.804-.881-5.8.294-7.286 2.858a3.905 3.905 0 01-3.107 1.948c-2.93.203-5.304 2.395-5.775 5.329a3.953 3.953 0 01-2.202 2.952c-2.66 1.261-4.092 4.173-3.483 7.081a3.993 3.993 0 01-1 3.56 6.397 6.397 0 00-.721 7.876 4 4 0 01.337 3.684A6.384 6.384 0 003.9 45.888a3.975 3.975 0 011.63 3.313c-.071 2.971 1.865 5.567 4.708 6.312.84.22 1.568.711 2.09 1.382L5.792 72.872c-.916 2.24 1.157 4.545 3.444 3.835l7.157-2.224c.21-.064.435.03.537.225l3.508 6.696c1.122 2.142 4.199 1.991 5.114-.245l6.814-16.654c.089-.003.178-.003.268 0l6.814 16.654c.916 2.24 3.993 2.384 5.113.245l3.508-6.695a.455.455 0 01.537-.226l7.157 2.224c2.288.71 4.36-1.596 3.445-3.834L52.67 56.895a3.906 3.906 0 012.09-1.382c2.843-.745 4.78-3.34 4.71-6.312a3.975 3.975 0 011.628-3.312 6.384 6.384 0 002.139-7.609 4.004 4.004 0 01.337-3.684zM23.36 80.239a.453.453 0 01-.825.04l-3.508-6.696a2.82 2.82 0 00-3.33-1.396L8.54 74.41a.459.459 0 01-.555-.618l5.8-14.176a6.225 6.225 0 005.799 2.554 3.887 3.887 0 013.408 1.336 6.229 6.229 0 004.736 2.197c.56 0 1.123-.08 1.675-.235l-6.043 14.77zm33.1-5.829l-7.157-2.223a2.82 2.82 0 00-3.33 1.396l-3.508 6.695a.453.453 0 01-.825-.04l-6.042-14.767c2.297.645 4.79-.077 6.41-1.965a3.884 3.884 0 013.408-1.337 6.221 6.221 0 005.8-2.553l5.8 14.175a.46.46 0 01-.556.62zm5.127-41.127a6.427 6.427 0 00-.541 5.918 3.974 3.974 0 01-1.331 4.736 6.386 6.386 0 00-2.617 5.32c.043 1.85-1.162 3.467-2.932 3.93a6.292 6.292 0 00-3.879 3l-.006.012c-.177.315-.33.646-.454.992-.619 1.741-2.319 2.808-4.135 2.593a6.242 6.242 0 00-5.475 2.147 3.864 3.864 0 01-4.781.905 6.226 6.226 0 00-4.133-.619l-.008.002a6.235 6.235 0 00-1.73.617 3.864 3.864 0 01-4.782-.905 6.25 6.25 0 00-5.474-2.147c-1.815.215-3.517-.851-4.136-2.593a6.395 6.395 0 00-.453-.99l-.008-.016a6.292 6.292 0 00-3.878-2.998c-1.77-.464-2.975-2.08-2.931-3.93a6.386 6.386 0 00-2.617-5.32 3.974 3.974 0 01-1.331-4.736 6.427 6.427 0 00-.542-5.919 3.98 3.98 0 01.449-4.903 6.413 6.413 0 001.607-5.716 3.959 3.959 0 012.168-4.409 6.35 6.35 0 003.538-4.743c.293-1.826 1.771-3.19 3.595-3.317a6.273 6.273 0 004.992-3.13 3.877 3.877 0 014.535-1.778 6.222 6.222 0 005.771-1.092 3.86 3.86 0 014.865 0 6.221 6.221 0 005.77 1.092 3.875 3.875 0 014.536 1.779 6.274 6.274 0 004.992 3.129c1.824.127 3.302 1.49 3.595 3.317a6.352 6.352 0 003.538 4.744 3.958 3.958 0 012.168 4.408 6.413 6.413 0 001.607 5.716 3.983 3.983 0 01.448 4.903z" fill="#003A66"/><path d="M10.028 31.697a1.19 1.19 0 001.322-1.045c1.31-10.781 10.403-18.91 21.15-18.91 10.753 0 19.846 8.133 21.152 18.92a1.192 1.192 0 001.322 1.046c.65-.08 1.113-.68 1.033-1.338C54.555 18.38 44.45 9.339 32.5 9.339c-11.944 0-22.049 9.036-23.505 21.02a1.198 1.198 0 001.033 1.338zm44.946 3.224a1.191 1.191 0 00-1.322 1.046C52.346 46.755 43.252 54.89 32.5 54.89c-10.748 0-19.84-8.13-21.15-18.912a1.19 1.19 0 00-1.323-1.046c-.65.081-1.113.68-1.033 1.34C10.45 48.253 20.555 57.29 32.5 57.29c11.95 0 22.056-9.041 23.507-21.032a1.198 1.198 0 00-1.033-1.338z" fill="#003A66"/><path d="M49.254 28.358a2.279 2.279 0 00-2.102-1.605l-9.303-.337-3.192-8.853a2.276 2.276 0 00-2.157-1.527c-.976 0-1.822.6-2.157 1.527l-3.192 8.853-9.302.337a2.28 2.28 0 00-2.102 1.605c-.302.94 0 1.94.768 2.55l7.33 5.808-2.557 9.06a2.32 2.32 0 00.858 2.52c.789.58 1.822.6 2.632.048l7.722-5.262 7.722 5.262c.81.551 1.843.533 2.632-.048.79-.58 1.127-1.57.858-2.52l-2.557-9.06 7.33-5.809a2.32 2.32 0 00.769-2.549zm-9.602 6.498a2.332 2.332 0 00-.792 2.47l2.514 8.907-7.591-5.173a2.274 2.274 0 00-1.283-.398c-.446 0-.893.133-1.282.398l-7.591 5.173 2.514-8.907a2.332 2.332 0 00-.793-2.47l-7.205-5.71 9.145-.332a2.29 2.29 0 002.074-1.526l3.138-8.702 3.138 8.702a2.29 2.29 0 002.075 1.526l9.145.332-7.206 5.71z" fill="#003A66"/></svg>