<svg width="45" height="45" fill="none" xmlns="http://www.w3.org/2000/svg"><g clip-path="url(#clip0)" fill="#F87A0B"><path d="M38.223 26.428h.733a.733.733 0 000-1.466h-2.932v-1.465a.733.733 0 00-1.466 0v1.465h-2.931a.733.733 0 000 1.466h5.13v1.466c0 1.154-.543 2.24-1.466 2.932a3.664 3.664 0 01-1.246-1.693.733.733 0 00-1.378.498 5.03 5.03 0 001.158 1.854c-.728.098-1.465.123-2.198.074a.733.733 0 000 1.466c1.531 0 2.411.095 3.664-.506 1.268.6 2.118.506 3.665.506a.733.733 0 000-1.466 9.653 9.653 0 01-2.199-.08c1.657-1.694 1.466-3.46 1.466-5.05zM.844 44.018h24.919a.733.733 0 00.733-.733V42.7a5.057 5.057 0 00-2.61-4.434l-4.99-3.122a2.316 2.316 0 01-1.195-2.001v-2.316a10.546 10.546 0 002.8-4.75 1.92 1.92 0 00.864-1.582v-2.53a1.964 1.964 0 00-.733-1.399V16.85c0-.242-.513-5.812-7.329-5.812s-7.329 5.622-7.329 5.908v3.62a1.964 1.964 0 00-.733 1.407v2.529a1.92 1.92 0 00.872 1.598 10.37 10.37 0 002.793 4.727v2.316a2.353 2.353 0 01-1.276 2.081l-4.837 3.035A5.13 5.13 0 00.111 42.7v.586c0 .405.328.733.733.733zm2.69-4.53l4.837-3.04a3.775 3.775 0 002-3.306v-2.316c.001-.409-.169-.8-.468-1.078a8.949 8.949 0 01-2.36-3.987c-.198-.872-.836-.799-.836-1.267V21.98a.865.865 0 01.25-.33c.306-.277.482-.671.483-1.085v-3.57c0-.46.447-4.492 5.863-4.492s5.863 3.994 5.863 4.398v3.664c0 .902.653 1.107.733 1.4v2.529a.432.432 0 01-.205.366c-.319.207-.545.53-.63.901a8.948 8.948 0 01-2.36 3.988c-.3.277-.47.668-.47 1.077v2.316a3.716 3.716 0 001.921 3.261l4.991 3.13a3.62 3.62 0 011.884 3.02H1.577a3.665 3.665 0 011.957-3.064z"/><path d="M40.421 19.832h-10.26a3.664 3.664 0 00-3.665 3.665v1.07l-4.068 2.719a.733.733 0 000 1.216l4.068 2.72v1.07a3.665 3.665 0 003.664 3.664h10.261a3.665 3.665 0 003.665-3.664v-8.795a3.664 3.664 0 00-3.665-3.665zm2.199 12.46a2.199 2.199 0 01-2.199 2.198h-10.26a2.199 2.199 0 01-2.2-2.198v-1.466a.733.733 0 00-.33-.608l-3.48-2.324 3.48-2.323a.733.733 0 00.33-.609v-1.465a2.2 2.2 0 012.2-2.199h10.26c1.214 0 2.199.984 2.199 2.199v8.795zM40.421.044h-10.26a3.665 3.665 0 00-3.665 3.664v1.07l-4.068 2.72a.733.733 0 000 1.216l4.068 2.719v1.07a3.665 3.665 0 003.664 3.665h10.261a3.664 3.664 0 003.665-3.665V3.708A3.664 3.664 0 0040.42.044zm2.199 12.46a2.199 2.199 0 01-2.199 2.198h-10.26a2.199 2.199 0 01-2.2-2.199v-1.466a.733.733 0 00-.33-.608l-3.48-2.323 3.48-2.324a.733.733 0 00.33-.608V3.708a2.2 2.2 0 012.2-2.199h10.26a2.2 2.2 0 012.199 2.2v8.794z"/><path d="M35.291 2.975a4.397 4.397 0 00-4.397 4.398v5.13a.733.733 0 101.466 0V9.572h5.863v2.931a.733.733 0 101.466 0v-5.13a4.397 4.397 0 00-4.398-4.398zm-2.931 5.13v-.732a2.932 2.932 0 015.863 0v.733H32.36z"/></g><defs><clipPath id="clip0"><path fill="#fff" transform="translate(.114 .044)" d="M0 0h43.975v43.975H0z"/></clipPath></defs></svg>