<svg width="45" height="45" fill="none" xmlns="http://www.w3.org/2000/svg"><g clip-path="url(#clip0)" fill="#F87A0B"><path d="M44.294 24.86a17.382 17.382 0 00-4.996-10.543 17.247 17.247 0 00-8.484-4.659V7.476a2.925 2.925 0 002.215-2.834c0-1.61-1.31-2.92-2.92-2.92h-6.184c-1.61 0-2.92 1.31-2.92 2.92 0 1.368.945 2.518 2.215 2.834v2.189a17.246 17.246 0 00-8.458 4.652 17.43 17.43 0 00-1.458 1.655.822.822 0 00-.065-.003h-6.12a.859.859 0 000 1.718h5.016a17.222 17.222 0 00-1.524 3.3H1.263a.859.859 0 000 1.719h8.863a17.467 17.467 0 00-.426 3.3H5.9a.859.859 0 000 1.719h3.826c.072 1.111.251 2.217.536 3.301H4.7a.859.859 0 000 1.718h6.112a17.25 17.25 0 003.951 6.11 17.382 17.382 0 0010.553 4.996 17.391 17.391 0 0011.17-2.715.859.859 0 10-.937-1.439c-6.146 4.003-14.377 3.137-19.571-2.057-6.095-6.095-6.095-16.012 0-22.107 6.095-6.095 16.012-6.095 22.107 0 5.187 5.188 6.057 13.412 2.068 19.555a.859.859 0 001.441.935 17.404 17.404 0 002.701-11.163zM22.723 4.641c0-.663.54-1.202 1.202-1.202h6.184c.663 0 1.203.54 1.203 1.202 0 .664-.54 1.203-1.203 1.203h-6.184c-.663 0-1.202-.54-1.202-1.203zm2.215 4.727V7.563h4.158v1.803a17.5 17.5 0 00-4.158.003z"/><path d="M38.69 37.387a.863.863 0 00-.608 1.467.86.86 0 001.468-.608.866.866 0 00-.252-.608.868.868 0 00-.607-.251zM27.029 13.261c-7.347 0-13.324 5.977-13.324 13.324 0 7.347 5.977 13.324 13.324 13.324 7.347 0 13.324-5.977 13.324-13.324 0-7.347-5.977-13.324-13.324-13.324zm0 24.93c-6.4 0-11.606-5.206-11.606-11.606 0-6.4 5.206-11.606 11.606-11.606 6.4 0 11.606 5.207 11.606 11.606 0 6.4-5.206 11.606-11.606 11.606z"/><path d="M32.463 19.937l-4.254 4.254a2.653 2.653 0 00-2.358 0l-1.904-1.904a.859.859 0 00-1.214 1.215l1.903 1.904a2.672 2.672 0 002.394 3.848 2.672 2.672 0 002.394-3.848l4.129-4.13.125-.124a.859.859 0 00-1.215-1.215zm-5.433 7.6a.952.952 0 010-1.903.952.952 0 010 1.902zm9.182-1.8h-.795a.859.859 0 000 1.718h.795a.859.859 0 000-1.718zm-17.569-.021h-.796a.859.859 0 000 1.718h.796a.859.859 0 000-1.718zm8.396-6.66a.859.859 0 00.859-.858v-.796a.859.859 0 00-1.718 0v.796c0 .474.384.858.859.858zm-.019 15.058a.859.859 0 00-.86.858v.796a.859.859 0 001.718 0v-.796a.859.859 0 00-.859-.858zM1.263 31.026a.866.866 0 00-.607.251.866.866 0 00-.252.608c0 .227.092.448.252.608.16.16.381.251.607.251a.866.866 0 00.608-.251.866.866 0 00.252-.608.866.866 0 00-.252-.608.866.866 0 00-.608-.251z"/></g><defs><clipPath id="clip0"><path fill="#fff" transform="translate(.405 .84)" d="M0 0h43.975v43.975H0z"/></clipPath></defs></svg>