<svg width="44" height="44" fill="none" xmlns="http://www.w3.org/2000/svg"><g clip-path="url(#clip0)" fill="#F87A0B"><path d="M39.229 38.175L34.72 32.38a6.526 6.526 0 003.567-2.641c1.062-1.835.582-4.075.117-6.239a17.04 17.04 0 01-.502-3.393 17.01 17.01 0 01.502-3.397c.462-2.165.945-4.403-.117-6.236-1.1-1.9-3.314-2.603-5.455-3.281a15.868 15.868 0 01-3.08-1.207 15.05 15.05 0 01-2.468-2C25.695 2.51 23.894.84 21.6.84c-2.292 0-4.093 1.67-5.683 3.143a15.059 15.059 0 01-2.467 2.001 15.9 15.9 0 01-3.08 1.204c-2.14.678-4.355 1.381-5.454 3.281-1.062 1.836-.582 4.075-.117 6.24.28 1.111.448 2.25.5 3.396a17.036 17.036 0 01-.501 3.396c-.462 2.165-.945 4.404.117 6.236a6.527 6.527 0 003.57 2.64l-4.512 5.796a.74.74 0 00.677 1.19l5.298-.661 1.308 4.576a.741.741 0 001.297.251l4.732-6.086a6.852 6.852 0 004.315 1.926 6.852 6.852 0 004.316-1.926l4.731 6.084a.74.74 0 001.298-.25l1.308-4.575 5.297.662a.741.741 0 00.678-1.19zM12.28 41.468l-1.08-3.783a.741.741 0 00-.805-.532l-4.15.52 3.72-4.782.41.132c1.064.293 2.095.696 3.076 1.203a15.047 15.047 0 012.468 2l.255.236-3.894 5.006zm9.321-3.58c-1.711 0-3.15-1.333-4.676-2.747a16.332 16.332 0 00-2.733-2.198 17.176 17.176 0 00-3.374-1.334c-1.958-.622-3.808-1.209-4.62-2.612-.775-1.34-.375-3.208.05-5.187.305-1.213.484-2.454.534-3.704a18.137 18.137 0 00-.534-3.705c-.424-1.978-.825-3.846-.05-5.187.816-1.403 2.663-1.99 4.621-2.612a17.185 17.185 0 003.373-1.333 16.333 16.333 0 002.732-2.199c1.526-1.414 2.966-2.747 4.677-2.747 1.712 0 3.152 1.333 4.677 2.747a16.33 16.33 0 002.732 2.2 17.18 17.18 0 003.374 1.333c1.958.622 3.808 1.209 4.62 2.612.775 1.34.375 3.208-.05 5.187a18.155 18.155 0 00-.535 3.705c.05 1.25.23 2.491.535 3.704.424 1.978.824 3.846.05 5.187-.816 1.403-2.663 1.99-4.621 2.612a17.181 17.181 0 00-3.373 1.334 16.331 16.331 0 00-2.733 2.198c-1.525 1.414-2.965 2.747-4.677 2.747zm11.21-.735a.741.741 0 00-.804.532l-1.084 3.783-3.893-5.005.255-.236a15.06 15.06 0 012.467-2.001c.982-.507 2.014-.91 3.08-1.203l.409-.132 3.72 4.781-4.15-.519z"/><path d="M21.602 6.768c-7.366 0-13.337 5.972-13.337 13.337 0 7.366 5.97 13.338 13.337 13.338 7.366 0 13.337-5.972 13.337-13.338-.009-7.362-5.975-13.328-13.337-13.337zm0 25.193c-6.548 0-11.855-5.308-11.855-11.856 0-6.547 5.307-11.855 11.855-11.855 6.547 0 11.855 5.308 11.855 11.855-.008 6.545-5.31 11.848-11.855 11.856z"/><path d="M30.15 17.01a1.482 1.482 0 00-1.198-.61h-4.536l-1.408-4.317a1.482 1.482 0 00-2.815 0l-1.404 4.318h-4.54a1.482 1.482 0 00-.873 2.68l3.672 2.667-1.402 4.318a1.482 1.482 0 002.28 1.657l3.675-2.667 3.672 2.667a1.46 1.46 0 001.743 0 1.46 1.46 0 00.538-1.656l-1.403-4.319 3.673-2.667a1.482 1.482 0 00.326-2.07zm-5.306 3.856a.741.741 0 00-.269.83l1.57 4.83-4.109-2.985a.741.741 0 00-.87 0l-4.109 2.984 1.569-4.83a.741.741 0 00-.27-.828l-4.107-2.984h5.077a.74.74 0 00.705-.512l1.57-4.83 1.569 4.829a.74.74 0 00.704.512h5.078l-4.108 2.984z"/></g><defs><clipPath id="clip0"><path fill="#fff" transform="translate(.114 .84)" d="M0 0h42.975v42.975H0z"/></clipPath></defs></svg>