<svg width="348" height="65" fill="none" xmlns="http://www.w3.org/2000/svg"><path d="M43.702 59.794l3.438-12.096h6.318v12.096h.9V61H43v-1.206h.702zm8.424 0v-10.89H48.13l-3.024 10.89h7.02zm13.738-3.78c0 .912-.228 1.77-.684 2.574a5.24 5.24 0 01-1.872 1.926c-.792.48-1.644.72-2.556.72-.9 0-1.752-.228-2.556-.684a5.33 5.33 0 01-1.908-1.854 4.939 4.939 0 01-.702-2.556c0-.936.228-1.806.684-2.61a4.968 4.968 0 011.872-1.89 5.037 5.037 0 012.61-.702c1.368 0 2.562.498 3.582 1.494s1.53 2.19 1.53 3.582zm-8.946.126c0 .672.174 1.308.522 1.908.348.6.816 1.068 1.404 1.404a3.781 3.781 0 001.908.504c1.512 0 2.616-.66 3.312-1.98a4.12 4.12 0 00.468-1.962c0-1.08-.384-1.98-1.152-2.7-.756-.732-1.632-1.098-2.628-1.098a3.68 3.68 0 00-1.926.54c-.6.348-1.068.822-1.404 1.422a3.948 3.948 0 00-.504 1.962zm20.633 1.98c-.264.54-.528.972-.792 1.296-1.008 1.212-2.34 1.818-3.996 1.818-.96 0-1.848-.216-2.664-.648a5.336 5.336 0 01-1.98-1.854 5.005 5.005 0 01-.738-2.664c0-.924.24-1.782.72-2.574a5.154 5.154 0 011.962-1.872 5.336 5.336 0 012.646-.684c1.5 0 2.754.504 3.762 1.512a4.85 4.85 0 011.098 1.692h-1.494c-.252-.432-.534-.774-.846-1.026-.732-.6-1.566-.9-2.502-.9-.696 0-1.356.168-1.98.504a3.954 3.954 0 00-1.494 1.386 3.651 3.651 0 00-.54 1.944c0 .684.174 1.338.522 1.962a3.852 3.852 0 001.404 1.44c.6.336 1.26.504 1.98.504 1.44 0 2.592-.612 3.456-1.836h1.476zm.764-5.778v-1.206h6.75v1.206h-2.7V61h-1.314v-8.658h-2.736zM96.26 61h-1.278v-1.854c-.456.876-1.224 1.494-2.304 1.854a4.753 4.753 0 01-1.512.234c-1.632 0-3.078-.696-4.338-2.088-.3-.324-.54-.816-.72-1.476a6.042 6.042 0 01-.252-1.656c0-.48.09-1.008.27-1.584.204-.624.456-1.092.756-1.404 1.332-1.392 2.748-2.088 4.248-2.088.816 0 1.566.18 2.25.54.696.348 1.23.864 1.602 1.548v-1.872h1.278V61zm-9.072-4.878c0 .708.18 1.35.54 1.926.36.576.858 1.038 1.494 1.386.636.348 1.284.522 1.944.522.672 0 1.302-.174 1.89-.522a3.754 3.754 0 001.404-1.404c.348-.6.522-1.23.522-1.89 0-.708-.168-1.362-.504-1.962a3.558 3.558 0 00-1.386-1.44 3.842 3.842 0 00-1.962-.522c-1.08 0-2.01.384-2.79 1.152-.768.768-1.152 1.686-1.152 2.754zm11.333-4.968h2.412c.96 0 1.704.168 2.232.504.804.516 1.206 1.248 1.206 2.196 0 .756-.294 1.374-.882 1.854.936.492 1.404 1.302 1.404 2.43 0 .468-.114.918-.342 1.35a2.186 2.186 0 01-.918.972c-.564.312-1.122.48-1.674.504l-1.026.036h-2.412v-9.846zm4.23 8.37c.228-.12.42-.312.576-.576.156-.264.234-.528.234-.792 0-.816-.36-1.338-1.08-1.566-.336-.108-.942-.162-1.818-.162h-.828v3.33h.99c.972 0 1.614-.078 1.926-.234zm-.36-4.572c.456-.228.684-.618.684-1.17 0-.528-.222-.918-.666-1.17-.276-.156-.822-.234-1.638-.234h-.936v2.826h.846c.804 0 1.374-.084 1.71-.252zm4.339-3.798h1.332v5.886l4.518-5.886h1.71l-3.816 4.932L114.542 61h-1.71l-3.204-3.888-1.566 2.016V61h-1.332v-9.846zM125.791 61h-1.278v-1.854c-.456.876-1.224 1.494-2.304 1.854a4.753 4.753 0 01-1.512.234c-1.632 0-3.078-.696-4.338-2.088-.3-.324-.54-.816-.72-1.476a6.042 6.042 0 01-.252-1.656c0-.48.09-1.008.27-1.584.204-.624.456-1.092.756-1.404 1.332-1.392 2.748-2.088 4.248-2.088.816 0 1.566.18 2.25.54.696.348 1.23.864 1.602 1.548v-1.872h1.278V61zm-9.072-4.878c0 .708.18 1.35.54 1.926.36.576.858 1.038 1.494 1.386.636.348 1.284.522 1.944.522.672 0 1.302-.174 1.89-.522a3.754 3.754 0 001.404-1.404c.348-.6.522-1.23.522-1.89 0-.708-.168-1.362-.504-1.962a3.558 3.558 0 00-1.386-1.44 3.842 3.842 0 00-1.962-.522c-1.08 0-2.01.384-2.79 1.152-.768.768-1.152 1.686-1.152 2.754z" fill="#7C7C7C"/><path d="M199.85 54.322a6.67 6.67 0 01-.954 3.474 6.877 6.877 0 01-2.592 2.52 7.032 7.032 0 01-3.492.918 6.9 6.9 0 01-3.456-.918 7.148 7.148 0 01-2.592-2.484 6.422 6.422 0 01-.972-3.42 6.67 6.67 0 01.954-3.474 6.915 6.915 0 012.574-2.52 6.967 6.967 0 013.492-.918c1.236 0 2.394.3 3.474.9a6.958 6.958 0 012.592 2.484 6.453 6.453 0 01.972 3.438zm-12.726.09c0 1.512.57 2.814 1.71 3.906 1.152 1.092 2.484 1.638 3.996 1.638 1.584 0 2.928-.552 4.032-1.656 1.104-1.104 1.656-2.43 1.656-3.978a5.194 5.194 0 00-.774-2.772 5.574 5.574 0 00-2.106-2.016 5.54 5.54 0 00-2.808-.756c-1.596 0-2.946.552-4.05 1.656-1.104 1.104-1.656 2.43-1.656 3.978zm17.661-6.264c.552-.24 1.086-.432 1.602-.576l1.692-.45c.588-.156 1.02-.336 1.296-.54.408-.3.612-.57.612-.81l.936.666c0 .348-.222.708-.666 1.08-.348.288-.726.51-1.134.666-.468.18-1.08.378-1.836.594a32.7 32.7 0 00-1.566.486c-.6.228-1.062.504-1.386.828a5.22 5.22 0 00-1.422 2.592c.372-.516.876-.936 1.512-1.26.636-.324 1.368-.486 2.196-.486 1.368 0 2.562.498 3.582 1.494s1.53 2.19 1.53 3.582c0 .912-.228 1.77-.684 2.574a5.24 5.24 0 01-1.872 1.926c-.792.48-1.644.72-2.556.72a5.038 5.038 0 01-2.556-.684 5.38 5.38 0 01-1.908-1.836 4.91 4.91 0 01-.702-2.574c0-.216.012-.54.036-.972.024-.432.036-.756.036-.972 0-.36.042-.744.126-1.152.024-.144.072-.384.144-.72.384-2.064 1.38-3.456 2.988-4.176zm-1.998 7.992c0 1.044.378 1.944 1.134 2.7.756.744 1.656 1.116 2.7 1.116 1.488 0 2.586-.654 3.294-1.962a4.1 4.1 0 00.486-1.98c0-1.08-.384-1.98-1.152-2.7-.756-.732-1.632-1.098-2.628-1.098a3.68 3.68 0 00-1.926.54c-.6.348-1.068.822-1.404 1.422a3.948 3.948 0 00-.504 1.962zm11.668.324v-1.242h1.332c.48 0 .87-.126 1.17-.378.312-.264.468-.63.468-1.098 0-.408-.138-.756-.414-1.044a1.364 1.364 0 00-1.026-.432c-.42 0-.786.144-1.098.432a1.389 1.389 0 00-.468 1.062l-.018.162h-1.332v-.18c0-.768.27-1.416.81-1.944a2.732 2.732 0 011.98-.81c1.14 0 1.974.438 2.502 1.314.252.408.378.882.378 1.422 0 .792-.282 1.434-.846 1.926l-.234.162c.072.036.198.132.378.288.624.54.936 1.242.936 2.106 0 .816-.306 1.512-.918 2.088-.612.576-1.326.864-2.142.864a3.3 3.3 0 01-1.548-.396c-1.044-.552-1.566-1.422-1.566-2.61v-.18h1.368v.18c0 .468.168.876.504 1.224.348.348.756.522 1.224.522.504 0 .924-.156 1.26-.468.348-.324.522-.732.522-1.224 0-.504-.168-.918-.504-1.242-.336-.336-.756-.504-1.26-.504h-1.458zm15.997-.45c0 .912-.228 1.77-.684 2.574a5.24 5.24 0 01-1.872 1.926c-.792.48-1.644.72-2.556.72-.9 0-1.752-.228-2.556-.684a5.33 5.33 0 01-1.908-1.854 4.939 4.939 0 01-.702-2.556c0-.936.228-1.806.684-2.61a4.968 4.968 0 011.872-1.89 5.037 5.037 0 012.61-.702c1.368 0 2.562.498 3.582 1.494s1.53 2.19 1.53 3.582zm-8.946.126c0 .672.174 1.308.522 1.908.348.6.816 1.068 1.404 1.404a3.781 3.781 0 001.908.504c1.512 0 2.616-.66 3.312-1.98a4.12 4.12 0 00.468-1.962c0-1.08-.384-1.98-1.152-2.7-.756-.732-1.632-1.098-2.628-1.098a3.68 3.68 0 00-1.926.54c-.6.348-1.068.822-1.404 1.422a3.948 3.948 0 00-.504 1.962zm12.101-4.986v1.692c.468-.828 1.278-1.392 2.43-1.692a5.978 5.978 0 011.494-.216c1.5 0 2.844.636 4.032 1.908.072.06.168.162.288.306.588.888.882 1.878.882 2.97 0 .936-.24 1.8-.72 2.592a5.207 5.207 0 01-1.962 1.854 5.449 5.449 0 01-2.646.666 4.63 4.63 0 01-2.16-.522c-.744-.384-1.266-.9-1.566-1.548v5.292h-1.332V51.154h1.26zm7.794 4.95c0-1.5-.642-2.622-1.926-3.366a3.809 3.809 0 00-1.944-.522c-.696 0-1.35.162-1.962.486a3.72 3.72 0 00-1.458 1.368 3.652 3.652 0 00-.522 1.926c0 1.128.348 2.046 1.044 2.754.78.804 1.716 1.206 2.808 1.206.708 0 1.368-.162 1.98-.486a3.65 3.65 0 001.458-1.404c.348-.6.522-1.254.522-1.962zm19.404-3.744l-2.466 4.698 3.366 3.276-.954.9-3.042-2.97c-.336.684-.672 1.212-1.008 1.584-.816.924-1.842 1.386-3.078 1.386-1.128 0-2.1-.402-2.916-1.206-.804-.816-1.206-1.788-1.206-2.916 0-1.62.996-2.94 2.988-3.96-.48-.48-.834-.924-1.062-1.332-.228-.408-.342-.888-.342-1.44 0-.588.192-1.134.576-1.638a3.38 3.38 0 011.404-1.044c.36-.144.738-.216 1.134-.216.564 0 1.104.138 1.62.414 1.104.588 1.656 1.5 1.656 2.736 0 1.308-.87 2.304-2.61 2.988l2.52 2.484 1.926-3.744h1.494zm-7.866 2.124c-1.404.744-2.106 1.656-2.106 2.736 0 .72.264 1.356.792 1.908.54.552 1.17.828 1.89.828.78 0 1.44-.27 1.98-.81.36-.36.768-.972 1.224-1.836l-3.204-3.132-.576.306zm1.332-5.724c-.516 0-.954.162-1.314.486-.36.312-.54.72-.54 1.224 0 .492.24.978.72 1.458l.234.234.306.306.198.18c1.512-.528 2.268-1.26 2.268-2.196 0-.468-.192-.864-.576-1.188a1.917 1.917 0 00-1.296-.504zm27.669 5.562a6.67 6.67 0 01-.954 3.474 6.877 6.877 0 01-2.592 2.52 7.032 7.032 0 01-3.492.918 6.9 6.9 0 01-3.456-.918 7.148 7.148 0 01-2.592-2.484 6.422 6.422 0 01-.972-3.42 6.67 6.67 0 01.954-3.474 6.915 6.915 0 012.574-2.52 6.967 6.967 0 013.492-.918c1.236 0 2.394.3 3.474.9a6.958 6.958 0 012.592 2.484 6.453 6.453 0 01.972 3.438zm-12.726.09c0 1.512.57 2.814 1.71 3.906 1.152 1.092 2.484 1.638 3.996 1.638 1.584 0 2.928-.552 4.032-1.656 1.104-1.104 1.656-2.43 1.656-3.978a5.194 5.194 0 00-.774-2.772 5.574 5.574 0 00-2.106-2.016 5.54 5.54 0 00-2.808-.756c-1.596 0-2.946.552-4.05 1.656-1.104 1.104-1.656 2.43-1.656 3.978zm14.672-3.258h8.28V61h-1.332v-8.64H285.2V61h-1.314v-9.846zm17.062 0V61h-1.296v-8.622h-2.664L294.594 61h-1.404l2.808-9.846h4.95zM313.336 61h-1.278v-1.854c-.456.876-1.224 1.494-2.304 1.854a4.753 4.753 0 01-1.512.234c-1.632 0-3.078-.696-4.338-2.088-.3-.324-.54-.816-.72-1.476a6.042 6.042 0 01-.252-1.656c0-.48.09-1.008.27-1.584.204-.624.456-1.092.756-1.404 1.332-1.392 2.748-2.088 4.248-2.088.816 0 1.566.18 2.25.54.696.348 1.23.864 1.602 1.548v-1.872h1.278V61zm-9.072-4.878c0 .708.18 1.35.54 1.926.36.576.858 1.038 1.494 1.386.636.348 1.284.522 1.944.522.672 0 1.302-.174 1.89-.522a3.754 3.754 0 001.404-1.404c.348-.6.522-1.23.522-1.89 0-.708-.168-1.362-.504-1.962a3.558 3.558 0 00-1.386-1.44 3.842 3.842 0 00-1.962-.522c-1.08 0-2.01.384-2.79 1.152-.768.768-1.152 1.686-1.152 2.754zm10.235-3.78v-1.206h6.75v1.206h-2.7V61h-1.314v-8.658h-2.736zM332.443 61h-1.278v-1.854c-.456.876-1.224 1.494-2.304 1.854a4.753 4.753 0 01-1.512.234c-1.632 0-3.078-.696-4.338-2.088-.3-.324-.54-.816-.72-1.476a6.042 6.042 0 01-.252-1.656c0-.48.09-1.008.27-1.584.204-.624.456-1.092.756-1.404 1.332-1.392 2.748-2.088 4.248-2.088.816 0 1.566.18 2.25.54.696.348 1.23.864 1.602 1.548v-1.872h1.278V61zm-9.072-4.878c0 .708.18 1.35.54 1.926.36.576.858 1.038 1.494 1.386.636.348 1.284.522 1.944.522.672 0 1.302-.174 1.89-.522a3.754 3.754 0 001.404-1.404c.348-.6.522-1.23.522-1.89 0-.708-.168-1.362-.504-1.962a3.558 3.558 0 00-1.386-1.44 3.842 3.842 0 00-1.962-.522c-1.08 0-2.01.384-2.79 1.152-.768.768-1.152 1.686-1.152 2.754z" fill="#000"/><path d="M3 16a2.5 2.5 0 000 5v-5zm0 5h171v-5H3v5zm342-5a2.5 2.5 0 110 5v-5zm0 5H174v-5h171v5z" fill="#CCA75D"/><circle cx="85" cy="19" r="16.5" fill="#fff" stroke="#CCA75D" stroke-width="5"/><circle cx="256" cy="19" r="16.5" fill="#fff" stroke="#CCA75D" stroke-width="5"/><g clip-path="url(#clip0)"><path d="M93.258 11.172c-.767-.438-1.623.406-2.125.906-1.15 1.187-2.124 2.561-3.216 3.81-1.21 1.376-2.33 2.75-3.57 4.093-.708.75-1.475 1.563-1.947 2.5-1.062-1.094-1.977-2.28-3.157-3.25-.856-.687-2.272-1.187-2.242.47.058 2.155 1.858 4.467 3.186 5.935.56.625 1.298 1.28 2.154 1.312 1.033.063 2.095-1.25 2.714-1.968 1.092-1.25 1.977-2.656 2.98-3.936 1.299-1.687 2.626-3.343 3.895-5.061.796-1.063 3.304-3.687 1.328-4.811zm-14.96 8.403c-.029 0-.058 0-.117.032a1.387 1.387 0 01-.325-.125c.089-.063.236-.032.443.093z" fill="#000"/></g><g clip-path="url(#clip1)"><path d="M263.258 11.172c-.768-.438-1.623.406-2.125.906-1.15 1.187-2.124 2.561-3.216 3.81-1.209 1.376-2.331 2.75-3.57 4.093-.708.75-1.475 1.563-1.947 2.5-1.062-1.094-1.977-2.28-3.157-3.25-.856-.687-2.272-1.187-2.243.47.059 2.155 1.859 4.467 3.187 5.935.561.625 1.298 1.28 2.154 1.312 1.033.063 2.095-1.25 2.714-1.968 1.092-1.25 1.977-2.656 2.98-3.936 1.298-1.687 2.626-3.343 3.895-5.061.797-1.063 3.304-3.687 1.328-4.811zm-14.959 8.403c-.03 0-.059 0-.118.032a1.388 1.388 0 01-.325-.125c.089-.063.236-.032.443.093z" fill="#000"/></g><defs><clipPath id="clip0"><path fill="#fff" transform="translate(77 10)" d="M0 0h17v18H0z"/></clipPath><clipPath id="clip1"><path fill="#fff" transform="translate(247 10)" d="M0 0h17v18H0z"/></clipPath></defs></svg>