<svg width="18" height="19" viewBox="0 0 18 19" fill="none" xmlns="http://www.w3.org/2000/svg">
<g clip-path="url(#clip0)">
<path d="M9.2445 0.164063C4.31025 0.164813 1.6875 3.32606 1.6875 6.77306C1.6875 8.37131 2.58075 10.3656 4.011 10.9978C4.419 11.1816 4.365 10.9573 4.716 9.61481C4.74375 9.50306 4.7295 9.40631 4.6395 9.30206C2.595 6.93731 4.2405 2.07581 8.95275 2.07581C15.7725 2.07581 14.4983 11.5123 10.1393 11.5123C9.01575 11.5123 8.17875 10.6303 8.4435 9.53906C8.7645 8.23931 9.393 6.84206 9.393 5.90531C9.393 3.54431 5.8755 3.89456 5.8755 7.02281C5.8755 7.98956 6.2175 8.64206 6.2175 8.64206C6.2175 8.64206 5.08575 13.2141 4.87575 14.0683C4.52025 15.5143 4.92375 17.8551 4.959 18.0568C4.98075 18.1678 5.10525 18.2031 5.175 18.1116C5.28675 17.9653 6.65475 16.0138 7.038 14.6031C7.1775 14.0893 7.74975 12.0043 7.74975 12.0043C8.127 12.6853 9.2145 13.2553 10.3733 13.2553C13.8203 13.2553 16.3118 10.2253 16.3118 6.46556C16.2998 2.86106 13.215 0.164062 9.2445 0.164062V0.164063Z" fill="black"/>
</g>
<defs>
<clipPath id="clip0">
<rect width="18" height="18" fill="white" transform="translate(0 0.164062)"/>
</clipPath>
</defs>
</svg>
