<svg width="18" height="20" viewBox="0 0 18 20" fill="none" xmlns="http://www.w3.org/2000/svg">
<g clip-path="url(#clip0)">
<path d="M6.18314 7.50439C7.04791 7.32623 7.89173 7.08135 8.69323 6.81416C7.62806 4.75455 6.3097 2.89537 4.75928 1.32568C2.48119 2.61705 0.747914 4.92158 0.188965 7.67135C1.86595 8.0276 3.93666 7.9831 6.18314 7.50439Z" fill="black"/>
<path d="M14.7154 2.3943L14.5677 3.0066C14.3357 3.98629 12.374 5.38903 9.80059 6.40215L9.68454 6.44664C8.6404 4.36481 7.32204 2.47223 5.78223 0.835742C6.77363 0.423828 7.85993 0.164062 8.98844 0.164062C11.0029 0.164062 12.8802 0.913672 14.3779 2.10485C14.4939 2.19391 14.61 2.28301 14.7154 2.3943Z" fill="black"/>
<path d="M10.096 10.1207C9.82181 9.33026 9.51595 8.5621 9.17845 7.81616C8.29255 8.12792 7.35388 8.39511 6.39408 8.59546C5.34994 8.81812 3.98943 9.01851 2.55505 9.01851C1.73236 9.01851 0.853453 8.95171 0.0202848 8.78468C-0.000844081 9.07413 0.0237653 9.36362 0.0237653 9.66421C0.0237653 12.5921 1.28939 15.2083 3.26166 16.945C3.2722 16.8782 3.28278 16.8114 3.29326 16.7446C3.69408 14.1842 6.49958 11.4789 10.096 10.1207Z" fill="black"/>
<path d="M10.4442 11.167C11.1614 13.5494 11.5622 16.1359 11.6044 18.7522C10.7817 19.0194 9.89576 19.1641 8.98876 19.1641C7.29071 19.1641 5.69813 18.626 4.3481 17.7576C4.29536 17.4904 4.29536 17.2121 4.33762 16.9227C4.66457 14.8186 7.28017 12.3805 10.4442 11.167Z" fill="black"/>
<path d="M17.8937 11.0112C17.4508 14.2732 15.4012 17.0007 12.6379 18.3032C12.5641 15.7204 12.1422 13.2044 11.4355 10.8331C13.798 10.1429 16.0375 10.2208 17.8937 11.0112Z" fill="black"/>
<path d="M17.9887 9.66388V9.86427C15.9742 9.07381 13.5871 9.04044 11.098 9.78634C10.8238 8.98482 10.5074 8.20552 10.1699 7.44849C11.9035 6.76141 15.1388 5.1801 15.591 3.27368C17.0571 4.95466 17.9887 7.20349 17.9887 9.66388Z" fill="black"/>
</g>
<defs>
<clipPath id="clip0">
<rect width="18" height="19" fill="white" transform="translate(0 0.164062)"/>
</clipPath>
</defs>
</svg>
