<svg width="38" height="37" viewBox="0 0 38 37" fill="none" xmlns="http://www.w3.org/2000/svg">
<path d="M7.65039 35.1152H9.96289C10.1162 35.1152 10.2633 35.056 10.3717 34.9505C10.4801 34.845 10.541 34.7019 10.541 34.5527V18.0688C13.3142 17.0891 16.2733 16.7085 19.2129 16.9535V18.0076C19.2129 18.1213 19.2483 18.2324 19.3145 18.3261C19.3806 18.4198 19.4744 18.4918 19.5835 18.5327C22.0478 19.456 24.6659 19.9298 27.3066 19.9303C29.9474 19.9298 32.5655 19.4559 35.0298 18.5324C35.1389 18.4916 35.2327 18.4196 35.2988 18.3259C35.365 18.2322 35.4004 18.1211 35.4004 18.0074V5.63242C35.4004 5.54113 35.3775 5.45122 35.3338 5.37044C35.2901 5.28966 35.2269 5.22045 35.1495 5.16877C35.0722 5.1171 34.9831 5.08451 34.8899 5.07383C34.7967 5.06315 34.7023 5.07469 34.6147 5.10746C31.7357 6.18096 28.6445 6.60753 25.5723 6.3553V5.30272C25.5723 5.18902 25.5369 5.07799 25.4707 4.98426C25.4046 4.89054 25.3108 4.81852 25.2017 4.7777C20.4394 2.99235 15.1793 2.9156 10.3642 4.56121C10.1918 4.21883 9.90535 3.94333 9.55149 3.7796C9.19762 3.61587 8.7972 3.57355 8.41546 3.65954C8.03372 3.74553 7.69315 3.95476 7.44924 4.25314C7.20533 4.55152 7.07246 4.92147 7.07227 5.30272V34.5527C7.07227 34.7019 7.13318 34.845 7.24159 34.9505C7.35001 35.056 7.49706 35.1152 7.65039 35.1152ZM18.0566 15.7634V10.7015C20.2276 10.762 22.3745 11.1603 24.416 11.8813V16.8755C22.3659 16.1951 20.2219 15.8202 18.0566 15.7634ZM16.9004 9.57589C14.735 9.63319 12.591 10.0086 10.541 10.6894V5.69303C12.5825 4.97225 14.7295 4.57419 16.9004 4.51396V9.57589ZM10.541 11.8814C12.5825 11.1605 14.7295 10.7622 16.9004 10.7017V15.7635C14.7351 15.8203 12.5911 16.1953 10.541 16.8757V11.8814ZM20.3691 17.0825C21.8801 17.2939 23.3619 17.6697 24.7866 18.2029C24.8742 18.2357 24.9686 18.2472 25.0618 18.2365C25.155 18.2258 25.2442 18.1932 25.3215 18.1415C25.3988 18.0898 25.4621 18.0206 25.5058 17.9398C25.5495 17.859 25.5723 17.769 25.5723 17.6777V13.3415C25.957 13.3717 26.3424 13.3918 26.7285 13.4019V18.7962C24.5576 18.7359 22.4107 18.3379 20.3691 17.6172V17.0825ZM27.8848 18.7963V13.4003C30.0497 13.3419 32.1933 12.9679 34.2441 12.2908V17.6172C32.2026 18.3379 30.0556 18.7359 27.8848 18.7962V18.7963ZM34.2441 11.0993C32.2019 11.8171 30.0553 12.2142 27.8848 12.2757V7.54225C30.0496 7.48444 32.1932 7.11095 34.2441 6.43426V11.0993ZM26.7285 7.54323V12.2767C26.3425 12.2663 25.9571 12.2452 25.5723 12.2134V7.48339C25.957 7.51358 26.3424 7.53353 26.7285 7.54323ZM24.416 10.6893C22.366 10.0085 20.222 9.63305 18.0566 9.57575V4.51396C20.2275 4.57419 22.3745 4.97225 24.416 5.69303V10.6893ZM8.22852 5.30272C8.22852 5.15354 8.28943 5.01046 8.39784 4.90498C8.50626 4.79949 8.65331 4.74022 8.80664 4.74022C8.95997 4.74022 9.10702 4.79949 9.21544 4.90498C9.32386 5.01046 9.38477 5.15354 9.38477 5.30272V33.9902H8.22852V5.30272Z" fill="white"/>
</svg>
