<svg width="38" height="38" viewBox="0 0 38 38" fill="none" xmlns="http://www.w3.org/2000/svg">
<g clip-path="url(#clip0)">
<path d="M36.5723 7.09961C36.7256 7.09961 36.8726 7.0387 36.9811 6.93028C37.0895 6.82186 37.1504 6.67481 37.1504 6.52148V1.89648C37.1504 1.74316 37.0895 1.59611 36.9811 1.48769C36.8726 1.37927 36.7256 1.31836 36.5723 1.31836H31.9473C31.7939 1.31836 31.6469 1.37927 31.5385 1.48769C31.43 1.59611 31.3691 1.74316 31.3691 1.89648V3.63086H7.08789V1.89648C7.08789 1.74316 7.02698 1.59611 6.91856 1.48769C6.81014 1.37927 6.66309 1.31836 6.50977 1.31836H1.88477C1.73144 1.31836 1.58439 1.37927 1.47597 1.48769C1.36755 1.59611 1.30664 1.74316 1.30664 1.89648V6.52148C1.30664 6.67481 1.36755 6.82186 1.47597 6.93028C1.58439 7.0387 1.73144 7.09961 1.88477 7.09961H3.61914V31.3809H1.88477C1.73144 31.3809 1.58439 31.4418 1.47597 31.5502C1.36755 31.6586 1.30664 31.8057 1.30664 31.959V36.584C1.30664 36.7373 1.36755 36.8844 1.47597 36.9928C1.58439 37.1012 1.73144 37.1621 1.88477 37.1621H6.50977C6.66309 37.1621 6.81014 37.1012 6.91856 36.9928C7.02698 36.8844 7.08789 36.7373 7.08789 36.584V34.8496H31.3691V36.584C31.3691 36.7373 31.43 36.8844 31.5385 36.9928C31.6469 37.1012 31.7939 37.1621 31.9473 37.1621H36.5723C36.7256 37.1621 36.8726 37.1012 36.9811 36.9928C37.0895 36.8844 37.1504 36.7373 37.1504 36.584V31.959C37.1504 31.8057 37.0895 31.6586 36.9811 31.5502C36.8726 31.4418 36.7256 31.3809 36.5723 31.3809H34.8379V7.09961H36.5723ZM2.46289 5.94336V2.47461H5.93164V5.94336H2.46289ZM5.93164 36.0059H2.46289V32.5371H5.93164V36.0059ZM31.3691 31.959V33.6934H7.08789V31.959C7.08789 31.8057 7.02698 31.6586 6.91856 31.5502C6.81014 31.4418 6.66309 31.3809 6.50977 31.3809H4.77539V7.09961H6.50977C6.66309 7.09961 6.81014 7.0387 6.91856 6.93028C7.02698 6.82186 7.08789 6.67481 7.08789 6.52148V4.78711H31.3691V6.52148C31.3691 6.67481 31.43 6.82186 31.5385 6.93028C31.6469 7.0387 31.7939 7.09961 31.9473 7.09961H33.6816V31.3809H31.9473C31.7939 31.3809 31.6469 31.4418 31.5385 31.5502C31.43 31.6586 31.3691 31.8057 31.3691 31.959ZM35.9941 32.5371V36.0059H32.5254V32.5371H35.9941ZM32.5254 5.94336V2.47461H35.9941V5.94336H32.5254Z" fill="white"/>
<path d="M26.166 10.5684H12.291C12.1377 10.5684 11.9906 10.6293 11.8822 10.7377C11.7738 10.8461 11.7129 10.9932 11.7129 11.1465V15.7715C11.7129 15.9248 11.7738 16.0719 11.8822 16.1803C11.9906 16.2887 12.1377 16.3496 12.291 16.3496H13.375C13.501 16.3496 13.6235 16.3085 13.724 16.2324C13.8244 16.1563 13.8973 16.0496 13.9314 15.9283L14.4633 14.0371H17.4941V25.1479L15.6196 25.617C15.4945 25.6482 15.3835 25.7204 15.3041 25.822C15.2248 25.9236 15.1817 26.0488 15.1816 26.1777V27.334C15.1816 27.4873 15.2425 27.6344 15.351 27.7428C15.4594 27.8512 15.6064 27.9121 15.7598 27.9121H22.6973C22.8506 27.9121 22.9976 27.8512 23.1061 27.7428C23.2145 27.6344 23.2754 27.4873 23.2754 27.334V26.1777C23.2754 26.0488 23.2323 25.9236 23.1529 25.822C23.0736 25.7204 22.9625 25.6482 22.8375 25.617L20.9629 25.1479V14.0371H23.9937L24.5256 15.9283C24.5598 16.0496 24.6326 16.1563 24.7331 16.2324C24.8335 16.3085 24.956 16.3496 25.082 16.3496H26.166C26.3193 16.3496 26.4664 16.2887 26.5748 16.1803C26.6832 16.0719 26.7441 15.9248 26.7441 15.7715V11.1465C26.7441 10.9932 26.6832 10.8461 26.5748 10.7377C26.4664 10.6293 26.3193 10.5684 26.166 10.5684ZM25.5879 15.1934H25.52L24.9881 13.3022C24.9539 13.1809 24.8811 13.0741 24.7806 12.9981C24.6802 12.922 24.5576 12.8809 24.4316 12.8809H20.3848C20.2314 12.8809 20.0844 12.9418 19.976 13.0502C19.8675 13.1586 19.8066 13.3057 19.8066 13.459V25.5996C19.8067 25.7285 19.8498 25.8537 19.9291 25.9553C20.0085 26.057 20.1195 26.1291 20.2446 26.1604L22.1191 26.6294V26.7559H16.3379V26.6294L18.2125 26.1604C18.3375 26.1291 18.4486 26.057 18.5279 25.9553C18.6073 25.8537 18.6504 25.7285 18.6504 25.5996V13.459C18.6504 13.3057 18.5895 13.1586 18.4811 13.0502C18.3726 12.9418 18.2256 12.8809 18.0723 12.8809H14.0254C13.8994 12.8809 13.7769 12.922 13.6764 12.9981C13.576 13.0741 13.5031 13.1809 13.4689 13.3022L12.9371 15.1934H12.8691V11.7246H25.5879V15.1934Z" fill="white"/>
<path d="M26.7441 29.0684H11.7129C11.5596 29.0684 11.4125 29.1293 11.3041 29.2377C11.1957 29.3461 11.1348 29.4932 11.1348 29.6465C11.1348 29.7998 11.1957 29.9469 11.3041 30.0553C11.4125 30.1637 11.5596 30.2246 11.7129 30.2246H26.7441C26.8975 30.2246 27.0445 30.1637 27.1529 30.0553C27.2614 29.9469 27.3223 29.7998 27.3223 29.6465C27.3223 29.4932 27.2614 29.3461 27.1529 29.2377C27.0445 29.1293 26.8975 29.0684 26.7441 29.0684Z" fill="white"/>
<path d="M21.541 30.8027H16.916C16.7627 30.8027 16.6156 30.8636 16.5072 30.9721C16.3988 31.0805 16.3379 31.2275 16.3379 31.3809C16.3379 31.5342 16.3988 31.6812 16.5072 31.7897C16.6156 31.8981 16.7627 31.959 16.916 31.959H21.541C21.6943 31.959 21.8414 31.8981 21.9498 31.7897C22.0582 31.6812 22.1191 31.5342 22.1191 31.3809C22.1191 31.2275 22.0582 31.0805 21.9498 30.9721C21.8414 30.8636 21.6943 30.8027 21.541 30.8027Z" fill="white"/>
</g>
<defs>
<clipPath id="clip0">
<rect width="37" height="37" fill="white" transform="translate(0.728516 0.740234)"/>
</clipPath>
</defs>
</svg>
