<?xml version="1.0" encoding="utf-8"?><svg viewBox="0 0 65 65" xmlns="http://www.w3.org/2000/svg" xmlns:xlink="http://www.w3.org/1999/xlink"><style>:root>svg{display:none}:root>svg:target{display:block}</style><svg fill="none" viewBox="0 0 65 65" id="icon-advantages-1" xmlns="http://www.w3.org/2000/svg"><path d="M32.5 26.875a5.625 5.625 0 100 11.25 5.625 5.625 0 000-11.25zm0 9.727a4.102 4.102 0 110-8.204 4.102 4.102 0 010 8.204z" fill="url(#apaint0_linear)"/><path d="M62.969 31.547h-.005l-7.961.05c-.464-11.702-9.898-21.136-21.6-21.6l.05-7.96a.761.761 0 10-1.523-.01l-.05 7.96c-11.927.323-21.57 9.965-21.894 21.893l-7.96.05a.762.762 0 10.005 1.524h.005l7.96-.05c.465 11.701 9.899 21.135 21.6 21.599l-.05 7.961a.76.76 0 00.758.767h.004a.762.762 0 00.762-.757l.05-7.96c11.928-.325 21.57-9.966 21.894-21.894l7.96-.05a.762.762 0 10-.005-1.523zm-9.49.06l-4.042.025a16.983 16.983 0 00-16.069-16.07l.026-4.04c10.87.457 19.627 9.215 20.085 20.084zm-12.02 1.599h.005l6.457-.04A15.456 15.456 0 0133.165 47.92l.039-6.19a.764.764 0 00-.757-.767h-.005a.762.762 0 00-.762.757l-.039 6.19A15.457 15.457 0 0117.088 33.36l5.37-.034a.762.762 0 00-.009-1.524l-5.37.034A15.456 15.456 0 0131.835 17.08l-.037 5.931a.763.763 0 00.757.767h.005a.762.762 0 00.761-.757l.038-5.932a15.457 15.457 0 0114.553 14.553l-6.457.04a.762.762 0 00.004 1.525zM31.87 11.51l-.025 4.043a16.98 16.98 0 00-16.29 16.29l-4.044.026c.328-11.08 9.28-20.03 20.36-20.359zM11.521 33.394l4.041-.026a16.984 16.984 0 0016.07 16.07l-.026 4.04c-10.87-.457-19.627-9.215-20.085-20.084zM33.13 53.489l.025-4.043a16.98 16.98 0 0016.29-16.29l4.044-.026c-.328 11.08-9.28 20.03-20.36 20.359z" fill="url(#apaint1_linear)"/><defs><linearGradient id="apaint0_linear" x1="28.151" y1="26.381" x2="42.024" y2="34.843" gradientUnits="userSpaceOnUse"><stop offset=".06" stop-color="#05237D"/><stop offset=".973" stop-color="#5882FF"/></linearGradient><linearGradient id="apaint1_linear" x1="8.351" y1="-1.47" x2="85.376" y2="45.515" gradientUnits="userSpaceOnUse"><stop offset=".06" stop-color="#05237D"/><stop offset=".973" stop-color="#5882FF"/></linearGradient></defs></svg><svg fill="none" viewBox="0 0 65 65" id="icon-advantages-2" xmlns="http://www.w3.org/2000/svg"><path d="M22.456 46.4c1.675 1 2.675 2.725 2.675 4.616v5.294a1.069 1.069 0 00.619.965v5.388a1.072 1.072 0 001.073 1.068h11.201a1.072 1.072 0 001.073-1.069v-5.47a1.067 1.067 0 00.47-.882v-5.205a5.324 5.324 0 012.635-4.591 19.235 19.235 0 006.871-6.8A18.765 18.765 0 0046.106 16.8a19.429 19.429 0 00-27.28-.047c-3.62 3.561-5.634 8.275-5.668 13.274a18.75 18.75 0 002.53 9.538 19.23 19.23 0 006.768 6.835zm9.27.544c.004-.561-.063-2.956-.45-4.324l-.914-3.004h3.806c-.527 1.216-.76 3.33-.761 4.28l-.375 11.958h-1.01l-.296-8.91zm5.848 10.434v1.653H27.273v-1.653h10.3zm-10.301 4.83v-1.654h10.3v1.653h-10.3zm-7.38-44.37a17.905 17.905 0 0125.139.042 17.242 17.242 0 012.73 21.057 17.707 17.707 0 01-6.326 6.258 6.851 6.851 0 00-3.393 5.909v4.75h-3.487l.373-11.92v-.025c0-1.087.31-3.2.74-3.891l.226-.365a1.022 1.022 0 00-.874-1.56h-5.328a1.068 1.068 0 00-.934.516 1.054 1.054 0 00.023 1.052l1.03 3.381c.289 1.029.398 3.082.39 3.904v.017l.296 8.891h-3.843v-4.838a6.959 6.959 0 00-3.419-5.924 17.703 17.703 0 01-6.232-6.292 17.223 17.223 0 01-2.323-8.763c.032-4.591 1.883-8.924 5.213-12.198z" fill="url(#bpaint0_linear)"/><path d="M52.78 30.012a.762.762 0 00.761.761h6.254a.761.761 0 100-1.523H53.54a.762.762 0 00-.762.762z" fill="url(#bpaint1_linear)"/><path d="M5.205 30.773h5.034a.762.762 0 100-1.523H5.205a.762.762 0 000 1.523z" fill="url(#bpaint2_linear)"/><path d="M6.467 18.796l5.206 2.395a.762.762 0 00.637-1.383l-5.205-2.396a.762.762 0 00-.637 1.384z" fill="url(#bpaint3_linear)"/><path d="M53.053 21.522c.11 0 .218-.024.318-.07l5.206-2.395a.76.76 0 00.381-1.014.76.76 0 00-1.018-.37l-5.205 2.396a.762.762 0 00.319 1.453z" fill="url(#bpaint4_linear)"/><path d="M32.5 9.48a.762.762 0 00.762-.763V2.031a.762.762 0 10-1.524 0v6.686a.762.762 0 00.762.762z" fill="url(#bpaint5_linear)"/><path d="M18.329 12.783a.762.762 0 101.069-1.086l-4.612-4.54a.76.76 0 10-1.07 1.086l4.613 4.54z" fill="url(#bpaint6_linear)"/><path d="M46.133 13.553a.76.76 0 00.535-.219l4.682-4.608A.761.761 0 0050.28 7.64l-4.682 4.609a.761.761 0 00.534 1.304z" fill="url(#bpaint7_linear)"/><path d="M18.18 31.537a.762.762 0 00.762-.762c0-1.08.127-2.156.38-3.206a.761.761 0 00-1.48-.359 15.148 15.148 0 00-.424 3.565.762.762 0 00.762.762z" fill="url(#bpaint8_linear)"/><path d="M19.557 24.594a.763.763 0 001.033-.304 13.562 13.562 0 0111.91-7.073.762.762 0 100-1.524 15.086 15.086 0 00-13.247 7.867.76.76 0 00.304 1.034z" fill="url(#bpaint9_linear)"/><defs><linearGradient id="bpaint0_linear" x1="17.527" y1="8.879" x2="71.852" y2="33.177" gradientUnits="userSpaceOnUse"><stop offset=".06" stop-color="#05237D"/><stop offset=".973" stop-color="#5882FF"/></linearGradient><linearGradient id="bpaint1_linear" x1="53.661" y1="29.183" x2="54.892" y2="33.014" gradientUnits="userSpaceOnUse"><stop offset=".06" stop-color="#05237D"/><stop offset=".973" stop-color="#5882FF"/></linearGradient><linearGradient id="bpaint2_linear" x1="5.187" y1="29.183" x2="6.593" y2="32.874" gradientUnits="userSpaceOnUse"><stop offset=".06" stop-color="#05237D"/><stop offset=".973" stop-color="#5882FF"/></linearGradient><linearGradient id="bpaint3_linear" x1="6.794" y1="17.174" x2="12.214" y2="22.847" gradientUnits="userSpaceOnUse"><stop offset=".06" stop-color="#05237D"/><stop offset=".973" stop-color="#5882FF"/></linearGradient><linearGradient id="bpaint4_linear" x1="53.055" y1="17.428" x2="58.49" y2="23.12" gradientUnits="userSpaceOnUse"><stop offset=".06" stop-color="#05237D"/><stop offset=".973" stop-color="#5882FF"/></linearGradient><linearGradient id="bpaint5_linear" x1="31.911" y1=".909" x2="34.456" y2="1.198" gradientUnits="userSpaceOnUse"><stop offset=".06" stop-color="#05237D"/><stop offset=".973" stop-color="#5882FF"/></linearGradient><linearGradient id="bpaint6_linear" x1="14.184" y1="6.672" x2="21.704" y2="11.313" gradientUnits="userSpaceOnUse"><stop offset=".06" stop-color="#05237D"/><stop offset=".973" stop-color="#5882FF"/></linearGradient><linearGradient id="bpaint7_linear" x1="46.075" y1="7.153" x2="53.676" y2="11.845" gradientUnits="userSpaceOnUse"><stop offset=".06" stop-color="#05237D"/><stop offset=".973" stop-color="#5882FF"/></linearGradient><linearGradient id="bpaint8_linear" x1="17.637" y1="26.418" x2="20.717" y2="27.155" gradientUnits="userSpaceOnUse"><stop offset=".06" stop-color="#05237D"/><stop offset=".973" stop-color="#5882FF"/></linearGradient><linearGradient id="bpaint9_linear" x1="20.759" y1="15.299" x2="33.22" y2="27.216" gradientUnits="userSpaceOnUse"><stop offset=".06" stop-color="#05237D"/><stop offset=".973" stop-color="#5882FF"/></linearGradient></defs></svg><svg fill="none" viewBox="0 0 65 65" id="icon-advantages-3" xmlns="http://www.w3.org/2000/svg"><path d="M56.784 35.636l-.352.193c-1.28-1.607-3.525-2.234-5.23-1.355l-.018.009-.784.428a5.646 5.646 0 00-6.571-.62l-4.096 2.263h-5.447a7.786 7.786 0 01-3.417-.796l-.748-.368a12.62 12.62 0 00-13.357 1.36l-1.805 1.634a6.287 6.287 0 01-2.424 1.366l-1.043-3.477a.761.761 0 00-.73-.543H2.032a.763.763 0 00-.756.853l2.91 24.255a.761.761 0 00.757.67h13.097a.762.762 0 00.73-.98l-1.738-5.79 5.402-3.47a3.221 3.221 0 012.432-.305l10.9 2.04c2.956.537 6.006.1 8.692-1.247a.755.755 0 00.093-.056l18.855-13.155a.762.762 0 00.219-1.013 5.083 5.083 0 00-6.84-1.896zm-4.878.188c.981-.5 2.31-.145 3.16.754l-7.235 3.966-.467.25a6.264 6.264 0 00-1.04-1.914l5.582-3.056zm-7.332-.204l.018-.01a4.12 4.12 0 014.347.102L45.18 37.77a6.08 6.08 0 00-2.497-1.105l1.89-1.045zM5.617 59.985L2.89 37.254h7.306l6.82 22.731H5.616zm38.107-9.566a12.331 12.331 0 01-7.68 1.086L25.167 49.47a4.739 4.739 0 00-3.54.504l-5.052 3.245-3.603-12.01a7.808 7.808 0 003.008-1.695l1.782-1.612a11.103 11.103 0 0111.686-1.144l.748.367a9.32 9.32 0 004.089.952h7.251c2.285 0 4.19 1.696 4.563 3.917l-5.322-.245a30.954 30.954 0 00-5.713.269.762.762 0 00.213 1.508 29.408 29.408 0 015.43-.255l6.186.285h.035a.762.762 0 00.762-.761c0-.148-.007-.294-.017-.439l.883-.473 8.96-4.912a3.555 3.555 0 014.38.767L43.725 50.42z" fill="url(#cpaint0_linear)"/><path d="M8.297 56.503a2.508 2.508 0 102.508-2.536 2.525 2.525 0 00-2.508 2.536zm2.508-1.013a1.013 1.013 0 11-.985 1.013 1 1 0 01.985-1.013z" fill="url(#cpaint1_linear)"/><path d="M36.163 3.491c-7.635 0-13.847 6.205-13.847 13.83 0 7.627 6.212 13.831 13.847 13.831 7.636 0 13.847-6.204 13.847-13.83S43.8 3.492 36.163 3.492zm0 26.138a12.306 12.306 0 1112.324-12.307 12.33 12.33 0 01-12.324 12.307z" fill="url(#cpaint2_linear)"/><path d="M36.51 11.685a2.57 2.57 0 012.484 1.891.761.761 0 101.482-.352 4.115 4.115 0 00-3.352-3.006v-.963a.762.762 0 00-1.523 0v.966a3.387 3.387 0 00-1.823.899c-1.075 1.046-1.139 2.526-1.132 2.955.023 1.65 1.255 3.044 2.993 3.388l.153.03.388.078c.056.01.202.055.264.074a.536.536 0 01.095.037l.24.093a.635.635 0 01.061.028c.113.058.14.075.222.123l.125.074.026.017.026.016c.247.153 1.479.97 1.528 2.16.03.723-.154 1.272-.561 1.678-.625.624-1.631.755-2.13.733a3.014 3.014 0 01-1.434-.534c-.368-.254-.822-.695-.894-1.347a.764.764 0 00-1.127-.594.76.76 0 00-.387.76c.201 1.831 1.965 2.955 3.366 3.192v.815a.762.762 0 001.524 0v-.858a4.172 4.172 0 002.158-1.089c.705-.704 1.054-1.679 1.007-2.818-.079-1.906-1.734-3.075-2.253-3.395a4.113 4.113 0 00-.07-.044l-.127-.076c-.1-.059-.154-.09-.3-.166a2.174 2.174 0 00-.21-.095l-.224-.087a2.064 2.064 0 00-.216-.08 4.384 4.384 0 00-.419-.112L36.09 16l-.155-.03c-1.205-.24-1.755-1.135-1.767-1.916-.008-.567.165-1.348.672-1.843.39-.379.951-.557 1.67-.526z" fill="url(#cpaint3_linear)"/><defs><linearGradient id="cpaint0_linear" x1="8.353" y1="32.288" x2="45.404" y2="82.713" gradientUnits="userSpaceOnUse"><stop offset=".06" stop-color="#05237D"/><stop offset=".973" stop-color="#5882FF"/></linearGradient><linearGradient id="cpaint1_linear" x1="8.865" y1="53.747" x2="15.051" y2="57.52" gradientUnits="userSpaceOnUse"><stop offset=".06" stop-color="#05237D"/><stop offset=".973" stop-color="#5882FF"/></linearGradient><linearGradient id="cpaint2_linear" x1="25.456" y1="2.278" x2="59.585" y2="23.12" gradientUnits="userSpaceOnUse"><stop offset=".06" stop-color="#05237D"/><stop offset=".973" stop-color="#5882FF"/></linearGradient><linearGradient id="cpaint3_linear" x1="33.166" y1="7.74" x2="46.044" y2="11.524" gradientUnits="userSpaceOnUse"><stop offset=".06" stop-color="#05237D"/><stop offset=".973" stop-color="#5882FF"/></linearGradient></defs></svg><svg fill="none" viewBox="0 0 65 65" id="icon-advantages-4" xmlns="http://www.w3.org/2000/svg"><path d="M51.822 44.243h4.77a.762.762 0 000-1.523h-4.77a.762.762 0 000 1.523z" fill="url(#dpaint0_linear)"/><path d="M4.57 51.042h20.48v2.749a3.291 3.291 0 003.3 3.275h32.08a3.292 3.292 0 003.3-3.275v-10.97c0-5.15-4.23-9.342-9.431-9.342H39.336a9.437 9.437 0 00-8.818-6.023h-16.64c-6.952 0-12.608 5.601-12.608 12.486v7.825a3.292 3.292 0 003.3 3.275zm57.637-8.22v10.97a1.766 1.766 0 01-1.777 1.75H28.35a1.766 1.766 0 01-1.777-1.751v-10.97c0-4.31 3.548-7.818 7.909-7.818h6.889l.959 2.77c.055.193.157.37.296.516L40.5 49.05a.76.76 0 00.165.64l3.105 3.677a.763.763 0 00.577.27h.005a.762.762 0 00.576-.264l3.181-3.677a.762.762 0 00.175-.63l-1.94-11.038c.045-.081.08-.167.107-.256l.959-2.77h6.889c4.36 0 7.908 3.508 7.908 7.82zm-17.295-4.143l1.809 10.294-2.361 2.73-2.294-2.718 2.036-10.306h.81zm.886-3.677l-.746 2.154h-1.323l-.746-2.154h2.815zM20.32 32.656h.81l1.81 10.293-2.362 2.73-2.294-2.717 2.036-10.306zm1.696-3.677l-.746 2.153h-1.323l-.746-2.153h2.815zM2.793 39.94c0-6.045 4.973-10.962 11.085-10.962h3.712l.96 2.77c.055.193.156.37.295.516L16.72 43.026a.762.762 0 00.165.64l3.105 3.676a.76.76 0 00.577.27h.005a.764.764 0 00.576-.263l3.181-3.677a.76.76 0 00.174-.63l-1.939-11.038c.045-.081.08-.167.106-.256l.96-2.77h6.888a7.922 7.922 0 017.162 4.5h-3.198c-5.2 0-9.432 4.191-9.432 9.343v6.698H4.57a1.767 1.767 0 01-1.777-1.752v-7.826z" fill="url(#dpaint1_linear)"/><path d="M21.065 26.085c5.052 0 9.162-4.071 9.162-9.075s-4.11-9.075-9.162-9.075c-5.052 0-9.162 4.07-9.162 9.075 0 5.004 4.11 9.075 9.162 9.075zm0-16.627c4.212 0 7.639 3.388 7.639 7.552s-3.427 7.551-7.64 7.551c-4.211 0-7.638-3.387-7.638-7.551 0-4.165 3.427-7.552 7.639-7.552z" fill="url(#dpaint2_linear)"/><path d="M44.39 32.026c5.052 0 9.162-4.071 9.162-9.075s-4.11-9.075-9.162-9.075c-5.052 0-9.162 4.071-9.162 9.075s4.11 9.075 9.162 9.075zm0-16.627c4.212 0 7.639 3.388 7.639 7.552s-3.427 7.551-7.639 7.551-7.639-3.387-7.639-7.551c0-4.165 3.427-7.552 7.64-7.552z" fill="url(#dpaint3_linear)"/><defs><linearGradient id="dpaint0_linear" x1="51.774" y1="42.653" x2="53.223" y2="46.304" gradientUnits="userSpaceOnUse"><stop offset=".06" stop-color="#05237D"/><stop offset=".973" stop-color="#5882FF"/></linearGradient><linearGradient id="dpaint1_linear" x1="8.353" y1="26.157" x2="48.148" y2="77.361" gradientUnits="userSpaceOnUse"><stop offset=".06" stop-color="#05237D"/><stop offset=".973" stop-color="#5882FF"/></linearGradient><linearGradient id="dpaint2_linear" x1="13.981" y1="7.138" x2="36.46" y2="20.981" gradientUnits="userSpaceOnUse"><stop offset=".06" stop-color="#05237D"/><stop offset=".973" stop-color="#5882FF"/></linearGradient><linearGradient id="dpaint3_linear" x1="37.306" y1="13.08" x2="59.785" y2="26.922" gradientUnits="userSpaceOnUse"><stop offset=".06" stop-color="#05237D"/><stop offset=".973" stop-color="#5882FF"/></linearGradient></defs></svg><svg fill="none" viewBox="0 0 13 13" id="icon-blog-calendar" xmlns="http://www.w3.org/2000/svg"><g clip-path="url(#eclip0)" fill="#757883"><path d="M11.51 13H1.49A1.49 1.49 0 010 11.51V2.573c0-.822.668-1.49 1.49-1.49h10.02c.822 0 1.49.668 1.49 1.49v8.937A1.49 1.49 0 0111.51 13zM1.49 1.896a.678.678 0 00-.677.677v8.937c0 .373.303.677.677.677h10.02a.678.678 0 00.678-.677V2.573a.678.678 0 00-.678-.677H1.49z"/><path d="M12.594 5.146H.406a.406.406 0 010-.813h12.188a.406.406 0 010 .813zM3.115 3.25a.406.406 0 01-.407-.406V.406a.406.406 0 01.813 0v2.438a.406.406 0 01-.406.406zM9.885 3.25a.406.406 0 01-.406-.406V.406a.406.406 0 01.813 0v2.438a.406.406 0 01-.407.406z"/></g><defs><clipPath id="eclip0"><path fill="#fff" d="M0 0h13v13H0z"/></clipPath></defs></svg><svg fill="none" viewBox="0 0 14 14" id="icon-blog-comment" xmlns="http://www.w3.org/2000/svg"><g clip-path="url(#fclip0)"><path d="M2.038 13.164h-.992l.701-.702c.378-.378.615-.87.678-1.404-.987-.647-1.708-1.5-2.095-2.477-.386-.976-.434-2.051-.14-3.108.353-1.269 1.181-2.425 2.332-3.256 1.25-.903 2.807-1.38 4.501-1.38 2.135 0 3.934.613 5.204 1.773C13.37 3.656 14 5.066 14 6.58c0 .736-.15 1.453-.445 2.129a5.477 5.477 0 01-1.332 1.852c-1.27 1.165-3.069 1.78-5.2 1.78a9.46 9.46 0 01-2.353-.298 3.676 3.676 0 01-2.632 1.12zM7.023 1.658c-3.397 0-5.482 2.027-6.041 4.035-.529 1.898.25 3.691 2.083 4.797l.204.124-.006.239a3.236 3.236 0 01-.327 1.34 2.912 2.912 0 001.287-.88l.174-.205.257.077a8.501 8.501 0 002.37.335c4.228 0 6.154-2.56 6.154-4.94 0-1.28-.535-2.475-1.506-3.363-1.115-1.02-2.723-1.559-4.649-1.559z" fill="#A3A3A3"/></g><defs><clipPath id="fclip0"><path fill="#fff" d="M0 0h14v14H0z"/></clipPath></defs></svg><svg fill="none" viewBox="0 0 14 14" id="icon-blog-eye" xmlns="http://www.w3.org/2000/svg"><path d="M13.911 6.728c-.125-.171-3.105-4.19-6.911-4.19-3.806 0-6.786 4.019-6.911 4.19a.462.462 0 000 .544c.125.172 3.105 4.19 6.91 4.19 3.807 0 6.787-4.019 6.912-4.19a.461.461 0 000-.544zM7 10.538c-2.804 0-5.232-2.666-5.95-3.538.717-.873 3.14-3.538 5.95-3.538 2.803 0 5.231 2.666 5.95 3.538-.717.873-3.14 3.539-5.95 3.539z" fill="#A3A3A3"/><path d="M7 4.23A2.772 2.772 0 004.23 7 2.772 2.772 0 007 9.77 2.772 2.772 0 009.77 7 2.772 2.772 0 007 4.23zm0 4.616A1.848 1.848 0 015.154 7c0-1.018.828-1.846 1.846-1.846 1.018 0 1.846.828 1.846 1.846A1.848 1.848 0 017 8.846z" fill="#A3A3A3"/></svg><svg fill="none" viewBox="0 0 14 14" id="icon-blog-share" xmlns="http://www.w3.org/2000/svg"><path d="M11.22 4.375a2.19 2.19 0 01-2.187-2.188A2.19 2.19 0 0111.22 0a2.19 2.19 0 012.188 2.188 2.19 2.19 0 01-2.188 2.187zm0-3.5c-.723 0-1.312.589-1.312 1.313 0 .723.589 1.312 1.312 1.312.723 0 1.313-.589 1.313-1.313 0-.723-.59-1.312-1.313-1.312zM11.22 14a2.19 2.19 0 01-2.187-2.188 2.19 2.19 0 012.187-2.187 2.19 2.19 0 012.188 2.188A2.19 2.19 0 0111.22 14zm0-3.5c-.723 0-1.312.588-1.312 1.313 0 .723.589 1.312 1.312 1.312.723 0 1.313-.588 1.313-1.313 0-.723-.59-1.312-1.313-1.312zM2.762 9.188A2.19 2.19 0 01.574 7a2.19 2.19 0 012.188-2.188A2.19 2.19 0 014.949 7a2.19 2.19 0 01-2.187 2.188zm0-3.5c-.724 0-1.313.588-1.313 1.312 0 .724.59 1.313 1.313 1.313S4.074 7.723 4.074 7s-.589-1.313-1.312-1.313z" fill="#A3A3A3"/><path d="M4.285 6.574a.436.436 0 01-.217-.817L9.48 2.67a.437.437 0 01.433.76L4.5 6.517a.438.438 0 01-.216.057zM9.697 11.387a.434.434 0 01-.216-.058L4.068 8.243a.437.437 0 01.433-.76l5.413 3.086a.438.438 0 01-.217.818z" fill="#A3A3A3"/></svg><svg fill="none" viewBox="0 0 18 18" id="icon-contact-mail" xmlns="http://www.w3.org/2000/svg"><path d="M17.988 3.877a.552.552 0 00-.023-.113c-.088-.535-.53-.951-1.09-.951H1.125c-.56 0-1.002.416-1.09.951a.554.554 0 00-.023.113c0 .021-.012.04-.012.06v10.126c0 .02.011.04.012.061.005.039.01.075.023.112.086.534.53.951 1.09.951h15.75c.56 0 1.003-.417 1.09-.952a.541.541 0 00.023-.112c0-.02.012-.04.012-.06V3.937c0-.02-.011-.039-.012-.06zm-1.502.06l-6.244 4.58L9 9.426l-1.24-.91h-.002l-6.244-4.58h14.972zM1.125 5.048l5.391 3.954-5.391 3.952V5.048zm.39 9.015L7.467 9.7l1.199.88a.56.56 0 00.666 0l1.2-.88 5.953 4.364H1.514zm15.36-1.109l-5.391-3.952 5.391-3.953v7.905z" fill="#FF003F"/></svg><svg fill="none" viewBox="0 0 18 18" id="icon-contact-map" xmlns="http://www.w3.org/2000/svg"><path d="M9 0a6.757 6.757 0 00-6.75 6.75c0 4.679 6.093 10.826 6.352 11.086a.565.565 0 00.796 0c.259-.26 6.352-6.407 6.352-11.086A6.757 6.757 0 009 0zm0 16.624c-1.343-1.438-5.625-6.3-5.625-9.874A5.631 5.631 0 019 1.125a5.631 5.631 0 015.625 5.625c0 3.57-4.282 8.436-5.625 9.874z" fill="#FF003F"/><path d="M9 3.375A3.38 3.38 0 005.625 6.75 3.38 3.38 0 009 10.125a3.38 3.38 0 003.375-3.375A3.38 3.38 0 009 3.375zM9 9C7.76 9 6.75 7.99 6.75 6.75S7.76 4.5 9 4.5s2.25 1.01 2.25 2.25S10.24 9 9 9z" fill="#FF003F"/></svg><svg fill="none" viewBox="0 0 18 18" id="icon-contact-tel" xmlns="http://www.w3.org/2000/svg"><g clip-path="url(#kclip0)" fill="#FF003F"><path d="M17.997 3.463a.562.562 0 00-.207-.384 13.962 13.962 0 00-4.61-2.45.563.563 0 00-.135-.04 14.27 14.27 0 00-8.087 0c-.027.005-.052.011-.077.018l-.06.023a13.952 13.952 0 00-4.61 2.449.566.566 0 00-.078.803l1.824 2.147c.195.232.54.267.778.078 1-.793 2.12-1.377 3.331-1.735a.56.56 0 00.377-.71l-.677-2.13c2.1-.54 4.369-.54 6.47 0l-.678 2.13a.562.562 0 00.377.71c1.21.358 2.33.942 3.33 1.735a.56.56 0 00.78-.078l1.822-2.148a.562.562 0 00.13-.418zM2.471 4.898L1.374 3.604a12.818 12.818 0 013.314-1.745l.513 1.611c-.972.343-1.887.821-2.73 1.428zm13.06 0A10.938 10.938 0 0012.8 3.47l.512-1.61a12.86 12.86 0 013.315 1.744L15.53 4.898z"/><path d="M11.812 6.746h-.562V5.059a.563.563 0 00-1.125 0v1.687h-2.25V5.059a.563.563 0 00-1.125 0v1.687h-.562A6.194 6.194 0 000 12.933v3.938c0 .62.505 1.125 1.125 1.125h15.75c.62 0 1.125-.506 1.125-1.125v-3.938a6.194 6.194 0 00-6.188-6.187zm5.063 10.125H1.125v-3.938a5.068 5.068 0 015.063-5.062h5.624a5.068 5.068 0 015.063 5.062v3.938z"/><path d="M9 8.996a3.379 3.379 0 00-3.375 3.375A3.379 3.379 0 009 15.746a3.379 3.379 0 003.375-3.375A3.379 3.379 0 009 8.996zm0 5.625c-1.24 0-2.25-1.01-2.25-2.25 0-1.241 1.01-2.25 2.25-2.25s2.25 1.009 2.25 2.25c0 1.24-1.01 2.25-2.25 2.25z"/></g><defs><clipPath id="kclip0"><path fill="#fff" d="M0 0h18v18H0z"/></clipPath></defs></svg><svg fill="none" viewBox="0 0 16 9" id="icon-question-arrow" xmlns="http://www.w3.org/2000/svg"><path d="M7.378 8.761l-7.12-6.6a.774.774 0 010-1.152l.83-.77A.93.93 0 012.33.237L8 5.468l5.67-5.23a.93.93 0 011.242 0l.83.77a.773.773 0 010 1.153l-7.12 6.6a.93.93 0 01-1.244 0z" fill="#000"/></svg><svg fill="none" viewBox="0 0 36 36" id="icon-reviews-quote" xmlns="http://www.w3.org/2000/svg"><path d="M0 18v15.428h15.429V18H5.143c0-5.671 4.614-10.286 10.286-10.286V2.571C6.92 2.571 0 9.492 0 18zM36 7.714V2.571c-8.508 0-15.429 6.921-15.429 15.429v15.428H36V18H25.714c0-5.671 4.615-10.286 10.286-10.286z" fill="#000"/></svg><svg fill="none" viewBox="0 0 16 9" id="icon-scrollup" xmlns="http://www.w3.org/2000/svg"><path d="M8.622.239l7.12 6.6a.773.773 0 010 1.152l-.83.77a.93.93 0 01-1.242.002L8 3.532l-5.67 5.23a.93.93 0 01-1.242 0l-.83-.77a.774.774 0 010-1.153l7.12-6.6a.93.93 0 011.244 0z" fill="#fff"/></svg><svg fill="none" viewBox="0 0 27 27" id="icon-services-1" xmlns="http://www.w3.org/2000/svg"><path d="M25.102 6.08h-1.9v-.666a1.603 1.603 0 00-1.599-1.603H19.4v-.23A1.603 1.603 0 0017.8 1.978H2.126A1.603 1.603 0 00.527 3.58v15.735a1.603 1.603 0 001.6 1.603h2.202v.23a1.603 1.603 0 001.6 1.604H7.6v.898a1.373 1.373 0 001.371 1.372h16.13a1.373 1.373 0 001.372-1.372v-16.2a1.372 1.372 0 00-1.371-1.37zM2.126 20.288a.97.97 0 01-.966-.971V3.58a.97.97 0 01.966-.97h15.675a.97.97 0 01.966.97v.23H5.928A1.603 1.603 0 004.33 5.414v14.873H2.126zM7.6 7.452V22.12H5.928a.97.97 0 01-.966-.971V5.414a.97.97 0 01.966-.97h15.675a.97.97 0 01.966.97v.667H8.971a1.373 1.373 0 00-1.37 1.37zm18.24 16.2a.739.739 0 01-.738.738H8.972a.739.739 0 01-.739-.739v-16.2a.74.74 0 01.738-.738h16.13a.74.74 0 01.739.739v16.2z" fill="#05237D"/></svg><svg fill="none" viewBox="0 0 33 33" id="icon-services-2" xmlns="http://www.w3.org/2000/svg"><path d="M7.834 28.786a1.032 1.032 0 001.458 0l7.94-7.941 5.725 5.725a.373.373 0 00.121.081l.009.004a.392.392 0 00.051.017l4.132 1.018a.388.388 0 00.468-.468L26.72 23.09a.386.386 0 00-.017-.051l-.004-.009a.388.388 0 00-.027-.052l-.01-.016a.387.387 0 00-.044-.053l-5.725-5.725 7.893-7.892a1.032 1.032 0 000-1.459l-3.62-3.619a1.033 1.033 0 00-1.458 0L21.634 6.29l-3.911 3.91v.001h-.001l-1.906 1.907-6.76-6.76a2.589 2.589 0 10-3.66 3.66l6.76 6.76L9.9 18.023v.001l-5.686 5.685a1.03 1.03 0 000 1.459l3.62 3.619zM7.315 9.833l2.567-2.566.742.742-1.283 1.283-1.283 1.283-.743-.742zm18.483 13.35l-1.01 1.01L10.16 9.565l1.01-1.01 14.627 14.626zM9.614 10.112l14.627 14.626-1.01 1.01L8.604 11.123l1.01-1.01zM23.99 26.085l2.144-2.144.701 2.845-2.845-.701zM17.996 11.02l1.727 1.727a.385.385 0 00.634-.124.388.388 0 00-.087-.423l-1.727-1.727 3.364-3.365 1.023 1.023a.387.387 0 10.546-.547l-1.022-1.023 1.801-1.8a.258.258 0 01.365 0l3.619 3.618a.258.258 0 010 .365l-7.893 7.892-3.983-3.983 1.633-1.633zM5.41 7.177a1.815 1.815 0 013.098-1.283l.826.826-2.567 2.567-.826-.826a1.803 1.803 0 01-.531-1.284zm-.65 17.078l5.412-5.412 1.728 1.728a.387.387 0 00.546-.547l-1.727-1.728 1.982-1.982 3.984 3.984-7.94 7.94a.258.258 0 01-.365 0L4.76 24.62a.258.258 0 010-.364z" fill="#05237D"/><path d="M8.43 25.526a.387.387 0 10.547-.547l-.956-.955a.386.386 0 10-.547.546l.956.956z" fill="#05237D"/></svg><svg fill="none" viewBox="0 0 33 33" id="icon-services-3" xmlns="http://www.w3.org/2000/svg"><path d="M27.227 14.76V11.4a1.783 1.783 0 00-1.773-1.79H19.94V6.479c0-.906-.712-1.644-1.587-1.644H9.519c-.875 0-1.587.738-1.587 1.644v3.133H2.418a1.783 1.783 0 00-1.774 1.788V26.1a1.783 1.783 0 001.774 1.788h20.966a7.138 7.138 0 001.975.278c3.857 0 6.996-3.062 6.996-6.827 0-3.133-2.174-5.779-5.127-6.579zm-.773-3.36v3.196a7.177 7.177 0 00-3.36.284v-4.496h2.36a1.009 1.009 0 011 1.015zM8.705 6.477c0-.48.365-.87.814-.87h8.834c.449 0 .814.39.814.87v3.133h-.765V6.863a.505.505 0 00-.504-.505H9.974a.505.505 0 00-.504.505v2.748h-.765V6.478zm1.538 3.133V7.13h7.386v2.48h-7.386zM1.418 26.1V11.4a1.009 1.009 0 011-1.016h2.36v16.731h-2.36a1.008 1.008 0 01-1-1.015zm4.133 1.015v-16.73h16.77v4.805c-2.34 1.106-3.959 3.447-3.959 6.15 0 2.428 1.307 4.564 3.271 5.775H5.551zm19.808.278c-3.432 0-6.223-2.716-6.223-6.054 0-3.337 2.791-6.053 6.223-6.053 3.431 0 6.223 2.716 6.223 6.053 0 3.338-2.792 6.054-6.223 6.054z" fill="#05237D"/><path d="M25.847 17.828v-.464a.387.387 0 00-.774 0v.465a1.72 1.72 0 00-.932.457c-.532.52-.564 1.244-.56 1.454.011.82.635 1.51 1.515 1.68l.087.018.186.036c.029.005.102.027.134.037a.32.32 0 01.033.012l.015.006.12.046a1.74 1.74 0 01.144.075l.077.044.014.008c.123.075.742.475.767 1.054.014.345-.074.609-.27.805-.315.315-.832.38-1.087.37-.376-.016-1.11-.345-1.174-.918a.387.387 0 00-.77.087c.103.907.993 1.463 1.701 1.581v.391a.387.387 0 10.774 0v-.412c.414-.07.798-.263 1.102-.552.348-.348.52-.827.497-1.385-.04-.948-.881-1.527-1.143-1.685l-.035-.021-.064-.037a2.461 2.461 0 00-.152-.082 1.15 1.15 0 00-.105-.047l-.114-.043a2.205 2.205 0 00-.32-.094l-.181-.035-.089-.017c-.606-.118-.883-.553-.89-.933-.003-.271.08-.647.328-.888.197-.193.485-.282.854-.268.994.04 1.229.833 1.253.926a.386.386 0 00.751-.184 2.063 2.063 0 00-1.692-1.487z" fill="#05237D"/></svg><svg fill="none" viewBox="0 0 33 33" id="icon-services-4" xmlns="http://www.w3.org/2000/svg"><path d="M24.697 18.414a.387.387 0 00.34.203h2.957a12.169 12.169 0 01-4.146 7.582c-2.138 1.834-4.825 2.886-7.37 2.886-1.661 0-3.397-.448-5.021-1.294a12.477 12.477 0 01-4.276-3.668.387.387 0 10-.624.457 13.255 13.255 0 004.542 3.897c1.734.904 3.594 1.381 5.378 1.381 2.728 0 5.598-1.12 7.875-3.072a12.94 12.94 0 004.422-8.169h3.194a.387.387 0 00.324-.599l-3.466-5.284a.388.388 0 00-.646 0l-3.466 5.284a.386.386 0 00-.017.396zm3.806-4.763l2.75 4.192h-5.5l2.75-4.192zM4.173 20.266a.387.387 0 00.647 0l3.466-5.284a.387.387 0 00-.324-.599H5.006a12.169 12.169 0 014.145-7.582c2.14-1.834 4.826-2.886 7.372-2.886 1.66 0 3.396.448 5.02 1.294 1.686.881 3.149 2.136 4.276 3.668a.387.387 0 10.624-.457A13.254 13.254 0 0021.9 4.524c-1.733-.904-3.593-1.382-5.377-1.382-2.728 0-5.598 1.12-7.875 3.072a12.94 12.94 0 00-4.422 8.17H1.031a.387.387 0 00-.323.598l3.465 5.284zm3.073-5.11l-2.75 4.193-2.749-4.193h5.5z" fill="#05237D"/><path d="M16.282 25.428a.387.387 0 00.436 0l4.57-3.116c1.376-.938 2.453-2.977 2.453-4.641v-6.413a.386.386 0 00-.215-.347L16.67 7.544a.387.387 0 00-.341 0l-6.855 3.357a.387.387 0 00-.216.347v6.423c0 1.664 1.078 3.703 2.454 4.64l4.57 3.117zm-6.25-7.757v-6.182L16.5 8.322l6.468 3.177v6.172c0 1.411-.95 3.206-2.116 4.002L16.5 24.64l-4.352-2.968c-1.147-.781-2.116-2.614-2.116-4.001z" fill="#05237D"/><path d="M15.4 18.598a.387.387 0 00.54 0l3.73-3.642a.386.386 0 10-.54-.553l-3.46 3.378-1.8-1.758a.387.387 0 00-.54.553l2.07 2.022z" fill="#05237D"/></svg><svg fill="none" viewBox="0 0 27 27" id="icon-services-5" xmlns="http://www.w3.org/2000/svg"><g clip-path="url(#sclip0)" fill="#05237D"><path d="M2.957 23.546h13.038v1.027a1.665 1.665 0 001.664 1.663h7.678A1.665 1.665 0 0027 24.573V19.06a1.665 1.665 0 00-1.663-1.664h-.414v-2.239c0-.892-.415-1.733-1.122-2.277V9.787a2.96 2.96 0 00-2.958-2.958h-.198v-.14a2.961 2.961 0 00-2.957-2.958h-4.83a.259.259 0 01-.192-.084L10.914 1.73A2.963 2.963 0 008.73.768H2.957A2.96 2.96 0 000 3.725v16.863a2.96 2.96 0 002.957 2.958zm21.582-5.358a.383.383 0 00.128-.023h.67c.494 0 .895.402.895.896v5.512a.897.897 0 01-.895.895h-7.678a.897.897 0 01-.896-.895V19.06c0-.494.401-.895.896-.896h.67c.082.03.172.03.255 0h5.827a.381.381 0 00.128.023zm-.384-3.03v2.24H18.84v-2.24a2.11 2.11 0 012.109-2.108h1.098a2.11 2.11 0 012.108 2.108zm-3.312-7.56a2.192 2.192 0 012.19 2.189v2.67a2.864 2.864 0 00-.986-.175h-1.098a2.88 2.88 0 00-2.877 2.876v2.24h-.413a1.665 1.665 0 00-1.664 1.663v3.718H5.214a2.95 2.95 0 00.972-2.19V9.787a2.192 2.192 0 012.189-2.19h12.468zM.768 3.724a2.192 2.192 0 012.19-2.19H8.73c.615.001 1.201.26 1.616.713L12.1 4.164c.194.214.47.335.759.335h4.83a2.192 2.192 0 012.19 2.19v.14H8.374a2.96 2.96 0 00-2.957 2.958v10.801a2.192 2.192 0 01-2.19 2.19h-.27a2.192 2.192 0 01-2.19-2.19V3.725z"/><path d="M20.488 22.408a.591.591 0 100-1.182.591.591 0 000 1.182zm0-.768a.177.177 0 110 .353.177.177 0 010-.353zM22.507 22.408a.591.591 0 100-1.182.591.591 0 000 1.182zm0-.768a.177.177 0 110 .354.177.177 0 010-.354zM17.776 21.817a.591.591 0 101.182 0 .591.591 0 00-1.182 0zm.767 0a.177.177 0 11-.353 0 .177.177 0 01.353 0zM24.629 22.408a.591.591 0 100-1.182.591.591 0 000 1.182zm0-.768a.177.177 0 110 .354.177.177 0 010-.354z"/></g><defs><clipPath id="sclip0"><path fill="#fff" d="M0 0h27v27H0z"/></clipPath></defs></svg><svg fill="none" viewBox="0 0 27 27" id="icon-services-6" xmlns="http://www.w3.org/2000/svg"><path d="M1.978 23.651h24.1a.317.317 0 000-.632h-1.332V5.629a.481.481 0 00-.48-.482H21.17a.481.481 0 00-.48.482v17.39h-1.86V7.829a.48.48 0 00-.48-.482H15.25a.481.481 0 00-.48.481v15.19h-1.86v-12.99a.48.48 0 00-.48-.482H9.334a.481.481 0 00-.48.482v12.99H6.993V12.94a.481.481 0 00-.48-.482H3.416a.481.481 0 00-.48.482v10.08h-.958a.739.739 0 01-.739-.738V3.665a.316.316 0 10-.633 0v18.616a1.372 1.372 0 001.372 1.37zM21.322 5.78h2.791v17.239h-2.79V5.779zm-5.917 2.2h2.79v15.039h-2.79V7.979zm-5.918 2.199h2.79v12.84h-2.79v-12.84zM3.569 13.09H6.36v9.929H3.57V13.09z" fill="#05237D"/></svg><svg fill="none" viewBox="0 0 26 17" id="icon-social-google" xmlns="http://www.w3.org/2000/svg"><path d="M15.807 7.695c.073.401.126.802.126 1.322 0 4.542-2.942 7.76-7.37 7.76-4.24 0-7.674-3.554-7.674-7.944C.889 4.443 4.323.89 8.563.89c2.072 0 3.8.78 5.14 2.08l-2.084 2.07c-.565-.563-1.56-1.224-3.056-1.224-2.618 0-4.753 2.244-4.753 5.018 0 2.775 2.135 5.018 4.753 5.018 3.035 0 4.177-2.265 4.354-3.425H8.564V7.695h7.244zm7.41.266V5.655h-2.238v2.306H18.75v2.318h2.228v2.306h2.238v-2.306h2.228V7.96h-2.228z" fill="#fff"/></svg><svg fill="none" viewBox="0 0 20 19" id="icon-social-linkedin" xmlns="http://www.w3.org/2000/svg"><path d="M4.536 18.778H.643V6.24h3.893v12.537zM2.588 4.53C1.343 4.531.333 3.5.333 2.255a2.255 2.255 0 014.51 0c0 1.245-1.01 2.276-2.255 2.276zm16.519 14.247h-3.885v-6.103c0-1.454-.029-3.32-2.024-3.32-2.024 0-2.334 1.58-2.334 3.215v6.208H6.975V6.24h3.734v1.71h.055c.52-.985 1.789-2.024 3.683-2.024 3.94 0 4.664 2.594 4.664 5.964v6.887h-.004z" fill="#fff"/></svg><svg fill="none" viewBox="0 0 21 17" id="icon-social-telegram" xmlns="http://www.w3.org/2000/svg"><path d="M20.165 2.335l-3.052 13.483c-.23.952-.83 1.189-1.684.74l-4.65-3.21-2.243 2.022c-.248.233-.456.427-.935.427l.334-4.436 8.618-7.296c.375-.313-.081-.486-.582-.173L5.317 10.176.731 8.831c-.998-.291-1.016-.934.207-1.383L18.878.973c.83-.292 1.558.174 1.287 1.362z" fill="#fff"/></svg><svg fill="none" viewBox="0 0 21 18" id="icon-social-twitter" xmlns="http://www.w3.org/2000/svg"><path d="M18.588 5.02c.013.18.013.362.013.544 0 5.529-4.17 11.9-11.792 11.9-2.348 0-4.53-.686-6.365-1.877.334.038.655.051 1.001.051 1.938 0 3.721-.66 5.146-1.787a4.157 4.157 0 01-3.875-2.9c.256.038.513.064.782.064.372 0 .745-.052 1.091-.142a4.174 4.174 0 01-3.323-4.105v-.052c.551.31 1.193.505 1.873.53a4.19 4.19 0 01-1.848-3.483c0-.776.206-1.489.565-2.11a11.746 11.746 0 008.546 4.377 4.76 4.76 0 01-.103-.959c0-2.305 1.848-4.182 4.145-4.182 1.193 0 2.27.505 3.028 1.32a8.115 8.115 0 002.63-1.01 4.165 4.165 0 01-1.822 2.306 8.25 8.25 0 002.387-.648 8.954 8.954 0 01-2.079 2.163z" fill="#fff"/></svg><svg fill="none" viewBox="0 0 24 24" id="icon-zoom" xmlns="http://www.w3.org/2000/svg"><path d="M18.43 17.644c3.558-3.972 3.43-10.1-.386-13.915a10.124 10.124 0 00-14.182-.127 10.124 10.124 0 00-.395 14.177 10.124 10.124 0 0014.168.661l4.663 4.664a.563.563 0 00.796-.796l-4.664-4.664zm-13.915-.386A9.004 9.004 0 0117.188 4.465l.06.06c3.51 3.51 3.51 9.222 0 12.733-3.51 3.51-9.223 3.51-12.733 0z" fill="#fff"/><path d="M14.257 10.327h-2.814V7.515a.563.563 0 00-1.125 0v2.812H7.505a.563.563 0 000 1.126h2.813v2.814a.563.563 0 001.125 0v-2.814h2.814a.563.563 0 100-1.126z" fill="#fff"/></svg></svg>