<svg width="91" height="91" fill="none" xmlns="http://www.w3.org/2000/svg"><path d="M90.314 10.09a1.777 1.777 0 00-1.529-.319l-8.456 2.15c-1.357.346-2.756.52-4.156.52h-12.41a8.042 8.042 0 00-7.995 6.869 4.507 4.507 0 01-4.481 3.85h-.454v-3.714c3.065-1.825 5.124-5.17 5.124-8.99C55.957 4.691 51.267 0 45.501 0c-5.766 0-10.457 4.69-10.457 10.456 0 3.82 2.06 7.165 5.125 8.99v3.713h-.454a4.507 4.507 0 01-4.482-3.85 8.042 8.042 0 00-7.995-6.868H14.83c-1.4 0-2.799-.174-4.157-.52l-8.456-2.15a1.778 1.778 0 00-2.215 1.723 14.31 14.31 0 003.81 9.732c.053 4.314 2.097 8.154 5.254 10.647l1.672 2.235a20.391 20.391 0 0016.251 8.137 20.16 20.16 0 0013.18-4.86v6.338h-1.593c-6.338 0-11.494 5.156-11.494 11.493 0 1.937.492 3.852 1.421 5.54a1.777 1.777 0 103.114-1.716 7.945 7.945 0 01-.98-3.824c0-4.377 3.561-7.938 7.939-7.938h1.594v15.877h-4.177c-4.688 0-8.501 3.814-8.501 8.502 0 4.687 3.813 8.501 8.501 8.501h4.942a45.965 45.965 0 002.956 9.764c.28.654.922 1.078 1.633 1.078h.004a1.777 1.777 0 001.633-1.084l.035-.082a45.978 45.978 0 002.892-9.676h2.02a3.648 3.648 0 013.643 3.644 3.648 3.648 0 01-3.643 3.643h-.121a1.778 1.778 0 000 3.555h.12c3.97 0 7.199-3.23 7.199-7.198 0-3.97-3.23-7.198-7.198-7.198h-1.514c.159-1.56.24-3.133.24-4.716V66.71h1.185c6.337 0 11.493-5.156 11.493-11.494 0-6.337-5.156-11.493-11.493-11.493h-1.185v-6.339a20.16 20.16 0 0013.18 4.861 20.392 20.392 0 0016.252-8.137l1.672-2.235c3.157-2.493 5.2-6.333 5.253-10.647A14.309 14.309 0 0091 11.494c0-.549-.253-1.066-.686-1.403zM38.762 33.852a16.642 16.642 0 01-11.774 4.84A16.825 16.825 0 0116.23 34.77c.446.043.898.067 1.355.067h2.976a1.778 1.778 0 000-3.555h-2.976c-4.498 0-8.325-2.922-9.688-6.967a14.271 14.271 0 006.468 1.546h3.676a1.778 1.778 0 000-3.554l-3.676-.001c-5.153 0-9.475-3.626-10.552-8.46l5.984 1.521c1.643.418 3.336.63 5.032.63h12.41a4.507 4.507 0 014.48 3.85 8.042 8.042 0 007.996 6.868h.454v5.745l-1.407 1.392zm-2.77 42.752a4.953 4.953 0 01-4.947-4.947 4.953 4.953 0 014.947-4.947h4.177v5.073c0 1.62.085 3.227.251 4.821h-4.428zm11.286-4.715c0 4.138-.591 8.2-1.761 12.123a42.29 42.29 0 01-1.794-12.23V66.71h3.555v5.179zm0-8.733h-3.554V20.759a10.402 10.402 0 003.554 0v42.396zm4.74-15.878c4.377 0 7.938 3.562 7.938 7.94 0 4.377-3.56 7.938-7.938 7.938h-1.185V47.277h1.185zM45.5 17.358a6.91 6.91 0 01-6.902-6.902A6.91 6.91 0 0145.5 3.555a6.91 6.91 0 016.902 6.901 6.91 6.91 0 01-6.902 6.902zm31.135 4.947H72.96a1.777 1.777 0 000 3.555h3.676c2.326 0 4.522-.56 6.468-1.546-1.363 4.045-5.19 6.967-9.688 6.967H70.44a1.778 1.778 0 000 3.555h2.977c.457 0 .909-.024 1.355-.067a16.825 16.825 0 01-10.758 3.921 16.642 16.642 0 01-11.774-4.839l-1.407-1.392v-5.745h.454a8.042 8.042 0 007.995-6.868 4.507 4.507 0 014.481-3.85h12.41c1.695 0 3.388-.212 5.032-.63l5.983-1.52c-1.076 4.833-5.399 8.458-10.552 8.459z" fill="#086293"/></svg>