<svg width="97" height="97" fill="none" xmlns="http://www.w3.org/2000/svg"><g clip-path="url(#clip0)" fill="#086293"><path d="M43.65 46.883a8.083 8.083 0 10-8.083-8.083 8.093 8.093 0 008.083 8.083zm0-12.933a4.85 4.85 0 110 9.7 4.85 4.85 0 010-9.7zM61.434 48.5a4.85 4.85 0 100-9.7 4.85 4.85 0 000 9.7zm0-6.467a1.617 1.617 0 110 3.234 1.617 1.617 0 010-3.234zm-30.717 14.55a4.85 4.85 0 100-9.7 4.85 4.85 0 000 9.7zm0-6.466a1.617 1.617 0 110 3.233 1.617 1.617 0 010-3.233zm9.7 9.7c0 5.357 4.343 9.7 9.7 9.7 5.357 0 9.7-4.343 9.7-9.7a9.7 9.7 0 00-9.7-9.7c-5.355.005-9.695 4.345-9.7 9.7zm16.166 0a6.467 6.467 0 11-12.933 0 6.467 6.467 0 0112.933 0z"/><path d="M6.467 54.967a6.378 6.378 0 003.395-.97 2.862 2.862 0 011.643-.541c2.072.108 5.149.337 8.49.808a28.45 28.45 0 00.925 3.492 96.58 96.58 0 01-7.047 5.011c-.428.237-.92.336-1.406.283a6.553 6.553 0 00-4.61 1.58 6.433 6.433 0 00-1.837 7.14 6.467 6.467 0 009.292 3.352 6.36 6.36 0 002.49-2.556c.24-.528.635-.971 1.131-1.27 1.583-.809 5.562-2.555 7.8-3.504a28.688 28.688 0 002.53 2.493 93.733 93.733 0 01-3.628 7.902 2.251 2.251 0 01-1.06.933 6.488 6.488 0 00-1.218 10.762 6.531 6.531 0 004.137 1.49 6.477 6.477 0 006.457-6.658 2.91 2.91 0 01.352-1.693 99.07 99.07 0 014.955-6.963c1.127.385 2.276.7 3.442.94.225 1.98.757 6.79.842 8.644-.003.477-.156.94-.438 1.325a6.486 6.486 0 004.314 9.951c.358.057.72.084 1.083.082a6.452 6.452 0 006.466-6.466 6.373 6.373 0 00-.994-3.442 2.756 2.756 0 01-.512-1.584c.108-2.075.333-5.148.808-8.491a28.622 28.622 0 003.487-.954c2.29 2.921 4.1 5.64 5.026 7.09.238.42.335.904.277 1.383a6.488 6.488 0 008.71 6.436 6.466 6.466 0 003.352-9.3 6.359 6.359 0 00-2.532-2.465 2.91 2.91 0 01-1.293-1.154 100.353 100.353 0 01-3.557-7.774 28.552 28.552 0 002.532-2.511c3.88 1.683 6.75 2.99 7.904 3.592.421.246.752.621.942 1.07a6.493 6.493 0 0010.698 1.307 6.467 6.467 0 00-1.685-9.83 6.392 6.392 0 00-3.505-.856 2.656 2.656 0 01-1.592-.348c-2.477-1.602-4.82-3.264-6.939-4.958.377-1.14.68-2.302.91-3.48 3.67-.52 6.926-.729 8.641-.808.483.003.951.162 1.336.453a6.467 6.467 0 103.553-11.876 6.373 6.373 0 00-3.395.97 2.972 2.972 0 01-1.642.541 98.908 98.908 0 01-8.49-.808 28.051 28.051 0 00-.924-3.494 97.062 97.062 0 017.045-5.011 2.342 2.342 0 011.402-.282 6.516 6.516 0 004.607-1.58 6.433 6.433 0 001.838-7.14 6.475 6.475 0 00-9.294-3.353 6.376 6.376 0 00-2.488 2.556c-.24.528-.635.971-1.132 1.27-1.582.81-5.56 2.555-7.798 3.504a28.678 28.678 0 00-2.524-2.491 93.733 93.733 0 013.628-7.902 2.263 2.263 0 011.06-.933 6.467 6.467 0 10-8.511-9.013 6.373 6.373 0 00-.865 3.42 2.91 2.91 0 01-.353 1.692 98.533 98.533 0 01-4.955 6.961 28.55 28.55 0 00-3.442-.94c-.224-1.988-.758-6.81-.842-8.653a2.23 2.23 0 01.433-1.305 6.467 6.467 0 10-11.858-3.576 6.385 6.385 0 00.991 3.437 2.78 2.78 0 01.516 1.594c-.092 1.769-.568 6.089-.865 8.499-1.16.241-2.305.555-3.426.94a92.32 92.32 0 01-5.026-7.088 2.263 2.263 0 01-.273-1.38 6.467 6.467 0 10-12.062 2.864 6.363 6.363 0 002.535 2.462c.538.243.99.646 1.293 1.153a99.794 99.794 0 013.557 7.776 28.5 28.5 0 00-2.53 2.509c-1.827-.792-6.254-2.729-7.906-3.592a2.264 2.264 0 01-.942-1.07 6.475 6.475 0 10-9.023 8.523 6.432 6.432 0 003.505.856 2.673 2.673 0 011.59.348 84.329 84.329 0 016.936 4.96 28.412 28.412 0 00-.908 3.479 95.65 95.65 0 01-8.64.808 2.264 2.264 0 01-1.335-.452 6.467 6.467 0 10-3.554 11.874zM31.59 81.254a6.029 6.029 0 00-.873 3.557c.02.598-.13 1.19-.433 1.705a3.233 3.233 0 11-4.255-4.513 5.385 5.385 0 002.477-2.344 99.13 99.13 0 003.395-7.276 29.18 29.18 0 004.224 2.44 105.404 105.404 0 00-4.535 6.431zm36.82-1.731a6.04 6.04 0 002.647 2.535 3.15 3.15 0 011.257 1.225 3.233 3.233 0 11-6.03 1.43 5.392 5.392 0 00-.792-3.315 97.918 97.918 0 00-4.604-6.565 28.932 28.932 0 004.216-2.454 104.93 104.93 0 003.306 7.144zm16.912-32.754a5.998 5.998 0 003.516-1.023 3.32 3.32 0 014.165.66 3.233 3.233 0 01-4.257 4.796 5.442 5.442 0 00-3.267-.97 97.98 97.98 0 00-7.983.705 29.035 29.035 0 000-4.874c3.084.4 5.884.604 7.826.706zm-19.91-31.022a6.029 6.029 0 00.872-3.557c-.02-.598.13-1.19.433-1.705a3.233 3.233 0 114.255 4.513 5.397 5.397 0 00-2.475 2.344 95.982 95.982 0 00-3.387 7.275 29.18 29.18 0 00-4.224-2.44 109.124 109.124 0 004.525-6.43zm-36.82 1.731a6.034 6.034 0 00-2.645-2.533 3.233 3.233 0 114.77-2.648 5.39 5.39 0 00.793 3.314 96.19 96.19 0 004.607 6.569 29.13 29.13 0 00-4.221 2.445 102.562 102.562 0 00-3.305-7.147zM15.721 31.58a5.778 5.778 0 00-3.493-.863 3.132 3.132 0 01-1.744-.427 3.233 3.233 0 114.514-4.261 5.404 5.404 0 002.347 2.49c1.668.87 5.79 2.682 8.1 3.684 1.29.552 2.788.21 3.71-.849a25.804 25.804 0 0114.159-8.182 3.233 3.233 0 002.6-2.802c.279-2.454.762-6.848.858-8.704a5.915 5.915 0 00-1.02-3.495 3.16 3.16 0 01-.486-1.704 3.233 3.233 0 115.927 1.801 5.374 5.374 0 00-.97 3.233c.086 1.87.576 6.362.86 8.873a3.233 3.233 0 002.598 2.797 25.782 25.782 0 0114.154 8.178 3.241 3.241 0 003.718.846c2.264-.986 6.305-2.768 7.977-3.615a6.013 6.013 0 002.503-2.62 3.193 3.193 0 011.244-1.276 3.233 3.233 0 013.76 5.225 3.317 3.317 0 01-2.329.808 5.44 5.44 0 00-3.33.787 98.19 98.19 0 00-7.298 5.185 3.248 3.248 0 00-1.047 3.597 25.942 25.942 0 010 16.422 3.25 3.25 0 001.047 3.593 97.04 97.04 0 007.2 5.115 5.83 5.83 0 003.491.868 3.09 3.09 0 011.745.427 3.234 3.234 0 11-4.514 4.261 5.393 5.393 0 00-2.347-2.488c-1.651-.862-5.782-2.679-8.098-3.684a3.234 3.234 0 00-3.719.848 25.684 25.684 0 01-15.261 8.378 1.63 1.63 0 00-1.352 1.389c-.603 3.896-.876 7.543-.999 9.92a5.88 5.88 0 001.016 3.488c.324.512.495 1.105.491 1.71a3.237 3.237 0 01-1.132 2.473 3.241 3.241 0 01-4.788-4.268 5.422 5.422 0 00.97-3.247c-.087-1.883-.576-6.361-.86-8.862a3.233 3.233 0 00-2.597-2.794 25.783 25.783 0 01-14.155-8.18 3.27 3.27 0 00-2.446-1.11c-.439 0-.873.09-1.276.264-2.263.987-6.305 2.768-7.976 3.615a6.012 6.012 0 00-2.503 2.62 3.183 3.183 0 01-1.245 1.276 3.233 3.233 0 01-3.762-5.228 3.303 3.303 0 012.323-.808 5.474 5.474 0 003.33-.79 98.16 98.16 0 007.298-5.185 3.248 3.248 0 001.048-3.596 25.943 25.943 0 010-16.417 3.25 3.25 0 00-1.046-3.599 95.244 95.244 0 00-7.194-5.117zM3.276 47.94a3.253 3.253 0 014.974-2.141 5.406 5.406 0 003.267.97 96.03 96.03 0 007.982-.703 29.71 29.71 0 00-.102 2.434c0 .819.037 1.632.103 2.438-3.084-.4-5.884-.604-7.826-.706a6.067 6.067 0 00-3.516 1.023A3.317 3.317 0 014 50.602a3.224 3.224 0 01-.718-2.662h-.006z"/></g><defs><clipPath id="clip0"><path fill="#086293" d="M0 0h97v97H0z"/></clipPath></defs></svg>