<svg width="95" height="95" fill="none" xmlns="http://www.w3.org/2000/svg"><g clip-path="url(#clip0)"><path d="M87.19 24.619c-.91.91-1.856 1.65-2.854 2.237L68.143 10.662a14.293 14.293 0 012.237-2.855 4.47 4.47 0 00-.001-6.315 4.47 4.47 0 00-6.316 0c-7.248 7.247-7.354 16.009-6.085 23.92-9.209-1.9-19.389-2.706-27.515 5.42-3.673 3.673-5.785 7.988-6.456 13.191a1.394 1.394 0 002.763.357c.59-4.57 2.442-8.356 5.664-11.578 7.487-7.487 16.946-6.41 26.08-4.429.273 1.365.514 2.436.78 3.612-9.076-2.064-17.866-3.523-24.495 3.201-14.818 14.84 10.36 40.154-6.203 56.718a1.68 1.68 0 01-2.374-2.374c10.503-10.504 1.118-25.593.382-40.039a1.394 1.394 0 00-2.784.142c.153 2.996.662 6 1.222 8.713-7.91-1.268-16.67-1.162-23.919 6.085a4.463 4.463 0 000 6.316 4.463 4.463 0 006.317 0 14.3 14.3 0 012.853-2.236l16.195 16.193a14.301 14.301 0 01-2.237 2.855 4.47 4.47 0 000 6.315 4.47 4.47 0 006.316 0c7.248-7.248 7.353-16.009 6.085-23.92 10.511 2.167 19.904 2.192 27.515-5.42 8.126-8.126 7.317-18.307 5.419-27.515 2.644.42 5.3.675 7.973.59a1.395 1.395 0 00-.087-2.786c-2.498.079-5.225-.156-8.526-.737-.268-1.177-.53-2.285-.823-3.56 7.73 1.557 15.088 2.014 21.038-3.936a1.681 1.681 0 012.375 0 1.677 1.677 0 010 2.374c-2.607 2.608-5.552 4.301-9.002 5.176a1.393 1.393 0 10.685 2.701c3.95-1.002 7.315-2.933 10.287-5.906a4.436 4.436 0 001.309-3.158c0-3.967-4.828-5.955-7.624-3.158zM5.47 68.776a1.678 1.678 0 11-2.376-2.374C7.607 61.888 12.9 60.53 18.16 60.53c2.545 0 5.084.318 7.524.75.267 1.17.538 2.32.823 3.559-7.73-1.557-15.087-2.014-21.038 3.936zm7.561-1.47c3.781-1.162 8.304-.717 14.141.52 1.238 5.837 1.682 10.36.52 14.14l-14.66-14.66zm21.607-6.945c-1.063-4.589-2.003-8.868-1.961-12.74l14.7 14.7c-3.872.042-8.151-.898-12.74-1.96zm16.314 1.594l-17.91-17.909c.444-2.113 1.318-4.076 2.798-5.868l20.979 20.98c-1.791 1.48-3.753 2.354-5.867 2.797zm7.838-4.767l-20.979-20.98c1.791-1.48 3.754-2.355 5.867-2.797l17.91 17.909c-.444 2.113-1.318 4.076-2.798 5.867zm1.203-22.183c1.062 4.589 2.002 8.868 1.96 12.74l-14.7-14.7c3.872-.042 8.152.898 12.74 1.96zm2.203 27.56c-7.487 7.486-16.945 6.408-26.08 4.428-.197-.98-.41-1.99-.78-3.612 9.192 2.09 17.802 3.492 24.486-3.192C74.54 45.47 49.565 19.93 66.034 3.462a1.68 1.68 0 012.375 0c.654.655.654 1.72 0 2.375-14.803 14.803 10.346 40.17-6.213 56.727zm5.262-35.024c-1.237-5.838-1.681-10.36-.519-14.142l14.66 14.66c-3.78 1.163-8.303.719-14.141-.518z" fill="#086293"/></g><defs><clipPath id="clip0"><path fill="#086293" d="M0 0h95v95H0z"/></clipPath></defs></svg>