<svg width="107" height="107" fill="none" xmlns="http://www.w3.org/2000/svg"><path d="M53.5 42.006A11.494 11.494 0 1064.994 53.5 11.506 11.506 0 0053.5 42.006zm0 20.062a8.569 8.569 0 118.57-8.568 8.578 8.578 0 01-8.569 8.568z" fill="#086293"/><path d="M58.516 52.037a1.463 1.463 0 00-1.463 1.463 3.572 3.572 0 01-1.771 3.073 1.463 1.463 0 001.473 2.528A6.507 6.507 0 0059.98 53.5a1.463 1.463 0 00-1.463-1.463z" fill="#086293"/><path d="M91.31 50.081a6.52 6.52 0 001.633.214 6.48 6.48 0 004.58-11.058c-.105-.105-.218-.2-.334-.298 1.087-3.94.836-7.373-.796-10.204-3.511-6.085-12.73-8.079-25.38-5.56C66.854 10.96 60.514 3.97 53.5 3.97c-7.015 0-13.354 6.988-17.515 19.204-12.653-2.52-21.87-.525-25.38 5.56-1.583 2.733-1.86 6.168-.851 9.98a6.479 6.479 0 005.884 11.298 60.498 60.498 0 002.842 3.492c-8.5 9.7-11.384 18.68-7.876 24.76 2.52 4.37 7.976 6.635 15.534 6.635a51.119 51.119 0 009.845-1.08c4.16 12.218 10.501 19.209 17.517 19.209 3.17 0 6.296-1.486 9.106-4.283a6.476 6.476 0 007.178-10.509c-.105-.106-.218-.202-.33-.299a63.58 63.58 0 001.567-4.118 51.01 51.01 0 009.841 1.08c7.558 0 13.014-2.267 15.534-6.635 3.511-6.08.625-15.06-7.874-24.76a60.456 60.456 0 002.787-3.424zm4.144-3.75a3.557 3.557 0 01-5.023 0 3.551 3.551 0 115.024 0zm-1.592-16.134c1.144 1.987 1.365 4.458.676 7.357a6.474 6.474 0 00-6.18 10.847c.106.106.219.201.33.299a57.374 57.374 0 01-2.15 2.632 88.403 88.403 0 00-11.671-10.166 89.485 89.485 0 00-2.96-15.188c11.025-2.132 19.178-.595 21.955 4.219zM69.039 80.402a83.794 83.794 0 01-11.935-3.88 112.005 112.005 0 0014.524-8.394 83.772 83.772 0 01-2.589 12.274zm-31.078 0a83.734 83.734 0 01-2.592-12.274 112.255 112.255 0 0014.528 8.394 83.81 83.81 0 01-11.936 3.88zm0-53.804a83.71 83.71 0 0111.935 3.88 113.228 113.228 0 00-14.529 8.399 83.726 83.726 0 012.594-12.28zm-6.195 35.29a82.585 82.585 0 01-9.331-8.388 82.686 82.686 0 019.33-8.388 111.785 111.785 0 000 16.776zm12.177 8.175a107.783 107.783 0 01-9.034-5.832 108.443 108.443 0 010-21.462 107.77 107.77 0 019.034-5.832 109.736 109.736 0 019.558-4.914 109.866 109.866 0 019.56 4.914 107.781 107.781 0 019.034 5.832 108.412 108.412 0 010 21.462 107.752 107.752 0 01-9.034 5.832 109.75 109.75 0 01-9.558 4.914 109.653 109.653 0 01-9.562-4.914h.002zM69.04 26.594a83.749 83.749 0 012.591 12.275 114.416 114.416 0 00-7.105-4.47 115.488 115.488 0 00-7.424-3.922 83.81 83.81 0 0111.936-3.88l.002-.003zm6.193 18.518a82.585 82.585 0 019.331 8.388 82.686 82.686 0 01-9.33 8.388 111.785 111.785 0 000-16.776zM53.5 6.896c5.549 0 10.962 6.294 14.641 16.907A89.726 89.726 0 0053.5 28.82a89.66 89.66 0 00-14.64-5.016C42.539 13.19 47.95 6.896 53.5 6.896zM11.226 46.331a3.558 3.558 0 112.513 1.038 3.526 3.526 0 01-2.514-1.038zm7.093-7.094a6.479 6.479 0 00-5.871-1.763c-.675-2.864-.45-5.308.69-7.272 2.777-4.816 10.93-6.354 21.955-4.221a89.536 89.536 0 00-2.96 15.189A88.324 88.324 0 0020.46 51.327a57.305 57.305 0 01-2.282-2.802c.046-.044.096-.084.14-.128a6.484 6.484 0 000-9.162v.002zm-5.183 37.565c-2.77-4.809-.027-12.64 7.329-21.129a88.378 88.378 0 0011.668 10.161 89.485 89.485 0 002.96 15.188c-11.026 2.13-19.178.594-21.955-4.22h-.002zm54.58 18.528a3.559 3.559 0 11-5.041-5.024 3.559 3.559 0 015.04 5.024zm-2.509-8.989a6.475 6.475 0 00-4.96 10.64c-2.173 2.07-4.437 3.123-6.743 3.123-5.549 0-10.961-6.294-14.641-16.907a89.726 89.726 0 0014.642-5.016 89.668 89.668 0 0014.644 5.016 59.114 59.114 0 01-1.282 3.364 6.502 6.502 0 00-1.664-.22h.004zm28.66-9.54c-2.778 4.816-10.931 6.354-21.955 4.221a89.534 89.534 0 002.96-15.189 88.322 88.322 0 0011.663-10.16c7.356 8.489 10.1 16.32 7.327 21.129h.005z" fill="#086293"/></svg>