<svg width="95" height="95" fill="none" xmlns="http://www.w3.org/2000/svg"><g clip-path="url(#clip0)"><path d="M11.088 95l-2.359-.003a2.56 2.56 0 01-2.557-2.613l.023-1.19a34.908 34.908 0 0110.265-24.1l.675-.675a19.312 19.312 0 01-3.018-7.484 1.392 1.392 0 012.741-.482 16.541 16.541 0 003.647 7.816 16.64 16.64 0 003.252-6.034 1.39 1.39 0 01.124-.447c.683-2.581.731-5.292.142-7.895-.127-.417-.24-.84-.34-1.267a16.656 16.656 0 00-3.178-5.79 16.597 16.597 0 00-3.593 7.523 1.392 1.392 0 01-2.732-.53 19.386 19.386 0 014.879-9.556 1.98 1.98 0 012.89 0c.486.52.94 1.062 1.362 1.624a19.326 19.326 0 015.103-10.98 1.98 1.98 0 012.89 0c.215.215.843.932 1.363 1.624a19.326 19.326 0 015.102-10.979 1.98 1.98 0 012.89 0c.213.212.83.915 1.363 1.624a19.311 19.311 0 015.565-11.456A147.785 147.785 0 0163.053.28a1.392 1.392 0 111.675 2.223 145.012 145.012 0 00-14.22 12.25 19.322 19.322 0 012.74 4.128 253.501 253.501 0 0113.88-12.846c.86-.737.892-.769 1.01-.842a1.392 1.392 0 011.636 2.242c-5.713 4.858-10.5 9.354-15.407 14.26.308.995.535 2.01.68 3.033 3.424-4.81 8.978-8.003 15.274-8.19l4.358-4.357a1.391 1.391 0 111.968 1.968l-4.358 4.357c-.186 6.29-3.374 11.84-8.176 15.265 1.031.146 2.043.374 3.028.68 4.976-4.976 9.457-9.76 14.252-15.397a1.391 1.391 0 112.12 1.803 253.852 253.852 0 01-13.56 14.718 19.4 19.4 0 014.122 2.746 145.057 145.057 0 0012.25-14.22 1.392 1.392 0 012.222 1.675C84.172 31.579 79.1 37.312 75.09 41.252a19.307 19.307 0 01-11.445 5.554 19.796 19.796 0 011.623 1.363 1.98 1.98 0 010 2.89 19.325 19.325 0 01-10.979 5.103 19.71 19.71 0 011.624 1.362 1.98 1.98 0 010 2.89 19.422 19.422 0 01-4.516 3.157 1.392 1.392 0 01-1.254-2.485 16.602 16.602 0 003.206-2.117 16.652 16.652 0 00-5.79-3.179c-.426-.099-.85-.212-1.268-.34a16.586 16.586 0 00-7.893.142 1.39 1.39 0 01-.448.125 16.64 16.64 0 00-6.033 3.252 16.6 16.6 0 006.05 3.239c.237.058.472.121.706.188 1.826.445 3.737.582 5.662.386a1.392 1.392 0 01.565 2.71 19.748 19.748 0 011.657 1.388 1.98 1.98 0 010 2.89c-6.837 6.393-16.915 6.809-24.146 1.924l-.674.675c-5.341 5.34-8.212 12.45-8.084 20.017A2.563 2.563 0 0111.088 95zm25.99-41.91l1.839-1.84a19.84 19.84 0 01-1.34-1.338l-1.838 1.839a19.208 19.208 0 01-.755 2.094 19.34 19.34 0 012.094-.755zm9.355-9.356l1.839-1.839a19.911 19.911 0 01-1.339-1.338l-1.838 1.838a19.222 19.222 0 01-.756 2.094 19.345 19.345 0 012.094-.755zm-18.71 18.711l1.838-1.84c-.467-.424-.913-.87-1.338-1.338l-1.84 1.84a19.193 19.193 0 01-.754 2.093 19.316 19.316 0 012.093-.755zM29.86 35.48a16.58 16.58 0 00-3.522 14.364c.13.425.246.855.346 1.29a16.65 16.65 0 003.176 5.78 16.639 16.639 0 003.252-6.032c.016-.155.058-.308.126-.452.681-2.578.73-5.285.143-7.885a19.372 19.372 0 01-.343-1.28 16.654 16.654 0 00-3.178-5.785zm9.355-9.355a16.58 16.58 0 00-3.521 14.364c.13.425.245.855.346 1.289a16.647 16.647 0 003.175 5.78 16.639 16.639 0 003.252-6.031 1.39 1.39 0 01.127-.452c.678-2.568.73-5.264.15-7.854a19.05 19.05 0 01-.359-1.336 16.66 16.66 0 00-3.17-5.76zm9.355-9.355c-3.57 4.24-4.629 9.744-3.424 14.692.066.229.127.459.184.69a16.523 16.523 0 003.24 6.05c5.175-6.16 5.2-15.242 0-21.432zm20.883 2.605c-8.035.698-14.456 7.12-15.154 15.154.682-.059 1.353-.16 2.01-.299.292-.077.586-.148.883-.213 6.64-1.794 11.65-7.598 12.261-14.642zm2.606 20.883a16.547 16.547 0 00-10.716-3.899c-1.195 0-2.37.125-3.512.369a19.56 19.56 0 01-.852.205 16.517 16.517 0 00-6.353 3.325 16.524 16.524 0 005.997 3.225c.268.065.533.136.797.213 4.99 1.197 10.455.085 14.64-3.438zm-9.355 9.355a16.653 16.653 0 00-5.76-3.17 18.51 18.51 0 01-1.336-.358 16.586 16.586 0 00-7.855.15c-.143.068-.296.11-.45.126a16.643 16.643 0 00-6.033 3.252c.507.428.498.394.612.493a16.62 16.62 0 005.144 2.675c.45.104.896.224 1.336.359a16.58 16.58 0 0014.342-3.526zm-18.71 18.711a16.653 16.653 0 00-5.776-3.174 19.722 19.722 0 01-1.288-.347 16.585 16.585 0 00-7.887.143c-.144.068-.296.11-.451.126a16.643 16.643 0 00-6.032 3.252c.502.424.5.396.612.493a16.581 16.581 0 0020.821-.493zM19.766 70.4l.439-.439c-.462-.42-.91-.867-1.339-1.338l-.439.439a32.139 32.139 0 00-9.45 22.187l-.02.965 1.908.003c-.083-8.248 3.073-15.989 8.901-21.817z" fill="#086293"/></g><defs><clipPath id="clip0"><path fill="#086293" transform="matrix(-1 0 0 1 95 0)" d="M0 0h95v95H0z"/></clipPath></defs></svg>