<svg width="91" height="64" fill="none" xmlns="http://www.w3.org/2000/svg"><path d="M.997 30.17c1.461-.365 2.818-1.431 4.44-3.496C2.83 22.226-.302 15.644 2.343 7.95a1.33 1.33 0 012.209-.497c.034.035 1.512 1.545 3.526 3.477-.163-2.425.16-4.858.952-7.155a1.33 1.33 0 012.209-.499c.037.038 3.47 3.542 7.031 6.735C23.817 5.604 31.942 2.46 41.859.972 52.785-.669 64.603-.034 71.966 2.588a27.422 27.422 0 017.13 3.724c3.597-4.707 6.915-6.801 9.871-6.216a1.33 1.33 0 01-.515 2.61c-1.858-.365-4.429 1.512-7.304 5.301 5.248 4.94 7.638 12.131 7.118 21.505-1.14 20.506-7.235 32.508-7.494 33.008a1.33 1.33 0 01-1.181.72h-7.41a1.331 1.331 0 01-1.292-1.63c.654-3.546.761-7.172.318-10.75a353.812 353.812 0 01-3.065 11.422 1.33 1.33 0 01-1.276.958h-7.413a1.33 1.33 0 01-1.292-1.629 35.68 35.68 0 00.191-11.71c-2.92.242-6.03.365-9.33.367-2.645.008-5.208-.032-7.576-.102-1.657 6.66-3.22 12.058-3.236 12.115a1.331 1.331 0 01-1.278.959h-7.409a1.33 1.33 0 01-1.292-1.63c.656-3.543.761-7.167.313-10.742a335.699 335.699 0 01-3.06 11.414 1.33 1.33 0 01-1.276.958h-7.41a1.33 1.33 0 01-1.291-1.63 36.286 36.286 0 00-.38-14.698A83.682 83.682 0 012.792 42.56a1.328 1.328 0 01-.771-.94c-.013-.057-1.245-5.768-2-9.922a1.33 1.33 0 01.975-1.528zM10.97 6.773a15.882 15.882 0 00.26 7.103 93.64 93.64 0 001.855 1.637c.202-.27.404-.538.604-.794a22.92 22.92 0 012.575-2.932 160.603 160.603 0 01-5.294-5.014zM61.037 60.58h4.824a361.215 361.215 0 003.249-12.332A67.75 67.75 0 0161 49.643a39.87 39.87 0 01.037 10.937zm-42.662 0h4.824c.532-1.887 1.778-6.36 3.05-11.535a92.578 92.578 0 01-8.258-1.436c.836 4.274.966 8.656.384 12.971zM4.468 40.39c7.017 2.996 14.073 5.224 25.128 6.367a1.332 1.332 0 011.171 1.076 39.89 39.89 0 01.336 12.747h4.823a368.532 368.532 0 003.191-12.095 1.343 1.343 0 011.339-1.013c2.579.09 5.391.136 8.359.136 9.065.02 16.612-.896 22.512-2.707a1.329 1.329 0 011.682.956 39.792 39.792 0 01.76 14.723h4.985c1.299-2.852 5.904-14.042 6.86-31.215.702-12.596-4.053-20.535-14.537-24.268C57.934.419 26.317 1.884 15.812 16.32c-.228.291-.44.592-.66.89.576.448 1.124.85 1.623 1.179a1.33 1.33 0 11-1.464 2.22c-3.332-2.198-8.43-7.086-11.028-9.655-1.196 6.128 1.625 11.361 3.903 15.139.187.312.373.618.551.912.312.51.602.988.856 1.422a1.33 1.33 0 11-2.3 1.336 39.872 39.872 0 00-.395-.664 11.574 11.574 0 01-4.058 3.243 380.1 380.1 0 001.627 8.047h.001z" fill="#086293"/><path d="M54.017 4.636c6.412 0 12.395.822 16.414 2.254a1.33 1.33 0 11-.892 2.508c-3.746-1.334-9.404-2.1-15.524-2.1a1.33 1.33 0 010-2.66l.002-.002z" fill="#086293"/></svg>