<svg width="33" height="33" viewBox="0 0 33 33" fill="none" xmlns="http://www.w3.org/2000/svg">
<g clip-path="url(#clip0)">
<path d="M16.6994 26.8125C21.4734 26.8125 19.7711 23.7903 20.1396 22.9212C20.1341 22.2722 20.1286 21.648 20.1506 21.2685C20.4531 21.3538 21.1667 21.7154 22.6407 23.1481C24.9164 25.4444 25.498 26.8125 27.3364 26.8125H30.7202C31.7927 26.8125 32.351 26.3684 32.6301 25.9958C32.8996 25.6355 33.1636 25.003 32.8749 24.0185C32.12 21.648 27.7172 17.5546 27.4436 17.1229C27.4849 17.0431 27.5509 16.9373 27.5853 16.8822H27.5825C28.4515 15.7341 31.768 10.7649 32.2561 8.77662C32.2575 8.77387 32.2589 8.76975 32.2589 8.76562C32.5229 7.85812 32.2809 7.26963 32.0306 6.93688C31.6539 6.43913 31.0544 6.1875 30.2445 6.1875H26.8606C25.7276 6.1875 24.8682 6.75812 24.4338 7.799C23.7064 9.64838 21.6631 13.4516 20.1314 14.7978C20.0846 12.8906 20.1162 11.4345 20.141 10.3524C20.1905 8.24175 20.35 6.1875 18.1596 6.1875H12.8411C11.4689 6.1875 10.1558 7.68625 11.5775 9.4655C12.8205 11.0247 12.0244 11.8937 12.2925 16.2195C11.2475 15.0989 9.3885 12.0725 8.074 8.20463C7.7055 7.15825 7.14725 6.18887 5.57562 6.18887H2.19175C0.8195 6.18887 0 6.93687 0 8.1895C0 11.0027 6.22738 26.8125 16.6994 26.8125ZM5.57562 8.25137C5.874 8.25137 5.90425 8.25138 6.12562 8.87975C7.47175 12.8439 10.4913 18.7096 12.6968 18.7096C14.3536 18.7096 14.3536 17.0115 14.3536 16.3721L14.3522 11.2819C14.2615 9.5975 13.6483 8.75875 13.2454 8.25L18.0689 8.2555C18.0716 8.27888 18.0414 13.8861 18.0826 15.2446C18.0826 17.1737 19.6144 18.2793 22.0055 15.8593C24.5286 13.0116 26.2735 8.75463 26.3436 8.58138C26.4468 8.33388 26.5361 8.25 26.8606 8.25H30.2445H30.2583C30.2569 8.25413 30.2569 8.25825 30.2555 8.26237C29.9461 9.70612 26.8923 14.3069 25.8706 15.7355C25.8541 15.7575 25.839 15.7809 25.8239 15.8043C25.3743 16.5385 25.0085 17.3497 25.8857 18.491H25.8871C25.9669 18.5872 26.1745 18.8127 26.477 19.1262C27.4175 20.097 30.6432 23.4163 30.9292 24.7362C30.7395 24.7665 30.5333 24.7445 27.3364 24.7514C26.6558 24.7514 26.1236 23.7339 24.0927 21.6851C22.2667 19.9086 21.0815 19.1826 20.0021 19.1826C17.9066 19.1826 18.0592 20.8835 18.0785 22.9405C18.0854 25.1707 18.0716 24.4654 18.0868 24.6056C17.9644 24.6538 17.6138 24.75 16.6994 24.75C7.975 24.75 2.2935 10.9024 2.07487 8.2555C2.1505 8.24863 3.19137 8.25275 5.57562 8.25137Z" fill="#2242A8"/>
</g>
<defs>
<clipPath id="clip0">
<rect width="33" height="33" fill="white"/>
</clipPath>
</defs>
</svg>
