<svg width="31" height="30" viewBox="0 0 31 30" fill="none" xmlns="http://www.w3.org/2000/svg">
<g clip-path="url(#clip0)">
<path d="M23.9944 30C24.1231 30 29.9468 29.9987 29.8193 29.9987C30.3368 29.9987 30.7569 29.5787 30.7569 29.0612C30.3194 19.24 33.0594 8.87622 22.8344 8.87622C20.8681 8.87622 19.3019 9.54747 18.1731 10.435C18.1731 8.60872 16.1993 9.61872 11.6431 9.34747C11.1256 9.34747 10.7056 9.76747 10.7056 10.285C11.0831 27.9925 9.8631 29.9987 11.6431 29.9987H17.4681C19.1594 29.9987 18.0831 27.6137 18.4056 19.7637C18.4056 16.5212 19.3431 15.8862 20.9631 15.8862C22.7556 15.8862 23.0569 17.1312 23.0569 19.9212C23.3781 27.63 22.3094 30 23.9944 30ZM20.9631 14.0112C15.3494 14.0112 16.5306 20.1837 16.5306 28.1237H12.5806V11.2225H16.2981V12.845C16.2981 13.745 17.6694 14.1875 18.1469 13.2825C18.7619 12.115 20.3594 10.7512 22.8344 10.7512C27.2431 10.7512 28.8818 12.9175 28.8818 18.7462V28.125H24.9319C24.9319 19.195 25.8769 14.0112 20.9631 14.0112Z" fill="#2242A8"/>
<path d="M2.15914 9.34888C0.384143 9.34888 1.59914 11.3301 1.22164 29.0626C1.22164 29.5801 1.64164 30.0001 2.15914 30.0001H7.99039C9.76539 30.0001 8.55039 28.0189 8.92789 10.2864C8.92789 8.66763 6.57664 9.62263 2.15914 9.34888ZM7.05289 28.1251H3.09664V11.2239H7.05289V28.1251Z" fill="#2242A8"/>
<path d="M5.07181 0C-0.648193 0 -0.613193 8.66125 5.07181 8.66125C10.7531 8.66125 10.7981 0 5.07181 0ZM5.07181 6.78625C1.86181 6.78625 1.83181 1.875 5.07181 1.875C8.31806 1.875 8.27681 6.78625 5.07181 6.78625Z" fill="#2242A8"/>
</g>
<defs>
<clipPath id="clip0">
<rect width="30" height="30" fill="white" transform="translate(0.756836)"/>
</clipPath>
</defs>
</svg>
