<svg width="166" height="165" viewBox="0 0 166 165" fill="none" xmlns="http://www.w3.org/2000/svg">
<path d="M149.307 83.2375L160.642 83.9821L160.569 85.0997L150.223 84.4202L149.793 90.966L148.803 90.901L149.307 83.2375Z" fill="white"/>
<path d="M147.704 95.7946C147.834 95.2006 148.062 94.6827 148.387 94.2408C148.724 93.8011 149.125 93.441 149.59 93.1606C150.053 92.8906 150.561 92.7124 151.115 92.626C151.669 92.5396 152.227 92.5579 152.79 92.6809C153.363 92.8062 153.883 93.0236 154.351 93.3332C154.816 93.6533 155.202 94.0326 155.511 94.4711C155.816 94.9201 156.03 95.4146 156.153 95.9545C156.275 96.4943 156.272 97.056 156.145 97.6396C156.017 98.2232 155.785 98.7348 155.449 99.1744C155.11 99.6245 154.709 99.9846 154.246 100.255C153.781 100.535 153.272 100.718 152.718 100.805C152.161 100.902 151.597 100.887 151.024 100.762C150.461 100.639 149.946 100.423 149.479 100.113C149.011 99.8036 148.625 99.4243 148.319 98.9753C148.011 98.5367 147.797 98.0423 147.677 97.492C147.565 96.9544 147.574 96.3886 147.704 95.7946ZM152.539 93.756C152.08 93.6558 151.636 93.6406 151.206 93.7103C150.786 93.7824 150.397 93.9156 150.037 94.1101C149.686 94.3172 149.389 94.5797 149.145 94.8976C148.898 95.2259 148.731 95.5932 148.642 95.9996C148.553 96.406 148.553 96.8046 148.642 97.1953C148.74 97.5988 148.905 97.9679 149.137 98.3026C149.38 98.6396 149.683 98.9295 150.045 99.1724C150.406 99.4152 150.817 99.5868 151.275 99.687C151.723 99.7849 152.162 99.799 152.592 99.7293C153.033 99.6618 153.429 99.5245 153.78 99.3173C154.141 99.1124 154.445 98.8459 154.692 98.5176C154.946 98.202 155.118 97.841 155.207 97.4346C155.296 97.0282 155.29 96.6285 155.19 96.2355C155.101 95.8447 154.935 95.4809 154.692 95.1439C154.449 94.8069 154.141 94.5158 153.769 94.2707C153.407 94.0278 152.997 93.8563 152.539 93.756Z" fill="white"/>
<path d="M151.699 108.921C151.924 108.22 151.947 107.549 151.766 106.908C151.586 106.267 151.216 105.729 150.658 105.293L145.771 103.564L146.134 102.538L153.992 105.319L153.65 106.285L151.765 105.617C152.265 106.123 152.599 106.682 152.766 107.296C152.934 107.909 152.918 108.498 152.719 109.061C152.69 109.141 152.662 109.205 152.634 109.252L151.699 108.921Z" fill="white"/>
<path d="M142.347 111.446C142.621 110.903 142.973 110.454 143.404 110.098C143.839 109.756 144.317 109.507 144.837 109.351C145.367 109.2 145.914 109.147 146.477 109.192C147.034 109.247 147.58 109.408 148.113 109.677C148.637 109.942 149.082 110.279 149.448 110.691C149.819 111.117 150.094 111.578 150.273 112.075C150.458 112.586 150.534 113.12 150.504 113.678C150.483 114.241 150.338 114.789 150.069 115.323C149.795 115.866 149.441 116.308 149.005 116.65C148.575 117.006 148.102 117.257 147.586 117.404C147.07 117.55 146.538 117.598 145.99 117.548C145.441 117.499 144.91 117.344 144.396 117.085C144.319 117.046 144.243 117.008 144.167 116.97C144.091 116.931 144.041 116.9 144.017 116.876L147.23 110.504C146.816 110.331 146.399 110.234 145.979 110.214C145.564 110.208 145.171 110.266 144.798 110.389C144.425 110.511 144.089 110.694 143.787 110.936C143.491 111.193 143.251 111.502 143.068 111.864C142.948 112.102 142.862 112.357 142.808 112.629C142.755 112.9 142.735 113.165 142.748 113.423C142.762 113.68 142.808 113.931 142.889 114.174C142.978 114.423 143.102 114.64 143.259 114.827L142.605 115.554C142.386 115.301 142.216 115.012 142.093 114.687C141.979 114.367 141.907 114.026 141.874 113.663C141.852 113.305 141.882 112.938 141.964 112.561C142.037 112.18 142.165 111.808 142.347 111.446ZM145.221 116.336C145.635 116.509 146.045 116.597 146.451 116.598C146.861 116.614 147.248 116.558 147.611 116.43C147.969 116.312 148.296 116.125 148.593 115.869C148.885 115.622 149.122 115.317 149.304 114.955C149.487 114.593 149.593 114.217 149.623 113.826C149.653 113.435 149.612 113.055 149.498 112.688C149.38 112.329 149.193 111.99 148.937 111.67C148.675 111.359 148.357 111.09 147.981 110.865L145.221 116.336Z" fill="white"/>
<path d="M132.002 127.238L132.671 126.38L136.344 129.241C137.11 129.837 137.769 130.154 138.32 130.192C138.872 130.23 139.335 130.009 139.709 129.529C139.905 129.277 140.046 129.001 140.13 128.702C140.208 128.411 140.238 128.103 140.221 127.778C140.197 127.462 140.123 127.141 139.998 126.814C139.883 126.494 139.715 126.188 139.497 125.896L135.483 122.77L136.151 121.911L139.824 124.772C140.607 125.382 141.267 125.706 141.804 125.746C142.341 125.786 142.799 125.562 143.179 125.073C143.566 124.577 143.738 124.001 143.694 123.345C143.651 122.689 143.413 122.057 142.98 121.45L138.953 118.314L139.622 117.455L146.198 122.578L145.589 123.36L144.099 122.2C144.394 122.863 144.51 123.521 144.447 124.175C144.392 124.835 144.159 125.431 143.746 125.961C143.313 126.516 142.813 126.837 142.246 126.922C141.673 127.016 141.104 126.905 140.54 126.587C141.189 128.08 141.094 129.365 140.255 130.442C139.967 130.812 139.657 131.071 139.326 131.219C138.988 131.375 138.634 131.43 138.264 131.385C137.895 131.355 137.508 131.236 137.102 131.028C136.698 130.835 136.281 130.571 135.852 130.237L132.002 127.238Z" fill="white"/>
<path d="M126.282 132.502L131.64 138.888L130.807 139.587L125.448 133.202L126.282 132.502ZM132.761 140.224L133.79 141.45L132.956 142.149L131.928 140.923L132.761 140.224Z" fill="white"/>
<path d="M119.708 137.301C120.294 136.91 120.91 136.71 121.558 136.7C122.203 136.706 122.814 136.843 123.391 137.112L120.54 132.84L121.445 132.236L127.965 142.003L127.154 142.545L126.256 141.201C126.263 141.826 126.128 142.422 125.854 142.99C125.585 143.567 125.184 144.033 124.652 144.389C124.173 144.708 123.666 144.9 123.13 144.962C122.601 145.033 122.077 144.998 121.559 144.857C121.047 144.724 120.567 144.493 120.117 144.165C119.658 143.843 119.274 143.451 118.967 142.99C118.641 142.502 118.408 141.99 118.269 141.455C118.129 140.92 118.092 140.393 118.157 139.875C118.213 139.364 118.371 138.88 118.631 138.424C118.888 137.983 119.247 137.609 119.708 137.301ZM120.494 137.93C120.122 138.179 119.838 138.484 119.643 138.845C119.439 139.212 119.316 139.595 119.275 139.994C119.231 140.409 119.261 140.818 119.365 141.224C119.474 141.638 119.648 142.022 119.885 142.377C120.133 142.75 120.437 143.06 120.795 143.308C121.153 143.557 121.533 143.732 121.936 143.836C122.338 143.939 122.749 143.959 123.17 143.897C123.581 143.841 123.968 143.691 124.332 143.448C124.563 143.294 124.774 143.082 124.966 142.813C125.155 142.559 125.307 142.277 125.423 141.97C125.535 141.677 125.6 141.37 125.617 141.051C125.632 140.746 125.58 140.467 125.461 140.212L124.04 138.083C123.768 137.906 123.481 137.764 123.179 137.658C122.868 137.557 122.557 137.495 122.247 137.472C121.933 137.463 121.627 137.495 121.328 137.566C121.029 137.637 120.751 137.758 120.494 137.93Z" fill="white"/>
<path d="M111.989 141.742C112.575 141.46 113.193 141.281 113.843 141.205C114.493 141.129 115.108 141.176 115.687 141.347L115.56 142.226C114.97 142.083 114.418 142.03 113.902 142.065C113.376 142.105 112.864 142.245 112.364 142.485C111.758 142.777 111.336 143.128 111.096 143.539C110.851 143.965 110.837 144.404 111.054 144.856C111.156 145.067 111.287 145.217 111.448 145.305C111.614 145.403 111.818 145.459 112.061 145.472C112.295 145.49 112.574 145.468 112.9 145.406C113.22 145.358 113.588 145.287 114.005 145.194C114.488 145.091 114.914 145.016 115.282 144.97C115.65 144.923 115.972 144.916 116.248 144.948C116.515 144.986 116.747 145.075 116.946 145.216C117.139 145.372 117.307 145.599 117.451 145.897C117.631 146.272 117.719 146.638 117.713 146.996C117.698 147.358 117.61 147.691 117.448 147.994C117.281 148.311 117.052 148.598 116.762 148.856C116.462 149.119 116.12 149.343 115.736 149.528C115.159 149.805 114.589 149.961 114.025 149.996C113.467 150.04 112.969 149.977 112.533 149.809L112.731 149.003C113.148 149.157 113.594 149.209 114.067 149.159C114.53 149.114 114.978 148.987 115.411 148.779C115.67 148.654 115.897 148.509 116.09 148.345C116.288 148.191 116.445 148.014 116.563 147.816C116.671 147.622 116.729 147.41 116.737 147.181C116.75 146.962 116.699 146.732 116.583 146.492C116.486 146.29 116.374 146.143 116.246 146.05C116.119 145.958 115.955 145.9 115.755 145.878C115.56 145.866 115.328 145.877 115.06 145.911C114.788 145.959 114.465 146.026 114.091 146.111C113.555 146.227 113.077 146.315 112.656 146.375C112.235 146.436 111.868 146.447 111.553 146.409C111.229 146.375 110.952 146.278 110.72 146.117C110.489 145.956 110.297 145.717 110.145 145.4C109.811 144.708 109.812 144.033 110.146 143.375C110.481 142.717 111.095 142.173 111.989 141.742Z" fill="white"/>
<path d="M104.609 144.828C105.474 144.554 106.21 144.635 106.817 145.069C107.417 145.517 107.897 146.31 108.258 147.45L109.734 152.118L108.696 152.446L107.278 147.961C106.709 146.161 105.809 145.455 104.578 145.844C104.273 145.941 103.989 146.086 103.726 146.281C103.464 146.476 103.241 146.709 103.058 146.979C102.865 147.253 102.713 147.553 102.604 147.878C102.484 148.207 102.416 148.558 102.4 148.933L103.982 153.936L102.945 154.264L100.856 147.659C100.766 147.374 100.599 147.27 100.355 147.347L100.066 146.432C100.181 146.373 100.28 146.331 100.361 146.305C100.432 146.283 100.483 146.267 100.514 146.257C100.761 146.19 100.987 146.214 101.191 146.328C101.395 146.443 101.54 146.637 101.627 146.912L101.916 147.827C102.066 147.097 102.386 146.465 102.877 145.929C103.36 145.407 103.938 145.04 104.609 144.828Z" fill="white"/>
<path d="M85.1439 148.747L86.2251 148.625L86.7445 153.252C86.8528 154.217 87.0862 154.91 87.4448 155.331C87.8033 155.752 88.2847 155.929 88.8889 155.861C89.2069 155.826 89.5025 155.733 89.7756 155.585C90.0381 155.437 90.2794 155.244 90.4994 155.004C90.7088 154.766 90.8869 154.488 91.0338 154.171C91.1819 153.865 91.284 153.532 91.3401 153.171L90.7725 148.115L91.8537 147.993L92.3731 152.62C92.4838 153.606 92.7125 154.305 93.0593 154.717C93.4061 155.129 93.8869 155.3 94.5017 155.231C95.1271 155.161 95.6592 154.881 96.098 154.392C96.5368 153.903 96.8224 153.291 96.9546 152.557L96.3853 147.485L97.4665 147.363L98.3964 155.647L97.4106 155.758L97.2 153.882C96.9322 154.556 96.5423 155.099 96.0304 155.51C95.5196 155.933 94.9303 156.181 94.2625 156.256C93.5629 156.335 92.9844 156.201 92.527 155.855C92.0589 155.511 91.7415 155.026 91.5747 154.401C90.9604 155.908 89.9748 156.738 88.618 156.89C88.1516 156.942 87.7498 156.901 87.4128 156.768C87.0652 156.635 86.7781 156.42 86.5516 156.124C86.3157 155.839 86.1303 155.479 85.9956 155.043C85.8514 154.619 85.7489 154.137 85.6883 153.596L85.1439 148.747Z" fill="white"/>
<path d="M77.1471 148.395L75.5336 159.64L74.425 159.481L75.8976 149.218L69.4041 148.286L69.545 147.304L77.1471 148.395Z" fill="white"/>
<path d="M64.8495 145.857C65.4319 146.031 65.9311 146.298 66.347 146.656C66.7599 147.025 67.0885 147.452 67.3328 147.937C67.5669 148.42 67.7061 148.94 67.7502 149.499C67.7943 150.058 67.7336 150.613 67.5683 151.165C67.3999 151.727 67.1436 152.229 66.7994 152.671C66.445 153.111 66.0375 153.468 65.5768 153.742C65.1059 154.012 64.5966 154.188 64.049 154.269C63.5014 154.35 62.9415 154.305 62.3694 154.133C61.7972 153.962 61.3046 153.692 60.8918 153.323C60.4687 152.951 60.1401 152.524 59.906 152.042C59.6616 151.557 59.5174 151.035 59.4733 150.476C59.419 149.914 59.476 149.352 59.6444 148.79C59.8098 148.238 60.0645 147.741 60.4087 147.299C60.7529 146.856 61.1604 146.5 61.6313 146.229C62.092 145.955 62.6013 145.779 63.1591 145.701C63.7036 145.63 64.2671 145.682 64.8495 145.857ZM66.5154 150.833C66.6501 150.383 66.699 149.941 66.6621 149.507C66.6221 149.083 66.5188 148.684 66.3521 148.312C66.1722 147.946 65.933 147.629 65.6346 147.362C65.326 147.091 64.9724 146.896 64.5739 146.777C64.1755 146.657 63.778 146.627 63.3816 146.686C62.9719 146.753 62.5914 146.89 62.24 147.096C61.8856 147.313 61.5735 147.592 61.3039 147.935C61.0343 148.277 60.8321 148.673 60.6974 149.122C60.5657 149.562 60.5183 149.999 60.5553 150.433C60.5891 150.877 60.696 151.282 60.8759 151.648C61.0528 152.024 61.2955 152.347 61.6042 152.618C61.8995 152.896 62.2464 153.094 62.6449 153.214C63.0434 153.333 63.4424 153.358 63.8418 153.288C64.2382 153.229 64.6137 153.091 64.9681 152.874C65.3226 152.658 65.6362 152.373 65.9088 152.02C66.1785 151.678 66.3806 151.282 66.5154 150.833Z" fill="white"/>
<path d="M51.4512 148.842C52.1333 149.12 52.8007 149.192 53.4534 149.06C54.106 148.928 54.6703 148.6 55.1463 148.075L57.2368 143.331L58.2324 143.77L54.8709 151.398L53.9338 150.985L54.7403 149.155C54.1992 149.616 53.6163 149.907 52.9918 150.028C52.3673 150.149 51.7817 150.09 51.2351 149.849C51.157 149.814 51.0957 149.781 51.0512 149.75L51.4512 148.842Z" fill="white"/>
<path d="M49.7029 139.357C50.2241 139.67 50.6465 140.054 50.97 140.51C51.279 140.969 51.4918 141.464 51.6086 141.995C51.7199 142.535 51.7324 143.083 51.6462 143.641C51.5508 144.194 51.3492 144.726 51.0417 145.238C50.7396 145.741 50.3698 146.16 49.9324 146.494C49.4804 146.832 49.0001 147.073 48.4915 147.215C47.9682 147.361 47.4294 147.398 46.8752 147.327C46.3155 147.264 45.7796 147.079 45.2675 146.772C44.7463 146.458 44.3313 146.072 44.0224 145.613C43.6988 145.157 43.4832 144.667 43.3756 144.142C43.2679 143.617 43.259 143.083 43.349 142.539C43.4389 141.996 43.6321 141.478 43.9287 140.984C43.9727 140.911 44.0166 140.838 44.0606 140.764C44.1045 140.691 44.1393 140.644 44.1649 140.622L50.2821 144.296C50.4853 143.896 50.6127 143.487 50.6641 143.07C50.7009 142.657 50.6719 142.26 50.5769 141.879C50.482 141.499 50.3249 141.149 50.1055 140.831C49.8715 140.516 49.5808 140.254 49.2333 140.045C49.0048 139.908 48.7569 139.803 48.4899 139.729C48.2229 139.656 47.9604 139.617 47.7024 139.611C47.4445 139.605 47.1911 139.634 46.9423 139.696C46.688 139.767 46.462 139.874 46.2644 140.016L45.587 139.311C45.856 139.112 46.157 138.963 46.49 138.864C46.8175 138.775 47.1633 138.727 47.5273 138.722C47.8858 138.726 48.2498 138.783 48.6193 138.893C48.9943 138.993 49.3555 139.148 49.7029 139.357ZM44.6143 141.862C44.411 142.263 44.2937 142.665 44.2624 143.069C44.2165 143.477 44.2437 143.867 44.3441 144.238C44.4354 144.604 44.598 144.945 44.832 145.259C45.0569 145.569 45.343 145.828 45.6905 146.036C46.0379 146.245 46.4056 146.379 46.7933 146.438C47.1811 146.496 47.5626 146.483 47.9376 146.397C48.3035 146.306 48.6557 146.144 48.9943 145.912C49.3237 145.674 49.6147 145.376 49.8673 145.018L44.6143 141.862Z" fill="white"/>
<path d="M34.7506 127.903L35.5581 128.632L32.4375 132.088C31.7869 132.808 31.4227 133.442 31.3448 133.99C31.267 134.538 31.4537 135.015 31.9049 135.423C32.1424 135.637 32.4073 135.798 32.6997 135.904C32.9842 136.002 33.2889 136.055 33.614 136.061C33.9311 136.06 34.2571 136.009 34.5918 135.909C34.9194 135.817 35.2368 135.672 35.544 135.476L38.9542 131.699L39.7616 132.429L36.641 135.884C35.9761 136.62 35.6044 137.255 35.5258 137.787C35.4472 138.32 35.6374 138.794 36.0966 139.208C36.5636 139.63 37.1258 139.843 37.7831 139.848C38.4403 139.852 39.0876 139.66 39.7249 139.273L43.1458 135.485L43.9533 136.214L38.3662 142.401L37.63 141.736L38.8954 140.335C38.2131 140.581 37.5482 140.649 36.9006 140.538C36.2459 140.436 35.6692 140.159 35.1705 139.709C34.648 139.237 34.3647 138.715 34.3204 138.143C34.2683 137.564 34.4211 137.005 34.7788 136.466C33.2429 137.005 31.9683 136.817 30.9551 135.902C30.6067 135.587 30.371 135.259 30.2479 134.918C30.1169 134.57 30.0874 134.213 30.1594 133.847C30.2163 133.481 30.3632 133.104 30.6002 132.714C30.822 132.325 31.1153 131.929 31.4799 131.525L34.7506 127.903Z" fill="white"/>
<path d="M29.9534 121.851L23.1944 126.73L22.5576 125.848L29.3166 120.969L29.9534 121.851ZM21.7803 127.751L20.483 128.688L19.8462 127.805L21.1435 126.869L21.7803 127.751Z" fill="white"/>
<path d="M25.648 114.948C25.9949 115.56 26.1491 116.19 26.1108 116.837C26.058 117.48 25.8763 118.079 25.5659 118.635L30.0353 116.104L30.5713 117.051L20.3515 122.837L19.8707 121.988L21.2769 121.192C20.6539 121.152 20.0692 120.974 19.5227 120.659C18.9669 120.348 18.5314 119.915 18.2161 119.358C17.9323 118.856 17.7789 118.336 17.7559 117.798C17.7237 117.265 17.7972 116.745 17.9765 116.239C18.1465 115.738 18.4116 115.275 18.7719 114.851C19.1268 114.417 19.5457 114.063 20.0284 113.79C20.5389 113.501 21.0662 113.307 21.6104 113.207C22.1546 113.107 22.6825 113.109 23.1941 113.211C23.7004 113.305 24.1713 113.498 24.6068 113.791C25.0277 114.079 25.3747 114.465 25.648 114.948ZM24.9624 115.685C24.7417 115.295 24.4584 114.99 24.1127 114.769C23.7617 114.539 23.3885 114.388 22.9932 114.318C22.5833 114.244 22.1725 114.243 21.7608 114.317C21.3397 114.396 20.9436 114.541 20.5723 114.751C20.1824 114.972 19.8505 115.251 19.5766 115.59C19.3027 115.929 19.0995 116.296 18.967 116.689C18.8344 117.083 18.7838 117.492 18.8152 117.915C18.8414 118.329 18.9622 118.727 19.1776 119.107C19.3143 119.349 19.5098 119.575 19.7643 119.786C20.0043 119.994 20.2735 120.166 20.572 120.304C20.8559 120.437 21.1566 120.524 21.4739 120.565C21.7768 120.602 22.0593 120.571 22.3217 120.471L24.5495 119.21C24.7463 118.952 24.9088 118.676 25.037 118.383C25.1599 118.08 25.2445 117.775 25.2907 117.467C25.3224 117.155 25.3137 116.847 25.2646 116.544C25.2155 116.241 25.1148 115.954 24.9624 115.685Z" fill="white"/>
<path d="M21.7904 106.943C22.0281 107.549 22.1606 108.178 22.188 108.832C22.2154 109.486 22.1223 110.096 21.9087 110.661L21.0423 110.468C21.2283 109.891 21.323 109.344 21.3264 108.827C21.3259 108.3 21.2243 107.778 21.0217 107.262C20.7762 106.636 20.4573 106.188 20.0649 105.918C19.6586 105.642 19.2222 105.596 18.7555 105.779C18.537 105.865 18.3778 105.985 18.2777 106.138C18.1678 106.296 18.0971 106.496 18.0658 106.737C18.0307 106.969 18.0318 107.249 18.0693 107.578C18.0929 107.901 18.136 108.274 18.1986 108.696C18.2647 109.186 18.3075 109.616 18.3268 109.987C18.3462 110.357 18.3292 110.679 18.276 110.952C18.2188 111.215 18.1123 111.44 17.9566 111.627C17.787 111.808 17.5484 111.959 17.2405 112.08C16.8533 112.232 16.4815 112.292 16.1252 112.26C15.7649 112.218 15.4398 112.105 15.1499 111.921C14.8461 111.731 14.5763 111.481 14.3407 111.173C14.1011 110.854 13.9034 110.496 13.7475 110.099C13.5137 109.503 13.4006 108.923 13.4083 108.359C13.406 107.798 13.5053 107.307 13.7061 106.884L14.4948 107.142C14.3099 107.547 14.2248 107.987 14.2395 108.462C14.2504 108.928 14.3434 109.384 14.5188 109.831C14.624 110.099 14.7512 110.336 14.9004 110.541C15.0397 110.749 15.204 110.92 15.3933 111.052C15.5786 111.174 15.7852 111.247 16.0128 111.273C16.2305 111.302 16.4634 111.268 16.7117 111.17C16.9202 111.089 17.0754 110.988 17.1772 110.867C17.279 110.747 17.3484 110.588 17.3853 110.39C17.4123 110.196 17.4188 109.965 17.4047 109.695C17.3768 109.42 17.3344 109.093 17.2774 108.714C17.2017 108.171 17.1495 107.687 17.1205 107.263C17.0916 106.839 17.1079 106.472 17.1693 106.161C17.2269 105.84 17.3445 105.571 17.5223 105.352C17.7 105.133 17.9527 104.96 18.2804 104.831C18.9953 104.551 19.6684 104.602 20.2998 104.984C20.9311 105.367 21.428 106.019 21.7904 106.943Z" fill="white"/>
<path d="M19.2845 99.4685C19.495 100.35 19.3617 101.079 18.8846 101.653C18.3947 102.219 17.5688 102.641 16.4067 102.919L11.6444 104.055L11.3919 102.997L15.9675 101.905C17.8039 101.467 18.5723 100.62 18.2728 99.3645C18.1985 99.0532 18.0736 98.7595 17.898 98.4834C17.7225 98.2073 17.5064 97.9682 17.2499 97.7663C16.9908 97.5539 16.7029 97.3814 16.3861 97.2486C16.0668 97.1055 15.7212 97.0125 15.3491 96.9697L10.2444 98.1878L9.99185 97.1295L16.7307 95.5215C17.0212 95.4522 17.1367 95.293 17.0773 95.044L18.0111 94.8212C18.0615 94.9407 18.0967 95.042 18.1165 95.125C18.1338 95.1976 18.1462 95.2495 18.1536 95.2806C18.2027 95.5321 18.1627 95.7555 18.0339 95.9507C17.905 96.146 17.7005 96.277 17.4204 96.3439L16.4866 96.5667C17.2037 96.7684 17.8116 97.1333 18.3104 97.6612C18.7964 98.1813 19.1211 98.7837 19.2845 99.4685Z" fill="white"/>
<path d="M16.7724 79.7916L16.8144 80.8788L12.1619 81.0584C11.1919 81.0959 10.4838 81.278 10.0374 81.6048C9.59099 81.9316 9.37952 82.3988 9.40298 83.0063C9.41533 83.3261 9.48568 83.6276 9.61404 83.9108C9.74198 84.1834 9.91728 84.4382 10.1399 84.6751C10.3621 84.9014 10.626 85.0993 10.9314 85.269C11.2262 85.4391 11.5513 85.5653 11.9068 85.6477L16.991 85.4513L17.0329 86.5385L12.3804 86.7182C11.3892 86.7565 10.6755 86.9335 10.2393 87.2492C9.80317 87.5649 9.59703 88.0319 9.6209 88.6501C9.64518 89.279 9.88529 89.8301 10.3412 90.3035C10.7972 90.777 11.3863 91.1065 12.1087 91.2921L17.2089 91.0951L17.2509 92.1823L8.92107 92.504L8.8828 91.5127L10.7694 91.4399C10.1167 91.1235 9.60378 90.6949 9.23065 90.1543C8.84685 89.614 8.64198 89.0081 8.61606 88.3366C8.58889 87.6332 8.76447 87.066 9.1428 86.635C9.52071 86.1935 10.0276 85.9124 10.6634 85.7917C9.20508 85.0688 8.44958 84.0252 8.3969 82.6609C8.37879 82.1919 8.44884 81.7942 8.60703 81.4679C8.76481 81.1309 8.99988 80.8603 9.31223 80.6561C9.61351 80.4416 9.98634 80.2831 10.4307 80.1805C10.864 80.0677 11.3525 80.0008 11.8961 79.9799L16.7724 79.7916Z" fill="white"/>
<path d="M17.6753 71.7574L6.57729 69.3316L6.81645 68.2374L16.9453 70.4514L18.3461 64.0427L19.3152 64.2546L17.6753 71.7574Z" fill="white"/>
<path d="M21.0281 59.8633C20.8123 60.4317 20.5108 60.9106 20.1235 61.2998C19.7262 61.6853 19.2769 61.9825 18.7754 62.1915C18.2777 62.3905 17.7486 62.4921 17.188 62.4961C16.6275 62.5001 16.0779 62.3999 15.5394 62.1956C14.9909 61.9874 14.5083 61.6959 14.0915 61.3209C13.6786 60.936 13.3519 60.504 13.1116 60.0249C12.8751 59.5358 12.7361 59.0153 12.6946 58.4633C12.653 57.9114 12.7383 57.3561 12.9502 56.7977C13.1621 56.2392 13.4668 55.7672 13.864 55.3818C14.2651 54.9864 14.7145 54.6891 15.2121 54.4901C15.7136 54.2811 16.2446 54.1746 16.8052 54.1705C17.3695 54.1565 17.926 54.2536 18.4744 54.4618C19.013 54.6662 19.4906 54.9558 19.9074 55.3307C20.3241 55.7057 20.6507 56.1377 20.8873 56.6268C21.1276 57.1059 21.2666 57.6264 21.3043 58.1883C21.3359 58.7365 21.2438 59.2949 21.0281 59.8633ZM15.9461 61.1691C16.3849 61.3356 16.8221 61.416 17.2579 61.4102C17.6836 61.4007 18.0884 61.3261 18.4722 61.1865C18.8499 61.0332 19.1828 60.8173 19.4711 60.5388C19.7631 60.2503 19.9829 59.9116 20.1305 59.5227C20.2781 59.1337 20.3365 58.7395 20.3056 58.3398C20.2685 57.9264 20.1596 57.5371 19.9787 57.1719C19.7879 56.8028 19.5314 56.4716 19.2093 56.1782C18.8871 55.8848 18.5066 55.6548 18.0678 55.4883C17.6389 55.3255 17.2067 55.247 16.7709 55.2528C16.3252 55.2548 15.9136 55.3325 15.5359 55.4858C15.1483 55.6353 14.8085 55.8543 14.5165 56.1428C14.2183 56.4175 13.9953 56.7494 13.8477 57.1383C13.7001 57.5272 13.6468 57.9234 13.6876 58.3268C13.7185 58.7264 13.8293 59.1108 14.0201 59.4798C14.211 59.8489 14.4724 60.182 14.8046 60.4792C15.1268 60.7726 15.5073 61.0026 15.9461 61.1691Z" fill="white"/>
<path d="M19.0405 46.1997C18.7134 46.8593 18.5915 47.5195 18.6747 48.1801C18.758 48.8408 19.0435 49.4279 19.5314 49.9415L24.1071 52.3781L23.5957 53.3384L16.2379 49.4203L16.7192 48.5164L18.4845 49.4565C18.065 48.8826 17.818 48.2798 17.7436 47.648C17.6691 47.0162 17.7723 46.4367 18.053 45.9095C18.0931 45.8341 18.1304 45.7755 18.1649 45.7334L19.0405 46.1997Z" fill="white"/>
<path d="M28.5964 45.1496C28.246 45.6465 27.8317 46.0396 27.3535 46.3288C26.8728 46.6033 26.3636 46.7793 25.8259 46.8569C25.2795 46.9284 24.7312 46.9007 24.1812 46.7737C23.6372 46.6381 23.1212 46.3982 22.6331 46.0539C22.1537 45.7157 21.7631 45.3163 21.4616 44.8556C21.1574 44.38 20.9529 43.8834 20.8482 43.3657C20.7408 42.8331 20.7432 42.2931 20.8552 41.7456C20.9585 41.1919 21.1824 40.671 21.5266 40.1829C21.8771 39.686 22.2926 39.3004 22.7734 39.026C23.2515 38.7367 23.7564 38.5576 24.2879 38.4887C24.8195 38.4198 25.3528 38.4501 25.8881 38.5796C26.4233 38.709 26.9262 38.9398 27.3969 39.2718C27.4667 39.3209 27.5364 39.3701 27.6061 39.4193C27.6759 39.4685 27.7207 39.5067 27.7407 39.5338L23.6278 45.3653C24.0123 45.5974 24.4107 45.7543 24.8228 45.8362C25.2324 45.9032 25.6305 45.9033 26.017 45.8365C26.4034 45.7697 26.7635 45.6386 27.0971 45.4432C27.4282 45.2329 27.7105 44.9621 27.9442 44.6309C28.0979 44.4129 28.221 44.1735 28.3137 43.9126C28.4064 43.6516 28.465 43.3927 28.4895 43.1359C28.514 42.8791 28.5044 42.6243 28.4608 42.3716C28.4084 42.1128 28.3183 41.8796 28.1906 41.672L28.9439 41.0481C29.1229 41.331 29.2494 41.6421 29.3233 41.9814C29.3886 42.3146 29.4105 42.6629 29.3891 43.0264C29.359 43.3837 29.2756 43.7425 29.1388 44.1029C29.0108 44.4695 28.83 44.8184 28.5964 45.1496ZM26.4706 39.8911C26.0861 39.659 25.6934 39.5126 25.2925 39.4517C24.889 39.376 24.4984 39.3746 24.1207 39.4476C23.749 39.5118 23.3977 39.6491 23.0666 39.8594C22.7417 40.0609 22.4625 40.3273 22.2288 40.6586C21.9952 40.9898 21.8349 41.3466 21.7479 41.7291C21.6609 42.1115 21.6465 42.4929 21.7045 42.8732C21.7688 43.2449 21.9042 43.608 22.1109 43.9626C22.3238 44.3086 22.5997 44.6206 22.9386 44.8988L26.4706 39.8911Z" fill="white"/>
<path d="M41.2896 30.8655L40.501 31.615L37.2935 28.2401C36.6248 27.5365 36.0203 27.125 35.4801 27.0056C34.9399 26.8862 34.4495 27.036 34.0088 27.4548C33.7768 27.6753 33.5969 27.9272 33.4689 28.2107C33.3487 28.4868 33.2732 28.7867 33.2423 29.1103C33.2192 29.4266 33.2448 29.7555 33.3191 30.0969C33.3861 30.4306 33.506 30.758 33.6789 31.0793L37.184 34.7674L36.3954 35.5169L33.1879 32.142C32.5045 31.4229 31.9002 31.0039 31.3751 30.8849C30.85 30.7659 30.3632 30.9195 29.9148 31.3457C29.4586 31.7793 29.2033 32.3235 29.1489 32.9786C29.0945 33.6336 29.2362 34.2936 29.5739 34.9586L33.09 38.6583L32.3013 39.4078L26.5587 33.3654L27.2778 32.682L28.5784 34.0505C28.3849 33.3515 28.368 32.6833 28.5275 32.0461C28.6798 31.4011 28.9994 30.8471 29.4865 30.3842C29.9968 29.8992 30.5387 29.6564 31.1121 29.6559C31.6933 29.6481 32.2391 29.8431 32.7496 30.2408C32.3293 28.6683 32.6141 27.4118 33.6037 26.4712C33.9439 26.1479 34.2888 25.9379 34.6383 25.8412C34.9956 25.7371 35.354 25.7349 35.7136 25.8346C36.0736 25.9192 36.4389 26.0944 36.8094 26.3604C37.1802 26.6113 37.553 26.9339 37.9278 27.3282L41.2896 30.8655Z" fill="white"/>
<path d="M47.4415 26.6584L43.0703 19.5604L43.9968 18.9899L48.3679 26.0879L47.4415 26.6584ZM42.1558 18.0754L41.3168 16.713L42.2433 16.1425L43.0823 17.5049L42.1558 18.0754Z" fill="white"/>
<path d="M54.7557 22.7906C54.1191 23.0912 53.4797 23.1985 52.8375 23.1124C52.2004 23.0122 51.6162 22.7867 51.0849 22.436L53.2778 27.0803L52.2939 27.5448L47.2797 16.9251L48.1623 16.5084L48.8522 17.9697C48.9377 17.3513 49.1581 16.7813 49.5134 16.2597C49.8642 15.7284 50.3289 15.3261 50.9076 15.0529C51.4285 14.8069 51.9583 14.6924 52.4971 14.7093C53.0314 14.7166 53.5442 14.8283 54.0355 15.0446C54.5224 15.2512 54.9641 15.5498 55.3609 15.9405C55.7673 16.3266 56.089 16.7704 56.3258 17.272C56.5763 17.8025 56.7311 18.3428 56.7903 18.8928C56.8495 19.4429 56.809 19.9692 56.6688 20.4718C56.5383 20.9699 56.311 21.4252 55.9868 21.8378C55.6676 22.2362 55.2573 22.5538 54.7557 22.7906ZM54.0709 22.0523C54.4761 21.861 54.8016 21.6012 55.0476 21.2727C55.3032 20.9397 55.4807 20.5787 55.5801 20.1896C55.6846 19.7864 55.7153 19.3768 55.6722 18.9607C55.6246 18.5349 55.5096 18.1291 55.3275 17.7433C55.1362 17.3382 54.8817 16.9865 54.5639 16.6883C54.2462 16.3901 53.8959 16.1603 53.513 15.999C53.1302 15.8377 52.7264 15.7571 52.3018 15.757C51.8867 15.7525 51.4815 15.8435 51.086 16.0303C50.8352 16.1487 50.595 16.327 50.3654 16.5651C50.1409 16.7891 49.949 17.0448 49.7899 17.3323C49.6358 17.6056 49.5266 17.899 49.4623 18.2124C49.4031 18.5117 49.4134 18.7958 49.4932 19.0648L50.5862 21.3798C50.8295 21.5952 51.0926 21.7777 51.3755 21.9272C51.6681 22.0721 51.9662 22.1791 52.2701 22.2479C52.579 22.3026 52.8864 22.3167 53.1924 22.2902C53.4984 22.2637 53.7912 22.1844 54.0709 22.0523Z" fill="white"/>
<path d="M63.131 19.4883C62.5092 19.6798 61.8712 19.7646 61.2172 19.7428C60.5631 19.721 59.9624 19.5823 59.4149 19.3268L59.6724 18.4774C60.2339 18.7063 60.7723 18.8418 61.2876 18.884C61.813 18.9231 62.3408 18.8611 62.8709 18.6978C63.5131 18.5001 63.9836 18.2157 64.2823 17.8447C64.5881 17.4604 64.6672 17.0286 64.5197 16.5495C64.4506 16.3252 64.3431 16.1574 64.1972 16.0461C64.0482 15.9246 63.8545 15.8391 63.6161 15.7898C63.3878 15.7373 63.1083 15.7173 62.7773 15.73C62.4534 15.7292 62.0786 15.7442 61.6527 15.7749C61.1595 15.804 60.7274 15.8143 60.3564 15.8058C59.9855 15.7972 59.6659 15.7561 59.3977 15.6824C59.1396 15.6056 58.9232 15.4826 58.7483 15.3132C58.5804 15.1305 58.4478 14.8812 58.3505 14.5651C58.2281 14.1676 58.1962 13.7923 58.255 13.4394C58.3239 13.0833 58.4611 12.7677 58.6665 12.4924C58.8789 12.2037 59.1479 11.9535 59.4733 11.7417C59.8089 11.5267 60.1806 11.3565 60.5884 11.2309C61.2 11.0426 61.787 10.9734 62.3493 11.0235C62.9085 11.0634 63.3912 11.1993 63.7975 11.4314L63.4812 12.1984C63.0914 11.9836 62.6589 11.8657 62.1836 11.8446C61.7186 11.8204 61.2567 11.8789 60.7979 12.0202C60.5227 12.1049 60.2772 12.214 60.0616 12.3474C59.8428 12.4705 59.6605 12.6215 59.5147 12.8004C59.3791 12.9761 59.2901 13.1765 59.2478 13.4015C59.2024 13.6164 59.2189 13.8513 59.2973 14.1062C59.3633 14.3202 59.4523 14.4826 59.5645 14.5931C59.6767 14.7037 59.83 14.7848 60.0245 14.8365C60.2158 14.878 60.4464 14.9019 60.7162 14.9081C60.993 14.901 61.3224 14.8833 61.7043 14.855C62.2517 14.8204 62.7379 14.8046 63.163 14.8076C63.588 14.8107 63.9531 14.8545 64.2582 14.9391C64.5734 15.0206 64.8334 15.1582 65.0382 15.3519C65.2429 15.5455 65.3971 15.8106 65.5006 16.147C65.7267 16.881 65.6252 17.5484 65.1964 18.1492C64.7676 18.75 64.0791 19.1964 63.131 19.4883Z" fill="white"/>
<path d="M70.7946 17.5385C69.8992 17.681 69.1834 17.4925 68.647 16.973C68.1196 16.4413 67.7619 15.5856 67.5741 14.4058L66.8045 9.57063L67.879 9.3996L68.6184 14.0451C68.9152 15.9096 69.7009 16.7405 70.9755 16.5376C71.2916 16.4873 71.5939 16.3851 71.8827 16.2312C72.1714 16.0772 72.4262 15.88 72.6472 15.6396C72.8787 15.3976 73.0727 15.1237 73.2292 14.8179C73.3963 14.5105 73.5154 14.1729 73.5865 13.8052L72.7615 8.62241L73.836 8.45138L74.925 15.2932C74.972 15.5882 75.1219 15.7155 75.3747 15.6753L75.5256 16.6234C75.4026 16.6646 75.2989 16.6919 75.2146 16.7053C75.1409 16.717 75.0882 16.7254 75.0566 16.7304C74.8021 16.7601 74.5824 16.7033 74.3976 16.5599C74.2128 16.4165 74.0977 16.2026 74.0524 15.9182L73.9015 14.9701C73.6457 15.6697 73.2355 16.248 72.671 16.7051C72.1153 17.15 71.4899 17.4278 70.7946 17.5385Z" fill="white"/>
<path d="M90.7636 16.5128L89.6764 16.4708L89.856 11.8183C89.8935 10.8484 89.7665 10.1283 89.4751 9.65801C89.1837 9.18774 88.7342 8.94089 88.1266 8.91743C87.8069 8.90508 87.5008 8.95197 87.2085 9.05811C86.9269 9.16465 86.6594 9.31978 86.406 9.52349C86.1633 9.72761 85.9455 9.97539 85.7528 10.2668C85.5605 10.5476 85.4096 10.862 85.3001 11.2101L85.1038 16.2943L84.0166 16.2523L84.1962 11.5998C84.2345 10.6085 84.1131 9.88329 83.8319 9.4241C83.5507 8.96491 83.1011 8.72338 82.4829 8.69951C81.854 8.67522 81.286 8.87212 80.7788 9.2902C80.2716 9.70827 79.8977 10.2703 79.6569 10.9762L79.46 16.0764L78.3728 16.0344L78.6944 7.70459L79.6857 7.74287L79.6128 9.62946C79.9786 9.00311 80.4454 8.52476 81.0132 8.19443C81.5815 7.85343 82.2014 7.6959 82.8729 7.72183C83.5763 7.74899 84.1283 7.96778 84.5288 8.37821C84.9399 8.78904 85.1811 9.31607 85.2523 9.9593C86.0855 8.56107 87.1843 7.8883 88.5486 7.94098C89.0176 7.95909 89.4087 8.05959 89.7219 8.24247C90.0457 8.42577 90.2974 8.68101 90.4769 9.00817C90.6675 9.3251 90.7968 9.70904 90.8647 10.16C90.9438 10.6007 90.9728 11.0929 90.9518 11.6365L90.7636 16.5128Z" fill="white"/>
<path d="M98.1877 17.8859L101.407 6.99176L102.481 7.3092L99.5429 17.252L105.834 19.1113L105.553 20.0627L98.1877 17.8859Z" fill="white"/>
<path d="M110.077 22.1781C109.526 21.9206 109.071 21.5841 108.712 21.1689C108.357 20.7439 108.094 20.2736 107.923 19.758C107.762 19.2469 107.7 18.7116 107.738 18.1523C107.776 17.593 107.917 17.0525 108.161 16.5307C108.409 15.9993 108.736 15.5398 109.141 15.1522C109.556 14.7691 110.011 14.4756 110.507 14.2717C111.012 14.0723 111.541 13.9725 112.095 13.9723C112.648 13.9721 113.196 14.0985 113.737 14.3515C114.278 14.6046 114.726 14.9435 115.081 15.3685C115.445 15.7979 115.708 16.2682 115.869 16.7794C116.04 17.295 116.107 17.8325 116.069 18.3918C116.041 18.9556 115.903 19.5033 115.654 20.0347C115.41 20.5565 115.086 21.0111 114.681 21.3988C114.276 21.7864 113.82 22.0799 113.315 22.2792C112.819 22.4831 112.29 22.5829 111.727 22.5786C111.178 22.5691 110.628 22.4356 110.077 22.1781ZM109.154 17.0129C108.955 17.438 108.842 17.8681 108.816 18.303C108.793 18.7283 108.838 19.1375 108.948 19.5307C109.073 19.9187 109.263 20.2668 109.52 20.575C109.785 20.8878 110.107 21.1323 110.484 21.3085C110.86 21.4847 111.249 21.5723 111.65 21.5713C112.065 21.5652 112.461 21.4856 112.839 21.3326C113.221 21.1698 113.571 20.9388 113.888 20.6394C114.204 20.34 114.462 19.9777 114.661 19.5525C114.855 19.1371 114.966 18.7118 114.992 18.2769C115.024 17.8323 114.977 17.416 114.852 17.0279C114.732 16.6303 114.539 16.275 114.273 15.9623C114.021 15.6444 113.707 15.3974 113.33 15.2212C112.953 15.0449 112.562 14.9622 112.157 14.9728C111.756 14.9738 111.365 15.0556 110.982 15.2184C110.6 15.3811 110.248 15.617 109.927 15.926C109.611 16.2254 109.353 16.5877 109.154 17.0129Z" fill="white"/>
<path d="M123.839 21.1911C123.205 20.8163 122.556 20.6461 121.891 20.6805C121.226 20.7149 120.619 20.9565 120.071 21.4052L117.305 25.7891L116.384 25.2084L120.834 18.159L121.7 18.7055L120.632 20.3968C121.235 20.0207 121.855 19.8188 122.49 19.791C123.126 19.7633 123.696 19.9088 124.201 20.2276C124.273 20.2732 124.329 20.3147 124.369 20.3522L123.839 21.1911Z" fill="white"/>
<path d="M124.179 30.7839C123.709 30.3982 123.347 29.9564 123.093 29.4584C122.855 28.959 122.716 28.4383 122.678 27.8964C122.646 27.3462 122.714 26.8014 122.881 26.2621C123.056 25.7295 123.333 25.2323 123.712 24.7706C124.084 24.3171 124.511 23.9567 124.992 23.6895C125.489 23.4208 125.999 23.2531 126.523 23.1864C127.062 23.1181 127.6 23.1598 128.138 23.3115C128.683 23.4549 129.186 23.7161 129.648 24.095C130.118 24.4808 130.472 24.9233 130.711 25.4228C130.964 25.9207 131.106 26.4373 131.136 26.9725C131.166 27.5076 131.097 28.0374 130.929 28.5617C130.761 29.0861 130.494 29.5709 130.128 30.0161C130.074 30.0821 130.02 30.148 129.966 30.214C129.912 30.28 129.871 30.3219 129.842 30.3399L124.326 25.8128C124.066 26.1794 123.881 26.5653 123.769 26.9704C123.672 27.374 123.643 27.771 123.682 28.1613C123.72 28.5516 123.825 28.9203 123.995 29.2673C124.181 29.6128 124.43 29.9141 124.744 30.1713C124.95 30.3404 125.18 30.4807 125.433 30.5922C125.687 30.7037 125.941 30.781 126.195 30.8241C126.449 30.8673 126.704 30.8763 126.959 30.8512C127.221 30.8178 127.46 30.745 127.677 30.6327L128.244 31.4295C127.949 31.5874 127.629 31.6909 127.286 31.7399C126.948 31.7807 126.599 31.7771 126.239 31.7293C125.884 31.6732 125.533 31.5639 125.183 31.4012C124.827 31.2469 124.492 31.0411 124.179 30.7839ZM129.578 29.0471C129.838 28.6805 130.012 28.2995 130.102 27.9042C130.207 27.5073 130.237 27.1178 130.192 26.7358C130.155 26.3604 130.044 26 129.858 25.6545C129.681 25.3158 129.435 25.0178 129.122 24.7607C128.809 24.5036 128.464 24.3177 128.089 24.203C127.714 24.0884 127.335 24.0462 126.951 24.0764C126.576 24.1133 126.204 24.222 125.835 24.4023C125.475 24.5894 125.143 24.8418 124.841 25.1595L129.578 29.0471Z" fill="white"/>
<path d="M137.525 44.4965L136.835 43.6555L140.434 40.7017C141.185 40.0859 141.639 39.513 141.797 38.9829C141.956 38.4528 141.842 37.9528 141.456 37.4828C141.253 37.2354 141.015 37.0376 140.742 36.8894C140.475 36.7495 140.181 36.6524 139.861 36.5981C139.547 36.552 139.217 36.5536 138.871 36.6029C138.534 36.6455 138.198 36.7413 137.865 36.8904L133.932 40.1182L133.242 39.2772L136.841 36.3234C137.608 35.6941 138.07 35.1219 138.227 34.6068C138.383 34.0917 138.266 33.5951 137.873 33.1168C137.474 32.6304 136.949 32.3362 136.3 32.2344C135.651 32.1325 134.982 32.2258 134.294 32.5143L130.349 35.7523L129.659 34.9113L136.103 29.6229L136.732 30.3897L135.272 31.5875C135.984 31.4453 136.651 31.4769 137.275 31.6824C137.908 31.8811 138.437 32.2402 138.863 32.7596C139.31 33.3038 139.513 33.8619 139.471 34.4338C139.437 35.014 139.203 35.5442 138.769 36.0245C140.368 35.7196 141.6 36.0949 142.467 37.1503C142.764 37.5131 142.949 37.8723 143.02 38.2279C143.098 38.5918 143.074 38.9495 142.948 39.3009C142.838 39.6538 142.636 40.0053 142.344 40.3555C142.067 40.7072 141.718 41.0555 141.298 41.4006L137.525 44.4965Z" fill="white"/>
<path d="M141.328 51.0367L148.728 47.2005L149.229 48.1664L141.828 52.0027L141.328 51.0367ZM150.277 46.3979L151.697 45.6616L152.198 46.6275L150.778 47.3639L150.277 46.3979Z" fill="white"/>
<path d="M144.647 58.6437C144.395 57.9864 144.336 57.3408 144.47 56.7068C144.617 56.0789 144.885 55.5132 145.275 55.0095L140.48 56.8499L140.09 55.8341L151.054 51.626L151.404 52.5372L149.895 53.1162C150.505 53.2476 151.057 53.5099 151.551 53.9031C152.055 54.2925 152.421 54.786 152.651 55.3835C152.857 55.9212 152.932 56.4581 152.875 56.9942C152.827 57.5264 152.678 58.0294 152.426 58.5033C152.183 58.9733 151.852 59.3916 151.433 59.7582C151.018 60.1347 150.551 60.4223 150.034 60.621C149.486 60.8312 148.935 60.9453 148.383 60.9633C147.83 60.9813 147.308 60.9017 146.817 60.7244C146.33 60.5571 145.893 60.2965 145.506 59.9424C145.132 59.5944 144.846 59.1615 144.647 58.6437ZM145.435 58.0159C145.595 58.4341 145.83 58.7782 146.139 59.048C146.452 59.3277 146.799 59.5317 147.18 59.6598C147.574 59.7941 147.98 59.8553 148.398 59.8433C148.826 59.8275 149.24 59.7432 149.638 59.5903C150.056 59.4298 150.426 59.2022 150.747 58.9076C151.068 58.613 151.323 58.2808 151.513 57.9111C151.702 57.5413 151.813 57.1447 151.844 56.7212C151.88 56.3077 151.819 55.8968 151.663 55.4885C151.563 55.2296 151.403 54.9767 151.183 54.73C150.976 54.4894 150.736 54.279 150.461 54.0988C150.2 53.9248 149.915 53.794 149.608 53.7065C149.314 53.6251 149.029 53.6142 148.755 53.6737L146.365 54.591C146.132 54.8175 145.931 55.0663 145.76 55.3373C145.594 55.6182 145.465 55.9076 145.374 56.2054C145.296 56.5094 145.259 56.815 145.263 57.1221C145.267 57.4292 145.324 57.7271 145.435 58.0159Z" fill="white"/>
<path d="M147.249 66.9964C147.103 66.3623 147.064 65.7199 147.133 65.0691C147.202 64.4184 147.383 63.8292 147.678 63.3015L148.506 63.6195C148.237 64.1631 148.063 64.6903 147.984 65.2012C147.907 65.7225 147.931 66.2533 148.056 66.7938C148.207 67.4486 148.457 67.9384 148.805 68.263C149.167 68.5957 149.591 68.7057 150.08 68.593C150.309 68.5403 150.484 68.4452 150.605 68.3077C150.737 68.1678 150.836 67.9808 150.903 67.7465C150.972 67.5227 151.012 67.2452 151.023 66.9143C151.047 66.5913 151.059 66.2163 151.059 65.7894C151.066 65.2953 151.086 64.8635 151.122 64.4942C151.157 64.1248 151.221 63.809 151.314 63.5468C151.409 63.295 151.547 63.0879 151.729 62.9257C151.923 62.7714 152.181 62.6571 152.503 62.5828C152.909 62.4893 153.285 62.4846 153.633 62.5686C153.983 62.663 154.288 62.8226 154.548 63.0473C154.821 63.28 155.051 63.5662 155.239 63.9061C155.429 64.2563 155.572 64.6393 155.668 65.055C155.812 65.6786 155.838 66.2691 155.748 66.8263C155.668 67.3812 155.498 67.8528 155.237 68.2413L154.495 67.8707C154.737 67.4973 154.886 67.0744 154.941 66.6019C154.999 66.1398 154.973 65.6749 154.866 65.2072C154.801 64.9265 154.71 64.6739 154.592 64.4492C154.485 64.2221 154.348 64.0294 154.18 63.8711C154.014 63.7232 153.821 63.62 153.599 63.5616C153.388 63.5008 153.153 63.5004 152.893 63.5603C152.675 63.6106 152.506 63.6877 152.388 63.7916C152.27 63.8956 152.178 64.0426 152.112 64.2329C152.057 64.4208 152.017 64.649 151.991 64.9177C151.978 65.1943 151.972 65.5241 151.973 65.907C151.968 66.4555 151.949 66.9416 151.915 67.3653C151.881 67.7891 151.811 68.15 151.705 68.4482C151.601 68.7568 151.445 69.0062 151.237 69.1965C151.029 69.3867 150.754 69.5214 150.411 69.6005C149.662 69.773 149.004 69.6238 148.436 69.1528C147.867 68.6818 147.472 67.963 147.249 66.9964Z" fill="white"/>
<path d="M148.664 74.9578C148.587 74.0544 148.827 73.3542 149.384 72.8571C149.953 72.3699 150.833 72.0756 152.023 71.9743L156.901 71.5594L156.994 72.6435L152.306 73.0422C150.425 73.2022 149.539 73.9252 149.649 75.2112C149.676 75.5301 149.756 75.8391 149.888 76.1382C150.021 76.4374 150.199 76.706 150.422 76.9439C150.647 77.1924 150.906 77.4059 151.199 77.5843C151.494 77.7734 151.822 77.9168 152.183 78.0145L157.413 77.5697L157.505 78.6538L150.602 79.2409C150.304 79.2663 150.166 79.4064 150.188 79.6615L149.231 79.7429C149.199 79.6172 149.18 79.5118 149.172 79.4267C149.166 79.3523 149.161 79.2992 149.159 79.2673C149.148 79.0113 149.22 78.7964 149.377 78.6225C149.533 78.4486 149.755 78.3495 150.042 78.3251L150.999 78.2437C150.32 77.9375 149.773 77.4862 149.358 76.8899C148.955 76.3033 148.723 75.6592 148.664 74.9578Z" fill="white"/>
</svg>
