<svg width="60" height="60" viewBox="0 0 60 60" fill="none" xmlns="http://www.w3.org/2000/svg">
<path d="M1.75781 60H19.6965C20.6673 60 21.4543 59.213 21.4543 58.2422V56.2837C21.4543 52.22 19.1829 48.6769 15.843 46.8571C17.0292 45.5978 17.7585 43.9035 17.7585 42.041C17.7585 38.164 14.6043 35.0098 10.7272 35.0098C6.8502 35.0098 3.69598 38.164 3.69598 42.041C3.69598 43.9035 4.42523 45.5978 5.61141 46.8571C2.27145 48.6769 0 52.22 0 56.2837V58.2422C0 59.213 0.787031 60 1.75781 60ZM7.2116 42.041C7.2116 40.1025 8.78871 38.5254 10.7272 38.5254C12.6657 38.5254 14.2429 40.1025 14.2429 42.041C14.2429 43.9795 12.6657 45.5566 10.7272 45.5566C8.78871 45.5566 7.2116 43.9795 7.2116 42.041ZM10.7272 49.0723C14.4933 49.0723 17.9387 52.0246 17.9387 56.4844H3.51563C3.51563 52.0478 6.94102 49.0723 10.7272 49.0723Z" fill="black"/>
<path d="M54.3888 46.8571C55.575 45.5978 56.3043 43.9035 56.3043 42.041C56.3043 38.164 53.15 35.0098 49.273 35.0098C45.396 35.0098 42.2418 38.164 42.2418 42.041C42.2418 43.9035 42.971 45.5978 44.1572 46.8571C40.8173 48.6769 38.5459 52.2199 38.5459 56.2837V58.2422C38.5459 59.213 39.3329 60 40.3037 60H58.2423C59.2131 60 60.0001 59.213 60.0001 58.2422V56.2837C60.0001 52.22 57.7287 48.6769 54.3888 46.8571ZM45.7573 42.041C45.7573 40.1025 47.3344 38.5254 49.2729 38.5254C51.2114 38.5254 52.7885 40.1025 52.7885 42.041C52.7885 43.9795 51.2114 45.5566 49.2729 45.5566C47.3344 45.5566 45.7573 43.9795 45.7573 42.041ZM56.4845 56.4844H42.0614C42.0614 52.0478 45.4868 49.0723 49.2729 49.0723C53.0388 49.0723 56.4845 52.0242 56.4845 56.4844Z" fill="black"/>
<path d="M40.7273 23.2324V21.274C40.7273 17.2103 38.4558 13.6671 35.116 11.8473C36.302 10.588 37.0313 8.89371 37.0313 7.03125C37.0313 3.15422 33.8771 0 30.0001 0C26.123 0 22.9688 3.15422 22.9688 7.03125C22.9688 8.89371 23.6981 10.588 24.8842 11.8473C21.5444 13.6671 19.2729 17.2103 19.2729 21.274V23.2324C19.2729 24.2032 20.06 24.9902 21.0308 24.9902H38.9695C39.9403 24.9902 40.7273 24.2032 40.7273 23.2324ZM26.4844 7.03125C26.4844 5.09273 28.0615 3.51562 30.0001 3.51562C31.9386 3.51562 33.5157 5.09273 33.5157 7.03125C33.5157 8.96977 31.9386 10.5469 30.0001 10.5469C28.0615 10.5469 26.4844 8.96977 26.4844 7.03125ZM37.2117 21.4746H22.7885C22.7885 17.038 26.2138 14.0625 30.0001 14.0625C33.7659 14.0625 37.2117 17.0145 37.2117 21.4746Z" fill="black"/>
<path d="M37.1015 44.4199C34.805 45.1743 32.3833 45.5567 29.9041 45.5567C27.5117 45.5567 25.169 45.1994 22.9412 44.4948C22.0153 44.2024 21.0277 44.7151 20.7351 45.6406C20.4424 46.5662 20.9554 47.5539 21.881 47.8467C24.4521 48.6598 27.1515 49.0722 29.904 49.0722C32.7567 49.0722 35.5474 48.6307 38.1986 47.7598C39.121 47.4569 39.6231 46.4635 39.3201 45.5413C39.0172 44.619 38.0239 44.1167 37.1015 44.4199Z" fill="#2242A8"/>
<path d="M13.7967 14.5676C11.8554 16.439 10.205 18.6145 8.89149 21.0338C7.53024 23.541 6.58664 26.2042 6.08696 28.9496C5.89114 30.0255 6.71672 31.0224 7.8184 31.0224C8.65137 31.0224 9.39129 30.4277 9.54574 29.5791C9.97864 27.201 10.798 24.8903 11.981 22.7113C13.1228 20.6086 14.5545 18.7203 16.2366 17.0989C16.9355 16.4252 16.956 15.3123 16.2823 14.6133C15.6084 13.9144 14.4957 13.8939 13.7967 14.5676Z" fill="#2242A8"/>
<path d="M46.2034 14.5677C45.5043 13.8938 44.3915 13.9145 43.7178 14.6134C43.0441 15.3124 43.0645 16.4252 43.7635 17.0989C45.4456 18.7203 46.8774 20.6086 48.0191 22.7114C49.2022 24.8905 50.0214 27.2012 50.4543 29.5792C50.628 30.5332 51.5421 31.1676 52.4984 30.9937C53.4535 30.8199 54.0869 29.9046 53.9131 28.9496C53.4134 26.2043 52.4698 23.5411 51.1086 21.0338C49.795 18.6145 48.1447 16.4389 46.2034 14.5677Z" fill="#2242A8"/>
</svg>
