<svg width="55" height="55" viewBox="0 0 55 55" fill="none" xmlns="http://www.w3.org/2000/svg">
<g clip-path="url(#clip0)">
<path d="M3.10596 53.3887C3.10596 54.2786 3.8274 55 4.71728 55H11.1626C12.0525 55 12.7739 54.2786 12.7739 53.3887V45.8691C12.7739 44.9793 12.0525 44.2578 11.1626 44.2578H4.71728C3.8274 44.2578 3.10596 44.9793 3.10596 45.8691V53.3887ZM6.32861 47.4805H9.55127V51.7773H6.32861V47.4805Z" fill="black"/>
<path d="M25.6645 53.3888V37.9028C25.6645 37.0129 24.9431 36.2915 24.0532 36.2915H17.6079C16.718 36.2915 15.9966 37.0129 15.9966 37.9028V53.3888C15.9966 54.2786 16.718 55.0001 17.6079 55.0001H24.0532C24.9431 55.0001 25.6645 54.2786 25.6645 53.3888ZM22.4419 51.7774H19.2192V39.5142H22.4419V51.7774Z" fill="black"/>
<path d="M38.5551 53.3887V25.9582C38.5551 25.0684 37.8337 24.3469 36.9438 24.3469H30.4985C29.6086 24.3469 28.8872 25.0684 28.8872 25.9582V53.3887C28.8872 54.2786 29.6086 55.0001 30.4985 55.0001H36.9438C37.8337 55.0001 38.5551 54.2786 38.5551 53.3887ZM35.3325 51.7774H32.1099V27.5696H35.3325V51.7774Z" fill="black"/>
<path d="M51.4458 53.3887V14.0764C51.4458 13.1865 50.7243 12.4651 49.8344 12.4651H43.3892C42.4993 12.4651 41.7778 13.1865 41.7778 14.0764V53.3887C41.7778 54.2786 42.4993 55 43.3892 55H49.8344C50.7243 55 51.4458 54.2786 51.4458 53.3887ZM48.2231 51.7774H45.0005V15.6877H48.2231V51.7774Z" fill="black"/>
<path d="M51.1878 0.278697C50.4516 -0.221457 49.4495 -0.0301398 48.9495 0.706019L45.3389 6.01984H39.8338C39.2343 6.01984 38.6843 6.35274 38.4063 6.88383L32.6384 17.9016H27.2758C26.6875 17.9016 26.146 18.2222 25.8631 18.7379L19.7692 29.8461H14.3852C13.8547 29.8461 13.3582 30.1073 13.0576 30.5444L8.05927 37.8125H4.71728C3.8274 37.8125 3.10596 38.5339 3.10596 39.4238C3.10596 40.3137 3.8274 41.0351 4.71728 41.0351H8.90671C9.43716 41.0351 9.93377 40.774 10.2343 40.3369L15.2327 33.0688H20.7231C21.3113 33.0688 21.8528 32.7482 22.1358 32.2325L28.2297 21.1243H33.6136C34.2132 21.1243 34.7632 20.7914 35.0412 20.2603L40.8091 9.24248H46.1922C46.7259 9.24248 47.225 8.97822 47.5249 8.53672L51.615 2.51714C52.1152 1.78099 51.9238 0.778851 51.1878 0.278697Z" fill="#2242A8"/>
</g>
<defs>
<clipPath id="clip0">
<rect width="55" height="55" fill="white"/>
</clipPath>
</defs>
</svg>
