<svg width="60" height="60" viewBox="0 0 60 60" fill="none" xmlns="http://www.w3.org/2000/svg">
<g clip-path="url(#clip0)">
<path d="M54.8187 19.7358L58.3512 16.2033C59.0377 15.5169 59.0377 14.4038 58.3512 13.7174L46.2833 1.64939C45.5969 0.963027 44.4839 0.963027 43.7974 1.64939L40.2649 5.18189L35.5981 0.51502C34.9118 -0.171348 33.7987 -0.171348 33.1122 0.51502L0.515351 33.112C-0.171133 33.7984 -0.171133 34.9114 0.515351 35.5979L24.4028 59.4854C25.0893 60.1719 26.2023 60.1719 26.8887 59.4854L59.4856 26.8885C60.1721 26.2022 60.1721 25.0891 59.4856 24.4026L54.8187 19.7358ZM45.0403 5.37818L54.6225 14.9604L52.333 17.2499L42.7508 7.66779L45.0403 5.37818ZM25.6457 55.7565L4.24414 34.3549L29.3833 9.21572L50.7849 30.6173L25.6457 55.7565ZM53.2707 28.1315L31.8692 6.72994L34.3552 4.24393C36.9946 6.88334 53.4405 23.3292 55.7568 25.6455L53.2707 28.1315Z" fill="black"/>
<path d="M39.983 25.6823C39.8355 24.7228 38.9372 24.0653 37.9786 24.2118L22.5695 26.5795C21.1621 26.7949 20.5689 28.535 21.5935 29.5599L27.9868 35.9533L16.0072 37.794C15.0477 37.9415 14.3893 38.8388 14.5367 39.7983C14.6839 40.7561 15.5794 41.4161 16.5411 41.2688L31.9501 38.9012C33.3888 38.6787 33.9293 36.924 32.926 35.9207L26.5328 29.5273L38.5125 27.6868C39.4719 27.5392 40.1304 26.6419 39.983 25.6823Z" fill="#2242A8"/>
</g>
<defs>
<clipPath id="clip0">
<rect width="60" height="60" fill="white"/>
</clipPath>
</defs>
</svg>
