<svg width="25" height="25" viewBox="0 0 25 25" fill="none" xmlns="http://www.w3.org/2000/svg">
<path d="M4.94792 25H20.0521C22.7802 25 25 22.7802 25 20.0521V4.94792C25 2.21979 22.7802 0 20.0521 0H4.94792C2.21979 0 0 2.21979 0 4.94792V20.0521C0 22.7802 2.21979 25 4.94792 25ZM1.5625 4.94792C1.5625 3.08125 3.08125 1.5625 4.94792 1.5625H20.0521C21.9187 1.5625 23.4375 3.08125 23.4375 4.94792V20.0521C23.4375 21.9187 21.9187 23.4375 20.0521 23.4375H4.94792C3.08125 23.4375 1.5625 21.9187 1.5625 20.0521V4.94792Z" fill="#2242A8"/>
<path d="M12.5002 18.8853C16.021 18.8853 18.8856 16.0208 18.8856 12.4999C18.8856 8.97909 16.021 6.1145 12.5002 6.1145C8.97933 6.1145 6.11475 8.97909 6.11475 12.4999C6.11475 16.0208 8.97933 18.8853 12.5002 18.8853ZM12.5002 7.677C15.1595 7.677 17.3231 9.84054 17.3231 12.4999C17.3231 15.1593 15.1595 17.3228 12.5002 17.3228C9.84079 17.3228 7.67725 15.1593 7.67725 12.4999C7.67725 9.84054 9.84079 7.677 12.5002 7.677Z" fill="#2242A8"/>
<path d="M19.1228 7.66867C20.1498 7.66867 20.9238 6.89784 20.9238 5.87596C20.9238 4.81034 20.1092 4.08325 19.1238 4.08325C18.0967 4.08325 17.3228 4.85409 17.3228 5.87596C17.3228 6.9395 18.1332 7.66867 19.1228 7.66867ZM19.3071 5.70409C19.6363 5.99471 18.8853 6.34784 18.8853 5.877C18.8853 5.59575 19.2675 5.66867 19.3071 5.70409Z" fill="#2242A8"/>
</svg>
