<svg width="50" height="50" fill="none" xmlns="http://www.w3.org/2000/svg"><path d="M47.656 21.875a3.925 3.925 0 00-2.343-1.477v-3.992a3.91 3.91 0 00-3.907-3.906h-2.383a2.729 2.729 0 00-2.693-2.342l-10.635-.002a5.447 5.447 0 001.649-3.906A5.475 5.475 0 0021.875.781a5.475 5.475 0 00-5.469 5.469c0 1.745.825 3.297 2.1 4.3a7.03 7.03 0 00-4.604 5.342l-1.27 6.764h-1.694c-3.18 0-6.218 1.519-8.126 4.063a10.22 10.22 0 00-2.03 6.093V42.97h4.687v-.782c0-4.738 3.855-8.593 8.593-8.593 4.476 0 8.158 3.439 8.554 7.812h-2.303v1.563h15.625v-1.563h-2.304c.396-4.373 4.078-7.812 8.553-7.812h7.032V23.96l-1.563-2.084zm-8.866-7.813h2.616a2.347 2.347 0 012.344 2.344v3.907h-1.563v-3.125c0-.862-.7-1.563-1.562-1.563h-2.344a.766.766 0 01-.634-.352 2.732 2.732 0 001.143-1.21zm-9.203 18.272l-1.67-4.459 5.314-5.314a2.36 2.36 0 011.657-.686h1.83v2.704a3.242 3.242 0 01-2.834 3.21 4.83 4.83 0 00-4.06 3.598l-.237.947zm5.301-12.022a3.88 3.88 0 00-2.761 1.144l-4.798 4.798c-.881-1.852-2.631-3.195-4.674-3.52l1.297-6.48a.784.784 0 01.765-.629h11.364a2.34 2.34 0 002.2 1.563h2.344v3.125h-5.737zM17.968 6.25a3.91 3.91 0 013.907-3.906 3.91 3.91 0 013.906 3.906 3.91 3.91 0 01-3.906 3.906 3.91 3.91 0 01-3.906-3.906zm-3.845 16.94l1.314-7.01a5.471 5.471 0 015.375-4.461h15.517c.645 0 1.171.526 1.171 1.177 0 .642-.522 1.165-1.164 1.165l-11.619.002a2.349 2.349 0 00-2.297 1.884l-1.654 8.27.949.004a4.716 4.716 0 014.562 3.704l2.604 6.955c.071.392-.008.79-.226 1.125-.227.35-.577.592-.986.68-.814.176-1.677-.378-1.854-1.202l-2.61-6.97a1.572 1.572 0 00-1.512-1.17h-3.96c-1.228 0-2.348-.536-2.995-1.435a3.504 3.504 0 01-.615-2.718zm-.06 8.841c-5.338 0-9.727 4.139-10.127 9.375H2.344v-8.593c0-1.847.61-3.679 1.719-5.157a8.635 8.635 0 016.875-3.437h1.58c.07.925.388 1.82.95 2.602.941 1.306 2.536 2.085 4.266 2.085l3.96.003 2.608 6.963c.071.305.195.586.347.847h-2.042c-1.808-2.814-4.959-4.688-8.544-4.688zm10.116 9.375a10.093 10.093 0 00-.744-3.125h9.38c-.407.974-.66 2.026-.744 3.125H24.18zm23.477-9.375h-5.468c-3.586 0-6.737 1.874-8.545 4.688h-3.6c.248-.434.385-.911.41-1.402l.887-3.55a3.256 3.256 0 012.737-2.426 4.805 4.805 0 004.204-4.761v-2.705h6.25c.733 0 1.435.35 1.875.938l.469.625h-7.031v.78a5.475 5.475 0 005.468 5.47h2.344v2.343zm0-3.906h-2.343A3.912 3.912 0 0141.484 25h6.171v3.125z" fill="#fff"/><path d="M42.188 49.219c-3.877 0-7.032-3.155-7.032-7.032 0-3.876 3.155-7.03 7.032-7.03a7.038 7.038 0 017.03 7.03c0 3.877-3.154 7.032-7.03 7.032zm0-10.157a3.128 3.128 0 00-3.126 3.126 3.128 3.128 0 003.126 3.124 3.128 3.128 0 003.124-3.124 3.128 3.128 0 00-3.124-3.126z" fill="#11B687"/><path d="M42.188 46.094a3.91 3.91 0 01-3.907-3.907 3.91 3.91 0 013.907-3.906 3.91 3.91 0 013.906 3.907 3.91 3.91 0 01-3.907 3.906zm0-6.25a2.347 2.347 0 00-2.344 2.343 2.347 2.347 0 002.343 2.344 2.347 2.347 0 002.344-2.343 2.347 2.347 0 00-2.343-2.344z" fill="#fff"/><path d="M14.063 49.219c-3.877 0-7.032-3.155-7.032-7.032 0-3.876 3.155-7.03 7.032-7.03a7.038 7.038 0 017.03 7.03c0 3.877-3.154 7.032-7.03 7.032zm0-10.157a3.128 3.128 0 00-3.126 3.126 3.128 3.128 0 003.126 3.124 3.128 3.128 0 003.124-3.124 3.128 3.128 0 00-3.125-3.126z" fill="#11B687"/><path d="M14.063 46.094a3.91 3.91 0 01-3.907-3.907 3.91 3.91 0 013.906-3.906 3.91 3.91 0 013.907 3.907 3.91 3.91 0 01-3.907 3.906zm0-6.25a2.347 2.347 0 00-2.344 2.343 2.347 2.347 0 002.344 2.344 2.347 2.347 0 002.343-2.343 2.347 2.347 0 00-2.343-2.344z" fill="#fff"/></svg>