<svg width="31" height="31" fill="none" xmlns="http://www.w3.org/2000/svg"><g clip-path="url(#clip0)" fill="#CCA75D"><path d="M21.533 15.268c.25-2.3-4.87-12.276-6.033-14.283-1.11 2.1-1.35 2.399-3.385 6.654-2.224 5.072-3.509 7.34-1.944 10.454H.008V30.62h30.986V18.093H20.83a5.99 5.99 0 00.704-2.825zm-7.776-6.853a113.56 113.56 0 011.743-3.55c.478.933 1.113 2.203 1.744 3.55 2.152 4.6 2.473 6.267 2.473 6.853a4.203 4.203 0 01-1.089 2.825c-1.602 1.842-4.653 1.842-6.256 0-1.917-2.382-1.172-3.957 1.385-9.678zm15.42 11.493v8.896H1.823v-8.896h9.827c2.116 1.84 5.585 1.84 7.7 0h9.827z"/><path d="M4.018 13.796c2.212 0 4.012-1.8 4.012-4.011C8.209 8.302 4.95 2.01 4.018.38 3.082 2.017-.172 8.303.008 9.785a4.014 4.014 0 004.01 4.01zm0-9.524C5.1 6.438 6.214 8.968 6.214 9.785a2.198 2.198 0 01-2.196 2.195 2.198 2.198 0 01-2.195-2.195c0-.817 1.113-3.347 2.195-5.513zm22.964 9.524c2.212 0 4.011-1.8 4.011-4.011.18-1.485-3.078-7.773-4.01-9.405-.936 1.636-4.192 7.926-4.012 9.405 0 2.211 1.8 4.01 4.011 4.01zm0-9.524c1.082 2.165 2.196 4.696 2.196 5.513a2.198 2.198 0 01-2.196 2.195 2.198 2.198 0 01-2.195-2.195c0-.817 1.114-3.347 2.195-5.513zM24.275 21.3h1.816v1.816h-1.816V21.3zm-4.478 3.994h1.815v1.816h-1.815v-1.816zM4.183 24.75H6v1.815H4.183V24.75zm4.237-2.845h1.815v1.816H8.419v-1.816z"/></g><defs><clipPath id="clip0"><path fill="#fff" d="M0 0h31v31H0z"/></clipPath></defs></svg>