<svg width="31" height="31" fill="none" xmlns="http://www.w3.org/2000/svg"><path d="M15.5 0C6.94 0 0 6.94 0 15.5 0 24.06 6.94 31 15.5 31 24.06 31 31 24.06 31 15.5 31 6.94 24.06 0 15.5 0zM1.816 15.5a13.63 13.63 0 013.388-9.012l5.379 5.38-1.175 1.174a2.729 2.729 0 00-3.742 1.55H4.602a.908.908 0 000 1.816h1.064a2.729 2.729 0 003.742 1.55l3.634 3.634a2.729 2.729 0 001.55 3.742v1.064a.908.908 0 101.816 0v-1.064a2.729 2.729 0 001.55-3.742l1.175-1.175 5.379 5.38a13.63 13.63 0 01-9.012 3.387c-7.557 0-13.684-6.127-13.684-13.684zm7.327 0a.91.91 0 01-1.817 0 .91.91 0 011.817 0zm1.55-1.174l1.174-1.174 5.981 5.98-1.174 1.175a2.707 2.707 0 00-1.174-.266c-.42 0-.818.096-1.174.266l-3.633-3.633a2.71 2.71 0 000-2.348zM15.5 10.96c.42 0 .818-.096 1.174-.266l3.633 3.633a2.71 2.71 0 000 2.348l-1.174 1.174-5.981-5.98 1.174-1.175c.356.17.754.266 1.174.266zm-.908-2.725a.91.91 0 011.816 0 .91.91 0 01-1.816 0zm1.816 14.532a.91.91 0 01-1.816 0 .91.91 0 011.816 0zm9.388 1.746l-5.379-5.38 1.175-1.174c.355.17.754.267 1.174.267a2.73 2.73 0 002.568-1.817h1.064a.908.908 0 100-1.816h-1.064a2.729 2.729 0 00-3.742-1.55l-3.634-3.634a2.729 2.729 0 00-1.55-3.742V4.602a.908.908 0 00-1.816 0v1.064a2.729 2.729 0 00-1.55 3.742l-1.175 1.175-5.379-5.38A13.63 13.63 0 0115.5 1.817c7.557 0 13.684 6.127 13.684 13.684a13.63 13.63 0 01-3.388 9.012zM21.857 15.5a.91.91 0 011.817 0 .91.91 0 01-1.817 0z" fill="#CCA75D"/></svg>