<svg width="31" height="31" fill="none" xmlns="http://www.w3.org/2000/svg"><path d="M15.5 0C6.94 0 0 6.94 0 15.5 0 24.06 6.94 31 15.5 31 24.06 31 31 24.06 31 15.5 31 6.94 24.06 0 15.5 0zm0 29.184c-7.557 0-13.684-6.127-13.684-13.684a13.63 13.63 0 013.388-9.012l2.823 2.824c-.215 2.445-.064 5.415.417 8.181.004.165.015.332.037.505a5.35 5.35 0 00-1.155 3.324 5.385 5.385 0 005.38 5.38c.985 0 1.955-.276 2.794-.786.839.51 1.809.785 2.794.785a5.38 5.38 0 004.573-2.55l1.645 1.645a13.63 13.63 0 01-9.012 3.388zm-4.17-16.57a7.027 7.027 0 00-.753.536 6.475 6.475 0 00-.746.716 31.037 31.037 0 01-.077-2.827l1.576 1.575zm-1.402-3.97c.227-1.667.604-2.342.77-2.49.29.078 1.432 1.217 2.563 5.62l-.156.046-3.177-3.177zm.182 10.243a.908.908 0 00.227-.808 3.25 3.25 0 01-.078-.67c0-1.45.958-2.728 2.403-3.463l8.867 8.867a3.567 3.567 0 01-3.235 2.072 3.513 3.513 0 01-1.886-.543v-1.274h.303a.908.908 0 000-1.816h-2.422a.908.908 0 100 1.816h.303v1.274a3.513 3.513 0 01-1.886.543 3.567 3.567 0 01-3.563-3.563c0-.905.343-1.77.967-2.434zm10.63-1.477c0 .206-.025.425-.076.67a.908.908 0 00.226.808c.424.451.718.995.863 1.58l-7.124-7.123c.284-.038.574-.057.871-.057 2.89 0 5.24 1.849 5.24 4.122zm-3.001-5.635c1.134-4.412 2.277-5.547 2.563-5.62.198.174.703 1.11.886 3.616a28.925 28.925 0 01-.019 4.095 6.482 6.482 0 00-.747-.716 7.36 7.36 0 00-2.683-1.375zm8.057 12.737L23.584 22.3a5.349 5.349 0 00-1.066-4.303c.022-.17.033-.335.037-.498.488-2.802.638-5.815.41-8.278-.28-3.044-1.041-4.633-2.325-4.86-1.108-.195-2.126.596-3.028 2.352-.603 1.174-1.177 2.812-1.673 4.77a8.526 8.526 0 00-.878 0c-.496-1.958-1.07-3.596-1.673-4.77-.902-1.756-1.92-2.546-3.028-2.351-.939.165-1.598 1.06-1.994 2.72L6.488 5.204A13.63 13.63 0 0115.5 1.816c7.557 0 13.684 6.127 13.684 13.684a13.63 13.63 0 01-3.388 9.012z" fill="#CCA75D"/></svg>