<svg width="53" height="53" viewBox="0 0 53 53" fill="none" xmlns="http://www.w3.org/2000/svg">
<g clip-path="url(#clip0)">
<path d="M52.9977 36.6093C52.9979 36.5972 52.9991 36.5855 52.9991 36.5734C52.9991 36.5708 52.9988 36.5682 52.9987 36.5654C52.9985 36.546 52.9972 36.5265 52.9957 36.5069C52.995 36.4974 52.9945 36.4879 52.9935 36.4785C52.9917 36.4617 52.9887 36.445 52.9858 36.4282C52.9838 36.4161 52.9821 36.404 52.9794 36.3921C52.9766 36.3792 52.9729 36.3664 52.9695 36.3534C52.9653 36.338 52.9614 36.3225 52.9565 36.3075C52.9533 36.2977 52.9493 36.2878 52.9458 36.278C52.9394 36.2605 52.9328 36.2432 52.9253 36.2262C52.9241 36.2236 52.9233 36.2209 52.9221 36.2181L43.8414 16.2406V13.622H43.8987C44.8771 13.622 45.673 12.8261 45.673 11.8477V11.7117C45.673 10.8363 45.0457 10.0996 44.1814 9.96011L29.1892 7.54077V6.00354C29.7582 5.36582 30.105 4.52572 30.105 3.60583C30.105 1.61759 28.4874 0 26.4991 0C24.5109 0 22.8933 1.61759 22.8933 3.60583C22.8933 4.52572 23.24 5.36582 23.8091 6.00354V7.45732L8.80778 9.95759C7.94879 10.1008 7.32527 10.8368 7.32527 11.7077V11.8477C7.32527 12.8261 8.12118 13.622 9.09956 13.622H9.1568V16.2406L0.0760623 36.2181C0.0748031 36.2207 0.0740018 36.2236 0.0728571 36.2262C0.0654165 36.2431 0.0588917 36.2605 0.0524813 36.2779C0.0488182 36.2877 0.0449262 36.2976 0.0416066 36.3075C0.0366843 36.3225 0.0326778 36.338 0.0286714 36.3534C0.0252372 36.3664 0.0215742 36.3792 0.0187124 36.3921C0.0161941 36.404 0.0143625 36.4161 0.012302 36.4282C0.00944028 36.445 0.00646404 36.4617 0.00463251 36.4785C0.00360227 36.4879 0.00325886 36.4975 0.00245756 36.507C0.000969441 36.5265 -0.000289738 36.546 -0.000518679 36.5653C-0.000518679 36.5681 -0.000976562 36.5707 -0.000976562 36.5733C-0.000976562 36.5855 0.000282616 36.5972 0.000397087 36.6094C0.00085497 36.619 0.000740499 36.6287 0.00154179 36.6383C0.0551141 40.1696 4.43316 42.9266 10.0153 42.9266C15.5975 42.9266 19.9755 40.1696 20.029 36.6385C20.0298 36.6288 20.0297 36.6191 20.0302 36.6094C20.0303 36.5974 20.0315 36.5856 20.0315 36.5735C20.0315 36.5709 20.0312 36.5683 20.0311 36.5655C20.031 36.5461 20.0296 36.5266 20.0281 36.507C20.0274 36.4975 20.0269 36.488 20.0259 36.4786C20.0241 36.4618 20.0211 36.4451 20.0182 36.4283C20.0162 36.4163 20.0145 36.4041 20.0118 36.3922C20.009 36.3793 20.0053 36.3665 20.0019 36.3535C19.9978 36.3381 19.9939 36.3226 19.9889 36.3076C19.9857 36.2978 19.9817 36.2879 19.9782 36.2781C19.9718 36.2606 19.9652 36.2433 19.9577 36.2264C19.9565 36.2237 19.9557 36.221 19.9545 36.2182L10.8739 16.2406V13.622H23.8091V32.2745C23.2636 32.5775 22.8933 33.1591 22.8933 33.8261V46.4736L17.4548 48.1731C16.3258 48.526 15.5672 49.5579 15.5672 50.7408V52.1415C15.5672 52.6156 15.9514 53 16.4257 53H36.5726C37.0468 53 37.4311 52.6156 37.4311 52.1415V50.7407C37.4311 49.5577 36.6725 48.5259 35.5435 48.173L30.105 46.4736V33.8261C30.105 33.1591 29.7346 32.5775 29.1892 32.2745V13.622H42.1244V16.2406L33.0436 36.2182C33.0424 36.2209 33.0416 36.2237 33.0404 36.2264C33.033 36.2432 33.0265 36.2606 33.0201 36.278C33.0164 36.2878 33.0125 36.2977 33.0092 36.3076C33.0043 36.3226 33.0003 36.3381 32.9963 36.3535C32.9928 36.3665 32.9892 36.3793 32.9863 36.3922C32.9838 36.4041 32.9819 36.4163 32.9799 36.4283C32.977 36.4451 32.974 36.4618 32.9722 36.4786C32.9712 36.488 32.9708 36.4977 32.97 36.5072C32.9686 36.5266 32.9673 36.5461 32.9671 36.5654C32.9671 36.5682 32.9666 36.5708 32.9666 36.5734C32.9666 36.5856 32.9679 36.5974 32.968 36.6095C32.9684 36.6191 32.9683 36.6288 32.9691 36.6385C33.0227 40.1696 37.4007 42.9266 42.9829 42.9266C48.5651 42.9266 52.9431 40.1696 52.9966 36.6385C52.9974 36.6287 52.9973 36.619 52.9977 36.6093ZM10.0153 18.5013L17.8396 35.7149H2.19102L10.0153 18.5013ZM10.0153 41.2095C6.03999 41.2095 2.60999 39.5517 1.8657 37.432H18.1651C17.4207 39.5517 13.9907 41.2095 10.0153 41.2095ZM28.3879 33.8261V46.2462H24.6104V33.8261C24.6104 33.7945 24.6361 33.7689 24.6676 33.7689H28.3307C28.3621 33.7689 28.3879 33.7945 28.3879 33.8261ZM25.5261 32.0518V7.07716C25.8359 7.16416 26.162 7.21166 26.4991 7.21166C26.8362 7.21166 27.1624 7.16416 27.4721 7.07716V32.0518H25.5261ZM26.4991 1.71706C27.5406 1.71706 28.3879 2.56438 28.3879 3.60583C28.3879 4.64729 27.5406 5.4946 26.4991 5.4946C25.4577 5.4946 24.6104 4.64729 24.6104 3.60583C24.6104 2.56438 25.4577 1.71706 26.4991 1.71706ZM9.09956 11.905C9.06809 11.905 9.04233 11.8793 9.04233 11.8477V11.7077C9.04233 11.6796 9.06248 11.6559 9.09018 11.6513L23.8091 9.19819V11.905H9.09956ZM35.714 50.7407V51.2829H17.2842V50.7407C17.2842 50.3128 17.5586 49.9395 17.967 49.812L23.8829 47.9633H29.1155L35.0313 49.812C35.4396 49.9396 35.714 50.3128 35.714 50.7407ZM29.1892 9.28015L43.9077 11.6553C43.9357 11.6598 43.9559 11.6836 43.9559 11.7119V11.8478C43.9559 11.8794 43.9302 11.9051 43.8987 11.9051H29.1892V9.28015ZM42.9829 18.5013L50.8072 35.7149H35.1586L42.9829 18.5013ZM42.9829 41.2095C39.0076 41.2095 35.5776 39.5517 34.8333 37.432H51.1327C50.3883 39.5517 46.9583 41.2095 42.9829 41.2095Z" fill="#151F59"/>
</g>
<defs>
<clipPath id="clip0">
<rect width="53" height="53" fill="white"/>
</clipPath>
</defs>
</svg>
