<svg width="55" height="55" viewBox="0 0 55 55" fill="none" xmlns="http://www.w3.org/2000/svg">
<g clip-path="url(#clip0)">
<path d="M54.1951 26.6943H49.9951V15.9081C49.9951 15.4632 49.6345 15.1024 49.1895 15.1024C48.7444 15.1024 48.3838 15.4632 48.3838 15.9081V26.6943H46.6585V1.61133H48.3838V17.6943C48.3838 18.1393 48.7444 18.5 49.1895 18.5C49.6345 18.5 49.9951 18.1393 49.9951 17.6943V0.805664C49.9951 0.360723 49.6345 0 49.1895 0H45.8528C45.4078 0 45.0472 0.360723 45.0472 0.805664V3.33695H34.1745C33.7294 3.33695 33.3688 3.69768 33.3688 4.14262V6.67412H24.1645C23.4409 6.82398 23.2174 7.24142 23.4941 7.92666L26.5327 12.4846L23.4941 17.0425C23.2174 17.7277 23.4409 18.1452 24.1645 18.295H37.4739C37.919 18.295 38.2796 17.9343 38.2796 17.4894V14.9586H45.0472V26.6943H40.848C40.403 26.6943 40.0424 27.0551 40.0424 27.5V33.3674H32.8057C32.3606 33.3674 33 33.7281 33 34.173C33 34.618 32.3606 34.9787 32.8057 34.9787H40.0424V53.3887H28.3066V34.9787H32.4188C32.8638 34.9787 33.2244 34.618 33.2244 34.173C33.2244 33.7281 32.8638 33.3674 32.4188 33.3674H27.501C27.0559 33.3674 26.6953 33.7281 26.6953 34.173V40.0414H14.1539C13.7089 40.0414 13.3483 40.4021 13.3483 40.8471V46.7146H4.30566C3.86062 46.7146 3.5 47.0753 3.5 47.5202C3.5 47.9652 3.86062 48.3259 4.30566 48.3259H13.3481V53.3887H1.6123V48.3259H5.2249C5.66995 48.3259 6.03057 47.9652 6.03057 47.5202C6.03057 47.0753 5.66995 46.7146 5.2249 46.7146H0.806641C0.361592 46.7146 0.000976562 47.0753 0.000976562 47.5202V54.1943C0.000976562 54.6393 0.361592 55 0.806641 55L54.1951 54.9998C54.6401 54.9998 55.0008 54.6391 55.0008 54.1941V27.5C55.0008 27.0551 54.6401 26.6943 54.1951 26.6943ZM36.6684 16.6837H25.6699L28.1713 12.9314C28.3518 12.6608 28.3518 12.3083 28.1713 12.0377L25.6699 8.28545H33.3688V14.1529C33.3688 14.5979 33.7294 14.9586 34.1745 14.9586H36.6684V16.6837ZM34.9801 13.3473V4.94828H45.0473V13.3473H34.9801ZM14.9596 41.6527H26.6953V53.3885H14.9596V41.6527ZM53.3894 53.3885H41.6538L41.6537 28.3057H53.3894V53.3885Z" fill="#151F59"/>
</g>
<defs>
<clipPath id="clip0">
<rect width="55" height="55" fill="white"/>
</clipPath>
</defs>
</svg>
