<svg width="50" height="50" viewBox="0 0 50 50" fill="none" xmlns="http://www.w3.org/2000/svg">
<path d="M49.29 32.6303C48.5133 31.2974 47.1818 30.3862 45.6875 30.1207C45.387 29.421 44.937 28.791 44.3646 28.2815C42.9838 27.0511 41.0334 26.6426 39.2748 27.2154C38.5268 27.4591 37.8571 27.8608 37.2838 28.4095L29.8359 35.5449C29.8836 35.2656 29.9086 34.9805 29.9086 34.6918C29.9086 33.3486 29.3854 32.0857 28.4356 31.1359C27.4864 30.1856 26.2234 29.6622 24.8791 29.6622H19.6159C18.4186 27.5868 16.2358 26.3164 13.8141 26.3164C10.8333 26.25 8.99014 28.5333 8.15465 29.6622C7.82241 29.8929 7.73999 30.3494 7.97076 30.6816C8.20143 31.014 8.658 31.0964 8.99014 30.8655C9.86714 30.2566 10.8333 27.9167 13.8141 27.7812C15.8282 27.7812 17.631 28.9061 18.519 30.7171C18.6421 30.968 18.8972 31.1271 19.1767 31.1271H24.8791C25.8317 31.1271 26.7266 31.4978 27.3994 32.1713C28.0729 32.8448 28.4437 33.7399 28.4437 34.6917C28.4437 35.7615 27.9695 36.7652 27.1424 37.4455C27.1288 37.4567 27.1157 37.4683 27.1029 37.4804C26.5767 37.9808 25.8879 38.2563 25.1633 38.2563H15.8054C15.4009 38.2563 15.073 38.5842 15.073 38.9888C15.073 39.3933 15.4009 39.7212 15.8054 39.7212H25.1633C26.156 39.7212 27.1036 39.3805 27.8665 38.7572C28.105 38.7394 28.821 38.8119 29.0306 38.6845L43.1537 31.8786C43.6684 31.6305 44.2157 31.5047 44.7809 31.5047C46.1119 31.5047 47.3548 32.2185 48.0246 33.3681C48.5561 34.2789 48.6809 35.336 48.3761 36.3452C48.0713 37.3539 47.3824 38.1648 46.436 38.6286L32.8097 45.3098C30.8626 46.2644 28.6872 46.7691 26.5185 46.7691H8.57667V33.0187L8.57657 33.0176C8.57677 32.1822 8.7677 31.384 9.14418 30.6452C9.32788 30.2848 9.18461 29.8437 8.82414 29.6601C8.46368 29.4764 8.02264 29.6197 7.83904 29.9801C7.47369 30.697 7.24116 31.4828 7.15258 32.2863H0.732456C0.327945 32.2863 0 32.6142 0 33.0187V47.5018C0 47.9063 0.327945 48.2342 0.732456 48.2342H7.84392H26.5184C28.9093 48.2342 31.3078 47.6778 33.4545 46.6253L47.0806 39.9442C48.3774 39.3087 49.3606 38.1514 49.7782 36.769C50.1961 35.3863 50.018 33.8777 49.29 32.6303ZM42.5176 30.5591L31.7326 35.7564L38.2969 29.4675C38.7098 29.0724 39.1915 28.7832 39.7285 28.6083C40.9935 28.196 42.3965 28.4901 43.3902 29.3755C43.6305 29.5893 43.8405 29.8328 44.0174 30.0978C43.5007 30.1745 42.9984 30.3274 42.5176 30.5591ZM7.11176 46.7693H1.46491V33.7512H7.11176V46.7693Z" fill="#151F59"/>
<path d="M15.7908 19.0309C15.1441 17.9107 13.7276 17.4789 12.5659 18.0473L10.0419 19.2824C9.4294 19.5822 8.96395 20.1282 8.76501 20.7805C8.56608 21.4328 8.64753 22.1456 8.98846 22.7362L9.31026 23.2936C9.65129 23.8842 10.2279 24.3111 10.8923 24.4651C11.0753 24.5074 11.2612 24.5282 11.4467 24.5282C11.9346 24.5282 12.418 24.384 12.828 24.1082L15.1597 22.54C16.2329 21.8182 16.567 20.3753 15.9203 19.2552L15.7908 19.0309ZM14.3421 21.3244L12.0104 22.8926C11.7768 23.0498 11.4968 23.1013 11.2226 23.0378C10.9483 22.9744 10.7197 22.805 10.5789 22.5612L10.2571 22.0037C10.1163 21.7599 10.084 21.4772 10.1662 21.2079C10.2483 20.9385 10.4329 20.722 10.6858 20.5983L13.2098 19.3632C13.3506 19.2942 13.5007 19.2614 13.6489 19.2614C13.9983 19.2614 14.3374 19.4434 14.5222 19.7635L14.6517 19.9878C14.9148 20.4435 14.7789 21.0306 14.3421 21.3244Z" fill="#151F59"/>
<path d="M6.76576 15.2743C7.2233 15.7016 7.83046 15.9389 8.45324 15.9389C8.50891 15.9389 8.56477 15.937 8.62063 15.9332L11.4241 15.7409C12.7144 15.6524 13.7252 14.5699 13.7252 13.2765V13.0175C13.7252 11.7241 12.7144 10.6416 11.4241 10.5531L8.62063 10.3608C7.94062 10.3147 7.26412 10.5544 6.76576 11.0198C6.2674 11.4853 5.98145 12.1432 5.98145 12.8252V13.4688C5.98145 14.1509 6.2673 14.8089 6.76576 15.2743ZM7.44636 12.8252C7.44636 12.5437 7.55974 12.2827 7.76551 12.0905C7.9539 11.9145 8.19454 11.8199 8.44933 11.8199C8.47287 11.8199 8.4966 11.8207 8.52043 11.8223L11.3239 12.0146C11.849 12.0507 12.2604 12.4911 12.2604 13.0175V13.2765C12.2604 13.8029 11.849 14.2433 11.3239 14.2794L8.52043 14.4717C8.23975 14.491 7.97148 14.3958 7.76561 14.2036C7.55974 14.0114 7.44636 13.7504 7.44636 13.4688V12.8252Z" fill="#151F59"/>
<path d="M10.0418 7.01176L12.5658 8.24688C12.912 8.41622 13.2807 8.49679 13.645 8.49679C14.5034 8.49679 15.3368 8.04951 15.7908 7.26324L15.9203 7.03891C16.567 5.91884 16.2329 4.476 15.1597 3.75419L12.828 2.18595C12.2621 1.80537 11.5566 1.67509 10.8922 1.8292C10.2278 1.98301 9.65119 2.40999 9.31026 3.00064L8.98846 3.55809C8.64753 4.14864 8.56608 4.86157 8.76501 5.51374C8.96385 6.16602 9.4293 6.71204 10.0418 7.01176ZM10.257 4.29045L10.5788 3.733C10.7196 3.48914 10.9482 3.31979 11.2226 3.25631C11.2991 3.23854 11.3762 3.22985 11.4524 3.22985C11.6495 3.22985 11.8418 3.28825 12.0103 3.40154L14.3419 4.96987C14.7787 5.26354 14.9146 5.85077 14.6514 6.30656L14.5219 6.53088C14.2587 6.98667 13.6821 7.16265 13.2096 6.93119L10.6856 5.69608C10.4327 5.57234 10.2481 5.35583 10.166 5.08648C10.0839 4.81693 10.1163 4.5343 10.257 4.29045Z" fill="#151F59"/>
<path d="M45.6825 19.2824L43.1586 18.0473C41.9967 17.4789 40.5803 17.9108 39.9336 19.0309L39.8041 19.2552C39.1574 20.3753 39.4915 21.8181 40.5648 22.54L42.8965 24.1082C43.3065 24.384 43.7899 24.5282 44.2778 24.5282C44.4631 24.5282 44.6494 24.5074 44.8322 24.465C45.4966 24.3112 46.0733 23.8843 46.4142 23.2936L46.736 22.7363C47.077 22.1457 47.1585 21.4329 46.9595 20.7806C46.7606 20.1283 46.2951 19.5822 45.6825 19.2824ZM45.4673 22.0038L45.1455 22.5611C45.0047 22.805 44.776 22.9744 44.5017 23.0378C44.2274 23.1013 43.9477 23.0497 43.714 22.8926L41.3823 21.3244C40.9456 21.0306 40.8097 20.4435 41.0729 19.9876L41.2024 19.7633C41.4655 19.3075 42.0421 19.1315 42.5147 19.3629L45.0387 20.5981C45.2916 20.7218 45.4762 20.9383 45.5583 21.2077C45.6403 21.4772 45.6081 21.7598 45.4673 22.0038Z" fill="#151F59"/>
<path d="M41.9985 13.0178V13.2768C41.9985 14.5702 43.0093 15.6527 44.2996 15.7411L47.103 15.9334C47.1589 15.9372 47.2147 15.9392 47.2704 15.9392C47.893 15.9392 48.5003 15.7018 48.9578 15.2746C49.4563 14.8092 49.7422 14.1511 49.7422 13.4692V12.8256C49.7422 12.1436 49.4563 11.4856 48.9578 11.0202C48.4594 10.5548 47.7831 10.3145 47.103 10.3612L44.2995 10.5535C43.0093 10.6419 41.9985 11.7243 41.9985 13.0178ZM47.2033 11.8225C47.2271 11.8208 47.2507 11.8201 47.2744 11.8201C47.5292 11.8201 47.7698 11.9148 47.9582 12.0907C48.164 12.2829 48.2773 12.5438 48.2773 12.8254V13.469C48.2773 13.7506 48.164 14.0116 47.9581 14.2038C47.7523 14.3959 47.4848 14.4913 47.2033 14.4718L44.3998 14.2795C43.8747 14.2435 43.4633 13.8031 43.4633 13.2767V13.0177C43.4633 12.4913 43.8747 12.0508 44.3998 12.0148L47.2033 11.8225Z" fill="#151F59"/>
<path d="M39.9333 7.2633C40.3872 8.04966 41.2206 8.49695 42.079 8.49685C42.4432 8.49685 42.8121 8.41628 43.1582 8.24694L45.6822 7.01182C46.2947 6.712 46.7601 6.16598 46.9591 5.5137C47.158 4.86143 47.0766 4.1486 46.7355 3.55804L46.4137 3.0006C46.0728 2.41004 45.4961 1.98307 44.8318 1.82915C44.1671 1.67514 43.4618 1.80533 42.896 2.18591L40.5643 3.75415C39.491 4.47596 39.1569 5.9188 39.8037 7.03887L39.9333 7.2633ZM41.382 4.96973L43.7136 3.40149C43.8821 3.28821 44.0744 3.22981 44.2715 3.22981C44.3478 3.22981 44.4248 3.2386 44.5013 3.25627C44.7757 3.31975 45.0043 3.4891 45.1451 3.73295L45.4669 4.2904C45.6077 4.53426 45.64 4.81689 45.5579 5.08624C45.4758 5.35559 45.2912 5.5721 45.0383 5.69584L42.5143 6.93096C42.0415 7.16222 41.4651 6.98643 41.202 6.53064L41.0725 6.30632C40.8093 5.85063 40.9452 5.2635 41.382 4.96973Z" fill="#151F59"/>
<path d="M22.3499 13.1468L18.8751 16.6216C17.9185 17.5795 17.9185 19.1383 18.8756 20.0967L21.1086 22.3287C21.5724 22.7932 22.1894 23.0489 22.8462 23.0489C23.5028 23.0489 24.12 22.7932 24.5834 22.329L28.0578 18.8545L31.5319 22.3286C31.9957 22.7931 32.6127 23.0488 33.2695 23.0488C33.9262 23.0488 34.5432 22.7931 35.0066 22.3291L37.2406 20.0961C38.1972 19.1381 38.1972 17.5793 37.2402 16.621L33.7658 13.1466L37.2406 9.67271C38.1972 8.71476 38.1972 7.15609 37.2401 6.19755L35.0071 3.96561C34.5432 3.50113 33.9262 3.24536 33.2695 3.24536C32.6128 3.24536 31.9958 3.50114 31.5324 3.96522L28.921 6.53165C28.6349 6.8177 28.6348 7.28149 28.9209 7.56744C29.2069 7.85359 29.6707 7.85359 29.9566 7.56754L30.2911 7.23315C30.4782 7.04583 33.0046 4.71027 33.2695 4.71027C33.5345 4.71027 33.7835 4.8134 33.971 5.00121L36.204 7.23315C36.5907 7.62037 36.5907 8.25048 36.2044 8.63722L32.212 12.6286C32.0746 12.7659 31.9975 12.9523 31.9975 13.1465C31.9975 13.3408 32.0746 13.5271 32.212 13.6645L36.204 17.6565C36.5907 18.0437 36.5907 18.6738 36.2045 19.0605L33.9705 21.2935C33.7834 21.4808 33.5345 21.5839 33.2695 21.5839C33.0046 21.5839 32.7556 21.4808 32.5682 21.2931L28.5758 17.3007C28.2898 17.0147 27.826 17.0147 27.54 17.3007L23.5473 21.2935C23.3602 21.4808 23.1112 21.5839 22.8463 21.5839C22.5813 21.5839 22.3324 21.4808 22.1449 21.293L19.9119 19.061C19.5252 18.6738 19.5252 18.0437 19.9115 17.6569L23.9038 13.6645C24.0413 13.5271 24.1184 13.3409 24.1184 13.1465C24.1184 12.9522 24.0412 12.7659 23.9038 12.6286L19.912 8.63761C19.5253 8.25038 19.5253 7.62037 19.9115 7.23363L22.1455 5.00062C22.3325 4.81331 22.5814 4.71018 22.8464 4.71018C23.1113 4.71018 23.3604 4.81331 23.5479 5.00111L27.5402 8.99251C27.8263 9.27855 28.29 9.27846 28.576 8.99251L30.163 7.40552C30.4491 7.11947 30.4491 6.65568 30.163 6.36973C29.877 6.08368 29.4132 6.08368 29.1272 6.36973L28.0581 7.43882L24.5841 3.96571C24.1203 3.50123 23.5032 3.24546 22.8466 3.24546C22.1899 3.24546 21.5729 3.50123 21.1095 3.96522L18.8755 6.19823C17.9189 7.15629 17.9189 8.71495 18.8759 9.6733L22.3499 13.1468Z" fill="#151F59"/>
</svg>
