<svg width="54" height="54" viewBox="0 0 54 54" fill="none" xmlns="http://www.w3.org/2000/svg">
<g clip-path="url(#clip0)">
<path d="M1.32404 33.6515C1.62001 33.8574 1.93282 34.038 2.25914 34.1915C2.64794 34.3904 3.29954 34.7234 3.34544 34.9565C3.40206 35.2641 3.36507 35.5817 3.23924 35.8682C3.10514 36.1562 2.96474 36.4037 2.84324 36.617C2.51384 37.1993 1.96214 38.1749 2.79374 38.8544C2.98814 39.0344 3.32384 39.2945 3.62984 39.5294C3.40457 39.9232 3.30268 40.3756 3.33734 40.8281C3.38491 41.1842 3.5782 41.5046 3.87104 41.7128C4.07084 41.8541 4.28414 41.9765 4.49474 42.0962C5.02664 42.3995 5.23454 42.5408 5.30474 42.8225C5.35474 43.1847 5.32401 43.5535 5.21474 43.9025C5.16164 44.1428 5.11034 44.384 5.07974 44.6225C4.99037 45.4427 5.0917 46.2724 5.37584 47.0471C5.78058 48.4767 7.07354 49.4728 8.55914 49.4996C8.80717 49.4988 9.05447 49.4726 9.29714 49.4213C11.8682 48.8118 14.4018 48.0536 16.885 47.1506C18.9127 48.3404 20.1934 51.9584 20.5273 53.3165C20.627 53.7179 20.9876 53.9998 21.4012 53.9996L43.9912 53.9366C44.2775 53.936 44.5465 53.7993 44.7156 53.5683C44.8848 53.3373 44.9339 53.0397 44.848 52.7666C44.6255 52.1568 44.3186 51.5812 43.9363 51.0566C43.7205 50.7454 43.526 50.4201 43.354 50.0828C42.9467 49.2584 42.6069 48.4024 42.3379 47.5232C41.831 45.8028 41.4774 44.0409 41.2813 42.2582C41.2518 41.931 41.0464 41.6459 40.7454 41.5143C40.4444 41.3827 40.0956 41.4256 39.8355 41.6262C39.5753 41.8268 39.4451 42.1532 39.4957 42.4778C39.7039 44.3673 40.0794 46.2347 40.618 48.0578C40.9142 49.0252 41.2877 49.9672 41.7349 50.8748C41.9403 51.2823 42.1733 51.6754 42.4324 52.0511L42.4927 52.1411L22.0816 52.1996C21.4842 50.0646 20.3998 48.0973 18.9136 46.4522L19.7236 46.1687C20.3266 45.9581 20.7811 45.7997 21.0142 45.725C24.8698 44.5055 26.7976 42.7496 26.7454 40.505C26.7462 40.2651 26.6486 40.0355 26.4755 39.8695C26.3024 39.7035 26.0688 39.6157 25.8292 39.6266C25.3325 39.6383 24.9393 40.0505 24.9508 40.5473C24.9724 41.4734 24.2137 42.8243 20.4724 44.0078C20.2285 44.0861 19.7587 44.2499 19.135 44.4677C18.4663 44.7017 17.6158 44.9987 16.678 45.3173H16.6717C14.139 46.2457 11.5547 47.027 8.93174 47.6573C8.09247 47.819 7.27512 47.2896 7.07954 46.4576C6.88727 45.9455 6.81491 45.3963 6.86804 44.852C6.89144 44.663 6.93464 44.4758 6.97604 44.2877C7.15943 43.6651 7.18633 43.007 7.05434 42.3716C6.79169 41.546 6.18397 40.8749 5.38844 40.532L5.20124 40.4249C5.29842 40.2286 5.41447 40.0424 5.54774 39.8687C5.69872 39.6773 5.76567 39.433 5.73327 39.1914C5.70087 38.9499 5.5719 38.7318 5.37584 38.5871C5.15984 38.4287 4.65044 38.0471 4.27784 37.7465C4.32104 37.6682 4.36784 37.5818 4.41284 37.5035C4.55414 37.256 4.71524 36.968 4.87274 36.635C5.15754 36.0041 5.24143 35.3009 5.11304 34.6208C4.89704 33.5228 3.84584 32.9846 3.07814 32.5922C2.81998 32.47 2.57252 32.3264 2.33834 32.1629C2.14535 32.0332 1.9646 31.8862 1.79834 31.7237C1.79834 31.5878 1.94414 31.2584 2.62994 30.4223C4.2417 28.3481 5.62293 26.1047 6.74924 23.7317C6.96174 23.3597 7.08123 22.942 7.09754 22.514C7.00458 21.6093 6.52518 20.789 5.78264 20.264C5.41814 19.9301 5.07524 19.6151 5.03564 19.3244C5.04165 19.1111 5.08935 18.901 5.17604 18.7061C5.32274 18.32 5.49194 17.942 5.66204 17.5631C6.03108 16.8021 6.32585 16.0073 6.54224 15.1898L6.63224 14.8064C6.8231 13.9065 7.06896 13.0193 7.36844 12.1496C8.07791 10.1914 9.17636 8.39706 10.5976 6.87465C12.3193 5.05305 15.0292 3.76425 18.6652 3.04155C21.4465 2.43099 24.2686 2.02431 27.109 1.82475C28.5257 1.74805 29.9465 1.82865 31.3453 2.06505C31.8289 2.13753 32.2819 1.81068 32.3655 1.32894C32.4491 0.847188 32.1328 0.386795 31.6531 0.292052C30.1219 0.0318166 28.5664 -0.0569313 27.0154 0.0274517C24.0869 0.230572 21.1772 0.64809 18.3097 1.27665C14.2516 2.08665 11.3023 3.50955 9.28904 5.63715C7.70091 7.33651 6.47298 9.33958 5.67914 11.5259C5.35502 12.4666 5.08872 13.4263 4.88174 14.3996L4.79174 14.7794C4.59965 15.4852 4.34203 16.1716 4.02224 16.8296C3.84224 17.24 3.65504 17.6504 3.49394 18.0752C3.28673 18.5483 3.2046 19.0668 3.25544 19.5809C3.43706 20.3867 3.90289 21.1002 4.56764 21.5906C5.00774 21.9947 5.29664 22.2791 5.30024 22.5266C5.26766 22.6637 5.21585 22.7955 5.14634 22.9181C4.06814 25.1896 2.74639 27.3373 1.20434 29.3234C0.553639 30.1163 -0.127661 31.0406 0.0172393 31.9649C0.207867 32.6801 0.679034 33.2882 1.32404 33.6515Z" fill="#151F59"/>
<path d="M10.0492 16.0138L10.1392 15.6133C10.297 14.865 10.4974 14.1264 10.7395 13.4011C11.2816 11.8985 12.1216 10.521 13.2092 9.35107C14.3756 8.25127 15.8033 7.46724 17.3573 7.07316C17.671 6.98475 17.9124 6.73359 17.9884 6.41659C18.0643 6.09959 17.9629 5.7663 17.7233 5.54531C17.4837 5.32431 17.1433 5.25016 16.8334 5.35146C14.9789 5.83342 13.2799 6.78535 11.9005 8.11537C10.6472 9.4627 9.67894 11.0493 9.05385 12.7801C8.78382 13.5789 8.56113 14.3931 8.38695 15.2182L8.29695 15.6079C8.18463 16.0917 8.48552 16.5751 8.96925 16.6879C9.03621 16.7036 9.10477 16.7114 9.17355 16.7113C9.59213 16.7107 9.95507 16.4216 10.0492 16.0138Z" fill="#151F59"/>
<path d="M24.2994 18.189C24.2377 21.2573 25.322 24.2384 27.3405 26.55C27.9758 27.2102 28.6685 27.8125 29.4105 28.35C30.7272 29.3679 31.9746 30.3408 32.3058 31.6944C31.2775 32.1014 30.6014 33.0942 30.5994 34.2V36C30.6041 37.1402 31.3244 38.1544 32.3994 38.5345V38.7C32.3994 40.6883 34.0111 42.3 35.9994 42.3C37.9876 42.3 39.5994 40.6883 39.5994 38.7V38.5345C40.6743 38.1544 41.3946 37.1402 41.3994 36V34.2C41.3968 33.0933 40.719 32.1002 39.6894 31.6944C40.0197 30.3444 41.268 29.3679 42.5847 28.35C43.3264 27.8123 44.0191 27.21 44.6547 26.55C46.6739 24.2386 47.7594 21.2577 47.6994 18.189C47.6742 11.7067 42.4805 6.42902 35.9994 6.30005C29.5182 6.42902 24.3245 11.7067 24.2994 18.189ZM33.2994 19.8H32.3994C31.9023 19.8 31.4994 19.3971 31.4994 18.9C31.4994 18.403 31.9023 18 32.3994 18C32.8964 18 33.2994 18.403 33.2994 18.9V19.8ZM36.8994 31.5H35.0994V21.6H36.8994V31.5ZM35.9994 40.5C35.0052 40.5 34.1994 39.6942 34.1994 38.7H37.7994C37.7994 39.6942 36.9935 40.5 35.9994 40.5ZM39.5994 36C39.5994 36.4971 39.1964 36.9 38.6994 36.9H33.2994C32.8023 36.9 32.3994 36.4971 32.3994 36V34.2C32.3994 33.703 32.8023 33.3 33.2994 33.3H38.6994C39.1964 33.3 39.5994 33.703 39.5994 34.2V36ZM45.8994 18.2169C45.9554 20.8302 45.0369 23.3708 43.3227 25.344C42.7581 25.9229 42.1448 26.4519 41.4894 26.9253C40.4282 27.6646 39.4872 28.5628 38.6994 29.5884V21.6H39.5994C41.0905 21.6 42.2994 20.3912 42.2994 18.9C42.2994 17.4089 41.0905 16.2 39.5994 16.2C38.1082 16.2 36.8994 17.4089 36.8994 18.9V19.8H35.0994V18.9C35.0994 17.4089 33.8905 16.2 32.3994 16.2C30.9082 16.2 29.6994 17.4089 29.6994 18.9C29.6994 20.3912 30.9082 21.6 32.3994 21.6H33.2994V29.5884C32.513 28.5633 31.5735 27.6654 30.5139 26.9262C29.8582 26.4525 29.2445 25.9231 28.6797 25.344C26.9637 23.3716 26.0438 20.8308 26.0994 18.2169C26.1894 12.7323 30.7182 8.10005 35.9994 8.10005C41.2806 8.10005 45.8139 12.7323 45.8994 18.2169ZM38.6994 19.8V18.9C38.6994 18.403 39.1023 18 39.5994 18C40.0964 18 40.4994 18.403 40.4994 18.9C40.4994 19.3971 40.0964 19.8 39.5994 19.8H38.6994Z" fill="#151F59"/>
<path d="M50.399 18.9001H53.099C53.5961 18.9001 53.999 18.4972 53.999 18.0001C53.999 17.503 53.5961 17.1001 53.099 17.1001H50.399C49.902 17.1001 49.499 17.503 49.499 18.0001C49.499 18.4972 49.902 18.9001 50.399 18.9001Z" fill="#151F59"/>
<path d="M46.181 8.71819C46.42 8.71838 46.6492 8.62351 46.8182 8.45449L48.7271 6.5447C48.9611 6.31873 49.0549 5.98411 48.9725 5.66944C48.8902 5.35477 48.6444 5.10903 48.3298 5.02667C48.0151 4.9443 47.6805 5.03814 47.4545 5.2721L45.5447 7.18099C45.2867 7.4383 45.2094 7.82576 45.3487 8.16241C45.4881 8.49906 45.8167 8.71848 46.181 8.71819Z" fill="#151F59"/>
<path d="M35.9991 4.5C36.4962 4.5 36.8991 4.09706 36.8991 3.6V0.9C36.8991 0.402944 36.4962 0 35.9991 0C35.5021 0 35.0991 0.402944 35.0991 0.9V3.6C35.0991 4.09706 35.5021 4.5 35.9991 4.5Z" fill="#151F59"/>
<path d="M26.4542 8.4545C26.6232 8.28568 26.7182 8.05661 26.7182 7.81775C26.7182 7.57888 26.6232 7.34981 26.4542 7.181L24.5445 5.2721C24.3185 5.03814 23.9839 4.9443 23.6692 5.02667C23.3545 5.10903 23.1088 5.35477 23.0264 5.66944C22.9441 5.98411 23.0379 6.31873 23.2719 6.5447L25.1808 8.4545C25.3496 8.6235 25.5786 8.71845 25.8175 8.71845C26.0564 8.71845 26.2854 8.6235 26.4542 8.4545Z" fill="#151F59"/>
<path d="M18.8995 17.1001C18.4025 17.1001 17.9995 17.503 17.9995 18.0001C17.9995 18.4972 18.4025 18.9001 18.8995 18.9001H21.5995C22.0966 18.9001 22.4995 18.4972 22.4995 18.0001C22.4995 17.503 22.0966 17.1001 21.5995 17.1001H18.8995Z" fill="#151F59"/>
</g>
<defs>
<clipPath id="clip0">
<rect width="54" height="54" fill="white"/>
</clipPath>
</defs>
</svg>
