<svg width="56" height="56" viewBox="0 0 56 56" fill="none" xmlns="http://www.w3.org/2000/svg">
<g clip-path="url(#clip0)">
<path d="M25.7133 49.708H25.4777H17.3339C17.138 47.4671 16.4319 46.9298 14.3263 45.6135C13.683 45.2115 12.8831 44.7114 11.8954 44.0216C11.5317 43.7423 10.6571 42.9718 10.0942 41.6619L5.63562 31.2497C5.35508 30.5949 5.6353 30.1159 6.03747 29.9316C6.41853 29.7568 6.95862 29.8427 7.33181 30.6067C7.33542 30.6139 7.33903 30.6211 7.34275 30.6282L10.2261 36.113C10.6761 36.9693 11.2671 37.5284 11.8387 38.0692C12.0217 38.2423 12.2109 38.4213 12.3974 38.6115C12.4102 38.6245 12.4233 38.6371 12.4369 38.6492L16.6752 42.4298C16.6932 42.4458 16.7118 42.461 16.7312 42.4754C17.9125 43.3555 19.1225 42.9894 19.7471 42.2768C20.395 41.5374 20.5703 40.295 19.6551 39.3473C19.2099 38.8674 18.9177 38.5283 18.5796 38.136C18.3578 37.8786 18.1063 37.5868 17.778 37.2161C17.1348 36.4857 17.0359 35.7274 17.52 35.2371C17.9452 34.8064 18.7655 34.6556 19.5796 35.3208L23.3801 39.8998C24.6089 41.38 24.609 43.8444 24.609 46.0187C24.609 46.2663 24.609 46.5089 24.6109 46.7449C24.6144 47.1959 24.981 47.5589 25.4311 47.5589H25.4376C25.8907 47.5554 26.2551 47.1852 26.2515 46.7321C26.2496 46.5002 26.2496 46.2618 26.2496 46.0186C26.2495 43.688 26.2495 40.7876 24.6424 38.8519L20.7948 34.216C20.7654 34.1805 20.733 34.1476 20.6979 34.1176C19.1422 32.782 17.3344 33.09 16.3526 34.0844C15.4269 35.0219 15.1278 36.6891 16.5482 38.3021C16.8707 38.6663 17.1184 38.9537 17.3368 39.2071C17.687 39.6135 17.9894 39.9644 18.4585 40.4699C18.463 40.4747 18.4675 40.4794 18.4721 40.4841C18.812 40.8332 18.5447 41.1596 18.5131 41.1957C18.3263 41.4088 18.0518 41.4026 17.7374 41.1788L13.5492 37.4429C13.3482 37.2388 13.1541 37.0553 12.9662 36.8776C12.4273 36.3678 12.0016 35.965 11.6784 35.35L8.80039 29.8753C7.96848 28.1859 6.43187 27.9464 5.35398 28.4405C4.25695 28.9432 3.45436 30.3252 4.12756 31.8961L8.58645 42.3091C9.28405 43.9325 10.3443 44.9029 10.9142 45.3369C10.923 45.3437 10.9321 45.3503 10.9412 45.3566C11.9701 46.0759 12.7943 46.5911 13.4568 47.0051C15.2439 48.1222 15.5925 48.3403 15.7045 49.8414C15.0642 50.1058 14.612 50.7361 14.612 51.4706V54.2347C14.612 55.2081 15.4028 56.0001 16.3749 56.0001H25.7133C26.6853 56.0001 27.4762 55.2081 27.4762 54.2347V51.4706C27.4762 50.4986 26.6853 49.708 25.7133 49.708ZM25.8355 54.2346C25.8355 54.3011 25.7785 54.3594 25.7133 54.3594H16.3749C16.3099 54.3594 16.2527 54.3011 16.2527 54.2346V51.4705C16.2527 51.4056 16.3097 51.3487 16.3749 51.3487H16.561H25.4777H25.7133C25.7783 51.3487 25.8355 51.4056 25.8355 51.4705V54.2346Z" fill="#151F59"/>
<path d="M51.3415 28.4398C50.2631 27.9464 48.7271 28.1859 47.897 29.8753L45.019 35.35C44.6959 35.9649 44.2704 36.3675 43.7315 36.8773C43.5436 37.055 43.3494 37.2387 43.1484 37.4428L38.9602 41.1787C38.6461 41.4024 38.3711 41.4087 38.184 41.1953C38.1523 41.1592 37.8842 40.8324 38.2232 40.4832L38.236 40.4697C38.7197 39.9486 39.0315 39.5869 39.3926 39.1682C39.6057 38.9209 39.8411 38.648 40.1474 38.3006C41.568 36.6896 41.2702 35.0223 40.3449 34.0845C39.3633 33.0899 37.5556 32.7818 35.9998 34.1174C35.9648 34.1474 35.9323 34.1804 35.9029 34.2159L32.0554 38.8515C30.4472 40.7881 30.447 43.6879 30.4469 46.0179C30.4469 46.1914 30.4469 46.3625 30.4462 46.5305C30.4445 46.9836 30.8102 47.3523 31.2633 47.3541H31.2666C31.7181 47.3541 32.085 46.989 32.0869 46.537C32.0875 46.3669 32.0875 46.1937 32.0875 46.018C32.0876 43.8443 32.0879 41.3805 33.3177 39.8995L37.118 35.3206C37.9322 34.6552 38.7521 34.8062 39.1771 35.2368C39.6606 35.7269 39.561 36.4851 38.917 37.2154C38.6058 37.5682 38.3666 37.8455 38.1501 38.0967C37.7866 38.5184 37.4991 38.8517 37.039 39.3477C36.1255 40.2959 36.3023 41.5382 36.9508 42.2774C37.5754 42.9894 38.7858 43.3549 39.9665 42.4753C39.9858 42.461 40.0044 42.4457 40.0225 42.4297L44.2607 38.6492C44.2743 38.637 44.2875 38.6245 44.3002 38.6115C44.4868 38.4212 44.676 38.2423 44.859 38.0692C45.4306 37.5284 46.0217 36.9693 46.4715 36.1132L49.3549 30.6283C49.3588 30.6209 49.3625 30.6135 49.3663 30.606C49.7381 29.8427 50.2781 29.7573 50.659 29.9317C51.0618 30.1161 51.3427 30.595 51.0621 31.2499L46.6003 41.6625C46.0387 42.9761 45.1633 43.7438 44.8001 44.021C43.8124 44.7115 43.0127 45.2117 42.3694 45.614C40.2654 46.93 39.5597 47.4673 39.3639 49.708H31.2202H30.9846C30.0126 49.708 29.2217 50.4986 29.2217 51.4703V54.2345C29.2217 55.2079 30.0125 55.9999 30.9846 55.9999H40.323C41.295 55.9999 42.0858 55.2079 42.0858 54.2345V51.4703C42.0858 50.7358 41.6338 50.1055 40.9934 49.8412C41.1054 48.34 41.4537 48.1219 43.2394 47.005C43.9014 46.5909 44.7254 46.0755 45.7538 45.3562C45.7624 45.3503 45.7707 45.3441 45.7789 45.3379C46.3502 44.905 47.4127 43.9358 48.1086 42.308L52.5701 31.896C53.2434 30.3245 52.4396 28.9424 51.3415 28.4398ZM40.4449 54.2346C40.4449 54.3011 40.3878 54.3594 40.3227 54.3594H30.9843C30.9192 54.3594 30.862 54.3011 30.862 54.2346V51.4705C30.862 51.4056 30.9191 51.3487 30.9843 51.3487H31.2198H40.1365H40.3226C40.3877 51.3487 40.4448 51.4056 40.4448 51.4705V54.2346H40.4449Z" fill="#151F59"/>
<path d="M55.1798 10.5544H51.2578C50.8048 10.5544 50.4375 10.9217 50.4375 11.3748C50.4375 11.8278 50.8048 12.1951 51.2578 12.1951H55.1798C55.6328 12.1951 56.0001 11.8278 56.0001 11.3748C56.0001 10.9217 55.6328 10.5544 55.1798 10.5544Z" fill="#151F59"/>
<path d="M49.6334 5.87357C49.8087 5.87357 49.9855 5.81757 50.1349 5.70196L53.3903 3.18262C53.7486 2.90536 53.8142 2.39009 53.537 2.03189C53.2597 1.67368 52.7446 1.60795 52.3862 1.88521L49.1308 4.40445C48.7725 4.68171 48.7069 5.19698 48.9841 5.55518C49.1458 5.76409 49.3883 5.87357 49.6334 5.87357Z" fill="#151F59"/>
<path d="M53.3903 19.5638L50.1349 17.0445C49.7767 16.7671 49.2613 16.8328 48.9841 17.1911C48.7069 17.5495 48.7725 18.0646 49.1308 18.3419L52.3862 20.8612C52.5356 20.9769 52.7123 21.0328 52.8877 21.0328C53.1328 21.0328 53.3754 20.9235 53.5371 20.7146C53.8142 20.3563 53.7486 19.8412 53.3903 19.5638Z" fill="#151F59"/>
<path d="M5.55953 11.3748C5.55953 10.9217 5.19225 10.5544 4.73922 10.5544H0.820312C0.367281 10.5544 0 10.9217 0 11.3748C0 11.8278 0.367281 12.1951 0.820312 12.1951H4.73922C5.19225 12.1951 5.55953 11.8278 5.55953 11.3748Z" fill="#151F59"/>
<path d="M2.60638 3.1827L5.86182 5.70204C6.01123 5.81776 6.18787 5.87365 6.36331 5.87365C6.60841 5.87365 6.85101 5.76428 7.01266 5.55537C7.28993 5.19706 7.22431 4.6819 6.86599 4.40464L3.61045 1.88529C3.25213 1.60792 2.73687 1.67365 2.45971 2.03197C2.18245 2.39028 2.24807 2.90543 2.60638 3.1827Z" fill="#151F59"/>
<path d="M7.01255 17.1913C6.73529 16.8331 6.22013 16.7674 5.86182 17.0446L2.60638 19.564C2.24807 19.8412 2.18245 20.3565 2.45971 20.7147C2.62137 20.9236 2.86385 21.033 3.10907 21.033C3.2844 21.033 3.46115 20.977 3.61055 20.8614L6.86599 18.342C7.22419 18.0648 7.28982 17.5496 7.01255 17.1913Z" fill="#151F59"/>
<path d="M29.9986 29.9438C29.5456 29.9438 29.1783 30.311 29.1783 30.7641C29.1783 31.2171 29.5456 31.5844 29.9986 31.5844H36.8227C37.5724 31.5844 38.1824 30.9745 38.1824 30.2249V28.4523C38.1824 27.5731 38.0316 26.8436 37.7725 26.2328H46.3129C47.0644 26.2328 47.6758 25.6229 47.6758 24.8732V23.1007C47.6758 19.4517 45.0905 18.3708 42.8502 17.7311C42.8183 17.7195 42.7856 17.7106 42.7524 17.7031C42.5168 17.6368 42.2856 17.5751 42.0621 17.5155C41.9149 17.4762 41.7685 17.4372 41.6251 17.3981C41.4091 17.3388 41.2487 17.0596 41.1277 16.7788C43.3545 15.2759 45.0155 12.6866 45.0155 10.4297V8.37817C45.0155 5.84953 44.2076 3.70349 42.6791 2.17202C41.3123 0.802424 39.4725 0.0310017 37.4989 4.86111e-05C37.4902 -6.07639e-05 37.4813 4.86111e-05 37.4724 4.86111e-05C34.5353 0.0486111 31.3098 1.85013 30.2844 5.73742C29.5606 5.49767 28.7945 5.36478 28.0064 5.35166C27.9972 5.35155 27.9882 5.35155 27.979 5.35166C27.1905 5.36478 26.4243 5.49767 25.7003 5.73764C24.6724 1.85013 21.4477 0.0486111 18.5128 4.86111e-05C18.5041 4.86111e-05 18.4952 -6.07639e-05 18.4864 4.86111e-05C16.5128 0.0310017 14.673 0.802424 13.306 2.17213C11.7775 3.70349 10.9697 5.84964 10.9697 8.37828V10.4297C10.9697 12.6866 12.6305 15.2767 14.8569 16.7795C14.7366 17.0601 14.5769 17.3386 14.3616 17.3977C14.2167 17.4372 14.0702 17.4762 13.923 17.5156C13.7112 17.5721 13.4923 17.6304 13.2695 17.6929C13.2211 17.702 13.1734 17.7155 13.1272 17.7331C10.889 18.3732 8.30957 19.4564 8.30957 23.1008V24.8734C8.30957 25.623 8.91955 26.2329 9.66932 26.2329H18.2129C17.9538 26.8437 17.803 27.5732 17.803 28.4524V30.225C17.803 30.9746 18.413 31.5845 19.1627 31.5845H26.3061C26.7592 31.5845 27.1264 31.2172 27.1264 30.7642C27.1264 30.3111 26.7592 29.9439 26.3061 29.9439H19.4436V28.4524C19.4436 26.1636 20.6942 25.3842 22.8113 24.7414L26.6515 26.9948C27.1337 27.3037 27.5632 27.4581 27.9924 27.458C28.4217 27.458 28.8506 27.3034 29.3312 26.9945L33.1739 24.7414C35.2911 25.3842 36.5418 26.1638 36.5418 28.4525V29.944H29.9986V29.9438ZM43.375 10.4296C43.375 12.569 41.2751 15.2243 38.8809 16.1124C37.8498 16.4952 37.1189 16.4952 36.089 16.1127C35.8956 16.0407 35.7059 15.9573 35.5204 15.8654C35.521 15.8374 35.5222 15.8092 35.5222 15.7813V13.7299C35.5222 11.4424 34.8587 9.46985 33.6008 7.98071C33.6699 7.91289 33.7343 7.84716 33.7949 7.78536C34.2185 7.35322 34.2949 7.27524 34.754 7.3938C35.0828 7.47878 35.3644 7.55403 35.6094 7.61944C36.4816 7.85241 36.9621 7.98082 37.486 7.98082C38.0072 7.98082 38.4866 7.85274 39.3569 7.62021C39.6025 7.55458 39.8849 7.47911 40.2148 7.39391C40.6747 7.27546 40.7511 7.35289 41.1741 7.78427C41.5965 8.21466 42.2013 8.82749 43.375 9.08714V10.4296ZM40.5955 18.7067L37.9804 20.2357C37.9694 20.2422 37.9586 20.2489 37.9479 20.2558C37.5148 20.5368 37.4542 20.5367 37.0209 20.2558C37.0106 20.249 36.9999 20.2424 36.9891 20.2361L34.6359 18.8572C34.8762 18.423 35.0736 17.9779 35.2209 17.5321C35.3189 17.5733 35.4174 17.6133 35.5169 17.6503C36.2157 17.9099 36.8501 18.0396 37.4845 18.0396C38.1187 18.0396 38.7532 17.9099 39.4517 17.6504C39.5283 17.622 39.6043 17.5913 39.6802 17.5601C39.8667 17.9604 40.1457 18.405 40.5955 18.7067ZM37.4863 1.64067C40.106 1.68771 42.9052 3.50333 43.3219 7.36569C42.8917 7.19211 42.6309 6.92622 42.3452 6.63507C41.8543 6.13489 41.1822 5.44955 39.8044 5.80535C39.4694 5.89197 39.1826 5.96853 38.9334 6.03514C38.1732 6.23814 37.7917 6.34019 37.486 6.34019C37.1775 6.34019 36.7949 6.23803 36.0327 6.03449C35.784 5.9681 35.4982 5.89175 35.1645 5.80546C33.7872 5.44955 33.1145 6.13588 32.6233 6.63714C32.5518 6.71021 32.4808 6.78086 32.4089 6.84988C32.2133 6.70222 32.011 6.56452 31.8024 6.43753C32.5374 3.18899 35.1301 1.68508 37.4863 1.64067ZM27.9926 6.99228C30.6122 7.04194 33.4115 8.85866 33.8284 12.7174C33.3986 12.5441 33.1381 12.2786 32.853 11.988C32.4567 11.5841 31.9422 11.0596 31.031 11.0596C30.8146 11.0596 30.5757 11.0893 30.3107 11.1571C29.9796 11.2428 29.6958 11.3187 29.4486 11.3849C28.685 11.5892 28.3018 11.6918 27.9926 11.6918C27.6834 11.6918 27.3001 11.5892 26.5366 11.3849C26.2894 11.3188 26.0056 11.2428 25.6723 11.1565C24.2944 10.8036 23.6225 11.4881 23.1322 11.988C22.847 12.2787 22.5866 12.5441 22.1568 12.7174C22.5737 8.85866 25.3729 7.04194 27.9926 6.99228ZM33.8816 14.4388V15.7813C33.8816 17.9207 31.7817 20.5761 29.3868 21.4642C28.3574 21.8475 27.6277 21.8475 26.5974 21.4639C24.2035 20.5761 22.1036 17.9207 22.1036 15.7813V14.4388C23.2771 14.1793 23.8813 13.567 24.3033 13.137C24.7268 12.7053 24.8032 12.6275 25.2631 12.7453C25.5893 12.8297 25.869 12.9047 26.1125 12.9697C26.9863 13.2036 27.4677 13.3323 27.9926 13.3323C28.5175 13.3323 28.9988 13.2035 29.8726 12.9697C30.1162 12.9046 30.3958 12.8297 30.7199 12.7458C31.1822 12.6274 31.2584 12.7053 31.6819 13.137C32.1039 13.567 32.7081 14.1792 33.8816 14.4388ZM18.4987 1.64067C20.8531 1.68508 23.4448 3.1891 24.1824 6.43764C23.9739 6.56441 23.7718 6.70211 23.5762 6.84966C23.5045 6.78075 23.4337 6.71021 23.3622 6.63736C22.8706 6.1361 22.1977 5.44922 20.817 5.80546C20.486 5.89121 20.2021 5.96711 19.9548 6.03328C19.1914 6.2376 18.8081 6.34008 18.4989 6.34008C18.1932 6.34008 17.8117 6.23814 17.0517 6.03503C16.8023 5.96842 16.5156 5.89186 16.1791 5.80491C14.8028 5.45174 14.1309 6.1361 13.6404 6.63561C13.3546 6.92666 13.0937 7.19233 12.663 7.3658C13.0799 3.50355 15.8791 1.6876 18.4987 1.64067ZM12.6102 10.4296V9.08889C13.7855 8.82967 14.3886 8.21553 14.8113 7.78514C15.2349 7.35366 15.3113 7.27622 15.7703 7.39369C16.1004 7.479 16.3829 7.55447 16.6284 7.6201C17.4987 7.85252 17.9781 7.9806 18.4992 7.9806C19.0241 7.9806 19.5054 7.85186 20.3791 7.61802C20.6227 7.55283 20.9022 7.47802 21.2276 7.3938C21.6897 7.27491 21.7661 7.35278 22.1909 7.78602C22.2513 7.8476 22.3155 7.913 22.3844 7.9806C21.1265 9.46985 20.463 11.4423 20.463 13.7298V15.7812C20.463 15.809 20.4644 15.8371 20.4649 15.865C20.2785 15.9571 20.0878 16.0406 19.8933 16.1125C18.8639 16.4958 18.1343 16.4958 17.1039 16.1122C14.7101 15.2244 12.6102 12.569 12.6102 10.4296ZM21.3482 18.8564L18.9956 20.2363C18.985 20.2425 18.9745 20.249 18.9641 20.2558C18.5312 20.5367 18.4706 20.5368 18.0372 20.2558C18.0268 20.249 18.0163 20.2425 18.0056 20.2363L15.3924 18.7042C15.8375 18.4014 16.1179 17.9542 16.303 17.5604C16.3791 17.5917 16.4557 17.6217 16.5324 17.6501C17.9292 18.1701 19.0688 18.1701 20.464 17.6507C20.5645 17.6135 20.6642 17.5734 20.7633 17.5319C20.9103 17.9777 21.108 18.4224 21.3482 18.8564ZM23.8519 22.7493C23.7074 22.7887 23.5614 22.8276 23.4146 22.8668C22.1244 23.2111 20.5755 23.6259 19.4318 24.592H9.95009V23.1006C9.95009 20.8125 11.2007 20.0329 13.3185 19.3898L17.1605 21.6424C18.1235 22.2618 18.8778 22.2619 19.8409 21.6424L22.2707 20.2171C22.8638 20.947 23.5722 21.6049 24.3501 22.13C24.2295 22.411 24.0693 22.6898 23.8519 22.7493ZM28.4861 25.588C28.4754 25.5942 28.465 25.6007 28.4546 25.6075C28.018 25.8908 27.9659 25.8906 27.5261 25.6066C27.5163 25.6001 27.5063 25.594 27.4961 25.5881L24.8833 24.055C25.3295 23.7519 25.6108 23.305 25.7961 22.9111C25.8725 22.9424 25.9489 22.9733 26.0259 23.0019C26.7245 23.262 27.3586 23.392 27.9927 23.392C28.6265 23.392 29.2604 23.262 29.9582 23.0023C30.0355 22.9736 30.1124 22.9428 30.1891 22.9113C30.3743 23.305 30.6554 23.7516 31.1015 24.0547L28.4861 25.588ZM32.5707 22.8668C32.4239 22.8276 32.2779 22.7887 32.1342 22.7495C31.916 22.6899 31.7555 22.4106 31.6348 22.1292C32.4121 21.6042 33.121 20.9478 33.7138 20.2183L36.1445 21.6426C36.6259 21.9523 37.0553 22.107 37.4846 22.107C37.9138 22.107 38.3431 21.9523 38.8243 21.6428L42.6736 19.3922C44.787 20.0348 46.0353 20.8151 46.0353 23.1007V24.5921H36.5535C35.4097 23.6259 33.8609 23.2111 32.5707 22.8668Z" fill="#151F59"/>
</g>
<defs>
<clipPath id="clip0">
<rect width="56" height="56" fill="white"/>
</clipPath>
</defs>
</svg>
