<svg width="57" height="57" viewBox="0 0 57 57" fill="none" xmlns="http://www.w3.org/2000/svg">
<g clip-path="url(#clip0)">
<path d="M55.8255 32.322L48.1575 26.6942C48.1451 26.685 48.1323 26.6762 48.1194 26.6678C47.3951 26.1961 46.5316 26.1427 45.8094 26.5254C45.072 26.9162 44.6213 27.7041 44.604 28.633C44.6038 28.6381 44.6038 28.6434 44.6038 28.6486V30.2942H34.7062C34.1015 30.2942 33.5344 30.4569 33.045 30.7398V24.9026C33.045 24.4415 32.6711 24.0677 32.21 24.0677C31.7489 24.0677 31.375 24.4415 31.375 24.9026V50.9363H25.6227V15.2932C25.6227 14.8321 25.2489 14.4583 24.7878 14.4583H23.2665C22.9863 14.4512 22.783 14.3544 22.6935 14.1856C22.615 14.0376 22.6327 13.8525 22.7416 13.6754L28.0265 6.47773C28.0417 6.45713 28.0558 6.43598 28.0688 6.41405C28.2011 6.19451 28.3622 6.06348 28.5001 6.06348C28.6372 6.06359 28.7972 6.19406 28.9279 6.41249C28.9414 6.43498 28.9559 6.45669 28.9714 6.47773L34.257 13.6764C34.3661 13.8525 34.3842 14.0368 34.3062 14.1843C34.2179 14.3514 34.0085 14.451 33.7312 14.4582H32.2099C31.7488 14.4582 31.3749 14.832 31.3749 15.2931V27.2355C31.3749 27.6966 31.7488 28.0705 32.2099 28.0705C32.671 28.0705 33.0449 27.6966 33.0449 27.2355V16.1281H33.7404C33.746 16.1281 33.7516 16.1281 33.757 16.128C34.6497 16.1103 35.4068 15.6754 35.7824 14.9648C36.1495 14.2705 36.0981 13.4416 35.6451 12.7476C35.6368 12.7348 35.6281 12.7221 35.619 12.7099L30.3387 5.51853C29.8971 4.8038 29.2299 4.39433 28.5021 4.39355H28.4999C27.7718 4.39355 27.1032 4.80257 26.6594 5.51786L21.3787 12.7099C21.3692 12.7228 21.3601 12.7359 21.3514 12.7493C20.9 13.4446 20.8501 14.2739 21.218 14.9678C21.5938 15.6765 22.3499 16.1102 23.2406 16.1279C23.2461 16.128 23.2517 16.128 23.2572 16.128H23.9528V23.1246C23.4634 22.8417 22.8963 22.679 22.2916 22.679H12.3939V21.0367C12.3939 21.0321 12.3939 21.0275 12.3938 21.023C12.3787 20.0937 11.9288 19.3047 11.1906 18.9124C10.4675 18.5282 9.60328 18.5805 8.87842 19.0527C8.86539 19.0611 8.8527 19.0699 8.84023 19.0792L1.17184 24.7073C0.427278 25.1686 0.000780364 25.8635 1.06692e-06 26.6193C-0.00077823 27.3765 0.425386 28.0735 1.17106 28.5374L8.84012 34.1659C8.85259 34.1752 8.86539 34.184 8.87831 34.1924C9.60305 34.6646 10.4673 34.7169 11.1905 34.3327C11.9287 33.9404 12.3786 33.1513 12.3937 32.2221C12.3937 32.2176 12.3938 32.213 12.3938 32.2084V30.5661H16.5304V45.3568C16.5304 45.8179 16.9043 46.1917 17.3654 46.1917C17.8265 46.1917 18.2004 45.8179 18.2004 45.3568V29.7312C18.2004 29.27 17.8265 28.8962 17.3654 28.8962H11.5589C11.0977 28.8962 10.7239 29.27 10.7239 29.7312V32.2009C10.7173 32.5196 10.6049 32.7528 10.4067 32.8582C10.2304 32.9518 10.0125 32.9319 9.80634 32.8038L2.13127 27.171C2.11123 27.1563 2.09052 27.1425 2.06926 27.1295C1.81899 26.9782 1.6697 26.7882 1.66981 26.6212C1.66992 26.4552 1.81877 26.2666 2.0677 26.1169C2.08952 26.1038 2.11067 26.0896 2.13116 26.0746L9.80623 20.4416C10.0124 20.3136 10.2303 20.2934 10.4066 20.3873C10.6047 20.4926 10.7172 20.7258 10.7238 21.0446V23.5143C10.7238 23.9754 11.0976 24.3492 11.5588 24.3492H22.2913C23.2074 24.3492 23.9526 25.0945 23.9526 26.0105V50.9364H18.2003V44.0238C18.2003 43.5627 17.8264 43.1888 17.3653 43.1888C16.9042 43.1888 16.5303 43.5627 16.5303 44.0238V51.7714C16.5303 52.2325 16.9042 52.6063 17.3653 52.6063H39.632C40.0932 52.6063 40.467 52.2325 40.467 51.7714V38.1779H44.6036V39.8234C44.6036 39.8286 44.6036 39.8339 44.6037 39.839C44.6211 40.7689 45.0723 41.5577 45.8109 41.9491C46.5327 42.3316 47.3956 42.2787 48.1191 41.8075C48.1322 41.7989 48.145 41.7901 48.1575 41.7809L55.8254 36.15C56.5724 35.6883 56.9998 34.9929 56.9998 34.2361C56.9998 33.4792 56.5726 32.7837 55.8255 32.322ZM54.9307 34.7398C54.9086 34.7532 54.887 34.7675 54.8662 34.7828L47.1912 40.4188C46.9856 40.5466 46.7686 40.5666 46.593 40.4736C46.3945 40.3683 46.2813 40.1346 46.2738 39.8147V37.3429C46.2738 36.8818 45.8999 36.5079 45.4388 36.5079H39.6323C39.1711 36.5079 38.7973 36.8818 38.7973 37.3429V50.9363H33.045V33.6254C33.045 32.7094 33.7902 31.9642 34.7062 31.9642H45.4388C45.8999 31.9642 46.2738 31.5903 46.2738 31.1292V28.6574C46.2812 28.3387 46.394 28.1057 46.5915 28.001C46.7673 27.9078 46.9849 27.9283 47.1913 28.0566L54.8664 33.6896C54.8872 33.7048 54.9087 33.7192 54.9309 33.7324C55.1809 33.8825 55.3302 34.0707 55.3302 34.2362C55.3302 34.4016 55.1808 34.5898 54.9307 34.7398Z" fill="#151F59"/>
</g>
<defs>
<clipPath id="clip0">
<rect width="57" height="57" fill="white"/>
</clipPath>
</defs>
</svg>
