<svg width="51" height="55" fill="none" xmlns="http://www.w3.org/2000/svg"><path d="M13.152 41.848H5.978c-.66 0-1.195.535-1.195 1.196v5.978c0 .66.535 1.196 1.195 1.196h7.174c.66 0 1.196-.536 1.196-1.196v-5.978c0-.66-.535-1.196-1.196-1.196zm-1.195 5.978H7.174V44.24h4.783v3.587zm26.303-4.782h-2.39v2.39h2.39v-2.39zm7.175 0h-4.783v2.39h4.783v-2.39zm0 4.782H35.87v2.392h9.565v-2.392z" fill="#CCA75D"/><path d="M50.209 10.718a1.19 1.19 0 00-.074-.368c-.01-.027-.017-.054-.029-.08-.012-.024-.007-.03-.014-.044L45.309.661A1.196 1.196 0 0044.24 0H5.98c-.454 0-.868.256-1.07.661L.125 10.226c-.008.015-.009.03-.016.045-.007.014-.017.052-.028.079a1.19 1.19 0 00-.074.368c0 .014-.008.027-.008.043v43.043C0 54.464.535 55 1.196 55h47.826c.66 0 1.195-.535 1.195-1.196V10.761c0-.016-.008-.028-.008-.043zM43.5 2.39l3.587 7.174H30.946l-.897-7.174H43.5zm-20.922 0h5.062l.897 7.174H21.68l.896-7.174zm-1.056 9.566h7.174v14.347h-7.174V11.957zM6.716 2.39h13.451l-.897 7.174H3.13L6.717 2.39zm41.11 50.218H2.391V23.913h7.174v-2.391H2.391V19.13h7.174v-2.39H2.391v-4.783h16.74V27.5c0 .66.535 1.196 1.195 1.196h9.565c.66 0 1.196-.536 1.196-1.196V11.957h16.74v40.652z" fill="#CCA75D"/></svg>