<svg width="74" height="67" fill="none" xmlns="http://www.w3.org/2000/svg"><path d="M74 9.95l-.001-.025a.967.967 0 00-.007-.094l-.005-.034a1.01 1.01 0 00-.054-.206l-.006-.017-2.94-7.426A1.951 1.951 0 0069.158.916h-5.354a1.05 1.05 0 00-1.056 1.043A1.05 1.05 0 0063.803 3h5.252l2.34 5.91H49.272L47.886 3h8.17a1.05 1.05 0 001.057-1.042A1.05 1.05 0 0056.057.916H13.308c-.815 0-1.532.484-1.829 1.232L8.54 9.574c-.003.005-.004.011-.006.017a1.012 1.012 0 00-.054.206l-.005.034a1.066 1.066 0 00-.006.094l-.002.024v15.318a1.05 1.05 0 001.057 1.043 1.05 1.05 0 001.056-1.043V10.996h22.399V26.84c0 .62.37 1.184.942 1.438a1.613 1.613 0 001.717-.257l5.596-4.891 5.596 4.89c.47.412 1.144.513 1.717.258.572-.254.943-.818.943-1.438V10.995h22.398V57.75c0 .748-.617 1.357-1.376 1.357H51.137l-.002-.036a3.825 3.825 0 00-.013-.28c1.82.476 3.763-.446 4.492-2.21a3.68 3.68 0 00-.137-3.125l-.023-.045a3.774 3.774 0 00-.135-.233l-.029-.043a3.74 3.74 0 00-.158-.227l-.003-.004a3.75 3.75 0 00-.174-.21l-.033-.037a3.748 3.748 0 00-.186-.19l-.038-.035a3.705 3.705 0 00-.207-.18l-.008-.006a3.802 3.802 0 00-.218-.16l-.04-.028a3.85 3.85 0 00-.23-.14l-.02-.013c.447-.38.8-.863 1.029-1.419a3.68 3.68 0 00-.016-2.87 3.742 3.742 0 00-2.069-2.019l-16.446-6.615 7.656-2.337c1.82-.556 2.846-2.473 2.286-4.272a3.347 3.347 0 00-1.16-1.651 3.594 3.594 0 00-2.918-.676l-.015.003a493.972 493.972 0 01-12.855 2.647l-.617.116-.174.033c-.357.067-.703.13-1.039.192l-.401.074c-7.698 1.399-9.86 1.424-10.46 1.343h-.007l-.026-.004-.017-.003a.826.826 0 01-.101-.022l-.174-.07.216-.522a2.036 2.036 0 00-.207-1.95 2.085 2.085 0 00-.947-.755l-5.675-2.283a2.116 2.116 0 00-2.742 1.138l-6.94 16.79a2.068 2.068 0 001.153 2.705l5.676 2.283c.26.104.527.153.791.153.83 0 1.619-.487 1.95-1.291l.053-.126 1.309.526.002.001a11.629 11.629 0 014.663 3.432 13.715 13.715 0 005.513 4.058l1.473.593H11.954a1.368 1.368 0 01-1.375-1.357v-2.638a1.05 1.05 0 00-1.057-1.042 1.05 1.05 0 00-1.057 1.042v2.638c0 1.898 1.565 3.441 3.489 3.441h15.967l13.612 5.476c.468.188.953.278 1.43.277 1.5 0 2.925-.882 3.526-2.334a3.68 3.68 0 00.259-1.818c.708.1 1.442.009 2.107-.275a3.757 3.757 0 001.635-1.326h20.02c1.924 0 3.49-1.544 3.49-3.441V9.95zM36.75 3h8.967l1.386 5.91h-11.74L36.75 3zm-3.556 5.91H11.07L13.41 3h21.17l-1.386 5.91zm14.181 16.801l-5.082-4.441a1.608 1.608 0 00-1.06-.396c-.379 0-.758.132-1.06.396l-5.082 4.441V10.996h12.284v14.716zM7.774 49.827L2.116 47.55 9.05 30.78l5.657 2.276-6.932 16.772zm42.215 6.29l-1.213-.487-.002-.001h-.001l-12.63-5.081a1.062 1.062 0 00-1.378.572c-.22.533.04 1.141.58 1.358l12.63 5.08c.053.022.104.046.153.072l.04.023c.035.02.07.039.103.06.016.01.03.023.045.034.03.02.06.04.087.063l.047.042c.025.022.05.042.073.065l.046.05c.021.022.043.044.063.068l.043.056c.018.023.037.046.053.07.014.02.026.042.04.063.014.024.03.047.044.072l.034.068c.012.024.026.048.037.073l.028.073c.01.025.02.05.028.074.009.025.015.051.022.077l.021.075c.006.026.01.053.014.078l.014.078c.004.026.005.053.007.08.002.026.005.052.006.079v.078c0 .028 0 .055-.002.082l-.008.077-.01.084-.016.076a1.278 1.278 0 01-.02.084c-.006.024-.015.049-.023.073l-.027.084a1.74 1.74 0 00-.026.057l-.005.013c-.165.376-.47.675-.868.845a1.812 1.812 0 01-1.376.017l-2.237-.9-.032-.011-.03-.014-10.274-4.133a1.062 1.062 0 00-1.377.572 1.04 1.04 0 00.58 1.36l10.272 4.131.033.012c.01.004.02.01.03.013a1.66 1.66 0 01.926 2.172 1.698 1.698 0 01-2.201.913L28.53 59.185l-.002-.001-6.463-2.6a11.633 11.633 0 01-4.663-3.432c-.455-.56-.953-1.08-1.49-1.56a13.76 13.76 0 00-4.024-2.499l-1.31-.527 2.61-6.314 2.466-5.967.182.074c.17.068.415.166 1.072.19.822.037 2.18-.047 4.614-.386 1.656-.231 3.687-.565 6.057-.995l.176-.032.335-.061.264-.049.304-.056.328-.061.265-.05c.134-.025.271-.05.408-.077l.212-.04.639-.122a495.381 495.381 0 0012.268-2.535c.026-.005.053-.008.08-.012.678-.1 1.343.288 1.538.913.068.22.076.443.033.654a1.34 1.34 0 01-.925 1.013l-10.476 3.199c-.426.13-.724.51-.743.95-.02.44.244.845.657 1.01l19.18 7.716c.417.168.744.486.919.896.175.41.177.863.007 1.275-.17.412-.493.734-.91.907-.207.086-.426.13-.645.13h-.01c-.05 0-.102-.002-.153-.006l-.046-.007a1.564 1.564 0 01-.117-.016l-.073-.018c-.03-.007-.059-.012-.087-.02l-.09-.031c-.023-.009-.047-.015-.07-.025l-12.631-5.08a1.062 1.062 0 00-1.377.571c-.22.533.039 1.142.58 1.359l15.313 6.16a1.658 1.658 0 01.853 2.326 1.659 1.659 0 01-.392.479l-.028.025a1.71 1.71 0 01-1.708.255l-1.468-.59z" fill="#CCA75D"/></svg>