<svg width="76" height="66" fill="none" xmlns="http://www.w3.org/2000/svg"><path d="M73.01 14.694H21.76a1.25 1.25 0 000 2.5h7.556a19.016 19.016 0 00-8.806 16.25 19.016 19.016 0 008.806 16.25H3.01v-32.5h12.5a1.25 1.25 0 000-2.5H3.01a2.5 2.5 0 00-2.5 2.5v32.5a2.5 2.5 0 002.5 2.5h70a2.5 2.5 0 002.5-2.5v-32.5a2.5 2.5 0 00-2.5-2.5zm-50 18.75c0-8.96 6.728-16.25 15-16.25 8.271 0 15 7.29 15 16.25s-6.729 16.25-15 16.25-15-7.29-15-16.25zm50 16.25H46.703a19.016 19.016 0 008.807-16.25 19.017 19.017 0 00-8.806-16.25H73.01v32.5zM66.43 1.207a2.5 2.5 0 00-1.905-.138L37.6 10.093a1.252 1.252 0 00.795 2.375l26.917-9.024 2.763 8.236a1.252 1.252 0 002.375-.793l-2.764-8.232a2.464 2.464 0 00-1.256-1.448zM37.625 54.422l-26.918 9.022-2.762-8.236a1.252 1.252 0 00-2.375.794l2.759 8.229a2.464 2.464 0 001.25 1.448 2.509 2.509 0 001.904.138l26.925-9.024a1.252 1.252 0 10-.794-2.375l.01.004z" fill="#CCA75D"/><path d="M41.76 29.07a1.25 1.25 0 102.5 0 5.819 5.819 0 00-5-5.512v-.114a1.25 1.25 0 00-2.5 0v.114a5.819 5.819 0 00-5 5.511 5.819 5.819 0 005 5.512v6.17a3.219 3.219 0 01-2.5-2.932 1.25 1.25 0 00-2.5 0 5.819 5.819 0 005 5.512v.113a1.25 1.25 0 102.5 0v-.113a5.819 5.819 0 005-5.512 5.819 5.819 0 00-5-5.51v-6.172a3.219 3.219 0 012.5 2.932zm-7.5 0a3.219 3.219 0 012.5-2.933v5.865a3.219 3.219 0 01-2.5-2.933zm7.5 8.75a3.219 3.219 0 01-2.5 2.932v-5.865a3.219 3.219 0 012.5 2.932zm22.5 9.374h5c.69 0 1.25-.56 1.25-1.25v-5a1.25 1.25 0 00-2.5 0v3.75h-3.75a1.25 1.25 0 100 2.5zm-57.5-7.5c-.69 0-1.25.56-1.25 1.25v5c0 .69.56 1.25 1.25 1.25h5a1.25 1.25 0 000-2.5H8.01v-3.75c0-.69-.56-1.25-1.25-1.25zm5-20h-5c-.69 0-1.25.56-1.25 1.25v5a1.25 1.25 0 102.5 0v-3.75h3.75a1.25 1.25 0 000-2.5zm52.5 2.5h3.75v3.75a1.25 1.25 0 102.5 0v-5c0-.69-.56-1.25-1.25-1.25h-5a1.25 1.25 0 000 2.5z" fill="#CCA75D"/></svg>