<svg width="59" height="50" fill="none" xmlns="http://www.w3.org/2000/svg"><path d="M58.078 28.293v-.001L47.098.72a1.142 1.142 0 00-1.485-.638L1.065 17.82a1.124 1.124 0 00-.456.363 1.13 1.13 0 00-.609.991v29.684C0 49.488.511 50 1.142 50h47.95c.631 0 1.142-.511 1.142-1.142V32.646l7.207-2.87c.586-.234.87-.898.637-1.483zM47.951 47.716H2.283v-27.4h45.668v27.4zM19.05 18.038l19.117-7.617a9.083 9.083 0 006.545 2.822l1.907 4.795h-27.57zm31.185 12.156v-11.02c0-.63-.51-1.141-1.141-1.141h-.018l-2.42-6.077a.946.946 0 00-.093-.143 1.128 1.128 0 00-1.193-.88 6.827 6.827 0 01-5.986-2.577 1.132 1.132 0 00-1.465-.256 1.281 1.281 0 00-.161.03l-23.339 9.293c-.282.11-.508.33-.626.61H6.704L45.398 2.625 55.535 28.08l-5.3 2.115z" fill="#CCA75D"/><path d="M5.382 40.009a6.826 6.826 0 014.609 4.603c.144.484.589.815 1.094.816.059-.004.118-.013.175-.027.052.015.104.025.157.032h27.4a.986.986 0 00.14-.028 1.063 1.063 0 001.284-.782l.001-.006a6.826 6.826 0 014.61-4.61c.537-.163.871-.7.783-1.255.015-.055.026-.112.033-.169V29.45a1.032 1.032 0 00-.035-.17 1.126 1.126 0 00-.783-1.255 6.82 6.82 0 01-4.607-4.61 1.128 1.128 0 00-1.265-.784 1.078 1.078 0 00-.16-.032H11.417a1.072 1.072 0 00-.17.035 1.128 1.128 0 00-1.256.783 6.826 6.826 0 01-4.61 4.608c-.537.164-.871.7-.782 1.256a1.15 1.15 0 00-.032.169v9.133a.953.953 0 00.032.159 1.13 1.13 0 00.783 1.267zM6.85 29.913a9.06 9.06 0 005.03-5.03h26.473a9.062 9.062 0 005.031 5.03v8.207a9.07 9.07 0 00-5.03 5.03H11.88a9.07 9.07 0 00-5.03-5.03v-8.207z" fill="#CCA75D"/><path d="M25.117 40.866a6.85 6.85 0 10-6.85-6.85 6.857 6.857 0 006.85 6.85zm0-11.417a4.567 4.567 0 110 9.134 4.567 4.567 0 010-9.134zm-12.558 6.279a1.713 1.713 0 100-3.425 1.713 1.713 0 000 3.425zm0-2.283a.57.57 0 110 1.142.57.57 0 010-1.142zm25.117 2.283a1.713 1.713 0 100-3.425 1.713 1.713 0 000 3.425zm0-2.283a.57.57 0 110 1.142.57.57 0 010-1.142z" fill="#CCA75D"/></svg>