<svg width="75" height="59" fill="none" xmlns="http://www.w3.org/2000/svg"><path d="M42.22 22.52v-3.278l-6.01-1.657-.011-6.674-2.84-1.134-3.847 5.85-6.218-2.702-1.852 2.486 4.498 5.472-4.498 5.47 1.852 2.487 6.218-2.702 3.849 5.852 2.841-1.14.002-6.647 6.015-1.683zm-11.81.604l-4.977 2.163 3.62-4.403-3.619-4.404 4.975 2.161 3.388-5.15.009 5.928 5.321 1.467-5.33 1.49v5.899l-3.388-5.15z" fill="#CCA75D"/><path d="M47.032 21.022c0-8.624-7.017-15.64-15.64-15.64-8.625 0-15.641 7.016-15.641 15.64s7.016 15.64 15.64 15.64 15.64-7.016 15.64-15.64zm-28.875 0c0-7.297 5.937-13.234 13.234-13.234s13.235 5.937 13.235 13.234-5.938 13.235-13.235 13.235-13.234-5.938-13.234-13.235zM57.86 5.382v2.406h-2.406V5.382h2.406zm-9.625 0v2.406h-2.406V5.382h2.406zm4.812 0v2.406h-2.406V5.382h2.406zM12.141 34.257v2.406H9.735v-2.406h2.406zm4.813 0v2.406h-2.407v-2.406h2.407z" fill="#CCA75D"/><path d="M21.766 34.257v2.406H19.36v-2.406h2.406z" fill="#CCA75D"/><path d="M61.47 58.32c5.397 0 9.624-8.456 9.624-19.25 0-2.139-.175-4.223-.505-6.216l4.115-4.115V13.305L61.967.57H.11v40.906h51.814c.576 9.616 4.557 16.844 9.545 16.844zm10.827-44.018v13.44l-9.625 9.626V26.916c2.742-.56 4.813-2.99 4.813-5.894s-2.07-5.334-4.813-5.894V4.677l9.625 9.625zM61.47 22.225c1.035 0 1.937.589 2.628 1.255a3.588 3.588 0 01-2.628 1.152 3.594 3.594 0 01-2.608-1.128c.85-.829 1.74-1.279 2.608-1.279zm-3.593-1.05c-.003-.052-.016-.101-.016-.153 0-1.99 1.62-3.61 3.61-3.61 1.99 0 3.609 1.62 3.609 3.61 0 .045-.012.086-.014.13-1.124-.87-2.342-1.333-3.596-1.333-1.278 0-2.488.489-3.593 1.356zm2.39 5.741V39.07h-6.015c0-5.884 1.341-10.696 3.14-13.652a5.976 5.976 0 002.875 1.5zM7.33 39.07V7.788H4.922v31.281H2.516V2.975h2.406v2.407H7.33V2.975h52.937v12.153c-2.742.56-4.812 2.989-4.812 5.894 0 .802.163 1.563.45 2.263-2.47 3.45-4.06 9.174-4.06 15.784H7.33zm47.007 2.406h7.631l6.489-6.488a36.87 36.87 0 01.232 4.082c0 9.926-3.804 16.844-7.219 16.844-3.13 0-6.578-5.822-7.133-14.438z" fill="#CCA75D"/></svg>