<svg width="71" height="56" fill="none" xmlns="http://www.w3.org/2000/svg"><path d="M39.913 21.375v-3.107l-5.696-1.57-.01-6.326-2.691-1.076-3.647 5.546-5.894-2.561-1.755 2.356 4.263 5.186-4.263 5.186 1.755 2.357 5.894-2.562 3.648 5.547 2.693-1.08.001-6.3 5.702-1.596zm-11.194.573l-4.716 2.05 3.431-4.174-3.43-4.173 4.715 2.048 3.212-4.882.008 5.618 5.044 1.392-5.052 1.413-.002 5.59-3.21-4.882z" fill="#CCA75D"/><path d="M44.475 19.956c0-8.175-6.65-14.825-14.825-14.825-8.174 0-14.825 6.65-14.825 14.825 0 8.174 6.65 14.825 14.825 14.825 8.174 0 14.825-6.651 14.825-14.825zm-27.37 0c0-6.917 5.628-12.545 12.545-12.545 6.916 0 12.544 5.628 12.544 12.545 0 6.916-5.628 12.544-12.544 12.544s-12.544-5.628-12.544-12.544zM54.738 5.13v2.281h-2.28v-2.28h2.28zm-9.123 0v2.281h-2.28v-2.28h2.28zm4.562 0v2.281h-2.281v-2.28h2.28zM11.404 32.5v2.28H9.123V32.5h2.28zm4.561 0v2.28h-2.28V32.5h2.28z" fill="#CCA75D"/><path d="M20.527 32.5v2.28h-2.28V32.5h2.28z" fill="#CCA75D"/><path d="M58.16 55.307c5.115 0 9.123-8.014 9.123-18.246 0-2.026-.167-4.001-.48-5.89l3.9-3.901V12.641L58.632.57H0v38.773h49.112c.546 9.114 4.32 15.965 9.047 15.965zm10.263-41.722v12.74L59.3 35.45v-9.907a5.713 5.713 0 004.561-5.586A5.713 5.713 0 0059.3 14.37V4.462l9.123 9.123zm-10.264 7.51c.981 0 1.836.559 2.491 1.19a3.4 3.4 0 01-2.49 1.092 3.407 3.407 0 01-2.473-1.069c.805-.786 1.65-1.212 2.472-1.212zm-3.406-.995c-.002-.049-.015-.095-.015-.144a3.425 3.425 0 013.421-3.422 3.425 3.425 0 013.422 3.422c0 .042-.012.08-.013.123-1.066-.826-2.22-1.264-3.409-1.264-1.21 0-2.358.463-3.406 1.285zm2.266 5.442v11.52h-5.702c0-5.578 1.272-10.139 2.978-12.94a5.664 5.664 0 002.724 1.42zM6.842 37.062V7.411h-2.28v29.65H2.28V2.85h2.28v2.28h2.281V2.85H57.02v11.519a5.712 5.712 0 00-4.561 5.587c0 .76.155 1.48.426 2.145-2.34 3.27-3.848 8.695-3.848 14.96H6.842zm44.556 2.28h7.233l6.15-6.15c.14 1.26.22 2.551.22 3.87 0 9.407-3.605 15.965-6.842 15.965-2.967 0-6.235-5.519-6.76-13.685z" fill="#CCA75D"/></svg>