<svg width="92" height="66" viewBox="0 0 92 66" fill="none" xmlns="http://www.w3.org/2000/svg">
<path d="M51.0951 8.20773C51.0951 7.67879 47.4269 7.25 42.902 7.25C38.3771 7.25 34.709 7.67879 34.709 8.20773C34.709 8.73666 38.3771 9.16545 42.902 9.16545C47.4269 9.16545 51.0951 8.73666 51.0951 8.20773Z" fill="#F07F1B"/>
<path fill-rule="evenodd" clip-rule="evenodd" d="M18.5078 40.1237L42.113 45.6305L42.1188 19.7415L18.5112 14.2524L18.5078 40.1237Z" fill="#F07F1B"/>
<path fill-rule="evenodd" clip-rule="evenodd" d="M43.6865 19.7412L43.668 45.6059L67.2511 40.1437L67.2801 14.2671L43.6865 19.7412Z" fill="#F6A103"/>
<path fill-rule="evenodd" clip-rule="evenodd" d="M49.1701 10.7017H36.6157C36.2244 14.4216 39.3042 16.8581 42.8926 16.8563C44.9084 16.8553 46.4947 16.0954 47.5194 15.13C48.7146 14.0039 49.3659 12.9388 49.1701 10.7017Z" fill="#F07F1B"/>
<path fill-rule="evenodd" clip-rule="evenodd" d="M41.6935 5.65498H44.1026C44.0924 4.56244 44.0923 3.46991 44.0923 2.37742C44.0923 1.2433 44.3021 0.144013 42.8932 0.143067C41.4773 0.142076 41.6935 1.16375 41.6935 2.29795C41.6935 3.41693 41.6935 4.53595 41.6935 5.65498Z" fill="#F07F1B"/>
<path fill-rule="evenodd" clip-rule="evenodd" d="M36.6797 5.65488L40.1038 5.64907L40.1031 1.46484C39.2334 1.65977 38.2984 2.53594 37.8862 3.0122C37.2763 3.71681 36.8847 4.58054 36.6797 5.65488Z" fill="#F07F1B"/>
<path fill-rule="evenodd" clip-rule="evenodd" d="M45.6797 5.61402L49.1082 5.65785C48.9223 4.58194 48.4896 3.70506 47.8956 3.01671C47.4585 2.51022 46.5874 1.68691 45.687 1.46387L45.6797 5.61402Z" fill="#F07F1B"/>
<path d="M3.06934 62.667H1.01855V52.7139H3.06934V62.667ZM13.0703 62.667H11.0195L7.02734 56.1182V62.667H4.97656V52.7139H7.02734L11.0264 59.2764V52.7139H13.0703V62.667ZM14.8613 62.667V52.7139H17.9238C18.7988 52.7139 19.5804 52.9121 20.2686 53.3086C20.9613 53.7005 21.5013 54.2611 21.8887 54.9902C22.276 55.7148 22.4697 56.5397 22.4697 57.4648V57.9229C22.4697 58.848 22.2783 59.6706 21.8955 60.3906C21.5173 61.1107 20.9818 61.6689 20.2891 62.0654C19.5964 62.4619 18.8148 62.6624 17.9443 62.667H14.8613ZM16.9121 54.375V61.0195H17.9033C18.7054 61.0195 19.3184 60.7575 19.7422 60.2334C20.166 59.7093 20.3825 58.9596 20.3916 57.9844V57.458C20.3916 56.4463 20.182 55.6807 19.7627 55.1611C19.3434 54.637 18.7305 54.375 17.9238 54.375H16.9121ZM29.1279 60.0557C29.1279 59.6683 28.9912 59.3721 28.7178 59.167C28.4443 58.9574 27.9521 58.7386 27.2412 58.5107C26.5303 58.2783 25.9674 58.0505 25.5527 57.8271C24.4225 57.2165 23.8574 56.3939 23.8574 55.3594C23.8574 54.8216 24.0078 54.3431 24.3086 53.9238C24.6139 53.5 25.0492 53.1696 25.6143 52.9326C26.1839 52.6956 26.8219 52.5771 27.5283 52.5771C28.2393 52.5771 28.8727 52.707 29.4287 52.9668C29.9847 53.222 30.4154 53.5843 30.7207 54.0537C31.0306 54.5231 31.1855 55.0563 31.1855 55.6533H29.1348C29.1348 55.1976 28.9912 54.8444 28.7041 54.5938C28.417 54.3385 28.0137 54.2109 27.4941 54.2109C26.9928 54.2109 26.6032 54.318 26.3252 54.5322C26.0472 54.7419 25.9082 55.0199 25.9082 55.3662C25.9082 55.6898 26.07 55.9609 26.3936 56.1797C26.7217 56.3984 27.2025 56.6035 27.8359 56.7949C29.0026 57.1458 29.8525 57.5811 30.3857 58.1006C30.9189 58.6201 31.1855 59.2673 31.1855 60.042C31.1855 60.9033 30.8597 61.5801 30.208 62.0723C29.5563 62.5599 28.679 62.8037 27.5762 62.8037C26.8105 62.8037 26.1133 62.6647 25.4844 62.3867C24.8555 62.1042 24.3747 61.7191 24.042 61.2314C23.7139 60.7438 23.5498 60.1787 23.5498 59.5361H25.6074C25.6074 60.6344 26.2637 61.1836 27.5762 61.1836C28.0638 61.1836 28.4443 61.0856 28.7178 60.8896C28.9912 60.6891 29.1279 60.4111 29.1279 60.0557ZM40.0723 54.375H37.0234V62.667H34.9727V54.375H31.9648V52.7139H40.0723V54.375ZM44.9326 59.0234H43.2988V62.667H41.248V52.7139H44.9463C46.1221 52.7139 47.029 52.9759 47.667 53.5C48.305 54.0241 48.624 54.7646 48.624 55.7217C48.624 56.4007 48.4759 56.9681 48.1797 57.4238C47.888 57.875 47.4437 58.235 46.8467 58.5039L49 62.5713V62.667H46.7988L44.9326 59.0234ZM43.2988 57.3623H44.9531C45.4681 57.3623 45.8669 57.2324 46.1494 56.9727C46.432 56.7083 46.5732 56.346 46.5732 55.8857C46.5732 55.4163 46.4388 55.0472 46.1699 54.7783C45.9056 54.5094 45.4977 54.375 44.9463 54.375H43.2988V57.3623ZM58.3652 57.916C58.3652 58.8958 58.1921 59.7549 57.8457 60.4932C57.4993 61.2314 57.0026 61.8011 56.3555 62.2021C55.7129 62.6032 54.9746 62.8037 54.1406 62.8037C53.3158 62.8037 52.5798 62.6055 51.9326 62.209C51.2855 61.8125 50.7842 61.2474 50.4287 60.5137C50.0732 59.7754 49.8932 58.9277 49.8887 57.9707V57.4785C49.8887 56.4987 50.0641 55.6374 50.415 54.8945C50.7705 54.1471 51.2695 53.5752 51.9121 53.1787C52.5592 52.7777 53.2975 52.5771 54.127 52.5771C54.9564 52.5771 55.6924 52.7777 56.335 53.1787C56.9821 53.5752 57.4811 54.1471 57.832 54.8945C58.1875 55.6374 58.3652 56.4964 58.3652 57.4717V57.916ZM56.2871 57.4648C56.2871 56.4212 56.1003 55.6283 55.7266 55.0859C55.3529 54.5436 54.8197 54.2725 54.127 54.2725C53.4388 54.2725 52.9079 54.5413 52.5342 55.0791C52.1605 55.6123 51.9714 56.3962 51.9668 57.4307V57.916C51.9668 58.9323 52.1536 59.7207 52.5273 60.2812C52.901 60.8418 53.4388 61.1221 54.1406 61.1221C54.8288 61.1221 55.3574 60.8532 55.7266 60.3154C56.0957 59.7731 56.2826 58.9847 56.2871 57.9502V57.4648ZM62.9863 57.1982L65.0576 52.7139H67.2998L64.0322 59.0576V62.667H61.9473V59.0576L58.6797 52.7139H60.9287L62.9863 57.1982ZM66.5957 61.6963C66.5957 61.3818 66.7005 61.1266 66.9102 60.9307C67.1243 60.7347 67.391 60.6367 67.71 60.6367C68.0335 60.6367 68.3001 60.7347 68.5098 60.9307C68.724 61.1266 68.8311 61.3818 68.8311 61.6963C68.8311 62.0062 68.7262 62.2591 68.5166 62.4551C68.307 62.6465 68.0381 62.7422 67.71 62.7422C67.3864 62.7422 67.1198 62.6465 66.9102 62.4551C66.7005 62.2591 66.5957 62.0062 66.5957 61.6963ZM70.6973 62.667V52.7139H74.1836C75.3913 52.7139 76.3073 52.9463 76.9316 53.4111C77.556 53.8714 77.8682 54.5482 77.8682 55.4414C77.8682 55.929 77.7428 56.3597 77.4922 56.7334C77.2415 57.1025 76.8929 57.3737 76.4463 57.5469C76.9567 57.6745 77.3577 57.932 77.6494 58.3193C77.9456 58.7067 78.0938 59.1807 78.0938 59.7412C78.0938 60.6982 77.7884 61.4229 77.1777 61.915C76.5671 62.4072 75.6966 62.6579 74.5664 62.667H70.6973ZM72.748 58.333V61.0195H74.5049C74.988 61.0195 75.3639 60.9056 75.6328 60.6777C75.9062 60.4453 76.043 60.1263 76.043 59.7207C76.043 58.8092 75.5713 58.3467 74.6279 58.333H72.748ZM72.748 56.8838H74.2656C75.3001 56.8656 75.8174 56.4531 75.8174 55.6465C75.8174 55.1953 75.6852 54.8717 75.4209 54.6758C75.1611 54.4753 74.7487 54.375 74.1836 54.375H72.748V56.8838ZM82.6875 57.1982L84.7588 52.7139H87.001L83.7334 59.0576V62.667H81.6484V59.0576L78.3809 52.7139H80.6299L82.6875 57.1982Z" fill="white"/>
</svg>
