<?xml version="1.0" encoding="utf-8"?><svg viewBox="0 0 23 23" xmlns="http://www.w3.org/2000/svg" xmlns:xlink="http://www.w3.org/1999/xlink"><style>:root>svg{display:none}:root>svg:target{display:block}</style><svg fill="none" viewBox="0 0 13 8" id="icon-arrowSidebar" xmlns="http://www.w3.org/2000/svg"><path d="M1 1l5.5 5.5L12 1" stroke="#086293" stroke-width="2"/></svg><svg fill="none" viewBox="0 0 10 6" id="icon-header-arrow" xmlns="http://www.w3.org/2000/svg"><path d="M1 1l4 4 4-4" stroke="#086293"/></svg><svg fill="none" viewBox="0 0 23 23" id="icon-phone" xmlns="http://www.w3.org/2000/svg"><g clip-path="url(#cclip0)"><path d="M22.374 16.88l-3.21-3.21c-1.146-1.146-3.095-.688-3.553.802-.344 1.032-1.49 1.605-2.522 1.376-2.293-.573-5.388-3.554-5.961-5.96-.344-1.033.344-2.179 1.375-2.523 1.49-.458 1.95-2.407.803-3.553L6.096.602c-.917-.803-2.292-.803-3.095 0L.823 2.78c-2.178 2.292.23 8.368 5.617 13.756 5.388 5.387 11.463 7.91 13.756 5.617l2.178-2.178c.803-.917.803-2.293 0-3.095z" fill="#E87B36"/></g><defs><clipPath id="cclip0"><path fill="#fff" d="M0 0h23v23H0z"/></clipPath></defs></svg><svg fill="none" viewBox="0 0 20 20" id="icon-search" xmlns="http://www.w3.org/2000/svg"><path d="M19.756 18.577l-5.688-5.687a7.878 7.878 0 001.765-4.973C15.833 3.552 12.281 0 7.917 0 3.552 0 0 3.552 0 7.917c0 4.364 3.552 7.916 7.917 7.916a7.878 7.878 0 004.973-1.765l5.687 5.688a.831.831 0 001.179 0 .832.832 0 000-1.179zm-11.84-4.41a6.256 6.256 0 01-6.25-6.25 6.256 6.256 0 016.25-6.25 6.256 6.256 0 016.25 6.25 6.256 6.256 0 01-6.25 6.25z" fill="#E87B36"/></svg></svg>