<svg width="54" height="54" viewBox="0 0 54 54" fill="none" xmlns="http://www.w3.org/2000/svg">
<g clip-path="url(#clip0)">
<path d="M52.7568 44.3885C52.328 44.3885 51.9805 44.7361 51.9805 45.1649V50.3523C51.9805 50.4244 51.9219 50.4831 51.8497 50.4831H48.8997V39.1402C48.8997 38.7114 48.5522 38.3638 48.1234 38.3638C47.6945 38.3638 47.347 38.7114 47.347 39.1402V50.4832H41.6464L43.1893 48.7858C43.4276 48.5236 43.5399 48.1513 43.4899 47.7897C43.4888 47.7819 43.4877 47.7743 43.4863 47.7665L41.7519 37.5189L42.071 37.0385L42.1542 37.0975C42.4387 37.2997 42.8017 37.3734 43.1528 37.2857C43.4976 37.1995 43.7865 36.9675 43.9453 36.6495V36.6494L45.7101 33.1122L49.7415 34.6735C49.9006 34.7426 51.9801 35.6961 51.9801 38.177V41.5416C51.9802 41.9705 52.3277 42.3181 52.7565 42.3181C53.1854 42.3181 53.5329 41.9705 53.5329 41.5417V38.1771C53.5329 34.5944 50.46 33.29 50.3293 33.2362C50.3243 33.2341 50.3195 33.2321 50.3145 33.2303L43.4497 30.5716V29.1576C44.5213 28.2955 45.2738 27.053 45.4998 25.6366C46.0342 25.5695 46.5301 25.3555 46.9415 25.0016C47.5316 24.4942 47.8702 23.7558 47.8702 22.976C47.8702 22.3536 47.6541 21.758 47.2673 21.2849V19.1899C47.2673 15.0901 43.9318 11.7547 39.8322 11.7547C37.9916 11.7547 36.3064 12.4284 35.0065 13.5404C34.9898 12.9455 34.7768 12.3786 34.4057 11.9248V9.82998C34.4057 5.73015 31.0703 2.39478 26.9706 2.39478C22.8708 2.39478 19.5354 5.73025 19.5354 9.82998V11.9795C19.1623 12.4254 18.9535 12.9631 18.935 13.5338C18.1057 12.825 17.1131 12.2914 16.0068 12.0001C15.5915 11.8908 15.1674 12.1385 15.0582 12.5532C14.949 12.9678 15.1966 13.3926 15.6113 13.5018C18.1901 14.1808 19.9913 16.52 19.9913 19.1898V20.351C19.9578 20.344 19.8501 20.3255 19.846 20.3249C19.8354 20.1057 19.7799 19.9719 19.6605 19.8001C19.4617 19.5145 19.1048 19.1587 17.9568 17.9248C17.5477 17.4854 16.8861 17.4047 16.3838 17.7331C14.4175 19.0175 12.0287 19.6721 9.81181 19.542C9.08968 19.4997 8.63867 19.8169 8.44644 20.3369C8.42926 20.3397 8.23724 20.3784 8.22657 20.381V19.1898C8.22657 16.6155 9.94679 14.2996 12.4097 13.5577C12.8203 13.4341 13.0529 13.001 12.9293 12.5903C12.8056 12.1797 12.3718 11.9471 11.9618 12.0709C10.464 12.522 9.11753 13.4613 8.17088 14.7155C7.19131 16.013 6.67363 17.5602 6.67363 19.1899V21.3396C6.28255 21.8068 6.07107 22.3747 6.07107 22.976C6.07107 24.3052 7.05033 25.4643 8.44551 25.6372C8.67407 27.0205 9.42456 28.347 10.609 29.249V30.572L3.75181 33.2305C3.74694 33.2323 3.74208 33.2343 3.73721 33.2363C3.60616 33.29 0.533203 34.5943 0.533203 38.177V50.3523C0.533203 51.2808 1.28845 52.0359 2.21688 52.0359H26.1259C26.4601 52.0359 26.7709 51.9368 27.0333 51.7683C27.2954 51.9368 27.6063 52.0359 27.9406 52.0359H51.8497C52.7781 52.0359 53.5333 51.2808 53.5333 50.3523V45.1649C53.5332 44.7361 53.1857 44.3885 52.7568 44.3885ZM8.36953 24.033C7.91437 23.8678 7.6236 23.4468 7.6236 22.9758C7.6236 22.519 7.95485 22.1437 8.36953 21.9655V24.033ZM44.2559 32.5489L42.732 35.6033C42.7318 35.603 41.0392 34.4009 41.0152 34.3838C41.7454 33.4824 41.4023 33.9059 42.9207 32.0319L44.2559 32.5489ZM39.8929 33.3023L37.885 30.8238V30.079C38.5377 30.3047 39.2407 30.4088 39.9025 30.4091C39.9026 30.4091 39.9028 30.4091 39.9029 30.4091H39.903C40.5873 30.409 41.28 30.279 41.8969 30.0469V30.8286L39.8929 33.3023ZM40.8044 36.1389L40.5188 36.5688H39.2672L38.9816 36.1389L39.8931 35.4917L40.8044 36.1389ZM27.0312 23.9422L25.0233 21.4638V20.719C25.6734 20.9437 26.3757 21.0488 27.0408 21.049C27.0409 21.049 27.0411 21.049 27.0412 21.049H27.0413C27.7243 21.049 28.4169 20.9195 29.0352 20.6869V21.4685L27.0312 23.9422ZM27.9426 26.7791L27.657 27.209H26.4054L26.1198 26.7791L27.0313 26.1318L27.9426 26.7791ZM20.9173 16.2027C21.0442 16.2373 21.1746 16.2608 21.307 16.2771C21.5356 17.6604 22.286 18.987 23.4705 19.8889V21.2119L21.8866 21.8259C21.7948 21.633 21.68 21.4513 21.5437 21.2848V19.1899C21.5437 18.1364 21.3218 17.1236 20.9173 16.2027ZM31.1568 15.3806C31.1568 17.6531 29.303 19.4959 27.0413 19.4959C24.4896 19.4959 22.7843 17.5183 22.7843 15.3806V11.7439C25.2358 11.842 27.7826 11.1154 29.8648 9.81942C30.5649 10.5701 30.9814 11.0062 31.1569 11.2087C31.1568 13.1416 31.1568 13.888 31.1568 15.3806ZM32.6382 16.2766C32.7699 16.26 32.8997 16.2364 33.0259 16.202C32.6226 17.1171 32.3969 18.1274 32.3969 19.1899V21.3394C32.2776 21.482 32.1749 21.6338 32.0899 21.7932L30.5881 21.2116V19.7976C31.6596 18.9354 32.4122 17.6929 32.6382 16.2766ZM24.0007 22.673L25.9066 25.0255L24.6069 25.9487C24.6061 25.9492 24.6056 25.9497 24.6049 25.9502L24.1924 26.2433L22.6683 23.1891L24.0007 22.673ZM28.8181 24.2034L30.0589 22.6718L31.3942 23.1889L29.8703 26.2433L29.4569 25.9497C29.4564 25.9494 29.456 25.949 29.4556 25.9487L28.1535 25.0238L28.8181 24.2034ZM29.2094 27.6785L29.2925 27.7375C29.5827 27.9437 29.947 28.0118 30.2911 27.9257C30.6359 27.8395 30.9248 27.6075 31.0836 27.2895V27.2894L32.3939 24.6633C32.8441 25.2182 33.4952 25.5556 34.1658 25.6394C34.4026 27.1238 35.205 28.3906 36.3323 29.249V30.5719L29.7317 33.1309L28.8901 28.159L29.2094 27.6785ZM36.8624 32.033L38.7683 34.3855C37.935 34.9775 37.0972 35.5726 37.0541 35.6033L35.53 32.549L36.8624 32.033ZM44.0184 24.7407C44.0186 26.9576 42.2181 28.856 39.903 28.856C37.2642 28.856 35.6459 26.7892 35.6459 24.7407V21.1039C38.08 21.2012 40.6301 20.4842 42.7264 19.1795C43.4265 19.9302 43.843 20.3663 44.0185 20.5688C44.0184 22.5016 44.0184 23.2481 44.0184 24.7407ZM46.3175 22.9759C46.3175 23.4477 46.0257 23.8679 45.5715 24.033V21.921C46.0411 22.092 46.3175 22.5211 46.3175 22.9759ZM33.9497 19.1898C33.9497 15.9463 36.5887 13.3075 39.8321 13.3075C43.0757 13.3075 45.7144 15.9464 45.7144 19.1898V20.351C45.6791 20.3436 45.582 20.3269 45.569 20.3249C45.5585 20.1055 45.5027 19.9714 45.3835 19.8001C45.1795 19.507 44.8265 19.1573 43.6799 17.9248C43.2795 17.495 42.6193 17.3982 42.1069 17.7331C40.1939 18.9827 37.777 19.6886 35.4772 19.5392C34.8312 19.4969 34.3632 19.8132 34.1695 20.337C34.1522 20.3398 33.9605 20.3785 33.9496 20.3811V19.1898H33.9497ZM34.0931 21.9656V24.032C33.6366 23.8674 33.3472 23.4453 33.3472 22.9758C33.3471 22.519 33.6781 22.1439 34.0931 21.9656ZM33.4556 13.616C33.4556 13.9429 33.3141 14.2521 33.0674 14.4642C32.9615 14.5553 32.8408 14.6252 32.7096 14.6729V12.5609C33.1739 12.7294 33.4556 13.1562 33.4556 13.616ZM26.9703 3.94751C30.2139 3.94751 32.8527 6.58632 32.8527 9.82988V10.991C32.8176 10.9838 32.7203 10.9669 32.7074 10.9649C32.6959 10.7271 32.6273 10.581 32.4875 10.3919C32.2796 10.1105 31.8964 9.72367 30.8182 8.56471C30.4111 8.12756 29.7498 8.0432 29.2452 8.373C27.225 9.69282 24.7742 10.3351 22.5529 10.176C22.0094 10.1349 21.4978 10.4633 21.3079 10.9768C21.2906 10.9796 21.0988 11.0183 21.0881 11.0209V9.82998H21.0879C21.0879 6.58632 23.7269 3.94751 26.9703 3.94751ZM21.2312 12.6055V14.6731C20.7761 14.5078 20.4853 14.0868 20.4853 13.6158C20.4853 13.1616 20.8139 12.7849 21.2312 12.6055ZM19.8478 21.921C20.2822 22.0791 20.5612 22.458 20.5888 22.9084C20.6236 23.4092 20.3158 23.8621 19.8478 24.0321V21.921ZM19.7759 25.6392C20.5082 25.5476 21.1803 25.1616 21.6211 24.568L22.979 27.2894C22.979 27.2894 22.979 27.2894 22.9791 27.2895C23.1378 27.6076 23.4267 27.8395 23.7715 27.9257C24.1124 28.0109 24.477 27.9457 24.7701 27.7375L24.8532 27.6785L25.1724 28.1589L24.3311 33.1294L17.7264 30.5715V29.1581H17.7263C18.8259 28.2715 19.5552 27.0187 19.7759 25.6392ZM14.1693 33.3023L12.1614 30.8238V30.079C12.8115 30.3038 13.5139 30.4088 14.179 30.409C14.1791 30.409 14.1793 30.409 14.1794 30.409C14.8736 30.409 15.5651 30.2756 16.1733 30.0469V30.8286L14.1693 33.3023ZM15.0808 36.1389L14.7952 36.5688H13.5436L13.258 36.1389L14.1695 35.4917L15.0808 36.1389ZM17.197 32.0319L18.5324 32.549L17.0084 35.6033L16.595 35.3097C16.5946 35.3094 16.5941 35.309 16.5937 35.3086L15.2916 34.3838L17.197 32.0319ZM9.92236 24.7407V21.1039C12.387 21.2024 14.9354 20.4662 17.0028 19.1795C17.6963 19.9231 18.1192 20.3661 18.2949 20.5688C18.2949 22.5017 18.2949 23.2482 18.2949 24.7407C18.2949 26.9986 16.4539 28.856 14.1794 28.856C11.6471 28.856 9.92236 26.9009 9.92236 24.7407ZM11.1389 32.033L13.0448 34.3855L11.7451 35.3086C11.7443 35.3092 11.7438 35.3097 11.7431 35.3102L11.3306 35.6033L9.80653 32.549L11.1389 32.033ZM6.7196 50.4833V39.1402C6.7196 38.7114 6.37209 38.3638 5.94323 38.3638C5.51437 38.3638 5.16686 38.7114 5.16686 39.1402V50.4832H2.21688C2.14463 50.4832 2.08604 50.4245 2.08604 50.3524V38.177C2.08604 35.6834 4.18709 34.7329 4.32311 34.6741L8.35203 33.1122L10.1171 36.6494C10.1171 36.6494 10.1171 36.6494 10.1172 36.6495C10.2759 36.9676 10.5648 37.1995 10.9097 37.2857C11.2506 37.3709 11.6153 37.3057 11.9083 37.0975L11.9914 37.0385L12.3106 37.5189L10.5762 47.7665C10.5748 47.7742 10.5737 47.7819 10.5725 47.7897C10.5226 48.1511 10.635 48.5234 10.8734 48.786L12.416 50.4832H6.7196V50.4833ZM12.1345 47.8647L13.7834 38.1217H14.5555L16.2045 47.8647L14.1695 50.1034L12.1345 47.8647ZM26.2567 50.3523C26.2567 50.4245 26.1981 50.4832 26.1259 50.4832H23.1762V39.1402C23.1762 38.7114 22.8287 38.3638 22.3998 38.3638C21.9709 38.3638 21.6234 38.7114 21.6234 39.1402V50.4832H15.9228L17.4657 48.7858C17.704 48.5236 17.8163 48.1513 17.7663 47.7897C17.7652 47.7819 17.7641 47.7743 17.7627 47.7665L16.0283 37.5189L16.3475 37.0385L16.4306 37.0975C16.6383 37.2451 16.8843 37.3221 17.1339 37.3221C17.5892 37.3221 18.0133 37.067 18.2218 36.6495V36.6494L19.9866 33.1123L24.0181 34.6736C25.1932 35.1847 26.2566 36.503 26.2566 38.177V50.3523H26.2567ZM27.0332 35.3557C26.7115 34.8376 26.2834 34.3581 25.7673 33.9489L26.6452 28.7618H27.4173L28.2956 33.9516C27.7657 34.3724 27.3432 34.8562 27.0332 35.3557ZM32.4431 50.4833V39.1402C32.4431 38.7114 32.0956 38.3638 31.6667 38.3638C31.2378 38.3638 30.8903 38.7114 30.8903 39.1402V50.4832H27.9405C27.8683 50.4832 27.8096 50.4245 27.8096 50.3524V38.177C27.8096 37.254 28.099 36.4039 28.7156 35.6898C29.1266 35.2183 29.6719 34.8365 30.0468 34.6741L34.0757 33.112L35.8408 36.6494C35.8408 36.6494 35.8408 36.6494 35.8409 36.6495C35.9996 36.9676 36.2885 37.1995 36.6333 37.2857C36.9742 37.3709 37.3388 37.3057 37.6319 37.0975L37.715 37.0385L38.0341 37.5189L36.2998 47.7665C36.2984 47.7742 36.2973 47.7819 36.2961 47.7897C36.2462 48.1511 36.3585 48.5234 36.5969 48.786L38.1396 50.4832H32.4431V50.4833ZM37.858 47.8648L39.507 38.1218H40.2791L41.9281 47.8648L39.893 50.1035L37.858 47.8648Z" fill="black"/>
</g>
<defs>
<clipPath id="clip0">
<rect width="53" height="53" fill="white" transform="translate(0.533203 0.715332)"/>
</clipPath>
</defs>
</svg>
