<svg width="41" height="39" viewBox="0 0 41 39" fill="none" xmlns="http://www.w3.org/2000/svg">
<g clip-path="url(#clip0)">
<path d="M40.9103 37.6801L36.2226 1.16451C36.1748 0.79216 35.842 0.512207 35.4471 0.512207H6.38504C5.99012 0.512207 5.65739 0.792085 5.6095 1.16451L0.921774 37.6801C0.894665 37.8911 0.964118 38.1028 1.11232 38.2619C1.26068 38.4211 1.47365 38.5121 1.69732 38.5121H40.1347C40.3584 38.5121 40.5714 38.421 40.7197 38.2619C40.8679 38.1029 40.9374 37.8911 40.9103 37.6801ZM21.1896 1.99658V4.96532H19.6271V1.99658H21.1896ZM7.07684 1.99658H8.71559L7.30075 16.1171C7.25989 16.5252 7.57496 16.8874 8.00449 16.9262C8.02965 16.9285 8.05465 16.9297 8.07942 16.9297C8.47754 16.9297 8.81777 16.6418 8.85621 16.2577L10.2852 1.99658H18.0647V5.70751C18.0647 6.11734 18.4146 6.4497 18.846 6.4497H21.9709C22.4024 6.4497 22.7522 6.11734 22.7522 5.70751V1.99658H31.5471L35.057 37.0278H6.77528L8.19004 22.9073C8.2309 22.4992 7.91582 22.137 7.48629 22.0982C7.05668 22.0602 6.67536 22.3586 6.63457 22.7667L5.20567 37.0278H2.57966L7.07684 1.99658ZM36.6265 37.0278L33.1166 1.99658H34.7554L39.2525 37.0278H36.6265Z" fill="black"/>
<path d="M18.8457 19.8093H21.9707C22.4021 19.8093 22.752 19.477 22.752 19.0671V10.1609C22.752 9.75105 22.4021 9.4187 21.9707 9.4187H18.8457C18.4143 9.4187 18.0645 9.75105 18.0645 10.1609V19.0671C18.0645 19.4771 18.4143 19.8093 18.8457 19.8093ZM19.627 10.9031H21.1895V18.325H19.627V10.9031Z" fill="black"/>
<path d="M18.8457 34.6532H21.9707C22.4021 34.6532 22.752 34.3208 22.752 33.911V23.5203C22.752 23.1104 22.4021 22.7781 21.9707 22.7781H18.8457C18.4143 22.7781 18.0645 23.1104 18.0645 23.5203V33.911C18.0645 34.3209 18.4143 34.6532 18.8457 34.6532ZM19.627 24.2625H21.1895V33.1688H19.627V24.2625Z" fill="black"/>
<path d="M7.74633 20.2544C8.17773 20.2544 8.52758 19.922 8.52758 19.5122C8.52758 19.1024 8.17773 18.77 7.74633 18.77H7.74578C7.31437 18.77 6.96484 19.1024 6.96484 19.5122C6.96484 19.922 7.31492 20.2544 7.74633 20.2544Z" fill="black"/>
</g>
<defs>
<clipPath id="clip0">
<rect width="40" height="38" fill="white" transform="translate(0.916016 0.512207)"/>
</clipPath>
</defs>
</svg>
