<svg width="58" height="57" viewBox="0 0 58 57" fill="none" xmlns="http://www.w3.org/2000/svg">
<path d="M17.2745 5.05908C16.3597 5.06036 15.4827 5.41802 14.8359 6.05363C14.1891 6.68925 13.8253 7.55093 13.8242 8.44971C13.8242 8.65276 13.9063 8.8475 14.0525 8.99109C14.1986 9.13467 14.3968 9.21533 14.6035 9.21533C14.8102 9.21533 15.0084 9.13467 15.1546 8.99109C15.3007 8.8475 15.3828 8.65276 15.3828 8.44971C15.3833 7.95671 15.5828 7.48404 15.9377 7.13544C16.2925 6.78684 16.7736 6.5908 17.2754 6.59033H22.3471C22.5537 6.59033 22.752 6.50967 22.8981 6.36609C23.0442 6.2225 23.1263 6.02776 23.1263 5.82471C23.1263 5.62165 23.0442 5.42691 22.8981 5.28333C22.752 5.13975 22.5537 5.05908 22.3471 5.05908H17.2745Z" fill="black"/>
<path d="M27.0152 5.05908H25.6348C25.4281 5.05908 25.2299 5.13975 25.0837 5.28333C24.9376 5.42691 24.8555 5.62165 24.8555 5.82471C24.8555 6.02776 24.9376 6.2225 25.0837 6.36609C25.2299 6.50967 25.4281 6.59033 25.6348 6.59033H27.0152C27.2219 6.59033 27.4201 6.50967 27.5663 6.36609C27.7124 6.2225 27.7945 6.02776 27.7945 5.82471C27.7945 5.62165 27.7124 5.42691 27.5663 5.28333C27.4201 5.13975 27.2219 5.05908 27.0152 5.05908Z" fill="black"/>
<path d="M22.7363 3.96533H27.0153C27.222 3.96533 27.4202 3.88467 27.5664 3.74109C27.7125 3.5975 27.7946 3.40276 27.7946 3.19971C27.7946 2.99665 27.7125 2.80191 27.5664 2.65833C27.4202 2.51475 27.222 2.43408 27.0153 2.43408H22.7363C22.5296 2.43408 22.3314 2.51475 22.1853 2.65833C22.0391 2.80191 21.957 2.99665 21.957 3.19971C21.957 3.40276 22.0391 3.5975 22.1853 3.74109C22.3314 3.88467 22.5296 3.96533 22.7363 3.96533Z" fill="black"/>
<path d="M11.9307 9.21533C12.0332 9.2155 12.1346 9.19582 12.2293 9.15742C12.324 9.11902 12.41 9.06264 12.4825 8.99152C12.555 8.9204 12.6125 8.83594 12.6517 8.74297C12.6908 8.65 12.711 8.55034 12.7109 8.44971C12.7122 7.26092 13.1934 6.12117 14.049 5.28049C14.9045 4.43981 16.0645 3.96684 17.2745 3.96533H19.3318C19.5385 3.96533 19.7367 3.88467 19.8829 3.74109C20.029 3.5975 20.1111 3.40276 20.1111 3.19971C20.1111 2.99665 20.029 2.80191 19.8829 2.65833C19.7367 2.51475 19.5385 2.43408 19.3318 2.43408H17.2745C15.6513 2.43605 14.0951 3.0705 12.9474 4.19824C11.7997 5.32599 11.1541 6.85495 11.1523 8.44971C11.1523 8.55019 11.1724 8.6497 11.2115 8.74256C11.2505 8.83542 11.3079 8.91981 11.3801 8.9909C11.4524 9.062 11.5383 9.11841 11.6327 9.15692C11.7272 9.19542 11.8285 9.21527 11.9307 9.21533Z" fill="black"/>
<path d="M37.5469 5.05908C36.6319 5.06012 35.7547 5.41768 35.1077 6.05332C34.4607 6.68896 34.0968 7.55078 34.0957 8.44971C34.0957 8.65276 34.1778 8.8475 34.324 8.99109C34.4701 9.13467 34.6683 9.21533 34.875 9.21533C35.0817 9.21533 35.2799 9.13467 35.426 8.99109C35.5722 8.8475 35.6543 8.65276 35.6543 8.44971C35.6548 7.95671 35.8543 7.48404 36.2091 7.13544C36.564 6.78684 37.0451 6.5908 37.5469 6.59033H39.8968C40.1035 6.59033 40.3017 6.50967 40.4478 6.36609C40.594 6.2225 40.6761 6.02776 40.6761 5.82471C40.6761 5.62165 40.594 5.42691 40.4478 5.28333C40.3017 5.13975 40.1035 5.05908 39.8968 5.05908H37.5469Z" fill="black"/>
<path d="M42.4023 5.82471C42.4023 5.92527 42.4224 6.02485 42.4615 6.11777C42.5007 6.21068 42.5581 6.29511 42.6305 6.36621C42.7028 6.43732 42.7888 6.49371 42.8833 6.53217C42.9779 6.57063 43.0793 6.59039 43.1816 6.59033H47.2888C47.4954 6.59033 47.6937 6.50967 47.8398 6.36609C47.9859 6.2225 48.0681 6.02776 48.0681 5.82471C48.0681 5.62165 47.9859 5.42691 47.8398 5.28333C47.6937 5.13975 47.4954 5.05908 47.2888 5.05908H43.1816C43.0793 5.05902 42.9779 5.07879 42.8833 5.11724C42.7888 5.1557 42.7028 5.21209 42.6305 5.2832C42.5581 5.35431 42.5007 5.43873 42.4615 5.53165C42.4224 5.62456 42.4023 5.72415 42.4023 5.82471Z" fill="black"/>
<path d="M46.2148 3.96533H47.2885C47.4952 3.96533 47.6934 3.88467 47.8395 3.74109C47.9857 3.5975 48.0678 3.40276 48.0678 3.19971C48.0678 2.99665 47.9857 2.80191 47.8395 2.65833C47.6934 2.51475 47.4952 2.43408 47.2885 2.43408H46.2148C46.0082 2.43408 45.8099 2.51475 45.6638 2.65833C45.5177 2.80191 45.4355 2.99665 45.4355 3.19971C45.4355 3.40276 45.5177 3.5975 45.6638 3.74109C45.8099 3.88467 46.0082 3.96533 46.2148 3.96533Z" fill="black"/>
<path d="M32.2031 9.21533C32.4098 9.21533 32.608 9.13467 32.7542 8.99109C32.9003 8.8475 32.9824 8.65276 32.9824 8.44971C32.9837 7.26077 33.465 6.12089 34.3208 5.28018C35.1765 4.43947 36.3367 3.96661 37.5469 3.96533H41.9283C42.135 3.96533 42.3332 3.88467 42.4794 3.74109C42.6255 3.5975 42.7076 3.40276 42.7076 3.19971C42.7076 2.99665 42.6255 2.80191 42.4794 2.65833C42.3332 2.51475 42.135 2.43408 41.9283 2.43408H37.5469C35.9235 2.43582 34.3671 3.07016 33.2192 4.19794C32.0713 5.32571 31.4256 6.8548 31.4238 8.44971C31.4238 8.55027 31.4439 8.64985 31.483 8.74277C31.5222 8.83568 31.5796 8.92011 31.6519 8.99121C31.7243 9.06232 31.8103 9.11871 31.9048 9.15717C31.9994 9.19563 32.1008 9.21539 32.2031 9.21533Z" fill="black"/>
<path d="M49.3594 27.8025C49.1527 27.8025 48.9545 27.8832 48.8083 28.0267C48.6622 28.1703 48.5801 28.3651 48.5801 28.5681V31.1931C48.5801 31.3962 48.6622 31.5909 48.8083 31.7345C48.9545 31.8781 49.1527 31.9587 49.3594 31.9587C49.5661 31.9587 49.7643 31.8781 49.9104 31.7345C50.0566 31.5909 50.1387 31.3962 50.1387 31.1931V28.5681C50.1387 28.3651 50.0566 28.1703 49.9104 28.0267C49.7643 27.8832 49.5661 27.8025 49.3594 27.8025Z" fill="black"/>
<path d="M54.7031 50.1216H52.8105V22.9528L54.7962 22.7183C54.9977 22.6898 55.1798 22.585 55.3036 22.4263C55.4275 22.2676 55.4832 22.0676 55.4589 21.869C55.4346 21.6705 55.3321 21.4892 55.1735 21.3639C55.0149 21.2385 54.8127 21.1792 54.6101 21.1984L38.7378 23.0718L38.3103 14.2623C38.4474 14.2022 38.5639 14.1043 38.6457 13.9806C38.7275 13.8568 38.7711 13.7125 38.7712 13.5649V10.9399C38.7711 10.7369 38.6889 10.5422 38.5428 10.3987C38.3967 10.2551 38.1985 10.1744 37.9919 10.1743H29.0856C28.879 10.1743 28.6807 10.255 28.5346 10.3986C28.3884 10.5421 28.3063 10.7369 28.3063 10.9399V13.5649C28.3061 13.7131 28.3497 13.8582 28.4318 13.9825C28.514 14.1067 28.6311 14.2049 28.769 14.2649L28.2836 24.3082L18.5789 25.4527L18.0392 14.2614C18.1761 14.2013 18.2923 14.1035 18.3739 13.98C18.4556 13.8564 18.4991 13.7123 18.4992 13.5649V10.9399C18.4992 10.7369 18.4171 10.5421 18.271 10.3986C18.1248 10.255 17.9266 10.1743 17.7199 10.1743H8.81367C8.60699 10.1743 8.40877 10.255 8.26263 10.3986C8.11648 10.5421 8.03438 10.7369 8.03438 10.9399V13.5649C8.03437 13.7134 8.07833 13.8586 8.16088 13.9829C8.24343 14.1072 8.36101 14.2052 8.49928 14.2649L7.0774 43.5591H6.48469C6.28448 43.5591 6.09195 43.6348 5.94702 43.7705C5.8021 43.9062 5.71589 44.0915 5.70628 44.2879L5.42128 50.1216H3.49219C3.38983 50.1215 3.28847 50.1413 3.19389 50.1797C3.09932 50.2182 3.01339 50.2746 2.94101 50.3457C2.86863 50.4168 2.81123 50.5012 2.77209 50.5941C2.73295 50.687 2.71283 50.7866 2.71289 50.8872V53.5122C2.71283 53.6128 2.73295 53.7123 2.77209 53.8053C2.81123 53.8982 2.86863 53.9826 2.94101 54.0537C3.01339 54.1248 3.09932 54.1812 3.19389 54.2197C3.28847 54.2581 3.38983 54.2779 3.49219 54.2778H54.7031C54.8055 54.2779 54.9068 54.2581 55.0014 54.2197C55.096 54.1812 55.1819 54.1248 55.2543 54.0537C55.3267 53.9826 55.3841 53.8982 55.4232 53.8053C55.4624 53.7123 55.4825 53.6128 55.4824 53.5122V50.8872C55.4825 50.7866 55.4624 50.687 55.4232 50.5941C55.3841 50.5012 55.3267 50.4168 55.2543 50.3457C55.1819 50.2746 55.096 50.2182 55.0014 50.1797C54.9068 50.1413 54.8055 50.1215 54.7031 50.1216ZM46.8794 50.1216V42.1372C46.8794 41.9341 46.7973 41.7394 46.6512 41.5958C46.505 41.4522 46.3068 41.3716 46.1001 41.3716H40.7564C40.654 41.3715 40.5527 41.3913 40.4581 41.4297C40.3635 41.4682 40.2776 41.5246 40.2052 41.5957C40.1328 41.6668 40.0754 41.7512 40.0363 41.8441C39.9971 41.937 39.977 42.0366 39.9771 42.1372V50.1216H38.7747V42.1372C38.7747 41.9341 38.6926 41.7394 38.5465 41.5958C38.4003 41.4522 38.2021 41.3716 37.9954 41.3716H32.6517C32.5493 41.3715 32.448 41.3913 32.3534 41.4297C32.2588 41.4682 32.1729 41.5246 32.1005 41.5957C32.0281 41.6668 31.9707 41.7512 31.9316 41.8441C31.8925 41.937 31.8723 42.0366 31.8724 42.1372V50.1216H14.0461V27.5304L51.252 23.1374V50.1216H46.8794ZM45.3208 50.1216H41.5357V42.9028H45.3208V50.1216ZM37.2161 50.1216H33.431V42.9028H37.2161V50.1216ZM29.8685 11.7056H37.2161V12.7993H29.8685V11.7056ZM30.3298 14.3306H36.7535L37.1863 23.2556L29.8547 24.1214L30.3298 14.3306ZM9.59564 11.7056H16.9406V12.7993H9.59297L9.59564 11.7056ZM10.0592 14.3306H16.4824L17.027 25.6356L10.501 26.4069C10.3042 26.4306 10.124 26.527 9.99709 26.6767C9.87017 26.8263 9.80606 27.0178 9.81781 27.2122C9.82956 27.4066 9.91628 27.5893 10.0603 27.7231C10.2044 27.8569 10.3949 27.9318 10.5931 27.9324C10.6245 27.9324 10.6559 27.9307 10.6871 27.9272L12.4875 27.7141V43.5591H8.63777L10.0592 14.3306ZM7.22747 45.0903H12.4875V50.1216H6.98166L7.22747 45.0903ZM53.9238 52.7466H4.27148V51.6528H53.9238V52.7466Z" fill="black"/>
<path d="M27.5156 38.8196H18.6094C18.4027 38.8196 18.2045 38.9002 18.0583 39.0438C17.9122 39.1874 17.8301 39.3821 17.8301 39.5852C17.8301 39.7883 17.9122 39.983 18.0583 40.1266C18.2045 40.2702 18.4027 40.3508 18.6094 40.3508H27.5156C27.7223 40.3508 27.9205 40.2702 28.0667 40.1266C28.2128 39.983 28.2949 39.7883 28.2949 39.5852C28.2949 39.3821 28.2128 39.1874 28.0667 39.0438C27.9205 38.9002 27.7223 38.8196 27.5156 38.8196Z" fill="black"/>
<path d="M27.5156 33.5696H18.6094C18.4027 33.5696 18.2045 33.6502 18.0583 33.7938C17.9122 33.9374 17.8301 34.1321 17.8301 34.3352C17.8301 34.5383 17.9122 34.733 18.0583 34.8766C18.2045 35.0202 18.4027 35.1008 18.6094 35.1008H27.5156C27.7223 35.1008 27.9205 35.0202 28.0667 34.8766C28.2128 34.733 28.2949 34.5383 28.2949 34.3352C28.2949 34.1321 28.2128 33.9374 28.0667 33.7938C27.9205 33.6502 27.7223 33.5696 27.5156 33.5696Z" fill="black"/>
<path d="M27.5156 36.1946H18.6094C18.4027 36.1946 18.2045 36.2752 18.0583 36.4188C17.9122 36.5624 17.8301 36.7571 17.8301 36.9602C17.8301 37.1633 17.9122 37.358 18.0583 37.5016C18.2045 37.6452 18.4027 37.7258 18.6094 37.7258H27.5156C27.7223 37.7258 27.9205 37.6452 28.0667 37.5016C28.2128 37.358 28.2949 37.1633 28.2949 36.9602C28.2949 36.7571 28.2128 36.5624 28.0667 36.4188C27.9205 36.2752 27.7223 36.1946 27.5156 36.1946Z" fill="black"/>
<path d="M36.6582 34.8821H33.9863C33.884 34.882 33.7826 34.9018 33.688 34.9402C33.5935 34.9787 33.5075 35.0351 33.4352 35.1062C33.3628 35.1773 33.3054 35.2617 33.2662 35.3546C33.2271 35.4476 33.207 35.5471 33.207 35.6477V38.2727C33.207 38.3733 33.2271 38.4728 33.2662 38.5658C33.3054 38.6587 33.3628 38.7431 33.4352 38.8142C33.5075 38.8853 33.5935 38.9417 33.688 38.9802C33.7826 39.0186 33.884 39.0384 33.9863 39.0383H36.6582C36.8649 39.0383 37.0631 38.9577 37.2093 38.8141C37.3554 38.6705 37.4375 38.4758 37.4375 38.2727V35.6477C37.4375 35.4446 37.3554 35.2499 37.2093 35.1063C37.0631 34.9627 36.8649 34.8821 36.6582 34.8821ZM35.8789 37.5071H34.7656V36.4133H35.8789V37.5071Z" fill="black"/>
<path d="M44.7637 34.8821H42.0918C41.9894 34.882 41.8881 34.9018 41.7935 34.9402C41.6989 34.9787 41.613 35.0351 41.5406 35.1062C41.4682 35.1773 41.4108 35.2617 41.3717 35.3546C41.3326 35.4476 41.3124 35.5471 41.3125 35.6477V38.2727C41.3124 38.3733 41.3326 38.4728 41.3717 38.5658C41.4108 38.6587 41.4682 38.7431 41.5406 38.8142C41.613 38.8853 41.6989 38.9417 41.7935 38.9802C41.8881 39.0186 41.9894 39.0384 42.0918 39.0383H44.7637C44.9704 39.0383 45.1686 38.9577 45.3147 38.8141C45.4609 38.6705 45.543 38.4758 45.543 38.2727V35.6477C45.543 35.4446 45.4609 35.2499 45.3147 35.1063C45.1686 34.9627 44.9704 34.8821 44.7637 34.8821ZM43.9844 37.5071H42.8711V36.4133H43.9844V37.5071Z" fill="black"/>
</svg>
