<svg width="59" height="57" viewBox="0 0 59 57" fill="none" xmlns="http://www.w3.org/2000/svg">
<g clip-path="url(#clip0)">
<path d="M9.11472 42.3718C7.3413 42.3718 5.89844 43.7654 5.89844 45.4783C5.89844 47.1912 7.34119 48.5848 9.11472 48.5848C10.8882 48.5848 12.3311 47.1912 12.3311 45.4783C12.3311 43.7654 10.8881 42.3718 9.11472 42.3718ZM9.11472 46.9441C8.27825 46.9441 7.59766 46.2865 7.59766 45.4783C7.59766 44.6701 8.27825 44.0125 9.11472 44.0125C9.9513 44.0125 10.6319 44.6701 10.6319 45.4783C10.6319 46.2865 9.9513 46.9441 9.11472 46.9441Z" fill="black"/>
<path d="M44.9 48.5848C46.6734 48.5848 48.1163 47.1912 48.1163 45.4783C48.1163 43.7654 46.6735 42.3718 44.9 42.3718C43.1265 42.3718 41.6836 43.7654 41.6836 45.4783C41.6836 47.1911 43.1265 48.5848 44.9 48.5848ZM44.9 44.0123C45.7365 44.0123 46.417 44.67 46.417 45.4782C46.417 46.2864 45.7365 46.944 44.9 46.944C44.0634 46.944 43.3828 46.2864 43.3828 45.4782C43.3828 44.67 44.0634 44.0123 44.9 44.0123Z" fill="black"/>
<path d="M12.8374 43.5684C12.6773 43.7783 12.6301 44.0492 12.7102 44.2983C12.8324 44.6787 12.8945 45.0755 12.8945 45.4781C12.8945 45.8806 12.8324 46.2776 12.71 46.6581C12.6301 46.907 12.6773 47.1779 12.8375 47.3878C12.9975 47.5977 13.2514 47.7216 13.5215 47.7216H40.4926C40.7627 47.7216 41.0165 47.5977 41.1766 47.3878C41.3368 47.1779 41.384 46.907 41.304 46.6581C41.1817 46.2775 41.1196 45.8806 41.1196 45.4781C41.1196 45.0755 41.1817 44.6786 41.304 44.2983C41.384 44.0494 41.3368 43.7783 41.1767 43.5684C41.0165 43.3585 40.7627 43.2346 40.4926 43.2346H13.5215C13.2516 43.2346 12.9975 43.3585 12.8374 43.5684ZM14.5606 44.8752H39.4538C39.4317 45.0749 39.4205 45.276 39.4205 45.4781C39.4205 45.6802 39.4317 45.8814 39.4538 46.081H14.5605C14.5826 45.8814 14.5938 45.6802 14.5938 45.4781C14.5938 45.276 14.5827 45.0749 14.5606 44.8752Z" fill="black"/>
<path d="M23.4766 31.2251C23.0072 31.2251 22.627 31.5923 22.627 32.0454C22.627 32.4986 23.0072 32.8657 23.4766 32.8657H25.4538C25.9231 32.8657 26.3034 32.4986 26.3034 32.0454C26.3034 31.5923 25.9231 31.2251 25.4538 31.2251H23.4766Z" fill="black"/>
<path d="M5.59513 34.1539C5.9096 34.1539 6.21195 33.9844 6.35921 33.6933L8.36508 29.7273C8.57092 29.3202 8.39601 28.829 7.97449 28.6303C7.55274 28.4314 7.044 28.6004 6.83828 29.0074L4.83241 32.9734C4.62658 33.3805 4.80148 33.8717 5.223 34.0704C5.34297 34.1271 5.46996 34.1539 5.59513 34.1539Z" fill="black"/>
<path d="M9.61273 34.1539C9.9272 34.1539 10.2295 33.9846 10.3768 33.6933L12.3828 29.7274C12.5886 29.3203 12.4138 28.8291 11.9922 28.6303C11.5703 28.4314 11.0617 28.6004 10.856 29.0075L8.85001 32.9734C8.64417 33.3805 8.81897 33.8717 9.2406 34.0704C9.36068 34.1271 9.48767 34.1539 9.61273 34.1539Z" fill="black"/>
<path d="M13.6323 34.1539C13.9467 34.1539 14.2491 33.9846 14.3963 33.6933L16.4023 29.7274C16.6082 29.3203 16.4334 28.8291 16.0117 28.6303C15.59 28.4314 15.0814 28.6004 14.8755 29.0075L12.8695 32.9734C12.6637 33.3805 12.8385 33.8717 13.2601 34.0704C13.3801 34.1271 13.5071 34.1539 13.6323 34.1539Z" fill="black"/>
<path d="M58.4494 29.4805L56.3561 24.7989C56.3453 24.7749 56.3333 24.7515 56.3203 24.7286L52.7384 16.4665C52.5573 16.0486 52.0592 15.8516 51.6268 16.0266C51.1939 16.2015 50.9899 16.6821 51.1712 17.0999L54.4637 24.6946L53.3385 25.1641L45.8141 11.2161L45.814 11.216L45.6476 10.9073L44.6519 9.06152C44.651 9.05977 44.6504 9.05791 44.6495 9.05616C44.6258 9.01187 44.605 8.9668 44.5867 8.92119C44.5807 8.9061 44.5762 8.89068 44.5707 8.87547C44.5587 8.84212 44.5473 8.80865 44.5381 8.77463C44.5338 8.75855 44.5305 8.74237 44.5268 8.72618C44.5187 8.69118 44.5117 8.65607 44.5066 8.62052C44.5046 8.60652 44.503 8.59252 44.5015 8.57841C44.4972 8.53904 44.4946 8.49933 44.4939 8.45941C44.4911 8.29557 44.5179 8.13063 44.5784 7.97051C44.7152 7.60902 44.9934 7.32935 45.3618 7.1829C46.0717 6.90082 46.8908 7.22796 47.1875 7.9121L49.8467 14.0457C50.0279 14.4638 50.5261 14.6608 50.9583 14.4856C51.3912 14.3108 51.5952 13.8302 51.4139 13.4123L48.7548 7.2786C48.0986 5.76507 46.2864 5.04144 44.715 5.66576C43.9117 5.9848 43.2801 6.61983 42.9821 7.40777C42.925 7.5586 42.8813 7.71293 42.8503 7.86879L29.9305 13.0012C29.7103 12.9711 29.4856 12.9545 29.2569 12.9545H25.8178C24.6033 12.9545 23.6153 13.9088 23.6153 15.0817V18.6054H21.3341C20.2508 18.6054 19.3694 19.4565 19.3694 20.5029V25.1621C19.3694 25.3037 19.2502 25.419 19.1039 25.419H2.72452C1.64109 25.4191 0.759766 26.2703 0.759766 27.3165V29.3067C0.759766 29.7599 1.14005 30.127 1.60938 30.127C2.0787 30.127 2.45898 29.7599 2.45898 29.3067V27.3165C2.45898 27.1749 2.57816 27.0596 2.72452 27.0596H19.104C20.1873 27.0596 21.0687 26.2085 21.0687 25.1621V20.5029C21.0687 20.3613 21.1879 20.246 21.3342 20.246H24.465H33.1884H33.7747C33.8988 20.246 34.0097 20.3129 34.0643 20.4209L36.6474 25.5311C36.7211 25.6773 36.7602 25.8404 36.7602 26.0029V35.941C36.7602 36.1129 36.6157 36.2529 36.4378 36.2529H34.5067H18.5329H2.72452C2.57816 36.2529 2.45898 36.1376 2.45898 35.996V32.6119C2.45898 32.1588 2.0787 31.7916 1.60938 31.7916C1.14005 31.7916 0.759766 32.1588 0.759766 32.6119V35.996C0.759766 37.0423 1.64109 37.8935 2.72452 37.8935H17.6834V39.6858H8.31585C5.00861 39.6858 2.31784 42.2836 2.31784 45.4793C2.31784 48.6725 5.00849 51.2705 8.31585 51.2705H45.6984C49.0057 51.2705 51.6965 48.6727 51.6965 45.4768C51.6965 42.2837 49.0058 39.6858 45.6984 39.6858H35.3563V37.8935H36.4378C37.5525 37.8935 38.4594 37.0177 38.4594 35.941V26.0029C38.4594 25.5926 38.3609 25.1807 38.1744 24.8116L35.5914 19.7013C35.2938 19.1124 34.7015 18.7086 34.0381 18.6229V18.2032L44.7034 12.7085L51.7742 25.8167L43.7985 29.1446C43.2586 29.37 42.9202 29.8627 42.9153 30.4307C42.9105 30.99 43.2484 31.5002 43.7764 31.7307L51.4554 35.0815C51.9487 35.2969 52.4734 35.406 53.0149 35.406C53.5346 35.406 54.0399 35.3051 54.517 35.1061L56.4743 34.2894C58.3914 33.4897 59.2774 31.3322 58.4494 29.4805ZM19.3826 37.8936H33.6571V39.6859H33.657H19.3826V37.8936ZM45.6983 41.3266C48.0686 41.3266 49.9972 43.1884 49.9972 45.4796C49.9972 47.7681 48.0689 49.6301 45.6984 49.6301H8.31585C5.94556 49.6301 4.01705 47.7682 4.01705 45.477C4.01705 43.1885 5.94544 41.3266 8.31585 41.3266H18.5329H34.5066H45.6983ZM32.3384 17.5726V17.7114V18.6057H25.3146V18.6056V15.082C25.3146 14.8137 25.5404 14.5953 25.8179 14.5953H29.257C29.4667 14.5953 29.6715 14.6159 29.8695 14.6546C29.9466 14.6696 30.022 14.6882 30.0967 14.7087C30.1141 14.7135 30.1316 14.718 30.1489 14.723C30.2171 14.7429 30.2839 14.7653 30.3499 14.7895C30.3723 14.7977 30.3946 14.8062 30.4167 14.815C30.4789 14.8395 30.5402 14.8654 30.6002 14.8936C30.6233 14.9044 30.6459 14.9161 30.6686 14.9275C30.718 14.9521 30.7665 14.9779 30.8142 15.0051C30.8417 15.0207 30.8689 15.0368 30.8959 15.0532C30.9422 15.0814 30.9876 15.1108 31.0321 15.1413C31.0524 15.1552 31.0729 15.1687 31.0927 15.183C31.1461 15.2214 31.1979 15.2618 31.2485 15.3033C31.2658 15.3176 31.2831 15.3319 31.2999 15.3464C31.3522 15.3913 31.403 15.4375 31.4519 15.4857C31.463 15.4966 31.4737 15.5079 31.4847 15.519C31.5377 15.5728 31.5895 15.6278 31.6382 15.6854C31.6388 15.6861 31.6393 15.6869 31.64 15.6876C31.6937 15.751 31.7448 15.8166 31.7929 15.8842C31.7938 15.8854 31.7948 15.8867 31.7957 15.8879C31.8437 15.9554 31.8888 16.025 31.931 16.0963C31.9324 16.0986 31.9337 16.1008 31.935 16.103C32.1042 16.3901 32.2247 16.706 32.2878 17.039C32.2893 17.0475 32.2909 17.0561 32.2925 17.0647C32.3063 17.1417 32.3171 17.2196 32.3247 17.2982C32.3257 17.3087 32.3263 17.3192 32.3272 17.3298C32.334 17.41 32.3383 17.4908 32.3383 17.5724V17.5726H32.3384ZM33.8876 16.4213C33.7205 15.7945 33.4193 15.2198 33.0169 14.7252C33.0069 14.7128 32.997 14.7005 32.9868 14.6881C32.9566 14.6517 32.9258 14.6159 32.8945 14.5805C32.8777 14.5614 32.8608 14.5426 32.8437 14.5239C32.8162 14.4938 32.7886 14.4639 32.7604 14.4345C32.7363 14.4094 32.7118 14.3848 32.6872 14.3603C32.6638 14.337 32.6406 14.3136 32.6167 14.2907C32.5791 14.2546 32.5405 14.2195 32.5016 14.1848C32.4893 14.1737 32.4774 14.1623 32.4649 14.1514C32.3629 14.0618 32.2568 13.9762 32.1467 13.8951L43.0265 9.57307C43.0294 9.58007 43.0334 9.58674 43.0364 9.59374C43.0695 9.67008 43.105 9.74566 43.1449 9.81949L43.9185 11.2536L33.8876 16.4213ZM55.8002 32.7836L53.8429 33.6003C53.306 33.8242 52.6886 33.8194 52.1555 33.5869L44.9608 30.4474L53.2197 27.0013C53.2432 26.9938 53.2665 26.9858 53.2896 26.9762L55.1333 26.204L56.8894 30.131C57.3461 31.1522 56.8574 32.3423 55.8002 32.7836Z" fill="black"/>
<path d="M34.2255 30.1317V30.1315C34.8281 30.1315 35.3184 29.6581 35.3184 29.0762V26.2427C35.3184 26.0841 35.2805 25.9245 35.2076 25.7798L33.2439 21.8947C33.062 21.5348 32.6764 21.3022 32.2616 21.3022H23.5832C22.9805 21.3022 22.4902 21.7757 22.4902 22.3576V26.217C22.4902 26.4968 22.6084 26.7702 22.815 26.9678L25.812 29.8272C26.0178 30.0235 26.2907 30.1317 26.58 30.1317H34.2255ZM24.1895 25.9726V22.9428H31.8829L33.6192 26.3778V28.4909H26.8291L24.1895 25.9726Z" fill="black"/>
</g>
<defs>
<clipPath id="clip0">
<rect width="58" height="56" fill="white" transform="translate(0.759766 0.355957)"/>
</clipPath>
</defs>
</svg>
