<svg width="154" height="38" viewBox="0 0 154 38" fill="none" xmlns="http://www.w3.org/2000/svg">
<path d="M7.35938 25.5H9.48438V32.7812C9.48438 34.2188 9.19531 35.276 8.61719 35.9531C7.84115 36.8698 6.67188 37.3281 5.10938 37.3281C4.27604 37.3281 3.57552 37.224 3.00781 37.0156C2.4401 36.8073 1.96094 36.5 1.57031 36.0938C1.17969 35.6927 0.890625 35.2031 0.703125 34.625H3.05469C3.26302 34.8646 3.53125 35.0443 3.85938 35.1641C4.1875 35.2891 4.57552 35.3516 5.02344 35.3516C5.59635 35.3516 6.05729 35.263 6.40625 35.0859C6.75521 34.9089 7 34.6797 7.14062 34.3984C7.28646 34.1172 7.35938 33.6328 7.35938 32.9453C6.98438 33.3203 6.59115 33.5911 6.17969 33.7578C5.76823 33.9193 5.30208 34 4.78125 34C3.64062 34 2.67708 33.5885 1.89062 32.7656C1.10417 31.9427 0.710938 30.901 0.710938 29.6406C0.710938 28.2917 1.1276 27.2083 1.96094 26.3906C2.71615 25.651 3.61719 25.2812 4.66406 25.2812C5.15365 25.2812 5.61458 25.3724 6.04688 25.5547C6.48438 25.7318 6.92188 26.026 7.35938 26.4375V25.5ZM5.14844 27.2734C4.47656 27.2734 3.92188 27.5 3.48438 27.9531C3.04688 28.401 2.82812 28.9661 2.82812 29.6484C2.82812 30.3568 3.05208 30.9375 3.5 31.3906C3.94792 31.8438 4.51042 32.0703 5.1875 32.0703C5.84896 32.0703 6.39323 31.849 6.82031 31.4062C7.2526 30.9635 7.46875 30.3828 7.46875 29.6641C7.46875 28.9557 7.2526 28.3802 6.82031 27.9375C6.38802 27.4948 5.83073 27.2734 5.14844 27.2734ZM11.1406 25.5H12.9688V26.5703C13.1667 26.1484 13.4297 25.8281 13.7578 25.6094C14.0859 25.3906 14.4453 25.2812 14.8359 25.2812C15.112 25.2812 15.401 25.3542 15.7031 25.5L15.0391 27.3359C14.7891 27.2109 14.5833 27.1484 14.4219 27.1484C14.0938 27.1484 13.8151 27.3516 13.5859 27.7578C13.362 28.1641 13.25 28.9609 13.25 30.1484L13.2578 30.5625V34H11.1406V25.5ZM25.2812 30.3672H18.4297C18.5286 30.9714 18.7917 31.4531 19.2188 31.8125C19.651 32.1667 20.2005 32.3438 20.8672 32.3438C21.6641 32.3438 22.349 32.0651 22.9219 31.5078L24.7188 32.3516C24.2708 32.987 23.7344 33.4583 23.1094 33.7656C22.4844 34.0677 21.7422 34.2188 20.8828 34.2188C19.5495 34.2188 18.4635 33.7995 17.625 32.9609C16.7865 32.1172 16.3672 31.0625 16.3672 29.7969C16.3672 28.5 16.7839 27.4245 17.6172 26.5703C18.4557 25.7109 19.5052 25.2812 20.7656 25.2812C22.1042 25.2812 23.1927 25.7109 24.0312 26.5703C24.8698 27.4245 25.2891 28.5547 25.2891 29.9609L25.2812 30.3672ZM23.1406 28.6875C23 28.2135 22.7214 27.8281 22.3047 27.5312C21.8932 27.2344 21.4141 27.0859 20.8672 27.0859C20.2734 27.0859 19.7526 27.2526 19.3047 27.5859C19.0234 27.7943 18.763 28.1615 18.5234 28.6875H23.1406ZM35.5312 30.3672H28.6797C28.7786 30.9714 29.0417 31.4531 29.4688 31.8125C29.901 32.1667 30.4505 32.3438 31.1172 32.3438C31.9141 32.3438 32.599 32.0651 33.1719 31.5078L34.9688 32.3516C34.5208 32.987 33.9844 33.4583 33.3594 33.7656C32.7344 34.0677 31.9922 34.2188 31.1328 34.2188C29.7995 34.2188 28.7135 33.7995 27.875 32.9609C27.0365 32.1172 26.6172 31.0625 26.6172 29.7969C26.6172 28.5 27.0339 27.4245 27.8672 26.5703C28.7057 25.7109 29.7552 25.2812 31.0156 25.2812C32.3542 25.2812 33.4427 25.7109 34.2812 26.5703C35.1198 27.4245 35.5391 28.5547 35.5391 29.9609L35.5312 30.3672ZM33.3906 28.6875C33.25 28.2135 32.9714 27.8281 32.5547 27.5312C32.1432 27.2344 31.6641 27.0859 31.1172 27.0859C30.5234 27.0859 30.0026 27.2526 29.5547 27.5859C29.2734 27.7943 29.013 28.1615 28.7734 28.6875H33.3906ZM37.2656 25.5H39.3906V26.3672C39.875 25.9609 40.3125 25.6797 40.7031 25.5234C41.099 25.362 41.5026 25.2812 41.9141 25.2812C42.7578 25.2812 43.474 25.5755 44.0625 26.1641C44.5573 26.6641 44.8047 27.4036 44.8047 28.3828V34H42.6953V30.2734C42.6953 29.2578 42.6484 28.5833 42.5547 28.25C42.4661 27.9167 42.3073 27.6641 42.0781 27.4922C41.8542 27.3151 41.5755 27.2266 41.2422 27.2266C40.8099 27.2266 40.4375 27.3724 40.125 27.6641C39.8177 27.9505 39.6042 28.349 39.4844 28.8594C39.4219 29.125 39.3906 29.7005 39.3906 30.5859V34H37.2656V25.5ZM55.1953 27.2188L53.4219 28.1953C53.0885 27.8464 52.7578 27.6042 52.4297 27.4688C52.1068 27.3333 51.7266 27.2656 51.2891 27.2656C50.4922 27.2656 49.8464 27.5052 49.3516 27.9844C48.862 28.4583 48.6172 29.0677 48.6172 29.8125C48.6172 30.5365 48.8542 31.1276 49.3281 31.5859C49.8021 32.0443 50.4245 32.2734 51.1953 32.2734C52.1484 32.2734 52.8906 31.9479 53.4219 31.2969L55.1016 32.4453C54.1901 33.6276 52.9036 34.2188 51.2422 34.2188C49.7474 34.2188 48.5755 33.776 47.7266 32.8906C46.8828 32.0052 46.4609 30.9688 46.4609 29.7812C46.4609 28.9583 46.6667 28.2005 47.0781 27.5078C47.4896 26.8151 48.0625 26.2708 48.7969 25.875C49.5365 25.4792 50.362 25.2812 51.2734 25.2812C52.1172 25.2812 52.875 25.4505 53.5469 25.7891C54.2188 26.1224 54.7682 26.599 55.1953 27.2188ZM63.4062 25.5H65.5312V34H63.4062V33.1016C62.9896 33.4974 62.5703 33.7839 62.1484 33.9609C61.7318 34.1328 61.2786 34.2188 60.7891 34.2188C59.6901 34.2188 58.7396 33.7943 57.9375 32.9453C57.1354 32.0911 56.7344 31.0312 56.7344 29.7656C56.7344 28.4531 57.1224 27.3776 57.8984 26.5391C58.6745 25.7005 59.6172 25.2812 60.7266 25.2812C61.237 25.2812 61.7161 25.3776 62.1641 25.5703C62.612 25.763 63.026 26.0521 63.4062 26.4375V25.5ZM61.1641 27.25C60.5026 27.25 59.9531 27.4844 59.5156 27.9531C59.0781 28.4167 58.8594 29.013 58.8594 29.7422C58.8594 30.4766 59.0807 31.0807 59.5234 31.5547C59.9714 32.0286 60.5208 32.2656 61.1719 32.2656C61.8438 32.2656 62.401 32.0339 62.8438 31.5703C63.2865 31.1016 63.5078 30.4896 63.5078 29.7344C63.5078 28.9948 63.2865 28.3958 62.8438 27.9375C62.401 27.4792 61.8411 27.25 61.1641 27.25ZM67.1875 25.5H69.0156V26.5703C69.2135 26.1484 69.4766 25.8281 69.8047 25.6094C70.1328 25.3906 70.4922 25.2812 70.8828 25.2812C71.1589 25.2812 71.4479 25.3542 71.75 25.5L71.0859 27.3359C70.8359 27.2109 70.6302 27.1484 70.4688 27.1484C70.1406 27.1484 69.862 27.3516 69.6328 27.7578C69.4089 28.1641 69.2969 28.9609 69.2969 30.1484L69.3047 30.5625V34H67.1875V25.5ZM79.0938 22.2188H81.2188V34H79.0938V33.1016C78.6771 33.4974 78.2578 33.7839 77.8359 33.9609C77.4193 34.1328 76.9661 34.2188 76.4766 34.2188C75.3776 34.2188 74.4271 33.7943 73.625 32.9453C72.8229 32.0911 72.4219 31.0312 72.4219 29.7656C72.4219 28.4531 72.8099 27.3776 73.5859 26.5391C74.362 25.7005 75.3047 25.2812 76.4141 25.2812C76.9245 25.2812 77.4036 25.3776 77.8516 25.5703C78.2995 25.763 78.7135 26.0521 79.0938 26.4375V22.2188ZM76.8516 27.25C76.1901 27.25 75.6406 27.4844 75.2031 27.9531C74.7656 28.4167 74.5469 29.013 74.5469 29.7422C74.5469 30.4766 74.7682 31.0807 75.2109 31.5547C75.6589 32.0286 76.2083 32.2656 76.8594 32.2656C77.5312 32.2656 78.0885 32.0339 78.5312 31.5703C78.974 31.1016 79.1953 30.4896 79.1953 29.7344C79.1953 28.9948 78.974 28.3958 78.5312 27.9375C78.0885 27.4792 77.5286 27.25 76.8516 27.25Z" fill="white"/>
<path d="M84.5391 31.7734C84.8776 31.7734 85.1667 31.8932 85.4062 32.1328C85.6458 32.3672 85.7656 32.6536 85.7656 32.9922C85.7656 33.3307 85.6458 33.6198 85.4062 33.8594C85.1667 34.099 84.8776 34.2188 84.5391 34.2188C84.2005 34.2188 83.9115 34.099 83.6719 33.8594C83.4323 33.6198 83.3125 33.3307 83.3125 32.9922C83.3125 32.6536 83.4323 32.3672 83.6719 32.1328C83.9115 31.8932 84.2005 31.7734 84.5391 31.7734ZM87.8594 25.5H89.9844V26.3672C90.4688 25.9609 90.9062 25.6797 91.2969 25.5234C91.6927 25.362 92.0964 25.2812 92.5078 25.2812C93.3516 25.2812 94.0677 25.5755 94.6562 26.1641C95.151 26.6641 95.3984 27.4036 95.3984 28.3828V34H93.2891V30.2734C93.2891 29.2578 93.2422 28.5833 93.1484 28.25C93.0599 27.9167 92.901 27.6641 92.6719 27.4922C92.4479 27.3151 92.1693 27.2266 91.8359 27.2266C91.4036 27.2266 91.0312 27.3724 90.7188 27.6641C90.4115 27.9505 90.1979 28.349 90.0781 28.8594C90.0156 29.125 89.9844 29.7005 89.9844 30.5859V34H87.8594V25.5ZM96.5547 25.5H98.7266L100.875 30.5156L103.016 25.5H105.18L101.562 34H100.18L96.5547 25.5ZM111.641 26.6875L110.32 28.0078C109.784 27.4766 109.297 27.2109 108.859 27.2109C108.62 27.2109 108.432 27.263 108.297 27.3672C108.161 27.4661 108.094 27.5911 108.094 27.7422C108.094 27.8568 108.135 27.9635 108.219 28.0625C108.307 28.1562 108.521 28.2865 108.859 28.4531L109.641 28.8438C110.464 29.25 111.029 29.6641 111.336 30.0859C111.643 30.5078 111.797 31.0026 111.797 31.5703C111.797 32.3255 111.518 32.9557 110.961 33.4609C110.409 33.9661 109.667 34.2188 108.734 34.2188C107.495 34.2188 106.505 33.7344 105.766 32.7656L107.078 31.3359C107.328 31.6276 107.62 31.8646 107.953 32.0469C108.292 32.224 108.591 32.3125 108.852 32.3125C109.133 32.3125 109.359 32.2448 109.531 32.1094C109.703 31.974 109.789 31.8177 109.789 31.6406C109.789 31.3125 109.479 30.9922 108.859 30.6797L108.141 30.3203C106.766 29.6276 106.078 28.7604 106.078 27.7188C106.078 27.0469 106.336 26.474 106.852 26C107.372 25.5208 108.036 25.2812 108.844 25.2812C109.396 25.2812 109.914 25.4036 110.398 25.6484C110.888 25.888 111.302 26.2344 111.641 26.6875Z" fill="#01B259"/>
<path d="M133.967 11.4272C134.151 11.681 134.892 12.7654 134.98 13.0709C135.068 13.3775 135.264 13.624 135.37 13.8979C135.466 14.1462 135.571 14.403 135.66 14.6604C135.665 14.6757 135.657 14.7012 135.666 14.7095C135.945 14.963 136.223 15.219 136.508 15.4649C136.654 15.5899 136.813 15.6987 136.97 15.8096C137.252 16.0096 137.539 16.0947 137.871 16.2136C138.094 16.2933 138.23 16.3187 138.378 16.4118C138.609 16.4998 138.744 16.5045 138.953 16.5431C139.255 16.5987 139.745 16.71 140.147 16.8089C140.361 16.862 140.506 16.9144 140.726 16.9562C140.951 16.9988 141.085 17.0224 141.237 17.0908C141.48 17.1999 141.713 17.2577 141.859 17.2951C141.974 17.3246 142.142 17.37 142.18 17.4108C142.338 17.5799 142.515 17.6617 142.757 17.6399C142.88 17.629 143.031 17.6752 143.134 17.7464C143.343 17.8908 143.551 18.0508 143.716 18.2414C143.813 18.3545 143.855 18.5348 143.876 18.6908C143.903 18.889 143.895 19.0945 143.877 19.2945C143.869 19.384 143.802 19.468 143.793 19.4873C143.584 19.4305 143.429 19.3778 143.269 19.3476C143.041 19.3047 142.812 19.2636 142.582 19.2483C142.141 19.2192 141.763 19.4407 141.367 19.5847C141.333 19.5971 141.299 19.6494 141.275 19.6436C141.038 19.5862 140.923 19.7353 140.815 19.8996C140.997 20.068 141.156 20.3302 141.367 20.3833C141.692 20.4655 141.82 20.787 142.119 20.8688C142.178 20.8851 142.216 20.9692 142.271 21.0132C142.434 21.1433 142.601 21.2688 142.767 21.3965C143.059 21.6219 143.343 21.8579 143.645 22.0696C143.862 22.222 144.102 22.3416 144.332 22.4751C144.619 22.6412 144.906 22.8071 145.193 22.9722C145.286 23.0253 145.379 23.1176 145.473 23.1187C145.949 23.1253 146.129 23.522 146.407 23.7908C146.663 24.0388 146.887 24.3937 147.194 24.4952C147.537 24.6086 147.686 24.8759 147.935 25.0541C148.234 25.2687 148.484 25.5858 148.812 25.7167C149.162 25.8563 149.417 26.076 149.692 26.3025C149.84 26.4244 150.05 26.4665 150.222 26.5633C150.36 26.6418 150.473 26.768 150.615 26.8389C150.984 27.024 151.362 27.1931 151.738 27.363C151.858 27.4171 151.987 27.4528 152.174 27.5193C152.123 27.5695 152.076 27.6575 152.026 27.6601C151.69 27.6757 151.354 27.6768 151.088 27.4073C151.056 27.375 150.973 27.3931 150.913 27.3877C150.922 27.4466 150.91 27.5346 150.944 27.5593C151.242 27.7775 151.538 28.0005 151.853 28.1899C152.109 28.3437 152.391 28.4565 152.663 28.5812C152.795 28.6412 152.933 28.6867 153.058 28.7681C152.098 28.955 151.279 28.6558 150.517 28.0768C150.511 28.1063 150.485 28.1543 150.498 28.1721C150.637 28.3572 150.781 28.539 150.927 28.7187C151.218 29.0783 151.524 29.426 151.799 29.7976C151.998 30.0678 152.158 30.3671 152.33 30.6573C152.355 30.7006 152.347 30.7642 152.359 30.8515C151.906 30.6715 151.48 30.5111 151.063 30.3311C150.961 30.2871 150.882 30.1835 150.799 30.1002C150.582 29.8813 150.363 29.6638 150.156 29.4354C150.009 29.2729 149.881 29.0936 149.744 28.922C149.716 28.935 149.688 28.9485 149.66 28.9616C149.704 29.0743 149.744 29.1892 149.793 29.2998C149.888 29.5154 150.003 29.7242 150.085 29.9446C150.263 30.4206 150.437 30.8992 150.59 31.3835C150.664 31.617 150.688 31.8668 150.741 32.144C150.629 32.144 150.556 32.1669 150.527 32.1407C150.084 31.7432 149.61 31.3726 149.224 30.9261C148.944 30.6031 148.786 30.1762 148.569 29.7987C148.532 29.7355 148.47 29.6875 148.419 29.6325C148.394 29.642 148.369 29.6515 148.343 29.6609C148.382 29.8315 148.424 30.0013 148.459 30.1726C148.472 30.2373 148.475 30.3057 148.472 30.3719C148.46 30.6955 148.53 31.001 148.667 31.2937C148.68 31.3221 148.674 31.3599 148.674 31.3934C148.675 31.9054 148.675 32.4174 148.675 33C148.574 32.9425 148.5 32.9178 148.449 32.8687C148.091 32.5247 147.752 32.1661 147.558 31.6963C147.55 31.6767 147.525 31.6636 147.507 31.649C147.19 31.3977 147.151 30.9908 146.977 30.6617C146.818 30.3617 146.786 29.9944 146.683 29.5976C146.633 29.7278 146.569 29.8256 146.56 29.9282C146.502 30.6326 146.458 31.3377 146.403 32.0425C146.386 32.2534 146.12 32.5447 145.924 32.5487C145.851 32.5502 145.757 32.4676 145.707 32.3989C145.604 32.2578 145.51 32.1061 145.438 31.9472C145.344 31.7374 145.253 31.521 145.2 31.2981C145.141 31.0501 145.135 30.7897 145.089 30.5377C145.059 30.3766 144.998 30.2213 144.932 30.0006C144.809 30.2326 144.711 30.4493 144.584 30.6475C144.493 30.7901 144.385 30.9453 144.245 31.0279C144.045 31.1457 143.921 30.9428 143.806 30.8232C143.673 30.685 143.574 30.5151 143.461 30.358C143.379 30.2438 143.298 30.1282 143.216 30.0129C143.229 29.9857 143.242 29.9587 143.255 29.9315C143.153 29.9667 143.053 30.0184 142.949 30.034C142.589 30.0867 142.295 29.9671 142.062 29.6816C141.978 29.5787 141.909 29.4678 141.718 29.6122C141.512 29.7682 140.9 29.6067 140.712 29.39C140.606 29.2671 140.495 29.2318 140.338 29.2245C140.108 29.2136 139.878 29.1689 139.652 29.1209C139.594 29.1085 139.512 29.0343 139.505 28.9798C139.471 28.731 139.307 28.7176 139.114 28.7249C138.946 28.731 138.777 28.7183 138.609 28.7281C138.401 28.7401 138.28 28.6623 138.274 28.4521C137.862 28.3281 137.296 28.6729 137.148 28.0023C136.944 27.9568 136.741 27.9204 136.544 27.8619C136.477 27.8419 136.397 27.775 136.376 27.7117C136.289 27.4542 136.13 27.3459 135.854 27.3601C135.564 27.375 135.282 27.0731 135.309 26.7993C135.317 26.7273 135.362 26.6589 135.402 26.5578C135.272 26.5578 135.15 26.5582 135.029 26.5578C134.796 26.5567 134.63 26.4124 134.601 26.1764C134.581 26.0174 134.493 25.9447 134.339 25.9542C134.157 25.9654 134.037 25.9203 133.98 25.7163C133.96 25.6429 133.819 25.5905 133.724 25.5523C133.587 25.4974 133.423 25.4909 133.305 25.4123C133.222 25.3578 133.198 25.2167 133.163 25.1057C133.001 24.9574 132.747 24.9148 132.652 24.6603C132.631 24.6017 132.513 24.5515 132.436 24.5464C132.248 24.5334 132.167 24.4403 132.18 24.265C132.199 23.9999 132.063 23.9122 131.812 23.9359C131.716 23.646 131.54 23.4675 131.187 23.5428C131.201 23.2562 131.089 23.1096 130.794 23.1053C130.719 23.1042 130.628 22.9758 130.573 22.8882C130.404 22.6205 130.169 22.5132 129.855 22.4721C129.595 22.4376 129.323 22.343 129.1 22.2049C128.525 21.8492 127.983 21.9001 127.452 22.335C127.03 22.6809 126.897 23.1718 126.677 23.6246C126.192 24.6243 125.754 25.6534 125.038 26.5196C124.834 26.7662 124.316 26.9251 123.888 26.8069C123.501 26.7 123.459 26.4015 123.219 26.1549C122.978 26.1549 122.676 26.1549 122.374 26.1549C122.136 26.1549 121.864 25.9785 121.789 25.7567C121.737 25.6014 121.646 25.5334 121.485 25.549C121.326 25.5647 121.197 25.5352 121.07 25.4069C120.995 25.3319 120.83 25.3479 120.676 25.317C120.676 25.2065 120.676 25.0828 120.676 24.9592C120.676 24.917 120.681 24.8741 120.674 24.8334C120.647 24.685 120.103 24.449 119.96 24.5046C119.91 24.5239 119.795 24.4915 119.774 24.4497C119.627 24.1657 119.497 23.9002 119.202 23.7028C118.921 23.5155 118.976 23.1969 119.22 22.9213C119.302 22.8285 119.346 22.7023 119.411 22.5849C119.018 22.4336 118.695 22.1765 118.799 21.6576C118.828 21.5092 118.803 21.3499 118.803 21.2423C118.914 21.1539 118.99 21.0939 119.065 21.0335C118.997 20.9746 118.932 20.911 118.86 20.8579C118.648 20.7022 118.672 20.1637 118.916 20.0644C119.151 19.9687 119.404 19.8829 119.654 19.8669C120.55 19.8095 121.448 19.7985 122.343 19.7404C123.043 19.6949 123.742 19.6185 124.438 19.528C124.686 19.4956 124.943 19.4171 125.163 19.2978C125.721 18.9949 125.841 18.5985 125.577 18.0075C125.468 17.7632 125.324 17.5337 125.195 17.2984C124.985 16.918 124.769 16.5413 124.567 16.1573C124.526 16.0798 124.54 15.9754 124.516 15.8874C124.49 15.7943 124.474 15.6623 124.408 15.623C124.076 15.4248 123.965 15.0477 123.704 14.7932C123.465 14.5612 123.252 14.3012 123.042 14.0422C122.992 13.9811 122.998 13.8746 122.977 13.7833C122.667 13.6826 122.51 13.4633 122.479 13.076C122.166 13.008 121.939 12.8622 121.876 12.512C121.858 12.4127 121.727 12.336 121.656 12.2429C121.575 12.1378 121.504 12.0254 121.454 11.9032C121.299 11.7661 121.068 11.6552 121.01 11.485C120.954 11.3232 121.078 11.0995 121.13 10.8741C121.077 10.8741 120.979 10.8646 120.885 10.8759C120.665 10.9024 120.585 10.7304 120.478 10.5991C120.445 10.5595 120.439 10.4908 120.401 10.4638C120.072 10.2318 120.027 9.90273 120.071 9.53943C120.09 9.37652 120.045 9.2536 119.903 9.14269C119.801 9.06159 119.731 8.9234 119.681 8.79721C119.662 8.7503 119.722 8.64738 119.774 8.6012C119.893 8.49647 119.921 8.40119 119.772 8.31755C119.506 8.16809 119.623 7.85061 119.472 7.65133C119.461 7.63678 119.524 7.56696 119.552 7.52223C119.598 7.44768 119.643 7.37241 119.696 7.28658C119.371 7.19749 119.076 7.14294 118.804 7.03166C118.654 6.97057 118.514 6.83347 118.424 6.69491C118.346 6.57418 118.417 6.4269 118.546 6.33999C118.756 6.19889 118.751 6.07161 118.546 5.92324C118.439 5.84541 118.36 5.72832 118.265 5.6334C118.024 5.39484 118.07 5.20501 118.396 5.07264C118.476 5.04028 118.544 4.97955 118.648 4.91191C118.129 4.81517 117.697 4.4297 117.707 4.09077C117.767 4.07622 117.832 4.06059 117.933 4.03586C117.626 3.82421 117.352 3.63547 117.078 3.4471C117.087 3.42201 117.096 3.39691 117.105 3.37182C117.566 3.37182 118.028 3.37182 118.489 3.37182C118.499 3.33909 118.509 3.30636 118.52 3.27363C118.354 3.20163 118.194 3.10308 118.021 3.06562C117.866 3.03217 117.715 3.06199 117.587 2.90671C117.51 2.8147 117.334 2.80925 117.208 2.75324C117.129 2.71833 117.06 2.66124 117 2.58014C117.394 2.61469 117.775 2.47432 118.17 2.63505C118.377 2.71979 118.648 2.64996 118.924 2.64996C118.878 2.58487 118.849 2.54487 118.805 2.48414C118.877 2.46304 118.941 2.4445 119.065 2.40813C118.71 2.30595 118.41 2.21939 118.11 2.13284C118.109 2.11648 118.108 2.09975 118.108 2.08339C118.154 2.07211 118.201 2.05139 118.247 2.05102C118.499 2.04775 118.753 2.06666 119.003 2.04484C119.275 2.02084 119.542 1.96047 119.8 1.91792C119.877 1.85865 119.957 1.80374 120.028 1.73828C120.054 1.715 120.078 1.64518 120.067 1.63464C119.959 1.53245 120.042 1.44408 120.065 1.34153C120.091 1.22261 120.071 1.09351 120.071 0.943689C120.501 0.924778 120.89 1.02733 121.269 1.17061C121.583 1.28953 121.897 1.41208 122.204 1.54918C122.399 1.63645 122.578 1.75828 122.77 1.85574C122.911 1.92774 123.06 1.9852 123.206 2.0492C123.345 2.1103 123.508 2.14339 123.616 2.2394C123.776 2.38231 123.883 2.37831 123.988 2.21649C123.766 2.05539 123.548 1.88956 123.322 1.73537C122.832 1.40117 122.393 1.01096 121.98 0.583669C121.802 0.399295 121.572 0.265833 121.365 0.109461C121.382 0.073095 121.399 0.0363656 121.416 0C121.604 0.0530938 121.868 0.047639 121.964 0.171646C122.176 0.449116 122.521 0.43166 122.759 0.630217C122.927 0.770952 123.113 0.897504 123.307 1.00006C123.656 1.18479 123.867 1.56372 124.278 1.66591C124.369 1.68846 124.465 1.8041 124.503 1.89901C124.578 2.08448 124.703 2.05684 124.828 2.03829C124.969 1.70046 124.773 1.44735 124.658 1.17061C124.577 0.977508 124.533 0.76877 124.472 0.56694C124.499 0.552031 124.526 0.536757 124.554 0.521847C124.619 0.567304 124.694 0.604033 124.749 0.659673C126.137 2.05429 127.51 3.46419 128.924 4.83154" fill="white"/>
</svg>
