<svg width="75" height="75" viewBox="0 0 75 75" fill="none" xmlns="http://www.w3.org/2000/svg">
<path d="M23.9612 45.8762C21.6764 45.8762 19.443 45.1987 17.5432 43.9294C15.6435 42.66 14.1629 40.8558 13.2885 38.745C12.4142 36.6341 12.1854 34.3114 12.6312 32.0705C13.0769 29.8297 14.1771 27.7713 15.7927 26.1557C17.4083 24.5401 19.4666 23.4399 21.7075 22.9942C23.9484 22.5485 26.2711 22.7772 28.3819 23.6516C30.4928 24.5259 32.297 26.0066 33.5663 27.9063C34.8357 29.806 35.5132 32.0395 35.5132 34.3242C35.5097 37.3869 34.2916 40.3232 32.1259 42.4889C29.9602 44.6546 27.0239 45.8728 23.9612 45.8762ZM23.9612 24.7762C22.072 24.7762 20.2252 25.3364 18.6544 26.386C17.0836 27.4356 15.8593 28.9274 15.1363 30.6728C14.4133 32.4182 14.2242 34.3388 14.5927 36.1917C14.9613 38.0446 15.871 39.7466 17.2069 41.0825C18.5428 42.4184 20.2448 43.3281 22.0977 43.6967C23.9506 44.0653 25.8712 43.8761 27.6166 43.1531C29.362 42.4302 30.8538 41.2058 31.9034 39.635C32.953 38.0642 33.5132 36.2174 33.5132 34.3282C33.5113 31.7951 32.5045 29.3661 30.7137 27.5746C28.9228 25.783 26.4943 24.7751 23.9612 24.7722V24.7762Z" fill="black"/>
<path d="M44.3389 72.5351H3.58887C3.32365 72.5351 3.0693 72.4297 2.88176 72.2422C2.69422 72.0546 2.58887 71.8003 2.58887 71.5351V61.5351C2.59363 58.3257 3.87135 55.2492 6.14167 52.9808C8.41199 50.7124 11.4895 49.4372 14.6989 49.4351H32.7189C32.9841 49.4351 33.2384 49.5404 33.426 49.728C33.6135 49.9155 33.7189 50.1698 33.7189 50.4351C33.7189 50.7003 33.6135 50.9546 33.426 51.1422C33.2384 51.3297 32.9841 51.4351 32.7189 51.4351H14.6989C12.0197 51.4366 9.45066 52.5009 7.5553 54.3944C5.65994 56.2879 4.5931 58.8559 4.58887 61.5351V70.5351H43.3389V62.7351C43.3389 62.4698 43.4442 62.2155 43.6318 62.028C43.8193 61.8404 44.0737 61.7351 44.3389 61.7351C44.6041 61.7351 44.8584 61.8404 45.046 62.028C45.2335 62.2155 45.3389 62.4698 45.3389 62.7351V71.5351C45.3389 71.8003 45.2335 72.0546 45.046 72.2422C44.8584 72.4297 44.6041 72.5351 44.3389 72.5351Z" fill="black"/>
<path d="M42.1897 55.9853C42.0312 55.9854 41.8749 55.9479 41.7337 55.8757C41.5925 55.8036 41.4705 55.6989 41.3777 55.5703C40.8534 54.8535 40.2379 54.208 39.5467 53.6503C39.3412 53.4827 39.2107 53.2403 39.1838 52.9764C39.157 52.7125 39.2361 52.4488 39.4037 52.2433C39.5714 52.0377 39.8138 51.9072 40.0776 51.8804C40.3415 51.8536 40.6052 51.9327 40.8107 52.1003C41.6377 52.7681 42.3736 53.5413 42.9997 54.4003C43.1074 54.5495 43.1718 54.7256 43.1858 54.9091C43.1998 55.0926 43.1629 55.2765 43.0792 55.4403C42.9954 55.6042 42.8681 55.7418 42.7111 55.838C42.5542 55.9341 42.3738 55.9851 42.1897 55.9853Z" fill="black"/>
<path d="M35.1981 72.5351H12.7241C12.4589 72.5351 12.2045 72.4297 12.017 72.2422C11.8295 72.0547 11.7241 71.8003 11.7241 71.5351V64.8701C11.7241 64.6049 11.8295 64.3505 12.017 64.163C12.2045 63.9755 12.4589 63.8701 12.7241 63.8701C12.9893 63.8701 13.2437 63.9755 13.4312 64.163C13.6188 64.3505 13.7241 64.6049 13.7241 64.8701V70.5351H34.1981V64.8701C34.1981 64.6049 34.3035 64.3505 34.491 64.163C34.6785 63.9755 34.9329 63.8701 35.1981 63.8701C35.4633 63.8701 35.7177 63.9755 35.9052 64.163C36.0928 64.3505 36.1981 64.6049 36.1981 64.8701V71.5351C36.1981 71.8003 36.0928 72.0547 35.9052 72.2422C35.7177 72.4297 35.4633 72.5351 35.1981 72.5351Z" fill="black"/>
<path d="M69.5115 27.5262H53.9885C53.7232 27.5262 53.4689 27.4208 53.2814 27.2333C53.0938 27.0457 52.9885 26.7914 52.9885 26.5262C52.9885 26.2609 53.0938 26.0066 53.2814 25.8191C53.4689 25.6315 53.7232 25.5262 53.9885 25.5262H69.5115C69.7924 25.5256 70.0617 25.4138 70.2604 25.2151C70.4591 25.0164 70.5709 24.7471 70.5715 24.4662V5.59516C70.5709 5.31419 70.4591 5.04488 70.2604 4.84621C70.0617 4.64753 69.7924 4.53569 69.5115 4.53516H38.2285C37.9474 4.53542 37.6779 4.64718 37.4792 4.84592C37.2805 5.04465 37.1687 5.31411 37.1685 5.59516V24.4662C37.1687 24.7472 37.2805 25.0167 37.4792 25.2154C37.6779 25.4141 37.9474 25.5259 38.2285 25.5262H44.0175C44.2827 25.5262 44.537 25.6315 44.7246 25.8191C44.9121 26.0066 45.0175 26.2609 45.0175 26.5262C45.0175 26.7914 44.9121 27.0457 44.7246 27.2333C44.537 27.4208 44.2827 27.5262 44.0175 27.5262H38.2285C37.4171 27.5254 36.6393 27.2027 36.0656 26.629C35.4919 26.0553 35.1693 25.2775 35.1685 24.4662V5.59516C35.1693 4.78384 35.4919 4.00598 36.0656 3.43229C36.6393 2.8586 37.4171 2.53595 38.2285 2.53516H69.5115C70.3227 2.53621 71.1004 2.85895 71.674 3.43258C72.2477 4.00621 72.5704 4.78392 72.5715 5.59516V24.4662C72.5704 25.2774 72.2477 26.0551 71.674 26.6287C71.1004 27.2024 70.3227 27.5251 69.5115 27.5262Z" fill="black"/>
<path d="M58.679 18.7923C58.4812 18.7923 58.2879 18.7336 58.1235 18.6237C57.9591 18.5139 57.831 18.3577 57.7553 18.175C57.6796 17.9923 57.6598 17.7913 57.6984 17.5973C57.737 17.4034 57.8322 17.2252 57.972 17.0853L60.022 15.0353L57.967 12.9753C57.7921 12.7856 57.6973 12.5356 57.7025 12.2776C57.7077 12.0196 57.8123 11.7736 57.9947 11.591C58.177 11.4084 58.4229 11.3034 58.6809 11.2978C58.9389 11.2923 59.189 11.3867 59.379 11.5613L62.141 14.3233C62.3285 14.5109 62.4338 14.7652 62.4338 15.0303C62.4338 15.2955 62.3285 15.5498 62.141 15.7373L59.379 18.4993C59.1932 18.6852 58.9418 18.7904 58.679 18.7923Z" fill="black"/>
<path d="M49.064 18.792C48.7988 18.792 48.5445 18.6866 48.357 18.499L45.596 15.735C45.4085 15.5475 45.3032 15.2932 45.3032 15.028C45.3032 14.7629 45.4085 14.5086 45.596 14.321L48.357 11.559C48.5456 11.3769 48.7982 11.2761 49.0604 11.2784C49.3226 11.2806 49.5734 11.3858 49.7588 11.5712C49.9442 11.7566 50.0494 12.0074 50.0517 12.2696C50.054 12.5318 49.9532 12.7844 49.771 12.973L47.717 15.035L49.771 17.09C49.9108 17.2299 50.006 17.4081 50.0446 17.602C50.0832 17.796 50.0634 17.997 49.9877 18.1797C49.912 18.3624 49.7839 18.5186 49.6195 18.6284C49.4551 18.7383 49.2618 18.797 49.064 18.797V18.792Z" fill="black"/>
<path d="M52.4173 21.8812C52.2652 21.8815 52.1151 21.8471 51.9783 21.7806C51.8415 21.7141 51.7217 21.6173 51.628 21.4976C51.5343 21.3778 51.4691 21.2383 51.4375 21.0895C51.4058 20.9408 51.4085 20.7868 51.4453 20.6392L54.3512 8.93524C54.4152 8.67772 54.5788 8.45613 54.8061 8.31923C55.0333 8.18233 55.3057 8.14133 55.5632 8.20525C55.8208 8.26916 56.0424 8.43276 56.1793 8.66006C56.3162 8.88735 56.3572 9.15972 56.2932 9.41725L53.3872 21.1172C53.3344 21.3348 53.2101 21.5283 53.0342 21.6668C52.8584 21.8054 52.6411 21.8809 52.4173 21.8812Z" fill="black"/>
<path d="M44.0171 36.4672C43.7519 36.4672 43.4975 36.3618 43.31 36.1743C43.1224 35.9867 43.0171 35.7324 43.0171 35.4672V26.5261C43.0171 26.2609 43.1224 26.0066 43.31 25.819C43.4975 25.6315 43.7519 25.5261 44.0171 25.5261C44.2823 25.5261 44.5367 25.6315 44.7242 25.819C44.9117 26.0066 45.0171 26.2609 45.0171 26.5261V33.2262L53.3171 25.7801C53.4145 25.6905 53.5288 25.6211 53.6533 25.576C53.7777 25.5309 53.9099 25.5109 54.0422 25.5173C54.1744 25.5236 54.3041 25.5562 54.4237 25.6131C54.5432 25.6699 54.6503 25.75 54.7387 25.8486C54.8271 25.9471 54.895 26.0623 54.9385 26.1873C54.9821 26.3124 55.0003 26.4448 54.9923 26.5769C54.9842 26.7091 54.95 26.8383 54.8916 26.9572C54.8332 27.076 54.7518 27.182 54.6521 27.2691L44.6811 36.2102C44.4988 36.3744 44.2625 36.4659 44.0171 36.4672Z" fill="black"/>
</svg>
