<svg width="82" height="82" viewBox="0 0 82 82" fill="none" xmlns="http://www.w3.org/2000/svg">
<g clip-path="url(#clip0)">
<path d="M9.59126 67.5135C9.64213 67.5991 9.7062 67.6761 9.78111 67.7417C9.79455 67.7534 9.80863 67.7635 9.82256 67.7744C12.4347 70.7298 15.625 73.1183 19.1966 74.7921C22.7681 76.466 26.6449 77.3897 30.5875 77.5063C30.675 77.5226 30.7645 77.5247 30.8527 77.5126C31.0509 77.5165 31.2491 77.5202 31.4481 77.5202C31.6472 77.5202 31.8454 77.5165 32.0434 77.5126C32.1316 77.5247 32.2212 77.5226 32.3088 77.5063C36.2529 77.3897 40.1311 76.4653 43.7038 74.7903C47.2764 73.1152 50.4675 70.7251 53.0797 67.7678C53.0898 67.7594 53.1014 67.7535 53.1114 67.7448C53.1875 67.6787 53.2526 67.6008 53.3042 67.5142C57.494 62.6897 59.9596 56.6085 60.3126 50.2284C60.479 50.188 60.6312 50.103 60.7527 49.9824C61.9785 48.7539 62.6669 47.0893 62.6669 45.3538C62.6669 43.6183 61.9785 41.9537 60.7527 40.7252L58.5469 38.5193C58.3241 37.9213 58.0807 37.327 57.8176 36.743C59.7183 35.5945 61.726 34.6331 63.8124 33.8723L78.2149 28.6357C78.3649 28.5812 78.4987 28.4897 78.604 28.3697C78.7092 28.2497 78.7825 28.1051 78.8171 27.9493C78.8517 27.7934 78.8464 27.6314 78.8017 27.4782C78.7571 27.3249 78.6745 27.1854 78.5616 27.0725L72.2414 20.752C73.1382 19.4913 73.5594 17.9536 73.4303 16.4118C73.3012 14.8701 72.6301 13.4239 71.536 12.3299C70.442 11.2359 68.9958 10.5648 67.454 10.4358C65.9123 10.3067 64.3746 10.7279 63.1139 11.6248L56.7954 5.30553C56.6825 5.19267 56.543 5.1101 56.3898 5.06546C56.2365 5.02082 56.0745 5.01555 55.9186 5.05014C55.7628 5.08472 55.6182 5.15805 55.4982 5.26333C55.3783 5.36861 55.2868 5.50245 55.2322 5.65247L49.9957 20.0548C49.402 21.6883 48.6856 23.2745 47.8525 24.7998C43.2747 21.6275 37.871 19.8594 32.3034 19.712C32.2252 19.6998 32.1459 19.6975 32.0672 19.705C31.8615 19.7007 31.6554 19.6985 31.4489 19.6984C31.2453 19.6984 31.0427 19.7019 30.8398 19.706C30.7583 19.6973 30.676 19.6993 30.5949 19.712C26.6511 19.8275 22.7728 20.7509 19.2 22.4248C15.6272 24.0988 12.4357 26.4879 9.82287 29.4443C9.80911 29.4551 9.79487 29.4652 9.78158 29.4769C9.70674 29.5425 9.64268 29.6194 9.59174 29.7049C5.04219 34.9522 2.5376 41.6642 2.5376 48.6092C2.5376 55.5542 5.04171 62.2662 9.59126 67.5135ZM10.4464 31.6418C12.2038 33.5005 14.2007 35.1173 16.3843 36.4497C15.2289 40.0768 14.6122 43.8538 14.5539 47.66H4.45409C4.59718 43.4785 5.71313 39.4122 7.68517 35.773C8.47181 34.3213 9.39468 32.9377 10.4464 31.6418ZM45.2605 31.8748L51.9933 38.6078C51.2743 39.221 50.5806 39.8608 49.9125 40.5274C49.7408 40.6991 49.537 40.8353 49.3126 40.9283C49.0883 41.0212 48.8478 41.069 48.605 41.069C48.3622 41.069 48.1217 41.0212 47.8974 40.9283C47.6731 40.8353 47.4692 40.6991 47.2976 40.5274L43.3401 36.5699C42.9938 36.2229 42.7992 35.7527 42.7992 35.2624C42.7992 34.7721 42.9938 34.3019 43.3401 33.9548C43.7063 33.5886 44.0689 33.21 44.4183 32.8294C44.7057 32.5158 44.9849 32.1966 45.2605 31.8748ZM52.4531 65.5721C50.7012 63.7027 48.7058 62.0776 46.5205 60.7404C47.67 57.1217 48.2836 53.3542 48.3415 49.5578H58.4414C58.2416 55.4056 56.1391 61.0279 52.4531 65.5721ZM30.4989 56.5608C26.165 56.6975 21.9177 57.8092 18.0727 59.8135C17.0551 56.4878 16.5097 53.0358 16.4524 49.5584H30.4991L30.4989 56.5608ZM30.4989 58.4608V75.3856C25.0947 72.5854 21.0335 67.767 18.6996 61.6314C22.3384 59.6858 26.3751 58.6007 30.4989 58.4608ZM32.3973 58.4551C36.5249 58.5748 40.5681 59.6523 44.2078 61.6026C41.8759 67.7521 37.8101 72.5809 32.3973 75.3856V58.4551ZM32.3973 56.5553V49.5584H46.4439C46.3868 53.025 45.8447 56.4666 44.8334 59.7829C40.9874 57.7755 36.7342 56.6712 32.3973 56.5553ZM32.3973 40.6616C35.8943 40.5706 39.3442 39.8332 42.5728 38.4867L45.8758 41.7895C46.2126 43.7289 46.403 45.6909 46.4453 47.6589H32.3969L32.3973 40.6616ZM48.3442 47.6594C48.3101 46.0715 48.1855 44.4869 47.971 42.9133C48.1783 42.9488 48.3883 42.9668 48.5986 42.967C48.7456 42.967 48.8924 42.9585 49.0384 42.9416C49.8765 42.8428 50.6569 42.465 51.2542 41.869C51.2613 41.8618 51.2688 41.855 51.276 41.8478L57.0875 47.6594H48.3442ZM41.9976 32.613C41.4407 33.1716 41.074 33.8915 40.9496 34.6705C40.8252 35.4494 40.9495 36.2477 41.3047 36.952C38.4625 38.0651 35.449 38.6778 32.3978 38.763V21.8324C36.6402 24.0314 40.1347 27.5372 42.5641 32.0317C42.3768 32.2276 42.1881 32.4219 41.9976 32.613ZM30.4989 38.7579C26.3751 38.6181 22.3384 37.5333 18.7 35.5872C21.0338 29.4518 25.0949 24.6338 30.4989 21.8343V38.7579ZM30.4989 40.6581V47.6608H16.4522C16.5095 44.1834 17.055 40.7312 18.0727 37.4056C21.9176 39.4099 26.165 40.5222 30.4989 40.6581ZM14.5539 49.5584C14.612 53.3648 15.2286 57.142 16.384 60.7692C14.2005 62.1014 12.2037 63.718 10.4464 65.5766C6.75822 61.0321 4.65426 55.4078 4.45409 49.5584H14.5539ZM11.6971 67.016C13.2793 65.3194 15.0739 63.8342 17.0365 62.5971C19.0773 67.8178 22.3151 72.1384 26.535 75.1726C20.8423 74.1152 15.6404 71.2556 11.6971 67.016ZM36.361 75.1726C40.5883 72.1334 43.8296 67.8029 45.8701 62.5703C47.8332 63.8126 49.6255 65.3061 51.2015 67.013C47.258 71.2543 42.055 74.115 36.361 75.1726ZM60.022 47.8845C59.9918 47.859 59.9601 47.8353 59.9271 47.8138L52.6584 40.5454C53.585 39.7193 54.5555 38.9439 55.5657 38.2224L59.4112 42.0675C60.1626 42.8212 60.6332 43.8096 60.7443 44.8681C60.8555 45.9266 60.6005 46.9912 60.022 47.8845ZM66.9086 12.3114C67.7343 12.3113 68.5451 12.5313 69.2576 12.9486C69.9701 13.366 70.5585 13.9657 70.9623 14.6859C71.3661 15.4062 71.5706 16.2211 71.5549 17.0466C71.5392 17.8722 71.3037 18.6787 70.8728 19.3831L64.4833 12.9932C65.2129 12.5456 66.0526 12.3095 66.9086 12.3114ZM51.7791 20.7036L56.507 7.70183L76.1649 27.3606L63.1631 32.0885C59.6837 33.36 56.4181 35.1536 53.4785 37.4079L46.4633 30.3927C48.7224 27.4552 50.5154 24.1872 51.7791 20.7036ZM43.9052 30.5383C42.0261 27.1935 39.4474 24.2936 36.3451 22.0365C40.1374 22.7276 43.735 24.2315 46.891 26.4448C45.9982 27.8812 45.0002 29.2494 43.9052 30.5383ZM26.5377 22.045C22.3168 25.0787 19.0789 29.3999 17.0371 34.6222C15.0743 33.3848 13.2795 31.8993 11.6971 30.2024C15.6411 25.9621 20.844 23.1022 26.5377 22.045Z" fill="black"/>
<path d="M75.4941 16.8613C75.6098 16.9079 75.7334 16.9313 75.8581 16.9301C75.9827 16.9289 76.1059 16.9031 76.2207 16.8543C76.3354 16.8055 76.4393 16.7346 76.5266 16.6456C76.6139 16.5566 76.6828 16.4513 76.7294 16.3356C77.2331 15.0852 77.3581 13.7142 77.0886 12.3933C76.8192 11.0723 76.1673 9.85981 75.214 8.90655C74.2607 7.95329 73.0482 7.3014 71.7273 7.03198C70.4063 6.76256 69.0354 6.88751 67.7849 7.39129C67.666 7.43549 67.5572 7.50306 67.4649 7.59001C67.3726 7.67696 67.2986 7.78153 67.2474 7.89754C67.1962 8.01355 67.1687 8.13865 67.1666 8.26546C67.1646 8.39226 67.1879 8.51819 67.2353 8.63582C67.2827 8.75344 67.3532 8.86038 67.4426 8.9503C67.5321 9.04023 67.6386 9.11133 67.756 9.15939C67.8733 9.20746 67.9991 9.23152 68.1259 9.23016C68.2527 9.2288 68.378 9.20204 68.4943 9.15146C69.3994 8.78688 70.3917 8.69649 71.3478 8.89153C72.3039 9.08657 73.1815 9.55843 73.8715 10.2484C74.5615 10.9384 75.0333 11.816 75.2284 12.7721C75.4234 13.7282 75.333 14.7205 74.9684 15.6256C74.9218 15.7413 74.8983 15.865 74.8995 15.9897C74.9007 16.1144 74.9264 16.2376 74.9752 16.3524C75.024 16.4672 75.095 16.5712 75.184 16.6585C75.2731 16.7458 75.3785 16.8147 75.4941 16.8613Z" fill="black"/>
<path d="M67.3777 6.23009C68.8473 5.638 70.4587 5.49115 72.0112 5.8078C73.5637 6.12445 74.9888 6.89063 76.1092 8.01101C77.2296 9.13138 77.9959 10.5565 78.3126 12.109C78.6293 13.6615 78.4825 15.2728 77.8904 16.7425C77.8427 16.8584 77.8185 16.9825 77.819 17.1077C77.8195 17.2329 77.8448 17.3568 77.8934 17.4723C77.942 17.5877 78.013 17.6924 78.1022 17.7802C78.1915 17.8681 78.2972 17.9374 78.4134 17.9842C78.5296 18.0311 78.6539 18.0544 78.7791 18.053C78.9043 18.0515 79.028 18.0253 79.1431 17.9759C79.2582 17.9264 79.3623 17.8546 79.4495 17.7647C79.5367 17.6748 79.6053 17.5686 79.6512 17.4521C80.3826 15.637 80.5641 13.6469 80.1731 11.7294C79.7821 9.812 78.8358 8.05187 77.4521 6.66809C76.0684 5.28432 74.3084 4.338 72.3909 3.9469C70.4735 3.5558 68.4834 3.73719 66.6683 4.4685C66.4348 4.56257 66.2482 4.74555 66.1496 4.97719C66.051 5.20883 66.0484 5.47015 66.1425 5.70367C66.2366 5.93719 66.4195 6.12377 66.6512 6.22238C66.8828 6.32098 67.1441 6.32353 67.3777 6.22946V6.23009Z" fill="black"/>
<path d="M7.05179 39.1401L2.9002 37.5579L1.94371 44.5721L6.49067 45.7989L7.05179 39.1401Z" fill="white"/>
<path d="M5.42271 39.349C5.94525 39.349 6.36886 38.9314 6.36886 38.4162C6.36886 37.901 5.94525 37.4834 5.42271 37.4834C4.90017 37.4834 4.47656 37.901 4.47656 38.4162C4.47656 38.9314 4.90017 39.349 5.42271 39.349Z" fill="black"/>
<path d="M3.74398 45.8993C4.26921 45.8993 4.695 45.4812 4.695 44.9653C4.695 44.4494 4.26921 44.0312 3.74398 44.0312C3.21875 44.0312 2.79297 44.4494 2.79297 44.9653C2.79297 45.4812 3.21875 45.8993 3.74398 45.8993Z" fill="black"/>
</g>
<defs>
<clipPath id="clip0">
<rect width="81" height="81" fill="white" transform="translate(0.955078 0.133789)"/>
</clipPath>
</defs>
</svg>
