<svg width="75" height="75" viewBox="0 0 75 75" fill="none" xmlns="http://www.w3.org/2000/svg">
<path d="M56.8351 14.6151C56.6726 14.6152 56.5126 14.5758 56.3689 14.5001C56.2251 14.4245 56.102 14.315 56.0101 14.1811C55.4661 13.3898 54.8645 12.6398 54.2101 11.9371C54.0362 11.7421 53.9456 11.4867 53.9576 11.2257C53.9696 10.9647 54.0833 10.7188 54.2744 10.5405C54.4654 10.3623 54.7186 10.2659 54.9799 10.272C55.2411 10.2781 55.4895 10.3862 55.6721 10.5731C56.3931 11.3483 57.0556 12.1759 57.6541 13.0491C57.7571 13.1992 57.8172 13.3746 57.8279 13.5563C57.8386 13.738 57.7995 13.9192 57.7148 14.0803C57.6302 14.2415 57.5031 14.3765 57.3474 14.4707C57.1916 14.5649 57.0131 14.6149 56.8311 14.6151H56.8351Z" fill="black"/>
<path d="M49.6347 55.4651H25.6747C25.4095 55.4651 25.1551 55.3597 24.9676 55.1722C24.78 54.9847 24.6747 54.7303 24.6747 54.4651V54.0251C24.6747 49.2121 23.1337 47.4131 20.0657 43.8251C19.7287 43.4321 19.3767 43.0251 19.0097 42.5861C15.318 38.1903 13.2912 32.6354 13.2847 26.8951C13.2847 23.583 13.96 20.3057 15.2694 17.2634C16.5787 14.2211 18.4945 11.4776 20.8997 9.20067C23.305 6.9237 26.1493 5.16101 29.2587 4.02029C32.3682 2.87957 35.6775 2.38476 38.9847 2.56609C42.6421 2.758 46.2062 3.78966 49.4007 5.58109C49.6274 5.71269 49.7934 5.92805 49.8629 6.1808C49.9324 6.43356 49.8998 6.70351 49.7723 6.93252C49.6447 7.16154 49.4324 7.33131 49.1809 7.40529C48.9294 7.47928 48.6589 7.45155 48.4277 7.32809C45.4999 5.68625 42.2337 4.74018 38.8817 4.56309C35.8455 4.39572 32.807 4.84924 29.9521 5.89592C27.0971 6.94259 24.4855 8.56045 22.2769 10.6506C20.0684 12.7408 18.3092 15.2593 17.107 18.0524C15.9048 20.8454 15.2847 23.8543 15.2847 26.8951C15.29 32.1657 17.1507 37.2662 20.5407 41.3021C20.9027 41.7321 21.2517 42.1391 21.5847 42.5281C24.5447 45.9851 26.5347 48.3091 26.6677 53.4651H48.6547C48.8737 48.1341 50.8937 45.7931 54.3997 41.7321L54.6077 41.4921C57.3118 38.3548 59.0879 34.5258 59.7367 30.4351C59.7572 30.3053 59.803 30.1809 59.8716 30.0689C59.9402 29.9568 60.0301 29.8594 60.1364 29.7822C60.2426 29.7049 60.363 29.6493 60.4907 29.6186C60.6184 29.5879 60.7509 29.5826 60.8807 29.6031C61.0104 29.6236 61.1349 29.6694 61.2469 29.738C61.3589 29.8066 61.4563 29.8965 61.5336 30.0028C61.6109 30.109 61.6664 30.2294 61.6972 30.3571C61.7279 30.4848 61.7332 30.6173 61.7127 30.7471C61.0047 35.2038 59.0689 39.3751 56.1227 42.7931L55.9137 43.0351C52.2887 47.2351 50.6347 49.1501 50.6347 54.4611C50.6352 54.5927 50.6097 54.7232 50.5597 54.845C50.5097 54.9668 50.4361 55.0775 50.3432 55.1708C50.2503 55.2641 50.1399 55.3381 50.0183 55.3886C49.8967 55.4391 49.7663 55.4651 49.6347 55.4651Z" fill="black"/>
<path d="M60.6632 23.7851C60.4291 23.7849 60.2026 23.7026 60.023 23.5526C59.8434 23.4026 59.7221 23.1943 59.6802 22.9641C59.51 22.0286 59.2799 21.105 58.9912 20.1991C58.9105 19.9463 58.9336 19.6719 59.0553 19.4362C59.177 19.2004 59.3874 19.0227 59.6402 18.9421C59.8929 18.8615 60.1673 18.8845 60.4031 19.0063C60.6388 19.128 60.8165 19.3383 60.8972 19.5911C61.2115 20.5791 61.4623 21.5861 61.6482 22.6061C61.6744 22.7503 61.6686 22.8985 61.6312 23.0402C61.5938 23.182 61.5257 23.3137 61.4317 23.4262C61.3378 23.5387 61.2202 23.6292 61.0874 23.6912C60.9546 23.7532 60.8097 23.7853 60.6632 23.7851Z" fill="black"/>
<path d="M51.6655 62.8123H23.6435C23.0813 62.8118 22.5422 62.5883 22.1446 62.1909C21.747 61.7934 21.5233 61.2545 21.5225 60.6923V55.5863C21.523 55.024 21.7466 54.4848 22.1443 54.0871C22.5419 53.6895 23.0811 53.4659 23.6435 53.4653H51.6655C52.2278 53.4659 52.767 53.6895 53.1647 54.0871C53.5623 54.4848 53.7859 55.024 53.7865 55.5863V60.6923C53.7857 61.2545 53.5619 61.7934 53.1643 62.1909C52.7667 62.5883 52.2277 62.8118 51.6655 62.8123ZM23.6435 55.4653C23.6114 55.4653 23.5806 55.4781 23.5579 55.5008C23.5352 55.5235 23.5225 55.5542 23.5225 55.5863V60.6923C23.5227 60.7242 23.5356 60.7548 23.5583 60.7772C23.5809 60.7997 23.6115 60.8123 23.6435 60.8123H51.6655C51.6974 60.8123 51.728 60.7997 51.7507 60.7772C51.7733 60.7548 51.7862 60.7242 51.7865 60.6923V55.5863C51.7865 55.5542 51.7737 55.5235 51.751 55.5008C51.7283 55.4781 51.6976 55.4653 51.6655 55.4653H23.6435Z" fill="black"/>
<path d="M43.912 72.535H31.396C30.4677 72.535 29.5775 72.1663 28.9211 71.5099C28.2647 70.8535 27.896 69.9633 27.896 69.035V61.812C27.896 61.5468 28.0014 61.2924 28.1889 61.1049C28.3764 60.9174 28.6308 60.812 28.896 60.812H46.411C46.6762 60.812 46.9306 60.9174 47.1181 61.1049C47.3056 61.2924 47.411 61.5468 47.411 61.812V69.035C47.411 69.9631 47.0424 70.8532 46.3862 71.5095C45.7301 72.1659 44.8401 72.5348 43.912 72.535ZM29.897 62.812V69.035C29.897 69.4328 30.055 69.8144 30.3363 70.0957C30.6176 70.377 30.9992 70.535 31.397 70.535H43.912C44.3098 70.535 44.6914 70.377 44.9727 70.0957C45.254 69.8144 45.412 69.4328 45.412 69.035V62.812H29.897Z" fill="black"/>
<path d="M28.9005 67.2962H23.6436C23.3783 67.2962 23.124 67.1908 22.9364 67.0033C22.7489 66.8157 22.6436 66.5614 22.6436 66.2961C22.6436 66.0309 22.7489 65.7766 22.9364 65.589C23.124 65.4015 23.3783 65.2961 23.6436 65.2961H28.9005C29.1658 65.2961 29.4201 65.4015 29.6077 65.589C29.7952 65.7766 29.9005 66.0309 29.9005 66.2961C29.9005 66.5614 29.7952 66.8157 29.6077 67.0033C29.4201 67.1908 29.1658 67.2962 28.9005 67.2962Z" fill="black"/>
<path d="M51.6652 67.2962H46.4082C46.143 67.2962 45.8886 67.1908 45.7011 67.0033C45.5136 66.8157 45.4082 66.5614 45.4082 66.2961C45.4082 66.0309 45.5136 65.7766 45.7011 65.589C45.8886 65.4015 46.143 65.2961 46.4082 65.2961H51.6652C51.9304 65.2961 52.1848 65.4015 52.3723 65.589C52.5598 65.7766 52.6652 66.0309 52.6652 66.2961C52.6652 66.5614 52.5598 66.8157 52.3723 67.0033C52.1848 67.1908 51.9304 67.2962 51.6652 67.2962Z" fill="black"/>
<path d="M44.1311 33.0581C43.9334 33.0581 43.7401 32.9994 43.5757 32.8895C43.4113 32.7796 43.2831 32.6235 43.2075 32.4408C43.1318 32.2581 43.112 32.057 43.1506 31.8631C43.1891 31.6691 43.2843 31.491 43.4241 31.3511L48.2401 26.5351L43.4241 21.7191C43.242 21.5305 43.1412 21.2779 43.1435 21.0157C43.1457 20.7535 43.2509 20.5027 43.4363 20.3173C43.6217 20.1319 43.8725 20.0267 44.1347 20.0245C44.3969 20.0222 44.6495 20.123 44.8381 20.3051L50.3611 25.8281C50.5486 26.0156 50.6539 26.27 50.6539 26.5351C50.6539 26.8003 50.5486 27.0546 50.3611 27.2421L44.8381 32.7651C44.6506 32.9527 44.3963 33.0581 44.1311 33.0581Z" fill="black"/>
<path d="M31.1771 33.0581C30.9119 33.0581 30.6576 32.9527 30.4701 32.7651L24.9471 27.2421C24.7596 27.0546 24.6543 26.8003 24.6543 26.5351C24.6543 26.27 24.7596 26.0156 24.9471 25.8281L30.4701 20.3051C30.6587 20.123 30.9113 20.0222 31.1735 20.0245C31.4357 20.0267 31.6865 20.1319 31.8719 20.3173C32.0573 20.5027 32.1625 20.7535 32.1648 21.0157C32.167 21.2779 32.0662 21.5305 31.8841 21.7191L27.0681 26.5351L31.8841 31.3511C32.0239 31.491 32.1191 31.6691 32.1577 31.8631C32.1962 32.057 32.1764 32.2581 32.1008 32.4408C32.0251 32.6235 31.8969 32.7796 31.7325 32.8895C31.5681 32.9994 31.3748 33.0581 31.1771 33.0581Z" fill="black"/>
<path d="M35.5145 37.5353C35.4439 37.5353 35.3735 37.5279 35.3045 37.5133C35.1759 37.4858 35.0541 37.4333 34.9458 37.3588C34.8376 37.2842 34.7451 37.189 34.6737 37.0787C34.6023 36.9684 34.5533 36.845 34.5296 36.7157C34.5059 36.5865 34.5079 36.4538 34.5355 36.3253L38.8175 16.3183C38.845 16.1898 38.8975 16.0681 38.9721 15.96C39.0467 15.8518 39.1418 15.7594 39.2521 15.6881C39.3623 15.6167 39.4856 15.5678 39.6148 15.544C39.744 15.5203 39.8766 15.5223 40.005 15.5498C40.1334 15.5773 40.2552 15.6298 40.3633 15.7044C40.4714 15.779 40.5638 15.8741 40.6352 15.9844C40.7065 16.0946 40.7555 16.2179 40.7792 16.3471C40.8029 16.4762 40.801 16.6088 40.7735 16.7373L36.4915 36.7483C36.4429 36.9712 36.3195 37.1709 36.1417 37.314C35.964 37.4572 35.7427 37.5353 35.5145 37.5353Z" fill="black"/>
</svg>
