<svg width="48" height="48" viewBox="0 0 48 48" fill="none" xmlns="http://www.w3.org/2000/svg">
<g clip-path="url(#clip0)">
<path d="M12.5374 7.74316C6.8822 7.74316 2.28125 12.3441 2.28125 17.9994C2.28125 23.6546 6.88211 28.2555 12.5374 28.2555C18.1927 28.2555 22.7936 23.6546 22.7936 17.9994C22.7936 12.3441 18.1928 7.74316 12.5374 7.74316ZM12.5374 26.8758C7.64301 26.8758 3.66096 22.8939 3.66096 17.9994C3.66096 13.1048 7.64283 9.12287 12.5374 9.12287C17.432 9.12287 21.4139 13.1048 21.4139 17.9994C21.4139 22.8939 17.432 26.8758 12.5374 26.8758Z" fill="black"/>
<path d="M15.61 16.482C15.9909 16.482 16.2998 16.1731 16.2998 15.7921V15.0563C16.2998 13.4586 15 12.1588 13.4024 12.1588H13.3564V10.641C13.3564 10.2601 13.0475 9.95117 12.6665 9.95117C12.2856 9.95117 11.9767 10.2601 11.9767 10.641V12.1748C10.3266 12.3371 9.0332 13.7322 9.0332 15.4242C9.0332 17.2248 10.498 18.6896 12.2986 18.6896H13.0344C14.0742 18.6896 14.9201 19.5355 14.9201 20.5753C14.9201 21.6151 14.0742 22.461 13.0344 22.461H11.9307C11.0938 22.461 10.4129 21.7801 10.4129 20.9432C10.4129 20.5622 10.104 20.2534 9.72306 20.2534C9.3421 20.2534 9.0332 20.5622 9.0332 20.9432C9.0332 22.5408 10.333 23.8407 11.9307 23.8407H11.9767V25.3584C11.9767 25.7394 12.2856 26.0483 12.6665 26.0483C13.0475 26.0483 13.3564 25.7394 13.3564 25.3584V23.8247C15.0064 23.6624 16.2998 22.2673 16.2998 20.5753C16.2998 18.7747 14.835 17.3099 13.0344 17.3099H12.2986C11.2588 17.3099 10.4129 16.464 10.4129 15.4242C10.4129 14.3844 11.2588 13.5385 12.2986 13.5385H13.4024C14.2393 13.5385 14.9201 14.2194 14.9201 15.0563V15.7921C14.9201 16.1731 15.229 16.482 15.61 16.482Z" fill="black"/>
<path d="M23.5755 34.1426C23.9564 34.1426 24.2653 33.8337 24.2653 33.4528V29.0375C24.2653 28.6566 23.9564 28.3477 23.5755 28.3477H4.44279C4.06183 28.3477 3.75294 28.6566 3.75294 29.0375V32.7629H2.9711C2.59015 32.7629 2.28125 33.0718 2.28125 33.4528V37.868C2.28125 38.249 2.59015 38.5578 2.9711 38.5578H3.75294V41.5933H2.9711C2.59015 41.5933 2.28125 41.9022 2.28125 42.2831V46.6984C2.28125 47.0793 2.59015 47.3882 2.9711 47.3882H22.1038C22.4847 47.3882 22.7936 47.0793 22.7936 46.6984V42.973H23.5755C23.9564 42.973 24.2653 42.6641 24.2653 42.2831V37.8679C24.2653 37.4869 23.9564 37.178 23.5755 37.178H22.7936V34.1426H23.5755ZM3.66087 37.178V34.1426H21.4138V37.178H3.66087ZM21.4138 46.0085H3.66087V42.9731H21.4138V46.0085ZM22.8856 38.5578V41.5933H5.13264V38.5578H22.8856ZM5.13264 32.7628V29.7274H22.8856V32.7628H5.13264Z" fill="black"/>
<path d="M45.4479 13.1459L35.1456 0.63611C34.8739 0.306192 34.3522 0.306192 34.0805 0.63611L23.7783 13.1459C23.4147 13.5875 23.7401 14.2744 24.3109 14.2744H28.7722V35.6607C28.7722 36.0416 29.0811 36.3505 29.462 36.3505H39.7642C40.1452 36.3505 40.4541 36.0416 40.4541 35.6607V32.7632C40.4541 32.3822 40.1452 32.0733 39.7642 32.0733C39.3832 32.0733 39.0744 32.3822 39.0744 32.7632V34.9708H30.152V13.5845C30.152 13.2036 29.8431 12.8947 29.4621 12.8947H25.7729L34.6132 2.15994L43.4535 12.8947H39.7643C39.3833 12.8947 39.0744 13.2036 39.0744 13.5845V29.4978C39.0744 29.8787 39.3833 30.1876 39.7643 30.1876C40.1453 30.1876 40.4542 29.8787 40.4542 29.4978V14.2744H44.9154C45.4861 14.2744 45.8116 13.5876 45.4479 13.1459Z" fill="black"/>
<path d="M39.7656 38.6504H29.4633C29.0823 38.6504 28.7734 38.9593 28.7734 39.3402C28.7734 39.7212 29.0823 40.0301 29.4633 40.0301H39.7655C40.1464 40.0301 40.4553 39.7212 40.4553 39.3402C40.4553 38.9593 40.1465 38.6504 39.7656 38.6504Z" fill="black"/>
<path d="M39.7656 42.3301H29.4633C29.0823 42.3301 28.7734 42.639 28.7734 43.0199C28.7734 43.4009 29.0823 43.7098 29.4633 43.7098H39.7655C40.1464 43.7098 40.4553 43.4009 40.4553 43.0199C40.4553 42.639 40.1465 42.3301 39.7656 42.3301Z" fill="black"/>
<path d="M39.7656 46.0088H29.4633C29.0823 46.0088 28.7734 46.3177 28.7734 46.6986C28.7734 47.0796 29.0823 47.3885 29.4633 47.3885H39.7655C40.1464 47.3885 40.4553 47.0796 40.4553 46.6986C40.4554 46.3177 40.1465 46.0088 39.7656 46.0088Z" fill="black"/>
</g>
<defs>
<clipPath id="clip0">
<rect width="47" height="47" fill="white" transform="translate(0.441406 0.388672)"/>
</clipPath>
</defs>
</svg>
