<svg width="46" height="46" fill="none" xmlns="http://www.w3.org/2000/svg"><path d="M3.608 27.059l7.216 1.353v16.686H3.608v-18.04zm38.784 0l-7.216 1.353v16.686h7.216v-18.04z" fill="#11B687"/><path d="M23 29.918c-1.61 0-2.92 1.31-2.92 2.92 0 1.61 1.31 2.92 2.92 2.92 1.61 0 2.92-1.31 2.92-2.92 0-1.61-1.31-2.92-2.92-2.92zm0 4.492a1.574 1.574 0 01-1.572-1.572c0-.867.705-1.572 1.572-1.572.867 0 1.572.705 1.572 1.572 0 .867-.705 1.572-1.572 1.572zM43.934 0h-9.927a4.85 4.85 0 00-4.593 3.286l-1.85 5.426h-9.128l-1.85-5.425A4.851 4.851 0 0011.993 0H4.467a.674.674 0 100 1.348h7.526c1.5 0 2.833.954 3.317 2.373l3.202 9.39h-1.52L13.95 4.186a2.066 2.066 0 00-1.956-1.4H2.066a.72.72 0 010-1.438H4.93A.674.674 0 104.93 0H2.066C.926 0 0 .927 0 2.066a2.07 2.07 0 002.066 2.068h9.927c.308 0 .581.195.68.487l2.896 8.49h-3.676a2.473 2.473 0 00-2.47 2.47v1.849H8.5a2.473 2.473 0 00-2.471 2.47l.001 6.514H4.717a2.024 2.024 0 00-2.022 2.021v15.543c0 1.115.907 2.022 2.022 2.022h5.12a2.024 2.024 0 002.022-2.022v-5.63l6.505-2.034.088.273a2.464 2.464 0 002.351 1.712h4.394a2.464 2.464 0 002.351-1.712l.088-.273 6.505 2.033v5.631c0 1.115.907 2.022 2.021 2.022h5.121a2.024 2.024 0 002.022-2.022V28.435a2.024 2.024 0 00-2.022-2.02H39.97c.004-.058.001-6.45.001-6.515a2.473 2.473 0 00-2.47-2.47h-.923v-1.848a2.473 2.473 0 00-2.471-2.47H30.43l2.896-8.491a.719.719 0 01.68-.487h9.927A2.07 2.07 0 0046 2.066 2.069 2.069 0 0043.934 0zm-16.83 10.06l-1.04 3.051h-6.128l-1.04-3.051h8.208zM7.377 21.909h6.952c.124 0 .225.1.225.224v2.19c0 .123-.1.224-.225.224H7.377v-2.638zm-2.66 5.853h1.761c.386.55.99.94 1.695 1.033l1.977.264-1.303 1.757H5.708l-1.665-2.244c-.066-.42.252-.811.674-.81zm5.795 16.216a.674.674 0 01-.674.674H4.717a.675.675 0 01-.674-.674v-2.363l.596.804c.245.33.636.526 1.046.526H8.87c.41 0 .802-.196 1.046-.526l.597-.804v2.363zm0-6.129v1.504l-1.665 2.245H5.708l-1.665-2.245v-3.129l.596.804c.245.33.636.527 1.046.527H8.87c.41 0 .802-.197 1.046-.527l.597-.803v1.624zm0-3.886l-1.665 2.244H5.708l-1.665-2.244v-3.13l.596.805c.245.33.636.526 1.046.526H8.87c.41 0 .802-.197 1.046-.526l.597-.804v3.129zm1.347 2.972v-1.411l5.678-1.775.413 1.283-6.09 1.904zm0-2.823v-4.825l3.727.498c.427.057.788.358.92.768l.617 1.914-5.264 1.645zm22.282 2.823l-6.091-1.903.413-1.282 5.678 1.774v1.411zm0-2.823l-5.264-1.645.617-1.914c.132-.41.493-.711.92-.768l3.727-.498v4.825zm7.816 9.866a.674.674 0 01-.674.674h-5.12a.674.674 0 01-.675-.674v-2.363l.597.804c.244.33.635.526 1.046.526h3.184c.41 0 .801-.196 1.046-.526l.596-.804v2.363zm0-4.625l-1.665 2.245h-3.139l-1.665-2.245v-3.128l.597.803c.244.33.635.527 1.046.527h3.184c.41 0 .801-.197 1.046-.527l.596-.803v3.128zm0-5.39l-1.665 2.244h-3.139l-1.665-2.244v-3.13l.597.805c.244.33.635.526 1.046.526h3.184c.41 0 .801-.197 1.046-.526l.596-.804v3.129zm-2.435-6.201h1.761c.429-.002.729.395.674.81l-1.665 2.244h-3.139L35.85 29.06l1.977-.264a2.47 2.47 0 001.695-1.033zm-.898-3.215H31.67a.225.225 0 01-.224-.225v-2.189c0-.123.1-.224.224-.224h6.953v2.638zm-4.517-10.088c.619 0 1.123.504 1.123 1.123v1.848h-3.182a.674.674 0 100 1.347h5.453c.619 0 1.123.504 1.123 1.123v.661H31.67c-.866 0-1.572.706-1.572 1.572v2.19c0 .866.706 1.572 1.573 1.572h6.953v.451c0 .56-.42 1.04-.975 1.113l-2.903.388h-.005l-4.505.602a2.482 2.482 0 00-2.024 1.69l-.827 2.564-.001.003v.002l-1.118 3.465a1.12 1.12 0 01-1.069.779h-4.394a1.12 1.12 0 01-1.069-.779l-1.117-3.465v-.002l-.001-.002-.827-2.564a2.483 2.483 0 00-2.025-1.691l-4.505-.602h-.005l-2.903-.388a1.127 1.127 0 01-.974-1.113v-.452h6.953c.867 0 1.572-.705 1.572-1.572v-2.189c0-.867-.705-1.572-1.572-1.572H7.377v-.66c0-.62.504-1.124 1.123-1.124h24.012a.674.674 0 100-1.347H10.77v-1.848c0-.62.504-1.123 1.123-1.123h22.214zm9.827-11.673h-9.927c-.885 0-1.67.563-1.956 1.4l-3.044 8.925h-1.52l3.203-9.39a3.503 3.503 0 013.317-2.373h9.927a.72.72 0 010 1.438z" fill="#fff"/></svg>