<svg width="36" height="50" fill="none" xmlns="http://www.w3.org/2000/svg"><path d="M31.162 44.531a7.34 7.34 0 00.819-4.336L30.1 24.22H2.71L.833 40.195a7.34 7.34 0 00.819 4.336h29.51z" fill="#11B687"/><path d="M16.406 26.716l-4.633 6.95a4.962 4.962 0 00-.835 2.761 4.985 4.985 0 004.978 4.98h.98a4.985 4.985 0 004.979-4.98c0-.986-.29-1.941-.836-2.761l-4.633-6.95zm.49 13.128h-.98a3.42 3.42 0 01-3.416-3.417c0-.677.198-1.332.573-1.895l3.333-4.998 3.333 4.998a3.42 3.42 0 01-2.843 5.312z" fill="#fff"/><path d="M30.698 22.609a10.943 10.943 0 005.24-9.328C35.938 7.25 31.03 2.344 25 2.344h-1.706a2.34 2.34 0 00-2.2-1.563h-9.375a2.347 2.347 0 00-2.344 2.344V6.25a2.34 2.34 0 001.526 2.188 12.508 12.508 0 01-1.253 4.886 8.162 8.162 0 00-7.284 7.164L.056 40.104a8.069 8.069 0 00-.056.954c0 4.5 3.66 8.16 8.16 8.16h16.49c4.502 0 8.163-3.66 8.163-8.16 0-.319-.02-.64-.057-.953l-2.058-17.496zM20.335 8.594a14.14 14.14 0 001.09 4.687H11.388a14.127 14.127 0 001.09-4.687h7.858zm2.83 4.731a12.483 12.483 0 01-1.253-4.886 2.342 2.342 0 001.382-1.407H25a6.257 6.257 0 016.25 6.25 6.187 6.187 0 01-1.723 4.292 8.162 8.162 0 00-6.362-4.249zm11.21-.044a9.378 9.378 0 01-3.881 7.587l-.045-.379a8.23 8.23 0 00-.284-1.365 7.745 7.745 0 002.648-5.843c0-4.308-3.505-7.812-7.813-7.812h-1.563V3.906H25c5.17 0 9.375 4.206 9.375 9.375zM10.937 3.125c0-.43.351-.781.782-.781h.781v3.125h1.563V2.344h1.562v3.125h1.563V2.344h1.562v3.125h1.563V2.344h.78c.431 0 .782.35.782.781V6.25c0 .43-.35.781-.781.781h-9.375a.783.783 0 01-.781-.781V3.125zm13.715 44.531H8.16a6.606 6.606 0 01-6.553-7.37l2.308-19.615a6.6 6.6 0 016.553-5.827h11.875a6.6 6.6 0 016.553 5.827l2.308 19.617a6.606 6.606 0 01-6.553 7.369z" fill="#fff"/><path d="M11.719 16.406h-1.25a5.036 5.036 0 00-5.002 4.448l-.201 1.71 1.551.183.202-1.711a3.475 3.475 0 013.45-3.067h1.25v-1.563zM4.161 31.95l.184-1.562 1.552.183-.184 1.563-1.552-.183zM3.16 40.472a5.072 5.072 0 00-.019.997l1.558-.125a3.49 3.49 0 01.012-.69l.82-6.969-1.552-.182-.82 6.969zm24.114-6.836l1.552-.183.183 1.552-1.552.182-.183-1.551zm-.725-6.216l1.552-.183.182 1.552-1.551.183-.183-1.552zm.359 3.113l1.552-.183.183 1.552-1.552.183-.183-1.552zM13.281 16.406h1.563v1.563H13.28v-1.563z" fill="#fff"/></svg>