<svg width="26" height="49" fill="none" xmlns="http://www.w3.org/2000/svg"><path d="M16.625 9.375h5.063l3.75-4.688L21.688 0H.218v9.375h8.595v6.25H3.75L0 20.313 3.75 25h5.063v16.868h1.562V25h4.688v15.317h1.562V25h8.594v-9.375h-8.594v-6.25zM1.781 1.562h19.157l2.5 3.125-2.5 3.125H1.78v-6.25zm8.594 7.813h4.688v6.25h-4.688v-6.25zm13.281 14.063H4.5L2 20.313l2.5-3.125h19.156v6.25z" fill="#fff"/><path d="M11.938 26.563H13.5v1.562h-1.563v-1.563zm0 3.125H13.5v1.562h-1.563v-1.563zm0 3.125H13.5v1.562h-1.563v-1.563zm8.593-12.5h1.563v1.562H20.53v-1.563zm-3.125 0h1.563v1.562h-1.563v-1.563zm-3.125 0h1.563v1.562H14.28v-1.563zM6.469 3.125H8.03v1.563H6.47V3.125zm3.125 0h1.562v1.563H9.594V3.125z" fill="#fff"/><path d="M24.977 45.207a6.802 6.802 0 00-6.79-6.145c-2.53 0-4.842 1.43-6.014 3.601a6.967 6.967 0 00-4.923-2.038 6.987 6.987 0 00-6.922 6.11l-.213 1.703H25.3l-.324-3.231z" fill="#11B687"/><path d="M4.125 44.531h1.563v1.563H4.125V44.53zm3.125-1.562h1.563v1.562H7.25V42.97zm7.813 1.562h1.562v1.563h-1.563V44.53zm2.343-2.343h1.563v1.562h-1.563v-1.563zm3.125 1.562h1.563v1.563H20.53V43.75zM3.344 3.125h1.562v1.563H3.344V3.125z" fill="#fff"/></svg>