<svg width="62" height="62" viewBox="0 0 62 62" xmlns="http://www.w3.org/2000/svg">
<g clip-path="url(#clip0)">
<path d="M38.0124 25.2408L28.6969 34.0395L24.2261 29.44C23.7305 28.9298 22.9144 28.9182 22.4046 29.4138C21.8944 29.9099 21.8828 30.7255 22.3784 31.2358L27.7405 36.7402C28.2386 37.2414 29.0437 37.2586 29.5625 36.7786L39.8087 27.1143C40.0576 26.8796 40.2029 26.5556 40.2125 26.2139C40.2221 25.8722 40.0954 25.5406 39.8602 25.2923C39.3616 24.7739 38.5394 24.7512 38.0124 25.2408Z" fill="#3082A5"/>
<path d="M31.1 11.6998C20.4535 11.6998 11.7966 20.3567 11.7966 31.0032C11.7966 41.6501 20.4535 50.307 31.1 50.307C41.7469 50.307 50.4038 41.6501 50.4038 31.0032C50.4038 20.3567 41.7469 11.6998 31.1 11.6998ZM31.1 47.7229C21.8748 47.7229 14.3808 40.2157 14.3808 31.0032C14.3808 21.7906 21.8748 14.284 31.1 14.284C40.3342 14.284 47.8197 21.7694 47.8197 31.0032C47.8197 40.2369 40.3342 47.7229 31.1 47.7229Z" fill="#3082A5"/>
<path d="M57.6651 23.8968L58.0916 16.2347C58.1213 15.7204 57.8417 15.2374 57.3809 15.0072L50.5587 11.5575L47.109 4.73524C46.8743 4.27847 46.3943 4.00038 45.8815 4.0246L38.2063 4.43847L31.8105 0.212994C31.3795 -0.0711607 30.8208 -0.0711607 30.3892 0.212994L23.9935 4.43847L16.3319 4.01198C15.8171 3.9817 15.3346 4.26131 15.1045 4.72262L11.6542 11.5449L4.83249 14.9946C4.37522 15.2288 4.09762 15.7088 4.12185 16.2221L4.54783 23.8841L0.322857 30.2799C0.0387025 30.7109 0.0387025 31.2696 0.322857 31.7012L4.53521 38.1095L4.10873 45.7716C4.07895 46.2859 4.35806 46.7689 4.81937 46.9991L11.6416 50.4488L15.0913 57.271C15.3255 57.7283 15.8055 58.0059 16.3188 57.9817L23.9809 57.5552L30.3766 61.7802C30.8051 62.0734 31.3694 62.0734 31.7979 61.7802L38.1937 57.5552L45.8557 57.9817C46.37 58.0115 46.8526 57.7318 47.0832 57.271L50.5329 50.4488L57.3552 46.9991C57.8119 46.7644 58.09 46.2849 58.0658 45.7716L57.6393 38.1095L61.8643 31.7138C62.1485 31.2828 62.1485 30.7235 61.8643 30.2925L57.6651 23.8968ZM55.2616 37.0501C55.1041 37.2813 55.031 37.5594 55.0552 37.8385L55.4554 45.0867L49.0082 48.3426C48.7624 48.4658 48.563 48.6656 48.4399 48.9114L45.1835 55.3587L37.9352 54.9584C37.6577 54.9483 37.3836 55.02 37.1469 55.1649L31.0999 59.1577L25.0534 55.1649C24.8434 55.023 24.5961 54.9463 24.3428 54.9453H24.2782L17.0294 55.3461L13.7735 48.8983C13.6504 48.6525 13.451 48.4532 13.2047 48.33L6.74435 45.0867L7.14509 37.8385C7.15519 37.5609 7.08301 37.2868 6.93816 37.0501L2.94586 31.0031L6.93816 24.9561C7.09614 24.7255 7.16932 24.4469 7.14509 24.1683L6.74435 16.9196L13.1921 13.6637C13.4379 13.5405 13.6372 13.3411 13.7604 13.0953L17.0163 6.64761L24.265 7.04835C24.5421 7.05794 24.8162 6.98627 25.0534 6.84142L31.0999 2.84912L37.1469 6.84142C37.378 6.99939 37.6566 7.07258 37.9352 7.04835L45.1835 6.64761L48.4399 13.0953C48.563 13.3411 48.7624 13.5405 49.0082 13.6637L55.4554 16.9196L55.0552 24.1683C55.0451 24.4454 55.1173 24.7194 55.2616 24.9561L59.2544 31.0031L55.2616 37.0501Z" fill="#3082A5"/>
</g>
<defs>
<clipPath id="clip0">
<rect width="62" height="62" fill="white"/>
</clipPath>
</defs>
</svg>
