<svg width="68" height="68" viewBox="0 0 68 68" xmlns="http://www.w3.org/2000/svg">
<g clip-path="url(#clip0)">
<path d="M50.2917 32.9C50.2928 31.7873 49.785 30.7357 48.9135 30.0443C49.8327 28.9613 50.0389 27.4431 49.4422 26.1544C48.8449 24.8651 47.5533 24.0406 46.1333 24.0418H38.0311L38.3658 23.1563C38.8927 21.7689 39.1617 20.2972 39.1606 18.8133V18.6814C39.16 17.553 38.7027 16.4729 37.8922 15.6874C37.0823 14.9019 35.9888 14.4777 34.8611 14.5114C32.5783 14.6329 30.7957 16.5293 30.8155 18.815C30.8155 19.8974 29.2944 22.3848 28.062 24.0435H18.9244C18.3492 24.0435 17.8833 24.5095 17.8833 25.0847V45.9251C17.8833 46.5003 18.3492 46.9663 18.9244 46.9663H44.503C45.8184 46.9669 47.0322 46.2586 47.6788 45.1135C48.3249 43.9677 48.3046 42.5628 47.6242 41.4368C48.6701 40.9685 49.4347 40.0348 49.688 38.9169C49.9419 37.7991 49.6543 36.6272 48.9129 35.7533C49.7839 35.0625 50.2917 34.0114 50.2917 32.9ZM19.9656 26.1265H27.5351V44.884H19.9656V26.1265ZM46.6452 34.464H46.1328C45.5576 34.464 45.0916 34.93 45.0916 35.5052C45.0916 36.0804 45.5576 36.5464 46.1328 36.5464C46.9962 36.5464 47.6963 37.2465 47.6963 38.1105C47.6963 38.9739 46.9962 39.674 46.1328 39.674H44.503C43.9278 39.674 43.4618 40.1406 43.4618 40.7152C43.4618 41.2904 43.9278 41.7564 44.503 41.7564C45.3664 41.7564 46.0665 42.4565 46.0665 43.3204C46.0665 44.1838 45.3664 44.884 44.503 44.884H29.6174V25.4374C30.5 24.2701 32.8978 20.9037 32.8978 18.8156C32.8705 17.6535 33.7612 16.6751 34.9203 16.5926C35.4863 16.5752 36.0353 16.7878 36.442 17.1818C36.8481 17.5757 37.0776 18.1178 37.0776 18.6837V18.8156C37.0788 20.0473 36.8551 21.2692 36.4182 22.4208L35.5502 24.7187C35.4293 25.0388 35.4729 25.3973 35.6675 25.6791C35.8616 25.9603 36.1817 26.1282 36.5239 26.1288H46.1328C46.9962 26.1288 47.6963 26.8289 47.6963 27.6923C47.6963 28.5563 46.9962 29.2564 46.1328 29.2564C45.5576 29.2564 45.0916 29.7224 45.0916 30.2976C45.0916 30.8728 45.5576 31.3388 46.1328 31.3388H46.6452C47.5092 31.3388 48.2093 32.0389 48.2093 32.9029C48.2093 33.7668 47.5092 34.4669 46.6452 34.4669V34.464ZM23.0334 38.8466C21.5367 38.8466 20.3241 40.0598 20.3241 41.5559C20.3241 43.0526 21.5367 44.2652 23.0334 44.2652C24.5295 44.2652 25.7426 43.0526 25.7426 41.5559C25.7409 40.0604 24.5289 38.8484 23.0334 38.8466ZM23.0334 42.1822C22.6871 42.1822 22.4059 41.9016 22.4064 41.5553C22.4064 41.209 22.6871 40.9278 23.0334 40.9284C23.3802 40.9284 23.6609 41.2096 23.6603 41.5559C23.6597 41.9022 23.3791 42.1822 23.0334 42.1822ZM66.3579 31.5212C67.3195 30.0111 67.6361 28.1792 67.2375 26.4338C66.8395 24.6891 65.7594 23.1755 64.2383 22.2319C62.7184 21.2837 61.8806 19.5448 62.0868 17.7651C62.2977 15.9878 61.7882 14.1994 60.6721 12.8003C59.5559 11.4007 57.9262 10.5059 56.1465 10.3153C54.3657 10.1213 52.8568 8.91916 52.27 7.22666C51.6884 5.53358 50.4538 4.1438 48.8409 3.36698C47.228 2.59074 45.3711 2.49139 43.6849 3.09274C41.9959 3.68944 40.114 3.26007 38.8515 1.98939C37.593 0.716391 35.8773 0 34.0872 0C32.2971 0 30.5813 0.716391 29.3228 1.98939C28.0603 3.26065 26.1778 3.69002 24.4894 3.09274C22.8027 2.49197 20.9469 2.59133 19.334 3.36756C17.7217 4.14438 16.4865 5.53416 15.9049 7.22666C15.3192 8.91974 13.8098 10.123 12.0289 10.3171C10.2487 10.5076 8.61897 11.4024 7.50342 12.8021C6.38729 14.2017 5.87775 15.9895 6.08807 17.7674C6.29491 19.5465 5.45709 21.2855 3.93774 22.2337C2.41664 23.1773 1.33654 24.6902 0.93854 26.435C0.539964 28.1798 0.856617 30.0111 1.81703 31.5212C2.77513 33.0347 2.77513 34.9649 1.81703 36.4784C0.856036 37.9891 0.539383 39.821 0.937378 41.5658C1.33595 43.3112 2.41606 44.8247 3.93658 45.7683C5.45709 46.7165 6.29433 48.4555 6.08807 50.2345C5.87775 52.0124 6.38729 53.8002 7.50342 55.1999C8.61897 56.5995 10.2487 57.4943 12.0289 57.6849C13.8092 57.8784 15.3187 59.0811 15.9049 60.773C16.4865 62.466 17.7217 63.8558 19.3346 64.6326C20.9475 65.4095 22.8039 65.5082 24.4905 64.9075C26.179 64.3096 28.0615 64.739 29.324 66.0108C30.5825 67.2838 32.2982 68.0002 34.0883 68.0002C35.8784 68.0002 37.5942 67.2838 38.8526 66.0108C40.1152 64.7396 41.9971 64.3102 43.6861 64.9075C45.3722 65.5082 47.2286 65.4089 48.8409 64.6321C50.4538 63.8558 51.6884 62.466 52.27 60.773C52.8563 59.0805 54.3657 57.8772 56.1465 57.6831C57.9262 57.4926 59.5559 56.5978 60.6721 55.1981C61.7882 53.7985 62.2977 52.0107 62.0868 50.2328C61.8806 48.4537 62.7178 46.7147 64.2378 45.7665C65.7589 44.823 66.839 43.3094 67.2375 41.5646C67.6361 39.8193 67.3195 37.9873 66.3579 36.4767C65.4009 34.9637 65.4009 33.0347 66.3579 31.5212ZM64.6015 37.5963C65.2638 38.6375 65.4823 39.9 65.2075 41.1027C64.9332 42.3054 64.1884 43.3483 63.1402 43.9991C60.9347 45.3749 59.7192 47.8983 60.019 50.4803C60.1643 51.7057 59.8128 52.938 59.0435 53.9025C58.2742 54.867 57.1511 55.4834 55.9246 55.6147C53.3402 55.8971 51.1504 57.643 50.3004 60.0996C49.8995 61.2662 49.0483 62.2243 47.9368 62.7595C46.8253 63.2946 45.5459 63.3631 44.3839 62.9489C41.9332 62.0814 39.2024 62.7048 37.3705 64.5496C36.5036 65.4269 35.3212 65.9208 34.0872 65.9208C32.8537 65.9208 31.6713 65.4269 30.8039 64.5496C28.9731 62.7037 26.2411 62.0802 23.7904 62.9489C22.6284 63.3631 21.349 63.2946 20.2375 62.7595C19.126 62.2243 18.2749 61.2662 17.8745 60.0996C17.0245 57.643 14.8341 55.8971 12.2503 55.6147C11.0232 55.4834 9.90011 54.867 9.13085 53.9025C8.36158 52.938 8.01065 51.7057 8.1559 50.4803C8.45571 47.8983 7.24081 45.3743 5.03469 43.9991C3.98596 43.3483 3.24168 42.3054 2.96686 41.1027C2.69262 39.9 2.91108 38.6375 3.57344 37.5963C4.96381 35.4006 4.96381 32.5996 3.57344 30.4033C2.91108 29.3627 2.69262 28.1002 2.96686 26.8969C3.24168 25.6942 3.98596 24.6513 5.03469 24.0011C7.24022 22.6253 8.45571 20.1019 8.15648 17.5199C8.01123 16.2946 8.36216 15.0622 9.13143 14.0977C9.90069 13.1327 11.0238 12.5162 12.2509 12.3849C14.8347 12.1031 17.0251 10.3566 17.8751 7.90006C18.2754 6.73338 19.1266 5.77587 20.2381 5.24017C21.3496 4.70506 22.629 4.63708 23.791 5.05134C26.2417 5.91821 28.9731 5.29537 30.8044 3.45065C31.6719 2.57331 32.8543 2.07945 34.0877 2.07945C35.3218 2.07945 36.5042 2.57331 37.3711 3.45065C39.203 5.29537 41.9338 5.91821 44.3845 5.05134C45.5465 4.63708 46.8259 4.70506 47.9374 5.24017C49.0489 5.77587 49.9001 6.73338 50.301 7.90006C51.151 10.3566 53.3408 12.1031 55.9252 12.3849C57.1517 12.5162 58.2748 13.1327 59.0441 14.0977C59.8133 15.0622 60.1648 16.2946 60.0196 17.5199C59.7192 20.1019 60.9347 22.6259 63.1408 24.0011C64.189 24.6513 64.9338 25.6942 65.2081 26.8969C65.4829 28.1002 65.2644 29.3627 64.6021 30.4033C63.2111 32.5996 63.2111 35.4001 64.6015 37.5963ZM34.0877 8.67222C20.0992 8.67222 8.76016 20.0125 8.76016 34.0004C8.76016 47.9883 20.1004 59.328 34.0883 59.328C48.0768 59.328 59.4159 47.9883 59.4159 33.9998C59.4002 20.0183 48.0693 8.68791 34.0877 8.67222ZM34.0877 57.2462C21.2496 57.2456 10.8425 46.8385 10.8425 34.0004C10.8425 21.1623 21.2496 10.7552 34.0877 10.7552C46.9258 10.7546 57.3336 21.1617 57.3336 33.9998C57.319 46.8321 46.92 57.2311 34.0877 57.2456V57.2462Z" fill="#3082A5"/>
</g>
<defs>
<clipPath id="clip0">
<rect width="68" height="68" fill="white"/>
</clipPath>
</defs>
</svg>
