<svg width="60" height="59" viewBox="0 0 60 59" xmlns="http://www.w3.org/2000/svg">
<g clip-path="url(#clip0)">
<path d="M30.0107 0.00610383C18.0069 0.00438336 7.15816 7.04026 2.43352 17.8912L2.0596 18.0131L2.20457 18.4407C-4.01613 33.5276 3.37845 50.7167 18.721 56.8338C22.3044 58.2625 26.135 58.9959 30.0018 58.9938C46.5668 58.9963 59.9975 45.7933 60 29.5044C60.0025 13.2154 46.5758 0.00843876 30.0107 0.00610383ZM53.5374 44.3703L51.9972 42.8567V39.3312C51.9989 39.1791 51.9647 39.0287 51.8972 38.8918L47.998 31.2342V27.5337C47.998 27.2051 47.8312 26.8981 47.5531 26.7157L44.5537 24.7495C44.3187 24.5951 44.0281 24.5458 43.7539 24.6138L40.0807 25.5163L33.911 22.913L33.0621 17.0653L35.4146 14.753H40.4646L42.1642 17.2649C42.3177 17.4908 42.5595 17.6443 42.8321 17.6887L48.8309 18.6718C48.9916 18.6983 49.1563 18.6854 49.3108 18.6344L54.8356 16.8235C59.4695 25.5678 58.9739 36.085 53.5374 44.3703ZM49.4137 9.69385L47.7881 10.7596L43.256 9.86787L40.3156 8.90538C40.1357 8.84529 39.942 8.83767 39.7577 8.88375L36.0405 9.79708L34.4109 9.26324L35.6186 6.888H38.9999C39.155 6.88813 39.308 6.85286 39.4468 6.78477L42.9061 5.08396C45.2883 6.30673 47.4799 7.85909 49.4137 9.69385ZM19.0511 4.16769L21.4506 5.74069C21.5685 5.81787 21.7018 5.86948 21.8415 5.89209L26.6865 6.68646L26.2136 8.07759L23.6891 8.90637C23.463 8.98035 23.2712 9.13126 23.1482 9.33206L20.2768 14.0373L15.6648 16.7586L8.86618 17.7132C8.37341 17.7817 8.00699 18.1962 8.00636 18.6855V21.6349C8.00636 21.8957 8.11184 22.1457 8.2993 22.33L10.0059 24.0082V25.6972L5.84681 22.97L4.33812 18.5194C7.20853 12.0701 12.4696 6.93814 19.0511 4.16769ZM16.2047 36.4015L11.6856 35.5118L10.0059 32.2173V29.907L13.7312 26.2438L15.1099 28.9563C15.2792 29.2896 15.6258 29.5001 16.0047 29.5H22.4374L25.1458 33.9388C25.3265 34.2346 25.6517 34.4155 26.0026 34.4156H28.782L28.0822 37.8634L24.297 41.5856C24.1091 41.7698 24.0034 42.0197 24.003 42.2806V44.7384L20.4038 47.3929C20.1521 47.5786 20.0039 47.87 20.0039 48.1794V51.7305L18.7601 51.3254L17.0045 47.0075V37.365C17.0046 36.8978 16.6702 36.4949 16.2047 36.4015ZM13.1993 51.5148C3.77262 44.5605 -0.213927 32.5447 3.22836 21.4619L4.05918 23.9119C4.12917 24.1192 4.26739 24.2977 4.4521 24.4191L9.43606 27.6861L8.2993 28.8049C8.11184 28.9892 8.00636 29.2392 8.00636 29.5V32.4493C8.00624 32.6019 8.0421 32.7523 8.11134 32.8888L10.1109 36.8213C10.2494 37.0929 10.5077 37.2863 10.8108 37.3453L15.0099 38.1702V47.1963C15.0098 47.3211 15.0339 47.445 15.0809 47.561L17.0805 52.4767C17.1899 52.7452 17.4142 52.9527 17.6933 53.0439L20.6927 54.0271C20.7929 54.0605 20.8979 54.0777 21.0037 54.0782C21.5558 54.0782 22.0034 53.638 22.0034 53.095V48.671L25.6027 46.0165C25.8544 45.8308 26.0026 45.5395 26.0026 45.23V42.6876L29.7088 39.0432C29.8482 38.9059 29.9432 38.731 29.9818 38.5408L30.9816 33.6252C31.0898 33.0927 30.7386 32.5748 30.1971 32.4684C30.1327 32.4557 30.0674 32.4493 30.0018 32.4493H26.5685L23.8601 28.0105C23.6793 27.7147 23.3542 27.5338 23.0032 27.5337H16.6226L14.9049 24.1449C14.7611 23.862 14.4876 23.6644 14.1701 23.614C13.8526 23.56 13.5286 23.663 13.3033 23.8892L12.0055 25.1604V23.6012C12.0055 23.3404 11.9 23.0905 11.7126 22.9061L10.0059 21.2279V19.5379L16.1467 18.6757C16.2785 18.6569 16.4054 18.6124 16.5196 18.545L21.5185 15.5956C21.6588 15.5127 21.7762 15.3972 21.8605 15.2593L24.6699 10.6554L27.3183 9.78627C27.6174 9.6898 27.8521 9.45913 27.9502 9.16493L28.95 6.21554C29.1232 5.70002 28.8386 5.14393 28.3144 4.97361C28.266 4.95788 28.2164 4.94583 28.1662 4.93748L22.3794 3.98876L21.3626 3.3222C27.6541 1.3085 34.4685 1.55773 40.5906 4.02513L38.764 4.92175H35.0007C34.6199 4.91966 34.2711 5.13054 34.1009 5.46542L32.1013 9.39793C31.855 9.88384 32.0558 10.4742 32.55 10.7164C32.5921 10.7371 32.6356 10.7548 32.6802 10.7694L35.6796 11.7525C35.8596 11.8126 36.0533 11.8202 36.2375 11.7742L39.9547 10.8608L42.6781 11.7525C42.7171 11.7663 42.7572 11.7769 42.7981 11.784L47.7971 12.7671C48.057 12.8192 48.3275 12.7669 48.5479 12.6216L50.8234 11.1292C51.9433 12.3558 52.9497 13.6781 53.8308 15.0804L48.9118 16.6927L43.5859 15.8197L41.8263 13.2243C41.6418 12.9523 41.3319 12.7884 40.9995 12.7868H35.0007C34.7355 12.7868 34.4813 12.8905 34.2939 13.0748L31.2945 16.0242C31.0718 16.2431 30.967 16.5524 31.0116 16.8589L32.0114 23.7408C32.0617 24.0811 32.2892 24.3707 32.6112 24.5047L39.6098 27.4541C39.8102 27.5395 40.0339 27.5571 40.2456 27.5042L43.8159 26.6263L45.9984 28.0597V31.4662C45.9967 31.6184 46.0309 31.7688 46.0984 31.9057L49.9976 39.5633V43.2638C49.9976 43.5245 50.1031 43.7745 50.2905 43.9588L52.3821 46.0165C43.1062 58.1745 25.5633 60.6363 13.1993 51.5148Z" fill="#3082A5"/>
</g>
<defs>
<clipPath id="clip0">
<rect width="60" height="59" fill="white"/>
</clipPath>
</defs>
</svg>
