<svg width="155" height="59" viewBox="0 0 155 59" fill="none" xmlns="http://www.w3.org/2000/svg">
<path d="M49.7511 14.0689H41.8831V11.8544C41.8831 10.8193 41.7789 10.1574 41.5803 9.87197C41.381 9.58985 41.0435 9.44865 40.5703 9.44865C40.0614 9.44865 39.6766 9.63992 39.4156 10.0227C39.1557 10.4021 39.0242 10.9824 39.0242 11.7604C39.0242 12.7576 39.1687 13.5135 39.463 14.0185C39.7457 14.5237 40.5496 15.129 41.8616 15.8473C45.6351 17.9047 48.0057 19.5924 48.9888 20.9129C49.9711 22.2302 50.4592 24.36 50.4592 27.2927C50.4592 29.4255 50.1843 30.9969 49.641 32.007C49.0987 33.0169 48.0466 33.87 46.493 34.5506C44.9343 35.2315 43.1274 35.5795 41.0585 35.5795C38.7913 35.5795 36.8531 35.1812 35.2523 34.3938C33.6438 33.6034 32.5916 32.5998 32.0987 31.3829C31.6028 30.1595 31.3549 28.428 31.3549 26.1823V24.225H39.2235L39.2249 27.8666C39.2249 28.9895 39.3339 29.7109 39.5526 30.031C39.7801 30.3476 40.1715 30.5107 40.7352 30.5107C41.299 30.5107 41.7183 30.31 41.9922 29.8992C42.2673 29.4945 42.4053 28.8893 42.4053 28.0894C42.4053 26.3266 42.1443 25.1723 41.6215 24.6297C41.0857 24.087 39.7596 23.1838 37.6564 21.9165C35.5475 20.6274 34.1517 19.6991 33.4647 19.1186C32.7844 18.5385 32.2152 17.7354 31.768 16.7129C31.3139 15.6904 31.0949 14.3857 31.0949 12.7953C31.0949 10.5025 31.4111 8.8245 32.0504 7.76416C32.6819 6.70407 33.7127 5.8759 35.1357 5.27699C36.5579 4.68419 38.2743 4.37988 40.289 4.37988C42.4945 4.37988 44.3686 4.70929 45.9173 5.35841C47.4696 6.01709 48.4932 6.8357 49.0036 7.83323C49.5042 8.82451 49.7511 10.5089 49.7511 12.8894V14.0689ZM60.4619 5.01041V11.7414C61.1553 11.1455 61.912 10.7064 62.7236 10.4085C63.5334 10.1105 64.4063 9.96614 65.3346 9.96614C66.7567 9.96614 67.9662 10.3018 68.9624 10.9637C69.9669 11.6318 70.5784 12.397 70.7974 13.269C71.0182 14.1379 71.1271 15.7218 71.1271 18.0271V34.949H62.9985L62.9975 17.6791C62.9985 16.2455 62.9155 15.3297 62.7636 14.9188C62.6127 14.5173 62.2622 14.3102 61.7274 14.3102C61.2318 14.3102 60.8962 14.5237 60.7229 14.9407C60.5439 15.3581 60.4619 16.189 60.4619 17.4405V34.949H52.3256V5.01041H60.4619ZM18.8477 10.3958L18.7104 12.6543C19.2949 11.7541 20.016 11.0766 20.8696 10.6279C21.7299 10.1795 22.7119 9.95366 23.8264 9.95366C25.2224 9.95366 26.3628 10.2546 27.2502 10.8632C28.138 11.4624 28.7093 12.2275 28.9637 13.1404C29.2181 14.0626 29.3421 15.5962 29.3421 17.7386V34.949H21.207V17.9488C21.206 16.2549 21.1438 15.2263 21.0198 14.8531C20.9023 14.4891 20.5657 14.2979 20.016 14.2979C19.4393 14.2979 19.0739 14.511 18.9304 14.9407C18.7786 15.3642 18.7097 16.5029 18.7097 18.3504V34.949H10.5672V10.3958H18.8477ZM82.8555 30.9186C83.4081 30.9186 83.4929 30.8056 83.5211 30.7679C83.588 30.6802 83.7921 30.31 83.7902 28.9989L83.7911 18.0365C83.7911 16.4526 83.5918 16.0417 83.5301 15.9538C83.5042 15.9163 83.424 15.8034 82.8853 15.8034H82.8565L82.6981 15.8097C82.6906 15.8097 82.6154 15.8159 82.6154 15.8159L82.5556 15.822C82.5442 15.8252 82.4884 15.838 82.4884 15.838L82.44 15.8442L82.3943 15.8566L82.3654 15.8628L82.3096 15.8879C82.3096 15.8879 82.2758 15.9069 82.2724 15.9101L82.2453 15.9319C82.2453 15.9319 82.2276 15.9477 82.2229 15.9509C82.2181 15.9538 82.2005 15.979 82.2005 15.979C82.1344 16.0605 81.9192 16.4589 81.9192 18.0365V28.7605C81.9192 30.1751 82.1223 30.6017 82.209 30.721L82.2162 30.7303C82.2658 30.7994 82.3485 30.9186 82.8555 30.9186ZM82.5949 10.4993C82.6832 10.4993 82.7718 10.4993 82.8603 10.4993L82.9785 10.5025C83.0028 10.5025 83.0271 10.5025 83.0515 10.5025H83.0755C83.1258 10.5057 83.1761 10.5057 83.2264 10.5057L83.302 10.5089C83.3299 10.5119 83.3578 10.5119 83.3858 10.5119L83.45 10.5151C83.4922 10.5183 83.5332 10.5183 83.574 10.5212L83.7232 10.5307C83.7821 10.5338 83.8333 10.537 83.8853 10.5402H83.9086C83.956 10.5434 84.0007 10.5496 84.0455 10.5526L84.2078 10.5652C84.2533 10.5684 84.2915 10.5716 84.3289 10.5748L84.3682 10.581C84.4045 10.5842 84.4493 10.5871 84.4938 10.5903L84.5823 10.6029C84.6152 10.6061 84.6476 10.6093 84.6803 10.6123C84.7361 10.6185 84.79 10.6248 84.8452 10.6343C84.8919 10.6374 84.9384 10.6437 84.9851 10.653C85.014 10.6562 85.0419 10.6592 85.0698 10.6624C85.0912 10.6656 85.1444 10.675 85.1444 10.675L85.4517 10.7221L85.5842 10.7473C85.6355 10.7565 85.6877 10.766 85.7415 10.7786C85.7863 10.7848 85.8311 10.7942 85.8759 10.8037L85.9253 10.8132C85.9561 10.8193 85.9875 10.8255 86.0194 10.8319C86.0194 10.8319 86.1368 10.8601 86.1637 10.8664C86.2076 10.8759 86.2608 10.8882 86.3127 10.901C86.3575 10.9101 86.4013 10.9228 86.4442 10.9354C86.4889 10.9447 86.5422 10.9605 86.5942 10.9731L86.7146 11.0076C86.7694 11.0232 86.8226 11.039 86.8758 11.0545L86.9057 11.0609C86.9315 11.0703 86.9575 11.0766 86.9845 11.0859C87.0109 11.0921 87.0436 11.1049 87.077 11.114C87.0984 11.1235 87.1208 11.1298 87.1432 11.1362L87.2419 11.1676C87.3136 11.1925 87.3873 11.2207 87.46 11.2458L87.4983 11.2616C88.8931 11.7727 89.9891 12.4598 90.757 13.3003C91.5108 14.1189 92.043 14.994 92.3374 15.8942C92.6197 16.785 92.7567 18.0711 92.7567 19.8277L92.7557 25.6492C92.7557 27.8039 92.6282 29.4286 92.3757 30.4731C92.1148 31.5554 91.5491 32.5778 90.6936 33.5093C89.8381 34.441 88.7318 35.1373 87.4061 35.5795C86.1189 36.006 84.6152 36.2257 82.9366 36.2257H82.8555C82.8026 36.2257 82.7523 36.2226 82.7001 36.2226C82.6517 36.2226 82.6011 36.2226 82.5527 36.2194H82.5192C82.4706 36.2194 82.4222 36.2194 82.3728 36.2194L82.2321 36.2163C82.1733 36.2132 82.111 36.2132 82.0467 36.2099L81.9023 36.2068L81.8894 36.2036C81.8391 36.2005 81.7868 36.2005 81.7356 36.1974L81.5837 36.1913C81.5408 36.1881 81.4931 36.1849 81.4457 36.1819L81.2594 36.1691L81.1027 36.1598C81.0729 36.1568 81.0524 36.1536 81.0329 36.1536C81.0076 36.1504 80.9826 36.1504 80.9573 36.1473C80.9053 36.144 80.8531 36.1378 80.8019 36.1315C80.7535 36.1283 80.7048 36.1254 80.6565 36.119C80.6171 36.116 80.5792 36.1128 80.5409 36.1064L80.4467 36.097C80.414 36.0938 80.3816 36.0909 80.3488 36.0877C80.3089 36.0814 80.2576 36.0751 80.2073 36.0687L80.0579 36.0501C80.0136 36.0437 79.9707 36.0373 79.9268 36.0311C79.9268 36.0311 79.8095 36.0156 79.7821 36.0124C79.7545 36.006 79.5828 35.981 79.5828 35.981C79.5569 35.9747 79.5297 35.9715 79.5027 35.9652L79.4534 35.9591C79.4291 35.9529 79.405 35.9497 79.3807 35.9465L79.3647 35.9433L79.3489 35.9401C79.3323 35.9371 79.3145 35.9339 79.298 35.9307C79.2765 35.9278 79.2538 35.9215 79.2324 35.9183C79.2324 35.9183 79.1253 35.8964 79.0889 35.89C79.0406 35.8806 78.9993 35.8712 78.9604 35.8619C78.9156 35.8525 78.8663 35.8429 78.8169 35.8305L78.7991 35.8273C78.7657 35.8211 78.7323 35.8115 78.6994 35.8053L78.457 35.7457L78.4067 35.7301C78.338 35.7143 78.2708 35.6956 78.2036 35.6767C76.8601 35.2972 75.795 34.7076 75.041 33.9297C74.2901 33.1613 73.7448 32.217 73.4222 31.1225C73.1121 30.0623 72.9612 28.5284 72.9612 26.4364V20.342C72.9612 18.071 73.2463 16.2613 73.8101 14.9565C74.3922 13.6046 75.4529 12.5099 76.9607 11.6977C78.4376 10.901 80.3329 10.4993 82.5949 10.4993ZM103.793 19.7492H105.544L105.543 18.5634C105.543 17.0172 105.42 16.5247 105.365 16.3835C105.32 16.28 105.254 16.189 104.986 16.189C104.986 16.189 104.428 16.1922 104.412 16.1922C104.375 16.1922 104.339 16.1922 104.306 16.1954C104.29 16.1986 104.275 16.1986 104.261 16.2018C104.228 16.2048 104.196 16.2112 104.165 16.2141L104.161 16.2173C104.136 16.2204 104.112 16.2268 104.089 16.2331L104.083 16.2362C104.057 16.2426 104.038 16.2519 104.022 16.2581C104.018 16.2581 104.015 16.2613 104.011 16.2613C104.005 16.2645 104 16.2677 103.994 16.2707L103.981 16.2832L103.962 16.3304L103.941 16.3459C103.892 16.4902 103.793 16.9764 103.793 18.5634V19.7492ZM104.089 10.882C104.179 10.882 104.265 10.885 104.351 10.885H104.421C104.433 10.885 104.451 10.885 104.467 10.8882C104.542 10.8882 104.604 10.8914 104.668 10.8946C104.742 10.8946 104.818 10.8978 104.893 10.901C104.959 10.904 105.023 10.9072 105.087 10.9101L105.139 10.9133C105.195 10.9165 105.251 10.9196 105.306 10.9228C105.365 10.9259 105.423 10.9291 105.481 10.9354L105.699 10.9509L105.886 10.9699L105.952 10.976C106.003 10.9824 106.053 10.9854 106.104 10.9918C106.162 10.9982 106.22 11.0076 106.28 11.0137C106.352 11.0232 106.421 11.0326 106.491 11.042C106.491 11.042 106.62 11.0609 106.663 11.0671L106.856 11.0985L106.914 11.1079C106.957 11.114 107 11.1204 107.041 11.1298L107.075 11.1362C107.127 11.1455 107.181 11.1548 107.233 11.1676C107.29 11.177 107.347 11.1893 107.403 11.2021C107.458 11.2113 107.512 11.2239 107.566 11.2365L107.651 11.2552C107.687 11.2616 107.723 11.271 107.757 11.2803C107.823 11.2961 107.884 11.3117 107.945 11.3275C107.999 11.3401 108.054 11.3556 108.108 11.3714C108.145 11.3807 108.19 11.3934 108.234 11.406L108.439 11.4687C108.473 11.478 108.509 11.4906 108.544 11.5C108.568 11.5093 108.59 11.5156 108.614 11.5219L108.777 11.5782C108.835 11.5972 108.899 11.6223 108.964 11.6441L109.092 11.6913L109.104 11.6977C109.174 11.7258 109.233 11.7477 109.291 11.7727L109.331 11.7886C109.359 11.8011 109.387 11.8104 109.414 11.8231C109.482 11.8512 109.549 11.8826 109.615 11.9139L109.719 11.9611C109.817 12.0079 109.913 12.0552 110.008 12.1021C111.601 12.9271 112.735 14.0468 113.384 15.4237C114.015 16.7663 114.335 18.6483 114.335 21.0133V24.7206H103.793V29.3125C103.793 30.6738 103.941 31.0472 103.987 31.1318C103.987 31.1318 103.992 31.1381 103.999 31.1476C104.006 31.1539 104.028 31.179 104.032 31.1852C104.039 31.1884 104.067 31.2103 104.067 31.2103L104.098 31.229L104.113 31.2385L104.157 31.2572H104.166L104.188 31.2666C104.188 31.2666 104.237 31.2793 104.252 31.2824C104.26 31.2856 104.291 31.2886 104.291 31.2886C104.309 31.2917 104.327 31.2949 104.345 31.2949L104.409 31.3012C104.437 31.3044 104.466 31.3044 104.496 31.3044C105.067 31.3044 105.176 31.0912 105.222 30.9969C105.318 30.8056 105.481 30.2631 105.481 28.8454V26.4427H114.335V27.4653C114.335 28.9581 114.223 30.1437 114.002 30.9876C113.775 31.8532 113.261 32.7503 112.431 33.7259C111.595 34.695 110.538 35.426 109.284 35.8993C108.07 36.3699 106.511 36.6116 104.654 36.6116C104.571 36.6116 104.489 36.6116 104.407 36.6084H104.351C104.351 36.6084 104.258 36.6052 104.232 36.6052C104.186 36.6052 104.141 36.6052 104.097 36.602H104.052C104.013 36.602 103.973 36.5988 103.933 36.5988L103.906 36.5957C103.852 36.5957 103.788 36.5926 103.725 36.5896L103.701 36.5865C103.665 36.5865 103.629 36.5833 103.593 36.5833C103.536 36.5802 103.481 36.577 103.427 36.5706C103.395 36.5706 103.363 36.5675 103.332 36.5675L103.271 36.5612C103.218 36.558 103.058 36.5457 103.058 36.5457C103.03 36.5425 103.002 36.5393 102.974 36.5361C102.922 36.5329 102.865 36.5267 102.81 36.5206L102.67 36.5079C102.67 36.5079 102.552 36.4921 102.518 36.4892C102.473 36.483 102.428 36.4798 102.385 36.4734C102.33 36.464 102.278 36.4579 102.226 36.4515L102.091 36.4326L102.026 36.4233C101.999 36.4171 101.972 36.4139 101.944 36.4075C101.898 36.4013 101.855 36.3949 101.812 36.3857C101.755 36.3762 101.705 36.3699 101.656 36.3606C101.61 36.3512 101.564 36.3448 101.519 36.3354C101.469 36.3261 101.42 36.3167 101.37 36.3041C101.342 36.3009 101.251 36.2821 101.251 36.2821C101.217 36.2758 101.189 36.2663 101.16 36.2602C101.141 36.257 100.971 36.2194 100.971 36.2194C100.924 36.2068 100.872 36.1944 100.822 36.1819C100.787 36.1754 100.751 36.1661 100.717 36.1568L100.699 36.1504C100.652 36.141 100.599 36.1254 100.545 36.1095C100.508 36.1002 100.472 36.0909 100.436 36.0814C100.391 36.0687 100.349 36.0563 100.307 36.0437L100.265 36.0311C100.239 36.0218 100.224 36.0188 100.209 36.0124L100.17 36.0029L100.121 35.9874C100.054 35.9652 99.9879 35.9433 99.9208 35.9246C98.5135 35.4509 97.4031 34.7891 96.6148 33.9546C95.8251 33.1299 95.2689 32.2015 94.9625 31.1977C94.6642 30.2128 94.5188 28.839 94.5188 27.0011V20.0661C94.5188 17.9143 94.8571 16.1767 95.5243 14.903C96.2149 13.592 97.3517 12.579 98.9023 11.8952C100.397 11.2239 102.144 10.885 104.089 10.882ZM132.096 8.36015L133.288 4.97282H116.217V11.042H121.961L114.01 34.9397L113.994 34.9898H114.05L130.923 34.9867L131.165 30.6053L124.284 30.2913L132.096 8.36015ZM154.136 4.97282H137.098L137.064 10.3363L143.194 10.195L141.161 15.9906L134.857 34.9366L134.842 34.9898H152.012V28.9207H145.706L154.136 4.97282ZM8.65582 5.01041V34.949H0.175781V5.01359L8.65582 5.01041Z" fill="white"/>
<path fill-rule="evenodd" clip-rule="evenodd" d="M132.03 38.9344L141.753 11.2175L136.034 11.3529L136.105 0.147949L125.697 29.3633L132.583 29.6787L132.03 38.9344Z" fill="#FFCC00"/>
<path d="M25.4492 53.3795V58.9217H24.0611V53.3795H22.207V52.1749H27.2932V53.3795H25.4492ZM37.9324 56.9176C37.9324 57.1919 37.8886 57.4481 37.8008 57.6896C37.7129 57.9312 37.5846 58.1433 37.4157 58.3262C37.2469 58.5073 37.0375 58.6526 36.7876 58.7602C36.5376 58.8679 36.2472 58.9217 35.9162 58.9217H32.6437V52.1749H35.7845C36.1358 52.1749 36.438 52.224 36.6913 52.322C36.9446 52.4199 37.154 52.5538 37.3195 52.7251C37.485 52.8947 37.6082 53.0906 37.6893 53.3125C37.7704 53.5345 37.8109 53.7678 37.8109 54.0095C37.8109 54.2575 37.7417 54.5121 37.6031 54.7749C37.4648 55.036 37.2469 55.2384 36.9497 55.3819C37.1186 55.4604 37.2637 55.5599 37.3853 55.6805C37.5069 55.8015 37.6082 55.9319 37.6893 56.0723C37.7704 56.2111 37.8311 56.3546 37.8717 56.5015C37.9122 56.6484 37.9324 56.7872 37.9324 56.9176ZM36.3823 54.1432C36.3823 53.8953 36.3063 53.7059 36.1543 53.5752C36.0023 53.4448 35.7643 53.3795 35.4401 53.3795H34.0317V54.858H35.4603C35.7507 54.858 35.9771 54.7928 36.1391 54.6621C36.3013 54.5317 36.3823 54.3587 36.3823 54.1432ZM36.4633 56.8703C36.4633 56.6108 36.3789 56.4019 36.21 56.2419C36.0412 56.0837 35.8082 56.0037 35.511 56.0037H34.0317V57.7175H35.5211C35.8318 57.7175 36.0665 57.6406 36.2253 57.4888C36.384 57.3354 36.4633 57.1298 36.4633 56.8703ZM48.9062 56.7675C48.9062 57.1331 48.8352 57.453 48.6933 57.7272C48.5514 58.0014 48.3607 58.2331 48.1176 58.4225C47.8743 58.6117 47.589 58.7538 47.263 58.8485C46.9355 58.9431 46.591 58.9902 46.2263 58.9902C45.8615 58.9902 45.5171 58.9431 45.1895 58.8485C44.8635 58.7538 44.5782 58.6117 44.3351 58.4225C44.0918 58.2331 43.9011 58.0014 43.7592 57.7272C43.6174 57.453 43.5465 57.1331 43.5465 56.7675V54.2901C43.5465 53.931 43.6207 53.6144 43.7694 53.3404C43.918 53.0661 44.1154 52.8376 44.3654 52.655C44.6153 52.4721 44.9024 52.3349 45.2249 52.2435C45.5491 52.1522 45.8818 52.1065 46.2263 52.1065C46.5708 52.1065 46.9034 52.1556 47.2276 52.2534C47.5518 52.3513 47.8372 52.4932 48.0871 52.6794C48.3371 52.8655 48.5345 53.097 48.6832 53.3745C48.8318 53.6521 48.9062 53.9702 48.9062 54.3294V56.7675ZM47.5181 54.5643C47.5181 54.3423 47.4809 54.1547 47.4066 54.0013C47.3323 53.8479 47.2343 53.7221 47.1128 53.6242C46.9912 53.5263 46.8544 53.4546 46.7024 53.4088C46.5505 53.3631 46.3935 53.3404 46.2313 53.3404C46.0692 53.3404 45.9104 53.3631 45.7551 53.4088C45.5998 53.4546 45.4613 53.5263 45.3397 53.6242C45.2182 53.7221 45.1202 53.8479 45.046 54.0013C44.9716 54.1547 44.9345 54.3423 44.9345 54.5643V56.5326C44.9345 56.7544 44.9716 56.9439 45.046 57.1005C45.1202 57.2573 45.2182 57.3844 45.3397 57.4823C45.4613 57.5803 45.5998 57.6506 45.7551 57.6928C45.9104 57.7353 46.0692 57.7564 46.2313 57.7564C46.3935 57.7564 46.5505 57.7353 46.7024 57.6928C46.8544 57.6506 46.9912 57.5803 47.1128 57.4823C47.2343 57.3844 47.3323 57.2573 47.4066 57.1005C47.4809 56.9439 47.5181 56.7544 47.5181 56.5326V54.5643ZM58.8868 54.5252L58.1979 55.5534C58.1168 55.6773 58.0171 55.8291 57.8989 56.0087C57.7808 56.1881 57.6507 56.3825 57.5089 56.5914C57.3671 56.8002 57.2218 57.0155 57.0733 57.2375C56.9247 57.4596 56.7811 57.675 56.6427 57.8838C56.5042 58.0927 56.3742 58.2871 56.2525 58.4664C56.131 58.6461 56.0297 58.7979 55.9487 58.9217H54.6923V52.1749H56.0803V56.6108H56.1209L57.5764 54.4077L59.0624 52.1749H60.3256V58.9217H58.9375V54.5252H58.8868ZM57.6102 51.9301C57.3265 51.9301 57.0885 51.8795 56.896 51.7783C56.7034 51.6774 56.5481 51.5532 56.43 51.4063C56.3118 51.2594 56.2256 51.0994 56.1716 50.9266C56.1176 50.7534 56.0838 50.5951 56.0703 50.4517H57.0023C57.0023 50.517 57.0158 50.587 57.0429 50.6622C57.0698 50.7371 57.1087 50.8075 57.1594 50.8727C57.21 50.9379 57.2725 50.9917 57.3469 51.0342C57.4211 51.0767 57.5089 51.0979 57.6102 51.0979C57.7184 51.0979 57.8111 51.0767 57.8889 51.0342C57.9666 50.9917 58.0308 50.9379 58.0813 50.8727C58.132 50.8075 58.1709 50.7371 58.1979 50.6622C58.2249 50.587 58.2384 50.517 58.2384 50.4517H59.1604C59.1401 50.5951 59.103 50.7534 59.049 50.9266C58.9948 51.0994 58.9088 51.2594 58.7906 51.4063C58.6724 51.5532 58.5188 51.6774 58.3295 51.7783C58.1404 51.8795 57.9007 51.9301 57.6102 51.9301ZM77.7227 57.5313H75.291L74.8351 58.9217H73.3559L75.8077 52.1749H77.2261L79.6578 58.9217H78.1482L77.7227 57.5313ZM75.6659 56.4052H77.3478L77.0741 55.5434L76.527 53.7614H76.4866L75.9496 55.5142L75.6659 56.4052ZM84.9678 52.1749H89.527V53.3795H86.3558V54.7406H87.9466C88.2977 54.7406 88.6101 54.7928 88.8837 54.8972C89.1572 55.0016 89.3886 55.1471 89.5778 55.3297C89.7669 55.5126 89.9121 55.7311 90.0134 55.9873C90.1147 56.2419 90.1654 56.5211 90.1654 56.8213C90.1654 57.0694 90.1249 57.3192 90.0438 57.5673C89.9627 57.8154 89.8343 58.0405 89.6588 58.2396C89.4832 58.4388 89.2586 58.6036 88.985 58.731C88.7115 58.8582 88.3822 58.9217 87.9972 58.9217H84.9678V52.1749ZM86.3558 57.7175H87.7742C88.085 57.7175 88.3366 57.6325 88.5292 57.4629C88.7216 57.2931 88.8179 57.0809 88.8179 56.8262C88.8179 56.5651 88.7216 56.353 88.5292 56.1897C88.3366 56.0266 88.0817 55.9449 87.7642 55.9449H86.3558V57.7175ZM98.7074 57.2965C98.4642 57.9166 98.1856 58.3555 97.8716 58.6133C97.5574 58.8711 97.1641 59.0002 96.6912 59.0002H95.9515V57.9425H96.5797C96.7554 57.9425 96.8939 57.9133 96.9952 57.8544C97.0965 57.7956 97.1808 57.6977 97.2485 57.5608C97.2619 57.528 97.2754 57.4987 97.289 57.471C97.3025 57.4449 97.3159 57.4188 97.3295 57.3927L95.1208 52.1749H96.5697L97.4005 54.3686C97.5152 54.6689 97.6183 54.9494 97.7094 55.2106C97.8006 55.4717 97.8767 55.6871 97.9374 55.857H97.9881L98.5452 54.2901C98.5589 54.2509 98.5874 54.1742 98.6314 54.0601C98.6753 53.9459 98.7243 53.8136 98.7783 53.6634C98.8323 53.5132 98.8898 53.3566 98.9505 53.1935C99.0113 53.0303 99.0687 52.8769 99.1227 52.7332C99.1769 52.5895 99.2224 52.4673 99.2596 52.3661C99.2967 52.2649 99.3187 52.2012 99.3255 52.1749H100.703L98.7074 57.2965ZM108.8 53.3795V58.9217H107.411V53.3795H105.557V52.1749H110.644V53.3795H108.8ZM119.429 57.5313H116.997L116.541 58.9217H115.062L117.514 52.1749H118.932L121.364 58.9217H119.854L119.429 57.5313ZM117.372 56.4052H119.054L118.78 55.5434L118.233 53.7614H118.193L117.656 55.5142L117.372 56.4052ZM126.684 58.9217V52.1749H128.072V54.8875H128.781C128.916 54.8875 129.043 54.8761 129.161 54.8531C129.279 54.8304 129.388 54.788 129.485 54.726C129.583 54.664 129.671 54.5758 129.749 54.4615C129.827 54.3472 129.896 54.2021 129.957 54.0257L130.564 52.1749H131.983L131.355 54.1432C131.247 54.4763 131.108 54.7536 130.939 54.9757C130.77 55.1977 130.578 55.3444 130.362 55.4162C130.652 55.5077 130.879 55.6692 131.041 55.9008C131.203 56.1326 131.334 56.4152 131.436 56.748L132.105 58.9217H130.595L130.017 56.9633C129.963 56.7807 129.898 56.6306 129.82 56.5129C129.742 56.3954 129.654 56.304 129.556 56.2387C129.458 56.1735 129.349 56.1294 129.227 56.1065C129.106 56.0837 128.974 56.0723 128.832 56.0723H128.072V58.9217H126.684Z" fill="white"/>
<path fill-rule="evenodd" clip-rule="evenodd" d="M77.1557 44.5664L22.6074 45.1713V45.2331L77.1557 45.8028L131.704 45.2331V45.1713L77.1557 44.5664Z" fill="white"/>
</svg>
