<svg width="68" height="77" viewBox="0 0 68 77" fill="none" xmlns="http://www.w3.org/2000/svg">
<path d="M4.55085 68.3838C5.73406 68.3838 6.64422 68.6872 7.34201 69.3243C7.61506 69.567 7.82743 69.84 7.94879 70.0828C8.07014 70.3255 8.13081 70.6592 8.13081 71.0536C8.13081 71.357 8.0398 71.5997 7.82742 71.8121C7.61505 72.0244 7.37234 72.1155 7.06896 72.1155C6.76557 72.1155 6.52286 72.0244 6.31049 71.8121C6.09812 71.5997 6.0071 71.357 6.0071 71.0536C6.0071 70.9019 6.03745 70.7502 6.09812 70.6289C6.1588 70.5075 6.24981 70.3861 6.34083 70.2648C6.18914 69.9614 5.97676 69.749 5.70371 69.6277C5.43067 69.5063 5.09694 69.4456 4.6722 69.4456C4.39915 69.4456 4.15644 69.5063 3.91373 69.5973C3.67102 69.6884 3.48899 69.8704 3.30696 70.0524C3.12493 70.2345 3.00357 70.4772 2.88222 70.7502C2.76086 71.0233 2.66985 71.2963 2.60917 71.63C2.54849 71.9638 2.51815 72.2975 2.51815 72.6312C2.51815 72.9953 2.5485 73.329 2.63951 73.6324C2.70019 73.9661 2.82154 74.2392 2.9429 74.5122C3.06425 74.7853 3.24628 74.9976 3.42831 75.21C3.61034 75.392 3.82272 75.5741 4.06543 75.6651C4.30814 75.7561 4.55085 75.8168 4.82389 75.8168C5.18796 75.8168 5.55202 75.7258 5.88575 75.5134C6.21947 75.301 6.49253 75.028 6.7049 74.6639C6.91727 74.2998 7.03862 73.8751 7.0993 73.42L8.16115 73.6931C8.10047 73.9661 8.0398 74.2088 7.97912 74.4212C7.91844 74.6336 7.82743 74.8763 7.70607 75.0886C7.58472 75.301 7.46337 75.5134 7.34201 75.6954C7.22066 75.8775 7.03862 76.0291 6.85659 76.1808C6.67456 76.3325 6.46219 76.4539 6.24982 76.5752C6.03745 76.6663 5.7644 76.7573 5.49135 76.818C5.2183 76.8786 4.88457 76.909 4.55085 76.909C4.15644 76.909 3.76204 76.8786 3.39798 76.7876C3.03391 76.6966 2.70019 76.5752 2.42714 76.4539C2.12375 76.3022 1.8507 76.1202 1.60799 75.9078C1.36528 75.6954 1.15291 75.483 0.970882 75.21C0.78885 74.9673 0.637157 74.6942 0.515802 74.4212C0.394447 74.1481 0.303428 73.8448 0.24275 73.5414C0.182073 73.238 0.151733 72.9346 0.151733 72.6312C0.151733 72.3278 0.182073 72.0244 0.24275 71.721C0.303428 71.4177 0.394447 71.1446 0.515802 70.8412C0.637157 70.5682 0.78885 70.2951 0.970882 70.0524C1.15291 69.8097 1.36528 69.567 1.60799 69.3546C1.8507 69.1423 2.12375 68.9602 2.42714 68.8085C2.73052 68.6568 3.03391 68.5355 3.39798 68.4748C3.76204 68.4141 4.15644 68.3838 4.55085 68.3838Z" fill="#A3B0C1"/>
<path d="M11.8018 68.5049C12.1658 68.4139 12.5299 68.3835 12.9547 68.3835C13.3491 68.3835 13.7435 68.4139 14.1075 68.5049C14.4716 68.5959 14.8053 68.7173 15.0784 68.8386C15.3818 68.9903 15.6548 69.1724 15.8975 69.3847C16.1402 69.5971 16.3526 69.8095 16.5346 70.0825C16.7167 70.3556 16.8683 70.5983 16.9897 70.8713C17.1111 71.1444 17.2021 71.4478 17.2627 71.7511C17.3234 72.0545 17.3538 72.3579 17.3538 72.6613C17.3538 72.9647 17.3234 73.2681 17.2627 73.5715C17.2021 73.8749 17.1111 74.1479 16.9897 74.4513C16.8683 74.7547 16.7167 74.9974 16.5346 75.2401C16.3526 75.4828 16.1402 75.7255 15.8975 75.9379C15.6548 76.1503 15.3818 76.3323 15.0784 76.484C14.775 76.6357 14.4716 76.757 14.1075 76.8177C13.7435 76.9087 13.3794 76.9391 12.9547 76.9391C12.5603 76.9391 12.1658 76.9087 11.8018 76.8177C11.4377 76.7267 11.104 76.6053 10.8309 76.484C10.5276 76.3323 10.2545 76.1503 10.0118 75.9379C9.76909 75.7255 9.55671 75.5131 9.37468 75.2401C9.19265 74.9974 9.04096 74.7243 8.9196 74.4513C8.79825 74.1782 8.70723 73.8749 8.64655 73.5715C8.58588 73.2681 8.55554 72.9647 8.55554 72.6613C8.55554 72.3579 8.58588 72.0545 8.64655 71.7511C8.70723 71.4478 8.79825 71.1747 8.9196 70.8713C9.04096 70.5983 9.19265 70.3252 9.37468 70.0825C9.55671 69.8398 9.76909 69.5971 10.0118 69.3847C10.2545 69.1724 10.5276 68.9903 10.8309 68.8386C11.1343 68.6869 11.4377 68.5959 11.8018 68.5049ZM13.6828 69.5971C13.4704 69.4757 13.2277 69.4454 12.9547 69.4454C12.6816 69.4454 12.4389 69.5061 12.2265 69.5971C12.0141 69.6881 11.8321 69.8701 11.6501 70.0522C11.4984 70.2342 11.377 70.4769 11.2557 70.75C11.1343 71.023 11.0736 71.3264 11.013 71.6298C10.9523 71.9332 10.9523 72.2669 10.9523 72.631C10.9523 73.086 10.9826 73.4805 11.0737 73.8749C11.1647 74.2693 11.286 74.603 11.4377 74.9064C11.5894 75.2098 11.8018 75.4221 12.0748 75.6042C12.3479 75.7862 12.6209 75.8469 12.9547 75.8469C13.2884 75.8469 13.5614 75.7559 13.8345 75.6042C14.0772 75.4221 14.2896 75.2098 14.4716 74.9064C14.6233 74.603 14.7446 74.2693 14.8356 73.8749C14.9267 73.4805 14.957 73.086 14.957 72.631C14.957 72.2669 14.9267 71.9332 14.8963 71.6298C14.8357 71.3264 14.775 71.023 14.6536 70.75C14.5323 70.4769 14.4109 70.2342 14.2592 70.0522C14.1075 69.8701 13.9255 69.7184 13.6828 69.5971Z" fill="#A3B0C1"/>
<path d="M17.8998 68.5049H22.4506V69.5667H21.1157V75.6952H23.2394C23.3304 75.6952 23.4214 75.6648 23.4821 75.5738C23.5428 75.5131 23.6035 75.4221 23.6641 75.3008C23.6945 75.1794 23.7248 75.058 23.7551 74.967C23.7855 74.8457 23.7855 74.7243 23.7855 74.6333V73.5715H24.999V76.7874H17.8998V75.7255H18.9616V69.5971H17.8998V68.5049Z" fill="#A3B0C1"/>
<path d="M30.1871 76.7875H25.9093V75.7257H26.9712V69.5973H25.9093V68.5354H30.1871C30.6725 68.5354 31.1276 68.5961 31.5523 68.6871C31.977 68.7781 32.3411 68.9298 32.6748 69.1422C33.0086 69.3545 33.312 69.5669 33.5547 69.8096C33.7974 70.0523 34.0401 70.3557 34.1918 70.6591C34.3738 70.9625 34.4952 71.2962 34.5862 71.63C34.6772 71.9637 34.7075 72.3277 34.7075 72.6918C34.7075 73.0559 34.6772 73.3896 34.5862 73.7537C34.4952 74.0874 34.3738 74.4211 34.1918 74.7245C34.0097 75.0279 33.7974 75.3009 33.5547 75.574C33.2816 75.847 33.0086 76.0594 32.6748 76.2414C32.3411 76.4235 31.977 76.5752 31.5523 76.6965C31.0972 76.7269 30.6725 76.7875 30.1871 76.7875ZM30.1871 75.7257C30.5208 75.7257 30.8545 75.6347 31.1276 75.483C31.4006 75.3313 31.613 75.1189 31.795 74.8459C31.977 74.5728 32.0984 74.2391 32.1894 73.875C32.2804 73.511 32.3108 73.0862 32.3108 72.6615C32.3108 72.2974 32.2804 71.9637 32.2198 71.6603C32.1591 71.3569 32.0681 71.0839 31.977 70.8108C31.886 70.5378 31.7343 70.3254 31.5523 70.1434C31.4006 69.9613 31.1882 69.8096 30.9455 69.7186C30.7028 69.6276 30.4601 69.5669 30.1567 69.5669H29.1252V75.6953H30.1871V75.7257Z" fill="#A3B0C1"/>
<path d="M42.9293 68.3835C44.1125 68.3835 45.0226 68.6869 45.7204 69.324C45.9935 69.5668 46.2058 69.8398 46.3272 70.0825C46.4486 70.3252 46.5092 70.659 46.5092 71.0534C46.5092 71.3567 46.4182 71.5995 46.2058 71.8118C45.9935 72.0242 45.7508 72.1152 45.4474 72.1152C45.144 72.1152 44.9013 72.0242 44.6889 71.8118C44.4765 71.5995 44.3855 71.3567 44.3855 71.0534C44.3855 70.9017 44.4159 70.75 44.4765 70.6286C44.5372 70.5073 44.6282 70.3859 44.7192 70.2645C44.5676 69.9612 44.3552 69.7488 44.0821 69.6274C43.8091 69.5061 43.4754 69.4454 43.0506 69.4454C42.7776 69.4454 42.5349 69.5061 42.2922 69.5971C42.0494 69.6881 41.8674 69.8701 41.6854 70.0522C41.5033 70.2342 41.382 70.4769 41.2606 70.75C41.1393 71.023 41.0483 71.2961 40.9876 71.6298C40.9269 71.9635 40.8966 72.2972 40.8966 72.631C40.8966 72.995 40.9269 73.3288 41.0179 73.6321C41.0786 73.9659 41.2 74.2389 41.3213 74.512C41.4427 74.785 41.6247 74.9974 41.8067 75.2098C41.9888 75.3918 42.2011 75.5738 42.4438 75.6648C42.6866 75.7559 42.9293 75.8165 43.2023 75.8165C43.5664 75.8165 43.9304 75.7255 44.2642 75.5131C44.5979 75.3008 44.8709 75.0277 45.0833 74.6637C45.2957 74.2996 45.4474 73.8749 45.4777 73.4198L46.5396 73.6928C46.4789 73.9659 46.4182 74.2086 46.3575 74.4209C46.2969 74.6333 46.2058 74.876 46.0845 75.0884C45.9631 75.3008 45.8418 75.5131 45.7204 75.6952C45.5991 75.8772 45.417 76.0289 45.235 76.1806C45.053 76.3323 44.8406 76.4536 44.6282 76.575C44.4159 76.666 44.1428 76.757 43.8698 76.8177C43.5967 76.8784 43.263 76.9087 42.9293 76.9087C42.5349 76.9087 42.1405 76.8784 41.7764 76.7874C41.4123 76.6964 41.0786 76.575 40.8056 76.4536C40.5022 76.302 40.2291 76.1199 39.9864 75.9076C39.7437 75.6952 39.5313 75.4828 39.3493 75.2098C39.1673 74.967 39.0156 74.694 38.8942 74.4209C38.7729 74.1479 38.6818 73.8445 38.6212 73.5411C38.5605 73.2377 38.5302 72.9344 38.5302 72.631C38.5302 72.3276 38.5605 72.0242 38.6212 71.7208C38.6818 71.4174 38.7729 71.1444 38.8942 70.841C39.0156 70.5679 39.1673 70.2949 39.3493 70.0522C39.5313 69.8095 39.7437 69.5668 39.9864 69.3544C40.2291 69.142 40.5022 68.96 40.8056 68.8083C41.1089 68.6566 41.4123 68.5352 41.7764 68.4746C42.1405 68.4139 42.5349 68.3835 42.9293 68.3835Z" fill="#A3B0C1"/>
<path d="M50.9388 68.5049H52.3951L55.5807 75.7255H56.3998V76.7874H52.122V75.7255H53.1839L52.6985 74.6636H49.6949L49.2399 75.7255H51.3029V76.7874H47.0251V75.7255H47.905L50.9388 68.5049ZM50.1804 73.5715H52.2737L51.4546 71.6904C51.3332 71.4477 51.2726 71.205 51.2119 70.9623C51.1209 71.2657 51.0299 71.5084 50.9692 71.6904L50.1804 73.5715Z" fill="#A3B0C1"/>
<path d="M57.0974 76.7875V75.7257H58.1593V69.5973H57.0974V68.5354H60.556C61.3752 68.5354 62.0123 68.5657 62.4674 68.6264C62.9224 68.6871 63.2865 68.7478 63.5292 68.8691C63.7719 68.9905 64.0146 69.1422 64.227 69.3545C64.409 69.5366 64.5607 69.7793 64.6518 70.0827C64.7428 70.3861 64.8034 70.6895 64.8034 71.0232C64.8034 72.0547 64.2877 72.7828 63.2865 73.2076C63.6506 73.5109 63.8933 74.0267 63.9843 74.6942C63.9843 74.7548 64.0146 74.8459 64.0146 74.9672C64.045 75.0886 64.045 75.1796 64.045 75.2403C64.045 75.3009 64.0753 75.3616 64.0753 75.4526C64.1057 75.5436 64.1056 75.6043 64.1056 75.6347C64.1056 75.665 64.136 75.7257 64.1663 75.756C64.1967 75.7864 64.1967 75.847 64.227 75.847C64.2573 75.8774 64.2877 75.8774 64.318 75.8774C64.3787 75.8774 64.4394 75.847 64.5001 75.7864C64.5607 75.7257 64.5911 75.6347 64.6214 75.5133C64.6517 75.3919 64.6821 75.2706 64.6821 75.1796C64.7124 75.0886 64.7124 74.9369 64.7428 74.7852C64.7428 74.7548 64.7428 74.7245 64.7428 74.6942L65.6833 74.7852C65.6529 74.9975 65.6529 75.1796 65.6226 75.3009C65.5922 75.4223 65.5922 75.574 65.5316 75.756C65.4709 75.9381 65.4406 76.0594 65.4102 76.1808C65.3495 76.2718 65.2889 76.3931 65.1978 76.5145C65.1068 76.6358 65.0158 76.7269 64.8945 76.7875C64.7731 76.8482 64.6517 76.9089 64.4697 76.9392C64.318 76.9696 64.1057 76.9999 63.8933 76.9999C63.7416 76.9999 63.5899 76.9999 63.4685 76.9696C63.3472 76.9392 63.2258 76.9392 63.1045 76.9089C62.9831 76.8785 62.8921 76.8482 62.8011 76.8179C62.7101 76.7875 62.6191 76.7269 62.5584 76.6662C62.4977 76.6055 62.4067 76.5448 62.346 76.4841C62.2853 76.4235 62.2246 76.3324 62.164 76.2414C62.1033 76.1504 62.0426 76.0291 62.0123 75.938C61.9819 75.847 61.9213 75.7257 61.8606 75.6043C61.7999 75.4526 61.7696 75.3313 61.7392 75.2099C61.7089 75.0886 61.6482 74.9369 61.6179 74.7548C61.5572 74.5425 61.4965 74.3604 61.4358 74.2391C61.3752 74.1177 61.3145 73.9964 61.2235 73.9054C61.1325 73.8143 61.0414 73.7537 60.9504 73.7233C60.8291 73.693 60.7077 73.6626 60.5257 73.6626H60.1313V75.7864H61.1931V76.8482H57.0974V76.7875ZM60.283 72.5098H60.8291C61.8909 72.5098 62.437 72.0244 62.437 71.0535C62.437 70.8715 62.437 70.7198 62.4067 70.5984C62.3763 70.4771 62.346 70.3254 62.2853 70.204C62.2246 70.0827 62.1336 69.9613 62.0426 69.8703C61.9516 69.7793 61.8303 69.7186 61.6482 69.6579C61.4965 69.5973 61.3145 69.5669 61.1021 69.5669H60.3133V72.5098H60.283Z" fill="#A3B0C1"/>
<path d="M58.311 64.9248H0V7.82739C0 3.51929 3.51929 0 7.82738 0H58.3413C62.6494 0 66.1687 3.51929 66.1687 7.82739V57.1278C66.1384 61.4055 62.6191 64.9248 58.311 64.9248ZM4.85419 60.0706H58.311C59.9493 60.0706 61.2842 58.7357 61.2842 57.0975V7.82739C61.2842 6.1891 59.9493 4.85419 58.311 4.85419H7.82738C6.18909 4.85419 4.85419 6.1891 4.85419 7.82739V60.0706Z" fill="#A3B0C1"/>
<path d="M38.8981 1.18574L2.14893 38.4478L4.30904 40.5781L41.0582 3.31613L38.8981 1.18574Z" fill="#A3B0C1"/>
<path d="M61.3496 1.48994L24.6005 38.752L26.7606 40.8823L63.5097 3.62033L61.3496 1.48994Z" fill="#A3B0C1"/>
<path d="M61.3491 23.3349L24.6 60.5969L26.7601 62.7273L63.5092 25.4653L61.3491 23.3349Z" fill="#A3B0C1"/>
<path d="M28.2758 61.6481H25.242V40.1987H2.42725V37.1648H28.2758V61.6481Z" fill="#A3B0C1"/>
<path d="M61.2539 21.2672L67.6554 14.8657V1.82007L61.2843 8.1912L55.4592 14.0162" fill="#DE001F"/>
<path d="M55.4593 14.0166L49.1488 20.3271V33.3727L55.5806 26.9409" fill="#009647"/>
<path d="M55.5806 26.9102L61.2539 21.2369L61.2843 8.16089L55.4592 13.9859L55.5806 26.9102Z" fill="white"/>
</svg>
