<svg width="108" height="122" viewBox="0 0 108 122" fill="none" xmlns="http://www.w3.org/2000/svg">
<path d="M7.21038 108.348C9.08508 108.348 10.5272 108.829 11.6327 109.839C12.0654 110.223 12.4019 110.656 12.5941 111.04C12.7864 111.425 12.8825 111.954 12.8825 112.578C12.8825 113.059 12.7383 113.444 12.4018 113.78C12.0654 114.117 11.6808 114.261 11.2001 114.261C10.7194 114.261 10.3349 114.117 9.99838 113.78C9.6619 113.444 9.51769 113.059 9.51769 112.578C9.51769 112.338 9.56577 112.098 9.66191 111.906C9.75805 111.713 9.90225 111.521 10.0465 111.329C9.80611 110.848 9.46962 110.512 9.037 110.319C8.60438 110.127 8.07562 110.031 7.40265 110.031C6.97003 110.031 6.58548 110.127 6.20093 110.271C5.81637 110.415 5.52796 110.704 5.23954 110.992C4.95113 111.281 4.75885 111.665 4.56658 112.098C4.3743 112.53 4.2301 112.963 4.13396 113.492C4.03782 114.021 3.98974 114.549 3.98974 115.078C3.98974 115.655 4.03782 116.184 4.18203 116.664C4.27817 117.193 4.47045 117.626 4.66272 118.058C4.855 118.491 5.1434 118.827 5.43182 119.164C5.72023 119.452 6.05672 119.741 6.44127 119.885C6.82582 120.029 7.21038 120.125 7.643 120.125C8.21983 120.125 8.79666 119.981 9.32542 119.645C9.85418 119.308 10.2868 118.876 10.6233 118.299C10.9598 117.722 11.152 117.049 11.2482 116.328L12.9306 116.76C12.8345 117.193 12.7383 117.578 12.6422 117.914C12.546 118.251 12.4018 118.635 12.2096 118.972C12.0173 119.308 11.825 119.645 11.6327 119.933C11.4405 120.221 11.1521 120.462 10.8636 120.702C10.5752 120.943 10.2387 121.135 9.90226 121.327C9.56577 121.471 9.13315 121.615 8.70053 121.712C8.2679 121.808 7.73914 121.856 7.21038 121.856C6.58548 121.856 5.96059 121.808 5.38376 121.664C4.80693 121.519 4.27816 121.327 3.84554 121.135C3.36485 120.894 2.93222 120.606 2.54767 120.27C2.16312 119.933 1.82664 119.597 1.53823 119.164C1.24981 118.779 1.00947 118.347 0.817192 117.914C0.624915 117.482 0.480704 117.001 0.384565 116.52C0.288427 116.039 0.240356 115.559 0.240356 115.078C0.240356 114.597 0.288427 114.117 0.384565 113.636C0.480704 113.155 0.624915 112.723 0.817192 112.242C1.00947 111.809 1.24981 111.377 1.53823 110.992C1.82664 110.608 2.16312 110.223 2.54767 109.887C2.93222 109.55 3.36485 109.262 3.84554 109.021C4.32623 108.781 4.80693 108.589 5.38376 108.493C5.96059 108.396 6.58548 108.348 7.21038 108.348Z" fill="#A3B0C1"/>
<path d="M18.6988 108.54C19.2756 108.396 19.8525 108.348 20.5254 108.348C21.1503 108.348 21.7752 108.396 22.3521 108.54C22.9289 108.685 23.4577 108.877 23.8903 109.069C24.371 109.31 24.8036 109.598 25.1881 109.934C25.5727 110.271 25.9092 110.607 26.1976 111.04C26.486 111.473 26.7264 111.857 26.9186 112.29C27.1109 112.722 27.2551 113.203 27.3513 113.684C27.4474 114.165 27.4955 114.645 27.4955 115.126C27.4955 115.607 27.4474 116.087 27.3513 116.568C27.2551 117.049 27.1109 117.481 26.9186 117.962C26.7264 118.443 26.486 118.827 26.1976 119.212C25.9092 119.596 25.5727 119.981 25.1881 120.317C24.8036 120.654 24.371 120.942 23.8903 121.183C23.4096 121.423 22.9289 121.615 22.3521 121.711C21.7752 121.856 21.1984 121.904 20.5254 121.904C19.9005 121.904 19.2756 121.856 18.6988 121.711C18.122 121.567 17.5932 121.375 17.1606 121.183C16.6799 120.942 16.2473 120.654 15.8627 120.317C15.4782 119.981 15.1417 119.644 14.8533 119.212C14.5649 118.827 14.3245 118.395 14.1322 117.962C13.94 117.529 13.7958 117.049 13.6996 116.568C13.6035 116.087 13.5554 115.607 13.5554 115.126C13.5554 114.645 13.6035 114.165 13.6996 113.684C13.7958 113.203 13.94 112.771 14.1322 112.29C14.3245 111.857 14.5649 111.425 14.8533 111.04C15.1417 110.655 15.4782 110.271 15.8627 109.934C16.2473 109.598 16.6799 109.31 17.1606 109.069C17.6413 108.829 18.122 108.685 18.6988 108.54ZM21.6791 110.271C21.3426 110.079 20.9581 110.031 20.5254 110.031C20.0928 110.031 19.7083 110.127 19.3718 110.271C19.0353 110.415 18.7469 110.704 18.4585 110.992C18.2181 111.28 18.0258 111.665 17.8336 112.098C17.6413 112.53 17.5451 113.011 17.449 113.492C17.3529 113.972 17.3529 114.501 17.3529 115.078C17.3529 115.799 17.4009 116.424 17.5452 117.049C17.6894 117.674 17.8816 118.202 18.122 118.683C18.3623 119.164 18.6988 119.5 19.1314 119.789C19.564 120.077 19.9967 120.173 20.5254 120.173C21.0542 120.173 21.4868 120.029 21.9194 119.789C22.304 119.5 22.6405 119.164 22.9289 118.683C23.1692 118.202 23.3615 117.674 23.5057 117.049C23.6499 116.424 23.698 115.799 23.698 115.078C23.698 114.501 23.6499 113.972 23.6019 113.492C23.5057 113.011 23.4096 112.53 23.2173 112.098C23.025 111.665 22.8328 111.28 22.5924 110.992C22.3521 110.704 22.0637 110.463 21.6791 110.271Z" fill="#A3B0C1"/>
<path d="M28.3607 108.541H35.5711V110.223H33.456V119.933H36.8209C36.9651 119.933 37.1093 119.885 37.2054 119.741C37.3016 119.645 37.3977 119.5 37.4939 119.308C37.5419 119.116 37.59 118.923 37.6381 118.779C37.6861 118.587 37.6861 118.395 37.6861 118.25V116.568H39.6089V121.663H28.3607V119.981H30.0431V110.271H28.3607V108.541Z" fill="#A3B0C1"/>
<path d="M47.8288 121.663H41.051V119.981H42.7334V110.271H41.051V108.589H47.8288C48.5979 108.589 49.3189 108.685 49.9919 108.829C50.6649 108.973 51.2417 109.214 51.7704 109.55C52.2992 109.886 52.7799 110.223 53.1645 110.608C53.549 110.992 53.9336 111.473 54.1739 111.953C54.4623 112.434 54.6546 112.963 54.7988 113.492C54.943 114.02 54.9911 114.597 54.9911 115.174C54.9911 115.751 54.943 116.28 54.7988 116.857C54.6546 117.385 54.4623 117.914 54.1739 118.395C53.8855 118.875 53.549 119.308 53.1645 119.741C52.7318 120.173 52.2992 120.51 51.7704 120.798C51.2417 121.087 50.6649 121.327 49.9919 121.519C49.2708 121.567 48.5979 121.663 47.8288 121.663ZM47.8288 119.981C48.3575 119.981 48.8863 119.837 49.3189 119.596C49.7515 119.356 50.088 119.02 50.3764 118.587C50.6648 118.154 50.8571 117.626 51.0013 117.049C51.1455 116.472 51.1936 115.799 51.1936 115.126C51.1936 114.549 51.1456 114.02 51.0494 113.54C50.9533 113.059 50.8091 112.626 50.6649 112.194C50.5206 111.761 50.2803 111.425 49.9919 111.136C49.7515 110.848 49.4151 110.608 49.0305 110.463C48.646 110.319 48.2614 110.223 47.7807 110.223H46.1464V119.933H47.8288V119.981Z" fill="#A3B0C1"/>
<path d="M68.0178 108.348C69.8924 108.348 71.3345 108.829 72.4401 109.838C72.8727 110.223 73.2092 110.655 73.4015 111.04C73.5938 111.425 73.6899 111.953 73.6899 112.578C73.6899 113.059 73.5457 113.443 73.2092 113.78C72.8727 114.116 72.4882 114.261 72.0075 114.261C71.5268 114.261 71.1422 114.116 70.8058 113.78C70.4693 113.443 70.3251 113.059 70.3251 112.578C70.3251 112.338 70.3731 112.098 70.4693 111.905C70.5654 111.713 70.7096 111.521 70.8538 111.328C70.6135 110.848 70.277 110.511 69.8444 110.319C69.4118 110.127 68.883 110.031 68.21 110.031C67.7774 110.031 67.3929 110.127 67.0083 110.271C66.6237 110.415 66.3353 110.704 66.0469 110.992C65.7585 111.28 65.5662 111.665 65.374 112.098C65.1817 112.53 65.0375 112.963 64.9413 113.492C64.8452 114.02 64.7971 114.549 64.7971 115.078C64.7971 115.655 64.8452 116.183 64.9894 116.664C65.0855 117.193 65.2778 117.625 65.4701 118.058C65.6624 118.491 65.9508 118.827 66.2392 119.164C66.5276 119.452 66.8641 119.741 67.2486 119.885C67.6332 120.029 68.0178 120.125 68.4504 120.125C69.0272 120.125 69.604 119.981 70.1328 119.644C70.6616 119.308 71.0942 118.875 71.4307 118.298C71.7671 117.722 72.0075 117.049 72.0556 116.328L73.738 116.76C73.6418 117.193 73.5457 117.577 73.4496 117.914C73.3534 118.25 73.2092 118.635 73.0169 118.971C72.8247 119.308 72.6324 119.644 72.4401 119.933C72.2478 120.221 71.9594 120.462 71.671 120.702C71.3826 120.942 71.0461 121.135 70.7096 121.327C70.3731 121.471 69.9405 121.615 69.5079 121.711C69.0753 121.808 68.5465 121.856 68.0178 121.856C67.3929 121.856 66.768 121.808 66.1911 121.663C65.6143 121.519 65.0855 121.327 64.6529 121.135C64.1722 120.894 63.7396 120.606 63.355 120.269C62.9705 119.933 62.634 119.596 62.3456 119.164C62.0572 118.779 61.8168 118.347 61.6246 117.914C61.4323 117.481 61.2881 117.001 61.1919 116.52C61.0958 116.039 61.0477 115.559 61.0477 115.078C61.0477 114.597 61.0958 114.116 61.1919 113.636C61.2881 113.155 61.4323 112.722 61.6246 112.242C61.8168 111.809 62.0572 111.376 62.3456 110.992C62.634 110.607 62.9705 110.223 63.355 109.886C63.7396 109.55 64.1722 109.261 64.6529 109.021C65.1336 108.781 65.6143 108.588 66.1911 108.492C66.768 108.396 67.3929 108.348 68.0178 108.348Z" fill="#A3B0C1"/>
<path d="M80.7082 108.541H83.0156L88.0628 119.981H89.3607V121.663H82.5829V119.981H84.2654L83.4963 118.299H78.7374L78.0164 119.981H81.2851V121.663H74.5073V119.981H75.9013L80.7082 108.541ZM79.5065 116.568H82.8233L81.5254 113.588C81.3331 113.203 81.237 112.819 81.1409 112.434C80.9967 112.915 80.8524 113.299 80.7563 113.588L79.5065 116.568Z" fill="#A3B0C1"/>
<path d="M90.4661 121.663V119.981H92.1485V110.271H90.4661V108.589H95.9459C97.2438 108.589 98.2533 108.637 98.9743 108.733C99.6953 108.829 100.272 108.925 100.657 109.117C101.041 109.31 101.426 109.55 101.762 109.886C102.051 110.175 102.291 110.559 102.435 111.04C102.579 111.521 102.676 112.002 102.676 112.53C102.676 114.165 101.858 115.318 100.272 115.991C100.849 116.472 101.234 117.289 101.378 118.347C101.378 118.443 101.426 118.587 101.426 118.779C101.474 118.972 101.474 119.116 101.474 119.212C101.474 119.308 101.522 119.404 101.522 119.548C101.57 119.693 101.57 119.789 101.57 119.837C101.57 119.885 101.618 119.981 101.666 120.029C101.714 120.077 101.714 120.173 101.762 120.173C101.81 120.221 101.858 120.221 101.907 120.221C102.003 120.221 102.099 120.173 102.195 120.077C102.291 119.981 102.339 119.837 102.387 119.645C102.435 119.452 102.483 119.26 102.483 119.116C102.531 118.972 102.531 118.731 102.579 118.491C102.579 118.443 102.579 118.395 102.579 118.347L104.07 118.491C104.022 118.827 104.022 119.116 103.973 119.308C103.925 119.5 103.925 119.741 103.829 120.029C103.733 120.318 103.685 120.51 103.637 120.702C103.541 120.846 103.445 121.039 103.301 121.231C103.156 121.423 103.012 121.567 102.82 121.663C102.628 121.76 102.435 121.856 102.147 121.904C101.907 121.952 101.57 122 101.234 122C100.993 122 100.753 122 100.561 121.952C100.368 121.904 100.176 121.904 99.9837 121.856C99.7915 121.808 99.6473 121.76 99.5031 121.712C99.3588 121.663 99.2146 121.567 99.1185 121.471C99.0224 121.375 98.8782 121.279 98.782 121.183C98.6859 121.087 98.5897 120.942 98.4936 120.798C98.3975 120.654 98.3013 120.462 98.2533 120.317C98.2052 120.173 98.109 119.981 98.0129 119.789C97.9168 119.548 97.8687 119.356 97.8206 119.164C97.7726 118.972 97.6764 118.731 97.6284 118.443C97.5322 118.106 97.4361 117.818 97.3399 117.626C97.2438 117.433 97.1477 117.241 97.0035 117.097C96.8592 116.953 96.715 116.857 96.5708 116.808C96.3786 116.76 96.1863 116.712 95.8979 116.712H95.273V120.077H96.9554V121.76H90.4661V121.663ZM95.5133 114.886H96.3786C98.061 114.886 98.9262 114.117 98.9262 112.578C98.9262 112.29 98.9262 112.05 98.8782 111.857C98.8301 111.665 98.782 111.425 98.6859 111.232C98.5897 111.04 98.4455 110.848 98.3013 110.704C98.1571 110.559 97.9648 110.463 97.6764 110.367C97.4361 110.271 97.1477 110.223 96.8112 110.223H95.5614V114.886H95.5133Z" fill="#A3B0C1"/>
<path d="M92.3889 102.868H0V12.4018C0 5.57602 5.57601 0 12.4018 0H92.4369C99.2627 0 104.839 5.57602 104.839 12.4018V90.5142C104.791 97.2919 99.2147 102.868 92.3889 102.868ZM7.69106 95.1769H92.3889C94.9846 95.1769 97.0996 93.0618 97.0996 90.4661V12.4018C97.0996 9.8061 94.9846 7.69106 92.3889 7.69106H12.4018C9.8061 7.69106 7.69106 9.8061 7.69106 12.4018V95.1769Z" fill="#A3B0C1"/>
<path d="M61.6306 1.87873L3.40466 60.9172L6.82719 64.2927L65.0531 5.25414L61.6306 1.87873Z" fill="#A3B0C1"/>
<path d="M97.2032 2.36066L38.9773 61.3992L42.3998 64.7746L100.626 5.73608L97.2032 2.36066Z" fill="#A3B0C1"/>
<path d="M97.2025 36.9722L38.9766 96.0107L42.3991 99.3862L100.625 40.3476L97.2025 36.9722Z" fill="#A3B0C1"/>
<path d="M44.8006 97.6763H39.9937V63.6914H3.8457V58.8845H44.8006V97.6763Z" fill="#A3B0C1"/>
<path d="M97.0517 33.6959L107.194 23.5533V2.88354L97.0998 12.9781L87.8705 22.2073" fill="#DE001F"/>
<path d="M87.8704 22.2078L77.8721 32.2061V52.8759L88.0627 42.6852" fill="#009647"/>
<path d="M88.0628 42.6369L97.0517 33.648L97.0998 12.9302L87.8705 22.1595L88.0628 42.6369Z" fill="white"/>
</svg>
